<svg width="96" height="96" viewBox="0 0 96 96" fill="none" xmlns="http://www.w3.org/2000/svg">
<circle cx="48" cy="48" r="48" fill="#D7F4FE"/>
<mask id="mask0_255_7984" style="mask-type:alpha" maskUnits="userSpaceOnUse" x="0" y="0" width="96" height="96">
<circle cx="48" cy="48" r="48" fill="#D7F4FE"/>
</mask>
<g mask="url(#mask0_255_7984)">
<path d="M80.8957 100.399L47.6701 70.539C46.7192 69.7336 46.5934 68.3123 47.3889 67.3529L61.7453 50.0732C62.5606 49.0926 64.0229 48.974 64.9837 49.8118L102.698 84.2766L80.8943 100.398L80.8957 100.399Z" fill="#ABE5F5"/>
<mask id="mask1_255_7984" style="mask-type:luminance" maskUnits="userSpaceOnUse" x="46" y="49" width="57" height="52">
<path d="M80.8957 100.399L47.6701 70.539C46.7192 69.7336 46.5934 68.3123 47.3889 67.3529L61.7453 50.0732C62.5606 49.0926 64.0229 48.974 64.9837 49.8118L102.698 84.2766L80.8943 100.398L80.8957 100.399Z" fill="white"/>
</mask>
<g mask="url(#mask1_255_7984)">
<path d="M51.4045 57.7114C51.4116 58.035 51.4681 58.4659 51.5345 58.9491C51.6009 59.4323 51.6885 59.9622 51.7691 60.4807C51.7253 59.6711 51.6278 58.8163 51.4045 57.7128V57.7114Z" fill="#3ED1FF"/>
<path d="M51.7704 60.4994C51.7704 60.4994 51.7732 60.5104 51.7745 60.5145C51.7732 60.5007 51.7718 60.4911 51.769 60.4788C51.769 60.487 51.769 60.4925 51.769 60.4994H51.7704Z" fill="#3ED1FF"/>
<path d="M73.2804 76.6029L73.1137 76.432C73.1207 76.0999 73.1165 75.8428 73.1179 75.6365C73.1193 75.4302 73.125 75.2776 73.132 75.1618C73.1462 74.9287 73.1674 74.8382 73.1871 74.7535C73.2225 74.5867 73.262 74.4426 73.1843 73.2346C73.1108 73.0029 73.06 72.6369 73.0232 72.2074C72.9809 71.7793 72.9484 71.2876 72.9201 70.7988C72.8848 70.3141 72.8551 69.8295 72.8184 69.4198C72.7802 69.0114 72.7378 68.6724 72.6856 68.4731C72.7068 68.4901 72.5881 67.3386 72.67 67.4036C72.4991 67.0659 72.5033 66.2252 72.3775 65.5047C72.3083 65.2475 72.3634 65.7025 72.3479 65.9031L72.0879 64.2528C72.0385 63.6001 72.0921 63.4305 72.2052 64.1313C72.071 63.066 71.794 61.0088 71.356 58.4529C71.137 57.1756 70.8785 55.774 70.5818 54.3103C70.5069 53.9443 70.4292 53.5756 70.3529 53.2026C70.3133 53.0161 70.2737 52.8296 70.2342 52.6416L70.2003 52.4834L70.1494 52.2743C70.1127 52.133 70.0717 51.9889 70.0223 51.842C69.9233 51.5467 69.799 51.2372 69.6238 50.9123C69.45 50.5887 69.2127 50.2397 68.8905 49.9063C68.5698 49.5743 68.1502 49.2535 67.6627 49.0374C67.1781 48.8198 66.6652 48.7138 66.1933 48.6884L64.0047 48.5725L63.6275 50.754C63.0567 54.0602 62.8165 57.4568 62.9013 60.3165C62.9394 61.7463 63.0312 63.042 63.1443 64.1313C63.2079 64.6753 63.2672 65.1684 63.3181 65.6036C63.3873 66.0359 63.4466 66.4089 63.4961 66.7155C63.5017 66.3976 63.417 65.872 63.3703 65.3492C63.3251 64.825 63.2898 64.3079 63.3336 64.0169C63.448 64.6498 63.4947 65.1203 63.5314 65.5004C63.5766 65.8805 63.6176 66.1701 63.7038 66.4428C63.6289 66.7028 63.708 67.4064 63.8479 68.1595C63.9129 68.5367 63.9779 68.9295 64.0302 69.2912C64.0909 69.6501 64.1333 69.9765 64.1305 70.228L64.3396 70.5586C64.3636 70.7719 64.3791 70.9881 64.4102 71.2C64.6109 71.8782 64.7663 72.4066 64.8892 72.822C65.0263 73.2318 65.1266 73.5285 65.2 73.7489C65.3484 74.1883 65.3936 74.3225 65.4275 74.4398C65.4614 74.5571 65.4826 74.656 65.6027 75.0205C65.6635 75.2028 65.7454 75.4528 65.8627 75.8046C65.922 75.9798 65.9913 76.1819 66.069 76.4136C66.1566 76.6425 66.2555 76.9011 66.3671 77.1935C66.5013 77.5298 66.6299 77.8435 66.7528 78.1373C66.8814 78.4284 67.0114 78.6968 67.1315 78.9512C67.3745 79.4584 67.585 79.902 67.8012 80.3075C68.2279 81.1214 68.6037 81.7925 68.9923 82.5413C68.8693 82.3223 68.615 81.7049 69.0262 82.369C69.0078 82.4552 69.2819 82.8988 69.597 83.3622C69.7552 83.5939 69.9191 83.8299 70.059 84.0305C70.1946 84.2326 70.302 84.3993 70.3387 84.4954C70.569 84.8147 71.0918 85.4802 71.5312 85.9478C71.7559 86.1781 71.9466 86.3675 72.0554 86.448C72.1656 86.5271 72.1812 86.5059 72.0554 86.3222C72.1176 86.4155 72.2688 86.5879 72.4411 86.7814C72.6135 86.9764 72.8254 87.1756 72.9893 87.3438C73.3284 87.6673 73.498 87.8397 72.9385 87.4116C73.2408 87.6716 73.5347 87.9315 73.83 88.1491C73.9035 88.2042 73.9741 88.2579 74.0448 88.3102C74.114 88.3625 74.1832 88.4133 74.2609 88.4628C74.4107 88.5603 74.552 88.6563 74.689 88.727C74.5364 88.6253 74.3895 88.5108 74.2412 88.402C74.0985 88.2932 73.9727 88.1859 73.8385 88.0771C73.9755 88.1774 74.1013 88.2734 74.2355 88.3695C74.3782 88.4656 74.5153 88.5589 74.6509 88.6493C74.788 88.7341 74.9208 88.816 75.0507 88.8965C75.1836 88.9714 75.3121 89.0449 75.4379 89.1155C75.9479 89.3882 76.4227 89.6115 76.8932 89.781C77.1249 89.8714 77.3622 89.9393 77.5897 90.0099C77.8271 90.0678 78.0517 90.1328 78.2905 90.171C78.4092 90.1907 78.5279 90.2091 78.6451 90.2289C78.7638 90.2459 78.8882 90.2543 79.0097 90.2656C79.2513 90.2911 79.5056 90.2882 79.7628 90.2826C79.5706 90.2614 79.3742 90.2473 79.1877 90.2134C79.0026 90.1795 78.8133 90.1512 78.6324 90.1074C79.5197 90.2572 80.407 90.2444 81.1629 90.1356C81.9231 90.0382 82.5391 89.8121 82.9517 89.716C82.2947 90.0424 81.5939 90.2473 80.91 90.3476C81.7436 90.2458 82.5137 89.9929 83.1834 89.644C83.8531 89.2907 84.4253 88.8301 84.869 88.3314C85.3154 87.8326 85.6489 87.307 85.9117 86.7828C86.1773 86.2558 86.3652 85.7302 86.5263 85.199C86.4401 85.4477 86.344 85.7048 86.2338 85.9662C86.2974 85.7868 86.3751 85.5635 86.4528 85.3092C86.5348 85.0506 86.6125 84.7709 86.6888 84.4756C86.7679 84.1761 86.8569 83.8469 86.9516 83.4908C87.0434 83.1348 87.1239 82.749 87.2186 82.3449C87.5789 80.7244 87.8954 78.7491 88.0268 76.7654C88.1667 74.7831 88.1186 72.7994 87.966 71.1788C87.9236 70.7733 87.8855 70.3904 87.8431 70.0358C87.7894 69.6826 87.74 69.3548 87.6947 69.0609C87.6707 68.914 87.6495 68.7741 87.6283 68.6441C87.6015 68.5141 87.5761 68.394 87.5535 68.2824C87.5054 68.0592 87.4644 67.8741 87.4291 67.73C87.4447 68.0931 87.4701 68.4534 87.4743 68.8151C87.4178 68.4844 87.3387 68.1567 87.2723 67.8274C87.2031 67.4997 87.1367 67.1705 87.0476 66.8469C87.1027 67.0758 87.6015 67.7356 87.5944 67.9433C87.5718 67.8091 87.5478 67.6579 87.5195 67.4898C87.4927 67.3216 87.463 67.1365 87.4192 66.9387C87.3359 66.5417 87.2483 66.0825 87.1324 65.5753C87.0688 65.3224 87.0038 65.0568 86.9346 64.7798C86.8993 64.64 86.864 64.4972 86.8272 64.3503L86.8103 64.2839L86.7848 64.1963C86.7665 64.1384 86.7481 64.0805 86.7312 64.0211C86.6944 63.9038 86.6577 63.7852 86.6209 63.6665C86.4726 63.1889 86.32 62.6944 86.1632 62.1843C86.0925 61.9173 85.9809 61.7068 85.8848 61.468C85.7845 61.2349 85.6842 60.9975 85.5811 60.7573C85.4793 60.5171 85.3748 60.2755 85.2702 60.0297C85.2208 59.8983 85.1586 59.8036 85.0993 59.6991C85.0399 59.5959 84.9777 59.5013 84.9156 59.4024C84.6655 59.0223 84.4027 58.6818 84.1187 58.3766C83.8333 58.0742 83.5253 57.7931 83.182 57.5712C82.8372 57.3508 82.4656 57.1799 82.0629 57.0824C81.6631 56.9807 81.129 56.992 80.6783 57.1629C80.2262 57.3325 79.8913 57.608 79.6384 57.892C79.5748 57.9626 79.5169 58.0375 79.4646 58.111C79.4109 58.1844 79.3671 58.2523 79.3219 58.3441C79.2329 58.5151 79.1439 58.6874 79.0535 58.8584L78.9193 59.1155C78.9136 59.1268 78.9079 59.1353 78.9023 59.1494L78.8882 59.1947L78.8613 59.2865L78.8062 59.4702L78.5886 60.2049L78.5335 60.3886C78.5251 60.4196 78.5138 60.4479 78.5081 60.4832L78.4968 60.6019L78.453 61.0795C78.4233 61.3974 78.3951 61.7138 78.3654 62.0318L78.3442 62.2691L78.3329 62.5178L78.3117 63.0123C78.2976 63.3415 78.2835 63.6707 78.2693 63.9985C78.2608 64.161 78.258 64.3277 78.2566 64.493C78.2538 64.6583 78.251 64.8236 78.2524 64.9918C78.2538 65.2602 78.2566 65.5273 78.258 65.7929C78.2651 66.197 78.2849 66.5968 78.2976 66.9924C78.3711 68.5749 78.5378 70.0796 78.7483 71.4332C78.8062 71.7708 78.8613 72.1 78.915 72.4179C78.9715 72.7358 79.0422 73.0424 79.1015 73.3377C79.2146 73.9312 79.3601 74.4723 79.4788 74.9626C79.5084 75.0855 79.5381 75.2042 79.5664 75.32C79.5989 75.4345 79.6313 75.5461 79.661 75.6535C79.7232 75.8696 79.7811 76.0703 79.8348 76.2568C79.8885 76.4433 79.9365 76.6142 79.9803 76.7682C80.0298 76.9208 80.075 77.0579 80.1131 77.178C80.578 78.7364 80.0284 77.5185 80.0044 77.5044C80.3406 78.4397 80.4706 78.6206 80.554 78.7774C80.5978 78.8551 80.6373 78.9243 80.7037 79.0727C80.7362 79.1476 80.7772 79.2408 80.8267 79.3651C80.8775 79.4895 80.9369 79.6449 81.0245 79.8371C81.1954 80.2652 80.8931 79.789 80.7815 79.5545C81.0866 80.2298 81.3395 80.8727 81.4116 80.901C81.0711 80.0377 81.3678 80.3344 81.2972 79.9402L81.7337 80.9264L82.2141 81.8928L82.087 81.8504C82.1986 82.0638 82.3808 82.3153 82.6903 82.7264C82.8429 82.9341 83.0181 83.1856 83.2187 83.5007C83.2696 83.5798 83.319 83.6632 83.3755 83.7494C83.432 83.8341 83.4914 83.9231 83.5536 84.0164C83.6765 84.2029 83.805 84.4092 83.9435 84.6352C84.9057 86.1357 86.0388 87.6221 87.3062 88.9856C87.456 89.1636 87.6283 89.3204 87.788 89.4885L88.2769 89.9845C88.4408 90.1484 88.599 90.3179 88.7685 90.4747C88.9395 90.6302 89.1091 90.7856 89.2786 90.941C89.4481 91.0964 89.6177 91.2504 89.7858 91.4058L90.0387 91.6376C90.1249 91.7124 90.2139 91.7831 90.3001 91.8566C90.6491 92.1462 90.9953 92.433 91.3386 92.7184C91.2609 92.7269 90.6604 92.2776 90.0571 91.8241C90.4259 92.1321 90.9995 92.5842 91.316 92.8964C91.1648 92.7396 91.1634 92.7184 91.2397 92.765C91.3174 92.8117 91.4672 92.9346 91.6325 93.0462C91.9575 93.2751 92.2966 93.5238 92.0394 93.3076C92.5989 93.6481 93.1711 94.0508 93.7829 94.4224C94.0853 94.6145 94.389 94.8123 94.6928 95.0115C94.8426 95.1147 95.0008 95.2037 95.1562 95.2984C95.3117 95.3916 95.4671 95.4849 95.6225 95.5781C95.9333 95.7646 96.2414 95.9497 96.5437 96.1306C96.8489 96.3086 97.1597 96.4626 97.4564 96.6222C98.0555 96.9317 98.6193 97.2284 99.1547 97.4262C99.2226 97.4008 99.6295 97.3202 100.19 97.2029C100.469 97.1436 100.788 97.0758 101.126 97.0037C101.465 96.9218 101.822 96.8285 102.176 96.7353C102.882 96.546 103.563 96.3552 104.076 96.18C104.593 95.9977 104.938 95.8536 104.959 95.7957C105.574 96.0288 106.184 96.2606 106.365 96.3496C106.225 96.2351 105.027 95.7604 104.371 95.5527L104.211 95.6346C102.741 95.0667 103.901 95.4185 102.481 94.8321C102.465 94.7671 102.784 94.866 103.251 95.0398C103.484 95.1274 103.754 95.2334 104.038 95.3464C104.108 95.3747 104.18 95.4043 104.252 95.4326C104.326 95.4594 104.401 95.4849 104.474 95.5117C104.623 95.5654 104.772 95.6191 104.918 95.6714C104.657 95.5682 104.394 95.4722 104.148 95.3605C103.903 95.2503 103.668 95.1444 103.451 95.0469C103.016 94.8561 102.652 94.7134 102.419 94.6795C102.18 94.5707 102.078 94.4973 102.03 94.4605C101.983 94.4224 101.997 94.4097 102.006 94.3955C102.022 94.3659 102.013 94.3249 101.456 94.0352C101.251 93.9462 101.028 93.8544 100.794 93.7583C100.676 93.7103 100.558 93.6608 100.436 93.6114C100.316 93.5591 100.199 93.4998 100.079 93.4432C99.5984 93.2115 99.1081 92.9629 98.6715 92.6944L98.697 92.6859C98.1756 92.3482 97.7108 92.0614 97.2685 91.8113C97.0453 91.6898 96.8418 91.5584 96.6398 91.4341C96.4363 91.3112 96.2385 91.1911 96.0421 91.0724C95.8457 90.9537 95.6493 90.835 95.4515 90.7164C95.2622 90.5864 95.0715 90.4535 94.8765 90.3151C94.6815 90.1766 94.4837 90.0311 94.2788 89.8771C94.1785 89.798 94.0711 89.7231 93.9708 89.6341C93.8705 89.5451 93.7688 89.4532 93.6642 89.36L93.8733 89.4857C93.7306 89.3473 93.5441 89.1862 93.3294 89.0067C93.222 88.9177 93.1061 88.8231 92.9874 88.7256C92.8674 88.6281 92.7388 88.5278 92.6187 88.4133C92.1312 87.9626 91.5562 87.4836 91.0956 86.9411C91.364 87.2449 91.5576 87.5529 90.9472 86.951C90.3835 86.3562 89.9455 85.8291 89.5244 85.3586C89.4722 85.2993 89.4213 85.2414 89.369 85.1834C89.321 85.1227 89.2744 85.0619 89.2277 85.0026C89.1345 84.8825 89.0441 84.7638 88.9522 84.6465C88.7742 84.4092 88.5962 84.1775 88.4337 83.9274L87.6849 83.0599C87.2864 82.4735 86.7566 81.6597 86.19 80.6396C85.6376 79.6124 85.0159 78.3959 84.4917 76.9887C83.9562 75.5885 83.4787 74.0202 83.1226 72.3487C82.7637 70.6773 82.5264 68.9041 82.4176 67.1153C82.3921 66.6675 82.378 66.2196 82.3611 65.7717L82.3582 65.4368V65.4128L82.3526 65.3478C82.3498 65.2588 82.3484 65.1656 82.3526 65.0695C82.3582 64.9762 82.3455 64.8646 82.4119 64.7897C82.443 64.753 82.4953 64.7431 82.5334 64.7601C82.5716 64.777 82.6041 64.8039 82.6323 64.8321C82.744 64.9522 82.7849 65.1133 82.8372 65.2475C82.8485 65.2828 82.8598 65.3153 82.8697 65.3478L82.874 65.3605L82.8768 65.3676L82.8852 65.4015C82.9008 65.4637 82.9163 65.5258 82.9319 65.5866C82.963 65.7109 82.9926 65.8324 83.0223 65.9497C83.0816 66.1857 83.1367 66.4061 83.1876 66.6124C83.23 66.82 83.2696 67.0136 83.3063 67.1902L83.2455 66.9712C83.3021 67.2397 83.36 67.518 83.4193 67.8048C83.4744 68.0917 83.5182 68.3898 83.5691 68.695C83.5945 68.8476 83.62 69.0016 83.6454 69.1584C83.6652 69.3152 83.6849 69.4749 83.7047 69.636C83.7415 69.9581 83.7909 70.2859 83.8206 70.6236C83.9548 71.9715 83.9986 73.4366 83.9393 74.9739C83.8785 76.5097 83.7047 78.1176 83.3981 79.741C83.3134 80.1451 83.2286 80.552 83.1438 80.9603C83.0421 81.3658 82.9418 81.7727 82.8386 82.181C82.7214 82.5851 82.6027 82.9906 82.484 83.3961C82.3653 83.796 82.2452 84.1323 82.1138 84.4304C81.9838 84.7285 81.844 84.9729 81.6998 85.1594C81.5557 85.3473 81.4144 85.4872 81.2519 85.5932C81.17 85.6455 81.0852 85.6992 80.9863 85.7373C80.9369 85.7557 80.8902 85.7811 80.8394 85.7995C80.7857 85.8136 80.7334 85.8291 80.6811 85.8475C80.4607 85.9026 80.2135 85.9351 79.9408 85.9365C79.6653 85.9295 79.3714 85.8956 79.0704 85.8348C78.7681 85.7656 78.4601 85.6709 78.1563 85.555C77.8539 85.4321 77.5572 85.2922 77.2732 85.134C76.9878 84.9687 76.7448 84.8104 76.4538 84.5872C75.3347 83.7508 74.4206 82.7335 73.6675 81.6639C72.9116 80.5958 72.3168 79.4796 71.8082 78.4482C71.6782 78.1133 71.5355 77.746 71.3857 77.3631C71.308 77.1723 71.2289 76.9774 71.1483 76.7796C71.0664 76.5832 70.983 76.3839 70.9095 76.1805C70.7555 75.7778 70.6001 75.3723 70.4504 74.9795C70.3034 74.5867 70.1819 74.1996 70.0618 73.845C70.2964 74.6461 70.1325 74.4031 69.9205 73.7842C69.7255 73.2459 69.6054 72.8277 69.5065 72.5126C69.4062 72.1975 69.337 71.9814 69.2875 71.8316C69.1858 71.5321 69.1717 71.4939 69.1477 71.4572C69.1251 71.4204 69.0996 71.3823 69.0021 71.0743C68.9117 70.7649 68.7153 70.1926 68.4582 69.0609C68.413 68.8801 68.3649 68.6808 68.3112 68.4647C68.2575 68.2485 68.218 68.014 68.1657 67.7639C68.0682 67.2637 67.9439 66.7042 67.8577 66.0853C67.8097 65.7759 67.7588 65.4552 67.7079 65.1218C67.6599 64.7869 67.626 64.4393 67.5836 64.0819C67.4875 63.3684 67.4437 62.6068 67.3816 61.817C67.2996 60.2331 67.2685 58.5193 67.3702 56.7673C67.4734 55.0167 67.6811 53.2308 67.9778 51.5043L65.9927 52.9285C65.9927 52.7434 66.0407 52.6162 66.0449 52.6049C66.0464 52.6021 66.0393 52.6162 66.0379 52.6176C66.0379 52.6134 66.0252 52.6416 66.0139 52.6586L65.9658 52.7222C65.9418 52.7547 65.9234 52.7702 65.8909 52.8055C65.857 52.8437 65.8217 52.8776 65.7836 52.9087C65.7666 52.9214 65.7384 52.9497 65.7158 52.968L65.6974 52.9836C65.6974 52.9836 65.6974 52.9836 65.6946 52.985C65.6946 52.985 65.6974 52.9892 65.7002 52.9949C65.703 52.9991 65.7073 53.0019 65.7115 53.0132C65.7299 53.0415 65.7581 53.1051 65.785 53.18C65.8132 53.2548 65.8401 53.3495 65.8627 53.4527C65.8966 53.6137 65.9305 53.7734 65.9644 53.9316C66.0336 54.2679 66.1029 54.5999 66.1721 54.9277C66.4391 56.2403 66.6737 57.4893 66.8715 58.6295C67.2671 60.9099 67.5243 62.7566 67.6585 63.8247C67.9213 65.109 68.1191 66.57 68.2858 68.0252C68.4497 69.4819 68.591 70.9358 68.728 72.1933L68.6715 71.9404C68.7393 72.6186 68.851 74.0894 68.8608 75.9375C68.8736 77.7841 68.7365 80.0038 68.3239 82.1514C68.2053 82.6826 68.105 83.2209 67.9538 83.7366C67.9184 83.8666 67.8845 83.9966 67.8492 84.1252L67.7984 84.3188L67.7376 84.5081C67.6557 84.7596 67.5737 85.0083 67.4932 85.2555L67.4338 85.4406L67.3646 85.62C67.318 85.7387 67.2713 85.8574 67.2261 85.9761C67.1809 86.0934 67.1357 86.2106 67.0905 86.3265C67.0453 86.4423 67.0029 86.5596 66.9492 86.6684C66.8475 86.8902 66.7472 87.1092 66.6497 87.324C66.6002 87.4314 66.5536 87.5387 66.5041 87.6419C66.4504 87.7436 66.3954 87.8439 66.3431 87.9428C66.2371 88.1421 66.134 88.3356 66.0351 88.5235C66.0096 88.5702 65.9856 88.6182 65.9616 88.6634C65.9376 88.7086 65.9206 88.7341 65.8994 88.7708C65.8599 88.8358 65.8203 88.8965 65.7822 88.9516C65.744 89.0067 65.7073 89.059 65.672 89.1014C65.6578 89.1212 65.6423 89.1367 65.6267 89.1537C65.5971 89.1862 65.5646 89.2144 65.5321 89.2399C65.4671 89.2893 65.395 89.3162 65.3329 89.3275C65.2693 89.343 65.2128 89.3388 65.169 89.3331C65.2 89.3473 65.2325 89.3586 65.2664 89.3656C65.1845 89.3783 65.111 89.3656 65.0517 89.3458C64.981 89.319 64.9782 89.3232 64.8186 89.2272C64.69 89.1424 64.5798 89.0675 64.4795 89.0011C64.3848 88.9262 64.3043 88.8556 64.2251 88.7892C64.1446 88.7242 64.0754 88.6493 64.0019 88.5758C63.9284 88.4995 63.8479 88.4275 63.7659 88.3314C63.684 88.2353 63.5837 88.1435 63.4834 88.0149C63.4311 87.9541 63.3732 87.8877 63.3124 87.8171C63.2531 87.7436 63.1909 87.6631 63.1217 87.5783C63.133 87.721 62.7981 87.454 62.4407 87.0033C62.0775 86.5596 61.7074 85.9238 61.5265 85.5494L61.5746 85.5607C61.2891 85.0097 60.8441 84.0673 60.4146 82.9143C60.3044 82.6318 60.1927 82.3407 60.0797 82.0496C59.9766 81.7529 59.8734 81.4562 59.7703 81.1609C59.67 80.8656 59.5654 80.5746 59.4764 80.2864C59.3902 79.9967 59.3054 79.7155 59.2249 79.4457L59.3394 79.505C59.2631 79.2832 59.1825 79.0359 59.0992 78.7703C59.02 78.5033 58.9423 78.2165 58.8604 77.9183C58.7798 77.6202 58.6951 77.3136 58.616 77C58.5411 76.6849 58.4662 76.367 58.3927 76.0533C58.2401 75.426 58.1158 74.8072 58.0028 74.266C57.8869 73.7249 57.7979 73.2544 57.7315 72.9209C57.4475 71.3894 57.1578 69.4226 56.8484 67.3132C56.5376 65.2051 56.2013 62.9515 55.793 60.8633C55.7336 59.9449 55.663 59.0237 55.5909 58.1011L55.492 57.7069C55.492 57.7069 54.4917 56.7574 53.5394 56.5342C53.0619 56.4226 52.5984 56.4875 52.2735 56.927C52.111 57.146 51.9838 57.4596 51.9075 57.8891C51.8694 58.1039 51.8439 58.3483 51.8326 58.6253C51.8185 58.9036 51.8199 59.2144 51.8369 59.562L51.7295 59.4914L51.9287 60.5638C52.0997 61.8664 52.3045 62.4486 52.1972 62.3765L51.9146 60.5991C52.1039 61.9046 51.9033 61.0046 51.7691 60.5171C51.851 61.0625 51.9273 61.5909 51.9697 62.0275C52.0474 62.2776 51.9768 61.8325 51.9626 61.6277C52.1124 62.3214 52.354 63.2878 52.4487 64.1525C52.6521 65.499 52.3116 64.2613 52.5504 65.8324C53.1678 69.9821 53.8008 74.1318 54.7828 78.2829C55.2702 80.357 55.8622 82.4297 56.5814 84.4841C56.9233 85.5042 57.3401 86.5822 57.8742 87.6631C58.1469 88.2042 58.4521 88.7454 58.7996 89.278C59.1528 89.8093 59.5513 90.3292 59.9949 90.8237C60.1334 91.0272 59.9314 90.8181 59.7222 90.5934C60.2507 91.1967 60.8314 91.7421 61.4516 92.2183C61.6113 92.3313 61.7695 92.4443 61.9264 92.5559C62.0832 92.6704 62.2513 92.7636 62.4124 92.8668L62.6568 93.0165L62.7911 93.0928L62.9535 93.1804C63.2107 93.3147 63.4749 93.4319 63.7433 93.528C64.8186 93.9194 66.0054 93.9053 67.0326 93.4701C67.5454 93.2553 68.0188 92.9459 68.4342 92.5687C68.6419 92.3807 68.834 92.173 69.0149 91.9583C69.1095 91.8396 69.1759 91.7562 69.2395 91.6672C69.3031 91.5782 69.3681 91.4878 69.4246 91.4002C69.5673 91.2094 69.6704 91.0583 69.758 90.9325C69.7962 90.8774 69.8301 90.828 69.8612 90.7828C69.8909 90.7418 69.9177 90.705 69.9417 90.6711C70.0406 90.5369 70.1098 90.4578 70.1777 90.373C70.1042 90.455 70.5196 89.7188 71.0339 88.4981C71.0678 88.4218 71.1017 88.3455 71.1356 88.2664C71.1667 88.1859 71.1978 88.1039 71.2289 88.0191C71.2924 87.851 71.3574 87.6772 71.4253 87.4978C71.4931 87.3183 71.5623 87.1332 71.633 86.9453C71.6937 86.7532 71.7573 86.5568 71.8209 86.3576C71.9466 85.9563 72.0851 85.5423 72.1882 85.1142C72.2956 84.6861 72.4228 84.2524 72.5061 83.8115C72.8933 82.0553 73.0967 80.268 73.1801 78.9215C73.2041 78.5838 73.2126 78.2758 73.2267 77.9989C73.238 77.7234 73.255 77.4789 73.255 77.2783C73.262 76.8756 73.2677 76.6326 73.2705 76.6058L73.2804 76.6029Z" fill="#3ED1FF"/>
</g>
<path d="M49.0777 31.7337C48.8757 31.2646 48.4928 30.4706 48.1212 29.7231C48.3925 30.3053 48.6864 30.9213 49.0777 31.7337Z" fill="#192833"/>
<path d="M48.1156 29.7087C48.1156 29.7087 48.1115 29.7005 48.1101 29.6978C48.1156 29.7074 48.1183 29.7156 48.1225 29.7239C48.1197 29.7184 48.1183 29.7142 48.1156 29.7101V29.7087Z" fill="#192833"/>
<path d="M49.3279 58.1207C49.1485 58.0162 48.945 57.8989 48.7373 57.7788C48.9351 57.8933 49.1357 58.0105 49.3279 58.1207Z" fill="#192833"/>
<path d="M43.2212 33.7386L43.1124 33.6651C42.4582 32.9233 42.3664 32.8117 42.2901 32.7114C42.2124 32.6125 42.1488 32.5263 41.5286 31.8523C41.27 31.6037 40.7557 31.0442 40.2428 30.496C39.7299 29.9478 39.2185 29.4137 38.9853 29.1975C38.9882 29.1989 38.9514 29.1608 38.8949 29.1029C38.8384 29.0449 38.7621 28.9658 38.6872 28.8895C38.5375 28.7341 38.3905 28.5829 38.4159 28.5985C38.2026 28.4233 37.7533 27.9542 37.3379 27.567C37.1839 27.43 37.4425 27.6772 37.547 27.7889C37.2319 27.4922 36.9155 27.1969 36.5933 26.9058C36.2231 26.5568 36.1412 26.4607 36.5509 26.8309C36.2387 26.5427 35.7738 26.1202 35.1776 25.6144C34.5799 25.11 33.8551 24.5166 32.9834 23.9246C32.5454 23.6293 32.0749 23.3326 31.5281 23.0783C31.254 22.9525 30.9629 22.8353 30.6154 22.766C30.4416 22.7335 30.2494 22.7109 30.0234 22.7406C29.9131 22.7533 29.7888 22.79 29.6673 22.8451C29.5444 22.9045 29.4285 22.9935 29.3353 23.0995C29.2434 23.2068 29.1799 23.3269 29.1375 23.4414C29.0965 23.5558 29.0725 23.6674 29.0612 23.7706C29.0372 23.9783 29.0499 24.1648 29.0725 24.3414C29.1205 24.6932 29.2152 25.0097 29.324 25.3163C29.543 25.9281 29.8213 26.4989 30.1208 27.0542C30.7213 28.1633 31.408 29.2074 32.0932 30.188C32.7813 31.1671 33.4751 32.0798 34.1236 32.9021C35.422 34.5453 36.541 35.8268 37.1429 36.5107C36.8476 36.1461 36.103 35.3012 35.8515 34.9537C36.4873 35.6785 36.7699 36.0373 37.0624 36.3454C37.2687 36.6576 38.4583 37.9377 38.9204 38.5043L39.1266 38.6908L39.4403 39.0525C40.7571 40.4456 41.0312 40.7098 41.164 40.8539C41.3011 40.9938 41.3039 41.0079 42.1248 41.8556L42.7973 41.1435C42.6532 41.0178 42.4328 40.8242 42.1644 40.5897C40.5183 39.1726 39.6989 38.5424 38.7706 37.7667C38.9105 37.8798 39.2707 38.1962 38.8299 37.8444C38.772 37.7639 37.6544 36.9133 37.4524 36.7268C37.0214 36.3821 35.6 35.2942 36.0621 35.6869C35.8332 35.4863 34.5503 34.534 35.3231 35.0879C34.8908 34.7657 34.4683 34.4563 34.1462 34.2387L34.7057 34.6485C33.9653 34.1158 33.386 33.7131 32.8633 33.367C32.3405 33.0208 31.8728 32.7312 31.3472 32.4429C31.5422 32.5602 31.7344 32.6803 31.9251 32.8018C31.456 32.5164 31.0152 32.2677 30.6408 32.0671C30.265 31.8679 29.9555 31.7167 29.7563 31.615C30.1138 31.7648 30.4571 31.9329 30.7934 32.1095C30.3879 31.8919 30.0106 31.7111 29.6447 31.5585C29.2773 31.4087 28.9227 31.2844 28.5356 31.2123C28.342 31.1784 28.1385 31.1544 27.9111 31.1727C27.7952 31.1855 27.6751 31.2024 27.5451 31.2533C27.418 31.3013 27.2837 31.379 27.1721 31.4921C27.0591 31.6037 26.9814 31.745 26.9362 31.8792C26.891 32.0134 26.8712 32.1462 26.8698 32.2663C26.8627 32.5093 26.9065 32.7227 26.9616 32.9304C26.9122 32.7326 26.8712 32.5235 26.8754 32.2805C26.8429 33.6227 28.5878 36.1009 30.5659 38.3277C32.5383 40.5614 34.7438 42.5239 35.415 43.0948L34.8272 42.5324C35.2059 42.8687 35.5873 43.1993 35.9731 43.5271C35.8374 43.4098 35.3712 43.1018 35.2652 42.9944C36.0211 43.6726 37.7915 45.2212 40.1143 46.9562L40.5395 46.367C37.9963 44.6037 34.8385 42.6243 31.8474 41.3979C31.0986 41.0955 30.361 40.8384 29.632 40.6801C29.2675 40.6024 28.9058 40.5459 28.5356 40.5459C28.3505 40.5459 28.1626 40.5614 27.9704 40.6081C27.7811 40.6533 27.5748 40.7423 27.4038 40.9034C27.3191 40.9853 27.2498 41.0842 27.2004 41.1888C27.1552 41.2933 27.1241 41.4007 27.1142 41.501C27.0902 41.7031 27.1156 41.8783 27.1523 42.0323C27.2301 42.3389 27.3473 42.5805 27.4618 42.791C27.6935 43.2106 27.9181 43.5073 28.0778 43.7207C28.4579 44.2152 28.496 44.2533 28.4211 44.1841C28.3491 44.1135 28.1795 43.9171 28.1739 43.9114C28.6571 44.4949 28.7814 44.5981 28.8733 44.6956C28.9665 44.7916 29.04 44.8665 29.485 45.3201C29.7266 45.5673 29.42 45.2833 29.2816 45.1463C29.673 45.5419 30.0417 45.8994 30.0799 45.9191C29.5839 45.4359 29.8185 45.6154 29.6207 45.3978C30.0064 45.7793 30.4006 46.148 30.8033 46.5083L30.7369 46.4744C31.0081 46.7118 31.4476 47.0537 32.6725 48.0583C34.7495 49.7424 37.1203 51.4125 39.3485 52.9031C39.3075 52.889 38.8356 52.5838 38.3651 52.2715C38.6618 52.4736 39.1153 52.7816 39.3894 52.9681C38.861 52.5937 40.3347 53.5784 39.9179 53.2916C41.5794 54.3372 43.7087 55.719 45.2063 56.5893C45.2883 56.619 46.1671 56.9355 47.036 57.2491C47.4712 57.4046 47.9021 57.5543 48.2271 57.6631C48.5506 57.7719 48.7682 57.8383 48.7753 57.8284C49.2373 58.0997 49.6965 58.3696 49.8378 58.4515C49.7234 58.3724 48.8149 57.8397 48.3302 57.5628L48.2342 57.536C47.1194 56.8903 47.9813 57.3707 46.9004 56.7306C46.8538 56.6783 47.8499 57.2661 48.7301 57.7776C47.9389 57.3127 47.1618 56.8338 46.8297 56.6614C46.095 56.2107 46.9244 56.6896 46.0399 56.1457C45.4041 55.7698 44.5649 55.281 43.8514 54.8218L43.8655 54.826C42.1276 53.7141 41.1782 53.1687 39.6226 52.1062L39.7949 52.2122C39.2467 51.8335 38.1517 51.1129 37.1811 50.4093C37.458 50.6099 37.6925 50.7936 37.102 50.3811C35.9844 49.5729 35.2214 49.0219 34.4316 48.3974L33.6559 47.8209C32.8859 47.2063 31.6369 46.2158 30.272 44.892C29.9315 44.5599 29.5882 44.2053 29.2533 43.8266C28.9213 43.448 28.5921 43.0425 28.3222 42.613C28.1894 42.3996 28.0707 42.1764 27.9987 41.9659C27.9634 41.8613 27.9407 41.7596 27.9365 41.6804C27.9309 41.5985 27.9464 41.5505 27.9591 41.5279C27.9718 41.5053 27.9958 41.4784 28.0637 41.4473C28.1315 41.4177 28.229 41.3936 28.3406 41.3823C28.5638 41.3583 28.8266 41.3781 29.0894 41.4177C29.6207 41.501 30.1675 41.6593 30.7044 41.8443C31.2427 42.0323 31.7753 42.2498 32.2981 42.483C33.3437 42.9506 34.3511 43.4777 35.2963 44.0117C37.1881 45.0813 38.837 46.1763 40.0733 47.0339L40.6017 46.302C39.4459 45.4345 38.6335 44.7818 38.0246 44.283C37.417 43.7828 37.0129 43.4381 36.6922 43.1626L36.8377 43.2827C35.446 42.0888 33.7294 40.5247 31.9887 38.6526C31.1212 37.7159 30.2452 36.7014 29.4398 35.6064C29.0386 35.0596 28.6557 34.4902 28.3279 33.8996C28.1654 33.6043 28.017 33.3034 27.9068 33.0024C27.8517 32.8527 27.8065 32.7029 27.7783 32.5616C27.7486 32.4217 27.7458 32.2875 27.7613 32.2042C27.7684 32.1618 27.7825 32.1392 27.791 32.125C27.8009 32.1123 27.8079 32.1038 27.8319 32.0911C27.8757 32.0643 27.9944 32.0445 28.1272 32.053C28.3999 32.0699 28.7193 32.1589 29.0273 32.272C29.6489 32.5023 30.2607 32.8216 30.8513 33.1579C32.0353 33.8375 33.1529 34.6033 34.2041 35.3592C36.3051 36.8794 38.1447 38.3799 39.6084 39.595C40.3559 40.2435 41.3477 41.0927 42.187 41.8316L42.7804 41.2029C42.6306 41.0489 42.4879 40.9005 42.3509 40.7592C42.8214 41.2538 42.6476 41.0969 42.276 40.714C40.9775 39.3661 40.938 39.3167 40.8857 39.2729C40.8377 39.2248 40.7741 39.1825 39.4883 37.7936C38.7494 36.9925 37.499 35.6163 36.0705 33.8982C34.6463 32.1801 33.0286 30.1216 31.6595 27.9386C31.3204 27.3918 30.9968 26.838 30.71 26.2785C30.426 25.7204 30.1717 25.151 30.0219 24.5971C29.9485 24.3244 29.9075 24.0433 29.9372 23.8426C29.9541 23.7452 29.9838 23.683 30.0106 23.6632C30.0347 23.6392 30.0813 23.6152 30.1731 23.6081C30.3568 23.5954 30.6139 23.659 30.8513 23.7508C31.0929 23.8412 31.3289 23.9599 31.5578 24.0843C32.4719 24.5929 33.249 25.1948 33.8933 25.7063C34.5376 26.2248 35.0462 26.6741 35.4051 26.9948C36.9734 28.3413 38.7805 30.2035 40.1778 31.68L40.0323 31.5359C40.377 31.9004 41.0849 32.6619 41.9736 33.6623C42.8623 34.6612 43.9291 35.9003 45.0099 37.2002L45.6457 36.748C44.6341 35.0568 43.6352 33.2709 42.8397 31.7421C42.0429 30.2148 41.4466 28.946 41.1598 28.3243L41.2983 28.6352C40.8263 27.6363 40.6455 27.1954 40.4887 26.8083C40.3332 26.4198 40.2019 26.0849 39.8938 25.2739C39.9193 25.3869 39.7554 25.0055 39.566 24.5067C39.3753 24.0094 39.1662 23.3933 39.0616 23.05L39.0772 23.074C38.9161 22.5583 38.6576 21.7134 38.4795 20.771C38.3919 20.3019 38.3255 19.806 38.3241 19.3341C38.3241 19.0996 38.3411 18.8693 38.3877 18.6686C38.4301 18.4666 38.5149 18.2999 38.6039 18.2207L38.5897 18.2603C38.6604 18.1854 38.731 18.1459 38.8766 18.1515C39.0207 18.1586 39.2128 18.225 39.4036 18.3309C39.7893 18.5429 40.1792 18.8806 40.5339 19.2295C41.2446 19.936 41.8337 20.7117 42.1545 21.1384C42.8864 22.1203 43.7412 23.4329 44.5889 24.8726C45.438 26.3124 46.283 27.8765 47.0459 29.3416C47.3539 29.9831 47.6549 30.6274 47.9516 31.2759L48.0929 31.5542C48.0929 31.5542 48.6114 32.2579 48.9081 32.467C49.2006 32.6761 49.2938 32.3779 48.3896 30.3745L48.4376 30.4296L48.0491 29.6525C47.5885 28.7171 47.3426 28.3017 47.3921 28.3554C47.6125 28.7779 47.8272 29.2032 48.0406 29.6285C47.5729 28.6917 47.912 29.3388 48.1013 29.692C47.9064 29.3007 47.717 28.9206 47.5602 28.6083C47.4585 28.4289 47.6238 28.7468 47.693 28.8937C47.426 28.3964 47.0558 27.7041 46.7308 27.0994C46.2165 26.1556 46.7294 27.0231 46.1219 25.9253C45.3137 24.4813 44.4702 23.0698 43.5405 21.712C43.0757 21.0324 42.5882 20.3669 42.0598 19.7255C41.7956 19.4047 41.5201 19.0911 41.2248 18.7887C40.9309 18.4864 40.6172 18.1939 40.2626 17.9283C40.0846 17.7955 39.8938 17.6697 39.6777 17.5609C39.4615 17.4549 39.2185 17.356 38.9105 17.3363C38.7579 17.3278 38.5869 17.3447 38.4202 17.4069C38.2535 17.4677 38.1023 17.575 37.9893 17.6966C37.766 17.9424 37.6699 18.208 37.6092 18.4482C37.4919 18.9328 37.5004 19.3765 37.5244 19.8117C37.5541 20.2454 37.6163 20.6665 37.694 21.0819C37.8522 21.9112 38.0726 22.7194 38.3241 23.5177C38.5756 24.316 38.861 25.1029 39.1662 25.8843C39.2142 26.0298 39.1478 25.8603 39.0758 25.6794C39.8161 27.5642 40.5664 29.1933 41.3915 30.8337C41.6119 31.2928 41.6656 31.4214 41.7278 31.5599C41.691 31.4765 42.0838 32.2508 42.6885 33.3613C43.2919 34.4733 44.1142 35.9158 44.887 37.2016L45.6881 36.6336C45.041 35.8579 44.4335 35.1444 43.9813 34.6202C43.5278 34.0974 43.2339 33.7583 43.2113 33.7329L43.2212 33.7386Z" fill="#192833"/>
<path d="M63.0627 49.6252C63.0274 49.4571 62.9356 49.1788 62.8494 48.9146C62.8988 49.1237 62.9638 49.3412 63.0627 49.6252Z" fill="#192833"/>
<path d="M62.8479 48.9083C62.8479 48.9083 62.8479 48.9058 62.8467 48.9045C62.8467 48.9083 62.8479 48.9095 62.8492 48.9133C62.8492 48.9108 62.8492 48.9095 62.8492 48.9083H62.8479Z" fill="#192833"/>
<path d="M50.6322 50.8246C50.5941 50.7695 50.5489 50.7074 50.5037 50.6438C50.546 50.7046 50.5884 50.7667 50.6322 50.8246Z" fill="#192833"/>
<path d="M58.591 36.1516L58.5458 36.1219C58.3339 35.4988 58.5204 35.9283 58.3183 35.3533C58.1968 35.1428 57.999 34.3939 57.9072 34.2018C57.9128 34.2046 57.8182 33.922 57.838 33.9347C57.7843 33.857 57.7334 33.6465 57.667 33.4699C57.6387 33.4077 57.6755 33.5193 57.684 33.5702L57.537 33.1647C57.4904 33.0022 57.4918 32.9584 57.554 33.1308C57.3759 32.5967 56.8602 31.0468 56.3403 29.4884C56.2075 29.0956 56.0846 28.7155 55.9447 28.3199C55.8048 27.9313 55.6494 27.564 55.4869 27.2334C55.1648 26.5707 54.7875 26.0649 54.5388 25.8148C54.6533 25.9561 54.9189 26.2783 54.9754 26.4266C54.7649 26.1483 54.6674 26.007 54.5502 25.8982C54.5191 25.8318 54.3863 25.6806 54.2068 25.5337C54.0302 25.3839 53.7999 25.2483 53.6473 25.1677C53.6049 25.1607 53.5625 25.1522 53.5173 25.1493C53.4467 25.1225 53.3732 25.0985 53.2955 25.0829C53.0327 25.0462 52.8123 25.0886 52.6583 25.1395C52.5792 25.1635 52.517 25.1931 52.4633 25.22C52.4082 25.2454 52.3686 25.2723 52.3319 25.2935C52.1906 25.3825 52.1624 25.4192 52.127 25.4432C52.0974 25.4701 52.0691 25.4899 51.9773 25.5775C51.8925 25.6665 51.7413 25.8247 51.5605 26.1426C51.3613 26.5128 51.2821 26.7925 51.2115 27.0285C51.1493 27.2645 51.1013 27.458 51.0518 27.6629C51.066 27.6007 51.1182 27.4411 51.0815 27.6346C51.0476 27.6629 50.9925 28.1503 50.9586 28.2394C50.943 28.334 50.9162 28.5332 50.8992 28.6844C50.8851 28.8356 50.8809 28.9359 50.9091 28.8356C50.878 28.9373 50.8258 29.4799 50.8399 29.1549C50.8215 29.3386 50.8046 29.5152 50.8032 29.648L50.8286 29.4135C50.7904 30.0323 50.7579 30.3686 50.782 30.7698L50.7975 30.5424C50.7919 30.9111 50.7975 31.2177 50.7678 31.3618L50.7565 30.9846C50.7565 31.595 50.7721 31.9623 50.813 32.4667L50.8046 32.2859C50.8314 32.608 50.9021 33.6098 51.0207 34.596C51.1352 35.5836 51.2892 36.5571 51.3514 36.8453L51.3358 36.5726L51.4277 37.0714C51.4192 37.012 51.316 36.8411 51.316 36.7888C51.3372 36.9301 51.3711 37.1477 51.4121 37.4246C51.446 37.6337 51.487 37.8852 51.5322 38.1664C51.5167 38.1762 51.5011 38.1875 51.4856 38.1974C51.4503 38.2229 51.4149 38.2469 51.3796 38.2723C51.2623 38.3571 51.1451 38.4475 51.0278 38.5408C50.7933 38.7287 50.5601 38.9364 50.3313 39.154C49.8777 39.5934 49.4524 40.0879 49.1049 40.5852C48.7545 41.0812 48.4874 41.5813 48.2939 42.001C48.1059 42.4234 47.9986 42.7667 47.935 42.949C47.8135 43.3545 47.8785 43.0126 47.8771 43.0069C47.8149 43.2584 47.8078 43.3135 47.8008 43.3602C47.7923 43.4054 47.7866 43.4421 47.7471 43.6569C47.7202 43.7741 47.7329 43.6286 47.7428 43.5622C47.7103 43.7529 47.6694 43.9267 47.6778 43.9437C47.7301 43.7077 47.7414 43.8137 47.7781 43.7176L47.7259 43.9931L47.6934 44.2729L47.6778 44.246C47.6708 44.3082 47.675 44.3887 47.6722 44.5216C47.6722 44.6544 47.6821 44.8409 47.6679 45.115C47.6581 46.0447 47.8643 47.0408 48.1639 47.9125C48.1469 47.9026 48.072 47.7246 48.0169 47.5367C48.0339 47.596 48.0565 47.6723 48.0777 47.7458C48.1017 47.8193 48.1285 47.8899 48.1441 47.945C48.0862 47.7288 48.291 48.3039 48.2388 48.1372C48.3673 48.4508 48.5383 48.7956 48.6895 49.1403C48.7742 49.3084 48.8618 49.4695 48.9438 49.6249C49.0271 49.7789 49.1049 49.9245 49.1925 50.0446C49.2235 50.0559 49.5414 50.2353 49.8494 50.3936C50.1645 50.549 50.4824 50.679 50.5008 50.6662C50.5997 50.8104 50.6986 50.9531 50.7254 50.9983C50.7085 50.9545 50.5178 50.6705 50.4075 50.5249L50.368 50.5136C50.2437 50.3441 50.2338 50.3215 50.2239 50.3003C50.214 50.2791 50.2055 50.2579 50.0995 50.0841C50.1038 50.0686 50.1546 50.1406 50.2281 50.2508C50.3072 50.3568 50.4104 50.5009 50.5064 50.6366C50.4231 50.5136 50.3397 50.3893 50.2691 50.2848C50.197 50.1802 50.1462 50.0898 50.1038 50.046C49.9653 49.803 50.1419 50.0587 49.9738 49.7676C49.9102 49.6659 49.8254 49.5557 49.7562 49.4314C49.6856 49.3084 49.6149 49.1799 49.557 49.0555L49.5626 49.0584C49.4086 48.7631 49.3126 48.5299 49.2009 48.3109L49.1204 48.1456C49.0978 48.0877 49.0752 48.0312 49.0526 47.9718C49.0074 47.8532 48.9607 47.726 48.9141 47.5833L48.9438 47.6412C48.9297 47.5904 48.9042 47.5282 48.8844 47.4576C48.8633 47.3855 48.8406 47.305 48.8152 47.2202C48.7658 47.0492 48.7036 46.8585 48.6782 46.6706C48.6951 46.778 48.6994 46.8726 48.6513 46.6508C48.6146 46.436 48.5722 46.2566 48.5567 46.0885C48.5397 45.9217 48.51 45.7691 48.5129 45.6109L48.4775 45.3085C48.462 45.1446 48.4804 44.9271 48.4846 44.6699C48.5072 44.4142 48.5312 44.1161 48.599 43.7967C48.7205 43.1567 48.9692 42.422 49.3606 41.7367C49.7407 41.0458 50.2493 40.403 50.7636 39.8858C51.0193 39.6259 51.2765 39.3956 51.5181 39.2006C51.6382 39.1031 51.7554 39.0141 51.8642 38.9336C51.8967 38.9109 51.9278 38.8883 51.9589 38.8671C52.0112 38.8304 52.0649 38.7937 52.1186 38.7598C52.2259 38.692 52.3291 38.627 52.428 38.5662C52.2825 37.6662 52.2259 37.3186 52.185 37.0657L52.1977 37.1279C52.0098 35.9184 51.7611 34.0619 51.6792 32.194C51.6396 31.2615 51.6382 30.3262 51.7003 29.4785C51.7611 28.6307 51.8854 27.8706 52.0564 27.3026C52.1228 27.1316 52.1991 26.9296 52.2909 26.7417C52.3828 26.5538 52.4916 26.3842 52.5961 26.2698C52.4788 26.4026 52.5029 26.3432 52.5933 26.2387C52.6724 26.1483 52.7388 26.1016 52.7869 26.0706C52.8349 26.0381 52.8688 26.0268 52.8914 26.014C52.938 25.9971 52.9423 25.9928 52.9479 25.9886C52.9536 25.983 52.9592 25.9815 53.0073 25.9674C53.0567 25.9646 53.1443 25.9335 53.3534 26.0169C53.4735 26.0621 53.6431 26.1709 53.8268 26.3489C54.009 26.5283 54.2068 26.7742 54.3905 27.0751C54.5756 27.3732 54.7522 27.7194 54.909 28.0938C54.9896 28.2803 55.0616 28.4739 55.1337 28.6717C55.2015 28.8737 55.2707 29.0772 55.34 29.2807C55.8938 30.9323 56.4364 32.5671 56.6356 33.1831C56.8885 33.833 57.1442 34.6638 57.3816 35.3038L57.3533 35.2417C57.5879 35.9368 58.9146 39.8661 59.1873 40.6742L59.1548 40.564C59.4105 41.262 59.3469 41.1758 59.525 41.7339C59.5334 41.6506 59.7553 42.2468 59.8358 42.4757L59.8259 42.47C59.9488 42.8148 60.2427 43.5905 60.4419 44.1613L60.4165 44.1443C60.5973 44.6148 60.8941 45.5162 61.0113 45.8582C61.2699 46.6451 61.6485 47.8659 62.0272 48.9072L62.2066 49.6023L62.2448 49.6998C62.2448 49.6998 63.2267 50.5829 62.8877 49.1516L62.9131 49.1672L62.8184 48.8945C62.7153 48.5624 62.6432 48.4183 62.6687 48.4339L62.8184 48.8846C62.711 48.5525 62.7986 48.78 62.8523 48.9029C62.8071 48.7645 62.7647 48.6303 62.7322 48.5186C62.704 48.4565 62.7407 48.5695 62.7548 48.6218C62.6884 48.4466 62.5881 48.205 62.5231 47.986C62.4101 47.6469 62.5443 47.9549 62.4129 47.5593C61.722 45.4738 61.0594 43.4506 60.343 41.3482C60.3345 41.2973 60.3529 41.3553 60.3769 41.4146C60.1579 40.7816 59.963 40.2207 59.7637 39.6457C59.7171 39.4832 59.7129 39.4351 59.7044 39.3857C59.7129 39.4351 59.4388 38.6411 59.1618 37.8258C58.8863 37.0106 58.6052 36.1784 58.5953 36.1516H58.591Z" fill="#192833"/>
<path d="M27.6637 58.2268C27.6905 58.2239 27.7103 58.1999 27.7301 58.1787C27.7004 58.1858 27.6807 58.1999 27.6637 58.2268Z" fill="#192833"/>
<path d="M27.7316 58.1786V58.1772L27.7302 58.1786H27.7316Z" fill="#192833"/>
<path d="M30.2664 53.0486C30.2664 53.0486 30.2579 53.0613 30.2537 53.0683C30.2593 53.0627 30.2635 53.0556 30.2664 53.0486Z" fill="#192833"/>
<path d="M28.5978 57.064L28.5724 57.0414C28.6119 56.9849 28.6162 57.0471 28.6458 56.9906C28.6218 56.9425 28.7108 56.9072 28.7038 56.8747C28.7066 56.8775 28.7264 56.8521 28.7377 56.8634C28.7221 56.8408 28.7518 56.8337 28.7574 56.8139C28.756 56.8041 28.7476 56.8139 28.7391 56.8139L28.7574 56.7716C28.7744 56.7617 28.7899 56.7673 28.7801 56.7843C28.8563 56.6938 29.2053 56.246 29.2689 56.1358C29.2435 56.1372 29.2308 56.1767 29.1983 56.1711C29.2039 56.1329 29.2322 56.1343 29.2251 56.1117C29.2703 56.1273 29.2774 56.058 29.3297 56.0637L29.3141 56.0411L29.3367 56.0369C29.4003 55.9012 29.3452 56.0015 29.4272 55.8984C29.4681 55.8348 29.4597 55.784 29.495 55.7571C29.4907 55.7628 29.4681 55.767 29.4738 55.7472C29.495 55.7571 29.4907 55.6949 29.5148 55.7006C29.5232 55.6836 29.5628 55.6342 29.5246 55.6328C29.543 55.6328 29.5812 55.5918 29.5727 55.6271C29.584 55.613 29.5981 55.6003 29.6009 55.5847L29.5798 55.5989C29.6122 55.5452 29.6532 55.531 29.6532 55.4802L29.6292 55.4915C29.649 55.459 29.6659 55.4321 29.6998 55.4378L29.6843 55.4745C29.7196 55.4222 29.7408 55.3912 29.7578 55.3389L29.7465 55.353C29.7606 55.281 29.9415 54.9814 29.9457 54.9094L29.9104 54.9178L29.9245 54.8627C29.9245 54.8627 29.9725 54.9291 29.9641 54.9291C30.0276 54.8359 30.3554 54.3442 30.4289 54.2693C30.4642 54.2425 30.4642 54.2849 30.467 54.2877C30.4897 54.2411 30.4586 54.2552 30.4868 54.2199C30.4967 54.2128 30.501 54.2326 30.4995 54.2396C30.508 54.2227 30.525 54.2128 30.5165 54.2057C30.4953 54.2199 30.4769 54.1944 30.4557 54.1916L30.4911 54.1478L30.5052 54.1605C30.5123 54.1506 30.4812 54.1054 30.5222 54.0659C30.5829 53.9952 30.6366 53.909 30.6945 53.8341C30.703 53.8412 30.6973 53.8624 30.6903 53.8822C30.6973 53.8723 30.7072 53.8553 30.72 53.8497C30.6903 53.8568 30.7327 53.8101 30.7143 53.82C30.7171 53.7381 30.8019 53.69 30.8118 53.6222C30.7807 53.594 30.3088 53.1037 30.2692 53.0754C30.2805 53.0613 30.2919 53.0458 30.2989 53.0429C30.2862 53.0401 30.2608 53.0669 30.2551 53.0867L30.2749 53.1051C30.2565 53.1475 30.2565 53.1051 30.2325 53.1418C30.2141 53.1305 30.2325 53.0952 30.2523 53.0655C30.2311 53.091 30.2 53.1079 30.2113 53.1319C30.1859 53.1517 30.1915 53.1136 30.1633 53.1376C30.1534 53.163 30.1506 53.2026 30.1237 53.2195L30.1209 53.2167C30.0601 53.2633 30.0827 53.3255 30.0262 53.3665V53.3566C30.0008 53.3679 29.9881 53.4159 29.9528 53.4428C29.9626 53.4357 29.9824 53.4357 29.9697 53.4583C29.9301 53.4894 29.9217 53.5247 29.8878 53.5445L29.8849 53.5841C29.7832 53.7197 29.4201 54.2806 29.324 54.4205V54.4134C29.1841 54.6296 28.8733 55.062 28.7419 55.2965C28.7009 55.3177 28.6713 55.3671 28.6416 55.3996C28.6628 55.3855 28.6698 55.3996 28.6585 55.4152C28.5808 55.5211 28.6656 55.4307 28.595 55.5438C28.5215 55.6794 28.164 56.1442 28.0708 56.2445C28.0538 56.3223 27.9818 56.383 27.9563 56.4522V56.4424C27.9196 56.5116 27.6441 56.8493 27.6003 56.9284L27.6102 56.9213C27.5805 56.9962 27.5593 56.968 27.5155 57.0118C27.548 57.0245 27.5254 57.0909 27.5127 57.1135L27.507 57.1078C27.4901 57.1417 27.4632 57.2308 27.4307 57.2844L27.4166 57.2717C27.4025 57.3268 27.3375 57.4031 27.3177 57.4342C27.2612 57.5006 27.1566 57.591 27.1086 57.6998L27.021 57.7295V57.7422C27.021 57.7422 27.476 58.217 27.6766 58.1717L27.6907 58.1845L27.7063 58.159C27.7345 58.135 27.7274 58.1082 27.7402 58.1209L27.7091 58.1604C27.7345 58.1336 27.7274 58.1604 27.7289 58.1774C27.7387 58.1661 27.75 58.1548 27.7614 58.1491C27.7599 58.1392 27.7515 58.1491 27.7458 58.1506C27.7515 58.1308 27.7529 58.0983 27.7741 58.0841C27.7967 58.0545 27.7995 58.0997 27.8278 58.0658C27.9733 57.8863 28.1202 57.7182 28.253 57.526C28.2629 57.526 28.2587 57.5317 28.2573 57.5388C28.2912 57.4766 28.3293 57.4286 28.3604 57.3706C28.3774 57.3607 28.3901 57.3636 28.3986 57.3636C28.3802 57.3636 28.5893 57.0669 28.5964 57.064H28.5978Z" fill="#192833"/>
<path d="M30.4513 64.4707C30.4852 64.4594 30.5149 64.4198 30.5445 64.3845C30.5078 64.4029 30.4781 64.4283 30.4513 64.4707Z" fill="#192833"/>
<path d="M30.5457 64.3831L30.5443 64.3844L30.5457 64.3831Z" fill="#192833"/>
<path d="M35.0567 56.4822C35.0499 56.4918 35.043 56.5028 35.0361 56.5138C35.0444 56.5042 35.0512 56.4932 35.0567 56.4822Z" fill="#192833"/>
<path d="M31.9051 62.5773L31.8811 62.5519C31.9447 62.4615 31.932 62.5477 31.9842 62.4601C31.9687 62.3993 32.0874 62.3244 32.0874 62.2806C32.0902 62.2835 32.1199 62.2439 32.1312 62.2552C32.1185 62.2269 32.1566 62.21 32.1693 62.1803C32.1693 62.1662 32.158 62.1831 32.1467 62.1846L32.1806 62.121C32.2032 62.1026 32.2202 62.1054 32.2047 62.1323C32.3219 61.9839 32.8701 61.2591 32.9775 61.0853C32.9464 61.0952 32.921 61.1546 32.8814 61.156C32.8984 61.1023 32.9323 61.0952 32.9309 61.0655C32.9803 61.0754 33.0086 60.9751 33.0708 60.9695L33.058 60.9412L33.0863 60.9285C33.2022 60.7194 33.1075 60.8762 33.2347 60.7095C33.3025 60.6078 33.3067 60.5399 33.3562 60.4933C33.3505 60.5018 33.3223 60.5145 33.335 60.4848C33.3562 60.4933 33.3703 60.4071 33.3986 60.4086C33.4141 60.3817 33.4748 60.3026 33.4296 60.3111C33.4522 60.3068 33.5088 60.2376 33.489 60.2885C33.5073 60.2644 33.5285 60.2432 33.5342 60.222L33.5045 60.2489C33.5596 60.1641 33.6119 60.133 33.6274 60.0624L33.5949 60.0864C33.6289 60.0355 33.6557 59.9932 33.6953 59.9917L33.667 60.0483C33.7249 59.9663 33.7588 59.9155 33.7942 59.8377L33.7758 59.8618C33.8125 59.7572 34.1163 59.2867 34.1431 59.1836L34.0979 59.2062L34.1304 59.1256C34.1248 59.1341 34.17 59.2048 34.1587 59.2062C34.2618 59.0564 34.7959 58.2765 34.9061 58.1507C34.9556 58.1027 34.9443 58.1635 34.9471 58.1663C34.9881 58.0942 34.9471 58.1225 34.9895 58.0674C35.0036 58.0547 35.0022 58.0815 34.9994 58.0928C35.0149 58.066 35.0375 58.0476 35.0304 58.0391C35.0008 58.066 34.9866 58.0349 34.9612 58.0363L35.0163 57.9642L35.029 57.9784C35.0417 57.9628 35.0163 57.9077 35.0771 57.8413C35.1703 57.7241 35.2593 57.5884 35.3498 57.4697C35.3582 57.4782 35.3441 57.5079 35.3314 57.5375C35.3441 57.522 35.3597 57.4952 35.3766 57.4839C35.3399 57.5022 35.402 57.4245 35.3794 57.4429C35.4063 57.327 35.5221 57.2352 35.5532 57.1377C35.525 57.1066 35.0954 56.5556 35.0559 56.5273C35.0742 56.5033 35.0926 56.4793 35.1011 56.4736C35.087 56.4736 35.0488 56.5188 35.0347 56.5471L35.0531 56.5669C35.0191 56.6319 35.0304 56.5711 34.9909 56.6305C34.9711 56.6206 35.005 56.5655 35.0361 56.5174C35.0036 56.5584 34.9612 56.5909 34.9683 56.622C34.933 56.6559 34.9499 56.6022 34.9089 56.6446C34.8906 56.6827 34.875 56.7393 34.8369 56.7703L34.834 56.7675C34.7479 56.8495 34.7578 56.9314 34.6772 57.0049V56.9908C34.6461 57.0134 34.6165 57.084 34.567 57.1306C34.5811 57.1179 34.6037 57.1123 34.5826 57.1476C34.526 57.2027 34.5063 57.2536 34.4596 57.2903L34.4455 57.3468C34.2844 57.5644 33.6882 58.4531 33.5328 58.6763L33.5356 58.665C33.3039 59.0084 32.808 59.7007 32.5819 60.0666C32.5268 60.109 32.4773 60.1853 32.4321 60.239C32.4618 60.2122 32.466 60.2319 32.4477 60.256C32.3233 60.4255 32.4505 60.2757 32.3346 60.4552C32.2075 60.6657 31.6451 61.4174 31.5039 61.5841C31.4615 61.6971 31.3569 61.8031 31.306 61.9076V61.8935C31.2453 62.0009 30.8172 62.5505 30.7423 62.6734L30.7564 62.6607C30.6999 62.7737 30.6816 62.7398 30.6166 62.8133C30.6519 62.8232 30.6053 62.9207 30.5841 62.956L30.5784 62.9503C30.5473 63.004 30.4908 63.134 30.4357 63.2202L30.423 63.2061C30.3905 63.2866 30.2916 63.411 30.2577 63.4618C30.1701 63.5706 30.0189 63.726 29.9313 63.8927L29.8183 63.9592L29.8126 63.9761C29.8126 63.9761 30.2266 64.5102 30.4823 64.3901L30.495 64.4042L30.5219 64.3632C30.5629 64.3209 30.5615 64.2869 30.5742 64.3011L30.5261 64.3647C30.5643 64.3194 30.5487 64.359 30.5445 64.383C30.56 64.3647 30.5756 64.3463 30.5911 64.3336C30.5911 64.3194 30.5798 64.3364 30.5713 64.3406C30.5841 64.311 30.5954 64.2658 30.625 64.2389C30.6618 64.1909 30.6519 64.253 30.6943 64.1979C30.9203 63.9055 31.1464 63.6271 31.3597 63.3205C31.371 63.3177 31.3654 63.3262 31.3612 63.3375C31.4205 63.2414 31.4798 63.1623 31.5335 63.0733C31.5575 63.0549 31.5703 63.0549 31.5816 63.0535C31.559 63.0577 31.8966 62.583 31.9051 62.5788V62.5773Z" fill="#192833"/>
<path d="M37.5736 64.6005C37.6005 64.5977 37.6202 64.5737 37.64 64.5525C37.6103 64.5596 37.5906 64.5737 37.5736 64.6005Z" fill="#192833"/>
<path d="M40.175 59.4221C40.175 59.4221 40.1666 59.4348 40.1624 59.4419C40.168 59.4362 40.1722 59.4292 40.175 59.4221Z" fill="#192833"/>
<path d="M38.5075 63.439L38.482 63.4164C38.5216 63.3599 38.5258 63.4221 38.5555 63.3656C38.5315 63.3175 38.6205 63.2822 38.6134 63.2497C38.6162 63.2525 38.636 63.2271 38.6473 63.2384C38.6318 63.2158 38.6615 63.2087 38.6671 63.1889C38.6657 63.1791 38.6572 63.1889 38.6487 63.1889L38.6671 63.1466C38.6841 63.1367 38.6996 63.1423 38.6897 63.1593C38.766 63.0688 39.115 62.621 39.1786 62.5108C39.1531 62.5122 39.1404 62.5517 39.1079 62.5461C39.1136 62.5093 39.1418 62.5094 39.1348 62.4867C39.18 62.5023 39.1871 62.433 39.2393 62.4387L39.2238 62.4161L39.2464 62.4119C39.31 62.2762 39.2549 62.3765 39.3368 62.2734C39.3778 62.2098 39.3693 62.159 39.4046 62.1321C39.4004 62.1378 39.3778 62.142 39.3834 62.1222C39.4046 62.1321 39.4004 62.0699 39.4244 62.0756C39.4329 62.0586 39.4725 62.0092 39.4343 62.0078C39.4527 62.0078 39.4908 61.9668 39.4824 62.0021C39.4937 61.988 39.5078 61.9753 39.5106 61.9597L39.4894 61.9739C39.5219 61.9202 39.5629 61.906 39.5629 61.8552L39.5389 61.8665C39.5586 61.834 39.5756 61.8071 39.6095 61.8128L39.594 61.8495C39.6293 61.7972 39.6505 61.7662 39.6674 61.7139L39.6561 61.728C39.6703 61.656 39.8511 61.3564 39.8554 61.2844L39.82 61.2928L39.8342 61.2377C39.8342 61.2377 39.8822 61.3041 39.8737 61.3041C39.9373 61.2109 40.2651 60.7192 40.3386 60.6443C40.3739 60.6175 40.3739 60.6599 40.3767 60.6627C40.3993 60.6161 40.3682 60.6302 40.3965 60.5949C40.4064 60.5878 40.4106 60.6076 40.4092 60.6147C40.4177 60.5977 40.4346 60.5878 40.4262 60.5807C40.405 60.5949 40.3866 60.5694 40.3654 60.5666L40.4007 60.5228L40.4149 60.5355C40.4219 60.5256 40.3908 60.4804 40.4318 60.4409C40.4926 60.3702 40.5463 60.284 40.6042 60.2091C40.6127 60.2162 40.607 60.2374 40.6 60.2572C40.607 60.2473 40.6169 60.2303 40.6296 60.2247C40.6 60.2318 40.6423 60.1851 40.624 60.195C40.6268 60.1131 40.7116 60.065 40.7215 59.9972C40.6904 59.969 40.2185 59.4787 40.1789 59.4504C40.1902 59.4363 40.2015 59.4208 40.2086 59.4179C40.1959 59.4151 40.1704 59.4419 40.1648 59.4617L40.1846 59.4801C40.1662 59.5225 40.1662 59.4801 40.1422 59.5168C40.1238 59.5055 40.1422 59.4702 40.162 59.4405C40.1408 59.466 40.1097 59.4829 40.121 59.5069C40.0955 59.5267 40.1012 59.4886 40.0729 59.5126C40.0631 59.538 40.0602 59.5776 40.0334 59.5945L40.0306 59.5917C39.9698 59.6383 39.9924 59.7005 39.9359 59.7415V59.7316C39.9105 59.7429 39.8977 59.7909 39.8624 59.8178C39.8723 59.8107 39.8921 59.8107 39.8794 59.8333C39.8398 59.8644 39.8313 59.8997 39.7974 59.9195L39.7946 59.9591C39.6929 60.0947 39.3298 60.6556 39.2337 60.7955V60.7884C39.0938 61.0046 38.783 61.437 38.6516 61.6715C38.6106 61.6927 38.5809 61.7421 38.5513 61.7746C38.5724 61.7605 38.5795 61.7746 38.5682 61.7902C38.4905 61.8961 38.5753 61.8057 38.5046 61.9188C38.4312 62.0544 38.0737 62.5192 37.9804 62.6195C37.9635 62.6973 37.8914 62.758 37.866 62.8272V62.8174C37.8293 62.8866 37.5537 63.2243 37.5099 63.3034L37.5198 63.2963C37.4902 63.3712 37.469 63.343 37.4252 63.3868C37.4577 63.3995 37.4351 63.4659 37.4223 63.4885L37.4167 63.4828C37.3997 63.5167 37.3729 63.6058 37.3404 63.6594L37.3263 63.6467C37.3121 63.7018 37.2471 63.7781 37.2274 63.8092C37.1709 63.8756 37.0663 63.966 37.0183 64.0748L36.9307 64.1045V64.1172C36.9307 64.1172 37.3856 64.592 37.5862 64.5467L37.6004 64.5595L37.6159 64.534C37.6442 64.51 37.6371 64.4832 37.6498 64.4959L37.6187 64.5354C37.6442 64.5086 37.6371 64.5354 37.6385 64.5524C37.6484 64.5411 37.6597 64.5298 37.671 64.5241C37.6696 64.5142 37.6611 64.5241 37.6555 64.5256C37.6611 64.5058 37.6625 64.4733 37.6837 64.4591C37.7063 64.4295 37.7092 64.4747 37.7374 64.4408C37.883 64.2613 38.0299 64.0932 38.1627 63.901C38.1726 63.901 38.1684 63.9067 38.1669 63.9138C38.2009 63.8516 38.239 63.8036 38.2701 63.7456C38.287 63.7357 38.2998 63.7386 38.3082 63.7386C38.2899 63.7386 38.499 63.4419 38.506 63.439H38.5075Z" fill="#192833"/>
<path d="M83.4274 29.5758C83.6137 29.5758 83.7646 29.4248 83.7646 29.2386C83.7646 29.0523 83.6137 28.9014 83.4274 28.9014C83.2412 28.9014 83.0902 29.0523 83.0902 29.2386C83.0902 29.4248 83.2412 29.5758 83.4274 29.5758Z" fill="#192833"/>
<path d="M81.7041 30.4359C81.8904 30.4359 82.0414 30.2849 82.0414 30.0987C82.0414 29.9124 81.8904 29.7615 81.7041 29.7615C81.5179 29.7615 81.3669 29.9124 81.3669 30.0987C81.3669 30.2849 81.5179 30.4359 81.7041 30.4359Z" fill="#192833"/>
<path d="M81.7041 28.7159C81.8904 28.7159 82.0414 28.5649 82.0414 28.3787C82.0414 28.1925 81.8904 28.0415 81.7041 28.0415C81.5179 28.0415 81.3669 28.1925 81.3669 28.3787C81.3669 28.5649 81.5179 28.7159 81.7041 28.7159Z" fill="#192833"/>
<path d="M79.9843 27.8561C80.1705 27.8561 80.3215 27.7051 80.3215 27.5188C80.3215 27.3326 80.1705 27.1816 79.9843 27.1816C79.7981 27.1816 79.6471 27.3326 79.6471 27.5188C79.6471 27.7051 79.7981 27.8561 79.9843 27.8561Z" fill="#192833"/>
<path d="M78.2645 26.9962C78.4507 26.9962 78.6017 26.8452 78.6017 26.659C78.6017 26.4727 78.4507 26.3218 78.2645 26.3218C78.0782 26.3218 77.9272 26.4727 77.9272 26.659C77.9272 26.8452 78.0782 26.9962 78.2645 26.9962Z" fill="#192833"/>
<path d="M79.9843 31.2992C80.1705 31.2992 80.3215 31.1482 80.3215 30.962C80.3215 30.7757 80.1705 30.6248 79.9843 30.6248C79.7981 30.6248 79.6471 30.7757 79.6471 30.962C79.6471 31.1482 79.7981 31.2992 79.9843 31.2992Z" fill="#192833"/>
<path d="M79.9843 29.5758C80.1705 29.5758 80.3215 29.4248 80.3215 29.2386C80.3215 29.0523 80.1705 28.9014 79.9843 28.9014C79.7981 28.9014 79.6471 29.0523 79.6471 29.2386C79.6471 29.4248 79.7981 29.5758 79.9843 29.5758Z" fill="#192833"/>
<path d="M78.2645 30.4359C78.4507 30.4359 78.6017 30.2849 78.6017 30.0987C78.6017 29.9124 78.4507 29.7615 78.2645 29.7615C78.0782 29.7615 77.9272 29.9124 77.9272 30.0987C77.9272 30.2849 78.0782 30.4359 78.2645 30.4359Z" fill="#192833"/>
<path d="M78.2645 28.7159C78.4507 28.7159 78.6017 28.5649 78.6017 28.3787C78.6017 28.1925 78.4507 28.0415 78.2645 28.0415C78.0782 28.0415 77.9272 28.1925 77.9272 28.3787C77.9272 28.5649 78.0782 28.7159 78.2645 28.7159Z" fill="#192833"/>
<path d="M78.2645 32.159C78.4507 32.159 78.6017 32.0081 78.6017 31.8218C78.6017 31.6356 78.4507 31.4846 78.2645 31.4846C78.0782 31.4846 77.9272 31.6356 77.9272 31.8218C77.9272 32.0081 78.0782 32.159 78.2645 32.159Z" fill="#192833"/>
<path d="M74.8217 23.5533C75.0079 23.5533 75.1589 23.4023 75.1589 23.2161C75.1589 23.0299 75.0079 22.8789 74.8217 22.8789C74.6355 22.8789 74.4845 23.0299 74.4845 23.2161C74.4845 23.4023 74.6355 23.5533 74.8217 23.5533Z" fill="#192833"/>
<path d="M76.5447 27.8561C76.731 27.8561 76.8819 27.7051 76.8819 27.5188C76.8819 27.3326 76.731 27.1816 76.5447 27.1816C76.3585 27.1816 76.2075 27.3326 76.2075 27.5188C76.2075 27.7051 76.3585 27.8561 76.5447 27.8561Z" fill="#192833"/>
<path d="M76.5447 26.1363C76.731 26.1363 76.8819 25.9854 76.8819 25.7991C76.8819 25.6129 76.731 25.4619 76.5447 25.4619C76.3585 25.4619 76.2075 25.6129 76.2075 25.7991C76.2075 25.9854 76.3585 26.1363 76.5447 26.1363Z" fill="#192833"/>
<path d="M74.8217 26.9962C75.0079 26.9962 75.1589 26.8452 75.1589 26.659C75.1589 26.4727 75.0079 26.3218 74.8217 26.3218C74.6355 26.3218 74.4845 26.4727 74.4845 26.659C74.4845 26.8452 74.6355 26.9962 74.8217 26.9962Z" fill="#192833"/>
<path d="M74.8217 25.2765C75.0079 25.2765 75.1589 25.1255 75.1589 24.9393C75.1589 24.753 75.0079 24.6021 74.8217 24.6021C74.6355 24.6021 74.4845 24.753 74.4845 24.9393C74.4845 25.1255 74.6355 25.2765 74.8217 25.2765Z" fill="#192833"/>
<path d="M76.5447 31.2992C76.731 31.2992 76.8819 31.1482 76.8819 30.962C76.8819 30.7757 76.731 30.6248 76.5447 30.6248C76.3585 30.6248 76.2075 30.7757 76.2075 30.962C76.2075 31.1482 76.3585 31.2992 76.5447 31.2992Z" fill="#192833"/>
<path d="M76.5447 29.5758C76.731 29.5758 76.8819 29.4248 76.8819 29.2386C76.8819 29.0523 76.731 28.9014 76.5447 28.9014C76.3585 28.9014 76.2075 29.0523 76.2075 29.2386C76.2075 29.4248 76.3585 29.5758 76.5447 29.5758Z" fill="#192833"/>
<path d="M74.8217 30.4359C75.0079 30.4359 75.1589 30.2849 75.1589 30.0987C75.1589 29.9124 75.0079 29.7615 74.8217 29.7615C74.6355 29.7615 74.4845 29.9124 74.4845 30.0987C74.4845 30.2849 74.6355 30.4359 74.8217 30.4359Z" fill="#192833"/>
<path d="M74.8217 28.7159C75.0079 28.7159 75.1589 28.5649 75.1589 28.3787C75.1589 28.1925 75.0079 28.0415 74.8217 28.0415C74.6355 28.0415 74.4845 28.1925 74.4845 28.3787C74.4845 28.5649 74.6355 28.7159 74.8217 28.7159Z" fill="#192833"/>
<path d="M76.5447 33.0189C76.731 33.0189 76.8819 32.8679 76.8819 32.6817C76.8819 32.4955 76.731 32.3445 76.5447 32.3445C76.3585 32.3445 76.2075 32.4955 76.2075 32.6817C76.2075 32.8679 76.3585 33.0189 76.5447 33.0189Z" fill="#192833"/>
<path d="M74.8217 33.8788C75.0079 33.8788 75.1589 33.7278 75.1589 33.5416C75.1589 33.3553 75.0079 33.2043 74.8217 33.2043C74.6355 33.2043 74.4845 33.3553 74.4845 33.5416C74.4845 33.7278 74.6355 33.8788 74.8217 33.8788Z" fill="#192833"/>
<path d="M74.8217 32.159C75.0079 32.159 75.1589 32.0081 75.1589 31.8218C75.1589 31.6356 75.0079 31.4846 74.8217 31.4846C74.6355 31.4846 74.4845 31.6356 74.4845 31.8218C74.4845 32.0081 74.6355 32.159 74.8217 32.159Z" fill="#192833"/>
<path d="M74.8217 35.5982C75.0079 35.5982 75.1589 35.4473 75.1589 35.261C75.1589 35.0748 75.0079 34.9238 74.8217 34.9238C74.6355 34.9238 74.4845 35.0748 74.4845 35.261C74.4845 35.4473 74.6355 35.5982 74.8217 35.5982Z" fill="#192833"/>
<path d="M71.382 16.6744C71.5682 16.6744 71.7192 16.5234 71.7192 16.3372C71.7192 16.151 71.5682 16 71.382 16C71.1958 16 71.0448 16.151 71.0448 16.3372C71.0448 16.5234 71.1958 16.6744 71.382 16.6744Z" fill="#192833"/>
<path d="M73.1019 20.9737C73.2881 20.9737 73.4391 20.8228 73.4391 20.6365C73.4391 20.4503 73.2881 20.2993 73.1019 20.2993C72.9156 20.2993 72.7646 20.4503 72.7646 20.6365C72.7646 20.8228 72.9156 20.9737 73.1019 20.9737Z" fill="#192833"/>
<path d="M71.382 20.1136C71.5682 20.1136 71.7192 19.9626 71.7192 19.7764C71.7192 19.5902 71.5682 19.4392 71.382 19.4392C71.1958 19.4392 71.0448 19.5902 71.0448 19.7764C71.0448 19.9626 71.1958 20.1136 71.382 20.1136Z" fill="#192833"/>
<path d="M71.382 18.3941C71.5682 18.3941 71.7192 18.2432 71.7192 18.0569C71.7192 17.8707 71.5682 17.7197 71.382 17.7197C71.1958 17.7197 71.0448 17.8707 71.0448 18.0569C71.0448 18.2432 71.1958 18.3941 71.382 18.3941Z" fill="#192833"/>
<path d="M73.1019 24.4164C73.2881 24.4164 73.4391 24.2654 73.4391 24.0791C73.4391 23.8929 73.2881 23.7419 73.1019 23.7419C72.9156 23.7419 72.7646 23.8929 72.7646 24.0791C72.7646 24.2654 72.9156 24.4164 73.1019 24.4164Z" fill="#192833"/>
<path d="M73.1019 22.6935C73.2881 22.6935 73.4391 22.5425 73.4391 22.3562C73.4391 22.17 73.2881 22.019 73.1019 22.019C72.9156 22.019 72.7646 22.17 72.7646 22.3562C72.7646 22.5425 72.9156 22.6935 73.1019 22.6935Z" fill="#192833"/>
<path d="M71.382 23.5533C71.5682 23.5533 71.7192 23.4023 71.7192 23.2161C71.7192 23.0299 71.5682 22.8789 71.382 22.8789C71.1958 22.8789 71.0448 23.0299 71.0448 23.2161C71.0448 23.4023 71.1958 23.5533 71.382 23.5533Z" fill="#192833"/>
<path d="M71.382 21.8336C71.5682 21.8336 71.7192 21.6826 71.7192 21.4964C71.7192 21.3102 71.5682 21.1592 71.382 21.1592C71.1958 21.1592 71.0448 21.3102 71.0448 21.4964C71.0448 21.6826 71.1958 21.8336 71.382 21.8336Z" fill="#192833"/>
<path d="M73.1019 27.8561C73.2881 27.8561 73.4391 27.7051 73.4391 27.5188C73.4391 27.3326 73.2881 27.1816 73.1019 27.1816C72.9156 27.1816 72.7646 27.3326 72.7646 27.5188C72.7646 27.7051 72.9156 27.8561 73.1019 27.8561Z" fill="#192833"/>
<path d="M73.1019 26.1363C73.2881 26.1363 73.4391 25.9854 73.4391 25.7991C73.4391 25.6129 73.2881 25.4619 73.1019 25.4619C72.9156 25.4619 72.7646 25.6129 72.7646 25.7991C72.7646 25.9854 72.9156 26.1363 73.1019 26.1363Z" fill="#192833"/>
<path d="M71.382 26.9962C71.5682 26.9962 71.7192 26.8452 71.7192 26.659C71.7192 26.4727 71.5682 26.3218 71.382 26.3218C71.1958 26.3218 71.0448 26.4727 71.0448 26.659C71.0448 26.8452 71.1958 26.9962 71.382 26.9962Z" fill="#192833"/>
<path d="M71.382 25.2765C71.5682 25.2765 71.7192 25.1255 71.7192 24.9393C71.7192 24.753 71.5682 24.6021 71.382 24.6021C71.1958 24.6021 71.0448 24.753 71.0448 24.9393C71.0448 25.1255 71.1958 25.2765 71.382 25.2765Z" fill="#192833"/>
<path d="M73.1019 31.2992C73.2881 31.2992 73.4391 31.1482 73.4391 30.962C73.4391 30.7757 73.2881 30.6248 73.1019 30.6248C72.9156 30.6248 72.7646 30.7757 72.7646 30.962C72.7646 31.1482 72.9156 31.2992 73.1019 31.2992Z" fill="#192833"/>
<path d="M73.1019 29.5758C73.2881 29.5758 73.4391 29.4248 73.4391 29.2386C73.4391 29.0523 73.2881 28.9014 73.1019 28.9014C72.9156 28.9014 72.7646 29.0523 72.7646 29.2386C72.7646 29.4248 72.9156 29.5758 73.1019 29.5758Z" fill="#192833"/>
<path d="M71.382 30.4359C71.5682 30.4359 71.7192 30.2849 71.7192 30.0987C71.7192 29.9124 71.5682 29.7615 71.382 29.7615C71.1958 29.7615 71.0448 29.9124 71.0448 30.0987C71.0448 30.2849 71.1958 30.4359 71.382 30.4359Z" fill="#192833"/>
<path d="M71.382 28.7159C71.5682 28.7159 71.7192 28.5649 71.7192 28.3787C71.7192 28.1925 71.5682 28.0415 71.382 28.0415C71.1958 28.0415 71.0448 28.1925 71.0448 28.3787C71.0448 28.5649 71.1958 28.7159 71.382 28.7159Z" fill="#192833"/>
<path d="M73.1019 34.7389C73.2881 34.7389 73.4391 34.5879 73.4391 34.4017C73.4391 34.2154 73.2881 34.0645 73.1019 34.0645C72.9156 34.0645 72.7646 34.2154 72.7646 34.4017C72.7646 34.5879 72.9156 34.7389 73.1019 34.7389Z" fill="#192833"/>
<path d="M73.1019 33.0189C73.2881 33.0189 73.4391 32.8679 73.4391 32.6817C73.4391 32.4955 73.2881 32.3445 73.1019 32.3445C72.9156 32.3445 72.7646 32.4955 72.7646 32.6817C72.7646 32.8679 72.9156 33.0189 73.1019 33.0189Z" fill="#192833"/>
<path d="M71.382 33.8788C71.5682 33.8788 71.7192 33.7278 71.7192 33.5416C71.7192 33.3553 71.5682 33.2043 71.382 33.2043C71.1958 33.2043 71.0448 33.3553 71.0448 33.5416C71.0448 33.7278 71.1958 33.8788 71.382 33.8788Z" fill="#192833"/>
<path d="M71.382 32.159C71.5682 32.159 71.7192 32.0081 71.7192 31.8218C71.7192 31.6356 71.5682 31.4846 71.382 31.4846C71.1958 31.4846 71.0448 31.6356 71.0448 31.8218C71.0448 32.0081 71.1958 32.159 71.382 32.159Z" fill="#192833"/>
<path d="M73.1019 38.1781C73.2881 38.1781 73.4391 38.0271 73.4391 37.8409C73.4391 37.6546 73.2881 37.5037 73.1019 37.5037C72.9156 37.5037 72.7646 37.6546 72.7646 37.8409C72.7646 38.0271 72.9156 38.1781 73.1019 38.1781Z" fill="#192833"/>
<path d="M73.1019 36.4581C73.2881 36.4581 73.4391 36.3071 73.4391 36.1209C73.4391 35.9347 73.2881 35.7837 73.1019 35.7837C72.9156 35.7837 72.7646 35.9347 72.7646 36.1209C72.7646 36.3071 72.9156 36.4581 73.1019 36.4581Z" fill="#192833"/>
<path d="M71.382 37.3182C71.5682 37.3182 71.7192 37.1672 71.7192 36.981C71.7192 36.7948 71.5682 36.6438 71.382 36.6438C71.1958 36.6438 71.0448 36.7948 71.0448 36.981C71.0448 37.1672 71.1958 37.3182 71.382 37.3182Z" fill="#192833"/>
<path d="M71.382 35.5982C71.5682 35.5982 71.7192 35.4473 71.7192 35.261C71.7192 35.0748 71.5682 34.9238 71.382 34.9238C71.1958 34.9238 71.0448 35.0748 71.0448 35.261C71.0448 35.4473 71.1958 35.5982 71.382 35.5982Z" fill="#192833"/>
<path d="M71.382 40.7611C71.5682 40.7611 71.7192 40.6101 71.7192 40.4239C71.7192 40.2376 71.5682 40.0867 71.382 40.0867C71.1958 40.0867 71.0448 40.2376 71.0448 40.4239C71.0448 40.6101 71.1958 40.7611 71.382 40.7611Z" fill="#192833"/>
<path d="M71.382 39.0414C71.5682 39.0414 71.7192 38.8904 71.7192 38.7041C71.7192 38.5179 71.5682 38.3669 71.382 38.3669C71.1958 38.3669 71.0448 38.5179 71.0448 38.7041C71.0448 38.8904 71.1958 39.0414 71.382 39.0414Z" fill="#192833"/>
<path d="M71.382 42.4808C71.5682 42.4808 71.7192 42.3298 71.7192 42.1436C71.7192 41.9574 71.5682 41.8064 71.382 41.8064C71.1958 41.8064 71.0448 41.9574 71.0448 42.1436C71.0448 42.3298 71.1958 42.4808 71.382 42.4808Z" fill="#192833"/>
<path d="M69.6625 20.9737C69.8488 20.9737 69.9997 20.8228 69.9997 20.6365C69.9997 20.4503 69.8488 20.2993 69.6625 20.2993C69.4763 20.2993 69.3253 20.4503 69.3253 20.6365C69.3253 20.8228 69.4763 20.9737 69.6625 20.9737Z" fill="#192833"/>
<path d="M69.6625 24.4164C69.8488 24.4164 69.9997 24.2654 69.9997 24.0791C69.9997 23.8929 69.8488 23.7419 69.6625 23.7419C69.4763 23.7419 69.3253 23.8929 69.3253 24.0791C69.3253 24.2654 69.4763 24.4164 69.6625 24.4164Z" fill="#192833"/>
<path d="M69.6625 22.6935C69.8488 22.6935 69.9997 22.5425 69.9997 22.3562C69.9997 22.17 69.8488 22.019 69.6625 22.019C69.4763 22.019 69.3253 22.17 69.3253 22.3562C69.3253 22.5425 69.4763 22.6935 69.6625 22.6935Z" fill="#192833"/>
<path d="M67.9393 23.5533C68.1255 23.5533 68.2765 23.4023 68.2765 23.2161C68.2765 23.0299 68.1255 22.8789 67.9393 22.8789C67.753 22.8789 67.6021 23.0299 67.6021 23.2161C67.6021 23.4023 67.753 23.5533 67.9393 23.5533Z" fill="#192833"/>
<path d="M69.6625 27.8561C69.8488 27.8561 69.9997 27.7051 69.9997 27.5188C69.9997 27.3326 69.8488 27.1816 69.6625 27.1816C69.4763 27.1816 69.3253 27.3326 69.3253 27.5188C69.3253 27.7051 69.4763 27.8561 69.6625 27.8561Z" fill="#192833"/>
<path d="M69.6625 26.1363C69.8488 26.1363 69.9997 25.9854 69.9997 25.7991C69.9997 25.6129 69.8488 25.4619 69.6625 25.4619C69.4763 25.4619 69.3253 25.6129 69.3253 25.7991C69.3253 25.9854 69.4763 26.1363 69.6625 26.1363Z" fill="#192833"/>
<path d="M67.9393 26.9962C68.1255 26.9962 68.2765 26.8452 68.2765 26.659C68.2765 26.4727 68.1255 26.3218 67.9393 26.3218C67.753 26.3218 67.6021 26.4727 67.6021 26.659C67.6021 26.8452 67.753 26.9962 67.9393 26.9962Z" fill="#192833"/>
<path d="M67.9393 25.2765C68.1255 25.2765 68.2765 25.1255 68.2765 24.9393C68.2765 24.753 68.1255 24.6021 67.9393 24.6021C67.753 24.6021 67.6021 24.753 67.6021 24.9393C67.6021 25.1255 67.753 25.2765 67.9393 25.2765Z" fill="#192833"/>
<path d="M69.6625 31.2992C69.8488 31.2992 69.9997 31.1482 69.9997 30.962C69.9997 30.7757 69.8488 30.6248 69.6625 30.6248C69.4763 30.6248 69.3253 30.7757 69.3253 30.962C69.3253 31.1482 69.4763 31.2992 69.6625 31.2992Z" fill="#192833"/>
<path d="M69.6625 29.5758C69.8488 29.5758 69.9997 29.4248 69.9997 29.2386C69.9997 29.0523 69.8488 28.9014 69.6625 28.9014C69.4763 28.9014 69.3253 29.0523 69.3253 29.2386C69.3253 29.4248 69.4763 29.5758 69.6625 29.5758Z" fill="#192833"/>
<path d="M67.9393 30.4359C68.1255 30.4359 68.2765 30.2849 68.2765 30.0987C68.2765 29.9124 68.1255 29.7615 67.9393 29.7615C67.753 29.7615 67.6021 29.9124 67.6021 30.0987C67.6021 30.2849 67.753 30.4359 67.9393 30.4359Z" fill="#192833"/>
<path d="M67.9393 28.7159C68.1255 28.7159 68.2765 28.5649 68.2765 28.3787C68.2765 28.1925 68.1255 28.0415 67.9393 28.0415C67.753 28.0415 67.6021 28.1925 67.6021 28.3787C67.6021 28.5649 67.753 28.7159 67.9393 28.7159Z" fill="#192833"/>
<path d="M69.6625 34.7389C69.8488 34.7389 69.9997 34.5879 69.9997 34.4017C69.9997 34.2154 69.8488 34.0645 69.6625 34.0645C69.4763 34.0645 69.3253 34.2154 69.3253 34.4017C69.3253 34.5879 69.4763 34.7389 69.6625 34.7389Z" fill="#192833"/>
<path d="M69.6625 33.0189C69.8488 33.0189 69.9997 32.8679 69.9997 32.6817C69.9997 32.4955 69.8488 32.3445 69.6625 32.3445C69.4763 32.3445 69.3253 32.4955 69.3253 32.6817C69.3253 32.8679 69.4763 33.0189 69.6625 33.0189Z" fill="#192833"/>
<path d="M67.9393 33.8788C68.1255 33.8788 68.2765 33.7278 68.2765 33.5416C68.2765 33.3553 68.1255 33.2043 67.9393 33.2043C67.753 33.2043 67.6021 33.3553 67.6021 33.5416C67.6021 33.7278 67.753 33.8788 67.9393 33.8788Z" fill="#192833"/>
<path d="M67.9393 32.159C68.1255 32.159 68.2765 32.0081 68.2765 31.8218C68.2765 31.6356 68.1255 31.4846 67.9393 31.4846C67.753 31.4846 67.6021 31.6356 67.6021 31.8218C67.6021 32.0081 67.753 32.159 67.9393 32.159Z" fill="#192833"/>
<path d="M69.6625 38.1781C69.8488 38.1781 69.9997 38.0271 69.9997 37.8409C69.9997 37.6546 69.8488 37.5037 69.6625 37.5037C69.4763 37.5037 69.3253 37.6546 69.3253 37.8409C69.3253 38.0271 69.4763 38.1781 69.6625 38.1781Z" fill="#192833"/>
<path d="M69.6625 36.4581C69.8488 36.4581 69.9997 36.3071 69.9997 36.1209C69.9997 35.9347 69.8488 35.7837 69.6625 35.7837C69.4763 35.7837 69.3253 35.9347 69.3253 36.1209C69.3253 36.3071 69.4763 36.4581 69.6625 36.4581Z" fill="#192833"/>
<path d="M67.9393 35.5982C68.1255 35.5982 68.2765 35.4473 68.2765 35.261C68.2765 35.0748 68.1255 34.9238 67.9393 34.9238C67.753 34.9238 67.6021 35.0748 67.6021 35.261C67.6021 35.4473 67.753 35.5982 67.9393 35.5982Z" fill="#192833"/>
<path d="M66.2197 27.8561C66.4059 27.8561 66.5569 27.7051 66.5569 27.5188C66.5569 27.3326 66.4059 27.1816 66.2197 27.1816C66.0334 27.1816 65.8824 27.3326 65.8824 27.5188C65.8824 27.7051 66.0334 27.8561 66.2197 27.8561Z" fill="#192833"/>
<path d="M66.2197 26.1363C66.4059 26.1363 66.5569 25.9854 66.5569 25.7991C66.5569 25.6129 66.4059 25.4619 66.2197 25.4619C66.0334 25.4619 65.8824 25.6129 65.8824 25.7991C65.8824 25.9854 66.0334 26.1363 66.2197 26.1363Z" fill="#192833"/>
<path d="M64.4999 26.9962C64.6862 26.9962 64.8371 26.8452 64.8371 26.659C64.8371 26.4727 64.6862 26.3218 64.4999 26.3218C64.3137 26.3218 64.1627 26.4727 64.1627 26.659C64.1627 26.8452 64.3137 26.9962 64.4999 26.9962Z" fill="#192833"/>
<path d="M66.2197 31.2992C66.4059 31.2992 66.5569 31.1482 66.5569 30.962C66.5569 30.7757 66.4059 30.6248 66.2197 30.6248C66.0334 30.6248 65.8824 30.7757 65.8824 30.962C65.8824 31.1482 66.0334 31.2992 66.2197 31.2992Z" fill="#192833"/>
<path d="M66.2197 29.5758C66.4059 29.5758 66.5569 29.4248 66.5569 29.2386C66.5569 29.0523 66.4059 28.9014 66.2197 28.9014C66.0334 28.9014 65.8824 29.0523 65.8824 29.2386C65.8824 29.4248 66.0334 29.5758 66.2197 29.5758Z" fill="#192833"/>
<path d="M64.4999 30.4359C64.6862 30.4359 64.8371 30.2849 64.8371 30.0987C64.8371 29.9124 64.6862 29.7615 64.4999 29.7615C64.3137 29.7615 64.1627 29.9124 64.1627 30.0987C64.1627 30.2849 64.3137 30.4359 64.4999 30.4359Z" fill="#192833"/>
<path d="M64.4999 28.7159C64.6862 28.7159 64.8371 28.5649 64.8371 28.3787C64.8371 28.1925 64.6862 28.0415 64.4999 28.0415C64.3137 28.0415 64.1627 28.1925 64.1627 28.3787C64.1627 28.5649 64.3137 28.7159 64.4999 28.7159Z" fill="#192833"/>
<path d="M66.2197 33.0189C66.4059 33.0189 66.5569 32.8679 66.5569 32.6817C66.5569 32.4955 66.4059 32.3445 66.2197 32.3445C66.0334 32.3445 65.8824 32.4955 65.8824 32.6817C65.8824 32.8679 66.0334 33.0189 66.2197 33.0189Z" fill="#192833"/>
<path d="M64.4999 32.159C64.6862 32.159 64.8371 32.0081 64.8371 31.8218C64.8371 31.6356 64.6862 31.4846 64.4999 31.4846C64.3137 31.4846 64.1627 31.6356 64.1627 31.8218C64.1627 32.0081 64.3137 32.159 64.4999 32.159Z" fill="#192833"/>
<path d="M62.7801 27.8561C62.9663 27.8561 63.1173 27.7051 63.1173 27.5188C63.1173 27.3326 62.9663 27.1816 62.7801 27.1816C62.5938 27.1816 62.4429 27.3326 62.4429 27.5188C62.4429 27.7051 62.5938 27.8561 62.7801 27.8561Z" fill="#192833"/>
<path d="M62.7801 31.2992C62.9663 31.2992 63.1173 31.1482 63.1173 30.962C63.1173 30.7757 62.9663 30.6248 62.7801 30.6248C62.5938 30.6248 62.4429 30.7757 62.4429 30.962C62.4429 31.1482 62.5938 31.2992 62.7801 31.2992Z" fill="#192833"/>
<path d="M62.7801 29.5758C62.9663 29.5758 63.1173 29.4248 63.1173 29.2386C63.1173 29.0523 62.9663 28.9014 62.7801 28.9014C62.5938 28.9014 62.4429 29.0523 62.4429 29.2386C62.4429 29.4248 62.5938 29.5758 62.7801 29.5758Z" fill="#192833"/>
<path d="M61.0571 30.4359C61.2433 30.4359 61.3943 30.2849 61.3943 30.0987C61.3943 29.9124 61.2433 29.7615 61.0571 29.7615C60.8708 29.7615 60.7198 29.9124 60.7198 30.0987C60.7198 30.2849 60.8708 30.4359 61.0571 30.4359Z" fill="#192833"/>
<path d="M61.0571 28.7159C61.2433 28.7159 61.3943 28.5649 61.3943 28.3787C61.3943 28.1925 61.2433 28.0415 61.0571 28.0415C60.8708 28.0415 60.7198 28.1925 60.7198 28.3787C60.7198 28.5649 60.8708 28.7159 61.0571 28.7159Z" fill="#192833"/>
<path d="M59.3373 29.5758C59.5236 29.5758 59.6745 29.4248 59.6745 29.2386C59.6745 29.0523 59.5236 28.9014 59.3373 28.9014C59.1511 28.9014 59.0001 29.0523 59.0001 29.2386C59.0001 29.4248 59.1511 29.5758 59.3373 29.5758Z" fill="#192833"/>
<path d="M25.6124 49.6137C25.7357 49.6137 25.8356 49.4951 25.8356 49.3487C25.8356 49.2024 25.7357 49.0837 25.6124 49.0837C25.4891 49.0837 25.3892 49.2024 25.3892 49.3487C25.3892 49.4951 25.4891 49.6137 25.6124 49.6137Z" fill="#192833"/>
<path d="M22.1971 47.5866C22.3204 47.5866 22.4203 47.468 22.4203 47.3216C22.4203 47.1753 22.3204 47.0566 22.1971 47.0566C22.0738 47.0566 21.9739 47.1753 21.9739 47.3216C21.9739 47.468 22.0738 47.5866 22.1971 47.5866Z" fill="#192833"/>
<path d="M23.3358 49.6137C23.4591 49.6137 23.559 49.4951 23.559 49.3487C23.559 49.2024 23.4591 49.0837 23.3358 49.0837C23.2125 49.0837 23.1125 49.2024 23.1125 49.3487C23.1125 49.4951 23.2125 49.6137 23.3358 49.6137Z" fill="#192833"/>
<path d="M22.1971 50.2895C22.3204 50.2895 22.4203 50.1708 22.4203 50.0245C22.4203 49.8782 22.3204 49.7595 22.1971 49.7595C22.0738 49.7595 21.9739 49.8782 21.9739 50.0245C21.9739 50.1708 22.0738 50.2895 22.1971 50.2895Z" fill="#192833"/>
<path d="M22.1971 48.9379C22.3204 48.9379 22.4203 48.8193 22.4203 48.6729C22.4203 48.5266 22.3204 48.408 22.1971 48.408C22.0738 48.408 21.9739 48.5266 21.9739 48.6729C21.9739 48.8193 22.0738 48.9379 22.1971 48.9379Z" fill="#192833"/>
<path d="M22.1971 51.6435C22.3204 51.6435 22.4203 51.5248 22.4203 51.3785C22.4203 51.2322 22.3204 51.1135 22.1971 51.1135C22.0738 51.1135 21.9739 51.2322 21.9739 51.3785C21.9739 51.5248 22.0738 51.6435 22.1971 51.6435Z" fill="#192833"/>
<path d="M19.9178 44.8837C20.0411 44.8837 20.1411 44.7651 20.1411 44.6187C20.1411 44.4724 20.0411 44.3538 19.9178 44.3538C19.7945 44.3538 19.6946 44.4724 19.6946 44.6187C19.6946 44.7651 19.7945 44.8837 19.9178 44.8837Z" fill="#192833"/>
<path d="M19.9179 43.5299C20.0412 43.5299 20.1412 43.4113 20.1412 43.265C20.1412 43.1186 20.0412 43 19.9179 43C19.7946 43 19.6947 43.1186 19.6947 43.265C19.6947 43.4113 19.7946 43.5299 19.9179 43.5299Z" fill="#192833"/>
<path d="M21.0565 48.2624C21.1798 48.2624 21.2797 48.1437 21.2797 47.9974C21.2797 47.8511 21.1798 47.7324 21.0565 47.7324C20.9332 47.7324 20.8333 47.8511 20.8333 47.9974C20.8333 48.1437 20.9332 48.2624 21.0565 48.2624Z" fill="#192833"/>
<path d="M21.0565 46.9108C21.1798 46.9108 21.2797 46.7922 21.2797 46.6458C21.2797 46.4995 21.1798 46.3809 21.0565 46.3809C20.9332 46.3809 20.8333 46.4995 20.8333 46.6458C20.8333 46.7922 20.9332 46.9108 21.0565 46.9108Z" fill="#192833"/>
<path d="M19.9178 47.5866C20.0411 47.5866 20.1411 47.468 20.1411 47.3216C20.1411 47.1753 20.0411 47.0566 19.9178 47.0566C19.7945 47.0566 19.6946 47.1753 19.6946 47.3216C19.6946 47.468 19.7945 47.5866 19.9178 47.5866Z" fill="#192833"/>
<path d="M19.9178 46.235C20.0411 46.235 20.1411 46.1164 20.1411 45.9701C20.1411 45.8237 20.0411 45.7051 19.9178 45.7051C19.7945 45.7051 19.6946 45.8237 19.6946 45.9701C19.6946 46.1164 19.7945 46.235 19.9178 46.235Z" fill="#192833"/>
<path d="M21.0565 50.9679C21.1798 50.9679 21.2797 50.8493 21.2797 50.703C21.2797 50.5566 21.1798 50.438 21.0565 50.438C20.9332 50.438 20.8333 50.5566 20.8333 50.703C20.8333 50.8493 20.9332 50.9679 21.0565 50.9679Z" fill="#192833"/>
<path d="M21.0565 49.6137C21.1798 49.6137 21.2797 49.4951 21.2797 49.3487C21.2797 49.2024 21.1798 49.0837 21.0565 49.0837C20.9332 49.0837 20.8333 49.2024 20.8333 49.3487C20.8333 49.4951 20.9332 49.6137 21.0565 49.6137Z" fill="#192833"/>
<path d="M19.9178 50.2895C20.0411 50.2895 20.1411 50.1708 20.1411 50.0245C20.1411 49.8782 20.0411 49.7595 19.9178 49.7595C19.7945 49.7595 19.6946 49.8782 19.6946 50.0245C19.6946 50.1708 19.7945 50.2895 19.9178 50.2895Z" fill="#192833"/>
<path d="M19.9178 48.9379C20.0411 48.9379 20.1411 48.8193 20.1411 48.6729C20.1411 48.5266 20.0411 48.408 19.9178 48.408C19.7945 48.408 19.6946 48.5266 19.6946 48.6729C19.6946 48.8193 19.7945 48.9379 19.9178 48.9379Z" fill="#192833"/>
<path d="M21.0565 52.3188C21.1798 52.3188 21.2797 52.2001 21.2797 52.0538C21.2797 51.9075 21.1798 51.7888 21.0565 51.7888C20.9332 51.7888 20.8333 51.9075 20.8333 52.0538C20.8333 52.2001 20.9332 52.3188 21.0565 52.3188Z" fill="#192833"/>
<path d="M19.9178 52.9945C20.0411 52.9945 20.1411 52.8759 20.1411 52.7296C20.1411 52.5832 20.0411 52.4646 19.9178 52.4646C19.7945 52.4646 19.6946 52.5832 19.6946 52.7296C19.6946 52.8759 19.7945 52.9945 19.9178 52.9945Z" fill="#192833"/>
<path d="M19.9178 51.6435C20.0411 51.6435 20.1411 51.5248 20.1411 51.3785C20.1411 51.2322 20.0411 51.1135 19.9178 51.1135C19.7945 51.1135 19.6946 51.2322 19.6946 51.3785C19.6946 51.5248 19.7945 51.6435 19.9178 51.6435Z" fill="#192833"/>
<path d="M19.9178 55.6972C20.0411 55.6972 20.1411 55.5785 20.1411 55.4322C20.1411 55.2859 20.0411 55.1672 19.9178 55.1672C19.7945 55.1672 19.6946 55.2859 19.6946 55.4322C19.6946 55.5785 19.7945 55.6972 19.9178 55.6972Z" fill="#192833"/>
<path d="M19.9178 54.3459C20.0411 54.3459 20.1411 54.2272 20.1411 54.0809C20.1411 53.9346 20.0411 53.8159 19.9178 53.8159C19.7945 53.8159 19.6946 53.9346 19.6946 54.0809C19.6946 54.2272 19.7945 54.3459 19.9178 54.3459Z" fill="#192833"/>
<path d="M18.7794 48.2624C18.9027 48.2624 19.0026 48.1437 19.0026 47.9974C19.0026 47.8511 18.9027 47.7324 18.7794 47.7324C18.6561 47.7324 18.5562 47.8511 18.5562 47.9974C18.5562 48.1437 18.6561 48.2624 18.7794 48.2624Z" fill="#192833"/>
<path d="M18.7794 46.9108C18.9027 46.9108 19.0026 46.7922 19.0026 46.6458C19.0026 46.4995 18.9027 46.3809 18.7794 46.3809C18.6561 46.3809 18.5562 46.4995 18.5562 46.6458C18.5562 46.7922 18.6561 46.9108 18.7794 46.9108Z" fill="#192833"/>
<path d="M17.641 47.5866C17.7642 47.5866 17.8642 47.468 17.8642 47.3216C17.8642 47.1753 17.7642 47.0566 17.641 47.0566C17.5177 47.0566 17.4177 47.1753 17.4177 47.3216C17.4177 47.468 17.5177 47.5866 17.641 47.5866Z" fill="#192833"/>
<path d="M18.7794 50.9679C18.9027 50.9679 19.0026 50.8493 19.0026 50.703C19.0026 50.5566 18.9027 50.438 18.7794 50.438C18.6561 50.438 18.5562 50.5566 18.5562 50.703C18.5562 50.8493 18.6561 50.9679 18.7794 50.9679Z" fill="#192833"/>
<path d="M18.7794 49.6137C18.9027 49.6137 19.0026 49.4951 19.0026 49.3487C19.0026 49.2024 18.9027 49.0837 18.7794 49.0837C18.6561 49.0837 18.5562 49.2024 18.5562 49.3487C18.5562 49.4951 18.6561 49.6137 18.7794 49.6137Z" fill="#192833"/>
<path d="M17.641 50.2895C17.7642 50.2895 17.8642 50.1708 17.8642 50.0245C17.8642 49.8782 17.7642 49.7595 17.641 49.7595C17.5177 49.7595 17.4177 49.8782 17.4177 50.0245C17.4177 50.1708 17.5177 50.2895 17.641 50.2895Z" fill="#192833"/>
<path d="M17.641 48.9379C17.7642 48.9379 17.8642 48.8193 17.8642 48.6729C17.8642 48.5266 17.7642 48.408 17.641 48.408C17.5177 48.408 17.4177 48.5266 17.4177 48.6729C17.4177 48.8193 17.5177 48.9379 17.641 48.9379Z" fill="#192833"/>
<path d="M18.7794 52.3188C18.9027 52.3188 19.0026 52.2001 19.0026 52.0538C19.0026 51.9075 18.9027 51.7888 18.7794 51.7888C18.6561 51.7888 18.5562 51.9075 18.5562 52.0538C18.5562 52.2001 18.6561 52.3188 18.7794 52.3188Z" fill="#192833"/>
<path d="M17.641 51.6435C17.7642 51.6435 17.8642 51.5248 17.8642 51.3785C17.8642 51.2322 17.7642 51.1135 17.641 51.1135C17.5177 51.1135 17.4177 51.2322 17.4177 51.3785C17.4177 51.5248 17.5177 51.6435 17.641 51.6435Z" fill="#192833"/>
<path d="M16.5025 48.2624C16.6253 48.2624 16.7257 48.1431 16.7257 47.9974C16.7257 47.8517 16.6253 47.7324 16.5025 47.7324C16.4958 47.7324 16.4913 47.7351 16.4869 47.7377C16.4311 47.7775 16.3752 47.8199 16.3194 47.8596C16.2971 47.902 16.2815 47.947 16.2815 48C16.2815 48.1458 16.3819 48.265 16.5047 48.265L16.5025 48.2624Z" fill="#192833"/>
<path d="M16.7258 50.703C16.7258 50.5572 16.6253 50.438 16.5025 50.438C16.3798 50.438 16.2793 50.5572 16.2793 50.703C16.2793 50.756 16.2949 50.801 16.3172 50.8434C16.3731 50.8831 16.4289 50.9229 16.4847 50.9653C16.4914 50.9653 16.4958 50.9706 16.5003 50.9706C16.6231 50.9706 16.7235 50.8513 16.7235 50.7056L16.7258 50.703Z" fill="#192833"/>
<path d="M16.5025 49.6137C16.6258 49.6137 16.7258 49.4951 16.7258 49.3487C16.7258 49.2024 16.6258 49.0837 16.5025 49.0837C16.3792 49.0837 16.2793 49.2024 16.2793 49.3487C16.2793 49.4951 16.3792 49.6137 16.5025 49.6137Z" fill="#192833"/>
<path d="M14.2232 49.6137C14.3465 49.6137 14.4465 49.4951 14.4465 49.3487C14.4465 49.2024 14.3465 49.0837 14.2232 49.0837C14.0999 49.0837 14 49.2024 14 49.3487C14 49.4951 14.0999 49.6137 14.2232 49.6137Z" fill="#192833"/>
<path d="M23.3358 50.965C23.4591 50.965 23.559 50.8464 23.559 50.7C23.559 50.5537 23.4591 50.4351 23.3358 50.4351C23.2125 50.4351 23.1125 50.5537 23.1125 50.7C23.1125 50.8464 23.2125 50.965 23.3358 50.965Z" fill="#192833"/>
<path d="M24.4742 50.2843C24.5975 50.2843 24.6974 50.1657 24.6974 50.0194C24.6974 49.873 24.5975 49.7544 24.4742 49.7544C24.3509 49.7544 24.251 49.873 24.251 50.0194C24.251 50.1657 24.3509 50.2843 24.4742 50.2843Z" fill="#192833"/>
<path d="M23.3358 48.2624C23.4591 48.2624 23.559 48.1437 23.559 47.9974C23.559 47.8511 23.4591 47.7324 23.3358 47.7324C23.2125 47.7324 23.1125 47.8511 23.1125 47.9974C23.1125 48.1437 23.2125 48.2624 23.3358 48.2624Z" fill="#192833"/>
<path d="M24.4742 48.943C24.5975 48.943 24.6974 48.8244 24.6974 48.6781C24.6974 48.5317 24.5975 48.4131 24.4742 48.4131C24.3509 48.4131 24.251 48.5317 24.251 48.6781C24.251 48.8244 24.3509 48.943 24.4742 48.943Z" fill="#192833"/>
<path d="M21.0565 45.5595C21.1798 45.5595 21.2797 45.4409 21.2797 45.2945C21.2797 45.1482 21.1798 45.0295 21.0565 45.0295C20.9332 45.0295 20.8333 45.1482 20.8333 45.2945C20.8333 45.4409 20.9332 45.5595 21.0565 45.5595Z" fill="#192833"/>
<path d="M18.7794 45.5595C18.9027 45.5595 19.0026 45.4409 19.0026 45.2945C19.0026 45.1482 18.9027 45.0295 18.7794 45.0295C18.6561 45.0295 18.5562 45.1482 18.5562 45.2945C18.5562 45.4409 18.6561 45.5595 18.7794 45.5595Z" fill="#192833"/>
<path d="M21.0565 53.6518C21.1798 53.6518 21.2797 53.5331 21.2797 53.3868C21.2797 53.2405 21.1798 53.1218 21.0565 53.1218C20.9332 53.1218 20.8333 53.2405 20.8333 53.3868C20.8333 53.5331 20.9332 53.6518 21.0565 53.6518Z" fill="#192833"/>
<path d="M18.7794 53.6518C18.9027 53.6518 19.0026 53.5331 19.0026 53.3868C19.0026 53.2405 18.9027 53.1218 18.7794 53.1218C18.6561 53.1218 18.5562 53.2405 18.5562 53.3868C18.5562 53.5331 18.6561 53.6518 18.7794 53.6518Z" fill="#192833"/>
<path d="M15.3617 50.2843C15.485 50.2843 15.5849 50.1657 15.5849 50.0194C15.5849 49.873 15.485 49.7544 15.3617 49.7544C15.2384 49.7544 15.1384 49.873 15.1384 50.0194C15.1384 50.1657 15.2384 50.2843 15.3617 50.2843Z" fill="#192833"/>
<path d="M15.3617 48.943C15.485 48.943 15.5849 48.8244 15.5849 48.6781C15.5849 48.5317 15.485 48.4131 15.3617 48.4131C15.2384 48.4131 15.1384 48.5317 15.1384 48.6781C15.1384 48.8244 15.2384 48.943 15.3617 48.943Z" fill="#192833"/>
</g>
</svg>
