<svg width="144" height="48" viewBox="0 0 144 48" fill="none" xmlns="http://www.w3.org/2000/svg">
<g id="Download_on_the_App_Store_Badge_US-UK_RGB_blk_092917 1" clip-path="url(#clip0_3339_777)">
<g id="Group">
<g id="Group_2">
<g id="Group_3">
<path id="Vector" d="M132.363 0.000156H11.6433C11.2032 0.000156 10.7685 0.000156 10.3296 0.002556C9.96222 0.004956 9.59777 0.011928 9.22686 0.017796C8.42108 0.0272782 7.61719 0.0981675 6.82218 0.229848C6.02829 0.364395 5.25927 0.618055 4.54112 0.982248C3.82386 1.34952 3.16847 1.82676 2.59874 2.39664C2.02602 2.96492 1.54862 3.62178 1.18488 4.34195C0.82014 5.06069 0.567229 5.83088 0.43488 6.62593C0.301273 7.41998 0.229378 8.22318 0.21984 9.02833C0.208704 9.39625 0.207528 9.7654 0.20166 10.1334V37.8705C0.207528 38.2431 0.208704 38.604 0.21984 38.9768C0.229381 39.7819 0.301276 40.585 0.43488 41.379C0.566863 42.1745 0.81979 42.9452 1.18488 43.6642C1.54845 44.382 2.02593 45.0362 2.59874 45.6014C3.16631 46.1738 3.82212 46.6513 4.54112 47.0158C5.25926 47.381 6.0282 47.6361 6.82218 47.7728C7.61732 47.9034 8.42113 47.9743 9.22686 47.9849C9.59777 47.9931 9.96222 47.9978 10.3296 47.9978C10.7685 48.0002 11.2033 48.0002 11.6433 48.0002H132.363C132.795 48.0002 133.233 48.0002 133.664 47.9978C134.03 47.9978 134.405 47.9931 134.77 47.9849C135.575 47.9749 136.377 47.9039 137.17 47.7728C137.967 47.6352 138.739 47.3801 139.46 47.0158C140.179 46.6511 140.834 46.1736 141.401 45.6014C141.972 45.034 142.451 44.3803 142.819 43.6642C143.181 42.9447 143.432 42.1741 143.562 41.379C143.696 40.5849 143.77 39.7819 143.784 38.9768C143.789 38.604 143.789 38.2431 143.789 37.8705C143.799 37.4345 143.799 37.001 143.799 36.5579V11.4435C143.799 11.0041 143.799 10.5681 143.789 10.1334C143.789 9.7654 143.789 9.39625 143.784 9.02828C143.77 8.22306 143.696 7.42004 143.562 6.62588C143.431 5.83129 143.181 5.06116 142.819 4.3419C142.078 2.89839 140.904 1.72339 139.46 0.98214C138.739 0.618837 137.967 0.365244 137.17 0.22974C136.377 0.0974793 135.575 0.0265653 134.77 0.017628C134.405 0.011772 134.03 0.00474 133.664 0.0024C133.233 0 132.795 0.000156 132.363 0.000156Z" fill="#A6A6A6"/>
<path id="Vector_2" d="M10.3357 46.9501C9.97008 46.9501 9.6133 46.9454 9.25055 46.9372C8.49909 46.9274 7.74938 46.862 7.00758 46.7415C6.31589 46.6224 5.64582 46.4008 5.01949 46.084C4.3989 45.7699 3.83287 45.358 3.34309 44.8641C2.84622 44.376 2.43255 43.8099 2.11848 43.1883C1.80095 42.5626 1.5812 41.8919 1.46688 41.1996C1.34343 40.4558 1.27664 39.7036 1.26708 38.9496C1.25947 38.6966 1.24951 37.8539 1.24951 37.8539V10.1333C1.24951 10.1333 1.26012 9.30357 1.26714 9.05981C1.27629 8.30703 1.34269 7.55603 1.46578 6.81332C1.5803 6.11915 1.80022 5.44655 2.11793 4.8188C2.43085 4.19758 2.84222 3.63108 3.3361 3.14126C3.82942 2.64679 4.39726 2.23277 5.0189 1.9143C5.6438 1.59856 6.31259 1.37853 7.00289 1.26157C7.74712 1.13985 8.49943 1.07404 9.2535 1.0647L10.3363 1.05005H133.659L134.754 1.06529C135.501 1.07417 136.247 1.13939 136.984 1.2604C137.682 1.37882 138.357 1.60039 138.989 1.91782C140.235 2.55963 141.248 3.57504 141.887 4.82173C142.2 5.44514 142.417 6.11226 142.53 6.80044C142.654 7.54924 142.724 8.30614 142.738 9.06509C142.742 9.40493 142.742 9.76997 142.742 10.1333C142.751 10.5833 142.751 11.0116 142.751 11.4434V36.5578C142.751 36.9938 142.751 37.4192 142.742 37.8481C142.742 38.2383 142.742 38.5958 142.737 38.9637C142.723 39.7091 142.654 40.4525 142.532 41.1879C142.42 41.8852 142.201 42.5611 141.884 43.1919C141.568 43.8068 141.156 44.368 140.665 44.8547C140.175 45.3513 139.608 45.7656 138.986 46.0817C138.356 46.4009 137.681 46.6233 136.984 46.7415C136.243 46.8626 135.493 46.9281 134.741 46.9372C134.39 46.9454 134.022 46.9501 133.664 46.9501L132.364 46.9524L10.3357 46.9501Z" fill="black"/>
</g>
<g id="&#60;Group&#62;">
<g id="&#60;Group&#62;_2">
<g id="&#60;Group&#62;_3">
<path id="&#60;Path&#62;" d="M29.9243 24.3608C29.9372 23.3592 30.2032 22.3771 30.6976 21.506C31.1921 20.6348 31.8988 19.9029 32.7521 19.3783C32.21 18.6041 31.4949 17.967 30.6635 17.5175C29.8321 17.0681 28.9074 16.8187 27.9627 16.7891C25.9476 16.5776 23.9941 17.9949 22.9673 17.9949C21.9205 17.9949 20.3395 16.8101 18.6371 16.8451C17.5358 16.8807 16.4626 17.2009 15.522 17.7746C14.5813 18.3483 13.8053 19.1558 13.2696 20.1186C10.9488 24.1367 12.6799 30.0419 14.903 33.2899C16.0153 34.8803 17.3152 36.6568 19.0161 36.5938C20.6806 36.5248 21.3023 35.5324 23.3114 35.5324C25.3019 35.5324 25.8852 36.5938 27.6206 36.5538C29.4067 36.5248 30.532 34.9563 31.6052 33.3508C32.4044 32.2176 33.0194 30.9651 33.4273 29.6398C32.3897 29.2009 31.5042 28.4663 30.8812 27.5275C30.2583 26.5888 29.9255 25.4874 29.9243 24.3608Z" fill="white"/>
<path id="&#60;Path&#62;_2" d="M26.6464 14.6531C27.6202 13.484 28.1 11.9814 27.9838 10.4644C26.496 10.6206 25.1217 11.3317 24.1347 12.4559C23.6521 13.0051 23.2825 13.644 23.047 14.3361C22.8115 15.0283 22.7148 15.76 22.7622 16.4896C23.5064 16.4972 24.2426 16.3359 24.9154 16.0178C25.5882 15.6997 26.18 15.2331 26.6464 14.6531Z" fill="white"/>
</g>
</g>
<g id="Group_4">
<path id="Vector_3" d="M50.9642 32.5677H45.2841L43.92 36.5954H41.5142L46.8942 21.6938H49.3938L54.7739 36.5954H52.327L50.9642 32.5677ZM45.8724 30.7091H50.3748L48.1552 24.1724H48.0931L45.8724 30.7091Z" fill="white"/>
<path id="Vector_4" d="M66.3932 31.1637C66.3932 34.5399 64.5862 36.709 61.8592 36.709C61.1684 36.7452 60.4814 36.5861 59.8769 36.2499C59.2723 35.9137 58.7747 35.4141 58.4409 34.8082H58.3893V40.1895H56.1592V25.7309H58.3178V27.5379H58.3588C58.708 26.935 59.214 26.438 59.8232 26.0997C60.4324 25.7615 61.1218 25.5948 61.8182 25.6172C64.5756 25.6172 66.3932 27.7969 66.3932 31.1637ZM64.101 31.1637C64.101 28.9641 62.9643 27.518 61.2299 27.518C59.526 27.518 58.3799 28.9946 58.3799 31.1637C58.3799 33.3528 59.526 34.8188 61.2299 34.8188C62.9643 34.8188 64.101 33.3833 64.101 31.1637Z" fill="white"/>
<path id="Vector_5" d="M78.3507 31.1637C78.3507 34.5399 76.5437 36.709 73.8167 36.709C73.1259 36.7452 72.439 36.586 71.8344 36.2499C71.2298 35.9137 70.7322 35.4141 70.3984 34.8082H70.3468V40.1895H68.1167V25.7309H70.2753V27.5379H70.3163C70.6654 26.935 71.1715 26.438 71.7807 26.0997C72.3898 25.7615 73.0793 25.5948 73.7757 25.6172C76.5331 25.6172 78.3507 27.7969 78.3507 31.1637ZM76.0585 31.1637C76.0585 28.9641 74.9218 27.518 73.1874 27.518C71.4835 27.518 70.3374 28.9946 70.3374 31.1637C70.3374 33.3528 71.4835 34.8188 73.1874 34.8188C74.9218 34.8188 76.0585 33.3833 76.0585 31.1637Z" fill="white"/>
<path id="Vector_6" d="M86.254 32.4434C86.4193 33.9212 87.8548 34.8914 89.8165 34.8914C91.6962 34.8914 93.0486 33.9211 93.0486 32.5887C93.0486 31.432 92.2329 30.7395 90.3017 30.2649L88.3705 29.7996C85.6341 29.1387 84.3638 27.859 84.3638 25.7824C84.3638 23.2113 86.6044 21.4453 89.7861 21.4453C92.9349 21.4453 95.0935 23.2113 95.1661 25.7824H92.915C92.7802 24.2953 91.5509 23.3977 89.7544 23.3977C87.9579 23.3977 86.7286 24.3059 86.7286 25.6277C86.7286 26.6813 87.5138 27.3012 89.4345 27.7757L91.0763 28.1789C94.1337 28.9019 95.404 30.1301 95.404 32.3097C95.404 35.0976 93.1833 36.8437 89.6513 36.8437C86.3466 36.8437 84.1153 35.1386 83.9712 32.4433L86.254 32.4434Z" fill="white"/>
<path id="Vector_7" d="M100.217 23.1599V25.731H102.283V27.497H100.217V33.4865C100.217 34.4169 100.63 34.8505 101.539 34.8505C101.784 34.8463 102.029 34.829 102.272 34.7989V36.5544C101.864 36.6307 101.449 36.6653 101.034 36.6575C98.834 36.6575 97.9762 35.8314 97.9762 33.7243V27.497H96.3965V25.731H97.9761V23.1599H100.217Z" fill="white"/>
<path id="Vector_8" d="M103.479 31.1638C103.479 27.7455 105.493 25.5974 108.632 25.5974C111.782 25.5974 113.786 27.7454 113.786 31.1638C113.786 34.5916 111.793 36.7302 108.632 36.7302C105.473 36.7302 103.479 34.5915 103.479 31.1638ZM111.514 31.1638C111.514 28.8189 110.439 27.4349 108.632 27.4349C106.825 27.4349 105.752 28.8294 105.752 31.1638C105.752 33.5181 106.825 34.8916 108.632 34.8916C110.439 34.8916 111.514 33.5181 111.514 31.1638Z" fill="white"/>
<path id="Vector_9" d="M115.625 25.7308H117.751V27.58H117.803C117.947 27.0025 118.285 26.4921 118.761 26.1346C119.237 25.7771 119.822 25.5944 120.416 25.6171C120.673 25.6162 120.93 25.6441 121.18 25.7003V27.7863C120.856 27.6871 120.518 27.6416 120.178 27.6515C119.854 27.6384 119.531 27.6955 119.232 27.8189C118.932 27.9424 118.662 28.1293 118.442 28.3668C118.221 28.6042 118.054 28.8867 117.953 29.1947C117.851 29.5027 117.818 29.829 117.855 30.1511V36.5953H115.625L115.625 25.7308Z" fill="white"/>
<path id="Vector_10" d="M131.462 33.4044C131.162 35.3767 129.242 36.7302 126.784 36.7302C123.624 36.7302 121.662 34.6126 121.662 31.2154C121.662 27.8076 123.634 25.5974 126.691 25.5974C129.696 25.5974 131.587 27.6623 131.587 30.9564V31.7205H123.913V31.8552C123.878 32.2551 123.928 32.6579 124.06 33.0369C124.192 33.4159 124.404 33.7624 124.68 34.0535C124.957 34.3445 125.292 34.5734 125.663 34.725C126.035 34.8766 126.435 34.9473 126.836 34.9326C127.363 34.9819 127.892 34.8599 128.344 34.5846C128.796 34.3092 129.147 33.8953 129.345 33.4044L131.462 33.4044ZM123.924 30.1619H129.355C129.375 29.8023 129.321 29.4426 129.195 29.1051C129.07 28.7677 128.876 28.4598 128.626 28.2009C128.375 27.942 128.074 27.7376 127.741 27.6005C127.408 27.4635 127.051 27.3967 126.691 27.4044C126.327 27.4023 125.967 27.4721 125.631 27.6097C125.295 27.7474 124.99 27.9503 124.733 28.2067C124.475 28.463 124.272 28.7678 124.133 29.1034C123.994 29.439 123.923 29.7987 123.924 30.1619Z" fill="white"/>
</g>
</g>
</g>
<g id="&#60;Group&#62;_4">
<g id="Group_5">
<path id="Vector_11" d="M45.5932 10.4774C46.0607 10.4438 46.5298 10.5144 46.9668 10.6842C47.4037 10.8539 47.7975 11.1185 48.1198 11.4588C48.4421 11.7992 48.6849 12.2068 48.8306 12.6523C48.9763 13.0978 49.0212 13.5702 48.9623 14.0352C48.9623 16.3227 47.726 17.6376 45.5932 17.6376H43.0068V10.4774H45.5932ZM44.1189 16.625H45.4689C45.803 16.6449 46.1374 16.5902 46.4476 16.4646C46.7578 16.3391 47.0362 16.1459 47.2624 15.8993C47.4886 15.6526 47.6569 15.3586 47.7552 15.0386C47.8534 14.7187 47.879 14.3809 47.8303 14.0498C47.8755 13.72 47.8473 13.3842 47.7475 13.0666C47.6478 12.749 47.479 12.4574 47.2533 12.2127C47.0277 11.968 46.7506 11.7762 46.4422 11.6512C46.1337 11.5261 45.8013 11.4708 45.4689 11.4892H44.1189V16.625Z" fill="white"/>
<path id="Vector_12" d="M50.2186 14.9333C50.1846 14.5782 50.2252 14.2199 50.3379 13.8814C50.4505 13.5429 50.6326 13.2317 50.8725 12.9678C51.1124 12.7038 51.4049 12.4929 51.7311 12.3485C52.0573 12.2042 52.4101 12.1296 52.7668 12.1296C53.1236 12.1296 53.4763 12.2042 53.8026 12.3485C54.1288 12.4929 54.4212 12.7038 54.6612 12.9678C54.9011 13.2317 55.0832 13.5429 55.1958 13.8814C55.3084 14.2199 55.3491 14.5782 55.3151 14.9333C55.3497 15.2888 55.3096 15.6475 55.1972 15.9866C55.0849 16.3256 54.9029 16.6374 54.6629 16.9019C54.423 17.1664 54.1303 17.3777 53.8037 17.5224C53.4772 17.667 53.124 17.7417 52.7668 17.7417C52.4097 17.7417 52.0565 17.667 51.7299 17.5224C51.4034 17.3777 51.1107 17.1664 50.8707 16.9019C50.6307 16.6374 50.4487 16.3256 50.3364 15.9866C50.2241 15.6475 50.184 15.2888 50.2186 14.9333ZM54.2182 14.9333C54.2182 13.762 53.692 13.077 52.7686 13.077C51.8416 13.077 51.3202 13.762 51.3202 14.9333C51.3202 16.114 51.8417 16.7937 52.7686 16.7937C53.692 16.7936 54.2182 16.1093 54.2182 14.9333Z" fill="white"/>
<path id="Vector_13" d="M62.0896 17.6374H60.9834L59.8666 13.6577H59.7822L58.6701 17.6374H57.5744L56.085 12.2339H57.1666L58.1346 16.3571H58.2143L59.3252 12.2339H60.3483L61.4592 16.3571H61.5436L62.5068 12.2339H63.5732L62.0896 17.6374Z" fill="white"/>
<path id="Vector_14" d="M64.8262 12.2339H65.8527V13.0923H65.9324C66.0676 12.784 66.2956 12.5255 66.5847 12.353C66.8737 12.1804 67.2094 12.1023 67.5449 12.1296C67.8078 12.1098 68.0718 12.1495 68.3174 12.2456C68.5629 12.3417 68.7836 12.4918 68.9632 12.6848C69.1429 12.8778 69.2768 13.1088 69.355 13.3606C69.4332 13.6124 69.4538 13.8785 69.4152 14.1393V17.6373H68.3488V14.4071C68.3488 13.5388 67.9715 13.1069 67.1828 13.1069C67.0043 13.0986 66.8261 13.129 66.6604 13.196C66.4948 13.263 66.3456 13.365 66.223 13.4951C66.1005 13.6251 66.0075 13.7802 65.9504 13.9495C65.8934 14.1189 65.8737 14.2986 65.8926 14.4763V17.6374H64.8262L64.8262 12.2339Z" fill="white"/>
<path id="Vector_15" d="M71.1143 10.1245H72.1807V17.6374H71.1143V10.1245Z" fill="white"/>
<path id="Vector_16" d="M73.6629 14.9334C73.629 14.5783 73.6696 14.22 73.7822 13.8815C73.8949 13.543 74.077 13.2318 74.317 12.9678C74.5569 12.7038 74.8494 12.4929 75.1756 12.3485C75.5019 12.2042 75.8547 12.1296 76.2114 12.1296C76.5682 12.1296 76.921 12.2042 77.2472 12.3485C77.5735 12.4929 77.866 12.7038 78.1059 12.9678C78.3459 13.2318 78.528 13.543 78.6406 13.8815C78.7533 14.22 78.7939 14.5783 78.76 14.9334C78.7945 15.2889 78.7544 15.6477 78.642 15.9867C78.5297 16.3257 78.3476 16.6375 78.1076 16.902C77.8676 17.1665 77.5749 17.3778 77.2484 17.5225C76.9218 17.6671 76.5686 17.7418 76.2114 17.7418C75.8543 17.7418 75.5011 17.6671 75.1745 17.5225C74.848 17.3778 74.5553 17.1665 74.3152 16.902C74.0752 16.6375 73.8932 16.3257 73.7809 15.9867C73.6685 15.6477 73.6283 15.2889 73.6629 14.9334ZM77.6625 14.9334C77.6625 13.7621 77.1363 13.0771 76.2129 13.0771C75.286 13.0771 74.7645 13.7621 74.7645 14.9334C74.7645 16.1141 75.286 16.7938 76.2129 16.7938C77.1363 16.7937 77.6625 16.1094 77.6625 14.9334Z" fill="white"/>
<path id="Vector_17" d="M79.8828 16.1093C79.8828 15.1367 80.607 14.5759 81.8926 14.4962L83.3563 14.4119V13.9455C83.3563 13.3747 82.9789 13.0525 82.25 13.0525C81.6547 13.0525 81.2422 13.271 81.1238 13.6531H80.0914C80.2004 12.7249 81.0734 12.1296 82.2992 12.1296C83.6539 12.1296 84.418 12.804 84.418 13.9455V17.6374H83.3914V16.8781H83.307C83.1358 17.1505 82.8953 17.3725 82.6101 17.5216C82.325 17.6706 82.0054 17.7413 81.684 17.7265C81.4571 17.7501 81.2279 17.7259 81.011 17.6554C80.794 17.585 80.5943 17.4699 80.4246 17.3175C80.2549 17.1652 80.119 16.9789 80.0257 16.7708C79.9324 16.5627 79.8837 16.3374 79.8828 16.1093ZM83.3563 15.6476V15.1958L82.0367 15.2802C81.2926 15.33 80.9551 15.5831 80.9551 16.0595C80.9551 16.5458 81.3769 16.8288 81.9571 16.8288C82.127 16.846 82.2987 16.8289 82.4619 16.7784C82.6252 16.7279 82.7765 16.645 82.9071 16.5348C83.0376 16.4246 83.1447 16.2893 83.2218 16.1369C83.299 15.9844 83.3447 15.818 83.3563 15.6476Z" fill="white"/>
<path id="Vector_18" d="M85.8193 14.9333C85.8193 13.2259 86.6971 12.1443 88.0623 12.1443C88.4 12.1287 88.7352 12.2096 89.0286 12.3775C89.322 12.5453 89.5616 12.7933 89.7193 13.0923H89.799V10.1245H90.8654V17.6374H89.8436V16.7837H89.7592C89.5893 17.0807 89.3413 17.3255 89.0422 17.4917C88.7431 17.6579 88.4042 17.7391 88.0623 17.7265C86.6877 17.7265 85.8193 16.6448 85.8193 14.9333ZM86.9209 14.9333C86.9209 16.0794 87.4612 16.7691 88.3647 16.7691C89.2635 16.7691 89.819 16.0695 89.819 14.938C89.819 13.8118 89.2577 13.1023 88.3647 13.1023C87.467 13.1023 86.9209 13.7966 86.9209 14.9333Z" fill="white"/>
<path id="Vector_19" d="M95.2777 14.9333C95.2437 14.5782 95.2843 14.2199 95.3969 13.8814C95.5095 13.5429 95.6917 13.2317 95.9316 12.9678C96.1715 12.7038 96.464 12.4929 96.7902 12.3485C97.1164 12.2042 97.4692 12.1296 97.8259 12.1296C98.1826 12.1296 98.5354 12.2042 98.8616 12.3485C99.1879 12.4929 99.4803 12.7038 99.7202 12.9678C99.9602 13.2317 100.142 13.5429 100.255 13.8814C100.368 14.2199 100.408 14.5782 100.374 14.9333C100.409 15.2888 100.369 15.6475 100.256 15.9866C100.144 16.3256 99.962 16.6374 99.722 16.9019C99.482 17.1664 99.1894 17.3777 98.8628 17.5224C98.5363 17.667 98.1831 17.7417 97.8259 17.7417C97.4688 17.7417 97.1156 17.667 96.789 17.5224C96.4625 17.3777 96.1698 17.1664 95.9298 16.9019C95.6898 16.6374 95.5078 16.3256 95.3955 15.9866C95.2832 15.6475 95.2431 15.2888 95.2777 14.9333ZM99.2773 14.9333C99.2773 13.762 98.7511 13.077 97.8277 13.077C96.9007 13.077 96.3793 13.762 96.3793 14.9333C96.3793 16.114 96.9008 16.7937 97.8277 16.7937C98.7511 16.7936 99.2773 16.1093 99.2773 14.9333Z" fill="white"/>
<path id="Vector_20" d="M101.805 12.2339H102.832V13.0923H102.911C103.047 12.784 103.275 12.5255 103.564 12.353C103.853 12.1804 104.188 12.1023 104.524 12.1296C104.787 12.1098 105.051 12.1495 105.296 12.2456C105.542 12.3417 105.763 12.4918 105.942 12.6848C106.122 12.8778 106.256 13.1088 106.334 13.3606C106.412 13.6124 106.433 13.8785 106.394 14.1393V17.6373H105.328V14.4071C105.328 13.5388 104.951 13.1069 104.162 13.1069C103.983 13.0986 103.805 13.129 103.639 13.196C103.474 13.263 103.325 13.365 103.202 13.4951C103.079 13.6251 102.986 13.7802 102.929 13.9495C102.872 14.1189 102.853 14.2986 102.872 14.4763V17.6374H101.805V12.2339Z" fill="white"/>
<path id="Vector_21" d="M112.42 10.8887V12.2586H113.591V13.1568H112.42V15.9354C112.42 16.5014 112.653 16.7492 113.184 16.7492C113.32 16.7488 113.456 16.7406 113.591 16.7246V17.6129C113.399 17.6471 113.205 17.6654 113.011 17.6674C111.825 17.6674 111.352 17.2502 111.352 16.2084V13.1568H110.495V12.2585H111.352V10.8887H112.42Z" fill="white"/>
<path id="Vector_22" d="M115.047 10.1245H116.104V13.1023H116.189C116.331 12.7911 116.565 12.5312 116.86 12.3579C117.154 12.1847 117.496 12.1066 117.836 12.1343C118.098 12.1201 118.359 12.1637 118.602 12.2622C118.845 12.3606 119.063 12.5114 119.241 12.7038C119.418 12.8962 119.551 13.1255 119.63 13.3753C119.709 13.625 119.732 13.8891 119.697 14.1487V17.6374H118.63V14.4118C118.63 13.5487 118.228 13.1116 117.474 13.1116C117.291 13.0966 117.107 13.1218 116.934 13.1854C116.762 13.2491 116.605 13.3497 116.476 13.4802C116.346 13.6107 116.246 13.7679 116.184 13.9409C116.121 14.1138 116.098 14.2984 116.114 14.4815V17.6374H115.047L115.047 10.1245Z" fill="white"/>
<path id="Vector_23" d="M125.915 16.1783C125.77 16.6722 125.456 17.0993 125.028 17.3851C124.6 17.6709 124.085 17.7971 123.574 17.7416C123.218 17.751 122.864 17.6828 122.537 17.5418C122.21 17.4007 121.918 17.1902 121.68 16.9249C121.443 16.6595 121.266 16.3456 121.162 16.005C121.058 15.6645 121.029 15.3053 121.078 14.9525C121.03 14.5987 121.059 14.2388 121.163 13.8971C121.267 13.5555 121.443 13.2402 121.679 12.9725C121.916 12.7048 122.207 12.491 122.533 12.3456C122.859 12.2001 123.212 12.1264 123.569 12.1295C125.073 12.1295 125.98 13.1567 125.98 14.8535V15.2256H122.164V15.2854C122.147 15.4836 122.172 15.6832 122.237 15.8713C122.302 16.0594 122.406 16.2319 122.541 16.3776C122.677 16.5234 122.841 16.6392 123.024 16.7177C123.207 16.7962 123.404 16.8356 123.603 16.8334C123.858 16.864 124.117 16.818 124.346 16.7014C124.574 16.5847 124.764 16.4027 124.889 16.1783L125.915 16.1783ZM122.164 14.4369H124.893C124.907 14.2556 124.882 14.0734 124.821 13.9021C124.76 13.7309 124.664 13.5743 124.538 13.4425C124.413 13.3106 124.262 13.2065 124.094 13.1367C123.926 13.0668 123.745 13.0329 123.563 13.0371C123.379 13.0348 123.196 13.0694 123.025 13.139C122.854 13.2085 122.699 13.3115 122.568 13.442C122.438 13.5724 122.335 13.7277 122.266 13.8985C122.196 14.0694 122.162 14.2525 122.164 14.4369Z" fill="white"/>
</g>
</g>
</g>
</g>
<defs>
<clipPath id="clip0_3339_777">
<rect width="143.597" height="48" fill="white" transform="translate(0.20166)"/>
</clipPath>
</defs>
</svg>
