<svg width="58" height="10" viewBox="0 0 59 10" fill="none" xmlns="http://www.w3.org/2000/svg">
<g id="status">
<path id="Vector" d="M54.8086 9.49707C54.1562 9.49707 53.5898 9.39355 53.1094 9.18652C52.6289 8.97949 52.252 8.68457 51.9785 8.30176C51.709 7.91504 51.5605 7.45605 51.5332 6.9248H52.875C52.9023 7.24121 53.0039 7.50293 53.1797 7.70996C53.3594 7.91699 53.5918 8.07129 53.877 8.17285C54.1621 8.27441 54.4707 8.3252 54.8027 8.3252C55.1738 8.3252 55.502 8.26855 55.7871 8.15527C56.0762 8.03809 56.3047 7.87402 56.4727 7.66309C56.6406 7.44824 56.7246 7.2002 56.7246 6.91895C56.7246 6.66504 56.6504 6.45801 56.502 6.29785C56.3574 6.13379 56.1602 5.99902 55.9102 5.89355C55.6641 5.78418 55.3828 5.68848 55.0664 5.60645L54.0469 5.3252C53.332 5.13379 52.7734 4.85059 52.3711 4.47559C51.9727 4.10059 51.7734 3.61426 51.7734 3.0166C51.7734 2.5127 51.9082 2.07324 52.1777 1.69824C52.4512 1.31934 52.8203 1.02637 53.2852 0.819336C53.7539 0.608398 54.2812 0.50293 54.8672 0.50293C55.4648 0.50293 55.9902 0.608398 56.4434 0.819336C56.9004 1.02637 57.2578 1.31152 57.5156 1.6748C57.7773 2.03809 57.9141 2.45215 57.9258 2.91699H56.625C56.582 2.51855 56.3965 2.20996 56.0684 1.99121C55.7441 1.77246 55.334 1.66309 54.8379 1.66309C54.4863 1.66309 54.1797 1.71777 53.918 1.82715C53.6602 1.93652 53.459 2.08887 53.3145 2.28418C53.1738 2.47559 53.1035 2.69434 53.1035 2.94043C53.1035 3.21777 53.1875 3.44238 53.3555 3.61426C53.5273 3.78223 53.7344 3.91699 53.9766 4.01855C54.2227 4.11621 54.457 4.19434 54.6797 4.25293L55.5293 4.47559C55.8066 4.5459 56.0918 4.6416 56.3848 4.7627C56.6816 4.87988 56.9551 5.03418 57.2051 5.22559C57.4551 5.41309 57.6562 5.64746 57.8086 5.92871C57.9648 6.20605 58.043 6.54199 58.043 6.93652C58.043 7.42871 57.916 7.86816 57.6621 8.25488C57.4082 8.6416 57.0391 8.94629 56.5547 9.16895C56.0742 9.3877 55.4922 9.49707 54.8086 9.49707Z" fill="#3C2F00"/>
<path id="Vector_2" d="M47.0508 9.49707C46.3984 9.49707 45.832 9.39355 45.3516 9.18652C44.8711 8.97949 44.4941 8.68457 44.2207 8.30176C43.9512 7.91504 43.8027 7.45605 43.7754 6.9248H45.1172C45.1445 7.24121 45.2461 7.50293 45.4219 7.70996C45.6016 7.91699 45.834 8.07129 46.1191 8.17285C46.4043 8.27441 46.7129 8.3252 47.0449 8.3252C47.416 8.3252 47.7441 8.26855 48.0293 8.15527C48.3184 8.03809 48.5469 7.87402 48.7148 7.66309C48.8828 7.44824 48.9668 7.2002 48.9668 6.91895C48.9668 6.66504 48.8926 6.45801 48.7441 6.29785C48.5996 6.13379 48.4023 5.99902 48.1523 5.89355C47.9062 5.78418 47.625 5.68848 47.3086 5.60645L46.2891 5.3252C45.5742 5.13379 45.0156 4.85059 44.6133 4.47559C44.2148 4.10059 44.0156 3.61426 44.0156 3.0166C44.0156 2.5127 44.1504 2.07324 44.4199 1.69824C44.6934 1.31934 45.0625 1.02637 45.5273 0.819336C45.9961 0.608398 46.5234 0.50293 47.1094 0.50293C47.707 0.50293 48.2324 0.608398 48.6855 0.819336C49.1426 1.02637 49.5 1.31152 49.7578 1.6748C50.0195 2.03809 50.1562 2.45215 50.168 2.91699H48.8672C48.8242 2.51855 48.6387 2.20996 48.3105 1.99121C47.9863 1.77246 47.5762 1.66309 47.0801 1.66309C46.7285 1.66309 46.4219 1.71777 46.1602 1.82715C45.9023 1.93652 45.7012 2.08887 45.5566 2.28418C45.416 2.47559 45.3457 2.69434 45.3457 2.94043C45.3457 3.21777 45.4297 3.44238 45.5977 3.61426C45.7695 3.78223 45.9766 3.91699 46.2188 4.01855C46.4648 4.11621 46.6992 4.19434 46.9219 4.25293L47.7715 4.47559C48.0488 4.5459 48.334 4.6416 48.627 4.7627C48.9238 4.87988 49.1973 5.03418 49.4473 5.22559C49.6973 5.41309 49.8984 5.64746 50.0508 5.92871C50.207 6.20605 50.2852 6.54199 50.2852 6.93652C50.2852 7.42871 50.1582 7.86816 49.9043 8.25488C49.6504 8.6416 49.2812 8.94629 48.7969 9.16895C48.3164 9.3877 47.7344 9.49707 47.0508 9.49707Z" fill="#3C2F00"/>
<path id="Vector_3" d="M36.8789 9.35059V0.620117H42.375V1.76855H38.2148V4.37012H42.0762V5.5127H38.2148V8.20215H42.4102V9.35059H36.8789Z" fill="#3C2F00"/>
<path id="Vector_4" d="M27.7969 9.35059V0.620117H29.3379L32.625 5.81738C32.7344 5.98926 32.8574 6.19434 32.9941 6.43262C33.1309 6.6709 33.2754 6.94043 33.4277 7.24121C33.5801 7.53809 33.7305 7.8623 33.8789 8.21387H33.7148C33.6797 7.88184 33.6523 7.55371 33.6328 7.22949C33.6172 6.90137 33.6055 6.59473 33.5977 6.30957C33.5898 6.02441 33.5859 5.78418 33.5859 5.58887V0.620117H34.9395V9.35059H33.3926L30.4453 4.7041C30.2891 4.4502 30.1348 4.19434 29.9824 3.93652C29.834 3.67871 29.668 3.38184 29.4844 3.0459C29.3047 2.70605 29.084 2.29395 28.8223 1.80957H29.0332C29.0527 2.23926 29.0723 2.6416 29.0918 3.0166C29.1113 3.3877 29.125 3.71777 29.1328 4.00684C29.1445 4.29199 29.1504 4.52051 29.1504 4.69238V9.35059H27.7969Z" fill="#3C2F00"/>
<path id="Vector_5" d="M25.8633 0.620117V9.35059H24.5273V0.620117H25.8633Z" fill="#3C2F00"/>
<path id="Vector_6" d="M19.6992 9.49707C19.0469 9.49707 18.4805 9.39355 18 9.18652C17.5195 8.97949 17.1426 8.68457 16.8691 8.30176C16.5996 7.91504 16.4512 7.45605 16.4238 6.9248H17.7656C17.793 7.24121 17.8945 7.50293 18.0703 7.70996C18.25 7.91699 18.4824 8.07129 18.7676 8.17285C19.0527 8.27441 19.3613 8.3252 19.6934 8.3252C20.0645 8.3252 20.3926 8.26855 20.6777 8.15527C20.9668 8.03809 21.1953 7.87402 21.3633 7.66309C21.5312 7.44824 21.6152 7.2002 21.6152 6.91895C21.6152 6.66504 21.541 6.45801 21.3926 6.29785C21.248 6.13379 21.0508 5.99902 20.8008 5.89355C20.5547 5.78418 20.2734 5.68848 19.957 5.60645L18.9375 5.3252C18.2227 5.13379 17.6641 4.85059 17.2617 4.47559C16.8633 4.10059 16.6641 3.61426 16.6641 3.0166C16.6641 2.5127 16.7988 2.07324 17.0684 1.69824C17.3418 1.31934 17.7109 1.02637 18.1758 0.819336C18.6445 0.608398 19.1719 0.50293 19.7578 0.50293C20.3555 0.50293 20.8809 0.608398 21.334 0.819336C21.791 1.02637 22.1484 1.31152 22.4062 1.6748C22.668 2.03809 22.8047 2.45215 22.8164 2.91699H21.5156C21.4727 2.51855 21.2871 2.20996 20.959 1.99121C20.6348 1.77246 20.2246 1.66309 19.7285 1.66309C19.377 1.66309 19.0703 1.71777 18.8086 1.82715C18.5508 1.93652 18.3496 2.08887 18.2051 2.28418C18.0645 2.47559 17.9941 2.69434 17.9941 2.94043C17.9941 3.21777 18.0781 3.44238 18.2461 3.61426C18.418 3.78223 18.625 3.91699 18.8672 4.01855C19.1133 4.11621 19.3477 4.19434 19.5703 4.25293L20.4199 4.47559C20.6973 4.5459 20.9824 4.6416 21.2754 4.7627C21.5723 4.87988 21.8457 5.03418 22.0957 5.22559C22.3457 5.41309 22.5469 5.64746 22.6992 5.92871C22.8555 6.20605 22.9336 6.54199 22.9336 6.93652C22.9336 7.42871 22.8066 7.86816 22.5527 8.25488C22.2988 8.6416 21.9297 8.94629 21.4453 9.16895C20.9648 9.3877 20.3828 9.49707 19.6992 9.49707Z" fill="#3C2F00"/>
<path id="Vector_7" d="M11.3672 9.48535C10.668 9.48535 10.0566 9.35059 9.5332 9.08105C9.00977 8.81152 8.60352 8.44238 8.31445 7.97363C8.0293 7.50098 7.88672 6.95996 7.88672 6.35059V0.620117H9.22266V6.23926C9.22266 6.63379 9.30859 6.9834 9.48047 7.28809C9.65625 7.59277 9.9043 7.83301 10.2246 8.00879C10.5449 8.18457 10.9258 8.27246 11.3672 8.27246C11.8047 8.27246 12.1816 8.18457 12.498 8.00879C12.8184 7.83301 13.0645 7.59277 13.2363 7.28809C13.4082 6.9834 13.4941 6.63379 13.4941 6.23926V0.620117H14.8359V6.35059C14.8359 6.95996 14.6914 7.50098 14.4023 7.97363C14.1172 8.44238 13.7129 8.81152 13.1895 9.08105C12.6699 9.35059 12.0625 9.48535 11.3672 9.48535Z" fill="#3C2F00"/>
<path id="Vector_8" d="M0 9.35059V0.620117H3.2168C3.83789 0.620117 4.35156 0.72168 4.75781 0.924805C5.16406 1.12793 5.4668 1.40332 5.66602 1.75098C5.86523 2.09473 5.96484 2.48145 5.96484 2.91113C5.96484 3.27441 5.89844 3.58105 5.76562 3.83105C5.63281 4.07715 5.45312 4.27637 5.22656 4.42871C5.00391 4.57715 4.75781 4.68652 4.48828 4.75684V4.84473C4.78125 4.85645 5.06641 4.9502 5.34375 5.12598C5.62109 5.29785 5.84961 5.54199 6.0293 5.8584C6.21289 6.1709 6.30469 6.55176 6.30469 7.00098C6.30469 7.44238 6.19922 7.84082 5.98828 8.19629C5.78125 8.55176 5.46094 8.83301 5.02734 9.04004C4.59375 9.24707 4.03711 9.35059 3.35742 9.35059H0ZM1.33594 8.20215H3.22266C3.84766 8.20215 4.29688 8.08105 4.57031 7.83887C4.84375 7.59668 4.98047 7.2959 4.98047 6.93652C4.98047 6.65527 4.91016 6.40137 4.76953 6.1748C4.63281 5.94824 4.4375 5.76855 4.18359 5.63574C3.92969 5.49902 3.62695 5.43066 3.27539 5.43066H1.33594V8.20215ZM1.33594 4.39941H3.08789C3.38086 4.39941 3.64648 4.34277 3.88477 4.22949C4.12305 4.11621 4.31055 3.95605 4.44727 3.74902C4.58398 3.54199 4.65234 3.2998 4.65234 3.02246C4.65234 2.66309 4.52734 2.36426 4.27734 2.12598C4.02734 1.88379 3.64258 1.7627 3.12305 1.7627H1.33594V4.39941Z" fill="#3C2F00"/>
</g>
</svg>
