<svg width="48" height="48" viewBox="0 0 48 48" fill="none" xmlns="http://www.w3.org/2000/svg">
<rect width="48" height="48" fill="#EDFBFF"/>
<path d="M19.5217 12.855C20.7094 11.6673 22.3203 11 24 11C25.6797 11 27.2906 11.6673 28.4783 12.855C29.6661 14.0427 30.3333 15.6536 30.3333 17.3333C30.3333 19.013 29.6661 20.6239 28.4783 21.8117C27.2906 22.9994 25.6797 23.6667 24 23.6667C22.3203 23.6667 20.7094 22.9994 19.5217 21.8117C18.3339 20.6239 17.6667 19.013 17.6667 17.3333C17.6667 15.6536 18.3339 14.0427 19.5217 12.855ZM24 13C22.8507 13 21.7485 13.4565 20.9359 14.2692C20.1232 15.0819 19.6667 16.1841 19.6667 17.3333C19.6667 18.4826 20.1232 19.5848 20.9359 20.3975C21.7485 21.2101 22.8507 21.6667 24 21.6667C25.1493 21.6667 26.2515 21.2101 27.0641 20.3975C27.8768 19.5848 28.3333 18.4826 28.3333 17.3333C28.3333 16.1841 27.8768 15.0819 27.0641 14.2692C26.2515 13.4565 25.1493 13 24 13ZM21.3333 29C20.1841 29 19.0819 29.4565 18.2692 30.2692C17.4565 31.0819 17 32.1841 17 33.3333V36C17 36.5523 16.5523 37 16 37C15.4477 37 15 36.5523 15 36V33.3333C15 31.6536 15.6673 30.0427 16.855 28.855C18.0427 27.6673 19.6536 27 21.3333 27H26.6667C28.3464 27 29.9573 27.6673 31.145 28.855C32.3327 30.0427 33 31.6536 33 33.3333V36C33 36.5523 32.5523 37 32 37C31.4477 37 31 36.5523 31 36V33.3333C31 32.1841 30.5435 31.0819 29.7308 30.2692C28.9181 29.4565 27.8159 29 26.6667 29H21.3333Z" fill="#618298"/>
</svg>
