<svg width="40" height="40" viewBox="0 0 40 40" fill="none" xmlns="http://www.w3.org/2000/svg">
<circle cx="20" cy="20" r="20" fill="#E5EFFF"/>
<rect x="10" y="10" width="20" height="20" rx="10" fill="white"/>
<path d="M20 10C25.523 10 30 14.4752 30 19.996C30.0021 22.6205 28.9715 25.1405 27.1309 27.0119C25.2902 28.8834 22.7871 29.9562 20.162 29.9987C17.5369 30.0412 15.0003 29.05 13.1 27.2392C11.1997 25.4283 10.088 22.943 10.005 20.3199L10 19.996L10.004 19.7162C10.152 14.3253 14.57 10 20 10ZM20 18.9964H19L18.883 19.0034C18.6399 19.0323 18.4159 19.1493 18.2534 19.3323C18.0909 19.5152 18.0011 19.7514 18.0011 19.996C18.0011 20.2407 18.0909 20.4769 18.2534 20.6598C18.4159 20.8428 18.6399 20.9598 18.883 20.9887L19 20.9957V23.9945L19.007 24.1114C19.0333 24.3345 19.1341 24.5423 19.293 24.7012C19.4519 24.86 19.6598 24.9608 19.883 24.9871L20 24.9941H21L21.117 24.9871C21.3402 24.9608 21.5481 24.86 21.707 24.7012C21.8659 24.5423 21.9667 24.3345 21.993 24.1114L22 23.9945L21.993 23.8775C21.9691 23.6736 21.8829 23.4819 21.7462 23.3287C21.6095 23.1754 21.4289 23.0679 21.229 23.0208L21.117 23.0009L21 22.9949V19.996L20.993 19.8791C20.9667 19.656 20.8659 19.4482 20.707 19.2893C20.5481 19.1305 20.3402 19.0298 20.117 19.0034L20 18.9964ZM20.01 15.9976L19.883 16.0046C19.6399 16.0335 19.4159 16.1505 19.2534 16.3335C19.0909 16.5164 19.0011 16.7526 19.0011 16.9972C19.0011 17.2419 19.0909 17.4781 19.2534 17.661C19.4159 17.8439 19.6399 17.9609 19.883 17.9898L20 17.9968L20.127 17.9898C20.37 17.9609 20.5941 17.8439 20.7566 17.661C20.9191 17.4781 21.0089 17.2419 21.0089 16.9972C21.0089 16.7526 20.9191 16.5164 20.7566 16.3335C20.5941 16.1505 20.37 16.0335 20.127 16.0046L20.01 15.9976Z" fill="white"/>
<path d="M20 10C25.523 10 30 14.4752 30 19.996C30.0021 22.6205 28.9715 25.1405 27.1309 27.0119C25.2902 28.8834 22.7871 29.9562 20.162 29.9987C17.5369 30.0412 15.0003 29.05 13.1 27.2392C11.1997 25.4283 10.088 22.943 10.005 20.3199L10 19.996L10.004 19.7162C10.152 14.3253 14.57 10 20 10ZM20 18.9964H19L18.883 19.0034C18.6399 19.0323 18.4159 19.1493 18.2534 19.3323C18.0909 19.5152 18.0011 19.7514 18.0011 19.996C18.0011 20.2407 18.0909 20.4769 18.2534 20.6598C18.4159 20.8428 18.6399 20.9598 18.883 20.9887L19 20.9957V23.9945L19.007 24.1114C19.0333 24.3345 19.1341 24.5423 19.293 24.7012C19.4519 24.86 19.6598 24.9608 19.883 24.9871L20 24.9941H21L21.117 24.9871C21.3402 24.9608 21.5481 24.86 21.707 24.7012C21.8659 24.5423 21.9667 24.3345 21.993 24.1114L22 23.9945L21.993 23.8775C21.9691 23.6736 21.8829 23.4819 21.7462 23.3287C21.6095 23.1754 21.4289 23.0679 21.229 23.0208L21.117 23.0009L21 22.9949V19.996L20.993 19.8791C20.9667 19.656 20.8659 19.4482 20.707 19.2893C20.5481 19.1305 20.3402 19.0298 20.117 19.0034L20 18.9964ZM20.01 15.9976L19.883 16.0046C19.6399 16.0335 19.4159 16.1505 19.2534 16.3335C19.0909 16.5164 19.0011 16.7526 19.0011 16.9972C19.0011 17.2419 19.0909 17.4781 19.2534 17.661C19.4159 17.8439 19.6399 17.9609 19.883 17.9898L20 17.9968L20.127 17.9898C20.37 17.9609 20.5941 17.8439 20.7566 17.661C20.9191 17.4781 21.0089 17.2419 21.0089 16.9972C21.0089 16.7526 20.9191 16.5164 20.7566 16.3335C20.5941 16.1505 20.37 16.0335 20.127 16.0046L20.01 15.9976Z" fill="#5E93E9"/>
</svg>
