<svg width="16" height="16" viewBox="0 0 16 16" fill="none" xmlns="http://www.w3.org/2000/svg">
<path d="M0 8C0 3.58172 3.58172 0 8 0C12.4183 0 16 3.58172 16 8C16 12.4183 12.4183 16 8 16C3.58172 16 0 12.4183 0 8Z" fill="#FFE0E5"/>
<path d="M6.55492 10.107L10.1613 3.89839C10.1787 3.86812 10.1879 3.83379 10.1879 3.79885C10.1879 3.7639 10.1787 3.72956 10.1614 3.69929C10.144 3.66902 10.119 3.64387 10.0888 3.62637C10.0587 3.60887 10.0246 3.59965 9.98976 3.59961H7.6645C7.60677 3.59962 7.55004 3.6148 7.49995 3.64362C7.44986 3.67245 7.40814 3.71392 7.37892 3.76394L3.64462 10.1956C3.61558 10.246 3.60022 10.3031 3.6001 10.3612C3.59998 10.4194 3.61509 10.4766 3.64392 10.527C3.67275 10.5775 3.71429 10.6194 3.76437 10.6487C3.81444 10.6779 3.87129 10.6934 3.92921 10.6936H5.55342L4.85237 11.9016C4.82328 11.952 4.80793 12.0093 4.80785 12.0675C4.80777 12.1258 4.82297 12.183 4.85192 12.2335C4.88087 12.284 4.92255 12.3259 4.97276 12.3551C5.02297 12.3842 5.07995 12.3996 5.13795 12.3996H10.9883C11.0577 12.3994 11.1258 12.3808 11.1858 12.3459C11.2458 12.3109 11.2957 12.2608 11.3304 12.2004L12.3735 10.4078C12.3909 10.3776 12.4 10.3433 12.4001 10.3085C12.4001 10.2736 12.3911 10.2393 12.3738 10.2091C12.3566 10.1788 12.3317 10.1537 12.3017 10.1361C12.2717 10.1185 12.2377 10.1092 12.203 10.109L6.55492 10.107ZM7.81225 4.18721H9.31648L5.87965 10.107H4.37344L7.81225 4.18721ZM10.8862 11.813H5.58218L6.23166 10.6946H11.5317L10.8862 11.813Z" fill="#F2385A" stroke="#F2385A" stroke-width="0.2"/>
</svg>
