<svg width="24" height="24" viewBox="0 0 24 24" fill="none" xmlns="http://www.w3.org/2000/svg">
<g id="lg/google-lg">
<path id="logo_vector" d="M5.87566 14.2951L5.10987 17.1539L2.31093 17.2131C1.47446 15.6616 1 13.8865 1 12.0002C1 10.1761 1.44361 8.45601 2.22994 6.94141H2.23054L4.72238 7.39825L5.81396 9.87514C5.58549 10.5412 5.46097 11.2562 5.46097 12.0002C5.46106 12.8077 5.60732 13.5813 5.87566 14.2951Z" fill="#FBBB00"/>
<path id="logo_vector_2" d="M22.8082 9.94531C22.9345 10.6107 23.0004 11.2979 23.0004 12.0002C23.0004 12.7878 22.9176 13.556 22.7598 14.297C22.2243 16.8185 20.8252 19.0203 18.8869 20.5784L18.8863 20.5778L15.7477 20.4177L15.3035 17.6447C16.5896 16.8904 17.5947 15.71 18.1242 14.297H12.2422V9.94531H18.21H22.8082Z" fill="#518EF8"/>
<path id="logo_vector_3" d="M18.886 20.5776L18.8866 20.5782C17.0015 22.0934 14.6068 23 12.0001 23C7.81103 23 4.16896 20.6586 2.31104 17.2129L5.87576 14.2949C6.80471 16.7741 9.1963 18.539 12.0001 18.539C13.2052 18.539 14.3343 18.2132 15.3031 17.6445L18.886 20.5776Z" fill="#28B446"/>
<path id="logo_vector_4" d="M19.0208 3.53241L15.4573 6.44981C14.4546 5.82307 13.2694 5.46101 11.9996 5.46101C9.13229 5.46101 6.69596 7.30682 5.81356 9.87493L2.23009 6.9412H2.22949C4.06022 3.41153 7.74822 1 11.9996 1C14.6686 1 17.1158 1.95073 19.0208 3.53241Z" fill="#F14336"/>
</g>
</svg>
