<svg width="162" height="48" viewBox="0 0 162 48" fill="none" xmlns="http://www.w3.org/2000/svg">
<g id="GG play button">
<g id="Group">
<path id="Vector" d="M156 48H6C2.7 48 0 45.3 0 42V6C0 2.7 2.7 0 6 0H156C159.3 0 162 2.7 162 6V42C162 45.3 159.3 48 156 48Z" fill="black"/>
</g>
<g id="Group_2">
<g id="Group_3">
<path id="Vector_2" d="M156 0.96C158.784 0.96 161.04 3.216 161.04 6V42C161.04 44.784 158.784 47.04 156 47.04H6C3.216 47.04 0.96 44.784 0.96 42V6C0.96 3.216 3.216 0.96 6 0.96H156ZM156 0H6C2.7 0 0 2.7 0 6V42C0 45.3 2.7 48 6 48H156C159.3 48 162 45.3 162 42V6C162 2.7 159.3 0 156 0Z" fill="#A6A6A6"/>
</g>
</g>
<g id="Group_4">
<path id="Vector_3" d="M56.9041 12.2881C56.9041 13.2961 56.6041 14.1001 56.0041 14.6881C55.3321 15.3961 54.4441 15.7561 53.3641 15.7561C52.3201 15.7561 51.4441 15.3961 50.7121 14.6761C49.9801 13.9561 49.6201 13.0561 49.6201 12.0001C49.6201 10.9321 49.9801 10.0441 50.7121 9.32414C51.4441 8.60414 52.3201 8.24414 53.3641 8.24414C53.8801 8.24414 54.3721 8.34014 54.8401 8.54414C55.3081 8.74814 55.6801 9.01214 55.9681 9.34814L55.3321 9.98414C54.8521 9.42014 54.2041 9.13214 53.3641 9.13214C52.6081 9.13214 51.9481 9.39614 51.3961 9.93614C50.8441 10.4641 50.5681 11.1601 50.5681 12.0121C50.5681 12.8641 50.8441 13.5601 51.3961 14.0881C51.9481 14.6161 52.6081 14.8921 53.3641 14.8921C54.1681 14.8921 54.8401 14.6281 55.3801 14.0881C55.7281 13.7401 55.9321 13.2481 55.9801 12.6241H53.3641V11.7601H56.8561C56.8801 11.9401 56.9041 12.1201 56.9041 12.2881Z" fill="white" stroke="white" stroke-width="0.2" stroke-miterlimit="10"/>
<path id="Vector_4" d="M62.4363 9.28815H59.1603V11.5681H62.1123V12.4321H59.1603V14.7121H62.4363V15.6001H58.2363V8.40015H62.4363V9.28815Z" fill="white" stroke="white" stroke-width="0.2" stroke-miterlimit="10"/>
<path id="Vector_5" d="M66.336 15.6001H65.412V9.28815H63.396V8.40015H68.34V9.28815H66.324V15.6001H66.336Z" fill="white" stroke="white" stroke-width="0.2" stroke-miterlimit="10"/>
<path id="Vector_6" d="M71.9277 15.6001V8.40015H72.8517V15.6001H71.9277Z" fill="white" stroke="white" stroke-width="0.2" stroke-miterlimit="10"/>
<path id="Vector_7" d="M76.9561 15.6001H76.0321V9.28815H74.0161V8.40015H78.9601V9.28815H76.9441V15.6001H76.9561Z" fill="white" stroke="white" stroke-width="0.2" stroke-miterlimit="10"/>
<path id="Vector_8" d="M88.3321 14.6641C87.6241 15.3961 86.7481 15.7561 85.6921 15.7561C84.6361 15.7561 83.7601 15.3961 83.0521 14.6641C82.3441 13.9321 81.9961 13.0441 81.9961 12.0001C81.9961 10.9561 82.3441 10.0561 83.0521 9.33614C83.7601 8.60414 84.6361 8.24414 85.6921 8.24414C86.7361 8.24414 87.6121 8.60414 88.3321 9.33614C89.0401 10.0681 89.4001 10.9561 89.4001 12.0001C89.3881 13.0561 89.0401 13.9441 88.3321 14.6641ZM83.7361 14.0641C84.2641 14.6041 84.9241 14.8681 85.6921 14.8681C86.4601 14.8681 87.1201 14.6041 87.6481 14.0641C88.1761 13.5241 88.4521 12.8401 88.4521 12.0001C88.4521 11.1601 88.1881 10.4761 87.6481 9.93614C87.1201 9.39614 86.4601 9.13214 85.6921 9.13214C84.9241 9.13214 84.2641 9.39614 83.7361 9.93614C83.2081 10.4761 82.9321 11.1601 82.9321 12.0001C82.9321 12.8401 83.2081 13.5241 83.7361 14.0641Z" fill="white" stroke="white" stroke-width="0.2" stroke-miterlimit="10"/>
<path id="Vector_9" d="M90.6958 15.6001V8.40015H91.8238L95.3278 14.0041H95.3638L95.3278 12.6121V8.40015H96.2518V15.6001H95.2918L91.6318 9.73215H91.5958L91.6318 11.1241V15.6001H90.6958Z" fill="white" stroke="white" stroke-width="0.2" stroke-miterlimit="10"/>
</g>
<path id="Vector_10" d="M81.768 26.1C78.948 26.1 76.6441 28.248 76.6441 31.2C76.6441 34.14 78.948 36.3 81.768 36.3C84.588 36.3 86.8921 34.14 86.8921 31.2C86.8921 28.248 84.588 26.1 81.768 26.1ZM81.768 34.296C80.22 34.296 78.888 33.024 78.888 31.2C78.888 29.364 80.22 28.104 81.768 28.104C83.316 28.104 84.648 29.364 84.648 31.2C84.648 33.024 83.304 34.296 81.768 34.296ZM70.584 26.1C67.764 26.1 65.4601 28.248 65.4601 31.2C65.4601 34.14 67.764 36.3 70.584 36.3C73.404 36.3 75.708 34.14 75.708 31.2C75.708 28.248 73.404 26.1 70.584 26.1ZM70.584 34.296C69.036 34.296 67.704 33.024 67.704 31.2C67.704 29.364 69.036 28.104 70.584 28.104C72.132 28.104 73.464 29.364 73.464 31.2C73.464 33.024 72.132 34.296 70.584 34.296ZM57.288 27.672V29.832H62.472C62.316 31.044 61.908 31.944 61.296 32.556C60.54 33.312 59.364 34.14 57.3 34.14C54.108 34.14 51.612 31.572 51.612 28.38C51.612 25.188 54.108 22.62 57.3 22.62C59.016 22.62 60.276 23.292 61.2 24.168L62.724 22.644C61.428 21.408 59.712 20.46 57.288 20.46C52.92 20.46 49.248 24.012 49.248 28.392C49.248 32.76 52.92 36.324 57.288 36.324C59.652 36.324 61.428 35.556 62.82 34.104C64.248 32.676 64.692 30.66 64.692 29.04C64.692 28.536 64.656 28.068 64.572 27.684H57.288V27.672ZM111.66 29.352C111.24 28.212 109.944 26.1 107.292 26.1C104.664 26.1 102.48 28.164 102.48 31.2C102.48 34.056 104.64 36.3 107.544 36.3C109.884 36.3 111.24 34.872 111.792 34.044L110.052 32.88C109.476 33.732 108.684 34.296 107.544 34.296C106.404 34.296 105.588 33.768 105.072 32.748L111.9 29.928L111.66 29.352ZM104.7 31.056C104.64 29.088 106.224 28.08 107.364 28.08C108.252 28.08 109.008 28.524 109.26 29.16L104.7 31.056ZM99.156 36H101.4V21H99.156V36ZM95.484 27.24H95.4C94.896 26.64 93.9361 26.1 92.7121 26.1C90.1561 26.1 87.816 28.344 87.816 31.224C87.816 34.08 90.1561 36.312 92.7121 36.312C93.924 36.312 94.896 35.772 95.4 35.148H95.472V35.88C95.472 37.836 94.428 38.88 92.748 38.88C91.38 38.88 90.528 37.896 90.18 37.068L88.224 37.884C88.788 39.24 90.276 40.896 92.748 40.896C95.376 40.896 97.5961 39.348 97.5961 35.58V26.412H95.472V27.24H95.484ZM92.904 34.296C91.356 34.296 90.0601 33 90.0601 31.224C90.0601 29.424 91.356 28.116 92.904 28.116C94.428 28.116 95.6281 29.436 95.6281 31.224C95.64 33 94.44 34.296 92.904 34.296ZM122.172 21H116.808V36H119.052V30.312H122.184C124.668 30.312 127.104 28.512 127.104 25.656C127.104 22.8 124.644 21 122.172 21ZM122.22 28.224H119.04V23.076H122.22C123.9 23.076 124.848 24.468 124.848 25.644C124.848 26.82 123.9 28.224 122.22 28.224ZM136.068 26.076C134.448 26.076 132.768 26.796 132.072 28.368L134.064 29.196C134.484 28.368 135.276 28.092 136.104 28.092C137.256 28.092 138.444 28.788 138.456 30.024V30.18C138.048 29.952 137.184 29.604 136.116 29.604C133.968 29.604 131.796 30.78 131.796 32.976C131.796 34.98 133.548 36.276 135.516 36.276C137.016 36.276 137.856 35.604 138.372 34.812H138.444V35.976H140.604V30.228C140.616 27.564 138.624 26.076 136.068 26.076ZM135.792 34.296C135.06 34.296 134.04 33.924 134.04 33.024C134.04 31.872 135.312 31.428 136.416 31.428C137.4 31.428 137.868 31.644 138.456 31.932C138.288 33.312 137.088 34.296 135.792 34.296ZM148.488 26.4L145.92 32.904H145.848L143.184 26.4H140.772L144.768 35.496L142.488 40.548H144.828L150.984 26.4H148.488ZM128.328 36H130.572V21H128.328V36Z" fill="white"/>
<g id="Group_5">
<path id="Vector_11" d="M24.8635 23.3042L12.0835 36.8642C12.0835 36.8642 12.0835 36.8642 12.0835 36.8762C12.4795 38.3522 13.8235 39.4322 15.4195 39.4322C16.0555 39.4322 16.6555 39.2642 17.1715 38.9522L17.2075 38.9282L31.5835 30.6362L24.8635 23.3042Z" fill="#EA4335"/>
<path id="Vector_12" d="M37.7872 20.9999L37.7752 20.9879L31.5712 17.3879L24.5752 23.6159L31.5952 30.6359L37.7752 27.0719C38.8552 26.4839 39.5872 25.3439 39.5872 24.0359C39.5872 22.7159 38.8552 21.5879 37.7872 20.9999Z" fill="#FBBC04"/>
<path id="Vector_13" d="M12.0844 11.136C12.0124 11.424 11.9644 11.712 11.9644 12.024V35.988C11.9644 36.3 12.0004 36.588 12.0844 36.876L25.2964 23.664L12.0844 11.136Z" fill="#4285F4"/>
<path id="Vector_14" d="M24.9595 24.0001L31.5715 17.3881L17.2075 9.06012C16.6915 8.74812 16.0795 8.56812 15.4195 8.56812C13.8235 8.56812 12.4795 9.66012 12.0835 11.1241L24.9595 24.0001Z" fill="#34A853"/>
</g>
</g>
</svg>
