<svg width="24" height="24" viewBox="0 0 24 24" fill="none" xmlns="http://www.w3.org/2000/svg">
<path d="M3.08762 18.3306L4.01374 19.9302C4.20618 20.267 4.48281 20.5316 4.80755 20.724L8.1151 14.999H1.5C1.5 15.3718 1.59622 15.7447 1.78866 16.0814L3.08762 18.3306Z" fill="#0066DA"/>
<path d="M12 8.26346L8.69241 2.53839C8.36767 2.73083 8.09104 2.99543 7.8986 3.3322L1.78866 13.9164C1.59976 14.2459 1.50025 14.619 1.5 14.9988H8.1151L12 8.26346Z" fill="#00AC47"/>
<path d="M19.1928 20.724C19.5175 20.5316 19.7942 20.267 19.9866 19.9302L20.3715 19.2687L22.2117 16.0814C22.4041 15.7447 22.5003 15.3718 22.5003 14.999H15.8848L17.2925 17.7653L19.1928 20.724Z" fill="#EA4335"/>
<path d="M12.0009 8.26372L15.3085 2.53866C14.9837 2.34622 14.6109 2.25 14.226 2.25H9.77583C9.39095 2.25 9.0181 2.35825 8.69336 2.53866L12.0009 8.26372Z" fill="#00832D"/>
<path d="M15.8839 14.999H8.11419L4.80664 20.724C5.13138 20.9165 5.50423 21.0127 5.88911 21.0127H18.109C18.4939 21.0127 18.8667 20.9044 19.1915 20.724L15.8839 14.999Z" fill="#2684FC"/>
<path d="M19.1563 8.62428L16.1014 3.3322C15.9089 2.99543 15.6323 2.73083 15.3075 2.53839L12 8.26346L15.8849 14.9988H22.4879C22.4879 14.626 22.3917 14.2531 22.1993 13.9164L19.1563 8.62428Z" fill="#FFBA00"/>
</svg>
