<svg width="24" height="24" viewBox="0 0 24 24" fill="none" xmlns="http://www.w3.org/2000/svg">
<g clip-path="url(#clip0_1443_24)">
<path d="M8.0586 17.7474L17.8942 0.814848C17.9416 0.732307 17.9666 0.638681 17.9667 0.543371C17.9667 0.448061 17.9417 0.354422 17.8943 0.271857C17.8469 0.189292 17.7787 0.120706 17.6966 0.072988C17.6144 0.0252696 17.5212 9.77023e-05 17.4264 0L11.0847 0C10.9273 4.19189e-05 10.7726 0.0414212 10.636 0.120035C10.4993 0.198648 10.3856 0.311764 10.3059 0.448167L0.121434 17.9891C0.0422167 18.1264 0.000338277 18.2822 2.04078e-06 18.4408C-0.000334195 18.5995 0.0408836 18.7554 0.119519 18.893C0.198154 19.0306 0.311439 19.145 0.448006 19.2247C0.584572 19.3045 0.739615 19.3467 0.897573 19.3472H5.32724L3.41529 22.6419C3.33596 22.7794 3.29408 22.9354 3.29386 23.0943C3.29364 23.2532 3.3351 23.4093 3.41405 23.547C3.49301 23.6846 3.60668 23.799 3.74362 23.8785C3.88056 23.9581 4.03595 24 4.19413 24H20.1496C20.3388 23.9993 20.5246 23.9488 20.6883 23.8535C20.852 23.7582 20.988 23.6214 21.0826 23.4568L23.9275 18.5677C23.9749 18.4853 23.9999 18.392 24 18.2969C24.0001 18.2018 23.9754 18.1083 23.9284 18.0259C23.8813 17.9434 23.8134 17.8747 23.7317 17.8268C23.6499 17.7789 23.5571 17.7534 23.4624 17.7528L8.0586 17.7474ZM11.4877 1.60254H15.5901L6.21696 17.7474H2.10911L11.4877 1.60254ZM19.8711 22.4002H5.40567L7.177 19.3499H21.6316L19.8711 22.4002Z" fill="#F2385A"/>
</g>
<defs>
<clipPath id="clip0_1443_24">
<rect width="24" height="24" fill="white"/>
</clipPath>
</defs>
</svg>
