<svg width="14" height="14" viewBox="0 0 14 14" fill="none" xmlns="http://www.w3.org/2000/svg">
<g id="Logo/GoogleDrive">
<path id="logo_vector" d="M1.05842 11.3037L1.67583 12.3702C1.80412 12.5947 1.98854 12.7711 2.20503 12.8994L4.41007 9.08265H0C0 9.33122 0.0641465 9.57979 0.192439 9.8043L1.05842 11.3037Z" fill="#0066DA"/>
<path id="logo_vector_2" d="M6.99998 4.59231L4.79495 0.775593C4.57845 0.903886 4.39403 1.08029 4.26574 1.3048L0.192439 8.36091C0.0665059 8.58058 0.000167673 8.82935 0 9.08256H4.41007L6.99998 4.59231Z" fill="#00AC47"/>
<path id="logo_vector_3" d="M11.795 12.8994C12.0114 12.7711 12.1959 12.5947 12.3242 12.3702L12.5807 11.9292L13.8075 9.8043C13.9358 9.57979 14 9.33122 14 9.08265H9.5896L10.5281 10.9269L11.795 12.8994Z" fill="#EA4335"/>
<path id="logo_vector_4" d="M7.00008 4.59248L9.20511 0.775771C8.98862 0.647479 8.74005 0.583332 8.48346 0.583332H5.51669C5.26011 0.583332 5.01154 0.655497 4.79504 0.775771L7.00008 4.59248Z" fill="#00832D"/>
<path id="logo_vector_5" d="M9.58994 9.08265H4.41011L2.20508 12.8994C2.42157 13.0277 2.67014 13.0918 2.92673 13.0918H11.0733C11.3299 13.0918 11.5785 13.0196 11.795 12.8994L9.58994 9.08265Z" fill="#2684FC"/>
<path id="logo_vector_6" d="M11.771 4.83285L9.73436 1.3048C9.60607 1.08029 9.42165 0.903886 9.20516 0.775593L7.00012 4.59231L9.59003 9.08256H13.9921C13.9921 8.83399 13.9279 8.58542 13.7996 8.36091L11.771 4.83285Z" fill="#FFBA00"/>
</g>
</svg>
