<svg width="56" height="56" viewBox="0 0 56 56" fill="none" xmlns="http://www.w3.org/2000/svg">
<path d="M21.1026 38.0579L38.3149 8.42598C38.3979 8.28154 38.4416 8.11769 38.4417 7.9509C38.4417 7.78411 38.3981 7.62024 38.3151 7.47575C38.2321 7.33126 38.1128 7.21124 37.969 7.12773C37.8253 7.04422 37.6622 7.00017 37.4961 7H26.3983C26.1227 7.00007 25.852 7.07249 25.6129 7.21006C25.3738 7.34763 25.1747 7.54559 25.0353 7.78429L7.21251 38.481C7.07388 38.7212 7.00059 38.9938 7 39.2714C6.99942 39.5491 7.07155 39.822 7.20916 40.0628C7.34677 40.3036 7.54502 40.5038 7.78401 40.6433C8.023 40.7828 8.29433 40.8567 8.57075 40.8576H16.3227L12.9768 46.6234C12.8379 46.8639 12.7646 47.1369 12.7643 47.415C12.7639 47.693 12.8364 47.9663 12.9746 48.2072C13.1128 48.4481 13.3117 48.6482 13.5513 48.7874C13.791 48.9266 14.0629 48.9999 14.3397 49H42.2618C42.593 48.9988 42.918 48.9104 43.2045 48.7436C43.491 48.5768 43.729 48.3374 43.8945 48.0493L48.8732 39.4934C48.956 39.3493 48.9997 39.1859 49 39.0195C49.0002 38.8531 48.957 38.6896 48.8746 38.5452C48.7922 38.4009 48.6735 38.2808 48.5304 38.197C48.3873 38.1131 48.2248 38.0685 48.0592 38.0675L21.1026 38.0579ZM27.1034 9.80444H34.2827L17.8797 38.0579H10.6909L27.1034 9.80444ZM41.7743 46.2003H16.4599L19.5597 40.8624H44.8552L41.7743 46.2003Z" fill="#9EB6C7"/>
</svg>
