<svg width="24" height="24" viewBox="0 0 24 24" fill="none" xmlns="http://www.w3.org/2000/svg">
<path d="M0 4C0 1.79086 1.79086 0 4 0H20C22.2091 0 24 1.79086 24 4V20C24 22.2091 22.2091 24 20 24H4C1.79086 24 0 22.2091 0 20V4Z" fill="#F2385A"/>
<g clip-path="url(#clip0_4982_14805)">
<path d="M10.0293 14.8737L14.9471 6.40742C14.9708 6.36615 14.9833 6.31934 14.9833 6.27169C14.9833 6.22403 14.9709 6.17721 14.9472 6.13593C14.9235 6.09465 14.8894 6.06035 14.8483 6.03649C14.8072 6.01263 14.7606 6.00005 14.7132 6H11.5424C11.4636 6.00002 11.3863 6.02071 11.318 6.06002C11.2497 6.09932 11.1928 6.15588 11.1529 6.22408L6.06072 14.9946C6.02111 15.0632 6.00017 15.1411 6 15.2204C5.99983 15.2997 6.02044 15.3777 6.05976 15.4465C6.09908 15.5153 6.15572 15.5725 6.224 15.6124C6.29229 15.6522 6.36981 15.6733 6.44879 15.6736H8.66362L7.70765 17.321C7.66798 17.3897 7.64704 17.4677 7.64693 17.5471C7.64682 17.6266 7.66755 17.7046 7.70703 17.7735C7.7465 17.8423 7.80334 17.8995 7.87181 17.9393C7.94028 17.979 8.01797 18 8.09707 18H16.0748C16.1694 17.9997 16.2623 17.9744 16.3442 17.9267C16.426 17.8791 16.494 17.8107 16.5413 17.7284L17.9638 15.2838C17.9874 15.2427 17.9999 15.196 18 15.1484C18.0001 15.1009 17.9877 15.0542 17.9642 15.0129C17.9406 14.9717 17.9067 14.9374 17.8658 14.9134C17.825 14.8895 17.7785 14.8767 17.7312 14.8764L10.0293 14.8737ZM11.7438 6.80127H13.7951L9.10848 14.8737H7.05455L11.7438 6.80127ZM15.9355 17.2001H8.70283L9.5885 15.675H16.8158L15.9355 17.2001Z" fill="white"/>
</g>
<defs>
<clipPath id="clip0_4982_14805">
<rect width="12" height="12" fill="white" transform="translate(6 6)"/>
</clipPath>
</defs>
</svg>
