<svg width="16" height="16" viewBox="0 0 16 16" fill="none" xmlns="http://www.w3.org/2000/svg">
<path d="M0 1.33333C0 0.596953 0.596954 0 1.33333 0H14.6667C15.403 0 16 0.596954 16 1.33333V14.6667C16 15.403 15.403 16 14.6667 16H1.33333C0.596953 16 0 15.403 0 14.6667V1.33333Z" fill="#FBECE9"/>
<g clip-path="url(#clip0_8098_43743)">
<path d="M6.6862 9.9158L9.96473 4.27162C9.98055 4.2441 9.98888 4.21289 9.98889 4.18112C9.9889 4.14935 9.98058 4.11814 9.96478 4.09062C9.94898 4.0631 9.92625 4.04024 9.89886 4.02433C9.87148 4.00842 9.84042 4.00003 9.80878 4H7.69491C7.64243 4.00001 7.59086 4.01381 7.54532 4.04001C7.49978 4.06622 7.46185 4.10392 7.4353 4.14939L4.04048 9.99638C4.01407 10.0421 4.00011 10.0941 4 10.1469C3.99989 10.1998 4.01363 10.2518 4.03984 10.2977C4.06605 10.3435 4.10381 10.3817 4.14934 10.4082C4.19486 10.4348 4.24654 10.4489 4.29919 10.4491H5.77575L5.13843 11.5473C5.11199 11.5931 5.09803 11.6451 5.09795 11.6981C5.09788 11.7511 5.1117 11.8031 5.13802 11.849C5.16434 11.8949 5.20223 11.933 5.24787 11.9595C5.29352 11.986 5.34532 12 5.39804 12H10.7165C10.7796 11.9998 10.8415 11.9829 10.8961 11.9512C10.9507 11.9194 10.996 11.8738 11.0275 11.8189L11.9758 10.1892C11.9916 10.1618 12 10.1307 12 10.099C12 10.0673 11.9918 10.0361 11.9761 10.0086C11.9604 9.98112 11.9378 9.95825 11.9106 9.94228C11.8833 9.92631 11.8524 9.9178 11.8208 9.91761L6.6862 9.9158ZM7.82923 4.53418H9.19671L6.07232 9.9158H4.70304L7.82923 4.53418ZM10.6237 11.4667H5.80189L6.39233 10.45H11.2105L10.6237 11.4667Z" fill="#F2385A"/>
</g>
<defs>
<clipPath id="clip0_8098_43743">
<rect width="8" height="8" fill="white" transform="translate(4 4)"/>
</clipPath>
</defs>
</svg>
