<svg width="20" height="20" viewBox="0 0 20 20" fill="none" xmlns="http://www.w3.org/2000/svg">
<path d="M11.4598 9.46976L14.9688 8.38282C14.2828 5.73853 11.5582 4.14465 8.88325 4.8228C7.67864 5.12819 6.63238 5.86638 5.94868 6.89327C5.9998 6.89199 11.4598 9.46976 11.4598 9.46976Z" fill="#0364B8"/>
<path d="M8.10112 7.48102L8.10096 7.48155C7.4699 7.09518 6.74212 6.89096 5.99982 6.89196C5.98267 6.89196 5.9658 6.89307 5.94868 6.89327C3.74072 6.92031 1.97297 8.71159 2.00031 10.8943C2.01022 11.686 2.26048 12.4565 2.71864 13.106L11.4598 9.46976L8.10112 7.48102Z" fill="#0078D4"/>
<path d="M14.9688 8.38282C14.8962 8.37803 14.8233 8.37473 14.7495 8.37473C14.3065 8.3743 13.868 8.46376 13.4613 8.63757L11.4598 9.46976L17.6107 13.1118C18.4619 11.5497 17.8709 9.60122 16.2906 8.75976C15.8823 8.54233 15.4316 8.41379 14.9688 8.38282Z" fill="#1490DF"/>
<path d="M2.71864 13.106C3.46571 14.1678 4.69144 14.8006 5.99982 14.8H14.7494C15.9447 14.8003 17.0436 14.1519 17.6107 13.1118L11.4598 9.46976L2.71864 13.106Z" fill="#28A8EA"/>
</svg>
