<svg width="24" height="24" viewBox="0 0 24 24" fill="none" xmlns="http://www.w3.org/2000/svg">
<path d="M0 4C0 1.79086 1.79086 0 4 0H20C22.2091 0 24 1.79086 24 4V20C24 22.2091 22.2091 24 20 24H4C1.79086 24 0 22.2091 0 20V4Z" fill="#786EFF"/>
<g clip-path="url(#clip0_4994_14978)">
<path d="M11.5409 17.9975C11.2868 18.0085 11.0346 17.9498 10.8115 17.8278C10.5885 17.7057 10.4031 17.5249 10.2754 17.305C9.7323 16.3695 10.1071 14.641 11.3128 12.3993H6.40029C6.32994 12.3993 6.26083 12.3807 6.19994 12.3454C6.13904 12.3102 6.0885 12.2595 6.0534 12.1986C6.0183 12.1376 5.99989 12.0685 6 11.9981C6.00012 11.9277 6.01876 11.8587 6.05406 11.7978C8.37995 7.79232 10.9421 6.00004 12.4492 6.00004C12.7031 5.98923 12.955 6.04803 13.1778 6.17009C13.4006 6.29214 13.5858 6.4728 13.7133 6.69251C14.2565 7.62939 13.8817 9.35785 12.676 11.5982H17.5912C17.6615 11.5982 17.7306 11.6168 17.7915 11.6521C17.8524 11.6873 17.903 11.738 17.9381 11.7989C17.9732 11.8599 17.9916 11.929 17.9915 11.9994C17.9914 12.0698 17.9727 12.1388 17.9374 12.1997C15.6142 16.2065 13.0562 17.9975 11.5409 17.9975ZM12.2198 12.3993C10.824 14.88 10.6529 16.3518 10.972 16.9044C11.0426 17.0294 11.1797 17.1936 11.5436 17.195C12.7452 17.195 14.9163 15.5521 16.8838 12.3979L12.2198 12.3993ZM7.09955 11.5982H11.7568C13.1702 9.11752 13.3427 7.64704 13.0249 7.0917C12.953 6.96814 12.8158 6.80249 12.452 6.80114C11.2462 6.80114 9.07649 8.44542 7.10906 11.5982H7.09955Z" fill="white"/>
</g>
<defs>
<clipPath id="clip0_4994_14978">
<rect width="12" height="12" fill="white" transform="translate(6 6)"/>
</clipPath>
</defs>
</svg>
