<svg width="12" height="12" viewBox="0 0 12 12" fill="none" xmlns="http://www.w3.org/2000/svg">
<g clip-path="url(#clip0_9338_34996)">
<path d="M5.54112 11.9975C5.28708 12.0085 5.03485 11.9498 4.81178 11.8278C4.58871 11.7057 4.40331 11.5249 4.27566 11.305C3.73255 10.3695 4.1073 8.64101 5.31301 6.3993H0.400536C0.33018 6.39925 0.261078 6.38068 0.200182 6.34544C0.139286 6.3102 0.0887461 6.25955 0.0536474 6.19857C0.0185487 6.1376 0.000130113 6.06845 0.000244672 5.9981C0.00035923 5.92774 0.0190029 5.85866 0.0543 5.7978C2.38019 1.79232 4.94234 4.12444e-05 6.44948 4.12444e-05C6.7033 -0.0107686 6.95524 0.0480345 7.17805 0.170088C7.40086 0.292142 7.58605 0.472799 7.71358 0.692514C8.2567 1.62939 7.88195 3.35785 6.67623 5.5982H11.5914C11.6618 5.59825 11.7309 5.61682 11.7918 5.65206C11.8527 5.6873 11.9032 5.73795 11.9383 5.79893C11.9734 5.8599 11.9918 5.92905 11.9917 5.9994C11.9916 6.06976 11.973 6.13884 11.9377 6.1997C9.61449 10.2065 7.05642 11.9975 5.54112 11.9975ZM6.22002 6.3993C4.82421 8.87998 4.65313 10.3518 4.97221 10.9044C5.04281 11.0294 5.17995 11.1936 5.54384 11.195C6.74548 11.195 8.91659 9.55208 10.884 6.39794L6.22002 6.3993ZM1.0998 5.5982H5.75701C7.17047 3.11752 7.34291 1.64704 7.02519 1.0917C6.95322 0.968145 6.81609 0.802494 6.4522 0.801137C5.24648 0.801137 3.07674 2.44542 1.1093 5.5982H1.0998Z" fill="#786EFF"/>
</g>
<defs>
<clipPath id="clip0_9338_34996">
<rect width="12" height="12" fill="white"/>
</clipPath>
</defs>
</svg>
