<svg width="16" height="16" viewBox="0 0 16 16" fill="none" xmlns="http://www.w3.org/2000/svg">
<path d="M0 1.33333C0 0.596953 0.596954 0 1.33333 0H14.6667C15.403 0 16 0.596954 16 1.33333V14.6667C16 15.403 15.403 16 14.6667 16H1.33333C0.596953 16 0 15.403 0 14.6667V1.33333Z" fill="#E3E0FF"/>
<g clip-path="url(#clip0_8098_43746)">
<path d="M7.69422 11.9984C7.52486 12.0058 7.35671 11.9666 7.208 11.8853C7.05929 11.8039 6.93568 11.6834 6.85059 11.5367C6.48851 10.9131 6.73834 9.76075 7.54215 8.26628H4.26717C4.22026 8.26625 4.17419 8.25387 4.1336 8.23038C4.093 8.20688 4.05931 8.17311 4.03591 8.13246C4.01251 8.09181 4.00023 8.04572 4.00031 7.99881C4.00038 7.95191 4.01281 7.90585 4.03634 7.86528C5.58694 5.19496 7.29504 4.00011 8.2998 4.00011C8.46901 3.9929 8.63697 4.0321 8.78551 4.11347C8.93405 4.19484 9.05751 4.31528 9.14253 4.46176C9.50461 5.08634 9.25478 6.23865 8.45097 7.73222H11.7278C11.7747 7.73225 11.8207 7.74463 11.8613 7.76812C11.9019 7.79161 11.9356 7.82538 11.959 7.86603C11.9824 7.90668 11.9947 7.95278 11.9946 7.99968C11.9945 8.04659 11.9821 8.09264 11.9586 8.13322C10.4098 10.8044 8.70442 11.9984 7.69422 11.9984ZM8.14682 8.26628C7.21628 9.92007 7.10223 10.9013 7.31495 11.2697C7.36202 11.353 7.45344 11.4625 7.69603 11.4634C8.49713 11.4634 9.94453 10.3681 11.2562 8.26537L8.14682 8.26628ZM4.73334 7.73222H7.83815C8.78046 6.07843 8.89541 5.09811 8.6836 4.72788C8.63562 4.64551 8.5442 4.53508 8.30161 4.53417C7.4978 4.53417 6.0513 5.63036 4.73968 7.73222H4.73334Z" fill="#786EFF"/>
</g>
<defs>
<clipPath id="clip0_8098_43746">
<rect width="8" height="8" fill="white" transform="translate(4 4)"/>
</clipPath>
</defs>
</svg>
