<svg width="118" height="32" viewBox="0 0 118 32" fill="none" xmlns="http://www.w3.org/2000/svg">
<g clip-path="url(#clip0_3248_15755)">
<path d="M51.4937 28.58H42.4844V12.364C42.4844 12.2307 42.3777 12.1227 42.2431 12.1227H39.4804C39.3457 12.1227 39.2391 12.2293 39.2391 12.364V31.408C39.2391 31.5427 39.3457 31.6507 39.4791 31.6507H51.4924C51.6257 31.6507 51.7324 31.544 51.7324 31.408V28.8213C51.7324 28.688 51.6257 28.58 51.4924 28.58H51.4937ZM66.5071 17.8587H63.9871C63.8537 17.8587 63.7471 17.9653 63.7471 18.1013V25.5347C63.7471 28.2013 62.2711 29.172 60.3951 29.172C58.5177 29.172 57.0431 28.2013 57.0431 25.5347V18.1013C57.0431 17.9667 56.9364 17.8587 56.8017 17.8587H54.2817C54.1484 17.8587 54.0404 17.9653 54.0404 18.1013V25.8053C54.0404 30.196 57.1764 32 60.3951 32C63.6124 32 66.7497 30.1947 66.7497 25.8053V18.1013C66.7497 17.9667 66.6431 17.8587 66.5084 17.8587H66.5071ZM87.8777 17.508C86.1617 17.508 84.0431 17.9933 82.8644 19.96C81.9257 18.424 80.2097 17.508 78.1177 17.508C76.7231 17.508 75.0071 17.912 73.9084 19.556V18.1013C73.9084 17.9667 73.8017 17.8587 73.6671 17.8587H71.1737C71.0404 17.8587 70.9324 17.9653 70.9324 18.1013V31.408C70.9324 31.5413 71.0391 31.6493 71.1724 31.6493H73.6937C73.8271 31.6493 73.9351 31.5427 73.9351 31.408V24C73.9351 21.6293 75.5444 20.364 77.5017 20.364C79.5124 20.364 80.6924 21.6573 80.6924 23.9733V31.4067C80.6924 31.5427 80.7991 31.6493 80.9324 31.6493H83.4537C83.5871 31.6493 83.6951 31.5427 83.6951 31.408V24C83.6951 21.6293 85.3044 20.364 87.2337 20.364C89.2458 20.364 90.4257 21.6573 90.4257 23.9733V31.4067C90.4257 31.5427 90.5324 31.6493 90.6657 31.6493H93.1857C93.3204 31.6493 93.4284 31.5427 93.4284 31.408V22.976C93.4551 19.7707 91.1484 17.5093 87.8777 17.5093V17.508ZM100.48 17.8587H97.9604C97.8257 17.8587 97.7191 17.9653 97.7191 18.1013V31.408C97.7191 31.5413 97.8257 31.6493 97.9591 31.6493H100.479C100.614 31.6493 100.722 31.5427 100.722 31.408V18.1013C100.722 17.9667 100.615 17.8587 100.48 17.8587ZM112.116 17.508C110.722 17.508 109.006 17.912 107.907 19.556V18.1013C107.907 17.9667 107.8 17.8587 107.666 17.8587H105.172C105.039 17.8587 104.931 17.9653 104.931 18.1013V31.408C104.931 31.5413 105.038 31.6493 105.171 31.6493H107.692C107.826 31.6493 107.934 31.5427 107.934 31.408V24C107.934 21.6293 109.543 20.364 111.472 20.364C113.484 20.364 114.664 21.6573 114.664 23.9733V31.4067C114.664 31.5427 114.771 31.6493 114.904 31.6493H117.424C117.559 31.6493 117.667 31.5427 117.667 31.408V22.976C117.694 19.7707 115.387 17.5093 112.116 17.5093V17.508ZM102.008 12.12H99.7817C99.5951 12.12 99.4084 12.2293 99.3271 12.3907L97.9324 14.788C97.8524 14.9493 97.9591 15.1387 98.1471 15.1387H100.427C100.614 15.1387 100.8 15.0307 100.882 14.8693L102.25 12.5253C102.356 12.364 102.223 12.1213 102.008 12.1213V12.12ZM26.5311 29.5493H7.46707L9.8004 25.536H28.8631L26.5297 29.5493H26.5311ZM3.12174 23.4067L15.4817 2.128H20.8991L8.53774 23.408H3.12307L3.12174 23.4067ZM31.2751 23.4067H10.9524L23.9297 1.07733C24.1977 0.592 23.8764 0 23.3124 0H14.9471C14.5177 0 14.1431 0.216 13.9284 0.592L0.495071 23.7307C0.0390707 24.5387 0.601737 25.536 1.51374 25.536H7.3604L4.8404 29.872C4.3844 30.68 4.94707 31.6773 5.85907 31.6773H26.9071C27.4164 31.6773 27.8724 31.4067 28.1404 30.976L31.8937 24.512C32.1897 24 31.8404 23.4067 31.2777 23.4067H31.2751Z" fill="#F2385A"/>
</g>
<defs>
<clipPath id="clip0_3248_15755">
<rect width="117.333" height="32" fill="white" transform="translate(0.333496)"/>
</clipPath>
</defs>
</svg>
