<svg width="24" height="24" viewBox="0 0 24 24" fill="none" xmlns="http://www.w3.org/2000/svg">
<path d="M14.0529 11.6294L18.9875 10.1009C18.0228 6.38231 14.1913 4.14091 10.4296 5.09457C8.73562 5.52402 7.26431 6.5621 6.30286 8.00616C6.37474 8.00437 14.0529 11.6294 14.0529 11.6294Z" fill="#0364B8"/>
<path d="M9.32973 8.83269L9.32951 8.83345C8.44208 8.29011 7.41863 8.00292 6.37476 8.00432C6.35065 8.00432 6.32693 8.00588 6.30286 8.00616C3.19789 8.04419 0.711995 10.5632 0.75044 13.6326C0.764376 14.746 1.1163 15.8296 1.76058 16.7429L14.0529 11.6294L9.32973 8.83269Z" fill="#0078D4"/>
<path d="M18.9875 10.1009C18.8854 10.0941 18.7829 10.0895 18.6791 10.0895C18.056 10.0889 17.4394 10.2147 16.8676 10.4591L14.0529 11.6294L22.7026 16.751C23.8996 14.5543 23.0685 11.8142 20.8463 10.6309C20.2721 10.3252 19.6382 10.1444 18.9875 10.1009Z" fill="#1490DF"/>
<path d="M1.76058 16.7429C2.81116 18.2361 4.53486 19.126 6.37476 19.125H18.679C20.3598 19.1255 21.9052 18.2137 22.7026 16.751L14.0529 11.6294L1.76058 16.7429Z" fill="#28A8EA"/>
</svg>
