<svg width="56" height="56" viewBox="0 0 56 56" fill="none" xmlns="http://www.w3.org/2000/svg">
<path d="M5.25 18.6667C5.25 17.7002 6.0335 16.9167 7 16.9167H11.6667C13.3685 16.9167 15.0006 17.5927 16.2039 18.7961C17.4073 19.9994 18.0833 21.6315 18.0833 23.3334C18.0833 25.0352 17.4073 26.6673 16.2039 27.8706C15.0006 29.074 13.3685 29.75 11.6667 29.75H8.75V37.3334C8.75 38.2999 7.9665 39.0834 7 39.0834C6.0335 39.0834 5.25 38.2999 5.25 37.3334V18.6667ZM8.75 26.25H11.6667C12.4402 26.25 13.1821 25.9427 13.7291 25.3957C14.276 24.8488 14.5833 24.1069 14.5833 23.3334C14.5833 22.5598 14.276 21.8179 13.7291 21.271C13.1821 20.724 12.4402 20.4167 11.6667 20.4167H8.75V26.25ZM21.5833 18.6667C21.5833 17.7002 22.3668 16.9167 23.3333 16.9167H28C29.7018 16.9167 31.3339 17.5927 32.5373 18.7961C33.7406 19.9994 34.4167 21.6315 34.4167 23.3334V32.6667C34.4167 34.3685 33.7406 36.0006 32.5373 37.204C31.3339 38.4073 29.7018 39.0834 28 39.0834H23.3333C22.3668 39.0834 21.5833 38.2999 21.5833 37.3334V18.6667ZM25.0833 20.4167V35.5834H28C28.7735 35.5834 29.5154 35.2761 30.0624 34.7291C30.6094 34.1821 30.9167 33.4402 30.9167 32.6667V23.3334C30.9167 22.5598 30.6094 21.8179 30.0624 21.271C29.5154 20.724 28.7735 20.4167 28 20.4167H25.0833ZM37.9167 18.6667C37.9167 17.7002 38.7002 16.9167 39.6667 16.9167H49C49.9665 16.9167 50.75 17.7002 50.75 18.6667C50.75 19.6332 49.9665 20.4167 49 20.4167H41.4167V26.25H46.6667C47.6332 26.25 48.4167 27.0335 48.4167 28C48.4167 28.9665 47.6332 29.75 46.6667 29.75H41.4167V37.3334C41.4167 38.2999 40.6332 39.0834 39.6667 39.0834C38.7002 39.0834 37.9167 38.2999 37.9167 37.3334V18.6667Z" fill="#9EB6C7"/>
</svg>
