<svg width="18" height="18" viewBox="0 0 18 18" fill="none" xmlns="http://www.w3.org/2000/svg">
<path d="M1.6875 6C1.6875 5.68934 1.93934 5.4375 2.25 5.4375H3.75C4.29701 5.4375 4.82161 5.6548 5.20841 6.04159C5.5952 6.42839 5.8125 6.95299 5.8125 7.5C5.8125 8.04701 5.5952 8.57161 5.20841 8.95841C4.82161 9.3452 4.29701 9.5625 3.75 9.5625H2.8125V12C2.8125 12.3107 2.56066 12.5625 2.25 12.5625C1.93934 12.5625 1.6875 12.3107 1.6875 12V6ZM2.8125 8.4375H3.75C3.99864 8.4375 4.2371 8.33873 4.41291 8.16291C4.58873 7.9871 4.6875 7.74864 4.6875 7.5C4.6875 7.25136 4.58873 7.0129 4.41291 6.83709C4.2371 6.66127 3.99864 6.5625 3.75 6.5625H2.8125V8.4375ZM6.9375 6C6.9375 5.68934 7.18934 5.4375 7.5 5.4375H9C9.54701 5.4375 10.0716 5.6548 10.4584 6.04159C10.8452 6.42839 11.0625 6.95299 11.0625 7.5V10.5C11.0625 11.047 10.8452 11.5716 10.4584 11.9584C10.0716 12.3452 9.54701 12.5625 9 12.5625H7.5C7.18934 12.5625 6.9375 12.3107 6.9375 12V6ZM8.0625 6.5625V11.4375H9C9.24864 11.4375 9.4871 11.3387 9.66291 11.1629C9.83873 10.9871 9.9375 10.7486 9.9375 10.5V7.5C9.9375 7.25136 9.83873 7.0129 9.66291 6.83709C9.4871 6.66127 9.24864 6.5625 9 6.5625H8.0625ZM12.1875 6C12.1875 5.68934 12.4393 5.4375 12.75 5.4375H15.75C16.0607 5.4375 16.3125 5.68934 16.3125 6C16.3125 6.31066 16.0607 6.5625 15.75 6.5625H13.3125V8.4375H15C15.3107 8.4375 15.5625 8.68934 15.5625 9C15.5625 9.31066 15.3107 9.5625 15 9.5625H13.3125V12C13.3125 12.3107 13.0607 12.5625 12.75 12.5625C12.4393 12.5625 12.1875 12.3107 12.1875 12V6Z" fill="#192833"/>
</svg>
