<svg width="24" height="24" viewBox="0 0 24 24" fill="none" xmlns="http://www.w3.org/2000/svg">
<path d="M5.61518 14.4448C5.61518 15.6653 4.62872 16.6518 3.40818 16.6518C2.18764 16.6518 1.20117 15.6653 1.20117 14.4448C1.20117 13.2242 2.18764 12.2378 3.40818 12.2378H5.61518V14.4448ZM6.71869 14.4448C6.71869 13.2242 7.70515 12.2378 8.92569 12.2378C10.1462 12.2378 11.1327 13.2242 11.1327 14.4448V19.9623C11.1327 21.1828 10.1462 22.1693 8.92569 22.1693C7.70515 22.1693 6.71869 21.1828 6.71869 19.9623V14.4448Z" fill="#E01E5A"/>
<path d="M8.92581 5.58332C7.70527 5.58332 6.7188 4.59686 6.7188 3.37632C6.7188 2.15578 7.70527 1.16931 8.92581 1.16931C10.1464 1.16931 11.1328 2.15578 11.1328 3.37632V5.58332H8.92581ZM8.92581 6.70355C10.1464 6.70355 11.1328 7.69001 11.1328 8.91055C11.1328 10.1311 10.1464 11.1176 8.92581 11.1176H3.39158C2.17104 11.1176 1.18457 10.1311 1.18457 8.91055C1.18457 7.69001 2.17104 6.70355 3.39158 6.70355H8.92581Z" fill="#36C5F0"/>
<path d="M17.7707 8.91054C17.7707 7.69 18.7572 6.70353 19.9777 6.70353C21.1982 6.70353 22.1847 7.69 22.1847 8.91054C22.1847 10.1311 21.1982 11.1175 19.9777 11.1175H17.7707V8.91054ZM16.6672 8.91054C16.6672 10.1311 15.6807 11.1175 14.4602 11.1175C13.2396 11.1175 12.2532 10.1311 12.2532 8.91054V3.3763C12.2532 2.15576 13.2396 1.1693 14.4602 1.1693C15.6807 1.1693 16.6672 2.15576 16.6672 3.3763V8.91054Z" fill="#2EB67D"/>
<path d="M14.4602 17.7553C15.6807 17.7553 16.6672 18.7417 16.6672 19.9623C16.6672 21.1828 15.6807 22.1693 14.4602 22.1693C13.2396 22.1693 12.2532 21.1828 12.2532 19.9623V17.7553H14.4602ZM14.4602 16.6518C13.2396 16.6518 12.2532 15.6653 12.2532 14.4448C12.2532 13.2242 13.2396 12.2378 14.4602 12.2378H19.9944C21.215 12.2378 22.2014 13.2242 22.2014 14.4448C22.2014 15.6653 21.215 16.6518 19.9944 16.6518H14.4602Z" fill="#ECB22E"/>
</svg>
