<svg width="25" height="24" viewBox="0 0 25 24" fill="none" xmlns="http://www.w3.org/2000/svg">
<circle cx="12.5" cy="12" r="12" fill="#33B9E3"/>
<path d="M15.3031 14.0488C15.3031 13.729 15.5624 13.4697 15.8821 13.4697C16.2019 13.4697 16.4612 13.729 16.4612 14.0488V15.2258H17.6382C17.958 15.2258 18.2173 15.4851 18.2173 15.8049C18.2173 16.1247 17.958 16.3839 17.6382 16.3839H16.4612V17.561C16.4612 17.8807 16.2019 18.14 15.8821 18.14C15.5624 18.14 15.3031 17.8807 15.3031 17.561V16.3839H14.126C13.8063 16.3839 13.547 16.1247 13.547 15.8049C13.547 15.4851 13.8063 15.2258 14.126 15.2258H15.3031V14.0488Z" fill="white"/>
<path d="M8.54875 13.7398C9.09645 13.1921 9.83929 12.8844 10.6138 12.8844H13.622C13.9418 12.8844 14.201 13.1436 14.201 13.4634C14.201 13.7832 13.9418 14.0424 13.622 14.0424H10.6138C10.1464 14.0424 9.69814 14.2281 9.36761 14.5586C9.03709 14.8892 8.85141 15.3374 8.85141 15.8049V16.9756C8.85141 17.2954 8.59217 17.5546 8.27238 17.5546C7.9526 17.5546 7.69336 17.2954 7.69336 16.9756V15.8049C7.69336 15.0303 8.00105 14.2875 8.54875 13.7398Z" fill="white"/>
<path d="M9.71948 6.71538C10.2672 6.16768 11.01 5.85999 11.7846 5.85999C12.5591 5.85999 13.302 6.16768 13.8497 6.71538C14.3974 7.26307 14.7051 8.00591 14.7051 8.78047C14.7051 9.55503 14.3974 10.2979 13.8497 10.8456C13.302 11.3933 12.5591 11.701 11.7846 11.701C11.01 11.701 10.2672 11.3933 9.71948 10.8456C9.17178 10.2979 8.86409 9.55503 8.86409 8.78047C8.86409 8.00591 9.17178 7.26307 9.71948 6.71538ZM10.5383 7.53424C10.2078 7.86476 10.0221 8.31304 10.0221 8.78047C10.0221 9.2479 10.2078 9.69618 10.5383 10.0267C10.8689 10.3572 11.3172 10.5429 11.7846 10.5429C12.252 10.5429 12.7003 10.3572 13.0308 10.0267C13.3613 9.69618 13.547 9.2479 13.547 8.78047C13.547 8.31304 13.3613 7.86476 13.0308 7.53424C12.7003 7.20372 12.252 7.01803 11.7846 7.01803C11.3172 7.01803 10.8689 7.20372 10.5383 7.53424Z" fill="white"/>
</svg>
