<svg width="25" height="24" viewBox="0 0 25 24" fill="none" xmlns="http://www.w3.org/2000/svg">
<path d="M3.43182 19.4999H6.77273V11.3863L2 7.80673V18.0681C2 18.8604 2.64193 19.4999 3.43182 19.4999Z" fill="#4285F4"/>
<path d="M18.2273 19.4999H21.5682C22.3604 19.4999 23 18.858 23 18.0681V7.80673L18.2273 11.3863" fill="#34A853"/>
<path d="M18.2273 5.18173V11.3863L23 7.80673V5.89764C23 4.12696 20.9787 3.11753 19.5636 4.17946" fill="#FBBC04"/>
<path d="M6.77273 11.3863L6.77274 5.18173L12.5 9.47718L18.2273 5.18173V11.3863L12.5 15.6817" fill="#EA4335"/>
<path d="M2 5.89764V7.80673L6.77273 11.3863L6.77274 5.18173L5.43636 4.17946C4.01886 3.11752 2 4.12696 2 5.89764Z" fill="#C5221F"/>
</svg>
