<svg xmlns="http://www.w3.org/2000/svg" width="42" height="42" viewBox="0 0 42 42">
    <g fill="none" fill-rule="evenodd">
        <g fill="#8093A7" fill-rule="nonzero">
            <g>
                <g>
                    <path d="M23.333 18.667V9.333C23.333 7.933 22.4 7 21 7c-1.4 0-2.333.933-2.333 2.333v9.334H9.333C7.933 18.667 7 19.6 7 21c0 1.4.933 2.333 2.333 2.333h9.334v9.334c0 1.4.933 2.333 2.333 2.333 1.4 0 2.333-.933 2.333-2.333v-9.334h9.334C34.067 23.333 35 22.4 35 21c0-1.4-.933-2.333-2.333-2.333h-9.334z" transform="translate(-371 -346) translate(252 228) translate(119 118)"/>
                </g>
            </g>
        </g>
    </g>
</svg>
