<svg xmlns="http://www.w3.org/2000/svg" width="16" height="16" viewBox="0 0 16 16">
    <g fill="none" fill-rule="evenodd">
        <g fill="#FFF" fill-rule="nonzero">
            <g>
                <g>
                    <g>
                        <g>
                            <path d="M3.125 3.125v1.042c0 1.723 1.402 3.125 3.125 3.125S9.375 5.89 9.375 4.167V3.125C9.375 1.402 7.973 0 6.25 0S3.125 1.402 3.125 3.125M10.417 11.458c-.862 0-1.563-.7-1.563-1.562-.861 0-1.562-.701-1.562-1.563H3.646C1.636 8.333 0 9.97 0 11.98c0 .288.233.521.52.521h11.46c.287 0 .52-.233.52-.52 0-.697-.2-1.346-.54-1.9-.092.774-.745 1.378-1.543 1.378" transform="translate(-272 -392) translate(16 376) translate(252 12) translate(4.5 4.5) translate(1.25 1.25)"/>
                            <path d="M11.98 7.813h-1.043V6.77c0-.288-.233-.521-.52-.521-.288 0-.521.233-.521.52v1.043H8.854c-.287 0-.52.233-.52.52 0 .288.233.521.52.521h1.042v1.042c0 .287.233.52.52.52.288 0 .521-.233.521-.52V8.854h1.042c.288 0 .521-.233.521-.52 0-.288-.233-.521-.52-.521" transform="translate(-272 -392) translate(16 376) translate(252 12) translate(4.5 4.5) translate(1.25 1.25)"/>
                        </g>
                    </g>
                </g>
            </g>
        </g>
    </g>
</svg>
