<svg xmlns="http://www.w3.org/2000/svg" viewBox="0 0 100 97"><g fill="#38506c"><path d="M94 91v5.5l3.7-2.4z"/><path d="M3.2 1L.4 4.8h6z" fill-rule="evenodd"/></g><g transform="matrix(.707107 .707107 -.707107 .707107 21.998215 -21.081915)"><path d="M28.9 3.5L109.1.9c1.1 0 2.2.4 3 1.2L135 25a1.93 1.93 0 0 1 0 2.8c-.4.4-.9.6-1.4.6L3.3 30a.94.94 0 0 1-1-1c0-.3.1-.5.3-.7L26.2 4.7c.7-.7 1.7-1.1 2.7-1.2z" fill-rule="evenodd" fill="#3c80ef"/><path d="M33.2 10.1h4.3c1.1 0 1.9.3 2.5.8s.9 1.3.9 2.2c0 1-.3 1.7-.9 2.2s-1.4.8-2.5.8H35v3.8h-1.8v-9.8zm4 4.7c1.2 0 1.9-.5 1.9-1.6 0-.6-.2-1-.5-1.2-.3-.3-.8-.4-1.4-.4H35v3.2h2.2zm7.4 4.7c-.7-.4-1.2-1-1.6-1.8s-.6-1.7-.6-2.7.2-1.9.6-2.7.9-1.3 1.6-1.8c.7-.4 1.5-.6 2.5-.6s1.8.2 2.5.6 1.2 1 1.6 1.8.6 1.7.6 2.7-.2 1.9-.6 2.7-.9 1.4-1.6 1.8-1.5.6-2.5.6-1.8-.2-2.5-.6zm4.6-1.8c.5-.6.8-1.5.8-2.7s-.3-2.1-.8-2.7-1.2-.9-2.1-.9-1.6.3-2.1.9-.8 1.5-.8 2.7.3 2.1.8 2.7 1.2.9 2.1.9c.9.1 1.6-.2 2.1-.9zm4.7-7.6h4.3c1.1 0 1.9.3 2.5.8s.9 1.3.9 2.2c0 1-.3 1.7-.9 2.2s-1.4.8-2.5.8h-2.5v3.8h-1.8v-9.8zm4.1 4.7c1.2 0 1.9-.5 1.9-1.6 0-.5-.2-1-.5-1.2-.3-.3-.8-.4-1.4-.4h-2.3v3.2H58zm6.5 4.3c-.7-.7-1.1-1.7-1.1-3.1v-5.9h1.8v6c0 .8.2 1.5.6 1.9s1 .7 1.8.7 1.3-.2 1.7-.7c.4-.4.6-1.1.6-1.9v-6h1.8V16c0 1.3-.4 2.4-1.1 3.1s-1.7 1.1-3.1 1.1c-1.3-.1-2.3-.4-3-1.1zm9.6.9v-9.9h1.8v8.4h4.6V20h-6.4zm15.6 0l-1-2.3h-4.8l-1 2.3h-1.8l4.5-9.9H87l4.5 9.9h-1.8zm-5.2-3.7h3.6l-1.8-4.2-1.8 4.2zm16.6 3.7h-2l-1.7-3.2c-.2-.3-.4-.5-.6-.6-.1-.1-.4-.2-.8-.2h-1.4v4h-1.8v-9.9h4.4c1.1 0 2 .2 2.6.7s.9 1.2.9 2.2c0 .8-.2 1.4-.6 1.9s-1 .8-1.8 1c.5.1.9.5 1.3 1.1l1.5 3zm-2.6-5.7c.3-.3.5-.7.5-1.2s-.2-.9-.5-1.2c-.3-.2-.8-.4-1.5-.4h-2.4v3.1H97c.7.1 1.2-.1 1.5-.3z" enable-background="new" fill="#fff"/></g></svg>