<svg width="60" height="32" viewBox="0 0 60 32" fill="none" xmlns="http://www.w3.org/2000/svg">
<path fill-rule="evenodd" clip-rule="evenodd" d="M14.9497 25.8173H18.7675V11.7059H14.9497V25.8173Z" fill="#3180F1"/>
<path fill-rule="evenodd" clip-rule="evenodd" d="M11.1601 15.6883C10.0337 15.1349 8.23482 14.5525 6.64046 14.5379C5.19223 14.5379 4.46095 15.0475 4.46095 15.8192C4.46095 16.6351 5.4848 16.8387 6.77211 17.0282L8.03002 17.2175C11.1013 17.6833 12.813 19.0523 12.813 21.4405C12.813 24.3532 10.414 26.2319 6.304 26.2319C4.37318 26.2319 1.84259 25.8677 0 24.5716L1.50629 21.6881C2.72046 22.4893 4.19794 23.0718 6.33295 23.0718C8.10301 23.0718 8.95131 22.5768 8.95131 21.7467C8.95131 21.0619 8.23482 20.6834 6.59642 20.4503L5.44107 20.2903C2.16472 19.8385 0.541105 18.4115 0.541105 16.0086C0.541105 13.1108 2.79375 11.3923 6.52312 11.3923C8.79055 11.3923 10.5603 11.8144 12.4471 12.7321L11.1601 15.6883Z" fill="#3180F1"/>
<path fill-rule="evenodd" clip-rule="evenodd" d="M25.2468 18.5863C25.2468 20.6251 26.6364 22.2853 28.8156 22.2853C30.9366 22.2853 32.37 20.6832 32.37 18.5863C32.37 16.4746 30.9366 14.8727 28.8156 14.8727C26.6364 14.8727 25.2468 16.533 25.2468 18.5863ZM32.2384 13.3291V11.7564H35.9828V24.7031C35.9828 29.2318 33.0135 31.9696 28.333 31.9696C26.095 31.9696 23.7257 31.3871 22.1314 30.2658L23.4914 27.1638C24.9104 28.0958 26.4755 28.6055 28.1719 28.6055C30.5414 28.6055 32.2088 27.2949 32.2088 24.8627V23.8729C31.2436 25.0524 29.8102 25.7804 27.8504 25.7804C24.3985 25.7804 21.3267 22.9114 21.3267 18.5863C21.3267 14.2463 24.3985 11.3779 27.8504 11.3779C29.8249 11.3779 31.2729 12.135 32.2384 13.3291Z" fill="#3180F1"/>
<path fill-rule="evenodd" clip-rule="evenodd" d="M51.9799 16.8826V25.8677H48.162V18.1058C48.162 16.067 47.1385 14.9458 45.3977 14.9458C43.7598 14.9458 42.3993 16.0085 42.3993 18.1348V25.8677H38.5815V11.7564H42.2969V13.4164C43.3061 11.9165 44.8564 11.3779 46.4656 11.3779C49.6834 11.3779 51.9799 13.6057 51.9799 16.8826Z" fill="#3180F1"/>
<path fill-rule="evenodd" clip-rule="evenodd" d="M59.3444 23.1611C59.3444 24.5913 58.1133 25.8173 56.704 25.8173C55.2814 25.8173 54.0366 24.5913 54.0366 23.1611C54.0366 21.7449 55.2814 20.5326 56.704 20.5326C58.1133 20.5326 59.3444 21.7449 59.3444 23.1611Z" fill="#3180F1"/>
<path fill-rule="evenodd" clip-rule="evenodd" d="M2.69208 0.0930649C3.8514 0.471863 5.00751 0.840169 6.18587 1.12408C7.3557 1.43323 8.53742 1.68931 9.72797 1.88304C12.1056 2.28009 14.5098 2.51062 16.9179 2.46941C19.3258 2.49374 21.7269 2.24679 24.0981 1.83362C25.2853 1.63198 26.4626 1.36799 27.6279 1.05185C28.801 0.760638 29.9518 0.385185 31.1044 0L32.2551 2.73933C30.1685 4.55668 27.6748 5.78812 25.0643 6.65475C22.4445 7.50069 19.6797 7.92846 16.9179 7.94564C14.156 7.961 11.3847 7.56578 8.75227 6.75085C6.12888 5.91479 3.61597 4.71194 1.50488 2.91983L2.69208 0.0930649Z" fill="#FAE200"/>
</svg>
