<svg width="24" height="25" viewBox="0 0 24 25" fill="none" xmlns="http://www.w3.org/2000/svg">
<g id="PDF Logo">
<rect y="0.5" width="24" height="24" rx="2" fill="#F2385A"/>
<path id="logo_vector" d="M9.3724 16.3316L15.9295 5.04323C15.9611 4.9882 15.9778 4.92579 15.9778 4.86225C15.9778 4.79871 15.9612 4.73628 15.9296 4.68124C15.898 4.62619 15.8525 4.58047 15.7977 4.54866C15.743 4.51685 15.6808 4.50007 15.6176 4.5H11.3898C11.2849 4.50003 11.1817 4.52761 11.0906 4.58002C10.9996 4.63243 10.9237 4.70784 10.8706 4.79878L4.08096 16.4928C4.02814 16.5843 4.00023 16.6881 4 16.7939C3.99978 16.8996 4.02726 17.0036 4.07968 17.0953C4.1321 17.1871 4.20763 17.2633 4.29867 17.3165C4.38971 17.3696 4.49308 17.3978 4.59838 17.3981H7.5515L6.27686 19.5946C6.22397 19.6863 6.19605 19.7903 6.19591 19.8962C6.19576 20.0021 6.2234 20.1062 6.27604 20.198C6.32867 20.2898 6.40445 20.366 6.49575 20.419C6.58704 20.472 6.69063 20.5 6.79609 20.5H17.4331C17.5592 20.4996 17.6831 20.4659 17.7922 20.4023C17.9013 20.3388 17.992 20.2476 18.0551 20.1378L19.9517 16.8785C19.9832 16.8236 19.9999 16.7613 20 16.6979C20.0001 16.6345 19.9836 16.5722 19.9522 16.5172C19.9208 16.4622 19.8756 16.4165 19.8211 16.3846C19.7666 16.3526 19.7047 16.3356 19.6416 16.3352L9.3724 16.3316ZM11.6585 5.56836H14.3934L8.14464 16.3316H5.40607L11.6585 5.56836ZM17.2474 19.4335H7.60378L8.78466 17.4H18.421L17.2474 19.4335Z" fill="white"/>
</g>
</svg>
