<svg width="64" height="65" viewBox="0 0 64 65" fill="none" xmlns="http://www.w3.org/2000/svg">
<g id="PDF Logo">
<rect y="0.5" width="64" height="64" rx="8" fill="#F2385A"/>
<path id="logo_vector" d="M26.7448 40.1632L39.8589 17.5865C39.9222 17.4764 39.9555 17.3516 39.9556 17.2245C39.9556 17.0974 39.9223 16.9726 39.8591 16.8625C39.7959 16.7524 39.705 16.6609 39.5955 16.5973C39.4859 16.5337 39.3617 16.5001 39.2351 16.5H30.7796C30.5697 16.5001 30.3634 16.5552 30.1813 16.66C29.9991 16.7649 29.8474 16.9157 29.7412 17.0976L16.1619 40.4855C16.0563 40.6685 16.0005 40.8762 16 41.0878C15.9996 41.2993 16.0545 41.5072 16.1594 41.6907C16.2642 41.8741 16.4153 42.0267 16.5973 42.133C16.7794 42.2393 16.9862 42.2956 17.1968 42.2963H23.103L20.5537 46.6892C20.4479 46.8725 20.3921 47.0805 20.3918 47.2924C20.3915 47.5042 20.4468 47.7124 20.5521 47.896C20.6573 48.0795 20.8089 48.232 20.9915 48.338C21.1741 48.4441 21.3813 48.4999 21.5922 48.5H42.8661C43.1184 48.4991 43.3661 48.4317 43.5844 48.3046C43.8027 48.1775 43.984 47.9952 44.1101 47.7757L47.9034 41.2569C47.9665 41.1471 47.9998 41.0226 48 40.8958C48.0002 40.7691 47.9673 40.6445 47.9045 40.5345C47.8417 40.4245 47.7513 40.333 47.6422 40.2691C47.5332 40.2052 47.4094 40.1712 47.2832 40.1704L26.7448 40.1632ZM31.3169 18.6367H36.7868L24.2893 40.1632H18.8121L31.3169 18.6367ZM42.4947 46.3669H23.2076L25.5693 42.2999H44.8421L42.4947 46.3669Z" fill="white"/>
</g>
</svg>
