<svg width="24" height="25" viewBox="0 0 24 25" fill="none" xmlns="http://www.w3.org/2000/svg">
<g id="Sign Logo">
<rect y="0.5" width="24" height="24" rx="2" fill="#F2385A"/>
<path id="Logo_Vector" d="M11.3878 20.4982C11.0491 20.513 10.7128 20.4347 10.4154 20.272C10.118 20.1092 9.87075 19.8682 9.70056 19.5749C8.97641 18.3276 9.47607 16.023 11.0837 13.034H4.53372C4.43991 13.034 4.34778 13.0092 4.26658 12.9622C4.18539 12.9152 4.118 12.8477 4.0712 12.7664C4.02441 12.6851 3.99985 12.5929 4 12.4991C4.00015 12.4053 4.02501 12.3132 4.07207 12.232C7.17326 6.89139 10.5895 4.50168 12.599 4.50168C12.9374 4.48727 13.2733 4.56567 13.5704 4.72841C13.8675 4.89115 14.1144 5.13203 14.2845 5.42498C15.0086 6.67414 14.5089 8.97876 12.9013 11.9659H19.4549C19.5487 11.966 19.6409 11.9907 19.7221 12.0377C19.8032 12.0847 19.8706 12.1522 19.9174 12.2335C19.9642 12.3148 19.9888 12.407 19.9886 12.5008C19.9885 12.5946 19.9636 12.6868 19.9166 12.7679C16.819 18.1103 13.4082 20.4982 11.3878 20.4982ZM12.293 13.034C10.432 16.3416 10.2038 18.3041 10.6293 19.0409C10.7234 19.2074 10.9063 19.4265 11.3915 19.4283C12.9936 19.4283 15.8885 17.2377 18.5117 13.0322L12.293 13.034ZM5.46607 11.9659H11.6757C13.5603 8.65833 13.7902 6.69768 13.3666 5.95723C13.2706 5.79249 13.0878 5.57162 12.6026 5.56981C10.995 5.56981 8.10199 7.76218 5.47874 11.9659H5.46607Z" fill="white"/>
</g>
</svg>
