<svg width="25" height="25" viewBox="0 0 25 25" fill="none" xmlns="http://www.w3.org/2000/svg">
<path fill-rule="evenodd" clip-rule="evenodd" d="M3.6394 6.24337C3.63942 6.22703 3.63997 6.21068 3.64105 6.19436C3.64707 6.10296 3.66946 6.01603 3.70532 5.93648C3.74093 5.85748 3.78983 5.78575 3.84916 5.72415C3.91399 5.65673 3.98873 5.60393 4.06908 5.56603C4.16622 5.52008 4.27481 5.49438 4.3894 5.49438H4.38972H20.3891H20.3894C20.5015 5.49438 20.6078 5.51897 20.7033 5.56303C20.7916 5.60366 20.8734 5.66218 20.9429 5.73822C21.0649 5.87163 21.1394 6.04931 21.1394 6.24438V6.24963V17.5777C21.1394 17.9534 20.9902 18.3138 20.7245 18.5795C20.4588 18.8451 20.0985 18.9944 19.7227 18.9944H5.05607C4.68035 18.9944 4.32001 18.8451 4.05434 18.5795C3.78866 18.3138 3.6394 17.9534 3.6394 17.5777V6.24438C3.6394 6.24405 3.6394 6.24371 3.6394 6.24337ZM5.1394 7.89721V17.4944H19.6394V7.89723L12.8833 13.8088C12.6005 14.0563 12.1783 14.0563 11.8955 13.8088L5.1394 7.89721ZM18.3933 6.99438H6.38549L12.3894 12.2478L18.3933 6.99438Z" fill="#618298"/>
</svg>
