<svg width="328" height="191" viewBox="0 0 328 191" fill="none" xmlns="http://www.w3.org/2000/svg">
<path d="M317.843 89.8515C315.587 102.911 300.545 175.959 246.831 173.731C243.391 173.589 240.904 170.629 241.474 167.234C244 152.182 256.35 112.108 316.704 88.4328C317.352 88.183 317.999 88.9626 317.843 89.8515Z" fill="url(#paint0_linear_268_3342)"/>
<path d="M309.374 98.5085C309.374 98.5085 308.688 99.8765 307.417 102.238C306.781 103.425 305.994 104.847 305.073 106.479C304.152 108.11 303.098 109.938 301.918 111.911C300.739 113.883 299.432 116.012 298.032 118.237C296.619 120.459 295.111 122.803 293.478 125.171C291.871 127.556 290.151 129.979 288.375 132.422C287.481 133.642 286.562 134.846 285.641 136.063C284.696 137.264 283.775 138.481 282.803 139.678C281.833 140.862 280.888 142.063 279.882 143.215C279.392 143.793 278.889 144.369 278.399 144.947C277.91 145.525 277.395 146.087 276.894 146.65C276.393 147.213 275.892 147.776 275.392 148.326C274.879 148.874 274.368 149.409 273.857 149.944C272.86 151.031 271.819 152.045 270.804 153.063C268.762 155.083 266.715 156.943 264.727 158.649C264.241 159.094 263.736 159.483 263.229 159.885C262.735 160.288 262.243 160.679 261.766 161.058C261.287 161.45 260.798 161.814 260.326 162.154C259.852 162.507 259.38 162.846 258.921 163.187C258.685 163.357 258.462 163.529 258.241 163.687C258.007 163.844 257.772 164 257.553 164.146C257.099 164.448 256.647 164.736 256.221 165.028C255.784 165.306 255.371 165.6 254.95 165.852C254.53 166.105 254.111 166.345 253.707 166.573C253.303 166.801 252.925 167.032 252.549 167.251C252.361 167.36 252.173 167.469 251.999 167.567C251.813 167.663 251.628 167.746 251.455 167.844C250.74 168.205 250.082 168.534 249.495 168.832C248.906 169.143 248.355 169.365 247.889 169.558C247.409 169.75 247.012 169.926 246.686 170.07C246.035 170.346 245.682 170.488 245.682 170.488L245.639 170.509C245.272 170.661 245.11 171.082 245.264 171.436C245.417 171.804 245.837 171.965 246.192 171.811C246.192 171.811 246.546 171.656 247.225 171.371C247.565 171.228 247.975 171.054 248.458 170.836C248.939 170.631 249.505 170.397 250.108 170.075C250.71 169.766 251.383 169.425 252.115 169.039C252.301 168.943 252.488 168.847 252.674 168.751C252.862 168.642 253.05 168.533 253.238 168.424C253.616 168.192 254.007 167.962 254.413 167.721C254.819 167.48 255.239 167.227 255.673 166.976C256.096 166.71 256.521 166.418 256.962 166.114C257.401 165.824 257.855 165.522 258.31 165.207C258.545 165.05 258.779 164.894 259.013 164.737C259.236 164.566 259.472 164.396 259.709 164.226C260.169 163.872 260.656 163.521 261.13 163.168C261.619 162.804 262.107 162.439 262.588 162.034C263.067 161.642 263.561 161.238 264.07 160.823C264.563 160.42 265.085 160.006 265.571 159.561C267.577 157.817 269.629 155.918 271.663 153.857C272.68 152.826 273.724 151.786 274.723 150.686C275.236 150.137 275.736 149.588 276.248 149.039C276.75 148.476 277.251 147.913 277.754 147.337C278.257 146.761 278.758 146.197 279.261 145.621C279.753 145.03 280.242 144.452 280.734 143.861C281.728 142.694 282.675 141.48 283.647 140.283C284.605 139.084 285.53 137.841 286.464 136.625C287.373 135.393 288.295 134.163 289.177 132.941C290.943 130.47 292.651 128.032 294.236 125.617C295.845 123.22 297.343 120.861 298.744 118.624C300.134 116.371 301.428 114.24 302.598 112.24C307.259 104.276 309.973 98.7337 309.973 98.7337C310.046 98.5827 309.99 98.4015 309.839 98.3284C309.629 98.301 309.447 98.3576 309.374 98.5085Z" fill="white"/>
<path d="M286.899 7.38536C286.589 5.96776 285.271 6.33091 284.181 7.31195C227.676 58.2926 208.272 146.502 222.238 176.526C223.373 178.966 226.093 180.008 228.661 179.203C246.93 173.479 316.506 142.452 286.899 7.38536Z" fill="url(#paint1_linear_268_3342)"/>
<path d="M283.872 26.7131C283.872 26.7131 283.853 26.8577 283.817 27.1338C283.768 27.4082 283.717 27.8027 283.619 28.3514C283.439 29.4244 283.126 31.0016 282.746 32.9977C282.352 34.9922 281.848 37.4268 281.246 40.1964C280.644 42.966 279.916 46.0935 279.112 49.4919C278.295 52.8886 277.388 56.5677 276.363 60.432C275.349 64.3112 274.206 68.3608 273.004 72.5629C271.776 76.7485 270.478 81.0719 269.067 85.4342C268.711 86.5243 268.355 87.6145 267.997 88.7177C267.628 89.8062 267.257 90.9077 266.886 92.0093C266.158 94.2142 265.352 96.3956 264.571 98.5936C263.79 100.792 262.946 102.955 262.154 105.138C261.323 107.303 260.482 109.453 259.643 111.576C258.766 113.695 257.929 115.806 257.032 117.868C256.577 118.892 256.136 119.917 255.697 120.93C255.471 121.435 255.257 121.942 255.031 122.448C254.805 122.953 254.567 123.443 254.342 123.936C253.88 124.918 253.431 125.903 252.983 126.874C252.759 127.366 252.536 127.845 252.313 128.324C252.077 128.802 251.841 129.279 251.62 129.745C250.679 131.628 249.834 133.497 248.883 135.258C248.419 136.147 247.97 137.024 247.524 137.889C247.294 138.313 247.077 138.753 246.862 139.166C246.633 139.591 246.406 140.003 246.178 140.414C245.255 142.059 244.405 143.66 243.527 145.163C242.636 146.665 241.78 148.104 240.974 149.47C240.143 150.819 239.322 152.09 238.564 153.288C238.179 153.879 237.81 154.46 237.455 155.029C237.077 155.568 236.714 156.095 236.366 156.611C235.673 157.618 235.03 158.55 234.454 159.384C233.877 160.218 233.303 160.932 232.845 161.568C232.375 162.202 231.971 162.738 231.646 163.177C230.997 164.055 230.643 164.517 230.643 164.517C230.58 164.589 230.604 164.712 230.678 164.762C230.75 164.825 230.86 164.799 230.923 164.727C230.923 164.727 231.277 164.265 231.964 163.405C232.625 162.542 233.643 161.297 234.873 159.653C235.463 158.82 236.131 157.905 236.85 156.902C237.209 156.4 237.585 155.874 237.963 155.335C238.329 154.781 238.712 154.203 239.11 153.613C239.894 152.418 240.751 151.179 241.597 149.819C242.429 148.456 243.299 147.019 244.214 145.534C245.118 144.033 245.995 142.436 246.931 140.793C247.159 140.382 247.399 139.972 247.641 139.549C247.871 139.124 248.1 138.699 248.329 138.274C248.789 137.412 249.251 136.536 249.727 135.649C251.608 132.097 253.453 128.299 255.296 124.314C255.521 123.822 255.76 123.318 255.986 122.813C256.213 122.307 256.426 121.8 256.652 121.295C257.105 120.284 257.546 119.259 258.002 118.222C258.912 116.161 259.751 114.037 260.655 111.922C261.508 109.787 262.363 107.639 263.208 105.462C263.616 104.379 264.027 103.283 264.424 102.185C264.834 101.088 265.243 100.005 265.628 98.8918C266.396 96.6921 267.191 94.4958 267.919 92.291C268.29 91.1894 268.661 90.0878 269.03 88.9994C269.388 87.8961 269.731 86.8043 270.088 85.701C271.501 81.3256 272.775 76.9856 273.991 72.7852C275.169 68.5664 276.276 64.4855 277.25 60.6011C278.237 56.7185 279.107 53.0211 279.898 49.621C281.443 42.7893 282.55 37.0637 283.273 33.0531C283.629 31.0404 283.889 29.4564 284.056 28.3817C284.139 27.8443 284.196 27.4105 284.232 27.1344C284.255 26.8566 284.273 26.7119 284.273 26.7119C284.285 26.6199 284.217 26.5307 284.112 26.517C284.02 26.505 283.93 26.5736 283.918 26.6657L283.872 26.7131Z" fill="white"/>
<path d="M261.494 19.3328H81.2635C78.1675 19.3328 75.6494 21.8509 75.6494 24.9469V152.256C75.6494 155.352 78.1675 157.87 81.2635 157.87H150.408C150.408 157.87 154.825 171.493 141.161 178.51H205.848C205.848 178.51 190.45 173.226 194.413 157.87H261.453C264.549 157.87 267.067 155.352 267.067 152.256V24.9469C267.108 21.8509 264.59 19.3328 261.494 19.3328Z" fill="#035970"/>
<path d="M173.773 144.495C176.208 148.004 172.369 151.843 168.902 149.366C168.778 149.284 168.695 149.16 168.613 149.077C166.177 145.568 170.016 141.729 173.484 144.206C173.608 144.247 173.69 144.371 173.773 144.495Z" fill="#77C2D7"/>
<path d="M264.012 134.272H78.7452V25.3326C78.7452 23.1034 80.5203 21.3284 82.7494 21.3284H260.008C262.237 21.3284 264.012 23.1034 264.012 25.3326V134.272Z" fill="white"/>
<path d="M264.012 31.0565H78.7452V25.4423C78.7452 23.337 80.4377 21.6445 82.543 21.6445H260.916C262.65 21.6445 264.012 23.0481 264.012 24.7406V31.0565Z" fill="#F1F5F8"/>
<path d="M84.6483 27.878C85.3779 27.878 85.9693 27.2866 85.9693 26.5571C85.9693 25.8275 85.3779 25.2361 84.6483 25.2361C83.9188 25.2361 83.3273 25.8275 83.3273 26.5571C83.3273 27.2866 83.9188 27.878 84.6483 27.878Z" fill="#F2385A"/>
<path d="M88.5287 27.878C89.2582 27.878 89.8497 27.2866 89.8497 26.5571C89.8497 25.8275 89.2582 25.2361 88.5287 25.2361C87.7991 25.2361 87.2077 25.8275 87.2077 26.5571C87.2077 27.2866 87.7991 27.878 88.5287 27.878Z" fill="#F2BE38"/>
<path d="M92.2025 27.878C92.9321 27.878 93.5235 27.2866 93.5235 26.5571C93.5235 25.8275 92.9321 25.2361 92.2025 25.2361C91.473 25.2361 90.8815 25.8275 90.8815 26.5571C90.8815 27.2866 91.473 27.878 92.2025 27.878Z" fill="#20C9AD"/>
<path d="M229.254 157.87C229.254 157.911 203.619 157.994 171.998 157.994C140.377 157.994 114.742 157.953 114.742 157.87C114.742 157.829 140.377 157.746 171.998 157.746C203.619 157.788 229.254 157.829 229.254 157.87Z" fill="#102D42"/>
<mask id="mask0_268_3342" style="mask-type:alpha" maskUnits="userSpaceOnUse" x="78" y="21" width="187" height="114">
<path d="M264.012 134.805H78.7452V25.8658C78.7452 23.6366 80.5203 21.8616 82.7494 21.8616H260.008C262.237 21.8616 264.012 23.6366 264.012 25.8658V134.805Z" fill="white"/>
</mask>
<g mask="url(#mask0_268_3342)">
<path fill-rule="evenodd" clip-rule="evenodd" d="M111.928 53.0718L82.8721 49.6918C74.422 48.7167 66.6868 54.7618 65.7118 63.277L64.0218 77.5122C63.0468 86.0274 69.0919 93.6975 77.607 94.7375L106.663 98.1176C115.178 99.0926 122.848 93.0475 123.888 84.5323L124.213 81.6723L125.513 70.7521L125.578 70.2321C126.488 61.782 120.443 54.1118 111.928 53.0718ZM116.413 69.1921L116.348 69.9721L115.048 80.8923L114.723 83.4273C114.268 86.8724 111.148 89.3424 107.703 88.9524L78.647 85.5724C75.202 85.1174 72.7319 81.9973 73.1219 78.5522L74.812 64.252C75.267 60.8069 78.387 58.3369 81.8321 58.7269L110.888 62.107C114.333 62.627 116.803 65.747 116.413 69.1921Z" fill="#DA6668"/>
<path fill-rule="evenodd" clip-rule="evenodd" d="M180.504 83.1027L169.649 90.4478L174.784 98.0529L185.639 90.7078C188.499 88.8228 192.334 89.5378 194.349 92.3328L189.864 95.3879C189.214 95.8429 188.759 96.4929 188.629 97.2729C188.499 98.0529 188.629 98.8329 189.084 99.4829L191.944 103.708C192.854 105.073 194.674 105.398 196.039 104.488L200.524 101.433L202.475 104.293C204.36 107.218 203.645 111.053 200.784 113.068L189.929 120.413L195.064 128.018L205.92 120.673C213.005 115.863 214.89 106.243 210.145 99.1579L201.955 87.2627C197.144 80.2426 187.589 78.4226 180.504 83.1027Z" fill="#DA6668"/>
<path fill-rule="evenodd" clip-rule="evenodd" d="M149.694 66.1375L162.044 67.6975L163.214 58.5974L150.864 57.0374C142.349 55.9974 134.614 61.9775 133.509 70.4926L131.689 84.7278C130.649 93.243 136.629 100.978 145.144 102.083L157.494 103.643L158.664 94.543L146.314 92.983C142.869 92.528 140.464 89.3429 140.854 85.8979L141.114 83.8828L145.534 84.8578C146.314 85.0528 147.094 84.8578 147.744 84.4678C148.394 84.0778 148.849 83.3628 149.044 82.6478L150.084 77.6427C150.279 76.8627 150.084 76.0827 149.694 75.4327C149.239 74.7827 148.589 74.3277 147.809 74.1327L142.479 72.9626L142.674 71.6626C143.129 68.1526 146.249 65.7475 149.694 66.1375Z" fill="#DA6668"/>
<path fill-rule="evenodd" clip-rule="evenodd" d="M277.876 81.0876L277.031 66.7224C276.511 58.2072 269.166 51.7071 260.651 52.1621L231.465 53.9172C222.95 54.4372 216.45 61.7823 216.905 70.2974L216.97 71.4025L217.62 82.3877L217.75 84.6627C218.27 93.1778 225.615 99.6779 234.13 99.2229L263.316 97.4679C271.831 96.9479 278.331 89.6028 277.876 81.0876ZM262.731 88.3027L233.545 90.0578C230.1 90.1878 227.11 87.5877 226.85 84.1427L226.72 82.3877L226.07 71.4025L225.94 69.7774C225.81 66.3324 228.41 63.3423 231.855 63.0823L261.041 61.3273C264.486 61.1973 267.476 63.7973 267.736 67.2424L268.581 81.6076C268.841 85.1177 266.241 88.0427 262.731 88.3027Z" fill="#DA6668"/>
<path fill-rule="evenodd" clip-rule="evenodd" d="M229.515 72.2476L232.375 76.4727C233.285 77.8377 232.895 79.6578 231.595 80.5678L195.974 104.553C194.609 105.463 192.789 105.138 191.879 103.773L189.019 99.5481C188.109 98.1831 188.499 96.363 189.799 95.453L225.42 71.4676C226.07 71.0126 226.85 70.8826 227.63 71.0126C228.41 71.1426 229.06 71.5976 229.515 72.2476Z" fill="#DA6668"/>
<path fill-rule="evenodd" clip-rule="evenodd" d="M150.084 77.5128L149.044 82.5179C148.914 83.2979 148.394 83.9479 147.744 84.3379C147.094 84.7279 146.314 84.9229 145.534 84.7279L141.114 83.7529L132.078 81.8029L116.803 78.5528L107.833 76.6028L103.543 75.7578C101.983 75.4327 100.943 73.8727 101.268 72.2477L102.373 67.2426C102.503 66.4626 103.023 65.8126 103.673 65.4226C104.323 64.9676 105.103 64.8376 105.883 65.0326L110.498 66.0076L119.468 67.9576L133.508 70.9477L142.544 72.8977L147.874 74.0677C149.434 74.3927 150.409 75.9528 150.084 77.5128Z" fill="#DA6668"/>
</g>
<path d="M286.418 178.893C286.418 178.981 233.024 179.159 167.189 179.159C101.316 179.07 47.9223 178.981 47.9223 178.893C47.9223 178.715 101.316 178.626 167.189 178.626C233.024 178.626 286.418 178.715 286.418 178.893Z" fill="#102D42"/>
<mask id="mask1_268_3342" style="mask-type:alpha" maskUnits="userSpaceOnUse" x="34" y="84" width="119" height="95">
<rect x="34.8539" y="84.2473" width="118.055" height="94.6754" fill="#C4C4C4"/>
</mask>
<g mask="url(#mask1_268_3342)">
<path d="M138.965 214.536C110.859 179.871 76.17 170.842 76.17 170.842L77.0485 179.422L135.46 220.268C137.413 219.222 138.524 217.306 139.141 215.958C139.357 215.492 139.292 214.936 138.965 214.536Z" fill="#DA6668"/>
<path d="M138.357 218.283C129.592 208.677 108.015 187.757 84.3173 179.075C82.3438 178.352 80.7422 176.877 79.831 174.985L76.2845 167.594C76.2845 167.594 59.0055 163.545 48.3578 174.691C48.3578 174.691 49.0075 185.294 62.3804 189.171C74.8626 192.791 111.852 207.484 133.67 223.946C134.169 224.321 134.863 224.342 135.362 223.958C137.098 222.614 138.181 220.934 138.647 219.749C138.843 219.251 138.72 218.683 138.357 218.283Z" fill="#DA6668"/>
<path d="M85.0325 136.051L85.0992 136.015L85.0461 135.916L84.9743 136.003C79.0451 143.149 77.4167 151.712 77.2689 158.484C77.195 161.871 77.4912 164.811 77.806 166.905C77.9634 167.952 78.1255 168.787 78.2482 169.361C78.3096 169.648 78.3612 169.87 78.3974 170.02C78.4107 170.075 78.4219 170.12 78.4308 170.155L78.3401 170.157C78.2181 170.16 78.0385 170.164 77.8078 170.171C77.3463 170.184 76.6804 170.206 75.8625 170.241C74.2267 170.31 71.9826 170.432 69.5494 170.642C67.1163 170.852 64.4932 171.148 62.0999 171.568C59.7079 171.987 57.5398 172.53 56.0199 173.233C53.0087 174.626 50.6279 174.936 49.0027 174.899C48.19 174.881 47.5656 174.776 47.1455 174.676C46.9354 174.626 46.7763 174.577 46.6703 174.541C46.6172 174.523 46.5774 174.508 46.5511 174.498C46.5488 174.497 46.5467 174.496 46.5446 174.496L46.5341 174.461C46.5205 174.415 46.5005 174.346 46.4748 174.256C46.4234 174.075 46.3495 173.807 46.2597 173.458C46.0801 172.76 45.8367 171.739 45.582 170.448C45.0726 167.866 44.5179 164.205 44.337 159.887C43.9752 151.252 45.1093 139.996 51.0877 129.506C57.0676 119.019 64.45 114.667 70.3326 112.933C73.2749 112.067 75.8435 111.855 77.6761 111.859C78.5924 111.861 79.3245 111.918 79.8271 111.974C80.0784 112.002 80.2723 112.029 80.4031 112.05C80.4686 112.06 80.5182 112.069 80.5514 112.075L80.5808 112.08L85.5743 116.581L85.574 116.581L85.5804 116.586C93.6116 122.443 98.2622 129.291 100.905 134.675C102.226 137.367 103.046 139.693 103.535 141.345C103.779 142.171 103.941 142.829 104.042 143.28C104.092 143.505 104.127 143.679 104.15 143.796C104.161 143.855 104.169 143.899 104.174 143.929L104.18 143.962L104.181 143.968V156.605L101.274 156.471C99.6196 155.81 97.7826 154.21 95.9533 152.171C94.1216 150.128 92.305 147.653 90.6964 145.259C89.088 142.865 87.6886 140.554 86.6912 138.841C86.1926 137.985 85.7945 137.278 85.5211 136.786C85.3844 136.54 85.2789 136.347 85.2075 136.216C85.1977 136.198 85.1885 136.181 85.18 136.165C85.1576 136.124 85.1397 136.091 85.1266 136.066L85.106 136.028L85.1009 136.019L85.0996 136.016L85.0993 136.016C85.0992 136.016 85.0992 136.015 85.0325 136.051Z" fill="#20C9AD" stroke="#FAB1A5" stroke-width="0.151218"/>
<path d="M105.269 119.61C105.437 118.727 105.498 116.66 103.369 114.143C100.518 110.776 96.8648 112.492 96.8648 112.492C93.6247 114.306 92.256 120.231 92.256 120.231L95.6799 118.404C96.1988 119.912 101.257 121.534 101.257 121.534L101.286 121.522C101.335 124.799 101.257 134.356 98.9322 140.999C98.0211 143.602 96.1702 148.439 102.283 156.73L105.649 156.591C105.653 156.599 113.2 143.786 105.269 119.61Z" fill="url(#paint2_linear_268_3342)"/>
<path d="M88.1499 100.19L78.7688 113.436C78.1601 114.298 78.2418 115.463 78.965 116.235C80.2275 117.583 82.3603 119.483 84.6565 119.92C85.3716 120.055 86.0947 119.757 86.4911 119.148L91.4799 111.491C91.4799 111.487 92.436 99.4584 88.1499 100.19Z" fill="url(#paint3_linear_268_3342)"/>
<path d="M94.377 91.5807C94.5322 91.7891 99.6068 108.243 99.6068 108.243L90.1522 110.939L83.0265 96.0588C83.0265 96.0588 91.762 88.0914 94.377 91.5807Z" fill="url(#paint4_linear_268_3342)"/>
<path d="M86.7771 98.5022L89.7884 106.298C89.8538 106.47 89.9436 106.625 90.058 106.768C90.5647 107.401 92.0315 108.897 93.6618 107.299C94.8957 106.09 96.0561 104.974 97.1633 104.418C98.1398 103.928 99.3206 104.463 99.6312 105.509C100.097 107.078 100.832 109.771 101.216 112.337C101.355 113.264 100.747 114.143 99.8273 114.335C97.9029 114.739 94.5443 115.324 91.5984 115.258C90.9447 115.242 90.3604 114.858 90.0703 114.273C88.9794 112.071 86.246 106.608 85.2163 105.15C84.2684 103.81 82.1315 103.818 81.0447 103.92C80.5381 103.969 80.0396 103.797 79.6678 103.45C78.7975 102.633 77.633 100.99 79.2919 98.9475C79.868 98.2366 79.8189 97.2274 79.1856 96.5696C78.2663 95.6176 77.5064 94.0976 78.9568 92.1855C80.4931 90.163 82.5687 90.2733 83.9661 90.6737C84.6484 90.8698 85.343 90.5716 85.7924 90.02C85.9232 89.8606 86.107 89.738 86.3685 89.6931C87.2225 89.5542 87.8803 88.8964 87.9048 88.0342C87.9416 86.7554 88.4932 85.2681 90.6015 84.5449C94.7241 83.1272 97.4371 87.0741 97.7844 90.0649C98.1276 93.0557 93.5719 94.3387 90.863 94.2161C88.9876 94.1303 87.6025 95.8505 86.9324 96.9128C86.6341 97.3867 86.5769 97.9751 86.7771 98.5022Z" fill="#035970"/>
<path d="M86.3889 108.092C86.3889 108.092 85.5636 102.903 83.3899 102.711C81.2163 102.519 79.157 104.361 81.396 107.221C84.1826 110.78 86.3889 108.092 86.3889 108.092Z" fill="url(#paint5_linear_268_3342)"/>
<path d="M66.6746 131.639L66.6665 131.646L66.6503 131.653C66.63 131.66 66.5998 131.672 66.5604 131.687C66.4816 131.717 66.3656 131.761 66.2166 131.821C65.9187 131.939 65.4889 132.114 64.9609 132.343C63.9049 132.8 62.4558 133.471 60.8831 134.325C57.7408 136.031 54.0935 138.473 52.1113 141.41L52.1113 141.41C51.1227 142.877 50.7606 143.988 50.7866 144.833C50.8127 145.683 51.2314 146.251 51.7733 146.627C52.3124 147.001 52.9738 147.186 53.4961 147.279C53.758 147.325 53.9866 147.348 54.1499 147.359C54.226 147.365 54.288 147.368 54.3327 147.369L53.6807 157.902C49.295 157.282 44.8332 156.282 41.9689 153.721C40.5304 152.435 39.4937 150.754 39.0727 148.525C38.6515 146.293 38.8461 143.509 39.8787 140.015C41.942 133.035 47.6907 126.532 52.9332 121.769C55.5531 119.389 58.044 117.446 59.8799 116.098C60.7978 115.424 61.5518 114.899 62.0763 114.542C62.3385 114.364 62.5433 114.228 62.6825 114.137C62.7521 114.091 62.8053 114.056 62.8411 114.033L62.8815 114.007L62.8846 114.005C66.7129 113.065 69.6409 112.638 71.8343 112.608C74.032 112.579 75.4816 112.949 76.3621 113.591C77.2367 114.229 77.5605 115.144 77.4878 116.24C77.4149 117.339 76.9419 118.616 76.2254 119.959C74.793 122.644 72.402 125.568 70.3659 127.823C69.3484 128.95 68.4206 129.908 67.7472 130.585C67.4105 130.924 67.1374 131.192 66.9486 131.375C66.8542 131.467 66.7808 131.537 66.7311 131.585L66.6746 131.639Z" fill="#20C9AD" stroke="#FAB1A5" stroke-width="0.151218"/>
<path d="M53.7508 157.988C53.7508 157.988 50.9888 153.424 54.6251 147.969L79.0421 152.01C79.0421 152.01 90.7317 150.033 91.2873 150.073C91.8471 150.114 99.4754 154.813 99.4754 154.813C99.4754 154.813 99.218 155.356 97.4038 155.258C95.5897 155.156 96.7787 155.479 96.7787 155.479L96.7133 156.394C96.7133 156.394 95.4508 156.684 94.4375 155.606C93.4242 154.527 90.605 154.004 90.605 154.004C90.605 154.004 84.6152 158.429 78.7316 156.288L53.7508 157.988Z" fill="url(#paint6_linear_268_3342)"/>
<path d="M89.2814 235.014C89.0893 235.014 88.8973 234.973 88.7093 234.891C87.9739 234.569 87.6348 233.694 87.9494 232.938L118.364 160.509C118.679 159.757 119.533 159.406 120.268 159.732C121.004 160.055 121.343 160.93 121.028 161.685L90.6133 234.115C90.3764 234.679 89.8411 235.014 89.2814 235.014Z" fill="#FCD7DE"/>
<path d="M123.545 235.014C122.982 235.014 122.45 234.679 122.213 234.115L91.7985 161.686C91.4839 160.934 91.823 160.06 92.5584 159.733C93.2939 159.41 94.1478 159.757 94.4625 160.509L124.877 232.939C125.192 233.69 124.853 234.565 124.117 234.892C123.934 234.977 123.737 235.014 123.545 235.014Z" fill="#FCD7DE"/>
<path d="M146.046 158.352C146.091 157.902 146.03 157.436 145.883 157.085C145.736 156.734 145.515 156.529 145.282 156.529H66.4662C66.1598 156.529 65.8738 156.836 65.7103 157.342C65.5469 157.849 65.5224 158.486 65.6531 159.034L66.5071 162.666C66.7032 163.5 67.1281 164.031 67.5939 164.031H144.743C145.176 164.031 145.548 163.426 145.633 162.589L146.046 158.352Z" fill="#102D42"/>
</g>
<defs>
<linearGradient id="paint0_linear_268_3342" x1="390.313" y1="38.705" x2="290.425" y2="192.147" gradientUnits="userSpaceOnUse">
<stop stop-color="#EFB3A8"/>
<stop offset="1" stop-color="white"/>
</linearGradient>
<linearGradient id="paint1_linear_268_3342" x1="384.539" y1="-94.4686" x2="164.38" y2="94.6886" gradientUnits="userSpaceOnUse">
<stop stop-color="#FFE8E3"/>
<stop offset="1" stop-color="#FCF6F6"/>
</linearGradient>
<linearGradient id="paint2_linear_268_3342" x1="110.059" y1="156.465" x2="79.9305" y2="146.705" gradientUnits="userSpaceOnUse">
<stop stop-color="#F9B776"/>
<stop offset="1" stop-color="#F47960"/>
</linearGradient>
<linearGradient id="paint3_linear_268_3342" x1="92.4938" y1="119.835" x2="72.7263" y2="108.363" gradientUnits="userSpaceOnUse">
<stop stop-color="#F9B776"/>
<stop offset="1" stop-color="#F47960"/>
</linearGradient>
<linearGradient id="paint4_linear_268_3342" x1="100.765" y1="110.819" x2="78.7611" y2="95.1448" gradientUnits="userSpaceOnUse">
<stop stop-color="#F9B776"/>
<stop offset="1" stop-color="#F47960"/>
</linearGradient>
<linearGradient id="paint5_linear_268_3342" x1="86.8054" y1="109.028" x2="79.6333" y2="103.189" gradientUnits="userSpaceOnUse">
<stop stop-color="#F9B776"/>
<stop offset="1" stop-color="#F47960"/>
</linearGradient>
<linearGradient id="paint6_linear_268_3342" x1="102.741" y1="157.928" x2="97.3849" y2="136.203" gradientUnits="userSpaceOnUse">
<stop stop-color="#F9B776"/>
<stop offset="1" stop-color="#F47960"/>
</linearGradient>
</defs>
</svg>
