<svg width="24" height="24" viewBox="0 0 24 24" fill="none" xmlns="http://www.w3.org/2000/svg">
<path fill-rule="evenodd" clip-rule="evenodd" d="M4.52209 8.58568C4.29328 8.29719 3.87392 8.24882 3.58544 8.47763C3.29695 8.70645 3.24858 9.1258 3.47739 9.41429C3.91138 9.96146 4.4556 10.5555 5.11769 11.1213L3.44505 13.6302C3.2408 13.9366 3.32359 14.3505 3.62996 14.5548C3.93633 14.759 4.35027 14.6762 4.55452 14.3699L6.18267 11.9276C7.03771 12.4972 8.0389 12.9883 9.1963 13.302L8.36728 15.7891C8.25084 16.1384 8.43963 16.516 8.78894 16.6324C9.13826 16.7488 9.51583 16.56 9.63227 16.2107L10.5132 13.5679C10.9864 13.6321 11.4818 13.6667 11.9997 13.6667C12.5178 13.6667 13.0131 13.6321 13.4863 13.5679L14.3673 16.2107C14.4837 16.56 14.8613 16.7488 15.2106 16.6324C15.5599 16.516 15.7487 16.1384 15.6323 15.7891L14.8032 13.302C15.9606 12.9883 16.9618 12.4972 17.8169 11.9276L19.4451 14.3699C19.6493 14.6762 20.0632 14.759 20.3696 14.5548C20.676 14.3505 20.7588 13.9366 20.5545 13.6302L18.8819 11.1212C19.5439 10.5555 20.0881 9.96146 20.5221 9.41431C20.7509 9.12582 20.7025 8.70647 20.414 8.47766C20.1256 8.24884 19.7062 8.29721 19.4774 8.5857C18.1477 10.2621 15.7521 12.3333 11.9997 12.3333C8.24739 12.3333 5.85174 10.2621 4.52209 8.58568Z" fill="#618298"/>
</svg>
