<svg width="24" height="24" viewBox="0 0 24 24" fill="none" xmlns="http://www.w3.org/2000/svg">
<path fill-rule="evenodd" clip-rule="evenodd" d="M4.54947 8.47975C6.09326 6.87862 8.52645 5.25 12.0001 5.25C15.4737 5.25 17.9069 6.87862 19.4507 8.47975C20.2209 9.27857 20.7758 10.0757 21.139 10.6738C21.3209 10.9736 21.4559 11.2252 21.5465 11.4047C21.5919 11.4945 21.6262 11.5664 21.6499 11.6175C21.6618 11.643 21.671 11.6633 21.6775 11.6781L21.6854 11.696L21.6879 11.7017L21.6888 11.7037C21.689 11.7041 21.6895 11.7052 21.0001 12.0007C21.6894 12.2961 21.6893 12.2964 21.6892 12.2968L21.6879 12.2997L21.6854 12.3054L21.6775 12.3233C21.6709 12.338 21.6617 12.3584 21.6499 12.3839C21.6262 12.4349 21.5918 12.5068 21.5465 12.5966C21.4558 12.7761 21.3209 13.0276 21.1389 13.3273C20.7758 13.9254 20.2209 14.7223 19.4507 15.521C17.9069 17.1218 15.4737 18.75 12.0001 18.75C8.52651 18.75 6.09333 17.1218 4.54953 15.521C3.77931 14.7223 3.22441 13.9254 2.86126 13.3273C2.6793 13.0276 2.54437 12.7761 2.45371 12.5966C2.40836 12.5068 2.374 12.4349 2.3503 12.3839C2.33845 12.3584 2.32926 12.338 2.32268 12.3233L2.31477 12.3054L2.31228 12.2997L2.31139 12.2976C2.31124 12.2973 2.31075 12.2961 3.0001 12.0007C2.31073 11.7052 2.31087 11.7049 2.31102 11.7046L2.31226 11.7017L2.31475 11.696L2.32266 11.6781C2.32923 11.6633 2.33843 11.643 2.35028 11.6175C2.37397 11.5664 2.40833 11.4945 2.45368 11.4047C2.54433 11.2252 2.67926 10.9736 2.86122 10.6738C3.22437 10.0757 3.77926 9.27857 4.54947 8.47975ZM3.0001 12.0007L2.31102 11.7046C2.23017 11.8932 2.22989 12.1075 2.31075 12.2961L3.0001 12.0007ZM3.83378 12.0006C3.9078 12.1429 4.01057 12.33 4.1434 12.5488C4.46329 13.0756 4.95303 13.7785 5.62924 14.4797C6.97829 15.8786 9.04511 17.25 12.0001 17.25C14.9551 17.25 17.0219 15.8786 18.371 14.4797C19.0472 13.7785 19.5369 13.0756 19.8568 12.5488C19.9896 12.33 20.0924 12.1429 20.1664 12.0006C20.0924 11.8583 19.9896 11.6711 19.8568 11.4523C19.5369 10.9253 19.0471 10.2222 18.3709 9.5209C17.0218 8.12171 14.955 6.75 12.0001 6.75C9.04517 6.75 6.97837 8.12171 5.6293 9.5209C4.95308 10.2222 4.46333 10.9253 4.14344 11.4523C4.01059 11.6711 3.90781 11.8583 3.83378 12.0006ZM21.0001 12.0007L21.6892 12.2968C21.77 12.1081 21.7703 11.8939 21.6895 11.7052L21.0001 12.0007Z" fill="#618298"/>
<path fill-rule="evenodd" clip-rule="evenodd" d="M12 9.75C10.7574 9.75 9.75 10.7574 9.75 12C9.75 13.2426 10.7574 14.25 12 14.25C13.2426 14.25 14.25 13.2426 14.25 12C14.25 10.7574 13.2426 9.75 12 9.75ZM8.25 12C8.25 9.92893 9.92893 8.25 12 8.25C14.0711 8.25 15.75 9.92893 15.75 12C15.75 14.0711 14.0711 15.75 12 15.75C9.92893 15.75 8.25 14.0711 8.25 12Z" fill="#618298"/>
</svg>
