<svg width="25" height="25" viewBox="0 0 25 25" fill="none" xmlns="http://www.w3.org/2000/svg">
<path fill-rule="evenodd" clip-rule="evenodd" d="M8.6394 6.24438V8.49438H5.11668C4.27921 8.49438 3.6394 9.18788 3.6394 9.99438V20.4944C3.6394 21.3009 4.27921 21.9944 5.11668 21.9944H19.6621C20.4996 21.9944 21.1394 21.3009 21.1394 20.4944V9.99438C21.1394 9.18788 20.4996 8.49438 19.6621 8.49438H16.1394V6.24438C16.1394 5.24982 15.7443 4.296 15.0411 3.59273C14.3378 2.88947 13.384 2.49438 12.3894 2.49438C11.3948 2.49438 10.441 2.88947 9.73775 3.59273C9.03449 4.296 8.6394 5.24982 8.6394 6.24438ZM19.6394 9.99438H15.3894H9.3894H5.1394V20.4944H19.6394V9.99438ZM12.3894 12.9944C11.699 12.9944 11.1394 13.554 11.1394 14.2444C11.1394 14.9347 11.699 15.4944 12.3894 15.4944C13.0798 15.4944 13.6394 14.9347 13.6394 14.2444C13.6394 13.554 13.0798 12.9944 12.3894 12.9944ZM9.6394 14.2444C9.6394 12.7256 10.8706 11.4944 12.3894 11.4944C13.9082 11.4944 15.1394 12.7256 15.1394 14.2444C15.1394 15.5033 14.2934 16.5647 13.1389 16.891V18.2444C13.1389 18.6586 12.8031 18.9944 12.3889 18.9944C11.9747 18.9944 11.6389 18.6586 11.6389 18.2444V16.8907C10.4849 16.5641 9.6394 15.503 9.6394 14.2444ZM12.3894 3.99438C11.7927 3.99438 11.2204 4.23144 10.7984 4.65339C10.3765 5.07535 10.1394 5.64765 10.1394 6.24438V8.49438H14.6394V6.24438C14.6394 5.64765 14.4024 5.07535 13.9804 4.65339C13.5584 4.23144 12.9861 3.99438 12.3894 3.99438Z" fill="#618298"/>
</svg>
