<svg width="23" height="23" viewBox="0 0 23 23" fill="none" xmlns="http://www.w3.org/2000/svg">
<path d="M11.0765 22.9814C10.0222 22.9814 9.19393 22.5296 8.71702 21.7013C7.71299 19.9694 8.41581 16.7816 10.6247 12.64H1.56333C1.28723 12.64 1.06132 12.4894 0.910717 12.2635C0.785214 12.0376 0.785214 11.7615 0.910717 11.5105C5.20293 4.10577 9.94695 0.79248 12.7331 0.79248C13.7622 0.79248 14.5906 1.24429 15.0675 2.07261C16.0715 3.80456 15.3687 6.99234 13.1598 11.1339H22.2463C22.5224 11.1339 22.7483 11.2845 22.8989 11.5105C23.0244 11.7364 23.0244 12.0125 22.8989 12.2635C18.6067 19.6682 13.8877 22.9814 11.0765 22.9814ZM12.3566 12.6149C9.74614 17.2083 9.44493 19.9192 10.0222 20.9483C10.1478 21.1742 10.3988 21.4754 11.0765 21.4754C13.3104 21.4754 17.3014 18.4382 20.941 12.6149H12.3566ZM2.89367 11.1339H11.5032C14.0886 6.56563 14.4149 3.82966 13.8124 2.80053C13.6869 2.57463 13.4359 2.27342 12.7582 2.27342C10.5243 2.27342 6.53326 5.3106 2.89367 11.1339Z" fill="#000000"/>
</svg>
