<svg width="32" height="32" viewBox="0 0 32 32" fill="none" xmlns="http://www.w3.org/2000/svg">
<path fill-rule="evenodd" clip-rule="evenodd" d="M15.9708 8.34506C15.9672 8.41567 15.9637 8.48719 15.9596 8.55984C15.9936 8.55789 16.0184 8.5571 16.0409 8.55639C16.0484 8.55615 16.0556 8.55593 16.0629 8.55566C16.1132 8.54974 16.1633 8.54386 16.2134 8.53798C16.4239 8.51328 16.6326 8.48881 16.8412 8.46262C17.4047 8.39258 17.9352 8.22689 18.4088 7.90125C19.6283 7.06336 20.4939 5.94741 20.9748 4.53299C21.1876 3.90575 21.3229 3.26545 21.3121 2.59901C21.3126 2.39546 21.2805 2.19317 21.217 2C21.2129 2.00078 21.209 2.0015 21.2053 2.00219C21.1941 2.00425 21.1845 2.00601 21.1752 2.00836C20.7074 2.11548 20.2484 2.25877 19.8023 2.43697C19.0575 2.73805 18.3732 3.13791 17.7942 3.70765C17.1966 4.29568 16.7875 5.00655 16.4776 5.78328C16.2174 6.45475 16.0564 7.16136 15.9998 7.88034C15.9863 8.03257 15.9786 8.18655 15.9708 8.34506ZM26.4641 10.8786C26.5025 10.8444 26.5411 10.8101 26.5799 10.7756C26.5654 10.7573 26.5546 10.7426 26.5448 10.7285C26.2119 10.3129 25.8449 9.92647 25.4477 9.57336C24.1172 8.40774 22.5641 7.96868 20.8302 8.14326C20.1644 8.21016 19.5208 8.38631 18.8876 8.6001C18.8587 8.60985 18.8297 8.61962 18.8008 8.62938C18.256 8.81319 17.7116 8.99688 17.148 9.116C16.8397 9.18134 16.5298 9.23413 16.2121 9.19597C15.7338 9.13847 15.2721 9.01669 14.8072 8.88863C14.6794 8.85322 14.5517 8.81717 14.424 8.78111C13.8204 8.61064 13.2169 8.44023 12.5966 8.33927C11.889 8.22428 11.1814 8.18821 10.4696 8.29641C9.51518 8.43307 8.61651 8.83371 7.87266 9.45418C6.92075 10.2461 6.23845 11.2387 5.76171 12.3813C5.34335 13.3823 5.129 14.4329 5.04377 15.5122C4.96875 16.4549 4.99021 17.4029 5.10782 18.3411C5.21786 19.2055 5.40174 20.0586 5.65738 20.8908C6.07678 22.2665 6.66663 23.5649 7.37269 24.811C7.88196 25.7095 8.43875 26.5741 9.13293 27.3409C9.60966 27.8683 10.136 28.3335 10.7754 28.6523C11.295 28.9131 11.8461 29.0428 12.4313 28.9874C12.8637 28.9404 13.2885 28.8386 13.6957 28.6842C13.8828 28.6165 14.0684 28.5447 14.2541 28.4728C14.494 28.3801 14.7338 28.2873 14.9766 28.2033C15.5396 28.0094 16.1186 27.8918 16.7183 27.9122C17.2597 27.9375 17.7953 28.0356 18.3112 28.2038C18.5619 28.2822 18.8109 28.3661 19.0599 28.4501C19.2961 28.5298 19.5322 28.6094 19.7698 28.6842C20.2104 28.8327 20.6683 28.9221 21.1318 28.9503C21.7955 28.9785 22.3905 28.7631 22.9437 28.4093C23.5459 28.0246 24.0506 27.528 24.4958 26.9718C25.641 25.5458 26.5466 23.9388 27.1764 22.2153C27.2191 22.0995 27.2569 21.9821 27.295 21.8637C27.3114 21.8128 27.3279 21.7617 27.3448 21.7104C27.3375 21.7078 27.3312 21.7056 27.3256 21.7037C27.3141 21.6996 27.3057 21.6966 27.2973 21.6942C26.7603 21.5264 26.2666 21.2408 25.8511 20.8579C24.284 19.4053 23.5552 17.6072 23.7334 15.4547C23.8218 14.3816 24.2158 13.4157 24.8511 12.5522C25.2437 12.0211 25.7101 11.5617 26.1941 11.12C26.2836 11.0389 26.3735 10.9591 26.4641 10.8786Z" fill="#0C2333"/>
</svg>
