<svg width="32" height="32" viewBox="0 0 32 32" fill="none" xmlns="http://www.w3.org/2000/svg">
<g id="Logo/Google">
<g id="Group 1157">
<path id="logo_vector" d="M8.20539 18.9207L7.23075 22.5592L3.66846 22.6346C2.60386 20.66 2 18.4008 2 16C2 13.6785 2.56459 11.4892 3.56537 9.56152H3.56614L6.73758 10.143L8.12686 13.2954C7.83608 14.1431 7.6776 15.0531 7.6776 16C7.67771 17.0277 7.86387 18.0123 8.20539 18.9207Z" fill="#FBBB00"/>
<path id="logo_vector_2" d="M29.7555 13.3848C29.9162 14.2317 30.0001 15.1063 30.0001 16.0001C30.0001 17.0025 29.8947 17.9802 29.6939 18.9232C29.0124 22.1325 27.2316 24.9348 24.7647 26.9178L24.764 26.9171L20.7694 26.7133L20.204 23.184C21.8409 22.224 23.1202 20.7217 23.794 18.9232H16.3079V13.3848H23.9032H29.7555Z" fill="#518EF8"/>
<path id="logo_vector_3" d="M24.7638 26.917L24.7646 26.9178C22.3654 28.8462 19.3177 30.0001 16 30.0001C10.6685 30.0001 6.03309 27.0201 3.66846 22.6347L8.20538 18.9209C9.38767 22.0763 12.4315 24.3224 16 24.3224C17.5338 24.3224 18.9708 23.9078 20.2038 23.184L24.7638 26.917Z" fill="#28B446"/>
<path id="logo_vector_4" d="M24.9362 5.22306L20.4008 8.93612C19.1247 8.13845 17.6162 7.67765 16.0001 7.67765C12.3508 7.67765 9.25003 10.0269 8.12697 13.2954L3.5662 9.56153H3.56543C5.89544 5.06923 10.5893 2 16.0001 2C19.397 2 22.5116 3.21002 24.9362 5.22306Z" fill="#F14336"/>
</g>
</g>
</svg>
