<svg width="161" height="32" viewBox="0 0 161 32" fill="none" xmlns="http://www.w3.org/2000/svg">
<path fill-rule="evenodd" clip-rule="evenodd" d="M116.415 25.8235H120.188V11.8152H116.415V25.8235Z" fill="#3180F1"/>
<mask id="mask0_1370_7828" style="mask-type:alpha" maskUnits="userSpaceOnUse" x="0" y="5" width="17" height="21">
<path fill-rule="evenodd" clip-rule="evenodd" d="M0 5.63452H16.3794V25.8738H0V5.63452Z" fill="white"/>
</mask>
<g mask="url(#mask0_1370_7828)">
<path fill-rule="evenodd" clip-rule="evenodd" d="M4.03335 17.4601V22.3178L8.55842 22.3322C10.7845 22.3322 12.187 21.8116 12.187 19.8741C12.187 17.9807 10.7845 17.4601 8.55842 17.4601H4.03335ZM4.03335 9.19103V13.9185H8.16811C10.1774 13.9185 11.739 13.4989 11.739 11.5329C11.739 9.62461 10.1485 9.19103 8.15369 9.19103H4.03335ZM8.26907 5.63452C12.9821 5.63452 15.9459 7.3837 15.9459 11.244C15.9459 13.2821 14.7024 14.9159 13.0109 15.5374C14.8615 16.1589 16.3795 17.8937 16.3795 20.0769C16.3795 23.9656 13.6185 25.8738 8.76079 25.8738H0V5.63452H8.26907Z" fill="#3180F1"/>
</g>
<path fill-rule="evenodd" clip-rule="evenodd" d="M22.1694 18.8624C22.1694 21.0019 23.5715 22.7222 25.7836 22.7222C27.9375 22.7222 29.3978 21.0744 29.3978 18.8624C29.3978 16.6503 27.9375 15.0025 25.7836 15.0025C23.5715 15.0025 22.1694 16.7229 22.1694 18.8624ZM32.9683 25.874H29.282V24.3272C28.3715 25.4544 27.0122 26.2354 25.0895 26.2354C21.2297 26.2354 18.3096 23.0692 18.3096 18.8624C18.3096 14.6555 21.2297 11.4897 25.0895 11.4897C27.0122 11.4897 28.3571 12.2704 29.282 13.412V11.8656H32.9683V25.874Z" fill="#3180F1"/>
<path fill-rule="evenodd" clip-rule="evenodd" d="M48.9657 16.9542V25.8741H45.1924V18.1684C45.1924 16.1447 44.1802 15.0315 42.4598 15.0315C40.8409 15.0315 39.4964 16.0866 39.4964 18.1972V25.8741H35.7231V11.8653H39.395V13.5135C40.3929 12.0244 41.9248 11.4894 43.5154 11.4894C46.6955 11.4894 48.9657 13.7014 48.9657 16.9542Z" fill="#3180F1"/>
<path fill-rule="evenodd" clip-rule="evenodd" d="M55.3159 18.8624C55.3159 21.0019 56.718 22.7222 58.9301 22.7222C61.084 22.7222 62.5443 21.0744 62.5443 18.8624C62.5443 16.6503 61.084 15.0025 58.9301 15.0025C56.718 15.0025 55.3159 16.7229 55.3159 18.8624ZM66.1148 25.874H62.4284V24.3272C61.518 25.4544 60.1587 26.2354 58.236 26.2354C54.3762 26.2354 51.4561 23.0692 51.4561 18.8624C51.4561 14.6555 54.3762 11.4897 58.236 11.4897C60.1587 11.4897 61.5036 12.2704 62.4284 13.412V11.8656H66.1148V25.874Z" fill="#3180F1"/>
<path fill-rule="evenodd" clip-rule="evenodd" d="M82.2138 16.9542V25.8741H78.4405V18.1684C78.4405 16.1447 77.4287 15.0315 75.7079 15.0315C74.0889 15.0315 72.7445 16.0866 72.7445 18.1972V25.8741H68.9712V11.8653H72.6431V13.5135C73.6409 12.0244 75.1729 11.4894 76.7634 11.4894C79.944 11.4894 82.2138 13.7014 82.2138 16.9542Z" fill="#3180F1"/>
<path fill-rule="evenodd" clip-rule="evenodd" d="M88.6172 18.8624C88.6172 21.0019 90.0193 22.7222 92.2314 22.7222C94.3853 22.7222 95.8456 21.0744 95.8456 18.8624C95.8456 16.6503 94.3853 15.0025 92.2314 15.0025C90.0193 15.0025 88.6172 16.7229 88.6172 18.8624ZM99.416 25.874H95.7297V24.3272C94.8188 25.4544 93.46 26.2354 91.5373 26.2354C87.6774 26.2354 84.7573 23.0692 84.7573 18.8624C84.7573 14.6555 87.6774 11.4897 91.5373 11.4897C93.46 11.4897 94.8049 12.2704 95.7297 13.412V11.8656H99.416V25.874Z" fill="#3180F1"/>
<path fill-rule="evenodd" clip-rule="evenodd" d="M112.682 15.7688C111.569 15.2194 109.791 14.6412 108.215 14.6263C106.784 14.6263 106.061 15.1324 106.061 15.8986C106.061 16.7081 107.072 16.9109 108.345 17.0989L109.588 17.2868C112.624 17.7492 114.316 19.1081 114.316 21.4788C114.316 24.3705 111.945 26.2355 107.882 26.2355C105.974 26.2355 103.473 25.8736 101.651 24.5873L103.14 21.7249C104.34 22.5199 105.801 23.0982 107.911 23.0982C109.66 23.0982 110.499 22.6069 110.499 21.7826C110.499 21.1029 109.791 20.727 108.171 20.4958L107.029 20.3367C103.791 19.8887 102.186 18.4722 102.186 16.0866C102.186 13.2097 104.413 11.5043 108.099 11.5043C110.34 11.5043 112.089 11.923 113.954 12.8339L112.682 15.7688Z" fill="#3180F1"/>
<path fill-rule="evenodd" clip-rule="evenodd" d="M126.592 18.6456C126.592 20.6697 127.966 22.3175 130.12 22.3175C132.216 22.3175 133.633 20.7274 133.633 18.6456C133.633 16.5494 132.216 14.9588 130.12 14.9588C127.966 14.9588 126.592 16.6075 126.592 18.6456ZM133.503 13.4264V11.8656H137.204V24.7175C137.204 29.2132 134.269 31.931 129.643 31.931C127.431 31.931 125.089 31.3527 123.513 30.2399L124.858 27.1607C126.26 28.0856 127.807 28.5917 129.484 28.5917C131.826 28.5917 133.474 27.2905 133.474 24.8761V23.8936C132.52 25.0641 131.103 25.787 129.166 25.787C125.754 25.787 122.718 22.939 122.718 18.6456C122.718 14.3373 125.754 11.4897 129.166 11.4897C131.118 11.4897 132.549 12.2415 133.503 13.4264Z" fill="#3180F1"/>
<path fill-rule="evenodd" clip-rule="evenodd" d="M152.929 16.9542V25.8741H149.156V18.1684C149.156 16.1447 148.144 15.0315 146.423 15.0315C144.805 15.0315 143.46 16.0866 143.46 18.1972V25.8741H139.687V11.8653H143.359V13.5135C144.356 12.0244 145.889 11.4894 147.479 11.4894C150.659 11.4894 152.929 13.7014 152.929 16.9542Z" fill="#3180F1"/>
<mask id="mask1_1370_7828" style="mask-type:alpha" maskUnits="userSpaceOnUse" x="155" y="20" width="6" height="7">
<path fill-rule="evenodd" clip-rule="evenodd" d="M155.097 20.6262H160.706V26.2352H155.097V20.6262Z" fill="white"/>
</mask>
<g mask="url(#mask1_1370_7828)">
<path fill-rule="evenodd" clip-rule="evenodd" d="M160.706 23.4161C160.706 24.9345 159.405 26.2352 157.916 26.2352C156.412 26.2352 155.097 24.9345 155.097 23.4161C155.097 21.913 156.412 20.6262 157.916 20.6262C159.405 20.6262 160.706 21.913 160.706 23.4161Z" fill="#3180F1"/>
</g>
<mask id="mask2_1370_7828" style="mask-type:alpha" maskUnits="userSpaceOnUse" x="102" y="0" width="32" height="9">
<path fill-rule="evenodd" clip-rule="evenodd" d="M102.73 0H133.874V8.08284H102.73V0Z" fill="white"/>
</mask>
<g mask="url(#mask2_1370_7828)">
<path fill-rule="evenodd" clip-rule="evenodd" d="M103.932 0.0945258C105.107 0.479427 106.278 0.854413 107.471 1.14331C108.656 1.45746 109.853 1.71841 111.059 1.91537C113.467 2.3192 115.901 2.55402 118.341 2.51165C120.779 2.53644 123.211 2.2854 125.613 1.86489C126.815 1.65982 128.008 1.3912 129.188 1.06985C130.376 0.773737 131.541 0.39154 132.709 -0.00012207L133.874 2.78613C131.761 4.63492 129.235 5.88788 126.592 6.76946C123.938 7.62985 121.138 8.06478 118.341 8.08236C115.544 8.09813 112.737 7.6961 110.07 6.86681C107.413 6.01678 104.868 4.79312 102.73 2.97002L103.932 0.0945258Z" fill="#FAE200"/>
</g>
</svg>
