<svg width="24" height="24" viewBox="0 0 20 20" fill="none" xmlns="http://www.w3.org/2000/svg">
<path fill-rule="evenodd" clip-rule="evenodd" d="M9.99906 1.66666C10.2733 1.66655 10.5112 1.85602 10.5725 2.12332C11.3444 5.49146 13.8661 8.19662 17.1295 9.22467C17.376 9.3017 17.6238 9.36933 17.8756 9.42657C18.1432 9.48739 18.3331 9.72523 18.3333 9.99966C18.3334 10.2741 18.1438 10.5121 17.8762 10.5733C17.625 10.6306 17.3757 10.6984 17.1297 10.7752C14.1106 11.7264 11.7255 14.1131 10.7758 17.1325C10.6989 17.3773 10.6312 17.6252 10.5739 17.8762C10.5128 18.1436 10.2751 18.3332 10.0008 18.3333C9.72659 18.3334 9.4887 18.1439 9.42745 17.8766C8.65548 14.5072 6.13395 11.8034 2.8705 10.7753C2.62396 10.6983 2.37617 10.6306 2.12433 10.5734C1.85661 10.5125 1.66663 10.2745 1.66663 9.99998C1.66663 9.72543 1.85661 9.48742 2.12433 9.42657C2.37606 9.36935 2.62374 9.30175 2.87017 9.22475C5.88952 8.27213 8.27444 5.88672 9.22411 2.86743C9.30099 2.62267 9.36867 2.37479 9.42601 2.12375C9.48707 1.85641 9.72482 1.66676 9.99906 1.66666ZM9.99951 4.16574C8.89587 6.7921 6.79352 8.89454 4.1675 9.99979C6.79365 11.1041 8.89602 13.2069 10.0005 15.834C11.1041 13.2078 13.2062 11.1046 15.8321 10C13.2061 8.89548 11.1039 6.79208 9.99951 4.16574Z" fill="#192833"/>
<path fill-rule="evenodd" clip-rule="evenodd" d="M9.99906 1.66666C10.2733 1.66655 10.5112 1.85602 10.5725 2.12332C11.3444 5.49146 13.8661 8.19662 17.1295 9.22467C17.376 9.3017 17.6238 9.36933 17.8756 9.42657C18.1432 9.48739 18.3331 9.72523 18.3333 9.99966C18.3334 10.2741 18.1438 10.5121 17.8762 10.5733C17.625 10.6306 17.3757 10.6984 17.1297 10.7752C14.1106 11.7264 11.7255 14.1131 10.7758 17.1325C10.6989 17.3773 10.6312 17.6252 10.5739 17.8762C10.5128 18.1436 10.2751 18.3332 10.0008 18.3333C9.72659 18.3334 9.4887 18.1439 9.42745 17.8766C8.65548 14.5072 6.13395 11.8034 2.8705 10.7753C2.62396 10.6983 2.37617 10.6306 2.12433 10.5734C1.85661 10.5125 1.66663 10.2745 1.66663 9.99998C1.66663 9.72543 1.85661 9.48742 2.12433 9.42657C2.37606 9.36935 2.62374 9.30175 2.87017 9.22475C5.88952 8.27213 8.27444 5.88672 9.22411 2.86743C9.30099 2.62267 9.36867 2.37479 9.42601 2.12375C9.48707 1.85641 9.72482 1.66676 9.99906 1.66666ZM9.99951 4.16574C8.89587 6.7921 6.79352 8.89454 4.1675 9.99979C6.79365 11.1041 8.89602 13.2069 10.0005 15.834C11.1041 13.2078 13.2062 11.1046 15.8321 10C13.2061 8.89548 11.1039 6.79208 9.99951 4.16574Z" fill="url(#paint0_linear_1346_6286)"/>
<path fill-rule="evenodd" clip-rule="evenodd" d="M2.25466 9.41054C2.57943 9.41054 2.8427 9.67382 2.8427 9.99858V17.1572H17.1572V9.99858C17.1572 9.67382 17.4205 9.41054 17.7453 9.41054C18.07 9.41054 18.3333 9.67382 18.3333 9.99858V17.7452C18.3333 18.07 18.07 18.3333 17.7453 18.3333H2.25466C1.9299 18.3333 1.66663 18.07 1.66663 17.7452V9.99858C1.66663 9.67382 1.9299 9.41054 2.25466 9.41054Z" fill="#192833"/>
<path fill-rule="evenodd" clip-rule="evenodd" d="M2.25466 9.41054C2.57943 9.41054 2.8427 9.67382 2.8427 9.99858V17.1572H17.1572V9.99858C17.1572 9.67382 17.4205 9.41054 17.7453 9.41054C18.07 9.41054 18.3333 9.67382 18.3333 9.99858V17.7452C18.3333 18.07 18.07 18.3333 17.7453 18.3333H2.25466C1.9299 18.3333 1.66663 18.07 1.66663 17.7452V9.99858C1.66663 9.67382 1.9299 9.41054 2.25466 9.41054Z" fill="url(#paint1_linear_1346_6286)"/>
<defs>
<linearGradient id="paint0_linear_1346_6286" x1="9.99996" y1="-0.323358" x2="9.99996" y2="20.2637" gradientUnits="userSpaceOnUse">
<stop stop-color="#FD8EA1"/>
<stop offset="1" stop-color="#928AFF"/>
</linearGradient>
<linearGradient id="paint1_linear_1346_6286" x1="9.99996" y1="-0.323358" x2="9.99996" y2="20.2637" gradientUnits="userSpaceOnUse">
<stop stop-color="#FD8EA1"/>
<stop offset="1" stop-color="#928AFF"/>
</linearGradient>
</defs>
</svg>
