<svg width="24" height="23" viewBox="0 0 24 23" fill="none" xmlns="http://www.w3.org/2000/svg">
<path d="M8.3431 17.1532L17.4575 1.53239C17.5019 1.45632 17.5255 1.36985 17.5257 1.28175C17.526 1.19365 17.503 1.10704 17.459 1.0307C17.4151 0.954351 17.3517 0.890981 17.2754 0.847005C17.199 0.803029 17.1124 0.780009 17.0243 0.780276H11.1528C11.0067 0.780758 10.8632 0.819493 10.7367 0.892627C10.6103 0.965761 10.5051 1.07074 10.4318 1.19713L0.988112 17.3772C0.914243 17.504 0.875121 17.6479 0.874698 17.7946C0.874275 17.9413 0.912565 18.0855 0.985702 18.2127C1.05884 18.3399 1.16423 18.4455 1.29124 18.5189C1.41825 18.5923 1.56238 18.6309 1.70907 18.6307H5.81381L4.04255 21.6689C3.96904 21.7953 3.93001 21.9388 3.92936 22.085C3.92872 22.2313 3.96648 22.3751 4.03887 22.5022C4.11126 22.6292 4.21575 22.735 4.34187 22.8091C4.468 22.8831 4.61135 22.9227 4.75758 22.9239H19.5492C19.7242 22.9238 19.8961 22.8779 20.0479 22.7907C20.1996 22.7036 20.3259 22.5781 20.414 22.4269L23.0516 17.9053C23.096 17.8294 23.1195 17.743 23.1199 17.6551C23.1202 17.5671 23.0973 17.4806 23.0535 17.4043C23.0097 17.328 22.9466 17.2646 22.8704 17.2205C22.7943 17.1764 22.7079 17.1532 22.6199 17.1532H8.3431ZM11.5222 2.2578H15.3213L6.63119 17.1532H2.82908L11.5222 2.2578ZM19.2821 21.4449H5.88353L7.52572 18.6263H20.9273L19.2821 21.4449Z" fill="#F2385A"/>
</svg>
