<svg width="32" height="32" viewBox="0 0 32 32" fill="none" xmlns="http://www.w3.org/2000/svg">
<rect width="32" height="32" rx="16" fill="#325167"/>
<path fill-rule="evenodd" clip-rule="evenodd" d="M10.782 8.34033C10.3591 8.34033 10.0162 8.68322 10.0162 9.10617V22.8934H9.6331C9.42162 22.8934 9.25 23.065 9.25 23.2765C9.25 23.488 9.42162 23.6596 9.6331 23.6596H12.5532V19.8537C12.5532 19.4308 12.8961 19.0879 13.319 19.0879H15.1383C15.5613 19.0879 15.9041 19.4308 15.9041 19.8537V23.6596H22.3669C22.5784 23.6596 22.75 23.488 22.75 23.2765C22.75 23.065 22.5784 22.8934 22.3669 22.8934H21.9838V12.5171C21.9838 12.0941 21.7486 11.7512 21.3257 11.7512H18.4415V9.10617C18.4415 8.68322 18.0986 8.34033 17.6757 8.34033H10.782ZM12.6968 10.4587C12.4853 10.4587 12.3137 10.6303 12.3137 10.8418V11.7153C12.3137 11.9268 12.4853 12.0984 12.6968 12.0984H13.4626C13.6741 12.0984 13.8457 11.9268 13.8457 11.7153V10.8418C13.8457 10.6303 13.6741 10.4587 13.4626 10.4587H12.6968ZM12.3137 13.5705C12.3137 13.359 12.4853 13.1874 12.6968 13.1874H13.4626C13.6741 13.1874 13.8457 13.359 13.8457 13.5705V14.4082C13.8457 14.6196 13.6741 14.7912 13.4626 14.7912H12.6968C12.4853 14.7912 12.3137 14.6196 12.3137 14.4082V13.5705ZM12.6968 15.8084C12.4853 15.8084 12.3137 15.98 12.3137 16.1915V17.0292C12.3137 17.2406 12.4853 17.4123 12.6968 17.4123H13.4626C13.6741 17.4123 13.8457 17.2406 13.8457 17.0292V16.1915C13.8457 15.98 13.6741 15.8084 13.4626 15.8084H12.6968ZM14.9947 10.4587C14.7832 10.4587 14.6116 10.6303 14.6116 10.8418V11.7153C14.6116 11.9268 14.7832 12.0984 14.9947 12.0984H15.7605C15.972 12.0984 16.1436 11.9268 16.1436 11.7153V10.8418C16.1436 10.6303 15.972 10.4587 15.7605 10.4587H14.9947ZM19.0278 14.3604C19.0278 14.1489 19.1994 13.9773 19.4109 13.9773H20.1767C20.3882 13.9773 20.5598 14.1489 20.5598 14.3604V15.2339C20.5598 15.4454 20.3882 15.617 20.1767 15.617H19.4109C19.1994 15.617 19.0278 15.4454 19.0278 15.2339V14.3604ZM19.4109 16.5983C19.1994 16.5983 19.0278 16.7699 19.0278 16.9814V17.8191C19.0278 18.0305 19.1994 18.2022 19.4109 18.2022H20.1767C20.3882 18.2022 20.5598 18.0305 20.5598 17.8191V16.9814C20.5598 16.7699 20.3882 16.5983 20.1767 16.5983H19.4109ZM19.0278 19.6742C19.0278 19.4628 19.1994 19.2911 19.4109 19.2911H20.1767C20.3882 19.2911 20.5598 19.4628 20.5598 19.6742V20.5119C20.5598 20.7233 20.3882 20.895 20.1767 20.895H19.4109C19.1994 20.895 19.0278 20.7233 19.0278 20.5119V19.6742ZM14.6116 13.5705C14.6116 13.359 14.7832 13.1874 14.9947 13.1874H15.7605C15.972 13.1874 16.1436 13.359 16.1436 13.5705V14.4082C16.1436 14.6196 15.972 14.7912 15.7605 14.7912H14.9947C14.7832 14.7912 14.6116 14.6196 14.6116 14.4082V13.5705ZM14.9947 15.8084C14.7832 15.8084 14.6116 15.98 14.6116 16.1915V17.0292C14.6116 17.2406 14.7832 17.4123 14.9947 17.4123H15.7605C15.972 17.4123 16.1436 17.2406 16.1436 17.0292V16.1915C16.1436 15.98 15.972 15.8084 15.7605 15.8084H14.9947Z" fill="white"/>
<path d="M15.1383 23.6596V19.8538H13.319V23.6596H15.1383Z" fill="white"/>
</svg>
