<svg width="201" height="186" viewBox="0 0 201 186" fill="none" xmlns="http://www.w3.org/2000/svg">
<circle cx="106.789" cy="91.7088" r="85.2139" fill="#E6F9FF" stroke="#D4F5FF"/>
<path d="M111.389 141.37H110.534V142.225V152.459V153.256L111.329 153.311C114.764 153.551 118.182 154.092 121.546 154.933L130.333 157.129C132.118 157.576 133.203 159.384 132.757 161.169C132.31 162.954 130.502 164.039 128.717 163.593L119.93 161.396C115.752 160.351 111.478 159.829 107.203 159.829C102.929 159.829 98.6547 160.351 94.4768 161.396L85.6897 163.593C83.905 164.039 82.0964 162.954 81.6502 161.169C81.2041 159.384 82.2892 157.576 84.0739 157.129L92.8611 154.933C96.2243 154.092 99.6431 153.551 103.078 153.311L103.872 153.256V152.459V142.225V141.37H103.018H90.2745C82.607 141.37 76.6455 141.37 71.865 140.979C67.0064 140.582 63.0737 139.766 59.5416 137.966C53.6647 134.972 48.8867 130.194 45.8922 124.317C44.0925 120.785 43.2762 116.852 42.8793 111.994C42.4887 107.213 42.488 101.252 42.4881 93.5836V93.209C42.488 85.5409 42.4887 79.5798 42.8793 74.7991C43.2762 69.9405 44.0925 66.0078 45.8922 62.4756C48.8867 56.5988 53.6647 51.8207 59.5416 48.8263C63.0737 47.0266 67.0064 46.2103 71.865 45.8133C76.6457 45.4227 82.6068 45.4221 90.2749 45.4221H124.132C131.8 45.4221 137.761 45.4227 142.542 45.8133C147.4 46.2103 151.333 47.0266 154.865 48.8263C160.742 51.8207 165.52 56.5988 168.514 62.4756C170.314 66.0078 171.131 69.9405 171.527 74.7991C171.918 79.5796 171.919 85.5406 171.919 93.2081V93.584C171.919 101.252 171.918 107.213 171.527 111.994C171.131 116.852 170.314 120.785 168.514 124.317C165.52 130.194 160.742 134.972 154.865 137.966C151.333 139.766 147.4 140.582 142.542 140.979C137.761 141.37 131.8 141.37 124.133 141.37H111.389Z" fill="white" stroke="#DAE4EC" stroke-width="1.70853"/>
<g clip-path="url(#clip0_1752_11919)">
<path d="M63.9314 97.6549L74.4086 79.7184C74.4591 79.631 74.4858 79.5318 74.4858 79.4308C74.4858 79.3299 74.4592 79.2307 74.4087 79.1432C74.3582 79.0557 74.2856 78.9831 74.1981 78.9325C74.1106 78.882 74.0113 78.8553 73.9102 78.8552H67.1549C66.9872 78.8553 66.8224 78.8991 66.6769 78.9824C66.5314 79.0657 66.4102 79.1855 66.3253 79.33L55.4765 97.9109C55.3921 98.0563 55.3475 98.2213 55.3472 98.3894C55.3468 98.5575 55.3907 98.7227 55.4745 98.8684C55.5582 99.0142 55.6789 99.1353 55.8244 99.2198C55.9699 99.3042 56.135 99.349 56.3033 99.3495H61.0219L58.9852 102.84C58.9007 102.985 58.8561 103.15 58.8559 103.319C58.8557 103.487 58.8998 103.652 58.9839 103.798C59.068 103.944 59.1891 104.065 59.335 104.15C59.4809 104.234 59.6464 104.278 59.8149 104.278H76.8111C77.0127 104.277 77.2106 104.224 77.385 104.123C77.5593 104.022 77.7042 103.877 77.805 103.703L80.8355 98.5238C80.8859 98.4366 80.9125 98.3376 80.9127 98.2369C80.9128 98.1362 80.8865 98.0372 80.8363 97.9498C80.7862 97.8625 80.7139 97.7898 80.6268 97.739C80.5397 97.6883 80.4408 97.6612 80.34 97.6606L63.9314 97.6549ZM67.5842 80.5528H71.9542L61.9697 97.6549H57.5938L67.5842 80.5528ZM76.5144 102.584H61.1054L62.9923 99.3524H78.3897L76.5144 102.584Z" fill="#F2385A"/>
</g>
<path fill-rule="evenodd" clip-rule="evenodd" d="M114.908 102.23H118.999V87.1108H114.908V102.23Z" fill="#3180F1"/>
<path fill-rule="evenodd" clip-rule="evenodd" d="M110.848 91.3774C109.641 90.7845 107.714 90.1605 106.006 90.1449C104.454 90.1449 103.671 90.6909 103.671 91.5177C103.671 92.3918 104.768 92.6099 106.147 92.813L107.494 93.0158C110.785 93.5148 112.619 94.9816 112.619 97.5404C112.619 100.661 110.049 102.674 105.645 102.674C103.577 102.674 100.865 102.284 98.8911 100.895L100.505 97.8056C101.806 98.664 103.389 99.288 105.676 99.288C107.573 99.288 108.482 98.7577 108.482 97.8683C108.482 97.1347 107.714 96.7292 105.959 96.4794L104.721 96.308C101.21 95.824 99.4709 94.2951 99.4709 91.7205C99.4709 88.6159 101.884 86.7747 105.88 86.7747C108.309 86.7747 110.205 87.2269 112.227 88.2102L110.848 91.3774Z" fill="#3180F1"/>
<path fill-rule="evenodd" clip-rule="evenodd" d="M125.941 94.4825C125.941 96.6668 127.429 98.4456 129.764 98.4456C132.037 98.4456 133.572 96.7291 133.572 94.4825C133.572 92.22 132.037 90.5037 129.764 90.5037C127.429 90.5037 125.941 92.2825 125.941 94.4825ZM133.431 88.8498V87.1648H137.443V101.036C137.443 105.888 134.262 108.821 129.247 108.821C126.849 108.821 124.311 108.197 122.603 106.996L124.06 103.672C125.58 104.671 127.257 105.217 129.075 105.217C131.613 105.217 133.4 103.813 133.4 101.207V100.146C132.366 101.41 130.83 102.19 128.73 102.19C125.032 102.19 121.741 99.1163 121.741 94.4824C121.741 89.8325 125.032 86.7593 128.73 86.7593C130.846 86.7593 132.397 87.5705 133.431 88.8498Z" fill="#3180F1"/>
<path fill-rule="evenodd" clip-rule="evenodd" d="M154.583 92.657V102.284H150.492V93.9675C150.492 91.7832 149.395 90.582 147.53 90.582C145.775 90.582 144.318 91.7205 144.318 93.9986V102.284H140.228V87.1648H144.208V88.9433C145.289 87.3364 146.95 86.7593 148.674 86.7593C152.122 86.7593 154.583 89.1461 154.583 92.657Z" fill="#3180F1"/>
<path fill-rule="evenodd" clip-rule="evenodd" d="M162.473 99.3838C162.473 100.916 161.154 102.23 159.644 102.23C158.12 102.23 156.786 100.916 156.786 99.3838C156.786 97.8665 158.12 96.5676 159.644 96.5676C161.154 96.5676 162.473 97.8665 162.473 99.3838Z" fill="#3180F1"/>
<path fill-rule="evenodd" clip-rule="evenodd" d="M101.775 74.6688C103.017 75.0746 104.256 75.4692 105.519 75.7734C106.772 76.1047 108.038 76.379 109.314 76.5866C111.861 77.012 114.437 77.259 117.017 77.2148C119.597 77.2409 122.169 76.9763 124.71 76.5336C125.982 76.3176 127.243 76.0348 128.492 75.696C129.748 75.384 130.981 74.9818 132.216 74.5691L133.449 77.504C131.214 79.4511 128.542 80.7705 125.745 81.699C122.938 82.6053 119.976 83.0636 117.017 83.082C114.058 83.0985 111.089 82.6751 108.268 81.8019C105.458 80.9062 102.765 79.6175 100.503 77.6974L101.775 74.6688Z" fill="#FAE200"/>
<g filter="url(#filter0_d_1752_11919)">
<path d="M60.7261 50.5375L56.5031 26.1925C54.9861 17.4473 43.3231 15.459 38.9942 23.2076L36.2775 28.0706C35.1295 30.1255 33.254 31.6762 31.0202 32.4177L25.4038 34.2819C17.017 37.0657 16.7312 48.8239 24.9729 52.0118L48.0438 60.9354C54.8759 63.5781 61.9782 57.7551 60.7261 50.5375Z" fill="#DA6668"/>
<path d="M60.7261 50.5375L56.5031 26.1925C54.9861 17.4473 43.3231 15.459 38.9942 23.2076L36.2775 28.0706C35.1295 30.1255 33.254 31.6762 31.0202 32.4177L25.4038 34.2819C17.017 37.0657 16.7312 48.8239 24.9729 52.0118L48.0438 60.9354C54.8759 63.5781 61.9782 57.7551 60.7261 50.5375Z" stroke="#FAB1A5" stroke-width="2.62298"/>
</g>
<path d="M187.75 142.951C187.524 144.196 187.187 145.328 186.736 146.459C184.031 153.25 177.944 158.003 170.956 159.135C168.476 159.587 165.997 159.474 163.404 159.022C152.358 156.758 145.145 145.78 147.512 134.69C149.879 123.599 160.699 116.356 171.745 118.733C175.69 119.525 179.296 121.449 182.114 124.391C187.074 129.031 189.215 136.161 187.75 142.951Z" fill="#00BA84"/>
<path fill-rule="evenodd" clip-rule="evenodd" d="M162.648 147.956L162.664 147.956L162.679 147.955C163.19 147.941 163.674 147.728 164.029 147.366L178.179 133.076C178.361 132.892 178.505 132.675 178.602 132.436C178.7 132.198 178.75 131.943 178.75 131.685C178.75 131.428 178.7 131.173 178.602 130.935C178.506 130.7 178.365 130.485 178.187 130.303C178.007 130.117 177.791 129.969 177.552 129.866C177.31 129.762 177.049 129.709 176.785 129.709C176.521 129.709 176.26 129.762 176.017 129.866C175.779 129.968 175.564 130.116 175.385 130.302L162.642 143.181L159.952 140.469C159.585 140.098 159.084 139.887 158.559 139.887C158.033 139.887 157.532 140.098 157.164 140.469C156.797 140.84 156.593 141.34 156.593 141.859C156.593 142.378 156.797 142.878 157.164 143.249L161.246 147.371L161.247 147.372C161.43 147.557 161.647 147.704 161.887 147.805C162.128 147.905 162.387 147.957 162.648 147.956ZM177.253 132.158L163.1 146.451C163.061 146.492 163.017 146.526 162.97 146.555C162.872 146.615 162.76 146.649 162.643 146.652C162.607 146.653 162.572 146.65 162.536 146.644C162.571 146.649 162.605 146.652 162.64 146.652C162.813 146.647 162.977 146.575 163.098 146.451L177.25 132.158C177.312 132.096 177.361 132.022 177.394 131.941C177.427 131.86 177.444 131.773 177.444 131.685C177.444 131.597 177.427 131.51 177.394 131.429C177.361 131.348 177.312 131.274 177.25 131.212C177.19 131.149 177.117 131.098 177.036 131.064C176.988 131.043 176.938 131.029 176.887 131.02C176.939 131.029 176.99 131.043 177.039 131.064C177.12 131.099 177.192 131.149 177.253 131.213C177.315 131.275 177.363 131.348 177.397 131.43C177.43 131.511 177.447 131.598 177.447 131.685C177.447 131.773 177.43 131.86 177.397 131.941C177.363 132.022 177.315 132.096 177.253 132.158ZM158.661 141.198C158.798 141.221 158.925 141.286 159.024 141.386L162.64 145.032L162.642 145.031L159.027 141.386C158.927 141.286 158.799 141.22 158.661 141.198Z" fill="white"/>
<rect x="51.9282" y="182.572" width="109.711" height="3.42847" fill="#F4F4F4"/>
<path opacity="0.73011" fill-rule="evenodd" clip-rule="evenodd" d="M39.8853 163.113C40.251 163.203 40.3843 163.654 40.1261 163.927L38.6072 165.539C38.5756 165.573 38.5596 165.618 38.563 165.664L38.7276 167.872C38.7555 168.248 38.3681 168.514 38.0278 168.353L36.0255 167.406C35.984 167.387 35.9361 167.385 35.8935 167.403L33.8438 168.242C33.4954 168.384 33.1227 168.098 33.1706 167.725L33.4521 165.528C33.4579 165.482 33.4443 165.436 33.4146 165.401L31.9833 163.711C31.74 163.424 31.8971 162.981 32.267 162.911L34.4432 162.5C34.4884 162.491 34.5279 162.464 34.5521 162.425L35.7172 160.542C35.9152 160.222 36.385 160.234 36.5658 160.564L37.6292 162.507C37.6513 162.547 37.6893 162.576 37.734 162.587L39.8853 163.113ZM39.8878 163.703C39.9739 163.612 39.9294 163.461 39.8075 163.432L37.6562 162.906C37.5222 162.873 37.4082 162.785 37.342 162.664L36.2785 160.722C36.2183 160.611 36.0617 160.607 35.9957 160.714L34.8306 162.598C34.758 162.715 34.6395 162.796 34.504 162.822L32.3278 163.233C32.2045 163.256 32.1521 163.404 32.2332 163.5L33.6645 165.19C33.7536 165.295 33.7944 165.433 33.7769 165.57L33.4954 167.766C33.4794 167.891 33.6037 167.986 33.7198 167.939L35.7695 167.1C35.8971 167.047 36.0408 167.051 36.1655 167.11L38.1677 168.057C38.2812 168.11 38.4103 168.022 38.401 167.897L38.2365 165.688C38.2262 165.55 38.2743 165.415 38.3688 165.315L39.8878 163.703Z" fill="#FAE200"/>
<path opacity="0.902331" d="M198.377 103.89C198.578 104.119 198.457 104.478 198.16 104.54L194.51 105.297C194.401 105.319 194.307 105.387 194.25 105.482L192.346 108.686C192.19 108.947 191.811 108.944 191.661 108.68L189.813 105.443C189.758 105.346 189.665 105.277 189.556 105.253L185.921 104.432C185.624 104.365 185.51 104.003 185.715 103.779L188.223 101.021C188.297 100.939 188.334 100.829 188.324 100.718L187.981 97.0065C187.953 96.704 188.262 96.4838 188.539 96.6088L191.936 98.1419C192.038 98.1876 192.154 98.1887 192.256 98.1447L195.68 96.6718C195.959 96.5518 196.264 96.7774 196.231 97.0793L195.822 100.784C195.81 100.895 195.845 101.005 195.918 101.089L198.377 103.89Z" fill="#E75382"/>
<path opacity="0.370759" d="M20.5808 80.8972C20.6723 80.6075 21.0423 80.5243 21.2491 80.7469L22.7589 82.3719C22.8346 82.4534 22.9411 82.4993 23.0524 82.4984L25.2705 82.4807C25.5742 82.4783 25.7677 82.8044 25.62 83.0698L24.541 85.0079C24.4869 85.1051 24.4762 85.2206 24.5114 85.3261L25.2137 87.4302C25.3099 87.7183 25.0595 88.0031 24.7614 87.9446L22.5848 87.5174C22.4756 87.496 22.3624 87.5214 22.2729 87.5875L20.4889 88.9057C20.2446 89.0862 19.8964 88.936 19.8599 88.6345L19.5936 86.4324C19.5802 86.3219 19.521 86.2221 19.4305 86.1574L17.6256 84.868C17.3784 84.6915 17.4136 84.3139 17.6891 84.186L19.7012 83.2523C19.8021 83.2054 19.8787 83.1183 19.9122 83.0122L20.5808 80.8972Z" fill="#F973A3"/>
<path opacity="0.806242" d="M32.9339 134.749C32.8014 134.977 32.4727 134.977 32.3402 134.749L30.714 131.957C30.6655 131.874 30.5841 131.815 30.4899 131.795L27.3322 131.111C27.0749 131.055 26.9733 130.743 27.1487 130.546L29.3013 128.137C29.3656 128.065 29.3967 127.969 29.3869 127.874L29.0614 124.659C29.0349 124.397 29.3008 124.204 29.5417 124.31L32.4982 125.613C32.5865 125.652 32.687 125.652 32.7753 125.613L35.7318 124.31C35.9727 124.204 36.2386 124.397 36.2121 124.659L35.8867 127.873C35.877 127.969 35.9081 128.065 35.9724 128.137L38.1251 130.546C38.3006 130.742 38.199 131.055 37.9417 131.111L34.784 131.794C34.6898 131.815 34.6084 131.874 34.5599 131.957L32.9339 134.749Z" fill="#F2385A"/>
<path d="M148.746 25.5576C148.444 25.5949 148.214 25.2931 148.331 25.0125L149.758 21.5692C149.801 21.4664 149.798 21.3504 149.751 21.2496L148.173 17.8729C148.044 17.5977 148.26 17.286 148.563 17.3099L152.279 17.6032C152.39 17.612 152.499 17.5737 152.58 17.4977L155.304 14.9533C155.526 14.746 155.889 14.8551 155.96 15.1505L156.83 18.7751C156.855 18.8833 156.926 18.9756 157.023 19.0294L160.285 20.8336C160.55 20.9807 160.559 21.3598 160.3 21.5184L157.121 23.4653C157.026 23.5234 156.96 23.6187 156.939 23.728L156.231 27.3874C156.173 27.6857 155.816 27.8108 155.585 27.6135L152.751 25.1921C152.666 25.1198 152.555 25.0864 152.445 25.1001L148.746 25.5576Z" fill="#FAE200"/>
<defs>
<filter id="filter0_d_1752_11919" x="12.9272" y="17.0632" width="53.967" height="55.2563" filterUnits="userSpaceOnUse" color-interpolation-filters="sRGB">
<feFlood flood-opacity="0" result="BackgroundImageFix"/>
<feColorMatrix in="SourceAlpha" type="matrix" values="0 0 0 0 0 0 0 0 0 0 0 0 0 0 0 0 0 0 127 0" result="hardAlpha"/>
<feOffset dy="4.71102"/>
<feGaussianBlur stdDeviation="2.35551"/>
<feComposite in2="hardAlpha" operator="out"/>
<feColorMatrix type="matrix" values="0 0 0 0 0 0 0 0 0 0 0 0 0 0 0 0 0 0 0.25 0"/>
<feBlend mode="normal" in2="BackgroundImageFix" result="effect1_dropShadow_1752_11919"/>
<feBlend mode="normal" in="SourceGraphic" in2="effect1_dropShadow_1752_11919" result="shape"/>
</filter>
<clipPath id="clip0_1752_11919">
<rect width="25.7136" height="25.7136" fill="white" transform="translate(55.3447 78.8552)"/>
</clipPath>
</defs>
</svg>
