<svg width="32" height="32" viewBox="0 0 32 32" fill="none" xmlns="http://www.w3.org/2000/svg">
<path d="M10.6863 23.3958L23.725 1.07419C23.7879 0.965375 23.821 0.841951 23.821 0.716307C23.8211 0.590664 23.788 0.467223 23.7251 0.35838C23.6623 0.249537 23.5719 0.159123 23.463 0.0962176C23.3541 0.033312 23.2306 0.000128798 23.1048 0L14.698 0C14.4892 5.52603e-05 14.2841 0.0546042 14.103 0.158237C13.9219 0.261871 13.7711 0.410988 13.6655 0.590802L0.164398 23.7144C0.0593828 23.8954 0.00386641 24.1007 0.00342067 24.3099C0.00297494 24.519 0.0576155 24.7246 0.161858 24.906C0.266101 25.0874 0.416279 25.2382 0.597319 25.3433C0.778359 25.4484 0.983893 25.5041 1.19329 25.5048H7.06551L4.53092 29.848C4.42575 30.0292 4.37023 30.2349 4.36994 30.4444C4.36966 30.6538 4.42461 30.8596 4.52928 31.0411C4.63394 31.2226 4.78463 31.3734 4.96617 31.4782C5.14771 31.5831 5.35369 31.6383 5.5634 31.6384H26.7148C26.9657 31.6375 27.212 31.5709 27.429 31.4452C27.646 31.3196 27.8262 31.1392 27.9517 30.9222L31.7231 24.4771C31.7858 24.3686 31.819 24.2455 31.8191 24.1201C31.8193 23.9948 31.7866 23.8716 31.7242 23.7629C31.6618 23.6541 31.5718 23.5636 31.4635 23.5005C31.3551 23.4373 31.232 23.4037 31.1065 23.4029L10.6863 23.3958ZM15.2321 2.11257H20.6706L8.24497 23.3958H2.79937L15.2321 2.11257ZM26.3456 29.5294H7.16947L9.51764 25.5083H28.6794L26.3456 29.5294Z" fill="#F2385A"/>
</svg>
