<svg width="32" height="32" viewBox="0 0 32 32" fill="none" xmlns="http://www.w3.org/2000/svg">
<g clip-path="url(#clip0_1197_29705)">
<path d="M23.8801 0H8.11986C3.63539 0 0 3.63539 0 8.11986V23.8801C0 28.3646 3.63539 32 8.11986 32H23.8801C28.3646 32 32 28.3646 32 23.8801V8.11986C32 3.63539 28.3646 0 23.8801 0Z" fill="#EF3C5B"/>
<path d="M15.333 24.7394H15.3259C14.4987 24.737 13.8353 24.3739 13.4579 23.7164C12.6639 22.3338 13.2099 19.7823 14.99 16.4724H7.73411C7.52287 16.4724 7.32705 16.3596 7.22143 16.1757C7.11581 15.9917 7.11581 15.7662 7.22143 15.5835C10.6547 9.66862 14.437 7.02332 16.6657 7.02332H16.6728C17.5 7.02569 18.1634 7.38884 18.5408 8.04631C19.3348 9.42889 18.7889 11.9804 17.0075 15.2903H24.2658C24.477 15.2903 24.6728 15.4031 24.7785 15.587C24.8841 15.771 24.8841 15.9965 24.7785 16.1792C21.3451 22.0941 17.5617 24.7394 15.333 24.7406V24.7394ZM16.3417 16.4735C14.2661 20.1359 14.0133 22.3089 14.4833 23.1278C14.5889 23.3117 14.7906 23.555 15.3282 23.5562H15.333C17.1096 23.5562 20.3138 21.1292 23.2191 16.4724H16.3406L16.3417 16.4735ZM8.78084 15.2903H15.657C17.7326 11.6268 17.9854 9.455 17.5155 8.63613C17.4098 8.45218 17.2081 8.2089 16.6705 8.20771H16.6657C14.8903 8.20771 11.686 10.6346 8.77965 15.2903H8.78084Z" fill="white"/>
</g>
<defs>
<clipPath id="clip0_1197_29705">
<rect width="32" height="32" fill="white"/>
</clipPath>
</defs>
</svg>
