<svg width="32" height="32" viewBox="0 0 32 32" fill="none" xmlns="http://www.w3.org/2000/svg">
<g clip-path="url(#clip0_1197_29704)">
<path d="M23.8801 0H8.11986C3.63539 0 0 3.63539 0 8.11986V23.8801C0 28.3646 3.63539 32 8.11986 32H23.8801C28.3646 32 32 28.3646 32 23.8801V8.11986C32 3.63539 28.3646 0 23.8801 0Z" fill="#F2385A"/>
<path d="M13.0745 20.1225L20.366 7.62586C20.4015 7.56501 20.4204 7.49583 20.4206 7.42535C20.4208 7.35487 20.4024 7.28558 20.3672 7.22451C20.332 7.16343 20.2813 7.11274 20.2203 7.07756C20.1592 7.04237 20.0899 7.02396 20.0194 7.02417H15.3222C15.2053 7.02456 15.0906 7.05555 14.9894 7.11405C14.8882 7.17256 14.8041 7.25655 14.7454 7.35765L7.19046 20.3017C7.13137 20.4031 7.10007 20.5183 7.09973 20.6357C7.0994 20.753 7.13003 20.8684 7.18854 20.9701C7.24705 21.0718 7.33136 21.1563 7.43297 21.215C7.53458 21.2738 7.64988 21.3046 7.76723 21.3045H11.051L9.63402 23.735C9.57521 23.8362 9.54398 23.951 9.54347 24.068C9.54295 24.185 9.57316 24.3 9.63107 24.4017C9.68898 24.5033 9.77257 24.588 9.87347 24.6472C9.97438 24.7064 10.0891 24.7381 10.206 24.7391H22.0393C22.1793 24.739 22.3169 24.7023 22.4383 24.6325C22.5597 24.5628 22.6607 24.4624 22.7312 24.3415L24.8413 20.7242C24.8768 20.6634 24.8956 20.5944 24.8959 20.524C24.8961 20.4536 24.8778 20.3844 24.8428 20.3234C24.8078 20.2623 24.7572 20.2116 24.6963 20.1764C24.6354 20.1411 24.5663 20.1225 24.4959 20.1225H13.0745ZM15.6177 8.20619H18.657L11.7049 20.1225H8.66324L15.6177 8.20619ZM21.8257 23.5558H11.1068L12.4205 21.301H23.1418L21.8257 23.5558Z" fill="white"/>
</g>
<defs>
<clipPath id="clip0_1197_29704">
<rect width="32" height="32" fill="white"/>
</clipPath>
</defs>
</svg>
