<svg width="211" height="178" viewBox="0 0 211 178" fill="none" xmlns="http://www.w3.org/2000/svg">
<circle cx="106" cy="81" r="81" fill="#F1F5F8"/>
<path d="M110.45 138.531H109.7V139.281V149.764V150.463L110.397 150.512C113.923 150.759 117.432 151.314 120.884 152.177L129.885 154.427C131.78 154.901 132.932 156.821 132.458 158.716C131.984 160.611 130.064 161.763 128.169 161.29L119.168 159.039C114.899 157.972 110.531 157.438 106.163 157.438C101.795 157.438 97.4268 157.972 93.1574 159.039L84.1567 161.29C82.2616 161.763 80.3413 160.611 79.8675 158.716C79.3937 156.821 80.5459 154.901 82.441 154.427L91.4417 152.177C94.8938 151.314 98.4029 150.759 101.928 150.512L102.626 150.463V149.764V139.281V138.531H101.876H88.8227C80.9708 138.531 74.8585 138.531 69.9556 138.13C64.9712 137.723 60.9247 136.885 57.2861 135.031C51.243 131.952 46.3297 127.038 43.2505 120.995C41.3966 117.357 40.5584 113.31 40.1511 108.326C39.7505 103.422 39.75 97.3107 39.75 89.4582V89.0745C39.75 81.222 39.7505 75.1102 40.1511 70.2071C40.5584 65.2227 41.3966 61.1762 43.2505 57.5376C46.3297 51.4944 51.243 46.5812 57.2861 43.502C60.9247 41.6481 64.9712 40.8098 69.9556 40.4026C74.8587 40.002 80.9705 40.0014 88.823 40.0015H123.503C131.355 40.0014 137.467 40.002 142.37 40.4026C147.354 40.8098 151.401 41.6481 155.04 43.502C161.083 46.5812 165.996 51.4944 169.075 57.5376C170.929 61.1762 171.767 65.2227 172.175 70.2071C172.575 75.11 172.576 81.2217 172.576 89.0736V89.4585C172.576 97.3104 172.575 103.423 172.175 108.326C171.767 113.31 170.929 117.357 169.075 120.995C165.996 127.038 161.083 131.952 155.04 135.031C151.401 136.885 147.354 137.723 142.37 138.13C137.467 138.531 131.355 138.531 123.504 138.531H110.45Z" fill="#FAB1A5" stroke="url(#paint0_linear_423_2491)" stroke-width="1.5"/>
<g filter="url(#filter0_d_423_2491)">
<path d="M60.8268 51.0465L52.2715 21.6712C50.1642 14.4356 40.1351 13.8611 37.2154 20.8089L33.4192 29.8423C32.645 31.6848 31.2092 33.1707 29.3944 34.0076L20.2286 38.2348C13.4152 41.3771 14.2865 51.3256 21.5423 53.2359L51.1091 61.0199C57.124 62.6034 62.566 57.0182 60.8268 51.0465Z" fill="#DA6668"/>
<path d="M60.8268 51.0465L52.2715 21.6712C50.1642 14.4356 40.1351 13.8611 37.2154 20.8089L33.4192 29.8423C32.645 31.6848 31.2092 33.1707 29.3944 34.0076L20.2286 38.2348C13.4152 41.3771 14.2865 51.3256 21.5423 53.2359L51.1091 61.0199C57.124 62.6034 62.566 57.0182 60.8268 51.0465Z" stroke="#FAB1A5" stroke-width="2.22711"/>
</g>
<path d="M191.908 130.229C191.659 131.603 191.287 132.852 190.789 134.101C187.803 141.595 181.086 146.841 173.372 148.091C170.636 148.59 167.899 148.466 165.038 147.966C152.846 145.468 144.884 133.351 147.497 121.111C150.109 108.87 162.052 100.876 174.243 103.499C178.597 104.373 182.578 106.496 185.688 109.744C191.163 114.865 193.526 122.734 191.908 130.229Z" fill="#20C9AD"/>
<path fill-rule="evenodd" clip-rule="evenodd" d="M164.194 135.753L164.211 135.753L164.228 135.753C164.792 135.737 165.325 135.502 165.718 135.102L181.335 119.33C181.536 119.127 181.695 118.887 181.803 118.624C181.911 118.361 181.966 118.079 181.966 117.796C181.966 117.512 181.911 117.23 181.803 116.967C181.696 116.708 181.541 116.471 181.344 116.27C181.145 116.065 180.907 115.901 180.644 115.788C180.376 115.673 180.088 115.614 179.797 115.614C179.505 115.614 179.217 115.673 178.949 115.788C178.687 115.9 178.449 116.064 178.251 116.268L164.187 130.483L161.218 127.49C160.813 127.08 160.26 126.848 159.68 126.848C159.1 126.848 158.547 127.081 158.141 127.49C157.736 127.9 157.511 128.452 157.511 129.024C157.511 129.597 157.736 130.149 158.141 130.558L162.646 135.108L162.648 135.11C162.849 135.313 163.088 135.476 163.353 135.586C163.619 135.698 163.905 135.754 164.194 135.753ZM179.853 117.055C179.835 117.053 179.816 117.052 179.797 117.052C179.7 117.052 179.605 117.072 179.516 117.11C179.427 117.148 179.347 117.204 179.28 117.274L164.189 132.527L164.189 132.527L179.281 117.274C179.348 117.204 179.428 117.148 179.517 117.11C179.606 117.072 179.701 117.052 179.798 117.052C179.816 117.052 179.835 117.053 179.853 117.055ZM159.735 128.288C159.717 128.287 159.698 128.286 159.68 128.286C159.486 128.286 159.3 128.364 159.163 128.502C159.026 128.641 158.949 128.829 158.949 129.024C158.949 129.22 159.026 129.408 159.163 129.546L163.671 134.099C163.725 134.154 163.787 134.199 163.855 134.234C163.872 134.243 163.89 134.252 163.908 134.259C163.98 134.289 164.055 134.307 164.132 134.313C164.056 134.307 163.981 134.289 163.909 134.259C163.821 134.222 163.74 134.168 163.672 134.099L159.164 129.546C159.027 129.408 158.95 129.22 158.95 129.024C158.95 128.829 159.027 128.641 159.164 128.503C159.301 128.364 159.487 128.286 159.681 128.286C159.699 128.286 159.717 128.287 159.735 128.288Z" fill="white"/>
<g clip-path="url(#clip0_423_2491)">
<path d="M100.528 97.4003L118.863 66.0106C118.952 65.8576 118.998 65.684 118.998 65.5073C118.998 65.3306 118.952 65.157 118.864 65.004C118.775 64.8509 118.648 64.7238 118.495 64.6353C118.342 64.5468 118.168 64.5002 117.991 64.5H106.169C105.876 64.5001 105.587 64.5768 105.332 64.7225C105.078 64.8683 104.866 65.078 104.717 65.3308L85.7313 97.8484C85.5836 98.1029 85.5055 98.3917 85.5049 98.6858C85.5043 98.9799 85.5811 99.269 85.7277 99.524C85.8743 99.7791 86.0855 99.9912 86.3401 100.139C86.5946 100.287 86.8837 100.365 87.1781 100.366H95.4359L91.8717 106.474C91.7238 106.729 91.6457 107.018 91.6453 107.312C91.6449 107.607 91.7222 107.896 91.8694 108.152C92.0166 108.407 92.2285 108.619 92.4838 108.766C92.739 108.914 93.0287 108.991 93.3236 108.991H123.068C123.421 108.99 123.767 108.897 124.072 108.72C124.377 108.543 124.631 108.29 124.807 107.984L130.111 98.9209C130.199 98.7683 130.245 98.5952 130.246 98.4189C130.246 98.2427 130.2 98.0694 130.112 97.9165C130.024 97.7636 129.898 97.6364 129.746 97.5476C129.593 97.4587 129.42 97.4114 129.244 97.4104L100.528 97.4003ZM106.92 67.4708H114.568L97.0946 97.4003H89.4367L106.92 67.4708ZM122.549 106.026H95.5821L98.8843 100.371H125.831L122.549 106.026Z" fill="white"/>
</g>
<rect x="44" y="174" width="128" height="4" rx="2" fill="#FFECEF"/>
<path opacity="0.73011" fill-rule="evenodd" clip-rule="evenodd" d="M17.9632 163.303C18.3899 163.407 18.5454 163.933 18.2442 164.252L16.472 166.133C16.4352 166.172 16.4165 166.225 16.4205 166.278L16.6125 168.855C16.6451 169.293 16.1931 169.603 15.796 169.416L13.46 168.311C13.4115 168.288 13.3556 168.287 13.306 168.307L10.9147 169.286C10.5082 169.452 10.0733 169.118 10.1291 168.683L10.4576 166.12C10.4644 166.067 10.4485 166.013 10.4139 165.972L8.74397 164C8.46012 163.665 8.64334 163.148 9.07492 163.067L11.6139 162.587C11.6666 162.577 11.7127 162.545 11.7409 162.5L13.1002 160.302C13.3313 159.929 13.8794 159.943 14.0903 160.329L15.3311 162.595C15.3568 162.642 15.4012 162.676 15.4533 162.689L17.9632 163.303ZM17.9662 163.99C18.0666 163.884 18.0147 163.709 17.8725 163.674L15.3625 163.06C15.2062 163.022 15.0732 162.92 14.9959 162.779L13.7552 160.512C13.6849 160.384 13.5022 160.379 13.4252 160.503L12.0659 162.701C11.9812 162.838 11.843 162.933 11.6849 162.962L9.14584 163.442C9.00198 163.469 8.94091 163.642 9.03553 163.753L10.7054 165.725C10.8094 165.848 10.857 166.009 10.8365 166.168L10.5081 168.731C10.4895 168.876 10.6344 168.988 10.7699 168.932L13.1613 167.953C13.3102 167.893 13.4778 167.897 13.6233 167.966L15.9593 169.07C16.0917 169.133 16.2424 169.029 16.2315 168.883L16.0395 166.306C16.0276 166.146 16.0836 165.988 16.194 165.871L17.9662 163.99Z" fill="#DA6668"/>
<path opacity="0.902331" d="M207.872 92.2106C208.105 92.4769 207.965 92.8965 207.618 92.9684L203.36 93.8512C203.233 93.8776 203.123 93.9562 203.056 94.0678L200.834 97.8061C200.653 98.1107 200.211 98.1068 200.035 97.799L197.88 94.0221C197.816 93.9093 197.707 93.8288 197.58 93.8002L193.338 92.8424C192.993 92.7643 192.86 92.3424 193.098 92.0802L196.024 88.8631C196.111 88.7671 196.154 88.6387 196.142 88.5095L195.743 84.1792C195.71 83.8263 196.07 83.5694 196.393 83.7152L200.357 85.5039C200.475 85.5572 200.611 85.5584 200.73 85.5071L204.725 83.7887C205.05 83.6487 205.406 83.9119 205.367 84.2642L204.891 88.5867C204.877 88.7157 204.917 88.8448 205.003 88.9424L207.872 92.2106Z" fill="#FF768F"/>
<path opacity="0.370759" d="M10.4392 69.3868C10.546 69.0489 10.9776 68.9518 11.2189 69.2114L12.9804 71.1073C13.0687 71.2024 13.193 71.256 13.3228 71.255L15.9107 71.2342C16.2651 71.2314 16.4908 71.6119 16.3184 71.9216L15.0596 74.1827C14.9965 74.2962 14.9839 74.4309 15.025 74.5541L15.8444 77.0088C15.9566 77.345 15.6645 77.6773 15.3167 77.609L12.7772 77.1106C12.6499 77.0856 12.5178 77.1153 12.4134 77.1924L10.332 78.7303C10.0469 78.9409 9.64066 78.7657 9.59811 78.4139L9.28741 75.8447C9.27182 75.7158 9.20277 75.5994 9.09713 75.5239L6.99136 74.0196C6.70298 73.8136 6.74403 73.3731 7.06549 73.2239L9.41294 72.1344C9.5307 72.0798 9.62006 71.9782 9.65919 71.8544L10.4392 69.3868Z" fill="#FCD7DE"/>
<path opacity="0.806242" d="M23.8518 129.214C23.6971 129.48 23.3137 129.48 23.159 129.214L21.2618 125.957C21.2052 125.86 21.1103 125.791 21.0003 125.767L17.3162 124.969C17.016 124.904 16.8975 124.54 17.1022 124.311L19.6136 121.5C19.6886 121.416 19.7248 121.304 19.7135 121.192L19.3337 117.442C19.3027 117.136 19.613 116.911 19.8941 117.035L23.3434 118.555C23.4464 118.6 23.5637 118.6 23.6667 118.555L27.116 117.035C27.3971 116.911 27.7074 117.136 27.6764 117.442L27.2968 121.192C27.2855 121.304 27.3217 121.416 27.3967 121.5L29.9083 124.31C30.113 124.539 29.9945 124.904 29.6943 124.969L26.0103 125.767C25.9003 125.791 25.8054 125.86 25.7488 125.957L23.8518 129.214Z" fill="#F2385A"/>
<path opacity="0.547916" d="M134.97 14.8235C134.618 14.867 134.35 14.5149 134.486 14.1875L136.151 10.1703C136.201 10.0503 136.198 9.91502 136.143 9.79741L134.301 5.85777C134.151 5.5367 134.403 5.17311 134.757 5.20099L139.092 5.54317C139.221 5.55338 139.349 5.50872 139.444 5.4201L142.622 2.45153C142.881 2.2096 143.305 2.33697 143.387 2.6816L144.401 6.91035C144.432 7.03659 144.514 7.14429 144.627 7.20713L148.433 9.3121C148.743 9.48364 148.752 9.92595 148.45 10.1111L144.742 12.3824C144.631 12.4502 144.554 12.5614 144.529 12.6889L143.703 16.9584C143.636 17.3063 143.218 17.4523 142.949 17.2221L139.643 14.3971C139.544 14.3128 139.415 14.2738 139.286 14.2898L134.97 14.8235Z" fill="#FF768F"/>
<defs>
<filter id="filter0_d_423_2491" x="10.4639" y="14.7939" width="55.8066" height="55.613" filterUnits="userSpaceOnUse" color-interpolation-filters="sRGB">
<feFlood flood-opacity="0" result="BackgroundImageFix"/>
<feColorMatrix in="SourceAlpha" type="matrix" values="0 0 0 0 0 0 0 0 0 0 0 0 0 0 0 0 0 0 127 0" result="hardAlpha"/>
<feOffset dy="4"/>
<feGaussianBlur stdDeviation="2"/>
<feComposite in2="hardAlpha" operator="out"/>
<feColorMatrix type="matrix" values="0 0 0 0 0 0 0 0 0 0 0 0 0 0 0 0 0 0 0.25 0"/>
<feBlend mode="normal" in2="BackgroundImageFix" result="effect1_dropShadow_423_2491"/>
<feBlend mode="normal" in="SourceGraphic" in2="effect1_dropShadow_423_2491" result="shape"/>
</filter>
<linearGradient id="paint0_linear_423_2491" x1="106.163" y1="39.2515" x2="106.163" y2="162.146" gradientUnits="userSpaceOnUse">
<stop stop-color="#F5A79A"/>
<stop offset="1" stop-color="white" stop-opacity="0"/>
</linearGradient>
<clipPath id="clip0_423_2491">
<rect width="45" height="45" fill="white" transform="translate(85.5 64.5)"/>
</clipPath>
</defs>
</svg>
