<svg width="321" height="313" fill="none" xmlns="http://www.w3.org/2000/svg">
  <path d="M282.338 269.81c-6.303 6.553-12.268 10.78-16.973 14.116-55.375 39.249-120.91 27.807-134.841 25.014-20.57-4.129-60.319-12.105-89.06-45.487-43.488-50.517-36.707-130.102-2.989-182.63 6.172-9.606 38.76-62.949 104.991-71.5 40.097-5.173 86.822 5.27 120.66 33.272 71.022 58.787 65.969 177.545 18.212 227.215Z" fill="#F4FCFF"/>
  <path d="M83.783 288.44c5.214.805 9.639-3.592 9.093-8.839-4.464-42.904-23.313-81.796-79.714-110.239-1.212-.612-1.923-.299-1.991 1.057-.743 14.714-2.27 106.47 72.612 118.021Z" fill="url(#a)"/>
  <path opacity=".51" d="M76.563 268.956a.478.478 0 0 1-.353-.147c-35.186-34.347-57.176-84.742-57.397-85.242a.507.507 0 0 1 .265-.662c.25-.103.544 0 .662.265.22.5 22.123 50.719 57.176 84.918.19.192.206.515.014.706a.527.527 0 0 1-.367.162Z" fill="#fff"/>
  <path d="M204.626 276.909c-1.621 5.021 2.081 10.061 7.353 10.262 37.867 1.443 74.123-9.997 106.292-54.282 1.707-2.351 1.014-4.188-1.848-4.688-19.02-3.327-92.234-11.893-111.797 48.708Z" fill="url(#b)"/>
  <path opacity=".51" d="M226.218 272.634a.512.512 0 0 1-.324-.118.508.508 0 0 1-.059-.706c12.709-14.974 33.508-24.491 48.718-29.831 16.46-5.781 30.111-8.075 30.243-8.09a.502.502 0 0 1 .574.412.49.49 0 0 1-.412.573c-.545.089-54.308 9.238-78.358 37.583a.473.473 0 0 1-.382.177Z" fill="#fff"/>
  <path d="M192.873 279.286c1.354 5.1 7.13 7.42 11.746 4.865 38.625-21.37 68.227-53.966 74.87-115.145.673-6.205-5.269-10.675-10.965-8.126-27.983 12.522-93.843 49.907-75.651 118.406Z" fill="url(#c)"/>
  <path opacity=".51" d="M203.241 271.928a.525.525 0 0 1-.162-.03.497.497 0 0 1-.308-.632c10.885-31.023 27.05-54.94 38.7-69.532 12.621-15.828 22.83-24.433 22.918-24.521a.508.508 0 0 1 .706.059.509.509 0 0 1-.059.706c-.397.338-40.598 34.523-61.324 93.611a.505.505 0 0 1-.471.339Z" fill="#fff"/>
  <path d="M276.58 61.427H27.751c-4.274 0-7.751 3.477-7.751 7.751v175.765c0 4.274 3.477 7.751 7.751 7.751h95.462s6.098 18.807-12.766 28.496h89.307s-21.258-7.295-15.787-28.496h92.556c4.274 0 7.751-3.477 7.751-7.751V69.178c.057-4.274-3.42-7.75-7.694-7.75Z" fill="#035970"/>
  <path d="M155.47 234.228c3.363 4.844-1.937 10.145-6.725 6.725-.171-.114-.285-.285-.399-.399-3.362-4.844 1.938-10.145 6.725-6.725.171.057.285.228.399.399Z" fill="#77C2D7"/>
  <path d="M280.056 220.114H24.274V69.711a5.497 5.497 0 0 1 5.528-5.529h244.726a5.497 5.497 0 0 1 5.528 5.529v150.403Z" fill="#fff"/>
  <path d="M280.056 77.613H24.274v-7.75a5.23 5.23 0 0 1 5.243-5.244h246.265a4.269 4.269 0 0 1 4.274 4.274v8.72Z" fill="#F1F5F8"/>
  <path d="M32.424 73.225a1.824 1.824 0 1 0 0-3.648 1.824 1.824 0 0 0 0 3.648Z" fill="#F2385A"/>
  <path d="M37.781 73.225a1.824 1.824 0 1 0 0-3.648 1.824 1.824 0 0 0 0 3.648Z" fill="#F2BE38"/>
  <path d="M42.853 73.225a1.824 1.824 0 1 0 0-3.648 1.824 1.824 0 0 0 0 3.648Z" fill="#20C9AD"/>
  <path d="M232.069 252.694c0 .057-35.392.171-79.049.171-43.656 0-79.048-.057-79.048-.171 0-.057 35.392-.171 79.048-.171 43.657.057 79.049.114 79.049.171ZM92.18 280.491h122.018v8.593H92.18z" fill="#102D42"/>
  <path d="M111.14 3.18.831 188.523c-2.424 4.076.743 9.046 5.773 9.091l218.663 1.803c5.061.046 8.318-4.924 5.939-9.03L122.852 3.241c-2.484-4.288-9.167-4.334-11.712-.06Z" fill="#FAB1A5"/>
  <path d="M111.7 14.257 11.514 182.584c-2.198 3.697.681 8.212 5.242 8.257l198.586 1.637c4.591.03 7.546-4.47 5.394-8.197L122.337 14.317c-2.257-3.909-8.333-3.94-10.637-.06Z" fill="#FCF0EE"/>
  <path d="m79.372 179.317-13.03.424v-23.274l13.03-.288v4.016l-8.212.197v5.106l7.652-.197v4.031l-7.652.212v5.985l8.212-.243v4.031Zm10.198-9.167v8.849l-4.743.152v-23.092l6.516-.152c3.03-.06 5.257.455 6.697 1.561 1.44 1.106 2.167 2.803 2.167 5.121 0 1.349-.364 2.561-1.076 3.637-.712 1.076-1.728 1.924-3.046 2.561 3.334 5.06 5.5 8.333 6.501 9.803l-5.198.167-5.303-8.667-2.515.06Zm0-3.985 1.53-.045c1.485-.046 2.591-.334 3.303-.864.712-.53 1.06-1.348 1.06-2.455 0-1.091-.363-1.863-1.09-2.303-.727-.439-1.849-.651-3.364-.606l-1.44.03v6.243Zm21.228 3.379v8.773l-4.652.152v-22.895l6.394-.137c2.97-.06 5.167.455 6.577 1.546 1.424 1.091 2.121 2.788 2.121 5.076 0 1.333-.349 2.53-1.061 3.591-.697 1.06-1.697 1.909-2.985 2.53a970.322 970.322 0 0 0 6.394 9.728l-5.106.167-5.212-8.592-2.47.061Zm0-3.94 1.5-.045c1.47-.046 2.546-.318 3.243-.849.697-.53 1.045-1.333 1.045-2.424 0-1.076-.348-1.849-1.061-2.288-.712-.439-1.818-.636-3.318-.606l-1.409.03v6.182Zm35.729.273c0 3.727-.879 6.606-2.621 8.667-1.743 2.061-4.258 3.137-7.546 3.243-3.288.106-5.819-.819-7.591-2.773-1.773-1.97-2.667-4.834-2.667-8.607 0-3.773.894-6.682 2.667-8.712 1.772-2.031 4.318-3.076 7.606-3.152 3.288-.076 5.803.864 7.531 2.818 1.742 1.955 2.621 4.789 2.621 8.516Zm-15.622.439c0 2.531.455 4.425 1.364 5.682.909 1.258 2.273 1.849 4.091 1.788 3.621-.106 5.424-2.697 5.424-7.773s-1.803-7.576-5.394-7.485c-1.803.046-3.182.712-4.091 2.031-.939 1.303-1.394 3.227-1.394 5.757Zm25.229 1.94v8.591l-4.486.137v-22.456l6.152-.136c2.864-.061 4.97.439 6.334 1.515 1.364 1.076 2.046 2.727 2.046 4.985 0 1.318-.334 2.485-1.016 3.53-.682 1.046-1.636 1.864-2.879 2.485 3.152 4.925 5.198 8.107 6.152 9.546l-4.909.152-5.016-8.425-2.378.076Zm0-3.864 1.439-.045c1.409-.031 2.455-.319 3.121-.834.667-.515 1-1.318 1-2.379 0-1.06-.348-1.803-1.03-2.242-.682-.44-1.742-.637-3.182-.591l-1.348.03v6.061Z" fill="#DA6668"/>
  <path d="m64.972 118.559 2.736-17.759a3.797 3.797 0 0 1 3.761-3.374h.502a3.793 3.793 0 0 1 3.784 4.035l-2.052 12.538c-.022.502.365.935.867.935h6.61c.73 0 1.3-.57 1.323-1.299l1.026-12.538a3.78 3.78 0 0 1 3.784-3.74h1.071c2.052 0 2.873 1.642 2.918 3.694l1.072 43.062a1.723 1.723 0 0 1-1.733 1.756h-6.155c-.935 0-1.71-.753-1.732-1.71l-.297-21.041h-13.45c-2.393-.023-4.285-2.143-4.035-4.559Z" fill="#fff"/>
  <path d="m67.708 118.558 1.96-17.759a3.797 3.797 0 0 1 3.762-3.374 3.793 3.793 0 0 1 3.784 4.035l-.775 12.538c-.023.502.365.935.866.935h6.611c.73 0 1.3-.57 1.322-1.299l.16-12.538a3.78 3.78 0 0 1 3.784-3.74h1.072a3.786 3.786 0 0 1 3.784 3.694l1.071 43.062a1.723 1.723 0 0 1-1.732 1.756h-6.155c-.935 0-1.71-.753-1.733-1.71l-.296-21.041h-13.45c-2.394-.023-4.286-2.143-4.035-4.559Z" fill="#DA6668"/>
  <path d="m136.462 118.558 2.735-17.759a3.798 3.798 0 0 1 3.762-3.373h.501a3.794 3.794 0 0 1 3.785 4.035l-2.052 12.538c-.023.501.365.934.866.934h6.611c.73 0 1.3-.57 1.322-1.299l1.026-12.538a3.78 3.78 0 0 1 3.784-3.739h1.072c2.051 0 2.872 1.642 2.918 3.693l1.071 43.063a1.722 1.722 0 0 1-1.732 1.755h-6.155c-.935 0-1.71-.752-1.733-1.71l-.296-21.041h-13.45c-2.394-.023-4.309-2.143-4.035-4.559Z" fill="#fff"/>
  <path d="m139.197 118.558 1.961-17.759a3.796 3.796 0 0 1 3.761-3.374 3.794 3.794 0 0 1 3.785 4.035l-.776 12.538c-.022.502.365.935.867.935h6.611c.729 0 1.299-.57 1.322-1.299l.159-12.538a3.78 3.78 0 0 1 3.785-3.74h1.071a3.785 3.785 0 0 1 3.784 3.694l1.072 43.062a1.723 1.723 0 0 1-1.733 1.756h-6.155c-.934 0-1.71-.753-1.732-1.71l-.297-21.041h-13.45c-2.393-.023-4.308-2.143-4.035-4.559Zm-23.217 27.405c13.233 0 18.895-11.706 18.895-24.303 0-12.597-5.662-24.303-18.895-24.303-13.169 0-18.895 11.706-18.895 24.303 0 12.597 5.726 24.303 18.895 24.303Zm0-8.143c-7.189 0-10.179-7.253-10.179-16.16 0-8.843 3.054-16.16 10.179-16.16 7.189 0 10.179 7.317 10.179 16.16 0 8.907-2.926 16.16-10.179 16.16Z" fill="#DA6668"/>
  <path d="M261.296 197.297c12.758-12.758 12.758-33.441 0-46.198-12.757-12.757-33.44-12.757-46.197 0-12.757 12.757-12.757 33.44 0 46.198 12.757 12.757 33.44 12.757 46.197 0Z" fill="#fff"/>
  <path d="M238.198 205.78c17.44 0 31.578-14.138 31.578-31.578 0-17.44-14.138-31.578-31.578-31.578-17.44 0-31.578 14.138-31.578 31.578 0 17.44 14.138 31.578 31.578 31.578Z" fill="#F2BE38"/>
  <path opacity=".7" d="M264.239 161.413a.36.36 0 0 0 .151-.034.343.343 0 0 0 .15-.452c-5.05-10.009-15.14-16.218-26.342-16.218-1.784 0-3.579.162-5.317.475a.327.327 0 0 0-.266.382.332.332 0 0 0 .394.267 28.833 28.833 0 0 1 5.201-.463c10.947 0 20.805 6.07 25.74 15.846a.298.298 0 0 0 .289.197Z" fill="#fff"/>
  <path d="M256.398 193.784c10.437-10.436 10.437-27.357 0-37.793-10.436-10.437-27.357-10.437-37.793 0-10.437 10.436-10.437 27.357 0 37.793 10.436 10.437 27.357 10.437 37.793 0Z" fill="#fff"/>
  <path d="m239.161 180.087-3.023-.07c-.846-.023-1.541-.741-1.587-1.587l-1.112-21.314c-.024-.441.139-.8.44-1.101.301-.301.718-.394 1.158-.359l5.213.359c.429.035.834.174 1.124.51.289.336.44.73.428 1.158l-1.077 20.921c-.046.834-.73 1.506-1.564 1.483Zm-4.67 5.201c.753-.718 1.819-1.066 3.186-1.054 1.413.023 2.479.394 3.209 1.112.73.718 1.089 1.761 1.089 3.139 0 1.332-.371 2.363-1.112 3.093-.753.73-1.808 1.101-3.186 1.101-1.355 0-2.409-.383-3.174-1.136-.765-.764-1.147-1.795-1.147-3.116 0-1.367.382-2.409 1.135-3.139Z" fill="#F2BE38"/>
  <defs>
    <linearGradient id="a" x1="-71.001" y1="92.749" x2="32.663" y2="303.408" gradientUnits="userSpaceOnUse">
      <stop stop-color="#20C9AD"/>
      <stop offset="1" stop-color="#fff"/>
    </linearGradient>
    <linearGradient id="b" x1="84.196" y1="187.348" x2="106.632" y2="316.391" gradientUnits="userSpaceOnUse">
      <stop stop-color="#20C9AD"/>
      <stop offset="1" stop-color="#fff"/>
    </linearGradient>
    <linearGradient id="c" x1="99.68" y1="73.069" x2="213.213" y2="304.191" gradientUnits="userSpaceOnUse">
      <stop stop-color="#20C9AD"/>
      <stop offset="1" stop-color="#fff"/>
    </linearGradient>
  </defs>
</svg>
