<svg width="241" height="184" viewBox="0 0 241 184" fill="none" xmlns="http://www.w3.org/2000/svg">
<mask id="mask0_8240_8231" style="mask-type:alpha" maskUnits="userSpaceOnUse" x="0" y="0" width="241" height="184">
<rect x="0.5" width="240" height="184" fill="#D9D9D9"/>
</mask>
<g mask="url(#mask0_8240_8231)">
<path d="M229.38 79.5703C230.39 90.9593 234.079 155.904 187.955 164.305C186.155 164.632 184.453 163.449 184.215 161.635C182.771 150.662 181.783 112.911 228.145 78.6483C228.618 78.3029 229.314 78.805 229.38 79.5703Z" fill="url(#paint0_linear_8240_8231)"/>
<path d="M224.364 88.5238C224.364 88.5238 224.102 89.798 223.58 92.016C223.32 93.1306 222.988 94.4707 222.592 96.0125C222.196 97.5543 221.735 99.2866 221.203 101.165C220.67 103.043 220.069 105.077 219.412 107.21C218.744 109.345 218.024 111.6 217.209 113.901C216.418 116.211 215.544 118.577 214.628 120.971C214.165 122.168 213.678 123.358 213.193 124.558C212.684 125.75 212.198 126.951 211.667 128.146C211.135 129.33 210.625 130.522 210.057 131.688C209.783 132.269 209.499 132.852 209.226 133.434C208.952 134.015 208.655 134.588 208.37 135.16C208.084 135.731 207.798 136.303 207.511 136.864C207.212 137.426 206.912 137.976 206.613 138.527C206.036 139.637 205.409 140.696 204.803 141.753C203.58 143.857 202.317 145.829 201.069 147.662C200.77 148.133 200.443 148.562 200.118 149.003C199.803 149.441 199.487 149.869 199.181 150.284C198.876 150.71 198.558 151.115 198.247 151.497C197.938 151.889 197.627 152.271 197.328 152.651C197.172 152.842 197.028 153.031 196.882 153.209C196.726 153.388 196.569 153.568 196.422 153.735C196.118 154.081 195.812 154.417 195.529 154.749C195.233 155.072 194.961 155.402 194.673 155.701C194.386 156 194.097 156.288 193.817 156.563C193.538 156.838 193.281 157.11 193.022 157.371C192.892 157.501 192.763 157.632 192.643 157.749C192.512 157.869 192.38 157.977 192.26 158.095C191.756 158.547 191.292 158.959 190.879 159.331C190.467 159.714 190.067 160.016 189.729 160.276C189.381 160.537 189.095 160.767 188.861 160.957C188.391 161.324 188.135 161.517 188.135 161.517L188.104 161.543C187.838 161.748 187.798 162.129 188 162.388C188.204 162.657 188.581 162.7 188.836 162.496C188.836 162.496 189.091 162.293 189.582 161.911C189.827 161.72 190.124 161.488 190.47 161.205C190.817 160.932 191.227 160.618 191.648 160.222C192.071 159.837 192.545 159.412 193.057 158.937C193.188 158.817 193.319 158.698 193.449 158.579C193.579 158.448 193.708 158.318 193.838 158.187C194.095 157.915 194.363 157.642 194.641 157.356C194.919 157.069 195.207 156.771 195.506 156.47C195.792 156.16 196.075 155.828 196.368 155.483C196.662 155.149 196.966 154.803 197.269 154.445C197.425 154.266 197.582 154.086 197.739 153.907C197.883 153.717 198.038 153.527 198.194 153.336C198.492 152.945 198.812 152.551 199.121 152.158C199.44 151.753 199.759 151.348 200.062 150.91C200.367 150.484 200.681 150.045 201.005 149.594C201.32 149.155 201.655 148.702 201.954 148.231C203.208 146.363 204.467 144.357 205.675 142.221C206.279 141.153 206.904 140.071 207.478 138.95C207.777 138.388 208.064 137.828 208.362 137.266C208.648 136.694 208.934 136.123 209.219 135.54C209.503 134.957 209.789 134.385 210.073 133.802C210.345 133.21 210.618 132.628 210.89 132.036C211.446 130.86 211.954 129.657 212.485 128.462C213.005 127.268 213.488 126.045 213.984 124.843C214.457 123.633 214.941 122.421 215.393 121.225C216.295 118.81 217.157 116.434 217.923 114.105C218.713 111.784 219.42 109.52 220.075 107.375C220.718 105.221 221.309 103.188 221.827 101.289C223.894 93.7282 224.901 88.5799 224.901 88.5799C224.927 88.4399 224.842 88.3029 224.703 88.2753C224.526 88.2981 224.391 88.3838 224.364 88.5238Z" fill="white"/>
<path d="M14.3462 107.158C16.6913 114.967 30.5582 158.023 50.8595 156.823C52.7386 156.712 53.8435 154.833 53.3193 153.024C50.7639 144.204 41.4381 119.456 14.6308 106.262C14.3478 106.125 14.1831 106.617 14.3462 107.158Z" fill="url(#paint1_linear_8240_8231)"/>
<path d="M18.6639 112.246C18.6639 112.246 19.0902 113.066 19.8597 114.479C20.2455 115.19 20.7175 116.041 21.2662 117.016C21.8149 117.992 22.4382 119.084 23.1275 120.262C23.8167 121.44 24.5739 122.711 25.3784 124.037C26.1879 125.362 27.049 126.759 27.9613 128.168C28.8658 129.587 29.8188 131.027 30.7961 132.478C31.2871 133.203 31.786 133.917 32.287 134.639C32.7958 135.35 33.2968 136.072 33.8155 136.781C34.3321 137.481 34.8408 138.193 35.3679 138.873C35.6265 139.215 35.89 139.555 36.1486 139.896C36.4072 140.238 36.6735 140.569 36.9348 140.901C37.1962 141.233 37.4575 141.565 37.7167 141.89C37.9809 142.212 38.2428 142.527 38.5048 142.842C39.021 143.482 39.5461 144.077 40.0613 144.675C41.0945 145.861 42.1115 146.948 43.0874 147.943C43.3292 148.203 43.5721 148.429 43.8172 148.662C44.0574 148.897 44.2954 149.124 44.5262 149.344C44.7593 149.572 44.9929 149.783 45.2172 149.979C45.4437 150.183 45.668 150.379 45.8873 150.577C45.9995 150.675 46.1067 150.775 46.2117 150.866C46.3216 150.956 46.4316 151.046 46.5344 151.13C46.7472 151.303 46.9579 151.469 47.1585 151.637C47.362 151.796 47.5577 151.965 47.7519 152.11C47.946 152.254 48.138 152.39 48.3228 152.52C48.5076 152.65 48.6825 152.782 48.8553 152.906C48.9416 152.968 49.028 153.031 49.1072 153.086C49.1913 153.14 49.2733 153.187 49.3526 153.242C49.675 153.446 49.971 153.631 50.2356 153.798C50.5024 153.974 50.7441 154.097 50.9494 154.204C51.1596 154.309 51.3357 154.407 51.4805 154.487C51.7678 154.64 51.9224 154.718 51.9224 154.718L51.9417 154.73C52.1035 154.814 52.2152 155.067 52.1951 155.288C52.1773 155.516 52.0309 155.626 51.874 155.54C51.874 155.54 51.7172 155.454 51.4178 155.296C51.2681 155.217 51.087 155.121 50.8724 154.999C50.6599 154.886 50.4112 154.757 50.1372 154.574C49.8654 154.4 49.5623 154.208 49.2305 153.99C49.1463 153.936 49.0622 153.882 48.978 153.827C48.8916 153.765 48.8053 153.703 48.7189 153.641C48.544 153.509 48.3642 153.378 48.1772 153.24C47.9902 153.102 47.796 152.958 47.5969 152.815C47.4006 152.663 47.1999 152.495 46.9921 152.32C46.7864 152.153 46.5736 151.979 46.3586 151.798C46.2487 151.708 46.1387 151.618 46.0287 151.527C45.9215 151.428 45.8094 151.33 45.6972 151.232C45.4757 151.026 45.2443 150.823 45.0178 150.619C44.7841 150.409 44.5505 150.198 44.3153 149.962C44.0823 149.733 43.8421 149.499 43.5948 149.257C43.3546 149.022 43.1024 148.782 42.8606 148.522C41.8732 147.504 40.8497 146.393 39.8149 145.182C39.2975 144.576 38.768 143.965 38.2497 143.317C37.9855 142.994 37.7263 142.67 37.4622 142.347C37.2008 142.015 36.9395 141.683 36.6759 141.342C36.4124 141.002 36.1511 140.67 35.8875 140.33C35.6268 139.98 35.3682 139.639 35.1075 139.289C34.5832 138.599 34.0722 137.88 33.5535 137.172C33.0398 136.462 32.5344 135.724 32.0284 135.003C31.5301 134.272 31.0269 133.542 30.5408 132.816C29.5642 131.347 28.614 129.898 27.715 128.459C26.8083 127.032 25.95 125.626 25.1433 124.291C24.3394 122.947 23.5871 121.675 22.8985 120.48C20.1556 115.723 18.4545 112.398 18.4545 112.398C18.4084 112.308 18.4099 112.195 18.4608 112.147C18.5402 112.125 18.6179 112.155 18.6639 112.246Z" fill="white"/>
<path d="M17.0458 55.9401C17.0051 55.0651 17.5641 55.2549 18.1047 55.8283C45.6044 85.0661 63.1888 137.107 61.9148 156.737C61.7875 158.698 59.914 159.83 58.1381 159.002C48.511 154.514 20.691 134.794 17.0458 55.9401Z" fill="url(#paint2_linear_8240_8231)"/>
<path d="M20.4493 67.6909C20.4493 67.6909 20.4733 67.7789 20.519 67.947C20.5698 68.1137 20.6352 68.3537 20.7366 68.6871C20.9303 69.3391 21.2337 70.2964 21.6119 71.5083C21.995 72.7189 22.4721 74.1961 23.0257 75.8759C23.5794 77.5556 24.2238 79.4512 24.9289 81.5107C25.639 83.5688 26.4169 85.7975 27.2623 88.1366C28.1049 90.4851 29.0177 92.9346 29.9715 95.476C30.9332 98.0067 31.9386 100.62 32.9925 103.254C33.2572 103.912 33.522 104.571 33.7889 105.237C34.0585 105.894 34.3304 106.559 34.6023 107.223C35.141 108.555 35.7074 109.869 36.266 111.195C36.8247 112.521 37.4038 113.823 37.9652 115.14C38.5393 116.444 39.1162 117.738 39.6888 119.017C40.2762 120.292 40.8466 121.562 41.4353 122.802C41.731 123.418 42.0218 124.034 42.3104 124.643C42.4571 124.946 42.599 125.251 42.7457 125.555C42.8925 125.859 43.0421 126.153 43.1867 126.448C43.4808 127.038 43.77 127.63 44.057 128.213C44.2016 128.508 44.344 128.796 44.4865 129.084C44.6338 129.37 44.7812 129.656 44.9215 129.936C45.5066 131.065 46.0527 132.187 46.6282 133.241C46.912 133.774 47.1887 134.3 47.4633 134.818C47.602 135.072 47.7378 135.336 47.8694 135.583C48.008 135.837 48.1445 136.084 48.281 136.33C48.8319 137.313 49.3492 138.272 49.8662 139.17C50.3882 140.067 50.8893 140.927 51.3625 141.742C51.8434 142.547 52.3112 143.304 52.7461 144.019C52.965 144.371 53.1767 144.717 53.3812 145.057C53.5913 145.377 53.7943 145.691 53.9901 145.998C54.3774 146.597 54.7368 147.152 55.0588 147.648C55.3808 148.144 55.6882 148.567 55.9406 148.944C56.1979 149.321 56.418 149.638 56.5958 149.899C56.9514 150.42 57.1434 150.694 57.1434 150.694C57.1764 150.737 57.1811 150.813 57.1578 150.845C57.1368 150.885 57.0905 150.872 57.0575 150.83C57.0575 150.83 56.8655 150.556 56.4972 150.047C56.1388 149.535 55.5965 148.798 54.9248 147.822C54.5978 147.328 54.2307 146.784 53.8335 146.188C53.6349 145.89 53.427 145.577 53.2168 145.257C53.0095 144.927 52.7928 144.582 52.569 144.231C52.1242 143.52 51.6458 142.783 51.1578 141.971C50.6747 141.158 50.1686 140.3 49.6389 139.414C49.1119 138.518 48.5847 137.562 48.0288 136.58C47.8923 136.334 47.7508 136.089 47.6072 135.836C47.4686 135.582 47.3299 135.328 47.1912 135.074C46.9117 134.557 46.63 134.033 46.3412 133.501C45.1958 131.374 44.036 129.096 42.8556 126.703C42.711 126.408 42.5593 126.106 42.4125 125.802C42.2657 125.498 42.1239 125.193 41.9771 124.89C41.6836 124.282 41.3928 123.666 41.0949 123.043C40.5013 121.804 39.9287 120.525 39.3313 119.253C38.7516 117.968 38.1697 116.675 37.5885 115.364C37.3039 114.711 37.0171 114.051 36.7353 113.388C36.4486 112.728 36.164 112.075 35.885 111.404C35.3313 110.077 34.7677 108.752 34.2289 107.421C33.9571 106.756 33.6852 106.092 33.4155 105.435C33.1486 104.768 32.8889 104.109 32.622 103.443C31.5659 100.8 30.5682 98.1764 29.6094 95.6363C28.6632 93.0841 27.761 90.6145 26.9333 88.2619C26.1007 85.9106 25.3355 83.6698 24.6353 81.609C23.2455 77.4671 22.1547 73.9913 21.411 71.5552C21.0406 70.3325 20.7571 69.3697 20.5684 68.7163C20.4741 68.3896 20.4021 68.1255 20.3564 67.9575C20.3156 67.7881 20.2916 67.7001 20.2916 67.7001C20.2763 67.6441 20.2931 67.5878 20.3328 67.5768C20.3676 67.5672 20.4104 67.607 20.4257 67.663L20.4493 67.6909Z" fill="white"/>
<path d="M201.335 9.41865L98.9764 6.08932C96.6375 6.01334 94.7311 7.60942 94.7259 9.65401L94.307 173.884C94.3018 175.929 96.2 177.498 98.5394 177.386L200.919 172.512C203.034 172.412 204.755 170.757 204.76 168.816L205.157 13.0561C205.162 11.1148 203.453 9.48494 201.335 9.41865Z" fill="#67A4BA"/>
<path d="M201.404 11.7354L98.7887 8.52087C97.8266 8.4911 97.0422 9.14628 97.04 9.98219L96.6229 173.515C96.6208 174.351 97.4019 174.995 98.3642 174.949L201 170.195C201.873 170.155 202.581 169.475 202.584 168.682L202.98 13.2266C202.982 12.4301 202.277 11.7619 201.404 11.7354Z" fill="white"/>
<path d="M118.43 157.294L97.4202 157.973C91.6122 157.634 84.9379 157.742 77.8205 157.973C70.7031 158.204 63.9484 158.503 58.0664 159.189L36.5128 159.867V164.294C36.5128 167.119 55.1321 168.823 77.9011 168.11C100.455 167.431 118.544 164.437 118.497 161.66V161.49L118.43 157.294Z" fill="#4690A4"/>
<path d="M118.47 157.342C118.51 160.119 100.435 162.923 77.8943 163.609C55.1455 164.288 36.5463 162.577 36.5463 159.752C36.5463 156.928 55.1119 154.123 77.8204 153.478C100.28 152.84 118.39 154.572 118.47 157.342Z" fill="#B2ECFC"/>
<path d="M91.9548 92.0028L81.5406 100.286L92.1697 108.292C98.0519 112.749 102.839 118.518 106.157 125.15C109.476 131.783 111.238 139.099 111.306 146.532L111.454 156.961C111.454 157.151 111.286 157.321 110.991 157.518L78.8884 156.751L76.7263 156.812L44.134 159.48C43.8319 159.297 43.7378 159.134 43.7378 158.937V148.359C43.7237 140.754 45.4192 133.246 48.696 126.401C51.9728 119.556 56.7452 113.554 62.6527 108.848L73.1744 100.477L62.5519 92.4577C56.6816 88.0521 51.9115 82.3193 48.6226 75.7173C45.3337 69.1152 43.6172 61.8269 43.6103 54.4345V43.693L75.9675 45.0509H78.1028L109.883 43.3263L110.03 53.9185C110.118 61.2448 108.532 68.4927 105.397 75.0981C102.262 81.7036 97.6618 87.4886 91.9548 92.0028Z" fill="#E4F3F9"/>
<path d="M111.413 156.954C111.413 157.151 111.266 157.348 110.97 157.538C108.379 159.27 94.5533 160.933 77.7738 161.456C60.8733 161.958 46.7527 161.103 44.0601 159.507C43.758 159.324 43.5968 159.134 43.5968 158.937C43.5968 156.988 58.9328 154.965 77.7201 154.429C96.3596 153.899 111.387 155.033 111.413 156.954Z" fill="#035970"/>
<path d="M78.3445 125.545L76.6122 125.586L76.3973 97.2178L78.1163 97.1838L78.3445 125.545Z" fill="#F2385A"/>
<path d="M77.2168 80.5281L57.2477 80.7861L58.2885 82.5311C58.2885 82.5311 65.7081 93.2727 77.3645 99.0441C88.8665 92.9332 96.0308 82.0694 96.0308 82.0694L97.0247 80.3041L77.2168 80.5281Z" fill="#AC1833"/>
<path d="M97.0179 79.9374C97.0179 80.9898 88.195 81.9743 77.2302 82.1101C66.2654 82.2459 57.2477 81.5126 57.2477 80.4466C57.2477 79.3806 66.1983 78.4097 77.2034 78.2671C88.2085 78.1245 96.9844 78.8781 97.0179 79.9374Z" fill="#F2385A"/>
<path d="M105.471 157.118C95.5939 159.345 80.1975 160.031 77.9414 160.098H77.4445C76.2493 160.139 71.3209 160.221 65.4457 160.037C60.1536 159.931 54.8728 159.498 49.6329 158.74C49.6329 158.74 49.6329 158.741 49.6329 158.7V157.457C49.8478 153.764 50.385 143.09 52.2247 140.781C54.4204 138.065 76.6589 123.807 77.3975 123.277C78.1428 123.739 100.381 136.857 102.57 139.498C103.161 140.177 103.631 141.766 104.014 143.667C104.457 146.028 104.782 148.409 104.988 150.803C105.35 154.252 105.471 157.118 105.471 157.118Z" fill="#FF637F"/>
<g style="mix-blend-mode:soft-light">
<path d="M58.2606 59.4387C58.1081 55.6037 58.2203 51.7627 58.5963 47.9435C58.5963 47.9435 56.8036 43.7406 50.5389 45.6825C49.019 50.1339 48.2739 54.8181 48.3366 59.5269L58.2606 59.4387Z" fill="white"/>
</g>
<g style="mix-blend-mode:soft-light">
<path d="M58.416 62.4059L48.4785 62.4941C50.701 84.6154 72.0599 97.2854 72.0599 97.2854L77.1294 97.2039C63.1364 91.6769 59.2688 74.7906 58.416 62.4059Z" fill="white"/>
</g>
<g style="mix-blend-mode:soft-light">
<path d="M59.0537 155.535L50.0696 155.787C48.9742 151.973 48.4425 148.018 48.4917 144.047L58.6172 143.782C58.4961 147.705 58.6419 151.632 59.0537 155.535Z" fill="white"/>
</g>
<g style="mix-blend-mode:soft-light">
<path d="M58.7451 140.72L48.6733 140.978C50.8086 118.056 72.1204 104.544 72.1204 104.544L77.1966 104.456C63.2304 110.736 59.4972 127.996 58.7451 140.72Z" fill="white"/>
</g>
<path d="M116.671 43.3402L96.1041 43.4624C90.4237 43.0075 83.8905 42.9395 76.9275 42.9803C69.9646 43.021 63.3507 43.1568 57.6031 43.6593L36.5128 43.7747V47.8486V47.9301C36.5128 50.6461 54.7226 52.7305 77.0014 52.5676C99.072 52.4114 116.778 50.1165 116.738 47.4549L116.671 43.3402Z" fill="#4690A4"/>
<path d="M116.677 43.306C116.718 45.9608 99.0181 48.2286 76.9676 48.3644C54.7089 48.507 36.5126 46.4293 36.5126 43.7269C36.5126 41.0246 54.6418 38.7703 76.8937 38.6753C98.9039 38.5802 116.63 40.6579 116.677 43.306Z" fill="#B2ECFC"/>
<g style="mix-blend-mode:multiply" opacity="0.5">
<path d="M105.471 157.118C95.5939 159.345 80.1975 160.031 77.9414 160.099H77.4445C76.2493 160.14 71.3209 160.221 65.4457 160.038C60.1536 159.931 54.8728 159.498 49.6329 158.741C49.6329 158.741 49.6329 158.741 49.6329 158.7C49.6329 158.639 49.6329 158.184 49.6329 157.458C55.1926 157.458 66.7617 157.05 71.7909 153.757C78.5054 149.364 84.0583 149.079 91.3704 150.274C97.4135 151.259 101.717 147.864 104.027 143.667C104.47 146.028 104.795 148.41 105.001 150.804C105.35 154.253 105.471 157.118 105.471 157.118Z" fill="#AC1833"/>
</g>
<path d="M97.6143 16.1005C98.3022 15.6274 97.6762 14.271 97.6143 11.3423C97.5661 7.75981 98.5085 7.09199 97.7518 5.6868C96.83 3.96857 94.5048 3.25207 92.9364 3.21729C92.5993 3.21729 92.5167 3.02251 89.6688 3.7738C84.5369 5.11638 83.2504 3.6764 80.9528 5.11637C78.6551 6.55634 79.7076 8.03107 77.5132 9.65887C74.0185 12.3023 70.3382 9.44326 67.8411 11.6554C65.4815 13.7423 65.4264 19.0778 67.9098 21.9856C70.7303 25.2829 75.8072 24.2951 79.2124 23.6412C82.1502 23.0082 84.9172 21.7384 87.3229 19.9195C89.0039 18.6667 90.4942 17.1714 91.7463 15.4814C91.9922 15.1677 92.3458 14.959 92.7369 14.897C93.1593 14.8831 93.5716 15.0295 93.8926 15.3075C95.0414 16.0588 96.9126 16.5596 97.6143 16.1005Z" fill="#680416"/>
<path d="M92.7854 12.4622C93.7003 11.6135 98.9354 13.443 101.109 15.6065C103.661 18.1525 103.462 20.2116 105.691 23.3698C107.358 25.6971 109.536 27.602 112.054 28.9349C111.813 29.5331 111.579 30.1383 111.366 30.7365C108.631 30.9504 105.901 30.2754 103.572 28.8096C101.508 27.4184 100.442 25.6375 98.3988 22.0759C96.3557 18.5142 91.6365 13.5195 92.7854 12.4622Z" fill="#FAB1A5"/>
<path d="M114.791 61.8941L113.745 59.6542C113.594 59.3318 113.356 59.0593 113.057 58.8681L112.542 58.5133C112.542 58.5133 111.303 58.5133 111.111 59.2646C111.069 60.2663 112.989 62.4923 114.199 63.3758C114.406 63.5219 114.688 63.7236 114.887 63.6193C115.183 63.4175 114.97 62.4993 114.791 61.8941Z" fill="url(#paint3_linear_8240_8231)"/>
<path d="M112.832 57.2616C112.747 57.5548 112.728 57.8631 112.774 58.1648C112.821 58.4665 112.932 58.7542 113.1 59.0077C113.258 59.2024 114.538 61.338 114.015 61.6858C113.774 61.8389 112.151 59.7938 111.992 59.4807C111.834 59.1677 111.752 59.265 111.745 58.4929C111.741 58.0961 111.679 57.7022 111.559 57.3243L112.832 57.2616Z" fill="url(#paint4_linear_8240_8231)"/>
<path d="M114.695 49.6373C115.358 50.4594 115.701 51.4988 115.658 52.559C115.472 54.0894 113.45 51.8633 113.168 51.0981C112.886 50.3329 112.555 49.2686 112.555 49.2686C112.555 49.2686 113.959 48.3713 114.695 49.6373Z" fill="url(#paint5_linear_8240_8231)"/>
<path d="M114.241 47.4525C114.241 47.4525 113.924 49.0804 114.523 49.936C114.819 50.3603 115.211 50.722 115.108 51.0698C115.053 51.1917 114.961 51.2933 114.847 51.3606C114.732 51.4279 114.6 51.4576 114.468 51.4455C113.979 51.3968 113.711 50.6386 113.525 50.1099C113.306 49.2994 113.158 48.4705 113.085 47.6334L114.241 47.4525Z" fill="url(#paint6_linear_8240_8231)"/>
<path d="M113.32 48.8232L114.386 48.4337C115.207 46.5696 115.552 44.527 115.39 42.4929C114.806 35.9191 108.793 32.434 108.126 32.0583C106.489 32.8862 104.831 34.0618 104.769 35.5365C104.693 37.3939 107.197 38.3747 109.543 41.1016C111.416 43.3188 112.714 45.9723 113.32 48.8232Z" fill="#233F52"/>
<path d="M112.934 58.0124C113.827 54.5526 114.009 50.9448 113.471 47.4109C112.962 44.1136 111.916 37.4146 107.493 34.8894C106.035 34.2384 104.677 33.3786 103.462 32.3364C102.334 31.32 101.374 30.1268 100.621 28.8026C94.7045 27.0426 89.2424 27.7591 86.8622 30.966C86.2748 31.6269 85.89 32.4462 85.7547 33.3242C85.4451 36.0024 88.0454 39.2232 90.9691 39.898C94.677 40.7536 96.8302 36.9068 100.112 38.1867C101.033 38.5415 101.811 39.4319 103.372 41.2058C104.755 42.7772 105.936 44.5183 106.888 46.3883C108.146 48.8717 109.096 50.7082 109.233 53.0803C109.239 54.0812 109.475 55.067 109.921 55.9602C110.333 56.7139 110.898 57.3707 111.579 57.8872L112.934 58.0124Z" fill="#233F52"/>
<g style="mix-blend-mode:multiply" opacity="0.3">
<path d="M85.7267 33.3736C85.8621 32.4956 86.2468 31.6763 86.8342 31.0154C89.242 27.8085 94.7041 27.092 100.593 28.852C101.346 30.1763 102.306 31.3694 103.434 32.3858C104.649 33.428 106.007 34.2879 107.465 34.9388C110.169 36.4692 111.592 39.5579 112.432 42.4865C111.207 40.5596 110.155 40.0448 109.336 40.0378C108.174 40.0378 107.651 41.0327 106.261 40.8935C104.768 40.7475 104.431 39.5022 103.227 39.3631C102.76 39.3203 102.292 39.4248 101.886 39.6622C101.385 39.068 100.76 38.5929 100.056 38.271C96.7747 36.991 94.6215 40.8378 90.9137 39.9822C88.0175 39.2448 85.4171 36.024 85.7267 33.3736Z" fill="#233F52"/>
</g>
<path d="M109.88 36.9832C108.899 36.9316 107.914 36.9549 106.936 37.0528C101.034 37.6441 99.3689 40.6006 94.5534 41.3171C93.3977 41.491 88.2521 42.2492 86.0301 39.2302C84.4272 37.0737 84.6543 33.352 86.4222 31.8911C87.1583 31.272 87.8944 31.2929 92.6135 31.3346C94.3952 31.3346 96.1839 31.3346 97.9656 31.3764C105.533 31.4738 106.964 30.9451 108.339 32.2111C108.959 32.8163 109.88 34.0685 109.88 36.9832Z" fill="#233F52"/>
<path d="M93.9199 12.504C93.9199 12.504 87.9556 10.744 85.3277 13.7492C84.7113 14.5183 84.3183 15.4456 84.1927 16.4274C82.7755 23.5716 88.1207 27.8567 86.0157 31.6271C85.1833 33.1227 83.7042 33.5679 82.6586 36.26C82.4797 36.7122 81.8399 38.347 82.4315 38.8757C83.0231 39.4043 83.8074 38.3678 85.314 38.5556C86.8205 38.7434 87.2883 40.0026 88.3683 39.8147C89.0562 39.6965 89.3727 39.1191 90.4321 37.5818C91.9317 35.3905 92.6816 34.2914 93.1837 33.9088C95.3025 32.3923 96.9467 34.3679 99.375 32.8653C100.249 32.3227 103.503 28.1002 102.539 29.2619C100.269 26.3959 99.7397 24.0307 99.6846 22.389C99.6296 20.5873 100.146 19.7664 99.6846 17.6378C99.6846 17.6378 99.5883 16.5178 97.7584 14.4727C97.497 14.1527 96.8091 12.5944 93.9199 12.504Z" fill="#FAB1A5"/>
<path d="M91.5061 9.026C91.5749 9.35295 91.9326 11.1129 91.2171 11.5859C90.8822 11.7307 90.5272 11.8222 90.1646 11.8573C89.7725 11.9338 89.4767 11.9755 89.2084 12.0034C89.2504 12.4483 89.4149 12.8724 89.6831 13.2276C90.6324 14.4659 92.5448 14.1459 92.82 14.0972C93.5608 13.992 94.2806 13.769 94.9526 13.4364C95.2402 13.2365 95.5033 13.003 95.7367 12.7407C95.2133 12.4325 94.6711 12.1583 94.1132 11.9198C93.7349 11.8085 93.3772 11.7251 93.0608 11.6625C93.0058 11.3216 92.9507 10.9668 92.9025 10.6329C92.4347 10.0973 91.9945 9.56164 91.5061 9.026Z" fill="url(#paint7_linear_8240_8231)"/>
<path d="M91.4708 9.91611C91.5131 10.2847 91.6686 10.6305 91.9154 10.905C92.1622 11.1796 92.4879 11.3689 92.8467 11.4465C93.968 11.6552 94.8141 8.91437 94.2225 8.20482C94.0808 8.06175 93.9123 7.94869 93.7268 7.87225C93.5414 7.7958 93.3428 7.7575 93.1425 7.7596C92.7983 7.81729 92.4805 7.98245 92.2338 8.23195C91.987 8.48145 91.8237 8.80278 91.7667 9.15088C91.5741 8.94219 91.3333 8.88653 91.2163 8.97001C91.0994 9.05348 91.1476 9.40133 91.1613 9.47089C91.2199 9.64638 91.3273 9.80101 91.4708 9.91611Z" fill="url(#paint8_linear_8240_8231)"/>
<path style="mix-blend-mode:multiply" opacity="0.3" d="M102.54 29.2343C102.272 28.8865 102.024 28.5386 101.797 28.2256C100.76 27.8675 99.6788 27.6568 98.5845 27.5995C96.617 27.5022 95.537 27.9682 94.1886 27.1543C92.6683 26.2222 92.9366 24.9353 91.437 24.2188C89.9373 23.5022 88.7953 24.3161 87.3094 24.0448C86.4083 23.8779 85.3145 23.2657 84.1932 21.4918C85.0531 25.763 87.5434 28.8238 85.9887 31.5994C85.1563 33.095 83.6773 33.5403 82.6316 36.2324C82.4528 36.6846 81.813 38.3193 82.4046 38.848C82.9963 39.3767 83.7804 38.3402 85.287 38.528C86.7935 38.7159 87.2613 39.9749 88.3413 39.7871C89.0292 39.6688 89.3457 39.0915 90.4051 37.5541C91.9047 35.3629 92.6546 34.2637 93.1568 33.8811C95.2756 32.3646 96.9197 34.3403 99.348 32.8377C100.249 32.2951 103.496 28.0726 102.54 29.2343Z" fill="url(#paint9_linear_8240_8231)"/>
<path d="M104.376 29.9644L90.8794 30.66C90.7877 30.665 90.6986 30.6922 90.6196 30.7395C90.5405 30.7867 90.4739 30.8525 90.4253 30.9313L90.0539 31.5365C90.0043 31.6048 89.9753 31.6861 89.9705 31.7707C89.9656 31.8553 89.9851 31.9395 90.0265 32.0131C90.068 32.0867 90.1298 32.1466 90.2042 32.1854C90.2787 32.2243 90.3626 32.2405 90.446 32.2321L104.734 31.6826L104.376 29.9644Z" fill="#48687F"/>
<path d="M118.369 22.3682L104.432 22.6395C104.23 22.6441 104.032 22.7016 103.859 22.8065C103.685 22.9114 103.541 23.0599 103.441 23.2378L98.6259 31.8289L113.347 31.2376C113.546 31.227 113.74 31.1675 113.911 31.0645C114.083 30.9615 114.227 30.818 114.331 30.6463L118.803 23.0917C118.846 23.0169 118.869 22.9317 118.869 22.8449C118.868 22.7581 118.844 22.6731 118.8 22.5988C118.755 22.5246 118.692 22.464 118.616 22.4234C118.54 22.3827 118.455 22.3637 118.369 22.3682Z" fill="#9EB6C7"/>
<path d="M91.9456 29.5122C92.1245 29.0391 92.2964 28.5731 92.4753 28.1209C90.5284 27.5783 87.8456 26.7853 85.0939 25.7905C84.6605 25.6374 84.1514 25.4427 83.9795 24.9836C83.5117 23.6966 86.5041 22.361 87.6667 19.5506C88.7467 16.9489 88.1551 13.3455 86.9031 12.9212C84.3028 12.0308 75.0915 23.634 78.3798 28.5244C80.244 31.2861 85.9745 31.7104 91.9456 29.5122Z" fill="#FAB1A5"/>
<path d="M92.476 28.1075C92.913 27.9218 93.3837 27.8308 93.8577 27.8404C94.3316 27.85 94.7983 27.9599 95.2276 28.1632C95.6208 28.3527 95.9773 28.6119 96.2802 28.9284C96.3283 28.991 96.8581 29.7283 96.6655 29.9649C96.4728 30.2014 95.9087 29.9649 95.1933 29.5475C94.7659 29.4982 94.3343 29.4982 93.9069 29.5475C92.9163 29.6449 92.4691 29.9579 92.1114 29.6866C91.9856 29.5718 91.8942 29.4235 91.848 29.2586C91.8018 29.0937 91.8025 28.919 91.85 28.7545C91.9033 28.6081 91.9867 28.4748 92.0946 28.3633C92.2024 28.2518 92.3324 28.1646 92.476 28.1075Z" fill="url(#paint10_linear_8240_8231)"/>
<rect width="38.7896" height="2.57724" rx="0.688193" transform="matrix(0.999889 0.0149007 -0.00695495 0.999976 155.066 25.9789)" fill="#E6F9FF"/>
<rect width="53.4503" height="2.57724" rx="0.688193" transform="matrix(0.999886 0.0150679 -0.00687779 0.999976 140.407 36.585)" fill="#E6F9FF"/>
<rect width="66.5153" height="2.57728" rx="0.688193" transform="matrix(0.999927 0.0121082 -0.00855918 0.999963 127.341 47.4126)" fill="#E6F9FF"/>
<rect width="66.5171" height="3.02675" rx="0.688193" transform="matrix(-0.999899 0.0142197 0.00728813 0.999973 191.51 149)" fill="#E6F9FF"/>
<rect width="73.3371" height="2.57731" rx="0.688193" transform="matrix(0.999947 0.0102944 -0.0100673 0.999949 120.518 58.2896)" fill="#E6F9FF"/>
<rect width="28.8747" height="26.0742" rx="0.688193" transform="matrix(0.999947 0.0102944 -0.0100673 0.999949 159.263 69.0004)" fill="#FFF7E0"/>
<rect width="28.8747" height="26.0742" rx="0.688193" transform="matrix(0.999947 0.0102944 -0.0100673 0.999949 120.263 69.0004)" fill="#FFDFDA"/>
<rect width="64.5973" height="37.175" rx="0.688193" transform="matrix(0.999996 -0.00282554 0.00305268 0.999995 121.862 103.464)" fill="#E5F9FF"/>
<rect width="35.2724" height="3.02678" rx="0.688193" transform="matrix(-0.999927 0.0120897 0.00857233 0.999963 160.495 160.599)" fill="#E6F9FF"/>
</g>
<defs>
<linearGradient id="paint0_linear_8240_8231" x1="302.178" y1="-45.6962" x2="249.173" y2="170.689" gradientUnits="userSpaceOnUse">
<stop stop-color="#43DFC5"/>
<stop offset="1" stop-color="white"/>
</linearGradient>
<linearGradient id="paint1_linear_8240_8231" x1="-47.1535" y1="36.5259" x2="62.0035" y2="138.402" gradientUnits="userSpaceOnUse">
<stop stop-color="#43DFC5"/>
<stop offset="1" stop-color="white"/>
</linearGradient>
<linearGradient id="paint2_linear_8240_8231" x1="-71.8888" y1="-86.6146" x2="127.142" y2="9.10991" gradientUnits="userSpaceOnUse">
<stop stop-color="#43DFC5"/>
<stop offset="1" stop-color="white"/>
</linearGradient>
<linearGradient id="paint3_linear_8240_8231" x1="113.728" y1="66.1981" x2="109.066" y2="63.087" gradientUnits="userSpaceOnUse">
<stop stop-color="#311944"/>
<stop offset="1" stop-color="#6B3976"/>
</linearGradient>
<linearGradient id="paint4_linear_8240_8231" x1="114.146" y1="63.7032" x2="104.86" y2="36.1484" gradientUnits="userSpaceOnUse">
<stop stop-color="#FFC444"/>
<stop offset="1" stop-color="#F36F56"/>
</linearGradient>
<linearGradient id="paint5_linear_8240_8231" x1="115.672" y1="51.0216" x2="112.542" y2="51.0216" gradientUnits="userSpaceOnUse">
<stop stop-color="#311944"/>
<stop offset="1" stop-color="#6B3976"/>
</linearGradient>
<linearGradient id="paint6_linear_8240_8231" x1="117.481" y1="59.7027" x2="112.273" y2="44.2527" gradientUnits="userSpaceOnUse">
<stop stop-color="#FFC444"/>
<stop offset="1" stop-color="#F36F56"/>
</linearGradient>
<linearGradient id="paint7_linear_8240_8231" x1="91.5028" y1="16.3328" x2="93.4769" y2="7.47736" gradientUnits="userSpaceOnUse">
<stop stop-color="#FFC444"/>
<stop offset="1" stop-color="#F36F56"/>
</linearGradient>
<linearGradient id="paint8_linear_8240_8231" x1="92.8068" y1="8.43431" x2="90.5443" y2="19.9526" gradientUnits="userSpaceOnUse">
<stop stop-color="#FFC444"/>
<stop offset="1" stop-color="#F36F56"/>
</linearGradient>
<linearGradient id="paint9_linear_8240_8231" x1="82.1845" y1="30.6534" x2="102.712" y2="30.6534" gradientUnits="userSpaceOnUse">
<stop stop-color="#FF9085"/>
<stop offset="1" stop-color="#FB6FBB"/>
</linearGradient>
<linearGradient id="paint10_linear_8240_8231" x1="95.4616" y1="28.1354" x2="90.5122" y2="32.7549" gradientUnits="userSpaceOnUse">
<stop stop-color="#FFC444"/>
<stop offset="1" stop-color="#F36F56"/>
</linearGradient>
</defs>
</svg>
