<svg width="152" height="128" viewBox="0 0 152 128" fill="none" xmlns="http://www.w3.org/2000/svg">
<circle cx="75.0768" cy="64" r="64" fill="#DAE4EC"/>
<circle cx="17.2309" cy="12.3078" r="3.69231" fill="#DAE4EC"/>
<circle cx="140.308" cy="30.7691" r="3.69231" fill="#DAE4EC"/>
<circle cx="2.46154" cy="22.1538" r="2.46154" fill="#DAE4EC"/>
<circle cx="136.615" cy="19.6923" r="2.46154" fill="#DAE4EC"/>
<circle cx="148.649" cy="73.4359" r="2.46154" fill="#DAE4EC"/>
<path d="M33.726 36.9711L73.3679 18.4917C75.5439 17.4773 78.0604 17.4938 80.2229 18.5366L118.418 36.9558C121.493 38.4383 123.288 41.6856 122.826 45.0672C120.884 59.2946 115.198 96.0911 107.435 103.845C101.091 110.183 89.2551 119.119 81.3477 124.794C78.6309 126.744 74.9851 126.734 72.3075 124.73C65.8019 119.862 55.872 111.92 47.7891 103.845C38.5145 94.5809 32.0191 63.8016 29.2396 45.1977C28.7264 41.7628 30.5782 38.4385 33.726 36.9711Z" fill="#67A4BA"/>
<path d="M39.4628 41.9915L74.4641 25.2845C76.1594 24.4752 78.136 24.5067 79.8047 25.3696L111.883 41.9576C114.094 43.101 115.371 45.4718 115.05 47.9404C113.528 59.6717 108.676 93.057 101.996 99.7184C96.5473 105.152 86.2832 112.86 79.6378 117.606C77.5996 119.061 74.8723 119.055 72.8619 117.561C67.4039 113.506 58.7985 106.67 51.8267 99.7184C43.9258 91.8398 38.4226 63.9567 36.1361 48.1418C35.7661 45.5834 37.13 43.1051 39.4628 41.9915Z" fill="#8EDEF4"/>
<path d="M102.207 99.7186C96.6892 105.221 86.2331 113.056 79.5977 117.785C78.2778 118.726 76.4659 117.765 76.4815 116.144L77.3353 27.2504C77.3496 25.7602 78.9301 24.8085 80.2538 25.4931L112.094 41.9579C114.305 43.1013 115.582 45.4721 115.261 47.9407C113.739 59.672 108.887 93.0573 102.207 99.7186Z" fill="#77C2D7"/>
<circle cx="78.6667" cy="73.3333" r="18.2222" fill="#77C2D7"/>
<path fill-rule="evenodd" clip-rule="evenodd" d="M76.8061 55.3947C75.7019 55.3947 74.6237 55.5057 73.582 55.7172V48.9467C73.582 47.1661 75.0254 45.7226 76.8061 45.7226C78.5867 45.7226 80.0302 47.1661 80.0302 48.9467V55.7172C78.9884 55.5057 77.9102 55.3947 76.8061 55.3947ZM60.6855 71.5152C60.6855 64.9048 64.6644 59.2236 70.3579 56.7361V48.9467C70.3579 45.3855 73.2448 42.4985 76.8061 42.4985C80.3673 42.4985 83.2543 45.3855 83.2543 48.9467V56.7361C88.9477 59.2236 92.9266 64.9048 92.9266 71.5152C92.9266 80.4183 85.7092 87.6357 76.8061 87.6357C67.903 87.6357 60.6855 80.4183 60.6855 71.5152ZM81.6424 69.9031C81.6424 72.0087 80.2967 73.8001 78.4184 74.464V76.3512C78.4184 77.2415 77.6967 77.9632 76.8064 77.9632C75.916 77.9632 75.1943 77.2415 75.1943 76.3512V74.4641C73.3159 73.8003 71.9701 72.0089 71.9701 69.9031C71.9701 67.2322 74.1353 65.0669 76.8062 65.0669C79.4771 65.0669 81.6424 67.2322 81.6424 69.9031Z" fill="white"/>
</svg>
