<svg width="20" height="20" viewBox="0 0 20 20" fill="none" xmlns="http://www.w3.org/2000/svg">
<path fill-rule="evenodd" clip-rule="evenodd" d="M10.5427 3.053C10.7635 2.83226 11.0628 2.70825 11.375 2.70825C11.6872 2.70825 11.9866 2.83226 12.2073 3.053L16.9471 7.79276C17.0564 7.90206 17.1431 8.03182 17.2022 8.17462C17.2614 8.31743 17.2918 8.47049 17.2918 8.62506C17.2918 8.77964 17.2614 8.9327 17.2022 9.0755C17.1431 9.2183 17.0564 9.34806 16.9471 9.45736C16.9444 9.46002 16.9417 9.46265 16.939 9.46526C16.9364 9.46782 16.9337 9.47035 16.931 9.47286L15.6069 10.7057C15.6011 10.729 15.5939 10.7521 15.5854 10.7749L14.0313 14.9192C13.9586 15.1131 13.836 15.2846 13.6761 15.4162C13.5161 15.5479 13.3243 15.6351 13.12 15.6691L3.44264 17.282C3.42922 17.2844 3.41574 17.2863 3.40222 17.2878C3.35565 17.293 3.30907 17.2928 3.26329 17.2877C3.13556 17.2733 3.0114 17.2196 2.91043 17.1266C2.90403 17.1208 2.89774 17.1147 2.89156 17.1085C2.88639 17.1034 2.88133 17.0981 2.87636 17.0928C2.73711 16.9436 2.68449 16.7429 2.71852 16.5548L4.33096 6.88013C4.36502 6.67578 4.45225 6.48399 4.5839 6.32403C4.71554 6.16406 4.88696 6.04156 5.08094 5.96882L9.22516 4.41473C9.24798 4.40617 9.27109 4.39902 9.29438 4.39325L10.5272 3.06906C10.5323 3.06361 10.5375 3.05826 10.5427 3.053ZM5.15448 15.7295L12.875 14.4427L14.2737 10.7129L9.28725 5.72645L5.55737 7.12516L4.27063 14.8456L7.89123 11.225C7.77409 10.9802 7.7085 10.7061 7.7085 10.4166C7.7085 9.38105 8.54796 8.54159 9.5835 8.54159C10.619 8.54159 11.4585 9.38105 11.4585 10.4166C11.4585 11.4521 10.619 12.2916 9.5835 12.2916C9.29403 12.2916 9.01988 12.226 8.77511 12.1089L5.15448 15.7295ZM9.5835 9.79159C9.23832 9.79159 8.9585 10.0714 8.9585 10.4166C8.9585 10.7618 9.23832 11.0416 9.5835 11.0416C9.92867 11.0416 10.2085 10.7618 10.2085 10.4166C10.2085 10.0714 9.92867 9.79159 9.5835 9.79159ZM14.9437 9.61518L16.0095 8.62294L11.3771 3.9906L10.3849 5.05635L14.9437 9.61518Z" fill="white"/>
</svg>
