<svg width="418" height="268" viewBox="0 0 418 268" fill="none" xmlns="http://www.w3.org/2000/svg">
<g filter="url(#filter0_dd_1_1425)">
<path fill-rule="evenodd" clip-rule="evenodd" d="M91 97C73.3269 97 59 111.327 59 129C59 146.673 73.3269 161 91 161H104.127L118.5 176.5V161H355C372.673 161 387 146.673 387 129C387 111.327 372.673 97 355 97H91Z" fill="white"/>
<path d="M104.127 161L104.494 160.66L104.346 160.5H104.127V161ZM118.5 176.5L118.133 176.84L119 177.775V176.5H118.5ZM118.5 161V160.5H118V161H118.5ZM59.5 129C59.5 111.603 73.603 97.5 91 97.5V96.5C73.0507 96.5 58.5 111.051 58.5 129H59.5ZM91 160.5C73.603 160.5 59.5 146.397 59.5 129H58.5C58.5 146.949 73.0508 161.5 91 161.5V160.5ZM104.127 160.5H91V161.5H104.127V160.5ZM118.867 176.16L104.494 160.66L103.761 161.34L118.133 176.84L118.867 176.16ZM118 161V176.5H119V161H118ZM355 160.5H118.5V161.5H355V160.5ZM386.5 129C386.5 146.397 372.397 160.5 355 160.5V161.5C372.949 161.5 387.5 146.949 387.5 129H386.5ZM355 97.5C372.397 97.5 386.5 111.603 386.5 129H387.5C387.5 111.051 372.949 96.5 355 96.5V97.5ZM91 97.5H355V96.5H91V97.5Z" fill="#FAB1A5"/>
<path d="M125.817 135H128.146V129.764H133.654V135H135.983V122.437H133.654V127.52H128.146V122.437H125.817V135ZM147.301 130.189C147.301 127.265 145.329 125.548 142.728 125.548C139.855 125.548 137.934 127.622 137.934 130.376C137.934 132.824 139.464 135.204 142.932 135.204C144.615 135.204 146.077 134.575 146.944 133.929L146.06 132.348C145.261 132.909 144.054 133.3 143.017 133.3C141.334 133.3 140.467 132.365 140.195 131.175H147.233C147.267 130.869 147.301 130.563 147.301 130.189ZM142.728 127.401C143.986 127.401 144.938 128.2 145.125 129.492H140.195C140.484 128.217 141.436 127.401 142.728 127.401ZM154.844 125.769L152.651 132.008L150.152 125.769H147.585L151.614 134.915L151.393 135.425C150.9 136.496 150.339 136.921 149.591 136.921C149.183 136.921 148.775 136.785 148.418 136.615L148.061 138.485C148.486 138.774 149.098 138.927 149.761 138.927C151.529 138.927 152.651 137.822 153.518 135.595L157.258 125.769H154.844ZM162.955 135H171.744V132.773H165.284V122.437H162.955V135ZM177.037 135.221C179.621 135.221 181.219 133.725 181.219 131.141V125.769H178.992V131.141C178.992 132.365 178.278 133.198 177.037 133.198C175.813 133.198 175.099 132.365 175.099 131.141V125.769H172.872V131.141C172.872 133.708 174.487 135.221 177.037 135.221ZM194.401 125.514C193.007 125.514 191.749 126.126 191.086 127.163C190.576 126.058 189.471 125.531 188.332 125.514C187.125 125.514 186.054 126.126 185.527 127.095V125.769H183.351V135H185.561V129.934C185.561 128.438 186.496 127.554 187.703 127.554C188.876 127.554 189.658 128.404 189.658 129.866V135H191.868V129.917C191.868 128.472 192.752 127.554 193.993 127.554C195.115 127.554 195.914 128.319 195.914 129.849V135H198.141V129.441C198.141 126.925 196.526 125.514 194.401 125.514ZM201.44 124.664C202.222 124.664 202.851 124.069 202.851 123.27C202.851 122.471 202.222 121.876 201.44 121.876C200.641 121.876 200.029 122.471 200.029 123.27C200.029 124.069 200.641 124.664 201.44 124.664ZM202.545 135V125.769H200.318V135H202.545ZM204.75 135H206.96V130.019C206.96 128.574 207.878 127.554 209.204 127.554C210.394 127.554 211.227 128.404 211.227 129.985V135H213.454V129.373C213.454 126.755 211.703 125.531 209.833 125.531C208.473 125.531 207.419 126.16 206.926 127.061V125.769H204.75V135ZM216.611 132.688C215.863 132.688 215.251 133.249 215.251 133.997C215.251 134.643 215.778 135.187 216.407 135.187H216.458C216.169 135.731 215.557 136.19 214.877 136.717L215.54 137.618C217.189 136.547 218.039 135.391 218.039 134.218C218.039 133.334 217.427 132.688 216.611 132.688ZM226.351 135V122.08H224.141V135H226.351ZM233.026 135.238C235.95 135.238 237.956 133.062 237.956 130.376C237.956 127.707 235.95 125.531 233.026 125.531C230.102 125.531 228.096 127.707 228.096 130.376C228.096 133.062 230.102 135.238 233.026 135.238ZM233.026 133.181C231.496 133.181 230.323 131.94 230.323 130.376C230.323 128.846 231.496 127.588 233.026 127.588C234.556 127.588 235.729 128.846 235.729 130.376C235.729 131.94 234.556 133.181 233.026 133.181ZM246.785 125.769V126.942C246.071 126.143 245.102 125.548 243.776 125.548C241.141 125.548 239.203 127.571 239.203 130.342C239.203 133.079 241.107 135.221 243.776 135.221C245.102 135.221 246.088 134.643 246.785 133.861V135H248.893V125.769H246.785ZM244.116 133.198C242.501 133.198 241.413 131.923 241.413 130.376C241.413 128.846 242.484 127.571 244.116 127.571C245.731 127.571 246.836 128.846 246.836 130.376C246.836 131.923 245.731 133.198 244.116 133.198ZM258.138 122.08V126.942C257.475 126.143 256.54 125.548 255.231 125.548C252.63 125.548 250.658 127.656 250.658 130.376C250.658 133.13 252.613 135.221 255.248 135.221C256.574 135.221 257.526 134.609 258.189 133.793V135H260.348V122.08H258.138ZM255.554 133.198C253.939 133.198 252.868 131.94 252.868 130.376C252.868 128.846 253.939 127.571 255.554 127.571C257.186 127.571 258.257 128.846 258.257 130.376C258.257 131.94 257.186 133.198 255.554 133.198ZM271.601 123.712C272.111 123.712 272.57 123.865 273.08 124.086L273.777 122.352C273.046 121.978 272.23 121.723 271.295 121.723C269.187 121.723 267.623 122.93 267.623 125.344V125.769H266.161V127.639H267.623V135H269.833V127.639H272.723V125.769H269.833V125.395C269.833 124.307 270.462 123.712 271.601 123.712ZM280.818 125.769V126.942C280.104 126.143 279.135 125.548 277.809 125.548C275.174 125.548 273.236 127.571 273.236 130.342C273.236 133.079 275.14 135.221 277.809 135.221C279.135 135.221 280.121 134.643 280.818 133.861V135H282.926V125.769H280.818ZM278.149 133.198C276.534 133.198 275.446 131.923 275.446 130.376C275.446 128.846 276.517 127.571 278.149 127.571C279.764 127.571 280.869 128.846 280.869 130.376C280.869 131.923 279.764 133.198 278.149 133.198ZM288.16 135.238C290.353 135.238 291.747 133.946 291.747 132.314C291.747 131.226 291.203 130.512 290.183 129.968C289.452 129.594 288.55 129.288 287.956 129.05C287.361 128.829 287.157 128.472 287.157 128.149C287.157 127.673 287.565 127.282 288.279 127.282C288.908 127.282 289.707 127.554 290.353 128.234L291.509 126.823C290.676 125.871 289.52 125.463 288.347 125.463C286.306 125.463 284.998 126.619 284.998 128.2C284.998 129.203 285.508 130.036 286.545 130.546C287.123 130.835 288.312 131.243 288.84 131.498C289.282 131.719 289.537 131.991 289.537 132.382C289.537 132.926 288.976 133.351 288.177 133.351C287.276 133.351 286.324 132.875 285.695 132.042L284.437 133.402C285.321 134.643 286.715 135.238 288.16 135.238ZM299.15 132.722C298.691 132.994 298.181 133.198 297.586 133.198C296.634 133.198 296.243 132.62 296.243 131.532V127.639H299.337V125.769H296.243V122.505H294.05V125.769H292.486V127.639H294.016V131.617C294.016 133.963 295.087 135.221 297.178 135.221C298.113 135.221 299.133 134.949 299.847 134.456L299.15 132.722ZM309.764 130.189C309.764 127.265 307.792 125.548 305.191 125.548C302.318 125.548 300.397 127.622 300.397 130.376C300.397 132.824 301.927 135.204 305.395 135.204C307.078 135.204 308.54 134.575 309.407 133.929L308.523 132.348C307.724 132.909 306.517 133.3 305.48 133.3C303.797 133.3 302.93 132.365 302.658 131.175H309.696C309.73 130.869 309.764 130.563 309.764 130.189ZM305.191 127.401C306.449 127.401 307.401 128.2 307.588 129.492H302.658C302.947 128.217 303.899 127.401 305.191 127.401ZM311.481 135H313.691V130.495C313.691 128.472 314.745 127.656 316.02 127.656C316.36 127.656 316.734 127.724 317.091 127.843L317.278 125.718C316.904 125.582 316.513 125.531 316.173 125.531C315.068 125.531 314.184 126.007 313.606 127.044V125.769H311.481V135ZM318.997 131.617H321.071L321.224 122.233H318.878L318.997 131.617ZM320.068 135.204C320.782 135.204 321.36 134.643 321.36 133.878C321.36 133.147 320.782 132.586 320.068 132.586C319.32 132.586 318.725 133.147 318.725 133.878C318.725 134.643 319.32 135.204 320.068 135.204Z" fill="#DA6668"/>
<path fill-rule="evenodd" clip-rule="evenodd" d="M310.982 199L298 185V199H63C45.3269 199 31 213.327 31 231C31 248.673 45.3269 263 63 263H327C344.673 263 359 248.673 359 231C359 213.327 344.673 199 327 199H310.982Z" fill="white"/>
<path d="M298 185L298.367 184.66L297.5 183.725V185H298ZM310.982 199L310.615 199.34L310.764 199.5H310.982V199ZM298 199V199.5H298.5V199H298ZM297.633 185.34L310.615 199.34L311.348 198.66L298.367 184.66L297.633 185.34ZM298.5 199V185H297.5V199H298.5ZM63 199.5H298V198.5H63V199.5ZM31.5 231C31.5 213.603 45.603 199.5 63 199.5V198.5C45.0507 198.5 30.5 213.051 30.5 231H31.5ZM63 262.5C45.603 262.5 31.5 248.397 31.5 231H30.5C30.5 248.949 45.0508 263.5 63 263.5V262.5ZM327 262.5H63V263.5H327V262.5ZM358.5 231C358.5 248.397 344.397 262.5 327 262.5V263.5C344.949 263.5 359.5 248.949 359.5 231H358.5ZM327 199.5C344.397 199.5 358.5 213.603 358.5 231H359.5C359.5 213.051 344.949 198.5 327 198.5V199.5ZM310.982 199.5H327V198.5H310.982V199.5Z" fill="#F2385A"/>
<path d="M100.502 224.437H97.8334L94.9944 230.149L92.2234 224.437H89.5374L93.8384 232.597V237H96.1674V232.597L100.502 224.437ZM104.687 237.238C107.611 237.238 109.617 235.062 109.617 232.376C109.617 229.707 107.611 227.531 104.687 227.531C101.763 227.531 99.7565 229.707 99.7565 232.376C99.7565 235.062 101.763 237.238 104.687 237.238ZM104.687 235.181C103.157 235.181 101.984 233.94 101.984 232.376C101.984 230.846 103.157 229.588 104.687 229.588C106.217 229.588 107.39 230.846 107.39 232.376C107.39 233.94 106.217 235.181 104.687 235.181ZM115.402 237.221C117.986 237.221 119.584 235.725 119.584 233.141V227.769H117.357V233.141C117.357 234.365 116.643 235.198 115.402 235.198C114.178 235.198 113.464 234.365 113.464 233.141V227.769H111.237V233.141C111.237 235.708 112.852 237.221 115.402 237.221ZM133.005 227.769V228.942C132.291 228.143 131.322 227.548 129.996 227.548C127.361 227.548 125.423 229.571 125.423 232.342C125.423 235.079 127.327 237.221 129.996 237.221C131.322 237.221 132.308 236.643 133.005 235.861V237H135.113V227.769H133.005ZM130.336 235.198C128.721 235.198 127.633 233.923 127.633 232.376C127.633 230.846 128.704 229.571 130.336 229.571C131.951 229.571 133.056 230.846 133.056 232.376C133.056 233.923 131.951 235.198 130.336 235.198ZM140.346 237.238C142.539 237.238 143.933 235.946 143.933 234.314C143.933 233.226 143.389 232.512 142.369 231.968C141.638 231.594 140.737 231.288 140.142 231.05C139.547 230.829 139.343 230.472 139.343 230.149C139.343 229.673 139.751 229.282 140.465 229.282C141.094 229.282 141.893 229.554 142.539 230.234L143.695 228.823C142.862 227.871 141.706 227.463 140.533 227.463C138.493 227.463 137.184 228.619 137.184 230.2C137.184 231.203 137.694 232.036 138.731 232.546C139.309 232.835 140.499 233.243 141.026 233.498C141.468 233.719 141.723 233.991 141.723 234.382C141.723 234.926 141.162 235.351 140.363 235.351C139.462 235.351 138.51 234.875 137.881 234.042L136.623 235.402C137.507 236.643 138.901 237.238 140.346 237.238ZM151.691 237H154.445L150.059 231.577L154.224 227.769H151.402L147.849 231.067V224.08H145.639V237H147.849V233.583L148.529 232.971L151.691 237ZM163.66 232.189C163.66 229.265 161.688 227.548 159.087 227.548C156.214 227.548 154.293 229.622 154.293 232.376C154.293 234.824 155.823 237.204 159.291 237.204C160.974 237.204 162.436 236.575 163.303 235.929L162.419 234.348C161.62 234.909 160.413 235.3 159.376 235.3C157.693 235.3 156.826 234.365 156.554 233.175H163.592C163.626 232.869 163.66 232.563 163.66 232.189ZM159.087 229.401C160.345 229.401 161.297 230.2 161.484 231.492H156.554C156.843 230.217 157.795 229.401 159.087 229.401ZM172.365 224.08V228.942C171.702 228.143 170.767 227.548 169.458 227.548C166.857 227.548 164.885 229.656 164.885 232.376C164.885 235.13 166.84 237.221 169.475 237.221C170.801 237.221 171.753 236.609 172.416 235.793V237H174.575V224.08H172.365ZM169.781 235.198C168.166 235.198 167.095 233.94 167.095 232.376C167.095 230.846 168.166 229.571 169.781 229.571C171.413 229.571 172.484 230.846 172.484 232.376C172.484 233.94 171.413 235.198 169.781 235.198ZM177.87 234.688C177.122 234.688 176.51 235.249 176.51 235.997C176.51 236.643 177.037 237.187 177.666 237.187H177.717C177.428 237.731 176.816 238.19 176.136 238.717L176.799 239.618C178.448 238.547 179.298 237.391 179.298 236.218C179.298 235.334 178.686 234.688 177.87 234.688ZM187.476 236.983H189.397L191.556 230.948L193.749 236.983H195.67L198.764 227.769H196.452L194.565 234.025L192.321 227.769H190.774L188.581 234.025L186.643 227.769H184.331L187.476 236.983ZM208.667 232.189C208.667 229.265 206.695 227.548 204.094 227.548C201.221 227.548 199.3 229.622 199.3 232.376C199.3 234.824 200.83 237.204 204.298 237.204C205.981 237.204 207.443 236.575 208.31 235.929L207.426 234.348C206.627 234.909 205.42 235.3 204.383 235.3C202.7 235.3 201.833 234.365 201.561 233.175H208.599C208.633 232.869 208.667 232.563 208.667 232.189ZM204.094 229.401C205.352 229.401 206.304 230.2 206.491 231.492H201.561C201.85 230.217 202.802 229.401 204.094 229.401ZM221.674 227.769V228.942C220.96 228.143 219.991 227.548 218.665 227.548C216.03 227.548 214.092 229.571 214.092 232.342C214.092 235.079 215.996 237.221 218.665 237.221C219.991 237.221 220.977 236.643 221.674 235.861V237H223.782V227.769H221.674ZM219.005 235.198C217.39 235.198 216.302 233.923 216.302 232.376C216.302 230.846 217.373 229.571 219.005 229.571C220.62 229.571 221.725 230.846 221.725 232.376C221.725 233.923 220.62 235.198 219.005 235.198ZM226.04 237H228.25V232.019C228.25 230.574 229.168 229.554 230.494 229.554C231.684 229.554 232.517 230.404 232.517 231.985V237H234.744V231.373C234.744 228.755 232.993 227.531 231.123 227.531C229.763 227.531 228.709 228.16 228.216 229.061V227.769H226.04V237ZM239.839 237.238C242.032 237.238 243.426 235.946 243.426 234.314C243.426 233.226 242.882 232.512 241.862 231.968C241.131 231.594 240.23 231.288 239.635 231.05C239.04 230.829 238.836 230.472 238.836 230.149C238.836 229.673 239.244 229.282 239.958 229.282C240.587 229.282 241.386 229.554 242.032 230.234L243.188 228.823C242.355 227.871 241.199 227.463 240.026 227.463C237.986 227.463 236.677 228.619 236.677 230.2C236.677 231.203 237.187 232.036 238.224 232.546C238.802 232.835 239.992 233.243 240.519 233.498C240.961 233.719 241.216 233.991 241.216 234.382C241.216 234.926 240.655 235.351 239.856 235.351C238.955 235.351 238.003 234.875 237.374 234.042L236.116 235.402C237 236.643 238.394 237.238 239.839 237.238ZM247.009 236.983H248.93L251.089 230.948L253.282 236.983H255.203L258.297 227.769H255.985L254.098 234.025L251.854 227.769H250.307L248.114 234.025L246.176 227.769H243.864L247.009 236.983ZM268.2 232.189C268.2 229.265 266.228 227.548 263.627 227.548C260.754 227.548 258.833 229.622 258.833 232.376C258.833 234.824 260.363 237.204 263.831 237.204C265.514 237.204 266.976 236.575 267.843 235.929L266.959 234.348C266.16 234.909 264.953 235.3 263.916 235.3C262.233 235.3 261.366 234.365 261.094 233.175H268.132C268.166 232.869 268.2 232.563 268.2 232.189ZM263.627 229.401C264.885 229.401 265.837 230.2 266.024 231.492H261.094C261.383 230.217 262.335 229.401 263.627 229.401ZM269.918 237H272.128V232.495C272.128 230.472 273.182 229.656 274.457 229.656C274.797 229.656 275.171 229.724 275.528 229.843L275.715 227.718C275.341 227.582 274.95 227.531 274.61 227.531C273.505 227.531 272.621 228.007 272.043 229.044V227.769H269.918V237ZM285.482 232.189C285.482 229.265 283.51 227.548 280.909 227.548C278.036 227.548 276.115 229.622 276.115 232.376C276.115 234.824 277.645 237.204 281.113 237.204C282.796 237.204 284.258 236.575 285.125 235.929L284.241 234.348C283.442 234.909 282.235 235.3 281.198 235.3C279.515 235.3 278.648 234.365 278.376 233.175H285.414C285.448 232.869 285.482 232.563 285.482 232.189ZM280.909 229.401C282.167 229.401 283.119 230.2 283.306 231.492H278.376C278.665 230.217 279.617 229.401 280.909 229.401ZM294.187 224.08V228.942C293.524 228.143 292.589 227.548 291.28 227.548C288.679 227.548 286.707 229.656 286.707 232.376C286.707 235.13 288.662 237.221 291.297 237.221C292.623 237.221 293.575 236.609 294.238 235.793V237H296.397V224.08H294.187ZM291.603 235.198C289.988 235.198 288.917 233.94 288.917 232.376C288.917 230.846 289.988 229.571 291.603 229.571C293.235 229.571 294.306 230.846 294.306 232.376C294.306 233.94 293.235 235.198 291.603 235.198ZM299.624 237.272C300.338 237.272 300.916 236.711 300.916 235.946C300.916 235.215 300.338 234.654 299.624 234.654C298.876 234.654 298.281 235.215 298.281 235.946C298.281 236.711 298.876 237.272 299.624 237.272Z" fill="#F2385A"/>
<circle cx="23" cy="125" r="20" fill="#FAB1A5" stroke="white" stroke-width="2"/>
<path d="M14.441 130H21.679V128.166H16.359V119.654H14.441V130ZM26.7129 130.182C28.9109 130.182 30.6889 128.922 30.6889 126.29V119.654H28.7569V126.122C28.7569 127.564 27.9449 128.32 26.7129 128.32C25.4809 128.32 24.6689 127.606 24.6689 126.122V119.654H22.7509V126.29C22.7509 128.922 24.5429 130.182 26.7129 130.182Z" fill="white"/>
<circle cx="395" cy="235" r="20" fill="#F2385A" stroke="white" stroke-width="2"/>
<path d="M392.372 238.832L398.929 227.543C398.961 227.488 398.978 227.426 398.978 227.362C398.978 227.299 398.961 227.236 398.93 227.181C398.898 227.126 398.852 227.08 398.798 227.049C398.743 227.017 398.681 227 398.618 227H394.39C394.285 227 394.182 227.028 394.091 227.08C394 227.132 393.924 227.208 393.871 227.299L387.081 238.993C387.028 239.084 387 239.188 387 239.294C387 239.4 387.027 239.504 387.08 239.595C387.132 239.687 387.208 239.763 387.299 239.816C387.39 239.87 387.493 239.898 387.598 239.898H390.551L389.277 242.095C389.224 242.186 389.196 242.29 389.196 242.396C389.196 242.502 389.223 242.606 389.276 242.698C389.329 242.79 389.404 242.866 389.496 242.919C389.587 242.972 389.691 243 389.796 243H400.433C400.559 243 400.683 242.966 400.792 242.902C400.901 242.839 400.992 242.748 401.055 242.638L402.952 239.378C402.983 239.324 403 239.261 403 239.198C403 239.135 402.984 239.072 402.952 239.017C402.921 238.962 402.876 238.916 402.821 238.885C402.767 238.853 402.705 238.836 402.642 238.835L392.372 238.832ZM394.658 228.068H397.393L391.145 238.832H388.406L394.658 228.068ZM400.247 241.933H390.604L391.785 239.9H401.421L400.247 241.933Z" fill="white"/>
<path fill-rule="evenodd" clip-rule="evenodd" d="M394.39 226.75H398.618C398.725 226.75 398.831 226.779 398.923 226.832C399.016 226.886 399.093 226.964 399.146 227.057C399.2 227.15 399.228 227.255 399.228 227.362C399.228 227.47 399.2 227.575 399.146 227.668L399.146 227.669L392.807 238.582L402.643 238.585C402.75 238.586 402.855 238.615 402.948 238.669C403.04 238.723 403.116 238.8 403.169 238.893C403.222 238.986 403.25 239.091 403.25 239.198C403.25 239.305 403.222 239.41 403.168 239.503L403.168 239.504L401.272 242.762C401.272 242.763 401.272 242.762 401.272 242.762C401.187 242.91 401.065 243.033 400.918 243.118C400.771 243.204 400.604 243.249 400.434 243.25L389.796 243.25C389.647 243.25 389.5 243.21 389.37 243.135C389.241 243.06 389.134 242.952 389.059 242.822C388.985 242.693 388.946 242.545 388.946 242.396C388.946 242.246 388.986 242.099 389.06 241.97L390.117 240.148H387.598C387.449 240.148 387.302 240.108 387.173 240.032C387.044 239.957 386.937 239.849 386.863 239.719C386.788 239.59 386.75 239.443 386.75 239.293C386.75 239.144 386.79 238.997 386.864 238.868L393.654 227.173C393.729 227.045 393.837 226.938 393.966 226.863C394.095 226.789 394.241 226.75 394.39 226.75ZM394.39 227.25C394.39 227.25 394.39 227.25 394.39 227.25C394.329 227.25 394.269 227.266 394.215 227.297C394.162 227.327 394.118 227.371 394.087 227.425C394.087 227.425 394.087 227.425 394.087 227.425L387.297 239.118C387.297 239.118 387.298 239.118 387.297 239.118C387.267 239.171 387.25 239.232 387.25 239.294C387.25 239.357 387.266 239.418 387.297 239.471C387.327 239.525 387.372 239.57 387.425 239.601C387.478 239.631 387.538 239.648 387.599 239.648H390.986L389.493 242.22C389.493 242.22 389.493 242.219 389.493 242.22C389.463 242.273 389.446 242.334 389.446 242.397C389.446 242.459 389.462 242.52 389.493 242.574C389.524 242.627 389.568 242.672 389.621 242.703C389.675 242.734 389.735 242.75 389.796 242.75C389.796 242.75 389.796 242.75 389.796 242.75H400.432C400.432 242.75 400.432 242.75 400.432 242.75C400.514 242.75 400.595 242.728 400.666 242.686C400.738 242.645 400.797 242.585 400.838 242.513L400.839 242.512L402.735 239.254C402.735 239.254 402.735 239.254 402.735 239.254C402.745 239.237 402.75 239.217 402.75 239.198C402.75 239.178 402.745 239.158 402.735 239.141C402.725 239.124 402.711 239.11 402.695 239.1C402.678 239.091 402.66 239.085 402.641 239.085C402.64 239.085 402.641 239.085 402.641 239.085L391.938 239.081L398.713 227.419C398.713 227.419 398.713 227.419 398.713 227.419C398.722 227.402 398.728 227.382 398.728 227.362C398.728 227.342 398.723 227.323 398.713 227.306C398.703 227.289 398.689 227.275 398.672 227.265C398.655 227.255 398.637 227.25 398.617 227.25H394.39ZM394.515 227.818H397.828L391.289 239.082H387.972L394.515 227.818ZM394.802 228.318L388.84 238.582H391.001L396.959 228.318H394.802ZM391.641 239.65H401.854L400.392 242.183H390.17L391.641 239.65ZM391.929 240.15L391.038 241.683H400.103L400.988 240.15H391.929Z" fill="white"/>
<circle cx="197" cy="33" r="30" stroke="#FCD7DE" stroke-width="4"/>
<path d="M228 34C228 16.3269 213.673 2 196 2" stroke="#F2385A" stroke-width="4"/>
</g>
<defs>
<filter id="filter0_dd_1_1425" x="0" y="0" width="418" height="267.5" filterUnits="userSpaceOnUse" color-interpolation-filters="sRGB">
<feFlood flood-opacity="0" result="BackgroundImageFix"/>
<feColorMatrix in="SourceAlpha" type="matrix" values="0 0 0 0 0 0 0 0 0 0 0 0 0 0 0 0 0 0 127 0" result="hardAlpha"/>
<feMorphology radius="2" operator="erode" in="SourceAlpha" result="effect1_dropShadow_1_1425"/>
<feOffset dy="2"/>
<feGaussianBlur stdDeviation="2"/>
<feColorMatrix type="matrix" values="0 0 0 0 0.0470588 0 0 0 0 0.352941 0 0 0 0 0.439216 0 0 0 0.08 0"/>
<feBlend mode="normal" in2="BackgroundImageFix" result="effect1_dropShadow_1_1425"/>
<feColorMatrix in="SourceAlpha" type="matrix" values="0 0 0 0 0 0 0 0 0 0 0 0 0 0 0 0 0 0 127 0" result="hardAlpha"/>
<feMorphology radius="2" operator="erode" in="SourceAlpha" result="effect2_dropShadow_1_1425"/>
<feOffset dy="2"/>
<feGaussianBlur stdDeviation="2"/>
<feColorMatrix type="matrix" values="0 0 0 0 0.0470588 0 0 0 0 0.352941 0 0 0 0 0.439216 0 0 0 0.12 0"/>
<feBlend mode="normal" in2="effect1_dropShadow_1_1425" result="effect2_dropShadow_1_1425"/>
<feBlend mode="normal" in="SourceGraphic" in2="effect2_dropShadow_1_1425" result="shape"/>
</filter>
</defs>
</svg>
