<svg width="24" height="24" viewBox="0 0 24 24" fill="none" xmlns="http://www.w3.org/2000/svg">
<path d="M9.5 9.25C9.91421 9.25 10.25 9.58579 10.25 10V16C10.25 16.4142 9.91421 16.75 9.5 16.75C9.08579 16.75 8.75 16.4142 8.75 16V10C8.75 9.58579 9.08579 9.25 9.5 9.25Z" fill="#618298"/>
<path d="M15.25 10C15.25 9.58579 14.9142 9.25 14.5 9.25C14.0858 9.25 13.75 9.58579 13.75 10V16C13.75 16.4142 14.0858 16.75 14.5 16.75C14.9142 16.75 15.25 16.4142 15.25 16V10Z" fill="#618298"/>
<path d="M9.9 3.25C9.39679 3.25 8.88239 3.39097 8.47412 3.68259C8.06267 3.97649 7.75 4.43885 7.75 5V5.25H4.5C4.08579 5.25 3.75 5.58579 3.75 6C3.75 6.41421 4.08579 6.75 4.5 6.75H4.75V19.3C4.75 19.6923 4.91099 20.0635 5.18955 20.3335C5.46732 20.6027 5.8392 20.75 6.22222 20.75H17.7778C18.1608 20.75 18.5327 20.6027 18.8104 20.3335C19.089 20.0635 19.25 19.6923 19.25 19.3V6.75H19.5C19.9142 6.75 20.25 6.41421 20.25 6C20.25 5.58579 19.9142 5.25 19.5 5.25H16.25V5C16.25 4.43885 15.9373 3.97649 15.5259 3.68259C15.1176 3.39097 14.6032 3.25 14.1 3.25H9.9ZM14.75 5.25H9.25V5.00434C9.25077 5.00233 9.25234 4.99878 9.25537 4.99356C9.26508 4.97681 9.29034 4.94294 9.34598 4.90319C9.46281 4.81974 9.6606 4.75 9.9 4.75H14.1C14.3394 4.75 14.5372 4.81974 14.654 4.90319C14.7097 4.94294 14.7349 4.97681 14.7446 4.99356C14.7477 4.99878 14.7492 5.00233 14.75 5.00434V5.25ZM6.25 6.75H17.75V19.25H6.25V6.75Z" fill="#618298"/>
</svg>
