<svg width="20" height="20" viewBox="0 0 20 20" fill="none" xmlns="http://www.w3.org/2000/svg">
<path fill-rule="evenodd" clip-rule="evenodd" d="M2.7085 3.33325C2.7085 2.98807 2.98832 2.70825 3.3335 2.70825H16.6668C17.012 2.70825 17.2918 2.98807 17.2918 3.33325C17.2918 3.67843 17.012 3.95825 16.6668 3.95825H3.3335C2.98832 3.95825 2.7085 3.67843 2.7085 3.33325ZM9.59342 5.35872C9.82747 5.1581 10.1729 5.1581 10.4069 5.35872L16.2402 10.3587C16.5023 10.5834 16.5327 10.9779 16.308 11.24C16.0834 11.5021 15.6888 11.5324 15.4268 11.3078L10.6252 7.19214V17.4999C10.6252 17.8451 10.3453 18.1249 10.0002 18.1249C9.65498 18.1249 9.37516 17.8451 9.37516 17.4999V7.19214L4.57357 11.3078C4.3115 11.5324 3.91693 11.5021 3.69229 11.24C3.46766 10.9779 3.49801 10.5834 3.76008 10.3587L9.59342 5.35872Z" fill="white"/>
</svg>
