<svg width="20" height="20" viewBox="0 0 20 20" fill="none" xmlns="http://www.w3.org/2000/svg">
<path fill-rule="evenodd" clip-rule="evenodd" d="M12.8103 13.1361C14.2528 12.2099 15.2085 10.5916 15.2085 8.75008C15.2085 5.8736 12.8766 3.54175 10.0002 3.54175C7.12368 3.54175 4.79183 5.8736 4.79183 8.75008C4.79183 10.5916 5.74757 12.2099 7.19009 13.1361C6.73592 13.2786 6.29479 13.4561 5.87207 13.6675C4.61203 14.2975 3.55427 15.2092 2.81359 16.3199C2.62207 16.607 2.69961 16.9951 2.98679 17.1866C3.27396 17.3781 3.66202 17.3006 3.85354 17.0134C4.46466 16.097 5.35067 15.3257 6.43107 14.7855C7.51159 14.2453 8.74281 13.9584 10.0002 13.9584C10.0001 13.9584 10.0002 13.9584 10.0002 13.9584C11.2576 13.9584 12.4889 14.2453 13.5694 14.7856C14.6498 15.3258 15.5358 16.0971 16.1469 17.0135C16.3384 17.3007 16.7265 17.3782 17.0137 17.1867C17.3008 16.9952 17.3784 16.6072 17.1869 16.32C16.4462 15.2093 15.3885 14.2976 14.1285 13.6675C13.7057 13.4562 13.2645 13.2786 12.8103 13.1361ZM6.04183 8.75008C6.04183 6.56395 7.81404 4.79175 10.0002 4.79175C12.1863 4.79175 13.9585 6.56395 13.9585 8.75008C13.9585 10.9362 12.1863 12.7084 10.0002 12.7084C10.0002 12.7084 10.0002 12.7084 10.0002 12.7084C7.81409 12.7084 6.04183 10.9362 6.04183 8.75008Z" fill="white"/>
</svg>
