<svg width="16" height="16" viewBox="0 0 16 16" fill="none" xmlns="http://www.w3.org/2000/svg">
<rect width="16" height="16" rx="8" fill="#F2385A"/>
<path d="M6.79813 10.1623L10.2133 4.28293C10.2297 4.25427 10.2384 4.22176 10.2384 4.18867C10.2384 4.15558 10.2298 4.12306 10.2133 4.09439C10.1969 4.06573 10.1732 4.04191 10.1446 4.02534C10.1161 4.00877 10.0838 4.00003 10.0508 4H7.84887C7.7942 4.00001 7.74048 4.01438 7.69304 4.04168C7.6456 4.06897 7.6061 4.10825 7.57843 4.15561L4.04216 10.2462C4.01466 10.2939 4.00012 10.348 4 10.4031C3.99988 10.4581 4.0142 10.5123 4.0415 10.5601C4.0688 10.6078 4.10814 10.6476 4.15556 10.6753C4.20298 10.7029 4.25681 10.7176 4.31166 10.7178H5.84974L5.18587 11.8618C5.15832 11.9095 5.14378 11.9637 5.1437 12.0188C5.14363 12.074 5.15802 12.1282 5.18544 12.176C5.21285 12.2238 5.25232 12.2635 5.29987 12.2912C5.34742 12.3188 5.40137 12.3333 5.4563 12.3333H10.9964C11.0621 12.3331 11.1266 12.3156 11.1834 12.2825C11.2403 12.2494 11.2875 12.2019 11.3203 12.1447L12.3082 10.4471C12.3246 10.4185 12.3333 10.3861 12.3333 10.3531C12.3334 10.3201 12.3248 10.2876 12.3085 10.259C12.2921 10.2303 12.2686 10.2065 12.2402 10.1899C12.2118 10.1732 12.1795 10.1644 12.1467 10.1642L6.79813 10.1623ZM7.98878 4.55644H9.41324L6.15867 10.1623H4.73233L7.98878 4.55644ZM10.8997 11.7778H5.87697L6.49201 10.7187H11.511L10.8997 11.7778Z" fill="white"/>
</svg>
