<svg width="48" height="48" viewBox="0 0 48 48" fill="none" xmlns="http://www.w3.org/2000/svg">
<circle cx="24" cy="24" r="24" fill="#F2385A"/>
<path d="M20.0586 29.7474L29.8942 12.8148C29.9416 12.7323 29.9666 12.6387 29.9667 12.5434C29.9667 12.4481 29.9417 12.3544 29.8943 12.2719C29.8469 12.1893 29.7787 12.1207 29.6966 12.073C29.6144 12.0253 29.5212 12.0001 29.4264 12H23.0847C22.9273 12 22.7726 12.0414 22.636 12.12C22.4993 12.1986 22.3856 12.3118 22.3059 12.4482L12.1214 29.9891C12.0422 30.1264 12.0003 30.2822 12 30.4408C11.9997 30.5995 12.0409 30.7554 12.1195 30.893C12.1982 31.0306 12.3114 31.145 12.448 31.2247C12.5846 31.3045 12.7396 31.3467 12.8976 31.3472H17.3272L15.4153 34.6419C15.336 34.7794 15.2941 34.9354 15.2939 35.0943C15.2936 35.2532 15.3351 35.4093 15.4141 35.547C15.493 35.6846 15.6067 35.799 15.7436 35.8785C15.8806 35.9581 16.0359 36 16.1941 36H32.1496C32.3388 35.9993 32.5246 35.9488 32.6883 35.8535C32.852 35.7582 32.988 35.6214 33.0826 35.4568L35.9275 30.5677C35.9749 30.4853 35.9999 30.392 36 30.2969C36.0001 30.2018 35.9754 30.1083 35.9284 30.0259C35.8813 29.9434 35.8134 29.8747 35.7317 29.8268C35.6499 29.7789 35.5571 29.7534 35.4624 29.7528L20.0586 29.7474ZM23.4877 13.6025H27.5901L18.217 29.7474H14.1091L23.4877 13.6025ZM31.8711 34.4002H17.4057L19.177 31.3499H33.6316L31.8711 34.4002Z" fill="white"/>
</svg>
