<svg width="24" height="24" viewBox="0 0 24 24" fill="none" xmlns="http://www.w3.org/2000/svg">
<path fill-rule="evenodd" clip-rule="evenodd" d="M11.9781 6.25879C11.9754 6.31176 11.9728 6.36539 11.9697 6.41988C11.9952 6.41841 12.0138 6.41783 12.0307 6.41729C12.0363 6.41712 12.0417 6.41694 12.0471 6.41675C12.0849 6.41231 12.1225 6.40789 12.16 6.40349C12.318 6.38496 12.4744 6.36661 12.6309 6.34697C13.0535 6.29444 13.4514 6.17017 13.8066 5.92594C14.7212 5.29752 15.3705 4.46056 15.7311 3.39974C15.8907 2.92931 15.9922 2.44909 15.9841 1.94926C15.9844 1.79659 15.9603 1.64488 15.9128 1.5C15.9097 1.50059 15.9067 1.50113 15.904 1.50164C15.8956 1.50319 15.8884 1.50451 15.8814 1.50627C15.5306 1.58661 15.1863 1.69408 14.8518 1.82773C14.2932 2.05354 13.7799 2.35343 13.3456 2.78074C12.8974 3.22176 12.5906 3.75491 12.3582 4.33746C12.1631 4.84106 12.0423 5.37102 11.9999 5.91025C11.9897 6.02443 11.984 6.13992 11.9781 6.25879ZM19.8481 8.15893C19.8769 8.13331 19.9058 8.10759 19.9349 8.08167C19.9241 8.06795 19.9159 8.05697 19.9086 8.04639C19.6589 7.73467 19.3837 7.44485 19.0858 7.18002C18.0879 6.30581 16.9231 5.97651 15.6226 6.10744C15.1233 6.15762 14.6406 6.28974 14.1657 6.45007C14.144 6.45739 14.1223 6.46471 14.1006 6.47204C13.692 6.6099 13.2837 6.74766 12.861 6.837C12.6298 6.886 12.3973 6.9256 12.1591 6.89698C11.8004 6.85386 11.4541 6.76251 11.1054 6.66647C11.0095 6.63992 10.9138 6.61287 10.818 6.58583C10.3653 6.45798 9.91269 6.33017 9.44745 6.25445C8.91675 6.16821 8.38604 6.14116 7.85223 6.22231C7.13638 6.3248 6.46238 6.62528 5.9045 7.09064C5.19056 7.68455 4.67884 8.429 4.32129 9.28597C4.00751 10.0367 3.84675 10.8247 3.78283 11.6342C3.72656 12.3412 3.74266 13.0522 3.83087 13.7558C3.9134 14.4041 4.0513 15.0439 4.24304 15.6681C4.55759 16.6999 4.99997 17.6737 5.52952 18.6083C5.91147 19.2822 6.32906 19.9306 6.8497 20.5057C7.20725 20.9012 7.60199 21.2501 8.08156 21.4892C8.47126 21.6849 8.88459 21.7821 9.32349 21.7405C9.64777 21.7053 9.96637 21.6289 10.2718 21.5132C10.4121 21.4624 10.5513 21.4085 10.6906 21.3546C10.8705 21.2851 11.0504 21.2155 11.2325 21.1525C11.6547 21.0071 12.089 20.9188 12.5387 20.9341C12.9448 20.9531 13.3465 21.0267 13.7334 21.1529C13.9215 21.2116 14.1082 21.2746 14.2949 21.3376C14.472 21.3973 14.6491 21.457 14.8273 21.5132C15.1578 21.6245 15.5012 21.6916 15.8489 21.7127C16.3466 21.7339 16.7929 21.5723 17.2078 21.307C17.6595 21.0184 18.0379 20.646 18.3719 20.2289C19.2307 19.1593 19.9099 17.9541 20.3823 16.6615C20.4143 16.5746 20.4426 16.4866 20.4713 16.3978C20.4836 16.3596 20.4959 16.3212 20.5086 16.2828C20.5031 16.2809 20.4984 16.2792 20.4942 16.2778C20.4855 16.2747 20.4793 16.2725 20.473 16.2706C20.0703 16.1448 19.6999 15.9306 19.3883 15.6434C18.213 14.554 17.6664 13.2054 17.8001 11.5911C17.8663 10.7862 18.1619 10.0618 18.6384 9.41416C18.9328 9.01586 19.2826 8.67127 19.6455 8.34001C19.7127 8.27918 19.7801 8.21932 19.8481 8.15893Z" fill="#102d42"/>
</svg>
