<svg width="25" height="24" viewBox="0 0 25 24" fill="none" xmlns="http://www.w3.org/2000/svg">
<path fill-rule="evenodd" clip-rule="evenodd" d="M5.5432 1.78711C4.97926 1.78711 4.52208 2.24429 4.52208 2.80823V21.1912H4.01129C3.72932 21.1912 3.50049 21.42 3.50049 21.702C3.50049 21.984 3.72932 22.2128 4.01129 22.2128H7.90474V17.1383C7.90474 16.5744 8.36193 16.1172 8.92586 16.1172H11.3516C11.9155 16.1172 12.3727 16.5744 12.3727 17.1383V22.2128H20.9897C21.2717 22.2128 21.5005 21.984 21.5005 21.702C21.5005 21.42 21.2717 21.1912 20.9897 21.1912H20.4789V7.3561C20.4789 6.79216 20.1653 6.33498 19.6014 6.33498H15.7558V2.80823C15.7558 2.24429 15.2986 1.78711 14.7347 1.78711H5.5432ZM8.09623 4.61158C7.81427 4.61158 7.58544 4.84041 7.58544 5.12237V6.28711C7.58544 6.56908 7.81427 6.79791 8.09623 6.79791H9.11735C9.39932 6.79791 9.62815 6.56908 9.62815 6.28711V5.12237C9.62815 4.84041 9.39932 4.61158 9.11735 4.61158H8.09623ZM7.58544 8.76067C7.58544 8.4787 7.81427 8.24987 8.09623 8.24987H9.11735C9.39932 8.24987 9.62815 8.4787 9.62815 8.76067V9.87753C9.62815 10.1595 9.39932 10.3883 9.11735 10.3883H8.09623C7.81427 10.3883 7.58544 10.1595 7.58544 9.87753V8.76067ZM8.09623 11.7446C7.81427 11.7446 7.58544 11.9734 7.58544 12.2554V13.3722C7.58544 13.6542 7.81427 13.883 8.09623 13.883H9.11735C9.39932 13.883 9.62815 13.6542 9.62815 13.3722V12.2554C9.62815 11.9734 9.39932 11.7446 9.11735 11.7446H8.09623ZM11.1601 4.61158C10.8781 4.61158 10.6493 4.84041 10.6493 5.12237V6.28711C10.6493 6.56908 10.8781 6.79791 11.1601 6.79791H12.1812C12.4631 6.79791 12.692 6.56908 12.692 6.28711V5.12237C12.692 4.84041 12.4631 4.61158 12.1812 4.61158H11.1601ZM16.5376 9.81386C16.5376 9.5319 16.7664 9.30307 17.0484 9.30307H18.0695C18.3514 9.30307 18.5803 9.5319 18.5803 9.81386V10.9786C18.5803 11.2606 18.3514 11.4894 18.0695 11.4894H17.0484C16.7664 11.4894 16.5376 11.2606 16.5376 10.9786V9.81386ZM17.0484 12.7977C16.7664 12.7977 16.5376 13.0266 16.5376 13.3085V14.4254C16.5376 14.7074 16.7664 14.9362 17.0484 14.9362H18.0695C18.3514 14.9362 18.5803 14.7074 18.5803 14.4254V13.3085C18.5803 13.0266 18.3514 12.7977 18.0695 12.7977H17.0484ZM16.5376 16.899C16.5376 16.617 16.7664 16.3882 17.0484 16.3882H18.0695C18.3514 16.3882 18.5803 16.617 18.5803 16.899V18.0158C18.5803 18.2978 18.3514 18.5266 18.0695 18.5266H17.0484C16.7664 18.5266 16.5376 18.2978 16.5376 18.0158V16.899ZM10.6493 8.76067C10.6493 8.4787 10.8781 8.24987 11.1601 8.24987H12.1812C12.4631 8.24987 12.692 8.4787 12.692 8.76067V9.87753C12.692 10.1595 12.4631 10.3883 12.1812 10.3883H11.1601C10.8781 10.3883 10.6493 10.1595 10.6493 9.87753V8.76067ZM11.1601 11.7446C10.8781 11.7446 10.6493 11.9734 10.6493 12.2554V13.3722C10.6493 13.6542 10.8781 13.883 11.1601 13.883H12.1812C12.4631 13.883 12.692 13.6542 12.692 13.3722V12.2554C12.692 11.9734 12.4631 11.7446 12.1812 11.7446H11.1601Z" fill="#618298"/>
<path d="M11.3516 22.2128V17.1383H8.92586V22.2128H11.3516Z" fill="#618298"/>
</svg>
