<svg width="32" height="32" viewBox="0 0 32 32" fill="none" xmlns="http://www.w3.org/2000/svg">
<path d="M3 12H29V20H3V12Z" fill="white"/>
<path d="M16 1.00003C7.71579 1.00003 1 7.71582 1 16C1 24.2842 7.71579 30.9995 16 30.9995C24.2842 30.9995 31 24.2842 31 16C31 7.71582 24.2842 1.00003 16 1.00003ZM10.4138 19.3032C10.2889 19.3032 10.1718 19.2529 10.0817 19.1595L7.52623 16.6074L4.96084 19.1689C4.87462 19.2551 4.75967 19.3027 4.63698 19.3027C4.38442 19.3027 4.17828 19.0976 4.17828 18.8445C4.17828 18.7202 4.22747 18.6041 4.31755 18.5157L6.87576 15.9531L4.31645 13.3937C4.22802 13.3064 4.17828 13.1909 4.17828 13.0677C4.17828 12.8146 4.38442 12.609 4.63698 12.609C4.75912 12.609 4.87407 12.6565 4.96084 12.7422L7.5301 15.302C7.5301 15.302 10.0872 12.746 10.0878 12.7455C10.1745 12.6576 10.29 12.609 10.4138 12.609C10.6669 12.609 10.8725 12.8146 10.8725 13.0677C10.8725 13.1893 10.825 13.3037 10.7404 13.3904L8.18057 15.9564L10.7388 18.5212C10.825 18.6074 10.8725 18.7224 10.8725 18.8445C10.8725 19.0976 10.6664 19.3032 10.4138 19.3032ZM16.5703 16.3228C16.5703 16.3228 12.0585 16.3233 11.7827 16.3233C11.7838 16.3454 11.7861 16.3692 11.7888 16.3941C11.8131 16.5267 11.8468 16.6555 11.8916 16.7798C12.1453 17.4441 12.8593 18.3753 14.1934 18.3902C14.6012 18.388 14.9842 18.2852 15.3208 18.1056C15.5855 17.9581 15.806 17.7674 15.984 17.5712C16.0426 17.5005 16.0962 17.4303 16.1442 17.3618C16.3681 17.0749 16.6527 17.128 16.8218 17.2573C17.0224 17.4115 17.0567 17.7337 16.8737 17.9603C16.8682 17.9664 16.8632 17.9719 16.8577 17.978C16.5947 18.3079 16.3227 18.5837 15.9972 18.7931C15.6839 18.9937 15.344 19.1363 14.992 19.222C14.583 19.3281 14.1879 19.3513 13.7822 19.3021C12.4144 19.1347 11.2671 18.1244 10.9278 16.7903C10.8598 16.5217 10.8272 16.2493 10.8272 15.979C10.8272 14.9019 11.3461 13.8563 12.2448 13.2169C13.3456 12.4338 14.8516 12.394 15.9923 13.118C16.7721 13.6115 17.2844 14.3802 17.4822 15.3159C17.5795 15.8458 17.2263 16.309 16.5703 16.3228ZM20.4317 13.5673C19.4369 13.6916 19.3308 14.1608 19.3308 15.3214V18.8047C19.3303 19.0573 19.1247 19.2623 18.8721 19.2623C18.6201 19.2623 18.4145 19.0573 18.4134 18.8053C18.4134 18.8053 18.4123 13.1412 18.4123 13.1406C18.4129 12.8881 18.6146 12.6858 18.8666 12.6858C19.086 12.6858 19.27 12.8405 19.3148 13.0467C19.6563 12.7836 20.0647 12.6499 20.4881 12.6499L20.629 12.6504C20.8827 12.6504 21.0893 12.856 21.0893 13.1091C21.0893 13.3617 20.8959 13.5485 20.624 13.5579C20.6235 13.5579 20.5234 13.5562 20.4317 13.5673ZM24.2312 19.3187C22.377 19.3187 20.8683 17.8105 20.8683 15.9558C20.8683 14.1017 22.377 12.5929 24.2312 12.5929C26.0858 12.5929 27.5951 14.1017 27.5951 15.9558C27.5951 17.8105 26.0858 19.3187 24.2312 19.3187ZM14.1791 13.5323C13.0439 13.5323 12.0906 14.311 11.8242 15.3638C11.8237 15.3771 11.8226 15.3898 11.8226 15.4025H16.5428C16.2902 14.3304 15.3286 13.5323 14.1791 13.5323ZM24.2312 13.5425C22.9004 13.5425 21.8177 14.6251 21.8177 15.9559C21.8177 17.2867 22.9004 18.3693 24.2312 18.3693C25.5619 18.3693 26.6446 17.2867 26.6446 15.9559C26.6446 14.6251 25.5619 13.5425 24.2312 13.5425ZM24.2323 16.7893C23.7719 16.7893 23.3983 16.4151 23.3983 15.9559C23.3983 15.4961 23.7719 15.1225 24.2323 15.1225C24.6915 15.1225 25.0651 15.4961 25.0651 15.9559C25.0651 16.4151 24.6915 16.7893 24.2323 16.7893Z" fill="#13B5EA"/>
</svg>
