<svg width="64" height="64" viewBox="0 0 64 64" fill="none" xmlns="http://www.w3.org/2000/svg">
<g clip-path="url(#clip0_1640_4674)">
<path d="M32 64C49.6731 64 64 49.6731 64 32C64 14.3269 49.6731 0 32 0C14.3269 0 0 14.3269 0 32C0 49.6731 14.3269 64 32 64Z" fill="#C8FFD7"/>
<path d="M31.5903 28.0533C32.4212 28.0533 33.2181 27.7232 33.8057 27.1357C34.3933 26.5481 34.7234 25.7512 34.7234 24.9202C34.7234 24.0893 34.3933 23.2923 33.8057 22.7048C33.2181 22.1172 32.4212 21.7871 31.5903 21.7871C30.7593 21.7871 29.9624 22.1172 29.3748 22.7048C28.7872 23.2923 28.4572 24.0893 28.4572 24.9202C28.4572 25.7512 28.7872 26.5481 29.3748 27.1357C29.9624 27.7232 30.7593 28.0533 31.5903 28.0533ZM31.5903 22.8315C32.1442 22.8315 32.6755 23.0515 33.0672 23.4433C33.4589 23.835 33.679 24.3662 33.679 24.9202C33.679 25.4742 33.4589 26.0055 33.0672 26.3972C32.6755 26.7889 32.1442 27.0089 31.5903 27.0089C31.0363 27.0089 30.505 26.7889 30.1133 26.3972C29.7216 26.0055 29.5015 25.4742 29.5015 24.9202C29.5015 24.3662 29.7216 23.835 30.1133 23.4433C30.505 23.0515 31.0363 22.8315 31.5903 22.8315ZM38.8627 28.5797H38.8544L33.3714 29.0721C33.1845 29.0893 32.9975 29.0977 32.8101 29.0977H30.3704C30.1835 29.0977 29.9966 29.0893 29.8101 29.0726L24.3178 28.5797C23.9036 28.5471 23.4934 28.6805 23.1775 28.9504C22.8615 29.2203 22.6658 29.6046 22.6332 30.0188C22.6007 30.433 22.734 30.8432 23.0039 31.1592C23.2738 31.4751 23.6581 31.6708 24.0724 31.7034L28.5041 32.1055C28.6339 32.1172 28.7546 32.177 28.8425 32.2731C28.9304 32.3692 28.9792 32.4948 28.9793 32.625V33.8261C28.9793 34.0872 28.9308 34.3462 28.8352 34.589L26.3225 40.9883C26.2392 41.1765 26.1938 41.3792 26.1888 41.5849C26.1839 41.7907 26.2195 41.9953 26.2937 42.1873C26.3679 42.3792 26.4791 42.5547 26.6211 42.7036C26.7631 42.8526 26.933 42.9721 27.1211 43.0554C27.3093 43.1387 27.512 43.1841 27.7178 43.189C27.9235 43.194 28.1281 43.1583 28.3201 43.0842C28.512 43.01 28.6875 42.8988 28.8364 42.7568C28.9854 42.6148 29.1049 42.4449 29.1882 42.2567L31.5829 36.4015L34.0001 42.2724C34.1734 42.6433 34.4851 42.9316 34.8683 43.0757C35.2515 43.2197 35.6759 43.208 36.0506 43.043C36.4253 42.878 36.7206 42.573 36.8731 42.193C37.0257 41.8131 37.0235 41.3886 36.8669 41.0103L34.3453 34.5874C34.2501 34.3447 34.2012 34.0863 34.2012 33.8255V32.6245C34.2013 32.4942 34.2501 32.3687 34.338 32.2726C34.4259 32.1765 34.5466 32.1167 34.6764 32.1049L39.1008 31.7034C39.5151 31.6718 39.8999 31.4769 40.1705 31.1617C40.4412 30.8464 40.5755 30.4365 40.5439 30.0222C40.5123 29.6079 40.3174 29.2231 40.0022 28.9525C39.6869 28.6819 39.277 28.5481 38.8627 28.5797ZM39.0136 30.6642L34.5818 31.0663C34.192 31.0999 33.8291 31.2788 33.5651 31.5676C33.3011 31.8563 33.1554 32.2338 33.1568 32.625V33.8261C33.1568 34.2177 33.2299 34.6062 33.3735 34.9712L35.904 41.4144C35.9333 41.4765 35.95 41.5436 35.9533 41.6121C35.9566 41.6806 35.9463 41.7491 35.9232 41.8136C35.9 41.8782 35.8643 41.9375 35.8182 41.9883C35.7721 42.039 35.7164 42.0802 35.6544 42.1095C35.5924 42.1387 35.5252 42.1555 35.4567 42.1587C35.3882 42.162 35.3197 42.1518 35.2552 42.1286C35.1907 42.1054 35.1313 42.0698 35.0806 42.0237C35.0298 41.9775 34.9886 41.9219 34.9594 41.8599L32.5474 36.0046C32.4692 35.8151 32.3365 35.6531 32.1661 35.5391C31.9957 35.4251 31.7953 35.3642 31.5903 35.3642C31.3852 35.3642 31.1848 35.4251 31.0144 35.5391C30.844 35.6531 30.7113 35.8151 30.6331 36.0046L28.2279 41.8442C28.2005 41.9094 28.16 41.9684 28.1091 42.0175C28.0581 42.0667 27.9977 42.1049 27.9316 42.13C27.8654 42.1551 27.7948 42.1664 27.7241 42.1634C27.6533 42.1603 27.584 42.1429 27.5202 42.1122C27.4564 42.0815 27.3996 42.0382 27.353 41.9849C27.3065 41.9315 27.2713 41.8693 27.2496 41.8019C27.2279 41.7346 27.2201 41.6635 27.2267 41.593C27.2333 41.5225 27.2541 41.4541 27.288 41.392L29.8096 34.9691C29.9522 34.6046 30.0247 34.2172 30.0237 33.8255V32.6245C30.0254 32.2331 29.8798 31.8554 29.6158 31.5664C29.3517 31.2774 28.9887 31.0983 28.5987 31.0648L24.1596 30.6642C24.0211 30.6545 23.8921 30.5901 23.8011 30.4853C23.7101 30.3804 23.6644 30.2437 23.6742 30.1052C23.684 29.9667 23.7484 29.8378 23.8532 29.7468C23.958 29.6558 24.0947 29.6101 24.2332 29.6199L29.7161 30.1123C29.9334 30.1316 30.1511 30.1415 30.3694 30.1415H32.809C33.0273 30.1415 33.2451 30.1316 33.4623 30.1123L38.9426 29.6199C39.0109 29.6145 39.0797 29.6226 39.1448 29.6439C39.21 29.6652 39.2702 29.6992 39.3222 29.7439C39.3741 29.7886 39.4167 29.8432 39.4475 29.9044C39.4782 29.9657 39.4965 30.0324 39.5013 30.1008C39.507 30.17 39.4987 30.2395 39.4772 30.3055C39.4556 30.3714 39.4211 30.4324 39.3757 30.4848C39.3303 30.5373 39.2749 30.5802 39.2127 30.611C39.1505 30.6418 39.0829 30.6599 39.0136 30.6642Z" fill="#259E57"/>
<path fill-rule="evenodd" clip-rule="evenodd" d="M55.0588 37.4347C56.1746 33.3247 56.1614 28.9897 55.0205 24.8866L56.2537 24.5437C57.4563 28.8686 57.4702 33.4379 56.2941 37.7701L55.0588 37.4347Z" fill="#259E57"/>
<path fill-rule="evenodd" clip-rule="evenodd" d="M9.22223 37.4347C8.10638 33.3247 8.11961 28.9897 9.26053 24.8866L8.02732 24.5437C6.82473 28.8686 6.81078 33.4379 7.98695 37.7701L9.22223 37.4347Z" fill="#259E57"/>
<path d="M12.8733 22.6823L12.1247 23.8952L7.08018 17.3811L7.94871 15.9738L16.0217 17.5807L15.2731 18.7936L13.5238 18.4171L11.7581 21.2781L12.8733 22.6823ZM8.50868 17.3038L11.0143 20.4739L12.4657 18.1221L8.52011 17.2853L8.50868 17.3038Z" fill="#259E57"/>
<path d="M18.0431 16.3133C17.6162 16.6956 17.1506 16.9421 16.6462 17.053C16.1418 17.1639 15.6451 17.1365 15.1559 16.9708C14.6722 16.8003 14.2368 16.4989 13.8497 16.0666C13.4627 15.6343 13.2083 15.1708 13.0866 14.6761C12.9601 14.176 12.9716 13.6887 13.121 13.214C13.2705 12.7394 13.5506 12.3183 13.9612 11.9505C14.4476 11.5151 14.9924 11.2755 15.5958 11.2317C16.1998 11.1777 16.7464 11.326 17.2356 11.6766L16.5732 12.6494C16.2568 12.4265 15.926 12.3235 15.5809 12.3404C15.2358 12.3573 14.9336 12.4819 14.6742 12.7141C14.4418 12.9222 14.2894 13.1706 14.217 13.4594C14.1397 13.7428 14.149 14.0413 14.2447 14.3547C14.3355 14.6628 14.5092 14.96 14.7657 15.2464C15.0221 15.5328 15.3035 15.7384 15.61 15.8632C15.917 15.9777 16.2261 16.0076 16.5374 15.9529C16.8437 15.8927 17.1212 15.7514 17.3698 15.5288C17.694 15.2385 17.8828 14.8893 17.9361 14.4813C17.9894 14.0733 17.895 13.6906 17.6527 13.3331L18.6434 12.6943C18.8953 13.0626 19.0374 13.466 19.0697 13.9044C19.1075 14.3379 19.0376 14.7655 18.8603 15.1872C18.6829 15.6089 18.4105 15.9843 18.0431 16.3133Z" fill="#259E57"/>
<path d="M22.4871 13.2882C21.9751 13.5454 21.4611 13.6616 20.9453 13.6366C20.4295 13.6116 19.9572 13.4552 19.5285 13.1674C19.1063 12.8762 18.7649 12.4714 18.5044 11.9529C18.2439 11.4344 18.1196 10.9205 18.1316 10.4112C18.1403 9.89543 18.2789 9.42806 18.5473 9.00909C18.8158 8.59012 19.1963 8.2569 19.6888 8.00942C20.2722 7.71635 20.8607 7.62763 21.4546 7.74326C22.0516 7.84916 22.5404 8.13529 22.9208 8.60166L22.027 9.3673C21.7799 9.06935 21.4876 8.88339 21.1501 8.80944C20.8126 8.73548 20.4883 8.77666 20.1772 8.93296C19.8985 9.07298 19.6864 9.27288 19.541 9.53267C19.3922 9.78597 19.323 10.0764 19.3334 10.404C19.3405 10.7252 19.4304 11.0575 19.6029 11.401C19.7755 11.7445 19.9934 12.0165 20.2565 12.2171C20.5229 12.408 20.8134 12.5177 21.1281 12.5463C21.4396 12.5684 21.7444 12.5046 22.0425 12.3548C22.4314 12.1594 22.7049 11.8718 22.8631 11.492C23.0214 11.1122 23.0303 10.718 22.8901 10.3096L24.0133 9.95221C24.1601 10.3736 24.1918 10.8001 24.1083 11.2317C24.0312 11.66 23.852 12.0545 23.5704 12.4151C23.2889 12.7757 22.9278 13.0667 22.4871 13.2882Z" fill="#259E57"/>
<path d="M27.7195 11.515C27.1225 11.6366 26.5605 11.6215 26.0337 11.4697C25.5053 11.3108 25.0606 11.035 24.6993 10.6422C24.3437 10.2409 24.108 9.75596 23.9922 9.18737C23.8778 8.62588 23.8973 8.10375 24.0507 7.62099C24.2026 7.13111 24.4672 6.72192 24.8444 6.39342C25.2273 6.05636 25.6959 5.83138 26.2503 5.71848C26.7905 5.60847 27.2913 5.63232 27.7527 5.79002C28.2142 5.94772 28.602 6.21663 28.9163 6.59676C29.2306 6.97689 29.4435 7.44059 29.5549 7.98786C29.594 8.17976 29.6109 8.33546 29.6056 8.45497L25.3199 9.3278C25.468 9.80097 25.7467 10.1514 26.1557 10.3789C26.5719 10.6051 27.0394 10.6653 27.5582 10.5596C27.9349 10.4829 28.263 10.331 28.5424 10.1038C28.8275 9.86812 29.025 9.60213 29.1349 9.30586L30.0344 9.63343C29.925 10.0776 29.6575 10.4726 29.232 10.8184C28.8136 11.1626 28.3094 11.3949 27.7195 11.515ZM28.2444 7.87724C28.1048 7.40973 27.8731 7.07198 27.5495 6.86401C27.2315 6.64749 26.8629 6.58192 26.4435 6.66732C26.0171 6.75417 25.6871 6.96942 25.4536 7.31306C25.2187 7.6496 25.1183 8.04754 25.1527 8.50689L28.2444 7.87724Z" fill="#259E57"/>
<path d="M32.5234 11.1648C31.7845 11.1282 31.1735 10.9273 30.6905 10.562C30.2148 10.1971 29.9697 9.72021 29.9553 9.13126L31.0826 9.0237C31.0947 9.36562 31.2441 9.64899 31.5307 9.87379C31.8173 10.0986 32.178 10.2218 32.6127 10.2433C32.9894 10.2619 33.3083 10.2015 33.5694 10.0619C33.8377 9.9227 33.9778 9.73356 33.9896 9.49449C33.999 9.30614 33.9089 9.14554 33.7194 9.01269C33.5299 8.87985 33.2198 8.76282 32.789 8.6616L31.949 8.46748C31.3676 8.32975 30.9487 8.13471 30.6925 7.88236C30.4367 7.62277 30.3194 7.27927 30.3405 6.85184C30.3574 6.51135 30.4665 6.21538 30.6678 5.9639C30.8694 5.70519 31.1404 5.51164 31.4808 5.38326C31.8213 5.25488 32.2052 5.20127 32.6326 5.22245C33.2411 5.25259 33.7519 5.42314 34.165 5.73409C34.5781 6.04504 34.8164 6.43811 34.88 6.9133L33.7831 7.06594C33.7602 6.7961 33.6369 6.57213 33.4134 6.39403C33.1898 6.21592 32.9041 6.11826 32.5564 6.10103C32.2594 6.08632 32.0021 6.14983 31.7844 6.29155C31.574 6.43364 31.4602 6.60592 31.4429 6.80841C31.4343 6.98228 31.507 7.12749 31.661 7.24405C31.8153 7.35337 32.0717 7.45684 32.4299 7.55448L33.2809 7.74913C33.9409 7.91255 34.4168 8.12857 34.7085 8.3972C35.0002 8.66582 35.1353 9.01747 35.1137 9.45214C35.0962 9.80712 34.9717 10.1205 34.7404 10.3923C34.5166 10.6571 34.2089 10.8598 33.817 11.0001C33.4328 11.1336 33.0016 11.1885 32.5234 11.1648Z" fill="#259E57"/>
<path d="M37.1829 11.9337C36.4731 11.7251 35.9262 11.3867 35.5421 10.9185C35.165 10.4524 35.0384 9.93131 35.1623 9.35535L36.2835 9.51475C36.2152 9.85001 36.2941 10.1605 36.5201 10.4461C36.7461 10.7318 37.0679 10.936 37.4854 11.0587C37.8473 11.165 38.1715 11.1809 38.458 11.1064C38.7515 11.0339 38.932 10.8828 38.9995 10.6531C39.0526 10.4722 39.0027 10.295 38.8495 10.1214C38.6964 9.94792 38.4223 9.76153 38.0273 9.56227L37.256 9.17685C36.723 8.9068 36.3615 8.61912 36.1715 8.3138C35.9836 8.00153 35.9499 7.64009 36.0706 7.22951C36.1667 6.90244 36.342 6.64022 36.5966 6.44287C36.8532 6.23856 37.162 6.11385 37.523 6.06875C37.8841 6.02365 38.2699 6.06143 38.6804 6.18209C39.265 6.35389 39.7217 6.63929 40.0504 7.03832C40.3792 7.43735 40.5189 7.8753 40.4695 8.35218L39.3673 8.24374C39.4082 7.97603 39.3408 7.72942 39.1652 7.50392C38.9895 7.27841 38.7347 7.11658 38.4006 7.01841C38.1153 6.93456 37.8503 6.93605 37.6055 7.02288C37.3677 7.11176 37.2167 7.2526 37.1525 7.44541C37.1034 7.61242 37.1401 7.77062 37.2625 7.92C37.387 8.06242 37.6119 8.22303 37.9374 8.40184L38.7191 8.79033C39.3225 9.10375 39.7346 9.42519 39.9553 9.75465C40.176 10.0841 40.2249 10.4576 40.1022 10.8752C40.002 11.2162 39.8076 11.4917 39.5191 11.7017C39.2396 11.9069 38.8929 12.0318 38.4791 12.0765C38.0743 12.1163 37.6422 12.0687 37.1829 11.9337Z" fill="#259E57"/>
<path d="M43.4123 7.23146C43.1979 7.12497 43.0564 6.97775 42.9878 6.78979C42.9224 6.59533 42.9413 6.39416 43.0446 6.18629C43.1479 5.97842 43.2951 5.84504 43.4863 5.78615C43.6776 5.72726 43.8804 5.75106 44.0947 5.85755C44.3026 5.96081 44.4392 6.10967 44.5046 6.30412C44.5797 6.49531 44.5673 6.6916 44.4672 6.89297C44.364 7.10084 44.2119 7.23586 44.0109 7.29802C43.8197 7.3569 43.6201 7.33472 43.4123 7.23146ZM41.0779 13.2759L39.9866 12.7338L42.4503 7.77406L43.5416 8.31617L41.0779 13.2759Z" fill="#259E57"/>
<path d="M44.0352 15.4268C43.6786 15.1529 43.4212 14.8271 43.2631 14.4495C43.1152 14.0706 43.0749 13.6646 43.1423 13.2316L43.1337 13.225L42.3944 13.9193L41.5662 13.283L46.4646 6.90711L47.4396 7.65612L45.3052 10.4343L45.3138 10.4409C45.7206 10.2686 46.1239 10.208 46.5237 10.2591C46.9235 10.3101 47.2988 10.4704 47.6497 10.74C48.0523 11.0493 48.3345 11.4262 48.4962 11.8705C48.6623 12.3091 48.6975 12.7752 48.6018 13.2688C48.5119 13.7668 48.2924 14.2431 47.9433 14.6974C47.5942 15.1518 47.1906 15.4866 46.7326 15.7018C46.2803 15.9215 45.8158 16.0082 45.339 15.9621C44.8724 15.9146 44.4378 15.7362 44.0352 15.4268ZM44.4259 14.3825C44.6905 14.5857 44.975 14.7036 45.2792 14.7362C45.5937 14.7674 45.8997 14.7144 46.1972 14.5771C46.4948 14.4398 46.7518 14.2303 46.9684 13.9484C47.1849 13.6666 47.3189 13.3671 47.3705 13.05C47.4265 12.7271 47.3988 12.4178 47.2877 12.122C47.1822 11.8306 46.9972 11.5833 46.7327 11.38C46.4681 11.1767 46.1786 11.0595 45.8641 11.0283C45.5554 11.0015 45.2523 11.0567 44.9547 11.194C44.6616 11.3255 44.4068 11.5322 44.1902 11.8141C43.9781 12.0901 43.8441 12.3896 43.7881 12.7125C43.7321 13.0354 43.7569 13.3425 43.8623 13.6339C43.9735 13.9297 44.1614 14.1792 44.4259 14.3825Z" fill="#259E57"/>
<path d="M47.2246 18.2256L46.4145 17.3008L52.4626 12.003L53.2727 12.9278L47.2246 18.2256Z" fill="#259E57"/>
<path d="M49.161 21.3782C48.8517 20.8532 48.6831 20.3169 48.6552 19.7694C48.6335 19.2181 48.7496 18.7078 49.0034 18.2383C49.2671 17.7715 49.649 17.3908 50.149 17.0963C50.6427 16.8054 51.1427 16.6539 51.6491 16.6418C52.1618 16.6261 52.6348 16.7431 53.0682 16.9929C53.5115 17.2452 53.8767 17.6151 54.1639 18.1026C54.4437 18.5776 54.5841 19.0589 54.5852 19.5465C54.5862 20.0342 54.4582 20.4884 54.201 20.9093C53.9439 21.3302 53.5747 21.6824 53.0935 21.9659C52.9247 22.0653 52.783 22.1319 52.6683 22.1658L50.4482 18.3974C50.049 18.6915 49.8084 19.069 49.7263 19.5298C49.6479 19.9969 49.7431 20.4586 50.0119 20.9148C50.207 21.246 50.4574 21.5068 50.7632 21.6971C51.0788 21.8899 51.3946 21.9901 51.7105 21.9977L51.6935 22.9548C51.2379 22.9959 50.7773 22.8715 50.3119 22.5816C49.8502 22.298 49.4666 21.8969 49.161 21.3782ZM52.7716 20.6907C53.1682 20.4065 53.4122 20.0776 53.5035 19.7039C53.6048 19.3328 53.5468 18.9628 53.3296 18.5941C53.1087 18.2191 52.7978 17.9772 52.3968 17.8682C52.0022 17.7556 51.5932 17.7902 51.1701 17.9722L52.7716 20.6907Z" fill="#259E57"/>
<path d="M8.08063 43.3942C7.83777 42.8958 7.73145 42.3972 7.76167 41.8984C7.7919 41.3997 7.94879 40.9446 8.23237 40.5331C8.51902 40.128 8.91471 39.8025 9.41944 39.5566C9.92418 39.3106 10.4229 39.1965 10.9155 39.2141C11.4144 39.2286 11.865 39.3682 12.2672 39.6328C12.6694 39.8975 12.9873 40.2696 13.2209 40.7491C13.4976 41.3169 13.5765 41.8874 13.4576 42.4606C13.3482 43.037 13.0656 43.5065 12.6098 43.8691L11.8796 42.9953C12.1708 42.7597 12.3541 42.4791 12.4297 42.1534C12.5052 41.8278 12.4692 41.5135 12.3216 41.2107C12.1894 40.9394 11.9985 40.7318 11.7489 40.588C11.5056 40.4411 11.2254 40.3708 10.9083 40.3769C10.5975 40.38 10.2749 40.4631 9.94052 40.626C9.60613 40.7889 9.34034 40.9965 9.14315 41.2487C8.95534 41.5042 8.84575 41.784 8.81438 42.0881C8.78933 42.3892 8.84751 42.6849 8.98892 42.9751C9.17337 43.3536 9.44841 43.6217 9.81405 43.7792C10.1797 43.9368 10.5609 43.9501 10.9577 43.8192L11.2903 44.9102C10.8808 45.0473 10.4678 45.0729 10.0512 44.987C9.63769 44.9074 9.25815 44.7293 8.91257 44.4527C8.56699 44.1761 8.28968 43.8233 8.08063 43.3942Z" fill="#259E57"/>
<path d="M11.9272 49.1847C11.5445 48.7455 11.2979 48.2809 11.1873 47.7907C11.0813 47.3059 11.1117 46.828 11.2784 46.3569C11.4497 45.8911 11.7523 45.4692 12.1861 45.0911C12.62 44.713 13.0794 44.471 13.5642 44.3651C14.0589 44.2598 14.5392 44.2928 15.005 44.4641C15.4753 44.6407 15.9019 44.9485 16.2846 45.3877C16.6673 45.8269 16.9116 46.2889 17.0176 46.7737C17.1281 47.2638 17.0951 47.7441 16.9185 48.2145C16.7519 48.6855 16.4516 49.1101 16.0177 49.4882C15.5838 49.8663 15.1221 50.1057 14.6327 50.2063C14.1479 50.3123 13.6703 50.277 13.1999 50.1004C12.7341 49.9291 12.3099 49.6239 11.9272 49.1847ZM12.6891 48.5207C13.035 48.9176 13.4386 49.1244 13.9001 49.1412C14.3668 49.1534 14.8145 48.9727 15.2431 48.5993C15.6717 48.2258 15.9092 47.8093 15.9557 47.3499C16.0022 46.8905 15.8526 46.4624 15.5068 46.0655C15.1563 45.6634 14.7504 45.4539 14.2889 45.4371C13.8321 45.4256 13.3894 45.6066 12.9608 45.9801C12.5322 46.3535 12.2897 46.7696 12.2333 47.2284C12.1868 47.6878 12.3387 48.1186 12.6891 48.5207Z" fill="#259E57"/>
<path d="M15.0004 52.3325L17.6872 47.6963L18.5343 48.1872L18.2275 49.0315L18.2366 49.0368C18.5417 48.8323 18.8814 48.7291 19.2557 48.727C19.6361 48.7284 20.0115 48.8365 20.3819 49.0512C20.7402 49.2588 20.9915 49.518 21.1359 49.8288C21.2838 50.1335 21.3208 50.4754 21.2472 50.8545L21.2563 50.8598C21.631 50.6471 22.0116 50.5432 22.3981 50.5481C22.7907 50.5566 23.1691 50.6664 23.5335 50.8776C24.0132 51.1556 24.2986 51.5238 24.3899 51.9823C24.4907 52.4382 24.3863 52.9333 24.0766 53.4677L22.2871 56.5554L21.2579 55.9589L22.9523 53.0351C23.1283 52.7315 23.1835 52.4472 23.1181 52.1822C23.0562 51.911 22.8765 51.6893 22.579 51.5168C22.2207 51.3092 21.8631 51.2683 21.5063 51.3941C21.1591 51.5173 20.8694 51.7793 20.6371 52.1801L19.1538 54.7396L18.1337 54.1484L19.8281 51.2246C20.0041 50.9209 20.0593 50.6366 19.9939 50.3716C19.932 50.1005 19.7523 49.8787 19.4548 49.7063C19.0904 49.4951 18.7329 49.4542 18.3821 49.5835C18.0349 49.7067 17.7452 49.9688 17.5129 50.3695L16.0296 52.929L15.0004 52.3325Z" fill="#259E57"/>
<path d="M23.5724 59.1296L24.9444 51.6858L25.9383 51.869L25.9162 52.8604L25.9265 52.8623C26.1941 52.5334 26.5114 52.3029 26.8783 52.1707C27.2534 52.0328 27.6549 52.0034 28.0828 52.0822C28.566 52.1713 28.9751 52.3716 29.3102 52.6831C29.6534 52.989 29.8926 53.3757 30.0277 53.843C30.1697 54.3117 30.1904 54.8186 30.0899 55.3639C29.9894 55.9091 29.7893 56.3754 29.4896 56.7626C29.1967 57.1511 28.8383 57.4311 28.4141 57.6027C27.9912 57.7674 27.5382 57.8053 27.0551 57.7162C26.6341 57.6386 26.2757 57.4727 25.98 57.2183C25.6856 56.9571 25.468 56.628 25.3271 56.2309L25.3167 56.229L24.7423 59.3453L23.5724 59.1296ZM26.9231 56.6321C27.2406 56.6906 27.5375 56.6669 27.814 56.5608C28.0986 56.4491 28.3389 56.2686 28.5347 56.0192C28.7305 55.7699 28.859 55.4795 28.92 55.1482C28.9824 54.81 28.9665 54.4895 28.8724 54.1867C28.7784 53.884 28.6177 53.6331 28.3903 53.4342C28.1711 53.2296 27.9027 53.0981 27.5852 53.0396C27.2677 52.9811 26.9667 53.0076 26.682 53.1193C26.4043 53.2323 26.1675 53.4134 25.9717 53.6628C25.7771 53.9053 25.6487 54.1956 25.5863 54.5338C25.5253 54.8651 25.5418 55.1822 25.6358 55.4849C25.7299 55.7877 25.8865 56.0414 26.1057 56.246C26.3331 56.4449 26.6056 56.5736 26.9231 56.6321Z" fill="#259E57"/>
<path d="M33.3392 58.0987C32.7532 58.1637 32.2596 58.0737 31.8582 57.8287C31.4629 57.5759 31.2394 57.2159 31.1876 56.7485C31.1365 56.2881 31.2897 55.8863 31.6471 55.543C32.0106 55.192 32.5881 54.9232 33.3795 54.7366L34.5468 54.4695C34.6708 54.4416 34.7673 54.3885 34.8363 54.3103C34.9053 54.232 34.9336 54.1371 34.9212 54.0255C34.8903 53.7464 34.7469 53.5364 34.4912 53.3952C34.2417 53.2464 33.9285 53.1928 33.5519 53.2346C33.2798 53.2648 33.0415 53.3442 32.8368 53.4728C32.6322 53.6014 32.4733 53.7602 32.3601 53.9493C32.2539 54.1376 32.2046 54.3302 32.2123 54.5271L31.0626 54.3792C31.0611 54.0475 31.1569 53.7332 31.3499 53.4364C31.5492 53.1319 31.8282 52.8785 32.1871 52.6763C32.553 52.4733 32.9696 52.3459 33.437 52.2941C33.9183 52.2407 34.3531 52.2772 34.7414 52.4036C35.1296 52.5301 35.4423 52.739 35.6794 53.0305C35.9157 53.315 36.0567 53.663 36.1024 54.0745L36.368 56.4707C36.3804 56.5823 36.4149 56.6702 36.4715 56.7346C36.5272 56.7919 36.6005 56.8156 36.6912 56.8055C36.7609 56.7978 36.8315 56.7653 36.9028 56.7079C36.9733 56.6436 37.0319 56.5665 37.0784 56.4766L37.5607 57.101C37.446 57.2762 37.282 57.4214 37.0688 57.5369C36.8564 57.6593 36.6352 57.7333 36.405 57.7588C36.119 57.7905 35.869 57.7335 35.6551 57.5877C35.4482 57.4412 35.3208 57.247 35.2728 57.0052L35.2275 56.7878L35.217 56.7889C35.0728 57.1439 34.8371 57.4383 34.51 57.6723C34.1829 57.9063 33.7926 58.0485 33.3392 58.0987ZM33.594 57.149C34.0684 57.0964 34.4435 56.9136 34.7195 56.6005C34.9947 56.2805 35.108 55.9007 35.0592 55.4613L35.0267 55.1683L33.6944 55.4749C32.7441 55.6933 32.2957 56.0431 32.349 56.5244C32.3746 56.7546 32.5032 56.9275 32.7349 57.043C32.9658 57.1516 33.2522 57.1869 33.594 57.149Z" fill="#259E57"/>
<path d="M41.3341 56.3039C40.8022 56.5044 40.3171 56.511 39.879 56.3237C39.4474 56.1338 39.135 55.7828 38.9419 55.2705L37.9467 52.6305L36.9223 53.0167L36.5918 52.14L37.6163 51.7538L37.0778 50.3254L38.0981 49.6596L38.7195 51.3379L40.8473 50.5358L41.1778 51.4125L39.05 52.2146L39.9994 54.7032C40.1034 54.979 40.2631 55.1738 40.4785 55.2876C40.7004 55.3989 40.9362 55.4076 41.1858 55.3135C41.4288 55.2219 41.615 55.0692 41.7444 54.8554C41.8738 54.6416 41.9304 54.384 41.9143 54.0826L42.6752 54.4595C42.6907 54.8587 42.5718 55.2298 42.3186 55.5728C42.0629 55.9092 41.7347 56.1529 41.3341 56.3039Z" fill="#259E57"/>
<path d="M41.3455 49.159C41.1445 49.274 40.9499 49.3085 40.7619 49.2625C40.5703 49.2104 40.4188 49.0868 40.3073 48.8919C40.1957 48.697 40.1678 48.5068 40.2234 48.3213C40.279 48.1359 40.4073 47.9856 40.6083 47.8706C40.8032 47.7591 40.9965 47.7294 41.188 47.7815C41.3822 47.824 41.5333 47.9397 41.6413 48.1286C41.7529 48.3235 41.7795 48.5185 41.7213 48.7135C41.6657 48.8989 41.5404 49.0474 41.3455 49.159ZM44.9485 54.2899L43.9251 54.8755L41.2639 50.2245L42.2873 49.639L44.9485 54.2899Z" fill="#259E57"/>
<path d="M49.6882 50.9255C49.3602 51.2114 49.002 51.3932 48.6136 51.471C48.2259 51.5388 47.8331 51.4994 47.4353 51.3527L47.4274 51.3596L47.9446 52.1935L47.1827 52.8575L42.0716 46.9921L42.9685 46.2106L45.1955 48.7663L45.2035 48.7594C45.1178 48.3406 45.1375 47.9465 45.2623 47.577C45.3872 47.2075 45.611 46.8822 45.9338 46.6009C46.3042 46.2782 46.7156 46.0826 47.168 46.0142C47.6158 45.9405 48.0646 45.9962 48.5145 46.1813C48.9697 46.3619 49.3794 46.6611 49.7437 47.0791C50.1079 47.4971 50.3483 47.944 50.4649 48.4196C50.5867 48.8905 50.5802 49.3477 50.4452 49.7911C50.311 50.2246 50.0586 50.6028 49.6882 50.9255ZM48.7724 50.3552C49.0158 50.1431 49.182 49.8958 49.271 49.6134C49.3608 49.3211 49.369 49.0208 49.2957 48.7123C49.2223 48.4038 49.0727 48.1199 48.8468 47.8607C48.6209 47.6014 48.3624 47.417 48.0715 47.3074C47.776 47.1926 47.4773 47.1597 47.1754 47.2086C46.8789 47.2528 46.6089 47.381 46.3655 47.5931C46.1221 47.8052 45.9556 48.0574 45.8658 48.3497C45.7814 48.6374 45.7758 48.9355 45.8492 49.244C45.9179 49.5472 46.0652 49.8284 46.2911 50.0877C46.5124 50.3416 46.7709 50.526 47.0664 50.6409C47.3619 50.7557 47.658 50.791 47.9545 50.7467C48.2563 50.6978 48.529 50.5673 48.7724 50.3552Z" fill="#259E57"/>
<path d="M53.1769 46.8608L52.4499 47.8024L46.292 43.0478L47.019 42.1062L53.1769 46.8608Z" fill="#259E57"/>
<path d="M55.7884 43.0239C55.5197 43.5487 55.1688 43.9643 54.7358 44.2709C54.2966 44.5742 53.8194 44.7438 53.3043 44.7796C52.7861 44.806 52.2772 44.6912 51.7774 44.4353C51.2839 44.1825 50.9011 43.8524 50.6288 43.4448C50.3503 43.0341 50.2008 42.5869 50.1804 42.1033C50.1569 41.6103 50.2699 41.1202 50.5195 40.6329C50.7626 40.1582 51.0832 39.794 51.4811 39.5405C51.879 39.287 52.3166 39.1562 52.7938 39.1483C53.271 39.1404 53.7501 39.2596 54.2311 39.5059C54.3997 39.5923 54.5276 39.6736 54.6148 39.7498L52.6856 43.5165C53.1328 43.6903 53.5659 43.6914 53.985 43.5197C54.4074 43.3417 54.7353 43.0247 54.9689 42.5687C55.1384 42.2376 55.2218 41.8979 55.2188 41.5494C55.2129 41.1916 55.1311 40.8816 54.9736 40.6196L55.7645 40.1375C56.0342 40.4886 56.1712 40.9293 56.1755 41.4598C56.183 41.9841 56.0539 42.5055 55.7884 43.0239ZM53.3558 40.4297C52.9181 40.2528 52.5229 40.2239 52.1702 40.3429C51.8144 40.4524 51.5422 40.6915 51.3534 41.06C51.1614 41.4348 51.1248 41.8143 51.2435 42.1984C51.356 42.5793 51.5962 42.8955 51.9641 43.147L53.3558 40.4297Z" fill="#259E57"/>
</g>
<defs>
<clipPath id="clip0_1640_4674">
<rect width="64" height="64" fill="white"/>
</clipPath>
</defs>
</svg>
    