<svg width="64" height="64" viewBox="0 0 64 64" fill="none" xmlns="http://www.w3.org/2000/svg">
    <g clip-path="url(#clip0_1640_4648)">
    <path d="M32 64C49.6731 64 64 49.6731 64 32C64 14.3269 49.6731 0 32 0C14.3269 0 0 14.3269 0 32C0 49.6731 14.3269 64 32 64Z" fill="#C4C0FF"/>
    <path d="M21.9801 15.5168C21.4515 15.8414 20.9305 16.0151 20.4095 16.0302C19.8885 16.0453 19.4053 15.9169 18.9447 15.6376C18.4841 15.3582 18.0914 14.9429 17.7517 14.3917C17.4194 13.848 17.2231 13.3119 17.1778 12.7683C17.1325 12.2246 17.2231 11.7338 17.4572 11.2732C17.6912 10.8127 18.0537 10.4276 18.5596 10.118C18.8843 9.91411 19.224 9.7782 19.5789 9.70269C19.9338 9.62719 20.2887 9.62719 20.6436 9.71024C20.9985 9.78575 21.3458 9.95942 21.6856 10.2161C22.0254 10.4729 22.3349 10.8278 22.6143 11.2959L22.8484 11.6734L18.5294 14.3464L18.0084 13.5083L21.1344 11.5753C20.9834 11.3412 20.8021 11.16 20.5832 11.0316C20.3642 10.9108 20.1377 10.8504 19.8885 10.8504C19.6393 10.8504 19.3977 10.9259 19.1636 11.0769C18.9069 11.2355 18.7257 11.4318 18.6049 11.6734C18.4841 11.9151 18.4388 12.1642 18.4539 12.4285C18.469 12.6928 18.552 12.942 18.6955 13.176L19.1485 13.9084C19.3373 14.218 19.5563 14.4446 19.8054 14.5956C20.0546 14.7466 20.3113 14.8145 20.5832 14.807C20.855 14.7994 21.1268 14.7088 21.3987 14.5427C21.5799 14.4295 21.7233 14.3011 21.8441 14.1652C21.9574 14.0217 22.0405 13.8707 22.0858 13.7046C22.1311 13.5385 22.1386 13.3648 22.1009 13.1836L23.3392 12.5946C23.4525 12.942 23.4827 13.2968 23.4147 13.6517C23.3543 14.0066 23.1957 14.3464 22.9541 14.6635C22.7125 14.9807 22.3878 15.2676 21.9801 15.5168Z" fill="#2300A3"/>
    <path d="M27.4242 6.96154C27.3034 6.62931 27.0845 6.40278 26.7673 6.27442C26.4502 6.14606 26.0727 6.14606 25.6423 6.25177C25.3402 6.32728 25.0911 6.44054 24.8947 6.584C24.6984 6.72747 24.5625 6.89358 24.487 7.08235C24.4115 7.27112 24.3964 7.45989 24.4417 7.66376C24.4795 7.82987 24.555 7.96579 24.6682 8.0715C24.7739 8.17721 24.9098 8.25271 25.0609 8.30557C25.2194 8.35842 25.378 8.38863 25.5592 8.41128C25.7329 8.42638 25.9141 8.43393 26.0878 8.43393H26.8881C27.2053 8.42638 27.5224 8.44903 27.832 8.50189C28.1416 8.55474 28.4285 8.6378 28.7003 8.76616C28.9646 8.89453 29.1987 9.06819 29.395 9.29471C29.5913 9.52124 29.7272 9.80816 29.8178 10.1555C29.9386 10.6236 29.916 11.0691 29.765 11.4844C29.6139 11.8997 29.3346 12.2622 28.9344 12.5793C28.5342 12.8889 28.0056 13.1305 27.3638 13.2891C26.7371 13.4401 26.1708 13.4778 25.6649 13.4023C25.159 13.3268 24.7286 13.1305 24.3813 12.8209C24.034 12.5113 23.7848 12.096 23.6262 11.5675L25.0533 11.2126C25.1439 11.4844 25.2874 11.6958 25.4837 11.8469C25.68 11.9979 25.9141 12.0809 26.1784 12.1111C26.4426 12.1413 26.7296 12.1187 27.0316 12.0432C27.3487 11.9677 27.613 11.8469 27.832 11.6958C28.0434 11.5448 28.202 11.3636 28.2926 11.1597C28.3832 10.9559 28.4058 10.7369 28.353 10.5104C28.3001 10.299 28.1944 10.1404 28.0434 10.0347C27.8924 9.92898 27.6961 9.85347 27.4544 9.81571C27.2128 9.77796 26.941 9.75531 26.639 9.75531L25.6725 9.74021C24.9703 9.73266 24.3813 9.60429 23.9131 9.35512C23.445 9.10595 23.143 8.69066 22.9995 8.1168C22.8787 7.64865 22.9089 7.19561 23.075 6.78032C23.2411 6.36503 23.5281 5.99504 23.9207 5.69302C24.3133 5.38344 24.789 5.16446 25.3553 5.021C25.9216 4.87754 26.4502 4.85488 26.9259 4.94549C27.4016 5.0361 27.8093 5.22487 28.1416 5.5118C28.4738 5.79873 28.7003 6.16871 28.8211 6.6142L27.4242 6.96154Z" fill="#2300A3"/>
    <path d="M31.2751 5.52691C31.041 5.53446 30.8447 5.4665 30.671 5.31549C30.4974 5.16448 30.4067 4.98326 30.3992 4.76429C30.3916 4.54532 30.4672 4.35655 30.6333 4.19798C30.7918 4.03942 30.9882 3.95636 31.2222 3.94881C31.4563 3.94126 31.6602 4.00921 31.8263 4.16023C32 4.31124 32.083 4.49246 32.0906 4.71143C32.0981 4.9304 32.0226 5.11917 31.864 5.27774C31.7055 5.4363 31.5092 5.51936 31.2751 5.52691ZM30.7918 12.6246L30.5804 6.433L32.0377 6.38014L32.2491 12.5717L30.7918 12.6246Z" fill="#2300A3"/>
    <path d="M35.2921 15.3655C34.7786 15.2598 34.3482 15.1013 34.0084 14.8898C33.6687 14.6784 33.4119 14.4293 33.2307 14.1499C33.0571 13.8705 32.9513 13.5836 32.9211 13.2815L34.2727 13.2287C34.3029 13.357 34.3633 13.493 34.4539 13.6364C34.5446 13.7799 34.6729 13.9082 34.8466 14.0215C35.0202 14.1348 35.2468 14.2254 35.5337 14.2858C35.9414 14.3688 36.2963 14.3386 36.5984 14.1952C36.9079 14.0517 37.1042 13.7572 37.1949 13.3117L37.4289 12.164L37.361 12.1489C37.2553 12.2848 37.1194 12.4132 36.9457 12.5416C36.772 12.6699 36.5606 12.7605 36.3114 12.8209C36.0622 12.8814 35.7602 12.8738 35.4129 12.7983C34.9447 12.7077 34.5446 12.5114 34.2123 12.2093C33.8801 11.9149 33.646 11.5222 33.5101 11.039C33.3742 10.5557 33.3817 9.98187 33.5101 9.31741C33.646 8.65294 33.8725 8.10929 34.1897 7.694C34.5068 7.27871 34.8768 6.99178 35.3072 6.83322C35.7376 6.67465 36.1831 6.6369 36.6512 6.73506C37.0061 6.81056 37.2855 6.92382 37.4969 7.08994C37.7008 7.25606 37.8593 7.43727 37.9575 7.63359C38.0632 7.82991 38.1312 8.01113 38.1765 8.16969L38.252 8.1848L38.4558 7.18055L39.8678 7.46748L38.6144 13.6364C38.5087 14.1574 38.2973 14.5576 37.9801 14.8521C37.663 15.139 37.2779 15.3278 36.8098 15.4108C36.3416 15.4864 35.8433 15.4713 35.2921 15.3655ZM36.0396 11.7563C36.3416 11.8167 36.6135 11.794 36.8626 11.6959C37.1042 11.5902 37.3081 11.409 37.4818 11.1598C37.6479 10.9031 37.7687 10.5859 37.8518 10.1933C37.9273 9.8082 37.9424 9.46842 37.8895 9.15884C37.8367 8.84926 37.7234 8.59253 37.5422 8.38867C37.361 8.1848 37.1194 8.05643 36.8098 7.98848C36.4926 7.92052 36.2057 7.95072 35.9641 8.07909C35.7149 8.1999 35.511 8.39622 35.3449 8.66049C35.1788 8.92477 35.058 9.2419 34.9825 9.61188C34.907 9.98187 34.8919 10.3217 34.9447 10.6161C34.9976 10.9182 35.1184 11.1673 35.2996 11.3637C35.4808 11.56 35.73 11.6883 36.0396 11.7563Z" fill="#2300A3"/>
    <path d="M42.5633 11.4846L40.7285 14.6181L39.4675 13.8781L42.6011 8.53223L43.8016 9.23444L43.2655 10.1405L43.326 10.1783C43.628 9.95176 43.9602 9.83095 44.3378 9.8083C44.7153 9.7932 45.1004 9.89891 45.493 10.133C45.863 10.352 46.1348 10.6162 46.3236 10.9334C46.5048 11.2505 46.5879 11.6054 46.5577 11.9905C46.535 12.3755 46.3991 12.7833 46.1424 13.2137L44.149 16.6191L42.888 15.8791L44.7681 12.67C44.9796 12.3151 45.0475 11.9754 44.9871 11.6658C44.9192 11.3562 44.7228 11.107 44.3982 10.9107C44.1792 10.7823 43.9527 10.7144 43.7261 10.7144C43.4996 10.7144 43.2882 10.7672 43.0843 10.8956C42.8956 11.0391 42.7143 11.2278 42.5633 11.4846Z" fill="#2300A3"/>
    <path d="M30.9654 41.348C30.0971 41.348 29.4024 40.9629 29.0098 40.2682C28.1792 38.8109 28.7531 36.1153 30.6106 32.6269H23.0296C22.8106 32.6269 22.6068 32.506 22.4935 32.3173C22.3803 32.1285 22.3878 31.8869 22.4935 31.6906C26.0877 25.4461 30.0367 22.6523 32.3623 22.6523H32.3699C33.2307 22.6523 33.9253 23.0374 34.318 23.7321C35.1485 25.1894 34.5747 27.885 32.7172 31.3734H40.2981C40.5171 31.3734 40.721 31.4942 40.8342 31.683C40.9475 31.8718 40.94 32.1134 40.8342 32.3097C37.2401 38.5542 33.2911 41.348 30.9654 41.348ZM32.0225 32.6269C29.8555 36.4928 29.5912 38.7807 30.082 39.649C30.1953 39.8454 30.3991 40.1021 30.9654 40.1021H30.973C32.8305 40.1021 36.1754 37.5424 39.2108 32.6269H32.0225ZM24.1245 31.3734H31.3052C33.4723 27.5075 33.7366 25.2196 33.2458 24.3513C33.14 24.1625 32.9286 23.8982 32.3623 23.8982H32.3548C30.5048 23.9058 27.1599 26.4655 24.1245 31.3734Z" fill="#2300A3"/>
    <path d="M8.63815 46.4217C8.33612 45.9309 8.1851 45.4401 8.19265 44.9569C8.19265 44.4737 8.32857 44.0206 8.59284 43.5978C8.85712 43.1749 9.2422 42.8125 9.74055 42.5029C10.2465 42.1933 10.7448 42.0272 11.2507 41.9819C11.749 41.9442 12.2172 42.0272 12.6476 42.2537C13.078 42.4727 13.4404 42.8276 13.7349 43.3108C13.9765 43.711 14.12 44.1112 14.1653 44.5114C14.2106 44.9116 14.1502 45.2816 13.9992 45.6289C13.8406 45.9762 13.599 46.2707 13.2592 46.5123L12.5796 45.4024C12.791 45.2136 12.927 44.9871 12.9798 44.7228C13.0402 44.4585 12.9798 44.1867 12.8061 43.8998C12.6627 43.6657 12.4664 43.4921 12.2323 43.3939C11.9907 43.2882 11.7264 43.2655 11.4244 43.3108C11.1223 43.3561 10.8128 43.477 10.4805 43.6808C10.1407 43.8847 9.88402 44.1112 9.7028 44.3604C9.52158 44.602 9.42342 44.8587 9.40077 45.1155C9.37812 45.3722 9.44607 45.6214 9.58954 45.863C9.69525 46.0367 9.82361 46.165 9.96707 46.2632C10.1181 46.3613 10.2767 46.4142 10.4579 46.4293C10.6391 46.4444 10.8279 46.4142 11.0242 46.3462L11.7037 47.4562C11.3338 47.645 10.9638 47.728 10.5862 47.7129C10.2087 47.6978 9.85381 47.5846 9.51403 47.3731C9.18935 47.1466 8.89487 46.8295 8.63815 46.4217Z" fill="#2300A3"/>
    <path d="M12.6174 51.4431C12.2172 51.0429 11.9605 50.6126 11.8397 50.1444C11.7189 49.6763 11.7415 49.2006 11.8925 48.7249C12.0511 48.2492 12.338 47.7961 12.7609 47.3733C13.1837 46.9505 13.6292 46.6635 14.1124 46.505C14.5881 46.3464 15.0638 46.3237 15.532 46.4446C16.0001 46.5578 16.4381 46.8221 16.8383 47.2147C17.2384 47.6149 17.4952 48.0453 17.616 48.5135C17.7368 48.9816 17.7141 49.4573 17.5556 49.933C17.397 50.4087 17.1101 50.8617 16.6872 51.2846C16.2644 51.7074 15.8189 51.9943 15.3357 52.1529C14.86 52.3115 14.3843 52.3266 13.9161 52.2133C13.4555 52.0925 13.0176 51.8358 12.6174 51.4431ZM13.3951 50.673C13.6141 50.8919 13.8557 51.0127 14.12 51.0354C14.3843 51.058 14.6561 51.0052 14.9279 50.8768C15.1998 50.7485 15.464 50.5597 15.7132 50.3105C15.9624 50.0613 16.1511 49.7971 16.2871 49.5252C16.4154 49.2459 16.4683 48.9816 16.4456 48.7098C16.423 48.4379 16.3022 48.2039 16.0832 47.9849C15.8642 47.7659 15.615 47.6376 15.3508 47.6149C15.0865 47.5923 14.8147 47.6451 14.5353 47.7735C14.2559 47.9018 13.9992 48.0982 13.75 48.3473C13.5008 48.5965 13.3121 48.8608 13.1837 49.1326C13.0553 49.4044 13.0025 49.6763 13.0251 49.9405C13.0478 50.2048 13.1762 50.454 13.3951 50.673Z" fill="#2300A3"/>
    <path d="M16.2568 54.7198L18.8165 49.54L19.9869 50.1139L19.549 50.9973L19.6094 51.0275C19.8661 50.7859 20.1606 50.6424 20.4928 50.5971C20.825 50.5518 21.1648 50.6198 21.5121 50.7859C21.867 50.9596 22.1162 51.1936 22.2748 51.4806C22.4333 51.7675 22.4862 52.0846 22.4409 52.4244L22.4937 52.4546C22.7505 52.2205 23.06 52.0922 23.4149 52.0544C23.7698 52.0167 24.1398 52.0922 24.5173 52.2734C24.993 52.5075 25.3102 52.8548 25.4612 53.3003C25.6122 53.7533 25.5518 54.2668 25.2649 54.8406L23.5433 58.3215L22.3201 57.7175L23.9435 54.4254C24.102 54.1007 24.1322 53.8289 24.0341 53.5948C23.9359 53.3607 23.7623 53.1795 23.5206 53.0587C23.2262 52.9152 22.9543 52.8926 22.6976 52.9907C22.4409 53.0889 22.2446 53.2928 22.0936 53.5797L20.4928 56.8114L19.2922 56.2224L20.9458 52.885C21.0818 52.6207 21.1044 52.364 21.0213 52.1224C20.9383 51.8808 20.7722 51.6995 20.5079 51.5712C20.3342 51.4881 20.153 51.4504 19.9642 51.4655C19.7755 51.4806 19.6018 51.5485 19.4357 51.6693C19.2696 51.7902 19.1337 51.9563 19.028 52.1677L17.4725 55.3163L16.2568 54.7198Z" fill="#2300A3"/>
    <path d="M25.3176 60.8588L26.4125 52.9834L27.7414 53.1722L27.6131 54.116L27.6886 54.1236C27.7792 53.9952 27.9 53.8593 28.0434 53.7158C28.1945 53.5724 28.3832 53.4666 28.6173 53.3836C28.8514 53.3005 29.1307 53.2854 29.4705 53.3307C29.9085 53.3911 30.2936 53.5573 30.6182 53.8366C30.9429 54.1085 31.1845 54.4784 31.328 54.9541C31.479 55.4223 31.5092 55.9735 31.4186 56.6078C31.328 57.2345 31.1543 57.7555 30.8825 58.1708C30.6107 58.586 30.286 58.8805 29.9009 59.0617C29.5158 59.243 29.093 59.3034 28.6475 59.243C28.3228 59.1977 28.0585 59.107 27.8547 58.9636C27.6508 58.8201 27.4998 58.6691 27.3865 58.4954C27.2808 58.3218 27.1978 58.1632 27.1449 58.0122L27.0845 58.0046L26.6617 61.0551L25.3176 60.8588ZM27.3412 56.0339C27.2884 56.4039 27.2959 56.7361 27.3639 57.0306C27.4318 57.3251 27.5526 57.5591 27.7339 57.7479C27.9151 57.9291 28.1416 58.0424 28.4285 58.0801C28.723 58.1254 28.9873 58.0801 29.2138 57.9442C29.4403 57.8159 29.6215 57.612 29.765 57.3477C29.9085 57.0834 30.0066 56.7739 30.0519 56.4114C30.1048 56.0565 30.0972 55.7319 30.0293 55.4449C29.9689 55.158 29.8405 54.9164 29.6669 54.7352C29.4932 54.554 29.244 54.4407 28.9495 54.3954C28.6626 54.3576 28.4059 54.3954 28.1869 54.5237C27.9679 54.6521 27.7792 54.8409 27.6433 55.0976C27.4847 55.3468 27.3941 55.6639 27.3412 56.0339Z" fill="#2300A3"/>
    <path d="M34.1748 59.3789C33.8124 59.4166 33.4726 59.3864 33.1706 59.2883C32.8685 59.1901 32.6194 59.0165 32.423 58.7748C32.2267 58.5332 32.1135 58.2236 32.0757 57.8536C32.0455 57.529 32.0757 57.2571 32.1739 57.0306C32.272 56.8041 32.4155 56.6229 32.6118 56.4719C32.8081 56.3208 33.0271 56.2 33.2838 56.1094C33.533 56.0188 33.8048 55.9433 34.0767 55.8829C34.4089 55.8149 34.6807 55.7545 34.8846 55.7017C35.0885 55.6488 35.2395 55.5884 35.3301 55.5205C35.4207 55.4525 35.4584 55.3468 35.4433 55.2184V55.1958C35.4131 54.9164 35.3074 54.705 35.1262 54.5691C34.945 54.4332 34.6958 54.3803 34.3787 54.4105C34.0465 54.4483 33.7897 54.5464 33.6085 54.7125C33.4273 54.8787 33.3216 55.0599 33.2687 55.2637L31.9851 55.2184C32.0455 54.856 32.1814 54.5464 32.3928 54.2897C32.5967 54.033 32.861 53.8216 33.1781 53.6705C33.4953 53.5195 33.8577 53.4214 34.2579 53.3761C34.5373 53.3459 34.8166 53.3534 35.096 53.3912C35.3754 53.4289 35.6397 53.5044 35.8813 53.6328C36.1229 53.7611 36.3268 53.9424 36.4929 54.184C36.659 54.4256 36.7647 54.7352 36.8025 55.1203L37.2027 58.9711L35.8964 59.1071L35.8133 58.3142L35.768 58.3218C35.7001 58.4879 35.6019 58.654 35.466 58.805C35.3301 58.956 35.1564 59.092 34.945 59.1977C34.7336 59.2732 34.4768 59.3487 34.1748 59.3789ZM34.424 58.3444C34.6958 58.3142 34.9299 58.2387 35.1187 58.1104C35.3074 57.982 35.4433 57.8234 35.534 57.6271C35.6246 57.4384 35.6623 57.2345 35.6321 57.0231L35.5642 56.3435C35.5264 56.3813 35.4584 56.419 35.3603 56.4643C35.2621 56.5021 35.1489 56.5398 35.0281 56.5776C34.9072 56.6153 34.7864 56.6455 34.6656 56.6757C34.5448 56.7059 34.4391 56.7361 34.3485 56.7512C34.1522 56.7965 33.971 56.8645 33.8199 56.94C33.6689 57.0231 33.5481 57.1212 33.4726 57.242C33.3895 57.3628 33.3593 57.5139 33.382 57.6875C33.4122 57.9367 33.5179 58.1179 33.7142 58.2236C33.903 58.3369 34.1446 58.3746 34.424 58.3444Z" fill="#2300A3"/>
    <path d="M39.9887 52.0849L40.3058 53.0891L37.1345 54.0934L36.8174 53.0891L39.9887 52.0849ZM37.1874 51.5186L38.4861 51.1108L40.1246 56.2831C40.1775 56.4568 40.2454 56.5851 40.3285 56.6606C40.4115 56.7361 40.5021 56.7739 40.6003 56.7814C40.6985 56.789 40.8042 56.7739 40.9099 56.7361C40.9929 56.7135 41.0609 56.6833 41.1289 56.6455C41.1893 56.6153 41.2421 56.5851 41.2723 56.5625L41.816 57.5063C41.7556 57.5516 41.665 57.612 41.5441 57.68C41.4233 57.7479 41.2723 57.8159 41.0911 57.8763C40.7664 57.9896 40.4568 58.0349 40.1624 58.0047C39.8679 57.982 39.6112 57.8763 39.3846 57.6951C39.1581 57.5139 38.992 57.2496 38.8863 56.9023L37.1874 51.5186Z" fill="#2300A3"/>
    <path d="M41.0307 50.6727C40.8344 50.7633 40.6381 50.7784 40.4342 50.718C40.2303 50.6576 40.0869 50.5368 39.9963 50.348C39.9056 50.1592 39.8981 49.9705 39.9736 49.7741C40.0491 49.5778 40.185 49.4268 40.3813 49.3362C40.5777 49.238 40.774 49.2229 40.9778 49.2833C41.1817 49.3437 41.3252 49.4721 41.4158 49.6533C41.5064 49.8345 41.514 50.0233 41.4384 50.2196C41.3629 50.4235 41.227 50.5745 41.0307 50.6727ZM43.2884 56.9096L40.774 51.7071L41.9972 51.1106L44.5191 56.3131L43.2884 56.9096Z" fill="#2300A3"/>
    <path d="M46.626 55.2411L41.9219 49.1325L43.0016 48.3019L44.7609 50.5898L44.8063 50.5521C44.7761 50.401 44.761 50.2198 44.7685 50.016C44.7685 49.8121 44.8289 49.6007 44.9271 49.3741C45.0328 49.1476 45.214 48.9362 45.4858 48.7323C45.8407 48.4605 46.2258 48.3019 46.6486 48.2642C47.0715 48.2264 47.5019 48.317 47.9398 48.536C48.3778 48.755 48.793 49.125 49.1857 49.6309C49.5708 50.1368 49.8199 50.6276 49.9257 51.1033C50.0314 51.579 50.0163 52.0245 49.8728 52.4246C49.7293 52.8324 49.4802 53.1722 49.1177 53.444C48.8534 53.6479 48.6043 53.7687 48.3627 53.814C48.121 53.8593 47.9021 53.8593 47.7057 53.814C47.5094 53.7687 47.3357 53.7158 47.1923 53.6479L47.1319 53.6932L47.6906 54.418L46.626 55.2411ZM45.9238 52.1302C46.1503 52.4246 46.3919 52.6512 46.6486 52.8097C46.9054 52.9683 47.1621 53.0438 47.4188 53.0438C47.6755 53.0438 47.9172 52.9607 48.1437 52.7795C48.3853 52.5983 48.5363 52.3793 48.5967 52.1226C48.6571 51.8734 48.642 51.6016 48.559 51.3147C48.4684 51.0278 48.3173 50.7408 48.0908 50.4539C47.8718 50.167 47.6378 49.948 47.3886 49.7894C47.1394 49.6309 46.8827 49.5478 46.626 49.5478C46.3693 49.5478 46.1201 49.6384 45.8785 49.8272C45.6444 50.0084 45.5009 50.2123 45.433 50.4615C45.365 50.7106 45.3726 50.9673 45.4632 51.2543C45.5538 51.5412 45.6897 51.8357 45.9238 52.1302Z" fill="#2300A3"/>
    <path d="M46.9732 44.7153L52.6664 49.9102L51.7452 50.9145L46.052 45.7196L46.9732 44.7153Z" fill="#2300A3"/>
    <path d="M55.3015 46.52C54.992 47.0108 54.622 47.3656 54.1991 47.5922C53.7687 47.8187 53.3082 47.9093 52.8098 47.864C52.3115 47.8187 51.8056 47.6299 51.2997 47.3128C50.7938 46.9957 50.4162 46.6181 50.1595 46.1877C49.9028 45.7573 49.7744 45.2967 49.7744 44.821C49.782 44.3378 49.933 43.8697 50.2199 43.4015C50.4087 43.0995 50.6352 42.8428 50.907 42.6389C51.1788 42.435 51.4733 42.284 51.8056 42.2085C52.1378 42.133 52.5002 42.1254 52.8853 42.2009C53.2704 42.2765 53.6781 42.4501 54.1085 42.7219L54.4634 42.9409L51.9339 46.9504L51.1562 46.4596L52.9835 43.5525C52.7645 43.4166 52.5304 43.3411 52.3039 43.326C52.0698 43.3109 51.8509 43.3562 51.647 43.4619C51.4431 43.5676 51.2695 43.7262 51.1335 43.9452C50.9825 44.1792 50.9146 44.4209 50.9146 44.67C50.9146 44.9192 50.975 45.1533 51.0958 45.3647C51.2166 45.5761 51.3827 45.7573 51.6017 45.8933L52.2813 46.3236C52.5682 46.5049 52.84 46.603 53.1118 46.6257C53.3761 46.6483 53.6253 46.603 53.8518 46.4822C54.0783 46.3614 54.2671 46.1802 54.4257 45.9235C54.5314 45.7573 54.6069 45.5912 54.6446 45.4251C54.6824 45.259 54.6899 45.1004 54.6522 44.9343C54.622 44.7757 54.554 44.6247 54.4483 44.4888L55.2487 43.4921C55.4903 43.7413 55.6564 44.0282 55.747 44.3454C55.8377 44.67 55.8528 45.0098 55.7772 45.3798C55.6942 45.7649 55.5356 46.1424 55.3015 46.52Z" fill="#2300A3"/>
    <path d="M55.2864 37.5801L54.7503 37.4518C54.5993 37.414 54.5011 37.263 54.5389 37.112C54.9164 35.4433 55.1052 33.7217 55.1052 32.0001C55.1052 26.775 53.3232 21.6783 50.0764 17.6084C49.9782 17.4876 49.9933 17.3064 50.1141 17.2082L50.537 16.8609C50.6654 16.7552 50.8541 16.7779 50.9523 16.9062C54.3577 21.1724 56.2302 26.5258 56.2302 32.0077C56.2302 33.8123 56.0264 35.6169 55.6337 37.3687C55.6111 37.5197 55.445 37.6179 55.2864 37.5801Z" fill="#2300A3"/>
    <path d="M8.70603 37.5801C8.54746 37.6179 8.38135 37.5197 8.35115 37.3611C7.95851 35.6094 7.75464 33.8047 7.75464 32.0001C7.75464 26.5183 9.62722 21.1724 13.0326 16.8987C13.1308 16.7703 13.3271 16.7552 13.4479 16.8534L13.8707 17.2007C13.9915 17.2988 14.0142 17.4801 13.9085 17.6009C10.6617 21.6707 8.8797 26.7675 8.8797 31.9926C8.8797 33.7141 9.06847 35.4357 9.446 37.1044C9.48376 37.2554 9.3856 37.414 9.23458 37.4442L8.70603 37.5801Z" fill="#2300A3"/>
    </g>
    <defs>
    <clipPath id="clip0_1640_4648">
    <rect width="64" height="64" fill="white"/>
    </clipPath>
    </defs>
    </svg>
    