<svg width="24" height="32" viewBox="0 0 24 32" fill="none" xmlns="http://www.w3.org/2000/svg">
<path d="M11.0763 3.46177C11.4355 2.40164 12.5645 2.40164 12.9237 3.46177L13.3559 4.73774C14.7776 8.93494 17.2988 12.2965 20.4467 14.1922L21.4037 14.7685C22.1988 15.2473 22.1988 16.7527 21.4037 17.2315L20.4467 17.8078C17.2988 19.7035 14.7776 23.0651 13.3559 27.2623L12.9237 28.5382C12.5645 29.5984 11.4355 29.5984 11.0763 28.5382L10.6441 27.2623C9.22239 23.0651 6.70121 19.7035 3.5533 17.8078L2.59632 17.2315C1.80123 16.7527 1.80122 15.2473 2.59632 14.7685L3.5533 14.1922C6.7012 12.2965 9.22239 8.93495 10.6441 4.73774L11.0763 3.46177Z" fill="#FEACBA"/>
</svg>
