<svg width="57" height="57" viewBox="0 0 57 57" fill="none" xmlns="http://www.w3.org/2000/svg">
<g clip-path="url(#clip0_1446_74470)">
<path d="M19.3034 41.9106L42.2531 2.40131C42.3638 2.20872 42.4222 1.99026 42.4222 1.76787C42.4223 1.54548 42.3641 1.32699 42.2535 1.13433C42.1428 0.941681 41.9837 0.781648 41.792 0.670305C41.6004 0.558962 41.3829 0.500228 41.1615 0.5H26.3644C25.997 0.500098 25.636 0.59665 25.3172 0.780081C24.9985 0.963512 24.733 1.22745 24.5471 1.54572L0.783346 42.4747C0.598506 42.7949 0.500789 43.1584 0.500005 43.5286C0.49922 43.8988 0.595395 44.2626 0.778877 44.5837C0.962358 44.9047 1.22669 45.1717 1.54535 45.3577C1.864 45.5437 2.22577 45.6423 2.59434 45.6435H12.9302L8.46901 53.3311C8.28391 53.6519 8.18618 54.0159 8.18568 54.3866C8.18517 54.7574 8.2819 55.1217 8.46613 55.4429C8.65035 55.7642 8.91558 56.031 9.23511 56.2166C9.55465 56.4021 9.91721 56.4999 10.2863 56.5H47.5157C47.9573 56.4984 48.3907 56.3806 48.7727 56.1581C49.1547 55.9357 49.4719 55.6165 49.6927 55.2325L56.3309 43.8246C56.4414 43.6325 56.4997 43.4146 56.5 43.1927C56.5003 42.9709 56.4427 42.7528 56.3328 42.5603C56.223 42.3679 56.0647 42.2077 55.8739 42.0959C55.6831 41.9841 55.4665 41.9246 55.2456 41.9233L19.3034 41.9106ZM27.3046 4.23925H36.877L15.0062 41.9106H5.42125L27.3046 4.23925ZM46.8658 52.7671H13.1132L17.2463 45.6498H50.9737L46.8658 52.7671Z" fill="#D0D5DD"/>
</g>
<defs>
<clipPath id="clip0_1446_74470">
<rect width="56" height="56" fill="white" transform="translate(0.5 0.5)"/>
</clipPath>
</defs>
</svg>
