<svg width="20" height="20" viewBox="0 0 20 20" fill="none" xmlns="http://www.w3.org/2000/svg">
<path d="M8.73681 4.67232L9.29765 6.24837C9.92065 7.99758 11.2819 9.37504 13.0105 10.0055L14.568 10.573C14.7084 10.6246 14.7084 10.826 14.568 10.8769L13.0105 11.4444C11.2819 12.0748 9.92065 13.4523 9.29765 15.2015L8.73681 16.7775C8.68583 16.9196 8.48678 16.9196 8.43649 16.7775L7.87565 15.2015C7.25265 13.4523 5.89141 12.0748 4.16279 11.4444L2.60529 10.8769C2.4649 10.8253 2.4649 10.6239 2.60529 10.573L4.16279 10.0055C5.89141 9.37504 7.25265 7.99758 7.87565 6.24837L8.43649 4.67232C8.48678 4.52955 8.68583 4.52955 8.73681 4.67232Z" fill="white"/>
<path d="M14.8581 1.71464L15.1079 2.41586C15.3853 3.1941 15.9911 3.80713 16.7601 4.08787L17.453 4.34065C17.5157 4.36363 17.5157 4.45307 17.453 4.47605L16.7601 4.72884C15.9911 5.00958 15.3853 5.62261 15.1079 6.40085L14.8581 7.10207C14.8354 7.16542 14.747 7.16542 14.7243 7.10207L14.4745 6.40085C14.197 5.62261 13.5913 5.00958 12.8222 4.72884L12.1293 4.47605C12.0667 4.45307 12.0667 4.36363 12.1293 4.34065L12.8222 4.08787C13.5913 3.80713 14.197 3.1941 14.4745 2.41586L14.7243 1.71464C14.747 1.65066 14.836 1.65066 14.8581 1.71464Z" fill="white"/>
<path d="M14.7266 14.0232L14.9247 14.5793C15.1447 15.1965 15.6252 15.6826 16.235 15.9052L16.7846 16.1057C16.8342 16.1239 16.8342 16.1949 16.7846 16.2131L16.235 16.4136C15.6252 16.6362 15.1447 17.1224 14.9247 17.7395L14.7266 18.2956C14.7086 18.3459 14.6385 18.3459 14.6205 18.2956L14.4224 17.7395C14.2024 17.1224 13.722 16.6362 13.1121 16.4136L12.5626 16.2131C12.5129 16.1949 12.5129 16.1239 12.5626 16.1057L13.1121 15.9052C13.722 15.6826 14.2024 15.1965 14.4224 14.5793L14.6205 14.0232C14.6385 13.9729 14.7091 13.9729 14.7266 14.0232Z" fill="white"/>
</svg>
