<svg width="16" height="16" viewBox="0 0 16 16" fill="none" xmlns="http://www.w3.org/2000/svg">
<path d="M6.98945 3.73786L7.43812 4.9987C7.93652 6.39807 9.02552 7.50004 10.4084 8.00438L11.6544 8.45839C11.7667 8.49967 11.7667 8.66081 11.6544 8.70151L10.4084 9.15553C9.02552 9.65987 7.93652 10.7618 7.43812 12.1612L6.98945 13.422C6.94866 13.5357 6.78942 13.5357 6.74919 13.422L6.30052 12.1612C5.80212 10.7618 4.71312 9.65987 3.33023 9.15553L2.08423 8.70151C1.97192 8.66024 1.97192 8.4991 2.08423 8.45839L3.33023 8.00438C4.71312 7.50004 5.80212 6.39807 6.30052 4.9987L6.74919 3.73786C6.78942 3.62365 6.94866 3.62365 6.98945 3.73786Z" fill="#D974DF"/>
<path d="M11.8865 1.37172L12.0863 1.9327C12.3082 2.55529 12.7929 3.04571 13.4081 3.2703L13.9624 3.47253C14.0125 3.49091 14.0125 3.56246 13.9624 3.58085L13.4081 3.78308C12.7929 4.00767 12.3082 4.49809 12.0863 5.12068L11.8865 5.68166C11.8683 5.73235 11.7976 5.73235 11.7794 5.68166L11.5796 5.12068C11.3576 4.49809 10.873 4.00767 10.2578 3.78308L9.70343 3.58085C9.65334 3.56246 9.65334 3.49091 9.70343 3.47253L10.2578 3.2703C10.873 3.04571 11.3576 2.55529 11.5796 1.9327L11.7794 1.37172C11.7976 1.32054 11.8688 1.32054 11.8865 1.37172Z" fill="#D974DF"/>
<path d="M11.7813 11.2185L11.9398 11.6634C12.1158 12.1572 12.5001 12.5461 12.988 12.7242L13.4277 12.8846C13.4674 12.8992 13.4674 12.9559 13.4277 12.9705L12.988 13.1309C12.5001 13.309 12.1158 13.6979 11.9398 14.1916L11.7813 14.6365C11.7669 14.6767 11.7108 14.6767 11.6964 14.6365L11.5379 14.1916C11.3619 13.6979 10.9776 13.309 10.4897 13.1309L10.0501 12.9705C10.0104 12.9559 10.0104 12.8992 10.0501 12.8846L10.4897 12.7242C10.9776 12.5461 11.3619 12.1572 11.5379 11.6634L11.6964 11.2185C11.7108 11.1784 11.7673 11.1784 11.7813 11.2185Z" fill="#D974DF"/>
</svg>
