<svg xmlns="http://www.w3.org/2000/svg" xmlns:xlink="http://www.w3.org/1999/xlink" width="204" height="549" xmlns:v="https://vecta.io/nano"><style><![CDATA[.B{fill-rule:nonzero}.C{opacity:.9}.D{opacity:.5}.E{fill:#ffb29c}.F{fill:#203966}]]></style><defs><linearGradient id="A" x1=".015%" x2="100%" y1="49.988%" y2="49.988%"><stop offset="0%" stop-color="#fff" stop-opacity="0"/><stop offset="100%" stop-color="#fff" stop-opacity=".5"/></linearGradient><linearGradient id="B" x1="59.155%" x2="112.089%" y1="54.379%" y2="29.968%"><stop offset="0%" stop-color="#fff" stop-opacity="0"/><stop offset="100%" stop-color="#fff" stop-opacity=".5"/></linearGradient><linearGradient id="C" x1="66.974%" x2="41.393%" y1="44.635%" y2="56.89%"><stop offset="0%" stop-color="#fff" stop-opacity="0"/><stop offset="100%" stop-color="#fff" stop-opacity=".5"/></linearGradient><linearGradient id="D" x1="63.905%" x2="17.613%" y1="44.346%" y2="133.583%"><stop offset="0%" stop-color="#fff" stop-opacity="0"/><stop offset="100%" stop-color="#fff" stop-opacity=".5"/></linearGradient><linearGradient id="E" x1="75.747%" x2="21.496%" y1="51.08%" y2="70.141%"><stop offset="0%" stop-color="#fff" stop-opacity="0"/><stop offset="100%" stop-color="#fff" stop-opacity=".5"/></linearGradient><linearGradient id="F" x1="60.731%" x2="52.081%" y1="35.467%" y2="50%"><stop offset="0%" stop-color="#3485f7"/><stop offset="100%" stop-color="#1a57cf"/></linearGradient><linearGradient id="G" x1="85.097%" x2="4.854%" y1="67.237%" y2="21.755%"><stop offset="0%" stop-color="#032258"/><stop offset="100%" stop-color="#133e94"/></linearGradient><linearGradient id="H" x1="60.731%" x2="-2.353%" y1="35.298%" y2="77.524%"><stop offset="0%" stop-color="#3485f7"/><stop offset="100%" stop-color="#1a57cf"/></linearGradient><linearGradient id="I" x1="60.731%" x2="52.081%" y1="35.298%" y2="50%"><stop offset="0%" stop-color="#3485f7"/><stop offset="100%" stop-color="#1a57cf"/></linearGradient><linearGradient id="J" x1="50%" x2="-33.859%" y1="24.66%" y2="177.644%"><stop offset="0%" stop-color="#eef3ff"/><stop offset="100%" stop-color="#6b9ad9"/></linearGradient><linearGradient id="K" x1="50%" x2="55.252%" y1="5.551%" y2="78.134%"><stop offset="0%" stop-color="#ffe579"/><stop offset="100%" stop-color="#fec644"/></linearGradient><linearGradient id="L" x1="61.039%" x2="50%" y1="-52.403%" y2="83.471%"><stop offset="0%" stop-color="#ffedbf"/><stop offset="100%" stop-color="#fec644"/></linearGradient><linearGradient id="M" x1="50%" x2="50%" y1="-10.877%" y2="100%"><stop offset="0%" stop-color="#ffe579"/><stop offset="100%" stop-color="#feb755"/></linearGradient><linearGradient id="N" x1="140.584%" x2="25.163%" y1="6.025%" y2="122.779%"><stop offset="0%" stop-color="#e5edff"/><stop offset="100%" stop-color="#6b9ad9"/></linearGradient><linearGradient id="O" x1="50%" x2="-18.376%" y1="19.686%" y2="294.476%"><stop offset="0%" stop-color="#f7faff"/><stop offset="100%" stop-color="#6b9ad9"/></linearGradient><linearGradient id="P" x1="79.406%" x2="25.087%" y1="10.794%" y2="145.942%"><stop offset="0%" stop-color="#cfddf3"/><stop offset="100%" stop-color="#a1b8e3"/></linearGradient><linearGradient id="Q" x1="138.448%" x2="75.019%" y1="29.893%" y2="59.223%"><stop offset="0%" stop-color="#cfddf3"/><stop offset="100%" stop-color="#a1b8e3"/></linearGradient><linearGradient id="R" x1="0%" x2="34.736%" y1="50%" y2="62.002%"><stop offset="0%" stop-color="#47689b"/><stop offset="100%" stop-color="#223762"/></linearGradient><linearGradient id="S" x1="0%" x2="34.736%" y1="50%" y2="78.728%"><stop offset="0%" stop-color="#47689b"/><stop offset="100%" stop-color="#223762"/></linearGradient><linearGradient id="T" x1="50%" x2="-33.812%" y1="30.599%" y2="206.465%"><stop offset="0%" stop-color="#f7faff"/><stop offset="100%" stop-color="#6b9ad9"/></linearGradient><linearGradient id="U" x1="50%" x2="11.449%" y1="42.421%" y2="66.218%"><stop offset="0%" stop-color="#3b5889"/><stop offset="99.855%" stop-color="#9fbee9"/><stop offset="100%" stop-color="#9fbee9"/></linearGradient><linearGradient id="V" x1="73.941%" x2="25.621%" y1="78.518%" y2="21.712%"><stop offset="0%" stop-color="#fff"/><stop offset="100%"/></linearGradient><linearGradient id="W" x1="41.947%" x2="64.574%" y1="35.24%" y2="73.689%"><stop offset="0%" stop-color="#fff"/><stop offset="6%" stop-color="#dcdcdc"/><stop offset="16%" stop-color="#a9a9a9"/><stop offset="26%" stop-color="#7c7c7c"/><stop offset="37%" stop-color="#565656"/><stop offset="48%" stop-color="#373737"/><stop offset="59%" stop-color="#1e1e1e"/><stop offset="71%" stop-color="#0d0d0d"/><stop offset="84%" stop-color="#030303"/><stop offset="100%"/></linearGradient><linearGradient id="X" x1="0%" x2="100%" y1="49.907%" y2="49.907%"><stop offset="0%" stop-color="#fff"/><stop offset="3%" stop-color="#e5e5e5"/><stop offset="10%" stop-color="#b6b6b6"/><stop offset="17%" stop-color="#8a8a8a"/><stop offset="24%" stop-color="#656565"/><stop offset="32%" stop-color="#464646"/><stop offset="41%" stop-color="#2c2c2c"/><stop offset="51%" stop-color="#181818"/><stop offset="62%" stop-color="#0a0a0a"/><stop offset="76%" stop-color="#020202"/><stop offset="100%"/></linearGradient><linearGradient id="Y" x1="16.976%" x2="68.659%" y1="7.301%" y2="50%"><stop offset="0%" stop-color="#ffe579"/><stop offset="100%" stop-color="#feb755"/></linearGradient><linearGradient id="Z" x1="58.142%" x2="48.386%" y1="0%" y2="90.53%"><stop offset="0%" stop-color="#3bacf8"/><stop offset="41.813%" stop-color="#3ba8f7"/><stop offset="100%" stop-color="#3e5bea"/></linearGradient><linearGradient id="a" x1="55.666%" x2="45.031%" y1="103.561%" y2="32.112%"><stop offset="0%" stop-color="#fff"/><stop offset="3%" stop-color="#e5e5e5"/><stop offset="10%" stop-color="#b6b6b6"/><stop offset="17%" stop-color="#8a8a8a"/><stop offset="24%" stop-color="#656565"/><stop offset="32%" stop-color="#464646"/><stop offset="41%" stop-color="#2c2c2c"/><stop offset="51%" stop-color="#181818"/><stop offset="62%" stop-color="#0a0a0a"/><stop offset="76%" stop-color="#020202"/><stop offset="100%"/></linearGradient><linearGradient id="b" x1="64.726%" x2="12.259%" y1="62.939%" y2="3.379%"><stop offset="0%" stop-color="#fff"/><stop offset="3%" stop-color="#e5e5e5"/><stop offset="10%" stop-color="#b6b6b6"/><stop offset="17%" stop-color="#8a8a8a"/><stop offset="24%" stop-color="#656565"/><stop offset="32%" stop-color="#464646"/><stop offset="41%" stop-color="#2c2c2c"/><stop offset="51%" stop-color="#181818"/><stop offset="62%" stop-color="#0a0a0a"/><stop offset="76%" stop-color="#020202"/><stop offset="100%"/></linearGradient><linearGradient id="c" x1="84.355%" x2="25.163%" y1="20.31%" y2="128.549%"><stop offset="0%" stop-color="#e5edff"/><stop offset="100%" stop-color="#6b9ad9"/></linearGradient><linearGradient id="d" x1="61.491%" x2="50%" y1="42.665%" y2="53.794%"><stop offset="0%" stop-color="#e5edff"/><stop offset="100%" stop-color="#6b9ad9"/></linearGradient><linearGradient id="e" x1="50%" x2="6.283%" y1="19.686%" y2="294.476%"><stop offset="0%" stop-color="#f7faff"/><stop offset="100%" stop-color="#6b9ad9"/></linearGradient><linearGradient id="f" x1="50%" x2="-33.812%" y1="44.012%" y2="98.292%"><stop offset="0%" stop-color="#f7faff"/><stop offset="100%" stop-color="#6b9ad9"/></linearGradient><linearGradient id="g" x1="50%" x2="-33.812%" y1="44.198%" y2="96.794%"><stop offset="0%" stop-color="#f7faff"/><stop offset="100%" stop-color="#6b9ad9"/></linearGradient><linearGradient id="h" x1="50%" x2="-33.812%" y1="44.432%" y2="94.904%"><stop offset="0%" stop-color="#f7faff"/><stop offset="100%" stop-color="#6b9ad9"/></linearGradient><linearGradient id="i" x1="0%" x2="100%" y1="50%" y2="50%"><stop offset="0%" stop-color="#fff"/><stop offset="100%"/></linearGradient><linearGradient id="j" x1="-35.407%" x2="44.411%" y1="-31.025%" y2="76.359%"><stop offset="0%" stop-color="#3bacf8"/><stop offset="41.813%" stop-color="#3ba8f7"/><stop offset="100%" stop-color="#3e5bea"/></linearGradient><linearGradient id="k" x1="64.174%" x2="40.821%" y1="31.327%" y2="54.731%"><stop offset="0%" stop-color="#ff9d61"/><stop offset="100%" stop-color="#ffd873"/></linearGradient><linearGradient id="l" x1="50%" x2="-19.004%" y1="50%" y2="137.211%"><stop offset="0%" stop-color="#ff9d61"/><stop offset="100%" stop-color="#ffd873"/></linearGradient><path id="m" d="M4 0h196a4 4 0 0 1 4 4v286H0V4a4 4 0 0 1 4-4z"/><path id="n" d="M94.422 63.107H3.274c-1.042 0-1.73-.844-1.532-1.886l9.903-52.775c.195-1.042 1.198-1.888 2.24-1.888h91.148c1.042 0 1.728.846 1.532 1.888L96.662 61.22c-.195 1.042-1.195 1.886-2.24 1.886z"/><path id="o" d="M114.712 63.107H23.565c-1.043 0-2.033-.844-2.22-1.886L12.04 8.446c-.184-1.042.512-1.888 1.554-1.888h91.146c1.043 0 2.033.846 2.22 1.888l9.304 52.775c.185 1.042-.5 1.886-1.553 1.886z"/><path id="p" d="M61.068 31.14L42.4 28.897l-16.124-1.824L9.43 10.292 1.003 1.938A1.13 1.13 0 0 1 .77.656 1.13 1.13 0 0 1 1.898.005l34.838 4.14 2.736 2.7 13.772 13.643L62.1 29.17a1.15 1.15 0 0 1-1.021 1.97z"/><path id="q" d="M90.754 18.51l.985-.174 7.06 40.034-.985.174z"/></defs><g fill="none" fill-rule="evenodd"><rect width="204" height="549" fill="#e2e9f1" opacity=".7" rx="4"/><mask id="r" fill="#fff"><use xlink:href="#m"/></mask><g mask="url(#r)" class="B"><path fill="url(#A)" d="M214.11 189.155s-3.972 33.087-23.874 35.585c-19.9 2.54-43.775.37-48.484 21.704s-60.81 22.81-60.81 22.81h133.17v-80.098z" class="C"/><path fill="url(#B)" d="M214.11 126.133s-50.082-11.917-61.507 17.772-80.22 78.255-97.05 61.752S-.22 224.74-.22 224.74v44.513h147.747s35.054-28.338 19.37-57.903 18.837-64.333 47.174-43.98v-41.237h.04z" class="C"/><path fill="url(#C)" d="M128.075-3.795S93.39-4 87.453 19.342-.18 50.177-.18 50.177v18.55S57.477 40.02 105.962 57.015c48.485 16.954 108.2-7.125 108.2-7.125V-3.795h-86.077zm33.825 36.24c-18.387 0-33.25-5.733-33.25-12.776 0-7.084 14.905-12.776 33.25-12.776 18.387 0 33.252 5.733 33.252 12.776 0 7.084-14.865 12.777-33.25 12.777z" class="C"/><path fill="url(#D)" d="M214.11 111.554V156.2c-20.393-7.535-13.145 10.852-26.126 12.408-17.404 2.088-20.966-2.54-25.184 8.927 0 0-5.528-14.906 10.4-18.714s-1.843-48.158 37.47-47.38c1.146-.04 2.293.04 3.44.123z"/><path fill="url(#E)" d="M147.977 188.05l-167.772-7.862V121.22L102.85 65.7s78.706 43.653 45.127 122.36z" class="C"/><g class="C"><path fill="url(#A)" d="M214.11 189.155s-3.972 33.087-23.874 35.585c-19.9 2.54-43.775.37-48.484 21.704s-60.81 22.81-60.81 22.81h133.17v-80.098z"/><path fill="url(#B)" d="M214.11 126.133s-50.082-11.917-61.507 17.772-80.22 78.255-97.05 61.752S-.22 224.74-.22 224.74v44.513h147.747s35.054-28.338 19.37-57.903 18.837-64.333 47.174-43.98v-41.237h.04z"/><path fill="url(#C)" d="M128.075-3.795S93.39-4 87.453 19.342-.18 50.177-.18 50.177v18.55S57.477 40.02 105.962 57.015c48.485 16.954 108.2-7.125 108.2-7.125V-3.795h-86.077zm33.825 36.24c-18.387 0-33.25-5.733-33.25-12.776 0-7.084 14.905-12.776 33.25-12.776 18.387 0 33.252 5.733 33.252 12.776 0 7.084-14.865 12.777-33.25 12.777z"/><path fill="url(#E)" d="M147.977 188.05l-167.772-7.862V121.22L102.85 65.7s78.706 43.653 45.127 122.36z"/></g></g><g class="B"><path fill="#d2e1f5" d="M166.755 150.135c-25.707-10.448-148.022-5.9-155.96-2.784s1.545 5.187 21.97 4.04 46.703.126 69.274.74 81.38 4.778 64.716-1.997z"/><g transform="translate(35.834 85)"><g fill="#0c3178"><path d="M86.066 13.117a6.56 6.56 0 0 1-6.558-6.559A6.56 6.56 0 0 1 86.066 0a6.56 6.56 0 0 1 6.558 6.558 6.57 6.57 0 0 1-6.558 6.559zm0-11.552c-2.02 0-3.84 1.217-4.614 3.083s-.346 4.015 1.083 5.443 3.577 1.856 5.443 1.082S91.06 8.58 91.06 6.558a5 5 0 0 0-4.995-4.993z"/><path d="M77.84 13.117a6.56 6.56 0 0 1-6.557-6.559A6.56 6.56 0 0 1 77.84 0a6.56 6.56 0 0 1 6.558 6.558 6.57 6.57 0 0 1-6.558 6.559zm0-11.552c-2.02 0-3.84 1.217-4.613 3.083S72.88 8.663 74.3 10.09s3.577 1.856 5.443 1.082 3.083-2.594 3.082-4.615a5 5 0 0 0-4.994-4.993z"/><path d="M68.92 13.117a6.56 6.56 0 0 1-4.64-11.196A6.56 6.56 0 0 1 71.429.5a6.56 6.56 0 0 1 4.049 6.06 6.57 6.57 0 0 1-6.558 6.558zm0-11.552c-2.02 0-3.842 1.216-4.616 3.082s-.346 4.015 1.083 5.444 3.577 1.856 5.443 1.082 3.083-2.594 3.083-4.615a5 5 0 0 0-4.994-4.993z"/><path d="M60.693 13.117a6.56 6.56 0 0 1-6.558-6.559A6.56 6.56 0 0 1 60.693 0a6.56 6.56 0 0 1 6.559 6.558 6.57 6.57 0 0 1-6.559 6.559zm0-11.552c-2.02 0-3.84 1.217-4.614 3.083s-.346 4.015 1.083 5.443 3.577 1.856 5.443 1.082 3.083-2.594 3.083-4.615a5 5 0 0 0-4.995-4.993z"/><path d="M52.147 13.117a6.56 6.56 0 0 1-4.639-11.196A6.56 6.56 0 0 1 54.656.5a6.56 6.56 0 0 1 4.048 6.06 6.57 6.57 0 0 1-6.557 6.558zm0-11.552c-2.02 0-3.842 1.216-4.615 3.082s-.346 4.015 1.082 5.444 3.577 1.856 5.444 1.082S57.14 8.58 57.14 6.558a5 5 0 0 0-4.994-4.993z"/><path d="M43.92 13.117a6.56 6.56 0 0 1-6.558-6.559A6.56 6.56 0 0 1 43.92 0a6.56 6.56 0 0 1 6.558 6.558 6.57 6.57 0 0 1-6.558 6.559zm0-11.552c-2.02 0-3.84 1.217-4.614 3.083S38.96 8.663 40.4 10.09s3.577 1.856 5.443 1.082 3.083-2.594 3.082-4.615a5 5 0 0 0-4.994-4.993z"/><path d="M34.73 13.117a6.56 6.56 0 0 1-6.061-4.046c-1.017-2.45-.457-5.272 1.42-7.15S34.784-.516 37.235.5a6.56 6.56 0 0 1 4.05 6.06 6.57 6.57 0 0 1-6.555 6.558zm0-11.552c-2.02-.002-3.843 1.214-4.617 3.08s-.348 4.016 1.08 5.445 3.578 1.857 5.444 1.084S39.72 8.58 39.72 6.558a5 5 0 0 0-4.99-4.993z"/></g><path fill="url(#F)" d="M92.716 63.107H1.566c-1.042 0-1.728-.844-1.533-1.886L9.936 8.446c.196-1.042 1.2-1.888 2.24-1.888h91.148c1.043 0 1.728.846 1.533 1.888L94.955 61.22a2.38 2.38 0 0 1-2.239 1.886z"/><use fill="#007300" xlink:href="#n"/><use fill="url(#G)" xlink:href="#n"/><path fill="url(#H)" d="M112.812 63.107H21.664c-1.04 0-2.033-.844-2.22-1.886L10.14 8.446c-.184-1.042.512-1.888 1.554-1.888h91.148c1.04 0 2.033.846 2.22 1.888l9.304 52.775c.185 1.042-.51 1.886-1.554 1.886z"/><use fill="#3c80ef" xlink:href="#o"/><use fill="url(#I)" xlink:href="#o"/><path fill="#202d51" d="M90.396 11.713c.313.878.04 1.6-.613 1.6s-1.438-.712-1.752-1.6-.04-1.59.614-1.59 1.437.712 1.75 1.6zm-8.346 0c.312.878.04 1.6-.614 1.6s-1.437-.712-1.75-1.6-.04-1.59.613-1.59 1.437.712 1.752 1.6zm-9.268 0c.313.878.04 1.6-.613 1.6s-1.437-.712-1.752-1.6-.04-1.59.613-1.59 1.438.712 1.752 1.6zm-8.347 0c.313.878.04 1.6-.613 1.6s-1.438-.712-1.752-1.6-.04-1.59.614-1.59 1.437.712 1.75 1.6zm-8.068.15c.313.877.04 1.588-.613 1.588s-1.437-.71-1.752-1.588-.04-1.6.614-1.6 1.437.712 1.75 1.6zm-7.912 0c.313.877.04 1.588-.613 1.588s-1.438-.71-1.752-1.588-.04-1.6.614-1.6 1.437.712 1.75 1.6zm-8.812 0c.312.877.04 1.588-.613 1.588s-1.438-.71-1.752-1.588-.04-1.6.613-1.6 1.433.712 1.752 1.6z"/><path fill="#0c3178" d="M88.825 12.417a.78.78 0 0 1-.758-.589c-.088-.346.07-.708.384-.88 2.005-1.09 3.015-3.404 2.452-5.617s-2.554-3.763-4.837-3.765a.78.78 0 1 1 0-1.563 6.56 6.56 0 0 1 3.132 12.321c-.114.06-.243.093-.373.093zm-8.26.02c-.358 0-.67-.244-.758-.592a.78.78 0 0 1 .388-.88c1.98-1.058 3.012-3.3 2.518-5.5s-2.39-3.785-4.633-3.893a.78.78 0 0 1-.622-1.204.78.78 0 0 1 .696-.36 6.56 6.56 0 0 1 2.779 12.336.8.8 0 0 1-.368.094zm-9.188.134c-.363-.004-.676-.257-.756-.61a.78.78 0 0 1 .423-.875c2.077-.977 3.22-3.243 2.774-5.495s-2.372-3.908-4.665-4.016c-.432-.02-.766-.386-.746-.818s.386-.765.818-.745a6.56 6.56 0 0 1 2.485 12.487c-.105.048-.218.073-.333.072zm-8.392.074c-.37 0-.692-.26-.768-.623a.78.78 0 0 1 .455-.877c2.135-.922 3.35-3.195 2.933-5.482s-2.358-3.985-4.68-4.093c-.432-.02-.766-.386-.746-.818s.386-.766.818-.746a6.56 6.56 0 0 1 2.296 12.573c-.097.042-.202.065-.308.066zm-8.23-.147a.78.78 0 0 1-.76-.6.78.78 0 0 1 .406-.88c2.02-1.02 3.1-3.274 2.634-5.49s-2.366-3.84-4.627-3.957a.78.78 0 0 1-.657-.425.78.78 0 0 1 .039-.782c.152-.235.417-.37.696-.357a6.56 6.56 0 0 1 2.622 12.402.8.8 0 0 1-.353.088zM46.8 12.35c-.353 0-.663-.238-.755-.58s.058-.702.364-.88c1.886-1.083 2.854-3.262 2.394-5.388s-2.244-3.7-4.4-3.915c-.424-.047-.732-.425-.693-.85s.414-.74.84-.707a6.56 6.56 0 0 1 2.65 12.215c-.118.07-.253.105-.4.105zm-8.906-.175a.78.78 0 0 1-.429-1.436c1.748-1.145 2.6-3.256 2.133-5.293s-2.15-3.568-4.223-3.84A.78.78 0 0 1 34.843.35a.78.78 0 0 1 .734-.294 6.56 6.56 0 0 1 2.748 11.99c-.128.084-.277.13-.43.128z"/><path fill="#fff" d="M111.74 61.374H25.926a2.05 2.05 0 0 1-1.933-1.642L16.5 17.298c-.156-.908.446-1.642 1.354-1.642h85.813c.908 0 1.774.737 1.934 1.642l7.482 42.434c.162.906-.444 1.642-1.35 1.642z"/><g fill="#b8cff1"><path d="M109.806 58.6H26.884l-.01-.065-7.075-40.127h82.922l.01.064 7.076 40.127zm-82.8-.157h82.603l-7.032-39.88H19.984l7.032 39.88z"/><path d="M25.538 50.446H108.3v1H25.538zm-1.412-8.007h82.763v1H24.126zm-1.412-8.008h82.763v1H22.714zm-1.41-8.007h82.763v1H21.303z"/><use xlink:href="#q"/><use xlink:href="#q" x="-11.824"/><use xlink:href="#q" x="-23.647" y="-0.002"/><use xlink:href="#q" x="-35.47"/><use xlink:href="#q" x="-47.294"/><use xlink:href="#q" x="-59.117"/><path d="M67.127 29.297H62c-.36-.013-.667-.27-.74-.625a.52.52 0 0 1 .106-.44c.1-.122.253-.2.412-.186h5.116a.78.78 0 0 1 .74.626c.034.154-.005.317-.106.44s-.253.2-.412.186zm.35 1.975H62.36c-.36-.012-.667-.27-.74-.626-.034-.154.005-.316.107-.44s.253-.2.41-.186h5.117c.362.013.667.27.74.625a.52.52 0 0 1-.107.44c-.1.122-.253.2-.41.186zM92.343 53.13h-5.116c-.362-.013-.667-.272-.74-.626a.52.52 0 0 1 .107-.44c.1-.12.253-.2.41-.185h5.117a.78.78 0 0 1 .739.625.52.52 0 0 1-.106.44c-.1.12-.253.2-.412.185zm.35 1.974h-5.117a.78.78 0 0 1-.74-.625.52.52 0 0 1 .107-.44c.1-.122.253-.2.41-.186h5.117c.36.013.667.27.74.626a.52.52 0 0 1-.106.44c-.102.12-.253.2-.412.185zm-61.834-16.92H25.74c-.36-.013-.666-.272-.738-.626-.035-.155.004-.317.105-.44s.253-.2.412-.185h5.117a.78.78 0 0 1 .738.625.51.51 0 0 1-.106.44c-.1.122-.253.2-.41.186zm.35 1.975H26.1c-.36-.013-.667-.27-.74-.626a.52.52 0 0 1 .106-.44c.102-.12.253-.2.412-.185h5.116a.78.78 0 0 1 .74.625.52.52 0 0 1-.106.44c-.1.122-.253.2-.41.186z"/></g><path fill="#6f9cff" d="M47.034 49.625h-7.58a1.49 1.49 0 0 1-1.402-1.192l-.6-3.404a.97.97 0 0 1 .981-1.192h7.584c.655 0 1.286.536 1.402 1.192l.6 3.404c.112.658-.33 1.192-.985 1.192z"/><path fill="#fff" d="M42.435 48.234c-.04 0-.08-.015-.108-.043l-1.7-1.6c-.04-.04-.058-.096-.045-.15s.054-.098.107-.114.112-.002.153.036l1.58 1.497 2.4-2.837c.056-.066.154-.074.22-.02s.075.155.02.22l-2.503 2.965c-.028.033-.068.053-.1.055h-.013z"/></g><path fill="url(#J)" d="M194 74.79L177.913 64c-4.267 9.145-10.57 15.648-18.913 19.508L172.765 96c10.77-3.85 17.85-10.92 21.235-21.21z"/><path fill="#c5d7f3" style="mix-blend-mode:multiply" d="M166.28 83l-1.28.817L175.438 92l1.562-.793zm11.494-14L190 76.69l-.83 1.31L177 70.33zm-2 3L188 79.69l-.83 1.31L175 73.33zm4.01 7L186 82.71l-.84 1.29-6.16-3.692zm-5.746-4L178 77.755c-.104.232-.24.497-.408.794-.765 1.356-1.845 2.54-3.162 3.465l-1.353.986L169 80.053l.66-.373c1.7-.978 3.084-2.358 4.013-3.998l.363-.682zm3.557 7L183 86.26c-.622.922-1.318 1.702-2.087 2.34s-1.578 1.104-2.43 1.402L173 85.823c1.156-.678 2.068-1.298 2.737-1.86s1.288-1.217 1.857-1.963z" opacity=".517"/><path fill="url(#K)" d="M148.575 16.2l21.082 16.656a.89.89 0 0 1 .137 1.27l-12.068 14.538a.94.94 0 0 1-1.3.133l-21.084-16.655a.89.89 0 0 1-.137-1.27l12.07-14.538a.94.94 0 0 1 1.3-.133z"/><path fill="url(#L)" d="M135.115 32.554c-.068-.052-.1-.128-.114-.2-.01-.162.12-.3.3-.3l17.892-1.032c.478-.028.9.292.975.74l2.838 16.92a.28.28 0 0 1-.065.23c-.108.126-.303.146-.436.044l-21.38-16.38z"/><path fill="url(#M)" d="M148.503 16.066l21.383 16.615c.132.102.152.29.045.416a.31.31 0 0 1-.209.108l-18.573 1.8c-.504.05-.955-.3-1.013-.783l-2.134-17.882c-.02-.163.102-.3.272-.328.082-.01.165.014.23.064z"/><path fill="url(#N)" d="M23.208 35.066l-.002-.002c-.237-.183-.275-.516-.084-.744l3.58-4.28a.57.57 0 0 1 .736-.107l1.274.82a.57.57 0 0 0 .679-.049L44.64 17.29a.57.57 0 0 1 .778.05l11.445 12.538c.192.2.18.528-.026.725L39.595 47.005a.57.57 0 0 1-.73.038L23.208 35.066z"/><path fill="url(#O)" d="M39.72 46.964l-9.6-11.343a.51.51 0 0 1 .042-.705l19.873-18.6c.216-.2.562-.197.772.01.04.04.074.085.1.134l7.036 13.716a.51.51 0 0 1-.108.605L40.526 47c-.216.202-.562.198-.773-.008l-.034-.037z"/><path fill="#a3c1ea" d="M39.573 45.158L39 44.642l5.55-4.484.45.596z"/></g><g transform="translate(0 114)"><g class="B"><path fill="#e2ebfc" d="M59.7 54.016c5.703-3.283 13.48-2.696 19.736-.116 7.39 3.133 13.44 8.586 20.2 12.873 5.502 3.485 11.987 6.226 18.416 5.92l.37-.022.42-.034c.42-.04.834-.094 1.257-.162a16.47 16.47 0 0 0 2.332-.512c5.8-1.7 10.218-6.134 15.576-8.98 11.437-6 26.084-3.75 37.037 2.9 11.266 6.83 19.782 18.443 21.223 31.342a34.59 34.59 0 0 1 .04 6.908 30.05 30.05 0 0 1-.322 2.447l-.11.607c-1.504 8.46-6.193 16.023-13.1 21.13-.373.275-.76.536-1.16.787l-.4.25-.376.238a17.71 17.71 0 0 1-.766.444l-.4.21c-1.022.557-2.075 1.055-3.154 1.49l-.54.213a18.57 18.57 0 0 1-1.192.433c-.786.275-1.573.524-2.385.72-10.82 2.9-23.083.787-34.403-1.44-6.864-1.5-13.847-2.418-20.868-2.716l-.958-.037h-2.816a40.51 40.51 0 0 0-13.822 2.779 37.99 37.99 0 0 0-3.21 1.534c-1.72.962-3.368 2.053-4.925 3.263-5.332 4.1-10 9.242-15.616 12.702-1.907 1.214-3.964 2.174-6.118 2.858-.504.147-.998.285-1.49.395l-.37.077c-9.74 2.076-20.392-3.042-25.88-11.323l-.164-.252a21.84 21.84 0 0 1-1.94-3.657 24.71 24.71 0 0 1-1.453-4.6 22.5 22.5 0 0 1-.302-1.626 26.78 26.78 0 0 1-.275-2.478 35.08 35.08 0 0 1 6.393-21.602c2.836-4.2 3.004-8.66 3.615-13.612l.093-.728.393-2.83.498-3.684 1.97-14.327c.8-5.6 1.952-11.58 6.048-15.664a12.5 12.5 0 0 1 1.637-1.31c.236-.18.48-.347.73-.504l.253-.152.27-.16z" opacity=".3"/><path fill="#f1f4f9" d="M107.1 41.206c1.582 1.28 3.557 1.938 5.57 1.86 6.134.092 11.995-3.98 18.038-2.864a31.03 31.03 0 0 1 5.88 2.157 11.77 11.77 0 0 0 6.079 1.152c2.133-.208 3.918-1.748 4.482-3.866.526-2.956-2.268-5.484-5.08-6.395s-5.88-.93-8.456-2.36c-3.194-1.86-5.6-5.726-9.237-5.577-2.613.13-4.573 2.38-6.334 4.37a10.37 10.37 0 0 1-4.845 3.439c-1.343.334-2.65-.093-3.992.11-1.803.148-3.322 1.44-3.794 3.228s.204 3.7 1.69 4.747z"/><path fill="url(#P)" d="M21.695 59.132c3.07-1.902 5.168-5.04 5.75-8.606.385-2.563 0-5.383 1.446-7.543 1.722-2.637 5.292-3.13 8.35-3.827s6.572-2.618 6.536-5.767c0-4.175-6.06-5.713-7.47-9.65-.6-2.518.018-5.167 1.647-7.177a23.46 23.46 0 0 0 3.772-6.59c.824-3.246-.46-6.66-3.216-8.56a8 8 0 0 0-9.143.045c-5.364 3.8-4.632 12.817-9.96 16.625-3.185 2.307-8.1 2.38-10.015 5.84-2.416 4.377 2.4 9.96.66 14.648-1.136 3.02-4.486 4.45-6.775 6.7-3.422 3.515-4.252 8.808-2.07 13.2 2.4 4.56 5.493 3.8 9.722 2.747 3.68-.916 7.306 0 10.766-2.087z" transform="matrix(-.829038 .559193 .559193 .829038 39.606272 61.926278)"/><path fill="#d6e3fa" d="M26.27 108.844c3.93-3.435 8.84-5.556 14.03-6.06l-3.32-2.49-11.313-8.584-8.146 1.075c-.142.017-.272-.077-.302-.216-.012-.15.096-.28.244-.297l7.646-1.093-4.857-3.683c-.114-.087-.135-.252-.047-.366s.252-.135.366-.048l16.76 12.71 7.502 5.5c-2.075-4.22-2.602-9.04-1.49-13.62.013-.07.052-.128.11-.167s.128-.054.196-.04c.07.007.134.045.174.104s.05.132.03.2c-1.115 4.518-.58 9.28 1.515 13.426.06.118.025.26-.08.342 1.445.992 2.894 1.957 4.395 2.868a71.75 71.75 0 0 0 13.807 6.396 7.6 7.6 0 0 1-.523-9.391.24.24 0 0 1 .165-.113c.068-.012.138.006.192.05.115.08.143.24.063.356-1.973 2.798-1.706 6.59.638 9.07.08.09.087.222.017.32 2.363.803 4.77 1.482 7.205 2.034.068.012.128.05.166.11s.052.128.038.195c-.037.052-.09.088-.153.103-.04.057-.1.097-.167.113a72.83 72.83 0 0 1-13.458-4.466 24.02 24.02 0 0 0-8.492 2.965c-.06.035-.13.044-.195.027s-.122-.06-.156-.12c-.04-.057-.052-.13-.034-.198a.24.24 0 0 1 .13-.154c2.477-1.43 5.186-2.412 8.002-2.9a74.17 74.17 0 0 1-7.451-3.812c-2.92-1.764-5.717-3.743-8.353-5.81a24.65 24.65 0 0 0-14.251 6.032c-.05.053-.117.08-.187.078s-.137-.04-.18-.096c-.08-.008-.154-.052-.2-.12s-.06-.15-.035-.23z"/><path fill="url(#Q)" d="M18.36 68.37a7.29 7.29 0 0 0 5.642-1.926c1.074-1.036 1.82-2.453 3.294-2.944 1.71-.6 3.513.418 5.17 1.163s3.93 1.108 5.005-.345c1.438-1.926-.783-4.725 0-7.014.605-1.36 1.81-2.36 3.258-2.708 1.43-.35 2.794-.926 4.04-1.708 1.5-1.197 2.114-3.206 1.513-5.035s-2.28-3.1-4.206-3.16c-3.768-.146-6.6 4.215-10.357 4.106-2.275 0-4.568-1.817-6.643-.817-2.64 1.163-2.385 5.45-4.824 6.923-1.565.98-3.64.454-5.46.7-2.81.413-5.053 2.557-5.588 5.343-.49 2.907 1.238 3.634 3.495 4.652s3.33 2.435 5.66 2.78z" transform="matrix(-.829038 .559193 .559193 .829038 39.606272 61.926278)"/><path fill="#d6e3fa" d="M44.57 132.512a14.35 14.35 0 0 1 4.309-7.599l-2.365.024-8.092.08-3.383 3.272c-.066.045-.156.028-.2-.037s-.026-.155.04-.2l3.173-3.066-3.454.027c-.075-.025-.124-.098-.12-.177.02-.08.1-.133.18-.122l11.976-.117 5.313-.12a11.25 11.25 0 0 1-5.365-5.59c-.014-.037-.013-.078.004-.114s.05-.063.086-.076c.073-.02.15.003.195.062 1.045 2.407 2.922 4.352 5.296 5.488.07.023.115.1.1.162l2.98-.245a40.63 40.63 0 0 0 8.475-1.907 4.37 4.37 0 0 1-2.382-1.363c-.666-.748-1.05-1.705-1.086-2.7.006-.04.03-.08.064-.102s.076-.03.117-.02c.075.016.122.086.1.162.065 1.934 1.493 3.537 3.413 3.83l.1.148 3.976-1.584a.18.18 0 0 1 .205.077c-.023.038-.062.064-.105.07-2.458 1.13-5.017 2.02-7.64 2.657a13.82 13.82 0 0 0-2.941 4.415c-.026.076-.1.125-.18.12-.07-.022-.115-.09-.1-.162.64-1.5 1.53-2.863 2.635-4.058a40.13 40.13 0 0 1-4.735.848 55.69 55.69 0 0 1-5.908.241 13.97 13.97 0 0 0-4.404 7.619c-.012.054-.05.098-.102.116s-.11.007-.15-.028-.06-.1-.048-.143l.014.12z"/><path fill="url(#R)" d="M177.064 66.388l-15.184 15.86c-.954 1.098-2.566 1.35-3.814.6l-46.027-18.5c-.952-.366-1.608-1.244-1.686-2.257a2.63 2.63 0 0 1 1.32-2.485l3.65-2.216 15.13-8.992a4.64 4.64 0 0 1 3.65-.509l7.556 2.49 34.365 11.662c.65.233 1.19.7 1.515 1.308.526 1.012.334 2.246-.475 3.052z"/><path fill="url(#S)" d="M192.278 30.087l-5.503 14.176-6.622 17.244c-.376.9-1.207 1.537-2.183 1.67a2.92 2.92 0 0 1-1.467-.145l-19.462-7.188-15.004-5.627-7.117-2.632c-.68-.215-1.24-.703-1.54-1.345a2.5 2.5 0 0 1-.038-2.031l12.015-27.736c.596-1.255 2.037-1.882 3.375-1.47l41.71 11.726a2.6 2.6 0 0 1 1.669 1.277 2.55 2.55 0 0 1 .166 2.081z"/><path fill="url(#T)" d="M135.142 44.384L146.23 18.23c.543-1.196 1.878-1.8 3.122-1.414L187.86 27.83a2.38 2.38 0 0 1 1.543 1.196 2.43 2.43 0 0 1 .145 1.961l-11.088 27.87c-.552 1.328-2.053 1.964-3.376 1.432l-38.508-12.73a2.39 2.39 0 0 1-1.392-1.276c-.27-.6-.286-1.287-.042-1.9z"/><path fill="url(#U)" d="M133.784 63.213l-4.287 3 10.86 4.295 3.732-3.33z"/></g><g transform="translate(37.17 118.332)"><mask id="s" fill="#fff"><use xlink:href="#p"/></mask><g class="B"><use xlink:href="#p" class="F"/><path fill="url(#V)" d="M61.068 31.14l-3.484-.42-4.415 9.668-2.735 5.964-1.113 2.572a4.86 4.86 0 0 1-2.731 2.539 4.85 4.85 0 0 1-3.726-.15c-.2.42-1.46.274-3.484-.328C30.084 47.8 21.015 44 12.24 39.585c-3.43-1.64-6.585-3.283-9.12-4.706-1.06-1.606-1.964-3.3-2.7-5.088-1.012-2.387-1.764-4.876-2.243-7.424 2.006-.566 4.16-.748 6.165-1.332l.474-.164c1.026-.353 1.978-.9 2.8-1.587 1.453-1.025 2.24-2.754 2.06-4.523-.218-1.35-1.112-2.7-.565-3.958a2.56 2.56 0 0 1 .31-.511c.586-.568 1.396-.843 2.207-.748a7.29 7.29 0 0 1 2.864 1.058l11.673 6.33c1.067.672 2.27 1.1 3.52 1.258 1.297.127 2.523-.616 3-1.824.008-.08.008-.158 0-.237a3.96 3.96 0 0 0-1.951-3.43c-1.168-.875-2.554-1.66-3.1-3.01-.894-2.298 1.35-4.815 3.776-5.162 2.465-.115 4.908.52 7.004 1.824l1.003.474 13.77 13.644 8.883 8.7a1.15 1.15 0 0 1-1.021 1.97z" style="mix-blend-mode:overlay" mask="url(#s)" class="D"/><path fill="url(#W)" d="M61.068 31.14l-3.484-.42-4.415 9.668-2.735 5.964-1.113 2.572a4.86 4.86 0 0 1-2.731 2.539 4.85 4.85 0 0 1-3.726-.15c-.2.42-1.46.274-3.484-.328C30.084 47.8 21.015 44 12.24 39.585a13.19 13.19 0 0 1 .11-1.459c.2-2.217 1.3-4.254 3.046-5.636a9.85 9.85 0 0 1 7.46-.967h.365c2.462.493 4.87 1.277 7.296 1.824 1.7.34 3.44.407 5.16.2.93-.098 1.84-.332 2.7-.693 1.8-.75 3.24-2.168 4.013-3.958a5.32 5.32 0 0 0 .438-2.061c0-1.952-.912-4.16.273-5.728l.146-.164a5.47 5.47 0 0 1 4.742-.948c1.55.182 3.357.328 5.254.492L62.1 29.17a1.15 1.15 0 0 1-1.021 1.97z" style="mix-blend-mode:overlay" mask="url(#s)" class="D"/></g></g><g class="B"><ellipse cx="157.199" cy="184.452" fill="#000" opacity=".1" rx="10.944" ry="1.368"/><g class="E"><path d="M121.986 55.75l-.33.404c-10.548 12.696-23.594 28.824-29.4 29.74a34.53 34.53 0 0 1-19.513-2.257c-1.6-.642-3.27-1.412-5.108-2.33-6.688-4.256-3.84-14.054 0-14.678 7.9 0 10.492 4.1 22.765 9.9l27.9-23.852 3.675 3.082z"/><path d="M118.31 52.668c.793-1.25 2.1-1.833 3.625-2.223 3.655-.842 6.32-.754 6.415 1.07.323 2.54-3.78 2.56-6.825 4.802l-3.215-3.648z"/></g><path fill="url(#X)" d="M121.986 56.316C111.56 68.946 98.663 84.988 92.923 85.9c-6.505 1.143-13.2.363-19.273-2.245.3-.4.654-.757 1.054-1.058C77 81.1 79.64 80.222 82.37 80.042c7.175-1.15 14.66-2.52 20.435-6.954a71.52 71.52 0 0 0 9.083-9.581 25.66 25.66 0 0 1 7.847-6.424c.686-.417 1.455-.678 2.252-.767z" style="mix-blend-mode:overlay" class="D"/><path fill="url(#Y)" d="M121.074 140.836l-4.496 2.136-2.752 1.66c-1.43.9-1.294.81-2.626 1.84l-7.65-20.856-30.812 5.128.9-13.47c13.34-5.566 35.655-11.205 40.646-6.004 3.138 4.47 4.992 16.024 6.8 29.565z"/><path d="M152.64 177.2l-1.9 1.4-4.838 3.572c-.54-.65-.94-1.398-1.17-2.197a16.12 16.12 0 0 0-1.417-3.357c-.4-.65-.866-1.25-1.418-1.786-.567-.625.095-1.66.964-2.232s1.455-.607 1.9-.125c.46.604.992 1.156 1.587 1.643.938.73 1.982 1.332 3.1 1.786l1.587.607.416.16 1.2.52z" class="E"/><path d="M158.107 174.845l-5.64 4.632-6.56 4.52c-.24-.24-.46-.504-.654-.788l-.3-.468c-.546-.806-.672-1.85-.336-2.776h.318c1.663.08 3.204-.922 3.9-2.53.23-.527.402-1.08.512-1.65.007-.138.007-.275 0-.413l1.097-.375.424-.13.955-.263h.336a16.46 16.46 0 0 1 4.225-.638h.53c.814.02 1.256.263 1.203.88z" class="F"/><path fill="#fff" d="M158.11 173.982a20.22 20.22 0 0 1-5.38 5.193c-2.108 1.693-4.5 3.015-7.07 3.91l-.32-.46c2.5-.786 4.822-2.03 6.844-3.67 2.053-1.367 3.864-3.053 5.362-4.99l.562.018z"/><path fill="#bfabda" d="M151.253 176.42c.034.05.034.116 0 .165l-.127.1c-.06.01-.118-.002-.167-.037s-.08-.087-.09-.146l-.3-1.394-.2-.88c-.017-.06-.006-.126.03-.18s.1-.088.153-.096c.1.003.188.07.22.165l.2.862.292 1.43zm1.8-.8c.02.036.016.08-.01.112s-.07.05-.117.047a.17.17 0 0 1-.133-.01c-.04-.023-.065-.06-.068-.102l-.3-1.2-.2-.318c-.013-.078.04-.152.127-.175 0 0 .128 0 .164.127l.1.366.438 1.162z"/><path fill="url(#M)" d="M147.522 172.3a4.71 4.71 0 0 1-1.027 2.023c-.25.33-.533.635-.843.91a10.32 10.32 0 0 1-2.09 1.586 5.91 5.91 0 0 1-2.2.802l-33-32.957c-15.144-3.883-43.323-6.945-46.568-18.648l16.5-4.94 6.252-1.823c10.102 2.917 23.65 9.97 28.802 12.596 5.574 4.54 20.736 23.97 34.174 40.45z"/><path fill="url(#Z)" d="M89.154 118.863a28.13 28.13 0 0 1-8.393 5.653c-6.086 2.563-12.863 2.618-20.42.582-6.34-18.468-4.76-47.97 1.816-57.695 3.234-3.91 14.207-1.582 18.168 3.38l.272.346a6.01 6.01 0 0 1 .418.89 85.38 85.38 0 0 1 2.598 11.816l.836 4.98v.146l.436 2.636 4.27 27.266z"/><path d="M73.292 65.824c-.822.184-1.654.327-2.49.43-1.825.253-3.688-.01-5.36-.753.55-.73.965-1.543 1.227-2.405.47-1.6.54-3.262.207-4.882-.236-1.36-.628-2.7-1.17-3.967l7.944-1.58c-.625 1.976-1.067 4-1.32 6.048-.454 2.407-.118 4.89.962 7.108z" class="E"/><path fill="url(#a)" d="M72.738 65.9c-.8.187-1.612.333-2.428.438a7.32 7.32 0 0 0-.258-1.407 2.97 2.97 0 0 0-2.097-1.936c-.536-.087-1.086-.043-1.6.128a10.7 10.7 0 0 0 .202-4.97 17.84 17.84 0 0 1 5.243.512c-.442 2.45-.115 4.976.938 7.235z" style="mix-blend-mode:overlay" class="D"/><g class="E"><path d="M61.794 50.004l3.7 10.48c3.747 1.202 8.434 2.423 9.05-.53a46.62 46.62 0 0 0-1.086-10.935l-11.674.984zm76.608 18.974l-.402.378-1.334 1.223c-11.64 10.753-25.73 23.843-31.396 24.04-3.966 0-9.813-1.636-15.862-4.046a139.51 139.51 0 0 1-4.587-1.942c-1.535-.683-3.655-1.798-5.373-2.607-2.952-1.508-5.82-3.17-8.6-4.98-2.155-1.495-3.14-4.15-2.474-6.66s2.848-4.35 5.472-4.614c2.606.39 5.142 1.146 7.53 2.247a113.45 113.45 0 0 1 13.158 7.067c3.3 1.978 6.688 4.136 10.05 6.24l30.5-19.78.128-.108 3.18 3.542z"/><path d="M134.754 65.755c.945-1.257 2.332-1.733 3.875-1.987 3.762-.437 6.3 0 6.15 1.898 0 2.754-3.74 1.86-7.014 3.874l-3-3.785z"/></g><path d="M74.548 53.53c1.157.138 2.323-.166 3.253-.85a3.91 3.91 0 0 0 1.32-2.798c.025-1.058-.217-2.106-.707-3.05-.775-1.672-2.15-3.012-3.866-3.774a5.37 5.37 0 0 0-5.26.614c-1.468 1.192-2.138 3.268-3.903 4-1.126.25-2.27.42-3.42.505-1.76.506-3.1 1.88-3.55 3.6-.44 1.693-.337 3.476.297 5.1.28 1.025.943 1.913 1.86 2.5l2.082.83c.93.614 1.152 1.806 1.858 2.708 1.506 2.058 8.197-1.047 7.323-1.588-.914-.49-1.732-1.13-2.416-1.896a1.97 1.97 0 0 1-.465-1.371c.044-.5.46-.915.985-.957.725 0 1.34.902 2.008.632s.557-.92.464-1.48c-.114-.55-.256-1.09-.427-1.625-.093-.27-.706-1.4-.576-1.59s2.565.45 3.14.488z" class="F"/><path fill="url(#b)" d="M88.667 91.137l-4.523-1.81.436 2.624 4.287 27.137c-2.433 2.366-5.277 4.272-8.393 5.627 2.57-12.42 2.052-25.276-1.508-37.45 0-.235-.127-.453-.2-.688-.7-2.28-1.47-4.523-2.38-6.73 2.235 1.52 4.524 3.02 6.886 4.396 2.564 1.543 5.28 2.822 8.102 3.818 2.57.924 5.28 1.413 8.012 1.447 9.084 0 17.35-5.735 24.926-11.325l7.72-5.68c1.163-.832 2.7-1.954 3.634-1.484-11.6 10.82-25.598 24-31.23 24.2-3.978 0-9.755-1.647-15.77-4.072z" style="mix-blend-mode:overlay" class="D"/><path fill="url(#c)" d="M171.473 16.15l-10.37 29.526a1.83 1.83 0 0 1-2.245 1.284l-37.436-13.633c-.903-.4-1.332-1.463-.978-2.4L130.83 1.34c.13-.47.442-.868.863-1.106a1.8 1.8 0 0 1 1.382-.163l37.467 13.632a1.9 1.9 0 0 1 .93 2.446z"/><path fill="url(#d)" d="M171.47 15.796l-.503 1.408c-.273.958-1.27 1.52-2.237 1.257L131.388 5.124c-.92-.408-1.34-1.472-.944-2.392l.517-1.408c.128-.463.436-.855.856-1.09a1.82 1.82 0 0 1 1.382-.166l37.342 13.337a1.83 1.83 0 0 1 .929 2.392z"/><path fill="url(#e)" d="M125.19 28.497l6.368-18.203c.333-.95 1.373-1.452 2.324-1.12l.022.01 7.525 2.74c.938.342 1.427 1.375 1.097 2.317l-6.38 18.213c-.332.95-1.373 1.452-2.324 1.12l-.024-.01-7.513-2.75c-.937-.344-1.424-1.375-1.095-2.316z"/><path fill="url(#f)" d="M143.416 15.02a.86.86 0 0 1 1.077-.505l10.668 3.617c.42.143.647.6.504 1.02l-.007.02a.85.85 0 0 1-1.072.51l-10.686-3.63a.79.79 0 0 1-.494-1.004l.01-.03z"/><path fill="url(#g)" d="M141.968 20.764a.83.83 0 0 1 1.049-.522l.027.01 20.646 7.743c.448.17.68.664.525 1.116a.84.84 0 0 1-1.065.52l-.02-.008-20.63-7.744a.89.89 0 0 1-.53-1.115zm-1.425 4.275a.83.83 0 0 1 1.049-.522l.027.01 20.646 7.743c.448.17.68.664.525 1.116a.84.84 0 0 1-1.065.52l-.02-.008-20.63-7.744a.89.89 0 0 1-.53-1.115z"/><path fill="url(#h)" d="M139.125 29.28c.154-.43.626-.653 1.056-.5h.001l17.838 6.433c.43.155.654.627.504 1.058s-.614.65-1.04.502l-.007-.003-17.853-6.432a.83.83 0 0 1-.5-1.06z"/><path fill="url(#i)" style="mix-blend-mode:overlay" d="M198.296 16.954l-2.736-1.532h.264z"/><path fill="url(#j)" d="M92.208 87.823c-.778 1.17-1.704 2.227-2.756 3.15l-4.545-1.852-5.165-2.112a71.67 71.67 0 0 1-11.261-5.742c-6.06-5.094 2.372-12.78 6.17-12.78 1.825.222 1.934-.926 4.106.167 4.125 2.056 10.714 7.26 15.843 10.465a13.9 13.9 0 0 1-2.39 8.706z"/><g transform="matrix(1 0 0 -1 127.445 116.85)"><path fill="url(#k)" d="M2.85 6.814L9.784 1.85C12.718-.066 16.527-.25 18.43.214c2.147 1.44 7.757 5.362 10.07 7.386-1.364.238-2.576.238-4.385.66-6.502 1.52-8.798 6.648-9.667 6.972-1.62.604-.934.326-1.912.442-.652.077-3.88-2.877-9.686-8.86z"/><path fill="url(#l)" d="M2.402 4.275C-.163 6.767-.674 8.504.87 9.487c1.66 1.06 6.8 4.2 9.152 5.52 1.527.86 2.937.9 4.228.1-1.685.643-2.772.37-3.263-.82s.185-2.398 2.03-3.627L2.402 4.275z"/></g></g></g></g></svg>