<svg width="32" height="32" viewBox="0 0 32 32" fill="none" xmlns="http://www.w3.org/2000/svg">
  <path
    d="M14.7683 3.46185C15.2471 2.40172 16.7526 2.40171 17.2314 3.46185L17.8077 4.73782C19.7033 8.93502 23.0649 12.2966 27.2621 14.1923L28.5381 14.7685C29.5982 15.2473 29.5982 16.7528 28.5381 17.2316L27.2621 17.8079C23.0649 19.7036 19.7033 23.0651 17.8077 27.2623L17.2314 28.5383C16.7526 29.5984 15.2471 29.5984 14.7683 28.5383L14.192 27.2623C12.2964 23.0651 8.93478 19.7036 4.73757 17.8079L3.4616 17.2316C2.40147 16.7528 2.40147 15.2474 3.4616 14.7685L4.73757 14.1923C8.93478 12.2966 12.2964 8.93502 14.192 4.73782L14.7683 3.46185Z"
    fill="#FEACBA"
  />
</svg>
