<svg width="24" height="24" viewBox="0 0 24 24" fill="none" xmlns="http://www.w3.org/2000/svg">
<path d="M14.1687 0.536692C14.4919 -0.178897 15.5081 -0.178898 15.8313 0.536691L16.2203 1.39797C17.4998 4.23108 19.7689 6.50015 22.602 7.77972L23.4633 8.16871C24.1789 8.49191 24.1789 9.50809 23.4633 9.83129L22.602 10.2203C19.7689 11.4998 17.4998 13.7689 16.2203 16.602L15.8313 17.4633C15.5081 18.1789 14.4919 18.1789 14.1687 17.4633L13.7797 16.602C12.5002 13.7689 10.2311 11.4998 7.39797 10.2203L6.53669 9.83129C5.8211 9.50809 5.8211 8.49191 6.53669 8.16871L7.39797 7.77972C10.2311 6.50015 12.5002 4.23109 13.7797 1.39797L14.1687 0.536692Z" fill="#786EFF"/>
<path d="M4.08436 15.2683C4.24595 14.9106 4.75405 14.9106 4.91564 15.2683L5.11014 15.699C5.74992 17.1155 6.88446 18.2501 8.30101 18.8899L8.73165 19.0844C9.08945 19.246 9.08945 19.754 8.73165 19.9156L8.30101 20.1101C6.88446 20.7499 5.74992 21.8845 5.11014 23.301L4.91564 23.7317C4.75405 24.0894 4.24595 24.0894 4.08436 23.7317L3.88986 23.301C3.25008 21.8845 2.11554 20.7499 0.698986 20.1101L0.268346 19.9156C-0.0894484 19.754 -0.0894489 19.246 0.268346 19.0844L0.698986 18.8899C2.11554 18.2501 3.25008 17.1155 3.88986 15.699L4.08436 15.2683Z" fill="#786EFF"/>
</svg>
