<svg width="301" height="37" viewBox="0 0 301 37" fill="none" xmlns="http://www.w3.org/2000/svg">
<path d="M227.793 12.6166C229.554 12.6166 230.932 13.1467 231.929 14.2071C232.947 15.2462 233.456 16.6988 233.456 18.565V29.3485H229.861V19.4238C229.861 18.2575 229.543 17.335 228.907 16.6564C228.271 15.9778 227.422 15.6385 226.362 15.6385C225.026 15.6385 223.923 16.0732 223.054 16.9427C222.206 17.8122 221.781 18.9361 221.781 20.3145V29.3485H218.187V13.1573H221.304L221.75 15.8294H221.781C223.16 13.6875 225.164 12.6166 227.793 12.6166Z" fill="#192833"/>
<path d="M208.326 29.9844C206.545 29.9844 204.944 29.6133 203.523 28.871C202.102 28.1076 200.989 27.0579 200.183 25.7219C199.398 24.3647 199.006 22.8378 199.006 21.1413C199.006 19.466 199.367 17.9815 200.088 16.6879C200.809 15.3731 201.805 14.3552 203.078 13.6342C204.371 12.892 205.845 12.5209 207.499 12.5209C209.111 12.5209 210.532 12.8814 211.762 13.6024C212.992 14.3234 213.946 15.3201 214.625 16.5925C215.303 17.8649 215.643 19.3175 215.643 20.9504C215.643 21.523 215.6 21.979 215.515 22.3183H202.728C202.876 23.7603 203.47 24.9266 204.509 25.8173C205.57 26.708 206.874 27.1533 208.422 27.1533C209.546 27.1533 210.574 26.9095 211.507 26.4217C212.462 25.9127 213.183 25.2659 213.67 24.4813L216.056 25.9446C215.484 27.1533 214.487 28.1288 213.066 28.871C211.666 29.6133 210.086 29.9844 208.326 29.9844ZM211.953 19.8689C211.825 18.4481 211.359 17.3453 210.553 16.5607C209.768 15.7549 208.75 15.3519 207.499 15.3519C206.227 15.3519 205.156 15.7761 204.287 16.6243C203.417 17.4514 202.897 18.5329 202.728 19.8689H211.953Z" fill="#192833"/>
<path d="M184.43 30.1117C182.225 30.1117 180.253 29.6028 178.514 28.5849C176.796 27.5457 175.449 26.1143 174.474 24.2906C173.498 22.4668 173.01 20.3992 173.01 18.0877C173.01 15.755 173.509 13.6767 174.506 11.853C175.502 10.008 176.881 8.57658 178.641 7.55867C180.422 6.51956 182.447 6 184.716 6C186.265 6 187.717 6.30749 189.074 6.92248C190.453 7.51626 191.63 8.35391 192.605 9.43544C193.581 10.4958 194.281 11.7151 194.705 13.0936L191.015 14.016C190.569 12.68 189.764 11.5879 188.597 10.7396C187.431 9.89138 186.127 9.46725 184.685 9.46725C183.2 9.46725 181.864 9.83837 180.677 10.5806C179.51 11.3016 178.598 12.3195 177.941 13.6343C177.284 14.9491 176.955 16.4336 176.955 18.0877C176.955 19.763 177.305 21.258 178.005 22.5728C178.726 23.8876 179.712 24.9161 180.963 25.6584C182.214 26.4006 183.635 26.7717 185.225 26.7717C186.646 26.7717 187.94 26.4642 189.106 25.8492C190.294 25.213 191.227 24.3542 191.905 23.2726C192.605 22.1699 192.966 20.9399 192.987 19.5827H181.79V16.7517H196.9V29.3483H193.846L193.464 25.054H193.432C192.563 26.6445 191.343 27.8851 189.774 28.7757C188.205 29.6664 186.424 30.1117 184.43 30.1117Z" fill="#192833"/>
<path d="M165.991 29.9845C164.273 29.9845 162.895 29.4861 161.856 28.4894C160.838 27.4927 160.329 26.1673 160.329 24.5132V15.9882H157.021V13.1572H160.329V8.54475L163.923 7.74951L163.892 13.1572H170.762V15.9882H163.892L163.923 24.0361C163.923 24.9267 164.167 25.6478 164.655 26.1991C165.164 26.7505 165.821 27.0262 166.627 27.0262C167.412 27.0262 168.101 26.7929 168.695 26.3264C169.289 25.8598 169.723 25.1918 169.999 24.3223L171.749 26.1991C171.367 27.3443 170.635 28.2668 169.554 28.9666C168.472 29.6452 167.285 29.9845 165.991 29.9845Z" fill="#192833"/>
<path d="M150.444 12.6166C152.204 12.6166 153.582 13.1467 154.579 14.2071C155.597 15.2462 156.106 16.6988 156.106 18.565V29.3485H152.511V19.4238C152.511 18.2575 152.193 17.335 151.557 16.6564C150.921 15.9778 150.073 15.6385 149.012 15.6385C147.676 15.6385 146.573 16.0732 145.704 16.9427C144.856 17.8122 144.432 18.9361 144.432 20.3145V29.3485H140.837V13.1573H143.955L144.4 15.8294H144.432C145.81 13.6875 147.814 12.6166 150.444 12.6166Z" fill="#192833"/>
<path d="M130.977 29.9844C129.195 29.9844 127.594 29.6133 126.173 28.871C124.753 28.1076 123.639 27.0579 122.833 25.7219C122.049 24.3647 121.656 22.8378 121.656 21.1413C121.656 19.466 122.017 17.9815 122.738 16.6879C123.459 15.3731 124.456 14.3552 125.728 13.6342C127.022 12.892 128.496 12.5209 130.15 12.5209C131.761 12.5209 133.182 12.8814 134.412 13.6024C135.642 14.3234 136.596 15.3201 137.275 16.5925C137.954 17.8649 138.293 19.3175 138.293 20.9504C138.293 21.523 138.251 21.979 138.166 22.3183H125.378C125.527 23.7603 126.12 24.9266 127.16 25.8173C128.22 26.708 129.524 27.1533 131.072 27.1533C132.196 27.1533 133.225 26.9095 134.158 26.4217C135.112 25.9127 135.833 25.2659 136.321 24.4813L138.706 25.9446C138.134 27.1533 137.137 28.1288 135.716 28.871C134.317 29.6133 132.737 29.9844 130.977 29.9844ZM134.603 19.8689C134.476 18.4481 134.009 17.3453 133.203 16.5607C132.419 15.7549 131.401 15.3519 130.15 15.3519C128.877 15.3519 127.806 15.7761 126.937 16.6243C126.067 17.4514 125.548 18.5329 125.378 19.8689H134.603Z" fill="#192833"/>
<path d="M94.0857 29.3485V13.1573H97.044L97.5211 15.8294H97.5529C98.0407 14.8326 98.7723 14.048 99.7478 13.4754C100.745 12.9029 101.89 12.6166 103.183 12.6166C104.434 12.6166 105.484 12.9135 106.332 13.5072C107.181 14.0798 107.796 14.9175 108.177 16.0202H108.209C108.867 14.8963 109.704 14.048 110.722 13.4754C111.761 12.9029 112.917 12.6166 114.189 12.6166C115.865 12.6166 117.169 13.1467 118.102 14.2071C119.056 15.2462 119.533 16.6988 119.533 18.565V29.3485H115.939V19.1376C115.939 18.0772 115.653 17.2502 115.08 16.6564C114.508 16.0414 113.702 15.7339 112.663 15.7339C111.411 15.7339 110.415 16.1687 109.672 17.0381C108.951 17.8864 108.591 19.0103 108.591 20.4099V29.3485H105.028V19.1376C105.028 18.0772 104.742 17.2502 104.169 16.6564C103.597 16.0414 102.791 15.7339 101.752 15.7339C100.479 15.7339 99.4827 16.1687 98.7617 17.0381C98.0407 17.8864 97.6802 19.0103 97.6802 20.4099V29.3485H94.0857Z" fill="#192833"/>
<path d="M84.2251 29.9844C82.4438 29.9844 80.8427 29.6133 79.4219 28.871C78.0011 28.1076 76.8877 27.0579 76.0819 25.7219C75.2972 24.3647 74.9049 22.8378 74.9049 21.1413C74.9049 19.466 75.2654 17.9815 75.9864 16.6879C76.7075 15.3731 77.7042 14.3552 78.9765 13.6342C80.2701 12.892 81.744 12.5209 83.3981 12.5209C85.0098 12.5209 86.4306 12.8814 87.6606 13.6024C88.8906 14.3234 89.8448 15.3201 90.5235 16.5925C91.2021 17.8649 91.5414 19.3175 91.5414 20.9504C91.5414 21.523 91.4989 21.979 91.4141 22.3183H78.6266C78.7751 23.7603 79.3689 24.9266 80.408 25.8173C81.4683 26.708 82.7725 27.1533 84.3206 27.1533C85.4445 27.1533 86.473 26.9095 87.4061 26.4217C88.3604 25.9127 89.0814 25.2659 89.5692 24.4813L91.9549 25.9446C91.3823 27.1533 90.3856 28.1288 88.9648 28.871C87.5652 29.6133 85.9853 29.9844 84.2251 29.9844ZM87.8514 19.8689C87.7242 18.4481 87.2577 17.3453 86.4518 16.5607C85.6672 15.7549 84.6493 15.3519 83.3981 15.3519C82.1257 15.3519 81.0548 15.7761 80.1853 16.6243C79.3159 17.4514 78.7963 18.5329 78.6266 19.8689H87.8514Z" fill="#192833"/>
<path d="M65.6486 29.9844C63.8673 29.9844 62.2662 29.6133 60.8453 28.871C59.4245 28.1076 58.3112 27.0579 57.5053 25.7219C56.7207 24.3647 56.3284 22.8378 56.3284 21.1413C56.3284 19.466 56.6889 17.9815 57.4099 16.6879C58.1309 15.3731 59.1276 14.3552 60.4 13.6342C61.6936 12.892 63.1674 12.5209 64.8216 12.5209C66.4332 12.5209 67.8541 12.8814 69.084 13.6024C70.314 14.3234 71.2683 15.3201 71.9469 16.5925C72.6255 17.8649 72.9648 19.3175 72.9648 20.9504C72.9648 21.523 72.9224 21.979 72.8376 22.3183H60.0501C60.1985 23.7603 60.7923 24.9266 61.8314 25.8173C62.8918 26.708 64.196 27.1533 65.744 27.1533C66.868 27.1533 67.8965 26.9095 68.8296 26.4217C69.7839 25.9127 70.5049 25.2659 70.9926 24.4813L73.3784 25.9446C72.8058 27.1533 71.8091 28.1288 70.3882 28.871C68.9886 29.6133 67.4087 29.9844 65.6486 29.9844ZM69.2749 19.8689C69.1477 18.4481 68.6811 17.3453 67.8753 16.5607C67.0906 15.7549 66.0727 15.3519 64.8216 15.3519C63.5492 15.3519 62.4782 15.7761 61.6088 16.6243C60.7393 17.4514 60.2198 18.5329 60.0501 19.8689H69.2749Z" fill="#192833"/>
<path d="M50.3877 12.585C51.7873 12.585 52.9325 13.0515 53.8231 13.9846C54.7138 14.9177 55.244 16.2325 55.4136 17.929L52.3599 18.8197C52.2751 17.7593 51.9782 16.9429 51.4692 16.3703C50.9815 15.7977 50.3347 15.5115 49.5288 15.5115C48.4049 15.5115 47.5248 15.9568 46.8886 16.8475C46.2524 17.7381 45.9343 18.9575 45.9343 20.5056V29.3487H42.3398V13.1575H45.2663L45.7435 15.7659H45.7753C46.2206 14.7692 46.8462 13.9952 47.6521 13.4438C48.4579 12.8712 49.3698 12.585 50.3877 12.585Z" fill="#192833"/>
<path d="M29.9865 36.6639C28.184 36.6639 26.4981 36.3246 24.9288 35.646C23.3595 34.9886 22.1507 34.0979 21.3025 32.974L23.0838 30.3974C23.7624 31.3729 24.7061 32.1469 25.9149 32.7195C27.1237 33.3133 28.4067 33.6102 29.7639 33.6102C31.5876 33.6102 33.0509 33.08 34.1536 32.0197C35.2775 30.9806 35.8395 29.5915 35.8395 27.8526V26.2939H35.8077C35.2351 27.2482 34.3975 28.0117 33.2947 28.5842C32.2132 29.1356 31.0999 29.4113 29.9547 29.4113C28.4703 29.4113 27.1449 29.072 25.9785 28.3934C24.8334 27.6936 23.9427 26.7181 23.3065 25.4669C22.6703 24.1945 22.3522 22.7419 22.3522 21.109C22.3522 19.4336 22.6703 17.9598 23.3065 16.6874C23.9427 15.3938 24.8228 14.3971 25.9467 13.6973C27.0919 12.9975 28.4067 12.6476 29.8911 12.6476C31.0787 12.6476 32.2132 12.9657 33.2947 13.6019C34.3975 14.2169 35.2457 15.0227 35.8395 16.0194H35.8713L36.3485 13.1565H39.434V27.9162C39.434 29.6764 39.0417 31.2138 38.257 32.5286C37.4936 33.8646 36.3909 34.8825 34.9488 35.5824C33.528 36.3034 31.8739 36.6639 29.9865 36.6639ZM30.9726 26.3894C31.9481 26.3894 32.8176 26.1667 33.581 25.7214C34.3445 25.2548 34.9382 24.6186 35.3624 23.8128C35.7865 23.0069 35.9986 22.1057 35.9986 21.109C35.9986 20.0698 35.7865 19.1368 35.3624 18.3097C34.9382 17.4827 34.3445 16.8359 33.581 16.3693C32.8176 15.9028 31.9481 15.6695 30.9726 15.6695C29.467 15.6695 28.2476 16.1785 27.3145 17.1964C26.3814 18.1931 25.9149 19.4973 25.9149 21.109C25.9149 22.6782 26.3814 23.9506 27.3145 24.9261C28.2688 25.9016 29.4882 26.3894 30.9726 26.3894Z" fill="#192833"/>
<path d="M4.66707 29.3477H0.5L8.96137 6.79468H13.7964L22.1942 29.3477H18.0271L16.2776 24.4172H6.44841L4.66707 29.3477ZM11.3471 10.2301L7.30727 21.3317H15.3869L11.4107 10.2301H11.3471Z" fill="#192833"/>
<path d="M248.366 25.7185H247.306L251.359 14.4645H252.45L256.502 25.7185H255.442L251.951 15.805H251.868L248.376 25.7185H248.366ZM249.124 21.3956H254.642V22.3205H249.124V21.3956Z" fill="#192833"/>
<path d="M259.184 14.4644V25.7184H258.165V14.4644H259.184Z" fill="#192833"/>
<path d="M265.98 25.7184V14.4644H266.956V18.8912H267.04C267.144 18.6314 267.299 18.382 267.507 18.1118C267.715 17.852 267.985 17.6234 268.318 17.4467C268.65 17.2701 269.076 17.1765 269.586 17.1765C270.271 17.1765 270.874 17.3636 271.383 17.7169C271.892 18.0806 272.308 18.5898 272.589 19.2445C272.88 19.8991 273.025 20.6577 273.025 21.5202C273.025 22.3827 272.88 23.1517 272.589 23.8064C272.298 24.461 271.903 24.9806 271.383 25.3339C270.874 25.708 270.271 25.8743 269.586 25.8743C269.076 25.8743 268.65 25.7911 268.318 25.6041C267.975 25.417 267.705 25.1988 267.497 24.9286C267.289 24.6585 267.133 24.3987 267.019 24.1389H266.894V25.708H265.959L265.98 25.7184ZM266.936 21.4994C266.936 22.1749 267.04 22.788 267.237 23.3076C267.435 23.8271 267.725 24.2532 268.11 24.5442C268.494 24.8455 268.941 24.991 269.482 24.991C270.022 24.991 270.51 24.8351 270.895 24.5234C271.279 24.2116 271.57 23.796 271.778 23.266C271.976 22.736 272.08 22.1437 272.08 21.489C272.08 20.8344 271.986 20.2524 271.778 19.7433C271.581 19.2237 271.29 18.808 270.905 18.5067C270.521 18.1949 270.053 18.0494 269.492 18.0494C268.931 18.0494 268.494 18.1949 268.11 18.4859C267.736 18.7872 267.445 19.1925 267.237 19.7121C267.029 20.2317 266.936 20.8344 266.936 21.4994Z" fill="#192833"/>
<path d="M278.325 25.8947C277.546 25.8947 276.87 25.7076 276.309 25.3439C275.748 24.9802 275.301 24.4606 274.989 23.8164C274.688 23.1617 274.532 22.4135 274.532 21.551C274.532 20.6885 274.688 19.9507 274.989 19.2856C275.291 18.6206 275.727 18.1114 276.278 17.7269C276.829 17.3528 277.462 17.1658 278.19 17.1658C278.647 17.1658 279.084 17.2489 279.499 17.4152C279.915 17.5814 280.299 17.8412 280.632 18.1841C280.975 18.5271 281.235 18.9635 281.422 19.4727C281.609 19.9923 281.723 20.6054 281.723 21.312V21.8004H275.197V20.9379H280.736C280.736 20.3975 280.632 19.9091 280.414 19.4727C280.195 19.0466 279.904 18.6933 279.52 18.4439C279.135 18.1841 278.689 18.0698 278.2 18.0698C277.67 18.0698 277.213 18.2153 276.808 18.4959C276.402 18.7869 276.091 19.1506 275.873 19.6286C275.644 20.0962 275.53 20.6158 275.519 21.1665V21.6861C275.519 22.3512 275.634 22.9435 275.873 23.4319C276.112 23.9203 276.434 24.3255 276.86 24.5957C277.286 24.8659 277.785 25.0114 278.366 25.0114C278.761 25.0114 279.104 24.949 279.416 24.8243C279.717 24.6996 279.967 24.5334 280.175 24.3255C280.382 24.1177 280.528 23.8891 280.632 23.6293L281.557 23.9307C281.422 24.284 281.224 24.6165 280.933 24.9179C280.642 25.2192 280.289 25.4582 279.852 25.6349C279.426 25.8219 278.928 25.9051 278.377 25.9051H278.346L278.325 25.8947Z" fill="#192833"/>
<path d="M286.887 17.2792V18.1313H282.897V17.2792H286.887ZM284.144 15.2528H285.121V23.5037C285.121 23.857 285.183 24.1272 285.308 24.335C285.433 24.5325 285.588 24.6779 285.775 24.7611C285.962 24.8442 286.181 24.8858 286.399 24.8858C286.534 24.8858 286.638 24.8858 286.721 24.8546C286.804 24.8338 286.898 24.8234 286.96 24.8026L287.168 25.6963C287.074 25.7275 286.96 25.769 286.815 25.8002C286.68 25.8314 286.513 25.8418 286.305 25.8418C285.952 25.8418 285.609 25.7587 285.277 25.6028C284.944 25.4469 284.674 25.2079 284.466 24.8962C284.258 24.5844 284.154 24.1999 284.154 23.7323V15.2528H284.144Z" fill="#192833"/>
<path d="M291.19 25.8952C290.68 25.8952 290.223 25.8016 289.808 25.5938C289.392 25.3964 289.059 25.1054 288.81 24.7209C288.561 24.3364 288.446 23.8896 288.446 23.3389C288.446 22.9232 288.529 22.5699 288.685 22.2789C288.841 21.988 289.059 21.7593 289.35 21.5723C289.641 21.3852 289.974 21.2502 290.369 21.1462C290.764 21.0423 291.19 20.9592 291.668 20.8968C292.135 20.8345 292.53 20.7929 292.852 20.7514C293.174 20.7098 293.424 20.6371 293.59 20.5435C293.756 20.45 293.84 20.2941 293.84 20.0863V19.8889C293.84 19.3173 293.673 18.8601 293.33 18.5276C292.987 18.195 292.499 18.0392 291.865 18.0392C291.262 18.0392 290.774 18.1743 290.39 18.4444C290.005 18.7042 289.745 19.0264 289.6 19.3901L288.675 19.0575C288.862 18.6003 289.132 18.2262 289.454 17.9456C289.787 17.6651 290.161 17.4676 290.577 17.3429C290.982 17.2182 291.418 17.1559 291.834 17.1559C292.156 17.1559 292.489 17.1974 292.831 17.2806C293.185 17.3637 293.497 17.5092 293.798 17.717C294.089 17.9249 294.338 18.2054 294.525 18.5795C294.712 18.9536 294.806 19.4108 294.806 19.9824V25.7081H293.84V24.3676H293.777C293.663 24.617 293.486 24.856 293.268 25.0846C293.039 25.3132 292.759 25.5107 292.405 25.6666C292.052 25.812 291.657 25.8952 291.2 25.8952H291.19ZM291.325 25.0119C291.834 25.0119 292.281 24.8976 292.665 24.669C293.039 24.4404 293.341 24.1286 293.538 23.7441C293.736 23.3596 293.84 22.944 293.84 22.4764V21.2502C293.767 21.3229 293.652 21.3852 293.476 21.4372C293.31 21.4892 293.112 21.5411 292.894 21.5827C292.676 21.6242 292.457 21.6658 292.239 21.6866C292.021 21.7178 291.834 21.7386 291.657 21.7697C291.19 21.8321 290.784 21.9152 290.452 22.0399C290.119 22.1646 289.86 22.3413 289.683 22.5491C289.506 22.7673 289.413 23.0479 289.413 23.3804C289.413 23.8896 289.6 24.2845 289.953 24.5651C290.317 24.8456 290.774 24.9911 291.325 24.9911V25.0119Z" fill="#192833"/>
<path d="M296.967 9.23793C298.692 9.23793 300.084 10.6408 300.084 12.3554V27.818C300.084 29.543 298.681 30.9355 296.967 30.9355H245.196C243.471 30.9355 242.079 29.5326 242.079 27.818V12.3554C242.079 10.6304 243.482 9.23793 245.196 9.23793H296.967ZM296.967 8.82227H245.196C243.243 8.82227 241.663 10.4018 241.663 12.3554V27.818C241.663 29.7716 243.243 31.3511 245.196 31.3511H296.967C298.921 31.3511 300.5 29.7716 300.5 27.818V12.3554C300.5 10.4018 298.921 8.82227 296.967 8.82227Z" fill="#192833"/>
</svg>
