<svg width="25" height="24" viewBox="0 0 25 24" fill="none" xmlns="http://www.w3.org/2000/svg">
<path d="M17.4409 7.37393L19.0288 5.78043C19.7066 5.10256 20.8121 5.10259 21.49 5.7804L22.6735 6.96399C23.3514 7.64182 23.3514 8.74737 22.6735 9.42522C22.1463 9.95248 21.6191 10.4798 21.092 11.0072L17.4409 7.37393Z" fill="#74D6F1"/>
<path d="M16.5413 8.27673L6.40349 18.4508C6.31646 18.5381 6.25663 18.6488 6.23127 18.7695L5.52543 22.1276C5.52131 22.1473 5.51811 22.167 5.51586 22.1869L5.50406 22.291C5.48098 22.4946 5.55722 22.6969 5.70896 22.8346C5.86069 22.9723 6.0694 23.0287 6.26983 22.9861L9.72016 22.2521C9.84086 22.2264 9.95152 22.1663 10.0387 22.0789C13.4227 18.6871 16.8057 15.2967 20.1911 11.9087L16.5413 8.27673ZM7.65501 19L9.48459 20.8296L8.30725 21.2497L7.23718 20.1796L7.65501 19Z" fill="#74D6F1"/>
<path d="M5.07832 1C3.20861 1 1.5 2.32092 1.5 4.14157V7.18661C1.5 9.00745 3.20949 10.3282 5.07832 10.3282H6.82718L9.58972 12.6804C9.77891 12.8415 10.0445 12.878 10.2701 12.7738C10.4957 12.6696 10.6401 12.4437 10.6401 12.1953V10.3282C12.5069 10.3248 14.2113 9.00585 14.2113 7.18661V4.14155C14.2112 2.32 12.5024 1 10.6329 1H5.07832ZM4.25049 5.66411C4.25049 5.12267 4.68941 4.68375 5.23085 4.68375C5.7723 4.68375 6.21182 5.12267 6.21182 5.66411C6.21182 6.20555 5.7729 6.64448 5.23146 6.64448C4.69002 6.64448 4.25049 6.20555 4.25049 5.66411ZM7.85554 4.68375H7.85682C8.39826 4.68375 8.83719 5.12267 8.83719 5.66411C8.83719 6.20555 8.39826 6.64448 7.85682 6.64448H7.85554C7.31409 6.64448 6.87517 6.20555 6.87517 5.66411C6.87517 5.12267 7.31409 4.68375 7.85554 4.68375ZM9.49985 5.66411C9.49985 5.12267 9.93878 4.68375 10.4802 4.68375C11.0217 4.68375 11.4612 5.12267 11.4612 5.66411C11.4612 6.20555 11.0222 6.64448 10.4808 6.64448C9.93936 6.64448 9.49985 6.20555 9.49985 5.66411Z" fill="#74D6F1"/>
</svg>
