<svg width="24" height="24" viewBox="0 0 24 24" fill="none" xmlns="http://www.w3.org/2000/svg">
<path d="M16.9409 7.37393L18.5288 5.78043C19.2066 5.10256 20.3121 5.10259 20.99 5.7804L22.1735 6.96399C22.8514 7.64182 22.8514 8.74737 22.1735 9.42522C21.6463 9.95248 21.1191 10.4798 20.592 11.0072L16.9409 7.37393Z" fill="#087191"/>
<path d="M16.0413 8.27673L5.90349 18.4508C5.81646 18.5381 5.75663 18.6488 5.73127 18.7695L5.02543 22.1276C5.02131 22.1473 5.01811 22.167 5.01586 22.1869L5.00406 22.291C4.98098 22.4946 5.05722 22.6969 5.20896 22.8346C5.36069 22.9723 5.5694 23.0287 5.76983 22.9861L9.22016 22.2521C9.34086 22.2264 9.45152 22.1663 9.53868 22.0789C12.9227 18.6871 16.3057 15.2967 19.6911 11.9087L16.0413 8.27673ZM7.15501 19L8.98459 20.8296L7.80725 21.2497L6.73718 20.1796L7.15501 19Z" fill="#087191"/>
<path d="M4.57832 1C2.70861 1 1 2.32092 1 4.14157V7.18661C1 9.00745 2.70949 10.3282 4.57832 10.3282H6.32718L9.08972 12.6804C9.27891 12.8415 9.54449 12.878 9.77007 12.7738C9.99565 12.6696 10.1401 12.4437 10.1401 12.1953V10.3282C12.0069 10.3248 13.7113 9.00585 13.7113 7.18661V4.14155C13.7112 2.32 12.0024 1 10.1329 1H4.57832ZM3.75049 5.66411C3.75049 5.12267 4.18941 4.68375 4.73085 4.68375C5.2723 4.68375 5.71182 5.12267 5.71182 5.66411C5.71182 6.20555 5.2729 6.64448 4.73146 6.64448C4.19002 6.64448 3.75049 6.20555 3.75049 5.66411ZM7.35554 4.68375H7.35682C7.89826 4.68375 8.33719 5.12267 8.33719 5.66411C8.33719 6.20555 7.89826 6.64448 7.35682 6.64448H7.35554C6.81409 6.64448 6.37517 6.20555 6.37517 5.66411C6.37517 5.12267 6.81409 4.68375 7.35554 4.68375ZM8.99985 5.66411C8.99985 5.12267 9.43878 4.68375 9.98022 4.68375C10.5217 4.68375 10.9612 5.12267 10.9612 5.66411C10.9612 6.20555 10.5222 6.64448 9.98081 6.64448C9.43936 6.64448 8.99985 6.20555 8.99985 5.66411Z" fill="#087191"/>
</svg>
