<svg width="25" height="24" viewBox="0 0 25 24" fill="none" xmlns="http://www.w3.org/2000/svg">
<path d="M7.85551 4.68373C7.31406 4.68373 6.87514 5.12266 6.87514 5.6641C6.87514 6.20554 7.31406 6.64447 7.85551 6.64447H7.85679C8.39823 6.64447 8.83716 6.20554 8.83716 5.6641C8.83716 5.12266 8.39823 4.68373 7.85679 4.68373H7.85551Z" fill="#BCCFDC"/>
<path d="M4.25046 5.6641C4.25046 5.12266 4.68938 4.68373 5.23082 4.68373C5.77227 4.68373 6.21179 5.12266 6.21179 5.6641C6.21179 6.20554 5.77287 6.64447 5.23143 6.64447C4.68999 6.64447 4.25046 6.20554 4.25046 5.6641Z" fill="#BCCFDC"/>
<path d="M10.4802 4.68373C9.93875 4.68373 9.49982 5.12266 9.49982 5.6641C9.49982 6.20554 9.93933 6.64447 10.4808 6.64447C11.0222 6.64447 11.4611 6.20554 11.4611 5.6641C11.4611 5.12266 11.0216 4.68373 10.4802 4.68373Z" fill="#BCCFDC"/>
<path d="M1.5 4.14157C1.5 2.32092 3.20861 1 5.07832 1H10.6329C12.5024 1 14.2112 2.32 14.2113 4.14155V7.18661C14.2113 9.00585 12.5069 10.3248 10.6401 10.3282V12.1953C10.6401 12.4437 10.4957 12.6696 10.2701 12.7738C10.0445 12.878 9.77891 12.8415 9.58972 12.6804L6.82718 10.3282H5.07832C3.20949 10.3282 1.5 9.00745 1.5 7.18661V4.14157ZM5.07832 2.27448C3.71292 2.27448 2.77448 3.20901 2.77448 4.14157V7.18661C2.77448 8.11914 3.71355 9.0537 5.07832 9.0537H7.06173C7.21313 9.0537 7.35958 9.1076 7.47485 9.20576L9.36561 10.8157V9.69094C9.36561 9.339 9.65091 9.0537 10.0028 9.0537H10.633C11.9985 9.0537 12.9368 8.11985 12.9368 7.18661V4.14159C12.9368 3.20834 11.9984 2.27448 10.6329 2.27448H5.07832Z" fill="#BCCFDC"/>
<path d="M19.3468 5.78044L6.72155 18.4508C6.63452 18.5381 6.5747 18.6488 6.54934 18.7695L5.84349 22.1277C5.83937 22.1473 5.83618 22.1671 5.83392 22.187L5.82212 22.291C5.79904 22.4946 5.87529 22.6969 6.02702 22.8346C6.17875 22.9724 6.38746 23.0287 6.58789 22.9861L10.0382 22.2521C10.1589 22.2265 10.2696 22.1663 10.3567 22.0789C14.5678 17.8582 18.7771 13.6397 22.9916 9.42523C23.6695 8.74739 23.6695 7.64184 22.9916 6.964L21.808 5.78042C21.1302 5.1026 20.0247 5.10257 19.3468 5.78044ZM8.07556 18.8975L17.7622 9.17994L19.6087 11.0077C16.7065 13.9128 12.8061 17.8196 9.90514 20.7271L8.07556 18.8975ZM18.6617 8.27713L20.248 6.68163C20.4282 6.50198 20.7268 6.50166 20.9069 6.68165L22.0904 7.86524C22.2705 8.04532 22.2706 8.34388 22.0904 8.52404C21.2299 9.38457 21.3696 9.24525 20.5094 10.1061L18.6617 8.27713ZM8.62533 21.2497L7.26975 21.538L7.55527 20.1796L8.62533 21.2497Z" fill="#BCCFDC"/>
</svg>
