<svg width="24" height="24" viewBox="0 0 24 24" fill="none" xmlns="http://www.w3.org/2000/svg">
<path d="M7.35551 4.68373C6.81406 4.68373 6.37514 5.12266 6.37514 5.6641C6.37514 6.20554 6.81406 6.64447 7.35551 6.64447H7.35679C7.89823 6.64447 8.33716 6.20554 8.33716 5.6641C8.33716 5.12266 7.89823 4.68373 7.35679 4.68373H7.35551Z" fill="#325167"/>
<path d="M3.75046 5.6641C3.75046 5.12266 4.18938 4.68373 4.73082 4.68373C5.27227 4.68373 5.71179 5.12266 5.71179 5.6641C5.71179 6.20554 5.27287 6.64447 4.73143 6.64447C4.18999 6.64447 3.75046 6.20554 3.75046 5.6641Z" fill="#325167"/>
<path d="M9.98019 4.68373C9.43875 4.68373 8.99982 5.12266 8.99982 5.6641C8.99982 6.20554 9.43933 6.64447 9.98078 6.64447C10.5222 6.64447 10.9611 6.20554 10.9611 5.6641C10.9611 5.12266 10.5216 4.68373 9.98019 4.68373Z" fill="#325167"/>
<path d="M1 4.14157C1 2.32092 2.70861 1 4.57832 1H10.1329C12.0024 1 13.7112 2.32 13.7113 4.14155V7.18661C13.7113 9.00585 12.0069 10.3248 10.1401 10.3282V12.1953C10.1401 12.4437 9.99565 12.6696 9.77007 12.7738C9.54449 12.878 9.27891 12.8415 9.08972 12.6804L6.32718 10.3282H4.57832C2.70949 10.3282 1 9.00745 1 7.18661V4.14157ZM4.57832 2.27448C3.21292 2.27448 2.27448 3.20901 2.27448 4.14157V7.18661C2.27448 8.11914 3.21355 9.0537 4.57832 9.0537H6.56173C6.71313 9.0537 6.85958 9.1076 6.97485 9.20576L8.86561 10.8157V9.69094C8.86561 9.339 9.15091 9.0537 9.50285 9.0537H10.133C11.4985 9.0537 12.4368 8.11985 12.4368 7.18661V4.14159C12.4368 3.20834 11.4984 2.27448 10.1329 2.27448H4.57832Z" fill="#325167"/>
<path d="M18.8468 5.78044L6.22155 18.4508C6.13452 18.5381 6.0747 18.6488 6.04934 18.7695L5.34349 22.1277C5.33937 22.1473 5.33618 22.1671 5.33392 22.187L5.32212 22.291C5.29904 22.4946 5.37529 22.6969 5.52702 22.8346C5.67875 22.9724 5.88746 23.0287 6.08789 22.9861L9.53822 22.2521C9.65893 22.2265 9.76958 22.1663 9.85675 22.0789C14.0678 17.8582 18.2771 13.6397 22.4916 9.42523C23.1695 8.74739 23.1695 7.64184 22.4916 6.964L21.308 5.78042C20.6302 5.1026 19.5247 5.10257 18.8468 5.78044ZM7.57556 18.8975L17.2622 9.17994L19.1087 11.0077C16.2065 13.9128 12.3061 17.8196 9.40514 20.7271L7.57556 18.8975ZM18.1617 8.27713L19.748 6.68163C19.9282 6.50198 20.2268 6.50166 20.4069 6.68165L21.5904 7.86524C21.7705 8.04532 21.7706 8.34388 21.5904 8.52404C20.7299 9.38457 20.8696 9.24525 20.0094 10.1061L18.1617 8.27713ZM8.12533 21.2497L6.76975 21.538L7.05527 20.1796L8.12533 21.2497Z" fill="#325167"/>
</svg>
