<svg width="38" height="24" viewBox="0 0 38 24" fill="none" xmlns="http://www.w3.org/2000/svg">
<g clip-path="url(#clip0_3480_2334)">
<path d="M34.1308 0H3.35656C3.22839 0 3.1 0 2.97205 0.000747416C2.8639 0.00151748 2.756 0.00271788 2.6481 0.00566224C2.41278 0.0120266 2.17544 0.0259104 1.94306 0.0676751C1.70697 0.110165 1.48728 0.17947 1.27295 0.288593C1.06225 0.395745 0.869345 0.535897 0.702175 0.703137C0.534933 0.870377 0.394781 1.06296 0.287651 1.27389C0.178506 1.48822 0.109155 1.70798 0.0669599 1.94426C0.024971 2.1767 0.0109943 2.41399 0.0046526 2.64907C0.00175353 2.75697 0.0005101 2.86487 -0.000194282 2.97274C-0.000941698 3.10096 -0.00069256 3.22909 -0.00069256 3.35753V20.6427C-0.00069256 20.7712 -0.000941698 20.8991 -0.000194282 21.0275C0.0005101 21.1354 0.00175353 21.2433 0.0046526 21.3512C0.0109943 21.5861 0.024971 21.8234 0.0669599 22.0557C0.109155 22.2921 0.178506 22.5118 0.287651 22.7261C0.394781 22.9371 0.534933 23.1299 0.702175 23.2969C0.869345 23.4644 1.06225 23.6045 1.27295 23.7114C1.48728 23.8208 1.70697 23.8902 1.94306 23.9326C2.17544 23.9741 2.41278 23.9882 2.6481 23.9946C2.756 23.9971 2.8639 23.9985 2.97205 23.999C3.1 24 3.22839 24 3.35656 24H34.1308C34.2588 24 34.3872 24 34.5151 23.999C34.623 23.9985 34.7309 23.9971 34.8393 23.9946C35.0741 23.9882 35.3114 23.9741 35.5443 23.9326C35.7801 23.8902 35.9999 23.8208 36.2142 23.7114C36.4251 23.6045 36.6175 23.4644 36.785 23.2969C36.952 23.1299 37.0921 22.9371 37.1995 22.7261C37.3089 22.5118 37.3782 22.2921 37.4202 22.0557C37.4622 21.8234 37.4758 21.5861 37.4822 21.3512C37.4851 21.2433 37.4866 21.1354 37.4871 21.0275C37.4881 20.8991 37.4881 20.7712 37.4881 20.6427V3.35753C37.4881 3.22909 37.4881 3.10096 37.4871 2.97274C37.4866 2.86487 37.4851 2.75697 37.4822 2.64907C37.4758 2.41399 37.4622 2.1767 37.4202 1.94426C37.3782 1.70798 37.3089 1.48822 37.1995 1.27389C37.0921 1.06296 36.952 0.870377 36.785 0.703137C36.6175 0.535897 36.4251 0.395745 36.2142 0.288593C35.9999 0.17947 35.7801 0.110165 35.5443 0.0676751C35.3114 0.0259104 35.0741 0.0120266 34.8393 0.00566224C34.7309 0.00271788 34.623 0.00151748 34.5151 0.000747416C34.3872 0 34.2588 0 34.1308 0Z" fill="black"/>
<path d="M34.1309 0.800049L34.5095 0.800774C34.612 0.801498 34.7146 0.802608 34.8177 0.805417C34.9971 0.810264 35.2069 0.81998 35.4025 0.855041C35.5725 0.885662 35.7151 0.932228 35.852 1.0019C35.9871 1.07055 36.1109 1.16051 36.2189 1.26843C36.3274 1.37708 36.4175 1.50106 36.4871 1.63765C36.5563 1.77343 36.6026 1.91535 36.6331 2.08662C36.668 2.28009 36.6777 2.4905 36.6826 2.67099C36.6854 2.77286 36.6867 2.87474 36.6872 2.97904C36.6882 3.10517 36.6882 3.23123 36.6882 3.35762V20.6428C36.6882 20.7692 36.6882 20.895 36.6872 21.0239C36.6867 21.1257 36.6854 21.2276 36.6826 21.3296C36.6777 21.5099 36.668 21.7201 36.6326 21.9159C36.6026 22.0848 36.5564 22.2268 36.4867 22.3632C36.4174 22.4995 36.3274 22.6233 36.2194 22.7313C36.1107 22.84 35.9873 22.9297 35.8506 22.999C35.7148 23.0683 35.5725 23.1148 35.4041 23.1451C35.2045 23.1807 34.9859 23.1905 34.8213 23.1949C34.7177 23.1973 34.6146 23.1987 34.5089 23.1992C34.3831 23.2001 34.2568 23.2001 34.1309 23.2001H3.35663C3.35496 23.2001 3.35333 23.2001 3.35163 23.2001C3.22719 23.2001 3.10251 23.2001 2.97581 23.1992C2.87251 23.1987 2.76944 23.1973 2.66978 23.195C2.50136 23.1905 2.2826 23.1807 2.08467 23.1454C1.91487 23.1148 1.77252 23.0683 1.6349 22.9981C1.49949 22.9294 1.37621 22.8398 1.26747 22.7309C1.15957 22.6232 1.0699 22.4997 1.00058 22.3632C0.931179 22.2269 0.884748 22.0845 0.85422 21.9136C0.81893 21.7182 0.809237 21.5088 0.804392 21.3298C0.801627 21.2273 0.800472 21.1248 0.799815 21.023L0.799316 20.7222L0.799339 20.6428V3.35762L0.799316 3.27821L0.799792 2.97809C0.800472 2.8756 0.801627 2.77314 0.804392 2.67074C0.809237 2.49156 0.81893 2.28202 0.854512 2.08502C0.884771 1.91562 0.931179 1.77325 1.00094 1.63625C1.06972 1.50083 1.15955 1.37721 1.26802 1.26877C1.37605 1.16069 1.49974 1.07084 1.63601 1.00153C1.77216 0.932205 1.91478 0.885662 2.08458 0.855108C2.28022 0.819957 2.4902 0.810263 2.67003 0.805394C2.77254 0.802608 2.87505 0.801498 2.97679 0.800796L3.35663 0.800049H34.1309Z" fill="white"/>
<path d="M10.2342 8.07226C10.5552 7.67077 10.773 7.13169 10.7156 6.58081C10.2457 6.60418 9.6723 6.89081 9.34032 7.29261C9.04225 7.6367 8.77843 8.19835 8.8472 8.72613C9.37467 8.77189 9.90166 8.46248 10.2342 8.07226Z" fill="black"/>
<path d="M10.7095 8.82923C9.94347 8.7836 9.29217 9.26398 8.92636 9.26398C8.56035 9.26398 8.00018 8.85222 7.3943 8.86332C6.60572 8.8749 5.874 9.32077 5.47383 10.0299C4.65074 11.4486 5.25662 13.5529 6.05703 14.7083C6.44572 15.2799 6.91417 15.9093 7.53142 15.8867C8.11462 15.8638 8.34321 15.5091 9.05211 15.5091C9.76049 15.5091 9.9664 15.8867 10.5837 15.8753C11.224 15.8638 11.6242 15.3034 12.0129 14.7312C12.4588 14.0796 12.6413 13.4504 12.6528 13.4159C12.6413 13.4044 11.4183 12.9352 11.407 11.5284C11.3954 10.3504 12.3672 9.7901 12.4129 9.75535C11.8642 8.94374 11.0067 8.85222 10.7095 8.82923Z" fill="black"/>
<path d="M17.3803 7.23511C19.0452 7.23511 20.2046 8.38275 20.2046 10.0536C20.2046 11.7305 19.0214 12.8841 17.3386 12.8841H15.4952V15.8156H14.1633V7.23511L17.3803 7.23511ZM15.4952 11.7661H17.0234C18.1829 11.7661 18.8429 11.1419 18.8429 10.0596C18.8429 8.97744 18.1829 8.35901 17.0293 8.35901H15.4952V11.7661Z" fill="black"/>
<path d="M20.552 14.0378C20.552 12.9436 21.3904 12.2718 22.8771 12.1885L24.5895 12.0874V11.6058C24.5895 10.9101 24.1197 10.4939 23.335 10.4939C22.5915 10.4939 22.1277 10.8506 22.0148 11.4096H20.8018C20.8731 10.2797 21.8364 9.44727 23.3825 9.44727C24.8987 9.44727 25.8679 10.25 25.8679 11.5047V15.8157H24.637V14.787H24.6074C24.2447 15.4828 23.4538 15.9227 22.6333 15.9227C21.4083 15.9227 20.552 15.1616 20.552 14.0378ZM24.5895 13.473V12.9794L23.0494 13.0745C22.2823 13.1281 21.8483 13.467 21.8483 14.0022C21.8483 14.5491 22.3002 14.906 22.99 14.906C23.8878 14.906 24.5895 14.2875 24.5895 13.473Z" fill="black"/>
<path d="M27.0308 18.1168V17.0762C27.1258 17.0999 27.3398 17.0999 27.4469 17.0999C28.0415 17.0999 28.3626 16.8502 28.5588 16.208C28.5588 16.1961 28.6718 15.8275 28.6718 15.8215L26.4124 9.56006H27.8036L29.3855 14.6501H29.4091L30.991 9.56006H32.3467L30.0037 16.1425C29.4688 17.6589 28.8503 18.1465 27.554 18.1465C27.4469 18.1465 27.1258 18.1346 27.0308 18.1168Z" fill="black"/>
</g>
<defs>
<clipPath id="clip0_3480_2334">
<rect width="37.4888" height="24" fill="white"/>
</clipPath>
</defs>
</svg>
