<svg width="186" height="56" viewBox="0 0 186 56" fill="none" xmlns="http://www.w3.org/2000/svg">
<path d="M171.188 0.100279H14.8202C14.2503 0.100279 13.6871 0.100279 13.1186 0.103069C12.6428 0.105859 12.1707 0.113964 11.6903 0.120786C10.6466 0.131809 9.60528 0.214217 8.57551 0.367296C7.54719 0.523707 6.55108 0.818586 5.62088 1.24196C4.69181 1.66892 3.84289 2.2237 3.10493 2.88619C2.36308 3.54682 1.7447 4.31041 1.27356 5.14761C0.801113 5.98315 0.473518 6.8785 0.302088 7.80274C0.129028 8.72582 0.035903 9.65954 0.0235484 10.5955C0.00912404 11.0232 0.00760078 11.4524 0 11.8801V44.1245C0.00760078 44.5577 0.00912404 44.9773 0.0235484 45.4106C0.0359068 46.3465 0.129032 47.2802 0.302088 48.2032C0.473045 49.128 0.800659 50.0239 1.27356 50.8597C1.74449 51.6942 2.36296 52.4547 3.10493 53.1117C3.84009 53.7771 4.68956 54.3323 5.62088 54.756C6.55107 55.1805 7.54708 55.4771 8.57551 55.6359C9.60545 55.7878 10.6466 55.8702 11.6903 55.8826C12.1707 55.892 12.6428 55.8975 13.1186 55.8975C13.6871 55.9003 14.2503 55.9003 14.8202 55.9003H171.188C171.747 55.9003 172.314 55.9003 172.873 55.8975C173.347 55.8975 173.832 55.892 174.306 55.8826C175.348 55.8709 176.387 55.7884 177.415 55.6359C178.446 55.476 179.446 55.1794 180.381 54.756C181.311 54.332 182.16 53.7769 182.894 53.1117C183.634 52.4521 184.254 51.6922 184.731 50.8597C185.2 50.0233 185.525 49.1275 185.693 48.2032C185.867 47.2801 185.963 46.3466 185.982 45.4106C185.988 44.9773 185.988 44.5577 185.988 44.1245C186 43.6177 186 43.1137 186 42.5987V13.4032C186 12.8923 186 12.3855 185.988 11.8801C185.988 11.4524 185.988 11.0232 185.982 10.5955C185.963 9.65941 185.867 8.72589 185.693 7.80269C185.524 6.87898 185.2 5.9837 184.731 5.14756C183.772 3.46948 182.25 2.10353 180.381 1.24184C179.446 0.819495 178.446 0.524694 177.415 0.36717C176.387 0.213417 175.348 0.13098 174.306 0.12059C173.832 0.113783 173.347 0.105608 172.873 0.102888C172.314 0.100098 171.747 0.100279 171.188 0.100279Z" fill="#A6A6A6"/>
<path d="M13.1262 54.6796C12.6526 54.6796 12.1905 54.6741 11.7206 54.6646C10.7473 54.6532 9.77617 54.5772 8.81532 54.4371C7.91937 54.2986 7.05145 54.041 6.24016 53.6728C5.43632 53.3076 4.70314 52.8288 4.06873 52.2546C3.42514 51.6872 2.88932 51.0292 2.4825 50.3065C2.0712 49.5791 1.78656 48.7995 1.63849 47.9947C1.47858 47.13 1.39207 46.2556 1.37969 45.3791C1.36983 45.0849 1.35693 44.1053 1.35693 44.1053V11.88C1.35693 11.88 1.37067 10.9155 1.37977 10.6321C1.39162 9.75704 1.47763 8.88401 1.63706 8.02061C1.7854 7.21363 2.07027 6.43173 2.48179 5.70198C2.88711 4.97981 3.41995 4.32125 4.05967 3.75184C4.69867 3.17702 5.43419 2.69572 6.2394 2.32549C7.04882 1.95845 7.91511 1.70266 8.80924 1.5667C9.77324 1.4252 10.7477 1.3487 11.7244 1.33783L13.127 1.3208H172.865L174.285 1.33852C175.253 1.34884 176.218 1.42466 177.173 1.56533C178.076 1.703 178.952 1.96057 179.77 2.32958C181.384 3.07569 182.696 4.25611 183.524 5.70538C183.929 6.4301 184.21 7.20562 184.356 8.00563C184.517 8.87611 184.608 9.756 184.626 10.6383C184.631 11.0333 184.631 11.4577 184.631 11.88C184.643 12.4032 184.643 12.9011 184.643 13.4031V42.5986C184.643 43.1054 184.643 43.5999 184.631 44.0985C184.631 44.5521 184.631 44.9677 184.625 45.3954C184.607 46.262 184.518 47.1261 184.359 47.981C184.214 48.7916 183.931 49.5774 183.52 50.3107C183.11 51.0255 182.577 51.6779 181.941 52.2437C181.306 52.821 180.572 53.3026 179.766 53.6701C178.95 54.0412 178.076 54.2998 177.173 54.4371C176.213 54.5779 175.241 54.654 174.268 54.6646C173.813 54.6741 173.336 54.6796 172.873 54.6796L171.188 54.6823L13.1262 54.6796Z" fill="black"/>
<path d="M43.8525 28.4196C43.8675 27.2553 44.1767 26.1136 44.7515 25.1009C45.3263 24.0882 46.1479 23.2374 47.1399 22.6275C46.5097 21.7275 45.6783 20.9868 44.7118 20.4643C43.7453 19.9418 42.6703 19.6519 41.5722 19.6175C39.2296 19.3717 36.9587 21.0193 35.7649 21.0193C34.5481 21.0193 32.7102 19.642 30.7311 19.6827C29.4509 19.724 28.2033 20.0963 27.1098 20.7632C26.0163 21.4301 25.1142 22.3689 24.4914 23.4881C21.7934 28.1591 23.8058 35.024 26.3902 38.7997C27.6833 40.6486 29.1944 42.7138 31.1718 42.6405C33.1067 42.5603 33.8294 41.4067 36.165 41.4067C38.479 41.4067 39.157 42.6405 41.1745 42.594C43.2508 42.5603 44.5589 40.7369 45.8066 38.8705C46.7356 37.5531 47.4505 36.0972 47.9248 34.5565C46.7185 34.0463 45.6891 33.1923 44.965 32.101C44.2408 31.0097 43.8539 29.7294 43.8525 28.4196Z" fill="white"/>
<path d="M40.042 17.1343C41.1741 15.7753 41.7318 14.0285 41.5968 12.2649C39.8672 12.4466 38.2696 13.2732 37.1222 14.58C36.5612 15.2185 36.1315 15.9612 35.8578 16.7658C35.584 17.5704 35.4715 18.4211 35.5267 19.2692C36.3918 19.2781 37.2476 19.0906 38.0298 18.7208C38.8119 18.351 39.4999 17.8085 40.042 17.1343Z" fill="white"/>
<path d="M68.3116 37.96H61.7085L60.1227 42.6422H57.3259L63.5803 25.3191H66.4861L72.7404 42.6422H69.8959L68.3116 37.96ZM62.3923 35.7993H67.6264L65.0462 28.2004H64.974L62.3923 35.7993Z" fill="white"/>
<path d="M86.2476 36.3281C86.2476 40.2529 84.147 42.7745 80.9769 42.7745C80.1738 42.8165 79.3752 42.6315 78.6724 42.2407C77.9696 41.8499 77.3911 41.2691 77.003 40.5648H76.9431V46.8205H74.3506V30.0124H76.86V32.1131H76.9077C77.3136 31.4121 77.9019 30.8343 78.61 30.4412C79.3182 30.048 80.1196 29.8542 80.9292 29.8803C84.1346 29.8803 86.2476 32.4141 86.2476 36.3281ZM83.583 36.3281C83.583 33.771 82.2615 32.0899 80.2453 32.0899C78.2645 32.0899 76.9322 33.8064 76.9322 36.3281C76.9322 38.8728 78.2645 40.5771 80.2453 40.5771C82.2615 40.5771 83.583 38.9083 83.583 36.3281Z" fill="white"/>
<path d="M100.149 36.328C100.149 40.2529 98.0478 42.7745 94.8778 42.7745C94.0747 42.8165 93.2761 42.6315 92.5733 42.2407C91.8705 41.8499 91.292 41.2691 90.9039 40.5648H90.8439V46.8205H88.2515V30.0124H90.7608V32.1131H90.8085C91.2144 31.4121 91.8027 30.8343 92.5108 30.4412C93.219 30.048 94.0205 29.8541 94.83 29.8803C98.0356 29.8803 100.149 32.4141 100.149 36.328ZM97.4838 36.328C97.4838 33.771 96.1624 32.0899 94.1462 32.0899C92.1654 32.0899 90.8331 33.8064 90.8331 36.328C90.8331 38.8728 92.1654 40.5771 94.1462 40.5771C96.1624 40.5771 97.4838 38.9083 97.4838 36.328Z" fill="white"/>
<path d="M109.336 37.8156C109.528 39.5335 111.197 40.6614 113.477 40.6614C115.663 40.6614 117.235 39.5334 117.235 37.9844C117.235 36.6398 116.287 35.8347 114.041 35.283L111.796 34.7422C108.615 33.9738 107.139 32.4862 107.139 30.0722C107.139 27.0833 109.743 25.0303 113.442 25.0303C117.103 25.0303 119.612 27.0833 119.696 30.0722H117.079C116.923 28.3434 115.494 27.2999 113.405 27.2999C111.317 27.2999 109.888 28.3557 109.888 29.8924C109.888 31.1171 110.801 31.8377 113.033 32.3894L114.942 32.858C118.496 33.6986 119.973 35.1263 119.973 37.6602C119.973 40.9011 117.391 42.9309 113.285 42.9309C109.444 42.9309 106.85 40.9488 106.682 37.8154L109.336 37.8156Z" fill="white"/>
<path d="M125.568 27.0234V30.0123H127.97V32.0653H125.568V39.0281C125.568 40.1097 126.049 40.6138 127.104 40.6138C127.39 40.6088 127.674 40.5888 127.957 40.5538V42.5945C127.483 42.6832 127 42.7234 126.517 42.7144C123.96 42.7144 122.963 41.754 122.963 39.3046V32.0653H121.127V30.0123H122.963V27.0234H125.568Z" fill="white"/>
<path d="M129.361 36.3279C129.361 32.354 131.701 29.8569 135.351 29.8569C139.013 29.8569 141.342 32.354 141.342 36.3279C141.342 40.3126 139.025 42.7988 135.351 42.7988C131.678 42.7988 129.361 40.3126 129.361 36.3279ZM138.701 36.3279C138.701 33.6019 137.451 31.993 135.351 31.993C133.25 31.993 132.002 33.6142 132.002 36.3279C132.002 39.0647 133.25 40.6614 135.351 40.6614C137.451 40.6614 138.701 39.0647 138.701 36.3279Z" fill="white"/>
<path d="M143.479 30.0123H145.952V32.162H146.012C146.179 31.4906 146.573 30.8973 147.126 30.4817C147.679 30.0662 148.358 29.8537 149.05 29.8801C149.349 29.8791 149.647 29.9115 149.938 29.9769V32.4018C149.561 32.2865 149.167 32.2336 148.773 32.2451C148.397 32.2298 148.021 32.2962 147.673 32.4397C147.324 32.5833 147.011 32.8005 146.754 33.0766C146.498 33.3526 146.304 33.681 146.186 34.039C146.068 34.3971 146.029 34.7764 146.072 35.1509V42.6422H143.479L143.479 30.0123Z" fill="white"/>
<path d="M161.891 38.9326C161.542 41.2254 159.309 42.7988 156.453 42.7988C152.779 42.7988 150.498 40.3371 150.498 36.3878C150.498 32.4262 152.791 29.8569 156.344 29.8569C159.838 29.8569 162.035 32.2573 162.035 36.0868V36.975H153.115V37.1316C153.074 37.5965 153.132 38.0647 153.286 38.5053C153.439 38.9459 153.685 39.3488 154.006 39.6871C154.328 40.0255 154.717 40.2916 155.15 40.4678C155.582 40.644 156.046 40.7262 156.513 40.709C157.125 40.7664 157.74 40.6246 158.266 40.3045C158.791 39.9844 159.199 39.5033 159.429 38.9326L161.891 38.9326ZM153.127 35.1631H159.442C159.465 34.7452 159.401 34.3269 159.255 33.9346C159.109 33.5424 158.884 33.1845 158.593 32.8835C158.302 32.5825 157.952 32.3449 157.565 32.1856C157.178 32.0262 156.762 31.9486 156.344 31.9576C155.922 31.9551 155.503 32.0362 155.112 32.1963C154.722 32.3563 154.367 32.5922 154.068 32.8902C153.769 33.1882 153.532 33.5425 153.37 33.9326C153.209 34.3227 153.126 34.7409 153.127 35.1631Z" fill="white"/>
<path d="M62.0675 12.2797C62.611 12.2407 63.1564 12.3228 63.6644 12.5201C64.1723 12.7174 64.6301 13.025 65.0048 13.4206C65.3795 13.8163 65.6617 14.2902 65.831 14.8081C66.0004 15.326 66.0527 15.8751 65.9841 16.4157C65.9841 19.0749 64.5469 20.6035 62.0675 20.6035H59.0609V12.2797H62.0675ZM60.3537 19.4263H61.9231C62.3115 19.4495 62.7001 19.3858 63.0608 19.2399C63.4215 19.094 63.7451 18.8694 64.008 18.5827C64.2709 18.2959 64.4666 17.9541 64.5808 17.5822C64.695 17.2103 64.7249 16.8175 64.6681 16.4326C64.7207 16.0492 64.6879 15.6589 64.5719 15.2897C64.456 14.9205 64.2598 14.5815 63.9975 14.2971C63.7351 14.0126 63.4131 13.7897 63.0545 13.6442C62.6958 13.4988 62.3095 13.4345 61.9231 13.456H60.3537V19.4263Z" fill="white"/>
<path d="M67.4446 17.4597C67.4051 17.0469 67.4523 16.6304 67.5832 16.2369C67.7141 15.8434 67.9258 15.4816 68.2047 15.1747C68.4836 14.8679 68.8236 14.6227 69.2029 14.4549C69.5821 14.2871 69.9922 14.2004 70.4069 14.2004C70.8216 14.2004 71.2317 14.2871 71.6109 14.4549C71.9902 14.6227 72.3301 14.8679 72.6091 15.1747C72.888 15.4816 73.0997 15.8434 73.2306 16.2369C73.3615 16.6304 73.4087 17.0469 73.3692 17.4597C73.4095 17.8729 73.3628 18.29 73.2322 18.6841C73.1017 19.0782 72.8901 19.4407 72.6111 19.7482C72.3321 20.0556 71.9919 20.3014 71.6123 20.4695C71.2327 20.6376 70.8221 20.7245 70.4069 20.7245C69.9917 20.7245 69.5811 20.6376 69.2015 20.4695C68.8219 20.3014 68.4817 20.0556 68.2027 19.7482C67.9237 19.4407 67.7121 19.0782 67.5815 18.6841C67.451 18.29 67.4043 17.8729 67.4446 17.4597ZM72.0941 17.4597C72.0941 16.0981 71.4824 15.3018 70.4089 15.3018C69.3313 15.3018 68.7252 16.0981 68.7252 17.4597C68.7252 18.8322 69.3314 19.6224 70.4089 19.6224C71.4824 19.6223 72.0941 18.8268 72.0941 17.4597Z" fill="white"/>
<path d="M81.2446 20.6034H79.9586L78.6603 15.977H78.5622L77.2694 20.6034H75.9956L74.2642 14.3218H75.5216L76.6468 19.115H76.7395L78.0309 14.3218H79.2202L80.5117 19.115H80.6098L81.7296 14.3218H82.9693L81.2446 20.6034Z" fill="white"/>
<path d="M84.4255 14.3218H85.6189V15.3197H85.7116C85.8687 14.9613 86.1338 14.6608 86.4698 14.4602C86.8058 14.2596 87.196 14.1688 87.5861 14.2005C87.8917 14.1775 88.1986 14.2236 88.484 14.3354C88.7695 14.4471 89.0261 14.6216 89.2349 14.846C89.4437 15.0704 89.5993 15.3388 89.6903 15.6315C89.7813 15.9242 89.8052 16.2337 89.7603 16.5369V20.6033H88.5206V16.8482C88.5206 15.8387 88.082 15.3367 87.1651 15.3367C86.9576 15.327 86.7505 15.3623 86.5579 15.4402C86.3653 15.5181 86.1918 15.6367 86.0494 15.7879C85.9069 15.9391 85.7988 16.1193 85.7325 16.3162C85.6662 16.5131 85.6432 16.722 85.6652 16.9285V20.6034H84.4255L84.4255 14.3218Z" fill="white"/>
<path d="M91.7357 11.8696H92.9754V20.6034H91.7357V11.8696Z" fill="white"/>
<path d="M94.6987 17.4598C94.6592 17.047 94.7065 16.6304 94.8374 16.2369C94.9683 15.8434 95.1801 15.4816 95.459 15.1748C95.738 14.8679 96.078 14.6227 96.4572 14.4549C96.8365 14.2871 97.2466 14.2004 97.6613 14.2004C98.0761 14.2004 98.4862 14.2871 98.8655 14.4549C99.2447 14.6227 99.5847 14.8679 99.8637 15.1748C100.143 15.4816 100.354 15.8434 100.485 16.2369C100.616 16.6304 100.663 17.047 100.624 17.4598C100.664 17.8731 100.618 18.2901 100.487 18.6843C100.356 19.0784 100.145 19.4408 99.8657 19.7483C99.5867 20.0558 99.2464 20.3014 98.8668 20.4696C98.4871 20.6377 98.0765 20.7246 97.6613 20.7246C97.2462 20.7246 96.8355 20.6377 96.4559 20.4696C96.0763 20.3014 95.736 20.0558 95.457 19.7483C95.178 19.4408 94.9664 19.0784 94.8358 18.6843C94.7052 18.2901 94.6585 17.8731 94.6987 17.4598ZM99.3482 17.4598C99.3482 16.0982 98.7365 15.3019 97.663 15.3019C96.5855 15.3019 95.9793 16.0982 95.9793 17.4598C95.9793 18.8323 96.5855 19.6225 97.663 19.6225C98.7365 19.6225 99.3482 18.8269 99.3482 17.4598Z" fill="white"/>
<path d="M101.929 18.8268C101.929 17.6961 102.771 17.0442 104.266 16.9516L105.967 16.8535V16.3113C105.967 15.6479 105.528 15.2733 104.681 15.2733C103.989 15.2733 103.509 15.5273 103.372 15.9714H102.172C102.298 14.8925 103.313 14.2004 104.738 14.2004C106.313 14.2004 107.201 14.9844 107.201 16.3113V20.6033H106.008V19.7205H105.91C105.711 20.0372 105.431 20.2953 105.1 20.4686C104.768 20.6418 104.397 20.724 104.023 20.7068C103.759 20.7342 103.493 20.7061 103.241 20.6242C102.989 20.5423 102.756 20.4085 102.559 20.2313C102.362 20.0542 102.204 19.8377 102.095 19.5958C101.987 19.3539 101.93 19.0919 101.929 18.8268ZM105.967 18.2901V17.7649L104.433 17.863C103.568 17.9209 103.176 18.2151 103.176 18.7689C103.176 19.3343 103.666 19.6633 104.341 19.6633C104.538 19.6833 104.738 19.6633 104.927 19.6046C105.117 19.5459 105.293 19.4496 105.445 19.3215C105.597 19.1934 105.721 19.036 105.811 18.8588C105.901 18.6816 105.954 18.4882 105.967 18.2901Z" fill="white"/>
<path d="M108.831 17.4599C108.831 15.475 109.851 14.2176 111.438 14.2176C111.831 14.1995 112.22 14.2935 112.561 14.4887C112.902 14.6838 113.181 14.972 113.364 15.3196H113.457V11.8696H114.697V20.6034H113.509V19.6109H113.411C113.213 19.9562 112.925 20.2408 112.577 20.434C112.229 20.6272 111.836 20.7215 111.438 20.7069C109.84 20.707 108.831 19.4495 108.831 17.4599ZM110.111 17.4599C110.111 18.7922 110.739 19.5939 111.79 19.5939C112.834 19.5939 113.48 18.7806 113.48 17.4653C113.48 16.1561 112.828 15.3313 111.79 15.3313C110.746 15.3313 110.111 16.1384 110.111 17.4599Z" fill="white"/>
<path d="M119.826 17.4597C119.786 17.0469 119.834 16.6304 119.964 16.2369C120.095 15.8434 120.307 15.4816 120.586 15.1747C120.865 14.8679 121.205 14.6227 121.584 14.4549C121.963 14.2871 122.373 14.2004 122.788 14.2004C123.203 14.2004 123.613 14.2871 123.992 14.4549C124.371 14.6227 124.711 14.8679 124.99 15.1747C125.269 15.4816 125.481 15.8434 125.612 16.2369C125.743 16.6304 125.79 17.0469 125.75 17.4597C125.791 17.8729 125.744 18.29 125.613 18.6841C125.483 19.0782 125.271 19.4407 124.992 19.7482C124.713 20.0556 124.373 20.3014 123.993 20.4695C123.614 20.6376 123.203 20.7245 122.788 20.7245C122.373 20.7245 121.962 20.6376 121.583 20.4695C121.203 20.3014 120.863 20.0556 120.584 19.7482C120.305 19.4407 120.093 19.0782 119.963 18.6841C119.832 18.29 119.786 17.8729 119.826 17.4597ZM124.475 17.4597C124.475 16.0981 123.864 15.3018 122.79 15.3018C121.713 15.3018 121.106 16.0981 121.106 17.4597C121.106 18.8322 121.713 19.6224 122.79 19.6224C123.864 19.6223 124.475 18.8268 124.475 17.4597Z" fill="white"/>
<path d="M127.414 14.3218H128.607V15.3197H128.7C128.857 14.9613 129.122 14.6608 129.458 14.4602C129.794 14.2596 130.184 14.1688 130.574 14.2005C130.88 14.1775 131.187 14.2236 131.472 14.3354C131.758 14.4471 132.014 14.6216 132.223 14.846C132.432 15.0704 132.588 15.3388 132.679 15.6315C132.77 15.9242 132.793 16.2337 132.749 16.5369V20.6033H131.509V16.8482C131.509 15.8387 131.07 15.3367 130.153 15.3367C129.946 15.327 129.739 15.3623 129.546 15.4402C129.354 15.5181 129.18 15.6367 129.038 15.7879C128.895 15.9391 128.787 16.1193 128.721 16.3162C128.654 16.5131 128.632 16.722 128.654 16.9285V20.6034H127.414V14.3218Z" fill="white"/>
<path d="M139.754 12.7578V14.3503H141.114V15.3946H139.754V18.6246C139.754 19.2826 140.025 19.5707 140.642 19.5707C140.8 19.5702 140.958 19.5606 141.114 19.5421V20.5747C140.892 20.6145 140.666 20.6357 140.44 20.6381C139.061 20.6381 138.512 20.1531 138.512 18.942V15.3945H137.515V14.3503H138.512V12.7578H139.754Z" fill="white"/>
<path d="M142.808 11.8696H144.037V15.3313H144.135C144.3 14.9695 144.572 14.6674 144.915 14.466C145.257 14.2646 145.654 14.1738 146.05 14.206C146.354 14.1894 146.658 14.2402 146.94 14.3547C147.222 14.4691 147.476 14.6444 147.683 14.8681C147.889 15.0918 148.044 15.3583 148.136 15.6486C148.227 15.939 148.254 16.246 148.213 16.5478V20.6034H146.972V16.8536C146.972 15.8503 146.505 15.3421 145.629 15.3421C145.416 15.3247 145.202 15.3539 145.001 15.428C144.801 15.502 144.619 15.6189 144.468 15.7706C144.317 15.9223 144.202 16.1051 144.129 16.3061C144.056 16.5072 144.029 16.7217 144.048 16.9347V20.6033H142.808L142.808 11.8696Z" fill="white"/>
<path d="M155.442 18.9073C155.273 19.4814 154.909 19.978 154.411 20.3102C153.913 20.6424 153.315 20.7891 152.72 20.7246C152.306 20.7355 151.895 20.6563 151.515 20.4923C151.135 20.3284 150.795 20.0837 150.519 19.7752C150.243 19.4667 150.037 19.1018 149.916 18.7059C149.795 18.3099 149.762 17.8924 149.818 17.4823C149.763 17.071 149.797 16.6526 149.918 16.2554C150.038 15.8583 150.243 15.4918 150.518 15.1806C150.792 14.8694 151.131 14.6208 151.51 14.4518C151.889 14.2827 152.3 14.197 152.715 14.2005C154.462 14.2005 155.517 15.3947 155.517 17.3672V17.7998H151.081V17.8692C151.062 18.0998 151.091 18.3318 151.166 18.5505C151.242 18.7691 151.362 18.9696 151.52 19.139C151.677 19.3085 151.868 19.4431 152.081 19.5343C152.293 19.6256 152.523 19.6714 152.754 19.6688C153.051 19.7044 153.351 19.651 153.617 19.5154C153.883 19.3798 154.103 19.1681 154.248 18.9073L155.442 18.9073ZM151.081 16.8829H154.254C154.27 16.6721 154.241 16.4603 154.17 16.2612C154.099 16.0622 153.987 15.8801 153.841 15.7269C153.696 15.5736 153.519 15.4525 153.324 15.3714C153.129 15.2902 152.919 15.2508 152.708 15.2557C152.493 15.253 152.281 15.2932 152.082 15.374C151.883 15.4549 151.703 15.5747 151.551 15.7263C151.4 15.878 151.28 16.0584 151.199 16.2571C151.119 16.4557 151.078 16.6685 151.081 16.8829Z" fill="white"/>
</svg>
