<svg xmlns="http://www.w3.org/2000/svg" width="24" height="35" fill="none" xmlns:v="https://vecta.io/nano"><path fill-rule="evenodd" d="M7.059 31.033c.377-.268.341-.86.078-1.242s-.664-.634-1.024-.908c-.223-.166-.428-.396-.53-.63 1.694.314 3.58.545 5.398.416 1.471-.092 2.88-.441 4.159-1.169 2.718-1.547 4.323-3.686 5.07-6.002.809-2.538.519-5.355-.548-7.916-1.96-4.662-6.56-8.541-11.89-8.835-.391-.044-.746.265-.759.672-.044.398.259.758.659.77 4.682.45 8.561 4.02 10.2 8.146.844 2.156 1.079 4.445.457 6.557-.57 1.922-1.851 3.743-4.045 5.099-1.026.664-2.199 1.012-3.461 1.198-1.711.229-3.467.137-5.135-.033.231-.344.617-.644.901-.939l.319-.421c.098-.109.195-.218.262-.335s.062-.222.035-.366c-.157-.763-.939-.61-1.486-.459-.284.055-.555.183-.826.311-.582.278-1.128.669-1.567 1.158-.324.318-.634.707-.736 1.191-.075.389-.074.628.175.939.272.351.575.711.887 1.04.632.625 1.354 1.173 2.101 1.626.409.22.921.434 1.307.134zm-.534-5.075c-.071.014-.133-.004-.196-.022.031.009.125.036.196.022zm-2.964.622l-.08.045c-.022-.04.08-.045.08-.045z" fill="#f2385a"/></svg>