<svg width="14" height="14" viewBox="0 0 14 14" fill="none" xmlns="http://www.w3.org/2000/svg">
<circle cx="7" cy="7" r="6" transform="rotate(180 7 7)" fill="#FFE9E5" stroke="#DB3B21"/>
<path fill-rule="evenodd" clip-rule="evenodd" d="M9.42409 4.47487C9.61935 4.67014 9.61935 4.98672 9.42409 5.18198L7.65633 6.94975L9.42409 8.71751C9.61935 8.91278 9.61935 9.22936 9.42409 9.42462C9.22883 9.61988 8.91225 9.61988 8.71699 9.42462L6.94922 7.65685L5.18145 9.42462C4.98619 9.61988 4.66961 9.61988 4.47435 9.42462C4.27908 9.22936 4.27908 8.91278 4.47435 8.71751L6.24211 6.94975L4.47434 5.18198C4.27908 4.98672 4.27908 4.67014 4.47434 4.47487C4.66961 4.27961 4.98619 4.27961 5.18145 4.47487L6.94922 6.24264L8.71699 4.47487C8.91225 4.27961 9.22883 4.27961 9.42409 4.47487Z" fill="#DB3B21"/>
</svg>
