<svg width="16" height="16" viewBox="0 0 16 16" fill="none" xmlns="http://www.w3.org/2000/svg">
<circle cx="8" cy="8" r="7.5" transform="rotate(180 8 8)" fill="#E0990B" stroke="#F9F9FA"/>
<path fill-rule="evenodd" clip-rule="evenodd" d="M8.00016 3.33325C8.36835 3.33325 8.66683 3.63173 8.66683 3.99992L8.66683 9.33325C8.66683 9.70144 8.36835 9.99992 8.00016 9.99992C7.63197 9.99992 7.3335 9.70144 7.3335 9.33325L7.3335 3.99992C7.3335 3.63173 7.63197 3.33325 8.00016 3.33325Z" fill="#F9F9FA"/>
<path fill-rule="evenodd" clip-rule="evenodd" d="M7.3335 12.0001C7.3335 11.6319 7.63197 11.3334 8.00016 11.3334C8.36835 11.3334 8.66683 11.6319 8.66683 12.0001C8.66683 12.3683 8.36835 12.6667 8.00016 12.6667C7.63197 12.6667 7.3335 12.3683 7.3335 12.0001Z" fill="#F9F9FA"/>
</svg>
