<svg width="34" height="34" viewBox="0 0 34 34" fill="none" xmlns="http://www.w3.org/2000/svg">
<circle cx="17" cy="17" r="16" fill="#DAE4EC" stroke="white" stroke-width="2"/>
<path d="M23.9283 23.1597C22.9332 21.3602 21.3397 20.0105 19.4541 19.3701C20.3574 18.8058 21.0593 17.9457 21.452 16.9219C21.8446 15.8981 21.9063 14.7673 21.6276 13.7031C21.3489 12.639 20.7452 11.7003 19.9092 11.0313C19.0731 10.3623 18.0511 10 16.9999 10C15.9488 10 14.9268 10.3623 14.0907 11.0313C13.2547 11.7003 12.651 12.639 12.3723 13.7031C12.0936 14.7673 12.1553 15.8981 12.5479 16.9219C12.9406 17.9457 13.6425 18.8058 14.5458 19.3701C12.6603 20.0105 11.0668 21.3601 10.0717 23.1595C10.0248 23.2446 10.0001 23.3412 10 23.4395C9.99993 23.5379 10.0245 23.6345 10.0713 23.7197C10.1181 23.8049 10.1854 23.8756 10.2665 23.9248C10.3476 23.974 10.4396 23.9999 10.5333 23.9999L23.4667 24C23.5604 24 23.6524 23.9741 23.7335 23.9249C23.8146 23.8757 23.8819 23.805 23.9287 23.7198C23.9755 23.6346 24.0001 23.538 24 23.4397C23.9999 23.3413 23.9752 23.2448 23.9283 23.1597L23.9283 23.1597Z" fill="#618298"/>
</svg>
