<svg xmlns="http://www.w3.org/2000/svg" width="240" height="552" fill="none" fill-rule="evenodd" xmlns:v="https://vecta.io/nano"><rect width="240" height="552" fill="#3180f1" rx="4"/><g fill-rule="nonzero"><path fill="#0c395b" d="M124.826 322.495L35.167 327c-8.926-.008-16.16-7.71-16.167-17.214V73.213C19.007 63.71 26.241 56.008 35.167 56l89.659 4.505c8.926.008 16.163 7.709 16.174 17.213v227.563c-.011 9.505-7.248 17.206-16.174 17.214z"/><g fill="#3180f1"><path d="M129.832 322.495L40.167 327c-8.924-.012-16.156-7.712-16.167-17.214V73.213c.011-9.501 7.243-17.2 16.168-17.213l89.665 4.505c8.924.012 16.155 7.712 16.167 17.213v227.563c-.012 9.502-7.244 17.202-16.167 17.214h-.001z"/><path d="M130.662 66.488L40.338 62c-6.254.02-11.32 5.41-11.338 12.064v236.871c.019 6.655 5.083 12.045 11.338 12.065l90.324-4.488c6.253-.02 11.319-5.409 11.338-12.064V78.552c-.019-6.654-5.085-12.044-11.338-12.064z"/></g><path d="M130.662 66.488h-11.946c-.68.003-1.283.469-1.497 1.156v1.695c-.008 3.698-2.822 6.695-6.297 6.707l-50.818-3.095c-3.474-.008-6.289-3.003-6.296-6.7v-1.178c0-.919-.324-3.073-2.065-3.073H40.338c-6.254.02-11.32 5.41-11.338 12.064v236.871c.019 6.655 5.083 12.045 11.338 12.065l90.324-4.488c6.253-.02 11.319-5.409 11.338-12.064V78.552c-.019-6.654-5.085-12.044-11.338-12.064zm-28.669.872c-.086.978-1.045 1.708-2.144 1.635s-1.923-.924-1.844-1.901 1.033-1.714 2.133-1.646a2.09 2.09 0 0 1 1.378.611c.349.36.521.829.477 1.301zm-9.096.748l-13.931-.95c-.571-.04-1.003-.519-.964-1.072v-.16c.045-.55.54-.962 1.109-.924l13.924.958c.273.017.529.14.71.338s.272.462.253.727v.159c-.041.549-.533.963-1.1.924h-.001z" fill="#f4f3e4"/><path fill="#fff" d="M29 301.515v8.835c.019 6.425 5.083 11.63 11.338 11.65l90.324-4.34c6.251-.02 11.315-5.22 11.338-11.644V297l-113 4.515z"/></g><g fill="#0c395b"><path d="M63.834 317.19l43.324-2.19c.464.004.839.407.842.905s-.376.905-.84.905L63.833 319c-.462-.004-.834-.408-.834-.905-.002-.239.085-.47.242-.64s.37-.265.592-.265z"/><path fill-rule="nonzero" d="M85.5 307c4.142 0 7.5-3.581 7.5-8s-3.358-8-7.5-8-7.5 3.581-7.5 8 3.358 8 7.5 8z"/></g><path fill="#f4f3e4" d="M85.423 297c.123-.003.243.043.332.128s.142.202.145.325l.053 1.57 1.57-.054a.46.46 0 0 1 .477.4v.047c.007.256-.192.47-.447.484l-1.57.054.054 1.569a.47.47 0 0 1-.406.477h-.047a.46.46 0 0 1-.333-.125.45.45 0 0 1-.144-.323l-.055-1.57-1.569.055c-.24.008-.45-.167-.483-.407v-.04c-.005-.125.04-.244.124-.335a.46.46 0 0 1 .323-.148l1.57-.055-.054-1.568c-.008-.24.167-.447.406-.479h.048l.006-.005z"/><g fill-rule="nonzero"><path fill="#0c395b" d="M39.519 304.207c.218-.262.559-.277.79-.034l1.427 1.497c.128.137.206.335.215.545L42 308.11a.86.86 0 0 1-.159.532c-.107.145-.255.23-.412.236l-2.766.122a.54.54 0 0 1-.433-.212c-.116-.141-.18-.334-.18-.536l-.05-1.895c-.007-.21.058-.414.178-.56l1.34-1.59zm.662 2.4h-.399a.36.36 0 0 0-.273.159c-.07.095-.108.223-.103.353l.027.99c0 .067.023.128.062.173s.09.067.142.064l.786-.034c.053 0 .104-.027.14-.076s.057-.114.053-.18v-.984a.56.56 0 0 0-.13-.37c-.082-.095-.194-.142-.306-.128v.033zm-5.549 4.816c.284-.01.552.13.702.37s.162.539.03.788-.39.41-.674.419h-.644L34 311.474l.632-.051zm-.361.25v1.102h.38a.55.55 0 0 0 .536-.57c-.01-.304-.268-.543-.574-.532h-.342zm2.606 1.256h-.238v-.128a.42.42 0 0 1-.336.167c-.294-.02-.526-.257-.536-.55a.57.57 0 0 1 .498-.584.4.4 0 0 1 .347.146v-.134h.24l.025 1.083zm-.896-.513c-.027.13.029.263.14.337s.255.073.366 0 .165-.206.139-.337c.004-.09-.031-.179-.096-.243s-.154-.1-.246-.097c-.086.006-.166.044-.223.108s-.086.148-.08.232zm1.98-.34a.64.64 0 0 0-.335-.076c-.13 0-.207.058-.207.135s.084.095.187.102h.11c.239 0 .387.122.394.308s-.168.359-.484.371a.79.79 0 0 1-.471-.121l.103-.18c.106.071.234.106.36.097.163 0 .246-.058.246-.141s-.064-.103-.193-.115h-.117c-.238 0-.373-.135-.38-.309s.161-.353.439-.359a.8.8 0 0 1 .445.097l-.097.191zm.645-.16c.072-.106.193-.172.323-.172.118-.012.235.028.321.107s.138.191.137.31v.68h-.239v-.604c0-.186-.11-.282-.264-.275a.27.27 0 0 0-.202.087.28.28 0 0 0-.07.207v.596h-.238l-.057-1.628h.239l.05.693zm2.271.333a.54.54 0 0 1-.135.407c-.098.11-.238.177-.387.184-.133.005-.26-.049-.349-.148v.129h-.239l-.057-1.623h.239v.674c.078-.106.203-.167.335-.167.153-.015.306.036.42.14a.54.54 0 0 1 .173.404zm-.903 0a.33.33 0 0 0 .353.295c.178-.014.313-.167.303-.344s-.16-.315-.34-.309c-.097.002-.189.047-.25.122s-.085.174-.065.269v-.033zm2.29-.043a.58.58 0 0 1-.334.558.59.59 0 0 1-.648-.097.58.58 0 0 1-.155-.632c.083-.222.292-.374.531-.381.155-.01.307.042.422.145s.181.252.184.406zm-.929.031a.34.34 0 1 0 .684 0 .32.32 0 0 0-.102-.244.33.33 0 0 0-.252-.089c-.183.004-.33.151-.33.333zm2.278.462h-.24v-.129c-.078.105-.203.167-.334.167-.295-.02-.526-.257-.536-.55s.205-.545.497-.585a.41.41 0 0 1 .348.148v-.135h.265v1.084zm-.903-.513c-.002.09.033.177.098.24a.33.33 0 0 0 .243.093c.09-.001.176-.04.236-.107s.09-.156.08-.246c.004-.09-.03-.177-.093-.242s-.15-.1-.242-.097-.172.048-.23.116a.33.33 0 0 0-.08.243h-.013zm1.986-.602l-.05.23a.43.43 0 0 0-.182 0c-.075 0-.147.035-.196.093s-.068.135-.055.208v.597h-.232l-.04-1.084h.233v.122c.065-.107.184-.168.31-.16a.35.35 0 0 1 .212-.006zm1.007.089V311h.239l.058 1.622h-.239v-.135c-.076.11-.202.174-.335.173-.318.01-.583-.236-.594-.551s.238-.58.555-.59c.123.003.238.06.316.154zm-.645.436c-.004.09.03.176.094.24s.151.097.241.094a.35.35 0 0 0 .333-.208c.057-.13.028-.283-.074-.384a.35.35 0 0 0-.385-.072c-.131.056-.214.187-.21.33z"/><path fill="#6e8699" d="M56.82 312.782h-.266l-.047-1.208-.438 1.094h-.272l-.525-1.058.047 1.208h-.259l-.06-1.486h.405l.518 1.046.438-1.076h.405l.053 1.48zm1.486-.066h-.244v-.121c-.082.1-.21.158-.345.158-.304-.019-.542-.243-.552-.519s.211-.514.511-.552a.44.44 0 0 1 .36.14v-.128h.271v1.022zm-.93-.483c-.026.122.03.247.145.316s.262.07.376 0 .171-.194.144-.316c.027-.123-.03-.248-.144-.317s-.262-.07-.376 0-.171.194-.144.317zm2.033-.55l-.046.223c-.06-.022-.123-.032-.187-.03-.078 0-.152.032-.201.088s-.071.126-.058.196v.556h-.245l-.033-1.022h.239v.116a.35.35 0 0 1 .319-.151.45.45 0 0 1 .212.023zm.51.374h.127l.352-.398h.306l-.445.495.49.526h-.311l-.385-.423h-.126v.429h-.246l-.06-1.53h.246l.053.9zm1.993.055c.004.027.004.057 0 .084h-.823c.017.156.168.268.339.254a.6.6 0 0 0 .325-.121l.126.157a.71.71 0 0 1-.458.158c-.327.013-.603-.217-.618-.514s.238-.548.564-.562c.155 0 .302.058.406.162a.47.47 0 0 1 .139.382zm-.837-.06h.578c0-.158-.133-.248-.292-.242-.15.002-.272.106-.286.241zm1.88-.279h-.432v.447a.16.16 0 0 0 .186.182.44.44 0 0 0 .219-.073l.106.175c-.097.067-.216.105-.338.109-.26 0-.412-.109-.419-.38v-.448h-.225v-.205h.239v-.309h.245v.308h.432l-.014.194zm1.467.266c.011.14-.041.277-.144.38a.58.58 0 0 1-.4.17.46.46 0 0 1-.36-.133V313h-.245l-.053-1.444h.24v.12c.078-.1.208-.16.344-.157a.6.6 0 0 1 .437.135c.118.099.184.239.18.385zm-.93 0a.3.3 0 0 0 .144.318c.114.068.263.068.376 0s.172-.196.145-.318c.026-.122-.03-.247-.144-.317s-.263-.07-.377 0-.17.195-.144.317zm1.494.49h-.245L64.68 311h.246l.059 1.53zm1.46-.043h-.245v-.12a.45.45 0 0 1-.345.157c-.153.005-.303-.048-.412-.147s-.17-.233-.165-.373a.48.48 0 0 1 .139-.382c.1-.105.245-.168.398-.174.139-.005.27.048.359.145v-.127h.246l.026 1.021zm-.922-.483c-.003.085.032.166.097.226s.156.091.249.088.183-.038.245-.103.091-.15.08-.235c.027-.122-.03-.247-.144-.317s-.263-.07-.376 0-.172.195-.144.317l-.007.024zm2.198-.441l-.146.157c-.073-.065-.171-.1-.273-.097-.092.001-.18.038-.24.102s-.09.147-.078.23c-.006.085.027.168.092.228s.154.095.246.093a.46.46 0 0 0 .273-.115l.16.146a.54.54 0 0 1-.419.175c-.303-.02-.541-.243-.552-.52s.212-.514.512-.55c.16-.013.317.043.425.15zm1.275.333v.084h-.83c.024.153.176.262.345.247a.61.61 0 0 0 .319-.114l.125.15c-.124.104-.288.16-.457.159-.304-.015-.547-.237-.56-.513s.205-.518.507-.558c.155-.004.306.053.411.158s.157.245.14.387zm-.837-.061h.584c0-.147-.13-.267-.292-.267s-.292.12-.292.267zM62.655 303a.61.61 0 0 1 .466.202l.59.666c.127.134.201.318.206.514l.083 2.756a.8.8 0 0 1-.173.528c-.118.142-.28.226-.452.233l-2.596.1c-.172.008-.34-.063-.466-.195a.79.79 0 0 1-.206-.512l-.107-3.43c-.005-.195.057-.385.174-.528s.28-.226.452-.234l2.03-.098-.001-.002zm-.041.549v.433c.001.131.05.256.135.345s.197.136.313.13h.383c.046 0 .088-.031.104-.079a.13.13 0 0 0-.033-.136l-.72-.793a.1.1 0 0 0-.12-.017c-.038.022-.063.067-.061.117h-.001zm46.59 5.089c-.145-.09-.315-.135-.487-.13-.23 0-.383.11-.376.262s.14.192.362.22h.126c.278 0 .557.137.563.446s-.291.55-.696.563a1.14 1.14 0 0 1-.696-.206l.14-.227c.157.118.351.178.55.173.222 0 .396-.11.389-.268s-.139-.186-.397-.213h-.132c-.258 0-.515-.138-.522-.454s.285-.536.654-.55c.221-.011.44.047.627.165l-.105.22zm1.595.68c.003.032.003.065 0 .096h-.87a.34.34 0 0 0 .361.29.55.55 0 0 0 .335-.138l.132.178c-.129.116-.299.18-.474.179-.342.017-.633-.243-.65-.58s.246-.625.588-.643a.57.57 0 0 1 .433.18.55.55 0 0 1 .145.438zm-.87-.068h.605c-.01-.158-.146-.28-.306-.275s-.288.119-.3.275zm2.34.605h-.258v-.139c-.086.113-.22.18-.362.18-.318-.02-.568-.276-.578-.59s.22-.584.536-.626a.44.44 0 0 1 .376.158v-.144h.258l.027 1.16zm-.969-.55a.34.34 0 0 0 .102.256c.069.07.163.105.26.101s.194-.044.26-.117.098-.17.089-.268c0-.095-.04-.188-.11-.255s-.162-.104-.26-.102-.192.044-.257.117a.34.34 0 0 0-.084.267zm2.124-.652l-.056.253c-.064-.013-.131-.013-.194 0a.29.29 0 0 0-.21.102c-.051.062-.074.142-.062.221v.633h-.258l-.042-1.162h.25v.13c.074-.112.2-.177.336-.17a.45.45 0 0 1 .236-.007zm1.211.117l-.16.178a.37.37 0 0 0-.284-.11c-.097.003-.188.046-.251.118s-.094.165-.084.26c-.004.097.033.19.101.26s.163.106.26.104a.45.45 0 0 0 .279-.13l.168.163c-.106.13-.264.205-.433.207-.165.011-.328-.046-.45-.158a.59.59 0 0 1-.19-.433c-.014-.164.044-.326.158-.446s.274-.188.44-.185c.169-.013.333.05.446.17v.002zm.523-.036c.078-.114.208-.184.348-.185.127-.012.253.03.347.115a.44.44 0 0 1 .147.332v.728h-.257v-.638c0-.2-.112-.303-.286-.297-.083-.001-.163.032-.22.093s-.083.142-.072.223v.64h-.258l-.062-1.745h.257l.056.734zm-2.776-3.895c.431-.742.492-1.736.157-2.554s-1.008-1.318-1.73-1.283c-.669.03-1.275.516-1.59 1.273a3 3 0 0 0 .066 2.403c.355.728.987 1.158 1.656 1.128.418-.022.818-.224 1.135-.575l.568.692c.082.103.214.103.295 0s.081-.275 0-.378l-.557-.707zm-.04-1.5c.028 1.031-.602 1.898-1.407 1.933s-1.48-.771-1.51-1.804.602-1.898 1.407-1.935c.387-.017.764.163 1.047.501s.45.807.464 1.304zm18.414 5.645h-.31l-.186-.478h-.807l-.158.494H129l.641-1.93h.352l.763 1.914zm-1.194-.733h.59l-.324-.772-.266.772zm2.394-.44l-.157.2c-.08-.083-.19-.129-.302-.123-.215 0-.389.187-.389.417s.174.417.389.417c.113-.004.22-.056.294-.147l.173.194c-.173.211-.449.285-.694.188a.68.68 0 0 1-.413-.63c-.015-.182.043-.364.16-.498a.59.59 0 0 1 .45-.211c.183-.023.365.049.49.193zm1.282-.046l-.166.2c-.077-.085-.185-.13-.295-.123-.1.006-.193.055-.259.136a.42.42 0 0 0-.087.296.41.41 0 0 0 .105.288c.072.078.17.118.27.113.11-.009.211-.062.288-.147l.171.194c-.11.14-.272.221-.445.223-.229.01-.444-.114-.565-.323s-.129-.47-.022-.687a.64.64 0 0 1 .544-.364.57.57 0 0 1 .46.194zm1.503.424c.014.286-.133.552-.374.673a.62.62 0 0 1-.721-.116c-.197-.192-.265-.494-.173-.762s.326-.45.593-.46a.61.61 0 0 1 .47.178.71.71 0 0 1 .205.487zm-1.036 0c0 .226.17.41.38.41s.382-.184.382-.41-.17-.409-.381-.409-.381.183-.381.41zm2.481.046c-.021.311-.257.554-.547.563s-.54-.215-.581-.524v-.772h.266v.726c-.02.126.033.253.133.321s.229.07.33 0 .152-.195.134-.321v-.726h.266v.733zm1.525-.324v.82h-.237v-.727c0-.216-.115-.34-.295-.333a.3.3 0 0 0-.224.106c-.058.068-.086.159-.077.25v.726h-.266l-.044-1.306h.266v.162c.08-.133.218-.212.366-.208.132-.01.262.038.36.136s.151.232.151.374zm1.202-.27h-.467v.563c0 .178.093.248.2.24.088-.007.17-.043.24-.1l.114.223a.61.61 0 0 1-.367.147c-.28 0-.446-.147-.453-.494v-.572h-.238v-.254h.252V307h.266v.394h.468l-.015.247zm-5.065-3.954c.613-.021 1.128.51 1.152 1.19v.497c.004.13-.037.258-.117.353s-.19.153-.308.158l-3.114.114a.41.41 0 0 1-.323-.13c-.086-.089-.137-.215-.138-.347v-.49c-.018-.68.46-1.248 1.072-1.277l1.776-.068zm-.975-2.686c.407-.02.784.237.955.647a1.21 1.21 0 0 1-.177 1.226c-.278.331-.708.444-1.09.285s-.639-.557-.652-1.01c-.017-.609.413-1.12.963-1.14V301h.001zm-53.348 10.966h-.247l-.99-1.14.042 1.173h-.275L78 310.38h.247l.99 1.142-.042-1.174h.268l.062 1.62zm1.47-.616v.085l-.859.033c.026.166.183.284.358.269.12-.009.236-.052.33-.125l.13.164a.7.7 0 0 1-.467.17c-.315-.012-.569-.251-.585-.554s.211-.562.524-.606a.57.57 0 0 1 .414.162c.109.107.165.253.155.402zm-.865-.066h.604c-.01-.15-.143-.265-.302-.262a.31.31 0 0 0-.227.077c-.062.055-.096.132-.096.211l.02-.026zm2.418.308l.24-.858h.269l-.344 1.12h-.302l-.323-.826-.254.847h-.296l-.426-1.096h.268l.302.833.261-.846h.283l.322.826zm2.075-1.429c.32-.036.632.104.81.36s.188.585.029.852-.463.423-.784.408h-.687l-.055-1.613.686-.007h.001zm-.392.263l.041 1.12h.399c.225.015.44-.094.551-.28a.54.54 0 0 0-.021-.597c-.126-.179-.348-.273-.571-.244h-.399zm2.81.726a.61.61 0 0 1-.604.618c-.345.01-.634-.248-.646-.578s.26-.605.605-.616.634.247.646.577zm-.989 0c0 .095.04.187.111.252s.168.1.267.096c.205-.003.368-.165.364-.36s-.173-.35-.378-.348-.367.165-.364.361zm2.247-.452l-.158.17a.43.43 0 0 0-.282-.104c-.205 0-.371.159-.371.355s.166.353.371.353c.107-.004.21-.049.282-.124l.158.164c-.105.12-.262.191-.426.19a.62.62 0 0 1-.59-.254.56.56 0 0 1-.022-.616c.116-.193.338-.306.57-.29a.56.56 0 0 1 .468.156zm1.367.447c-.02.264-.243.472-.52.482s-.519-.181-.558-.443v-.656h.254v.618c0 .215.137.288.295.281a.28.28 0 0 0 .213-.087.25.25 0 0 0 .062-.214v-.618h.254v.638-.001zm2.281-.302v.695h-.254v-.616a.25.25 0 0 0-.282-.283c-.081 0-.16.033-.214.09a.27.27 0 0 0-.075.212v.617h-.254v-.617c0-.183-.11-.288-.281-.282a.3.3 0 0 0-.215.09c-.055.057-.082.135-.074.212v.616h-.254l-.041-1.108h.254v.131c.077-.112.21-.176.35-.17.098.124.25.196.412.196s.315-.072.413-.196c.127-.02.257.015.355.094s.158.196.16.319zm1.415.098v.085l-.858.034c.024.166.181.284.357.268.12-.009.235-.052.33-.124l.13.164a.71.71 0 0 1-.474.17c-.315-.015-.565-.256-.58-.557s.213-.561.525-.604a.57.57 0 0 1 .416.163c.108.107.164.253.154.401zm-.865-.065h.604c-.011-.15-.144-.267-.302-.263-.152.006-.275.119-.289.263h-.013zm2.24-.125v.695h-.255v-.616c0-.19-.11-.289-.281-.282-.082 0-.16.033-.215.089s-.082.135-.074.212v.61h-.254l-.035-1.108h.247v.132c.08-.11.21-.177.35-.177a.47.47 0 0 1 .367.107c.1.087.154.21.149.338zm1.181-.23h-.446v.486c0 .15.089.203.192.203.082-.009.16-.037.227-.085l.109.19a.62.62 0 0 1-.35.118c-.261 0-.419-.118-.432-.413v-.485h-.227v-.223h.227V310h.254v.335h.446v.19z"/><path fill="#0c395b" d="M46 93.01c0-2.868 2.419-5.151 5.301-5.003l112.918 5.797c2.68.138 4.781 2.338 4.781 5.004v175.829c0 2.71-2.167 4.928-4.89 5.009l-112.918 3.352c-2.842.084-5.192-2.183-5.192-5.009V93.011z"/><path fill="#fff" d="M52 88.02c0-1.73 1.451-3.105 3.18-3.016l115.95 5.966c1.609.083 2.87 1.409 2.87 3.016V272.53a3.02 3.02 0 0 1-2.935 3.017L55.115 279c-1.705.049-3.115-1.317-3.115-3.02V88.02z"/></g><path d="M128.147 199.46c2.329-.599 5.07-.809 7.157.6 2.729 1.836 3.025 5.482 1.893 8.307-1.306 3.245-4.09 5.998-6.455 8.553-2.327 2.482-4.8 4.824-7.405 7.018a134.33 134.33 0 0 1-16.546 11.792 144.15 144.15 0 0 1-3.902 2.326c.676.806 1.59 1.38 2.613 1.644 3.104.881 6.903 0 10.158-1.151a37.94 37.94 0 0 0 9.322-4.769c2.741-1.902 5.264 2.105 3.352 4.306-.2.228-.538 1.038-.798 1.476l.381-.042c1.682-.378 3.237-1.523 4.67-2.399l.932-.6.472-.3c2.916-1.8 6.007-3.539 9.552-3.461 2.233.048 3.534 2.855 2.227 4.445-.055.138-.11.276-.145.383-.127.397-.236.81-.345 1.2 2.323-.116 4.615-.586 6.794-1.391 3.346-1.092 6.262-2.999 9.528-4.199 2.656-.983 4.568 2.765 2.687 4.582-.811.715-1.508 1.546-2.07 2.466a12.63 12.63 0 0 0 1.162.083 23.31 23.31 0 0 0 2.59 0 30.61 30.61 0 0 0 5.166-.851c3.437-.84 6.764-2.051 10.128-3.137 6.866-2.226 14.163-3.809 21.174-1.2 3.304 1.235 1.864 6.538-1.47 5.29-6.31-2.357-12.602-.695-18.755 1.332l-.605.204c-2.25.755-4.489 1.542-6.697 2.177-4.56 1.313-9.329 2.135-14.072 1.44-2.305-.33-4.277-1.668-4.477-3.899-1.277.504-2.564.983-3.883 1.374-3.63 1.097-7.587 1.762-11.332.731-1.573-.432-2.16-1.901-1.936-3.37.054-.336.145-.673.218-1.008-1.005.527-1.966 1.151-2.892 1.739-2.239 1.404-4.532 2.999-7.132 3.694-2.82.732-6.123.048-7.26-2.926v-.096a41.72 41.72 0 0 1-7.666 2.837c-4.797 1.2-10.406 1.535-14.465-1.751-.738-.598-1.39-1.295-1.936-2.07l-26.958 14.76c-3.074 1.8-5.857-2.944-2.79-4.731 9.075-5.315 18.52-10.034 27.703-15.186a16.29 16.29 0 0 1 1.059-8.644c2.795-6.777 8.41-12.643 13.957-17.327 4.876-4.115 10.829-8.565 17.127-10.196l-.03-.054zm82.13 38.757c3.63 0 3.63 5.399 0 5.399s-3.623-5.399 0-5.399zm-78.197-33.682c-1.095-.229-3.2.371-4.107.75-5.845 2.398-11.205 6.4-15.773 10.706-4.307 4.066-9.534 9.392-10.744 15.39-.07.397-.115.797-.133 1.2l1.966-1.164c10.037-6.1 19.632-13.195 27.025-22.366.834-1.043 2.123-2.477 2.02-3.898a1.21 1.21 0 0 0-.126-.6.55.55 0 0 0-.128-.042v.024z" opacity=".5" style="mix-blend-mode:multiply" fill="#d6d5c7"/><path fill="#e75382" d="M134.147 196.46c2.329-.599 5.07-.809 7.157.6 2.729 1.836 3.025 5.482 1.893 8.307-1.306 3.245-4.09 5.998-6.455 8.553-2.327 2.482-4.8 4.824-7.405 7.018a134.33 134.33 0 0 1-16.546 11.792 144.15 144.15 0 0 1-3.902 2.326c.676.806 1.59 1.38 2.613 1.644 3.104.881 6.903 0 10.157-1.151a37.95 37.95 0 0 0 9.323-4.769c2.741-1.902 5.264 2.105 3.352 4.306-.2.228-.538 1.038-.798 1.476l.381-.042c1.682-.378 3.237-1.523 4.67-2.399l.932-.6.472-.3c2.916-1.8 6.007-3.539 9.552-3.461 2.233.048 3.534 2.855 2.227 4.445-.055.138-.11.276-.145.383-.127.397-.236.81-.345 1.2 2.323-.116 4.615-.586 6.794-1.391 3.346-1.092 6.262-2.999 9.528-4.199 2.656-.983 4.568 2.765 2.687 4.582-.811.715-1.508 1.546-2.07 2.466a12.63 12.63 0 0 0 1.162.083 23.31 23.31 0 0 0 2.59 0 30.61 30.61 0 0 0 5.166-.851c3.437-.84 6.764-2.051 10.128-3.137 6.866-2.226 14.163-3.809 21.174-1.2 3.304 1.235 1.864 6.538-1.47 5.29-6.31-2.357-12.602-.695-18.755 1.332l-.605.204c-2.25.755-4.489 1.542-6.697 2.177-4.56 1.313-9.329 2.135-14.072 1.44-2.305-.33-4.277-1.668-4.477-3.899-1.277.504-2.564.983-3.883 1.374-3.63 1.097-7.587 1.762-11.332.731-1.573-.432-2.16-1.901-1.936-3.37.054-.336.145-.673.218-1.008-1.005.527-1.966 1.151-2.892 1.739-2.239 1.404-4.532 2.999-7.132 3.694-2.82.732-6.123.048-7.26-2.926v-.096a41.72 41.72 0 0 1-7.666 2.837c-4.797 1.2-10.406 1.535-14.465-1.751-.738-.598-1.39-1.295-1.936-2.07l-26.958 14.76c-3.074 1.8-5.857-2.944-2.79-4.731 9.075-5.315 18.52-10.034 27.703-15.186a16.29 16.29 0 0 1 1.059-8.644c2.795-6.777 8.41-12.643 13.957-17.327 4.876-4.115 10.829-8.565 17.127-10.196l-.03-.054zm82.13 38.757c3.63 0 3.63 5.399 0 5.399s-3.623-5.399 0-5.399zm-78.198-33.682c-1.095-.229-3.2.371-4.107.75-5.845 2.398-11.205 6.4-15.773 10.706-4.307 4.066-9.534 9.392-10.744 15.39-.07.397-.115.797-.133 1.2l1.966-1.164c10.036-6.1 19.632-13.195 27.025-22.366.834-1.043 2.123-2.477 2.02-3.898a1.21 1.21 0 0 0-.126-.6.55.55 0 0 0-.128-.042v.024z"/><g fill-rule="nonzero"><path d="M142.17 120.092l-69.748-3.088c-2.41-.106-4.422 1.792-4.422 4.172 0 2.244 1.797 4.087 4.07 4.174l69.767 2.648c2.273.085 4.163-1.71 4.163-3.954 0-2.116-1.687-3.857-3.83-3.952zm38.38 18.818l-110.724-2.908c-1.549-.041-2.826 1.218-2.826 2.786 0 1.516 1.197 2.754 2.696 2.786L180.43 144c1.41.031 2.57-1.117 2.57-2.544 0-1.38-1.087-2.508-2.45-2.544zm2.999 13.002l-112.724-2.911C69.277 148.96 68 150.22 68 151.787c0 1.516 1.198 2.753 2.696 2.786l112.735 2.426c1.41.03 2.569-1.117 2.569-2.544 0-1.38-1.088-2.508-2.451-2.543zm-31.041 24.877L70.79 176c-1.536-.015-2.79 1.02-2.79 2.303 0 1.267 1.225 2.297 2.742 2.303l81.721.394c1.4.007 2.537-.937 2.537-2.106 0-1.153-1.111-2.092-2.492-2.104zm20.999-12.863l-103.674-1.925A2.78 2.78 0 0 0 67 164.778a2.78 2.78 0 0 0 2.743 2.777L173.425 169a2.54 2.54 0 0 0 2.575-2.538 2.54 2.54 0 0 0-2.493-2.536z" opacity=".5" style="mix-blend-mode:multiply" fill="#d6d5c7"/><path fill="#3180f1" d="M151.17 117.092l-69.747-3.088c-2.41-.106-4.423 1.792-4.423 4.172 0 2.244 1.797 4.087 4.07 4.173l69.767 2.648c2.273.086 4.163-1.709 4.163-3.953 0-2.116-1.687-3.857-3.83-3.952z"/><path fill="#0c395b" d="M190.55 135.91l-110.724-2.908c-1.549-.041-2.826 1.218-2.826 2.786 0 1.516 1.197 2.754 2.696 2.786L190.43 141c1.41.031 2.57-1.117 2.57-2.544 0-1.38-1.087-2.508-2.45-2.544zm1.999 13.002l-112.724-2.911C78.277 145.96 77 147.22 77 148.787c0 1.516 1.198 2.754 2.696 2.786L192.431 154c1.41.03 2.569-1.117 2.569-2.543 0-1.38-1.088-2.509-2.451-2.544zm-31.041 24.877L79.79 173c-1.536-.015-2.79 1.02-2.79 2.303 0 1.267 1.225 2.296 2.742 2.303l81.721.394c1.4.007 2.537-.937 2.537-2.106 0-1.153-1.111-2.092-2.492-2.105zm21.999-12.863l-103.674-1.925A2.78 2.78 0 0 0 77 161.778a2.78 2.78 0 0 0 2.743 2.777L183.425 166a2.54 2.54 0 0 0 2.575-2.538 2.54 2.54 0 0 0-2.493-2.536z"/><path fill="#f4f3e4" d="M150 25.429h-2.571v10.285H150zm-87.044 3.877v3.7l3.317.012c1.631 0 2.66-.396 2.66-1.873 0-1.443-1.029-1.84-2.66-1.84h-3.317zm0-6.3v3.602h3.032c1.468 0 2.61-.32 2.61-1.817 0-1.455-1.165-1.786-2.628-1.786h-3.014zm3.099-2.714c3.454 0 5.627 1.333 5.627 4.275.01.709-.192 1.404-.577 1.99a3.33 3.33 0 0 1-1.575 1.28c1.358.475 2.47 1.796 2.47 3.459 0 2.964-2.024 4.418-5.585 4.418H60V20.286l6.055.006zm10.594 9.858c0 1.616 1.065 2.916 2.747 2.916 1.637 0 2.746-1.244 2.746-2.916s-1.11-2.917-2.746-2.917c-1.682 0-2.747 1.3-2.747 2.917zm8.208 5.299h-2.802v-1.177c-.692.852-1.726 1.442-3.187 1.442-2.935 0-5.154-2.392-5.154-5.57s2.22-5.573 5.154-5.573c1.461 0 2.483.59 3.187 1.453v-1.168h2.802v10.593zm12-6.64v6.905h-2.934V29.75c0-1.567-.785-2.428-2.119-2.428-1.256 0-2.299.816-2.299 2.45v5.943h-2.934V24.863h2.857v1.276c.772-1.152 1.962-1.569 3.194-1.569 2.468 0 4.228 1.713 4.228 4.23m4.655 1.35c0 1.616 1.065 2.916 2.747 2.916 1.637 0 2.749-1.244 2.749-2.916s-1.112-2.917-2.749-2.917c-1.682 0-2.747 1.3-2.747 2.917zm8.21 5.299h-2.802v-1.177c-.694.852-1.726 1.442-3.189 1.442-2.933 0-5.153-2.392-5.153-5.57s2.22-5.573 5.153-5.573c1.463 0 2.485.59 3.189 1.453v-1.168h2.801v10.593zm11.999-6.64v6.905h-2.934V29.75c0-1.567-.784-2.428-2.12-2.428-1.255 0-2.297.816-2.297 2.45v5.943h-2.934V24.863h2.848v1.276c.773-1.152 1.962-1.568 3.196-1.568 2.467 0 4.227 1.713 4.227 4.23m4.664 1.349c0 1.616 1.065 2.916 2.747 2.916 1.637 0 2.747-1.244 2.747-2.916s-1.11-2.917-2.747-2.917c-1.682 0-2.747 1.3-2.747 2.917zm8.207 5.299h-2.8v-1.177c-.693.852-1.726 1.442-3.188 1.442-2.935 0-5.154-2.392-5.154-5.57s2.219-5.573 5.154-5.573c1.462 0 2.483.59 3.187 1.453v-1.168h2.801v10.593zm9.927-7.652c-.828-.415-2.153-.851-3.325-.863-1.067 0-1.604.382-1.604.963 0 .612.753.766 1.7.907l.926.141c2.26.35 3.52 1.379 3.52 3.171 0 2.188-1.765 3.598-4.79 3.598-1.42 0-3.282-.272-4.64-1.247l1.11-2.164c.892.6 1.987 1.038 3.551 1.038 1.302 0 1.927-.372 1.927-.994 0-.514-.527-.798-1.733-.973l-.85-.121c-2.41-.337-3.605-1.41-3.605-3.215 0-2.176 1.657-3.465 4.402-3.465a9.22 9.22 0 0 1 4.359 1.01l-.948 2.214zm10.198 2.172c0 1.528 1.056 2.77 2.711 2.77 1.61 0 2.698-1.198 2.698-2.77s-1.088-2.781-2.698-2.781c-1.655 0-2.711 1.243-2.711 2.781zm5.319-3.938v-1.176h2.842v9.7c0 3.393-2.255 5.445-5.812 5.445-1.7 0-3.498-.437-4.708-1.276l1.025-2.325c1.05.7 2.287 1.077 3.554 1.08 1.8 0 3.066-.982 3.066-2.804v-.741c-.733.883-1.822 1.43-3.31 1.43-2.62 0-4.958-2.15-4.958-5.392s2.334-5.4 4.958-5.4c1.5 0 2.599.567 3.332 1.462m14.853 2.775v6.905h-2.933V29.75c0-1.567-.786-2.428-2.12-2.428-1.256 0-2.299.816-2.299 2.45v5.943h-2.934V24.863h2.85v1.276c.772-1.152 1.962-1.568 3.194-1.568 2.468 0 4.228 1.713 4.228 4.23m6.014 4.759c.002.424-.122.84-.357 1.195a2.14 2.14 0 0 1-.96.794c-.392.164-.824.207-1.241.125a2.15 2.15 0 0 1-1.1-.587c-.3-.3-.505-.684-.587-1.1s-.039-.849.125-1.241.44-.727.794-.961.77-.359 1.195-.356a2.18 2.18 0 0 1 2.131 2.13z"/><path fill="#fae200" d="M138.039 16.071l2.629.778 2.665.573c1.787.312 3.598.46 5.412.443 1.812.005 3.62-.156 5.403-.48l2.655-.59 2.618-.795.865 2.068c-1.57 1.373-3.446 2.303-5.41 2.957a20.55 20.55 0 0 1-12.277.073c-1.974-.631-3.864-1.54-5.456-2.893l.896-2.134z"/></g></svg>