<svg width="40" height="40" viewBox="0 0 40 40" fill="none" xmlns="http://www.w3.org/2000/svg">
<rect width="40" height="40" fill="white"/>
<circle cx="20" cy="20" r="19.5" stroke="#D0D5DD"/>
<path fill-rule="evenodd" clip-rule="evenodd" d="M14.3761 14.5537C14.0713 14.9457 14.099 15.5124 14.4592 15.8725L18.5872 20.0003L14.4591 24.1281C14.069 24.5182 14.069 25.1508 14.4591 25.541L14.5532 25.6241C14.9452 25.9288 15.5119 25.9011 15.872 25.541L19.9998 21.4129L24.1277 25.541C24.5178 25.9311 25.1504 25.9311 25.5406 25.541L25.6237 25.4469C25.9284 25.0549 25.9007 24.4882 25.5406 24.1281L21.4124 20.0003L25.5405 15.8725C25.9306 15.4823 25.9306 14.8498 25.5405 14.4596L25.4464 14.3765C25.0545 14.0718 24.4877 14.0995 24.1276 14.4596L19.9998 18.5868L15.8721 14.4596C15.4819 14.0695 14.8494 14.0695 14.4592 14.4596L14.3761 14.5537Z" fill="#192833"/>
</svg>
