<svg xmlns="http://www.w3.org/2000/svg" xmlns:xlink="http://www.w3.org/1999/xlink" width="204" height="549" xmlns:v="https://vecta.io/nano"><defs><linearGradient id="A" x1=".015%" x2="100%" y1="49.988%" y2="49.988%"><stop offset="0%" stop-color="#fff" stop-opacity="0"/><stop offset="100%" stop-color="#fff" stop-opacity=".5"/></linearGradient><linearGradient id="B" x1="59.155%" x2="112.089%" y1="54.379%" y2="29.968%"><stop offset="0%" stop-color="#fff" stop-opacity="0"/><stop offset="100%" stop-color="#fff" stop-opacity=".5"/></linearGradient><linearGradient id="C" x1="66.974%" x2="41.393%" y1="44.635%" y2="56.89%"><stop offset="0%" stop-color="#fff" stop-opacity="0"/><stop offset="100%" stop-color="#fff" stop-opacity=".5"/></linearGradient><linearGradient id="D" x1="63.905%" x2="17.613%" y1="44.346%" y2="133.583%"><stop offset="0%" stop-color="#fff" stop-opacity="0"/><stop offset="100%" stop-color="#fff" stop-opacity=".5"/></linearGradient><linearGradient id="E" x1="75.747%" x2="21.496%" y1="51.08%" y2="70.141%"><stop offset="0%" stop-color="#fff" stop-opacity="0"/><stop offset="100%" stop-color="#fff" stop-opacity=".5"/></linearGradient><linearGradient id="F" x1="49.981%" x2="49.981%" y1="-.353%" y2="99.849%"><stop offset="0%" stop-color="#fff"/><stop offset="24.56%" stop-color="#eef4f9"/><stop offset="100%" stop-color="#b8d2e5"/></linearGradient><linearGradient id="G" x1="6.704%" x2="52.478%" y1="48.806%" y2="49.621%"><stop offset="0%" stop-color="#fff"/><stop offset="49.83%" stop-color="#dce9f2"/><stop offset="100%" stop-color="#b8d2e5"/></linearGradient><linearGradient id="H" x1="67.491%" x2="41.492%" y1="49.218%" y2="50.068%"><stop offset="0%" stop-color="#fff"/><stop offset="24.56%" stop-color="#eef4f9"/><stop offset="100%" stop-color="#b8d2e5"/></linearGradient><linearGradient id="I" x1="3.26%" x2="70.311%" y1="50.268%" y2="49.481%"><stop offset="0%" stop-color="#fff"/><stop offset="24.56%" stop-color="#eef4f9"/><stop offset="100%" stop-color="#b8d2e5"/></linearGradient><linearGradient id="J" x1="6.704%" x2="52.478%" y1="48.806%" y2="49.621%"><stop offset="0%" stop-color="#404f7e"/><stop offset="100%" stop-color="#000b57"/></linearGradient><linearGradient id="K" x1=".086%" x2="100.012%" y1="49.903%" y2="49.903%"><stop offset="0%" stop-color="#fff"/><stop offset="100%" stop-color="#277bab"/></linearGradient><linearGradient id="L" x1="18.477%" x2="128.706%" y1="49.786%" y2="51.704%"><stop offset="0%" stop-color="#e1ecf4"/><stop offset="100%" stop-color="#277bab"/></linearGradient><linearGradient id="M" x1="37.848%" x2="121.233%" y1="67.703%" y2="-53.738%"><stop offset="0%" stop-color="#e1ecf4"/><stop offset="100%" stop-color="#277bab"/></linearGradient><linearGradient id="N" x1="-.144%" x2="100.146%" y1="50.118%" y2="50.118%"><stop offset="0%" stop-color="#fff"/><stop offset="100%" stop-color="#b8d2e5"/></linearGradient><linearGradient id="O" x1="49.776%" x2="50.285%" y1="84.591%" y2="7.802%"><stop offset="0%" stop-color="#e1ecf4"/><stop offset="100%" stop-color="#277bab"/></linearGradient><linearGradient id="P" x1="-.11%" x2="99.78%" y1="50.143%" y2="50.143%"><stop offset="0%" stop-color="#fff"/><stop offset="100%" stop-color="#b8d2e5"/></linearGradient><linearGradient id="Q" x1="41.777%" x2="52.524%" y1="45.442%" y2="51.409%"><stop offset="0%" stop-color="#e1ecf4"/><stop offset="100%" stop-color="#277bab"/></linearGradient><linearGradient id="R" x1="43.21%" x2="124.931%" y1="49.514%" y2="55.292%"><stop offset="0%" stop-color="#e1ecf4"/><stop offset="100%" stop-color="#277bab"/></linearGradient><linearGradient id="S" x1="16.149%" x2="59.58%" y1="82.203%" y2="40.86%"><stop offset="0%" stop-color="#e1ecf4"/><stop offset="100%" stop-color="#b8d2e5"/></linearGradient><linearGradient id="T" x1="-19.073%" x2="46.52%" y1="116.203%" y2="53.236%"><stop offset="0%" stop-color="#e1ecf4"/><stop offset="100%" stop-color="#277bab"/></linearGradient><linearGradient id="U" x1="9.014%" x2="62.785%" y1="59.14%" y2="47.122%"><stop offset="0%" stop-color="#e1ecf4"/><stop offset="100%" stop-color="#277bab"/></linearGradient><linearGradient id="V" x1="20.397%" x2="79.538%" y1="59.474%" y2="40.51%"><stop offset="0%" stop-color="#fff"/><stop offset="100%" stop-color="#b8d2e5"/></linearGradient><linearGradient id="W" x1="22.312%" x2="86.508%" y1="77.061%" y2="14.407%"><stop offset="0%" stop-color="#e1ecf4"/><stop offset="100%" stop-color="#277bab"/></linearGradient><linearGradient id="X" x1="40.501%" x2="94.272%" y1="52.111%" y2="40.092%"><stop offset="0%" stop-color="#e1ecf4"/><stop offset="100%" stop-color="#277bab"/></linearGradient><linearGradient id="Y" x1="20.418%" x2="79.586%" y1="59.547%" y2="40.502%"><stop offset="0%" stop-color="#fff"/><stop offset="100%" stop-color="#b8d2e5"/></linearGradient><linearGradient id="Z" x1="19.733%" x2="51.397%" y1="186.145%" y2="43.756%"><stop offset="0%" stop-color="#e1ecf4"/><stop offset="100%" stop-color="#277bab"/></linearGradient><linearGradient id="a" x1="-15.857%" x2="37.914%" y1="64.739%" y2="52.721%"><stop offset="0%" stop-color="#e1ecf4"/><stop offset="100%" stop-color="#277bab"/></linearGradient><linearGradient id="b" x1="35.493%" x2="72.661%" y1="60.233%" y2="34.158%"><stop offset="0%" stop-color="#fff"/><stop offset="100%" stop-color="#b8d2e5"/></linearGradient><linearGradient id="c" x1="68.77%" x2="180.915%" y1="42.952%" y2=".523%"><stop offset="0%" stop-color="#e1ecf4"/><stop offset="100%" stop-color="#277bab"/></linearGradient><linearGradient id="d" x1="-.055%" x2="99.668%" y1="49.962%" y2="49.962%"><stop offset="0%" stop-color="#fff"/><stop offset="100%" stop-color="#b8d2e5"/></linearGradient><linearGradient id="e" x1="60.276%" x2="34.791%" y1="58.32%" y2="37.613%"><stop offset="0%" stop-color="#e1ecf4"/><stop offset="100%" stop-color="#b8d2e5"/></linearGradient><linearGradient id="f" x1="-.731%" x2="99.421%" y1="49.953%" y2="49.953%"><stop offset="0%" stop-color="#fff"/><stop offset="100%" stop-color="#b8d2e5"/></linearGradient><linearGradient id="g" x1=".007%" x2="99.937%" y1="50.142%" y2="50.142%"><stop offset="0%" stop-color="#fff"/><stop offset="100%" stop-color="#b8d2e5"/></linearGradient><linearGradient id="h" x1="52.328%" x2="3.395%" y1="50.919%" y2="31.062%"><stop offset="0%" stop-color="#e1ecf4"/><stop offset="100%" stop-color="#277bab"/></linearGradient><linearGradient id="i" x1="-.846%" x2="99.306%" y1="50.173%" y2="50.173%"><stop offset="0%" stop-color="#fff"/><stop offset="100%" stop-color="#b8d2e5"/></linearGradient><linearGradient id="j" x1=".1%" x2="99.889%" y1="49.969%" y2="49.969%"><stop offset="0%" stop-color="#fff"/><stop offset="100%" stop-color="#b8d2e5"/></linearGradient><linearGradient id="k" x1="51.144%" x2="6.359%" y1="50.697%" y2="25.248%"><stop offset="0%" stop-color="#e1ecf4"/><stop offset="100%" stop-color="#277bab"/></linearGradient><linearGradient id="l" x1="-.051%" x2="99.745%" y1="50.043%" y2="50.043%"><stop offset="0%" stop-color="#fff"/><stop offset="100%" stop-color="#b8d2e5"/></linearGradient><linearGradient id="m" x1="-.1%" x2="99.92%" y1="49.965%" y2="49.965%"><stop offset="0%" stop-color="#fff"/><stop offset="100%" stop-color="#b8d2e5"/></linearGradient><linearGradient id="n" x1="60.515%" x2="-6.203%" y1="71.066%" y2="-63.251%"><stop offset="0%" stop-color="#e1ecf4"/><stop offset="100%" stop-color="#bad4e5"/></linearGradient><linearGradient id="o" x1="51.445%" x2="44.5%" y1="54.798%" y2="31.725%"><stop offset="0%" stop-color="#e1ecf4"/><stop offset="100%" stop-color="#b8d2e5"/></linearGradient><linearGradient id="p" x1="-.032%" x2="99.954%" y1="50.06%" y2="50.06%"><stop offset="0%" stop-color="#fff"/><stop offset="100%" stop-color="#b8d2e5"/></linearGradient><linearGradient id="q" x1="63.377%" x2="42.989%" y1="49.27%" y2="50.386%"><stop offset="0%" stop-color="#e1ecf4"/><stop offset="100%" stop-color="#b8d2e5"/></linearGradient><linearGradient id="r" x1="39.188%" x2="72.751%" y1="46.025%" y2="50%"><stop offset="0%" stop-color="#3485f7"/><stop offset="100%" stop-color="#1a57cf"/></linearGradient><linearGradient id="s" x1="49.785%" x2="49.785%" y1=".065%" y2="100.045%"><stop offset="0%" stop-color="#ee8e7e"/><stop offset="100%" stop-color="#e45c42"/></linearGradient><linearGradient id="t" x1="50.164%" x2="50.164%" y1="-.117%" y2="100.18%"><stop offset="0%" stop-color="#001244"/><stop offset="100%" stop-color="#000030"/></linearGradient><linearGradient id="u" x1="39.188%" x2="55.654%" y1="39.916%" y2="50.337%"><stop offset="0%" stop-color="#3485f7"/><stop offset="100%" stop-color="#1a57cf"/></linearGradient><linearGradient id="v" x1="39.608%" x2="54.214%" y1="42.773%" y2="51.855%"><stop offset="0%" stop-color="#001244"/><stop offset="100%" stop-color="#000030"/></linearGradient><linearGradient id="w" x1="39.188%" x2="55.654%" y1="39.561%" y2="50.349%"><stop offset="0%" stop-color="#3485f7"/><stop offset="100%" stop-color="#1a57cf"/></linearGradient><linearGradient id="x" x1="50.094%" x2="50.094%" y1="-.129%" y2="100.001%"><stop offset="0%" stop-color="#ee8e7e"/><stop offset="100%" stop-color="#e45c42"/></linearGradient><linearGradient id="y" x1="50.006%" x2="50.006%" y1="0%" y2="99.957%"><stop offset="0%" stop-color="#fff"/><stop offset="100%" stop-color="#b8d2e5"/></linearGradient><linearGradient id="z" x1="50.006%" x2="50.006%" y1="0%" y2="99.957%"><stop offset="0%" stop-color="#404f7e"/><stop offset="100%" stop-color="#000b57"/></linearGradient><linearGradient id="AA" x1="50.006%" x2="50.006%" y1="-.038%" y2="99.882%"><stop offset="0%" stop-color="#fff"/><stop offset="100%" stop-color="#b8d2e5"/></linearGradient><linearGradient id="AB" x1="44.137%" x2="53.066%" y1="37.58%" y2="50.415%"><stop offset="0%" stop-color="#3485f7"/><stop offset="100%" stop-color="#1a57cf"/></linearGradient><linearGradient id="AC" x1="50.01%" x2="50.01%" y1="27.556%" y2="88.657%"><stop offset="0%" stop-color="#ee8e7e"/><stop offset="100%" stop-color="#e45c42"/></linearGradient><linearGradient id="AD" x1="50.185%" x2="50.185%" y1="26.292%" y2="88.106%"><stop offset="0%" stop-color="#001244"/><stop offset="100%" stop-color="#000030"/></linearGradient><linearGradient id="AE" x1="50%" x2="50%" y1="-9.551%" y2="90.138%"><stop offset="0%" stop-color="#ffe579"/><stop offset="83.833%" stop-color="#feba57"/><stop offset="100%" stop-color="#feb755"/></linearGradient><linearGradient id="AF" x1="59.732%" x2="40.327%" y1="33.463%" y2="66.651%"><stop offset="0%" stop-color="#001244"/><stop offset="100%" stop-color="#000030"/></linearGradient><linearGradient id="AG" x1="49.947%" x2="49.947%" y1="73.384%" y2="29.058%"><stop offset="0%" stop-color="#ee8e7e"/><stop offset="100%" stop-color="#e45c42"/></linearGradient><linearGradient id="AH" x1="49.822%" x2="49.822%" y1="85.672%" y2="16.367%"><stop offset="0%" stop-color="#ee8e7e"/><stop offset="100%" stop-color="#e45c42"/></linearGradient><linearGradient id="AI" x1="49.924%" x2="49.924%" y1="26.135%" y2="88.22%"><stop offset="0%" stop-color="#001244"/><stop offset="100%" stop-color="#000030"/></linearGradient><linearGradient id="AJ" x1="92.494%" x2="71.009%" y1="48.443%" y2="49.23%"><stop offset="0%" stop-color="#fff"/><stop offset="100%" stop-color="#b8d2e5"/></linearGradient><linearGradient id="AK" x1="58.961%" x2="39.503%" y1="49.433%" y2="50.664%"><stop offset="0%" stop-color="#fff"/><stop offset="100%" stop-color="#b8d2e5"/></linearGradient><linearGradient id="AL" x1="-1.182%" x2="101.096%" y1="53.337%" y2="46.699%"><stop offset="0%" stop-color="#fff"/><stop offset="100%" stop-color="#b8d2e5"/></linearGradient><linearGradient id="AM" x1=".932%" x2="99.042%" y1="51.152%" y2="48.857%"><stop offset="0%" stop-color="#fff"/><stop offset="100%" stop-color="#b8d2e5"/></linearGradient><linearGradient id="AN" x1="-1.182%" x2="101.096%" y1="53.337%" y2="46.699%"><stop offset="0%" stop-color="#404f7e"/><stop offset="100%" stop-color="#000b57"/></linearGradient><linearGradient id="AO" x1="1.516%" x2="98.502%" y1="50.53%" y2="49.472%"><stop offset="0%" stop-color="#fff"/><stop offset="100%" stop-color="#b8d2e5"/></linearGradient><linearGradient id="AP" x1="50.024%" x2="50.024%" y1="27.711%" y2="89.132%"><stop offset="0%" stop-color="#ee8e7e"/><stop offset="100%" stop-color="#e45c42"/></linearGradient><linearGradient id="AQ" x1="50.043%" x2="50.043%" y1="27.896%" y2="89.274%"><stop offset="0%" stop-color="#001244"/><stop offset="100%" stop-color="#000030"/></linearGradient><linearGradient id="AR" x1="-2.395%" x2="95.469%" y1="98.141%" y2="50%"><stop offset="0%" stop-color="#ffe579"/><stop offset="100%" stop-color="#feb755" stop-opacity="0"/></linearGradient><linearGradient id="AS" x1=".932%" x2="99.042%" y1="51.152%" y2="48.857%"><stop offset="0%" stop-color="#404f7e"/><stop offset="100%" stop-color="#000b57"/></linearGradient><linearGradient id="AT" x1="41.058%" x2="55.234%" y1="41.342%" y2="54.619%"><stop offset="0%" stop-color="#001244"/><stop offset="100%" stop-color="#000030"/></linearGradient><linearGradient id="AU" x1="62.914%" x2="44.707%" y1="6.154%" y2="106.501%"><stop offset="0%" stop-color="#001244"/><stop offset="100%" stop-color="#000030"/></linearGradient><linearGradient id="AV" x1="54.587%" x2="48.404%" y1="69.57%" y2="43.324%"><stop offset="0%" stop-color="#fff"/><stop offset="100%" stop-color="#b8d2e5"/></linearGradient><linearGradient id="AW" x1="54.834%" x2="48.368%" y1="71.62%" y2="42.624%"><stop offset="0%" stop-color="#fff"/><stop offset="100%" stop-color="#b8d2e5"/></linearGradient><linearGradient id="AX" x1="49.988%" x2="49.988%" y1="94.692%" y2="4.766%"><stop offset="0%" stop-color="#b8d2e5"/><stop offset="61.673%" stop-color="#e4eef5"/><stop offset="100%" stop-color="#fff"/></linearGradient><linearGradient id="AY" x1="49.988%" x2="49.988%" y1="50%" y2="-218.886%"><stop offset="0%" stop-color="#b8d2e5"/><stop offset="100%" stop-color="#fff"/></linearGradient><linearGradient id="AZ" x1="43.874%" x2="119.686%" y1="50%" y2="50%"><stop offset="0%" stop-color="#fff"/><stop offset="100%" stop-color="#b8d2e5"/></linearGradient><linearGradient id="Aa" x1="49.848%" x2="49.848%" y1="16.989%" y2="73.529%"><stop offset="0%" stop-color="#fff"/><stop offset="100%" stop-color="#b8d2e5"/></linearGradient><linearGradient id="Ab" x1=".015%" x2="99.986%" y1="49.963%" y2="49.963%"><stop offset="0%" stop-color="#404f7e"/><stop offset="100%" stop-color="#000b57"/></linearGradient><path id="Ac" d="M4 0h196a4 4 0 0 1 4 4v286H0V4a4 4 0 0 1 4-4z"/><path id="Ad" d="M177.68 195.08v2.723l-14.003 2.723-15.33-1.362v-2.722l15.33 1.36z"/><path id="Ae" d="M55.75 20.096L49.916 37.73 32.25 31.992l5.834-17.633z"/><path id="Af" d="M51.732 17.633l1.296 2.788 3.436 17.697-1.33-2.82z"/><path id="Ag" d="M55.135 35.298l1.33 2.82-33.126 6.418-1.297-2.787z"/><path id="Ah" d="M135.218 210.216v7.26l-29.172 9.076-32.738-3.08v-7.26l22.56 2.107 10.178.972 8.492-2.658z"/><path id="Ai" d="M95.414 191.676v1.912l-10.664 1.46v-1.913z"/></defs><g fill="none" fill-rule="evenodd"><rect width="204" height="549" fill="#e2e9f1" opacity=".7" rx="4"/><mask id="Aj" fill="#fff"><use xlink:href="#Ac"/></mask><g mask="url(#Aj)"><g fill-rule="nonzero"><path fill="url(#A)" d="M214.11 189.155s-3.972 33.087-23.874 35.585c-19.9 2.54-43.775.37-48.484 21.704s-60.81 22.81-60.81 22.81h133.17v-80.098z" opacity=".9"/><path fill="url(#B)" d="M214.11 126.133s-50.082-11.917-61.507 17.772-80.22 78.255-97.05 61.752S-.22 224.74-.22 224.74v44.513h147.747s35.054-28.338 19.37-57.903 18.837-64.333 47.174-43.98v-41.237h.04z" opacity=".9"/><path fill="url(#C)" d="M128.075-3.795S93.39-4 87.453 19.342-.18 50.177-.18 50.177v18.55S57.477 40.02 105.962 57.015c48.485 16.954 108.2-7.125 108.2-7.125V-3.795h-86.077zm33.825 36.24c-18.387 0-33.25-5.733-33.25-12.776 0-7.084 14.905-12.776 33.25-12.776 18.387 0 33.252 5.733 33.252 12.776 0 7.084-14.865 12.777-33.25 12.777z" opacity=".9"/><path fill="url(#D)" d="M214.11 111.554V156.2c-20.393-7.535-13.145 10.852-26.126 12.408-17.404 2.088-20.966-2.54-25.184 8.927 0 0-5.528-14.906 10.4-18.714s-1.843-48.158 37.47-47.38c1.146-.04 2.293.04 3.44.123z"/><path fill="url(#E)" d="M147.977 188.05l-167.772-7.862V121.22L102.85 65.7s78.706 43.653 45.127 122.36z" opacity=".9"/><g opacity=".9"><path fill="url(#A)" d="M214.11 189.155s-3.972 33.087-23.874 35.585c-19.9 2.54-43.775.37-48.484 21.704s-60.81 22.81-60.81 22.81h133.17v-80.098z"/><path fill="url(#B)" d="M214.11 126.133s-50.082-11.917-61.507 17.772-80.22 78.255-97.05 61.752S-.22 224.74-.22 224.74v44.513h147.747s35.054-28.338 19.37-57.903 18.837-64.333 47.174-43.98v-41.237h.04z"/><path fill="url(#C)" d="M128.075-3.795S93.39-4 87.453 19.342-.18 50.177-.18 50.177v18.55S57.477 40.02 105.962 57.015c48.485 16.954 108.2-7.125 108.2-7.125V-3.795h-86.077zm33.825 36.24c-18.387 0-33.25-5.733-33.25-12.776 0-7.084 14.905-12.776 33.25-12.776 18.387 0 33.252 5.733 33.252 12.776 0 7.084-14.865 12.777-33.25 12.777z"/><path fill="url(#E)" d="M147.977 188.05l-167.772-7.862V121.22L102.85 65.7s78.706 43.653 45.127 122.36z"/></g><path fill="url(#F)" d="M168.766 191.45h-4.05v-7.163h4.05a2.53 2.53 0 0 1 2.528 2.528v2.107c0 1.36-1.134 2.528-2.528 2.528zm-2.334-1.718h2.334a.8.8 0 0 0 .81-.81v-2.107a.8.8 0 0 0-.81-.81h-2.334v3.727z"/><use xlink:href="#Ad" fill="url(#G)"/><path fill="url(#H)" d="M177.68 195.08l-14.003 2.723-15.33-1.36 14.456-1.362z"/><path fill="url(#I)" d="M168.28 182.827v8.363c0 1.393-.55 2.7-1.46 3.63-.453.486-1.004.875-1.62 1.167-.65.324-1.394.486-2.204.486-.778 0-1.524-.162-2.204-.486-.616-.26-1.167-.68-1.62-1.167-.908-.94-1.46-2.204-1.46-3.63v-8.363h10.567z"/><use xlink:href="#Ad" fill="url(#J)" opacity=".2"/><g transform="translate(107.213 71)"><path fill="#b8d2e5" d="M15.17 29.496c-7.326 0-13.3-5.964-13.3-13.3s5.964-13.29 13.3-13.29 13.3 5.964 13.3 13.3-5.965 13.3-13.3 13.3zm0-25.704A12.44 12.44 0 0 0 2.755 16.207 12.44 12.44 0 0 0 15.17 28.621a12.44 12.44 0 0 0 12.414-12.414A12.44 12.44 0 0 0 15.17 3.792z"/><path fill="url(#K)" d="M24.667 13.095l-.713 2.237c-1.038 3.306-4.052 5.737-7.715 5.866-4.635.162-8.557-3.435-8.72-8.07-.03-.973.098-1.945.4-2.82l.713-2.237c-.292.875-.42 1.848-.39 2.82.162 4.635 4.084 8.233 8.72 8.07 3.662-.13 6.676-2.592 7.714-5.866z"/><path fill="url(#L)" d="M24.083 14.52a8.36 8.36 0 0 1-7.13 4.44c-4.636.163-8.558-3.435-8.72-8.07-.032-.972.097-1.945.39-2.82l-.713 2.236c-.292.876-.42 1.848-.4 2.82.163 4.636 4.085 8.233 8.72 8.07 3.112-.097 5.77-1.88 7.13-4.44.227-.454.454-.94.584-1.426l.713-2.237c-.162.486-.357.972-.584 1.426z"/><path fill="url(#M)" d="M16.336 2.172c4.636-.162 8.525 3.468 8.72 8.103.162 4.635-3.47 8.525-8.104 8.687s-8.557-3.436-8.72-8.07 3.468-8.557 8.103-8.72z"/><path fill="url(#N)" d="M26.806 8.265l-.68 2.237-8.395.292.68-2.237z"/><path fill="url(#O)" d="M18.41 8.557l-.68 2.237-.324-8.395.713-2.237z"/><circle cx="2.301" cy="17.568" r="2.172" fill="#b8d2e5"/><path fill="url(#P)" d="M18.12.162C22.753 0 26.643 3.63 26.837 8.265l-8.395.292L18.12.162z"/></g><g transform="translate(129.902 86.558)"><g fill="#b8d2e5"><circle cx="2.366" cy="17.179" r="2.172"/><path d="M50.337 25.023l-.8-.29 7.552-22.3-29.463-1.36-13.71 20.842-12.058-4.344.292-.8 11.442 4.116L27.162.194 58.246 1.62z"/></g><path fill="url(#Q)" d="M62.104 28.394l1.912 3.76L50.986 71.6l-1.913-3.76z"/><path fill="url(#R)" d="M49.073 67.84l1.913 3.76-28.945-9.4-1.945-3.76z"/><path fill="url(#S)" d="M62.07 28.394l-3.695 11.248-2.82 8.524-.972 2.918-1.2 3.598-4.31 13.16-28.945-9.432 13.03-39.415 23.597 7.65z"/><path fill="url(#T)" d="M49.95 46.06l1.912 3.76-.875 2.722-1.945-3.792z"/><path fill="url(#U)" d="M49.04 48.75l1.945 3.792-17.666-5.737-1.912-3.792z"/><path fill="url(#V)" d="M49.95 46.06l-.908 2.7-17.633-5.737.875-2.69z"/><path fill="url(#W)" d="M45.864 53.385l1.913 3.792-.875 2.723-1.913-3.792z"/><path fill="url(#X)" d="M44.99 56.108l1.913 3.792-17.666-5.737-1.912-3.792z"/><path fill="url(#Y)" d="M45.864 53.385l-.875 2.723-17.665-5.737.875-2.723z"/><path fill="url(#Z)" d="M55.75 20.096l1.912 3.793-5.834 17.633-1.913-3.793z"/><path fill="url(#a)" d="M49.916 37.73l1.913 3.793-17.666-5.737-1.912-3.793z"/><use xlink:href="#Ae" fill="url(#b)"/><use xlink:href="#Ae" fill="url(#c)"/></g><g transform="translate(29.096 75.862)"><path fill="#b8d2e5" d="M8.006 39.61L.292 14.845 60.192.097l5.802 25.9-.843.162-5.607-25.024L1.36 15.46l7.196 23.11 18.184-5.186.227.8z"/><use xlink:href="#Af" fill="url(#d)"/><path fill="url(#e)" d="M51.732 17.633l3.403 17.665-33.094 6.45-3.436-17.666z"/><path fill="url(#f)" d="M48.102 20.615l1.296 2.82.39 1.977-1.33-2.82z"/><path fill="url(#g)" d="M48.458 22.592l1.33 2.82-14.132 2.723-1.297-2.788z"/><path fill="url(#h)" d="M48.102 20.615l.356 1.977-14.1 2.755-.39-1.977z"/><path fill="url(#i)" d="M44.795 27.325l1.297 2.787.39 1.977-1.33-2.787z"/><path fill="url(#j)" d="M45.152 29.302l1.33 2.787-9.238 1.816-1.33-2.82z"/><path fill="url(#k)" d="M44.795 27.325l.357 1.977-9.238 1.783-.356-1.978z"/><path fill="url(#l)" d="M28.75 17.925l1.296 2.82 2.172 11.15-1.33-2.788z"/><path fill="url(#m)" d="M30.9 29.107l1.33 2.788-9.724 1.88-1.297-2.788z"/><path fill="url(#n)" d="M28.75 17.925l2.14 11.182-9.692 1.88-2.17-11.15z"/><use xlink:href="#Af" fill="url(#o)"/><circle cx="65.573" cy="25.963" r="2.172" fill="#b8d2e5"/><use xlink:href="#Ag" fill="url(#p)"/><use xlink:href="#Ag" fill="url(#q)"/></g><path fill="url(#r)" d="M34.736 260.003c-.065.162-.194.325-.324.55-1.07 1.686-3.727 4.765-3.727 4.765s-8.33-.778-12.123-2.14l-.713-.3c-3.274-1.524-2.7-3.923 2.074-4.474 4.214-.454 7.164-3.922 9.757-3.954a2.8 2.8 0 0 1 1.037.194c1.167.486 2 .973 2.528 1.362.8.583 1.07 1.004 1.07 1.004s.227.292.39.778c.032.065.032.13.065.195.26.583.324 1.296-.033 2z"/><path fill="url(#s)" d="M38.658 252.775l-.194.26-3.728 4.894-.356.486s-1.07.13-2.366-.486l-.8-.454a6.66 6.66 0 0 1-1.978-2.204l.55-.778 4.15-5.705 4.732 3.987z"/><path fill="url(#t)" d="M34.8 257.832l3.63-4.765-1.782-1.524-3.306 4.506-.876 1.167c-.42 0-.875.097-1.33.26-2.3.8-4.926 3.305-8.46 3.662-2.528.292-3.9 1.102-4.116 2 3.76 1.36 12.123 2.14 12.123 2.14s2.658-3.08 3.727-4.765c.13-.194.227-.39.324-.55.357-.713.292-1.426.098-1.977 0-.033 0-.097-.033-.162z" opacity=".25"/><path fill="url(#u)" d="M104.134 189.73l-3.34 24.18-11.993 1.427s-21.62 6.58-27.94 14.877-22.204 25.348-22.204 25.348l-1.653-1.33-5.93-4.796s21.068-34.683 25.12-39.675c4.084-5.024 28.848-14.78 28.848-14.78l19.092-5.25z"/><path fill="url(#v)" d="M103.13 197.056l-2.334 16.888-11.993 1.426s-21.62 6.58-27.94 14.878-22.204 25.347-22.204 25.347l-1.653-1.33c2.982-4.894 20.972-34.4 24.7-38.993 4.083-5.024 28.847-14.78 28.847-14.78l12.577-3.437z" opacity=".3"/><path fill="url(#w)" d="M83.13 279.127s-7.877 4.506-12.285 4.182c-.8-.065-1.36-.227-1.718-.52l-.097-.097c-1.33-1.232 1.005-3.955 2.625-5.186 1.49-1.135 3.177-4.798 3.955-6.678a1.77 1.77 0 0 1 .842-.907c.26-.13.552-.195.843-.195h4.96s.162.098.388.26c.325.227.746.648.8 1.134.098.8-.323 8.006-.323 8.006z"/><path fill="url(#x)" d="M83.39 263.083l-.324 2.722-.616 5.316s-.972.778-2.593.875c-.972.065-2.204-.13-3.566-.875l.098-1.2.42-4.342.324-3.47 6.256.973z"/><use xlink:href="#Ah" fill="url(#y)"/><use xlink:href="#Ah" fill="url(#z)" opacity=".2"/><path fill="url(#AA)" d="M135.218 210.216l-20.68 6.418-8.492 2.658-10.178-.972-22.56-2.107 31.668-7.228z"/><path fill="url(#AB)" d="M130.55 208.498c-7.033 6.03-28.588 9.66-35.233 23.403s-9.66 33.094-9.66 33.094-.97.486-2.56.8c-.713.13-1.588.227-2.528.26-1.134 0-2.366-.098-3.728-.486-.55-.163-1.134-.325-1.717-.584 0 0-.94-38.734 13.32-57.793 3.663-4.895 7.78-9.595 11.442-13.484 3.987-4.246 7.456-7.585 9.336-9.335.907-.875 1.458-1.33 1.458-1.33l1.167.357 14.975 4.733 1.36.453 7.942 2.496s.065.616.097 1.686c.13 3.37-.324 11.118-5.672 15.72z"/><path fill="url(#AC)" d="M60.667 187.3s-2.27.227-5.38-.584-7.067 4.57-6.7 5.543c.39.973 3.533-1.718 5.64-1.33s3.857 1.232 7.455.162c3.598-1.102-1.005-3.792-1.005-3.792z"/><path fill="url(#AD)" d="M110.422 118.778c-.195.55-.454 1.102-.908 1.62s-.875.8-1.296.94c-1.362.4-2.464-.94-2.464-.94s-.162-2.463 1.038-4.473c.226-.356.486-.615.777-.778.908-.518 1.978-.194 2.53.033l.356.162s.55 1.653-.032 3.436z"/><path fill="url(#AE)" d="M142.35 178.7l-1.2 1.59-1.005 9.432c-.26 1.945-2.042 3.24-3.922 3.047-.162-.033-.292-.033-.454-.097-3.565-.908-7.325-1.62-11.053-2.172l-1.33-.195c-7.228 2.334-15.558 3.695-23.5 3.37l-1.88-.097s-.097-.907-.94-3.014c-2.3.032-3.792-1.718-3.792-1.718 8.46-10.6 7.617-19.19 7.617-19.19-18.022 24.472-40.387 22.17-40.387 22.17l-1.296-5.38c10.955-.227 27.8-19.35 33.2-32.446 1.2-2.95 3.08-5.575 5.284-7.81l.033-.033c3.954-4.084 8.88-7.034 12.673-8.914 1.686-.842 3.112-1.458 4.15-1.88l1.62-.615s1.394-.227 3.533-.325c.8-.032 1.718-.064 2.723-.032h.356c4.376.13 9.92 1.07 13.387 4.408 1.135 1.07 2.204 2.755 3.2 4.797.194.4.388.8.55 1.232 4.344 10.016 6.7 27.228 2.43 33.872z"/><path fill="url(#AF)" d="M122.382 134.466l-7.293 5.9s-8.362-2.367-17.406 5.8c3.955-4.084 8.882-7.034 12.674-8.914 1.686-.842 3.112-1.458 4.15-1.88l1.62-.615s1.394-.227 3.534-.325c.8.033 1.75 0 2.722.033z" opacity=".2"/><path fill="url(#AG)" d="M122.74 134.433s0 .033 0 0a7.38 7.38 0 0 1-5.867 5.738c-5.154 1.07-4.18-2.56-2.366-4.765 0 0 .454-2.464.032-4.862-.097-.584-.26-1.167-.486-1.686l1.848-1.36 6.03-4.505c.032 0 1.037 6.028.8 11.44z"/><path fill="url(#AH)" d="M121.96 122.992c.195 2.204-1.232 4.473-3.533 5.996 0 0-.13.097-.357.227-.518.292-1.037.55-1.62.778-.616.227-1.232.42-1.88.518a11.73 11.73 0 0 1-2.172.195c-2.204-.032-3.274-2.172-3.76-4.7-.032-.065-.032-.162-.032-.227-.033-.13-.033-.227-.065-.356-.227-1.362-.292-2.82-.292-4.085 0-2.106.195-3.727.195-3.727l.13-2.27 1.59-.162 2.95-.324 8.59 4.343.29 3.37c-.064.162-.064.292-.032.422z"/><path fill="url(#AI)" d="M125.138 120.14s-.162.324-.55.746c-.13.13-.26.29-.454.42-.097.065-.162.162-.26.227s-.194.162-.29.227c-.098.097-.227.162-.357.227s-.26.162-.39.227l-.42.194-.454.195c-1.134.39-2.593.615-4.473.39-.972-.13-1.945-.487-2.917-1.005-1.49-.8-2.885-2-4.084-3.2l-1.978-2.268-.745-1.005-.195-.324c-.356-.908.098-1.977 1.07-2.3 1.977-.68 5.057-1.556 7.91-1.427 4.603.195 8.6 8.687 8.6 8.687z"/><path fill="url(#AJ)" d="M114.992 192.454v4.797l-30.987 6.03H9v-4.83h75.005z"/><path fill="url(#AK)" d="M114.992 192.454l-30.987 5.996H9l37.47-5.996z"/><use xlink:href="#Ai" fill="url(#AL)"/><path fill="url(#AM)" d="M67.96 193.134h16.8v1.912h-16.8z"/><use xlink:href="#Ai" fill="url(#AN)" opacity=".2"/><path fill="url(#AO)" d="M95.414 191.676l-10.664 1.458h-16.8l10.664-1.458z"/><path fill="url(#AP)" d="M101.767 191.093c-.55 1.07-1.2 2.04-1.2 2.04s-6.872 1.394-9.886 0-3.014-2.593-4.83-1.718l-2.755 1.167c-.907.26-1.588.324-1.653-.13-.097-.907 2.7-4.343 5.154-4.894 2.463-.518 7.455 1.135 7.455 1.135s4.084.583 7.196-.26c1.847-.518 1.296 1.167.518 2.658z"/><path fill="url(#AQ)" d="M101.767 191.093c-.55 1.07-1.2 2.04-1.2 2.04s-6.872 1.394-9.886 0-3.014-2.593-4.83-1.718l-2.755 1.167c.973-1.037 2.302-2 3.5-2.27 2.464-.55 7.456 1.135 7.456 1.135s4.084.583 7.196-.26c.227-.064.39-.097.518-.097z" opacity=".2"/><path fill="url(#AR)" d="M142.35 178.7l-1.2 1.59c-2.658 3.046-7.293 5.964-12.966 8.297-.875.357-1.75.68-2.657 1.005-.714.26-1.427.486-2.172.746-7.228 2.334-15.56 3.695-23.5 3.37l-1.88-.096s-.065-.843-.292-1.945v-.033c-.162-.875-.42-1.912-.778-2.82-.26-.648-.583-1.264-.972-1.685 0 0 6.645-.52 13.257-2.723.875-.292 1.75-.616 2.626-.972 3.338-1.362 6.417-3.242 8.362-5.737 6.256-8.04 6.807-13.517 5.737-19.773l11.053-11.7 2.334-2.496c.195.4.4.8.55 1.232 2.593 5.932 4.506 14.456 4.668 21.75.194 4.894-.454 9.302-2.172 11.992z"/><path fill="url(#AS)" d="M67.96 193.134h16.8v1.912h-16.8z" opacity=".2"/><path fill="url(#AT)" d="M141.15 180.3l-1.005 9.432c-.26 1.945-2.042 3.24-3.922 3.047.097 3.37-.324 11.118-5.705 15.72-7.034 6.03-28.588 9.66-35.233 23.403s-9.66 33.094-9.66 33.094-.972.486-2.56.8l-.486 4.182c.324.227.745.648.8 1.134.162.8-.292 8.006-.292 8.006s-7.876 4.506-12.284 4.182c-.8-.065-1.362-.227-1.718-.52l-.098-.097s10.275-3.2 10.86-10.697c.065-.097.648-.907.907-2.27.195-.972.227-2.204-.226-3.662 0 0 .583-1.297 1.2-3.242.8-2.495 1.685-6.06 1.62-9.562-.13-6.223 6.224-31.44 14.814-38.637 4.732-3.954 16.692-13.3 26.514-24.083.292-.29.55-.616.8-.907.908-.324 1.783-.65 2.658-1.005 5.705-2.366 10.34-5.284 12.998-8.33z" opacity=".25"/><path fill="url(#AU)" d="M144.586 166.685c.064 1.783 0 3.5-.162 5.09-.033.097-.033.227-.033.324l-.26 1.815c-.096.55-.226 1.102-.388 1.62l-.292.94c-.292.844-.648 1.6-1.07 2.237l-1.2 1.59c-2.658 3.046-7.293 5.964-12.965 8.297-.875.357-1.75.68-2.658 1.005-.713.26-1.426.486-2.172.746-7.228 2.334-15.558 3.695-23.5 3.37l-1.88-.096-.29-1.945v-.033l-.033-.13c.065 0 8.622 0 21.912-4.894 13.322-4.894 27.227-11.636 17.405-40.452-2.237-6.515-8.72-8.136-20.13-5.996 0 0 2.366-2.367 2.82-5.705.227-1.653-.032-3.533-1.232-5.5 0 0-.13.097-.356.226-.4.227-1.005.584-1.62.778-.033-.13 2.98-5.12-.487-4.602-1.46.227-1.394-1.394-1.394-3.436.94.518 1.913.875 2.917 1.005 1.88.26 3.34.032 4.473-.4 0 .13.033.26.033.4 0 0 1.005 6.03.778 11.442v.032c4.376.13 9.918 1.07 13.387 4.408 1.134 1.07 2.204 2.755 3.21 4.797.194.4.388.8.55 1.232 2.56 5.997 4.44 14.52 4.636 21.847z" opacity=".2"/><path fill="url(#AV)" d="M19.243 136.443h69.754v46.675H19.243z"/><path fill="url(#AW)" d="M22.938 136.443h66.026v46.675H22.938z"/><path fill="url(#AX)" d="M19.243 136.443H85.27v46.675H19.243z"/></g><path fill="url(#AY)" d="M56.285 157.743l1.5 2.575h-5.593l-1.578-2.574h5.66zm-8.42-.362l1.842 2.937h-3.662l1.792-2.937h.028zm7.343-7.147l-4.583 7.5-1.533-2.567 3.043-4.944h3.073z"/><g fill-rule="nonzero"><path fill="url(#AZ)" d="M47.702 171.223H56.8v23.824h-9.108z"/><path fill="url(#Aa)" d="M54.12 171.223c-2.626.13-4.7 2.3-4.7 4.927v18.897h-8.07V176.15c0-2.723 2.204-4.927 4.927-4.927h7.844z"/><path fill="url(#Ab)" d="M84.005 198.45h-42.69l15.494-3.403H41.316l-22.073 3.403H9v4.83h75.005l30.987-6.03v-4.797z" opacity=".2"/></g></g></g></svg>