<svg width="81" height="16" viewBox="0 0 81 16" fill="none" xmlns="http://www.w3.org/2000/svg">
<path fill-rule="evenodd" clip-rule="evenodd" d="M58.2075 12.9118H60.0942V5.90759H58.2075V12.9118Z" fill="#3180F1"/>
<mask id="mask0_61_16895" style="mask-type:alpha" maskUnits="userSpaceOnUse" x="0" y="2" width="9" height="11">
<path fill-rule="evenodd" clip-rule="evenodd" d="M0 2.81726H8.18972V12.9369H0V2.81726Z" fill="white"/>
</mask>
<g mask="url(#mask0_61_16895)">
<path fill-rule="evenodd" clip-rule="evenodd" d="M2.01668 8.73005V11.1589L4.27921 11.1661C5.39222 11.1661 6.09352 10.9058 6.09352 9.93704C6.09352 8.99033 5.39222 8.73005 4.27921 8.73005H2.01668ZM2.01668 4.59551V6.95923H4.08406C5.08868 6.95923 5.86952 6.74943 5.86952 5.76644C5.86952 4.8123 5.07425 4.59551 4.07685 4.59551H2.01668ZM4.13453 2.81726C6.49104 2.81726 7.97296 3.69185 7.97296 5.62199C7.97296 6.64103 7.35121 7.45794 6.50546 7.7687C7.43076 8.07946 8.18974 8.94684 8.18974 10.0384C8.18974 11.9828 6.80924 12.9369 4.38039 12.9369H0V2.81726H4.13453Z" fill="#3180F1"/>
</g>
<path fill-rule="evenodd" clip-rule="evenodd" d="M11.0848 9.43118C11.0848 10.5009 11.7858 11.3611 12.8919 11.3611C13.9688 11.3611 14.699 10.5372 14.699 9.43118C14.699 8.32515 13.9688 7.50127 12.8919 7.50127C11.7858 7.50127 11.0848 8.36143 11.0848 9.43118ZM16.4842 12.937H14.641V12.1636C14.1858 12.7272 13.5062 13.1177 12.5448 13.1177C10.6149 13.1177 9.15485 11.5346 9.15485 9.43118C9.15485 7.32775 10.6149 5.74487 12.5448 5.74487C13.5062 5.74487 14.1786 6.13518 14.641 6.706V5.93282H16.4842V12.937Z" fill="#3180F1"/>
<path fill-rule="evenodd" clip-rule="evenodd" d="M24.4829 8.47715V12.9371H22.5962V9.08424C22.5962 8.07241 22.0901 7.51579 21.2299 7.51579C20.4204 7.51579 19.7482 8.04334 19.7482 9.09867V12.9371H17.8616V5.93269H19.6975V6.75681C20.1964 6.01224 20.9624 5.74475 21.7577 5.74475C23.3478 5.74475 24.4829 6.85078 24.4829 8.47715Z" fill="#3180F1"/>
<path fill-rule="evenodd" clip-rule="evenodd" d="M27.6578 9.43118C27.6578 10.5009 28.3589 11.3611 29.4649 11.3611C30.5419 11.3611 31.272 10.5372 31.272 9.43118C31.272 8.32515 30.5419 7.50127 29.4649 7.50127C28.3589 7.50127 27.6578 8.36143 27.6578 9.43118ZM33.0573 12.937H31.2141V12.1636C30.7589 12.7272 30.0792 13.1177 29.1179 13.1177C27.188 13.1177 25.7279 11.5346 25.7279 9.43118C25.7279 7.32775 27.188 5.74487 29.1179 5.74487C30.0792 5.74487 30.7517 6.13518 31.2141 6.706V5.93282H33.0573V12.937Z" fill="#3180F1"/>
<path fill-rule="evenodd" clip-rule="evenodd" d="M41.1069 8.47715V12.9371H39.2202V9.08424C39.2202 8.07241 38.7143 7.51579 37.8539 7.51579C37.0445 7.51579 36.3722 8.04334 36.3722 9.09867V12.9371H34.4856V5.93269H36.3215V6.75681C36.8205 6.01224 37.5864 5.74475 38.3817 5.74475C39.972 5.74475 41.1069 6.85078 41.1069 8.47715Z" fill="#3180F1"/>
<path fill-rule="evenodd" clip-rule="evenodd" d="M44.3086 9.43118C44.3086 10.5009 45.0097 11.3611 46.1157 11.3611C47.1926 11.3611 47.9228 10.5372 47.9228 9.43118C47.9228 8.32515 47.1926 7.50127 46.1157 7.50127C45.0097 7.50127 44.3086 8.36143 44.3086 9.43118ZM49.708 12.937H47.8649V12.1636C47.4094 12.7272 46.73 13.1177 45.7686 13.1177C43.8387 13.1177 42.3787 11.5346 42.3787 9.43118C42.3787 7.32775 43.8387 5.74487 45.7686 5.74487C46.73 5.74487 47.4024 6.13518 47.8649 6.706V5.93282H49.708V12.937Z" fill="#3180F1"/>
<path fill-rule="evenodd" clip-rule="evenodd" d="M56.3411 7.88448C55.7845 7.60977 54.8954 7.32065 54.1076 7.31321C53.3919 7.31321 53.0304 7.56628 53.0304 7.94938C53.0304 8.35411 53.5363 8.45552 54.1725 8.54949L54.7943 8.64347C56.3122 8.87468 57.158 9.55411 57.158 10.7395C57.158 12.1853 55.9724 13.1178 53.9413 13.1178C52.9869 13.1178 51.7365 12.9369 50.8258 12.2937L51.5704 10.8625C52.1703 11.26 52.9004 11.5492 53.9557 11.5492C54.8303 11.5492 55.2495 11.3035 55.2495 10.8914C55.2495 10.5515 54.8954 10.3636 54.0857 10.248L53.5147 10.1684C51.8956 9.94442 51.0933 9.23614 51.0933 8.04335C51.0933 6.60493 52.2065 5.7522 54.0497 5.7522C55.1701 5.7522 56.0447 5.96155 56.977 6.41699L56.3411 7.88448Z" fill="#3180F1"/>
<path fill-rule="evenodd" clip-rule="evenodd" d="M63.2964 9.32279C63.2964 10.3348 63.9833 11.1587 65.06 11.1587C66.1083 11.1587 66.8166 10.3637 66.8166 9.32279C66.8166 8.27468 66.1083 7.47941 65.06 7.47941C63.9833 7.47941 63.2964 8.30375 63.2964 9.32279ZM66.7517 6.71321V5.93282H68.6021V12.3587C68.6021 14.6066 67.1346 15.9655 64.8218 15.9655C63.7155 15.9655 62.5446 15.6764 61.7568 15.12L62.429 13.5804C63.1301 14.0428 63.9035 14.2959 64.742 14.2959C65.9129 14.2959 66.737 13.6453 66.737 12.4381V11.9468C66.26 12.532 65.5517 12.8935 64.5831 12.8935C62.8772 12.8935 61.359 11.4695 61.359 9.32279C61.359 7.16865 62.8772 5.74487 64.5831 5.74487C65.5589 5.74487 66.2744 6.12076 66.7517 6.71321Z" fill="#3180F1"/>
<path fill-rule="evenodd" clip-rule="evenodd" d="M76.4645 8.47715V12.9371H74.5778V9.08424C74.5778 8.07241 74.0719 7.51579 73.2115 7.51579C72.4023 7.51579 71.7298 8.04334 71.7298 9.09867V12.9371H69.8432V5.93269H71.6794V6.75681C72.1781 6.01224 72.9443 5.74475 73.7393 5.74475C75.3296 5.74475 76.4645 6.85078 76.4645 8.47715Z" fill="#3180F1"/>
<mask id="mask1_61_16895" style="mask-type:alpha" maskUnits="userSpaceOnUse" x="77" y="10" width="4" height="4">
<path fill-rule="evenodd" clip-rule="evenodd" d="M77.5484 10.3131H80.3531V13.1176H77.5484V10.3131Z" fill="white"/>
</mask>
<g mask="url(#mask1_61_16895)">
<path fill-rule="evenodd" clip-rule="evenodd" d="M80.3531 11.708C80.3531 12.4673 79.7025 13.1176 78.9582 13.1176C78.2062 13.1176 77.5484 12.4673 77.5484 11.708C77.5484 10.9565 78.2062 10.3131 78.9582 10.3131C79.7025 10.3131 80.3531 10.9565 80.3531 11.708Z" fill="#3180F1"/>
</g>
<mask id="mask2_61_16895" style="mask-type:alpha" maskUnits="userSpaceOnUse" x="51" y="0" width="16" height="5">
<path fill-rule="evenodd" clip-rule="evenodd" d="M51.3651 0H66.937V4.04142H51.3651V0Z" fill="white"/>
</mask>
<g mask="url(#mask2_61_16895)">
<path fill-rule="evenodd" clip-rule="evenodd" d="M51.9661 0.0473239C52.5532 0.239775 53.1386 0.427268 53.7356 0.571718C54.3278 0.728789 54.9264 0.859268 55.5292 0.957747C56.7332 1.15966 57.9506 1.27707 59.1702 1.25589C60.3896 1.26828 61.6056 1.14276 62.8062 0.932507C63.4073 0.829972 64.0038 0.695662 64.5937 0.534986C65.1878 0.38693 65.7703 0.195831 66.3542 0L66.937 1.39313C65.8805 2.31752 64.6174 2.944 63.2957 3.38479C61.9688 3.81499 60.5687 4.03245 59.1702 4.04124C57.7717 4.04913 56.3682 3.84811 55.035 3.43347C53.7065 3.00845 52.434 2.39662 51.3651 1.48507L51.9661 0.0473239Z" fill="#FAE200"/>
</g>
</svg>
