<svg xmlns="http://www.w3.org/2000/svg" width="52" height="52" viewBox="0 0 52 52">
    <g fill="none" fill-rule="evenodd">
        <circle cx="26" cy="26" r="26" fill="#0060D9" fill-rule="nonzero"/>
        <g fill="#FFF" fill-rule="nonzero">
            <path d="M26.314 22.273c-2.649 0-4.93 1.682-5.926 4.082-.997-2.4-3.278-4.082-5.926-4.082a6.197 6.197 0 0 0-3.374 1v-5.582c0-.895-.691-1.62-1.544-1.62-.853 0-1.544.725-1.544 1.62v11.367c0 3.741 2.899 6.785 6.462 6.785 2.648 0 4.929-1.682 5.926-4.082.996 2.4 3.277 4.082 5.925 4.082 3.563 0 6.462-3.044 6.462-6.785 0-3.74-2.898-6.785-6.461-6.785zM14.462 32.6c-1.86 0-3.374-1.589-3.374-3.542 0-1.953 1.513-3.542 3.374-3.542 1.86 0 3.373 1.589 3.373 3.542 0 1.953-1.513 3.542-3.373 3.542zm11.852 0c-1.86 0-3.374-1.589-3.374-3.542 0-1.953 1.513-3.542 3.374-3.542 1.86 0 3.373 1.589 3.373 3.542 0 1.953-1.513 3.542-3.373 3.542z"/>
            <path d="M39.826 28.99l3.788-4.548a1.678 1.678 0 0 0-.146-2.288 1.493 1.493 0 0 0-2.179.154l-3.514 4.22-3.514-4.22a1.493 1.493 0 0 0-2.179-.154 1.678 1.678 0 0 0-.146 2.288l3.788 4.549-3.788 4.549a1.678 1.678 0 0 0 .146 2.288c.293.268.655.4 1.016.4.43 0 .857-.187 1.163-.554l3.514-4.22 3.514 4.22a1.51 1.51 0 0 0 1.163.554c.36 0 .723-.132 1.016-.4.642-.59.707-1.614.146-2.288l-3.788-4.55z"/>
        </g>
    </g>
</svg>
