<?xml version="1.0" encoding="UTF-8"?>
<svg width="20px" height="11px" viewBox="0 0 20 11" version="1.1" xmlns="http://www.w3.org/2000/svg" xmlns:xlink="http://www.w3.org/1999/xlink">
    <!-- Generator: Sketch 52.5 (67469) - http://www.bohemiancoding.com/sketch -->
    <title>Brands/20-Box-Color</title>
    <desc>Created with Sketch.</desc>
    <g id="Brands/20-Box-Color" stroke="none" stroke-width="1" fill="none" fill-rule="evenodd">
        <g id="box" fill="#0061D5" fill-rule="nonzero">
            <path d="M10.1741921,3.31930131 C8.7028821,3.31930131 7.43572052,4.20917031 6.88200873,5.47882096 C6.32825328,4.20917031 5.0610917,3.31930131 3.58982533,3.31930131 C2.90340611,3.31930131 2.26148472,3.51310044 1.71558952,3.84860262 L1.71558952,0.89489083 C1.71558952,0.421135371 1.33152838,0.0371179039 0.857816594,0.0371179039 C0.384104803,0.0371179039 0,0.421135371 0,0.894934498 L0,6.90908297 C0,8.88851528 1.61039301,10.4988646 3.58978166,10.4988646 C5.0610917,10.4988646 6.32825328,9.60899563 6.88196507,8.33934498 C7.43572052,9.6090393 8.7028821,10.4988646 10.1741485,10.4988646 C12.1535371,10.4988646 13.7639301,8.88847162 13.7639301,6.90908297 C13.7640175,4.92969432 12.1536245,3.31930131 10.1741921,3.31930131 Z M3.58978166,8.78327511 C2.55633188,8.78327511 1.71554585,7.94253275 1.71554585,6.9090393 C1.71554585,5.87563319 2.55633188,5.03484716 3.58978166,5.03484716 C4.62323144,5.03484716 5.4639738,5.87558952 5.4639738,6.9090393 C5.46401747,7.94253275 4.62323144,8.78327511 3.58978166,8.78327511 Z M10.1741921,8.78327511 C9.14074236,8.78327511 8.3,7.94253275 8.3,6.9090393 C8.3,5.87563319 9.14074236,5.03484716 10.1741921,5.03484716 C11.2076419,5.03484716 12.0483843,5.87558952 12.0483843,6.9090393 C12.0484279,7.94253275 11.2076419,8.78327511 10.1741921,8.78327511 Z" id="Shape"></path>
            <path d="M17.681048,6.87349345 L19.7855022,4.46663755 C20.0973362,4.11 20.0610044,3.5680786 19.7043668,3.25624454 C19.3477293,2.94441048 18.8058079,2.98074236 18.4939738,3.33737991 L16.5416157,5.57030568 L14.5892576,3.33737991 C14.2774236,2.98074236 13.7355459,2.94445415 13.3788646,3.25624454 C13.0222271,3.5680786 12.9858952,4.11 13.2977293,4.46663755 L15.4021834,6.87349345 L13.2977293,9.28034934 C12.9858952,9.6369869 13.0222271,10.1789083 13.3788646,10.4907424 C13.5415284,10.6330131 13.7427511,10.7027511 13.9431441,10.7027511 C14.1820087,10.7027511 14.4196943,10.6035371 14.5892576,10.409607 L16.5416157,8.17668122 L18.4939738,10.409607 C18.6635808,10.6035808 18.901179,10.7027511 19.1400873,10.7027511 C19.3404367,10.7027511 19.5416594,10.6329258 19.7043668,10.4907424 C20.0610044,10.1789083 20.0973362,9.6369869 19.7855022,9.28034934 L17.681048,6.87349345 Z" id="Shape"></path>
        </g>
    </g>
</svg>