<svg xmlns="http://www.w3.org/2000/svg" width="142" height="42" viewBox="0 0 142 42">
    <g fill="none" fill-rule="evenodd">
        <g stroke-linejoin="square">
            <rect width="141.022" height="41.022" x=".489" y=".489" fill="#000" stroke="#A6A6A6" stroke-width=".978" rx="3.912"/>
            <rect width="141.5" height="41.5" x=".25" y=".25" stroke="#8F8F8F" stroke-width=".5" rx="3.912"/>
        </g>
        <path fill="#FFF" d="M54.505 32.255h2.386l-5.224-14.419H49.25l-5.224 14.42h2.306l1.334-3.828h5.515l1.324 3.827zm-4.162-11.8h.17l2.097 6.095h-4.373l2.106-6.096zm12.877.739c-1.484 0-2.768.74-3.43 1.978h-.16v-1.798h-2.076v14.408h2.156v-5.175h.17c.572 1.149 1.805 1.828 3.36 1.828 2.757 0 4.512-2.168 4.512-5.626 0-3.457-1.755-5.615-4.532-5.615zm-.612 9.313c-1.805 0-2.938-1.42-2.938-3.688 0-2.278 1.133-3.697 2.948-3.697 1.825 0 2.918 1.39 2.918 3.687 0 2.309-1.093 3.698-2.928 3.698zm11.793-9.313c-1.484 0-2.767.74-3.43 1.978h-.16v-1.798h-2.075v14.408h2.156v-5.175h.17c.572 1.149 1.805 1.828 3.36 1.828 2.757 0 4.512-2.168 4.512-5.626 0-3.457-1.755-5.615-4.533-5.615zm-.611 9.313c-1.805 0-2.938-1.42-2.938-3.688 0-2.278 1.133-3.697 2.948-3.697 1.825 0 2.918 1.39 2.918 3.687 0 2.309-1.093 3.698-2.928 3.698zm9.708-2.129c.16 2.578 2.316 4.227 5.525 4.227 3.43 0 5.576-1.729 5.576-4.487 0-2.168-1.223-3.367-4.192-4.056l-1.594-.39c-1.885-.44-2.648-1.03-2.648-2.058 0-1.3 1.184-2.149 2.959-2.149 1.684 0 2.848.83 3.058 2.159h2.186c-.13-2.429-2.276-4.137-5.214-4.137-3.159 0-5.265 1.708-5.265 4.276 0 2.119 1.193 3.378 3.81 3.987l1.866.45c1.915.45 2.758 1.11 2.758 2.208 0 1.28-1.324 2.208-3.13 2.208-1.935 0-3.278-.869-3.469-2.238h-2.226zm12.957-9.642v2.688H94.66v1.808h1.795v6.145c0 2.099.952 2.938 3.349 2.938.421 0 .812-.05 1.153-.11v-1.788c-.3.03-.471.05-.802.05-1.073 0-1.544-.5-1.544-1.64v-5.595h2.447v-1.808H98.61v-2.688h-2.156zm9.948 11.82c-1.875 0-2.928-1.368-2.928-3.747 0-2.358 1.053-3.737 2.928-3.737 1.865 0 2.928 1.38 2.928 3.737 0 2.369-1.063 3.748-2.928 3.748zm0 1.91c3.189 0 5.144-2.13 5.144-5.657 0-3.507-1.965-5.645-5.144-5.645-3.189 0-5.154 2.138-5.154 5.645 0 3.528 1.955 5.656 5.154 5.656zm6.128-.21h2.156V25.83c0-1.529 1.153-2.558 2.777-2.558.361 0 1.023.07 1.194.13v-2.118c-.23-.06-.642-.09-.953-.09-1.424 0-2.627.78-2.938 1.848h-.16v-1.668h-2.076v10.881zm10.98-9.264c1.595 0 2.638 1.11 2.688 2.818h-5.515c.12-1.698 1.233-2.818 2.828-2.818zm2.678 6.326c-.4.849-1.293 1.318-2.597 1.318-1.725 0-2.838-1.209-2.908-3.117v-.12h7.711v-.75c0-3.417-1.835-5.485-4.873-5.485-3.079 0-5.034 2.208-5.034 5.685 0 3.478 1.915 5.616 5.044 5.616 2.497 0 4.242-1.199 4.733-3.147h-2.076zM46.046 6.582v6.866h2.488c2.053 0 3.242-1.261 3.242-3.455 0-2.16-1.198-3.411-3.242-3.411h-2.488zm1.07.97h1.299c1.427 0 2.273.904 2.273 2.456 0 1.575-.831 2.47-2.273 2.47h-1.3V7.551zm8.424 5.087c-.893 0-1.394-.652-1.394-1.784 0-1.123.501-1.78 1.394-1.78.888 0 1.395.657 1.395 1.78 0 1.127-.507 1.784-1.395 1.784zm0 .909c1.519 0 2.45-1.014 2.45-2.693 0-1.67-.936-2.689-2.45-2.689-1.518 0-2.454 1.018-2.454 2.689 0 1.68.93 2.693 2.454 2.693zm10.497-5.282H65.01l-.926 3.954h-.081l-1.07-3.954h-.984l-1.07 3.954h-.076l-.93-3.954H58.83l1.433 5.182h1.055l1.07-3.816h.081l1.074 3.816h1.065l1.428-5.182zm1.305 5.182h1.026v-3.031c0-.81.506-1.313 1.333-1.313.764 0 1.136.414 1.136 1.246v3.098h1.027v-3.355c0-1.232-.654-1.927-1.815-1.927-.783 0-1.39.348-1.643.923h-.076v-.823h-.988v5.182zm6.256 0h1.027V6.244h-1.027v7.204zm5.005-.81c-.893 0-1.394-.651-1.394-1.783 0-1.123.501-1.78 1.394-1.78.889 0 1.395.657 1.395 1.78 0 1.127-.506 1.784-1.395 1.784zm0 .91c1.519 0 2.45-1.014 2.45-2.693 0-1.67-.936-2.689-2.45-2.689-1.518 0-2.454 1.018-2.454 2.689 0 1.68.931 2.693 2.454 2.693zm5.627-.876c-.56 0-.965-.271-.965-.737 0-.457.325-.7 1.041-.747l1.27-.081v.433c0 .642-.573 1.132-1.346 1.132zm-.263.861c.683 0 1.251-.295 1.561-.813h.082v.728h.988v-3.54c0-1.095-.735-1.742-2.039-1.742-1.18 0-2.02.571-2.125 1.461h.993c.115-.366.511-.576 1.084-.576.702 0 1.065.31 1.065.857v.447l-1.408.08c-1.237.077-1.934.615-1.934 1.547 0 .947.73 1.551 1.733 1.551zm6.237 0c.717 0 1.323-.337 1.633-.904h.082v.819h.983V6.244h-1.026v2.845h-.077c-.281-.57-.883-.909-1.595-.909-1.313 0-2.158 1.038-2.158 2.675 0 1.641.836 2.678 2.158 2.678zm.292-4.434c.86 0 1.399.68 1.399 1.76 0 1.085-.535 1.756-1.4 1.756-.868 0-1.389-.661-1.389-1.76 0-1.09.525-1.756 1.39-1.756zm9.304 3.54c-.893 0-1.395-.652-1.395-1.784 0-1.123.502-1.78 1.395-1.78.888 0 1.394.657 1.394 1.78 0 1.127-.506 1.784-1.394 1.784zm0 .909c1.518 0 2.45-1.014 2.45-2.693 0-1.67-.937-2.689-2.45-2.689-1.519 0-2.455 1.018-2.455 2.689 0 1.68.931 2.693 2.455 2.693zm3.926-.1h1.026v-3.031c0-.81.507-1.313 1.333-1.313.764 0 1.136.414 1.136 1.246v3.098h1.027v-3.355c0-1.232-.654-1.927-1.815-1.927-.783 0-1.39.348-1.642.923h-.077v-.823h-.988v5.182zm9.49-6.438v1.28h-.855v.861h.855v2.926c0 1 .454 1.4 1.595 1.4.2 0 .387-.024.55-.053v-.852c-.144.015-.225.024-.383.024-.51 0-.735-.238-.735-.78V9.15h1.165V8.29h-1.165V7.01h-1.027zm3.654 6.438h1.027v-3.026c0-.786.52-1.314 1.36-1.314.774 0 1.161.419 1.161 1.247v3.093h1.027v-3.345c0-1.233-.669-1.932-1.839-1.932-.783 0-1.385.347-1.638.928h-.08V6.244h-1.018v7.204zm8.4-4.411c.76 0 1.256.528 1.28 1.342h-2.626c.057-.81.587-1.342 1.347-1.342zm1.276 3.012c-.191.404-.616.628-1.237.628-.822 0-1.352-.576-1.385-1.485v-.057h3.672v-.357c0-1.627-.874-2.612-2.32-2.612-1.467 0-2.398 1.052-2.398 2.708 0 1.655.912 2.674 2.402 2.674 1.19 0 2.02-.571 2.254-1.5h-.988z"/>
        <g fill="#FFF">
            <path d="M31.621 21.2c-.031-3.485 2.864-5.18 2.997-5.26-1.64-2.382-4.182-2.707-5.075-2.733-2.134-.224-4.205 1.272-5.292 1.272-1.11 0-2.784-1.25-4.589-1.214-2.322.036-4.495 1.376-5.686 3.456-2.46 4.242-.626 10.476 1.73 13.905 1.18 1.68 2.556 3.555 4.359 3.489 1.763-.071 2.422-1.12 4.55-1.12 2.109 0 2.727 1.12 4.566 1.077 1.892-.028 3.084-1.686 4.221-3.382 1.362-1.922 1.91-3.82 1.931-3.918-.043-.014-3.675-1.394-3.712-5.572M28.149 10.951c.948-1.182 1.597-2.79 1.417-4.422-1.373.06-3.09.946-4.078 2.102-.875 1.02-1.656 2.689-1.454 4.259 1.542.114 3.125-.775 4.115-1.939"/>
        </g>
    </g>
</svg>
