<svg xmlns="http://www.w3.org/2000/svg" width="41" height="44" viewBox="0 0 41 44">
    <path fill="#3C80EF" fill-rule="evenodd" d="M4.933 35.444h7.4v3.667h-7.4v-3.667zm0-6.11h7.4V33h-7.4v-3.667zm9.867-16.5h1.85A1.84 1.84 0 0 0 18.5 11V7.333h3.7V11a1.84 1.84 0 0 0 1.85 1.833h1.85v5.5h-1.85a1.84 1.84 0 0 0-1.85 1.834v20.166h-3.7V25.667a1.84 1.84 0 0 0-1.85-1.834H14.8v-11zm12.333 22.61h7.4v3.667h-7.4v-3.667zm0-6.11h7.4V33h-7.4v-3.667zm0-4.89h7.4v3.667h-7.4v-3.667zM0 42.167A1.84 1.84 0 0 0 1.85 44h37a1.84 1.84 0 0 0 1.85-1.833v-22a1.84 1.84 0 0 0-1.85-1.834H29.6V11a1.84 1.84 0 0 0-1.85-1.833H25.9V5.5a1.84 1.84 0 0 0-1.85-1.833H22.2V1.833A1.84 1.84 0 0 0 20.35 0a1.84 1.84 0 0 0-1.85 1.833v1.834h-1.85A1.84 1.84 0 0 0 14.8 5.5v3.667h-1.85A1.84 1.84 0 0 0 11.1 11v12.833H1.85A1.84 1.84 0 0 0 0 25.667v16.5z" opacity=".503"/>
</svg>
