<?xml version="1.0" encoding="UTF-8"?>
<svg width="171px" height="145px" viewBox="0 0 171 145" version="1.1" xmlns="http://www.w3.org/2000/svg" xmlns:xlink="http://www.w3.org/1999/xlink">
    <!-- Generator: Sketch 53 (72520) - https://sketchapp.com -->
    <title>Illustration/Pricing/Business</title>
    <desc>Created with Sketch.</desc>
    <defs>
        <linearGradient x1="50%" y1="0%" x2="50%" y2="100%" id="linearGradient-1">
            <stop stop-color="#FAFBFF" stop-opacity="0" offset="0%"></stop>
            <stop stop-color="#F2F5FF" offset="52.0756634%"></stop>
            <stop stop-color="#F2F5FF" stop-opacity="0" offset="100%"></stop>
        </linearGradient>
        <linearGradient x1="50%" y1="0%" x2="50%" y2="100%" id="linearGradient-2">
            <stop stop-color="#FAFBFF" stop-opacity="0" offset="0%"></stop>
            <stop stop-color="#F2F5FF" offset="52.0756634%"></stop>
            <stop stop-color="#F2F5FF" stop-opacity="0" offset="100%"></stop>
        </linearGradient>
        <linearGradient x1="50%" y1="0%" x2="50%" y2="100%" id="linearGradient-3">
            <stop stop-color="#FAFBFF" stop-opacity="0" offset="0%"></stop>
            <stop stop-color="#F2F5FF" offset="52.0756634%"></stop>
            <stop stop-color="#F2F5FF" stop-opacity="0" offset="100%"></stop>
        </linearGradient>
        <linearGradient x1="50%" y1="0%" x2="50%" y2="100%" id="linearGradient-4">
            <stop stop-color="#FAFBFF" stop-opacity="0" offset="0%"></stop>
            <stop stop-color="#F2F5FF" offset="52.0756634%"></stop>
            <stop stop-color="#F2F5FF" stop-opacity="0" offset="100%"></stop>
        </linearGradient>
        <linearGradient x1="50%" y1="0%" x2="50%" y2="100%" id="linearGradient-5">
            <stop stop-color="#FAFBFF" stop-opacity="0" offset="0%"></stop>
            <stop stop-color="#F2F5FF" offset="52.0756634%"></stop>
            <stop stop-color="#F2F5FF" stop-opacity="0" offset="100%"></stop>
        </linearGradient>
        <linearGradient x1="50%" y1="0%" x2="50%" y2="100%" id="linearGradient-6">
            <stop stop-color="#FAFBFF" stop-opacity="0" offset="0%"></stop>
            <stop stop-color="#F2F5FF" offset="52.0756634%"></stop>
            <stop stop-color="#F2F5FF" stop-opacity="0" offset="100%"></stop>
        </linearGradient>
        <linearGradient x1="50%" y1="0%" x2="50%" y2="100%" id="linearGradient-7">
            <stop stop-color="#FAFBFF" stop-opacity="0" offset="0%"></stop>
            <stop stop-color="#F2F5FF" offset="52.0756634%"></stop>
            <stop stop-color="#F2F5FF" stop-opacity="0" offset="100%"></stop>
        </linearGradient>
        <linearGradient x1="50%" y1="-10.8772052%" x2="50%" y2="100%" id="linearGradient-8">
            <stop stop-color="#FFE579" offset="0%"></stop>
            <stop stop-color="#FEB755" offset="100%"></stop>
        </linearGradient>
        <linearGradient x1="51.2174488%" y1="-8.25550815%" x2="70.5948215%" y2="244.669285%" id="linearGradient-9">
            <stop stop-color="#F7FAFF" offset="0%"></stop>
            <stop stop-color="#C2DCFF" offset="100%"></stop>
        </linearGradient>
        <linearGradient x1="51.9515966%" y1="-8.25550815%" x2="39.2948805%" y2="156.336962%" id="linearGradient-10">
            <stop stop-color="#F7FAFF" offset="0%"></stop>
            <stop stop-color="#6B9AD9" offset="100%"></stop>
        </linearGradient>
        <linearGradient x1="72.645893%" y1="-6.48307506%" x2="47.7250707%" y2="111.115765%" id="linearGradient-11">
            <stop stop-color="#E5EDFF" offset="0%"></stop>
            <stop stop-color="#6B9AD9" offset="100%"></stop>
        </linearGradient>
        <linearGradient x1="140.583572%" y1="-6.48307506%" x2="40.9002827%" y2="111.115765%" id="linearGradient-12">
            <stop stop-color="#E5EDFF" offset="0%"></stop>
            <stop stop-color="#6B9AD9" offset="100%"></stop>
        </linearGradient>
        <linearGradient x1="13.1828286%" y1="51.9391746%" x2="68.8791203%" y2="51.1509152%" id="linearGradient-13">
            <stop stop-color="#925948" offset="0%"></stop>
            <stop stop-color="#B06C57" offset="100%"></stop>
        </linearGradient>
        <linearGradient x1="54.85712%" y1="0%" x2="50.9420141%" y2="50%" id="linearGradient-14">
            <stop stop-color="#3485F7" offset="0%"></stop>
            <stop stop-color="#1A57CF" offset="100%"></stop>
        </linearGradient>
        <linearGradient x1="50%" y1="-10.8772052%" x2="50%" y2="100%" id="linearGradient-15">
            <stop stop-color="#FFE579" offset="0%"></stop>
            <stop stop-color="#FEB755" offset="100%"></stop>
        </linearGradient>
        <linearGradient x1="107.254377%" y1="-120.462206%" x2="38.2696203%" y2="-120.462203%" id="linearGradient-16">
            <stop stop-color="#FAD0BA" offset="0%"></stop>
            <stop stop-color="#F2A384" offset="100%"></stop>
        </linearGradient>
        <linearGradient x1="50%" y1="32.1187137%" x2="57.8758922%" y2="115.977968%" id="linearGradient-17">
            <stop stop-color="#84F0A8" offset="0%"></stop>
            <stop stop-color="#48B676" offset="100%"></stop>
        </linearGradient>
        <linearGradient x1="50%" y1="32.1187137%" x2="51.3072469%" y2="115.977968%" id="linearGradient-18">
            <stop stop-color="#84F0A8" offset="0%"></stop>
            <stop stop-color="#48B676" offset="100%"></stop>
        </linearGradient>
        <linearGradient x1="81.1524795%" y1="-76.8307837%" x2="-15.9720788%" y2="87.7110162%" id="linearGradient-19">
            <stop stop-color="#F7FAFF" offset="0%"></stop>
            <stop stop-color="#6B9AD9" offset="100%"></stop>
        </linearGradient>
        <linearGradient x1="51.9515966%" y1="24.9358739%" x2="39.2948805%" y2="95.7509189%" id="linearGradient-20">
            <stop stop-color="#F7FAFF" offset="0%"></stop>
            <stop stop-color="#6B9AD9" offset="100%"></stop>
        </linearGradient>
        <linearGradient x1="51.9515966%" y1="39.9714447%" x2="39.2948805%" y2="68.30567%" id="linearGradient-21">
            <stop stop-color="#F7FAFF" offset="0%"></stop>
            <stop stop-color="#6B9AD9" offset="100%"></stop>
        </linearGradient>
        <linearGradient x1="50.1429454%" y1="-8.25550815%" x2="49.2158994%" y2="156.336962%" id="linearGradient-22">
            <stop stop-color="#F7FAFF" offset="0%"></stop>
            <stop stop-color="#6B9AD9" offset="100%"></stop>
        </linearGradient>
        <linearGradient x1="50.1291994%" y1="-8.25550815%" x2="49.2913008%" y2="156.336962%" id="linearGradient-23">
            <stop stop-color="#F7FAFF" offset="0%"></stop>
            <stop stop-color="#C2DCFF" offset="100%"></stop>
        </linearGradient>
        <linearGradient x1="50%" y1="-10.8772052%" x2="50%" y2="100%" id="linearGradient-24">
            <stop stop-color="#FFE579" offset="0%"></stop>
            <stop stop-color="#FEB755" offset="100%"></stop>
        </linearGradient>
        <linearGradient x1="46.9526952%" y1="15.1595137%" x2="68.8875659%" y2="70.6858623%" id="linearGradient-25">
            <stop stop-color="#F59BA9" offset="0%"></stop>
            <stop stop-color="#F25267" offset="100%"></stop>
        </linearGradient>
        <linearGradient x1="108.882825%" y1="-6.48307506%" x2="44.0848318%" y2="111.115765%" id="linearGradient-26">
            <stop stop-color="#B3C2DD" offset="0%"></stop>
            <stop stop-color="#708AC4" offset="100%"></stop>
        </linearGradient>
        <linearGradient x1="51.5759887%" y1="-8.25550815%" x2="41.3552077%" y2="156.336962%" id="linearGradient-27">
            <stop stop-color="#F7FAFF" offset="0%"></stop>
            <stop stop-color="#C2DCFF" offset="100%"></stop>
        </linearGradient>
        <linearGradient x1="140.583572%" y1="-2.37662379%" x2="40.9002827%" y2="106.672506%" id="linearGradient-28">
            <stop stop-color="#E5EDFF" offset="0%"></stop>
            <stop stop-color="#6B9AD9" offset="100%"></stop>
        </linearGradient>
        <linearGradient x1="51.9515966%" y1="-6.9386381%" x2="39.2948805%" y2="153.933207%" id="linearGradient-29">
            <stop stop-color="#F7FAFF" offset="0%"></stop>
            <stop stop-color="#6B9AD9" offset="100%"></stop>
        </linearGradient>
        <linearGradient x1="46.97513%" y1="-8.4964826%" x2="46.0651722%" y2="156.577937%" id="linearGradient-30">
            <stop stop-color="#F7FAFF" offset="0%"></stop>
            <stop stop-color="#6B9AD9" offset="100%"></stop>
        </linearGradient>
        <linearGradient x1="129.614468%" y1="-6.48307506%" x2="42.0022016%" y2="111.115765%" id="linearGradient-31">
            <stop stop-color="#E5EDFF" offset="0%"></stop>
            <stop stop-color="#6B9AD9" offset="100%"></stop>
        </linearGradient>
        <linearGradient x1="51.9515966%" y1="11.3222311%" x2="39.2948805%" y2="120.600645%" id="linearGradient-32">
            <stop stop-color="#F7FAFF" offset="0%"></stop>
            <stop stop-color="#C2DCFF" offset="100%"></stop>
        </linearGradient>
    </defs>
    <g id="Illustration/Pricing/Business" stroke="none" stroke-width="1" fill="none" fill-rule="evenodd">
        <g>
            <ellipse id="Background" fill="#E2EBFC" opacity="0.300000012" cx="131.5" cy="55" rx="39.5" ry="40"></ellipse>
            <ellipse id="Background" fill="#E2EBFC" opacity="0.200000003" cx="39.5" cy="80" rx="39.5" ry="40"></ellipse>
            <polygon id="Background-base" fill="url(#linearGradient-1)" fill-rule="nonzero" points="30 4 31 4 31 124 30 124"></polygon>
            <polygon id="Background-base" fill="url(#linearGradient-2)" fill-rule="nonzero" points="11 7 12 7 12 112 11 112"></polygon>
            <polygon id="Background-base" fill="url(#linearGradient-3)" fill-rule="nonzero" points="45 7 46 7 46 132 45 132"></polygon>
            <polygon id="Background-base" fill="url(#linearGradient-4)" fill-rule="nonzero" points="61 10 62 10 62 129 61 129"></polygon>
            <polygon id="Background-base" fill="url(#linearGradient-4)" fill-rule="nonzero" points="78 6 79 6 79 125 78 125"></polygon>
            <polygon id="Background-base" fill="url(#linearGradient-1)" fill-rule="nonzero" points="94 4 95 4 95 124 94 124"></polygon>
            <polygon id="Background-base" fill="url(#linearGradient-3)" fill-rule="nonzero" points="111 6 112 6 112 131 111 131"></polygon>
            <polygon id="Background-base" fill="url(#linearGradient-5)" fill-rule="nonzero" points="126 3 127 3 127 145 126 145"></polygon>
            <polygon id="Background-base" fill="url(#linearGradient-6)" fill-rule="nonzero" points="144 2 145 2 145 136 144 136"></polygon>
            <polygon id="Background-base" fill="url(#linearGradient-7)" fill-rule="nonzero" points="159 2 160 2 160 126 159 126"></polygon>
            <path d="M75.8423187,68.9082269 L93.7599572,68.9610912 C95.1348759,68.9651478 96.2484716,70.0787096 96.2525701,71.4536282 L96.3236696,95.3055227 C96.3277853,96.6862285 95.2118386,97.8088481 93.8311328,97.8129638 C93.8261901,97.8129785 93.8212474,97.8129786 93.8163047,97.812964 L75.8986662,97.7600997 C74.5237475,97.7560431 73.4101518,96.6424813 73.4060533,95.2675627 L73.3349538,71.4156682 C73.3308381,70.0349624 74.4467848,68.9123428 75.8274906,68.9082271 C75.8324333,68.9082124 75.837376,68.9082123 75.8423187,68.9082269 Z" id="Document-base" fill="url(#linearGradient-8)" fill-rule="nonzero" transform="translate(84.829312, 83.360595) rotate(-15.000000) translate(-84.829312, -83.360595) "></path>
            <path d="M71,75.0731779 L81.7976492,72.9421576 L82.048932,73.5636477 L71.2512829,75.694668 L71,75.0731779 Z M73.8834792,77.5746476 L90.8008435,74.1048838 L91,74.5707703 L74.0826358,78.040534 L73.8834792,77.5746476 Z M85.1482469,94.1866906 L89.8031086,93.3183586 L90.1295902,94.1715074 L85.4747286,95.0398395 L85.1482469,94.1866906 Z" id="Document-base" fill="#FFFFFF" fill-rule="nonzero"></path>
            <path d="M75.8619117,76.7760417 L93.685728,76.8800438 C95.0550251,76.8880337 96.1630917,77.9960869 96.171098,79.3653839 L96.3112562,103.336183 C96.3193291,104.716871 95.2066046,105.842685 93.8259163,105.850758 C93.8161815,105.850815 93.8064465,105.850815 93.7967117,105.850758 L75.9728954,105.746756 C74.6035983,105.738766 73.4955317,104.630713 73.4875254,103.261416 L73.3473672,79.2906165 C73.3392943,77.9099282 74.4520188,76.7841148 75.8327071,76.7760419 C75.8424419,76.775985 75.8521769,76.7759849 75.8619117,76.7760417 Z" id="Document-base" fill="url(#linearGradient-9)" fill-rule="nonzero" transform="translate(84.829312, 91.313400) rotate(-40.000000) translate(-84.829312, -91.313400) "></path>
            <polygon id="Document-base" fill="#B7C8FF" fill-rule="nonzero" transform="translate(97.607397, 95.381766) rotate(-40.000000) translate(-97.607397, -95.381766) " points="95.3014641 94.7689305 99.9063208 94.7957999 99.9133302 95.9946021 95.3084735 95.9677328"></polygon>
            <polygon id="Document-base" fill="#FDC2C0" fill-rule="nonzero" transform="translate(92.983750, 99.215739) rotate(-40.000000) translate(-92.983750, -99.215739) " points="90.6778169 98.6029035 95.2826736 98.6297729 95.289683 99.8285752 90.6848263 99.8017058"></polygon>
            <polygon id="Document-base" fill="#B4CCED" fill-rule="nonzero" transform="translate(74.646495, 85.352553) rotate(-40.000000) translate(-74.646495, -85.352553) " points="69.3373943 84.7221933 79.9485858 84.7841097 79.9555953 85.9829119 69.3444038 85.9209955"></polygon>
            <path d="M72,90.6511966 L85.2027396,80.8907359 L85.6644754,81.2922055 L72.4617359,91.0526662 L72,90.6511966 Z M72.5317106,94.2378949 L87.3054233,83.2641284 L87.7483566,83.6450131 L72.9746439,94.6187797 L72.5317106,94.2378949 Z M74.6155918,96.5907174 L81.4933324,91.6378621 L82.0713851,92.167289 L75.1936444,97.1201443 L74.6155918,96.5907174 Z M78.2516434,97.7096085 L91.454383,87.9491477 L91.9161189,88.3506173 L78.7133793,98.1110781 L78.2516434,97.7096085 Z M78.783354,101.296307 L93.5570667,90.3225403 L94,90.703425 L79.2262873,101.677192 L78.783354,101.296307 Z M80.8672352,103.649122 L90.917258,96.3033972 L91.4273696,96.7579121 L81.3773467,104.103637 L80.8672352,103.649122 Z" id="Document-base" fill="#75A1DC" fill-rule="nonzero"></path>
            <circle id="Coffee-base" fill="url(#linearGradient-10)" fill-rule="nonzero" transform="translate(113.500000, 102.500000) rotate(-180.000000) translate(-113.500000, -102.500000) " cx="113.5" cy="102.5" r="9.5"></circle>
            <path d="M115,108 L115,108 C115.552285,108 116,108.447715 116,109 L116,112 L114,112 L114,109 C114,108.447715 114.447715,108 115,108 Z" id="Coffee-base" fill="url(#linearGradient-11)" fill-rule="nonzero" transform="translate(115.000000, 110.000000) rotate(-180.000000) translate(-115.000000, -110.000000) "></path>
            <circle id="Coffee-base" fill="url(#linearGradient-12)" fill-rule="nonzero" transform="translate(115.500000, 101.500000) rotate(-180.000000) translate(-115.500000, -101.500000) " cx="115.5" cy="101.5" r="5.5"></circle>
            <circle id="Coffee-base" fill="#7D95C9" fill-rule="nonzero" style="mix-blend-mode: multiply;" transform="translate(115.000000, 101.000000) rotate(-180.000000) translate(-115.000000, -101.000000) " cx="115" cy="101" r="5"></circle>
            <path d="M73.4794066,63.2991984 C77.8773651,63.8331625 82.9560295,63.0869507 88.7153999,61.060563 C90.485458,59.9091957 92.2943299,59.3310972 94.1420156,59.3262674 C96.7977714,59.3193254 98.1970788,56.3926737 98.979269,57.2330954 C99.1368819,57.4024421 99.271319,58.1186535 98.9746307,59.0265516 C98.7039716,59.8547974 96.3528743,60.8784683 95.9510193,61.7642642 C95.7778171,62.1460482 97.0623155,62.5839187 97.890503,62.8562076 C98.5131879,63.0609321 99.7938569,63.2304132 100.112151,63.2295812 C100.430445,63.2287492 104.495388,61.7886802 104.804335,61.7878727 C105.451561,63.2314132 99.1133989,67.4905859 97.6968549,67.8455315 C96.00795,68.268723 92.3184959,68.33714 86.6284926,68.0507827 C79.0106364,70.2803551 74.2225348,71.0413048 72.264188,70.3336321 C68.6271653,69.0193491 69.0887946,66.0138556 73.4794066,63.2991984 Z" id="Hand" fill="url(#linearGradient-13)" fill-rule="nonzero" transform="translate(87.339596, 63.835419) scale(-1, -1) rotate(-103.000000) translate(-87.339596, -63.835419) "></path>
            <path d="M71.3241096,48.4603095 C80.1103396,38.957654 94.948081,23.5311838 93.7677583,4.07852895 C95.7786834,4.71315365 97.2439193,5.00980908 98.1634659,4.96849524 C99.1782768,4.92290133 100.614577,4.49588428 102.472367,3.6874441 C104.083114,25.3019278 101.222141,40.950453 93.8894502,50.6330197 C82.050394,50.602401 79.30184,48.4809419 71.3241096,48.4603095 Z" id="Sleeve" fill="url(#linearGradient-14)" fill-rule="nonzero" transform="translate(87.115814, 27.160232) scale(-1, -1) rotate(-13.000000) translate(-87.115814, -27.160232) "></path>
            <ellipse id="Sleeve-buttons" fill="#D2D9FF" fill-rule="nonzero" transform="translate(82.495856, 47.544604) scale(-1, -1) rotate(-13.000000) translate(-82.495856, -47.544604) " cx="82.4958558" cy="47.5446043" rx="1.10589631" ry="1.09417472"></ellipse>
            <ellipse id="Sleeve-buttons" fill="#D2D9FF" fill-rule="nonzero" transform="translate(81.635950, 43.863841) scale(-1, -1) rotate(-13.000000) translate(-81.635950, -43.863841) " cx="81.6359496" cy="43.8638415" rx="1.10589631" ry="1.09417472"></ellipse>
            <circle id="-bracelet-base" fill="url(#linearGradient-15)" fill-rule="nonzero" cx="92" cy="83" r="1"></circle>
            <circle id="-bracelet-base" fill="url(#linearGradient-15)" fill-rule="nonzero" cx="98" cy="83" r="1"></circle>
            <path d="M81.2122954,80.4113025 C85.0954127,80.8293494 89.576439,80.2676187 94.6553743,78.7261104 C96.215104,77.8472357 97.8104018,77.4077983 99.4412675,77.4077983 C101.785379,77.4077983 104.941085,74.4464092 105.633411,75.0920849 C105.772916,75.2221898 105.893213,75.7713717 105.633411,76.4666007 C105.396402,77.1008354 101.011113,79.7332236 100.658434,80.4113025 C100.56745,80.5862318 99.6632169,80.9944763 99.0996241,82.1250939 C98.7216147,82.8834144 98.8059092,83.9948695 99.0996241,84.079313 C99.6497099,84.2374636 101.790253,81.8562085 102.80389,81.419317 C103.502164,81.1183515 104.963556,80.5879674 106.6544,79.9276004 C107.418042,79.6293566 108.779165,78.2054405 108.957927,78.5500511 C109.532503,79.6576935 104.053406,84.3568645 102.80389,84.6260609 C101.314129,84.9470161 97.9892667,84.7647668 92.8293035,84.079313 C86.1104224,85.7728211 81.8858978,86.3464292 80.1557295,85.8001375 C76.9424778,84.7855698 77.3430783,82.4830505 81.2122954,80.4113025 Z" id="Hand" fill="url(#linearGradient-16)" fill-rule="nonzero" transform="translate(93.500000, 80.500000) rotate(-90.000000) translate(-93.500000, -80.500000) "></path>
            <circle id="-bracelet-base" fill="url(#linearGradient-15)" fill-rule="nonzero" cx="92" cy="84" r="1"></circle>
            <circle id="-bracelet-base" fill="url(#linearGradient-15)" fill-rule="nonzero" cx="93" cy="85" r="1"></circle>
            <circle id="-bracelet-base" fill="url(#linearGradient-15)" fill-rule="nonzero" cx="95" cy="85" r="1"></circle>
            <circle id="-bracelet-base" fill="url(#linearGradient-15)" fill-rule="nonzero" cx="98" cy="84" r="1"></circle>
            <path d="M70,128.199318 C77.5113619,120.08705 90.1947864,106.91645 89.2319193,90.3522391 C90.9448017,90.8882866 92.1932417,91.1377052 92.9772395,91.100495 C93.8424587,91.0594299 95.067844,90.6925982 96.6533955,90 C97.978378,108.404379 95.5045526,121.737713 89.2319193,130 C79.1392928,130 76.8009013,128.199318 70,128.199318 Z" id="Sleeve" fill="url(#linearGradient-17)" fill-rule="nonzero"></path>
            <path d="M78.9892506,128.666511 L76,125.421935 C76.1312806,125.277736 76.2633329,125.132325 76.3960834,124.985709 L79.7499112,128.626003 L85.3020075,124.093282 L81.1592434,119.596665 L80.78032,119.906017 C81.3385325,119.218509 81.8953634,118.512753 82.4460651,117.789171 L86.0438945,114.85191 L85.1913124,113.926505 C85.3021783,113.758185 85.4123866,113.589074 85.5218901,113.419179 L86.4993231,114.480099 L91.1796418,110.659095 L88.6400803,107.902617 C88.7318933,107.712964 88.822463,107.522537 88.9117393,107.33134 L91.6350705,110.287284 L96.3140886,106.467342 L92.7120714,102.557659 L89.6311434,105.704865 C89.825422,105.239612 90.0115766,104.77007 90.1889304,104.296297 L92.313965,102.125548 L91.2593566,100.980861 C91.3201366,100.756616 91.3787738,100.531523 91.4352047,100.305589 L92.7250567,101.705613 L96.4686571,97.8814797 L93.5321273,94.694127 L92.2069715,96.0795082 C92.2431513,95.7650099 92.2747223,95.4490725 92.3015328,95.1317148 L93.1337267,94.2616971 L92.3974431,93.4625241 C92.4060268,93.1799702 92.4107489,92.8963425 92.4115078,92.61165 L93.5402007,93.8367498 L95.7697058,91.5059186 C95.8682965,91.5089729 95.961081,91.5084251 96.0480594,91.5042752 C96.232733,91.4954641 96.4340722,91.4714999 96.6520771,91.4323824 L93.9386013,94.2691797 L96.8797488,97.4615446 L99.8957584,94.3806539 C99.9073485,94.6505171 99.9180463,94.9191829 99.9278517,95.1866513 L97.2778552,97.8936551 L100,100.848311 C99.9963388,101.133348 99.9915176,101.416829 99.9855366,101.698753 L96.8667635,98.3135903 L93.1231631,102.137724 L96.7695173,106.09553 L99.9300879,103.515246 C99.9195422,103.778467 99.9079355,104.040255 99.8952673,104.300618 L97.1675239,106.527533 L99.5256704,109.0871 C99.4977519,109.34582 99.468623,109.602917 99.4382839,109.858389 L96.7120953,106.899344 L92.0330772,110.719286 L96.1758412,115.215903 L99.0063541,112.905077 C98.9571386,113.20148 98.9061106,113.495451 98.8532702,113.786989 L96.5738479,115.647905 L98.0987423,117.303048 C98.0418279,117.530312 97.9836415,117.755869 97.9241831,117.979719 L96.1184192,116.019717 L91.4381006,119.840721 L95.1837388,123.906291 L96.2474865,123.03785 C96.0872306,123.432048 95.9218536,123.819374 95.7513555,124.199827 L95.5817454,124.338294 L95.6535064,124.416184 C95.5652842,124.609484 95.4757217,124.800985 95.3848189,124.990687 L95.1263168,124.710105 L90.2990877,128.651046 L91.5418881,130 C91.2659887,129.997182 90.9962209,129.992951 90.7322918,129.987392 L89.8436591,129.022857 L88.748767,129.916725 C88.4524426,129.901608 88.1641652,129.884747 87.8833474,129.866318 L89.4456524,128.590855 L85.7000142,124.525284 L80.3554022,128.888616 C79.8980818,128.811325 79.4455536,128.736444 78.9892514,128.666511 L78.9892506,128.666511 Z M98.2050876,91 L99.8155619,92.7480325 C99.8325272,93.0554474 99.8483748,93.3613622 99.8631044,93.665777 L97.592538,91.2012697 C97.7874664,91.1425947 97.9916497,91.0755047 98.2050876,91 L98.2050876,91 Z M89.901081,128.219044 L94.7283101,124.278103 L90.9826719,120.212532 L86.1554428,124.153473 L89.901081,128.219044 L89.901081,128.219044 Z M95.7204126,115.587714 L91.5776485,111.091097 L86.8973298,114.912101 L91.0400939,119.408718 L95.7204126,115.587714 Z M90.5846652,119.780529 L86.4419011,115.283912 L81.6146721,119.224853 L85.7574362,123.721471 L90.5846652,119.780529 Z" id="Texture" fill="#84F0A8" fill-rule="nonzero"></path>
            <path d="M98.5166196,90.0600112 C98.5622846,90.0402869 98.6082574,90.0202831 98.6545381,90 C99.9751526,108.404379 97.5094827,121.737713 91.2575284,130 C90.0707828,130 88.9916044,129.974938 88,129.930728 C95.833639,120.955889 99.3391789,107.66565 98.5166196,90.0600112 L98.5166196,90.0600112 Z" id="Shadow" fill="url(#linearGradient-18)" fill-rule="nonzero" style="mix-blend-mode: multiply;" opacity="0.200000003"></path>
            <path d="M49.2811378,77.2284899 L75.7938696,103.464937 L75.9363239,103.800692 C76.0633514,104.100088 75.9967908,104.447201 75.768206,104.677425 L58.80073,121.766567 C58.4917022,122.077811 57.9906691,122.077811 57.6816413,121.766567 L31.2317922,95.1270577 C30.9885408,94.8820621 30.9303149,94.5068473 31.087742,94.1987795 L31.3022708,93.7789696 L48.1743905,77.2260865 C48.4826027,76.9237059 48.9742231,76.9247736 49.2811378,77.2284899 Z" id="Macbook-base" fill="url(#linearGradient-19)" fill-rule="nonzero"></path>
            <path d="M37.9111299,86.8259592 L67.1116154,86.6527674 C69.8729906,86.6363894 72.1248045,88.8616492 72.1411826,91.6230244 C72.1412998,91.6427943 72.1412998,91.6625647 72.1411826,91.6823346 L72.0486553,107.282622 C72.0324145,110.020864 69.8166401,112.236638 67.0783984,112.252879 L37.8779128,112.426071 C35.1165376,112.442449 32.8647237,110.217189 32.8483457,107.455814 C32.8482284,107.436044 32.8482284,107.416274 32.8483457,107.396504 L32.9408729,91.7962161 C32.9571138,89.0579744 35.1728881,86.8422 37.9111299,86.8259592 Z" id="Macbook-base" fill="url(#linearGradient-20)" fill-rule="nonzero" transform="translate(52.494764, 99.539419) rotate(-315.000000) translate(-52.494764, -99.539419) "></path>
            <path d="M37.114239,94.5487307 L62.7395683,94.3967437 C65.5009435,94.3803656 67.7527574,96.6056254 67.7691355,99.3670006 C67.7692414,99.3848552 67.7692516,99.4027102 67.7691663,99.4205648 L67.746986,104.058973 C67.7338812,106.79947 65.5171787,109.018722 62.7766982,109.034976 L37.1513689,109.186963 C34.3899937,109.203341 32.1381798,106.978081 32.1218018,104.216706 C32.1216959,104.198851 32.1216856,104.180996 32.121771,104.163142 L32.1439513,99.5247336 C32.157056,96.7842363 34.3737586,94.5649848 37.114239,94.5487307 Z" id="Macbook-base" fill="url(#linearGradient-21)" fill-rule="nonzero" style="mix-blend-mode: multiply;" opacity="0.100000001" transform="translate(49.945469, 101.791853) rotate(-315.000000) translate(-49.945469, -101.791853) "></path>
            <path d="M62.1080619,108.106157 L62.112285,106.235463 C62.112518,106.132247 62.1953596,106.04885 62.2973044,106.049192 L63.9878117,106.054854 C64.089762,106.055196 64.1722198,106.139364 64.1719872,106.242362 L64.1677642,108.113056 C64.1675312,108.216272 64.0846896,108.299668 63.9827448,108.299327 L62.2922375,108.293665 C62.1902871,108.293323 62.1078294,108.209155 62.1080619,108.106157 Z M33.1432928,97.0359102 C33.143526,96.9326217 33.2263068,96.8491665 33.328311,96.8495082 L35.0495632,96.8552735 C35.1515127,96.855615 35.2339699,96.9397099 35.2337369,97.0429121 L35.2300774,98.6639584 C35.2298443,98.7672469 35.1470635,98.8507021 35.0450593,98.8503604 L33.3238071,98.8445951 C33.2218576,98.8442536 33.1394004,98.7601587 33.1396333,98.6569565 L33.1432928,97.0359102 Z M35.4489297,97.0436328 C35.4491629,96.9403444 35.5319437,96.8568892 35.6339479,96.8572309 L37.3552,96.8629962 C37.4571496,96.8633376 37.5396068,96.9474326 37.5393738,97.0506347 L37.5357143,98.6716811 C37.5354811,98.7749695 37.4527003,98.8584247 37.3506961,98.8580831 L35.629444,98.8523178 C35.5274944,98.8519763 35.4450372,98.7678813 35.4452702,98.6646792 L35.4489297,97.0436328 Z M36.7349491,99.3236035 C36.7351823,99.2203151 36.817963,99.1368599 36.9199672,99.1372016 L38.6412194,99.1429668 C38.743169,99.1433083 38.8256262,99.2274033 38.8253932,99.3306054 L38.8217337,100.951652 C38.8215005,101.05494 38.7387197,101.138395 38.6367155,101.138054 L36.9154634,101.132288 C36.8135138,101.131947 36.7310566,101.047852 36.7312896,100.94465 L36.7349491,99.3236035 Z M39.040586,99.3313262 C39.0408191,99.2280377 39.1235999,99.1445826 39.2256041,99.1449242 L40.9468563,99.1506895 C41.0488058,99.151031 41.131263,99.235126 41.1310301,99.3383281 L41.1273706,100.959374 C41.1271374,101.062663 41.0443566,101.146118 40.9423524,101.145776 L39.2211002,101.140011 C39.1191507,101.13967 39.0366935,101.055575 39.0369265,100.952373 L39.040586,99.3313262 Z M41.3462228,99.3390489 C41.346456,99.2357604 41.4292368,99.1523052 41.531241,99.1526469 L43.2524932,99.1584122 C43.3544427,99.1587537 43.4368999,99.2428486 43.4366669,99.3460507 L43.4330074,100.967097 C43.4327742,101.070386 43.3499935,101.153841 43.2479893,101.153499 L41.5267371,101.147734 C41.4247876,101.147392 41.3423304,101.063297 41.3425633,100.960095 L41.3462228,99.3390489 Z M43.6518597,99.3467715 C43.6520929,99.2434831 43.7348736,99.1600279 43.8368778,99.1603696 L45.55813,99.1661348 C45.6600796,99.1664763 45.7425368,99.2505713 45.7423038,99.3537734 L45.7386443,100.97482 C45.7384111,101.078108 45.6556303,101.161563 45.5536261,101.161222 L43.8323739,101.155456 C43.7304244,101.155115 43.6479672,101.07102 43.6482002,100.967818 L43.6518597,99.3467715 Z M45.9574966,99.3544942 C45.9577297,99.2512057 46.0405105,99.1677506 46.1425147,99.1680922 L47.8637669,99.1738575 C47.9657164,99.174199 48.0481736,99.258294 48.0479406,99.3614961 L48.0442811,100.982542 C48.044048,101.085831 47.9612672,101.169286 47.859263,101.168944 L46.1380108,101.163179 C46.0360613,101.162838 45.9536041,101.078743 45.9538371,100.975541 L45.9574966,99.3544942 Z M48.2631334,99.3622168 C48.2633666,99.2589284 48.3461474,99.1754732 48.4481516,99.1758149 L50.1694038,99.1815802 C50.2713533,99.1819216 50.3538105,99.2660166 50.3535775,99.3692187 L50.349918,100.990265 C50.3496848,101.093554 50.2669041,101.177009 50.1648999,101.176667 L48.4436477,101.170902 C48.3416981,101.17056 48.2592409,101.086465 48.2594739,100.983263 L48.2631334,99.3622168 Z M50.5687703,99.3699395 C50.5690035,99.2666511 50.6517842,99.1831959 50.7537884,99.1835376 L52.4750406,99.1893028 C52.5769901,99.1896443 52.6594473,99.2737393 52.6592144,99.3769414 L52.6555549,100.997988 C52.6553217,101.101276 52.5725409,101.184731 52.4705367,101.18439 L50.7492845,101.178624 C50.647335,101.178283 50.5648778,101.094188 50.5651108,100.990986 L50.5687703,99.3699395 Z M52.8744071,99.3776622 C52.8746403,99.2743737 52.9574211,99.1909186 53.0594253,99.1912602 L54.7806775,99.1970255 C54.882627,99.197367 54.9650842,99.281462 54.9648512,99.3846641 L54.9611917,101.00571 C54.9609586,101.108999 54.8781778,101.192454 54.7761736,101.192112 L53.0549214,101.186347 C52.9529719,101.186006 52.8705147,101.101911 52.8707476,100.998709 L52.8744071,99.3776622 Z M37.7545666,97.0513555 C37.7547997,96.9480671 37.8375805,96.8646119 37.9395847,96.8649535 L39.6608369,96.8707188 C39.7627864,96.8710603 39.8452436,96.9551553 39.8450107,97.0583574 L39.8413512,98.6794038 C39.841118,98.7826922 39.7583372,98.8661474 39.656333,98.8658057 L37.9350808,98.8600404 C37.8331313,98.859699 37.7506741,98.775604 37.7509071,98.6724019 L37.7545666,97.0513555 Z M40.0602034,97.0590782 C40.0604366,96.9557897 40.1432174,96.8723345 40.2452216,96.8726762 L41.9664738,96.8784415 C42.0684233,96.878783 42.1508805,96.9628779 42.1506475,97.06608 L42.146988,98.6871264 C42.1467549,98.7904149 42.0639741,98.87387 41.9619699,98.8735284 L40.2407177,98.8677631 C40.1387682,98.8674216 40.056311,98.7833267 40.0565439,98.6801245 L40.0602034,97.0590782 Z M42.3658403,97.0668008 C42.3660735,96.9635124 42.4488542,96.8800572 42.5508584,96.8803989 L44.2721106,96.8861642 C44.3740602,96.8865056 44.4565174,96.9706006 44.4562844,97.0738027 L44.4526249,98.6948491 C44.4523917,98.7981375 44.3696109,98.8815927 44.2676067,98.8812511 L42.5463546,98.8754858 C42.444405,98.8751443 42.3619478,98.7910493 42.3621808,98.6878472 L42.3658403,97.0668008 Z M44.6714772,97.0745235 C44.6717103,96.9712351 44.7544911,96.8877799 44.8564953,96.8881215 L46.5777475,96.8938868 C46.679697,96.8942283 46.7621542,96.9783233 46.7619212,97.0815254 L46.7582618,98.7025718 C46.7580286,98.8058602 46.6752478,98.8893154 46.5732436,98.8889737 L44.8519914,98.8832084 C44.7500419,98.882867 44.6675847,98.798772 44.6678177,98.6955699 L44.6714772,97.0745235 Z M46.977114,97.0822462 C46.9773472,96.9789577 47.060128,96.8955025 47.1621322,96.8958442 L48.8833844,96.9016095 C48.9853339,96.901951 49.0677911,96.9860459 49.0675581,97.089248 L49.0638986,98.7102944 C49.0636654,98.8135829 48.9808847,98.897038 48.8788805,98.8966964 L47.1576283,98.8909311 C47.0556788,98.8905896 46.9732215,98.8064946 46.9734545,98.7032925 L46.977114,97.0822462 Z M49.2827509,97.0899688 C49.2829841,96.9866804 49.3657648,96.9032252 49.467769,96.9035669 L51.1890212,96.9093321 C51.2909708,96.9096736 51.373428,96.9937686 51.373195,97.0969707 L51.3695355,98.7180171 C51.3693023,98.8213055 51.2865215,98.9047607 51.1845173,98.9044191 L49.4632651,98.8986538 C49.3613156,98.8983123 49.2788584,98.8142173 49.2790914,98.7110152 L49.2827509,97.0899688 Z M51.5883878,97.0976915 C51.5886209,96.9944031 51.6714017,96.9109479 51.7734059,96.9112895 L53.4946581,96.9170548 C53.5966076,96.9173963 53.6790648,97.0014913 53.6788318,97.1046934 L53.6751723,98.7257398 C53.6749392,98.8290282 53.5921584,98.9124834 53.4901542,98.9121417 L51.768902,98.9063764 C51.6669525,98.906035 51.5844953,98.82194 51.5847283,98.7187379 L51.5883878,97.0976915 Z M53.8940246,97.1054142 C53.8942578,97.0021257 53.9770386,96.9186705 54.0790428,96.9190122 L55.8002949,96.9247775 C55.9022445,96.925119 55.9847017,97.0092139 55.9844687,97.112416 L55.9808092,98.7334624 C55.980576,98.8367509 55.8977953,98.920206 55.7957911,98.9198644 L54.0745389,98.9140991 C53.9725893,98.9137576 53.8901321,98.8296626 53.8903651,98.7264605 L53.8940246,97.1054142 Z M33.1381556,99.3115562 C33.1383888,99.2082677 33.2212001,99.1248126 33.3229079,99.1251533 L36.3051066,99.1351421 C36.4069093,99.1354831 36.4892475,99.2195777 36.4890145,99.3227798 L36.485355,100.943826 C36.4851218,101.047115 36.4023105,101.13057 36.3006027,101.130229 L33.318404,101.12024 C33.2166013,101.119899 33.1342631,101.035805 33.1344961,100.932603 L33.1381556,99.3115562 Z M33.1468822,95.4459466 C33.1471152,95.3427292 33.2300155,95.2593321 33.3317065,95.2596727 L35.1148294,95.2656452 C35.216672,95.2659863 35.2990424,95.3501556 35.2988099,95.4531544 L35.296698,96.388647 C35.296465,96.4918644 35.2135648,96.5752616 35.1118737,96.574921 L33.3287508,96.5689485 C33.2269082,96.5686073 33.1445378,96.484438 33.1447703,96.3814392 L33.1468822,95.4459466 Z M35.5447445,95.4539782 C35.5449775,95.3507608 35.6278778,95.2673636 35.7295688,95.2677043 L37.5126917,95.2736768 C37.6145344,95.2740179 37.6969048,95.3581872 37.6966722,95.461186 L37.6945604,96.3966786 C37.6943274,96.499896 37.6114271,96.5832932 37.5097361,96.5829526 L35.7266131,96.57698 C35.6247705,96.5766389 35.5424001,96.4924696 35.5426326,96.3894708 L35.5447445,95.4539782 Z M37.9426068,95.4620098 C37.9428399,95.3587924 38.0257401,95.2753952 38.1274312,95.2757358 L39.9105541,95.2817083 C40.0123967,95.2820495 40.0947671,95.3662188 40.0945346,95.4692176 L40.0924227,96.4047102 C40.0921897,96.5079276 40.0092894,96.5913247 39.9075984,96.5909841 L38.1244755,96.5850116 C38.0226328,96.5846705 37.9402625,96.5005012 37.940495,96.3975024 L37.9426068,95.4620098 Z M40.3404692,95.4700413 C40.3407022,95.366824 40.4236025,95.2834268 40.5252935,95.2837674 L42.3084164,95.2897399 C42.4102591,95.290081 42.4926294,95.3742504 42.4923969,95.4772492 L42.4902851,96.4127418 C42.490052,96.5159591 42.4071518,96.5993563 42.3054607,96.5990157 L40.5223378,96.5930432 C40.4204952,96.5927021 40.3381248,96.5085327 40.3383573,96.4055339 L40.3404692,95.4700413 Z M42.7383315,95.4780729 C42.7385645,95.3748555 42.8214648,95.2914584 42.9231558,95.291799 L44.7062788,95.2977715 C44.8081214,95.2981126 44.8904918,95.3822819 44.8902593,95.4852807 L44.8881474,96.4207733 C44.8879144,96.5239907 44.8050141,96.6073879 44.7033231,96.6070473 L42.9202002,96.6010748 C42.8183575,96.6007336 42.7359871,96.5165643 42.7362197,96.4135655 L42.7383315,95.4780729 Z M45.1361939,95.4861045 C45.1364269,95.3828871 45.2193271,95.2994899 45.3210182,95.2998305 L47.1041411,95.3058031 C47.2059837,95.3061442 47.2883541,95.3903135 47.2881216,95.4933123 L47.2860097,96.4288049 C47.2857767,96.5320223 47.2028765,96.6154195 47.1011854,96.6150788 L45.3180625,96.6091063 C45.2162199,96.6087652 45.1338495,96.5245959 45.134082,96.4215971 L45.1361939,95.4861045 Z M47.5340562,95.494136 C47.5342892,95.3909187 47.6171895,95.3075215 47.7188805,95.3078621 L49.5020034,95.3138346 C49.6038461,95.3141758 49.6862165,95.3983451 49.6859839,95.5013439 L49.6838721,96.4368365 C49.6836391,96.5400539 49.6007388,96.623451 49.4990478,96.6231104 L47.7159248,96.6171379 C47.6140822,96.6167968 47.5317118,96.5326275 47.5319443,96.4296287 L47.5340562,95.494136 Z M49.9319185,95.5021676 C49.9321516,95.3989502 50.0150518,95.3155531 50.1167429,95.3158937 L51.8998658,95.3218662 C52.0017084,95.3222073 52.0840788,95.4063767 52.0838463,95.5093754 L52.0817344,96.4448681 C52.0815014,96.5480854 51.9986011,96.6314826 51.8969101,96.631142 L50.1137872,96.6251695 C50.0119445,96.6248283 49.9295742,96.540659 49.9298067,96.4376602 L49.9319185,95.5021676 Z M52.3297809,95.5101992 C52.3300139,95.4069818 52.4129142,95.3235846 52.5146052,95.3239253 L54.2977281,95.3298978 C54.3995707,95.3302389 54.4819411,95.4144082 54.4817086,95.517407 L54.4795968,96.4528996 C54.4793637,96.556117 54.3964635,96.6395142 54.2947724,96.6391736 L52.5116495,96.633201 C52.4098069,96.6328599 52.3274365,96.5486906 52.327669,96.4456918 L52.3297809,95.5101992 Z M54.7276432,95.5182308 C54.7278762,95.4150134 54.8107765,95.3316162 54.9124675,95.3319568 L56.6955904,95.3379294 C56.7974331,95.3382705 56.8798035,95.4224398 56.879571,95.5254386 L56.8774591,96.4609312 C56.8772261,96.5641486 56.7943258,96.6475457 56.6926348,96.6472051 L54.9095119,96.6412326 C54.8076692,96.6408915 54.7252988,96.5567222 54.7255313,96.4537234 L54.7276432,95.5182308 Z M66.4622937,99.4231744 L66.4534971,103.319811 C66.4532639,103.42313 66.3704393,103.50661 66.268614,103.506269 L65.0697025,103.502253 C64.9678276,103.501912 64.8854307,103.41794 64.885664,103.31456 L64.890379,101.22599 L64.5523639,101.224857 C64.4504144,101.224516 64.3679572,101.140421 64.3681901,101.037219 L64.3718496,99.4161725 C64.3720828,99.3128841 64.4548636,99.2294289 64.5568678,99.2297706 L66.27812,99.2355359 C66.3800695,99.2358773 66.4625267,99.3199723 66.4622937,99.4231744 Z M55.666776,101.662678 C55.6670091,101.55939 55.7497899,101.475935 55.8517941,101.476276 L57.5730463,101.482042 C57.6749958,101.482383 57.757453,101.566478 57.75722,101.66968 L57.7535606,103.290727 C57.7533274,103.394015 57.6705466,103.47747 57.5685424,103.477129 L55.8472902,103.471363 C55.7453407,103.471022 55.6628835,103.386927 55.6631165,103.283725 L55.666776,101.662678 Z M57.9724128,101.670401 C57.972646,101.567113 58.0554268,101.483657 58.157431,101.483999 L59.8786832,101.489764 C59.9806327,101.490106 60.0630899,101.574201 60.0628569,101.677403 L60.0591974,103.298449 C60.0589642,103.401738 59.9761835,103.485193 59.8741793,103.484851 L58.1529271,103.479086 C58.0509776,103.478744 57.9685203,103.394649 57.9687533,103.291447 L57.9724128,101.670401 Z M60.2780497,101.678124 C60.2782829,101.574835 60.3610636,101.49138 60.4630678,101.491722 L62.18432,101.497487 C62.2862695,101.497828 62.3687268,101.581923 62.3684938,101.685126 L62.3648343,103.306172 C62.3646011,103.40946 62.2818203,103.492916 62.1798161,103.492574 L60.4585639,103.486809 C60.3566144,103.486467 60.2741572,103.402372 60.2743902,103.29917 L60.2780497,101.678124 Z M62.5836865,101.685846 C62.5839197,101.582558 62.6667005,101.499103 62.7687047,101.499444 L64.4899569,101.50521 C64.5919064,101.505551 64.6743636,101.589646 64.6741306,101.692848 L64.6704711,103.313895 C64.670238,103.417183 64.5874572,103.500638 64.485453,103.500297 L62.7642008,103.494531 C62.6622513,103.49419 62.5797941,103.410095 62.5800271,103.306893 L62.5836865,101.685846 Z M57.5317528,106.220253 C57.5319859,106.116964 57.6147667,106.033508 57.7167709,106.033849 L59.4380231,106.039615 C59.5399726,106.039956 59.6224297,106.124123 59.6221969,106.227255 L59.6179744,108.097684 C59.6177412,108.200973 59.5349604,108.284429 59.4329562,108.284088 L57.711704,108.278322 C57.6097545,108.277981 57.5272975,108.193814 57.5275303,108.090682 L57.5317528,106.220253 Z M59.8348565,107.35008 C59.8350895,107.246864 59.9179311,107.163467 60.0198759,107.163809 L61.7103832,107.169471 C61.8123336,107.169812 61.8947913,107.25398 61.8945588,107.356979 L61.8928691,108.105436 C61.8926361,108.208652 61.8097945,108.292049 61.7078497,108.291707 L60.0173424,108.286045 C59.9153921,108.285703 59.8329343,108.201535 59.8331669,108.098537 L59.8348565,107.35008 Z M64.3846466,107.365319 C64.3848796,107.262103 64.4677212,107.178706 64.569666,107.179048 L66.2601733,107.18471 C66.3621236,107.185052 66.4445814,107.26922 66.4443488,107.372218 L66.4426592,108.120675 C66.4424262,108.223892 66.3595846,108.307288 66.2576398,108.306947 L64.5671325,108.301284 C64.4651821,108.300943 64.3827244,108.216775 64.3829569,108.113776 L64.3846466,107.365319 Z M54.5497958,106.210265 C54.5500289,106.106976 54.632646,106.023519 54.7347021,106.023861 L57.1324981,106.031892 C57.2343858,106.032234 57.3167928,106.1164 57.31656,106.219532 L57.3123375,108.089961 C57.3121043,108.193251 57.2294873,108.276707 57.1274312,108.276365 L54.7296352,108.268334 C54.6277474,108.267993 54.5453405,108.183826 54.5455733,108.080694 L54.5497958,106.210265 Z M61.4718436,103.957785 C61.4720768,103.854497 61.5548078,103.771042 61.6567229,103.771383 L66.2679843,103.786828 C66.3698572,103.78717 66.4522522,103.871264 66.4520192,103.974466 L66.4483597,105.595513 C66.4481266,105.698801 66.3653955,105.782257 66.2634804,105.781915 L61.652219,105.76647 C61.5503462,105.766129 61.4679511,105.682034 61.4681841,105.578832 L61.4718436,103.957785 Z M56.8605699,103.94234 C56.860803,103.839052 56.9435838,103.755597 57.045588,103.755938 L58.7668402,103.761703 C58.8687897,103.762045 58.9512469,103.84614 58.951014,103.949342 L58.9473545,105.570388 C58.9471213,105.673677 58.8643405,105.757132 58.7623363,105.75679 L57.0410841,105.751025 C56.9391346,105.750684 56.8566774,105.666589 56.8569104,105.563387 L56.8605699,103.94234 Z M59.1662067,103.950063 C59.1664399,103.846774 59.2492207,103.763319 59.3512249,103.763661 L61.0724771,103.769426 C61.1744266,103.769768 61.2568838,103.853863 61.2566508,103.957065 L61.2529913,105.578111 C61.2527582,105.681399 61.1699774,105.764855 61.0679732,105.764513 L59.346721,105.758748 C59.2447715,105.758406 59.1623143,105.674311 59.1625472,105.571109 L59.1662067,103.950063 Z M55.180044,99.3853848 C55.1802772,99.2820964 55.263058,99.1986412 55.3650622,99.1989829 L57.0863143,99.2047482 C57.1882639,99.2050896 57.2707211,99.2891846 57.2704881,99.3923867 L57.2668286,101.013433 C57.2665954,101.116722 57.1838147,101.200177 57.0818105,101.199835 L55.3605583,101.19407 C55.2586087,101.193728 55.1761515,101.109633 55.1763845,101.006431 L55.180044,99.3853848 Z M57.4856809,99.3931075 C57.485914,99.2898191 57.5686948,99.2063639 57.670699,99.2067055 L59.3919512,99.2124708 C59.4939007,99.2128123 59.5763579,99.2969073 59.576125,99.4001094 L59.5724655,101.021156 C59.5722323,101.124444 59.4894515,101.207899 59.3874473,101.207558 L57.6661951,101.201792 C57.5642456,101.201451 57.4817884,101.117356 57.4820214,101.014154 L57.4856809,99.3931075 Z M59.7913177,99.4008302 C59.7915509,99.2975417 59.8743317,99.2140866 59.9763359,99.2144282 L61.6975881,99.2201935 C61.7995376,99.220535 61.8819948,99.3046299 61.8817618,99.4078321 L61.8781023,101.028878 C61.8778692,101.132167 61.7950884,101.215622 61.6930842,101.21528 L59.971832,101.209515 C59.8698825,101.209174 59.7874253,101.125079 59.7876582,101.021877 L59.7913177,99.4008302 Z M62.0969546,99.4085528 C62.0971878,99.3052644 62.1799685,99.2218092 62.2819728,99.2221509 L64.0032249,99.2279162 C64.1051745,99.2282576 64.1876317,99.3123526 64.1873987,99.4155547 L64.1837392,101.036601 C64.183506,101.13989 64.1007252,101.223345 63.998721,101.223003 L62.2774689,101.217238 C62.1755193,101.216896 62.0930621,101.132801 62.0932951,101.029599 L62.0969546,99.4085528 Z M56.1996615,97.1131368 C56.1998947,97.0098484 56.2826754,96.9263932 56.3846796,96.9267349 L58.1059318,96.9325001 C58.2078813,96.9328416 58.2903385,97.0169366 58.2901056,97.1201387 L58.2864461,98.7411851 C58.2862129,98.8444735 58.2034321,98.9279287 58.1014279,98.927587 L56.3801757,98.9218218 C56.2782262,98.9214803 56.195769,98.8373853 56.196002,98.7341832 L56.1996615,97.1131368 Z M58.5052983,97.1208595 C58.5055315,97.0175711 58.5883123,96.9341159 58.6903165,96.9344575 L60.4115687,96.9402228 C60.5135182,96.9405643 60.5959754,97.0246593 60.5957424,97.1278614 L60.5920829,98.7489077 C60.5918498,98.8521962 60.509069,98.9356514 60.4070648,98.9353097 L58.6858126,98.9295444 C58.5838631,98.9292029 58.5014059,98.845108 58.5016388,98.7419059 L58.5052983,97.1208595 Z M60.8109352,97.1285822 C60.8111684,97.0252937 60.8939492,96.9418385 60.9959534,96.9421802 L62.7172055,96.9479455 C62.8191551,96.948287 62.9016123,97.0323819 62.9013793,97.135584 L62.8977198,98.7566304 C62.8974866,98.8599189 62.8147059,98.943374 62.7127017,98.9430324 L60.9914495,98.9372671 C60.8894999,98.9369256 60.8070427,98.8528306 60.8072757,98.7496285 L60.8109352,97.1285822 Z M63.1165721,97.1363048 C63.1168052,97.0330164 63.1996166,96.9495613 63.3013244,96.949902 L66.2835231,96.9598908 C66.3853258,96.9602317 66.467664,97.0443263 66.467431,97.1475284 L66.4637715,98.7685748 C66.4635383,98.8718632 66.380727,98.9553183 66.2790192,98.9549777 L63.2968205,98.9449889 C63.1950178,98.9446479 63.1126796,98.8605533 63.1129126,98.7573512 L63.1165721,97.1363048 Z M57.1255056,95.5262623 C57.1257386,95.423045 57.2086388,95.3396478 57.3103299,95.3399884 L59.0934528,95.3459609 C59.1952954,95.346302 59.2776658,95.4304714 59.2774333,95.5334702 L59.2753214,96.4689628 C59.2750884,96.5721801 59.1921881,96.6555773 59.0904971,96.6552367 L57.3073742,96.6492642 C57.2055316,96.6489231 57.1231612,96.5647537 57.1233937,96.4617549 L57.1255056,95.5262623 Z M59.5233679,95.5342939 C59.5236009,95.4310765 59.6065012,95.3476794 59.7081922,95.34802 L61.4913151,95.3539925 C61.5931578,95.3543336 61.6755282,95.4385029 61.6752956,95.5415017 L61.6731838,96.4769943 C61.6729508,96.5802117 61.5900505,96.6636089 61.4883594,96.6632683 L59.7052365,96.6572958 C59.6033939,96.6569546 59.5210235,96.5727853 59.521256,96.4697865 L59.5233679,95.5342939 Z M61.9212302,95.5423255 C61.9214632,95.4391081 62.0043635,95.3557109 62.1060545,95.3560515 L63.8891775,95.3620241 C63.9910201,95.3623652 64.0733905,95.4465345 64.073158,95.5495333 L64.0710461,96.4850259 C64.0708131,96.5882433 63.9879128,96.6716405 63.8862218,96.6712998 L62.1030989,96.6653273 C62.0012562,96.6649862 61.9188858,96.5808169 61.9191184,96.4778181 L61.9212302,95.5423255 Z M64.3190926,95.5503571 C64.3193256,95.4471397 64.4022259,95.3637425 64.5039169,95.3640831 L66.2870398,95.3700556 C66.3888824,95.3703968 66.4712528,95.4545661 66.4710203,95.5575649 L66.4689084,96.4930575 C66.4686754,96.5962749 66.3857752,96.679672 66.2840841,96.6793314 L64.5009612,96.6733589 C64.3991186,96.6730178 64.3167482,96.5888485 64.3169807,96.4858497 L64.3190926,95.5503571 Z M37.221681,101.600897 C37.2219142,101.497609 37.304695,101.414153 37.4066992,101.414495 L39.1279514,101.42026 C39.2299009,101.420602 39.3123581,101.504697 39.3121251,101.607899 L39.3084656,103.228945 C39.3082325,103.332234 39.2254517,103.415689 39.1234475,103.415347 L37.4021953,103.409582 C37.3002458,103.40924 37.2177886,103.325146 37.2180215,103.221943 L37.221681,101.600897 Z M39.5273179,101.60862 C39.5275511,101.505331 39.6103319,101.421876 39.7123361,101.422218 L41.4335882,101.427983 C41.5355378,101.428324 41.617995,101.512419 41.617762,101.615622 L41.6141025,103.236668 C41.6138693,103.339956 41.5310886,103.423412 41.4290844,103.42307 L39.7078322,103.417305 C39.6058826,103.416963 39.5234254,103.332868 39.5236584,103.229666 L39.5273179,101.60862 Z M41.8329548,101.616342 C41.8331879,101.513054 41.9159687,101.429599 42.0179729,101.42994 L43.7392251,101.435706 C43.8411746,101.436047 43.9236318,101.520142 43.9233989,101.623344 L43.9197394,103.244391 C43.9195062,103.347679 43.8367254,103.431134 43.7347212,103.430793 L42.013469,103.425027 C41.9115195,103.424686 41.8290623,103.340591 41.8292953,103.237389 L41.8329548,101.616342 Z M44.1385916,101.624065 C44.1388248,101.520777 44.2216056,101.437321 44.3236098,101.437663 L46.044862,101.443428 C46.1468115,101.44377 46.2292687,101.527865 46.2290357,101.631067 L46.2253762,103.252113 C46.2251431,103.355402 46.1423623,103.438857 46.0403581,103.438515 L44.3191059,103.43275 C44.2171564,103.432408 44.1346992,103.348314 44.1349321,103.245111 L44.1385916,101.624065 Z M46.4442285,101.631788 C46.4444617,101.528499 46.5272424,101.445044 46.6292467,101.445386 L48.3504988,101.451151 C48.4524484,101.451492 48.5349056,101.535587 48.5346726,101.63879 L48.5310131,103.259836 C48.5307799,103.363124 48.4479991,103.44658 48.3459949,103.446238 L46.6247428,103.440473 C46.5227932,103.440131 46.440336,103.356036 46.440569,103.252834 L46.4442285,101.631788 Z M51.0555022,101.647233 C51.0557354,101.543945 51.1385162,101.460489 51.2405204,101.460831 L52.9617726,101.466596 C53.0637221,101.466938 53.1461793,101.551033 53.1459463,101.654235 L53.1422868,103.275281 C53.1420536,103.37857 53.0592729,103.462025 52.9572687,103.461683 L51.2360165,103.455918 C51.134067,103.455576 51.0516098,103.371482 51.0518427,103.268279 L51.0555022,101.647233 Z M53.3611391,101.654956 C53.3613723,101.551667 53.444153,101.468212 53.5461572,101.468554 L55.2674094,101.474319 C55.369359,101.47466 55.4518162,101.558755 55.4515832,101.661958 L55.4479237,103.283004 C55.4476905,103.386292 55.3649097,103.469748 55.2629055,103.469406 L53.5416534,103.463641 C53.4397038,103.463299 53.3572466,103.379204 53.3574796,103.276002 L53.3611391,101.654956 Z M33.1227438,106.138496 C33.122977,106.035206 33.2057578,105.951751 33.307762,105.952092 L35.0290142,105.957857 C35.1309637,105.958199 35.2134207,106.042365 35.2131879,106.145498 L35.2089655,108.015927 C35.2087323,108.119216 35.1259515,108.202672 35.0239473,108.20233 L33.3026951,108.196565 C33.2007456,108.196223 33.1182885,108.112057 33.1185214,108.008925 L33.1227438,106.138496 Z M35.4283807,106.146218 C35.4286139,106.042929 35.5113947,105.959473 35.6133989,105.959815 L37.334651,105.96558 C37.4366006,105.965922 37.5190576,106.050088 37.5188248,106.15322 L37.5146023,108.023649 C37.5143691,108.126939 37.4315884,108.210395 37.3295842,108.210053 L35.608332,108.204288 C35.5063824,108.203946 35.4239254,108.11978 35.4241582,108.016648 L35.4283807,106.146218 Z M37.7340176,106.153941 C37.7342507,106.050652 37.8170315,105.967196 37.9190357,105.967538 L39.6402879,105.973303 C39.7422374,105.973644 39.8246945,106.057811 39.8244617,106.160943 L39.8202392,108.031372 C39.820006,108.134661 39.7372252,108.218117 39.635221,108.217776 L37.9139688,108.21201 C37.8120193,108.211669 37.7295623,108.127502 37.7297951,108.02437 L37.7340176,106.153941 Z M33.1330183,101.587202 C33.1332515,101.483914 33.2161355,101.400459 33.317985,101.4008 L36.822366,101.412538 C36.9242871,101.412879 37.0067212,101.496974 37.0064883,101.600176 L37.0028288,103.221223 C37.0025956,103.324511 36.9197117,103.407966 36.8178621,103.407625 L33.3134811,103.395887 C33.21156,103.395546 33.1291259,103.311451 33.1293588,103.208249 L33.1330183,101.587202 Z M40.7211118,103.888281 C40.721345,103.784993 40.8041258,103.701538 40.90613,103.70188 L42.6273822,103.707645 C42.7293317,103.707986 42.8117889,103.792081 42.8115559,103.895283 L42.8078964,105.51633 C42.8076632,105.619618 42.7248825,105.703073 42.6228783,105.702732 L40.9016261,105.696966 C40.7996766,105.696625 40.7172194,105.61253 40.7174523,105.509328 L40.7211118,103.888281 Z M43.0267487,103.896004 C43.0269819,103.792716 43.1097626,103.709261 43.2117668,103.709602 L44.933019,103.715367 C45.0349686,103.715709 45.1174258,103.799804 45.1171928,103.903006 L45.1135333,105.524052 C45.1133001,105.627341 45.0305193,105.710796 44.9285151,105.710454 L43.207263,105.704689 C43.1053134,105.704348 43.0228562,105.620253 43.0230892,105.517051 L43.0267487,103.896004 Z M43.0216114,106.171652 C43.0218446,106.068362 43.1046047,105.984906 43.2066276,105.985248 L54.1504313,106.021904 C54.2523797,106.022246 54.3348358,106.106412 54.334603,106.209544 L54.3303805,108.079973 C54.3301473,108.183263 54.2473872,108.266719 54.1453644,108.266377 L43.2015607,108.229721 C43.0996123,108.229379 43.0171561,108.145213 43.017389,108.042081 L43.0216114,106.171652 Z M45.3323856,103.903727 C45.3326187,103.800438 45.4153995,103.716983 45.5174037,103.717325 L47.2386559,103.72309 C47.3406054,103.723432 47.4230626,103.807527 47.4228296,103.910729 L47.4191701,105.531775 C47.418937,105.635063 47.3361562,105.718519 47.234152,105.718177 L45.5128998,105.712412 C45.4109503,105.71207 45.3284931,105.627975 45.3287261,105.524773 L45.3323856,103.903727 Z M47.6380224,103.911449 C47.6382556,103.808161 47.7210364,103.724706 47.8230406,103.725048 L49.5442928,103.730813 C49.6462423,103.731154 49.7286995,103.815249 49.7284665,103.918451 L49.724807,105.539498 C49.7245738,105.642786 49.6417931,105.726241 49.5397889,105.7259 L47.8185367,105.720134 C47.7165872,105.719793 47.6341299,105.635698 47.6343629,105.532496 L47.6380224,103.911449 Z M49.9436593,103.919172 C49.9438925,103.815884 50.0266732,103.732429 50.1286774,103.73277 L51.8499296,103.738535 C51.9518791,103.738877 52.0343364,103.822972 52.0341034,103.926174 L52.0304439,105.54722 C52.0302107,105.650509 51.9474299,105.733964 51.8454257,105.733622 L50.1241735,105.727857 C50.022224,105.727516 49.9397668,105.643421 49.9399998,105.540219 L49.9436593,103.919172 Z M52.2492961,103.926895 C52.2495293,103.823606 52.3323101,103.740151 52.4343143,103.740493 L54.1555665,103.746258 C54.257516,103.7466 54.3399732,103.830695 54.3397402,103.933897 L54.3360807,105.554943 C54.3358476,105.658231 54.2530668,105.741687 54.1510626,105.741345 L52.4298104,105.73558 C52.3278609,105.735238 52.2454037,105.651143 52.2456367,105.547941 L52.2492961,103.926895 Z M54.554933,103.934617 C54.5551662,103.831329 54.637947,103.747874 54.7399512,103.748215 L56.4612033,103.753981 C56.5631529,103.754322 56.6456101,103.838417 56.6453771,103.941619 L56.6417176,105.562666 C56.6414844,105.665954 56.5587037,105.749409 56.4566995,105.749068 L54.7354473,105.743302 C54.6334977,105.742961 54.5510405,105.658866 54.5512735,105.555664 L54.554933,103.934617 Z M38.415475,103.880559 C38.4157081,103.77727 38.4984889,103.693815 38.6004931,103.694157 L40.3217453,103.699922 C40.4236948,103.700264 40.506152,103.784359 40.5059191,103.887561 L40.5022596,105.508607 C40.5020264,105.611896 40.4192456,105.695351 40.3172414,105.695009 L38.5959892,105.689244 C38.4940397,105.688902 38.4115825,105.604807 38.4118155,105.501605 L38.415475,103.880559 Z M36.1098381,103.872836 C36.1100713,103.769548 36.192852,103.686093 36.2948563,103.686434 L38.0161084,103.692199 C38.118058,103.692541 38.2005152,103.776636 38.2002822,103.879838 L38.1966227,105.500884 C38.1963895,105.604173 38.1136087,105.687628 38.0116045,105.687286 L36.2903524,105.681521 C36.1884028,105.68118 36.1059456,105.597085 36.1061786,105.493883 L36.1098381,103.872836 Z M48.7498654,101.63951 C48.7500985,101.536222 48.8328793,101.452767 48.9348835,101.453108 L50.6561357,101.458874 C50.7580852,101.459215 50.8405424,101.54331 50.8403095,101.646512 L50.83665,103.267559 C50.8364168,103.370847 50.753636,103.454302 50.6516318,103.453961 L48.9303796,103.448195 C48.8284301,103.447854 48.7459729,103.363759 48.7462059,103.260557 L48.7498654,101.63951 Z M33.1278811,103.862848 C33.1281143,103.75956 33.2107313,103.676104 33.3127874,103.676446 L35.7105834,103.684477 C35.8124712,103.684818 35.8948783,103.768913 35.8946453,103.872115 L35.8909858,105.493162 C35.8907527,105.59645 35.8081356,105.679906 35.7060795,105.679564 L33.3082835,105.671533 C33.2063958,105.671191 33.1239886,105.587097 33.1242216,105.483895 L33.1278811,103.862848 Z M40.0396544,106.161664 C40.0398876,106.058374 40.1225047,105.974918 40.2245608,105.97526 L42.6223567,105.983291 C42.7242445,105.983632 42.8066515,106.067799 42.8064187,106.170931 L42.8021962,108.04136 C42.801963,108.144649 42.7193459,108.228106 42.6172899,108.227764 L40.2194939,108.219733 C40.1176061,108.219391 40.0351991,108.135225 40.035432,108.032093 L40.0396544,106.161664 Z" id="Macbook-base" fill="#7D95C9" style="mix-blend-mode: multiply;" transform="translate(49.794771, 101.783310) rotate(-135.000000) translate(-49.794771, -101.783310) "></path>
            <path d="M56.1650066,89.692564 L59.2002675,89.6745615 C60.967305,89.664081 62.408268,91.0880517 62.4187485,92.8550892 C62.4188192,92.8670003 62.4188233,92.8789118 62.4187609,92.8908229 L62.4187609,92.8908229 C62.4093718,94.6835287 60.9590758,96.1348313 59.1663769,96.145464 L56.131116,96.1634665 C54.3640785,96.173947 52.9231155,94.7499763 52.912635,92.9829388 C52.9125643,92.9710277 52.9125602,92.9591162 52.9126226,92.947205 L52.9126226,92.947205 C52.9220117,91.1544992 54.3723077,89.7031967 56.1650066,89.692564 Z" id="Macbook-base" fill="#B6CDED" fill-rule="nonzero" transform="translate(57.665692, 92.919014) rotate(-315.000000) translate(-57.665692, -92.919014) "></path>
            <path d="M31.2313341,87.4883249 L31.3337533,87.4736493 L41.0571267,95.420559 L43.1195095,132.754659 L43.1195095,132.754659 C42.5748192,132.941028 41.9779824,132.899824 41.4640705,132.640372 L36.5699719,130.169546 C33.0651198,128.400093 30.8267623,124.83689 30.7541094,120.911374 L30.1588495,88.7488176 C30.1471793,88.1182645 30.6070493,87.5777786 31.2313341,87.4883249 Z" id="Macbook-base" fill="#7D95C9" fill-rule="nonzero" style="mix-blend-mode: multiply;" transform="translate(36.639071, 110.171713) rotate(-44.000000) translate(-36.639071, -110.171713) "></path>
            <path d="M33.0974759,88.0358268 L42.2636929,94.1615478 L43.2046817,132.355874 L37.1953291,129.322005 C33.8826985,127.649598 31.7685536,124.280332 31.7036528,120.570041 L31.1531219,89.0969706 C31.141048,88.4067203 31.6908186,87.837374 32.3810689,87.8253 C32.6357433,87.8208452 32.8857007,87.8942989 33.0974759,88.0358268 Z" id="Macbook-base" fill="url(#linearGradient-22)" fill-rule="nonzero" transform="translate(37.178804, 110.090491) rotate(-44.000000) translate(-37.178804, -110.090491) "></path>
            <path d="M34.0631936,89.4906224 L41.9337409,94.6634083 L42.8284331,130.878279 L38.1067414,128.413318 C34.8712289,126.724218 32.8129683,123.406507 32.7367497,119.757427 L32.1269279,90.561314 C32.1125115,89.8711086 32.6603467,89.2998998 33.3505521,89.2854834 C33.603381,89.2802025 33.8518659,89.3517307 34.0631936,89.4906224 Z" id="Macbook-base" fill="url(#linearGradient-23)" fill-rule="nonzero" transform="translate(37.477541, 110.081745) rotate(-44.000000) translate(-37.477541, -110.081745) "></path>
            <polygon id="Book-base" fill="url(#linearGradient-24)" fill-rule="nonzero" transform="translate(106.044179, 71.083670) rotate(-120.000000) translate(-106.044179, -71.083670) " points="104.460183 68.8852941 105.956034 70.8835299 107.650776 68.8688569 107.628174 73.2820459 104.437582 73.2984831"></polygon>
            <path d="M110.801781,59.3226925 L124.893774,59.2500936 C127.655161,59.2358676 129.90524,61.4628816 129.919466,64.2242687 C129.919554,64.2413902 129.919554,64.2585121 129.919467,64.2756335 L129.85562,76.7423811 C129.841581,79.4837309 127.622794,81.7025857 124.881444,81.7167085 L110.68672,81.7898367 L110.801781,59.3226925 Z" id="Book-base" fill="url(#linearGradient-25)" fill-rule="nonzero" transform="translate(120.303126, 70.519931) rotate(-120.000000) translate(-120.303126, -70.519931) "></path>
            <polygon id="Book-base" fill="#FFFFFF" fill-rule="nonzero" opacity="0.449999988" transform="translate(116.452224, 72.702268) rotate(-120.000000) translate(-116.452224, -72.702268) " points="110.882042 70.1232394 122.049116 70.065709 122.022405 75.2812961 110.855331 75.3388264"></polygon>
            <polygon id="Book-base" fill="#FFFFFF" fill-rule="nonzero" opacity="0.449999988" transform="translate(125.063472, 67.559582) rotate(-120.000000) translate(-125.063472, -67.559582) " points="120.480077 66.9814118 129.653031 66.9341547 129.646867 68.1377517 120.473913 68.1850088"></polygon>
            <polygon id="Book-base" fill="#FFFFFF" fill-rule="nonzero" opacity="0.449999988" transform="translate(126.805841, 66.565481) rotate(-120.000000) translate(-126.805841, -66.565481) " points="122.222446 65.9873113 131.3954 65.9400542 131.389236 67.1436512 122.216282 67.1909083"></polygon>
            <path d="M51.6472598,36.4427104 L66.5210521,36.5188838 C69.2624019,36.5329231 71.4812567,38.7517103 71.4953795,41.4930597 L71.6030963,62.4017167 C71.6173224,65.1631038 69.3903084,67.4131828 66.6289213,67.4274089 C66.6117998,67.4274971 66.5946779,67.4274974 66.5775564,67.4274097 L51.7037641,67.3512363 C48.9624143,67.337197 46.7435595,65.1184098 46.7294367,62.3770604 L46.6217199,41.4684034 C46.6074938,38.7070163 48.8345078,36.4569373 51.5958949,36.4427112 C51.6130164,36.442623 51.6301383,36.4426227 51.6472598,36.4427104 Z" id="Ipad-base" fill="url(#linearGradient-26)" fill-rule="nonzero" transform="translate(59.112408, 51.935060) rotate(-30.000000) translate(-59.112408, -51.935060) "></path>
            <ellipse id="Ipad-base" fill="#5C76AF" fill-rule="nonzero" transform="translate(66.204406, 64.073980) rotate(-30.000000) translate(-66.204406, -64.073980) " cx="66.2044058" cy="64.0739801" rx="1.00300492" ry="1"></ellipse>
            <circle id="Ipad-base" fill="#5C76AF" fill-rule="nonzero" transform="translate(51.919815, 39.623957) rotate(-30.000000) translate(-51.919815, -39.623957) " cx="51.9198146" cy="39.6239567" r="1"></circle>
            <polygon id="Ipad-base" fill="url(#linearGradient-27)" fill-rule="nonzero" transform="translate(58.961515, 51.676785) rotate(-30.000000) translate(-58.961515, -51.676785) " points="47.2600366 38.6553396 70.5294391 38.7745096 70.6629925 64.6982307 47.39359 64.5790607"></polygon>
            <ellipse id="Lamp-base" fill="url(#linearGradient-28)" fill-rule="nonzero" cx="133.5" cy="116" rx="13.5" ry="13"></ellipse>
            <circle id="Lamp-base" fill="url(#linearGradient-10)" fill-rule="nonzero" cx="133.5" cy="114.5" r="3.5"></circle>
            <ellipse id="Lamp-base" fill="url(#linearGradient-29)" fill-rule="nonzero" transform="translate(127.524105, 90.105683) rotate(-4.000000) translate(-127.524105, -90.105683) " cx="127.524105" cy="90.1056826" rx="15.7607726" ry="15.5816176"></ellipse>
            <path d="M127,104.987241 L127,96 L130.233556,97.8110227 L134.936911,102.386238 L135.013654,102.875624 C133.154465,103.904076 131.099115,104.600955 128.936074,104.867966 C128.280421,104.948901 127.634233,104.987951 127,104.987241 Z" id="Shadow" fill="url(#linearGradient-30)" fill-rule="nonzero" style="mix-blend-mode: multiply;" opacity="0.300000012"></path>
            <path d="M132.271521,98.2019978 C132.0749,97.7143976 132.222135,97.1144999 132.60038,96.8620888 C132.978625,96.6096777 133.444646,96.800336 133.641268,97.2879362 C136.105824,103.399766 137.483041,107.618863 137.78386,110.043641 C138.027273,112.005686 137.478829,113.80161 136.395797,114.898759 C135.333395,115.975009 133.925185,116.191395 132.774683,115.356525 C132.403006,115.086815 132.270947,114.480475 132.479719,114.002226 C132.688492,113.523977 133.159039,113.354923 133.530716,113.624633 C134.840578,114.575144 136.566238,112.82699 136.25945,110.3541 C135.993432,108.20985 134.660476,104.126345 132.271521,98.2019978 Z" id="Lamp-base" fill="#5171B9" fill-rule="nonzero" transform="translate(135.012653, 106.308540) rotate(-4.000000) translate(-135.012653, -106.308540) "></path>
            <path d="M127.02054,99.6815809 C125.178555,96.8382305 125.898443,92.9789833 128.628456,91.0617111 C131.358468,89.1444389 135.064804,89.8951737 136.906789,92.7385242 C137.009636,92.8972827 138.37404,95.0034224 141,99.0569432 L131.113751,106 C128.487791,101.946479 127.123387,99.8403395 127.02054,99.6815809 Z" id="Lamp-base" fill="url(#linearGradient-31)" fill-rule="nonzero"></path>
            <ellipse id="Lamp-base" fill="url(#linearGradient-32)" fill-rule="nonzero" transform="translate(135.394235, 102.222056) rotate(-34.000000) translate(-135.394235, -102.222056) " cx="135.394235" cy="102.222056" rx="5.80641508" ry="4.7311889"></ellipse>
            <circle id="Coffee-base" fill="url(#linearGradient-10)" fill-rule="nonzero" transform="translate(106.500000, 48.500000) scale(1, -1) rotate(-180.000000) translate(-106.500000, -48.500000) " cx="106.5" cy="48.5" r="9.5"></circle>
            <path d="M107,39 L107,39 C107.552285,39 108,39.4477153 108,40 L108,43 L106,43 L106,40 C106,39.4477153 106.447715,39 107,39 Z" id="Coffee-base" fill="url(#linearGradient-11)" fill-rule="nonzero" transform="translate(107.000000, 41.000000) scale(1, -1) rotate(-180.000000) translate(-107.000000, -41.000000) "></path>
            <circle id="Coffee-base" fill="url(#linearGradient-12)" fill-rule="nonzero" transform="translate(107.500000, 49.500000) scale(1, -1) rotate(-180.000000) translate(-107.500000, -49.500000) " cx="107.5" cy="49.5" r="5.5"></circle>
            <circle id="Coffee-base" fill="#7D95C9" fill-rule="nonzero" style="mix-blend-mode: multiply;" transform="translate(108.000000, 50.000000) scale(1, -1) rotate(-180.000000) translate(-108.000000, -50.000000) " cx="108" cy="50" r="5"></circle>
        </g>
    </g>
</svg>