<svg width="20" height="20" viewBox="0 0 20 20" fill="none" xmlns="http://www.w3.org/2000/svg">
<rect x="0.5" y="0.5" width="19" height="19" rx="5.5" fill="white"/>
<rect x="0.5" y="0.5" width="19" height="19" rx="5.5" stroke="#F2F4F7"/>
<path fill-rule="evenodd" clip-rule="evenodd" d="M6.23214 13.2152H5.03808L4.14269 8.16031C4.10019 7.92779 4.00995 7.72222 3.87721 7.62534C3.54595 7.38186 3.18093 7.18809 2.78271 7.09036V6.89575H4.70624C4.97171 6.89575 5.17082 7.18809 5.204 7.52761L5.66858 11.1739L6.86205 6.89575H8.02292L6.23214 13.2152ZM8.68661 13.2152H7.55893L8.48751 6.89575H9.61519L8.68661 13.2152ZM11.0741 8.64643C11.1073 8.30606 11.3064 8.11145 11.5387 8.11145C11.9037 8.06259 12.3014 8.16032 12.6332 8.40295L12.8323 7.04234C12.5005 6.84773 12.1355 6.75 11.8042 6.75C10.7097 6.75 9.91327 7.62534 9.91327 8.8402C9.91327 9.7644 10.4774 10.2497 10.8756 10.542C11.3064 10.8335 11.4723 11.0281 11.4392 11.3196C11.4392 11.7569 11.1073 11.9515 10.7761 11.9515C10.3778 11.9515 9.97964 11.8057 9.61519 11.5623L9.41608 12.9237C9.8143 13.1663 10.2451 13.2641 10.6433 13.2641C11.8706 13.3121 12.6332 12.4376 12.6332 11.125C12.6332 9.47206 11.0741 9.37518 11.0741 8.64643ZM16.5798 13.2152L15.6844 6.89575H14.7227C14.5236 6.89575 14.3244 7.09036 14.2581 7.38186L12.6 13.2152H13.7609L13.9926 12.2918H15.4189L15.5517 13.2152H16.5798ZM14.8886 8.59757L15.2198 10.9793H14.2913L14.8886 8.59757Z" fill="#172B85"/>
</svg>
