<svg width="79" height="24" viewBox="0 0 79 24" fill="none" xmlns="http://www.w3.org/2000/svg">
<g clip-path="url(#clip0_848_4267)">
<mask id="mask0_848_4267" style="mask-type:luminance" maskUnits="userSpaceOnUse" x="0" y="3" width="79" height="18">
<path d="M78.4883 3H0.488281V21H78.4883V3Z" fill="white"/>
</mask>
<g mask="url(#mask0_848_4267)">
<path fill-rule="evenodd" clip-rule="evenodd" d="M6.75746 3.00069C4.95279 3.00069 4.04978 3.00069 3.08514 3.30054C2.02077 3.68626 1.18147 4.52557 0.795749 5.59131C0.488281 6.56566 0.488281 7.46729 0.488281 9.27261V14.7197C0.488281 16.5348 0.488281 17.4288 0.788132 18.4011C1.17385 19.4661 2.01315 20.3054 3.07751 20.6911C4.05116 21 4.95279 21 6.75746 21H12.2102C14.0169 21 14.9178 21 15.8894 20.6911C16.9544 20.3054 17.793 19.4661 18.1787 18.4011C18.4862 17.4267 18.4862 16.5251 18.4862 14.7197V9.28026C18.4862 7.47283 18.4862 6.57119 18.1787 5.59894C17.793 4.53388 16.9537 3.69458 15.8894 3.30885C14.9088 3 14.0169 3 12.2012 3H6.75672L6.75746 3.00069Z" fill="#00D633"/>
<path d="M10.2147 11.126C12.1111 11.5324 12.978 12.318 12.978 13.6455C12.978 15.3097 11.6229 16.5381 9.5075 16.6681L9.30112 17.6525C9.28093 17.7487 9.1961 17.8176 9.09778 17.8176H7.47035C7.3362 17.8176 7.23725 17.6924 7.26819 17.5619L7.52941 16.461C6.48086 16.1628 5.63707 15.5824 5.14519 14.866C5.08326 14.7758 5.1038 14.6526 5.19016 14.5854L6.32763 13.7007C6.4214 13.6278 6.55578 13.6492 6.62508 13.7456C7.22786 14.5845 8.15255 15.0813 9.26647 15.0813C10.2688 15.0813 11.0274 14.5937 11.0274 13.8893C11.0274 13.3475 10.6481 13.1037 9.37487 12.8328C7.18044 12.3722 6.31351 11.5594 6.31351 10.232C6.31351 8.69174 7.60794 7.52822 9.56055 7.3771L9.77368 6.36043C9.79387 6.26421 9.8787 6.19531 9.97702 6.19531H11.5826C11.715 6.19531 11.8137 6.3176 11.7856 6.44705L11.5388 7.58619C12.3791 7.84482 13.0632 8.30726 13.489 8.87793C13.5551 8.96636 13.5381 9.09162 13.4528 9.1616L12.415 10.0126C12.3248 10.0866 12.1931 10.0704 12.1198 9.9797C11.5923 9.32737 10.762 8.95865 9.8625 8.95865C8.86012 8.95865 8.23698 9.39211 8.23698 10.0152C8.23698 10.5299 8.72467 10.8009 10.2147 11.126Z" fill="white"/>
<path d="M27.9539 15.1548C28.9084 15.1548 29.6211 14.6051 29.9277 13.6903C29.9646 13.5802 30.0819 13.5192 30.1919 13.5563L31.4171 13.9694C31.5285 14.007 31.5871 14.1299 31.5455 14.2399C30.9773 15.7449 29.732 16.6831 27.9539 16.6831C25.5223 16.6831 23.7539 14.7568 23.7539 12.0095C23.7539 9.26221 25.5223 7.33594 27.9539 7.33594C29.732 7.33594 30.9773 8.27422 31.5455 9.77915C31.5871 9.88917 31.5285 10.012 31.4171 10.0496L30.1919 10.4628C30.0819 10.4999 29.9646 10.4389 29.9277 10.3288C29.6211 9.41403 28.9084 8.8643 27.9539 8.8643C26.5139 8.8643 25.497 10.1085 25.497 12.0095C25.497 13.9105 26.5139 15.1548 27.9539 15.1548Z" fill="black"/>
<path d="M36.2519 13.4497L34.8877 13.7339C34.2751 13.8602 33.8204 14.056 33.8204 14.6181C33.8204 15.1044 34.1804 15.3823 34.7362 15.3823C35.513 15.3823 36.2519 14.9718 36.2519 14.195V13.4497ZM32.1973 14.7002C32.1973 13.4055 33.2014 12.8497 34.5087 12.5971L36.2519 12.2497V12.1424C36.2519 11.5424 35.9424 11.1698 35.1719 11.1698C34.5495 11.1698 34.1955 11.4228 34.012 11.9287C33.9771 12.0252 33.8758 12.0808 33.7754 12.06L32.6343 11.8234C32.5083 11.7973 32.4368 11.6643 32.4827 11.544C32.8643 10.5439 33.8206 9.78027 35.2351 9.78027C36.8709 9.78027 37.8561 10.5445 37.8561 12.0792V14.8644C37.8561 15.1622 37.9604 15.2929 38.2164 15.3044C38.3286 15.3094 38.4182 15.3995 38.4182 15.5118V16.3588C38.4182 16.4656 38.337 16.5555 38.2308 16.5659C37.2351 16.6631 36.6601 16.437 36.4161 15.9191C35.993 16.3865 35.3109 16.6581 34.4456 16.6581C33.1636 16.6581 32.1973 15.8813 32.1973 14.7002Z" fill="black"/>
<path d="M39.8538 14.4873C39.9409 14.4081 40.0767 14.4165 40.1518 14.507C40.5935 15.0394 41.3004 15.376 41.9867 15.376C42.6056 15.376 43.1613 15.1613 43.1613 14.6244C43.1613 14.0876 42.6367 14.0269 41.5825 13.816C40.5209 13.6037 39.3277 13.3297 39.3277 11.9087C39.3277 10.6645 40.4203 9.78027 41.9803 9.78027C43.0605 9.78027 44.0327 10.2067 44.5676 10.8251C44.6398 10.9085 44.6374 11.0326 44.5595 11.1106L43.8384 11.8317C43.7542 11.9158 43.615 11.9136 43.5371 11.8236C43.1285 11.3511 42.5501 11.0876 41.9108 11.0876C41.3235 11.0876 40.9383 11.3466 40.9383 11.7508C40.9383 12.2055 41.3993 12.2876 42.2266 12.4582C43.3698 12.6982 44.7655 12.9508 44.7655 14.4602C44.7655 15.8244 43.5087 16.6833 41.9614 16.6833C40.8234 16.6833 39.6575 16.2717 39.0225 15.5058C38.9526 15.4216 38.9643 15.2964 39.0452 15.2227L39.8538 14.4873Z" fill="black"/>
<path d="M45.8191 7.4751H47.0456C47.1603 7.4751 47.2533 7.56811 47.2533 7.68285V10.6013C47.626 10.1656 48.226 9.7803 49.0786 9.7803C50.4681 9.7803 51.308 10.734 51.308 12.1677V16.3367C51.308 16.4514 51.2151 16.5445 51.1003 16.5445H49.8737C49.759 16.5445 49.666 16.4514 49.666 16.3367V12.6413C49.666 11.8582 49.3502 11.2961 48.5544 11.2961C47.9039 11.2961 47.2533 11.7698 47.2533 12.6793V16.3367C47.2533 16.4514 47.1603 16.5445 47.0456 16.5445H45.8191C45.7043 16.5445 45.6113 16.4514 45.6113 16.3367V7.68285C45.6113 7.56811 45.7043 7.4751 45.8191 7.4751Z" fill="black"/>
<path d="M57.2632 13.0393H59.9727L58.6081 9.4014L57.2632 13.0393ZM59.6757 7.6096L62.936 16.2634C62.9872 16.3993 62.887 16.5445 62.7419 16.5445H61.4302C61.3435 16.5445 61.2659 16.4906 61.2355 16.4095L60.5347 14.5361H56.7073L56.0124 16.409C55.9822 16.4904 55.9044 16.5445 55.8176 16.5445H54.538C54.3929 16.5445 54.2925 16.3994 54.3436 16.2636L57.5978 7.60972C57.6282 7.52873 57.7058 7.4751 57.7925 7.4751H59.4817C59.5677 7.4751 59.6453 7.52867 59.6757 7.6096Z" fill="black"/>
<path d="M65.3347 13.4245C65.3347 14.5992 66.0041 15.2623 66.8945 15.2623C67.943 15.2623 68.505 14.435 68.505 13.2287C68.505 12.0287 67.943 11.2013 66.8945 11.2013C66.0041 11.2013 65.3347 11.8518 65.3347 13.0455V13.4245ZM65.3724 15.856V18.5976C65.3724 18.7124 65.2796 18.8054 65.1648 18.8054H63.938C63.8233 18.8054 63.7305 18.7124 63.7305 18.5976V10.1143C63.7305 9.99959 63.8233 9.90661 63.938 9.90661H65.1648C65.2796 9.90661 65.3724 9.99959 65.3724 10.1143V10.6013C65.7768 10.115 66.4085 9.78027 67.2545 9.78027C69.099 9.78027 70.1598 11.3466 70.1598 13.2287C70.1598 15.117 69.099 16.6833 67.2545 16.6833C66.4085 16.6833 65.7768 16.3486 65.3724 15.856Z" fill="black"/>
<path d="M72.6296 13.4245C72.6296 14.5992 73.299 15.2623 74.1894 15.2623C75.2379 15.2623 75.7999 14.435 75.7999 13.2287C75.7999 12.0287 75.2379 11.2013 74.1894 11.2013C73.299 11.2013 72.6296 11.8518 72.6296 13.0455V13.4245ZM72.6673 15.856V18.5976C72.6673 18.7124 72.5745 18.8054 72.4598 18.8054H71.233C71.1182 18.8054 71.0254 18.7124 71.0254 18.5976V10.1143C71.0254 9.99959 71.1182 9.90661 71.233 9.90661H72.4598C72.5745 9.90661 72.6673 9.99959 72.6673 10.1143V10.6013C73.0718 10.115 73.7034 9.78027 74.5494 9.78027C76.3939 9.78027 77.4548 11.3466 77.4548 13.2287C77.4548 15.117 76.3939 16.6833 74.5494 16.6833C73.7034 16.6833 73.0718 16.3486 72.6673 15.856Z" fill="black"/>
</g>
</g>
<defs>
<clipPath id="clip0_848_4267">
<rect width="78" height="24" fill="white" transform="translate(0.488281)"/>
</clipPath>
</defs>
</svg>
