<svg xmlns="http://www.w3.org/2000/svg" width="40" height="40" viewBox="0 0 40 40">
    <g fill="none" fill-rule="evenodd">
        <g fill-rule="nonzero">
            <g>
                <g>
                    <g>
                        <path fill="#FFF" stroke="#E7EBF0" stroke-width=".5" d="M27.278.25c3.188.008 4.976.068 6.885.672 2.286.835 4.086 2.637 4.919 4.925.6 1.905.66 3.693.667 6.875h0l.001.801v13.755c-.008 3.188-.068 4.976-.672 6.885-.835 2.286-2.637 4.086-4.924 4.918-1.906.601-3.693.661-6.876.668h0l-.801.001H12.722c-3.188-.008-4.976-.068-6.884-.672-2.287-.835-4.087-2.637-4.92-4.925-.6-1.905-.66-3.693-.667-6.874h0V12.722c.007-3.188.067-4.976.67-6.885C1.758 3.551 3.56 1.751 5.848.918 7.752.318 9.54.258 12.72.251h0z" transform="translate(-389.000000, -538.000000) translate(369.000000, 26.000000) translate(0.000000, 383.000000) translate(20.000000, 129.000000)"/>
                        <g transform="translate(-389.000000, -538.000000) translate(369.000000, 26.000000) translate(0.000000, 383.000000) translate(20.000000, 129.000000) translate(3.000000, 3.000000)">
                            <path fill="#DB4437" d="M16.98 16.999V8.5h14.73C28.77 2.82 23.292 0 17.003 0 10.927-.001 5.314 3.245 2.285 8.511l7.342 12.737 7.353-4.25z"/>
                            <path fill="#FFCD40" d="M16.98 8.501V17l7.372 4.249-7.355 12.75C26.386 33.997 34 26.387 34 17c0-3.1-.838-5.705-2.29-8.499H16.98z"/>
                            <path fill="#0F9D58" d="M16.98 16.999l-7.35 4.249L2.283 8.51C.786 11.09 0 14.018 0 17c0 9.387 7.612 16.998 17.002 16.998l7.35-12.75L16.98 17z"/>
                            <path fill="#CA3F33" d="M0 0L10.773 10.773 7.37 12.737z" transform="translate(2.270083, 8.511410)"/>
                            <g fill="#0E9151">
                                <path d="M0 14.716L3.943 0 7.346 1.965z" transform="translate(17.018631, 19.284333) translate(0.000000, 0.000000)"/>
                            </g>
                            <g fill="#EFBF3C">
                                <path d="M14.717 0L0 3.943 0.001 0.013z" transform="translate(17.002795, 8.484399) translate(0.000000, 0.000000)"/>
                            </g>
                            <ellipse cx="17.003" cy="16.999" fill="#FFF" rx="8.5" ry="8.499"/>
                            <ellipse cx="17.003" cy="16.999" fill="#4285F4" rx="6.234" ry="6.233"/>
                        </g>
                    </g>
                </g>
            </g>
        </g>
    </g>
</svg>
