<svg width="98" height="85" viewBox="0 0 98 85" fill="none" xmlns="http://www.w3.org/2000/svg">
<path d="M8.90308 8.9043H89.0803V75.7102H8.90308V8.9043Z" fill="#0F9D58"/>
<path d="M66.8058 44.5488C69.5817 44.5488 71.8158 42.2977 71.8158 39.5388C71.8158 36.7799 69.5647 34.5288 66.8058 34.5288C64.0469 34.5288 61.7958 36.7799 61.7958 39.5388C61.7958 42.2977 64.0469 44.5488 66.8058 44.5488ZM66.8058 47.8832C61.4404 47.8832 55.6687 50.7267 55.6687 54.2473V57.9032H77.943V54.2473C77.943 50.7267 72.1713 47.8832 66.8058 47.8832ZM31.1772 44.5488C33.953 44.5488 36.1872 42.2977 36.1872 39.5388C36.1872 36.7799 33.9361 34.5288 31.1772 34.5288C28.4183 34.5288 26.1672 36.7799 26.1672 39.5388C26.1672 42.2977 28.4183 44.5488 31.1772 44.5488ZM31.1772 47.8832C25.8117 47.8832 20.04 50.7267 20.04 54.2473V57.9032H42.3143V54.2473C42.3143 50.7267 36.5426 47.8832 31.1772 47.8832Z" fill="#57BB8A"/>
<path d="M49 40.081C52.6898 40.081 55.6856 37.0852 55.6687 33.3954C55.6687 29.7056 52.6729 26.7097 48.9831 26.7266C45.2932 26.7266 42.3143 29.7225 42.3143 33.4123C42.3143 37.1021 45.3102 40.081 49 40.081ZM49 44.5494C41.485 44.5494 33.4114 48.5439 33.4114 53.4524V57.9038H64.5886V53.4524C64.5886 48.527 56.515 44.5494 49 44.5494Z" fill="#F7F7F7"/>
<path d="M57.9028 71.2764H77.9429V75.7278H57.9028V71.2764Z" fill="#F1F1F1"/>
<path d="M91.3143 0.000976562H6.68567C2.99586 0.000976562 0 2.99683 0 6.68664V77.9609C0 81.6338 2.99586 84.6296 6.68567 84.6296H91.3143C95.0041 84.6296 98 81.6338 98 77.944V6.68664C97.9831 2.99683 95.0041 0.000976562 91.3143 0.000976562ZM89.0801 75.7267H8.90294V8.90391H89.0801V75.7267Z" fill="#F4B400"/>
<path opacity="0.2" d="M91.3143 0.000976562H6.68567C2.99586 0.000976562 0 2.99683 0 6.68664V7.24519C0 3.55538 2.99586 0.559526 6.68567 0.559526H91.3143C95.0041 0.559526 98 3.55538 98 7.24519V6.68664C97.9831 2.99683 95.0041 0.000976562 91.3143 0.000976562Z" fill="white"/>
<path opacity="0.2" d="M91.3143 84.0719H6.68567C2.99586 84.0719 0 81.076 0 77.3862V77.9448C0 81.6346 2.99586 84.6304 6.68567 84.6304H91.3143C95.0041 84.6304 98 81.6346 98 77.9448V77.3862C97.9831 81.076 95.0041 84.0719 91.3143 84.0719Z" fill="#BF360C"/>
<path d="M77.9092 75.7261H57.8691L66.7721 84.629H86.7952L77.9092 75.7261Z" fill="url(#paint0_linear_884_365)"/>
<path opacity="0.2" d="M8.90308 8.34473H89.0803V8.90328H8.90308V8.34473Z" fill="#263238"/>
<path opacity="0.2" d="M8.90308 75.7261H89.0803V76.2846H8.90308V75.7261Z" fill="white"/>
<path d="M91.3143 0.000976562H6.68567C2.99586 0.000976562 0 2.99683 0 6.68664V77.9609C0 81.6338 2.99586 84.6296 6.68567 84.6296H91.3143C95.0041 84.6296 98 81.6338 98 77.944V6.68664C97.9831 2.99683 95.0041 0.000976562 91.3143 0.000976562Z" fill="url(#paint1_radial_884_365)"/>
<defs>
<linearGradient id="paint0_linear_884_365" x1="72.3375" y1="75.8443" x2="72.3375" y2="84.722" gradientUnits="userSpaceOnUse">
<stop stop-color="#BF360C" stop-opacity="0.2"/>
<stop offset="1" stop-color="#BF360C" stop-opacity="0.02"/>
</linearGradient>
<radialGradient id="paint1_radial_884_365" cx="0" cy="0" r="1" gradientUnits="userSpaceOnUse" gradientTransform="translate(3.37571 1.98457) scale(117.037 117.037)">
<stop stop-color="white" stop-opacity="0.1"/>
<stop offset="1" stop-color="white" stop-opacity="0"/>
</radialGradient>
</defs>
</svg>
