<svg xmlns="http://www.w3.org/2000/svg" width="61" height="56" viewBox="0 0 61 56">
    <g fill="none" fill-rule="evenodd">
        <g fill="#8093A7" fill-rule="nonzero">
            <g>
                <path d="M182.435 40c-13.27 0-24.028 10.745-24.028 24s10.758 24 24.028 24 24.027-10.745 24.027-24-10.757-24-24.027-24zm0 42.667c-10.321 0-18.688-8.358-18.688-18.667 0-10.31 8.367-18.667 18.688-18.667 10.32 0 18.688 8.358 18.688 18.667 0 10.31-8.367 18.667-18.688 18.667zm24.534-43.174c-3.15-3.192-6.896-5.738-11.025-7.493l-2.083 4.907c3.49 1.48 6.662 3.616 9.344 6.293 1.96 1.975 3.64 4.21 4.993 6.64l4.672-2.667c-1.603-2.82-3.589-5.404-5.9-7.68zm-35.96-2.666L168.925 32c-4.13 1.755-7.875 4.3-11.026 7.493-2.322 2.317-4.307 4.947-5.9 7.814l4.672 2.666c1.347-2.458 3.027-4.72 4.992-6.72 2.683-2.676 5.855-4.813 9.344-6.293v-.133zm17.913 17.52l-6.487 6.64-6.488-6.507-3.043 3.04 6.514 6.48-6.514 6.48 3.043 3.04 6.488-6.507 6.487 6.507 3.044-3.04-6.514-6.48 6.514-6.48-3.044-3.173z" transform="translate(-690 -173) translate(538 141)"/>
            </g>
        </g>
    </g>
</svg>
