<svg width="16" height="16" viewBox="0 0 16 16" fill="none" xmlns="http://www.w3.org/2000/svg">
<path fill-rule="evenodd" clip-rule="evenodd" d="M8.30014 3.5312C9.17111 3.16348 10.1301 3.06709 11.0555 3.2547C11.9807 3.4423 12.8291 3.90507 13.494 4.58269C14.1587 5.26019 14.61 6.12193 14.7927 7.05826C14.9754 7.99452 14.8818 8.9651 14.523 9.84779C14.1643 10.7306 13.5559 11.4871 12.7732 12.0202C11.9903 12.5534 11.0687 12.8387 10.125 12.8387H4.27689C3.82652 12.8383 3.38173 12.7402 2.97214 12.5513C2.56258 12.3625 2.19799 12.0874 1.90215 11.7451C1.60635 11.4028 1.38599 11.001 1.25501 10.5668C1.12404 10.1325 1.08524 9.6752 1.14101 9.22487C1.19679 8.77453 1.34597 8.34082 1.57922 7.95254C1.8125 7.56423 2.1247 7.23001 2.49573 6.97266C2.86679 6.71529 3.28798 6.54087 3.73142 6.46158C3.97178 6.4186 4.21552 6.40413 4.4578 6.41799C4.32059 6.93062 4.2499 7.46248 4.2499 8C4.2499 8.32068 4.49979 8.58065 4.80804 8.58065C5.1163 8.58065 5.36618 8.32068 5.36618 8C5.36618 7.04567 5.64377 6.11176 6.16522 5.31632C6.68677 4.52073 7.42928 3.89887 8.30014 3.5312ZM3.54232 5.31707C3.98552 5.23782 4.43722 5.23065 4.88085 5.29494C4.98845 5.07737 5.10929 4.86596 5.24299 4.66202C5.8899 3.67519 6.80817 2.90782 7.88037 2.45514C8.95249 2.0025 10.1316 1.88425 11.269 2.11486C12.4065 2.34547 13.4528 2.91499 14.2752 3.75319C15.0977 4.5915 15.6591 5.66104 15.8867 6.82721C16.1143 7.99346 15.9974 9.20218 15.5512 10.3C15.1051 11.3977 14.3505 12.334 13.3846 12.9918C12.4187 13.6496 11.2844 14 10.125 14H4.27582C3.67056 13.9994 3.07202 13.8676 2.51982 13.613C1.9676 13.3584 1.47393 12.9865 1.07203 12.5215C0.670091 12.0563 0.369167 11.5087 0.189937 10.9145C0.0106983 10.3202 -0.0425549 9.69363 0.0338855 9.07646C0.110324 8.45931 0.314611 7.86641 0.632605 7.33708C0.950575 6.80779 1.3748 6.35441 1.87649 6.00643C2.37815 5.65848 2.94602 5.42369 3.54232 5.31707ZM11.8003 6.1997C12.0666 6.46597 12.0666 6.89767 11.8003 7.16394L10.4642 8.5L11.8003 9.83606C12.0666 10.1023 12.0666 10.534 11.8003 10.8003C11.534 11.0666 11.1023 11.0666 10.8361 10.8003L9.5 9.46424L8.16394 10.8003C7.89767 11.0666 7.46597 11.0666 7.1997 10.8003C6.93343 10.534 6.93343 10.1023 7.1997 9.83606L8.53576 8.5L7.1997 7.16394C6.93343 6.89767 6.93343 6.46597 7.1997 6.1997C7.46597 5.93343 7.89767 5.93343 8.16394 6.1997L9.5 7.53576L10.8361 6.1997C11.1023 5.93343 11.534 5.93343 11.8003 6.1997Z" fill="#618198"/>
</svg>
