<svg width="80" height="80" viewBox="0 0 80 80" fill="none" xmlns="http://www.w3.org/2000/svg">
<path d="M60.544 10H5.45604C4.27423 10 3.14082 10.4654 2.30514 11.2937C1.46947 12.122 1 13.2455 1 14.417L1 53.0551C1 54.2268 1.46955 55.3504 2.30536 56.1789C3.14117 57.0074 4.27477 57.4728 5.45678 57.4728H12.1253V65.351C12.1253 65.6392 12.2015 65.9223 12.3462 66.1721C12.4909 66.422 12.6992 66.6299 12.9503 66.7752C13.2013 66.9204 13.4864 66.9979 13.777 67C14.0677 67.002 14.3538 66.9285 14.607 66.7868L31.2437 57.4728H60.544C61.1292 57.4728 61.7087 57.3586 62.2494 57.1365C62.7901 56.9145 63.2813 56.5891 63.6951 56.1789C64.1089 55.7686 64.4371 55.2816 64.661 54.7457C64.8849 54.2097 65.0001 53.6352 65 53.0551V14.417C65 13.8369 64.8847 13.2626 64.6608 12.7267C64.4369 12.1908 64.1086 11.7039 63.6949 11.2937C63.2811 10.8835 62.7898 10.5582 62.2492 10.3362C61.7086 10.1142 61.1291 10 60.544 10Z" fill="#77C2D7"/>
<path d="M67 12.4949V51.8347C66.9952 52.6988 66.7435 53.5432 66.2751 54.2668C65.8066 54.9904 65.1413 55.5624 64.3589 55.9144C63.7879 56.1719 63.1694 56.3045 62.544 56.3034H33.2474L16.604 65.7832C16.3508 65.9273 16.0647 66.0021 15.774 66C15.4833 65.9979 15.1982 65.919 14.9471 65.7712C14.696 65.6235 14.4877 65.412 14.3429 65.1577C14.198 64.9035 14.1217 64.6155 14.1216 64.3223V56.3034H7.45679C6.27478 56.3034 5.14118 55.8298 4.30537 54.9869C3.46956 54.1439 3.00001 53.0006 3.00001 51.8085V12.4949C2.99913 11.9044 3.1138 11.3195 3.33747 10.7737C3.56113 10.228 3.88938 9.73213 4.30341 9.31456C4.71743 8.89699 5.20909 8.56593 5.75021 8.34036C6.29133 8.11478 6.87127 7.99912 7.45679 8.00001H62.5707C63.7478 8.00751 64.8743 8.48437 65.7041 9.3265C66.534 10.1686 66.9998 11.3076 67 12.4949Z" fill="#D4F5FF"/>
<path d="M33.3712 24H13.6288C13.1972 23.9988 12.7837 23.8403 12.4785 23.5593C12.1734 23.2783 12.0013 22.8974 12 22.5C12.0013 22.1026 12.1734 21.7217 12.4785 21.4407C12.7837 21.1597 13.1972 21.0012 13.6288 21H33.3712C33.8028 21.0012 34.2163 21.1597 34.5214 21.4407C34.8266 21.7217 34.9987 22.1026 35 22.5C34.9987 22.8974 34.8266 23.2783 34.5214 23.5593C34.2163 23.8403 33.8028 23.9988 33.3712 24Z" fill="#4690A4"/>
<path d="M25.4083 27H13.5917C12.7126 27 12 27.6716 12 28.5C12 29.3284 12.7126 30 13.5917 30H25.4083C26.2874 30 27 29.3284 27 28.5C27 27.6716 26.2874 27 25.4083 27Z" fill="#4690A4"/>
<path d="M57.3757 27H30.6243C29.7272 27 29 27.6716 29 28.5C29 29.3284 29.7272 30 30.6243 30H57.3757C58.2728 30 59 29.3284 59 28.5C59 27.6716 58.2728 27 57.3757 27Z" fill="#4690A4"/>
<path d="M33.3712 33H13.6288C12.7292 33 12 33.6716 12 34.5C12 35.3284 12.7292 36 13.6288 36H33.3712C34.2708 36 35 35.3284 35 34.5C35 33.6716 34.2708 33 33.3712 33Z" fill="#4690A4"/>
<path d="M57.4148 33H38.5852C37.7097 33 37 33.6716 37 34.5C37 35.3284 37.7097 36 38.5852 36H57.4148C58.2903 36 59 35.3284 59 34.5C59 33.6716 58.2903 33 57.4148 33Z" fill="#4690A4"/>
<path d="M28.3591 44H13.6409C13.2061 43.9983 12.7895 43.7871 12.4821 43.4124C12.1747 43.0377 12.0014 42.5299 12 42C12.0014 41.4701 12.1747 40.9623 12.4821 40.5876C12.7895 40.2129 13.2061 40.0017 13.6409 40H28.3591C28.7939 40.0017 29.2105 40.2129 29.5179 40.5876C29.8253 40.9623 29.9986 41.4701 30 42C29.9986 42.5299 29.8253 43.0377 29.5179 43.4124C29.2105 43.7871 28.7939 43.9983 28.3591 44Z" fill="#4690A4"/>
<path d="M47.3591 44H32.6409C32.2061 43.9983 31.7895 43.7871 31.4821 43.4124C31.1747 43.0377 31.0014 42.5299 31 42C31.0014 41.4701 31.1747 40.9623 31.4821 40.5876C31.7895 40.2129 32.2061 40.0017 32.6409 40H47.3591C47.7939 40.0017 48.2105 40.2129 48.5179 40.5876C48.8253 40.9623 48.9986 41.4701 49 42C48.9986 42.5299 48.8253 43.0377 48.5179 43.4124C48.2105 43.7871 47.7939 43.9983 47.3591 44Z" fill="#4690A4"/>
<path d="M38.3312 67H57H59.5L70 73C70 73 71.2122 73.7878 72 73C72.5 72.5 72.5 72 72.5 72V67H74.6688C75.32 66.8884 75.9118 66.5406 76.3388 66.0186C76.7657 65.4967 77.0001 64.8344 77 64.15V38.8883C77.0001 38.5091 76.9281 38.1335 76.7882 37.7831C76.6483 37.4327 76.4432 37.1142 76.1846 36.846C75.926 36.5778 75.619 36.365 75.2811 36.2199C74.9432 36.0747 74.581 36 74.2153 36H38.7847C38.419 36 38.0568 36.0747 37.7189 36.2199C37.381 36.365 37.074 36.5778 36.8154 36.846C36.5568 37.1142 36.3517 37.4327 36.2118 37.7831C36.0719 38.1335 35.9999 38.5091 36 38.8883V64.1508C36.0001 64.8351 36.2345 65.4971 36.6615 66.0189C37.0884 66.5407 37.6801 66.8884 38.3312 67Z" fill="#FCD7DE"/>
<path d="M40.7854 35H75.2146C75.9533 35 76.6618 35.2939 77.1842 35.8171C77.7065 36.3403 78 37.0499 78 37.7898V62.1903C78 62.9302 77.7065 63.6398 77.1842 64.163C76.6618 64.6862 75.9533 64.9801 75.2146 64.9801H71.0486V69.9573C71.0488 70.1396 71.0012 70.3187 70.9106 70.4768C70.8199 70.6349 70.6895 70.7665 70.5322 70.8583C70.375 70.9501 70.1964 70.9989 70.0144 71C69.8324 71.001 69.6533 70.9542 69.495 70.8642L59.0975 64.9801H40.7854C40.0467 64.9801 39.3382 64.6862 38.8158 64.163C38.2935 63.6398 38 62.9302 38 62.1903V37.7898C38 37.0499 38.2935 36.3403 38.8158 35.8171C39.3382 35.2939 40.0467 35 40.7854 35Z" fill="#F2385A"/>
<path d="M56.8684 44H43.1332C42.833 43.9991 42.5453 43.8934 42.333 43.7061C42.1208 43.5188 42.001 43.2649 42 43C42.001 42.7351 42.1208 42.4812 42.333 42.2939C42.5453 42.1066 42.833 42.0009 43.1332 42H56.8684C57.1683 42.0013 57.4556 42.1071 57.6675 42.2944C57.8795 42.4817 57.999 42.7353 58 43C57.9992 43.2648 57.8797 43.5185 57.6677 43.7058C57.4557 43.8932 57.1684 43.9989 56.8684 44Z" fill="white"/>
<path d="M50.9388 47H43.0612C42.4751 47 42 47.4477 42 48C42 48.5523 42.4751 49 43.0612 49H50.9388C51.5249 49 52 48.5523 52 48C52 47.4477 51.5249 47 50.9388 47Z" fill="white"/>
<path d="M71.9171 49H54.0822C53.7953 48.9991 53.5205 48.8934 53.3178 48.7061C53.115 48.5187 53.0008 48.2649 53 48C53.001 47.7351 53.1154 47.4812 53.3183 47.2939C53.5211 47.1066 53.796 47.0009 54.0829 47H71.9171C72.204 47.0009 72.4789 47.1066 72.6817 47.2939C72.8846 47.4812 72.999 47.7351 73 48C72.9992 48.265 72.8849 48.5189 72.6819 48.7063C72.479 48.8937 72.204 48.9993 71.9171 49Z" fill="white"/>
<path d="M56.8669 52H43.1331C42.5073 52 42 52.4477 42 53C42 53.5523 42.5073 54 43.1331 54H56.8669C57.4927 54 58 53.5523 58 53C58 52.4477 57.4927 52 56.8669 52Z" fill="white"/>
<path d="M71.9912 52H60.0088C59.4516 52 59 52.4477 59 53C59 53.5523 59.4516 54 60.0088 54H71.9912C72.5484 54 73 53.5523 73 53C73 52.4477 72.5484 52 71.9912 52Z" fill="white"/>
<path d="M52.9064 58H43.0936C42.8039 57.9991 42.5263 57.8934 42.3214 57.7061C42.1165 57.5188 42.001 57.2649 42 57C42.001 56.7351 42.1165 56.4812 42.3214 56.2939C42.5263 56.1066 42.8039 56.0009 43.0936 56H52.9064C53.1962 56.0007 53.4739 56.1063 53.6788 56.2937C53.8837 56.4811 53.9992 56.735 54 57C53.999 57.2649 53.8835 57.5188 53.6786 57.7061C53.4737 57.8934 53.1961 57.9991 52.9064 58Z" fill="white"/>
<path d="M64.9972 58H56.0028C55.7371 57.9991 55.4826 57.8934 55.2947 57.7061C55.1069 57.5188 55.0009 57.2649 55 57C55.0009 56.7351 55.1069 56.4812 55.2947 56.2939C55.4826 56.1066 55.7371 56.0009 56.0028 56H64.9972C65.263 56.0007 65.5176 56.1063 65.7055 56.2937C65.8934 56.4811 65.9993 56.735 66 57C65.9991 57.2649 65.8931 57.5188 65.7053 57.7061C65.5174 57.8934 65.2629 57.9991 64.9972 58Z" fill="white"/>
</svg>
