<svg width="24" height="24" viewBox="0 0 24 24" fill="none" xmlns="http://www.w3.org/2000/svg">
<path fill-rule="evenodd" clip-rule="evenodd" d="M8.11101 15.8891C9.10631 16.8844 10.4813 17.5 12.0001 17.5V23C9.08272 23 6.28482 21.8411 4.22192 19.7782L8.11101 15.8891Z" fill="#1188D9"/>
<path fill-rule="evenodd" clip-rule="evenodd" d="M1.00049 12.0001C1.00049 9.08269 2.15941 6.28479 4.22231 4.22189L8.1111 8.11068C7.11566 9.106 6.49995 10.4811 6.49995 12C6.49995 12 6.49995 12 6.49995 12.0001H1.00049Z" fill="#4AB07B"/>
<path fill-rule="evenodd" clip-rule="evenodd" d="M6.5 12L1 12C1 14.9174 2.15893 17.7153 4.22183 19.7782L8.11092 15.8891C7.11562 14.8938 6.5 13.5188 6.5 12Z" fill="#05A9F2"/>
<path fill-rule="evenodd" clip-rule="evenodd" d="M15.8891 15.8891C14.8938 16.8844 13.5188 17.5 12 17.5C12 17.5 12 17.5 12 17.5V23C14.9174 23 17.7153 21.8411 19.7782 19.7782L15.8891 15.8891Z" fill="#CB2E81"/>
<path fill-rule="evenodd" clip-rule="evenodd" d="M15.8889 15.8893C16.8844 14.894 17.5001 13.5189 17.5001 12C17.5001 12 17.5001 12 17.5001 11.9999H22.9995C22.9995 14.9173 21.8406 17.7152 19.7777 19.7781L15.8889 15.8893Z" fill="#FF5E79"/>
<path fill-rule="evenodd" clip-rule="evenodd" d="M19.7783 4.2218C21.8412 6.2847 23.0001 9.08259 23.0001 12L17.5001 12C17.5001 10.4812 16.8845 9.1062 15.8892 8.1109L19.7783 4.2218Z" fill="#FF9E66"/>
<path fill-rule="evenodd" clip-rule="evenodd" d="M12 1C14.9174 1 17.7153 2.15892 19.7782 4.22182L15.8891 8.11091C14.8938 7.11561 13.5188 6.5 12 6.5V1Z" fill="#FFCF57"/>
<path fill-rule="evenodd" clip-rule="evenodd" d="M4.22192 4.22183C6.28482 2.15893 9.08272 1 12.0001 1V6.5C12.0001 6.5 12.0001 6.5 12 6.5C10.4813 6.5 9.10629 7.1156 8.11099 8.11089L4.22192 4.22183Z" fill="#B0D16F"/>
</svg>
