<svg xmlns="http://www.w3.org/2000/svg" xmlns:xlink="http://www.w3.org/1999/xlink" width="92" height="82" fill="none" xmlns:v="https://vecta.io/nano"><mask id="A" maskUnits="userSpaceOnUse" x="0" y="12" width="90" height="70" mask-type="alpha"><path fill="#c4c4c4" d="M0 12.706h89.853v69.152H0z"/></mask><g mask="url(#A)"><path d="M62.664 27.775c-.196-.355-.734-.304-.832.101-.392 1.522-1.371 4.159-3.427 5.073l-.294.152a1.01 1.01 0 0 1 .147-.964c.636-1.014-.539-2.384-.539-2.384s-.098 1.217-.979 1.978c-.783.659-1.126 2.13-.636 3.348 1.126 4.464 2.79 10.399-3.721 14.761-6.511 4.312-15.665-8.167-15.665-8.167l4.553 14.913s7 5.377 15.176-2.181 2.741-18.515 2.741-18.515 6.217-2.638 3.476-8.116z" fill="url(#B)"/><path d="M35.593 19.71s1.86-8.775-7.784-6.442c0 0-4.7-.812-4.944 3.804 0 0-3.035 2.08-.832 6.036 0 0-9.007-3.602-12.924 4.565s-.294 12.681 3.476 13.848c0 0-3.084 1.572-1.616 5.174s8.763 6.138 13.12 1.775c0 0 12.336 1.674 12.092-7.355 0 0 5.728-3.855-.294-11.312s-.294-10.094-.294-10.094z" fill="#0b7789"/><path d="M36.131 39.949c-1.958-.609-7.588-1.725-12.973 3.449-.93.862-1.273 2.181-.979 3.449 1.469 5.529 5.238 21.812 1.909 28.862 0 0 5.875 6.746 12.336 1.319 0 0 2.888-13.036 6.658-18.768 2.595-3.957-4.161-14.812-5.874-17.449a2.04 2.04 0 0 0-1.077-.862z" fill="#c2dbe3"/><path d="M30.746 28.992s-2.888 8.42-3.084 12.123c0 0 3.182 1.522 6.168-1.014l.783-9.942-3.867-1.167z" fill="url(#C)"/><path d="M34.761 17.528s7.539 10.906 3.035 14.051-9.84-4.565-9.84-4.565-1.762-5.985.049-8.014 6.756-1.471 6.756-1.471z" fill="url(#D)"/><path d="M31.285 14.941s3.476.862 3.916 2.486c.49 1.623-4.895 3.145-6.413 3.196l-1.224 6.544s-3.574-6.138-2.154-9.689c1.42-3.601 5.875-2.536 5.875-2.536z" fill="#0b7789"/><path d="M29.376 26.202s-2.937-3.5-4.112-1.217 2.643 4.007 3.965 2.891l.147-1.674z" fill="url(#E)"/><path d="M37.306 73.834s-.832 2.79.441 7.406l8.077 29.217c.147.457-.098.964-.538 1.116-2.399.913-10.329 3.449-21.197 2.638-.538-.051-.979-.457-1.126-1.015l-3.672-17.043c-1.909-8.877-4.063-18.515 5.336-24.297 4.357 1.978 8.42 3.094 12.679 1.978z" fill="#da6668"/><path d="M22.375 44.514s-9.203 7.913-11.455 18.718C8.619 74.036 24.333 75.203 24.333 75.203s2.154-2.486 4.651-1.573c2.546.862.196-4.312-2.741-4.312s-1.566 2.435-5.777.457c-4.063-1.927-6.609-7.862 3.818-16.841.587-.507 1.077-1.167 1.371-1.928 2.007-5.275.392-8.725-3.28-6.493z" fill="url(#F)"/></g><path d="M90.958 14.228L73.465 4.48l1.229 2.917 16.264 6.831z" fill="#fcd7de"/><path d="M90.876 14.433L74.619 7.614l-1.771 6.007 18.028.812z" fill="#ff768f"/><path d="M72.866 13.714l17.917.813-14.889-3.85-3.028 3.037z" fill="#f2385a"/><path d="M77.328 15.956l13.461-1.369-14.965-3.953 1.504 5.322z" fill="#fcd7de"/><path d="M68.691 14.878s-16.895 2.15-20.422 18.976" stroke="#faafbd" stroke-miterlimit="10" stroke-linecap="round" stroke-linejoin="round"/><defs><linearGradient id="B" x1="65.425" y1="17.266" x2="39.722" y2="57.021" xlink:href="#G"><stop stop-color="#f9b776"/><stop offset="1" stop-color="#f47960"/></linearGradient><linearGradient id="C" x1="35.332" y1="45.334" x2="30.473" y2="34.922" xlink:href="#G"><stop stop-color="#f9b776"/><stop offset="1" stop-color="#f47960"/></linearGradient><linearGradient id="D" x1="35.568" y1="19.716" x2="25.714" y2="40.305" xlink:href="#G"><stop stop-color="#f9b776"/><stop offset="1" stop-color="#f47960"/></linearGradient><linearGradient id="E" x1="31.194" y1="17.622" x2="21.34" y2="38.211" xlink:href="#G"><stop stop-color="#f9b776"/><stop offset="1" stop-color="#f47960"/></linearGradient><linearGradient id="F" x1="12.903" y1="78.132" x2="64.245" y2="4.665" xlink:href="#G"><stop stop-color="#f9b776"/><stop offset="1" stop-color="#f47960"/></linearGradient><linearGradient id="G" gradientUnits="userSpaceOnUse"/></defs></svg>