<svg width="24" height="24" viewBox="0 0 24 24" fill="none" xmlns="http://www.w3.org/2000/svg">
<path d="M16.5211 15.1488C15.8006 15.2839 13.1174 13.6713 10.1949 11.313C7.2723 8.95482 5.12798 6.67138 5.10592 5.9375L4.23394 9.02268L3.36836 12.0844L2.57513 14.8904L2.52682 15.0613L1.70315 17.9747L0.893376 20.8399L0.0941905 23.6667L0 23.9998L0.30463 23.8367L2.89013 22.4514L5.51092 21.0475L8.17582 19.6198L8.33222 19.536L10.8987 18.1611L13.6993 16.6606L16.5211 15.1488Z" fill="#E6E6E6"/>
<path d="M2.89013 22.4513C2.20873 21.9343 1.54278 21.3969 0.893155 20.8398L0.0941905 23.6666C0.0589476 23.7913 0.190443 23.8978 0.30463 23.8366L2.89013 22.4513Z" fill="#FFF1CC"/>
<path d="M5.51061 21.0472C4.18025 20.1015 2.90857 19.0754 1.70284 17.9746L0.893066 20.8396C1.54247 21.3967 2.20842 21.934 2.89004 22.4511L5.51061 21.0472Z" fill="#F2BE38"/>
<path d="M8.1758 19.619C6.14971 18.2865 4.25774 16.7597 2.5268 15.0605L1.70312 17.974C2.90885 19.075 4.18053 20.1011 5.51089 21.0465L8.1758 19.619Z" fill="#FFF1CC"/>
<path d="M10.8988 18.1606C8.11806 16.497 5.58308 14.4516 3.36839 12.084L2.57516 14.89L2.52686 15.0608C4.2578 16.76 6.14999 18.2871 8.17586 19.6193L8.33225 19.5355L10.8988 18.1606Z" fill="#F2BE38"/>
<path d="M13.6989 16.6596C10.0868 14.7422 6.87328 12.1493 4.23375 9.02148L3.36816 12.0835C5.58307 14.4511 8.11783 16.4967 10.8985 18.1601L13.6989 16.6596Z" fill="#FFF1CC"/>
<path d="M16.521 15.1488C15.8006 15.2839 13.1174 13.6713 10.1948 11.313C7.27225 8.95482 5.12792 6.67138 5.10587 5.9375L4.23389 9.02268C6.87343 12.1503 10.0869 14.7434 13.699 16.6606L16.521 15.1488Z" fill="#F2BE38"/>
<path d="M16.6653 15.0706C17.0589 14.5808 14.8003 12.1038 11.6206 9.53802C8.44094 6.97224 5.54422 5.28934 5.15064 5.77914C4.75705 6.26895 7.01564 8.74599 10.1953 11.3118C13.375 13.8775 16.2717 15.5604 16.6653 15.0706Z" fill="#FFF1CC"/>
<path d="M16.6139 15.0333C16.9547 14.6091 14.6847 12.1519 11.5325 9.60829C8.38009 7.06446 5.53959 5.39753 5.19879 5.82172C4.85798 6.24592 7.13708 8.65181 10.2893 11.1954C13.4414 13.739 16.2731 15.4575 16.6139 15.0333Z" fill="#FFF1CC"/>
<path d="M10.0063 6.6243C10.0063 6.63288 10.009 6.64128 10.014 6.64836C10.019 6.65544 10.0261 6.66087 10.0344 6.66392L10.2962 6.76128C10.3417 6.77824 10.383 6.80449 10.4172 6.83824C10.4515 6.872 10.4778 6.91247 10.4944 6.95692L10.594 7.22339C10.5949 7.22533 10.5961 7.22713 10.5976 7.22869C10.5983 7.23021 10.5992 7.23168 10.6001 7.23306C10.6017 7.23498 10.6034 7.23675 10.6053 7.23837C10.6083 7.24111 10.6118 7.24333 10.6156 7.24492C10.6179 7.24597 10.6203 7.24671 10.6227 7.2471C10.6251 7.24741 10.6275 7.24741 10.6298 7.2471H10.6375C10.64 7.24666 10.6424 7.24593 10.6446 7.24492C10.6485 7.24334 10.6521 7.24112 10.6553 7.23837C10.6571 7.23675 10.6587 7.23497 10.6601 7.23306L10.6627 7.22932C10.6641 7.22745 10.6652 7.22547 10.6662 7.22339L10.7658 6.95785C10.7825 6.9134 10.8088 6.87293 10.843 6.83918C10.8772 6.80543 10.9185 6.77918 10.9641 6.76221L11.2259 6.66486C11.2344 6.66183 11.2418 6.65627 11.247 6.64896C11.2521 6.64165 11.2547 6.63297 11.2545 6.62413C11.2542 6.6153 11.2511 6.60677 11.2456 6.59974C11.24 6.59271 11.2323 6.58755 11.2236 6.58498L10.9838 6.51165C10.9327 6.49603 10.8861 6.46899 10.8478 6.43273C10.8095 6.39647 10.7805 6.352 10.7633 6.30291L10.6666 6.02396C10.6652 6.02095 10.6637 6.01803 10.662 6.01522C10.6608 6.01352 10.6594 6.01195 10.6579 6.01054C10.6542 6.00655 10.6495 6.00355 10.6443 6.0018L10.6395 6.00024H10.6308C10.6279 5.99992 10.625 5.99992 10.6221 6.00024L10.6169 6.0018C10.6124 6.00373 10.6083 6.00637 10.6047 6.0096C10.6032 6.0109 10.6019 6.01237 10.6008 6.01397C10.5982 6.01692 10.5963 6.02031 10.595 6.02396L10.4983 6.30291C10.4809 6.35188 10.4518 6.39621 10.4135 6.43231C10.3751 6.46841 10.3285 6.49527 10.2775 6.51072L10.0379 6.58404C10.0289 6.5865 10.0209 6.59176 10.0151 6.59903C10.0094 6.60629 10.0064 6.61517 10.0063 6.6243Z" fill="#FAB1A5"/>
<path d="M15.5098 1.25137C15.5096 1.26875 15.5149 1.28578 15.525 1.30015C15.535 1.31451 15.5494 1.32552 15.5662 1.33169L16.0898 1.52702C16.1813 1.56084 16.2641 1.6134 16.3327 1.68113C16.4014 1.74887 16.4541 1.83017 16.4875 1.9195L16.6868 2.4571C16.6868 2.4571 16.6915 2.46349 16.6934 2.46714C16.6949 2.47008 16.6968 2.47284 16.699 2.47536C16.7016 2.47991 16.7051 2.48394 16.7093 2.48722C16.7151 2.49251 16.7218 2.49682 16.7291 2.5H16.7441H16.7733H16.7874C16.7952 2.49652 16.8025 2.49191 16.809 2.48631C16.8128 2.48329 16.816 2.47957 16.8184 2.47536L16.824 2.46805C16.8267 2.46455 16.8293 2.46089 16.8315 2.4571L17.0308 1.92315C17.0639 1.83379 17.1164 1.75244 17.1849 1.68468C17.2534 1.61693 17.3362 1.56439 17.4276 1.53067L17.954 1.33169C17.9704 1.32496 17.9845 1.31383 17.9947 1.29961C18.0048 1.28539 18.0106 1.26866 18.0114 1.25137C18.0112 1.23331 18.005 1.21579 17.9939 1.20135C17.9827 1.1869 17.9671 1.17629 17.9493 1.17105L17.4699 1.0241C17.3675 0.992553 17.2742 0.938132 17.1975 0.86521C17.1208 0.792289 17.0627 0.702901 17.028 0.604235L16.8259 0.0438116C16.8241 0.0376291 16.8212 0.0317739 16.8174 0.0264693C16.8149 0.0232042 16.8121 0.0201514 16.809 0.017342C16.8019 0.00946985 16.7928 0.00349884 16.7827 0H16.7723H16.7545H16.7375H16.7272C16.7179 0.00317815 16.7095 0.00850222 16.7028 0.0155164L16.6943 0.0237311C16.6896 0.0299057 16.6858 0.0366593 16.683 0.0438116L16.4922 0.604235C16.4576 0.702837 16.3998 0.792194 16.3232 0.865118C16.2466 0.938041 16.1535 0.992495 16.0513 1.0241L15.5709 1.17105C15.5532 1.17632 15.5377 1.18697 15.5267 1.20143C15.5157 1.21589 15.5098 1.23339 15.5098 1.25137Z" fill="#F2BE38"/>
<path d="M18.5117 8.75137C18.5115 8.76875 18.5168 8.78578 18.5269 8.80015C18.537 8.81451 18.5514 8.82552 18.5681 8.83169L19.0918 9.02702C19.1832 9.06084 19.2661 9.1134 19.3347 9.18113C19.4033 9.24887 19.4561 9.33017 19.4894 9.4195L19.6887 9.9571C19.6887 9.9571 19.6934 9.96349 19.6953 9.96714C19.6969 9.97008 19.6987 9.97284 19.7009 9.97536C19.7036 9.97991 19.7071 9.98394 19.7113 9.98722C19.7171 9.99251 19.7238 9.99682 19.731 10H19.7461H19.7752H19.7893C19.7972 9.99652 19.8045 9.99191 19.8109 9.98631C19.8148 9.98329 19.818 9.97957 19.8203 9.97536L19.826 9.96805C19.8287 9.96455 19.8312 9.96089 19.8335 9.9571L20.0328 9.42315C20.0658 9.33379 20.1184 9.25244 20.1868 9.18468C20.2553 9.11693 20.3381 9.06439 20.4295 9.03067L20.956 8.83169C20.9724 8.82496 20.9865 8.81383 20.9966 8.79961C21.0068 8.78539 21.0126 8.76866 21.0133 8.75137C21.0131 8.73331 21.007 8.71579 20.9958 8.70135C20.9847 8.6869 20.9691 8.67629 20.9513 8.67105L20.4718 8.5241C20.3695 8.49255 20.2762 8.43813 20.1994 8.36521C20.1227 8.29229 20.0647 8.2029 20.03 8.10423L19.8279 7.54381C19.826 7.53763 19.8232 7.53177 19.8194 7.52647C19.8168 7.5232 19.814 7.52015 19.8109 7.51734C19.8038 7.50947 19.7948 7.5035 19.7846 7.5H19.7743H19.7564H19.7395H19.7291C19.7198 7.50318 19.7114 7.5085 19.7047 7.51552L19.6962 7.52373C19.6916 7.52991 19.6878 7.53666 19.685 7.54381L19.4941 8.10423C19.4596 8.20284 19.4017 8.29219 19.3251 8.36512C19.2486 8.43804 19.1554 8.49249 19.0532 8.5241L18.5728 8.67105C18.5551 8.67632 18.5396 8.68697 18.5286 8.70143C18.5176 8.71589 18.5117 8.73339 18.5117 8.75137Z" fill="#20C9AD"/>
<path d="M20.9353 12.8808C20.5108 12.9955 20.0752 12.8494 19.7176 12.6181C19.3144 12.3569 19.0104 11.9817 18.6857 11.6343C18.3716 11.2987 18.0286 10.9946 17.5943 10.8272C17.2152 10.681 16.7993 10.6334 16.396 10.6809C15.9462 10.734 15.5118 10.9065 15.1592 11.1929C15.1592 11.1929 15.0914 11.0517 15.1004 11.0711C15.0546 10.9723 15.0093 10.8732 14.9646 10.7744C14.9197 10.6751 14.8749 10.5759 14.8311 10.4766C14.8251 10.4631 14.7725 10.357 14.7782 10.3521C15.409 9.83976 16.299 9.69447 17.0698 9.93635C17.2631 9.9971 17.4491 10.0823 17.6201 10.1915C17.8236 10.3219 18.0043 10.4843 18.1733 10.6561C18.5158 11.0039 18.8161 11.401 19.2128 11.6918C19.5944 11.9713 20.0788 12.1687 20.5545 12.0401C20.5582 12.0391 20.6218 12.1803 20.6132 12.1619C20.6591 12.2607 20.7044 12.3598 20.7491 12.4586C20.7939 12.5579 20.8388 12.6571 20.8825 12.7564C20.888 12.7684 20.9348 12.8809 20.9353 12.8808Z" fill="#B2ECFC"/>
<path d="M13.0462 4.62973C12.6789 4.27121 12.4044 3.82121 12.2377 3.33146C12.0712 2.84195 12.0105 2.31348 12.068 1.7976C12.1004 1.50584 12.1716 1.21914 12.2804 0.94698C12.2785 0.951842 12.1275 0.981871 12.1445 0.977641C12.0355 1.00389 11.9268 1.03105 11.8182 1.05846C11.7096 1.08586 11.6008 1.11348 11.4924 1.14203C11.4722 1.1474 11.3647 1.16329 11.3582 1.17941C11.1654 1.66099 11.0939 2.18699 11.1367 2.70417C11.1793 3.22089 11.3343 3.72866 11.5918 4.1754C11.7376 4.42818 11.9162 4.65992 12.1239 4.86239C12.131 4.86926 12.2735 4.82839 12.2599 4.83173C12.3688 4.80548 12.4776 4.77832 12.5862 4.75091C12.6947 4.7235 12.8036 4.69589 12.912 4.66733C12.9286 4.66285 13.0391 4.62308 13.0462 4.62973Z" fill="#20C9AD"/>
<mask id="path-15-inside-1_405_337" fill="white">
<path d="M23.8692 4.62258C23.6497 4.73075 23.4038 4.78266 23.1571 4.7799C22.9105 4.77708 22.6631 4.72054 22.4402 4.61292C22.3141 4.5521 22.1965 4.47465 22.0913 4.38259C22.0932 4.38422 22.0828 4.45683 22.0835 4.44852C22.0781 4.50162 22.073 4.55479 22.0682 4.60791C22.0633 4.66103 22.0584 4.71428 22.0541 4.76752C22.0533 4.77744 22.0434 4.82826 22.0496 4.83374C22.2357 4.99669 22.4609 5.11224 22.7003 5.17502C22.9395 5.23782 23.1925 5.24872 23.4342 5.20389C23.571 5.17849 23.7036 5.13498 23.8276 5.07378C23.8318 5.07169 23.836 5.00121 23.8354 5.00784C23.8409 4.95475 23.8459 4.90158 23.8508 4.84846C23.8557 4.79534 23.8605 4.74208 23.8649 4.68885C23.8655 4.68069 23.8651 4.62471 23.8692 4.62258Z"/>
</mask>
<path d="M23.8692 4.62258C23.6497 4.73075 23.4038 4.78266 23.1571 4.7799C22.9105 4.77708 22.6631 4.72054 22.4402 4.61292C22.3141 4.5521 22.1965 4.47465 22.0913 4.38259C22.0932 4.38422 22.0828 4.45683 22.0835 4.44852C22.0781 4.50162 22.073 4.55479 22.0682 4.60791C22.0633 4.66103 22.0584 4.71428 22.0541 4.76752C22.0533 4.77744 22.0434 4.82826 22.0496 4.83374C22.2357 4.99669 22.4609 5.11224 22.7003 5.17502C22.9395 5.23782 23.1925 5.24872 23.4342 5.20389C23.571 5.17849 23.7036 5.13498 23.8276 5.07378C23.8318 5.07169 23.836 5.00121 23.8354 5.00784C23.8409 4.95475 23.8459 4.90158 23.8508 4.84846C23.8557 4.79534 23.8605 4.74208 23.8649 4.68885C23.8655 4.68069 23.8651 4.62471 23.8692 4.62258Z" fill="#D4F5FF"/>
<path d="M23.8692 4.62258L24.3289 5.51041L23.4272 3.72582L23.8692 4.62258ZM23.1571 4.7799L23.1453 5.77966L23.1455 5.77967L23.1571 4.7799ZM22.4402 4.61292L22.8754 3.71255L22.8751 3.7124L22.4402 4.61292ZM22.0913 4.38259L22.7455 3.62609L21.4322 5.13482L22.0913 4.38259ZM22.0835 4.44852L23.0792 4.54312L21.0886 4.34642L22.0835 4.44852ZM22.0541 4.76752L21.0572 4.68641L21.0571 4.68855L22.0541 4.76752ZM22.0496 4.83374L21.3883 5.58405L21.3904 5.58585L22.0496 4.83374ZM22.7003 5.17502L22.9547 4.20799L22.9544 4.20791L22.7003 5.17502ZM23.4342 5.20389L23.6164 6.18694L23.6165 6.18691L23.4342 5.20389ZM23.8276 5.07378L24.2701 5.97028L24.2714 5.96967L23.8276 5.07378ZM23.8354 5.00784L22.84 4.91018L24.8303 5.10995L23.8354 5.00784ZM23.8649 4.68885L24.8617 4.76996L24.8623 4.76292L23.8649 4.68885ZM23.4272 3.72582C23.3588 3.75955 23.2698 3.78127 23.1686 3.78013L23.1455 5.77967C23.5378 5.78406 23.9406 5.70195 24.3112 5.51935L23.4272 3.72582ZM23.1688 3.78014C23.0652 3.77895 22.9628 3.75475 22.8754 3.71255L22.005 5.51328C22.3635 5.68632 22.7558 5.77521 23.1453 5.77966L23.1688 3.78014ZM22.8751 3.7124C22.8287 3.69003 22.7867 3.66212 22.7504 3.63036L21.4322 5.13482C21.6062 5.28718 21.7996 5.41417 22.0054 5.51344L22.8751 3.7124ZM21.4371 5.13908C21.259 4.98522 21.1854 4.81156 21.1611 4.75022C21.1301 4.67169 21.1158 4.60597 21.1092 4.57186C21.0959 4.50258 21.0932 4.44748 21.0923 4.42789C21.0903 4.38204 21.0921 4.34656 21.0925 4.33783C21.0937 4.31327 21.0956 4.2954 21.0957 4.29402C21.0965 4.28633 21.0969 4.28394 21.0962 4.28932C21.0957 4.29316 21.0953 4.29613 21.0953 4.29594C21.0953 4.29572 21.0955 4.29452 21.0958 4.29259C21.0959 4.29162 21.0968 4.28603 21.0981 4.27841C21.0986 4.27541 21.1003 4.26558 21.1029 4.25292C21.104 4.24722 21.1068 4.23336 21.1111 4.21581C21.1131 4.20712 21.117 4.19137 21.1227 4.17184C21.1263 4.15934 21.1397 4.11294 21.164 4.0562C21.1746 4.03129 21.2036 3.96525 21.2551 3.88916C21.2825 3.85071 21.3568 3.76249 21.4053 3.71458C21.4832 3.64969 21.701 3.52549 21.8433 3.47869C22.0356 3.45052 22.4175 3.50664 22.5928 3.58852C22.7138 3.67266 22.8848 3.85061 22.9406 3.93353C23.0322 4.08574 23.0586 4.22455 23.0645 4.25393C23.0823 4.34328 23.0832 4.41536 23.0834 4.42642C23.084 4.4518 23.0835 4.47191 23.0831 4.48198C23.082 4.51579 23.0792 4.54287 23.0792 4.54312L21.0879 4.35392C21.0878 4.35469 21.085 4.38214 21.0839 4.41616C21.0835 4.42628 21.083 4.44643 21.0836 4.47186C21.0838 4.48294 21.0848 4.55505 21.1025 4.64442C21.1084 4.6738 21.1348 4.81262 21.2265 4.96484C21.2822 5.04776 21.4532 5.22571 21.5742 5.30985C21.7495 5.39173 22.1314 5.44785 22.3237 5.41968C22.466 5.37288 22.6839 5.24868 22.7618 5.18379C22.8103 5.13588 22.8845 5.04766 22.9119 5.0092C22.9634 4.93311 22.9924 4.86706 23.0031 4.84214C23.0274 4.78538 23.0408 4.73895 23.0444 4.72642C23.05 4.70685 23.054 4.69105 23.0561 4.68232C23.0603 4.66465 23.0631 4.65066 23.0643 4.64478C23.0669 4.63178 23.0687 4.62147 23.0693 4.61787C23.0718 4.60368 23.0736 4.59099 23.0741 4.58797C23.0758 4.57644 23.0777 4.56272 23.0795 4.54924C23.0811 4.5373 23.0836 4.51697 23.0858 4.49547C23.0867 4.48718 23.0891 4.46344 23.0905 4.43463C23.091 4.42377 23.0928 4.38658 23.0907 4.33949C23.0898 4.31928 23.0871 4.26368 23.0737 4.19403C23.0671 4.15974 23.0527 4.09386 23.0217 4.01521C22.9974 3.95375 22.9236 3.78001 22.7455 3.62609L21.4371 5.13908ZM21.0886 4.34642C21.0826 4.40477 21.0772 4.46206 21.0722 4.51661L23.0641 4.69921C23.0689 4.64753 23.0735 4.59847 23.0785 4.55063L21.0886 4.34642ZM21.0722 4.51661C21.0673 4.57011 21.062 4.62771 21.0572 4.68641L23.0509 4.84863C23.0548 4.80086 23.0593 4.75194 23.0641 4.69921L21.0722 4.51661ZM21.0571 4.68855C21.0605 4.64565 21.068 4.60087 21.0632 4.63249C21.0624 4.63775 21.0593 4.65798 21.0565 4.68078C21.0545 4.69729 21.0482 4.74872 21.0475 4.81122C21.0471 4.83929 21.0471 4.9087 21.0615 4.99476C21.0688 5.03829 21.0841 5.11371 21.1193 5.20221C21.1516 5.28331 21.2264 5.44142 21.3883 5.58405L22.7109 4.08343C22.8721 4.22537 22.9462 4.38244 22.9779 4.4622C23.0126 4.54934 23.0275 4.6231 23.0345 4.6647C23.0482 4.74689 23.0479 4.81136 23.0477 4.83373C23.0471 4.88485 23.0422 4.92193 23.0419 4.92381C23.0409 4.93198 23.0401 4.9373 23.0412 4.93007C23.0413 4.92898 23.0425 4.921 23.0436 4.91341C23.0438 4.91244 23.0482 4.88234 23.0511 4.84649L21.0571 4.68855ZM21.3904 5.58585C21.7002 5.85723 22.0665 6.04256 22.4462 6.14213L22.9544 4.20791C22.8553 4.18192 22.7711 4.13615 22.7088 4.08163L21.3904 5.58585ZM22.446 6.14206C22.8229 6.24102 23.2249 6.25954 23.6164 6.18694L23.2521 4.22083C23.16 4.23791 23.0561 4.23462 22.9547 4.20799L22.446 6.14206ZM23.6165 6.18691C23.8408 6.14528 24.0612 6.0734 24.2701 5.97028L23.3851 4.17728C23.346 4.19656 23.3013 4.2117 23.2519 4.22087L23.6165 6.18691ZM24.2714 5.96967C24.4968 5.85802 24.6155 5.69388 24.6564 5.63336C24.7076 5.55768 24.7374 5.49117 24.7517 5.45668C24.781 5.38649 24.7956 5.32837 24.8007 5.30721C24.8129 5.25764 24.8188 5.21691 24.8207 5.20352C24.8257 5.1691 24.8284 5.13856 24.8297 5.12464C24.8312 5.10715 24.8324 5.09111 24.8331 5.07913C24.8335 5.07416 24.834 5.06516 24.8345 5.05516C24.8346 5.05248 24.8349 5.04712 24.8351 5.04045C24.8352 5.03716 24.8354 5.03138 24.8355 5.0242C24.8356 5.01979 24.8359 5.00256 24.8353 4.98057C24.835 4.97194 24.8343 4.9437 24.8307 4.90773C24.8291 4.89152 24.8248 4.85179 24.8143 4.80196C24.8087 4.77666 24.7921 4.71531 24.7804 4.67953C24.7597 4.62496 24.6882 4.48473 24.6323 4.40291C24.5119 4.27068 24.1126 4.04664 23.8334 4.00758C23.5721 4.04294 23.1997 4.23578 23.0861 4.3454C23.031 4.41355 22.9557 4.53206 22.9318 4.57919C22.9175 4.61061 22.8958 4.66511 22.8878 4.68792C22.8625 4.76299 22.852 4.82565 22.8513 4.82967C22.8454 4.86178 22.8425 4.88746 22.8421 4.89076C22.8411 4.89955 22.8404 4.90657 22.84 4.91018L24.8307 5.10551C24.8304 5.10891 24.8297 5.11576 24.8287 5.12442C24.8283 5.12758 24.8254 5.15316 24.8196 5.18521C24.8189 5.18921 24.8084 5.25184 24.7831 5.3269C24.7751 5.34971 24.7534 5.40421 24.7391 5.43562C24.7152 5.48275 24.6399 5.60126 24.5848 5.66941C24.4712 5.77903 24.0988 5.97186 23.8374 6.00723C23.5583 5.96816 23.159 5.74412 23.0386 5.6119C22.9827 5.53008 22.9112 5.38985 22.8905 5.33529C22.8788 5.2995 22.8622 5.23816 22.8566 5.21286C22.8461 5.16303 22.8419 5.12332 22.8402 5.10712C22.8366 5.07117 22.8359 5.04295 22.8356 5.03436C22.8351 5.01245 22.8354 4.99533 22.8354 4.99106C22.8355 4.98402 22.8357 4.97842 22.8358 4.97533C22.836 4.96907 22.8362 4.96424 22.8363 4.96221C22.8366 4.95769 22.8367 4.95448 22.8368 4.95354C22.8369 4.95218 22.8369 4.95131 22.8369 4.95097C22.837 4.95041 22.837 4.95087 22.837 4.95044C22.837 4.95007 22.8372 4.94784 22.8376 4.9441C22.8379 4.94111 22.8389 4.93227 22.8407 4.91981C22.8416 4.91321 22.8465 4.87827 22.8576 4.83293C22.8623 4.81389 22.8764 4.75749 22.9051 4.68856C22.9192 4.6547 22.9487 4.5887 22.9996 4.51342C23.0403 4.45328 23.1587 4.28941 23.3839 4.17789L24.2714 5.96967ZM24.8303 5.10995C24.8363 5.05159 24.8417 4.99431 24.8467 4.93976L22.8548 4.75716C22.8501 4.80884 22.8454 4.8579 22.8405 4.90574L24.8303 5.10995ZM24.8467 4.93976C24.8517 4.88625 24.8569 4.82866 24.8617 4.76996L22.868 4.60773C22.8641 4.65551 22.8597 4.70443 22.8548 4.75716L24.8467 4.93976ZM24.8623 4.76292C24.8637 4.74358 24.8643 4.72813 24.8644 4.72354C24.8647 4.71678 24.8648 4.71111 24.8649 4.7079C24.8651 4.70177 24.8652 4.69541 24.8652 4.69322C24.8654 4.68569 24.8654 4.68512 24.8654 4.686C24.8653 4.6868 24.8652 4.69045 24.8649 4.69607C24.8646 4.70076 24.8639 4.71303 24.8623 4.72969C24.8614 4.73935 24.8572 4.78358 24.8447 4.84028C24.8392 4.86536 24.8238 4.93195 24.7898 5.01245C24.7726 5.05323 24.7397 5.1237 24.6838 5.20236C24.632 5.27516 24.521 5.41099 24.3289 5.51041L23.4095 3.73476C23.2172 3.83431 23.106 3.97038 23.0539 4.04352C22.9977 4.12251 22.9647 4.19342 22.9472 4.23473C22.9127 4.31628 22.897 4.38431 22.8911 4.41114C22.8778 4.47134 22.873 4.52035 22.8715 4.53569C22.8676 4.575 22.8665 4.60907 22.8661 4.62091C22.8656 4.63707 22.8653 4.65216 22.8652 4.65748C22.8647 4.68561 22.8649 4.64922 22.8675 4.61477L24.8623 4.76292Z" fill="#D4F5FF" mask="url(#path-15-inside-1_405_337)"/>
<mask id="path-17-inside-2_405_337" fill="white">
<path d="M9.22043 4.67362C9.00919 4.55008 8.8304 4.37352 8.69684 4.16619C8.56339 3.95895 8.47442 3.7215 8.44154 3.47627C8.42289 3.33759 8.42278 3.19679 8.44177 3.05838C8.44144 3.06085 8.37504 3.09212 8.38242 3.08821C8.33506 3.11289 8.28788 3.13797 8.24082 3.16315C8.19376 3.18832 8.14662 3.21362 8.09975 3.23931C8.09103 3.24411 8.04313 3.26384 8.04198 3.27204C8.00834 3.51698 8.03588 3.7685 8.11528 4.00279C8.19455 4.23688 8.32475 4.4539 8.49535 4.63089C8.59191 4.73103 8.70126 4.81765 8.82067 4.88739C8.82473 4.88975 8.88592 4.85445 8.88001 4.85756C8.92737 4.83288 8.97455 4.80779 9.02161 4.78262C9.06867 4.75745 9.11582 4.73215 9.16268 4.70646C9.16982 4.70248 9.21638 4.67136 9.22043 4.67362Z"/>
</mask>
<path d="M9.22043 4.67362C9.00919 4.55008 8.8304 4.37352 8.69684 4.16619C8.56339 3.95895 8.47442 3.7215 8.44154 3.47627C8.42289 3.33759 8.42278 3.19679 8.44177 3.05838C8.44144 3.06085 8.37504 3.09212 8.38242 3.08821C8.33506 3.11289 8.28788 3.13797 8.24082 3.16315C8.19376 3.18832 8.14662 3.21362 8.09975 3.23931C8.09103 3.24411 8.04313 3.26384 8.04198 3.27204C8.00834 3.51698 8.03588 3.7685 8.11528 4.00279C8.19455 4.23688 8.32475 4.4539 8.49535 4.63089C8.59191 4.73103 8.70126 4.81765 8.82067 4.88739C8.82473 4.88975 8.88592 4.85445 8.88001 4.85756C8.92737 4.83288 8.97455 4.80779 9.02161 4.78262C9.06867 4.75745 9.11582 4.73215 9.16268 4.70646C9.16982 4.70248 9.21638 4.67136 9.22043 4.67362Z" fill="#D4F5FF"/>
<path d="M9.22043 4.67362L8.73288 5.54659L9.72519 3.81048L9.22043 4.67362ZM8.69684 4.16619L7.85604 4.7074L7.85616 4.70758L8.69684 4.16619ZM8.44154 3.47627L9.4327 3.34359L9.43266 3.34324L8.44154 3.47627ZM8.44177 3.05838L9.43339 3.18801L7.451 2.9223L8.44177 3.05838ZM8.38242 3.08821L8.85138 3.9715L7.92013 2.20141L8.38242 3.08821ZM8.09975 3.23931L7.61889 2.36244L7.61701 2.36347L8.09975 3.23931ZM8.04198 3.27204L7.05162 3.13308L7.05125 3.13579L8.04198 3.27204ZM8.11528 4.00279L9.06249 3.68227L9.0624 3.682L8.11528 4.00279ZM8.49535 4.63089L7.77538 5.32475L7.77551 5.32489L8.49535 4.63089ZM8.82067 4.88739L8.31642 5.75083L8.3176 5.75152L8.82067 4.88739ZM8.88001 4.85756L8.41378 3.97283L9.3423 5.74436L8.88001 4.85756ZM9.16268 4.70646L9.64356 5.58335L9.64972 5.57992L9.16268 4.70646ZM9.72519 3.81048C9.65928 3.77194 9.5922 3.70969 9.53751 3.6248L7.85616 4.70758C8.0686 5.03736 8.3591 5.32822 8.71567 5.53675L9.72519 3.81048ZM9.53764 3.62498C9.48163 3.53801 9.44556 3.43951 9.4327 3.34359L7.45037 3.60895C7.50327 4.00348 7.64516 4.37988 7.85604 4.7074L9.53764 3.62498ZM9.43266 3.34324C9.42582 3.29236 9.42599 3.2421 9.43253 3.19446L7.451 2.9223C7.41957 3.15149 7.41997 3.38283 7.45042 3.6093L9.43266 3.34324ZM7.45014 2.92875C7.48063 2.69522 7.58518 2.53801 7.62304 2.48406C7.67154 2.41493 7.71855 2.36682 7.7434 2.3426C7.79391 2.29336 7.83838 2.26076 7.85425 2.24926C7.8914 2.22236 7.92197 2.20432 7.92949 2.19988C7.95063 2.18737 7.96658 2.17911 7.96781 2.17847C7.97464 2.1749 7.97683 2.17391 7.97195 2.17629C7.96845 2.17798 7.96573 2.17927 7.9659 2.17919C7.9661 2.17909 7.96719 2.17858 7.96897 2.17777C7.96986 2.17736 7.975 2.17501 7.98208 2.17192C7.98486 2.1707 7.994 2.16671 8.00595 2.16186C8.01134 2.15967 8.02443 2.1544 8.0414 2.14826C8.04979 2.14522 8.06507 2.1398 8.08446 2.13377C8.09687 2.1299 8.14293 2.11554 8.2036 2.10456C8.23023 2.09974 8.30127 2.0876 8.39304 2.08865C8.44016 2.0903 8.5546 2.10365 8.62124 2.11771C8.71826 2.14693 8.94186 2.26019 9.05933 2.35315C9.18885 2.49815 9.35248 2.84805 9.38068 3.03968C9.37703 3.18714 9.32254 3.42807 9.28395 3.5203C9.20724 3.68059 9.10588 3.77911 9.0846 3.80011C9.0198 3.8641 8.96015 3.90454 8.95107 3.91082C8.93019 3.92526 8.91313 3.93588 8.90454 3.94114C8.87571 3.9588 8.8516 3.97138 8.85138 3.9715L7.91346 2.20492C7.91278 2.20528 7.88834 2.21804 7.85933 2.23581C7.8507 2.2411 7.8336 2.25174 7.8127 2.2662C7.80359 2.2725 7.74392 2.31295 7.6791 2.37695C7.65782 2.39797 7.55645 2.49649 7.47974 2.65679C7.44115 2.74901 7.38666 2.98995 7.38301 3.13741C7.41121 3.32904 7.57484 3.67894 7.70436 3.82394C7.82183 3.9169 8.04544 4.03016 8.14245 4.05939C8.2091 4.07344 8.32354 4.0868 8.37067 4.08845C8.46244 4.08949 8.53349 4.07735 8.56013 4.07253C8.62082 4.06155 8.66691 4.04718 8.67935 4.0433C8.69878 4.03726 8.71411 4.03182 8.72255 4.02877C8.73961 4.02259 8.75285 4.01726 8.7584 4.01501C8.77067 4.01003 8.78025 4.00585 8.7836 4.00439C8.79678 3.99863 8.8084 3.9932 8.81117 3.99191C8.82172 3.98699 8.83424 3.98103 8.84646 3.97509C8.8573 3.96982 8.87569 3.9608 8.89483 3.95079C8.90222 3.94693 8.92334 3.93586 8.94815 3.92118C8.9575 3.91565 8.98953 3.89669 9.02768 3.86906C9.04405 3.85721 9.08892 3.82428 9.13969 3.77479C9.16468 3.75043 9.21179 3.7022 9.26037 3.63297C9.2983 3.57892 9.40289 3.42162 9.43339 3.18801L7.45014 2.92875ZM7.92013 2.20141C7.86808 2.22853 7.81726 2.25556 7.76894 2.28141L8.7127 4.04488C8.75849 4.02039 8.80203 3.99725 8.8447 3.97501L7.92013 2.20141ZM7.76894 2.28141C7.72153 2.30677 7.67055 2.33412 7.61889 2.36244L8.58062 4.11618C8.62268 4.09312 8.66598 4.06987 8.7127 4.04488L7.76894 2.28141ZM7.61701 2.36347C7.65466 2.34272 7.69613 2.32433 7.66712 2.33775C7.66229 2.33999 7.6437 2.34854 7.62314 2.35875C7.60825 2.36614 7.56188 2.38921 7.50933 2.42299C7.48574 2.43815 7.42779 2.47631 7.36388 2.53566C7.33155 2.56567 7.27703 2.62 7.22252 2.69812C7.17259 2.76969 7.0816 2.9192 7.05162 3.13308L9.03235 3.41101C9.00252 3.62386 8.91204 3.77226 8.86293 3.84263C8.80926 3.91956 8.75589 3.97262 8.725 4.0013C8.66397 4.05798 8.61001 4.09321 8.59121 4.1053C8.54824 4.13292 8.5146 4.14921 8.51292 4.15005C8.50557 4.1537 8.50066 4.15591 8.5073 4.15284C8.50831 4.15237 8.51563 4.14899 8.52256 4.14571C8.52345 4.1453 8.55103 4.13248 8.5825 4.11514L7.61701 2.36347ZM7.05125 3.13579C6.99519 3.54393 7.04216 3.95178 7.16817 4.32358L9.0624 3.682C9.0296 3.58522 9.0215 3.49003 9.03272 3.4083L7.05125 3.13579ZM7.16808 4.32331C7.29306 4.69243 7.49909 5.0381 7.77538 5.32475L9.21533 3.93703C9.15042 3.8697 9.09604 3.78134 9.06249 3.68227L7.16808 4.32331ZM7.77551 5.32489C7.9338 5.48905 8.11524 5.63333 8.31642 5.75083L9.32491 4.02395C9.28727 4.00197 9.25002 3.97301 9.21519 3.9369L7.77551 5.32489ZM8.3176 5.75152C8.53491 5.87803 8.73714 5.88658 8.81009 5.8874C8.90135 5.88844 8.97317 5.87663 9.00983 5.86963C9.08444 5.85538 9.14095 5.83559 9.16144 5.82827C9.20945 5.81111 9.24668 5.79363 9.25892 5.78787C9.29035 5.77306 9.31737 5.75858 9.32967 5.75193C9.34511 5.74359 9.35914 5.73572 9.36956 5.72978C9.37389 5.72731 9.38171 5.72282 9.39031 5.71772C9.39261 5.71635 9.39722 5.7136 9.40291 5.71011C9.40572 5.70839 9.41063 5.70536 9.41669 5.70151C9.42041 5.69915 9.43495 5.68992 9.45297 5.67734C9.46005 5.6724 9.48319 5.65621 9.51123 5.63342C9.52387 5.62315 9.55468 5.59774 9.59052 5.5616C9.60854 5.54296 9.65062 5.49533 9.67408 5.4659C9.70824 5.41855 9.78604 5.28169 9.8236 5.18992C9.86775 5.01643 9.83496 4.55938 9.71369 4.30464C9.54014 4.106 9.17408 3.90155 9.02014 3.86724C8.93298 3.85879 8.79273 3.86123 8.74028 3.86724C8.70624 3.87265 8.64885 3.88453 8.62543 3.8904C8.54888 3.91057 8.49086 3.9363 8.4871 3.9379C8.45712 3.95072 8.43409 3.96241 8.43113 3.9639C8.42322 3.96787 8.41698 3.97114 8.41378 3.97283L9.34625 5.74229C9.34323 5.74388 9.33714 5.74707 9.32936 5.75098C9.32651 5.75241 9.30357 5.76406 9.27365 5.77685C9.26992 5.77845 9.21192 5.80417 9.13539 5.82433C9.11196 5.8302 9.05458 5.84208 9.02054 5.84749C8.96809 5.85349 8.82784 5.85593 8.74069 5.84749C8.58675 5.81318 8.22068 5.60873 8.04714 5.41009C7.92587 5.15535 7.89308 4.6983 7.93723 4.52481C7.97479 4.43304 8.05259 4.29618 8.08675 4.24883C8.11021 4.21941 8.15228 4.17178 8.1703 4.15314C8.20614 4.11701 8.23694 4.0916 8.24957 4.08134C8.2776 4.05856 8.30071 4.04239 8.30776 4.03748C8.32572 4.02494 8.34016 4.01577 8.34377 4.01348C8.34971 4.00971 8.35447 4.00677 8.3571 4.00516C8.36244 4.00188 8.36659 3.99941 8.36834 3.99837C8.37223 3.99606 8.37501 3.99445 8.37582 3.99398C8.37699 3.9933 8.37775 3.99287 8.37804 3.9927C8.37852 3.99243 8.37811 3.99266 8.37848 3.99246C8.37881 3.99228 8.38077 3.99122 8.3841 3.9895C8.38677 3.98812 8.39467 3.98407 8.40605 3.97871C8.41207 3.97587 8.4439 3.96075 8.48781 3.94505C8.50625 3.93846 8.56103 3.91918 8.63431 3.90519C8.67029 3.89832 8.74154 3.88658 8.83233 3.8876C8.90481 3.88842 9.10668 3.89689 9.32373 4.02326L8.3176 5.75152ZM9.3423 5.74436C9.39435 5.71724 9.44517 5.69021 9.49349 5.66436L8.54973 3.90089C8.50394 3.92538 8.4604 3.94852 8.41773 3.97076L9.3423 5.74436ZM9.49349 5.66436C9.54089 5.639 9.59188 5.61165 9.64354 5.58333L8.68181 3.82959C8.63975 3.85265 8.59645 3.8759 8.54973 3.90089L9.49349 5.66436ZM9.64972 5.57992C9.66665 5.57048 9.67985 5.56246 9.68377 5.56008C9.68956 5.55657 9.69436 5.55357 9.69709 5.55187C9.70229 5.54862 9.70766 5.54521 9.70951 5.54404C9.71588 5.54001 9.71637 5.53972 9.71563 5.54017C9.71495 5.54059 9.71184 5.54249 9.70699 5.54533C9.70294 5.54769 9.69232 5.55385 9.67753 5.56165C9.66895 5.56618 9.62975 5.587 9.5756 5.60778C9.55165 5.61698 9.48768 5.64082 9.40185 5.65675C9.35836 5.66482 9.28154 5.67623 9.18516 5.67285C9.09598 5.66973 8.92157 5.65199 8.73288 5.54659L9.70798 3.80064C9.51903 3.69511 9.34428 3.67728 9.2547 3.67415C9.1579 3.67076 9.08059 3.68222 9.03653 3.69039C8.94957 3.70653 8.88418 3.73082 8.85856 3.74065C8.80106 3.76272 8.7575 3.78563 8.74387 3.79282C8.70896 3.81124 8.6799 3.82903 8.6698 3.83523C8.65602 3.84368 8.64328 3.85177 8.63879 3.85462C8.61503 3.86967 8.64548 3.84981 8.67563 3.83301L9.64972 5.57992Z" fill="#D4F5FF" mask="url(#path-17-inside-2_405_337)"/>
<path d="M10.5331 8.07491C11.2749 8.00039 11.7822 8.20424 13.9177 8.72967C14.7641 8.98441 15.6626 9.07355 16.0317 8.70168C16.0317 8.70168 16.0355 8.69771 16.0428 8.69015C16.0445 8.68856 16.0466 8.68658 16.0488 8.6846L16.0479 8.68539C16.0483 8.685 16.0483 8.685 16.0488 8.6846C16.1902 8.53045 16.2462 8.30203 16.1779 7.98025C16.014 7.98052 15.8873 7.95456 15.8873 7.95456C14.0664 7.48491 12.7723 7.4737 11.9959 7.55108C11.8368 7.56716 11.6794 7.59441 11.5257 7.63291C11.1696 7.72173 10.8329 7.87008 10.5319 8.07487C10.5323 8.07488 10.5327 8.07531 10.5331 8.07491Z" fill="#FF768F"/>
<path d="M16.0489 8.68381C16.1531 8.57975 16.7015 8.01892 16.8291 7.70133C16.9389 7.52136 16.9548 7.2298 16.7679 6.76223C16.4812 6.04544 15.9039 5.12521 15.6901 4.45506C15.6372 4.2898 15.6068 4.14017 15.6081 4.01225C15.609 3.89667 15.636 3.79889 15.6963 3.72411C15.467 3.96356 15.0227 4.59233 14.9667 4.6722C14.9624 4.6778 14.9607 4.68062 14.9607 4.68062C14.7233 4.98314 14.8299 5.61117 15.5651 6.71154C15.9186 7.24023 16.1102 7.65613 16.1785 7.97911C16.2463 8.30126 16.1907 8.52926 16.0489 8.68381Z" fill="#F2385A"/>
<path d="M15.6896 4.45446C16.0046 4.47403 16.3782 4.57265 16.7545 4.7224C17.6677 5.08609 18.9553 5.63032 19.7019 5.29427L19.704 5.29352C19.9782 5.16883 20.1788 4.92546 20.2609 4.51035C19.5288 4.50046 18.4684 4.15369 17.1213 3.74187C16.2881 3.48763 15.8642 3.5164 15.6962 3.72268C15.6958 3.72308 15.6958 3.72308 15.6953 3.72347L15.6949 3.72387C15.6346 3.79864 15.608 3.89644 15.6067 4.01202C15.6066 4.13958 15.6371 4.28922 15.6896 4.45446Z" fill="#FF768F"/>
<path d="M19.7045 5.29296C19.7462 5.278 20.37 5.04576 21.1252 4.2208C21.1286 4.21722 21.1317 4.21362 21.1351 4.21004C21.3495 3.97294 21.4505 3.58116 21.4308 2.98425C21.4068 2.25757 21.3506 1.6474 21.3892 1.18343C21.3899 1.17358 21.3911 1.16416 21.3919 1.15472C21.4076 0.981241 21.4378 0.828853 21.489 0.699028C21.5225 0.61465 21.5643 0.539623 21.6177 0.474888C21.6392 0.448506 21.6624 0.423828 21.6879 0.400882L20.5529 1.3821L20.5163 1.4137C20.1564 1.74802 20.1935 2.47477 20.2917 3.77152C20.3137 4.06322 20.3024 4.30763 20.2622 4.51027C20.1793 4.92492 19.9786 5.16827 19.7045 5.29296Z" fill="#F2385A"/>
<path d="M21.6902 0.398022L21.6982 0.390906L21.6923 0.39563C21.6915 0.396422 21.6906 0.397215 21.6902 0.398022Z" fill="#AC1833"/>
<path d="M16.0432 8.68973C16.0359 8.69688 16.0321 8.70126 16.0321 8.70126L16.0483 8.68498L16.0492 8.68419C16.0466 8.68615 16.0449 8.68815 16.0432 8.68973Z" fill="#F2385A"/>
<path d="M21.6893 0.40046L21.6982 0.392963L21.6901 0.399667L21.6871 0.40244L21.6893 0.40046Z" fill="#F2385A"/>
</svg>
