<svg width="244" height="167" viewBox="0 0 244 167" fill="none" xmlns="http://www.w3.org/2000/svg">
<path d="M62.8751 143.995C63.4045 145.175 65.2227 144.748 65.2728 143.456C65.533 136.756 66.9278 128.546 71.3329 120.499C78.8755 106.725 88.6097 105.522 105.976 86.6552C116.956 74.7286 124.495 66.294 122.848 56.2632C121.556 48.4047 114.785 40.5049 107.21 39.2691C100.917 38.2431 93.3356 41.7033 88.809 45.0341C85.1218 47.7534 83.2705 50.5259 79.7393 50.4138C76.1356 50.3002 75.0364 47.3115 71.9916 46.8678C65.8252 45.9702 59.4901 56.6834 58.4634 58.4164C47.0684 77.6794 51.2216 102.177 53.1606 112.841C54.5758 120.622 57.2751 131.515 62.8751 143.995Z" fill="url(#paint0_linear_607_15962)"/>
<mask id="mask0_607_15962" style="mask-type:alpha" maskUnits="userSpaceOnUse" x="50" y="39" width="74" height="106">
<path d="M62.8751 143.995C63.4045 145.175 65.2227 144.748 65.2728 143.456C65.533 136.756 66.9278 128.546 71.3329 120.499C78.8755 106.725 88.6097 105.522 105.976 86.6552C116.956 74.7286 124.495 66.294 122.848 56.2632C121.556 48.4047 114.785 40.5049 107.21 39.2691C100.917 38.2431 93.3356 41.7033 88.809 45.0341C85.1218 47.7534 83.2705 50.5259 79.7393 50.4138C76.1356 50.3002 75.0364 47.3115 71.9916 46.8678C65.8252 45.9702 59.4901 56.6834 58.4634 58.4164C47.0684 77.6794 51.2216 102.177 53.1606 112.841C54.5758 120.622 57.2751 131.515 62.8751 143.995Z" fill="url(#paint1_linear_607_15962)"/>
</mask>
<g mask="url(#mask0_607_15962)">
<g opacity="0.5">
<path opacity="0.5" d="M66.8609 156.271L67.3244 156.056C63.1154 147.043 60.3197 138.443 59.0011 130.511C57.0547 118.807 58.4179 108.874 63.0515 100.989C66.6801 94.8143 72.1398 90.0632 79.6923 83.4857C85.7225 78.2331 90.4746 75.0627 94.6637 72.2575C100.144 68.5929 104.471 65.7008 109.075 59.8709C113.752 53.9547 117.172 46.8888 119.247 38.8629L118.756 38.7335C116.703 46.6934 113.31 53.6953 108.682 59.554C104.121 65.3177 99.829 68.1919 94.3853 71.832C90.1809 74.6395 85.4158 77.8276 79.3638 83.1024C72.0574 89.4602 66.2841 94.4821 62.6166 100.731C57.9269 108.722 56.5406 118.773 58.5058 130.599C59.816 138.58 62.6362 147.217 66.8609 156.271Z" fill="white"/>
<path opacity="0.5" d="M84.4536 79.882C85.9004 80.3494 90.7585 81.729 97.1212 81.5447C104.147 81.341 114.506 79.1503 123.992 69.8413L123.635 69.478C114.276 78.6672 104.054 80.837 97.1253 81.0353C90.5628 81.2281 85.6378 79.7393 84.4575 79.3507C91.3738 65.98 92.1239 54.1047 91.5305 46.479C90.8779 38.1557 88.522 32.9372 88.5017 32.8869L88.0383 33.1019C88.0585 33.1523 90.3853 38.303 91.0262 46.5496C91.6194 54.1533 90.8561 66.0244 83.876 79.3891L83.7423 79.645L84.0089 79.7457C84.0198 79.7346 84.1696 79.7903 84.4536 79.882Z" fill="white"/>
<path opacity="0.5" d="M67.8609 94.2985L68.0406 94.2617C68.1348 94.2411 77.2156 92.4178 86.6774 92.3737C96.082 92.3258 108.959 101.651 109.09 101.744L109.391 101.33C109.261 101.237 96.2464 91.8171 86.6748 91.8622C77.9068 91.9043 69.4646 93.4669 68.1256 93.7274C59.8399 78.5903 74.1116 38.6329 74.2571 38.2276L73.7813 38.052C73.7405 38.1556 70.0812 48.3544 67.5182 60.2861C64.0737 76.3468 64.1577 87.7401 67.7693 94.1303L67.8609 94.2985Z" fill="white"/>
<path opacity="0.5" d="M58.0543 127.456L58.177 126.963C60.2611 118.772 66.0623 113.686 75.4196 111.843C82.4233 110.465 88.8942 111.527 88.958 111.533L89.0411 111.027C88.9795 111.014 82.4184 109.938 75.3205 111.337C66.0728 113.157 60.0288 118.34 57.8111 126.334C56.6444 124.819 52.3957 119.091 48.2193 110.746C43.7185 101.756 38.3813 87.8118 38.5125 72.4098L38.7611 42.4841L38.2517 42.48L38.0031 72.4057C37.8751 87.9109 43.2417 101.944 47.7693 110.987C52.6749 120.779 57.6768 126.998 57.7234 127.057L58.0543 127.456Z" fill="white"/>
</g>
</g>
<path d="M63.8057 144.482C64.1983 145.438 63.2963 146.43 62.3205 146.088C51.8041 142.395 39.4389 136.393 28.9004 126.628C25.9927 123.931 8.01777 107.283 13.7361 98.4793C15.7534 95.3738 19.0072 95.8704 21.7703 91.7656C25.0468 86.9075 22.5833 83.106 22.4811 75.6535C22.4222 71.2062 22.244 58.1847 31.3869 54.0689C36.8503 51.6097 45.3915 52.4282 50.958 55.8606C59.1277 60.8779 59.2898 70.5164 59.2878 86.8283C59.2862 101.287 57.106 104.107 57.2797 114.522C57.4091 121.778 58.6693 131.967 63.8057 144.482Z" fill="url(#paint2_linear_607_15962)"/>
<mask id="mask1_607_15962" style="mask-type:alpha" maskUnits="userSpaceOnUse" x="12" y="52" width="52" height="95">
<path d="M63.8057 144.482C64.1983 145.438 63.2963 146.43 62.3205 146.088C51.8041 142.395 39.4389 136.393 28.9004 126.628C25.9927 123.931 8.01777 107.283 13.7361 98.4793C15.7534 95.3738 19.0072 95.8704 21.7703 91.7656C25.0468 86.9075 22.5833 83.106 22.4811 75.6535C22.4222 71.2062 22.244 58.1847 31.3869 54.0689C36.8503 51.6097 45.3915 52.4282 50.958 55.8606C59.1277 60.8779 59.2898 70.5164 59.2878 86.8283C59.2862 101.287 57.106 104.107 57.2797 114.522C57.4091 121.778 58.6693 131.967 63.8057 144.482Z" fill="url(#paint3_linear_607_15962)"/>
</mask>
<g mask="url(#mask1_607_15962)">
<path opacity="0.5" d="M91.1723 162.385C97.3424 164.378 103.922 165.599 110.866 166.033L110.899 165.526C97.7889 164.712 85.9811 161.066 75.8099 154.702C62.2578 146.224 52.4235 133.125 46.5781 115.764C40.4911 97.6817 40.2519 79.5192 41.1211 67.4561C41.724 59.108 44.9501 50.7245 50.6983 42.5282L50.2828 42.2335C44.4739 50.505 41.2245 58.9831 40.6158 67.4169C39.7404 79.5217 39.976 97.7634 46.0966 115.922C51.9803 133.391 61.8924 146.587 75.5482 155.128C80.3954 158.167 85.6166 160.591 91.1723 162.385Z" fill="white"/>
<path opacity="0.5" d="M41.1602 92.1125L41.3523 91.9921C41.3981 91.9632 45.7716 89.1519 50.2252 84.1049C54.3421 79.4453 59.3827 71.8814 60.0025 62.2839L59.4951 62.2513C58.887 71.6994 53.9158 79.1617 49.8553 83.7593C45.9687 88.1577 42.1539 90.8431 41.2702 91.4331C23.0259 68.483 29.0521 51.2281 31.3394 46.4735C31.4083 46.328 31.4341 46.2707 31.4469 46.231L30.9647 46.0753L31.2091 46.1542L30.9668 46.0687C30.9583 46.0951 30.9237 46.1569 30.8785 46.2517C28.5524 51.0813 22.415 68.6577 41.0136 91.9338L41.1602 92.1125Z" fill="white"/>
<path opacity="0.5" d="M37.5665 113.669C40.1627 114.507 43.0301 115.229 46.1879 115.797L46.3199 115.818L46.4177 115.718C46.5265 115.607 57.3228 104.205 62.0721 85.3924L66.8618 66.4323L66.3689 66.3095L61.5792 85.2697C57.101 103.017 47.2063 114.113 46.1479 115.266C37.8969 113.776 26.489 110.178 18.7243 101.491C14.0566 96.2694 12.9112 91.617 12.8976 91.5688L12.4003 91.6854C12.4461 91.8826 13.5778 96.4868 18.3233 101.806C21.7643 105.675 27.7301 110.491 37.5665 113.669Z" fill="white"/>
</g>
<path d="M55.859 149.735C56.3936 149.789 56.8912 149.461 57.0413 148.945C57.6899 146.716 58.8142 141.257 55.8003 136.49C52.8191 131.785 47.4288 130.314 46.1743 129.974C41.1385 128.603 39.1671 130.505 36.461 128.471C33.2421 126.059 34.2499 122.059 31.3863 121.031C29.4126 120.321 26.8371 121.473 25.6276 123.14C23.5032 126.058 25.0727 131.226 27.9437 133.992C31.9046 137.81 36.2079 135.013 41.0191 139.135C43.8141 141.526 43.2018 143.196 46.0975 145.795C49.1398 148.521 52.8867 149.436 55.859 149.735Z" fill="url(#paint4_linear_607_15962)"/>
<g opacity="0.5">
<path opacity="0.5" d="M57.5003 152.799L57.7389 152.716C56.7762 150.004 55.6337 147.308 54.3406 144.716C51.7566 139.526 50.4613 136.919 48.363 135.33C45.639 133.26 42.966 133.36 40.3762 133.45C38.0872 133.535 35.9254 133.61 33.816 132.235C30.4653 130.051 28.8075 125.066 28.8988 117.42L28.6442 117.418C28.5515 125.158 30.2451 130.214 33.6798 132.454C35.8554 133.872 38.0611 133.796 40.3874 133.709C42.9266 133.617 45.5624 133.52 48.2091 135.535C50.2521 137.092 51.5407 139.675 54.1068 144.831C55.4019 147.416 56.5421 150.097 57.5003 152.799Z" fill="white"/>
<path opacity="0.5" d="M29.0115 131.502C29.4079 131.63 29.7776 131.727 30.1054 131.797C31.8938 132.177 32.9936 131.935 33.0397 131.928L33.0791 131.918L33.1051 131.883C35.8711 128.56 35.1561 122.259 35.1489 122.191L34.8989 122.22C34.9082 122.281 35.6044 128.437 32.9364 131.683C32.4805 131.761 28.3036 132.338 23.2128 127.659L23.0433 127.845C25.333 129.949 27.4261 130.99 29.0115 131.502Z" fill="white"/>
<path opacity="0.5" d="M33.825 139.525C36.8809 135.507 48.1811 135.553 48.2975 135.555L48.4138 135.556L48.4282 135.444C48.6422 133.674 47.1704 131.929 44.0571 130.253C41.7646 129.016 39.3824 128.283 39.3625 128.276L39.2902 128.523C39.3761 128.551 48.4761 131.388 48.1876 135.308C47.6168 135.313 45.031 135.346 42.1721 135.772C37.8247 136.425 34.9513 137.641 33.626 139.373L33.825 139.525Z" fill="white"/>
<path opacity="0.5" d="M39.9458 143.431C44.8116 137.853 53.7868 144.261 53.8752 144.327L53.999 144.418L54.0657 144.279C56.9618 138.408 53.2225 131.035 53.1888 130.958L52.9616 131.075C52.9974 131.145 56.6183 138.297 53.9054 144.03C52.7874 143.267 44.4561 137.87 39.7532 143.259L39.9458 143.431Z" fill="white"/>
</g>
<path d="M243.113 150.953L54.7476 149.312V154.168C54.7476 155.488 55.5714 156.606 56.6832 156.807L109.943 166.365C110.573 166.479 111.216 166.505 111.852 166.452L241.063 155.555C242.215 155.454 243.113 154.336 243.113 152.983V150.953Z" fill="#035970"/>
<path d="M182.472 143.084L56.824 151.965C54.5736 152.126 52.7451 150.438 52.7451 148.195V58.3654C52.7451 56.1217 54.5736 54.3066 56.824 54.3066H182.479C184.334 54.3066 185.828 55.9476 185.828 57.977V139.179C185.828 141.202 184.327 142.95 182.472 143.084Z" fill="#035970"/>
<path d="M187.951 57.98V139.183C187.951 141.212 186.391 142.96 184.542 143.087L161.449 144.715L58.8069 151.968C56.5565 152.122 54.6812 150.441 54.6812 148.198V58.3685C54.6812 56.1248 56.5766 54.2695 58.827 54.2695H184.482C186.33 54.2695 187.951 55.9506 187.951 57.98Z" fill="#77C2D7"/>
<path d="M180.627 137.357L63.5922 145.073C61.7637 145.193 60.2769 143.807 60.2769 141.978V63.3344C60.2769 61.506 61.7637 60.0124 63.5922 60.0057L180.627 59.5235C182.154 59.5168 183.393 60.863 183.393 62.5307V134.162C183.393 135.823 182.154 137.257 180.627 137.357Z" fill="#4690A4"/>
<path d="M126.091 56.7668C126.091 57.604 125.441 58.2805 124.644 58.2805C123.847 58.2805 123.198 57.604 123.198 56.7735C123.198 55.9363 123.847 55.2598 124.644 55.2598C125.441 55.2531 126.091 55.9296 126.091 56.7668Z" fill="white"/>
<path opacity="0.48" d="M181.34 142.685L54.7476 152.028L109.943 161.934C110.573 162.048 111.216 162.075 111.852 162.021L243.106 150.95L183.349 142.745C182.686 142.658 182.017 142.638 181.34 142.685Z" fill="#77C2D7"/>
<path d="M73.2197 152.27L178.614 144.367L211.232 148.814L106.748 157.253L73.2197 152.27Z" fill="#77C2D7"/>
<path opacity="0.9" d="M183.421 75.187L60.2778 76.714V62.803C60.2778 61.2424 61.5437 59.9766 63.1042 59.9766H180.595C182.155 59.9766 183.421 61.2424 183.421 62.803V75.187Z" fill="white"/>
<g opacity="0.5">
<path opacity="0.5" d="M137.404 111.998L67.7817 114.878V81.9857L137.404 80.8203V111.998Z" fill="white"/>
<path opacity="0.5" d="M177.014 110.361L141.51 111.828V80.7504L177.014 80.1543V110.361Z" fill="white"/>
<path opacity="0.5" d="M177.014 132.779L67.7817 139.289V119.169L177.014 114.307V132.779Z" fill="white"/>
</g>
<path opacity="0.48" d="M161.415 144.714L58.7935 151.968C56.5431 152.122 54.6812 150.441 54.6812 148.197V68.4414C55.1701 68.8968 55.6121 69.3255 56.1078 69.7274C63.79 75.9428 72.4969 69.9484 80.5676 76.425C87.2117 81.7698 83.3673 87.5565 91.083 94.9976C97.1912 100.885 101.143 98.6814 107.218 105.225C112.703 111.126 110.513 114.073 114.974 118.024C122.321 124.541 129.943 117.937 139.628 123.148C147.397 127.327 146.144 133.596 153.351 139.952C155.34 141.714 157.952 143.449 161.415 144.714Z" fill="white"/>
<mask id="mask2_607_15962" style="mask-type:alpha" maskUnits="userSpaceOnUse" x="59" y="60" width="125" height="86">
<path d="M180.238 137.834L63.203 145.549C61.3746 145.67 59.8877 144.283 59.8877 142.455V63.811C59.8877 61.9825 61.3746 60.489 63.203 60.4823L180.238 60C181.765 59.9933 183.004 61.3396 183.004 63.0073V134.639C183.004 136.3 181.765 137.733 180.238 137.834Z" fill="#B2ECFC"/>
</mask>
<g mask="url(#mask2_607_15962)">
<path d="M60.0529 153.128C57.8407 149.188 58.9898 142.368 61.4417 137.452C68.2381 123.83 85.2968 126.95 99.1294 110.011C106.577 100.892 105.072 95.1315 112.599 90.5808C118.646 86.9224 121.51 89.515 128.687 84.8506C134.205 81.264 137.223 76.6236 141.131 77.0487C142.305 77.1745 143.067 77.6954 143.38 77.9169C147.288 80.6473 144.732 88.2936 144.259 89.6408C140.811 99.4007 133.118 100.544 133.161 106.077C133.204 111.789 141.088 111.705 144.886 120.519C147.792 127.267 147.841 137.955 142.809 144.099C136.117 152.272 126.807 145.23 106.301 146.506C80.2579 148.116 64.9628 161.888 60.0529 153.128Z" fill="white"/>
</g>
<path d="M142.676 83.5099C142.676 83.5099 148.516 96.4508 139.469 101.782C130.43 107.078 119.999 110.2 118.72 114.977C118.72 114.977 112.325 87.9451 138.832 80.2978L142.676 83.5099Z" fill="url(#paint5_linear_607_15962)"/>
<path d="M170.557 72.7242C170.557 72.7242 180.373 82.6241 179.004 87.1542C177.707 91.458 156.005 114.405 153.893 116.637C153.796 116.726 153.659 116.75 153.534 116.645C152.638 115.923 152.15 114.83 152.215 113.701C152.492 108.177 153.437 91.7443 155.321 86.8687C157.624 80.9495 170.557 72.7242 170.557 72.7242Z" fill="url(#paint6_linear_607_15962)"/>
<path d="M160.212 107.2C160.305 107.204 160.371 107.163 160.445 107.087C160.55 106.963 172.21 94.1918 177.011 88.4973C177.874 87.4849 178.051 86.0453 177.451 84.8695C176.329 82.5924 174.51 79.2289 172.155 76.2242C172.039 76.0837 171.839 76.0546 171.699 76.1709C171.558 76.2873 171.529 76.4867 171.645 76.6272C174.09 79.7283 175.972 83.2948 176.861 85.1404C177.325 86.0963 177.181 87.2435 176.476 88.0686C171.675 93.7631 160.037 106.52 159.897 106.637C159.77 106.775 159.798 106.97 159.923 107.075C160.07 107.166 160.141 107.183 160.212 107.2Z" fill="white"/>
<path d="M145.396 52.3477C145.396 52.3477 133.663 44.8017 129.53 47.092C125.594 49.261 107.663 75.2528 105.948 77.7862C105.865 77.8976 105.902 78.0565 106.013 78.1395C106.909 78.8613 108.066 79.1205 109.187 78.827C114.519 77.4061 130.403 73.0604 134.787 70.1925C140.047 66.7282 145.396 52.3477 145.396 52.3477Z" fill="#FAB1A5"/>
<path d="M114.161 69.911C114.254 69.9146 114.342 69.8607 114.417 69.7848C114.508 69.6379 124.564 55.5811 129.142 49.7205C129.798 48.865 130.9 48.492 131.929 48.7391C133.929 49.2382 137.811 50.3395 141.353 52.0721C141.522 52.1502 141.703 52.0998 141.781 51.931C141.859 51.7621 141.809 51.5812 141.64 51.5031C138.049 49.74 134.118 48.6082 132.096 48.1225C130.805 47.7938 129.469 48.2795 128.656 49.3224C124.091 55.205 114.036 69.2618 113.922 69.4221C113.831 69.569 113.859 69.7634 113.984 69.8684C114.033 69.8989 114.104 69.916 114.161 69.911Z" fill="white"/>
<path d="M199.89 36.2042C197.471 42.5271 193.927 49.2365 188.695 55.7093C172.536 75.8045 157.17 87.7601 152.718 91.0621C151.901 91.6537 150.844 91.7564 149.938 91.3135C142.783 87.9815 136.78 83.2187 131.957 76.9761C131.056 75.803 130.874 74.2207 131.498 72.8699C134.214 67.031 142.673 50.1705 158.243 31.0409C163.436 24.6525 169.214 19.8118 174.847 16.1183C187.046 21.4123 195.441 30.6705 199.89 36.2042Z" fill="#4690A4"/>
<path d="M174.861 16.1415C187.338 8.01332 199.244 5.6202 203.256 5.00792C204.034 4.89454 204.742 5.45875 204.812 6.26337C205.044 10.2964 205.182 22.3741 199.912 36.192C195.441 30.6717 187.046 21.4135 174.861 16.1415Z" fill="url(#paint7_linear_607_15962)"/>
<path d="M164.477 33.9099C160.282 39.1121 161.377 46.9732 166.954 51.4833C172.53 55.9935 180.45 55.438 184.658 50.2578C188.853 45.0556 187.758 37.1944 182.182 32.6843C176.605 28.1742 168.686 28.7296 164.477 33.9099Z" fill="#035970"/>
<path d="M166.466 35.0828C163.128 39.2152 164.004 45.4856 168.449 49.0859C172.894 52.6862 179.212 52.234 182.55 48.1016C185.887 43.9692 185.011 37.6989 180.566 34.0986C176.122 30.4983 169.803 30.9505 166.466 35.0828Z" fill="#8EDEF4"/>
<path d="M181.254 44.7495C181.382 44.7616 181.501 44.6587 181.549 44.5388C182.829 41.3944 181.772 37.5946 179.008 35.3548C178.299 34.7906 177.543 34.3463 176.704 34.0134C176.548 33.9573 176.359 34.0431 176.303 34.1985C176.247 34.3539 176.333 34.5433 176.488 34.5994C177.243 34.8933 177.972 35.2936 178.61 35.8408C181.173 37.901 182.134 41.3964 180.949 44.301C180.871 44.4698 180.957 44.6593 181.112 44.7154C181.161 44.7459 181.197 44.7544 181.254 44.7495Z" fill="white"/>
<path d="M152.612 55.5811C149.839 59.0047 150.577 64.21 154.25 67.1936C157.924 70.1771 163.172 69.8056 165.946 66.382C168.719 62.9583 167.981 57.753 164.307 54.7694C160.612 51.7993 155.386 52.1574 152.612 55.5811Z" fill="#035970"/>
<path d="M153.907 56.3616C151.711 59.0986 152.276 63.2303 155.214 65.6057C158.151 67.981 162.33 67.6902 164.526 64.9532C166.722 62.2163 166.157 58.0846 163.219 55.7092C160.303 53.3204 156.125 53.6112 153.907 56.3616Z" fill="#8EDEF4"/>
<path d="M163.697 62.8566C163.825 62.8687 163.944 62.7659 163.991 62.646C164.861 60.5097 164.143 57.9545 162.275 56.4365C161.802 56.0604 161.277 55.7466 160.727 55.5394C160.571 55.4833 160.382 55.5691 160.326 55.7245C160.27 55.8799 160.356 56.0693 160.511 56.1254C161.012 56.3022 161.453 56.5768 161.877 56.9225C163.544 58.261 164.166 60.5117 163.378 62.3861C163.3 62.555 163.386 62.7445 163.541 62.8005C163.604 62.8531 163.661 62.8481 163.697 62.8566Z" fill="white"/>
<g clip-path="url(#clip0_607_15962)">
<path d="M77.8351 72.2911H74.5588C74.5503 72.2912 74.5418 72.2896 74.5339 72.2865C74.526 72.2833 74.5189 72.2786 74.5128 72.2726C74.5067 72.2667 74.5019 72.2596 74.4986 72.2517C74.4953 72.2439 74.4937 72.2355 74.4937 72.227V67.0641C74.4939 67.047 74.5009 67.0307 74.5131 67.0187C74.5253 67.0067 74.5417 67 74.5588 67H75.3122C75.3292 67.0003 75.3454 67.0071 75.3573 67.019C75.3693 67.031 75.3762 67.0472 75.3764 67.0641V71.457H77.8351C77.8522 71.457 77.8686 71.4637 77.8808 71.4757C77.893 71.4877 77.9 71.504 77.9002 71.521V72.227C77.9002 72.2355 77.8986 72.2439 77.8953 72.2517C77.892 72.2596 77.8872 72.2667 77.8811 72.2726C77.875 72.2786 77.8679 72.2833 77.86 72.2865C77.8521 72.2896 77.8436 72.2912 77.8351 72.2911Z" fill="#F2385A"/>
<path d="M81.9962 70.7074C81.9962 71.8979 81.1367 72.3892 80.2618 72.3892C79.3868 72.3892 78.5283 71.8979 78.5283 70.7074V68.6188C78.5283 68.6018 78.5351 68.5855 78.5471 68.5735C78.5591 68.5614 78.5755 68.5547 78.5925 68.5547H79.2837C79.3007 68.5547 79.3171 68.5614 79.3291 68.5735C79.3411 68.5855 79.3479 68.6018 79.3479 68.6188V70.6336C79.3479 71.3551 79.7504 71.6202 80.2618 71.6202C80.7731 71.6202 81.1766 71.3551 81.1766 70.6336V68.6188C81.1766 68.6018 81.1834 68.5855 81.1954 68.5735C81.2074 68.5614 81.2237 68.5547 81.2408 68.5547H81.932C81.9489 68.5549 81.9651 68.5618 81.9771 68.5737C81.9891 68.5857 81.9959 68.6019 81.9962 68.6188V70.7074Z" fill="#F2385A"/>
<path d="M89.2795 69.9436V72.2275C89.2795 72.236 89.2778 72.2444 89.2745 72.2522C89.2713 72.2601 89.2664 72.2672 89.2604 72.2731C89.2543 72.2791 89.2471 72.2838 89.2392 72.287C89.2313 72.2901 89.2229 72.2917 89.2144 72.2915H88.5241C88.5156 72.2917 88.5072 72.2901 88.4993 72.287C88.4914 72.2838 88.4842 72.2791 88.4781 72.2731C88.4721 72.2672 88.4672 72.2601 88.464 72.2522C88.4607 72.2444 88.459 72.236 88.459 72.2275V70.2175C88.459 69.5892 88.1352 69.2387 87.584 69.2387C87.0571 69.2387 86.6118 69.5853 86.6118 70.2252V72.2275C86.6118 72.236 86.6101 72.2444 86.6068 72.2522C86.6035 72.2601 86.5987 72.2672 86.5927 72.2731C86.5866 72.2791 86.5794 72.2838 86.5715 72.287C86.5636 72.2901 86.5552 72.2917 86.5467 72.2915H85.8564C85.8479 72.2917 85.8394 72.2901 85.8315 72.287C85.8236 72.2838 85.8165 72.2791 85.8104 72.2731C85.8043 72.2672 85.7995 72.2601 85.7962 72.2522C85.7929 72.2444 85.7913 72.236 85.7913 72.2275V70.2175C85.7913 69.5892 85.4675 69.2387 84.9163 69.2387C84.3893 69.2387 83.9441 69.5853 83.9441 70.2252V72.2275C83.9441 72.236 83.9424 72.2444 83.9391 72.2522C83.9358 72.2601 83.931 72.2672 83.9249 72.2731C83.9189 72.2791 83.9117 72.2838 83.9038 72.287C83.8959 72.2901 83.8874 72.2917 83.8789 72.2915H83.1887C83.1802 72.2917 83.1717 72.2901 83.1638 72.287C83.1559 72.2838 83.1487 72.2791 83.1427 72.2731C83.1366 72.2672 83.1318 72.2601 83.1285 72.2522C83.1252 72.2444 83.1235 72.236 83.1235 72.2275V68.6192C83.1238 68.6021 83.1308 68.5858 83.143 68.5738C83.1551 68.5618 83.1716 68.5551 83.1887 68.5551H83.8692C83.8863 68.5551 83.9027 68.5618 83.9149 68.5738C83.9271 68.5858 83.9341 68.6021 83.9344 68.6192V69.0076C84.2348 68.5667 84.6995 68.4531 85.0825 68.4531C85.6532 68.4531 86.1179 68.7066 86.3756 69.1202C86.6993 68.5862 87.2778 68.4531 87.7425 68.4531C88.6505 68.457 89.2795 69.0697 89.2795 69.9436Z" fill="#F2385A"/>
<path d="M91.1949 72.2912H90.5036C90.4952 72.2913 90.4868 72.2897 90.4789 72.2865C90.4711 72.2834 90.4639 72.2787 90.458 72.2727C90.452 72.2667 90.4473 72.2596 90.4441 72.2517C90.4409 72.2439 90.4393 72.2355 90.4395 72.2271V68.6188C90.4395 68.6018 90.4462 68.5855 90.4583 68.5735C90.4703 68.5614 90.4866 68.5547 90.5036 68.5547H91.1949C91.2033 68.5547 91.2116 68.5563 91.2194 68.5596C91.2272 68.5628 91.2343 68.5675 91.2402 68.5735C91.2462 68.5794 91.2509 68.5865 91.2541 68.5942C91.2574 68.602 91.259 68.6104 91.259 68.6188V72.2271C91.2592 72.2355 91.2576 72.2439 91.2544 72.2517C91.2512 72.2596 91.2465 72.2667 91.2405 72.2727C91.2345 72.2787 91.2274 72.2834 91.2196 72.2865C91.2117 72.2897 91.2033 72.2913 91.1949 72.2912Z" fill="#F2385A"/>
<path d="M95.8877 69.9436V72.2275C95.8877 72.236 95.886 72.2444 95.8827 72.2522C95.8794 72.2601 95.8746 72.2672 95.8686 72.2731C95.8625 72.2791 95.8553 72.2838 95.8474 72.287C95.8395 72.2901 95.8311 72.2917 95.8226 72.2915H95.1323C95.1238 72.2917 95.1153 72.2901 95.1074 72.287C95.0995 72.2838 95.0924 72.2791 95.0863 72.2731C95.0802 72.2672 95.0754 72.2601 95.0721 72.2522C95.0689 72.2444 95.0672 72.236 95.0672 72.2275V70.2175C95.0672 69.5892 94.7434 69.2387 94.1922 69.2387C93.6652 69.2387 93.22 69.5853 93.22 70.2252V72.2275C93.22 72.236 93.2183 72.2444 93.215 72.2522C93.2117 72.2601 93.2069 72.2672 93.2008 72.2731C93.1948 72.2791 93.1876 72.2838 93.1797 72.287C93.1718 72.2901 93.1634 72.2917 93.1548 72.2915H92.4704C92.4619 72.2917 92.4535 72.2901 92.4456 72.287C92.4377 72.2838 92.4305 72.2791 92.4244 72.2731C92.4183 72.2672 92.4135 72.2601 92.4102 72.2522C92.407 72.2444 92.4053 72.236 92.4053 72.2275V68.6192C92.4055 68.6021 92.4125 68.5858 92.4247 68.5738C92.4369 68.5618 92.4533 68.5551 92.4704 68.5551H93.151C93.1681 68.5551 93.1845 68.5618 93.1967 68.5738C93.2089 68.5858 93.2158 68.6021 93.2161 68.6192V69.0076C93.5165 68.5667 93.9812 68.4531 94.3643 68.4531C95.2587 68.457 95.8877 69.0697 95.8877 69.9436Z" fill="#F2385A"/>
<path d="M90.8759 67.0719L90.4958 67.7186C90.4902 67.7284 90.4872 67.7396 90.4873 67.7509C90.4874 67.7623 90.4904 67.7734 90.4961 67.7832C90.5018 67.7931 90.51 67.8012 90.5198 67.8069C90.5296 67.8126 90.5408 67.8156 90.5521 67.8157H91.1753C91.2008 67.8158 91.2259 67.8092 91.2481 67.7966C91.2703 67.784 91.2888 67.7658 91.3017 67.7438L91.6741 67.1097C91.6806 67.0986 91.6841 67.086 91.6841 67.0732C91.6842 67.0603 91.6808 67.0477 91.6744 67.0365C91.668 67.0254 91.6587 67.0161 91.6476 67.0097C91.6364 67.0033 91.6237 66.9999 91.6109 67H91.0013C90.9759 67 90.951 67.0066 90.929 67.0192C90.907 67.0318 90.8887 67.05 90.8759 67.0719Z" fill="#F2385A"/>
<path d="M66.7857 70.0556L70.3216 64.0022C70.3387 63.9727 70.3477 63.9393 70.3477 63.9052C70.3477 63.8711 70.3387 63.8376 70.3217 63.8081C70.3046 63.7786 70.2801 63.7541 70.2506 63.737C70.2211 63.72 70.1876 63.711 70.1534 63.7109H67.8736C67.817 63.711 67.7614 63.7257 67.7123 63.7538C67.6632 63.782 67.6223 63.8224 67.5936 63.8712L63.9323 70.142C63.9038 70.191 63.8888 70.2467 63.8887 70.3034C63.8886 70.3602 63.9034 70.4159 63.9316 70.4651C63.9599 70.5143 64.0006 70.5552 64.0497 70.5837C64.0988 70.6122 64.1546 70.6273 64.2113 70.6275H65.8038L65.1165 71.8053C65.0879 71.8545 65.0729 71.9102 65.0728 71.967C65.0727 72.0238 65.0876 72.0797 65.116 72.1289C65.1444 72.1781 65.1853 72.219 65.2345 72.2474C65.2837 72.2758 65.3396 72.2908 65.3965 72.2908H71.1324C71.2005 72.2906 71.2673 72.2725 71.3261 72.2385C71.385 72.2044 71.4338 72.1555 71.4679 72.0966L72.4906 70.3488C72.5076 70.3194 72.5166 70.286 72.5167 70.252C72.5167 70.218 72.5078 70.1846 72.4909 70.1551C72.474 70.1256 72.4496 70.1011 72.4202 70.084C72.3908 70.0668 72.3574 70.0577 72.3234 70.0575L66.7857 70.0556ZM68.0185 64.2838H69.4933L66.1237 70.0556H64.6469L68.0185 64.2838ZM71.0323 71.7189H65.832L66.4688 70.6285H71.6652L71.0323 71.7189Z" fill="#F2385A"/>
</g>
<defs>
<linearGradient id="paint0_linear_607_15962" x1="210.917" y1="-4.65069" x2="46.1443" y2="135.019" gradientUnits="userSpaceOnUse">
<stop stop-color="#EFB3A8"/>
<stop offset="1" stop-color="#FCF0EE"/>
</linearGradient>
<linearGradient id="paint1_linear_607_15962" x1="210.917" y1="-4.65069" x2="99.326" y2="57.4743" gradientUnits="userSpaceOnUse">
<stop stop-color="#EFB3A8"/>
<stop offset="1" stop-color="#FCF0EE"/>
</linearGradient>
<linearGradient id="paint2_linear_607_15962" x1="167.372" y1="38.3781" x2="58.8512" y2="162.277" gradientUnits="userSpaceOnUse">
<stop stop-color="#EFB3A8"/>
<stop offset="1" stop-color="#FCF0EE"/>
</linearGradient>
<linearGradient id="paint3_linear_607_15962" x1="167.372" y1="38.3781" x2="58.8512" y2="162.277" gradientUnits="userSpaceOnUse">
<stop stop-color="#EFB3A8"/>
<stop offset="1" stop-color="#FCF0EE"/>
</linearGradient>
<linearGradient id="paint4_linear_607_15962" x1="102.628" y1="130.712" x2="82.3226" y2="168.811" gradientUnits="userSpaceOnUse">
<stop stop-color="#EFB3A8"/>
<stop offset="1" stop-color="#FCF0EE"/>
</linearGradient>
<linearGradient id="paint5_linear_607_15962" x1="123.189" y1="118.291" x2="125.482" y2="90.4303" gradientUnits="userSpaceOnUse">
<stop stop-color="#FEB3B1"/>
<stop offset="1" stop-color="#FF928E"/>
</linearGradient>
<linearGradient id="paint6_linear_607_15962" x1="159.137" y1="121.98" x2="166.919" y2="87.8601" gradientUnits="userSpaceOnUse">
<stop stop-color="#FEB3B1"/>
<stop offset="1" stop-color="#FF928E"/>
</linearGradient>
<linearGradient id="paint7_linear_607_15962" x1="196.115" y1="47.5031" x2="207.312" y2="18.1855" gradientUnits="userSpaceOnUse">
<stop stop-color="#FEB3B1"/>
<stop offset="1" stop-color="#FF928E"/>
</linearGradient>
<clipPath id="clip0_607_15962">
<rect width="32" height="8.67797" fill="white" transform="translate(63.8877 63.7109)"/>
</clipPath>
</defs>
</svg>
