<svg xmlns="http://www.w3.org/2000/svg" xmlns:xlink="http://www.w3.org/1999/xlink" width="176" height="110" viewBox="0 0 176 110">
    <defs>
        <linearGradient id="prefix__a" x1="50%" x2="-33.812%" y1="34.52%" y2="174.839%">
            <stop offset="0%" stop-color="#F7FAFF"/>
            <stop offset="100%" stop-color="#6B9AD9"/>
        </linearGradient>
        <linearGradient id="prefix__b" x1="157.42%" x2="118.836%" y1="-.281%" y2="86.964%">
            <stop offset="0%" stop-color="#E5EDFF"/>
            <stop offset="100%" stop-color="#6B9AD9"/>
        </linearGradient>
        <linearGradient id="prefix__c" x1="97.904%" x2="80.698%" y1="-39.692%" y2="115.938%">
            <stop offset="0%" stop-color="#E5EDFF"/>
            <stop offset="100%" stop-color="#6B9AD9"/>
        </linearGradient>
        <linearGradient id="prefix__d" x1="71.291%" x2="63.643%" y1="-39.692%" y2="115.938%">
            <stop offset="0%" stop-color="#E5EDFF"/>
            <stop offset="100%" stop-color="#6B9AD9"/>
        </linearGradient>
        <linearGradient id="prefix__e" x1="157.42%" x2="118.836%" y1="-39.388%" y2="115.714%">
            <stop offset="0%" stop-color="#E5EDFF"/>
            <stop offset="100%" stop-color="#6B9AD9"/>
        </linearGradient>
        <linearGradient id="prefix__f" x1="157.42%" x2="118.836%" y1="40.509%" y2="56.977%">
            <stop offset="0%" stop-color="#E5EDFF"/>
            <stop offset="100%" stop-color="#6B9AD9"/>
        </linearGradient>
        <linearGradient id="prefix__g" x1="155.442%" x2="117.568%" y1="-39.692%" y2="115.938%">
            <stop offset="0%" stop-color="#E5EDFF"/>
            <stop offset="100%" stop-color="#6B9AD9"/>
        </linearGradient>
        <linearGradient id="prefix__h" x1="83.28%" x2="111.029%" y1="49.575%" y2="59.911%">
            <stop offset="0%" stop-color="#476DB1"/>
            <stop offset="100%" stop-color="#283F6F"/>
        </linearGradient>
        <linearGradient id="prefix__i" x1="83.28%" x2="59.889%" y1="49.936%" y2="50.078%">
            <stop offset="0%" stop-color="#476DB1"/>
            <stop offset="100%" stop-color="#283F6F"/>
        </linearGradient>
        <linearGradient id="prefix__j" x1="50%" x2="50%" y1="-142.327%" y2="170.165%">
            <stop offset="0%" stop-color="#95B7E5"/>
            <stop offset="100%" stop-color="#476DB1"/>
        </linearGradient>
        <linearGradient id="prefix__l" x1="50%" x2="57.564%" y1="32.119%" y2="115.978%">
            <stop offset="0%" stop-color="#84F0A8"/>
            <stop offset="100%" stop-color="#48B676"/>
        </linearGradient>
        <linearGradient id="prefix__n" x1="157.42%" x2="118.836%" y1="13.387%" y2="76.917%">
            <stop offset="0%" stop-color="#E5EDFF"/>
            <stop offset="100%" stop-color="#6B9AD9"/>
        </linearGradient>
        <linearGradient id="prefix__o" x1="149.379%" x2="157.42%" y1="44.767%" y2="56.501%">
            <stop offset="0%" stop-color="#E5EDFF"/>
            <stop offset="100%" stop-color="#6B9AD9"/>
        </linearGradient>
        <linearGradient id="prefix__p" x1="83.28%" x2="59.889%" y1="36.906%" y2="65.989%">
            <stop offset="0%" stop-color="#476DB1"/>
            <stop offset="100%" stop-color="#283F6F"/>
        </linearGradient>
        <linearGradient id="prefix__q" x1="50%" x2="-33.859%" y1="21.547%" y2="193.326%">
            <stop offset="0%" stop-color="#EEF3FF"/>
            <stop offset="100%" stop-color="#6B9AD9"/>
        </linearGradient>
        <linearGradient id="prefix__r" x1="157.42%" x2="118.836%" y1="1.459%" y2="85.685%">
            <stop offset="0%" stop-color="#E5EDFF"/>
            <stop offset="100%" stop-color="#6B9AD9"/>
        </linearGradient>
        <linearGradient id="prefix__s" x1="50%" x2="50%" y1="-142.327%" y2="170.165%">
            <stop offset="0%" stop-color="#95B7E5"/>
            <stop offset="100%" stop-color="#476DB1"/>
        </linearGradient>
        <linearGradient id="prefix__t" x1="50%" x2="50%" y1="-142.327%" y2="170.165%">
            <stop offset="0%" stop-color="#95B7E5"/>
            <stop offset="100%" stop-color="#476DB1"/>
        </linearGradient>
        <linearGradient id="prefix__u" x1="50%" x2="55.228%" y1="30.767%" y2="96.4%">
            <stop offset="0%" stop-color="#1542AB"/>
            <stop offset="100%" stop-color="#2B68EE"/>
        </linearGradient>
        <linearGradient id="prefix__v" x1="100%" x2="0%" y1="50%" y2="50%">
            <stop offset="0%" stop-color="#2865C6"/>
            <stop offset="100%" stop-color="#10378A"/>
        </linearGradient>
        <linearGradient id="prefix__w" x1="60.731%" x2="52.081%" y1="27.747%" y2="50%">
            <stop offset="0%" stop-color="#3485F7"/>
            <stop offset="100%" stop-color="#1A57CF"/>
        </linearGradient>
        <linearGradient id="prefix__x" x1="100%" x2="0%" y1="50%" y2="50%">
            <stop offset="0%" stop-color="#2865C6"/>
            <stop offset="100%" stop-color="#10378A"/>
        </linearGradient>
        <linearGradient id="prefix__z" x1="53.004%" x2="50%" y1="0%" y2="100%">
            <stop offset="0%" stop-color="#FFF"/>
            <stop offset="100%" stop-color="#E5EEFF"/>
        </linearGradient>
        <linearGradient id="prefix__B" x1="85.097%" x2="4.854%" y1="88.526%" y2="-13.128%">
            <stop offset="0%" stop-color="#032258"/>
            <stop offset="100%" stop-color="#133E94"/>
        </linearGradient>
        <linearGradient id="prefix__C" x1="85.097%" x2="4.854%" y1="93.368%" y2="-21.063%">
            <stop offset="0%" stop-color="#032258"/>
            <stop offset="100%" stop-color="#133E94"/>
        </linearGradient>
        <linearGradient id="prefix__D" x1="60.731%" x2="50%" y1="6.481%" y2="93.519%">
            <stop offset="0%" stop-color="#FFF"/>
            <stop offset="100%" stop-color="#E5EEFF"/>
        </linearGradient>
        <linearGradient id="prefix__E" x1="85.097%" x2="4.854%" y1="107.019%" y2="-43.431%">
            <stop offset="0%" stop-color="#032258"/>
            <stop offset="100%" stop-color="#133E94"/>
        </linearGradient>
        <linearGradient id="prefix__F" x1="69.466%" x2="69.466%" y1="75.602%" y2="14.038%">
            <stop offset="0%" stop-color="#F4AF92"/>
            <stop offset="100%" stop-color="#EC906C"/>
        </linearGradient>
        <linearGradient id="prefix__G" x1="50%" x2="64.419%" y1="32.119%" y2="115.978%">
            <stop offset="0%" stop-color="#84F0A8"/>
            <stop offset="100%" stop-color="#48B676"/>
        </linearGradient>
        <linearGradient id="prefix__H" x1="85.097%" x2="4.854%" y1="78.757%" y2="2.879%">
            <stop offset="0%" stop-color="#032258"/>
            <stop offset="100%" stop-color="#133E94"/>
        </linearGradient>
        <linearGradient id="prefix__I" x1="-8.771%" x2="17.311%" y1="92.352%" y2="25.465%">
            <stop offset="0%" stop-color="#FAD0BA"/>
            <stop offset="100%" stop-color="#F2A384"/>
        </linearGradient>
        <linearGradient id="prefix__J" x1="100%" x2="0%" y1="50%" y2="50%">
            <stop offset="0%" stop-color="#2865C6"/>
            <stop offset="100%" stop-color="#10378A"/>
        </linearGradient>
        <linearGradient id="prefix__K" x1="52.701%" x2="50.524%" y1="0%" y2="50%">
            <stop offset="0%" stop-color="#3485F7"/>
            <stop offset="100%" stop-color="#1A57CF"/>
        </linearGradient>
        <linearGradient id="prefix__L" x1="50%" x2="51.396%" y1="27.773%" y2="103.623%">
            <stop offset="0%" stop-color="#1542AB"/>
            <stop offset="100%" stop-color="#2B68EE"/>
        </linearGradient>
        <linearGradient id="prefix__M" x1="54.622%" x2="50%" y1="0%" y2="100%">
            <stop offset="0%" stop-color="#FFF"/>
            <stop offset="100%" stop-color="#E5EEFF"/>
        </linearGradient>
        <linearGradient id="prefix__O" x1="50%" x2="50%" y1="-10.877%" y2="100%">
            <stop offset="0%" stop-color="#FFE579"/>
            <stop offset="100%" stop-color="#FEB755"/>
        </linearGradient>
        <linearGradient id="prefix__Q" x1="50%" x2="50%" y1="-10.877%" y2="100%">
            <stop offset="0%" stop-color="#FFE579"/>
            <stop offset="100%" stop-color="#FEB755"/>
        </linearGradient>
        <linearGradient id="prefix__S" x1="50%" x2="50%" y1="-10.877%" y2="100%">
            <stop offset="0%" stop-color="#FFE579"/>
            <stop offset="100%" stop-color="#FEB755"/>
        </linearGradient>
        <linearGradient id="prefix__U" x1="72.145%" x2="21.514%" y1="109.304%" y2="-47.176%">
            <stop offset="0%" stop-color="#032258"/>
            <stop offset="100%" stop-color="#133E94"/>
        </linearGradient>
        <linearGradient id="prefix__V" x1="100%" x2="0%" y1="50%" y2="50%">
            <stop offset="0%" stop-color="#2865C6"/>
            <stop offset="100%" stop-color="#10378A"/>
        </linearGradient>
        <linearGradient id="prefix__W" x1="100%" x2="0%" y1="50%" y2="50%">
            <stop offset="0%" stop-color="#2865C6"/>
            <stop offset="100%" stop-color="#10378A"/>
        </linearGradient>
        <linearGradient id="prefix__X" x1="43.256%" x2="65.847%" y1="16.652%" y2="115.978%">
            <stop offset="0%" stop-color="#84F0A8"/>
            <stop offset="100%" stop-color="#48B676"/>
        </linearGradient>
        <linearGradient id="prefix__Y" x1="45.474%" x2="61.065%" y1="-18.87%" y2="90.195%">
            <stop offset="0%" stop-color="#84F0A8"/>
            <stop offset="100%" stop-color="#48B676"/>
        </linearGradient>
        <linearGradient id="prefix__Z" x1="83.28%" x2="59.889%" y1="11.387%" y2="97.15%">
            <stop offset="0%" stop-color="#476DB1"/>
            <stop offset="100%" stop-color="#283F6F"/>
        </linearGradient>
        <linearGradient id="prefix__aa" x1="50%" x2="50%" y1="-142.327%" y2="170.165%">
            <stop offset="0%" stop-color="#95B7E5"/>
            <stop offset="100%" stop-color="#476DB1"/>
        </linearGradient>
        <linearGradient id="prefix__ab" x1="75.208%" x2="57.49%" y1="11.256%" y2="97.31%">
            <stop offset="0%" stop-color="#476DB1"/>
            <stop offset="100%" stop-color="#283F6F"/>
        </linearGradient>
        <linearGradient id="prefix__ac" x1="50%" x2="50%" y1="-142.327%" y2="170.165%">
            <stop offset="0%" stop-color="#95B7E5"/>
            <stop offset="100%" stop-color="#476DB1"/>
        </linearGradient>
        <linearGradient id="prefix__ad" x1="50%" x2="50%" y1="-104.29%" y2="100%">
            <stop offset="0%" stop-color="#FFF"/>
            <stop offset="100%" stop-color="#B3CDEF"/>
        </linearGradient>
        <linearGradient id="prefix__ae" x1="50%" x2="53.828%" y1="32.119%" y2="115.978%">
            <stop offset="0%" stop-color="#84F0A8"/>
            <stop offset="100%" stop-color="#48B676"/>
        </linearGradient>
        <linearGradient id="prefix__af" x1="53.246%" x2="50%" y1="0%" y2="100%">
            <stop offset="0%" stop-color="#FFF"/>
            <stop offset="100%" stop-color="#E5EEFF"/>
        </linearGradient>
        <linearGradient id="prefix__ag" x1="157.42%" x2="118.836%" y1="14.858%" y2="75.835%">
            <stop offset="0%" stop-color="#E5EDFF"/>
            <stop offset="100%" stop-color="#6B9AD9"/>
        </linearGradient>
        <linearGradient id="prefix__ah" x1="149.379%" x2="157.42%" y1="44.978%" y2="56.239%">
            <stop offset="0%" stop-color="#E5EDFF"/>
            <stop offset="100%" stop-color="#6B9AD9"/>
        </linearGradient>
        <path id="prefix__k" d="M2.748 3.429h.412V1.92c0-.454.369-.823.824-.823.455 0 .824.369.824.823v2.331c0 .455-.369.823-.824.823-.047 0-.093-.004-.137-.011-.045.007-.091.011-.138.011h-.961V7.27H0V1.37C0 .614.615 0 1.374 0c.758 0 1.374.614 1.374 1.371V3.43z"/>
        <path id="prefix__y" d="M3.869.475C6.556-1.083 9.63 2.753 10.352 4.31c.722 1.557 2.769 1.574 1.916 8.625-.568 4.7-.355 7.242.64 7.624 1.788-.254 2.254.82 1.396 3.224-1.286 3.604-2.978 3.561-6.215 3.962-3.236.4-5.589-.684-6.915-2.237-1.326-1.554 1.665-4.692 0-7.657C.531 16.704.056 9.676.056 7.38c0-2.296 1.126-5.347 3.813-6.905z"/>
        <path id="prefix__N" d="M2.062 5.583C-.095 13.773-.466 20.261.95 25.045 3.072 32.22-.39 40.56.423 44.52c4.046.421 7.58 2.466 10.599 6.135 1.276-1.633 1.848-5.22 1.716-10.758-.199-8.309-2.191-8.771-2.499-12.553-.205-2.522-.205-5.66 0-9.415L7.41 3.735c-1.35-1.113-2.401-1.897-3.152-2.351C3.506.929 2.536.489 1.347.064l.715 5.519z"/>
        <path id="prefix__R" d="M23.653 5.209c-1.031 2.71-1.73 4.633-2.099 5.768-.552 1.705-.767 3.111-.643 4.219.37 3.32 1.402 4.408.509 12.351-.35 3.106-2.312 7.477-2.69 10.94-.59 5.394.86 7.26.497 8.152-.497 1.221-5.803.1-8.458 2.87-.855-1.649 2.393-7.46 2.393-8.348 0-.887.111-7.554 2.84-12.444 1.818-3.26 2.513-8.029 2.085-14.306-4.572-.878-7.915-2.022-10.031-3.434C5.94 9.567 3.255 6.521 0 1.843.486.614 1.042 0 1.67 0c.943 0 7.327 5.785 12.262 6.487 2.07.294 3.731-.927 5.295-1.278 2.488-.56 4.3-.539 4.602-.642.328-.111.49-.028.487.251l-.663.39z"/>
    </defs>
    <g fill="none" fill-rule="evenodd" opacity=".9">
        <g fill-rule="nonzero">
            <path fill="url(#prefix__a)" d="M2.748 0h97.948c1.518 0 2.748 1.228 2.748 2.743V73.37c0 .303-.246.549-.55.549H.55c-.304 0-.55-.246-.55-.549V2.743C0 1.228 1.23 0 2.748 0z" transform="translate(.3)"/>
            <g>
                <path stroke="#8AAFE1" stroke-linecap="round" stroke-linejoin="round" stroke-width="1.536" d="M.55 6.857h4.396c.303 0 .549.246.549.549v7.131c0 .303-.246.549-.55.549H.55c-.304 0-.55-.246-.55-.549V7.406c0-.303.246-.549.55-.549z" transform="translate(.3) translate(54.263 18.789)"/>
                <path stroke="#8AAFE1" stroke-dasharray="3.84 3.84" stroke-linecap="round" stroke-linejoin="round" stroke-width=".768" d="M14.287 4.114h4.396c.304 0 .55.246.55.549v9.874c0 .303-.246.549-.55.549h-4.396c-.303 0-.55-.246-.55-.549V4.663c0-.303.247-.549.55-.549z" transform="translate(.3) translate(54.263 18.789)"/>
                <path fill="url(#prefix__b)" d="M21.156 10.971h4.396c.303 0 .55.246.55.549v3.017c0 .303-.247.549-.55.549h-4.396c-.304 0-.55-.246-.55-.549V11.52c0-.303.246-.549.55-.549z" transform="translate(.3) translate(54.263 18.789)"/>
                <path fill="url(#prefix__c)" d="M28.162 6.857h4.396c.304 0 .55.246.55.549v7.131c0 .303-.246.549-.55.549h-4.396c-.303 0-.55-.246-.55-.549V7.406c0-.303.247-.549.55-.549z" transform="translate(.3) translate(54.263 18.789)"/>
                <path fill="url(#prefix__d)" d="M35.03 2.743h4.397c.303 0 .55.245.55.548v11.246c0 .303-.247.549-.55.549H35.03c-.304 0-.55-.246-.55-.549V3.291c0-.303.246-.548.55-.548z" transform="translate(.3) translate(54.263 18.789)"/>
                <path stroke="#8AAFE1" stroke-dasharray="3.84 3.84" stroke-linecap="round" stroke-linejoin="round" stroke-width=".768" d="M7.418 0h4.396c.304 0 .55.246.55.549v13.988c0 .303-.246.549-.55.549H7.418c-.303 0-.55-.246-.55-.549V.55c0-.303.247-.549.55-.549z" transform="translate(.3) translate(54.263 18.789)"/>
            </g>
            <g>
                <path fill="url(#prefix__e)" d="M29.536 0h6.869c.303 0 .55.246.55.549v6.857c0 .303-.247.548-.55.548h-6.87c-.303 0-.549-.245-.549-.548V.549c0-.303.246-.549.55-.549z" transform="translate(.3) translate(6.869 20.16)"/>
                <path stroke="#8AAFE1" stroke-dasharray="3.84 3.84" stroke-linecap="round" stroke-linejoin="round" stroke-width=".768" d="M.687 0h19.232c.304 0 .55.246.55.549v6.857c0 .303-.246.548-.55.548H.687c-.304 0-.55-.245-.55-.548V.549C.137.246.383 0 .687 0z" transform="translate(.3) translate(6.869 20.16)"/>
                <path fill="url(#prefix__f)" d="M.687 10.971H24.04c.303 0 .55.246.55.549v6.857c0 .303-.247.549-.55.549H.687c-.304 0-.55-.246-.55-.549V11.52c0-.303.246-.549.55-.549z" transform="translate(.3) translate(6.869 20.16)"/>
                <path stroke="#8AAFE1" stroke-linecap="round" stroke-linejoin="round" stroke-width="1.536" d="M29.536 12.069h6.869c.303 0 .55.245.55.548v6.857c0 .303-.247.549-.55.549h-6.87c-.303 0-.549-.246-.549-.549v-6.857c0-.303.246-.548.55-.548z" transform="translate(.3) translate(6.869 20.16)"/>
                <path fill="#E0E5FF" d="M29.536 24.137h6.869c.303 0 .55.246.55.549v6.857c0 .303-.247.548-.55.548h-6.87c-.303 0-.549-.245-.549-.548v-6.857c0-.303.246-.549.55-.549z" transform="translate(.3) translate(6.869 20.16)"/>
                <path stroke="#8AAFE1" stroke-dasharray="3.84 3.84" stroke-linecap="round" stroke-linejoin="round" stroke-width=".768" d="M29.536 36.206h6.869c.303 0 .55.245.55.548v6.857c0 .303-.247.549-.55.549h-6.87c-.303 0-.549-.246-.549-.549v-6.857c0-.303.246-.548.55-.548z" transform="translate(.3) translate(6.869 20.16)"/>
                <path fill="url(#prefix__g)" d="M.55 22.08h23.766c.303 0 .549.246.549.549v24c0 .303-.246.548-.55.548H.55c-.304 0-.55-.245-.55-.548v-24c0-.303.246-.549.55-.549z" transform="translate(.3) translate(6.869 20.16)"/>
            </g>
            <path fill="url(#prefix__h)" d="M2.748 0h97.948c1.518 0 2.748 1.228 2.748 2.743v7.543c0 .303-.246.548-.55.548H.55c-.304 0-.55-.245-.55-.548V2.743C0 1.228 1.23 0 2.748 0z" transform="translate(.3)"/>
            <g fill="#FFF" transform="translate(.3) translate(3.434 3.703)">
                <ellipse cx="1.717" cy="1.714" rx="1.717" ry="1.714"/>
                <ellipse cx="7.075" cy="1.714" rx="1.717" ry="1.714"/>
                <ellipse cx="12.433" cy="1.714" rx="1.717" ry="1.714"/>
            </g>
            <g stroke="#8AAFE1" stroke-linecap="round" stroke-linejoin="round" stroke-width="1.536">
                <path d="M0 .137L37.033.137M0 4.526L37.033 4.526M0 8.914L37.033 8.914M0 13.303L37.033 13.303M0 17.691L37.033 17.691M0 22.08L37.033 22.08" transform="translate(.3) translate(56.736 41.691)"/>
            </g>
        </g>
        <g fill-rule="nonzero">
            <path fill="url(#prefix__i)" d="M0 0L67.452 0 67.452 2.743 0 2.743z" transform="translate(39.863 66.926)"/>
            <path fill="url(#prefix__j)" d="M3.16 33.455L6.395 3.017H3.16v30.438zM7.006 2.469l-3.528 33.19c-.025.233-.221.41-.456.41-.227 0-.412-.185-.412-.412V2.47h4.396zM62.78 33.455V3.017h-3.235l3.236 30.438zM58.935 2.469h4.396v33.188c0 .227-.184.412-.412.412-.234 0-.43-.177-.456-.41L58.934 2.47z" transform="translate(39.863 66.926)"/>
        </g>
        <g>
            <g transform="translate(93.99 56.229) translate(2.06)">
                <mask id="prefix__m" fill="#fff">
                    <use xlink:href="#prefix__k"/>
                </mask>
                <use fill="url(#prefix__l)" fill-rule="nonzero" xlink:href="#prefix__k"/>
                <path fill="#42B16D" fill-rule="nonzero" d="M.137-.411v8.61H0v-8.61h.137zm.413 0v8.61H.412v-8.61H.55zm.412 0v8.61H.824v-8.61h.138zm.412 0v8.61h-.138v-8.61h.138zm.412 0v8.61h-.137v-8.61h.137zm.412 0v8.61h-.137v-8.61h.137zm.412 0v8.61h-.137v-8.61h.137zm.412 0v8.61h-.137v-8.61h.137zm.412 0v8.61h-.137v-8.61h.137zm.413 0v8.61h-.138v-8.61h.138zm.412 0v8.61H4.12v-8.61h.138zm.412 0v8.61h-.138v-8.61h.138z" mask="url(#prefix__m)"/>
            </g>
            <g fill-rule="nonzero">
                <path fill="url(#prefix__n)" d="M0.137 0.137L7.006 0.137 5.48 4.526 1.664 4.526z" transform="translate(93.99 56.229) translate(0 6.171)"/>
                <path fill="url(#prefix__o)" d="M0 0H7.006V1.371H0z" transform="translate(93.99 56.229) translate(0 6.171)"/>
            </g>
        </g>
        <g fill-rule="nonzero">
            <path fill="url(#prefix__p)" d="M.55 0h33.107c.304 0 .55.246.55.549v18.788c0 .303-.246.549-.55.549H.55c-.304 0-.55-.246-.55-.549V.55C0 .246.246 0 .55 0z" transform="translate(57.173 43.474)"/>
            <path fill="#B7C8FF" d="M13.463 19.749L21.018 19.749 21.018 24.274 13.463 24.274z" transform="translate(57.173 43.474)"/>
            <path fill="#FFF" d="M1.374 1.371L32.833 1.371 32.833 18.514 1.374 18.514z" transform="translate(57.173 43.474)"/>
        </g>
        <g>
            <g fill-rule="nonzero">
                <path fill="url(#prefix__q)" d="M9.2.12l7.026 2.927c.28.117.412.438.295.718-.015.036-.034.07-.057.103L8.04 15.877c-.148.211-.423.29-.661.191L.352 13.14c-.28-.116-.413-.438-.296-.717.016-.037.035-.071.057-.104L8.538.311C8.686.1 8.962.02 9.2.119z" transform="translate(11.976 48.411) translate(17.31 19.2)"/>
                <path fill="url(#prefix__r)" d="M13.1.299c.333.128.456.442.314.741l.322.134c.28.117.412.438.296.718-.028.066-.068.126-.119.176l-.71.71c-.159.16-.399.206-.606.117l-1.857-.797c-.278-.12-.407-.443-.287-.72.022-.054.053-.103.091-.146l.633-.72c.156-.177.407-.235.625-.144l.296.124c.27-.23.683-.317 1.003-.193zm-.664.38c-.104.14-.06.301.1.363.158.061.37-.002.474-.14.104-.139.06-.3-.099-.362-.158-.061-.371.001-.475.14z" transform="translate(11.976 48.411) translate(17.31 19.2)"/>
            </g>
            <g fill-rule="nonzero">
                <path fill="url(#prefix__s)" d="M.39.522c.214 0 .389.174.389.388v3.588H0V.91C0 .696.174.522.39.522z" transform="translate(11.976 48.411) scale(-1 1) rotate(83 -26.293 -2.913)"/>
                <path fill="url(#prefix__t)" d="M.952.717c.047 0 .086.039.086.086V2c0 .048-.039.086-.086.086-.048 0-.087-.038-.087-.086V.803c0-.047.039-.086.087-.086z" transform="translate(11.976 48.411) scale(-1 1) rotate(83 -26.293 -2.913)"/>
                <path fill="#F2F5FF" d="M.39 0c.119 0 .216.097.216.216V.5c0 .12-.097.216-.217.216S.173.62.173.501V.216C.173.096.27 0 .389 0zM0 4.433L.779 4.433.433 5.15z" transform="translate(11.976 48.411) scale(-1 1) rotate(83 -26.293 -2.913)"/>
            </g>
            <g>
                <path fill="#F2A384" fill-rule="nonzero" d="M29.183 16.49c.018-.195 1.167-1.31 2.403-.011 1.235 1.299 1.564 1.765 2.135 2.251.381.325.781.543 1.2.655l-2.357.149-3.395-.39c-.003-1.638.001-2.523.014-2.653z" transform="translate(11.976 48.411) translate(0 36.891)"/>
                <path fill="url(#prefix__u)" fill-rule="nonzero" d="M16.553 14.74l-2.82-8.021C20.824.875 25.904-1.126 28.976.717c4.607 2.764 3.66 15.809 3.708 16.185.049.377-2.695 1.415-3.215.376-.519-1.04-3.442-7.305-3.74-9.6-1.244 1.646-4.303 4-9.175 7.062z" transform="translate(11.976 48.411) translate(0 36.891)"/>
                <path fill="#F2A384" fill-rule="nonzero" d="M8.963 20.367L5.223 19.52 4.217 19.85 5.739 17.851 8.4 17.304z" transform="translate(11.976 48.411) translate(0 36.891)"/>
                <path fill="url(#prefix__v)" fill-rule="nonzero" d="M29.17 17.669c.487-.243 1.1 1.078 1.994 1.078.894 0 1.45-1.2 1.68-1.078.667.353 1.637.525 2.704.941 2.626 1.023 2.88 1.17 2.498 2.69 0 .339-2.982.508-8.946.508-.242-.707-.372-1.367-.39-1.98-.029-.92-.029-1.917.46-2.16z" transform="translate(11.976 48.411) translate(0 36.891)"/>
                <path fill="url(#prefix__w)" fill-rule="nonzero" d="M31.859 16.303c-2.163 6.64-22.81 5.388-24.192 4.737-.788-.372.032-3.573.467-3.73 1.01-.363 15.09-1.611 12.386-1.007-2.703.604-14.797-1.082-14.413-7.336.254-4.128.722-5.24 3.451-4.568 1.405.346 4.803 1.837 6.165 2.225 8.87 2.527 18.103 3.638 16.136 9.679z" transform="translate(11.976 48.411) translate(0 36.891)"/>
                <path fill="url(#prefix__x)" fill-rule="nonzero" d="M7.43 17.501c-.1.466-1.209.089-1.706.68-.497.592.04 1.67-.172 1.749-.622.233-1.282.772-2.17 1.232-2.181 1.132-2.427 1.214-3.288.062-.238-.2 1.3-2.273 4.617-6.219.633.259 1.171.563 1.615.913.665.526 1.205 1.117 1.104 1.583z" transform="translate(11.976 48.411) translate(0 36.891)"/>
                <path stroke="#5F90CC" stroke-dasharray="1.92 3.84" stroke-linecap="round" stroke-linejoin="round" stroke-width=".5" d="M12.014 19.28c10.047-.775 14.15-1.934 12.314-3.477-1.838-1.543-4.27-2.953-7.299-4.23" transform="translate(11.976 48.411) translate(0 36.891)"/>
            </g>
            <g transform="translate(11.976 48.411) translate(5.495 17.691)">
                <mask id="prefix__A" fill="#fff">
                    <use xlink:href="#prefix__y"/>
                </mask>
                <use fill="url(#prefix__z)" fill-rule="nonzero" xlink:href="#prefix__y"/>
                <path fill="#ABC0FF" fill-rule="nonzero" d="M4.763 1.418c1.107-.253 4.88-.053 5.232 3.338.235 2.26.77 4.517 1.601 6.771.818 2.022 3.452 3.238 7.902 3.649.868-.052 1.39.363 1.565 1.243.176.88.063 1.724-.338 2.53-7.418 1.474-12.236 1.474-14.456 0C2.939 16.737.95 10.23 1.464 6.482c.514-3.748 2.192-4.812 3.299-5.064z" mask="url(#prefix__A)" opacity=".5"/>
            </g>
            <g fill-rule="nonzero">
                <path fill="url(#prefix__B)" d="M13.753 13.14c1.817 1.579 2.58 3.435 2.29 5.567-.289 2.132-1.889 3.098-4.8 2.9l-5.677-7.621 8.187-.847z" transform="translate(11.976 48.411) translate(3.022)"/>
                <path fill="#F2A384" d="M18.758 9.373c-.059 1.792-.232 3.05-.518 3.774-.194.49.3.64 0 1.06-.135.19-1.014.682-1.157.863-1.382 1.762-3.044 3.098-3.432 2.937-.286-.118-.915-.577-1.889-1.377-.867 1.042-1.246 1.786-1.136 2.234.164.671-1.88 1.61-2.652.805-.515-.537-.879-1.45-1.092-2.741l.493-2.88 1.56-2.842 2.226-1.833 6.579-.288 1.018.288z" transform="translate(11.976 48.411) translate(3.022)"/>
                <path fill="url(#prefix__C)" d="M18.468 9.4c-.488 2.193-.585 3.706-.29 4.536-.48.501-.887.893-1.22 1.175-.48.406 6.342-1.778 6.342-5.243 0-3.466-1.556-3.619-2.441-3.897-.885-.278-2.936-6.387-8.305-5.842C7.185.673 8.572 4.797 4.99 7.053c-3.582 2.256-6.353 6.332-4.086 9.68 2.267 3.348 4.845 3.726 8.44 2.74 2.007-.55 1.85-4.052 2.042-7.281.014-.243-.645-.18-.7-.807-.055-.628.222-1.326.7-1.517 1.168-.469 2.809 1.373 3.942 1.144 2.639-.533 3.685-1.07 3.14-1.613z" transform="translate(11.976 48.411) translate(3.022)"/>
            </g>
            <g fill-rule="nonzero">
                <path fill="#F2A384" d="M19.147 11.501L17.575 10.3l2.23-1.874.423-1.813.264-.323c.378.08.652.058.82-.067.284-.21.681-.802.994-.71.048.015.434.137.464.244.046.16-.269.327-.203.37.542.358.92 1.107.614 1.637-.355.614-1.062 1.218-2.121 1.813l-1.913 1.925z" transform="translate(11.976 48.411) translate(7.556 18.24)"/>
                <path fill="url(#prefix__D)" d="M3.39.046C4.496-.206 7.642.51 7.995 3.9c.353 3.39.243 6.697 1.47 7.96 1.229 1.264 2.184.17 9.037-2.488.868-.051 1.39.363 1.565 1.243.176.88.176 1.296 0 1.246-5.73 5.372-9.854 7.626-12.37 6.76C3.923 17.32-.422 8.86.09 5.11.604 1.363 2.28.299 3.389.046z" transform="translate(11.976 48.411) translate(7.556 18.24)"/>
            </g>
        </g>
        <g>
            <path fill="#BF8D30" fill-rule="nonzero" d="M14.543 74.266c1.652 2.475 9.677 3.891 24.076 4.248h6.944l-4.416-9.474-12.742-5.831c-10.893 4.895-15.514 8.581-13.862 11.057z" transform="translate(85.335 8.091)"/>
            <g transform="translate(85.335 8.091) scale(-1 1) rotate(-15 18.982 281.518)">
                <path fill="#F2A384" fill-rule="nonzero" d="M47.304 13.756c.293 1.257.41 2.11.35 2.561-.095.722-.64 1.18-.802 1.59-.212.537.214.688-.112 1.149-.147.207-1.105.746-1.26.945-1.506 1.93-3.317 3.395-3.74 3.219-.311-.13-.997-.633-2.057-1.51-1.452.3-1.79 1.569-1.016 3.807 1.163 3.357.903 5.358-1.452 4.425-1.57-.622-3.717-2.944-6.443-6.964 1.44-.238 2.481-.674 3.121-1.31.64-.634.977-1.564 1.01-2.788l1.7-3.115 2.425-2.009 7.167-.316 1.11.316z"/>
                <path fill="url(#prefix__E)" fill-rule="nonzero" d="M38.603 7.603C37.993 2.892 36.262.368 33.407.03c-4.282-.507-6.655 5.556-8.467 6.115-1.813.558-8.337 1.63-11.038 3.413-2.701 1.783-1.941 5.724-4.986 5.88-3.046.156-12.78 2.28-7.245 14.218 3.457 7.455 16.025 11.505 17.833 4.77 2.067-7.7 5.486-3.037 8.737-5.917 3.252-2.88.811-5.371 1.98-7.373 1.167-2.002 2.692.156 5.315-2.11 2.81-2.425 2.248-4.099 2.382-6.736.09-1.759.318-3.321.685-4.687z"/>
                <path fill="url(#prefix__F)" d="M39.812 21.745c-1.451.298-1.79 1.562-1.015 3.79 1.162 3.344.902 5.337-1.45 4.408-1.569-.62-3.714-2.932-6.437-6.936 1.439-.237 2.478-.671 3.117-1.304.64-.632.976-1.558 1.009-2.777l5.527.009c-.385.422-.602.895-.651 1.42-.081.866 1.399 2.153 1.438 2.51.012.106-.501-.267-1.538-1.12z"/>
                <ellipse cx="35.649" cy="8.091" fill="url(#prefix__G)" fill-rule="nonzero" rx="2.129" ry="2.331"/>
                <path fill="url(#prefix__H)" fill-rule="nonzero" d="M46.746 18.626c.202.548-1.084.939-1.498 1.505-.546.461 10.132 1.913 10.514-5.153.382-7.066-7.905-6.378-8.872-6.681-.967-.303-5.596-3.828-8.113-3.132-2.497.69-4.541 3.238-5.034 7.098-.595 4.656.083 7.422 1.059 7.683 1.09.29 2.987-.07 5.69-1.085-.985-.44-1.165-1.217-.541-2.333.936-1.674 2.534-.83 2.534.645l.84-.948 4.027.638c-.568.728-.77 1.316-.606 1.763z"/>
            </g>
            <g>
                <path fill="url(#prefix__I)" fill-rule="nonzero" d="M8.73 44.3l.438 2.708c-.533.72-1.19 1.081-1.972 1.081s-1.479-.181-2.089-.545l-.438-2.96 4.061-.285zM22.298 44.3l.437 2.708c-.532.72-1.19 1.081-1.971 1.081-.783 0-1.479-.181-2.09-.545l-.438-2.96 4.062-.285z" transform="translate(85.335 8.091) translate(15.66 50.606)"/>
                <path fill="url(#prefix__J)" fill-rule="nonzero" d="M22.749 46.636c.332 0 .332 1.118.346 1.969.006.31-.05.781-.169 1.415-.048.26-.26.45-.512.46-5.328.192-8.538.187-8.548-.016-.425-1.383-.193-1.532 2.222-2.617.982-.441 1.884-.652 2.495-1.014.208-.124.646.877 2.09.877s1.744-1.074 2.076-1.074zM9.181 46.636c.332 0 .332 1.118.347 1.969.005.31-.051.781-.17 1.415-.047.26-.26.45-.512.46-5.327.192-8.538.187-8.547-.016-.426-1.383-.194-1.532 2.222-2.617.982-.441 1.883-.652 2.494-1.014.209-.124.647.877 2.09.877 1.445 0 1.744-1.074 2.076-1.074z" transform="translate(85.335 8.091) translate(15.66 50.606)"/>
                <path fill="url(#prefix__K)" fill-rule="nonzero" d="M24.107.05c-.132 2.975-.132 4.634 0 4.979.2.516-.967 6.967-3.499 19.35.217 12.082 2.022 18.72 1.806 19.912-.325 1.788-4.1 1.788-4.557.495-.306-.861-1.57-7.861-3.791-21l-.39-10.304c-1.554 2.7-3.727 6.378-6.52 11.034.457 12.815 2.19 19.597 1.587 20.348-.536.669-4.074 1.14-4.287 0-2.153-8.84-3.23-15.668-3.229-20.483 0-4.816 2.218-12.926 6.652-24.33h16.228z" transform="translate(85.335 8.091) translate(15.66 50.606)"/>
                <path stroke="#1542AB" stroke-width=".5" d="M20.824 44.015L18.2 25.257c-.114-.818-.107-1.65.023-2.467l2.602-16.392h0" transform="translate(85.335 8.091) translate(15.66 50.606)"/>
                <path fill="url(#prefix__L)" fill-rule="nonzero" d="M7.16 24.511l-.054-.015 4.512-12.697c.301.253.987.814 2.058 1.683-1.553 2.7-3.726 6.376-6.517 11.03z" transform="translate(85.335 8.091) translate(15.66 50.606)"/>
            </g>
            <path fill="url(#prefix__M)" fill-rule="nonzero" d="M37.673 30.027l1.983 1.452 1.327 6.942c-2.667 4.557-4.171 7.47-4.51 8.736-.161.6-.357 2.218-.59 4.855-.005.066-.012.132-.02.197-.348 2.697-2.82 4.6-5.521 4.251-3.805-.492-6.665-1.937-8.181-4.3-1.045-1.628.595-21.561 1.804-22.328 1.21-.767 2.047-2.015 7.081-2.52 2.978 4.014 5.072 5.906 6.28 5.675 1.21-.23.852-1.33.347-2.96z" transform="translate(85.335 8.091) scale(-1 1) rotate(-15 0 280.456)"/>
            <g transform="translate(85.335 8.091) translate(34.756 27.977)">
                <mask id="prefix__P" fill="#fff">
                    <use xlink:href="#prefix__N"/>
                </mask>
                <use fill="url(#prefix__O)" fill-rule="nonzero" xlink:href="#prefix__N"/>
                <path fill="#EEB84E" fill-rule="nonzero" d="M4.556 13.964c-1.052-1.411-1.052-3.728 0-6.952.373-1.143 1.944-1.455 4.187 0 2.688 1.744 6.792 9.157 4.875 14.594-2.952 8.373-7.816 10.669-10.504 11.217-.514.105-.622-.15-1.696.96-1.218 1.26-1.072-.294.436-4.664 3.451-4.89 5.033-8.162 4.744-9.817-.288-1.655-.969-3.434-2.042-5.338z" mask="url(#prefix__P)" opacity=".5"/>
            </g>
            <path fill="#F2A384" fill-rule="nonzero" d="M38.52 58.988l-1.86 1.975c-.558 1.078-1.139 1.804-1.74 2.18-.52.324-1.284-.028-1.66-.555-.077-.107-.585-.121-.624-.24-.103-.309.387-.74.675-1.015.43-.41-.105-.343.103-.786.139-.295.822-.56 2.05-.795l1.799-2.29 1.258 1.526z" transform="translate(85.335 8.091)"/>
            <path fill="url(#prefix__Q)" fill-rule="nonzero" d="M39.312 39.198c-1.052-1.41-1.052-3.728 0-6.952.373-1.143 1.944-1.455 4.187 0 2.688 1.744 6.024 10.083 4.108 15.52-3.516 9.972-6.7 10.18-8.668 11.432-1.31.835-2.064.288-2.26-1.641 3.696-5.365 5.4-8.875 5.112-10.53-.288-1.654-1.115-4.264-2.479-7.83z" transform="translate(85.335 8.091)"/>
            <path fill="#F2A384" fill-rule="nonzero" d="M4.654 26.998l-1.912-1.925C1.682 24.478.976 23.874.62 23.26c-.307-.53.072-1.28.613-1.637.11-.072-1.282-1.642-1.163-1.678.313-.092 2.152 1.477 2.418 1.774.396.443.347-.093.783.13.29.149.532.84.724 2.074l2.23 1.874-1.572 1.201z" transform="translate(85.335 8.091)"/>
            <g transform="translate(85.335 8.091) translate(3.572 24.411)">
                <mask id="prefix__T" fill="#fff">
                    <use xlink:href="#prefix__R"/>
                </mask>
                <use fill="url(#prefix__S)" fill-rule="nonzero" xlink:href="#prefix__R"/>
                <path fill="#EEB84E" fill-rule="nonzero" d="M17.906 15.057c.02-1.154.204-2.09.552-2.811.348-.721.445-1.146.293-1.275-3.793 1.873-6.969 2.298-9.526 1.275-2.557-1.024-1.913.38 1.932 4.211l6.75-1.4z" mask="url(#prefix__T)" opacity=".5"/>
            </g>
        </g>
        <g fill-rule="nonzero">
            <path fill="#B06C57" d="M3.788 14.854c-.425 1.37-.766 2.277-1.025 2.72-.388.666.303 2.34 1.992 2.34 1.126 0 2.968-.511 5.526-1.535-.56-.605-.96-1.283-1.203-2.033-.242-.75-.242-1.654 0-2.713 1.296-3.027 1.808-4.867 1.537-5.521-.27-.654-1.725-1.769-4.363-3.343-2.754 1.132-4.13 2.125-4.13 2.978v2.275c-.804-.347-1.205-.075-1.205.815 0 .89.519 1.498 1.557 1.825l1.314 2.192z" transform="translate(59.783 39.223)"/>
            <path fill="url(#prefix__U)" d="M7.136 1.078c.793.417 3.197 1.113 3.622 1.77.559.864.683 1.749.373 2.653.919 1.26.919 3.04 0 5.335-1.38 3.443-2.275 3.79-3.995 4.006-1.72.215-2.958-1.665-3.537-3.064-.386-.933-.889-1.598-1.508-1.994l-.298-2.389S.027 7.225.027 4.22c0-3.007 2.064-5.797 7.109-3.141z" transform="translate(59.783 39.223)"/>
        </g>
        <g>
            <g fill-rule="nonzero">
                <path fill="#B06C57" d="M18.32 19.764c.168-.113 2.544.01 2.263 1.281-.281 1.271-.376 1.774-.415 2.291-.025.346-.2.618-.52.816l-1.563-.816-.31-1.188c.252-1.514.434-2.31.546-2.384z" transform="translate(37.803 37.851) translate(26.376 37.851)"/>
                <path fill="url(#prefix__V)" d="M17.413 21.604c.463-.072.605 1.186 1.334 1.422.728.236 1.505-.612 1.659-.451.448.47 1.191.869 1.948 1.496 1.862 1.542 2.03 1.731 1.308 2.892-.092.28-2.566-.367-7.423-1.942-.006-.65.067-1.233.217-1.746.225-.771.495-1.598.957-1.67z" transform="translate(37.803 37.851) translate(26.376 37.851)"/>
                <path fill="#B06C57" d="M7.982 19.05c.074.112.021.806-.157 2.08l-.75.973-1.757.141c.244-.146.421-.383.532-.711.167-.492.228-.792.467-2.072.238-1.28 1.555-.58 1.665-.411z" transform="translate(37.803 37.851) translate(26.376 37.851)"/>
                <path fill="url(#prefix__W)" d="M7.718 20.89c.523.048.732.3.948 1.054.143.502.195 1.076.154 1.721-2.237.602-3.572.82-4.007.653-1.75-.673-.214-2.966.046-3.203.183-.168.63-.487 1.47-.76.841-.272.867.488 1.39.536z" transform="translate(37.803 37.851) translate(26.376 37.851)"/>
                <path fill="#111AA7" d="M15.411 2.887c5.29-2.371 9.083-2.371 11.382 0 3.449 3.558-4.605 16.292-5.152 17.9-.548 1.608-2.072.576-2.648.422-.385-.102-.734-.422-1.047-.96l2.495-10.144-6.27-.848-1.797-3.915 3.037-2.455z" transform="translate(37.803 37.851) translate(26.376 37.851)"/>
                <path fill="#111AA7" d="M3.047 2.887C8.997.11 12.507-.584 13.577.804c1.607 2.083 2.982 8.93-5.052 19.06-.58.409-1.094.581-1.544.517-.45-.065-.824-.474-1.124-1.229l2.22-9.047-6.27-.848L.01 5.342l3.036-2.455z" transform="translate(37.803 37.851) translate(26.376 37.851)"/>
            </g>
            <g fill-rule="nonzero">
                <path fill="#B06C57" d="M24.754 19.329c2.546 1.162 4.095 1.452 4.647.871.552-.58.795-1.01.73-1.289 4.918.415 7.915 1.75 8.989 4.004 1.611 3.381 5.87 14.657 7.728 12.4 1.238-1.504 2.101-2.748 2.59-3.732-.814-.753-1.221-1.212-1.221-1.376 0-.246.813-.259 1.22-.13.408.13.332-2.832.59-3.026.17-.13.388.565.651 2.086.39-1.636.656-2.421.795-2.356.139.066.139.976 0 2.731.688-.813 1.086-1.157 1.19-1.03.106.125-.098.7-.61 1.725.633-.231.95-.275.95-.13 0 .146-.317.44-.95.88l-.58 1.077c-1.41 5.465-3.457 8.366-6.142 8.702-2.686.337-3.756.337-3.21 0 .656.9.895 1.651.715 2.255-.269.907-2.075 5.427-3.957 6.189-1.255.508-4.836-.781-10.742-3.867l-9.98-9.192-.984-10.076C7.852 20.769 2.793 13.85 1.996 5.289l-.4-1.279C.67 3.005.177 2.433.122 2.295c-.055-.138.242-.053.891.257C.684 1.62.563 1.106.65 1.007c.085-.098.401.193.947.875.04-1.188.127-1.806.26-1.855.134-.05.334.464.601 1.538.125-.947.252-1.367.381-1.259.13.108.248.857.353 2.246.513-.447.8-.59.858-.431.059.159-.092.714-.454 1.664 3.844 6.384 7.085 10.132 9.72 11.245 2.637 1.114 6.55 2.26 11.74 3.44l-.3.859z" transform="translate(37.803 37.851)"/>
                <path fill="url(#prefix__X)" d="M27.316 21.257c1.578.446 3.12-.273 4.627-2.156 3.71.288 6.103 1.56 7.177 3.814.944 1.981 2.797 6.673 4.544 9.764.823 1.457-.692 3.092-4.544 4.907 1.146 1.731 2.3 2.855 3.465 3.37.395.371.395 1.552.251 2.035-.269.907-2.075 5.427-3.957 6.189-1.255.508-4.836-.781-10.742-3.867l-9.98-9.192-1.249-9.966c-3.187-1.202-4.87-2.17-5.05-2.903-1.35-5.503 1.51-8.57 3.826-7.593 2.636 1.113 5.791 1.937 9.465 2.472-.133 1.639.589 2.68 2.167 3.126z" transform="translate(37.803 37.851)"/>
                <path fill="url(#prefix__Y)" d="M22.081 34.487c-.206-.768.25-1.558 1.02-1.764.77-.206 1.56.25 1.767 1.018.176.658-.133 1.331-.708 1.64-.395.057-.78.09-1.149.097-.44-.15-.8-.509-.93-.991zm-6.54-12.054c-.77.205-1.56-.25-1.767-1.019-.206-.768.25-1.557 1.02-1.763.77-.206 1.56.25 1.767 1.018.206.768-.25 1.558-1.02 1.764zm6.61 5.828c-.769.206-1.56-.25-1.766-1.018-.206-.769.25-1.558 1.02-1.764.77-.206 1.56.25 1.766 1.018.207.768-.25 1.558-1.02 1.764zm-.353-6.88c-.77.205-1.56-.25-1.766-1.019-.207-.768.25-1.557 1.02-1.763.769-.206 1.56.25 1.766 1.018.206.768-.25 1.558-1.02 1.764zm14.894 25.052c-.206-.768.25-1.558 1.02-1.764.77-.205 1.56.25 1.767 1.019.176.657-.133 1.33-.708 1.64-.395.056-.78.089-1.149.096-.44-.15-.8-.508-.93-.99zm-6.54-12.054c-.77.206-1.56-.25-1.767-1.018-.206-.769.25-1.558 1.02-1.764.77-.206 1.56.25 1.767 1.018.206.768-.25 1.558-1.02 1.764zm6.61 5.828c-.77.206-1.56-.25-1.766-1.018-.206-.768.25-1.558 1.02-1.764.77-.206 1.56.25 1.766 1.018.207.769-.25 1.558-1.02 1.764zm-.353-6.88c-.77.206-1.56-.25-1.767-1.018-.206-.769.25-1.558 1.02-1.764.77-.206 1.56.25 1.767 1.018.206.768-.25 1.558-1.02 1.764zm-6.257-5.837c-.77.204-1.56-.248-1.767-1.01-.206-.762.25-1.545 1.02-1.75.77-.203 1.56.249 1.767 1.01.206.763-.25 1.546-1.02 1.75zm6.257-1.043c-.77.204-1.56-.248-1.767-1.01-.206-.762.25-1.545 1.02-1.75.77-.204 1.56.248 1.767 1.01.206.762-.25 1.546-1.02 1.75z" transform="translate(37.803 37.851)"/>
            </g>
        </g>
        <g fill-rule="nonzero" transform="translate(53.189 64.32)">
            <path fill="#D2D9FF" d="M21.156 25.234L22.804 25.234 22.804 31.954 21.156 31.954z"/>
            <ellipse cx="13.051" cy="40.594" fill="url(#prefix__Z)" rx="1.236" ry="1.234"/>
            <ellipse cx="30.36" cy="40.594" fill="url(#prefix__Z)" rx="1.236" ry="1.234"/>
            <ellipse cx="21.98" cy="41.966" fill="url(#prefix__Z)" rx="1.236" ry="1.234"/>
            <path fill="url(#prefix__aa)" d="M20.315 33.451l-.095-1.022c-.002-.02-.002-.041-.002-.062.006-.303.257-.543.56-.537l2.362.049.03.001c.303.023.53.287.507.59l-.068.877 7.518 5.152c.02.014.04.028.06.044.357.295.408.824.113 1.18-.339.41-.922.522-1.388.265l-6.538-3.599-.358 4.644c-.04.519-.466.923-.987.937-.517.013-.955-.376-1.003-.889l-.449-4.82-6.77 3.727c-.467.257-1.05.146-1.388-.264-.296-.357-.245-.886.113-1.18.019-.017.039-.031.06-.045l7.666-5.254.057.206z"/>
            <path fill="url(#prefix__ab)" d="M2.642.245C1.81-.218.539.215.137.798c.13.822.211 1.178.215 1.197 1.306 7.03 6.366 13.798 10.304 18.034 2.246 2.415 4.149 4.341 5.71 5.779 1.515.236 2.91.074 4.183-.484.83-.364 2.133-.257 2.096-1.397-.076-2.35-2.168-3.537-2.993-6.941-.775-3.194.096-9.699-2.244-11.038-2.34-1.34-5.27.985-9.737-.951C4.51 3.627 3.473.709 2.64.245z"/>
            <path fill="#111AA7" d="M25.988 19.866c2.24-.614 5.271-1.29 6.806 0 1.535 1.291.83 3.366-.197 4.533-.685.778-3.722 1.525-9.112 2.243l-.479-3.936c1.3-.554 2.295-1.5 2.982-2.84z"/>
            <path fill="url(#prefix__ac)" d="M.12.72c1.016 8.073 1.9 13.384 2.648 15.934 1.136 3.868 2.583 5.496 4.144 7.047 1.562 1.551 7.402 4.254 12.068 4.493 4.13.212 9.896-.993 12.03-2.317 2.133-1.325 3.236-4.164.824-4.87-2.412-.707-10.186 2.2-10.919 1.884-4.075-1.765-2.833-14.01-4.797-15.309-1.867-1.234-5.85.35-10.645-1.762C4.067 5.2 2.283 3.5.12.72z"/>
        </g>
        <ellipse cx="151.55" cy="107.589" fill="#E2EBFC" opacity=".806" rx="12.226" ry="2.126"/>
        <g fill-rule="nonzero">
            <g>
                <path fill="url(#prefix__ad)" d="M12.67.036c2.428.242 1.59 5.708 2.257 6.719.667 1.003 2.54 1.308 2.279 3.495-.262 2.187-2.07 2.113-2.285 3.93-.216 1.817 3.85 1.58 3.502 4.448-.347 2.867-3.48 3.737-3.686 5.465-.206 1.727 1.346 2.405.886 6.228-.46 3.824-3.622 4.607-8.346 4.942-4.724.334-7.654-.956-7.195-5.08.46-4.122 5.475-4.003 6.094-6.265.62-2.255-2.557-3.482-2.259-6.127.299-2.645 5.076-2.523 5.32-4.636.244-2.113-3.496-3.266-3.247-5.461.248-2.195 1.198-2.522 2.989-3.277 1.792-.742 1.262-4.623 3.69-4.381z" transform="translate(131.905 56.777) scale(-1 1) rotate(-16 -.7 137.569)"/>
                <path fill="#98BBE9" d="M7.72 33.294c-.1.03-.188-.035-.196-.145-.008-.11.066-.224.166-.254 2.393-.716 3.694-2.165 3.956-4.393.013-.112.104-.206.204-.21.099-.004.168.084.155.196-.286 2.428-1.732 4.039-4.286 4.806zM9.098 24.144c-.099-.008-.156-.105-.127-.217.03-.113.133-.197.232-.189 1.608.13 2.978-.812 4.146-2.852.058-.102.175-.149.26-.106.086.043.107.16.05.26-1.255 2.189-2.786 3.243-4.56 3.104zM12.363 11.935c-.067-.01-.106-.078-.087-.152.02-.075.09-.127.157-.118.816.117 1.507-.315 2.097-1.319.039-.067.118-.094.176-.062.059.032.074.113.035.18-.648 1.102-1.449 1.603-2.378 1.47zM12.275 10.476c.07-.003.124-.067.122-.143-.002-.075-.06-.134-.128-.13-.835.04-1.417-.459-1.765-1.53-.023-.071-.095-.108-.16-.082-.065.027-.1.106-.076.178.382 1.177 1.057 1.754 2.007 1.707zM9.776 21.409c.101-.01.18-.108.177-.22-.003-.11-.088-.193-.188-.183-1.494.142-2.544-.72-3.174-2.643-.034-.105-.14-.155-.234-.112-.095.043-.144.164-.11.269.681 2.079 1.866 3.05 3.53 2.889zM6.948 31.085c.101-.014.18-.116.177-.228-.003-.111-.088-.19-.188-.176-1.494.212-2.544-.604-3.174-2.502-.035-.104-.14-.15-.234-.102-.095.047-.144.17-.11.275.681 2.053 1.866 2.973 3.53 2.733z" transform="translate(131.905 56.777) scale(-1 1) rotate(-16 -.7 137.569)"/>
                <path fill="#8FAFDA" d="M6.984 40.927c-.018.15-.14.284-.274.297-.134.014-.41-.08-.392-.232.3-.94.545-2.225.735-3.857.286-2.449-.533-6.462.035-9.192.568-2.724 3.665-7.878 4.776-11.92.905-3.271.287-6.27.188-8.254-.1-1.99.338-4.331.382-4.328.052.005-.386 2.407-.248 4.337.137 1.923.661 4.464.21 7.264-.84 5.22-4.325 9.825-4.725 13.29-.4 3.465.38 5.568.181 8.604-.133 2.021-.422 3.35-.868 3.99z" transform="translate(131.905 56.777) scale(-1 1) rotate(-16 -.7 137.569)"/>
            </g>
            <g>
                <path fill="url(#prefix__ae)" d="M9.126 0c2.428 0 2.237 5.714 3.016 6.712.779.997 2.675 1.193 2.675 3.51 0 2.317-1.808 2.317-1.808 4.225 0 1.908 4.026 1.556 4.026 4.629 0 3.072-3.032 3.975-3.032 5.798s1.638 2.59 1.638 6.657c0 4.068-3.095 4.669-7.818 4.669C3.099 36.2 0 34.71 0 30.643c0-4.068 5.043-3.818 5.405-6.098.362-2.28-2.955-3.522-2.955-6.162s4.778-2.64 4.778-4.797c0-2.157-3.85-3.136-3.85-5.336s.905-2.594 2.596-3.486C7.664 3.872 6.697 0 9.126 0z" transform="translate(131.905 56.777) rotate(-17 22.024 3.003)"/>
                <path fill="#5ACE87" d="M8.039 34.198c-.097.025-.193-.048-.214-.162-.021-.114.04-.227.137-.252 2.326-.598 3.464-2.041 3.464-4.363 0-.117.08-.211.18-.211.099 0 .179.094.179.211 0 2.535-1.265 4.139-3.746 4.777zM8.292 24.858c-.101-.007-.168-.105-.149-.219.019-.113.117-.2.218-.193 1.641.116 2.942-.866 3.933-2.989.05-.106.163-.157.254-.115.09.042.123.162.074.268-1.065 2.279-2.518 3.376-4.33 3.248zM10.164 12.23c-.069-.005-.115-.072-.102-.149.013-.076.079-.135.148-.13.833.062 1.489-.428 1.99-1.5.033-.072.11-.106.172-.078.062.03.085.11.051.182-.55 1.177-1.31 1.746-2.259 1.675zM9.977 10.732c.07-.005.115-.071.103-.148-.013-.077-.08-.136-.148-.13-.833.061-1.49-.43-1.99-1.501-.034-.072-.11-.106-.173-.078-.061.03-.084.11-.05.182.55 1.177 1.31 1.746 2.258 1.675zM8.782 22.05c.1-.007.167-.105.148-.219-.02-.113-.117-.2-.217-.193-1.493.102-2.677-.797-3.584-2.739-.05-.106-.163-.158-.253-.116-.09.042-.122.162-.073.267.98 2.099 2.317 3.113 3.979 3zM7.068 31.91c.1-.006.167-.104.147-.218-.019-.113-.116-.2-.217-.193-1.492.102-2.676-.796-3.584-2.739-.049-.105-.162-.157-.252-.116-.09.042-.122.162-.073.268.98 2.098 2.317 3.112 3.979 2.999z" transform="translate(131.905 56.777) rotate(-17 22.024 3.003)"/>
                <path fill="#42B16D" d="M8.189 42.036c0 .155-.109.28-.243.28-.133 0-.424-.125-.424-.28.194-.942.291-2.249.293-3.92.003-2.506-1.287-6.68-1.032-9.448.255-2.769 2.757-8.032 3.396-12.22.52-3.409-.445-6.47-.773-8.498-.328-2.029-.164-4.455-.12-4.455.052 0-.105 2.49.254 4.455.36 1.966 1.177 4.56 1.054 7.47-.228 5.418-3.18 10.127-3.18 13.668 0 3.541 1.03 5.758 1.184 8.888.103 2.087-.033 3.44-.41 4.06z" transform="translate(131.905 56.777) rotate(-17 22.024 3.003)"/>
            </g>
            <g>
                <path fill="url(#prefix__af)" d="M9.126 0c2.428 0 2.237 4.889 3.016 5.742.779.854 2.675 1.021 2.675 3.004 0 1.982-1.808 1.982-1.808 3.615 0 1.632 4.026 1.331 4.026 3.96s-3.032 3.401-3.032 4.96c0 1.56 1.638 2.217 1.638 5.697s-3.095 3.994-7.818 3.994C3.099 30.972 0 29.698 0 26.218 0 22.738 5.043 22.95 5.405 21c.362-1.95-2.955-3.012-2.955-5.271 0-2.26 4.778-2.26 4.778-4.105 0-1.845-3.85-2.683-3.85-4.566 0-1.882.905-2.219 2.596-2.982C7.664 3.313 6.697 0 9.126 0z" transform="translate(131.905 56.777) scale(-1 1) rotate(-28 10.392 96.114)"/>
                <path fill="#D2DEF8" d="M8.039 29.26c-.097.02-.193-.041-.214-.139-.021-.098.04-.194.137-.216 2.326-.511 3.464-1.746 3.464-3.732 0-.1.08-.181.18-.181.099 0 .179.08.179.18 0 2.17-1.265 3.541-3.746 4.087zM8.444 21.198c-.1-.012-.17-.102-.157-.201.012-.1.102-.17.201-.158 1.606.192 2.818-.601 3.667-2.417.042-.09.15-.13.24-.088.09.042.13.15.087.24-.91 1.95-2.266 2.837-4.038 2.624zM10.244 10.428c-.068-.008-.116-.07-.108-.136.008-.068.07-.115.137-.107.815.1 1.427-.295 1.855-1.213.029-.06.102-.087.164-.058.062.028.089.101.06.162-.47 1.008-1.18 1.467-2.108 1.352zM9.898 9.147c.067-.009.115-.07.107-.137-.008-.067-.069-.115-.136-.106-.815.1-1.427-.296-1.856-1.213-.028-.061-.102-.088-.163-.059-.062.029-.089.102-.06.163.47 1.007 1.18 1.466 2.108 1.352zM8.641 18.801c.099-.011.169-.101.156-.2-.012-.1-.102-.17-.2-.159-1.46.173-2.564-.554-3.34-2.216-.042-.09-.15-.13-.24-.088-.09.042-.128.15-.085.24.838 1.795 2.084 2.615 3.71 2.423zM6.927 27.239c.099-.012.169-.102.156-.2-.012-.1-.102-.17-.2-.16-1.46.173-2.564-.553-3.34-2.215-.043-.09-.15-.13-.24-.089-.09.042-.128.15-.085.24.838 1.796 2.084 2.616 3.71 2.424z" transform="translate(131.905 56.777) scale(-1 1) rotate(-28 10.392 96.114)"/>
                <path fill="#D2DEF8" d="M8.189 35.966c0 .132-.109.24-.243.24-.133 0-.424-.108-.424-.24.194-.806.291-1.924.293-3.354.003-2.145-1.287-5.715-1.032-8.084.255-2.369 2.757-6.872 3.396-10.456.52-2.915-.445-5.534-.773-7.27-.328-1.736-.164-3.812-.12-3.812.052 0-.105 2.13.254 3.812.36 1.682 1.177 3.901 1.054 6.391-.228 4.636-3.18 8.665-3.18 11.695 0 3.03 1.03 4.926 1.184 7.604.103 1.786-.033 2.943-.41 3.474z" transform="translate(131.905 56.777) scale(-1 1) rotate(-28 10.392 96.114)"/>
            </g>
            <g>
                <path fill="url(#prefix__ag)" d="M0.29 0.284L14.793 0.284 11.57 9.362 3.513 9.362z" transform="translate(131.905 56.777) translate(12.364 41.417)"/>
                <path fill="url(#prefix__ah)" d="M0 0H14.793V2.837H0z" transform="translate(131.905 56.777) translate(12.364 41.417)"/>
            </g>
        </g>
    </g>
</svg>
