<svg xmlns="http://www.w3.org/2000/svg" xmlns:xlink="http://www.w3.org/1999/xlink" width="240" height="543" viewBox="0 0 240 543">
    <defs>
        <linearGradient id="nsj20t5j7c" x1="28.738%" x2="69.097%" y1="56.709%" y2="40.941%">
            <stop offset="0%" stop-color="#F7FAFF"/>
            <stop offset="100%" stop-color="#6B9AD9"/>
        </linearGradient>
        <linearGradient id="cutq6v96xd" x1="56.268%" x2="46.458%" y1="32.312%" y2="69.237%">
            <stop offset="0%" stop-color="#8EB2FF"/>
            <stop offset="25%" stop-color="#78ABFF"/>
            <stop offset="49%" stop-color="#6499F1"/>
            <stop offset="70%" stop-color="#3C80EF"/>
            <stop offset="100%" stop-color="#3C80EF"/>
        </linearGradient>
        <linearGradient id="jbltvtiu3e" x1=".002%" x2="99.995%" y1="50.002%" y2="50.002%">
            <stop offset="0%" stop-color="#63B0FF" stop-opacity=".2"/>
            <stop offset="100%" stop-color="#A2B3F0" stop-opacity=".05"/>
        </linearGradient>
        <linearGradient id="jvzl1zjimf" x1="0%" x2="100%" y1="50.004%" y2="50.004%">
            <stop offset="0%" stop-color="#032258"/>
            <stop offset="100%" stop-color="#133E94"/>
        </linearGradient>
        <linearGradient id="69s9dbu51h" x1="10.481%" x2="-74.927%" y1="37.584%" y2="83.34%">
            <stop offset="0%" stop-color="#FF7D2E"/>
            <stop offset="100%" stop-color="#FFD873"/>
        </linearGradient>
        <linearGradient id="c6jrizr0vi" x1="-1.502%" x2="-45.592%" y1="68.001%" y2="119.407%">
            <stop offset="0%" stop-color="#FF7D2E"/>
            <stop offset="100%" stop-color="#FFD873"/>
        </linearGradient>
        <linearGradient id="njw4k7f0zj" x1="88.031%" x2="64.606%" y1="41.52%" y2="50.507%">
            <stop offset="0%" stop-color="#FF9D61"/>
            <stop offset="100%" stop-color="#FFD873"/>
        </linearGradient>
        <linearGradient id="clxn26equk" x1="32.237%" x2="-28.281%" y1="278.451%" y2="64.578%">
            <stop offset="0%" stop-color="#FAD0BA"/>
            <stop offset="100%" stop-color="#F2A384"/>
        </linearGradient>
        <linearGradient id="15svan8nll" x1="13.236%" x2="-43.261%" y1="116.814%" y2="139.366%">
            <stop offset="0%" stop-color="#FAD0BA"/>
            <stop offset="100%" stop-color="#F2A384"/>
        </linearGradient>
        <linearGradient id="8jxkzzf07m" x1="113.854%" x2="68.861%" y1="128.284%" y2="-7.84%">
            <stop offset="0%" stop-color="#032258"/>
            <stop offset="100%" stop-color="#133E94"/>
        </linearGradient>
        <linearGradient id="m4ywvwjr6n" x1="22.963%" x2="76.462%" y1="53.571%" y2="40.267%">
            <stop offset="0%" stop-color="#FAD0BA"/>
            <stop offset="100%" stop-color="#F2A384"/>
        </linearGradient>
        <linearGradient id="0iwhk1maxo" x1="86.877%" x2="21.528%" y1="-224.234%" y2="268.131%">
            <stop offset="0%" stop-color="#1542AB"/>
            <stop offset="100%" stop-color="#2B68EE"/>
        </linearGradient>
        <linearGradient id="2ulia0374p" x1="65.904%" x2="20.773%" y1="27.376%" y2="87.007%">
            <stop offset="0%" stop-color="#1542AB"/>
            <stop offset="100%" stop-color="#2B68EE"/>
        </linearGradient>
        <linearGradient id="nbnfvpw7hq" x1="58.512%" x2="32.963%" y1="22.671%" y2="99.254%">
            <stop offset="0%" stop-color="#3485F7"/>
            <stop offset="100%" stop-color="#1A57CF"/>
        </linearGradient>
        <linearGradient id="1y21r1n98r" x1="45.114%" x2="53.434%" y1=".893%" y2="95.939%">
            <stop offset="0%" stop-color="#84F0A8"/>
            <stop offset="100%" stop-color="#33A25D"/>
        </linearGradient>
        <linearGradient id="26qltqh51s" x1="49.77%" x2="44.121%" y1="37.819%" y2="175.722%">
            <stop offset="0%" stop-color="#FAD0BA"/>
            <stop offset="100%" stop-color="#F2A384"/>
        </linearGradient>
        <linearGradient id="cfc0r1biot" x1="39.896%" x2="23.124%" y1="88.126%" y2="161.799%">
            <stop offset="0%" stop-color="#FAD0BA"/>
            <stop offset="100%" stop-color="#F2A384"/>
        </linearGradient>
        <linearGradient id="bpzgmpw2su" x1="42.497%" x2="55.273%" y1=".893%" y2="95.939%">
            <stop offset="0%" stop-color="#84F0A8"/>
            <stop offset="100%" stop-color="#33A25D"/>
        </linearGradient>
        <linearGradient id="g39ufo824v" x1="0%" x2="99.961%" y1="49.934%" y2="49.934%">
            <stop offset="0%" stop-color="#032258"/>
            <stop offset="100%" stop-color="#133E94"/>
        </linearGradient>
        <linearGradient id="7dowdvu8rw" x1="0%" x2="100%" y1="49.992%" y2="49.992%">
            <stop offset="0%" stop-color="#032258"/>
            <stop offset="100%" stop-color="#133E94"/>
        </linearGradient>
        <linearGradient id="828dqobg3x" x1="0%" x2="100%" y1="50%" y2="50%">
            <stop offset="0%" stop-color="#032258"/>
            <stop offset="100%" stop-color="#133E94"/>
        </linearGradient>
        <linearGradient id="9yh0nd5fky" x1=".001%" x2="100%" y1="49.983%" y2="49.983%">
            <stop offset="0%" stop-color="#032258"/>
            <stop offset="100%" stop-color="#133E94"/>
        </linearGradient>
        <linearGradient id="leqv038e1z" x1="-23.158%" x2="71.674%" y1="23.422%" y2="58.297%">
            <stop offset="0%" stop-color="#032258"/>
            <stop offset="100%" stop-color="#133E94"/>
        </linearGradient>
        <linearGradient id="e2v1uag6cA" x1="-1.145%" x2="124.262%" y1="48.866%" y2="52.455%">
            <stop offset="36%" stop-color="#E5EDFF"/>
            <stop offset="100%" stop-color="#6B9AD9"/>
        </linearGradient>
        <linearGradient id="uzr0jrvhdB" x1="100%" x2="-43.761%" y1="61.117%" y2="30.468%">
            <stop offset="0%" stop-color="#84F0A8"/>
            <stop offset="100%" stop-color="#33A25D"/>
        </linearGradient>
        <linearGradient id="km56g2cuwC" x1="87.235%" x2="35.502%" y1="-69.472%" y2="96.37%">
            <stop offset="0%" stop-color="#E5EDFF"/>
            <stop offset="100%" stop-color="#6B9AD9"/>
        </linearGradient>
        <linearGradient id="a2pbs4n0qD" x1="87.235%" x2="35.502%" y1="-69.146%" y2="96.696%">
            <stop offset="0%" stop-color="#E5EDFF"/>
            <stop offset="100%" stop-color="#6B9AD9"/>
        </linearGradient>
        <linearGradient id="5fu5g995iE" x1="50.164%" x2="171.323%" y1="50.682%" y2="114.47%">
            <stop offset="0%" stop-color="#032258"/>
            <stop offset="100%" stop-color="#133E94"/>
        </linearGradient>
        <linearGradient id="qnrbvnxz6F" x1="55.929%" x2="33.542%" y1="30.015%" y2="104.098%">
            <stop offset="0%" stop-color="#032258"/>
            <stop offset="100%" stop-color="#133E94"/>
        </linearGradient>
        <linearGradient id="1l8f68m87G" x1="50.198%" x2="171.369%" y1="50.673%" y2="114.451%">
            <stop offset="0%" stop-color="#E5EDFF"/>
            <stop offset="100%" stop-color="#6B9AD9"/>
        </linearGradient>
        <linearGradient id="oqgqu5y6gH" x1="55.924%" x2="33.539%" y1="30.02%" y2="104.103%">
            <stop offset="0%" stop-color="#E5EDFF"/>
            <stop offset="100%" stop-color="#6B9AD9"/>
        </linearGradient>
        <linearGradient id="bew2swl9eI" x1="0%" x2="100%" y1="50.009%" y2="50.009%">
            <stop offset="0%" stop-color="#E5EDFF"/>
            <stop offset="100%" stop-color="#6B9AD9"/>
        </linearGradient>
        <linearGradient id="56ih79z5mJ" x1="15.679%" x2="116.768%" y1="21.83%" y2="105.788%">
            <stop offset="0%" stop-color="#032258"/>
            <stop offset="100%" stop-color="#133E94"/>
        </linearGradient>
        <linearGradient id="kjh7hwddpK" x1="15.642%" x2="116.731%" y1="21.828%" y2="105.799%">
            <stop offset="36%" stop-color="#E5EDFF"/>
            <stop offset="100%" stop-color="#6B9AD9"/>
        </linearGradient>
        <linearGradient id="0kf2ziqomL" x1="-77.199%" x2="164.596%" y1="97.235%" y2="14.283%">
            <stop offset="0%" stop-color="#3BACF8"/>
            <stop offset="42%" stop-color="#3BA8F7"/>
            <stop offset="100%" stop-color="#3E5BEA"/>
        </linearGradient>
        <linearGradient id="l1z2yekhwM" x1="193.94%" x2="168.269%" y1="-169.022%" y2="2.251%">
            <stop offset="0%" stop-color="#E5EDFF"/>
            <stop offset="100%" stop-color="#6B9AD9"/>
        </linearGradient>
        <linearGradient id="nynu832u2N" x1="29.837%" x2="-25.325%" y1="-74.488%" y2="86.865%">
            <stop offset="0%" stop-color="#E5EDFF"/>
            <stop offset="100%" stop-color="#6B9AD9"/>
        </linearGradient>
        <linearGradient id="66j9wh47bO" x1="193.916%" x2="168.245%" y1="-169.334%" y2="1.939%">
            <stop offset="0%" stop-color="#E5EDFF"/>
            <stop offset="100%" stop-color="#6B9AD9"/>
        </linearGradient>
        <linearGradient id="2eldaetz4P" x1="-96.489%" x2="71.01%" y1="-75.073%" y2="64.667%">
            <stop offset="0%" stop-color="#84F0A8"/>
            <stop offset="100%" stop-color="#33A25D"/>
        </linearGradient>
        <linearGradient id="ze81pwvf2Q" x1="44.265%" x2="54.031%" y1=".893%" y2="95.939%">
            <stop offset="0%" stop-color="#84F0A8"/>
            <stop offset="100%" stop-color="#33A25D"/>
        </linearGradient>
        <linearGradient id="z7jzmuic1R" x1="4.686%" x2="51.361%" y1="-101.92%" y2="73.286%">
            <stop offset="0%" stop-color="#84F0A8"/>
            <stop offset="100%" stop-color="#33A25D"/>
        </linearGradient>
        <linearGradient id="y49ndu4jzS" x1="46.915%" x2="51.002%" y1="-26.276%" y2="73.64%">
            <stop offset="0%" stop-color="#FFDD51"/>
            <stop offset="100%" stop-color="#FFB043"/>
        </linearGradient>
        <linearGradient id="1kmy6wbqcT" x1="47.41%" x2="-2.195%" y1="47.565%" y2="82.923%">
            <stop offset="0%" stop-color="#33A25D"/>
            <stop offset="100%" stop-color="#103B0F"/>
        </linearGradient>
        <linearGradient id="uw7iz2mmrU" x1="76.73%" x2="14.715%" y1="34.531%" y2="53.145%">
            <stop offset="0%" stop-color="#FFC56E"/>
            <stop offset="100%" stop-color="#FF8421"/>
        </linearGradient>
        <linearGradient id="h2pvhg1c8V" x1="49.856%" x2="49.856%" y1="-10.746%" y2="100.138%">
            <stop offset="0%" stop-color="#FFE579"/>
            <stop offset="100%" stop-color="#FEB755"/>
        </linearGradient>
        <linearGradient id="sps1e25rxW" x1="48.426%" x2="-1.187%" y1="48.846%" y2="60.41%">
            <stop offset="0%" stop-color="#33A25D"/>
            <stop offset="100%" stop-color="#103B0F"/>
        </linearGradient>
        <linearGradient id="jmtv8pocwX" x1="75.407%" x2="47.297%" y1="38.818%" y2="53.452%">
            <stop offset="0%" stop-color="#ACC1E3"/>
            <stop offset="100%" stop-color="#D6E3FA"/>
        </linearGradient>
        <linearGradient id="qebj3uu93Y" x1="127.615%" x2="84.991%" y1="45.996%" y2="66.392%">
            <stop offset="0%" stop-color="#FF9D61"/>
            <stop offset="100%" stop-color="#FFD873"/>
        </linearGradient>
        <linearGradient id="6cycqfq0pab" x1="127.502%" x2="76.662%" y1="65.518%" y2="47.131%">
            <stop offset="0%" stop-color="#ACC1E3"/>
            <stop offset="100%" stop-color="#D6E3FA"/>
        </linearGradient>
        <linearGradient id="cnc0izi4lac" x1="61.174%" x2="-38.216%" y1="32.124%" y2="191.046%">
            <stop offset="0%" stop-color="#E5EDFF"/>
            <stop offset="100%" stop-color="#6B9AD9"/>
        </linearGradient>
        <linearGradient id="uqwkxib9ead" x1="135.833%" x2="0%" y1="62.909%" y2="43.116%">
            <stop offset="0%" stop-color="#E5EDFF"/>
            <stop offset="100%" stop-color="#6B9AD9"/>
        </linearGradient>
        <linearGradient id="urfaf9o7dae" x1="52.42%" x2="30.626%" y1="17.477%" y2="292.514%">
            <stop offset="0%" stop-color="#F7FAFF"/>
            <stop offset="100%" stop-color="#6B9AD9"/>
        </linearGradient>
        <linearGradient id="7bydgykp6af" x1="15.456%" x2="-68.294%" y1="50.204%" y2="60.159%">
            <stop offset="0%" stop-color="#F7FAFF"/>
            <stop offset="100%" stop-color="#6B9AD9"/>
        </linearGradient>
        <linearGradient id="oc01j1ee0ag" x1="65.245%" x2="-19.023%" y1="49.96%" y2="59.626%">
            <stop offset="0%" stop-color="#F7FAFF"/>
            <stop offset="100%" stop-color="#6B9AD9"/>
        </linearGradient>
        <linearGradient id="mxvex6b6sah" x1="65.157%" x2="-18.634%" y1="49.985%" y2="59.642%">
            <stop offset="0%" stop-color="#F7FAFF"/>
            <stop offset="100%" stop-color="#6B9AD9"/>
        </linearGradient>
        <linearGradient id="43slryws3ai" x1="47.801%" x2="-35.898%" y1="48.581%" y2="57.405%">
            <stop offset="0%" stop-color="#F7FAFF"/>
            <stop offset="100%" stop-color="#6B9AD9"/>
        </linearGradient>
        <linearGradient id="7a2tljbo3aj" x1="89.777%" x2="34.309%" y1="-68.638%" y2="96.199%">
            <stop offset="0%" stop-color="#E5EDFF"/>
            <stop offset="100%" stop-color="#6B9AD9"/>
        </linearGradient>
        <linearGradient id="8trxbbhjqak" x1="50.493%" x2="49.733%" y1="77.543%" y2="-2.014%">
            <stop offset="0%" stop-color="#CFDDF3"/>
            <stop offset="36%" stop-color="#CCDBF2"/>
            <stop offset="100%" stop-color="#A1B8E3"/>
        </linearGradient>
        <linearGradient id="yrii633r8al" x1="61.151%" x2="18.871%" y1="117.164%" y2="-168.856%">
            <stop offset="0%" stop-color="#CFDDF3"/>
            <stop offset="6%" stop-color="#CCDBF2"/>
            <stop offset="18%" stop-color="#CFDDF3"/>
            <stop offset="100%" stop-color="#A1B8E3"/>
        </linearGradient>
        <radialGradient id="1hmbsfbm2g" cx="59.74%" cy="52.303%" r="91.651%" fx="59.74%" fy="52.303%" gradientTransform="matrix(-.83897 -.3528 .54418 -.5439 .814 1.018)">
            <stop offset="0%" stop-color="#EAF2FF"/>
            <stop offset="37%" stop-color="#D3E3FB"/>
            <stop offset="100%" stop-color="#ACC5E9"/>
        </radialGradient>
        <radialGradient id="t06dav5yqZ" cx="50.115%" cy="50.331%" r="83.464%" fx="50.115%" fy="50.331%" gradientTransform="matrix(.99696 0 0 1 .002 0)">
            <stop offset="0%" stop-color="#EAF2FF"/>
            <stop offset="37%" stop-color="#D3E3FB"/>
            <stop offset="100%" stop-color="#ACC5E9"/>
        </radialGradient>
        <radialGradient id="ov1r9szd6aa" cx="49.777%" cy="49.685%" r="83.617%" fx="49.777%" fy="49.685%" gradientTransform="matrix(.99696 0 0 1 .002 0)">
            <stop offset="0%" stop-color="#EAF2FF"/>
            <stop offset="37%" stop-color="#D3E3FB"/>
            <stop offset="100%" stop-color="#ACC5E9"/>
        </radialGradient>
        <path id="0j2lycg8pa" d="M0 0H240V543H0z"/>
    </defs>
    <g fill="none" fill-rule="evenodd">
        <g>
            <mask id="mnu1lg3zjb" fill="#fff">
                <use xlink:href="#0j2lycg8pa"/>
            </mask>
            <use fill="#E2E9F1" fill-rule="nonzero" xlink:href="#0j2lycg8pa"/>
            <g mask="url(#mnu1lg3zjb)">
                <g transform="translate(-73.919 6)">
                    <g fill-rule="nonzero" opacity=".201">
                        <path fill="url(#nsj20t5j7c)" d="M61.58 142.932c-33.143-9.067-37.953-19.964-55.612-19.964 7.75-8.33 56.363-24.662 79.372 5.817 23.009 30.48 18.805 40.797 18.805 40.797s-12.862-18.504-42.565-26.65z" transform="rotate(36 -38.297 182.025)"/>
                        <path fill="url(#cutq6v96xd)" d="M51.486 108.338C-7.844 69.268.388 0 .388 0 13.371 51.595 85.775 51.305 104.21 94.888c18.436 43.583 0 74.694 0 74.694s6.604-22.122-52.724-61.244z" transform="rotate(36 -38.297 182.025)"/>
                    </g>
                    <path fill="url(#jbltvtiu3e)" fill-rule="nonzero" d="M126.733 15.944c-8.894 12.812 1.533 33.569-11.664 43.198-12.843 9.378-28.626-5.989-40.732 2.082-17.935 11.97-14.656 66.753 11.605 100.787 7.899 10.235 14.493 14.215 17.419 25.793 6.27 24.855-15.784 39.646-11.584 51.94 9.447 27.677 154.773 50.908 213.086-32.283 27.263-38.856 31.309-94.961 6.97-137.575-43.966-76.996-165.117-82.681-185.1-53.942z"/>
                    <rect width="75.136" height="74.908" x="156.707" y="130.168" fill="url(#jvzl1zjimf)" fill-rule="nonzero" rx="8.056"/>
                    <rect width="75.136" height="74.908" x="159.17" y="127.712" fill="#ED3D48" rx="8.056"/>
                    <rect width="65.282" height="65.084" x="164.097" y="132.624" fill="#FFF" fill-rule="nonzero" rx="8.056"/>
                    <path fill="url(#1hmbsfbm2g)" fill-rule="nonzero" d="M128.62 111.76c-.288.566-.618 1.122-.99 1.663l.932.331c.395-.567.745-1.149 1.047-1.744l-.99-.25zm-1.74 4.985c-.38.524-.79 1.039-1.228 1.537l.712.457c.448-.515.877-1.047 1.266-1.595l-.75-.399zm-3.798 2.991c-.441.49-.883.953-1.386 1.39l.538.604c.495-.455.98-.944 1.44-1.452l-.592-.542zm-2.822 4.985c-.49.439-1 .841-1.532 1.204l.373.79c.555-.383 1.092-.805 1.606-1.264l-.447-.73zm-4.783 1.994c-.549.18-1.115.326-1.694.435l.178.562c.614-.12 1.215-.273 1.8-.46l-.284-.537zm-4.72.07h-.708c-.404 0-.783 0-1.145-.06l-.067.907c.387 0 .791.07 1.212.07h.766l-.059-.917zm-3.898-.149c-.568-.228-1.12-.536-1.649-.918l-.33.991c.585.418 1.195.754 1.822 1.003l.157-1.076zm-4.946-1.583c-.507-.4-.98-.846-1.416-1.329l-.562.575c.463.515.965.99 1.503 1.419l.475-.665zm-2.666-4.32l.688-.465-.382-.44-.89-1.089-.706.449.611.747c.201.308.42.557.679.798zm-3.269-4.582l-.262-.266c-.422-.411-.845-.786-1.225-1.134l-.49.65c.388.347.794.713 1.208 1.115l.22.23.55-.595zm-3.956-3.117c-.538-.467-1.06-.885-1.573-1.274l-.405.759c.505.37 1.01.788 1.531 1.235l.447-.72zm-3.956-4.148c-.554-.4-1.124-.757-1.702-1.114l-.277.947c.562.323 1.107.668 1.628 1.047l.35-.88zm-3.957-1.699c-.57-.146-1.164-.279-1.8-.412l-.178.598c.627.127 1.205.26 1.758.4l.22-.586zm-5.095-.412l.15-.682-.704-.12-1.15-.195-.125.682.77.128 1.06.187zm-4.796-.922c-.556-.276-1.086-.636-1.58-1.072l-.398.836c.544.475 1.128.864 1.742 1.158l.236-.922zM70.26 102.2c-.485-.433-.933-.904-1.34-1.407l-.638.492c.436.535.914 1.037 1.43 1.502l.548-.587zm-2.967-4.77c-.408-.521-.767-1.063-1.075-1.622l-.903.276c.304.591.663 1.165 1.075 1.718l.903-.373zm-1.978-4.787c-.137-.598-.223-1.207-.258-1.82l-.731.05c.04.655.13 1.305.273 1.944l.716-.174zm-.34-5.808c0-.201.03-.405.087-.612.062-.393.146-.78.253-1.16l-.628-.222c-.115.408-.206.822-.275 1.243-.038.217-.067.438-.086.662l.65.09zm1.166-3.988c.34-.542.724-1.066 1.152-1.567l-.765-.427c-.451.524-.857 1.072-1.213 1.642l.826.352zm3.736-4.985c.419-.476.891-.944 1.372-1.421l-.57-.572c-.508.485-.98.98-1.408 1.465l.606.528zm2.854-3.987c.467-.436.968-.872 1.486-1.317l-.467-.677c-.535.445-1.036.927-1.511 1.344l.492.65zm4.905-2.991c.484-.409.993-.817 1.526-1.245l-.418-.75-1.56 1.265.452.73zm2.516-2.764l.403.77.915-.701.66-.504-.412-.79-.66.494-.906.73zm5.33-3.218l1.593-1.209-.394-.785-1.584 1.198.386.796zm3.572-2.784l.39.79.66-.506.928-.699-.407-.79-.594.476-.977.73zm4.382-3.198c.55-.441 1.068-.873 1.552-1.285l-.45-.71c-.479.41-.988.832-1.528 1.266l.426.729zm4.032-1.994c.544-.467 1.028-.943 1.477-1.41l-.562-.584c-.423.449-.864.898-1.416 1.365l.5.629zm3.178-5.982c.267-.296.515-.591.732-.886l.534-.714-.771-.394c-.168.238-.346.476-.525.705-.21.283-.438.557-.682.821l.712.468zm1.287-3.348l.842.357.442-.64c.221-.325.442-.657.673-1.014l-.862-.34c-.442.592-.747 1.118-1.116 1.637h.021zm2.947-5.95l.88.325.75-1.135.348-.51-.87-.35-.358.52c-.185.316-.413.68-.718 1.15h-.032zm2.742-4.66c.371-.531.777-1.045 1.214-1.539l-.715-.455c-.44.505-.862 1.034-1.263 1.597l.764.397zm1.79-3.988c.435-.47.87-.886 1.402-1.383l-.523-.611c-.522.47-1.01.948-1.455 1.436l.575.558zm4.84-3.988c.47-.403.976-.816 1.508-1.219l-.427-.775c-.55.413-1.063.826-1.551 1.249l.47.745z"/>
                    <g fill-rule="nonzero">
                        <path fill="url(#69s9dbu51h)" d="M9.466 5.1c0-.104-4.783 3.193-4.783 3.193l1.256 8.87 2.356-6.697 6.235-1.3L23.403 0 9.466 5.1z" transform="translate(112.364 9.824)"/>
                        <path fill="url(#c6jrizr0vi)" d="M23.403 0.03L5.854 17.192 8.224 10.51z" transform="translate(112.364 9.824)"/>
                        <path fill="url(#njw4k7f0zj)" d="M0 5.13L4.444 7.82 23.403 0.03 8.111 9.934 15.658 14.738 23.403 0.03z" transform="translate(112.364 9.824)"/>
                    </g>
                    <g fill-rule="nonzero">
                        <path fill="url(#clxn26equk)" d="M38.962 24.305c.35 1.262 1.028 4.982.689 5.602 1.048.814 2.38 1.078 3.628.72 1.738-.576 3.3-2.348 2.365-2.68-.75-.276-1.953-4.34-2.365-5.06-1.182-.188-4.677.155-4.317 1.418z" transform="translate(68.022 90.872)"/>
                        <path fill="url(#15svan8nll)" d="M44.379 23.744l-1.842 1.03c-1.059.516-5.685-3.003-6.786-5.535-1.101-2.533-1.927-5.394 3.493-7.959 5.42-2.565 6.67 9.504 6.68 10.513.021.811-1.037 1.644-1.545 1.951z" transform="translate(68.022 90.872)"/>
                        <path fill="url(#8jxkzzf07m)" d="M31.037 18.41c1.115 2.375 5.65 4.652 6.954 5.422.977-.047 1.905-.432 2.618-1.084.19-.813-.657-3.557-.802-4.49-.171-2.012.363-4.023 1.515-5.703 2.229-3.09-2.34-6.3-2.886-7.59-.913 1.702-1.393 2.776-5.215 4.337-4.423 1.941-3.498 6.214-2.184 9.109z" transform="translate(68.022 90.872)"/>
                        <path fill="url(#m4ywvwjr6n)" d="M57.258 139.022l-.352 5.474c.652.537 1.57.636 2.324.25l1.67-5.38-3.642-.344z" transform="translate(68.022 90.872)"/>
                        <path fill="url(#0iwhk1maxo)" d="M57.273 143.987s-2.848 1.102-2.291 2.298c.657 1.145 1.395 2.247 2.208 3.299.82 1.12 2.308 1.613 3.685 1.22.465-.134.938-.26 1.353-.362.381-.1.65-.423.668-.797.017-.375-.223-.717-.593-.848-.38-.132-.771-.23-1.17-.292-1.038-.157-2.49-2.495-2.648-3.432-.13-.564-.61-.996-1.212-1.086z" transform="translate(68.022 90.872)"/>
                        <path fill="url(#2ulia0374p)" d="M50.662 83.413c4.262 1.446 20.019 7.33 23.53 20.776.479 1.961.708 3.974.683 5.992.092 13.604-7.925 25.122-13.761 31.82l-5.517-.092c-1.31-4.733-1.46-9.707-.437-14.51 2.02-8.933 7.25-11.252 6.24-15.631-1.827-7.97-20.566-6.765-22.334-13.895-.64-2.543.766-6.906 11.596-14.46z" transform="translate(68.022 90.872)"/>
                        <path fill="url(#nbnfvpw7hq)" d="M52.913 81.796c-3.773 17.286-10.763 33.716-20.607 48.441-7.643 11.394-16.911 21.618-27.513 30.352-.885.26-1.814.34-2.73.233-.716-.088-1.412-.29-2.063-.599.77-4.706 2.28-9.262 4.476-13.5 5.01-9.669 9.543-9.361 14.612-17.899 3.715-6.251 4.926-12.894 7.34-26.178 1.861-10.259 1.861-12.711 4.416-15.654 5.16-5.944 14.855-6.01 22.069-5.196z" transform="translate(68.022 90.872)"/>
                        <path fill="url(#1y21r1n98r)" d="M59.588 4.965S61.73 20.59 44.926 31.602l17.88 4.146s5.722-10.482 1.582-27.847l-4.8-2.936z" transform="translate(68.022 90.872)"/>
                        <path fill="url(#26qltqh51s)" d="M63.107 7.944s.925-2.418.77-3.511c-.154-1.093-2.588-2.582-4.26-4.036-1.672-1.454.065 1.506.454 2.186.39.68 1.745 1.72 1.55 4.044l1.486 1.317z" transform="translate(68.022 90.872)"/>
                        <path fill="url(#cfc0r1biot)" d="M88.854 12.682s1.421-.184.978-2.699c-.345-1.963-.082-2.632.425-2.28.507.35.57 1.487.57 1.487 1.125-.922 2.013-2.064 2.599-3.343.751-1.888 1.24-.3 1.403.652.163.953-1.086 3.885-1.81 4.437-.725.551-1.73 2.966-1.73 2.966l-2.435-1.22z" transform="translate(68.022 90.872)"/>
                        <path fill="url(#bpzgmpw2su)" d="M92.847 14.051l-4.444-3.128c-1.796 11.14-5.901 15.509-9.377 17.422-8.4 4.618-15.89-3.602-31.962-.25-4.428.924-12.15 2.646-16.428 8.986-1.126 1.664-1.523 2.929-3.394 14.893-2.383 15.283-2.482 17.954-2.135 21.249.62 6.024.993 9.668 3.758 12.904 7.332 8.578 22.924 4.16 24.878 3.57 3.616-1.074 9.227-2.746 11.454-7.547 1.05-2.255.943-4.318-.67-12.571-3.195-16.357-3.6-17.414-2.715-19.203 3.012-6.04 12.546-2.587 20.599-8.203 4.71-3.287 10.022-10.45 10.436-28.122z" transform="translate(68.022 90.872)"/>
                    </g>
                    <path fill="url(#g39ufo824v)" fill-rule="nonzero" d="M193.735 231.912l-49.345 1.408v-2.39l48.228-1.29v-25.747l2.273-.045v26.889c0 .632-.51 1.151-1.156 1.175z"/>
                    <path fill="url(#7dowdvu8rw)" fill-rule="nonzero" d="M188.732 127.712h-2.267v-15.101l-19.982-.271c-.648-.018-1.161-.544-1.154-1.181V88.416l2.3.045v21.581l19.97.239c.638.024 1.14.545 1.133 1.174v16.257z"/>
                    <path fill="url(#828dqobg3x)" fill-rule="nonzero" d="M215.83 71.224L175.183 70.882 175.183 68.768 215.83 69.122z"/>
                    <path fill="url(#9yh0nd5fky)" fill-rule="nonzero" d="M210.722 130.168h-2.282V112.86c-.007-.291.11-.573.325-.783.216-.209.51-.327.82-.329l23.49.272v2.237l-22.353-.24v16.151z"/>
                    <path fill="url(#leqv038e1z)" fill-rule="nonzero" d="M309.423 43.617l-92.208-3.093c-.705-.01-1.384.27-1.878.776-.494.507-.76 1.196-.737 1.905v43.017c-.027 1.497 1.13 2.747 2.615 2.823l92.208 1.827c.68-.012 1.327-.3 1.794-.799.467-.498.714-1.166.687-1.85v-41.83c.042-1.445-1.05-2.667-2.481-2.776z"/>
                    <path fill="url(#e2v1uag6cA)" fill-rule="nonzero" d="M310.654 43.594l-92.208-3.07c-.704-.009-1.382.273-1.875.779-.494.506-.76 1.194-.74 1.904v43.012c-.03 1.5 1.128 2.753 2.615 2.825l92.208 1.828c.681-.01 1.33-.297 1.797-.797.467-.5.714-1.168.684-1.854v-41.85c.042-1.444-1.05-2.667-2.481-2.777z"/>
                    <path fill="url(#uzr0jrvhdB)" fill-rule="nonzero" d="M219.526 85.315L219.526 44.208 310.674 47.14 310.674 87.188z"/>
                    <path fill="#FFF" fill-rule="nonzero" d="M224.453 59.2v-7.753c0-.629.258-1.232.717-1.67.458-.438 1.078-.675 1.717-.656l51.949 1.652c1.271.045 2.277 1.074 2.277 2.326v7.203c0 1.285-1.059 2.326-2.364 2.326l-51.98-1.109c-1.284-.025-2.312-1.054-2.316-2.318zM224.453 76.445v-7.794c0-.632.258-1.238.717-1.678.458-.441 1.078-.679 1.717-.66l51.949 1.66c1.271.046 2.277 1.08 2.277 2.338v7.17c0 1.292-1.059 2.339-2.364 2.339l-51.98-1.044c-1.284-.026-2.312-1.06-2.316-2.33z"/>
                    <g fill-rule="nonzero" transform="translate(228.148 51.576)">
                        <path fill="#CBDBF9" d="M18.114 2.298c.131 0 .24.209.232.457-.008.248-.1.392-.224.424h-.047l-7.324-.28c-.14 0-.24-.208-.232-.456.007-.249.1-.393.216-.425h.047l7.332.28zM44.101 6.023c.14 0 .248.208.24.448.014.175-.074.342-.224.424h-.047L10.65 5.598c-.139 0-.24-.208-.232-.448-.015-.178.073-.348.225-.433h.038l33.42 1.306z"/>
                        <ellipse cx="3.914" cy="4.052" fill="url(#km56g2cuwC)" rx="3.914" ry="4.052"/>
                        <circle cx="3.914" cy="2.907" r="1" fill="#FFF"/>
                        <path fill="#FFF" d="M3.914 4.293c-.996 0-1.803.835-1.803 1.866h3.605c0-1.03-.807-1.866-1.802-1.866z"/>
                        <path fill="#CBDBF9" d="M18.114 19.99c.131 0 .24.208.232.448.015.178-.073.347-.224.433h-.047l-7.324-.289c-.14 0-.24-.2-.232-.448.007-.248.1-.393.216-.425h.047l7.332.28zM44.101 23.714c.14 0 .248.2.24.448.014.175-.074.342-.224.425h-.047l-33.42-1.298c-.139 0-.24-.208-.232-.448.008-.24.1-.4.225-.433h.038l33.42 1.306z"/>
                        <ellipse cx="3.914" cy="21.736" fill="url(#a2pbs4n0qD)" rx="3.914" ry="4.052"/>
                        <circle cx="3.914" cy="20.598" r="1" fill="#FFF"/>
                        <path fill="#FFF" d="M3.914 21.984c-.484 0-.947.2-1.286.558-.339.357-.525.84-.517 1.34h3.605c.008-.5-.178-.983-.517-1.34-.339-.357-.802-.558-1.285-.558z"/>
                    </g>
                    <path fill="url(#5fu5g995iE)" fill-rule="nonzero" d="M185.715 48.915l-54.235-2.25c-1.031-.046-1.871.983-1.871 2.296v36.943c0 1.319.84 2.4 1.87 2.42l54.236 1.32c.985 0 1.785-.996 1.785-2.283V51.31c-.026-1.287-.827-2.355-1.785-2.395z"/>
                    <path fill="url(#qnrbvnxz6F)" fill-rule="nonzero" d="M140.88 209.988l-69.239 1.457c-1.325.032-2.384 1.104-2.387 2.418v36.814c-.006.623.246 1.22.697 1.653.452.432 1.063.662 1.69.636l69.24-2.392c1.28-.069 2.282-1.12 2.277-2.392v-35.93c.008-.603-.228-1.182-.657-1.608-.43-.426-1.013-.663-1.62-.656z"/>
                    <path fill="url(#1l8f68m87G)" fill-rule="nonzero" d="M186.947 48.908l-54.236-2.243c-1.037-.046-1.87.99-1.87 2.302v36.931c0 1.32.833 2.4 1.87 2.427l54.236 1.319c.984 0 1.785-.996 1.785-2.275v-36.06c0-1.28-.8-2.355-1.785-2.401z"/>
                    <path fill="#ED3D48" d="M133.304 84.599L133.304 49.12 186.269 51.257 186.269 85.96z"/>
                    <path fill="url(#oqgqu5y6gH)" fill-rule="nonzero" d="M142.106 211.216l-69.233 1.457c-1.326.032-2.385 1.104-2.388 2.418v36.814c-.006.623.247 1.22.698 1.653.452.432 1.062.662 1.69.636l69.233-2.398c1.285-.063 2.292-1.118 2.284-2.392v-35.918c.008-.604-.23-1.185-.66-1.612-.43-.428-1.015-.665-1.624-.658z"/>
                    <path fill="url(#bew2swl9eI)" fill-rule="nonzero" d="M72.949 251.74L72.949 216.396 140.694 214.9 140.694 249.467z"/>
                    <path fill="url(#56ih79z5mJ)" fill-rule="nonzero" d="M293.641 104.167l-66.832-1.015c-.639.007-1.248.266-1.69.719-.444.453-.683 1.063-.666 1.691v37.998c-.033 1.317 1.02 2.413 2.356 2.456l66.832.116c1.292-.049 2.299-1.119 2.25-2.391V106.59c.042-1.275-.956-2.35-2.25-2.423z"/>
                    <path fill="url(#kjh7hwddpK)" fill-rule="nonzero" d="M294.873 104.16l-66.832-1.008c-.639.007-1.248.266-1.691.72-.443.452-.682 1.062-.665 1.69v38.004c-.033 1.317 1.019 2.414 2.356 2.456l66.832.11c.62-.022 1.205-.286 1.627-.733.422-.447.647-1.042.623-1.652V106.59c.042-1.276-.956-2.353-2.25-2.43z"/>
                    <path fill="url(#0kf2ziqomL)" fill-rule="nonzero" d="M229.379 142.273L229.379 105.608 294.662 106.539 294.662 142.448z"/>
                    <g fill-rule="nonzero" transform="translate(145.64 240.636)">
                        <path fill="#E1EBFF" d="M5.297 6.156l55.965.06c1.117 0 2.022.906 2.023 2.022l.041 39.036c.002 1.119-.904 2.026-2.023 2.028H61.3l-55.964-.06c-1.117 0-2.022-.906-2.023-2.023L3.27 8.183c-.001-1.118.905-2.026 2.023-2.027h.004z" transform="rotate(-9.92 33.298 27.729)"/>
                        <path fill="#FCFDFF" d="M6.41 4.835l55.964.059c1.117.001 2.022.906 2.024 2.023l.041 39.036c.001 1.118-.904 2.026-2.023 2.027h-.004l-55.965-.06c-1.117 0-2.022-.905-2.023-2.022L4.383 6.862c-.002-1.119.904-2.026 2.023-2.027h.004z" transform="rotate(-9.92 34.41 26.407)"/>
                        <path fill="#E2EBFC" d="M62.671 13.85L62.816 14.675 3.693 24.96 3.547 24.126zM64.968 26.89L65.114 27.723 5.991 37.999 5.845 37.166z"/>
                        <ellipse cx="12.748" cy="16.288" fill="url(#l1z2yekhwM)" rx="3.748" ry="3.724"/>
                        <ellipse cx="14.758" cy="29.035" fill="url(#nynu832u2N)" rx="3.634" ry="3.62" transform="rotate(-87.08 14.758 29.035)"/>
                        <ellipse cx="17.343" cy="42.403" fill="url(#66j9wh47bO)" rx="3.748" ry="3.724"/>
                        <path fill="#CBDBF9" d="M49.513 7.788c.127 0 .264.145.31.363.041.154-.008.319-.128.426l-31.558 5.436c-.128 0-.265-.135-.31-.362-.04-.154.01-.318.127-.426l31.559-5.437zM22.86 14.947c.118 0 .255.145.292.362.048.153.001.32-.119.426l-4.477.77c-.128 0-.255-.136-.292-.353-.036-.217 0-.38.11-.426l4.486-.78zM51.81 20.846c.128 0 .265.145.31.362.052.155 0 .325-.127.426l-31.559 5.482c-.127 0-.264-.136-.31-.362-.039-.155.01-.318.128-.426l31.559-5.482zM37.458 25.866c.137 0 .274.136.31.362.049.155-.002.323-.127.426l-16.814 2.972c-.128 0-.265-.136-.301-.353-.048-.156-.002-.324.118-.435l16.814-2.972zM29.47 38.19c.137 0 .274.135.31.362.05.154-.001.323-.127.426l-6.92 1.205c-.128 0-.265-.136-.302-.362-.048-.153-.001-.32.119-.426h.045l6.876-1.206zM54.537 36.35c.137 0 .274.145.31.362.051.155 0 .325-.128.426l-31.558 5.483c-.128 0-.265-.136-.301-.363-.048-.153-.002-.32.118-.426h.046l31.513-5.482z"/>
                        <path fill="#FFF" d="M13.286 15.028c.082-.132.255-.176.392-.1.113.067.163.204.118.327v.045l-1.422 2.22c-.068.107-.197.158-.32.127l-1.075-.453c-.068-.026-.122-.079-.15-.145-.027-.067-.026-.142.004-.208.06-.125.202-.19.337-.154h.046l.839.353 1.23-2.012zM15.583 28.086c.083-.133.256-.177.393-.1.113.067.163.204.118.326v.046l-1.486 2.22c-.068.107-.197.158-.32.127l-1.075-.453c-.068-.026-.122-.08-.148-.147-.026-.067-.022-.142.01-.207.058-.123.197-.188.33-.154l.847.354 1.331-2.012zM17.881 41.144c.083-.133.256-.177.392-.1.117.064.167.203.119.326v.045l-1.423 2.22c-.064.106-.19.157-.31.127h-.045l-1.076-.453c-.068-.025-.122-.079-.148-.146-.026-.068-.022-.143.011-.207.058-.124.196-.189.328-.154h.046l.848.353 1.258-2.011z"/>
                    </g>
                    <g>
                        <g>
                            <g fill-rule="nonzero">
                                <path fill="#FFB29C" d="M25.032 15.942c.467.172 12.223-1.152 12.223-1.152l-.412 9.803s-10.566.918-12.099-.148c-1.532-1.067-3.29-8.028-3.29-8.028l3.384-.17M63.227 15.88l10.16 18.748-2.17 8.347s-2.91.327-7.718-9.187" transform="translate(208.44 158.412) translate(13.554) translate(0 8.42)"/>
                                <path fill="#FFB29C" d="M24.838 15.195L8.732 4.583 5.643 6.755 24.744 24.406 26.479 15.981z" transform="translate(208.44 158.412) translate(13.554) translate(0 8.42)"/>
                                <path fill="#FFB29C" d="M6.981 7.978l-5.594-.779s-.715-.779.568-.919c.865-.066 1.734-.066 2.599 0 0 0-4.886-1.977-4.536-2.561.35-.584 4.271 1.393 4.271 1.393S.228 1.484.726.947C1.224.41 5.34 4.061 5.34 4.061S2.702.363 3.34.013c.638-.35 6.715 6.625 6.816 6.836.101.21-3.175 1.129-3.175 1.129z" transform="translate(208.44 158.412) translate(13.554) translate(0 8.42)"/>
                                <path fill="url(#2eldaetz4P)" d="M47.72 12.563c-4.303-.436-11.476 1.246-17.195 2.033-.18 4.162.226 8.33 1.206 12.379.335 1.471 1.556 4.22 2.544 4.671.988.452 14.137-3.114 15.522-8.338 1.385-5.224 1.868-10.215-2.108-10.822" transform="translate(208.44 158.412) translate(13.554) translate(0 8.42)"/>
                                <path fill="url(#ze81pwvf2Q)" d="M64.254 27.855c.094-1.238.123-2.48.085-3.722.008-.387-.007-.775-.047-1.16-.06-1.315-.261-2.62-.599-3.893-.108-.417-.24-.828-.396-1.23-.475-1.308.093-2.437-1.494-3.395l-6.684-1.323-7.306-1.635-.062.047v-.047c-1.02.076-1.984.506-2.723 1.214-2.385 2.212-4.273 4.906-5.54 7.903-.817 1.713-1.618 3.55-3.166 4.617-.181.103-.327.257-.42.444-.032.172-.005.35.077.506.475 1.2 1.286 2.238 2.334 2.99l-.132.428c-.42 1.3-.832 2.655-1.237 4.017-.101.358-.21.724-.319 1.09-.506 1.744-.996 3.512-1.494 5.287l-.327 1.082c-.28 1.02-.568 2.055-.848 3.052-.1.366-.194.732-.295 1.098-.296 1.043-.592 2.102-.887 3.114l26.944 5.956c.17-.942.342-1.9.529-2.865.062-.381.14-.778.21-1.129.202-1.082.428-2.172.677-3.262.07-.374.147-.779.217-1.113.358-1.799.685-3.597 1.059-5.38l.21-1.114c.264-1.425.52-2.842.778-4.227.07-.374.124-.779.179-1.122.275-1.77.485-3.475.63-5.115-.004-.372.012-.743.047-1.113z" transform="translate(208.44 158.412) translate(13.554) translate(0 8.42)"/>
                                <path fill="#FFB29C" d="M71.131 42.998L94.839 33.367 93.368 30.572 72.975 34.613zM56.302 13.358c-.53 1.331-1.914 3.612-5.197 2.982-3.113-.608-2.95-2.78-2.374-4.368v-.226l7.57 1.612z" transform="translate(208.44 158.412) translate(13.554) translate(0 8.42)"/>
                                <path fill="url(#z7jzmuic1R)" d="M61.445 14.76c5.143-.258 13.071 16.264 13.071 16.264-4.552 3.768-9.754 6.67-15.35 8.564 0 0-7.416-24.37 2.279-24.829z" transform="translate(208.44 158.412) translate(13.554) translate(0 8.42)"/>
                            </g>
                            <g transform="translate(208.44 158.412) translate(13.554) translate(47.96)">
                                <path fill="#FFB29C" fill-rule="nonzero" d="M8.343 13.571L6.942 21.762 2.523 20.913 4.802 14.467"/>
                                <path fill="#FF8783" d="M4.196 15.798c-1.313 2.253-.306 3.698 3.018 4.337.14-.849.296-1.916.475-3.208l-3.493-1.129z"/>
                                <ellipse cx="6.694" cy="13.949" fill="#FFB29C" fill-rule="nonzero" rx="4.84" ry="4.857" transform="rotate(-32.37 6.694 13.949)"/>
                                <path fill="#FFB29C" fill-rule="nonzero" d="M2.398 15.829L2.702 13.953 2.017 13.571 0.438 15.455z"/>
                                <path fill="#203966" fill-rule="nonzero" d="M11.922 9.048c-.67.327-1.339.615-2.008.942-1.019.537-2.038 1.066-3.112 1.51.148.569-.21 1.246.109 1.612.37.352.879.518 1.385.451v.125c-.125 1.285-.428 4.399-.39 4.399 1.253-.11 2.392-.769 3.113-1.799.985-1.636 1.818-3.358 2.49-5.146 0 0 .28-1.246-1.587-2.094z"/>
                                <path fill="#FFB29C" fill-rule="nonzero" d="M8.537 13.93c.047 0 1.385-1.168 1.556.692.155.722-.06 1.473-.576 2.001-.46.438-1.182.438-1.641 0"/>
                                <path fill="#203966" fill-rule="nonzero" d="M13.159 9.57C11.18 8.46 9.064 7.615 6.864 7.061c-1.003-.296-2.147-.514-3.034.078-.475.354-.848.826-1.082 1.37-.334.613-.5 1.303-.482 2.001.02.696.425 1.323 1.05 1.628-.072-.628.133-1.256.56-1.721.231.96.658 1.86 1.253 2.647.103.174.276.293.475.327.366 0 .42-.592.358-.98 1.997 1.35 4.57 1.505 6.714.404l.483-3.247z"/>
                                <path fill="#203966" fill-rule="nonzero" d="M12.186 8.705c-1.073-1.888-1.183-4.176-.296-6.158C12.84.655 15.112-.498 16.994.21c.659.277 1.252.688 1.743 1.207 1.66 1.684 2.625 3.934 2.7 6.298.077.712-.067 1.43-.412 2.056-.653.798-1.616 1.28-2.646 1.323-1.246.265-2.534.265-3.78 0-1.38-.271-2.56-1.157-3.206-2.405"/>
                            </g>
                        </g>
                        <g fill-rule="nonzero">
                            <path fill="#FFB29C" d="M82.437 68.942L90.327 80.761 87.401 84.763 77.909 73.59z" transform="translate(208.44 158.412) translate(0 54.79)"/>
                            <path fill="url(#y49ndu4jzS)" d="M80.274 77.413c-.591.576-1.19 1.137-1.797 1.697-5.306-5.021-12.635-12.558-17.234-19.674C53.393 47.282 44.01 8.92 44.01 8.92s25.592-10.144 27.646-5.13c-2.217 32.537 7.272 55.917 14.127 68.265-1.852 1.721-3.65 3.566-5.509 5.357z" transform="translate(208.44 158.412) translate(0 54.79)"/>
                            <path fill="url(#1kmy6wbqcT)" d="M91.44 81.368l-5.393 4.103.055.04c-.482.669-5.22 7.193-4.777 8.213.443 1.02 13.522-8.922 13.522-8.922l-3.408-3.434z" transform="translate(208.44 158.412) translate(0 54.79)"/>
                            <path fill="#74E199" d="M89.097 79.11L84.686 84.304 86.304 85.892 91.439 81.368 89.463 79.11z" transform="translate(208.44 158.412) translate(0 54.79)"/>
                            <path fill="#FFB29C" d="M18.707 42.953L24.838 55.41 21.361 58.774 13.549 46.698z" transform="translate(208.44 158.412) translate(0 54.79)"/>
                            <g>
                                <path fill="url(#uw7iz2mmrU)" d="M73.536 15.718C71.724 24.93 59.711 26.23 51.41 25.84l-36.327-2.826 8.193 24.011c-1.082.397-2.163.779-3.23 1.238-2.074.825-4.133 1.695-6.177 2.608-7.19-9.11-17.615-25.265-12.511-37.177C8.927-3.808 62.333.458 62.333.458l3.252.265 1.68.125 6.855.552s1.222 5.116-.584 14.318z" transform="translate(208.44 158.412) translate(0 54.79)"/>
                                <path fill="url(#h2pvhg1c8V)" d="M73.536 15.718C71.724 24.93 59.711 26.23 51.41 25.84l-36.327-2.826 8.193 24.011c-1.082.397-2.163.779-3.23 1.238-2.074.825-4.133 1.695-6.177 2.608-7.19-9.11-17.615-25.265-12.511-37.177C8.927-3.808 62.333.458 62.333.458l3.252.265 1.68.125 6.855.552s1.222 5.116-.584 14.318z" transform="translate(208.44 158.412) translate(0 54.79)"/>
                            </g>
                            <path fill="url(#sps1e25rxW)" d="M25.811 55.387l-5.983 2.943c-.584.545-6.466 6.003-6.271 7.1.194 1.099 14.674-5.979 14.674-5.979l-2.42-4.064z" transform="translate(208.44 158.412) translate(0 54.79)"/>
                            <path fill="#74E199" d="M23.485 52.561L19.742 56.391 20.956 58.206 25.111 55.8 24.014 53.659z" transform="translate(208.44 158.412) translate(0 54.79)"/>
                        </g>
                    </g>
                    <g>
                        <path fill="#A1B8E3" d="M12.55 9.898c-4.787 5.66-8.97 8.846-12.55 9.56 4.641.493 7.724.027 9.247-1.396 2.286-2.129 2.847-6.775 3.303-8.164z" transform="translate(254.014 132.624)"/>
                        <path fill="url(#jmtv8pocwX)" d="M16.586 0L5.859 7.234c3.963 5.455 2.338 9.49-.43 12.358 5.285-.491 11.58-6.482 12.352-9.56.773-3.079 1.46-4.576-1.195-10.032z" transform="translate(254.014 132.624)"/>
                    </g>
                    <g>
                        <path fill="url(#qebj3uu93Y)" d="M12.317 7.35c-2.571.725-4.183 3.406-4.883 6.158-2.427-1.706-4.7-3.602-6.796-5.668-.103-.098-.24-.483-.322-.58-.29-.49-.332-1.076-.117-1.599.638-1.617.953-3.059 2.36-4.357C3.062.81 3.626.371 4.238 0c1.302.49 2.359 2.57 8.078 7.35z" transform="translate(148.085 209.988)"/>
                        <path fill="#FF9600" d="M1.57 6.157c-.432.05-.803.317-.968.7-.165.384-.099.822.173 1.146C.231 7.47-.048 6.742.007 6.001.04 5.453.178 2.889 4.217.026.92 2.576 0 4.586 1.572 6.157z" transform="translate(148.085 209.988)"/>
                    </g>
                    <path fill="url(#t06dav5yqZ)" d="M296.746 162.388c.023-.168.167-.293.337-.292.168-.001.31.125.33.292v1.499c.017.128-.042.255-.152.324-.11.07-.252.07-.362 0-.108-.071-.167-.196-.153-.324v-1.499zm-2.268 1.22c-.097-.135-.082-.319.035-.436.117-.117.301-.131.435-.035l1.042 1.03c.119.126.119.323 0 .45-.13.113-.322.113-.45 0l-1.043-1.041-.019.031zm-.756 2.495c-.167-.02-.293-.162-.292-.33-.002-.17.124-.314.292-.337h1.5c.127-.014.253.045.323.153.07.11.07.251 0 .361-.068.11-.195.17-.324.153h-1.499zm1.22 2.273c-.13.113-.322.113-.451 0-.115-.126-.115-.318 0-.444l1.054-1.067c.083-.097.212-.14.337-.114.126.029.223.127.252.253.028.126-.018.257-.118.337l-1.055 1.06-.02-.025zm2.484.711c.017.129-.043.256-.153.324-.11.07-.251.07-.362 0-.107-.07-.164-.196-.146-.324v-1.51c-.018-.128.039-.254.146-.325.11-.07.252-.07.362 0 .11.069.17.196.153.324v1.511zm2.274-1.212c.097.133.082.318-.035.435-.116.116-.3.131-.435.034l-1.067-1.06c-.132-.132-.132-.345 0-.476.131-.132.345-.132.476 0l1.061 1.067zm.744-2.47c.128-.015.253.044.323.152.07.11.07.251 0 .362-.068.11-.195.17-.323.152h-1.493c-.166-.022-.291-.163-.293-.33.002-.169.126-.312.293-.337h1.493zm-1.214-2.268c.08-.101.212-.146.337-.114.122.031.217.128.245.251.028.124-.015.252-.112.333l-1.06 1.054c-.134.109-.327.1-.45-.021-.122-.12-.134-.314-.027-.448l1.067-1.055z"/>
                    <path fill="url(#ov1r9szd6aa)" d="M100.912 87.48c.02-.167.162-.293.331-.292.17-.001.315.124.337.292v1.497c.015.128-.044.253-.152.324-.11.07-.252.07-.363 0-.11-.069-.17-.195-.153-.324V87.48zm-2.278 1.218c-.113-.129-.113-.321 0-.45.126-.115.319-.115.445 0l1.05 1.034c.097.134.083.318-.035.434-.117.117-.301.132-.436.035l-1.05-1.04.026-.013zm-.758 2.462c-.166-.022-.29-.163-.293-.33 0-.169.126-.31.293-.33h1.502c.14-.05.295-.001.383.117.089.119.089.281 0 .4-.088.119-.243.166-.383.117l-1.502.026zm1.222 2.271c-.125.118-.32.118-.445 0-.115-.126-.115-.318 0-.444l.986-1.085c.078-.1.207-.147.331-.12.126.03.225.128.255.253.026.125-.018.254-.115.336l-1.063 1.06h.051zm2.476.742c.014.13-.045.257-.153.33-.11.07-.252.07-.362 0-.11-.072-.17-.2-.153-.33v-1.51c-.017-.128.042-.255.153-.323.11-.07.252-.07.362 0 .108.07.167.195.153.323v1.51zm2.272-1.211c.097.133.082.318-.035.434-.117.117-.302.132-.436.035l-1.088-1.079c-.119-.126-.119-.323 0-.45.125-.118.32-.118.445 0l1.114 1.06zm.751-2.462c.13-.019.257.041.325.152.07.108.07.247 0 .355-.068.112-.196.172-.325.153h-1.502c-.166-.022-.29-.163-.293-.33 0-.169.125-.31.293-.33h1.502zm-1.222-2.271c.08-.102.212-.147.338-.115.125.028.223.124.254.248.026.126-.02.255-.12.336l-1.09 1.053c-.133.097-.318.082-.435-.035-.117-.116-.132-.3-.035-.434l1.088-1.053z"/>
                    <g>
                        <path fill="#A1B8E3" d="M2.601 1.159c-.55.539-1.059 1.116-1.525 1.726C.476 3.713.106 4.68 0 5.69c.333.22 2.23-1.053 2.601-2.086.22-.8.22-1.645 0-2.445z" transform="translate(192.427 93.328)"/>
                        <path fill="url(#6cycqfq0pab)" d="M18.476 11.342C14.098 8.33 11.816 4.568 11.628.056c-1.14-.176-3.35.038-8.899 1.015-.512.094-.557.92-.134 2.489C.724 4.26-.128 4.92.032 5.545c1.358 5.45 3.146 7.94 5.85 9.106 3.104.415 7.302-.687 12.594-3.309z" transform="translate(192.427 93.328)"/>
                    </g>
                    <g fill-rule="nonzero">
                        <path fill="url(#cnc0izi4lac)" d="M51.586 16.457l-1.895 5.438-8.563 24.625c-.27.993-1.286 1.577-2.27 1.306L8.358 36.61l-7.256-2.664C.2 33.51-.226 32.453.12 31.505l2.076-5.974 8.408-24.155c.124-.48.434-.888.86-1.133.426-.246.932-.308 1.403-.173L36.601 8.8l14.047 5.196c.895.454 1.301 1.52.938 2.462z" transform="translate(144.39 33.156)"/>
                        <path fill="url(#uqwkxib9ead)" d="M51.58 16.098l-.505 1.436c-.27.986-1.277 1.568-2.257 1.305L11.153 5.26c-.922-.414-1.345-1.497-.951-2.435l.524-1.436c.13-.47.44-.87.86-1.11.425-.24.927-.301 1.397-.17l37.659 13.58c.922.413 1.34 1.5.938 2.435v-.026z" transform="translate(144.39 33.156)"/>
                        <path fill="url(#urfaf9o7dae)" d="M4.905 29.01l6.422-18.533c.165-.469.509-.851.955-1.062.446-.211.957-.233 1.419-.061l7.586 2.787c.95.347 1.443 1.403 1.106 2.364l-6.468 18.54c-.16.464-.498.845-.937 1.058-.44.213-.944.241-1.404.078l-7.58-2.794c-.457-.168-.83-.512-1.037-.958-.206-.446-.228-.956-.062-1.418z" transform="translate(144.39 33.156)"/>
                        <path fill="url(#7bydgykp6af)" d="M23.285 15.301c.167-.438.646-.666 1.087-.516l10.761 3.682c.424.146.652.61.511 1.038-.164.438-.641.666-1.08.516L23.79 16.326c-.202-.068-.368-.215-.461-.408-.094-.192-.107-.414-.037-.617h-.007z" transform="translate(144.39 33.156)"/>
                        <path fill="url(#oc01j1ee0ag)" d="M21.824 21.177c.147-.443.621-.682 1.06-.536l20.825 7.887c.452.171.687.675.53 1.136-.073.213-.228.388-.43.486-.2.098-.432.11-.643.036L22.36 22.293c-.44-.174-.674-.66-.536-1.116z" transform="translate(144.39 33.156)"/>
                        <path fill="url(#mxvex6b6sah)" d="M20.388 25.505c.15-.44.623-.676 1.06-.529l20.825 7.88c.452.171.687.675.53 1.136-.152.444-.632.68-1.073.529l-20.805-7.88c-.453-.172-.69-.673-.537-1.136z" transform="translate(144.39 33.156)"/>
                        <path fill="url(#43slryws3ai)" d="M18.959 29.827c.074-.21.228-.382.429-.478.2-.096.43-.107.638-.031l17.992 6.528c.208.075.378.231.473.433.095.202.106.434.031.644-.07.21-.22.38-.418.477-.197.095-.424.107-.63.032L19.47 30.904c-.21-.074-.381-.23-.477-.431-.096-.203-.108-.435-.033-.646z" transform="translate(144.39 33.156)"/>
                    </g>
                    <g>
                        <path fill="#ED3D48" d="M23.601 0h11.633L17.785 30.393l-5.765-10.39L23.601 0zm-5.9 30.393h21.973l5.9 10.131H23.737l-6.036-10.131zM6.973 28.64l7.245 11.748H0L6.973 28.64z" transform="translate(175.183 146.132)"/>
                    </g>
                    <path fill="#FFF" fill-rule="nonzero" d="M234.306 119.92v-8.655c0-.532.213-1.042.59-1.413.378-.372.888-.573 1.415-.56l42.92.915c1.05.039 1.882.91 1.882 1.973v8.647c0 .529-.21 1.036-.584 1.407-.373.37-.878.575-1.401.566l-42.915-.895c-1.065-.025-1.914-.909-1.907-1.986z"/>
                    <path fill="#CBDBF9" fill-rule="nonzero" d="M251.362 113.196c.11 0 .195.238.188.513-.006.275-.079.458-.17.495h-.036l-5.763-.23c-.11 0-.195-.228-.189-.512.006-.284.073-.45.17-.486h.031l5.769.22zM264.9 118.404c.116 0 .206.163.2.366-.007.202-.078.32-.18.346h-.033l-19.295-.51c-.115 0-.205-.17-.199-.365-.01-.143.06-.28.18-.353h.039l19.288.516zM273.522 116.046c.116 0 .206.145.2.313-.007.167-.084.279-.18.301h-.04l-27.91-.614c-.116 0-.206-.145-.2-.313.007-.167.084-.279.181-.301h.039l27.91.614z"/>
                    <ellipse cx="239.849" cy="114.818" fill="url(#7a2tljbo3aj)" fill-rule="nonzero" rx="3.079" ry="3.07"/>
                    <circle cx="239.849" cy="114.818" r="1" fill="#FFF" fill-rule="nonzero"/>
                    <path fill="#FFF" fill-rule="nonzero" d="M239.236 115.432c-.327-.001-.64.127-.872.358-.232.23-.362.543-.362.87h2.463c0-.678-.55-1.228-1.229-1.228z"/>
                </g>
            </g>
            <g mask="url(#mnu1lg3zjb)" opacity=".2">
                <g>
                    <path fill="url(#8trxbbhjqak)" d="M125 86.995V304c-24.305-45.68-42.475-94.399-54.034-144.883C50.184 68.116 57.776-3.263 83.673.115c17.238 2.303 31.3 41.85 41.327 86.88z" transform="matrix(-1 0 0 1 112 403)"/>
                    <path fill="url(#yrii633r8al)" d="M125 269.498V328h-24.367c-15.67-22.629-34.246-50.607-50.269-78.151C18.09 194.523-4.19 140.987 26.931 136.352c15.567-2.318 30.179 6.994 43.483 22.66 22.893 26.954 41.79 72.76 54.586 110.486z" transform="matrix(-1 0 0 1 112 403)"/>
                    <path stroke="#FFF" stroke-width=".949" d="M86 33c.686 24.932 1.403 80.76 39 220" transform="matrix(-1 0 0 1 112 403)"/>
                </g>
            </g>
            <path fill="#FFB29C" fill-rule="nonzero" d="M220.574 204.027l1.005-3.495s.729 0 .584 1.316c-.19 1.188-.492 2.356-.9 3.488l-.69-1.31z" mask="url(#mnu1lg3zjb)"/>
        </g>
    </g>
</svg>
