<?xml version="1.0" encoding="UTF-8"?>
<svg width="44px" height="59px" viewBox="0 0 44 59" version="1.1" xmlns="http://www.w3.org/2000/svg" xmlns:xlink="http://www.w3.org/1999/xlink">
    <title>doc-grey</title>
    <g id="General" stroke="none" stroke-width="1" fill="none" fill-rule="evenodd">
        <g id="doc-grey" fill-rule="nonzero">
            <g id="pptx-grey" transform="translate(0.000000, 0.000000)">
                <g id="Group-12-Copy-3" transform="translate(0.000000, 0.000000)">
                    <path d="M2.45833333,5.83262907e-13 L25.4661894,5.83262907e-13 L25.4661894,5.83262907e-13 L44,18.4567352 L44,56.5416667 C44,57.8993667 42.8993667,59 41.5416667,59 L2.45833333,59 C1.10063332,59 0,57.8993667 0,56.5416667 L0,2.45833333 C0,1.10063332 1.10063332,5.83262907e-13 2.45833333,5.83262907e-13 Z" id="Path-3" fill="#C1D1E0"></path>
                    <polygon id="Fill-7" fill="#C1D1E0" opacity="0.295503162" style="mix-blend-mode: multiply;" points="44 36.1800276 44 18.3683041 25.4661894 16.2345715"></polygon>
                    <path d="M25.4661894,3.18971902e-14 L25.4661894,15.9866444 C25.4661894,17.3443444 26.5668227,18.4449777 27.9245227,18.4449777 C27.9284325,18.4449777 27.9323423,18.4449777 27.9362521,18.4449777 L44,18.3683041 L44,18.3683041 L25.4661894,3.18971902e-14 Z" id="Path-2" fill="#F2F6FA"></path>
                </g>
            </g>
            <path d="M13.43,49 C14.21,49 14.8983333,48.8583333 15.495,48.575 C16.0916667,48.2916667 16.555,47.8866667 16.885,47.36 C17.215,46.8333333 17.38,46.2133333 17.38,45.5 C17.38,44.7866667 17.215,44.1666667 16.885,43.64 C16.555,43.1133333 16.0916667,42.7083333 15.495,42.425 C14.8983333,42.1416667 14.21,42 13.43,42 L13.43,42 L9.98,42 L9.98,49 L13.43,49 Z M13.33,47.16 L12.34,47.16 L12.34,43.84 L13.33,43.84 C13.8366667,43.84 14.2416667,43.985 14.545,44.275 C14.8483333,44.565 15,44.9733333 15,45.5 C15,46.0266667 14.8483333,46.435 14.545,46.725 C14.2416667,47.015 13.8366667,47.16 13.33,47.16 L13.33,47.16 Z M21.91,49.16 C22.6633333,49.16 23.34,49.0033333 23.94,48.69 C24.54,48.3766667 25.01,47.9416667 25.35,47.385 C25.69,46.8283333 25.86,46.2 25.86,45.5 C25.86,44.8 25.69,44.1716667 25.35,43.615 C25.01,43.0583333 24.54,42.6233333 23.94,42.31 C23.34,41.9966667 22.6633333,41.84 21.91,41.84 C21.1566667,41.84 20.48,41.9966667 19.88,42.31 C19.28,42.6233333 18.81,43.0583333 18.47,43.615 C18.13,44.1716667 17.96,44.8 17.96,45.5 C17.96,46.2 18.13,46.8283333 18.47,47.385 C18.81,47.9416667 19.28,48.3766667 19.88,48.69 C20.48,49.0033333 21.1566667,49.16 21.91,49.16 Z M21.91,47.25 C21.6166667,47.25 21.3516667,47.1783333 21.115,47.035 C20.8783333,46.8916667 20.69,46.6883333 20.55,46.425 C20.41,46.1616667 20.34,45.8533333 20.34,45.5 C20.34,45.1466667 20.41,44.8383333 20.55,44.575 C20.69,44.3116667 20.8783333,44.1083333 21.115,43.965 C21.3516667,43.8216667 21.6166667,43.75 21.91,43.75 C22.2033333,43.75 22.4683333,43.8216667 22.705,43.965 C22.9416667,44.1083333 23.13,44.3116667 23.27,44.575 C23.41,44.8383333 23.48,45.1466667 23.48,45.5 C23.48,45.8533333 23.41,46.1616667 23.27,46.425 C23.13,46.6883333 22.9416667,46.8916667 22.705,47.035 C22.4683333,47.1783333 22.2033333,47.25 21.91,47.25 Z M30.34,49.16 C31.02,49.16 31.6266667,49.04 32.16,48.8 C32.6933333,48.56 33.1333333,48.2133333 33.48,47.76 L33.48,47.76 L31.99,46.43 C31.5566667,46.9766667 31.0466667,47.25 30.46,47.25 C29.9666667,47.25 29.57,47.0916667 29.27,46.775 C28.97,46.4583333 28.82,46.0333333 28.82,45.5 C28.82,44.9666667 28.97,44.5416667 29.27,44.225 C29.57,43.9083333 29.9666667,43.75 30.46,43.75 C31.0466667,43.75 31.5566667,44.0233333 31.99,44.57 L31.99,44.57 L33.48,43.24 C33.1333333,42.7866667 32.6933333,42.44 32.16,42.2 C31.6266667,41.96 31.02,41.84 30.34,41.84 C29.6,41.84 28.9333333,41.995 28.34,42.305 C27.7466667,42.615 27.2816667,43.0483333 26.945,43.605 C26.6083333,44.1616667 26.44,44.7933333 26.44,45.5 C26.44,46.2066667 26.6083333,46.8383333 26.945,47.395 C27.2816667,47.9516667 27.7466667,48.385 28.34,48.695 C28.9333333,49.005 29.6,49.16 30.34,49.16 Z" id="DOC" fill="#7F93A8"></path>
        </g>
    </g>
</svg>