<svg xmlns="http://www.w3.org/2000/svg" width="44" height="59" viewBox="0 0 44 59">
    <g fill="none" fill-rule="evenodd">
        <g fill-rule="nonzero">
            <g>
                <g>
                    <g>
                        <g>
                            <g>
                                <path fill="#C1D1E0" d="M2.458 0h23.008L44 18.457v38.085C44 57.899 42.9 59 41.542 59H2.458C1.101 59 0 57.9 0 56.542V2.458C0 1.101 1.1 0 2.458 0z" transform="translate(-4927.000000, -488.000000) translate(4530.000000, 89.000000) translate(288.000000, 336.000000) translate(16.000000, 16.000000) translate(93.000000, 47.000000) translate(0.000000, 0.000000)"/>
                                <path fill="#C1D1E0" style="mix-blend-mode:multiply" d="M44 36.18L44 18.368 25.466 16.235z" opacity=".296" transform="translate(-4927.000000, -488.000000) translate(4530.000000, 89.000000) translate(288.000000, 336.000000) translate(16.000000, 16.000000) translate(93.000000, 47.000000) translate(0.000000, 0.000000)"/>
                                <path fill="#F2F6FA" d="M25.466 0v15.987c0 1.357 1.1 2.458 2.459 2.458h.011L44 18.368 25.466 0z" transform="translate(-4927.000000, -488.000000) translate(4530.000000, 89.000000) translate(288.000000, 336.000000) translate(16.000000, 16.000000) translate(93.000000, 47.000000) translate(0.000000, 0.000000)"/>
                            </g>
                            <path fill="#7F93A8" d="M9.955 49.167c.763 0 1.436-.14 2.019-.418.583-.279 1.036-.677 1.36-1.195.322-.518.483-1.128.483-1.829 0-.701-.161-1.311-.484-1.829-.323-.518-.776-.916-1.359-1.195-.583-.278-1.256-.418-2.02-.418H6.583v6.884h3.373zm-.098-1.81H8.89v-3.264h.968c.495 0 .891.142 1.188.427.297.286.445.687.445 1.205s-.148.92-.445 1.205c-.297.285-.693.427-1.188.427zm8.628 1.967c.737 0 1.399-.154 1.985-.462.587-.308 1.047-.736 1.379-1.283.332-.548.499-1.166.499-1.854 0-.688-.167-1.306-.499-1.854-.332-.547-.792-.975-1.379-1.283-.586-.308-1.248-.462-1.985-.462-.736 0-1.398.154-1.984.462-.587.308-1.047.736-1.38 1.283-.332.548-.498 1.166-.498 1.854 0 .688.166 1.306.499 1.854.332.547.792.975 1.379 1.283.586.308 1.248.462 1.984.462zm0-1.878c-.286 0-.545-.07-.777-.212-.231-.14-.415-.34-.552-.6-.137-.258-.206-.562-.206-.909s.069-.65.206-.91c.137-.259.32-.458.552-.6.232-.14.49-.21.777-.21.287 0 .546.07.778.21.231.142.415.341.552.6.137.26.206.563.206.91 0 .347-.069.65-.206.91-.137.259-.32.458-.552.6-.232.14-.49.21-.778.21zm8.482 1.878c.665 0 1.258-.118 1.78-.354.521-.236.951-.577 1.29-1.023L28.58 46.64c-.423.538-.922.807-1.496.807-.482 0-.87-.156-1.163-.467-.293-.312-.44-.73-.44-1.254s.147-.942.44-1.254c.293-.311.681-.467 1.163-.467.574 0 1.073.269 1.496.806l1.457-1.307c-.339-.446-.769-.787-1.29-1.023-.522-.236-1.115-.354-1.78-.354-.723 0-1.375.152-1.955.457-.58.305-1.035.731-1.364 1.279-.33.547-.494 1.168-.494 1.863 0 .695.164 1.316.494 1.863.329.548.783.974 1.364 1.279.58.305 1.232.457 1.955.457zm5.871-.157l1.154-1.84 1.183 1.84h2.64l-2.523-3.56 2.376-3.324h-2.483l-1.134 1.731-1.164-1.73h-2.591l2.386 3.412-2.474 3.47h2.63z" transform="translate(-4927.000000, -488.000000) translate(4530.000000, 89.000000) translate(288.000000, 336.000000) translate(16.000000, 16.000000) translate(93.000000, 47.000000)"/>
                        </g>
                    </g>
                </g>
            </g>
        </g>
    </g>
</svg>
