<svg width="92" height="75" viewBox="0 0 92 75" fill="none" xmlns="http://www.w3.org/2000/svg">
<g opacity="0.2">
<path fill-rule="evenodd" clip-rule="evenodd" d="M89.2609 13.4422C88.2591 12.4108 86.8824 11.8154 85.4287 11.8154L29.7472 11.8154C28.2936 11.8154 26.9168 12.4108 25.915 13.4422C24.916 14.4709 24.3689 15.8488 24.3689 17.2687V58.9633C24.3689 60.3832 24.916 61.7611 25.915 62.7898C26.9168 63.8212 28.2936 64.4166 29.7472 64.4166H71.8447L81.9366 73.1515C82.718 73.8278 83.6802 74.2678 84.7122 74.4085C85.7446 74.5491 86.792 74.3825 87.7285 73.9334C88.664 73.4848 89.4433 72.7765 89.984 71.9032C90.5242 71.0306 90.807 70.0249 90.807 69.0038L90.807 17.2687C90.807 15.8488 90.2599 14.4709 89.2609 13.4422Z" fill="#FAB1A5" stroke="white" stroke-linecap="round" stroke-linejoin="round"/>
<path fill-rule="evenodd" clip-rule="evenodd" d="M89.2609 13.4422C88.2591 12.4108 86.8824 11.8154 85.4287 11.8154L31.2923 11.8154C29.8386 11.8154 28.4619 12.4108 27.4601 13.4422C26.461 14.4709 25.914 15.8488 25.914 17.2687L24.3689 58.9633C24.3689 60.3832 24.916 61.7611 25.915 62.7898C26.9168 63.8212 28.2936 64.4166 29.7472 64.4166H71.8447L81.9366 73.1515C82.718 73.8278 83.6802 74.2678 84.7122 74.4085C85.7446 74.5491 86.792 74.3825 87.7285 73.9334C88.664 73.4848 89.4433 72.7765 89.984 71.9032C90.5242 71.0306 90.807 70.0249 90.807 69.0038L90.807 17.2687C90.807 15.8488 90.2599 14.4709 89.2609 13.4422Z" stroke="white" stroke-linecap="round" stroke-linejoin="round"/>
<path d="M0.69287 57.8953L0.692872 57.8961C0.694471 58.8285 0.935401 60.258 1.54047 61.2465C2.13792 62.2224 3.13123 63.0556 4.14021 63.5449C5.16492 64.0419 6.31193 64.2266 7.44292 64.0707C8.57316 63.915 9.62536 63.4279 10.4789 62.6811C10.4791 62.6809 10.4793 62.6807 10.4795 62.6805L20.3431 54.1394H62.2541C63.8471 54.1394 65.3531 53.4795 66.447 52.3406C67.5375 51.2052 68.1324 49.6868 68.1324 48.1247V6.51475C68.1324 4.95265 67.5375 3.43427 66.447 2.29881C65.3531 1.15991 63.8471 0.5 62.2541 0.5H6.57119C4.97817 0.5 3.47218 1.15991 2.37837 2.29881C1.28786 3.43426 0.692871 4.95264 0.692871 6.51475L0.69287 57.8953Z" fill="white" stroke="white" stroke-linecap="round" stroke-linejoin="round"/>
<path fill-rule="evenodd" clip-rule="evenodd" d="M2.73899 2.62681C3.74079 1.59535 5.11752 1 6.57119 1L62.2526 1C63.7063 1 65.083 1.59534 66.0848 2.62681C67.0839 3.65545 67.631 5.03334 67.631 6.45326V48.1479C67.631 49.5678 67.0839 50.9457 66.0848 51.9743C65.083 53.0058 63.7063 53.6011 62.2526 53.6011H20.1552L10.0632 62.336C9.28183 63.0124 8.31972 63.4524 7.28767 63.593C6.25526 63.7337 5.20786 63.5671 4.2714 63.118C3.33583 62.6694 2.55656 61.9611 2.01591 61.0877C1.47571 60.2151 1.19287 59.2095 1.19287 58.1884L1.19287 6.45326C1.19287 5.03334 1.73993 3.65544 2.73899 2.62681ZM19.226 20.9314C19.226 19.8831 20.0759 19.0332 21.1243 19.0332H51.496C52.5443 19.0332 53.3942 19.8831 53.3942 20.9314C53.3942 21.9798 52.5443 22.8297 51.496 22.8297H21.1243C20.0759 22.8297 19.226 21.9798 19.226 20.9314ZM19.226 36.1173C19.226 35.0689 20.0759 34.219 21.1243 34.219H51.496C52.5443 34.219 53.3942 35.0689 53.3942 36.1173C53.3942 37.1656 52.5443 38.0155 51.496 38.0155H21.1243C20.0759 38.0155 19.226 37.1656 19.226 36.1173Z" fill="#4690A4"/>
</g>
</svg>
