<?xml version="1.0" encoding="UTF-8"?>
<svg width="240px" height="92px" viewBox="0 0 240 92" version="1.1" xmlns="http://www.w3.org/2000/svg" xmlns:xlink="http://www.w3.org/1999/xlink">
    <title>Illustration / Open Google Drive / Access Copy</title>
    <defs>
        <linearGradient x1="50%" y1="19.6859798%" x2="-28.1184467%" y2="202.698743%" id="linearGradient-1">
            <stop stop-color="#EEF3FF" offset="0%"></stop>
            <stop stop-color="#6B9AD9" offset="100%"></stop>
        </linearGradient>
        <linearGradient x1="84.3552905%" y1="31.6302398%" x2="25.1634099%" y2="98.6000714%" id="linearGradient-2">
            <stop stop-color="#E5EDFF" offset="0%"></stop>
            <stop stop-color="#6B9AD9" offset="100%"></stop>
        </linearGradient>
        <linearGradient x1="50%" y1="22.326025%" x2="-33.8592349%" y2="189.400224%" id="linearGradient-3">
            <stop stop-color="#EEF3FF" offset="0%"></stop>
            <stop stop-color="#6B9AD9" offset="100%"></stop>
        </linearGradient>
    </defs>
    <g id="Open-Drive" stroke="none" stroke-width="1" fill="none" fill-rule="evenodd">
        <g id="Group" transform="translate(0.000000, 0.884798)">
            <g id="Group-3-Copy" transform="translate(1.000000, 0.000000)">
                <path id="Path-8" d="M171.253898,60.4027082 L171.319196,62.2015234 C170.003672,62.249278 168.671217,62.2836582 167.315047,62.304824 L166.59692,62.313857 L166.59692,62.313857 L165.881651,62.3185829 L165.875157,60.5185946 C166.343883,60.5169035 166.814507,60.51239 167.287009,60.5050423 C168.63081,60.4840697 169.950864,60.4500094 171.253898,60.4027082 Z M155.169201,60.042204 C156.484288,60.1671755 157.814125,60.2678674 159.159649,60.3439646 L160.510436,60.4118519 L160.431315,62.2101121 C159.052444,62.1494438 157.689562,62.0636415 156.341745,61.9530175 L154.998916,61.8341311 L155.169201,60.042204 Z M181.964946,59.6759196 L182.147732,61.4666149 C180.822768,61.6018606 179.476681,61.7212052 178.109468,61.8246533 L176.735213,61.9228028 L176.614489,60.1268557 C178.435701,60.0044337 180.219189,59.8541179 181.964946,59.6759196 Z M144.577397,58.4547615 C145.876243,58.7237231 147.187907,58.9669288 148.513854,59.1841049 L149.844615,59.3925942 L149.578322,61.1727874 C148.127156,60.9557124 146.692925,60.7083324 145.273873,60.4309881 L144.212401,60.217367 L144.577397,58.4547615 Z M192.593445,58.1603256 L192.924676,59.9295871 C191.528113,60.1910433 190.103221,60.4311176 188.649998,60.6498204 L187.554768,60.8098405 L187.302125,59.0276588 C189.110349,58.7713244 190.874124,58.4822067 192.593445,58.1603256 Z M134.226737,55.6913597 C135.496557,56.1083142 136.774326,56.4986923 138.062477,56.8624873 L139.354179,57.217421 L138.889574,58.9564273 C137.569613,58.6037777 136.261131,58.2240597 134.961698,57.8172992 L133.665192,57.4015255 L134.226737,55.6913597 Z M202.996493,55.6512226 L203.516635,57.3744325 C202.155235,57.7853639 200.760014,58.1706904 199.330974,58.5304293 L198.252852,58.7954361 L197.832875,57.0451165 C199.607042,56.6194165 201.328247,56.1547738 202.996493,55.6512226 Z M212.970854,51.8880286 L213.729193,53.5204876 C212.43475,54.1218056 211.099628,54.6922535 209.723847,55.2318554 L208.684389,55.6307737 L208.05169,53.9456351 C209.754761,53.3062031 211.394471,52.6203185 212.970854,51.8880286 Z M124.258572,51.8191654 C125.493634,52.3721838 126.726603,52.8977991 127.962073,53.39698 L129.198548,53.8873854 L128.545724,55.56483 C127.286813,55.0748898 126.032378,54.5585459 124.777786,54.0148471 L123.52297,53.4619948 L124.258572,51.8191654 Z M2.51958098,48.8724796 L3.92697959,49.9946334 C3.05205799,51.0919549 2.1970594,52.2259773 1.36199027,53.3967178 L0.739425298,54.2816581 L-0.739425298,53.2554998 C0.314531721,51.736587 1.40086293,50.2755691 2.51958098,48.8724796 Z M114.655227,47.0191738 C115.950767,47.7280885 117.217881,48.399751 118.471086,49.0403446 L119.408608,49.5150609 L118.601697,51.1240652 C117.33861,50.4906308 116.065857,49.8276884 114.768776,49.1290227 L113.791174,48.5982282 L114.655227,47.0191738 Z M222.191074,46.5714133 L223.234861,48.0378742 C222.013835,48.9069678 220.740373,49.7363211 219.414536,50.5259488 L218.612749,50.9949586 L217.716078,49.434195 C219.282138,48.5344821 220.773769,47.580213 222.191074,46.5714133 Z M9.94345442,40.8484481 L11.166524,42.1690922 C10.1351923,43.1242249 9.12600299,44.1200277 8.13895113,45.1565279 L7.40281294,45.9415343 L6.08043428,44.7203403 C7.33203087,43.3650399 8.6197074,42.0743914 9.94345442,40.8484481 Z M105.349207,41.6292976 C106.89078,42.5569749 108.224191,43.3500669 109.503541,44.0977202 L109.981064,44.3761343 L109.076038,45.9320678 C107.800097,45.1899027 106.490399,44.4139788 104.992107,43.5147449 L104.421105,43.1715771 L105.349207,41.6292976 Z M230.127632,39.5062346 L231.469596,40.7058727 C230.457466,41.8380829 229.386211,42.9258858 228.255917,43.9692356 L227.570657,44.5899108 L226.374885,43.2445003 C227.708308,42.0593821 228.959174,40.81332 230.127632,39.5062346 Z M238.840622,28.2792006 L238.741812,29.8475196 L237.944731,42.4987908 L236.148293,42.385608 L236.732,33.109 L234.655406,36.259632 L233.152784,35.2686082 L235.229,32.119 L226.933852,36.3084098 L226.122469,34.7016564 L237.437901,28.9875515 L238.840622,28.2792006 Z M96.0697892,36.0487341 C97.3320179,36.7910996 98.617597,37.5599293 100.286938,38.5680828 L100.712477,38.8252303 L99.7811468,40.3655625 C98.0506136,39.3192308 96.7338095,38.5298926 95.4718258,37.7855516 L95.1572643,37.6002811 L96.0697892,36.0487341 Z M18.5709256,34.1044548 L19.5537759,35.6124353 C18.3701221,36.3839005 17.2102169,37.1986813 16.0740361,38.0568058 L15.2263483,38.7085266 L14.1170753,37.2909536 C15.5631917,36.1593448 17.0478243,35.0971602 18.5709256,34.1044548 Z M86.5422532,30.8291751 C87.8376934,31.470715 89.1590123,32.1586643 90.5312295,32.9038538 L91.3608678,33.357923 L90.4916332,34.9341309 C89.1165862,34.1758309 87.7981459,33.4769085 86.5116745,32.8266278 L85.7434309,32.4422104 L86.5422532,30.8291751 Z M28.2820302,28.9351397 L28.9845186,30.5923995 C27.6733624,31.1481796 26.3863791,31.7476455 25.1235318,32.3908096 L24.1809213,32.8813763 L23.3359105,31.2920505 C24.9459387,30.4360326 26.5946693,29.6503875 28.2820302,28.9351397 Z M76.4658766,26.6103934 C77.8215678,27.0644717 79.1795927,27.5680102 80.5489482,28.1224884 L81.5782298,28.5479214 L80.8788591,30.2064993 C79.5360742,29.6402887 78.2078115,29.1246451 76.8852171,28.6580096 L75.8941957,28.3171977 L76.4658766,26.6103934 Z M38.6506604,25.5404212 L39.0688379,27.2911718 C37.6727391,27.6246385 36.2998283,27.9997085 34.9500747,28.4163752 L33.942101,28.7366746 L33.3827897,27.0257769 C35.1022172,26.4636772 36.858194,25.9685628 38.6506604,25.5404212 Z M65.8038938,24.0659858 C67.2542071,24.2717477 68.6920534,24.5324436 70.122402,24.8475029 L71.1938353,25.0939816 L70.7740577,26.8443492 C69.390854,26.5126257 68.0020655,26.2335538 66.6026681,26.0076193 L65.5510523,25.8481394 L65.8038938,24.0659858 Z M49.4779939,23.8061306 L49.6344661,25.5993167 C48.1955219,25.724878 46.7777495,25.8883024 45.3811335,26.0895755 L44.337638,26.2476268 L44.0552182,24.4699207 C45.8298542,24.1879886 47.6374563,23.9667346 49.4779939,23.8061306 Z M57.5219861,23.4887816 L58.8039826,23.5052972 L59.5729332,23.5254204 L59.5729332,23.5254204 L60.3387062,23.5554381 L60.2564617,25.3535582 C59.7625862,25.3309688 59.2666672,25.3147518 58.7685637,25.3049487 C57.9272401,25.2883906 57.0923582,25.2833517 56.2639171,25.2898292 L55.026086,25.3081826 L54.9866938,23.5086137 L56.2495563,23.4898865 L56.2495563,23.4898865 L57.5219861,23.4887816 Z" fill="#B1CDF9" fill-rule="nonzero"></path>
                <g id="Group" transform="translate(44.974446, 0.000000)" fill-rule="nonzero">
                    <g id="Papper" transform="translate(0.000000, 4.898263)">
                        <path d="M0.420417596,22.0421836 C0.420417596,13.0620347 1.94450086,5.73910508 4.99266738,0.0733946473 C16.4335634,15.3723557 28.535287,22.2974885 41.2978381,20.8487929 C41.6904299,32.3045785 32.8154084,69.0541943 73.4085124,75.6958328 C65.4712278,75.6958328 58.3555174,74.1535322 52.0613811,71.068931 C31.9689236,62.5170702 18.5017804,54.7387497 11.6599516,47.7339694 C4.81812275,40.7291891 1.07161142,32.1652605 0.420417596,22.0421836 Z" id="Papper-base" fill="url(#linearGradient-1)"></path>
                        <path d="M0.244197684,20.8680856 C2.15246064,40.9173188 13.046911,46.5163669 32.9275486,37.6652298 C39.7999888,59.6138726 54.2045147,72.2563688 76.1411261,75.5927184 C53.4423158,75.2204035 35.4184862,70.2217268 22.0696373,60.5966883 C8.72078843,50.9716499 1.44564189,37.7287823 0.244197684,20.8680856 Z" id="Papper-base" fill="url(#linearGradient-2)"></path>
                    </g>
                    <g id="File" transform="translate(58.358051, 0.000000)">
                        <path d="M88.8286064,28.8485212 L48.1466288,0.336410598 C37.3572395,24.5045841 21.4149981,41.6894481 0.319904514,51.8910026 L35.1302427,84.9032258 C62.3654697,74.728 80.2649243,56.0430985 88.8286064,28.8485212 Z" id="File-base" fill="url(#linearGradient-3)"></path>
                        <polygon id="File-base" fill="#C5D7F3" style="mix-blend-mode: multiply;" opacity="0.517118566" points="20.1021208 49.5677792 16.929274 51.7188112 42.8040138 73.2543388 46.6768042 71.1682433"></polygon>
                        <polygon id="File-base" fill="#C5D7F3" style="mix-blend-mode: multiply;" opacity="0.517118566" points="47.1772368 14.5956528 77.703041 34.0425245 75.6334358 37.3590124 45.2459312 17.9595393"></polygon>
                        <polygon id="File-base" fill="#C5D7F3" style="mix-blend-mode: multiply;" opacity="0.517118566" points="42.5976074 22.5648089 73.1234116 42.0116807 71.0538064 45.3281685 40.6663018 25.9286954"></polygon>
                        <polygon id="File-base" fill="#C5D7F3" style="mix-blend-mode: multiply;" opacity="0.517118566" points="52.6926425 41.228185 68.034077 50.7718839 65.9644718 54.0883717 50.7613369 44.5920714"></polygon>
                        <path d="M38.3364269,29.2063596 L48.2520378,36.7549059 C47.9909391,37.3924675 47.6509346,38.1177917 47.2320241,38.9308784 C45.316819,42.6482079 42.6144105,45.8910853 39.3179902,48.4276818 C37.9755325,49.4607036 36.8468712,50.3609043 35.9320063,51.1282839 L25.7313992,43.053273 C26.2283435,42.7544222 26.780006,42.4137691 27.3863866,42.0313138 C31.6368287,39.3504822 35.1029322,35.5681849 37.4261655,31.0756607 C37.7751438,30.4008281 38.0785643,29.7777278 38.3364269,29.2063596 Z" id="File-base" fill="#C5D7F3" style="mix-blend-mode: multiply;" opacity="0.517118566"></path>
                        <path d="M47.012972,48.1099104 L60.752375,59.1480799 C59.1702082,61.5392766 57.4022478,63.5599824 55.4484939,65.2101974 C53.49474,66.8604123 51.4359734,68.0719059 49.2721939,68.8446782 L35.3351421,58.0188499 C38.2724169,56.261258 40.5910299,54.6539079 42.2909812,53.1967996 C43.9909325,51.7396914 45.5649294,50.0440616 47.012972,48.1099104 Z" id="File-base" fill="#C5D7F3" style="mix-blend-mode: multiply;" opacity="0.517118566"></path>
                    </g>
                </g>
                <ellipse id="Oval-2-Copy" stroke="#B1CDF9" stroke-width="1.89" cx="202.385009" cy="46.9677419" rx="3.59795571" ry="3.61290323"></ellipse>
                <ellipse id="Oval-2-Copy-2" stroke="#B1CDF9" stroke-width="1.89" cx="12.592845" cy="24.3870968" rx="3.59795571" ry="3.61290323"></ellipse>
                <g id="Group-9" transform="translate(79.155026, -0.000000)">
                    <rect id="Rectangle-5" fill="#FAAFB1" x="4.07415573" y="0" width="1.74606674" height="9.03225806" rx="0.87303337"></rect>
                    <path d="M4.9471891,-0.140048941 C5.41484957,-0.140048941 5.79396329,0.239064778 5.79396329,0.706725252 L5.79396329,8.32553281 C5.79396329,8.79319329 5.41484957,9.17230701 4.9471891,9.17230701 C4.47952862,9.17230701 4.1004149,8.79319329 4.1004149,8.32553281 L4.1004149,0.706725252 C4.1004149,0.239064778 4.47952862,-0.140048941 4.9471891,-0.140048941 Z" id="Rectangle-5" fill="#D8D8D8" transform="translate(4.947189, 4.516129) rotate(-270.000000) translate(-4.947189, -4.516129) "></path>
                    <path d="M4.9471891,-0.140048941 C5.41484957,-0.140048941 5.79396329,0.239064778 5.79396329,0.706725252 L5.79396329,8.32553281 C5.79396329,8.79319329 5.41484957,9.17230701 4.9471891,9.17230701 C4.47952862,9.17230701 4.1004149,8.79319329 4.1004149,8.32553281 L4.1004149,0.706725252 C4.1004149,0.239064778 4.47952862,-0.140048941 4.9471891,-0.140048941 Z" id="Rectangle-5" fill="#FAAFB1" transform="translate(4.947189, 4.516129) rotate(-270.000000) translate(-4.947189, -4.516129) "></path>
                </g>
                <g id="Group-9-Copy" transform="translate(162.807496, 82.193548)">
                    <path d="M4.49744463,0 C4.99421865,-9.12559065e-17 5.39693356,0.40271491 5.39693356,0.899488927 L5.39693356,7.22954333 C5.39693356,7.72631735 4.99421865,8.12903226 4.49744463,8.12903226 C4.00067062,8.12903226 3.59795571,7.72631735 3.59795571,7.22954333 L3.59795571,0.899488927 C3.59795571,0.40271491 4.00067062,9.12559065e-17 4.49744463,0 Z" id="Rectangle-5" fill="#FAAFB1"></path>
                    <path d="M4.49744463,-0.133098862 C4.97846684,-0.133098862 5.36841238,0.256846678 5.36841238,0.737868879 L5.36841238,7.39116338 C5.36841238,7.87218558 4.97846684,8.26213112 4.49744463,8.26213112 C4.01642243,8.26213112 3.62647689,7.87218558 3.62647689,7.39116338 L3.62647689,0.737868879 C3.62647689,0.256846678 4.01642243,-0.133098862 4.49744463,-0.133098862 Z" id="Rectangle-5" fill="#D8D8D8" transform="translate(4.497445, 4.064516) rotate(-270.000000) translate(-4.497445, -4.064516) "></path>
                    <path d="M4.49744463,-0.133098862 C4.97846684,-0.133098862 5.36841238,0.256846678 5.36841238,0.737868879 L5.36841238,7.39116338 C5.36841238,7.87218558 4.97846684,8.26213112 4.49744463,8.26213112 C4.01642243,8.26213112 3.62647689,7.87218558 3.62647689,7.39116338 L3.62647689,0.737868879 C3.62647689,0.256846678 4.01642243,-0.133098862 4.49744463,-0.133098862 Z" id="Rectangle-5" fill="#FAAFB1" transform="translate(4.497445, 4.064516) rotate(-270.000000) translate(-4.497445, -4.064516) "></path>
                </g>
                <g id="Group-9-Copy-2" transform="translate(44.974446, 67.741935)">
                    <path d="M5.84667802,0 C6.49248425,-1.18632678e-16 7.01601363,0.523529383 7.01601363,1.1693356 L7.01601363,9.66937407 C7.01601363,10.3151803 6.49248425,10.8387097 5.84667802,10.8387097 C5.2008718,10.8387097 4.67734242,10.3151803 4.67734242,9.66937407 L4.67734242,1.1693356 C4.67734242,0.523529383 5.2008718,1.18632678e-16 5.84667802,0 Z" id="Rectangle-5" fill="#FAAFB1"></path>
                    <path d="M5.84667802,-0.134989284 C6.47678898,-0.134989284 6.98759483,0.37581657 6.98759483,1.00592752 L6.98759483,9.83278215 C6.98759483,10.4628931 6.47678898,10.973699 5.84667802,10.973699 C5.21656707,10.973699 4.70576122,10.4628931 4.70576122,9.83278215 L4.70576122,1.00592752 C4.70576122,0.37581657 5.21656707,-0.134989284 5.84667802,-0.134989284 Z" id="Rectangle-5" fill="#D8D8D8" transform="translate(5.846678, 5.419355) rotate(-270.000000) translate(-5.846678, -5.419355) "></path>
                    <path d="M5.84667802,-0.134989284 C6.47678898,-0.134989284 6.98759483,0.37581657 6.98759483,1.00592752 L6.98759483,9.83278215 C6.98759483,10.4628931 6.47678898,10.973699 5.84667802,10.973699 C5.21656707,10.973699 4.70576122,10.4628931 4.70576122,9.83278215 L4.70576122,1.00592752 C4.70576122,0.37581657 5.21656707,-0.134989284 5.84667802,-0.134989284 Z" id="Rectangle-5" fill="#FAAFB1" transform="translate(5.846678, 5.419355) rotate(-270.000000) translate(-5.846678, -5.419355) "></path>
                </g>
            </g>
        </g>
    </g>
</svg>