<svg width="44" height="44" viewBox="0 0 44 44" fill="none" xmlns="http://www.w3.org/2000/svg">
<path fill-rule="evenodd" clip-rule="evenodd" d="M8.03846 7.33325H35.9615C37.3154 7.33325 38.5 8.5777 38.5 9.99992V33.9999C38.5 35.4221 37.3154 36.6666 35.9615 36.6666H8.03846C6.68462 36.6666 5.5 35.4221 5.5 33.9999V9.99992C5.5 8.5777 6.68462 7.33325 8.03846 7.33325ZM35.9615 28.1333V9.99992H8.03846V25.4666L13.7923 19.4221L13.7923 19.4221C14.1308 19.0666 14.3 18.8888 14.8077 18.711C15.3154 18.3555 15.9923 18.3555 16.6692 18.711C16.8385 18.7999 16.9654 18.8888 17.0923 18.9777C17.2192 19.0666 17.3462 19.1555 17.5154 19.2444L24.6231 26.711L27.8385 23.3333C28.0077 23.2444 28.1346 23.1555 28.2615 23.0666C28.3885 22.9777 28.5154 22.8888 28.6846 22.7999C29.1923 22.4444 29.8692 22.4444 30.5462 22.7999C30.8846 22.7999 31.2231 23.1555 31.3923 23.3333L35.9615 28.1333ZM8.03846 29.1999V33.9999H35.9615V32.0444L29.5308 25.2888L26.3154 28.6666C26.1462 28.7555 26.0192 28.8444 25.8923 28.9333C25.7654 29.0221 25.6385 29.111 25.4692 29.1999C24.9615 29.5555 24.2846 29.3777 23.6077 29.1999C23.2692 29.0221 22.9308 28.8444 22.7615 28.6666L15.6538 21.1999L8.03846 29.1999ZM27.445 16.9959C27.445 17.8536 26.7801 18.5489 25.96 18.5489C25.1399 18.5489 24.475 17.8536 24.475 16.9959C24.475 16.1382 25.1399 15.443 25.96 15.443C26.7801 15.443 27.445 16.1382 27.445 16.9959Z" fill="#F1F2F4"/>
</svg>
