<?xml version="1.0" encoding="utf-8"?>
<!-- Generator: Adobe Illustrator 21.0.2, SVG Export Plug-In . SVG Version: 6.00 Build 0)  -->
<svg version="1.1" id="dropbox-transfer" 
	xmlns="http://www.w3.org/2000/svg" 
	xmlns:xlink="http://www.w3.org/1999/xlink" x="0px" y="0px" viewBox="0 0 177 43" style="enable-background:new 0 0 177 43;" xml:space="preserve">
	<style type="text/css">
	.dt0{fill:none;}
	.dt1{fill:#ED3D48;}
	.dt2{fill:#B1CDF9;}
	.dt3{fill:url(#SVGID_1_);}
	.dt4{fill:url(#SVGID_2_);}
	.dt5{fill:url(#SVGID_3_);}
	.dt6{fill:url(#SVGID_4_);}
	.dt7{fill:url(#SVGID_5_);}
	.dt8{fill:url(#SVGID_6_);}
	.dt9{fill:url(#SVGID_7_);}
	.dt10{fill:url(#SVGID_8_);}
	.dt11{fill:url(#SVGID_9_);}
	.dt12{fill:url(#SVGID_10_);}
	.dt13{fill:url(#SVGID_11_);}
	.dt14{fill:url(#SVGID_12_);}
	.dt15{fill:url(#SVGID_13_);}
	.dt16{fill:url(#SVGID_14_);}
	.dt17{fill:url(#SVGID_15_);}
	.dt18{fill:url(#SVGID_16_);}
	.dt19{fill:url(#SVGID_17_);}
	.dt20{fill:url(#SVGID_18_);}
	.dt21{fill:url(#SVGID_19_);}
	.dt22{fill:url(#SVGID_20_);}
	.dt23{fill:url(#SVGID_21_);}
	.dt24{opacity:0.5171;fill:#C5D7F3;enable-background:new    ;}
	.dt25{fill:url(#SVGID_22_);}
	.dt26{fill:url(#SVGID_23_);}
	.dt27{fill:url(#SVGID_24_);}
	.dt28{fill:url(#SVGID_25_);}
	.dt29{fill:url(#SVGID_26_);}
	.dt30{fill:url(#SVGID_27_);}
	.dt31{fill:url(#SVGID_28_);}
	.dt32{fill:url(#SVGID_29_);}
	.dt33{fill:url(#SVGID_30_);}
	.dt34{fill:none;stroke:#B1CDF9;stroke-width:0.63;}
	.dt35{fill:#FAAFB1;}
	.dt36{fill:#007EE5;}
	</style>
	<title>Dropbox share</title>
	<desc>Created with Sketch.</desc>
	<g>
		<path class="dt0" d="M64.9,16.1C64.9,16.1,64.9,16.1,64.9,16.1c0,0.2,0,0.4,0,0.6c0-0.1,0-0.2,0-0.3C64.9,16.3,64.9,16.2,64.9,16.1
		z"/>
		<polygon class="dt1" points="168.2,3.4 158.3,3.4 148.6,21 153.5,30.1 	"/>
		<polygon class="dt1" points="171.6,30.1 153.5,30.1 158.5,39.3 176.5,39.3 	"/>
		<polygon class="dt1" points="144.6,28.8 138.8,39.3 150.6,39.3 144.7,28.8 	"/>
		<path class="dt2" d="M83.5,20.4c-0.6-0.4-1.1-0.7-1.6-0.9L81.6,20c0.4,0.3,0.9,0.5,1.5,0.9L83.5,20.4z"/>
		<path class="dt2" d="M86.5,22.2c-0.5-0.3-1-0.6-1.5-0.9l-0.3,0.5c0.6,0.3,1.1,0.6,1.6,0.9L86.5,22.2z"/>
		<path class="dt2" d="M64.9,16.1C64.9,16.1,64.9,16.1,64.9,16.1c0.1-0.2,0.1-0.4,0.1-0.6c-0.1,0-0.2,0-0.3,0l0.1,0.6
		C64.7,16.1,64.8,16.1,64.9,16.1c0,0,0-0.1,0-0.1C64.8,16,64.9,16.1,64.9,16.1z"/>
		<path class="dt2" d="M49.5,25.1l0.5,0.3c0.3-0.5,0.7-1,1.1-1.4l-0.5-0.4C50.2,24.1,49.9,24.6,49.5,25.1z"/>
		<path class="dt2" d="M51.8,22.2l0.4,0.4c0.4-0.4,0.8-0.9,1.3-1.3l-0.4-0.4C52.7,21.4,52.2,21.8,51.8,22.2z"/>
		<path class="dt2" d="M57.6,17.8l0.3,0.5c0.5-0.3,1.1-0.5,1.6-0.8L59.2,17C58.7,17.2,58.1,17.5,57.6,17.8z"/>
		<path class="dt2" d="M78.5,18.2c0.5,0.3,1,0.5,1.6,0.8l0.3-0.5c-0.6-0.3-1.1-0.6-1.6-0.8L78.5,18.2z"/>
		<path class="dt2" d="M61,16.4l0.2,0.6c0.6-0.2,1.1-0.3,1.7-0.5l-0.1-0.6C62.2,16,61.6,16.2,61,16.4z"/>
		<path class="dt2" d="M54.5,19.8l0.4,0.5c0.5-0.4,1-0.7,1.5-1L56,18.7C55.5,19,55,19.4,54.5,19.8z"/>
		<path class="dt2" d="M119.3,25.2l0.2,0.6c0.6-0.2,1.1-0.5,1.7-0.7l-0.3-0.5C120.4,24.8,119.9,25,119.3,25.2z"/>
		<path class="dt2" d="M115.9,26.3l0.1,0.6c0.6-0.1,1.2-0.3,1.8-0.5l-0.2-0.6C117.1,26,116.5,26.1,115.9,26.3z"/>
		<path class="dt2" d="M112.4,27l0.1,0.6c0.6-0.1,1.2-0.2,1.8-0.3l-0.1-0.6C113.6,26.8,113,26.9,112.4,27z"/>
		<polygon class="dt2" points="122.5,19.5 122.7,20 128.3,17.9 127.5,18.8 128,19.2 128.7,18.3 128,24.1 128.6,24.2 129.5,17.2 
		129.5,16.8 129,16.9 	"/>
		<path class="dt2" d="M108.8,27.3l0,0.6c0.6,0,1.2-0.1,1.8-0.2l-0.1-0.6C110,27.2,109.4,27.3,108.8,27.3z"/>
		<path class="dt2" d="M122.5,23.7l0.3,0.5c0.5-0.3,1-0.6,1.5-1l-0.4-0.5C123.5,23.1,123,23.4,122.5,23.7z"/>

		<rect x="125.2" y="20.8" transform="matrix(0.6129 -0.7901 0.7901 0.6129 32.1061 107.8257)" class="dt2" width="1.8" height="0.6"/>

		<linearGradient id="SVGID_1_" gradientUnits="userSpaceOnUse" x1="-207.9102" y1="402.9836" x2="-208.7488" y2="401.1535" gradientTransform="matrix(24.3294 0 0 -24.9824 5127.3755 10077.7666)">
			<stop offset="0" style="stop-color:#EEF3FF"/>
			<stop offset="1" style="stop-color:#6B9AD9"/>
		</linearGradient>
		<path class="dt3" d="M65.3,18.9c0-0.1,0-0.1,0-0.2C65.3,18.7,65.3,18.8,65.3,18.9z"/>

		<linearGradient id="SVGID_2_" gradientUnits="userSpaceOnUse" x1="-206.9174" y1="402.5287" x2="-207.756" y2="400.6985" gradientTransform="matrix(24.3294 0 0 -24.9824 5127.3755 10077.7666)">
			<stop offset="0" style="stop-color:#EEF3FF"/>
			<stop offset="1" style="stop-color:#6B9AD9"/>
		</linearGradient>
		<path class="dt4" d="M89.2,34.1c-0.2,0-0.3-0.1-0.5-0.1c-0.9,0-1.7-0.1-2.6-0.2C87.2,34,88.2,34.1,89.2,34.1z"/>

		<linearGradient id="SVGID_3_" gradientUnits="userSpaceOnUse" x1="-207.9386" y1="402.9966" x2="-208.7771" y2="401.1664" gradientTransform="matrix(24.3294 0 0 -24.9824 5127.3755 10077.7666)">
			<stop offset="0" style="stop-color:#EEF3FF"/>
			<stop offset="1" style="stop-color:#6B9AD9"/>
		</linearGradient>
		<path class="dt5" d="M65.1,17.7c0-0.2,0-0.4-0.1-0.5C65,17.3,65,17.5,65.1,17.7z"/>

		<linearGradient id="SVGID_4_" gradientUnits="userSpaceOnUse" x1="-207.6042" y1="402.8434" x2="-208.4428" y2="401.0132" gradientTransform="matrix(24.3294 0 0 -24.9824 5127.3755 10077.7666)">
			<stop offset="0" style="stop-color:#EEF3FF"/>
			<stop offset="1" style="stop-color:#6B9AD9"/>
		</linearGradient>
		<path class="dt6" d="M66.5,15.9c-0.5,0-1,0.1-1.5,0.2c0,0.1,0,0.2,0,0.3c0,0.1,0,0.2,0,0.3c0.8,6,4.4,7.6,10.8,4.8
		c1.2,3.7,3,6.7,5.6,8.8c-4.2-4.6-2.7-11.6-2.8-14.3c-4.3,0.5-8.3-1.8-12.1-6.9c-0.9,1.7-1.4,3.8-1.5,6.4c0.5-0.1,1-0.1,1.5-0.2
		L66.5,15.9z M75.4,16.3c0.6,0.2,1.1,0.4,1.7,0.6l-0.2,0.6c-0.6-0.2-1.1-0.4-1.7-0.6L75.4,16.3z M71.8,15.4c0.6,0.1,1.2,0.2,1.8,0.3
		l-0.1,0.6c-0.6-0.1-1.2-0.3-1.7-0.3L71.8,15.4z M69.4,15.2c0.2,0,0.4,0,0.6,0l0,0.6c-0.2,0-0.4,0-0.6,0c-0.4,0-0.8,0-1.2,0l0-0.6
		C68.6,15.2,69,15.2,69.4,15.2z"/>
		<path class="dt2" d="M69.4,15.8c0.2,0,0.4,0,0.6,0l0-0.6c-0.2,0-0.4,0-0.6,0c-0.4,0-0.8,0-1.2,0l0,0.6C68.6,15.8,69,15.8,69.4,15.8
		z"/>

		<linearGradient id="SVGID_5_" gradientUnits="userSpaceOnUse" x1="-207.8302" y1="402.9469" x2="-208.6688" y2="401.1168" gradientTransform="matrix(24.3294 0 0 -24.9824 5127.3755 10077.7666)">
			<stop offset="0" style="stop-color:#EEF3FF"/>
			<stop offset="1" style="stop-color:#6B9AD9"/>
		</linearGradient>
		<path class="dt7" d="M69.4,15.8c0.2,0,0.4,0,0.6,0l0-0.6c-0.2,0-0.4,0-0.6,0c-0.4,0-0.8,0-1.2,0l0,0.6C68.6,15.8,69,15.8,69.4,15.8
		z"/>
		<path class="dt2" d="M73.6,15.8c-0.6-0.1-1.2-0.3-1.8-0.3L71.7,16c0.6,0.1,1.2,0.2,1.7,0.3L73.6,15.8z"/>

		<linearGradient id="SVGID_6_" gradientUnits="userSpaceOnUse" x1="-207.7033" y1="402.8888" x2="-208.5419" y2="401.0587" gradientTransform="matrix(24.3294 0 0 -24.9824 5127.3755 10077.7666)">
			<stop offset="0" style="stop-color:#EEF3FF"/>
			<stop offset="1" style="stop-color:#6B9AD9"/>
		</linearGradient>
		<path class="dt8" d="M73.6,15.8c-0.6-0.1-1.2-0.3-1.8-0.3L71.7,16c0.6,0.1,1.2,0.2,1.7,0.3L73.6,15.8z"/>
		<path class="dt2" d="M77.1,16.9c-0.6-0.2-1.1-0.5-1.7-0.6l-0.2,0.6c0.5,0.2,1.1,0.4,1.7,0.6L77.1,16.9z"/>

		<linearGradient id="SVGID_7_" gradientUnits="userSpaceOnUse" x1="-207.5701" y1="402.8277" x2="-208.4087" y2="400.9976" gradientTransform="matrix(24.3294 0 0 -24.9824 5127.3755 10077.7666)">
			<stop offset="0" style="stop-color:#EEF3FF"/>
			<stop offset="1" style="stop-color:#6B9AD9"/>
		</linearGradient>
		<path class="dt9" d="M77.1,16.9c-0.6-0.2-1.1-0.5-1.7-0.6l-0.2,0.6c0.5,0.2,1.1,0.4,1.7,0.6L77.1,16.9z"/>
		<path class="dt2" d="M66.5,15.9l0-0.6c-0.5,0-1,0.1-1.5,0.2c0,0.2,0,0.4,0,0.6C65.4,16,65.9,16,66.5,15.9z"/>

		<linearGradient id="SVGID_8_" gradientUnits="userSpaceOnUse" x1="-207.9415" y1="402.9979" x2="-208.7801" y2="401.1678" gradientTransform="matrix(24.3294 0 0 -24.9824 5127.3755 10077.7666)">
			<stop offset="0" style="stop-color:#EEF3FF"/>
			<stop offset="1" style="stop-color:#6B9AD9"/>
		</linearGradient>
		<path class="dt10" d="M66.5,15.9l0-0.6c-0.5,0-1,0.1-1.5,0.2c0,0.2,0,0.4,0,0.6C65.4,16,65.9,16,66.5,15.9z"/>

		<linearGradient id="SVGID_9_" gradientUnits="userSpaceOnUse" x1="-207.31" y1="397.0424" x2="-207.902" y2="395.7542" gradientTransform="matrix(25.299 0 0 -18.0787 5337.7222 7198.8735)">
			<stop offset="0" style="stop-color:#E5EDFF"/>
			<stop offset="1" style="stop-color:#6B9AD9"/>
		</linearGradient>
		<path class="dt11" d="M81.3,30.3c1.6,1.7,3.9,3.1,7.5,3.7c0.5,0,0.9,0.1,1.4,0.1C86.6,33.5,83.7,32.3,81.3,30.3z"/>

		<linearGradient id="SVGID_10_" gradientUnits="userSpaceOnUse" x1="-208.315" y1="397.5042" x2="-208.9069" y2="396.216" gradientTransform="matrix(25.299 0 0 -18.0787 5337.7222 7198.8735)">
			<stop offset="0" style="stop-color:#E5EDFF"/>
			<stop offset="1" style="stop-color:#6B9AD9"/>
		</linearGradient>
		<path class="dt12" d="M64.9,16.1C64.9,16.1,64.9,16.1,64.9,16.1c0,0.4,0.1,0.7,0.1,1.1c0-0.2,0-0.3,0-0.5
		C64.9,16.5,64.9,16.3,64.9,16.1z"/>

		<linearGradient id="SVGID_11_" gradientUnits="userSpaceOnUse" x1="-207.7588" y1="397.2486" x2="-208.3508" y2="395.9605" gradientTransform="matrix(25.299 0 0 -18.0787 5337.7222 7198.8735)">
			<stop offset="0" style="stop-color:#E5EDFF"/>
			<stop offset="1" style="stop-color:#6B9AD9"/>
		</linearGradient>
		<path class="dt13" d="M68.6,24.9c-1.7-1.7-2.8-3.7-3.4-6c0.9,4.2,3.2,7.7,6.8,10.3c3.6,2.6,8.3,4.2,14.1,4.7
		c-1.4-0.2-2.8-0.6-4.1-1.3C75.4,29.7,70.9,27.2,68.6,24.9z"/>

		<linearGradient id="SVGID_12_" gradientUnits="userSpaceOnUse" x1="-208.2752" y1="397.4859" x2="-208.8671" y2="396.1977" gradientTransform="matrix(25.299 0 0 -18.0787 5337.7222 7198.8735)">
			<stop offset="0" style="stop-color:#E5EDFF"/>
			<stop offset="1" style="stop-color:#6B9AD9"/>
		</linearGradient>
		<path class="dt14" d="M65.2,18.7c-0.1-0.3-0.1-0.6-0.2-1C65.1,18,65.2,18.4,65.2,18.7z"/>
		<path class="dt2" d="M64.8,16c0,0,0,0.1,0,0.1c0,0,0,0,0,0C64.9,16.1,64.8,16,64.8,16z"/>

		<linearGradient id="SVGID_13_" gradientUnits="userSpaceOnUse" x1="-208.3296" y1="397.5109" x2="-208.9216" y2="396.2227" gradientTransform="matrix(25.299 0 0 -18.0787 5337.7222 7198.8735)">
			<stop offset="0" style="stop-color:#E5EDFF"/>
			<stop offset="1" style="stop-color:#6B9AD9"/>
		</linearGradient>
		<path class="dt15" d="M64.8,16c0,0,0,0.1,0,0.1c0,0,0,0,0,0C64.9,16.1,64.8,16,64.8,16z"/>

		<linearGradient id="SVGID_14_" gradientUnits="userSpaceOnUse" x1="-207.4168" y1="402.7575" x2="-208.2554" y2="400.9274" gradientTransform="matrix(24.3294 0 0 -24.9824 5127.3755 10077.7666)">
			<stop offset="0" style="stop-color:#EEF3FF"/>
			<stop offset="1" style="stop-color:#6B9AD9"/>
		</linearGradient>
		<path class="dt16" d="M81.3,30.3c-2.5-2.1-4.4-5-5.6-8.8c-6.4,2.8-10,1.2-10.8-4.8c0,0.2,0,0.3,0,0.5c0,0.2,0,0.4,0.1,0.5
		c0.1,0.3,0.1,0.7,0.2,1c0,0.1,0,0.1,0,0.2c0.6,2.3,1.7,4.3,3.4,6c2.3,2.3,6.8,4.9,13.5,7.7c1.3,0.6,2.6,1,4.1,1.3
		c0.8,0.1,1.7,0.1,2.6,0.2C85.2,33.4,82.9,32,81.3,30.3z"/>

		<linearGradient id="SVGID_15_" gradientUnits="userSpaceOnUse" x1="-207.743" y1="397.2413" x2="-208.3349" y2="395.9532" gradientTransform="matrix(25.299 0 0 -18.0787 5337.7222 7198.8735)">
			<stop offset="0" style="stop-color:#E5EDFF"/>
			<stop offset="1" style="stop-color:#6B9AD9"/>
		</linearGradient>
		<path class="dt17" d="M81.3,30.3c-2.5-2.1-4.4-5-5.6-8.8c-6.4,2.8-10,1.2-10.8-4.8c0,0.2,0,0.3,0,0.5c0,0.2,0,0.4,0.1,0.5
		c0.1,0.3,0.1,0.7,0.2,1c0,0.1,0,0.1,0,0.2c0.6,2.3,1.7,4.3,3.4,6c2.3,2.3,6.8,4.9,13.5,7.7c1.3,0.6,2.6,1,4.1,1.3
		c0.8,0.1,1.7,0.1,2.6,0.2C85.2,33.4,82.9,32,81.3,30.3z"/>

		<linearGradient id="SVGID_16_" gradientUnits="userSpaceOnUse" x1="-209.0348" y1="404.3656" x2="-209.8734" y2="402.5355" gradientTransform="matrix(29.5029 0 0 -27.9373 6269.4521 11311.3584)">
			<stop offset="0" style="stop-color:#EEF3FF"/>
			<stop offset="1" style="stop-color:#6B9AD9"/>
		</linearGradient>
		<path class="dt18" d="M100.3,7.6c-3.6,8-8.9,13.7-15.9,17l11.6,10.9c9.1-3.4,15-9.5,17.9-18.5L100.3,7.6z M93.3,21.4
		c1.4-0.9,2.6-2.1,3.3-3.6c0.1-0.2,0.2-0.4,0.3-0.6l3.3,2.5c-0.1,0.2-0.2,0.5-0.3,0.7c-0.6,1.2-1.5,2.3-2.6,3.1
		c-0.4,0.3-0.8,0.6-1.1,0.9l-3.4-2.7C93,21.6,93.1,21.5,93.3,21.4z M89.4,24.4c-0.5-0.3-1.1-0.5-1.6-0.8l0.3-0.5
		c0.5,0.3,1.1,0.6,1.6,0.8L89.4,24.4z M98.5,31.7l-8.6-7.1l1.1-0.7l1.6,1.3c0.2,0.1,0.3,0.1,0.5,0.2l-0.1,0.1l6.8,5.5L98.5,31.7z
		 M102.7,29c-0.7,0.5-1.3,0.9-2.1,1.2l-4.4-3.4l0,0.1c-0.6-0.2-1.2-0.3-1.7-0.5l0.2-0.6c0.6,0.2,1.1,0.3,1.7,0.5
		c0.8-0.5,1.5-0.9,1.9-1.4c0.6-0.5,1.1-1,1.6-1.7l4.6,3.6C103.9,27.8,103.3,28.5,102.7,29z M101.1,22.2l0.6-1.1l5.1,3.2l-0.7,1.1
		L101.1,22.2z M105.5,28.1c-0.1,0-0.2,0-0.3,0l0-0.6c0.1,0,0.2,0,0.3,0c0.5,0,1,0,1.5,0l0,0.6C106.5,28,106.1,28.1,105.5,28.1z
		 M107.9,22.5L97.8,16l0.6-1.1l10.2,6.4L107.9,22.5z M99.3,13.4l0.6-1.1l10.2,6.4l-0.7,1.1L99.3,13.4z"/>
		<path class="dt2" d="M96.4,26.4c-0.6-0.1-1.1-0.3-1.7-0.5l-0.2,0.6c0.6,0.2,1.2,0.4,1.7,0.5l0-0.1L96,26.6
		C96.1,26.6,96.2,26.5,96.4,26.4z"/>

		<linearGradient id="SVGID_17_" gradientUnits="userSpaceOnUse" x1="-209.0648" y1="404.3793" x2="-209.9034" y2="402.5492" gradientTransform="matrix(29.5029 0 0 -27.9373 6269.4521 11311.3584)">
			<stop offset="0" style="stop-color:#EEF3FF"/>
			<stop offset="1" style="stop-color:#6B9AD9"/>
		</linearGradient>
		<path class="dt19" d="M96.4,26.4c-0.6-0.1-1.1-0.3-1.7-0.5l-0.2,0.6c0.6,0.2,1.2,0.4,1.7,0.5l0-0.1L96,26.6
		C96.1,26.6,96.2,26.5,96.4,26.4z"/>
		<path class="dt2" d="M93,25.3c-0.2-0.1-0.3-0.1-0.5-0.2l0.4,0.3L93,25.3z"/>

		<linearGradient id="SVGID_18_" gradientUnits="userSpaceOnUse" x1="-209.1571" y1="404.4216" x2="-209.9957" y2="402.5915" gradientTransform="matrix(29.5029 0 0 -27.9373 6269.4521 11311.3584)">
			<stop offset="0" style="stop-color:#EEF3FF"/>
			<stop offset="1" style="stop-color:#6B9AD9"/>
		</linearGradient>
		<path class="dt20" d="M93,25.3c-0.2-0.1-0.3-0.1-0.5-0.2l0.4,0.3L93,25.3z"/>
		<path class="dt2" d="M105.5,27.5c-0.1,0-0.2,0-0.3,0l0,0.6c0.1,0,0.2,0,0.3,0c0.5,0,1,0,1.5,0l0-0.6
		C106.5,27.4,106,27.5,105.5,27.5z"/>

		<linearGradient id="SVGID_19_" gradientUnits="userSpaceOnUse" x1="-208.7484" y1="404.2344" x2="-209.587" y2="402.4042" gradientTransform="matrix(29.5029 0 0 -27.9373 6269.4521 11311.3584)">
			<stop offset="0" style="stop-color:#EEF3FF"/>
			<stop offset="1" style="stop-color:#6B9AD9"/>
		</linearGradient>
		<path class="dt21" d="M105.5,27.5c-0.1,0-0.2,0-0.3,0l0,0.6c0.1,0,0.2,0,0.3,0c0.5,0,1,0,1.5,0l0-0.6
		C106.5,27.4,106,27.5,105.5,27.5z"/>
		<path class="dt2" d="M87.8,23.6c0.5,0.3,1.1,0.6,1.6,0.8l0.3-0.5c-0.5-0.3-1-0.5-1.6-0.8L87.8,23.6z"/>

		<linearGradient id="SVGID_20_" gradientUnits="userSpaceOnUse" x1="-209.2893" y1="404.4822" x2="-210.1279" y2="402.6521" gradientTransform="matrix(29.5029 0 0 -27.9373 6269.4521 11311.3584)">
			<stop offset="0" style="stop-color:#EEF3FF"/>
			<stop offset="1" style="stop-color:#6B9AD9"/>
		</linearGradient>
		<path class="dt22" d="M87.8,23.6c0.5,0.3,1.1,0.6,1.6,0.8l0.3-0.5c-0.5-0.3-1-0.5-1.6-0.8L87.8,23.6z"/>

		<linearGradient id="SVGID_21_" gradientUnits="userSpaceOnUse" x1="-209.065" y1="404.3794" x2="-209.9035" y2="402.5493" gradientTransform="matrix(29.5029 0 0 -27.9373 6269.4521 11311.3584)">
			<stop offset="0" style="stop-color:#EEF3FF"/>
			<stop offset="1" style="stop-color:#6B9AD9"/>
		</linearGradient>
		<path class="dt23" d="M92.8,25.9c-0.6-0.2-1.1-0.4-1.7-0.7l0.2-0.5c0.4,0.2,0.8,0.3,1.2,0.5l-1.6-1.3l-1.1,0.7l8.6,7.1l1.3-0.7
		l-6.8-5.5L92.8,25.9z"/>
		<path class="dt24" d="M92.8,25.9c-0.6-0.2-1.1-0.4-1.7-0.7l0.2-0.5c0.4,0.2,0.8,0.3,1.2,0.5l-1.6-1.3l-1.1,0.7l8.6,7.1l1.3-0.7
		l-6.8-5.5L92.8,25.9z"/>
		<path class="dt2" d="M91.1,25.2c0.6,0.2,1.1,0.5,1.7,0.7l0.2-0.4l-0.4-0.3c-0.4-0.2-0.8-0.3-1.2-0.5L91.1,25.2z"/>

		<linearGradient id="SVGID_22_" gradientUnits="userSpaceOnUse" x1="-209.1764" y1="404.4305" x2="-210.015" y2="402.6004" gradientTransform="matrix(29.5029 0 0 -27.9373 6269.4521 11311.3584)">
			<stop offset="0" style="stop-color:#EEF3FF"/>
			<stop offset="1" style="stop-color:#6B9AD9"/>
		</linearGradient>
		<path class="dt25" d="M91.1,25.2c0.6,0.2,1.1,0.5,1.7,0.7l0.2-0.4l-0.4-0.3c-0.4-0.2-0.8-0.3-1.2-0.5L91.1,25.2z"/>
		<path class="dt24" d="M91.1,25.2c0.6,0.2,1.1,0.5,1.7,0.7l0.2-0.4l-0.4-0.3c-0.4-0.2-0.8-0.3-1.2-0.5L91.1,25.2z"/>

		<linearGradient id="SVGID_23_" gradientUnits="userSpaceOnUse" x1="-208.9466" y1="404.3252" x2="-209.7852" y2="402.4951" gradientTransform="matrix(29.5029 0 0 -27.9373 6269.4521 11311.3584)">
			<stop offset="0" style="stop-color:#EEF3FF"/>
			<stop offset="1" style="stop-color:#6B9AD9"/>
		</linearGradient>
		<polygon class="dt26" points="99.9,12.3 99.3,13.4 109.4,19.8 110.1,18.7 	"/>
		<polygon class="dt24" points="99.9,12.3 99.3,13.4 109.4,19.8 110.1,18.7 	"/>

		<linearGradient id="SVGID_24_" gradientUnits="userSpaceOnUse" x1="-208.9537" y1="404.3284" x2="-209.7923" y2="402.4983" gradientTransform="matrix(29.5029 0 0 -27.9373 6269.4521 11311.3584)">
			<stop offset="0" style="stop-color:#EEF3FF"/>
			<stop offset="1" style="stop-color:#6B9AD9"/>
		</linearGradient>
		<polygon class="dt27" points="97.8,16 107.9,22.5 108.6,21.4 98.4,14.9 	"/>
		<polygon class="dt24" points="97.8,16 107.9,22.5 108.6,21.4 98.4,14.9 	"/>

		<linearGradient id="SVGID_25_" gradientUnits="userSpaceOnUse" x1="-208.8689" y1="404.2896" x2="-209.7075" y2="402.4594" gradientTransform="matrix(29.5029 0 0 -27.9373 6269.4521 11311.3584)">
			<stop offset="0" style="stop-color:#EEF3FF"/>
			<stop offset="1" style="stop-color:#6B9AD9"/>
		</linearGradient>
		<polygon class="dt28" points="106.9,24.2 101.8,21.1 101.1,22.2 106.2,25.3 	"/>
		<polygon class="dt24" points="106.9,24.2 101.8,21.1 101.1,22.2 106.2,25.3 	"/>

		<linearGradient id="SVGID_26_" gradientUnits="userSpaceOnUse" x1="-209.1128" y1="404.4013" x2="-209.9514" y2="402.5712" gradientTransform="matrix(29.5029 0 0 -27.9373 6269.4521 11311.3584)">
			<stop offset="0" style="stop-color:#EEF3FF"/>
			<stop offset="1" style="stop-color:#6B9AD9"/>
		</linearGradient>
		<path class="dt29" d="M97.3,23.5c1.1-0.8,2-1.9,2.6-3.1c0.1-0.3,0.3-0.5,0.3-0.7L97,17.1c-0.1,0.2-0.2,0.4-0.3,0.6
		c-0.8,1.5-1.9,2.7-3.3,3.6c-0.2,0.1-0.4,0.2-0.6,0.3l3.4,2.7C96.5,24.1,96.9,23.8,97.3,23.5z"/>
		<path class="dt24" d="M97.3,23.5c1.1-0.8,2-1.9,2.6-3.1c0.1-0.3,0.3-0.5,0.3-0.7L97,17.1c-0.1,0.2-0.2,0.4-0.3,0.6
		c-0.8,1.5-1.9,2.7-3.3,3.6c-0.2,0.1-0.4,0.2-0.6,0.3l3.4,2.7C96.5,24.1,96.9,23.8,97.3,23.5z"/>

		<linearGradient id="SVGID_27_" gradientUnits="userSpaceOnUse" x1="-208.9224" y1="404.3141" x2="-209.761" y2="402.484" gradientTransform="matrix(29.5029 0 0 -27.9373 6269.4521 11311.3584)">
			<stop offset="0" style="stop-color:#EEF3FF"/>
			<stop offset="1" style="stop-color:#6B9AD9"/>
		</linearGradient>
		<path class="dt30" d="M98.3,25c-0.5,0.4-1.1,0.9-1.9,1.4c0,0,0,0,0,0l-0.1,0.4l4.4,3.4c0.7-0.3,1.4-0.7,2.1-1.2
		c0.7-0.5,1.2-1.2,1.8-2l-4.6-3.6C99.4,24,98.9,24.6,98.3,25z M101.7,27.3c0.6,0.1,1.2,0.1,1.8,0.1l0,0.6c-0.6,0-1.2-0.1-1.8-0.1
		L101.7,27.3z M99.8,27.7c-0.6-0.1-1.2-0.2-1.8-0.3l0.1-0.6c0.6,0.1,1.2,0.2,1.8,0.3L99.8,27.7z"/>
		<path class="dt24" d="M98.3,25c-0.5,0.4-1.1,0.9-1.9,1.4c0,0,0,0,0,0l-0.1,0.4l4.4,3.4c0.7-0.3,1.4-0.7,2.1-1.2
		c0.7-0.5,1.2-1.2,1.8-2l-4.6-3.6C99.4,24,98.9,24.6,98.3,25z M101.7,27.3c0.6,0.1,1.2,0.1,1.8,0.1l0,0.6c-0.6,0-1.2-0.1-1.8-0.1
		L101.7,27.3z M99.8,27.7c-0.6-0.1-1.2-0.2-1.8-0.3l0.1-0.6c0.6,0.1,1.2,0.2,1.8,0.3L99.8,27.7z"/>
		<path class="dt2" d="M103.5,27.4c-0.6,0-1.2-0.1-1.8-0.1l-0.1,0.6c0.6,0.1,1.2,0.1,1.8,0.1L103.5,27.4z"/>

		<linearGradient id="SVGID_28_" gradientUnits="userSpaceOnUse" x1="-208.8493" y1="404.2806" x2="-209.6879" y2="402.4504" gradientTransform="matrix(29.5029 0 0 -27.9373 6269.4521 11311.3584)">
			<stop offset="0" style="stop-color:#EEF3FF"/>
			<stop offset="1" style="stop-color:#6B9AD9"/>
		</linearGradient>
		<path class="dt31" d="M103.5,27.4c-0.6,0-1.2-0.1-1.8-0.1l-0.1,0.6c0.6,0.1,1.2,0.1,1.8,0.1L103.5,27.4z"/>
		<path class="dt24" d="M103.5,27.4c-0.6,0-1.2-0.1-1.8-0.1l-0.1,0.6c0.6,0.1,1.2,0.1,1.8,0.1L103.5,27.4z"/>
		<path class="dt2" d="M98,27.4c0.6,0.1,1.2,0.2,1.8,0.3l0.1-0.6c-0.6-0.1-1.2-0.2-1.8-0.3L98,27.4z"/>

		<linearGradient id="SVGID_29_" gradientUnits="userSpaceOnUse" x1="-208.955" y1="404.329" x2="-209.7935" y2="402.4989" gradientTransform="matrix(29.5029 0 0 -27.9373 6269.4521 11311.3584)">
			<stop offset="0" style="stop-color:#EEF3FF"/>
			<stop offset="1" style="stop-color:#6B9AD9"/>
		</linearGradient>
		<path class="dt32" d="M98,27.4c0.6,0.1,1.2,0.2,1.8,0.3l0.1-0.6c-0.6-0.1-1.2-0.2-1.8-0.3L98,27.4z"/>
		<path class="dt24" d="M98,27.4c0.6,0.1,1.2,0.2,1.8,0.3l0.1-0.6c-0.6-0.1-1.2-0.2-1.8-0.3L98,27.4z"/>
		<path class="dt2" d="M96.4,26.4c-0.1,0.1-0.2,0.2-0.4,0.2l0.3,0.2L96.4,26.4C96.4,26.4,96.4,26.4,96.4,26.4z"/>

		<linearGradient id="SVGID_30_" gradientUnits="userSpaceOnUse" x1="-209.0419" y1="404.3688" x2="-209.8805" y2="402.5387" gradientTransform="matrix(29.5029 0 0 -27.9373 6269.4521 11311.3584)">
			<stop offset="0" style="stop-color:#EEF3FF"/>
			<stop offset="1" style="stop-color:#6B9AD9"/>
		</linearGradient>
		<path class="dt33" d="M96.4,26.4c-0.1,0.1-0.2,0.2-0.4,0.2l0.3,0.2L96.4,26.4C96.4,26.4,96.4,26.4,96.4,26.4z"/>
		<path class="dt24" d="M96.4,26.4c-0.1,0.1-0.2,0.2-0.4,0.2l0.3,0.2L96.4,26.4C96.4,26.4,96.4,26.4,96.4,26.4z"/>
		<ellipse class="dt34" cx="117.2" cy="23" rx="1.2" ry="1.2"/>
		<ellipse class="dt34" cx="54" cy="15.5" rx="1.2" ry="1.2"/>
		<path class="dt35" d="M78.5,8c0-0.3-0.2-0.5-0.5-0.5c-0.3,0-0.5,0.2-0.5,0.5v0.7h1V8z"/>
		<path class="dt35" d="M77.5,10c0,0.3,0.2,0.5,0.5,0.5c0.3,0,0.5-0.2,0.5-0.5V9.2h-1V10z"/>
		<path class="dt35" d="M79.1,9.2c0.2,0,0.3-0.1,0.3-0.3c0-0.2-0.1-0.3-0.3-0.3h-0.6v0.6H79.1z"/>
		<path class="dt35" d="M76.5,9.2h1V8.7h-1c-0.2,0-0.3,0.1-0.3,0.3C76.3,9.1,76.4,9.2,76.5,9.2z"/>
		<rect x="77.5" y="8.7" class="dt35" width="1" height="0.6"/>
		<path class="dt35" d="M105.2,37c0,0.2,0.1,0.3,0.3,0.3s0.3-0.1,0.3-0.3v-0.8h-0.6V37z"/>
		<path class="dt35" d="M105.8,34.9c0-0.2-0.1-0.3-0.3-0.3s-0.3,0.1-0.3,0.3v0.8h0.6V34.9z"/>
		<path class="dt35" d="M104.4,35.7c-0.2,0-0.3,0.1-0.3,0.3c0,0.2,0.1,0.3,0.3,0.3h0.8v-0.6H104.4z"/>
		<path class="dt35" d="M106.7,35.7h-0.8v0.6h0.8c0.2,0,0.3-0.1,0.3-0.3C106.9,35.8,106.8,35.7,106.7,35.7z"/>
		<rect x="105.2" y="35.7" class="dt35" width="0.6" height="0.6"/>
		<path class="dt35" d="M67.1,30.2c0-0.2-0.2-0.4-0.4-0.4s-0.4,0.2-0.4,0.4v1h0.8V30.2z"/>
		<path class="dt35" d="M66.3,33c0,0.2,0.2,0.4,0.4,0.4s0.4-0.2,0.4-0.4v-1h-0.8V33z"/>
		<path class="dt35" d="M68.2,31.3h-1.1V32h1.1c0.2,0,0.4-0.2,0.4-0.4C68.6,31.4,68.4,31.3,68.2,31.3z"/>
		<path class="dt35" d="M65.2,31.3c-0.2,0-0.4,0.2-0.4,0.4c0,0.2,0.2,0.4,0.4,0.4h1.1v-0.8H65.2z"/>
		<rect x="66.3" y="31.3" class="dt35" width="0.8" height="0.8"/>
		<polygon class="dt36" points="21.1,7.3 33.6,15.1 42.1,8.2 29.7,0 	"/>
		<polygon class="dt36" points="0,8.2 8.6,15.1 21.1,7.3 12.4,0 	"/>
		<polygon class="dt36" points="21.1,22.8 29.7,30.1 42.1,22 33.6,15.1 	"/>
		<polygon class="dt36" points="0,22 12.4,30.1 21.1,22.8 8.6,15.1 	"/>
		<path class="dt36" d="M29.6,33.1c-0.3,0-0.6-0.1-0.8-0.3l-7.7-6.5l-7.7,6.5c-0.4,0.4-1.1,0.4-1.6,0.1l-3.9-2.5v3.9l13.2,7.9
		l13.1-7.9v-3.9l-3.9,2.5C30.1,33,29.9,33.1,29.6,33.1z"/>
	</g>
</svg>
