<svg width="80" height="24" viewBox="0 0 80 24" fill="none" xmlns="http://www.w3.org/2000/svg">
<g clip-path="url(#clip0_2667_9926)">
<path d="M9.76389 7.12637L5.19444 10.0652L9.76389 13.0041L5.19444 15.943L0.625 12.9796L5.19444 10.0408L0.625 7.12637L5.19444 4.1875L9.76389 7.12637ZM5.17014 16.8736L9.73958 13.9348L14.309 16.8736L9.73958 19.8125L5.17014 16.8736ZM9.76389 12.9796L14.3333 10.0408L9.76389 7.12637L14.309 4.1875L18.8785 7.12637L14.309 10.0652L18.8785 13.0041L14.309 15.943L9.76389 12.9796Z" fill="#0061FF"/>
<path d="M22.4514 7.12635H26.1459C28.5035 7.12635 30.4479 8.49782 30.4479 11.6326V12.2939C30.4479 15.4532 28.625 16.8736 26.2188 16.8736H22.4514V7.12635ZM24.5174 8.88967V15.0858H26.0972C27.4341 15.0858 28.3334 14.2041 28.3334 12.2449V11.7306C28.3334 9.77134 27.3854 8.88967 26.0243 8.88967H24.5174ZM31.5417 8.98764H33.1945L33.4618 10.8244C33.7778 9.57541 34.5799 8.91416 36.0382 8.91416H36.5486V11.0204H35.6979C34.0209 11.0204 33.6077 11.6081 33.6077 13.2735V16.8981H31.566V8.98764H31.5417ZM36.9618 13.1021V12.8816C36.9618 10.2367 38.6389 8.79171 40.9236 8.79171C43.257 8.79171 44.8854 10.2367 44.8854 12.8816V13.1021C44.8854 15.6981 43.3056 17.094 40.9236 17.094C38.3959 17.0695 36.9618 15.6981 36.9618 13.1021ZM42.7952 13.0776V12.8816C42.7952 11.4122 42.066 10.5305 40.8993 10.5305C39.757 10.5305 39.0035 11.3387 39.0035 12.8816V13.0776C39.0035 14.498 39.7327 15.3062 40.8993 15.3062C42.066 15.2817 42.7952 14.498 42.7952 13.0776ZM45.9549 8.98764H47.6563L47.8507 10.4816C48.2639 9.47745 49.1389 8.79171 50.4271 8.79171C52.4202 8.79171 53.7327 10.2367 53.7327 12.9061V13.1265C53.7327 15.7226 52.2743 17.094 50.4271 17.094C49.1875 17.094 48.3368 16.5307 47.9236 15.6246V19.6166H45.9306L45.9549 8.98764ZM51.6667 13.0776V12.9061C51.6667 11.3387 50.8646 10.555 49.7952 10.555C48.6528 10.555 47.8993 11.4367 47.8993 12.9061V13.0531C47.8993 14.449 48.6285 15.3307 49.7709 15.3307C50.9375 15.3062 51.6667 14.547 51.6667 13.0776ZM56.7465 15.4287L56.5764 16.8736H54.8264V6.34265H56.8195V10.3836C57.257 9.355 58.132 8.79171 59.3715 8.79171C61.2431 8.8162 62.6285 10.1142 62.6285 12.7347V12.9796C62.6285 15.6001 61.316 17.094 59.3229 17.094C58.0104 17.0695 57.1597 16.4573 56.7465 15.4287ZM60.5382 12.9796V12.7837C60.5382 11.3387 59.7604 10.5305 58.6667 10.5305C57.5486 10.5305 56.7709 11.4367 56.7709 12.8082V12.9796C56.7709 14.449 57.5243 15.3062 58.6424 15.3062C59.8334 15.3062 60.5382 14.547 60.5382 12.9796ZM63.5035 13.1021V12.8816C63.5035 10.2367 65.1806 8.79171 67.4653 8.79171C69.7986 8.79171 71.4271 10.2367 71.4271 12.8816V13.1021C71.4271 15.6981 69.8229 17.094 67.4653 17.094C64.9375 17.0695 63.5035 15.6981 63.5035 13.1021ZM69.3611 13.0776V12.8816C69.3611 11.4122 68.632 10.5305 67.4653 10.5305C66.3229 10.5305 65.5695 11.3387 65.5695 12.8816V13.0776C65.5695 14.498 66.2986 15.3062 67.4653 15.3062C68.632 15.2817 69.3611 14.498 69.3611 13.0776ZM74.1007 12.7837L71.3542 8.98764H73.7118L75.2917 11.3632L76.8958 8.98764H79.2292L76.434 12.7592L79.375 16.8736H77.066L75.2674 14.2531L73.5174 16.8736H71.1111L74.1007 12.7837Z" fill="#161C21"/>
</g>
<defs>
<clipPath id="clip0_2667_9926">
<rect width="78.75" height="15.625" fill="white" transform="translate(0.625 4.1875)"/>
</clipPath>
</defs>
</svg>
