<svg width="80" height="80" viewBox="0 0 80 80" fill="none" xmlns="http://www.w3.org/2000/svg">
<g style="mix-blend-mode:multiply" opacity="0.2">
<path d="M74.4857 57.1643L57.548 3.38394C57.3844 2.86479 57.021 2.43174 56.5375 2.18001C56.0541 1.92829 55.4903 1.87851 54.9701 2.04162L14.5855 14.711C14.0653 14.8742 13.6314 15.237 13.3792 15.7195C13.127 16.202 13.0771 16.7647 13.2405 17.2839L30.1786 71.0642C30.2595 71.3213 30.3904 71.56 30.5638 71.7665C30.7372 71.9731 30.9496 72.1436 31.189 72.2682C31.4284 72.3928 31.69 72.4692 31.959 72.4928C32.2279 72.5165 32.4989 72.4871 32.7565 72.4062L73.1408 59.7372C73.6609 59.5739 74.0948 59.2112 74.3471 58.7287C74.5993 58.2462 74.6492 57.6835 74.4857 57.1643V57.1643Z" fill="#3A7EC1"/>
</g>
<path d="M73.013 59.2553L32.2911 70.7987C32.0314 70.8724 31.7597 70.8942 31.4915 70.863C31.2233 70.8318 30.9639 70.7483 30.7281 70.617C30.4922 70.4858 30.2846 70.3095 30.1171 70.0981C29.9495 69.8868 29.8254 69.6446 29.7516 69.3854L14.3179 15.1567C14.169 14.6331 14.2345 14.072 14.5001 13.5967C14.7656 13.1214 15.2095 12.7709 15.734 12.6221L56.4559 1.07802C56.9804 0.929396 57.5426 0.994797 58.0189 1.25984C58.4951 1.52487 58.8464 1.96785 58.9954 2.49133L74.4288 56.7207C74.5026 56.9799 74.5245 57.2511 74.4933 57.5187C74.4621 57.7864 74.3784 58.0453 74.2469 58.2807C74.1155 58.516 73.9388 58.7232 73.7271 58.8905C73.5154 59.0577 73.2727 59.1816 73.013 59.2553V59.2553Z" fill="#67A4BA"/>
<path d="M55.7083 11.0738L21.6348 20.7335C21.3864 20.8038 21.1203 20.7728 20.8948 20.6473C20.6693 20.5219 20.503 20.3122 20.4324 20.0643V20.0643C20.3973 19.9415 20.3868 19.813 20.4015 19.6861C20.4162 19.5593 20.4558 19.4365 20.518 19.3249C20.5803 19.2134 20.664 19.1151 20.7644 19.0359C20.8647 18.9566 20.9797 18.8979 21.1029 18.8631L55.1764 9.20495C55.2994 9.17008 55.428 9.15973 55.555 9.17449C55.682 9.18925 55.8048 9.22882 55.9165 9.29096C56.0281 9.3531 56.1264 9.43658 56.2057 9.53663C56.2851 9.63668 56.3439 9.75135 56.3788 9.87409V9.87409C56.4137 9.9968 56.4241 10.1252 56.4093 10.2519C56.3945 10.3786 56.3548 10.5012 56.2926 10.6126C56.2303 10.724 56.1467 10.822 56.0464 10.9012C55.9462 10.9803 55.8313 11.039 55.7083 11.0738V11.0738Z" fill="#E4ECF9"/>
<path d="M57.7473 18.2359L23.6747 27.8956C23.4264 27.9659 23.1602 27.9349 22.9348 27.8094C22.7094 27.6839 22.5432 27.4742 22.4726 27.2264V27.2264C22.4021 26.9786 22.433 26.713 22.5587 26.4879C22.6844 26.2629 22.8945 26.0969 23.1428 26.0264L57.2154 16.367C57.3383 16.3322 57.467 16.3218 57.5939 16.3366C57.7209 16.3514 57.8437 16.3909 57.9553 16.4531C58.0669 16.5152 58.1652 16.5987 58.2445 16.6988C58.3238 16.7988 58.3826 16.9135 58.4174 17.0362V17.0362C58.4524 17.1589 58.4628 17.2872 58.448 17.4139C58.4332 17.5406 58.3936 17.6632 58.3314 17.7746C58.2691 17.886 58.1855 17.9841 58.0853 18.0632C57.9851 18.1424 57.8702 18.2011 57.7473 18.2359V18.2359Z" fill="#E4ECF9"/>
<path d="M59.7856 25.3976L25.7121 35.0579C25.4637 35.1282 25.1976 35.0972 24.9721 34.9717C24.7466 34.8463 24.5803 34.6366 24.5097 34.3887V34.3887C24.4748 34.266 24.4644 34.1376 24.4792 34.0109C24.494 33.8841 24.5336 33.7615 24.5959 33.6501C24.6581 33.5387 24.7418 33.4406 24.842 33.3614C24.9423 33.2822 25.0572 33.2235 25.1802 33.1887L59.2537 23.5293C59.3767 23.4944 59.5054 23.4839 59.6325 23.4987C59.7595 23.5134 59.8824 23.5529 59.9941 23.6151C60.1059 23.6772 60.2042 23.7607 60.2836 23.8608C60.363 23.9609 60.4218 24.0757 60.4567 24.1985V24.1985C60.4915 24.3212 60.5018 24.4495 60.4869 24.5762C60.472 24.7029 60.4323 24.8254 60.37 24.9367C60.3077 25.0481 60.224 25.1461 60.1237 25.2252C60.0235 25.3042 59.9086 25.3628 59.7856 25.3976V25.3976Z" fill="#E4ECF9"/>
<path d="M61.8252 32.5643L27.7513 42.2237C27.503 42.294 27.2369 42.263 27.0115 42.1375C26.7861 42.012 26.6198 41.8023 26.5493 41.5545V41.5545C26.4787 41.3067 26.5097 41.0411 26.6353 40.816C26.761 40.591 26.9711 40.425 27.2194 40.3545L61.2933 30.6952C61.4163 30.6603 61.5449 30.65 61.6719 30.6647C61.7988 30.6795 61.9216 30.7191 62.0332 30.7812C62.1449 30.8433 62.2431 30.9268 62.3224 31.0269C62.4017 31.1269 62.4605 31.2416 62.4954 31.3643V31.3643C62.5659 31.6121 62.535 31.8778 62.4093 32.1028C62.2836 32.3279 62.0735 32.4939 61.8252 32.5643V32.5643Z" fill="#E4ECF9"/>
<path d="M53.1998 55.4582C53.0985 55.4985 52.9942 55.5308 52.8878 55.5547C52.2548 55.6964 51.4973 55.5351 50.7489 55.1244C50.0709 56.2282 49.1908 57.1013 48.1008 57.2728C47.084 57.4341 45.9634 56.9615 44.8596 55.91C44.4161 55.481 44.0152 55.0102 43.6626 54.5041C42.6907 56.2606 41.5252 57.965 40.4008 59.4596L39.5928 58.8537C41.022 56.9543 42.1763 55.1664 43.042 53.5239C42.0125 51.7102 41.3433 49.45 41.5841 47.3174C41.732 46.0068 42.517 43.1425 43.8825 43.1721C44.9551 43.1939 45.3972 44.596 45.6096 45.2698C45.6296 45.3321 45.6474 45.3897 45.663 45.4361C46.4407 47.738 45.629 50.6394 44.2004 53.4853C44.62 54.1507 45.0861 54.7308 45.5578 55.1807C46.4123 55.9959 47.2594 56.3851 47.9423 56.2771C48.6598 56.1628 49.3372 55.4803 49.9043 54.5483C49.7766 54.4446 49.6512 54.3329 49.5281 54.2133C48.2992 53.0301 47.7099 51.5533 47.9523 50.267C48.21 48.9004 49.4036 47.7222 50.4497 47.2644C51.034 47.011 51.5319 46.9936 51.8935 47.2193C52.8139 47.7932 52.5577 49.8115 52.3231 50.9635C52.1341 51.8911 51.7715 53.112 51.2312 54.236C51.7616 54.5287 52.2779 54.6567 52.6663 54.5698C53.8316 54.3073 54.5444 51.9739 55.0161 50.4286C55.4448 49.024 55.6803 48.249 56.3726 48.3711C56.9545 48.4732 56.9894 49.1268 57.0297 49.8837C57.068 50.6039 57.1257 51.6928 57.6152 52.001C57.8945 52.1766 58.8341 52.3653 61.5303 50.3277L62.1405 51.1317C59.7217 52.9594 58.1122 53.5068 57.0758 52.8539C56.3093 52.3709 56.1249 51.3736 56.0547 50.4874C56.0301 50.5668 56.0061 50.6456 55.9827 50.7222C55.447 52.4821 54.7241 54.851 53.1998 55.4582ZM50.9223 48.1606C50.835 48.1956 50.7499 48.2359 50.6674 48.2811C49.9636 48.6622 49.1247 49.5048 48.9459 50.4541C48.7347 51.5751 49.471 52.7564 50.2307 53.4884C50.2831 53.5395 50.3367 53.5887 50.3907 53.6367C50.6746 53.0251 50.9095 52.3921 51.0933 51.7435C51.6861 49.6598 51.5803 48.2668 51.3541 48.0721C51.3317 48.0644 51.1866 48.0553 50.9226 48.1606H50.9223ZM43.8345 44.1893C43.4785 44.331 42.7681 45.8412 42.5887 47.431C42.4015 49.0928 42.857 50.8798 43.5989 52.4033C44.8684 49.671 45.2599 47.399 44.7058 45.7587C44.688 45.7067 44.6684 45.6441 44.6459 45.5718C44.285 44.4272 44.022 44.1831 43.8619 44.1797C43.8526 44.1821 43.8435 44.1853 43.8348 44.1893H43.8345Z" fill="#E4ECF9"/>
<path d="M57.3563 46.9411C57.637 46.6687 57.6432 46.2208 57.3703 45.9407C57.0974 45.6606 56.6487 45.6543 56.368 45.9267C56.0874 46.1991 56.0811 46.647 56.354 46.9271C56.6269 47.2072 57.0757 47.2134 57.3563 46.9411Z" fill="#E4ECF9"/>
<path d="M39.0802 61.0889C39.2615 60.7824 39.1597 60.3872 38.8526 60.2062C38.5455 60.0251 38.1495 60.1268 37.9681 60.4333C37.7867 60.7398 37.8886 61.135 38.1957 61.3161C38.5028 61.4971 38.8988 61.3954 39.0802 61.0889Z" fill="#E4ECF9"/>
<path d="M61.7856 68.1442L50.559 12.8942C50.4506 12.3608 50.1344 11.8923 49.6799 11.5916C49.2255 11.291 48.6699 11.1828 48.1355 11.2909L6.64744 19.6883C6.38282 19.7418 6.13135 19.8468 5.9074 19.9973C5.68345 20.1479 5.4914 20.3409 5.34223 20.5656C5.19306 20.7902 5.08968 21.0419 5.038 21.3064C4.98633 21.5709 4.98736 21.8429 5.04105 22.107L16.2677 77.3571C16.376 77.8904 16.6922 78.359 17.1467 78.6597C17.6012 78.9603 18.1567 79.0685 18.6911 78.9604L60.1792 70.563C60.7136 70.4548 61.1831 70.1392 61.4843 69.6856C61.7856 69.232 61.8939 68.6776 61.7856 68.1442V68.1442Z" fill="#B2ECFC"/>
<path d="M60.3585 70.1893L18.7265 77.845C18.461 77.8939 18.1884 77.8901 17.9244 77.8338C17.6604 77.7775 17.41 77.6699 17.1877 77.5171C16.9653 77.3642 16.7753 77.1692 16.6285 76.943C16.4817 76.7169 16.381 76.4641 16.332 76.1991L6.09658 20.7575C6.04762 20.4925 6.05145 20.2205 6.10785 19.9569C6.16424 19.6934 6.27211 19.4435 6.42528 19.2216C6.57846 18.9997 6.77393 18.8101 7.00055 18.6636C7.22716 18.5171 7.48048 18.4165 7.74602 18.3678L49.3777 10.7117C49.6432 10.6629 49.9158 10.6667 50.1798 10.723C50.4439 10.7793 50.6942 10.8869 50.9166 11.0398C51.1389 11.1927 51.3289 11.3878 51.4757 11.6139C51.6225 11.8401 51.7232 12.0929 51.7721 12.358L62.0076 67.7992C62.0566 68.0642 62.0527 68.3363 61.9964 68.5998C61.94 68.8633 61.8322 69.1132 61.679 69.3352C61.5259 69.5571 61.3304 69.7468 61.1039 69.8933C60.8773 70.0399 60.624 70.1405 60.3585 70.1893V70.1893Z" fill="white"/>
<path d="M47.6871 20.591L12.852 26.9972C12.5982 27.0438 12.3363 26.988 12.1237 26.8421C11.9112 26.6961 11.7653 26.4719 11.7183 26.2187V26.2187C11.6715 25.9655 11.7274 25.7041 11.8736 25.4919C12.0199 25.2798 12.2445 25.1342 12.4982 25.0872L47.3343 18.6801C47.588 18.6335 47.85 18.6893 48.0625 18.8352C48.2751 18.9812 48.4209 19.2054 48.468 19.4586V19.4586C48.4913 19.5841 48.4896 19.713 48.463 19.8379C48.4363 19.9628 48.3853 20.0812 48.3128 20.1864C48.2402 20.2915 48.1477 20.3814 48.0403 20.4508C47.933 20.5203 47.8129 20.5679 47.6871 20.591V20.591Z" fill="#B2ECFC"/>
<path d="M49.0388 27.9113L14.2043 34.3175C13.9506 34.3641 13.6887 34.3084 13.4762 34.1624C13.2636 34.0164 13.1178 33.7922 13.0709 33.5391C13.024 33.2858 13.0799 33.0243 13.2261 32.8122C13.3724 32.6 13.5971 32.4544 13.8508 32.4075L48.6868 26.0005C48.9406 25.9538 49.2024 26.0096 49.415 26.1556C49.6275 26.3015 49.7733 26.5257 49.8203 26.7789V26.7789C49.8436 26.9045 49.8419 27.0334 49.8153 27.1583C49.7886 27.2833 49.7375 27.4017 49.6649 27.5069C49.5923 27.6121 49.4996 27.702 49.3922 27.7714C49.2848 27.8408 49.1647 27.8883 49.0388 27.9113V27.9113Z" fill="#B2ECFC"/>
<path d="M50.3918 35.2383L15.5566 41.6444C15.3029 41.6912 15.0409 41.6354 14.8283 41.4894C14.6157 41.3435 14.4699 41.1192 14.4229 40.866C14.3761 40.6128 14.4319 40.3513 14.5782 40.1392C14.7245 39.9271 14.9491 39.7816 15.2029 39.7348L50.038 33.3286C50.2917 33.2819 50.5537 33.3376 50.7663 33.4836C50.9789 33.6296 51.1247 33.8538 51.1717 34.1071V34.1071C51.2184 34.3603 51.1625 34.6217 51.0163 34.8338C50.8701 35.0459 50.6454 35.1914 50.3918 35.2383V35.2383Z" fill="#B2ECFC"/>
<path d="M51.7438 42.5615L16.9086 48.9676C16.6549 49.0144 16.3929 48.9586 16.1803 48.8127C15.9677 48.6667 15.8219 48.4424 15.7749 48.1892V48.1892C15.7282 47.936 15.7841 47.6746 15.9303 47.4625C16.0766 47.2504 16.3012 47.1049 16.5548 47.058L51.3909 40.6509C51.6447 40.6042 51.9067 40.6599 52.1193 40.8059C52.3318 40.9518 52.4777 41.1761 52.5247 41.4293V41.4293C52.548 41.5548 52.5462 41.6837 52.5196 41.8086C52.493 41.9334 52.4419 42.0518 52.3694 42.157C52.2969 42.2621 52.2043 42.352 52.0969 42.4214C51.9896 42.4908 51.8696 42.5384 51.7438 42.5615Z" fill="#B2ECFC"/>
<path d="M40.9928 64.5377C40.8884 64.5685 40.7817 64.5908 40.6737 64.6043C40.0301 64.6856 39.2913 64.4539 38.585 63.9744C37.805 65.0094 36.8473 65.7959 35.746 65.8647C34.7186 65.9295 33.6476 65.3544 32.648 64.2023C32.2472 63.7334 31.8927 63.227 31.5894 62.69C30.4557 64.3471 29.1345 65.9342 27.8738 67.316L27.125 66.6369C28.7276 64.8802 30.0458 63.2094 31.0631 61.655C30.2105 59.7522 29.7575 57.439 30.1986 55.3388C30.4701 54.0479 31.5224 51.2705 32.8789 51.4283C33.9446 51.551 34.2516 52.9886 34.4001 53.6795C34.4138 53.7443 34.4263 53.8022 34.4375 53.8499C34.9938 56.2163 33.9112 59.027 32.22 61.7257C32.5747 62.4275 32.984 63.049 33.4111 63.5413C34.1845 64.4334 34.991 64.9007 35.6811 64.8571C36.407 64.8111 37.1452 64.1955 37.7979 63.3212C37.6809 63.2053 37.5664 63.082 37.4547 62.9525C36.3434 61.6569 35.8948 60.1327 36.2592 58.8735C36.6451 57.5374 37.9439 56.476 39.0292 56.1194C39.6351 55.9223 40.1324 55.9519 40.4712 56.2107C41.3332 56.8686 40.8871 58.8539 40.5445 59.9783C40.2687 60.8837 39.7923 62.066 39.1475 63.1331C39.6467 63.4756 40.1496 63.6506 40.5455 63.6001C41.731 63.4488 42.6607 61.1932 43.2765 59.6993C43.8359 58.3414 44.1438 57.5932 44.8215 57.7787C45.3911 57.9344 45.364 58.5883 45.3325 59.3468C45.3013 60.0673 45.2573 61.1565 45.7153 61.5096C45.9767 61.7107 46.8946 61.9869 49.771 60.2124L49.8946 60.6412C47.3136 62.2329 46.0663 63.0556 45.0963 62.3076C44.3788 61.755 44.2899 60.7446 44.3036 59.8559C44.2724 59.9328 44.2412 60.0091 44.21 60.0829C43.5118 61.7867 42.568 64.0768 40.9928 64.5377ZM39.4164 57.0582C39.3261 57.085 39.2375 57.117 39.1509 57.1541C38.4143 57.4674 37.4996 58.2271 37.2316 59.155C36.9156 60.2507 37.5367 61.4968 38.2237 62.2974C38.2711 62.3528 38.3198 62.407 38.3691 62.4596C38.7095 61.8775 39.0032 61.2695 39.2476 60.6412C40.0354 58.6226 40.0613 57.2257 39.8544 57.0109C39.8326 57.0009 39.6891 56.9785 39.4164 57.0582ZM32.7353 52.4369C32.3678 52.5443 31.5186 53.981 31.1889 55.5468C30.8457 57.1834 31.1296 59.0055 31.7242 60.5911C33.2464 57.9905 33.851 55.7648 33.4545 54.0806C33.442 54.027 33.4283 53.9626 33.4127 53.89C33.1615 52.7165 32.9213 52.4484 32.7637 52.4303C32.7541 52.4317 32.7446 52.4339 32.7353 52.4369Z" fill="#035970"/>
<path d="M45.9653 55.6299C45.977 55.2392 45.6692 54.913 45.2777 54.9013C44.8862 54.8896 44.5594 55.1968 44.5476 55.5875C44.5359 55.9782 44.8437 56.3044 45.2352 56.3161C45.6266 56.3279 45.9535 56.0206 45.9653 55.6299Z" fill="#035970"/>
<path d="M26.4818 68.6687C26.6109 68.3369 26.4461 67.9635 26.1136 67.8346C25.7812 67.7057 25.407 67.8701 25.2778 68.202C25.1486 68.5338 25.3135 68.9072 25.6459 69.0361C25.9784 69.165 26.3526 69.0005 26.4818 68.6687Z" fill="#035970"/>
<path d="M49.9683 60.5693C49.895 60.7007 49.6981 60.7306 49.5281 60.6359C49.358 60.5412 49.28 60.3588 49.3531 60.2274C49.4261 60.096 49.6235 60.0661 49.7933 60.1608C49.963 60.2554 50.0416 60.4382 49.9683 60.5693Z" fill="#102D42"/>
<path d="M53.4598 57.8571L49.9687 60.5708L49.3535 60.2289L49.8271 55.8379L53.4598 57.8571Z" fill="#67A4BA"/>
<path d="M66.4112 34.6453L53.4596 57.8558C52.2117 58.2101 51.3759 57.9339 50.8246 57.4853C50.034 56.8388 49.8281 55.8372 49.8281 55.8372L62.7797 32.627L66.4112 34.6453Z" fill="#F2BE38"/>
<path d="M50.8246 57.4853C50.034 56.8388 49.8281 55.8372 49.8281 55.8372L62.7797 32.627L63.0917 32.8007C60.2654 38.4368 52.7763 53.5458 50.8246 57.4853Z" fill="#F9CF58"/>
<path d="M66.4086 34.6389C66.841 33.8638 66.3783 32.7835 65.3751 32.226C64.3719 31.6685 63.2081 31.8449 62.7757 32.62C62.3432 33.3951 62.8059 34.4754 63.8091 35.0329C64.8123 35.5904 65.9761 35.414 66.4086 34.6389Z" fill="#D18F0B"/>
</svg>
