<svg xmlns="http://www.w3.org/2000/svg" width="40" height="40" viewBox="0 0 40 40">
    <defs>
        <radialGradient id="j9loe902wb" cx="68.943%" cy="61.362%" r="181.061%" fx="68.943%" fy="61.362%" gradientTransform="translate(0.689433,0.613621),scale(0.863093,1.000000),rotate(-157.595064),translate(-0.689433,-0.613621)">
            <stop offset="0%" stop-opacity="0"/>
            <stop offset="95%" stop-opacity=".53"/>
            <stop offset="100%"/>
        </radialGradient>
        <radialGradient id="6k5y92r3ud" cx="92.628%" cy="29.913%" r="164.14%" fx="92.628%" fy="29.913%" gradientTransform="translate(0.926282,0.299134),scale(1.000000,0.810688),rotate(-174.843039),translate(-0.926282,-0.299134)">
            <stop offset="0%" stop-opacity="0"/>
            <stop offset="60.511%" stop-opacity=".5"/>
            <stop offset="100%"/>
        </radialGradient>
        <radialGradient id="vutjm3fyce" cx="10.099%" cy="27.789%" r="151.249%" fx="10.099%" fy="27.789%" gradientTransform="translate(0.100994,0.277886),scale(0.665841,1.000000),rotate(8.444598),translate(-0.100994,-0.277886)">
            <stop offset="0%" stop-color="#35C1F1"/>
            <stop offset="11%" stop-color="#34C1ED"/>
            <stop offset="23%" stop-color="#2FC2DF"/>
            <stop offset="31%" stop-color="#2BC3D2"/>
            <stop offset="100%" stop-color="#36C752"/>
        </radialGradient>
        <radialGradient id="qbvx1ncsjf" cx="92.326%" cy="95.031%" r="87.954%" fx="92.326%" fy="95.031%" gradientTransform="translate(0.923262,0.950313),scale(0.665841,1.000000),rotate(-97.575707),translate(-0.923262,-0.950313)">
            <stop offset="0%" stop-color="#66EB6E"/>
            <stop offset="100%" stop-color="#66EB6E" stop-opacity="0"/>
        </radialGradient>
        <linearGradient id="qxbrdmz0ba" x1="-.003%" x2="99.998%" y1="50.002%" y2="50.002%">
            <stop offset="0%" stop-color="#0C59A4"/>
            <stop offset="100%" stop-color="#114A8B"/>
        </linearGradient>
        <linearGradient id="kidjfpf8qc" x1="76.704%" x2="33.251%" y1="24.8%" y2="83.175%">
            <stop offset="0%" stop-color="#1B9DE2"/>
            <stop offset="16%" stop-color="#1595DF"/>
            <stop offset="67%" stop-color="#0680D7"/>
            <stop offset="100%" stop-color="#0078D4"/>
        </linearGradient>
    </defs>
    <g fill="none" fill-rule="evenodd">
        <g fill-rule="nonzero">
            <g>
                <g>
                    <g>
                        <path fill="#FFF" stroke="#E7EBF0" stroke-width=".5" d="M27.278.25c3.188.008 4.976.068 6.885.672 2.286.835 4.086 2.637 4.919 4.925.6 1.905.66 3.693.667 6.875h0l.001.801v13.755c-.008 3.188-.068 4.976-.672 6.885-.835 2.286-2.637 4.086-4.924 4.918-1.906.601-3.693.661-6.876.668h0l-.801.001H12.722c-3.188-.008-4.976-.068-6.884-.672-2.287-.835-4.087-2.637-4.92-4.925-.6-1.905-.66-3.693-.667-6.874h0V12.722c.007-3.188.067-4.976.67-6.885C1.758 3.551 3.56 1.751 5.848.918 7.752.318 9.54.258 12.72.251h0z" transform="translate(-1421.000000, -538.000000) translate(1401.000000, 26.000000) translate(0.000000, 383.000000) translate(20.000000, 129.000000)"/>
                        <g>
                            <path fill="url(#qxbrdmz0ba)" d="M28.882 23.813c-.427.223-.867.42-1.318.589-1.434.537-2.954.81-4.486.807-5.915 0-11.067-4.068-11.067-9.288.015-1.426.8-2.732 2.054-3.413-5.347.224-6.725 5.799-6.725 9.065 0 9.233 8.51 10.169 10.345 10.169.988 0 2.48-.288 3.374-.57l.164-.055c3.443-1.19 6.379-3.517 8.324-6.597.123-.193.1-.445-.058-.612-.157-.166-.407-.205-.607-.093v-.002z" transform="translate(-1421.000000, -538.000000) translate(1401.000000, 26.000000) translate(0.000000, 383.000000) translate(20.000000, 129.000000) translate(4.000000, 4.000000)"/>
                            <path fill="url(#j9loe902wb)" d="M27.564 24.402c-1.434.537-2.954.81-4.486.807-5.915 0-11.067-4.068-11.067-9.288.015-1.426.8-2.732 2.054-3.413-5.347.224-6.725 5.799-6.725 9.065 0 9.233 8.51 10.169 10.345 10.169.988 0 2.48-.288 3.374-.57l.164-.055c3.443-1.19 6.379-3.517 8.324-6.597.123-.193.1-.445-.058-.612-.157-.166-.407-.205-.607-.093-.427.221-.867.418-1.318.587z" opacity=".102" transform="translate(-1421.000000, -538.000000) translate(1401.000000, 26.000000) translate(0.000000, 383.000000) translate(20.000000, 129.000000) translate(4.000000, 4.000000)"/>
                            <path fill="url(#kidjfpf8qc)" d="M13.214 30.174c-1.115-.692-2.08-1.599-2.842-2.668-1.755-2.406-2.357-5.464-1.646-8.356.712-2.892 2.665-5.321 5.337-6.638.39-.184 1.056-.516 1.942-.5 1.266.01 2.454.61 3.211 1.625.505.675.784 1.492.795 2.335 0-.026 3.057-9.948-10-9.948-5.485-.008-9.997 5.2-9.997 9.77-.022 2.415.495 4.805 1.513 6.996 3.445 7.347 11.845 10.952 19.545 8.387-2.636.83-5.504.465-7.847-1l-.011-.003z" transform="translate(-1421.000000, -538.000000) translate(1401.000000, 26.000000) translate(0.000000, 383.000000) translate(20.000000, 129.000000) translate(4.000000, 4.000000)"/>
                            <path fill="url(#6k5y92r3ud)" d="M13.214 30.174c-1.115-.692-2.08-1.599-2.842-2.668-1.755-2.406-2.357-5.464-1.646-8.356.712-2.892 2.665-5.321 5.337-6.638.39-.184 1.056-.516 1.942-.5 1.266.01 2.454.61 3.211 1.625.505.675.784 1.492.795 2.335 0-.026 3.057-9.948-10-9.948-5.485-.008-9.997 5.2-9.997 9.77-.022 2.415.495 4.805 1.513 6.996 3.445 7.347 11.845 10.952 19.545 8.387-2.636.83-5.504.465-7.847-1l-.011-.003z" opacity=".225" transform="translate(-1421.000000, -538.000000) translate(1401.000000, 26.000000) translate(0.000000, 383.000000) translate(20.000000, 129.000000) translate(4.000000, 4.000000)"/>
                            <path fill="url(#vutjm3fyce)" d="M19.04 18.604c-.101.131-.413.313-.413.708 0 .326.213.64.59.903 1.798 1.25 5.186 1.085 5.195 1.085 1.332-.004 2.639-.364 3.783-1.045 2.351-1.372 3.799-3.887 3.804-6.609.033-2.8-1-4.663-1.417-5.487C27.933 2.979 22.216 0 15.999 0 7.252 0 .123 7.025 0 15.772c.061-4.567 4.6-8.254 10-8.254.437 0 2.932.042 5.249 1.258 2.042 1.072 3.112 2.367 3.856 3.65.772 1.334.91 3.019.91 3.688 0 .668-.343 1.668-.975 2.49z" transform="translate(-1421.000000, -538.000000) translate(1401.000000, 26.000000) translate(0.000000, 383.000000) translate(20.000000, 129.000000) translate(4.000000, 4.000000)"/>
                            <path fill="url(#qbvx1ncsjf)" d="M19.04 18.604c-.101.131-.413.313-.413.708 0 .326.213.64.59.903 1.798 1.25 5.186 1.085 5.195 1.085 1.332-.004 2.639-.364 3.783-1.045 2.351-1.372 3.799-3.887 3.804-6.609.033-2.8-1-4.663-1.417-5.487C27.933 2.979 22.216 0 15.999 0 7.252 0 .123 7.025 0 15.772c.061-4.567 4.6-8.254 10-8.254.437 0 2.932.042 5.249 1.258 2.042 1.072 3.112 2.367 3.856 3.65.772 1.334.91 3.019.91 3.688 0 .668-.343 1.668-.975 2.49z" transform="translate(-1421.000000, -538.000000) translate(1401.000000, 26.000000) translate(0.000000, 383.000000) translate(20.000000, 129.000000) translate(4.000000, 4.000000)"/>
                        </g>
                    </g>
                </g>
            </g>
        </g>
    </g>
</svg>
