<svg width="25" height="24" viewBox="0 0 25 24" fill="none" xmlns="http://www.w3.org/2000/svg">
<path d="M2.5 5C2.5 3.34315 3.84315 2 5.5 2H19C20.6569 2 22 3.34315 22 5V18.5C22 18.5684 21.9977 18.6363 21.9932 18.7036C21.955 18.6514 21.9128 18.6014 21.8664 18.5539L15.8451 12.4006C15.5942 12.1442 15.2539 12 14.899 12H13.169C12.7995 12 12.5 12.3061 12.5 12.6837V14.4517C12.5 14.8143 12.641 15.1622 12.8919 15.4186L18.8426 21.5H5.5C3.84315 21.5 2.5 20.1569 2.5 18.5V5ZM14.8989 13H13.5V14.4517C13.5 14.5561 13.5408 14.6519 13.6066 14.7192L20.6278 21.8726C20.7582 22.0058 20.9604 22.0058 21.0907 21.8726L22.1516 20.7884C22.2938 20.6431 22.2938 20.3986 22.1516 20.2533L15.1304 13.1C15.0652 13.0334 14.9814 13 14.8989 13ZM4.5 6.15773C4.5 6.56295 4.83318 6.89145 5.24418 6.89145H15.3651C15.7761 6.89145 16.1093 6.56295 16.1093 6.15773C16.1093 5.75251 15.7761 5.42401 15.3651 5.42401H5.24418C4.83318 5.42401 4.5 5.75251 4.5 6.15773ZM4.5 9.09262C4.5 9.49785 4.83318 9.82634 5.24418 9.82634H15.3651C15.7761 9.82634 16.1093 9.49785 16.1093 9.09262C16.1093 8.6874 15.7761 8.3589 15.3651 8.3589H5.24418C4.83318 8.3589 4.5 8.6874 4.5 9.09262ZM5.2485 12.7612H8.69162C9.105 12.7612 9.44012 12.4327 9.44012 12.0275C9.44012 11.6223 9.105 11.2938 8.69162 11.2938H5.2485C4.83512 11.2938 4.5 11.6223 4.5 12.0275C4.5 12.4327 4.83512 12.7612 5.2485 12.7612Z" fill="#74D6F1"/>
</svg>
