<svg width="25" height="24" viewBox="0 0 25 24" fill="none" xmlns="http://www.w3.org/2000/svg">
<path d="M6.20514 6.15774C6.20514 6.56296 6.53833 6.89146 6.94933 6.89146H17.0702C17.4812 6.89146 17.8144 6.56296 17.8144 6.15774C17.8144 5.75251 17.4812 5.42402 17.0702 5.42402H6.94933C6.53833 5.42402 6.20514 5.75251 6.20514 6.15774Z" fill="#BCCFDC"/>
<path d="M6.20514 9.09263C6.20514 9.49785 6.53833 9.82635 6.94933 9.82635H17.0702C17.4812 9.82635 17.8144 9.49785 17.8144 9.09263C17.8144 8.68741 17.4812 8.35891 17.0702 8.35891H6.94933C6.53833 8.35891 6.20514 8.68741 6.20514 9.09263Z" fill="#BCCFDC"/>
<path d="M6.20514 12.0275C6.20514 12.4327 6.54026 12.7612 6.95365 12.7612H10.3968C10.8101 12.7612 11.1453 12.4327 11.1453 12.0275C11.1453 11.6223 10.8101 11.2938 10.3968 11.2938H6.95365C6.54026 11.2938 6.20514 11.6223 6.20514 12.0275Z" fill="#BCCFDC"/>
<path d="M2.5 18.8312C2.5 20.4563 3.83052 21.7737 5.47179 21.7737H14.5729C14.9832 21.7737 15.3159 21.4444 15.3159 21.0381C15.3159 20.6318 14.9832 20.3025 14.5729 20.3025H5.47179C4.65116 20.3025 3.9859 19.6438 3.9859 18.8312V4.94252C3.9859 4.12997 4.65116 3.47126 5.47179 3.47126H18.5477C19.3683 3.47126 20.0336 4.12997 20.0336 4.94252V13.9908C20.0336 14.397 20.3662 14.7264 20.7765 14.7264C21.1868 14.7264 21.5195 14.397 21.5195 13.9908V4.94252C21.5195 3.31741 20.189 2 18.5477 2H5.47179C3.83052 2 2.5 3.31741 2.5 4.94252V18.8312Z" fill="#BCCFDC"/>
<path d="M16.0869 12.4281L22.1081 18.5814C22.6306 19.1154 22.6306 19.9813 22.1081 20.5153L21.0472 21.5995C20.5246 22.1335 19.6774 22.1335 19.1549 21.5995L13.1336 15.4461C12.8827 15.1897 12.7417 14.8418 12.7417 14.4792V12.7112C12.7417 12.3336 13.0413 12.0275 13.4108 12.0275H15.1408C15.4956 12.0275 15.836 12.1716 16.0869 12.4281ZM14.0798 14.4792L18.0939 18.5814L19.1549 17.4972L15.1407 13.3949H14.0798V14.4792ZM20.101 20.6326L21.1619 19.5484L20.101 18.4641L19.0401 19.5484L20.101 20.6326Z" fill="#BCCFDC"/>
</svg>
