<svg width="24" height="24" viewBox="0 0 24 24" fill="none" xmlns="http://www.w3.org/2000/svg">
<path d="M2 5C2 3.34315 3.34315 2 5 2H18.5C20.1569 2 21.5 3.34315 21.5 5V18.5C21.5 18.5684 21.4977 18.6363 21.4932 18.7036C21.455 18.6514 21.4128 18.6014 21.3664 18.5539L15.3451 12.4006C15.0942 12.1442 14.7539 12 14.399 12H12.669C12.2995 12 12 12.3061 12 12.6837V14.4517C12 14.8143 12.141 15.1622 12.3919 15.4186L18.3426 21.5H5C3.34315 21.5 2 20.1569 2 18.5V5ZM14.3989 13H13V14.4517C13 14.5561 13.0408 14.6519 13.1066 14.7192L20.1278 21.8726C20.2582 22.0058 20.4604 22.0058 20.5907 21.8726L21.6516 20.7884C21.7938 20.6431 21.7938 20.3986 21.6516 20.2533L14.6304 13.1C14.5652 13.0334 14.4814 13 14.3989 13ZM4 6.15773C4 6.56295 4.33318 6.89145 4.74418 6.89145H14.8651C15.2761 6.89145 15.6093 6.56295 15.6093 6.15773C15.6093 5.75251 15.2761 5.42401 14.8651 5.42401H4.74418C4.33318 5.42401 4 5.75251 4 6.15773ZM4 9.09262C4 9.49785 4.33318 9.82634 4.74418 9.82634H14.8651C15.2761 9.82634 15.6093 9.49785 15.6093 9.09262C15.6093 8.6874 15.2761 8.3589 14.8651 8.3589H4.74418C4.33318 8.3589 4 8.6874 4 9.09262ZM4.7485 12.7612H8.19162C8.605 12.7612 8.94012 12.4327 8.94012 12.0275C8.94012 11.6223 8.605 11.2938 8.19162 11.2938H4.7485C4.33512 11.2938 4 11.6223 4 12.0275C4 12.4327 4.33512 12.7612 4.7485 12.7612Z" fill="#087191"/>
</svg>
