<svg width="71" height="60" viewBox="0 0 71 60" fill="none" xmlns="http://www.w3.org/2000/svg">
<path opacity="0.2" d="M6.4403 11C9.18287 11 11.3806 8.74719 11.3806 6C11.3806 3.25281 9.18287 1 6.4403 1C3.69772 1 1.5 3.25281 1.5 6C1.5 8.74719 3.69772 11 6.4403 11ZM22.2015 2C20.003 2 18.2463 3.80509 18.2463 6C18.2463 8.19491 20.003 10 22.2015 10H65.5448C67.7433 10 69.5 8.19491 69.5 6C69.5 3.80509 67.7433 2 65.5448 2H22.2015ZM22.2015 26C20.003 26 18.2463 27.8051 18.2463 30C18.2463 32.1949 20.003 34 22.2015 34H65.5448C67.7433 34 69.5 32.1949 69.5 30C69.5 27.8051 67.7433 26 65.5448 26H22.2015ZM22.2015 50C20.003 50 18.2463 51.8051 18.2463 54C18.2463 56.1949 20.003 58 22.2015 58H65.5448C67.7433 58 69.5 56.1949 69.5 54C69.5 51.8051 67.7433 50 65.5448 50H22.2015ZM6.4403 59C9.18287 59 11.3806 56.7472 11.3806 54C11.3806 51.2528 9.18287 49 6.4403 49C3.69772 49 1.5 51.2528 1.5 54C1.5 56.7472 3.69772 59 6.4403 59ZM6.4403 35C9.18287 35 11.3806 32.7472 11.3806 30C11.3806 27.2528 9.18287 25 6.4403 25C3.69772 25 1.5 27.2528 1.5 30C1.5 32.7472 3.69772 35 6.4403 35Z" fill="#035970" stroke="white" stroke-width="2" stroke-linecap="round"/>
</svg>
