<?xml version="1.0" encoding="utf-8"?>
<!-- Generator: Adobe Illustrator 23.0.4, SVG Export Plug-In . SVG Version: 6.00 Build 0)  -->
<svg version="1.1" id="Layer_1" xmlns="http://www.w3.org/2000/svg" xmlns:xlink="http://www.w3.org/1999/xlink" x="0px" y="0px"
	 viewBox="0 0 107.8 53.3" style="enable-background:new 0 0 107.8 53.3;" xml:space="preserve">
<style type="text/css">
	.st0{fill-rule:evenodd;clip-rule:evenodd;fill:#C0D0DF;stroke:#C0D0DF;stroke-width:1.5;}
	.st1{filter:url(#Adobe_OpacityMaskFilter);}
	.st2{fill-rule:evenodd;clip-rule:evenodd;fill:#FFFFFF;}
	.st3{mask:url(#b_1_);fill-rule:evenodd;clip-rule:evenodd;fill:#C0D0DF;stroke:#C0D0DF;stroke-width:3;}
</style>
<g>
	<path class="st0" d="M3,27.1c0-0.1,0.2-0.2,0.4-0.3c0.1,0,0.3,0,0.4,0.1c0.1,0.1,0,0.3,0,0.3l-0.3,0.5c-0.7,0.7-0.8,1.2-1.1,1.8
		c-0.5,1.1-0.1,1.9,0.4,2.6c0.4,0.6,1.3,1.2,1.4,1.2c0.7,0.5,1.5,0.6,2.7,0.8c0.9,0.2,2,0.1,2.5,0.2c0.9,0.1,5.3,0.4,7.2,0.1
		c1.4-0.2,2.7-0.6,2.9-0.6c1.4-0.2,3.7-1.1,5.6-1.9c2.6-1.1,4.6-2,7.1-3.6c0.6-0.3,1.2-0.6,1.5-1c1.3-1.5,4.3-3.2,4.7-3.9
		c0.9-1.6,1.5-2.4,0.9-3.2c-0.7-1.1-1.9-1.2-3.7-1.4c-0.9-0.1-3.4-0.9-4.7-1.1c-1.3-0.2-2.6-0.2-3.5-0.3c-1.1-0.2-2.2-0.4-3.3-0.6
		c-1.4-0.3-2.7-0.4-3.4-1c-0.6-0.5-1.3-0.7-1.4-1.4c-0.2-1.3,0.3-1.9,0.6-2.4c0.6-0.9,1.7-2.1,3.2-3.4c0.6-0.5,1-0.8,1.7-1.3
		c1.2-0.9,2.7-1.7,4.2-2.5c1.5-0.8,2.4-1.3,3.3-1.6c0.7-0.3,1.5-0.5,2.4-0.8c1.9-0.6,3.6-1.1,4.8-1.3C40.6,0.9,42,0.6,43,0.8
		c0.3,0.1,0.5,0.3,0.8,0.6c0.3,0.3,0.7,0.6,0.6,1C44.4,3,44.6,3.1,44,3.7c-0.2,0.2-0.6,0.9-1.1,1c-0.4,0.1-1.4,0.9-2.1,0.9
		c-0.9,0-1.6-0.7-1.7-1.1c0-0.1-0.5-0.1-1.1-0.3c-0.5-0.2-3.8,0.2-5.9,1.1c-1,0.6-3.5,0.8-4.4,1.5c-0.9,0.7-2.7,1.6-3.4,2.3
		c-1.3,1.2-1.5,2.1-1.5,2.7c-0.1,0.6,0.7,1.4,1.1,1.7c0.9,0.7,3.5,1,4.6,1.3c0.5,0.2,2.1,0.7,4.2,1.1c1.3,0.2,2,0.6,3.2,0.9
		c1.6,0.3,1.8,0.8,3.4,1.3c1.1,0.4,2,1.2,2.9,2.1c0.8,0.8,1.1,2.4,0.7,3.3c-0.4,0.9-0.7,1.7-1.8,2.7c-0.3,0.3-0.5,0.4-0.9,0.7
		c-0.3,0.2-0.7,0.7-0.9,0.9c-1.9,1.6-4.6,3.4-7,4.6c-2.6,1.4-4.9,2.2-7.5,2.9c-1.3,0.4-2.6,0.7-3.9,1c-1.6,0.4-3.3,0.4-4.7,0.6
		c-1.6,0.2-3,0.3-3.6,0.1c-0.8-0.1-4.1-0.7-5.1-0.9c-1.7-0.4-3-1-3.3-1.2c-0.2-0.3-2.8-1.3-3.2-2.7c-0.2-0.7-0.2-1.4,0-2.1
		c0.2-0.5,0.5-1,0.9-1.6C2.2,28.1,2.6,27.7,3,27.1z M51.9,19.1c-0.6,1-1.1,2-1.4,3c-0.3,0.9-0.4,1.7-0.2,2c0.1,0.2,0.2,0.3,0.4,0.3
		c0.5-0.1,1.7-0.4,2.3-0.7c0.6-0.3,1.5-0.8,2.4-1.4c0.6-0.4,1.2-0.8,1.7-1.2c0.7-0.5,1.3-1,2-1.4c0.8-0.5,1.5-1,1.7-1.2
		c0.1-0.1,0.5-0.2,0.8-0.3c0.2,0,0.3,0.1,0.3,0.2c0,0.1,0.3,0.4,0,0.7c-0.2,0.2-0.3,0.2-0.4,0.3c-0.4,0.3-1.2,0.6-1.4,0.8
		c-1,0.7-1.8,1-2.9,2c-0.8,0.7-2.4,2-3.2,2.6c-1.5,1.3-2.4,2.3-3.1,2.8c-0.3,0.2-0.9,0.6-1.1,0.7c-0.2,0.1-1.1,0.5-1.8,0.1
		c-0.2-0.1-0.7-0.1-1-0.5c-0.3-0.3-0.4-0.8-0.6-1.2c-0.2-0.6-0.1-2.5,0.4-3.8c0.4-1,1.1-2.8,1.5-3.5c0.3-0.4,1-1.6,1-2.3
		c0-0.5,0.8-1.5,1.1-1.9c0.1-0.2,1-1.1,1.4-1.4c0.6-0.4,1.1-0.3,1.4-0.3c0.9-0.2,1.7,0.6,1.6,1.2c-0.1,0.4-0.6,0.9-1,1.4
		c-0.3,0.3-0.6,0.8-0.9,1.3C52.5,18,52.1,18.7,51.9,19.1L51.9,19.1z M55.2,10c-0.4,0-1-0.4-1-0.6c0-0.3,0-0.5,0-0.8
		c0-0.9,0.4-1.8,0.9-2.5c0.6-0.7,1.2-1.3,1.6-1.5c0.3-0.1,0.7-0.2,1-0.2c0.7,0,1.5,0.2,1.9,0.7c0.2,0.4-0.1,1.4-0.2,1.6
		c-0.3,0.5-0.4,0.8-0.6,1c-0.4,0.6-1,1.2-1.9,1.9C56.8,9.5,55.8,9.9,55.2,10z M75.5,10.7c0.1,0.1,0.3,0.4,0.5,0.6
		c0.2,0.2,0.3,0.4,0.1,0.6c-0.1,0.1,0,0.6-0.3,1c-0.5,0.5-1.2,1.3-1.5,1.2c-0.1,0-0.6,0.2-1,0c-0.3-0.2-0.3-0.3-0.4-0.4
		c-0.3-0.3-0.5-0.6-1.4-0.1c-0.4,0.2-1.1,0.7-1.7,1.2c-1.2,0.9-2.5,2-3.2,2.8c-0.5,0.5-0.9,1-1.3,1.5c-1,1.2-1.6,2.2-1.9,2.9
		c-0.3,0.5-0.3,1-0.3,1.3c0,0.4,0.2,0,0.7-0.2c0.4-0.1,0.8-0.3,2.3-1.4c0.8-0.6,2.1-1.5,3.4-2.6c0.8-0.6,1.7-1.3,2.5-2l2.1-1.7
		l0.2-0.2c0.6-0.5,1.1-0.9,1.4-1c0,0,0.1-0.1,0.1-0.1c0.3-0.2,0.6-0.3,1.2-0.2c0.4,0.1,0.8-0.1,1.1,0.2c0.4,0.4,0.9,0.9,0.7,1.6
		c-0.2,0.5-0.7,1.1-1.1,1.7c-0.5,0.8-0.7,2.5-1.1,3.5c-0.4,0.9-0.9,2.9-1.8,4.8L73.3,29c-0.5,1-1.3,2.5-2.2,3.8
		c-1.3,1.8-2.2,3.6-3.3,5.1c-0.3,0.5-1.8,1.9-3.2,3c-0.9,0.7-1.8,1.5-2.8,2.2c-1.8,1.3-3,1.8-6.6,2.6c-1.5,0.3-3.7,0.2-5.8-0.4
		c-1.4-0.4-2.6-0.9-3.6-1.7c-1-0.8-1.8-1.8-2.3-3c-0.4-1-0.6-2.1-0.5-3.2c0.1-0.6,0.9-2.2,1.8-3.4c0.6-0.9,0.6-0.7,1-1.2
		c0.4-0.4,0.8-0.6,1.2-0.9c0.4-0.2,0.4-0.1,0.2,0.3c-0.1,0.2-0.3,0.5-0.5,0.8c-0.5,0.6-0.7,0.6-1.3,1.7c-0.9,2.2-0.9,4.3-0.5,5.3
		c0.3,0.8,1,1.5,1.9,2.1c0.8,0.5,1.7,0.9,2.7,1.1c1.5,0.3,3.1,0.4,5.1,0c1.4-0.3,2.7-0.8,3.9-1.5c2.2-1.2,3.4-2.7,3.9-3
		c0.5-0.4,2.3-2.3,3.3-3.5c1-1.3,2.3-3.6,3.2-4.9c1.2-2,1.9-3.1,2.9-5.8c0.4-1.3,0.6-1.6,0.7-2c0.2-0.6,0.4-1.2,0.4-1.8
		c0.1-0.9,0-1.3-0.1-1.3c-0.4-0.1-0.8,0-1.4,0.3c-0.7,0.4-1.5,1-2.3,1.5c-0.6,0.4-1.3,0.9-1.8,1.4c-1.1,1-2.2,2.2-3.1,2.9
		c-1.2,1-1.6,1.6-2,1.8c-0.6,0.3-2.3,0.2-2.9-0.1c-0.5-0.4-1-1.5-1-1.9c0-0.8,0.3-1.7,0.9-2.6c0.4-0.6,0.8-1.3,1.3-2.1
		c0.8-1.2,1.6-2.3,2.6-3.4c0.7-0.8,1.5-1.6,2.3-2.3c0.8-0.7,1.6-1.4,2.5-2c1.1-0.7,2.2-1.4,3.1-1.8c0.7-0.3,1.3-0.4,1.8-0.5
		C73.6,10.3,74.7,10.1,75.5,10.7L75.5,10.7z M98.4,10.9c-0.4,0.6-0.8,2.1-1,3.4c-0.2,1.1-0.3,1.6-0.4,2.2c0,0.6-0.2,1.3-0.2,1.6
		c0.1,0.7,0.2,1.2,0.4,1.5c0.3,0.4,0.7,0.4,1.3,0.1c1.2-0.6,2.4-1.4,3.1-1.9c2-1.8,3.2-2.6,3.9-3.4c0.2-0.2,1.2-0.6,1.4-0.5
		c0.1,0.1,0.2,0.7,0,0.8c-0.5,0.4-0.8,0.5-1.5,1.1l-3,2.6c-1.5,1.3-3.1,2.8-4.3,3.7c-1.1,0.9-1.3,1.1-2.5,1.2
		c-1.3,0.2-2.2-1.2-2.3-2.9c0-0.5,0-1.5,0-2.3c0-0.9,0.2-2.6,0.4-3.7c0.1-0.8,0-0.8,0-1c0-0.5-0.3-0.8-0.8-0.6
		c-0.4,0.1-1.4,0.9-1.6,1.1c-0.9,0.8-1.3,1.1-2.2,1.9c-0.8,0.7-1.5,1.7-2.1,2.3c-0.6,0.6-1.8,2.2-2.1,2.7c-0.6,1-0.6,1-0.9,1.6
		c-0.4,0.6-1,1.5-1.3,1.8c-0.4,0.4-0.9,0.8-1.6,0.6c-0.7-0.2-1.5-1-1.5-1.7c0-0.9,0.4-1.7,0.6-2.5c0.1-0.4,0.6-1.6,1.2-2.6
		c0.6-1.1,1.2-2.2,1.8-3.3c0.3-0.6,0.9-1.9,0.9-2c0.3-0.5,0.4-1.1,0.7-1.6c0.3-0.5,0.7-0.7,1.1-0.8c0.7-0.3,1.2-0.4,1.8-0.4
		c0.4,0,0.9,0.3,1,0.5c0.1,0.3,0.1,0.7,0.1,1c-0.1,0.3-0.1,0.7-0.5,1.2c-0.1,0.2-0.8,0.7-0.9,0.9c-0.5,0.7-1,1.4-1.4,2
		c-0.1,0.1-0.5,1.1-0.4,1.5c0,0.1,0.2,0.1,0.3,0.1c0.3-0.1,2.5-2.1,2.8-2.4c1-0.9,2-1.8,3-2.8c0.5-0.5,1.2-1.2,1.6-1.6
		c0.4-0.4,1-0.9,1.2-1.2c0.4-0.4,1.3-0.8,1.7-0.9C97,8,97.8,8.1,98.4,8.6c0.3,0.2,0.5,0.5,0.4,0.8C98.8,10,98.6,10.6,98.4,10.9
		L98.4,10.9z"/>
	<g transform="translate(35 32)">
		<defs>
			<filter id="Adobe_OpacityMaskFilter" filterUnits="userSpaceOnUse" x="-27.1" y="-2.3" width="99" height="23.7">
				<feColorMatrix  type="matrix" values="1 0 0 0 0  0 1 0 0 0  0 0 1 0 0  0 0 0 1 0"/>
			</filter>
		</defs>
		<mask maskUnits="userSpaceOnUse" x="-27.1" y="-2.3" width="99" height="23.7" id="b_1_">
			<g class="st1">
				<path id="a_1_" class="st2" d="M-26-0.8h96v21h-96V-0.8z"/>
			</g>
		</mask>
		<path class="st3" d="M-26,20.2c4.6-5,11.4-9.1,18.9-12.4C-6.1,7.4-5.2,7-4.2,6.6l3-1c1-0.3,2-0.7,3-1l3.1-0.9l3.1-0.9
			c1-0.3,2.1-0.5,3.2-0.7l3.2-0.7c1.1-0.2,2.1-0.5,3.2-0.6L24,0c1.1-0.2,2.2-0.2,3.3-0.3l3.3-0.2c4.4-0.4,8.9-0.3,13.3-0.3
			c1.1,0,2.2,0,3.3,0.1l3.3,0.2l6.6,0.4C61.4,0.5,65.8,1,70,1.7L70,2c-4.4-0.2-8.7-0.6-13-0.8L50.4,1c-2.2,0-4.3-0.2-6.5-0.1
			C39.5,1.1,35.2,1,30.9,1.5l-3.2,0.3c-1.1,0.1-2.2,0.1-3.2,0.3L18.2,3C9.8,4.3,1.7,6.4-5.8,9.2C-13.3,12.1-20.4,15.6-26,20.2"/>
	</g>
</g>
</svg>
