<svg xmlns="http://www.w3.org/2000/svg" viewBox="0 0 32 32" fill="none">
  <rect rx="16" fill="white"/>
  <path
    d="M16 0C12.8355 0 9.74207 0.938383 7.11088 2.69649C4.4797 4.45459 2.42894 6.95345 1.21793 9.87706C0.0069326 12.8007 -0.309921 16.0177 0.307443 19.1214C0.924806 22.2251 2.44866 25.0761 4.6863 27.3137C6.92394 29.5513 9.77487 31.0752 12.8786 31.6926C15.9823 32.3099 19.1993 31.9931 22.1229 30.7821C25.0466 29.5711 27.5454 27.5203 29.3035 24.8891C31.0616 22.2579 32 19.1645 32 16C31.995 11.7581 30.3077 7.69132 27.3082 4.69182C24.3087 1.69232 20.2419 0.00500432 16 0ZM22.1702 20.1149C22.3091 20.2491 22.4199 20.4096 22.4962 20.587C22.5724 20.7645 22.6125 20.9554 22.6142 21.1485C22.6159 21.3416 22.5791 21.5332 22.5059 21.7119C22.4328 21.8907 22.3248 22.0531 22.1882 22.1897C22.0516 22.3262 21.8892 22.4342 21.7105 22.5074C21.5317 22.5805 21.3402 22.6173 21.1471 22.6156C20.9539 22.614 20.7631 22.5738 20.5856 22.4976C20.4081 22.4214 20.2476 22.3106 20.1135 22.1716L16 18.0567L11.8866 22.1716C11.6122 22.4366 11.2448 22.5832 10.8634 22.5799C10.482 22.5766 10.1172 22.4236 9.84754 22.1539C9.57786 21.8842 9.42488 21.5194 9.42157 21.138C9.41826 20.7567 9.56487 20.3892 9.82982 20.1149L13.9433 16L9.82982 11.8851C9.6909 11.7509 9.58009 11.5904 9.50386 11.4129C9.42763 11.2355 9.3875 11.0446 9.38582 10.8515C9.38414 10.6584 9.42095 10.4668 9.49408 10.2881C9.56722 10.1093 9.67522 9.9469 9.81179 9.81033C9.94837 9.67376 10.1108 9.56576 10.2895 9.49262C10.4683 9.41949 10.6598 9.38268 10.853 9.38436C11.0461 9.38604 11.237 9.42617 11.4144 9.5024C11.5919 9.57863 11.7524 9.68944 11.8866 9.82836L16 13.9433L20.1135 9.82836C20.2476 9.68944 20.4081 9.57863 20.5856 9.5024C20.7631 9.42617 20.9539 9.38604 21.1471 9.38436C21.3402 9.38268 21.5317 9.41949 21.7105 9.49262C21.8892 9.56576 22.0516 9.67376 22.1882 9.81033C22.3248 9.9469 22.4328 10.1093 22.5059 10.2881C22.5791 10.4668 22.6159 10.6584 22.6142 10.8515C22.6125 11.0446 22.5724 11.2355 22.4962 11.4129C22.4199 11.5904 22.3091 11.7509 22.1702 11.8851L18.0567 16L22.1702 20.1149Z"
    fill="#BF0B00"/>
</svg>
