<svg xmlns="http://www.w3.org/2000/svg" width="94" height="94" fill="none"><g filter="url(#a)"><path fill="#F7F9FB" d="M47 90c24.853 0 45-20.147 45-45S71.853 0 47 0 2 20.147 2 45s20.147 45 45 45Z"/></g><path fill="url(#b)" d="m20.769 38.518 24.34-14.571a4.25 4.25 0 0 1 4.359 0l24.34 14.571V62.27l-53.04-2.662v-21.09Z"/><path fill="url(#c)" d="m67.736 22.108-33.335-3.075a2.888 2.888 0 0 0-3.14 2.61l-3.018 32.713a2.888 2.888 0 0 0 2.61 3.14l33.336 3.075a2.888 2.888 0 0 0 3.14-2.61l3.018-32.712a2.888 2.888 0 0 0-2.61-3.141Z"/><rect width="16.613" height="16.613" x="42.515" y="22.309" fill="#FFEFC6" rx="8.307" transform="rotate(4.573 42.515 22.31)"/><path fill="#D18F0B" fill-rule="evenodd" d="M53.567 32.17a.367.367 0 0 1 .396-.338l2.01.16a.367.367 0 0 1-.06.733l-2.009-.16a.367.367 0 0 1-.337-.396Z" clip-rule="evenodd"/><path fill="#D18F0B" fill-rule="evenodd" d="M55.044 30.954a.368.368 0 0 1 .337.396l-.154 1.916a.367.367 0 0 1-.732-.059l.153-1.916a.367.367 0 0 1 .396-.337ZM49.264 27.373c-1.664-.133-3.085 1.043-3.209 2.588-.123 1.545 1.093 2.933 2.757 3.066 1.664.133 3.085-1.043 3.209-2.588.123-1.546-1.093-2.933-2.757-3.066Zm-3.941 2.53c.158-1.982 1.965-3.425 4-3.263 2.035.163 3.589 1.875 3.43 3.857-.158 1.982-1.965 3.425-4 3.263-2.035-.163-3.589-1.875-3.43-3.857Z" clip-rule="evenodd"/><path fill="#D18F0B" fill-rule="evenodd" d="M48.753 33.76a6.507 6.507 0 0 0-2.486.279c-.79.251-1.5.652-2.082 1.17a.367.367 0 0 1-.489-.55 6.484 6.484 0 0 1 2.348-1.32 7.244 7.244 0 0 1 2.768-.312c.94.075 1.855.33 2.682.748.827.417 1.548.989 2.108 1.677a.367.367 0 0 1-.57.464 5.748 5.748 0 0 0-1.869-1.485 6.507 6.507 0 0 0-2.41-.671Z" clip-rule="evenodd"/><path fill="url(#d)" d="M73.808 38.454v26.379c0 2.722 0 4.084-.846 4.93-.846.845-2.207.845-4.93.845H26.544c-2.723 0-4.084 0-4.93-.845-.845-.846-.845-2.208-.845-4.93V38.454l26.52 15.877 26.519-15.877Z"/><path fill="url(#e)" d="M50.4 53.701a3.818 3.818 0 0 0-4.453 0L22.17 70.007c.296.254 1.328.6 2.29.6H70.72c.422 0 1.26-.28 1.716-.6L50.4 53.701Z"/><rect width="27.513" height="2.066" x="34.16" y="40.079" fill="#FFF1CC" rx="1.033" transform="rotate(5.27 34.16 40.079)"/><rect width="18.651" height="2.066" x="33.776" y="43.859" fill="#FFF1CC" rx="1.033" transform="rotate(5.27 33.776 43.86)"/><defs><linearGradient id="b" x1="47.288" x2="47.288" y1="23.346" y2="62.27" gradientUnits="userSpaceOnUse"><stop stop-color="#8EDEF4"/><stop offset="1" stop-color="#E2F9FF"/></linearGradient><linearGradient id="c" x1="51.069" x2="50.296" y1="20.571" y2="61.902" gradientUnits="userSpaceOnUse"><stop stop-color="#F2BE38"/><stop offset="1" stop-color="#FFF1CC"/></linearGradient><linearGradient id="d" x1="47.288" x2="47.288" y1="38.454" y2="70.608" gradientUnits="userSpaceOnUse"><stop stop-color="#8EDEF4"/><stop offset="1" stop-color="#E2F9FF"/></linearGradient><linearGradient id="e" x1="47.001" x2="48.225" y1="75.072" y2="54.672" gradientUnits="userSpaceOnUse"><stop stop-color="#8EDEF4"/><stop offset="1" stop-color="#E2F9FF"/></linearGradient><filter id="a" width="93.273" height="93.273" x=".364" y="0" color-interpolation-filters="sRGB" filterUnits="userSpaceOnUse"><feFlood flood-opacity="0" result="BackgroundImageFix"/><feColorMatrix in="SourceAlpha" result="hardAlpha" values="0 0 0 0 0 0 0 0 0 0 0 0 0 0 0 0 0 0 127 0"/><feMorphology in="SourceAlpha" radius="1.636" result="effect1_dropShadow_1_15054"/><feOffset dy="1.636"/><feGaussianBlur stdDeviation="1.636"/><feColorMatrix values="0 0 0 0 0.0470588 0 0 0 0 0.352941 0 0 0 0 0.439216 0 0 0 0.08 0"/><feBlend in2="BackgroundImageFix" result="effect1_dropShadow_1_15054"/><feColorMatrix in="SourceAlpha" result="hardAlpha" values="0 0 0 0 0 0 0 0 0 0 0 0 0 0 0 0 0 0 127 0"/><feMorphology in="SourceAlpha" radius="1.636" result="effect2_dropShadow_1_15054"/><feOffset dy="1.636"/><feGaussianBlur stdDeviation="1.636"/><feColorMatrix values="0 0 0 0 0.0470588 0 0 0 0 0.352941 0 0 0 0 0.439216 0 0 0 0.12 0"/><feBlend in2="effect1_dropShadow_1_15054" result="effect2_dropShadow_1_15054"/><feBlend in="SourceGraphic" in2="effect2_dropShadow_1_15054" result="shape"/></filter></defs></svg>