<svg width="80" height="91" viewBox="0 0 80 91" fill="none" xmlns="http://www.w3.org/2000/svg">
<path d="M62.8335 7.49112L16.9135 7.49112C14.849 7.49112 13.168 5.81004 13.168 3.74556C13.168 1.68108 14.849 0 16.9135 0L62.804 0C64.8685 0 66.5496 1.68108 66.5496 3.74556C66.5791 5.81004 64.898 7.49112 62.8335 7.49112Z" fill="url(#paint0_linear_322_17115)"/>
<path d="M63.5413 7.49219V30.5554C63.5413 43.2962 53.2189 53.6186 40.4781 53.6186H39.3278C31.6598 53.6186 24.8765 49.873 20.6885 44.1515C19.2139 42.1165 18.0342 39.8456 17.2969 37.3977C16.6186 35.2447 16.2646 32.9443 16.2646 30.5554L16.2646 7.49219L63.5413 7.49219Z" fill="url(#paint1_linear_322_17115)"/>
<path d="M59.0283 44.1503C59.0283 44.1798 59.0578 44.1798 59.0578 44.2093C67.8466 44.8581 72.3884 40.6997 74.6888 36.7477C76.252 34.0933 77.0188 31.0261 77.0483 27.9294C77.0483 26.5137 77.0483 24.5672 77.0483 22.4733C77.0483 21.559 76.9598 20.6447 76.7828 19.7599C74.7479 10.1749 64.101 10.8827 63.4817 10.9417V17.2531L63.5112 17.1941C63.5112 17.1941 70.9433 16.5747 70.7958 24.2133C70.8548 26.9856 70.7958 28.1653 70.7958 28.1653C70.7958 28.1653 71.6216 37.0426 62.5379 37.603C62.5084 37.5145 62.4789 37.4555 62.4495 37.367C61.6826 39.8444 60.503 42.1153 59.0283 44.1503Z" fill="url(#paint2_radial_322_17115)"/>
<path d="M20.6586 44.1503C20.6586 44.1798 20.6292 44.1798 20.6292 44.2093C11.8404 44.8581 7.2985 40.6997 4.99808 36.7477C3.43497 34.0933 2.66816 31.0261 2.63867 27.9294C2.63867 26.5137 2.63867 24.5672 2.63867 22.4733C2.63867 21.559 2.72716 20.6447 2.90411 19.7599C4.9391 10.1749 15.5859 10.8827 16.2053 10.9417V17.2531L16.1758 17.1941C16.1758 17.1941 8.74366 16.5747 8.89113 24.2133C8.83214 26.9856 8.89113 28.1653 8.89113 28.1653C8.89113 28.1653 8.06533 37.0426 17.1491 37.603C17.1785 37.5145 17.208 37.4555 17.2375 37.367C18.0338 39.8444 19.184 42.1153 20.6586 44.1503Z" fill="url(#paint3_radial_322_17115)"/>
<path d="M43.9874 53.1152H35.2871V64.9418H43.9874V53.1152Z" fill="url(#paint4_linear_322_17115)"/>
<path d="M49.1778 64.9434H29.7717C29.4473 64.9434 29.1523 65.2088 29.1523 65.5627V69.7506H49.7677V65.5627C49.7972 65.2383 49.5022 64.9434 49.1778 64.9434Z" fill="url(#paint5_linear_322_17115)"/>
<path d="M41.5987 16.427L43.2208 19.7006C43.4862 20.261 44.0466 20.6444 44.6659 20.7329L48.2935 21.2638C49.8566 21.4997 50.476 23.4167 49.3553 24.5079L46.7304 27.0738C46.288 27.5162 46.0816 28.1355 46.1701 28.7549L46.7894 32.353C47.0549 33.9161 45.4328 35.0958 44.0171 34.3585L40.7729 32.6479C40.2126 32.353 39.5637 32.353 39.0034 32.6479L35.7592 34.3585C34.373 35.0958 32.7214 33.9161 32.9869 32.353L33.6062 28.7549C33.7242 28.1355 33.5177 27.5162 33.0458 27.0738L30.421 24.5079C29.3003 23.4167 29.9197 21.4702 31.4828 21.2638L35.1103 20.7329C35.7297 20.6444 36.2605 20.261 36.5555 19.7006L38.1776 16.427C38.8854 15.0113 40.8909 15.0113 41.5987 16.427Z" fill="#FFF1CC"/>
<path fill-rule="evenodd" clip-rule="evenodd" d="M61.4369 77.1523C61.9683 77.1523 62.3991 77.5831 62.3991 78.1145C62.3991 78.6269 61.9985 79.0458 61.4934 79.0751L61.4369 79.0767H18.1067C17.5753 79.0767 17.1445 78.6459 17.1445 78.1145C17.1445 77.6021 17.5451 77.1832 18.0502 77.154L18.1067 77.1523H61.4369Z" fill="#102D42"/>
<path fill-rule="evenodd" clip-rule="evenodd" d="M55.447 81.4844C55.8323 81.4844 56.1446 81.9001 56.1446 82.413C56.1446 82.9075 55.8542 83.3117 55.488 83.3399L55.447 83.3415H24.0325C23.6473 83.3415 23.335 82.9258 23.335 82.413C23.335 81.9184 23.6254 81.5142 23.9916 81.486L24.0325 81.4844H55.447Z" fill="#102D42"/>
<rect x="0.464288" y="70.3627" width="78.8616" height="20.173" stroke="#102D42" stroke-width="0.928576"/>
<defs>
<linearGradient id="paint0_linear_322_17115" x1="13.1798" y1="3.73276" x2="65.9592" y2="3.73276" gradientUnits="userSpaceOnUse">
<stop stop-color="#FFE64F"/>
<stop offset="0.2486" stop-color="#FFC936"/>
<stop offset="0.5" stop-color="#FFF744"/>
<stop offset="0.7849" stop-color="#FFC836"/>
<stop offset="1" stop-color="#FFE64E"/>
</linearGradient>
<linearGradient id="paint1_linear_322_17115" x1="16.2388" y1="30.5532" x2="63.5302" y2="30.5532" gradientUnits="userSpaceOnUse">
<stop stop-color="#FFE961"/>
<stop offset="0.2486" stop-color="#F2BE38"/>
<stop offset="0.5" stop-color="#FFDF42"/>
<stop offset="0.7849" stop-color="#F2BE38"/>
<stop offset="1" stop-color="#FFDE87"/>
</linearGradient>
<radialGradient id="paint2_radial_322_17115" cx="0" cy="0" r="1" gradientUnits="userSpaceOnUse" gradientTransform="translate(64.1197 22.8335) rotate(180) scale(43.4959 43.496)">
<stop stop-color="#F36F56"/>
<stop offset="0.2486" stop-color="#FABF2A"/>
<stop offset="0.5" stop-color="#F9C94D"/>
<stop offset="0.7849" stop-color="#E4B150"/>
<stop offset="1" stop-color="#FFB680"/>
</radialGradient>
<radialGradient id="paint3_radial_322_17115" cx="0" cy="0" r="1" gradientUnits="userSpaceOnUse" gradientTransform="translate(20.5911 22.5952) rotate(179.758) scale(56.3576)">
<stop stop-color="#F36F56"/>
<stop offset="0.2486" stop-color="#FABF2A"/>
<stop offset="0.5" stop-color="#F9C94D"/>
<stop offset="0.7849" stop-color="#E4B150"/>
<stop offset="1" stop-color="#FFB680"/>
</radialGradient>
<linearGradient id="paint4_linear_322_17115" x1="35.1428" y1="59.0391" x2="44.1043" y2="59.0391" gradientUnits="userSpaceOnUse">
<stop stop-color="#FFE64F"/>
<stop offset="0.8944" stop-color="#FFAB36"/>
<stop offset="1" stop-color="#FFE64E"/>
</linearGradient>
<linearGradient id="paint5_linear_322_17115" x1="29.225" y1="65.2595" x2="49.9854" y2="69.6084" gradientUnits="userSpaceOnUse">
<stop stop-color="#FFE64F"/>
<stop offset="0.8944" stop-color="#FFAB36"/>
<stop offset="1" stop-color="#FFE64E"/>
</linearGradient>
</defs>
</svg>
