<svg width="119" height="79" viewBox="0 0 119 79" fill="none" xmlns="http://www.w3.org/2000/svg">
<path fill-rule="evenodd" clip-rule="evenodd" d="M60.0379 40.3618L93.6219 23.332C96.2968 28.6223 97.6936 34.4475 97.6936 40.3618C97.6936 61.0175 80.6936 78.0176 60.0379 78.0176C48.5658 78.0176 37.7179 72.7868 30.585 63.8112L60.0379 40.3618Z" fill="#FAB1A5"/>
<path fill-rule="evenodd" clip-rule="evenodd" d="M53.0146 41.1329L16.7854 41.5192C16.293 41.5245 15.8981 41.9279 15.9034 42.4203C15.9925 50.7687 18.846 58.667 23.9432 65.0777C24.2494 65.4627 24.8095 65.5271 25.195 65.2215L53.578 42.7232C54.2438 42.1954 53.8642 41.1238 53.0146 41.1329ZM50.4294 42.9427L24.7941 63.2632L24.725 63.172C20.4588 57.4847 17.9957 50.6527 17.7122 43.4237L17.7076 43.2919L50.4294 42.9427Z" fill="#77C2D7"/>
<path fill-rule="evenodd" clip-rule="evenodd" d="M19.9463 25.3866C18.2995 29.6434 17.4492 34.1555 17.4492 38.815V39.2905C17.4492 39.7875 17.8556 40.1885 18.3525 40.182L54.552 39.7065C55.5322 39.6936 55.7768 38.3385 54.8629 37.9838L21.1006 24.8771C20.6411 24.6987 20.1242 24.9269 19.9463 25.3866ZM21.2981 26.8672L49.9361 37.9844L19.2355 38.3877L19.2378 38.2113C19.3013 34.3896 19.9666 30.679 21.2011 27.1418L21.2981 26.8672Z" fill="#DA6668"/>
<path fill-rule="evenodd" clip-rule="evenodd" d="M78.4917 3.51161L60.6298 34.9261C60.1948 35.6911 61.0134 36.5568 61.8015 36.1653L94.1671 20.0865C94.6071 19.8679 94.7874 19.3345 94.5701 18.8937C91.3199 12.3023 86.1211 6.81159 79.7064 3.17659C79.2784 2.93407 78.7349 3.08398 78.4917 3.51161ZM79.5953 5.17676L79.7012 5.24034C85.1149 8.51837 89.5566 13.2101 92.5104 18.7832L92.5665 18.89L63.6221 33.2694L79.5953 5.17676Z" fill="#77C2D7"/>
<path fill-rule="evenodd" clip-rule="evenodd" d="M75.1066 4.78498C69.8758 1.78322 63.8129 0.0594408 57.3635 0H56.7691C41.582 0.148602 28.6536 9.62941 23.4229 22.9739L57.1258 36.1994L75.1066 4.78498Z" fill="#67A4BA"/>
<path fill-rule="evenodd" clip-rule="evenodd" d="M117.01 59.8281C117.56 59.8281 118.006 60.2738 118.006 60.8235C118.006 61.3537 117.591 61.787 117.069 61.8173L117.01 61.819H72.1829C71.6332 61.819 71.1875 61.3733 71.1875 60.8235C71.1875 60.2934 71.6019 59.8601 72.1244 59.8298L72.1829 59.8281H117.01Z" fill="#102D42"/>
<path fill-rule="evenodd" clip-rule="evenodd" d="M117.01 63.5117C117.56 63.5117 118.006 63.9574 118.006 64.5071C118.006 65.0373 117.591 65.4706 117.069 65.5009L117.01 65.5026H108.616C108.066 65.5026 107.62 65.0569 107.62 64.5071C107.62 63.977 108.035 63.5437 108.557 63.5134L108.616 63.5117H117.01Z" fill="#102D42"/>
<path fill-rule="evenodd" clip-rule="evenodd" d="M117.01 59.8281C117.56 59.8281 118.006 60.2738 118.006 60.8235C118.006 61.3537 117.591 61.787 117.069 61.8173L117.01 61.819H72.1829C71.6332 61.819 71.1875 61.3733 71.1875 60.8235C71.1875 60.2934 71.6019 59.8601 72.1244 59.8298L72.1829 59.8281H117.01Z" fill="#102D42"/>
<path fill-rule="evenodd" clip-rule="evenodd" d="M0.995647 9.8457C0.445889 9.8457 0.000225067 10.2914 0.000225067 10.8411C0.000225067 11.3713 0.414627 11.8046 0.93716 11.8349L0.995647 11.8366H45.8229C46.3727 11.8366 46.8184 11.3909 46.8184 10.8411C46.8184 10.311 46.404 9.87767 45.8814 9.84739L45.8229 9.8457H0.995647Z" fill="#102D42"/>
<path fill-rule="evenodd" clip-rule="evenodd" d="M0.99557 13.5293C0.445812 13.5293 0.000145912 13.975 0.000145912 14.5247C0.000145912 15.0548 0.414547 15.4882 0.937081 15.5185L0.99557 15.5201H9.39032C9.94008 15.5201 10.3857 15.0745 10.3857 14.5247C10.3857 13.9946 9.97134 13.5613 9.44881 13.531L9.39032 13.5293H0.99557Z" fill="#102D42"/>
<path fill-rule="evenodd" clip-rule="evenodd" d="M0.995647 9.8457C0.445889 9.8457 0.000225067 10.2914 0.000225067 10.8411C0.000225067 11.3713 0.414627 11.8046 0.93716 11.8349L0.995647 11.8366H45.8229C46.3727 11.8366 46.8184 11.3909 46.8184 10.8411C46.8184 10.311 46.404 9.87767 45.8814 9.84739L45.8229 9.8457H0.995647Z" fill="#102D42"/>
</svg>
