<svg width="106" height="83" viewBox="0 0 106 83" fill="none" xmlns="http://www.w3.org/2000/svg">
<path fill-rule="evenodd" clip-rule="evenodd" d="M104.746 50.3105C105.321 50.3105 105.788 50.7774 105.788 51.3533C105.788 51.9087 105.354 52.3626 104.807 52.3943L104.746 52.3961H57.7859C57.21 52.3961 56.7432 51.9292 56.7432 51.3533C56.7432 50.798 57.1773 50.344 57.7247 50.3123L57.7859 50.3105H104.746Z" fill="#102D42"/>
<path fill-rule="evenodd" clip-rule="evenodd" d="M91.545 55.0059C91.9626 55.0059 92.3011 55.4564 92.3011 56.0122C92.3011 56.5482 91.9863 56.9863 91.5895 57.0169L91.545 57.0186H57.4992C57.0816 57.0186 56.7432 56.568 56.7432 56.0122C56.7432 55.4763 57.0579 55.0382 57.4548 55.0076L57.4992 55.0059H91.545Z" fill="#102D42"/>
<g filter="url(#filter0_b_322_17132)">
<mask id="path-3-outside-1_322_17132" maskUnits="userSpaceOnUse" x="4.48904" y="6.5479" width="78.0938" height="78.0938" fill="black">
<rect fill="white" x="4.48904" y="6.5479" width="78.0938" height="78.0938"/>
<path d="M57.5154 21.913C43.8191 13.7981 27.2642 19.1087 19.9064 31.5271C17.5564 35.4934 16.2916 40.2622 16.1088 45.1936C16.1223 46.0309 15.7079 46.8379 15.0149 47.4162L10.3021 51.7688C9.19319 52.8342 9.71805 54.4211 11.1441 54.7556L16.7453 56.1605C18.2936 56.5037 18.9856 57.6473 19.7566 59.0929C21.9953 63.1625 25.6679 66.7419 29.534 69.0325C41.2266 75.9602 58.4652 73.9573 67.0958 59.3905C74.5375 46.8304 70.9052 29.8463 57.5154 21.913Z"/>
</mask>
<path d="M57.5154 21.913C43.8191 13.7981 27.2642 19.1087 19.9064 31.5271C17.5564 35.4934 16.2916 40.2622 16.1088 45.1936C16.1223 46.0309 15.7079 46.8379 15.0149 47.4162L10.3021 51.7688C9.19319 52.8342 9.71805 54.4211 11.1441 54.7556L16.7453 56.1605C18.2936 56.5037 18.9856 57.6473 19.7566 59.0929C21.9953 63.1625 25.6679 66.7419 29.534 69.0325C41.2266 75.9602 58.4652 73.9573 67.0958 59.3905C74.5375 46.8304 70.9052 29.8463 57.5154 21.913Z" fill="#FAB1A5"/>
<path d="M57.1168 22.5858C57.4883 22.806 57.968 22.6832 58.1882 22.3116C58.4083 21.9401 58.2856 21.4604 57.914 21.2402L57.1168 22.5858ZM16.1088 45.1936L15.3273 45.1646C15.3268 45.1785 15.3267 45.1923 15.3269 45.2062L16.1088 45.1936ZM15.0149 47.4162L14.5139 46.8158C14.5038 46.8242 14.494 46.8328 14.4843 46.8417L15.0149 47.4162ZM10.3021 51.7688L9.77156 51.1943C9.7678 51.1978 9.76406 51.2013 9.76037 51.2049L10.3021 51.7688ZM11.1441 54.7556L11.3344 53.997L11.3227 53.9943L11.1441 54.7556ZM16.7453 56.1605L16.5551 56.919C16.562 56.9207 16.569 56.9224 16.576 56.9239L16.7453 56.1605ZM19.7566 59.0929L19.0665 59.4609L19.0714 59.4698L19.7566 59.0929ZM57.914 21.2402C57.5424 21.0201 57.0627 21.1428 56.8426 21.5144C56.6224 21.886 56.7452 22.3657 57.1168 22.5858L57.914 21.2402ZM57.914 21.2402C43.823 12.8915 26.7976 18.362 19.2336 31.1285L20.5792 31.9257C27.7307 19.8554 43.8151 14.7047 57.1168 22.5858L57.914 21.2402ZM19.2336 31.1285C16.8076 35.2231 15.5142 40.1229 15.3273 45.1646L16.8903 45.2226C17.069 40.4015 18.3052 35.7638 20.5792 31.9257L19.2336 31.1285ZM15.3269 45.2062C15.336 45.7712 15.055 46.3642 14.5139 46.8158L15.516 48.0166C16.3607 47.3117 16.9086 46.2907 16.8908 45.181L15.3269 45.2062ZM14.4843 46.8417L9.77156 51.1943L10.8327 52.3433L15.5455 47.9907L14.4843 46.8417ZM9.76037 51.2049C9.00672 51.9289 8.76375 52.892 9.02322 53.7602C9.27935 54.6173 9.99735 55.2899 10.9655 55.517L11.3227 53.9943C10.8648 53.8869 10.6074 53.5987 10.5218 53.3124C10.4395 53.0372 10.4886 52.6741 10.8439 52.3328L9.76037 51.2049ZM10.9539 55.5142L16.5551 56.919L16.9355 55.4019L11.3344 53.9971L10.9539 55.5142ZM16.576 56.9239C17.7376 57.1814 18.2846 57.9947 19.0665 59.4609L20.4466 58.7249C19.6866 57.2999 18.8497 55.8259 16.9145 55.397L16.576 56.9239ZM19.0714 59.4698C21.3843 63.6742 25.1618 67.351 29.1354 69.7053L29.9326 68.3597C26.174 66.1328 22.6063 62.6507 20.4417 58.7159L19.0714 59.4698ZM29.1354 69.7053C41.1463 76.8216 58.8875 74.7786 67.7686 59.7891L66.423 58.9919C58.0428 73.136 41.3069 75.0988 29.9326 68.3597L29.1354 69.7053ZM67.7686 59.7891C75.421 46.8735 71.6912 29.403 57.914 21.2402L57.1168 22.5858C70.1193 30.2896 73.654 46.7874 66.423 58.9919L67.7686 59.7891Z" fill="url(#paint0_linear_322_17132)" mask="url(#path-3-outside-1_322_17132)"/>
</g>
<mask id="path-5-outside-2_322_17132" maskUnits="userSpaceOnUse" x="0" y="0" width="67" height="67" fill="black">
<rect fill="white" width="67" height="67"/>
<path d="M33.3754 1C14.6029 1 1 16.3383 1 33.3594C1 38.7957 2.58323 44.3939 5.36196 49.5067C5.87893 50.348 5.94355 51.4159 5.58814 52.419L3.42331 59.6675C2.93865 61.4149 4.42495 62.7093 6.0728 62.1916L12.5996 60.25C14.3767 59.6675 15.766 60.4118 17.4171 61.4149C22.1345 64.1978 28.0118 65.6217 33.3108 65.6217C49.337 65.6217 65.6216 53.228 65.6216 33.2623C65.6216 16.0471 51.728 1 33.3754 1Z"/>
</mask>
<path d="M33.3754 1C14.6029 1 1 16.3383 1 33.3594C1 38.7957 2.58323 44.3939 5.36196 49.5067C5.87893 50.348 5.94355 51.4159 5.58814 52.419L3.42331 59.6675C2.93865 61.4149 4.42495 62.7093 6.0728 62.1916L12.5996 60.25C14.3767 59.6675 15.766 60.4118 17.4171 61.4149C22.1345 64.1978 28.0118 65.6217 33.3108 65.6217C49.337 65.6217 65.6216 53.228 65.6216 33.2623C65.6216 16.0471 51.728 1 33.3754 1Z" fill="#4690A4"/>
<path d="M33.3754 1.78202C33.8073 1.78202 34.1575 1.4319 34.1575 1C34.1575 0.568102 33.8073 0.217979 33.3754 0.217979V1.78202ZM5.36196 49.5067L4.67486 49.8801C4.68148 49.8923 4.68842 49.9043 4.69567 49.9161L5.36196 49.5067ZM5.58814 52.419L4.85101 52.1579C4.84664 52.1702 4.84257 52.1827 4.83882 52.1952L5.58814 52.419ZM3.42331 59.6675L2.67399 59.4437C2.67253 59.4487 2.67111 59.4536 2.66974 59.4585L3.42331 59.6675ZM6.0728 62.1916L5.8498 61.4419L5.83839 61.4455L6.0728 62.1916ZM12.5996 60.25L12.8226 60.9996C12.8295 60.9975 12.8363 60.9954 12.8432 60.9931L12.5996 60.25ZM17.4171 61.4149L17.011 62.0833L17.0198 62.0885L17.4171 61.4149ZM33.3754 0.217979C32.9435 0.217979 32.5934 0.568102 32.5934 1C32.5934 1.4319 32.9435 1.78202 33.3754 1.78202V0.217979ZM33.3754 0.217979C14.1441 0.217979 0.217979 15.9338 0.217979 33.3594H1.78202C1.78202 16.7429 15.0616 1.78202 33.3754 1.78202V0.217979ZM0.217979 33.3594C0.217979 38.9448 1.84339 44.6703 4.67486 49.8801L6.04906 49.1333C3.32307 44.1175 1.78202 38.6467 1.78202 33.3594H0.217979ZM4.69567 49.9161C5.07005 50.5254 5.1404 51.3411 4.85101 52.1579L6.32526 52.6802C6.74671 51.4907 6.68782 50.1707 6.02825 49.0973L4.69567 49.9161ZM4.83882 52.1952L2.67399 59.4437L4.17263 59.8913L6.33745 52.6428L4.83882 52.1952ZM2.66974 59.4585C2.35359 60.5984 2.67351 61.6663 3.41788 62.3536C4.15367 63.0329 5.23329 63.275 6.30721 62.9376L5.83839 61.4455C5.26445 61.6258 4.777 61.4797 4.47885 61.2044C4.18927 60.937 4.00837 60.4841 4.17688 59.8765L2.66974 59.4585ZM6.29577 62.9411L12.8226 60.9996L12.3766 59.5004L5.84982 61.442L6.29577 62.9411ZM12.8432 60.9931C14.2437 60.5341 15.34 61.068 17.0111 62.0833L17.8232 60.7466C16.1921 59.7556 14.5096 58.801 12.356 59.5069L12.8432 60.9931ZM17.0198 62.0885C21.8697 64.9496 27.8869 66.4037 33.3108 66.4037V64.8396C28.1368 64.8396 22.3993 63.4461 17.8145 60.7414L17.0198 62.0885ZM33.3108 66.4037C49.707 66.4037 66.4037 53.7193 66.4037 33.2623H64.8396C64.8396 52.7367 48.967 64.8396 33.3108 64.8396V66.4037ZM66.4037 33.2623C66.4037 15.6338 52.1782 0.217979 33.3754 0.217979V1.78202C51.2777 1.78202 64.8396 16.4604 64.8396 33.2623H66.4037Z" fill="url(#paint1_linear_322_17132)" mask="url(#path-5-outside-2_322_17132)"/>
<path d="M47.0186 38.2072C44.3031 38.2072 42.123 35.9889 42.123 33.3116C42.123 30.5961 44.3031 28.416 47.0186 28.416C49.7341 28.416 51.9142 30.5961 51.9142 33.3116C51.9142 35.9889 49.7341 38.2072 47.0186 38.2072Z" fill="white"/>
<path d="M33.3106 38.2072C30.5951 38.1689 28.415 35.989 28.415 33.2736C28.415 30.5965 30.6333 28.3783 33.3106 28.4165C36.0261 28.4165 38.2062 30.5965 38.2062 33.3118C38.2062 35.989 36.0261 38.2072 33.3106 38.2072Z" fill="white"/>
<path d="M19.6036 38.2072C16.8881 38.1689 14.708 35.989 14.708 33.2736C14.708 30.5965 16.9263 28.3783 19.6036 28.4165C22.3191 28.4165 24.4992 30.5965 24.4992 33.3118C24.4992 35.989 22.3191 38.2072 19.6036 38.2072Z" fill="white"/>
<defs>
<filter id="filter0_b_322_17132" x="-9.84565" y="-1.51265" width="100.294" height="93.9335" filterUnits="userSpaceOnUse" color-interpolation-filters="sRGB">
<feFlood flood-opacity="0" result="BackgroundImageFix"/>
<feGaussianBlur in="BackgroundImage" stdDeviation="9.38425"/>
<feComposite in2="SourceAlpha" operator="in" result="effect1_backgroundBlur_322_17132"/>
<feBlend mode="normal" in="SourceGraphic" in2="effect1_backgroundBlur_322_17132" result="shape"/>
</filter>
<linearGradient id="paint0_linear_322_17132" x1="38.1453" y1="17.8574" x2="46.1509" y2="72.9251" gradientUnits="userSpaceOnUse">
<stop stop-color="white" stop-opacity="0.25"/>
<stop offset="1" stop-color="white" stop-opacity="0"/>
</linearGradient>
<linearGradient id="paint1_linear_322_17132" x1="11.2867" y1="8.52851" x2="52.5085" y2="59.5826" gradientUnits="userSpaceOnUse">
<stop stop-color="white" stop-opacity="0.25"/>
<stop offset="1" stop-color="white" stop-opacity="0"/>
</linearGradient>
</defs>
</svg>
