<svg width="40" height="40" viewBox="0 0 40 40" fill="none" xmlns="http://www.w3.org/2000/svg">
  <g id="b46f033f058a7fa704c0fcc9a9187b89">
    <ellipse id="1a4b2288941210fac0a235964e902845" cx="20" cy="20" rx="20" ry="20" fill="#F2385A"></ellipse>
    <path id="c484651368edec6dbbeb96b407aa9fe5" fill-rule="evenodd" clip-rule="evenodd" d="M20 12.75C15.9959 12.75 12.75 15.9959 12.75 20C12.75 23.7508 15.5983 26.8364 19.25 27.2117V21.75H17C16.5858 21.75 16.25 21.4142 16.25 21C16.25 20.5858 16.5858 20.25 17 20.25H19.25V18.9412C19.25 18.2449 19.5059 17.5669 19.9773 17.0586C20.4503 16.5484 21.1046 16.25 21.8 16.25H23C23.4142 16.25 23.75 16.5858 23.75 17C23.75 17.4142 23.4142 17.75 23 17.75H21.8C21.5406 17.75 21.2792 17.8606 21.0772 18.0785C20.8733 18.2983 20.75 18.6077 20.75 18.9412V20.25H23C23.4142 20.25 23.75 20.5858 23.75 21C23.75 21.4142 23.4142 21.75 23 21.75H20.75V27.2117C24.4017 26.8364 27.25 23.7508 27.25 20C27.25 15.9959 24.0041 12.75 20 12.75ZM28.75 20C28.75 24.8325 24.8325 28.75 20 28.75C15.1675 28.75 11.25 24.8325 11.25 20C11.25 15.1675 15.1675 11.25 20 11.25C24.8325 11.25 28.75 15.1675 28.75 20Z" fill="white"></path>
  </g>
</svg>