<svg width="48" height="48" viewBox="0 0 48 48" fill="none" xmlns="http://www.w3.org/2000/svg">
<path d="M15.7241 14.3985C15.5462 14.5709 15.4637 14.8263 15.5018 15.0817L15.94 17.623C16.048 18.2551 15.3875 18.734 14.8222 18.4339L12.5549 17.2335C12.3263 17.1186 12.0595 17.1186 11.8373 17.2335L9.56356 18.4339C9.00474 18.734 8.34421 18.2551 8.45213 17.623L8.88403 15.0817C8.92845 14.8263 8.84597 14.5709 8.66812 14.3985L6.82631 12.5979C6.37533 12.1509 6.62311 11.3719 7.25185 11.2825L9.79226 10.9058C10.0462 10.8739 10.2622 10.7142 10.3701 10.4844L11.507 8.17296C11.7864 7.59827 12.5994 7.59827 12.8851 8.17296L14.022 10.4844C14.13 10.7142 14.3459 10.8739 14.5936 10.9058L17.134 11.2825C17.7691 11.3719 18.0168 12.1509 17.5595 12.5979L15.7241 14.3985Z" fill="#F9B938"/>
<g opacity="0.3">
<path d="M8.1189 12.6857C7.92754 12.6857 7.76024 12.545 7.73181 12.3493C7.7001 12.1339 7.84827 11.9338 8.06204 11.9019L9.89904 11.6298C10.3851 11.5688 10.8148 11.25 11.028 10.7976L11.8443 9.13653C11.9394 8.9425 12.1718 8.86114 12.3697 8.95789C12.5632 9.05463 12.6431 9.29098 12.5474 9.48612L11.7339 11.1412C11.4042 11.8392 10.7563 12.3164 10.0046 12.4103L8.1763 12.6813C8.15717 12.6841 8.13803 12.6857 8.1189 12.6857Z" fill="white"/>
</g>
<path d="M13.3362 9.62878L12.4216 7.7771C12.6122 7.83454 12.7837 7.96865 12.8852 8.17298L13.7935 10.0247C13.5966 9.96721 13.4251 9.82033 13.3362 9.62878Z" fill="#ECB021"/>
<path d="M15.7242 14.3985C15.5463 14.5709 15.4637 14.8263 15.5018 15.0817L15.9401 17.623C16.0481 18.2551 15.3875 18.734 14.8223 18.4339L12.555 17.2335C12.3264 17.1186 12.0596 17.1186 11.8373 17.2335L9.56361 18.4339C9.01751 18.7276 8.3697 18.2743 8.44583 17.6613C8.58561 17.6805 8.73803 17.6549 8.87773 17.5783L11.1514 16.3779C11.3737 16.2629 11.6404 16.2629 11.8691 16.3779L14.1364 17.5783C14.7016 17.8784 15.3621 17.3995 15.2542 16.7674L14.816 14.2261C14.7779 13.9707 14.8604 13.7153 15.0382 13.5429L16.8737 11.7422C17.007 11.6082 17.0832 11.4421 17.1023 11.2761L17.1341 11.2825C17.7692 11.3719 18.0169 12.1509 17.5596 12.5979L15.7242 14.3985Z" fill="#ECB021"/>
<path d="M39.7344 14.3985C39.5565 14.5709 39.4739 14.8263 39.512 15.0817L39.9503 17.623C40.0583 18.2551 39.3977 18.734 38.8325 18.4339L36.5652 17.2335C36.3366 17.1186 36.0698 17.1186 35.8475 17.2335L33.5738 18.4339C33.015 18.734 32.3545 18.2551 32.4624 17.623L32.8943 15.0817C32.9387 14.8263 32.8562 14.5709 32.6784 14.3985L30.8366 12.5979C30.3856 12.1509 30.6334 11.3719 31.2621 11.2825L33.8025 10.9058C34.0565 10.8739 34.2725 10.7142 34.3804 10.4844L35.5173 8.17296C35.7967 7.59827 36.6096 7.59827 36.8954 8.17296L38.0323 10.4844C38.1402 10.7142 38.3561 10.8739 38.6038 10.9058L41.1443 11.2825C41.7794 11.3719 42.0271 12.1509 41.5698 12.5979L39.7344 14.3985Z" fill="#F9B938"/>
<g opacity="0.3">
<path d="M32.1291 12.6857C31.9378 12.6857 31.7705 12.545 31.7421 12.3493C31.7104 12.1339 31.8585 11.9338 32.0723 11.9019L33.9093 11.6298C34.3953 11.5688 34.8251 11.25 35.0383 10.7976L35.8545 9.13653C35.9497 8.9425 36.182 8.86114 36.38 8.95789C36.5735 9.05463 36.6533 9.29098 36.5576 9.48612L35.7441 11.1412C35.4144 11.8392 34.7666 12.3164 34.0148 12.4103L32.1866 12.6813C32.1674 12.6841 32.1483 12.6857 32.1291 12.6857Z" fill="white"/>
</g>
<path d="M37.3465 9.62878L36.4319 7.7771C36.6224 7.83454 36.7939 7.96865 36.8955 8.17298L37.8037 10.0247C37.6068 9.96721 37.4354 9.82033 37.3465 9.62878Z" fill="#ECB021"/>
<path d="M39.7344 14.3985C39.5566 14.5709 39.474 14.8263 39.5121 15.0817L39.9503 17.623C40.0583 18.2551 39.3978 18.734 38.8325 18.4339L36.5653 17.2335C36.3366 17.1186 36.0699 17.1186 35.8476 17.2335L33.5739 18.4339C33.0278 18.7276 32.3799 18.2743 32.4561 17.6613C32.5959 17.6805 32.7483 17.6549 32.888 17.5783L35.1616 16.3779C35.384 16.2629 35.6507 16.2629 35.8794 16.3779L38.1467 17.5783C38.7119 17.8784 39.3724 17.3995 39.2644 16.7674L38.8262 14.2261C38.7881 13.9707 38.8706 13.7153 39.0485 13.5429L40.8839 11.7422C41.0173 11.6082 41.0935 11.4421 41.1126 11.2761L41.1443 11.2825C41.7794 11.3719 42.0271 12.1509 41.5698 12.5979L39.7344 14.3985Z" fill="#ECB021"/>
<path d="M27.6863 9.0066C27.5084 9.17897 27.4258 9.4344 27.4639 9.68982L27.9022 12.2311C28.0102 12.8632 27.3496 13.3421 26.7844 13.042L24.5171 11.8416C24.2885 11.7267 24.0217 11.7267 23.7994 11.8416L21.5257 13.042C20.9669 13.3421 20.3064 12.8632 20.4143 12.2311L20.8462 9.68982C20.8906 9.4344 20.8081 9.17897 20.6303 9.0066L18.7885 7.20597C18.3375 6.759 18.5853 5.98003 19.214 5.89063L21.7544 5.51389C22.0084 5.48197 22.2244 5.32234 22.3323 5.09248L23.4692 2.78105C23.7486 2.20637 24.5615 2.20637 24.8473 2.78105L25.9842 5.09248C26.0921 5.32234 26.3081 5.48197 26.5558 5.51389L29.0962 5.89063C29.7313 5.98003 29.979 6.759 29.5217 7.20597L27.6863 9.0066Z" fill="#F9B938"/>
<path d="M25.2984 4.23687L24.3838 2.38519C24.5744 2.44264 24.7458 2.57674 24.8474 2.78107L25.7556 4.63275C25.5588 4.57531 25.3873 4.42842 25.2984 4.23687Z" fill="#ECB021"/>
<path d="M27.6863 9.00658C27.5085 9.17895 27.4259 9.43438 27.464 9.6898L27.9022 12.2311C28.0102 12.8632 27.3497 13.3421 26.7844 13.042L24.5172 11.8416C24.2885 11.7267 24.0218 11.7267 23.7995 11.8416L21.5258 13.042C20.9797 13.3357 20.3319 12.8824 20.408 12.2694C20.5478 12.2886 20.7002 12.263 20.8399 12.1864L23.1135 10.986C23.3359 10.871 23.6026 10.871 23.8313 10.986L26.0986 12.1864C26.6638 12.4865 27.3243 12.0076 27.2163 11.3755L26.7781 8.83417C26.74 8.57874 26.8225 8.32336 27.0004 8.15095L28.8358 6.35032C28.9692 6.21626 29.0454 6.05024 29.0645 5.88422L29.0962 5.89061C29.7313 5.98001 29.979 6.75898 29.5217 7.20595L27.6863 9.00658Z" fill="#ECB021"/>
<g opacity="0.3">
<path d="M20.0767 7.29382C19.8853 7.29382 19.718 7.15311 19.6896 6.95743C19.6579 6.74196 19.806 6.54188 20.0198 6.51L21.8568 6.23791C22.3428 6.1769 22.7726 5.85809 22.9858 5.40572L23.8021 3.74462C23.8972 3.55059 24.1295 3.46924 24.3275 3.56598C24.521 3.66272 24.6008 3.89908 24.5051 4.09421L23.6916 5.74926C23.3619 6.44734 22.7141 6.92445 21.9623 7.01844L20.1341 7.28943C20.1149 7.29217 20.0958 7.29382 20.0767 7.29382Z" fill="white"/>
</g>
<path d="M39.1031 33.3636C39.1031 34.6339 38.0833 35.7101 36.7566 35.7101H35.6959C36.9912 35.7101 38.0424 36.7613 38.0424 38.0566C38.0424 39.3507 36.9938 40.4031 35.6959 40.4031H33.6123C34.9076 40.4031 35.9588 41.4544 35.9588 42.7496C35.9588 44.0436 34.9102 45.0961 33.6123 45.0961H17.9282C16.8915 45.0961 16.051 44.2557 16.051 43.2189V31.4489L21.6116 22.7004C22.1975 21.7787 22.4435 20.6816 22.3074 19.598L21.9969 17.1261C21.8969 16.3305 22.4759 15.6102 23.2745 15.5369H23.2745C26.2873 15.2602 28.7709 17.8647 28.3513 20.861L27.7361 25.2554C27.657 25.82 28.0955 26.3241 28.6656 26.3241L36.6148 26.3241C37.8715 26.3241 39.0102 27.2495 39.0972 28.5031C39.1906 29.8481 38.1391 31.0171 36.7566 31.0171C38.0518 31.0171 39.1031 32.0683 39.1031 33.3636Z" fill="#F7C9A9"/>
<path d="M35.7992 41.9034C35.9025 42.1662 35.9588 42.4478 35.9588 42.7481C35.9588 44.042 34.9102 45.0946 33.6123 45.0946H17.9282C16.8958 45.0946 16.051 44.2593 16.051 43.2174V41.5373C16.051 42.5698 16.8958 43.4145 17.9282 43.4145H33.6123C34.2599 43.4145 34.8418 43.1517 35.2736 42.7293C35.4988 42.4947 35.6865 42.2131 35.7992 41.9034Z" fill="#F0B68E"/>
<path d="M16.9522 30.9421V43.7727C16.9522 44.8052 16.1168 45.6499 15.075 45.6499H8.073C7.04056 45.6499 6.1958 44.8052 6.1958 43.7727V30.9421C6.1958 29.9002 7.04056 29.0649 8.073 29.0649H15.075C16.1168 29.0649 16.9522 29.9002 16.9522 30.9421Z" fill="#035970"/>
<path d="M16.9522 30.9405V43.7712C16.9522 44.8037 16.1168 45.6484 15.075 45.6484H8.073C7.04056 45.6484 6.1958 44.8037 6.1958 43.7712V43.5084H12.935C13.9768 43.5084 14.8122 42.6636 14.8122 41.6312V29.0633H15.075C16.1168 29.0633 16.9522 29.8987 16.9522 30.9405Z" fill="#4690A4"/>
<path d="M12.4562 40.6848C12.4562 41.6234 11.6959 42.393 10.7573 42.393C9.81873 42.393 9.04907 41.6234 9.04907 40.6848C9.04907 39.7462 9.81873 38.9859 10.7573 38.9859C11.6959 38.9859 12.4562 39.7462 12.4562 40.6848Z" fill="#E4E3FF"/>
<path d="M12.2309 39.8572C11.9869 39.7071 11.7053 39.632 11.405 39.632C10.4664 39.632 9.69671 40.3922 9.69671 41.3308C9.69671 41.6312 9.78121 41.9221 9.92196 42.1662C9.40575 41.8752 9.04907 41.3214 9.04907 40.6832C9.04907 39.7446 9.81873 38.9843 10.7573 38.9843C11.3956 38.9843 11.9494 39.341 12.2309 39.8572Z" fill="#D0D0F7"/>
<g opacity="0.2">
<path d="M8.62178 30.9526V36.1785C8.62178 36.4254 8.42151 36.6256 8.17466 36.6256C7.92781 36.6256 7.72754 36.4254 7.72754 36.1785V30.9526C7.72754 30.7057 7.92781 30.5054 8.17466 30.5054C8.42151 30.5054 8.62178 30.7057 8.62178 30.9526Z" fill="white"/>
</g>
<g opacity="0.2">
<path d="M8.62178 38.1329V38.5387C8.62178 38.7856 8.42151 38.9858 8.17466 38.9858C7.92781 38.9858 7.72754 38.7856 7.72754 38.5387V38.1329C7.72754 37.8861 7.92781 37.6858 8.17466 37.6858C8.42151 37.6858 8.62178 37.8861 8.62178 38.1329Z" fill="white"/>
</g>
</svg>
