<svg width="84" height="20" viewBox="0 0 84 20" fill="none" xmlns="http://www.w3.org/2000/svg">
<path d="M30.1925 10.2194C30.1925 11.2819 29.8773 12.1283 29.2469 12.7588C28.5385 13.5096 27.6071 13.885 26.4525 13.885C25.3475 13.885 24.4125 13.5025 23.6475 12.7375C22.8825 11.9725 22.5 11.0304 22.5 9.91125C22.5 8.79208 22.8825 7.85 23.6475 7.085C24.4125 6.32 25.3475 5.9375 26.4525 5.9375C27.0121 5.9375 27.5398 6.03667 28.0356 6.235C28.5315 6.43333 28.9388 6.71313 29.2575 7.07438L28.5563 7.77563C28.3225 7.49229 28.0179 7.27271 27.6425 7.11688C27.2742 6.95396 26.8775 6.8725 26.4525 6.8725C25.6238 6.8725 24.9225 7.15938 24.3488 7.73313C23.7821 8.31396 23.4988 9.04 23.4988 9.91125C23.4988 10.7825 23.7821 11.5085 24.3488 12.0894C24.9225 12.6631 25.6238 12.95 26.4525 12.95C27.2104 12.95 27.8408 12.7375 28.3438 12.3125C28.8467 11.8875 29.1371 11.3031 29.215 10.5594H26.4525V9.64563H30.1394C30.1748 9.84396 30.1925 10.0352 30.1925 10.2194Z" fill="#DAE4EC"/>
<path d="M30.8608 11.1119C30.8608 10.3115 31.1123 9.64917 31.6152 9.125C32.1252 8.60083 32.7662 8.33875 33.5383 8.33875C34.3104 8.33875 34.9479 8.60083 35.4508 9.125C35.9608 9.64917 36.2158 10.3115 36.2158 11.1119C36.2158 11.9194 35.9608 12.5817 35.4508 13.0988C34.9479 13.6229 34.3104 13.885 33.5383 13.885C32.7662 13.885 32.1252 13.6229 31.6152 13.0988C31.1123 12.5746 30.8608 11.9123 30.8608 11.1119ZM31.8383 11.1119C31.8383 11.6715 32.0012 12.1248 32.327 12.4719C32.6529 12.819 33.0566 12.9925 33.5383 12.9925C34.02 12.9925 34.4237 12.819 34.7495 12.4719C35.0754 12.1248 35.2383 11.6715 35.2383 11.1119C35.2383 10.5594 35.0754 10.1096 34.7495 9.7625C34.4166 9.40833 34.0129 9.23125 33.5383 9.23125C33.0637 9.23125 32.66 9.40833 32.327 9.7625C32.0012 10.1096 31.8383 10.5594 31.8383 11.1119Z" fill="#DAE4EC"/>
<path d="M36.8062 11.1119C36.8062 10.3115 37.0577 9.64917 37.5606 9.125C38.0706 8.60083 38.7116 8.33875 39.4837 8.33875C40.2558 8.33875 40.8933 8.60083 41.3962 9.125C41.9062 9.64917 42.1612 10.3115 42.1612 11.1119C42.1612 11.9194 41.9062 12.5817 41.3962 13.0988C40.8933 13.6229 40.2558 13.885 39.4837 13.885C38.7116 13.885 38.0706 13.6229 37.5606 13.0988C37.0577 12.5746 36.8062 11.9123 36.8062 11.1119ZM37.7837 11.1119C37.7837 11.6715 37.9466 12.1248 38.2725 12.4719C38.5983 12.819 39.0021 12.9925 39.4837 12.9925C39.9654 12.9925 40.3691 12.819 40.695 12.4719C41.0208 12.1248 41.1837 11.6715 41.1837 11.1119C41.1837 10.5594 41.0208 10.1096 40.695 9.7625C40.3621 9.40833 39.9583 9.23125 39.4837 9.23125C39.0091 9.23125 38.6054 9.40833 38.2725 9.7625C37.9466 10.1096 37.7837 10.5594 37.7837 11.1119Z" fill="#DAE4EC"/>
<path d="M45.3867 12.9925C45.8683 12.9925 46.2615 12.819 46.566 12.4719C46.8848 12.1248 47.0442 11.6715 47.0442 11.1119C47.0442 10.5665 46.8848 10.1167 46.566 9.7625C46.2544 9.40833 45.8612 9.23125 45.3867 9.23125C44.9192 9.23125 44.526 9.40833 44.2073 9.7625C43.8885 10.1167 43.7292 10.5665 43.7292 11.1119C43.7292 11.6644 43.8885 12.1142 44.2073 12.4613C44.526 12.8154 44.9192 12.9925 45.3867 12.9925ZM45.3548 16.18C45.0644 16.18 44.7917 16.141 44.5367 16.0631C44.2817 15.9923 44.0479 15.8896 43.8354 15.755C43.63 15.6204 43.4529 15.461 43.3042 15.2769C43.1554 15.0927 43.0421 14.8873 42.9642 14.6606L43.8885 14.2781C43.9948 14.5827 44.179 14.8271 44.441 15.0113C44.7031 15.1954 45.0077 15.2875 45.3548 15.2875C45.886 15.2875 46.3004 15.1281 46.5979 14.8094C46.8954 14.4906 47.0442 14.0515 47.0442 13.4919V12.9925H47.0017C46.8175 13.2688 46.566 13.4883 46.2473 13.6513C45.9356 13.8071 45.5956 13.885 45.2273 13.885C44.5473 13.885 43.9629 13.6194 43.4742 13.0881C42.9925 12.5427 42.7517 11.884 42.7517 11.1119C42.7517 10.3398 42.9925 9.68458 43.4742 9.14625C43.9629 8.60792 44.5473 8.33875 45.2273 8.33875C45.5956 8.33875 45.9356 8.42021 46.2473 8.58313C46.566 8.73896 46.8175 8.955 47.0017 9.23125H47.0442V8.50875H47.9792V13.4919C47.9792 14.3277 47.7419 14.9829 47.2673 15.4575C46.7856 15.9392 46.1481 16.18 45.3548 16.18Z" fill="#DAE4EC"/>
<path d="M50.1485 6.1075V13.715H49.171V6.1075H50.1485Z" fill="#DAE4EC"/>
<path d="M53.6252 13.885C52.8602 13.885 52.2298 13.6229 51.7339 13.0988C51.2381 12.5746 50.9902 11.9123 50.9902 11.1119C50.9902 10.3185 51.231 9.65979 51.7127 9.13563C52.1944 8.60438 52.8106 8.33875 53.5614 8.33875C54.3335 8.33875 54.9462 8.59021 55.3996 9.09313C55.86 9.58896 56.0902 10.2867 56.0902 11.1863L56.0796 11.2925H51.9889C52.0031 11.8025 52.1731 12.2133 52.4989 12.525C52.8248 12.8367 53.2144 12.9925 53.6677 12.9925C54.291 12.9925 54.7798 12.6808 55.1339 12.0575L56.0052 12.4825C55.7714 12.9217 55.4456 13.2652 55.0277 13.5131C54.6169 13.761 54.1494 13.885 53.6252 13.885ZM52.0633 10.485H55.0489C55.0206 10.1238 54.8719 9.82625 54.6027 9.5925C54.3406 9.35167 53.9864 9.23125 53.5402 9.23125C53.1719 9.23125 52.8531 9.34458 52.5839 9.57125C52.3219 9.79792 52.1483 10.1025 52.0633 10.485Z" fill="#DAE4EC"/>
<path d="M59.4887 13.715V6.1075H61.8156C62.9772 6.1075 63.9087 6.45813 64.6099 7.15938C65.3183 7.86063 65.6724 8.77792 65.6724 9.91125C65.6724 11.0517 65.3183 11.9725 64.6099 12.6738C63.9087 13.3679 62.9772 13.715 61.8156 13.715H59.4887ZM60.4662 7.0425V12.78H61.8156C62.701 12.78 63.3987 12.5285 63.9087 12.0256C64.4187 11.5156 64.6737 10.8108 64.6737 9.91125C64.6737 9.01875 64.4187 8.3175 63.9087 7.8075C63.3987 7.2975 62.701 7.0425 61.8156 7.0425H60.4662Z" fill="#DAE4EC"/>
<path d="M67.4349 13.715H66.4574V8.50875H67.3924V9.35875H67.4349C67.534 9.0825 67.7359 8.84875 68.0405 8.6575C68.3522 8.45917 68.6567 8.36 68.9542 8.36C69.2376 8.36 69.4784 8.4025 69.6767 8.4875L69.3792 9.43313C69.2588 9.38354 69.0676 9.35875 68.8055 9.35875C68.4372 9.35875 68.1149 9.5075 67.8386 9.805C67.5695 10.1025 67.4349 10.4496 67.4349 10.8463V13.715Z" fill="#DAE4EC"/>
<path d="M71.5816 6.71313C71.5816 6.90438 71.5143 7.06729 71.3797 7.20188C71.2452 7.33646 71.0822 7.40375 70.891 7.40375C70.6997 7.40375 70.5368 7.33646 70.4022 7.20188C70.2676 7.06729 70.2004 6.90438 70.2004 6.71313C70.2004 6.52188 70.2676 6.35896 70.4022 6.22438C70.5368 6.08979 70.6997 6.0225 70.891 6.0225C71.0822 6.0225 71.2452 6.08979 71.3797 6.22438C71.5143 6.35896 71.5816 6.52188 71.5816 6.71313ZM71.3797 8.50875V13.715H70.4022V8.50875H71.3797Z" fill="#DAE4EC"/>
<path d="M75.1806 13.715H74.2031L72.0993 8.50875H73.1618L74.6918 12.5463H74.7131L76.2643 8.50875H77.3056L75.1806 13.715Z" fill="#DAE4EC"/>
<path d="M80.1254 13.885C79.3604 13.885 78.73 13.6229 78.2342 13.0988C77.7384 12.5746 77.4904 11.9123 77.4904 11.1119C77.4904 10.3185 77.7313 9.65979 78.2129 9.13563C78.6946 8.60438 79.3109 8.33875 80.0617 8.33875C80.8338 8.33875 81.4465 8.59021 81.8998 9.09313C82.3602 9.58896 82.5904 10.2867 82.5904 11.1863L82.5798 11.2925H78.4892C78.5033 11.8025 78.6734 12.2133 78.9992 12.525C79.325 12.8367 79.7146 12.9925 80.1679 12.9925C80.7913 12.9925 81.28 12.6808 81.6342 12.0575L82.5054 12.4825C82.2717 12.9217 81.9459 13.2652 81.5279 13.5131C81.1171 13.761 80.6496 13.885 80.1254 13.885ZM78.5636 10.485H81.5492C81.5209 10.1238 81.3721 9.82625 81.1029 9.5925C80.8409 9.35167 80.4867 9.23125 80.0404 9.23125C79.6721 9.23125 79.3534 9.34458 79.0842 9.57125C78.8221 9.79792 78.6486 10.1025 78.5636 10.485Z" fill="#DAE4EC"/>
<path d="M1.32302 15.2754L2.09478 16.6084C2.25515 16.889 2.48567 17.1095 2.75629 17.2699L5.51258 12.499H0C0 12.8097 0.080183 13.1204 0.240549 13.4011L1.32302 15.2754Z" fill="#0066DA"/>
<path d="M8.74997 6.88612L5.99368 2.11523C5.72306 2.2756 5.49254 2.4961 5.33217 2.77674L0.240549 11.5969C0.0831323 11.8715 0.000209591 12.1824 0 12.4989H5.51258L8.74997 6.88612Z" fill="#00AC47"/>
<path d="M14.7438 17.2699C15.0144 17.1095 15.2449 16.889 15.4053 16.6084L15.726 16.0571L17.2595 13.4011C17.4199 13.1204 17.5 12.8097 17.5 12.499H11.9871L13.1601 14.8043L14.7438 17.2699Z" fill="#EA4335"/>
<path d="M8.75006 6.88644L11.5064 2.11555C11.2357 1.95518 10.925 1.875 10.6043 1.875H6.89583C6.5751 1.875 6.26439 1.96521 5.99377 2.11555L8.75006 6.88644Z" fill="#00832D"/>
<path d="M11.9874 12.499H5.51264L2.75635 17.2699C3.02697 17.4303 3.33767 17.5105 3.65841 17.5105H13.8416C14.1624 17.5105 14.4731 17.4203 14.7437 17.2699L11.9874 12.499Z" fill="#2684FC"/>
<path d="M14.7137 7.18681L12.1679 2.77674C12.0076 2.4961 11.777 2.2756 11.5064 2.11523L8.75012 6.88612L11.9875 12.4989H17.4901C17.4901 12.1882 17.4099 11.8775 17.2495 11.5969L14.7137 7.18681Z" fill="#FFBA00"/>
</svg>
