<svg width="24" height="24" viewBox="0 0 24 24" fill="none" xmlns="http://www.w3.org/2000/svg">
<path d="M4.25 4.5C4.25 3.25736 5.25736 2.25 6.5 2.25H12H14.5715L19.75 6.86205L19.75 12V19.5C19.75 20.7426 18.7426 21.75 17.5 21.75H6.5C5.25736 21.75 4.25 20.7426 4.25 19.5V4.5Z" fill="#FFECEF" stroke="#CE2846" stroke-width="0.5"/>
<path d="M10.6862 16.9158L13.9647 11.2716C13.9805 11.2441 13.9889 11.2129 13.9889 11.1811C13.9889 11.1494 13.9806 11.1181 13.9648 11.0906C13.949 11.0631 13.9262 11.0402 13.8989 11.0243C13.8715 11.0084 13.8404 11 13.8088 11H11.6949C11.6424 11 11.5909 11.0138 11.5453 11.04C11.4998 11.0662 11.4619 11.1039 11.4353 11.1494L8.04048 16.9964C8.01407 17.0421 8.00011 17.0941 8 17.1469C7.99989 17.1998 8.01363 17.2518 8.03984 17.2977C8.06605 17.3435 8.10381 17.3817 8.14934 17.4082C8.19486 17.4348 8.24654 17.4489 8.29919 17.4491H9.77575L9.13843 18.5473C9.11199 18.5931 9.09803 18.6451 9.09795 18.6981C9.09788 18.7511 9.1117 18.8031 9.13802 18.849C9.16434 18.8949 9.20223 18.933 9.24787 18.9595C9.29352 18.986 9.34532 19 9.39804 19H14.7165C14.7796 18.9998 14.8415 18.9829 14.8961 18.9512C14.9507 18.9194 14.996 18.8738 15.0275 18.8189L15.9758 17.1892C15.9916 17.1618 16 17.1307 16 17.099C16 17.0673 15.9918 17.0361 15.9761 17.0086C15.9604 16.9811 15.9378 16.9582 15.9106 16.9423C15.8833 16.9263 15.8524 16.9178 15.8208 16.9176L10.6862 16.9158ZM11.8292 11.5342H13.1967L10.0723 16.9158H8.70304L11.8292 11.5342ZM14.6237 18.4667H9.80189L10.3923 17.45H15.2105L14.6237 18.4667Z" fill="#CE2846"/>
</svg>
