<svg width="80" height="20" viewBox="0 0 80 20" fill="none" xmlns="http://www.w3.org/2000/svg">
<g clip-path="url(#clip0_2913_42998)">
<path d="M9.76389 5.12637L5.19444 8.06524L9.76389 11.0041L5.19444 13.943L0.625 10.9796L5.19444 8.04075L0.625 5.12637L5.19444 2.1875L9.76389 5.12637ZM5.17014 14.8736L9.73958 11.9348L14.309 14.8736L9.73958 17.8125L5.17014 14.8736ZM9.76389 10.9796L14.3333 8.04075L9.76389 5.12637L14.309 2.1875L18.8785 5.12637L14.309 8.06524L18.8785 11.0041L14.309 13.943L9.76389 10.9796Z" fill="#0061FF"/>
<path d="M22.4514 5.12647H26.1459C28.5035 5.12647 30.4479 6.49795 30.4479 9.63274V10.294C30.4479 13.4533 28.625 14.8737 26.2188 14.8737H22.4514V5.12647ZM24.5174 6.8898V13.0859H26.0972C27.4341 13.0859 28.3334 12.2043 28.3334 10.245V9.7307C28.3334 7.77146 27.3854 6.8898 26.0243 6.8898H24.5174ZM31.5417 6.98776H33.1945L33.4618 8.82455C33.7778 7.57553 34.5799 6.91429 36.0382 6.91429H36.5486V9.02048H35.6979C34.0209 9.02048 33.6077 9.60825 33.6077 11.2736V14.8982H31.566V6.98776H31.5417ZM36.9618 11.1022V10.8818C36.9618 8.23678 38.6389 6.79183 40.9236 6.79183C43.257 6.79183 44.8854 8.23678 44.8854 10.8818V11.1022C44.8854 13.6982 43.3056 15.0941 40.9236 15.0941C38.3959 15.0697 36.9618 13.6982 36.9618 11.1022ZM42.7952 11.0777V10.8818C42.7952 9.41233 42.066 8.53067 40.8993 8.53067C39.757 8.53067 39.0035 9.33886 39.0035 10.8818V11.0777C39.0035 12.4981 39.7327 13.3063 40.8993 13.3063C42.066 13.2818 42.7952 12.4981 42.7952 11.0777ZM45.9549 6.98776H47.6563L47.8507 8.48168C48.2639 7.47757 49.1389 6.79183 50.4271 6.79183C52.4202 6.79183 53.7327 8.23678 53.7327 10.9063V11.1267C53.7327 13.7227 52.2743 15.0941 50.4271 15.0941C49.1875 15.0941 48.3368 14.5309 47.9236 13.6247V17.6167H45.9306L45.9549 6.98776ZM51.6667 11.0777V10.9063C51.6667 9.33886 50.8646 8.55516 49.7952 8.55516C48.6528 8.55516 47.8993 9.43682 47.8993 10.9063V11.0532C47.8993 12.4492 48.6285 13.3308 49.7709 13.3308C50.9375 13.3063 51.6667 12.5471 51.6667 11.0777ZM56.7465 13.4288L56.5764 14.8737H54.8264V4.34277H56.8195V8.38372C57.257 7.35512 58.132 6.79183 59.3715 6.79183C61.2431 6.81632 62.6285 8.11433 62.6285 10.7348V10.9797C62.6285 13.6002 61.316 15.0941 59.3229 15.0941C58.0104 15.0697 57.1597 14.4574 56.7465 13.4288ZM60.5382 10.9797V10.7838C60.5382 9.33886 59.7604 8.53067 58.6667 8.53067C57.5486 8.53067 56.7709 9.43682 56.7709 10.8083V10.9797C56.7709 12.4492 57.5243 13.3063 58.6424 13.3063C59.8334 13.3063 60.5382 12.5471 60.5382 10.9797ZM63.5035 11.1022V10.8818C63.5035 8.23678 65.1806 6.79183 67.4653 6.79183C69.7986 6.79183 71.4271 8.23678 71.4271 10.8818V11.1022C71.4271 13.6982 69.8229 15.0941 67.4653 15.0941C64.9375 15.0697 63.5035 13.6982 63.5035 11.1022ZM69.3611 11.0777V10.8818C69.3611 9.41233 68.632 8.53067 67.4653 8.53067C66.3229 8.53067 65.5695 9.33886 65.5695 10.8818V11.0777C65.5695 12.4981 66.2986 13.3063 67.4653 13.3063C68.632 13.2818 69.3611 12.4981 69.3611 11.0777ZM74.1007 10.7838L71.3542 6.98776H73.7118L75.2917 9.36335L76.8959 6.98776H79.2292L76.434 10.7593L79.375 14.8737H77.066L75.2674 12.2532L73.5174 14.8737H71.1111L74.1007 10.7838Z" fill="white"/>
</g>
<defs>
<clipPath id="clip0_2913_42998">
<rect width="78.75" height="15.625" fill="white" transform="translate(0.625 2.1875)"/>
</clipPath>
</defs>
</svg>
