<svg width="24" height="24" viewBox="0 0 24 24" fill="none" xmlns="http://www.w3.org/2000/svg">
<path d="M16.4754 11.0587C16.4228 11.1103 16.3464 11.1436 16.2615 11.1436H14.9516V9.88167C14.9517 9.82102 14.976 9.75754 15.0277 9.70675L21.4763 3.08495C21.5916 2.97168 21.7887 2.97168 21.904 3.08495L22.924 4.08697C23.0253 4.1865 23.0254 4.33727 22.924 4.43689L16.4754 11.0587ZM17.1711 11.7773L20.9309 8.08382V18.9923C20.9309 20.1011 20.0386 21 18.9378 21H2.99309C1.89234 21 1 20.1011 1 18.9923V5.94263C1 4.83383 1.89234 3.93498 2.99309 3.93498H18.9378C19.1028 3.93498 19.2631 3.95517 19.4164 3.99322L14.3319 8.9881C14.0907 9.22509 13.9551 9.54655 13.9551 9.88167V11.5156C13.9551 11.8646 14.2431 12.1475 14.5983 12.1475H16.2615C16.6027 12.1475 16.9299 12.0143 17.1711 11.7773ZM4.24787 20.2861C4.60313 20.2861 4.89109 20.0031 4.89109 19.6542C4.89109 18.6259 4.92667 17.6542 4.99684 16.7601C6.45482 16.1591 7.68686 15.2994 8.48714 14.3245C9.77618 12.7543 9.7295 11.0565 8.07311 10.2429C6.41512 9.42848 5.14871 10.4099 4.44026 12.5475C4.14394 13.4415 3.92693 14.5645 3.78842 15.8577C3.37829 15.9926 2.95155 16.1051 2.51373 16.1912C2.1654 16.2596 1.93951 16.5925 2.00915 16.9347C2.07885 17.2769 2.41768 17.4988 2.76601 17.4304C3.07421 17.3698 3.37781 17.2975 3.67551 17.2144C3.62823 17.9853 3.60465 18.8018 3.60465 19.6542C3.60465 20.0032 3.89261 20.2861 4.24787 20.2861ZM7.49785 11.3731C8.29753 11.7659 8.31821 12.5172 7.48581 13.5312C6.94058 14.1954 6.12829 14.8103 5.1523 15.2979C5.27825 14.3827 5.4491 13.5856 5.66351 12.9387C6.16244 11.4332 6.72791 10.995 7.49785 11.3731ZM7.68357 17.6022C7.95089 17.832 8.35725 17.8054 8.59116 17.5428L9.89793 16.0756L9.95722 16.5415C10.0233 17.061 10.5055 17.4294 11.0342 17.3645C11.256 17.3373 11.4613 17.2353 11.615 17.0759L12.2134 16.4554L12.5948 16.9896C12.8307 17.3201 13.2537 17.4675 13.6488 17.357L16.0016 16.699C16.3433 16.6035 16.5414 16.2539 16.4441 15.9183C16.3469 15.5827 15.9911 15.388 15.6494 15.4836L13.5166 16.08L13.0405 15.4132C13.0034 15.3612 12.9611 15.313 12.9142 15.2694C12.5274 14.9093 11.9168 14.9255 11.5503 15.3055L11.1493 15.7213L11.0855 15.2199C11.0562 14.9892 10.9415 14.7772 10.7635 14.6241C10.3625 14.2794 9.75295 14.3194 9.40207 14.7133L7.62307 16.7106C7.38911 16.9732 7.41624 17.3724 7.68357 17.6022Z" fill="#087191"/>
</svg>
