<svg width="25" height="24" viewBox="0 0 25 24" fill="none" xmlns="http://www.w3.org/2000/svg">
<path d="M5.04987 18.8478C5.04987 19.1954 4.76091 19.4773 4.40442 19.4773C4.04792 19.4773 3.75897 19.1955 3.75897 18.8478C3.75897 17.9987 3.78263 17.1853 3.83008 16.4173C3.53134 16.5001 3.22669 16.5721 2.91742 16.6325C2.56789 16.7007 2.22788 16.4796 2.15794 16.1387C2.08805 15.7978 2.31473 15.4661 2.66426 15.398C3.10361 15.3123 3.53182 15.2002 3.94337 15.0657C4.08237 13.7775 4.30013 12.6588 4.59748 11.7682C5.30838 9.63875 6.57918 8.66104 8.24292 9.47231C9.90506 10.2828 9.9519 11.9742 8.65839 13.5384C7.85533 14.5096 6.61902 15.366 5.15599 15.9647C5.08557 16.8554 5.04987 17.8235 5.04987 18.8478ZM7.65358 12.7481C8.48887 11.738 8.46812 10.9896 7.66567 10.5983C6.89305 10.2216 6.32563 10.6581 5.82496 12.1579C5.60981 12.8023 5.43837 13.5964 5.31199 14.5082C6.29136 14.0223 7.10647 13.4098 7.65358 12.7481ZM14.464 9.13911L20.2728 3.47396C20.7769 2.98232 21.5943 2.98232 22.0984 3.47396L23.1219 4.47215C23.626 4.96378 23.626 5.76089 23.1219 6.25256L17.313 11.9177C17.071 12.1538 16.7426 12.2864 16.4002 12.2864H14.7313C14.3748 12.2864 14.0858 12.0046 14.0858 11.6569V10.0293C14.0859 9.69542 14.2219 9.37519 14.464 9.13911ZM16.4002 11.0275L20.2728 7.25075L19.2493 6.25256L15.3767 10.0293V11.0275H16.4002ZM22.2091 5.36235L21.1856 4.36416L20.1621 5.36235L21.1856 6.36055L22.2091 5.36235ZM8.76277 16.7444C8.52805 17.0061 8.12028 17.0326 7.85203 16.8036C7.58378 16.5747 7.55655 16.1771 7.79132 15.9154L9.57649 13.9257C9.92859 13.5333 10.5402 13.4935 10.9426 13.8369C11.1213 13.9894 11.2363 14.2006 11.2658 14.4304L11.3298 14.9299L11.7322 14.5157C12.0999 14.1371 12.7127 14.121 13.1008 14.4797C13.1479 14.5232 13.1903 14.5712 13.2275 14.6229L13.7053 15.2872L15.8455 14.6931C16.1884 14.5979 16.5454 14.7918 16.643 15.1261C16.7406 15.4605 16.5418 15.8087 16.1989 15.9039L13.8379 16.5593C13.4415 16.6694 13.017 16.5226 12.7802 16.1934L12.3975 15.6612L11.797 16.2793C11.6428 16.4381 11.4369 16.5397 11.2143 16.5668C10.6838 16.6315 10.1999 16.2645 10.1336 15.747L10.0741 15.2828L8.76277 16.7444ZM20.2175 12.5517C20.2175 12.204 20.5064 11.9222 20.8629 11.9222C21.2194 11.9222 21.5084 12.204 21.5084 12.5517V19.1116C21.5084 20.1545 20.6415 21 19.5721 21H6.98617C6.62972 21 6.34072 20.7182 6.34072 20.3705C6.34072 20.0229 6.62972 19.741 6.98617 19.741H19.572C19.9285 19.741 20.2175 19.4592 20.2175 19.1115V12.5517ZM15.3767 3.99997C15.7332 3.99997 16.0222 4.28177 16.0222 4.62945C16.0222 4.97713 15.7332 5.25893 15.3767 5.25893H3.4363C3.07985 5.25893 2.79085 5.54074 2.79085 5.88841V11.657C2.79085 12.0047 2.5019 12.2865 2.14541 12.2865C1.78891 12.2865 1.5 12.0046 1.5 11.6569V5.88837C1.5 4.84543 2.3669 3.99997 3.4363 3.99997H15.3767Z" fill="#BCCFDC"/>
</svg>
