<svg width="25" height="24" viewBox="0 0 25 24" fill="none" xmlns="http://www.w3.org/2000/svg">
<path d="M16.9754 11.0587C16.9228 11.1103 16.8464 11.1436 16.7615 11.1436H15.4516V9.88167C15.4517 9.82102 15.476 9.75754 15.5277 9.70675L21.9763 3.08495C22.0916 2.97168 22.2887 2.97168 22.404 3.08495L23.424 4.08697C23.5253 4.1865 23.5254 4.33727 23.424 4.43689L16.9754 11.0587ZM17.6711 11.7773L21.4309 8.08382V18.9923C21.4309 20.1011 20.5386 21 19.4378 21H3.49309C2.39234 21 1.5 20.1011 1.5 18.9923V5.94263C1.5 4.83383 2.39234 3.93498 3.49309 3.93498H19.4378C19.6028 3.93498 19.7631 3.95517 19.9164 3.99322L14.8319 8.9881C14.5907 9.22509 14.4551 9.54655 14.4551 9.88167V11.5156C14.4551 11.8646 14.7431 12.1475 15.0983 12.1475H16.7615C17.1027 12.1475 17.4299 12.0143 17.6711 11.7773ZM4.74787 20.2861C5.10313 20.2861 5.39109 20.0031 5.39109 19.6542C5.39109 18.6259 5.42667 17.6542 5.49684 16.7601C6.95482 16.1591 8.18686 15.2994 8.98714 14.3245C10.2762 12.7543 10.2295 11.0565 8.57311 10.2429C6.91512 9.42848 5.64871 10.4099 4.94026 12.5475C4.64394 13.4415 4.42693 14.5645 4.28842 15.8577C3.87829 15.9926 3.45155 16.1051 3.01373 16.1912C2.6654 16.2596 2.43951 16.5925 2.50915 16.9347C2.57885 17.2769 2.91768 17.4988 3.26601 17.4304C3.57421 17.3698 3.87781 17.2975 4.17551 17.2144C4.12823 17.9853 4.10465 18.8018 4.10465 19.6542C4.10465 20.0032 4.39261 20.2861 4.74787 20.2861ZM7.99785 11.3731C8.79753 11.7659 8.81821 12.5172 7.98581 13.5312C7.44058 14.1954 6.62829 14.8103 5.6523 15.2979C5.77825 14.3827 5.9491 13.5856 6.16351 12.9387C6.66244 11.4332 7.22791 10.995 7.99785 11.3731ZM8.18357 17.6022C8.45089 17.832 8.85725 17.8054 9.09116 17.5428L10.3979 16.0756L10.4572 16.5415C10.5233 17.061 11.0055 17.4294 11.5342 17.3645C11.756 17.3373 11.9613 17.2353 12.115 17.0759L12.7134 16.4554L13.0948 16.9896C13.3307 17.3201 13.7537 17.4675 14.1488 17.357L16.5016 16.699C16.8433 16.6035 17.0414 16.2539 16.9441 15.9183C16.8469 15.5827 16.4911 15.388 16.1494 15.4836L14.0166 16.08L13.5405 15.4132C13.5034 15.3612 13.4611 15.313 13.4142 15.2694C13.0274 14.9093 12.4168 14.9255 12.0503 15.3055L11.6493 15.7213L11.5855 15.2199C11.5562 14.9892 11.4415 14.7772 11.2635 14.6241C10.8625 14.2794 10.253 14.3194 9.90207 14.7133L8.12307 16.7106C7.88911 16.9732 7.91624 17.3724 8.18357 17.6022Z" fill="#74D6F1"/>
</svg>
