<svg width="24" height="24" viewBox="0 0 24 24" fill="none" xmlns="http://www.w3.org/2000/svg">
<path d="M4.54987 18.8478C4.54987 19.1954 4.26091 19.4773 3.90442 19.4773C3.54792 19.4773 3.25897 19.1955 3.25897 18.8478C3.25897 17.9987 3.28263 17.1853 3.33008 16.4173C3.03134 16.5001 2.72669 16.5721 2.41742 16.6325C2.06789 16.7007 1.72788 16.4796 1.65794 16.1387C1.58805 15.7978 1.81473 15.4661 2.16426 15.398C2.60361 15.3123 3.03182 15.2002 3.44337 15.0657C3.58237 13.7775 3.80013 12.6588 4.09748 11.7682C4.80838 9.63875 6.07918 8.66104 7.74292 9.47231C9.40506 10.2828 9.4519 11.9742 8.15839 13.5384C7.35533 14.5096 6.11902 15.366 4.65599 15.9647C4.58557 16.8554 4.54987 17.8235 4.54987 18.8478ZM7.15358 12.7481C7.98887 11.738 7.96812 10.9896 7.16567 10.5983C6.39305 10.2216 5.82563 10.6581 5.32496 12.1579C5.10981 12.8023 4.93837 13.5964 4.81199 14.5082C5.79136 14.0223 6.60647 13.4098 7.15358 12.7481ZM13.964 9.13911L19.7728 3.47396C20.2769 2.98232 21.0943 2.98232 21.5984 3.47396L22.6219 4.47215C23.126 4.96378 23.126 5.76089 22.6219 6.25256L16.813 11.9177C16.571 12.1538 16.2426 12.2864 15.9002 12.2864H14.2313C13.8748 12.2864 13.5858 12.0046 13.5858 11.6569V10.0293C13.5859 9.69542 13.7219 9.37519 13.964 9.13911ZM15.9002 11.0275L19.7728 7.25075L18.7493 6.25256L14.8767 10.0293V11.0275H15.9002ZM21.7091 5.36235L20.6856 4.36416L19.6621 5.36235L20.6856 6.36055L21.7091 5.36235ZM8.26277 16.7444C8.02805 17.0061 7.62028 17.0326 7.35203 16.8036C7.08378 16.5747 7.05655 16.1771 7.29132 15.9154L9.07649 13.9257C9.42859 13.5333 10.0402 13.4935 10.4426 13.8369C10.6213 13.9894 10.7363 14.2006 10.7658 14.4304L10.8298 14.9299L11.2322 14.5157C11.5999 14.1371 12.2127 14.121 12.6008 14.4797C12.6479 14.5232 12.6903 14.5712 12.7275 14.6229L13.2053 15.2872L15.3455 14.6931C15.6884 14.5979 16.0454 14.7918 16.143 15.1261C16.2406 15.4605 16.0418 15.8087 15.6989 15.9039L13.3379 16.5593C12.9415 16.6694 12.517 16.5226 12.2802 16.1934L11.8975 15.6612L11.297 16.2793C11.1428 16.4381 10.9369 16.5397 10.7143 16.5668C10.1838 16.6315 9.69988 16.2645 9.63356 15.747L9.57406 15.2828L8.26277 16.7444ZM19.7175 12.5517C19.7175 12.204 20.0064 11.9222 20.3629 11.9222C20.7194 11.9222 21.0084 12.204 21.0084 12.5517V19.1116C21.0084 20.1545 20.1415 21 19.0721 21H6.48617C6.12972 21 5.84072 20.7182 5.84072 20.3705C5.84072 20.0229 6.12972 19.741 6.48617 19.741H19.072C19.4285 19.741 19.7175 19.4592 19.7175 19.1115V12.5517ZM14.8767 3.99997C15.2332 3.99997 15.5222 4.28177 15.5222 4.62945C15.5222 4.97713 15.2332 5.25893 14.8767 5.25893H2.9363C2.57985 5.25893 2.29085 5.54074 2.29085 5.88841V11.657C2.29085 12.0047 2.0019 12.2865 1.64541 12.2865C1.28891 12.2865 1 12.0046 1 11.6569V5.88837C1 4.84543 1.8669 3.99997 2.9363 3.99997H14.8767Z" fill="#325167"/>
</svg>
