<svg width="40" height="40" viewBox="0 0 40 40" fill="none" xmlns="http://www.w3.org/2000/svg">
<g id="Firefox">
<rect width="40" height="40" rx="8" fill="#F1F5F8"/>
<g id="icn">
<path id="Shape" fill-rule="evenodd" clip-rule="evenodd" d="M29.8724 11.9675C30.8113 12.4518 32.0104 13.9839 32.6015 15.4028L32.6001 15.4007C33.4594 17.5644 33.7628 19.9082 33.4826 22.2187C33.4774 22.2635 33.4724 22.308 33.4674 22.3523C33.4525 22.4834 33.4378 22.6132 33.4208 22.744C32.215 29.6809 25.8926 34.5465 18.8608 33.949C11.829 33.3515 6.42247 27.4894 6.41 20.4489V20.3789C6.43792 19.7507 6.51171 19.1253 6.63079 18.5079C6.63116 18.5044 6.63164 18.501 6.63212 18.4976C6.63304 18.4911 6.63395 18.4848 6.63395 18.4781C6.64975 18.3482 6.74207 17.7501 6.76769 17.6306L6.78594 17.541C7.11632 16.0638 7.73669 14.6666 8.61123 13.4299V13.4302C8.9918 12.8883 9.4172 12.3791 9.88297 11.908C10.2917 11.4908 10.7367 11.1105 11.2126 10.7716C11.3551 10.6757 11.5073 10.595 11.6668 10.5311C11.636 11.0007 11.598 13.2488 12.1372 13.9306H12.1435C13.0482 12.872 14.1632 12.0123 15.4182 11.4058C15.1333 12.4951 15.1465 13.6407 15.4564 14.7231C15.5781 14.8052 15.6953 14.8938 15.8074 14.9885C16.8825 14.144 18.1877 13.6423 19.5528 13.5489C19.6581 11.7 20.8182 8.00557 24.2354 6.00953L24.2301 6.01864C24.2316 6.01797 24.2334 6.0169 24.2352 6.01589C24.2371 6.01478 24.2388 6.01375 24.2399 6.01339C24.2409 6.01307 24.242 6.01226 24.243 6.01147C24.2444 6.01049 24.2456 6.00953 24.2466 6.00953C24.255 6.00724 24.2638 6.00724 24.2722 6.00953C24.29 6.01167 24.3032 6.02674 24.3031 6.04455C24.3496 6.23099 24.4177 6.41139 24.506 6.58208C24.5478 6.66717 24.5959 6.75962 24.6559 6.86222C24.7608 7.04187 24.8686 7.21206 24.9764 7.38189C25.8346 8.73451 26.7701 9.79286 27.6819 10.8244C29.034 12.354 30.3339 13.8246 31.2526 16.1084L31.2501 16.0856C31.0067 14.6502 30.5419 13.2611 29.8724 11.9675ZM16.996 26.0633C16.9714 26.0508 16.9468 26.0384 16.9215 26.0263C16.9875 26.0604 17.0535 26.0932 17.1195 26.1247L17.11 26.1187C17.0707 26.1012 17.0333 26.0823 16.996 26.0633Z" fill="url(#paint0_linear_9912_169144)"/>
<path id="Path" d="M32.6015 15.4021C32.0104 13.9831 30.8113 12.4511 29.8724 11.9668C30.5419 13.2603 31.0067 14.6495 31.2501 16.0849V16.0979L31.2526 16.1122C32.3013 19.106 32.1497 22.3882 30.8292 25.273C29.27 28.6106 25.4973 32.0315 19.5897 31.8634C13.2082 31.6831 7.58486 26.9574 6.53532 20.7697C6.34401 19.7937 6.53532 19.2989 6.6315 18.5057C6.5003 19.1218 6.42709 19.7488 6.41281 20.3785V20.4485C6.42527 27.489 11.8318 33.3511 18.8636 33.9486C25.8954 34.5461 32.2178 29.6806 33.4236 22.7436C33.4464 22.5685 33.465 22.3952 33.4854 22.2184C33.7656 19.9078 33.4623 17.5641 32.6029 15.4003L32.6015 15.4021Z" fill="url(#paint1_radial_9912_169144)"/>
<path id="Path_2" d="M32.6015 15.4021C32.0104 13.9831 30.8113 12.4511 29.8724 11.9668C30.5419 13.2603 31.0067 14.6495 31.2501 16.0849V16.0979L31.2526 16.1122C32.3013 19.106 32.1497 22.3882 30.8292 25.273C29.27 28.6106 25.4973 32.0315 19.5897 31.8634C13.2082 31.6831 7.58486 26.9574 6.53532 20.7697C6.34401 19.7937 6.53532 19.2989 6.6315 18.5057C6.5003 19.1218 6.42709 19.7488 6.41281 20.3785V20.4485C6.42527 27.489 11.8318 33.3511 18.8636 33.9486C25.8954 34.5461 32.2178 29.6806 33.4236 22.7436C33.4464 22.5685 33.465 22.3952 33.4854 22.2184C33.7656 19.9078 33.4623 17.5641 32.6029 15.4003L32.6015 15.4021Z" fill="url(#paint2_radial_9912_169144)"/>
<path id="Path_3" d="M25.9884 16.9945C26.0178 17.0152 26.0452 17.0359 26.0729 17.0565C25.7312 16.452 25.3058 15.8985 24.8093 15.4124C20.5795 11.1927 23.7011 6.26569 24.2273 6.01356L24.2326 6.00586C20.8154 8.00189 19.6553 11.6963 19.55 13.5453C19.7086 13.5344 19.8659 13.5211 20.0281 13.5211C22.4961 13.5259 24.7716 14.8517 25.9884 16.9938V16.9945Z" fill="url(#paint3_radial_9912_169144)"/>
<path id="Path_4" d="M20.0351 17.8396C20.0126 18.1771 18.817 19.3415 18.399 19.3415C14.5308 19.3415 13.9024 21.6762 13.9024 21.6762C14.0737 23.6421 15.4469 25.262 17.1069 26.1165C17.1827 26.1557 17.2596 26.191 17.3364 26.2257C17.4696 26.2845 17.6027 26.3389 17.7359 26.3889C18.3056 26.59 18.9023 26.7049 19.5061 26.7296C26.2877 27.0469 27.6005 18.6404 22.707 16.1997C23.8613 16.0498 25.0303 16.333 25.9873 16.9942C24.7706 14.8521 22.495 13.5262 20.027 13.5215C19.8655 13.5215 19.7076 13.5348 19.5489 13.5456C18.1838 13.639 16.8786 14.1407 15.8035 14.9852C16.011 15.1603 16.2451 15.3943 16.7383 15.8793C17.6615 16.7866 20.0291 17.7265 20.0344 17.8368L20.0351 17.8396Z" fill="url(#paint4_radial_9912_169144)"/>
<path id="Path_5" d="M20.0351 17.8396C20.0126 18.1771 18.817 19.3415 18.399 19.3415C14.5308 19.3415 13.9024 21.6762 13.9024 21.6762C14.0737 23.6421 15.4469 25.262 17.1069 26.1165C17.1827 26.1557 17.2596 26.191 17.3364 26.2257C17.4696 26.2845 17.6027 26.3389 17.7359 26.3889C18.3056 26.59 18.9023 26.7049 19.5061 26.7296C26.2877 27.0469 27.6005 18.6404 22.707 16.1997C23.8613 16.0498 25.0303 16.333 25.9873 16.9942C24.7706 14.8521 22.495 13.5262 20.027 13.5215C19.8655 13.5215 19.7076 13.5348 19.5489 13.5456C18.1838 13.639 16.8786 14.1407 15.8035 14.9852C16.011 15.1603 16.2451 15.3943 16.7383 15.8793C17.6615 16.7866 20.0291 17.7265 20.0344 17.8368L20.0351 17.8396Z" fill="url(#paint5_radial_9912_169144)"/>
<path id="Path_6" d="M15.17 14.5356C15.2802 14.6057 15.3711 14.6666 15.4508 14.7216C15.1409 13.6391 15.1276 12.4936 15.4126 11.4043C14.1576 12.0107 13.0425 12.8705 12.1379 13.9291C12.2043 13.9274 14.1777 13.892 15.17 14.5356Z" fill="url(#paint6_radial_9912_169144)"/>
<path id="Path_7" d="M6.53284 20.7719C7.58273 26.9596 13.2057 31.687 19.5872 31.8656C25.4948 32.0323 29.2682 28.611 30.8268 25.2752C32.1472 22.3904 32.2989 19.1082 31.2501 16.1144V16.1015C31.2501 16.0913 31.248 16.0854 31.2501 16.0885L31.2525 16.1113C31.7352 19.2549 30.1324 22.299 27.6265 24.3616L27.6188 24.3791C22.7362 28.3466 18.0641 26.7722 17.1199 26.13C17.0539 26.0985 16.9879 26.0657 16.9219 26.0316C14.0755 24.6743 12.8992 22.0885 13.152 19.8684C11.7716 19.8887 10.5086 19.0962 9.92929 17.8461C11.4487 16.9176 13.3422 16.8417 14.9313 17.6458C16.5422 18.3753 18.3752 18.4471 20.0386 17.8461C20.0333 17.7358 17.6657 16.7955 16.7425 15.8886C16.2494 15.4036 16.0152 15.17 15.8078 14.9946C15.6957 14.8998 15.5785 14.8112 15.4568 14.7291C15.376 14.6742 15.2851 14.6146 15.1759 14.5432C14.1836 13.8996 12.2102 13.9349 12.1449 13.9367H12.1386C11.5994 13.2549 11.6373 11.0067 11.6682 10.5371C11.5087 10.6011 11.3565 10.6817 11.214 10.7777C10.738 11.1166 10.2931 11.4968 9.88436 11.914C9.41692 12.3838 8.98976 12.8918 8.60735 13.4328V13.4349V13.4324C7.73281 14.6691 7.11244 16.0664 6.78206 17.5435C6.77539 17.5712 6.29204 19.6793 6.53038 20.7726L6.53284 20.7719Z" fill="url(#paint7_radial_9912_169144)"/>
<path id="Path_8" d="M24.8089 15.4121C25.3056 15.8988 25.731 16.4529 26.0726 17.058C26.1474 17.1144 26.2172 17.1704 26.2765 17.2247C29.3609 20.0611 27.7448 24.0707 27.6244 24.3544C30.13 22.295 31.7313 19.2487 31.2505 16.1041C29.7116 12.2766 27.1014 10.7323 24.9743 7.37408C24.8665 7.20424 24.7587 7.03406 24.6538 6.85441C24.5938 6.75181 24.5457 6.65936 24.5039 6.57427C24.4155 6.40357 24.3475 6.22318 24.301 6.03674C24.3011 6.01893 24.2878 6.00386 24.2701 6.00172C24.2617 5.99943 24.2529 5.99943 24.2445 6.00172C24.2427 6.00172 24.2399 6.00487 24.2378 6.00557C24.2357 6.00627 24.2312 6.00942 24.228 6.01083C23.7018 6.2598 20.5809 11.19 24.8107 15.4062L24.8089 15.4121Z" fill="url(#paint8_radial_9912_169144)"/>
<path id="Path_9" d="M26.2762 17.2265C26.2169 17.1722 26.147 17.1162 26.0723 17.0598C26.0445 17.0391 26.0171 17.0185 25.9877 16.9978C25.0307 16.3366 23.8617 16.0534 22.7074 16.2032C27.6006 18.644 26.2878 27.0484 19.5065 26.7332C18.9027 26.7084 18.306 26.5936 17.7363 26.3925C17.6031 26.3427 17.47 26.2883 17.3368 26.2293C17.26 26.1943 17.1831 26.1592 17.1073 26.12L17.1167 26.126C18.0624 26.77 22.733 28.3433 27.6157 24.3751L27.6234 24.3576C27.7452 24.0739 29.3613 20.0643 26.2755 17.2279L26.2762 17.2265Z" fill="url(#paint9_radial_9912_169144)"/>
<path id="Path_10" d="M13.9029 21.6726C13.9029 21.6726 14.5308 19.338 18.3994 19.338C18.8175 19.338 20.0141 18.1736 20.0355 17.836C18.3721 18.4371 16.5391 18.3652 14.9282 17.6357C13.3391 16.8317 11.4456 16.9075 9.92618 17.836C10.5055 19.0861 11.7685 19.8787 13.1489 19.8583C12.8968 22.0774 14.0727 24.6628 16.9188 26.0215C16.9823 26.052 17.042 26.0849 17.1073 26.114C15.4459 25.2578 14.0742 23.6385 13.9029 21.6737V21.6726Z" fill="url(#paint10_radial_9912_169144)"/>
<path id="Shape_2" d="M32.6015 15.4008C32.0104 13.9819 30.8113 12.4499 29.8724 11.9656C30.5419 13.2591 31.0067 14.6483 31.2501 16.0837L31.2526 16.1065C29.7144 12.2825 27.107 10.7382 24.9764 7.37994C24.8686 7.2101 24.7608 7.03991 24.6559 6.86027C24.5959 6.75767 24.5478 6.66522 24.506 6.58013C24.4177 6.40943 24.3496 6.22904 24.3031 6.0426C24.3032 6.02479 24.29 6.00972 24.2722 6.00758C24.2638 6.00529 24.255 6.00529 24.2466 6.00758C24.2448 6.00758 24.242 6.01073 24.2399 6.01143C24.2378 6.01213 24.2333 6.01528 24.2301 6.01669L24.2354 6.00758C20.8182 8.00361 19.6581 11.698 19.5528 13.547C19.7115 13.5361 19.8687 13.5228 20.0309 13.5228C22.4989 13.5276 24.7744 14.8534 25.9912 16.9956C25.0342 16.3343 23.8652 16.0512 22.7109 16.201C27.6041 18.6418 26.2913 27.0461 19.51 26.731C18.9062 26.7062 18.3095 26.5913 17.7398 26.3902C17.6066 26.3405 17.4735 26.2861 17.3403 26.227C17.2635 26.192 17.1866 26.157 17.1108 26.1178L17.1202 26.1237C17.0543 26.0922 16.9883 26.0594 16.9223 26.0253C16.9858 26.0558 17.0455 26.0887 17.1108 26.1178C15.4494 25.2612 14.0776 23.642 13.9063 21.6775C13.9063 21.6775 14.5343 19.3428 18.4029 19.3428C18.8209 19.3428 20.0175 18.1785 20.039 17.8409C20.0337 17.7306 17.6661 16.7904 16.7429 15.8834C16.2497 15.3984 16.0156 15.1648 15.8081 14.9894C15.696 14.8946 15.5789 14.806 15.4571 14.7239C15.1472 13.6415 15.134 12.4959 15.4189 11.4067C14.1639 12.0131 13.0489 12.8729 12.1442 13.9315H12.1379C11.5987 13.2497 11.6367 11.0015 11.6675 10.5319C11.508 10.5959 11.3558 10.6765 11.2133 10.7725C10.7374 11.1114 10.2924 11.4916 9.88367 11.9088C9.4179 12.3799 8.9925 12.8891 8.61194 13.4311V13.4332V13.4307C7.73739 14.6674 7.11702 16.0647 6.78665 17.5419L6.76839 17.6315C6.74277 17.7509 6.62799 18.3574 6.61149 18.4877C6.5065 19.1138 6.43945 19.7456 6.41071 20.3797V20.4498C6.42317 27.4902 11.8297 33.3524 18.8615 33.9498C25.8933 34.5473 32.2157 29.6818 33.4215 22.7448C33.4443 22.5698 33.4629 22.3964 33.4833 22.2196C33.7635 19.909 33.4601 17.5653 32.6008 15.4015L32.6015 15.4008Z" fill="url(#paint11_linear_9912_169144)"/>
</g>
</g>
<defs>
<linearGradient id="paint0_linear_9912_169144" x1="20.2484" y1="-1.28749" x2="-2.95935" y2="19.7659" gradientUnits="userSpaceOnUse">
<stop offset="0.048" stop-color="#FFF44F"/>
<stop offset="0.111" stop-color="#FFE847"/>
<stop offset="0.225" stop-color="#FFC830"/>
<stop offset="0.368" stop-color="#FF980E"/>
<stop offset="0.401" stop-color="#FF8B16"/>
<stop offset="0.462" stop-color="#FF672A"/>
<stop offset="0.534" stop-color="#FF3647"/>
<stop offset="0.705" stop-color="#E31587"/>
</linearGradient>
<radialGradient id="paint1_radial_9912_169144" cx="0" cy="0" r="1" gradientUnits="userSpaceOnUse" gradientTransform="translate(29.9268 9.15834) scale(28.3622 22.9949)">
<stop offset="0.129" stop-color="#FFBD4F"/>
<stop offset="0.186" stop-color="#FFAC31"/>
<stop offset="0.247" stop-color="#FF9D17"/>
<stop offset="0.283" stop-color="#FF980E"/>
<stop offset="0.403" stop-color="#FF563B"/>
<stop offset="0.467" stop-color="#FF3750"/>
<stop offset="0.71" stop-color="#F5156C"/>
<stop offset="0.782" stop-color="#EB0878"/>
<stop offset="0.86" stop-color="#E50080"/>
</radialGradient>
<radialGradient id="paint2_radial_9912_169144" cx="0" cy="0" r="1" gradientUnits="userSpaceOnUse" gradientTransform="translate(19.3962 20.7143) scale(28.3622 22.9949)">
<stop offset="0.3" stop-color="#960E18"/>
<stop offset="0.351" stop-color="#B11927" stop-opacity="0.74"/>
<stop offset="0.435" stop-color="#DB293D" stop-opacity="0.343"/>
<stop offset="0.497" stop-color="#F5334B" stop-opacity="0.094"/>
<stop offset="0.53" stop-color="#FF3750" stop-opacity="0.01"/>
</radialGradient>
<radialGradient id="paint3_radial_9912_169144" cx="0" cy="0" r="1" gradientUnits="userSpaceOnUse" gradientTransform="translate(22.9064 2.85423) scale(20.5451 34.8058)">
<stop offset="0.132" stop-color="#FFF44F"/>
<stop offset="0.252" stop-color="#FFDC3E"/>
<stop offset="0.506" stop-color="#FF9D12"/>
<stop offset="0.526" stop-color="#FF980E"/>
</radialGradient>
<radialGradient id="paint4_radial_9912_169144" cx="0" cy="0" r="1" gradientUnits="userSpaceOnUse" gradientTransform="translate(16.2371 28.0684) scale(13.5036 14.7686)">
<stop offset="0.353" stop-color="#3A8EE6"/>
<stop offset="0.472" stop-color="#5C79F0"/>
<stop offset="0.669" stop-color="#9059FF"/>
<stop offset="1" stop-color="#C139E6"/>
</radialGradient>
<radialGradient id="paint5_radial_9912_169144" cx="0" cy="0" r="1" gradientUnits="userSpaceOnUse" gradientTransform="translate(20.768 18.2857) rotate(-13.5604) scale(7.15985 7.75996)">
<stop offset="0.206" stop-color="#9059FF" stop-opacity="0.01"/>
<stop offset="0.278" stop-color="#8C4FF3" stop-opacity="0.064"/>
<stop offset="0.747" stop-color="#7716A8" stop-opacity="0.45"/>
<stop offset="0.975" stop-color="#6E008B" stop-opacity="0.6"/>
</radialGradient>
<radialGradient id="paint6_radial_9912_169144" cx="0" cy="0" r="1" gradientUnits="userSpaceOnUse" gradientTransform="translate(19.0452 8.10629) scale(9.71616 9.72896)">
<stop stop-color="#FFE226"/>
<stop offset="0.121" stop-color="#FFDB27"/>
<stop offset="0.295" stop-color="#FFC82A"/>
<stop offset="0.502" stop-color="#FFA930"/>
<stop offset="0.732" stop-color="#FF7E37"/>
<stop offset="0.792" stop-color="#FF7139"/>
</radialGradient>
<radialGradient id="paint7_radial_9912_169144" cx="0" cy="0" r="1" gradientUnits="userSpaceOnUse" gradientTransform="translate(26.7676 1.80604) scale(41.4552 34.7164)">
<stop offset="0.113" stop-color="#FFF44F"/>
<stop offset="0.456" stop-color="#FF980E"/>
<stop offset="0.622" stop-color="#FF5634"/>
<stop offset="0.716" stop-color="#FF3647"/>
<stop offset="0.904" stop-color="#E31587"/>
</radialGradient>
<radialGradient id="paint8_radial_9912_169144" cx="0" cy="0" r="1" gradientUnits="userSpaceOnUse" gradientTransform="translate(23.322 4.09708) rotate(83.9617) scale(30.3074 14.9293)">
<stop stop-color="#FFF44F"/>
<stop offset="0.06" stop-color="#FFE847"/>
<stop offset="0.168" stop-color="#FFC830"/>
<stop offset="0.304" stop-color="#FF980E"/>
<stop offset="0.356" stop-color="#FF8B16"/>
<stop offset="0.455" stop-color="#FF672A"/>
<stop offset="0.57" stop-color="#FF3647"/>
<stop offset="0.737" stop-color="#E31587"/>
</radialGradient>
<radialGradient id="paint9_radial_9912_169144" cx="0" cy="0" r="1" gradientUnits="userSpaceOnUse" gradientTransform="translate(19.0452 11.6096) scale(25.877 25.3374)">
<stop offset="0.137" stop-color="#FFF44F"/>
<stop offset="0.48" stop-color="#FF980E"/>
<stop offset="0.592" stop-color="#FF5634"/>
<stop offset="0.655" stop-color="#FF3647"/>
<stop offset="0.904" stop-color="#E31587"/>
</radialGradient>
<radialGradient id="paint10_radial_9912_169144" cx="0" cy="0" r="1" gradientUnits="userSpaceOnUse" gradientTransform="translate(25.7146 13.0091) scale(28.3236 25.3051)">
<stop offset="0.094" stop-color="#FFF44F"/>
<stop offset="0.231" stop-color="#FFE141"/>
<stop offset="0.509" stop-color="#FFAF1E"/>
<stop offset="0.626" stop-color="#FF980E"/>
</radialGradient>
<linearGradient id="paint11_linear_9912_169144" x1="21.2215" y1="0.330084" x2="1.45467" y2="18.9153" gradientUnits="userSpaceOnUse">
<stop offset="0.167" stop-color="#FFF44F" stop-opacity="0.8"/>
<stop offset="0.266" stop-color="#FFF44F" stop-opacity="0.634"/>
<stop offset="0.489" stop-color="#FFF44F" stop-opacity="0.217"/>
<stop offset="0.6" stop-color="#FFF44F" stop-opacity="0.01"/>
</linearGradient>
</defs>
</svg>
