<svg xmlns="http://www.w3.org/2000/svg" width="40" height="40" viewBox="0 0 40 40">
    <defs>
        <radialGradient id="6abnr7t5xb" cx="86.531%" cy="-12.747%" r="128.735%" fx="86.531%" fy="-12.747%" gradientTransform="translate(0.865315,-0.127475),scale(0.810757,1.000000),translate(-0.865315,0.127475)">
            <stop offset="12.9%" stop-color="#FFBD4F"/>
            <stop offset="18.6%" stop-color="#FFAC31"/>
            <stop offset="24.7%" stop-color="#FF9D17"/>
            <stop offset="28.3%" stop-color="#FF980E"/>
            <stop offset="40.3%" stop-color="#FF563B"/>
            <stop offset="46.7%" stop-color="#FF3750"/>
            <stop offset="71%" stop-color="#F5156C"/>
            <stop offset="78.2%" stop-color="#EB0878"/>
            <stop offset="86%" stop-color="#E50080"/>
        </radialGradient>
        <radialGradient id="sp4swuc3xc" cx="47.779%" cy="39.705%" r="128.735%" fx="47.779%" fy="39.705%" gradientTransform="translate(0.477791,0.397048),scale(0.810757,1.000000),translate(-0.477791,-0.397048)">
            <stop offset="30%" stop-color="#960E18"/>
            <stop offset="35.1%" stop-color="#B11927" stop-opacity=".74"/>
            <stop offset="43.5%" stop-color="#DB293D" stop-opacity=".343"/>
            <stop offset="49.7%" stop-color="#F5334B" stop-opacity=".094"/>
            <stop offset="53%" stop-color="#FF3750" stop-opacity="0"/>
        </radialGradient>
        <radialGradient id="1f41hucsyd" cx="51.456%" cy="-28.52%" r="314.965%" fx="51.456%" fy="-28.52%" gradientTransform="translate(0.514556,-0.285198),scale(1.000000,0.590277),translate(-0.514556,0.285198)">
            <stop offset="13.2%" stop-color="#FFF44F"/>
            <stop offset="25.2%" stop-color="#FFDC3E"/>
            <stop offset="50.6%" stop-color="#FF9D12"/>
            <stop offset="52.6%" stop-color="#FF980E"/>
        </radialGradient>
        <radialGradient id="l6zscpro0e" cx="19.319%" cy="110.063%" r="111.74%" fx="19.319%" fy="110.063%" gradientTransform="translate(0.193186,1.100629),scale(1.000000,0.914348),translate(-0.193186,-1.100629)">
            <stop offset="35.3%" stop-color="#3A8EE6"/>
            <stop offset="47.2%" stop-color="#5C79F0"/>
            <stop offset="66.9%" stop-color="#9059FF"/>
            <stop offset="100%" stop-color="#C139E6"/>
        </radialGradient>
        <radialGradient id="pjm2gfmlpf" cx="56.811%" cy="36.046%" r="59.247%" fx="56.811%" fy="36.046%" gradientTransform="translate(0.568113,0.360464),scale(1.000000,0.914348),rotate(-13.560380),translate(-0.568113,-0.360464)">
            <stop offset="20.6%" stop-color="#9059FF" stop-opacity="0"/>
            <stop offset="27.8%" stop-color="#8C4FF3" stop-opacity=".064"/>
            <stop offset="74.7%" stop-color="#7716A8" stop-opacity=".45"/>
            <stop offset="97.5%" stop-color="#6E008B" stop-opacity=".6"/>
        </radialGradient>
        <radialGradient id="e01i0t2u6g" cx="208.498%" cy="-99.419%" r="293.282%" fx="208.498%" fy="-99.419%" gradientTransform="translate(2.084976,-0.994194),scale(1.000000,0.998684),translate(-2.084976,0.994194)">
            <stop offset="0%" stop-color="#FFE226"/>
            <stop offset="12.1%" stop-color="#FFDB27"/>
            <stop offset="29.5%" stop-color="#FFC82A"/>
            <stop offset="50.2%" stop-color="#FFA930"/>
            <stop offset="73.2%" stop-color="#FF7E37"/>
            <stop offset="79.2%" stop-color="#FF7139"/>
        </radialGradient>
        <radialGradient id="54w31tayah" cx="79.697%" cy="-40.925%" r="194.312%" fx="79.697%" fy="-40.925%" gradientTransform="translate(0.796968,-0.409249),scale(0.837444,1.000000),translate(-0.796968,0.409249)">
            <stop offset="11.3%" stop-color="#FFF44F"/>
            <stop offset="45.6%" stop-color="#FF980E"/>
            <stop offset="62.2%" stop-color="#FF5634"/>
            <stop offset="71.6%" stop-color="#FF3647"/>
            <stop offset="90.4%" stop-color="#E31587"/>
        </radialGradient>
        <radialGradient id="srbkgu3n9i" cx="7.991%" cy="-10.368%" r="347.974%" fx="7.991%" fy="-10.368%" gradientTransform="translate(0.079913,-0.103676),scale(1.000000,0.474528),rotate(83.961728),translate(-0.079913,0.103676)">
            <stop offset="0%" stop-color="#FFF44F"/>
            <stop offset="6%" stop-color="#FFE847"/>
            <stop offset="16.8%" stop-color="#FFC830"/>
            <stop offset="30.4%" stop-color="#FF980E"/>
            <stop offset="35.6%" stop-color="#FF8B16"/>
            <stop offset="45.5%" stop-color="#FF672A"/>
            <stop offset="57%" stop-color="#FF3647"/>
            <stop offset="73.7%" stop-color="#E31587"/>
        </radialGradient>
        <radialGradient id="a6yqj0tjoj" cx="17.543%" cy="-42.106%" r="239.232%" fx="17.543%" fy="-42.106%" gradientTransform="translate(0.175428,-0.421062),scale(0.979146,1.000000),translate(-0.175428,0.421062)">
            <stop offset="13.7%" stop-color="#FFF44F"/>
            <stop offset="48%" stop-color="#FF980E"/>
            <stop offset="59.2%" stop-color="#FF5634"/>
            <stop offset="65.5%" stop-color="#FF3647"/>
            <stop offset="90.4%" stop-color="#E31587"/>
        </radialGradient>
        <radialGradient id="msqaijplhk" cx="156.177%" cy="-45.094%" r="313.594%" fx="156.177%" fy="-45.094%" gradientTransform="translate(1.561771,-0.450944),scale(0.893428,1.000000),translate(-1.561771,0.450944)">
            <stop offset="9.4%" stop-color="#FFF44F"/>
            <stop offset="23.1%" stop-color="#FFE141"/>
            <stop offset="50.9%" stop-color="#FFAF1E"/>
            <stop offset="62.6%" stop-color="#FF980E"/>
        </radialGradient>
        <linearGradient id="4x4kzb47ta" x1="87.472%" x2="9.137%" y1="15.494%" y2="93.16%">
            <stop offset="4.8%" stop-color="#FFF44F"/>
            <stop offset="11.1%" stop-color="#FFE847"/>
            <stop offset="22.5%" stop-color="#FFC830"/>
            <stop offset="36.8%" stop-color="#FF980E"/>
            <stop offset="40.1%" stop-color="#FF8B16"/>
            <stop offset="46.2%" stop-color="#FF672A"/>
            <stop offset="53.4%" stop-color="#FF3647"/>
            <stop offset="70.5%" stop-color="#E31587"/>
        </linearGradient>
        <linearGradient id="arc2wr31ql" x1="86.512%" x2="19.882%" y1="15.08%" y2="83.568%">
            <stop offset="16.7%" stop-color="#FFF44F" stop-opacity=".8"/>
            <stop offset="26.6%" stop-color="#FFF44F" stop-opacity=".634"/>
            <stop offset="48.9%" stop-color="#FFF44F" stop-opacity=".217"/>
            <stop offset="60%" stop-color="#FFF44F" stop-opacity="0"/>
        </linearGradient>
    </defs>
    <g fill="none" fill-rule="evenodd">
        <g fill-rule="nonzero">
            <g>
                <g>
                    <g>
                        <path fill="#FFF" stroke="#E7EBF0" stroke-width=".5" d="M27.278.25c3.188.008 4.976.068 6.885.672 2.286.835 4.086 2.637 4.919 4.925.6 1.905.66 3.693.667 6.875h0l.001.801v13.755c-.008 3.188-.068 4.976-.672 6.885-.835 2.286-2.637 4.086-4.924 4.918-1.906.601-3.693.661-6.876.668h0l-.801.001H12.722c-3.188-.008-4.976-.068-6.884-.672-2.287-.835-4.087-2.637-4.92-4.925-.6-1.905-.66-3.693-.667-6.874h0V12.722c.007-3.188.067-4.976.67-6.885C1.758 3.551 3.56 1.751 5.848.918 7.752.318 9.54.258 12.72.251h0z" transform="translate(-733.000000, -538.000000) translate(713.000000, 26.000000) translate(0.000000, 383.000000) translate(20.000000, 129.000000)"/>
                        <g>
                            <path fill="url(#4x4kzb47ta)" d="M31.804 11.416c-.718-1.723-2.174-3.583-3.314-4.171.813 1.57 1.377 3.257 1.673 5l.003.028c-1.868-4.643-5.034-6.519-7.621-10.596-.131-.207-.262-.413-.39-.631-.072-.125-.13-.237-.181-.34-.108-.208-.19-.427-.247-.653 0-.022-.016-.04-.037-.043-.01-.003-.021-.003-.031 0-.003 0-.006.004-.009.005L21.64.02l.006-.01c-4.15 2.423-5.558 6.909-5.686 9.154-1.658.113-3.243.723-4.548 1.748-.136-.115-.278-.222-.426-.322-.377-1.315-.393-2.706-.047-4.028-1.523.736-2.877 1.78-3.976 3.066h-.008C6.3 8.8 6.346 6.07 6.384 5.5c-.194.077-.38.175-.552.292-.578.411-1.119.873-1.615 1.38-.565.572-1.082 1.19-1.544 1.848v.002-.002C1.61 10.522.858 12.219.456 14.013l-.022.108c-.03.145-.143.872-.162 1.03 0 .012-.003.023-.004.036-.144.75-.234 1.509-.268 2.272v.085c.015 8.549 6.58 15.667 15.119 16.392 8.538.726 16.215-5.182 17.68-13.606.027-.212.05-.423.075-.637.34-2.806-.029-5.652-1.072-8.28l.002.003zm-19.04 12.901c.077.037.15.077.229.113l.011.007c-.08-.039-.16-.078-.24-.12z" transform="translate(-733.000000, -538.000000) translate(713.000000, 26.000000) translate(0.000000, 383.000000) translate(20.000000, 129.000000) translate(3.500000, 3.000000)"/>
                            <path fill="url(#6abnr7t5xb)" d="M31.804 11.416c-.718-1.723-2.174-3.583-3.314-4.171.813 1.57 1.377 3.257 1.673 5v.016l.003.018c1.273 3.635 1.09 7.62-.514 11.123-1.894 4.053-6.475 8.207-13.648 8.003-7.75-.22-14.577-5.958-15.852-13.471-.232-1.185 0-1.786.117-2.75-.16.749-.248 1.51-.266 2.275v.085c.016 8.549 6.58 15.667 15.12 16.393 8.538.725 16.215-5.183 17.679-13.606.028-.213.05-.423.075-.638.34-2.806-.028-5.652-1.072-8.279l-.001.002z" transform="translate(-733.000000, -538.000000) translate(713.000000, 26.000000) translate(0.000000, 383.000000) translate(20.000000, 129.000000) translate(3.500000, 3.000000)"/>
                            <path fill="url(#sp4swuc3xc)" d="M31.804 11.416c-.718-1.723-2.174-3.583-3.314-4.171.813 1.57 1.377 3.257 1.673 5v.016l.003.018c1.273 3.635 1.09 7.62-.514 11.123-1.894 4.053-6.475 8.207-13.648 8.003-7.75-.22-14.577-5.958-15.852-13.471-.232-1.185 0-1.786.117-2.75-.16.749-.248 1.51-.266 2.275v.085c.016 8.549 6.58 15.667 15.12 16.393 8.538.725 16.215-5.183 17.679-13.606.028-.213.05-.423.075-.638.34-2.806-.028-5.652-1.072-8.279l-.001.002z" transform="translate(-733.000000, -538.000000) translate(713.000000, 26.000000) translate(0.000000, 383.000000) translate(20.000000, 129.000000) translate(3.500000, 3.000000)"/>
                            <path fill="url(#1f41hucsyd)" d="M23.774 13.35l.102.076c-.415-.734-.931-1.406-1.534-1.996C17.206 6.306 20.996.323 21.635.017l.007-.01c-4.15 2.424-5.559 6.91-5.686 9.156.192-.014.383-.03.58-.03 2.997.006 5.76 1.616 7.238 4.217z" transform="translate(-733.000000, -538.000000) translate(713.000000, 26.000000) translate(0.000000, 383.000000) translate(20.000000, 129.000000) translate(3.500000, 3.000000)"/>
                            <path fill="url(#l6zscpro0e)" d="M16.545 14.376c-.028.41-1.48 1.823-1.987 1.823-4.697 0-5.46 2.835-5.46 2.835.208 2.388 1.875 4.355 3.891 5.392.092.048.185.09.279.133.161.071.323.137.485.198.692.244 1.416.384 2.15.414 8.234.385 9.828-9.823 3.886-12.787 1.402-.182 2.821.162 3.983.965-1.477-2.6-4.24-4.21-7.237-4.217-.196 0-.388.017-.58.03-1.658.113-3.243.722-4.549 1.748.252.212.537.496 1.135 1.085 1.121 1.102 3.996 2.243 4.003 2.377v.004z" transform="translate(-733.000000, -538.000000) translate(713.000000, 26.000000) translate(0.000000, 383.000000) translate(20.000000, 129.000000) translate(3.500000, 3.000000)"/>
                            <path fill="url(#pjm2gfmlpf)" d="M16.545 14.376c-.028.41-1.48 1.823-1.987 1.823-4.697 0-5.46 2.835-5.46 2.835.208 2.388 1.875 4.355 3.891 5.392.092.048.185.09.279.133.161.071.323.137.485.198.692.244 1.416.384 2.15.414 8.234.385 9.828-9.823 3.886-12.787 1.402-.182 2.821.162 3.983.965-1.477-2.6-4.24-4.21-7.237-4.217-.196 0-.388.017-.58.03-1.658.113-3.243.722-4.549 1.748.252.212.537.496 1.135 1.085 1.121 1.102 3.996 2.243 4.003 2.377v.004z" transform="translate(-733.000000, -538.000000) translate(713.000000, 26.000000) translate(0.000000, 383.000000) translate(20.000000, 129.000000) translate(3.500000, 3.000000)"/>
                            <path fill="url(#e01i0t2u6g)" d="M10.637 10.366c.134.085.244.159.341.226-.376-1.315-.392-2.706-.046-4.028-1.524.736-2.878 1.78-3.977 3.065.08-.002 2.477-.045 3.682.737z" transform="translate(-733.000000, -538.000000) translate(713.000000, 26.000000) translate(0.000000, 383.000000) translate(20.000000, 129.000000) translate(3.500000, 3.000000)"/>
                            <path fill="url(#54w31tayah)" d="M.15 17.935C1.423 25.448 8.251 31.189 16 31.405c7.174.203 11.756-3.951 13.649-8.002 1.603-3.503 1.787-7.488.514-11.124v-.015c0-.013-.003-.02 0-.016l.003.028c.586 3.817-1.36 7.513-4.403 10.018l-.01.02c-5.929 4.819-11.602 2.907-12.748 2.127-.08-.038-.16-.078-.24-.12-3.457-1.648-4.885-4.787-4.578-7.483-1.677.024-3.21-.938-3.914-2.456 1.845-1.127 4.145-1.22 6.074-.243 1.956.886 4.182.973 6.202.243-.007-.134-2.881-1.276-4.002-2.377-.6-.589-.884-.872-1.135-1.085-.137-.116-.279-.223-.427-.323-.098-.067-.208-.139-.34-.226-1.206-.781-3.602-.738-3.681-.736h-.008c-.655-.828-.609-3.558-.571-4.128-.194.078-.379.176-.552.292-.578.412-1.118.873-1.614 1.38-.568.57-1.086 1.187-1.55 1.844v.003-.003C1.605 10.524.852 12.22.451 14.015c-.008.033-.595 2.593-.306 3.92H.15z" transform="translate(-733.000000, -538.000000) translate(713.000000, 26.000000) translate(0.000000, 383.000000) translate(20.000000, 129.000000) translate(3.500000, 3.000000)"/>
                            <path fill="url(#srbkgu3n9i)" d="M22.341 11.429c.603.59 1.12 1.264 1.535 1.998.09.069.175.137.247.203 3.746 3.444 1.783 8.313 1.637 8.657 3.043-2.5 4.987-6.2 4.403-10.018-1.868-4.647-5.038-6.523-7.62-10.6-.132-.207-.263-.413-.39-.632-.073-.124-.131-.236-.182-.34-.107-.207-.19-.426-.246-.652 0-.022-.016-.04-.038-.043-.01-.003-.02-.003-.031 0-.002 0-.006.004-.008.005-.003 0-.008.004-.012.006-.639.302-4.429 6.29.708 11.409l-.003.007z" transform="translate(-733.000000, -538.000000) translate(713.000000, 26.000000) translate(0.000000, 383.000000) translate(20.000000, 129.000000) translate(3.500000, 3.000000)"/>
                            <path fill="url(#a6yqj0tjoj)" d="M24.123 13.632c-.072-.066-.157-.134-.248-.203l-.102-.075c-1.162-.803-2.582-1.147-3.983-.965 5.941 2.964 4.347 13.169-3.887 12.786-.733-.03-1.458-.17-2.15-.413-.161-.06-.323-.127-.485-.199-.093-.042-.187-.085-.279-.132l.012.007c1.148.782 6.82 2.692 12.749-2.126l.009-.021c.148-.345 2.11-5.213-1.637-8.658l.001-.001z" transform="translate(-733.000000, -538.000000) translate(713.000000, 26.000000) translate(0.000000, 383.000000) translate(20.000000, 129.000000) translate(3.500000, 3.000000)"/>
                            <path fill="url(#msqaijplhk)" d="M9.098 19.032s.763-2.835 5.46-2.835c.508 0 1.961-1.414 1.987-1.824-2.02.73-4.246.643-6.202-.243-1.93-.976-4.228-.884-6.073.243.703 1.518 2.237 2.48 3.913 2.456-.306 2.694 1.122 5.834 4.578 7.484.077.037.15.077.228.112-2.017-1.04-3.683-3.006-3.89-5.392v-.001z" transform="translate(-733.000000, -538.000000) translate(713.000000, 26.000000) translate(0.000000, 383.000000) translate(20.000000, 129.000000) translate(3.500000, 3.000000)"/>
                            <path fill="url(#arc2wr31ql)" d="M31.804 11.416c-.718-1.723-2.174-3.583-3.314-4.171.813 1.57 1.377 3.257 1.673 5l.003.028c-1.868-4.643-5.034-6.519-7.621-10.596-.131-.207-.262-.413-.39-.631-.072-.125-.13-.237-.181-.34-.108-.208-.19-.427-.247-.653 0-.022-.016-.04-.037-.043-.01-.003-.021-.003-.031 0-.003 0-.006.004-.009.005L21.64.02l.006-.01c-4.15 2.423-5.558 6.909-5.686 9.154.193-.013.384-.03.58-.03 2.997.007 5.76 1.616 7.238 4.218-1.162-.803-2.582-1.147-3.983-.965 5.941 2.964 4.347 13.169-3.887 12.786-.733-.03-1.458-.17-2.15-.414-.161-.06-.323-.126-.485-.198-.093-.042-.186-.085-.278-.132l.011.007c-.08-.039-.16-.078-.24-.12.077.037.15.077.229.113-2.018-1.04-3.683-3.007-3.891-5.392 0 0 .762-2.835 5.46-2.835.507 0 1.96-1.414 1.986-1.824-.006-.134-2.881-1.276-4.002-2.377-.599-.589-.883-.872-1.135-1.085-.136-.115-.278-.223-.426-.323-.377-1.314-.393-2.705-.047-4.028-1.524.737-2.878 1.78-3.976 3.066h-.008c-.654-.828-.608-3.558-.57-4.128-.195.078-.38.176-.552.292-.578.412-1.119.873-1.615 1.38-.566.572-1.082 1.19-1.544 1.848v.003-.003C1.612 10.526.859 12.222.457 14.016l-.022.109c-.03.145-.17.881-.19 1.04-.128.76-.21 1.527-.244 2.297v.085C.016 26.096 6.58 33.214 15.12 33.94c8.538.725 16.215-5.183 17.68-13.606.027-.213.05-.423.074-.638.34-2.806-.028-5.652-1.071-8.279z" transform="translate(-733.000000, -538.000000) translate(713.000000, 26.000000) translate(0.000000, 383.000000) translate(20.000000, 129.000000) translate(3.500000, 3.000000)"/>
                        </g>
                    </g>
                </g>
            </g>
        </g>
    </g>
</svg>
