<?xml version="1.0" encoding="utf-8"?>
<!-- Generator: Adobe Illustrator 23.0.2, SVG Export Plug-In . SVG Version: 6.00 Build 0)  -->
<svg version="1.1" id="Layer_1" xmlns="http://www.w3.org/2000/svg" xmlns:xlink="http://www.w3.org/1999/xlink" x="0px" y="0px"
	 viewBox="0 0 620 514" style="enable-background:new 0 0 620 514;" xml:space="preserve">
<style type="text/css">
	.st0{opacity:0.7045;}
	.st1{fill:#D2DEF8;}
	.st2{fill:url(#SVGID_1_);}
	.st3{fill:url(#SVGID_2_);}
	.st4{fill:url(#SVGID_3_);}
	.st5{fill:url(#SVGID_4_);}
	.st6{fill:url(#SVGID_5_);}
	.st7{fill:url(#SVGID_6_);}
	.st8{fill:url(#SVGID_7_);}
	.st9{fill:url(#SVGID_8_);}
	.st10{fill:url(#SVGID_9_);}
	.st11{fill:url(#SVGID_10_);}
	.st12{fill:url(#SVGID_11_);}
	.st13{fill:#8FAFDA;}
	.st14{fill:url(#SVGID_12_);}
	.st15{fill:url(#SVGID_13_);}
	.st16{fill:url(#SVGID_14_);}
	.st17{fill:url(#SVGID_15_);}
	.st18{fill:url(#SVGID_16_);}
	.st19{fill:url(#SVGID_17_);}
	.st20{fill:url(#SVGID_18_);}
	.st21{fill:url(#SVGID_19_);}
	.st22{fill:url(#SVGID_20_);}
	.st23{fill:url(#SVGID_21_);}
	.st24{fill:url(#SVGID_22_);}
	.st25{fill-rule:evenodd;clip-rule:evenodd;fill:#C0D0DF;}
	.st26{fill-rule:evenodd;clip-rule:evenodd;fill:#FFFFFF;}
	.st27{fill-rule:evenodd;clip-rule:evenodd;fill:#F2F6FA;}
	.st28{opacity:0.4972;fill-rule:evenodd;clip-rule:evenodd;fill:#ED3D48;enable-background:new    ;}
	.st29{fill-rule:evenodd;clip-rule:evenodd;fill:#F9E492;}
	.st30{fill-rule:evenodd;clip-rule:evenodd;fill:#76CFD6;}
	.st31{fill-rule:evenodd;clip-rule:evenodd;fill:#B8CBDD;}
	.st32{fill:none;stroke:#B8CBDD;stroke-width:0.5;}
	.st33{fill-rule:evenodd;clip-rule:evenodd;fill:#EAF0F5;}
	.st34{fill:#B06C57;}
	.st35{fill:url(#Shoes_1_);}
	.st36{fill:url(#SVGID_23_);}
	.st37{fill:#111AA7;}
	.st38{fill:url(#SVGID_24_);}
	.st39{fill:url(#SVGID_25_);}
	.st40{fill:url(#SVGID_26_);}
	.st41{opacity:0.5;fill:#AD3139;enable-background:new    ;}
	.st42{fill:url(#Face_1_);}
	.st43{fill:url(#Hair_1_);}
	.st44{fill:#D2D9FF;}
	.st45{fill:url(#Wheel_1_);}
	.st46{fill:url(#SVGID_27_);}
	.st47{fill:url(#SVGID_28_);}
	.st48{fill:url(#SVGID_29_);}
	.st49{fill:url(#SVGID_30_);}
	.st50{fill:url(#SVGID_31_);}
	.st51{fill:url(#Leaf_1_);}
	.st52{fill:#98BBE9;}
	.st53{fill:url(#SVGID_32_);}
	.st54{fill:#5ACE87;}
	.st55{fill:#42B16D;}
	.st56{fill:url(#SVGID_33_);}
	.st57{fill:url(#Vase-base_1_);}
	.st58{fill:url(#SVGID_34_);}
	.st59{enable-background:new    ;}
	.st60{fill:url(#Path-58_1_);}
	.st61{fill:url(#Path-59_1_);}
	.st62{fill:url(#SVGID_35_);}
	.st63{opacity:0.3;fill:#151731;enable-background:new    ;}
	.st64{fill:url(#SVGID_36_);}
	.st65{opacity:0.3;}
	.st66{fill:#FFFFFF;}
	.st67{opacity:0.3;fill:#FFFFFF;enable-background:new    ;}
	.st68{fill:#FFD5D7;}
	.st69{fill:url(#SVGID_37_);}
	.st70{fill:url(#SVGID_38_);}
	.st71{fill:url(#SVGID_39_);}
</style>
<g id="Leaves" transform="translate(107.180283, 256.446108) scale(-1, 1) rotate(30.000000) translate(-107.180283, -256.446108) translate(66.048429, 188.457131)" class="st0">
	<g id="Leaves-base" transform="translate(0.051155, 0.231308)">
		<path class="st1" d="M38.6,134.3c0.1,0.2,0,0.4-0.2,0.5s-0.4,0-0.5-0.2c-17.5-47-21.1-82.7-10.6-106.9c0.1-0.2,0.3-0.3,0.5-0.2
			c0.2,0.1,0.3,0.3,0.2,0.5C17.6,51.9,21.1,87.4,38.6,134.3z"/>
		
			<linearGradient id="SVGID_1_" gradientUnits="userSpaceOnUse" x1="2.9434" y1="386.7267" x2="2.8755" y2="387.7267" gradientTransform="matrix(14.6799 15.9235 -11.3813 15.6453 4375.7695 -6002.627)">
			<stop  offset="0" style="stop-color:#FFFFFF"/>
			<stop  offset="1" style="stop-color:#E5EEFF"/>
		</linearGradient>
		<path class="st2" d="M14.5,108.6C8,104.2,4,98.9,5.2,97c1.2-2,7.8-0.1,14.3,4.3s9.3,11.7,9.3,11.7S21,113,14.5,108.6z"/>
		
			<linearGradient id="SVGID_2_" gradientUnits="userSpaceOnUse" x1="2.3763" y1="387.2778" x2="2.3127" y2="388.2778" gradientTransform="matrix(14.5842 16.2139 -11.0396 15.684 4254.5254 -6036.7715)">
			<stop  offset="0" style="stop-color:#FFFFFF"/>
			<stop  offset="1" style="stop-color:#E5EEFF"/>
		</linearGradient>
		<path class="st3" d="M10.8,89.7c-6.4-4.5-10.3-9.9-9.1-11.8c1.2-1.9,7.8,0,14.2,4.5S25,94.2,25,94.2S17.2,94.2,10.8,89.7z"/>
		
			<linearGradient id="SVGID_3_" gradientUnits="userSpaceOnUse" x1="-5.3335" y1="396.7734" x2="-5.3624" y2="397.7734" gradientTransform="matrix(13.3322 19.2622 -7.0783 15.9218 2889.9097 -6158.686)">
			<stop  offset="0" style="stop-color:#FFFFFF"/>
			<stop  offset="1" style="stop-color:#E5EEFF"/>
		</linearGradient>
		<path class="st4" d="M7.7,69.4c-5.3-5.7-8-11.8-6.4-13.4s7.6,1.6,13,7.4s6.4,13.4,6.4,13.4S13.1,75.1,7.7,69.4z"/>
		
			<linearGradient id="SVGID_4_" gradientUnits="userSpaceOnUse" x1="-13.222" y1="408.5255" x2="-13.2375" y2="409.5255" gradientTransform="matrix(12.3828 21.114 -4.3864 15.9382 1965.571 -6197.3418)">
			<stop  offset="0" style="stop-color:#FFFFFF"/>
			<stop  offset="1" style="stop-color:#E5EEFF"/>
		</linearGradient>
		<path class="st5" d="M7.7,47.9C3.5,41.3,2,34.8,3.9,33.5s7.2,3,11.4,9.7S19,57.6,19,57.6S11.9,54.5,7.7,47.9z"/>
		
			<linearGradient id="SVGID_5_" gradientUnits="userSpaceOnUse" x1="-18.8431" y1="417.5624" x2="-18.854" y2="418.5624" gradientTransform="matrix(11.8552 21.9018 -3.0543 15.8614 1512.8706 -6196.9951)">
			<stop  offset="0" style="stop-color:#FFFFFF"/>
			<stop  offset="1" style="stop-color:#E5EEFF"/>
		</linearGradient>
		<path class="st6" d="M11.8,26.2c-3-7.2-3.4-13.8-1.3-14.8c2.1-0.9,6.5,4.2,9.5,11.5c3,7.2,1.3,14.8,1.3,14.8S14.8,33.4,11.8,26.2z
			"/>
		
			<linearGradient id="SVGID_6_" gradientUnits="userSpaceOnUse" x1="23.5341" y1="384.7182" x2="23.4268" y2="384.9085" gradientTransform="matrix(15.9375 5.5121 -20.3488 12.7839 7489.9121 -5014.522)">
			<stop  offset="0" style="stop-color:#FFFFFF"/>
			<stop  offset="1" style="stop-color:#E5EEFF"/>
		</linearGradient>
		<path class="st7" d="M39.6,38.5c-6.3,4.7-14.1,4.9-14.1,4.9s2.3-7.4,8.6-12.1s12.7-6.8,14.1-4.9C49.6,28.3,45.9,33.8,39.6,38.5z"
			/>
		
			<linearGradient id="SVGID_7_" gradientUnits="userSpaceOnUse" x1="23.5345" y1="384.7177" x2="23.4272" y2="384.9079" gradientTransform="matrix(15.9375 5.5121 -20.3488 12.7839 7490.0928 -4996.6211)">
			<stop  offset="0" style="stop-color:#FFFFFF"/>
			<stop  offset="1" style="stop-color:#E5EEFF"/>
		</linearGradient>
		<path class="st8" d="M39.8,56.4c-6.3,4.7-14.1,4.9-14.1,4.9s2.3-7.4,8.6-12.1s12.7-6.8,14.1-4.9C49.8,46.2,46,51.7,39.8,56.4z"/>
		
			<linearGradient id="SVGID_8_" gradientUnits="userSpaceOnUse" x1="16.8805" y1="382.7256" x2="16.7732" y2="383.0597" gradientTransform="matrix(15.9096 8.1189 -18.5373 13.6952 6863.8311 -5311.5566)">
			<stop  offset="0" style="stop-color:#FFFFFF"/>
			<stop  offset="1" style="stop-color:#E5EEFF"/>
		</linearGradient>
		<path class="st9" d="M40.5,73.5c-5.4,5.7-13.1,7.1-13.1,7.1s1.1-7.8,6.6-13.4s11.5-8.8,13.1-7.1C48.8,61.8,46,67.9,40.5,73.5z"/>
		
			<linearGradient id="SVGID_9_" gradientUnits="userSpaceOnUse" x1="15.5551" y1="382.5666" x2="15.4478" y2="382.9471" gradientTransform="matrix(15.8514 8.7485 -18.022 13.8803 6688.1377 -5362.3237)">
			<stop  offset="0" style="stop-color:#FFFFFF"/>
			<stop  offset="1" style="stop-color:#E5EEFF"/>
		</linearGradient>
		<path class="st10" d="M42.8,90.8C37.6,96.7,30,98.3,30,98.3s0.9-7.8,6.1-13.6c5.2-5.8,11.1-9.2,12.9-7.5
			C50.6,78.8,48.1,85,42.8,90.8z"/>
		
			<linearGradient id="SVGID_10_" gradientUnits="userSpaceOnUse" x1="10.7244" y1="382.4769" x2="10.6171" y2="383.1109" gradientTransform="matrix(15.6619 11.4013 -15.9352 14.6982 5972.0015 -5644.9771)">
			<stop  offset="0" style="stop-color:#FFFFFF"/>
			<stop  offset="1" style="stop-color:#E5EEFF"/>
		</linearGradient>
		<path class="st11" d="M47.6,108c-4.4,6.5-11.7,9.2-11.7,9.2s-0.2-7.8,4.2-14.3c4.4-6.5,9.8-10.6,11.7-9.2
			C53.8,95.1,52.1,101.5,47.6,108z"/>
		
			<linearGradient id="SVGID_11_" gradientUnits="userSpaceOnUse" x1="8.2823" y1="383.152" x2="8.175" y2="383.9912" gradientTransform="matrix(15.4302 12.8465 -14.6039 15.0566 5504.2568 -5870.7759)">
			<stop  offset="0" style="stop-color:#FFFFFF"/>
			<stop  offset="1" style="stop-color:#E5EEFF"/>
		</linearGradient>
		<path class="st12" d="M39.1,15.4c-3.9,6.8-11,10-11,10s-0.8-7.8,3.1-14.6s9-11.3,11-10C44.2,2,43,8.6,39.1,15.4z"/>
	</g>
	<g transform="translate(21.028721, 23.133193)">
		<path class="st13" d="M20.9,111.2c0,0.2-0.1,0.3-0.3,0.3c-0.2,0-0.3-0.1-0.3-0.3c-1.6-44,5.1-74.7,20.1-92.2
			c0.1-0.1,0.3-0.2,0.5,0c0.1,0.1,0.2,0.3,0,0.5C26,36.8,19.3,67.3,20.9,111.2z"/>
		
			<linearGradient id="SVGID_12_" gradientUnits="userSpaceOnUse" x1="96.9195" y1="385.5253" x2="96.9195" y2="387.5682" gradientTransform="matrix(-13.0249 -5.6448 10.2059 19.429 -2664.9443 -6881.7432)">
			<stop  offset="0" style="stop-color:#FFFFFF"/>
			<stop  offset="1" style="stop-color:#B3CDEF"/>
		</linearGradient>
		<path class="st14" d="M7.8,83.1c-4.3-5.4-6.2-10.9-4.6-12.2c1.6-1.3,6.5,2,10.8,7.4c4.3,5.4,4.6,12.2,4.6,12.2S12,88.5,7.8,83.1z"
			/>
		
			<linearGradient id="SVGID_13_" gradientUnits="userSpaceOnUse" x1="96.3664" y1="385.8292" x2="96.3664" y2="387.8721" gradientTransform="matrix(-12.9247 -5.8732 9.8674 19.6061 -2551.9207 -6953.8042)">
			<stop  offset="0" style="stop-color:#FFFFFF"/>
			<stop  offset="1" style="stop-color:#B3CDEF"/>
		</linearGradient>
		<path class="st15" d="M9.8,66.3c-4.2-5.5-6-11-4.4-12.3c1.6-1.3,6.5,2.1,10.7,7.6s4.4,12.3,4.4,12.3S13.9,71.8,9.8,66.3z"/>
		
			<linearGradient id="SVGID_14_" gradientUnits="userSpaceOnUse" x1="87.8411" y1="388.1249" x2="87.8411" y2="390.1678" gradientTransform="matrix(-11.4198 -8.4531 5.5944 21.2559 -1151.1696 -7480.062)">
			<stop  offset="0" style="stop-color:#FFFFFF"/>
			<stop  offset="1" style="stop-color:#B3CDEF"/>
		</linearGradient>
		<path class="st16" d="M12.7,48.5c-2.9-6.2-3.6-12-1.7-13c1.8-0.9,5.9,3.4,8.8,9.7c2.9,6.2,1.7,13,1.7,13S15.7,54.7,12.7,48.5z"/>
		
			<linearGradient id="SVGID_15_" gradientUnits="userSpaceOnUse" x1="7.3268" y1="392.3601" x2="7.3268" y2="394.403" gradientTransform="matrix(4.5842 21.0231 -7.9401 12.1377 3109.8362 -4914.9839)">
			<stop  offset="0" style="stop-color:#FFFFFF"/>
			<stop  offset="1" style="stop-color:#B3CDEF"/>
		</linearGradient>
		<path class="st17" d="M18.5,30.6c-1.7-6.7-1.2-12.5,0.8-13.1s5.1,4.5,6.8,11.2c1.7,6.7-0.8,13.1-0.8,13.1S20.1,37.3,18.5,30.6z"/>
		
			<linearGradient id="SVGID_16_" gradientUnits="userSpaceOnUse" x1="2.4011" y1="399.6215" x2="2.4011" y2="401.6643" gradientTransform="matrix(3.9703 21.5816 -6.8768 12.4602 2775.4204 -5046.9229)">
			<stop  offset="0" style="stop-color:#FFFFFF"/>
			<stop  offset="1" style="stop-color:#B3CDEF"/>
		</linearGradient>
		<path class="st18" d="M27.8,13.7c-0.5-6.9,1-12.5,3-12.7s4.3,5.3,4.8,12.2c0.5,6.9-3,12.7-3,12.7S28.3,20.6,27.8,13.7z"/>
		
			<linearGradient id="SVGID_17_" gradientUnits="userSpaceOnUse" x1="53.2185" y1="378.9848" x2="53.2185" y2="381.0277" gradientTransform="matrix(11.7551 8.9137 -20.3604 5.1463 7153.4482 -2409.0549)">
			<stop  offset="0" style="stop-color:#FFFFFF"/>
			<stop  offset="1" style="stop-color:#B3CDEF"/>
		</linearGradient>
		<path class="st19" d="M47.6,31.5c-6.5,2.2-13,0.3-13,0.3s4-5.5,10.5-7.8s12.4-2.3,13-0.3S54.1,29.2,47.6,31.5z"/>
		
			<linearGradient id="SVGID_18_" gradientUnits="userSpaceOnUse" x1="53.2158" y1="378.9864" x2="53.2158" y2="381.0293" gradientTransform="matrix(11.7551 8.9137 -20.3604 5.1463 7148.7852 -2394.137)">
			<stop  offset="0" style="stop-color:#FFFFFF"/>
			<stop  offset="1" style="stop-color:#B3CDEF"/>
		</linearGradient>
		<path class="st20" d="M42.9,46.4c-6.5,2.2-13,0.3-13,0.3s4-5.5,10.5-7.8c6.5-2.2,12.4-2.3,13-0.3C54,40.5,49.4,44.1,42.9,46.4z"/>
		
			<linearGradient id="SVGID_19_" gradientUnits="userSpaceOnUse" x1="42.924" y1="374.7521" x2="42.924" y2="376.795" gradientTransform="matrix(11.0159 11.0366 -19.0801 6.372 6729.9717 -2819.2197)">
			<stop  offset="0" style="stop-color:#FFFFFF"/>
			<stop  offset="1" style="stop-color:#B3CDEF"/>
		</linearGradient>
		<path class="st21" d="M39,60.9c-6,3.2-12.8,2.4-12.8,2.4s3.1-6.1,9.1-9.3s11.9-4.2,12.8-2.4S45,57.6,39,60.9z"/>
		
			<linearGradient id="SVGID_20_" gradientUnits="userSpaceOnUse" x1="40.8358" y1="374.0502" x2="40.8358" y2="376.0931" gradientTransform="matrix(10.8167 11.5759 -18.735 6.6834 6615.437 -2915.7878)">
			<stop  offset="0" style="stop-color:#FFFFFF"/>
			<stop  offset="1" style="stop-color:#B3CDEF"/>
		</linearGradient>
		<path class="st22" d="M36.3,75.9c-5.9,3.4-12.7,2.8-12.7,2.8s2.9-6.2,8.8-9.7c5.9-3.4,11.7-4.6,12.7-2.8
			C46,68.1,42.2,72.5,36.3,75.9z"/>
		
			<linearGradient id="SVGID_21_" gradientUnits="userSpaceOnUse" x1="33.5179" y1="372.3901" x2="33.5179" y2="374.433" gradientTransform="matrix(9.9018 13.8173 -17.1504 7.9774 6101.5947 -3363.8525)">
			<stop  offset="0" style="stop-color:#FFFFFF"/>
			<stop  offset="1" style="stop-color:#B3CDEF"/>
		</linearGradient>
		<path class="st23" d="M35.6,91.7c-5.4,4.2-12.2,4.6-12.2,4.6s2-6.5,7.4-10.8c5.4-4.2,11-6.2,12.2-4.6C44.1,82.5,41,87.4,35.6,91.7
			z"/>
		
			<linearGradient id="SVGID_22_" gradientUnits="userSpaceOnUse" x1="30.4785" y1="372.3285" x2="30.4785" y2="374.3714" gradientTransform="matrix(9.3787 14.8874 -16.2445 8.5953 5826.146 -3665.0964)">
			<stop  offset="0" style="stop-color:#FFFFFF"/>
			<stop  offset="1" style="stop-color:#B3CDEF"/>
		</linearGradient>
		<path class="st24" d="M53.4,11.9c-5.1,4.6-11.8,5.4-11.8,5.4s1.5-6.7,6.6-11.3S58.7-1,60,0.6C61.3,2.1,58.5,7.2,53.4,11.9z"/>
	</g>
</g>
<g id="Group-20" transform="translate(116.680157, 0.000000)">
	
		<image style="overflow:visible;opacity:0.5;enable-background:new    ;" width="446" height="492" xlink:href="3934E7FF1DC1A157.png"  transform="matrix(1 0 0 1 -8.6802 -11)">
	</image>
	<g>
		<g>
			<g id="screen_9_" transform="translate(0.839426, 0.000000)">
				<g id="Group-25_9_" transform="translate(0.000000, 0.334909)">
					<path id="Fill-1_12_" class="st25" d="M400.2,456.7l-388.9-149c-3.8-1.5-6.4-5.1-6.4-9.2L0.8,9.8C0.8,4,8.9-1,14.4,0.8
						L403,126.6c6,1.9,10,7.4,10,13.7l1.6,306.6C414.6,454.3,407.1,459.4,400.2,456.7"/>
					<g id="Group-5_9_" transform="translate(0.000000, 3.357480)">
						<path id="Fill-3_12_" class="st26" d="M395.2,456.7L8,307.7c-3.8-1.5-6.4-5.1-6.4-9.2L0,7.7c0-5.1,5-8.8,9.8-7.2L398,126.6
							c5.9,1.9,9.9,7.4,10,13.7l1.5,306.6C409.5,454.3,402.1,459.4,395.2,456.7"/>
					</g>
					<g id="Group-8_9_" transform="translate(0.000000, 3.357480)">
						<path id="Fill-6_12_" class="st27" d="M408,140.3c0-6.2-4.1-11.7-10-13.7L9.8,0.5C5-1.1,0,2.5,0,7.7L0.1,27L408,159V140.3z"/>
					</g>
					<path id="Fill-9_12_" class="st28" d="M19.3,20.4c0,3-1.7,5.4-3.7,5.4s-3.7-2.4-3.7-5.4s1.7-5.4,3.7-5.4S19.3,17.5,19.3,20.4"
						/>
					<path id="Fill-11_12_" class="st29" d="M31.8,24.6c0,3-1.7,5.4-3.7,5.4s-3.7-2.4-3.7-5.4s1.7-5.4,3.7-5.4S31.8,21.7,31.8,24.6"
						/>
					<path id="Fill-13_12_" class="st30" d="M44.4,28.8c0,3-1.7,5.4-3.7,5.4S37,31.8,37,28.8s1.7-5.4,3.7-5.4
						C42.8,23.5,44.4,25.9,44.4,28.8"/>
					<path id="Fill-15_12_" class="st26" d="M298.6,119.7L99.7,55.5c-1.4-0.4-2.3-1.7-2.3-3.1v-6.6c0-2.2,2.2-3.8,4.3-3.1
						l198.9,64.2c1.4,0.4,2.3,1.7,2.3,3.1v6.6C302.8,118.8,300.7,120.3,298.6,119.7"/>
					<path id="Fill-17_12_" class="st31" d="M395.3,138.3c0,0.9-0.6,1.7-1.3,1.7s-1.3-0.8-1.3-1.7s0.6-1.7,1.3-1.7
						S395.3,137.3,395.3,138.3"/>
					<path id="Fill-19_12_" class="st31" d="M395.3,144.1c0,0.9-0.6,1.7-1.3,1.7s-1.3-0.8-1.3-1.7s0.6-1.7,1.3-1.7
						S395.3,143.2,395.3,144.1"/>
					<path id="Fill-21_12_" class="st31" d="M395.3,150c0,0.9-0.6,1.7-1.3,1.7s-1.3-0.8-1.3-1.7s0.6-1.7,1.3-1.7
						S395.3,149.1,395.3,150"/>
					<path id="Fill-23_12_" class="st31" d="M323.2,119.6c0,2.2-1.5,4-3.4,4s-3.4-1.8-3.4-4s1.5-4,3.4-4c0.8,0,1.5,0.3,2.1,0.8
						l-1.4,1.5l3.5,0.4l-0.2-4.1l-1.4,1.5c-0.7-0.7-1.7-1.1-2.6-1.1c-2.3,0-4.2,2.2-4.2,4.9c0,2.7,1.9,4.9,4.2,4.9s4.2-2.2,4.2-4.9
						L323.2,119.6L323.2,119.6z"/>
				</g>
				<g id="Group-35_9_" transform="translate(0.000000, 3.692389)">
					<path id="Stroke-30_12_" class="st32" d="M323.2,116.3c0,2.2-1.5,4-3.4,4s-3.4-1.8-3.4-4s1.5-4,3.4-4c0.8,0,1.5,0.3,2.1,0.8
						l-1.4,1.5l3.5,0.4l-0.2-4.1l-1.4,1.5c-0.7-0.7-1.7-1.1-2.6-1.1c-2.3,0-4.2,2.2-4.2,4.9c0,2.7,1.9,4.9,4.2,4.9s4.2-2.2,4.2-4.9
						L323.2,116.3L323.2,116.3z"/>
					<g id="Group-34_9_">
						<path id="Fill-32_12_" class="st33" d="M393.7,455L9.5,307.1c-3.8-1.5-6.3-5.1-6.3-9.2L1.6,9.4c0-5.1,4.9-8.7,9.8-7.1
							l385.1,125.2c5.9,1.9,9.9,7.4,9.9,13.6l1.5,304.2C407.9,452.5,400.6,457.6,393.7,455L393.7,455z M408,140.3
							c0-6.2-4.1-11.7-10-13.7L9.8,0.5C5-1.1,0,2.5,0,7.7l1.6,290.8c0,4.1,2.6,7.8,6.4,9.2l387.3,149c6.9,2.7,14.3-2.5,14.3-9.8
							L408,140.3z"/>
					</g>
				</g>
			</g>
			
				<image style="overflow:visible;enable-background:new    ;" width="1453" height="1538" id="screen-fixed_7_" xlink:href="3934E7FF1DC1A155.png"  transform="matrix(0.2794 0 0 0.2794 2.8454 29.7392)">
			</image>
		</g>
	</g>
</g>
<g id="Man" transform="translate(311.426893, 287.903937)">
	<g id="Foot" transform="translate(31.898172, 108.278740)">
		<path id="leg" class="st34" d="M53.1,58.4c0.5-0.3,8.7-0.9,8.1,2.5c-0.7,3.4-3.9,4.7-2.5,6.7c0.9,1.3,0.8,2-0.4,2.2l-5.1-2.5
			l-2.4-3.2C52,60.5,52.8,58.5,53.1,58.4z"/>
		
			<linearGradient id="Shoes_1_" gradientUnits="userSpaceOnUse" x1="-1389.9252" y1="1.7461" x2="-1390.9252" y2="1.7461" gradientTransform="matrix(18.8047 6.11 -2.4129 7.4261 26208.8926 8552.7188)">
			<stop  offset="0" style="stop-color:#2865C6"/>
			<stop  offset="1" style="stop-color:#10378A"/>
		</linearGradient>
		<path id="Shoes" class="st35" d="M51,64.4c1.2-0.1,1.5,2.3,3.3,2.7c1.8,0.4,3.8-1.2,4.2-0.9c1.1,0.9,3,1.7,4.9,2.9
			c4.7,3,5.1,3.3,3.3,5.6C66.4,75.2,60.2,74,48,71c0-1.3,0.2-2.4,0.5-3.4C49.2,66.1,49.8,64.5,51,64.4z"/>
		<path class="st34" d="M24.6,55.7c-0.4-0.4-6.6-2.2-7.4,1c-0.8,3.3-1,4-1.5,5.3c-0.4,0.8-0.6,1.4-0.8,1.8l5.9-0.3l3.4-2.5
			C24.7,57.7,24.8,56,24.6,55.7z"/>
		
			<linearGradient id="SVGID_23_" gradientUnits="userSpaceOnUse" x1="-1490.6324" y1="54.8392" x2="-1491.6324" y2="54.8392" gradientTransform="matrix(-9.8208 3.191 2.6707 8.2197 -14770.7109 4371.0439)">
			<stop  offset="0" style="stop-color:#2865C6"/>
			<stop  offset="1" style="stop-color:#10378A"/>
		</linearGradient>
		<path class="st36" d="M20.4,59.2c-2-0.1-3.6,1-3.9,1.4c-0.5,0.4-3.6,4.9,0.4,6.5c1,0.4,3.9,0.1,8.8-0.8c0-1.3-0.2-2.5-0.6-3.5
			C24.4,61.2,22.4,59.3,20.4,59.2z"/>
		<path id="Pants" class="st37" d="M8.9,8.4c17.4-8.1,27.7-10.1,30.9-6c4.7,6,8.7,25.9-14.8,55.3c-1.7,1.2-3.2,1.7-4.5,1.5
			s-2.4-1.4-3.3-3.6l6.5-26.3L5.3,26.9L0,15.5L8.9,8.4z"/>
		
			<linearGradient id="SVGID_24_" gradientUnits="userSpaceOnUse" x1="-1414.566" y1="4.5942" x2="-1414.4706" y2="5.3185" gradientTransform="matrix(47.6136 0 0 55.0439 67406.4844 -244.6604)">
			<stop  offset="0" style="stop-color:#CAC8BA"/>
			<stop  offset="1" style="stop-color:#BDBBB3"/>
		</linearGradient>
		<path class="st38" d="M45.2,8.4c18.4-2,29.2-1.1,32.4,3c4.7,6,2.4,20.1-14.8,49.9c-3.3,0.9-5.6,1.2-6.9,1s-2.4-1.4-3.3-3.6
			l7.3-29.4L32,33.2l4.2-17.8L45.2,8.4z"/>
	</g>
	<g id="Body" transform="translate(5.036554, 47.844094)">
		
			<linearGradient id="SVGID_25_" gradientUnits="userSpaceOnUse" x1="-1368.9515" y1="3.6138" x2="-1368.5756" y2="3.448" gradientTransform="matrix(99.0454 0 0 78.841 135635.1094 -249.5158)">
			<stop  offset="0" style="stop-color:#FF9292"/>
			<stop  offset="1" style="stop-color:#FFB59D"/>
		</linearGradient>
		<path class="st39" d="M22.9,5.9c7.4,3.4,12,4.2,13.6,2.5s2.3-2.9,2.1-3.7c13.3,1.8,21.5,6,24.6,12.6c3.8,7.9,10.4,28.3,14.9,31.2
			c0.8-1,5.1-3.4,12.8-7c-1.2-0.6-1.8-1.4-1.8-2.3c0-1.5,0.7-1,1.3-1.5c0.5-0.5,0.8-1.4,1.5-1.3c0.7,0,1.4,0.2,2.2,0.4
			c0.4,0.1,1.2-0.5,1.6-0.4c2.1,0.8,4,2.2,4,2.7s0.3,1.5-0.7,2.5c-0.3,0.4-1.1,0.8-2.2,1.3c-10.9,13-18,19.5-21.3,19.5
			c-4.9,0-12.2-10-14.2-12.1c-1.4,4.5-10.9,14.8-28.6,31l-29-26.7L0.8,25.4l23.3-23L22.9,5.9z"/>
		<g>
			
				<linearGradient id="SVGID_26_" gradientUnits="userSpaceOnUse" x1="-1366.7157" y1="2.8835" x2="-1366.4677" y2="3.3553" gradientTransform="matrix(75.1732 0 0 90.8602 102764.0156 -251.6799)">
				<stop  offset="0" style="stop-color:#ED563D"/>
				<stop  offset="1" style="stop-color:#ED3D48"/>
			</linearGradient>
			<path class="st40" d="M30.5,8.5c4.4,0,7.6-1.3,9.4-3.9C53,5.9,61.1,9.8,64.2,16.3c2.7,5.7,3.3,7.4,8.4,16.4
				c2.4,4.2-2,9-13.1,14.2c6.5,13,11.4,20.2,14.8,21.7c1.1,1.1,1.1,4.5,0.7,5.9C74.2,77.2,62.9,93.1,57.2,91
				c-3.8-1.4-12-4.6-24.7-9.7L3.6,54.6L0,25.7c1.5-5.2,3.9-11,7.1-17.3c4.2-8.2,9.7-10.2,16.7-6C23.9,6.5,26.1,8.5,30.5,8.5z"/>
		</g>
		<path id="Shadow" class="st41" d="M59.9,47.2c-2.9-3.6-5-6.3-6.3-8.1c-0.9,2.4,7.1,28.1,16.6,29.8c6.3,1.2,8.1,0.7,5.4-1.4
			L59.9,47.2z"/>
	</g>
	<g id="Head" transform="translate(16.788512, 0.000000)">
		
			<linearGradient id="Face_1_" gradientUnits="userSpaceOnUse" x1="-1374.0131" y1="6.3832" x2="-1373.8589" y2="5.8499" gradientTransform="matrix(28.5975 0 0 44.6804 39310.2656 -237.3848)">
			<stop  offset="0" style="stop-color:#FF9292"/>
			<stop  offset="1" style="stop-color:#FFB59D"/>
		</linearGradient>
		<path id="Face" class="st42" d="M13.7,44.6c-1.2,4-2.2,6.6-3,7.9c-1.1,1.9,0.9,6.8,5.7,6.8c3.2,0,7.1-1.3,11.5-3.8
			c-1.6-2.6-2.5-5.1-2.5-7.4s0.5-4.3,1.4-5.9c1.8,1.1,3.2,1.1,4.4,0c1.7-1.7,9-21.8-10.5-26.7C16.1,12,8.9,20.3,8.9,24
			c0,2.5,0,4.7,0,6.6c-2.3-1-3.5-0.2-3.5,2.4s1.5,4.3,4.5,5.3L13.7,44.6z"/>
		
			<linearGradient id="Hair_1_" gradientUnits="userSpaceOnUse" x1="-1421.1855" y1="6.8909" x2="-1421.6954" y2="5.3261" gradientTransform="matrix(-34.6104 0 0 43.4182 -49178.4648 -251.6295)">
			<stop  offset="0" style="stop-color:#032258"/>
			<stop  offset="1" style="stop-color:#133E94"/>
		</linearGradient>
		<path id="Hair" class="st43" d="M22.8,2.7C17.2,8.4,12.1,2.3,6.3,7c-3.8,3.1-5.2,6.3-4,9.8c-2.7,3.7-2.7,8.8,0,15.5
			s6.5,10.5,11.5,11.6c7-3.1,11.1-6,12.2-8.7c0.2-0.4-1-0.3-1.9-2.5s-1.2-4.6,0.6-5.2c1.6-0.5,3.1,0.3,4.5,2.5c0-5.1,0-7.7,0-7.7
			s6.6-6.7,5.6-13.2C33.9,2.7,28.5-3,22.8,2.7z"/>
	</g>
	<g id="Chair" transform="translate(0.000000, 74.703937)">
		<polygon id="Chair-base" class="st44" points="62,73.6 66.8,73.6 66.8,93.2 62,93.2 		"/>
		
			<linearGradient id="Wheel_1_" gradientUnits="userSpaceOnUse" x1="-1263.5126" y1="35.068" x2="-1263.7465" y2="35.9179" gradientTransform="matrix(7.2426 0 0 7.1979 9190.2109 -137.2461)">
			<stop  offset="0" style="stop-color:#476DB1"/>
			<stop  offset="1" style="stop-color:#283F6F"/>
		</linearGradient>
		<ellipse id="Wheel" class="st45" cx="38.2" cy="118.4" rx="3.6" ry="3.6"/>
		
			<linearGradient id="SVGID_27_" gradientUnits="userSpaceOnUse" x1="-1263.5125" y1="35.068" x2="-1263.7463" y2="35.9179" gradientTransform="matrix(7.2426 0 0 7.1979 9240.9092 -137.2461)">
			<stop  offset="0" style="stop-color:#476DB1"/>
			<stop  offset="1" style="stop-color:#283F6F"/>
		</linearGradient>
		<ellipse class="st46" cx="88.9" cy="118.4" rx="3.6" ry="3.6"/>
		
			<linearGradient id="SVGID_28_" gradientUnits="userSpaceOnUse" x1="-1263.5067" y1="35.0696" x2="-1263.7406" y2="35.9195" gradientTransform="matrix(7.2426 0 0 7.1979 9216.3652 -133.2472)">
			<stop  offset="0" style="stop-color:#476DB1"/>
			<stop  offset="1" style="stop-color:#283F6F"/>
		</linearGradient>
		<ellipse class="st47" cx="64.4" cy="122.4" rx="3.6" ry="3.6"/>
		
			<linearGradient id="SVGID_29_" gradientUnits="userSpaceOnUse" x1="-1353.1696" y1="7.0997" x2="-1353.1696" y2="10.2247" gradientTransform="matrix(56.428 0 0 29.567 76420.6484 -159.2031)">
			<stop  offset="0" style="stop-color:#95B7E5"/>
			<stop  offset="1" style="stop-color:#476DB1"/>
		</linearGradient>
		<path class="st48" d="M59.5,97.5l-0.3-3c0-0.1,0-0.1,0-0.2c0-0.9,0.8-1.6,1.6-1.6l6.9,0.1h0.1c0.9,0.1,1.5,0.8,1.5,1.7l-0.2,2.6
			l22,15c0.1,0,0.1,0.1,0.2,0.1c1,0.9,1.2,2.4,0.3,3.4c-1,1.2-2.7,1.5-4.1,0.8l-19.1-10.5l-1,13.5c-0.1,1.5-1.4,2.7-2.9,2.7
			s-2.8-1.1-2.9-2.6l-1.3-14.1l-19.8,10.9c-1.4,0.7-3.1,0.4-4.1-0.8c-0.9-1-0.7-2.6,0.3-3.4c0.1,0,0.1-0.1,0.2-0.1l22.5-15.3
			L59.5,97.5z"/>
		
			<linearGradient id="SVGID_30_" gradientUnits="userSpaceOnUse" x1="-1354.9854" y1="3.4187" x2="-1355.1642" y2="4.2792" gradientTransform="matrix(65.9269 0 0 75.4102 89368.8438 -251.8455)">
			<stop  offset="0" style="stop-color:#476DB1"/>
			<stop  offset="1" style="stop-color:#283F6F"/>
		</linearGradient>
		<path class="st49" d="M7.7,0.7C5.3-0.6,1.6,0.6,0.4,2.3C0.8,4.7,1,5.8,1,5.8C4.9,26.3,19.7,46,31.2,58.4
			c6.6,7,12.1,12.7,16.7,16.9c4.4,0.7,8.5,0.2,12.3-1.4c2.4-1.1,6.2-0.7,6.1-4.1c-0.2-6.9-6.3-10.3-8.8-20.2
			c-2.3-9.3,0.3-28.3-6.6-32.2s-15.4,2.9-28.5-2.8C13.2,10.6,10.2,2.1,7.7,0.7z"/>
		
			<linearGradient id="SVGID_31_" gradientUnits="userSpaceOnUse" x1="-1358.6753" y1="1.7197" x2="-1358.6753" y2="4.8446" gradientTransform="matrix(96.8919 0 0 80.1781 131693.4375 -249.9061)">
			<stop  offset="0" style="stop-color:#95B7E5"/>
			<stop  offset="1" style="stop-color:#476DB1"/>
		</linearGradient>
		<path class="st50" d="M0.4,2.1c3,23.5,5.6,39,7.8,46.5c3.3,11.3,7.6,16,12.1,20.5c4.6,4.5,21.7,12.4,35.3,13.1
			c12.1,0.6,29-2.9,35.2-6.8c6.2-3.9,9.5-12.1,2.4-14.2c-7.1-2.1-29.8,6.4-32,5.5c-11.9-5.1-8.2-40.8-14-44.6
			c-5.5-3.6-17.1,1-31.2-5.1C11.9,15.2,6.7,10.2,0.4,2.1z"/>
	</g>
</g>
<g id="leaves" transform="translate(474.275457, 377.716535)">
	
		<g transform="translate(61.752711, 60.492219) scale(-1, 1) rotate(-16.000000) translate(-61.752711, -60.492219) translate(36.989656, 5.513479)">
		
			<linearGradient id="Leaf_1_" gradientUnits="userSpaceOnUse" x1="157.4214" y1="-221.4433" x2="157.4214" y2="-219.4004" gradientTransform="matrix(41.4379 -49.6111 25.8933 79.3945 -787.3368 25306.0469)">
			<stop  offset="0" style="stop-color:#FFFFFF"/>
			<stop  offset="1" style="stop-color:#B3CDEF"/>
		</linearGradient>
		<path id="Leaf" class="st51" d="M33.6,0.1c6.4,0.6,4.2,15.1,6,17.8s6.7,3.5,6,9.3c-0.7,5.8-5.5,5.6-6.1,10.4
			c-0.6,4.8,10.2,4.2,9.3,11.8s-9.2,9.9-9.8,14.5c-0.5,4.6,3.6,6.4,2.4,16.5c-1.2,10.1-9.6,12.2-22.2,13.1C6.8,94.4-1,91,0.2,80.1
			s14.5-10.6,16.2-16.6c1.6-6-6.8-9.2-6-16.3c0.8-7,13.5-6.7,14.1-12.3c0.6-5.6-9.3-8.7-8.6-14.5c0.7-5.8,3.2-6.7,7.9-8.7
			C28.6,9.8,27.2-0.5,33.6,0.1z"/>
		<path id="leaves-base" class="st52" d="M20.5,88.3c-0.3,0.1-0.5-0.1-0.5-0.4s0.2-0.6,0.4-0.7c6.4-1.9,9.8-5.7,10.5-11.7
			c0-0.3,0.3-0.5,0.5-0.6c0.3,0,0.4,0.2,0.4,0.5C31.1,82,27.3,86.3,20.5,88.3z"/>
		<path class="st52" d="M24.1,64.1c-0.3,0-0.4-0.3-0.3-0.6s0.4-0.5,0.6-0.5c4.3,0.3,7.9-2.2,11-7.6c0.2-0.3,0.5-0.4,0.7-0.3
			c0.2,0.1,0.3,0.4,0.1,0.7C32.9,61.6,28.9,64.4,24.1,64.1z"/>
		<path class="st52" d="M32.8,31.7c-0.2,0-0.3-0.2-0.2-0.4c0.1-0.2,0.2-0.3,0.4-0.3c2.2,0.3,4-0.8,5.6-3.5c0.1-0.2,0.3-0.3,0.5-0.2
			c0.2,0.1,0.2,0.3,0.1,0.5C37.4,30.7,35.3,32,32.8,31.7z"/>
		<path class="st52" d="M32.6,27.8c0.2,0,0.3-0.2,0.3-0.4c0-0.2-0.2-0.4-0.3-0.3c-2.2,0.1-3.8-1.2-4.7-4.1c-0.1-0.2-0.3-0.3-0.4-0.2
			c-0.2,0.1-0.3,0.3-0.2,0.5C28.3,26.4,30.1,27.9,32.6,27.8z"/>
		<path class="st52" d="M25.9,56.8c0.3,0,0.5-0.3,0.5-0.6s-0.2-0.5-0.5-0.5c-4,0.4-6.8-1.9-8.4-7c-0.1-0.3-0.4-0.4-0.6-0.3
			c-0.3,0.1-0.4,0.4-0.3,0.7C18.4,54.6,21.5,57.2,25.9,56.8z"/>
		<path class="st52" d="M18.4,82.5c0.3,0,0.5-0.3,0.5-0.6c0-0.3-0.2-0.5-0.5-0.5c-4,0.6-6.8-1.6-8.4-6.6c-0.1-0.3-0.4-0.4-0.6-0.3
			C9.1,74.6,9,75,9.1,75.2C10.9,80.7,14,83.1,18.4,82.5z"/>
		<path class="st13" d="M18.5,108.6c0,0.4-0.4,0.8-0.7,0.8c-0.4,0-1.1-0.2-1-0.6c0.8-2.5,1.4-5.9,2-10.2c0.8-6.5-1.4-17.1,0.1-24.4
			c1.5-7.2,9.7-20.9,12.7-31.6c2.4-8.7,0.8-16.6,0.5-21.9c-0.3-5.3,0.9-11.5,1-11.5s-1,6.4-0.7,11.5c0.4,5.1,1.8,11.8,0.6,19.3
			c-2.3,13.8-11.6,26-12.6,35.2s1,14.8,0.5,22.8C20.5,103.4,19.7,106.9,18.5,108.6z"/>
	</g>
	
		<g transform="translate(38.347880, 65.428094) rotate(-17.000000) translate(-38.347880, -65.428094) translate(15.683389, 9.190299)">
		
			<linearGradient id="SVGID_32_" gradientUnits="userSpaceOnUse" x1="-1713.2546" y1="-253.1208" x2="-1713.2162" y2="-252.2822" gradientTransform="matrix(45.2135 -1.668840e-05 -5.678630e-05 96.0401 77488.9531 24343.2871)">
			<stop  offset="0" style="stop-color:#84F0A8"/>
			<stop  offset="1" style="stop-color:#48B676"/>
		</linearGradient>
		<path class="st53" d="M24.2,0c6.4,0,5.9,15.2,8,17.8c2.1,2.6,7.1,3.2,7.1,9.3s-4.8,6.1-4.8,11.2c0,5.1,10.7,4.1,10.7,12.3
			s-8,10.5-8,15.4c0,4.8,4.3,6.9,4.3,17.7c0,10.8-8.2,12.4-20.8,12.4C8.2,96,0,92.1,0,81.3s13.4-10.1,14.3-16.2
			c1-6-7.8-9.3-7.8-16.3s12.7-7,12.7-12.7C19.2,30.3,9,27.7,9,21.9c0-5.8,2.4-6.9,6.9-9.2S17.8,0,24.2,0z"/>
		<path class="st54" d="M21.3,90.7c-0.3,0.1-0.5-0.1-0.6-0.4s0.1-0.6,0.4-0.7c6.2-1.6,9.2-5.4,9.2-11.6c0-0.3,0.2-0.6,0.5-0.6
			c0.3,0,0.5,0.3,0.5,0.6C31.3,84.8,27.9,89,21.3,90.7z"/>
		<path class="st54" d="M22,66c-0.3,0-0.4-0.3-0.4-0.6c0.1-0.3,0.3-0.5,0.6-0.5c4.4,0.3,7.8-2.3,10.4-7.9c0.1-0.3,0.4-0.4,0.7-0.3
			c0.2,0.1,0.3,0.4,0.2,0.7C30.7,63.4,26.8,66.3,22,66z"/>
		<path class="st54" d="M27,32.4c-0.2,0-0.3-0.2-0.3-0.4c0-0.2,0.2-0.4,0.4-0.3c2.2,0.2,4-1.1,5.3-4c0.1-0.2,0.3-0.3,0.5-0.2
			c0.2,0.1,0.2,0.3,0.1,0.5C31.5,31.1,29.5,32.6,27,32.4z"/>
		<path class="st54" d="M26.5,28.5c0.2,0,0.3-0.2,0.3-0.4c0-0.2-0.2-0.4-0.4-0.3c-2.2,0.2-4-1.1-5.3-4c-0.1-0.2-0.3-0.3-0.5-0.2
			c-0.2,0.1-0.2,0.3-0.1,0.5C21.9,27.2,24,28.7,26.5,28.5z"/>
		<path class="st54" d="M23.3,58.5c0.3,0,0.4-0.3,0.4-0.6s-0.3-0.5-0.6-0.5c-4,0.3-7.1-2.1-9.5-7.3c-0.1-0.3-0.4-0.4-0.7-0.3
			c-0.2,0.1-0.3,0.4-0.2,0.7C15.4,56.1,18.9,58.8,23.3,58.5z"/>
		<path class="st54" d="M18.8,84.7c0.3,0,0.4-0.3,0.4-0.6c-0.1-0.3-0.3-0.5-0.6-0.5c-4,0.3-7.1-2.1-9.5-7.3C8.9,76,8.6,75.9,8.4,76
			c-0.2,0.1-0.3,0.4-0.2,0.7C10.8,82.3,14.3,85,18.8,84.7z"/>
		<path class="st55" d="M21.7,111.5c0,0.4-0.3,0.7-0.6,0.7s-1.1-0.3-1.1-0.7c0.5-2.5,0.8-6,0.8-10.4c0-6.6-3.4-17.7-2.7-25.1
			c0.7-7.3,7.3-21.3,9-32.4c1.4-9-1.2-17.2-2.1-22.5S24.5,9.3,24.6,9.3s-0.3,6.6,0.7,11.8s3.1,12.1,2.8,19.8
			c-0.6,14.4-8.4,26.9-8.4,36.3s2.7,15.3,3.1,23.6C23.1,106.3,22.7,109.9,21.7,111.5z"/>
	</g>
	
		<g transform="translate(73.856703, 75.609846) scale(-1, 1) rotate(-28.000000) translate(-73.856703, -75.609846) translate(51.192212, 27.346066)">
		
			<linearGradient id="SVGID_33_" gradientUnits="userSpaceOnUse" x1="382.7098" y1="-289.5578" x2="382.6773" y2="-288.5578" gradientTransform="matrix(25.2831 -68.1233 37.4837 45.9498 1187.103 39391.25)">
			<stop  offset="0" style="stop-color:#FFFFFF"/>
			<stop  offset="1" style="stop-color:#E5EEFF"/>
		</linearGradient>
		<path class="st56" d="M24.2,0c6.4,0,5.9,13,8,15.2c2.1,2.2,7.1,2.7,7.1,8s-4.8,5.3-4.8,9.6s10.7,3.5,10.7,10.5s-8,9-8,13.2
			s4.3,5.9,4.3,15.1c0,9.2-8.2,10.6-20.8,10.6S0,78.8,0,69.6s13.4-8.7,14.3-13.8c0.9-5.1-7.8-8-7.8-14s12.7-6,12.7-10.9
			c0-5-10.2-7.2-10.2-12.2s2.4-5.9,6.9-7.9S17.8,0,24.2,0z"/>
		<path class="st1" d="M21.3,77.6c-0.3,0.1-0.5-0.1-0.6-0.4s0.1-0.5,0.4-0.6c6.2-1.4,9.2-4.6,9.2-9.9c0-0.3,0.2-0.5,0.5-0.5
			s0.5,0.2,0.5,0.5C31.3,72.5,27.9,76.2,21.3,77.6z"/>
		<path class="st1" d="M22.4,56.2c-0.3,0-0.4-0.3-0.4-0.5c0-0.3,0.3-0.5,0.5-0.4c4.3,0.5,7.5-1.6,9.7-6.4c0.1-0.2,0.4-0.3,0.6-0.2
			c0.2,0.1,0.3,0.4,0.2,0.6C30.7,54.5,27.1,56.8,22.4,56.2z"/>
		<path class="st1" d="M27.2,27.7c-0.2,0-0.3-0.2-0.3-0.4c0-0.2,0.2-0.3,0.4-0.3c2.2,0.3,3.8-0.8,4.9-3.2c0.1-0.2,0.3-0.2,0.4-0.2
			c0.2,0.1,0.2,0.3,0.2,0.4C31.5,26.8,29.7,28,27.2,27.7z"/>
		<path class="st1" d="M26.3,24.3c0.2,0,0.3-0.2,0.3-0.4c0-0.2-0.2-0.3-0.4-0.3c-2.2,0.3-3.8-0.8-4.9-3.2c-0.1-0.2-0.3-0.2-0.4-0.2
			c-0.2,0.1-0.2,0.3-0.2,0.4C21.9,23.4,23.8,24.6,26.3,24.3z"/>
		<path class="st1" d="M22.9,49.9c0.3,0,0.4-0.3,0.4-0.5c0-0.3-0.3-0.5-0.5-0.4c-3.9,0.4-6.8-1.5-8.8-6c-0.1-0.2-0.4-0.3-0.6-0.2
			c-0.2,0.1-0.3,0.4-0.2,0.6C15.3,48.2,18.6,50.4,22.9,49.9z"/>
		<path class="st1" d="M18.4,72.3c0.3,0,0.4-0.3,0.4-0.5c0-0.3-0.3-0.5-0.5-0.4c-3.9,0.5-6.8-1.5-8.9-5.9c-0.1-0.2-0.4-0.3-0.6-0.2
			c-0.2,0.1-0.3,0.4-0.2,0.6C10.8,70.6,14.1,72.8,18.4,72.3z"/>
		<path class="st1" d="M21.7,95.4c0,0.4-0.3,0.6-0.6,0.6S20,95.8,20,95.4c0.5-2.1,0.8-5.1,0.8-8.9c0-5.7-3.4-15.2-2.7-21.4
			c0.7-6.3,7.3-18.2,9-27.7c1.4-7.7-1.2-14.7-2.1-19.3C24.1,13.5,24.6,8,24.7,8s-0.3,5.7,0.7,10.1c1,4.5,3.1,10.3,2.8,17
			c-0.6,12.3-8.4,23-8.4,31s2.7,13.1,3.1,20.2C23.1,90.9,22.7,94,21.7,95.4z"/>
	</g>
	<g id="vase" transform="translate(33.577023, 109.957480)">
		
			<linearGradient id="Vase-base_1_" gradientUnits="userSpaceOnUse" x1="-1739.5526" y1="9.7972" x2="-1739.9384" y2="10.4492" gradientTransform="matrix(38.5655 0 0 24.9622 67120.7109 -251.2205)">
			<stop  offset="0" style="stop-color:#E5EDFF"/>
			<stop  offset="1" style="stop-color:#6B9AD9"/>
		</linearGradient>
		<polygon id="Vase-base" class="st57" points="0.8,0.8 39.3,0.8 30.8,25.7 9.3,25.7 		"/>
		
			<linearGradient id="SVGID_34_" gradientUnits="userSpaceOnUse" x1="-1740.0096" y1="33.2265" x2="-1739.9292" y2="33.347" gradientTransform="matrix(39.3369 0 0 7.8007 68477.2969 -252.0021)">
			<stop  offset="0" style="stop-color:#E5EDFF"/>
			<stop  offset="1" style="stop-color:#6B9AD9"/>
		</linearGradient>
		<rect x="0" y="0" class="st58" width="39.3" height="7.8"/>
	</g>
</g>
<g class="st59">
	
		<image style="overflow:visible;opacity:0.12;enable-background:new    ;" width="148" height="150" xlink:href="3934E7FF1DC1A15B.png"  transform="matrix(1 0 0 1 32 53)">
	</image>
	<g>
		
			<image style="overflow:visible;enable-background:new    ;" width="1489" height="1652" xlink:href="3934E7FF1DC1A15D.png"  transform="matrix(0.1218 0 0 0.1218 -5.981116e-02 19.3813)">
		</image>
	</g>
</g>
<image style="overflow:visible;enable-background:new    ;" width="552" height="361" xlink:href="3934E7FF1DC1A15F.png"  transform="matrix(0.1344 0 0 0.1344 224.0024 275.0202)">
</image>
<g transform="translate(9.233681, 231.666142)">
	<g id="Path-24" transform="translate(37.631270, 0.000000)">
		
			<linearGradient id="Path-58_1_" gradientUnits="userSpaceOnUse" x1="-955.9549" y1="187.9899" x2="-955.2591" y2="187.8622" gradientTransform="matrix(26.427 0 0 10.7501 25413.6953 -1853.8708)">
			<stop  offset="0" style="stop-color:#404683"/>
			<stop  offset="1" style="stop-color:#373A5B"/>
		</linearGradient>
		<path id="Path-58" class="st60" d="M148.2,169.5c2.7,5,22.6,1.9,23.6-3.3s-4.3-6.9-22-4.2C149.7,162,147,167.3,148.2,169.5z"/>
	</g>
	<g id="Path-23-Copy-2">
		
			<linearGradient id="Path-59_1_" gradientUnits="userSpaceOnUse" x1="-877.2959" y1="193.9376" x2="-876.5042" y2="193.8213" gradientTransform="matrix(23.5436 0 0 8.5713 20807.2246 -1495.802)">
			<stop  offset="0" style="stop-color:#404683"/>
			<stop  offset="1" style="stop-color:#373A5B"/>
		</linearGradient>
		<path id="Path-59" class="st61" d="M150.7,169.1c5.1,4.2,16.8,2.2,21.9-0.8c5.1-3-1.7-6.2-20.5-7.2
			C152.1,161.1,149.1,167.8,150.7,169.1z"/>
	</g>
</g>
<g transform="translate(14.270235, 101.563780)">
	<g id="Path-14">
		
			<linearGradient id="SVGID_35_" gradientUnits="userSpaceOnUse" x1="-904.3753" y1="165.9332" x2="-904.421" y2="166.6084" gradientTransform="matrix(52.4284 0 0 130.4985 47591.0547 -21489.2324)">
			<stop  offset="0" style="stop-color:#3485F7"/>
			<stop  offset="1" style="stop-color:#1A57CF"/>
		</linearGradient>
		<path class="st62" d="M156.6,164.5c-7.7,14.9-2.6,40.9-3.1,66.7c-0.4,21.4-5.4,46.5-5.8,51.5c-0.2,2.8-1.9,11.6,1.4,11.9
			s9.6,0.4,11.5,0.4s3.1-10.9,3.6-13.4c0.6-3.8,3.3-21.7,6.5-41.3c1.3-7.9,3.4-20.6,6.4-38.1c4.3,46.6,6,74.5,5,83.8
			c-0.3,2.7-1.2,8.6,0.3,8.6s11.7,0.4,12.8,0.4c1.1,0,0.8-6.5,1.9-13.4c0.4-2.7,2.5-17.9,2.5-42.9c0-15,0-32.6-2.5-55.4
			c-0.4-3.6-1.3-8.8-2.6-15.4L156.6,164.5z"/>
	</g>
	<path id="Path-4" class="st63" d="M176.3,202.5c-4.4,0.9-7.5,2.8-9.3,5.8c-2.7,4.5,0.9,15.7-3.5,18.1c-4.4,2.4,3.8,24.9,2.8,30.1
		c-0.7,3.5,0.1,5.6,2.4,6.3L176.3,202.5z"/>
</g>
<g id="Shirt" transform="translate(5.875979, 34.414173)">
	<g id="Path">
		
			<linearGradient id="SVGID_36_" gradientUnits="userSpaceOnUse" x1="-892.7021" y1="166.961" x2="-892.501" y2="167.9543" gradientTransform="matrix(81.265 0 0 89.9631 72731.0078 -14841.9238)">
			<stop  offset="0" style="stop-color:#84F0A8"/>
			<stop  offset="1" style="stop-color:#48B676"/>
		</linearGradient>
		<path class="st64" d="M189.6,170.9c-10.9-3,1.6-0.5-11.4,0.7c-5.3,0.5-10,2.3-14.2,5.3c-10.2,8.5-18,24-16.9,32.6
			c0.7,5.7,7.3,7.9,19.5,6.4c0,6.3-8.9,20.3-8.9,37c0.5,0.1,25.3,4,43.7-3.6c0.8-0.3,1-5.2,0.8-14.6c1.4,10.8,2.8,16.2,4.1,16.2
			c0.6,0-1.5-11.6-2.3-17.7c-0.4-2.6-1.5-10.2-1.5-20.7c0-4.1,1.3-11.3,3.8-21.7c10.1-7.8,16.9-13.8,20.3-17.9
			c3.4-4.1,1.1-7-6.8-8.8C207,170.6,196.9,172.9,189.6,170.9z"/>
	</g>
	<g id="Group-3" class="st65">
		<g transform="translate(-5.432509, 8.450607)">
			<ellipse id="Oval" class="st66" cx="164.4" cy="174" rx="2.3" ry="2.3"/>
			<ellipse id="Oval-Copy-5" class="st66" cx="180" cy="174" rx="2.3" ry="2.3"/>
			<ellipse id="Oval-Copy-6" class="st66" cx="195.5" cy="174" rx="2.3" ry="2.3"/>
			<ellipse id="Oval-Copy-7" class="st66" cx="211" cy="174" rx="2.3" ry="2.3"/>
			<ellipse id="Oval-Copy-52" class="st66" cx="172.2" cy="166.3" rx="2.3" ry="2.3"/>
			<ellipse id="Oval-Copy-51" class="st66" cx="187.7" cy="166.3" rx="2.3" ry="2.3"/>
			<ellipse id="Oval-Copy-50" class="st66" cx="203.3" cy="166.3" rx="2.3" ry="2.3"/>
			<ellipse id="Oval-Copy-49" class="st66" cx="218.8" cy="166.3" rx="2.3" ry="2.3"/>
			<ellipse id="Oval-Copy-8" class="st66" cx="226.5" cy="174" rx="2.3" ry="2.3"/>
			<ellipse id="Oval-Copy-13" class="st66" cx="156.7" cy="181.7" rx="2.3" ry="2.3"/>
			<ellipse id="Oval-Copy-12" class="st66" cx="172.2" cy="181.7" rx="2.3" ry="2.3"/>
			<ellipse id="Oval-Copy-11" class="st66" cx="187.7" cy="181.7" rx="2.3" ry="2.3"/>
			<ellipse id="Oval-Copy-10" class="st66" cx="203.3" cy="181.7" rx="2.3" ry="2.3"/>
			<ellipse id="Oval-Copy-9" class="st66" cx="218.8" cy="181.7" rx="2.3" ry="2.3"/>
			<ellipse id="Oval-Copy-18" class="st66" cx="148.9" cy="189.4" rx="2.3" ry="2.3"/>
			<ellipse id="Oval-Copy-17" class="st66" cx="164.4" cy="189.4" rx="2.3" ry="2.3"/>
			<ellipse id="Oval-Copy-16" class="st66" cx="180" cy="189.4" rx="2.3" ry="2.3"/>
			<ellipse id="Oval-Copy-15" class="st66" cx="195.5" cy="189.4" rx="2.3" ry="2.3"/>
			<ellipse id="Oval-Copy-14" class="st66" cx="211" cy="189.4" rx="2.3" ry="2.3"/>
			<ellipse id="Oval-Copy-23" class="st66" cx="156.7" cy="197" rx="2.3" ry="2.3"/>
			<ellipse id="Oval-Copy-22" class="st66" cx="172.2" cy="197" rx="2.3" ry="2.3"/>
			<ellipse id="Oval-Copy-21" class="st66" cx="187.7" cy="197" rx="2.3" ry="2.3"/>
			<ellipse id="Oval-Copy-20" class="st66" cx="203.3" cy="197" rx="2.3" ry="2.3"/>
			<ellipse id="Oval-Copy-19" class="st66" cx="218.8" cy="197" rx="2.3" ry="2.3"/>
			<ellipse id="Oval-Copy-28" class="st66" cx="148.9" cy="204.7" rx="2.3" ry="2.3"/>
			<ellipse id="Oval-Copy-27" class="st66" cx="164.4" cy="204.7" rx="2.3" ry="2.3"/>
			<ellipse id="Oval-Copy-26" class="st66" cx="180" cy="204.7" rx="2.3" ry="2.3"/>
			<ellipse id="Oval-Copy-25" class="st66" cx="195.5" cy="204.7" rx="2.3" ry="2.3"/>
			<ellipse id="Oval-Copy-24" class="st66" cx="211" cy="204.7" rx="2.3" ry="2.3"/>
			<ellipse id="Oval-Copy-33" class="st66" cx="156.7" cy="212.4" rx="2.3" ry="2.3"/>
			<ellipse id="Oval-Copy-32" class="st66" cx="172.2" cy="212.4" rx="2.3" ry="2.3"/>
			<ellipse id="Oval-Copy-31" class="st66" cx="187.7" cy="212.4" rx="2.3" ry="2.3"/>
			<ellipse id="Oval-Copy-30" class="st66" cx="203.3" cy="212.4" rx="2.3" ry="2.3"/>
			<ellipse id="Oval-Copy-29" class="st66" cx="218.8" cy="212.4" rx="2.3" ry="2.3"/>
			<ellipse id="Oval-Copy-38" class="st66" cx="148.9" cy="220.1" rx="2.3" ry="2.3"/>
			<ellipse id="Oval-Copy-37" class="st66" cx="164.4" cy="220.1" rx="2.3" ry="2.3"/>
			<ellipse id="Oval-Copy-36" class="st66" cx="180" cy="220.1" rx="2.3" ry="2.3"/>
			<ellipse id="Oval-Copy-35" class="st66" cx="195.5" cy="220.1" rx="2.3" ry="2.3"/>
			<ellipse id="Oval-Copy-34" class="st66" cx="211" cy="220.1" rx="2.3" ry="2.3"/>
			<ellipse id="Oval-Copy-43" class="st66" cx="156.7" cy="227.8" rx="2.3" ry="2.3"/>
			<ellipse id="Oval-Copy-42" class="st66" cx="172.2" cy="227.8" rx="2.3" ry="2.3"/>
			<ellipse id="Oval-Copy-41" class="st66" cx="187.7" cy="227.8" rx="2.3" ry="2.3"/>
			<ellipse id="Oval-Copy-40" class="st66" cx="203.3" cy="227.8" rx="2.3" ry="2.3"/>
			<ellipse id="Oval-Copy-39" class="st66" cx="218.8" cy="227.8" rx="2.3" ry="2.3"/>
			<ellipse id="Oval-Copy-48" class="st66" cx="148.9" cy="235.4" rx="2.3" ry="2.3"/>
			<ellipse id="Oval-Copy-47" class="st66" cx="164.4" cy="235.4" rx="2.3" ry="2.3"/>
			<ellipse id="Oval-Copy-46" class="st66" cx="180" cy="235.4" rx="2.3" ry="2.3"/>
			<ellipse id="Oval-Copy-45" class="st66" cx="195.5" cy="235.4" rx="2.3" ry="2.3"/>
		</g>
	</g>
	<ellipse id="Oval-Copy-44" class="st67" cx="205.6" cy="243.9" rx="2.3" ry="2.3"/>
	<path id="Path-55" class="st68" d="M214.6,169.1c-3.1-3.1,1.6-5.3,4-4.4c2.4,0.9,7.8,6.6,6.7,11.4c-1.1,4.8-5.3,6.5-6.2,5.5
		C217,179.2,217.8,172.2,214.6,169.1z"/>
</g>
<g id="Hand" transform="translate(77.227154, 0.000000)">
	
		<linearGradient id="SVGID_37_" gradientUnits="userSpaceOnUse" x1="-1018.9302" y1="170.6348" x2="-1018.6142" y2="169.7644" gradientTransform="matrix(28.7937 0 0 45.3868 29493.0117 -7530.6685)">
		<stop  offset="0" style="stop-color:#FF9292"/>
		<stop  offset="1" style="stop-color:#FFB59D"/>
	</linearGradient>
	<path class="st69" d="M153.1,210.2c-0.6-5.7-2.7-9.4-6.4-10.9l16.1-21.3c0.9-3.7,1.6-6,2.2-6.9c0.4-0.7,3.4-2.4,5-3.1
		c0.6-0.3,4.3-3.1,4.9-3.2c1-0.1,0.5,1.8-1.7,3.7c-2.4,2,1.8,4.7,0.5,8.3c-0.7,1.9-1.8,3.1-3.3,3.6
		C160.8,198.7,154.9,208.4,153.1,210.2z"/>
</g>
<g transform="translate(36.095300, 15.108661)">
	<g id="Path-8" transform="translate(4.592152, 0.000000)">
		
			<linearGradient id="SVGID_38_" gradientUnits="userSpaceOnUse" x1="-930.2863" y1="172.9567" x2="-930.0393" y2="172.0863" gradientTransform="matrix(18.0196 0 0 32.1183 16917.0742 -5354.9526)">
			<stop  offset="0" style="stop-color:#FF9292"/>
			<stop  offset="1" style="stop-color:#FFB59D"/>
		</linearGradient>
		<path class="st70" d="M160.4,164.5c1.8,2.3,3,4.6,3.6,7c1.8,7.9,1.2,15.3-2.2,16.1c-1.2,0.3-2.5,0.3-3.7,0l-0.2,3.8
			c0.3,3.5,0,5.2-0.9,5.2c-1.3,0-7.6-1.5-10-6.5C148.6,189.8,158.8,172.8,160.4,164.5z"/>
	</g>
</g>
<g transform="translate(0.000000, 8.393701)">
	
		<linearGradient id="SVGID_39_" gradientUnits="userSpaceOnUse" x1="-876.6541" y1="168.4114" x2="-877.0914" y2="166.8466" gradientTransform="matrix(56.146 0 0 76.0583 49405.3086 -12561.3125)">
		<stop  offset="0" style="stop-color:#032258"/>
		<stop  offset="1" style="stop-color:#133E94"/>
	</linearGradient>
	<path class="st71" d="M202.9,182.5c-0.5-0.9-1.5-1.5-2.7-1.5c-1.7,0-3.1,1.4-3.1,3.1c0,1.7,1.4,3.1,3.1,3.1c0.9,0,1.6-0.3,2.2-0.9
		c-0.6,3.7-1.6,7.7-2.5,11.7c-3.8,15.4-13,44.5-32.3,42.2s-24.8-14.5-17.8-28.2s20.9-14,22.6-25.6c1.7-11.6,5.7-25.1,20-21.7
		C201.8,167,203.7,173.8,202.9,182.5L202.9,182.5z"/>
</g>
<g class="st59">
	
		<image style="overflow:visible;opacity:0.12;enable-background:new    ;" width="211" height="196" xlink:href="3934E7FF1DC1A15C.png"  transform="matrix(1 0 0 1 383 193)">
	</image>
	<g>
		
			<image style="overflow:visible;enable-background:new    ;" width="1095" height="1012" xlink:href="3934E7FF1DC1A154.png"  transform="matrix(0.1807 0 0 0.1807 385.735 197.6257)">
		</image>
	</g>
</g>
</svg>
