<svg xmlns="http://www.w3.org/2000/svg" width="205" height="523" xmlns:v="https://vecta.io/nano"><style><![CDATA[.B{fill:#ed8876}.C{fill-rule:nonzero}.D{fill:#2c000d}.E{fill:#090c1a}.F{stroke-width:.949}]]></style><defs><linearGradient id="A" x1="115.712%" x2="55.974%" y1="-16.614%" y2="56.387%"><stop offset="0%" stop-color="#cfddf3"/><stop offset="100%" stop-color="#a1b8e3"/></linearGradient><linearGradient id="B" x1="58.513%" x2="-25.487%" y1="22.233%" y2="297.233%"><stop offset="0%" stop-color="#f7faff"/><stop offset="100%" stop-color="#6b9ad9"/></linearGradient><linearGradient id="C" x1="58.215%" x2="-25.511%" y1="22.423%" y2="297.105%"><stop offset="0%" stop-color="#f7faff"/><stop offset="100%" stop-color="#6b9ad9"/></linearGradient><linearGradient id="D" x1="58.946%" x2="-25.054%" y1="22.046%" y2="297.046%"><stop offset="0%" stop-color="#f7faff"/><stop offset="100%" stop-color="#6b9ad9"/></linearGradient><linearGradient id="E" x1="50.498%" x2="49.73%" y1="77.543%" y2="-2.014%"><stop offset="0%" stop-color="#cfddf3"/><stop offset="36%" stop-color="#ccdbf2"/><stop offset="100%" stop-color="#a1b8e3"/></linearGradient><linearGradient id="F" x1="61.085%" x2="19.054%" y1="117.164%" y2="-168.856%"><stop offset="0%" stop-color="#cfddf3"/><stop offset="6%" stop-color="#ccdbf2"/><stop offset="18%" stop-color="#cfddf3"/><stop offset="100%" stop-color="#a1b8e3"/></linearGradient><linearGradient id="G" x1="90.209%" x2="-20.769%" y1="102.847%" y2="-21.314%"><stop offset="0%" stop-color="#cfddf3"/><stop offset="36%" stop-color="#ccdbf2"/><stop offset="100%" stop-color="#a1b8e3"/></linearGradient><linearGradient id="H" x1="50.062%" x2="50.062%" y1="110.895%" y2="0%"><stop offset="0%" stop-color="#ffe579"/><stop offset="100%" stop-color="#feb755"/></linearGradient><linearGradient id="I" x1="50%" x2="50%" y1="110.87%" y2="0%"><stop offset="0%" stop-color="#ffe579"/><stop offset="100%" stop-color="#feb755"/></linearGradient><linearGradient id="J" x1="3.865%" x2="43.618%" y1="94.698%" y2="38.299%"><stop offset="0%" stop-color="#3bacf8"/><stop offset="42%" stop-color="#3ba8f7"/><stop offset="100%" stop-color="#3e5bea"/></linearGradient><linearGradient id="K" x1="48%" x2="50%" y1="50%" y2="48%"><stop offset="0%" stop-color="#3bacf8"/><stop offset="42%" stop-color="#3ba8f7"/><stop offset="100%" stop-color="#3e5bea"/></linearGradient><linearGradient id="L" x1="9.251%" x2="65.688%" y1="-87.193%" y2="77.922%"><stop offset="0%" stop-color="#3bacf8"/><stop offset="42%" stop-color="#3ba8f7"/><stop offset="100%" stop-color="#3e5bea"/></linearGradient><linearGradient id="M" x1="-13.294%" x2="53.783%" y1="198.325%" y2="20.776%"><stop offset="0%" stop-color="#3bacf8"/><stop offset="42%" stop-color="#3ba8f7"/><stop offset="100%" stop-color="#3e5bea"/></linearGradient><linearGradient id="N" x1="83.843%" x2="-25.219%" y1="6.222%" y2="115.144%"><stop offset="0%" stop-color="#cfddf3"/><stop offset="100%" stop-color="#a1b8e3"/></linearGradient><linearGradient id="O" x1="92.116%" x2="-17.087%" y1="-.275%" y2="134.972%"><stop offset="0%" stop-color="#cfddf3"/><stop offset="100%" stop-color="#a1b8e3"/></linearGradient><linearGradient id="P" x1="54.395%" x2="46.945%" y1="-2.667%" y2="84.756%"><stop offset="0%" stop-color="#3bacf8"/><stop offset="42%" stop-color="#3ba8f7"/><stop offset="100%" stop-color="#3e5bea"/></linearGradient><linearGradient id="Q" x1="46.214%" x2="50.282%" y1="-.881%" y2="91.627%"><stop offset="0%" stop-color="#3bacf8"/><stop offset="42%" stop-color="#3ba8f7"/><stop offset="100%" stop-color="#3e5bea"/></linearGradient><linearGradient id="R" x1="103.336%" x2="6.132%" y1="32.743%" y2="89.907%"><stop offset="0%" stop-color="#ff9d61"/><stop offset="100%" stop-color="#ffd873"/></linearGradient><linearGradient id="S" x1="62.706%" x2="39.604%" y1="57.551%" y2="48.706%"><stop offset="0%" stop-color="#ff9d61"/><stop offset="100%" stop-color="#ffd873"/></linearGradient><linearGradient id="T" x1="53.55%" x2="-15.837%" y1="48.523%" y2="-5.764%"><stop offset="0%" stop-color="#ff9d61"/><stop offset="100%" stop-color="#ffd873"/></linearGradient><linearGradient id="U" x1="69.445%" x2="32.266%" y1="33.093%" y2="53.456%"><stop offset="0%" stop-color="#ff9d61"/><stop offset="100%" stop-color="#ffd873"/></linearGradient><linearGradient id="V" x1="51.622%" x2="48.869%" y1="109.023%" y2="8.644%"><stop offset="0%" stop-color="#84f0a8"/><stop offset="100%" stop-color="#33a25d"/></linearGradient><radialGradient id="W" cx="56.406%" cy="50.688%" r="95.462%" fx="56.406%" fy="50.688%" gradientTransform="scale(1 .67384) rotate(-30.158 1.02 .63)"><stop offset="0%" stop-color="#eaf2ff"/><stop offset="37%" stop-color="#d3e3fb"/><stop offset="100%" stop-color="#acc5e9"/></radialGradient></defs><g fill="none" fill-rule="evenodd"><g class="C"><path fill="#f1f4f8" d="M.313 0h203.05v521.774H.313z"/><path fill="url(#A)" d="M258.084 552.453h-474.42v-344.45c18.956-2.005 38.056 1.936 54.814 11.31 39.434 21.96 75.082-21.724 77.558-91.517C-81.818 67.272-5.807 35.14 38.55 88.358c61.18 73.42 66.466-.235 66.466-.235l9.963-7.542c46.9 125.363-170.278 65.712-18.38 180.463 54.682 41.33 64.407 73.382 62.282 120.9-2.847 62.83 53.713 87.868 99.2 97.843v72.666z" opacity=".15"/><path fill="url(#W)" d="M87.293 223.423c.55 1.36 1.185 2.684 1.898 3.966l-1.803.778a36.86 36.86 0 0 1-1.993-4.156l1.898-.588zm4.298 8.54l2.353 3.652-1.356 1.09-2.44-3.795 1.442-.95zm4.744 6.64l3.32 3.32-1.3 1.423c-1.196-1.08-2.353-2.24-3.454-3.453l1.423-1.3zm7.23 6.642a38.96 38.96 0 0 0 3.682 2.296l-.892 1.5a39.32 39.32 0 0 1-3.852-2.401l1.063-1.395zm8.15 4.744c1.325.51 2.686.92 4.07 1.234l-.417 1.613c-1.47-.338-2.916-.776-4.327-1.3l.674-1.537zm8.938 1.955l1.708.057 2.752-.114.16 1.774-2.913.123c-.617 0-1.224 0-1.83-.066l.123-1.774zm9.365-1.148c1.385-.44 2.718-1.03 3.976-1.756l.768 1.898a20.87 20.87 0 0 1-4.288 1.898l-.456-2.04zm7.6-3.33a27.76 27.76 0 0 0 3.379-3.17l1.366 1.366c-1.1 1.22-2.315 2.35-3.606 3.378l-1.138-1.575zm7.345-6.016l-1.68-1.1.95-1.054 2.144-2.58 1.69 1.062-1.47 1.784-1.66 1.898h.028zm4.962-8.986a8.12 8.12 0 0 1 .636-.636l2.94-2.694 1.167 1.527-2.903 2.657-.53.54-1.3-1.394zm7.59-5.693l3.795-2.42.95 1.443-3.673 2.353-1.072-1.376zm7.6-5.105l4.08-2.06.665 1.803-3.938 1.993-.806-1.737zm9.49-3.73l4.317-1.176.427 1.698-4.213 1.148-.53-1.67zm8.9-.227l-.35-1.898 1.68-.36 2.752-.55.313 1.944-1.85.37-2.543.513v-.02zm9.138-3.69c1.34-.514 2.614-1.186 3.795-2.002l.95 1.603c-1.294.894-2.7 1.63-4.157 2.192l-.588-1.793zm8.966-46.598l-3.273-3.378 1.357-1.366 3.387 3.492-1.47 1.252zm-6.366-6.642l-3.55-3.13 1.12-1.614 3.624 3.198-1.195 1.546zm-7.44-5.693l-3.7-2.38 1.006-1.414 3.74 2.4-1.044 1.385zm-6.546-7.173l-.95 1.48-2.192-1.347-1.603-.977.95-1.5 1.594.95 2.2 1.385zm-9.488-3.264l-3.796-2.286.95-1.5 3.795 2.288-.948 1.508zm-6.642-6.224l-.95 1.48-1.593-.95-2.202-1.366.95-1.46 1.432.892 2.363 1.404zm-8.616-3.264l-3.72-3.055 1.082-1.7 3.663 3.008-1.025 1.737zm-7.78-6.642l-3.53-3.35 1.328-1.394 3.416 3.235-1.214 1.51zm-6.794-6.642c-.507-.677-.98-1.38-1.414-2.106l-1.015-1.708 1.48-.95.997 1.68a24.07 24.07 0 0 0 1.318 1.964l-1.366 1.12zm-3.378-9.365l-1.632.845-.863-1.528-1.3-2.42 1.66-.797 2.135 3.9zm-4.744-8.473l-1.698.778-1.433-2.704-.664-1.224 1.68-.816.673 1.233 1.442 2.733zm-6.205-6.813l-2.334-3.653 1.366-1.1 2.43 3.795-1.46.948zm-4.67-7.6l-3.36-3.283 1.253-1.462c1.22 1.08 2.387 2.22 3.492 3.416l-1.386 1.33zm-7.334-6.642l-3.615-2.344 1.034-1.47 3.7 2.38-1.13 1.433z"/><rect width="35.866" height="35.866" x="119.553" y="21.32" fill="url(#B)" rx="2.818"/><rect width="46.503" height="46.503" x="108.253" y="107.655" fill="url(#C)" rx="3.653"/></g><path d="M127.733 136.86l-4.203-7.03 8.34-13.54h8.416zm4.317 7.06l-4.317-7.06h15.504l4.137 7.06zm-11.88-8.046l5.048 8.046H115.2l4.905-8.046z" fill="#ed3d48"/><rect width="48.609" height="48.609" x="31.312" y="199.702" fill="url(#D)" rx="3.824" class="C"/><g opacity=".403"><path fill="url(#E)" d="M203.364 300.547v199.36a538.02 538.02 0 0 1-49.908-133.103c-19.195-83.602-12.184-149.176 11.736-146.073 15.92 2.116 28.9 38.446 38.17 79.816z"/><path fill="url(#F)" d="M203.364 468.083v53.647h-22.278c-14.328-20.75-31.312-46.407-45.962-71.665-29.51-50.735-49.88-99.828-21.425-104.078 14.233-2.126 27.592 6.414 39.757 20.78 20.93 24.716 38.2 66.72 49.908 101.316z"/><path stroke="#fff" d="M128.54 370.685c18.9 35.6 60.28 120.01 74.825 149.717m-36.14-270.04c.636 22.924 1.3 74.256 36.14 202.282" class="F"/><path fill="url(#G)" d="M192.367 521.73h-47.973c-27.382-17.82-58.296-42.86-55.98-64.36 2.106-19.66 22.914-21.823 46.72-7.305 20.078 12.22 42.3 36.293 57.234 71.665z"/><path stroke="#fff" d="M106.175 458.87c18.227 9.1 51.835 43.438 70.043 62.86" class="F"/></g><g class="C"><path fill="url(#H)" d="M7.97 95.414l-.2.313-7.467 12.63V89.37z"/><path fill="url(#I)" d="M17.667 100.842L.313 141.357V109.02l-.256-.228.256-.436v-16.49l7.467 3.86z"/><path fill="url(#J)" d="M35.107 43.837l1.177.635-.238-.085c-1.423-.503-6.385-2.116-6.642-1.414l-7.372 23.94a1.65 1.65 0 0 1-2.363.948l-.16-.095L.312 55.896V25.078l34.794 18.76z"/><path fill="url(#K)" d="M36.397 44.5h-.094z"/><path fill="url(#L)" d="M41.455 108.225L34.47 93.49l-8.85-18.597L51.4 58.135l1.897 3.483c.598 1.095.987 2.292 1.148 3.53l.105 1.774 1.072 20.276 12.695-13.834c.33-.36.888-.4 1.253-.066l6.765 6.053a.95.95 0 0 1 .161 1.3l-18.883 28.845c-1.805 2.88-5.062 4.517-8.45 4.25a9.13 9.13 0 0 1-7.68-5.521h-.028z"/><path fill="url(#M)" d="M54.606 66.95v.37c-.185 2.226-1.083 4.333-2.562 6.006L14.84 115.948a4.31 4.31 0 0 1-4.204 1.357 4.2 4.2 0 0 1-1.688-.807l-.17-.142-8.435-7.353-.257-.228.257-.437V58.335l1.64-1.405 19.26-16.794c3.83-.124 7.634.65 11.11 2.258a23.19 23.19 0 0 1 1.993 1.044l.73.427.95.54 5.75 3.34 7.6 6.643 2.06 3.795 1.898 3.482c.597 1.096.987 2.292 1.148 3.53a9.3 9.3 0 0 1 .133 1.755z"/><path fill="url(#N)" d="M90.073 60.84l-2.344 3.795-.332.53-2.334 3.796L100.13 91.44c.194.298.526.478.882.478s.688-.18.883-.478l15.76-25.553c.19-.302.214-.682.06-1.006s-.463-.545-.82-.588L90.074 60.84z"/><path fill="url(#O)" d="M84.532 63.942c-1.53 1.746-4.08 2.17-6.1 1a4.87 4.87 0 0 1-2.182-5.776c.742-2.2 2.935-3.567 5.237-3.27s4.073 2.18 4.23 4.496c.1 1.292-.34 2.566-1.195 3.54z"/><path d="M70.1 73.763l7.467-5.41 2.44 4.432-1.936 4.734-1.755 1.822z" class="B"/><path fill="#9fbce3" d="M78.61 65.3l-4.924 6.822c-.55.76-.4 1.82.36 2.38l.816.617a1.72 1.72 0 0 0 1.283.33c.455-.065.864-.3 1.137-.68l5.17-7.022c.314-.428.413-.976.268-1.486a1.72 1.72 0 0 0-1.008-1.124L80.65 64.7a1.71 1.71 0 0 0-2.04.589z"/><path d="M76.315 79.342l4.65-2.913 4.108-5.427a1.53 1.53 0 0 0-.408-2.22l-4.82-3.008a1.76 1.76 0 0 0-1.898 0l-3.093 2.002c-.656.42-1.083 1.118-1.16 1.893a2.55 2.55 0 0 0 .77 2.082l2.25 2.183-.4 5.408z" class="B"/><path fill="#7faae3" d="M78.1 64.784l5.135-8.315 7.274 4.492-5.135 8.315z"/><path d="M67.092 42.5c3.7-3.947 6.168-2.562 7.657-5.096 3.16-5.39 1.386-6.205 1.386-6.205s5.03-4.535-6.557-9.1-17.686-3.008-22.6 6.357S59.473 50.63 67.092 42.5z" class="D"/><g class="B"><path d="M74.322 32.745a43.04 43.04 0 0 0-5.323 11.196c-1.66 5.627-8.32 9.175-11.386 7.752-4.146-1.898-8.587-7.743-7.106-13.7 0 0-2.23-1.5-.456-5.18 1.12-2.335 3.7-2.078 4.156.55 0 0 4.507-6.025 7.505-3.795 7.363 5.427 11.348 3.5 12.6 3.188z"/><path d="M50.535 37.982l-8.74 9.735 7.657 6.993 8.436-8.966z"/></g><path d="M54.236 33.352s2.6-3.17 5.968-1.85 10.845 4.013 14.118 1.243-8.093-9.12-14.384-7.26a7.59 7.59 0 0 0-5.693 7.866h-.01z" class="D"/><path d="M41.75 47.698s-1.053 5.95 2.846 8.445c2.676 1.717 4.82-1.433 4.82-1.433l-7.665-7.012z" class="B"/><path d="M112.798 297.413l3.7 2.647-1.356 2.183a.83.83 0 0 1-.56.37.78.78 0 0 1-.645-.143l-8.132-5.826c.37-.484 1.038-.63 1.575-.34 1.092.398 4.213 1.3 5.428 1.1z" class="E"/><path fill="url(#P)" d="M158.285 214.172l15.827 1.68-5.56 27.317-21.255 21.975-30.837 34.89-3.7-2.647 17.373-34.225s.71-1.623 2.75-5.2l.152-.255 25.24-43.523z"/><path d="M190.716 302.1l3.435-2.96 1.822 1.85a.86.86 0 0 1 .235.63.85.85 0 0 1-.292.604l-7.6 6.5c-.4-.464-.4-1.15 0-1.614.644-.958 2.257-3.776 2.4-5.02z" class="E"/><path fill="url(#Q)" d="M176.76 270.295l-2.6-54.454-1.594.124-2.486.2-7.705 5.636-2.847 2.097-.53.398-4.47 16.662 5.408 28.522c.525 2.795 1.843 5.38 3.796 7.448l26.975 25.154 3.435-2.96-17.392-28.817z"/><path d="M190.175 241.384s2.724 6.025 7.05 5.855l.95-.114a1.68 1.68 0 0 0 1.394-1.52c.063-.766-.402-1.476-1.13-1.725a6.71 6.71 0 0 1-3.842-3.587l-4.422 1.09zm-66.826-34.68l-3.69-2.116c-.4-.322-1.158.59-1.158.59-.607.13-1.197.334-1.755.607-.114.2 1.09 5.076 1.51 5.067l4.1.057 1.005-4.204z" class="B"/><path fill="url(#R)" d="M190.175 241.384l4.47-1.044-1.082-21.32-4.63-19.764a12.14 12.14 0 0 0-7.164-8.426l-3.644-1.5-7.334-1.205a13.17 13.17 0 0 0-11.851 4.061l-12.022 13-23.57 1.518-1.005 4.204 30.363 5-2.562 7.42c-.377.712-.408 1.558-.085 2.297s.966 1.3 1.745 1.498l24.082 6.357c.908.24 1.876.06 2.636-.49a3.13 3.13 0 0 0 1.283-2.356l2.552-12.287 1.708 2.96 6.1 20.068z"/><path d="M174.956 172.622c-.636-1.955-2.514-9.11 6.405-7.268 10.78 2.22 10.978 13.018 1.973 15.675-4.1 1.224-7.325-5.18-8.378-8.407z" class="D"/><g class="B"><path d="M174.415 168.105a25.17 25.17 0 0 1-3.539 6.576c-2.144 2.846-1.442 7.353.37 8.35 2.486 1.32 6.974 1.5 9.356-1.338 0 0 1.556.58 2.713-1.604.74-1.376-.34-2.562-1.82-1.897 0 0 1.3-4.356-.892-5.048-5.352-1.66-5.864-4.25-6.187-5.04z"/><path d="M180.61 181.702l-2.543 7.714-4.677-1.774 1.48-5.608z"/></g><g class="D"><path d="M181.522 178.258s.598-2.4-1.3-3.606-5.97-3.947-5.817-6.528 7.468.75 8.88 4.536c.864 2.048.112 4.42-1.774 5.598z"/><path d="M181.522 178.258l-1.243 1.13c-.24-.154-.406-.397-.465-.675a1.04 1.04 0 0 1 .17-.797c.513-1.005.78-2.61-.065-3.444-1.272-1.252 3.795 1.09 1.992 2.135m-6.376-14.498s-4.65 4.848 1.68 10.333l2.428-7.354s-3.444-.21-4.108-2.98z"/></g><path d="M173.58 186.997s-1.32 2.57.864 3.5 3.425-.246 3.68-1.157l-4.545-2.353z" class="B"/><g transform="rotate(21 -618.738 170.967)"><path fill="url(#S)" d="M3.795 9.08l6.993 5.077c2.595 1.628 5.707 2.224 8.72 1.67 2.163-1.47 7.828-5.485 10.162-7.544-1.376-.246-2.6-.246-4.42-.683C18.683 6.054 16.367.816 15.495.484c-.58-.32-1.236-.476-1.898-.456-.7-.075-3.957 2.942-9.802 9.052z"/><path fill="url(#T)" d="M3.198 11.737C.54 9.207.01 7.423 1.604 6.386A356.34 356.34 0 0 1 11.092.693a4.07 4.07 0 0 1 4.384-.086c-1.746-.664-2.872-.386-3.378.835s.193 2.464 2.097 3.73L3.198 11.736z"/></g></g><path fill="url(#U)" d="M181 65.324c-3.353 1.018-5.453 4.796-6.37 8.676-3.164-2.406-6.13-5.075-8.863-7.98-.13-.138-.315-.656-.418-.827-.642-.874-.205-1.754-.173-2.22.835-2.272 1.245-4.308 3.075-6.134.66-.7 1.4-1.318 2.203-1.84 1.7.663 3.09 3.592 10.547 10.324z"/><path fill="#ff9600" d="M168.245 63.46c-.602.04-1.13.4-1.37.937A1.51 1.51 0 0 0 167.12 66a3.41 3.41 0 0 1-1.111-2.758c.046-.76.226-4.3 5.99-8.242-4.707 3.5-5.998 6.275-3.755 8.46z"/><g class="C"><path fill="#fff" d="M64.682 214.883a.79.79 0 0 1 .788.788v12.657a.79.79 0 0 1-.788.788H56.77l-6.32 4.744v-4.744h-3.168a.79.79 0 0 1-.788-.788V215.67a.79.79 0 0 1 .788-.788h17.4zm-6.727 9.49h-8.69a.4.4 0 0 0-.399.398.39.39 0 0 0 .399.389h8.69c.105.003.206-.037.28-.1a.39.39 0 0 0 .117-.279c0-.22-.178-.398-.398-.398zm4.744-3.16H49.264a.39.39 0 0 0-.399.389.4.4 0 0 0 .399.398H62.7a.4.4 0 0 0 .399-.398c0-.105-.043-.205-.118-.28s-.176-.113-.28-.1zm0-3.17H49.264a.4.4 0 0 0-.399.4.4.4 0 0 0 .399.398H62.7a.4.4 0 0 0 .399-.399.4.4 0 0 0-.399-.398zm82.805-174.395a.95.95 0 0 1 .418 1.261c-1.262 2.477-2.95 3.796-5.03 3.796a6.38 6.38 0 0 1-3.102-.797l-.21-.086c-.756-.458-1.62-.706-2.505-.72-1.307-.044-2.576.45-3.5 1.366-.178.18-.42.28-.674.28a.95.95 0 0 1-.674-1.609 6.64 6.64 0 0 1 4.849-1.897 6.37 6.37 0 0 1 3.103.797l.256.123c.756.458 1.62.707 2.505.72 1.262 0 2.362-.863 3.33-2.76a.95.95 0 0 1 1.243-.474zm-7.524-11.12l4.346 4.288-6.927 6.832a.78.78 0 0 1-.598.256h-3.093a.81.81 0 0 1-.622-.228c-.165-.162-.253-.386-.24-.617v-3.102c-.006-.228.087-.446.256-.598l6.88-6.832zm3.795-2.544l3.093 3.056a.79.79 0 0 1 .265.593c0 .226-.096.44-.265.593l-1.366 1.356-4.298-4.24 1.376-1.358a.83.83 0 0 1 .596-.227c.22.007.43.102.58.265l.02-.038zM200.48 216.23l2.884-3.615v15.495l-.095.17-1.1 1.974-1.205 2.154-4.953.332-22.84 1.5.01-4.08 21.377-6.5z"/><path d="M155.847 306.35l3.482 2.505-1.3 2.06c-.118.184-.307.31-.522.35a.75.75 0 0 1-.617-.132l-7.676-5.503c.345-.465.98-.607 1.5-.332 1.044.37 3.956 1.233 5.143 1.053z" class="E"/><path fill="url(#V)" d="M203.27 228.26l-4.346-.474-2.847 4.934-21.036 36.198-1.138 2.03-.16.314-1.405 2.75-16.415 32.327 3.473 2.505 29.1-32.868L198.8 265.34l-.237 9.07c-.065 2.55.464 5.082 1.547 7.392l1.072 2.287.9.133 1.32.152V228.26h-.134zm-1.225 55.982c-.294 0-.597-.076-.9-.133l2.22 5v-4.744l-1.32-.133z"/><path fill="#fff" d="M202.937 209.455l.427-.418v21.12l-1.195.086-3.606.237.36-2.685 1.898-14.1a7.29 7.29 0 0 1 2.116-4.231z"/><path d="M173.19 230.158L169.34 229c-.427-.2-.95.788-.95.788-.523.262-1.016.58-1.47.948-.067.2 2.096 4.44 2.476 4.337s3.795-.835 3.795-.835v-4.1z" class="B"/></g></g></svg>