<svg width="61" height="12" viewBox="0 0 61 12" fill="none" xmlns="http://www.w3.org/2000/svg">
<path d="M18.2939 10.0954H14.0675C14.0212 10.0954 13.9835 10.0611 13.9835 10.0189V3.94516C13.9835 3.90289 14.0212 3.86861 14.0675 3.86861H15.0392C15.0856 3.86861 15.1232 3.90289 15.1232 3.94516V9.11283H18.2939C18.3403 9.11283 18.3779 9.1471 18.3779 9.18938V10.02C18.3779 10.0623 18.3403 10.0965 18.2939 10.0965V10.0954Z" fill="#F2385A"/>
<path d="M23.6599 8.23194C23.6599 9.63154 22.5516 10.2108 21.4232 10.2108C20.2949 10.2108 19.1866 9.63268 19.1866 8.23194V5.77435C19.1866 5.73208 19.2242 5.6978 19.2706 5.6978H20.162C20.2084 5.6978 20.246 5.73208 20.246 5.77435V8.1451C20.246 8.994 20.765 9.30591 21.4245 9.30591C22.084 9.30591 22.603 8.994 22.603 8.1451V5.77435C22.603 5.73208 22.6406 5.6978 22.687 5.6978H23.5784C23.6248 5.6978 23.6624 5.73208 23.6624 5.77435V8.23194H23.6599Z" fill="#F2385A"/>
<path d="M33.0517 7.33162V10.0189C33.0517 10.0611 33.0141 10.0954 32.9677 10.0954H32.0763C32.0299 10.0954 31.9923 10.0611 31.9923 10.0189V7.6481C31.9923 6.90888 31.5748 6.49643 30.8689 6.49643C30.1631 6.49643 29.6202 6.90546 29.6202 7.65724V10.0189C29.6202 10.0611 29.5826 10.0954 29.5362 10.0954H28.6448C28.5984 10.0954 28.5608 10.0611 28.5608 10.0189V7.6481C28.5608 6.90888 28.1433 6.49643 27.4374 6.49643C26.7316 6.49643 26.1887 6.90546 26.1887 7.65724V10.0189C26.1887 10.0611 26.1511 10.0954 26.1047 10.0954H25.2133C25.1669 10.0954 25.1293 10.0611 25.1293 10.0189V5.77435C25.1293 5.73208 25.1669 5.6978 25.2133 5.6978H26.0934C26.1398 5.6978 26.1774 5.73208 26.1774 5.77435V6.23479C26.5648 5.71608 27.1641 5.58355 27.6581 5.58355C28.394 5.58355 28.9933 5.88175 29.3256 6.36847C29.7431 5.74007 30.489 5.58355 31.0883 5.58355C32.2368 5.58355 33.0479 6.30448 33.0479 7.33276L33.0517 7.33162Z" fill="#F2385A"/>
<path d="M35.5215 10.0954H34.6301C34.5838 10.0954 34.5461 10.0611 34.5461 10.0189V5.77435C34.5461 5.73208 34.5838 5.6978 34.6301 5.6978H35.5215C35.5679 5.6978 35.6056 5.73208 35.6056 5.77435V10.02C35.6056 10.0623 35.5679 10.0965 35.5215 10.0965V10.0954Z" fill="#F2385A"/>
<path d="M41.5734 7.33162V10.0189C41.5734 10.0611 41.5357 10.0954 41.4893 10.0954H40.5979C40.5516 10.0954 40.5139 10.0611 40.5139 10.0189V7.6481C40.5139 6.90888 40.0964 6.49643 39.3906 6.49643C38.6847 6.49643 38.1419 6.90546 38.1419 7.65724V10.0189C38.1419 10.0611 38.1043 10.0954 38.0579 10.0954H37.1665C37.1201 10.0954 37.0825 10.0611 37.0825 10.0189V5.77435C37.0825 5.73208 37.1201 5.6978 37.1665 5.6978H38.0466C38.093 5.6978 38.1306 5.73208 38.1306 5.77435V6.23479C38.518 5.71608 39.1173 5.58355 39.6112 5.58355C40.7597 5.58355 41.5708 6.30448 41.5708 7.33276L41.5734 7.33162Z" fill="#F2385A"/>
<path d="M35.1103 3.95316L34.6214 4.71408C34.5888 4.76435 34.6289 4.82833 34.6928 4.82833H35.4965C35.5629 4.82833 35.6244 4.79634 35.6582 4.74379L36.1384 3.99772C36.1747 3.94059 36.1296 3.86861 36.0569 3.86861H35.2708C35.2044 3.86861 35.1429 3.9006 35.1091 3.95316H35.1103Z" fill="#F2385A"/>
<path d="M5.45305 10.0954H5.44929C4.9315 10.0943 4.51651 9.88746 4.28081 9.51271C3.78433 8.72551 4.12534 7.27107 5.23866 5.38475H0.701379C0.568483 5.38475 0.44687 5.32077 0.380422 5.21565C0.313974 5.11168 0.315227 4.98258 0.380422 4.87861C2.52933 1.50814 4.89389 0 6.28679 0H6.29055C6.80709 0.00114253 7.22208 0.207941 7.45778 0.582691C7.95426 1.36989 7.61325 2.82434 6.49867 4.71066H11.0372C11.1701 4.71066 11.2917 4.77464 11.3582 4.87975C11.4246 4.98372 11.4234 5.11283 11.3582 5.2168C9.21051 8.58726 6.84596 10.0954 5.4518 10.0954H5.45305ZM6.08368 5.38475C4.78606 7.47215 4.62809 8.71066 4.92147 9.17681C4.98792 9.28192 5.11329 9.42017 5.45055 9.42131H5.45305C6.56387 9.42131 8.56734 8.03885 10.3853 5.38475H6.08368ZM1.35583 4.71066H5.65616C6.95378 2.62325 7.11175 1.38475 6.81838 0.918595C6.75318 0.814625 6.62655 0.675236 6.29055 0.674093H6.28804C5.17723 0.674093 3.17375 2.0577 1.35709 4.71066H1.35583Z" fill="#F2385A"/>
<path d="M46.3175 6.6004C46.2949 6.6381 46.2423 6.65067 46.2022 6.62782C45.8774 6.4473 45.3107 6.26221 44.7127 6.26221C44.0332 6.26221 43.5844 6.52385 43.5844 6.94659C43.5844 7.30877 43.9316 7.48815 44.556 7.5567L45.1202 7.62068C46.132 7.74065 46.7212 8.12111 46.7212 8.8329C46.7212 9.65895 45.905 10.1777 44.6212 10.1777C44.0282 10.1777 43.2885 10.0497 42.6942 9.66467C42.6591 9.64182 42.6491 9.59612 42.6729 9.56298L42.9312 9.18023C42.9562 9.14253 43.0114 9.13225 43.0503 9.15738C43.4051 9.39275 43.8765 9.58126 44.6312 9.58126C45.4374 9.58126 45.9464 9.3379 45.9464 8.87861C45.9464 8.53013 45.6242 8.31877 44.9497 8.24564L44.3805 8.18623C43.3073 8.06741 42.8045 7.63096 42.8045 6.98429C42.8045 6.16281 43.5655 5.66695 44.7077 5.66695C45.4236 5.66695 46.0793 5.84176 46.5357 6.10111C46.5733 6.12282 46.5846 6.16738 46.5632 6.2028L46.3175 6.60269V6.6004Z" fill="#FF768F"/>
<path d="M48.563 10.0954H47.9737C47.9273 10.0954 47.8909 10.0611 47.8909 10.02V5.82462C47.8909 5.78235 47.9286 5.74922 47.9737 5.74922H48.563C48.6093 5.74922 48.6457 5.78349 48.6457 5.82462V10.0189C48.6457 10.0611 48.6081 10.0943 48.563 10.0943V10.0954Z" fill="#FF768F"/>
<path d="M53.9603 6.40046V5.82462C53.9603 5.78235 53.9979 5.74922 54.0431 5.74922H54.6323C54.6787 5.74922 54.7151 5.78349 54.7151 5.82462V9.7972C54.7151 11.2151 53.6669 12 52.1913 12C51.4591 12 50.7219 11.8001 50.2367 11.4573C50.2041 11.4344 50.1966 11.3933 50.2154 11.3602L50.4686 10.9409C50.4925 10.9009 50.5489 10.8895 50.5903 10.9157C51.0316 11.1979 51.582 11.375 52.1913 11.375C53.2231 11.375 53.959 10.838 53.959 9.82348V9.37789C53.5967 9.83262 53.0275 10.1171 52.2565 10.1171C50.9162 10.1171 49.8944 9.20423 49.8944 7.88689C49.8944 6.56955 50.9162 5.66124 52.2565 5.66124C53.0275 5.66124 53.5967 5.9503 53.959 6.40046H53.9603ZM50.6617 7.88803C50.6617 8.76892 51.3312 9.47615 52.3442 9.47615C53.3573 9.47615 54.0267 8.79177 54.0267 7.88803C54.0267 6.98429 53.3272 6.30448 52.3442 6.30448C51.3613 6.30448 50.6617 7.01171 50.6617 7.88803Z" fill="#FF768F"/>
<path d="M60.6691 7.40131V10.02C60.6691 10.0623 60.6315 10.0954 60.5863 10.0954H60.0021C59.9557 10.0954 59.9193 10.0611 59.9193 10.02V7.62639C59.9193 6.80034 59.4153 6.31362 58.544 6.31362C57.7428 6.31362 57.0834 6.81862 57.0834 7.64467V10.02C57.0834 10.0623 57.0458 10.0954 57.0006 10.0954H56.4114C56.365 10.0954 56.3286 10.0611 56.3286 10.02V5.82462C56.3286 5.78235 56.3662 5.74922 56.4114 5.74922H56.9906C57.037 5.74922 57.0733 5.78349 57.0733 5.82462V6.36847C57.4607 5.84976 58.0951 5.66124 58.6794 5.66124C59.8579 5.66124 60.6691 6.35019 60.6691 7.40131Z" fill="#FF768F"/>
<path d="M48.4589 3.95316L47.9687 4.71408C47.9361 4.76435 47.9762 4.82833 48.0401 4.82833H48.5429C48.6093 4.82833 48.6708 4.79634 48.7046 4.74379L49.1848 3.99772C49.2212 3.94059 49.176 3.86861 49.1033 3.86861H48.6206C48.5542 3.86861 48.4927 3.9006 48.4589 3.95316Z" fill="#FF768F"/>
</svg>
