<svg width="102" height="77" viewBox="0 0 102 77" fill="none" xmlns="http://www.w3.org/2000/svg">
<g clip-path="url(#clip0_884_118)">
<path d="M7.17045 76.2504H23.3182V37.0345L0.25 19.7334V69.33C0.25 73.1593 3.35267 76.2504 7.17045 76.2504Z" fill="#4285F4"/>
<path d="M78.6818 76.2504H94.8295C98.6588 76.2504 101.75 73.1478 101.75 69.33V19.7334L78.6818 37.0345" fill="#34A853"/>
<path d="M78.6818 7.04556V37.0342L101.75 19.7331V10.5058C101.75 1.94749 91.9806 -2.93143 85.1409 2.20124" fill="#FBBC04"/>
<path d="M23.3182 37.0345V7.0459L51.0001 27.8073L78.6819 7.0459V37.0345L51.0001 57.7959" fill="#EA4335"/>
<path d="M0.25 10.5058V19.7331L23.3182 37.0342V7.04556L16.8591 2.20124C10.0078 -2.93143 0.25 1.94749 0.25 10.5058Z" fill="#C5221F"/>
</g>
<defs>
<clipPath id="clip0_884_118">
<rect width="101.5" height="76.125" fill="white" transform="translate(0.25 0.125)"/>
</clipPath>
</defs>
</svg>
