<?xml version="1.0" encoding="utf-8"?>
<!-- Generator: Adobe Illustrator 21.0.2, SVG Export Plug-In . SVG Version: 6.00 Build 0)  -->
<svg version="1.1" id="google-transfer" 
	xmlns="http://www.w3.org/2000/svg" 
	xmlns:xlink="http://www.w3.org/1999/xlink" x="0px" y="0px" viewBox="0 0 177 37" style="enable-background:new 0 0 177 37;" xml:space="preserve">
	<style type="text/css">
	.gt0{fill:none;}
	.gt1{fill:#0DA960;}
	.gt2{fill:url(#SVGID_1_);}
	.gt3{fill:url(#SVGID_2_);}
	.gt4{fill:url(#SVGID_3_);}
	.gt5{fill:url(#SVGID_4_);}
	.gt6{fill:url(#SVGID_5_);}
	.gt7{fill:url(#SVGID_6_);}
	.gt8{fill:#2D6FDD;}
	.gt9{fill:#E5B93C;}
	.gt10{fill:#0C9B57;}
	.gt11{fill:#ED3D48;}
	.gt12{fill:#B1CDF9;}
	.gt13{fill:url(#SVGID_7_);}
	.gt14{fill:url(#SVGID_8_);}
	.gt15{fill:url(#SVGID_9_);}
	.gt16{fill:url(#SVGID_10_);}
	.gt17{fill:url(#SVGID_11_);}
	.gt18{fill:url(#SVGID_12_);}
	.gt19{fill:url(#SVGID_13_);}
	.gt20{fill:url(#SVGID_14_);}
	.gt21{fill:url(#SVGID_15_);}
	.gt22{fill:url(#SVGID_16_);}
	.gt23{fill:url(#SVGID_17_);}
	.gt24{fill:url(#SVGID_18_);}
	.gt25{fill:url(#SVGID_19_);}
	.gt26{fill:url(#SVGID_20_);}
	.gt27{fill:url(#SVGID_21_);}
	.gt28{fill:url(#SVGID_22_);}
	.gt29{fill:url(#SVGID_23_);}
	.gt30{fill:url(#SVGID_24_);}
	.gt31{fill:url(#SVGID_25_);}
	.gt32{fill:url(#SVGID_26_);}
	.gt33{fill:url(#SVGID_27_);}
	.gt34{opacity:0.5171;fill:#C5D7F3;enable-background:new    ;}
	.gt35{fill:url(#SVGID_28_);}
	.gt36{fill:url(#SVGID_29_);}
	.gt37{fill:url(#SVGID_30_);}
	.gt38{fill:url(#SVGID_31_);}
	.gt39{fill:url(#SVGID_32_);}
	.gt40{fill:url(#SVGID_33_);}
	.gt41{fill:url(#SVGID_34_);}
	.gt42{fill:url(#SVGID_35_);}
	.gt43{fill:url(#SVGID_36_);}
	.gt44{fill:none;stroke:#B1CDF9;stroke-width:0.63;}
	.gt45{fill:#FAAFB1;}
	</style>
	<title>Drive share</title>
	<desc>Created with Sketch.</desc>
	<g>
		<path class="gt0" d="M64.9,13.1C64.9,13.1,64.9,13.1,64.9,13.1c0,0.2,0,0.4,0,0.6c0-0.1,0-0.2,0-0.3C64.9,13.3,64.9,13.2,64.9,13.1
		z"/>
		<polygon class="gt0" points="13.9,0.1 13.9,0 13.9,0.1 	"/>
		<polygon class="gt0" points="21.1,24.1 21,24.2 27.8,24.2 21.3,12.9 14.9,24.1 	"/>
		<polygon class="gt1" points="14.7,24.1 14.9,24.1 21.3,12.9 13.9,0.1 13.9,0.1 21.1,12.9 17.9,18.5 13.9,0.1 0.1,24.1 7.4,36.8 
		17.9,18.5 	"/>

		<radialGradient id="SVGID_1_" cx="-186.0061" cy="397.7764" r="6.4959" gradientTransform="matrix(11.1293 6.3846 6.3846 -11.1293 -402.0024 5640.6934)" gradientUnits="userSpaceOnUse">
			<stop offset="0" style="stop-color:#4387FD"/>
			<stop offset="0.65" style="stop-color:#3078F0"/>
			<stop offset="0.9099" style="stop-color:#2B72EA"/>
			<stop offset="1" style="stop-color:#286EE6"/>
		</radialGradient>
		<polygon class="gt2" points="27.8,24.2 21,24.2 7.8,36.6 7.5,37 35.2,37 42.7,24.2 27.9,24.2 	"/>

		<radialGradient id="SVGID_2_" cx="-186.0061" cy="397.7764" r="6.4959" gradientTransform="matrix(11.1293 6.3846 6.3846 -11.1293 -402.0024 5640.6934)" gradientUnits="userSpaceOnUse">
			<stop offset="0" style="stop-color:#4387FD"/>
			<stop offset="0.65" style="stop-color:#3078F0"/>
			<stop offset="0.9099" style="stop-color:#2B72EA"/>
			<stop offset="1" style="stop-color:#286EE6"/>
		</radialGradient>
		<polygon class="gt3" points="7.3,37 7.5,37 7.4,36.9 	"/>
		<polygon class="gt1" points="7.4,36.9 7.5,37 7.8,36.6 	"/>

		<radialGradient id="SVGID_3_" cx="-186.0061" cy="397.7764" r="6.4959" gradientTransform="matrix(11.1293 6.3846 6.3846 -11.1293 -402.0024 5640.6934)" gradientUnits="userSpaceOnUse">
			<stop offset="0" style="stop-color:#4387FD"/>
			<stop offset="0.65" style="stop-color:#3078F0"/>
			<stop offset="0.9099" style="stop-color:#2B72EA"/>
			<stop offset="1" style="stop-color:#286EE6"/>
		</radialGradient>
		<polygon class="gt4" points="7.4,36.9 7.5,37 7.8,36.6 	"/>

		<radialGradient id="SVGID_4_" cx="-199.5554" cy="404.9145" r="3.4445" gradientTransform="matrix(20.9193 12.1055 12.1055 -20.9192 -659.6915 10912.3643)" gradientUnits="userSpaceOnUse">
			<stop offset="0" style="stop-color:#FFD24D"/>
			<stop offset="1" style="stop-color:#F6C338"/>
		</radialGradient>
		<polygon class="gt5" points="14,0 21.4,12.9 21.3,12.9 27.8,24.2 27.9,24.2 24.7,18.5 42.7,24.2 28.8,0 	"/>

		<radialGradient id="SVGID_5_" cx="-199.5554" cy="404.9145" r="3.4445" gradientTransform="matrix(20.9193 12.1055 12.1055 -20.9192 -659.6915 10912.3643)" gradientUnits="userSpaceOnUse">
			<stop offset="0" style="stop-color:#FFD24D"/>
			<stop offset="1" style="stop-color:#F6C338"/>
		</radialGradient>
		<polygon class="gt6" points="14,0 13.9,0 13.9,0.1 	"/>
		<polygon class="gt1" points="21.3,12.9 21.4,12.9 14,0 13.9,0.1 	"/>

		<radialGradient id="SVGID_6_" cx="-199.5554" cy="404.9145" r="3.4445" gradientTransform="matrix(20.9193 12.1055 12.1055 -20.9192 -659.6915 10912.3643)" gradientUnits="userSpaceOnUse">
			<stop offset="0" style="stop-color:#FFD24D"/>
			<stop offset="1" style="stop-color:#F6C338"/>
		</radialGradient>
		<polygon class="gt7" points="21.3,12.9 21.4,12.9 14,0 13.9,0.1 	"/>
		<polygon class="gt8" points="7.4,36.8 7.3,37 7.4,36.8 	"/>
		<polygon class="gt8" points="14.9,24.1 14.9,24.2 21,24.2 21.1,24.1 	"/>
		<polygon class="gt8" points="14.7,24.2 14.9,24.2 14.9,24.1 14.7,24.1 17.9,18.5 7.4,36.8 7.4,36.8 	"/>
		<polygon class="gt8" points="7.4,36.8 7.3,37 7.4,36.9 	"/>
		<polygon class="gt8" points="7.8,36.6 21,24.2 14.9,24.2 	"/>
		<polygon class="gt8" points="14.7,24.2 7.4,36.8 7.4,36.9 7.8,36.6 14.9,24.2 	"/>
		<polygon class="gt9" points="27.9,24.2 42.7,24.2 24.7,18.5 	"/>
		<polygon class="gt10" points="13.9,0 13.9,0.1 13.9,0.1 	"/>
		<polygon class="gt10" points="21.1,12.9 13.9,0.1 13.9,0.1 17.9,18.5 	"/>
		<polygon class="gt11" points="168.2,0.4 158.3,0.4 148.6,18 153.5,27.1 	"/>
		<polygon class="gt11" points="171.6,27.1 153.5,27.1 158.5,36.3 176.5,36.3 	"/>
		<polygon class="gt11" points="144.6,25.8 138.8,36.3 150.6,36.3 144.7,25.8 	"/>
		<path class="gt12" d="M83.5,17.4c-0.6-0.4-1.1-0.7-1.6-0.9L81.6,17c0.4,0.3,0.9,0.5,1.5,0.9L83.5,17.4z"/>
		<path class="gt12" d="M86.5,19.2c-0.5-0.3-1-0.6-1.5-0.9l-0.3,0.5c0.6,0.3,1.1,0.6,1.6,0.9L86.5,19.2z"/>
		<path class="gt12" d="M54.5,16.8l0.4,0.5c0.5-0.4,1-0.7,1.5-1L56,15.7C55.5,16,55,16.4,54.5,16.8z"/>
		<path class="gt12" d="M49.5,22.1l0.5,0.3c0.3-0.5,0.7-1,1.1-1.4l-0.5-0.4C50.2,21.1,49.9,21.6,49.5,22.1z"/>
		<path class="gt12" d="M78.5,15.2c0.5,0.3,1,0.5,1.6,0.8l0.3-0.5c-0.6-0.3-1.1-0.6-1.6-0.8L78.5,15.2z"/>
		<path class="gt12" d="M61,13.4l0.2,0.6c0.6-0.2,1.1-0.3,1.7-0.5l-0.1-0.6C62.2,13,61.6,13.2,61,13.4z"/>
		<path class="gt12" d="M57.6,14.8l0.3,0.5c0.5-0.3,1.1-0.5,1.6-0.8L59.2,14C58.7,14.2,58.1,14.5,57.6,14.8z"/>
		<path class="gt12" d="M64.9,13.1C64.9,13.1,64.9,13.1,64.9,13.1c0.1-0.2,0.1-0.4,0.1-0.6c-0.1,0-0.2,0-0.3,0l0.1,0.6
		C64.7,13.1,64.8,13.1,64.9,13.1c0,0,0-0.1,0-0.1C64.8,13,64.9,13.1,64.9,13.1z"/>
		<path class="gt12" d="M51.8,19.2l0.4,0.4c0.4-0.4,0.8-0.9,1.3-1.3l-0.4-0.4C52.7,18.4,52.2,18.8,51.8,19.2z"/>
		<path class="gt12" d="M119.3,22.2l0.2,0.6c0.6-0.2,1.1-0.5,1.7-0.7l-0.3-0.5C120.4,21.8,119.9,22,119.3,22.2z"/>
		<path class="gt12" d="M112.4,24l0.1,0.6c0.6-0.1,1.2-0.2,1.8-0.3l-0.1-0.6C113.6,23.8,113,23.9,112.4,24z"/>
		<path class="gt12" d="M108.8,24.3l0,0.6c0.6,0,1.2-0.1,1.8-0.2l-0.1-0.6C110,24.2,109.4,24.3,108.8,24.3z"/>
		<path class="gt12" d="M115.9,23.3l0.1,0.6c0.6-0.1,1.2-0.3,1.8-0.5l-0.2-0.6C117.1,23,116.5,23.1,115.9,23.3z"/>
		<polygon class="gt12" points="122.5,16.5 122.7,17 128.3,14.9 127.5,15.8 128,16.2 128.7,15.3 128,21.1 128.6,21.2 129.5,14.2 
		129.5,13.8 129,13.9 	"/>

		<rect x="125.2" y="17.8" transform="matrix(0.6129 -0.7901 0.7901 0.6129 34.4765 106.6644)" class="gt12" width="1.8" height="0.6"/>
		<path class="gt12" d="M122.5,20.7l0.3,0.5c0.5-0.3,1-0.6,1.5-1l-0.4-0.5C123.5,20.1,123,20.4,122.5,20.7z"/>

		<linearGradient id="SVGID_7_" gradientUnits="userSpaceOnUse" x1="-206.9174" y1="399.4086" x2="-207.756" y2="397.5785" gradientTransform="matrix(24.3294 0 0 -24.9824 5127.3755 9996.8193)">
			<stop offset="0" style="stop-color:#EEF3FF"/>
			<stop offset="1" style="stop-color:#6B9AD9"/>
		</linearGradient>
		<path class="gt13" d="M89.2,31.1c-0.2,0-0.3-0.1-0.5-0.1c-0.9,0-1.7-0.1-2.6-0.2C87.2,31,88.2,31.1,89.2,31.1z"/>

		<linearGradient id="SVGID_8_" gradientUnits="userSpaceOnUse" x1="-207.9102" y1="399.8635" x2="-208.7488" y2="398.0334" gradientTransform="matrix(24.3294 0 0 -24.9824 5127.3755 9996.8193)">
			<stop offset="0" style="stop-color:#EEF3FF"/>
			<stop offset="1" style="stop-color:#6B9AD9"/>
		</linearGradient>
		<path class="gt14" d="M65.3,15.9c0-0.1,0-0.1,0-0.2C65.3,15.7,65.3,15.8,65.3,15.9z"/>

		<linearGradient id="SVGID_9_" gradientUnits="userSpaceOnUse" x1="-207.9386" y1="399.8765" x2="-208.7771" y2="398.0464" gradientTransform="matrix(24.3294 0 0 -24.9824 5127.3755 9996.8193)">
			<stop offset="0" style="stop-color:#EEF3FF"/>
			<stop offset="1" style="stop-color:#6B9AD9"/>
		</linearGradient>
		<path class="gt15" d="M65.1,14.7c0-0.2,0-0.4-0.1-0.5C65,14.3,65,14.5,65.1,14.7z"/>

		<linearGradient id="SVGID_10_" gradientUnits="userSpaceOnUse" x1="-207.6042" y1="399.7233" x2="-208.4428" y2="397.8932" gradientTransform="matrix(24.3294 0 0 -24.9824 5127.3755 9996.8193)">
			<stop offset="0" style="stop-color:#EEF3FF"/>
			<stop offset="1" style="stop-color:#6B9AD9"/>
		</linearGradient>
		<path class="gt16" d="M66.5,12.9c-0.5,0-1,0.1-1.5,0.2c0,0.1,0,0.2,0,0.3c0,0.1,0,0.2,0,0.3c0.8,6,4.4,7.6,10.8,4.8
		c1.2,3.7,3,6.7,5.6,8.8c-4.2-4.6-2.7-11.6-2.8-14.3c-4.3,0.5-8.3-1.8-12.1-6.9c-0.9,1.7-1.4,3.8-1.5,6.4c0.5-0.1,1-0.1,1.5-0.2
		L66.5,12.9z M75.4,13.3c0.6,0.2,1.1,0.4,1.7,0.6l-0.2,0.6c-0.6-0.2-1.1-0.4-1.7-0.6L75.4,13.3z M71.8,12.4c0.6,0.1,1.2,0.2,1.8,0.3
		l-0.1,0.6c-0.6-0.1-1.2-0.3-1.7-0.3L71.8,12.4z M69.4,12.2c0.2,0,0.4,0,0.6,0l0,0.6c-0.2,0-0.4,0-0.6,0c-0.4,0-0.8,0-1.2,0l0-0.6
		C68.6,12.2,69,12.2,69.4,12.2z"/>
		<path class="gt12" d="M77.1,13.9c-0.6-0.2-1.1-0.5-1.7-0.6l-0.2,0.6c0.5,0.2,1.1,0.4,1.7,0.6L77.1,13.9z"/>

		<linearGradient id="SVGID_11_" gradientUnits="userSpaceOnUse" x1="-207.5701" y1="399.7076" x2="-208.4087" y2="397.8775" gradientTransform="matrix(24.3294 0 0 -24.9824 5127.3755 9996.8193)">
			<stop offset="0" style="stop-color:#EEF3FF"/>
			<stop offset="1" style="stop-color:#6B9AD9"/>
		</linearGradient>
		<path class="gt17" d="M77.1,13.9c-0.6-0.2-1.1-0.5-1.7-0.6l-0.2,0.6c0.5,0.2,1.1,0.4,1.7,0.6L77.1,13.9z"/>
		<path class="gt12" d="M73.6,12.8c-0.6-0.1-1.2-0.3-1.8-0.3L71.7,13c0.6,0.1,1.2,0.2,1.7,0.3L73.6,12.8z"/>

		<linearGradient id="SVGID_12_" gradientUnits="userSpaceOnUse" x1="-207.7033" y1="399.7687" x2="-208.5419" y2="397.9386" gradientTransform="matrix(24.3294 0 0 -24.9824 5127.3755 9996.8193)">
			<stop offset="0" style="stop-color:#EEF3FF"/>
			<stop offset="1" style="stop-color:#6B9AD9"/>
		</linearGradient>
		<path class="gt18" d="M73.6,12.8c-0.6-0.1-1.2-0.3-1.8-0.3L71.7,13c0.6,0.1,1.2,0.2,1.7,0.3L73.6,12.8z"/>
		<path class="gt12" d="M69.4,12.8c0.2,0,0.4,0,0.6,0l0-0.6c-0.2,0-0.4,0-0.6,0c-0.4,0-0.8,0-1.2,0l0,0.6
		C68.6,12.8,69,12.8,69.4,12.8z"/>

		<linearGradient id="SVGID_13_" gradientUnits="userSpaceOnUse" x1="-207.8302" y1="399.8268" x2="-208.6688" y2="397.9967" gradientTransform="matrix(24.3294 0 0 -24.9824 5127.3755 9996.8193)">
			<stop offset="0" style="stop-color:#EEF3FF"/>
			<stop offset="1" style="stop-color:#6B9AD9"/>
		</linearGradient>
		<path class="gt19" d="M69.4,12.8c0.2,0,0.4,0,0.6,0l0-0.6c-0.2,0-0.4,0-0.6,0c-0.4,0-0.8,0-1.2,0l0,0.6
		C68.6,12.8,69,12.8,69.4,12.8z"/>
		<path class="gt12" d="M66.5,12.9l0-0.6c-0.5,0-1,0.1-1.5,0.2c0,0.2,0,0.4,0,0.6C65.4,13,65.9,13,66.5,12.9z"/>

		<linearGradient id="SVGID_14_" gradientUnits="userSpaceOnUse" x1="-207.9415" y1="399.8778" x2="-208.7801" y2="398.0477" gradientTransform="matrix(24.3294 0 0 -24.9824 5127.3755 9996.8193)">
			<stop offset="0" style="stop-color:#EEF3FF"/>
			<stop offset="1" style="stop-color:#6B9AD9"/>
		</linearGradient>
		<path class="gt20" d="M66.5,12.9l0-0.6c-0.5,0-1,0.1-1.5,0.2c0,0.2,0,0.4,0,0.6C65.4,13,65.9,13,66.5,12.9z"/>

		<linearGradient id="SVGID_15_" gradientUnits="userSpaceOnUse" x1="-207.31" y1="393.8764" x2="-207.902" y2="392.5883" gradientTransform="matrix(25.299 0 0 -18.0787 5337.7222 7138.6377)">
			<stop offset="0" style="stop-color:#E5EDFF"/>
			<stop offset="1" style="stop-color:#6B9AD9"/>
		</linearGradient>
		<path class="gt21" d="M81.3,27.3c1.6,1.7,3.9,3.1,7.5,3.7c0.5,0,0.9,0.1,1.4,0.1C86.6,30.5,83.7,29.3,81.3,27.3z"/>

		<linearGradient id="SVGID_16_" gradientUnits="userSpaceOnUse" x1="-208.315" y1="394.3382" x2="-208.9069" y2="393.0501" gradientTransform="matrix(25.299 0 0 -18.0787 5337.7222 7138.6377)">
			<stop offset="0" style="stop-color:#E5EDFF"/>
			<stop offset="1" style="stop-color:#6B9AD9"/>
		</linearGradient>
		<path class="gt22" d="M64.9,13.1C64.9,13.1,64.9,13.1,64.9,13.1c0,0.4,0.1,0.7,0.1,1.1c0-0.2,0-0.3,0-0.5
		C64.9,13.5,64.9,13.3,64.9,13.1z"/>

		<linearGradient id="SVGID_17_" gradientUnits="userSpaceOnUse" x1="-207.7588" y1="394.0827" x2="-208.3508" y2="392.7945" gradientTransform="matrix(25.299 0 0 -18.0787 5337.7222 7138.6377)">
			<stop offset="0" style="stop-color:#E5EDFF"/>
			<stop offset="1" style="stop-color:#6B9AD9"/>
		</linearGradient>
		<path class="gt23" d="M68.6,21.9c-1.7-1.7-2.8-3.7-3.4-6c0.9,4.2,3.2,7.7,6.8,10.3c3.6,2.6,8.3,4.2,14.1,4.7
		c-1.4-0.2-2.8-0.6-4.1-1.3C75.4,26.7,70.9,24.2,68.6,21.9z"/>

		<linearGradient id="SVGID_18_" gradientUnits="userSpaceOnUse" x1="-208.2752" y1="394.3199" x2="-208.8671" y2="393.0318" gradientTransform="matrix(25.299 0 0 -18.0787 5337.7222 7138.6377)">
			<stop offset="0" style="stop-color:#E5EDFF"/>
			<stop offset="1" style="stop-color:#6B9AD9"/>
		</linearGradient>
		<path class="gt24" d="M65.2,15.7c-0.1-0.3-0.1-0.6-0.2-1C65.1,15,65.2,15.4,65.2,15.7z"/>
		<path class="gt12" d="M64.8,13c0,0,0,0.1,0,0.1c0,0,0,0,0,0C64.9,13.1,64.8,13,64.8,13z"/>

		<linearGradient id="SVGID_19_" gradientUnits="userSpaceOnUse" x1="-208.3296" y1="394.3449" x2="-208.9216" y2="393.0568" gradientTransform="matrix(25.299 0 0 -18.0787 5337.7222 7138.6377)">
			<stop offset="0" style="stop-color:#E5EDFF"/>
			<stop offset="1" style="stop-color:#6B9AD9"/>
		</linearGradient>
		<path class="gt25" d="M64.8,13c0,0,0,0.1,0,0.1c0,0,0,0,0,0C64.9,13.1,64.8,13,64.8,13z"/>

		<linearGradient id="SVGID_20_" gradientUnits="userSpaceOnUse" x1="-207.4168" y1="399.6374" x2="-208.2554" y2="397.8073" gradientTransform="matrix(24.3294 0 0 -24.9824 5127.3755 9996.8193)">
			<stop offset="0" style="stop-color:#EEF3FF"/>
			<stop offset="1" style="stop-color:#6B9AD9"/>
		</linearGradient>
		<path class="gt26" d="M81.3,27.3c-2.5-2.1-4.4-5-5.6-8.8c-6.4,2.8-10,1.2-10.8-4.8c0,0.2,0,0.3,0,0.5c0,0.2,0,0.4,0.1,0.5
		c0.1,0.3,0.1,0.7,0.2,1c0,0.1,0,0.1,0,0.2c0.6,2.3,1.7,4.3,3.4,6c2.3,2.3,6.8,4.9,13.5,7.7c1.3,0.6,2.6,1,4.1,1.3
		c0.8,0.1,1.7,0.1,2.6,0.2C85.2,30.4,82.9,29,81.3,27.3z"/>

		<linearGradient id="SVGID_21_" gradientUnits="userSpaceOnUse" x1="-207.743" y1="394.0754" x2="-208.3349" y2="392.7872" gradientTransform="matrix(25.299 0 0 -18.0787 5337.7222 7138.6377)">
			<stop offset="0" style="stop-color:#E5EDFF"/>
			<stop offset="1" style="stop-color:#6B9AD9"/>
		</linearGradient>
		<path class="gt27" d="M81.3,27.3c-2.5-2.1-4.4-5-5.6-8.8c-6.4,2.8-10,1.2-10.8-4.8c0,0.2,0,0.3,0,0.5c0,0.2,0,0.4,0.1,0.5
		c0.1,0.3,0.1,0.7,0.2,1c0,0.1,0,0.1,0,0.2c0.6,2.3,1.7,4.3,3.4,6c2.3,2.3,6.8,4.9,13.5,7.7c1.3,0.6,2.6,1,4.1,1.3
		c0.8,0.1,1.7,0.1,2.6,0.2C85.2,30.4,82.9,29,81.3,27.3z"/>

		<linearGradient id="SVGID_22_" gradientUnits="userSpaceOnUse" x1="-209.0348" y1="401.2582" x2="-209.8734" y2="399.4281" gradientTransform="matrix(29.5029 0 0 -27.9373 6269.4521 11221.5469)">
			<stop offset="0" style="stop-color:#EEF3FF"/>
			<stop offset="1" style="stop-color:#6B9AD9"/>
		</linearGradient>
		<path class="gt28" d="M100.3,4.6c-3.6,8-8.9,13.7-15.9,17l11.6,10.9c9.1-3.4,15-9.5,17.9-18.5L100.3,4.6z M93.3,18.4
		c1.4-0.9,2.6-2.1,3.3-3.6c0.1-0.2,0.2-0.4,0.3-0.6l3.3,2.5c-0.1,0.2-0.2,0.5-0.3,0.7c-0.6,1.2-1.5,2.3-2.6,3.1
		c-0.4,0.3-0.8,0.6-1.1,0.9l-3.4-2.7C93,18.6,93.1,18.5,93.3,18.4z M89.4,21.4c-0.5-0.3-1.1-0.5-1.6-0.8l0.3-0.5
		c0.5,0.3,1.1,0.6,1.6,0.8L89.4,21.4z M98.5,28.7l-8.6-7.1l1.1-0.7l1.6,1.3c0.2,0.1,0.3,0.1,0.5,0.2l-0.1,0.1l6.8,5.5L98.5,28.7z
		 M102.7,26c-0.7,0.5-1.3,0.9-2.1,1.2l-4.4-3.4l0,0.1c-0.6-0.2-1.2-0.3-1.7-0.5l0.2-0.6c0.6,0.2,1.1,0.3,1.7,0.5
		c0.8-0.5,1.5-0.9,1.9-1.4c0.6-0.5,1.1-1,1.6-1.7l4.6,3.6C103.9,24.8,103.3,25.5,102.7,26z M101.1,19.2l0.6-1.1l5.1,3.2l-0.7,1.1
		L101.1,19.2z M105.5,25.1c-0.1,0-0.2,0-0.3,0l0-0.6c0.1,0,0.2,0,0.3,0c0.5,0,1,0,1.5,0l0,0.6C106.5,25,106.1,25.1,105.5,25.1z
		 M107.9,19.5L97.8,13l0.6-1.1l10.2,6.4L107.9,19.5z M99.3,10.4l0.6-1.1l10.2,6.4l-0.7,1.1L99.3,10.4z"/>
		<path class="gt12" d="M105.5,24.5c-0.1,0-0.2,0-0.3,0l0,0.6c0.1,0,0.2,0,0.3,0c0.5,0,1,0,1.5,0l0-0.6
		C106.5,24.4,106,24.5,105.5,24.5z"/>

		<linearGradient id="SVGID_23_" gradientUnits="userSpaceOnUse" x1="-208.7484" y1="401.127" x2="-209.587" y2="399.2969" gradientTransform="matrix(29.5029 0 0 -27.9373 6269.4521 11221.5469)">
			<stop offset="0" style="stop-color:#EEF3FF"/>
			<stop offset="1" style="stop-color:#6B9AD9"/>
		</linearGradient>
		<path class="gt29" d="M105.5,24.5c-0.1,0-0.2,0-0.3,0l0,0.6c0.1,0,0.2,0,0.3,0c0.5,0,1,0,1.5,0l0-0.6
		C106.5,24.4,106,24.5,105.5,24.5z"/>
		<path class="gt12" d="M96.4,23.4c-0.6-0.1-1.1-0.3-1.7-0.5l-0.2,0.6c0.6,0.2,1.2,0.4,1.7,0.5l0-0.1L96,23.6
		C96.1,23.6,96.2,23.5,96.4,23.4z"/>

		<linearGradient id="SVGID_24_" gradientUnits="userSpaceOnUse" x1="-209.0648" y1="401.2719" x2="-209.9034" y2="399.4418" gradientTransform="matrix(29.5029 0 0 -27.9373 6269.4521 11221.5469)">
			<stop offset="0" style="stop-color:#EEF3FF"/>
			<stop offset="1" style="stop-color:#6B9AD9"/>
		</linearGradient>
		<path class="gt30" d="M96.4,23.4c-0.6-0.1-1.1-0.3-1.7-0.5l-0.2,0.6c0.6,0.2,1.2,0.4,1.7,0.5l0-0.1L96,23.6
		C96.1,23.6,96.2,23.5,96.4,23.4z"/>
		<path class="gt12" d="M93,22.3c-0.2-0.1-0.3-0.1-0.5-0.2l0.4,0.3L93,22.3z"/>

		<linearGradient id="SVGID_25_" gradientUnits="userSpaceOnUse" x1="-209.1571" y1="401.3142" x2="-209.9957" y2="399.4841" gradientTransform="matrix(29.5029 0 0 -27.9373 6269.4521 11221.5469)">
			<stop offset="0" style="stop-color:#EEF3FF"/>
			<stop offset="1" style="stop-color:#6B9AD9"/>
		</linearGradient>
		<path class="gt31" d="M93,22.3c-0.2-0.1-0.3-0.1-0.5-0.2l0.4,0.3L93,22.3z"/>
		<path class="gt12" d="M87.8,20.6c0.5,0.3,1.1,0.6,1.6,0.8l0.3-0.5c-0.5-0.3-1-0.5-1.6-0.8L87.8,20.6z"/>

		<linearGradient id="SVGID_26_" gradientUnits="userSpaceOnUse" x1="-209.2893" y1="401.3748" x2="-210.1279" y2="399.5447" gradientTransform="matrix(29.5029 0 0 -27.9373 6269.4521 11221.5469)">
			<stop offset="0" style="stop-color:#EEF3FF"/>
			<stop offset="1" style="stop-color:#6B9AD9"/>
		</linearGradient>
		<path class="gt32" d="M87.8,20.6c0.5,0.3,1.1,0.6,1.6,0.8l0.3-0.5c-0.5-0.3-1-0.5-1.6-0.8L87.8,20.6z"/>

		<linearGradient id="SVGID_27_" gradientUnits="userSpaceOnUse" x1="-209.065" y1="401.272" x2="-209.9035" y2="399.4419" gradientTransform="matrix(29.5029 0 0 -27.9373 6269.4521 11221.5469)">
			<stop offset="0" style="stop-color:#EEF3FF"/>
			<stop offset="1" style="stop-color:#6B9AD9"/>
		</linearGradient>
		<path class="gt33" d="M92.8,22.9c-0.6-0.2-1.1-0.4-1.7-0.7l0.2-0.5c0.4,0.2,0.8,0.3,1.2,0.5l-1.6-1.3l-1.1,0.7l8.6,7.1l1.3-0.7
		l-6.8-5.5L92.8,22.9z"/>
		<path class="gt34" d="M92.8,22.9c-0.6-0.2-1.1-0.4-1.7-0.7l0.2-0.5c0.4,0.2,0.8,0.3,1.2,0.5l-1.6-1.3l-1.1,0.7l8.6,7.1l1.3-0.7
		l-6.8-5.5L92.8,22.9z"/>
		<path class="gt12" d="M91.1,22.2c0.6,0.2,1.1,0.5,1.7,0.7l0.2-0.4l-0.4-0.3c-0.4-0.2-0.8-0.3-1.2-0.5L91.1,22.2z"/>

		<linearGradient id="SVGID_28_" gradientUnits="userSpaceOnUse" x1="-209.1764" y1="401.3231" x2="-210.015" y2="399.493" gradientTransform="matrix(29.5029 0 0 -27.9373 6269.4521 11221.5469)">
			<stop offset="0" style="stop-color:#EEF3FF"/>
			<stop offset="1" style="stop-color:#6B9AD9"/>
		</linearGradient>
		<path class="gt35" d="M91.1,22.2c0.6,0.2,1.1,0.5,1.7,0.7l0.2-0.4l-0.4-0.3c-0.4-0.2-0.8-0.3-1.2-0.5L91.1,22.2z"/>
		<path class="gt34" d="M91.1,22.2c0.6,0.2,1.1,0.5,1.7,0.7l0.2-0.4l-0.4-0.3c-0.4-0.2-0.8-0.3-1.2-0.5L91.1,22.2z"/>

		<linearGradient id="SVGID_29_" gradientUnits="userSpaceOnUse" x1="-208.9466" y1="401.2178" x2="-209.7852" y2="399.3877" gradientTransform="matrix(29.5029 0 0 -27.9373 6269.4521 11221.5469)">
			<stop offset="0" style="stop-color:#EEF3FF"/>
			<stop offset="1" style="stop-color:#6B9AD9"/>
		</linearGradient>
		<polygon class="gt36" points="99.9,9.3 99.3,10.4 109.4,16.8 110.1,15.7 	"/>
		<polygon class="gt34" points="99.9,9.3 99.3,10.4 109.4,16.8 110.1,15.7 	"/>

		<linearGradient id="SVGID_30_" gradientUnits="userSpaceOnUse" x1="-208.9537" y1="401.221" x2="-209.7923" y2="399.3909" gradientTransform="matrix(29.5029 0 0 -27.9373 6269.4521 11221.5469)">
			<stop offset="0" style="stop-color:#EEF3FF"/>
			<stop offset="1" style="stop-color:#6B9AD9"/>
		</linearGradient>
		<polygon class="gt37" points="97.8,13 107.9,19.5 108.6,18.4 98.4,11.9 	"/>
		<polygon class="gt34" points="97.8,13 107.9,19.5 108.6,18.4 98.4,11.9 	"/>

		<linearGradient id="SVGID_31_" gradientUnits="userSpaceOnUse" x1="-208.8689" y1="401.1822" x2="-209.7075" y2="399.3521" gradientTransform="matrix(29.5029 0 0 -27.9373 6269.4521 11221.5469)">
			<stop offset="0" style="stop-color:#EEF3FF"/>
			<stop offset="1" style="stop-color:#6B9AD9"/>
		</linearGradient>
		<polygon class="gt38" points="106.9,21.2 101.8,18.1 101.1,19.2 106.2,22.3 	"/>
		<polygon class="gt34" points="106.9,21.2 101.8,18.1 101.1,19.2 106.2,22.3 	"/>

		<linearGradient id="SVGID_32_" gradientUnits="userSpaceOnUse" x1="-209.1128" y1="401.2939" x2="-209.9514" y2="399.4638" gradientTransform="matrix(29.5029 0 0 -27.9373 6269.4521 11221.5469)">
			<stop offset="0" style="stop-color:#EEF3FF"/>
			<stop offset="1" style="stop-color:#6B9AD9"/>
		</linearGradient>
		<path class="gt39" d="M97.3,20.5c1.1-0.8,2-1.9,2.6-3.1c0.1-0.3,0.3-0.5,0.3-0.7L97,14.1c-0.1,0.2-0.2,0.4-0.3,0.6
		c-0.8,1.5-1.9,2.7-3.3,3.6c-0.2,0.1-0.4,0.2-0.6,0.3l3.4,2.7C96.5,21.1,96.9,20.8,97.3,20.5z"/>
		<path class="gt34" d="M97.3,20.5c1.1-0.8,2-1.9,2.6-3.1c0.1-0.3,0.3-0.5,0.3-0.7L97,14.1c-0.1,0.2-0.2,0.4-0.3,0.6
		c-0.8,1.5-1.9,2.7-3.3,3.6c-0.2,0.1-0.4,0.2-0.6,0.3l3.4,2.7C96.5,21.1,96.9,20.8,97.3,20.5z"/>

		<linearGradient id="SVGID_33_" gradientUnits="userSpaceOnUse" x1="-208.9224" y1="401.2067" x2="-209.761" y2="399.3766" gradientTransform="matrix(29.5029 0 0 -27.9373 6269.4521 11221.5469)">
			<stop offset="0" style="stop-color:#EEF3FF"/>
			<stop offset="1" style="stop-color:#6B9AD9"/>
		</linearGradient>
		<path class="gt40" d="M98.3,22c-0.5,0.4-1.1,0.9-1.9,1.4c0,0,0,0,0,0l-0.1,0.4l4.4,3.4c0.7-0.3,1.4-0.7,2.1-1.2
		c0.7-0.5,1.2-1.2,1.8-2l-4.6-3.6C99.4,21,98.9,21.6,98.3,22z M101.7,24.3c0.6,0.1,1.2,0.1,1.8,0.1l0,0.6c-0.6,0-1.2-0.1-1.8-0.1
		L101.7,24.3z M99.8,24.7c-0.6-0.1-1.2-0.2-1.8-0.3l0.1-0.6c0.6,0.1,1.2,0.2,1.8,0.3L99.8,24.7z"/>
		<path class="gt34" d="M98.3,22c-0.5,0.4-1.1,0.9-1.9,1.4c0,0,0,0,0,0l-0.1,0.4l4.4,3.4c0.7-0.3,1.4-0.7,2.1-1.2
		c0.7-0.5,1.2-1.2,1.8-2l-4.6-3.6C99.4,21,98.9,21.6,98.3,22z M101.7,24.3c0.6,0.1,1.2,0.1,1.8,0.1l0,0.6c-0.6,0-1.2-0.1-1.8-0.1
		L101.7,24.3z M99.8,24.7c-0.6-0.1-1.2-0.2-1.8-0.3l0.1-0.6c0.6,0.1,1.2,0.2,1.8,0.3L99.8,24.7z"/>
		<path class="gt12" d="M96.4,23.4c-0.1,0.1-0.2,0.2-0.4,0.2l0.3,0.2L96.4,23.4C96.4,23.4,96.4,23.4,96.4,23.4z"/>

		<linearGradient id="SVGID_34_" gradientUnits="userSpaceOnUse" x1="-209.0419" y1="401.2615" x2="-209.8805" y2="399.4313" gradientTransform="matrix(29.5029 0 0 -27.9373 6269.4521 11221.5469)">
			<stop offset="0" style="stop-color:#EEF3FF"/>
			<stop offset="1" style="stop-color:#6B9AD9"/>
		</linearGradient>
		<path class="gt41" d="M96.4,23.4c-0.1,0.1-0.2,0.2-0.4,0.2l0.3,0.2L96.4,23.4C96.4,23.4,96.4,23.4,96.4,23.4z"/>
		<path class="gt34" d="M96.4,23.4c-0.1,0.1-0.2,0.2-0.4,0.2l0.3,0.2L96.4,23.4C96.4,23.4,96.4,23.4,96.4,23.4z"/>
		<path class="gt12" d="M103.5,24.4c-0.6,0-1.2-0.1-1.8-0.1l-0.1,0.6c0.6,0.1,1.2,0.1,1.8,0.1L103.5,24.4z"/>

		<linearGradient id="SVGID_35_" gradientUnits="userSpaceOnUse" x1="-208.8493" y1="401.1732" x2="-209.6879" y2="399.3431" gradientTransform="matrix(29.5029 0 0 -27.9373 6269.4521 11221.5469)">
			<stop offset="0" style="stop-color:#EEF3FF"/>
			<stop offset="1" style="stop-color:#6B9AD9"/>
		</linearGradient>
		<path class="gt42" d="M103.5,24.4c-0.6,0-1.2-0.1-1.8-0.1l-0.1,0.6c0.6,0.1,1.2,0.1,1.8,0.1L103.5,24.4z"/>
		<path class="gt34" d="M103.5,24.4c-0.6,0-1.2-0.1-1.8-0.1l-0.1,0.6c0.6,0.1,1.2,0.1,1.8,0.1L103.5,24.4z"/>
		<path class="gt12" d="M98,24.4c0.6,0.1,1.2,0.2,1.8,0.3l0.1-0.6c-0.6-0.1-1.2-0.2-1.8-0.3L98,24.4z"/>

		<linearGradient id="SVGID_36_" gradientUnits="userSpaceOnUse" x1="-208.955" y1="401.2216" x2="-209.7935" y2="399.3915" gradientTransform="matrix(29.5029 0 0 -27.9373 6269.4521 11221.5469)">
			<stop offset="0" style="stop-color:#EEF3FF"/>
			<stop offset="1" style="stop-color:#6B9AD9"/>
		</linearGradient>
		<path class="gt43" d="M98,24.4c0.6,0.1,1.2,0.2,1.8,0.3l0.1-0.6c-0.6-0.1-1.2-0.2-1.8-0.3L98,24.4z"/>
		<path class="gt34" d="M98,24.4c0.6,0.1,1.2,0.2,1.8,0.3l0.1-0.6c-0.6-0.1-1.2-0.2-1.8-0.3L98,24.4z"/>
		<ellipse class="gt44" cx="117.2" cy="20" rx="1.2" ry="1.2"/>
		<ellipse class="gt44" cx="54" cy="12.5" rx="1.2" ry="1.2"/>
		<path class="gt45" d="M78.5,5c0-0.3-0.2-0.5-0.5-0.5c-0.3,0-0.5,0.2-0.5,0.5v0.7h1V5z"/>
		<path class="gt45" d="M77.5,7c0,0.3,0.2,0.5,0.5,0.5c0.3,0,0.5-0.2,0.5-0.5V6.2h-1V7z"/>
		<path class="gt45" d="M76.5,6.2h1V5.7h-1c-0.2,0-0.3,0.1-0.3,0.3C76.3,6.1,76.4,6.2,76.5,6.2z"/>
		<path class="gt45" d="M79.1,6.2c0.2,0,0.3-0.1,0.3-0.3c0-0.2-0.1-0.3-0.3-0.3h-0.6v0.6H79.1z"/>
		<rect x="77.5" y="5.7" class="gt45" width="1" height="0.6"/>
		<path class="gt45" d="M105.8,31.9c0-0.2-0.1-0.3-0.3-0.3s-0.3,0.1-0.3,0.3v0.8h0.6V31.9z"/>
		<path class="gt45" d="M105.2,34c0,0.2,0.1,0.3,0.3,0.3s0.3-0.1,0.3-0.3v-0.8h-0.6V34z"/>
		<path class="gt45" d="M104.4,32.7c-0.2,0-0.3,0.1-0.3,0.3c0,0.2,0.1,0.3,0.3,0.3h0.8v-0.6H104.4z"/>
		<path class="gt45" d="M106.7,32.7h-0.8v0.6h0.8c0.2,0,0.3-0.1,0.3-0.3C106.9,32.8,106.8,32.7,106.7,32.7z"/>
		<rect x="105.2" y="32.7" class="gt45" width="0.6" height="0.6"/>
		<path class="gt45" d="M66.3,30c0,0.2,0.2,0.4,0.4,0.4s0.4-0.2,0.4-0.4v-1h-0.8V30z"/>
		<path class="gt45" d="M67.1,27.2c0-0.2-0.2-0.4-0.4-0.4s-0.4,0.2-0.4,0.4v1h0.8V27.2z"/>
		<path class="gt45" d="M68.2,28.3h-1.1V29h1.1c0.2,0,0.4-0.2,0.4-0.4C68.6,28.4,68.4,28.3,68.2,28.3z"/>
		<path class="gt45" d="M65.2,28.3c-0.2,0-0.4,0.2-0.4,0.4c0,0.2,0.2,0.4,0.4,0.4h1.1v-0.8H65.2z"/>
		<rect x="66.3" y="28.3" class="gt45" width="0.8" height="0.8"/>
	</g>
</svg>
