<svg width="24" height="24" viewBox="0 0 24 24" fill="none" xmlns="http://www.w3.org/2000/svg">
<path d="M3.08762 18.3306L4.01374 19.9302C4.20618 20.267 4.48281 20.5316 4.80755 20.724L8.1151 14.999H1.5C1.5 15.3718 1.59622 15.7447 1.78866 16.0814L3.08762 18.3306Z" fill="#0066DA"/>
<path d="M12 8.26346L8.69241 2.53839C8.36767 2.73083 8.09104 2.99543 7.8986 3.3322L1.78866 13.9164C1.59976 14.2459 1.50025 14.619 1.5 14.9988H8.1151L12 8.26346Z" fill="#00AC47"/>
<path d="M19.1926 20.724C19.5173 20.5316 19.7939 20.267 19.9864 19.9302L20.3712 19.2687L22.2114 16.0814C22.4039 15.7447 22.5001 15.3718 22.5001 14.999H15.8845L17.2922 17.7653L19.1926 20.724Z" fill="#EA4335"/>
<path d="M12.0002 8.26372L15.3077 2.53866C14.983 2.34622 14.6101 2.25 14.2253 2.25H9.7751C9.39022 2.25 9.01737 2.35825 8.69263 2.53866L12.0002 8.26372Z" fill="#00832D"/>
<path d="M15.8849 14.999H8.11516L4.80762 20.724C5.13236 20.9165 5.50521 21.0127 5.89009 21.0127H18.11C18.4949 21.0127 18.8677 20.9044 19.1924 20.724L15.8849 14.999Z" fill="#2684FC"/>
<path d="M19.1566 8.62428L16.1016 3.3322C15.9092 2.99543 15.6325 2.73083 15.3078 2.53839L12.0002 8.26346L15.8851 14.9988H22.4882C22.4882 14.626 22.392 14.2531 22.1995 13.9164L19.1566 8.62428Z" fill="#FFBA00"/>
</svg>
