<svg width="84" height="24" viewBox="0 0 84 24" fill="none" xmlns="http://www.w3.org/2000/svg">
<path d="M30.1925 12.2194C30.1925 13.2819 29.8773 14.1283 29.2469 14.7588C28.5385 15.5096 27.6071 15.885 26.4525 15.885C25.3475 15.885 24.4125 15.5025 23.6475 14.7375C22.8825 13.9725 22.5 13.0304 22.5 11.9113C22.5 10.7921 22.8825 9.85 23.6475 9.085C24.4125 8.32 25.3475 7.9375 26.4525 7.9375C27.0121 7.9375 27.5398 8.03667 28.0356 8.235C28.5315 8.43333 28.9388 8.71313 29.2575 9.07438L28.5563 9.77563C28.3225 9.49229 28.0179 9.27271 27.6425 9.11688C27.2742 8.95396 26.8775 8.8725 26.4525 8.8725C25.6238 8.8725 24.9225 9.15938 24.3488 9.73313C23.7821 10.314 23.4988 11.04 23.4988 11.9113C23.4988 12.7825 23.7821 13.5085 24.3488 14.0894C24.9225 14.6631 25.6238 14.95 26.4525 14.95C27.2104 14.95 27.8408 14.7375 28.3438 14.3125C28.8467 13.8875 29.1371 13.3031 29.215 12.5594H26.4525V11.6456H30.1394C30.1748 11.844 30.1925 12.0352 30.1925 12.2194Z" fill="#E3E5E8"/>
<path d="M30.8608 13.1119C30.8608 12.3115 31.1123 11.6492 31.6152 11.125C32.1252 10.6008 32.7662 10.3388 33.5383 10.3388C34.3104 10.3388 34.9479 10.6008 35.4508 11.125C35.9608 11.6492 36.2158 12.3115 36.2158 13.1119C36.2158 13.9194 35.9608 14.5817 35.4508 15.0988C34.9479 15.6229 34.3104 15.885 33.5383 15.885C32.7662 15.885 32.1252 15.6229 31.6152 15.0988C31.1123 14.5746 30.8608 13.9123 30.8608 13.1119ZM31.8383 13.1119C31.8383 13.6715 32.0012 14.1248 32.327 14.4719C32.6529 14.819 33.0566 14.9925 33.5383 14.9925C34.02 14.9925 34.4237 14.819 34.7495 14.4719C35.0754 14.1248 35.2383 13.6715 35.2383 13.1119C35.2383 12.5594 35.0754 12.1096 34.7495 11.7625C34.4166 11.4083 34.0129 11.2313 33.5383 11.2313C33.0637 11.2313 32.66 11.4083 32.327 11.7625C32.0012 12.1096 31.8383 12.5594 31.8383 13.1119Z" fill="#E3E5E8"/>
<path d="M36.8062 13.1119C36.8062 12.3115 37.0577 11.6492 37.5606 11.125C38.0706 10.6008 38.7116 10.3388 39.4837 10.3388C40.2558 10.3388 40.8933 10.6008 41.3962 11.125C41.9062 11.6492 42.1612 12.3115 42.1612 13.1119C42.1612 13.9194 41.9062 14.5817 41.3962 15.0988C40.8933 15.6229 40.2558 15.885 39.4837 15.885C38.7116 15.885 38.0706 15.6229 37.5606 15.0988C37.0577 14.5746 36.8062 13.9123 36.8062 13.1119ZM37.7837 13.1119C37.7837 13.6715 37.9466 14.1248 38.2725 14.4719C38.5983 14.819 39.0021 14.9925 39.4837 14.9925C39.9654 14.9925 40.3691 14.819 40.695 14.4719C41.0208 14.1248 41.1837 13.6715 41.1837 13.1119C41.1837 12.5594 41.0208 12.1096 40.695 11.7625C40.3621 11.4083 39.9583 11.2313 39.4837 11.2313C39.0091 11.2313 38.6054 11.4083 38.2725 11.7625C37.9466 12.1096 37.7837 12.5594 37.7837 13.1119Z" fill="#E3E5E8"/>
<path d="M45.3867 14.9925C45.8683 14.9925 46.2615 14.819 46.566 14.4719C46.8848 14.1248 47.0442 13.6715 47.0442 13.1119C47.0442 12.5665 46.8848 12.1167 46.566 11.7625C46.2544 11.4083 45.8612 11.2313 45.3867 11.2313C44.9192 11.2313 44.526 11.4083 44.2073 11.7625C43.8885 12.1167 43.7292 12.5665 43.7292 13.1119C43.7292 13.6644 43.8885 14.1142 44.2073 14.4613C44.526 14.8154 44.9192 14.9925 45.3867 14.9925ZM45.3548 18.18C45.0644 18.18 44.7917 18.141 44.5367 18.0631C44.2817 17.9923 44.0479 17.8896 43.8354 17.755C43.63 17.6204 43.4529 17.461 43.3042 17.2769C43.1554 17.0927 43.0421 16.8873 42.9642 16.6606L43.8885 16.2781C43.9948 16.5827 44.179 16.8271 44.441 17.0113C44.7031 17.1954 45.0077 17.2875 45.3548 17.2875C45.886 17.2875 46.3004 17.1281 46.5979 16.8094C46.8954 16.4906 47.0442 16.0515 47.0442 15.4919V14.9925H47.0017C46.8175 15.2688 46.566 15.4883 46.2473 15.6513C45.9356 15.8071 45.5956 15.885 45.2273 15.885C44.5473 15.885 43.9629 15.6194 43.4742 15.0881C42.9925 14.5427 42.7517 13.884 42.7517 13.1119C42.7517 12.3398 42.9925 11.6846 43.4742 11.1463C43.9629 10.6079 44.5473 10.3388 45.2273 10.3388C45.5956 10.3388 45.9356 10.4202 46.2473 10.5831C46.566 10.739 46.8175 10.955 47.0017 11.2313H47.0442V10.5088H47.9792V15.4919C47.9792 16.3277 47.7419 16.9829 47.2673 17.4575C46.7856 17.9392 46.1481 18.18 45.3548 18.18Z" fill="#E3E5E8"/>
<path d="M50.1485 8.1075V15.715H49.171V8.1075H50.1485Z" fill="#E3E5E8"/>
<path d="M53.6252 15.885C52.8602 15.885 52.2298 15.6229 51.7339 15.0988C51.2381 14.5746 50.9902 13.9123 50.9902 13.1119C50.9902 12.3185 51.231 11.6598 51.7127 11.1356C52.1944 10.6044 52.8106 10.3388 53.5614 10.3388C54.3335 10.3388 54.9462 10.5902 55.3996 11.0931C55.86 11.589 56.0902 12.2867 56.0902 13.1863L56.0796 13.2925H51.9889C52.0031 13.8025 52.1731 14.2133 52.4989 14.525C52.8248 14.8367 53.2144 14.9925 53.6677 14.9925C54.291 14.9925 54.7798 14.6808 55.1339 14.0575L56.0052 14.4825C55.7714 14.9217 55.4456 15.2652 55.0277 15.5131C54.6169 15.761 54.1494 15.885 53.6252 15.885ZM52.0633 12.485H55.0489C55.0206 12.1238 54.8719 11.8263 54.6027 11.5925C54.3406 11.3517 53.9864 11.2313 53.5402 11.2313C53.1719 11.2313 52.8531 11.3446 52.5839 11.5713C52.3219 11.7979 52.1483 12.1025 52.0633 12.485Z" fill="#E3E5E8"/>
<path d="M59.4887 15.715V8.1075H61.8156C62.9772 8.1075 63.9087 8.45813 64.6099 9.15938C65.3183 9.86063 65.6724 10.7779 65.6724 11.9113C65.6724 13.0517 65.3183 13.9725 64.6099 14.6738C63.9087 15.3679 62.9772 15.715 61.8156 15.715H59.4887ZM60.4662 9.0425V14.78H61.8156C62.701 14.78 63.3987 14.5285 63.9087 14.0256C64.4187 13.5156 64.6737 12.8108 64.6737 11.9113C64.6737 11.0188 64.4187 10.3175 63.9087 9.8075C63.3987 9.2975 62.701 9.0425 61.8156 9.0425H60.4662Z" fill="#E3E5E8"/>
<path d="M67.4349 15.715H66.4574V10.5088H67.3924V11.3588H67.4349C67.534 11.0825 67.7359 10.8488 68.0405 10.6575C68.3522 10.4592 68.6567 10.36 68.9542 10.36C69.2376 10.36 69.4784 10.4025 69.6767 10.4875L69.3792 11.4331C69.2588 11.3835 69.0676 11.3588 68.8055 11.3588C68.4372 11.3588 68.1149 11.5075 67.8386 11.805C67.5695 12.1025 67.4349 12.4496 67.4349 12.8463V15.715Z" fill="#E3E5E8"/>
<path d="M71.5816 8.71313C71.5816 8.90438 71.5143 9.06729 71.3797 9.20188C71.2452 9.33646 71.0822 9.40375 70.891 9.40375C70.6997 9.40375 70.5368 9.33646 70.4022 9.20188C70.2676 9.06729 70.2004 8.90438 70.2004 8.71313C70.2004 8.52188 70.2676 8.35896 70.4022 8.22438C70.5368 8.08979 70.6997 8.0225 70.891 8.0225C71.0822 8.0225 71.2452 8.08979 71.3797 8.22438C71.5143 8.35896 71.5816 8.52188 71.5816 8.71313ZM71.3797 10.5088V15.715H70.4022V10.5088H71.3797Z" fill="#E3E5E8"/>
<path d="M75.1806 15.715H74.2031L72.0993 10.5088H73.1618L74.6918 14.5463H74.7131L76.2643 10.5088H77.3056L75.1806 15.715Z" fill="#E3E5E8"/>
<path d="M80.1254 15.885C79.3604 15.885 78.73 15.6229 78.2342 15.0988C77.7384 14.5746 77.4904 13.9123 77.4904 13.1119C77.4904 12.3185 77.7313 11.6598 78.2129 11.1356C78.6946 10.6044 79.3109 10.3388 80.0617 10.3388C80.8338 10.3388 81.4465 10.5902 81.8998 11.0931C82.3602 11.589 82.5904 12.2867 82.5904 13.1863L82.5798 13.2925H78.4892C78.5033 13.8025 78.6734 14.2133 78.9992 14.525C79.325 14.8367 79.7146 14.9925 80.1679 14.9925C80.7913 14.9925 81.28 14.6808 81.6342 14.0575L82.5054 14.4825C82.2717 14.9217 81.9459 15.2652 81.5279 15.5131C81.1171 15.761 80.6496 15.885 80.1254 15.885ZM78.5636 12.485H81.5492C81.5209 12.1238 81.3721 11.8263 81.1029 11.5925C80.8409 11.3517 80.4867 11.2313 80.0404 11.2313C79.6721 11.2313 79.3534 11.3446 79.0842 11.5713C78.8221 11.7979 78.6486 12.1025 78.5636 12.485Z" fill="#E3E5E8"/>
<path d="M1.32302 17.2755L2.09478 18.6085C2.25515 18.8892 2.48567 19.1097 2.75629 19.27L5.51258 14.4991H0C0 14.8099 0.080183 15.1206 0.240549 15.4012L1.32302 17.2755Z" fill="#0066DA"/>
<path d="M8.74997 8.88621L5.99368 4.11533C5.72306 4.27569 5.49254 4.4962 5.33217 4.77684L0.240549 13.597C0.0831323 13.8716 0.000209591 14.1825 0 14.499H5.51258L8.74997 8.88621Z" fill="#00AC47"/>
<path d="M14.7438 19.27C15.0144 19.1097 15.2449 18.8892 15.4053 18.6085L15.726 18.0573L17.2595 15.4012C17.4199 15.1206 17.5 14.8099 17.5 14.4991H11.9871L13.1601 16.8044L14.7438 19.27Z" fill="#EA4335"/>
<path d="M8.75006 8.88644L11.5064 4.11555C11.2357 3.95518 10.925 3.875 10.6043 3.875H6.89583C6.5751 3.875 6.26439 3.96521 5.99377 4.11555L8.75006 8.88644Z" fill="#00832D"/>
<path d="M11.9874 14.4991H5.51264L2.75635 19.27C3.02697 19.4304 3.33767 19.5106 3.65841 19.5106H13.8416C14.1624 19.5106 14.4731 19.4204 14.7437 19.27L11.9874 14.4991Z" fill="#2684FC"/>
<path d="M14.7137 9.1869L12.1679 4.77684C12.0076 4.4962 11.777 4.27569 11.5064 4.11533L8.75012 8.88621L11.9875 14.499H17.4901C17.4901 14.1883 17.4099 13.8776 17.2495 13.597L14.7137 9.1869Z" fill="#FFBA00"/>
</svg>
