<svg width="46" height="24" viewBox="0 0 46 24" fill="none" xmlns="http://www.w3.org/2000/svg">
<path d="M33.121 0H12.001C5.40098 0 0.000976562 5.4 0.000976562 12C0.000976562 18.6 5.40098 24 12.001 24H33.121C39.721 24 45.121 18.6 45.121 12C45.121 5.4 39.721 0 33.121 0Z" fill="white"/>
<path d="M33.121 0.972C34.603 0.972 36.043 1.266 37.399 1.842C38.713 2.4 39.889 3.198 40.909 4.212C41.923 5.226 42.721 6.408 43.279 7.722C43.855 9.078 44.149 10.518 44.149 12C44.149 13.482 43.855 14.922 43.279 16.278C42.721 17.592 41.923 18.768 40.909 19.788C39.895 20.802 38.713 21.6 37.399 22.158C36.043 22.734 34.603 23.028 33.121 23.028H12.001C10.519 23.028 9.07898 22.734 7.72298 22.158C6.40898 21.6 5.23298 20.802 4.21298 19.788C3.19898 18.774 2.40098 17.592 1.84298 16.278C1.26698 14.922 0.972976 13.482 0.972976 12C0.972976 10.518 1.26698 9.078 1.84298 7.722C2.40098 6.408 3.19898 5.232 4.21298 4.212C5.22698 3.198 6.40898 2.4 7.72298 1.842C9.07898 1.266 10.519 0.972 12.001 0.972H33.121ZM33.121 0H12.001C5.40098 0 0.000976562 5.4 0.000976562 12C0.000976562 18.6 5.40098 24 12.001 24H33.121C39.721 24 45.121 18.6 45.121 12C45.121 5.4 39.721 0 33.121 0Z" fill="#3C4043"/>
<path d="M21.5172 12.8521V16.4821H20.3652V7.51807H23.4192C24.1932 7.51807 24.8532 7.77607 25.3932 8.29207C25.9452 8.80807 26.2212 9.43807 26.2212 10.1821C26.2212 10.9441 25.9452 11.5741 25.3932 12.0841C24.8592 12.5941 24.1992 12.8461 23.4192 12.8461H21.5172V12.8521ZM21.5172 8.62207V11.7481H23.4432C23.8992 11.7481 24.2832 11.5921 24.5832 11.2861C24.8892 10.9801 25.0452 10.6081 25.0452 10.1881C25.0452 9.77407 24.8892 9.40807 24.5832 9.10207C24.2832 8.78407 23.9052 8.62807 23.4432 8.62807H21.5172V8.62207Z" fill="#3C4043"/>
<path d="M29.2336 10.146C30.0856 10.146 30.7576 10.374 31.2496 10.83C31.7416 11.286 31.9876 11.91 31.9876 12.702V16.482H30.8896V15.63H30.8416C30.3676 16.332 29.7316 16.68 28.9396 16.68C28.2616 16.68 27.6976 16.482 27.2416 16.08C26.7856 15.678 26.5576 15.18 26.5576 14.58C26.5576 13.944 26.7976 13.44 27.2776 13.068C27.7576 12.69 28.3996 12.504 29.1976 12.504C29.8816 12.504 30.4456 12.63 30.8836 12.882V12.618C30.8836 12.216 30.7276 11.88 30.4096 11.598C30.0916 11.316 29.7196 11.178 29.2936 11.178C28.6516 11.178 28.1416 11.448 27.7696 11.994L26.7556 11.358C27.3136 10.548 28.1416 10.146 29.2336 10.146ZM27.7456 14.598C27.7456 14.898 27.8716 15.15 28.1296 15.348C28.3816 15.546 28.6816 15.648 29.0236 15.648C29.5096 15.648 29.9416 15.468 30.3196 15.108C30.6976 14.748 30.8896 14.328 30.8896 13.842C30.5296 13.56 30.0316 13.416 29.3896 13.416C28.9216 13.416 28.5316 13.53 28.2196 13.752C27.9016 13.986 27.7456 14.268 27.7456 14.598Z" fill="#3C4043"/>
<path d="M38.2511 10.344L34.4111 19.176H33.2231L34.6511 16.086L32.1191 10.344H33.3731L35.1971 14.748H35.2211L36.9971 10.344H38.2511Z" fill="#3C4043"/>
<path d="M16.9346 12.1199C16.9346 11.7443 16.901 11.3849 16.8386 11.0393H12.0098V13.0193L14.7908 13.0199C14.678 13.6787 14.315 14.2403 13.7588 14.6147V15.8993H15.4142C16.3808 15.0047 16.9346 13.6823 16.9346 12.1199Z" fill="#4285F4"/>
<path d="M13.76 14.6148C13.2992 14.9256 12.7058 15.1074 12.0116 15.1074C10.6706 15.1074 9.53297 14.2038 9.12557 12.9858H7.41797V14.3106C8.26397 15.9894 10.0028 17.1414 12.0116 17.1414C13.4 17.1414 14.5664 16.6848 15.4154 15.8988L13.76 14.6148Z" fill="#34A853"/>
<path d="M8.96449 12.003C8.96449 11.661 9.02149 11.3304 9.12529 11.0196V9.69482H7.41769C7.06789 10.389 6.87109 11.1726 6.87109 12.003C6.87109 12.8334 7.06849 13.617 7.41769 14.3112L9.12529 12.9864C9.02149 12.6756 8.96449 12.345 8.96449 12.003Z" fill="#FABB05"/>
<path d="M12.0116 8.89801C12.7694 8.89801 13.448 9.15901 13.9838 9.66901L15.4508 8.20321C14.5598 7.37341 13.3982 6.86401 12.0116 6.86401C10.0034 6.86401 8.26397 8.01601 7.41797 9.69481L9.12557 11.0196C9.53297 9.80161 10.6706 8.89801 12.0116 8.89801Z" fill="#E94235"/>
</svg>
