<svg width="186" height="56" viewBox="0 0 186 56" fill="none" xmlns="http://www.w3.org/2000/svg">
<path d="M179.111 55.9001H6.88889C3.1 55.9001 0 52.7613 0 48.9251V7.0751C0 3.23885 3.1 0.100098 6.88889 0.100098H179.111C182.9 0.100098 186 3.23885 186 7.0751V48.9251C186 52.7613 182.9 55.9001 179.111 55.9001Z" fill="black"/>
<path d="M179.111 1.2161C182.308 1.2161 184.898 3.8387 184.898 7.0751V48.9251C184.898 52.1615 182.308 54.7841 179.111 54.7841H6.88889C3.69244 54.7841 1.10222 52.1615 1.10222 48.9251V7.0751C1.10222 3.8387 3.69244 1.2161 6.88889 1.2161H179.111ZM179.111 0.100098H6.88889C3.1 0.100098 0 3.23885 0 7.0751V48.9251C0 52.7613 3.1 55.9001 6.88889 55.9001H179.111C182.9 55.9001 186 52.7613 186 48.9251V7.0751C186 3.23885 182.9 0.100098 179.111 0.100098Z" fill="#A6A6A6"/>
<path d="M64.9884 14.385C64.9884 15.5568 64.6396 16.4914 63.9421 17.175C63.1609 17.998 62.1287 18.4165 60.8732 18.4165C59.6595 18.4165 58.6412 17.998 57.7902 17.161C56.9393 16.324 56.5208 15.2778 56.5208 14.0502C56.5208 12.8086 56.9393 11.7763 57.7902 10.9393C58.6412 10.1023 59.6595 9.68384 60.8732 9.68384C61.473 9.68384 62.045 9.79544 62.589 10.0326C63.1331 10.2697 63.5655 10.5766 63.9003 10.9672L63.161 11.7066C62.603 11.0509 61.8497 10.7161 60.8732 10.7161C59.9943 10.7161 59.2271 11.023 58.5854 11.6508C57.9437 12.2646 57.6228 13.0737 57.6228 14.0641C57.6228 15.0546 57.9437 15.8637 58.5854 16.4775C59.2271 17.0913 59.9943 17.4121 60.8732 17.4121C61.8078 17.4121 62.589 17.1052 63.2168 16.4775C63.6213 16.0729 63.8585 15.501 63.9143 14.7756H60.8732V13.7712H64.9326C64.9605 13.9804 64.9884 14.1897 64.9884 14.385Z" fill="white" stroke="white" stroke-width="0.2" stroke-miterlimit="10"/>
<path d="M71.4203 10.8975H67.612V13.548H71.0437V14.5524H67.612V17.2029H71.4203V18.2352H66.5378V9.86523H71.4203V10.8975Z" fill="white" stroke="white" stroke-width="0.2" stroke-miterlimit="10"/>
<path d="M75.9535 18.2352H74.8794V10.8975H72.5358V9.86523H78.2832V10.8975H75.9396V18.2352H75.9535Z" fill="white" stroke="white" stroke-width="0.2" stroke-miterlimit="10"/>
<path d="M82.4528 18.2352V9.86523H83.5269V18.2352H82.4528Z" fill="white" stroke="white" stroke-width="0.2" stroke-miterlimit="10"/>
<path d="M88.2986 18.2352H87.2245V10.8975H84.8809V9.86523H90.6283V10.8975H88.2847V18.2352H88.2986Z" fill="white" stroke="white" stroke-width="0.2" stroke-miterlimit="10"/>
<path d="M101.523 17.1471C100.7 17.998 99.6819 18.4165 98.4543 18.4165C97.2267 18.4165 96.2084 17.998 95.3853 17.1471C94.5623 16.2961 94.1577 15.2638 94.1577 14.0502C94.1577 12.8365 94.5623 11.7903 95.3853 10.9533C96.2084 10.1023 97.2267 9.68384 98.4543 9.68384C99.668 9.68384 100.686 10.1023 101.523 10.9533C102.346 11.8042 102.765 12.8365 102.765 14.0502C102.751 15.2778 102.346 16.3101 101.523 17.1471ZM96.1805 16.4496C96.7943 17.0773 97.5615 17.3842 98.4543 17.3842C99.3471 17.3842 100.114 17.0773 100.728 16.4496C101.342 15.8218 101.663 15.0267 101.663 14.0502C101.663 13.0737 101.356 12.2785 100.728 11.6508C100.114 11.023 99.3471 10.7161 98.4543 10.7161C97.5615 10.7161 96.7943 11.023 96.1805 11.6508C95.5667 12.2785 95.2458 13.0737 95.2458 14.0502C95.2458 15.0267 95.5667 15.8218 96.1805 16.4496Z" fill="white" stroke="white" stroke-width="0.2" stroke-miterlimit="10"/>
<path d="M104.271 18.2352V9.86523H105.582L109.656 16.3799H109.698L109.656 14.7617V9.86523H110.73V18.2352H109.614L105.359 11.4137H105.317L105.359 13.0319V18.2352H104.271Z" fill="white" stroke="white" stroke-width="0.2" stroke-miterlimit="10"/>
<path d="M93.8925 30.4418C90.6143 30.4418 87.9359 32.9388 87.9359 36.3705C87.9359 39.7883 90.6143 42.2993 93.8925 42.2993C97.1708 42.2993 99.8492 39.7883 99.8492 36.3705C99.8492 32.9388 97.1708 30.4418 93.8925 30.4418ZM93.8925 39.9696C92.093 39.9696 90.5445 38.4909 90.5445 36.3705C90.5445 34.2362 92.093 32.7714 93.8925 32.7714C95.6921 32.7714 97.2405 34.2362 97.2405 36.3705C97.2405 38.4909 95.6781 39.9696 93.8925 39.9696ZM80.8911 30.4418C77.6129 30.4418 74.9345 32.9388 74.9345 36.3705C74.9345 39.7883 77.6129 42.2993 80.8911 42.2993C84.1694 42.2993 86.8478 39.7883 86.8478 36.3705C86.8478 32.9388 84.1694 30.4418 80.8911 30.4418ZM80.8911 39.9696C79.0916 39.9696 77.5431 38.4909 77.5431 36.3705C77.5431 34.2362 79.0916 32.7714 80.8911 32.7714C82.6907 32.7714 84.2391 34.2362 84.2391 36.3705C84.2391 38.4909 82.6907 39.9696 80.8911 39.9696ZM65.4345 32.2692V34.7802H71.4609C71.2796 36.1892 70.8053 37.2354 70.0938 37.9469C69.215 38.8257 67.8479 39.7883 65.4485 39.7883C61.7378 39.7883 58.8362 36.803 58.8362 33.0923C58.8362 29.3816 61.7378 26.3963 65.4485 26.3963C67.4433 26.3963 68.9081 27.1775 69.9822 28.1958L71.7539 26.4242C70.2473 24.9873 68.2524 23.8853 65.4345 23.8853C60.3567 23.8853 56.088 28.0145 56.088 33.1062C56.088 38.184 60.3567 42.3272 65.4345 42.3272C68.1827 42.3272 70.2473 41.4344 71.8655 39.7464C73.5255 38.0864 74.0417 35.7428 74.0417 33.8595C74.0417 33.2736 73.9998 32.7296 73.9022 32.2832H65.4345V32.2692ZM128.642 34.2222C128.154 32.897 126.647 30.4418 123.564 30.4418C120.509 30.4418 117.97 32.8412 117.97 36.3705C117.97 39.6906 120.481 42.2993 123.857 42.2993C126.577 42.2993 128.154 40.6392 128.795 39.6767L126.773 38.3235C126.103 39.314 125.182 39.9696 123.857 39.9696C122.532 39.9696 121.583 39.3558 120.983 38.1701L128.921 34.8918L128.642 34.2222ZM120.551 36.2031C120.481 33.9153 122.323 32.7435 123.648 32.7435C124.68 32.7435 125.559 33.2597 125.852 33.999L120.551 36.2031ZM114.106 41.9505H116.715V24.513H114.106V41.9505ZM109.837 31.767H109.74C109.154 31.0695 108.038 30.4418 106.615 30.4418C103.644 30.4418 100.923 33.0504 100.923 36.3984C100.923 39.7185 103.644 42.3132 106.615 42.3132C108.024 42.3132 109.154 41.6855 109.74 40.9601H109.823V41.811C109.823 44.0849 108.61 45.2985 106.657 45.2985C105.066 45.2985 104.076 44.1546 103.671 43.1921L101.398 44.1407C102.053 45.717 103.783 47.6421 106.657 47.6421C109.712 47.6421 112.293 45.8426 112.293 41.4623V30.8045H109.823V31.767H109.837ZM106.838 39.9696C105.039 39.9696 103.532 38.463 103.532 36.3984C103.532 34.3059 105.039 32.7854 106.838 32.7854C108.61 32.7854 110.005 34.3199 110.005 36.3984C110.019 38.463 108.624 39.9696 106.838 39.9696ZM140.862 24.513H134.626V41.9505H137.235V35.3382H140.876C143.764 35.3382 146.596 33.2457 146.596 29.9256C146.596 26.6055 143.736 24.513 140.862 24.513ZM140.918 32.9109H137.221V26.9264H140.918C142.871 26.9264 143.973 28.5446 143.973 29.9117C143.973 31.2788 142.871 32.9109 140.918 32.9109ZM157.016 30.4139C155.133 30.4139 153.18 31.2509 152.371 33.0783L154.687 34.0409C155.175 33.0783 156.096 32.7575 157.058 32.7575C158.397 32.7575 159.778 33.5666 159.792 35.0034V35.1848C159.318 34.9197 158.314 34.5152 157.072 34.5152C154.575 34.5152 152.05 35.8823 152.05 38.4351C152.05 40.7648 154.087 42.2714 156.375 42.2714C158.118 42.2714 159.095 41.4902 159.695 40.5695H159.778V41.9226H162.289V35.2406C162.303 32.1437 159.988 30.4139 157.016 30.4139ZM156.695 39.9696C155.844 39.9696 154.659 39.5372 154.659 38.4909C154.659 37.1517 156.137 36.6356 157.421 36.6356C158.565 36.6356 159.109 36.8867 159.792 37.2215C159.597 38.8257 158.202 39.9696 156.695 39.9696ZM171.455 30.7905L168.469 38.3514H168.385L165.289 30.7905H162.485L167.13 41.3646L164.48 47.2376H167.2L174.356 30.7905H171.455ZM148.019 41.9505H150.627V24.513H148.019V41.9505Z" fill="white"/>
<path d="M27.741 27.1909L12.8843 42.9544C12.8843 42.9544 12.8843 42.9544 12.8843 42.9684C13.3446 44.6842 14.907 45.9397 16.7624 45.9397C17.5017 45.9397 18.1992 45.7444 18.7991 45.3817L18.8409 45.3538L35.553 35.7144L27.741 27.1909Z" fill="#EA4335"/>
<path d="M42.765 24.5124L42.751 24.4985L35.5389 20.3135L27.406 27.5535L35.5668 35.7143L42.751 31.5711C44.0065 30.8876 44.8575 29.5623 44.8575 28.0418C44.8575 26.5073 44.0065 25.196 42.765 24.5124Z" fill="#FBBC04"/>
<path d="M12.8849 13.0457C12.8012 13.3805 12.7454 13.7153 12.7454 14.078V41.9361C12.7454 42.2988 12.7872 42.6336 12.8849 42.9684L28.2438 27.6095L12.8849 13.0457Z" fill="#4285F4"/>
<path d="M27.8526 28.0002L35.5391 20.3138L18.8409 10.6325C18.2411 10.2698 17.5296 10.0605 16.7624 10.0605C14.907 10.0605 13.3446 11.33 12.8843 13.0319L27.8526 28.0002Z" fill="#34A853"/>
</svg>
