<svg width="112" height="112" viewBox="0 0 112 112" fill="none" xmlns="http://www.w3.org/2000/svg">
<path d="M14.4089 85.5431L18.7308 93.0081C19.6288 94.5797 20.9198 95.8145 22.4352 96.7126L37.8705 69.9956H7C7 71.7356 7.44902 73.4755 8.34707 75.0471L14.4089 85.5431Z" fill="#0066DA"/>
<path d="M55.9998 38.5617L40.5646 11.8447C39.0491 12.7428 37.7582 13.9776 36.8601 15.5492L8.34707 64.9419C7.46554 66.4796 7.00117 68.221 7 69.9934H37.8705L55.9998 38.5617Z" fill="#00AC47"/>
<path d="M89.5646 96.7126C91.08 95.8145 92.371 94.5797 93.269 93.0081L95.0651 89.9211L103.653 75.0471C104.551 73.4755 105 71.7356 105 69.9956H74.1271L80.6963 82.9051L89.5646 96.7126Z" fill="#EA4335"/>
<path d="M56.0005 38.564L71.4358 11.8471C69.9203 10.949 68.1803 10.5 66.3842 10.5H45.6168C43.8207 10.5 42.0808 11.0052 40.5653 11.8471L56.0005 38.564Z" fill="#00832D"/>
<path d="M74.1294 69.9956H37.8706L22.4354 96.7126C23.9509 97.6106 25.6909 98.0596 27.487 98.0596H84.5131C86.3092 98.0596 88.0492 97.5545 89.5646 96.7126L74.1294 69.9956Z" fill="#2684FC"/>
<path d="M89.3969 40.2455L75.1404 15.5492C74.2424 13.9776 72.9514 12.7428 71.436 11.8447L56.0007 38.5617L74.1301 69.9934H104.944C104.944 68.2535 104.495 66.5135 103.597 64.9419L89.3969 40.2455Z" fill="#FFBA00"/>
</svg>
