<svg width="150" height="134" viewBox="0 0 150 134" fill="none" xmlns="http://www.w3.org/2000/svg">
<path d="M17.2392 102.345L22.41 111.276C23.4845 113.157 25.029 114.634 26.8421 115.709L45.3093 83.7437H8.375C8.375 85.8254 8.91223 87.9072 9.98668 89.7874L17.2392 102.345Z" fill="#0066DA"/>
<path d="M66.9998 46.1383L48.5326 14.1733C46.7195 15.2478 45.175 16.7252 44.1005 18.6055L9.98668 77.7003C8.93199 79.54 8.3764 81.6235 8.375 83.7441H45.3093L66.9998 46.1383Z" fill="#00AC47"/>
<path d="M107.158 115.709C108.971 114.634 110.516 113.157 111.59 111.276L113.739 107.583L124.013 89.7874C125.088 87.9072 125.625 85.8254 125.625 83.7437H88.6881L96.5477 99.1889L107.158 115.709Z" fill="#EA4335"/>
<path d="M67.0005 46.1391L85.4676 14.1742C83.6545 13.0997 81.5727 12.5625 79.4238 12.5625H54.5771C52.4282 12.5625 50.3465 13.1669 48.5333 14.1742L67.0005 46.1391Z" fill="#00832D"/>
<path d="M88.6903 83.7437H45.3093L26.8422 115.709C28.6553 116.783 30.7371 117.32 32.886 117.32H101.114C103.263 117.32 105.344 116.716 107.157 115.709L88.6903 83.7437Z" fill="#2684FC"/>
<path d="M106.957 48.1529L89.9002 18.6055C88.8258 16.7252 87.2813 15.2478 85.4681 14.1733L67.001 46.1383L88.6915 83.7441H125.559C125.559 81.6623 125.021 79.5806 123.947 77.7003L106.957 48.1529Z" fill="#FFBA00"/>
<circle cx="126" cy="110" r="24" fill="#FFECEF"/>
<g clip-path="url(#clip0_87_795)">
<path d="M125.999 129.993C122.043 129.994 118.175 128.822 114.885 126.625C111.595 124.428 109.031 121.305 107.516 117.65C106.002 113.995 105.605 109.973 106.377 106.093C107.148 102.213 109.053 98.6485 111.851 95.851C114.648 93.0536 118.212 91.1486 122.092 90.3772C125.973 89.6057 129.995 90.0023 133.649 91.5168C137.304 93.0314 140.428 95.5958 142.625 98.8858C144.822 102.176 145.994 106.043 145.993 110C145.986 115.3 143.877 120.382 140.129 124.13C136.381 127.878 131.3 129.986 125.999 129.993ZM125.999 91.595C122.359 91.5937 118.8 92.672 115.772 94.6936C112.745 96.7151 110.385 99.5891 108.991 102.952C107.597 106.315 107.231 110.016 107.941 113.586C108.65 117.157 110.403 120.437 112.976 123.011C115.55 125.586 118.829 127.34 122.4 128.05C125.97 128.761 129.671 128.397 133.034 127.004C136.398 125.611 139.273 123.252 141.295 120.225C143.318 117.199 144.397 113.64 144.397 110C144.392 105.121 142.452 100.444 139.003 96.9936C135.554 93.5433 130.878 91.6019 125.999 91.595Z" fill="#F2385A"/>
</g>
<path fill-rule="evenodd" clip-rule="evenodd" d="M121.716 103.146V105.716H117.692C116.735 105.716 116.004 106.508 116.004 107.43V119.424C116.004 120.346 116.735 121.138 117.692 121.138H134.308C135.265 121.138 135.996 120.346 135.996 119.424V107.43C135.996 106.508 135.265 105.716 134.308 105.716H130.284V103.146C130.284 102.01 129.832 100.92 129.029 100.117C128.226 99.3131 127.136 98.8618 126 98.8618C124.864 98.8618 123.774 99.3131 122.971 100.117C122.167 100.92 121.716 102.01 121.716 103.146ZM134.282 107.43H129.427H122.573H117.718V119.424H134.282V107.43ZM126 110.857C125.211 110.857 124.572 111.496 124.572 112.285C124.572 113.073 125.211 113.713 126 113.713C126.789 113.713 127.428 113.073 127.428 112.285C127.428 111.496 126.789 110.857 126 110.857ZM122.858 112.285C122.858 110.55 124.265 109.143 126 109.143C127.735 109.143 129.141 110.55 129.141 112.285C129.141 113.723 128.175 114.935 126.856 115.308V116.854C126.856 117.327 126.473 117.711 125.999 117.711C125.526 117.711 125.143 117.327 125.143 116.854V115.308C123.824 114.935 122.858 113.722 122.858 112.285ZM126 100.575C125.318 100.575 124.664 100.846 124.182 101.328C123.7 101.81 123.43 102.464 123.43 103.146V105.716H128.57V103.146C128.57 102.464 128.299 101.81 127.817 101.328C127.335 100.846 126.682 100.575 126 100.575Z" fill="#F2385A"/>
<defs>
<clipPath id="clip0_87_795">
<rect width="40" height="40" fill="white" transform="translate(106 90)"/>
</clipPath>
</defs>
</svg>
