<svg width="76" height="56" viewBox="0 0 76 56" fill="none" xmlns="http://www.w3.org/2000/svg">
<mask id="mask0_8903_32613" style="mask-type:alpha" maskUnits="userSpaceOnUse" x="0" y="0" width="76" height="56">
<rect width="75.04" height="56" fill="#D9D9D9"/>
</mask>
<g mask="url(#mask0_8903_32613)">
<path d="M43.6661 26.7889L59.7857 21.7957C56.6343 9.64851 44.1182 2.3266 31.83 5.44186C26.2963 6.84474 21.49 10.2358 18.3493 14.9531C18.5841 14.9472 43.6661 26.7889 43.6661 26.7889Z" fill="#0364B8"/>
<path d="M28.2371 17.6531L28.2364 17.6555C25.3374 15.8806 21.9942 14.9425 18.5842 14.9471C18.5054 14.9471 18.4279 14.9522 18.3493 14.9531C8.2064 15.0773 0.0858109 23.306 0.211398 33.3327C0.256924 36.9698 1.40655 40.5095 3.5112 43.4931L43.6661 26.7889L28.2371 17.6531Z" fill="#0078D4"/>
<path d="M59.7857 21.7957C59.4522 21.7737 59.1173 21.7586 58.7782 21.7586C56.7429 21.7566 54.7288 22.1676 52.8606 22.966L43.6661 26.7889L71.9217 43.5197C75.832 36.3436 73.1171 27.3928 65.8578 23.5273C63.9821 22.5285 61.9114 21.938 59.7857 21.7957Z" fill="#1490DF"/>
<path d="M3.5112 43.4931C6.94309 48.3707 12.5738 51.2777 18.5842 51.2746H58.7779C64.2685 51.2762 69.3169 48.2976 71.9217 43.5197L43.6661 26.7889L3.5112 43.4931Z" fill="#28A8EA"/>
</g>
<circle cx="62.16" cy="38.0801" r="13.44" fill="#FFECEF"/>
<g clip-path="url(#clip0_8903_32613)">
<path d="M62.1594 49.276C59.944 49.2767 57.7781 48.6203 55.9357 47.3899C54.0933 46.1596 52.6572 44.4104 51.8091 42.3637C50.9609 40.317 50.7388 38.0648 51.1708 35.8919C51.6029 33.7189 52.6697 31.723 54.2362 30.1564C55.8028 28.5898 57.7988 27.523 59.9717 27.091C62.1446 26.659 64.3969 26.8811 66.4435 27.7292C68.4902 28.5774 70.2394 30.0135 71.4698 31.8559C72.7002 33.6982 73.3565 35.8642 73.3558 38.0796C73.352 41.0479 72.1711 43.8935 70.0722 45.9924C67.9733 48.0913 65.1277 49.2721 62.1594 49.276V49.276ZM62.1594 27.773C60.1208 27.7723 58.1278 28.3761 56.4324 29.5082C54.737 30.6403 53.4154 32.2497 52.6348 34.1329C51.8541 36.0161 51.6495 38.0886 52.0468 40.0881C52.4441 42.0876 53.4254 43.9244 54.8667 45.3662C56.3079 46.808 58.1444 47.7899 60.1438 48.1879C62.1431 48.5859 64.2156 48.382 66.0991 47.602C67.9826 46.822 69.5925 45.501 70.7252 43.806C71.8579 42.111 72.4624 40.1182 72.4624 38.0796C72.4595 35.3476 71.3732 32.7283 69.4418 30.7962C67.5103 28.8641 64.8914 27.7768 62.1594 27.773V27.773Z" fill="#F2385A"/>
</g>
<path fill-rule="evenodd" clip-rule="evenodd" d="M60.0411 34.522V35.9614H57.7876C57.2518 35.9614 56.8425 36.405 56.8425 36.921V43.638C56.8425 44.154 57.2518 44.5976 57.7876 44.5976H67.0926C67.6284 44.5976 68.0377 44.154 68.0377 43.638V36.921C68.0377 36.405 67.6284 35.9614 67.0926 35.9614H64.8391V34.522C64.8391 33.8858 64.5863 33.2756 64.1364 32.8257C63.6865 32.3758 63.0763 32.123 62.4401 32.123C61.8039 32.123 61.1937 32.3758 60.7438 32.8257C60.2939 33.2756 60.0411 33.8858 60.0411 34.522ZM67.0781 36.921H64.3593H60.5209H57.8021V43.638H67.0781V36.921ZM62.4401 38.8401C61.9985 38.8401 61.6404 39.1981 61.6404 39.6398C61.6404 40.0814 61.9985 40.4394 62.4401 40.4394C62.8817 40.4394 63.2398 40.0814 63.2398 39.6398C63.2398 39.1981 62.8817 38.8401 62.4401 38.8401ZM60.6809 39.6398C60.6809 38.6682 61.4685 37.8805 62.4401 37.8805C63.4117 37.8805 64.1993 38.6682 64.1993 39.6398C64.1993 40.4452 63.6581 41.1241 62.9196 41.3329V42.1987C62.9196 42.4637 62.7048 42.6785 62.4398 42.6785C62.1748 42.6785 61.96 42.4637 61.96 42.1987V41.3327C61.2218 41.1238 60.6809 40.4449 60.6809 39.6398ZM62.4401 33.0826C62.0584 33.0826 61.6922 33.2343 61.4223 33.5042C61.1524 33.7741 61.0007 34.1403 61.0007 34.522V35.9614H63.8795V34.522C63.8795 34.1403 63.7278 33.7741 63.4579 33.5042C63.188 33.2343 62.8218 33.0826 62.4401 33.0826Z" fill="#F2385A"/>
<defs>
<clipPath id="clip0_8903_32613">
<rect width="22.4" height="22.4" fill="white" transform="translate(50.96 26.8804)"/>
</clipPath>
</defs>
</svg>
