<svg xmlns="http://www.w3.org/2000/svg" width="88" height="74" viewBox="0 0 88 74">
    <g fill="none" fill-rule="evenodd">
        <g>
            <g>
                <g transform="translate(-676 -236) translate(538 204) translate(138 32)">
                    <rect width="74" height="53" x="7" y="14" fill="#C1D1E0" fill-rule="nonzero" rx="4"/>
                    <path fill="#3C80EF" fill-rule="nonzero" d="M88 61v9c0 2.21-1.79 4-4 4H4c-2.21 0-4-1.79-4-4v-9h30.036c-.024.163-.036.33-.036.5 0 1.933 1.567 3.5 3.5 3.5h20c1.933 0 3.5-1.567 3.5-3.5 0-.17-.012-.337-.036-.5H88z"/>
                    <g fill="#FFF">
                        <path d="M0 7H6V27H0zM10 17H16V27H10zM20 7H26V27H20zM30 0H36V27H30zM40 11H46V27H40z" transform="translate(21 29)"/>
                    </g>
                    <g fill-rule="nonzero" transform="translate(30)">
                        <circle cx="14" cy="14" r="14" fill="#273D57"/>
                        <g fill="#FFF">
                            <path d="M8.804 5.333H3.386V4c0-1.47 1.215-2.667 2.71-2.667C7.588 1.333 8.803 2.53 8.803 4v1.333zm-2.032 6.544v1.456H5.418v-1.456c-.786-.276-1.355-1.009-1.355-1.877 0-1.103.912-2 2.032-2s2.032.897 2.032 2c0 .868-.568 1.601-1.355 1.877zm4.741-6.544H10.16V4c0-2.206-1.823-4-4.064-4-2.24 0-4.063 1.794-4.063 4v1.333H.677C.303 5.333 0 5.632 0 6v9.333c0 .368.303.667.677.667h10.836c.374 0 .677-.299.677-.667V6c0-.368-.303-.667-.677-.667z" transform="translate(8 6)"/>
                        </g>
                    </g>
                </g>
            </g>
        </g>
    </g>
</svg>
