<svg xmlns="http://www.w3.org/2000/svg" width="72" height="72" fill="#fff" fill-rule="nonzero" xmlns:v="https://vecta.io/nano"><path d="M23.986 16.86v-.546A3.316 3.316 0 0 0 20.667 13H11.32A3.316 3.316 0 0 0 8 16.314v41.029A1.66 1.66 0 0 0 9.66 59H56V20.174a3.316 3.316 0 0 0-3.319-3.314H23.986z" fill-opacity=".5"/><path d="M60.685 25H17.56a3.309 3.309 0 0 0-3.246 2.627L8 58.107c.275.53.83.893 1.473.893h48.155a3.306 3.306 0 0 0 3.294-2.928l3.057-27.42C64.197 26.702 62.66 25 60.685 25z" opacity=".9"/></svg>