<svg xmlns="http://www.w3.org/2000/svg" width="65" height="67" viewBox="0 0 65 67">
    <g fill="none" fill-rule="evenodd">
        <path fill="#3C80EF" d="M14.268 46.521c-1.724 0-3.19.602-4.397 1.807-1.206 1.206-1.81 2.668-1.81 4.39 0 1.722.603 3.184 1.81 4.39 1.208 1.205 2.673 1.807 4.397 1.807 1.695 0 3.153-.602 4.375-1.807 1.22-1.204 1.831-2.668 1.831-4.39 0-1.722-.61-3.183-1.831-4.39-1.222-1.204-2.68-1.807-4.375-1.807zM13.703 34.127c0-1.859-.662-3.45-1.988-4.775-1.326-1.324-2.92-1.986-4.782-1.986s-3.456.662-4.782 1.986C.825 30.676.162 32.267.162 34.127c0 1.859.663 3.45 1.989 4.774 1.326 1.324 2.92 1.986 4.782 1.986s3.456-.662 4.782-1.986c1.326-1.324 1.988-2.915 1.988-4.774z"/>
        <path fill="#273D57" d="M50.942 19.479c.93 0 1.728-.331 2.39-.993.663-.662.995-1.458.995-2.388 0-.93-.332-1.725-.995-2.386a3.26 3.26 0 0 0-2.39-.993c-.931 0-1.728.331-2.391.993-.663.662-.994 1.457-.994 2.386 0 .93.331 1.726.994 2.388.663.662 1.46.993 2.391.993z"/>
        <path fill="#5B99FE" d="M14.268 9.338c-2.029 0-3.758.715-5.189 2.143-1.431 1.429-2.146 3.156-2.146 5.18 0 2.026.715 3.753 2.146 5.182 1.431 1.429 3.16 2.143 5.189 2.143 2.028 0 3.758-.715 5.188-2.143 1.431-1.43 2.147-3.156 2.147-5.181s-.716-3.752-2.147-5.18c-1.43-1.43-3.16-2.144-5.188-2.144z"/>
        <path fill="#295295" d="M62.203 30.77c-.768-.767-1.7-1.15-2.797-1.15-1.098 0-2.031.383-2.799 1.15-.768.767-1.151 1.698-1.151 2.794 0 1.095.383 2.028 1.151 2.793.768.767 1.7 1.15 2.799 1.15 1.097 0 2.03-.383 2.797-1.15.769-.766 1.152-1.698 1.152-2.793 0-1.096-.383-2.027-1.152-2.794z"/>
        <path fill="#3C80EF" d="M52.07 47.648c-1.236 0-2.297.442-3.184 1.327-.886.885-1.33 1.945-1.33 3.18 0 1.234.444 2.294 1.33 3.18.887.885 1.948 1.327 3.185 1.327 1.235 0 2.296-.443 3.183-1.328s1.33-1.945 1.33-3.18c0-1.234-.443-2.293-1.33-3.179-.886-.885-1.948-1.327-3.183-1.327zM32.323 55.535c-1.402 0-2.599.496-3.59 1.486-.992.99-1.488 2.185-1.488 3.585s.495 2.593 1.487 3.584c.992.99 2.189 1.486 3.591 1.486 1.402 0 2.598-.496 3.59-1.486s1.488-2.185 1.488-3.584c0-1.4-.496-2.594-1.488-3.585-.992-.99-2.188-1.486-3.59-1.486z"/>
        <path fill="#75A9FF" d="M32.887.324c-2.193 0-4.06.767-5.596 2.3-1.535 1.534-2.303 3.397-2.303 5.588 0 2.19.768 4.053 2.303 5.587 1.537 1.533 3.402 2.3 5.596 2.3 2.195 0 4.06-.767 5.596-2.3 1.535-1.534 2.303-3.396 2.303-5.587 0-2.19-.768-4.053-2.303-5.588-1.536-1.533-3.4-2.3-5.596-2.3z"/>
    </g>
</svg>
