<svg xmlns="http://www.w3.org/2000/svg" width="76" height="57" viewBox="0 0 76 57">
    <g fill="none" fill-rule="evenodd">
        <path fill="#295295" d="M75.37 42.215C75.37 50.38 68.743 57 60.573 57h-45.78C6.623 57 0 50.38 0 42.215 0 34.84 5.402 28.73 12.469 27.613a9.356 9.356 0 0 1-.14-1.599c0-5.173 4.198-9.367 9.377-9.367a9.32 9.32 0 0 1 6.058 2.223c2.911-6.555 6.643-12.537 17.112-12.537 12.696 0 18.714 9.786 18.714 20.112 0 .431-.018.86-.048 1.283 6.749 1.374 11.827 7.337 11.827 14.487z"/>
        <path fill="#3C80EF" d="M74.465 35.881c0 8.166-6.547 14.786-14.619 14.786h-45.23C6.544 50.667 0 44.047 0 35.88c0-7.374 5.337-13.484 12.319-14.602a9.467 9.467 0 0 1-.137-1.598c0-5.174 4.146-9.367 9.263-9.367 2.282 0 4.373.834 5.986 2.223C30.307 5.982 33.994 0 44.337 0c12.544 0 18.49 9.785 18.49 20.111 0 .432-.018.86-.047 1.283 6.667 1.375 11.685 7.338 11.685 14.487z"/>
        <path fill="#FFF" fill-rule="nonzero" d="M36.17 16.286h6.25L33.08 32.57l-3.09-5.573 6.18-10.712zM33.007 32.57H44.79L47.952 38H36.241l-3.233-5.429zm-5.748-.94l3.88 6.297h-7.616l3.736-6.298z"/>
    </g>
</svg>
