<svg xmlns="http://www.w3.org/2000/svg" width="102" height="42" viewBox="0 0 102 42">
    <g fill="none" fill-rule="evenodd">
        <path fill="#3C80EF" d="M77.295 41.108h19.31c2.661 0 4.827-2.255 4.827-5.027V5.92c0-2.772-2.166-5.027-4.827-5.027h-19.31c-2.662 0-4.828 2.255-4.828 5.027V36.08c0 2.772 2.166 5.027 4.828 5.027z"/>
        <path fill="#FFF" d="M77.295 7.388c0-.922.72-1.67 1.609-1.67h16.092c.888 0 1.609.748 1.609 1.67v18.376c0 .922-.721 1.67-1.61 1.67H78.905c-.888 0-1.61-.748-1.61-1.67V7.388zM86.95 37.086a2.416 2.416 0 0 1-2.414-2.412 2.416 2.416 0 0 1 2.414-2.413 2.416 2.416 0 0 1 2.414 2.413 2.416 2.416 0 0 1-2.414 2.412z"/>
        <g fill-rule="nonzero" transform="translate(.054 5.718)">
            <rect width="36.958" height="26.543" x="2.789" fill="#3C80EF" rx="1.609"/>
            <path fill="#295295" d="M.804 27.347h40.23c.445 0 .805.36.805.804v.805c0 .888-.72 1.608-1.609 1.608H1.609C.72 30.564 0 29.844 0 28.956v-.805c0-.444.36-.804.804-.804z"/>
            <rect width="26.551" height="16.086" x="8.046" y="5.63" fill="#FFF" rx="1.609"/>
        </g>
        <g fill="#295295">
            <path d="M69.249 26.228l-6.958-6.032v5.027h-9.939v2.01h9.94v5.028zM62.008 15.57h-9.94v-5.026l-6.957 6.032 6.957 6.033v-5.027h9.94z"/>
        </g>
    </g>
</svg>
