<svg xmlns="http://www.w3.org/2000/svg" width="71" height="58" viewBox="0 0 71 58">
    <g fill="none" fill-rule="evenodd">
        <path fill="#295295" d="M.81 28.465c0-12.948 12.82-23.542 28.487-23.542 15.668 0 28.487 10.594 28.487 23.542 0 12.948-12.82 23.542-28.487 23.542a36.543 36.543 0 0 1-7.121-.706l-13.294 5.18c-.237 0-.474.234-.95.234-.475 0-.949-.235-1.424-.47-.712-.47-.95-1.413-.95-2.119l1.187-11.065C2.947 38.824.811 33.644.811 28.465"/>
        <path fill="#3C80EF" d="M69.992 24.395C69.992 11.447 57.173.853 41.506.853c-15.668 0-28.487 10.594-28.487 23.542 0 12.949 12.82 23.543 28.487 23.543a36.543 36.543 0 0 0 7.121-.707l13.294 5.18c.237 0 .475.235.95.235s.949-.235 1.424-.47c.712-.471.95-1.413.95-2.12l-1.187-11.064c3.798-4.238 5.934-9.417 5.934-14.597"/>
        <path fill="#FFF" d="M31.147 26.75h12.949a2.59 2.59 0 0 1 0 5.18h-12.95a2.59 2.59 0 0 1-2.588-2.59v-.001a2.59 2.59 0 0 1 2.589-2.59M31.147 16.39h20.719a2.589 2.589 0 1 1 0 5.18h-20.72a2.59 2.59 0 0 1 0-5.18"/>
    </g>
</svg>
