<svg width="24" height="24" viewBox="0 0 24 24" fill="none" xmlns="http://www.w3.org/2000/svg">
<path d="M14.8779 11.6786L10.7113 7.13312C10.653 7.06955 10.5788 7.02627 10.4979 7.00873C10.4171 6.9912 10.3333 7.0002 10.2572 7.03461C10.1811 7.06901 10.116 7.12727 10.0702 7.20202C10.0244 7.27677 10 7.36465 10 7.45455V16.5455C10 16.6354 10.0244 16.7232 10.0702 16.798C10.116 16.8727 10.1811 16.931 10.2572 16.9654C10.3333 16.9998 10.4171 17.0088 10.4979 16.9913C10.5788 16.9737 10.653 16.9305 10.7113 16.8669L14.8779 12.3214C14.9166 12.2792 14.9473 12.2291 14.9683 12.174C14.9892 12.1188 15 12.0597 15 12C15 11.9403 14.9892 11.8812 14.9683 11.826C14.9473 11.7709 14.9166 11.7208 14.8779 11.6786Z" fill="currentColor"/>
</svg>
