<svg xmlns="http://www.w3.org/2000/svg" width="65" height="63" viewBox="0 0 65 63">
    <g fill="none" fill-rule="nonzero">
        <path fill="#3C80EF" d="M19.639 18.654a.94.94 0 0 0-.488-.93l-5.249-2.863C18.476 9.596 25.198 6.42 32.33 6.42c13.396 0 24.294 10.775 24.294 24.019 0 1.772 1.452 3.21 3.246 3.21 1.793 0 3.247-1.438 3.247-3.21C63.116 13.654 49.303 0 32.329 0A31.096 31.096 0 0 0 9.445 10.09L6.999 5.714a.95.95 0 0 0-.938-.483.952.952 0 0 0-.812.671L.04 23.44a.935.935 0 0 0 .241.931c.243.24.607.335.94.234l17.739-5.153a.94.94 0 0 0 .68-.798z"/>
        <path fill="#295295" d="M64.27 38.63a.955.955 0 0 0-.94-.235l-17.738 5.153a.937.937 0 1 0-.192 1.728l5.248 2.865c-4.574 5.264-11.296 8.44-18.427 8.44-13.395 0-24.293-10.774-24.293-24.019 0-1.772-1.452-3.21-3.247-3.21-1.792 0-3.247 1.438-3.247 3.21C1.434 49.347 15.248 63 32.221 63 41 63 49.323 59.239 55.106 52.91l2.445 4.377a.955.955 0 0 0 1.75-.188l5.21-17.537a.935.935 0 0 0-.24-.931z"/>
    </g>
</svg>
