<svg width="32" height="32" viewBox="0 0 32 32" fill="none" xmlns="http://www.w3.org/2000/svg">
<g clip-path="url(#clip0_21879_31951)">
<path d="M26.5 30H3.5C3.22388 30 3 29.7761 3 29.5V0.5C3 0.223877 3.22388 0 3.5 0H21L27 5.5V29.5C27 29.7761 26.7761 30 26.5 30Z" fill="#F4FCFF"/>
<path d="M5 28.5C4.72388 28.5 4.5 28.2761 4.5 28V0.999999C4.5 0.447715 4.05228 0 3.5 0V0C3.22388 0 3 0.223877 3 0.5V29.5C3 29.7761 3.22388 30 3.5 30H26.5C26.7761 30 27 29.7761 27 29.5V29.5C27 28.9477 26.5523 28.5 26 28.5H5Z" fill="#4690A4"/>
<path d="M21 0V5C21 5.27612 21.2239 5.5 21.5 5.5H27L21 0Z" fill="#77C2D7"/>
<path d="M12.5114 4.5H6.9205C6.6632 4.5 6.45459 4.70861 6.45459 4.96591V12.4205C6.45459 12.6778 6.6632 12.8864 6.9205 12.8864H12.5114C12.7687 12.8864 12.9773 12.6778 12.9773 12.4205V4.96591C12.9773 4.70861 12.7687 4.5 12.5114 4.5Z" fill="#77C2D7"/>
<path d="M19.0341 15.2159H6.9205C6.6632 15.2159 6.45459 15.0073 6.45459 14.75C6.45459 14.4927 6.6632 14.2841 6.9205 14.2841H19.0341C19.2914 14.2841 19.5 14.4927 19.5 14.75C19.5 15.0073 19.2914 15.2159 19.0341 15.2159Z" fill="#77C2D7"/>
<path d="M19.0341 5.43182H14.375C14.1177 5.43182 13.9091 5.22321 13.9091 4.96591C13.9091 4.70861 14.1177 4.5 14.375 4.5H19.0341C19.2914 4.5 19.5 4.70861 19.5 4.96591C19.5 5.22321 19.2914 5.43182 19.0341 5.43182Z" fill="#77C2D7"/>
<path d="M19.0341 8.69317H14.375C14.1177 8.69317 13.9091 8.48456 13.9091 8.22726C13.9091 7.96997 14.1177 7.76135 14.375 7.76135H19.0341C19.2914 7.76135 19.5 7.96997 19.5 8.22726C19.5 8.48456 19.2914 8.69317 19.0341 8.69317Z" fill="#77C2D7"/>
<path d="M19.0341 11.9545H14.375C14.1177 11.9545 13.9091 11.7459 13.9091 11.4886C13.9091 11.2313 14.1177 11.0227 14.375 11.0227H19.0341C19.2914 11.0227 19.5 11.2313 19.5 11.4886C19.5 11.7459 19.2914 11.9545 19.0341 11.9545Z" fill="#77C2D7"/>
<path d="M19.0341 18.4772H6.9205C6.6632 18.4772 6.45459 18.2686 6.45459 18.0113C6.45459 17.754 6.6632 17.5454 6.9205 17.5454H19.0341C19.2914 17.5454 19.5 17.754 19.5 18.0113C19.5 18.2686 19.2914 18.4772 19.0341 18.4772Z" fill="#77C2D7"/>
<path d="M16.2387 21.7386H6.9205C6.6632 21.7386 6.45459 21.53 6.45459 21.2727C6.45459 21.0154 6.6632 20.8068 6.9205 20.8068H16.2387C16.496 20.8068 16.7046 21.0154 16.7046 21.2727C16.7046 21.53 16.496 21.7386 16.2387 21.7386Z" fill="#77C2D7"/>
<path d="M15.3069 25.0001H6.9205C6.6632 25.0001 6.45459 24.7914 6.45459 24.5341C6.45459 24.2768 6.6632 24.0682 6.9205 24.0682H15.3069C15.5642 24.0682 15.7728 24.2768 15.7728 24.5341C15.7728 24.7914 15.5642 25.0001 15.3069 25.0001Z" fill="#77C2D7"/>
<path d="M24.5 19C20.9158 19 18 21.9158 18 25.5C18 29.0842 20.9158 32 24.5 32C28.0842 32 31 29.0842 31 25.5C31 21.9158 28.0842 19 24.5 19Z" fill="#77C2D7"/>
<path d="M26 31C22.4158 31 19.5 28.0842 19.5 24.5C19.5 22.5686 20.3472 20.8315 21.689 19.6399C19.5085 20.6899 18 22.9221 18 25.5C18 29.0842 20.9158 32 24.5 32C26.1526 32 27.6628 31.3796 28.811 30.3601C27.9597 30.77 27.0063 31 26 31Z" fill="#4690A4"/>
<path d="M29.0125 26.9297C28.9619 26.658 28.7012 26.479 28.4297 26.5293L27.6982 26.665C27.7141 26.623 27.7302 26.5811 27.7468 26.5381C27.8655 26.2351 28 25.8918 28 25.5C28 23.5701 26.4299 22 24.5 22C22.5701 22 21 23.5701 21 25.5C21 27.4626 22.4917 29 24.3958 29C24.6719 29 24.8958 28.7761 24.8958 28.5C24.8958 28.2239 24.6719 28 24.3958 28C23.0525 28 22 26.9019 22 25.5C22 24.1216 23.1216 23 24.5 23C25.8784 23 27 24.1216 27 25.5C27 25.7029 26.9104 25.9316 26.8157 26.1736C26.791 26.2366 26.7668 26.2991 26.7441 26.3604L26.4834 25.3726C26.4131 25.1055 26.1394 24.946 25.8726 25.0166C25.6055 25.0869 25.4463 25.3604 25.5166 25.6274L26.0166 27.5232C26.0825 27.7729 26.3372 27.9346 26.5913 27.8875L28.6121 27.5125C28.8835 27.4622 29.0627 27.2012 29.0125 26.9297Z" fill="#F4FCFF"/>
</g>
<defs>
<clipPath id="clip0_21879_31951">
<rect width="32" height="32" fill="white"/>
</clipPath>
</defs>
</svg>
