<svg xmlns="http://www.w3.org/2000/svg" width="132" height="120" viewBox="0 0 132 120">
    <defs>
        <linearGradient id="6hjexxltja" x1="50%" x2="50%" y1="93.98%" y2="-34.349%">
            <stop offset="0%" stop-color="#ECF3FF"/>
            <stop offset="24.04%" stop-color="#D6E1F2"/>
            <stop offset="52.362%" stop-color="#BFCDE4"/>
            <stop offset="100%" stop-color="#95ABC9"/>
        </linearGradient>
    </defs>
    <g fill="none" fill-rule="evenodd">
        <g>
            <g>
                <g>
                    <g transform="translate(-1269 -518) translate(69 234) translate(1092 122) translate(108 162)">
                        <path fill="#F2F6FA" fill-rule="nonzero" d="M131.748 15.717v44.644c0 3.642.059 47.656.059 47.656l-3.49-4.943-24.63-30.755H31.208C22.54 72.29 15.518 65.27 15.491 56.6V11.95c-.005-3.51 1.178-6.916 3.357-9.667C21.297.789 24.11 0 26.979 0h89.06c8.67.023 15.69 7.048 15.71 15.717z"/>
                        <path fill="url(#6hjexxltja)" d="M116.266 31.208V75.86c0 2.795 0 29.37.05 41.597.006.838-.535 1.583-1.333 1.837-.799.254-1.67-.042-2.15-.729L88.197 87.81H15.717C7.048 87.782.027 80.76 0 72.092V27.441c-.001-3.506 1.181-6.91 3.357-9.66 2.454-1.496 5.273-2.288 8.148-2.29h89.043c8.67.028 15.69 7.048 15.718 15.717z"/>
                        <circle cx="78.014" cy="51.29" r="7" fill="#FFF" fill-rule="nonzero"/>
                        <circle cx="56.014" cy="51.29" r="7" fill="#FFF" fill-rule="nonzero"/>
                        <circle cx="34.014" cy="51.29" r="7" fill="#FFF" fill-rule="nonzero"/>
                    </g>
                </g>
            </g>
        </g>
    </g>
</svg>
