<svg width="48" height="48" viewBox="0 0 48 48" fill="none" xmlns="http://www.w3.org/2000/svg">
<g clip-path="url(#clip0_7266_23549)">
<path d="M9.7383 24.0394C9.7371 24.2351 9.79617 24.4264 9.90758 24.5879C10.019 24.7493 10.1775 24.8731 10.3617 24.9427L16.1803 27.1616C17.1937 27.5484 18.1117 28.1467 18.872 28.916C19.6323 29.6854 20.2172 30.6078 20.5872 31.621L22.8014 37.6948C22.8208 37.7391 22.8475 37.7799 22.8802 37.8157C22.8966 37.8503 22.9158 37.8836 22.9376 37.9152C22.972 37.9589 23.0104 37.9994 23.0522 38.0361C23.1194 38.0987 23.197 38.1493 23.2815 38.1855C23.3314 38.2095 23.3845 38.2262 23.4392 38.2353C23.4915 38.2422 23.5445 38.2422 23.5968 38.2353H23.7688C23.8232 38.2252 23.8761 38.2085 23.9264 38.1855C24.0133 38.1495 24.0933 38.099 24.1629 38.0361C24.2024 37.9992 24.2384 37.9588 24.2704 37.9152L24.3277 37.8299C24.3582 37.7874 24.3846 37.7421 24.4065 37.6948L26.6208 31.6423C26.9907 30.6292 27.5757 29.7067 28.336 28.9373C29.0963 28.168 30.0142 27.5697 31.0277 27.183L36.8462 24.964C37.0369 24.895 37.2009 24.7682 37.3149 24.6016C37.429 24.435 37.4874 24.2371 37.4819 24.0357C37.4763 23.8344 37.4071 23.6398 37.284 23.4797C37.161 23.3195 36.9903 23.2018 36.7961 23.1433L31.4648 21.4719C30.3292 21.1157 29.2939 20.4995 28.4425 19.673C27.591 18.8465 26.9474 17.8328 26.5634 16.7139L24.4137 10.3556C24.3846 10.2872 24.3511 10.2206 24.3134 10.1565C24.2863 10.1177 24.255 10.0819 24.2202 10.0498C24.1387 9.95895 24.0351 9.89039 23.9193 9.85064L23.8118 9.81508H23.6183C23.554 9.80773 23.4891 9.80773 23.4248 9.81508L23.3102 9.85064C23.2102 9.89467 23.1182 9.95474 23.0379 10.0284C23.0052 10.058 22.9763 10.0914 22.9519 10.128C22.8951 10.1953 22.8514 10.2725 22.8229 10.3556L20.6732 16.7139C20.2867 17.8302 19.641 18.8406 18.7883 19.6635C17.9356 20.4863 16.8998 21.0985 15.7647 21.4506L10.4405 23.1219C10.2386 23.1778 10.0607 23.2978 9.93391 23.4634C9.80711 23.6291 9.73841 23.8314 9.7383 24.0394Z" fill="#FFC229"/>
<path d="M27.9463 9.79346C27.9458 9.9287 27.9866 10.0609 28.0633 10.1727C28.1401 10.2844 28.2492 10.3704 28.3762 10.4193L32.3675 11.9413C33.0646 12.2049 33.6962 12.6145 34.2193 13.1422C34.7423 13.67 35.1446 14.3035 35.3986 14.9996L36.9178 19.1602C36.9178 19.1602 36.9178 19.21 36.9679 19.2384C36.9797 19.2613 36.9942 19.2828 37.0109 19.3024C37.0333 19.3364 37.0597 19.3674 37.0898 19.3949C37.1341 19.4361 37.1849 19.4697 37.2402 19.4945L37.3549 19.53H37.577L37.6917 19.4945C37.7485 19.4655 37.8015 19.4297 37.8493 19.3878C37.8791 19.3627 37.9056 19.334 37.9282 19.3024L37.964 19.2526C37.964 19.2171 38.007 19.1957 38.0213 19.1602L39.5404 14.9996C39.792 14.3033 40.1926 13.6694 40.7146 13.1414C41.2366 12.6135 41.8677 12.2041 42.5644 11.9413L46.5772 10.4193C46.7056 10.3716 46.8162 10.286 46.8943 10.1742C46.9724 10.0624 47.0143 9.92954 47.0143 9.79346C47.0128 9.65278 46.9661 9.51624 46.8811 9.40368C46.796 9.29113 46.677 9.20843 46.5414 9.16759L42.8868 8.02253C42.1067 7.77674 41.3956 7.35269 40.8107 6.78448C40.2257 6.21626 39.7833 5.51975 39.5189 4.75093L38.0213 0.384064C38.011 0.337861 37.9966 0.292645 37.9783 0.248933C37.9588 0.223492 37.9373 0.199703 37.9138 0.177812C37.8611 0.11489 37.7916 0.0680432 37.7132 0.0426804C37.6873 0.0363526 37.6602 0.0363526 37.6344 0.0426804C37.5916 0.0359 37.5481 0.0359 37.5054 0.0426804C37.4603 0.0352524 37.4143 0.0352524 37.3692 0.0426804C37.3433 0.0363526 37.3163 0.0363526 37.2904 0.0426804C37.2194 0.0674448 37.1554 0.108932 37.1041 0.163587L37.0468 0.227597C37.0086 0.274015 36.9794 0.327071 36.9608 0.384064L35.4416 4.75093C35.1785 5.51925 34.7373 6.21553 34.1536 6.78376C33.5699 7.35198 32.86 7.77629 32.0809 8.02253L28.4192 9.16759C28.283 9.20743 28.1634 9.28987 28.0781 9.40264C27.9929 9.51542 27.9467 9.65249 27.9463 9.79346Z" fill="#FFE6A1"/>
<path d="M4.24547e-05 38.2566C-0.00149789 38.3921 0.0389106 38.5248 0.115804 38.6367C0.192698 38.7486 0.302368 38.8344 0.429986 38.8825L4.4213 40.4045C5.11834 40.668 5.74993 41.0776 6.27301 41.6054C6.79609 42.1332 7.19836 42.7667 7.4524 43.4627L8.97153 47.6518C8.97153 47.6518 9.00736 47.7016 9.02169 47.73C9.03349 47.753 9.04792 47.7744 9.06469 47.794C9.08479 47.8296 9.11155 47.861 9.14351 47.8865C9.18781 47.9277 9.23865 47.9613 9.29399 47.9861H9.40864H9.63078H9.73827C9.79832 47.959 9.85389 47.923 9.90308 47.8794C9.93238 47.8559 9.95673 47.8269 9.97473 47.794L10.0177 47.7372C10.0385 47.7098 10.0576 47.6813 10.0751 47.6518L11.5942 43.4912C11.8458 42.7949 12.2464 42.161 12.7684 41.6331C13.2904 41.1051 13.9214 40.6957 14.6181 40.433L18.6309 38.8825C18.7561 38.83 18.8636 38.7433 18.941 38.6325C19.0184 38.5217 19.0624 38.3914 19.068 38.2566C19.0665 38.116 19.0198 37.9794 18.9348 37.8669C18.8497 37.7543 18.7308 37.6716 18.5951 37.6308L14.9406 36.4857C14.1605 36.2399 13.4494 35.8159 12.8644 35.2477C12.2795 34.6794 11.837 33.9829 11.5727 33.2141L10.0321 28.8472C10.018 28.7991 9.9962 28.7534 9.96757 28.7121C9.94809 28.6867 9.92652 28.6629 9.90308 28.641C9.84895 28.5796 9.77986 28.5331 9.70244 28.5059H9.62361H9.48746H9.35848H9.27966C9.20862 28.5306 9.14469 28.5721 9.09335 28.6268L9.02886 28.6908C8.99329 28.7389 8.96437 28.7915 8.94287 28.8472L7.48823 33.2141C7.22508 33.9824 6.78391 34.6787 6.2002 35.2469C5.61649 35.8152 4.90655 36.2395 4.1275 36.4857L0.465815 37.6308C0.330911 37.6719 0.212856 37.7549 0.129013 37.8675C0.0451704 37.9802 -3.5999e-05 38.1166 4.24547e-05 38.2566Z" fill="#FFE6A1"/>
<path d="M31.1924 33.9252C31.1933 33.9698 31.2074 34.013 31.2329 34.0497C31.2583 34.0864 31.2941 34.1148 31.3357 34.1315L32.6542 34.6293C32.889 34.713 33.1025 34.8468 33.2796 35.0213C33.4566 35.1958 33.5929 35.4068 33.6789 35.6393L34.1805 37.0119L34.2307 37.0475H34.3955L34.4456 37.0119L34.9472 35.6393C35.0314 35.4103 35.1637 35.2018 35.3355 35.0277C35.5072 34.8535 35.7144 34.7177 35.9433 34.6293L37.3334 34.1386C37.375 34.1219 37.4108 34.0935 37.4362 34.0568C37.4617 34.0201 37.4758 33.9769 37.4767 33.9323C37.4781 33.8853 37.4632 33.8391 37.4346 33.8016C37.4059 33.7641 37.3651 33.7374 37.3191 33.7261L36.1152 33.342C35.8578 33.2629 35.6229 33.1243 35.4298 32.9376C35.2367 32.7509 35.091 32.5215 35.0045 32.2681L34.5173 30.8457C34.521 30.8293 34.521 30.8123 34.5173 30.7959L34.4456 30.7461H34.3095L34.245 30.7888V30.8457L33.7577 32.2681C33.6723 32.522 33.5269 32.752 33.3337 32.9389C33.1405 33.1257 32.905 33.2639 32.647 33.342L31.4432 33.7261C31.4131 33.7198 31.382 33.7202 31.3522 33.7272C31.3223 33.7342 31.2943 33.7478 31.2704 33.7668C31.2464 33.7859 31.2269 33.8099 31.2135 33.8373C31.2 33.8647 31.1928 33.8948 31.1924 33.9252Z" fill="#FFC229"/>
</g>
<defs>
<clipPath id="clip0_7266_23549">
<rect width="48" height="48" fill="white"/>
</clipPath>
</defs>
</svg>
