<svg width="32" height="32" viewBox="0 0 32 32" fill="none" xmlns="http://www.w3.org/2000/svg">
<path d="M23.5823 28.1683C23.594 28.2297 23.5998 28.2921 23.5998 28.3546V29.5519C23.5998 30.1042 23.1521 30.5519 22.5998 30.5519H6C5.44771 30.5519 5 30.1042 5 29.5519V5C5 4.44772 5.44772 4 6 4H7.42606H18.1718C18.6522 4 19.0648 4.34168 19.1543 4.81372L23.5823 28.1683Z" fill="#67A4BA"/>
<path d="M24.4722 1.12585C24.2367 0.884627 23.9151 0.75 23.5787 0.75H9C8.30964 0.75 7.75 1.30964 7.75 2V28C7.75 28.6904 8.30964 29.25 9 29.25H27C27.689 29.25 28.25 28.6957 28.25 28.004V27.9789V27.9535V27.9278V27.9019V27.8757V27.8493V27.8226V27.7957V27.7685V27.7411V27.7135V27.6856V27.6574V27.6291V27.6004V27.5716V27.5425V27.5132V27.4836V27.4538V27.4237V27.3935V27.363V27.3322V27.3013V27.2701V27.2387V27.207V27.1752V27.1431V27.1108V27.0782V27.0455V27.0125V26.9793V26.9459V26.9122V26.8784V26.8443V26.81V26.7755V26.7408V26.7059V26.6708V26.6355V26.6V26.5642V26.5283V26.4921V26.4558V26.4192V26.3824V26.3455V26.3083V26.271V26.2334V26.1957V26.1578V26.1196V26.0813V26.0428V26.0041V25.9652V25.9261V25.8868V25.8474V25.8077V25.7679V25.7279V25.6877V25.6473V25.6068V25.566V25.5251V25.4841V25.4428V25.4014V25.3598V25.318V25.276V25.2339V25.1916V25.1492V25.1066V25.0638V25.0208V24.9777V24.9344V24.891V24.8474V24.8036V24.7597V24.7156V24.6714V24.627V24.5824V24.5378V24.4929V24.4479V24.4028V24.3575V24.312V24.2664V24.2207V24.1748V24.1288V24.0826V24.0363V23.9898V23.9433V23.8965V23.8497V23.8027V23.7555V23.7083V23.6609V23.6133V23.5657V23.5179V23.4699V23.4219V23.3737V23.3254V23.277V23.2284V23.1797V23.1309V23.082V23.033V22.9838V22.9346V22.8852V22.8357V22.7861V22.7363V22.6865V22.6366V22.5865V22.5363V22.4861V22.4357V22.3852V22.3346V22.2839V22.2331V22.1822V22.1312V22.0801V22.0289V21.9776V21.9262V21.8748V21.8232V21.7715V21.7197V21.6679V21.616V21.5639V21.5118V21.4596V21.4073V21.355V21.3025V21.25V21.1973V21.1446V21.0919V21.039V20.9861V20.9331V20.88V20.8268V20.7736V20.7203V20.667V20.6135V20.56V20.5064V20.4528V20.3991V20.3453V20.2915V20.2376V20.1836V20.1296V20.0756V20.0214V19.9672V19.913V19.8587V19.8043V19.7499V19.6955V19.641V19.5864V19.5318V19.4772V19.4225V19.3678V19.313V19.2581V19.2033V19.1484V19.0934V19.0384V18.9834V18.9283V18.8733V18.8181V18.763V18.7078V18.6525V18.5973V18.542V18.4867V18.4313V18.376V18.3206V18.2652V18.2097V18.1543V18.0988V18.0433V17.9878V17.9323V17.8767V17.8211V17.7656V17.71V17.6544V17.5987V17.5431V17.4875V17.4318V17.3762V17.3205V17.2649V17.2092V17.1536V17.0979V17.0422V16.9866V16.9309V16.8752V16.8196V16.7639V16.7083V16.6526V16.597V16.5414V16.4858V16.4302V16.3746V16.319V16.2634V16.2079V16.1524V16.0969V16.0414V15.9859V15.9304V15.875V15.8196V15.7642V15.7089V15.6535V15.5982V15.543V15.4877V15.4325V15.3773V15.3222V15.2671V15.212V15.1569V15.1019V15.0469V14.992V14.9371V14.8823V14.8275V14.7727V14.718V14.6633V14.6087V14.5541V14.4995V14.445V14.3906V14.3362V14.2819V14.2276V14.1734V14.1192V14.0651V14.0111V13.9571V13.9031V13.8493V13.7955V13.7417V13.688V13.6344V13.5809V13.5274V13.474V13.4206V13.3674V13.3142V13.261V13.208V13.155V13.1021V13.0493V12.9965V12.9438V12.8913V12.8388V12.7863V12.734V12.6817V12.6296V12.5775V12.5255V12.4736V12.4217V12.37V12.3184V12.2668V12.2154V12.164V12.1128V12.0616V12.0106V11.9596V11.9087V11.858V11.8073V11.7568V11.7063V11.656V11.6057V11.5556V11.5056V11.4557V11.4059V11.3562V11.3066V11.2572V11.2078V11.1586V11.1095V11.0605V11.0116V10.9629V10.9142V10.8657V10.8173V10.7691V10.7209V10.6729V10.6251V10.5773V10.5297V10.4822V10.4348V10.3876V10.3405V10.2936V10.2468V10.2001V10.1535V10.1071V10.0609V10.0148V9.9688V9.92297V9.87728V9.83174V9.78635V9.7411V9.69601V9.65106V9.60627V9.56163V9.51714V9.47281V9.42863V9.38461V9.34075V9.29704V9.2535V9.21011V9.16689V9.12383V9.08094V9.03821V8.99565V8.95325V8.91102V8.86896V8.82708V8.78536V8.74382V8.70245V8.66125V8.62023V8.57939V8.53872V8.49824V8.45793V8.41781V8.37786V8.3381V8.29853V8.25914V8.21993V8.18092V8.14209V8.10345V8.065V8.02675V7.98868V7.95081V7.91314V7.87566V7.83838V7.80129V7.76441V7.72772V7.69124V7.65496V7.61888V7.58301V7.54734V7.51188V7.47662V7.44158V7.40674V7.37212V7.33771V7.30351V7.26952V7.23575V7.20219V7.16886V7.13574V7.10283V7.07015V7.0377V7.00546V6.97345V6.94166V6.91009V6.87876V6.84765V6.81677V6.78612V6.7557V6.72551V6.69556V6.66584V6.63636V6.60711V6.5781V6.54932V6.52079V6.4925V6.46445V6.43664V6.40907V6.38175V6.35468V6.32785V6.30127V6.27494V6.24885V6.22302V6.19745V6.17212V6.14705V6.12224V6.09768V6.07338V6.04933V6.02555V6.00203V5.97877V5.95577V5.93303V5.91056V5.88836V5.86642V5.84475V5.82335V5.80222V5.78137V5.76078V5.74047V5.72043V5.70067V5.68118V5.66197V5.64304V5.62439V5.60602V5.58793V5.57013V5.55261V5.53537V5.51842V5.50176C28.25 5.17508 28.1232 4.86592 27.8956 4.63269L24.4722 1.12585L24.2938 1.29998L24.4722 1.12585Z" fill="#F1F5F8" stroke="#B2ECFC" stroke-width="0.5"/>
<path d="M17.5001 4C20.7268 4 23.537 5.61454 25 8.0003C23.537 10.3855 20.7268 12 17.5001 12C14.2732 12 11.4631 10.3855 10 8.0003C11.463 5.61454 14.2732 4 17.5001 4Z" fill="#77C2D7"/>
<path d="M30.4836 1C31.3212 1 31.9999 1.67862 31.9999 2.51629C31.9999 3.35396 31.3212 4.03258 30.4836 4.03258C29.6459 4.03258 28.9673 3.35396 28.9673 2.51629C28.9673 1.67862 29.6459 1 30.4836 1Z" fill="#FFA5A7"/>
<path d="M2.17934 22.5654C2.83033 22.5654 3.35867 23.0931 3.35867 23.7448C3.35867 24.3964 2.83033 24.9241 2.17934 24.9241C1.52834 24.9241 1 24.3964 1 23.7448C1 23.0931 1.52834 22.5654 2.17934 22.5654Z" fill="#FFA5A7"/>
<path d="M17.5 5.5C18.8136 5.5 20 6.5 20 8C20 8.82795 19.328 8.5 18.5 8.5C17.6708 8.5 17 7.82795 17 7C17 6.17087 16.6709 5.5 17.5 5.5Z" fill="white"/>
<path d="M19.2239 6.6652C19.2239 6.13371 18.7931 5.70366 18.2624 5.70366C17.7308 5.70366 17.3008 6.13371 17.3008 6.6652C17.3008 7.19594 17.7309 7.62674 18.2624 7.62674C18.7931 7.62674 19.2239 7.19594 19.2239 6.6652ZM17.5 5.5C18.8809 5.5 20 6.61902 20 8C20 9.38022 18.881 10.5 17.5 10.5C16.1191 10.5 15 9.38022 15 8C15 6.61902 16.1191 5.5 17.5 5.5Z" fill="#035970"/>
<path d="M30.8194 6.05383C31.0985 6.05383 31.3248 5.82754 31.3248 5.5484C31.3248 5.26926 31.0985 5.04297 30.8194 5.04297C30.5403 5.04297 30.314 5.26926 30.314 5.5484C30.314 5.82754 30.5403 6.05383 30.8194 6.05383Z" fill="#FFF8E3"/>
<path d="M29.4713 18.1847C29.7504 18.1847 29.9767 17.9584 29.9767 17.6793C29.9767 17.4001 29.7504 17.1738 29.4713 17.1738C29.1921 17.1738 28.9658 17.4001 28.9658 17.6793C28.9658 17.9584 29.1921 18.1847 29.4713 18.1847Z" fill="#FFF8E3"/>
<path d="M27.4503 31.3253C27.7294 31.3253 27.9557 31.099 27.9557 30.8199C27.9557 30.5407 27.7294 30.3145 27.4503 30.3145C27.1711 30.3145 26.9448 30.5407 26.9448 30.8199C26.9448 31.099 27.1711 31.3253 27.4503 31.3253Z" fill="#FFF8E3"/>
<path d="M5.211 2.01086C5.49014 2.01086 5.71643 1.78457 5.71643 1.50543C5.71643 1.22629 5.49014 1 5.211 1C4.93186 1 4.70557 1.22629 4.70557 1.50543C4.70557 1.78457 4.93186 2.01086 5.211 2.01086Z" fill="#FFF8E3"/>
<path d="M3.52691 20.2062C3.80606 20.2062 4.03234 19.9799 4.03234 19.7007C4.03234 19.4216 3.80606 19.1953 3.52691 19.1953C3.24777 19.1953 3.02148 19.4216 3.02148 19.7007C3.02148 19.9799 3.24777 20.2062 3.52691 20.2062Z" fill="#FFF8E3"/>
<path d="M2.17828 10.0978C2.45742 10.0978 2.68371 9.87149 2.68371 9.59234C2.68371 9.3132 2.45742 9.08691 2.17828 9.08691C1.89914 9.08691 1.67285 9.3132 1.67285 9.59234C1.67285 9.87149 1.89914 10.0978 2.17828 10.0978Z" fill="#FFF8E3"/>
<path d="M25.0617 25.5051H10.3674C10.1645 25.5051 10 25.3374 10 25.1305C10 24.9235 10.1645 24.7559 10.3674 24.7559H25.0617C25.2646 24.7559 25.429 24.9235 25.429 25.1305C25.429 25.3374 25.2646 25.5051 25.0617 25.5051Z" fill="#4690A4"/>
<path d="M25.0617 22.7551H10.3674C10.1645 22.7551 10 22.5874 10 22.3805C10 22.1735 10.1645 22.0059 10.3674 22.0059H25.0617C25.2646 22.0059 25.429 22.1735 25.429 22.3805C25.429 22.5874 25.2646 22.7551 25.0617 22.7551Z" fill="#4690A4"/>
<path d="M25.0617 20.0061H10.3674C10.1645 20.0061 10 19.8384 10 19.6314C10 19.4245 10.1645 19.2568 10.3674 19.2568H25.0617C25.2646 19.2568 25.429 19.4245 25.429 19.6314C25.429 19.8384 25.2646 20.0061 25.0617 20.0061Z" fill="#4690A4"/>
<path d="M25.0617 17.257H10.3674C10.1645 17.257 10 17.0894 10 16.8824C10 16.6755 10.1645 16.5078 10.3674 16.5078H25.0617C25.2646 16.5078 25.429 16.6755 25.429 16.8824C25.429 17.0894 25.2646 17.257 25.0617 17.257Z" fill="#4690A4"/>
</svg>
