<svg width="64" height="64" viewBox="0 0 64 64" fill="none" xmlns="http://www.w3.org/2000/svg">
<path d="M56 3H8C3.58933 3 0 6.54855 0 10.9091V53.0909C0 57.4515 3.58933 61 8 61H56C60.4107 61 64 57.4515 64 53.0909V10.9091C64 6.54855 60.4107 3 56 3Z" fill="#67A4BA"/>
<path d="M55.9999 56H7.99992C6.53059 56 5.33325 54.8053 5.33325 53.3333V16H58.6666V53.3333C58.6666 54.8053 57.4693 56 55.9999 56Z" fill="white"/>
<path d="M45.125 50H15.875C13.1868 50 11 48.1445 11 45.8636V28.1364C11 25.8555 13.1868 24 15.875 24H45.125C47.8132 24 50 25.8555 50 28.1364V45.8636C50 48.1445 47.8132 50 45.125 50Z" fill="#8EDEF4"/>
<path d="M32 3H8C3.58933 3 0 6.54855 0 10.9091V53.0909C0 57.4515 3.58933 61 8 61H32V55.7273H8C6.53067 55.7273 5.33333 54.5462 5.33333 53.0909V16.1818H32V3Z" fill="#4690A4"/>
<path d="M31.9999 16H5.33325V53.3333C5.33325 54.8053 6.53059 56 7.99992 56H31.9999V50H15.3333C12.7599 50 10.6666 48.24 10.6666 45.6667V28.6667C10.6666 26.0933 12.7599 24 15.3333 24H31.9999V16Z" fill="#DEDEDE"/>
<path d="M32.0001 24H15.3334C12.7601 24 10.6667 25.8555 10.6667 28.1364V45.8636C10.6667 48.1445 12.7601 50 15.3334 50H32.0001V24Z" fill="#77C2D7"/>
<path d="M46.0001 33.3333C41.9547 33.3333 38.6667 30.0453 38.6667 26C38.6667 21.9547 41.9547 18.6667 46.0001 18.6667C50.0454 18.6667 53.3334 21.9547 53.3334 26C53.3334 30.0453 50.0454 33.3333 46.0001 33.3333Z" fill="#FF768F"/>
<path d="M46.0001 18.6667C41.9547 18.6667 38.6667 21.9547 38.6667 26C38.6667 30.0453 41.9547 33.3333 46.0001 33.3333V18.6667Z" fill="#F2385A"/>
</svg>
