<svg width="32" height="32" viewBox="0 0 32 32" fill="none" xmlns="http://www.w3.org/2000/svg">
<g clip-path="url(#clip0_23568_33793)">
<path d="M0.65625 0.65625V27.5293H11.2912H27.5293V0.65625H0.65625Z" fill="#F4FCFF"/>
<path d="M5.61731 4.88965V10.3962H8.61018V8.83859H12.1183V20.5976H10.6959V23.5905H17.4897V20.5976H16.0672V8.83859H19.5754V10.3962H22.5682V4.88965H5.61731Z" fill="#B2ECFC"/>
<path d="M27.5293 31.3437C29.636 31.3437 31.3438 29.6359 31.3438 27.5293C31.3438 25.4226 29.636 23.7148 27.5293 23.7148C25.4227 23.7148 23.7149 25.4226 23.7149 27.5293C23.7149 29.6359 25.4227 31.3437 27.5293 31.3437Z" fill="#B2ECFC"/>
<path d="M14.0891 28.1768C14.4342 28.1768 14.7141 27.8969 14.7141 27.5518C14.7141 27.2066 14.4342 26.9268 14.0891 26.9268C13.7439 26.9268 13.4641 27.2066 13.4641 27.5518C13.4641 27.8969 13.7439 28.1768 14.0891 28.1768Z" fill="#4690A4"/>
<path d="M10.6855 19.9806C10.3396 19.9806 10.0593 20.261 10.0593 20.6068V23.6055C10.0593 23.9513 10.3396 24.2318 10.6855 24.2318H17.4926C17.8385 24.2318 18.1188 23.9514 18.1188 23.6055V20.6068C18.1188 20.261 17.8385 19.9806 17.4926 19.9806H16.6936V9.45089H18.9562V10.3853C18.9562 10.7311 19.2366 11.0116 19.5825 11.0116H22.5811C22.927 11.0116 23.2074 10.7312 23.2074 10.3853V4.86795C23.2074 4.52214 22.927 4.2417 22.5811 4.2417H5.59701C5.25114 4.2417 4.97076 4.52207 4.97076 4.86795V10.3853C4.97076 10.7311 5.25114 11.0116 5.59701 11.0116H8.59576C8.94164 11.0116 9.22201 10.7312 9.22201 10.3853V9.45089H11.4846V19.9806H10.6855ZM12.1108 8.19845H8.59576C8.24989 8.19845 7.96951 8.47882 7.96951 8.8247V9.75914H6.2232V5.4942H21.9548V9.75914H20.2086V8.8247C20.2086 8.47889 19.9282 8.19845 19.5823 8.19845H16.0673C15.7215 8.19845 15.4411 8.47882 15.4411 8.8247V20.6068C15.4411 20.9526 15.7215 21.2331 16.0673 21.2331H16.8663V22.9793H11.3116V21.2331H12.1106C12.4565 21.2331 12.7369 20.9527 12.7369 20.6068V8.8247C12.737 8.47882 12.4566 8.19845 12.1108 8.19845Z" fill="#4690A4"/>
<path d="M28.9287 26.9257H28.1781V26.1751C28.1781 25.8293 27.8977 25.5488 27.5519 25.5488C27.206 25.5488 26.9256 25.8292 26.9256 26.1751V26.9257H26.175C25.8291 26.9257 25.5487 27.2061 25.5487 27.552C25.5487 27.8978 25.8291 28.1782 26.175 28.1782H26.9256V28.9288C26.9256 29.2746 27.206 29.5551 27.5519 29.5551C27.8977 29.5551 28.1781 29.2747 28.1781 28.9288V28.1782H28.9287C29.2746 28.1782 29.555 27.8978 29.555 27.552C29.555 27.2061 29.2745 26.9257 28.9287 26.9257Z" fill="#4690A4"/>
<path d="M28.1781 23.1488V0.62625C28.1781 0.280438 27.8977 0 27.5519 0H0.62625C0.280375 0 0 0.280375 0 0.62625V27.5519C0 27.8977 0.280375 28.1781 0.62625 28.1781H11.282C11.6279 28.1781 11.9082 27.8977 11.9082 27.5519C11.9082 27.206 11.6279 26.9256 11.282 26.9256H1.25244V1.25244H26.9257V23.1487C24.9733 23.4251 23.4251 24.9732 23.1487 26.9256H16.8961C16.5503 26.9256 16.2699 27.206 16.2699 27.5519C16.2699 27.8977 16.5503 28.1781 16.8961 28.1781H23.1487C23.4541 30.3353 25.3117 32 27.5519 32C30.0046 32 32 30.0046 32 27.5519C32 25.3118 30.3353 23.4541 28.1781 23.1488ZM27.5519 30.7476C25.7897 30.7476 24.3562 29.314 24.3562 27.5519C24.3562 25.7897 25.7897 24.3563 27.5519 24.3563C29.314 24.3563 30.7476 25.7897 30.7476 27.5519C30.7476 29.3139 29.314 30.7476 27.5519 30.7476Z" fill="#4690A4"/>
</g>
<defs>
<clipPath id="clip0_23568_33793">
<rect width="32" height="32" fill="white"/>
</clipPath>
</defs>
</svg>
