<svg width="48" height="48" viewBox="0 0 48 48" fill="none" xmlns="http://www.w3.org/2000/svg">
<circle cx="24" cy="24" r="24" fill="#E0FFEE"/>
<g clip-path="url(#clip0_1:2708)">
<path d="M24.002 44C20.7144 43.9994 17.4776 43.1884 14.5782 41.6387C11.6788 40.089 9.20607 37.8485 7.37893 35.1154C5.5518 32.3823 4.42658 29.2409 4.10287 25.9693C3.77916 22.6977 4.26694 19.3967 5.52304 16.3585C6.77914 13.3204 8.76482 10.6387 11.3043 8.55086C13.8439 6.46302 16.8589 5.03341 20.0826 4.38854C23.3063 3.74366 26.6393 3.90343 29.7866 4.85369C32.9338 5.80395 35.7983 7.5154 38.1265 9.83658C38.2761 9.98621 38.3602 10.1892 38.3602 10.4008C38.3602 10.6124 38.2761 10.8153 38.1265 10.965C37.9769 11.1146 37.7739 11.1987 37.5623 11.1987C37.3507 11.1987 37.1477 11.1146 36.9981 10.965C33.8045 7.78162 29.5517 5.8839 25.0495 5.63314C20.5473 5.38237 16.1101 6.79609 12.5828 9.6051C9.05541 12.4141 6.68428 16.4222 5.92082 20.8663C5.15736 25.3104 6.05491 29.8801 8.44257 33.7052C10.8302 37.5304 14.5412 40.3439 18.869 41.61C23.1968 42.8762 27.8391 42.5066 31.9119 40.5715C35.9848 38.6365 39.2039 35.2712 40.9561 31.1164C42.7084 26.9616 42.8715 22.3075 41.4144 18.0402C41.3775 17.8506 41.4107 17.654 41.5078 17.487C41.6048 17.32 41.7592 17.1939 41.9422 17.1321C42.1252 17.0703 42.3245 17.077 42.5029 17.151C42.6814 17.225 42.8269 17.3612 42.9125 17.5344C43.9376 20.5439 44.2309 23.7543 43.7682 26.8998C43.3055 30.0452 42.1 33.0352 40.2516 35.622C38.4033 38.2088 35.9652 40.318 33.1394 41.775C30.3136 43.2319 27.1813 43.9947 24.002 44Z" fill="#20C9AD"/>
<path d="M24.7522 29.5577C24.6474 29.5581 24.5435 29.5377 24.4467 29.4976C24.3498 29.4576 24.2619 29.3986 24.188 29.3243L19.2658 24.4021C19.1162 24.2525 19.0321 24.0495 19.0321 23.8379C19.0321 23.6263 19.1162 23.4233 19.2658 23.2737C19.4154 23.1241 19.6184 23.04 19.83 23.04C20.0416 23.04 20.2446 23.1241 20.3942 23.2737L24.7522 27.6252L41.2308 11.1336C41.304 11.0579 41.3916 10.9977 41.4886 10.9566C41.5855 10.9155 41.6897 10.8943 41.795 10.8943C41.9003 10.8943 42.0045 10.9155 42.1014 10.9566C42.1983 10.9977 42.286 11.0579 42.3592 11.1336C42.4333 11.2077 42.4921 11.2956 42.5322 11.3925C42.5723 11.4893 42.593 11.593 42.593 11.6978C42.593 11.8026 42.5723 11.9064 42.5322 12.0032C42.4921 12.1 42.4333 12.1879 42.3592 12.262L25.3034 29.3178C25.1576 29.466 24.96 29.552 24.7522 29.5577Z" fill="#20C9AD"/>
</g>
<defs>
<clipPath id="clip0_1:2708">
<rect width="40" height="40" fill="white" transform="translate(4 4)"/>
</clipPath>
</defs>
</svg>
