<svg width="48" height="48" viewBox="0 0 48 48" fill="none" xmlns="http://www.w3.org/2000/svg">
<g clip-path="url(#clip0_10168_9095)">
<path d="M41.3259 43.6524C41.1973 43.8293 41.0686 44.0062 40.9239 44.167C40.6344 44.5047 40.3128 44.7942 39.943 45.0675C39.3801 45.3731 38.5761 45.6464 37.6113 45.8876C36.9198 46.0645 36.1318 46.2092 35.2796 46.354C33.4785 46.6434 31.3559 46.8364 29.0403 46.9007C28.381 46.9168 27.6895 46.9329 26.998 46.9329C26.3709 46.9329 25.7437 46.9329 25.1327 46.9007C22.9618 46.8364 20.9517 46.6756 19.215 46.4344C18.8612 46.3861 18.5235 46.3218 18.1858 46.2736C16.6903 46.0163 15.4682 45.6947 14.5677 45.3248C13.9888 44.9871 13.4742 44.5851 13.04 44.1027C12.0591 42.9931 11.5124 41.4815 11.5928 39.3911C11.6732 37.4614 12.3646 36.0463 12.8149 34.6312C13.1848 33.4734 13.3777 32.3316 12.9596 30.8844C12.0269 27.7326 11.1425 27.7004 11.1104 27.7004C11.1908 27.7004 13.2491 27.6361 14.9858 28.5044C16.7547 29.405 17.7034 31.3186 17.7034 31.3186C17.7034 31.3186 17.4944 25.9155 22.206 21.3646C26.9176 16.8138 31.6293 12.1665 31.6293 12.1665C31.6293 12.1665 31.2112 15.3987 33.3177 19.0651C35.4243 22.7315 37.1128 24.9828 37.9811 27.411C38.8495 29.8391 38.351 32.2673 38.351 32.2673C38.351 32.2673 39.5088 30.7718 40.6987 30.1608C41.9048 29.5497 43.143 28.9065 43.143 28.9065C43.143 28.9065 42.7732 31.3346 43.0626 33.9236C43.1269 34.4543 43.1752 35.0332 43.2073 35.6603C43.336 38.0885 43.0787 41.1438 41.3259 43.6524Z" fill="#F2385A"/>
<path d="M41.3264 43.6524C41.1977 43.8292 41.0691 45.0061 40.9243 45.1669C40.6349 45.5046 40.3133 45.7941 39.9434 46.0674C39.3806 46.373 38.5766 46.6464 37.6117 46.8876C36.9203 47.0644 36.1323 47.2092 35.28 47.3539C33.479 47.6434 31.3563 47.8363 29.0407 47.9006C28.3814 47.9167 27.69 47.9328 26.9985 47.9328C26.3713 47.9328 25.7442 47.9328 25.1331 47.9006C22.9622 47.8363 20.9522 47.6755 19.2155 47.4343C18.8617 47.3861 18.524 47.3217 18.1863 47.2735C16.6908 47.0162 15.4687 46.6946 14.5681 46.3247C13.9892 45.987 12.9995 45.5 12.4997 44C11.9995 42.5 11.5128 41.4815 11.5932 39.391C11.6736 37.4613 12.3651 36.0462 12.8154 34.6311C13.346 37.011 15.9832 42.6714 27.899 42.6714C37.4992 42.6714 41.5032 38.8442 43.1917 35.6281C43.3364 38.0884 43.0792 41.1438 41.3264 43.6524Z" fill="#FFB65F"/>
<path d="M27.9454 47.5462C24.3112 47.6105 21.9473 47.321 19.2458 45.4074C16.7372 43.6225 15.6759 41.7089 15.8045 38.6375C15.9332 35.5661 15.0005 33.958 15.0005 33.958C15.0005 33.958 16.6407 34.3439 18.6026 35.7269C20.5644 37.1098 21.7383 39.1521 21.7383 39.1521C21.7383 39.1521 20.1785 33.4595 23.1373 27.8313C25.7745 22.8141 29.3123 20 29.3123 20C29.3123 20 34.3777 26.4644 34.635 31.7067C34.8923 36.9329 33.3968 39.9561 33.3968 39.9561C33.3968 39.9561 34.844 38.8144 36.5003 37.9621C38.1566 37.1098 40.2954 36.6917 40.2954 36.6917C40.2954 36.6917 39.4592 39.6988 38.8963 41.8858C38.1727 44.4748 35.23 47.4336 27.9454 47.5462Z" fill="#F2BE38"/>
<path d="M31.8345 7.32471C31.8345 7.32471 32.4455 8.41819 32.3651 9.23831C32.2847 10.0584 31.931 10.8785 31.931 10.8785C31.931 10.8785 33.2657 10.4926 33.4265 9.20614C33.5873 7.91969 31.8345 7.32471 31.8345 7.32471Z" fill="#FEC272"/>
<path d="M17.8973 24.2268C17.8973 24.2268 17.8491 22.9886 19.0069 21.8469C19.9556 20.9142 20.4702 20.5604 20.6793 19.4669C20.8883 18.3574 20.3255 17.6016 20.3255 17.6016C20.3255 17.6016 20.1004 18.8076 18.9104 20.0137C17.5757 21.3644 17.4149 23.1333 17.8973 24.2268Z" fill="#FEC272"/>
<path d="M39.9273 26.7344C39.9273 26.7344 39.8147 25.0138 39.059 24.0007C38.3032 22.9876 37.6117 22.4248 37.4509 21.6851C37.2901 20.9293 37.4348 20.6238 37.4348 20.6238C37.4348 20.6238 38.7695 21.2188 39.67 22.7303C40.8278 24.6279 39.9273 26.7344 39.9273 26.7344Z" fill="#FEC272"/>
<path d="M7.36475 28.5204C7.36475 28.5204 8.63512 28.8259 9.00497 30.4983C9.43915 32.4602 9.27835 33.1516 9.34267 33.9074C9.45523 35.1296 10.1145 35.8049 10.1145 35.8049C10.1145 35.8049 9.82509 34.5989 10.1789 33.3607C10.4683 32.3637 11.1115 31.238 10.7417 29.8712C10.3397 28.3757 8.28134 27.6681 7.36475 28.5204Z" fill="#FEC272"/>
<path d="M46.9566 31.2703C46.9566 31.2703 45.1395 31.9135 44.834 33.2964C44.5284 34.6633 45.0269 35.7889 45.0269 35.7889C45.0269 35.7889 46.0561 35.1939 46.1043 34.213C46.1526 33.2321 46.3455 31.8009 46.9566 31.2703Z" fill="#FEC272"/>
<path d="M2.81934 35.8346L4.4802 33.7949C4.4802 33.7949 5.0921 35.179 6.17021 36.4611C7.24832 37.7286 8.13703 38.4424 8.13703 38.4424L5.68943 39.7537C5.68943 39.7391 3.43124 37.6266 2.81934 35.8346Z" fill="#F2BE38"/>
<path d="M17.5 47.5C14.9054 46.8474 13.0196 46.1374 12.5477 45.3589L12.4368 45.1245L11.4956 40.6193L15.8377 39.3267L17.0368 43.2099L17.5 47.5Z" fill="#FFF1CC"/>
<path d="M41.8236 42.9027L41.1226 44.8689C40.9906 45.233 40.7982 45.5778 40.4778 45.7955C39.7089 46.318 38.294 46.8972 37.5 46.5L38.9507 43.1863L39.3441 42.1659L41.8236 42.9027Z" fill="#FFF1CC"/>
<path d="M8.56104 17.6815L11.6008 16.1909C11.6008 16.1909 11.6008 17.2585 12.1905 18.8599C12.7802 20.4613 13.1868 21.0455 13.1868 21.0455L10.7977 22.667C10.7977 22.667 10.0149 21.3879 9.31336 19.8369C8.61187 18.2959 8.56104 17.6815 8.56104 17.6815Z" fill="#F2385A"/>
<path d="M41.8086 14.0328C41.8086 14.0328 42.4309 15.7183 42.6643 16.8463C42.9106 17.9743 42.9106 18.3892 42.9106 18.3892L45.2833 18.5318C45.2833 18.5318 45.6204 17.2223 44.9462 15.3034C44.259 13.3846 43.883 12.866 43.883 12.866L41.8086 14.0328Z" fill="#F2BE38"/>
<path d="M48.5969 35.3738C48.5969 35.3738 48.5969 36.1998 48.0187 37.8015C47.4404 39.4032 47.3501 39.6953 47.3501 39.6953L49.0486 40.8135C49.0486 40.8135 49.6901 39.8767 50.2232 38.0936C50.7562 36.3106 50.8194 35.0312 50.8194 35.0312L48.5969 35.3738Z" fill="#F2385A"/>
<path d="M14.9056 10.6497L18.3308 13.898L14.1016 12.306L14.9056 10.6497Z" fill="#FFF1CC"/>
<path d="M47.7922 21.1394L46.6826 24.3716L49.3359 22.8922L47.7922 21.1394Z" fill="#FFF1CC"/>
<path d="M21.8594 6.63723L25.3167 10.1267L24.3358 4L21.8594 6.63723Z" fill="#FFF1CC"/>
</g>
<defs>
<clipPath id="clip0_10168_9095">
<rect width="48" height="48" fill="white"/>
</clipPath>
</defs>
</svg>
