<svg width="32" height="32" viewBox="0 0 32 32" fill="none" xmlns="http://www.w3.org/2000/svg">
<path fill-rule="evenodd" clip-rule="evenodd" d="M2 16C2 23.727 8.273 30 16 30C23.727 30 30 23.727 30 16C30 8.273 23.727 2 16 2C8.273 2 2 8.273 2 16Z" fill="#F4FCFF"/>
<path fill-rule="evenodd" clip-rule="evenodd" d="M15.9679 3.00098C8.78953 3.00098 2.96191 8.82859 2.96191 16.007C2.96191 23.1854 8.78953 29.013 15.9679 29.013C13.8145 25.9779 12.0661 21.1954 12.0661 16.007C12.0661 10.8185 13.8145 6.03602 15.9679 3.00098Z" fill="#B2ECFC"/>
<path fill-rule="evenodd" clip-rule="evenodd" d="M2 16C2 23.727 8.273 30 16 30C23.727 30 30 23.727 30 16C30 8.273 23.727 2 16 2C8.273 2 2 8.273 2 16ZM4 16C4 9.377 9.377 4 16 4C22.623 4 28 9.377 28 16C28 22.623 22.623 28 16 28C9.377 28 4 22.623 4 16Z" fill="#035970"/>
<path fill-rule="evenodd" clip-rule="evenodd" d="M21.0452 20.9785H11.0482C10.4968 20.9785 10.0485 21.4268 10.0485 21.9782C10.0485 22.5296 10.4968 22.9779 11.0482 22.9779H21.0452C21.5966 22.9779 22.0449 22.5296 22.0449 21.9782C22.0449 21.4268 21.5966 20.9785 21.0452 20.9785Z" fill="#F2385A"/>
<path fill-rule="evenodd" clip-rule="evenodd" d="M20.5256 13.5383C17.1892 16.8763 17.6384 16.4271 16.1223 17.9425C16.0892 17.977 16.0419 17.9968 15.993 17.9968C15.9442 17.9968 15.8969 17.977 15.8638 17.9425C14.3887 16.4678 11.4841 13.5605 11.4841 13.5605C11.0933 13.1706 10.4597 13.1706 10.0689 13.5605C9.67958 13.9517 9.67958 14.5847 10.0689 14.9759C10.0689 14.9759 12.975 17.882 14.4486 19.3579C14.8583 19.7675 15.4146 19.9971 15.993 19.9971C16.5714 19.9971 17.1278 19.7675 17.5375 19.3579C19.0521 17.8425 18.6029 18.2904 21.9393 14.9525C22.3301 14.5625 22.3301 13.9283 21.9393 13.5383C21.55 13.1471 20.9165 13.1471 20.5256 13.5383Z" fill="#F2385A"/>
<path fill-rule="evenodd" clip-rule="evenodd" d="M15 9.81521V18.3202C15 18.8725 15.448 19.321 16 19.321C16.552 19.321 17 18.8725 17 18.3202V9.81521C17 9.26295 16.552 8.81445 16 8.81445C15.448 8.81445 15 9.26295 15 9.81521Z" fill="#F2385A"/>
</svg>
