<svg width="32" height="32" viewBox="0 0 32 32" fill="none" xmlns="http://www.w3.org/2000/svg">
<path d="M24.6668 2.45801V29.5413C24.6668 30.4405 23.941 31.1663 23.0418 31.1663H8.9585C8.05933 31.1663 7.3335 30.4405 7.3335 29.5413V2.45801C7.3335 1.55884 8.05933 0.833008 8.9585 0.833008H23.0418C23.941 0.833008 24.6668 1.55884 24.6668 2.45801Z" fill="#035970"/>
<path d="M23.5832 5.16634V26.833C23.5832 27.4288 23.0957 27.9163 22.4998 27.9163H9.49984C8.904 27.9163 8.4165 27.4288 8.4165 26.833V5.16634C8.4165 4.57051 8.904 4.08301 9.49984 4.08301H22.4998C23.0957 4.08301 23.5832 4.57051 23.5832 5.16634Z" fill="#F2BE38"/>
<path d="M23.5832 5.16634V26.833C23.5832 27.4288 23.0957 27.9163 22.4998 27.9163H9.49984C8.904 27.9163 8.4165 27.4288 8.4165 26.833V5.16634C8.4165 4.57051 8.904 4.08301 9.49984 4.08301H22.4998C23.0957 4.08301 23.5832 4.57051 23.5832 5.16634Z" fill="#F2BE38"/>
<path d="M14.3752 26.2913C14.6743 26.2913 14.9168 26.0488 14.9168 25.7497C14.9168 25.4505 14.6743 25.208 14.3752 25.208C14.076 25.208 13.8335 25.4505 13.8335 25.7497C13.8335 26.0488 14.076 26.2913 14.3752 26.2913Z" fill="#F2385A"/>
<path d="M16.0002 26.2913C16.2993 26.2913 16.5418 26.0488 16.5418 25.7497C16.5418 25.4505 16.2993 25.208 16.0002 25.208C15.701 25.208 15.4585 25.4505 15.4585 25.7497C15.4585 26.0488 15.701 26.2913 16.0002 26.2913Z" fill="#035970"/>
<path d="M17.6252 26.2913C17.9243 26.2913 18.1668 26.0488 18.1668 25.7497C18.1668 25.4505 17.9243 25.208 17.6252 25.208C17.326 25.208 17.0835 25.4505 17.0835 25.7497C17.0835 26.0488 17.326 26.2913 17.6252 26.2913Z" fill="#1DA38E"/>
<path d="M23.5832 5.16634V5.70801C23.5832 5.11217 23.0957 4.62467 22.4998 4.62467H9.49984C8.904 4.62467 8.4165 5.11217 8.4165 5.70801V5.16634C8.4165 4.57051 8.904 4.08301 9.49984 4.08301H22.4998C23.0957 4.08301 23.5832 4.57051 23.5832 5.16634Z" fill="#D18F0B"/>
<path d="M16.9634 12.2556L17.7504 13.7924C17.9113 14.106 18.2146 14.3221 18.5635 14.3709L20.2556 14.6081C21.1554 14.7343 21.5085 15.8464 20.8466 16.4682L19.6739 17.5699C19.4074 17.8202 19.2855 18.188 19.3494 18.5482L19.6333 20.1429C19.7898 21.0214 18.8749 21.7012 18.0787 21.2977L16.4894 20.4922C16.1818 20.3362 15.8189 20.3362 15.5112 20.4922L13.9219 21.2977C13.1257 21.7012 12.2114 21.0214 12.3674 20.1429L12.6512 18.5482C12.7151 18.188 12.5932 17.8202 12.3267 17.5699L11.154 16.4682C10.4916 15.8458 10.8447 14.7338 11.745 14.6081L13.4371 14.3709C13.786 14.3221 14.0899 14.106 14.2502 13.7924L15.0372 12.2556C15.4391 11.4708 16.5615 11.4708 16.9634 12.2556Z" fill="#D18F0B"/>
<path d="M17.0833 30.0833H14.9167C14.6177 30.0833 14.375 29.8407 14.375 29.5417C14.375 29.2427 14.6177 29 14.9167 29H17.0833C17.3823 29 17.625 29.2427 17.625 29.5417C17.625 29.8407 17.3823 30.0833 17.0833 30.0833Z" fill="#102D42"/>
<path d="M18.1668 3.00033H16.0002C15.7006 3.00033 15.4585 2.7582 15.4585 2.45866C15.4585 2.15912 15.7006 1.91699 16.0002 1.91699H18.1668C18.4664 1.91699 18.7085 2.15912 18.7085 2.45866C18.7085 2.7582 18.4664 3.00033 18.1668 3.00033Z" fill="#102D42"/>
<path d="M14.3752 3.00033C14.6743 3.00033 14.9168 2.75781 14.9168 2.45866C14.9168 2.1595 14.6743 1.91699 14.3752 1.91699C14.076 1.91699 13.8335 2.1595 13.8335 2.45866C13.8335 2.75781 14.076 3.00033 14.3752 3.00033Z" fill="#102D42"/>
<path d="M1 16.2044C1 16.6652 1.37248 17.0377 1.83329 17.0377H3.49986C3.96066 17.0377 4.33314 16.6652 4.33314 16.2044C4.33314 15.7436 3.96066 15.3711 3.49986 15.3711H1.83329C1.37248 15.3711 1 15.7436 1 16.2044Z" fill="#8EDEF4"/>
<path d="M3.25765 20.5C2.91412 20.8435 2.91412 21.3988 3.25765 21.7423C3.60119 22.0859 4.15647 22.0859 4.5 21.7423L5.74235 20.5C6.08588 20.1565 6.08588 19.6012 5.74235 19.2577C5.39881 18.9141 4.84354 18.9141 4.5 19.2577L3.25765 20.5Z" fill="#F2385A"/>
<path d="M3.39915 11.1037C3.07333 11.4296 3.07333 11.9562 3.39915 12.282L4.57741 13.4603C4.90323 13.7861 5.42986 13.7861 5.75568 13.4603C6.08149 13.1345 6.08149 12.6078 5.75568 12.282L4.57741 11.1037C4.2516 10.7779 3.72496 10.7779 3.39915 11.1037Z" fill="#F2BE38"/>
<path d="M31 16.2044C31 16.6652 30.6275 17.0377 30.1667 17.0377H28.5001C28.0393 17.0377 27.6669 16.6652 27.6669 16.2044C27.6669 15.7436 28.0393 15.3711 28.5001 15.3711H30.1667C30.6275 15.3711 31 15.7436 31 16.2044Z" fill="#8EDEF4"/>
<path d="M28.7423 20.5C29.0859 20.8435 29.0859 21.3988 28.7423 21.7423C28.3988 22.0859 27.8435 22.0859 27.5 21.7423L26.2577 20.5C25.9141 20.1565 25.9141 19.6012 26.2577 19.2577C26.6012 18.9141 27.1565 18.9141 27.5 19.2577L28.7423 20.5Z" fill="#F2385A"/>
<path d="M28.6009 11.1037C28.9267 11.4296 28.9267 11.9562 28.6009 12.282L27.4226 13.4603C27.0968 13.7861 26.5701 13.7861 26.2443 13.4603C25.9185 13.1345 25.9185 12.6078 26.2443 12.282L27.4226 11.1037C27.7484 10.7779 28.275 10.7779 28.6009 11.1037Z" fill="#F2BE38"/>
<path d="M16.9634 11.1717L17.7504 12.7084C17.9113 13.022 18.2146 13.2381 18.5635 13.2869L20.2556 13.5241C21.1554 13.6503 21.5085 14.7624 20.8466 15.3842L19.6739 16.486C19.4074 16.7362 19.2855 17.104 19.3494 17.4642L19.6333 19.0589C19.7898 19.9375 18.8749 20.6172 18.0787 20.2137L16.4894 19.4082C16.1818 19.2522 15.8189 19.2522 15.5112 19.4082L13.9219 20.2137C13.1257 20.6172 12.2114 19.9375 12.3674 19.0589L12.6512 17.4642C12.7151 17.104 12.5932 16.7362 12.3267 16.486L11.154 15.3842C10.4916 14.7618 10.8447 13.6498 11.745 13.5241L13.4371 13.2869C13.786 13.2381 14.0899 13.022 14.2502 12.7084L15.0372 11.1717C15.4391 10.3868 16.5615 10.3868 16.9634 11.1717Z" fill="white"/>
</svg>
