<svg width="48" height="48" viewBox="0 0 48 48" fill="none" xmlns="http://www.w3.org/2000/svg">
<path d="M23.2678 23.2187C23.3086 23.2733 23.4767 23.5458 23.2587 23.8547C23.245 23.8729 23.236 23.8911 23.2314 23.9047C20.6147 25.4766 12.7646 31.8366 12.7646 36.3204V45.606H36.4512V36.3158C36.4512 31.8048 28.4966 25.3403 25.9344 23.8547C25.8527 23.7412 25.8254 23.6276 25.8254 23.5322C25.8254 23.3414 25.9344 23.2051 25.9344 23.2051C28.5011 21.6833 36.4512 15.2687 36.4512 10.7576V1.47656H12.7601V10.7667C12.7646 15.2733 20.692 21.7196 23.2678 23.2187Z" fill="#D4F5FF"/>
<path d="M11.406 47.9996H38V46.8548C38 46.1642 37.4412 45.6055 36.7507 45.6055H12.5963C11.9375 45.6055 11.4015 46.1415 11.4015 46.8002V47.9996H11.406Z" fill="#DA6668"/>
<path d="M29.6732 36.8928C29.7959 38.9734 29.4006 43.4572 29.437 45.6106H36.4512V36.3158C36.4512 31.8048 28.4966 25.3403 25.9344 23.8547C25.8527 23.7412 25.8254 23.6276 25.8254 23.5322C25.8254 23.3414 25.9344 23.2051 25.9344 23.2051C28.5011 21.6833 36.4512 15.2687 36.4512 10.7576V1.47656H31.7538L28.4012 2.39422V9.74004C28.4012 9.74004 28.7328 11.857 27.9015 13.9331C27.0701 16.0092 25.2848 22.6781 25.3121 23.5413C25.3439 24.409 29.4642 33.3266 29.6732 36.8928Z" fill="#8EDEF4"/>
<path d="M15.7654 10.3634C17.2009 10.3861 18.8631 12.0822 22.8563 13.0907C24.7849 13.5776 25.737 13.554 27.0054 13.3735C28.2186 13.2008 29.3414 12.6537 30.3907 12.0207C31.8921 11.1149 33.2914 10.6522 34.2843 10.4067C34.8284 10.2722 35.3336 10.701 35.3336 11.2616C35.3336 14.2099 27.3972 20.6017 25.2984 22.2371C24.9804 22.487 24.7942 22.8641 24.7942 23.2684V32.0363C24.7942 32.5951 32.129 35.4543 33.6755 38.1816C36.4926 41.4543 36.5049 45.6102 36.5049 45.6102H12.8972C12.8972 45.6102 13.0638 44.2048 13.4283 42.5829C14.129 39.4659 16.0821 36.7163 18.7747 34.9969C21.5121 33.2489 24.4171 32.3407 24.4171 32.3407V23.2638C24.4171 22.8641 24.2354 22.4825 23.922 22.2326C21.8686 20.5835 14.129 15.489 14.129 12.5452C14.129 11.8467 14.3202 11.0902 14.858 10.6445C15.0694 10.4692 15.334 10.3572 15.7654 10.3634Z" fill="#4690A4"/>
<path d="M12.6462 2.39409H36.8052C37.4639 2.39409 38 1.85803 38 1.19477V0H11.406V1.15389C11.406 1.83532 11.9603 2.39409 12.6462 2.39409Z" fill="#DA6668"/>
</svg>
