<svg width="32" height="32" viewBox="0 0 32 32" fill="none" xmlns="http://www.w3.org/2000/svg">
<path d="M31.5039 28.7327L18.4207 15.6494C18.2253 15.4541 17.9087 15.4541 17.7134 15.6494L15.5918 17.771C15.3965 17.9663 15.3965 18.283 15.5918 18.4783L28.675 31.5615C29.26 32.1465 30.2117 32.1465 30.7966 31.5615L31.5039 30.8542C32.0889 30.2693 32.0889 29.3176 31.5039 28.7327Z" fill="#8EDEF4"/>
<path d="M29.7358 30.5005L16.6526 17.4172C16.4573 17.2219 16.4573 16.9053 16.6526 16.71L15.5918 17.7708C15.3965 17.9661 15.3965 18.2827 15.5918 18.478L28.675 31.5613C29.26 32.1462 30.2117 32.1462 30.7966 31.5613L31.5039 30.854C31.564 30.7939 31.6177 30.7295 31.6655 30.6624C31.0801 31.0789 30.2605 31.0251 29.7358 30.5005Z" fill="#67A4BA"/>
<path d="M18.5592 15.9135C18.53 15.7521 18.4233 15.6154 18.2741 15.5475L14.3844 13.7795C14.1967 13.694 13.9696 13.7353 13.8239 13.881C13.6781 14.0268 13.6369 14.2538 13.7223 14.4416L15.4904 18.3312C15.5155 18.3864 15.55 18.436 15.592 18.4779C15.663 18.5487 15.7548 18.5978 15.8564 18.6164C16.0177 18.6457 16.1833 18.5939 16.2992 18.4779L18.4208 16.3561C18.5368 16.2404 18.5883 16.0749 18.5592 15.9135Z" fill="#FFEBD1"/>
<path d="M15.5529 14.6231L15.3649 14.2252L14.3844 13.7794C14.1967 13.6941 13.9696 13.7352 13.8239 13.8809C13.6781 14.0269 13.6369 14.254 13.7223 14.4415L15.4902 18.3311C15.5155 18.3865 15.55 18.4358 15.592 18.4778C15.663 18.5489 15.7548 18.598 15.8564 18.6163C16.0177 18.6456 16.183 18.5938 16.299 18.4778L16.7983 17.9786L15.5529 14.6231Z" fill="#FFD8A3"/>
<path d="M14.3844 13.7795C14.1967 13.694 13.9696 13.7353 13.8239 13.881C13.6781 14.0268 13.6369 14.2538 13.7223 14.4416L14.2419 15.5846L15.5275 14.299L14.3844 13.7795Z" fill="#958492"/>
<path d="M15.5918 18.478L18.4204 15.6494L30.4429 27.6716L27.614 30.5005L15.5918 18.478Z" fill="#FFE06F"/>
<path d="M15.5918 18.4778L16.6526 17.417L28.6748 29.4395L27.614 30.5002L15.5918 18.4778Z" fill="#FFCB0F"/>
<path d="M8.01139 3.81854L6.06705 3.53607L5.19742 1.77435C5.01749 1.40985 4.48038 1.40985 4.3007 1.77435L3.43107 3.53607L1.48673 3.81879C1.08536 3.87714 0.918127 4.38763 1.20963 4.67181L2.61661 6.04291L2.28434 7.97943C2.21573 8.37958 2.64982 8.69598 3.00992 8.50677L4.74894 7.59247L6.48795 8.50677C6.84855 8.69623 7.28214 8.37933 7.21354 7.97943L6.88151 6.04291L8.28849 4.67157C8.57999 4.38763 8.41276 3.87714 8.01139 3.81854Z" fill="#FF768F"/>
<path d="M3.48405 7.68823L3.81632 5.75171L2.40934 4.38013C2.20646 4.18262 2.22599 3.87573 2.39176 3.6875L1.48673 3.81885C1.08536 3.87744 0.918127 4.38794 1.20963 4.67188L2.61661 6.04321L2.28434 7.97974C2.21573 8.37988 2.64982 8.69629 3.00992 8.50708L3.67057 8.15967C3.53507 8.05298 3.45109 7.88062 3.48405 7.68823Z" fill="#F2385A"/>
<path d="M5.89557 19.5526L6.24347 17.6188C6.31476 17.2218 5.89289 16.9071 5.53131 17.0812C5.44318 17.1237 5.357 17.171 5.26984 17.2157C4.87848 17.4174 4.48712 17.619 4.09577 17.8207C3.98908 17.8756 3.88239 17.9306 3.7757 17.9857L2.04425 17.0573C1.68585 16.8649 1.24909 17.1776 1.31452 17.5783L1.63068 19.5175L0.212466 20.8773C-0.0812351 21.1591 0.0816067 21.6708 0.48273 21.7326L2.42462 22.0311L3.2796 23.7999C3.45661 24.1662 3.99347 24.1705 4.17658 23.8073L5.06037 22.0526L7.00714 21.786C7.409 21.7308 7.58014 21.2218 7.29132 20.9354L5.89557 19.5526Z" fill="#FF768F"/>
<path d="M4.10578 22.9734L3.2508 21.2043L1.3089 20.9058C0.961245 20.8525 0.793033 20.4604 0.945864 20.1738L0.212466 20.877C-0.0812351 21.1587 0.0816067 21.6704 0.48273 21.7322L2.42462 22.0308L3.2796 23.7996C3.45661 24.1658 3.99347 24.1702 4.17658 23.8069L4.46173 23.241C4.31525 23.2141 4.17951 23.1255 4.10578 22.9734Z" fill="#F2385A"/>
<path d="M22.3196 3.05739L20.5025 2.31057L20.0874 0.390157C20.0017 -0.00681585 19.481 -0.138164 19.2175 0.171895L17.9456 1.66945L15.991 1.47048C15.5872 1.42995 15.301 1.88405 15.5147 2.23049L16.5459 3.90285L15.7527 5.70046C15.5884 6.07253 15.9336 6.48415 16.3281 6.3882L18.2373 5.92434L19.7019 7.23415C20.0056 7.50588 20.5032 7.30349 20.5339 6.89943L20.6826 4.94021L22.3809 3.95217C22.7327 3.74782 22.6953 3.21193 22.3196 3.05739Z" fill="#FF768F"/>
<path d="M20.0951 5.90063L18.6305 4.59082L16.7214 5.05469C16.4789 5.11353 16.2558 4.98071 16.1574 4.78345L15.7529 5.70044C15.5885 6.07251 15.9338 6.48413 16.3283 6.38818L18.2375 5.92432L19.7021 7.23413C20.0058 7.50586 20.5033 7.30347 20.5341 6.89941L20.6032 5.98999C20.4389 6.05249 20.2438 6.03369 20.0951 5.90063Z" fill="#F2385A"/>
<path d="M10.9397 11.9973C10.8115 11.9973 10.6836 11.9485 10.5859 11.8508L10.0859 11.3508C9.89062 11.1555 9.89062 10.8389 10.0859 10.6436C10.2812 10.4482 10.5979 10.4482 10.7932 10.6436L11.2932 11.1436C11.4885 11.3389 11.4885 11.6555 11.2932 11.8508C11.1956 11.9485 11.0676 11.9973 10.9397 11.9973Z" fill="#FFC475"/>
<path d="M9.35946 15.1003C9.31649 15.1003 9.27304 15.095 9.22958 15.0833L8.54647 14.9001C8.27987 14.8286 8.12142 14.5544 8.19296 14.2876C8.26474 14.021 8.53842 13.8628 8.80551 13.9341L9.48861 14.1172C9.75546 14.1887 9.91366 14.4629 9.84213 14.7297C9.78231 14.9531 9.58016 15.1003 9.35946 15.1003Z" fill="#FFC475"/>
<path d="M8.85873 18.7616C8.63803 18.7616 8.43588 18.6141 8.37606 18.3907C8.30453 18.1239 8.46298 17.8497 8.72958 17.7782L9.41268 17.5953C9.67977 17.5238 9.9537 17.6822 10.0252 17.9488C10.0968 18.2157 9.93832 18.4898 9.67172 18.5614L8.98837 18.7442C8.94516 18.7559 8.9017 18.7616 8.85873 18.7616Z" fill="#FFC475"/>
<path d="M10.9395 21.9991C10.8113 21.9991 10.6834 21.9503 10.5858 21.8528C10.3907 21.6573 10.3907 21.3409 10.5858 21.1456L11.086 20.6453C11.2813 20.4503 11.5977 20.4503 11.793 20.6453C11.9883 20.8409 11.9883 21.1573 11.793 21.3526L11.293 21.8528C11.1954 21.9503 11.0674 21.9991 10.9395 21.9991Z" fill="#FFC475"/>
<path d="M14.3605 23.7625C14.3175 23.7625 14.274 23.7569 14.2306 23.7454C13.9637 23.6738 13.8055 23.3994 13.8771 23.1328L14.0602 22.4497C14.1317 22.1829 14.4056 22.0249 14.6727 22.0962C14.9396 22.1675 15.0978 22.4419 15.0262 22.7085L14.8431 23.3916C14.7833 23.615 14.5812 23.7625 14.3605 23.7625Z" fill="#FFC475"/>
<path d="M22.3377 14.4178C22.117 14.4178 21.9149 14.2706 21.8551 14.047C21.7835 13.7804 21.942 13.5062 22.2088 13.4347L22.8919 13.2516C23.1588 13.18 23.4327 13.3385 23.5042 13.6053C23.5758 13.8719 23.4173 14.1461 23.1507 14.2176L22.4676 14.4007C22.4242 14.4124 22.3807 14.4178 22.3377 14.4178Z" fill="#FFC475"/>
<path d="M20.4409 11.4973C20.313 11.4973 20.1851 11.4485 20.0874 11.3508C19.8921 11.1555 19.8921 10.8389 20.0874 10.6436L20.5874 10.1436C20.7827 9.94824 21.0994 9.94824 21.2947 10.1436C21.49 10.3389 21.49 10.6553 21.2947 10.8506L20.7944 11.3508C20.697 11.4482 20.5688 11.4973 20.4409 11.4973Z" fill="#FFC475"/>
<path d="M17.3377 9.91685C17.295 9.91685 17.2513 9.91124 17.2081 9.89976C16.9413 9.82823 16.7831 9.55381 16.8546 9.28721L17.0377 8.60411C17.1092 8.33726 17.3832 8.17906 17.65 8.25059C17.9169 8.32212 18.0751 8.59629 18.0038 8.8629L17.8207 9.546C17.7606 9.76939 17.5587 9.91685 17.3377 9.91685Z" fill="#FFC475"/>
<path d="M13.8597 10.1007C13.6388 10.1007 13.4369 9.95321 13.377 9.72982L13.1939 9.04672C13.1224 8.77987 13.2808 8.5057 13.5474 8.43417C13.8145 8.36264 14.0885 8.52108 14.16 8.78768L14.3431 9.47103C14.4144 9.73764 14.2562 10.0118 13.9893 10.0833C13.9461 10.0951 13.9024 10.1007 13.8597 10.1007Z" fill="#FFC475"/>
</svg>
