<svg width="48" height="48" viewBox="0 0 48 48" fill="none" xmlns="http://www.w3.org/2000/svg">
<circle cx="24" cy="24" r="24" fill="#FFF1CC"/>
<g clip-path="url(#clip0_439:51783)">
<path d="M23.9992 43.9932C20.043 43.9944 16.1753 42.8224 12.8853 40.6253C9.59535 38.4281 7.03089 35.3046 5.51633 31.6498C4.00178 27.995 3.60517 23.9732 4.37666 20.093C5.14816 16.2127 7.05311 12.6485 9.85055 9.85104C12.648 7.0536 16.2122 5.14865 20.0925 4.37715C23.9727 3.60565 27.9946 4.00227 31.6493 5.51682C35.3041 7.03138 38.4276 9.59583 40.6248 12.8858C42.8219 16.1758 43.994 20.0435 43.9927 23.9997C43.9858 29.3002 41.8772 34.3816 38.1291 38.1296C34.3811 41.8776 29.2997 43.9863 23.9992 43.9932ZM23.9992 5.59499C20.3588 5.5937 16.7998 6.67203 13.7723 8.69358C10.7448 10.7151 8.38485 13.5891 6.99085 16.952C5.59685 20.3149 5.23145 24.0157 5.94086 27.5862C6.65028 31.1568 8.40264 34.4368 10.9763 37.0114C13.55 39.586 16.8294 41.3395 20.3997 42.0502C23.9701 42.7609 27.671 42.3968 31.0343 41.004C34.3977 39.6112 37.2725 37.2522 39.2952 34.2254C41.3178 31.1986 42.3974 27.64 42.3974 23.9997C42.3922 19.1211 40.4524 14.4438 37.0034 10.9936C33.5543 7.54332 28.8777 5.60185 23.9992 5.59499Z" fill="#F2BE38"/>
<path d="M22.8141 26.9248H25.2541L25.4341 15.8848H22.6741L22.8141 26.9248ZM24.0741 31.1448C24.9141 31.1448 25.5941 30.4848 25.5941 29.5848C25.5941 28.7248 24.9141 28.0648 24.0741 28.0648C23.1941 28.0648 22.4941 28.7248 22.4941 29.5848C22.4941 30.4848 23.1941 31.1448 24.0741 31.1448Z" fill="#F2BE38"/>
</g>
<defs>
<clipPath id="clip0_439:51783">
<rect width="40" height="40" fill="white" transform="translate(4 4)"/>
</clipPath>
</defs>
</svg>
