<svg width="52" height="52" viewBox="0 0 52 52" fill="none" xmlns="http://www.w3.org/2000/svg">
<circle cx="26" cy="26" r="26" fill="#F7F2FF"/>
<mask id="mask0_3865_7524" style="mask-type:alpha" maskUnits="userSpaceOnUse" x="0" y="0" width="52" height="52">
<circle cx="26" cy="26" r="26" fill="#EDFBFF"/>
</mask>
<g mask="url(#mask0_3865_7524)">
<path d="M42.0109 60.6769L22.9402 43.5379C22.3944 43.0756 22.3222 42.2598 22.7788 41.7091L31.019 31.791C31.487 31.2282 32.3263 31.1601 32.8778 31.641L54.525 51.4229L42.0101 60.676L42.0109 60.6769Z" fill="#E3E0FF"/>
<mask id="mask1_3865_7524" style="mask-type:luminance" maskUnits="userSpaceOnUse" x="22" y="31" width="33" height="30">
<path d="M42.0109 60.6769L22.9402 43.5379C22.3944 43.0756 22.3222 42.2598 22.7788 41.7091L31.019 31.791C31.487 31.2282 32.3263 31.1601 32.8778 31.641L54.525 51.4229L42.0101 60.676L42.0109 60.6769Z" fill="white"/>
</mask>
<g mask="url(#mask1_3865_7524)">
<path d="M24.6981 36.2485C24.6924 36.4359 24.7192 36.6816 24.754 36.9589C24.7889 37.2355 24.8368 37.5388 24.8814 37.8348C24.8749 37.3693 24.827 36.8778 24.6973 36.2485H24.6981Z" fill="#786EFF"/>
<path d="M24.8828 37.8459C24.8828 37.8459 24.8844 37.8522 24.8852 37.8546C24.8844 37.8467 24.8836 37.8411 24.8828 37.834C24.8828 37.8387 24.8828 37.8419 24.8828 37.8459Z" fill="#786EFF"/>
<path d="M38.1118 47.0227L37.9837 46.9222C37.9853 46.73 37.9869 46.5783 37.9878 46.4583C37.9902 46.3383 37.9942 46.2491 37.9999 46.181C38.0113 46.0447 38.0283 45.992 38.0437 45.9425C38.0721 45.846 38.1021 45.7609 38.0534 45.0586C37.9991 44.9248 37.965 44.7131 37.9415 44.4633C37.9156 44.2152 37.8977 43.9305 37.8823 43.6467C37.8637 43.3661 37.8499 43.0855 37.8288 42.8487C37.8069 42.6127 37.7818 42.4173 37.7453 42.3029C37.7607 42.3118 37.6934 41.6477 37.755 41.6833C37.6326 41.4911 37.6528 41.0037 37.5742 40.5885C37.5279 40.4409 37.5588 40.7037 37.5425 40.8205L37.3836 39.8692C37.3633 39.4913 37.4079 39.3915 37.476 39.7962C37.4006 39.1815 37.2433 37.9926 36.9943 36.5175C36.8694 35.7795 36.7218 34.9701 36.5523 34.1251C36.5094 33.9143 36.4656 33.7002 36.421 33.4853C36.3983 33.3774 36.3756 33.2695 36.3528 33.1609L36.3326 33.066L36.3009 32.9322L36.2636 32.7951L36.2198 32.654C36.1566 32.4626 36.0747 32.2591 35.9587 32.0425C35.8427 31.8268 35.683 31.59 35.4616 31.3613C35.241 31.1326 34.9499 30.9104 34.6109 30.7596C34.2735 30.6079 33.9175 30.5341 33.5931 30.5171L31.9209 30.4312L31.6306 32.0985C31.294 34.0278 31.1529 36.0106 31.2008 37.6796C31.2227 38.5141 31.2762 39.2707 31.3435 39.9065C31.3816 40.2236 31.4157 40.5115 31.4457 40.7653C31.487 41.0175 31.5227 41.2349 31.5519 41.4133C31.5641 41.2268 31.5162 40.9194 31.4919 40.6137C31.4684 40.3079 31.4514 40.0054 31.4919 39.8343C31.5665 40.2025 31.5925 40.4766 31.6119 40.6988C31.6371 40.9202 31.6598 41.0897 31.7182 41.2478C31.6541 41.4027 31.6979 41.8131 31.7766 42.2526C31.8131 42.4732 31.8504 42.7027 31.8771 42.9136C31.9096 43.1236 31.9274 43.3158 31.916 43.4642L32.0612 43.6515C32.0701 43.7772 32.075 43.9038 32.088 44.0287C32.208 44.4236 32.3013 44.7318 32.3751 44.9726C32.457 45.211 32.5162 45.3838 32.5608 45.5119C32.65 45.7682 32.6759 45.846 32.6954 45.9142C32.714 45.9823 32.7254 46.0407 32.7943 46.2539C32.8292 46.3602 32.8762 46.5062 32.9435 46.7121C32.9784 46.8151 33.0173 46.9327 33.0628 47.0682C33.113 47.202 33.1706 47.352 33.2355 47.5231C33.3142 47.7194 33.3904 47.9018 33.4634 48.0721C33.5396 48.2416 33.6166 48.3973 33.688 48.5449C33.8332 48.8393 33.9589 49.0964 34.0894 49.3316C34.3457 49.8044 34.5711 50.1969 34.795 50.6421C34.7228 50.5123 34.5841 50.1409 34.8323 50.5302C34.8128 50.5861 34.9774 50.8465 35.168 51.1189C35.2637 51.2552 35.3627 51.3955 35.4454 51.5139C35.5265 51.6339 35.5889 51.7345 35.6059 51.7945C35.7446 51.9834 36.056 52.3808 36.3212 52.659C36.4567 52.796 36.5726 52.9079 36.6399 52.9534C36.7081 52.9988 36.721 52.9825 36.6513 52.8674C36.6853 52.9258 36.7745 53.0304 36.8767 53.148C36.9781 53.2664 37.1046 53.388 37.2003 53.491C37.2984 53.5916 37.3763 53.6654 37.3836 53.6857C37.3917 53.7051 37.3284 53.6711 37.1606 53.5429C37.3414 53.6994 37.5182 53.8568 37.695 53.9881C37.7388 54.0214 37.7818 54.0538 37.8239 54.0855C37.8653 54.1163 37.9075 54.1471 37.9553 54.1779C38.0478 54.2371 38.1354 54.2955 38.2189 54.3385C38.1264 54.2752 38.0364 54.2039 37.9464 54.1366C37.8596 54.0692 37.7866 54.0044 37.7064 53.9379C37.7891 53.9979 37.8645 54.0555 37.9464 54.113C38.0332 54.1714 38.1183 54.229 38.201 54.2842C38.2846 54.3361 38.3665 54.3863 38.446 54.4358C38.5271 54.482 38.6057 54.5266 38.6828 54.5704C38.9942 54.7383 39.2837 54.8753 39.5724 54.9808C39.7143 55.0367 39.8603 55.0789 40.0006 55.1219C40.1474 55.1576 40.2852 55.1973 40.4344 55.2208C40.5082 55.233 40.5812 55.2451 40.655 55.2557C40.7288 55.2662 40.8059 55.2703 40.8821 55.2768C41.0321 55.2906 41.1919 55.2881 41.3533 55.2816C41.2333 55.267 41.11 55.2565 40.994 55.2346C40.8789 55.2119 40.7613 55.1924 40.6502 55.1649C41.1992 55.2573 41.7555 55.2492 42.2348 55.1819C42.3556 55.1616 42.4708 55.1422 42.5786 55.1243C42.6889 55.0992 42.7919 55.0748 42.8876 55.0529C42.9841 55.0335 43.0733 55.0027 43.1552 54.9824C43.2372 54.9605 43.3126 54.9418 43.3807 54.9289C42.9598 55.1397 42.5121 55.2735 42.0775 55.3392C42.607 55.2752 43.1017 55.113 43.5315 54.8875C43.9622 54.6596 44.3328 54.3604 44.6158 54.0409C44.9013 53.7205 45.1113 53.3864 45.2743 53.058C45.4381 52.7279 45.5508 52.4051 45.6449 52.0848C45.593 52.234 45.5346 52.3897 45.4665 52.5503C45.5038 52.44 45.55 52.303 45.5954 52.1497C45.619 52.0718 45.6425 51.9915 45.6652 51.9072C45.6895 51.8221 45.7074 51.7434 45.7309 51.6542C45.7763 51.479 45.8258 51.2852 45.8793 51.0768C45.9312 50.8684 45.9766 50.6421 46.0309 50.4053C46.2353 49.4565 46.4137 48.3008 46.4835 47.1411C46.5581 45.9823 46.5232 44.8234 46.4267 43.8786C46.3999 43.6426 46.3764 43.4188 46.3496 43.212C46.3164 43.006 46.2848 42.8154 46.2572 42.6435C46.2426 42.5576 46.228 42.4765 46.215 42.401C46.198 42.3256 46.1826 42.2551 46.168 42.1902C46.138 42.0604 46.112 41.9526 46.0893 41.869C46.091 42.0823 46.0991 42.2932 46.0942 42.5048C46.0577 42.3126 46.009 42.1221 45.9669 41.9315C45.9231 41.7409 45.8817 41.5503 45.8274 41.3622C45.859 41.4952 46.2199 41.8674 46.2094 41.9899C46.1964 41.912 46.1818 41.8228 46.1656 41.7247C46.1493 41.6266 46.1323 41.5187 46.1072 41.4027C46.0577 41.1716 46.0074 40.9032 45.9385 40.6072C45.7933 40.0168 45.6125 39.3064 45.3416 38.5384C45.2751 38.3446 45.2135 38.1532 45.1283 37.9358C45.0432 37.7185 44.9426 37.4809 44.8112 37.2303C44.6774 36.9797 44.512 36.7162 44.3003 36.4631C44.1925 36.3374 44.0789 36.2125 43.9508 36.0982C43.8884 36.039 43.821 35.9847 43.7546 35.9303C43.6889 35.8768 43.6005 35.8103 43.4894 35.7414C43.3791 35.6724 43.242 35.6003 43.079 35.5419C42.9979 35.5127 42.9111 35.4867 42.8203 35.4681C42.7757 35.4583 42.7271 35.4502 42.6833 35.4437C42.6395 35.4389 42.5957 35.434 42.5519 35.4308C42.5081 35.4275 42.4635 35.4251 42.4197 35.4235C42.3743 35.4235 42.3256 35.4259 42.2786 35.4283C42.1837 35.434 42.0896 35.4446 41.9931 35.4681C41.8966 35.4883 41.8026 35.5151 41.7125 35.5516C41.6671 35.5694 41.6217 35.5881 41.5779 35.6076C41.5349 35.6278 41.4952 35.6497 41.4538 35.6724C41.1262 35.8573 40.9056 36.0982 40.7523 36.3196C40.5983 36.5442 40.501 36.7599 40.4288 36.9765C40.3923 37.0851 40.3647 37.1938 40.342 37.3073C40.3298 37.3625 40.3217 37.4233 40.3136 37.4825L40.3079 37.5271L40.3055 37.5498L40.3015 37.5944C40.2901 37.7136 40.2787 37.8329 40.2674 37.9521C40.2422 38.1905 40.2301 38.4313 40.2114 38.6706C40.149 39.6308 40.1409 40.5942 40.1855 41.5155C40.2293 42.4367 40.3258 43.3134 40.4482 44.1024C40.4815 44.2995 40.5139 44.4909 40.5456 44.6766C40.578 44.8623 40.6193 45.0407 40.6534 45.2135C40.7199 45.5598 40.8034 45.8752 40.8724 46.1623C40.8902 46.2337 40.9072 46.3034 40.9235 46.3707C40.9421 46.438 40.9608 46.5029 40.9786 46.5662C41.0143 46.6919 41.0475 46.8103 41.0792 46.9189C41.11 47.0276 41.1384 47.1282 41.1635 47.2182C41.1919 47.3074 41.2178 47.3877 41.2397 47.4582C41.5001 48.373 41.1578 47.6683 41.14 47.6618C41.3411 48.2076 41.4214 48.3114 41.4749 48.4014C41.5025 48.446 41.5276 48.4865 41.5674 48.5725C41.5876 48.6155 41.6112 48.6706 41.6412 48.7428C41.6712 48.8158 41.706 48.9066 41.7571 49.0193C41.8536 49.2716 41.6655 48.9983 41.5966 48.8612C41.7774 49.2561 41.9185 49.6349 41.9696 49.6478C41.7774 49.1394 41.9753 49.3016 41.9501 49.0639L42.204 49.6406C42.2956 49.8295 42.3905 50.0176 42.4838 50.2058L42.3946 50.1888C42.4594 50.3137 42.5762 50.4556 42.7668 50.6899C42.8601 50.8083 42.9671 50.9527 43.0871 51.136C43.1171 51.1814 43.1479 51.23 43.1804 51.2795C43.2136 51.329 43.2485 51.3809 43.285 51.4352C43.3564 51.5439 43.4318 51.6639 43.5113 51.7969C44.07 52.6752 44.731 53.5421 45.4697 54.3369C45.5573 54.4407 45.6571 54.5323 45.7512 54.6304L46.0358 54.9191C46.1315 55.014 46.224 55.1138 46.3229 55.2046C46.4218 55.2954 46.5208 55.3863 46.6197 55.4763C46.7186 55.5671 46.8168 55.6571 46.9157 55.7471L47.0625 55.8818C47.1128 55.9255 47.1639 55.9669 47.215 56.0091C47.4177 56.1778 47.6196 56.3456 47.8191 56.5119C47.7672 56.5257 47.4136 56.2678 47.0584 56.0075C47.2725 56.1875 47.6091 56.4494 47.7891 56.6368C47.7032 56.5419 47.7048 56.5265 47.751 56.5532C47.7972 56.5784 47.8856 56.6497 47.9821 56.7138C48.1727 56.846 48.3706 56.9904 48.223 56.8614C48.5555 57.052 48.8912 57.2807 49.2481 57.4948C49.4248 57.6051 49.6016 57.7194 49.7784 57.8354C49.866 57.8954 49.9576 57.9473 50.0485 58.0016C50.1393 58.056 50.2293 58.1103 50.3193 58.1638C50.4994 58.2725 50.6786 58.3795 50.8546 58.4858C51.0322 58.5888 51.2114 58.6788 51.385 58.7704C51.7329 58.9496 52.0621 59.1191 52.3751 59.227C52.4181 59.2035 52.6744 59.1159 53.0263 58.9894C53.2023 58.9261 53.4018 58.8531 53.6111 58.7745C53.8227 58.691 54.0449 58.5985 54.2639 58.5052C54.7018 58.3179 55.1227 58.1281 55.4398 57.9643C55.7593 57.7965 55.9718 57.6667 55.9888 57.6229C56.3359 57.7551 56.6814 57.8873 56.7828 57.9416C56.7073 57.8662 56.031 57.5921 55.6579 57.481L55.5582 57.5515C54.7229 57.2393 55.3879 57.4153 54.585 57.0844C54.5802 57.0374 54.7634 57.0877 55.0286 57.1826C55.1616 57.2296 55.3141 57.2888 55.4747 57.352C55.5144 57.3683 55.5549 57.3845 55.5963 57.4007C55.6377 57.4153 55.6798 57.4299 55.722 57.4453C55.8063 57.4753 55.8907 57.5053 55.9734 57.5345C55.8266 57.4761 55.6774 57.4202 55.5395 57.3561C55.4017 57.292 55.2695 57.2304 55.147 57.1761C54.9021 57.0674 54.6953 56.9887 54.5583 56.9806C54.4236 56.9174 54.3677 56.8728 54.3425 56.8492C54.3182 56.8249 54.3271 56.8152 54.3328 56.8038C54.3442 56.7811 54.3426 56.7519 54.0303 56.5841C53.9135 56.5354 53.787 56.4859 53.654 56.434C53.5875 56.4081 53.5194 56.3813 53.4505 56.3546C53.3824 56.3262 53.3159 56.2945 53.2469 56.2629C52.9744 56.1372 52.6971 55.9985 52.4546 55.842L52.4708 55.8339C52.1805 55.6393 51.9194 55.4779 51.6712 55.3384C51.5455 55.2711 51.4304 55.1981 51.316 55.13C51.2009 55.0627 51.0889 54.997 50.9778 54.9321C50.8659 54.8672 50.7548 54.8024 50.6429 54.7375C50.5359 54.6661 50.428 54.5931 50.3185 54.5161C50.209 54.439 50.0979 54.3579 49.9836 54.2704C49.9268 54.2258 49.8676 54.1828 49.8117 54.1333C49.7557 54.083 49.6998 54.0311 49.6422 53.9776L49.7638 54.0417C49.686 53.9614 49.583 53.8706 49.463 53.77C49.4021 53.7205 49.3381 53.6678 49.2716 53.6127C49.2043 53.5583 49.1321 53.5024 49.0648 53.4391C48.7915 53.1877 48.4695 52.9209 48.2181 52.6136C48.3641 52.7863 48.4614 52.9696 48.1192 52.6355C47.8094 52.2981 47.5645 52.0045 47.3301 51.741C47.3009 51.7077 47.2725 51.6753 47.2441 51.6428C47.2174 51.6088 47.1914 51.5755 47.1655 51.5415C47.1144 51.4741 47.0633 51.4076 47.013 51.342C46.9149 51.209 46.8168 51.0776 46.73 50.9365L46.2945 50.4661C46.0731 50.1385 45.7771 49.6852 45.4608 49.1167C45.1527 48.5441 44.8048 47.8653 44.5112 47.0803C44.2111 46.2986 43.9427 45.4219 43.7416 44.486C43.5388 43.5502 43.4034 42.5559 43.341 41.5503C43.2777 40.5447 43.2947 39.5286 43.3645 38.553C43.371 38.4305 43.3839 38.3097 43.3945 38.1889C43.4002 38.1289 43.4058 38.068 43.4107 38.008L43.4188 37.918L43.4229 37.8734C43.5453 37.8839 42.3483 37.7526 42.8601 37.8093H42.869L42.8876 37.8118L42.9241 37.8166C42.9817 37.8264 42.9939 37.828 43.0206 37.8345L43.0393 37.8393C43.0255 37.8353 43.0141 37.8312 42.9914 37.8231C42.9776 37.8183 42.9639 37.8126 42.9493 37.8069L42.9022 37.7858C42.7627 37.7242 42.5827 37.6017 42.4919 37.4947C42.4789 37.4777 42.47 37.4687 42.4611 37.4582C42.4521 37.4468 42.4432 37.4347 42.4351 37.4217C42.4278 37.4111 42.4238 37.4063 42.4189 37.3966C42.4148 37.3901 42.4083 37.3747 42.4067 37.3722C42.397 37.3544 42.3986 37.3438 42.4027 37.3763C42.4027 37.3844 42.4035 37.3917 42.4027 37.3982C42.4027 37.3998 42.4027 37.4079 42.4027 37.4152V37.4371C42.401 37.4509 42.3994 37.4647 42.397 37.4776V37.4825C42.3816 37.5782 42.414 37.3584 42.4108 37.3811V37.3852L42.4083 37.3941C42.4019 37.4217 42.384 37.4898 42.3216 37.6058C42.2899 37.665 42.2462 37.7412 42.1772 37.845C42.1059 37.9521 42.0158 38.0818 41.8415 38.3105L41.8017 38.3632C41.7928 38.3746 41.7993 38.3665 41.7977 38.3689L41.8017 38.373L41.8107 38.3803C41.8163 38.3851 41.8236 38.3884 41.8293 38.3949C41.8528 38.4151 41.8755 38.4386 41.9007 38.4654C41.9972 38.5741 42.1188 38.7947 42.2405 39.1231C42.2559 39.1653 42.2721 39.2066 42.2875 39.248C42.3029 39.2926 42.3175 39.3372 42.3329 39.381C42.3629 39.4686 42.3921 39.5554 42.4213 39.6405C42.4797 39.81 42.5381 39.9738 42.5819 40.1336C42.6289 40.2925 42.6743 40.4458 42.7173 40.591C42.7603 40.7361 42.7911 40.8772 42.8252 41.0086C42.8584 41.1408 42.8892 41.2649 42.9184 41.38C42.9428 41.4968 42.9647 41.6047 42.9849 41.7036L42.9468 41.582C42.9785 41.7328 43.0117 41.8885 43.0458 42.0491C43.0766 42.2096 43.1017 42.3767 43.1309 42.5478C43.1455 42.633 43.1601 42.7197 43.1747 42.8073C43.1861 42.8957 43.1966 42.9841 43.208 43.075C43.229 43.2558 43.2566 43.4391 43.2736 43.628C43.3499 44.383 43.375 45.2054 43.3434 46.0666C43.311 46.9279 43.2136 47.8297 43.0425 48.7412C42.9955 48.9683 42.9485 49.1961 42.9006 49.4256C42.8438 49.6527 42.7871 49.8814 42.7303 50.1109C42.6646 50.338 42.5981 50.5651 42.5324 50.7937C42.4667 51.0168 42.4027 51.1927 42.3378 51.342C42.3062 51.4182 42.2729 51.479 42.2421 51.5374C42.2097 51.5901 42.1805 51.6404 42.1513 51.6761C42.0929 51.7523 42.0483 51.7977 41.9956 51.8318C41.9688 51.848 41.942 51.8683 41.9055 51.8804C41.8877 51.8861 41.8723 51.8967 41.8528 51.904C41.8326 51.9088 41.8123 51.9145 41.7928 51.9226C41.7069 51.9437 41.6031 51.9599 41.4798 51.9615C41.3541 51.9583 41.213 51.9429 41.0638 51.9137C40.9137 51.8796 40.758 51.8326 40.6023 51.7742C40.4474 51.7118 40.2942 51.6404 40.1482 51.5593C40.0006 51.4733 39.8806 51.3979 39.7208 51.2763C38.5141 50.3858 37.7388 49.0737 37.1622 47.9108C37.0933 47.7218 37.0178 47.5109 36.9343 47.2928C36.8913 47.1841 36.8475 47.0738 36.8029 46.9619C36.7575 46.8508 36.7105 46.7381 36.6699 46.6229C36.584 46.3951 36.4972 46.1656 36.4129 45.9442C36.331 45.722 36.2628 45.503 36.1963 45.3019C36.3204 45.7576 36.215 45.6246 36.0958 45.2751C35.9855 44.9702 35.9182 44.7342 35.8614 44.5566C35.8054 44.3782 35.7657 44.2565 35.7365 44.1714C35.6773 44.0027 35.6676 43.9816 35.6514 43.9613C35.636 43.9411 35.6189 43.92 35.5613 43.7464C35.507 43.5721 35.3943 43.2493 35.2459 42.6095C35.2199 42.5073 35.1915 42.3945 35.1615 42.2729C35.1307 42.1513 35.1072 42.0174 35.078 41.8772C35.022 41.5941 34.9507 41.2778 34.9012 40.9275C34.8736 40.7532 34.8453 40.5707 34.8153 40.3817C34.7885 40.1928 34.769 39.9957 34.7447 39.7938C34.6904 39.3899 34.6652 38.9593 34.6304 38.5116C34.5841 37.6155 34.5671 36.6456 34.6255 35.6546C34.6855 34.6644 34.8039 33.6539 34.9734 32.6775L33.469 33.4317C33.469 33.3255 33.4966 33.2525 33.4991 33.246C33.4999 33.2444 33.4958 33.2525 33.495 33.2533C33.495 33.2509 33.4877 33.2671 33.4812 33.2768L33.4536 33.3133C33.4399 33.332 33.4293 33.3409 33.4107 33.3612C33.3417 33.4334 33.2193 33.5372 33.0595 33.6296C33.0384 33.6426 33.0181 33.6547 32.9971 33.6661L32.9889 33.6702C32.9889 33.6726 32.9898 33.675 32.9914 33.6766C32.993 33.6783 32.9938 33.6856 32.9963 33.6896C32.9979 33.6937 33.0003 33.6993 33.0027 33.7066C33.0125 33.7318 33.023 33.7715 33.0336 33.8178C33.0522 33.9078 33.0717 33.997 33.0903 34.0862C33.1301 34.2784 33.169 34.4681 33.2071 34.6555C33.3588 35.4056 33.4901 36.1193 33.602 36.7713C33.8242 38.0745 33.9678 39.1304 34.04 39.7411C34.2046 40.4726 34.3197 41.307 34.4146 42.1383C34.5087 42.9711 34.5882 43.8008 34.6758 44.516L34.6368 44.3733C34.6782 44.7593 34.7423 45.5963 34.7471 46.6408C34.7536 47.6861 34.6733 48.935 34.4406 50.1352C34.3741 50.4321 34.3173 50.7329 34.2322 51.02C34.2127 51.0922 34.1932 51.1644 34.1738 51.2365L34.1446 51.3444L34.1105 51.4498C34.0643 51.5893 34.0189 51.728 33.9743 51.8658L33.941 51.9688L33.9021 52.0686C33.8762 52.1351 33.8502 52.2008 33.8251 52.2657C33.7999 52.3313 33.774 52.3962 33.7488 52.4603C33.7237 52.5252 33.7002 52.5892 33.6702 52.6501C33.6134 52.7733 33.5574 52.8942 33.5031 53.0134C33.4755 53.0726 33.4496 53.1318 33.422 53.1893C33.392 53.2453 33.362 53.3013 33.332 53.3564C33.2963 53.4229 33.2622 53.4878 33.229 53.551C33.2152 53.577 33.2006 53.6013 33.1844 53.624C33.1528 53.6694 33.1179 53.7076 33.0798 53.7359C33.0035 53.7935 32.9208 53.7984 32.8714 53.7935C32.8892 53.8032 32.9087 53.8122 32.9289 53.8178C32.8349 53.8365 32.7667 53.8016 32.7205 53.7732C32.6735 53.7424 32.6451 53.7108 32.6256 53.6775C32.6159 53.6629 32.6102 53.6459 32.5664 53.5997C32.5299 53.5583 32.4902 53.5194 32.4497 53.4667C32.4099 53.4148 32.3588 53.3661 32.3086 53.298C32.2826 53.2648 32.2534 53.2299 32.2226 53.1934C32.1926 53.1545 32.1601 53.1123 32.1253 53.0669C32.1147 53.1545 31.9282 53.0272 31.7271 52.7912C31.5243 52.56 31.3159 52.2154 31.2146 52.0086L31.2478 52.0118C31.088 51.7093 30.8318 51.1903 30.5788 50.5359C30.5147 50.3761 30.449 50.2123 30.3825 50.0468C30.3225 49.879 30.2617 49.7103 30.2017 49.5432C30.1433 49.3754 30.0816 49.2107 30.0297 49.0469C29.9794 48.8823 29.9308 48.7225 29.8838 48.5693L29.9665 48.5976C29.9211 48.4719 29.8732 48.3316 29.8237 48.1816C29.7767 48.03 29.7313 47.867 29.6834 47.6975C29.6364 47.528 29.5878 47.3528 29.5415 47.1752C29.4985 46.996 29.4556 46.8143 29.4126 46.6351C29.3258 46.2783 29.2544 45.9247 29.1904 45.6149C29.1239 45.3059 29.0736 45.0375 29.0355 44.8469C28.8773 43.9719 28.7208 42.8446 28.5497 41.6355C28.377 40.4263 28.1864 39.132 27.9399 37.9326C27.9228 37.4022 27.8985 36.8686 27.8734 36.3342L27.8109 36.1079C27.8109 36.1079 27.6293 35.9774 27.3584 35.8354C27.0875 35.6935 26.7275 35.5411 26.3698 35.4932C26.0114 35.4454 25.657 35.4997 25.3959 35.7665C25.2653 35.8995 25.1574 36.0852 25.0844 36.3366C25.048 36.4623 25.0196 36.6042 25.0017 36.7648C24.9823 36.9262 24.9725 37.1062 24.9742 37.3057L24.8947 37.2684L25.0106 37.8815C25.099 38.6284 25.2377 38.9593 25.1582 38.9204L24.9985 37.9026C25.1015 38.6511 24.9774 38.137 24.8906 37.8596C24.9352 38.1718 24.9774 38.4751 24.996 38.7257C25.048 38.8677 25.0074 38.613 25.0034 38.4946C25.0958 38.8904 25.2507 39.4418 25.2969 39.9389C25.4121 40.7118 25.1899 40.0054 25.3245 40.908C25.6724 43.2923 26.0284 45.6879 26.592 48.0948C26.8718 49.2983 27.2132 50.5026 27.6301 51.6996C27.828 52.2916 28.0729 52.9298 28.3924 53.5778C28.5554 53.9022 28.7403 54.229 28.9503 54.5526C29.1652 54.8753 29.4085 55.1924 29.6802 55.4957C29.7613 55.6247 29.6364 55.4957 29.5067 55.3603C29.5472 55.4065 29.5877 55.4519 29.6283 55.4974C29.6713 55.542 29.7143 55.5858 29.7564 55.6304C29.8424 55.7179 29.9259 55.8055 30.0184 55.8874C30.1092 55.9693 30.196 56.0537 30.2909 56.1299C30.3874 56.2078 30.4677 56.2759 30.6007 56.3773C30.7418 56.473 30.8821 56.5686 31.0215 56.6627C31.0564 56.6862 31.0905 56.7114 31.1262 56.7325L31.2348 56.7925C31.307 56.833 31.38 56.8728 31.4522 56.9125C31.5243 56.9522 31.5965 56.992 31.6687 57.0317C31.7425 57.0658 31.8163 57.0982 31.8909 57.1274C32.0401 57.1858 32.1901 57.2353 32.3418 57.2718C32.6443 57.3464 32.9533 57.3764 33.259 57.3577L33.3166 57.3537C33.3352 57.348 33.3547 57.3488 33.3734 57.3464L33.4877 57.3342C33.5639 57.3269 33.6385 57.3099 33.714 57.2961C33.7886 57.2807 33.8624 57.2588 33.9362 57.2393C34.0083 57.215 34.0813 57.1931 34.1527 57.1647C34.7228 56.9466 35.2159 56.5589 35.6035 56.0585C35.833 55.7942 35.9652 55.6068 36.065 55.4738C36.1598 55.3384 36.2231 55.2565 36.2872 55.1689C36.2791 55.1803 36.2782 55.1778 36.2839 55.1632C36.2888 55.1519 36.2977 55.1308 36.3115 55.1C36.3318 55.0538 36.3674 54.9808 36.4153 54.8843C36.5175 54.6937 36.6375 54.3953 36.7973 54.036C36.8167 53.9914 36.837 53.9452 36.8573 53.8981C36.8751 53.8503 36.8938 53.8016 36.9124 53.7513C36.9497 53.6516 36.9886 53.5486 37.0284 53.4424C37.0681 53.3361 37.1087 53.2266 37.1508 53.1139C37.1873 53.0004 37.2238 52.8836 37.2619 52.7652C37.3365 52.5276 37.4177 52.2827 37.4785 52.0288C37.5417 51.7758 37.6163 51.5187 37.665 51.2584C37.8929 50.2204 38.0113 49.1702 38.0616 48.3803C38.0753 48.1824 38.0802 48.0024 38.0891 47.8402C38.0956 47.6788 38.1062 47.5353 38.1062 47.4185C38.1102 47.1833 38.1143 47.0414 38.1159 47.0252L38.1118 47.0227Z" fill="#786EFF"/>
</g>
<path d="M23.7482 21.2648C23.6323 20.9956 23.4125 20.5398 23.1992 20.1108C23.3549 20.445 23.5236 20.7985 23.7482 21.2648Z" fill="#073542"/>
<path d="M23.1966 20.1032C23.1966 20.1032 23.1942 20.0983 23.1934 20.0967C23.1966 20.1024 23.1982 20.1072 23.2007 20.1121C23.199 20.1088 23.1982 20.1064 23.1966 20.104V20.1032Z" fill="#073542"/>
<path d="M23.8917 36.4106C23.7887 36.3506 23.6719 36.2833 23.5527 36.2144C23.6663 36.28 23.7814 36.3474 23.8917 36.4106Z" fill="#073542"/>
<path d="M20.3858 22.4157L20.3233 22.3735C19.9478 21.9478 19.8951 21.8837 19.8513 21.8261C19.8067 21.7694 19.7702 21.7199 19.4142 21.3331C19.2658 21.1903 18.9706 20.8692 18.6762 20.5545C18.3819 20.2399 18.0883 19.9333 17.9545 19.8092C17.9561 19.8101 17.935 19.7882 17.9026 19.7549C17.8701 19.7217 17.8263 19.6762 17.7834 19.6325C17.6974 19.5432 17.6131 19.4565 17.6277 19.4654C17.5052 19.3648 17.2473 19.0956 17.0089 18.8734C16.9205 18.7947 17.0689 18.9366 17.1289 19.0007C16.9481 18.8304 16.7664 18.6609 16.5815 18.4939C16.369 18.2935 16.322 18.2384 16.5572 18.4509C16.378 18.2854 16.1112 18.043 15.7689 17.7526C15.4259 17.4631 15.0099 17.1225 14.5095 16.7827C14.2581 16.6132 13.988 16.4429 13.6742 16.2969C13.5169 16.2248 13.3498 16.1575 13.1503 16.1177C13.0506 16.0991 12.9403 16.0861 12.8105 16.1031C12.7473 16.1104 12.6759 16.1315 12.6061 16.1631C12.5356 16.1972 12.4691 16.2483 12.4156 16.3091C12.3629 16.3707 12.3264 16.4397 12.302 16.5054C12.2785 16.571 12.2647 16.6351 12.2582 16.6943C12.2445 16.8135 12.2518 16.9206 12.2647 17.0219C12.2923 17.2239 12.3466 17.4055 12.4091 17.5815C12.5348 17.9327 12.6945 18.2603 12.8665 18.579C13.2111 19.2156 13.6053 19.8149 13.9986 20.3777C14.3935 20.9397 14.7917 21.4636 15.1639 21.9356C15.9092 22.8788 16.5515 23.6143 16.897 24.0068C16.7275 23.7976 16.3001 23.3126 16.1558 23.1131C16.5207 23.5292 16.6829 23.7351 16.8508 23.9119C16.9692 24.0912 17.652 24.8259 17.9172 25.1511L18.0356 25.2581L18.2156 25.4657C18.9714 26.2654 19.1288 26.417 19.205 26.4997C19.2837 26.58 19.2853 26.5881 19.7565 27.0747L20.1425 26.666C20.0598 26.5938 19.9332 26.4827 19.7792 26.3481C18.8344 25.5347 18.364 25.173 17.8312 24.7278C17.9115 24.7926 18.1183 24.9743 17.8653 24.7724C17.832 24.7261 17.1905 24.2379 17.0746 24.1309C16.8272 23.933 16.0114 23.3086 16.2766 23.534C16.1452 23.4189 15.4089 22.8723 15.8525 23.1902C15.6043 23.0053 15.3618 22.8277 15.1769 22.7028L15.4981 22.938C15.0731 22.6322 14.7406 22.4011 14.4406 22.2024C14.1405 22.0037 13.8721 21.8375 13.5704 21.672C13.6823 21.7393 13.7926 21.8083 13.9021 21.878C13.6328 21.7142 13.3798 21.5715 13.1649 21.4563C12.9492 21.342 12.7716 21.2552 12.6572 21.1968C12.8624 21.2828 13.0595 21.3793 13.2525 21.4806C13.0197 21.3558 12.8032 21.252 12.5932 21.1644C12.3823 21.0784 12.1788 21.007 11.9566 20.9657C11.8455 20.9462 11.7287 20.9324 11.5981 20.943C11.5316 20.9503 11.4627 20.96 11.3881 20.9892C11.3151 21.0168 11.238 21.0614 11.174 21.1263C11.1091 21.1903 11.0645 21.2714 11.0385 21.3485C11.0126 21.4255 11.0012 21.5017 11.0004 21.5707C10.9964 21.7102 11.0215 21.8326 11.0531 21.9518C11.0248 21.8383 11.0012 21.7183 11.0037 21.5788C10.985 22.3492 11.9866 23.7716 13.1219 25.0497C14.254 26.3319 15.52 27.4583 15.9052 27.7859L15.5678 27.4632C15.7851 27.6562 16.0041 27.8459 16.2255 28.0341C16.1476 27.9668 15.88 27.79 15.8192 27.7283C16.2531 28.1176 17.2692 29.0064 18.6024 30.0023L18.8465 29.6641C17.3868 28.652 15.5743 27.5159 13.8575 26.812C13.4277 26.6384 13.0043 26.4908 12.5859 26.4C12.3766 26.3554 12.169 26.3229 11.9566 26.3229C11.8503 26.3229 11.7425 26.3319 11.6322 26.3586C11.5235 26.3846 11.4051 26.4357 11.307 26.5281C11.2583 26.5751 11.2186 26.6319 11.1902 26.6919C11.1642 26.7519 11.1464 26.8136 11.1407 26.8712C11.1269 26.9871 11.1415 27.0877 11.1626 27.1761C11.2072 27.3521 11.2745 27.4907 11.3402 27.6116C11.4732 27.8524 11.6022 28.0227 11.6938 28.1452C11.912 28.429 11.9339 28.4509 11.8909 28.4112C11.8495 28.3706 11.7522 28.2579 11.749 28.2547C12.0263 28.5896 12.0977 28.6488 12.1504 28.7048C12.2039 28.7599 12.2461 28.8029 12.5015 29.0632C12.6402 29.2051 12.4642 29.0421 12.3848 28.9634C12.6094 29.1905 12.8211 29.3957 12.8429 29.407C12.5583 29.1297 12.6929 29.2327 12.5794 29.1078C12.8008 29.3268 13.027 29.5384 13.2582 29.7452L13.22 29.7258C13.3758 29.862 13.628 30.0583 14.3311 30.6349C15.5232 31.6015 16.884 32.5601 18.1629 33.4157C18.1394 33.4076 17.8685 33.2324 17.5985 33.0532C17.7688 33.1691 18.0291 33.3459 18.1864 33.453C17.8831 33.2381 18.729 33.8033 18.4897 33.6387C19.4434 34.2388 20.6655 35.0319 21.5252 35.5315C21.5722 35.5485 22.0766 35.7302 22.5754 35.9102C22.8252 35.9994 23.0725 36.0854 23.259 36.1478C23.4447 36.2103 23.5696 36.2484 23.5737 36.2427C23.8389 36.3984 24.1024 36.5533 24.1835 36.6003C24.1178 36.5549 23.5964 36.2492 23.3182 36.0902L23.2631 36.0748C22.6232 35.7042 23.1179 35.9799 22.4975 35.6126C22.4708 35.5826 23.0425 35.9199 23.5477 36.2135C23.0936 35.9467 22.6476 35.6718 22.457 35.5728C22.0353 35.3141 22.5113 35.5891 22.0036 35.2768C21.6387 35.0611 21.157 34.7805 20.7475 34.517L20.7556 34.5194C19.7581 33.8812 19.2131 33.5681 18.3202 32.9583L18.4192 33.0191C18.1045 32.8018 17.476 32.3882 16.9181 31.9843C17.077 32.0995 17.2116 32.2049 16.8726 31.9681C16.2312 31.5042 15.7933 31.1879 15.3399 30.8295L14.8947 30.4986C14.4527 30.1458 13.7358 29.5774 12.9524 28.8175C12.757 28.6269 12.5599 28.4233 12.3677 28.206C12.1771 27.9887 11.9882 27.7559 11.8333 27.5094C11.7571 27.3869 11.6889 27.2588 11.6476 27.138C11.6273 27.078 11.6143 27.0196 11.6119 26.9741C11.6087 26.9271 11.6176 26.8995 11.6249 26.8866C11.6322 26.8736 11.646 26.8582 11.6849 26.8403C11.7238 26.8233 11.7798 26.8095 11.8438 26.803C11.972 26.7892 12.1228 26.8006 12.2737 26.8233C12.5786 26.8712 12.8924 26.962 13.2006 27.0682C13.5096 27.1761 13.8153 27.301 14.1154 27.4348C14.7155 27.7032 15.2937 28.0057 15.8362 28.3122C16.9221 28.9261 17.8685 29.5546 18.5781 30.0469L18.8814 29.6268C18.218 29.1289 17.7517 28.7542 17.4022 28.4679C17.0535 28.1817 16.8216 27.983 16.6375 27.8249L16.721 27.8938C15.9222 27.2085 14.9369 26.3108 13.9378 25.2362C13.4398 24.6986 12.937 24.1163 12.4748 23.4878C12.2445 23.174 12.0247 22.8471 11.8365 22.5081C11.7433 22.3387 11.6581 22.1659 11.5949 21.9932C11.5632 21.9072 11.5373 21.8213 11.5211 21.7402C11.504 21.6599 11.5024 21.5828 11.5113 21.535C11.5154 21.5107 11.5235 21.4977 11.5284 21.4896C11.534 21.4823 11.5381 21.4774 11.5519 21.4701C11.577 21.4547 11.6452 21.4433 11.7214 21.4482C11.8779 21.4579 12.0612 21.509 12.238 21.5739C12.5948 21.7061 12.9459 21.8894 13.2849 22.0824C13.9645 22.4725 14.606 22.912 15.2094 23.3459C16.4153 24.2185 17.4711 25.0797 18.3113 25.7772C18.7403 26.1494 19.3096 26.6368 19.7913 27.0609L20.1319 26.7C20.046 26.6116 19.9641 26.5265 19.8854 26.4454C20.1554 26.7292 20.0557 26.6392 19.8424 26.4194C19.0971 25.6458 19.0744 25.6174 19.0444 25.5923C19.0168 25.5647 18.9804 25.5404 18.2424 24.7432C17.8182 24.2834 17.1005 23.4935 16.2806 22.5073C15.4632 21.5212 14.5346 20.3396 13.7488 19.0867C13.5542 18.7728 13.3685 18.4549 13.2038 18.1338C13.0408 17.8135 12.8949 17.4866 12.8089 17.1687C12.7667 17.0122 12.7432 16.8508 12.7602 16.7357C12.77 16.6797 12.787 16.644 12.8024 16.6327C12.8162 16.6189 12.8429 16.6051 12.8957 16.6011C13.0011 16.5938 13.1487 16.6302 13.2849 16.683C13.4236 16.7349 13.559 16.803 13.6904 16.8744C14.2151 17.1663 14.6611 17.5118 15.0309 17.8053C15.4007 18.103 15.6927 18.3609 15.8987 18.5449C16.7989 19.3178 17.8361 20.3867 18.6381 21.2341L18.5546 21.1514C18.7525 21.3606 19.1588 21.7977 19.6689 22.3719C20.179 22.9453 20.7912 23.6565 21.4116 24.4026L21.7766 24.1431C21.1959 23.1723 20.6226 22.1473 20.166 21.2698C19.7086 20.3931 19.3664 19.6649 19.2017 19.3081L19.2812 19.4865C19.0104 18.9131 18.9066 18.6601 18.8165 18.4379C18.7273 18.2149 18.6519 18.0227 18.4751 17.5572C18.4897 17.6221 18.3956 17.4031 18.287 17.1168C18.1775 16.8314 18.0575 16.4778 17.9975 16.2807L18.0064 16.2945C17.9139 15.9985 17.7655 15.5135 17.6633 14.9726C17.6131 14.7026 17.5749 14.4187 17.5741 14.1479C17.5741 14.0133 17.5839 13.8811 17.6106 13.7659C17.635 13.6499 17.6836 13.5542 17.7347 13.5088L17.7266 13.5315C17.7671 13.4886 17.8077 13.4659 17.8912 13.4691C17.9739 13.4732 18.0842 13.5113 18.1937 13.5721C18.4151 13.6937 18.6389 13.8876 18.8425 14.0879C19.2504 14.4933 19.5886 14.9386 19.7727 15.1835C20.1928 15.7471 20.6834 16.5005 21.17 17.3269C21.6574 18.1532 22.1423 19.051 22.5802 19.892C22.757 20.2601 22.9298 20.6299 23.1001 21.0022L23.1812 21.1619C23.1812 21.1619 23.4788 21.5658 23.6491 21.6858C23.817 21.8058 23.8705 21.6347 23.3515 20.4848L23.379 20.5164L23.156 20.0704C22.8917 19.5335 22.7505 19.2951 22.7789 19.3259C22.9054 19.5684 23.0287 19.8125 23.1512 20.0566C22.8827 19.5189 23.0774 19.8903 23.186 20.0931C23.0741 19.8684 22.9655 19.6503 22.8754 19.4711C22.817 19.3681 22.9119 19.5505 22.9517 19.6349C22.7984 19.3494 22.5859 18.9521 22.3994 18.605C22.1042 18.0632 22.3986 18.5612 22.0499 17.931C21.586 17.1022 21.1018 16.2921 20.5682 15.5127C20.3014 15.1227 20.0216 14.7407 19.7183 14.3725C19.5667 14.1884 19.4085 14.0084 19.2391 13.8348C19.0704 13.6613 18.8903 13.4934 18.6868 13.341C18.5846 13.2647 18.4751 13.1926 18.351 13.1301C18.227 13.0693 18.0875 13.0125 17.9107 13.0012C17.8231 12.9963 17.725 13.006 17.6293 13.0417C17.5336 13.0766 17.4468 13.1382 17.3819 13.208C17.2538 13.3491 17.1987 13.5015 17.1638 13.6394C17.0965 13.9176 17.1013 14.1722 17.1151 14.422C17.1322 14.671 17.1678 14.9126 17.2124 15.151C17.3033 15.6271 17.4298 16.091 17.5741 16.5492C17.7185 17.0074 17.8823 17.4591 18.0575 17.9075C18.085 17.9911 18.0469 17.8937 18.0056 17.7899C18.4305 18.8718 18.8611 19.8068 19.3347 20.7483C19.4613 21.0119 19.4921 21.0857 19.5278 21.1652C19.5067 21.1173 19.7321 21.5617 20.0792 22.1992C20.4255 22.8374 20.8975 23.6654 21.3411 24.4034L21.8009 24.0774C21.4295 23.6321 21.0808 23.2226 20.8213 22.9217C20.5609 22.6217 20.3923 22.427 20.3793 22.4125L20.3858 22.4157Z" fill="#073542"/>
<path d="M31.7748 31.5344C31.7545 31.4379 31.7018 31.2781 31.6523 31.1265C31.6807 31.2465 31.718 31.3714 31.7748 31.5344Z" fill="#073542"/>
<path d="M31.6531 31.1228C31.6531 31.1228 31.6531 31.1214 31.6523 31.1206C31.6523 31.1228 31.6531 31.1236 31.6538 31.1258C31.6538 31.1251 31.6538 31.1236 31.6538 31.1228H31.6531Z" fill="#073542"/>
<path d="M24.6402 32.2225C24.6183 32.1908 24.5924 32.1551 24.5664 32.1187C24.5907 32.1535 24.6151 32.1892 24.6402 32.2225Z" fill="#073542"/>
<path d="M29.2073 23.8005L29.1813 23.7835C29.0597 23.4259 29.1667 23.6724 29.0508 23.3423C28.981 23.2215 28.8675 22.7917 28.8148 22.6814C28.818 22.683 28.7637 22.5208 28.775 22.5281C28.7442 22.4835 28.715 22.3627 28.6769 22.2613C28.6607 22.2256 28.6818 22.2897 28.6866 22.3189L28.6023 22.0861C28.5755 21.9929 28.5764 21.9677 28.612 22.0667C28.5099 21.7601 28.2139 20.8705 27.9154 19.976C27.8392 19.7506 27.7686 19.5324 27.6883 19.3053C27.6081 19.0823 27.5189 18.8715 27.4256 18.6817C27.2407 18.3014 27.0242 18.011 26.8814 17.8675C26.9471 17.9486 27.0996 18.1335 27.132 18.2186C27.0112 18.0589 26.9552 17.9778 26.8879 17.9153C26.8701 17.8772 26.7938 17.7904 26.6909 17.7061C26.5895 17.6201 26.4573 17.5423 26.3697 17.4961C26.3454 17.492 26.3211 17.4871 26.2951 17.4855C26.2546 17.4701 26.2124 17.4563 26.1678 17.4474C26.0169 17.4263 25.8904 17.4506 25.802 17.4798C25.7566 17.4936 25.7209 17.5107 25.6901 17.5261C25.6585 17.5407 25.6358 17.5561 25.6147 17.5682C25.5336 17.6193 25.5174 17.6404 25.4971 17.6542C25.4801 17.6696 25.4639 17.6818 25.4111 17.7312C25.3625 17.7823 25.2757 17.8732 25.1719 18.0556C25.0576 18.2681 25.0122 18.4287 24.9716 18.5641C24.9351 18.6995 24.9083 18.8106 24.88 18.929C24.8881 18.8934 24.9181 18.8017 24.897 18.9128C24.8775 18.929 24.8459 19.2088 24.8264 19.2599C24.8175 19.3143 24.8021 19.4286 24.7924 19.5154C24.7843 19.6021 24.7818 19.6605 24.7981 19.6021C24.7802 19.6605 24.7502 19.9719 24.7583 19.7854C24.747 19.8909 24.738 19.9922 24.7372 20.0685L24.7518 19.9338C24.7299 20.289 24.7113 20.482 24.7251 20.7124L24.734 20.5818C24.7307 20.7935 24.734 20.9694 24.717 21.0522L24.7105 20.8356C24.7105 21.186 24.7194 21.3968 24.7429 21.6863L24.738 21.5825C24.7535 21.7674 24.794 22.3424 24.8621 22.9085C24.9278 23.4753 25.0162 24.0341 25.0519 24.1995L25.043 24.043L25.0957 24.3293C25.0908 24.2952 25.0316 24.1971 25.0316 24.1671C25.0438 24.2482 25.0632 24.3731 25.0868 24.532C25.1062 24.652 25.1297 24.7964 25.1557 24.9578C25.1468 24.9635 25.1379 24.9699 25.1289 24.9756C25.1087 24.9902 25.0884 25.004 25.0681 25.0186C25.0008 25.0673 24.9335 25.1192 24.8662 25.1727C24.7316 25.2805 24.5977 25.3998 24.4664 25.5246C24.206 25.7769 23.9619 26.0607 23.7624 26.3462C23.5613 26.6308 23.4081 26.9179 23.297 27.1587C23.1891 27.4012 23.1275 27.5983 23.091 27.7029C23.0212 27.9357 23.0585 27.7394 23.0577 27.7362C23.022 27.8805 23.018 27.9121 23.0139 27.9389C23.0091 27.9648 23.0058 27.9859 22.9831 28.1092C22.9677 28.1765 22.975 28.093 22.9807 28.0549C22.962 28.1643 22.9385 28.2641 22.9434 28.2738C22.9734 28.1384 22.9799 28.1992 23.001 28.1441L22.9709 28.3022L22.9523 28.4628L22.9434 28.4474C22.9393 28.4831 22.9418 28.5293 22.9401 28.6055C22.9401 28.6817 22.9458 28.7888 22.9377 28.9461C22.932 29.4797 23.0504 30.0515 23.2223 30.5518C23.2126 30.5462 23.1696 30.444 23.138 30.3361C23.1477 30.3702 23.1607 30.414 23.1729 30.4561C23.1867 30.4983 23.2021 30.5389 23.211 30.5705C23.1777 30.4464 23.2953 30.7765 23.2653 30.6808C23.3391 30.8608 23.4373 31.0587 23.524 31.2566C23.5727 31.3523 23.623 31.4455 23.67 31.5347C23.7178 31.6231 23.7625 31.7067 23.8127 31.7756C23.8306 31.7821 24.013 31.8851 24.1898 31.9759C24.3707 32.0651 24.5531 32.1397 24.5637 32.1324C24.6205 32.2151 24.6772 32.297 24.6926 32.323C24.6829 32.2978 24.5734 32.1348 24.5102 32.0513L24.4875 32.0448C24.4161 31.9475 24.4104 31.9345 24.4047 31.9224C24.3991 31.9102 24.3942 31.898 24.3334 31.7983C24.3358 31.7894 24.365 31.8307 24.4072 31.894C24.4526 31.9548 24.5118 32.0375 24.5669 32.1154C24.5191 32.0448 24.4712 31.9735 24.4307 31.9134C24.3893 31.8534 24.3601 31.8015 24.3358 31.7764C24.2563 31.6369 24.3577 31.7837 24.2612 31.6166C24.2247 31.5582 24.176 31.495 24.1363 31.4236C24.0958 31.3531 24.0552 31.2793 24.022 31.2079L24.0252 31.2095C23.9368 31.04 23.8817 30.9062 23.8176 30.7805L23.7714 30.6856C23.7584 30.6524 23.7454 30.62 23.7324 30.5859C23.7065 30.5178 23.6797 30.4448 23.653 30.3629L23.67 30.3961C23.6619 30.3669 23.6473 30.3312 23.6359 30.2907C23.6238 30.2493 23.6108 30.2031 23.5962 30.1545C23.5678 30.0563 23.5321 29.9468 23.5175 29.839C23.5273 29.9006 23.5297 29.955 23.5021 29.8276C23.481 29.7044 23.4567 29.6014 23.4478 29.5049C23.4381 29.4092 23.421 29.3216 23.4227 29.2308L23.4024 29.0572C23.3935 28.9631 23.404 28.8383 23.4064 28.6907C23.4194 28.5439 23.4332 28.3728 23.4721 28.1895C23.5419 27.8221 23.6846 27.4004 23.9092 27.0071C24.1274 26.6105 24.4193 26.2415 24.7145 25.9447C24.8613 25.7955 25.0089 25.6633 25.1476 25.5514C25.2165 25.4955 25.2838 25.4444 25.3463 25.3981C25.3649 25.3852 25.3828 25.3722 25.4006 25.36C25.4306 25.3389 25.4614 25.3178 25.4922 25.2984C25.5539 25.2595 25.6131 25.2222 25.6698 25.1873C25.5863 24.6707 25.5539 24.4712 25.5304 24.326L25.5377 24.3617C25.4298 23.6675 25.2871 22.6019 25.24 21.5298C25.2173 20.9946 25.2165 20.4577 25.2522 19.9711C25.2871 19.4846 25.3584 19.0483 25.4566 18.7222C25.4947 18.6241 25.5385 18.5081 25.5912 18.4003C25.6439 18.2924 25.7063 18.1951 25.7663 18.1294C25.699 18.2057 25.7128 18.1716 25.7647 18.1116C25.8101 18.0597 25.8483 18.0329 25.8758 18.0151C25.9034 17.9964 25.9229 17.9899 25.9358 17.9826C25.9626 17.9729 25.965 17.9713 25.9683 17.968C25.9715 17.9648 25.9748 17.964 26.0023 17.9559C26.0307 17.9543 26.081 17.9364 26.201 17.9843C26.27 18.0102 26.3673 18.0727 26.4727 18.1748C26.5773 18.2778 26.6909 18.4189 26.7963 18.5917C26.9025 18.7628 27.0039 18.9615 27.0939 19.1764C27.1401 19.2834 27.1815 19.3945 27.2228 19.5081C27.2618 19.624 27.3015 19.7408 27.3413 19.8576C27.6592 20.8056 27.9706 21.7439 28.0849 22.0975C28.2301 22.4705 28.3769 22.9474 28.5131 23.3148L28.4969 23.2791C28.6315 23.6781 29.393 25.9334 29.5495 26.3972L29.5309 26.334C29.6777 26.7346 29.6412 26.6851 29.7433 27.0055C29.7482 26.9576 29.8755 27.2999 29.9218 27.4312L29.9161 27.428C29.9866 27.6259 30.1553 28.0711 30.2697 28.3987L30.2551 28.389C30.3589 28.659 30.5292 29.1764 30.5965 29.3727C30.7449 29.8244 30.9622 30.5251 31.1796 31.1228L31.2826 31.5217L31.3045 31.5777C31.3045 31.5777 31.8681 32.0846 31.6734 31.2631L31.688 31.272L31.6337 31.1155C31.5745 30.9249 31.5331 30.8422 31.5477 30.8511L31.6337 31.1098C31.5721 30.9192 31.6224 31.0498 31.6532 31.1203C31.6272 31.0408 31.6029 30.9638 31.5842 30.8997C31.568 30.8641 31.5891 30.9289 31.5972 30.9589C31.5591 30.8584 31.5015 30.7197 31.4642 30.594C31.3993 30.3994 31.4764 30.5762 31.401 30.3491C31.0044 29.1521 30.624 27.9908 30.2129 26.7841C30.208 26.7549 30.2186 26.7881 30.2324 26.8222C30.1067 26.4589 29.9947 26.1369 29.8804 25.8069C29.8536 25.7136 29.852 25.686 29.8463 25.6576C29.8512 25.686 29.6939 25.2303 29.5349 24.7623C29.3768 24.2944 29.2154 23.8167 29.2097 23.8013L29.2073 23.8005Z" fill="#073542"/>
<path d="M44.2898 21.2304C44.3851 21.2304 44.4623 21.1531 44.4623 21.0578C44.4623 20.9625 44.3851 20.8853 44.2898 20.8853C44.1945 20.8853 44.1172 20.9625 44.1172 21.0578C44.1172 21.1531 44.1945 21.2304 44.2898 21.2304Z" fill="#073644"/>
<path d="M43.4089 21.6704C43.5042 21.6704 43.5815 21.5931 43.5815 21.4978C43.5815 21.4025 43.5042 21.3252 43.4089 21.3252C43.3136 21.3252 43.2363 21.4025 43.2363 21.4978C43.2363 21.5931 43.3136 21.6704 43.4089 21.6704Z" fill="#073644"/>
<path d="M43.4089 20.7905C43.5042 20.7905 43.5815 20.7132 43.5815 20.6179C43.5815 20.5226 43.5042 20.4453 43.4089 20.4453C43.3136 20.4453 43.2363 20.5226 43.2363 20.6179C43.2363 20.7132 43.3136 20.7905 43.4089 20.7905Z" fill="#073644"/>
<path d="M42.528 20.3505C42.6234 20.3505 42.7006 20.2733 42.7006 20.178C42.7006 20.0826 42.6234 20.0054 42.528 20.0054C42.4327 20.0054 42.3555 20.0826 42.3555 20.178C42.3555 20.2733 42.4327 20.3505 42.528 20.3505Z" fill="#073644"/>
<path d="M41.6491 19.9101C41.7445 19.9101 41.8217 19.8328 41.8217 19.7375C41.8217 19.6422 41.7445 19.5649 41.6491 19.5649C41.5538 19.5649 41.4766 19.6422 41.4766 19.7375C41.4766 19.8328 41.5538 19.9101 41.6491 19.9101Z" fill="#073644"/>
<path d="M42.528 22.1123C42.6234 22.1123 42.7006 22.035 42.7006 21.9397C42.7006 21.8444 42.6234 21.7671 42.528 21.7671C42.4327 21.7671 42.3555 21.8444 42.3555 21.9397C42.3555 22.035 42.4327 22.1123 42.528 22.1123Z" fill="#073644"/>
<path d="M42.528 21.2304C42.6234 21.2304 42.7006 21.1531 42.7006 21.0578C42.7006 20.9625 42.6234 20.8853 42.528 20.8853C42.4327 20.8853 42.3555 20.9625 42.3555 21.0578C42.3555 21.1531 42.4327 21.2304 42.528 21.2304Z" fill="#073644"/>
<path d="M41.6491 21.6704C41.7445 21.6704 41.8217 21.5931 41.8217 21.4978C41.8217 21.4025 41.7445 21.3252 41.6491 21.3252C41.5538 21.3252 41.4766 21.4025 41.4766 21.4978C41.4766 21.5931 41.5538 21.6704 41.6491 21.6704Z" fill="#073644"/>
<path d="M41.6491 20.7905C41.7445 20.7905 41.8217 20.7132 41.8217 20.6179C41.8217 20.5226 41.7445 20.4453 41.6491 20.4453C41.5538 20.4453 41.4766 20.5226 41.4766 20.6179C41.4766 20.7132 41.5538 20.7905 41.6491 20.7905Z" fill="#073644"/>
<path d="M41.6491 22.5522C41.7445 22.5522 41.8217 22.4749 41.8217 22.3796C41.8217 22.2843 41.7445 22.207 41.6491 22.207C41.5538 22.207 41.4766 22.2843 41.4766 22.3796C41.4766 22.4749 41.5538 22.5522 41.6491 22.5522Z" fill="#073644"/>
<path d="M39.8874 18.1484C39.9827 18.1484 40.06 18.0711 40.06 17.9758C40.06 17.8805 39.9827 17.8032 39.8874 17.8032C39.7921 17.8032 39.7148 17.8805 39.7148 17.9758C39.7148 18.0711 39.7921 18.1484 39.8874 18.1484Z" fill="#073644"/>
<path d="M40.7683 20.3505C40.8636 20.3505 40.9409 20.2733 40.9409 20.178C40.9409 20.0826 40.8636 20.0054 40.7683 20.0054C40.673 20.0054 40.5957 20.0826 40.5957 20.178C40.5957 20.2733 40.673 20.3505 40.7683 20.3505Z" fill="#073644"/>
<path d="M40.7683 19.4702C40.8636 19.4702 40.9409 19.3929 40.9409 19.2976C40.9409 19.2023 40.8636 19.125 40.7683 19.125C40.673 19.125 40.5957 19.2023 40.5957 19.2976C40.5957 19.3929 40.673 19.4702 40.7683 19.4702Z" fill="#073644"/>
<path d="M39.8874 19.9101C39.9827 19.9101 40.06 19.8328 40.06 19.7375C40.06 19.6422 39.9827 19.5649 39.8874 19.5649C39.7921 19.5649 39.7148 19.6422 39.7148 19.7375C39.7148 19.8328 39.7921 19.9101 39.8874 19.9101Z" fill="#073644"/>
<path d="M39.8874 19.0302C39.9827 19.0302 40.06 18.953 40.06 18.8576C40.06 18.7623 39.9827 18.6851 39.8874 18.6851C39.7921 18.6851 39.7148 18.7623 39.7148 18.8576C39.7148 18.953 39.7921 19.0302 39.8874 19.0302Z" fill="#073644"/>
<path d="M40.7683 22.1123C40.8636 22.1123 40.9409 22.035 40.9409 21.9397C40.9409 21.8444 40.8636 21.7671 40.7683 21.7671C40.673 21.7671 40.5957 21.8444 40.5957 21.9397C40.5957 22.035 40.673 22.1123 40.7683 22.1123Z" fill="#073644"/>
<path d="M40.7683 21.2304C40.8636 21.2304 40.9409 21.1531 40.9409 21.0578C40.9409 20.9625 40.8636 20.8853 40.7683 20.8853C40.673 20.8853 40.5957 20.9625 40.5957 21.0578C40.5957 21.1531 40.673 21.2304 40.7683 21.2304Z" fill="#073644"/>
<path d="M39.8874 21.6704C39.9827 21.6704 40.06 21.5931 40.06 21.4978C40.06 21.4025 39.9827 21.3252 39.8874 21.3252C39.7921 21.3252 39.7148 21.4025 39.7148 21.4978C39.7148 21.5931 39.7921 21.6704 39.8874 21.6704Z" fill="#073644"/>
<path d="M39.8874 20.7905C39.9827 20.7905 40.06 20.7132 40.06 20.6179C40.06 20.5226 39.9827 20.4453 39.8874 20.4453C39.7921 20.4453 39.7148 20.5226 39.7148 20.6179C39.7148 20.7132 39.7921 20.7905 39.8874 20.7905Z" fill="#073644"/>
<path d="M40.7683 22.9926C40.8636 22.9926 40.9409 22.9154 40.9409 22.82C40.9409 22.7247 40.8636 22.6475 40.7683 22.6475C40.673 22.6475 40.5957 22.7247 40.5957 22.82C40.5957 22.9154 40.673 22.9926 40.7683 22.9926Z" fill="#073644"/>
<path d="M39.8874 23.4326C39.9827 23.4326 40.06 23.3553 40.06 23.26C40.06 23.1647 39.9827 23.0874 39.8874 23.0874C39.7921 23.0874 39.7148 23.1647 39.7148 23.26C39.7148 23.3553 39.7921 23.4326 39.8874 23.4326Z" fill="#073644"/>
<path d="M39.8874 22.5522C39.9827 22.5522 40.06 22.4749 40.06 22.3796C40.06 22.2843 39.9827 22.207 39.8874 22.207C39.7921 22.207 39.7148 22.2843 39.7148 22.3796C39.7148 22.4749 39.7921 22.5522 39.8874 22.5522Z" fill="#073644"/>
<path d="M39.8874 24.3129C39.9827 24.3129 40.06 24.2357 40.06 24.1404C40.06 24.045 39.9827 23.9678 39.8874 23.9678C39.7921 23.9678 39.7148 24.045 39.7148 24.1404C39.7148 24.2357 39.7921 24.3129 39.8874 24.3129Z" fill="#073644"/>
<path d="M38.1257 14.6274C38.221 14.6274 38.2983 14.5501 38.2983 14.4548C38.2983 14.3595 38.221 14.2822 38.1257 14.2822C38.0304 14.2822 37.9531 14.3595 37.9531 14.4548C37.9531 14.5501 38.0304 14.6274 38.1257 14.6274Z" fill="#073644"/>
<path d="M39.0066 16.8281C39.1019 16.8281 39.1791 16.7508 39.1791 16.6555C39.1791 16.5602 39.1019 16.4829 39.0066 16.4829C38.9113 16.4829 38.834 16.5602 38.834 16.6555C38.834 16.7508 38.9113 16.8281 39.0066 16.8281Z" fill="#073644"/>
<path d="M38.1257 16.3881C38.221 16.3881 38.2983 16.3109 38.2983 16.2155C38.2983 16.1202 38.221 16.043 38.1257 16.043C38.0304 16.043 37.9531 16.1202 37.9531 16.2155C37.9531 16.3109 38.0304 16.3881 38.1257 16.3881Z" fill="#073644"/>
<path d="M38.1257 15.5078C38.221 15.5078 38.2983 15.4305 38.2983 15.3352C38.2983 15.2399 38.221 15.1626 38.1257 15.1626C38.0304 15.1626 37.9531 15.2399 37.9531 15.3352C37.9531 15.4305 38.0304 15.5078 38.1257 15.5078Z" fill="#073644"/>
<path d="M39.0066 18.5898C39.1019 18.5898 39.1791 18.5125 39.1791 18.4172C39.1791 18.3219 39.1019 18.2446 39.0066 18.2446C38.9113 18.2446 38.834 18.3219 38.834 18.4172C38.834 18.5125 38.9113 18.5898 39.0066 18.5898Z" fill="#073644"/>
<path d="M39.0066 17.708C39.1019 17.708 39.1791 17.6307 39.1791 17.5354C39.1791 17.4401 39.1019 17.3628 39.0066 17.3628C38.9113 17.3628 38.834 17.4401 38.834 17.5354C38.834 17.6307 38.9113 17.708 39.0066 17.708Z" fill="#073644"/>
<path d="M38.1257 18.1484C38.221 18.1484 38.2983 18.0711 38.2983 17.9758C38.2983 17.8805 38.221 17.8032 38.1257 17.8032C38.0304 17.8032 37.9531 17.8805 37.9531 17.9758C37.9531 18.0711 38.0304 18.1484 38.1257 18.1484Z" fill="#073644"/>
<path d="M38.1257 17.268C38.221 17.268 38.2983 17.1907 38.2983 17.0954C38.2983 17.0001 38.221 16.9229 38.1257 16.9229C38.0304 16.9229 37.9531 17.0001 37.9531 17.0954C37.9531 17.1907 38.0304 17.268 38.1257 17.268Z" fill="#073644"/>
<path d="M39.0066 20.3505C39.1019 20.3505 39.1791 20.2733 39.1791 20.178C39.1791 20.0826 39.1019 20.0054 39.0066 20.0054C38.9113 20.0054 38.834 20.0826 38.834 20.178C38.834 20.2733 38.9113 20.3505 39.0066 20.3505Z" fill="#073644"/>
<path d="M39.0066 19.4702C39.1019 19.4702 39.1791 19.3929 39.1791 19.2976C39.1791 19.2023 39.1019 19.125 39.0066 19.125C38.9113 19.125 38.834 19.2023 38.834 19.2976C38.834 19.3929 38.9113 19.4702 39.0066 19.4702Z" fill="#073644"/>
<path d="M38.1257 19.9101C38.221 19.9101 38.2983 19.8328 38.2983 19.7375C38.2983 19.6422 38.221 19.5649 38.1257 19.5649C38.0304 19.5649 37.9531 19.6422 37.9531 19.7375C37.9531 19.8328 38.0304 19.9101 38.1257 19.9101Z" fill="#073644"/>
<path d="M38.1257 19.0302C38.221 19.0302 38.2983 18.953 38.2983 18.8576C38.2983 18.7623 38.221 18.6851 38.1257 18.6851C38.0304 18.6851 37.9531 18.7623 37.9531 18.8576C37.9531 18.953 38.0304 19.0302 38.1257 19.0302Z" fill="#073644"/>
<path d="M39.0066 22.1123C39.1019 22.1123 39.1791 22.035 39.1791 21.9397C39.1791 21.8444 39.1019 21.7671 39.0066 21.7671C38.9113 21.7671 38.834 21.8444 38.834 21.9397C38.834 22.035 38.9113 22.1123 39.0066 22.1123Z" fill="#073644"/>
<path d="M39.0066 21.2304C39.1019 21.2304 39.1791 21.1531 39.1791 21.0578C39.1791 20.9625 39.1019 20.8853 39.0066 20.8853C38.9113 20.8853 38.834 20.9625 38.834 21.0578C38.834 21.1531 38.9113 21.2304 39.0066 21.2304Z" fill="#073644"/>
<path d="M38.1257 21.6704C38.221 21.6704 38.2983 21.5931 38.2983 21.4978C38.2983 21.4025 38.221 21.3252 38.1257 21.3252C38.0304 21.3252 37.9531 21.4025 37.9531 21.4978C37.9531 21.5931 38.0304 21.6704 38.1257 21.6704Z" fill="#073644"/>
<path d="M38.1257 20.7905C38.221 20.7905 38.2983 20.7132 38.2983 20.6179C38.2983 20.5226 38.221 20.4453 38.1257 20.4453C38.0304 20.4453 37.9531 20.5226 37.9531 20.6179C37.9531 20.7132 38.0304 20.7905 38.1257 20.7905Z" fill="#073644"/>
<path d="M39.0066 23.8725C39.1019 23.8725 39.1791 23.7952 39.1791 23.6999C39.1791 23.6046 39.1019 23.5273 39.0066 23.5273C38.9113 23.5273 38.834 23.6046 38.834 23.6999C38.834 23.7952 38.9113 23.8725 39.0066 23.8725Z" fill="#073644"/>
<path d="M39.0066 22.9926C39.1019 22.9926 39.1791 22.9154 39.1791 22.82C39.1791 22.7247 39.1019 22.6475 39.0066 22.6475C38.9113 22.6475 38.834 22.7247 38.834 22.82C38.834 22.9154 38.9113 22.9926 39.0066 22.9926Z" fill="#073644"/>
<path d="M38.1257 23.4326C38.221 23.4326 38.2983 23.3553 38.2983 23.26C38.2983 23.1647 38.221 23.0874 38.1257 23.0874C38.0304 23.0874 37.9531 23.1647 37.9531 23.26C37.9531 23.3553 38.0304 23.4326 38.1257 23.4326Z" fill="#073644"/>
<path d="M38.1257 22.5522C38.221 22.5522 38.2983 22.4749 38.2983 22.3796C38.2983 22.2843 38.221 22.207 38.1257 22.207C38.0304 22.207 37.9531 22.2843 37.9531 22.3796C37.9531 22.4749 38.0304 22.5522 38.1257 22.5522Z" fill="#073644"/>
<path d="M39.0066 25.6328C39.1019 25.6328 39.1791 25.5555 39.1791 25.4602C39.1791 25.3649 39.1019 25.2876 39.0066 25.2876C38.9113 25.2876 38.834 25.3649 38.834 25.4602C38.834 25.5555 38.9113 25.6328 39.0066 25.6328Z" fill="#073644"/>
<path d="M39.0066 24.7529C39.1019 24.7529 39.1791 24.6756 39.1791 24.5803C39.1791 24.485 39.1019 24.4077 39.0066 24.4077C38.9113 24.4077 38.834 24.485 38.834 24.5803C38.834 24.6756 38.9113 24.7529 39.0066 24.7529Z" fill="#073644"/>
<path d="M38.1257 25.1928C38.221 25.1928 38.2983 25.1156 38.2983 25.0202C38.2983 24.9249 38.221 24.8477 38.1257 24.8477C38.0304 24.8477 37.9531 24.9249 37.9531 25.0202C37.9531 25.1156 38.0304 25.1928 38.1257 25.1928Z" fill="#073644"/>
<path d="M38.1257 24.3129C38.221 24.3129 38.2983 24.2357 38.2983 24.1404C38.2983 24.045 38.221 23.9678 38.1257 23.9678C38.0304 23.9678 37.9531 24.045 37.9531 24.1404C37.9531 24.2357 38.0304 24.3129 38.1257 24.3129Z" fill="#073644"/>
<path d="M38.1257 26.955C38.221 26.955 38.2983 26.8778 38.2983 26.7824C38.2983 26.6871 38.221 26.6099 38.1257 26.6099C38.0304 26.6099 37.9531 26.6871 37.9531 26.7824C37.9531 26.8778 38.0304 26.955 38.1257 26.955Z" fill="#073644"/>
<path d="M38.1257 26.0747C38.221 26.0747 38.2983 25.9974 38.2983 25.9021C38.2983 25.8068 38.221 25.7295 38.1257 25.7295C38.0304 25.7295 37.9531 25.8068 37.9531 25.9021C37.9531 25.9974 38.0304 26.0747 38.1257 26.0747Z" fill="#073644"/>
<path d="M38.1257 27.8354C38.221 27.8354 38.2983 27.7581 38.2983 27.6628C38.2983 27.5675 38.221 27.4902 38.1257 27.4902C38.0304 27.4902 37.9531 27.5675 37.9531 27.6628C37.9531 27.7581 38.0304 27.8354 38.1257 27.8354Z" fill="#073644"/>
<path d="M37.2468 16.8281C37.3421 16.8281 37.4194 16.7508 37.4194 16.6555C37.4194 16.5602 37.3421 16.4829 37.2468 16.4829C37.1515 16.4829 37.0742 16.5602 37.0742 16.6555C37.0742 16.7508 37.1515 16.8281 37.2468 16.8281Z" fill="#073644"/>
<path d="M37.2468 18.5898C37.3421 18.5898 37.4194 18.5125 37.4194 18.4172C37.4194 18.3219 37.3421 18.2446 37.2468 18.2446C37.1515 18.2446 37.0742 18.3219 37.0742 18.4172C37.0742 18.5125 37.1515 18.5898 37.2468 18.5898Z" fill="#073644"/>
<path d="M37.2468 17.708C37.3421 17.708 37.4194 17.6307 37.4194 17.5354C37.4194 17.4401 37.3421 17.3628 37.2468 17.3628C37.1515 17.3628 37.0742 17.4401 37.0742 17.5354C37.0742 17.6307 37.1515 17.708 37.2468 17.708Z" fill="#073644"/>
<path d="M36.364 18.1484C36.4593 18.1484 36.5366 18.0711 36.5366 17.9758C36.5366 17.8805 36.4593 17.8032 36.364 17.8032C36.2687 17.8032 36.1914 17.8805 36.1914 17.9758C36.1914 18.0711 36.2687 18.1484 36.364 18.1484Z" fill="#073644"/>
<path d="M37.2468 20.3505C37.3421 20.3505 37.4194 20.2733 37.4194 20.178C37.4194 20.0826 37.3421 20.0054 37.2468 20.0054C37.1515 20.0054 37.0742 20.0826 37.0742 20.178C37.0742 20.2733 37.1515 20.3505 37.2468 20.3505Z" fill="#073644"/>
<path d="M37.2468 19.4702C37.3421 19.4702 37.4194 19.3929 37.4194 19.2976C37.4194 19.2023 37.3421 19.125 37.2468 19.125C37.1515 19.125 37.0742 19.2023 37.0742 19.2976C37.0742 19.3929 37.1515 19.4702 37.2468 19.4702Z" fill="#073644"/>
<path d="M36.364 19.9101C36.4593 19.9101 36.5366 19.8328 36.5366 19.7375C36.5366 19.6422 36.4593 19.5649 36.364 19.5649C36.2687 19.5649 36.1914 19.6422 36.1914 19.7375C36.1914 19.8328 36.2687 19.9101 36.364 19.9101Z" fill="#073644"/>
<path d="M36.364 19.0302C36.4593 19.0302 36.5366 18.953 36.5366 18.8576C36.5366 18.7623 36.4593 18.6851 36.364 18.6851C36.2687 18.6851 36.1914 18.7623 36.1914 18.8576C36.1914 18.953 36.2687 19.0302 36.364 19.0302Z" fill="#073644"/>
<path d="M37.2468 22.1123C37.3421 22.1123 37.4194 22.035 37.4194 21.9397C37.4194 21.8444 37.3421 21.7671 37.2468 21.7671C37.1515 21.7671 37.0742 21.8444 37.0742 21.9397C37.0742 22.035 37.1515 22.1123 37.2468 22.1123Z" fill="#073644"/>
<path d="M37.2468 21.2304C37.3421 21.2304 37.4194 21.1531 37.4194 21.0578C37.4194 20.9625 37.3421 20.8853 37.2468 20.8853C37.1515 20.8853 37.0742 20.9625 37.0742 21.0578C37.0742 21.1531 37.1515 21.2304 37.2468 21.2304Z" fill="#073644"/>
<path d="M36.364 21.6704C36.4593 21.6704 36.5366 21.5931 36.5366 21.4978C36.5366 21.4025 36.4593 21.3252 36.364 21.3252C36.2687 21.3252 36.1914 21.4025 36.1914 21.4978C36.1914 21.5931 36.2687 21.6704 36.364 21.6704Z" fill="#073644"/>
<path d="M36.364 20.7905C36.4593 20.7905 36.5366 20.7132 36.5366 20.6179C36.5366 20.5226 36.4593 20.4453 36.364 20.4453C36.2687 20.4453 36.1914 20.5226 36.1914 20.6179C36.1914 20.7132 36.2687 20.7905 36.364 20.7905Z" fill="#073644"/>
<path d="M37.2468 23.8725C37.3421 23.8725 37.4194 23.7952 37.4194 23.6999C37.4194 23.6046 37.3421 23.5273 37.2468 23.5273C37.1515 23.5273 37.0742 23.6046 37.0742 23.6999C37.0742 23.7952 37.1515 23.8725 37.2468 23.8725Z" fill="#073644"/>
<path d="M37.2468 22.9926C37.3421 22.9926 37.4194 22.9154 37.4194 22.82C37.4194 22.7247 37.3421 22.6475 37.2468 22.6475C37.1515 22.6475 37.0742 22.7247 37.0742 22.82C37.0742 22.9154 37.1515 22.9926 37.2468 22.9926Z" fill="#073644"/>
<path d="M36.364 23.4326C36.4593 23.4326 36.5366 23.3553 36.5366 23.26C36.5366 23.1647 36.4593 23.0874 36.364 23.0874C36.2687 23.0874 36.1914 23.1647 36.1914 23.26C36.1914 23.3553 36.2687 23.4326 36.364 23.4326Z" fill="#073644"/>
<path d="M36.364 22.5522C36.4593 22.5522 36.5366 22.4749 36.5366 22.3796C36.5366 22.2843 36.4593 22.207 36.364 22.207C36.2687 22.207 36.1914 22.2843 36.1914 22.3796C36.1914 22.4749 36.2687 22.5522 36.364 22.5522Z" fill="#073644"/>
<path d="M37.2468 25.6328C37.3421 25.6328 37.4194 25.5555 37.4194 25.4602C37.4194 25.3649 37.3421 25.2876 37.2468 25.2876C37.1515 25.2876 37.0742 25.3649 37.0742 25.4602C37.0742 25.5555 37.1515 25.6328 37.2468 25.6328Z" fill="#073644"/>
<path d="M37.2468 24.7529C37.3421 24.7529 37.4194 24.6756 37.4194 24.5803C37.4194 24.485 37.3421 24.4077 37.2468 24.4077C37.1515 24.4077 37.0742 24.485 37.0742 24.5803C37.0742 24.6756 37.1515 24.7529 37.2468 24.7529Z" fill="#073644"/>
<path d="M36.364 24.3129C36.4593 24.3129 36.5366 24.2357 36.5366 24.1404C36.5366 24.045 36.4593 23.9678 36.364 23.9678C36.2687 23.9678 36.1914 24.045 36.1914 24.1404C36.1914 24.2357 36.2687 24.3129 36.364 24.3129Z" fill="#073644"/>
<path d="M35.4831 20.3505C35.5784 20.3505 35.6557 20.2733 35.6557 20.178C35.6557 20.0826 35.5784 20.0054 35.4831 20.0054C35.3878 20.0054 35.3105 20.0826 35.3105 20.178C35.3105 20.2733 35.3878 20.3505 35.4831 20.3505Z" fill="#073644"/>
<path d="M35.4831 19.4702C35.5784 19.4702 35.6557 19.3929 35.6557 19.2976C35.6557 19.2023 35.5784 19.125 35.4831 19.125C35.3878 19.125 35.3105 19.2023 35.3105 19.2976C35.3105 19.3929 35.3878 19.4702 35.4831 19.4702Z" fill="#073644"/>
<path d="M34.6042 19.9101C34.6995 19.9101 34.7768 19.8328 34.7768 19.7375C34.7768 19.6422 34.6995 19.5649 34.6042 19.5649C34.5089 19.5649 34.4316 19.6422 34.4316 19.7375C34.4316 19.8328 34.5089 19.9101 34.6042 19.9101Z" fill="#073644"/>
<path d="M35.4831 22.1123C35.5784 22.1123 35.6557 22.035 35.6557 21.9397C35.6557 21.8444 35.5784 21.7671 35.4831 21.7671C35.3878 21.7671 35.3105 21.8444 35.3105 21.9397C35.3105 22.035 35.3878 22.1123 35.4831 22.1123Z" fill="#073644"/>
<path d="M35.4831 21.2304C35.5784 21.2304 35.6557 21.1531 35.6557 21.0578C35.6557 20.9625 35.5784 20.8853 35.4831 20.8853C35.3878 20.8853 35.3105 20.9625 35.3105 21.0578C35.3105 21.1531 35.3878 21.2304 35.4831 21.2304Z" fill="#073644"/>
<path d="M34.6042 21.6704C34.6995 21.6704 34.7768 21.5931 34.7768 21.4978C34.7768 21.4025 34.6995 21.3252 34.6042 21.3252C34.5089 21.3252 34.4316 21.4025 34.4316 21.4978C34.4316 21.5931 34.5089 21.6704 34.6042 21.6704Z" fill="#073644"/>
<path d="M34.6042 20.7905C34.6995 20.7905 34.7768 20.7132 34.7768 20.6179C34.7768 20.5226 34.6995 20.4453 34.6042 20.4453C34.5089 20.4453 34.4316 20.5226 34.4316 20.6179C34.4316 20.7132 34.5089 20.7905 34.6042 20.7905Z" fill="#073644"/>
<path d="M35.4831 22.9926C35.5784 22.9926 35.6557 22.9154 35.6557 22.82C35.6557 22.7247 35.5784 22.6475 35.4831 22.6475C35.3878 22.6475 35.3105 22.7247 35.3105 22.82C35.3105 22.9154 35.3878 22.9926 35.4831 22.9926Z" fill="#073644"/>
<path d="M34.6042 22.5522C34.6995 22.5522 34.7768 22.4749 34.7768 22.3796C34.7768 22.2843 34.6995 22.207 34.6042 22.207C34.5089 22.207 34.4316 22.2843 34.4316 22.3796C34.4316 22.4749 34.5089 22.5522 34.6042 22.5522Z" fill="#073644"/>
<path d="M33.7234 20.3505C33.8187 20.3505 33.8959 20.2733 33.8959 20.178C33.8959 20.0826 33.8187 20.0054 33.7234 20.0054C33.628 20.0054 33.5508 20.0826 33.5508 20.178C33.5508 20.2733 33.628 20.3505 33.7234 20.3505Z" fill="#073644"/>
<path d="M33.7234 22.1123C33.8187 22.1123 33.8959 22.035 33.8959 21.9397C33.8959 21.8444 33.8187 21.7671 33.7234 21.7671C33.628 21.7671 33.5508 21.8444 33.5508 21.9397C33.5508 22.035 33.628 22.1123 33.7234 22.1123Z" fill="#073644"/>
<path d="M33.7234 21.2304C33.8187 21.2304 33.8959 21.1531 33.8959 21.0578C33.8959 20.9625 33.8187 20.8853 33.7234 20.8853C33.628 20.8853 33.5508 20.9625 33.5508 21.0578C33.5508 21.1531 33.628 21.2304 33.7234 21.2304Z" fill="#073644"/>
<path d="M32.8405 21.6704C32.9359 21.6704 33.0131 21.5931 33.0131 21.4978C33.0131 21.4025 32.9359 21.3252 32.8405 21.3252C32.7452 21.3252 32.668 21.4025 32.668 21.4978C32.668 21.5931 32.7452 21.6704 32.8405 21.6704Z" fill="#073644"/>
<path d="M32.8405 20.7905C32.9359 20.7905 33.0131 20.7132 33.0131 20.6179C33.0131 20.5226 32.9359 20.4453 32.8405 20.4453C32.7452 20.4453 32.668 20.5226 32.668 20.6179C32.668 20.7132 32.7452 20.7905 32.8405 20.7905Z" fill="#073644"/>
<path d="M31.9616 21.2304C32.057 21.2304 32.1342 21.1531 32.1342 21.0578C32.1342 20.9625 32.057 20.8853 31.9616 20.8853C31.8663 20.8853 31.7891 20.9625 31.7891 21.0578C31.7891 21.1531 31.8663 21.2304 31.9616 21.2304Z" fill="#073644"/>
<path d="M31.8152 10.0405C31.9105 10.0405 31.9877 9.96321 31.9877 9.86789C31.9877 9.77258 31.9105 9.69531 31.8152 9.69531C31.7198 9.69531 31.6426 9.77258 31.6426 9.86789C31.6426 9.96321 31.7198 10.0405 31.8152 10.0405Z" fill="#073644"/>
<path d="M29.1745 8.72065C29.2698 8.72065 29.3471 8.64338 29.3471 8.54807C29.3471 8.45276 29.2698 8.37549 29.1745 8.37549C29.0792 8.37549 29.002 8.45276 29.002 8.54807C29.002 8.64338 29.0792 8.72065 29.1745 8.72065Z" fill="#073644"/>
<path d="M30.0534 10.0405C30.1488 10.0405 30.226 9.96321 30.226 9.86789C30.226 9.77258 30.1488 9.69531 30.0534 9.69531C29.9581 9.69531 29.8809 9.77258 29.8809 9.86789C29.8809 9.96321 29.9581 10.0405 30.0534 10.0405Z" fill="#073644"/>
<path d="M29.1745 10.4809C29.2698 10.4809 29.3471 10.4036 29.3471 10.3083C29.3471 10.213 29.2698 10.1357 29.1745 10.1357C29.0792 10.1357 29.002 10.213 29.002 10.3083C29.002 10.4036 29.0792 10.4809 29.1745 10.4809Z" fill="#073644"/>
<path d="M29.1745 9.60053C29.2698 9.60053 29.3471 9.52327 29.3471 9.42795C29.3471 9.33264 29.2698 9.25537 29.1745 9.25537C29.0792 9.25537 29.002 9.33264 29.002 9.42795C29.002 9.52327 29.0792 9.60053 29.1745 9.60053Z" fill="#073644"/>
<path d="M29.1745 11.3627C29.2698 11.3627 29.3471 11.2855 29.3471 11.1902C29.3471 11.0948 29.2698 11.0176 29.1745 11.0176C29.0792 11.0176 29.002 11.0948 29.002 11.1902C29.002 11.2855 29.0792 11.3627 29.1745 11.3627Z" fill="#073644"/>
<path d="M27.4128 6.95991C27.5081 6.95991 27.5854 6.88264 27.5854 6.78733C27.5854 6.69201 27.5081 6.61475 27.4128 6.61475C27.3175 6.61475 27.2402 6.69201 27.2402 6.78733C27.2402 6.88264 27.3175 6.95991 27.4128 6.95991Z" fill="#073644"/>
<path d="M27.4128 6.07807C27.5081 6.07807 27.5854 6.0008 27.5854 5.90549C27.5854 5.81018 27.5081 5.73291 27.4128 5.73291C27.3175 5.73291 27.2402 5.81018 27.2402 5.90549C27.2402 6.0008 27.3175 6.07807 27.4128 6.07807Z" fill="#073644"/>
<path d="M28.2917 9.16059C28.387 9.16059 28.4643 9.08332 28.4643 8.98801C28.4643 8.8927 28.387 8.81543 28.2917 8.81543C28.1964 8.81543 28.1191 8.8927 28.1191 8.98801C28.1191 9.08332 28.1964 9.16059 28.2917 9.16059Z" fill="#073644"/>
<path d="M28.2917 8.28022C28.387 8.28022 28.4643 8.20295 28.4643 8.10764C28.4643 8.01233 28.387 7.93506 28.2917 7.93506C28.1964 7.93506 28.1191 8.01233 28.1191 8.10764C28.1191 8.20295 28.1964 8.28022 28.2917 8.28022Z" fill="#073644"/>
<path d="M27.4128 8.72065C27.5081 8.72065 27.5854 8.64338 27.5854 8.54807C27.5854 8.45276 27.5081 8.37549 27.4128 8.37549C27.3175 8.37549 27.2402 8.45276 27.2402 8.54807C27.2402 8.64338 27.3175 8.72065 27.4128 8.72065Z" fill="#073644"/>
<path d="M27.4128 7.84028C27.5081 7.84028 27.5854 7.76301 27.5854 7.6677C27.5854 7.57238 27.5081 7.49512 27.4128 7.49512C27.3175 7.49512 27.2402 7.57238 27.2402 7.6677C27.2402 7.76301 27.3175 7.84028 27.4128 7.84028Z" fill="#073644"/>
<path d="M28.2917 10.9223C28.387 10.9223 28.4643 10.845 28.4643 10.7497C28.4643 10.6544 28.387 10.5771 28.2917 10.5771C28.1964 10.5771 28.1191 10.6544 28.1191 10.7497C28.1191 10.845 28.1964 10.9223 28.2917 10.9223Z" fill="#073644"/>
<path d="M28.2917 10.0405C28.387 10.0405 28.4643 9.96321 28.4643 9.86789C28.4643 9.77258 28.387 9.69531 28.2917 9.69531C28.1964 9.69531 28.1191 9.77258 28.1191 9.86789C28.1191 9.96321 28.1964 10.0405 28.2917 10.0405Z" fill="#073644"/>
<path d="M27.4128 10.4809C27.5081 10.4809 27.5854 10.4036 27.5854 10.3083C27.5854 10.213 27.5081 10.1357 27.4128 10.1357C27.3175 10.1357 27.2402 10.213 27.2402 10.3083C27.2402 10.4036 27.3175 10.4809 27.4128 10.4809Z" fill="#073644"/>
<path d="M27.4128 9.60053C27.5081 9.60053 27.5854 9.52327 27.5854 9.42795C27.5854 9.33264 27.5081 9.25537 27.4128 9.25537C27.3175 9.25537 27.2402 9.33264 27.2402 9.42795C27.2402 9.52327 27.3175 9.60053 27.4128 9.60053Z" fill="#073644"/>
<path d="M28.2917 11.8027C28.387 11.8027 28.4643 11.7254 28.4643 11.6301C28.4643 11.5348 28.387 11.4575 28.2917 11.4575C28.1964 11.4575 28.1191 11.5348 28.1191 11.6301C28.1191 11.7254 28.1964 11.8027 28.2917 11.8027Z" fill="#073644"/>
<path d="M27.4128 12.2426C27.5081 12.2426 27.5854 12.1654 27.5854 12.07C27.5854 11.9747 27.5081 11.8975 27.4128 11.8975C27.3175 11.8975 27.2402 11.9747 27.2402 12.07C27.2402 12.1654 27.3175 12.2426 27.4128 12.2426Z" fill="#073644"/>
<path d="M27.4128 11.3627C27.5081 11.3627 27.5854 11.2855 27.5854 11.1902C27.5854 11.0948 27.5081 11.0176 27.4128 11.0176C27.3175 11.0176 27.2402 11.0948 27.2402 11.1902C27.2402 11.2855 27.3175 11.3627 27.4128 11.3627Z" fill="#073644"/>
<path d="M27.4128 14.0029C27.5081 14.0029 27.5854 13.9256 27.5854 13.8303C27.5854 13.735 27.5081 13.6577 27.4128 13.6577C27.3175 13.6577 27.2402 13.735 27.2402 13.8303C27.2402 13.9256 27.3175 14.0029 27.4128 14.0029Z" fill="#073644"/>
<path d="M27.4128 13.123C27.5081 13.123 27.5854 13.0457 27.5854 12.9504C27.5854 12.8551 27.5081 12.7778 27.4128 12.7778C27.3175 12.7778 27.2402 12.8551 27.2402 12.9504C27.2402 13.0457 27.3175 13.123 27.4128 13.123Z" fill="#073644"/>
<path d="M26.532 9.16059C26.6273 9.16059 26.7045 9.08332 26.7045 8.98801C26.7045 8.8927 26.6273 8.81543 26.532 8.81543C26.4366 8.81543 26.3594 8.8927 26.3594 8.98801C26.3594 9.08332 26.4366 9.16059 26.532 9.16059Z" fill="#073644"/>
<path d="M26.532 8.28022C26.6273 8.28022 26.7045 8.20295 26.7045 8.10764C26.7045 8.01233 26.6273 7.93506 26.532 7.93506C26.4366 7.93506 26.3594 8.01233 26.3594 8.10764C26.3594 8.20295 26.4366 8.28022 26.532 8.28022Z" fill="#073644"/>
<path d="M25.6511 8.72065C25.7464 8.72065 25.8237 8.64338 25.8237 8.54807C25.8237 8.45276 25.7464 8.37549 25.6511 8.37549C25.5558 8.37549 25.4785 8.45276 25.4785 8.54807C25.4785 8.64338 25.5558 8.72065 25.6511 8.72065Z" fill="#073644"/>
<path d="M26.532 10.9223C26.6273 10.9223 26.7045 10.845 26.7045 10.7497C26.7045 10.6544 26.6273 10.5771 26.532 10.5771C26.4366 10.5771 26.3594 10.6544 26.3594 10.7497C26.3594 10.845 26.4366 10.9223 26.532 10.9223Z" fill="#073644"/>
<path d="M26.532 10.0405C26.6273 10.0405 26.7045 9.96321 26.7045 9.86789C26.7045 9.77258 26.6273 9.69531 26.532 9.69531C26.4366 9.69531 26.3594 9.77258 26.3594 9.86789C26.3594 9.96321 26.4366 10.0405 26.532 10.0405Z" fill="#073644"/>
<path d="M25.6511 10.4809C25.7464 10.4809 25.8237 10.4036 25.8237 10.3083C25.8237 10.213 25.7464 10.1357 25.6511 10.1357C25.5558 10.1357 25.4785 10.213 25.4785 10.3083C25.4785 10.4036 25.5558 10.4809 25.6511 10.4809Z" fill="#073644"/>
<path d="M25.6511 9.60053C25.7464 9.60053 25.8237 9.52327 25.8237 9.42795C25.8237 9.33264 25.7464 9.25537 25.6511 9.25537C25.5558 9.25537 25.4785 9.33264 25.4785 9.42795C25.4785 9.52327 25.5558 9.60053 25.6511 9.60053Z" fill="#073644"/>
<path d="M26.532 11.8027C26.6273 11.8027 26.7045 11.7254 26.7045 11.6301C26.7045 11.5348 26.6273 11.4575 26.532 11.4575C26.4366 11.4575 26.3594 11.5348 26.3594 11.6301C26.3594 11.7254 26.4366 11.8027 26.532 11.8027Z" fill="#073644"/>
<path d="M25.6511 11.3627C25.7464 11.3627 25.8237 11.2855 25.8237 11.1902C25.8237 11.0948 25.7464 11.0176 25.6511 11.0176C25.5558 11.0176 25.4785 11.0948 25.4785 11.1902C25.4785 11.2855 25.5558 11.3627 25.6511 11.3627Z" fill="#073644"/>
<path d="M24.7724 9.16059C24.8673 9.16059 24.945 9.08293 24.945 8.98801C24.945 8.89309 24.8673 8.81543 24.7724 8.81543C24.7672 8.81543 24.7638 8.81715 24.7603 8.81888C24.7172 8.84477 24.674 8.87238 24.6309 8.89827C24.6136 8.92588 24.6016 8.95522 24.6016 8.98974C24.6016 9.08465 24.6792 9.16232 24.7741 9.16232L24.7724 9.16059Z" fill="#073644"/>
<path d="M24.9448 10.7497C24.9448 10.6548 24.8671 10.5771 24.7722 10.5771C24.6773 10.5771 24.5996 10.6548 24.5996 10.7497C24.5996 10.7842 24.6117 10.8136 24.6289 10.8412C24.6721 10.8671 24.7152 10.893 24.7584 10.9206C24.7636 10.9206 24.767 10.924 24.7705 10.924C24.8654 10.924 24.943 10.8464 24.943 10.7515L24.9448 10.7497Z" fill="#073644"/>
<path d="M24.7722 10.0405C24.8675 10.0405 24.9448 9.96321 24.9448 9.86789C24.9448 9.77258 24.8675 9.69531 24.7722 9.69531C24.6769 9.69531 24.5996 9.77258 24.5996 9.86789C24.5996 9.96321 24.6769 10.0405 24.7722 10.0405Z" fill="#073644"/>
<path d="M23.0105 10.0405C23.1058 10.0405 23.1831 9.96321 23.1831 9.86789C23.1831 9.77258 23.1058 9.69531 23.0105 9.69531C22.9152 9.69531 22.8379 9.77258 22.8379 9.86789C22.8379 9.96321 22.9152 10.0405 23.0105 10.0405Z" fill="#073644"/>
<path d="M30.0534 10.9208C30.1488 10.9208 30.226 10.8436 30.226 10.7483C30.226 10.653 30.1488 10.5757 30.0534 10.5757C29.9581 10.5757 29.8809 10.653 29.8809 10.7483C29.8809 10.8436 29.9581 10.9208 30.0534 10.9208Z" fill="#073644"/>
<path d="M30.9343 10.4775C31.0296 10.4775 31.1069 10.4002 31.1069 10.3049C31.1069 10.2096 31.0296 10.1323 30.9343 10.1323C30.839 10.1323 30.7617 10.2096 30.7617 10.3049C30.7617 10.4002 30.839 10.4775 30.9343 10.4775Z" fill="#073644"/>
<path d="M30.0534 9.16059C30.1488 9.16059 30.226 9.08332 30.226 8.98801C30.226 8.8927 30.1488 8.81543 30.0534 8.81543C29.9581 8.81543 29.8809 8.8927 29.8809 8.98801C29.8809 9.08332 29.9581 9.16059 30.0534 9.16059Z" fill="#073644"/>
<path d="M30.9343 9.60395C31.0296 9.60395 31.1069 9.52668 31.1069 9.43137C31.1069 9.33606 31.0296 9.25879 30.9343 9.25879C30.839 9.25879 30.7617 9.33606 30.7617 9.43137C30.7617 9.52668 30.839 9.60395 30.9343 9.60395Z" fill="#073644"/>
<path d="M28.2917 7.40034C28.387 7.40034 28.4643 7.32307 28.4643 7.22776C28.4643 7.13244 28.387 7.05518 28.2917 7.05518C28.1964 7.05518 28.1191 7.13244 28.1191 7.22776C28.1191 7.32307 28.1964 7.40034 28.2917 7.40034Z" fill="#073644"/>
<path d="M26.532 7.40034C26.6273 7.40034 26.7045 7.32307 26.7045 7.22776C26.7045 7.13244 26.6273 7.05518 26.532 7.05518C26.4366 7.05518 26.3594 7.13244 26.3594 7.22776C26.3594 7.32307 26.4366 7.40034 26.532 7.40034Z" fill="#073644"/>
<path d="M28.2917 12.6708C28.387 12.6708 28.4643 12.5936 28.4643 12.4983C28.4643 12.403 28.387 12.3257 28.2917 12.3257C28.1964 12.3257 28.1191 12.403 28.1191 12.4983C28.1191 12.5936 28.1964 12.6708 28.2917 12.6708Z" fill="#073644"/>
<path d="M26.532 12.6708C26.6273 12.6708 26.7045 12.5936 26.7045 12.4983C26.7045 12.403 26.6273 12.3257 26.532 12.3257C26.4366 12.3257 26.3594 12.403 26.3594 12.4983C26.3594 12.5936 26.4366 12.6708 26.532 12.6708Z" fill="#073644"/>
<path d="M23.8894 10.4775C23.9847 10.4775 24.062 10.4002 24.062 10.3049C24.062 10.2096 23.9847 10.1323 23.8894 10.1323C23.7941 10.1323 23.7168 10.2096 23.7168 10.3049C23.7168 10.4002 23.7941 10.4775 23.8894 10.4775Z" fill="#073644"/>
<path d="M23.8894 9.60395C23.9847 9.60395 24.062 9.52668 24.062 9.43137C24.062 9.33606 23.9847 9.25879 23.8894 9.25879C23.7941 9.25879 23.7168 9.33606 23.7168 9.43137C23.7168 9.52668 23.7941 9.60395 23.8894 9.60395Z" fill="#073644"/>
</g>
</svg>
