<svg width="48" height="48" viewBox="0 0 48 48" fill="none" xmlns="http://www.w3.org/2000/svg">
<circle cx="24" cy="24" r="24" fill="#E6F9FF"/>
<g clip-path="url(#clip0_452:50879)">
<path d="M23.9992 43.9922C20.043 43.9935 16.1753 42.8214 12.8853 40.6243C9.59535 38.4271 7.03089 35.3036 5.51633 31.6489C4.00178 27.9941 3.60517 23.9722 4.37666 20.092C5.14816 16.2118 7.05311 12.6475 9.85055 9.85006C12.648 7.05262 16.2122 5.14767 20.0925 4.37617C23.9727 3.60468 27.9946 4.00129 31.6493 5.51585C35.3041 7.0304 38.4276 9.59486 40.6248 12.8848C42.8219 16.1748 43.994 20.0425 43.9927 23.9987C43.9858 29.2992 41.8772 34.3806 38.1291 38.1286C34.3811 41.8767 29.2997 43.9853 23.9992 43.9922ZM23.9992 5.59401C20.3588 5.59273 16.7998 6.67105 13.7723 8.6926C10.7448 10.7142 8.38485 13.5881 6.99085 16.951C5.59685 20.3139 5.23145 24.0147 5.94086 27.5853C6.65028 31.1559 8.40264 34.4359 10.9763 37.0104C13.55 39.585 16.8294 41.3386 20.3997 42.0492C23.9701 42.7599 27.671 42.3958 31.0343 41.003C34.3977 39.6102 37.2725 37.2512 39.2952 34.2244C41.3178 31.1977 42.3974 27.6391 42.3974 23.9987C42.3922 19.1202 40.4524 14.4428 37.0034 10.9926C33.5543 7.54235 28.8777 5.60088 23.9992 5.59401Z" fill="#77C2D7"/>
<path d="M24.6109 31.1431H22.7446C22.7217 31.1435 22.699 31.1392 22.6778 31.1307C22.6567 31.1221 22.6374 31.1093 22.6213 31.0932C22.6051 31.0771 22.5924 31.0579 22.5838 31.0367C22.5752 31.0155 22.571 30.9929 22.5713 30.9701V21.2277C22.5713 21.1818 22.5896 21.1378 22.6221 21.1054C22.6545 21.0729 22.6986 21.0547 22.7446 21.0547H24.6109C24.6336 21.0547 24.6562 21.0592 24.6772 21.0679C24.6982 21.0766 24.7173 21.0893 24.7334 21.1054C24.7495 21.1214 24.7622 21.1405 24.7709 21.1615C24.7797 21.1825 24.7841 21.205 24.7841 21.2277V30.9701C24.7845 30.9929 24.7803 31.0155 24.7717 31.0367C24.7631 31.0579 24.7503 31.0771 24.7342 31.0932C24.718 31.1093 24.6988 31.1221 24.6776 31.1307C24.6564 31.1392 24.6337 31.1435 24.6109 31.1431Z" fill="#77C2D7"/>
<path d="M23.7499 17.0514L22.7235 18.7975C22.7084 18.8242 22.7005 18.8543 22.7007 18.8849C22.7008 18.9156 22.709 18.9456 22.7244 18.9722C22.7398 18.9987 22.7619 19.0207 22.7884 19.036C22.815 19.0514 22.8451 19.0595 22.8757 19.0597H24.5583C24.6272 19.06 24.695 19.0422 24.7549 19.0082C24.8148 18.9741 24.8647 18.925 24.8996 18.8657L25.9049 17.1537C25.9225 17.1237 25.9319 17.0897 25.9321 17.055C25.9322 17.0202 25.9232 16.9861 25.9058 16.956C25.8885 16.9259 25.8635 16.9009 25.8334 16.8836C25.8032 16.8663 25.7691 16.8573 25.7343 16.8574H24.0885C24.02 16.8573 23.9526 16.8752 23.8932 16.9092C23.8338 16.9433 23.7843 16.9923 23.7499 17.0514Z" fill="#77C2D7"/>
</g>
<defs>
<clipPath id="clip0_452:50879">
<rect width="40" height="40" fill="white" transform="translate(4 4)"/>
</clipPath>
</defs>
</svg>
