<svg width="48" height="48" viewBox="0 0 48 48" fill="none" xmlns="http://www.w3.org/2000/svg">
<circle cx="24" cy="24" r="24" fill="#FFECEF"/>
<g clip-path="url(#clip0_1:2700)">
<path d="M24.0027 43.9994C20.0458 44.0007 16.1775 42.8285 12.887 40.631C9.5965 38.4335 7.03163 35.3095 5.51683 31.6541C4.00202 27.9987 3.60535 23.9762 4.37697 20.0953C5.14859 16.2145 7.05385 12.6496 9.85174 9.85174C12.6496 7.05385 16.2145 5.14859 20.0953 4.37697C23.9762 3.60535 27.9987 4.00202 31.6541 5.51683C35.3095 7.03163 38.4335 9.5965 40.631 12.887C42.8285 16.1775 44.0007 20.0458 43.9994 24.0027C43.9925 29.304 41.8836 34.3863 38.1349 38.1349C34.3863 41.8835 29.304 43.9925 24.0027 43.9994ZM24.0027 5.595C20.3617 5.59372 16.8021 6.67222 13.7741 8.6941C10.7462 10.716 8.38581 13.5904 6.99158 16.9539C5.59735 20.3173 5.23189 24.0187 5.94142 27.5898C6.65096 31.161 8.4036 34.4415 10.9777 37.0165C13.5518 39.5915 16.8317 41.3453 20.4026 42.0561C23.9735 42.7669 27.675 42.4028 31.039 41.0097C34.4029 39.6167 37.2782 37.2573 39.3011 34.2301C41.3241 31.2028 42.4038 27.6436 42.4038 24.0027C42.3987 19.1233 40.4585 14.4453 37.009 10.9945C33.5594 7.54365 28.882 5.60187 24.0027 5.595Z" fill="#F2385A"/>
<path d="M29.1209 29.9447C28.9094 29.9441 28.7067 29.8602 28.5566 29.7112L18.315 19.4501C18.1645 19.3005 18.0796 19.0972 18.079 18.8849C18.0784 18.6726 18.1621 18.4688 18.3118 18.3183C18.4614 18.1678 18.6648 18.0829 18.877 18.0823C19.0893 18.0817 19.2931 18.1654 19.4436 18.3151L29.6852 28.5567C29.7593 28.6308 29.8182 28.7187 29.8583 28.8156C29.8984 28.9124 29.9191 29.0162 29.9191 29.121C29.9191 29.2258 29.8984 29.3296 29.8583 29.4264C29.8182 29.5232 29.7593 29.6112 29.6852 29.6853C29.6135 29.7643 29.5266 29.8281 29.4296 29.8727C29.3326 29.9173 29.2276 29.9418 29.1209 29.9447Z" fill="#F2385A"/>
<path d="M18.8792 29.9447C18.7214 29.9448 18.5671 29.898 18.4358 29.8104C18.3046 29.7227 18.2023 29.5981 18.1419 29.4523C18.0815 29.3064 18.0657 29.146 18.0965 28.9912C18.1273 28.8364 18.2033 28.6942 18.315 28.5826L28.5566 18.3151C28.7071 18.1654 28.9109 18.0817 29.1231 18.0823C29.3354 18.0829 29.5387 18.1678 29.6884 18.3183C29.8381 18.4688 29.9218 18.6726 29.9212 18.8849C29.9206 19.0972 29.8357 19.3005 29.6851 19.4501L19.4435 29.6853C19.3718 29.7643 19.2849 29.8281 19.1879 29.8727C19.0909 29.9173 18.9859 29.9418 18.8792 29.9447Z" fill="#F2385A"/>
</g>
<defs>
<clipPath id="clip0_1:2700">
<rect width="40" height="40" fill="white" transform="translate(4 4)"/>
</clipPath>
</defs>
</svg>
