<svg width="48" height="49" viewBox="0 0 48 49" fill="none" xmlns="http://www.w3.org/2000/svg">
<path d="M33.0364 31.2979C31.5965 31.568 26.2335 28.3429 20.3921 23.6262C14.5507 18.9099 10.2648 14.343 10.2207 12.8753L8.47786 19.0456L6.7478 25.1691L5.16235 30.7811L5.0658 31.1228L3.41951 36.9497L1.80099 42.6802L0.203642 48.3337L0.0153809 48.9999L0.624252 48.6737L5.79194 45.9031L11.0302 43.0953L16.3566 40.2398L16.6692 40.0722L21.799 37.3224L27.3965 34.3214L33.0364 31.2979Z" fill="#E6E6E6"/>
<path d="M5.79194 45.9031C4.43003 44.8691 3.09898 43.7943 1.80055 42.6802L0.203642 48.3338C0.133238 48.5829 0.396044 48.796 0.624252 48.6738L5.79194 45.9031Z" fill="#FFF1CC"/>
<path d="M11.03 43.0954C8.37095 41.2041 5.82921 39.1518 3.4193 36.9502L1.80078 42.6802C3.09877 43.7943 4.42982 44.869 5.79218 45.9031L11.03 43.0954Z" fill="#F2BE38"/>
<path d="M16.3565 40.2399C12.3069 37.575 8.5254 34.5214 5.06572 31.123L3.41943 36.9498C5.82935 39.1519 8.37109 41.2041 11.0301 43.095L16.3565 40.2399Z" fill="#FFF1CC"/>
<path d="M21.7988 37.3224C16.241 33.9952 11.1742 29.9044 6.74768 25.1691L5.16223 30.7811L5.06567 31.1229C8.52535 34.5213 12.3073 37.5753 16.3565 40.2398L16.6691 40.0722L21.7988 37.3224Z" fill="#F2BE38"/>
<path d="M27.3961 34.3215C20.1765 30.4867 13.7536 25.3009 8.47786 19.0452L6.7478 25.1692C11.1748 29.9045 16.2411 33.9957 21.799 37.3224L27.3961 34.3215Z" fill="#FFF1CC"/>
<path d="M33.0363 31.2979C31.5964 31.568 26.2334 28.3429 20.392 23.6262C14.5506 18.9099 10.2647 14.343 10.2206 12.8753L8.47778 19.0456C13.7535 25.3009 20.1764 30.4871 27.396 34.3214L33.0363 31.2979Z" fill="#F2BE38"/>
<path d="M33.3243 31.1435C34.111 30.1639 29.5967 25.2098 23.2414 20.0783C16.886 14.9467 11.0963 11.5809 10.3096 12.5605C9.52298 13.5401 14.0373 18.4942 20.3926 23.6257C26.7479 28.7573 32.5377 32.1231 33.3243 31.1435Z" fill="#FFF1CC"/>
<path d="M33.2223 31.0667C33.9035 30.2183 29.3662 25.3039 23.0659 20.2167C16.7651 15.1291 11.0877 11.7952 10.4066 12.6436C9.72538 13.492 14.2807 18.3038 20.581 23.391C26.8814 28.4782 32.5411 31.9151 33.2223 31.0667Z" fill="#FFF1CC"/>
<path d="M20.0154 14.2486C20.0153 14.2658 20.0206 14.2826 20.0306 14.2967C20.0406 14.3109 20.0549 14.3217 20.0714 14.3278L20.5946 14.5226C20.6858 14.5565 20.7683 14.609 20.8367 14.6765C20.905 14.744 20.9576 14.8249 20.9909 14.9138L21.19 15.4468C21.1917 15.4507 21.1941 15.4543 21.1971 15.4574C21.1985 15.4604 21.2003 15.4634 21.2022 15.4661C21.2053 15.47 21.2088 15.4735 21.2125 15.4767C21.2186 15.4822 21.2255 15.4867 21.2332 15.4898C21.2376 15.4919 21.2424 15.4934 21.2473 15.4942C21.252 15.4948 21.2568 15.4948 21.2615 15.4942H21.277C21.2819 15.4933 21.2866 15.4919 21.2911 15.4898C21.299 15.4867 21.3061 15.4822 21.3124 15.4767C21.316 15.4735 21.3192 15.4699 21.3221 15.4661L21.3272 15.4586C21.33 15.4549 21.3323 15.4509 21.3343 15.4468L21.5334 14.9157C21.5667 14.8268 21.6193 14.7459 21.6876 14.6784C21.756 14.6109 21.8385 14.5584 21.9297 14.5244L22.4529 14.3297C22.47 14.3237 22.4847 14.3125 22.495 14.2979C22.5053 14.2833 22.5105 14.2659 22.51 14.2483C22.5095 14.2306 22.5033 14.2135 22.4922 14.1995C22.4812 14.1854 22.4658 14.1751 22.4483 14.17L21.969 14.0233C21.8669 13.9921 21.7738 13.938 21.6972 13.8655C21.6207 13.7929 21.5628 13.704 21.5283 13.6058L21.335 13.0479C21.3323 13.0419 21.3293 13.0361 21.3259 13.0304C21.3235 13.027 21.3207 13.0239 21.3176 13.0211C21.3102 13.0131 21.3009 13.0071 21.2905 13.0036L21.2808 13.0005H21.2634C21.2577 12.9998 21.2518 12.9998 21.246 13.0005L21.2357 13.0036C21.2267 13.0075 21.2185 13.0127 21.2112 13.0192C21.2083 13.0218 21.2057 13.0247 21.2035 13.0279C21.1984 13.0338 21.1945 13.0406 21.1919 13.0479L20.9986 13.6058C20.9639 13.7038 20.9058 13.7924 20.8291 13.8646C20.7525 13.9368 20.6593 13.9905 20.5573 14.0214L20.0785 14.1681C20.0604 14.173 20.0444 14.1835 20.033 14.1981C20.0216 14.2126 20.0154 14.2303 20.0154 14.2486Z" fill="#FAB1A5"/>
<path d="M31.0154 2.50274C31.015 2.53751 31.0256 2.57156 31.0457 2.60029C31.0659 2.62902 31.0947 2.65104 31.1281 2.66338L32.1747 3.05403C32.3575 3.12167 32.5231 3.22681 32.6603 3.36227C32.7974 3.49773 32.9029 3.66033 32.9695 3.83899L33.3679 4.9142C33.3679 4.9142 33.3773 4.92698 33.381 4.93428C33.3841 4.94016 33.3879 4.94567 33.3923 4.95071C33.3976 4.95983 33.4046 4.96788 33.413 4.97444C33.4246 4.98501 33.4379 4.99365 33.4524 5H33.4825H33.5408H33.5689C33.5847 4.99305 33.5993 4.98382 33.6122 4.97262C33.6198 4.96659 33.6262 4.95914 33.6309 4.95071L33.6422 4.93611C33.6477 4.92909 33.6527 4.92178 33.6573 4.9142L34.0556 3.84629C34.1216 3.66758 34.2266 3.50487 34.3635 3.36936C34.5004 3.23386 34.6658 3.12877 34.8485 3.06134L35.9008 2.66338C35.9336 2.64991 35.9618 2.62766 35.9821 2.59922C36.0024 2.57078 36.0139 2.53732 36.0154 2.50274C36.015 2.46663 36.0027 2.43158 35.9804 2.40269C35.9581 2.3738 35.9269 2.35258 35.8914 2.3421L34.9331 2.04819C34.7285 1.98511 34.5421 1.87626 34.3887 1.73042C34.2353 1.58458 34.1193 1.4058 34.05 1.20847L33.646 0.0876231C33.6423 0.0752582 33.6366 0.0635478 33.6291 0.0529385C33.624 0.0464085 33.6183 0.0403028 33.6122 0.0346839C33.598 0.0189397 33.5798 0.00699768 33.5595 0H33.5389H33.5032H33.4694H33.4487C33.4301 0.00635629 33.4133 0.0170044 33.3998 0.0310329L33.3829 0.0474623C33.3736 0.0598115 33.366 0.0733186 33.3604 0.0876231L32.9789 1.20847C32.9099 1.40567 32.7942 1.58439 32.6412 1.73024C32.4881 1.87608 32.302 1.98499 32.0977 2.04819L31.1375 2.3421C31.1022 2.35265 31.0712 2.37395 31.0492 2.40286C31.0272 2.43178 31.0154 2.46679 31.0154 2.50274Z" fill="#F2BE38"/>
<path d="M37.0154 18.5027C37.015 18.5375 37.0256 18.5716 37.0457 18.6003C37.0659 18.629 37.0947 18.651 37.1281 18.6634L38.1747 19.054C38.3575 19.1217 38.5231 19.2268 38.6603 19.3623C38.7974 19.4977 38.9029 19.6603 38.9695 19.839L39.3679 20.9142C39.3679 20.9142 39.3773 20.927 39.381 20.9343C39.3841 20.9402 39.3879 20.9457 39.3923 20.9507C39.3976 20.9598 39.4046 20.9679 39.413 20.9744C39.4246 20.985 39.4379 20.9936 39.4524 21H39.4825H39.5408H39.5689C39.5847 20.993 39.5993 20.9838 39.6122 20.9726C39.6198 20.9666 39.6262 20.9591 39.6309 20.9507L39.6422 20.9361C39.6477 20.9291 39.6527 20.9218 39.6572 20.9142L40.0556 19.8463C40.1216 19.6676 40.2266 19.5049 40.3635 19.3694C40.5004 19.2339 40.6658 19.1288 40.8485 19.0613L41.9008 18.6634C41.9336 18.6499 41.9618 18.6277 41.9821 18.5992C42.0024 18.5708 42.0139 18.5373 42.0154 18.5027C42.015 18.4666 42.0027 18.4316 41.9804 18.4027C41.9581 18.3738 41.9269 18.3526 41.8914 18.3421L40.9331 18.0482C40.7285 17.9851 40.5421 17.8763 40.3887 17.7304C40.2353 17.5846 40.1193 17.4058 40.05 17.2085L39.646 16.0876C39.6423 16.0753 39.6366 16.0635 39.6291 16.0529C39.624 16.0464 39.6183 16.0403 39.6122 16.0347C39.598 16.0189 39.5798 16.007 39.5595 16H39.5389H39.5032H39.4694H39.4487C39.4301 16.0064 39.4133 16.017 39.3998 16.031L39.3829 16.0475C39.3736 16.0598 39.366 16.0733 39.3604 16.0876L38.9789 17.2085C38.9099 17.4057 38.7942 17.5844 38.6412 17.7302C38.4881 17.8761 38.302 17.985 38.0977 18.0482L37.1375 18.3421C37.1022 18.3526 37.0712 18.3739 37.0492 18.4029C37.0272 18.4318 37.0154 18.4668 37.0154 18.5027Z" fill="#20C9AD"/>
<path d="M41.8597 26.7612C41.0113 26.9906 40.1408 26.6982 39.4259 26.2355C38.6199 25.7132 38.0122 24.9628 37.3631 24.268C36.7352 23.5967 36.0497 22.9885 35.1816 22.6537C34.4239 22.3612 33.5927 22.2659 32.7865 22.3609C31.8875 22.4668 31.0194 22.8117 30.3148 23.3842C30.3148 23.3842 30.1793 23.1019 30.1973 23.1406C30.1056 22.9431 30.0151 22.7449 29.9257 22.5473C29.836 22.3488 29.7464 22.1503 29.6589 21.9517C29.6467 21.9249 29.5417 21.7126 29.553 21.7028C30.8138 20.6784 32.5925 20.3881 34.1331 20.872C34.5195 20.9936 34.8912 21.164 35.233 21.3825C35.6397 21.6433 36.0011 21.9681 36.3387 22.3117C37.0235 23.0073 37.6237 23.8015 38.4168 24.3831C39.1795 24.9422 40.1477 25.3369 41.0983 25.08C41.1059 25.078 41.2329 25.3604 41.2159 25.3236C41.3075 25.5211 41.398 25.7194 41.4875 25.917C41.5771 26.1154 41.6668 26.3139 41.7543 26.5125C41.7652 26.5366 41.8588 26.7614 41.8597 26.7612Z" fill="#B2ECFC"/>
<path d="M26.0911 10.2606C25.3568 9.54358 24.8084 8.64357 24.4751 7.66407C24.1423 6.68505 24.021 5.6281 24.1358 4.59636C24.2006 4.01283 24.3429 3.43944 24.5605 2.89511C24.5567 2.90484 24.2548 2.96489 24.2887 2.95643C24.071 3.00892 23.8536 3.06325 23.6366 3.11806C23.4196 3.17288 23.2021 3.22811 22.9854 3.28522C22.9451 3.29594 22.7302 3.32773 22.7172 3.35997C22.3319 4.32313 22.1889 5.37512 22.2745 6.4095C22.3597 7.44293 22.6694 8.45847 23.1841 9.35195C23.4755 9.85751 23.8326 10.321 24.2477 10.7259C24.2619 10.7397 24.5466 10.6579 24.5195 10.6646C24.7372 10.6121 24.9546 10.5578 25.1716 10.503C25.3886 10.4482 25.6061 10.3929 25.8228 10.3358C25.8559 10.3268 26.0769 10.2473 26.0911 10.2606Z" fill="#20C9AD"/>
<path d="M47.7235 10.2462C47.2847 10.4626 46.7932 10.5664 46.3001 10.5609C45.8072 10.5552 45.3129 10.4421 44.8673 10.2269C44.6153 10.1053 44.3801 9.95037 44.1699 9.76624C44.1737 9.7695 44.1528 9.91473 44.1544 9.89812C44.1435 10.0043 44.1334 10.1106 44.1236 10.2169C44.1139 10.3231 44.1042 10.4296 44.0955 10.5361C44.0939 10.556 44.0741 10.6576 44.0866 10.6685C44.4584 10.9944 44.9086 11.2255 45.3871 11.3511C45.8652 11.4767 46.3708 11.4985 46.854 11.4088C47.1275 11.358 47.3925 11.271 47.6403 11.1486C47.6487 11.1445 47.6571 11.0035 47.6558 11.0168C47.6668 10.9106 47.6768 10.8042 47.6866 10.698C47.6964 10.5917 47.706 10.4852 47.7147 10.3788C47.716 10.3624 47.7152 10.2505 47.7235 10.2462Z" fill="#D4F5FF"/>
<path d="M18.4441 10.3478C18.0219 10.1008 17.6646 9.74765 17.3976 9.33299C17.1309 8.9185 16.953 8.4436 16.8873 7.95316C16.8501 7.6758 16.8498 7.3942 16.8878 7.11736C16.8871 7.1223 16.7544 7.18485 16.7692 7.17703C16.6745 7.22638 16.5802 7.27655 16.4861 7.3269C16.3921 7.37725 16.2979 7.42785 16.2042 7.47922C16.1868 7.48883 16.091 7.52828 16.0887 7.5447C16.0215 8.03456 16.0765 8.53761 16.2352 9.00618C16.3937 9.47437 16.6539 9.90841 16.9949 10.2624C17.1879 10.4627 17.4064 10.6359 17.6451 10.7754C17.6532 10.7801 17.7755 10.7095 17.7637 10.7157C17.8584 10.6664 17.9527 10.6162 18.0467 10.5659C18.1408 10.5155 18.235 10.4649 18.3287 10.4135C18.343 10.4056 18.436 10.3433 18.4441 10.3478Z" fill="#D4F5FF"/>
<path d="M21.0688 17.1486C22.5513 16.9996 23.5652 17.4072 27.8337 18.458C29.5253 18.9675 31.3211 19.1457 32.0589 18.4021C32.0589 18.4021 32.0666 18.3941 32.0811 18.379C32.0845 18.3758 32.0888 18.3719 32.093 18.3679L32.0913 18.3695C32.0922 18.3687 32.0922 18.3687 32.093 18.3679C32.3757 18.0596 32.4876 17.6028 32.3512 16.9593C32.0236 16.9599 31.7704 16.908 31.7704 16.908C28.1307 15.9687 25.5443 15.9463 23.9925 16.101C23.6745 16.1332 23.3598 16.1877 23.0526 16.2647C22.3409 16.4423 21.6678 16.739 21.0663 17.1485C21.0671 17.1485 21.0679 17.1494 21.0688 17.1486Z" fill="#FF768F"/>
<path d="M32.0922 18.3679C32.3005 18.1598 33.3967 17.0381 33.6517 16.403C33.8712 16.0431 33.9029 15.4599 33.5293 14.5248C32.9563 13.0912 31.8023 11.2507 31.3749 9.91044C31.2691 9.57994 31.2083 9.28067 31.211 9.02484C31.2127 8.79366 31.2667 8.59811 31.3873 8.44857C30.9289 8.92745 30.0409 10.185 29.929 10.3447C29.9204 10.3559 29.9169 10.3615 29.9169 10.3615C29.4425 10.9666 29.6556 12.2226 31.1251 14.4234C31.8317 15.4808 32.2148 16.3125 32.3512 16.9585C32.4868 17.6028 32.3758 18.0588 32.0922 18.3679Z" fill="#F2385A"/>
<path d="M31.3744 9.91042C32.0042 9.94957 32.7509 10.1468 33.5029 10.4463C35.3283 11.1737 37.9018 12.2621 39.3941 11.5901L39.3983 11.5886C39.9463 11.3393 40.3473 10.8526 40.5114 10.0224C39.0481 10.0026 36.9286 9.30902 34.236 8.48537C32.5707 7.97688 31.7235 8.0344 31.3877 8.44693C31.3868 8.44772 31.3868 8.44772 31.386 8.44851L31.3851 8.4493C31.2645 8.59884 31.2114 8.79443 31.2088 9.02558C31.2087 9.28067 31.2695 9.57994 31.3744 9.91042Z" fill="#FF768F"/>
<path d="M39.3991 11.5878C39.4825 11.5578 40.7295 11.0934 42.2389 9.44353C42.2458 9.43637 42.2518 9.42918 42.2586 9.42202C42.6872 8.94782 42.889 8.16428 42.8498 6.97046C42.8017 5.5171 42.6893 4.29679 42.7664 3.36885C42.7679 3.34915 42.7703 3.33031 42.7718 3.31143C42.8032 2.96447 42.8635 2.6597 42.9659 2.40006C43.0329 2.2313 43.1164 2.08125 43.2231 1.95178C43.2662 1.89902 43.3124 1.84967 43.3634 1.80378L41.0947 3.76615L41.0217 3.82935C40.3022 4.49797 40.3766 5.95145 40.5728 8.54494C40.6168 9.12833 40.5942 9.61715 40.5138 10.0224C40.3481 10.8517 39.9471 11.3384 39.3991 11.5878Z" fill="#F2385A"/>
<path d="M43.3684 1.79743L43.3845 1.7832L43.3726 1.79265C43.3709 1.79423 43.3692 1.79582 43.3684 1.79743Z" fill="#AC1833"/>
<path d="M32.0813 18.379C32.0668 18.3933 32.059 18.4021 32.059 18.4021L32.0915 18.3695L32.0932 18.3679C32.0881 18.3718 32.0847 18.3758 32.0813 18.379Z" fill="#F2385A"/>
<path d="M43.3666 1.79901L43.3844 1.78402L43.3683 1.79743L43.3623 1.80297L43.3666 1.79901Z" fill="#F2385A"/>
<path d="M39.3947 11.5892C39.3955 11.5892 39.3971 11.5885 39.3987 11.5878L39.3947 11.5892Z" fill="#F2385A"/>
</svg>
