<svg width="48" height="48" viewBox="0 0 48 48" fill="none" xmlns="http://www.w3.org/2000/svg">
<g clip-path="url(#clip0_17028_17203)">
<path d="M9.04492 10.2008L12.1337 14.0024L15.8345 10.9456L12.7945 7.20401L9.04492 10.2008Z" fill="#4690A4"/>
<path d="M21.5996 4.17599H26.3996V8.8H21.5996V4.17599Z" fill="#4690A4"/>
<path d="M9.23219 32.8C8.01252 30.5511 7.3226 28.0533 7.21505 25.4971C7.1075 22.941 7.58516 20.3941 8.6116 18.0506C9.63804 15.7072 11.1861 13.6291 13.1378 11.9749C15.0895 10.3207 17.3932 9.13416 19.8732 8.50567C22.3532 7.87719 24.9439 7.82342 27.4479 8.34845C29.9518 8.87348 32.3028 9.96345 34.3214 11.5352C36.34 13.107 37.973 15.119 39.0958 17.4179C40.2186 19.7167 40.8016 22.2416 40.8002 24.8C40.8045 27.5949 40.1058 30.346 38.7682 32.8L38.4002 33.6H9.60019L9.23219 32.8Z" fill="#4690A4"/>
<path d="M26.3998 0.799988H21.5998C21.158 0.799988 20.7998 1.15816 20.7998 1.59999V3.99999C20.7998 4.44182 21.158 4.79999 21.5998 4.79999H26.3998C26.8416 4.79999 27.1998 4.44182 27.1998 3.99999V1.59999C27.1998 1.15816 26.8416 0.799988 26.3998 0.799988Z" fill="#C4E1E8"/>
<path d="M10.7294 4.65552L7.00459 7.68432C6.66173 7.96311 6.6098 8.46706 6.88859 8.80992L8.40299 10.6723C8.68178 11.0152 9.18573 11.0671 9.52859 10.7883L13.2534 7.75952C13.5962 7.48072 13.6482 6.97678 13.3694 6.63392L11.855 4.77152C11.5762 4.42866 11.0722 4.37672 10.7294 4.65552Z" fill="#C4E1E8"/>
<path d="M39.9996 32.8H7.99961C6.67413 32.8 5.59961 33.8745 5.59961 35.2V44.8C5.59961 46.1255 6.67413 47.2 7.99961 47.2H39.9996C41.3251 47.2 42.3996 46.1255 42.3996 44.8V35.2C42.3996 33.8745 41.3251 32.8 39.9996 32.8Z" fill="#8EDEF4"/>
<path d="M13.0084 32.8C11.5305 30.7716 10.6428 28.3738 10.4434 25.8721C10.244 23.3703 10.7407 20.8622 11.8786 18.6253C13.0165 16.3884 14.7511 14.51 16.8906 13.198C19.03 11.8859 21.4907 11.1915 24.0004 11.1915C26.5101 11.1915 28.9708 11.8859 31.1102 13.198C33.2496 14.51 34.9843 16.3884 36.1222 18.6253C37.2601 20.8622 37.7568 23.3703 37.5574 25.8721C37.358 28.3738 36.4702 30.7716 34.9924 32.8H13.0084Z" fill="#E6F9FF"/>
<path d="M30.3292 19.14C28.9892 21.4144 26.5644 25.428 25.4492 26.5496C25.022 26.9599 24.4509 27.1864 23.8586 27.1805C23.2663 27.1745 22.6999 26.9366 22.281 26.5177C21.8622 26.0989 21.6242 25.5325 21.6183 24.9402C21.6123 24.3478 21.8388 23.7768 22.2492 23.3496C23.3692 22.2352 27.3844 19.8104 29.6588 18.4696C29.7523 18.4152 29.8612 18.3933 29.9685 18.4073C30.0758 18.4213 30.1754 18.4703 30.2519 18.5468C30.3284 18.6233 30.3775 18.723 30.3914 18.8303C30.4054 18.9376 30.3835 19.0464 30.3292 19.14Z" fill="#CE2846"/>
<path d="M43.1998 44.8V35.2C43.1987 34.3607 42.8678 33.5554 42.2785 32.9577C41.6892 32.36 40.8886 32.0178 40.0494 32.0048C41.1442 29.5739 41.6717 26.9259 41.5921 24.2611C41.5124 21.5962 40.8277 18.9844 39.5898 16.6233C38.3518 14.2621 36.593 12.2134 34.4465 10.6323C32.2999 9.05114 29.8219 7.97894 27.1998 7.4968V5.3776C27.4422 5.23829 27.6438 5.03767 27.7842 4.79587C27.9246 4.55408 27.999 4.27961 27.9998 4V1.6C27.9998 1.17565 27.8312 0.768687 27.5312 0.468629C27.2311 0.168571 26.8242 0 26.3998 0L21.5998 0C21.1755 0 20.7685 0.168571 20.4684 0.468629C20.1684 0.768687 19.9998 1.17565 19.9998 1.6V4C20.0007 4.27961 20.075 4.55408 20.2154 4.79587C20.3558 5.03767 20.5574 5.23829 20.7998 5.3776V7.4968C18.9693 7.83307 17.2043 8.45992 15.5718 9.3536L14.2398 7.7096C14.3444 7.44903 14.3765 7.16502 14.3327 6.88768C14.2889 6.61035 14.1708 6.35005 13.991 6.1344L12.4734 4.272C12.2051 3.94363 11.8177 3.73482 11.3958 3.6912C10.974 3.64757 10.5521 3.77269 10.2222 4.0392L6.4974 7.0672C6.1684 7.33477 5.95908 7.722 5.91543 8.14382C5.87177 8.56564 5.99737 8.98753 6.2646 9.3168L7.77901 11.18C7.92889 11.3649 8.11827 11.5139 8.33326 11.6161C8.54825 11.7182 8.78338 11.771 9.02141 11.7704C9.10528 11.7699 9.189 11.7629 9.27181 11.7496L10.6102 13.396C8.44643 15.9255 7.04728 19.0187 6.57625 22.3139C6.10522 25.6091 6.58176 28.9704 7.9502 32.0048C7.11097 32.0178 6.31044 32.36 5.72114 32.9577C5.13185 33.5554 4.80096 34.3607 4.7998 35.2V44.8C4.7998 45.6487 5.13695 46.4626 5.73706 47.0627C6.33718 47.6629 7.15111 48 7.99981 48H9.59981C9.81198 48 10.0155 47.9157 10.1655 47.7657C10.3155 47.6157 10.3998 47.4122 10.3998 47.2C10.3998 46.9878 10.3155 46.7843 10.1655 46.6343C10.0155 46.4843 9.81198 46.4 9.59981 46.4H7.99981C7.57546 46.4 7.16849 46.2314 6.86843 45.9314C6.56838 45.6313 6.3998 45.2243 6.3998 44.8V35.2C6.3998 34.7757 6.56838 34.3687 6.86843 34.0686C7.16849 33.7686 7.57546 33.6 7.99981 33.6H39.9998C40.4242 33.6 40.8311 33.7686 41.1312 34.0686C41.4312 34.3687 41.5998 34.7757 41.5998 35.2V44.8C41.5998 45.2243 41.4312 45.6313 41.1312 45.9314C40.8311 46.2314 40.4242 46.4 39.9998 46.4H12.7998C12.5876 46.4 12.3841 46.4843 12.2341 46.6343C12.0841 46.7843 11.9998 46.9878 11.9998 47.2C11.9998 47.4122 12.0841 47.6157 12.2341 47.7657C12.3841 47.9157 12.5876 48 12.7998 48H39.9998C40.8485 48 41.6624 47.6629 42.2626 47.0627C42.8627 46.4626 43.1998 45.6487 43.1998 44.8ZM26.3998 4H24.7998V1.6H26.3998V4ZM21.5998 1.6H23.1998V4H21.5998V1.6ZM22.3998 5.6H25.5998V7.28C25.0726 7.232 24.5398 7.2 23.9998 7.2C23.4598 7.2 22.927 7.228 22.3998 7.28V5.6ZM11.7126 12.2152L10.6502 10.908L13.1302 8.8904L14.1886 10.1936C13.3042 10.7917 12.4755 11.4683 11.7126 12.2152V12.2152ZM11.2318 5.28L12.7462 7.144L11.5038 8.1528L9.99021 6.2904L11.2318 5.28ZM7.507 8.3088L8.74781 7.3L10.2614 9.1616L9.01981 10.1704L7.507 8.3088ZM23.9998 8.8C26.7324 8.79657 29.4202 9.49391 31.8064 10.8254C34.1926 12.1569 36.1975 14.078 37.6296 16.4053C39.0617 18.7326 39.873 21.3882 39.9862 24.1184C40.0993 26.8486 39.5104 29.5622 38.2758 32H36.459C37.734 29.815 38.4039 27.3298 38.3998 24.8C38.3998 20.9809 36.8827 17.3182 34.1821 14.6177C31.4816 11.9171 27.8189 10.4 23.9998 10.4C20.1807 10.4 16.518 11.9171 13.8175 14.6177C11.1169 17.3182 9.59981 20.9809 9.59981 24.8C9.5957 27.3298 10.2656 29.815 11.5406 32H9.72381C8.48919 29.5622 7.90031 26.8486 8.01345 24.1184C8.12658 21.3882 8.93794 18.7326 10.37 16.4053C11.8021 14.078 13.807 12.1569 16.1932 10.8254C18.5794 9.49391 21.2672 8.79657 23.9998 8.8V8.8ZM34.567 32H13.4326C11.9738 29.8827 11.1949 27.3712 11.1998 24.8C11.1998 21.4052 12.5484 18.1495 14.9488 15.749C17.3493 13.3486 20.605 12 23.9998 12C27.3946 12 30.6503 13.3486 33.0508 15.749C35.4512 18.1495 36.7998 21.4052 36.7998 24.8C36.8047 27.3712 36.0258 29.8827 34.567 32Z" fill="#035970"/>
<path d="M29.2533 17.7816C25.1237 20.2144 22.5781 21.8968 21.6829 22.7856C21.1221 23.3632 20.8112 24.1383 20.8175 24.9433C20.8237 25.7483 21.1466 26.5185 21.7164 27.0873C22.2861 27.6561 23.0568 27.9777 23.8619 27.9826C24.6669 27.9876 25.4415 27.6754 26.0181 27.1136C26.9029 26.2216 28.5853 23.6736 31.0181 19.5464C31.1618 19.3002 31.2198 19.0133 31.1832 18.7306C31.1466 18.448 31.0175 18.1853 30.8159 17.9838C30.6144 17.7822 30.3518 17.6531 30.0691 17.6165C29.7864 17.5799 29.4996 17.638 29.2533 17.7816V17.7816ZM24.8869 25.9816C24.7514 26.1176 24.5903 26.2257 24.413 26.2995C24.2357 26.3733 24.0456 26.4114 23.8535 26.4118C23.6614 26.4121 23.4712 26.3746 23.2936 26.3014C23.116 26.2282 22.9546 26.1208 22.8185 25.9852C22.6825 25.8496 22.5745 25.6886 22.5007 25.5113C22.4269 25.3339 22.3887 25.1438 22.3884 24.9517C22.388 24.7597 22.4255 24.5694 22.4987 24.3918C22.5719 24.2143 22.6794 24.0528 22.8149 23.9168C24.7636 22.3677 26.8386 20.9844 29.0181 19.7816C27.816 21.9596 26.4341 24.0335 24.8869 25.9816Z" fill="#102D42"/>
<path d="M15.9994 38C15.9994 37.2574 15.7044 36.5452 15.1793 36.0201C14.6542 35.495 13.942 35.2 13.1994 35.2H11.1994C10.9872 35.2 10.7838 35.2843 10.6337 35.4343C10.4837 35.5844 10.3994 35.7878 10.3994 36V44C10.3994 44.2122 10.4837 44.4157 10.6337 44.5657C10.7838 44.7157 10.9872 44.8 11.1994 44.8H13.1994C13.756 44.8008 14.3002 44.6354 14.7622 44.3251C15.2242 44.0147 15.5832 43.5736 15.793 43.058C16.0028 42.5425 16.054 41.9761 15.94 41.4313C15.826 40.8865 15.5519 40.3881 15.153 40C15.4207 39.7402 15.6336 39.4294 15.779 39.0858C15.9243 38.7423 15.9993 38.3731 15.9994 38V38ZM14.3994 42C14.3994 42.3183 14.273 42.6235 14.0479 42.8485C13.8229 43.0736 13.5177 43.2 13.1994 43.2H11.9994V40.8H13.1994C13.5177 40.8 13.8229 40.9264 14.0479 41.1515C14.273 41.3765 14.3994 41.6818 14.3994 42ZM11.9994 39.2V36.8H13.1994C13.5177 36.8 13.8229 36.9264 14.0479 37.1515C14.273 37.3765 14.3994 37.6818 14.3994 38C14.3994 38.3183 14.273 38.6235 14.0479 38.8485C13.8229 39.0736 13.5177 39.2 13.1994 39.2H11.9994Z" fill="#102D42"/>
<path d="M22.3996 36.8C22.6118 36.8 22.8153 36.7157 22.9653 36.5657C23.1153 36.4157 23.1996 36.2122 23.1996 36C23.1996 35.7878 23.1153 35.5844 22.9653 35.4343C22.8153 35.2843 22.6118 35.2 22.3996 35.2H18.3996C18.1874 35.2 17.984 35.2843 17.8339 35.4343C17.6839 35.5844 17.5996 35.7878 17.5996 36V44C17.5996 44.2122 17.6839 44.4157 17.8339 44.5657C17.984 44.7157 18.1874 44.8 18.3996 44.8H22.3996C22.6118 44.8 22.8153 44.7157 22.9653 44.5657C23.1153 44.4157 23.1996 44.2122 23.1996 44C23.1996 43.7878 23.1153 43.5844 22.9653 43.4343C22.8153 43.2843 22.6118 43.2 22.3996 43.2H19.1996V40.8H20.7996C21.0118 40.8 21.2153 40.7157 21.3653 40.5657C21.5153 40.4157 21.5996 40.2122 21.5996 40C21.5996 39.7878 21.5153 39.5844 21.3653 39.4343C21.2153 39.2843 21.0118 39.2 20.7996 39.2H19.1996V36.8H22.3996Z" fill="#102D42"/>
<path d="M36.8 44.8C37.0122 44.8 37.2157 44.7157 37.3657 44.5657C37.5157 44.4157 37.6 44.2122 37.6 44V38C37.6 37.2574 37.305 36.5452 36.7799 36.0201C36.2548 35.495 35.5426 35.2 34.8 35.2C34.0574 35.2 33.3452 35.495 32.8201 36.0201C32.295 36.5452 32 37.2574 32 38V44C32 44.2122 32.0843 44.4157 32.2343 44.5657C32.3843 44.7157 32.5878 44.8 32.8 44.8C33.0122 44.8 33.2157 44.7157 33.3657 44.5657C33.5157 44.4157 33.6 44.2122 33.6 44V40.8H36V44C36 44.2122 36.0843 44.4157 36.2343 44.5657C36.3843 44.7157 36.5878 44.8 36.8 44.8ZM33.6 39.2V38C33.6 37.6818 33.7264 37.3765 33.9515 37.1515C34.1765 36.9264 34.4817 36.8 34.8 36.8C35.1183 36.8 35.4235 36.9264 35.6485 37.1515C35.8736 37.3765 36 37.6818 36 38V39.2H33.6Z" fill="#102D42"/>
<path d="M27.9998 44.8C28.212 44.8 28.4155 44.7157 28.5655 44.5657C28.7155 44.4157 28.7998 44.2122 28.7998 44V36.8H30.3998C30.612 36.8 30.8155 36.7157 30.9655 36.5657C31.1155 36.4157 31.1998 36.2122 31.1998 36C31.1998 35.7878 31.1155 35.5844 30.9655 35.4343C30.8155 35.2843 30.612 35.2 30.3998 35.2H25.5998C25.3876 35.2 25.1841 35.2843 25.0341 35.4343C24.8841 35.5844 24.7998 35.7878 24.7998 36C24.7998 36.2122 24.8841 36.4157 25.0341 36.5657C25.1841 36.7157 25.3876 36.8 25.5998 36.8H27.1998V44C27.1998 44.2122 27.2841 44.4157 27.4341 44.5657C27.5841 44.7157 27.7876 44.8 27.9998 44.8Z" fill="#102D42"/>
<path d="M24.0002 16.8C24.2124 16.8 24.4159 16.7157 24.5659 16.5657C24.7159 16.4157 24.8002 16.2122 24.8002 16V14.4C24.8002 14.1878 24.7159 13.9843 24.5659 13.8343C24.4159 13.6843 24.2124 13.6 24.0002 13.6C23.788 13.6 23.5845 13.6843 23.4345 13.8343C23.2845 13.9843 23.2002 14.1878 23.2002 14.4V16C23.2002 16.2122 23.2845 16.4157 23.4345 16.5657C23.5845 16.7157 23.788 16.8 24.0002 16.8Z" fill="#102D42"/>
<path d="M15.1998 24H13.5998C13.3876 24 13.1841 24.0843 13.0341 24.2343C12.8841 24.3843 12.7998 24.5878 12.7998 24.8C12.7998 25.0122 12.8841 25.2157 13.0341 25.3657C13.1841 25.5157 13.3876 25.6 13.5998 25.6H15.1998C15.412 25.6 15.6155 25.5157 15.7655 25.3657C15.9155 25.2157 15.9998 25.0122 15.9998 24.8C15.9998 24.5878 15.9155 24.3843 15.7655 24.2343C15.6155 24.0843 15.412 24 15.1998 24Z" fill="#102D42"/>
<path d="M32 24.8C32 25.0122 32.0843 25.2157 32.2343 25.3657C32.3843 25.5157 32.5878 25.6 32.8 25.6H34.4C34.6122 25.6 34.8157 25.5157 34.9657 25.3657C35.1157 25.2157 35.2 25.0122 35.2 24.8C35.2 24.5878 35.1157 24.3843 34.9657 24.2343C34.8157 24.0843 34.6122 24 34.4 24H32.8C32.5878 24 32.3843 24.0843 32.2343 24.2343C32.0843 24.3843 32 24.5878 32 24.8Z" fill="#102D42"/>
</g>
<defs>
<clipPath id="clip0_17028_17203">
<rect width="48" height="48" fill="white"/>
</clipPath>
</defs>
</svg>
