<svg width="48" height="48" viewBox="0 0 48 48" fill="none" xmlns="http://www.w3.org/2000/svg">
<circle cx="24" cy="24" r="24" fill="#E6F9FF"/>
<g clip-path="url(#clip0_1:2691)">
<path d="M23.9994 43.9929C20.0432 43.9942 16.1755 42.8222 12.8856 40.625C9.59559 38.4279 7.03114 35.3044 5.51658 31.6496C4.00202 27.9948 3.60541 23.9729 4.37691 20.0927C5.1484 16.2125 7.05335 12.6482 9.85079 9.85079C12.6482 7.05335 16.2125 5.1484 20.0927 4.37691C23.9729 3.60541 27.9948 4.00202 31.6496 5.51658C35.3044 7.03114 38.4279 9.59559 40.625 12.8856C42.8222 16.1755 43.9942 20.0432 43.9929 23.9994C43.9861 29.2999 41.8774 34.3814 38.1294 38.1294C34.3814 41.8774 29.2999 43.9861 23.9994 43.9929V43.9929ZM23.9994 5.59474C20.359 5.59346 16.8 6.67179 13.7726 8.69334C10.7451 10.7149 8.38509 13.5889 6.99109 16.9518C5.59709 20.3147 5.23169 24.0154 5.94111 27.586C6.65052 31.1566 8.40289 34.4366 10.9766 37.0112C13.5502 39.5858 16.8296 41.3393 20.4 42.05C23.9703 42.7606 27.6712 42.3965 31.0346 41.0037C34.398 39.6109 37.2728 37.2519 39.2954 34.2252C41.318 31.1984 42.3976 27.6398 42.3976 23.9994C42.3924 19.1209 40.4526 14.4436 37.0036 10.9933C33.5546 7.54308 28.8779 5.60161 23.9994 5.59474V5.59474Z" fill="#77C2D7"/>
<path d="M24.611 31.1429H22.7447C22.7218 31.1432 22.6991 31.139 22.678 31.1304C22.6568 31.1218 22.6375 31.1091 22.6214 31.093C22.6052 31.0768 22.5925 31.0576 22.5839 31.0365C22.5753 31.0153 22.5711 30.9926 22.5714 30.9698V21.2275C22.5714 21.1816 22.5897 21.1376 22.6222 21.1051C22.6547 21.0727 22.6987 21.0544 22.7447 21.0544H24.611C24.6338 21.0544 24.6563 21.0589 24.6773 21.0676C24.6983 21.0763 24.7174 21.0891 24.7335 21.1051C24.7496 21.1212 24.7624 21.1403 24.7711 21.1613C24.7798 21.1823 24.7843 21.2048 24.7843 21.2275V30.9698C24.7846 30.9926 24.7804 31.0153 24.7718 31.0365C24.7632 31.0576 24.7505 31.0768 24.7343 31.093C24.7181 31.1091 24.6989 31.1218 24.6777 31.1304C24.6565 31.139 24.6339 31.1432 24.611 31.1429V31.1429Z" fill="#77C2D7"/>
<path d="M23.75 17.0512L22.7237 18.7973C22.7086 18.8239 22.7007 18.8541 22.7009 18.8847C22.701 18.9153 22.7092 18.9454 22.7246 18.9719C22.74 18.9984 22.7621 19.0204 22.7886 19.0358C22.8151 19.0511 22.8453 19.0593 22.8759 19.0594H24.5585C24.6274 19.0597 24.6952 19.042 24.7551 19.0079C24.815 18.9739 24.8648 18.9248 24.8998 18.8654L25.9051 17.1534C25.9227 17.1235 25.9321 17.0894 25.9322 17.0547C25.9324 17.02 25.9234 16.9859 25.906 16.9558C25.8887 16.9257 25.8637 16.9007 25.8336 16.8834C25.8034 16.8661 25.7692 16.857 25.7345 16.8572H24.0887C24.0201 16.8571 23.9528 16.8749 23.8934 16.909C23.834 16.943 23.7845 16.9921 23.75 17.0512V17.0512Z" fill="#77C2D7"/>
</g>
<defs>
<clipPath id="clip0_1:2691">
<rect width="40" height="40" fill="white" transform="translate(4 4)"/>
</clipPath>
</defs>
</svg>
