<svg width="54" height="52" viewBox="0 0 54 52" fill="none" xmlns="http://www.w3.org/2000/svg">
<path d="M10.3809 7.19485C10.3691 6.86875 10.3795 6.56298 10.4068 6.2876C10.4068 6.60191 10.398 6.90419 10.3809 7.19485C10.4761 9.82352 12.0155 13.7732 17.8162 13.7732C13.6669 13.7732 10.4068 17.6657 10.4068 20.9593C10.4068 18.2645 8.77572 14.1743 3.14453 14.1743C6.39025 14.1743 10.04 12.9959 10.3809 7.19485Z" fill="#643BAF" fill-opacity="0.7"/>
<path d="M10.812 4.88865L10.7117 4.96298C10.4934 5.04493 10.3219 5.11014 10.1845 5.16146C10.0507 5.21811 9.94963 5.26103 9.87305 5.29259C9.71989 5.35572 9.65931 5.37689 9.60297 5.39757C9.49186 5.4402 9.38934 5.45753 8.61884 5.85814C8.54669 5.90352 8.4491 5.95177 8.34212 6.01826C8.23357 6.0835 8.10886 6.15772 7.97615 6.23715C7.84187 6.31531 7.69692 6.40041 7.54805 6.48882C7.40281 6.58397 7.25349 6.68101 7.10433 6.77947C6.80065 6.96697 6.52043 7.18474 6.27751 7.36537C6.03113 7.54066 5.84616 7.71473 5.73454 7.8161C5.73704 7.81295 5.69785 7.84602 5.63764 7.89576C5.57884 7.94535 5.49903 8.01163 5.42064 8.07775C5.26401 8.2114 5.1242 8.3546 5.13562 8.32898C5.05117 8.43014 4.89411 8.58531 4.7126 8.76471C4.54242 8.95572 4.34638 9.17112 4.17057 9.37564C4.04602 9.52713 4.27198 9.27257 4.37464 9.16792L4.17063 9.4014C4.10215 9.47927 4.04452 9.56451 3.98077 9.64615L3.6075 10.1421C3.33361 10.5423 3.25543 10.6356 3.54289 10.1909C3.43188 10.3609 3.29252 10.5713 3.13124 10.8157C3.05218 10.9392 2.98085 11.0803 2.89711 11.2258C2.81794 11.3736 2.72637 11.5256 2.64362 11.6924C2.31735 12.3634 1.9848 13.1939 1.74423 14.1543C1.51827 15.1174 1.39323 16.2006 1.41213 17.3292C1.43245 18.4576 1.57961 19.6318 1.8696 20.7654C2.43201 23.0419 3.43201 25.1758 4.42937 26.8563C4.92154 27.7024 5.41695 28.4378 5.83877 29.0542C6.27785 29.6586 6.62641 30.1587 6.8983 30.4872C6.8353 30.3984 6.74602 30.2797 6.64524 30.148C6.54838 30.013 6.44112 29.862 6.33544 29.7122C6.12266 29.4128 5.91444 29.1157 5.81076 28.9457C6.08051 29.3059 6.27266 29.5747 6.42905 29.7932C6.50717 29.9017 6.57678 29.9983 6.63978 30.0871C6.70686 30.174 6.7714 30.2511 6.83579 30.3268C6.92294 30.4773 7.22464 30.8668 7.5531 31.2905C7.89191 31.7044 8.26391 32.1461 8.46408 32.4226L8.65039 32.6019L8.9366 32.9431C9.26981 33.3076 9.52795 33.5904 9.73193 33.812C9.94093 34.0274 10.0933 34.1848 10.2066 34.3008C10.4318 34.5329 10.5014 34.6038 10.5597 34.6644C10.6792 34.784 10.7392 34.8846 11.9891 36.1029C12.3473 36.4602 12.679 36.7476 12.9664 37.0113C13.258 37.2732 13.5105 37.5065 13.7501 37.7142C14.2329 38.1233 14.6303 38.4605 15.0504 38.8337C14.9236 38.725 14.5985 38.4197 14.9975 38.7581C15.0492 38.8353 16.0862 39.6268 16.2697 39.8064C16.6721 40.1244 17.9965 41.1282 17.5659 40.7633C17.7763 40.9527 18.9867 41.8091 18.2576 41.3105C18.6666 41.5991 19.052 41.8933 19.3596 42.0818L19.0943 41.9L18.8352 41.7103C18.9209 41.7721 19.0049 41.8313 19.0858 41.888C19.1693 41.943 19.2498 41.9969 19.3287 42.0495C19.4866 42.1547 19.6352 42.2538 19.7776 42.3479C20.0622 42.5361 20.3142 42.7137 20.5604 42.8662C21.0554 43.168 21.4802 43.4434 21.9649 43.7049C21.7842 43.6008 21.6097 43.4874 21.4351 43.3741C21.5428 43.4406 21.6488 43.5045 21.7518 43.5673C21.8573 43.6269 21.9584 43.6856 22.0578 43.7416C22.2553 43.8552 22.4403 43.9602 22.6087 44.0571C22.7759 44.1556 22.926 44.2431 23.0564 44.3199C23.1878 44.3938 23.2981 44.4572 23.3828 44.5106C23.0708 44.3584 22.7706 44.1848 22.4683 44.0172C22.6503 44.1211 22.8245 44.2188 22.9912 44.313C23.1577 44.4058 23.3229 44.4873 23.4781 44.5685C23.7913 44.7306 24.0831 44.8807 24.3673 45.0275C24.656 45.1623 24.9384 45.2935 25.2271 45.4283C25.372 45.4949 25.5185 45.5628 25.668 45.6318C25.8211 45.6946 25.9773 45.7599 26.1382 45.8276L25.6793 45.6305C25.8851 45.716 26.2004 45.8463 26.5968 46.0104C26.696 46.0522 26.7996 46.0948 26.9093 46.1411C27.0199 46.183 27.135 46.2258 27.2546 46.2709C27.4937 46.3598 27.7494 46.4568 28.0199 46.5579C29.1065 46.9402 30.4318 47.357 31.7862 47.6518C33.1393 47.9481 34.5122 48.1277 35.648 48.1981C35.9329 48.2117 36.2021 48.2256 36.4511 48.2375C36.7016 48.2378 36.9334 48.2373 37.1424 48.238C37.5597 48.2452 37.8868 48.2139 38.0933 48.2049L37.7129 48.2078C37.5859 48.2107 37.4598 48.2093 37.333 48.2021C37.4505 48.2032 37.5689 48.1998 37.6868 48.1922L38.0411 48.1736C38.2768 48.1569 38.5129 48.156 38.7484 48.125C38.5823 48.1495 38.0682 48.2363 37.9267 48.238C38.6847 48.2195 40.2604 48.13 42.1631 47.617C43.1114 47.358 44.1379 46.9943 45.152 46.4817C46.1661 45.9705 47.1632 45.3081 48.0466 44.514C48.9318 43.7225 49.6976 42.8 50.2909 41.8326C50.8872 40.8663 51.3073 39.8613 51.585 38.9253C51.8625 37.9879 51.9762 37.1206 52.0532 36.4092C52.0715 36.0521 52.0912 35.7336 52.1004 35.4606C52.0968 35.1877 52.0952 34.9588 52.0923 34.7817C52.0971 34.4949 52.0738 34.3401 52.077 34.2667C52.0759 34.1939 52.0813 34.2033 52.088 34.2498C52.0961 34.2961 52.1067 34.3779 52.1149 34.4499C52.1231 34.522 52.1298 34.5814 52.1302 34.5856C52.0087 33.1953 52.0752 33.985 51.9155 32.8137C51.8735 32.4935 51.944 32.8763 51.973 33.0562C51.9542 32.9281 51.9355 32.8014 51.9194 32.6844C51.8991 32.5679 51.8755 32.4604 51.8577 32.3665C51.8195 32.1805 51.7936 32.0532 51.7829 32.0343C51.9036 32.6705 51.8209 32.4079 51.8558 32.6787C51.754 32.1836 51.6676 31.6853 51.5268 31.2003L51.5623 31.2607C51.4712 30.9361 51.3188 30.4366 50.7902 29.0537C50.331 27.892 49.748 26.7242 49.0766 25.6093C48.3971 24.4997 47.6443 23.437 46.8692 22.4555C46.9019 22.479 47.2276 22.8916 47.5534 23.3042C47.3487 23.0382 47.0354 22.6343 46.8525 22.3844C47.0266 22.6324 46.8722 22.4194 46.6882 22.2098C46.5081 21.9969 46.3179 21.7708 46.4661 21.9544C46.3162 21.781 46.1601 21.6026 46.0006 21.4203C45.8451 21.2346 45.669 21.057 45.5004 20.87C45.3306 20.6845 45.1588 20.495 44.9857 20.3056C44.8113 20.1178 44.6292 19.9381 44.4509 19.7536C44.2728 19.5705 44.0964 19.3901 43.9215 19.2109C43.7442 19.0349 43.5651 18.8691 43.3918 18.704C43.0457 18.3768 42.7212 18.0643 42.4104 17.8089C42.377 17.7926 42.1692 17.6759 41.877 17.51C41.7317 17.4277 41.5649 17.3321 41.3876 17.2319C41.2064 17.1365 41.0162 17.0363 40.826 16.9362C40.4458 16.7388 40.0729 16.5419 39.7882 16.4038C39.5011 16.2703 39.3084 16.1862 39.3009 16.1956C38.9117 15.8933 38.5256 15.592 38.4103 15.4963C38.5031 15.5831 39.2649 16.1811 39.6751 16.4925L39.7619 16.5256C40.6795 17.2734 39.965 16.7144 40.8554 17.4495C40.8715 17.4778 40.675 17.3225 40.3835 17.0864C40.092 16.8503 39.7107 16.5285 39.3354 16.2475C39.5004 16.3777 39.6693 16.5046 39.8245 16.6359C39.9794 16.7658 40.1281 16.8906 40.2657 17.0067C40.5407 17.2361 40.7695 17.4235 40.9082 17.5237C41.4999 18.0479 40.8264 17.4843 41.534 18.1213C41.6625 18.2327 41.8005 18.3517 41.9449 18.477C42.0906 18.6008 42.2413 18.7312 42.3875 18.8721C42.6835 19.1477 42.9878 19.4339 43.2648 19.706L43.2525 19.6988C43.5828 20.0378 43.8727 20.3357 44.1431 20.6128C44.2816 20.7488 44.4072 20.8849 44.5296 21.0185C44.6535 21.1519 44.7726 21.2815 44.893 21.4096C45.012 21.5378 45.131 21.6661 45.2516 21.7955C45.3695 21.9268 45.4824 22.0643 45.6011 22.2026C45.7185 22.3424 45.8393 22.4862 45.965 22.6366C46.028 22.7124 46.0912 22.7897 46.1573 22.8681C46.2195 22.9498 46.2818 23.033 46.3475 23.12L46.2283 22.9775C46.4079 23.2234 46.6884 23.5781 46.9966 23.9869C47.1448 24.1963 47.3001 24.4177 47.4587 24.6431C47.5373 24.7558 47.6189 24.8697 47.6948 24.9842C47.7682 25.1018 47.8417 25.2195 47.9148 25.3343C47.7503 25.0695 47.6174 24.8312 47.9735 25.3849C48.6504 26.4476 49.0514 27.208 49.4482 28.0333L49.8298 28.826C49.8882 28.9497 49.9411 29.0882 49.9995 29.2376C50.0579 29.387 50.1204 29.5474 50.187 29.7188C50.2195 29.8038 50.2566 29.8912 50.2885 29.9835C50.319 30.076 50.3497 30.1698 50.3822 30.2678C50.4458 30.4624 50.5131 30.6652 50.5829 30.8777C50.8303 31.7356 51.0729 32.7544 51.1883 33.8878C51.3049 35.0196 51.2869 36.2654 51.0558 37.5239C51.0248 37.6805 50.9998 37.8394 50.9648 37.9979C50.9238 38.1543 50.8843 38.3105 50.8434 38.4682L50.7828 38.7041C50.7632 38.7836 50.7316 38.8587 50.7076 38.9373C50.655 39.0921 50.6039 39.2481 50.5513 39.403C50.5018 39.5603 50.4283 39.7074 50.3685 39.8616C50.3025 40.0122 50.2488 40.17 50.1723 40.316C50.0194 40.6096 49.8864 40.9137 49.7062 41.1932C49.6205 41.3345 49.5382 41.4798 49.451 41.6199L49.168 42.0284L49.0265 42.2319L48.8709 42.4255C48.7681 42.5545 48.6638 42.6823 48.561 42.8112C48.4549 42.9363 48.3394 43.0539 48.2286 43.1752C48.1161 43.2938 48.0116 43.4201 47.8892 43.527C47.6509 43.7486 47.4236 43.979 47.1696 44.1752C46.1848 44.9965 45.1067 45.6266 44.0634 46.0824C43.019 46.5412 42.008 46.8274 41.1353 47.0206C40.9157 47.0654 40.7058 47.1078 40.5042 47.1478C40.3021 47.1835 40.1087 47.2068 39.9273 47.2359C39.7455 47.2608 39.5758 47.2915 39.4144 47.3069C39.2544 47.3221 39.1055 47.3346 38.9681 47.3473L39.1391 47.328C38.9309 47.3472 38.717 47.3671 38.4961 47.3878C38.2739 47.3972 38.0459 47.4059 37.8108 47.4153C37.6938 47.4185 37.5746 47.4277 37.4544 47.4284C37.3341 47.4277 37.2123 47.4258 37.0891 47.4254C36.8424 47.4204 36.5899 47.4275 36.3334 47.4121C35.3041 47.3726 34.1933 47.2449 33.0384 47.0435C31.8829 46.8365 30.6897 46.5249 29.4862 46.1473C28.2826 45.7682 27.0825 45.2814 25.8996 44.7568C23.5459 43.6749 21.2886 42.3573 19.3308 40.9801C17.3668 39.6107 15.6766 38.2204 14.3618 37.061C13.9648 36.6894 13.4942 36.2489 13.0188 35.8046C12.5512 35.3523 12.0838 34.8899 11.6811 34.4932C12.1252 34.9396 11.9591 34.7995 11.6108 34.4539C10.4167 33.2107 10.3736 33.1712 10.3299 33.1261C10.3074 33.1043 10.2835 33.0827 10.1187 32.9038C10.037 32.8143 9.9194 32.6859 9.74957 32.5004C9.58224 32.3118 9.35074 32.0747 9.07365 31.7382C8.75249 31.3537 8.3001 30.8467 7.80928 30.2024C7.68394 30.0434 7.55498 29.8776 7.41957 29.7055C7.28291 29.5349 7.1572 29.3473 7.01878 29.1611C6.74711 28.7839 6.452 28.3894 6.17691 27.9568C6.03529 27.7424 5.89037 27.524 5.74355 27.3016C5.60206 27.0758 5.46543 26.8422 5.32282 26.6064C5.02961 26.1401 4.77229 25.6368 4.49612 25.1313C3.97924 24.1049 3.48706 23.0184 3.12075 21.8934C2.75602 20.7696 2.49552 19.6183 2.37785 18.5023C2.25736 17.3867 2.2742 16.3085 2.42838 15.3436C2.57691 14.3793 2.83011 13.5305 3.10655 12.8366C3.17578 12.6641 3.2565 12.5047 3.32482 12.3496C3.3977 12.1968 3.4552 12.0471 3.53379 11.9195C3.68325 11.6592 3.79995 11.4256 3.91832 11.2448C4.38253 10.4394 5.05277 9.62076 5.8132 8.90354C6.57331 8.1835 7.42741 7.57305 8.2114 7.08932L8.05376 7.18874C8.47919 6.9388 9.40092 6.38224 10.6799 5.88401C11.9537 5.37779 13.5703 4.92868 15.2336 4.66464C16.8958 4.39071 18.5978 4.31694 20.0181 4.33373C20.3741 4.34354 20.7117 4.35401 21.0275 4.36265C21.3442 4.37835 21.6373 4.401 21.9053 4.41649C22.0394 4.42564 22.1662 4.43277 22.2873 4.44054C22.4074 4.4527 22.5202 4.46284 22.6259 4.47378C22.8372 4.49425 23.0168 4.51258 23.1614 4.52627L22.8496 4.48998C23.1028 4.51429 23.3198 4.53412 23.5092 4.55133C23.6977 4.57294 23.8594 4.59759 24.0003 4.61599C24.2826 4.65705 24.4865 4.68836 24.6771 4.71547C25.0566 4.7813 25.3822 4.85038 26.1687 4.99612C26.0684 4.95737 26.4464 5.02195 26.9321 5.11443C27.418 5.19685 28.0033 5.34818 28.328 5.42166L28.3011 5.42469C28.423 5.45241 28.5643 5.48652 28.7216 5.52311C28.8781 5.56552 29.0494 5.61198 29.2324 5.6614C29.6001 5.76149 30.017 5.86604 30.4476 6.00338C30.8792 6.13633 31.3331 6.2653 31.7688 6.42212C32.2056 6.57594 32.6388 6.71155 33.0243 6.86689L32.9564 6.86169C33.2806 6.98244 33.6766 7.12944 34.1005 7.29617C34.5198 7.47342 34.9677 7.66178 35.4051 7.84701C35.8355 8.04592 36.2554 8.2403 36.6239 8.41044C36.9913 8.58356 37.3004 8.74754 37.5244 8.8553C38.545 9.36242 39.8077 10.074 41.1267 10.878C42.4469 11.6804 43.7963 12.6141 45.0383 13.4969L45.8065 14.1128C46.063 14.3185 46.3207 14.5212 46.5683 14.7365L46.7958 14.9125C46.7958 14.9125 47.5146 15.2821 47.8575 15.3277C48.1951 15.3768 48.166 15.081 46.6108 13.7584L46.6737 13.7828L46.0291 13.2975C45.2673 12.6996 44.8796 12.4729 44.946 12.4912C45.1253 12.6212 45.3068 12.7452 45.485 12.8782L46.0127 13.2793C45.2403 12.6883 45.7881 13.0901 46.0901 13.3049C45.766 13.0596 45.4577 12.814 45.1946 12.6262C45.0339 12.5213 45.3047 12.7139 45.4252 12.8048C44.9924 12.5088 44.393 12.0943 43.8721 11.7281C43.0438 11.1749 43.8367 11.6678 42.869 11.0215C42.5526 10.8054 42.2215 10.611 41.8991 10.4056C41.5756 10.2032 41.2531 9.99637 40.9227 9.80904C40.5933 9.61731 40.2652 9.424 39.9372 9.23211C39.6031 9.0495 39.2705 8.86814 38.9364 8.68552C37.5975 7.97109 36.2353 7.30367 34.8342 6.72223C32.0409 5.5383 29.1157 4.62978 26.055 4.05434C25.9169 4.02273 26.0833 4.05114 26.2611 4.07968C24.4163 3.7388 22.7525 3.54346 21.043 3.47495C20.5682 3.45281 20.4377 3.43752 20.2976 3.42618C20.3323 3.42941 20.2118 3.42729 19.9723 3.42291C19.7322 3.42574 19.3735 3.43054 18.9361 3.43566C18.717 3.43469 18.477 3.45181 18.2236 3.46332C17.969 3.4778 17.6994 3.48541 17.42 3.50843C17.141 3.53427 16.8505 3.55998 16.5557 3.58617C16.2596 3.61252 15.9602 3.66071 15.6595 3.69759C14.4577 3.86647 13.251 4.1175 12.3508 4.38394C12.124 4.44109 11.9185 4.51014 11.7349 4.56956C11.5513 4.62898 11.3896 4.68019 11.2543 4.72412C10.985 4.81041 10.8282 4.87967 10.8086 4.88332L10.812 4.88865Z" fill="url(#paint0_linear_3838_34387)"/>
<path d="M52.7984 28.8203L39.8483 42.5479C39.6392 42.7698 39.278 42.7442 39.1038 42.4929C37.4626 40.1035 29.0052 30.0398 2.7639 29.5722C2.32929 29.5648 2.12758 29.0294 2.44849 28.736L17.1994 15.3696C17.28 15.2962 17.3846 15.2522 17.4946 15.2449C33.4264 14.1978 47.3704 23.7169 52.7526 28.1198C52.9689 28.2959 52.9873 28.6168 52.7966 28.8203H52.7984Z" fill="#D0CCFF"/>
<path d="M10.748 27.6898C10.7957 27.6733 10.8507 27.6201 10.9058 27.5706C10.8507 27.5962 10.8031 27.6311 10.748 27.6898Z" fill="#24363F"/>
<path d="M20.1613 16.782C20.1491 16.7942 20.1351 16.8082 20.1211 16.824C20.1351 16.81 20.1491 16.796 20.1613 16.782Z" fill="#24363F"/>
<path d="M13.4394 25.0957L13.4211 25.0627C13.5421 24.938 13.4871 25.0554 13.5935 24.9362C13.6008 24.8555 13.7842 24.751 13.8043 24.6923C13.8062 24.696 13.863 24.641 13.8704 24.6556C13.8667 24.6189 13.9217 24.5933 13.9529 24.5529C13.9602 24.5346 13.9382 24.5566 13.9217 24.5603L13.9951 24.4722C14.0336 24.4466 14.0519 24.4502 14.0207 24.4869C14.2353 24.2834 15.2549 23.2895 15.4694 23.0529C15.4254 23.0676 15.3667 23.1483 15.3172 23.1501C15.363 23.0767 15.4089 23.0657 15.4217 23.0254C15.4804 23.0364 15.5611 22.9025 15.6418 22.8915L15.6381 22.8549L15.6803 22.8365C15.9205 22.5523 15.7298 22.7668 15.9664 22.5358C16.0966 22.3964 16.1332 22.3047 16.2176 22.2405C16.2066 22.2515 16.1644 22.2699 16.1937 22.2295C16.2176 22.2405 16.2726 22.1232 16.3074 22.1232C16.3386 22.0865 16.4523 21.9765 16.39 21.9912C16.4211 21.9838 16.5238 21.8903 16.4762 21.9581C16.5092 21.9251 16.5458 21.8958 16.5642 21.8665L16.5147 21.9031C16.6229 21.7858 16.7017 21.7436 16.753 21.6482L16.7017 21.6812C16.7677 21.6116 16.8209 21.5529 16.8704 21.551L16.8099 21.6281C16.9199 21.5144 16.9859 21.4465 17.0648 21.3402L17.0318 21.3732C17.1253 21.2301 17.7213 20.5865 17.8001 20.4471L17.7323 20.4801L17.8093 20.3701C17.7983 20.3811 17.824 20.4746 17.8093 20.4783C18.0073 20.2747 19.0324 19.2075 19.2305 19.0314C19.3148 18.9654 19.2727 19.0461 19.2745 19.0498C19.3588 18.9508 19.2947 18.9911 19.3735 18.9141C19.3973 18.8957 19.3845 18.9324 19.3735 18.9471C19.4047 18.9104 19.4432 18.8847 19.4359 18.8737C19.3863 18.9104 19.3827 18.8701 19.3497 18.8737L19.4505 18.7747L19.4597 18.7931C19.4817 18.771 19.4762 18.6977 19.5807 18.606C19.7513 18.4465 19.9255 18.2594 20.0923 18.0962C20.0978 18.1072 20.0685 18.1476 20.0392 18.1879C20.0612 18.1659 20.0942 18.1292 20.1199 18.1146C20.0648 18.1402 20.1785 18.0339 20.1419 18.0595C20.228 17.9018 20.4169 17.7753 20.4994 17.6433C20.4774 17.6029 20.1822 16.8713 20.1437 16.8346C20.1767 16.8016 20.2115 16.7686 20.2244 16.7612C20.206 16.7612 20.1382 16.8236 20.1089 16.8639L20.1235 16.8896C20.0502 16.9776 20.0924 16.8969 20.0172 16.9776C19.997 16.9648 20.0648 16.8896 20.1254 16.8236C20.0667 16.8786 19.9988 16.9244 19.9933 16.9666C19.9328 17.0143 19.9787 16.9409 19.9071 16.9996C19.8668 17.051 19.8228 17.128 19.7604 17.172V17.1683C19.6137 17.2802 19.5881 17.392 19.4542 17.4929L19.4615 17.4746C19.4102 17.5076 19.3423 17.6011 19.258 17.6671C19.2818 17.6488 19.313 17.6414 19.2708 17.6891C19.1755 17.7661 19.126 17.8358 19.0508 17.8853L19.0068 17.9623C18.706 18.2613 17.5507 19.477 17.2537 19.7833L17.2628 19.7686C16.8154 20.2399 15.8765 21.1861 15.4272 21.6867C15.3392 21.7454 15.242 21.85 15.1613 21.9233C15.2108 21.8866 15.2072 21.9123 15.1742 21.9453C14.9413 22.1782 15.1687 21.9728 14.9413 22.2167C14.6864 22.5046 13.6356 23.5352 13.3826 23.7644C13.278 23.9184 13.0983 24.0633 12.9883 24.2064L12.9956 24.188C12.8691 24.3347 12.0806 25.0902 11.9321 25.2571L11.9559 25.2388C11.833 25.3928 11.8257 25.3488 11.7102 25.4496C11.7505 25.4607 11.6478 25.5945 11.6056 25.6422L11.602 25.6349C11.5396 25.7082 11.4076 25.8861 11.2994 26.0016L11.2884 25.9833C11.2114 26.0933 11.0298 26.2638 10.9638 26.3335C10.8043 26.4821 10.5439 26.6966 10.3568 26.924L10.1826 27.0175L10.168 27.0414C10.168 27.0414 10.4522 27.7492 10.83 27.5787L10.841 27.597L10.8923 27.5402C10.9638 27.4815 10.9767 27.4356 10.9858 27.454L10.896 27.542C10.9638 27.4815 10.9272 27.5346 10.9106 27.5677C10.9382 27.542 10.9675 27.5163 10.9932 27.4998C11.0005 27.4815 10.9785 27.5035 10.9638 27.5108C10.9932 27.4705 11.028 27.4081 11.0775 27.3714C11.1454 27.3054 11.105 27.3898 11.1839 27.3146C11.602 26.9148 12.0109 26.5316 12.4198 26.1116C12.4345 26.108 12.4235 26.119 12.4143 26.1336C12.5317 26.0016 12.6436 25.8934 12.7499 25.7724C12.7884 25.7467 12.8049 25.7467 12.8196 25.743C12.7884 25.7504 13.4284 25.0994 13.4413 25.0921L13.4394 25.0957Z" fill="#24363F"/>
<path d="M14.7402 28.2056C14.7879 28.1891 14.8429 28.1359 14.8979 28.0864C14.8429 28.1121 14.7952 28.1469 14.7402 28.2056Z" fill="#24363F"/>
<path d="M24.1516 17.2976C24.1393 17.3099 24.1253 17.3256 24.1113 17.3396C24.1253 17.3256 24.1393 17.3134 24.1516 17.2976Z" fill="#24363F"/>
<path d="M17.4297 25.6116L17.4113 25.5786C17.5323 25.4539 17.4773 25.5713 17.5837 25.4521C17.591 25.3714 17.7744 25.2669 17.7946 25.2082C17.7964 25.2118 17.8533 25.1568 17.8606 25.1715C17.8569 25.1348 17.9119 25.1091 17.9431 25.0688C17.9504 25.0505 17.9284 25.0725 17.9119 25.0761L17.9853 24.9881C18.0238 24.9624 18.0421 24.9661 18.011 25.0028C18.2255 24.7992 19.2451 23.8053 19.4596 23.5688C19.4156 23.5834 19.357 23.6641 19.3074 23.666C19.3533 23.5926 19.3991 23.5816 19.412 23.5413C19.4706 23.5523 19.5513 23.4184 19.632 23.4074L19.6283 23.3707L19.6705 23.3524C19.9107 23.0682 19.72 23.2827 19.9566 23.0517C20.0868 22.9123 20.1235 22.8206 20.2078 22.7564C20.1968 22.7674 20.1546 22.7858 20.184 22.7454C20.2078 22.7564 20.2628 22.6391 20.2977 22.6391C20.3288 22.6024 20.4425 22.4942 20.3802 22.507C20.4114 22.4997 20.5141 22.4062 20.4664 22.474C20.4994 22.441 20.5361 22.4117 20.5544 22.3823L20.5049 22.419C20.6131 22.3016 20.6919 22.2595 20.7433 22.1641L20.6919 22.1971C20.758 22.1274 20.8111 22.0687 20.8606 22.0669L20.8001 22.1439C20.9102 22.0302 20.9762 21.9624 21.055 21.856L21.022 21.889C21.1155 21.746 21.7115 21.1023 21.7904 20.963L21.7225 20.996L21.7995 20.886C21.7885 20.897 21.8142 20.9905 21.7995 20.9942C21.9976 20.7906 23.0227 19.7234 23.2207 19.5473C23.3051 19.4813 23.2629 19.562 23.2647 19.5656C23.3491 19.4666 23.2849 19.507 23.3637 19.4299C23.3876 19.4116 23.3747 19.4483 23.3637 19.463C23.3949 19.4263 23.4334 19.4006 23.4261 19.3896C23.3766 19.4263 23.3729 19.3859 23.3399 19.3896L23.4408 19.2906L23.4499 19.3089C23.4719 19.2869 23.4664 19.2136 23.571 19.1219C23.7415 18.9623 23.9157 18.7753 24.0826 18.6121C24.0881 18.6231 24.0587 18.6634 24.0294 18.7038C24.0514 18.6818 24.0844 18.6451 24.1101 18.6304C24.0551 18.6561 24.1688 18.5497 24.1321 18.5754C24.2183 18.4177 24.4072 18.2912 24.4897 18.1591C24.4677 18.1188 24.1724 17.3871 24.1339 17.3504C24.1669 17.3174 24.2018 17.2844 24.2146 17.2771C24.1963 17.2771 24.1284 17.3394 24.0991 17.3798L24.1138 17.4055C24.0404 17.4935 24.0826 17.4128 24.0074 17.4935C23.9872 17.4806 24.0551 17.4055 24.1156 17.3394C24.0569 17.3945 23.9891 17.4403 23.9836 17.4825C23.923 17.5302 23.9689 17.4568 23.8974 17.5155C23.857 17.5668 23.813 17.6439 23.7507 17.6879V17.6842C23.604 17.7961 23.5783 17.9079 23.4444 18.0088L23.4518 17.9904C23.4004 18.0234 23.3326 18.1188 23.2482 18.183C23.2721 18.1646 23.3032 18.1573 23.2611 18.205C23.1657 18.282 23.1162 18.3517 23.041 18.4012L22.997 18.4782C22.6963 18.7771 21.541 19.9929 21.2439 20.2992L21.2531 20.2845C20.8056 20.7539 19.8667 21.702 19.4175 22.2026C19.3294 22.2613 19.2323 22.3658 19.1516 22.4392C19.2011 22.4025 19.1974 22.4282 19.1644 22.4612C18.9315 22.6941 19.1589 22.4887 18.9315 22.7326C18.6766 23.0205 17.6259 24.0511 17.3728 24.2803C17.2683 24.4343 17.0886 24.5792 16.9785 24.7222L16.9859 24.7039C16.8594 24.8506 16.0708 25.6061 15.9223 25.773L15.9461 25.7546C15.8233 25.9087 15.8159 25.8647 15.7004 25.9655C15.7408 25.9765 15.6381 26.1104 15.5959 26.1581L15.5922 26.1507C15.5299 26.2241 15.3978 26.402 15.2896 26.5175L15.2786 26.4991C15.2016 26.6092 15.0201 26.7797 14.9541 26.8494C14.7945 26.9979 14.5341 27.2125 14.3471 27.4399L14.1729 27.5334L14.1582 27.5572C14.1582 27.5572 14.4424 28.2651 14.8202 28.0945L14.8312 28.1129L14.8825 28.056C14.9541 27.9973 14.9669 27.9515 14.9761 27.9698L14.8862 28.0579C14.9541 27.9973 14.9174 28.0505 14.9009 28.0835C14.9284 28.0579 14.9577 28.0322 14.9834 28.0157C14.9907 27.9973 14.9687 28.0193 14.9541 28.0267C14.9834 27.9863 15.0182 27.924 15.0678 27.8873C15.1356 27.8213 15.0953 27.9056 15.1741 27.8305C15.5922 27.4307 16.0011 27.0474 16.4101 26.6275C16.4247 26.6238 16.4137 26.6348 16.4046 26.6495C16.5219 26.5175 16.6338 26.4093 16.7402 26.2883C16.7787 26.2626 16.7952 26.2626 16.8098 26.2589C16.7787 26.2663 17.4187 25.6153 17.4315 25.6079L17.4297 25.6116Z" fill="#24363F"/>
<path d="M18.7344 28.7208C18.7821 28.7043 18.8371 28.6511 18.8921 28.6016C18.8371 28.6272 18.7894 28.6621 18.7344 28.7208Z" fill="#24363F"/>
<path d="M28.1496 17.813C28.1374 17.8252 28.1234 17.8392 28.1094 17.855C28.1234 17.841 28.1374 17.827 28.1496 17.813Z" fill="#24363F"/>
<path d="M21.4277 26.1272L21.4094 26.0942C21.5304 25.9695 21.4754 26.0869 21.5817 25.9677C21.5891 25.887 21.7725 25.7825 21.7926 25.7238C21.7945 25.7275 21.8513 25.6724 21.8586 25.6871C21.855 25.6504 21.91 25.6248 21.9412 25.5844C21.9485 25.5661 21.9265 25.5881 21.91 25.5918L21.9833 25.5037C22.0218 25.4781 22.0402 25.4817 22.009 25.5184C22.2236 25.3149 23.2431 24.321 23.4577 24.0844C23.4137 24.0991 23.355 24.1798 23.3055 24.1816C23.3513 24.1082 23.3972 24.0972 23.41 24.0569C23.4687 24.0679 23.5494 23.934 23.6301 23.923L23.6264 23.8864L23.6686 23.868C23.9088 23.5838 23.7181 23.7983 23.9546 23.5673C24.0848 23.4279 24.1215 23.3362 24.2059 23.272C24.1949 23.283 24.1527 23.3014 24.182 23.261C24.2059 23.272 24.2609 23.1547 24.2957 23.1547C24.3269 23.118 24.4406 23.0098 24.3782 23.0226C24.4094 23.0153 24.5121 22.9218 24.4644 22.9896C24.4974 22.9566 24.5341 22.9273 24.5525 22.8979L24.5029 22.9346C24.6111 22.8173 24.69 22.7751 24.7413 22.6797L24.69 22.7127C24.756 22.6431 24.8092 22.5844 24.8587 22.5825L24.7982 22.6596C24.9082 22.5459 24.9742 22.478 25.0531 22.3717L25.0201 22.4047C25.1136 22.2616 25.7096 21.618 25.7884 21.4786L25.7206 21.5116L25.7976 21.4016C25.7866 21.4126 25.8123 21.5061 25.7976 21.5098C25.9956 21.3062 27.0207 20.239 27.2188 20.0629C27.3031 19.9969 27.2609 20.0776 27.2628 20.0813C27.3471 19.9822 27.2829 20.0226 27.3618 19.9456C27.3856 19.9272 27.3728 19.9639 27.3618 19.9786C27.393 19.9419 27.4315 19.9162 27.4241 19.9052C27.3746 19.9419 27.371 19.9016 27.338 19.9052L27.4388 19.8062L27.448 19.8245C27.47 19.8025 27.4645 19.7292 27.569 19.6375C27.7395 19.478 27.9138 19.2909 28.0806 19.1277C28.0861 19.1387 28.0568 19.1791 28.0275 19.2194C28.0495 19.1974 28.0825 19.1607 28.1081 19.1461C28.0531 19.1717 28.1668 19.0654 28.1301 19.091C28.2163 18.9333 28.4052 18.8068 28.4877 18.6748C28.4657 18.6344 28.1705 17.9027 28.132 17.8661C28.165 17.8331 28.1998 17.8001 28.2127 17.7927C28.1943 17.7927 28.1265 17.8551 28.0971 17.8954L28.1118 17.9211C28.0385 18.0091 28.0806 17.9284 28.0054 18.0091C27.9853 17.9963 28.0531 17.9211 28.1136 17.8551C28.055 17.9101 27.9871 17.9559 27.9816 17.9981C27.9211 18.0458 27.9669 17.9724 27.8954 18.0311C27.8551 18.0825 27.8111 18.1595 27.7487 18.2035V18.1998C27.602 18.3117 27.5763 18.4235 27.4425 18.5244L27.4498 18.5061C27.3985 18.5391 27.3306 18.6326 27.2463 18.6986C27.2701 18.6803 27.3013 18.6729 27.2591 18.7206C27.1637 18.7976 27.1142 18.8673 27.039 18.9168L26.995 18.9938C26.6943 19.2928 25.539 20.5085 25.2419 20.8148L25.2511 20.8001C24.8037 21.2696 23.8648 22.2176 23.4155 22.7182C23.3275 22.7769 23.2303 22.8814 23.1496 22.9548C23.1991 22.9181 23.1955 22.9438 23.1625 22.9768C22.9296 23.2097 23.1569 23.0043 22.9296 23.2482C22.6747 23.5361 21.6239 24.5667 21.3709 24.7959C21.2663 24.9499 21.0866 25.0948 20.9766 25.2378L20.9839 25.2195C20.8574 25.3662 20.0689 26.1217 19.9203 26.2886L19.9442 26.2703C19.8213 26.4243 19.814 26.3803 19.6985 26.4811C19.7388 26.4921 19.6361 26.626 19.5939 26.6737L19.5903 26.6664C19.5279 26.7397 19.3959 26.9176 19.2877 27.0331L19.2767 27.0148C19.1997 27.1248 19.0181 27.2953 18.9521 27.365C18.7926 27.5136 18.5322 27.7281 18.3451 27.9555L18.1709 28.049L18.1562 28.0729C18.1562 28.0729 18.4405 28.7807 18.8182 28.6102L18.8292 28.6285L18.8806 28.5716C18.9521 28.513 18.9649 28.4671 18.9741 28.4855L18.8843 28.5735C18.9521 28.513 18.9154 28.5661 18.8989 28.5991C18.9264 28.5735 18.9558 28.5478 18.9814 28.5313C18.9888 28.513 18.9668 28.535 18.9521 28.5423C18.9814 28.502 19.0163 28.4396 19.0658 28.4029C19.1336 28.3369 19.0933 28.4213 19.1722 28.3461C19.5903 27.9463 19.9992 27.5631 20.4081 27.1431C20.4228 27.1395 20.4118 27.1505 20.4026 27.1651C20.52 27.0331 20.6318 26.9249 20.7382 26.8039C20.7767 26.7782 20.7932 26.7782 20.8079 26.7745C20.7767 26.7819 21.4167 26.1309 21.4295 26.1236L21.4277 26.1272Z" fill="#24363F"/>
<path d="M22.3613 29.5799C22.409 29.5634 22.464 29.5102 22.519 29.4607C22.464 29.4864 22.4163 29.5212 22.3613 29.5799Z" fill="#24363F"/>
<path d="M31.7746 18.6697C31.7624 18.6819 31.7484 18.6959 31.7344 18.7117C31.7484 18.6977 31.7624 18.6837 31.7746 18.6697Z" fill="#24363F"/>
<path d="M25.0527 26.9837L25.0344 26.9507C25.1554 26.826 25.1004 26.9433 25.2067 26.8241C25.2141 26.7434 25.3975 26.6389 25.4176 26.5802C25.4195 26.5839 25.4763 26.5289 25.4836 26.5436C25.48 26.5069 25.535 26.4812 25.5662 26.4409C25.5735 26.4225 25.5515 26.4445 25.535 26.4482L25.6083 26.3602C25.6468 26.3345 25.6652 26.3382 25.634 26.3749C25.8486 26.1713 26.8681 25.1774 27.0827 24.9408C27.0387 24.9555 26.98 25.0362 26.9305 25.038C26.9763 24.9647 27.0222 24.9537 27.035 24.9133C27.0937 24.9243 27.1744 24.7905 27.2551 24.7795L27.2514 24.7428L27.2936 24.7245C27.5338 24.4402 27.3431 24.6548 27.5796 24.4237C27.7098 24.2844 27.7465 24.1927 27.8309 24.1285C27.8199 24.1395 27.7777 24.1578 27.807 24.1175C27.8309 24.1285 27.8859 24.0111 27.9207 24.0111C27.9519 23.9744 28.0656 23.8663 28.0032 23.8791C28.0344 23.8718 28.1371 23.7782 28.0894 23.8461C28.1224 23.8131 28.1591 23.7837 28.1775 23.7544L28.1279 23.7911C28.2361 23.6737 28.315 23.6315 28.3663 23.5362L28.315 23.5692C28.381 23.4995 28.4342 23.4408 28.4837 23.439L28.4232 23.516C28.5332 23.4023 28.5992 23.3345 28.6781 23.2281L28.6451 23.2611C28.7386 23.1181 29.3346 22.4744 29.4134 22.3351L29.3456 22.3681L29.4226 22.258C29.4116 22.269 29.4373 22.3626 29.4226 22.3662C29.6206 22.1627 30.6457 21.0936 30.8438 20.9194C30.9281 20.8534 30.8859 20.9341 30.8878 20.9377C30.9721 20.8387 30.9079 20.879 30.9868 20.802C31.0106 20.7837 30.9978 20.8204 30.9868 20.835C31.018 20.7984 31.0565 20.7727 31.0491 20.7617C30.9996 20.7984 30.996 20.758 30.963 20.7617L31.0638 20.6627L31.073 20.681C31.095 20.659 31.0895 20.5856 31.194 20.4939C31.3645 20.3344 31.5388 20.1474 31.7056 19.9842C31.7111 19.9952 31.6818 20.0355 31.6525 20.0758C31.6745 20.0538 31.7075 20.0172 31.7331 20.0025C31.6781 20.0282 31.7918 19.9218 31.7551 19.9475C31.8413 19.7898 32.0302 19.6632 32.1127 19.5312C32.0907 19.4909 31.7955 18.7592 31.757 18.7225C31.79 18.6895 31.8248 18.6565 31.8377 18.6492C31.8193 18.6492 31.7515 18.7115 31.7221 18.7519L31.7368 18.7775C31.6635 18.8656 31.7056 18.7849 31.6304 18.8656C31.6103 18.8527 31.6781 18.7775 31.7386 18.7115C31.68 18.7665 31.6121 18.8124 31.6066 18.8546C31.5461 18.9022 31.5919 18.8289 31.5204 18.8876C31.4801 18.9389 31.4361 19.0159 31.3737 19.0599V19.0563C31.227 19.1681 31.2013 19.28 31.0675 19.3808L31.0748 19.3625C31.0235 19.3955 30.9556 19.4909 30.8713 19.5551C30.8951 19.5367 30.9263 19.5294 30.8841 19.5771C30.7887 19.6541 30.7392 19.7238 30.664 19.7733L30.62 19.8503C30.3193 20.1492 29.164 21.365 28.8669 21.6712L28.8761 21.6566C28.4287 22.126 27.4898 23.0741 27.0405 23.5747C26.9525 23.6334 26.8553 23.7379 26.7746 23.8112C26.8241 23.7746 26.8205 23.8002 26.7875 23.8332C26.5546 24.0661 26.7819 23.8608 26.5546 24.1046C26.2997 24.3926 25.2489 25.4231 24.9959 25.6523C24.8913 25.8064 24.7116 25.9513 24.6016 26.0943L24.6089 26.076C24.4824 26.2227 23.6939 26.9782 23.5453 27.145L23.5692 27.1267C23.4463 27.2807 23.439 27.2367 23.3235 27.3376C23.3638 27.3486 23.2611 27.4825 23.2189 27.5301L23.2153 27.5228C23.1529 27.5962 23.0209 27.774 22.9127 27.8896L22.9017 27.8712C22.8247 27.9812 22.6431 28.1518 22.5771 28.2215C22.4176 28.37 22.1572 28.5846 21.9701 28.8119L21.7959 28.9055L21.7812 28.9293C21.7812 28.9293 22.0655 29.6371 22.4432 29.4666L22.4542 29.4849L22.5056 29.4281C22.5771 29.3694 22.5899 29.3236 22.5991 29.3419L22.5093 29.4299C22.5771 29.3694 22.5404 29.4226 22.5239 29.4556C22.5514 29.4299 22.5808 29.4043 22.6064 29.3877C22.6138 29.3694 22.5918 29.3914 22.5771 29.3988C22.6064 29.3584 22.6413 29.2961 22.6908 29.2594C22.7587 29.1934 22.7183 29.2777 22.7972 29.2025C23.2153 28.8028 23.6242 28.4195 24.0331 27.9996C24.0478 27.9959 24.0368 28.0069 24.0276 28.0216C24.145 27.8896 24.2568 27.7814 24.3632 27.6603C24.4017 27.6347 24.4182 27.6347 24.4329 27.631C24.4017 27.6383 25.0417 26.9873 25.0545 26.98L25.0527 26.9837Z" fill="#24363F"/>
<path d="M26.2031 30.5035C26.2508 30.487 26.3058 30.4338 26.3608 30.3843C26.3058 30.41 26.2581 30.4448 26.2031 30.5035Z" fill="#24363F"/>
<path d="M35.6145 19.5955C35.6022 19.6077 35.5882 19.6217 35.5742 19.6375C35.5882 19.6235 35.6022 19.6095 35.6145 19.5955Z" fill="#24363F"/>
<path d="M28.8925 27.909L28.8742 27.876C28.9952 27.7513 28.9402 27.8686 29.0466 27.7494C29.0539 27.6687 29.2373 27.5642 29.2575 27.5055C29.2593 27.5092 29.3161 27.4542 29.3235 27.4689C29.3198 27.4322 29.3748 27.4065 29.406 27.3662C29.4133 27.3478 29.3913 27.3698 29.3748 27.3735L29.4482 27.2855C29.4867 27.2598 29.505 27.2635 29.4739 27.3001C29.6884 27.0966 30.708 26.1027 30.9225 25.8661C30.8785 25.8808 30.8198 25.9615 30.7703 25.9633C30.8162 25.89 30.862 25.879 30.8749 25.8386C30.9335 25.8496 31.0142 25.7158 31.0949 25.7048L31.0912 25.6681L31.1334 25.6498C31.3736 25.3655 31.1829 25.5801 31.4195 25.349C31.5497 25.2096 31.5864 25.118 31.6707 25.0538C31.6597 25.0648 31.6175 25.0831 31.6469 25.0428C31.6707 25.0538 31.7257 24.9364 31.7606 24.9364C31.7917 24.8997 31.9054 24.7897 31.8431 24.8044C31.8743 24.7971 31.977 24.7035 31.9293 24.7714C31.9623 24.7384 31.999 24.709 32.0173 24.6797L31.9678 24.7164C32.076 24.599 32.1548 24.5568 32.2062 24.4615L32.1548 24.4945C32.2208 24.4248 32.274 24.3661 32.3235 24.3643L32.263 24.4413C32.373 24.3276 32.4391 24.2598 32.5179 24.1534L32.4849 24.1864C32.5784 24.0434 33.1744 23.3997 33.2533 23.2603L33.1854 23.2934L33.2624 23.1833C33.2514 23.1943 33.2771 23.2879 33.2624 23.2915C33.4605 23.088 34.4856 22.0207 34.6836 21.8447C34.768 21.7787 34.7258 21.8593 34.7276 21.863C34.812 21.764 34.7478 21.8043 34.8266 21.7273C34.8505 21.709 34.8376 21.7457 34.8266 21.7603C34.8578 21.7236 34.8963 21.698 34.889 21.687C34.8395 21.7236 34.8358 21.6833 34.8028 21.687L34.9037 21.5879L34.9128 21.6063C34.9348 21.5843 34.9293 21.5109 35.0339 21.4192C35.2044 21.2597 35.3786 21.0727 35.5455 20.9094C35.551 20.9205 35.5216 20.9608 35.4923 21.0011C35.5143 20.9791 35.5473 20.9425 35.573 20.9278C35.518 20.9535 35.6317 20.8471 35.595 20.8728C35.6812 20.7151 35.8701 20.5885 35.9526 20.4565C35.9306 20.4162 35.6353 19.6845 35.5968 19.6478C35.6298 19.6148 35.6647 19.5818 35.6775 19.5745C35.6592 19.5745 35.5913 19.6368 35.562 19.6772L35.5766 19.7028C35.5033 19.7908 35.5455 19.7102 35.4703 19.7908C35.4501 19.778 35.518 19.7028 35.5785 19.6368C35.5198 19.6918 35.452 19.7377 35.4465 19.7798C35.3859 19.8275 35.4318 19.7542 35.3603 19.8129C35.3199 19.8642 35.2759 19.9412 35.2136 19.9852V19.9816C35.0669 20.0934 35.0412 20.2053 34.9073 20.3061L34.9147 20.2878C34.8633 20.3208 34.7955 20.4143 34.7111 20.4803C34.7349 20.462 34.7661 20.4547 34.7239 20.5024C34.6286 20.5794 34.5791 20.6491 34.5039 20.6986L34.4599 20.7756C34.1591 21.0745 33.0039 22.2903 32.7068 22.5965L32.716 22.5819C32.2685 23.0531 31.3296 23.9994 30.8804 24.5C30.7923 24.5587 30.6951 24.6632 30.6145 24.7365C30.664 24.6999 30.6603 24.7255 30.6273 24.7585C30.3944 24.9914 30.6218 24.786 30.3944 25.0299C30.1395 25.3178 29.0888 26.3484 28.8357 26.5776C28.7312 26.7317 28.5515 26.8765 28.4414 27.0196L28.4488 27.0012C28.3222 27.1479 27.5337 27.9035 27.3852 28.0703L27.409 28.052C27.2862 28.206 27.2788 28.162 27.1633 28.2629C27.2036 28.2739 27.1009 28.4078 27.0588 28.4554L27.0551 28.4481C26.9928 28.5214 26.8607 28.6993 26.7525 28.8148L26.7415 28.7965C26.6645 28.9065 26.483 29.0771 26.417 29.1468C26.2574 29.2953 25.997 29.5098 25.81 29.7372L25.6358 29.8308L25.6211 29.8546C25.6211 29.8546 25.9053 30.5624 26.2831 30.3919L26.2941 30.4102L26.3454 30.3534C26.417 30.2947 26.4298 30.2489 26.439 30.2672L26.3491 30.3552C26.417 30.2947 26.3803 30.3479 26.3638 30.3809C26.3913 30.3552 26.4206 30.3295 26.4463 30.313C26.4536 30.2947 26.4316 30.3167 26.417 30.324C26.4463 30.2837 26.4811 30.2214 26.5306 30.1847C26.5985 30.1187 26.5582 30.203 26.637 30.1278C27.0551 29.7281 27.464 29.3448 27.873 28.9249C27.8876 28.9212 27.8766 28.9322 27.8675 28.9469C27.9848 28.8148 28.0967 28.7067 28.203 28.5856C28.2416 28.56 28.2581 28.56 28.2727 28.5563C28.2416 28.5636 28.8815 27.9126 28.8944 27.9053L28.8925 27.909Z" fill="#24363F"/>
<path d="M29.4727 31.5645C29.5203 31.548 29.5753 31.4948 29.6304 31.4453C29.5753 31.471 29.5277 31.5058 29.4727 31.5645Z" fill="#24363F"/>
<path d="M38.886 20.6572C38.8737 20.6695 38.8597 20.6835 38.8457 20.6992C38.8597 20.6852 38.8737 20.6712 38.886 20.6572Z" fill="#24363F"/>
<path d="M32.1621 28.971L32.1437 28.938C32.2648 28.8133 32.2098 28.9306 32.3161 28.8114C32.3235 28.7308 32.5068 28.6262 32.527 28.5675C32.5288 28.5712 32.5857 28.5162 32.593 28.5309C32.5893 28.4942 32.6444 28.4685 32.6755 28.4282C32.6829 28.4098 32.6609 28.4318 32.6444 28.4355L32.7177 28.3475C32.7562 28.3218 32.7746 28.3255 32.7434 28.3622C32.9579 28.1586 33.9775 27.1647 34.1921 26.9282C34.1481 26.9428 34.0894 27.0235 34.0399 27.0253C34.0857 26.952 34.1315 26.941 34.1444 26.9006C34.2031 26.9117 34.2838 26.7778 34.3644 26.7668L34.3608 26.7301L34.4029 26.7118C34.6432 26.4275 34.4525 26.6421 34.689 26.411C34.8192 26.2717 34.8559 26.18 34.9402 26.1158C34.9292 26.1268 34.8871 26.1451 34.9164 26.1048C34.9402 26.1158 34.9953 25.9984 35.0301 25.9984C35.0613 25.9618 35.175 25.8536 35.1126 25.8664C35.1438 25.8591 35.2465 25.7655 35.1988 25.8334C35.2318 25.8004 35.2685 25.771 35.2868 25.7417L35.2373 25.7784C35.3455 25.661 35.4244 25.6188 35.4757 25.5235L35.4244 25.5565C35.4904 25.4868 35.5436 25.4281 35.5931 25.4263L35.5326 25.5033C35.6426 25.3896 35.7086 25.3218 35.7874 25.2154L35.7544 25.2484C35.848 25.1054 36.4439 24.4617 36.5228 24.3224L36.4549 24.3554L36.532 24.2453C36.521 24.2563 36.5466 24.3499 36.532 24.3535C36.73 24.15 37.7551 23.0827 37.9531 22.9067C38.0375 22.8407 37.9953 22.9214 37.9971 22.925C38.0815 22.826 38.0173 22.8663 38.0962 22.7893C38.12 22.771 38.1072 22.8077 38.0962 22.8223C38.1273 22.7857 38.1659 22.76 38.1585 22.749C38.109 22.7857 38.1053 22.7453 38.0723 22.749L38.1732 22.65L38.1824 22.6683C38.2044 22.6463 38.1989 22.5729 38.3034 22.4813C38.4739 22.3217 38.6481 22.1347 38.815 21.9715C38.8205 21.9825 38.7912 22.0228 38.7618 22.0632C38.7838 22.0411 38.8168 22.0045 38.8425 21.9898C38.7875 22.0155 38.9012 21.9091 38.8645 21.9348C38.9507 21.7771 39.1396 21.6506 39.2221 21.5185C39.2001 21.4782 38.9049 20.7465 38.8664 20.7098C38.8994 20.6768 38.9342 20.6438 38.947 20.6365C38.9287 20.6365 38.8608 20.6988 38.8315 20.7392L38.8462 20.7648C38.7728 20.8529 38.815 20.7722 38.7398 20.8529C38.7196 20.84 38.7875 20.7648 38.848 20.6988C38.7893 20.7538 38.7215 20.7997 38.716 20.8419C38.6555 20.8895 38.7013 20.8162 38.6298 20.8749C38.5895 20.9262 38.5454 21.0032 38.4831 21.0472V21.0436C38.3364 21.1554 38.3107 21.2673 38.1769 21.3682L38.1842 21.3498C38.1328 21.3828 38.065 21.4763 37.9806 21.5424C38.0045 21.524 38.0357 21.5167 37.9935 21.5644C37.8981 21.6414 37.8486 21.7111 37.7734 21.7606L37.7294 21.8376C37.4287 22.1365 36.2734 23.3523 35.9763 23.6585L35.9855 23.6439C35.5381 24.1133 34.5992 25.0614 34.1499 25.562C34.0619 25.6207 33.9647 25.7252 33.884 25.7985C33.9335 25.7619 33.9298 25.7875 33.8968 25.8206C33.6639 26.0534 33.8913 25.8481 33.6639 26.092C33.409 26.3799 32.3583 27.4104 32.1052 27.6397C32.0007 27.7937 31.821 27.9386 31.711 28.0816L31.7183 28.0633C31.5918 28.21 30.8032 28.9655 30.6547 29.1323L30.6786 29.114C30.5557 29.268 30.5484 29.224 30.4328 29.3249C30.4732 29.3359 30.3705 29.4698 30.3283 29.5174L30.3246 29.5101C30.2623 29.5835 30.1303 29.7613 30.0221 29.8769L30.0111 29.8585C29.934 29.9685 29.7525 30.1391 29.6865 30.2088C29.5269 30.3573 29.2665 30.5719 29.0795 30.7992L28.9053 30.8928L28.8906 30.9166C28.8906 30.9166 29.1749 31.6244 29.5526 31.4539L29.5636 31.4722L29.615 31.4154C29.6865 31.3567 29.6993 31.3109 29.7085 31.3292L29.6186 31.4172C29.6865 31.3567 29.6498 31.4099 29.6333 31.4429C29.6608 31.4172 29.6902 31.3916 29.7158 31.3751C29.7232 31.3567 29.7012 31.3787 29.6865 31.3861C29.7158 31.3457 29.7507 31.2834 29.8002 31.2467C29.868 31.1807 29.8277 31.265 29.9065 31.1898C30.3246 30.7901 30.7336 30.4068 31.1425 29.9869C31.1572 29.9832 31.1462 29.9942 31.137 30.0089C31.2544 29.8769 31.3662 29.7687 31.4726 29.6476C31.5111 29.622 31.5276 29.622 31.5423 29.6183C31.5111 29.6256 32.1511 28.9746 32.1639 28.9673L32.1621 28.971Z" fill="#24363F"/>
<path d="M40.0953 37.9039C40.0844 37.8711 40.0443 37.842 40.0098 37.8147C40.0261 37.8511 40.0534 37.8802 40.0953 37.9039Z" fill="#5FC8FF"/>
<path d="M40.0098 37.8127L40.0115 37.8145L40.0098 37.8127Z" fill="#5FC8FF"/>
<path d="M43.2346 33.3807C43.211 33.3807 43.1855 33.3789 43.1582 33.3789C43.1837 33.3789 43.2055 33.3789 43.2346 33.3807Z" fill="#5FC8FF"/>
<path d="M39.4392 37.2834L39.4007 37.2467C39.4099 37.2467 39.4447 37.2871 39.4392 37.2779C39.4025 37.2266 39.4502 37.2834 39.4374 37.2559C39.4374 37.2596 39.4429 37.2614 39.4484 37.2779C39.4392 37.2504 39.4484 37.2706 39.4484 37.2651C39.4484 37.2577 39.4465 37.2559 39.4429 37.2486C39.4429 37.2449 39.4465 37.2412 39.4484 37.2394C39.452 37.2486 39.452 37.2651 39.452 37.2687H39.4539C39.4539 37.2687 39.4539 37.2724 39.4575 37.2724C39.4667 37.2724 39.4759 37.2724 39.4869 37.2742C39.5272 37.2779 39.5767 37.2816 39.6318 37.2852C39.7454 37.2944 39.8811 37.3054 40.015 37.3182C40.2919 37.3421 40.5927 37.3531 40.7063 37.3421C40.677 37.3219 40.6092 37.3366 40.5835 37.3017C40.6422 37.2834 40.6697 37.3072 40.6953 37.2889C40.7173 37.3402 40.8255 37.2981 40.8714 37.3457L40.8879 37.3164L40.9191 37.3329C41.1134 37.3036 41.1373 37.2999 41.1538 37.2962C41.1721 37.2907 41.1905 37.3072 41.3848 37.2577C41.5554 37.199 41.6214 37.1165 41.6911 37.0578C41.7094 37.0413 41.7259 37.0212 41.7443 37.0047C41.7314 37.0175 41.6911 37.0432 41.7204 36.9955C41.7461 37.0047 41.8084 36.8781 41.8359 36.8671C41.869 36.8231 41.9331 36.6599 41.8818 36.7003C41.9056 36.6819 41.9551 36.5334 41.9441 36.6269C41.9625 36.5774 41.9661 36.5242 41.9661 36.4857L41.9478 36.5517C41.9698 36.3757 41.9771 36.2693 41.9276 36.1501C41.9276 36.174 41.9276 36.196 41.924 36.218C41.9075 36.1135 41.8818 36.0089 41.913 35.9924L41.9258 36.0254L41.9423 36.0823C41.9386 36.0603 41.9331 36.0383 41.9295 36.0181C41.9258 36.0071 41.924 35.9961 41.9221 35.9851C41.9166 35.9649 41.9111 35.9466 41.9075 35.9282C41.8965 35.8934 41.8855 35.8641 41.8708 35.8347L41.8745 35.8586C41.8616 35.8421 41.8414 35.7742 41.8341 35.7724C41.8249 35.7577 41.8158 35.7357 41.8158 35.7119C41.8158 35.6715 41.8396 35.6367 41.8433 35.6147C41.8341 35.6092 41.8249 35.6037 41.8158 35.6C41.8213 35.589 41.8268 35.578 41.8341 35.567C41.8286 35.5688 41.8616 35.6477 41.8561 35.6403C41.8635 35.6367 41.8745 35.6293 41.8891 35.6238C41.9075 35.6165 41.9606 35.6037 42.012 35.5963C42.0413 35.5927 42.0743 35.589 42.1147 35.5872C42.1844 35.5835 42.254 35.5798 42.3256 35.5762C42.4741 35.5652 42.6153 35.5395 42.7345 35.4973C42.8775 35.4441 42.9857 35.3726 43.0591 35.2919C43.1343 35.2112 43.1654 35.1232 43.1764 35.0829C43.2058 34.9985 43.2204 35.081 43.2223 35.0829C43.2278 34.971 43.2039 35.026 43.2058 34.9417C43.2094 34.9197 43.2278 34.9527 43.2314 34.9655C43.2278 34.9288 43.2314 34.8958 43.2186 34.8903C43.2131 34.9343 43.1764 34.9068 43.1563 34.9197C43.1526 34.8867 43.1471 34.8518 43.1379 34.8133L43.1636 34.8225C43.1563 34.795 43.0884 34.7491 43.0371 34.6116C43.0242 34.5823 43.0096 34.5511 42.9912 34.5217C42.9839 34.5089 42.9729 34.4906 42.9637 34.4741V34.4631C42.9601 34.4484 42.96 34.4337 42.9619 34.419C42.9619 34.3897 42.9711 34.3622 42.9839 34.3439C42.9949 34.3512 42.9967 34.3604 43.0004 34.3714C43.0022 34.3659 43.0041 34.3585 43.0132 34.3585C42.9894 34.3567 43.0077 34.3384 42.9967 34.3402C42.9729 34.2833 43.0499 34.276 43.0719 34.2357C43.0646 34.2155 43.0169 34.0248 43.0444 33.8231C43.0646 33.6214 43.1654 33.4251 43.1673 33.3995C43.2259 33.3995 43.2865 33.4105 43.303 33.4178C43.2901 33.4013 43.1709 33.383 43.1104 33.3958L43.1013 33.4251C42.9674 33.4471 43.0664 33.4068 42.9362 33.4325C42.9234 33.4123 43.0444 33.3775 43.1599 33.3793C43.0572 33.3738 42.9545 33.3775 42.9197 33.4105C42.828 33.4251 42.9234 33.3775 42.8097 33.4013C42.7327 33.4325 42.6483 33.4967 42.564 33.5352V33.5315C42.3586 33.6415 42.3127 33.7827 42.1935 33.9569L42.1972 33.9331C42.1477 33.9954 42.1092 34.1421 42.078 34.2705C42.089 34.2338 42.111 34.2045 42.1 34.2833C42.0652 34.4319 42.089 34.5327 42.0908 34.6446C42.0945 34.6574 42.0963 34.6519 42.0982 34.6501C42.0982 34.6464 42.1018 34.6483 42.1037 34.6483H42.1147C42.1147 34.6483 42.1202 34.6574 42.1275 34.6684C42.1349 34.6813 42.1238 34.6923 42.1147 34.6978C42.1092 34.7014 42.1018 34.7033 42.0945 34.7051L42.0835 34.7088C42.045 34.7124 42.0102 34.7143 41.9753 34.7179C41.8873 34.7253 41.7919 34.7418 41.7149 34.762C41.6434 34.7803 41.5444 34.8133 41.493 34.8371L41.5095 34.8261C41.3262 34.9032 41.1043 35.0572 40.9869 35.3158C40.9539 35.4038 40.9264 35.4955 40.9136 35.5945C40.9026 35.6917 40.9044 35.798 40.9172 35.8934C40.9282 35.9759 40.9411 36.0383 40.9557 36.1006L40.9759 36.185L40.9851 36.2235C40.9869 36.2345 40.9869 36.229 40.9887 36.2345C41.0016 36.2638 41.0071 36.3042 40.9887 36.3298C40.9851 36.3335 40.9832 36.3353 40.9814 36.339C40.9557 36.3243 40.9466 36.3317 40.9337 36.3262C40.9429 36.3353 40.9466 36.35 40.9411 36.35C40.9209 36.35 40.9227 36.3537 40.9209 36.3592C40.9209 36.3628 40.9246 36.3647 40.9154 36.3683C40.9026 36.372 40.8787 36.3775 40.8292 36.3812C40.6128 36.427 39.7253 36.3353 39.4429 36.3115C39.2375 36.339 38.9771 36.3188 38.7992 36.361L38.8121 36.3518C38.7882 36.3555 38.7497 36.3628 38.7002 36.3683C38.6745 36.372 38.647 36.3757 38.6177 36.3793C38.5902 36.3848 38.5663 36.3959 38.537 36.405C38.4141 36.4362 38.3133 36.4985 38.2271 36.5664C38.1867 36.6012 38.1409 36.6673 38.1207 36.7333C38.1006 36.7975 38.095 36.8506 38.0987 36.902C38.1042 36.9552 38.1024 37.001 38.1152 37.0432C38.1281 37.0872 38.1391 37.1202 38.1464 37.144V37.1202C38.1739 37.1972 38.1977 37.2339 38.1996 37.2632C38.2087 37.2981 38.2069 37.3256 38.2436 37.3971C38.2748 37.3788 38.383 37.5163 38.4288 37.5676H38.4196C38.4801 37.6502 38.6635 37.8079 38.7845 37.9179L38.7644 37.9271C38.79 37.9454 38.8377 37.9821 38.8579 37.9967L38.9312 38.0554C38.9789 38.0958 39.0248 38.1343 39.0523 38.1544C39.1641 38.2553 39.3292 38.4167 39.5016 38.4992L39.5712 38.6147L39.5896 38.6202C39.5896 38.6202 40.136 38.1416 40.015 37.8849L40.0297 37.8702L39.9893 37.8464C39.9472 37.806 39.9123 37.8115 39.927 37.7969L39.9893 37.8427C39.9453 37.806 39.9838 37.8189 40.0095 37.8225C39.9912 37.8079 39.9728 37.7932 39.9618 37.7767C39.949 37.7767 39.9637 37.7877 39.9692 37.7969C39.9398 37.7859 39.894 37.7785 39.8701 37.7492C39.8243 37.7162 39.8848 37.7198 39.8335 37.6813C39.6959 37.575 39.5712 37.4686 39.4594 37.3623C39.4209 37.3237 39.4355 37.3366 39.4319 37.3292V37.3219C39.4319 37.3219 39.4264 37.3146 39.4209 37.3109C39.4319 37.3109 39.4319 37.3109 39.4374 37.3109C39.4337 37.3109 39.43 37.3109 39.4282 37.3091L39.408 37.2981C39.4209 37.2999 39.441 37.3054 39.4557 37.3091C39.4429 37.3054 39.4319 37.2999 39.4319 37.2944C39.4319 37.2907 39.4392 37.2926 39.441 37.2944L39.4392 37.2834Z" fill="#786EFF"/>
<path d="M47.473 7.02354C47.473 7.02354 47.4636 7.02022 47.459 7.01855C47.4706 7.02271 47.48 7.02603 47.4909 7.0286C47.4839 7.02611 47.4792 7.02445 47.4722 7.02196L47.473 7.02354Z" fill="#F15959"/>
<path d="M39.6816 13.1711C39.9138 13.2497 40.1785 13.3413 40.4465 13.4313C40.1899 13.344 39.9285 13.255 39.6816 13.1711Z" fill="#F15959"/>
<path d="M24.0472 5.75867C24.0404 5.57232 24.0464 5.39759 24.062 5.24023C24.062 5.41984 24.0569 5.59257 24.0472 5.75867C24.1016 7.26076 24.9812 9.5177 28.2959 9.5177C25.9249 9.5177 24.062 11.742 24.062 13.6241C24.062 12.0842 23.1299 9.74693 19.9121 9.74693C21.7668 9.74693 23.8524 9.07357 24.0472 5.75867Z" fill="#643BAF"/>
<defs>
<linearGradient id="paint0_linear_3838_34387" x1="29.3836" y1="49.2713" x2="24.1178" y2="2.72863" gradientUnits="userSpaceOnUse">
<stop stop-color="#CD96ED"/>
<stop offset="1" stop-color="#FFD1E3"/>
</linearGradient>
</defs>
</svg>
