<svg xmlns="http://www.w3.org/2000/svg" width="16" height="16" viewBox="0 0 16 16">
    <g fill="none" fill-rule="evenodd">
        <g fill="#3C80EF" fill-rule="nonzero">
            <g>
                <g>
                    <g>
                        <path d="M14 0c1.105 0 2 .895 2 2v12c0 1.105-.895 2-2 2H2c-1.105 0-2-.895-2-2V2C0 .895.895 0 2 0h12zm-2.75 7h-6.5c-.414 0-.75.336-.75.75s.336.75.75.75h6.5c.414 0 .75-.336.75-.75S11.664 7 11.25 7z" transform="translate(-1894 -712) translate(1565 308) translate(329 392) translate(0 12)"/>
                    </g>
                </g>
            </g>
        </g>
    </g>
</svg>
