<?xml version="1.0" encoding="utf-8"?>
<!-- Generator: Adobe Illustrator 23.0.2, SVG Export Plug-In . SVG Version: 6.00 Build 0)  -->
<svg version="1.1" id="Layer_1" xmlns="http://www.w3.org/2000/svg" xmlns:xlink="http://www.w3.org/1999/xlink" x="0px" y="0px"
	 viewBox="0 0 65 32" style="enable-background:new 0 0 65 32;" xml:space="preserve">
<style type="text/css">
	.st0{fill:#3C80EF;}
</style>
<g>
	<g transform="translate(-858.000000, -454.000000)">
		<g id="Group" transform="translate(829.000000, 408.000000)">
			<g id="infinite-mathematical-symbol" transform="translate(29.000000, 46.000000)">
				<path id="Path" class="st0" d="M50.1,0.3c-9.2,0-15.3,7.5-20.7,14.2c-4.6,5.7-8.9,11-14.2,11c-5.5,0-8.9-5.6-8.9-9.7
					c0-3.8,3.7-9.2,9.5-9.2c5.6,0,8.6,4.5,8.7,4.7c0.9,1.5,2.8,1.9,4.3,1c1.5-0.9,2-2.9,1.1-4.3c-0.2-0.3-4.8-7.7-14.1-7.7
					C6.5,0.3,0,8.5,0,15.8c0,7.6,6.2,16,15.2,16c8.3,0,13.8-6.8,19.1-13.4c4.9-6.1,9.6-11.8,15.8-11.8c3.7,0,6.1,1.3,7.4,3.8
					c1.1,2.2,1.1,4.8,1.1,5.6c0,0.5-0.3,3-1.5,5.3c-1.4,2.6-3.4,3.8-6.3,3.8c-5.8,0-8.9-3.8-10.1-5.2c-0.3-0.4-0.5-0.6-0.8-0.9
					c-1.3-1.1-3.3-1-4.5,0.3c-1.1,1.3-1,3.2,0.2,4.3c0.1,0.1,0.1,0.2,0.2,0.2c1.5,1.8,6.2,7.5,14.9,7.5C61.5,31.4,65,21.1,65,16
					c0-3.2-0.6-6.1-1.8-8.4C61.5,4.2,57.9,0.3,50.1,0.3z"/>
			</g>
		</g>
	</g>
</g>
</svg>
