<svg width="64" height="64" viewBox="0 0 64 64" fill="none" xmlns="http://www.w3.org/2000/svg">
<path fill-rule="evenodd" clip-rule="evenodd" d="M64 32C64 49.673 49.673 64 32 64C14.3269 64 0 49.673 0 32C0 14.3269 14.3269 0 32 0C49.673 0 64 14.3269 64 32ZM32.0003 28.8003C33.7677 28.8003 35.2003 30.233 35.2003 32.0003V48.0032C35.2003 49.7706 33.7677 51.2032 32.0003 51.2032C30.233 51.2032 28.8003 49.7706 28.8003 48.0032V32.0003C28.8003 30.233 30.233 28.8003 32.0003 28.8003ZM32.0003 22.4C33.7677 22.4 35.2003 20.9673 35.2003 19.2C35.2003 17.4327 33.7677 16 32.0003 16C30.233 16 28.8003 17.4327 28.8003 19.2C28.8003 20.9673 30.233 22.4 32.0003 22.4Z" fill="#5346D8"/>
</svg>
