<svg width="40" height="40" viewBox="0 0 40 40" fill="none" xmlns="http://www.w3.org/2000/svg">
  <g id="d8e474204dbfd71b76103dd54d69229d">
    <ellipse id="399e371584a46ee5ffc26110d47170e6" cx="20" cy="20" rx="20" ry="20" fill="#F2385A"></ellipse>
    <path id="2e299221ce46fdfd5087f4d78dfc51f0" fill-rule="evenodd" clip-rule="evenodd" d="M16.1739 12.75C14.2829 12.75 12.75 14.2829 12.75 16.1739V23.8261C12.75 25.7171 14.2829 27.25 16.1739 27.25H23.8261C25.7171 27.25 27.25 25.7171 27.25 23.8261V16.1739C27.25 14.2829 25.7171 12.75 23.8261 12.75H16.1739ZM11.25 16.1739C11.25 13.4545 13.4545 11.25 16.1739 11.25H23.8261C26.5455 11.25 28.75 13.4545 28.75 16.1739V23.8261C28.75 26.5455 26.5455 28.75 23.8261 28.75H16.1739C13.4545 28.75 11.25 26.5455 11.25 23.8261V16.1739ZM20 17.75C18.7574 17.75 17.75 18.7574 17.75 20C17.75 21.2426 18.7574 22.25 20 22.25C21.2426 22.25 22.25 21.2426 22.25 20C22.25 18.7574 21.2426 17.75 20 17.75ZM16.25 20C16.25 17.9289 17.9289 16.25 20 16.25C22.0711 16.25 23.75 17.9289 23.75 20C23.75 22.0711 22.0711 23.75 20 23.75C17.9289 23.75 16.25 22.0711 16.25 20ZM25 16C25 16.5523 24.5523 17 24 17C23.4477 17 23 16.5523 23 16C23 15.4477 23.4477 15 24 15C24.5523 15 25 15.4477 25 16Z" fill="white"></path>
  </g>
</svg>