<svg width="42" height="42" viewBox="0 0 42 42" fill="none" xmlns="http://www.w3.org/2000/svg">
<circle cx="21" cy="21" r="20" fill="#DAE4EC" stroke="white" stroke-width="2"/>
<path d="M29.6604 28.6996C28.4165 26.4502 26.4246 24.7631 24.0676 23.9627C25.1968 23.2572 26.0742 22.1821 26.565 20.9024C27.0558 19.6226 27.1329 18.2091 26.7845 16.8789C26.4361 15.5487 25.6815 14.3754 24.6364 13.5391C23.5914 12.7029 22.3138 12.25 20.9999 12.25C19.686 12.25 18.4084 12.7029 17.3634 13.5391C16.3184 14.3754 15.5637 15.5487 15.2153 16.8789C14.8669 18.2091 14.9441 19.6226 15.4349 20.9024C15.9257 22.1821 16.8031 23.2572 17.9322 23.9627C15.5753 24.7631 13.5835 26.4501 12.3396 28.6994C12.281 28.8058 12.2501 28.9265 12.25 29.0494C12.2499 29.1723 12.2807 29.2931 12.3391 29.3996C12.3976 29.5061 12.4818 29.5945 12.5832 29.656C12.6845 29.7175 12.7995 29.7498 12.9166 29.7498L29.0834 29.75C29.2005 29.75 29.3155 29.7176 29.4168 29.6562C29.5182 29.5947 29.6024 29.5063 29.6609 29.3998C29.7193 29.2933 29.7501 29.1725 29.75 29.0496C29.7499 28.9267 29.719 28.806 29.6604 28.6996L29.6604 28.6996Z" fill="#618298"/>
</svg>
