<svg xmlns="http://www.w3.org/2000/svg" xmlns:xlink="http://www.w3.org/1999/xlink" width="240" height="522" viewBox="0 0 240 522">
    <defs>
        <linearGradient id="x2nq4gwhzb" x1="50.498%" x2="49.73%" y1="77.543%" y2="-2.014%">
            <stop offset="0%" stop-color="#CFDDF3"/>
            <stop offset="36%" stop-color="#CCDBF2"/>
            <stop offset="100%" stop-color="#A1B8E3"/>
        </linearGradient>
        <linearGradient id="7vav38t8gc" x1="61.085%" x2="19.054%" y1="117.164%" y2="-168.856%">
            <stop offset="0%" stop-color="#CFDDF3"/>
            <stop offset="6%" stop-color="#CCDBF2"/>
            <stop offset="18%" stop-color="#CFDDF3"/>
            <stop offset="100%" stop-color="#A1B8E3"/>
        </linearGradient>
        <linearGradient id="5vqihqkcgd" x1="90.209%" x2="-20.769%" y1="102.847%" y2="-21.314%">
            <stop offset="0%" stop-color="#CFDDF3"/>
            <stop offset="36%" stop-color="#CCDBF2"/>
            <stop offset="100%" stop-color="#A1B8E3"/>
        </linearGradient>
        <linearGradient id="bjozowa96e" x1="69.348%" x2="32.355%" y1="33.093%" y2="53.456%">
            <stop offset="0%" stop-color="#FF9D61"/>
            <stop offset="100%" stop-color="#FFD873"/>
        </linearGradient>
        <linearGradient id="f4v07mfvtg" x1="58.215%" x2="-25.511%" y1="22.423%" y2="297.105%">
            <stop offset="0%" stop-color="#F7FAFF"/>
            <stop offset="100%" stop-color="#6B9AD9"/>
        </linearGradient>
        <linearGradient id="ojt3b9awoh" x1="50%" x2="-33.859%" y1="25.136%" y2="175.247%">
            <stop offset="0%" stop-color="#EEF3FF"/>
            <stop offset="100%" stop-color="#6B9AD9"/>
        </linearGradient>
        <linearGradient id="22g1750dfj" x1="34.723%" x2="64.047%" y1="110.865%" y2="23.826%">
            <stop offset="0%" stop-color="#FF9292"/>
            <stop offset="100%" stop-color="#FFB59D"/>
        </linearGradient>
        <linearGradient id="whiztmhcsl" x1="50%" x2="33.402%" y1="31.078%" y2="68.922%">
            <stop offset="0%" stop-color="#2762C3"/>
            <stop offset="100%" stop-color="#123A8E"/>
        </linearGradient>
        <linearGradient id="nkzb298bhn" x1="54.099%" x2="50.795%" y1="0%" y2="50%">
            <stop offset="0%" stop-color="#3485F7"/>
            <stop offset="100%" stop-color="#1A57CF"/>
        </linearGradient>
        <linearGradient id="o0n5qaq4yp" x1="89.265%" x2="79.854%" y1="53.833%" y2="47.194%">
            <stop offset="0%" stop-opacity=".478"/>
            <stop offset="100%" stop-color="#A1B8E3"/>
        </linearGradient>
        <linearGradient id="380q7uxx2r" x1="31.48%" x2="67.028%" y1="110.865%" y2="23.826%">
            <stop offset="0%" stop-color="#FF9292"/>
            <stop offset="100%" stop-color="#FFB59D"/>
        </linearGradient>
        <linearGradient id="crquyqbrmt" x1="68.934%" x2="25.644%" y1="109.304%" y2="-47.176%">
            <stop offset="0%" stop-color="#032258"/>
            <stop offset="100%" stop-color="#133E94"/>
        </linearGradient>
        <linearGradient id="5ixow7ebfu" x1="50%" x2="50%" y1="-10.877%" y2="100%">
            <stop offset="0%" stop-color="#FFE579"/>
            <stop offset="100%" stop-color="#FEB755"/>
        </linearGradient>
        <linearGradient id="j0jo4r4wdw" x1="50%" x2="50%" y1="-10.877%" y2="100%">
            <stop offset="0%" stop-color="#FFE579"/>
            <stop offset="100%" stop-color="#FEB755"/>
        </linearGradient>
        <linearGradient id="ria000jcbx" x1="49.043%" x2="53.168%" y1="57.782%" y2="23.718%">
            <stop offset="0%" stop-color="#E65900" stop-opacity=".017"/>
            <stop offset="100%" stop-color="#F9705F"/>
        </linearGradient>
        <linearGradient id="f9iffmd82z" x1="89.062%" x2="50%" y1="51.041%" y2="48.959%">
            <stop offset="0%" stop-color="#E65900" stop-opacity=".017"/>
            <stop offset="100%" stop-color="#F9705F"/>
        </linearGradient>
        <linearGradient id="8l0530sxqA" x1="-9.901%" x2="65.717%" y1="50%" y2="58.869%">
            <stop offset="0%" stop-color="#FFF2F2"/>
            <stop offset="100%" stop-color="#FFC798"/>
        </linearGradient>
        <linearGradient id="5jhc6bgnvC" x1="25.696%" x2="72.346%" y1="110.865%" y2="23.826%">
            <stop offset="0%" stop-color="#FF9292"/>
            <stop offset="100%" stop-color="#FFB59D"/>
        </linearGradient>
        <linearGradient id="46pln2ektE" x1="50%" x2="50%" y1="-10.877%" y2="100%">
            <stop offset="0%" stop-color="#FFE579"/>
            <stop offset="100%" stop-color="#FEB755"/>
        </linearGradient>
        <linearGradient id="cuc3kf548F" x1="42.643%" x2="67.286%" y1="41.979%" y2="65.87%">
            <stop offset="0%" stop-color="#84F0A8"/>
            <stop offset="100%" stop-color="#48B676"/>
        </linearGradient>
        <linearGradient id="hg713h6ydG" x1="85.097%" x2="4.854%" y1="107.069%" y2="-43.514%">
            <stop offset="0%" stop-color="#032258"/>
            <stop offset="100%" stop-color="#133E94"/>
        </linearGradient>
        <linearGradient id="bdalrr5itH" x1="69.466%" x2="69.466%" y1="75.602%" y2="14.038%">
            <stop offset="0%" stop-color="#F4AF92"/>
            <stop offset="100%" stop-color="#EC906C"/>
        </linearGradient>
        <linearGradient id="htfcut8ogI" x1="50%" x2="64.411%" y1="32.119%" y2="115.978%">
            <stop offset="0%" stop-color="#84F0A8"/>
            <stop offset="100%" stop-color="#48B676"/>
        </linearGradient>
        <linearGradient id="b7hr9v484J" x1="85.097%" x2="4.854%" y1="85.743%" y2="-8.568%">
            <stop offset="0%" stop-color="#032258"/>
            <stop offset="100%" stop-color="#133E94"/>
        </linearGradient>
        <linearGradient id="r2rbf6267K" x1="-5.315%" x2="29.649%" y1="-45.101%" y2="90.376%">
            <stop offset="0%" stop-color="#FAD0BA"/>
            <stop offset="100%" stop-color="#F2A384"/>
        </linearGradient>
        <linearGradient id="46grurt0aL" x1="70.81%" x2="23.232%" y1="109.304%" y2="-47.176%">
            <stop offset="0%" stop-color="#032258"/>
            <stop offset="100%" stop-color="#133E94"/>
        </linearGradient>
        <linearGradient id="9uzv11uh0M" x1="85.097%" x2="4.854%" y1="81.602%" y2="-1.782%">
            <stop offset="0%" stop-color="#032258"/>
            <stop offset="100%" stop-color="#133E94"/>
        </linearGradient>
        <linearGradient id="ekzb0xxe0N" x1="-8.771%" x2="17.311%" y1="92.341%" y2="25.471%">
            <stop offset="0%" stop-color="#FAD0BA"/>
            <stop offset="100%" stop-color="#F2A384"/>
        </linearGradient>
        <linearGradient id="gaa41pycpO" x1="100%" x2="0%" y1="50%" y2="50%">
            <stop offset="0%" stop-color="#2865C6"/>
            <stop offset="100%" stop-color="#10378A"/>
        </linearGradient>
        <linearGradient id="3ixscyserP" x1="52.702%" x2="50.524%" y1="0%" y2="50%">
            <stop offset="0%" stop-color="#3485F7"/>
            <stop offset="100%" stop-color="#1A57CF"/>
        </linearGradient>
        <linearGradient id="yveqsgl4pQ" x1="50%" x2="51.397%" y1="27.773%" y2="103.623%">
            <stop offset="0%" stop-color="#1542AB"/>
            <stop offset="100%" stop-color="#2B68EE"/>
        </linearGradient>
        <linearGradient id="4ql1b5q3qR" x1="54.62%" x2="50%" y1="0%" y2="100%">
            <stop offset="0%" stop-color="#FFF"/>
            <stop offset="100%" stop-color="#E5EEFF"/>
        </linearGradient>
        <linearGradient id="b91p6nh32T" x1="49.55%" x2="51.056%" y1="16.652%" y2="115.978%">
            <stop offset="0%" stop-color="#84F0A8"/>
            <stop offset="100%" stop-color="#48B676"/>
        </linearGradient>
        <linearGradient id="pv2499fhgV" x1="48.101%" x2="54.463%" y1="16.652%" y2="115.978%">
            <stop offset="0%" stop-color="#84F0A8"/>
            <stop offset="100%" stop-color="#48B676"/>
        </linearGradient>
        <linearGradient id="lfedksh75X" x1="48.127%" x2="54.401%" y1="16.652%" y2="115.978%">
            <stop offset="0%" stop-color="#84F0A8"/>
            <stop offset="100%" stop-color="#48B676"/>
        </linearGradient>
        <linearGradient id="rpefrd1z5Z" x1="62.706%" x2="39.604%" y1="57.551%" y2="48.706%">
            <stop offset="0%" stop-color="#FF9D61"/>
            <stop offset="100%" stop-color="#FFD873"/>
        </linearGradient>
        <linearGradient id="9iwg85bcqaa" x1="53.55%" x2="-15.837%" y1="48.523%" y2="-5.764%">
            <stop offset="0%" stop-color="#FF9D61"/>
            <stop offset="100%" stop-color="#FFD873"/>
        </linearGradient>
        <linearGradient id="icun6s0xiab" x1="140.584%" x2="25.163%" y1="6.026%" y2="122.778%">
            <stop offset="0%" stop-color="#E5EDFF"/>
            <stop offset="100%" stop-color="#6B9AD9"/>
        </linearGradient>
        <linearGradient id="3oaajc8k8ac" x1="50%" x2="-17.284%" y1="19.686%" y2="294.476%">
            <stop offset="0%" stop-color="#F7FAFF"/>
            <stop offset="100%" stop-color="#6B9AD9"/>
        </linearGradient>
        <path id="9rvbfsq4hi" d="M1.459 3.272c0 4.817-3.981 14.255 1.21 16.702 3.46 1.632 6.72-1.79 9.78-10.262C12.187 3.49 10.49.379 7.362.379 2.67.38 1.46-1.544 1.46 3.272z"/>
        <path id="5wsfpbv1xm" d="M38.958 0c6.887 24.834 10.779 40.076 11.676 45.727 1.345 8.476 4.636 37.127 4.171 41.748-2.248 2.256-6.298.905-7.003.491-.706-.413-5.052-23.986-8.844-33.13-3.792-9.145-12.324-17.562-17.947-26.762 0 3.992-1.447 11.33-4.341 22.014-4.22 18.867-7.05 29.827-8.486 32.88-1.022 1.626-6.182.434-8.184 0 0-4.291 4.316-25.977 4.316-33.505 0-7.528-1.194-21.17-1.64-26.764C2.23 17.106 1.141 6.256 2.676 0h36.282z"/>
        <path id="ldq1mb1l4q" d="M12.237 0c.907 1.774 2.13 3.038 3.666 3.791 1.537.753 2.69 1.314 3.458 1.683l-.98 3.837c1.218 3.762 1.544 6.276.98 7.545-.847 1.902-3.458 3.166-4.977 4.862-1.013 1.13-1.988 3.614-2.925 7.45H1.444l-.453-7.45C-.79 14.551-.17 9.136 2.85 5.474 5.872 1.81 9.001-.013 12.237 0z"/>
        <path id="6huevsc0gv" d="M22.654.271c4.837 1.271 8.681 3.587 11.532 6.946 4.275 5.039 3.323 20.199 4.534 29.221 1.21 9.023 6.48 15.581-1.66 20.673-8.138 5.092-31.151 3.935-33.033 0C2.772 54.487 1.43 45.113 0 28.987 0 14.474.857 6.605 2.57 5.382 4.285 4.158 7.142 2.364 11.143 0c-.09.36.83.718 2.76 1.074 1.93.357 4.847.09 8.752-.803z"/>
        <path id="wz0emux56B" d="M12.36 37.079l6.602 4.85C26.213 31.423 30.159 25.451 30.8 24.012c.96-2.157.002-5.776.003-6.981 0-1.205.715-3.864 1.752-4.645 1.037-.78 1.159-.38 1.787-.38.629 0 6.022-6.645 6.657-7.49.635-.846 1.493-1.263 2.137-.769.643.494.365 1.318-.106 1.99-.471.672-3.117 4.444-3.117 5.215 0 .77 2.586 2.41 3.253 3.088.666.677 1.61 2.595.366 4.722-1.244 2.126-5.377 5.514-5.378 6.453 0 .939-6.873 15.142-9.367 20.886-2.493 5.744-4.844 9.623-9.831 8.017-3.325-1.072-8.022-4.354-14.092-9.849 1.189-2.802 2.358-4.644 3.51-5.527 1.15-.882 2.48-1.437 3.986-1.663z"/>
        <path id="wah1v06ocS" d="M3.996 11.417C-.416 28.362-1.174 41.783 1.72 51.68 6.063 66.525-1.017 83.778.644 91.97c8.276.872 15.502 5.102 21.68 12.692 2.61-3.378 3.78-10.797 3.51-22.257-.407-17.189-4.483-18.145-5.111-25.97-.42-5.216-.42-11.708 0-19.477l-5.79-29.364C12.17 5.29 10.02 3.669 8.485 2.729 6.95 1.788 4.965.879 2.533 0l1.463 11.417z"/>
        <path id="12rp8j0ogW" d="M51.077 9.136c-2.78 6.55-4.55 10.987-5.307 13.31-1.137 3.485-1.578 6.36-1.324 8.624.763 6.79 2.885 9.014 1.047 25.255-.72 6.35-4.755 15.288-5.534 22.368-1.213 11.03 1.77 14.845 1.023 16.67-1.023 2.496-11.94.202-17.402 5.866-1.76-3.37 4.924-15.252 4.924-17.067 0-1.815.228-15.446 5.841-25.445 3.743-6.665 5.428-17.892 5.055-33.679-10.413 4.888-17.795 5.889-22.148 3.003C12.899 25.156 7.148 17.293 0 4.454 1.948 1.484 3.569 0 4.861 0 6.8 0 15.91 15.074 26.064 16.51c4.257.6 13.537-8.873 16.755-9.592 3.413-.762 6.166-.023 8.258 2.218z"/>
        <filter id="8861faxqsa">
            <feColorMatrix in="SourceGraphic" values="0 0 0 0 0.886275 0 0 0 0 0.913725 0 0 0 0 0.945098 0 0 0 1.000000 0"/>
        </filter>
        <filter id="w95p0s8osf" width="115.1%" height="115.1%" x="-7.5%" y="-7.5%" filterUnits="objectBoundingBox">
            <feOffset dy="1" in="SourceAlpha" result="shadowOffsetOuter1"/>
            <feGaussianBlur in="shadowOffsetOuter1" result="shadowBlurOuter1" stdDeviation=".5"/>
            <feColorMatrix in="shadowBlurOuter1" result="shadowMatrixOuter1" values="0 0 0 0 0.716553584 0 0 0 0 0.761905502 0 0 0 0 0.797809103 0 0 0 1 0"/>
            <feMerge>
                <feMergeNode in="shadowMatrixOuter1"/>
                <feMergeNode in="SourceGraphic"/>
            </feMerge>
        </filter>
    </defs>
    <g fill="none" fill-rule="evenodd">
        <g>
            <rect width="204" height="522" x="1" fill="#E2E9F1" opacity=".7" rx="4"/>
            <g filter="url(#8861faxqsa)">
                <path fill="#F1F4F8" fill-rule="nonzero" d="M0 0H240V521.774H0z"/>
            </g>
            <g opacity=".403">
                <path fill="url(#x2nq4gwhzb)" d="M115.074 79.922v199.36c-22.45-41.965-39.232-86.723-49.909-133.103C45.97 62.577 52.982-2.997 76.902.106c15.922 2.116 28.912 38.447 38.172 79.816z" transform="matrix(-1 0 0 1 115.952 15.625)"/>
                <path fill="url(#7vav38t8gc)" d="M115.074 247.458v53.647H92.796c-14.328-20.75-31.312-46.407-45.962-71.665-29.509-50.735-49.88-99.827-21.425-104.078 14.233-2.126 27.592 6.414 39.756 20.78 20.932 24.716 38.21 66.721 49.91 101.316z" transform="matrix(-1 0 0 1 115.952 15.625)"/>
                <path stroke="#FFF" stroke-width=".949" d="M40.249 150.06c18.9 35.6 60.28 120.009 74.825 149.717M78.933 29.738c.636 22.924 1.3 74.256 36.141 202.283" transform="matrix(-1 0 0 1 115.952 15.625)"/>
                <path fill="url(#5vqihqkcgd)" d="M104.077 301.105H56.104C28.721 283.286-2.193 258.246.123 236.745c2.106-19.66 22.914-21.823 46.72-7.305 20.078 12.22 42.3 36.293 57.234 71.665z" transform="matrix(-1 0 0 1 115.952 15.625)"/>
                <path stroke="#FFF" stroke-width=".949" d="M17.885 238.245c18.227 9.1 51.835 43.438 70.043 62.86" transform="matrix(-1 0 0 1 115.952 15.625)"/>
            </g>
            <path fill="#E7F1FF" fill-rule="nonzero" d="M461.084 622.453H-13.335v-344.45c18.956-2.005 38.056 1.936 54.814 11.309 39.434 21.96 75.082-21.724 77.558-91.517 2.145-60.523 78.156-92.654 122.514-39.437 61.181 73.421 66.466-.235 66.466-.235l9.963-7.542c46.901 125.363-170.278 65.712-18.379 180.463 54.682 41.33 64.407 73.382 62.282 120.9-2.847 62.83 53.713 87.868 99.2 97.843v72.666z"/>
            <g>
                <path fill="url(#bjozowa96e)" d="M21 13.585c-4.4 1.339-7.157 6.308-8.362 11.415-4.153-3.166-8.044-6.678-11.633-10.5-.169-.181-.413-.864-.548-1.088-.843-1.15-.27-2.308-.228-2.921C1.325 7.5 1.865 4.822 4.267 2.42 5.133 1.498 6.104.685 7.16 0 9.4.873 11.213 4.727 21 13.585z" transform="translate(82 26)"/>
                <path fill="#FF9600" d="M3.994 10.768c-.803.049-1.509.51-1.825 1.192-.317.682-.191 1.47.325 2.04-1.038-.908-1.581-2.195-1.483-3.51C1.074 9.524 1.313 5.016 9 0 2.725 4.468 1.003 7.986 3.994 10.768z" transform="translate(82 26)"/>
            </g>
            <g filter="url(#w95p0s8osf)" transform="translate(103 82)">
                <rect width="53" height="53" fill="url(#f4v07mfvtg)" fill-rule="nonzero" rx="19.6"/>
                <g fill="#ED3D48">
                    <g>
                        <path d="M11.692 19.357L7.774 12.741 15.548 0 23.393 0zM15.716 26L11.692 19.357 26.144 19.357 30 26zM4.643 18.429L9.348 26 0 26 4.573 18.429z" transform="translate(11 13)"/>
                    </g>
                </g>
            </g>
            <g fill-rule="nonzero">
                <path fill="url(#ojt3b9awoh)" d="M53 16.183L28.64 0C22.177 13.718 12.631 23.472 0 29.262L20.845 48C37.154 42.225 47.872 31.619 53 16.183z" transform="translate(82 166)"/>
                <path fill="#C5D7F3" style="mix-blend-mode:multiply" d="M11.024 28.5L9.086 29.726 24.891 42 27.257 40.811zM28.429 7.5L46.943 19.033 45.688 21 27.257 9.495zM25.4 12L43.914 23.533 42.659 25.5 24.229 13.995zM31.471 22.5L40.886 28.066 39.616 30 30.286 24.462zM22.77 16.5l6.001 4.132c-.158.35-.363.746-.617 1.191-1.159 2.035-2.794 3.81-4.79 5.199-.811.565-1.495 1.058-2.048 1.478l-6.173-4.42c.3-.164.634-.35 1.001-.56 2.573-1.467 4.67-3.538 6.076-5.997.211-.37.395-.71.55-1.023zM28.157 27l8.186 6.388c-.943 1.384-1.996 2.554-3.16 3.509-1.164.955-2.39 1.656-3.68 2.103L21.2 32.735c1.75-1.018 3.131-1.948 4.144-2.791 1.013-.843 1.95-1.825 2.813-2.944z" opacity=".517" transform="translate(82 166)"/>
            </g>
            <g>
                <g transform="matrix(-1 0 0 1 247 111) translate(.898 63.673)">
                    <mask id="m3bap7c4bk" fill="#fff">
                        <use xlink:href="#9rvbfsq4hi"/>
                    </mask>
                    <use fill="url(#22g1750dfj)" xlink:href="#9rvbfsq4hi"/>
                    <path fill="#B60808" d="M1.16 5.43c.418.847 6.123 5.332 7.066 6.392.943 1.06 1.159 3.832 1.7 3.546.362-.191.362-2.997 0-8.417C3.803 5.37.881 4.864 1.16 5.429z" style="mix-blend-mode:multiply" mask="url(#m3bap7c4bk)" opacity=".5"/>
                </g>
                <g>
                    <path fill="url(#whiztmhcsl)" d="M.288 3.51c0 2.503-.648 5.632 0 6.875.649 1.244 3.862 1.898 4.923 1.898 1.06 0 1.414-1.784 3.06-.866 1.647.917 11.032.866 11.642-2.858.61-3.723-4.148-3.723-6.264-3.723-2.116 0-4.357-1.028-7.5-3.698C3.009-1.532.29 1.006.29 3.51z" transform="matrix(-1 0 0 1 247 111) rotate(2 -4962.892 404.544)"/>
                    <g stroke="#FFF" stroke-linecap="round" stroke-width="1.409">
                        <path d="M.102 2.689C-.412 1.423 1.16.034 1.546 0" transform="matrix(-1 0 0 1 247 111) rotate(2 -4962.892 404.544) translate(10.77 4.03) matrix(-1 0 0 1 1.546 0)"/>
                        <path d="M2.638 2.567C2.508 1.072 3.578.587 4 .55" transform="matrix(-1 0 0 1 247 111) rotate(2 -4962.892 404.544) translate(10.77 4.03) matrix(-1 0 0 1 6.627 0)"/>
                    </g>
                </g>
                <g>
                    <path fill="url(#whiztmhcsl)" d="M.288 3.51c0 2.503-.648 5.632 0 6.875.649 1.244 3.862 1.898 4.923 1.898 1.06 0 1.414-1.784 3.06-.866 1.647.917 11.032.866 11.642-2.858.61-3.723-4.148-3.723-6.264-3.723-2.116 0-4.357-1.028-7.5-3.698C3.009-1.532.29 1.006.29 3.51z" transform="matrix(-1 0 0 1 247 111) rotate(-5 2076.004 -570.906)"/>
                    <g stroke="#FFF" stroke-linecap="round" stroke-width="1.409">
                        <path d="M.102 2.689C-.412 1.423 1.16.034 1.546 0" transform="matrix(-1 0 0 1 247 111) rotate(-5 2076.004 -570.906) translate(10.77 4.03) matrix(-1 0 0 1 1.546 0)"/>
                        <path d="M2.638 2.567C2.508 1.072 3.578.587 4 .55" transform="matrix(-1 0 0 1 247 111) rotate(-5 2076.004 -570.906) translate(10.77 4.03) matrix(-1 0 0 1 6.627 0)"/>
                    </g>
                </g>
                <g transform="matrix(-1 0 0 1 247 111) translate(10.813 92.685)">
                    <mask id="9t5yl71wao" fill="#fff">
                        <use xlink:href="#5wsfpbv1xm"/>
                    </mask>
                    <use fill="url(#nkzb298bhn)" xlink:href="#5wsfpbv1xm"/>
                    <path fill="#A1B8E3" d="M15.563 54.438c0-3.646 1.909-33.44 2.347-32.217.293.815 1.577 3.423 3.854 7.825-4.134 18.692-6.201 26.823-6.201 24.392z" style="mix-blend-mode:multiply" mask="url(#9t5yl71wao)" opacity=".5"/>
                    <path stroke="#3D82F0" stroke-linecap="round" stroke-width="1.409" d="M18.014 22.237c.534 2.207 2.593 5.274 3.543 7.102" mask="url(#9t5yl71wao)"/>
                    <path fill="url(#o0n5qaq4yp)" d="M5.067 6.223c2.415 1.279 11.871 6.72 24.056 4.539 6.02-1.077 9.894-2.487 11.631-4.539 0-1.01-1.46-5.26-1.868-6.886C38.478-2.29 2.11 4.658 5.066 6.223z" style="mix-blend-mode:multiply" mask="url(#9t5yl71wao)" opacity=".5"/>
                </g>
                <g transform="matrix(-1 0 0 1 247 111) translate(19.906 13.681)">
                    <mask id="yvisboyugs" fill="#fff">
                        <use xlink:href="#ldq1mb1l4q"/>
                    </mask>
                    <use fill="url(#380q7uxx2r)" xlink:href="#ldq1mb1l4q"/>
                    <path fill="#B60808" d="M15.632 20.705c-2.528 0-6.472-2.26-7.231-3.031-.76-.772 6.32 7.579 5.73 8.91-.467 1.048-2.131 1.37-1.082 1.37 3.786 0 5.111-7.249 2.583-7.249z" style="mix-blend-mode:multiply" mask="url(#yvisboyugs)" opacity=".5"/>
                </g>
                <path fill="url(#crquyqbrmt)" d="M19.344 34.61c-9-8.415-16.126-15.597-9.98-25.605C15.51-1.002 29.81-4.367 32.483 7.8c0 3.48-1.284 6.149-3.852 8.008-.48.978-.088 1.986 1.18 3.023 1.266 1.038 1.266 1.986 0 2.843-2.502-1.61-4.08-1.343-4.732.8-.98 3.216 2.636 4.367 2.636 5.171.831 1.972.39 3.86-1.326 5.663-.878.87-3.226 1.304-7.045 1.304z" transform="matrix(-1 0 0 1 247 111)"/>
                <path fill="url(#5ixow7ebfu)" d="M11.14 45.206C4.577 56.322.898 63.104.106 65.55c-.792 2.446 2.887 4.376 11.036 5.79l5.1-20.974-5.1-5.16z" transform="matrix(-1 0 0 1 247 111)"/>
                <g transform="matrix(-1 0 0 1 247 111) translate(8.57 39.727)">
                    <mask id="bxafbfmhey" fill="#fff">
                        <use xlink:href="#6huevsc0gv"/>
                    </mask>
                    <use fill="url(#j0jo4r4wdw)" xlink:href="#6huevsc0gv"/>
                    <path fill="url(#ria000jcbx)" d="M28.68 17.493c2.61 12.145 4.7 19.357 6.27 21.633 2.355 3.415 3.886 13.749 5.771 14.98 1.885 1.233 4.593-12.863 3.24-17.69-.903-3.217-3.39-8.766-7.458-16.647l-7.822-2.276z" mask="url(#bxafbfmhey)" opacity=".5"/>
                    <path fill="url(#f9iffmd82z)" d="M12.865 1.248c1.742 1.15 6.281 1.773 10.096 1.773 3.815 0 5.008.04 6.834-.513 1.825-.553 1.117-1.26 0-1.26-1.118 0-4.585-.811-6.45-.811-1.866 0-12.221-.34-10.48.811z" mask="url(#bxafbfmhey)" opacity=".5"/>
                </g>
                <path fill="url(#8l0530sxqA)" d="M19.997 40.1c-.15-1.894-.225-3.146-.225-3.757 0-.916 7.517.378 12.927.891.587 2.285.483 2.436.483 2.865 0 .215-1.35 2.053-8.62 1.457-1.768-.145-3.29-.63-4.565-1.457z" transform="matrix(-1 0 0 1 247 111)"/>
                <g>
                    <path fill="#DD765A" d="M14.085 44.275c3.974.005 9.467-1.433 9.464-3.307-.002-1.874-4.523-2.524-8.497-2.529-3.974-.004-5.712 1.867-6.201 3.169.243 1.108 1.26 2.662 5.234 2.667z" transform="matrix(-1 0 0 1 247 111) rotate(-26 72.959 -35.275) rotate(-40 16.2 41.357)"/>
                    <g transform="matrix(-1 0 0 1 247 111) rotate(-26 72.959 -35.275) translate(8.554)">
                        <mask id="k4i29y5xeD" fill="#fff">
                            <use xlink:href="#wz0emux56B"/>
                        </mask>
                        <use fill="url(#5jhc6bgnvC)" transform="rotate(12 24.502 29.01)" xlink:href="#wz0emux56B"/>
                        <path fill="#B60808" d="M12.821 36.212c-3.712 5.153-5.67 8.703-5.874 10.651-.204 1.949-1.393.95-3.567-2.998 1.242-2.378 2.385-3.99 3.43-4.837 1.045-.847 3.049-1.786 6.011-2.816z" style="mix-blend-mode:multiply" mask="url(#k4i29y5xeD)" opacity=".5"/>
                        <path stroke="#622222" stroke-linecap="round" stroke-width="1.409" d="M16.351 40.225c.298.363.892.99 1.104 2.209" mask="url(#k4i29y5xeD)"/>
                    </g>
                    <path fill="url(#46pln2ektE)" d="M10.683 46.219c2.641-3.46 6.327-8.196 10.945-9.857-8.664-10.057-11.303-13.412-14.033-16.56-2.73-3.148-10.602 5.006-6.37 13.027 4.234 8.021 8.021 11.693 9.458 13.39z" transform="matrix(-1 0 0 1 247 111) rotate(-26 72.959 -35.275)"/>
                </g>
            </g>
            <g>
                <path fill="url(#cuc3kf548F)" fill-rule="nonzero" d="M32.676 151.238c3.384 5.095 19.823 8.008 49.318 8.742h14.227l-9.048-19.494-26.101-12c-22.315 10.074-31.78 17.658-28.396 22.752z" transform="matrix(-1 0 0 1 108 92.034)"/>
                <g transform="matrix(-1 0 0 1 108 92.034) scale(-1 1) rotate(-15 37.364 545.342)">
                    <path fill="#F2A384" fill-rule="nonzero" d="M71.318 40.59c-3.124 1.69-3.888 4.835-2.294 9.439 2.391 6.904 1.855 11.02-2.986 9.101-3.228-1.28-7.644-6.054-13.25-14.325 2.963-.488 5.102-1.386 6.418-2.692 1.316-1.306 2.008-3.218 2.076-5.736l3.495-6.406 4.988-4.132 1.553 14.752z"/>
                    <path fill="url(#hg713h6ydG)" fill-rule="nonzero" d="M94.264 31.197c-1.253-9.69-4.815-14.884-10.685-15.58-8.805-1.043-13.681 11.427-17.408 12.576-3.726 1.149-17.14 3.353-22.693 7.019-5.553 3.666-3.99 11.772-10.251 12.092-6.261.32-26.277 4.686-14.89 29.247 7.11 15.335 32.952 23.67 36.667 9.817 4.247-15.841 11.278-6.246 17.962-12.17 6.684-5.923 1.667-11.048 4.067-15.165 2.4-4.118 5.538.32 10.93-4.338 5.775-4.99 4.62-8.432 4.896-13.858.183-3.617.651-6.83 1.405-9.64z" transform="rotate(-34 54.581 54.484)"/>
                    <path fill="url(#bdalrr5itH)" d="M71.376 42.27c-2.983.614-3.678 3.213-2.086 7.797 2.39 6.877 1.854 10.977-2.983 9.065-3.224-1.274-7.636-6.03-13.236-14.266 2.96-.487 5.097-1.38 6.411-2.682 1.315-1.3 2.007-3.205 2.075-5.712l11.365.018c-.793.869-1.24 1.842-1.34 2.92-.111 1.188-.18 2.142-.206 2.86z"/>
                    <ellipse cx="69.394" cy="10.831" fill="url(#htfcut8ogI)" fill-rule="nonzero" rx="4.379" ry="4.795"/>
                    <path fill="url(#b7hr9v484J)" fill-rule="nonzero" d="M78.18 38.95c-.92.949 17.053 3.935 17.696-10.598.643-14.534-13.305-13.118-14.933-13.742-1.628-.624-9.42-7.873-13.655-6.442C63.085 9.588 55.8 13.522 54.97 21.46c-1.002 9.576 3.983 16.574 5.625 17.11 1.836.598 5.028-.146 9.577-2.232-1.657-.904-1.96-2.503-.91-4.798 1.576-3.443 4.266-1.707 4.266 1.326l1.412-1.95 6.78 1.312c-1.897 3.705-3.077 5.946-3.542 6.722z"/>
                    <path fill="url(#r2rbf6267K)" d="M81.6 32.377c-5.028 10.277-10.442 13.91-16.244 10.896-5.801-3.013-7.503-8.996-5.103-17.947 5.057-3.693 9.635-4.991 13.733-3.894 4.097 1.098 6.635 4.746 7.613 10.945z"/>
                    <path fill="url(#46grurt0aL)" d="M74.898 19.26c.348 8.152 2.635 13.216 6.86 15.192 6.337 2.965 6.566-1.053 4.386-4.642-1.453-2.392-5.202-5.909-11.246-10.55z"/>
                    <path fill="url(#9uzv11uh0M)" d="M76.276 20.533c-4.894 4.973-8.63 7.114-11.205 6.424-3.863-1.035-5.057 1.298-4.722 3.027.335 1.73-1.089 4.873-4.686 3.91-3.597-.964-.278-2.51.405-5.056.682-2.547-.617-8.28 2.523-9.413 3.14-1.134 6.745 2.183 8.467.19 1.723-1.993 4.799-2.156 7.245-1.5 1.63.436 2.288 1.242 1.973 2.418z"/>
                </g>
                <g>
                    <path fill="url(#ekzb0xxe0N)" fill-rule="nonzero" d="M17.802 91.543l.905 5.604c-1.102 1.491-2.462 2.237-4.08 2.237-1.619 0-3.06-.376-4.322-1.128l-.907-6.125 8.404-.588z" transform="matrix(-1 0 0 1 108 92.034) translate(34.51 102.347)"/>
                    <path fill="url(#ekzb0xxe0N)" fill-rule="nonzero" d="M45.874 91.543l.905 5.604c-1.101 1.491-2.461 2.237-4.08 2.237-1.618 0-3.059-.376-4.322-1.128l-.906-6.125 8.403-.588z" transform="matrix(-1 0 0 1 108 92.034) translate(34.51 102.347)"/>
                    <path fill="url(#gaa41pycpO)" fill-rule="nonzero" d="M46.807 96.378c.687 0 .687 2.312.717 4.072.011.641-.105 1.617-.35 2.929-.1.537-.54.931-1.06.95-11.023.398-17.665.387-17.685-.032-.881-2.862-.401-3.17 4.597-5.415 2.032-.913 3.897-1.348 5.16-2.098.433-.256 1.339 1.816 4.327 1.816s3.608-2.222 4.294-2.222z" transform="matrix(-1 0 0 1 108 92.034) translate(34.51 102.347)"/>
                    <path fill="url(#gaa41pycpO)" fill-rule="nonzero" d="M18.735 96.378c.687 0 .687 2.312.717 4.072.01.641-.106 1.617-.35 2.929-.1.537-.54.931-1.061.95-11.023.398-17.665.387-17.685-.032-.88-2.862-.4-3.17 4.598-5.415 2.032-.913 3.897-1.348 5.16-2.098.432-.256 1.338 1.816 4.326 1.816 2.988 0 3.608-2.222 4.295-2.222z" transform="matrix(-1 0 0 1 108 92.034) translate(34.51 102.347)"/>
                    <path fill="url(#3ixscyserP)" fill-rule="nonzero" d="M49.618 0c-.274 6.153-.274 9.585 0 10.298.412 1.07-2.001 14.414-7.24 40.033.448 24.997 4.184 38.728 3.736 41.194-.672 3.7-8.481 3.7-9.43 1.026-.63-1.783-3.245-16.264-7.843-43.446l-.806-21.318c-3.215 5.586-7.711 13.195-13.49 22.827.946 26.512 4.53 40.544 3.284 42.097-1.111 1.384-8.43 2.36-8.87 0-4.455-18.288-6.683-32.414-6.682-42.376C2.277 40.372 6.865 23.594 16.04 0h33.577z" transform="matrix(-1 0 0 1 108 92.034) translate(34.51 102.347)"/>
                    <path stroke="#1542AB" stroke-width=".749" d="M42.825 90.955l-5.431-38.806c-.237-1.695-.221-3.415.047-5.104l5.384-33.913h0" transform="matrix(-1 0 0 1 108 92.034) translate(34.51 102.347)"/>
                    <path fill="url(#yveqsgl4pQ)" fill-rule="nonzero" d="M14.55 50.605l-.11-.032 9.337-26.267c.623.522 2.042 1.683 4.258 3.48-3.214 5.585-7.709 13.191-13.484 22.82z" transform="matrix(-1 0 0 1 108 92.034) translate(34.51 102.347)"/>
                </g>
                <path fill="url(#4ql1b5q3qR)" fill-rule="nonzero" d="M79.609 60.524l4.079 2.987 2.727 14.276c-5.486 9.374-8.579 15.364-9.277 17.97-.33 1.234-.734 4.562-1.211 9.985-.012.136-.027.271-.044.406-.715 5.547-5.798 9.462-11.352 8.744-7.825-1.012-13.705-3.984-16.823-8.843-2.148-3.348 1.228-44.347 3.714-45.925 2.486-1.577 4.208-4.144 14.561-5.184 6.123 8.256 10.428 12.146 12.914 11.672 2.486-.474 1.75-2.736.712-6.088z" transform="matrix(-1 0 0 1 108 92.034) scale(-1 1) rotate(-15 0 591.745)"/>
                <g transform="matrix(-1 0 0 1 108 92.034) translate(74.043 55.885)">
                    <mask id="e8x4pofkeU" fill="#fff">
                        <use xlink:href="#wah1v06ocS"/>
                    </mask>
                    <use fill="url(#b91p6nh32T)" fill-rule="nonzero" xlink:href="#wah1v06ocS"/>
                    <path fill="#54BA7B" fill-rule="nonzero" d="M25.721 3.145c-2.15-2.919-2.151-7.714 0-14.386.762-2.365 3.974-3.01 8.56 0 5.498 3.61 13.89 18.951 9.971 30.203-6.035 17.328-15.982 22.077-21.48 23.212-1.049.216-1.271-.312-3.466 1.988-2.49 2.608-2.193-.61.89-9.653 7.058-10.12 10.291-16.891 9.702-20.316-.59-3.424-1.982-7.107-4.177-11.048z" mask="url(#e8x4pofkeU)" opacity=".251" transform="scale(1 -1) rotate(-82 13.173 0)"/>
                </g>
                <path fill="url(#pv2499fhgV)" fill-rule="nonzero" d="M97.174 55.654c-3.904-5.208-8.64-5.594-5.362-15.588.386-1.179 2.48-.633 6.257-.88 3.79-.247 6.627-2.765 8.961-1.259 5.587 3.604 16.44 20.741 12.458 31.977-7.305 20.61-15.85 22.64-19.937 25.23-2.725 1.725-4.862-.055-6.41-5.343 10.582-11.577 15.574-19.076 14.974-22.496-.899-5.13-7.036-6.433-10.94-11.641z" transform="matrix(-1 0 0 1 108 92.034) scale(1 -1) rotate(-82 28.904 0)"/>
                <path fill="#F2A384" fill-rule="nonzero" d="M13.511 46.093l-3.767 3.828c-1.13 2.087-2.275 3.393-3.494 4.12-.47.282-.906.427-1.271 1.698-.395 1.375.06 2.644-.515 2.573-.44-.054-1.141-1.886-1.22-2.114-.21-.6-.445-5.049.14-5.582.87-.796-.884-.726-.463-1.584.281-.572 1.916-1.004 4.403-1.458l3.64-4.44 2.547 2.96z" transform="matrix(-1 0 0 1 108 92.034) rotate(83 8.183 50.724)"/>
                <g transform="matrix(-1 0 0 1 108 92.034) translate(8.183 49.003)">
                    <mask id="h79ws0wxfY" fill="#fff">
                        <use xlink:href="#12rp8j0ogW"/>
                    </mask>
                    <use fill="url(#lfedksh75X)" fill-rule="nonzero" xlink:href="#12rp8j0ogW"/>
                    <path fill="#54BA7B" fill-rule="nonzero" d="M37.445 33.009c.042-2.359.42-4.275 1.136-5.749.715-1.473.916-2.342.601-2.605-7.803 3.83-14.336 4.698-19.597 2.605-5.262-2.092-3.936.778 3.975 8.612l13.885-2.863z" mask="url(#h79ws0wxfY)" opacity=".251"/>
                </g>
            </g>
            <g fill-rule="nonzero">
                <path fill="url(#rpefrd1z5Z)" d="M3.795 9.08c2.682 2.081 5.013 3.774 6.993 5.077 2.595 1.628 5.707 2.224 8.72 1.67 2.163-1.471 7.828-5.485 10.162-7.544-1.376-.246-2.6-.246-4.421-.683C18.683 6.054 16.367.816 15.495.484c-.58-.319-1.236-.476-1.898-.456-.69-.075-3.957 2.942-9.802 9.052z" transform="rotate(21 -680.044 472.534)"/>
                <path fill="url(#9iwg85bcqaa)" d="M3.198 11.737C.54 9.207.009 7.423 1.604 6.386 3.33 5.295 8.654 2.078 11.092.693c1.32-.88 3.03-.914 4.384-.086-1.746-.664-2.872-.386-3.378.835-.506 1.221.193 2.464 2.097 3.73L3.198 11.736z" transform="rotate(21 -680.044 472.534)"/>
            </g>
            <g fill-rule="nonzero" opacity=".5">
                <path fill="url(#icun6s0xiab)" d="M.675 61.71l-.007-.006c-.77-.595-.892-1.678-.273-2.418l11.639-13.903c.581-.696 1.62-.848 2.39-.35l4.14 2.668c.685.442 1.596.376 2.205-.16L70.287 3.975l.028-.024c.743-.626 1.873-.555 2.525.159l37.19 40.742c.624.684.586 1.716-.086 2.356L53.92 100.503c-.644.612-1.663.665-2.372.123L.675 61.71z" transform="translate(170 -39)"/>
                <path fill="url(#3oaajc8k8ac)" d="M54.918 100.369L23.899 63.41c-.574-.684-.514-1.679.138-2.294L88.26.486c.697-.659 1.815-.646 2.496.028.13.129.239.277.321.439l22.74 44.687c.337.661.196 1.456-.349 1.972l-55.946 52.901c-.697.66-1.814.648-2.496-.026-.038-.038-.075-.077-.11-.118z" transform="translate(170 -39)"/>
                <path fill="#A3C1EA" d="M53.619 95.128L51.711 93.43 70.193 78.686 71.691 80.648z" transform="translate(170 -39)"/>
            </g>
            <path fill="#E7F1FF" fill-rule="nonzero" d="M12.084 545.453h-474.419v-344.45c18.956-2.005 38.056 1.936 54.814 11.309 39.434 21.96 75.082-21.724 77.558-91.517 2.145-60.523 78.156-92.654 122.514-39.437 61.181 73.421 66.466-.235 66.466-.235l9.963-7.542c46.901 125.363-170.278 65.712-18.379 180.463 54.682 41.33 64.407 73.382 62.282 120.9-2.847 62.83 53.713 87.868 99.2 97.843v72.666z"/>
        </g>
    </g>
</svg>
