<?xml version="1.0" encoding="UTF-8"?>
<svg width="44px" height="59px" viewBox="0 0 44 59" version="1.1" xmlns="http://www.w3.org/2000/svg" xmlns:xlink="http://www.w3.org/1999/xlink">
    <title>jpeg-grey</title>
    <g id="General" stroke="none" stroke-width="1" fill="none" fill-rule="evenodd">
        <g id="jpeg-grey" fill-rule="nonzero">
            <g id="pptx-grey-copy" transform="translate(0.000000, 0.000000)">
                <g id="Group-12-Copy-3" transform="translate(0.000000, 0.000000)">
                    <path d="M2.45833333,5.83262907e-13 L25.4661894,5.83262907e-13 L25.4661894,5.83262907e-13 L44,18.4567352 L44,56.5416667 C44,57.8993667 42.8993667,59 41.5416667,59 L2.45833333,59 C1.10063332,59 0,57.8993667 0,56.5416667 L0,2.45833333 C0,1.10063332 1.10063332,5.83262907e-13 2.45833333,5.83262907e-13 Z" id="Path-3" fill="#C1D1E0"></path>
                    <polygon id="Fill-7" fill="#C1D1E0" opacity="0.295503162" style="mix-blend-mode: multiply;" points="44 36.1800276 44 18.3683041 25.4661894 16.2345715"></polygon>
                    <path d="M25.4661894,3.18971902e-14 L25.4661894,15.9866444 C25.4661894,17.3443444 26.5668227,18.4449777 27.9245227,18.4449777 C27.9284325,18.4449777 27.9323423,18.4449777 27.9362521,18.4449777 L44,18.3683041 L44,18.3683041 L25.4661894,3.18971902e-14 Z" id="Path-2" fill="#F2F6FA"></path>
                </g>
            </g>
            <path d="M10.045,49.16 C10.9916667,49.16 11.71,48.9216667 12.2,48.445 C12.69,47.9683333 12.935,47.2533333 12.935,46.3 L12.935,46.3 L12.935,42 L8.225,42 L8.225,43.78 L10.605,43.78 L10.605,46.44 C10.605,46.7266667 10.54,46.9433333 10.41,47.09 C10.28,47.2366667 10.0916667,47.31 9.845,47.31 C9.65166667,47.31 9.465,47.2533333 9.285,47.14 C9.105,47.0266667 8.92166667,46.8533333 8.735,46.62 L8.735,46.62 L7.465,48.12 C7.75166667,48.46 8.11666667,48.7183333 8.56,48.895 C9.00333333,49.0716667 9.49833333,49.16 10.045,49.16 Z M16.375,49 L16.375,47.28 L17.385,47.28 C18.0316667,47.28 18.595,47.1733333 19.075,46.96 C19.555,46.7466667 19.925,46.44 20.185,46.04 C20.445,45.64 20.575,45.1733333 20.575,44.64 C20.575,44.1066667 20.445,43.64 20.185,43.24 C19.925,42.84 19.555,42.5333333 19.075,42.32 C18.595,42.1066667 18.0316667,42 17.385,42 L17.385,42 L14.015,42 L14.015,49 L16.375,49 Z M17.235,45.46 L16.375,45.46 L16.375,43.82 L17.235,43.82 C17.555,43.82 17.795,43.8916667 17.955,44.035 C18.115,44.1783333 18.195,44.38 18.195,44.64 C18.195,44.9 18.115,45.1016667 17.955,45.245 C17.795,45.3883333 17.555,45.46 17.235,45.46 L17.235,45.46 Z M27.265,49 L27.265,47.22 L23.765,47.22 L23.765,46.3 L26.725,46.3 L26.725,44.6 L23.765,44.6 L23.765,43.78 L27.135,43.78 L27.135,42 L21.445,42 L21.445,49 L27.265,49 Z M31.805,49.16 C32.3316667,49.16 32.8683333,49.0833333 33.415,48.93 C33.9616667,48.7766667 34.4416667,48.5566667 34.855,48.27 L34.855,48.27 L34.855,45.31 L32.805,45.31 L32.805,47.08 C32.5316667,47.1933333 32.245,47.25 31.945,47.25 C31.4383333,47.25 31.0333333,47.09 30.73,46.77 C30.4266667,46.45 30.275,46.0266667 30.275,45.5 C30.275,44.96 30.4283333,44.5333333 30.735,44.22 C31.0416667,43.9066667 31.455,43.75 31.975,43.75 C32.5816667,43.75 33.105,44.0066667 33.545,44.52 L33.545,44.52 L35.055,43.19 C34.695,42.75 34.2433333,42.415 33.7,42.185 C33.1566667,41.955 32.5416667,41.84 31.855,41.84 C31.095,41.84 30.4133333,41.995 29.81,42.305 C29.2066667,42.615 28.7366667,43.0483333 28.4,43.605 C28.0633333,44.1616667 27.895,44.7933333 27.895,45.5 C27.895,46.2066667 28.0633333,46.8383333 28.4,47.395 C28.7366667,47.9516667 29.2016667,48.385 29.795,48.695 C30.3883333,49.005 31.0583333,49.16 31.805,49.16 Z" id="JPEG" fill="#7F93A8"></path>
        </g>
    </g>
</svg>