<svg width="20" height="20" viewBox="0 0 20 20" fill="none" xmlns="http://www.w3.org/2000/svg">
<path d="M7.37387 2.17677C7.10627 2.57287 6.86791 3.02335 6.65889 3.51153C6.00506 5.03859 5.59024 7.04709 5.51308 9.25H1.78363C2.08171 5.9422 4.3322 3.19739 7.37387 2.17677ZM12.6261 2.17677C15.6678 3.19739 17.9183 5.9422 18.2164 9.25H14.4869C14.4098 7.04709 13.9949 5.03859 13.3411 3.51153C13.1321 3.02335 12.8937 2.57287 12.6261 2.17677ZM12.9859 9.25H7.01406C7.09076 7.21441 7.47598 5.41413 8.03781 4.10193C8.35334 3.36499 8.7098 2.81656 9.06741 2.46329C9.42182 2.11318 9.73611 1.99146 10 1.99146C10.2639 1.99146 10.5782 2.11318 10.9326 2.46329C11.2902 2.81656 11.6467 3.36499 11.9622 4.10193C12.524 5.41413 12.9092 7.21441 12.9859 9.25ZM7.01407 10.75H12.9859C12.9092 12.7855 12.524 14.5856 11.9622 15.8978C11.6467 16.6347 11.2902 17.1831 10.9326 17.5364C10.5782 17.8865 10.2639 18.0083 10 18.0083C9.73611 18.0083 9.42182 17.8865 9.06741 17.5364C8.7098 17.1831 8.35334 16.6347 8.03781 15.8978C7.476 14.5856 7.0908 12.7855 7.01407 10.75ZM5.51309 10.75C5.59028 12.9528 6.00509 14.9612 6.65889 16.4882C6.86798 16.9765 7.10642 17.4271 7.37413 17.8233C4.33232 16.8028 2.08172 14.0579 1.78363 10.75H5.51309ZM12.6259 17.8233C12.8936 17.4271 13.132 16.9765 13.3411 16.4882C13.9949 14.9612 14.4097 12.9528 14.4869 10.75H18.2164C17.9183 14.0579 15.6677 16.8028 12.6259 17.8233ZM10 0.25C4.61522 0.25 0.25 4.61522 0.25 10C0.25 15.3848 4.61522 19.75 10 19.75C15.3848 19.75 19.75 15.3848 19.75 10C19.75 4.61522 15.3848 0.25 10 0.25Z" fill="#618298"/>
</svg>
