<svg width="80" height="80" viewBox="0 0 80 80" fill="none" xmlns="http://www.w3.org/2000/svg">
<path d="M27 1L28.0609 2.93901L30 4L28.0609 5.06099L27 7L25.9391 5.06099L24 4L25.9391 2.93901L27 1Z" fill="#8EDEF4"/>
<path d="M65 12L65.7073 13.2927L67 14L65.7073 14.7073L65 16L64.2927 14.7073L63 14L64.2927 13.2927L65 12Z" fill="#8EDEF4"/>
<path d="M6.29479 40.8376C6.21904 40.7921 6.16524 40.716 6.14328 40.6231C6.12131 40.5303 6.13267 40.4269 6.17525 40.3321C6.21783 40.2372 6.28878 40.1573 6.37504 40.1071C6.46129 40.0568 6.55705 40.0395 6.6447 40.0584C7.38383 40.2122 9.1023 40.505 10.6288 40.2774C10.2853 39.6634 10.064 38.9663 9.97694 38.2234C9.87675 37.3742 10.0408 36.7017 10.4577 36.2225C10.8286 35.798 11.3873 35.5681 12.0294 35.5756C12.4248 35.5808 12.8007 35.6844 13.1285 35.8786C13.4562 36.0727 13.7273 36.3523 13.921 36.6961C14.085 36.9921 14.175 37.3368 14.1836 37.7018C14.1921 38.0667 14.1191 38.4415 13.9704 38.7952C13.5772 39.7521 12.8684 40.3529 12.0228 40.7127C12.375 41.0523 12.7906 41.3116 13.2497 41.4783C14.4066 41.8949 15.673 41.6161 16.8137 40.6951C16.8567 40.6583 16.9048 40.6301 16.9553 40.6123C17.0058 40.5944 17.0576 40.5872 17.1077 40.5911C17.1578 40.595 17.2052 40.6099 17.2472 40.6349C17.2891 40.66 17.3246 40.6946 17.3518 40.7369C17.3789 40.7791 17.3971 40.8281 17.4052 40.8809C17.4133 40.9337 17.4112 40.9894 17.3991 41.0446C17.3869 41.0997 17.3649 41.1533 17.3343 41.2022C17.3038 41.251 17.2653 41.2941 17.2211 41.329C15.8499 42.4375 14.3193 42.7756 12.9212 42.267C12.2223 42.0111 11.6104 41.5765 11.1319 40.9962C9.43374 41.3896 7.47687 41.0992 6.39586 40.8734C6.35991 40.8674 6.32584 40.8553 6.29479 40.8376ZM12.7097 36.6291C12.4728 36.4853 12.1997 36.4084 11.912 36.4045C11.722 36.4024 11.2537 36.4309 10.9809 36.7428C10.708 37.0546 10.6959 37.6034 10.7433 37.9994C10.8322 38.7665 11.0869 39.4755 11.4879 40.0724C12.2837 39.814 12.9478 39.3461 13.2729 38.5536C13.3717 38.3238 13.4206 38.0796 13.4154 37.8417C13.4101 37.6038 13.3509 37.3793 13.2428 37.1874C13.1141 36.9521 12.9323 36.7603 12.7112 36.6266L12.7097 36.6291Z" fill="#035970"/>
<path d="M73.44 26C72.1728 26 70.9409 25.5093 70.5031 24.4488C70.4151 24.2335 70.3589 24.0093 70.336 23.7816C69.7558 23.5779 69.2429 23.2515 68.8434 22.8317C68.3633 22.3436 68.0564 21.7633 68.001 21.2401C67.995 21.1819 68.0158 21.124 68.0587 21.0791C68.1016 21.0343 68.1633 21.0061 68.23 21.0009C68.2967 20.9956 68.3631 21.0137 68.4145 21.0512C68.466 21.0887 68.4982 21.1424 68.5043 21.2006C68.5485 21.6281 68.8193 22.1312 69.2269 22.5455C69.5338 22.8604 69.9103 23.1181 70.334 23.3031C70.3455 23.1357 70.37 22.9691 70.4075 22.8045C70.5192 22.3129 70.7346 21.981 71.0667 21.7897C71.2555 21.6803 71.4772 21.6222 71.7039 21.6228C71.9305 21.6234 72.1518 21.6826 72.3399 21.7929C72.5279 21.9033 72.6742 22.0598 72.7602 22.2427C72.8462 22.4255 72.8681 22.6266 72.823 22.8203C72.7561 23.075 72.5982 23.3046 72.3721 23.4761C72.1911 23.6273 71.9758 23.7438 71.7401 23.8181C71.5043 23.8923 71.2533 23.9226 71.0033 23.9071C70.956 23.9071 70.9027 23.901 70.8594 23.8948C70.8831 24.0322 70.9222 24.1671 70.9762 24.2978C71.5136 25.5988 73.4128 25.7287 74.5894 25.4057L74.7082 25.3706C75.0271 25.2736 75.3253 25.1312 75.5908 24.9492C75.6429 24.9127 75.7094 24.8958 75.7758 24.9022C75.8421 24.9085 75.9028 24.9376 75.9446 24.983C75.9864 25.0284 76.0058 25.0864 75.9985 25.1443C75.9912 25.2021 75.9579 25.2551 75.9059 25.2915C75.5984 25.5046 75.2525 25.6717 74.8823 25.7858C74.836 25.8007 74.7907 25.8139 74.7444 25.8262C74.3223 25.9418 73.8824 26.0004 73.44 26ZM70.8232 23.4489C70.892 23.4604 70.9616 23.468 71.0315 23.4717C71.2132 23.4817 71.3954 23.4586 71.5663 23.4037C71.7371 23.3488 71.893 23.2634 72.0239 23.153C72.1719 23.0438 72.2774 22.8971 72.3258 22.7334C72.3509 22.6247 72.3385 22.512 72.2902 22.4095C72.2419 22.307 72.1599 22.2193 72.0545 22.1574C71.9491 22.0955 71.825 22.0622 71.6979 22.0618C71.5708 22.0613 71.4465 22.0937 71.3405 22.1549C71.1261 22.2786 70.9812 22.5192 70.8966 22.8897C70.8536 23.0738 70.8297 23.261 70.8252 23.4489H70.8232Z" fill="#035970"/>
<path d="M35.7702 77.9629L33.2502 77.5778C32.5355 77.4685 31.9015 77.1246 31.4877 76.6216C31.074 76.1186 30.9144 75.4978 31.044 74.8956C31.1736 74.2935 31.5819 73.7594 32.179 73.4109C32.7761 73.0623 33.5131 72.9279 34.2279 73.037L36.7499 73.4221C37.4646 73.5315 38.0984 73.8755 38.5121 74.3784C38.9259 74.8814 39.0856 75.5022 38.9562 76.1043C38.8262 76.7066 38.4175 77.2408 37.82 77.5893C37.2226 77.9379 36.4852 78.0722 35.7702 77.9629Z" fill="#035970"/>
<path d="M39.9544 75.9594L29.1231 74.0333C28.4487 73.9131 27.8507 73.5349 27.4603 72.9819C27.07 72.4288 26.9193 71.7463 27.0414 71.0843C27.1639 70.4222 27.5493 69.8349 28.1127 69.4517C28.6762 69.0685 29.3717 68.9207 30.0462 69.0407L40.8768 70.9668C41.5512 71.0869 42.1494 71.4651 42.5398 72.0181C42.9302 72.5712 43.0808 73.2538 42.9585 73.9158C42.836 74.5778 42.4507 75.1649 41.8874 75.5481C41.3241 75.9313 40.6288 76.0793 39.9544 75.9594Z" fill="#77C2D7"/>
<path d="M43.0364 72.9584L28.066 70.1566C27.4097 70.0334 26.8276 69.6459 26.4478 69.0792C26.0679 68.5126 25.9214 67.8132 26.0404 67.135C26.1596 66.4569 26.5345 65.8554 27.0826 65.4629C27.6308 65.0703 28.3073 64.9188 28.9636 65.0416L43.934 67.8395C44.5903 67.9626 45.1723 68.35 45.5522 68.9165C45.9321 69.483 46.0786 70.1823 45.9596 70.8605C45.9012 71.1967 45.7792 71.5177 45.6006 71.8052C45.422 72.0926 45.1904 72.3409 44.9189 72.5357C44.6474 72.7306 44.3414 72.8682 44.0184 72.9407C43.6954 73.0133 43.3617 73.0193 43.0364 72.9584Z" fill="#035970"/>
<path d="M64.6443 34.9981C66.8269 22.9043 58.7373 11.3287 46.6119 9.29979C34.7218 7.3107 23.3491 15.4323 21.3186 27.3515C20.6108 31.4667 21.088 35.6989 22.6943 39.5515C25.865 47.1648 29.7547 48.8633 27.0456 63.8677L27.1243 63.4312L46.5523 66.9608L46.5451 67C49.2621 51.9498 53.6611 52.0579 59.236 45.956C62.0366 42.8906 63.912 39.0906 64.6443 34.9981Z" fill="#F2BE38"/>
<path d="M40.5901 61C40.5729 61 40.5552 61 40.5374 61C40.4603 60.9925 40.3853 60.9681 40.3167 60.9284C40.2481 60.8887 40.1872 60.8343 40.1375 60.7684C40.0878 60.7025 40.0503 60.6263 40.0271 60.5443C40.0039 60.4623 39.9955 60.376 40.0023 60.2904C40.2475 57.2125 40.9138 52.2004 41.8311 46.5386C41.8587 46.3678 41.9464 46.2161 42.0746 46.1171C42.2029 46.018 42.3614 45.9796 42.5152 46.0103C42.6689 46.0411 42.8054 46.1384 42.8946 46.2809C42.9838 46.4234 43.0184 46.5994 42.9907 46.7703C42.0797 52.3952 41.4186 57.3652 41.1762 60.4056C41.1629 60.568 41.0954 60.7191 40.987 60.8291C40.8785 60.9391 40.737 61 40.5901 61Z" fill="white"/>
<path d="M43.1118 44C43.0692 43.9999 43.0266 43.996 42.9848 43.9882C42.8077 43.9548 42.6511 43.8531 42.5495 43.7052C42.4478 43.5573 42.4093 43.3754 42.4424 43.1993C42.8584 41.0162 43.2725 38.9679 43.6707 37.1161C43.0416 37.1832 42.4087 37.2072 41.7763 37.1877C38.5926 37.0898 35.749 35.8625 33.971 33.8201C32.3881 31.9998 31.6975 29.5755 32.1235 27.3352C32.3782 25.9948 33.0218 24.828 33.9353 24.0484C35.0115 23.1281 36.4614 22.7816 37.7175 23.1373C37.8589 23.1769 37.9976 23.2252 38.1329 23.2819C38.2996 23.3516 38.4315 23.4843 38.4998 23.6507C38.568 23.8172 38.5669 24.0037 38.4967 24.1693C38.4265 24.335 38.293 24.4661 38.1256 24.5339C37.9581 24.6017 37.7704 24.6006 37.6037 24.5309C37.5186 24.4953 37.4313 24.4647 37.3425 24.4395C36.5322 24.2101 35.5413 24.4605 34.8183 25.0765C34.139 25.6563 33.6555 26.5477 33.4577 27.5876C33.1137 29.3987 33.7037 31.449 34.9982 32.9372C37.1645 35.4286 40.7179 36.2155 43.9717 35.7251C44.6556 32.6552 45.2787 30.2467 45.7576 28.8452C46.0937 27.8657 46.5137 26.8481 47.2989 26.0415C48.2249 25.091 49.5353 24.6834 50.6399 25.0016C52.3339 25.4906 53.1039 27.4437 52.9888 29.1212C52.8459 31.1998 51.7247 33.2219 49.9116 34.6694C48.5801 35.733 46.9152 36.4909 45.1061 36.8847C44.6768 38.8568 44.2263 41.0714 43.7732 43.4524C43.7433 43.6054 43.6611 43.7434 43.5406 43.8432C43.4201 43.9429 43.2686 43.9983 43.1118 44ZM49.8673 26.2427C49.272 26.2427 48.6701 26.5819 48.2831 26.9789C47.6838 27.5948 47.3372 28.4488 47.0515 29.2797C46.6156 30.5497 46.0593 32.6842 45.4395 35.4096C46.8014 35.0296 48.0569 34.4189 49.0663 33.613C50.5612 32.4186 51.5223 30.7042 51.6381 29.0266C51.7141 27.917 51.2597 26.5838 50.2675 26.2979C50.1374 26.2607 50.0027 26.2421 49.8673 26.2427Z" fill="white"/>
<path d="M35.7036 60H35.6578C35.4719 59.9886 35.2983 59.9074 35.1752 59.7741C35.0521 59.6408 34.9896 59.4664 35.0014 59.2892C35.3784 53.6358 36.1356 48.0114 37.2683 42.4504C37.5122 41.2573 37.8011 40.042 38.0805 38.8704C39.0223 34.9023 40.0004 30.8008 39.4198 26.7599C39.4074 26.6728 39.413 26.5842 39.4365 26.4992C39.46 26.4142 39.5008 26.3344 39.5566 26.2644C39.6124 26.1944 39.6821 26.1356 39.7618 26.0913C39.8415 26.0469 39.9295 26.018 40.0209 26.0061C40.1123 25.9943 40.2053 25.9997 40.2945 26.022C40.3837 26.0444 40.4674 26.0832 40.5408 26.1364C40.6143 26.1896 40.676 26.2561 40.7225 26.332C40.769 26.4079 40.7994 26.4919 40.8118 26.579C41.4265 30.862 40.4205 35.0839 39.4458 39.1672C39.1685 40.3317 38.8823 41.5352 38.6426 42.7082C37.5222 48.2114 36.7735 53.7773 36.4009 59.3719C36.3898 59.5413 36.3117 59.7004 36.1822 59.817C36.0528 59.9336 35.8817 59.999 35.7036 60Z" fill="white"/>
<path d="M45.8749 68.9568L26.178 65.3369C25.4862 65.2094 24.8727 64.8084 24.4722 64.222C24.0718 63.6356 23.9172 62.9119 24.0424 62.21C24.1681 61.5079 24.5635 60.8853 25.1415 60.479C25.7196 60.0726 26.433 59.9159 27.1249 60.0432L46.8218 63.6631C47.1644 63.7261 47.4915 63.8569 47.7842 64.0481C48.077 64.2394 48.3297 64.4873 48.528 64.7777C48.7263 65.068 48.8663 65.3952 48.94 65.7405C49.0137 66.0858 49.0196 66.4424 48.9574 66.79C48.8317 67.4921 48.4363 68.1147 47.8583 68.521C47.2802 68.9274 46.5668 69.0841 45.8749 68.9568Z" fill="#77C2D7"/>
<path d="M52 44L52.3536 44.6463L53 45L52.3536 45.3537L52 46L51.6464 45.3537L51 45L51.6464 44.6463L52 44Z" fill="white"/>
<path d="M49.4996 46L50.3835 47.2928L52 48L50.3835 48.7072L49.4996 50L48.6158 48.7072L47 48L48.6158 47.2928L49.4996 46Z" fill="white"/>
<path d="M38 15.5L38.97 14.9696L39.4996 14L40.03 14.9696L41 15.5L40.03 16.0296L39.4996 17L38.97 16.0296L38 15.5Z" fill="white"/>
<path d="M40 18L41.6167 17.2928L42.5007 16L43.3841 17.2928L45 18L43.3841 18.7072L42.5007 20L41.6167 18.7072L40 18Z" fill="white"/>
</svg>
