<svg width="40" height="40" viewBox="0 0 40 40" fill="none" xmlns="http://www.w3.org/2000/svg">
  <g id="2766c16c62a2fe606f9a1dbf6f412424">
    <ellipse id="899c0ea8ffed2aba2e60c7e4cd91ccc0" cx="20" cy="20" rx="20" ry="20" fill="#F2385A"></ellipse>
    <path id="9153e0c3cd2e46261e09114763b9ff1c" fill-rule="evenodd" clip-rule="evenodd" d="M15.8889 14.4444C15.8889 15.2422 15.2422 15.8889 14.4444 15.8889C13.6467 15.8889 13 15.2422 13 14.4444C13 13.6467 13.6467 13 14.4444 13C15.2422 13 15.8889 13.6467 15.8889 14.4444ZM15.1945 18.7778C15.1945 18.3636 14.8587 18.0278 14.4445 18.0278C14.0302 18.0278 13.6945 18.3636 13.6945 18.7778V26.0001C13.6945 26.4143 14.0302 26.7501 14.4445 26.7501C14.8587 26.7501 15.1945 26.4143 15.1945 26.0001V18.7778ZM19.5278 18.7778C19.5278 18.3636 19.192 18.0278 18.7778 18.0278C18.3636 18.0278 18.0278 18.3636 18.0278 18.7778V21.9376V26.0001C18.0278 26.4143 18.3636 26.7501 18.7778 26.7501C19.192 26.7501 19.5278 26.4143 19.5278 26.0001V21.9376C19.5278 21.3332 19.8013 20.7298 20.3294 20.2677C20.8606 19.8029 21.6002 19.5278 22.3889 19.5278C23.1777 19.5278 23.9173 19.8029 24.4485 20.2677C24.9765 20.7298 25.2501 21.3332 25.2501 21.9376V26.0001C25.2501 26.4143 25.5858 26.7501 26.0001 26.7501C26.4143 26.7501 26.7501 26.4143 26.7501 26.0001V21.9376C26.7501 20.8659 26.2627 19.862 25.4363 19.1389C24.6131 18.4186 23.5156 18.0278 22.3889 18.0278C21.3452 18.0278 20.3266 18.3631 19.5278 18.9851V18.7778Z" fill="white"></path>
  </g>
</svg>