<svg width="40" height="14" viewBox="0 0 40 14" fill="none" xmlns="http://www.w3.org/2000/svg">
<g id="Vector">
<path d="M6.7938 0.333699C3.08474 0.297036 0.154762 3.37061 0.0356072 6.74971C-0.104934 10.6665 3.1764 13.7768 6.68687 13.6637C10.3196 13.7707 13.2618 10.6696 13.3748 7.25077C13.5062 3.37978 10.2676 0.367306 6.7938 0.333699ZM10.0049 7.7946C8.24199 8.19789 7.04433 9.24278 6.3844 10.9323H4.41071C4.87817 9.21834 5.92611 7.98402 7.41402 7.01551C5.93528 6.03478 4.86289 4.80352 4.41682 3.07731H6.37523C6.99545 4.66909 8.08311 5.72315 9.75433 6.14477C9.85515 6.17227 9.98959 6.33419 9.9957 6.44113C10.0232 6.88414 10.0049 7.32715 10.0049 7.7946Z" fill="#192833"/>
<path d="M32.4823 1.39692C33.1575 1.39692 33.796 1.39692 34.4926 1.39692C34.4926 3.34617 34.4926 5.28625 34.4926 7.34853C34.9448 7.1255 35.3298 6.98496 35.6628 6.76193C36.3563 6.29753 36.946 5.72009 37.2943 4.94711C37.4104 4.68742 37.5479 4.57743 37.8381 4.58965C38.3881 4.61409 38.938 4.59576 39.5643 4.59576C39.0511 6.22115 38.0948 7.42492 36.6618 8.3201C38.2109 9.3711 39.3046 10.7124 39.6988 12.6433C39.0174 12.6433 38.3942 12.6677 37.774 12.6219C37.6548 12.6127 37.5082 12.3622 37.4501 12.1972C37.0101 10.9934 36.2494 10.083 35.0792 9.53609C34.9173 9.45971 34.7462 9.41082 34.5201 9.32833C34.5201 10.2907 34.4987 11.2043 34.5293 12.1178C34.5446 12.5516 34.401 12.6799 33.9824 12.6524C33.4966 12.6188 33.0078 12.6463 32.4853 12.6463C32.4823 8.88532 32.4823 5.16709 32.4823 1.39692Z" fill="#192833"/>
<path d="M23.6679 12.6433C23.6679 9.93021 23.6679 7.29049 23.6679 4.6202C24.3676 4.6202 25.0367 4.6202 25.7424 4.6202C25.7638 4.82796 25.7821 5.02961 25.8066 5.28014C26.4207 4.76685 27.0684 4.45828 27.8475 4.39412C29.4454 4.2658 30.863 5.32902 30.9241 6.92691C30.9883 8.70201 30.976 10.4771 31.0035 12.2522C31.0066 12.5516 30.8752 12.6555 30.5819 12.6433C30.1542 12.628 29.7234 12.6188 29.2957 12.6463C28.9413 12.6677 28.8557 12.5211 28.8588 12.1911C28.874 10.7337 28.8649 9.27945 28.8649 7.8221C28.8649 6.87192 28.5746 6.40752 27.9025 6.28531C26.9065 6.10505 26.274 6.64277 26.0052 7.3302C25.8707 7.67545 25.7944 8.06346 25.7882 8.4362C25.7607 9.66135 25.7577 10.8896 25.7882 12.1147C25.7974 12.5547 25.6477 12.6708 25.2383 12.6463C24.7311 12.6188 24.224 12.6433 23.6679 12.6433Z" fill="#192833"/>
<path d="M16.6561 1.37859C17.2672 1.37859 17.8477 1.36943 18.4251 1.39081C18.5137 1.39387 18.6206 1.53135 18.6756 1.63218C18.7154 1.70245 18.6879 1.81244 18.6879 1.90409C18.6879 5.30763 18.6787 8.71117 18.697 12.1178C18.7001 12.5455 18.5748 12.683 18.1532 12.6555C17.6674 12.6219 17.1786 12.6463 16.6561 12.6463C16.6561 8.88532 16.6561 5.16709 16.6561 1.37859Z" fill="#192833"/>
<path d="M22.1617 12.6158C21.4742 12.6158 20.8235 12.6158 20.1452 12.6158C20.1452 9.94854 20.1452 7.30576 20.1452 4.62937C20.8113 4.62937 21.4712 4.62937 22.1617 4.62937C22.1617 7.28132 22.1617 9.9241 22.1617 12.6158Z" fill="#192833"/>
<path d="M21.1626 3.61808C20.5882 3.62114 19.9588 3.00398 19.9619 2.44182C19.965 1.79716 20.5179 1.23194 21.1473 1.22888C21.7675 1.22583 22.3572 1.80021 22.3664 2.41432C22.3725 3.02231 21.7798 3.61503 21.1626 3.61808Z" fill="#192833"/>
</g>
</svg>
