<svg width="104" height="24" viewBox="0 0 104 24" fill="none" xmlns="http://www.w3.org/2000/svg">
<path d="M3 5.7C3 4.9268 3.6268 4.3 4.4 4.3H19.6C20.3732 4.3 21 4.9268 21 5.7V15.9C21 16.6732 20.3732 17.3 19.6 17.3H4.4C3.6268 17.3 3 16.6732 3 15.9V5.7ZM4.4 5.7L4.4 15.9H19.6V5.7H4.4Z" fill="#BCCFDC"/>
<path d="M2.7 18.6C2.3134 18.6 2 18.9134 2 19.3C2 19.6866 2.3134 20 2.7 20H21.3C21.6866 20 22 19.6866 22 19.3C22 18.9134 21.6866 18.6 21.3 18.6H2.7Z" fill="#BCCFDC"/>
<path d="M28.9972 7.27273H30.4631L33.3139 14.2401H33.4162L36.2713 7.27273H37.733V16H36.5866V9.56108H36.5014L33.8679 15.9915H32.8622L30.2287 9.55682H30.1477V16H28.9972V7.27273ZM40.358 18.4545C40.1761 18.4545 40.0114 18.4403 39.8636 18.4119C39.7159 18.3835 39.6094 18.3537 39.544 18.3224L39.8295 17.3423C40.0682 17.4048 40.2798 17.429 40.4645 17.4148C40.6491 17.4034 40.8125 17.3295 40.9545 17.1932C41.0966 17.0568 41.2244 16.8352 41.3381 16.5284L41.5085 16.0639L39.1009 9.45455H40.358L42.0753 14.5895H42.1435L43.8608 9.45455H45.1179L42.3864 16.9034C42.2614 17.2443 42.1037 17.5298 41.9134 17.7599C41.7259 17.9929 41.5028 18.1662 41.2443 18.2798C40.9858 18.3963 40.6903 18.4545 40.358 18.4545ZM52.343 16.1364C51.718 16.1364 51.1797 15.9915 50.728 15.7017C50.2763 15.4119 49.9297 15.0128 49.6882 14.5043C49.4467 13.9957 49.326 13.4148 49.326 12.7614C49.326 12.0937 49.4496 11.5057 49.6967 10.9972C49.9467 10.4886 50.2962 10.0909 50.745 9.80398C51.1939 9.5142 51.7209 9.36932 52.326 9.36932C52.8089 9.36932 53.2408 9.45881 53.6214 9.63778C54.0021 9.81392 54.3118 10.0625 54.5504 10.3835C54.7891 10.7045 54.9339 11.0795 54.9851 11.5085H53.8388C53.7678 11.2045 53.6058 10.9403 53.353 10.7159C53.103 10.4886 52.7678 10.375 52.3473 10.375C51.978 10.375 51.6541 10.4716 51.3757 10.6648C51.1001 10.858 50.8842 11.1307 50.728 11.483C50.5746 11.8352 50.4979 12.25 50.4979 12.7273C50.4979 13.2159 50.5732 13.6392 50.7237 13.9972C50.8771 14.3551 51.0916 14.6335 51.3672 14.8324C51.6456 15.0284 51.9723 15.1264 52.3473 15.1264C52.5973 15.1264 52.8232 15.081 53.0249 14.9901C53.2294 14.8991 53.4013 14.7699 53.5405 14.6023C53.6825 14.4318 53.782 14.2287 53.8388 13.9929H54.9851C54.9339 14.402 54.7947 14.7685 54.5675 15.0923C54.3402 15.4134 54.0376 15.6676 53.6598 15.8551C53.2848 16.0426 52.8459 16.1364 52.343 16.1364ZM59.1048 16.1364C58.4996 16.1364 57.9712 15.9957 57.5195 15.7145C57.0678 15.4304 56.7156 15.0355 56.4627 14.5298C56.2127 14.0241 56.0877 13.4347 56.0877 12.7614C56.0877 12.0795 56.2127 11.4844 56.4627 10.9759C56.7156 10.4673 57.0678 10.0724 57.5195 9.79119C57.9712 9.50994 58.4996 9.36932 59.1048 9.36932C59.7099 9.36932 60.2383 9.50994 60.69 9.79119C61.1417 10.0724 61.4925 10.4673 61.7425 10.9759C61.9954 11.4844 62.1218 12.0795 62.1218 12.7614C62.1218 13.4347 61.9954 14.0241 61.7425 14.5298C61.4925 15.0355 61.1417 15.4304 60.69 15.7145C60.2383 15.9957 59.7099 16.1364 59.1048 16.1364ZM59.1048 15.1307C59.5252 15.1307 59.8704 15.0213 60.1403 14.8026C60.413 14.5838 60.6147 14.2955 60.7454 13.9375C60.8789 13.5767 60.9457 13.1832 60.9457 12.7571C60.9457 12.331 60.8789 11.9375 60.7454 11.5767C60.6147 11.2131 60.413 10.9219 60.1403 10.7031C59.8704 10.4815 59.5252 10.3707 59.1048 10.3707C58.6843 10.3707 58.3377 10.4815 58.065 10.7031C57.7923 10.9219 57.5891 11.2131 57.4556 11.5767C57.3249 11.9375 57.2596 12.331 57.2596 12.7571C57.2596 13.1832 57.3249 13.5767 57.4556 13.9375C57.5891 14.2955 57.7923 14.5838 58.065 14.8026C58.3377 15.0213 58.6843 15.1307 59.1048 15.1307ZM63.593 16V9.45455H64.7138V10.5028H64.799C64.9354 10.1477 65.157 9.87074 65.4638 9.67188C65.7706 9.47017 66.1385 9.36932 66.5675 9.36932C67.0021 9.36932 67.3658 9.47017 67.6584 9.67188C67.9538 9.87074 68.1768 10.1477 68.3274 10.5028H68.3956C68.5575 10.1591 68.8075 9.88494 69.1456 9.6804C69.4837 9.47301 69.8885 9.36932 70.3601 9.36932C70.951 9.36932 71.4325 9.55398 71.8047 9.9233C72.1797 10.2926 72.3672 10.8565 72.3672 11.6151V16H71.1996V11.6875C71.1996 11.2273 71.0746 10.8963 70.8246 10.6946C70.5746 10.4929 70.2777 10.392 69.9339 10.392C69.4993 10.392 69.1626 10.5241 68.924 10.7884C68.6854 11.0497 68.5661 11.3835 68.5661 11.7898V16H67.3942V11.598C67.3942 11.2344 67.2791 10.9432 67.049 10.7244C66.8189 10.5028 66.522 10.392 66.1584 10.392C65.9084 10.392 65.6768 10.4574 65.4638 10.5881C65.2536 10.7187 65.0831 10.9006 64.9524 11.1335C64.8246 11.3665 64.7607 11.6364 64.7607 11.9432V16H63.593ZM74.1282 18.4545V9.45455H75.2617V10.5071H75.3725C75.4492 10.3793 75.5558 10.2273 75.6921 10.0511C75.8285 9.87216 76.0202 9.71449 76.2674 9.57812C76.5146 9.43892 76.8455 9.36932 77.2603 9.36932C77.7972 9.36932 78.2731 9.50426 78.6879 9.77415C79.1055 10.044 79.4322 10.4318 79.668 10.9375C79.9066 11.4403 80.0259 12.0426 80.0259 12.7443C80.0259 13.4432 79.908 14.0455 79.6722 14.5511C79.4364 15.0568 79.1112 15.4474 78.6964 15.723C78.2844 15.9957 77.81 16.1321 77.2731 16.1321C76.8668 16.1321 76.5373 16.0639 76.2844 15.9276C76.0344 15.7912 75.8384 15.6335 75.6964 15.4545C75.5572 15.2727 75.4492 15.1165 75.3725 14.9858H75.2958V18.4545H74.1282ZM75.2745 12.7273C75.2745 13.2017 75.3427 13.6179 75.479 13.9759C75.6183 14.3338 75.8185 14.6136 76.0799 14.8153C76.3441 15.017 76.6665 15.1179 77.0472 15.1179C77.445 15.1179 77.7773 15.0128 78.0444 14.8026C78.3114 14.5923 78.5117 14.3068 78.6452 13.946C78.7816 13.5824 78.8498 13.1761 78.8498 12.7273C78.8498 12.2841 78.783 11.8864 78.6495 11.5341C78.516 11.179 78.3157 10.8977 78.0487 10.6903C77.7816 10.483 77.4478 10.3793 77.0472 10.3793C76.6609 10.3793 76.3356 10.4773 76.0714 10.6733C75.81 10.8693 75.6112 11.1435 75.4748 11.4957C75.3413 11.848 75.2745 12.2585 75.2745 12.7273ZM85.6371 13.3026V9.45455H86.8047V16H85.6541V14.875H85.5859C85.4325 15.2188 85.1911 15.5071 84.8615 15.7401C84.5348 15.9702 84.1257 16.0852 83.6342 16.0852C83.2195 16.0852 82.8516 15.9929 82.5305 15.8082C82.2095 15.6236 81.9567 15.3494 81.772 14.9858C81.5902 14.6193 81.4993 14.1619 81.4993 13.6136V9.45455H82.6669V13.4943C82.6669 13.9545 82.7947 14.321 83.0504 14.5938C83.3061 14.8665 83.6357 15.0028 84.0391 15.0028C84.2834 15.0028 84.5277 14.9418 84.772 14.8196C85.0192 14.6946 85.2251 14.5071 85.3899 14.2571C85.5547 14.0071 85.6371 13.6889 85.6371 13.3026ZM91.5401 9.45455V10.4091H88.0373V9.45455H91.5401ZM89.0046 7.88636H90.1722V14.0994C90.1722 14.358 90.2106 14.554 90.2873 14.6875C90.3668 14.8182 90.4677 14.9062 90.5898 14.9517C90.7148 14.9943 90.8484 15.0156 90.9904 15.0156C91.0984 15.0156 91.1893 15.0099 91.2631 14.9986C91.337 14.9844 91.3952 14.973 91.4379 14.9645L91.6594 15.9574C91.5856 15.983 91.4833 16.0099 91.3526 16.0384C91.2219 16.0696 91.0586 16.0852 90.8626 16.0852C90.5472 16.0881 90.2475 16.0284 89.9634 15.9062C89.6822 15.7812 89.4521 15.5909 89.2731 15.3352C89.0941 15.0767 89.0046 14.7528 89.0046 14.3636V7.88636ZM95.7045 16.1364C95.0653 16.1364 94.5142 15.9972 94.0511 15.7188C93.5909 15.4375 93.2358 15.0455 92.9858 14.5426C92.7386 14.0369 92.6151 13.4474 92.6151 12.7741C92.6151 12.1037 92.7386 11.5128 92.9858 11.0014C93.2358 10.4872 93.5852 10.0866 94.0341 9.79972C94.483 9.51278 95.0071 9.36932 95.6065 9.36932C95.9673 9.36932 96.3182 9.42898 96.6591 9.5483C97 9.66477 97.3068 9.85227 97.5795 10.1108C97.8551 10.3693 98.0724 10.7074 98.2315 11.125C98.3935 11.5426 98.4744 12.0511 98.4744 12.6506V13.0938H93.331V12.1733H97.3153C97.3153 11.8239 97.2443 11.5142 97.1023 11.2443C96.9631 10.9716 96.7656 10.7571 96.5099 10.6009C96.2571 10.4418 95.9588 10.3622 95.6151 10.3622C95.2401 10.3622 94.9148 10.4545 94.6392 10.6392C94.3636 10.821 94.1506 11.0597 94 11.3551C93.8523 11.6506 93.7784 11.9673 93.7784 12.3054V12.983C93.7784 13.4432 93.8594 13.8338 94.0213 14.1548C94.1832 14.4759 94.4091 14.7202 94.6989 14.8878C94.9886 15.0554 95.3253 15.1392 95.7088 15.1392C95.9616 15.1392 96.1903 15.1037 96.3949 15.0327C96.5994 14.9616 96.7756 14.8537 96.9233 14.7088C97.0739 14.5639 97.1903 14.3849 97.2727 14.1719L98.3849 14.4105C98.2855 14.7543 98.1122 15.0568 97.8651 15.3182C97.6207 15.5767 97.3153 15.7784 96.9489 15.9233C96.5824 16.0653 96.1676 16.1364 95.7045 16.1364ZM99.9446 16V9.45455H101.074V10.473H101.142C101.261 10.1321 101.473 9.8608 101.777 9.65909C102.084 9.45455 102.432 9.35227 102.821 9.35227C102.898 9.35227 102.99 9.35511 103.098 9.3608C103.209 9.36648 103.295 9.37358 103.358 9.3821V10.5199C103.313 10.5085 103.226 10.4943 103.098 10.4773C102.973 10.4574 102.844 10.4474 102.71 10.4474C102.403 10.4474 102.129 10.5114 101.888 10.6392C101.649 10.767 101.46 10.9446 101.321 11.1719C101.182 11.3991 101.112 11.6577 101.112 11.9474V16H99.9446Z" fill="#BCCFDC"/>
</svg>
