<svg width="30" height="23" viewBox="0 0 30 23" fill="none" xmlns="http://www.w3.org/2000/svg">
<path fill-rule="evenodd" clip-rule="evenodd" d="M26.1011 9.27441L26.25 9.20034V4.68591C26.25 4.37521 26.1243 4.07724 25.9005 3.85755C25.6768 3.63785 25.3733 3.51443 25.0568 3.51443H14.7159C14.4577 3.51443 14.2065 3.43222 14 3.28014L9.86364 0.234295C9.6571 0.0822115 9.4059 0 9.14773 0H1.19318C0.87673 0 0.57324 0.123423 0.349475 0.343118C0.12571 0.562813 0 0.860782 0 1.17148V22.2581L9.64656e-05 22.258L0 22.2583H25.7686L29.9399 10.6986C29.9986 10.5359 30.0146 10.3627 29.9866 10.1932C29.9586 10.0237 29.8874 9.86283 29.7789 9.72375C29.6704 9.58467 29.5276 9.4714 29.3624 9.39328C29.1972 9.31515 29.0143 9.27441 28.8287 9.27441H26.1011ZM1.5 18.1014L4.41823 10.0142C4.49597 9.79881 4.64512 9.61143 4.84455 9.47865C5.04398 9.34587 5.28359 9.27441 5.52942 9.27441H24.7518C24.7506 9.24987 24.75 9.22518 24.75 9.20034V5.01443H14.7159C14.14 5.01443 13.5766 4.83119 13.1106 4.488L9.05277 1.5H1.5V18.1014ZM24.7152 20.7583H2.13594L5.7386 10.7744H28.3179L24.7152 20.7583Z" fill="#102D42"/>
</svg>
