<svg width="80" height="80" viewBox="0 0 80 80" fill="none" xmlns="http://www.w3.org/2000/svg">
<circle cx="40" cy="40" r="40" fill="#FFECEF"/>
<g clip-path="url(#clip0_87_784)">
<path d="M39.9985 73.3214C33.4049 73.3236 26.9587 71.3702 21.4754 67.7083C15.9921 64.0464 11.7181 58.8405 9.19379 52.7492C6.66953 46.6579 6.00851 39.9548 7.29434 33.4878C8.58017 27.0207 11.7551 21.0803 16.4175 16.4179C21.0799 11.7555 27.0203 8.58059 33.4873 7.29476C39.9544 6.00893 46.6575 6.66996 52.7488 9.19422C58.8401 11.7185 64.046 15.9926 67.7079 21.4759C71.3697 26.9592 73.3232 33.4053 73.321 39.9989C73.3096 48.8331 69.7952 57.3022 63.5485 63.5489C57.3017 69.7956 48.8327 73.31 39.9985 73.3214V73.3214ZM39.9985 9.32449C33.9312 9.32235 27.9996 11.1196 22.9538 14.4888C17.9079 17.8581 13.9746 22.648 11.6513 28.2528C9.32798 33.8577 8.71898 40.0256 9.90134 45.9766C11.0837 51.9276 14.0043 57.3942 18.2938 61.6852C22.5832 65.9762 28.0489 68.8987 33.9994 70.0832C39.95 71.2676 46.1182 70.6608 51.7238 68.3395C57.3295 66.0181 62.1208 62.0865 65.4918 57.0419C68.8628 51.9972 70.6621 46.0662 70.6621 39.9989C70.6536 31.8681 67.4205 24.0725 61.6722 18.3221C55.9238 12.5717 48.1294 9.33593 39.9985 9.32449V9.32449Z" fill="#F2385A"/>
</g>
<path fill-rule="evenodd" clip-rule="evenodd" d="M32.771 28.4341V32.7715H25.9801C24.3657 32.7715 23.1323 34.1084 23.1323 35.6631V55.9043C23.1323 57.459 24.3657 58.7959 25.9801 58.7959H54.0199C55.6343 58.7959 56.8677 57.459 56.8677 55.9043V35.6631C56.8677 34.1084 55.6343 32.7715 54.0199 32.7715H47.229V28.4341C47.229 26.5168 46.4674 24.6781 45.1117 23.3224C43.756 21.9667 41.9173 21.2051 40 21.2051C38.0828 21.2051 36.244 21.9667 34.8883 23.3224C33.5326 24.6781 32.771 26.5168 32.771 28.4341ZM53.9761 35.6631H45.7832H34.2168H26.0239V55.9043H53.9761V35.6631ZM40 41.4463C38.6692 41.4463 37.5903 42.5251 37.5903 43.856C37.5903 45.1868 38.6692 46.2656 40 46.2656C41.3308 46.2656 42.4097 45.1868 42.4097 43.856C42.4097 42.5251 41.3308 41.4463 40 41.4463ZM34.6987 43.856C34.6987 40.9281 37.0722 38.5547 40 38.5547C42.9278 38.5547 45.3013 40.9281 45.3013 43.856C45.3013 46.2829 43.6704 48.3289 41.4449 48.9579V51.5669C41.4449 52.3654 40.7976 53.0127 39.9991 53.0127C39.2006 53.0127 38.5533 52.3654 38.5533 51.5669V48.9574C36.3286 48.3278 34.6987 46.2822 34.6987 43.856ZM40 24.0967C38.8497 24.0967 37.7464 24.5537 36.933 25.3671C36.1196 26.1805 35.6626 27.2837 35.6626 28.4341V32.7715H44.3374V28.4341C44.3374 27.2837 43.8804 26.1805 43.067 25.3671C42.2536 24.5537 41.1504 24.0967 40 24.0967Z" fill="#F2385A"/>
<defs>
<clipPath id="clip0_87_784">
<rect width="66.6667" height="66.6667" fill="white" transform="translate(6.66669 6.66699)"/>
</clipPath>
</defs>
</svg>
