<svg width="25" height="24" viewBox="0 0 25 24" fill="none" xmlns="http://www.w3.org/2000/svg">
<path d="M12.5054 2.25C8.43371 2.25 7.24291 2.2542 7.01144 2.2734C6.17587 2.34286 5.65592 2.47442 5.08948 2.75644C4.65294 2.97321 4.30866 3.22448 3.96888 3.57671C3.35008 4.21907 2.97505 5.00933 2.83929 5.94871C2.77328 6.40475 2.75408 6.49776 2.75018 8.82716C2.74868 9.60362 2.75018 10.6255 2.75018 11.9962C2.75018 16.0645 2.75468 17.2541 2.77418 17.4851C2.84169 18.2982 2.9692 18.8098 3.23922 19.3693C3.75526 20.4404 4.74085 21.2445 5.90195 21.5445C6.30398 21.648 6.74802 21.705 7.31807 21.732C7.55959 21.7425 10.0213 21.75 12.4845 21.75C14.9477 21.75 17.4109 21.747 17.6464 21.735C18.3065 21.7039 18.6898 21.6525 19.1136 21.543C20.2822 21.2415 21.2497 20.4494 21.7763 19.3633C22.0411 18.8173 22.1753 18.2862 22.2361 17.5156C22.2493 17.3476 22.2548 14.6688 22.2548 11.9936C22.2548 9.318 22.2488 6.64417 22.2356 6.47616C22.1741 5.69309 22.0399 5.16655 21.7665 4.61C21.5423 4.15441 21.2932 3.81418 20.9317 3.4663C20.2865 2.85005 19.4974 2.47502 18.5572 2.33941C18.1016 2.27355 18.0108 2.25405 15.6796 2.25H12.5054Z" fill="url(#paint0_radial_2313_29184)"/>
<path d="M12.5054 2.25C8.43371 2.25 7.24291 2.2542 7.01144 2.2734C6.17587 2.34286 5.65592 2.47442 5.08948 2.75644C4.65294 2.97321 4.30866 3.22448 3.96888 3.57671C3.35008 4.21907 2.97505 5.00933 2.83929 5.94871C2.77328 6.40475 2.75408 6.49776 2.75018 8.82716C2.74868 9.60362 2.75018 10.6255 2.75018 11.9962C2.75018 16.0645 2.75468 17.2541 2.77418 17.4851C2.84169 18.2982 2.9692 18.8098 3.23922 19.3693C3.75526 20.4404 4.74085 21.2445 5.90195 21.5445C6.30398 21.648 6.74802 21.705 7.31807 21.732C7.55959 21.7425 10.0213 21.75 12.4845 21.75C14.9477 21.75 17.4109 21.747 17.6464 21.735C18.3065 21.7039 18.6898 21.6525 19.1136 21.543C20.2822 21.2415 21.2497 20.4494 21.7763 19.3633C22.0411 18.8173 22.1753 18.2862 22.2361 17.5156C22.2493 17.3476 22.2548 14.6688 22.2548 11.9936C22.2548 9.318 22.2488 6.64417 22.2356 6.47616C22.1741 5.69309 22.0399 5.16655 21.7665 4.61C21.5423 4.15441 21.2932 3.81418 20.9317 3.4663C20.2865 2.85005 19.4974 2.47502 18.5572 2.33941C18.1016 2.27355 18.0108 2.25405 15.6796 2.25H12.5054Z" fill="url(#paint1_radial_2313_29184)"/>
<path d="M12.5005 4.80078C10.545 4.80078 10.2995 4.80933 9.53148 4.84429C8.76491 4.87939 8.24167 5.00075 7.78383 5.17881C7.31024 5.36273 6.9085 5.60875 6.50827 6.00913C6.10773 6.40937 5.86171 6.8111 5.6772 7.28454C5.49868 7.74253 5.37717 8.26592 5.34267 9.03219C5.30832 9.80025 5.29932 10.0458 5.29932 12.0014C5.29932 13.957 5.30802 14.2016 5.34282 14.9697C5.37807 15.7363 5.49943 16.2595 5.67735 16.7173C5.86141 17.1909 6.10743 17.5927 6.50782 17.9929C6.9079 18.3934 7.30964 18.6401 7.78293 18.824C8.24107 19.002 8.76446 19.1234 9.53087 19.1585C10.2989 19.1934 10.5442 19.202 12.4996 19.202C14.4553 19.202 14.7 19.1934 15.4681 19.1585C16.2346 19.1234 16.7585 19.002 17.2166 18.824C17.6901 18.6401 18.0912 18.3934 18.4913 17.9929C18.8918 17.5927 19.1378 17.1909 19.3224 16.7175C19.4994 16.2595 19.6209 15.7361 19.6569 14.9698C19.6914 14.2018 19.7004 13.957 19.7004 12.0014C19.7004 10.0458 19.6914 9.8004 19.6569 9.03234C19.6209 8.26577 19.4994 7.74253 19.3224 7.28469C19.1378 6.8111 18.8918 6.40937 18.4913 6.00913C18.0907 5.6086 17.6902 5.36258 17.2162 5.17881C16.7571 5.00075 16.2336 4.87939 15.467 4.84429C14.699 4.80933 14.4544 4.80078 12.4983 4.80078H12.5005ZM11.8546 6.09839C12.0463 6.09809 12.2602 6.09839 12.5005 6.09839C14.4231 6.09839 14.651 6.10529 15.4102 6.13979C16.1122 6.1719 16.4933 6.28921 16.7471 6.38777C17.0831 6.51828 17.3227 6.67429 17.5746 6.92631C17.8266 7.17833 17.9826 7.41835 18.1134 7.75438C18.212 8.0079 18.3294 8.38893 18.3614 9.09099C18.3959 9.85006 18.4034 10.0781 18.4034 11.9997C18.4034 13.9214 18.3959 14.1494 18.3614 14.9085C18.3293 15.6105 18.212 15.9916 18.1134 16.2451C17.9829 16.5811 17.8266 16.8204 17.5746 17.0723C17.3225 17.3243 17.0833 17.4803 16.7471 17.6108C16.4936 17.7098 16.1122 17.8268 15.4102 17.8589C14.6511 17.8934 14.4231 17.9009 12.5005 17.9009C10.5778 17.9009 10.3499 17.8934 9.59088 17.8589C8.88882 17.8265 8.50779 17.7092 8.25382 17.6107C7.91779 17.4802 7.67777 17.3241 7.42575 17.0721C7.17373 16.8201 7.01771 16.5807 6.8869 16.2445C6.78834 15.991 6.67088 15.6099 6.63893 14.9079C6.60443 14.1488 6.59753 13.9208 6.59753 11.9979C6.59753 10.0751 6.60443 9.84826 6.63893 9.08919C6.67103 8.38714 6.78834 8.0061 6.8869 7.75228C7.01741 7.41625 7.17373 7.17623 7.42575 6.92421C7.67777 6.67219 7.91779 6.51618 8.25382 6.38537C8.50764 6.28636 8.88882 6.16935 9.59088 6.13709C10.2551 6.10709 10.5126 6.09809 11.8546 6.09659V6.09839ZM16.3442 7.29399C15.8671 7.29399 15.4801 7.68057 15.4801 8.15777C15.4801 8.63481 15.8671 9.02184 16.3442 9.02184C16.8212 9.02184 17.2082 8.63481 17.2082 8.15777C17.2082 7.68072 16.8212 7.29369 16.3442 7.29369V7.29399ZM12.5005 8.30358C10.4584 8.30358 8.80271 9.95927 8.80271 12.0014C8.80271 14.0435 10.4584 15.6985 12.5005 15.6985C14.5426 15.6985 16.1977 14.0435 16.1977 12.0014C16.1977 9.95927 14.5425 8.30358 12.5004 8.30358H12.5005ZM12.5005 9.60119C13.826 9.60119 14.9007 10.6757 14.9007 12.0014C14.9007 13.3269 13.826 14.4016 12.5005 14.4016C11.1749 14.4016 10.1003 13.3269 10.1003 12.0014C10.1003 10.6757 11.1749 9.60119 12.5005 9.60119Z" fill="white"/>
<defs>
<radialGradient id="paint0_radial_2313_29184" cx="0" cy="0" r="1" gradientUnits="userSpaceOnUse" gradientTransform="translate(7.93064 23.2519) rotate(-90) scale(19.3259 17.9795)">
<stop stop-color="#FFDD55"/>
<stop offset="0.1" stop-color="#FFDD55"/>
<stop offset="0.5" stop-color="#FF543E"/>
<stop offset="1" stop-color="#C837AB"/>
</radialGradient>
<radialGradient id="paint1_radial_2313_29184" cx="0" cy="0" r="1" gradientUnits="userSpaceOnUse" gradientTransform="translate(-0.517732 3.65475) rotate(78.6776) scale(8.63887 35.6187)">
<stop stop-color="#3771C8"/>
<stop offset="0.128" stop-color="#3771C8"/>
<stop offset="1" stop-color="#6600FF" stop-opacity="0"/>
</radialGradient>
</defs>
</svg>
