<svg xmlns="http://www.w3.org/2000/svg" width="59" height="50" viewBox="0 0 59 50">
    <g fill="none" fill-rule="evenodd">
        <path fill="#BCCFED" d="M39.77.07c-.301-.147-.547.001-.547.33v40.323l18.098 8.829c.902.44 1.64-.005 1.64-.989V9.747a.51.51 0 0 0-.29-.457L39.77.07"/>
        <path fill="#C8D9F2" d="M19.486 31.108L38.905.324a.691.691 0 0 1 .866-.241l18.758 9.15a.429.429 0 0 1 .18.615L39.225 40.736l-19.739-9.628"/>
        <path fill="#BCCFED" d="M2.704.936c-1.199-.583-1.605-.152-.902.958L20.2 30.972l19.676 9.569L20.327 9.645a.844.844 0 0 0-.344-.307L2.703.936"/>
        <path fill="#C8D9F2" d="M19.98 48.846c0 .98-.743 1.423-1.652.985L1.187 41.565C.58 41.273.085 40.499.085 39.845v-38.4C.085.792.581.496 1.187.79l18.548 8.944c.15.073.245.221.245.383v38.73"/>
    </g>
</svg>
