<svg xmlns="http://www.w3.org/2000/svg" width="90" height="44" viewBox="0 0 90 44">
    <g fill="#C8D9F2" fill-rule="evenodd">
        <path d="M1.28 1.343c-.02-.462.156-.837.78-.837.622 0 6.94.198 11.189.198C22.059.704 24.172 0 25.684 0c.846.022 1.024.66 1.024 1.034 0 .375-.4 1.167-.4 2.201 0 1.035.244 2.135.244 3.037 0 .903-.778 1.21-1.201 1.21-.423 0-.689-.153-.712-.924-.045-1.474 1.045-3.609-9.655-3.609-5.45 0-5.584.617-5.584 2.333 0 1.717.045 7.395.045 8.275 0 .88.267 1.145.979 1.145h7.808c1.513 0 3.048-.815 3.226-2.927.067-1.123.378-1.167.934-1.167s1.068.44.979 1.497c-.09 1.056-.311 2.179-.311 3.697 0 1.519.311 3.015.311 4.115 0 1.101-1.468 1.365-1.757.177-.29-1.189-.713-3.192-4.138-3.192h-6.941c-.756 0-1.135.419-1.135 1.651v8.782c0 1.518.468 3.147 3.582 3.147s8.765.33 11.346-1.673c1.112-.903 1.446-2.157 1.824-4.204.178-.946 2.247-.924 2.158 1.255-.067 1.013-1.048 3.186-1.048 4.581 0 1.167.27 2.728-.821 2.728-.922 0-.534-.465-4.583-.465s-18.019.089-20.355.089c-.867 0-1.046-.243-1.046-.77 0-.529.312-.925 1.046-.925s3.849.044 3.849-3.873V6.867c0-2.113-.468-4.226-3.093-4.49-1.023-.088-.956-.528-.979-1.034M29.671 13.551c0-.654.35-.931 1.138-1.193 1.487-.568 3.193-2.228 4.636-6.159.459-1.244 2.033-.917 1.837.35-.197 1.266-.481 3.603-.481 4.935h6.342c.634 0 .743.765.743 1.376 0 .611-.175 1.114-.721 1.114H36.8v10.962c0 3.953 1.356 4.87 3.17 4.87 1.05 0 1.903-.415 2.69-.96.526-.394 1.706.545 1.116 1.31-.59.764-2.668 3.013-5.642 3.013-2.975 0-5.118-2.205-5.074-5.896.044-3.69.197-9.849.197-10.7 0-.852-1.115-2.053-2.362-2.053-1.028-.022-1.225-.56-1.225-.969M55.678 10.965c2.097 0 3.725.737 4.416.737.692 0 .96-.871 1.718-.871s.936.871.736 1.609c-.201.737-.335 2.48-.246 4.424.023.67-.513 1.073-1.048 1.073s-.736-.224-.96-1.252c-.222-1.028-1.136-3.508-4.75-3.508-2.61 0-3.613 1.743-3.613 2.883s.611 2.229 3.39 3.44c2.922 1.274 8.32 2.637 8.32 7.821-.179 4.872-4.996 6.414-7.829 6.414-2.386 0-4.617-.716-5.598-.716-.981 0-1.36.827-1.985.827-.624 0-1.07-.715-.825-1.452.245-.738.557-1.296.557-2.034 0-.737-.423-2.458-.178-3.888.246-1.43 2.163-1.63 2.141-.245-.022 1.385.602 5.34 5.598 5.34 4.037 0 4.506-2.816 4.506-3.62 0-.983-.201-2.391-5.041-4.312-4.84-1.922-6.713-3.71-6.713-6.771s2.72-5.9 7.404-5.9M65 12.238c0-.465.021-.686.547-.686.525 0 3.306.088 4.773.088 1.467 0 4.161-.088 4.708-.088.395 0 .285.487.285.819 0 .331.044.884-.657.884-.7 0-2.014.243-2.014 1.416 0 1.172.309 1.499.766 2.765.504 1.393 4.139 9.82 4.139 9.82s2.846-5.906 3.7-7.564c.854-1.66 1.38-3.739 1.38-4.667 0-.93-.942-1.549-1.73-1.703-.789-.155-1.183-.111-1.183-1.062 0-.487.088-.752.482-.752s2.759.154 4.51.154c1.753 0 3.789-.11 4.358-.11.526 0 .373.442.373.819 0 .375-.044.751-.504.818-.46.066-2.496-.022-4.62 4.534S77.984 31.46 74.94 37.431C73.364 40.57 70.386 44 67.277 44c-1.62.022-2.256-1.394-2.256-2.102 0-.707.394-1.858 2.234-1.858 1.226 0 1.555.598 2.146.598 1.226 0 4.335-3.009 5.211-8.405.132-1.239-1.13-4.273-1.62-5.64-.73-2.035-2.949-7.934-4.555-11.436-.548-1.196-1.992-1.813-2.912-1.924-.438-.088-.526-.243-.526-.995"/>
    </g>
</svg>
