<svg width="81" height="80" viewBox="0 0 81 80" fill="none" xmlns="http://www.w3.org/2000/svg">
<g clip-path="url(#clip0_2229_49253)">
<path d="M60.2003 0H20.7997C9.58847 0 0.5 9.08847 0.5 20.2997V59.7003C0.5 70.9115 9.58847 80 20.7997 80H60.2003C71.4115 80 80.5 70.9115 80.5 59.7003V20.2997C80.5 9.08847 71.4115 0 60.2003 0Z" fill="#F2385A"/>
<path d="M33.1863 50.3064L51.4151 19.0648C51.504 18.9126 51.5511 18.7397 51.5516 18.5635C51.5522 18.3873 51.5061 18.2141 51.4182 18.0614C51.3303 17.9087 51.2035 17.782 51.0508 17.694C50.8982 17.6061 50.7249 17.56 50.5487 17.5606H38.8057C38.5135 17.5615 38.2266 17.639 37.9736 17.7853C37.7206 17.9315 37.5104 18.1415 37.3638 18.3943L18.4763 50.7544C18.3286 51.0079 18.2504 51.2959 18.2495 51.5893C18.2487 51.8827 18.3253 52.1711 18.4715 52.4254C18.6178 52.6797 18.8286 52.8909 19.0826 53.0377C19.3366 53.1845 19.6249 53.2617 19.9183 53.2615H28.1277L24.5852 59.3377C24.4382 59.5906 24.3601 59.8776 24.3588 60.17C24.3576 60.4625 24.4331 60.7502 24.5779 61.0043C24.7226 61.2584 24.9316 61.4701 25.1839 61.6181C25.4361 61.7661 25.7228 61.8453 26.0153 61.8477H55.5984C55.9485 61.8477 56.2924 61.7559 56.5959 61.5815C56.8994 61.4071 57.1518 61.1562 57.3281 60.8538L62.6033 51.8107C62.6921 51.6587 62.7392 51.4861 62.7399 51.3101C62.7405 51.1342 62.6948 50.9612 62.6072 50.8086C62.5196 50.656 62.3933 50.5292 62.241 50.441C62.0888 50.3528 61.9159 50.3064 61.74 50.3064H33.1863ZM39.5444 20.5156H47.1427L29.7625 50.3064H22.1583L39.5444 20.5156ZM55.0644 58.8897H28.2672L31.5516 53.2526H58.3547L55.0644 58.8897Z" fill="white"/>
</g>
<defs>
<clipPath id="clip0_2229_49253">
<rect width="80" height="80" fill="white" transform="translate(0.5)"/>
</clipPath>
</defs>
</svg>
