<svg width="25" height="24" viewBox="0 0 25 24" fill="none" xmlns="http://www.w3.org/2000/svg">
<path d="M12.4995 2C6.97651 2 2.49951 6.477 2.49951 12C2.49951 17.523 6.97651 22 12.4995 22C18.0225 22 22.4995 17.523 22.4995 12C22.4995 6.477 18.0225 2 12.4995 2Z" fill="url(#paint0_linear_2313_29163)"/>
<path d="M13.853 14.65H16.441L16.8475 12.021H13.853V10.584C13.853 9.49197 14.21 8.52347 15.2315 8.52347H16.873V6.22947C16.5845 6.19047 15.9745 6.10547 14.822 6.10547C12.415 6.10547 11.004 7.37647 11.004 10.2725V12.0215H8.52954V14.6505H11.0035V21.8765C11.4935 21.9495 11.99 21.9995 12.4995 21.9995C12.96 21.9995 13.4095 21.9575 13.853 21.8975V14.65Z" fill="white"/>
<defs>
<linearGradient id="paint0_linear_2313_29163" x1="5.49601" y1="4.9965" x2="20.807" y2="20.3075" gradientUnits="userSpaceOnUse">
<stop stop-color="#2AA4F4"/>
<stop offset="1" stop-color="#007AD9"/>
</linearGradient>
</defs>
</svg>
