<svg width="40" height="40" viewBox="0 0 40 40" fill="none" xmlns="http://www.w3.org/2000/svg">
<rect width="40" height="40" rx="8" fill="#F2385A"/>
<g clip-path="url(#clip0_8853_161790)">
<path d="M16.5129 24.8535L25.0695 10.2049C25.1107 10.1335 25.1325 10.0525 25.1325 9.97008C25.1325 9.88762 25.1108 9.80661 25.0696 9.73519C25.0283 9.66376 24.969 9.60442 24.8976 9.56314C24.8261 9.52186 24.745 9.50008 24.6625 9.5H19.1455C19.0085 9.50004 18.8739 9.53583 18.7551 9.60384C18.6362 9.67185 18.5372 9.76971 18.4679 9.88771L9.60784 25.0626C9.53893 25.1813 9.50249 25.3161 9.5022 25.4534C9.50191 25.5906 9.53777 25.7255 9.60618 25.8446C9.67459 25.9636 9.77314 26.0626 9.89195 26.1315C10.0108 26.2005 10.1456 26.237 10.2831 26.2375H14.1367L12.4734 29.0878C12.4044 29.2067 12.3679 29.3417 12.3677 29.4791C12.3675 29.6166 12.4036 29.7516 12.4723 29.8707C12.541 29.9899 12.6399 30.0888 12.759 30.1576C12.8781 30.2264 13.0133 30.2626 13.1509 30.2627H27.0316C27.1962 30.2621 27.3578 30.2184 27.5002 30.1359C27.6427 30.0535 27.7609 29.9351 27.8432 29.7927L30.3182 25.5631C30.3594 25.4919 30.3812 25.4111 30.3813 25.3288C30.3814 25.2466 30.3599 25.1657 30.3189 25.0944C30.278 25.023 30.219 24.9636 30.1479 24.9222C30.0767 24.8807 29.9959 24.8587 29.9136 24.8582L16.5129 24.8535ZM19.496 10.8864H23.065L14.9107 24.8535H11.337L19.496 10.8864ZM26.7893 28.8787H14.2049L15.7459 26.2398H28.3208L26.7893 28.8787Z" fill="white"/>
</g>
<defs>
<clipPath id="clip0_8853_161790">
<rect width="21" height="21" fill="white" transform="translate(9.5 9.5)"/>
</clipPath>
</defs>
</svg>
