<svg width="25" height="24" viewBox="0 0 25 24" fill="none" xmlns="http://www.w3.org/2000/svg">
<path d="M10.7255 9.76823V8.94925C10.4413 8.90888 10.1545 8.88812 9.86754 8.88672C6.35665 8.88672 3.50024 11.7436 3.50024 15.2545C3.50024 17.4081 4.57659 19.3146 6.21852 20.4675C5.11907 19.2918 4.50776 17.742 4.50869 16.1323C4.50869 12.6713 7.28389 9.84896 10.7255 9.76823Z" fill="#00F2EA"/>
<path d="M10.8757 19.0407C12.4423 19.0407 13.72 17.7945 13.7783 16.2414L13.7837 2.37778H16.3165C16.2624 2.08822 16.2351 1.79446 16.2348 1.5H12.7755L12.7697 15.3641C12.712 16.9167 11.4336 18.1624 9.86754 18.1624C9.39738 18.1627 8.93422 18.0481 8.51843 17.8285C9.06325 18.5887 9.94057 19.0397 10.8757 19.0407ZM21.0475 7.08378V6.31333C20.1167 6.31426 19.2058 6.04337 18.4267 5.53424C19.1099 6.32079 20.0294 6.86445 21.0479 7.08378" fill="#00F2EA"/>
<path d="M18.4269 5.53397C17.6634 4.66039 17.2427 3.53925 17.2432 2.37891H16.3164C16.5588 3.67481 17.3216 4.81509 18.4269 5.53397ZM9.86769 12.3472C8.26239 12.349 6.96158 13.6498 6.95972 15.2551C6.96065 16.3359 7.56077 17.3271 8.51812 17.8292C8.16042 17.3359 7.96793 16.7426 7.96793 16.1334C7.96956 14.5281 9.27037 13.2268 10.8759 13.2249C11.1755 13.2249 11.4627 13.2744 11.7338 13.3596V9.82791C11.4496 9.78754 11.1629 9.76678 10.8759 9.76538C10.8255 9.76538 10.7758 9.76818 10.7259 9.76911V12.4818C10.4482 12.3936 10.1589 12.3481 9.86769 12.3472Z" fill="#FF004F"/>
<path d="M21.0475 7.08273V9.77137C19.2534 9.77137 17.5919 9.19762 16.2346 8.22371V15.2539C16.2346 18.7648 13.3787 21.6212 9.86777 21.6212C8.51097 21.6212 7.25286 21.193 6.21875 20.4669C7.42062 21.763 9.10829 22.4994 10.8757 22.499C14.3866 22.499 17.243 19.6426 17.243 16.1321V9.10195C18.6451 10.1102 20.329 10.6517 22.0559 10.6496V7.18936C21.7096 7.18936 21.3729 7.1518 21.0472 7.08203" fill="#FF004F"/>
<path d="M16.2345 15.2551V8.22494C17.6365 9.23339 19.3205 9.77471 21.0473 9.77261V7.0842C20.0291 6.86464 19.1095 6.32075 18.4266 5.53397C17.3213 4.81509 16.5586 3.67481 16.3161 2.37891H13.7836L13.7782 16.2426C13.7201 17.7951 12.4422 19.0413 10.8756 19.0413C9.94067 19.0404 9.06312 18.5891 8.51853 17.8294C7.56119 17.3275 6.96083 16.3364 6.95967 15.2554C6.96153 13.6501 8.26234 12.3493 9.86764 12.3474C10.1668 12.3474 10.454 12.3964 10.7256 12.482V9.76934C7.28399 9.85007 4.50879 12.6724 4.50879 16.1334C4.50879 17.807 5.15907 19.3307 6.21862 20.4686C7.28679 21.2206 8.56147 21.6236 9.86764 21.6224C13.3788 21.6224 16.2345 18.766 16.2345 15.2551Z" fill="black"/>
</svg>
