<svg xmlns="http://www.w3.org/2000/svg" width="160" height="160" viewBox="0 0 160 160" fill="none">
  <path d="M53.724 118.316L119.295 5.43232C119.611 4.88205 119.778 4.25788 119.778 3.62248C119.778 2.98708 119.612 2.36282 119.296 1.81238C118.98 1.26195 118.525 0.80471 117.977 0.486587C117.43 0.168464 116.808 0.000651349 116.176 0L73.8982 0C72.8485 0.00027946 71.8172 0.276142 70.9064 0.800231C69.9956 1.32432 69.2371 2.07843 68.7059 2.98778L0.809561 119.928C0.281445 120.843 0.00225518 121.881 1.36052e-05 122.939C-0.00222797 123.996 0.272557 125.036 0.79679 125.953C1.32102 126.871 2.07626 127.633 2.98671 128.165C3.89715 128.696 4.93077 128.978 5.98382 128.981H35.515L22.7686 150.946C22.2397 151.863 21.9605 152.903 21.9591 153.962C21.9576 155.021 22.234 156.062 22.7604 156.98C23.2867 157.898 24.0445 158.66 24.9575 159.19C25.8704 159.72 26.9063 160 27.9609 160H134.331C135.592 159.996 136.831 159.659 137.922 159.023C139.013 158.388 139.92 157.476 140.551 156.378L159.517 123.785C159.832 123.236 159.999 122.613 160 121.979C160.001 121.345 159.836 120.722 159.522 120.172C159.208 119.622 158.756 119.165 158.211 118.846C157.666 118.526 157.047 118.356 156.416 118.352L53.724 118.316ZM76.5845 10.6836H103.934L41.4464 118.316H14.0607L76.5845 10.6836ZM132.474 149.335H36.0378L47.8466 129H144.21L132.474 149.335Z" fill="#0E1419"/>
</svg>