<svg xmlns="http://www.w3.org/2000/svg" width="140" height="31" viewBox="0 0 140 31">
    <g fill="#C8D9F2" fill-rule="evenodd">
        <path d="M67.15 24.119c0 .927.77 1.686 1.709 1.686.94 0 1.709-.759 1.709-1.686V13.916c0-.927-.769-1.686-1.709-1.686-.94 0-1.709.759-1.709 1.686V24.12zm1.709-15.041c2.943 0 5.35 2.376 5.35 5.28v9.284c0 2.905-2.407 5.281-5.35 5.281-2.943 0-5.35-2.376-5.35-5.28v-9.284c0-2.905 2.407-5.281 5.35-5.281zM54.844 28.923h4.032V18.392l4.797-15.696H59.64l-2.784 9.863-2.783-9.863H50.04l4.804 15.72v10.507zm28.912 0h3.577V9.3h-3.577v14.958c-2.574 2.96-3.223.748-3.223-.363V9.299h-3.577V24.59c0 2.497.632 4.088 2.24 4.34 1.073.169 2.62.002 4.56-2.338v2.331zM118.816 24.89V13.17c.47-.525 1.099-.978 1.854-.93 1.732.11 1.558 2.214 1.558 2.214s-.028 7.778-.028 9.272c0 1.495-.606 2.021-1.616 2.049-.863.023-1.577-.68-1.768-.885zm-3.683 4.061h3.683v-2.088c.7.829 1.853 2.334 4.076 2.088 3.72-.411 3.041-5.141 3.041-5.141V13.735c0-3.322-1.223-4.65-3.387-4.65-1.77 0-3.249 1.498-3.73 2.045V2.696h-3.683V28.95zM108.236 28.924h3.507V9.434h-3.507V24.29c-2.522 2.939-3.158.742-3.158-.361V9.435h-3.506V24.62c0 2.48.62 4.06 2.196 4.31 1.05.167 2.567.001 4.468-2.323v2.316M93.05 28.978h4.161V6.447h4.36V2.696H88.69v3.75h4.36v22.532M135.85 17.18v-2.816a1.73 1.73 0 0 0-1.732-1.718 1.73 1.73 0 0 0-1.732 1.718v2.817h3.465zm-1.732-7.745c2.984 0 5.425 2.42 5.425 5.38v5.408h-7.157v4.535c0 .944.78 1.718 1.732 1.718a1.73 1.73 0 0 0 1.733-1.718v-2.226h3.692v1.74c0 2.96-2.441 5.38-5.425 5.38-2.983 0-5.424-2.42-5.424-5.38v-9.457c0-2.96 2.44-5.38 5.424-5.38zM19.084 22.358V9.053L30.717 15.5l-11.633 6.858zm27.554-8.49c-.07-5.049-.544-10.123-2.67-11.998-.82-.724-1.6-1.178-4.718-1.46C35.348.057 30.064.008 26.07.002c-1.65-.003-3.299-.003-4.947 0-3.995.006-9.28.055-13.181.408-3.118.282-3.898.736-4.718 1.46C1.06 3.777.608 8.995.55 14.129c-.01.957-.01 1.915.002 2.872.064 5.092.528 10.238 2.672 12.129.82.724 1.6 1.178 4.718 1.46 3.902.352 9.186.402 13.18.408 1.65.003 3.299.003 4.947 0 3.995-.006 9.28-.056 13.181-.409 3.118-.281 3.898-.735 4.718-1.459 2.126-1.875 2.6-6.949 2.67-11.998.016-1.087.016-2.177 0-3.264z"/>
    </g>
</svg>
