<svg width="18" height="18" viewBox="0 0 18 18" fill="none" xmlns="http://www.w3.org/2000/svg">
<path d="M6.0111 13.1601L13.3453 0.60423C13.3807 0.543024 13.3993 0.473598 13.3994 0.402923C13.3994 0.332248 13.3808 0.262813 13.3454 0.201589C13.3101 0.140364 13.2592 0.0895068 13.198 0.0541224C13.1367 0.018738 13.0672 7.24486e-05 12.9965 0L8.26763 0C8.15022 3.10839e-05 8.03486 0.0307148 7.93299 0.0890085C7.83112 0.147302 7.74627 0.231181 7.68686 0.332326L0.0925043 13.3394C0.0334333 13.4412 0.00220537 13.5567 0.00195465 13.6743C0.00170392 13.7919 0.0324392 13.9076 0.0910759 14.0096C0.149713 14.1116 0.234188 14.1965 0.336023 14.2556C0.437858 14.3147 0.55347 14.346 0.671257 14.3464H3.97438L2.54867 16.7895C2.48952 16.8915 2.45829 17.0071 2.45812 17.125C2.45796 17.2428 2.48887 17.3586 2.54775 17.4606C2.60662 17.5627 2.69139 17.6475 2.7935 17.7065C2.89562 17.7655 3.01148 17.7965 3.12944 17.7966H15.0271C15.1682 17.7961 15.3068 17.7586 15.4288 17.6879C15.5509 17.6172 15.6523 17.5158 15.7228 17.3938L17.8443 13.7684C17.8796 13.7073 17.8982 13.6381 17.8983 13.5676C17.8984 13.4971 17.88 13.4278 17.8449 13.3666C17.8098 13.3054 17.7592 13.2545 17.6982 13.219C17.6373 13.1835 17.568 13.1646 17.4974 13.1641L6.0111 13.1601ZM8.5681 1.18832H11.6272L4.63783 13.1601H1.57467L8.5681 1.18832ZM14.8194 16.6103H4.03286L5.3537 14.3484H16.1322L14.8194 16.6103Z" fill="#F2385A"/>
</svg>
