<svg width="112" height="112" viewBox="0 0 112 112" fill="none" xmlns="http://www.w3.org/2000/svg">
<g clip-path="url(#clip0_87_583)">
<path d="M42.0517 75.4144L76.278 16.8202C76.4431 16.5346 76.5301 16.2106 76.5302 15.8808C76.5303 15.551 76.4435 15.2269 76.2785 14.9412C76.1136 14.6555 75.8762 14.4182 75.5904 14.2531C75.3045 14.0879 74.9802 14.0008 74.65 14.0005H52.5821C52.0342 14.0006 51.4959 14.1438 51.0205 14.4159C50.5451 14.6879 50.1491 15.0793 49.8719 15.5513L14.4315 76.2509C14.1559 76.7259 14.0101 77.2649 14.009 77.8139C14.0078 78.3629 14.1512 78.9026 14.4249 79.3787C14.6985 79.8548 15.0927 80.2507 15.568 80.5266C16.0432 80.8025 16.5827 80.9487 17.1324 80.9505H32.547L25.8937 92.3516C25.6176 92.8273 25.4719 93.3672 25.4711 93.917C25.4703 94.4668 25.6146 95.0071 25.8894 95.4835C26.1641 95.9599 26.5597 96.3556 27.0362 96.6308C27.5127 96.906 28.0534 97.051 28.6039 97.0512H84.1265C84.785 97.0489 85.4314 96.874 86.0011 96.5442C86.5708 96.2143 87.0439 95.7409 87.3731 95.1713L97.2731 78.2529C97.4378 77.968 97.5248 77.6448 97.5253 77.3158C97.5258 76.9868 97.4398 76.6634 97.276 76.378C97.1121 76.0925 96.8761 75.8551 96.5916 75.6893C96.307 75.5235 95.9839 75.4352 95.6545 75.4332L42.0517 75.4144ZM53.9843 19.546H68.2602L35.643 75.4144H21.3483L53.9843 19.546ZM83.1572 91.5151H32.8199L38.9838 80.9599H89.2835L83.1572 91.5151Z" fill="#F2385A"/>
</g>
<defs>
<clipPath id="clip0_87_583">
<rect width="84" height="84" fill="white" transform="translate(14.0001 14.0005)"/>
</clipPath>
</defs>
</svg>
