<svg width="108" height="24" viewBox="0 0 108 24" fill="none" xmlns="http://www.w3.org/2000/svg">
<rect width="108" height="24" rx="4" fill="#F4FCFF"/>
<path d="M8.13247 16.2211L8.77209 17.2875C8.905 17.512 9.09605 17.6884 9.32033 17.8167L11.6047 14H7.03598C7.03598 14.2486 7.10243 14.4971 7.23534 14.7217L8.13247 16.2211Z" fill="#0066DA"/>
<path d="M14.2878 9.50815L12.0034 5.69141C11.7791 5.8197 11.5881 5.9961 11.4552 6.22061L7.23534 13.2767C7.10488 13.4964 7.03615 13.7451 7.03598 13.9983H11.6047L14.2878 9.50815Z" fill="#00AC47"/>
<path d="M19.2551 17.8167C19.4794 17.6884 19.6705 17.512 19.8034 17.2875L20.0692 16.8465L21.3401 14.7217C21.473 14.4971 21.5395 14.2486 21.5395 14H16.9705L17.9427 15.8442L19.2551 17.8167Z" fill="#EA4335"/>
<path d="M14.2877 9.50913L16.5721 5.69244C16.3478 5.56415 16.0903 5.5 15.8244 5.5H12.751C12.4852 5.5 12.2276 5.57217 12.0034 5.69244L14.2877 9.50913Z" fill="#00832D"/>
<path d="M16.9709 14H11.6047L9.32037 17.8167C9.54465 17.945 9.80216 18.0091 10.068 18.0091H18.5076C18.7735 18.0091 19.0309 17.937 19.2552 17.8167L16.9709 14Z" fill="#2684FC"/>
<path d="M19.2303 9.74868L17.1204 6.22061C16.9875 5.9961 16.7964 5.8197 16.5721 5.69141L14.2878 9.50815L16.9709 13.9983H21.5312C21.5312 13.7498 21.4648 13.5012 21.3319 13.2767L19.2303 9.74868Z" fill="#FFBA00"/>
<path d="M30.6174 15.3329H32.0195L29.2831 8.43555H28.2679L25.5025 15.3329H26.9045L27.4943 13.7649H30.0276L30.6174 15.3329ZM28.7706 10.2555L29.6505 12.6169H27.8811L28.7706 10.2555ZM34.9553 15.4542C36.425 15.4542 37.3339 14.6329 37.3339 13.2142V10.2649H36.0673V13.2142C36.0673 13.8862 35.6612 14.3435 34.9553 14.3435C34.2592 14.3435 33.8531 13.8862 33.8531 13.2142V10.2649H32.5864V13.2142C32.5864 14.6235 33.505 15.4542 34.9553 15.4542ZM41.8627 14.0822C41.6016 14.2315 41.3116 14.3435 40.9731 14.3435C40.4317 14.3435 40.2093 14.0262 40.2093 13.4289V11.2915H41.9691V10.2649H40.2093V8.47288H38.962V10.2649H38.0724V11.2915H38.9426V13.4755C38.9426 14.7635 39.5518 15.4542 40.7411 15.4542C41.2729 15.4542 41.853 15.3049 42.2591 15.0342L41.8627 14.0822ZM45.3659 15.4635C47.029 15.4635 48.17 14.2689 48.17 12.7942C48.17 11.3289 47.029 10.1342 45.3659 10.1342C43.7029 10.1342 42.5619 11.3289 42.5619 12.7942C42.5619 14.2689 43.7029 15.4635 45.3659 15.4635ZM45.3659 14.3342C44.4957 14.3342 43.8286 13.6529 43.8286 12.7942C43.8286 11.9542 44.4957 11.2635 45.3659 11.2635C46.2362 11.2635 46.9033 11.9542 46.9033 12.7942C46.9033 13.6529 46.2362 14.3342 45.3659 14.3342ZM49.1112 13.3169H53.0272V12.1782H49.1112V13.3169ZM55.875 15.4635C57.1223 15.4635 57.9151 14.7542 57.9151 13.8582C57.9151 13.2609 57.6057 12.8689 57.0256 12.5702C56.6098 12.3649 56.0974 12.1969 55.7589 12.0662C55.4205 11.9449 55.3045 11.7489 55.3045 11.5715C55.3045 11.3102 55.5365 11.0955 55.9426 11.0955C56.3004 11.0955 56.7549 11.2449 57.1223 11.6182L57.7798 10.8435C57.306 10.3209 56.6485 10.0969 55.9813 10.0969C54.821 10.0969 54.0765 10.7315 54.0765 11.5995C54.0765 12.1502 54.3666 12.6075 54.9564 12.8875C55.2852 13.0462 55.962 13.2702 56.2617 13.4102C56.5131 13.5315 56.6582 13.6809 56.6582 13.8955C56.6582 14.1942 56.3391 14.4275 55.8846 14.4275C55.3722 14.4275 54.8307 14.1662 54.473 13.7089L53.7574 14.4555C54.2602 15.1369 55.0531 15.4635 55.875 15.4635ZM62.2267 10.2649L60.9794 13.6902L59.5581 10.2649H58.098L60.3896 15.2862L60.2639 15.5662C59.9835 16.1542 59.6644 16.3875 59.239 16.3875C59.0069 16.3875 58.7749 16.3129 58.5718 16.2195L58.3688 17.2462C58.6105 17.4049 58.9586 17.4889 59.3357 17.4889C60.3412 17.4889 60.9794 16.8822 61.4725 15.6595L63.5997 10.2649H62.2267ZM64.3335 15.3329H65.5905V12.5982C65.5905 11.8049 66.1126 11.2449 66.8668 11.2449C67.5437 11.2449 68.0174 11.7115 68.0174 12.5795V15.3329H69.2841V12.2435C69.2841 10.8062 68.2882 10.1342 67.2246 10.1342C66.4511 10.1342 65.8516 10.4795 65.5712 10.9742V10.2649H64.3335V15.3329ZM72.9846 15.4449C74.0675 15.4449 74.9957 14.9129 75.4405 14.1102L74.4156 13.5315C74.1642 13.9982 73.5841 14.3249 73.0039 14.3249C72.1144 14.3249 71.4665 13.6622 71.4665 12.7942C71.4665 11.9262 72.1337 11.2635 73.0426 11.2635C73.6324 11.2635 74.1352 11.5809 74.4349 12.0662L75.4598 11.5342C75.0248 10.6382 74.0675 10.1435 73.0233 10.1435C71.3602 10.1435 70.2096 11.2449 70.2096 12.7942C70.2096 14.3342 71.3505 15.4449 72.9846 15.4449Z" fill="#325167"/>
<path d="M81.2806 12C81.2806 8.68627 84.0632 6 87.4964 6H95.7842C99.2174 6 102 8.68627 102 12C102 15.3137 99.2174 18 95.7842 18H87.4964C84.0632 18 81.2806 15.3137 81.2806 12Z" fill="white"/>
<path d="M87.4964 16C89.785 16 91.6403 14.2091 91.6403 12C91.6403 9.79086 89.785 8 87.4964 8C85.2078 8 83.3525 9.79086 83.3525 12C83.3525 14.2091 85.2078 16 87.4964 16Z" fill="#BCCFDC"/>
<path d="M87.4964 6.66732H95.7842V5.33398H87.4964V6.66732ZM95.7842 17.334H87.4964V18.6673H95.7842V17.334ZM87.4964 17.334C84.4451 17.334 81.9712 14.9462 81.9712 12.0007H80.5899C80.5899 15.6825 83.6819 18.6673 87.4964 18.6673V17.334ZM101.309 12.0007C101.309 14.9462 98.8354 17.334 95.7842 17.334V18.6673C99.5986 18.6673 102.691 15.6825 102.691 12.0007H101.309ZM95.7842 6.66732C98.8354 6.66732 101.309 9.05512 101.309 12.0007H102.691C102.691 8.31878 99.5986 5.33398 95.7842 5.33398V6.66732ZM87.4964 5.33398C83.6819 5.33398 80.5899 8.31878 80.5899 12.0007H81.9712C81.9712 9.05512 84.4451 6.66732 87.4964 6.66732V5.33398Z" fill="#618298"/>
</svg>
