<svg width="74" height="24" viewBox="0 0 74 24" fill="none" xmlns="http://www.w3.org/2000/svg">
<g clip-path="url(#clip0_2667_7813)">
<path d="M32.1085 21.7739H24.566C24.5464 21.7742 24.5269 21.7706 24.5088 21.7633C24.4906 21.756 24.474 21.7452 24.4601 21.7315C24.4461 21.7177 24.435 21.7013 24.4275 21.6833C24.4199 21.6652 24.416 21.6458 24.416 21.6262V9.72738C24.4166 9.688 24.4327 9.65044 24.4607 9.6228C24.4888 9.59517 24.5266 9.57968 24.566 9.57968H26.3005C26.3395 9.58026 26.3768 9.59601 26.4043 9.62358C26.4319 9.65116 26.4477 9.68839 26.4482 9.72738V19.8516H32.1085C32.1479 19.8516 32.1857 19.8671 32.2138 19.8947C32.2418 19.9223 32.2579 19.9599 32.2585 19.9993V21.6262C32.2585 21.6458 32.2546 21.6652 32.247 21.6833C32.2395 21.7013 32.2284 21.7177 32.2144 21.7315C32.2005 21.7452 32.1839 21.756 32.1657 21.7633C32.1475 21.7706 32.1281 21.7742 32.1085 21.7739Z" fill="#F2385A"/>
<path d="M41.6878 18.124C41.6878 20.8677 39.7093 22 37.695 22C35.6806 22 33.7043 20.8677 33.7043 18.124V13.3103C33.7043 13.2712 33.7199 13.2336 33.7476 13.2059C33.7753 13.1782 33.8129 13.1626 33.8521 13.1626H35.4434C35.4826 13.1626 35.5201 13.1782 35.5478 13.2059C35.5755 13.2336 35.5911 13.2712 35.5911 13.3103V17.9539C35.5911 19.6167 36.5177 20.2276 37.695 20.2276C38.8722 20.2276 39.801 19.6167 39.801 17.9539V13.3103C39.801 13.2712 39.8166 13.2336 39.8443 13.2059C39.872 13.1782 39.9096 13.1626 39.9488 13.1626H41.5401C41.5791 13.1632 41.6163 13.179 41.6439 13.2065C41.6715 13.2341 41.6872 13.2713 41.6878 13.3103V18.124Z" fill="#F2385A"/>
<path d="M58.4559 16.3627V21.6262C58.4559 21.6458 58.452 21.6652 58.4444 21.6833C58.4369 21.7013 58.4258 21.7177 58.4118 21.7315C58.3979 21.7452 58.3813 21.756 58.3631 21.7633C58.345 21.7706 58.3255 21.7742 58.3059 21.7739H56.7168C56.6972 21.7742 56.6778 21.7706 56.6596 21.7633C56.6414 21.756 56.6249 21.7452 56.6109 21.7315C56.597 21.7177 56.5859 21.7013 56.5783 21.6833C56.5708 21.6652 56.5669 21.6458 56.5669 21.6262V16.9938C56.5669 15.5459 55.8216 14.738 54.5525 14.738C53.3395 14.738 52.3144 15.5369 52.3144 17.0117V21.6262C52.3144 21.6458 52.3105 21.6652 52.3029 21.6833C52.2954 21.7013 52.2843 21.7177 52.2703 21.7315C52.2564 21.7452 52.2398 21.756 52.2217 21.7633C52.2035 21.7706 52.184 21.7742 52.1644 21.7739H50.5754C50.5558 21.7742 50.5363 21.7706 50.5181 21.7633C50.5 21.756 50.4834 21.7452 50.4695 21.7315C50.4555 21.7177 50.4444 21.7013 50.4369 21.6833C50.4293 21.6652 50.4254 21.6458 50.4254 21.6262V16.9938C50.4254 15.5459 49.6801 14.738 48.4111 14.738C47.198 14.738 46.1729 15.5369 46.1729 17.0117V21.6262C46.1729 21.6458 46.169 21.6652 46.1615 21.6833C46.1539 21.7013 46.1428 21.7177 46.1289 21.7315C46.1149 21.7452 46.0984 21.756 46.0802 21.7633C46.062 21.7706 46.0426 21.7742 46.023 21.7739H44.4339C44.4143 21.7742 44.3949 21.7706 44.3767 21.7633C44.3585 21.756 44.3419 21.7452 44.328 21.7315C44.314 21.7177 44.303 21.7013 44.2954 21.6833C44.2878 21.6652 44.2839 21.6458 44.2839 21.6262V13.3102C44.2845 13.2709 44.3006 13.2333 44.3286 13.2057C44.3567 13.178 44.3945 13.1625 44.4339 13.1625H46.0006C46.04 13.1625 46.0778 13.178 46.1058 13.2057C46.1339 13.2333 46.15 13.2709 46.1505 13.3102V14.2054C46.8421 13.1894 47.912 12.9276 48.7938 12.9276C50.1076 12.9276 51.1774 13.5116 51.7705 14.465C52.5158 13.2341 53.8475 12.9276 54.9174 12.9276C57.0078 12.9365 58.4559 14.3486 58.4559 16.3627Z" fill="#F2385A"/>
<path d="M62.865 21.774H61.2737C61.2542 21.7743 61.2349 21.7707 61.2168 21.7634C61.1988 21.7561 61.1824 21.7452 61.1686 21.7314C61.1548 21.7177 61.1439 21.7013 61.1366 21.6832C61.1293 21.6651 61.1257 21.6458 61.126 21.6263V13.3103C61.126 13.2712 61.1416 13.2336 61.1693 13.2059C61.197 13.1782 61.2345 13.1626 61.2737 13.1626H62.865C62.8844 13.1626 62.9036 13.1664 62.9216 13.1739C62.9395 13.1813 62.9558 13.1922 62.9695 13.2059C62.9832 13.2196 62.9941 13.2359 63.0015 13.2538C63.0089 13.2717 63.0128 13.2909 63.0128 13.3103V21.6263C63.0131 21.6458 63.0094 21.6651 63.0021 21.6832C62.9948 21.7013 62.9839 21.7177 62.9702 21.7314C62.9564 21.7452 62.94 21.7561 62.9219 21.7634C62.9039 21.7707 62.8845 21.7743 62.865 21.774Z" fill="#F2385A"/>
<path d="M73.6686 16.3627V21.6262C73.6686 21.6458 73.6647 21.6652 73.6572 21.6833C73.6496 21.7013 73.6385 21.7177 73.6246 21.7315C73.6106 21.7452 73.5941 21.756 73.5759 21.7633C73.5577 21.7706 73.5383 21.7742 73.5187 21.7739H71.9296C71.91 21.7742 71.8906 21.7706 71.8724 21.7633C71.8542 21.756 71.8377 21.7452 71.8237 21.7315C71.8097 21.7177 71.7987 21.7013 71.7911 21.6833C71.7835 21.6652 71.7796 21.6458 71.7796 21.6262V16.9938C71.7796 15.5459 71.0343 14.738 69.7653 14.738C68.5522 14.738 67.5272 15.5369 67.5272 17.0117V21.6262C67.5272 21.6458 67.5233 21.6652 67.5157 21.6833C67.5082 21.7013 67.4971 21.7177 67.4831 21.7315C67.4692 21.7452 67.4526 21.756 67.4344 21.7633C67.4163 21.7706 67.3968 21.7742 67.3772 21.7739H65.8016C65.782 21.7742 65.7625 21.7706 65.7444 21.7633C65.7262 21.756 65.7096 21.7452 65.6957 21.7315C65.6817 21.7177 65.6706 21.7013 65.6631 21.6833C65.6555 21.6652 65.6516 21.6458 65.6516 21.6262V13.3102C65.6522 13.2709 65.6683 13.2333 65.6963 13.2057C65.7244 13.178 65.7622 13.1625 65.8016 13.1625H67.3683C67.4077 13.1625 67.4455 13.178 67.4735 13.2057C67.5016 13.2333 67.5176 13.2709 67.5182 13.3102V14.2054C68.2098 13.1894 69.2796 12.9276 70.1615 12.9276C72.2206 12.9365 73.6686 14.3486 73.6686 16.3627Z" fill="#F2385A"/>
<path d="M62.1309 9.74526L61.2558 11.2357C61.2429 11.2584 61.2362 11.2842 61.2363 11.3103C61.2365 11.3365 61.2434 11.3621 61.2566 11.3848C61.2697 11.4074 61.2885 11.4262 61.3111 11.4393C61.3338 11.4524 61.3594 11.4594 61.3856 11.4595H62.8202C62.879 11.4597 62.9368 11.4446 62.9878 11.4155C63.0389 11.3865 63.0814 11.3445 63.1112 11.2939L63.9684 9.83253C63.9834 9.80698 63.9914 9.77791 63.9916 9.74828C63.9917 9.71864 63.984 9.68949 63.9692 9.6638C63.9544 9.63811 63.9331 9.6168 63.9074 9.60201C63.8817 9.58723 63.8526 9.57952 63.8229 9.57965H62.4196C62.3612 9.57955 62.3038 9.5948 62.2531 9.62386C62.2024 9.65293 62.1603 9.69479 62.1309 9.74526Z" fill="#F2385A"/>
<path d="M6.67165 16.6224L14.8118 2.67137C14.851 2.60336 14.8717 2.52622 14.8718 2.44769C14.8718 2.36916 14.8511 2.29201 14.8119 2.22399C14.7727 2.15596 14.7162 2.09945 14.6482 2.06014C14.5803 2.02082 14.5031 2.00008 14.4246 2H9.17613C9.04583 2.00003 8.91779 2.03413 8.80472 2.0989C8.69165 2.16367 8.59748 2.25687 8.53155 2.36925L0.102699 16.8215C0.0371366 16.9346 0.00247723 17.063 0.00219895 17.1937C0.00192068 17.3244 0.0360333 17.4529 0.101113 17.5662C0.166193 17.6796 0.25995 17.7739 0.372975 17.8396C0.486 17.9052 0.614317 17.94 0.745046 17.9405H4.41113L2.82876 20.655C2.7631 20.7683 2.72844 20.8968 2.72826 21.0277C2.72808 21.1586 2.76239 21.2873 2.82773 21.4007C2.89308 21.5141 2.98715 21.6084 3.10049 21.6739C3.21383 21.7394 3.34242 21.7739 3.47334 21.774H16.6784C16.835 21.7734 16.9887 21.7318 17.1242 21.6533C17.2597 21.5747 17.3722 21.462 17.4506 21.3264L19.8051 17.2982C19.8443 17.2304 19.8649 17.1534 19.8651 17.0751C19.8652 16.9967 19.8447 16.9197 19.8058 16.8518C19.7668 16.7838 19.7107 16.7273 19.643 16.6878C19.5753 16.6483 19.4985 16.6273 19.4201 16.6268L6.67165 16.6224ZM9.50962 3.32035H12.9049L5.14748 16.6224H1.74773L9.50962 3.32035ZM16.4479 20.4559H4.47603L5.94202 17.9427H17.9049L16.4479 20.4559Z" fill="#F2385A"/>
</g>
<defs>
<clipPath id="clip0_2667_7813">
<rect width="73.6685" height="20" fill="white" transform="translate(0 2)"/>
</clipPath>
</defs>
</svg>
