<svg xmlns="http://www.w3.org/2000/svg" xmlns:xlink="http://www.w3.org/1999/xlink" width="398" height="270" viewBox="0 0 398 270">
    <defs>
        <linearGradient id="a" x1="50%" x2="50%" y1="50%" y2="0%">
            <stop offset="0%" stop-color="#ECF2FC" stop-opacity=".642"/>
            <stop offset="100%" stop-color="#D4E1F8"/>
        </linearGradient>
        <linearGradient id="b" x1="46.17%" x2="60.448%" y1="-9.213%" y2="50%">
            <stop offset="0%" stop-color="#CFDDF3"/>
            <stop offset="100%" stop-color="#A1B8E3"/>
        </linearGradient>
        <linearGradient id="c" x1="50%" x2="50%" y1="0%" y2="100%">
            <stop offset="0%" stop-color="#CFDDF3"/>
            <stop offset="100%" stop-color="#A1B8E3"/>
        </linearGradient>
        <linearGradient id="d" x1="50%" x2="50%" y1="0%" y2="100%">
            <stop offset="0%" stop-color="#CFDDF3"/>
            <stop offset="100%" stop-color="#A1B8E3"/>
        </linearGradient>
        <linearGradient id="e" x1="50%" x2="50%" y1="0%" y2="100%">
            <stop offset="0%" stop-color="#CFDDF3"/>
            <stop offset="100%" stop-color="#A1B8E3"/>
        </linearGradient>
        <linearGradient id="f" x1="50%" x2="50%" y1="0%" y2="100%">
            <stop offset="0%" stop-color="#CFDDF3"/>
            <stop offset="100%" stop-color="#A1B8E3"/>
        </linearGradient>
        <linearGradient id="g" x1="68.051%" x2="50%" y1="-30.265%" y2="100%">
            <stop offset="0%" stop-color="#CFDDF3"/>
            <stop offset="100%" stop-color="#A1B8E3"/>
        </linearGradient>
        <linearGradient id="h" x1="68.009%" x2="50%" y1="-30.265%" y2="100%">
            <stop offset="0%" stop-color="#CFDDF3"/>
            <stop offset="100%" stop-color="#A1B8E3"/>
        </linearGradient>
        <linearGradient id="i" x1="68.009%" x2="50%" y1="-30.265%" y2="100%">
            <stop offset="0%" stop-color="#CFDDF3"/>
            <stop offset="100%" stop-color="#A1B8E3"/>
        </linearGradient>
        <linearGradient id="j" x1="68.009%" x2="50%" y1="-30.265%" y2="100%">
            <stop offset="0%" stop-color="#CFDDF3"/>
            <stop offset="100%" stop-color="#A1B8E3"/>
        </linearGradient>
        <linearGradient id="k" x1="68.048%" x2="50%" y1="-30.265%" y2="100%">
            <stop offset="0%" stop-color="#CFDDF3"/>
            <stop offset="100%" stop-color="#A1B8E3"/>
        </linearGradient>
        <linearGradient id="l" x1="68.042%" x2="50%" y1="-30.265%" y2="100%">
            <stop offset="0%" stop-color="#CFDDF3"/>
            <stop offset="100%" stop-color="#A1B8E3"/>
        </linearGradient>
        <linearGradient id="m" x1="68.035%" x2="50%" y1="-30.265%" y2="100%">
            <stop offset="0%" stop-color="#CFDDF3"/>
            <stop offset="100%" stop-color="#A1B8E3"/>
        </linearGradient>
        <linearGradient id="n" x1="203.728%" x2="-41.694%" y1="-24.702%" y2="119.355%">
            <stop offset="0%" stop-color="#D2E0F9" stop-opacity="0"/>
            <stop offset="100%" stop-color="#B1C6E7" stop-opacity=".465"/>
        </linearGradient>
        <linearGradient id="o" x1="203.728%" x2="-41.694%" y1="-24.702%" y2="119.355%">
            <stop offset="0%" stop-color="#D2E0F9" stop-opacity="0"/>
            <stop offset="100%" stop-color="#B1C6E7" stop-opacity=".465"/>
        </linearGradient>
        <linearGradient id="p" x1="38.97%" x2="76.728%" y1="42.617%" y2="33.223%">
            <stop offset="0%" stop-color="#7FA0D4"/>
            <stop offset="100%" stop-color="#D6E3FA"/>
        </linearGradient>
        <linearGradient id="q" x1="107.254%" x2="38.27%" y1="-120.462%" y2="-120.462%">
            <stop offset="0%" stop-color="#FAD0BA"/>
            <stop offset="100%" stop-color="#F2A384"/>
        </linearGradient>
        <path id="r" d="M19.997 18.135c.632 2.145.347 3.695-.861 4.647-1.809 1.427-3.628 3.855-5.42 4.055-1.793.2-3.735 1.166-4.047 3.636-.152 1.192-6.37 7.357-8.591 15.84-.563 2.148.12 5.453 2.053 9.916l5.138-2.777 7.316-11.641c8.128-2.772 12.708-4.49 13.745-5.152 1.553-.992 6.589-5.244 5.615-6.84-.97-1.595 2.187-11.724 4.063-13.693 1.875-1.969 3.411-6.765 3.449-8.536.037-1.772.688-7.075-3.993-6.907-3.121.112-9.278 5.93-18.467 17.452z"/>
        <linearGradient id="s" x1="50%" x2="50%" y1="0%" y2="100%">
            <stop offset="0%" stop-color="#F3D9CF"/>
            <stop offset="100%" stop-color="#E3B3A1" stop-opacity="0"/>
        </linearGradient>
        <linearGradient id="u" x1="107.254%" x2="38.27%" y1="-120.462%" y2="-120.462%">
            <stop offset="0%" stop-color="#FAD0BA"/>
            <stop offset="100%" stop-color="#F2A384"/>
        </linearGradient>
        <linearGradient id="v" x1="20.679%" x2="28.37%" y1="-6.56%" y2="43.646%">
            <stop offset="0%" stop-color="#2D6DC0"/>
            <stop offset="100%" stop-color="#143B8C"/>
        </linearGradient>
        <linearGradient id="w" x1="54.963%" x2="60.653%" y1="38.183%" y2="88.708%">
            <stop offset="0%" stop-color="#174293" stop-opacity="0"/>
            <stop offset="100%" stop-color="#051E4B"/>
        </linearGradient>
        <linearGradient id="x" x1="-8.15%" x2="50%" y1="37.353%" y2="77.123%">
            <stop offset="0%" stop-color="#2D6DC0"/>
            <stop offset="100%" stop-color="#143B8C"/>
        </linearGradient>
        <linearGradient id="y" x1="0%" y1="16.936%" y2="82.092%">
            <stop offset="0%" stop-color="#4049E8"/>
            <stop offset="40.052%" stop-color="#3C80EF"/>
            <stop offset="100%" stop-color="#3ACEFF"/>
        </linearGradient>
        <path id="z" d="M63.377.8c8.615 1.926 14.404 5.138 17.367 9.636 4.444 6.75 6.671 24.668 6.671 30.478 0 5.816.71 20.072 0 23.961-.71 3.893-3.96 6.782-10.696 6.782-4.49 0-29.933-8.2-76.335-24.602 6.103-2.96 9.25-5.01 9.445-6.14.294-1.695 14.452-32.627 18.93-35.777C33.236 1.988 42.535.496 46.26.496c-.544 1.483-1.755 2.684-.042 4.642 1.712 1.958 5.076 2.3 8.407.939 2.222-.907 5.137-2.665 8.75-5.277h.002z"/>
        <linearGradient id="A" x1="50%" x2="50%" y1="100%" y2="0%">
            <stop offset="0%" stop-color="#70B8F9" stop-opacity=".276"/>
            <stop offset="100%" stop-color="#3D82F0"/>
        </linearGradient>
        <path id="C" d="M63.377.8c8.615 1.926 14.404 5.138 17.367 9.636 4.444 6.75 6.671 24.668 6.671 30.478 0 5.816.71 20.072 0 23.961-.71 3.893-3.96 6.782-10.696 6.782-4.49 0-29.933-8.2-76.335-24.602 6.103-2.96 9.25-5.01 9.445-6.14.294-1.695 14.452-32.627 18.93-35.777C33.236 1.988 42.535.496 46.26.496c-.544 1.483-1.755 2.684-.042 4.642 1.712 1.958 5.076 2.3 8.407.939 2.222-.907 5.137-2.665 8.75-5.277h.002z"/>
        <linearGradient id="D" x1="53.795%" x2="86.17%" y1="54.367%" y2="81.956%">
            <stop offset="0%" stop-color="#3D82F0" stop-opacity="0"/>
            <stop offset="100%" stop-color="#3D82F0"/>
        </linearGradient>
        <path id="F" d="M63.377.8c8.615 1.926 14.404 5.138 17.367 9.636 4.444 6.75 6.671 24.668 6.671 30.478 0 5.816.71 20.072 0 23.961-.71 3.893-3.96 6.782-10.696 6.782-4.49 0-29.933-8.2-76.335-24.602 6.103-2.96 9.25-5.01 9.445-6.14.294-1.695 14.452-32.627 18.93-35.777C33.236 1.988 42.535.496 46.26.496c-.544 1.483-1.755 2.684-.042 4.642 1.712 1.958 5.076 2.3 8.407.939 2.222-.907 5.137-2.665 8.75-5.277h.002z"/>
        <radialGradient id="G" cx="0%" cy="137.473%" r="185.732%" fx="0%" fy="137.473%" gradientTransform="scale(1 .75873) rotate(-55.415 .416 1.593)">
            <stop offset="0%" stop-color="#3ACEFF"/>
            <stop offset="30.496%" stop-color="#3C80EF"/>
            <stop offset="100%" stop-color="#4049E8"/>
        </radialGradient>
        <linearGradient id="I" x1="107.254%" x2="38.27%" y1="-120.462%" y2="-120.462%">
            <stop offset="0%" stop-color="#FAD0BA"/>
            <stop offset="100%" stop-color="#F2A384"/>
        </linearGradient>
        <linearGradient id="J" x1="107.254%" x2="38.27%" y1="-120.462%" y2="-120.462%">
            <stop offset="0%" stop-color="#FAD0BA"/>
            <stop offset="100%" stop-color="#F2A384"/>
        </linearGradient>
        <linearGradient id="K" x1="50%" x2="33.402%" y1="19.237%" y2="80.763%">
            <stop offset="0%" stop-color="#2762C3"/>
            <stop offset="100%" stop-color="#123A8E"/>
        </linearGradient>
        <linearGradient id="L" x1="107.254%" x2="38.27%" y1="-120.462%" y2="-120.462%">
            <stop offset="0%" stop-color="#FAD0BA"/>
            <stop offset="100%" stop-color="#F2A384"/>
        </linearGradient>
        <linearGradient id="M" x1="107.254%" x2="38.27%" y1="-120.462%" y2="-120.462%">
            <stop offset="0%" stop-color="#FAD0BA"/>
            <stop offset="100%" stop-color="#F2A384"/>
        </linearGradient>
        <linearGradient id="N" x1="50%" x2="67.286%" y1="38.515%" y2="92.375%">
            <stop offset="0%" stop-color="#84F0A8"/>
            <stop offset="100%" stop-color="#48B676"/>
        </linearGradient>
        <path id="O" d="M20.763 88.148c-1.875-1.053-8.149 1.462-8.149 6.55C9.28 83.38.034 68.062.034 51.32 4.277 36.729 15.333 13.72 17.803 10.108 19.448 7.702 27.607 4.332 42.278 0c3.28 3.577 7.17 5.367 11.664 5.367 6.743 0 7.098-4.127 8.901-4.343 1.8-.213 12.009 4.343 17.042 9.193 5.033 4.847 10.424 23.919 23.665 38.722 13.244 14.803 17.994 25.13 24.564 30.691-2.411 2.153-5.676 3.41-5.676 8.518-2.38-1.739-15.647-10.844-26.893-21.443C84.3 56.107 79.312 47.29 77.615 46.098c-1.952-1.372 2.46 41.082 2.27 48.6-.192 7.517-26.095 7.947-34.196 7.947-8.103 0-20.632-2.799-23.846-5.557-.53-.454.859-60.146 0-57.64-2.182 6.353-7.242 9.49-7.242 13.674 0 9.726 6.172 35.712 6.162 35.026z"/>
        <linearGradient id="P" x1="53.874%" x2="50%" y1="-56.716%" y2="145.272%">
            <stop offset="0%" stop-color="#48B676"/>
            <stop offset="100%" stop-color="#83EFA7"/>
            <stop offset="100%" stop-color="#84F0A8"/>
        </linearGradient>
        <path id="R" d="M20.763 88.148c-1.875-1.053-8.149 1.462-8.149 6.55C9.28 83.38.034 68.062.034 51.32 4.277 36.729 15.333 13.72 17.803 10.108 19.448 7.702 27.607 4.332 42.278 0c3.28 3.577 7.17 5.367 11.664 5.367 6.743 0 7.098-4.127 8.901-4.343 1.8-.213 12.009 4.343 17.042 9.193 5.033 4.847 10.424 23.919 23.665 38.722 13.244 14.803 17.994 25.13 24.564 30.691-2.411 2.153-5.676 3.41-5.676 8.518-2.38-1.739-15.647-10.844-26.893-21.443C84.3 56.107 79.312 47.29 77.615 46.098c-1.952-1.372 2.46 41.082 2.27 48.6-.192 7.517-26.095 7.947-34.196 7.947-8.103 0-20.632-2.799-23.846-5.557-.53-.454.859-60.146 0-57.64-2.182 6.353-7.242 9.49-7.242 13.674 0 9.726 6.172 35.712 6.162 35.026z"/>
        <linearGradient id="S" x1="73.228%" x2="45.083%" y1="33.934%" y2="50%">
            <stop offset="0%" stop-color="#EAF0F7" stop-opacity=".116"/>
            <stop offset="100%" stop-color="#45B56E"/>
        </linearGradient>
        <linearGradient id="U" x1="43.188%" x2="66.005%" y1="16.644%" y2="115.993%">
            <stop offset="0%" stop-color="#84F0A8"/>
            <stop offset="100%" stop-color="#48B676"/>
        </linearGradient>
        <linearGradient id="V" x1="55.732%" x2="28.072%" y1="50%" y2="41.705%">
            <stop offset="0%" stop-color="#7FA0D4"/>
            <stop offset="100%" stop-color="#D6E3FA"/>
        </linearGradient>
        <linearGradient id="W" x1="9.328%" x2="90.672%" y1="99.265%" y2="-.735%">
            <stop offset="0%" stop-color="#4049E8"/>
            <stop offset="40.052%" stop-color="#3C80EF"/>
            <stop offset="100%" stop-color="#3ACEFF"/>
        </linearGradient>
        <linearGradient id="X" x1="26.482%" x2="73.518%" y1="99.265%" y2="-.735%">
            <stop offset="0%" stop-color="#4049E8"/>
            <stop offset="40.052%" stop-color="#3C80EF"/>
            <stop offset="100%" stop-color="#3ACEFF"/>
        </linearGradient>
        <linearGradient id="Y" x1="50%" x2="50%" y1="-272.461%" y2="45.371%">
            <stop offset="0%" stop-color="#C6D6EE"/>
            <stop offset="100%" stop-color="#E5EFFD"/>
        </linearGradient>
        <linearGradient id="Z" x1="50%" x2="43.212%" y1="43.758%" y2="51.284%">
            <stop offset="0%" stop-color="#0041B2"/>
            <stop offset="100%" stop-color="#2D64D7" stop-opacity="0"/>
        </linearGradient>
        <linearGradient id="aa" x1="26.697%" x2="73.303%" y1="0%" y2="100%">
            <stop offset="0%" stop-color="#FCE38A"/>
            <stop offset="100%" stop-color="#F38181"/>
        </linearGradient>
        <path id="ab" d="M15.65 5.696c-.785 3.649-.107 6.29-.107 10.446 0 5.554-11.4 3.295-11.79-.918-.392-4.206.07-9.851-1.54-13.677-1.6-3.823 14.22.5 13.436 4.149z"/>
        <linearGradient id="ac" x1="50%" x2="50%" y1="0%" y2="100%">
            <stop offset="0%" stop-color="#B95F46"/>
            <stop offset="100%" stop-color="#8597B5" stop-opacity="0"/>
        </linearGradient>
        <linearGradient id="ae" x1="107.254%" x2="38.27%" y1="-120.462%" y2="-120.462%">
            <stop offset="0%" stop-color="#FAD0BA"/>
            <stop offset="100%" stop-color="#F2A384"/>
        </linearGradient>
        <linearGradient id="af" x1="0%" x2="64.458%" y1="66.58%" y2="46.388%">
            <stop offset="0%" stop-color="#FF7F31"/>
            <stop offset="100%" stop-color="#FFD25F"/>
        </linearGradient>
        <path id="ag" d="M.6 36.515L4.905 1.782 63.606.608l-5.135 33.915z"/>
        <linearGradient id="ah" x1="54.591%" x2="39.95%" y1="27.929%" y2="50%">
            <stop offset="0%" stop-color="#FF7F31"/>
            <stop offset="100%" stop-color="#FFC83A" stop-opacity="0"/>
        </linearGradient>
        <path id="aj" d="M.6 36.515L4.905 1.782 63.606.608l-5.135 33.915z"/>
        <linearGradient id="ak" x1="50%" y1="68.192%" y2="37.813%">
            <stop offset="0%" stop-color="#FF7F31"/>
            <stop offset="100%" stop-color="#FFC83A" stop-opacity="0"/>
        </linearGradient>
        <linearGradient id="am" x1="107.254%" x2="38.27%" y1="-120.462%" y2="-120.462%">
            <stop offset="0%" stop-color="#FAD0BA"/>
            <stop offset="100%" stop-color="#F2A384"/>
        </linearGradient>
        <linearGradient id="an" x1="88.383%" x2="11.617%" y1="-.735%" y2="99.265%">
            <stop offset="0%" stop-color="#4049E8"/>
            <stop offset="40.052%" stop-color="#3C80EF"/>
            <stop offset="100%" stop-color="#3ACEFF"/>
        </linearGradient>
        <linearGradient id="ao" x1="50%" x2="45.96%" y1="0%" y2="100%">
            <stop offset="0%" stop-color="#2762C3"/>
            <stop offset="100%" stop-color="#123A8E"/>
        </linearGradient>
        <linearGradient id="ap" x1="50%" x2="50%" y1="0%" y2="100%">
            <stop offset="0%" stop-color="#B2C7E8"/>
            <stop offset="100%" stop-color="#D6E3FA"/>
        </linearGradient>
        <linearGradient id="aq" x1="50%" x2="50%" y1="0%" y2="100%">
            <stop offset="0%" stop-color="#C6D6EE"/>
            <stop offset="100%" stop-color="#E5EFFD"/>
        </linearGradient>
        <linearGradient id="ar" x1="50%" x2="33.402%" y1="43.338%" y2="56.662%">
            <stop offset="0%" stop-color="#2762C3"/>
            <stop offset="100%" stop-color="#123A8E"/>
        </linearGradient>
        <linearGradient id="as" x1="157.42%" x2="118.836%" y1="38.285%" y2="58.612%">
            <stop offset="0%" stop-color="#E5EDFF"/>
            <stop offset="100%" stop-color="#6B9AD9"/>
        </linearGradient>
        <linearGradient id="at" x1="147.366%" x2="112.393%" y1="-39.692%" y2="115.938%">
            <stop offset="0%" stop-color="#E5EDFF"/>
            <stop offset="100%" stop-color="#6B9AD9"/>
        </linearGradient>
        <linearGradient id="au" x1="80.303%" x2="20.678%" y1="27.151%" y2="72.981%">
            <stop offset="0%" stop-color="#DBE9FF"/>
            <stop offset="44.095%" stop-color="#A7BDE4"/>
            <stop offset="100%" stop-color="#5876AF"/>
        </linearGradient>
        <linearGradient id="av" x1="100%" x2="0%" y1="50%" y2="50%">
            <stop offset="0%" stop-color="#D9E5F6" stop-opacity=".713"/>
            <stop offset="100%" stop-color="#B2C6EA"/>
        </linearGradient>
        <linearGradient id="aw" x1="-40.46%" x2="140.46%" y1="90.46%" y2="90.46%">
            <stop offset="0%" stop-color="#C5D9FA"/>
            <stop offset="100%" stop-color="#FFF"/>
        </linearGradient>
        <linearGradient id="ax" x1="-11.694%" x2="82.246%" y1="43.341%" y2="51.995%">
            <stop offset="0%" stop-color="#E5EDFF"/>
            <stop offset="100%" stop-color="#6B9AD9"/>
        </linearGradient>
        <linearGradient id="az" x1="46.059%" x2="57.149%" y1="5.042%" y2="100%">
            <stop offset="0%" stop-color="#B1FFBE"/>
            <stop offset="44.421%" stop-color="#5CDB8E"/>
            <stop offset="100%" stop-color="#149654"/>
        </linearGradient>
        <path id="ay" d="M20.635 58.058c-1.153-7.81-4.326-19.09-13.864-31.238C1.152 19.664 1.134 2.237.322.316c4.41 1.483 12.33 5.308 20.313 16.092 8.37 11.304 3.06 34.358 0 41.65z"/>
        <filter id="aA" width="115.2%" height="113.7%" x="-14.2%" y="-7.1%" filterUnits="objectBoundingBox">
            <feGaussianBlur in="SourceAlpha" result="shadowBlurInner1" stdDeviation="3"/>
            <feOffset dy="-3" in="shadowBlurInner1" result="shadowOffsetInner1"/>
            <feComposite in="shadowOffsetInner1" in2="SourceAlpha" k2="-1" k3="1" operator="arithmetic" result="shadowInnerInner1"/>
            <feColorMatrix in="shadowInnerInner1" values="0 0 0 0 0.221483195 0 0 0 0 0.778539541 0 0 0 0 0.610041349 0 0 0 1 0"/>
        </filter>
        <linearGradient id="aD" x1="75.621%" x2="86.156%" y1="-9.302%" y2="88.816%">
            <stop offset="0%" stop-color="#B1FFBE"/>
            <stop offset="44.421%" stop-color="#5CDB8E"/>
            <stop offset="100%" stop-color="#149654"/>
        </linearGradient>
        <path id="aC" d="M20.671 66.075c-3.563-5.577-9.859-13.135-21.31-19.264-6.746-3.61-12.746-16.894-14.025-18.092 3.874-.319 11.231-.006 21.028 5.593 10.27 5.87 14.137 25.196 14.307 31.763z"/>
        <filter id="aE" width="121.7%" height="120.6%" x="-11%" y="-10.3%" filterUnits="objectBoundingBox">
            <feGaussianBlur in="SourceAlpha" result="shadowBlurInner1" stdDeviation="3"/>
            <feOffset dy="-3" in="shadowBlurInner1" result="shadowOffsetInner1"/>
            <feComposite in="shadowOffsetInner1" in2="SourceAlpha" k2="-1" k3="1" operator="arithmetic" result="shadowInnerInner1"/>
            <feColorMatrix in="shadowInnerInner1" values="0 0 0 0 0.221483195 0 0 0 0 0.778539541 0 0 0 0 0.610041349 0 0 0 1 0"/>
        </filter>
        <linearGradient id="aH" x1="41.146%" x2="66.061%" y1="5.042%" y2="100%">
            <stop offset="0%" stop-color="#B1FFBE"/>
            <stop offset="44.421%" stop-color="#5CDB8E"/>
            <stop offset="100%" stop-color="#149654"/>
        </linearGradient>
        <path id="aG" d="M23.23 66.84c2.81-6.004 8.078-14.324 18.672-21.872 6.24-4.446 10.455-18.43 11.57-19.785-3.9.172-11.187 1.412-20.203 8.224-9.45 7.14-10.74 26.872-10.039 33.432z"/>
        <filter id="aI" width="123.4%" height="118.9%" x="-10.5%" y="-9.2%" filterUnits="objectBoundingBox">
            <feGaussianBlur in="SourceAlpha" result="shadowBlurInner1" stdDeviation="3"/>
            <feOffset dy="-3" in="shadowBlurInner1" result="shadowOffsetInner1"/>
            <feComposite in="shadowOffsetInner1" in2="SourceAlpha" k2="-1" k3="1" operator="arithmetic" result="shadowInnerInner1"/>
            <feColorMatrix in="shadowInnerInner1" values="0 0 0 0 0.221483195 0 0 0 0 0.778539541 0 0 0 0 0.610041349 0 0 0 1 0"/>
        </filter>
        <linearGradient id="aK" x1="35.922%" x2="53.323%" y1="73.241%" y2="18.132%">
            <stop offset="0%" stop-color="#ECF1FF"/>
            <stop offset="100%" stop-color="#FFF"/>
        </linearGradient>
    </defs>
    <g fill="none" fill-rule="evenodd">
        <path fill="url(#a)" fill-rule="nonzero" d="M282.917 50.366c42.158 2.735 76.269 22.966 85.468 54.952 13.119 45.596-29.349 97.81-94.854 116.626-46.698 13.413-92.496 6.229-119.698-15.518-56.733 4.743-105.43-17.255-116.751-56.608-13.796-47.965 33.155-103.55 104.876-124.152 57.826-16.606 114.094-5.405 140.96 24.703v-.003z" opacity=".2"/>
        <g opacity=".3">
            <path fill="url(#b)" fill-rule="nonzero" d="M66.737 117.878c-2.908 2.571-13.962-2.57-18.345-10.546-4.383-7.977 3.745-10.815-7.313-23.574C30.02 71 22.924 66.113 29.634 45.085c6.71-21.028-2.563-32.716 9.686-38.2 12.251-5.486 19.308 12.723 17.9 28.74C55.818 51.64 58.694 54.958 70.676 53.3c11.98-1.66 1.879 21.853 1.88 26.985 0 5.133 7.266 14.664 5.762 21.837-1.51 7.17-8.677 13.186-11.581 15.755z" transform="scale(-1 1) rotate(31 -229.233 -287.203)"/>
            <path stroke="url(#c)" stroke-linecap="round" stroke-width="15.988" d="M51.902 97.693c0-3.94.994-16.214 6.414-23.688" transform="scale(-1 1) rotate(31 -229.233 -271.992)"/>
            <path stroke="url(#d)" stroke-linecap="round" stroke-width="15.988" d="M54.552 67.049c0-3.937 11.07-6.704 16.485-14.18" transform="rotate(-31 292.027 -99.165)"/>
            <path stroke="url(#e)" stroke-linecap="round" stroke-width="15.988" d="M73.19 136.35c0-1.675-2.89-9.23-5.65-17.985C58.894 90.955 44.958 57.2 44.957 33.81" transform="scale(-1 1) rotate(31 -229.233 -287.057)"/>
        </g>
        <g opacity=".3">
            <path stroke="url(#f)" stroke-linecap="round" stroke-width="1.4" d="M14.722 95.904c0-12.4 10.376-50.78 24.38-71.777" transform="rotate(-1 6674.037 -13066.03)"/>
            <path fill="url(#g)" fill-rule="nonzero" d="M26.278 31.484A18.996 18.996 0 0 0 29.875 20.2c-.003-6.237-1.616-11.29-3.604-11.29-1.987 0-3.596 5.05-3.593 11.285 0 4.156 1.2 7.92 3.6 11.289z" transform="rotate(-31 346.875 -337.643)"/>
            <path fill="url(#h)" fill-rule="nonzero" d="M46.993 42.644a19.033 19.033 0 0 0 3.596-11.293c0-6.237-1.611-11.294-3.596-11.294-1.988 0-3.596 5.057-3.596 11.294 0 4.16 1.198 7.922 3.596 11.293z" transform="rotate(87 101.97 209.59)"/>
            <path fill="url(#i)" fill-rule="nonzero" d="M40.58 59.132a19.03 19.03 0 0 0 3.595-11.296c0-6.236-1.608-11.294-3.596-11.294-1.985 0-3.596 5.058-3.596 11.294 0 4.161 1.2 7.922 3.596 11.296z" transform="rotate(90 98.622 219.889)"/>
            <path fill="url(#j)" fill-rule="nonzero" d="M35.395 75.1a19.03 19.03 0 0 0 3.596-11.294c0-6.236-1.611-11.294-3.596-11.294-1.987 0-3.596 5.058-3.596 11.294 0 4.158 1.2 7.922 3.596 11.294z" transform="rotate(90 93.438 235.857)"/>
            <path fill="url(#k)" fill-rule="nonzero" d="M45.599 23.251a19.019 19.019 0 0 0 3.6-11.289C49.202 5.728 47.593.676 45.606.678c-1.988 0-3.601 5.052-3.6 11.287a18.996 18.996 0 0 0 3.593 11.286z" transform="rotate(32 -38.15 470.185)"/>
            <path fill="url(#l)" fill-rule="nonzero" d="M17.653 48.955a18.998 18.998 0 0 0 3.593-11.287c-.002-6.234-1.615-11.289-3.6-11.291-1.99 0-3.599 5.052-3.596 11.29 0 4.155 1.202 7.919 3.6 11.288h.003z" transform="rotate(-42 281.197 -205.037)"/>
            <path fill="url(#m)" fill-rule="nonzero" d="M11.255 66.434a19.002 19.002 0 0 0 3.594-11.29c0-6.233-1.616-11.288-3.6-11.29-1.988 0-3.597 5.052-3.594 11.288 0 4.156 1.2 7.923 3.6 11.292z" transform="rotate(-48 254.333 -146.251)"/>
        </g>
        <g stroke-width="2.665" opacity=".473">
            <path stroke="url(#n)" d="M.152 24.279L31.162.256" transform="translate(149.373 41.982)"/>
            <path stroke="url(#o)" d="M.459 36.342l24.46-18.949" transform="translate(149.373 41.982)"/>
            <path stroke="url(#n)" d="M107.388 51.806L138.4 27.784" transform="translate(149.373 41.982)"/>
            <path stroke="url(#o)" d="M107.692 63.87l24.46-18.949" transform="translate(149.373 41.982)"/>
        </g>
        <path fill="url(#p)" fill-rule="nonzero" d="M372.493 129.575l-69.426-12.725c-20.15 28.993-29.683 53.442-28.602 73.35 12.728 5.182 37.236 13.382 73.518 24.597l29.191-77.096c1.198-3.161-.44-6.672-3.654-7.848a6.286 6.286 0 0 0-1.027-.278z"/>
        <path fill="url(#q)" fill-rule="nonzero" d="M19.997 18.135c.632 2.145.347 3.695-.861 4.647-1.809 1.427-3.628 3.855-5.42 4.055-1.793.2-3.735 1.166-4.047 3.636-.152 1.192-6.37 7.357-8.591 15.84-.563 2.148.12 5.453 2.053 9.916l5.138-2.777 7.316-11.641c8.128-2.772 12.708-4.49 13.745-5.152 1.553-.992 6.589-5.244 5.615-6.84-.97-1.595 2.187-11.724 4.063-13.693 1.875-1.969 3.411-6.765 3.449-8.536.037-1.772.688-7.075-3.993-6.907-3.121.112-9.278 5.93-18.467 17.452z" transform="translate(283.094 115.324)"/>
        <g transform="translate(283.094 115.324)">
            <mask id="t" fill="#fff">
                <use xlink:href="#r"/>
            </mask>
            <path fill="url(#s)" fill-rule="nonzero" d="M37.503 27.245C31.582 16.932 27.242 10.48 24.478 7.891c-2.766-2.588 3.83-5.189 19.787-7.798l-6.762 30.073v-2.92z" mask="url(#t)" style="mix-blend-mode:multiply"/>
        </g>
        <path fill="url(#u)" fill-rule="nonzero" d="M298.239 97.067c-2.145 1.414-.315 7.117-2.635 10.372-1.267 1.779-3.935 2.769-5.167 3.478-3.484 2.001.096 3.434.816 4.626.72 1.193.147 3.887-.392 6.01-.539 2.124-2.454 6.91-.4 7.977 2.048 1.067 14.641 5.735 18.282 4.31 3.641-1.424 4.943-8.568 5.842-9.032.896-.464 1.525.027 2.355.23 2.155.528 4.102-.66 5.14-2.348 1.173-1.913 2.84-1.04 1.939-3.655-1.392-4.033-9.461-19.917-12.667-21.059-3.207-1.141-9.8-3.102-13.113-.91z"/>
        <g fill-rule="nonzero">
            <path fill="url(#v)" d="M17.951 22.102c-8.196-2.009-12.01-.211-14.98-6.47C1.22 11.939 4.633.6 10.381.343c1.414 6.338 8.253 6.882 12.214 7.41 21.267 2.828 23.492 21.923 17.125 33.17-2.051 3.623-3.948 6.224-5.639 8.174-1.072 1.24-2.478 2.732-2.95 3.441-.16.235-1.531 3.218-1.769 3.159-.717-.176-.426-.21-.077-3.297.352-3.087.55-3.92 1.187-6.43.187-.744 3.753-6.442 1.014-8.504-1.825-1.377-4.292-.536-7.4 2.52l-1.885-.698c1.245-2.721 2.035-4.732 2.363-6.029.493-1.947 1.587-9.15-6.61-11.156h-.003z" transform="translate(290.744 79.33)"/>
            <path fill="url(#w)" d="M17.951 22.102c-8.196-2.009-12.01-.211-14.98-6.47C1.22 11.939 4.633.6 10.381.343c1.414 6.338 8.253 6.882 12.214 7.41 21.267 2.828 23.492 21.923 17.125 33.17-2.051 3.623-3.948 6.224-5.639 8.174-1.072 1.24-2.478 2.732-2.95 3.441-.16.235-1.531 3.218-1.769 3.159-.717-.176-.426-.21-.077-3.297.352-3.087.55-3.92 1.187-6.43.187-.744 3.753-6.442 1.014-8.504-1.825-1.377-4.292-.536-7.4 2.52l-1.885-.698c1.245-2.721 2.035-4.732 2.363-6.029.493-1.947 1.587-9.15-6.61-11.156h-.003z" transform="translate(290.744 79.33)"/>
        </g>
        <path fill="url(#x)" fill-rule="nonzero" d="M307.825 124.376c-2.128 1.142-6.617 1.21-7.54-.088-.92-1.302-5.103-7.192-8.875-8.115-.186.747-.704 2.014-1.547 3.804 2.916 1.192 4.612 2.313 5.082 3.361.71 1.577 1.088.52.381 1.222-.707.699-4.396.16-4.676-2.57-1.064 2.175-2.206 8.044-1.803 9.386.403 1.342 2.72 1.958 5.012 2.102 2.289.144 10.445 1.366 12.523.95 2.076-.417 4.716-.18 6.455-5.122 1.734-4.94 1.35-8.142 3.617-12.352 2.268-4.21-2.88.384-3.507 1.756-.627 1.368-2.988 4.527-5.122 5.666z"/>
        <path fill="url(#y)" fill-rule="nonzero" d="M63.377.8c8.615 1.926 14.404 5.138 17.367 9.636 4.444 6.75 6.671 24.668 6.671 30.478 0 5.816.71 20.072 0 23.961-.71 3.893-3.96 6.782-10.696 6.782-4.49 0-29.933-8.2-76.335-24.602 6.103-2.96 9.25-5.01 9.445-6.14.294-1.695 14.452-32.627 18.93-35.777C33.236 1.988 42.535.496 46.26.496c-.544 1.483-1.755 2.684-.042 4.642 1.712 1.958 5.076 2.3 8.407.939 2.222-.907 5.137-2.665 8.75-5.277h.002z" transform="translate(256.068 137.898)"/>
        <g transform="translate(256.068 137.898)">
            <mask id="B" fill="#fff">
                <use xlink:href="#z"/>
            </mask>
            <path fill="url(#A)" fill-rule="nonzero" d="M41.723 1.686c-7.138 7.173 6.94 10.994 12.689 9.083 3.833-1.272 7.898-4.303 12.198-9.083-10.835-7.92-17.693-9.897-20.571-5.941-4.316 5.941 2.82-1.232-4.316 5.941z" mask="url(#B)" opacity=".585" style="mix-blend-mode:multiply"/>
        </g>
        <g transform="translate(256.068 137.898)">
            <mask id="E" fill="#fff">
                <use xlink:href="#C"/>
            </mask>
            <path fill="url(#D)" fill-rule="nonzero" d="M31.552 66.585c5.082 0 38.12-5.372 38.12-9.731 0-2.908-.848-14.603-2.548-35.088" mask="url(#E)" opacity=".547" style="mix-blend-mode:multiply"/>
        </g>
        <g transform="translate(256.068 137.898)">
            <mask id="H" fill="#fff">
                <use xlink:href="#F"/>
            </mask>
            <path fill="url(#G)" fill-rule="nonzero" d="M-14.732 47.672c2.3 0 12.942 13.24 22.662 8.782 11.745-5.381 18.584-25.314 18.584-27.696 0-1.825 3.083-8.297 1.91-15.353-.465-2.785-2.59-7.208-6.378-13.264" mask="url(#H)" opacity=".547" style="mix-blend-mode:multiply"/>
        </g>
        <path fill="url(#I)" fill-rule="nonzero" d="M43.243 57.284c-1.147 2.315 1.073 13.213 8.147 13.845 7.073.632 10.781-2.374 11.061-9.73.278-7.351.72-10.187 1.862-13.44 1.142-3.254-20.147-16.736-21.072-14.244-.614 1.664-.854 4.033-.712 7.109 1.24 9.427 1.477 14.912.714 16.46z" transform="translate(162.71)"/>
        <path fill="url(#J)" fill-rule="nonzero" d="M71.67 29.46a39.726 39.726 0 0 0-.187 7.325c.187 3.19-1.475 11.044-3.329 13.888-1.107 1.7-5.495 4.973-9.803 4.514-5.105-.545-10.685-5.464-11.283-7.923-1.101-4.535-.186-8.534-3.36-10.943-3.175-2.41-5.485-4.647-5.2-8.366.286-3.719 3.543-12.573 5.2-12.946 1.653-.371 27.895 2.056 27.895 4.153 0 2.097.277 8.644.067 10.298z" transform="translate(162.71)"/>
        <path fill="url(#K)" fill-rule="nonzero" d="M44.353 16.487c1.507 2.267 14.684 13.189 27.89 6.098 13.209-7.093-4.358-19.968-12.328-21.438C51.95-.32 45.087.5 40.269 7.168c-4.82 6.67-7.236 18.106 2.19 33.619.416-2.463.624-4.103.624-4.922-3.753-3.426-4.689-6.616-2.814-9.575 2.814-4.436 3.745 4.263 4.084 5.661 1.12 0 1.825-.195 2.115-.587-.773-2.193-1.053-4.225-.845-6.09.314-2.798 1.24-3.42-1.27-8.787z" transform="translate(162.71)"/>
        <path fill="#3D82F0" fill-rule="nonzero" d="M181.917 180.07c0-3.418-3.969-25.813 4.215-32.541 8.178-6.728 18.298 3.086 55.567 4.575.613 15.04.613 25.628 0 31.764-.614 6.136-23.127 14.832-59.782-3.799z"/>
        <path fill="url(#L)" fill-rule="nonzero" d="M12.891 151.069c.88 3.884 3.788 8.032 4.767 8.928.979.897 4.543 2.01 5.217 1.793.673-.216 2.446-1.694 2.526-3.425.08-1.734-1.621-2.708-1.632-5.264-.01-2.558-4.273-6.269-4.273-8.528 0-2.265-7.482 2.614-6.605 6.496z" transform="translate(162.71)"/>
        <path fill="url(#M)" fill-rule="nonzero" d="M122.446 145.741c2.64 3.498 4.364 4.109 5.356 5.154.99 1.043 3.257 4.727 4.1 4.114.842-.614 1.715-1.825.402-4.114-1.307-2.289-3.294-4.706-2.606-5.917.691-1.21 4.055-4.794 6.858-5.626 2.809-.832 3.74-.293 4.02-.741.28-.446-3.356-1.094-4.855-1.262a27.439 27.439 0 0 0-6.682 0c-2.04.24-3.462-.608-4.267-2.54-3.313 4.954-4.09 8.598-2.326 10.932z" transform="translate(162.71)"/>
        <path fill="url(#N)" fill-rule="nonzero" d="M20.763 88.148c-1.875-1.053-8.149 1.462-8.149 6.55C9.28 83.38.034 68.062.034 51.32 4.277 36.729 15.333 13.72 17.803 10.108 19.448 7.702 27.607 4.332 42.278 0c3.28 3.577 7.17 5.367 11.664 5.367 6.743 0 7.098-4.127 8.901-4.343 1.8-.213 12.009 4.343 17.042 9.193 5.033 4.847 10.424 23.919 23.665 38.722 13.244 14.803 17.994 25.13 24.564 30.691-2.411 2.153-5.676 3.41-5.676 8.518-2.38-1.739-15.647-10.844-26.893-21.443C84.3 56.107 79.312 47.29 77.615 46.098c-1.952-1.372 2.46 41.082 2.27 48.6-.192 7.517-26.095 7.947-34.196 7.947-8.103 0-20.632-2.799-23.846-5.557-.53-.454.859-60.146 0-57.64-2.182 6.353-7.242 9.49-7.242 13.674 0 9.726 6.172 35.712 6.162 35.026z" transform="translate(162.71 57.689)"/>
        <g transform="translate(162.71 57.689)">
            <mask id="Q" fill="#fff">
                <use xlink:href="#O"/>
            </mask>
            <path fill="url(#P)" fill-rule="nonzero" d="M19.125 44.676l11.608-15.393c2.865 33.277-2.099 55.675-14.891 67.202-3.383-19.997-1.5-30.452 0-39.188.656-3.826 1.75-8.033 3.283-12.619v-.002z" mask="url(#Q)" style="mix-blend-mode:multiply"/>
        </g>
        <g transform="translate(162.71 57.689)">
            <mask id="T" fill="#fff">
                <use xlink:href="#R"/>
            </mask>
            <path fill="url(#S)" fill-rule="nonzero" d="M22.995 99.96C27.327 87.296 46.8 45.58 55.132 39.635c8.333-5.95 8.96-13.627 8.645-23.817C63.465 5.627 44-14.675 33.827-6.992 23.653.683-3.587 14.848-6.566 38.607c-2.98 23.755 9.706 60.196 15.439 56.592 5.73-3.601 9.789 17.425 14.123 4.76v.002z" mask="url(#T)" opacity=".162" style="mix-blend-mode:multiply"/>
        </g>
        <path fill="url(#U)" fill-rule="nonzero" d="M43.51 50c0 2.316 3.532 8.788 10.347 8.543 6.815-.246 8.186-.433 8.962-3.887 0 5.116.264 6.626-.992 10.001-1.259 3.372-9.093 5.223-13.486 2.42-4.393-2.801-6.685-4.482-6.042-9.596.643-5.117 1.211-9.796 1.211-7.48z" transform="translate(162.71)"/>
        <path fill="url(#V)" fill-rule="nonzero" d="M51.603 121.481l62.302-14.97c11.523 30.9 16.75 56.314 15.684 76.242-12.582 5.186-31.454 11.908-56.615 20.173l-25.727-73.5a6.099 6.099 0 0 1 4.356-7.945z"/>
        <path fill="#316EEA" fill-rule="nonzero" d="M122.52 110.69c-1.333 4.202 2.999 16.065 9.883 21.862 6.882 5.797-15.257 4.813-15.27-1.654-.014-6.46 6.721-24.409 5.387-20.207z"/>
        <path fill="url(#W)" fill-rule="nonzero" d="M125.535 123.856c5.204 2.134 8.957 4.415 11.256 6.842 3.451 3.636 20.232 31.932 22.211 33.61 1.98 1.676 15.596 2.943 17.647 3.612-1.05 1.51-3.088 6.17-2.04 10.268-3.236 1.62-10.344.174-24.887-1.446-10.813-9-16.43-23.192-18.743-29.968-2.313-6.776-4.127-14.414-5.444-22.916v-.002z"/>
        <path fill="url(#X)" fill-rule="nonzero" d="M132.675 128.708c4.204 7.15 10.688 21.51 12.529 27.707 1.974 6.648-5.7 24.153-5.612 28.266.074 3.431-3.473 2.233-34.999 5.39-.974-6.051-.974-13.611 0-22.687 1.462-13.616-4.495-31.932-2.843-35.008 1.653-3.076 5.668-9.614 7.43-9.614 1.764 0 19.294-1.203 23.498 5.949l-.003-.003z"/>
        <path fill="url(#Y)" fill-rule="nonzero" d="M0 202.716l142.568-29.603c29.165-6.056 75.588-2.91 103.638 7.002l130.947 46.287c28.074 9.924 27.111 22.345-2.18 27.744l-32.885 6.067c-29.277 5.399-77.16 9.774-106.916 9.774H53.908C24.134 269.99 0 245.847 0 216.087v-13.371z" opacity=".4"/>
        <path fill="url(#Z)" fill-rule="nonzero" d="M139.165 210.51l75.153-12.082 57.183 24.919-82.784 21.843" opacity=".197" style="mix-blend-mode:multiply"/>
        <g>
            <path fill="url(#aa)" fill-rule="nonzero" d="M15.65 5.696c-.785 3.649-.107 6.29-.107 10.446 0 5.554-11.4 3.295-11.79-.918-.392-4.206.07-9.851-1.54-13.677-1.6-3.823 14.22.5 13.436 4.149z" transform="translate(105.206 106.734)"/>
            <g transform="translate(105.206 106.734)">
                <mask id="ad" fill="#fff">
                    <use xlink:href="#ab"/>
                </mask>
                <path fill="url(#ac)" fill-rule="nonzero" d="M-.672 21.942C10.808 12.372 17.874 7.59 20.525 7.59c2.65 0-4.417-1.606-21.197-4.813v19.165z" mask="url(#ad)" opacity=".717" style="mix-blend-mode:multiply"/>
            </g>
        </g>
        <path fill="url(#ae)" fill-rule="nonzero" d="M124.358 83.056c1.014 3.183.902 6.712 2.868 9.75 1.966 3.042 4.556 5.693 5.244 7.043.688 1.353-2.761 2.553-2.761 3.762 0 1.205 2.3 9.609 1.067 10.412-.699 1.875-13.604 4.476-16.858 2.614-2.875 0-7.3-2.508-10.019-8.665-2.715-6.16-2.84-21.115 0-24.916 2.844-3.801 19.446-3.183 20.46 0z"/>
        <g>
            <path fill="url(#af)" fill-rule="nonzero" d="M.6 36.515L4.905 1.782 63.606.608l-5.135 33.915z" transform="translate(143.891 168.19)"/>
            <g transform="translate(143.891 168.19)">
                <mask id="ai" fill="#fff">
                    <use xlink:href="#ag"/>
                </mask>
                <path fill="url(#ah)" fill-rule="nonzero" d="M61.582 27.157L53.94-.304h12.31z" mask="url(#ai)" opacity=".458" style="mix-blend-mode:multiply"/>
            </g>
            <g transform="translate(143.891 168.19)">
                <mask id="al" fill="#fff">
                    <use xlink:href="#aj"/>
                </mask>
                <path fill="url(#ak)" fill-rule="nonzero" d="M7.122 20.493c0 2.19 5.308 5.37 11.542 8.155 3.617 1.614 3.118 5.362 4.692 5.362 2.856 0-5.86 4.1-26.157 12.306C-3.9 35.22-3.9 28.224-2.8 25.33c1.8-4.733 9.923-6.04 9.923-4.837z" mask="url(#al)" opacity=".528" style="mix-blend-mode:multiply"/>
            </g>
        </g>
        <path fill="url(#am)" fill-rule="nonzero" d="M139.712 190.614c1.781 0 3.94-.936 7.092-1.654 3.153-.714 5.14-1.854 6.108-.795.38.414-.253 1.422-.714 1.697-.462.275-.705.678-2.908 1.489-2.043.75-3.225 1.101-2.854 1.803.368.699 3.716 1.307 4.785 1.59 1.369.36 3.428 1.064 5.388 1.39 2.193.368 4.615.408 4.895.568.526.302 1.296 1.44 0 1.806-.307.085-2.526.13-5.225 0-2.881-.139-5.524-.688-5.058 0 .112.163 2.77.702 5.69.702 1.728 0 5.228.213 5.452.213.8 0 1.2 1.091.475 1.627-.168.123-3.548.505-6.229.603-3.086.112-5.817-.165-5.85 0-.026.12 3.228.526 6.152.387 2.366-.112 3.665-.293 4.108 0 .442.296.33 1.089 0 1.443-.14.15-2.276.827-4.41.966-2.998.197-6.252-.147-6.281 0-.078.392 5.46.64 6.281.64 1.169 0 1.022 1.502-.33 1.82-1.697.4-5.204.368-6.802.368-1.595 0-3.996-.368-6.396-1.254-2.401-.886-5.605-2.073-7.637-2.54-2.198-.501-.619-7.405.901-11.03 1.52-3.623 1.585-1.839 3.367-1.839z"/>
        <path fill="url(#an)" fill-rule="nonzero" d="M86.655 150.775c-4.543 11.551-.952 20.317 1.04 30.321 1.995 10.007 2.902 12.173 6.08 14.208 3.173 2.036 10.965 4.871 40.906 8.31 0-2.38-.077-8.288 3.836-13.25-5.532 0-25.199-5.397-31.96-7.086-6.077-4.63 0-12.058 0-25.986 0-13.93-15.365-18.065-19.902-6.517z"/>
        <path fill="url(#ao)" fill-rule="nonzero" d="M104.964 84.505c4.244 3.262 14.115 4.22 20.835 1.067 6.721-3.154 8.36-16.06 0-20.032-3.18-1.51-9.496-.534-8.616 4.02-7.317-2.812-15.268-.347-18.424 1.529-4.913 2.924-8.74 6.109-10.754 12.805-2.014 6.696 1.272 13.357-.347 16.766-1.617 3.412-6.383 6.373-3.833 16.852 2.547 10.481-3.574 8.803-4.956 15.195-1.382 6.394 3.014 9.444 0 13.704-3.017 4.257-8.802 22.24 2.03 31.87 10.832 9.631 31.016 16.647 35.601-4.08 4.588-20.737-16.927-25.264-10.616-35.628 6.316-10.37 2.134-19.98 3.454-22.942 1.627-3.65-.122-9.214-3.209-16.753-2.859-6.99 1.257-8.851-1.165-14.373z"/>
        <path fill="url(#ap)" fill-rule="nonzero" d="M142.646 230.747l40.85-6.981c22.548 14.016 33.599 21.066 33.15 21.157-.64.128-45.745 7.974-48.79 8.788.284-.726-8.12-8.382-25.208-22.964h-.002z"/>
        <path fill="url(#aq)" fill-rule="nonzero" d="M166.897 219.906l42.694-2.857 23.47 20.394-53.187 3.65z"/>
        <g fill-rule="nonzero">
            <path fill="url(#ar)" d="M60.328 36.96l38.773-15.352a1.523 1.523 0 0 0-.053-2.857L49.682 1.152.987 13.125 60.33 36.961h-.003z" transform="translate(211.357 185.997)"/>
            <path fill="url(#as)" d="M60.328 36.96l38.773-15.352a1.523 1.523 0 0 0-.053-2.857L49.682 1.152.987 13.125 60.33 36.961h-.003z" opacity=".886" transform="translate(211.357 185.997)"/>
        </g>
        <g fill-rule="nonzero">
            <path fill="url(#at)" d="M3.02.606l54.705 17.606a4.588 4.588 0 0 1 3.11 3.527L70.624 74.5l-59.28-23.915L.656 2.745A1.833 1.833 0 0 1 3.02.605z" transform="translate(200.688 148.65)"/>
            <path fill="url(#au)" d="M3.02.606l54.705 17.606a4.588 4.588 0 0 1 3.11 3.527L70.624 74.5l-59.28-23.915L.656 2.745A1.833 1.833 0 0 1 3.02.605z" transform="translate(200.688 148.65)"/>
        </g>
        <g fill-rule="nonzero">
            <path fill="url(#av)" d="M19.178 25.26c10.176 0 18.424 1.777 18.424 3.97 0 2.193-8.248 3.97-18.424 3.97-10.173 0-18.42-1.777-18.42-3.97 0-2.193 8.247-3.97 18.42-3.97z" opacity=".7" transform="translate(66.684 218.049)"/>
            <path fill="url(#aw)" d="M42.353 1.03c1.387 2.414 2.163 5.122 2.163 7.976 0 10.204-9.896 18.476-22.105 18.476C10.203 27.482.307 19.212.307 9.01c0-3.025.87-5.88 2.411-8.398C12.508 2.153 32 2.05 42.355 1.03h-.002z" transform="translate(68.06 223.155)"/>
            <path fill="url(#ax)" d="M20.725.304c11.105 0 20.107 2.12 20.107 4.735s-9.002 4.733-20.11 4.733C9.617 9.772.614 7.654.614 5.039.613 2.425 9.616.304 20.725.304z" transform="translate(69.901 219.796)"/>
        </g>
        <g transform="translate(69.352 162.028)">
            <mask id="aB" fill="#fff">
                <use xlink:href="#ay"/>
            </mask>
            <use fill="url(#az)" xlink:href="#ay"/>
            <use fill="#000" filter="url(#aA)" xlink:href="#ay"/>
            <mask id="aF" fill="#fff">
                <use xlink:href="#aC"/>
            </mask>
            <use fill="url(#aD)" xlink:href="#aC"/>
            <use fill="#000" filter="url(#aE)" xlink:href="#aC"/>
            <path fill="#000" fill-opacity="0" stroke="#489C71" stroke-width="1.539" d="M17.129 60.396c-4.24-9.223-8.752-15.375-14.782-20.112L17.13 60.396z" mask="url(#aF)" opacity=".5" style="mix-blend-mode:multiply"/>
            <mask id="aJ" fill="#fff">
                <use xlink:href="#aG"/>
            </mask>
            <g>
                <use fill="url(#aH)" xlink:href="#aG"/>
                <use fill="#000" filter="url(#aI)" xlink:href="#aG"/>
            </g>
            <path fill="#000" fill-opacity="0" stroke="#489C71" stroke-width="1.539" d="M24.91 60.698l12.1-21.973c-5.403 5.493-9.093 12.209-12.1 21.973z" mask="url(#aJ)" opacity=".5" style="mix-blend-mode:multiply"/>
        </g>
        <path fill="url(#aK)" d="M234.459 188.411l-1.649-3.034 3.273-5.845h3.303l-4.927 8.879zm1.696 3.044l-1.696-3.044h6.086l1.624 3.044h-6.014zm-4.664-3.473l1.98 3.472h-3.937l1.927-3.472h.03z" transform="rotate(19 235.852 185.494)"/>
    </g>
</svg>
