<svg width="120" height="40" viewBox="0 0 120 40" fill="none" xmlns="http://www.w3.org/2000/svg">
<g clip-path="url(#clip0_3249_6910)">
<path d="M29.8502 0H10.1498C4.54423 0 0 4.54423 0 10.1498V29.8502C0 35.4558 4.54423 40 10.1498 40H29.8502C35.4558 40 40 35.4558 40 29.8502V10.1498C40 4.54423 35.4558 0 29.8502 0Z" fill="#F2385A"/>
<path d="M16.3429 25.1532L25.4573 9.53239C25.5017 9.45632 25.5253 9.36985 25.5256 9.28175C25.5258 9.19365 25.5028 9.10704 25.4589 9.0307C25.4149 8.95435 25.3515 8.89098 25.2752 8.847C25.1988 8.80303 25.1122 8.78001 25.0241 8.78028H19.1526C19.0065 8.78076 18.8631 8.81949 18.7366 8.89263C18.6101 8.96576 18.5049 9.07074 18.4316 9.19713L8.98793 25.3772C8.91406 25.504 8.87494 25.6479 8.87452 25.7946C8.87409 25.9413 8.91238 26.0855 8.98552 26.2127C9.05866 26.3399 9.16405 26.4455 9.29106 26.5189C9.41807 26.5923 9.5622 26.6309 9.70889 26.6307H13.8136L12.0424 29.6689C11.9689 29.7953 11.9298 29.9388 11.9292 30.085C11.9285 30.2313 11.9663 30.3751 12.0387 30.5022C12.1111 30.6292 12.2156 30.735 12.3417 30.8091C12.4678 30.8831 12.6112 30.9227 12.7574 30.9239H27.549C27.724 30.9238 27.8959 30.8779 28.0477 30.7907C28.1994 30.7036 28.3257 30.5781 28.4138 30.4269L31.0514 25.9053C31.0958 25.8294 31.1194 25.743 31.1197 25.6551C31.12 25.5671 31.0971 25.4806 31.0533 25.4043C31.0096 25.328 30.9464 25.2646 30.8703 25.2205C30.7941 25.1764 30.7077 25.1532 30.6197 25.1532H16.3429ZM19.522 10.2578H23.3211L14.631 25.1532H10.8289L19.522 10.2578ZM27.282 29.4449H13.8833L15.5255 26.6263H28.9271L27.282 29.4449Z" fill="white"/>
</g>
<path d="M62.3275 13.0896C62.0021 12.7641 62.0021 12.2365 62.3275 11.9111C62.653 11.5856 63.1806 11.5856 63.506 11.9111L66.2501 14.6552C66.901 15.306 66.901 16.3613 66.2501 17.0122L63.506 19.7562C63.1806 20.0817 62.653 20.0817 62.3275 19.7562C62.0021 19.4308 62.0021 18.9032 62.3275 18.5777L64.2383 16.667L54.1668 16.667C53.7065 16.667 53.3334 16.2939 53.3334 15.8337C53.3334 15.3734 53.7065 15.0003 54.1668 15.0003L64.2383 15.0003L62.3275 13.0896Z" fill="#192833"/>
<path d="M65.8332 25C66.2934 25 66.6665 24.6269 66.6665 24.1666C66.6665 23.7064 66.2934 23.3333 65.8332 23.3333L55.7617 23.3333L57.6724 21.4226C57.9978 21.0971 57.9978 20.5695 57.6724 20.2441C57.347 19.9186 56.8193 19.9186 56.4939 20.2441L53.7498 22.9881C53.099 23.639 53.099 24.6943 53.7498 25.3451L56.4939 28.0892C56.8193 28.4146 57.347 28.4146 57.6724 28.0892C57.9978 27.7638 57.9978 27.2361 57.6724 26.9107L55.7617 25L65.8332 25Z" fill="#192833"/>
<g clip-path="url(#clip1_3249_6910)">
<path d="M109.85 0H90.1498C84.5442 0 80 4.54423 80 10.1498V29.8502C80 35.4558 84.5442 40 90.1498 40H109.85C115.456 40 120 35.4558 120 29.8502V10.1498C120 4.54423 115.456 0 109.85 0Z" fill="#EF3C5B"/>
<path d="M99.1662 30.9244H99.1573C98.1233 30.9214 97.2941 30.4675 96.8223 29.6456C95.8299 27.9174 96.5123 24.728 98.7375 20.5906H89.6676C89.4036 20.5906 89.1588 20.4497 89.0268 20.2197C88.8947 19.9898 88.8947 19.7079 89.0268 19.4795C93.3184 12.0859 98.0462 8.7793 100.832 8.7793H100.841C101.875 8.78226 102.704 9.2362 103.176 10.058C104.168 11.7863 103.486 14.9757 101.259 19.1131H110.332C110.596 19.1131 110.841 19.254 110.973 19.4839C111.105 19.7139 111.105 19.9957 110.973 20.2242C106.681 27.6177 101.952 30.9244 99.1662 30.9259V30.9244ZM100.427 20.5921C97.8326 25.17 97.5166 27.8863 98.104 28.9098C98.2361 29.1398 98.4883 29.4439 99.1603 29.4454H99.1662C101.387 29.4454 105.392 26.4117 109.024 20.5906H100.426L100.427 20.5921ZM90.976 19.1131H99.5712C102.166 14.5336 102.482 11.8189 101.894 10.7953C101.762 10.5654 101.51 10.2613 100.838 10.2598H100.832C98.6129 10.2598 94.6075 13.2935 90.9745 19.1131H90.976Z" fill="white"/>
</g>
<defs>
<clipPath id="clip0_3249_6910">
<rect width="40" height="40" fill="white"/>
</clipPath>
<clipPath id="clip1_3249_6910">
<rect width="40" height="40" fill="white" transform="translate(80)"/>
</clipPath>
</defs>
</svg>
