<svg xmlns="http://www.w3.org/2000/svg" width="431" height="265" viewBox="0 0 431 265">
    <defs>
        <linearGradient id="a" x1="157.42%" x2="118.836%" y1="-39.692%" y2="115.938%">
            <stop offset="0%" stop-color="#E5EDFF"/>
            <stop offset="100%" stop-color="#6B9AD9"/>
        </linearGradient>
        <linearGradient id="b" x1="181.313%" x2="662.835%" y1="173.65%" y2="4%">
            <stop offset="0%" stop-color="#E5EDFF"/>
            <stop offset="100%" stop-color="#6B9AD9"/>
        </linearGradient>
        <linearGradient id="c" x1="39.568%" x2="77.438%" y1="269.973%" y2="0%">
            <stop offset="0%" stop-color="#E5EDFF"/>
            <stop offset="100%" stop-color="#6B9AD9"/>
        </linearGradient>
        <linearGradient id="d" x1="50%" x2="50%" y1="-104.29%" y2="100%">
            <stop offset="0%" stop-color="#FFF"/>
            <stop offset="100%" stop-color="#B3CDEF"/>
        </linearGradient>
        <linearGradient id="e" x1="45.815%" x2="75.941%" y1="15.16%" y2="70.686%">
            <stop offset="0%" stop-color="#F59BA9"/>
            <stop offset="100%" stop-color="#F25267"/>
        </linearGradient>
        <linearGradient id="f" x1="-148.443%" x2="171.514%" y1="220.756%" y2="220.756%">
            <stop offset="0%" stop-color="#E5EDFF"/>
            <stop offset="100%" stop-color="#6B9AD9"/>
        </linearGradient>
        <linearGradient id="g" x1="50%" x2="-33.812%" y1="19.686%" y2="294.476%">
            <stop offset="0%" stop-color="#F7FAFF"/>
            <stop offset="100%" stop-color="#6B9AD9"/>
        </linearGradient>
        <linearGradient id="h" x1="83.28%" x2="111.029%" y1="11.256%" y2="953.538%">
            <stop offset="0%" stop-color="#476DB1"/>
            <stop offset="100%" stop-color="#283F6F"/>
        </linearGradient>
        <linearGradient id="i" x1="50%" x2="50%" y1="-10.877%" y2="100%">
            <stop offset="0%" stop-color="#FFE579"/>
            <stop offset="100%" stop-color="#FEB755"/>
        </linearGradient>
        <linearGradient id="j" x1="50%" x2="67.286%" y1="32.119%" y2="115.978%">
            <stop offset="0%" stop-color="#84F0A8"/>
            <stop offset="100%" stop-color="#48B676"/>
        </linearGradient>
        <linearGradient id="k" x1="50%" x2="50%" y1="-142.327%" y2="170.165%">
            <stop offset="0%" stop-color="#95B7E5"/>
            <stop offset="100%" stop-color="#476DB1"/>
        </linearGradient>
        <linearGradient id="l" x1="83.28%" x2="43.63%" y1="11.256%" y2="621.571%">
            <stop offset="0%" stop-color="#476DB1"/>
            <stop offset="100%" stop-color="#283F6F"/>
        </linearGradient>
        <linearGradient id="m" x1="226.493%" x2="39.966%" y1="50%" y2="24.934%">
            <stop offset="0%" stop-color="#FFF"/>
            <stop offset="100%" stop-color="#E5EEFF"/>
        </linearGradient>
        <linearGradient id="n" x1="85.097%" x2="4.854%" y1="109.304%" y2="-47.176%">
            <stop offset="0%" stop-color="#032258"/>
            <stop offset="100%" stop-color="#133E94"/>
        </linearGradient>
        <linearGradient id="o" x1="13.183%" x2="68.879%" y1="63.035%" y2="57.737%">
            <stop offset="0%" stop-color="#925948"/>
            <stop offset="100%" stop-color="#B06C57"/>
        </linearGradient>
        <linearGradient id="p" x1="100%" x2="0%" y1="50%" y2="50%">
            <stop offset="0%" stop-color="#2865C6"/>
            <stop offset="100%" stop-color="#10378A"/>
        </linearGradient>
        <linearGradient id="q" x1="60.731%" x2="52.081%" y1="0%" y2="50%">
            <stop offset="0%" stop-color="#3485F7"/>
            <stop offset="100%" stop-color="#1A57CF"/>
        </linearGradient>
        <linearGradient id="r" x1="60.731%" x2="50%" y1="0%" y2="100%">
            <stop offset="0%" stop-color="#FFF"/>
            <stop offset="100%" stop-color="#E5EEFF"/>
        </linearGradient>
        <linearGradient id="s" x1="149.379%" x2="157.42%" y1="-86.566%" y2="219.658%">
            <stop offset="0%" stop-color="#E5EDFF"/>
            <stop offset="100%" stop-color="#6B9AD9"/>
        </linearGradient>
        <linearGradient id="t" x1="50%" x2="50%" y1="0%" y2="96.417%">
            <stop offset="0%" stop-color="#FF5261"/>
            <stop offset="0%" stop-color="#FF5061"/>
            <stop offset="100%" stop-color="#C7001E"/>
        </linearGradient>
    </defs>
    <g fill="none" fill-rule="evenodd">
        <g fill-rule="nonzero">
            <path fill="url(#a)" d="M0 9.274h135.556v5.55H0z" transform="translate(.108 146.938)"/>
            <path fill="url(#b)" d="M6.899 14.923h4.139v68.715h-4.14zM124.518 14.923h4.14v68.715h-4.14z" transform="translate(.108 146.938)"/>
            <path fill="url(#c)" d="M0 0h54.153v42.341H0z" transform="translate(10.8 161.515)"/>
            <path fill="url(#d)" d="M0 0h48.29v17.353H0z" transform="translate(13.56 163.944)"/>
            <path fill="url(#a)" d="M10.476 2.718h27.337a1.15 1.15 0 1 1 0 2.3H10.476a1.15 1.15 0 0 1 0-2.3z" transform="translate(13.56 163.944)"/>
            <path fill="url(#d)" d="M0 0h48.29v17.353H0z" transform="translate(13.56 184.073)"/>
            <path fill="url(#a)" d="M10.476 2.718h27.337a1.15 1.15 0 1 1 0 2.3H10.476a1.15 1.15 0 0 1 0-2.3z" transform="translate(13.56 184.073)"/>
            <path fill="url(#e)" d="M39.933 7.429H80.05c.38 0 .69.31.69.694a.692.692 0 0 1-.69.694H41.046c-2.476 0-4.484-1.388-4.484-4.305S38.57 0 41.046 0c2.477 0 4.484 2.02 4.484 4.512a.692.692 0 0 1-.69.694.692.692 0 0 1-.69-.694 3.114 3.114 0 0 0-3.104-3.124 3.114 3.114 0 0 0-3.104 3.124c0 1.432.664 2.404 1.991 2.917z" transform="translate(.108 146.938)"/>
            <g>
                <path stroke="#A4C1EB" stroke-linecap="round" stroke-linejoin="round" stroke-width="4" d="M47.403 122.051c-4.936-8.128-11.011-11.16-18.225-9.096-7.213 2.063-10.307 15.583-9.283 40.56"/>
                <path fill="url(#f)" d="M31.828 41.186h17.05c1.146 0 2.076.93 2.076 2.077H29.75c0-1.147.93-2.077 2.077-2.077z" transform="matrix(-1 0 0 1 59.714 112.328)"/>
                <path fill="url(#f)" d="M11.914 6.243a2.802 2.802 0 0 1 2.773 2.773l.05 4.848-5.488-.057-.05-4.848a2.688 2.688 0 0 1 2.715-2.716z" transform="scale(-1 1) rotate(30 -227.496 -45.21)"/>
                <path fill="url(#d)" d="M8.97 10.747a7.531 7.531 0 0 1 7.452 7.452l.024 2.29-14.75-.153-.024-2.29a7.223 7.223 0 0 1 7.298-7.299z" transform="scale(-1 1) rotate(30 -230.405 -39.646)"/>
            </g>
            <g>
                <path fill="url(#d)" d="M11.387 8.315h6.211v28.062h-6.211zM18.633 0h.499a4.677 4.677 0 0 1 0 9.354h-.499V0z" transform="translate(4.915 67.143)"/>
                <path fill="url(#f)" d="M1.513 4.707l2.771-1.849A17 17 0 0 1 13.72 0h5.95v9.354H1.818A1.819 1.819 0 0 1 0 7.535a3.4 3.4 0 0 1 1.513-2.828z" transform="translate(4.915 67.143)"/>
                <g fill="url(#d)" transform="translate(38.04 67.143)">
                    <path d="M10.36 11.195v11.909l1.598.923a3 3 0 0 1 1.5 2.598v4.31a3 3 0 0 1-1.5 2.597l-.57.33a1.38 1.38 0 0 1-2.07-1.195v-3.104a2.59 2.59 0 0 0-5.18 0v3.104a1.38 1.38 0 0 1-2.069 1.194l-.57-.329A3 3 0 0 1 0 30.934v-4.31a3 3 0 0 1 1.5-2.597l1.608-.93V11.2l-1.609-.929A3 3 0 0 1 0 7.674v-4.31A3 3 0 0 1 1.5.766l.57-.33a1.38 1.38 0 0 1 2.069 1.195v3.105a2.59 2.59 0 1 0 5.18 0V1.63A1.38 1.38 0 0 1 11.387.437l.57.329a3 3 0 0 1 1.5 2.598v4.31a3 3 0 0 1-1.5 2.597l-1.599.924z"/>
                </g>
                <g>
                    <path fill="url(#d)" d="M5.176 0a4.14 4.14 0 0 1 4.14 4.14v16.647h-8.28V4.14A4.14 4.14 0 0 1 5.175 0z" transform="translate(62.884 67.143)"/>
                    <path fill="url(#d)" d="M3.106 19.747h4.14v15.59l-2.07 3.06-2.07-3.06z" transform="translate(62.884 67.143)"/>
                    <path fill="url(#f)" d="M0 16.629h10.352v4.157H0z" transform="translate(62.884 67.143)"/>
                </g>
            </g>
            <g>
                <path fill="url(#g)" d="M.607 34.1h259.849v154.985a4 4 0 0 1-4 4H4.606a4 4 0 0 1-4-4V34.1z" transform="translate(78.062)"/>
                <g stroke="#8AAFE1" stroke-dasharray="10,10" stroke-linecap="round" stroke-linejoin="round" stroke-width="4">
                    <path d="M212.766 78.788h104.152a4 4 0 0 1 4 4v73.051a4 4 0 0 1-4 4H212.766a4 4 0 0 1-4-4v-73.05a4 4 0 0 1 4-4zM212.079 156.438l108.85-74.879"/>
                </g>
                <g fill="url(#a)" transform="translate(100.062 109)">
                    <path d="M4 0h56.876a4 4 0 0 1 4 4v12.09a4 4 0 0 1-4 4H4a4 4 0 0 1-4-4V4a4 4 0 0 1 4-4zM4 31.017h84.483a4 4 0 0 1 4 4v12.09a4 4 0 0 1-4 4H4a4 4 0 0 1-4-4v-12.09a4 4 0 0 1 4-4z"/>
                </g>
                <path fill="url(#h)" d="M13.682 0h232.485c7.556 0 13.682 6.125 13.682 13.682v9.681a4 4 0 0 1-4 4H4a4 4 0 0 1-4-4v-9.681C0 6.125 6.125 0 13.682 0z" transform="translate(78.062)"/>
                <g transform="translate(86.689 9.352)">
                    <ellipse cx="4.314" cy="4.33" fill="url(#e)" rx="4.314" ry="4.33"/>
                    <ellipse cx="17.772" cy="4.33" fill="url(#i)" rx="4.314" ry="4.33"/>
                    <ellipse cx="31.23" cy="4.33" fill="url(#j)" rx="4.314" ry="4.33"/>
                </g>
            </g>
            <g>
                <path fill="url(#k)" d="M5.55 20.8h43.7v4.16H5.55V20.8zm0 14.905h43.7v4.16H5.55v-4.16zm0 14.907h43.7v4.16H5.55v-4.16z" transform="translate(196.232 171.934)"/>
                <path fill="url(#k)" d="M6.937 7.28h5.896L5.896 72.104H0z" transform="translate(196.232 171.934)"/>
                <path fill="url(#k)" d="M48.903 7.28H54.8l-6.936 64.824h-5.897z" transform="matrix(-1 0 0 1 292.997 171.934)"/>
                <path fill="url(#l)" d="M2.428 0h50.984v9.36H2.428z" transform="translate(196.232 171.934)"/>
            </g>
            <g>
                <path fill="#B06C57" d="M311.63 75.204c8.492-19.541 13.996-19.492 18.135-21.734 2.759-1.494 4.199-.29 4.319 3.613-8.691 10.012-12.864 16.7-12.518 20.064.52 5.046-14.565 8.71-9.935-1.943z"/>
                <path fill="url(#m)" d="M6.234 31.613c-4.05-1.666-5.01-5.75-2.88-12.248.755-2.304 3.932-2.934 8.466-.005 5.435 3.512 16.043 18.978 12.161 29.939-.036-.064-.546 1.013-.455 1.701.103.775.8 1.232.563 2.371-.426 2.05-1.92 4.11-2.021 4.101-2.136-.184-5.03-2.113-7.79-2.85-1.935-.517-3.646-.665-4.666-1.364-.401-.275-.074-3.452.824-5.131.418-.78 1.9-.449 1.785-.31.914-6.355-1.081-11.756-5.987-16.204z" transform="rotate(-176 167.79 57.254)"/>
                <g transform="scale(-1 1) rotate(-15 66.51 1568.537)">
                    <path fill="#B06C57" d="M64.27 35.263c-.368 4.104-.43 6.712-.187 7.823.363 1.667 8.342 6.254.78 7.443-5.041.794-9.671-3.367-13.89-12.48 2.022-.367 3.306-1.39 3.852-3.07.545-1.679.669-3.229.37-4.65-1.503-8.104-1.745-12.75-.727-13.942 1.019-1.191 4.852-2.54 11.5-4.045 6.422 4.388 9.451 7.264 9.086 8.627-.547 2.045-1.283 1.685-1.651 3.06-.368 1.373.306 2.365 0 3.112-1.816 4.42-4.552 6.652-5.256 7.584-.822 1.088-2.115 1.268-3.878.538z"/>
                    <path fill="url(#n)" d="M18.208.199c2.4-.697 7.096 2.464 8.04 3.918 1.24 1.914 1.516 3.872.827 5.872 1.117 2.401 1.615 4.392 1.494 5.974-.132 1.74 1.138 3.633.275 5.784-.397.989-2.24 2.013-2.536 2.806-1.886 5.044-3.239 4.974-4.69 5.51-1.668.615-2.537-1.74-3.822-4.838 2.793-1.139 3.112-4.965 1.44-5.982-.883-.538-1.38.209-2.414 3.032-.92 2.516.028 3.722-1.694 6.354-1.462 2.235-5.317 2.512-6.022 2.235-3.747-1.47-3.923-5.6-3.86-6.84.006-.125.064-1.063 1.72-.981 1.656.081 6.164 2.883 8.031-.119.655-1.052.892-2.82.71-5.303-1.393-.873-2.283-1.574-2.67-2.104-1.206-1.656-1.43-3.32-2.31-3.215-5.941.717-9.078 3.288-10.322-.538-1.244-3.826.71-3.692 2.043-5.459C3.7 4.648 3.628 2.177 5.26 2.262c5.001.261 8.326-.721 12.947-2.063zM6.199 25.427c.25 1.75.713 2.642 1.39 2.677.583.03-.129-.614.295-.592.425.022.712.868.934.88.919.047 1.178-.715.777-2.287-.871-.663-1.6-1.036-2.189-1.118-.588-.083-.99.064-1.207.44z" transform="scale(-1 1) rotate(-18 -12.49 270.24)"/>
                    <path fill="url(#o)" d="M15.756 109.821v7.459c-1.285 1.637-2.872 2.456-4.76 2.456s-3.334-.476-4.338-1.427l-.706-7.744 9.804-.744z" transform="scale(-1 1) rotate(-15 235.88 244.029)"/>
                    <path fill="url(#p)" d="M24.9 116.873c.651-.154.899 2.003.927 4.222.01.808-.1 2.068-.33 3.78-.095.703-.512 1.3-1.005 1.44-4.772 1.356-11.287 4.155-13.236 4.328-1.093.096-2.724-.132-4.89-.686a1.704 1.704 0 0 1-1.283-1.65c0-.822.383-1.597 1.036-2.096l5.462-4.175c1.91-2.622 3.263-4.344 4.06-5.163.41-.421 1.07 3.25 3.9 2.581 2.828-.667 4.71-2.428 5.36-2.581z" transform="scale(-1 1) rotate(-15 240.481 278.979)"/>
                    <path fill="url(#o)" d="M38.708 105.337l-.001 7.458c-1.285 1.638-2.871 2.456-4.76 2.456-1.888 0-3.334-.475-4.338-1.426l-.705-7.744 9.804-.744z" transform="scale(-1 1) rotate(-15 258.832 418.362)"/>
                    <path fill="url(#p)" d="M50.225 111.45c.802 0 .802 2.924.836 5.15.013.81-.123 2.044-.407 3.702-.117.68-.63 1.178-1.238 1.202-12.86.502-21.258.489-21.282-.041-.685-2.412 2.17-4.63 8.566-6.656 1.799-1.264 3.19-2.211 4.173-2.843.504-.324.856 2.296 4.342 2.296 3.486 0 4.21-2.81 5.01-2.81z" transform="scale(-1 1) rotate(-15 264.574 461.982)"/>
                    <path fill="url(#q)" d="M20.752 72.955c-3.09 29.534-3.09 39.174-3.75 41.053-.988 2.82-11.738 2.819-12.44-1.081-.467-2.6-.468-17.08 0-43.436C2.436 41.482.118 37.291.251 30.724c.132-6.568 2.652-16.737 7.56-30.51l12.94 17.856c1.262-2.367 2.813-5.246 4.653-8.637 6.675-4.216 8.558 4.897 10.51 13.577 1.951 8.68 8.724 30.569 7.44 47.452-2.334 30.726-2.787 37.69-3.446 39.57-.989 2.818-11.739 2.818-12.44-1.082-.467-2.6-.467-9.639 0-35.995-2.074-10.247-4.193-23.318-5.999-29.84 1.232 3.539.993 13.485-.718 29.84z" transform="rotate(15 -225.026 161.582)"/>
                    <g>
                        <path fill="url(#r)" d="M39.273 4.322c-.026 1.342.03 2.195.168 2.557.172.45 1.025 1.042.959 1.113-.307.327-.734 4.808-1.329 4.938-.83.18.033-4.741-1.354-4.699-2.192.067-5.13-2.234-9.025-7.244-.06-.077.76-.635.662-.762-.04-.052-.442-.045-1.204.022-.758 1.052-1.333 1.64-1.725 1.763-4.776 1.509-8.306 1.767-10.394 3.187-2.344 1.594-4.018 9.786-5.02 24.575C5.75 44.263 2.108 53.645.088 57.917c12.542 8.138 25.5 10.523 38.87 7.155 3.457-20.743 5.846-34.333 7.166-40.77 1.32-6.438.474-11.273-2.536-14.504l-4.316-5.476z" transform="translate(24.615 36.241)"/>
                        <path fill="#5E9FBC" d="M63.541 49.747a.346.346 0 0 1 .692.046c-1.704 25.312-5.426 45.466-9.034 52.507a.347.347 0 0 1-.466.15.344.344 0 0 1-.152-.464c3.55-6.927 7.263-27.023 8.96-52.24z"/>
                    </g>
                    <path fill="url(#i)" d="M58.486 49.082c-3.202-1.265-10.568-5.925-8.216-10.594.312.019.847-.13 1.165-.398.586-.497 1.041-1.313 1.447-1.524.423-.09.882-.047 1.135-.129.21-.068.241-.235.345-.508-3.959-.815-11.507 2.8-14.394 4.763-2.345 1.594-5.538 10.724-9.58 27.39-2.145 7.971-4.186 14.116-6.12 18.433 3.639 2.361 13.93 9.703 17.298 8.169 14.045-6.4 17.671-43.698 16.92-45.602z"/>
                    <path fill="#F0AA44" d="M30.576 80.754l6 2.61a4 4 0 0 0 4.545-.965l2.952-3.223-13.497 1.578z"/>
                    <ellipse cx="40.134" cy="52.227" fill="url(#r)" rx="5.718" ry="11.098" transform="rotate(18 40.134 52.227)"/>
                    <path fill="url(#i)" d="M68.714 50.884c-2.457-1.9-2.67-4.582-.067-7.306.193-.202.917-1.194 2.171-2.977.102-.558.096-1.048-.018-1.47-1.679.636-5.656 3.702-7.392 8.18-1.502 3.878-.198 20.314.412 34.046.267 6.036-2.664 10.603-1.553 11.323 3.64 2.362 6.23 3.287 9.351 2.454 3.122-.833-1.133-11.652-3-22.918-1.452-8.768.515-19.48.096-21.332z" transform="matrix(-1 0 0 1 134.744 0)"/>
                </g>
                <g>
                    <path fill="#B06C57" d="M361.23 154.037l-.142.38-1.574 2.998c-.712 4.32-1.212 6.551-1.499 6.695-.287.143-.5-.618-.642-2.284-1.49 1.967-2.398 2.962-2.726 2.985-.328.024-.088-1.055.72-3.237-1.963 1.817-3.107 2.651-3.43 2.502-.325-.15.236-1.423 1.681-3.82-1.914 1.474-2.89 1.999-2.926 1.575-.038-.424 1.09-1.971 3.385-4.643-1.71-.114-2.474-.366-2.294-.755.18-.39 1.44-1.112 3.78-2.169a85.752 85.752 0 0 1 1.634-1.85c2.974-13.746 3.596-22.07 1.866-24.974-2.599-4.363-3.463-6.335-9.897-13.04-6.433-6.705-2.394-13.772 2.65-14.56 5.677-.886 19.609 14.513 18.895 26.264-.715 11.75-7.387 26.103-9.254 27.751-.075.066-.15.127-.227.182z"/>
                    <path fill="url(#r)" d="M37.407 12.104c1.5-9.19 9.52-10.243 13.145-6.696 4.083 3.993.133 24.424-9.63 30.964a42.659 42.659 0 0 1-3.572 2.134c-.168.09.26.636.137.788-.602.746-1.408 1.88-2.2 2.06-6.212 1.408-11.008-7.463-7.475-9.98.795-.566 1.589-.744 2.187-1.262.15-.13.719.563.857.436 1.06-.977 1.752-1.863 2.076-2.66 1.921-4.713 2.974-6.595 4.475-15.784z" transform="rotate(-53 295.887 -249.404)"/>
                </g>
            </g>
            <g>
                <path fill="url(#i)" d="M0 13.521C0 6.054 6.058 0 13.532 0c7.473 0 13.531 6.054 13.531 13.521H0z" transform="scale(-1 1) rotate(-26 -53.232 798.675)"/>
                <path fill="#EE9F3E" d="M348.522 63.331a.484.484 0 0 0 .939-.235 13.988 13.988 0 0 0-7.454-9.188 13.964 13.964 0 0 0-9.365-1.045.484.484 0 1 0 .224.941 12.996 12.996 0 0 1 8.717.974 13.02 13.02 0 0 1 6.939 8.553zM350.01 68.759l-28.48-13.89a2.309 2.309 0 0 0-3.086 1.063l30.554 14.902 1.012-2.075z"/>
            </g>
            <g>
                <path fill="url(#d)" d="M31.586.09c6.054.606 3.968 14.305 5.63 16.837 1.66 2.515 6.332 3.277 5.68 8.758-.653 5.48-5.159 5.297-5.696 9.85-.537 4.553 9.597 3.958 8.732 11.145-.865 7.187-8.679 9.366-9.192 13.695-.513 4.33 3.356 6.028 2.21 15.61-1.145 9.58-9.03 11.544-20.807 12.382C6.366 89.204-.941 85.97.205 75.64 1.35 65.308 13.854 65.606 15.398 59.937c1.544-5.65-6.375-8.724-5.632-15.353.744-6.629 12.656-6.324 13.263-11.619.608-5.295-8.716-8.183-8.096-13.684.62-5.501 2.986-6.32 7.453-8.213C26.852 9.21 25.532-.515 31.586.09z" transform="scale(-1 1) rotate(-16 319.378 1606.035)"/>
                <path fill="#98BBE9" d="M388.814 225.144c.218.141.472.045.568-.215.096-.26-.003-.585-.22-.726-5.242-3.368-7.36-7.753-6.449-13.3.046-.28-.107-.57-.342-.647-.235-.077-.463.087-.508.366-.992 6.046 1.362 10.919 6.951 14.522zM391.83 202.155c.243.049.446-.146.454-.436.008-.29-.182-.565-.426-.613-3.941-.793-6.575-4.004-7.965-9.72-.07-.285-.317-.479-.55-.434-.235.044-.368.31-.298.594 1.494 6.132 4.436 9.725 8.785 10.609zM392.438 170.501c.169.024.31-.114.315-.306.005-.193-.128-.368-.297-.391-2.035-.279-3.392-1.795-4.113-4.618-.048-.188-.218-.31-.38-.272-.162.038-.254.222-.206.41.792 3.1 2.364 4.856 4.681 5.177zM393.656 167.047c-.163-.055-.25-.247-.193-.427.056-.18.235-.282.398-.227 1.972.67 3.713-.13 5.286-2.47.105-.157.302-.196.44-.088.138.108.165.324.06.48-1.728 2.573-3.744 3.499-5.99 2.732zM392.094 195.1c-.235-.092-.357-.383-.272-.648.084-.266.343-.407.578-.315 3.483 1.37 6.594.014 9.432-4.184.155-.23.44-.28.638-.11.197.17.231.493.076.724-3.067 4.54-6.577 6.067-10.452 4.534zM392.188 220.353c-.232-.104-.351-.404-.266-.67.084-.266.34-.398.573-.294 3.434 1.537 6.513.292 9.334-3.848.155-.227.437-.265.631-.085.195.18.227.51.073.738-3.05 4.478-6.524 5.88-10.345 4.16z"/>
                <path fill="#8FAFDA" d="M385.304 244.036c-.062.376.14.78.451.905.312.124 1.038.087 1.1-.29-.069-2.47.231-5.734.902-9.797 1.007-6.094 5.741-15.2 6.266-22.167.52-6.95-3.342-21.494-3.213-31.996.092-8.5 3.644-15.3 5.252-20.01 1.612-4.725 2.18-10.667 2.073-10.688-.128-.025-.738 6.062-2.4 10.616-1.658 4.539-4.668 10.3-5.52 17.354-1.594 13.155 3.577 26.64 2.142 35.262s-4.756 13.151-6.376 20.601c-1.079 4.96-1.304 8.361-.677 10.21z"/>
                <g>
                    <path fill="url(#j)" d="M22.752 0c6.054 0 5.577 14.319 7.519 16.819 1.942 2.5 6.669 2.99 6.669 8.796 0 5.807-4.506 5.807-4.506 10.588 0 4.781 10.035 3.9 10.035 11.6 0 7.7-7.559 9.961-7.559 14.53 0 4.568 4.086 6.49 4.086 16.683 0 10.194-7.717 11.7-19.493 11.7C7.726 90.715 0 86.982 0 76.79c0-10.194 12.574-9.569 13.476-15.282.901-5.713-7.367-8.824-7.367-15.44s11.912-6.616 11.912-12.022c0-5.405-9.6-7.858-9.6-13.372 0-5.515 2.257-6.5 6.472-8.736C19.108 9.704 16.698 0 22.752 0z" transform="rotate(-17 682.574 -1046.403)"/>
                    <path fill="#5ACE87" d="M379.985 229.936c-.213.13-.494.027-.628-.232-.134-.258-.07-.573.143-.703 5.106-3.13 6.763-7.416 5.062-12.98-.086-.28.036-.566.272-.638.237-.073.498.096.583.376 1.858 6.074.016 10.84-5.432 14.177zM373.756 207.373c-.249.055-.483-.134-.523-.423-.04-.288.128-.566.376-.622 4.026-.895 6.405-4.195 7.178-10.028.039-.29.272-.497.52-.46.25.037.42.303.381.594-.83 6.262-3.489 9.95-7.932 10.939zM368.964 175.744c-.17.037-.33-.09-.357-.286-.028-.194.087-.382.256-.42 2.044-.446 3.247-2.1 3.638-5.045.026-.196.185-.335.355-.31.17.025.286.205.26.401-.43 3.236-1.823 5.151-4.152 5.66zM367.41 172.294c.162-.064.223-.26.137-.437s-.286-.268-.447-.204c-1.945.773-3.867.075-5.838-2.149-.131-.148-.34-.175-.467-.059-.127.116-.123.33.009.478 2.165 2.443 4.391 3.251 6.607 2.37zM372.85 200.289c.236-.092.323-.379.195-.64s-.422-.398-.658-.306c-3.492 1.365-6.97.074-10.542-3.956-.195-.22-.502-.26-.686-.092-.185.168-.176.483.018.703 3.86 4.353 7.785 5.81 11.673 4.29zM375.988 225.17c.236-.092.323-.378.195-.64-.128-.26-.422-.397-.658-.305-3.492 1.365-6.97.073-10.542-3.956-.195-.22-.502-.26-.686-.092-.185.168-.176.483.019.703 3.858 4.353 7.785 5.81 11.672 4.29z"/>
                    <path fill="#42B16D" d="M386.086 248.611c.113.371-.053.751-.373.849-.319.097-1.102.008-1.216-.363-.229-2.4-.954-5.602-2.174-9.607-1.83-6.009-7.963-15.07-9.383-21.89-1.42-6.821.689-21.259-.858-31.761-1.258-8.546-5.798-15.178-8.067-19.8-2.27-4.623-3.656-10.557-3.552-10.589.124-.038 1.574 6.041 3.872 10.49 2.297 4.45 6.144 10.07 7.985 17.134 3.426 13.15-.164 26.588 2.43 35.074 2.595 8.486 6.675 13.046 9.337 20.435 1.775 4.926 2.441 8.269 1.999 10.028z"/>
                </g>
                <g>
                    <path fill="url(#r)" d="M22.752 0c6.054 0 5.577 12.251 7.519 14.39 1.942 2.14 6.669 2.558 6.669 7.526 0 4.969-4.506 4.969-4.506 9.06 0 4.09 10.035 3.336 10.035 9.924 0 6.588-7.559 8.523-7.559 12.432 0 3.908 4.086 5.552 4.086 14.274s-7.717 10.01-19.493 10.01C7.726 77.616 0 74.423 0 65.7s12.574-8.187 13.476-13.075c.901-4.888-7.367-7.55-7.367-13.21 0-5.66 11.912-5.66 11.912-10.286 0-4.625-9.6-6.724-9.6-11.442s2.257-5.561 6.472-7.474C19.108 8.302 16.698 0 22.752 0z" transform="scale(-1 1) rotate(-28 133.908 981.702)"/>
                    <path fill="#D2DEF8" d="M393.088 233.108a.454.454 0 0 0 .585-.694c-4.517-3.854-5.57-7.918-3.234-12.313a.45.45 0 0 0-.181-.61.45.45 0 0 0-.609.19c-2.55 4.798-1.38 9.315 3.44 13.427zM401.672 214.798a.461.461 0 0 0 .59-.266.449.449 0 0 0-.257-.586c-3.788-1.434-5.521-4.608-5.218-9.636a.447.447 0 0 0-.427-.475.464.464 0 0 0-.482.435c-.325 5.398 1.613 8.945 5.794 10.528zM410.383 188.86c.16.06.34-.02.403-.178a.302.302 0 0 0-.176-.396c-1.925-.722-2.805-2.314-2.652-4.853a.303.303 0 0 0-.291-.32.315.315 0 0 0-.329.292c-.168 2.79.852 4.633 3.045 5.456zM412.661 186.435a.316.316 0 0 1-.077-.434.302.302 0 0 1 .426-.076c1.675 1.192 3.487 1.031 5.507-.515a.303.303 0 0 1 .429.062.315.315 0 0 1-.06.436c-2.218 1.699-4.317 1.885-6.225.527zM404.07 209.27a.458.458 0 0 1-.109-.635.449.449 0 0 1 .628-.116c3.01 2.12 6.292 1.803 9.952-1a.445.445 0 0 1 .63.087c.148.2.107.486-.092.639-3.954 3.028-7.659 3.385-11.01 1.025zM397.916 229.945a.458.458 0 0 1-.108-.635.449.449 0 0 1 .628-.116c3.01 2.12 6.292 1.803 9.952-1a.445.445 0 0 1 .63.087c.149.2.107.486-.092.639-3.954 3.028-7.659 3.385-11.01 1.025z"/>
                    <path fill="#D2DEF8" d="M384.868 247.771a.603.603 0 0 0 .251.815c.295.156 1.06.258 1.216-.035.522-2.01 1.623-4.598 3.301-7.763 2.517-4.748 9.558-11.139 11.783-16.679 2.224-5.54 2.015-18.433 4.826-27.109 2.286-7.06 7.489-11.726 10.253-15.182 2.765-3.457 4.847-8.241 4.75-8.293-.114-.06-2.275 4.835-5.045 8.136-2.77 3.3-7.178 7.254-9.839 12.908-4.952 10.524-3.192 22.895-6.756 29.599-3.565 6.703-8.063 9.693-11.554 15.438-2.328 3.83-3.39 6.552-3.186 8.165z"/>
                </g>
                <g>
                    <path fill="url(#a)" d="M.723.71h36.158l-8.035 22.75H8.758z" transform="translate(366.458 241.2)"/>
                    <path fill="url(#s)" d="M0 0h36.881v7.109H0z" transform="translate(366.458 241.2)"/>
                </g>
            </g>
        </g>
        <path fill="url(#t)" fill-rule="nonzero" d="M16.047 0h7.932L12.126 21l-3.92-7.187L16.047 0zm-4.012 21h14.953L31 28H16.138l-4.103-7zm-7.294-1.213l4.924 8.12H0l4.741-8.12z" transform="translate(91 40)"/>
        <g fill="#273D57">
            <path d="M189.353 62.539h3.718V46.813h-3.718zM196.6 62.538h3.67v-9.996l8.186 9.996h3.162V46.813h-3.67v9.683l-7.919-9.683H196.6zM135.541 62.538h12.146v-3.145h-8.427v-12.58h-3.719zM157.055 62.786c1.14 0 2.16-.146 3.075-.439.909-.296 1.69-.736 2.333-1.325.648-.587 1.144-1.329 1.486-2.216.342-.888.514-1.928.518-3.119v-8.874h-3.718v9.009c-.004.831-.149 1.528-.438 2.086-.294.56-.709.98-1.252 1.265-.543.28-1.195.423-1.956.423-.76 0-1.412-.147-1.956-.438a2.921 2.921 0 0 1-1.247-1.303c-.294-.577-.439-1.292-.443-2.146v-8.896h-3.718V55.8c.008 1.543.302 2.834.89 3.867a5.55 5.55 0 0 0 2.51 2.336c1.09.52 2.395.783 3.916.783M168.258 62.538h3.646V52.34l4.709 6.65h.097l4.756-6.716v10.265h3.694V46.813h-4.008l-4.442 6.65-4.444-6.65h-4.008z"/>
        </g>
    </g>
</svg>
