<svg xmlns="http://www.w3.org/2000/svg" width="751" height="448" viewBox="0 0 751 448">
    <path fill="#D8E6FC" fill-rule="evenodd" d="M3.174 115.322c-.59 0-.818-.175-1.11.617H.959c.146.35.587.626.883.888h2.44c-.15-.888-.222-1.505-1.108-1.505zm222.9 48.852v-.62c-1.698 0-.588-.53-.588-1.328 0-.354-.37-.53-.517-.883-.667.26-1.698 2.477-1.698 3.013 0 .526.444.969 1.182.969.806 0 1.622-.531 1.622-1.151zm-8.49-2.923c-.145.092-.294.351-.294.62 0 .616 2.732 2.303 3.25 2.303.146 0 .885-.45.885-.976v-.535h-2.214c-.736-.176-1.256-.527-1.626-1.412zm4.577-7.438c-1.548-1.057-2.952-2.738-5.24-2.114.889.792 3.027 2.647 4.208 2.647.59 0 .814-.084 1.032-.533zM27.305 125.94v1.063c.523.441.892.53 1.55 1.16 1.108-1.071 1.555-1.69 2.88-2.49v-1.06h-.884c-1.327 0-2.287.885-3.546 1.327zm47.684 15.584c0-.45-.368-.628-.368-1.064 0-.885.15-1.421 0-1.948-.144.436-.438 1.142-.96 1.142-.441 0 .442-.967.442-1.057-.663-.085-1.034-.623-1.7-.623v.713c.3.531.594 1.587.885 1.587.448 0 .594.979 1.189 1.154 0 .175-.294.447-.294.976 0 .709.438 1.678 1.028 1.678.738 0-.59-1.327-.59-1.678s.368-.53.368-.88zm11.073 12.033c1.18.888 3.76 3.273 5.459 3.273h.666v-.799c-1.918-2.3-3.691-4.421-6.865-5.664-.52-.179-1.18-1.238-1.994-1.238-.364 0-.734.265-1.032.436h.298s.734.269 1.107.36c-.08.263-.373.621-.737.792.292 1.064 2.358 1.954 3.835 1.954-.22.27-.588.27-.737.886zm95.877-11.327c.07 0 .365.08.365 0 0-1.243-1.252-1.505-2.51-1.505a.832.832 0 0 1 0 .616c.442.534 1.48.89 2.145.89zm53.217 4.418c0-.348-.223-.88-.512-.88-1.189 0-1.635 1.504-2.22 2.651-1.106 2.036-1.923 6.024-3.988 7.252.073.268.368.45.589.45v.527c0 .09-1.324 1.331-1.324 1.68 0 .267.365.89.735.89.885 0 1.185-.527 2.29-.527.81 0 1.254.615 2.213.615.516 0 .96-.182 1.472-.436.374.88 1.332.347 2.07.347-.219.533-.811.533-.811 1.417 0 .175.297 0 .442 0 .885 0 1.555-1.328 2.142-2.4.591.715.145 2.4.738 2.4.221 0 .37.175.588.175 0 .352.152 1.06.668 1.06.733 0 1.177-1.06 1.177-2.119 0-.88-.514-.801-.514-1.86-.443.345-.224.528-.96.528 0-.617-.518-.973-.518-1.414 0-.356.664-.531.74-1.333-.293 0-.669.092-.812.268 0-1.325.072-2.125.072-2.919-.367.272-1.324.272-2.142 0l-.885.356v-.44h-1.328v-.803l.373-.433c-.295-.364-.738-.45-1.181-.45-.515 0-.515.531-1.108.706v-.79c.438-1.605 1.994-2.563 1.994-4.518zm3.098-69.203h1.626c1.253 0 2.8-.27 2.948-1.772-1.92-.705-2.508-3.099-4.43-3.099-.664 0-1.618.44-1.618 1.77 0 1.06.804 3.009 1.474 3.101zm67.165-3.897c-1.549-.617-8.12-.262-8.12-2.92.368-.088 1.626-.358 1.626-1.148 0-.705-.737-.975-.737-2.217.365.268.737 0 1.104 0 3.025 0 2.29 4.422 5.76 4.422.807 0 1.993-.084 1.993-1.056 0-5.053-4.728-6.552-7.384-9.731v-1.333c.15 0 .37.093.959 0 .445 1.68 2.731 3.987 4.066 3.987.88 0 1.103-1.42 1.103-2.482 0-2.395-3.319-1.595-4.06-3.982h1.107c.59.975 1.401 1.419 2.215 2.039.591-1.861 3.543-.71 4.057-3.365-.369-.178-.738-.714-.738-1.331 1.403-.178 2.88-.969 3.321-2.383-.886-.363-2.952-.273-2.952-1.772 0-1.157 1.183-1.157 2.365-1.157-.373-.522 0-1.236 0-1.941 0-1.327-1.104-1.858-1.104-3.806-1.036 0-2.364 0-2.364-1.507 0-.62.664-1.33 1.472-1.33 1.331 0 5.171.796 5.171-1.326 0-2.119-2.88-1.681-3.175-3.092.443 0 .959-.272 1.325-.54-.738-.702-1.771-1.676-2.951-1.676-.81 0-1.399.443-2.21 0 .44-.886.368-3.006 1.25-3.807 1.404-1.236 2.952-1.858 2.952-3.718 0-.35.077-.35 0-1.324 1.4-.448 3.32-.8 3.32-2.216 0-.884.518.09 0-1.147 1.333-.354 3.32-.354 3.32-2.833-.588.527-.66.527-1.544 0 3.32 0 4.87-2.568 7.306-3.536.442-.184 1.846-.974 1.846-2.045 0-1.148-3.469-3.095-4.428-3.095-.738 0-1.257.085-1.478 1.148h-3.542c-1.187.71-1.4 1.154-2.735 1.77-.289.092-1.692-.26-1.692-.26h-4.947c-1.184 1.065-4.918 6.901-6.832 7.518.22-.88 4.987-6.902 4.987-7.694 0-1.334-.517-2.653-1.845-2.653-2.439 0-6.837 5.044-8.679 5.044-.593 0 2.627-3.725 2.772-4.433-1.32-.611-13.699 1.15-14.952 0l16.206-1.056c1.995-.888 7.012-.444 7.385-3.544-1.85-.529-4.432.087-6.426-.88C296.044 3.366 292.8 0 288.445 0H277.74c-3.762 0-6.642 2.481-10.184 2.481-1.111 0-1.847-.18-2.952 0V3.54h-1.478c-1.629-.708-2.802-.615-4.573-.615-2.44 0-4.285.615-6.278 1.765.377.625.964.714 1.477 1.33-.666.173-2.95-.261-2.95 1.058 0 1.684 3.027 2.84 4.205 3.54h-3.323c-1.838-1.055-3.616-3.09-6.643-3.09-.735 0-1.839.087-1.839 1.147 0 .71.364 1.243.59 1.944h-1.107c-1.48-.701-2.734-.527-3.546-2.204l-.737.884c0 .619.369 1.146.369 1.772-1.404 0-1.774-2.656-3.101-2.656-1.997 0-3.466 1.41-5.534 2.03-2.81 0-3.912.882-6.865 1.325-2.362.356-.37 4.434-2.954 4.434-.74 0-1.327-.182-1.917-.713-1.477 1.767-4.8 3.891-7.308 4.864-.368.087-1.475.533-1.475 1.333 0 1.679 4.205 1.596 5.538 1.772 0 2.209-.813 3.8-1.993 4.688-1.623 1.148-4.28-.183-6.276.615-1.402.533-2.216 1.508-3.547 2.037-1.617.625-4.206-.355-4.206 2.388 0 1.422 7.084 3.807 7.38 3.807h2.583c.375 0 .591-.441.744-.879h2.95c-.221.973-.221 1.326-.957 1.944h-4.21c-.368.618-.591.71-1.325.71h-1.847c-.59 0-2.072.53-2.22 1.765 1.405.624.959 0 2.585 0 .886 0 1.773.977 2.953 1.501-.292.796-.808.889-1.47 1.42.878 1.325 3.243 2.124 4.793 2.124.593 0 .516.27.959-.261-.218-.088-.512-.445-.739-.718.373-.174.667-.343 1.478-.343.881 0 1.552.707 2.214.707.957 0 1.403-1.158 2.362-1.158h2.211c8.269 0 13.432 7.703 15.5 15.319v1.322c.668.09 1.846.18 1.846 1.507 0 2.03-1.62 1.854-1.62 3.804 0 1.328.66 1.503 1.99 1.503.96 0 1.182-1.503 1.846-1.503 2.44 0 3.099 4.155 5.384 5.04-.07.542 0 1.335-.73 1.335-1.775 0-2.885-1.335-4.432-1.335-.666 0-.59-.346-1.332 0 .298 2.486 5.684 2.924 7.972 3.806-.661 2.482-1.769 3.363-2.208 6.02-1.04-.528-1.04-.44-2.07.179v.18c-1.478 1.412-1.92 3.18-2.952 4.86v2.046c.442-.459.96-.361 1.474 0-.22.881-.739 1.319-.739 2.205 0 2.39 1.994 3.365 2.44 5.049.217.884.442 2.56.74 2.918 1.249.792 1.62-1.414 2.727.263-.517.62-1.107.529-1.107 1.68 0 2.568 2.808 6.554 4.28 7.972.22.175.074 1.412.513 1.766 1.186 1.06 1.924.444 2.44 2.477.888-.091 2.067-1.152 3.096-1.152 1.85 0 1.703 3.989 3.548 3.989.445 0 .59-.529 1.476-.624.146.538.367.89.89.89 1.987 0 1.103-4.604 2.8-5.58-.151-.967 0-3.274 0-4.864 0-2.574 3.464-1.598 3.464-4.6 0-.975-.882-1.425-.882-2.036 0-.443.294-.716.514-1.067 0-.262-.143-.615-.143-.883 0-2.923 3.984-2.124 5.533-3.98.663-.796.369-1.688 1.48-2.218v1.771h1.106c1.551-1.323 4.056-.887 5.531-2.657 1.105-1.32 1.188-3.092 2.585-4.417l1.848-1.602c0-.706.734-.969 1.475-1.498h3.468c2.804-1.422 4.944-1.155 7.606-2.214 2.138-.8 2.878-3.276 5.312-4.252 1.332-.528 2.069-.62 3.173-1.68zM161.271 13.54h2.213c-.885.362-1.326.622-2.063 1.505.142.094.96.705 1.325.705 1.4 0 1.479-1.588 2.956-1.588.587 0 .808 0 1.476.183-1.92.7-3.768.443-4.579 2.74.594-.089 2.067 0 3.47 0-.96.092-1.472.53-1.993.973.52.797 2.583 1.856 4.062 1.856.662 0 1.104-.44 1.62-.883h.96c-.442 1.149 1.477 1.769 2.956 1.769.59 0 .881-.886 1.472-.886.736 0 1.182.713 2.584.713 2.361 0 4.058-.627 5.537-2.036h1.105c-.884 1.323-2.141 1.764-3.541 2.474h-3.689c-.149.267-.522.531-.522.886 0 .53 2.362 2.3 2.735 2.74-2.07.27-2.735-2.291-4.574-3.003-1.478-.538-3.104-.175-3.917-.175-.366 0-.735-.181-1.106 0 .151.705.292 1.06 1.106 1.06-.735 0-1.84-.173-1.84.711 0 1.588 5.015 1.588 5.015 4.421 0 2.478-2.216 1.681-4.06 2.388-1.108.442-1.622 1.416-2.215 2.921v1.06h1.107c.3-.349.3-.349.742-.616h1.105c0 2.117 2.29 3.188 3.321 4.421h-1.325c-1.404-.971-2.216-2.475-4.576-2.475-.74 0-1.85-.353-1.85.888 0 1.587 1.55 1.855 2.44 2.653-1.55 1.325-5.39 0-5.39 3.541 0 .261.22.708.738.708.368 0 .663-.447.889-.885 2.58.975 4.573 1.765 7.005 1.765 1.11 0 1.554-.88 2.213-.88h5.54c1.478 0 .74 1.33 2.434 1.33 1.697 0 5.904-1.6 5.904-3.1 0-.795-.883-.711-1.103-.711h-1.845c0-3.011 3.097-1.328 3.097-4.159 0-.53-.366-.71-.519-1.33h3.693c1.252-1.058 1.77-3.183 3.324-4.06-.446-1.251-1.256-1.602-2.14-2.133 1.4.175 2.288.355 2.14-1.591h-2.072c1.186-1.156 3.026-1.334 4.655-1.95 1.18-.44 2.809.616 3.837-.268 2.214-1.938 3.912-5.479 6.861-6.63 2.658-1.069 6.791-2.304 8.493-4.34-1.85-.09-4.8.616-5.538-.272 3.91-2.287 7.53-.706 10.48-3.361.519-.44 1.844-.174 1.844-1.32 0-1.594-3.913-1.152-4.793-2.221-.444-.525-.444-1.236-1.257-1.494-.515-.18-.81-.358-1.33-.71l-5.903 2.033c.591-.176.811-.354 1.33-.974-1.475-1.772-7.828-1.508-9.6-1.508h-2.063c-.669 0-1.107-.619-2.214-.619-1.034 0-1.328 1.509-2.366 1.509-1.105 0-1.47-1.062-2.803-1.062-.371 0-.738.265-.885.62h-8.488c-.739 0-1.328.266-1.695 1.146-.965.973-.223.176-1.478.176-2.14 0-3.028 1.864-3.687 3.984-.666-.265-3.55-1.942-4.949-1.942-1.549 0-.59 1.942-2.949 1.942 0 .358-.3.713-.592.713h-1.62c-2.148 0-6.943 1.055-7.383 3.27h1.623c.22-.182.66-.442 1.105-.622zm13.508 78.504c-.077.619.514 1.323 1.474 1.413-.515-.794-.515-1.94-1.474-1.413zm12.324 10.799c.74.706.96.706 1.702 0-.889-.531-.963-1.154-1.702 0zm15.72-33.364c.22-1.509-1.623-1.775-2.427-1.775h-1.85c-2.44 0-2.952-3.012-4.579-4.418-.956-.803-4.132-1.33-5.535-1.33-1.33 0-1.694 2.209-2.952 2.209-.664 0-.888-.88-1.7-.88-.732 0-1.032.88-1.474.88-.366 0 0-1.415 0-1.766 0-1.951-1.033-5.045-2.948-5.045-2.956 0-7.904 1.062-7.904 4.425 0 .878.74 1.507.74 2.386 0 .712-1.031 1.774-1.473 1.774-.889 0-.738-.797-.738-1.503 0 0-.15-.973 0-1.6-.371 0-.593-.353-.593-.88 0-2.567 2.433-2.746 3.173-4.602-.076 0-2.434-.886-2.434-.886-2.506 0-4.427 1.507-5.907 3.27-.296.355.073 1.953-.516 2.483-1.106.968-1.477 1.505-1.477 3.977 0 .8 1.109 2.393 1.109 2.393s3.393.356 4.06.888v1.149c-1.253-.175-2.365-.714-3.322-.265.146 1.237 1.252 1.41 1.626 2.65h3.539c.443.71 1.623 1.777 2.213 1.777 3.325 0 8.933-.27 11.222 0-.073.612-.37 2.034.589 2.034 1.327 0 2.512-3.365 3.473-3.365.81 0 4.796 4.071 5.458 4.872-.442.086-1.773.262-1.773 1.147 0 .173.297 1.06.591 1.06.96 0 1.403-1.06 2.361-1.06 1.552 0 6.276 4.34 6.276 6.639 0 1.235-1.553 3.183-2.214 3.978-.517.62-1.843-.177-1.843 1.333 0 .706.955 1.59 1.326 1.851-.886.713-2.658 1.24-3.319 1.24h-3.178c-1.028 0-2.95 1.51-2.95 2.395 0 1.234 2.362 2.48 3.172 2.48.89 0 1.33-1.332 2.22-1.332.663 0 .51.619 1.251.619.658 0 1.108-.709 1.478-1.329 2.136 1.502 3.322 3.19 5.756 4.43-1.254 2.83 3.173 2.745 4.947 3.977 1.842 1.33 3.246.8 5.385 2.034.222.092.368 1.068.74 1.068.292 0 .739-.446.739-1.068 0-2.47-4.135-4.33-5.392-6.19h1.11c.808 1.242 5.536 3.355 6.866 3.541.289-.981 1.104-2.653 1.104-3.54 0-.976-1.328-1.415-1.328-2.036-.078-.35-.078-.35 0-1.768h-1.256c-.147-1.507-.664-.448-2.063-1.064-.594-.265-1.48-2.217-1.626-3.366h-.961v-1.326c.297.268.665.177 1.106 0v-1.065c-.664.176-.809.268-1.47-.175.07 0 1.029-.971 1.47-.971 3.544 0 3.694 6.018 7.38 6.018.812 0 .96-1.503.96-2.481 1.401 0 1.628-.793 1.628-1.058 0-.446.072-.178 0-1.157.955 0 2.212-.35 2.212-1.5 0-1.415-.591-2.037-1.994-2.037-.364 0-.959 0-1.33-.437-.588-1.688-.954-.445-2.58-.445-1.108 0-1.476-1.506-1.625-3.1-1.55-.177-3.539-1.058-3.69-3.099-.96 0-1.402-.267-2.067-.705.665-1.328 1.256-1.328 2.435-2.035-.217-.53-.734-.796-1.108-.796-.662 0-.96 0-2.213-.177.592-1.068 1.551-.978 2.587-1.238-.445-1.24-1.036-2.127-2.066-2.127h-1.259v-1.505c-2.062-.27-3.175-1.685-5.168-2.475zm-15.867 8.138c-.883 0-2.583 2.034-1.702 2.034.891 0 1.484-.974 1.702-2.034zm10.335 6.547c-.223-.344-.812-1.415-1.475-1.415-.154 0-.962.622-.962.893 0 .522.442.703.962.703.732 0 .517.092 1.475-.18zm-13.51 25.4c.738 0 .889-1.238 1.332-1.947-.74-1.058-2.439-.971-2.439.62 0 0 .962 1.328 1.107 1.328zm1.702-47.785c1.253 0 1.914-.884 2.727-.884.815 0 1.255.617 2.216.617.664 0 1.11-.617 1.327-1.419-1.327-.798-3.02-2.74-5.017-2.74-1.55 0-2.066-.708-3.688-.708-.594 0-1.26.442-1.26 1.33 0 .971.815 1.414 1.479 1.858-.52 1.498.739 1.946 2.216 1.946zm-7.973 42.658c-.072.52-1.037 1.322-1.628 2.209v1.147c1.185-.176 3.027-1.945 3.694-3.005-.892-.442-.59-.442-2.066-.35zm16.606-19.645c0-2.922-4.573-3.541-4.573 0 0 1.052.734 1.944 1.841 1.944.884 0 2.732-.799 2.732-1.944zm-14.024 14.6c-.37-.358-.147-.975-.516-1.593-1.33-2.13-3.694-1.238-5.24-3.544a2.372 2.372 0 0 0-.662.716c-.375-.885-.74-1.151-1.111-2.483-2.067.262-2.437 3.804-2.437 5.311v1.324c0 .527-.366.802-.733 1.155-.151.439-1.034.264-1.11 1.766.588-.083 1.993-.36 3.174 0-.148.886-.372 1.77.513 1.77.37 0 .37-.262.593-.707 1.035.527 3.473-1.324 3.473-3.283.437.182 2.801 2.22 2.801 2.22h1.993c.96 0 1.624-.36 2.437-.967-.662-1.071-1.994-.62-3.175-1.685zm-26.945-76.106c-.658 0-1.842-.538-2.208-.886h-1.105c.214 2.56 1.773 2.822 4.276 2.822-.44.71-.963.8-1.697 1.153 0 .529.076.886.591.886.591 0 .81-.357 1.552-.705.222.521.295 1.15 1.03 1.15.886 0 1.107-.71 2.213-.71 1.113 0 1.92.354 3.028.71-1.033.259-5.607.086-5.607 1.764 0 1.33 2.066 2.217 3.323 2.217-.223.27-.448.532-.962.615.147 1.243 1.773 1.595 2.951 1.595 1.109 0 1.772-.445 1.772-2.034.665.531 1.991 1.682 2.658 1.589v-1.15h1.327c-.22-.707-.518-.877-.96-1.767.373-.442.524-.887.888-1.327.222.975.222 1.77 1.18 1.77.962 0 1.996-2.656 3.467-2.83.593-.088 1.405.084 1.699-.443.223-.355.077-.71.077-1.33-.964-.091-2.881-1.153-3.618-1.153-.151 0-1.258.8-1.258 0 0-.53.52-.708.52-1.324 0-.612-.887-.708-.887-1.325 0-1.06.073-1.51-.958-1.51h-.737l.367.622v1.148h-.888c-.664-.794-.219-1.941-1.326-2.478-1.109-.526-1.846.355-2.952-.175-1.184-.531-.886-3.096-2.36-3.804-1.333-.625-2.804-.8-4.654-.972.077 1.236 1.33 1.323 2.214 1.854h-1.252c-1.332-.353-1.92.176-2.806.8 0 .087.668 1.413.96 1.413.443 0 1.328-.53 2.067 0-.221.272-.37.884-.815.884-.587 0-.958-.612-1.993-.612-.657 0-1.691-.094-1.691.884 0 .971 2.282 1.588 3.24 1.946 0 0-.365.713-.666.713zm-9.37 1.765h1.258v-1.767c-.518 0-1.628-.094-2.589 0 0 1.059.888 1.233 1.332 1.767zm3.691 8.85c-.218.09-.738.44-.738.881 0 1.062 2.585.708 5.168 0-.219-.973 0-1.594 0-2.21 0-1.864-2.583.092-2.583-2.038-.81 0-2.362-.621-2.585-1.328-.735.092-1.692.449-1.692 1.328 0 1.768 1.545 2.302 2.43 3.367zm7.75 3.094v-1.151c-.736.18-.146 0-.96 0-1.402 0-4.056.18-4.794 1.064 0 0 4.276.971 4.645.971.67 0 1.11-.437 1.11-.884zM155 49.825c0-1.145-1.772-2.915-3.101-2.915-1.696 0-1.399 2.03-2.212 2.03-.145 0-.963.45-.963 1.335 0 0 4.278 2.384 4.8 2.384 1.033 0 1.476-1.326 1.476-2.834zm9.446 1.775h.883c-.147 1.502 2.142 1.766 3.694 1.325h5.904c.664-.534.812-.967 1.844-1.148.148.614.513 1.325 1.477 1.325 2.583 0 5.906 0 6.126-3.102 0 0-.44.099-.959-.082.082-.352.218-.606.369-.82.213-.025.472-.085.59-.157-1.038-2.296-2.954-2.477-5.903-2.477-3.84 0-5.17 2.216-9.228 2.216-1.845 0-3.316-.532-5.094-1.058-.292.259-1.181.797-1.181-.445 0-.267.37-.267.519-.447-1.034-.97-2.88.352-3.323-2.033h2.953c-.664-1.152-4.058-.623-3.47-2.661h-1.326c-.299.535-.739.71-1.48.71-2.507 0-3.098-3.096-6.424-3.096-.877 0-2.209 0-2.209 1.325 0 .799 4.506 3.1 5.312 3.1.591 0 1.033-.36 1.477-.88 1.256 1.502 1.621 2.919 2.955 4.509-.294.177-.89.793-.89 1.416 0 1.765 3.692 3.982 5.318 3.982.665 0 1.77-1.057 2.066-1.502zm-27.678-17.084c-.293 0-1.992 1.328-.667 1.328 1.105 0 1.993 0 2.365-.62-.664-.263-.889-.708-1.698-.708zm-6.128-5.488c-.072.356-.292.709-.517.885.59.532.962 0 2.584 0-.145.267-.145.795 0 1.066-.884.353-1.55.263-2.21 1.066.66.792.96.703 1.99.703 1.105 0 2.068-.446 2.439.356 1.327-.18 2.136.35 3.464.35 1.7 0 1.549 2.214 3.32 2.214.59 0 1.335-.263 1.335-1.152 0-.971-1.48-1.68-2.071-2.388.147-.266.441-.623.591-.886-.367-.442-1.183-2.036-2.216-2.036-.443 0-.66.707-1.102.707-.814 0-.738-2.036-2.218-2.036-.59 0-.88.713-1.474.713-.89 0-1.257-1.595-2.808-1.595-.886 0-1.474.538-2.357.71 0 1.058.217 1.323 1.25 1.323zm0 21.154c.591-.083.743.093 1.478.093.444 0 1.11-.093 1.11-1.157 0-.621-.373-.876-.52-1.327-1.034.45-1.775.89-2.068 2.39zm.373-10.797c.513 0 .958-.44 1.03-1.06-1.547-.623-1.695-2.481-3.617-2.481 0 1.15 1.774 3.54 2.587 3.54zM154.257 54.7c-1.544 0-1.993 1.234-1.993 1.323 0 .267-.149.796 0 .88h-1.691v1.51c.51 1.77 0 2.83 1.176 4.25-.07.438-.07 1.502-.07 2.652h1.467c.892-1.058 1.483-1.327 1.707-2.916h-.964c.444-1.77.444-.62 2.068-.62 2.217 0 3.248-1.944 4.206-3.536 0 0 1.332-1.156 1.332-1.34 0-.435-.078-.702 0-1.142-2.663 0-4.73-1.06-7.238-1.06zm-9.962 23.63c-.294.087-1.62-.27-1.62.437 0 .268 5.453 2.653 6.417 2.653.812 0 1.108-.883 1.847-1.413-.44-1.24-3.47-4.52-4.574-4.52-1.482 0-1.183 2.48-2.07 2.844zm-11.441-36.294h-.884c0 .442.108.772.255 1.05l-.108-.161v1.592c.59.536 1.11 1.152 1.844.889l.22.876h1.11c0 .536.366 1.069.887 1.069 1.477 0 4.057-.889 5.386-.889.295 0 .661.093.885.27-.443.533-1.846.533-1.846 1.324a1.932 1.932 0 0 0 0 .885c-.292.177-.514.537-.514.884 0 .8 1.917.45 2.36.45.223 0 1.846 0 2.951-.45-.294-2.474.594-3.543.594-5.567 0-1.333-.152-2.222-1.477-2.222-.59 0-.884.711-1.475.711-1.402 0-2.143-.883-3.319-.883-.519 0-.818-.184-1.334.086.298 1.244 1.334 1.244 2.584 1.244v1.943c-1.842 0-2.434-1.943-4.058-1.943v1.064c.291.439.886 1.06 1.474 1.501-2.29.796-3.392-3.723-5.535-3.723zm14.542 20.185c0-.886.222-.096.222-1.324 0-.977-2.145-.182-2.735-.091.52-.796 2.366-1.511 2.366-3.274 0-.445-.522-.893-.737-.893h-2.952c-1.627 0-3.25-.351-4.434 1.065-.073.267-.516.442-.516.712 0 1.148 1.404.973 2.364 1.148v2.391h-1.11c-1.254 0-2.36-1.058-3.319-1.058v1.502c2.141 2.562 4.429 2.213 6.497 4.688.443.532.59 1.504 1.623 1.504.659 0 .808-1.062 1.473-1.327 2.364-1.066 2.6.23 2.956-4.603-.447-.178-1.405-.354-1.698-.44zM110.71 36.726c.518 0 .74-.526 1.035-1.058-.444-.264-2.511-2.48-2.511-.264 0 .44.815 1.322 1.476 1.322zm8.12-2.826c-1.547 0-6.052.174-6.052 2.216 0 .792 1.255 2.38 2.362 2.38 1.621 0 4.06-.794 3.913-2.652h-2.068c1.107 0 2.362-.269 3.17-1.062-.218-.351-.512-.882-1.325-.882zm-2.955-.446h3.177c.885 0 1.4-.53 1.989-.882-.293-1.147-1.548-2.214-3.098-2.214-.958 0-5.384 1.944-5.384 3.096.586-.09.882-.706 1.472-.706.742 0 .96.706 1.844.706zM94.841 45.137c.74 0 1.18.532 2.073 0 .142.357.658 1.327 1.249 1.327.811 0 1.398-.97 1.55-1.947 1.252.18 2.362-1.233 2.514-2.743.66.44.588 2.484 1.84 2.484l3.174-2.838c0-.707-.512-.885-.587-1.768.513-.178.956-.793.956-1.42 0-1.586-4.427-.172-4.427-.172-.661-.09-.741-.179-1.33-.179-2.066 0-2.436 2.299-3.835 3.278-1.254.877-2.36 1.055-3.543 1.766-.294.183-1.625 1.417-1.625 1.592 0 .264.593.712.736 1.327.595-.085.811-.707 1.255-.707zm15.724-3.273h1.624v-1.151h-2.58c0 .8.584 1.15.956 1.15zm-10.332 5.313c0 .614.664 1.06 1.252 1.06.957 0 2.069-1.863 2.216-3.1-.735-.084-3.468.622-3.468 2.04zm8.97-1.624c.463.094.89.177 1.137.206-.394-.1-.77-.155-1.136-.206zm-1.444-2.628c1.33-.266 1.776 0 2.434 0 .292 0 1.187.27 1.257 1.333h1.696c2.219 0 3.767 3.36 7.01 3.36.961 0 1.33-.353 1.628-1.156-.812 0-1.183-.088-1.475-.258.073-.176.516-.354.736-.354v-1.153c-.517-.096-1.843-.532-1.843-1.326 0-1.421 1.915-2.127 2.654-2.836.442.352.888.624 1.403.624-.073.705 0 .97 0 1.15 0 1.324 1.4 3.271 2.808 3.271.659 0 1.032-1.063 1.99-1.063.885 0 1.696 1.152 1.696 2.215 0 1.236-1.77 3.892-2.432 4.153-.446.186-4.8-.437-4.8-.173 0 .173-4.725 1.422-4.942 1.508-1.48.705-2.955 1.33-4.8 1.33-.884 0-2.068-.806-2.068-1.33 0-1.335 1.11-1.062 2.068-1.062-.44-.71-1.106-1.154-1.252-2.04-.448.09-.816.623-.816 1.157-1.251.173-2.21.61-3.1.61-.957 0-2.063-.61-2.584-.61-.595 0-1.104-.62-1.104-1.334 0-.885.292-.7 0-1.323.737-.18 1.104-.886 1.842-.886.309 0 .566.049.818.106a54.633 54.633 0 0 1-.818-.376v-1.325c.59-.084 1.256 0 1.256 0 .059 0 .214.027.404.061a2.813 2.813 0 0 1-.771-.417c.291-.523.882-.974 1.472-.974.077 0 .125.012.19.018-.327-.183-.557-.463-.557-.9zM90.27 67.087c.22.443.737 1.774 1.107 1.774.373 0 .587.88 1.104.88.589 0 5.683-2.211 5.683-2.918 0-2.043 3.249-5.754 5.539-6.64.734-.263 4.645-.973 4.645-1.938 0-2.044-3.615-3.815-5.164-3.815-.956 0-1.842 1.064-2.513.27-1.622-.183-2.357-1.239-3.979-1.775-1.329-.44-2.065.626-2.96.626-1.768 0-2.578-.892-4.423 0 .074.966 1.102 2.388 1.102 3.088 0 3.194-3.687 5.668-3.687 8.676 0 1.065 2.954.8 3.546 1.772zm46.498 8.585c1.326 0 1.622.349 2.956-.705-1.405-1.331-7.606-3.283-7.606-6.106 0-2.306-1.99-4.344-1.99-7.526 0-.8 1.619-1.593 1.619-2.923 0-1.325-1.25-1.946-2.583-1.946-1.177 0-2.211.621-2.211 1.509 0 .27 0 .617.074.878-1.183.711-.74 0-2.069 0-.592 0-1.33.442-1.33 1.157 0 .796 1.11 4.951 1.7 6.105-.37.347-.37.705-.962.705-1.325 0-.81-2.208-1.251-3.269-.37-.974-1.404-2.13-2.442-2.482h-1.619c.15.535.297.796.37 1.592-.816.268-1.4.44-2.213.625-.521-1.595-1.256-2.658-3.323-2.658-1.181 0-1.7 1.156-2.289 1.59-.296-.527-.22-3.092-1.257-3.092-2.657 0-9.376 3.179-9.376 7.52 0 .44 1.406 1.768 2.218 1.768.96 0 1.403-.265 2.585.09-.816.617-2.952-.09-2.952 1.86 0 2.478 4.059 1.59 5.685 1.59h3.906c.741 0 1.33.537 1.848.888-.887.084-1.328.176-2.434.176-3.1 0-5.392.44-7.159 2.032.516 1.06 1.844 3.102 3.467 3.102 1.036 0 3.25-.273 4.059.438.885.796.074 2.214 1.331 2.214h6.636c1.555-1.326 3.4-.622 5.318-1.772 1.108-.615.592-1.588 1.917-1.588 2.143 0 3.177 2.653 6.056 2.653 1.846 0 3.544.085 4.207-1.593-.295-.265-.663-.536-.739-1.236-.296 0-1.11 0-1.11-.71 0-.62.375-.886.963-.886zM68.494 126.56c-.146.088-.739.262-.739 0-.369-1.424 0-1.424 0-3.72-1.036.714-.369 0-1.7 0-.291 0-.88.177-.88.89 0 1.325.88 2.475 1.992 2.654 0 1.415.29 2.476 1.18 3.54.74-.886 0-2.125.147-3.364zm5.312 8.849c.377 0 .592-.262.592-.889 0-1.945-1.996-2.208-1.773-4.595-1.549-.357-1.917-.357-1.917 1.772.888-.714.443-.267 1.62 0-.218.437 0 1.147 0 1.77 0 .084.816 1.942 1.478 1.942zm124.812 99.917v-.793c-.296.532-.888.97-1.474.793v.532c0 .088.219 0 .293 0 .37 0 .885-.173 1.181-.532zm-8.93-14.064c-.069.257.143.794.369.7l-.37-.7zm-2.291-1.07c-.363 0-.882.354-1.028.712.437 0 1.18.086 1.92 0-.152-.27-.375-.712-.892-.712zm.075 5.044c0 .712 0 1.681.738 1.681.148 0 .371-.263.371-.44 0-.615-.223-1.145-.81-1.24-.08 0-.3-.083-.3 0zM75.185 128.855c.375.178.847.2 1.197.496-.35-.295-.82-.318-1.197-.496zm-.346-.258a1.029 1.029 0 0 0 .003 0c-.814-.975-1.18-2.303-1.477-3.366-.196-.714-.676-.934-.886-1.223.207.289.689.51.884 1.223.297 1.063.665 2.392 1.476 3.365zm-4.053-7.316c-1.097-1.583-2.102-2.626-3.624-4.454 1.522 1.829 2.527 2.871 3.624 4.454zm-5.638-3.516c-.484.672-.677 1.718-1.452 1.718-.622 0-1.252-.417-1.83-.983.578.566 1.208.987 1.827.987.778 0 .972-1.05 1.455-1.722zm98.694 39.537c-.66-.005-3.825 2.536-5.522 5.104h1.106c.518-.27.812-.537 1.326-.622.3.796.519.88 1.108.88 1.256 0 1.33-1.146 1.996-1.146.811 0 2.14-1.68 3.245-1.945 0 1.236-.513 1.496-.812 2.21h1.472c.079.623.745 1.063 1.261 1.063.957 0 1.254-.882 2.065-.882 1.77 0 2.656 1.15 4.205 1.15v1.06c-1.107.444-2.73 0-3.32 0-1.62 0-4.571 2.478-4.725 4.246.742-.519 1.036-1.242 1.775-1.242-1.26 1.952-1.844 6.467-1.844 8.76 0 .978.88 1.78 1.692 1.78 1.11 0 1.481-2.656 1.481-3.809v-2.833c0-1.111-.02-3.79.8-3.855 2.688-.193 1.45-2.339 2.666-2.339.593 0 3.323 1.59 3.323 2.655 0 1.236-.59 2.034-.812 3.272.885 0 .739-.35 1.476-.618.296 1.417.299 2.034 1.033 2.743 1.037 0 1.697-4.248 1.993-5.666.293.359 1.179 1.505 2.065 1.505.44 0 .74-.44.74-1.066 0-1.323-1.107-2.206-1.992-2.913h-1.92c-1.845-1.419-4.135-.977-5.83-3.01-.59-.71-.148-1.597-.59-2.659-.149-.351-3.253-3.36-3.69-3.36h-.59c0 .173.07.882-.079 1.238-.296-.356-.882-1.954-1.766-1.954-.738 0-.447 1.423-1.181 1.868-.816.44-1.384.393-2.155.385zm18.32 18.112c-1.039 0-2.149-.088-2.807.7-.299.36-.37.894-1.032.894-.445 0-.885-.618-1.11-1.07 0 .883.297 2.221 1.033 2.221 1.513 0 3.974-1.372 5.68-2.385-.368.26-.805-.36-1.765-.36zm1.793.342c.445-.264.852-.514 1.158-.694l-.002-.004c-.306.178-.704.428-1.156.698zm.27-2.999c0 .3.269.474.389.74a6.914 6.914 0 0 0-.24-.56c.517 0 .517-.1.88-.1 2.143 0 6.851.855 6.87-2.469a1.846 1.846 0 0 0-.001 0c-1.845 0-5.316 1.06-6.936 1.676-.223.1-.962.268-.962.713zm95.36 134.083c0 6.542-3.002 8.28-4.99 11.907-.445.791-.763 1.01-1.206 1.808-.742 1.326-1.554 1.506-2.29 2.388-1.101 1.324-.014 4.188-.014 6.31 0 1.59-.505 3.074-.505 4.224 0 .439-.294.795-.365 1.05-.296.448-.96 1.338-.96 2.045 0 .882-.225 2.659-.371 3.005-1.103 2.038-1.478 2.93-2.58 4.697-.296.522-.227 1.593-.377 1.939-.437 1.07-1.99 2.31-3.241 2.31-1.402 0-2.515-.09-3.615.522-.443.279-.518.718-.74.98-1.77 2.124-3.62.89-4.943 3.354-.597 1.166-1.554 1.166-2.141 1.865-.96 1.154-.812 2.396-.812 4.082v4.154c-1.482.881-2.217 2.383-2.953 4.25v-.088c-.516 1.153-.444 1.765-1.036 2.918-1.329 2.385-2.806 2.652-4.06 4.946-1.475 2.665-2.043 7.082-5.438 7.082-1.182 0-2.826-.967-3.348-.967-1.03 0-1.991-1.064-3.099-1.064-.221 0-.587.177-.587.447 0 .798 1.106 1.229 1.327 1.497.592.71.592 1.685.888 2.742.22.98 1.399.98 1.399 1.943 0 1.079.006 1.655-.362 2.358-.67 1.246-1.186 1.804-1.925 2.698-1.254 1.498-2.805 1.067-4.574 1.78-1.182.42-3.618-.55-4.283.256-.96 1.141-.22 3.797-.74 5.044v.883c0 .44-1.18 1.058-1.693 1.058-1.553 0-1.85-1.234-3.32-1.234-.518 0-.742.616-.742 1.06 0 1.244.888 3.542 1.546 3.542.372 0 .815-.544 1.04-.618.294.35.66.446.66.88 0 .532-.585 1.152-.737 1.152-.882 0-1.18-.8-1.916-.8 0 .98.442 1.154.806 1.334-1.325 1.587-1.325 3.18-1.77 5.395-.147.976-1.474 1.066-1.992 1.15-1.18.355-2.212 1.588-2.212 3.098 0 3.45 3.318 2.22 3.318 4.97 0 2.47-1.842 2.733-2.874 3.968-.592.709-.37 1.856-.814 3.014-.515 1.241-1.696.704-2.361 1.502-.885 1.062-1.257 2.298-1.257 3.976 0 .89.663 1.953 1.109 2.036 1.329.892 1.252 4.967 2.212 6.104 1.629 1.953 3.617 2.755 5.61 3.908-.294.52-.738.26-1.18.26-1.106 0-2.95 1.677-3.616 1.677h-.814c-.218 0-.513.363-.737.363h-2.063c-1.704 0-1.105-2.395-2.292-2.838-1.104-.439-2.732-.439-2.732-2.027h-1.4c-.588 0-.739-.718-.811-1.161-2.067 0-2.659-1.228-3.616-2.381-.222-.272-.663-.715-.663-.894 0-.786 1.323-.705 1.397-1.497-.217-.093-.367-.268-.588-.446.22-.44.514-.97.514-1.496 0-2.129-1.994-1.78-1.994-3.638v-1.24c0-1.942-1.106-5.046-1.106-6.55 0-1.583 1.703-2.21 1.703-3.627 0-.698-.888-2.125-1.035-3.088v-.895h.073c0-.534.296-.974.663-.974 1.331 0 .814 1.601 1.92 1.601l2.432-13.102v-1.333c-.212 0-.443-.081-.66 0-.518.27-.593.976-1.107.976-.592 0-1.032-2.034-1.032-3.01 0-1.678.516-2.394.735-3.982.518 0 .735-.262.735-.529 0-.535-.438-.97-.438-.97-.297 0-.371-2.475-.371-3.1 0-2.036 1.037-4.078 1.695-5.315.3-.61.443-1.864.815-2.479.22-.345.592-.262.666-.62.515-2.036.515-3.533.959-5.666l-.077-6.63c-.437-1.595.37-2.833.37-4.247 0-3.362 1.7-5.58 1.7-8.59v-.797c0-.621.368-2.21.517-3.102v-3.88c0-1.247.663-3.636.663-5.054 0-.884-.368-6.109-.586-7.082-.668-2.122-1.852-3.444-3.18-4.243-1.104-.617-1.914-.444-2.733-1.412-.886-1.063-1.327-1.418-2.357-1.773-2.07-.797-3.1-2.045-4.428-3.636-.59-.7-.3-1.681-.3-2.739 0-1.412-1.101-2.12-1.397-3.357-.591-2.135-2.069-3.729-2.587-5.673-.517-2.027-.956-3.175-1.623-4.859-.218-.527-.734-.366-.956-.618-.517-.628-.665-1.858-.887-2.486-.223-.53-.812-.349-1.11-.701-.81-.972-1.843-2.742-1.843-4.334 0-1.066.514-2.309.81-2.663.666-1.33 1.996-1.676 2.286-3.105-.659-.52-.584-.087-1.103-.087-1.034 0-1.184-1.769-1.184-3 0-2.033 1.865-1.675 1.55-5.577 1.995 0 2.515-2.381 3.104-3.808.813-1.942 2.73-1.324 3.172-3.713-.365-.173-.737-.621-.737-.889l.295-.704v-.445c0-.699-.443-1.238-.443-1.951 0-1.063.374-1.408.374-2.285 0-1.87-1.33-1.61-1.33-3.196 0-.204.052-.388.118-.556-.08.066-.149.112-.176.095-.15-.179-.834-.429-.834-.692 0-.355.295-.53.444-.881-.809-.452-1.03-1.6-1.842-1.6-.519 0-2.588 1.779-2.588 2.302 0 .353.443.71.596.795-.153.892-.523 1.335-1.112 1.335-1.177 0-1.917-1.688-2.508-2.389-.516-.62-1.699-.093-2.216-.093-.142 0-.367-.35-.367-.527-1.034-.275-1.034-1.155-1.328-1.868-.227-.525-2.733-2.38-2.802-2.38-.15.265-.15.62 0 .796h-.74c-1.111-.884-.371-2.124-.74-3.448-.222-.883-.592-1.076-.959-1.51-1.183-1.423-2.435-2.22-2.876-4.34h-.441c-.517 0-.89.446-1.408.446-1.406 0-2.14-.98-3.1-1.506-1.4-.792-2.433-.35-3.912-1.232-2.288-1.338-2.58-3.372-4.573-4.52h-.443c-.593-.438-1.034-.71-1.627-.71-1.328 0-1.55 1.776-2.807 1.776-.582 0-1.18-.622-1.475-.8-.586-.356-1.104-.183-1.692-.183-.887 0-3.398-2.124-4.133-2.562-.815-.441-1.334.088-2.145-.18-1.033-.346-1.258-1.406-2.285-2.03-.96-.527-1.476-.356-2.437-.88-.442-.273-.59-.356-.809-.62-.891-1.074-3.178-1.685-3.399-2.833-.66 0-1.106-.978-1.106-1.77 0-.973.74-1.514.74-2.476 0-1.16-.595-1.425-.74-2.039-.886-3.19-3.394-5.76-5.018-7.704-.739-.883-1.921-1.242-2.661-2.125-.587-.702-.07-1.589-.442-2.565-.66-1.588-2.952-1.77-2.952-3.895-.663-.176-.59-.26-.809 0-.963-1.146-1.699-2.124-2.512-3.09-.664-.804-.438-2.308-1.106-3.1-.666-.795-.52-2.749-1.106-3.096-1.251-.716-2.436-.62-3.398-1.77-.222.346-.148.881-.148 1.15 0 1.855.732 3 1.323 4.504.52 1.323 1.486 1.33 2.223 2.222 1.03 1.236 1.18 2.125 1.548 3.623.517 2.035 1.993 3.01 2.51 4.868.589 2.129 1.035 4.426 2.358 5.491.597-.707 1.477.795 1.477 1.5 0 .445-.293 1.332-.515 1.332-.146 0-1.13-1.523-1.207-1.89-1.321 0-2.04-2.1-2.848-2.714-.44-.358-.522-.358-.741-.796v-2.302c-.808-.978-1.402-1.948-2.142-2.83-1.032-1.245-2.652-.978-3.394-2.302.372 0 2.115.322 1.47-.782-1.093-1.866-2.305-3.76-3.599-4.756-.876-.67-.823-3.14-1.266-4.201-.668-1.588-1.327-2.116-1.847-4.164v-.613h.149c-1.109-2.655-4.87-4.519-7.526-5.75-.593-.26-.37-1.248-.593-1.952-1.031-3.096-3.1-4.162-2.728-7.784-1.55-.263-3.164-4.192-4.433-6.814-.365-.767.297-1.334.742-1.68-.812-1.943-.028-5.209-.742-7.437-.687-2.152 1.253-7.173 1.253-9.918 0-1.943-1.844-2.745-1.844-4.685 0-.534.816-.619 1.11-.619 1.108 0 1.766.702 2.14 1.51.369-.542 1.036-1.6 1.036-2.397 0-.875-.664-1.146-.963-2.028v-.002c-.294-.175-.668-.363-.812-.538-.735-.885-2.58-1.058-2.806-1.949-.586-2.297-3.17-1.141-3.537-2.914-2.51 0-2.66-2.394-3.18-4.426-.07-.271-1.992-1.683-1.992-1.683-.883-.703-.072-1.859-.738-2.66-.443-.528-1.035-.528-1.622-.7-1.035-.36-.738-2.743-.738-3.904 0-.52-.439-.79-.439-1.235 0-.62 1.032-.791 1.032-1.766 0-1.696-1.043-2.218-1.733-2.902.688.684 1.731 1.206 1.731 2.902 0 .97-1.031 1.148-1.031 1.766-.369 0-.369.09-.74.09-1.256 0-3.1-1.68-3.1-2.654v-1.33c0-1.327-.889-1.327-2.217-1.327-1.03 0-1.325-.794-1.325-1.328 0-.708 1.106-.793 1.106-1.5v-1.153c-1.402.089-1.034 1.153-1.995 1.153-.295 0-1.106-.799-1.106-1.33 0-1.061.518-1.416.739-1.86-.37-.438-1.036-1.236-1.325-.624-1.113 0-1.627-.612-2.219-1.316-.223.704-.516 1.586-1.105 1.586-1.55 0-2.588-2.562-3.472-3.353-1.913-1.693-4.426-1.6-6.636-3.106h-4.064c-2.434-.974-5.683-1.324-6.933-4.426-.893.443-2.367.88-3.028 1.329.218.622.364.89.735 1.244-.961 1.76-5.68 4.959-7.38 4.959-.297 0-.74-.274-.74-.628 0-.528.443-.62.589-.709-.36-.62-.073-.62-.073-1.063 0-1.94 1.108-3.453 3.25-4.252 0-.258.074-.615.074-.88h-.89c-1.772 0-6.643 4.872-6.643 7.793v1.326c0 2.035-1.624 2.741-3.316 3.539-.96.442-1.257 1.326-1.845 2.21-1.112 1.68-3.619 2.565-4.8 3.988-1.11 1.321-3.766 2.3-5.905 2.652-2.656.528-4.134 4.243-7.232 3.185.88-1.686 2.289-.973 3.54-1.862.89-.616 1.555-2.382 2.364-2.917 1.254-.889 2.658 0 3.544-1.33 1.251-1.942 4.128-3.448 5.905-4.866 1.693-1.325 1.693-3.983 3.468-5.305h-1.112c-1.105.521-1.623 1.145-2.723 1.145-.894 0-1.26-.439-1.998-.71-.223.71-.442.974-.516 1.601-1.773-.803-2.288-1.33-3.548-2.481-.142.53-.067.966-.067 1.331h-.883c-.449 0-.816.704-1.114.704-.441 0-.733-1.505-.733-2.21v-1.773c0-.264.071-1.326-.591-1.326-.588 0-1.184 1.501-1.475 1.501-.963 0-4.428-3.272-4.949-4.067.37 0 .742-.27 1.109-.27-.588-1.946-2.952-2.386-2.952-3.807 0-2.649 3.983-4.86 5.533-4.86.665 0 5.685-2.396 5.685-3.542 0-.625-1.18-1.865-1.255-2.125.742-.534.594-.444 1.109-.087V98.06c-.667-.092-.667 0-1.109 0-1.183 0-1.627 1.508-3.171 1.508-1.482 0-2.001-.887-3.106-.623H2.95c-.07-1.323-.956-1.68-.956-2.478 0-.266.141-.616.223-.885-1.185 0-1.851-.53-2.217-1.416 1.842-1.326 4.873-2.476 6.642-3.888h1.323c0 2.835 1.184 2.034 2.735 2.034 1.034 0 1.186.265 2.065 0-.733-2.837-2.284-3.012-4.426-4.257-.59-.345-1.479-3.003-2.213-3.526-.884-.63-3.909-1.334-3.909-1.953 0 0 1.026-2.214 1.103-2.48h4.06c2.215-3.537 5.54-6.9 9.446-8.412 1.032-.343 1.698.27 2.729-.176 1.181-.532 1.924-2.477 3.175-2.477.964 0 1.333.974 2.288 1.332-.366.53-.44.708-.664 1.145.74.176 1.475-.437 1.845-1.145.809.353 1.035.613 1.701.886h3.688c.889.705 1.18 1.147 2.214 1.765h5.686c1.476 1.772 6.05 2.212 8.336 2.212 1.331 0 2.144-.618 3.473-.618 2.14 0 2.81 1.064 4.651 1.771l.003-.09c.734.183.364.36.878 0 0 .27.913 1.063 1.035 1.152 3.036 2.217 6.348 2.656 8.192 2.656.664 0-2.66-2.096 2.14-2.305.697-.022.36-2.783 2.295-.612.644.718 2.578-.978 3.394-1.16 2.064-.962 2.877-1.145 5.16-1.761.22.708.74 1.228 1.331 1.228 1.55 0 1.033-2.557 2.509-2.557.443 0 2.435 3.981 3.838 3.981 1.48 0 1.48-1.944 2.881-2.303.144.708.96 2.39 1.772 2.39 1.178 0 1.77-1.152 3.174-1.152 4.498 0 6.73 4.404 11.215 3.986 4.221-.393 3.852-.95 5.908 2.475-.444.536-2.703.209-2.703 1 0 .27 0 1.556 2.925 1.388 1.624-.08 2.58-.796 4.06-.796h4.719l1.11.63c1.256.701 1.55 2.91 3.026 2.91.369 0-.448-2.036-.448-2.647 0-3.011 3.769-.628 3.475-3.541-.885.699-2.829 1.397-4.01 1.397-.592 0-.939-.34-.939-.958 0-1.951 4.433-2.04 5.759-2.472.96 3.625 5.607 5.311 9.596 5.311 4.206 0 5.022-.187 6.275 0 0-1.866.517-2.839 1.847-2.839 1.103 0 3.099.617 3.318 1.059.587.971-1.313 3.881 1.106 3.095 0-4.332 4.874-2.557 3.916-6.193-.596.359-1.035.534-1.558.883 0 0 .596-2.117.596-2.654 0-3.005-5.017-1.231-5.017-4.157 0-1.236.957-1.15.957-2.039 0-.885-.589-1.32-.589-2.21 0-1.328 1.176-1.06 2.062-1.328-.074-.882-.665-1.99.742-1.948 2.878.087 4.502 1.846 4.572 4.6.036 1.31 2.219 1.246 2.219 2.925 0 1.152-1.332 1.764-1.849 2.123.89 1.334 2.514.442 3.694 1.334-.37.35-.517.612-.739 1.059 1.553.884 1.7 1.946 1.7 3.451 2.282 0 .809-3.81 2.95-3.81.59 0 2.733 2.482 2.733 3.106 0 1.321-1.252 1.055-1.252 2.204 0 .974 2.19 5.094 3.85 2.558 1.069-1.639.872-2.818 1.455-4.328.37-.886 2.072-.886 2.072-1.77 0-.795-1.108-1.233-1.108-2.383 0-1.065.96-1.78 1.844-1.78.663 0 1.184.534 1.843.622 3.027 0 2.441 2.222 4.802 2.222 0 1.501.294 1.408 0 2.203-2.322 1.339-1.329 2.753-1.329 3.365 0 .538 1.697 1.422 1.697 2.218 0 1.149-3.797 5.048-4.282 4.158-.905-1.657-1.257-.09-.888.442-1.323 0-1.77.71-2.434.71-1.034 0-1.623-1.771-3.249-1.771-.586 0 .523 1.597.523 1.94 0 1.067-2.147 2.923-3.325 2.923-1.4 0-2.362-1.32-3.32-2.035h-1.33c1.109 2.66 3.616 2.213 6.124 2.916v1.336c-1.178 1.063-2.14 3.27-3.906 3.27h-1.63c-.883 0 .059 2.463-1.495 1.89-5.998-2.21-3.764-.395-4.426-.665 1.03.713 3.857.81 3.857 2.14 0 2.13-2.216 1.247-3.468 1.773-.593.271-1.846 3.717-2.437 4.42-1.696 2.038-2.582 4.156-2.582 7.702 0 2.565.296 2.921 0 3.986.735-.178 1.107-.884 1.844-.884 1.624 0 2.802 4.95 2.802 7.075 1.113 0 1.625-1.325 2.733-1.325 1.033 0 2.732 1.504 3.319 1.766 3.25 1.504 6.35 2.927 9.08 5.317h4.799c2.064 1.585 1.625 3.807 1.625 6.63 0 2.572 2.598 5.326 4.424 7.082.694.67 1.33-1.064 2.217-1.064.075-.965 1.034-1.585 1.33-2.117-1.034-1.503-.02-6.319-2.585-7.88 1.481-.356 5.906-4.335 5.906-5.927 0-5.842-2.568-6.978-4.266-10.436.96-.45 3.053-1.106 2.793-3.725-.137-1.32-2.416-3.273-1.482-3.987 2.385-1.804-.22-3.093-.22-3.982 0-1.588 1.107-2.21 2.212-2.21 2.07 0 3.395 1.505 5.541 1.505 1.104 0 1.104-.883 2.063-.883 2.064 0 2.509 3.011 4.575 3.358 0 3.277 3.988 1.506 4.288 3.989.217 1.853.73 6.194 1.987 6.194.888 0 1.112 1.942 2.439 1.942 1.843 0 4.205-3.275 4.205-4.6 0-1.24 1.181-2.033 1.697-2.479.298.36 1.033 1.153 1.256 1.153.219 2.388 3.354 2.859 2.583 4.866-.626 1.624 1.77 3.453 2.435 3.718-.145.883.516 1.591.516 2.474 0 1.062-.739 1.34-1.104 1.594.956.886 1.92 2.124 3.54 2.124v.271c0 3.002 3.763 3.975 5.537 3.714.074.436.704.565.63 1.006-.441 1.684-4.543 2.355-6.019 3.332.076.175.513.349.74.349 1.769 0 5.311-1.506 7.008-2.655v1.064c.852.46 0 1.33.592 1.33.667 1.322 1.254 2.21 1.254 4.248 0 2.825-5.948 3.214-7.012 4.866-2.188 3.397-4.205 1.951-7.896 1.951-2.804 0-4.427-.623-7.233.438-1.55.623-.815 1.42-1.845 2.65-1.623 1.945-3.172 1.158-4.13 3.543 2.208-.352 3.69-3.09 6.933-3.09 1.548 0 3.84-.36 3.84 1.321 0 1.77-2.658 2.221-3.102 2.922.665 0 1.477.261 1.85.261-.153.89-.74 1.6-.74 2.126 0 2.218 3.393 4.7 5.535 4.7.441 0 2.364.085 2.364 1.05 0 .715-5.054 3.032-5.426 3.118-1.474.531-2.845 2.91-3.436 2.91-.437 0-1.47-1.423-1.47-2.222 0-1.941 2.651-3.359 4.353-3.53-1.18 0-1.108-.093-1.108-1.326-1.112.085-1.112 1.233-1.775 1.765-.661.526-2.501.17-2.95.17-.22 0-.59.091-.738 0v.27l.032.203c.098.236.2.47.337.678-.516.974-1.327 1.508-2.366 1.508-.883 0-.957-.44-1.694 0-1.182 1.423-3.692 2.399-3.692 5.75 0 .265.077.707.298.803 0 .44.296 1.588.739 1.588.151 0 .81-.61.81-.61v.61c-.888.27-2.142.617-2.434.27-1.48 1.325-3.988.796-5.466 1.951h.739c.664 0 1.329-.45 1.85 0-1.033.44-1.775.44-2.806.44-.222 0-.443-.095-.665-.095-.226.095-.441.355-.441.616 0 .452.663 1.07.663 1.07-.15.705-1.552 3.805-2.07 3.805-.218 0-.37-.536-.516-.702l-.37.43c.152.714.668.983.668 1.692 0 .527-1.479 3.626-1.701 3.626-.143 0-.296-.345-.296-.537v-.964c0-.62-.66-2.04-.815-2.93-.143.452-.069 1.152-.069 1.152 0 .615.373 2.213.373 3.106 0 .878-.447.795 0 1.32h.511v.886c0 .71-.606 1.086-.975 1.086.294.612.643.684 1.015.767-.146.974-.483.893-1.146.893v.708l.866.614c-.22.353-.458.88-.866.975-.87.198-1.255.886-1.84 1.066-.885.345-.817.612-1.255 1.146l.2.174c-3.458 2.334-7.88 4.015-7.88 10.448 0 2.919 2.065 3.801 2.065 6.638v.44c.226 1.055.886 1.947.886 3.55 0 1.852-.37 3.533-1.62 3.533-1.108 0-1.04-1.418-1.476-2.21-.887-1.418-1.629-1.858-2.214-3.27-1.188-2.835-.3-8.24-3.545-8.24-.662 0-.963 1.16-1.623 1.16-1.331 0-2.14-2.045-3.913-2.045-1.031 0-1.252.713-1.843.713-.225 0-.515-.438-.515-.713-1.18.362-2.737.188-3.987.713.733.262.587.262 1.03 0-.073 1.332-.737 2.126.152 2.831-2.07 1.237-3.841-1.77-5.317-1.77-.445 0-.665.702-1.107.702-.815 0-1.255-.883-2.066-.883-2.142 0-3.172 2.218-4.06 3.279-.595.707-1.259.08-1.991.446-1.628.696-2.584 3.086-2.584 5.753 0 .257.367.613.367.876a3.928 3.928 0 0 1-.192-.032l.043.213c.15.53.295.887.295 1.415 0 1.598-.513 2.214-.734 3.543v4.951c-.151.707.44 1.422.588 1.775.297.796-.073 1.323.22 2.11.298.723 1.256 1.953 1.777 2.579 1.323 1.596 1.323 3.102 3.247 3.807.658.266.658 1.064 1.252 1.064 1.402 0 2.583-1.254 4.056-1.254.81 0 1.11.537 1.405.537.589 0 .96-1.052 1.033-1.41.294-1.066 1.55-2.215 1.55-3.549 0-2.56 2.435-3.446 4.432-3.446.661 0 1.18.092 1.477.266.292.092 1.253.176 1.695.176v.802c0 1.233-1.254 2.833-1.254 4.513 0 1.414-.441 2.032-.89 2.924v-.623h-.589v4.25c0 .879-.883 1.237-1.33 1.762v.452c0 .613.447.961.891.961 2.429 0 4.423-.531 7.008-.531 1.774 0 2.219 1.522 3.541 1.862v1.33c0 .799-.072 3.003-.514 3.892v5.4c0 1.951 1.553 2.746 2.73 3.45.808.448.808 2.123 2.066 2.123 1.92 0 2.88-1.766 4.652-1.766 2.06 0 2.972 1.773 4.151 2.834-.03.074-.232.354-.49.683.231-.203.439-.393.545-.604.59.184.371.184.884 0v-.53c0-.17.293-.437.444-.437 0-.883.74-1.15 1.178-1.501.447-.354.519-1.506.67-2.216.365-1.423 1.029-1.68 1.991-2.036 1.771-.704 2.951-1.063 4.803-1.771.957-.356 1.176-1.674 2.132-1.674.37 0 .668.977.668 1.06 0 .703-.446 1.065-.737 1.065-.22 1.32-.665 2.822-.665 3.617 0 .974.405 2.682 1.217 2.682.298 0 .704-1.08.704-1.436 0-1.06-.886-1.683-.886-2.748 0-1.318 1.176-1.144 1.844-1.684h1.766c-.295-1.057-1.398-.617-1.398-1.678l1.292.024c.291 1.423 1.952 1.917 3.06 2.194 0 .87.445 1.496.888 1.583h3.986c0 .802.89.976 1.48.976 1.104-.174 1.837-.174 2.284-1.241.072-.266 1.62-.266 1.843-.448.735 0 2.066.274 2.066.274-.295.27-.881.352-1.103.174v.713c.516 1.245 2.066 1.502 3.172 1.955.958.341.736 1.674 1.034 2.823h2.067c1.403 1.686 2.067 1.414 2.95 3.618.15.356.737.54 1.11.54.514 2.485 3.612 2.209 5.607 2.66h1.92c.513.259 1.696.973 2.438.973v.173h.438c1.185 0 2.73 2.914 3.986 3.282 0 1.054.96 3.884 1.333 4.858.37.885 1.325.885 1.325 1.77-1.178 1.771-3.319 2.658-3.319 5.315 0 .89.661.791 1.032.97.734.448 1.109 1.155 1.255 2.041h1.772c0 .268.147.968.37.968.293 0 .588-.623.815-1.053.734-1.427 1.62-3.278 2.806-3.278 1.324 0 3.982 1.68 4.942 2.387.588.442 1.254.26 1.399.976.222.795.144 1.415.144 2.201h.522c.662-.346.96-.968 1.625-.968 1.55 0 1.842 1.427 3.32 1.427l2.802-.459c1.401.365 2.66.983 3.47 1.43.664 1.318 2.956 3.798 4.133 4.246 1.035.347 1.7-.178 2.73.168 1.478.546 1.845 2.4 1.845 4.258zm-82.147 101.51h.662v-2.658c.074-.267.297-.448.297-.98 0-.7-.223-1.413-.886-1.413-.444 0-.885 2.657-.885 2.657v1.157c0 .357.37 1.149.812 1.237zm49.82-118.947c-.887 0-1.477.88-1.477 2.215 0 .798 1.923 2.385 3.025 2.385.888 0 1.996-2.038 1.996-2.83 0-.176-.222-.797-.517-.797-.37 0-1.033.974-1.186-.176-.583 0-1.108-.445-1.546-.797 0 .08-.22 0-.294 0zm-24.431-24.96c0 .27.444 0 .669 0 .44 0 .739-.794.88-1.147v-.624h-.661c-.444 0-.888.887-.888 1.77zm-26.644-22.039c0 .535.446 1.338.885 1.418 0-.259.074-.433.074-.709.37.276.37 0 .887 0 .887 0 2.655-.267 3.32.276.368.261.22 1.138.883 1.138.81 0 .743-1.588 1.7-1.588.37 0 .296.45.738.45.517 0 .812-.365 1.33-.717h2.729c-.517-.882-1.252-1.236-1.987-1.949l.362.36c-1.324-.795-1.77-2.3-4.129-2.3-.812 0-1.258.353-2.212.353-.663 0-1.11-.618-1.779-.618-.218 0-.59.346-.59.618 0 .524.522.976.961.976 0 .694.076 1.324.513 1.857-.884.53-1.62.078-3.317.078-.073.098-.218.357-.368.357zm15.205.36c0 .886.96.978 1.843.978.444 0 .96 0 1.184-.537-.224-.533-1.993-.983-2.21-.983-.228 0-.817.087-.817.543zm-23.252.175c0 .711.594 1.326 1.179 1.326.888 0 1.552-.348 2.439-.523-.075-.353-.22-.629-.665-.803l.149.174c-.44-.174-1.473-.709-2.358-.709-.3 0-.744.185-.744.535zm-10.332-9.462v.608c-.22 0-.664.18-.664.798 0 .174.96 0 1.031 0 .152-.442.076-.88 0-1.327l-.217-.08h-.15zm18.23 4.589c-.518-.26-.883-1.5-1.697-1.771l-1.107-.082c-.073-.171 0-.439 0-.623-1.696 0-3.54-.973-4.58-2.21-.141-.177-.736-1.06-1.253-1.06-2.429 0-3.986-2.211-7.23-2.211-3.324 0-4.875 1.5-6.054 3.892h.666c.734-.878 2.731-2.126 4.133-2.126.367 0 .737-.09 1.031.272-.22.264-.294.616.15.976h2.138c1.034 0 1.55 1.318 2.587 1.318.587 0 .96-.265 1.551.092.292.174.216.793.81.793.218 1.334 1.401 1.24 2.51 1.865-.07.435-.374.792-.738.792v.535c1.399 0 2.583.614 4.28.614.885 0 2.285 0 2.803-1.066zM323.36 95.492l.143-.18c0-2.47-2.733-1.852-2.733-4.416 0-.27.223-.618.444-.8-.659 0-1.108.447-1.768.447-.741 0-1.33-.091-1.33-1.154-.294.267-.294.175-.813 0-.147.354-.291.621-.291 1.326-.667-.797-1.554.264-2.511.264-.67 0-1.254-.264-2.364-.264 0 .264-.073.622 0 .88-.293-.167-.445-.44-1.032-.616l-1.772.538c-.442 0-.667-.447-.962-.802-.217.355-.145.532 0 1.151-.367.091-.815.532-1.325.532-.52 0-1.186-1.15-1.107-1.773-.08-.53-.372-.792-.443-1.325h-.59c-.59 0-.738.978-1.327.978v.7c-.449-.263-.82-.435-1.476-.174.144.973 2.874 1.946 3.757 1.946 0 .268.08.53.298.71-.811.357-2.73.795-3.84.795.742.889 1.998 0 3.178.356-.15.971-.373 1.51-.373 2.654-.218 0-.436.262-.661.439 1.626 0 2.215 1.241 3.246 1.6 1.992.797 3.915 1.593 6.64 1.593 2.513 0 3.914-1.503 5.688-2.216.957-.356 2.734-1.945 3.324-3.189zm324.676-42.39c0-1.238-1.984-1.418-1.984 0 0 .803.063 1.15.88 1.15.52 0 1.104-.436 1.104-1.15zM665.6 50c1.189 0 3.325-.345 3.325-1.32 0-.442-.296-.89-.738-.89-.288 0-8.045-1.145-8.712-1.762l.738.702c0 2.21 3.476 3.27 5.387 3.27zm-14.612 7.79h2.216c-.078-2.029-1.552-3.538-3.468-3.538-1.701 0-2.663 1.25-3.549 2.652l.375-.436c1.407.62 3.1.436 4.426 1.322zm-149.613.802c-.734-.71-.953-1.688-1.836-1.688-.667 0-1.111.979-1.111 1.773 0 .27-.215.887 0 .887.882 0 2.586-.618 2.947-.972zm-27.157 14.25c0 1.063 1.625 2.216 2.587 2.216 0 0 .958.168.958-.45 0-1.766-3.545-3.537-3.545-1.766zm-21.175 3.717c-.15 0-.962 1.68-.962 2.031 0 .89.43 1.06 1.329 1.06 1.252 0 2.134-.883 3.096-1.498v-1.154c-1.035-.172-1.552-1.326-2.588-1.326-.367 0-.508.887-.875.887zm11.211 181.601c.585 0 1.181-.708 1.324-1.058-.951 0-1.468.17-2.138.44.081.437.592.618.814.618zm-40.296-63.451c-1.255.257-3.175 1.15-4.28 1.765 0 .176.218.446.368.446 0 .266.291.443.518.443.666 0 2.064-.443 2.293-.971.068-.28-.084-.796.143-.888.44-.27.813.092.958-.795zm-17.421 1.587c-1.256-.443-3.028-.881-4.652-.528.815.528 2.214.706 2.805.706.519 0 .886.446 1.847-.178zm-8.487-74.155c.292 0 1.252-.628 1.252-.889v-1.065c.15-.09.523-.704.592-1.152-.29-.176-.442-.354-.813-.883 0 0-.657.448-.657.883 0 .448.288.713.512 1.061-.594.091-1.038.621-1.622.707 0 .538.07 1.338.736 1.338zm-6.647.43c-1.318.096-1.69 1.685-1.69 2.213 0 .445-.23.801 0 1.155.518-.803 1.107-1.235 1.107-2.209 0-.452.434-.798.583-1.16zm-15.868 11.693l-.142-.36c-.081.087-.297.266-.374.444.077.085.516.53 1.037.53 1.624 0 1.034-3.101 2.288-3.544-.37-1.496-.446-2.296-1.921-2.296-.513 0-1.404 2.296-1.404 2.659 0 .528.814 1.23 1.55 1.414 0 .443-.513 1.059-1.034 1.153zm-.883-.885c0-.895-.515-.715-.515-1.776h-1.407v.88c0 .896.816 1.159 1.698 1.159v.706c.073-.448.224-.265.224-.97zm-15.648 50.091c0-.27-.372-.801-.372-.974-.44.083-.734.346-1.178.62.077.084.666.792.96.792.218 0 .59-.178.59-.438zm11.07-1.945c0 .617-.367 1.054-.441 1.768 0 .71 0 1.85.74 1.85.585 0 1.93-1.246 1.93-2.48 0-1.42.188-2.214-.457-3.622-.224 0-.443-.525-.957-.525-.663 0-.738.877-1.55 1.15.075.698.735 1.138.735 1.859zm1.107-3.633c.222-.533.441-2.478.665-3.536-.224-.095-.3-.536-.3-.981-.365.09-.657.886-1.173.886-.147 0-.375.178-.52.178.373.7.591 3.278 1.328 3.453zm12.483 9.86c-1.113-.27-1.555.585-2.515.585-1.036 0-1.704-1.154-3.25-.276v.626c.219.44.811.349 1.03.44 1.184.442 2.145 1.952 3.398 2.303 0 .264.37.362.591.362.223 0 .443-.362.443-.623 0-.706-.371-.795-.371-1.422 0-.355.37-.97.37-.97l.304-1.025zM643.461 50.275c.735 0 1.108-.797 1.622-1.332.373.535.67.879 1.331.879.738 0 1.177-.702 1.62-.702.6 0 .89-.623 1.48-.623.516 0 .812.888 1.334.888.882 0 1.25-.888 1.84-.888h1.993c0-.703 1.035-1.679 1.325-2.917-1.544-.527-5.899-2.386-7.228-2.386-.885 0-1.249 1.064-1.249 2.386-2 0-2.149-2.833-4.436-2.833-1.552 0-3.32 1.511-3.32 3.535 0 2.134 1.768 3.993 3.688 3.993zm-300.99 85.754c-.44.265-.519.619-.519 1.063h.816c0-.444.071-.798.071-1.063h-.367zm-2.511-10v.707c0 .086-.516.71-.516 1.146 0 .362.664.625 1.104.714v.792c-.217.18-.295.353-.295.623v1.42h.594c-.143-.356-.37-.62 0-1.335.225.18.667.444 1.256.444-.222.706 0 .89 0 1.685 0 .703-.736 1.154-.736 1.858 0 .703.514.703 1.18.703.59 0 .962-.435 1.697-.435.219 0 .44.082.662.082-.148.353-.516.529-.516 1.235 0 .892 1.027 1.075 1.774.976v1.329c-.366.89-1.998 1.68-3.324 1.68 0 .976.596 1.42.596 2.576 0 1.32-2.069 1.413-2.069 2.74 0 .174.217.441.366.441.37 0 .296-.441.742-.441.809 0 1.105 1.062 2.063 1.062.519 0 1.03-.354 1.331-.888 0 .174.15.447.15.623 0 1.232-1.481.802-2.51 1.147-.225.085-2.437 2.92-2.59 3.274v.533h.516c.298-.354.515-.704 1.04-.704h1.034c0-.715.438-1.507 1.175-1.507.52 0 .815.532 1.334.532 1.105 0 3.094-.796 3.836-.796h2.95c.886 0 1.407-.535 2.066-1.332v-.614c-.44 0-.734-.095-1.48-.357.594-1.15 2.371-1.946 2.371-3.54 0-.879-.67-1.678-1.55-1.678-.596 0-.45-.095-.965.35l.37-.35c-.295.17-.37.44-.885.616v-.616c.225-.095.365-.358.365-.626 0-.7-.808-1.151-.808-1.86 0-2.116-1.92-2.744-3.097-4.155-.892-1.064-.666-3.186-2.068-3.72-.593-.177-.959.177-1.706-.088.082-.345.305-.618.601-.707 0-1.867 2.28-2.92 1.99-5.401h-4.356c-.143-.261-.216-.437-.216-.707.216-1.234 1.84-1.058 1.84-2.292 0-.18-.444-.8-.738-.8H342.4c-.45 0-1.186.706-1.186 1.145 0 .445-.296.795-.296 1.504-.508 0-1.027.353-1.027 1.066 0 .173.216.445.361.53 0 .176-.145.523-.293.523-.144 0-.516-.258-.516-.784h-1.18c0 1.145.594 1.409 1.696 1.677zm-2.365-2.57c.819 0 1.409-1.055 1.409-2.027-.59 0-1.843.438-1.843.972 0 .352.215 1.056.434 1.056zm-6.638 20.355c0 1.07.956 2.035 1.843 2.035.443 0 1.04-.083 1.402-.345.595-.447 1.476-1.95 2.664-1.95.73 0 1.47.085 1.917-.442.586-.71.072-1.776.072-2.483v-3.004c0-.707 1.33-.617 1.33-1.33 0-1.51-.816-3.628-2.512-3.628h-1.256c-.74 0-2.215 1.061-2.215 1.681 0 .438.15.614.445 1.146-.445.535-1.699.977-2.139.977-.219 0-.815-.177-.815.974 0 .886.669 1.418 1.404 1.857-.297 2.125-2.14 2.3-2.14 4.512zm42.882-115.051c.03.047.059.08.087.124.007-.004.007-.007.01-.008l-.097-.116zm.223 0c-.058.03-.081.079-.126.116l.126.152v-.268zm2.286 3.803c-.5-1.888-1.485-2.284-2.422-3.679-1.102.829 1.012 3.261 2.422 3.68zm13.953-9.642c-.152 2.037 1.33.973 2.584.973.145 0 3.172.268 3.467.268-.37.178-1.185.178-1.844.438-.148 0-.965 0-1.478.088.079.708.293 1.16.958 1.422h4.204c.52 1.057 1.26 1.592 2.585 1.592 2.138 0 5.835-3.102 7.606-4.515-.439-1.062-1.85-2.39-3.328-2.39h-2.424c-1.115 0-1.554.888-2.219.888-.154-.623 0-1.061 0-2.213h-.883c-.368.354-.964 2.038-1.847 2.038-.368 0-2.515-1.247-2.956-1.775h-2.06l.364.889h-1.248v.438c-.45.269-1.04.085-1.481-.265h-1.109c.07.888.52 1.6 1.109 2.124zm-14.614 4.781c.223 0 .369.26.589.35-.296 1.416.814 2.128 2.068 2.924-.226 0-.37.091-.588.184.362.882 1.172 1.403 2.357 1.403 1.55 0 1.55-1.943 2.214-2.383h.596c.296.262.95.796 1.103.796h1.917c-.808.793-2.802 1.858-3.76 2.21-.373.089-2.07.089-2.07.885 0 2.126 1.916 1.15 2.81 1.15.512 0 2.876.092 3.313.444-.887.26-1.693 0-2.43.713 0 0-1.697-.265-2.732-.09 0 3.009 3.986 4.157 5.754 5.573 1.038-1.235.884-3.717 2.14-4.87.37-.348.96-.176 1.117-.702.735-2.301 1.545-6.199 4.05-6.199 0 0 .591 1.15 1.772 1.332-.367 0-.66.084-1.03.17.293.707.962 2.305 1.47 2.479-.138 1.33-.952.887-1.1 2.48.962.092 2.507 0 3.39.172-.22.45-.22.887-.072 1.599 1.847-.712 2.656-2.209 4.652-3.009-.663-1.15-2.805-.447-2.805-3.188h-2.362c.224-.356.15-.886 0-1.328-.517.09-.736.179-1.324 0 .215 0 .512 0 .735-.092-.735-1.053-4.646-3.713-5.908-3.713-.221 0-.518-.091-.733-.091.146-.707.292-2.119-.891-2.119-.59 0-.737.792-1.321 1.147 0-.617.213-1.147.213-1.767 0-.88-1.993-1.765-2.95-1.765-.956 0-1.471 0-1.471 1.32 0 1.68.432 2.477.882 3.898-1.847-.804-1.33-3.898-3.33-3.898-.655 0-1.248.709-1.248 1.502 0 .538.225.975.514 1.153-.514-.615-1.247-.615-1.99-1.324.217-.448.518-.708.885-1.24-1.696-.35-2.51-.35-3.692-.35-.734 0-2.284 1.676-2.578 2.116.513.62 1.323 2.128 1.844 2.128zm96.317-9.735c.813 0 1.624.173 2.214-.355-1.618-.795-2.137-.975-4.21-1.327.744-.884 2.22-1.42 3.4-2.308 0-.44.366-.882.667-1.142 0-.268-.077-1.068-.224-1.068-.66 0-1.177.71-1.25 1.504-2.146 0-2.22 1.771-4.43 1.771v1.16c.733-.537.441-.183 1.25.171h-3.096c-.374.347-.52.531-.958.977.146.087 3.165 1.678 3.69 1.678.883 0 2.064-1.06 2.947-1.06zm.37 1.773c-.736 0-3.688.529-3.688 1.77 0 .347.37.615.734.615.663 0 .962 0 1.108-.883.444 0 1.034.883 1.476.883 1.034 0 .96-1.327 2.437-1.327-.366-.621-1.105-1.058-2.068-1.058zm7.748.171l-.365-1.06c.659 0 1.4.354 1.844-.443 0-.353.07-.524 0-1.326-.665.173-1.916.092-2.358 0 .149 0 .587-.265.735-.709h-2.438c0 .168-.074.444 0 1.151-.884.36-1.47 1.06-1.47 2.387 0 .44 3.615.268 4.052 0zm4.065-2.21c.514 0 3.394-.708 3.91-1.154l-1.033-2.826c-1.103 0-4.137 1.415-4.137 2.652 0 .882.37 1.329 1.26 1.329zm-35.06.44c.666 0 1.033.533 1.692.798-.365.351-.741.53-1.104.801.3.083.663.171 1.323.171-.584.172-.96.355-1.544.712.22.794.96 1.063 2.065 1.063h-.07c.216.35.438.793.807.884.668.086.815-1.508 1.479-1.947 1.005-.682 1.642.106 2.58-.356v-.527c.225.083.518.083.747 0 .88-.801 1.836 0 1.987-1.6-.438-.173-1.332-.883-2.216-.883-1.104 0-1.62 1.15-2.723 1.15-1.412 0-2.445-1.15-4.288-1.15-1.546 0-5.019.263-5.683 1.682.593.09 1.032.351 1.625.351 1.111 0 2.512-1.15 3.322-1.15zm7.746 1.77a2.04 2.04 0 0 1-.517.356v.356l.517-.712zm119.942 13.538c.515 0 .884-.701.956-1.324-.665.36-.88-.087-2.438.263.217.445.595 1.06 1.482 1.06zm-33.36-17.7l-.226-.702h-2.73c.44 1.154 1.849.883 2.955.701zm8.854 24.075c.886 0 1.326-.527 1.478-1.767h-1.11c-.3.265-.665.618-1.109.885.08.44.372.882.741.882zm.143-17.967c-2.356.886-3.095 1.86-5.53 2.831 1.104.708 3.027 3.189 3.913 3.189 2.656 0 5.017 1.591 8.266 1.591.668 0 1.471-.535 1.471-1.323 0-.619-.583-.887-1.103-1.071.441-.173 1.478-.26 1.478-1.145 0-.886-.147-1.064.589-1.767-.964-1.153-.964-1.765-2.435-1.765h-1.48c-.886 0-1.329-.887-2.217-.887-.583 0-.808-.268-1.544 0 .592-.358 1.404-1.071 1.404-1.599 0-.443.067-.706 0-1.77.291.09.14.266.89-.086-1.19-1.062-2.367-3.453-4.436-3.453-3.544 0-4.643 4.161-7.75 5.221 1.915 1.151 3.323 1.863 5.39 1.863.443 0 2.36.171 3.094.171zm-10.104.268c0 .796 1.03 2.215 1.474 2.215.883 0 3.319-.178 3.465-1.77-.513-.173-2.582-1.328-2.95-1.328-.441 0-1.99 0-1.99.883zm17.86 10.62c0 .888.217 1.326 1.106 1.326l3.91-1.326s2.293-.446 2.579-.446c1.336.27 5.173-.086 5.173-2.209 0-1.24-3.029-3.537-4.057-3.537-.512 0-.814.705-1.336.884.605-.708.22-.708.22-1.95h-.959c-2.949 0-3.612 3.273-5.308 5.31-.446.532-1.328.532-1.328 1.948zm29.375 20.177c-.05.034-.107.056-.154.087-.129.212-.308.375-.437.539l.591-.626zm-1.697-1.767c-.735 0-1.622.442-1.622 1.325 0 .793.814 1.068 1.622 1.068.598 0 1.07-.237 1.543-.539a.984.984 0 0 0 .154-.53c0-1.058-.668-1.324-1.697-1.324zm48.565-4.426c.532 0 .64-.65.717-1.17l.022.018-.02-.028c.008-.047.014-.1.02-.146h-.144l-.595-.71c-.299.441-.593.795-.593 1.332 0 .527.23.704.593.704zm70.264 28.054c.37 0 .742-.443.742-.88 0-.536-.446-.71-.52-1.064h-2.44c.444 1.063 1.181 1.944 2.218 1.944zm20.892-5.488c.808 0 6.636-.437 6.636-1.594 0-1.324-2.797-2.208-3.904-2.208-1.258 0-3.47 1.59-3.47 2.918 0 .447.295.884.738.884zM560.871 257.723c0-.287-.171-1.146-.406-2.1.23.954.405 1.81.405 2.1 0 .174-.096.326-.204.458.108-.132.205-.278.205-.458zm-.592.968c-.428 1.085-.676 1.877-.954 2.712.278-.827.526-1.627.954-2.712zm-1.163 3.32c-.096.27-.194.542-.312.843h.002c.116-.301.216-.573.31-.844zM453.24 184.548c-.282.533.613.594.976 1.305.59 1.054-.067 1.772.37 2.833.367.972 1.323.44 2.14.619.668.18.815 1.068 1.254 1.59.593.707 2.44.534 3.393.534 1.256 0 2.588-.261 3.465-.535v-1.585c-.067-.097-.729-1.067-.729-1.864 0-.792.517-1.056.517-2.04 0-1.676-1.033-3.453-2.585-3.708.15-1.334.811-2.214 1.48-2.214h2.204c0-1.325-1.174-2.036-1.252-3.37-.512.101-1.918.98-2.51 1.334 0-3.452-1.992-4.61-3.39-7.527-.447-.974-1.628-.88-1.701-2.656.229.1 3.171-2.212 5.169-2.212 1.331 0 2.797.98 3.912-.08-1.48-2.656-2.137-4.96-6.128-4.96-2.431 0-3.619.62-5.531 1.505-.222.087-2.441 1.593-2.806 1.328-.378.53-1.774 3.806-1.774 4.24 0 1.329 1.628 2.657 1.628 3.544 0 3.015 3.027 8.322 5.013 9.653-1.18.704-1.18 2.822-2.061 4.245 0 0-.77-.513-1.054.021zm-28.273 26.634l-.04-.105c.012.07.028.137.032.211a.72.72 0 0 1 .008-.106zM751 90.804c-1.979.792-3.166.624-4.432 2.395-.808 1.15-1.099 4.423-2.58 4.423-3.323 0-7.163-7.527-11.807-7.527-1.468 0-.735 2.217-1.107 3.104-.884 2.114-5.167 1.498-5.167 5.31 0 1.413 8.743 6.376-2.218 6.635-5.748.129-10.4 10.178-16.967 10.178-2.225 0-7.692-8.223-13.662 7.082-.713 1.838 0 2.914 0 3.98 0 1.588-2.577 2.389-2.577 5.313 0 1.857-3.326 2.386-2.956 4.86-3.028.888-4.058 5.748-5.538 8.412-2.066-1.95-2.955-12.657-2.955-15.93 0-3.806 2.585-5.844 4.435-7.08 2.21-1.506 3.616-4.869 5.168-7.53 1.324-2.3 3.145-1.533 5.158-3.091 5.786-4.464 1.926-6.38 1.114-6.194-8.053 11.911-7.533 4.245-6.272 3.093-2.51-.444-3.102 0-4.432 0-5.09 0-7.305 3.456-8.494 9.293h-4.06c-1.84 0-3.247-1.767-6.266-1.767-2.434 0-11.22.886-14.026 1.767-3.178 1.07-6.197 5.665-8.491 8.409-1.545 1.86-5.528 4.6-5.528 7.083 0 .532 2.266 6.604 6.64 2.646 1.476-1.325 4.674 3.335 4.674 5.725 0 1.952-.86 3.951-1.29 4.87-1.152 2.455-.29 4.103-.802 6.672-.44 2.307-2.082 5.19-3.26 6.603-2.96 3.544-6.926 14.198-11.134 14.198-2.281 0-5.151-.889-5.167-.893l-.004.002c-1.763 1.686-2.36 3.093-3.32 5.49-.29.706-1.614 1.594-2.136 2.208-.59.716-1.33 1.331-2.213 1.331-.152 1.505.59 2.301 1.257 3.096 1.624 1.938 2.73 3.982 2.73 7.437 0 2.034-.443 3.008-1.478 3.361-.449.18-2.297.263-2.297 1.058-.878.273-1.019.273-1.465.806h-1.109c0-.446.365-.712.446-1.158-.371-.082-.371-.526-.371-.878 0-.63.658-1.776.658-2.041 0-.53-.368-.968-.368-1.504-.44-.086-.586-.441-.739-.615v-.893c.598 0 1.183-.527 1.183-1.151 0-1.055-1.1-1.756-1.994-1.756-.516 0-.808.425-1.034.425-.51 0-.736-1.057-.736-1.504 0-1.06.815-.973.815-1.854 0-1.058-.366-1.058 0-1.953-1.113 0-1.478-.966-2.363-.966-2.368 0-4.064 2.656-6.124 2.656 0-1.598 1.404-2.213 1.404-3.636 0-.521-.815-1.672-1.404-1.672-.736 0-1.03.878-1.182 1.15-.594 1.152-2.29 2.468-3.176 3.276-1.033.882-3.174.26-3.174 2.12 0 .879 1.259 1.23 1.553 1.505.88.8.588 1.679 1.476 2.386.59.447 1.328.188 1.914.188.443 0 .443-1.953 1.03-1.953.823 0 1.115.708 1.627 1.058 1.033.797 2.142-.175 2.733.797-1.478 1.777-4.644 1.777-5.311 4.161-.298 1.059-1.555 1.146-1.555 2.21 0 1.243 1.399 2.126 1.996 2.219 0 .26.07 1.683.07 1.683h.156l-.08.081c.664.445.664 1.514.894 1.953 1.32 2.395 2.058 3.802 2.058 7.612 0 2.563-1.103 3.452-1.103 5.394-1.108.267-3.101 3.796-3.545 4.866-.674 1.681-1.182 4.958-2.95 4.958-.141.888-.519 1.243-1.104 1.59-2.067 1.423-2.877 3.902-6.276 3.902-.736 0-1.109-.715-1.846-.715-.15 0-.89 1.686-.89 1.686-.885 1.06-2.287.703-3.687 1.504-.596.36-2.071.616-2.582 1.238-.596.706-.154 1.857-.963 1.857-.668 0-.435-1.763-.366-2.216-1.403-.794-2.29-.263-3.55-.974-1.47 2.743-5.09 3.374-5.09 7.177 0 .792.368.975.663 1.317 1.698 2.043 2.434 4.346 4.285 5.757 1.766 1.416 2.957 5.31 2.957 8.228 0 2.04-.888 2.84-.888 4.429-2.364.712-2.586 1.677-4.505 2.822-.892.543-.74 1.962-1.625 1.962-.224 0-.224-.532-.224-.8v.976c0 .884-1.474 2.21-1.765 2.21-.3 0-.595-1.232-.595-1.776 0-.709 0-1.057.295-1.233-.295-.178-.441-.883-.516-1.339-1.1 0-2.579-.426-2.579-1.766-1.63 0-.812-1.314-1.704-2.39-1.029-1.23-2.065-1.319-3.242-1.768-.15 0-.373-1.145-.373-1.145-.223-.976-1.105-1.144-1.916-1.144-.591 0-.444.529-.444.962 0 .807.296.976.296 1.687 0 2.658-2.146 3.36-2.146 5.746 0 2.746 2.51 1.681 2.51 4.254h-.14c.293.616.36 2.215.88 2.828 1.994 2.39 6.349 2.922 6.349 7.346 0 .89-.293.89-.293 1.687 0 1.587 1.1 2.123 1.403 3.182.3 1.157.3 1.597.66 2.572-.587.081-.66.081-.963.081-.219 0-.287.357-.518.357-.735 0-.803-.62-1.246-.793-2.291-.888-4.357-3.541-5.172-6.462-.659-2.567-.807-4.421-1.62-6.46-.517-1.242-1.032-4.425-2.218-4.425-.733 0-.285.533-.956 0-.148 0 0-.353 0-.538 0-1.24.146-2.117.367-3.355h.367c-.588-.373.002-2.394.002-3.362 0-3.904-1.921-6.19-1.921-9.034-.957 0 .302-2.653-.44-3.979-.218-.442-.815-.263-.963-.442-.436-.533-.214-.89-.657-1.416-1.255 1.5-1.773 4.07-3.845 4.07-1.102 0-1.18-1.063-1.18-2.212 0-1.155.371-1.686.371-2.657 0-.433-.37-.709-.443-1.15-.512-1.866-1.4-3.273-2.138-4.69-1.033-.978-1.842-1.678-2.439-2.832-.59-1.065-.442-2.482-.735-3.542-.296-1.237-1.548-1.767-2.66-2.035 0 2.655-2.06 3.186-3.982 3.186-1.18 0-1.18-.435-1.773-.884-.519 1.328-2.065 1.423-2.293 2.21-.287 1.241-.216 2.22-.878 3.013-1.334 1.594-3.467 2.038-4.65 3.448-1.485 1.763-2.804 3.545-4.208 5.218-.589.715-1.402 1.78-1.924 1.956-1.323.534-2.877.791-2.877 2.656 0 1.59.522 2.474.522 3.894 0 2.207-.886 3.624-.886 5.306l.364 2.3-.364.096c0 .261-.517.261-.74.346-1.035.354-.814 2.652-1.41 3.008-.878.53-1.023.188-1.4 1.068-.292.707-.365 1.775-.957 1.775-.588.085-1.029-.271-1.11-.89-.364 0-.585-.626-.66-.885-.591-2.133-1.402-3.904-1.915-5.762-.299-1.223-1.33-2.117-1.628-2.825-.587-1.418-.224-2.575-.811-3.622-.589-1.16-.589-1.693-.89-2.834-.36-1.326-1.691-4.244-2.213-6.203-.44-1.759-1.256-3.449-1.256-5.133 0-.261-.116-.995-.116-1.252l.058.063c.028-1.182.354-1.419.354-2.522 0-1.421-.735-2.477-.735-3.636 0-.257.439-.884.439-1.23h-.586c-.958 1.15-1.037 4.152-2.949 4.152-2.288 0-3.18-2.742-4.28-4.069.662-.534 1.175-.083 1.842-.355.588-.179.66-.97.962-1.325-.589-.183-1.114-.183-1.704-.183-1.47 0-3.616-1.762-4.35-3.091-.596-1.151-1.035-3.189-1.922-3.542-.813-.266-1.397-.081-2.214-.081-.885 0-1.104.702-1.853.702l-1.917-.621c-.292.181-.509.447-.655.62l-2.586.178c0 .086-.298 0-.369 0-1.402 0-4.655-1.064-6.641-1.064-.373 0-2.51-.704-2.592-.797-.732-.88-.732-3.538-2.277-3.538-.812 0-1.11.798-1.55 1.332h-3.69c-1.185-.448-1.78-1.6-2.519-2.483-.882-1.068-2.062-.533-2.874-1.503-.438-.531-.218-1.236-.364-1.595-.814-1.939-2.441-4.688-4.508-4.688-1.035 0-1.479 1.589-1.479 2.829 0 .889 0 1.325.155 2.042.443 2.121 2.516 5.918 4.21 6.367 0 .97.439 1.237.51 2.034.882-.265.736-1.417 1.476-1.591.073.351.073.615.073.97 0 1.066-.511 1.771-.511 2.835 0 1.24 1.91 1.86 3.02 1.86 4.946 0 5.318-3.629 7.97-6.018v3.272c1.033 2.562 2.44 3.01 4.577 3.81.815.254.889 1.76 1.398 2.118v-.09c.375.8 1.407.625 1.407 1.423 0 2.031-2.142 2.737-2.142 4.865-1.107 0-1.84.353-2.14 1.413-.295 1.066-.219 2.572-1.102 2.572-1.115 0-1.031 2.567-2.144 2.567-.662 0-2.062 1.5-2.062 2.559-1.998.44-6.494 1.418-6.494 3.368 0 .263.142.618.286.796-1.69.97-3.977 1.59-5.754 2.118-.884.264-3.836 2.747-4.798 3.282h-2.284c-1.26 1.066-1.457 1.792-3.007 1.792l-.46.333c-.225 0-2.105-1.104-2.308-1.219-.182-.11.396-.113-.089-.99-.766-1.387-1.3-2.839-1.3-4.533-.806-.079-.235-1.76-.083-2.55.368-1.957-.876-2.75-1.685-3.724-.889-1.058-2.935-4.114-2.935-6.242-2.577-.702-3.193-2.518-3.193-5.88 0-2.034-.956-2.48-1.256-4.16-.363-.347-.74-.883-.96-1.148-.297-.354-1.254-.18-1.472-.439-.449-.535-.291-1.864-.449-2.389-.218-.896-.736-1.6-1.033-2.13-.88-1.588-1.622-2.921-2.429-4.428-.225-.44-1.254-1.855-1.254-2.118 0-.602.234-1.73.384-2.808-.309 1.275-1.109 3.54-1.343 4.404-1.553-.271-2.81-4.25-4.066-5.755v1.504l7.018 14.869c-.369 1.85 1.841 5.756 2.948 6.808v4.697c.74 2.38 2.216 2.38 3.324 4.157 1.33 2.122.519 4.432 1.846 6.016 1.176 1.42 1.985 1.503 3.322 2.651 1.182 1.07 1.815 4.739 4.241 4.739 0 1.51.703 1.732-.035 2.785.952.885 1.92 3.716 3.165 3.716 1.187 0 1.261-1.15 2.219-1.497 1.108-.453 1.843.18 2.955 0 2.803-.535 5.462-1.858 8.12-2.658.219.526.515.8.515 1.324 0 5.046-3.32 11.593-5.171 14.606-2.213 3.536-3.166 6.727-5.902 9.292-4.865 4.61-10.107 6.015-11.956 13.902-.511 2.202-2.435 2.816-2.435 5.313 0 2.74.584 3.973.584 6.63 0 3.01 2.74 4.509 2.74 6.186 0 .54-.449 1.159-.524 1.336v2.209c0 1.42-.22 3.097-.22 5.578.448.525.593 1.055.593 1.778 0 6.898-9.743 6.107-10.554 11.94-1.026.178-2.212 1.677-2.212 2.652 0 1.95 2.068 3.278 2.068 5.931 0 1.42-.148 4.33-.595 5.127-.443.71-1.7.366-2.214.624-1.766 1.069-2.801 1.947-3.687 4.167.655.433 1.103 1.058 1.103 1.854 0 2.476-2.066 4.415-2.943 5.491-1.632 1.935-1.784 3.986-2.957 5.755-1.845 2.826-2.657 5.305-5.685 7.076-1.255.709-3.101 0-3.329 1.595-.954.09-1.542.608-2.21.608-.805 0-1.252-.876-2.067-.876-3.098 0-4.94 2.66-7.745 2.66-1.254 0-1.916-.8-2.368-1.784-.441.093-.583.358-.739.455 0-1.769-.735-3.716-1.326-4.429.59-.71.96-1.42.96-2.394 0-1.416-2.065-4.075-2.43-4.863-2.662-5.406-6.058-10.628-6.058-18.408v-2.393c0-1.24-.881-1.675-1.473-2.918-2.068-4.155-4.281-7.525-4.281-13.278 0-6.192 4.652-7.701 4.652-12.395 0-2.207-.737-3.098-.962-5.039-.52-3.804-1.107-5.133-1.848-7.344-.585-1.767-.295-3.805-1.25-5.302-1.925-2.933-6.13-6.025-6.13-10.183 0-.974 1.18-3.19 1.695-3.542-.292-.797 0-.98 0-1.325 0-1.07 0-3.72.742-4.43-.807-1.945-2.146-3.72-4.65-3.72h-3.097c-2.217 0-2.732-5.122-5.765-5.122-3.68 0-6.412 2.03-9.222 3.093-1.109.436-1.475 1.595-2.58 1.595-1.11 0-2.96-1.331-4.43-1.331-2.877 0-4.136 1.765-7.015 1.765-.886 0-1.913-.434-2.212-.701-2.07-1.866-6.348-4.876-7.901-7.705-1.4-2.563-1.843-4.69-3.686-6.455-.519-.45-4.43-4.605-4.43-4.961-.368-.528-.592-.695-.963-1.233h.228c0-1.338-.374-2.04-.374-2.832 0-1.244-.588-1.69-1.107-2.919 1.624-.975 3.098-5.751 3.098-7.962 0-3.9-1.474-6.385-1.474-9.912 0-1.776 1.702-2.846 2.07-4.257.958-3.45 3.173-8.137 4.947-11.063 1.03-1.678 2.948-1.498 4.276-2.387 1.109-.798 2.955-2.565 3.32-3.986.888-3.272-.218-4.685 1.255-6.902 1.92-2.916 4.43-5.67 6.278-8.408h-.152c.591-.878.74-1.682 1.478-2.39 1.843 1.593 3.765 2.212 6.276 2.212 1.55 0 1.843-1.062 2.731-1.587 2.88-1.684 8.338-4.157 11.66-4.157 1.034 0 1.991.878 2.579.878.813 0 2-1.323 3.108-1.323.952 0 1.398.613 2.215.613 1.473 0 1.542-1.32 2.95-1.32 1.4 0 1.033 1.59 2.207 1.59.45 0 .67-.438 1.11-.532-.075 1.33-1.11 1.145-1.11 2.3 0 .797.962 1.151.962 1.95 0 1.326-.962 2.026-.962 3.362 0 2.204 1.92 4.155 3.325 4.155h2.073c4.793 0 6.493 7.08 11.948 7.08.668 0 1.476-.888 1.476-1.33v-1.767c0-2.831 1.775-2.831 4.066-3.71l.221.173h1.62c0 1.237.818 1.5 1.11 2.028.665 1.07 2.366.36 3.544.894 2.354 1.066 5.682 2.383 8.265 2.383 2.358 0 3.098-1.317 5.388-1.317 1.399 0 2.211 1.141 3.84 1.141 1.096 0 1.096-.44 2.068-.7.074.22.166.42.253.628l-.406-1.166c0-.615.52-.615.594-.97.518-1.945.737-2.921 1.176-4.697.448-1.771 1.92-2.208 1.92-4.245 0-1.505-.365-2.74-.365-3.797 0-.534.366-.719.513-.888v-.886c-.587.268-.808.793-1.4.793-.74 0-1.184-.349-1.478-.703-1.179 1.056-1.548 2.205-3.69 2.205-1.551 0-2.138-2.205-3.691-2.205s-1.256 2.031-2.577 2.031c-1.404 0-2.145-2.39-3.548-1.597h-.811c.218-.08.518-.351.588-.524-.448-.527-2.582-1.862-1.847-2.744-.664-1.153-1.474-1.063-2.5-1.68.733-.885 1.544-.714 1.544-2.39 0-.62-.15-.62 0-1.065-.518 0-1.255.093-1.255-.45 0-2.732 5.317-2.207 6.639-3.002-.144-.707-.587-.444-.587-1.06 0-.796 1.4-.449 1.777-.449h2.283c.886 0 2.212-1.148 3.028-1.766.957-.709 3.026-.796 4.28-.796 1.997 0 1.918 1.335 3.62 1.335 0 1.063 2.873 1.676 3.69 1.76h4.203c1.52 0 2.393-1.378 3.701-2.039-.022.015-.057.021-.085.033l-.294.055c0-6.987-8.485-6.103-10.334-11.32 4.29-1.317 2.358-3.717 2.216-4.245.374-.181 1.327-1.507 1.327-1.507-1.998.884-7.38 3.275-7.38 3.976 0 1.074.961 1.328 1.254 1.328 0 0 1.92.355 2.064.355-.586.884-4.126 2.75-5.166 2.75-1.032 0-4.425-6.64-5.75-6.64-1.627 0-1.78 2.3-3.403 2.832.08.449 0 .883.08 1.327-.738.177-1.528.608-1.528 1.496-.282 1.439-.246.722-.468 1.247v2.304c-.74.888-2.07 2.651-2.07 3.894 0 1.772 1.996 3.004 2.444 3.8-.3.354-.592.27-.966.354-.665.269-1.176-.084-1.843.269-.958.53-1.185 1.678-2.14 1.678-1.108 0-1.776-1.767-3.097-1.767-1.184 0-1.476.796-2.442 1.146.15.715.15 1.24 0 1.946-1.103 0-1.248-1.325-1.915-1.325-.373 0-.805.54-.805.979l1.388 1.947c-.066.525-.292.795-.292 1.058 0 .274 2 2.48 2.59 2.48 0 .263.144.615.292.795-.372.265-1.107-.083-1.258.534h-.148c-.805-.177-1.548-.886-1.913-1.33v.713c.218.525.437.792.437 1.505 0 .525-.739 1.59 0 2.03h-1.027c-1.185 0-2.213-1.422-2.213-2.918 0-.617.735-.886.956-1.33h-1.26c-.29 0-.44-.792-.44-.975-.3-1.23-.88-2.037-1.543-2.828-.896-1.057-2.068-1.862-2.068-3.712v-2.308c0-1.245-1.629-3.098-2.659-3.714-1.034-.626-2.216-.712-2.216-1.947h-1.035c-1.629 0-3.465-3.012-3.465-5.046h-2.213c-.964 0-.525-1.853-.964-2.391-.814.621-2.436.621-2.436 1.593 0 .174.22.53.373.53-.153.53-.3 1.068-.3 1.589 0 1.333.662 1.856 1.549 2.218 1.108.44 1.699 1.946 1.924 2.742.289 1.244.806 2.658 1.398 3.005 1.108.633 1.846.176 2.95.176 0 .276 0 .534-.142.707-.303 1.07 1.472 1.519 1.916 1.776 1.478.887 3.248 1.591 3.034 3.447-.745-.17-1.183-1.325-2.373-1.325-.884 0-1.619.54-1.619 1.42 0 1.154 1.33 1.415 1.33 2.564 0 .44-.962.44-.962.44-.662.798-.518 2.655-1.546 2.655-.515 0-.816-.26-.816-.616.89 0 1.25-1.328 1.25-2.392 0-1.32-.585-1.676-.74-2.468-.21 0-1.986-2.109-2.058-2.645-.296 0-1.404-.373-1.404-.905-2.291-.613-2.803-1.413-4.057-2.92-.52-.621-1.629-.971-1.778-1.591-1.324-2.036-1.766-5.665-4.574-5.665-1.322 0-1.398 1.147-2.066 1.507-1.405.797-2.359 2.384-3.985 2.384-1.627 0-2.656-.97-4.134-.97-1.11 0-2.286.881-2.286 2.219l.443 1.94c-.443 1.772-2.067 2.4-3.62 2.837-1.329.355-3.471 3.983-3.471 5.927 0 .703.375.967.74 1.15-.96 1.767-1.403 2.83-2.948 3.716-.886.526-1.036 2.745-2.511 2.217v.08c-.667-.256-1.917.185-2.29.185-1.77 0-2.729 1.767-4.357 1.767-1.102 0-1.179-3.27-2.875-3.27-1.253 0-2.063.61-3.176.61-.44 0-.584-.437-.584-.707v-3.54c-.594 0-1.181-.527-1.181-1.241 0-1.143.808-1.413.808-2.028 0-2.216.663-4.51.663-6.808 0-1.34-.81-2.575-.81-3.377 0-.524 2.511-2.386 2.95-2.386.294 0 .67.53 1.11.352h3.319c.296.357.89.452 1.256.538h3.542c.886-.27 1.333.346 2.065.346.516 0 1.626-.432 1.85-.432 0-1.783.953-2.306.953-3.985 0-.36-.076-1.908-.076-2.441l-.144.137c.15-.35.298-.973.298-1.323 0-.802-.444-.625-.444-1.337-1.476 0-1.92-1.588-1.92-3.003-.44-.087-.517-.537-.882-.62-1.177-.446-4.429-1.152-4.429-2.484-.071 0-.071-.261-.071-.352 0-.789 2.063-1.325 2.8-1.591.224.532 1.4.888 1.997.888.584 0 1.402-.356 1.694-.445v-.614c-.515-.18-.292-1.507-.37-1.772v-.715h.739c.588.715 1.327 1.15 2.212 1.15.595 0 1.11-.616 1.257-1.322 2.218 0 2.803-1.95 3.25-4.073.44 0 .665-.087 1.034-.18.443-.174 3.392-1.588 3.685-1.94.594-.71.37-1.776.37-2.836 0-.351.663-.88.74-.975 1.033-1.235 2.07-2.655 3.764-2.655.961 0 .517.268 1.03 0 .22.268.444-.438.59-.613.518-.625 1.18-.092 1.847-.092.442 0 1.624-.798 1.624-1.5 0-.448-.512-2.133-.512-2.224-.299-2.385-1.481-3.092-1.481-5.22 0-3.714 2.877-3.978 4.728-5.57v1.067c-.37.882-.446 1.412-.446 2.296 0 .894.812.976 1.407.976v.708c0 .436-.668.616-.888.886-.736.881-1.625 1.68-1.625 3.275 0 .878.367 1.498.805 1.582 0 .539.084.714 0 .973.82 0 1.113.36 1.775.36.15.443.3 1.064.518 1.064 1.993 0 3.398-2.033 5.094-1.773-.075.444-.439.71-.439.975 0 .177 1.255 1.237 1.255 1.237.806 0 .88-.613 1.254-.788 1.252-.714 2.217-.449 3.315-1.075.669-.35 1.844-1.677 2.735-1.677.959 0 1.994.092 2.51.357-.15.347-.297.8-.297.97.895 0 1.8-.101 2.654-.203.145-3.095 2.507-2.626 2.507-6.077 0-2.125 1.63-6.198 2.958-6.198 1.26 0 1.479 2.215 2.95 2.215.894 0 2.847-1.615-.878-5.79-1.132-1.265 2.58-3.063 4.207-3.063 1.618 0 2.43.625 3.69.625.957 0 3.17-1.241 4.055-1.95-.51-1.677-1.25-2.124-1.846-3.1-.736 1.774-4.131 2.037-5.534 1.774-1.479.532-3.176 1.327-4.432 1.327-.952 0-1.616-.178-1.616-1.158-1.552 0-3.18-1.23-3.18-3.084 0-.893.817-1.513 1.036-1.952-.74-.358-1.403-2.395-1.403-3.363 0-.622.145-1.158 0-1.772 3.098 0 4.728-4.868 6.644-6.197 1.032-.704 2.797-1.15 2.797-2.655 0-2.213-2.424-2.653-4.278-2.653-2.435 0-4.425 1.063-4.425 3.538 0 1.066.224 1.496 0 2.04 0 2.034-3.397 3.803-4.947 4.87-1.256.88-2.584 1.24-3.319 2.829-.59 1.238.148 2.916-.954 3.54v1.775c.364.346.58.964.58 1.584 1.33.27 3.323 1.863 3.323 3.543 0 1.327-2.214 3.542-2.949 3.542-1.48 0-2.064 2.565-2.064 4.425 0 1.054.66 1.406 1.11 1.503-.228 2.39-2.002 2.566-2.217 4.243h-1.992c-1.26 0-1.703 2.836-3.546 2.836-.594 0-1.62-3.716-1.62-4.15 0-.278.141-.63.141-.894-1.25-1.507-1.109-2.746-1.622-4.698-.366-1.316-1.476-1.677-1.476-3.265 0-.431.208-.937.368-1.27-.808-.524-.994-1.265-1.477-2.096-1.543 2.661-3.91 6.02-7.01 6.02-.445 0-3.326-2.128-3.326-2.478 0-.708.965-1.15 1.26-1.331v-1.323c-1.035 0-1.035 0-1.922.436 0-.614.812-1.677 1.183-2.292-1.112-1.596-1.25-3.81-1.25-6.287 0-1.327 1.172-1.237 1.617-2.038.885-1.502 1.7-2.572 3.326-3.097 1.332-.44 1.62-2.57 4.277-2.213-.811-.265-1.108-.44-1.772-.619 3.246-.978 4.501-4.069 6.715-6.198.884-.798.741-3.54 1.329-3.54 0 0 .738-1.947.738-2.032.89-1.772 1.927-3.01 3.47-3.717 1.548-.708 3.617-3.72 3.984-5.58-1.844.447-2.58 1.6-4.358 1.6.375-.625 1.189-1.065 1.483-1.243-.367 0-1.108-.266-1.108-.266.146-.886.526-1.41 1.108-1.41.224 0 .37.259.59.259.223-.53.441-.882.664-1.146.37.524.441.972.226 1.588 1.178 0 1.48.884 2.427.884.37 0 1.187-2.12 1.336-2.208-.521-.178-.521-.264-1.182-.178.372-.706.955-1.42 1.696-1.42.52 0 .957.178 1.472-.172-.363-.45-.29-.352-.58-.712.736-.88 2.058-.796 3.169-1.054v1.054c.955-.264 1.186-2.296 2.729-2.384v1.503c.96-2.123 2.21-1.596 3.547-2.48-.59-.265-1.105-.444-1.105-1.066 0-.436 1.322-.796 1.542-1.324.446.618.89 1.324 1.55 1.324 1.115 0 3.916-2.208 3.916-1.055 0 1.232-1.252 1.597-1.552 2.829 1.475.176 1.913-1.856 3.173-2.659.293.625.293 1.062.37 1.594 1.042-1.239 1.624-1.594 2.802-2.477.076 1.152-.073 1.945.74 2.04.222-.708.52-1.327 1.113-1.327.367 0 1.989 1.055 2.578 1.417-.667 2.124-1.255 1.412-2.952 2.124.741.71 1.252.794 1.252 1.32.664.095 2.209.357 2.44.357 1.695-.262 1.77.09 1.992.09 2.432 0 10.415 4.814 14.021 6.199 12.592 4.825 4.33 10.982.23 9.692-3.07-.965-4.802-.848-7.978-.848 1.478 2.568.96 7.965 5.168 8.414v-3.54c8.535 4.381 7.525-4.073 9.594-4.874 2.067-.795 5.902 1.333 5.902-1.772 0-1.587-1.312-1.894-1.105-2.651 3.183-11.767 4.835-4.018 3.695-.442-.325.992.959 1.773 1.846 1.773 2.728 0 13.795-11.856 15.49-6.64 3.368 1.953 8.047-1.77 10.333-1.77 1.33 0 3.74 5.49 4.068-1.326.023-.614-3.237-4.73 6.872-1.589 3.656 1.136 13.468 9.733 9.364 2.03-1.775-2.122-3.324-4.778-3.324-8.85 0-3.362 6.047-9.605 9.226-8.848 6.319 1.507 2.21 2.739 2.21 5.749 0 2.743.827 16.114 3.926 16.114 2.405 0-2.155-6.582-.604-8.588 2.267-2.912-.88-5.486-1.468-7.97 1.921-1.24 3.459-2.478 3.836-5.305 1.034 1.589.641 9.687 5.018 2.654 5.171 0 5.752 1.233 7.375 0-.282-1.42-1.102-2.48-1.102-3.538 0-5.049 9.153-3.985 11.587-3.985 1.696 0 2.04-3.655 3.178-4.866 5.401-5.793 15.792-6.642 18.225-7.53-.829 4.165 8.713-.436 10.185-1.767 1.994-1.86 3.544-5.31 7.385-5.31 3.17 0 4.792 2.392 5.527 4.867h7.757c18.32 5.268-3.99 12.485-6.276 15.933 0 0-2.158 5.933 7.528-3.543 1.622 3.185 14.398 4.958 16.829 5.749h8.117c0-2.74 1.046-3.732 2.956-3.533 15.186 1.51 9.23 6.016 9.23 6.638 0 2.478 1.323 7.079 4.423 7.079 1.183 0 1.616-2.743 1.849-3.984 2.436.177 2.726 2.213 4.794 2.213h11.805c.45-3.455 1.255-7.077 7.013-7.077 5.769 0 10.63 1.325 15.133 3.091 2.14.796 2.22 2.924 3.693 4.429 1.625 1.68 5.753.44 8.488.44 5.016 0 7.525 1.596 8.486 6.202l16.969.433c1.407-.085 7.09 8.594 4.81 0-.314-1.173 1.332-1.763 3.687-1.763 8.562 0 16.309 4.333 22.141 8.409 4.211 2.913 12.85 5.301 15.5 9.553zM471.932 70.716c.02.03.038.07.056.102.077.085.168.161.24.253l-.296-.355zm-11.143-3.187s1.986-.09 2.213 0c1.249.441.592 1.862 1.108 3.099.14.443 1.33 0 1.841 0 .224 0 .37.536.515.62h5.762c-.07-.172-.155-.296-.24-.43-1.635-1.756-4.041-2.558-4.041-5.767 0-5.662 5.093-11.593 8.858-12.83 1.326-.444 1.695-2.4 3.542-2.4.885 0 1.183-1.767 1.627-2.03 2.43-1.417 4.272-.706 6.861-2.206 1.847-1.062 7.527-1.596 7.527-4.61 0-.968-2.07-2.211-2.953-2.211-3.69 0-7.163 5.046-11.074 5.046-.885 0-1.328-1.063-2.213-1.063-1.406 0-1.406 1.063-2.359 1.063-2.73 0-4.798 4.244-6.642 4.244-1.112 0-1.844.623-2.95.623-.52 0-.738.529-.738.892 0 .526.514.88.514 1.588 0 2.48-3.837 3.803-3.837 5.31 0 .707 1.032.887 1.105 1.945-1.183.355-3.544.977-3.544 2.485v1.32c0 1.592-2.212 1.42-2.212 3.542 0 1.061 1.33 1.77 1.33 1.77zm191.9 71.418c-.295-1.148-.889-2.3-.889-4.07h-.512v1.866c0 .438-.3.616-.3 1.143-1.1.263-1.554 2.654-1.554 4.514 0 1.327 1.12 1.857 1.12 3.19v5.224c0 1.06-.377 1.41-.377 2.743 0 1.059.448 1.228.448 2.477 0 1.325-.3 2.383-.3 3.984 0 .432-.215 2.562 0 2.562.89 0 .89-1.953 1.774-1.953h.734c.077.36.446.978.74.894.078 0 .226-.09.226-.09-.595-1.513-2.147-2.48-2.147-4.516 0-2.3.228-5.135 2.218-5.135.655 0 1.185.533 1.551 1.16-.438-2.126-1.402-3.901-1.996-6.112-.146-.529-.665-1.512-.515-2.39v-2.125c-.516-1.246.072-2.127-.222-3.366zm14.023 24.698c.589 0 1.187-1.24 1.256-1.773-.153 0-1.034 0-1.18.533-.076.258.146.706-.076.706-.144 0-.144.534 0 .534zm-3.465.79c-.884 0-1.63 1.95-1.63 1.95 0 .09-.067.441 0 .441 1.036 0 1.036-1.773 2.735-1.773v-.619c-.297.093-.666 0-1.105 0zm-4.139 3.192l.118.114c.036-.008.074-.034.104-.034l-.222-.08zm-1.472 1.414c-.152.265-.219.788 0 .788.66 0 1.55-1.315 1.839-1.856l-.249-.232c-.577.078-1.31.802-1.59 1.3zm-10.631 2.652c-.145.62-1.327 1.243-1.327 2.216 0 .352.373.53.373.882v2.03h.428c.594-.707 1.195-.348 1.775-1.325-.285-.349-1.394-.349-1.394-1.235 0-1.5 1.25-.616 2.21-.616 0-.273.3-.626.513-.709 1.265.973 2 1.147 3.172 2.035.594-1.062 1.115-3.091 2.664-3.091 1.104 0 1.623-.268 2.291-.804-.294-.085-.89-.617-.89-1.148 0-.447.3-.618.446-1.07-.446-.344-.964.183-1.55.183-2.876 0-3.766-2.832-5.756-4.423-.147.264-.45.533-.45 1.152 0 .35.378.522.378.882 0 1.15-.519 4.6-1.778 4.6-.217 0-.519.086-.74 0l.156.177c-.23-.176-.375-.269-.521-.438v.702zm-8.343 19.737c-.664 0-1.103 2.736-2.36 2.736h-4.576c-1.926 0-2.588 2.226-4.137 3.457-.285.178-.957.353-.957.626 0 .344.523.344 1.034.344 1.55 0 2.876-.699 3.837-1.23.585-.363 1.036.081 1.625-.264.214-.099.296-.707.74-.707.888 0 1.33.528 2.22.794 0 .354-.23.97-.23 1.501 0 .263-.226.713 0 .713.52 0 .445.696 1.034.874.373-.874 1.258-2.298 1.77-2.298.22 0 .516 0 .74-.082-.076 0-.74-1.068-.74-1.42 0-.262.22-.706.448-.706.663 0 .595 1.505 2.134 1.505.594 0 1.034-.54 1.48-1.06h.737c0 .179.23.437.37.437.296-1.235.962-1.325 1.993-2.12-.07.615-.368.704-.07 1.412.881-.346.881-1.233 1.775-1.776-.158-.528-.377-.875-.377-1.68 0-1.139.817-1.677.817-2.478 0-.972-.225-3.713.508-3.976.22-.091.448.09.676-.178v-.527c0-1.152 1.027-1.333 1.027-2.748 0-1.242-1.027-1.856-1.027-3.095 0-.616.07-1.144-.151-1.767-.077-.27-.368-.445-.89-.445-.22 0-.077.803.149.803.077 0 .151.084.216.084-.886.882-.803-.267-.948-.267-.967 0-1.705 2.206-1.705 3.271 0 .444.29.444.29 1.062 0 2.834-2.503 6.553-4.055 7.175-.88.357-1.03 1.23-2.143 1.23-.143 0-.37-.256-.37-.442 0-.356.16-.702.37-.975-.21.097-1.182 2.217-1.254 2.217zm-7.964 10.795c.957 0 1.109-1.414 1.766-2.212.223.089.52.623 1.102.623.741 0 1.631-3.096 0-3.096-1.027 0-1.248 1.507-2.507 1.053 0 .094-1.395 1.339-1.395 1.339 0 .432.141.611.587.963-.077.448.069 1.33.447 1.33zm-6.797-.698c0 .439.372.97.737.97.225 0 .516-.36.887-.36-.147-.26 0-.529 0-.794.071.445.148.976.588 1.155l-.29 1.232s-.737 1.246-.737 1.43c0 .35.439 1.402 1.027 1.402v-.528c0 .27 0 .794.224.794 1.037 0 1.627-2.742 1.85-4.33.218.173.438 0 .66 0-.143-.273 0-.62 0-.89l-.66-.707c-.223 0-.077-.627-.077-.888-.886 0-1.332-.706-1.921-.706-.218 0-2.288 1.683-2.288 2.22zm-67.02 84.166l-.362.172h.068c.074.525 1.033 1.935 1.328 1.935.59 0-.582-1.765-1.034-2.107zm2.888 5.386h-.595v.352c0 .629.961 2.04 1.33 2.13.059-.878-.285-1.396-.735-2.044v-.438zm18.737 5.402c.446 0 .743-.529.823-1.064-.221-.085-.451-.44-.68-.44h-.728c-.074 0 0 .355 0 .44 0 .442.148 1.064.585 1.064zm-4.429-2.295c.077.266.375 1.231.522 1.231.297 0 .519.527.961.527h.512c-.07-.257-.07-.603-.07-.878-1.036 0-1.48-1.677-1.848-3.006-.521.083-1.549.704-1.549 1.148 0 .71 1.18.262 1.472.978zm10.483-56.12c0-.52-.508-1.321-.879-1.321-.96 0-3.472 2.208-4.065 2.208-.367 0 0 .8 0 1.335 0 1.148.514 1.761 1.631 1.761 1.1 0 3.313-2.745 3.313-3.983zm21.785-15.041c-1.035 0-2.592 3.453-2.592 5.304 0 1.329-.225 2.484 1.108 2.484 1.696 0 3.32-7.788 1.484-7.788zm.961 32.01c.13.157.53.093.672.019-.13-.154-.532-.092-.672-.02zm-.712 2.458c.274 0 .617-.916.494-1.537-.195-.929-.93-.792-1.73-1.423l-.674-.007s1.506 2.955 1.91 2.967zm5.37 1.413c.015-.991-.86-1.247-1.054-1.942l-.6-.02c-.011.318-.011.615-.022 1.158.336.01.603-.058.946.022-.01.382.726 1.174.73.782zm1.414 4.264c-.204.303-.537.142-.859-.022-.222.465-.632.685-.636 1.14 0 .161.26.391.395.391.605.027 1.093-.656 1.1-1.51zm-2.092.962h.329c.021-1.156.905-1.52.923-2.906-.21 0-.414-.004-.608-.004-.025 1.385-.434 1.998-.644 2.91zm-.633-3.02c-.34.072-.708 1.99-.716 2.214-.197 0-.602.219-.602.46-.01.533 1.184 2.027 1.453 2.03.128 0 .408-.228.408-.378.005-.468-.335-.32-.327-1.01.016-.928.767-1.52.784-2.443.003-.457-.321-1.097-1-.874zm-2.034-2.258c-.087-.12-.19-.25-.286-.258-.136 0-.418.216-.418.373-.005.701.247 2.168.224 3.479.609-.451 2.178-1.112 2.189-2.425.007-.587-1.18-.865-1.709-1.169zm5.786-1.505c-.534-.021-.933-.336-1.473-.348-.203 0-.401.226-.61.29.118.629 1.606 1.193 1.585 2.268 0 .166-.214.456-.341.456-.073 0-.543-.008-.882-.014l-.007.461c.069.226.531 1.02 1.004 1.024l-.013.46c-.273.452-.149 1.076.323 1.089.197 0 .403.01.605.01l.004-.465c-.262-.157-.526-.936-.576-1.547l1.006.011c.068-.304.206-.528.286-.988-.074 0-.525-.711-.525-.711s.07-.769.01-1.22c-.136-.012-.269-.012-.405-.012.074-.234.009-.537.009-.764zm-11.276-6.938c-.01.46 1.19 1.402 1.46 1.409.204.005.341-.302.484-.525l.397.004-.009.77c-.136.16-.407.378-.413.84-.013.393.52 1.09.987 1.102.408.012.684-.446 1.086-.44.943.016.983 1.711 1.93 1.735-.19-.626-.391-.943-.046-1.467.39.696 1.997 1.424 2.389 2.363.065.227.126.616.33.625.131.002.269-.306.274-.461 0-.23.005-.379.005-.613-.462-.01-.87-.324-.858-.947-.133.074-.47.145-.47-.002.007-.4.339-.456.415-.92-.131-.003-.263-.163-.394-.163-.278 0-.352.533-.617.521-.41-.004-.585-1.77-1.393-1.795-.398-.008-.742.29-.743.597-.005.078-.005.315-.01.38-.734-.398-1.646-2.343-1.628-3.495.015-1.61 1.231-1.733 1.258-3.436.018-1.308-.844-2.478-.823-3.48.005-.149-.134-.392-.134-.54.008-.081-.122-.322-.122-.385-.269.142-.485.753-.886.748-.605-.016-.453-1.394-1.197-1.416-.54-.002-.682.761-.684 1.525-.026.926.303 1.552.29 2.476-.008.697-.158 1.77-.436 2.3-.67-.17-.426 1.45-.442 2.69zm-3.736 16.236l.468.02c.817-.601 2.107-1.575 2.409-3.34.54.007 1.01-.135 1.156-.817.335 0 .41-.234.679-.449-.266-.317-.597-.484-.589-1.247-.203.219-.212.603-.352.988-.76 1.676-3.067 2.558-3.77 4.845zm15.729-3.053c-.063.229-.014 1.302-.22 1.844-.213.455-1.414.124-1.438 1.199-.403.063-.611.454-.623.993a8.479 8.479 0 0 0-.4-.01c-.471-.018-.319-1.244-1.193-1.253-1.21-.036-.904 1.678-2.318 1.642-.145.768-.42 1.219-.427 1.985-.006.238.261.546.253.773 0 .316-.564 1.77-.028 1.777.746.01.647-2.52 1.331-3.28 0 0 .466.626.662.706.067-.078.21-.384.21-.384.13.157.265.39.668.393-.058-.228.01-.459.016-.689l.935.03c.067.227.196.535.258.774-.203.138-.338.38-.348.91-.02 1.47.77 2.709 1.712 2.73.199.001.463.081.672-.052-.002.217.129.623.334.623.468.004.747-.455.749-1.07.011-.847-.789-1.092-.778-1.636 0-.455.339-.605.62-1.067.133.235.326.393.388.626l-.036-.186c.114.431.59 1.748.821 1.82.024-1.308.837-1.748.855-2.6.002-.69-1.078-5.257-1.6-5.893-.27-.302-.6-.697-1.075-.705zm111.377 67.67c0 .256.221.794.443.794.739 0 .958-.886 1.84-1.15v-.796c-.443 0-2.283.092-2.283 1.152zm-.373 3.263v-1.05c-.363-.084-.67-.36-.884-.795-.664.27-1.692.522-1.692 1.673 0 .361.955.538 1.552.538.582 0 .582.163 1.024-.366zm-.22 53.82c-1.187 0-1.103.887-2.506.887-1.77 0-2.736-1.327-2.736-3.634h-.436c-.374 0-.665.353-.665.884h-.443c-.375-.437-1.26-2.385-1.26-2.824 0-.269.224-.353.304-.63-.443-.262-.443-.878-.897-1.409-.732-.89-1.989-.972-2.8-2.475.446 2.12 1.47 5.04 3.176 5.397-.076.263-.225.617-.225.88 0 .709.586.976.813 1.682v-.055c.11.452.3 1.181.3 1.733 0 1.328-.149 2.57-.888 3.453-.376.444-1.039.53-1.039 1.422 0 1.59 2.733.878 2.733 2.653 0 1.066-.882 1.503-.882 2.567 0 .711.441 1.15 1.108 1.15 1.546 0 1.989-1.776 2.726-3.106.145-.259 1.032-1.138 1.032-1.76 0-.266-.293-.626-.293-.884 0-.708.737-.97 1.477-1.157.067 0 .14-.261.214-.261l.31.449c.734-1.336.432-3.198 1.47-4.428-.145-.272-.373-.534-.592-.534zm-9.446 10.355c-.364.176-.735.792-1.252.792-.446 0-.373-.616-.373-1.242-.225 0-.516-.266-.516-.871-.666.348-1.767 1.584-1.767 2.911 0 .179-.079.353-.079.534-.584.087-1.033.264-1.327.972-.078.261-.078.885-.078.885s-1.039 1.948-1.396 2.122c-1.255.707-2.362 2.926-4.14 2.926-.515 0-.886.53-1.177 1.149-.74 1.319-2.95 2.563-2.95 4.865 0 .177.22.351.366.351 0 .44 2.875 1.771 3.32 1.771.441 0 1.326.442 1.624.442.816 0 2.14-1.324 2.813-2.117 0 0 2.06-5.13 2.283-6.202.588 0 2.366-.442 2.72-.442.155-1.063-.212-1.408 0-2.743 1.194 0 2.66-3.275 2.887-4.426-.292-.174-.436-.622-.436-1.333-.233 0-.447-.08-.522-.344zm-43.99-45.668c-1.4-1.684-4.205-3.192-4.205-6.723-.961 0-2.14 0-2.436-1.154-.304-1.238-.45-2.921-1.333-3.983-1.249-1.506-4.43-2.302-5.021-4.424-.588-2.223-1.178-3.357-1.84-5.75-.37-1.429-.37-4.247-1.26-4.957-.292-.175-1.695-.713-2.434-.976-.815-.712-.442-2.304-.737-3.533-.449-1.693-1.404-3.282-1.621-5.677-1.257.8-.895 1.952-2.07 3.01v7.978c-.36 2.019-.816 7.249-3.099 7.249-1.403 0-1.77-1.95-2.803-2.392-1.843-.882-2.95-1.33-4.95-2.205-.29-.087-.29-1.424-.733-1.773-.433-.354-1.48-.18-1.48-.879l.892-4.431c.588-.533 1.688-.614 1.688-1.77 0-.713-1.03-1.602-1.469-1.602-.81 0-1.111.715-2.07.715-2.654 0-4.134-1.244-6.641-2.477.15.972.88 1.233 1.326 2.034-.219.08-.806.617-1.326.617-1.258 0-4.21.799-4.21 2.034 0 1.246-1.106 1.873-1.106 3.102 0 .801.222 1.416-.217 2.206-.153-.083-.74-.7-1.106-.7-.668 0-1.256.348-1.624.971-.154-1.59-.897-3.36-2.216-3.36-1.552 0-1.922 1.77-3.91 1.77-.155 2.036-1.624 2.385-1.624 4.866-.599 0-.962-.353-1.549-.708-.376.976 0 2.298-.814 2.916-.3-.618-.736-.97-1.115-1.764-.734.438-.958 1.314-.958 2.213v1.498c0 3.016-6.042 5.487-8.706 6.024-1.401.26-4.063.438-4.947 1.507-.807.96-2.512 3.178-3.904 3.36 0-.269 0-.625-.082-.888-.298.18-.813.354-.813 1.07v5.121c0 2.21.895 3.28.895 4.607 0 .442.207.797 0 1.147-.224-.264-.525-.705-.668-1.147-.227.442-.3.797-.449 1.147-.36 1.33 1.117 1.776 1.478 3.106.964 3.451 1.187 4.691 2.064 8.588.378 1.586 1.48 3.007 1.48 5.572 0 2.036-1.692 2.654-1.692 3.982 0 1.234 3.544 3.09 4.797 3.09 3.316 0 4.422-2.91 7.009-2.91.884 0 .884-.713 2.067 0 1.62 0 2.88-.455 4.427-.632.587-4.507 5.237-2.914 9-4.422 1.63-.616 2.145-2.026 4.799-2.026 2.436 0 6.793.876 7.974 2.65.586.977 2.22 5.312 2.73 5.312 0 0-.294 1.594.59 1.594 1.55 0 3.4-4.602 4.73-6.203.066 1.33-.3 5.933-2.15 6.38 0 .445.375.878.745.878 1.104 0 1.182-1.584 1.851-1.945 0-.272.144-.613.144-.88.291.348.733.701.733 1.77 0 .888-.302 1.406-.521 1.941h.888c.593-.17.962-.267 1.472-.616 0 .081.078.446.078.446.076 1.145 1.038 2.208 1.038 3.534 0 3.63 4.72 5.926 7.598 5.926 1.85 0 1.267-1.765 2.954-1.947.075.538 3.1 2.562 3.688 2.664.59-4.255 6.641-2.387 7.46-6.463v.172c0-3.099 1.552-5.835 2.14-7.967.743-2.826 2.072-3.712 3.399-6.192.367-.701.147-1.054.516-1.765v-2.48c.659-.799 1.1-3.541 1.1-5.484 0-2.658-.738-7.448-1.919-9.301l.078-.261zm-45.614-34.432h.733v-1.322c-1.1-.08-1.618.093-2.951.443.298.358 1.333.879 2.218.879zm11.59 64.872c.664.8 1.77.625 2.582 0-1.04-.62-1.18-.793-2.583 0zm24.726 13.007c.075-.436.223-.612.223-1.494-.223.086-.595.086-.96 0 0 .704.063 1.237.737 1.494zm-3.697 1.77c-.069 0-4.054-1.414-4.054 0 0 1.867 2.44 8.408 4.644 8.408 1.485 0 3.474-4.679 3.474-6.63 0-1.064-.588-1.585-.816-2.648-1.04.348-2.287.87-3.248.87zm21.333-93.359l.37.268c0 .079-.298.079-.37.079l1.108.885h.666c-.447-.794-.959-.527-1.774-1.232zm3.472 2.476h-.146c0 .971 1.695 1.68 2.284 1.68.222 0 .445-.087.59-.178-.441-.794-1.919-1.33-2.585-1.769l-.143.267zm4.357 1.863c.077.696 1.399 2.814 2.14 2.814-.377-1.315-1.111-2.118-2.14-2.814zm-.372 3.453c0 1.054 1.18 1.402 2.062 1.402.079 0 .3-.169.376-.169-.523-.89-1.259-1.233-2.438-1.233zm3.245 1.41c-.068.526.444 1.85 1.184 1.85-.074-.172 0-.346 0-.52 0-.712-.592-.887-1.184-1.33zm-14.246-11.858c-.143.892.157 1.78 1.035 1.946v.71c0 .268.225.616.445.616.216 0 .517-.441.517-.711 0-.267-1.548-2.215-1.997-2.561zm-4.794-4.697c-.815-.97-1.475-2.034-2.88-2.562.221.71.738.615 1.329 1.067.955.696.816 1.687 1.776 2.208-.151.877-.151 1.511.74 1.686.138.168.289 0 .435 0-.067-.175 0-.452 0-.626 0-1.236-.808-1.06-1.4-1.773zm-12.328 5.757c-1.77-1.06-1.697-3.453-4.062-4.337-.366-.087-.96-.174-.96-.883-.88 0-1.323-1.24-2.21-1.24-1.644 0-3.907-.91-5.017-1.857v-.097c-.034-.01-.098-.029-.147-.048-.073-.068-.16-.14-.22-.215l.163.2c-.371-.117-.966-.359-1.275-.723h-2.002c-.432-.275-1.02-1.332-1.914-1.68-.22-.099-.808 0-.874-.451-.885.178-1.777 1.769-2.443 2.038-1.03.36-1.182.45-1.768 1.152-.148.177-.818 1.496-1.326 1.496-.45 0-1.48-1.4-1.48-1.769-.665 0-1.11-.345-1.11-.786v-3.186c-1.329-.358-2.294-1.769-3.545-1.769-1.327 0-1.842 1.504-2.728 1.504-.446 0-1.035.265-1.035.786 0 1.248 1.775.712 2.292 1.958.067.262.223.707.446.792.361.088.657.271 1.025.271.816 0 1.33-.09 2.139-.356h.518c-.518 1.06-2.728.88-3.761 1.502.146.71.957.346 1.326 1.053.368.712 0 1.07.368 1.957.072.264.517.264.74.264.59 0 .886-.885 1.11-1.592v.796c1.174-.446 1.628 1.856 2.732 1.856 1.179 0 3.171.444 3.986.882.737.45 2.807 1.422 3.09 2.482.376 1.327-.068 2.572.973 3.805-.45.267-1.85.711-1.85 1.769 0 .71.662.71 1.175.71h1.56c0-.443.806-.532 1.104-.532 1.911 0 2.43 2.748 4.347 2.748h2.813c0-.628.66-.975.366-2.132 1.038-.616.885-2.206 2.731-2.206 2.443 0 3.765 2.47 5.241 4.245.146.177.735.342.735.713 0 .966 1.698 1.938 2.808 2.204h1.922c.147.18 1.252 1.067 1.398 1.067h.439c0-.62.518-1.067.963-1.42-.214-.087-1.331.087-1.47-.35-.154-.355-.298-.89-.743-1.063-.29-.085-.73.27-.88-.17-.154-.363-.373-.981-.595-.981-.521 0-1.402-.444-1.618-.882-.595-1.06-.447-1.684-1.184-2.574-.146-.172-1.407-1.673-1.407-2.123 0-.794 1.407-.435 1.407-1.412 0-1.951-1.551-.97-2.293-1.416zm3.693-.79c.198 1.026 1.283.923 1.936 1.535.02.015.021.027.044.05.056.052.116.109.163.177l-.14-.16c.324.282.884.604 1.096.604 1.546 0 2.211-.97 3.543-1.325 0-1.599 1.553-1.238 1.553-3.109 0-.522-.223-1.319-.662-1.319-1.04 0-.598 1.946-1.63 2.564-.663.344-1.77.265-2.88.713 0 0-.664.346-.812.27h-2.211zm-43.915-19.832c-.592.36-.663 1.071-.663 1.775 0 1.159.588 1.503.588 2.47v1.155c0 .531.22 1.681.956 1.681-.37-.614-.521-.97-.81-1.5v-.623c.585 0 1.397-.094 1.697-.177-.073-.71-.59-.882-.59-1.335 0-.512.74-.608.74-1.143-1.262-.356-1.773-1.06-1.918-2.303zm.291 14.066s1.033.363 1.33.363h1.7c1.032 0 1.545.884 2.582.884.148 0 .44 0 .44-.172 0-.712-.81-.893-.885-1.597l-.224.09c-.44 0-.954.26-1.102-.364h-3.325c-.142.188-.516.363-.516.796zm-3.83 0c0 .714.876 1.684 1.318 1.684.227 0 .748-.97.748-1.144 0-.885-2.065-1.6-2.065-.54zm18.225 6.728c0-.614-.144-.255-.295-.962-.515.076-.442.88-.442 1.51 0 .514-.741.607-.741 1.492 0 .27.214.709.438.709.597 0 .452-.978.452-1.87.365 0 .588-.332.588-.88zm-20.369 8.86c1.176 0 3.614-.711 4.355-2.042-.665-.516-3.918-.168-4.653.718-.145.172-.145.699-.372.792-1.104.434-2.507.434-2.507 2.384 0 .366.226.8.518.8.81 0 2.068-1.06 2.433-1.503.226-.27-.146-1.148.226-1.148zM596 309.58h-.666v.892c0 .263.373.614.596.614.365 0 .663-.35.743-.886-.295-.172-.295-.62-.673-.62zm7.976 2.564h-.74c-.518 0-1.4-.17-1.4.547 0 .872 1.188.963 1.917.963 0 .266.072 1.148.44 1.148h.3c.223 0 .587-.344.587-.621 0-1.057-1.104-.798-1.104-2.037zm-4.21-2.479c0 .269-.073.454-.073.711-.364-.179-.739-.348-1.401-.348-.67 0-1.26-.094-1.26.877 0 .355.891.625 1.479.625.74 0 1.04-.536 1.78-.884l.584.348h.663c-.146-.172 0-.618 0-1.329h-1.772zm7.977 1.42c.955-.35 1.614-.613 2.135-1.762-.662.342-1.03.877-2.135.877-1.113 0-1.624-.62-2.956-.62-.517 0-1.334-.093-1.334.62 0 .969 1.11.886 1.627.886h2.663zm-15.503-1.157c.889 0 .815.62 1.549.62.15 0 .667-.62.806-.968-.513-.257-.513-.53-1.175-.808-.662-.259-1.253.46-1.766-.164-.149-.17-.149-.795-.605-.795-1.324 0-2.28-.193-3.086-1.153.145.08 2.655-.178 2.732-.618h-.592l-2.217.348c-1.337 0-1.85-1.592-3.326-1.592-.879 0-1.1 1.327-2.213 1.327-2.431 0-3.395-2.828-5.607-2.828-.447 0-.739.533-1.18.533-.22 0-.373-.361-.594-.361-.443 0-1.77 1.599-1.845 1.862 1.109 0 1.706 1.059 2.44 1.943.732.896 1.843 0 2.945.454 1.484.52 2.667.612 4.065.612.733 0 .964 1.15 1.847 1.15 2.88 0 5.389.175 7.822 1.332-.073-.273-.22-.894 0-.894zm14.162-22.389c1.257 0 1.779-.34 2.814-.34.955 0 1.623.602 2.583.602 1.477 0 1.99-1.493 2.212-2.823.226 0 .293-.44.37-.711h-.442c-.898.711-1.92 1.505-2.36 2.041h-.596l-5.162-1.07c-1.918 0-2.8 2.934-2.8 5.046 0 .534-.595.971-.668 1.335-.517 2.033-1.328 2.834-1.328 4.774 0 1.062 1.023 1.062 1.474 1.147v4.249c0 .53.588 1.147 1.174 1.147.823 0 1.114-3.096 1.114-3.532 0-1.153-.657-1.767-.657-2.922 0-.622.586-1.064 1.106-1.064.214 0 .367.088.585 0l-.297 1.863c0 1.144 1.183 1.59 1.183 2.737 0 .261.076.534 0 .797h.952c0-.975 1.628-.876 1.628-1.855-.296-.09-1.03-1.06-1.03-1.596 0-.18.224-.347.292-.526-.434-.269-1.842-3.448-1.842-3.716 2.061 0 2.21-1.947 3.912-2.565v-.709c-.448-.092-4.357 1.327-4.432 1.584l.158-.352c-.3.447-.375.886-.82.886-1.11 0-1.549-1.682-1.549-3.004 0-1.763 1.178-1.423 2.426-1.423zm-25.969-1.056c0 .437.74 3.62 1.103 3.712.376.089.81.089.96.536 0 .087-.074.352-.074.444.963 1.77-.222 4.87 2.512 4.87.593 0 .958-.542 1.554-.446.061.346 0 1.324.143 1.324.219 0 .366.44.587.44.89 0 1.254-.967 1.843-.967 1.257 0 2.071 1.05 3.251 1.42 0 .532.219 1.234.955 1.234.963 0 1.111-1.062 2.296-1.419 0-.979.881-2.29.881-3.011 0-.438-.363-.616-.363-1.23 0-.536.732-1.863 1.618-2.04 0-1.502.594-2.034.967-3.983l.36-.884c.225-.092.526-.175.743-.175.803 0 1.4.432 1.623-.888-1.326 0-3.323-4.423-3.323-5.755 0-.265.291-.536.517-.619-.075-.27-.226-.53-.293-.8 0 0 1.998-.968 2.14-1.237-.142 0-.293-.262-.293-.444 0-.79 1.63-.263 1.63-1.063 0-1.768-3.104-.704-3.104-2.562 0-1.325.14-2.21-1.115-2.21-1.177 0-2.805 3.359-3.395 4.772-.29.712-1.989.273-2.65 1.063-.154.182-.225.626-.457.713-.354.17-.283.355-.731.62 0 0-.801.712-.511 1.063-.597.704-.597 1.593-1.7 1.858-.808.178-1.558.178-2.07.788-1.026 1.249-.738 3.993-3.02 3.993-1.03 0-2.584-.622-2.584.883zm-6.87 15.576c0-.888-.366-2.12.38-2.474v-3.814c0-.888-1.043-1.151-1.483-1.674-.812-.975-1.701-1.5-1.701-3.366-.812 0-1.398-.264-1.398-1.415l.294-.884c-.15-.357-.377-.8-.666-.8h-.582c0-.093.136-.358.136-.433 0-1.333-1.253-1.777-2.36-2.22-2.07-.805-2.878-1.944-4.282-3.63-.733-.887-1.255-1.95-2.358-2.388-.296-.087-.668 0-.806-.445-.597-1.412-1.117-2.741-2.735-3.36h-2.432c-.599-.358-.743-.802-1.48-.802h-.443v.712c.219.89 1.4 3.365 1.994 3.544.662.166 1.401 0 1.69.79.452 1.062.671 1.597 1.11 2.656.517 1.238 2.216.887 2.733 2.922.147.716.66 2.823 1.034 3.097.213.18 1.106.27 1.178.45.15.265 0 .791.226.791.218 0 1.103 1.764 1.248 2.211.815 2.035 1.407 3.63 2.88 5.396 1.327 1.592 2.667 2.3 4.056 3.983.079.083 1.41 2.39 1.773 2.39.518 0 1.993-.263 1.993-1.237zm-54.76-30.803c0 1.24.81 2.478 1.851 2.478 1.39 0 2.353-2.028 2.353-3.629 0-2.824-2.14-3.895-3.176-6.012 0 2.655-1.028 4.6-1.028 7.163zm-61.555 57.352v1.327c-.375-.175-1.116-.437-1.26-.437 0 6.446-1.693 10.885-3.322 15.922-1.323 3.992-1.993 9.908-6.49 9.908-1.851 0-3.47-2.56-3.47-4.855 0-1.148.218-1.598.147-2.215-.886-.796-.886-2.21-.886-3.542 0-.349 1.328-1.775 1.481-1.775 0 0 1.474-3.807 1.474-3.977 0-.972-1.115-3.187-1.115-4.608 0-4.334 2.662-4.064 4.8-5.57 1.697-1.155 3.984-4.518 5.172-5.933.37-.438.139-1.943.438-2.65 2.51.353 2.292 6.105 3.03 8.405z"/>
</svg>
