<svg xmlns="http://www.w3.org/2000/svg" width="106" height="56" viewBox="0 0 106 56">
    <g fill="none" fill-rule="evenodd">
        <g fill-rule="nonzero">
            <g>
                <g>
                    <g transform="translate(-667 -207) translate(520 183) translate(24 24) translate(123)">
                        <ellipse cx="53" cy="52.5" fill="#F2F6FA" rx="53" ry="3.5"/>
                        <path fill="#E2ECFD" d="M92.963 50.57v2.808c0 .221-.079.435-.22.604-.159.19-.368.33-.604.405-.077.025-.157.044-.237.056-.075.012-.151.018-.227.018h-53.23c-.686 0-1.252-.458-1.289-1.028v-2.862-.055c.036-.57.601-1.026 1.289-1.026h53.23c.076 0 .152.006.227.018.08.011.16.03.237.054.236.075.445.215.604.405.14.17.218.383.22.604z"/>
                        <path fill="#E2ECFD" d="M66.82 54.46H38.298c-.594.014-1.096-.435-1.148-1.027v-2.862-.055c.053-.59.555-1.04 1.148-1.026h25.02c.533 2.024 1.776 3.788 3.502 4.97z" style="mix-blend-mode:multiply"/>
                        <g style="mix-blend-mode:multiply" fill="#E2ECFD">
                            <path d="M29.234.155H30.234V5.126H29.234zM27.185.155H28.185V5.126H27.185zM24.729.155H25.729V5.126H24.729zM20.964.155H21.964V5.126H20.964zM16.983.155H17.983V5.126H16.983zM10.879.155H11.879V5.126H10.879zM5.166.155H6.166V5.126H5.166zM.063.155H1.063V5.126H.063zM31.183.155H32.183V5.126H31.183zM32.472.155H33.472V5.126H32.472zM33.715.155H34.715V5.126H33.715z" transform="translate(56.647 49.335)"/>
                            <path d="M35.255.172v4.936c-.075.011-.15.017-.227.018h-.377V.16h.377c.076-.002.152.002.227.011zM36.096.631v4.016c-.158.19-.368.33-.604.404V.227c.236.074.446.214.604.404z" transform="translate(56.647 49.335)"/>
                        </g>
                        <path fill="#E2ECFD" d="M87.271 45.602v2.806c-.001.22-.08.434-.22.604-.159.19-.369.331-.605.406-.077.024-.155.043-.235.054-.075.012-.151.018-.227.018h-53.24c-.686 0-1.251-.457-1.288-1.026v-2.862-.057c.035-.568.6-1.026 1.288-1.026H86.211c.08.012.159.031.235.056l.034.012.032.011.065.026.037.018.034.016.06.032.065.042.05.034c.012.007.022.015.032.024.034.024.065.05.094.08l.026.024.025.028c.016.018.033.035.047.055.147.174.227.396.224.625z"/>
                        <path fill="#E2ECFD" d="M61.128 49.496H32.606c-.594.014-1.096-.435-1.149-1.026v-2.868-.057c.053-.59.555-1.04 1.149-1.026h25.018l.036.123c.547 1.976 1.776 3.696 3.468 4.854z" style="mix-blend-mode:multiply"/>
                        <g style="mix-blend-mode:multiply" fill="#E2ECFD">
                            <path d="M29.179.016H30.179V4.987H29.179zM27.13.016H28.13V4.987H27.13zM24.674.016H25.674V4.987H24.674zM20.91.016H21.91V4.987H20.91zM16.929.016H17.929V4.987H16.929zM10.824.016H11.824V4.987H10.824zM5.111.016H6.111V4.987H5.111zM.008.016H1.008V4.987H.008zM31.128.016H32.128V4.987H31.128zM32.417.016H33.417V4.987H32.417zM33.661.016H34.661V4.987H33.661z" transform="translate(51.009 44.503)"/>
                            <path d="M35.202.034v4.935c-.076.012-.152.018-.229.018h-.377V.017h.377c.077 0 .153.005.23.017zM36.041.495V4.51c-.158.19-.368.332-.604.406V.09c.237.073.447.214.604.405z" transform="translate(51.009 44.503)"/>
                        </g>
                        <path fill="#E2ECFD" d="M90.022 40.753v2.808c-.002.22-.08.433-.22.604-.159.19-.369.33-.605.404-.077.026-.156.044-.236.056-.076.012-.151.017-.227.017H35.495c-.204 0-.407-.041-.594-.123-.365-.142-.628-.468-.69-.855v-.049V40.753v-.055c.034-.57.6-1.026 1.29-1.026h53.233c.076 0 .151.006.227.018.08.011.16.03.236.055.236.074.446.214.604.404.14.17.219.383.221.604z"/>
                        <path fill="#E2ECFD" d="M63.88 44.642H35.356c-.184 0-.365-.042-.53-.123-.339-.16-.571-.483-.615-.855v-.049V40.753v-.055c.053-.59.555-1.04 1.148-1.026h25.016c.515 1.952 1.691 3.665 3.328 4.847l.175.123z" style="mix-blend-mode:multiply"/>
                        <g style="mix-blend-mode:multiply" fill="#E2ECFD">
                            <path d="M29.192.002H30.192V4.973H29.192zM27.143.002H28.143V4.973H27.143zM24.687.002H25.687V4.973H24.687zM20.923.002H21.923V4.973H20.923zM16.941.002H17.941V4.973H16.941zM10.837.002H11.837V4.973H10.837zM5.124.002H6.124V4.973H5.124zM.021.002H1.021V4.973H.021zM31.141.002H32.141V4.973H31.141zM32.43.002H33.43V4.973H32.43zM33.673.002H34.673V4.973H33.673z" transform="translate(53.747 39.67)"/>
                            <path d="M35.213.02v4.935c-.075.01-.15.016-.227.016h-.377V0h.377c.076 0 .152.006.227.02zM36.054.483v4.011c-.158.19-.368.33-.604.404V.066c.238.078.448.223.604.417z" transform="translate(53.747 39.67)"/>
                        </g>
                        <path fill="#E2ECFD" d="M91.298 35.784v2.806c-.003.22-.08.434-.22.604-.16.19-.37.332-.606.406-.077.025-.156.043-.236.055-.075.011-.15.017-.227.017H36.77c-.686 0-1.251-.457-1.288-1.026v-2.862-.057c.03-.526.517-.956 1.127-1.018H90.01c.075 0 .151.007.226.018.08.012.16.03.236.057.237.072.447.213.605.404.139.168.217.378.22.596z"/>
                        <path fill="#E2ECFD" d="M65.155 39.67H36.633c-.594.014-1.096-.434-1.149-1.025V35.784v-.057c.045-.54.472-.97 1.012-1.018.045-.002.091-.002.137 0H61.65c.535 2.02 1.779 3.782 3.504 4.962z" style="mix-blend-mode:multiply"/>
                        <g style="mix-blend-mode:multiply" fill="#E2ECFD">
                            <path d="M29.178.024H30.178V4.993H29.178zM27.13.024H28.13V4.993H27.13zM24.674.024H25.674V4.993H24.674zM20.91.024H21.91V4.993H20.91zM16.928.024H17.928V4.993H16.928zM10.824.024H11.824V4.993H10.824zM5.109.024H6.109V4.993H5.109zM.006.024H1.006V4.993H.006zM31.128.024H32.128V4.993H31.128zM32.415.024H33.415V4.993H32.415zM33.659.024H34.659V4.993H33.659z" transform="translate(55.036 34.677)"/>
                            <path d="M35.2.042v4.935c-.075.012-.15.018-.227.018h-.378V.025h.378c.076 0 .152.005.228.017zM36.041.503V4.51c-.158.191-.368.332-.605.405V.082c.238.078.449.224.605.42z" transform="translate(55.036 34.677)"/>
                        </g>
                        <path fill="#E2ECFD" d="M87.384 30.821v2.808c-.003.22-.08.433-.221.604-.159.19-.37.33-.606.404-.076.025-.155.043-.235.055-.024.005-.049.008-.074.01H32.855c-.686 0-1.251-.456-1.288-1.027V30.821v-.055-.046c.051-.458.446-.836.966-.948l.039-.008c.092-.016.185-.024.279-.024h53.47c.08.012.158.031.235.057.236.073.447.214.605.404.145.174.223.394.223.62z"/>
                        <path fill="#E2ECFD" d="M61.24 34.71H32.719c-.593.013-1.095-.436-1.148-1.027V30.821v-.055-.046c.06-.478.42-.863.892-.954l.049-.01c.067-.01.136-.016.204-.016h25.022l.01.034c.536 2.005 1.77 3.752 3.48 4.927l.014.008z" style="mix-blend-mode:multiply"/>
                        <g style="mix-blend-mode:multiply" fill="#E2ECFD">
                            <path d="M29.291.056H30.291V5.027H29.291zM27.243.056H28.243V5.027H27.243zM24.787.056H25.787V5.027H24.787zM21.022.056H22.022V5.027H21.022zM17.041.056H18.041V5.027H17.041zM10.937.056H11.937V5.027H10.937zM5.222.056H6.222V5.027H5.222zM.119.056H1.119V5.027H.119zM31.241.056H32.241V5.027H31.241zM32.528.056H33.528V5.027H32.528zM33.772.056H34.772V5.027H33.772z" transform="translate(51.009 29.684)"/>
                            <path d="M35.313.072v4.936c-.075.012-.15.017-.227.018h-.378V.055h.378c.076 0 .152.006.227.017zM36.154.533v4.014c-.158.191-.369.332-.606.406V.13c.237.073.448.213.606.404z" transform="translate(51.009 29.684)"/>
                        </g>
                        <path fill="#E2ECFD" d="M87.27 25.886v2.807c0 .221-.078.435-.22.604-.158.19-.368.33-.604.404-.06.02-.121.036-.183.047l-.05.01c-.076.011-.151.016-.227.016H32.744c-.054 0-.107-.003-.16-.01-.022 0-.043-.003-.064-.008-.578-.087-1.026-.504-1.056-1.008v-2.862-.055c.035-.57.6-1.026 1.288-1.026H86.211c.08.011.158.03.235.054l.034.012.032.013.065.025.07.034.06.032.066.04.05.036.032.024c.033.025.064.052.094.08l.026.027c.007.009.016.018.025.025l.047.055c.146.175.225.396.224.624z"/>
                        <path fill="#E2ECFD" d="M61.128 29.774h-28.59c-.024.002-.048.002-.072 0-.54-.05-.964-.479-1.009-1.018v-2.87-.055c.053-.591.555-1.04 1.149-1.026h25.018l.036.122c.543 1.954 1.751 3.656 3.416 4.813l.052.034z" style="mix-blend-mode:multiply"/>
                        <g style="mix-blend-mode:multiply" fill="#E2ECFD">
                            <path d="M29.179.114H30.179V5.083H29.179zM27.13.114H28.13V5.083H27.13zM24.674.114H25.674V5.083H24.674zM20.91.114H21.91V5.083H20.91zM16.929.114H17.929V5.083H16.929zM10.824.114H11.824V5.083H10.824zM5.111.114H6.111V5.083H5.111zM.008.114H1.008V5.083H.008zM31.128.114H32.128V5.083H31.128zM32.417.114H33.417V5.083H32.417zM33.661.114H34.661V5.083H33.661z" transform="translate(51.009 24.69)"/>
                            <path d="M35.202.132v4.936c-.076.011-.152.017-.229.017h-.377V.115h.377c.077 0 .153.005.23.017zM36.041.593v4.014c-.157.19-.367.331-.604.404V.18c.237.076.447.22.604.414z" transform="translate(51.009 24.69)"/>
                        </g>
                        <path fill="#E2ECFD" d="M90.022 21.039v2.806c-.002.22-.08.433-.22.604-.159.19-.368.331-.605.406-.077.025-.156.043-.236.054-.076.012-.151.018-.227.018H35.495c-.204.001-.407-.04-.594-.122-.365-.143-.627-.469-.69-.856v-.048-2.862-.057c.034-.568.6-1.026 1.29-1.026h53.233c.076 0 .151.006.227.018.08.012.16.03.236.056.237.074.447.214.604.405.14.17.219.383.221.604z"/>
                        <path fill="#E2ECFD" d="M63.88 24.927H35.356c-.184 0-.365-.041-.53-.122-.339-.16-.571-.484-.615-.856v-.048-2.862-.057c.053-.59.555-1.04 1.148-1.026h25.016c.515 1.953 1.69 3.666 3.328 4.849l.175.122z" style="mix-blend-mode:multiply"/>
                        <g style="mix-blend-mode:multiply" fill="#E2ECFD">
                            <path d="M29.192.1H30.192V5.071H29.192zM27.143.1H28.143V5.071H27.143zM24.687.1H25.687V5.071H24.687zM20.923.1H21.923V5.071H20.923zM16.941.1H17.941V5.071H16.941zM10.837.1H11.837V5.071H10.837zM5.124.1H6.124V5.071H5.124zM.021.1H1.021V5.071H.021zM31.141.1H32.141V5.071H31.141zM32.43.1H33.43V5.071H32.43zM33.673.1H34.673V5.071H33.673z" transform="translate(53.747 19.858)"/>
                            <path d="M35.213.116v4.935c-.075.012-.15.018-.227.018h-.377V.1h.377c.076 0 .152.006.227.017zM36.054.577V4.59c-.158.19-.368.331-.604.406V.164c.237.077.447.22.604.413z" transform="translate(53.747 19.858)"/>
                        </g>
                        <path fill="#E2ECFD" d="M94.373 16.068v2.807c-.003.221-.08.434-.22.604-.16.19-.369.33-.605.405-.077.025-.156.044-.237.056-.075.011-.15.017-.227.016H39.846c-.688 0-1.253-.456-1.288-1.026v-2.862-.055c.032-.527.518-.957 1.127-1.018.051-.003.102-.003.153 0h53.246c.076 0 .152.006.227.018.08.011.16.03.237.054.236.075.446.215.604.405.139.168.217.378.22.596z"/>
                        <path fill="#E2ECFD" d="M68.23 19.956H39.708c-.594.014-1.096-.435-1.149-1.026v-2.862-.055c.044-.541.473-.971 1.013-1.018.046-.003.092-.003.137 0h25.017c.535 2.02 1.779 3.781 3.504 4.961z" style="mix-blend-mode:multiply"/>
                        <g style="mix-blend-mode:multiply" fill="#E2ECFD">
                            <path d="M29.194.122H30.194V5.093H29.194zM27.145.122H28.145V5.093H27.145zM24.689.122H25.689V5.093H24.689zM20.924.122H21.924V5.093H20.924zM16.942.122H17.942V5.093H16.942zM10.839.122H11.839V5.093H10.839zM5.126.122H6.126V5.093H5.126zM.023.122H1.023V5.093H.023zM31.143.122H32.143V5.093H31.143zM32.432.122H33.432V5.093H32.432zM33.675.122H34.675V5.093H33.675z" transform="translate(58.096 14.865)"/>
                            <path d="M35.215.14v4.936c-.075.01-.151.016-.227.016h-.377V.122h.377c.076 0 .152.006.227.018zM36.056.6v4.015c-.159.19-.368.33-.604.404V.195c.236.074.445.214.604.404z" transform="translate(58.096 14.865)"/>
                        </g>
                        <path fill="#E2ECFD" d="M87.384 11.107v2.806c-.003.22-.08.433-.221.604-.158.19-.369.331-.606.404-.076.025-.155.044-.235.056l-.074.01H32.855c-.686 0-1.251-.458-1.288-1.026v-2.854-.057c.034-.568.599-1.026 1.288-1.026h53.308c.054 0 .108 0 .16.016.08.012.16.03.236.055l.113.042.066.03.064.034h.011l.058.036c.045.028.088.059.128.093l.037.032.022.02.039.038.052.06c.15.174.233.396.235.627z"/>
                        <path fill="#E2ECFD" d="M61.24 14.995H32.719c-.593.013-1.095-.435-1.148-1.026v-2.862-.057c.057-.588.558-1.032 1.148-1.018h25.02c.009.039.02.076.031.115.547 1.972 1.771 3.69 3.459 4.848h.013z" style="mix-blend-mode:multiply"/>
                        <g style="mix-blend-mode:multiply" fill="#E2ECFD">
                            <path d="M29.291.153H30.291V5.124H29.291zM27.243.153H28.243V5.124H27.243zM24.787.153H25.787V5.124H24.787zM21.022.153H22.022V5.124H21.022zM17.041.153H18.041V5.124H17.041zM10.937.153H11.937V5.124H10.937zM5.222.153H6.222V5.124H5.222zM.119.153H1.119V5.124H.119zM31.241.153H32.241V5.124H31.241zM32.528.153H33.528V5.124H32.528zM33.772.153H34.772V5.124H33.772z" transform="translate(51.009 9.871)"/>
                            <path d="M35.313.17v4.936c-.075.012-.15.018-.227.018h-.378V.16h.378c.076-.002.152 0 .227.01zM36.154.631v4.015c-.158.19-.369.331-.606.404V.226c.237.074.448.215.606.405z" transform="translate(51.009 9.871)"/>
                        </g>
                        <path fill="#E2ECFD" d="M91.298 6.25v2.816c-.003.22-.08.433-.22.604-.16.187-.37.324-.605.396-.076.025-.155.044-.235.056-.075.011-.151.017-.227.016H36.77c-.199.005-.396-.031-.58-.106-.376-.14-.646-.47-.707-.866V9.12 6.25v-.055c.03-.526.517-.957 1.127-1.018.05-.006.1-.008.151-.008H90.01c.076 0 .152.006.227.018.08.012.159.03.236.055.236.073.446.214.605.404.14.17.218.383.22.604z"/>
                        <path fill="#E2ECFD" d="M65.155 10.139H36.633c-.178 0-.354-.039-.514-.115-.348-.158-.588-.487-.632-.866v-.046V6.25v-.055c.045-.54.472-.97 1.012-1.018.045-.006.091-.008.137-.008H61.65v.008c.517 1.957 1.697 3.673 3.34 4.855.053.03.107.07.164.107z" style="mix-blend-mode:multiply"/>
                        <g style="mix-blend-mode:multiply" fill="#E2ECFD">
                            <path d="M29.178.13H30.178V5.101H29.178zM27.13.13H28.13V5.101H27.13zM24.674.13H25.674V5.101H24.674zM20.91.13H21.91V5.101H20.91zM16.928.13H17.928V5.101H16.928zM10.824.13H11.824V5.101H10.824zM5.109.13H6.109V5.101H5.109zM.006.13H1.006V5.101H.006zM31.128.13H32.128V5.101H31.128zM32.415.13H33.415V5.101H32.415zM33.659.13H34.659V5.101H33.659z" transform="translate(55.036 5.039)"/>
                            <path d="M35.2.147v4.937c-.075.01-.15.016-.227.016h-.378V.13h.378c.076 0 .152.005.228.017zM36.041.607v4.016c-.158.19-.368.33-.604.404V.203c.236.074.446.214.604.404z" transform="translate(55.036 5.039)"/>
                        </g>
                        <path fill="#E2ECFD" d="M92.963 1.289v2.806c0 .22-.079.434-.22.604-.158.19-.368.331-.604.404-.077.026-.157.045-.237.057l-.074.01H38.444c-.685 0-1.25-.458-1.288-1.027V1.29v-.057c.036-.568.601-1.026 1.289-1.026h53.23c.076 0 .152.006.227.018.08.011.16.03.237.055.236.076.446.218.604.41.14.169.218.38.22.6z"/>
                        <path fill="#E2ECFD" d="M66.82 5.177H38.298c-.59.01-1.089-.437-1.142-1.026V1.29v-.057c.053-.588.551-1.036 1.142-1.026h25.02c.53 2.02 1.77 3.782 3.491 4.963l.011.008z" style="mix-blend-mode:multiply"/>
                        <g style="mix-blend-mode:multiply" fill="#E2ECFD">
                            <path d="M29.234 0H30.234V4.971H29.234zM27.185 0H28.185V4.971H27.185zM24.729 0H25.729V4.971H24.729zM20.964 0H21.964V4.971H20.964zM16.983 0H17.983V4.971H16.983zM10.879 0H11.879V4.971H10.879zM5.166 0H6.166V4.971H5.166zM.063 0H1.063V4.971H.063zM31.183 0H32.183V4.971H31.183zM32.472 0H33.472V4.971H32.472zM33.715 0H34.715V4.971H33.715z" transform="translate(56.647 .206)"/>
                            <path d="M35.255.018v4.935c-.075.012-.15.018-.227.018h-.377V0h.377c.076 0 .152.006.227.018zM36.096.483v4.01c-.158.19-.368.33-.604.404V.072c.237.076.447.219.604.411z" transform="translate(56.647 .206)"/>
                        </g>
                        <path fill="#1C4EA8" d="M51.953 47.061c9.882-9.881 9.882-25.902 0-35.783-9.88-9.88-25.901-9.88-35.782 0-9.881 9.881-9.881 25.902 0 35.783 9.88 9.881 25.901 9.881 35.782 0z"/>
                        <path fill="#E2ECFD" d="M49.744 47.062c9.881-9.881 9.881-25.902 0-35.783-9.88-9.881-25.901-9.881-35.782 0-9.882 9.881-9.882 25.902 0 35.783 9.88 9.88 25.901 9.88 35.782 0z"/>
                        <path fill="#3C80EF" d="M31.853 52.523c-9.324 0-17.73-5.617-21.298-14.231-3.568-8.615-1.596-18.53 4.997-25.124 5.815-5.87 14.326-8.178 22.31-6.053 7.984 2.126 14.22 8.362 16.346 16.346 2.125 7.984-.184 16.495-6.053 22.31-4.314 4.337-10.184 6.769-16.302 6.752zm0-44.731c-11.953 0-21.678 9.724-21.678 21.678 0 11.953 9.725 21.678 21.678 21.678 11.954 0 21.678-9.725 21.678-21.678 0-11.954-9.724-21.678-21.678-21.678z"/>
                        <path fill="#3C80EF" d="M35.027 36.16c.062-.446.044-.9-.053-1.34-.104-.408-.298-.788-.567-1.11-.327-.386-.706-.722-1.128-1-.563-.368-1.15-.696-1.76-.98-1.11-.536-2.19-1.128-3.24-1.772-.891-.545-1.704-1.208-2.416-1.972-.64-.695-1.128-1.516-1.432-2.41-.31-.993-.394-2.043-.245-3.073.1-.946.393-1.861.862-2.689.449-.78 1.057-1.456 1.786-1.984.774-.555 1.64-.967 2.558-1.218 1.04-.283 2.116-.408 3.193-.369l.45-3.795 3.06.363-.458 3.853c1.02.247 1.993.661 2.879 1.224 1.655 1.042 2.817 2.71 3.221 4.623.228 1.073.27 2.177.126 3.265l-5.524-.656c.17-1.42-.02-2.52-.568-3.298-.549-.779-1.351-1.232-2.407-1.358-.502-.072-1.014-.05-1.509.064-.402.096-.778.279-1.102.536-.301.249-.543.561-.708.915-.178.38-.291.786-.337 1.202-.053.404-.036.815.05 1.213.096.392.281.756.543 1.063.329.388.713.725 1.14 1 .587.387 1.196.738 1.823 1.054 1.182.609 2.25 1.215 3.206 1.82.891.55 1.704 1.22 2.416 1.988 1.371 1.467 1.99 3.483 1.677 5.467-.098.964-.397 1.896-.876 2.738-.453.775-1.064 1.445-1.795 1.965-.78.546-1.653.944-2.577 1.173-1.049.263-2.13.376-3.21.338l-.426 3.531-3.04-.36.418-3.517c-1.033-.227-2.034-.58-2.981-1.05-.926-.458-1.758-1.087-2.45-1.853-.705-.794-1.23-1.732-1.536-2.75-.338-1.073-.423-2.32-.254-3.738l5.525.656c-.107.715-.072 1.444.103 2.145.143.543.413 1.044.786 1.463.35.38.782.678 1.263.87.486.195.996.325 1.516.386.535.074 1.08.06 1.61-.043.434-.086.847-.257 1.213-.505.334-.229.61-.532.806-.885.2-.369.325-.773.369-1.19z"/>
                    </g>
                </g>
            </g>
        </g>
    </g>
</svg>
