<svg width="71" height="48" xmlns="http://www.w3.org/2000/svg">
    <g fill-rule="nonzero" fill="none">
        <path d="M18.062 31.098a2.295 2.295 0 0 1-3.91 0l-4.9-8.063-8.146-4.849a2.245 2.245 0 0 1 0-3.87l8.147-4.849 4.899-8.063a2.295 2.295 0 0 1 3.91 0l4.899 8.062 8.147 4.85c1.08.643 1.429 2.03.78 3.098-.193.317-.46.582-.78.773l-8.147 4.848-4.899 8.063zm43.685 7.745-4.899 8.062a2.295 2.295 0 0 1-3.91 0l-4.9-8.062-8.147-4.85a2.244 2.244 0 0 1-.78-3.098c.194-.317.46-.582.78-.773l8.148-4.847 4.899-8.063a2.295 2.295 0 0 1 3.91 0l4.9 8.062 8.146 4.85a2.245 2.245 0 0 1 0 3.87l-8.147 4.849z" fill="#E2ECFD"/>
        <path d="m44.631 11.362-2.45 4.032a1.147 1.147 0 0 1-1.955 0l-2.45-4.03-4.073-2.426a1.124 1.124 0 0 1 0-1.935l4.074-2.424L40.226.547a1.147 1.147 0 0 1 1.956 0L44.63 4.58l4.073 2.424a1.122 1.122 0 0 1 0 1.935l-4.073 2.425zm-13.596 27-2.45 4.033a1.147 1.147 0 0 1-1.955 0l-2.45-4.032-4.073-2.424a1.124 1.124 0 0 1 0-1.935l4.074-2.425 2.45-4.032a1.147 1.147 0 0 1 1.955 0l2.45 4.032 4.073 2.425a1.122 1.122 0 0 1 0 1.935l-4.074 2.424z" fill="#3C80EF"/>
    </g>
</svg>
