<svg width="24" height="24" viewBox="0 0 24 24" fill="none" xmlns="http://www.w3.org/2000/svg">
<path d="M4 3.25C3.58579 3.25 3.25 3.58579 3.25 4V10C3.25 10.4142 3.58579 10.75 4 10.75H10C10.4142 10.75 10.75 10.4142 10.75 10V4C10.75 3.58579 10.4142 3.25 10 3.25H4ZM4.75 9.25V4.75H9.25V9.25H4.75ZM14 3.25C13.5858 3.25 13.25 3.58579 13.25 4V10C13.25 10.4142 13.5858 10.75 14 10.75H20C20.4142 10.75 20.75 10.4142 20.75 10V4C20.75 3.58579 20.4142 3.25 20 3.25H14ZM14.75 9.25V4.75H19.25V9.25H14.75ZM3.25 14C3.25 13.5858 3.58579 13.25 4 13.25H10C10.4142 13.25 10.75 13.5858 10.75 14V20C10.75 20.4142 10.4142 20.75 10 20.75H4C3.58579 20.75 3.25 20.4142 3.25 20V14ZM4.75 14.75V19.25H9.25V14.75H4.75Z" fill="black"/>
<path d="M16.95 19.4C15.6245 19.4 14.55 18.3255 14.55 17C14.55 15.6745 15.6245 14.6 16.95 14.6C18.2755 14.6 19.35 15.6745 19.35 17C19.35 18.3255 18.2755 19.4 16.95 19.4ZM16.95 20.8C19.0487 20.8 20.75 19.0987 20.75 17C20.75 14.9013 19.0487 13.2 16.95 13.2C14.8513 13.2 13.15 14.9013 13.15 17C13.15 19.0987 14.8513 20.8 16.95 20.8Z" fill="black"/>
</svg>
