<svg width="24" height="24" viewBox="0 0 24 24" fill="none" xmlns="http://www.w3.org/2000/svg">
<g clip-path="url(#clip0_1905_41916)">
<rect width="24" height="24" rx="4" fill="#786EFF"/>
<path d="M11.3878 19.9982C11.0491 20.013 10.7128 19.9347 10.4154 19.772C10.118 19.6092 9.87075 19.3682 9.70056 19.0749C8.97641 17.8276 9.47607 15.523 11.0837 12.534H4.53372C4.43991 12.534 4.34778 12.5092 4.26658 12.4622C4.18539 12.4152 4.118 12.3477 4.0712 12.2664C4.02441 12.1851 3.99985 12.0929 4 11.9991C4.00015 11.9053 4.02501 11.8132 4.07207 11.732C7.17326 6.39139 10.5895 4.00168 12.599 4.00168C12.9374 3.98727 13.2733 4.06567 13.5704 4.22841C13.8675 4.39115 14.1144 4.63203 14.2845 4.92498C15.0086 6.17414 14.5089 8.47876 12.9013 11.4659H19.4549C19.5487 11.466 19.6409 11.4907 19.7221 11.5377C19.8032 11.5847 19.8706 11.6522 19.9174 11.7335C19.9642 11.8148 19.9888 11.907 19.9886 12.0008C19.9885 12.0946 19.9636 12.1868 19.9166 12.2679C16.819 17.6103 13.4082 19.9982 11.3878 19.9982ZM12.293 12.534C10.432 15.8416 10.2038 17.8041 10.6293 18.5409C10.7234 18.7074 10.9063 18.9265 11.3915 18.9283C12.9936 18.9283 15.8885 16.7377 18.5117 12.5322L12.293 12.534ZM5.46607 11.4659H11.6757C13.5603 8.15833 13.7902 6.19768 13.3666 5.45723C13.2706 5.29249 13.0878 5.07162 12.6026 5.06981C10.995 5.06981 8.10199 7.26218 5.47874 11.4659H5.46607Z" fill="white"/>
</g>
<defs>
<clipPath id="clip0_1905_41916">
<rect width="24" height="24" fill="white"/>
</clipPath>
</defs>
</svg>
