<svg width="82" height="24" viewBox="0 0 82 24" fill="none" xmlns="http://www.w3.org/2000/svg">
<g clip-path="url(#clip0_1413_37)">
<path d="M35.8038 22.7513H27.5106C27.489 22.7516 27.4677 22.7477 27.4477 22.7397C27.4277 22.7316 27.4095 22.7197 27.3941 22.7046C27.3788 22.6895 27.3666 22.6715 27.3583 22.6516C27.35 22.6317 27.3457 22.6104 27.3457 22.5888V9.50012C27.3463 9.4568 27.364 9.41548 27.3949 9.38508C27.4257 9.35468 27.4673 9.33764 27.5106 9.33765H29.4178C29.4606 9.33828 29.5016 9.3556 29.5319 9.38594C29.5622 9.41627 29.5796 9.45723 29.5802 9.50012V20.6367H35.8038C35.8471 20.6367 35.8886 20.6538 35.9195 20.6842C35.9503 20.7146 35.968 20.7559 35.9686 20.7992V22.5888C35.9686 22.6104 35.9644 22.6317 35.956 22.6516C35.9477 22.6715 35.9355 22.6895 35.9202 22.7046C35.9049 22.7197 35.8867 22.7316 35.8667 22.7397C35.8467 22.7477 35.8253 22.7516 35.8038 22.7513Z" fill="#F2385A"/>
<path d="M46.3366 18.7363C46.3366 21.7544 44.1611 23 41.9463 23C39.7316 23 37.5586 21.7544 37.5586 18.7363V13.4413C37.5586 13.3982 37.5757 13.3569 37.6062 13.3264C37.6366 13.2959 37.6779 13.2788 37.721 13.2788H39.4707C39.5138 13.2788 39.5551 13.2959 39.5855 13.3264C39.616 13.3569 39.6331 13.3982 39.6331 13.4413V18.5493C39.6331 20.3783 40.6519 21.0503 41.9463 21.0503C43.2408 21.0503 44.262 20.3783 44.262 18.5493V13.4413C44.262 13.3982 44.2792 13.3569 44.3096 13.3264C44.3401 13.2959 44.3814 13.2788 44.4245 13.2788H46.1741C46.217 13.2794 46.258 13.2968 46.2883 13.3271C46.3186 13.3574 46.3359 13.3984 46.3366 13.4413V18.7363Z" fill="#F2385A"/>
<path d="M64.7732 16.7989V22.5888C64.7732 22.6103 64.769 22.6317 64.7606 22.6515C64.7523 22.6714 64.7401 22.6894 64.7248 22.7046C64.7095 22.7197 64.6913 22.7316 64.6713 22.7396C64.6513 22.7476 64.6299 22.7516 64.6084 22.7513H62.8611C62.8396 22.7516 62.8182 22.7476 62.7982 22.7396C62.7782 22.7316 62.76 22.7197 62.7447 22.7046C62.7294 22.6894 62.7172 22.6714 62.7089 22.6515C62.7005 22.6317 62.6963 22.6103 62.6963 22.5888V17.4931C62.6963 15.9004 61.8768 15.0118 60.4815 15.0118C59.1477 15.0118 58.0206 15.8906 58.0206 17.5128V22.5888C58.0206 22.6103 58.0163 22.6317 58.008 22.6515C57.9997 22.6714 57.9875 22.6894 57.9721 22.7046C57.9568 22.7197 57.9386 22.7316 57.9186 22.7396C57.8986 22.7476 57.8772 22.7516 57.8557 22.7513H56.1085C56.0869 22.7516 56.0655 22.7476 56.0456 22.7396C56.0256 22.7316 56.0074 22.7197 55.992 22.7046C55.9767 22.6894 55.9645 22.6714 55.9562 22.6515C55.9479 22.6317 55.9436 22.6103 55.9436 22.5888V17.4931C55.9436 15.9004 55.1241 15.0118 53.7288 15.0118C52.395 15.0118 51.2679 15.8906 51.2679 17.5128V22.5888C51.2679 22.6103 51.2636 22.6317 51.2553 22.6515C51.247 22.6714 51.2348 22.6894 51.2195 22.7046C51.2041 22.7197 51.1859 22.7316 51.1659 22.7396C51.1459 22.7476 51.1246 22.7516 51.103 22.7513H49.3558C49.3343 22.7516 49.3129 22.7476 49.2929 22.7396C49.2729 22.7316 49.2547 22.7197 49.2394 22.7046C49.224 22.6894 49.2118 22.6714 49.2035 22.6515C49.1952 22.6317 49.1909 22.6103 49.1909 22.5888V13.4412C49.1916 13.3979 49.2092 13.3566 49.2401 13.3262C49.2709 13.2958 49.3125 13.2787 49.3558 13.2787H51.0784C51.1217 13.2787 51.1633 13.2958 51.1941 13.3262C51.225 13.3566 51.2426 13.3979 51.2433 13.4412V14.4259C52.0037 13.3083 53.18 13.0203 54.1496 13.0203C55.5941 13.0203 56.7704 13.6628 57.4226 14.7114C58.2421 13.3575 59.7063 13.0203 60.8826 13.0203C63.1811 13.0301 64.7732 14.5834 64.7732 16.7989Z" fill="#F2385A"/>
<path d="M69.6211 22.7513H67.8714C67.85 22.7517 67.8287 22.7477 67.8089 22.7396C67.789 22.7316 67.771 22.7196 67.7558 22.7045C67.7407 22.6893 67.7287 22.6713 67.7207 22.6514C67.7127 22.6316 67.7087 22.6103 67.709 22.5889V13.4413C67.709 13.3982 67.7261 13.3569 67.7566 13.3264C67.787 13.2959 67.8283 13.2788 67.8714 13.2788H69.6211C69.6425 13.2788 69.6636 13.283 69.6833 13.2912C69.703 13.2993 69.7209 13.3113 69.736 13.3264C69.751 13.3415 69.763 13.3594 69.7712 13.3791C69.7793 13.3988 69.7835 13.4199 69.7835 13.4413V22.5889C69.7839 22.6103 69.7799 22.6316 69.7719 22.6514C69.7638 22.6713 69.7519 22.6893 69.7367 22.7045C69.7216 22.7196 69.7035 22.7316 69.6837 22.7396C69.6638 22.7477 69.6425 22.7517 69.6211 22.7513Z" fill="#F2385A"/>
<path d="M81.4999 16.7989V22.5888C81.4999 22.6103 81.4957 22.6317 81.4874 22.6515C81.479 22.6714 81.4669 22.6894 81.4515 22.7046C81.4362 22.7197 81.418 22.7316 81.398 22.7396C81.378 22.7476 81.3566 22.7516 81.3351 22.7513H79.5878C79.5663 22.7516 79.5449 22.7476 79.5249 22.7396C79.5049 22.7316 79.4867 22.7197 79.4714 22.7046C79.4561 22.6894 79.4439 22.6714 79.4356 22.6515C79.4272 22.6317 79.423 22.6103 79.423 22.5888V17.4931C79.423 15.9004 78.6035 15.0118 77.2082 15.0118C75.8744 15.0118 74.7473 15.8906 74.7473 17.5128V22.5888C74.7473 22.6103 74.743 22.6317 74.7347 22.6515C74.7264 22.6714 74.7142 22.6894 74.6988 22.7046C74.6835 22.7197 74.6653 22.7316 74.6453 22.7396C74.6253 22.7476 74.6039 22.7516 74.5824 22.7513H72.8499C72.8284 22.7516 72.807 22.7476 72.787 22.7396C72.767 22.7316 72.7488 22.7197 72.7335 22.7046C72.7182 22.6894 72.706 22.6714 72.6977 22.6515C72.6893 22.6317 72.6851 22.6103 72.6851 22.5888V13.4412C72.6857 13.3979 72.7034 13.3566 72.7342 13.3262C72.7651 13.2958 72.8066 13.2787 72.8499 13.2787H74.5726C74.6159 13.2787 74.6574 13.2958 74.6883 13.3262C74.7191 13.3566 74.7368 13.3979 74.7374 13.4412V14.4259C75.4979 13.3083 76.6742 13.0203 77.6437 13.0203C79.9078 13.0301 81.4999 14.5834 81.4999 16.7989Z" fill="#F2385A"/>
<path d="M68.8142 9.51981L67.852 11.1593C67.8378 11.1843 67.8304 11.2126 67.8306 11.2414C67.8307 11.2702 67.8384 11.2984 67.8528 11.3233C67.8672 11.3482 67.8879 11.3688 67.9128 11.3833C67.9377 11.3977 67.9659 11.4053 67.9947 11.4055H69.5721C69.6367 11.4057 69.7003 11.3891 69.7564 11.3571C69.8125 11.3251 69.8593 11.279 69.892 11.2233L70.8346 9.61582C70.8511 9.58771 70.8598 9.55573 70.86 9.52313C70.8602 9.49053 70.8517 9.45847 70.8354 9.43022C70.8192 9.40196 70.7957 9.37851 70.7675 9.36225C70.7392 9.34599 70.7072 9.3375 70.6746 9.33765H69.1316C69.0674 9.33754 69.0043 9.35431 68.9486 9.38628C68.8928 9.41825 68.8465 9.4643 68.8142 9.51981Z" fill="#F2385A"/>
<path d="M7.83564 17.0846L16.7859 1.7385C16.8291 1.6637 16.8518 1.57884 16.8518 1.49246C16.8518 1.40608 16.8291 1.32122 16.786 1.24639C16.7429 1.17156 16.6808 1.1094 16.6061 1.06615C16.5313 1.0229 16.4465 1.00009 16.3601 1H10.5894C10.4461 1.00004 10.3053 1.03754 10.181 1.10879C10.0567 1.18004 9.95313 1.28255 9.88063 1.40618L0.612945 17.3037C0.540858 17.4281 0.502749 17.5693 0.502443 17.713C0.502137 17.8568 0.539645 17.9982 0.611201 18.1229C0.682758 18.2476 0.785846 18.3513 0.910119 18.4235C1.03439 18.4958 1.17548 18.534 1.31922 18.5345H5.35015L3.6103 21.5205C3.53811 21.6451 3.5 21.7865 3.4998 21.9305C3.4996 22.0745 3.53733 22.216 3.60918 22.3408C3.68102 22.4656 3.78446 22.5692 3.90908 22.6413C4.03369 22.7134 4.17509 22.7513 4.31904 22.7514H18.8383C19.0105 22.7508 19.1795 22.705 19.3285 22.6186C19.4774 22.5322 19.6012 22.4082 19.6873 22.259L22.2761 17.828C22.3192 17.7534 22.3419 17.6688 22.3421 17.5826C22.3422 17.4964 22.3197 17.4117 22.2769 17.337C22.234 17.2622 22.1723 17.2 22.0979 17.1566C22.0235 17.1132 21.939 17.09 21.8528 17.0895L7.83564 17.0846ZM10.956 2.45239H14.6892L6.15978 17.0846H2.42169L10.956 2.45239ZM18.5848 21.3014H5.42151L7.03339 18.537H20.1868L18.5848 21.3014Z" fill="#F2385A"/>
</g>
<defs>
<clipPath id="clip0_1413_37">
<rect width="81" height="22" fill="white" transform="translate(0.5 1)"/>
</clipPath>
</defs>
</svg>
