<svg width="40" height="40" viewBox="0 0 40 40" fill="none" xmlns="http://www.w3.org/2000/svg">
<g clip-path="url(#clip0_3587_232)">
<path d="M16.3432 25.1532L25.4575 9.53239C25.502 9.45632 25.5255 9.36985 25.5258 9.28175C25.5261 9.19365 25.5031 9.10704 25.4591 9.0307C25.4151 8.95435 25.3518 8.89098 25.2754 8.847C25.1991 8.80303 25.1125 8.78001 25.0244 8.78028H19.1528C19.0067 8.78076 18.8633 8.81949 18.7368 8.89263C18.6103 8.96576 18.5052 9.07074 18.4319 9.19713L8.98817 25.3772C8.9143 25.504 8.87518 25.6479 8.87476 25.7946C8.87434 25.9413 8.91263 26.0855 8.98576 26.2127C9.0589 26.3399 9.16429 26.4455 9.2913 26.5189C9.41831 26.5923 9.56244 26.6309 9.70913 26.6307H13.8139L12.0426 29.6689C11.9691 29.7953 11.9301 29.9388 11.9294 30.085C11.9288 30.2313 11.9665 30.3751 12.0389 30.5022C12.1113 30.6292 12.2158 30.735 12.3419 30.8091C12.4681 30.8831 12.6114 30.9227 12.7576 30.9239H27.5492C27.7242 30.9238 27.8962 30.8779 28.0479 30.7907C28.1997 30.7036 28.3259 30.5781 28.4141 30.4269L31.0517 25.9053C31.096 25.8294 31.1196 25.743 31.1199 25.6551C31.1203 25.5671 31.0974 25.4806 31.0536 25.4043C31.0098 25.328 30.9466 25.2646 30.8705 25.2205C30.7944 25.1764 30.708 25.1532 30.62 25.1532H16.3432ZM19.5222 10.2578H23.3214L14.6313 25.1532H10.8291L19.5222 10.2578ZM27.2822 29.4449H13.8836L15.5258 26.6263H28.9274L27.2822 29.4449Z" fill="#F2385A"/>
</g>
<defs>
<clipPath id="clip0_3587_232">
<path d="M0 8C0 3.58172 3.58172 0 8 0H32C36.4183 0 40 3.58172 40 8V32C40 36.4183 36.4183 40 32 40H8C3.58172 40 0 36.4183 0 32V8Z" fill="white"/>
</clipPath>
</defs>
</svg>
