<svg width="48" height="49" viewBox="0 0 48 49" fill="none" xmlns="http://www.w3.org/2000/svg">
<circle cx="24" cy="24.5" r="24" fill="#FFF2CC"/>
<path fill-rule="evenodd" clip-rule="evenodd" d="M12.8853 41.125C16.1753 43.3222 20.043 44.4942 23.9992 44.4929C29.2997 44.4861 34.3811 42.3774 38.1291 38.6294C41.8772 34.8814 43.9858 29.7999 43.9927 24.4994C43.994 20.5432 42.8219 16.6755 40.6248 13.3856C38.4276 10.0956 35.3041 7.53114 31.6493 6.01658C27.9946 4.50202 23.9727 4.10541 20.0925 4.87691C16.2122 5.6484 12.648 7.55335 9.85055 10.3508C7.05311 13.1482 5.14816 16.7125 4.37666 20.5927C3.60517 24.4729 4.00178 28.4948 5.51633 32.1496C7.03089 35.8044 9.59535 38.9279 12.8853 41.125ZM13.7723 9.19334C16.7998 7.17179 20.3588 6.09346 23.9992 6.09474C28.8777 6.10161 33.5543 8.04308 37.0034 11.4933C40.4524 14.9436 42.3922 19.6209 42.3974 24.4994C42.3974 28.1398 41.3178 31.6984 39.2952 34.7252C37.2725 37.7519 34.3977 40.1109 31.0343 41.5037C27.671 42.8965 23.9701 43.2606 20.3997 42.55C16.8294 41.8393 13.55 40.0858 10.9763 37.5112C8.40264 34.9366 6.65028 31.6566 5.94086 28.086C5.23145 24.5154 5.59685 20.8147 6.99085 17.4518C8.38485 14.0889 10.7448 11.2149 13.7723 9.19334ZM25.2541 27.4248H22.8141L22.6741 16.3848H25.4341L25.2541 27.4248ZM25.5941 30.0848C25.5941 30.9848 24.9141 31.6448 24.0741 31.6448C23.1941 31.6448 22.4941 30.9848 22.4941 30.0848C22.4941 29.2248 23.1941 28.5648 24.0741 28.5648C24.9141 28.5648 25.5941 29.2248 25.5941 30.0848Z" fill="#E0990B"/>
</svg>
