<svg width="169" height="179" viewBox="0 0 169 179" fill="none" xmlns="http://www.w3.org/2000/svg">
<path d="M13.3076 65.0011V135.975L87.1538 178.642L87.2905 107.531L13.3076 65.0011Z" fill="#FAB1A5"/>
<path d="M13.3076 60.2147V83.3258L87.1538 125.993L87.2905 102.745L13.3076 60.2147Z" fill="#DA6668"/>
<path d="M87.1538 178.642V107.53L148.692 71.9749V143.086L87.1538 178.642Z" fill="#DD9184" stroke="url(#paint0_radial_5264_85261)" stroke-width="0.394093"/>
<path d="M148.692 67.3248V90.4359L87.2906 125.991L87.1538 102.744L148.692 67.3248Z" fill="#DA6668"/>
<path d="M87.1538 93.3077L1 43.6667L74.8462 1L161 50.7778L87.1538 93.3077Z" fill="#EC9F92" stroke="url(#paint1_radial_5264_85261)" stroke-width="0.394093"/>
<path d="M87.1538 93.3082V121.753L161 79.086V50.7783L87.1538 93.3082Z" fill="#DD9184" stroke="url(#paint2_radial_5264_85261)" stroke-width="0.394093"/>
<path d="M1 72.11V43.6656L87.1538 93.3066V121.751L1 72.11Z" fill="#FAB1A5"/>
<path d="M37.9233 107.53V121.753L62.5387 135.975V121.753L37.9233 107.53Z" fill="#FFCBC2"/>
<path d="M42.7097 110.402L37.9233 107.53V121.753L62.5387 135.975V130.505L42.7097 119.018V110.402Z" fill="#DA6668"/>
<path d="M37.9995 42.1557V48.5494H38.036C38.036 55.7104 42.5665 62.2869 50.787 67C58.5691 71.4939 68.7991 73.7225 78.9926 73.7225C89.2226 73.7225 99.416 71.4939 107.198 67C115.419 62.2503 119.949 55.7104 119.949 48.5494V42.1557L118.743 42.2653C116.88 37.5887 112.971 33.3871 107.198 30.0624C91.6339 21.0746 66.3147 21.0746 50.7505 30.0624C45.0144 33.3871 41.0685 37.5887 39.2052 42.2653L37.9995 42.1557ZM45.5259 48.5494C45.5259 44.2017 48.7045 39.927 54.5137 36.6023C61.1266 32.766 70.0779 30.8662 78.9926 30.8662C87.9073 30.8662 96.822 32.766 103.472 36.6023C109.281 39.9636 112.459 44.2017 112.459 48.5494C112.459 52.8972 109.281 57.1719 103.472 60.4966C90.209 68.1691 67.8127 68.1691 54.5502 60.4966C48.741 57.1719 45.5259 52.9337 45.5259 48.5494Z" fill="#102D42"/>
<path opacity="0.2" d="M78.9922 67.7668C98.3833 67.7668 114.103 58.6883 114.103 47.4895C114.103 36.2906 98.3833 27.2122 78.9922 27.2122C59.601 27.2122 43.8813 36.2906 43.8813 47.4895C43.8813 58.6883 59.601 67.7668 78.9922 67.7668Z" fill="#A5CBEF"/>
<path d="M50.7505 60.6419C42.5299 55.8923 37.9995 49.3524 37.9995 42.1914C37.9995 35.0304 42.5299 28.4539 50.7505 23.7408C66.3147 14.7531 91.6339 14.7531 107.198 23.7408C115.419 28.4905 119.949 35.0304 119.949 42.1914C119.949 49.3524 115.419 55.9288 107.198 60.6419C99.416 65.1358 89.186 67.3645 78.9926 67.3645C68.7626 67.3645 58.5326 65.1358 50.7505 60.6419ZM54.5137 30.2077C48.7045 33.5689 45.5259 37.8071 45.5259 42.1548C45.5259 46.5026 48.7045 50.7773 54.5137 54.102C67.7761 61.7745 90.1725 61.7745 103.435 54.102C109.244 50.7407 112.423 46.5026 112.423 42.1548C112.423 37.8071 109.244 33.5324 103.435 30.2077C96.822 26.3714 87.9073 24.4716 78.956 24.4716C70.0779 24.4716 61.1632 26.3714 54.5137 30.2077Z" fill="#325167"/>
<path d="M140.153 87.3486C141.395 87.3486 142.601 86.6909 143.259 85.5583C144.245 83.8411 143.661 81.649 141.944 80.6625L108.294 61.2621C106.577 60.2756 102.339 64.3676 104.714 67.4731L138.363 86.8736C138.911 87.1659 139.532 87.3486 140.153 87.3486Z" fill="#F2385A"/>
<path d="M157.215 102.623L109.975 75.4402C105.042 68.9003 113.884 60.3145 117.501 62.397L164.742 89.5796C168.322 91.6621 169.564 96.2656 167.482 99.8461C166.094 102.257 163.573 103.609 160.942 103.609C159.7 103.646 158.421 103.317 157.215 102.623Z" fill="#102D42"/>
<defs>
<radialGradient id="paint0_radial_5264_85261" cx="0" cy="0" r="1" gradientUnits="userSpaceOnUse" gradientTransform="translate(27.8876 106.631) rotate(80.9742) scale(76.2235 35.5287)">
<stop stop-color="white" stop-opacity="0.973411"/>
<stop offset="1" stop-color="white" stop-opacity="0"/>
</radialGradient>
<radialGradient id="paint1_radial_5264_85261" cx="0" cy="0" r="1" gradientUnits="userSpaceOnUse" gradientTransform="translate(-153.092 30.9904) rotate(64.4875) scale(72.1845 84.4124)">
<stop stop-color="white" stop-opacity="0.973411"/>
<stop offset="1" stop-color="white" stop-opacity="0"/>
</radialGradient>
<radialGradient id="paint2_radial_5264_85261" cx="0" cy="0" r="1" gradientUnits="userSpaceOnUse" gradientTransform="translate(16.0343 73.8376) rotate(74.0144) scale(52.1048 41.4996)">
<stop stop-color="white" stop-opacity="0.973411"/>
<stop offset="1" stop-color="white" stop-opacity="0"/>
</radialGradient>
</defs>
</svg>
