<svg width="117" height="101" viewBox="0 0 117 101" fill="none" xmlns="http://www.w3.org/2000/svg">
<path d="M42.3602 56.2319C48.7484 49.8437 45.886 36.6241 35.9669 26.7049C26.0477 16.7858 12.8281 13.9234 6.43987 20.3116C0.0516908 26.6998 2.91409 39.9195 12.8332 49.8386C22.7523 59.7577 35.972 62.6201 42.3602 56.2319Z" fill="#C4C0FF"/>
<path d="M68.6447 29.9744C72.2748 27.7935 70.8184 21.2579 64.3846 23.7893C59.8193 25.5853 58.6371 20.5224 58.4937 17.1303C50.6434 22.0587 43.6829 20.172 43.6829 20.172C32.9125 17.2665 34.99 3.43993 48.0121 7.78002C48.4969 -2.46732 64.6152 -2.18947 64.9765 6.94832C73.1737 4.02103 80.452 10.8017 75.42 23.8601L71.0454 36.3284L68.6465 29.9762L68.6447 29.9744Z" fill="#073644"/>
<path d="M35.5747 28.7886C35.6855 28.9665 35.8634 29.1845 36.0686 29.4205C36.2702 29.6602 36.4954 29.9199 36.7151 30.1723C36.5735 29.9526 36.4173 29.7365 36.2339 29.5059C36.0505 29.2771 35.8289 29.0483 35.5747 28.7886Z" fill="#073542"/>
<path d="M36.7241 30.1833C36.7241 30.1833 36.7295 30.1887 36.7313 30.1905C36.7259 30.1833 36.7204 30.1778 36.7168 30.1724C36.7204 30.176 36.7222 30.1796 36.7241 30.1833Z" fill="#073542"/>
<path d="M37.5522 25.3768C37.4196 25.2515 37.2707 25.1062 37.1182 24.9609C37.2598 25.1026 37.4069 25.246 37.5522 25.3768Z" fill="#073542"/>
<path d="M41.4946 57.2406C41.5 57.2969 41.5073 57.355 41.5109 57.4095C41.2276 57.5911 41.0624 57.6874 40.9571 57.74C40.8445 57.7836 40.7936 57.7872 40.7482 57.7909C40.701 57.7945 40.6593 57.7981 40.5612 57.8381C40.4631 57.878 40.316 57.9652 40.0309 58.0923C39.8548 58.2921 39.3609 58.4846 38.8524 58.6153C38.3457 58.7551 37.8209 58.8151 37.6121 58.9204C37.6194 58.904 36.9802 58.9876 37.0129 58.9186C36.9675 58.9531 36.9039 58.9785 36.8276 58.9985C36.7495 59.013 36.6606 59.0203 36.5625 59.0257C36.3682 59.0348 36.1485 59.0457 35.9433 59.0675C35.7944 59.1002 36.0559 59.102 36.1684 59.1201C35.8543 59.1583 35.5329 59.1637 35.2133 59.191C34.8355 59.1456 34.7447 59.0747 35.1533 59.0766C34.5287 59.0566 33.2956 58.993 31.7575 58.677C30.2212 58.3665 28.3944 57.7872 26.6239 57.0137C24.8533 56.2383 23.1409 55.2849 21.7499 54.3914C20.3553 53.5016 19.2875 52.6736 18.7009 52.2468C18.9497 52.5356 19.6888 53.0422 19.894 53.3382C19.5563 53.1493 19.3383 52.9678 19.1586 52.8261C18.9788 52.6826 18.8426 52.5719 18.6846 52.501C18.5702 52.1687 17.3917 51.406 17.0884 50.8667L16.8487 50.8068C16.767 50.7069 16.6853 50.607 16.6072 50.5035C15.9643 49.9551 15.6048 49.65 15.4014 49.4594C15.1944 49.2723 15.1326 49.216 15.0818 49.1634C14.9819 49.058 14.9147 48.9854 13.8887 47.8922C13.2967 47.2584 12.8337 46.8135 12.4614 46.4158C12.0782 46.0272 11.7804 45.6895 11.5026 45.2954C11.5916 45.408 11.7786 45.7512 11.4735 45.4171C11.4899 45.3553 11.2828 45.1374 11.0776 44.8923C10.8724 44.6489 10.6582 44.3911 10.6309 44.273C10.4893 44.1042 10.2223 43.721 10.0081 43.4413C9.79378 43.1617 9.63216 42.9855 9.7157 43.2216C9.62671 42.9874 8.96026 41.9032 9.42151 42.5061C9.30711 42.3245 9.1927 42.1466 9.0892 41.9813C8.9875 41.8143 8.89126 41.6617 8.79864 41.5382L9.05469 42.0267C8.6679 41.4148 8.38824 40.9299 8.15944 40.4923C8.0414 40.2743 7.92518 40.0746 7.80896 39.8767C7.69637 39.6787 7.57833 39.4862 7.44214 39.2919L7.64189 39.7895C7.44032 39.4081 7.24239 39.0631 7.11527 38.758C6.98453 38.4548 6.89736 38.2024 6.88283 38.0226L7.3005 38.7998C7.14433 38.4802 7.0045 38.1915 6.87375 37.9227C6.75027 37.6521 6.63405 37.3997 6.52146 37.1546C6.40342 36.9112 6.30173 36.6697 6.19459 36.4246C6.08927 36.1776 5.96397 35.9306 5.85501 35.6582C5.89859 35.7908 5.94581 35.9234 5.99847 36.0541C5.90949 35.887 5.80417 35.6201 5.66797 35.2842C5.52451 34.95 5.38832 34.5378 5.22851 34.0802C4.92888 33.1613 4.62381 32.0409 4.4295 30.9114C4.22793 29.7837 4.14258 28.6524 4.15166 27.7317C4.14258 27.4992 4.15893 27.2831 4.16619 27.0816C4.17709 26.88 4.17164 26.6911 4.19343 26.5259C4.22611 26.1936 4.23701 25.9284 4.24972 25.7632C4.17709 25.9557 4.12079 26.1554 4.05542 26.3516C4.06995 26.1609 4.08084 25.9666 4.099 25.7759L4.17709 25.2057C4.14985 25.3437 4.38592 25.8104 4.33689 25.9121C4.3605 25.7632 4.40589 25.5798 4.44948 25.3601C4.48761 25.1385 4.56025 24.8934 4.63833 24.6192C4.70371 24.3395 4.82537 24.0544 4.93433 23.7348C4.99062 23.5768 5.07053 23.4243 5.13953 23.2608C5.17585 23.1791 5.21217 23.0974 5.24849 23.0139C5.28844 22.9322 5.33565 22.8523 5.37924 22.7705C6.04387 21.4322 7.28234 20.0793 8.85676 19.2167C9.63942 18.7827 10.4984 18.4649 11.3537 18.2525C12.2126 18.0455 13.0679 17.9565 13.8451 17.9147C15.4105 17.8566 16.6635 18.0473 17.2355 18.1417C18.1543 18.3596 17.3753 18.3306 17.3644 18.3433C18.4921 18.5122 17.8711 18.307 18.8226 18.5303C19.0787 18.6066 18.75 18.5975 18.6011 18.5775C18.8099 18.6193 19.0097 18.6701 19.1622 18.7047C19.3129 18.7464 19.4182 18.7718 19.44 18.7519C19.1858 18.6611 19.1204 18.6066 19.0932 18.5521C19.066 18.4976 19.0787 18.4468 18.977 18.3814C19.184 18.4268 19.3874 18.4831 19.5926 18.5412L20.2064 18.7137L20.1301 18.7773C20.2663 18.8136 20.4533 18.8209 20.7566 18.8626C20.9073 18.8844 21.0889 18.9153 21.305 18.9698C21.5193 19.0315 21.7717 19.1151 22.0641 19.2313C24.0525 20.003 26.1608 21.0254 27.9876 22.1913C27.9314 22.2185 27.5373 21.9915 27.1269 21.7936C27.3793 21.9334 27.757 22.164 27.9677 22.3311C27.5682 21.9842 28.7703 22.7615 28.4416 22.5145C28.7994 22.6924 29.1698 22.9067 29.5421 23.1392C29.9071 23.3843 30.2775 23.6422 30.6353 23.9055C30.9894 24.1761 31.3381 24.443 31.6686 24.6954C31.9954 24.9533 32.3096 25.1894 32.6056 25.3855C32.7073 25.3582 33.7732 25.262 34.8592 25.2057C35.4039 25.1803 35.9469 25.1549 36.3627 25.1367C36.7822 25.1149 37.0691 25.0967 37.1073 25.0586C37.4414 25.3891 37.7737 25.7196 37.8645 25.8322C37.8119 25.7142 37.1672 25.0477 36.7913 24.7281L36.6515 24.7535C35.7907 24.0199 36.5044 24.5229 35.68 23.7875C35.689 23.733 35.887 23.871 36.163 24.1016C36.4372 24.3341 36.804 24.6428 37.1254 24.9569C36.844 24.6664 36.5516 24.3885 36.3046 24.1506C36.054 23.9146 35.8416 23.7275 35.6818 23.6603C35.1315 23.1355 35.8198 23.6313 35.1515 23.003C34.8973 22.796 34.5849 22.5817 34.269 22.3529C33.9548 22.1222 33.637 21.8753 33.3519 21.6301L33.3719 21.6247C31.9718 20.4389 31.0348 20.0866 29.6656 19.1278L29.8345 19.1968C29.5966 19.0188 29.2225 18.7864 28.783 18.5467C28.5651 18.4232 28.3345 18.2924 28.1002 18.1581C27.8623 18.0291 27.6226 17.8947 27.392 17.7567C27.6535 17.9165 27.8569 18.0999 27.2831 17.8076C27.0198 17.6478 26.7673 17.5152 26.5276 17.3972C26.2879 17.2791 26.0646 17.1684 25.8503 17.0612C25.4145 16.8615 25.0168 16.6817 24.6136 16.4674L23.771 16.2259C22.7632 15.8373 20.989 15.1817 18.7046 14.7532C17.566 14.5298 16.2948 14.3864 14.951 14.3609C13.6091 14.3373 12.1872 14.4499 10.778 14.7713C9.37066 15.0909 7.97603 15.6212 6.74845 16.373C5.51725 17.1193 4.46945 18.0654 3.66317 19.0497C3.46887 19.3021 3.27275 19.5454 3.09842 19.7924C2.93317 20.0466 2.77337 20.2936 2.6172 20.5351C2.47737 20.7839 2.34844 21.0272 2.22132 21.2615C2.19045 21.3196 2.15958 21.3795 2.12871 21.4358C2.10147 21.4957 2.07605 21.5539 2.04881 21.612C1.99615 21.7282 1.9453 21.8426 1.89627 21.9552C1.84724 22.0678 1.79821 22.1767 1.75099 22.2839C1.70378 22.391 1.67109 22.5 1.63114 22.6035C1.55669 22.8123 1.48587 23.0102 1.41868 23.1991C1.30064 23.5768 1.21348 23.9128 1.13176 24.1942L1.16808 24.0126C0.706832 25.7414 0.514341 27.9696 0.752229 30.3303C0.873896 31.5106 1.08999 32.7237 1.39144 33.9349C1.69288 35.148 2.09602 36.3519 2.55364 37.5305C3.47069 39.8876 4.67102 42.1048 5.91312 44.037C7.16612 45.9637 8.4627 47.6017 9.56861 48.851C10.1588 49.7063 11.1521 50.7305 11.8876 51.5186C11.4971 51.061 11.686 51.1645 12.0074 51.5041C12.5903 52.0798 12.8972 52.3721 13.0625 52.5265C13.2332 52.6754 13.2604 52.6881 13.2895 52.7008C13.3185 52.7135 13.3494 52.7262 13.5273 52.8733C13.7089 53.0168 14.0213 53.3128 14.6587 53.8412C15.3869 54.4568 16.6526 55.481 18.2579 56.6087C18.4558 56.7522 18.6628 56.8938 18.8771 57.0336C19.0896 57.1753 19.3057 57.3187 19.5254 57.464C19.9685 57.7491 20.4297 58.0342 20.9037 58.3211C21.3849 58.5953 21.8661 58.8877 22.3728 59.1492C22.6252 59.2818 22.874 59.4216 23.13 59.5505L23.9018 59.9319C24.9387 60.4258 25.9937 60.8852 27.0379 61.2557C27.5536 61.4536 28.0766 61.6098 28.576 61.775C28.8284 61.8531 29.079 61.9185 29.3242 61.9893C29.5693 62.0583 29.809 62.1273 30.0487 62.18C31.9518 62.6521 33.5717 62.8119 34.4615 62.8646C35.4203 62.8519 36.5062 62.7956 37.5885 62.6558C37.8591 62.6122 38.1297 62.5868 38.3966 62.5287C38.6635 62.4724 38.9287 62.4143 39.1883 62.3598C39.7041 62.2145 40.2053 62.0747 40.6556 61.8767L40.4795 61.973C40.603 61.9276 40.7609 61.8676 40.9516 61.795C41.1441 61.7296 41.3584 61.6189 41.6035 61.5135C41.7252 61.4591 41.8541 61.3991 41.9885 61.3392C42.1193 61.2684 42.2555 61.1958 42.3989 61.1195C42.5406 61.0414 42.6877 60.9615 42.8402 60.8798C42.9873 60.7854 43.138 60.6891 43.2924 60.5892C43.917 60.197 44.5526 59.6704 45.1737 59.0766C45.3208 58.9186 45.4697 58.7606 45.6204 58.599C45.6949 58.5172 45.7729 58.4392 45.8438 58.3538C45.9128 58.2667 45.9818 58.1795 46.0508 58.0923C46.187 57.9162 46.3322 57.7437 46.4612 57.5603C46.5865 57.3732 46.71 57.1843 46.8353 56.9973C47.8122 55.4719 48.3715 53.7413 48.6439 52.3031C48.9199 50.8558 48.9109 49.6918 48.9145 49.1053C48.9109 49.2106 48.8982 49.3159 48.8909 49.4212C48.8546 48.3989 48.8364 47.963 48.8346 47.578C48.8346 47.3856 48.8437 47.204 48.8382 46.9733C48.8273 46.7427 48.8092 46.4612 48.7692 46.0654C48.6693 46.2851 48.2971 44.6108 48.1246 43.9879L48.1609 44.0043C48.1064 43.7646 48.0047 43.4595 47.8976 43.1072C47.7941 42.7513 47.6506 42.3609 47.5035 41.9505C47.2093 41.1297 46.8425 40.2598 46.5356 39.528L46.6337 39.5552C46.345 38.956 45.9454 38.0916 45.5423 37.2817C45.3426 36.8749 45.1319 36.4899 44.9558 36.1467C44.7778 35.8035 44.6071 35.5202 44.4909 35.3132C43.4758 33.4065 41.6798 30.5682 39.6932 28.4689C39.5243 28.2056 39.3391 27.9532 39.1593 27.6972C38.9777 27.4429 38.8015 27.1814 38.6127 26.9308L38.4057 26.7493C38.4057 26.7493 38.1496 26.7329 37.8028 26.762C37.4559 26.791 37.0219 26.8655 36.6569 27.0398C35.9215 27.3939 35.4911 28.1275 36.4844 29.6166L36.3882 29.6293L36.8658 30.1396C37.3942 30.7915 37.7065 31.0349 37.6121 31.0403C37.3633 30.7498 37.1273 30.4483 36.8676 30.165C37.4105 30.8097 36.9893 30.3956 36.7386 30.1886C36.9729 30.4501 37.1817 30.7189 37.3452 30.9477C37.4759 31.053 37.2925 30.8333 37.2199 30.7225C37.3797 30.8841 37.5703 31.0766 37.7701 31.2782C37.968 31.4816 38.1551 31.7104 38.3149 31.9356C38.5818 32.2733 38.5637 32.3042 38.5582 32.3496C38.5528 32.3932 38.5582 32.4513 38.8542 32.8544C39.6441 33.9113 40.3633 35.0045 41.0206 36.1231C41.678 37.2417 42.2845 38.3803 42.8075 39.5534C43.8517 41.8923 44.6416 44.3421 44.9884 46.8462C44.9703 46.9643 44.9539 46.8281 44.9213 46.6864C45.161 48.1882 45.1809 49.5247 45.0647 50.8431C44.9739 51.2008 44.9122 51.2898 44.8631 51.3915C44.8922 51.3425 44.8359 51.762 44.6888 52.4012C44.5399 53.0404 44.2421 53.8703 43.8226 54.6293C43.4068 55.392 42.8511 56.0621 42.3771 56.5179C42.2555 56.6287 42.1429 56.7304 42.043 56.823C41.9449 56.9174 41.8414 56.9791 41.7652 57.0427C41.6072 57.1626 41.5127 57.2352 41.5 57.2425L41.4946 57.2406Z" fill="#073542"/>
<path d="M50.2823 30.3014C50.3077 30.2869 50.3077 30.2651 50.3095 30.2451C50.2859 30.2633 50.2768 30.2796 50.2823 30.3014Z" fill="#073542"/>
<path d="M48.6987 26.584C48.6987 26.584 48.7005 26.5949 48.7024 26.6003C48.7024 26.5949 48.7024 26.5894 48.6987 26.584Z" fill="#073542"/>
<path d="M50.275 29.2878H50.2314C50.226 29.2442 50.2786 29.2714 50.2641 29.2297C50.2005 29.2206 50.2623 29.157 50.2278 29.1462C50.2332 29.1462 50.2314 29.1244 50.2514 29.1244C50.2169 29.1225 50.2405 29.1044 50.2314 29.0917C50.2223 29.088 50.2223 29.0971 50.2114 29.1008L50.1969 29.0717C50.206 29.059 50.226 29.0535 50.2314 29.0662C50.2332 28.9863 50.2205 28.6014 50.1951 28.5178C50.1715 28.5324 50.1915 28.556 50.1533 28.5705C50.1279 28.5505 50.157 28.536 50.1333 28.5287C50.1915 28.5124 50.1424 28.4779 50.1987 28.4525H50.1642L50.1824 28.4361C50.137 28.3399 50.1624 28.4161 50.1606 28.3272C50.1497 28.2763 50.1007 28.2582 50.1134 28.2273C50.1134 28.2309 50.0952 28.2454 50.0843 28.2327C50.1134 28.2273 50.0589 28.2 50.088 28.191C50.0825 28.1783 50.0825 28.1365 50.0426 28.1547C50.0625 28.1456 50.0662 28.1074 50.0861 28.1274C50.0861 28.1147 50.0898 28.102 50.0807 28.0929L50.0716 28.1111C50.0607 28.0693 50.0898 28.0421 50.0498 28.0185L50.0353 28.0366C50.0298 28.0112 50.0244 27.9912 50.0625 27.9767L50.0771 28.0021C50.0716 27.9603 50.0662 27.9349 50.0407 27.9022V27.9149C49.9972 27.875 49.9372 27.6444 49.8828 27.6081L49.8537 27.6298L49.8246 27.5972C49.8246 27.5972 49.9263 27.6026 49.9173 27.6081C49.9064 27.5318 49.8355 27.1395 49.8483 27.0651C49.8628 27.0342 49.8955 27.0542 49.9009 27.0542C49.8846 27.0215 49.8664 27.0433 49.8664 27.0142C49.8719 27.0052 49.89 27.0142 49.8955 27.0179C49.89 27.0052 49.8991 26.9925 49.8846 26.9925C49.8755 27.0106 49.8374 27.007 49.8119 27.0179V26.9797H49.8355C49.8355 26.9707 49.7665 26.9652 49.7756 26.9271C49.7792 26.8635 49.7629 26.7963 49.7611 26.7328C49.7756 26.7328 49.7865 26.7437 49.7956 26.7564C49.7956 26.7473 49.7901 26.7346 49.7992 26.7255C49.7756 26.7437 49.7792 26.7019 49.7702 26.7146C49.7066 26.6747 49.752 26.6093 49.7084 26.573C49.6558 26.5748 48.7914 26.5911 48.7296 26.5984C48.7296 26.5857 48.7296 26.573 48.7333 26.5693C48.7187 26.5748 48.7151 26.6002 48.7242 26.6129H48.7587C48.7732 26.6402 48.7387 26.6202 48.746 26.6492C48.7187 26.6547 48.7097 26.6274 48.7042 26.6038C48.7042 26.6256 48.686 26.6492 48.7169 26.6547C48.7078 26.6765 48.6824 26.6547 48.6733 26.6819C48.6842 26.6983 48.7133 26.7182 48.6988 26.74H48.6933C48.6697 26.7927 48.7442 26.809 48.7206 26.8581L48.7115 26.8544C48.6969 26.8726 48.7224 26.8998 48.7078 26.9307C48.7133 26.9216 48.7314 26.9126 48.7369 26.9307C48.7242 26.9652 48.7442 26.9852 48.7242 27.0124L48.7532 27.0324C48.7605 27.1468 48.8513 27.5917 48.8695 27.7043L48.864 27.7007C48.8985 27.8732 48.9366 28.2309 48.9948 28.4053C48.9712 28.4361 48.982 28.4743 48.9784 28.5033C48.9875 28.4851 49.0075 28.4888 49.0075 28.5033C49.0147 28.5923 49.0256 28.5069 49.0474 28.5959C49.0837 28.6958 49.1019 29.0935 49.0892 29.1879C49.1346 29.2333 49.111 29.2969 49.1418 29.3423L49.1328 29.3386C49.1527 29.3877 49.1509 29.6855 49.1727 29.7436L49.1782 29.7345C49.209 29.7835 49.1655 29.7817 49.1564 29.8253C49.2 29.8144 49.229 29.8562 49.2345 29.8743H49.2254C49.2363 29.8998 49.2799 29.9542 49.2908 29.996H49.2671C49.2962 30.0305 49.2944 30.0977 49.2998 30.1231C49.2962 30.1831 49.2653 30.2775 49.3071 30.3519L49.2454 30.41L49.2526 30.4173C49.2526 30.4173 50.088 30.4028 50.2514 30.2793H50.275L50.2695 30.2575C50.2786 30.2321 50.2496 30.223 50.2732 30.223V30.2575C50.2786 30.2321 50.2932 30.2484 50.3077 30.2557C50.3077 30.2448 50.3113 30.2357 50.3168 30.2266C50.3077 30.223 50.3077 30.2321 50.3022 30.2357C50.2932 30.223 50.2677 30.2085 50.2768 30.1903C50.2768 30.1649 50.3149 30.1849 50.3149 30.154C50.3149 29.9978 50.3258 29.8435 50.3022 29.6873C50.3113 29.6819 50.3113 29.6873 50.3168 29.6909C50.3004 29.6455 50.3004 29.602 50.2841 29.5602C50.2932 29.5475 50.3077 29.542 50.3168 29.5366C50.2986 29.5457 50.2677 29.3023 50.2714 29.2969L50.275 29.2878Z" fill="#073542"/>
<path d="M56.9084 39.8296C56.8975 39.8041 56.8775 39.8005 56.8594 39.7969C56.8739 39.8223 56.8884 39.8332 56.9084 39.8296Z" fill="#073542"/>
<path d="M53.6396 41.2314C53.6742 41.2805 53.7105 41.3386 53.7468 41.3967C53.7123 41.3404 53.676 41.2841 53.6396 41.2314Z" fill="#073542"/>
<path d="M55.9495 39.7422V39.7857C55.9041 39.7894 55.9332 39.7367 55.8932 39.7494C55.8805 39.8112 55.8242 39.7476 55.8115 39.7803C55.8115 39.7748 55.7915 39.7748 55.7915 39.7549C55.7879 39.7894 55.7716 39.764 55.7588 39.773C55.7552 39.7821 55.7625 39.7821 55.7661 39.793L55.7371 39.8075C55.7243 39.7966 55.7207 39.7785 55.7334 39.773C55.6571 39.764 55.2849 39.7621 55.2032 39.7894C55.2159 39.813 55.2395 39.7948 55.254 39.833C55.234 39.8566 55.2213 39.8275 55.2141 39.8529C55.1995 39.7948 55.165 39.8438 55.1414 39.7857V39.8202L55.1251 39.8003C55.0325 39.8457 55.1051 39.8202 55.0179 39.8221C54.9689 39.833 54.9508 39.882 54.9217 39.8693C54.9253 39.8693 54.9399 39.8874 54.9271 39.8983C54.9217 39.8693 54.8963 39.9238 54.8854 39.8947C54.8727 39.9001 54.8327 39.902 54.8509 39.9401C54.8418 39.9219 54.8037 39.9183 54.8236 39.8983C54.8109 39.8983 54.7982 39.8947 54.7909 39.9038L54.8073 39.9129C54.7673 39.9238 54.7401 39.8983 54.7183 39.9365L54.7365 39.9492C54.7129 39.9564 54.6911 39.9619 54.6765 39.9238L54.7001 39.9074C54.6584 39.9147 54.6348 39.9219 54.6039 39.9474H54.6166C54.5785 39.9909 54.3569 40.0636 54.3261 40.1217L54.3497 40.1489L54.3206 40.1816C54.3206 40.1816 54.317 40.0799 54.3224 40.089C54.2498 40.0999 53.8685 40.2197 53.794 40.2216C53.7613 40.2143 53.774 40.1762 53.774 40.1707C53.7432 40.1925 53.7686 40.207 53.7377 40.2143C53.7286 40.2107 53.7323 40.1907 53.7359 40.1852C53.7232 40.1925 53.7087 40.1852 53.7123 40.1998C53.7323 40.2052 53.7359 40.2434 53.7504 40.2651L53.7123 40.2742L53.7068 40.2506C53.7068 40.2506 53.7068 40.3196 53.6651 40.3196C53.5997 40.3305 53.5361 40.3632 53.4689 40.3832C53.4653 40.3687 53.4744 40.3559 53.4853 40.3414C53.4762 40.3432 53.4653 40.3541 53.4526 40.3469C53.478 40.3632 53.4326 40.3741 53.449 40.3796C53.4254 40.4522 53.3418 40.4322 53.3164 40.4885C53.3273 40.5121 53.4054 40.73 53.5016 40.9389C53.5942 41.1495 53.7123 41.3474 53.7304 41.3747C53.7105 41.3438 53.6905 41.3129 53.6723 41.2839L53.6433 41.2385L53.6287 41.2167L53.6215 41.2058L53.6179 41.2004L53.7323 41.3711C53.7323 41.3711 53.7468 41.3583 53.7468 41.3529C53.7468 41.3565 53.7468 41.362 53.7432 41.3674C53.7432 41.3711 53.7395 41.3729 53.7359 41.3765L53.6179 41.1967V41.1985L53.6233 41.2058L53.6342 41.2203C53.6415 41.2312 53.6487 41.2421 53.6542 41.2512C53.6887 41.3057 53.7123 41.3402 53.7359 41.3801C53.7359 41.3801 53.7359 41.3801 53.7341 41.3765L53.7177 41.3474C53.7214 41.3329 53.7304 41.3638 53.7395 41.3565C53.7559 41.3783 53.7413 41.3947 53.745 41.3928C53.745 41.4001 53.7686 41.4092 53.754 41.3819C53.7668 41.3892 53.7686 41.4128 53.7831 41.4183C53.7867 41.4074 53.7867 41.3765 53.8049 41.3874V41.391C53.8412 41.4056 53.834 41.3347 53.8703 41.3493V41.3583C53.8848 41.3692 53.8993 41.342 53.9247 41.3511C53.9175 41.3474 53.9048 41.3311 53.9157 41.3238C53.9447 41.3329 53.9538 41.3093 53.9774 41.3238L53.9847 41.293C54.0609 41.2657 54.4096 41.1386 54.5077 41.1186L54.504 41.1241C54.6457 41.0805 54.9508 41.0333 55.1033 40.9788C55.1305 41.0024 55.1632 40.9915 55.1886 40.997C55.1741 40.9879 55.1759 40.9679 55.1886 40.9679C55.2667 40.9625 55.1923 40.9479 55.2685 40.928C55.3575 40.8935 55.708 40.8898 55.7915 40.9116C55.8333 40.8699 55.8896 40.8953 55.9314 40.868L55.9277 40.8771C55.9731 40.8571 56.2382 40.8862 56.2909 40.8699L56.2837 40.8644C56.329 40.839 56.3254 40.8807 56.3617 40.8935C56.3563 40.8499 56.3944 40.8226 56.4108 40.819V40.8281C56.4326 40.819 56.4852 40.7809 56.5234 40.7736V40.7972C56.5542 40.77 56.6142 40.7809 56.6378 40.7772C56.6904 40.7863 56.7721 40.8281 56.843 40.7954L56.8884 40.8644L56.8956 40.8571C56.8956 40.8571 56.9719 40.0254 56.8738 39.8493V39.8257L56.8557 39.8293C56.8321 39.8184 56.8212 39.8457 56.823 39.8221H56.8557C56.8321 39.8184 56.8484 39.8057 56.8557 39.7912C56.8466 39.7894 56.8357 39.7857 56.8284 39.7785C56.823 39.7876 56.8321 39.7876 56.8357 39.793C56.823 39.8021 56.8066 39.8239 56.7903 39.813C56.7667 39.8112 56.7903 39.7748 56.7612 39.7712C56.6142 39.7549 56.4707 39.7258 56.32 39.7367C56.3163 39.7276 56.32 39.7276 56.3254 39.7222C56.28 39.7349 56.2401 39.7313 56.2001 39.744C56.1874 39.7331 56.1838 39.7186 56.1801 39.7095C56.1874 39.7294 55.9531 39.7403 55.9495 39.7349V39.7422Z" fill="#073542"/>
<path d="M12.1548 51.6294C12.2819 51.8146 12.4798 52.0416 12.7105 52.2868C12.9447 52.5265 13.2171 52.7807 13.4786 53.0295C13.3025 52.8116 13.1118 52.5955 12.8921 52.3703C12.6741 52.1433 12.4381 51.8963 12.1548 51.6294Z" fill="#073542"/>
<path d="M13.4876 53.0402C13.4876 53.0402 13.4949 53.0456 13.4967 53.0475C13.4894 53.0402 13.484 53.0347 13.4785 53.0293C13.4821 53.0329 13.4858 53.0366 13.4876 53.0402Z" fill="#073542"/>
<path d="M14.145 48.2281C14.0288 48.1101 13.8981 47.9775 13.7637 47.8413C13.889 47.9739 14.0161 48.1083 14.145 48.2281Z" fill="#073542"/>
<path d="M46.1907 57.4493C46.1762 57.3876 46.1653 57.3258 46.1489 57.2641C46.4195 56.8573 46.5811 56.6285 46.6883 56.4923C46.7881 56.3507 46.8354 56.3016 46.8826 56.2581C46.928 56.2127 46.9716 56.1709 47.0569 56.0401C47.1386 55.9076 47.2784 55.6933 47.4491 55.2756C47.4709 55.0922 47.5781 54.838 47.678 54.5347C47.7288 54.384 47.7887 54.2224 47.8505 54.0571C47.914 53.8919 47.9812 53.7212 48.0321 53.5487C48.0865 53.3762 48.141 53.2055 48.1955 53.0402C48.2209 52.9567 48.2463 52.8768 48.2718 52.7969C48.2899 52.717 48.3099 52.6407 48.3262 52.5663C48.3953 52.2703 48.4425 52.0215 48.4479 51.8689C48.4715 51.8853 48.6005 51.05 48.6586 51.1099C48.5986 50.8375 48.733 50.2437 48.7494 49.7116C48.7276 49.5191 48.7112 49.8496 48.6586 49.9895C48.6749 49.7879 48.6749 49.5881 48.6731 49.3884V48.7891C48.7094 48.3242 48.7675 48.2062 48.7893 48.7147C48.7984 47.932 48.773 46.403 48.4497 44.5689C48.1428 42.7312 47.5218 40.6101 46.6973 38.5836C45.8657 36.5606 44.8378 34.6321 43.8663 33.0813C42.8984 31.5268 41.9941 30.3501 41.5056 29.7218C41.6817 30.1013 42.3246 30.8458 42.4208 31.2345C42.1539 30.9094 41.9723 30.6624 41.827 30.4572C41.6817 30.2539 41.5728 30.0977 41.4311 29.9724C41.3948 29.5929 40.3307 28.4997 40.0601 27.895L39.8204 27.7842C39.7478 27.6643 39.6751 27.5408 39.5989 27.4246C38.9596 26.76 38.6019 26.3914 38.3785 26.1862C38.1606 25.9755 38.0953 25.9119 38.0426 25.8538C37.9336 25.7394 37.8882 25.6377 36.7224 24.4919C36.0233 23.8563 35.4785 23.4169 35.0027 23.0627C34.536 22.6977 34.1383 22.4145 33.7479 22.0622C33.8696 22.162 34.1492 22.4762 33.7515 22.1911C33.7479 22.1294 33.49 21.9314 33.2031 21.7389C32.918 21.5446 32.6166 21.3394 32.5512 21.2286C32.1644 20.9454 30.8951 20.0501 31.251 20.4605C31.0767 20.2517 29.929 19.4708 30.6517 19.8758C30.4574 19.7432 30.2668 19.6143 30.0906 19.4944C29.909 19.38 29.7383 19.2783 29.5876 19.2039L30.0797 19.5507C29.4006 19.144 28.8939 18.8026 28.4199 18.532C28.1857 18.3958 27.966 18.265 27.7408 18.1525C27.5138 18.0417 27.2868 17.94 27.0435 17.8474L27.5374 18.167C26.7003 17.7239 25.9775 17.3988 25.696 17.1156L26.5949 17.5042C26.2372 17.3335 25.9158 17.1809 25.6161 17.0375C25.3092 16.9067 25.0241 16.7869 24.7481 16.6688C24.4721 16.549 24.1943 16.4527 23.911 16.351C23.6259 16.2512 23.339 16.1458 23.0175 16.055C23.1664 16.1095 23.3154 16.1604 23.4606 16.2221C23.0539 16.1059 22.2294 15.8335 21.1725 15.5538C20.1139 15.2815 18.8209 15.0054 17.5044 14.8547C16.1896 14.6985 14.8513 14.6695 13.7472 14.7639C13.473 14.7748 13.2097 14.8184 12.9681 14.8456C12.7266 14.8765 12.5033 14.9001 12.3017 14.9455C11.9004 15.0272 11.5862 15.0835 11.3919 15.1507C11.6425 15.1307 11.8913 15.1398 12.1401 15.1344C11.9149 15.1852 11.6897 15.2252 11.4682 15.2851L10.8035 15.4721C10.9597 15.4394 11.3883 15.0036 11.5336 15.0091C11.1667 15.0908 10.602 15.1907 9.90647 15.4086C9.81931 15.434 9.73032 15.4612 9.63771 15.4867C9.54692 15.5157 9.4543 15.552 9.35987 15.5865C9.17102 15.6555 8.9749 15.7282 8.77151 15.8044C8.56994 15.8843 8.36474 15.9842 8.15228 16.0787C8.04695 16.1277 7.938 16.1767 7.82904 16.2257C7.72372 16.2839 7.61657 16.342 7.50762 16.4019C7.39866 16.4618 7.28971 16.5217 7.17712 16.5835C7.06635 16.6434 6.95376 16.707 6.84662 16.7814C6.62871 16.9249 6.40716 17.072 6.18199 17.2209C5.96771 17.3879 5.74979 17.5568 5.53006 17.7293C5.31034 17.9037 5.11058 18.1052 4.89812 18.2977C4.07005 19.0931 3.32733 20.0483 2.74987 21.0852C2.16877 22.1203 1.75292 23.228 1.47508 24.2994C1.20814 25.3744 1.0792 26.4095 1.01564 27.3411C0.917584 29.2061 1.09555 30.6425 1.16455 31.3053C1.27351 32.3767 1.03199 31.5214 1.0102 31.5105C1.13731 32.157 1.18816 32.2913 1.22993 32.4021C1.26806 32.5147 1.30257 32.6019 1.41515 33.1448C1.46055 33.4445 1.32254 33.1012 1.27351 32.936C1.3298 33.1739 1.37339 33.4045 1.41152 33.5788C1.44784 33.7532 1.48597 33.8694 1.51321 33.8821C1.40244 33.2847 1.59493 33.5026 1.61854 33.2356L1.69117 33.5825L1.77652 33.9257L1.94904 34.6103L1.85642 34.5703C1.89093 34.7247 2.00715 34.899 2.15061 35.2041C2.22324 35.3566 2.30315 35.54 2.3885 35.7689C2.48111 35.994 2.58098 36.2646 2.68449 36.5933C3.42903 38.7924 4.55854 41.0405 5.74798 43.0163C5.71892 43.0126 5.63357 42.9127 5.5228 42.7602C5.41021 42.6113 5.27402 42.4079 5.14327 42.2009C5.28855 42.4769 5.54822 42.871 5.66808 43.1343C5.45016 42.6131 6.22012 43.9351 6.024 43.5429C6.29457 43.8734 6.56515 44.2366 6.83028 44.6197C7.1063 44.9938 7.37869 45.3861 7.65108 45.771C7.93255 46.1487 8.20494 46.5246 8.47733 46.8697C8.75517 47.2092 9.02574 47.5252 9.28179 47.794C9.39256 47.7885 10.4894 47.9138 11.5535 47.9665C12.091 47.9901 12.6195 48.0028 13.0208 47.9974C13.4239 47.9919 13.7072 47.9647 13.7454 47.9284C14.0395 48.2389 14.3319 48.5476 14.41 48.6529C14.37 48.5367 13.8017 47.9193 13.4748 47.6142L13.3404 47.6342C12.6213 46.8969 13.226 47.4126 12.5523 46.6699C12.5686 46.6209 12.7321 46.7662 12.9645 46.9932C13.1988 47.2202 13.4839 47.5434 13.7726 47.8285C13.5184 47.567 13.2986 47.2746 13.0916 47.044C12.8882 46.8097 12.7085 46.6282 12.5759 46.5464C12.1619 45.9998 12.7103 46.5301 12.2073 45.8782C12.0039 45.6675 11.7714 45.4187 11.539 45.1572C11.3047 44.8957 11.0723 44.6197 10.8962 44.331H10.9161C10.0154 42.969 9.33808 42.3807 8.64439 41.0569L8.75335 41.1785C8.63895 40.9406 8.43012 40.6101 8.21584 40.2252C8.10688 40.0327 7.98703 39.8311 7.87626 39.6223C7.76912 39.4098 7.66379 39.1937 7.56754 38.9776C7.67469 39.2246 7.72372 39.4643 7.45132 38.9649C7.33874 38.7179 7.23705 38.4891 7.1408 38.2767C7.04274 38.0642 6.95013 37.8663 6.86115 37.6774C6.69953 37.2924 6.54517 36.942 6.42895 36.5661L6.07121 35.896C5.75524 35.0189 5.19775 33.479 4.85453 31.5777C4.49316 29.6873 4.38421 27.4174 4.85999 25.3508C5.09606 24.3212 5.46832 23.346 5.97679 22.5143C6.4798 21.6808 7.10448 20.9781 7.76185 20.426C8.41559 19.8685 9.10928 19.4763 9.73577 19.1948C10.0409 19.0404 10.3496 18.9478 10.6129 18.8425C10.8834 18.7499 11.1304 18.6882 11.3338 18.6246L11.2085 18.6754C11.3629 18.6246 11.5281 18.5883 11.7006 18.552C11.8731 18.5175 12.0456 18.4684 12.2309 18.4394C12.4161 18.4103 12.6068 18.3813 12.8011 18.3504C12.9954 18.3159 13.2006 18.3104 13.4058 18.2868C14.2338 18.2196 15.1473 18.2015 16.117 18.2977C17.0849 18.3849 18.1054 18.5538 19.1405 18.7989C20.1756 19.0495 21.2252 19.3855 22.2603 19.7741C24.3323 20.5568 26.328 21.6082 28.0858 22.6996C29.8382 23.8036 31.3527 24.9513 32.5294 25.921C33.1959 26.5911 34.151 27.47 34.8357 28.1782C34.4706 27.7715 34.6486 27.855 34.9519 28.1565C35.473 28.6976 35.7418 28.9754 35.8907 29.1207C36.0342 29.2696 36.0578 29.2841 36.085 29.2969C36.1104 29.3096 36.1395 29.3223 36.2902 29.4712C36.4373 29.6237 36.7242 29.8961 37.2182 30.4736C37.8102 31.1182 38.7581 32.2768 39.7786 33.7495C40.8046 35.2204 41.8597 37.0309 42.7186 38.9086C43.1399 39.8493 43.5304 40.8008 43.83 41.7306C43.9952 42.1918 44.1133 42.6531 44.2495 43.0943C44.3058 43.3177 44.3602 43.5374 44.4129 43.7517C44.4401 43.8588 44.4656 43.966 44.4928 44.0713C44.5146 44.1766 44.5364 44.282 44.5564 44.3855C44.9087 46.0416 44.9831 47.3963 44.9795 48.1245C45.0775 48.909 45.0321 49.7897 44.9123 50.6396C44.8596 51.0681 44.7579 51.4785 44.6744 51.8817C44.6181 52.0778 44.5654 52.2703 44.5164 52.4609C44.4946 52.5572 44.4656 52.648 44.4347 52.737C44.4056 52.8278 44.3784 52.9167 44.3512 53.0039L44.3729 52.855C44.3403 52.9476 44.3003 53.0675 44.2495 53.2109C44.1986 53.3544 44.1187 53.5087 44.0406 53.6903C43.9989 53.7793 43.9607 53.8774 43.9099 53.9718C43.8572 54.0662 43.8027 54.1643 43.7465 54.2678C43.6883 54.3695 43.6339 54.4785 43.5685 54.5856C43.4995 54.6891 43.4268 54.7962 43.3542 54.907C43.0673 55.3537 42.6823 55.7932 42.2556 56.2327C42.1412 56.3343 42.0268 56.4397 41.9105 56.5432C41.8524 56.594 41.7961 56.6503 41.7344 56.6993L41.5455 56.8428C41.4184 56.9372 41.2949 57.0389 41.1642 57.1315C41.028 57.2187 40.8936 57.3059 40.7574 57.393C39.6606 58.0813 38.3731 58.488 37.2599 58.7005C36.1413 58.9148 35.1934 58.9148 34.7194 58.9438L34.9755 58.9547C34.1401 59.0038 33.7715 58.9638 33.4555 58.9057C33.2976 58.8766 33.1505 58.8494 32.9616 58.8149C32.7727 58.7731 32.5403 58.7259 32.2098 58.6733C32.3678 58.8585 30.8987 58.7005 30.343 58.5679L30.3721 58.5407C30.1614 58.5062 29.8872 58.4426 29.5676 58.3755C29.4096 58.341 29.2389 58.3083 29.061 58.2647C28.8848 58.2193 28.7014 58.1721 28.5144 58.1249C27.7626 57.9342 26.9527 57.6691 26.2808 57.4094L26.3643 57.3549C25.7923 57.1715 24.9969 56.8319 24.256 56.4705C23.5169 56.1055 22.8305 55.7242 22.4546 55.5081C20.7295 54.5148 18.2907 52.6516 16.2277 50.9646C16.0334 50.7522 15.85 50.5252 15.663 50.3054C15.4796 50.0821 15.2907 49.866 15.1109 49.639L14.9148 49.481C14.9148 49.481 14.6715 49.4864 14.3355 49.5337C13.9996 49.5827 13.5692 49.6735 13.2042 49.8514C12.4815 50.2056 11.9912 50.9337 13.1679 52.4555L13.068 52.4737L13.6273 52.973C14.2702 53.605 14.657 53.7957 14.5553 53.8193C14.2484 53.5451 13.9288 53.2854 13.6328 53.0003C14.292 53.6195 13.7889 53.2363 13.5057 53.0348C13.7762 53.2999 14.0523 53.5414 14.2647 53.7575C14.4209 53.8501 14.1866 53.6468 14.0904 53.5414C14.2865 53.6867 14.5208 53.8628 14.7659 54.0444C15.0074 54.2297 15.2653 54.4167 15.4832 54.6183C15.8428 54.9125 15.8337 54.947 15.8391 54.9942C15.8446 55.0414 15.8664 55.1031 16.2968 55.4318C16.8579 55.8767 17.439 56.2944 18.0183 56.712C18.6084 57.1134 19.195 57.5183 19.8015 57.8924C21.0109 58.6478 22.2548 59.3452 23.5514 59.9608C26.1446 61.1811 28.9284 62.129 31.9447 62.5158C32.0772 62.5666 31.9138 62.5448 31.7377 62.5376C32.1935 62.5884 32.6366 62.6411 33.076 62.6629C33.2957 62.6756 33.5118 62.6956 33.7279 62.7028C33.9458 62.7065 34.1601 62.7101 34.3744 62.7155C34.4815 62.7155 34.5887 62.7192 34.694 62.721L35.0154 62.7101C35.2297 62.701 35.4422 62.6937 35.6546 62.6847C35.8671 62.6756 36.0814 62.6465 36.2938 62.6284C36.5063 62.603 36.7206 62.5902 36.9331 62.5521C37.4143 62.5176 37.5541 62.5467 37.7012 62.5575C37.6267 62.5557 38.1861 62.4522 39.0595 62.2198C39.933 61.991 41.117 61.5515 42.2356 60.9196C42.5207 60.7725 42.7895 60.5909 43.0546 60.4147C43.1871 60.3258 43.3233 60.2441 43.4468 60.1478C43.5721 60.0516 43.6938 59.9571 43.8155 59.8627C43.9353 59.7683 44.0552 59.6757 44.1714 59.5849C44.2803 59.485 44.3893 59.3887 44.4928 59.2925C44.698 59.0982 44.9068 58.9275 45.0703 58.7405C45.2392 58.557 45.3953 58.39 45.5352 58.2393C45.6768 58.0904 45.7785 57.9414 45.8747 57.827C46.0618 57.591 46.1725 57.4493 46.1871 57.4348L46.1907 57.4493Z" fill="#073542"/>
<mask id="mask0_2476_102977" style="mask-type:luminance" maskUnits="userSpaceOnUse" x="2" y="16" width="45" height="45">
<path d="M43.6527 57.1879C49.9768 50.9144 46.6991 37.3567 36.3318 26.9058C25.9645 16.455 12.4335 13.0685 6.10941 19.342C-0.214649 25.6155 3.06304 39.1733 13.4303 49.6241C23.7976 60.075 37.3286 63.4614 43.6527 57.1879Z" fill="white"/>
</mask>
<g mask="url(#mask0_2476_102977)">
<path d="M48.3189 33.3705C52.8551 29.666 49.5665 21.0076 41.2622 25.7472C35.3695 29.1103 32.7473 22.4149 31.8793 17.7988C22.1095 26.1013 12.2072 24.8955 12.2072 24.8955C-3.11202 23.0523 -3.0067 3.7126 15.6775 7.07571C14.3101 -7.04683 36.4282 -9.86153 38.7344 2.57582C49.374 -3.05358 60.6818 4.78582 56.3817 23.657L52.8624 41.5894L48.3189 33.3687V33.3705Z" fill="#073644"/>
<path d="M23.0559 37.5068C23.0777 37.4832 23.0722 37.4559 23.0686 37.4287C23.0504 37.4559 23.045 37.4796 23.0559 37.5068Z" fill="#073542"/>
<path d="M20.5732 32.6201C20.5732 32.6201 20.5787 32.6346 20.5805 32.6419C20.5805 32.6346 20.5769 32.6274 20.5732 32.6201Z" fill="#073542"/>
<path d="M22.8033 36.1321L22.7597 36.1394C22.7434 36.0776 22.8033 36.1085 22.7779 36.054C22.7125 36.0467 22.7579 35.9559 22.7216 35.945C22.727 35.945 22.7216 35.916 22.7397 35.9124C22.7052 35.9124 22.7252 35.8851 22.7107 35.8688C22.6998 35.8651 22.7016 35.876 22.6943 35.8833L22.6725 35.8452C22.678 35.827 22.6962 35.8179 22.7052 35.8343C22.6889 35.7253 22.5836 35.2041 22.5363 35.0934C22.5164 35.1152 22.5418 35.146 22.5073 35.1696C22.4782 35.1442 22.5037 35.1224 22.4764 35.1152C22.5309 35.0879 22.4728 35.0443 22.5236 35.0062H22.4891L22.5055 34.9862C22.4365 34.8609 22.4801 34.9608 22.4564 34.8391C22.4328 34.7719 22.3802 34.752 22.3856 34.7084C22.3856 34.7138 22.3711 34.7338 22.3584 34.7193C22.3856 34.7084 22.3257 34.6775 22.3511 34.6612C22.342 34.6448 22.3311 34.5867 22.2985 34.6176C22.3148 34.6031 22.3094 34.5504 22.3348 34.5758C22.3311 34.5577 22.333 34.5413 22.3202 34.5304L22.3148 34.5559C22.293 34.4996 22.3148 34.4614 22.2712 34.4324L22.2621 34.4578C22.2512 34.4233 22.2403 34.396 22.2749 34.3724L22.2966 34.4051C22.2803 34.3488 22.2694 34.3143 22.2367 34.2726L22.2404 34.2889C22.1859 34.2381 22.0697 33.9312 22.0079 33.8876L21.9843 33.9203L21.9462 33.8785C21.9462 33.8785 22.0497 33.8767 22.0406 33.884C22.0097 33.7823 21.8463 33.2556 21.8408 33.1558C21.8481 33.114 21.8862 33.1358 21.8917 33.1358C21.8681 33.0922 21.8554 33.1249 21.8463 33.0831C21.8481 33.0704 21.8699 33.0795 21.8753 33.0831C21.8681 33.0668 21.8735 33.0486 21.859 33.0504C21.8536 33.0759 21.8154 33.0759 21.7936 33.0904L21.7827 33.0395L21.8063 33.0359C21.8045 33.025 21.7355 33.025 21.7337 32.9705C21.721 32.8834 21.6883 32.7944 21.672 32.7072C21.6865 32.7054 21.6992 32.7199 21.7119 32.7363C21.7101 32.7254 21.701 32.709 21.7083 32.6945C21.6883 32.7218 21.6829 32.6636 21.6756 32.6818C21.6011 32.6346 21.632 32.5402 21.5793 32.4966C21.5267 32.5057 20.6659 32.6146 20.606 32.631C20.6024 32.6128 20.5987 32.5965 20.6024 32.5892C20.5897 32.5983 20.5915 32.6328 20.6024 32.6491L20.6351 32.6437C20.6569 32.6818 20.6187 32.6582 20.6314 32.6981C20.606 32.7072 20.5897 32.6727 20.5788 32.64C20.5842 32.6691 20.5715 32.7036 20.6042 32.709C20.6006 32.7399 20.5715 32.7145 20.5679 32.7508C20.5824 32.7726 20.6169 32.7962 20.6078 32.8271H20.6024C20.5915 32.9015 20.6696 32.9179 20.6587 32.9851L20.6478 32.9814C20.6387 33.0069 20.6696 33.0432 20.6641 33.0849C20.6659 33.0722 20.6841 33.0577 20.6932 33.0795C20.6877 33.1285 20.7131 33.154 20.7004 33.1903L20.7349 33.2139C20.7713 33.3682 20.9692 33.962 21.0128 34.1146L21.0073 34.1091C21.0818 34.3398 21.2089 34.821 21.3088 35.0534C21.2924 35.097 21.3124 35.1479 21.316 35.1878C21.3215 35.1624 21.3415 35.166 21.3451 35.1823C21.3741 35.3022 21.3651 35.186 21.4087 35.3022C21.4686 35.4348 21.583 35.9723 21.5939 36.1012C21.6502 36.1575 21.6429 36.2465 21.6847 36.3046L21.6738 36.301C21.7065 36.3663 21.7755 36.7695 21.8118 36.8457V36.833C21.8572 36.8966 21.8118 36.8984 21.8136 36.9583C21.8536 36.9402 21.8953 36.9928 21.9044 37.0164H21.8953C21.9117 37.0509 21.9698 37.12 21.9916 37.1762L21.968 37.1799C22.0061 37.2216 22.0188 37.3143 22.0315 37.3469C22.0424 37.4287 22.0351 37.5594 22.0933 37.6575L22.0442 37.7428L22.0533 37.7519C22.0533 37.7519 22.8868 37.6466 23.0194 37.4632L23.043 37.4595L23.0321 37.4323C23.0339 37.396 23.003 37.3887 23.0285 37.3851L23.0375 37.4305C23.0357 37.396 23.0539 37.416 23.0702 37.425C23.0702 37.4105 23.0684 37.396 23.072 37.3833C23.0612 37.3796 23.063 37.3905 23.0593 37.3978C23.0466 37.3815 23.0176 37.3633 23.023 37.3379C23.0158 37.3034 23.0593 37.3252 23.0521 37.2852C23.0139 37.0727 22.9885 36.8621 22.9268 36.6533C22.9359 36.646 22.9359 36.6533 22.9431 36.6569C22.9159 36.597 22.905 36.5389 22.8796 36.4844C22.885 36.4662 22.8995 36.4571 22.9068 36.4499C22.8905 36.4644 22.8015 36.1357 22.8051 36.1303L22.8033 36.1321Z" fill="#073542"/>
<path d="M34.5377 49.2544C34.5214 49.2289 34.4905 49.2271 34.4614 49.2217C34.4832 49.2471 34.5068 49.2562 34.5377 49.2544Z" fill="#073542"/>
<path d="M29.9834 51.8273C29.9834 51.8273 29.9907 51.82 29.9961 51.8164C29.9907 51.82 29.9852 51.8219 29.9834 51.8273Z" fill="#073542"/>
<path d="M33.0742 49.2633L33.0778 49.3069C33.0106 49.3178 33.0488 49.2615 32.9889 49.2815C32.9761 49.3468 32.8853 49.296 32.8708 49.3323C32.8708 49.3269 32.8399 49.3323 32.8381 49.3123C32.8363 49.3468 32.8091 49.3269 32.7909 49.3396C32.7855 49.3505 32.7982 49.3486 32.8054 49.3577L32.7655 49.3777C32.7473 49.3704 32.7383 49.3523 32.7564 49.345C32.6402 49.3505 32.0954 49.4594 31.9828 49.5139C32.0046 49.5339 32.0373 49.5048 32.0627 49.5393C32.0373 49.5684 32.0155 49.5466 32.0082 49.572C31.9792 49.5193 31.9356 49.5811 31.8957 49.5302V49.5647L31.8757 49.5502C31.7504 49.6283 31.8503 49.5756 31.7268 49.6083C31.6578 49.6356 31.6396 49.69 31.596 49.6882C31.6015 49.6882 31.6233 49.7009 31.6087 49.7155C31.596 49.6882 31.5688 49.7536 31.5506 49.7282C31.5343 49.7373 31.4762 49.7554 31.5089 49.7863C31.4925 49.7718 31.4399 49.7827 31.4635 49.7536C31.4453 49.759 31.4271 49.7591 31.4181 49.7718H31.4435C31.389 49.8008 31.3454 49.7827 31.3218 49.8317L31.3491 49.839C31.3164 49.8535 31.2891 49.868 31.2601 49.8353L31.291 49.8099C31.2347 49.8317 31.202 49.848 31.162 49.8862L31.1784 49.8807C31.1348 49.9425 30.837 50.0986 30.8079 50.1713L30.8442 50.1876L30.8097 50.233C30.8097 50.233 30.7898 50.1313 30.7988 50.1386C30.7008 50.1822 30.2068 50.4491 30.1124 50.4836C30.0688 50.4872 30.0834 50.4437 30.0815 50.44C30.0434 50.4727 30.0779 50.4782 30.0398 50.4963C30.0271 50.4963 30.0307 50.4745 30.0343 50.4673C30.0198 50.48 29.9998 50.4782 30.0053 50.4909C30.0307 50.4909 30.0416 50.5272 30.0616 50.5454L30.0125 50.5671L30.0035 50.5454C29.9926 50.5508 30.0089 50.618 29.9581 50.6325C29.8763 50.667 29.7964 50.7215 29.7184 50.7651C29.7129 50.7524 29.7238 50.7342 29.7347 50.7179C29.7238 50.7233 29.7111 50.736 29.6947 50.7324C29.7274 50.7433 29.6711 50.7669 29.6911 50.7669C29.6657 50.8504 29.5658 50.8504 29.5386 50.9158C29.5585 50.9648 29.9417 51.7439 29.9835 51.7911C29.9708 51.7984 29.9635 51.802 29.9562 51.8002C29.9671 51.8111 29.9871 51.8056 29.998 51.7875L29.9817 51.7584C30.0053 51.7293 29.9998 51.7711 30.0271 51.7493C30.0434 51.7711 30.0198 51.7947 29.998 51.8111C30.0216 51.8002 30.0525 51.802 30.0452 51.7711C30.0706 51.7675 30.0616 51.8002 30.0924 51.7947C30.1051 51.7766 30.1142 51.7384 30.1451 51.7384V51.7421C30.2123 51.7348 30.2032 51.6585 30.2668 51.6531V51.664C30.2922 51.6676 30.314 51.6295 30.3521 51.6258C30.3412 51.6258 30.3231 51.6131 30.3394 51.6004C30.3848 51.595 30.3993 51.5659 30.4356 51.5695L30.4465 51.5314C30.57 51.4624 31.0621 51.1664 31.1965 51.1083L31.1929 51.1137C31.2891 51.0593 31.4453 50.9939 31.6015 50.9213C31.7577 50.8541 31.9156 50.7869 32.0173 50.7306C32.0591 50.7451 32.1045 50.7233 32.1408 50.7197C32.1172 50.716 32.119 50.6961 32.1335 50.6906C32.2425 50.6598 32.1335 50.6707 32.2407 50.6253C32.3587 50.5563 32.8527 50.4564 32.9707 50.46C33.0234 50.4092 33.1051 50.4219 33.1614 50.3837L33.1577 50.3946C33.2195 50.3674 33.5899 50.3474 33.6644 50.3256L33.6535 50.3202C33.717 50.2893 33.7116 50.3329 33.7643 50.342C33.7534 50.2984 33.806 50.2693 33.8278 50.2639V50.273C33.8587 50.2621 33.9295 50.2185 33.984 50.2076V50.2312C34.0276 50.2003 34.1129 50.2058 34.1438 50.204C34.2182 50.213 34.3326 50.253 34.4307 50.2185L34.4943 50.2857L34.5033 50.2784C34.5033 50.2784 34.5324 50.0696 34.5469 49.8408C34.5615 49.6101 34.5596 49.3577 34.4852 49.2706V49.247L34.458 49.2506C34.4216 49.2397 34.4053 49.2669 34.4089 49.2433H34.458C34.4216 49.2397 34.4471 49.2252 34.4616 49.2125C34.4471 49.2106 34.4325 49.207 34.4198 49.1997C34.4125 49.2088 34.4253 49.2088 34.4307 49.2143C34.4107 49.2234 34.3853 49.247 34.3617 49.2361C34.3254 49.2361 34.3599 49.1979 34.3163 49.1943C34.2019 49.1889 34.0893 49.1743 33.9767 49.1743C33.8641 49.1743 33.7515 49.1798 33.6371 49.1925C33.6317 49.1834 33.6371 49.1834 33.6426 49.178C33.5754 49.1961 33.5118 49.1943 33.4519 49.2143C33.4338 49.207 33.4265 49.1925 33.421 49.1834C33.4338 49.2016 33.0815 49.2578 33.0742 49.2542V49.2633Z" fill="#073542"/>
</g>
<path d="M73.1738 41.9634L105.757 100.197H61.1704L61.174 87.5634L66.2278 88.2661V69.2642L61.1777 67.766L61.1831 49.1472L73.1738 41.9634Z" fill="#786EFF"/>
<path d="M66.2275 69.2642L85.994 73.1212L73.1735 41.9634C73.1735 41.9634 91.6652 48.025 111.096 73.7477C120.847 86.6572 117.508 100.197 105.759 100.197L66.2293 94.3404V69.2642H66.2275Z" fill="#786EFF"/>
<path d="M61.1035 48.853C61.0781 48.9402 61.0744 49.0909 61.0708 49.2326C61.0962 49.1236 61.1071 49.0074 61.1035 48.853Z" fill="#073542"/>
<path d="M77.452 44.2026C77.4229 44.2244 77.3921 44.248 77.3594 44.2735C77.3921 44.2517 77.4229 44.2281 77.452 44.2026Z" fill="#073542"/>
<path d="M60.9943 56.8415L61.0379 56.8324C61.0379 57.4734 60.9888 57.0884 60.9979 57.6822C61.0124 57.7113 61.0197 57.7785 61.0233 57.8675C61.2885 57.6568 61.6662 57.4226 61.8078 57.2864C61.8024 57.2973 62.0385 57.1248 62.0203 57.1611C62.1002 57.0612 62.2673 56.9686 62.418 56.8469C62.4706 56.7961 62.3762 56.8651 62.3363 56.8814L62.6704 56.6199C62.8048 56.5346 62.8484 56.5273 62.7031 56.6381C62.9609 56.451 63.7091 55.9117 64.4609 55.3687C65.1419 54.8748 65.8247 54.3736 66.0698 54.1829C65.9899 54.2102 65.8465 54.3373 65.7648 54.3482C65.8828 54.232 65.9645 54.2102 66.0081 54.1484C66.0934 54.1593 66.3059 53.945 66.4421 53.9196L66.4603 53.8651L66.5383 53.8325C67.0977 53.3748 66.66 53.7217 67.1794 53.3476C67.4736 53.1242 67.588 52.9808 67.7641 52.8737C67.7387 52.8918 67.6606 52.9245 67.7332 52.8591C67.7641 52.8736 67.9257 52.6902 67.982 52.6866C68.0547 52.6285 68.3016 52.4505 68.1963 52.4796C68.249 52.4651 68.4723 52.3107 68.3525 52.4197C68.4269 52.367 68.5014 52.318 68.5486 52.2726L68.4469 52.3343C68.692 52.1455 68.8464 52.071 68.9862 51.9221L68.8845 51.9766C69.0316 51.864 69.1551 51.7696 69.2368 51.7587L69.0915 51.8821C69.3385 51.6987 69.4856 51.5861 69.6781 51.4173L69.6036 51.4699C69.8415 51.2447 71.1926 50.2042 71.4051 49.9863L71.2761 50.0444L71.4686 49.8701C71.4432 49.8882 71.4287 50.0244 71.4014 50.0317C71.8445 49.7012 74.1435 47.9706 74.5666 47.6837C74.7427 47.5747 74.6247 47.7019 74.6265 47.7055C74.8208 47.5475 74.6937 47.6147 74.8662 47.4894C74.9171 47.4585 74.8717 47.5166 74.8481 47.5384C74.9207 47.4803 74.997 47.4367 74.9952 47.4204C74.8953 47.4803 74.9116 47.4204 74.8571 47.4295L75.0805 47.2697L75.086 47.2969C75.135 47.2606 75.1713 47.1516 75.3965 47.0027C75.7688 46.7412 76.161 46.4398 76.5314 46.1728C76.5351 46.1892 76.4624 46.2527 76.3898 46.3163C76.4388 46.28 76.5133 46.2219 76.5641 46.1964C76.4606 46.2418 76.7076 46.0693 76.6331 46.1111C76.8674 45.8641 77.2469 45.6498 77.4612 45.4428C77.4503 45.3847 77.4267 44.3333 77.3904 44.2825C77.4648 44.228 77.5393 44.1753 77.5647 44.1626C77.5375 44.1644 77.3868 44.2661 77.3159 44.3297L77.3232 44.366C77.1525 44.5058 77.2705 44.3805 77.098 44.5094C77.0726 44.4931 77.2288 44.3714 77.3668 44.2661C77.2378 44.3569 77.0998 44.4332 77.0672 44.4967C76.9419 44.5748 77.0599 44.4604 76.911 44.5567C76.8147 44.6384 76.6967 44.76 76.5696 44.8327V44.8272C76.2681 45.0143 76.1592 45.1832 75.8813 45.352L75.9031 45.323C75.8014 45.3775 75.6344 45.5282 75.4582 45.6371C75.5091 45.6063 75.5617 45.5917 75.4637 45.668C75.2621 45.7951 75.1422 45.9041 74.9915 45.9912L74.8735 46.1111C74.207 46.5978 71.6103 48.5662 70.9456 49.062L70.9692 49.0384C69.9614 49.7993 67.8767 51.3392 66.8489 52.1455C66.6709 52.2435 66.4512 52.4142 66.2768 52.5341C66.3767 52.4741 66.3568 52.5123 66.2823 52.5668C65.7648 52.9463 66.2587 52.6067 65.743 53.0026C65.4506 53.235 64.7242 53.7707 64.0033 54.2937C63.6419 54.5552 63.2824 54.8131 62.9809 55.0328C62.8284 55.1417 62.6922 55.2398 62.5742 55.3215C62.4652 55.3996 62.3344 55.4922 62.3508 55.4759C62.3308 55.514 62.2909 55.5467 62.2546 55.5758C62.2164 55.6048 62.1837 55.6284 62.1365 55.6774L62.151 55.6539C62.151 55.6539 62.142 55.6629 62.1311 55.6702C62.1293 55.6448 62.1293 55.5921 62.1311 55.5286C62.1311 55.4977 62.1329 55.4632 62.1347 55.4287V55.3778L62.1383 55.2053C62.1438 54.6097 62.1474 54.0268 62.142 53.8197L62.1365 53.8779C62.1129 53.4983 62.1547 53.5492 62.1692 53.2495C62.1256 53.2895 62.1002 52.9626 62.0966 52.8391L62.1056 52.8446C62.0984 52.6575 62.0602 52.2326 62.0548 51.9239L62.0784 51.9366C62.053 51.6788 62.0639 51.1939 62.0602 51.0087C62.0711 50.5856 62.1129 49.9318 62.0802 49.3653L62.1492 48.9984L62.142 48.944C62.142 48.944 61.3103 48.3538 61.1341 49.1019L61.1105 49.0892L61.1141 49.2363C61.1014 49.4143 61.1305 49.496 61.1069 49.4833L61.1105 49.24C61.1032 49.4179 61.0905 49.2944 61.0778 49.2254C61.076 49.2999 61.0724 49.3725 61.0651 49.4306C61.0742 49.4651 61.076 49.4052 61.0796 49.3762C61.0887 49.4724 61.1105 49.605 61.0996 49.723C61.0978 49.9064 61.0597 49.7339 61.0578 49.9482C61.0397 51.0722 61.0106 52.1618 61.0161 53.2986C61.0052 53.324 61.007 53.2931 61.0016 53.2604C61.007 53.6036 61.0124 53.9051 61.0197 54.2193C61.0088 54.3064 60.9943 54.33 60.9834 54.3555C60.9943 54.33 60.9997 54.7604 61.0016 55.1999C61.0016 55.9934 61.0016 56.7997 61.0016 56.8288L60.9943 56.8415Z" fill="#073542"/>
<path d="M66.2427 70.019C66.3426 70.0681 66.5223 70.108 66.693 70.1498C66.5659 70.0971 66.4297 70.0554 66.2427 70.019Z" fill="#073542"/>
<path d="M71.0347 60.9902C71.0655 61.0211 71.1 61.0574 71.1345 61.0937C71.1019 61.0574 71.0692 61.0211 71.0347 60.9902Z" fill="#073542"/>
<path d="M74.9662 72.0005L75.0007 71.9642C75.4075 72.0514 75.1078 72.0387 75.4855 72.1077C75.6453 72.0786 76.1084 72.2475 76.2446 72.2439C76.241 72.2475 76.4244 72.2893 76.408 72.3056C76.4716 72.2856 76.5987 72.3383 76.7167 72.3547C76.7603 72.3547 76.6877 72.3383 76.6586 72.322L76.9274 72.3674C77.0291 72.4001 77.0509 72.4255 76.9365 72.4037C77.2833 72.4818 78.2875 72.7069 79.2972 72.9358C79.8038 73.0465 80.3105 73.1591 80.739 73.2517C81.4582 73.4043 82.0411 73.5277 82.357 73.5931C82.15 73.5223 81.7033 73.4442 81.5272 73.3661C81.8958 73.4224 82.0865 73.4951 82.2372 73.5023C82.3298 73.5532 82.5459 73.6022 82.7783 73.6567C83.0126 73.7112 83.2614 73.7675 83.4611 73.8419L83.5174 73.8201L83.7481 73.8909C85.0701 74.1452 84.4781 74.0253 85.0374 74.1524C84.9684 74.0762 84.8413 73.94 84.6451 73.7257C84.0132 73.0574 83.6445 72.7305 83.3449 72.3855C83.3939 72.44 83.4884 72.5689 83.3231 72.4055C83.3413 72.3819 82.8909 71.9751 82.8601 71.897C82.7057 71.7372 82.2299 71.2233 82.357 71.4176C82.3425 71.394 82.3044 71.3468 82.2608 71.296C82.239 71.2705 82.2172 71.2433 82.1954 71.2179C82.1845 71.2033 82.1718 71.187 82.1627 71.1743C82.1228 71.1216 82.1046 71.0926 82.1773 71.1579C82.101 71.0744 82.0302 70.9909 81.9684 70.9382L82.0592 71.0508C81.7941 70.7766 81.6761 70.6041 81.48 70.4461L81.5653 70.5605C81.4073 70.3953 81.2748 70.2591 81.2439 70.1665L81.4128 70.3299C81.1549 70.0539 80.9969 69.8904 80.7663 69.6743L80.8426 69.7579C80.5393 69.4927 79.0829 67.9801 78.7942 67.744L78.8886 67.8893L78.6525 67.675C78.678 67.7022 78.8305 67.7186 78.845 67.7494C78.3783 67.2537 75.9413 64.6805 75.5273 64.2065C75.3657 64.0086 75.5328 64.1394 75.5382 64.1394C75.3185 63.9214 75.4238 64.0649 75.2458 63.8706C75.2004 63.8143 75.2731 63.8652 75.304 63.8906C75.2222 63.8089 75.1569 63.7235 75.1405 63.7271C75.2313 63.8397 75.1605 63.8216 75.1841 63.8833L74.9553 63.6345L74.9825 63.6291C74.9317 63.5728 74.8046 63.5346 74.5867 63.284C74.2126 62.8682 73.7913 62.4287 73.4099 62.0147C73.4263 62.0111 73.5134 62.091 73.6006 62.1727C73.5498 62.1164 73.468 62.0347 73.4281 61.9784C73.5025 62.0946 73.2538 61.8168 73.3191 61.9021C72.9941 61.6406 72.669 61.2139 72.3912 60.976C72.3313 60.9887 71.1927 61.0287 71.1455 61.0722C71.0692 60.9887 70.9929 60.9052 70.9729 60.8779C70.982 60.9088 71.1291 61.0759 71.2145 61.1576L71.2526 61.1485C71.4469 61.3392 71.2816 61.2084 71.4632 61.4009C71.4523 61.43 71.2816 61.2557 71.1327 61.1013C71.2617 61.2448 71.3797 61.3991 71.456 61.4354C71.5722 61.5753 71.4178 61.4445 71.5577 61.6116C71.6703 61.7205 71.8301 61.8513 71.9408 61.9929H71.9354C72.2114 62.3325 72.4221 62.4523 72.6727 62.7629L72.6363 62.7374C72.7199 62.8519 72.9251 63.0389 73.0867 63.2368C73.0413 63.1805 73.0122 63.1206 73.1194 63.2296C73.3064 63.4547 73.4553 63.5891 73.5843 63.7598L73.7441 63.8906C74.4341 64.6369 77.2016 67.5424 77.9026 68.2851L77.8717 68.2597C78.4056 68.8263 79.2191 69.6889 80.0399 70.5569C80.4503 70.9909 80.8625 71.4249 81.2402 71.8244C81.2875 71.8734 81.3347 71.9225 81.3801 71.9715L81.4091 72.0005C81.4255 72.0151 81.4418 72.0314 81.4582 72.0459C81.4963 72.0786 81.5308 72.1095 81.5617 72.1386C81.5381 72.1513 81.5835 72.1912 81.5907 72.2094C81.6071 72.213 81.6561 72.2403 81.6743 72.2566H81.6706C81.5944 72.2384 81.6016 72.2439 81.6125 72.253C81.6234 72.262 81.6416 72.2747 81.5599 72.262C81.5163 72.2584 81.4237 72.2421 81.3074 72.2185C80.8716 72.124 80.3613 72.0133 79.8547 71.9025C78.7833 71.6664 77.7246 71.4267 77.3287 71.3286C76.8911 71.276 76.3626 71.1307 75.9359 71.0653H75.9795C75.5255 70.9836 72.9777 70.3989 72.4493 70.3008L72.5183 70.3208C72.0552 70.2463 72.1279 70.2173 71.7701 70.1283C71.8083 70.181 71.4106 70.1229 71.2599 70.0938L71.2671 70.0847C71.0401 70.043 70.5208 69.9721 70.1485 69.8977L70.1685 69.8777C69.8525 69.8359 69.2714 69.7016 69.048 69.6562C68.5396 69.5363 67.7605 69.3275 67.0723 69.2113L66.6456 69.0496L66.5802 69.0424C66.5802 69.0424 65.6958 69.7034 66.5602 70.0702L66.5402 70.0902L66.7182 70.1247C66.9288 70.1828 67.0342 70.1755 67.0142 70.1973L66.7218 70.1319C66.9343 70.1846 66.7818 70.1646 66.6982 70.161C66.7872 70.1828 66.8744 70.2046 66.9434 70.2264C66.987 70.2264 66.9143 70.21 66.8816 70.1973C66.9997 70.2137 67.1649 70.2264 67.3029 70.2663C67.5227 70.3154 67.3084 70.3081 67.5644 70.3644C68.9137 70.6731 70.2211 70.9818 71.5904 71.2687C71.6194 71.2851 71.5831 71.276 71.5413 71.2724C71.9554 71.3541 72.3222 71.4267 72.6999 71.503C72.8016 71.5357 72.827 71.5556 72.8561 71.5738C72.827 71.5575 73.3464 71.6628 73.8766 71.7754C74.1418 71.8317 74.4105 71.888 74.6139 71.9315C74.8173 71.9769 74.9553 72.0078 74.9662 72.0096V72.0005Z" fill="#073542"/>
<path d="M39.1524 61.1411C39.1233 61.261 39.1923 61.3917 39.254 61.5206C39.2686 61.3845 39.2413 61.2664 39.1524 61.1411Z" fill="#073542"/>
<path d="M39.2539 61.5245C39.2539 61.5245 39.2539 61.5245 39.2557 61.5245C39.2557 61.5245 39.2557 61.5209 39.2539 61.519C39.2539 61.519 39.2539 61.5209 39.2539 61.5227V61.5245Z" fill="#073542"/>
<path d="M56.8432 82.9399C56.816 82.9108 56.796 82.8763 56.7778 82.8418C56.8014 82.8763 56.8232 82.909 56.8432 82.9399Z" fill="#073542"/>
<path d="M46.7864 67.6858L42.2865 67.0085C42.0232 66.5836 41.6582 66.0043 41.64 66.0497C41.6546 66.0116 41.6855 65.9661 41.6709 65.8735C41.4802 65.6266 41.3332 65.3614 41.1261 65.089C41.157 65.109 41.1715 65.1345 41.1861 65.0963C40.585 64.1393 40.102 63.1642 39.5735 62.1745C39.4718 61.9892 39.6643 62.071 39.5771 61.9112C39.5481 61.7931 39.4137 61.7187 39.3411 61.6515C39.3393 61.6842 39.3701 61.7368 39.3247 61.7241C39.3157 61.6606 39.2866 61.5934 39.2539 61.5262C39.3284 61.5607 39.4301 61.6442 39.3574 61.4808L39.4736 61.6932C39.5499 61.6624 39.4264 61.6406 39.3683 61.4681L39.283 61.3482L39.3592 61.3155C39.4773 60.3731 42.1503 59.436 42.1503 59.436L42.1975 59.4705L42.1903 59.9009C42.5734 60.3277 42.7914 60.956 42.982 61.3337C43.0855 61.488 43.3053 61.9184 43.5123 62.0928L43.4378 62.1254C43.614 62.3779 43.9427 62.672 44.0589 62.8191L44.0298 62.83C44.1043 62.9299 44.3422 63.1642 44.4493 63.0552C44.5655 63.333 44.4148 63.3621 44.6817 63.6436L44.6672 63.5836C44.9323 63.9305 45.9238 65.7991 46.1599 66.0914L46.1145 66.0787C46.3415 66.3057 46.5449 67.4407 46.7864 67.6858Z" fill="#073542"/>
<path d="M43.9443 67.1538C43.9679 67.1847 44.0152 67.1938 44.0606 67.2065C44.0297 67.1756 43.9934 67.1593 43.9443 67.1538Z" fill="#073542"/>
<path d="M53.0621 67.4446C53.0512 67.4446 53.0385 67.4409 53.0239 67.4409C53.0366 67.4445 53.0493 67.4464 53.0621 67.4446Z" fill="#073542"/>
<path d="M46.2503 67.6317L46.2648 67.5899C46.3719 67.6062 46.2884 67.6444 46.3901 67.6498C46.4391 67.5953 46.5553 67.6825 46.5935 67.6553C46.5935 67.6607 46.6407 67.6698 46.6352 67.6879C46.6552 67.6571 46.6861 67.688 46.7188 67.6843C46.7315 67.6771 46.7115 67.6734 46.706 67.6625H46.7787C46.8041 67.6771 46.8077 67.697 46.7787 67.697C46.9603 67.7388 47.841 67.9095 48.0426 67.9258C48.0208 67.8968 47.9572 67.904 47.9409 67.8605C47.9972 67.8459 48.0172 67.8804 48.0444 67.8605C48.0553 67.9222 48.157 67.8931 48.1879 67.9585L48.2078 67.9277L48.2314 67.9513C48.4675 67.9531 48.2877 67.9422 48.4911 67.9839C48.611 67.9985 48.6745 67.9603 48.7363 67.9876C48.7272 67.9858 48.7036 67.9622 48.7363 67.9585C48.7363 67.9876 48.8216 67.9513 48.8307 67.9821C48.8616 67.9821 48.9578 68.0021 48.9306 67.9567C48.9433 67.9785 49.0286 68.0003 48.976 68.0094C49.005 68.0148 49.0323 68.0257 49.0559 68.0203L49.0196 68.0039C49.1194 68.013 49.1685 68.053 49.2393 68.0275L49.2048 68.0057C49.2647 68.013 49.3137 68.0166 49.3319 68.0602H49.2683C49.3664 68.0766 49.4263 68.0838 49.5117 68.0766L49.4826 68.0711C49.5934 68.0493 50.1436 68.102 50.2471 68.0693L50.2072 68.0312L50.2943 68.0185C50.2853 68.0166 50.238 68.1111 50.2326 68.1002C50.4106 68.1256 51.3331 68.2473 51.4947 68.2945C51.5582 68.3217 51.4983 68.3453 51.4965 68.349C51.5782 68.349 51.5364 68.3217 51.6036 68.3362C51.6218 68.3453 51.5964 68.3598 51.5855 68.3617C51.6163 68.3617 51.6418 68.378 51.6472 68.3635C51.6109 68.3471 51.6327 68.3108 51.6218 68.2836L51.709 68.2999L51.7017 68.3235C51.7217 68.3272 51.7616 68.2654 51.8452 68.2927C51.9886 68.3253 52.1484 68.3435 52.2937 68.3707C52.2882 68.3853 52.2574 68.3889 52.2247 68.3925C52.2447 68.3962 52.2755 68.398 52.2919 68.4107C52.261 68.3798 52.3554 68.4034 52.33 68.3889C52.4462 68.3471 52.577 68.4234 52.6769 68.398C52.6932 68.3471 53.0219 67.5282 53.0328 67.4664C53.0618 67.4719 53.0909 67.4773 53.1 67.4846C53.0945 67.4682 53.0382 67.4519 53.0055 67.4555L52.9946 67.4882C52.922 67.4882 52.9819 67.4664 52.9129 67.4573C52.9129 67.4301 52.9783 67.4337 53.0346 67.4392C52.9856 67.4283 52.9383 67.3992 52.9129 67.4265C52.8675 67.4083 52.9238 67.3938 52.8693 67.3738C52.8276 67.3738 52.7695 67.3938 52.7259 67.3702V67.3647C52.6187 67.3193 52.5479 67.3792 52.448 67.3338L52.4608 67.3266C52.4263 67.3048 52.3518 67.3157 52.2882 67.2866C52.3064 67.2957 52.3191 67.3175 52.2792 67.3139C52.2065 67.2848 52.152 67.2939 52.0994 67.263L52.0413 67.2812C51.778 67.234 50.7302 67.1069 50.4632 67.0687H50.4741C50.0673 67.0161 49.2393 66.8817 48.8162 66.8526C48.7562 66.8163 48.6654 66.8072 48.6001 66.7909C48.6364 66.8072 48.62 66.8254 48.591 66.8181C48.3858 66.7818 48.5746 66.8345 48.364 66.8127C48.1207 66.8 47.2109 66.6256 47.002 66.5693C46.8822 66.5893 46.7442 66.5385 46.628 66.5457L46.6407 66.5385C46.519 66.5348 45.8453 66.3896 45.7037 66.3823L45.7218 66.3914C45.5965 66.3968 45.6201 66.3569 45.5257 66.3278C45.5311 66.3732 45.424 66.3823 45.3822 66.3787L45.3859 66.3696C45.3241 66.3678 45.1825 66.3841 45.0826 66.3732L45.0899 66.3496C45.0027 66.3623 44.8502 66.326 44.7902 66.3206C44.6559 66.2897 44.4543 66.2152 44.2672 66.217L44.1601 66.1299L44.1419 66.1335C44.1419 66.1335 43.8223 66.9253 44.0348 67.1377L44.0275 67.1613L44.0748 67.165C44.1292 67.1849 44.1601 67.1632 44.1528 67.1849L44.0748 67.1704C44.1311 67.1868 44.0893 67.1922 44.0657 67.2031C44.0893 67.2085 44.1111 67.2158 44.1292 67.2267C44.1419 67.2194 44.122 67.2158 44.1147 67.2085C44.1474 67.2049 44.1928 67.1886 44.2291 67.2067C44.2872 67.2176 44.2273 67.2467 44.2945 67.2594C44.6504 67.3357 44.9954 67.4174 45.3604 67.47C45.3677 67.4809 45.3568 67.4791 45.3459 67.4827C45.4567 67.49 45.5529 67.5082 45.6546 67.5136C45.68 67.5282 45.6855 67.5445 45.6928 67.5554C45.68 67.5336 46.2466 67.6208 46.2557 67.628L46.2503 67.6317Z" fill="#073542"/>
<path d="M40.0933 71.7593C40.1169 71.7901 40.1623 71.7992 40.2058 71.8101C40.175 71.7792 40.1405 71.7647 40.0933 71.7593Z" fill="#073542"/>
<path d="M48.9387 71.9226C48.9278 71.9226 48.9151 71.9208 48.9023 71.9189C48.9151 71.9208 48.926 71.9226 48.9387 71.9226Z" fill="#073542"/>
<path d="M42.3324 72.2042L42.3452 72.1625C42.4505 72.177 42.3688 72.2169 42.4668 72.2206C42.514 72.1661 42.6266 72.2515 42.6648 72.2242C42.6648 72.2297 42.7102 72.2387 42.7047 72.2569C42.7247 72.226 42.7537 72.2569 42.7864 72.2533C42.7991 72.246 42.7792 72.2424 42.7737 72.2315H42.8445C42.87 72.2442 42.8736 72.266 42.8445 72.2642C43.0225 72.3023 43.876 72.4621 44.0703 72.4748C44.0485 72.4457 43.9868 72.4548 43.9704 72.4113C44.0249 72.3967 44.0449 72.4294 44.0703 72.4113C44.0812 72.473 44.1811 72.4421 44.2101 72.5075L44.2301 72.4766L44.2519 72.5002C44.4807 72.5002 44.3064 72.4912 44.5025 72.5293C44.6187 72.542 44.6804 72.5039 44.7404 72.5293C44.7313 72.5293 44.7077 72.5039 44.7404 72.5002C44.7404 72.5293 44.8221 72.4911 44.833 72.522C44.862 72.522 44.9565 72.5402 44.931 72.4966C44.9438 72.5184 45.0273 72.5402 44.9746 72.5493C45.0037 72.5547 45.0291 72.5638 45.0509 72.5583L45.0164 72.542C45.1126 72.5511 45.1617 72.5892 45.2289 72.562L45.1962 72.5402C45.2543 72.5456 45.3033 72.5511 45.3197 72.5928L45.2597 72.5965C45.356 72.6092 45.4123 72.6165 45.4958 72.6074L45.4667 72.6019C45.5739 72.5783 46.1078 72.6237 46.2076 72.5892L46.1695 72.5529L46.253 72.5384C46.244 72.5366 46.2004 72.631 46.1931 72.6201C46.3656 72.6437 47.2627 72.7526 47.4171 72.7962C47.4788 72.8235 47.4207 72.8471 47.4207 72.8507C47.5006 72.8507 47.4588 72.8235 47.5242 72.8362C47.5424 72.8453 47.5169 72.8598 47.506 72.8616C47.5351 72.8616 47.5605 72.8761 47.566 72.8616C47.5315 72.8453 47.5514 72.8089 47.5405 72.7835L47.6259 72.7999L47.6186 72.8235C47.6368 72.8271 47.6767 72.7654 47.7585 72.7908C47.8983 72.8217 48.0526 72.8362 48.1943 72.8634C48.1907 72.8779 48.1598 72.8816 48.1271 72.8852C48.1453 72.8888 48.1761 72.8888 48.1907 72.9016C48.1598 72.8707 48.2524 72.8943 48.227 72.8798C48.3396 72.8362 48.4667 72.9106 48.5647 72.8852C48.5811 72.8344 48.8952 72.0117 48.9043 71.95C48.9334 71.9555 48.9606 71.9609 48.9679 71.9663C48.9624 71.95 48.9079 71.9355 48.8771 71.9391L48.8662 71.9718C48.7954 71.9718 48.8535 71.95 48.7863 71.9409C48.7863 71.9137 48.8498 71.9155 48.9043 71.9209C48.8553 71.9101 48.8099 71.8828 48.7863 71.9101C48.7427 71.8919 48.7972 71.8774 48.7427 71.8574C48.7027 71.8592 48.6465 71.8792 48.6029 71.8574V71.8519C48.4994 71.8065 48.4304 71.8683 48.3341 71.8247L48.3468 71.8174C48.3141 71.7956 48.2415 71.8065 48.1798 71.7811C48.1979 71.7902 48.2106 71.812 48.1707 71.8084C48.0999 71.7793 48.0472 71.7902 47.9963 71.7611L47.9401 71.7811C47.684 71.7375 46.6671 71.6249 46.4092 71.5904L46.4201 71.5868C46.0261 71.5414 45.2216 71.4198 44.8112 71.3961C44.7531 71.3598 44.6659 71.3544 44.6005 71.3362C44.635 71.3526 44.6205 71.3689 44.5915 71.3635C44.3935 71.3308 44.5751 71.3798 44.3717 71.3616C44.1357 71.3507 43.2531 71.1909 43.0497 71.1383C42.9335 71.1601 42.7991 71.111 42.6884 71.1183L42.7011 71.111C42.583 71.1092 41.9293 70.9748 41.7913 70.9676L41.8094 70.9767C41.6878 70.9839 41.7096 70.9422 41.6188 70.9167C41.6242 70.9621 41.5189 70.9712 41.4808 70.9694L41.4844 70.9603C41.4245 70.9603 41.2883 70.9767 41.1902 70.9694L41.1975 70.9458C41.1139 70.9603 40.965 70.9258 40.9069 70.9204C40.7762 70.8913 40.5801 70.8187 40.3985 70.8241L40.295 70.7388L40.2768 70.7424C40.2768 70.7424 39.9717 71.5378 40.1769 71.7466L40.1697 71.7702L40.2169 71.7739C40.2695 71.7938 40.3004 71.7702 40.2931 71.7938L40.2187 71.7793C40.2732 71.7938 40.2332 71.8011 40.2096 71.812C40.2332 71.8174 40.255 71.8247 40.2714 71.8338C40.2841 71.8265 40.2641 71.8229 40.2568 71.8156C40.2877 71.812 40.3331 71.7957 40.3676 71.812C40.4239 71.8229 40.3658 71.8519 40.4312 71.8628C40.778 71.9337 41.1121 72.0117 41.4644 72.059C41.4717 72.0699 41.4608 72.068 41.4499 72.0717C41.557 72.0771 41.6515 72.0953 41.7495 72.0989C41.7749 72.1134 41.7804 72.1298 41.7858 72.1407C41.7731 72.1189 42.3234 72.1988 42.3324 72.206V72.2042Z" fill="#073542"/>
<path d="M41.1895 75.8413C41.2094 75.8704 41.2494 75.8794 41.2875 75.8903C41.2621 75.8613 41.2312 75.8449 41.1895 75.8413Z" fill="#073542"/>
<path d="M48.9438 75.8435C48.9347 75.8435 48.9238 75.8417 48.9111 75.8398C48.922 75.8417 48.9329 75.8435 48.9438 75.8435Z" fill="#073542"/>
<path d="M43.1435 76.2446L43.1562 76.2028C43.247 76.2155 43.1762 76.2555 43.2615 76.2573C43.3033 76.201 43.4014 76.2845 43.4359 76.2573C43.4359 76.2627 43.4758 76.27 43.4704 76.2882C43.4885 76.2573 43.514 76.2882 43.5412 76.2827C43.5521 76.2754 43.5358 76.2718 43.5303 76.2609L43.592 76.2573C43.6138 76.2718 43.6175 76.2918 43.592 76.2918C43.7464 76.3263 44.4927 76.4698 44.6634 76.4788C44.6453 76.4498 44.5908 76.4589 44.5763 76.4171C44.6235 76.4026 44.6398 76.4352 44.6634 76.4135C44.6725 76.4752 44.7597 76.4425 44.7833 76.5061L44.8015 76.4752L44.8214 76.4988C45.023 76.4934 44.8687 76.4879 45.0412 76.5224C45.1429 76.5315 45.1973 76.4934 45.25 76.5188C45.2409 76.5188 45.2228 76.4934 45.25 76.4897C45.25 76.5188 45.3226 76.4788 45.3299 76.5097C45.3553 76.5097 45.4389 76.526 45.4152 76.4825C45.4261 76.5042 45.4988 76.5242 45.4516 76.5333C45.477 76.5388 45.4988 76.5478 45.5188 76.5424L45.4879 76.526C45.5732 76.5333 45.6132 76.5696 45.6731 76.5424L45.6441 76.5224C45.6949 76.5279 45.7367 76.5315 45.7512 76.5733L45.6985 76.5769C45.7821 76.5878 45.8329 76.5932 45.9055 76.5823L45.8801 76.5769C45.9746 76.5515 46.4412 76.5878 46.5302 76.5496L46.4975 76.5133L46.572 76.4988C46.572 76.4988 46.523 76.5932 46.5175 76.5823C46.6682 76.6023 47.4527 76.6949 47.5871 76.7367C47.6398 76.7621 47.5907 76.7875 47.5871 76.7912C47.6561 76.7912 47.6216 76.7639 47.6779 76.7748C47.6924 76.7821 47.6706 76.7984 47.6616 76.8021C47.687 76.8021 47.7088 76.8166 47.7142 76.8021C47.6834 76.7857 47.7033 76.7512 47.6942 76.724L47.7687 76.7385L47.7614 76.7621C47.7778 76.7658 47.8141 76.7022 47.8849 76.7276C48.0066 76.7567 48.1428 76.7676 48.2645 76.7912C48.2608 76.8057 48.2336 76.8093 48.2063 76.8148C48.2227 76.8184 48.2481 76.8184 48.2626 76.8311C48.2372 76.8021 48.3171 76.822 48.2953 76.8075C48.3952 76.7621 48.5042 76.8329 48.5913 76.8075C48.6058 76.7567 48.8982 75.9304 48.9073 75.8687C48.9327 75.8741 48.9563 75.8778 48.9636 75.885C48.96 75.8687 48.9109 75.8541 48.8837 75.8596L48.8746 75.8923C48.8129 75.8959 48.8637 75.8705 48.8056 75.8632C48.8056 75.836 48.8619 75.8378 48.9091 75.8414C48.8673 75.8324 48.8274 75.8051 48.8056 75.8324C48.7675 75.8142 48.8147 75.7997 48.7693 75.7815C48.733 75.7851 48.6839 75.8051 48.6476 75.7815V75.7761C48.5568 75.7343 48.4951 75.796 48.4115 75.7543L48.4224 75.747C48.3934 75.727 48.3298 75.7379 48.2753 75.7143C48.2899 75.7216 48.3008 75.7434 48.2681 75.7416C48.2063 75.7143 48.1591 75.7252 48.1155 75.698L48.0665 75.718C47.8432 75.6798 46.9533 75.5854 46.7282 75.5563L46.7372 75.5527C46.3922 75.5146 45.6895 75.4074 45.3299 75.3929C45.2791 75.3584 45.2028 75.3529 45.1465 75.3366C45.1774 75.3529 45.1628 75.3693 45.1374 75.3638C44.9631 75.3348 45.1229 75.3802 44.9449 75.3638C44.7379 75.3584 43.9661 75.2149 43.79 75.1659C43.6883 75.1913 43.5703 75.1423 43.4722 75.1532L43.4831 75.1459C43.3796 75.1459 42.8094 75.0243 42.6877 75.0188L42.7022 75.0261C42.5951 75.0352 42.6151 74.9952 42.537 74.9698C42.5406 75.0152 42.4498 75.0261 42.4153 75.0243V75.0152C42.3663 75.0152 42.2446 75.0352 42.1611 75.0297L42.1684 75.0061C42.0939 75.0206 41.965 74.9916 41.9141 74.9861C41.7997 74.9589 41.629 74.8917 41.471 74.899L41.382 74.8154L41.3657 74.8209C41.3657 74.8209 41.0824 75.6199 41.2604 75.8251L41.2531 75.8487L41.2931 75.8523C41.3403 75.8705 41.3657 75.8469 41.3584 75.8705L41.2931 75.8578C41.3403 75.8723 41.304 75.8796 41.284 75.8905C41.304 75.8959 41.3239 75.9014 41.3385 75.9104C41.3494 75.9032 41.333 75.8995 41.3258 75.8941C41.353 75.8905 41.3929 75.8723 41.422 75.8887C41.471 75.8977 41.4202 75.9286 41.4765 75.9395C41.7797 76.0031 42.0703 76.0757 42.379 76.1156C42.3844 76.1265 42.3754 76.1247 42.3663 76.1284C42.4607 76.132 42.5424 76.1483 42.6296 76.1501C42.6514 76.1647 42.655 76.1792 42.6605 76.1901C42.6496 76.1683 43.1308 76.2373 43.1381 76.2446H43.1435Z" fill="#073542"/>
<path d="M43.5015 80.7388C43.5214 80.7678 43.5614 80.7769 43.5977 80.786C43.5723 80.7569 43.5432 80.7406 43.5015 80.7388Z" fill="#073542"/>
<path d="M45.4225 81.1294L45.4352 81.0876C45.526 81.1003 45.4534 81.1403 45.5387 81.1421C45.5805 81.0858 45.6749 81.1694 45.7094 81.1421C45.7094 81.1476 45.7494 81.1548 45.7439 81.173C45.7621 81.1421 45.7875 81.173 45.8129 81.1675C45.8238 81.1603 45.8075 81.1566 45.802 81.1457L45.8619 81.1421C45.8837 81.1566 45.8855 81.1766 45.8619 81.1766C46.0145 81.2111 46.7463 81.3491 46.9152 81.3582C46.897 81.331 46.8444 81.34 46.8298 81.2983C46.877 81.2819 46.8934 81.3146 46.9152 81.2946C46.9243 81.3564 47.0096 81.3219 47.0332 81.3873L47.0514 81.3564L47.0695 81.38C47.2675 81.3727 47.1168 81.3691 47.2856 81.4018C47.3855 81.4109 47.4382 81.3727 47.4908 81.3963C47.4836 81.3963 47.4636 81.3709 47.4908 81.3673C47.4908 81.3963 47.5617 81.3564 47.5707 81.3873C47.5962 81.3873 47.6761 81.4036 47.6561 81.3582C47.667 81.38 47.7378 81.3982 47.6924 81.4091C47.716 81.4145 47.7396 81.4236 47.7578 81.4163L47.7287 81.4C47.8123 81.4054 47.8522 81.4436 47.9121 81.4145L47.8831 81.3945C47.9321 81.4 47.9739 81.4018 47.9884 81.4436L47.9357 81.449C48.0175 81.4599 48.0665 81.4653 48.1391 81.4526L48.1155 81.4472C48.2081 81.42 48.6676 81.4545 48.7547 81.4163L48.722 81.38L48.7947 81.3637C48.7947 81.3637 48.7475 81.4581 48.742 81.4472C48.8891 81.4653 49.6609 81.5543 49.7934 81.5943C49.8461 81.6197 49.7971 81.6433 49.7934 81.6488C49.8624 81.6488 49.8261 81.6197 49.8842 81.6306C49.8988 81.6379 49.877 81.6542 49.8679 81.6578C49.8933 81.6578 49.9151 81.6724 49.9187 81.6578C49.8897 81.6415 49.9079 81.607 49.8988 81.5797L49.9714 81.5943L49.9641 81.6179C49.9805 81.6215 50.015 81.558 50.0858 81.5816C50.2057 81.6088 50.3382 81.6197 50.4599 81.6433C50.4563 81.6578 50.429 81.6615 50.4018 81.6669C50.4181 81.6706 50.4435 81.6705 50.4563 81.6833C50.4308 81.6542 50.5107 81.6742 50.489 81.6597C50.587 81.6143 50.6941 81.6851 50.7795 81.656C50.794 81.6052 51.0791 80.7771 51.0882 80.7154C51.1118 80.7208 51.1372 80.7244 51.1427 80.7317C51.1391 80.7154 51.0918 80.7027 51.0646 80.7063L51.0555 80.739C50.9956 80.7426 51.0446 80.7172 50.9865 80.7117C50.9865 80.6845 51.041 80.6863 51.0882 80.6899C51.0464 80.6809 51.0083 80.6554 50.9865 80.6827C50.9484 80.6663 50.9956 80.65 50.9502 80.6318C50.9157 80.6355 50.8667 80.6554 50.8303 80.6318V80.6264C50.7414 80.5846 50.6814 80.6464 50.5997 80.6064L50.6106 80.5992C50.5834 80.5792 50.5198 80.5919 50.4672 80.5665C50.4817 80.5737 50.4926 80.5955 50.4599 80.5937C50.4 80.5665 50.3528 80.5774 50.311 80.5501L50.262 80.5701C50.0422 80.532 49.1688 80.4448 48.9472 80.4157L48.9563 80.4121C48.6185 80.3758 47.9267 80.2741 47.5744 80.2596C47.5235 80.2251 47.4491 80.2214 47.3946 80.2051C47.4236 80.2214 47.4109 80.2378 47.3873 80.2323C47.2166 80.2051 47.3728 80.2487 47.1985 80.2341C46.9951 80.2305 46.2378 80.0907 46.0635 80.0417C45.9636 80.0671 45.8492 80.0199 45.7512 80.0308L45.7621 80.0235C45.6604 80.0235 45.0992 79.9055 44.9812 79.9018L44.9957 79.9091C44.8904 79.9182 44.9104 79.8782 44.8323 79.8528C44.8359 79.8982 44.7451 79.9109 44.7125 79.9091V79.9C44.6634 79.9 44.5454 79.9218 44.4619 79.9145L44.4691 79.8909C44.3965 79.9073 44.2694 79.8764 44.2185 79.8728C44.1077 79.8455 43.9389 79.7802 43.7827 79.7892L43.6955 79.7075L43.681 79.713C43.681 79.713 43.4032 80.5138 43.5775 80.7172L43.5702 80.7408H43.6102C43.6556 80.7626 43.681 80.7372 43.6756 80.7608L43.612 80.7481C43.6592 80.7626 43.6229 80.7698 43.6029 80.7807C43.6229 80.7862 43.6411 80.7916 43.6556 80.8007C43.6665 80.7935 43.6501 80.7898 43.6429 80.7844C43.6701 80.7789 43.7082 80.7626 43.7373 80.7771C43.7863 80.7862 43.7355 80.8171 43.7918 80.8279C44.0896 80.8897 44.3747 80.9605 44.678 80.9986C44.6834 81.0095 44.6761 81.0077 44.6652 81.0114C44.7579 81.015 44.8378 81.0295 44.9231 81.0313C44.9449 81.0459 44.9485 81.0604 44.954 81.0713C44.9431 81.0495 45.4152 81.1167 45.4225 81.1221V81.1294Z" fill="#073542"/>
</svg>
