<svg width="88" height="92" viewBox="0 0 88 92" fill="none" xmlns="http://www.w3.org/2000/svg">
<g clip-path="url(#clip0_3182_78047)">
<path d="M44 91.061C68.3005 91.061 88 71.3616 88 47.061C88 22.7605 68.3005 3.06104 44 3.06104C19.6995 3.06104 0 22.7605 0 47.061C0 71.3616 19.6995 91.061 44 91.061Z" fill="#F7F2FF"/>
<path d="M80.572 35.2292C75.2782 35.2047 69.9844 35.1856 64.6914 35.1733C64.6983 39.3828 64.6914 43.5923 64.6685 47.8017C68.8978 47.7711 73.1264 47.7267 77.3558 47.6701C79.1066 47.6456 80.5421 46.2369 80.5544 44.5266C80.5766 41.4275 80.5819 38.3283 80.572 35.2292Z" fill="url(#paint0_linear_3182_78047)"/>
<path d="M80.572 35.2292C75.2782 35.2047 69.9844 35.1856 64.6914 35.1733C64.6983 39.3828 64.6914 43.5923 64.6685 47.8017C68.8978 47.7711 73.1264 47.7267 77.3558 47.6701C79.1066 47.6456 80.5421 46.2369 80.5544 44.5266C80.5766 41.4275 80.5819 38.3283 80.572 35.2292Z" fill="#01855F"/>
<path d="M80.4924 25.9317C75.2124 25.8299 69.9316 25.7534 64.6509 25.7021C64.68 29.9108 64.6937 34.1211 64.6937 38.3305L77.4002 38.329C79.154 38.3275 80.5773 36.9394 80.572 35.2299C80.5613 32.1307 80.5345 29.0316 80.4924 25.9325V25.9317Z" fill="url(#paint1_linear_3182_78047)"/>
<path d="M80.4924 25.9317C75.2124 25.8299 69.9316 25.7534 64.6509 25.7021C64.68 29.9108 64.6937 34.1211 64.6937 38.3305L77.4002 38.329C79.154 38.3275 80.5773 36.9394 80.572 35.2299C80.5613 32.1307 80.5345 29.0316 80.4924 25.9325V25.9317Z" fill="#00BA84"/>
<path fill-rule="evenodd" clip-rule="evenodd" d="M66.3159 5.36279C69.7824 5.46992 73.2495 5.60919 76.7152 5.7806C77.0909 5.79897 77.4307 5.97956 77.684 6.23591C77.9357 6.48996 78.111 6.82742 78.124 7.19702C78.3421 13.4511 78.4936 19.7045 78.5793 25.9586C78.5839 26.2647 78.4591 26.5402 78.2564 26.7384C78.0345 26.9549 77.7215 27.0789 77.3825 27.0751C73.7783 27.0276 70.1749 26.9901 66.5723 26.9603C66.5286 19.7604 66.4422 12.5612 66.3159 5.36279Z" fill="#60E0B1" stroke="#60E0B1" stroke-width="4.52174"/>
<path fill-rule="evenodd" clip-rule="evenodd" d="M66.3159 5.36279C69.7824 5.46992 73.2495 5.60919 76.7152 5.7806C77.0909 5.79897 77.4307 5.97956 77.684 6.23591C77.9357 6.48996 78.111 6.82742 78.124 7.19702C78.3421 13.4511 78.4936 19.7045 78.5793 25.9586C78.5839 26.2647 78.4591 26.5402 78.2564 26.7384C78.0345 26.9549 77.7215 27.0789 77.3825 27.0751C73.7783 27.0276 70.1749 26.9901 66.5723 26.9603C66.5286 19.7604 66.4422 12.5612 66.3159 5.36279V5.36279Z" stroke="#60E0B1" stroke-width="4.52174"/>
<path d="M70.5015 0.458679C65.3363 0.241357 60.1711 0.101322 55.0059 0.0385742C55.1727 20.2074 55.2071 40.3762 55.1099 60.5451C61.41 60.5015 67.7108 60.392 74.0108 60.2183C74.3743 41.3863 74.271 22.5559 73.7001 3.72463C73.6466 1.99906 72.2118 0.531374 70.5015 0.458679Z" fill="#786EFF"/>
<path d="M55.0059 0.0383692C45.6404 -0.0756482 36.2749 0.0643866 26.9094 0.459239C21.7871 0.685743 17.4437 5.111 17.2723 10.2303C16.6869 28.9475 16.6884 47.6647 17.2776 66.382C30.9215 66.9941 44.5638 67.2069 58.2068 67.0217C58.4042 45.7662 58.3828 24.5108 58.1425 3.25458C58.1219 1.50529 56.7162 0.0597953 55.0059 0.0383692Z" fill="#786EFF"/>
<path fill-rule="evenodd" clip-rule="evenodd" d="M70.6675 69.7154C69.1318 68.7237 67.5883 67.7205 66.0403 66.7081C67.6243 65.6185 69.2129 64.528 70.8038 63.4384C72.5377 63.3894 73.9763 61.9439 74.01 60.2183C74.0444 58.4928 72.6533 57.1268 70.9094 57.1613C66.7007 57.2485 62.4904 57.3113 58.281 57.3488C58.242 63.6878 58.183 70.0269 58.105 76.3659C62.2372 76.2909 66.3693 76.167 70.5015 75.9925C72.2118 75.9198 73.6465 74.4521 73.7001 72.7266C73.7537 71.0002 72.3931 69.6565 70.6675 69.7154Z" fill="#C4C0FF"/>
<path fill-rule="evenodd" clip-rule="evenodd" d="M58.1772 70.0259C56.6261 68.9929 55.0704 67.9522 53.5086 66.9038L58.2353 63.6876C59.9701 63.6662 61.3926 62.226 61.411 60.4798C61.4278 58.7328 60.0259 57.3332 58.2812 57.3478C47.7442 57.4419 37.2072 57.3807 26.6693 57.1641C21.3641 57.0715 17.0169 61.193 17.2794 66.3827C17.5357 71.4232 21.8492 75.7681 26.9096 75.9923C37.3082 76.43 47.7067 76.554 58.1052 76.3657C59.8155 76.3344 61.2273 74.8827 61.2541 73.1365C61.2817 71.3888 59.9027 70.0014 58.1772 70.0259Z" fill="#C4C0FF"/>
<path d="M32.8911 63.5872C32.9202 65.6916 32.9523 67.7959 32.9883 69.901C45.5486 70.214 58.1081 70.152 70.6676 69.7151C70.7181 67.623 70.7632 65.5301 70.8038 63.438C58.1662 63.7877 45.5287 63.8374 32.8911 63.5872Z" fill="url(#paint2_linear_3182_78047)"/>
<path fill-rule="evenodd" clip-rule="evenodd" d="M32.8911 63.5872C32.9202 65.6916 32.9523 67.7959 32.9883 69.901C45.5486 70.214 58.1081 70.152 70.6676 69.7151C70.7181 67.623 70.7632 65.5301 70.8038 63.438C58.1662 63.7877 45.5287 63.8374 32.8911 63.5872Z" fill="white"/>
<path fill-rule="evenodd" clip-rule="evenodd" d="M23.5379 66.4725C23.5823 68.1973 25.0193 69.6542 26.7434 69.7155C28.8248 69.7882 30.9062 69.8501 32.9891 69.9022C34.7123 69.9458 36.0905 68.5554 36.0706 66.8076C36.0499 65.0591 34.6274 63.6213 32.8911 63.5876C30.7967 63.5463 28.7023 63.4958 26.6072 63.4384C24.8709 63.3917 23.4943 64.7469 23.5386 66.4725H23.5379ZM61.3014 6.47941C60.2599 6.45875 59.2184 6.44039 58.177 6.42432C55.1253 13.2807 51.9802 20.1898 48.8107 27.1081C51.9802 34.0257 55.175 40.9509 58.3254 47.8402L61.4988 47.8233C63.2504 47.8119 64.6783 46.3878 64.6844 44.6454C64.7249 32.9988 64.6553 21.3522 64.4755 9.70633C64.4479 7.96317 63.0246 6.51385 61.3014 6.47941Z" fill="white"/>
<path fill-rule="evenodd" clip-rule="evenodd" d="M29.8662 6.6344C28.1422 6.68644 26.7097 8.14188 26.6714 9.87357C26.4204 21.4513 26.3233 33.029 26.3799 44.6068C26.3883 46.3392 27.8193 47.7595 29.5708 47.7756C39.1552 47.8605 48.7403 47.8827 58.3254 47.8391C58.3683 34.0345 58.3185 20.2293 58.177 6.42397C48.7403 6.2824 39.3029 6.3528 29.8662 6.6344Z" fill="white"/>
<path fill-rule="evenodd" clip-rule="evenodd" d="M55.1361 22.2524C55.1576 27.5072 50.8968 31.761 45.636 31.7679C40.3751 31.7679 36.119 27.5347 36.158 22.2976C36.2001 17.0612 40.47 12.7354 45.6673 12.7125C50.8647 12.6926 55.1117 16.9977 55.1361 22.2524Z" fill="#192833"/>
<path fill-rule="evenodd" clip-rule="evenodd" d="M48.8101 25.4128C43.5576 25.4097 39.3168 21.1789 39.3596 15.931C39.3612 15.6693 39.3765 15.4106 39.3987 15.1543C37.4351 16.9181 36.1771 19.4701 36.158 22.2976C36.1197 27.5347 40.3751 31.7687 45.636 31.7679C50.6351 31.7618 54.7283 27.9189 55.1048 23.0291C53.4343 24.5114 51.2289 25.4128 48.8101 25.4128ZM61.5127 42.7909C61.0895 40.6582 59.9425 38.7842 58.3401 37.4244C56.2227 38.7819 54.1046 40.144 51.9865 41.5069C54.1031 42.5644 56.2197 43.6196 58.3332 44.6695L59.9478 44.6649C60.9395 44.6611 61.7048 43.7589 61.5127 42.7901V42.7909Z" fill="#192833"/>
<path fill-rule="evenodd" clip-rule="evenodd" d="M52.1707 35.1557C47.8135 35.1534 43.4549 35.1557 39.0977 35.1618C34.4781 35.1717 30.616 38.4507 29.7575 42.7688C29.5662 43.733 30.3322 44.6321 31.3239 44.6375C40.3267 44.6864 49.3294 44.6972 58.333 44.6696C58.3383 42.2546 58.3406 39.8396 58.3406 37.4245C56.6771 36.0135 54.5237 35.1564 52.1707 35.1557Z" fill="#192833"/>
</g>
<defs>
<linearGradient id="paint0_linear_3182_78047" x1="50.9288" y1="54.5224" x2="103.333" y2="2.11641" gradientUnits="userSpaceOnUse">
<stop stop-color="#8D00DB"/>
<stop offset="1" stop-color="#FC54FF"/>
</linearGradient>
<linearGradient id="paint1_linear_3182_78047" x1="53.6836" y1="43.3477" x2="105.544" y2="-8.5161" gradientUnits="userSpaceOnUse">
<stop stop-color="#FC54FF"/>
<stop offset="0.5282" stop-color="#FEADFF"/>
<stop offset="1" stop-color="white"/>
</linearGradient>
<linearGradient id="paint2_linear_3182_78047" x1="-17.3656" y1="68.8969" x2="21.892" y2="29.6396" gradientUnits="userSpaceOnUse">
<stop stop-color="#FC54FF"/>
<stop offset="0.1022" stop-color="#FD77FF"/>
<stop offset="0.2431" stop-color="#FDA0FF"/>
<stop offset="0.3875" stop-color="#FEC3FF"/>
<stop offset="0.5338" stop-color="#FEDDFF"/>
<stop offset="0.6827" stop-color="#FFF0FF"/>
<stop offset="0.8359" stop-color="#FFFBFF"/>
<stop offset="1" stop-color="white"/>
</linearGradient>
<clipPath id="clip0_3182_78047">
<rect width="88" height="91.0609" fill="white"/>
</clipPath>
</defs>
</svg>
