<svg width="441" height="280" viewBox="0 0 441 280" fill="none" xmlns="http://www.w3.org/2000/svg">
<path d="M425.689 131.858C422.352 151.29 399.849 261.224 318.829 254.751C315.727 254.503 313.44 251.823 313.832 248.735C316.227 229.907 331.148 166.442 424.028 129.776C424.972 129.409 425.916 130.554 425.689 131.858Z" fill="url(#paint0_linear_5799_17484)"/>
<path d="M413.339 144.562C413.339 144.562 412.338 146.569 410.485 150.035C409.558 151.778 408.41 153.864 407.067 156.258C405.723 158.653 404.186 161.335 402.466 164.23C400.746 167.124 398.84 170.249 396.799 173.513C394.739 176.775 392.538 180.215 390.158 183.69C387.814 187.189 385.306 190.745 382.716 194.33C381.412 196.121 380.072 197.888 378.729 199.674C377.35 201.436 376.008 203.222 374.591 204.979C373.177 206.716 371.798 208.478 370.331 210.169C369.617 211.018 368.883 211.863 368.169 212.711C367.455 213.56 366.705 214.384 365.974 215.21C365.243 216.036 364.512 216.863 363.783 217.67C363.036 218.474 362.291 219.26 361.545 220.045C360.091 221.64 358.572 223.128 357.092 224.621C354.115 227.586 351.129 230.315 348.231 232.819C347.523 233.472 346.786 234.042 346.047 234.632C345.326 235.225 344.609 235.798 343.913 236.354C343.214 236.929 342.502 237.464 341.813 237.962C341.122 238.48 340.434 238.978 339.764 239.479C339.42 239.728 339.095 239.98 338.773 240.212C338.431 240.442 338.089 240.672 337.769 240.885C337.107 241.328 336.448 241.752 335.827 242.181C335.189 242.588 334.587 243.019 333.974 243.39C333.361 243.761 332.75 244.112 332.16 244.447C331.571 244.782 331.02 245.122 330.472 245.442C330.197 245.602 329.923 245.763 329.67 245.906C329.399 246.047 329.13 246.169 328.877 246.312C327.833 246.843 326.874 247.325 326.018 247.762C325.159 248.219 324.357 248.545 323.677 248.829C322.977 249.11 322.398 249.367 321.922 249.58C320.972 249.985 320.458 250.192 320.458 250.192L320.396 250.223C319.86 250.447 319.624 251.064 319.849 251.584C320.072 252.123 320.684 252.361 321.201 252.134C321.201 252.134 321.718 251.908 322.708 251.488C323.203 251.278 323.802 251.023 324.506 250.703C325.208 250.403 326.032 250.06 326.913 249.587C327.79 249.133 328.771 248.633 329.839 248.067C330.111 247.926 330.383 247.785 330.654 247.644C330.929 247.484 331.203 247.324 331.477 247.163C332.028 246.824 332.598 246.486 333.19 246.132C333.782 245.778 334.395 245.407 335.028 245.039C335.644 244.649 336.265 244.22 336.907 243.774C337.548 243.348 338.209 242.905 338.874 242.443C339.215 242.213 339.557 241.983 339.899 241.753C340.224 241.502 340.568 241.252 340.913 241.003C341.584 240.483 342.294 239.968 342.985 239.45C343.698 238.916 344.411 238.381 345.112 237.786C345.81 237.211 346.53 236.619 347.272 236.009C347.992 235.417 348.753 234.811 349.462 234.158C352.387 231.598 355.38 228.812 358.345 225.786C359.828 224.274 361.352 222.747 362.808 221.133C363.556 220.328 364.285 219.521 365.032 218.716C365.763 217.89 366.494 217.064 367.228 216.218C367.961 215.372 368.692 214.546 369.425 213.7C370.142 212.833 370.856 211.985 371.573 211.117C373.023 209.404 374.405 207.623 375.821 205.866C377.219 204.107 378.567 202.282 379.929 200.499C381.255 198.691 382.6 196.885 383.885 195.092C386.46 191.466 388.952 187.888 391.263 184.345C393.61 180.826 395.793 177.365 397.837 174.081C399.864 170.776 401.75 167.648 403.456 164.713C410.254 153.027 414.212 144.892 414.212 144.892C414.319 144.671 414.236 144.405 414.016 144.298C413.71 144.257 413.445 144.34 413.339 144.562Z" fill="white"/>
<path d="M380.563 10.8375C380.111 8.75715 378.19 9.29007 376.599 10.7298C292.798 86.8179 264.956 219.415 287.352 261.229C288.506 263.383 290.932 264.355 293.281 263.689C315.518 257.384 425.144 215.503 380.563 10.8375Z" fill="url(#paint1_linear_5799_17484)"/>
<path d="M376.15 39.2012C376.15 39.2012 376.122 39.4135 376.07 39.8187C375.998 40.2213 375.923 40.8001 375.78 41.6055C375.517 43.1801 375.062 45.4946 374.507 48.424C373.933 51.3509 373.197 54.9237 372.32 58.9881C371.443 63.0526 370.38 67.6422 369.208 72.6294C368.017 77.6141 366.694 83.0132 365.199 88.6842C363.721 94.3769 362.054 100.32 360.3 106.486C358.511 112.629 356.617 118.973 354.559 125.375C354.04 126.975 353.521 128.575 352.999 130.194C352.461 131.791 351.92 133.408 351.38 135.024C350.317 138.26 349.142 141.461 348.003 144.687C346.864 147.912 345.634 151.087 344.478 154.291C343.267 157.467 342.04 160.623 340.817 163.739C339.537 166.848 338.317 169.945 337.009 172.972C336.346 174.475 335.703 175.98 335.062 177.465C334.732 178.207 334.421 178.951 334.091 179.693C333.761 180.434 333.415 181.154 333.087 181.876C332.413 183.319 331.758 184.763 331.105 186.189C330.778 186.911 330.453 187.614 330.128 188.317C329.784 189.017 329.439 189.718 329.117 190.402C327.745 193.165 326.513 195.907 325.125 198.492C324.449 199.797 323.795 201.084 323.143 202.353C322.809 202.976 322.492 203.621 322.179 204.228C321.845 204.851 321.513 205.455 321.181 206.059C319.836 208.473 318.595 210.822 317.315 213.028C316.016 215.232 314.768 217.344 313.592 219.349C312.38 221.329 311.183 223.193 310.078 224.951C309.517 225.819 308.978 226.671 308.46 227.506C307.909 228.297 307.38 229.071 306.872 229.829C305.862 231.305 304.925 232.674 304.084 233.898C303.243 235.122 302.405 236.169 301.738 237.102C301.053 238.033 300.463 238.819 299.99 239.463C299.043 240.752 298.526 241.43 298.526 241.43C298.435 241.535 298.47 241.717 298.577 241.789C298.682 241.882 298.843 241.844 298.935 241.738C298.935 241.738 299.452 241.06 300.453 239.799C301.417 238.532 302.901 236.705 304.696 234.292C305.556 233.07 306.529 231.726 307.578 230.255C308.102 229.519 308.65 228.747 309.201 227.956C309.736 227.143 310.294 226.294 310.874 225.428C312.017 223.675 313.267 221.857 314.5 219.86C315.715 217.861 316.982 215.751 318.317 213.572C319.636 211.37 320.914 209.026 322.279 206.615C322.611 206.011 322.962 205.41 323.315 204.789C323.649 204.166 323.984 203.542 324.318 202.919C324.989 201.653 325.662 200.368 326.357 199.066C329.099 193.853 331.79 188.28 334.478 182.432C334.805 181.709 335.154 180.97 335.484 180.229C335.814 179.487 336.125 178.743 336.455 178.001C337.115 176.518 337.759 175.013 338.424 173.491C339.751 170.467 340.974 167.35 342.292 164.247C343.536 161.113 344.783 157.961 346.015 154.767C346.611 153.177 347.209 151.568 347.789 149.957C348.387 148.347 348.983 146.758 349.545 145.124C350.665 141.896 351.823 138.673 352.886 135.438C353.427 133.821 353.967 132.204 354.506 130.607C355.027 128.988 355.527 127.386 356.049 125.767C358.109 119.346 359.967 112.977 361.74 106.813C363.458 100.621 365.072 94.6326 366.493 88.9323C367.932 83.2345 369.2 77.8086 370.354 72.8188C372.607 62.7932 374.222 54.3909 375.276 48.5052C375.795 45.5515 376.174 43.227 376.417 41.6499C376.539 40.8613 376.621 40.2246 376.674 39.8194C376.707 39.4117 376.735 39.1995 376.735 39.1995C376.752 39.0644 376.652 38.9336 376.499 38.9135C376.365 38.8959 376.235 38.9965 376.217 39.1316L376.15 39.2012Z" fill="white"/>
<path d="M343.515 28.3662H80.6899C76.175 28.3662 72.5029 32.0616 72.5029 36.605V223.433C72.5029 227.976 76.175 231.671 80.6899 231.671H181.522C181.522 231.671 187.963 251.663 168.038 261.961H262.368C262.368 261.961 239.914 254.207 245.693 231.671H343.455C347.97 231.671 351.642 227.976 351.642 223.433V36.605C351.702 32.0616 348.03 28.3662 343.515 28.3662Z" fill="#035970"/>
<path d="M215.594 212.049C219.146 217.198 213.547 222.832 208.491 219.197C208.31 219.076 208.19 218.894 208.069 218.773C204.518 213.624 210.116 207.99 215.173 211.625C215.353 211.685 215.474 211.867 215.594 212.049Z" fill="#77C2D7"/>
<path d="M347.188 197.044H77.0179V37.1741C77.0179 33.9028 79.6065 31.2979 82.8572 31.2979H341.348C344.599 31.2979 347.188 33.9028 347.188 37.1741V197.044Z" fill="white"/>
<path d="M347.188 45.5748H77.0179V37.336C77.0179 34.2465 79.4861 31.7627 82.5562 31.7627H342.673C345.201 31.7627 347.188 33.8224 347.188 36.3062V45.5748Z" fill="#F1F5F8"/>
<path d="M85.6263 40.9103C86.6902 40.9103 87.5526 40.0424 87.5526 38.9718C87.5526 37.9011 86.6902 37.0332 85.6263 37.0332C84.5624 37.0332 83.7 37.9011 83.7 38.9718C83.7 40.0424 84.5624 40.9103 85.6263 40.9103Z" fill="#F2385A"/>
<path d="M91.285 40.9103C92.3489 40.9103 93.2113 40.0424 93.2113 38.9718C93.2113 37.9011 92.3489 37.0332 91.285 37.0332C90.2211 37.0332 89.3586 37.9011 89.3586 38.9718C89.3586 40.0424 90.2211 40.9103 91.285 40.9103Z" fill="#F2BE38"/>
<path d="M96.6424 40.9103C97.7063 40.9103 98.5687 40.0424 98.5687 38.9718C98.5687 37.9011 97.7063 37.0332 96.6424 37.0332C95.5785 37.0332 94.7161 37.9011 94.7161 38.9718C94.7161 40.0424 95.5785 40.9103 96.6424 40.9103Z" fill="#20C9AD"/>
<path d="M296.501 231.676C296.501 231.737 259.118 231.858 213.006 231.858C166.894 231.858 129.511 231.797 129.511 231.676C129.511 231.616 166.894 231.495 213.006 231.495C259.118 231.556 296.501 231.616 296.501 231.676Z" fill="#102D42"/>
<path d="M379.862 262.53C379.862 262.66 301.999 262.921 205.994 262.921C109.933 262.791 32.0699 262.66 32.0699 262.53C32.0699 262.269 109.933 262.139 205.994 262.139C301.999 262.139 379.862 262.269 379.862 262.53Z" fill="#102D42"/>
<mask id="mask0_5799_17484" style="mask-type:alpha" maskUnits="userSpaceOnUse" x="13" y="123" width="173" height="140">
<rect x="13.0126" y="123.635" width="172.156" height="138.937" fill="#C4C4C4"/>
</mask>
<g mask="url(#mask0_5799_17484)">
<path d="M164.835 314.835C123.848 263.965 73.2628 250.714 73.2628 250.714L74.5438 263.305L159.723 323.248C162.571 321.713 164.192 318.901 165.092 316.922C165.407 316.238 165.312 315.423 164.835 314.835Z" fill="#DA6668"/>
<path d="M163.948 320.333C151.167 306.237 119.702 275.537 85.1437 262.796C82.2658 261.734 79.9302 259.57 78.6015 256.794L73.4297 245.947C73.4297 245.947 48.2322 240.005 32.705 256.362C32.705 256.362 33.6523 271.921 53.1537 277.612C71.3562 282.924 125.296 304.486 157.114 328.644C157.84 329.195 158.853 329.225 159.58 328.662C162.113 326.689 163.691 324.225 164.371 322.486C164.657 321.754 164.478 320.921 163.948 320.333Z" fill="#DA6668"/>
<path d="M86.1867 199.658L86.247 199.626L86.199 199.536L86.134 199.615C77.496 210.091 75.1226 222.647 74.9071 232.58C74.7994 237.547 75.2312 241.859 75.69 244.93C75.9194 246.465 76.1555 247.69 76.3344 248.532C76.4238 248.952 76.4989 249.277 76.5517 249.497C76.5627 249.543 76.5728 249.584 76.5818 249.621C76.5943 249.672 76.6049 249.714 76.6131 249.747L76.6134 249.748C76.5685 249.749 76.5066 249.75 76.4283 249.752C76.2505 249.756 75.9886 249.762 75.6522 249.772C74.9795 249.791 74.0086 249.823 72.8161 249.874C70.4311 249.977 67.1591 250.156 63.6116 250.463C60.0642 250.77 56.2404 251.206 52.7518 251.822C49.2645 252.437 46.1073 253.233 43.8959 254.262C39.499 256.308 36.0209 256.764 33.6445 256.711C32.4561 256.684 31.5428 256.529 30.9275 256.382C30.6198 256.308 30.3866 256.236 30.2307 256.183C30.1527 256.157 30.0941 256.135 30.0552 256.119C30.0462 256.116 30.0382 256.113 30.0313 256.11C30.0296 256.109 30.028 256.108 30.0265 256.108L30.0054 256.037C29.9855 255.969 29.9562 255.868 29.9186 255.736C29.8436 255.47 29.7358 255.076 29.6048 254.563C29.3426 253.539 28.9876 252.04 28.6159 250.144C27.8727 246.354 27.0635 240.978 26.7996 234.64C26.2719 221.962 27.9261 205.436 36.6495 190.032C45.3755 174.632 56.1499 168.238 64.7384 165.692C69.0336 164.418 72.7835 164.107 75.4592 164.113C76.797 164.117 77.8661 164.2 78.6004 164.282C78.9675 164.323 79.2509 164.363 79.4423 164.394C79.538 164.409 79.6107 164.422 79.6594 164.431C79.6835 164.435 79.7018 164.438 79.714 164.441L87.0047 171.054L87.0045 171.054L87.0102 171.058C98.7284 179.658 105.514 189.714 109.371 197.62C111.299 201.573 112.495 204.989 113.208 207.415C113.565 208.629 113.801 209.595 113.948 210.257C114.022 210.588 114.073 210.844 114.106 211.016C114.122 211.102 114.134 211.168 114.142 211.211L114.15 211.261L114.152 211.272V229.866L109.862 229.666C107.439 228.694 104.752 226.339 102.081 223.342C99.4082 220.343 96.7578 216.708 94.4115 213.194C92.0654 209.68 90.0242 206.288 88.5694 203.774C87.8421 202.517 87.2614 201.48 86.8626 200.757C86.6632 200.396 86.5093 200.113 86.4052 199.92C86.3532 199.824 86.3136 199.75 86.287 199.701L86.257 199.645L86.2495 199.631L86.2476 199.627L86.2472 199.626C86.2471 199.626 86.2471 199.626 86.2401 199.63C86.2328 199.634 86.2177 199.642 86.1867 199.658Z" fill="#20C9AD" stroke="#FAB1A5" stroke-width="0.136624"/>
<path d="M115.698 175.53C115.942 174.235 116.031 171.201 112.927 167.507C108.768 162.567 103.442 165.085 103.442 165.085C98.7166 167.747 96.7206 176.442 96.7206 176.442L101.714 173.761C102.47 175.974 109.847 178.354 109.847 178.354L109.888 178.336C109.96 183.145 109.847 197.17 106.456 206.919C105.128 210.739 102.429 217.838 111.342 230.004L116.252 229.8C116.258 229.812 127.263 211.009 115.698 175.53Z" fill="url(#paint2_linear_5799_17484)"/>
<path d="M90.7327 147.029L77.0525 166.469C76.1648 167.734 76.2839 169.443 77.3385 170.576C79.1796 172.554 82.2899 175.343 85.6384 175.984C86.6811 176.182 87.7357 175.744 88.3137 174.851L95.5887 163.614C95.5887 163.608 96.9829 145.956 90.7327 147.029Z" fill="url(#paint3_linear_5799_17484)"/>
<path d="M99.8135 134.397C100.04 134.703 107.44 158.849 107.44 158.849L93.6527 162.806L83.2615 140.968C83.2615 140.968 96.0002 129.276 99.8135 134.397Z" fill="url(#paint4_linear_5799_17484)"/>
<path d="M88.7309 144.554L93.1221 155.994C93.2175 156.246 93.3486 156.474 93.5154 156.684C94.2542 157.613 96.3932 159.808 98.7706 157.463C100.57 155.689 102.262 154.052 103.877 153.236C105.301 152.517 107.023 153.302 107.476 154.837C108.155 157.14 109.227 161.091 109.787 164.856C109.99 166.218 109.102 167.507 107.762 167.788C104.955 168.382 100.058 169.24 95.7617 169.144C94.8083 169.12 93.9563 168.556 93.5333 167.699C91.9424 164.467 87.9563 156.45 86.4548 154.309C85.0725 152.343 81.9564 152.355 80.3715 152.505C79.6326 152.577 78.9057 152.325 78.3635 151.815C77.0944 150.616 75.3963 148.205 77.8154 145.207C78.6555 144.164 78.584 142.683 77.6604 141.718C76.3198 140.321 75.2116 138.09 77.3268 135.284C79.5671 132.316 82.5939 132.478 84.6316 133.066C85.6266 133.353 86.6395 132.916 87.295 132.106C87.4856 131.872 87.7537 131.692 88.1351 131.627C89.3803 131.423 90.3396 130.457 90.3754 129.192C90.429 127.315 91.2334 125.133 94.3078 124.072C100.32 121.991 104.276 127.783 104.782 132.172C105.283 136.561 98.6395 138.444 94.6892 138.264C91.9543 138.138 89.9345 140.663 88.9573 142.221C88.5224 142.917 88.4389 143.78 88.7309 144.554Z" fill="#035970"/>
<path d="M88.1649 158.627C88.1649 158.627 86.9613 151.012 83.7915 150.73C80.6217 150.448 77.6187 153.152 80.8839 157.35C84.9474 162.572 88.1649 158.627 88.1649 158.627Z" fill="url(#paint5_linear_5799_17484)"/>
<path d="M59.4446 193.214L59.4266 193.231L59.395 193.243C59.3655 193.254 59.3217 193.271 59.2643 193.293C59.1495 193.337 58.9805 193.403 58.7634 193.49C58.3293 193.663 57.7029 193.92 56.9334 194.256C55.3943 194.927 53.2823 195.91 50.9902 197.162C46.4089 199.665 41.0979 203.245 38.2133 207.547L38.2133 207.547C36.7738 209.696 36.2513 211.318 36.2888 212.544C36.3264 213.775 36.9281 214.598 37.7096 215.144C38.4884 215.688 39.4462 215.958 40.2054 216.093C40.5856 216.16 40.9175 216.194 41.1545 216.211C41.273 216.219 41.3678 216.223 41.4332 216.226C41.4438 216.226 41.4536 216.226 41.4626 216.226L40.5063 231.773C34.0968 230.864 27.5577 229.397 23.3605 225.621C21.2561 223.728 19.7393 221.253 19.1236 217.971C18.5077 214.688 18.793 210.594 20.2999 205.464C23.3123 195.208 31.703 185.658 39.3492 178.668C43.1711 175.174 46.8046 172.321 49.4827 170.343C50.8217 169.353 51.9217 168.582 52.6869 168.059C53.0695 167.797 53.3684 167.597 53.5715 167.463C53.6731 167.395 53.7507 167.345 53.803 167.311L53.862 167.272L53.8724 167.265C59.46 165.884 63.7353 165.256 66.9396 165.213C70.1478 165.17 72.2727 165.713 73.5675 166.664C74.8571 167.61 75.3332 168.969 75.2265 170.588C75.1195 172.21 74.4266 174.09 73.3806 176.063C71.2892 180.009 67.7995 184.302 64.8299 187.612C63.3455 189.266 61.992 190.674 61.0096 191.668C60.5185 192.164 60.1201 192.558 59.8446 192.827C59.7068 192.962 59.5998 193.065 59.5272 193.135L59.4446 193.214Z" fill="#20C9AD" stroke="#FAB1A5" stroke-width="0.136624"/>
<path d="M40.5693 231.851C40.5693 231.851 36.5415 225.153 41.8444 217.148L77.451 223.078C77.451 223.078 94.4976 220.176 95.3079 220.236C96.1242 220.296 107.248 227.192 107.248 227.192C107.248 227.192 106.873 227.989 104.227 227.845C101.582 227.695 103.316 228.169 103.316 228.169L103.22 229.512C103.22 229.512 101.379 229.938 99.9017 228.355C98.4241 226.772 94.3129 226.005 94.3129 226.005C94.3129 226.005 85.5781 232.498 76.9982 229.356L40.5693 231.851Z" fill="url(#paint6_linear_5799_17484)"/>
<path d="M92.3828 344.887C92.1028 344.887 91.8227 344.827 91.5486 344.707C90.4761 344.233 89.9816 342.95 90.4404 341.841L134.794 235.549C135.253 234.446 136.498 233.93 137.57 234.41C138.643 234.884 139.137 236.167 138.679 237.276L94.3252 343.567C93.9796 344.395 93.1991 344.887 92.3828 344.887Z" fill="#FCD7DE"/>
<path d="M142.349 344.887C141.527 344.887 140.752 344.395 140.407 343.568L96.0534 237.276C95.5947 236.173 96.0892 234.89 97.1617 234.41C98.2342 233.937 99.4794 234.446 99.9382 235.55L144.292 341.841C144.75 342.944 144.256 344.227 143.183 344.707C142.915 344.833 142.629 344.887 142.349 344.887Z" fill="#FCD7DE"/>
<path d="M175.161 232.383C175.227 231.724 175.137 231.04 174.923 230.524C174.708 230.009 174.387 229.709 174.047 229.709H59.112C58.6652 229.709 58.2481 230.159 58.0098 230.902C57.7714 231.646 57.7357 232.581 57.9263 233.385L59.1716 238.715C59.4576 239.938 60.0773 240.718 60.7565 240.718H173.261C173.892 240.718 174.434 239.83 174.559 238.601L175.161 232.383Z" fill="#102D42"/>
</g>
<path d="M241.732 96.8438C241.732 115.545 226.372 130.959 207.034 131.273C200.999 131.381 195.032 129.972 189.674 127.173C183.96 124.194 179.162 119.703 175.796 114.183C172.569 108.878 170.862 102.777 170.865 96.5564C170.865 77.031 187.244 61.6494 207.034 62.1322C226.372 62.5986 241.732 78.1375 241.732 96.8438Z" fill="#EEF5F8"/>
<path opacity="0.88" fill-rule="evenodd" clip-rule="evenodd" d="M203.511 78.9256C204.603 78.1916 205.886 77.7998 207.199 77.7998C208.959 77.8018 210.646 78.5062 211.89 79.7585C213.135 81.0108 213.835 82.7087 213.837 84.4797C213.837 85.8008 213.447 87.0923 212.718 88.1908C211.989 89.2893 210.952 90.1455 209.739 90.651C208.526 91.1566 207.191 91.2889 205.904 91.0312C204.616 90.7734 203.433 90.1373 202.505 89.2031C201.577 88.2689 200.945 87.0786 200.689 85.7828C200.432 84.4871 200.564 83.144 201.066 81.9234C201.569 80.7028 202.419 79.6596 203.511 78.9256ZM210.58 92.5285H203.822C202.358 92.5295 200.955 93.1149 199.921 94.1561C198.886 95.1974 198.304 96.6093 198.303 98.0818V109.325C198.303 109.619 198.419 109.901 198.625 110.109C198.832 110.318 199.112 110.435 199.404 110.436H214.994C215.286 110.435 215.566 110.318 215.772 110.109C215.979 109.901 216.095 109.619 216.095 109.325V98.0818C216.094 96.6099 215.512 95.1986 214.479 94.1575C213.445 93.1164 212.043 92.5305 210.58 92.5285ZM217.836 95.4199H220.795C222.26 95.4178 223.666 96.0013 224.703 97.0419C225.741 98.0825 226.325 99.4952 226.328 100.969V107.099C226.327 107.983 225.978 108.83 225.356 109.454C224.735 110.079 223.893 110.43 223.015 110.43H218.115C218.24 110.072 218.303 109.697 218.303 109.318V98.0751C218.303 97.1693 218.145 96.2706 217.836 95.4199ZM196.547 95.4238C196.237 96.2745 196.079 97.1732 196.079 98.079L196.094 109.341C196.094 109.72 196.158 110.095 196.283 110.452H191.383C190.505 110.452 189.662 110.102 189.041 109.477C188.42 108.853 188.07 108.006 188.069 107.122V100.977C188.071 99.5048 188.653 98.0935 189.688 97.0525C190.722 96.0115 192.125 95.4258 193.588 95.4238H196.547ZM195.544 84.0278C194.252 84.0637 193.024 84.6055 192.123 85.5381C191.221 86.4707 190.717 87.7205 190.717 89.0216C190.717 90.3227 191.221 91.5725 192.123 92.5051C193.024 93.4377 194.252 93.9795 195.544 94.0153C196.217 94.0167 196.883 93.8785 197.5 93.6095C198.551 93.1571 199.415 92.3532 199.945 91.3338C200.475 90.3144 200.639 89.142 200.409 88.0151C200.179 86.8881 199.569 85.8757 198.682 85.1491C197.796 84.4226 196.687 84.0265 195.544 84.0278ZM215.715 85.1491C216.601 84.4226 217.71 84.0265 218.853 84.0278C220.146 84.0637 221.373 84.6055 222.275 85.5381C223.176 86.4707 223.681 87.7205 223.681 89.0216C223.681 90.3227 223.176 91.5725 222.275 92.5051C221.373 93.4377 220.146 93.9795 218.853 94.0153C218.181 94.0167 217.515 93.8785 216.897 93.6095C215.846 93.1571 214.982 92.3532 214.452 91.3338C213.922 90.3144 213.758 89.142 213.989 88.0151C214.219 86.8881 214.829 85.8757 215.715 85.1491Z" fill="#BBD2D9"/>
<rect x="162.769" y="146.141" width="87.1312" height="7.30693" rx="1.80698" fill="#EEF5F8"/>
<rect x="140.079" y="163.494" width="132.512" height="7.30693" rx="1.80698" fill="#EEF5F8"/>
<defs>
<linearGradient id="paint0_linear_5799_17484" x1="531.37" y1="56.7999" x2="384.411" y2="281.13" gradientUnits="userSpaceOnUse">
<stop stop-color="#EFB3A8"/>
<stop offset="1" stop-color="white"/>
</linearGradient>
<linearGradient id="paint1_linear_5799_17484" x1="522.95" y1="-138.634" x2="200.176" y2="136.941" gradientUnits="userSpaceOnUse">
<stop stop-color="#FFE8E3"/>
<stop offset="1" stop-color="#FCF6F6"/>
</linearGradient>
<linearGradient id="paint2_linear_5799_17484" x1="122.682" y1="229.616" x2="78.6942" y2="215.456" gradientUnits="userSpaceOnUse">
<stop stop-color="#F9B776"/>
<stop offset="1" stop-color="#F47960"/>
</linearGradient>
<linearGradient id="paint3_linear_5799_17484" x1="97.0673" y1="175.859" x2="68.1494" y2="159.182" gradientUnits="userSpaceOnUse">
<stop stop-color="#F9B776"/>
<stop offset="1" stop-color="#F47960"/>
</linearGradient>
<linearGradient id="paint4_linear_5799_17484" x1="109.13" y1="162.63" x2="76.9052" y2="139.819" gradientUnits="userSpaceOnUse">
<stop stop-color="#F9B776"/>
<stop offset="1" stop-color="#F47960"/>
</linearGradient>
<linearGradient id="paint5_linear_5799_17484" x1="88.7722" y1="160" x2="78.2607" y2="151.497" gradientUnits="userSpaceOnUse">
<stop stop-color="#F9B776"/>
<stop offset="1" stop-color="#F47960"/>
</linearGradient>
<linearGradient id="paint6_linear_5799_17484" x1="112.01" y1="231.764" x2="104.106" y2="199.905" gradientUnits="userSpaceOnUse">
<stop stop-color="#F9B776"/>
<stop offset="1" stop-color="#F47960"/>
</linearGradient>
</defs>
</svg>
