<?xml version="1.0" encoding="utf-8"?>
<!-- Generator: Adobe Illustrator 23.0.2, SVG Export Plug-In . SVG Version: 6.00 Build 0)  -->
<svg version="1.1" id="Layer_1" 
	xmlns="http://www.w3.org/2000/svg" 
	xmlns:xlink="http://www.w3.org/1999/xlink" x="0px" y="0px" viewBox="0 0 154 102" style="enable-background:new 0 0 154 102;" xml:space="preserve">
	<style type="text/css">
	.np0{opacity:0.2;fill-rule:evenodd;clip-rule:evenodd;fill:url(#window_1_);enable-background:new    ;}
	.np1{opacity:0.3;}
	.np2{fill-rule:evenodd;clip-rule:evenodd;fill:url(#leaves_1_);}
	.np3{fill:none;stroke:url(#branch_1_);stroke-width:6;stroke-linecap:round;}
	.np4{fill:none;stroke:url(#SVGID_1_);stroke-width:6;stroke-linecap:round;}
	.np5{fill:none;stroke:url(#SVGID_2_);stroke-width:6;stroke-linecap:round;}
	.np6{fill:none;stroke:url(#stem_1_);stroke-width:6;stroke-linecap:round;}
	.np7{fill-rule:evenodd;clip-rule:evenodd;fill:url(#leaf_1_);}
	.np8{fill-rule:evenodd;clip-rule:evenodd;fill:url(#SVGID_3_);}
	.np9{fill-rule:evenodd;clip-rule:evenodd;fill:url(#SVGID_4_);}
	.np10{fill-rule:evenodd;clip-rule:evenodd;fill:url(#SVGID_5_);}
	.np11{fill-rule:evenodd;clip-rule:evenodd;fill:url(#SVGID_6_);}
	.np12{fill-rule:evenodd;clip-rule:evenodd;fill:url(#SVGID_7_);}
	.np13{fill-rule:evenodd;clip-rule:evenodd;fill:url(#SVGID_8_);}
	.np14{opacity:0.4727;}
	.np15{fill:none;stroke:url(#Line_1_);stroke-width:8;stroke-linecap:round;stroke-linejoin:round;}
	.np16{fill:none;stroke:url(#Line-Copy_1_);stroke-width:8;stroke-linecap:round;stroke-linejoin:round;}
	.np17{fill:none;stroke:url(#Line-Copy-3_1_);stroke-width:8;stroke-linecap:round;stroke-linejoin:round;}
	.np18{fill:none;stroke:url(#Line-Copy-2_1_);stroke-width:8;stroke-linecap:round;stroke-linejoin:round;}
	.np19{fill-rule:evenodd;clip-rule:evenodd;fill:url(#SVGID_9_);}
	.np20{fill-rule:evenodd;clip-rule:evenodd;fill:url(#SVGID_10_);}
	.np21{filter:url(#Adobe_OpacityMaskFilter);}
	.np22{fill-rule:evenodd;clip-rule:evenodd;fill:#FFFFFF;}
	.np23{mask:url(#mask-18_1_);fill-rule:evenodd;clip-rule:evenodd;fill:url(#Path-3_1_);}
	.np24{fill-rule:evenodd;clip-rule:evenodd;fill:url(#SVGID_11_);}
	.np25{fill-rule:evenodd;clip-rule:evenodd;fill:url(#path-23_1_);}
	.np26{fill-rule:evenodd;clip-rule:evenodd;fill:url(#SVGID_12_);}
	.np27{fill-rule:evenodd;clip-rule:evenodd;fill:url(#SVGID_13_);}
	.np28{fill-rule:evenodd;clip-rule:evenodd;fill:url(#SVGID_14_);}
	.np29{filter:url(#Adobe_OpacityMaskFilter_1_);}
	.np30{opacity:0.5854;mask:url(#mask-27_1_);fill-rule:evenodd;clip-rule:evenodd;fill:url(#Path-6_1_);enable-background:new    ;}
	.np31{filter:url(#Adobe_OpacityMaskFilter_2_);}
	.np32{opacity:0.5465;mask:url(#mask-27_2_);fill-rule:evenodd;clip-rule:evenodd;fill:url(#Path-8_1_);enable-background:new    ;}
	.np33{filter:url(#Adobe_OpacityMaskFilter_3_);}
	
		.np34{opacity:0.5465;mask:url(#mask-27_3_);fill-rule:evenodd;clip-rule:evenodd;fill:url(#Path-8-Copy_1_);enable-background:new    ;}
	.np35{fill-rule:evenodd;clip-rule:evenodd;fill:url(#SVGID_15_);}
	.np36{fill-rule:evenodd;clip-rule:evenodd;fill:url(#SVGID_16_);}
	.np37{fill-rule:evenodd;clip-rule:evenodd;fill:url(#SVGID_17_);}
	.np38{fill-rule:evenodd;clip-rule:evenodd;fill:#3D82F0;}
	.np39{fill-rule:evenodd;clip-rule:evenodd;fill:url(#SVGID_18_);}
	.np40{fill-rule:evenodd;clip-rule:evenodd;fill:url(#SVGID_19_);}
	.np41{fill-rule:evenodd;clip-rule:evenodd;fill:url(#SVGID_20_);}
	.np42{fill-rule:evenodd;clip-rule:evenodd;fill:url(#SVGID_21_);}
	.np43{fill-rule:evenodd;clip-rule:evenodd;fill:url(#chair_1_);}
	.np44{fill-rule:evenodd;clip-rule:evenodd;fill:#316EEA;}
	.np45{fill-rule:evenodd;clip-rule:evenodd;fill:url(#arm_1_);}
	.np46{fill-rule:evenodd;clip-rule:evenodd;fill:url(#SVGID_22_);}
	.np47{fill-rule:evenodd;clip-rule:evenodd;fill:url(#desk-top_1_);}
	.np48{opacity:0.1969;fill-rule:evenodd;clip-rule:evenodd;fill:url(#shadow_1_);enable-background:new    ;}
	.np49{fill-rule:evenodd;clip-rule:evenodd;fill:url(#SVGID_23_);}
	.np50{filter:url(#Adobe_OpacityMaskFilter_4_);}
	.np51{opacity:0.7171;mask:url(#mask-49_1_);fill-rule:evenodd;clip-rule:evenodd;fill:url(#Path_1_);enable-background:new    ;}
	.np52{fill-rule:evenodd;clip-rule:evenodd;fill:url(#face_1_);}
	.np53{fill-rule:evenodd;clip-rule:evenodd;fill:url(#SVGID_24_);}
	.np54{filter:url(#Adobe_OpacityMaskFilter_5_);}
	.np55{opacity:0.458;mask:url(#mask-54_1_);fill-rule:evenodd;clip-rule:evenodd;fill:url(#Path-2_1_);enable-background:new    ;}
	.np56{filter:url(#Adobe_OpacityMaskFilter_6_);}
	.np57{opacity:0.5284;mask:url(#mask-54_2_);fill-rule:evenodd;clip-rule:evenodd;fill:url(#Path-7_1_);enable-background:new    ;}
	.np58{fill-rule:evenodd;clip-rule:evenodd;fill:url(#hand_1_);}
	.np59{fill-rule:evenodd;clip-rule:evenodd;fill:url(#SVGID_25_);}
	.np60{fill-rule:evenodd;clip-rule:evenodd;fill:url(#SVGID_26_);}
	.np61{fill-rule:evenodd;clip-rule:evenodd;fill:url(#SVGID_27_);}
	.np62{fill-rule:evenodd;clip-rule:evenodd;fill:url(#SVGID_28_);}
	.np63{fill-rule:evenodd;clip-rule:evenodd;fill:url(#path-63_1_);}
	.np64{fill-rule:evenodd;clip-rule:evenodd;fill:url(#SVGID_29_);}
	.np65{fill-rule:evenodd;clip-rule:evenodd;fill:url(#path-66_1_);}
	.np66{fill-rule:evenodd;clip-rule:evenodd;fill:url(#SVGID_30_);}
	.np67{opacity:0.7;fill-rule:evenodd;clip-rule:evenodd;fill:url(#SVGID_31_);enable-background:new    ;}
	.np68{fill-rule:evenodd;clip-rule:evenodd;fill:url(#SVGID_32_);}
	.np69{fill-rule:evenodd;clip-rule:evenodd;fill:url(#SVGID_33_);}
	.np70{fill-rule:evenodd;clip-rule:evenodd;fill:url(#SVGID_34_);}
	.np71{fill-rule:evenodd;clip-rule:evenodd;fill:url(#SVGID_35_);}
	.np72{fill-rule:evenodd;clip-rule:evenodd;fill:url(#SVGID_36_);}
	.np73{fill-rule:evenodd;clip-rule:evenodd;fill:url(#SVGID_37_);}
	.np74{fill-rule:evenodd;clip-rule:evenodd;fill:url(#SVGID_38_);}
	.np75{fill-rule:evenodd;clip-rule:evenodd;fill:url(#SVGID_39_);}
	</style>
	<g>
		<g>

			<linearGradient id="window_1_" gradientUnits="userSpaceOnUse" x1="-874.5" y1="585.3228" x2="-874.5" y2="585.8228" gradientTransform="matrix(126 0 0 -79 110262 46287)">
				<stop offset="0" style="stop-color:#ECF2FC;stop-opacity:0.6423"/>
				<stop offset="1" style="stop-color:#D4E1F8"/>
			</linearGradient>
			<path id="window" class="np0" d="M105.1,19.1c15.8,1,28.6,8.6,32,20.6c4.9,17.1-11,36.7-35.6,43.7c-17.5,5-34.7,2.3-44.9-5.8
			c-21.3,1.8-39.5-6.5-43.8-21.2c-5.2-18,12.4-38.8,39.3-46.5C73.9,3.7,95,7.9,105.1,19.1z"/>

			<g id="tree" transform="translate(63.253002, 62.388374) scale(-1, 1) rotate(31.000000) translate(-63.253002, -62.388374) translate(53.253002, 37.888374)" class="np1">

				<linearGradient id="leaves_1_" gradientUnits="userSpaceOnUse" x1="1104.5112" y1="-39.3142" x2="1104.6539" y2="-39.9063" gradientTransform="matrix(-16.5476 -21.7508 9.9428 -36.1994 18674.6719 22598.0977)">
					<stop offset="0" style="stop-color:#CFDDF3"/>
					<stop offset="1" style="stop-color:#A1B8E3"/>
				</linearGradient>
				<path id="leaves" class="np2" d="M14.9,42c-1.1,1-5.2-1-6.9-4c-1.6-3,1.4-4.1-2.7-8.8S-1.5,22.6,1,14.7S0,2.4,4.6,0.4
				s7.2,4.8,6.7,10.8c-0.5,6,0.6,7.2,5,6.6c4.5-0.6,0.7,8.2,0.7,10.1s2.7,5.5,2.2,8.2C18.7,38.8,16,41,14.9,42z"/>

				<linearGradient id="branch_1_" gradientUnits="userSpaceOnUse" x1="1221.8738" y1="-200.4429" x2="1221.8738" y2="-201.4429" gradientTransform="matrix(-2.0612 -4.5734 1.2385 -7.6114 2780.2292 4087.1936)">
					<stop offset="0" style="stop-color:#CFDDF3"/>
					<stop offset="1" style="stop-color:#A1B8E3"/>
				</linearGradient>
				<path id="branch" class="np3" d="M12.3,33.6c0-1.5,0.4-6.1,2.4-8.9"/>

				<linearGradient id="SVGID_1_" gradientUnits="userSpaceOnUse" x1="938.0438" y1="-106.7714" x2="938.0438" y2="-107.7714" gradientTransform="matrix(5.2979 -2.7377 -3.1833 -4.5562 -5303.5122 2101.2417)">
					<stop offset="0" style="stop-color:#CFDDF3"/>
					<stop offset="1" style="stop-color:#A1B8E3"/>
				</linearGradient>
				<path class="np4" d="M9.1,25c0-1.5-4.1-2.5-6.2-5.3"/>

				<linearGradient id="SVGID_2_" gradientUnits="userSpaceOnUse" x1="1121.7727" y1="-52.1403" x2="1121.7727" y2="-53.1403" gradientTransform="matrix(-9.0702 -19.7975 5.4499 -32.9486 10470.8994 20500.8516)">
					<stop offset="0" style="stop-color:#CFDDF3"/>
					<stop offset="1" style="stop-color:#A1B8E3"/>
				</linearGradient>
				<path class="np5" d="M17.4,48.9c0-0.6-1.1-3.5-2.1-6.7C12,31.9,6.8,19.2,6.8,10.5"/>
			</g>

			<g id="plant" transform="translate(96.406369, 61.237201) rotate(-1.000000) translate(-96.406369, -61.237201) translate(85.406369, 43.237201)" class="np1">

				<linearGradient id="stem_1_" gradientUnits="userSpaceOnUse" x1="-880.1484" y1="514.58" x2="-880.1484" y2="513.58" gradientTransform="matrix(9.1379 0.4696 0.1595 -26.9027 7970.5132 14265.667)">
					<stop offset="0" style="stop-color:#CFDDF3"/>
					<stop offset="1" style="stop-color:#A1B8E3"/>
				</linearGradient>
				<path id="stem" class="np6" d="M5.3,35.7c0-4.6,3.9-19,9.1-26.9"/>

				<linearGradient id="leaf_1_" gradientUnits="userSpaceOnUse" x1="-787.0891" y1="432.101" x2="-787.2696" y2="430.7984" gradientTransform="matrix(2.4101 -1.2209 -4.1899 -7.3512 3714.1008 2216.6951)">
					<stop offset="0" style="stop-color:#CFDDF3"/>
					<stop offset="1" style="stop-color:#A1B8E3"/>
				</linearGradient>
				<path id="leaf" class="np7" d="M12,11c0.1-1.5-0.2-3-0.9-4.3c-1.2-2-2.6-3.4-3.3-3C7.1,4,7.6,6,8.7,8C9.5,9.3,10.6,10.3,12,11z" />

				<linearGradient id="SVGID_3_" gradientUnits="userSpaceOnUse" x1="-779.8429" y1="636.3627" x2="-780.0229" y2="635.0601" gradientTransform="matrix(-5.361238e-02 2.6994 8.4634 -0.2485 -5403.1309 2274.8799)">
					<stop offset="0" style="stop-color:#CFDDF3"/>
					<stop offset="1" style="stop-color:#A1B8E3"/>
				</linearGradient>
				<path class="np8" d="M13.4,11.8c1.3,0.9,2.7,1.3,4.3,1.2c2.3-0.1,4.2-0.8,4.2-1.5c0-0.7-1.9-1.3-4.3-1.2
				C16,10.3,14.6,10.8,13.4,11.8z"/>

				<linearGradient id="SVGID_4_" gradientUnits="userSpaceOnUse" x1="-796.7676" y1="639.2264" x2="-796.9476" y2="637.9238" gradientTransform="matrix(-0.1948 2.6929 8.4648 0.1948 -5544.2061 2039.2338)">
					<stop offset="0" style="stop-color:#CFDDF3"/>
					<stop offset="1" style="stop-color:#A1B8E3"/>
				</linearGradient>
				<path class="np9" d="M10.8,17.7c1.2,0.9,2.7,1.4,4.2,1.4c2.3,0,4.2-0.5,4.3-1.3c0-0.7-1.9-1.4-4.2-1.4
				C13.5,16.4,12.1,16.8,10.8,17.7z"/>

				<linearGradient id="SVGID_5_" gradientUnits="userSpaceOnUse" x1="-796.7675" y1="639.2265" x2="-796.9476" y2="637.9238" gradientTransform="matrix(-0.1948 2.6929 8.4648 0.1948 -5546.2524 2045.1835)">
					<stop offset="0" style="stop-color:#CFDDF3"/>
					<stop offset="1" style="stop-color:#A1B8E3"/>
				</linearGradient>
				<path class="np10" d="M8.8,23.6c1.2,0.9,2.7,1.4,4.2,1.4c2.3,0,4.2-0.5,4.3-1.3c0-0.7-1.9-1.4-4.2-1.4
				C11.5,22.3,10.1,22.8,8.8,23.6z"/>

				<linearGradient id="SVGID_6_" gradientUnits="userSpaceOnUse" x1="-602.9904" y1="544.7663" x2="-603.171" y2="543.4636" gradientTransform="matrix(2.1819 1.593 4.648 -7.0709 -1195.2223 4811.311)">
					<stop offset="0" style="stop-color:#CFDDF3"/>
					<stop offset="1" style="stop-color:#A1B8E3"/>
				</linearGradient>
				<path class="np11" d="M14.9,7.9c1.4-0.6,2.6-1.5,3.4-2.8c1.3-2,1.8-3.9,1.2-4.3c-0.6-0.4-2.2,0.9-3.4,2.8
				C15.2,4.9,14.8,6.4,14.9,7.9z"/>

				<linearGradient id="SVGID_7_" gradientUnits="userSpaceOnUse" x1="-852.0392" y1="421.4991" x2="-852.2196" y2="420.1965" gradientTransform="matrix(2.1325 -1.6581 -5.5164 -6.4177 4144.4307 1300.7482)">
					<stop offset="0" style="stop-color:#CFDDF3"/>
					<stop offset="1" style="stop-color:#A1B8E3"/>
				</linearGradient>
				<path class="np12" d="M9.3,17c-0.2-1.5-0.7-2.9-1.8-4.1c-1.5-1.8-3.2-2.8-3.8-2.3c-0.6,0.5,0.2,2.3,1.8,4.1
				C6.5,15.9,7.8,16.6,9.3,17z"/>

				<linearGradient id="SVGID_8_" gradientUnits="userSpaceOnUse" x1="-889.5541" y1="417.4092" x2="-889.7345" y2="416.1065" gradientTransform="matrix(1.9474 -1.8717 -6.1576 -5.8065 4301.7505 774.1056)">
					<stop offset="0" style="stop-color:#CFDDF3"/>
					<stop offset="1" style="stop-color:#A1B8E3"/>
				</linearGradient>
				<path class="np13" d="M7.1,23.2c-0.3-1.5-1-2.8-2.2-3.9c-1.7-1.6-3.5-2.4-4-1.9s0.5,2.3,2.2,3.9C4.3,22.4,5.6,23,7.1,23.2z"/>
			</g>
			<g id="window-reflactions" transform="translate(55.000000, 16.000000)" class="np14">

				<linearGradient id="Line_1_" gradientUnits="userSpaceOnUse" x1="-859.1645" y1="522.1722" x2="-861.6187" y2="520.732" gradientTransform="matrix(11.6258 0 0 -9.0053 10011.3926 4699.165)">
					<stop offset="0" style="stop-color:#D2E0F9;stop-opacity:0"/>
					<stop offset="1" style="stop-color:#B1C6E7;stop-opacity:0.4646"/>
				</linearGradient>
				<path id="Line" class="np15" d="M0.1,9.1l11.6-9"/>

				<linearGradient id="Line-Copy_1_" gradientUnits="userSpaceOnUse" x1="-838.8453" y1="507.6584" x2="-841.2995" y2="506.2182" gradientTransform="matrix(9.1698 0 0 -7.1029 7710.2788 3609.8152)">
					<stop offset="0" style="stop-color:#D2E0F9;stop-opacity:0"/>
					<stop offset="1" style="stop-color:#B1C6E7;stop-opacity:0.4646"/>
				</linearGradient>
				<path id="Line-Copy" class="np16" d="M0.2,13.6l9.2-7.1"/>

				<linearGradient id="Line-Copy-3_1_" gradientUnits="userSpaceOnUse" x1="-859.1645" y1="522.1722" x2="-861.6187" y2="520.732" gradientTransform="matrix(11.6258 0 0 -9.0053 10051.5967 4709.4839)">
					<stop offset="0" style="stop-color:#D2E0F9;stop-opacity:0"/>
					<stop offset="1" style="stop-color:#B1C6E7;stop-opacity:0.4646"/>
				</linearGradient>
				<path id="Line-Copy-3" class="np17" d="M40.3,19.4l11.6-9"/>

				<linearGradient id="Line-Copy-2_1_" gradientUnits="userSpaceOnUse" x1="-838.8453" y1="507.6584" x2="-841.2994" y2="506.2182" gradientTransform="matrix(9.1698 0 0 -7.1029 7750.4805 3620.1345)">
					<stop offset="0" style="stop-color:#D2E0F9;stop-opacity:0"/>
					<stop offset="1" style="stop-color:#B1C6E7;stop-opacity:0.4646"/>
				</linearGradient>
				<path id="Line-Copy-2" class="np18" d="M40.4,23.9l9.2-7.1"/>
			</g>
			<g id="guy-on-chair" transform="translate(95.000000, 30.000000)">

				<linearGradient id="SVGID_9_" gradientUnits="userSpaceOnUse" x1="-953.7869" y1="548.1885" x2="-953.4093" y2="548.2824" gradientTransform="matrix(38.6843 0 0 -36.7166 36919.4414 20160.8125)">
					<stop offset="0" style="stop-color:#7FA0D4"/>
					<stop offset="1" style="stop-color:#D6E3FA"/>
				</linearGradient>
				<path class="np19" d="M43.6,18.8l-26-4.8c-7.6,10.9-11.1,20-10.7,27.5c4.8,1.9,14,5,27.6,9.2l10.9-28.9c0.4-1.2-0.2-2.5-1.4-2.9
				C43.9,18.9,43.8,18.9,43.6,18.8z"/>
				<g id="neck" transform="translate(10.131646, 13.493274)">
					<g>

						<linearGradient id="SVGID_10_" gradientUnits="userSpaceOnUse" x1="-929.5337" y1="524.5715" x2="-930.2236" y2="524.5715" gradientTransform="matrix(15.6036 0 0 -20.8233 14521.1455 10933.9834)">
							<stop offset="0" style="stop-color:#FAD0BA"/>
							<stop offset="1" style="stop-color:#F2A384"/>
						</linearGradient>
						<path class="np20" d="M7.5,6.8c0.2,0.8,0.1,1.4-0.3,1.7c-0.7,0.5-1.4,1.4-2,1.5c-0.7,0.1-1.4,0.4-1.5,1.4
						c-0.1,0.4-2.4,2.8-3.2,5.9c-0.2,0.8,0,2,0.8,3.7l1.9-1l2.7-4.4c3-1,4.8-1.7,5.2-1.9c0.6-0.4,2.5-2,2.1-2.6
						c-0.4-0.6,0.8-4.4,1.5-5.1c0.7-0.7,1.3-2.5,1.3-3.2c0-0.7,0.3-2.7-1.5-2.6C13.3,0.3,10.9,2.5,7.5,6.8z"/>
					</g>
					<defs>
						<filter id="Adobe_OpacityMaskFilter" filterUnits="userSpaceOnUse" x="8.9" y="0" width="7.6" height="11.3">
							<feColorMatrix type="matrix" values="1 0 0 0 0  0 1 0 0 0  0 0 1 0 0  0 0 0 1 0"/>
						</filter>
					</defs>
					<mask maskUnits="userSpaceOnUse" x="8.9" y="0" width="7.6" height="11.3" id="mask-18_1_">
						<g class="np21">
							<path id="path-17_1_" class="np22" d="M7.5,6.8c0.2,0.8,0.1,1.4-0.3,1.7c-0.7,0.5-1.4,1.4-2,1.5c-0.7,0.1-1.4,0.4-1.5,1.4
							c-0.1,0.4-2.4,2.8-3.2,5.9c-0.2,0.8,0,2,0.8,3.7l1.9-1l2.7-4.4c3-1,4.8-1.7,5.2-1.9c0.6-0.4,2.5-2,2.1-2.6
							c-0.4-0.6,0.8-4.4,1.5-5.1c0.7-0.7,1.3-2.5,1.3-3.2c0-0.7,0.3-2.7-1.5-2.6C13.3,0.3,10.9,2.5,7.5,6.8z"/>
						</g>
					</mask>

					<linearGradient id="Path-3_1_" gradientUnits="userSpaceOnUse" x1="-871.2991" y1="505.2178" x2="-871.2991" y2="504.2178" gradientTransform="matrix(7.6475 0 0 -11.2731 6675.9893 5695.3999)">
						<stop offset="0" style="stop-color:#F3D9CF"/>
						<stop offset="1" style="stop-color:#E3B3A1;stop-opacity:0"/>
					</linearGradient>
					<path id="Path-3" class="np23" d="M14.1,10.2C11.8,6.3,10.2,3.9,9.2,3S10.6,1,16.6,0l-2.5,11.3V10.2z"/>
				</g>

				<linearGradient id="SVGID_11_" gradientUnits="userSpaceOnUse" x1="-909.3543" y1="527.2737" x2="-910.0441" y2="527.2737" gradientTransform="matrix(13.2486 0 0 -14.258 12074.1846 7531.2983)">
					<stop offset="0" style="stop-color:#FAD0BA"/>
					<stop offset="1" style="stop-color:#F2A384"/>
				</linearGradient>
				<path class="np24" d="M15.8,6.6c-0.8,0.5-0.1,2.7-1,3.9c-0.5,0.7-1.5,1-1.9,1.3c-1.3,0.8,0,1.3,0.3,1.7c0.3,0.4,0.1,1.5-0.1,2.3
				c-0.2,0.8-0.9,2.6-0.2,3c0.8,0.4,5.5,2.2,6.9,1.6s1.9-3.2,2.2-3.4c0.3-0.2,0.6,0,0.9,0.1c0.8,0.2,1.5-0.2,1.9-0.9
				c0.4-0.7,1.1-0.4,0.7-1.4C25,13.4,21.9,7.4,20.7,7C19.5,6.6,17.1,5.8,15.8,6.6z"/>
				<g>
					<g>

						<linearGradient id="path-23_1_" gradientUnits="userSpaceOnUse" x1="-918.2542" y1="538.5815" x2="-918.1772" y2="538.0795" gradientTransform="matrix(15.1242 0 0 -20.75 13908.2979 11173.6162)">
							<stop offset="0" style="stop-color:#2D6DC0"/>
							<stop offset="1" style="stop-color:#143B8C"/>
						</linearGradient>
						<path id="path-23" class="np25" d="M19.7,8.3c-3.1-0.8-4.5-0.1-5.6-2.4c-0.7-1.4,0.6-5.6,2.8-5.7c0.5,2.4,3.1,2.6,4.6,2.8
						c8,1.1,8.8,8.2,6.4,12.4c-0.8,1.4-1.5,2.3-2.1,3.1c-0.4,0.5-0.9,1-1.1,1.3c-0.1,0.1-0.6,1.2-0.7,1.2c-0.3-0.1-0.2-0.1,0-1.2
						c0.1-1.2,0.2-1.5,0.4-2.4c0.1-0.3,1.4-2.4,0.4-3.2c-0.7-0.5-1.6-0.2-2.8,0.9l-0.7-0.3c0.5-1,0.8-1.8,0.9-2.3
						C22.4,11.7,22.8,9,19.7,8.3z"/>
					</g>
					<g>

						<linearGradient id="SVGID_12_" gradientUnits="userSpaceOnUse" x1="-918.1807" y1="538.0947" x2="-918.1237" y2="537.5895" gradientTransform="matrix(15.1242 0 0 -20.75 13908.2979 11173.6162)">
							<stop offset="0" style="stop-color:#174293;stop-opacity:0"/>
							<stop offset="1" style="stop-color:#051E4B"/>
						</linearGradient>
						<path class="np26" d="M19.7,8.3c-3.1-0.8-4.5-0.1-5.6-2.4c-0.7-1.4,0.6-5.6,2.8-5.7c0.5,2.4,3.1,2.6,4.6,2.8
						c8,1.1,8.8,8.2,6.4,12.4c-0.8,1.4-1.5,2.3-2.1,3.1c-0.4,0.5-0.9,1-1.1,1.3c-0.1,0.1-0.6,1.2-0.7,1.2c-0.3-0.1-0.2-0.1,0-1.2
						c0.1-1.2,0.2-1.5,0.4-2.4c0.1-0.3,1.4-2.4,0.4-3.2c-0.7-0.5-1.6-0.2-2.8,0.9l-0.7-0.3c0.5-1,0.8-1.8,0.9-2.3
						C22.4,11.7,22.8,9,19.7,8.3z"/>
					</g>
				</g>

				<linearGradient id="SVGID_13_" gradientUnits="userSpaceOnUse" x1="-893.6885" y1="494.385" x2="-893.1069" y2="493.9874" gradientTransform="matrix(10.5962 0 0 -7.233 9482.7354 3590.3728)">
					<stop offset="0" style="stop-color:#2D6DC0"/>
					<stop offset="1" style="stop-color:#143B8C"/>
				</linearGradient>
				<path class="np27" d="M21.3,14.8c-0.2,0.5-1.1,1.7-1.9,2.1c-0.8,0.4-2.5,0.5-2.8,0s-1.9-2.7-3.3-3c-0.1,0.3-0.3,0.8-0.6,1.4
				c1.1,0.4,1.7,0.9,1.9,1.3c0.3,0.6,0.4,0.2,0.1,0.5c-0.3,0.3-1.6,0.1-1.8-1c-0.4,0.8-0.8,3-0.7,3.5c0.2,0.5,1,0.7,1.9,0.8
				c0.9,0.1,3.9,0.5,4.7,0.4c0.8-0.2,1.8-0.1,2.4-1.9c0.7-1.9,0.5-3.1,1.4-4.6C23.5,12.5,21.6,14.2,21.3,14.8z"/>
				<g id="shirt" transform="translate(0.000000, 21.955157)">
					<g>

						<linearGradient id="SVGID_14_" gradientUnits="userSpaceOnUse" x1="-950.0248" y1="521.6434" x2="-949.0248" y2="520.992" gradientTransform="matrix(32.7457 0 0 -26.6755 31110.6602 13918.1377)">
							<stop offset="0" style="stop-color:#4049E8"/>
							<stop offset="0.4005" style="stop-color:#3C80EF"/>
							<stop offset="1" style="stop-color:#3ACEFF"/>
						</linearGradient>
						<path class="np28" d="M23.8,0.3C27,1,29.2,2.2,30.3,3.9c1.7,2.5,2.5,9.2,2.5,11.4s0.3,7.5,0,9c-0.3,1.5-1.5,2.5-4,2.5
						c-1.7,0-11.2-3.1-28.6-9.2c2.3-1.1,3.5-1.9,3.5-2.3c0.1-0.6,5.4-12.2,7.1-13.4c1.7-1.2,5.2-1.7,6.6-1.7c-0.2,0.6-0.7,1,0,1.7
						c0.6,0.7,1.9,0.9,3.2,0.4C21.3,1.9,22.4,1.3,23.8,0.3z"/>
					</g>
					<defs>
						<filter id="Adobe_OpacityMaskFilter_1_" filterUnits="userSpaceOnUse" x="14.9" y="-2.3" width="10.1" height="6.6">
							<feColorMatrix type="matrix" values="1 0 0 0 0  0 1 0 0 0  0 0 1 0 0  0 0 0 1 0"/>
						</filter>
					</defs>
					<mask maskUnits="userSpaceOnUse" x="14.9" y="-2.3" width="10.1" height="6.6" id="mask-27_1_">
						<g class="np29">
							<path id="path-26_1_" class="np22" d="M23.8,0.3C27,1,29.2,2.2,30.3,3.9c1.7,2.5,2.5,9.2,2.5,11.4s0.3,7.5,0,9
							c-0.3,1.5-1.5,2.5-4,2.5c-1.7,0-11.2-3.1-28.6-9.2c2.3-1.1,3.5-1.9,3.5-2.3c0.1-0.6,5.4-12.2,7.1-13.4
							c1.7-1.2,5.2-1.7,6.6-1.7c-0.2,0.6-0.7,1,0,1.7c0.6,0.7,1.9,0.9,3.2,0.4C21.3,1.9,22.4,1.3,23.8,0.3z"/>
						</g>
					</mask>

					<linearGradient id="Path-6_1_" gradientUnits="userSpaceOnUse" x1="-888.9181" y1="464.6239" x2="-888.9181" y2="465.6239" gradientTransform="matrix(10.0706 0 0 -6.5573 8971.8496 3050.895)">
						<stop offset="0" style="stop-color:#70B8F9;stop-opacity:0.2759"/>
						<stop offset="1" style="stop-color:#3D82F0"/>
					</linearGradient>
					<path id="Path-6" class="np30" d="M15.6,0.6C13,3.3,18.2,4.8,20.4,4c1.4-0.5,3-1.6,4.6-3.4c-4.1-3-6.6-3.7-7.7-2.2
					C15.6,0.6,18.3-2.1,15.6,0.6z"/>
					<defs>
						<filter id="Adobe_OpacityMaskFilter_2_" filterUnits="userSpaceOnUse" x="11.8" y="8.2" width="14.3" height="16.8">
							<feColorMatrix type="matrix" values="1 0 0 0 0  0 1 0 0 0  0 0 1 0 0  0 0 0 1 0"/>
						</filter>
					</defs>
					<mask maskUnits="userSpaceOnUse" x="11.8" y="8.2" width="14.3" height="16.8" id="mask-27_2_">
						<g class="np31">
							<path id="path-26_2_" class="np22" d="M23.8,0.3C27,1,29.2,2.2,30.3,3.9c1.7,2.5,2.5,9.2,2.5,11.4s0.3,7.5,0,9
							c-0.3,1.5-1.5,2.5-4,2.5c-1.7,0-11.2-3.1-28.6-9.2c2.3-1.1,3.5-1.9,3.5-2.3c0.1-0.6,5.4-12.2,7.1-13.4
							c1.7-1.2,5.2-1.7,6.6-1.7c-0.2,0.6-0.7,1,0,1.7c0.6,0.7,1.9,0.9,3.2,0.4C21.3,1.9,22.4,1.3,23.8,0.3z"/>
						</g>
					</mask>

					<linearGradient id="Path-8_1_" gradientUnits="userSpaceOnUse" x1="-914.7547" y1="510.4454" x2="-914.4309" y2="510.1695" gradientTransform="matrix(14.2913 0 0 -16.801 13092.4443 8593.4561)">
						<stop offset="0" style="stop-color:#3D82F0;stop-opacity:0"/>
						<stop offset="1" style="stop-color:#3D82F0"/>
					</linearGradient>
					<path id="Path-8" class="np32" d="M11.8,25c1.9,0,14.3-2,14.3-3.6c0-1.1-0.3-5.5-1-13.2"/>
					<defs>
						<filter id="Adobe_OpacityMaskFilter_3_" filterUnits="userSpaceOnUse" x="-5.5" y="0.1" width="16.3" height="21.5">
							<feColorMatrix type="matrix" values="1 0 0 0 0  0 1 0 0 0  0 0 1 0 0  0 0 0 1 0"/>
						</filter>
					</defs>
					<mask maskUnits="userSpaceOnUse" x="-5.5" y="0.1" width="16.3" height="21.5" id="mask-27_3_">
						<g class="np33">
							<path id="path-26_3_" class="np22" d="M23.8,0.3C27,1,29.2,2.2,30.3,3.9c1.7,2.5,2.5,9.2,2.5,11.4s0.3,7.5,0,9
							c-0.3,1.5-1.5,2.5-4,2.5c-1.7,0-11.2-3.1-28.6-9.2c2.3-1.1,3.5-1.9,3.5-2.3c0.1-0.6,5.4-12.2,7.1-13.4
							c1.7-1.2,5.2-1.7,6.6-1.7c-0.2,0.6-0.7,1,0,1.7c0.6,0.7,1.9,0.9,3.2,0.4C21.3,1.9,22.4,1.3,23.8,0.3z"/>
						</g>
					</mask>

					<linearGradient id="Path-8-Copy_1_" gradientUnits="userSpaceOnUse" x1="-922.2828" y1="516.7615" x2="-922.0251" y2="516.4856" gradientTransform="matrix(16.2791 0 0 -21.454 15017.1523 11098.1895)">
						<stop offset="0" style="stop-color:#3D82F0;stop-opacity:0"/>
						<stop offset="1" style="stop-color:#3D82F0"/>
					</linearGradient>
					<path id="Path-8-Copy" class="np34" d="M-5.5,17.9c0.9,0,4.9,5,8.5,3.3c4.4-2,7-9.5,7-10.4c0-0.7,1.2-3.1,0.7-5.8
					c-0.2-1-1-2.7-2.4-5"/>
				</g>
			</g>
			<g id="guy-standin" transform="translate(60.000000, 0.000000)">

				<linearGradient id="SVGID_15_" gradientUnits="userSpaceOnUse" x1="-833.3436" y1="557.0601" x2="-834.0335" y2="557.0601" gradientTransform="matrix(8.1983 0 0 -14.1696 6856.6899 7913.1938)">
					<stop offset="0" style="stop-color:#FAD0BA"/>
					<stop offset="1" style="stop-color:#F2A384"/>
				</linearGradient>
				<path class="np35" d="M15.9,15.6c0.5,3.5,0.6,5.6,0.3,6.2c-0.4,0.9,0.4,5,3.1,5.2c2.7,0.2,4-0.9,4.1-3.6s0.3-3.8,0.7-5
				c0.4-1.2-7.6-6.3-7.9-5.3C16,13.5,15.9,14.4,15.9,15.6z"/>

				<linearGradient id="SVGID_16_" gradientUnits="userSpaceOnUse" x1="-870.201" y1="559.1633" x2="-870.8908" y2="559.1633" gradientTransform="matrix(12.4706 0 0 -15.0912 10879.7129 8451.8652)">
					<stop offset="0" style="stop-color:#FAD0BA"/>
					<stop offset="1" style="stop-color:#F2A384"/>
				</linearGradient>
				<path class="np36" d="M26.8,7.4c0,0.8,0.1,3.2,0,3.9c-0.1,0.6-0.1,1.5-0.1,2.7c0.1,1.2-0.6,4.1-1.2,5.2c-0.4,0.6-2.1,1.9-3.7,1.7
				c-1.9-0.2-4-2-4.2-3c-0.4-1.7-0.1-3.2-1.3-4.1c-1.2-0.9-2.1-1.7-1.9-3.1c0.1-1.4,1.3-4.7,1.9-4.9C17,5.8,26.8,6.7,26.8,7.4z"/>

				<linearGradient id="SVGID_17_" gradientUnits="userSpaceOnUse" x1="-884.0529" y1="559.4558" x2="-884.2189" y2="558.8407" gradientTransform="matrix(15.3682 0 0 -15.0912 13608.3184 8446.4502)">
					<stop offset="0" style="stop-color:#2762C3"/>
					<stop offset="1" style="stop-color:#123A8E"/>
				</linearGradient>
				<path class="np37" d="M16.6,6.4c0.6,0.8,5.5,4.9,10.5,2.3c5-2.7-1.6-7.5-4.6-8c-3-0.6-5.6-0.2-7.4,2.3c-1.8,2.5-2.7,6.8,0.8,12.6
				c0.2-0.9,0.2-1.5,0.2-1.8c-1.4-1.3-1.8-2.5-1.1-3.6c1.1-1.7,1.4,1.6,1.5,2.1c0.4,0,0.7-0.1,0.8-0.2c-0.3-0.8-0.4-1.6-0.3-2.3
				C17.2,8.7,17.6,8.5,16.6,6.4z"/>
				<path class="np38" d="M7.2,67.8c0-1.3-1.5-9.7,1.6-12.2c3.1-2.5,6.9,1.2,20.8,1.7c0.2,5.6,0.2,9.6,0,11.9
				C29.4,71.5,20.9,74.7,7.2,67.8z"/>

				<linearGradient id="SVGID_18_" gradientUnits="userSpaceOnUse" x1="-753.9819" y1="518.4476" x2="-754.6718" y2="518.4476" gradientTransform="matrix(4.718 0 0 -6.6801 3567.1172 3520.8823)">
					<stop offset="0" style="stop-color:#FAD0BA"/>
					<stop offset="1" style="stop-color:#F2A384"/>
				</linearGradient>
				<path class="np39" d="M4.8,56.9c0.3,1.5,1.4,3,1.8,3.3c0.4,0.3,1.7,0.8,2,0.7c0.3-0.1,0.9-0.6,0.9-1.3c0-0.6-0.6-1-0.6-2
				c0-1-1.6-2.3-1.6-3.2C7.3,53.6,4.5,55.4,4.8,56.9z"/>

				<linearGradient id="SVGID_19_" gradientUnits="userSpaceOnUse" x1="-817.5145" y1="527.2714" x2="-818.2044" y2="527.2714" gradientTransform="matrix(7.1467 0 0 -7.5979 5895.79 4060.731)">
					<stop offset="0" style="stop-color:#FAD0BA"/>
					<stop offset="1" style="stop-color:#F2A384"/>
				</linearGradient>
				<path class="np40" d="M45.9,54.9c1,1.3,1.6,1.5,2,1.9c0.4,0.4,1.2,1.8,1.5,1.5c0.3-0.2,0.6-0.7,0.2-1.5c-0.5-0.9-1.2-1.8-1-2.2
				c0.3-0.5,1.5-1.8,2.6-2.1c1.1-0.3,1.4-0.1,1.5-0.3c0.1-0.2-1.3-0.4-1.8-0.5c-0.6-0.1-1.4-0.1-2.5,0c-0.8,0.1-1.3-0.2-1.6-1
				C45.5,52.7,45.2,54,45.9,54.9z"/>
				<g transform="translate(0.000000, 21.888000)">
					<g>

						<linearGradient id="SVGID_20_" gradientUnits="userSpaceOnUse" x1="-923.2219" y1="557.0148" x2="-923.0491" y2="556.4763" gradientTransform="matrix(48.0167 0 0 -38.4768 44349.7578 21448.0879)">
							<stop offset="0" style="stop-color:#84F0A8"/>
							<stop offset="1" style="stop-color:#48B676"/>
						</linearGradient>
						<path class="np41" d="M7.8,33c-0.7-0.4-3.1,0.5-3.1,2.5C3.5,31.3,0,25.5,0,19.2C1.6,13.8,5.7,5.1,6.7,3.8
						c0.6-0.9,3.7-2.2,9.2-3.8c1.2,1.3,2.7,2,4.4,2c2.5,0,2.7-1.5,3.3-1.6c0.7-0.1,4.5,1.6,6.4,3.4c1.9,1.8,3.9,9,8.9,14.5
						c5,5.5,6.7,9.4,9.2,11.5c-0.9,0.8-2.1,1.3-2.1,3.2C45,32.4,40,29,35.8,25c-4.2-4-6.1-7.3-6.7-7.7c-0.7-0.5,0.9,15.4,0.9,18.2
						c-0.1,2.8-9.8,3-12.8,3c-3,0-7.7-1-8.9-2.1c-0.2-0.2,0.3-22.5,0-21.6c-0.8,2.4-2.7,3.6-2.7,5.1C5.5,23.6,7.8,33.3,7.8,33z"/>
					</g>
				</g>

				<linearGradient id="SVGID_21_" gradientUnits="userSpaceOnUse" x1="-827.6173" y1="523.5112" x2="-827.3892" y2="522.5179" gradientTransform="matrix(7.7408 0 0 -7.1424 6425.6421 3759.0789)">
					<stop offset="0" style="stop-color:#84F0A8"/>
					<stop offset="1" style="stop-color:#48B676"/>
				</linearGradient>
				<path class="np42" d="M16.3,19c0,0.9,1.3,3.3,3.9,3.2c2.6-0.1,3.1-0.2,3.4-1.5c0,1.9,0.1,2.5-0.4,3.7c-0.5,1.3-3.4,2-5.1,0.9
				c-1.6-1.1-2.5-1.7-2.3-3.6C16.1,19.9,16.3,18.1,16.3,19z"/>
			</g>
			<g id="girl-and-desk" transform="translate(0.000000, 24.000000)">

				<linearGradient id="chair_1_" gradientUnits="userSpaceOnUse" x1="-853.0354" y1="553.9989" x2="-853.3121" y2="554.0818" gradientTransform="matrix(31.0488 0 0 -36.1419 26519.6523 20056.8008)">
					<stop offset="0" style="stop-color:#7FA0D4"/>
					<stop offset="1" style="stop-color:#D6E3FA"/>
				</linearGradient>
				<path id="chair" class="np43" d="M18.3,21.8l23.4-5.6C46,27.8,48,37.3,47.6,44.8c-4.7,1.9-11.8,4.5-21.2,7.6l-9.6-27.6
				c-0.4-1.2,0.2-2.5,1.4-2.9C18.2,21.8,18.3,21.8,18.3,21.8z"/>
				<path id="hair" class="np44" d="M44.9,17.8c-0.5,1.6,1.1,6,3.7,8.2c2.6,2.2-5.7,1.8-5.7-0.6C42.9,22.9,45.4,16.2,44.9,17.8z"/>

				<linearGradient id="arm_1_" gradientUnits="userSpaceOnUse" x1="-835.8919" y1="543.3649" x2="-835.0783" y2="544.3649" gradientTransform="matrix(19.1629 0 0 -20.6326 16065.7363 11254.0264)">
					<stop offset="0" style="stop-color:#4049E8"/>
					<stop offset="0.4005" style="stop-color:#3C80EF"/>
					<stop offset="1" style="stop-color:#3ACEFF"/>
				</linearGradient>
				<path id="arm" class="np45" d="M46.1,22.7c2,0.8,3.4,1.7,4.2,2.6c1.3,1.4,7.6,12,8.3,12.6c0.7,0.6,5.8,1.1,6.6,1.4
				c-0.4,0.6-1.2,2.3-0.8,3.8c-1.2,0.6-3.9,0.1-9.3-0.5c-4.1-3.4-6.2-8.7-7-11.2C47.2,28.7,46.6,25.9,46.1,22.7z"/>

				<linearGradient id="SVGID_22_" gradientUnits="userSpaceOnUse" x1="-828.3881" y1="547.7048" x2="-827.9175" y2="548.7052" gradientTransform="matrix(16.5221 0 0 -25.2595 13727.5039 13881.6387)">
					<stop offset="0" style="stop-color:#4049E8"/>
					<stop offset="0.4005" style="stop-color:#3C80EF"/>
					<stop offset="1" style="stop-color:#3ACEFF"/>
				</linearGradient>
				<path class="np46" d="M48.7,24.5c1.6,2.7,4,8.1,4.7,10.4c0.7,2.5-2.1,9.1-2.1,10.6c0,1.3-1.3,0.8-13.1,2c-0.4-2.3-0.4-5.1,0-8.5
				c0.5-5.1-1.7-12-1.1-13.1c0.6-1.2,2.1-3.6,2.8-3.6C40.6,22.3,47.2,21.8,48.7,24.5z"/>

				<linearGradient id="desk-top_1_" gradientUnits="userSpaceOnUse" x1="-875.5668" y1="554.4673" x2="-875.5895" y2="554.4197" gradientTransform="matrix(149.0571 0 0 -37.4696 130586.3438 20835.2051)">
					<stop offset="0" style="stop-color:#EAEFFF"/>
					<stop offset="1" style="stop-color:#FFFFFF"/>
				</linearGradient>
				<path id="desk-top" class="np47" d="M0,52.7l53.4-11.1c10.9-2.3,28.3-1.1,38.9,2.6l49.1,17.4c10.5,3.7,10.2,8.4-0.8,10.4
				l-12.3,2.3c-11,2-28.9,3.7-40.1,3.7h-68C9,77.9,0,68.9,0,57.7V52.7z"/>

				<linearGradient id="shadow_1_" gradientUnits="userSpaceOnUse" x1="-863.7434" y1="539.7414" x2="-863.8113" y2="539.6661" gradientTransform="matrix(49.6134 0 0 -17.5288 42928.1758 9519.0176)">
					<stop offset="0" style="stop-color:#0041B2"/>
					<stop offset="1" style="stop-color:#2D64D7;stop-opacity:0"/>
				</linearGradient>
				<polyline id="shadow" class="np48" points="51.2,55.2 79.3,50.6 100.8,60 69.8,68.2 			"/>
				<g transform="translate(38.442451, 15.272956)">
					<g>

						<linearGradient id="SVGID_23_" gradientUnits="userSpaceOnUse" x1="-746.8361" y1="485.5753" x2="-746.3699" y2="484.5753" gradientTransform="matrix(5.0894 0 0 -7.2652 3803.3044 3528.6787)">
							<stop offset="0" style="stop-color:#FCE38A"/>
							<stop offset="1" style="stop-color:#F38181"/>
						</linearGradient>
						<path class="np49" d="M5.9,3.1c-0.3,1.4,0,2.4,0,3.9c0,2.1-4.3,1.2-4.4-0.3C1.3,5.1,1.4,3,0.8,1.6C0.2,0.1,6.2,1.8,5.9,3.1z"/>
					</g>
					<defs>
						<filter id="Adobe_OpacityMaskFilter_4_" filterUnits="userSpaceOnUse" x="-0.3" y="2" width="8.1" height="7.2">
							<feColorMatrix type="matrix" values="1 0 0 0 0  0 1 0 0 0  0 0 1 0 0  0 0 0 1 0"/>
						</filter>
					</defs>
					<mask maskUnits="userSpaceOnUse" x="-0.3" y="2" width="8.1" height="7.2" id="mask-49_1_">
						<g class="np50">
							<path id="path-48_1_" class="np22" d="M5.9,3.1c-0.3,1.4,0,2.4,0,3.9c0,2.1-4.3,1.2-4.4-0.3C1.3,5.1,1.4,3,0.8,1.6
							C0.2,0.1,6.2,1.8,5.9,3.1z"/>
						</g>
					</mask>

					<linearGradient id="Path_1_" gradientUnits="userSpaceOnUse" x1="-811.7144" y1="484.7944" x2="-811.7144" y2="483.7944" gradientTransform="matrix(8.1495 0 0 -7.1836 6618.8555 3484.6042)">
						<stop offset="0" style="stop-color:#B95F46"/>
						<stop offset="1" style="stop-color:#8597B5;stop-opacity:0"/>
					</linearGradient>
					<path id="Path" class="np51" d="M-0.3,9.2c4.3-3.6,7-5.4,7.9-5.4S6,3.2-0.3,2V9.2z"/>
				</g>

				<linearGradient id="face_1_" gradientUnits="userSpaceOnUse" x1="-804.4046" y1="532.1698" x2="-805.0945" y2="532.1698" gradientTransform="matrix(11.526 0 0 -13.8125 9321.0771 7363.938)">
					<stop offset="0" style="stop-color:#FAD0BA"/>
					<stop offset="1" style="stop-color:#F2A384"/>
				</linearGradient>
				<path id="face" class="np52" d="M45.6,7.4c0.4,1.2,0.3,2.5,1.1,3.7c0.7,1.1,1.7,2.1,2,2.6c0.3,0.5-1,1-1,1.4
				c0,0.5,0.9,3.6,0.4,3.9c-0.3,0.7-5.1,1.7-6.3,1C40.6,20,39,19,38,16.7c-1-2.3-1.1-7.9,0-9.3C39,6,45.2,6.2,45.6,7.4z"/>
				<g id="document" transform="translate(52.944694, 39.310692)">
					<g>

						<linearGradient id="SVGID_24_" gradientUnits="userSpaceOnUse" x1="-897.6108" y1="491.7858" x2="-896.9662" y2="491.9877" gradientTransform="matrix(23.6206 0 0 -13.459 21202.1602 6627.8369)">
							<stop offset="0" style="stop-color:#FF7F31"/>
							<stop offset="1" style="stop-color:#FFD25F"/>
						</linearGradient>
						<polygon class="np53" points="0.2,13.7 1.8,0.7 23.8,0.2 21.9,12.9 					"/>
					</g>
					<defs>
						<filter id="Adobe_OpacityMaskFilter_5_" filterUnits="userSpaceOnUse" x="20.2" y="-0.1" width="4.6" height="10.3">
							<feColorMatrix type="matrix" values="1 0 0 0 0  0 1 0 0 0  0 0 1 0 0  0 0 0 1 0"/>
						</filter>
					</defs>
					<mask maskUnits="userSpaceOnUse" x="20.2" y="-0.1" width="4.6" height="10.3" id="mask-54_1_">
						<g class="np54">
							<polygon id="path-53_1_" class="np22" points="0.2,13.7 1.8,0.7 23.8,0.2 21.9,12.9 						"/>
						</g>
					</mask>

					<linearGradient id="Path-2_1_" gradientUnits="userSpaceOnUse" x1="-743.3466" y1="481.0388" x2="-743.493" y2="480.8181" gradientTransform="matrix(4.615 0 0 -10.2927 3453.0342 4953.5244)">
						<stop offset="0" style="stop-color:#FF7F31"/>
						<stop offset="1" style="stop-color:#FFC83A;stop-opacity:0"/>
					</linearGradient>
					<polygon id="Path-2" class="np55" points="23.1,10.2 20.2,-0.1 24.8,-0.1 				"/>
					<defs>
						<filter id="Adobe_OpacityMaskFilter_6_" filterUnits="userSpaceOnUse" x="-1.4" y="7.5" width="10.3" height="9.8">
							<feColorMatrix type="matrix" values="1 0 0 0 0  0 1 0 0 0  0 0 1 0 0  0 0 0 1 0"/>
						</filter>
					</defs>
					<mask maskUnits="userSpaceOnUse" x="-1.4" y="7.5" width="10.3" height="9.8" id="mask-54_2_">
						<g class="np56">
							<polygon id="path-53_2_" class="np22" points="0.2,13.7 1.8,0.7 23.8,0.2 21.9,12.9 						"/>
						</g>
					</mask>

					<linearGradient id="Path-7_1_" gradientUnits="userSpaceOnUse" x1="-849.0703" y1="478.6424" x2="-848.5703" y2="478.9461" gradientTransform="matrix(10.3133 0 0 -9.8375 8759.0029 4720.5312)">
						<stop offset="0" style="stop-color:#FF7F31"/>
						<stop offset="1" style="stop-color:#FFC83A;stop-opacity:0"/>
					</linearGradient>
					<path id="Path-7" class="np57" d="M2.7,7.7c0,0.8,2,2,4.3,3.1c1.4,0.6,1.2,2,1.8,2c1.1,0-2.2,1.5-9.8,4.6
					c-0.4-4.2-0.4-6.8,0-7.9C-0.4,7.7,2.7,7.2,2.7,7.7z"/>
				</g>

				<linearGradient id="hand_1_" gradientUnits="userSpaceOnUse" x1="-799.4053" y1="500.886" x2="-800.0952" y2="500.886" gradientTransform="matrix(10.8191 0 0 -7.3258 8709.8574 3719.6812)">
					<stop offset="0" style="stop-color:#FAD0BA"/>
					<stop offset="1" style="stop-color:#F2A384"/>
				</linearGradient>
				<path id="hand" class="np58" d="M51.4,47.7c0.7,0,1.5-0.4,2.7-0.6c1.2-0.3,1.9-0.7,2.3-0.3c0.1,0.2-0.1,0.5-0.3,0.6
				c-0.2,0.1-0.3,0.3-1.1,0.6c-0.8,0.3-1.2,0.4-1.1,0.7c0.1,0.3,1.4,0.5,1.8,0.6c0.5,0.1,1.3,0.4,2,0.5c0.8,0.1,1.7,0.2,1.8,0.2
				c0.2,0.1,0.5,0.5,0,0.7c-0.1,0-0.9,0-2,0c-1.1-0.1-2.1-0.3-1.9,0c0,0.1,1,0.3,2.1,0.3c0.6,0,2,0.1,2,0.1c0.3,0,0.5,0.4,0.2,0.6
				c-0.1,0-1.3,0.2-2.3,0.2c-1.2,0-2.2-0.1-2.2,0c0,0,1.2,0.2,2.3,0.1c0.9,0,1.4-0.1,1.5,0c0.2,0.1,0.1,0.4,0,0.5
				c-0.1,0.1-0.9,0.3-1.7,0.4c-1.1,0.1-2.3-0.1-2.4,0c0,0.1,2,0.2,2.4,0.2c0.4,0,0.4,0.6-0.1,0.7C57,54,55.6,54,55,54
				c-0.6,0-1.5-0.1-2.4-0.5c-0.9-0.3-2.1-0.8-2.9-1c-0.8-0.2-0.2-2.8,0.3-4.1C50.7,47,50.7,47.7,51.4,47.7z"/>

				<linearGradient id="SVGID_25_" gradientUnits="userSpaceOnUse" x1="-837.5793" y1="546.13" x2="-838.3472" y2="545.13" gradientTransform="matrix(20.2674 0 0 -22.3208 17024.5332 12220.457)">
					<stop offset="0" style="stop-color:#4049E8"/>
					<stop offset="0.4005" style="stop-color:#3C80EF"/>
					<stop offset="1" style="stop-color:#3ACEFF"/>
				</linearGradient>
				<path class="np59" d="M31.5,32.8c-1.7,4.3-0.4,7.6,0.4,11.4c0.7,3.8,1.1,4.6,2.3,5.3c1.2,0.8,4.1,1.8,15.3,3.1c0-0.9,0-3.1,1.4-5
				c-2.1,0-9.4-2-12-2.7c-2.3-1.7,0-4.5,0-9.7C38.9,30,33.2,28.5,31.5,32.8z"/>

				<linearGradient id="SVGID_26_" gradientUnits="userSpaceOnUse" x1="-840.1137" y1="557.3956" x2="-840.1542" y2="556.3956" gradientTransform="matrix(21.3206 0 0 -46.0218 17949.6992 25652.9844)">
					<stop offset="0" style="stop-color:#2762C3"/>
					<stop offset="1" style="stop-color:#123A8E"/>
				</linearGradient>
				<path class="np60" d="M38.4,7.9c1.6,1.2,5.3,1.6,7.8,0.4c2.5-1.2,3.1-6,0-7.5c-1.2-0.6-3.6-0.2-3.2,1.5c-2.7-1.1-5.7-0.1-6.9,0.6
				c-1.8,1.1-3.3,2.3-4,4.8c-0.8,2.5,0.5,5-0.1,6.3c-0.6,1.3-2.4,2.4-1.4,6.3c1,3.9-1.3,3.3-1.9,5.7c-0.5,2.4,1.1,3.5,0,5.1
				c-1.1,1.6-3.3,8.3,0.8,11.9c4.1,3.6,11.6,6.2,13.3-1.5c1.7-7.8-6.3-9.5-4-13.4c2.4-3.9,0.8-7.5,1.3-8.6c0.6-1.4,0-3.5-1.2-6.3
				C37.7,10.7,39.3,10,38.4,7.9z"/>
				<g id="documents" transform="translate(52.369208, 57.625157)">

					<linearGradient id="SVGID_27_" gradientUnits="userSpaceOnUse" x1="-902.0827" y1="466.8989" x2="-902.0827" y2="465.8989" gradientTransform="matrix(27.7476 0 0 -11.2246 25044.6152 5243.2676)">
						<stop offset="0" style="stop-color:#B2C7E8"/>
						<stop offset="1" style="stop-color:#D6E3FA"/>
					</linearGradient>
					<path class="np61" d="M0.1,5.1l15.3-2.6c8.5,5.3,12.6,7.9,12.4,7.9c-0.2,0-17.1,3-18.3,3.3C9.7,13.5,6.5,10.6,0.1,5.1z"/>

					<linearGradient id="SVGID_28_" gradientUnits="userSpaceOnUse" x1="-898.309" y1="456.2321" x2="-898.309" y2="455.2321" gradientTransform="matrix(24.803 0 0 -9.0132 22302.3516 4112.1157)">
						<stop offset="0" style="stop-color:#C6D6EE"/>
						<stop offset="1" style="stop-color:#E5EFFD"/>
					</linearGradient>
					<polygon class="np62" points="9.2,1.1 25.2,0 34,7.6 14.1,9 				"/>
				</g>
				<g id="laptop" transform="translate(74.237668, 31.984906)">
					<g>
						<g>

							<linearGradient id="path-63_1_" gradientUnits="userSpaceOnUse" x1="-931.9584" y1="499.1826" x2="-932.1244" y2="499.0494" gradientTransform="matrix(37.1467 0 0 -13.4233 34643.457 6721.5034)">
								<stop offset="0" style="stop-color:#2762C3"/>
								<stop offset="1" style="stop-color:#123A8E"/>
							</linearGradient>
							<path id="path-63" class="np63" d="M26.6,27.9l14.5-5.8c0.3-0.1,0.4-0.4,0.3-0.7c-0.1-0.2-0.2-0.3-0.3-0.3l-18.5-6.6L4.4,18.9
							L26.6,27.9z"/>
						</g>
						<g>
							<linearGradient id="SVGID_29_" gradientUnits="userSpaceOnUse" x1="4.3685" y1="21.1438" x2="41.5152" y2="21.1438">
								<stop offset="0" style="stop-color:#E5EDFF"/>
								<stop offset="1" style="stop-color:#2762C3"/>
							</linearGradient>
							<path class="np64" d="M26.6,27.9l14.5-5.8c0.3-0.1,0.4-0.4,0.3-0.7c-0.1-0.2-0.2-0.3-0.3-0.3l-18.5-6.6L4.4,18.9L26.6,27.9z" />
						</g>
					</g>
					<g>
						<g>

							<linearGradient id="path-66_1_" gradientUnits="userSpaceOnUse" x1="-921.8932" y1="518.981" x2="-922.243" y2="517.4247" gradientTransform="matrix(26.2474 0 0 -27.7339 24216.9414 14378.0078)">
								<stop offset="0" style="stop-color:#E5EDFF"/>
								<stop offset="1" style="stop-color:#6B9AD9"/>
							</linearGradient>
							<path id="path-66" class="np65" d="M1.1,0.2l20.5,6.6c0.6,0.2,1.1,0.7,1.2,1.3l3.7,19.8L4.3,19L0.2,1C0.2,0.7,0.4,0.3,0.8,0.2
							C0.9,0.2,1,0.2,1.1,0.2z"/>
						</g>
						<g>
							<linearGradient id="SVGID_30_" gradientUnits="userSpaceOnUse" x1="0.2291" y1="14.0604" x2="26.4765" y2="14.0604">
								<stop offset="0" style="stop-color:#A6B0D9"/>
								<stop offset="1" style="stop-color:#E5EFFD"/>
							</linearGradient>
							<path class="np66" d="M1.1,0.2l20.5,6.6c0.6,0.2,1.1,0.7,1.2,1.3l3.7,19.8L4.3,19L0.2,1C0.2,0.7,0.4,0.3,0.8,0.2
							C0.9,0.2,1,0.2,1.1,0.2z"/>
						</g>
					</g>
					<path class="np22" d="M11.4,14.8c1.1,0.5,2.2,0.5,2.6-0.4c0.5-0.9-0.4-2-1.4-2.5c-1.1-0.5-2.1-0.5-2.5,0.4
					C9.6,13.2,10.4,14.3,11.4,14.8z"/>
				</g>
				<g id="Plant" transform="translate(19.566517, 38.166038)">
					<g id="Pot" transform="translate(4.603886, 20.489308)">

						<linearGradient id="SVGID_31_" gradientUnits="userSpaceOnUse" x1="-841.3113" y1="344.8718" x2="-842.3113" y2="344.8718" gradientTransform="matrix(13.8117 0 0 -2.9761 11633.835 1036.6759)">
							<stop offset="0" style="stop-color:#D9E5F6;stop-opacity:0.7126"/>
							<stop offset="1" style="stop-color:#B2C6EA"/>
						</linearGradient>
						<path class="np67" d="M7,8.8c3.8,0,6.9,0.7,6.9,1.5c0,0.8-3.1,1.5-6.9,1.5s-6.9-0.7-6.9-1.5C0.1,9.5,3.2,8.8,7,8.8z"/>
						<g id="pot" transform="translate(0.345291, 1.259119)">
							<g id="Ellipse-2">

								<linearGradient id="SVGID_32_" gradientUnits="userSpaceOnUse" x1="-853.7043" y1="459.1396" x2="-851.8951" y2="459.1396" gradientTransform="matrix(16.574 0 0 -10.0731 14142.6777 4630.2153)">
									<stop offset="0" style="stop-color:#C5D9FA"/>
									<stop offset="1" style="stop-color:#FFFFFF"/>
								</linearGradient>
								<path class="np68" d="M15.9,0.4c0.5,0.9,0.8,1.9,0.8,3c0,3.8-3.7,6.9-8.3,6.9S0.1,7.2,0.1,3.4c0-1.1,0.3-2.2,0.9-3.1
								C4.7,0.8,12,0.8,15.9,0.4z"/>
							</g>
						</g>
						<g id="inside" transform="translate(1.035874, 0.000000)">
							<g id="Ellipse-1">

								<linearGradient id="SVGID_33_" gradientUnits="userSpaceOnUse" x1="-848.8273" y1="371.3756" x2="-847.8879" y2="371.2891" gradientTransform="matrix(15.0777 0 0 -3.5484 12796.8486 1319.4834)">
									<stop offset="0" style="stop-color:#E5EDFF"/>
									<stop offset="1" style="stop-color:#6B9AD9"/>
								</linearGradient>
								<path class="np69" d="M7.8,0.1c4.2,0,7.5,0.8,7.5,1.8s-3.4,1.8-7.5,1.8S0.2,2.9,0.2,1.9S3.6,0.1,7.8,0.1z"/>
							</g>
						</g>
					</g>
					<g>
						<g>
							<g transform="translate(5.409567, 0.000000)">
								<g id="Shape-2">
									<g>
										<g>

											<linearGradient id="SVGID_34_" gradientUnits="userSpaceOnUse" x1="-806.8847" y1="506.2162" x2="-806.8428" y2="505.3776" gradientTransform="matrix(8.8563 0 0 -20.9472 7150.6118 10610.6367)">
												<stop offset="0" style="stop-color:#84F0A8"/>
												<stop offset="1" style="stop-color:#48B676"/>
											</linearGradient>
											<path class="np70" d="M7.4,21.1C7,18.2,5.8,14.1,2.4,9.7c-2-2.6-2-8.9-2.3-9.6C1.7,0.7,4.5,2,7.4,6
											C10.4,10.1,8.5,18.4,7.4,21.1z"/>
										</g>
										<g>
											<linearGradient id="SVGID_35_" gradientUnits="userSpaceOnUse" x1="0.1151" y1="10.588" x2="8.9715" y2="10.588">
												<stop offset="0" style="stop-color:#84F0A8"/>
												<stop offset="1" style="stop-color:#48B676"/>
											</linearGradient>
											<path class="np71" d="M7.4,21.1C7,18.2,5.8,14.1,2.4,9.7c-2-2.6-2-8.9-2.3-9.6C1.7,0.7,4.5,2,7.4,6
											C10.4,10.1,8.5,18.4,7.4,21.1z"/>
										</g>
									</g>
								</g>
							</g>
							<g transform="translate(0.000000, 10.187421)">
								<g>
									<g>
										<g>

											<linearGradient id="SVGID_36_" gradientUnits="userSpaceOnUse" x1="-831.2067" y1="483.5518" x2="-830.993" y2="482.5586" gradientTransform="matrix(12.6137 0 0 -13.5827 10490.2461 6570.4014)">
												<stop offset="0" style="stop-color:#84F0A8"/>
												<stop offset="1" style="stop-color:#48B676"/>
											</linearGradient>
											<path class="np72" d="M12.8,13.8c-1.3-2-3.5-4.8-7.6-7c-2.4-1.3-4.5-6.1-5-6.6c1.4-0.1,4,0,7.5,2
											C11.3,4.4,12.7,11.4,12.8,13.8z"/>
										</g>
										<g>
											<linearGradient id="SVGID_37_" gradientUnits="userSpaceOnUse" x1="0.1748" y1="6.9912" x2="12.7885" y2="6.9912">
												<stop offset="0" style="stop-color:#84F0A8"/>
												<stop offset="1" style="stop-color:#48B676"/>
											</linearGradient>
											<path class="np73" d="M12.8,13.8c-1.3-2-3.5-4.8-7.6-7c-2.4-1.3-4.5-6.1-5-6.6c1.4-0.1,4,0,7.5,2
											C11.3,4.4,12.7,11.4,12.8,13.8z"/>
										</g>
									</g>
								</g>
							</g>
							<g transform="translate(13.236173, 8.928302)">
								<g>
									<g>
										<g>

											<linearGradient id="SVGID_38_" gradientUnits="userSpaceOnUse" x1="-833.0773" y1="488.4459" x2="-832.9434" y2="487.4526" gradientTransform="matrix(10.853 0 0 -15.1116 9046.7871 7383.9497)">
												<stop offset="0" style="stop-color:#84F0A8"/>
												<stop offset="1" style="stop-color:#48B676"/>
											</linearGradient>
											<path class="np74" d="M0.5,15.3c1-2.2,2.9-5.2,6.7-7.9c2.2-1.6,3.7-6.7,4.1-7.2c-1.4,0.1-4,0.5-7.2,3
											C0.7,5.8,0.2,12.9,0.5,15.3z"/>
										</g>
										<g>
											<linearGradient id="SVGID_39_" gradientUnits="userSpaceOnUse" x1="0.4084" y1="7.7631" x2="11.2614" y2="7.7631">
												<stop offset="0" style="stop-color:#84F0A8"/>
												<stop offset="1" style="stop-color:#48B676"/>
											</linearGradient>
											<path class="np75" d="M0.5,15.3c1-2.2,2.9-5.2,6.7-7.9c2.2-1.6,3.7-6.7,4.1-7.2c-1.4,0.1-4,0.5-7.2,3
											C0.7,5.8,0.2,12.9,0.5,15.3z"/>
										</g>
									</g>
								</g>
							</g>
						</g>
					</g>
				</g>
			</g>
		</g>
	</g>
</svg>
