<svg width="329" height="257" viewBox="0 0 329 257" fill="none" xmlns="http://www.w3.org/2000/svg">
<path d="M128.063 86.1985C128.063 87.3124 127.147 88.2153 126.016 88.2153C124.885 88.2153 123.968 87.3124 123.968 86.1985C123.968 85.0846 124.885 84.1816 126.016 84.1816C126.559 84.1804 127.081 84.3924 127.465 84.771C127.849 85.1495 128.065 85.6632 128.063 86.1985Z" fill="#F2385A"/>
<path d="M136.208 86.1985C136.208 87.0146 135.709 87.7503 134.943 88.0622C134.177 88.3741 133.296 88.2007 132.711 87.6229C132.126 87.0451 131.952 86.1768 132.27 85.4233C132.589 84.6698 133.337 84.1797 134.165 84.1816C134.708 84.1816 135.228 84.3943 135.611 84.7727C135.995 85.151 136.209 85.664 136.208 86.1985Z" fill="#F2BE38"/>
<path d="M144.375 86.1985C144.375 87.0146 143.876 87.7503 143.11 88.0622C142.344 88.3741 141.463 88.2007 140.878 87.6229C140.293 87.0451 140.119 86.1768 140.437 85.4233C140.756 84.6698 141.504 84.1797 142.333 84.1816C142.875 84.1816 143.395 84.3943 143.779 84.7727C144.162 85.151 144.377 85.664 144.375 86.1985Z" fill="#20C9AD"/>
<rect x="27.5" y="0.671875" width="271.322" height="255.542" rx="7.5" fill="#E6F9FF" stroke="#8EDEF4"/>
<path d="M298.597 25.9292H28.7289C28.3256 25.9292 27.9956 25.8187 27.9956 25.6836C27.9956 25.5485 28.3256 25.438 28.7289 25.438H298.597C299 25.438 299.33 25.5485 299.33 25.6836C299.33 25.8187 299 25.9292 298.597 25.9292Z" stroke="#8EDEF4"/>
<line y1="-0.5" x2="227.932" y2="-0.5" transform="matrix(4.62332e-08 1 1 -4.13271e-08 257.558 26.1304)" stroke="#8EDEF4"/>
<line y1="-0.5" x2="230.583" y2="-0.5" transform="matrix(4.62332e-08 1 1 -4.13271e-08 224.98 26.1304)" stroke="#8EDEF4"/>
<line y1="-0.5" x2="230.583" y2="-0.5" transform="matrix(4.62332e-08 1 1 -4.13271e-08 192.406 26.1304)" stroke="#8EDEF4"/>
<line y1="-0.5" x2="227.932" y2="-0.5" transform="matrix(4.62332e-08 1 1 -4.13271e-08 159.828 26.1304)" stroke="#8EDEF4"/>
<line y1="-0.5" x2="227.932" y2="-0.5" transform="matrix(4.62332e-08 1 1 -4.13271e-08 127.25 26.1304)" stroke="#8EDEF4"/>
<line y1="-0.5" x2="227.932" y2="-0.5" transform="matrix(4.62332e-08 1 1 -4.13271e-08 94.6753 26.1304)" stroke="#8EDEF4"/>
<line y1="-0.5" x2="227.932" y2="-0.5" transform="matrix(4.62332e-08 1 1 -4.13271e-08 62.0972 26.1304)" stroke="#8EDEF4"/>
<line y1="-0.5" x2="270.795" y2="-0.5" transform="matrix(1 -7.55319e-08 -1.04031e-07 -1 27.9956 57.936)" stroke="#8EDEF4"/>
<line y1="-0.5" x2="270.795" y2="-0.5" transform="matrix(1 -7.67738e-08 -1.01565e-07 -1 27.9956 91.8618)" stroke="#8EDEF4"/>
<line y1="-0.5" x2="270.795" y2="-0.5" transform="matrix(1 -7.67738e-08 -1.01565e-07 -1 27.9956 125.787)" stroke="#8EDEF4"/>
<line y1="-0.5" x2="270.795" y2="-0.5" transform="matrix(1 -7.67738e-08 -1.01565e-07 -1 27.9956 159.711)" stroke="#8EDEF4"/>
<line y1="-0.5" x2="270.795" y2="-0.5" transform="matrix(1 -7.67738e-08 -1.01565e-07 -1 27.9956 193.636)" stroke="#8EDEF4"/>
<line y1="-0.5" x2="270.795" y2="-0.5" transform="matrix(1 -7.67738e-08 -1.01565e-07 -1 27.9956 227.561)" stroke="#8EDEF4"/>
<path d="M312.219 23.8179H233.332C228.721 23.8179 224.984 27.4996 224.984 32.0412V78.0947C224.984 82.6364 228.721 86.3181 233.332 86.3181H312.219C316.829 86.3181 320.567 82.6364 320.567 78.0947V32.0412C320.567 27.4996 316.829 23.8179 312.219 23.8179Z" fill="#F1F5F8"/>
<path d="M319.645 17.4785H240.757C236.147 17.4785 232.41 21.1602 232.41 25.7019V71.7553C232.41 76.2969 236.147 79.9786 240.757 79.9786H319.645C324.255 79.9786 327.993 76.2969 327.993 71.7553V25.7019C327.993 21.1602 324.255 17.4785 319.645 17.4785Z" fill="white" stroke="#BCCFDC" stroke-width="1.18667"/>
<g style="mix-blend-mode:multiply">
<path d="M240.762 20.9492H319.647C324.25 20.9492 327.985 24.618 327.999 29.1523V35.5636H232.41V29.1523C232.423 24.618 236.158 20.9492 240.762 20.9492Z" fill="#F2F5F4"/>
</g>
<path d="M240.762 17.4785H319.647C324.259 17.4785 327.999 21.1618 327.999 25.7053V32.0928H232.41V25.7053C232.41 21.1618 236.149 17.4785 240.762 17.4785Z" fill="white" stroke="#BCCFDC" stroke-width="1.18667"/>
<path d="M274.038 24.7822H286.862" stroke="#E3E9E7" stroke-width="5" stroke-linecap="round" stroke-linejoin="round"/>
<path d="M292.882 24.7822H318.929" stroke="#E3E9E7" stroke-width="5" stroke-linecap="round" stroke-linejoin="round"/>
<path fill-rule="evenodd" clip-rule="evenodd" d="M245.2 24.7821C245.203 25.789 244.589 26.6982 243.645 27.0852C242.701 27.4722 241.614 27.2608 240.89 26.5496C240.166 25.8384 239.949 24.7677 240.34 23.8372C240.73 22.9067 241.652 22.2998 242.674 22.2998C244.067 22.2998 245.197 23.4102 245.2 24.7821Z" fill="#ED3D48"/>
<path d="M255.255 24.7821C255.258 25.789 254.644 26.6982 253.7 27.0852C252.756 27.4722 251.669 27.2608 250.945 26.5496C250.222 25.8384 250.004 24.7677 250.395 23.8372C250.786 22.9067 251.707 22.2998 252.729 22.2998C254.122 22.2998 255.252 23.4102 255.255 24.7821Z" fill="#FEC762"/>
<path d="M265.314 24.7821C265.316 25.789 264.702 26.6982 263.758 27.0852C262.815 27.4722 261.727 27.2608 261.003 26.5496C260.28 25.8384 260.062 24.7677 260.453 23.8372C260.844 22.9067 261.765 22.2998 262.787 22.2998C264.18 22.2998 265.31 23.4102 265.314 24.7821Z" fill="#20C9AD"/>
<path d="M246.207 64.7444C264.518 45.0049 282.564 64.7444 282.564 64.7444C301.492 44.2608 318.927 64.7444 318.927 64.7444" stroke="#F2BE38" stroke-width="1.18667"/>
<path d="M246.207 64.7441H318.927" stroke="#680416" stroke-width="1.18667"/>
<path d="M318.929 60.9404V66.9351" stroke="#680416" stroke-width="1.18667"/>
<path d="M319.715 55.0181H318.143C317.596 55.0181 317.152 55.455 317.152 55.9939V57.5425C317.152 58.0814 317.596 58.5183 318.143 58.5183H319.715C320.262 58.5183 320.706 58.0814 320.706 57.5425V55.9939C320.706 55.455 320.262 55.0181 319.715 55.0181Z" stroke="#450000" stroke-width="1.18667"/>
<path d="M283.359 67.3105H281.787C281.24 67.3105 280.796 67.7475 280.796 68.2864V69.8351C280.796 70.3741 281.24 70.811 281.787 70.811H283.359C283.906 70.811 284.35 70.3741 284.35 69.8351V68.2864C284.35 67.7475 283.906 67.3105 283.359 67.3105Z" stroke="#450000" stroke-width="1.18667"/>
<path d="M282.564 74.2997C285.501 74.2997 287.882 71.9542 287.882 69.061C287.882 66.1677 285.501 63.8223 282.564 63.8223C279.627 63.8223 277.246 66.1677 277.246 69.061C277.246 71.9542 279.627 74.2997 282.564 74.2997Z" stroke="#F2385A" stroke-width="1.18667"/>
<path d="M247.573 49.4932L246.859 48.3681L246.14 49.4873C246.01 49.6923 245.781 49.8163 245.536 49.8147H245.222C244.949 49.8216 244.696 49.6762 244.568 49.4392C244.44 49.2021 244.459 48.9142 244.617 48.6955L245.79 47.0882L244.672 45.5226C244.517 45.304 244.5 45.0185 244.628 44.7836C244.755 44.5487 245.006 44.4041 245.276 44.4094H245.59C245.833 44.4052 246.062 44.5244 246.195 44.7249L246.914 45.7726L247.615 44.7309C247.747 44.5289 247.975 44.4077 248.219 44.4094H248.425C248.697 44.4025 248.95 44.5479 249.078 44.7849C249.206 45.0219 249.187 45.3099 249.029 45.5286L247.941 47.0228L249.15 48.6955C249.308 48.9142 249.327 49.2021 249.199 49.4392C249.071 49.6762 248.818 49.8216 248.546 49.8147H248.213C247.957 49.8243 247.715 49.7026 247.573 49.4932Z" fill="#20C9AD"/>
<path d="M260.852 47.856V49.1062C260.852 49.4974 260.53 49.8146 260.133 49.8146H259.722C259.324 49.8146 259.002 49.4974 259.002 49.1062V47.8322L257.582 45.4807C257.451 45.2638 257.446 44.9943 257.571 44.7734C257.696 44.5526 257.93 44.4138 258.187 44.4092H258.465C258.714 44.4149 258.943 44.5479 259.069 44.7604L259.981 46.2784L260.9 44.7545C261.027 44.5442 261.256 44.4137 261.504 44.4092H261.625C261.881 44.4113 262.117 44.5487 262.242 44.769C262.367 44.9893 262.362 45.2588 262.23 45.4748L260.852 47.856Z" fill="#20C9AD"/>
<path d="M273.608 49.1062C273.61 49.2935 273.535 49.4737 273.401 49.6067C273.267 49.7398 273.085 49.8146 272.895 49.8146H269.444C268.963 49.8146 268.574 49.4308 268.574 48.9573C268.573 48.7885 268.635 48.6252 268.749 48.499L271.082 45.826H269.371C268.974 45.826 268.652 45.5088 268.652 45.1176C268.652 44.7263 268.974 44.4092 269.371 44.4092H272.617C273.096 44.4124 273.484 44.7943 273.487 45.2664C273.488 45.437 273.426 45.6021 273.312 45.7308L270.979 48.4037H272.895C273.289 48.4037 273.608 48.7182 273.608 49.1062Z" fill="#20C9AD"/>
<path d="M255.558 45.2188H252.457C252.15 45.2188 251.901 45.4638 251.901 45.7662V46.1953C251.901 46.4976 252.15 46.7427 252.457 46.7427H255.558C255.865 46.7427 256.114 46.4976 256.114 46.1953V45.7662C256.114 45.4638 255.865 45.2188 255.558 45.2188Z" fill="#20C9AD"/>
<path d="M255.558 47.6782H252.457C252.15 47.6782 251.901 47.9233 251.901 48.2256V48.6547C251.901 48.9571 252.15 49.2022 252.457 49.2022H255.558C255.865 49.2022 256.114 48.9571 256.114 48.6547V48.2256C256.114 47.9233 255.865 47.6782 255.558 47.6782Z" fill="#20C9AD"/>
<path d="M265.099 45.6041L267.292 47.7642C267.509 47.978 267.509 48.3246 267.292 48.5385C267.292 48.5385 267.292 48.5385 267.292 48.5385L266.984 48.8419C266.767 49.0557 266.415 49.0557 266.198 48.8419L264.005 46.6818C263.788 46.4681 263.788 46.1214 264.005 45.9076C264.005 45.9076 264.005 45.9076 264.005 45.9076L264.314 45.6041C264.531 45.3903 264.882 45.3903 265.099 45.6041Z" fill="#20C9AD"/>
<path d="M267.302 46.6781L265.109 48.8381C264.892 49.0518 264.54 49.0518 264.323 48.8381L264.015 48.5346C263.798 48.3208 263.798 47.9742 264.015 47.7604C264.015 47.7604 264.015 47.7604 264.015 47.7604L266.208 45.6004C266.425 45.3866 266.777 45.3866 266.994 45.6004L267.302 45.9039C267.519 46.1176 267.519 46.4643 267.302 46.6781C267.302 46.6781 267.302 46.6781 267.302 46.6781Z" fill="#20C9AD"/>
<path d="M280.203 43.5879H318.929" stroke="#E3E9E7" stroke-width="5" stroke-linecap="round" stroke-linejoin="round"/>
<path d="M280.203 50.4399H299.566" stroke="#E3E9E7" stroke-width="5" stroke-linecap="round" stroke-linejoin="round"/>
<path d="M67.2321 69.0669H7.55605C3.38296 69.0669 0 72.3995 0 76.5104V119.981C0 124.092 3.38296 127.424 7.55605 127.424H67.2321C71.4052 127.424 74.7881 124.092 74.7881 119.981V76.5104C74.7881 72.3995 71.4052 69.0669 67.2321 69.0669Z" fill="#F1F5F8"/>
<path d="M74.3766 58.1147H14.7006C10.5275 58.1147 7.14453 61.4473 7.14453 65.5583V109.029C7.14453 113.14 10.5275 116.473 14.7006 116.473H74.3766C78.5497 116.473 81.9327 113.14 81.9327 109.029V65.5583C81.9327 61.4473 78.5497 58.1147 74.3766 58.1147Z" fill="white" stroke="#BCCFDC" stroke-width="1.18667"/>
<path d="M16.1396 69.8906H71.9182" stroke="#E3E9E7" stroke-width="5.93334" stroke-linecap="round" stroke-linejoin="round"/>
<path d="M16.1396 76.5518H47.4251" stroke="#E3E9E7" stroke-width="5.93334" stroke-linecap="round" stroke-linejoin="round"/>
<path d="M26.6179 100.073H17.8516V108.708H26.6179V100.073Z" stroke="#FEC762" stroke-width="3.56001"/>
<path fill-rule="evenodd" clip-rule="evenodd" d="M17.8516 108.709V83.3804L70.8079 108.709H17.8516Z" stroke="#20C9AD" stroke-width="3.56001" stroke-linejoin="round"/>
<path d="M44.5243 13.7337C44.5243 16.7067 42.0776 19.1168 39.0595 19.1168C36.0414 19.1168 33.5947 16.7067 33.5947 13.7337C33.5947 10.7607 36.0414 8.3506 39.0595 8.3506C40.5099 8.34719 41.9019 8.91323 42.9275 9.9235C43.9531 10.9338 44.5277 12.305 44.5243 13.7337Z" fill="#F2385A"/>
<path d="M61.5625 13.7336C61.5625 15.912 60.2296 17.8757 58.186 18.7081C56.1423 19.5405 53.7908 19.0776 52.2289 17.5354C50.6671 15.9932 50.2028 13.6758 51.0527 11.6647C51.9027 9.65362 53.8993 8.34541 56.1108 8.3506C57.5589 8.3506 58.9476 8.91816 59.9703 9.92804C60.9931 10.9379 61.5659 12.3071 61.5625 13.7336Z" fill="#F2BE38"/>
<path d="M78.6015 13.7336C78.6015 15.912 77.2687 17.8757 75.225 18.7081C73.1814 19.5405 70.8299 19.0776 69.268 17.5354C67.7061 15.9932 67.2418 13.6758 68.0918 11.6647C68.9417 9.65362 70.9384 8.34541 73.1499 8.3506C74.598 8.3506 75.9866 8.91816 77.0094 9.92804C78.0322 10.9379 78.605 12.3071 78.6015 13.7336Z" fill="#20C9AD"/>
<path d="M159.574 142.187C160.168 143.544 162.272 146.055 165.937 145.241" stroke="#102D42" stroke-width="1.6"/>
<mask id="mask0_58_8681" style="mask-type:alpha" maskUnits="userSpaceOnUse" x="28" y="4" width="294" height="253">
<rect x="28" y="4.17188" width="293.7" height="252.47" fill="#C4C4C4"/>
</mask>
<g mask="url(#mask0_58_8681)">
<path d="M63.2595 245.289C61.0959 248.446 52.6171 320.136 51.2722 346.625C51.1552 348.438 52.6171 349.9 54.4298 349.9C55.9502 349.9 57.2951 348.789 57.529 347.268L73.0832 247.569L63.2595 245.289Z" fill="#67A4BA"/>
<path d="M131.675 245.289C133.838 248.446 142.317 320.136 143.662 346.625C143.779 348.438 142.317 349.9 140.504 349.9C138.984 349.9 137.639 348.789 137.405 347.268L121.851 247.569L131.675 245.289Z" fill="#67A4BA"/>
<path d="M50.3951 239.733V240.494C50.3366 246.107 55.19 250.727 61.2713 250.844L133.195 252.072C139.159 252.188 144.188 247.861 144.422 242.306L144.481 241.605C144.773 235.816 139.861 230.962 133.663 230.845L61.7391 229.559C55.5408 229.442 50.4535 234.003 50.3951 239.733Z" fill="#67A4BA"/>
<path d="M108.634 201.783C108.634 201.783 185.177 208.04 200.849 215.408C216.578 222.776 188.043 326.392 188.043 326.392C188.043 326.392 183.774 328.439 174.243 325.515C174.243 325.515 184.008 249.089 176.757 232.482L93.8987 218.916L108.634 201.783Z" fill="#035970"/>
<path d="M62.5579 201.14C62.5579 201.14 60.0435 207.163 60.1605 215.115C60.3359 226.167 69.1655 235.113 80.2172 235.64L170.677 239.791C172.607 239.85 174.186 241.195 174.712 243.066C176.817 251.311 187.226 276.572 238.04 326.918C239.385 328.263 241.49 328.497 243.127 327.445L250.378 322.884C251.138 322.416 251.372 321.422 250.904 320.662L198.219 230.728C195.471 226.167 191.027 222.834 185.822 221.547L108.636 201.783L62.5579 201.14Z" fill="#035970"/>
<path d="M151.73 60.626C151.73 60.626 142.023 77.759 132.141 86.0624L152.548 97.465C152.548 97.465 157.168 79.3378 167.693 74.0167L151.73 60.626Z" fill="url(#paint0_linear_58_8681)"/>
<path d="M60.9221 201.784C60.9221 201.784 85.3645 207.749 108.637 201.784C108.637 201.784 141.266 157.929 153.897 146C153.897 146 174.012 177.751 218.862 182.254L221.376 176.64C221.376 176.64 185.707 160.209 174.714 134.948C163.72 109.687 159.335 98.9277 149.336 92.3201C143.137 88.2268 139.395 85.4201 137.465 83.8997C136.413 83.0811 134.951 82.9641 133.781 83.6658C123.139 90.1565 73.2603 124.306 60.9221 201.784Z" fill="#FAB1A5"/>
<path d="M216.172 173.774L221.201 172.429L236.521 168.862C238.392 168.453 240.322 168.745 241.901 169.798L255.058 178.101L218.687 178.043L216.172 173.774Z" fill="url(#paint1_linear_58_8681)"/>
<path d="M167.11 34.9551C167.11 34.9551 176.525 50.6263 178.162 59.2805C179.799 67.9347 182.431 73.3729 172.549 76.4135C162.725 79.5127 153.544 75.5949 147.814 67.5254C147.814 67.5254 138.867 55.0703 139.744 49.3983C140.621 43.7263 167.11 34.9551 167.11 34.9551Z" fill="url(#paint2_linear_58_8681)"/>
<path d="M150.445 60.8016L151.732 60.6262C151.732 60.6262 145.066 50.5686 149.451 48.0542C153.837 45.5398 171.613 39.3999 174.712 32.4415C177.636 25.6584 173.192 18.0567 167.812 16.4194C167.461 16.3025 167.111 16.5364 166.994 16.8287L166.701 17.7059C166.467 18.2906 165.649 18.2906 165.415 17.7643C165.181 17.2381 164.421 17.1796 164.187 17.7643C163.251 19.8694 160.386 23.4364 151.849 26.2432C139.686 30.1609 132.143 36.3008 133.078 44.8965C133.137 45.4228 132.611 45.8321 132.084 45.5982C131.09 45.1304 129.57 45.072 127.816 47.0016C124.775 50.3347 127.172 57.5855 135.476 62.7313C135.885 62.9652 135.944 63.5499 135.593 63.8423C134.365 64.8948 132.611 67.2923 138.224 69.3974C143.955 71.5609 147.112 70.8008 148.282 70.3914C148.574 70.2745 148.75 69.9236 148.691 69.6313L147.229 62.0881C147.171 61.6787 147.405 61.3279 147.814 61.2694L150.445 60.8016Z" fill="#DA6668"/>
<path d="M150.972 62.3804C150.972 62.3804 146.82 52.1473 142.434 55.7143C138.107 59.3397 146.469 67.2923 150.387 67.1753L150.972 62.3804Z" fill="url(#paint3_linear_58_8681)"/>
<path d="M202.079 185.235C202.138 185.235 202.196 185.235 202.255 185.235L279.909 185.176C281.838 185.176 283.359 183.598 283.359 181.726C283.359 179.797 281.78 178.218 279.85 178.276L202.196 178.335C200.266 178.335 198.746 179.914 198.746 181.785C198.805 183.598 200.266 185.118 202.079 185.235Z" fill="#035970"/>
<path d="M310.024 109.16C310.024 109.218 309.966 109.277 309.966 109.335L277.279 179.738C276.46 181.493 277.22 183.539 278.974 184.358C280.729 185.177 282.834 184.416 283.594 182.662L316.281 112.2C317.1 110.446 316.34 108.399 314.585 107.581C312.89 106.821 310.901 107.522 310.024 109.16Z" fill="#035970"/>
<path d="M185.941 181.259H298.68C300.259 181.259 301.604 182.311 302.013 183.89L303.592 190.088C304.177 192.31 302.481 194.474 300.2 194.474L184.538 193.772C182.316 193.772 180.678 191.609 181.205 189.445L182.549 183.949C183.017 182.311 184.362 181.259 185.941 181.259Z" fill="#BCCFDC"/>
</g>
<defs>
<linearGradient id="paint0_linear_58_8681" x1="139.436" y1="112.732" x2="151.993" y2="73.5851" gradientUnits="userSpaceOnUse">
<stop stop-color="#F9B776"/>
<stop offset="1" stop-color="#F47960"/>
</linearGradient>
<linearGradient id="paint1_linear_58_8681" x1="266.781" y1="172.311" x2="162.635" y2="177.851" gradientUnits="userSpaceOnUse">
<stop stop-color="#F9B776"/>
<stop offset="1" stop-color="#F47960"/>
</linearGradient>
<linearGradient id="paint2_linear_58_8681" x1="201.415" y1="58.0081" x2="58.1218" y2="50.6219" gradientUnits="userSpaceOnUse">
<stop stop-color="#F9B776"/>
<stop offset="1" stop-color="#F47960"/>
</linearGradient>
<linearGradient id="paint3_linear_58_8681" x1="152.98" y1="65.3154" x2="130.452" y2="49.3427" gradientUnits="userSpaceOnUse">
<stop stop-color="#F9B776"/>
<stop offset="1" stop-color="#F47960"/>
</linearGradient>
</defs>
</svg>
