<svg width="136" height="144" viewBox="0 0 136 144" fill="none" xmlns="http://www.w3.org/2000/svg">
<path d="M128.509 79.6017C128.526 96.6487 121.762 113.004 109.708 125.058C97.653 137.112 81.299 143.877 64.252 143.859C40.217 143.859 19.265 130.663 8.246 111.12C3.909 103.434 1.213 94.9307 0.328 86.1497C0.109 83.9737 0 81.7887 0 79.6017C0 44.1137 28.768 15.3447 64.257 15.3447C82.4 15.3447 98.787 22.8637 110.47 34.9567C111.875 36.4067 113.21 37.9267 114.475 39.5167C123.58 50.8907 128.531 65.0317 128.509 79.6017Z" fill="white"/>
<path d="M115.3 118.638C103.157 134.553 84.2771 143.883 64.2571 143.859C40.2221 143.859 19.2701 130.663 8.25113 111.12C3.91213 103.434 1.21513 94.931 0.328125 86.15C5.91313 87.058 11.2561 87.364 16.2751 86.117C56.7591 76.089 92.3671 50.053 110.47 34.957C118.121 28.574 122.647 24.145 123.085 23.707C120.639 29.369 117.662 34.62 114.475 39.512C96.5901 66.929 72.0961 82.697 97.8011 93.112C111.185 98.537 115.153 108.726 115.301 118.638H115.3Z" fill="url(#paint0_linear_300_19252)"/>
<path d="M78.852 142.193C74.067 143.303 69.169 143.863 64.257 143.859C40.222 143.859 19.27 130.663 8.25098 111.12C11.638 111.037 15.038 110.828 18.362 110.294C36.895 107.318 74.278 69.5867 75.561 73.9337C76.246 76.2617 67.891 106.924 80.163 110.386C91.413 113.55 96.211 130.286 78.853 142.193H78.852Z" fill="url(#paint1_linear_300_19252)"/>
<path d="M135.612 24.9508C135.014 38.7668 131.8 55.6828 121.582 69.2818C121.206 69.7838 120.83 70.2788 120.453 70.7678C119.306 72.2478 118.141 73.6868 116.956 75.0838C115.632 76.6388 113.326 76.8938 111.695 75.6638L66.339 41.6038C64.843 40.4858 64.479 38.3958 65.507 36.8368C66.571 35.2218 67.685 33.6138 68.85 32.0138C69.215 31.5128 69.585 31.0108 69.961 30.5088C80.178 16.9108 95.519 9.10883 108.624 4.68283C114.434 2.72783 120.38 1.20583 126.414 0.12983C127.143 -0.00216994 127.886 -0.0341699 128.623 0.0368301C129.66 0.13383 130.663 0.45683 131.56 0.98483C133.442 2.09783 134.751 4.08383 135.021 6.59183C135.671 12.6888 135.869 18.8248 135.611 24.9518L135.612 24.9508Z" fill="url(#paint2_linear_300_19252)"/>
<path d="M68.8195 32.0586C67.4945 33.8756 66.2365 35.7026 65.0435 37.5406C64.2695 38.7376 64.5535 40.3306 65.6935 41.1856L112.202 76.1086C113.531 77.1036 115.404 76.8996 116.488 75.6416C117.82 74.0846 119.13 72.4756 120.418 70.8146L68.8195 32.0586Z" fill="#035970"/>
<path d="M109.125 45.837C103.918 45.826 99.1641 42.876 96.8421 38.216C94.5191 33.556 95.0271 27.984 98.1531 23.82C101.892 18.842 108.507 16.995 114.283 19.318C120.059 21.64 123.555 27.553 122.807 33.733C122.059 39.913 117.254 44.821 111.09 45.698C110.44 45.79 109.783 45.837 109.125 45.838V45.837ZM109.176 21.519C108.673 21.519 108.17 21.555 107.671 21.626C104.896 22.013 102.391 23.494 100.714 25.739C97.7771 29.653 97.9151 35.072 101.048 38.832C104.18 42.591 109.486 43.704 113.866 41.522C118.246 39.338 120.55 34.432 119.434 29.667C118.318 24.903 114.074 21.53 109.18 21.519H109.176Z" fill="#4690A4"/>
<path d="M132.599 4.17599C132.488 3.05199 132.134 1.96399 131.56 0.989992C130.662 0.462992 129.66 0.138992 128.623 0.0419922L128.645 0.221992C129.296 6.31699 129.494 12.452 129.236 18.575C128.634 32.391 125.424 49.301 115.212 62.907C114.837 63.408 114.46 63.903 114.083 64.392C113.833 64.718 113.579 65.042 113.322 65.364L117.76 68.703L118.038 68.347C118.418 67.856 118.794 67.361 119.168 66.862C129.385 53.257 132.598 36.344 133.198 22.53C133.452 16.406 133.252 10.271 132.598 4.17599H132.599Z" fill="url(#paint3_linear_300_19252)" fill-opacity="0.6"/>
<path d="M135.021 6.59687C134.546 2.15887 130.809 -0.647127 126.415 0.134873C120.38 1.20787 114.434 2.72887 108.625 4.68287L135.612 24.9509C135.869 18.8269 135.672 12.6919 135.021 6.59687Z" fill="url(#paint4_linear_300_19252)"/>
<path d="M72.5936 50.6869C68.1726 47.7489 61.2116 50.4509 57.0476 56.7199C52.8826 62.9899 57.5116 73.3899 57.5116 73.3899C57.5116 73.3899 68.8946 73.6259 73.0656 67.3569C77.2356 61.0869 77.0166 53.6229 72.5936 50.6869Z" fill="#4690A4"/>
<path d="M97.4535 68.9457C93.0305 66.0087 86.0705 68.7097 81.9065 74.9797C77.7415 81.2487 82.3725 91.6507 82.3725 91.6507C82.3725 91.6507 93.7625 91.8857 97.9205 85.6167C102.079 79.3467 101.876 71.8787 97.4535 68.9467V68.9457Z" fill="#4690A4"/>
<path d="M67.8936 57.7157C64.8416 55.6887 60.0376 57.5527 57.1636 61.8807C54.2876 66.2077 57.4856 73.3837 57.4856 73.3837C57.4856 73.3837 65.3426 73.5467 68.2156 69.2197C71.0896 64.8917 70.9456 59.7427 67.8936 57.7157Z" fill="url(#paint5_linear_300_19252)"/>
<path d="M92.8063 75.9559C89.7543 73.9289 84.9503 75.7929 82.0753 80.1199C79.2003 84.4479 82.3973 91.6259 82.3973 91.6259C82.3973 91.6259 90.2543 91.7889 93.1283 87.4619C96.0023 83.1339 95.8583 77.9819 92.8063 75.9559Z" fill="url(#paint6_linear_300_19252)"/>
<path d="M102.985 38.9228L117.245 36.4028C115.888 38.8668 113.488 40.5828 110.718 41.0728C107.948 41.5628 105.105 40.7728 102.985 38.9228Z" fill="url(#paint7_linear_300_19252)" fill-opacity="0.6"/>
<path d="M118.393 31.604L100.331 35.026C99.1074 31.572 100.025 27.72 102.677 25.19C105.329 22.66 109.219 21.923 112.612 23.308C116.005 24.693 118.269 27.941 118.393 31.604Z" fill="url(#paint8_linear_300_19252)" fill-opacity="0.6"/>
<defs>
<linearGradient id="paint0_linear_300_19252" x1="128.937" y1="-4.12094" x2="39.437" y2="137.379" gradientUnits="userSpaceOnUse">
<stop stop-color="white"/>
<stop offset="1" stop-color="#8EBCC8" stop-opacity="0.1"/>
</linearGradient>
<linearGradient id="paint1_linear_300_19252" x1="159.437" y1="-48.1213" x2="36.937" y2="138.379" gradientUnits="userSpaceOnUse">
<stop stop-color="white"/>
<stop offset="1" stop-color="#8EBCC8" stop-opacity="0"/>
</linearGradient>
<linearGradient id="paint2_linear_300_19252" x1="165.556" y1="-30.3412" x2="138.434" y2="87.7774" gradientUnits="userSpaceOnUse">
<stop stop-color="#E5EDFF"/>
<stop offset="1" stop-color="#4CA2BA"/>
</linearGradient>
<linearGradient id="paint3_linear_300_19252" x1="123.314" y1="-71.5646" x2="123.314" y2="68.703" gradientUnits="userSpaceOnUse">
<stop stop-color="white"/>
<stop offset="1" stop-color="#FEFEFF"/>
</linearGradient>
<linearGradient id="paint4_linear_300_19252" x1="125.324" y1="5.54601" x2="125.324" y2="36.4939" gradientUnits="userSpaceOnUse">
<stop stop-color="#007495" stop-opacity="0.12"/>
<stop offset="1" stop-color="#0C5A70" stop-opacity="0.08"/>
</linearGradient>
<linearGradient id="paint5_linear_300_19252" x1="67.3147" y1="58.4892" x2="57.6583" y2="72.1651" gradientUnits="userSpaceOnUse">
<stop stop-color="#63C3DD"/>
<stop offset="1" stop-color="#E5EDFF"/>
</linearGradient>
<linearGradient id="paint6_linear_300_19252" x1="92.2272" y1="76.7297" x2="82.5694" y2="90.4064" gradientUnits="userSpaceOnUse">
<stop stop-color="#63C3DD"/>
<stop offset="1" stop-color="#E5EDFF"/>
</linearGradient>
<linearGradient id="paint7_linear_300_19252" x1="110.115" y1="31.3841" x2="110.115" y2="41.2151" gradientUnits="userSpaceOnUse">
<stop stop-color="white"/>
<stop offset="1" stop-color="#FEFEFF"/>
</linearGradient>
<linearGradient id="paint8_linear_300_19252" x1="109.095" y1="9.678" x2="109.095" y2="35.026" gradientUnits="userSpaceOnUse">
<stop stop-color="white"/>
<stop offset="1" stop-color="#FEFEFF"/>
</linearGradient>
</defs>
</svg>
