<svg width="32" height="32" viewBox="0 0 32 32" fill="none" xmlns="http://www.w3.org/2000/svg">
<path d="M18.7372 15.5058L25.3166 13.4678C24.0303 8.50975 18.9217 5.52122 13.9061 6.79276C11.6475 7.36536 9.68575 8.74947 8.40381 10.6749C8.49966 10.6725 18.7372 15.5058 18.7372 15.5058Z" fill="#0364B8"/>
<path d="M12.4396 11.7769L12.4393 11.7779C11.2561 11.0535 9.89151 10.6706 8.49968 10.6724C8.46753 10.6724 8.4359 10.6745 8.40381 10.6749C4.26385 10.7256 0.949327 14.0843 1.00059 18.1768C1.01917 19.6613 1.4884 21.1061 2.34745 22.3239L18.7372 15.5058L12.4396 11.7769Z" fill="#0078D4"/>
<path d="M25.3166 13.4678C25.1805 13.4588 25.0438 13.4526 24.9054 13.4526C24.0747 13.4518 23.2526 13.6196 22.4901 13.9455L18.7372 15.5058L30.2701 22.3347C31.8661 19.4057 30.758 15.7523 27.7951 14.1746C27.0294 13.7669 26.1843 13.5259 25.3166 13.4678Z" fill="#1490DF"/>
<path d="M2.34745 22.3239C3.74822 24.3147 6.04647 25.5013 8.49968 25.5H24.9053C27.1464 25.5006 29.2069 24.2849 30.2701 22.3347L18.7372 15.5058L2.34745 22.3239Z" fill="#28A8EA"/>
</svg>
