<svg xmlns="http://www.w3.org/2000/svg" xmlns:xlink="http://www.w3.org/1999/xlink" width="523" height="120" viewBox="0 0 523 120">
    <defs>
        <linearGradient id="b" x1="22.571%" x2="91.212%" y1="18.017%" y2="91.909%">
            <stop offset="0%" stop-color="#EF1A1B"/>
            <stop offset="42.132%" stop-color="#D13043"/>
            <stop offset="100%" stop-color="#9F041B"/>
        </linearGradient>
        <rect id="a" width="111.228" height="111.228" rx="16.074"/>
        <linearGradient id="c" x1="38.248%" x2="79.987%" y1="32.129%" y2="79.486%">
            <stop offset="0%" stop-color="#FD8378"/>
            <stop offset="100%" stop-color="#DB324B"/>
        </linearGradient>
        <linearGradient id="e" x1="12.246%" x2="30.832%" y1="18.691%" y2="50%">
            <stop offset="0%" stop-color="#F7B8C4"/>
            <stop offset="100%" stop-color="#F0022D"/>
        </linearGradient>
        <filter id="f" width="138.8%" height="142.9%" x="-19.4%" y="-21.4%" filterUnits="objectBoundingBox">
            <feOffset dx="2" dy="4" in="SourceAlpha" result="shadowOffsetOuter1"/>
            <feGaussianBlur in="shadowOffsetOuter1" result="shadowBlurOuter1" stdDeviation="1"/>
            <feColorMatrix in="shadowBlurOuter1" result="shadowMatrixOuter1" values="0 0 0 0 0.676046981 0 0 0 0 0.0115368655 0 0 0 0 0.0993023525 0 0 0 0.566009964 0"/>
            <feMerge>
                <feMergeNode in="shadowMatrixOuter1"/>
                <feMergeNode in="SourceGraphic"/>
            </feMerge>
        </filter>
        <linearGradient id="g" x1="50%" x2="-28.118%" y1="19.686%" y2="202.699%">
            <stop offset="0%" stop-color="#EEF3FF"/>
            <stop offset="100%" stop-color="#6B9AD9"/>
        </linearGradient>
        <linearGradient id="h" x1="84.355%" x2="25.163%" y1="31.63%" y2="98.6%">
            <stop offset="0%" stop-color="#E5EDFF"/>
            <stop offset="100%" stop-color="#6B9AD9"/>
        </linearGradient>
        <linearGradient id="i" x1="50%" x2="-33.859%" y1="22.326%" y2="189.4%">
            <stop offset="0%" stop-color="#EEF3FF"/>
            <stop offset="100%" stop-color="#6B9AD9"/>
        </linearGradient>
    </defs>
    <g fill="none" fill-rule="evenodd">
        <g transform="translate(411.463 2)">
            <mask id="d" fill="#fff">
                <use xlink:href="#a"/>
            </mask>
            <use fill="url(#b)" xlink:href="#a"/>
            <circle cx="26.313" cy="29.761" r="36.659" fill="url(#c)" mask="url(#d)" opacity=".563"/>
            <path fill="url(#e)" d="M82.024 125.862c48.123-5.556 45.146-17.698 50.127-50.127 4.981-32.43-43.42-55.82-66.915-45.8-23.495 10.021-12.432 27.999-33.338 45.8-20.907 17.8 2.004 55.683 50.126 50.127z" mask="url(#d)" opacity=".551"/>
        </g>
        <g fill="#FFF" filter="url(#f)" transform="translate(437.33 30.454)">
            <path d="M30.965 0L15.52 26.677 23.3 40.525 46.56 0zM23.28 40.525l8.158 13.795h28.918l-7.809-13.795zM9.281 38.8L0 54.32h18.969L9.427 38.8z"/>
        </g>
        <g transform="translate(144.315 15.548)">
            <path fill="#B1CDF9" fill-rule="nonzero" d="M171.254 60.403l.065 1.799c-1.315.047-2.648.082-4.004.103-.48.007-.957.012-1.433.014l-.007-1.8c.469-.002.94-.007 1.412-.014 1.344-.02 2.664-.055 3.967-.102zm-16.085-.36c1.754.166 3.533.29 5.341.369l-.079 1.798a107.23 107.23 0 0 1-5.432-.376zm26.796-.367l.183 1.79c-1.767.18-3.571.333-5.413.457l-.12-1.796a155.21 155.21 0 0 0 5.35-.451zm-37.388-1.221c1.732.358 3.487.671 5.268.938l-.267 1.78a97.808 97.808 0 0 1-5.366-.956zm48.016-.295l.332 1.77c-1.746.326-3.536.62-5.37.88l-.253-1.782c1.808-.257 3.572-.546 5.291-.868zm-58.366-2.469c1.693.556 3.4 1.065 5.127 1.526l-.464 1.74c-1.76-.47-3.5-.99-5.225-1.555zm68.77-.04l.52 1.723a94.592 94.592 0 0 1-5.264 1.421l-.42-1.75a92.794 92.794 0 0 0 5.163-1.394zm9.974-3.763l.758 1.632a72.25 72.25 0 0 1-5.045 2.11l-.632-1.684a70.452 70.452 0 0 0 4.919-2.058zm-88.712-.069c1.646.738 3.29 1.426 4.94 2.068l-.653 1.678a109.125 109.125 0 0 1-5.023-2.103zM2.519 48.872l1.408 1.123a80.347 80.347 0 0 0-3.188 4.287l-1.478-1.027a82.146 82.146 0 0 1 3.259-4.383zm112.136-1.853c1.62.886 3.195 1.714 4.754 2.496l-.807 1.61a151.291 151.291 0 0 1-4.81-2.527zm107.536-.448l1.044 1.467a56.501 56.501 0 0 1-4.622 2.957l-.897-1.56a54.702 54.702 0 0 0 4.475-2.864zM9.943 40.848l1.224 1.321a68.23 68.23 0 0 0-3.764 3.773L6.08 44.72a70.029 70.029 0 0 1 3.863-3.872zm95.406.781a357.126 357.126 0 0 0 4.632 2.747l-.905 1.556a358.853 358.853 0 0 1-4.655-2.76zm124.779-2.123l1.342 1.2a47.947 47.947 0 0 1-3.9 3.884l-1.195-1.345a46.147 46.147 0 0 0 3.753-3.739zm8.713-11.227l-.896 14.22-1.797-.113.584-9.277-2.077 3.15-1.502-.99 2.076-3.15-8.295 4.19-.812-1.607 12.719-6.423zM96.07 36.05c1.367.804 2.762 1.64 4.642 2.776l-.93 1.54a433.502 433.502 0 0 0-4.625-2.765zm-77.5-1.945l.984 1.508a61.596 61.596 0 0 0-4.328 3.097l-1.109-1.418a63.395 63.395 0 0 1 4.454-3.187zm67.972-3.275c1.555.77 3.147 1.607 4.819 2.529l-.87 1.576a121.24 121.24 0 0 0-4.748-2.492zm-58.26-1.894l.703 1.657a60.635 60.635 0 0 0-4.804 2.29l-.845-1.59a62.435 62.435 0 0 1 4.946-2.357zm48.184-2.325a71.996 71.996 0 0 1 5.112 1.938l-.7 1.658a70.2 70.2 0 0 0-4.984-1.889zM38.65 25.54l.418 1.751a65.355 65.355 0 0 0-5.127 1.446l-.56-1.711a67.155 67.155 0 0 1 5.269-1.486zm27.153-1.474c1.813.257 3.606.6 5.39 1.028l-.42 1.75a56.24 56.24 0 0 0-5.223-.996zm-16.326-.26l.156 1.793a75.684 75.684 0 0 0-5.296.649l-.283-1.778a77.483 77.483 0 0 1 5.423-.664zm8.044-.317l1.282.016c.514.01 1.025.027 1.535.05l-.083 1.799a57.19 57.19 0 0 0-1.487-.05 90.046 90.046 0 0 0-3.743.004l-.04-1.8a91.845 91.845 0 0 1 3.818-.003z"/>
            <g fill-rule="nonzero">
                <path fill="url(#g)" d="M.42 22.042C.42 13.062 1.945 5.74 4.993.073c11.44 15.3 23.542 22.224 36.305 20.776.392 11.456-8.483 48.205 32.11 54.847-7.937 0-15.052-1.542-21.347-4.627-20.092-8.552-33.56-16.33-40.401-23.335C4.818 40.729 1.072 32.165.42 22.042z" transform="translate(44.974 4.898)"/>
                <path fill="url(#h)" d="M.244 20.868c1.908 20.05 12.803 25.648 32.684 16.797C39.8 59.614 54.205 72.256 76.14 75.593c-22.699-.373-40.723-5.371-54.071-14.996C8.72 50.972 1.446 37.729.244 20.868z" transform="translate(44.974 4.898)"/>
                <g>
                    <path fill="url(#i)" d="M88.829 28.849L48.147.336C37.357 24.505 21.415 41.69.32 51.891l34.81 33.012C62.365 74.728 80.265 56.043 88.83 28.85z" transform="translate(103.332)"/>
                    <path fill="#C5D7F3" d="M123.435 49.568l-3.173 2.15 25.875 21.536 3.872-2.086zM150.51 14.596l30.526 19.447-2.07 3.316-30.388-19.4zM145.93 22.565l30.526 19.447-2.07 3.316L144 25.928zM156.025 41.228l15.342 9.544-2.07 3.316-15.203-9.496zM141.669 29.206l9.916 7.549a28.021 28.021 0 0 1-1.02 2.176 28.377 28.377 0 0 1-7.915 9.497 105.292 105.292 0 0 0-3.385 2.7l-10.201-8.075c.497-.299 1.049-.64 1.655-1.022a28.326 28.326 0 0 0 10.04-10.955c.349-.675.652-1.298.91-1.87zM150.345 48.11l13.74 11.038c-1.582 2.391-3.35 4.412-5.304 6.062-1.954 1.65-4.013 2.862-6.176 3.635l-13.937-10.826c2.937-1.758 5.256-3.365 6.955-4.822 1.7-1.457 3.274-3.153 4.722-5.087z" opacity=".517" style="mix-blend-mode:multiply"/>
                </g>
            </g>
            <ellipse cx="202.385" cy="46.968" stroke="#B1CDF9" stroke-width="1.89" rx="3.598" ry="3.613"/>
            <ellipse cx="12.593" cy="24.387" stroke="#B1CDF9" stroke-width="1.89" rx="3.598" ry="3.613"/>
            <g transform="translate(79.155)">
                <rect width="1.746" height="9.032" x="4.074" fill="#FAAFB1" rx=".873"/>
                <path fill="#D8D8D8" d="M9.603 4.516c0 .468-.379.847-.846.847h-7.62a.847.847 0 1 1 0-1.694h7.62c.467 0 .846.38.846.847z"/>
                <path fill="#FAAFB1" d="M9.603 4.516c0 .468-.379.847-.846.847h-7.62a.847.847 0 1 1 0-1.694h7.62c.467 0 .846.38.846.847z"/>
            </g>
            <path fill="#FAAFB1" d="M167.305 82.194a.9.9 0 0 1 .9.899v6.33a.9.9 0 1 1-1.8 0v-6.33a.9.9 0 0 1 .9-.9z"/>
            <path fill="#D8D8D8" d="M171.503 86.258c0 .481-.39.871-.871.871h-6.654a.871.871 0 0 1 0-1.742h6.654c.48 0 .87.39.87.871z"/>
            <path fill="#FAAFB1" d="M171.503 86.258c0 .481-.39.871-.871.871h-6.654a.871.871 0 0 1 0-1.742h6.654c.48 0 .87.39.87.871z"/>
            <g>
                <path fill="#FAAFB1" d="M50.821 67.742c.646 0 1.17.523 1.17 1.17v8.5a1.17 1.17 0 1 1-2.34 0v-8.5c0-.647.524-1.17 1.17-1.17z"/>
                <path fill="#D8D8D8" d="M56.375 73.161c0 .63-.51 1.141-1.14 1.141h-8.827a1.14 1.14 0 1 1 0-2.282h8.827c.63 0 1.14.511 1.14 1.141z"/>
                <path fill="#FAAFB1" d="M56.375 73.161c0 .63-.51 1.141-1.14 1.141h-8.827a1.14 1.14 0 1 1 0-2.282h8.827c.63 0 1.14.511 1.14 1.141z"/>
            </g>
        </g>
        <g fill="#007EE5">
            <g fill-rule="nonzero">
                <path d="M120 23.235L84.698 0 60 20.782 95.595 42.93zM35.303 0L0 23.227 24.413 42.93 60 20.782zM60 65.085L35.303 85.868 0 62.633 24.405 42.93 60 65.085 95.588 42.93 120 62.633 84.698 85.868z"/>
                <path d="M86.483 93.668a3.722 3.722 0 0 1-2.056.614c-.862 0-1.717-.3-2.415-.877L60 74.88 37.987 93.405a3.764 3.764 0 0 1-4.477.263L22.5 86.422V97.5L60.075 120 97.5 97.5V86.415l-11.017 7.252z"/>
            </g>
        </g>
    </g>
</svg>
