<svg xmlns="http://www.w3.org/2000/svg" width="40" height="40" viewBox="0 0 40 40">
    <defs>
        <linearGradient id="b9my8eolqa" x1="50.001%" x2="50.001%" y1="98.368%" y2="1.454%">
            <stop offset="0%" stop-color="#FF1B2D"/>
            <stop offset="30%" stop-color="#FF1B2D"/>
            <stop offset="61.4%" stop-color="#FF1B2D"/>
            <stop offset="100%" stop-color="#A70014"/>
        </linearGradient>
        <linearGradient id="nr6refazfb" x1="49.999%" x2="49.999%" y1="99.148%" y2=".394%">
            <stop offset="0%" stop-color="#9C0000"/>
            <stop offset="70%" stop-color="#FF4B4B"/>
            <stop offset="100%" stop-color="#FF4B4B"/>
        </linearGradient>
    </defs>
    <g fill="none" fill-rule="evenodd">
        <g fill-rule="nonzero">
            <g>
                <g>
                    <g>
                        <path fill="#FFF" stroke="#E7EBF0" stroke-width=".5" d="M27.278.25c3.188.008 4.976.068 6.885.672 2.286.835 4.086 2.637 4.919 4.925.6 1.905.66 3.693.667 6.875h0l.001.801v13.755c-.008 3.188-.068 4.976-.672 6.885-.835 2.286-2.637 4.086-4.924 4.918-1.906.601-3.693.661-6.876.668h0l-.801.001H12.722c-3.188-.008-4.976-.068-6.884-.672-2.287-.835-4.087-2.637-4.92-4.925-.6-1.905-.66-3.693-.667-6.874h0V12.722c.007-3.188.067-4.976.67-6.885C1.758 3.551 3.56 1.751 5.848.918 7.752.318 9.54.258 12.72.251h0z" transform="translate(-1077.000000, -538.000000) translate(1057.000000, 26.000000) translate(0.000000, 383.000000) translate(20.000000, 129.000000)"/>
                        <g>
                            <g>
                                <path fill="url(#b9my8eolqa)" d="M16 32C7.163 32 0 24.835 0 16 0 7.42 6.755.416 15.238.019 15.49.007 15.744 0 16 0c4.096 0 7.832 1.54 10.663 4.072-1.876-1.244-4.068-1.96-6.412-1.96-3.81 0-7.222 1.89-9.517 4.871-1.77 2.089-2.915 5.176-2.993 8.64v.754c.078 3.464 1.223 6.552 2.992 8.64 2.296 2.98 5.708 4.87 9.518 4.87 2.344 0 4.537-.715 6.412-1.96-2.816 2.52-6.53 4.057-10.603 4.072L16 32z" transform="translate(-1077.000000, -538.000000) translate(1057.000000, 26.000000) translate(0.000000, 383.000000) translate(20.000000, 129.000000) translate(4.000000, 4.000000) translate(16.000000, 16.000000) scale(-1, 1) rotate(-180.000000) translate(-16.000000, -16.000000) translate(-0.000000, 0.000000)"/>
                                <path fill="url(#nr6refazfb)" d="M10.733 25.015c1.469 1.734 3.365 2.779 5.437 2.779 4.658 0 8.433-5.28 8.433-11.795 0-6.514-3.776-11.795-8.433-11.795-2.072 0-3.968 1.045-5.436 2.778 2.295-2.98 5.707-4.87 9.517-4.87 2.344 0 4.537.715 6.412 1.959C29.938 7 32 11.259 32 15.999c0 4.74-2.062 8.998-5.336 11.927-1.876 1.245-4.069 1.96-6.412 1.96-3.81 0-7.223-1.89-9.518-4.87" transform="translate(-1077.000000, -538.000000) translate(1057.000000, 26.000000) translate(0.000000, 383.000000) translate(20.000000, 129.000000) translate(4.000000, 4.000000) translate(16.000000, 16.000000) scale(-1, 1) rotate(-180.000000) translate(-16.000000, -16.000000) translate(-0.000000, 0.000000)"/>
                            </g>
                        </g>
                    </g>
                </g>
            </g>
        </g>
    </g>
</svg>
