<svg xmlns="http://www.w3.org/2000/svg" width="64" height="64" viewBox="0 0 64 64">
    <g fill="none" fill-rule="evenodd">
        <path fill="#3C80EF" d="M23.873 48.554v4.483c0 1.472 1.214 2.667 2.709 2.667h10.836c1.495 0 2.709-1.195 2.709-2.667v-4.483c6.553-3.061 10.836-9.61 10.836-16.85 0-10.294-8.506-18.667-18.963-18.667S13.037 21.41 13.037 31.704c0 7.24 4.283 13.789 10.836 16.85"/>
        <path fill="#295295" d="M37.53 58.074H26.47c-1.527 0-2.766 1.325-2.766 2.963 0 1.639 1.239 2.963 2.765 2.963h11.062c1.526 0 2.765-1.324 2.765-2.963 0-1.638-1.239-2.963-2.765-2.963"/>
        <path fill="#1593FB" d="M8.296 29.63H0v5.926h8.296zM7.111 10.904l5.687 5.689 3.795-3.793-5.69-5.689zM35.556 0H29.63v8.296h5.926zM53.096 7.111l-5.689 5.687 3.793 3.795 5.689-5.69zM55.704 35.556h8V29.63h-8z"/>
        <path fill="#FFF" d="M30 36.659a6 6 0 1 1 4 0V48a1 1 0 0 1-1 1h-2a1 1 0 0 1-1-1V36.659z"/>
    </g>
</svg>
