<svg width="25" height="24" viewBox="0 0 25 24" fill="none" xmlns="http://www.w3.org/2000/svg">
<path d="M5.88 4.03445H5.66C4.46696 4.03445 3.5 5.05328 3.5 6.31032V20.7241C3.5 21.9811 4.46696 23 5.66 23H17.18C18.373 23 19.34 21.9811 19.34 20.7241L19.34 20.4655H8.54C7.04653 20.4655 5.88 19.1979 5.88 17.6897V4.03445Z" fill="#74D6F1"/>
<path d="M6.38 17.6897C6.38 18.9467 7.34697 19.9655 8.54 19.9655H19.34C20.533 19.9655 21.5 18.9467 21.5 17.6897V5.26458C21.5 4.76161 21.3103 4.27913 20.973 3.92333L18.7255 1.55531C18.3878 1.19989 17.9299 1 17.4525 1H8.54C7.34697 1 6.38 2.01883 6.38 3.27586V17.6897Z" fill="#74D6F1"/>
</svg>
