<svg width="24" height="24" viewBox="0 0 24 24" fill="none" xmlns="http://www.w3.org/2000/svg">
<path d="M5.88 17.6897C5.88 18.9467 6.84696 19.9655 8.04 19.9655H17.4V20.7241C17.4 21.1433 17.0778 21.4828 16.68 21.4828H5.16C4.7622 21.4828 4.44 21.1433 4.44 20.7241V6.31035C4.44 5.89121 4.7622 5.55172 5.16 5.55172H5.88V17.6897ZM19.56 5.26458V17.6897C19.56 18.1088 19.2378 18.4483 18.84 18.4483H8.04C7.6422 18.4483 7.32 18.1088 7.32 17.6897V3.27586C7.32 2.85672 7.6422 2.51724 8.04 2.51724H16.9525C17.0483 2.51724 17.1397 2.55708 17.207 2.62839L19.4545 4.99642C19.5222 5.06735 19.56 5.16368 19.56 5.26458ZM5.16 4.03448C3.96696 4.03448 3 5.05331 3 6.31035V20.7241C3 21.9812 3.96696 23 5.16 23H16.68C17.873 23 18.84 21.9812 18.84 20.7241V19.9655C20.033 19.9655 21 18.9467 21 17.6897V5.26458C21 4.76161 20.8103 4.27913 20.473 3.92333C19.9189 3.33958 18.7795 2.13906 18.2255 1.55531C17.8878 1.19989 17.4299 1 16.9525 1H8.04C6.84696 1 5.88 2.01883 5.88 3.27586V4.03448" fill="#325167"/>
</svg>
