<svg width="24" height="24" viewBox="0 0 24 24" fill="none" xmlns="http://www.w3.org/2000/svg">
<path d="M5.38 4.03445H5.16C3.96696 4.03445 3 5.05328 3 6.31032V20.7241C3 21.9811 3.96696 23 5.16 23H16.68C17.873 23 18.84 21.9811 18.84 20.7241L18.84 20.4655H8.04C6.54653 20.4655 5.38 19.1979 5.38 17.6897V4.03445Z" fill="#087191"/>
<path d="M5.88 17.6897C5.88 18.9467 6.84697 19.9655 8.04 19.9655H18.84C20.033 19.9655 21 18.9467 21 17.6897V5.26458C21 4.76161 20.8103 4.27913 20.473 3.92333L18.2255 1.55531C17.8878 1.19989 17.4299 1 16.9525 1H8.04C6.84697 1 5.88 2.01883 5.88 3.27586V17.6897Z" fill="#087191"/>
</svg>
