<svg width="25" height="24" viewBox="0 0 25 24" fill="none" xmlns="http://www.w3.org/2000/svg">
<path d="M6.38 17.6897C6.38 18.9467 7.34696 19.9655 8.54 19.9655H17.9V20.7241C17.9 21.1433 17.5778 21.4828 17.18 21.4828H5.66C5.2622 21.4828 4.94 21.1433 4.94 20.7241V6.31035C4.94 5.89121 5.2622 5.55172 5.66 5.55172H6.38V17.6897ZM20.06 5.26458V17.6897C20.06 18.1088 19.7378 18.4483 19.34 18.4483H8.54C8.1422 18.4483 7.82 18.1088 7.82 17.6897V3.27586C7.82 2.85672 8.1422 2.51724 8.54 2.51724H17.4525C17.5483 2.51724 17.6397 2.55708 17.707 2.62839L19.9545 4.99642C20.0222 5.06735 20.06 5.16368 20.06 5.26458ZM5.66 4.03448C4.46696 4.03448 3.5 5.05331 3.5 6.31035V20.7241C3.5 21.9812 4.46696 23 5.66 23H17.18C18.373 23 19.34 21.9812 19.34 20.7241V19.9655C20.533 19.9655 21.5 18.9467 21.5 17.6897V5.26458C21.5 4.76161 21.3103 4.27913 20.973 3.92333C20.4189 3.33958 19.2795 2.13906 18.7255 1.55531C18.3878 1.19989 17.9299 1 17.4525 1H8.54C7.34696 1 6.38 2.01883 6.38 3.27586V4.03448" fill="#BCCFDC"/>
</svg>
