<svg width="80" height="80" viewBox="0 0 80 80" fill="none" xmlns="http://www.w3.org/2000/svg">
<rect x="6.25" y="37.25" width="67.5" height="35.5" rx="1.75" fill="#E6F9FF" stroke="#035970" stroke-width="0.5" stroke-dasharray="4 4"/>
<rect x="78" y="10" width="63" height="41" rx="2" transform="rotate(90 78 10)" fill="#67A4BA"/>
<path d="M55.8684 20H42.1332C41.833 19.9991 41.5453 19.8934 41.333 19.7061C41.1208 19.5188 41.001 19.2649 41 19C41.001 18.7351 41.1208 18.4812 41.333 18.2939C41.5453 18.1066 41.833 18.0009 42.1332 18H55.8684C56.1683 18.0013 56.4556 18.1071 56.6675 18.2944C56.8795 18.4817 56.999 18.7353 57 19C56.9992 19.2648 56.8797 19.5185 56.6677 19.7058C56.4557 19.8932 56.1684 19.9989 55.8684 20Z" fill="white"/>
<path d="M49.9388 24H42.0612C41.4751 24 41 24.4477 41 25C41 25.5523 41.4751 26 42.0612 26H49.9388C50.5249 26 51 25.5523 51 25C51 24.4477 50.5249 24 49.9388 24Z" fill="white"/>
<path d="M70.9171 26H53.0822C52.7953 25.9991 52.5205 25.8934 52.3178 25.7061C52.115 25.5187 52.0008 25.2649 52 25C52.001 24.7351 52.1154 24.4812 52.3183 24.2939C52.5211 24.1066 52.796 24.0009 53.0829 24H70.9171C71.204 24.0009 71.4789 24.1066 71.6817 24.2939C71.8846 24.4812 71.999 24.7351 72 25C71.9992 25.265 71.8849 25.5189 71.6819 25.7063C71.479 25.8937 71.204 25.9993 70.9171 26Z" fill="white"/>
<path d="M55.8669 30H42.1331C41.5073 30 41 30.4477 41 31C41 31.5523 41.5073 32 42.1331 32H55.8669C56.4927 32 57 31.5523 57 31C57 30.4477 56.4927 30 55.8669 30Z" fill="white"/>
<path d="M70.9912 30H59.0088C58.4516 30 58 30.4477 58 31C58 31.5523 58.4516 32 59.0088 32H70.9912C71.5484 32 72 31.5523 72 31C72 30.4477 71.5484 30 70.9912 30Z" fill="white"/>
<path d="M51.9064 38H42.0936C41.8039 37.9991 41.5263 37.8934 41.3214 37.7061C41.1165 37.5188 41.001 37.2649 41 37C41.001 36.7351 41.1165 36.4812 41.3214 36.2939C41.5263 36.1066 41.8039 36.0009 42.0936 36H51.9064C52.1962 36.0007 52.4739 36.1063 52.6788 36.2937C52.8837 36.4811 52.9992 36.735 53 37C52.999 37.2649 52.8835 37.5188 52.6786 37.7061C52.4737 37.8934 52.1961 37.9991 51.9064 38Z" fill="white"/>
<path d="M63.9972 38H55.0028C54.7371 37.9991 54.4826 37.8934 54.2947 37.7061C54.1069 37.5188 54.0009 37.2649 54 37C54.0009 36.7351 54.1069 36.4812 54.2947 36.2939C54.4826 36.1066 54.7371 36.0009 55.0028 36H63.9972C64.263 36.0007 64.5176 36.1063 64.7055 36.2937C64.8934 36.4811 64.9993 36.735 65 37C64.9991 37.2649 64.8931 37.5188 64.7053 37.7061C64.5174 37.8934 64.2629 37.9991 63.9972 38Z" fill="white"/>
<path d="M15.7172 33.2828C15.8734 33.4391 16.1266 33.4391 16.2828 33.2828L18.8284 30.7373C18.9846 30.581 18.9846 30.3278 18.8284 30.1716C18.6722 30.0154 18.419 30.0154 18.2627 30.1716L16 32.4343L13.7373 30.1716C13.581 30.0154 13.3278 30.0154 13.1716 30.1716C13.0154 30.3278 13.0154 30.581 13.1716 30.7373L15.7172 33.2828ZM33.2828 16.2828C33.4391 16.1266 33.4391 15.8734 33.2828 15.7172L30.7373 13.1716C30.581 13.0154 30.3278 13.0154 30.1716 13.1716C30.0154 13.3278 30.0154 13.581 30.1716 13.7373L32.4343 16L30.1716 18.2627C30.0154 18.419 30.0154 18.6722 30.1716 18.8284C30.3278 18.9846 30.581 18.9846 30.7373 18.8284L33.2828 16.2828ZM16.4 33C16.4 23.8321 23.8321 16.4 33 16.4V15.6C23.3902 15.6 15.6 23.3902 15.6 33H16.4Z" fill="#035970"/>
</svg>
