<svg xmlns="http://www.w3.org/2000/svg" xmlns:xlink="http://www.w3.org/1999/xlink" width="259" height="111" viewBox="0 0 259 111">
    <defs>
        <linearGradient id="prefix__a" x1="60.731%" x2="52.081%" y1="35.467%" y2="50%">
            <stop offset="0%" stop-color="#3485F7"/>
            <stop offset="100%" stop-color="#1A57CF"/>
        </linearGradient>
        <linearGradient id="prefix__c" x1="85.097%" x2="4.854%" y1="67.237%" y2="21.755%">
            <stop offset="0%" stop-color="#032258"/>
            <stop offset="100%" stop-color="#133E94"/>
        </linearGradient>
        <linearGradient id="prefix__d" x1="60.731%" x2="-2.353%" y1="35.298%" y2="77.524%">
            <stop offset="0%" stop-color="#3485F7"/>
            <stop offset="100%" stop-color="#1A57CF"/>
        </linearGradient>
        <linearGradient id="prefix__f" x1="60.731%" x2="52.081%" y1="35.298%" y2="50%">
            <stop offset="0%" stop-color="#3485F7"/>
            <stop offset="100%" stop-color="#1A57CF"/>
        </linearGradient>
        <path id="prefix__b" d="M150.958 100.894H5.234c-1.666 0-2.763-1.35-2.45-3.016l15.833-84.375c.312-1.666 1.916-3.018 3.582-3.018h145.724c1.666 0 2.763 1.352 2.45 3.018l-15.832 84.375c-.313 1.666-1.912 3.016-3.583 3.016z"/>
        <path id="prefix__e" d="M183.398 100.894H37.674c-1.666 0-3.25-1.35-3.548-3.016L19.25 13.503c-.294-1.666.818-3.018 2.485-3.018h145.72c1.667 0 3.25 1.352 3.55 3.018l14.875 84.375c.296 1.666-.817 3.016-2.483 3.016z"/>
    </defs>
    <g fill="none">
        <path fill="#D2E1F5" d="M253.812 104.135c-41.1-16.704-236.653-9.415-249.344-4.45-12.691 4.964 2.47 8.292 35.124 6.457s74.668.204 110.755 1.186c36.086.983 130.108 7.64 103.465-3.193z"/>
        <g transform="translate(44.5)">
            <path fill="#0C3178" d="M137.6 20.97c-5.791 0-10.486-4.694-10.486-10.485C127.114 4.695 131.81 0 137.6 0c5.791 0 10.485 4.695 10.485 10.485-.008 5.788-4.697 10.477-10.485 10.485zm0-18.468c-3.23 0-6.142 1.945-7.378 4.93-1.236 2.983-.552 6.418 1.732 8.701 2.284 2.284 5.718 2.967 8.702 1.73 2.984-1.236 4.929-4.148 4.928-7.378-.004-4.407-3.577-7.98-7.985-7.983z"/>
            <path fill="#0C3178" d="M124.45 20.97c-5.791 0-10.486-4.694-10.486-10.485C113.964 4.695 118.66 0 124.45 0c5.791 0 10.485 4.695 10.485 10.485-.008 5.788-4.697 10.477-10.485 10.485zm0-18.468c-3.23 0-6.142 1.945-7.378 4.93-1.236 2.983-.552 6.418 1.732 8.701 2.284 2.284 5.718 2.967 8.702 1.73 2.984-1.236 4.929-4.148 4.928-7.378-.005-4.407-3.577-7.979-7.985-7.983z"/>
            <path fill="#0C3178" d="M110.186 20.97c-4.241 0-8.065-2.553-9.688-6.471-1.623-3.918-.727-8.428 2.272-11.427 2.999-3 7.508-3.896 11.427-2.274 3.918 1.623 6.472 5.446 6.472 9.687-.008 5.787-4.697 10.476-10.483 10.485zm0-18.468c-3.23 0-6.142 1.944-7.379 4.928-1.236 2.984-.553 6.419 1.731 8.703 2.284 2.284 5.719 2.967 8.703 1.73 2.984-1.236 4.929-4.148 4.928-7.378-.004-4.407-3.576-7.979-7.983-7.983z"/>
            <path fill="#0C3178" d="M97.034 20.97c-5.79 0-10.485-4.694-10.485-10.485C86.55 4.695 91.244 0 97.034 0c5.791 0 10.485 4.695 10.485 10.485-.008 5.788-4.697 10.477-10.485 10.485zm0-18.468c-3.23 0-6.141 1.945-7.377 4.93-1.236 2.983-.552 6.418 1.732 8.701 2.284 2.284 5.718 2.967 8.702 1.73 2.984-1.236 4.929-4.148 4.928-7.378-.005-4.407-3.577-7.979-7.985-7.983z"/>
            <path fill="#0C3178" d="M83.37 20.97c-4.24 0-8.064-2.553-9.687-6.471-1.623-3.918-.727-8.428 2.272-11.427 2.999-3 7.508-3.896 11.427-2.274 3.918 1.623 6.472 5.446 6.472 9.687-.008 5.787-4.697 10.476-10.483 10.485zm0-18.468c-3.23 0-6.141 1.944-7.378 4.928-1.236 2.984-.553 6.419 1.731 8.703 2.284 2.284 5.719 2.967 8.703 1.73 2.984-1.236 4.929-4.148 4.928-7.378-.004-4.407-3.576-7.979-7.983-7.983z"/>
            <path fill="#0C3178" d="M70.22 20.97c-5.791 0-10.486-4.694-10.486-10.485C59.734 4.695 64.43 0 70.22 0c5.791 0 10.485 4.695 10.485 10.485-.008 5.788-4.697 10.477-10.485 10.485zm0-18.468c-3.23 0-6.142 1.945-7.378 4.93-1.236 2.983-.552 6.418 1.732 8.701 2.284 2.284 5.718 2.967 8.702 1.73 2.984-1.236 4.929-4.148 4.928-7.378-.005-4.407-3.577-7.979-7.985-7.983z"/>
            <path fill="#0C3178" d="M55.526 20.97c-4.242.003-8.067-2.55-9.692-6.468s-.729-8.429 2.27-11.428C51.1.074 55.611-.825 59.53.798c3.92 1.622 6.474 5.446 6.474 9.687-.008 5.785-4.694 10.474-10.478 10.485zm0-18.468c-3.23-.003-6.144 1.941-7.382 4.925-1.238 2.984-.556 6.42 1.727 8.704 2.284 2.285 5.719 2.969 8.704 1.733 2.984-1.236 4.93-4.148 4.93-7.379-.005-4.405-3.574-7.976-7.98-7.983z"/>
            <path fill="url(#prefix__a)" d="M148.232 100.894H2.504c-1.666 0-2.763-1.35-2.45-3.016l15.832-84.375c.313-1.666 1.917-3.018 3.582-3.018h145.725c1.666 0 2.763 1.352 2.45 3.018l-15.832 84.375c-.307 1.666-1.913 3.016-3.58 3.016z"/>
            <use fill="#007300" xlink:href="#prefix__b"/>
            <use fill="url(#prefix__c)" xlink:href="#prefix__b"/>
            <path fill="url(#prefix__d)" d="M180.36 100.894H34.637c-1.665 0-3.25-1.35-3.548-3.016L16.213 13.503c-.294-1.666.819-3.018 2.484-3.018h145.725c1.665 0 3.25 1.352 3.547 3.018l14.875 84.375c.295 1.666-.817 3.016-2.483 3.016z"/>
            <use fill="#3C80EF" xlink:href="#prefix__e"/>
            <use fill="url(#prefix__f)" xlink:href="#prefix__e"/>
            <path fill="#202D51" d="M144.522 18.727c.5 1.403.064 2.54-.98 2.54s-2.299-1.137-2.801-2.54c-.503-1.404-.063-2.54.98-2.54 1.045 0 2.298 1.137 2.8 2.54zM131.178 18.727c.5 1.403.063 2.54-.981 2.54s-2.298-1.137-2.8-2.54c-.503-1.404-.064-2.54.98-2.54s2.299 1.137 2.801 2.54zM116.362 18.727c.5 1.403.064 2.54-.981 2.54s-2.298-1.137-2.8-2.54c-.503-1.404-.064-2.54.98-2.54 1.043 0 2.298 1.137 2.8 2.54zM103.017 18.727c.5 1.403.064 2.54-.981 2.54s-2.298-1.137-2.8-2.54c-.503-1.404-.064-2.54.98-2.54 1.046 0 2.298 1.137 2.8 2.54zM90.118 18.964c.5 1.403.064 2.54-.98 2.54s-2.299-1.137-2.801-2.54c-.503-1.402-.063-2.541.981-2.541s2.298 1.139 2.8 2.541zM77.468 18.964c.5 1.403.064 2.54-.98 2.54s-2.299-1.137-2.801-2.54c-.503-1.402-.063-2.541.981-2.541s2.298 1.139 2.8 2.541zM63.38 18.964c.5 1.403.063 2.54-.98 2.54-1.044 0-2.3-1.137-2.802-2.54-.502-1.402-.064-2.541.981-2.541s2.292 1.139 2.8 2.541z"/>
            <path fill="#0C3178" d="M142.01 19.852c-.57 0-1.07-.388-1.211-.942-.141-.553.111-1.132.613-1.406 3.206-1.746 4.82-5.443 3.92-8.981-.899-3.538-4.082-6.016-7.733-6.019-.69 0-1.25-.56-1.25-1.25s.56-1.25 1.25-1.25c4.796 0 8.98 3.255 10.162 7.903 1.181 4.648-.94 9.505-5.154 11.796-.183.098-.388.15-.596.149zM128.804 19.882c-.572 0-1.072-.39-1.212-.946-.14-.555.116-1.135.621-1.406 3.168-1.693 4.815-5.293 4.026-8.797-.789-3.504-3.82-6.05-7.407-6.223-.447-.02-.848-.278-1.053-.676-.205-.397-.183-.873.058-1.25.242-.376.666-.595 1.112-.574 4.711.226 8.692 3.569 9.729 8.17 1.036 4.6-1.126 9.327-5.285 11.552-.18.097-.383.149-.589.15zM114.114 20.095c-.58-.005-1.08-.41-1.207-.976-.127-.567.153-1.146.675-1.399 3.321-1.56 5.151-5.185 4.435-8.784-.715-3.6-3.792-6.248-7.458-6.42-.69-.032-1.224-.618-1.192-1.308.032-.69.617-1.224 1.307-1.193 4.814.226 8.854 3.703 9.794 8.429.94 4.726-1.46 9.484-5.821 11.535-.167.078-.349.117-.533.116zM100.698 20.214c-.593.002-1.107-.414-1.228-.995-.121-.58.183-1.167.728-1.402 3.413-1.475 5.357-5.109 4.69-8.765-.668-3.657-3.77-6.37-7.484-6.544-.69-.032-1.224-.617-1.192-1.308.032-.69.617-1.224 1.307-1.192 4.876.228 8.949 3.79 9.826 8.59.877 4.802-1.675 9.573-6.154 11.51-.156.068-.323.104-.493.106zM87.54 19.98c-.58 0-1.083-.397-1.217-.96-.135-.563.134-1.144.65-1.406 3.23-1.633 4.958-5.234 4.211-8.776-.747-3.541-3.783-6.137-7.397-6.326-.447-.023-.847-.282-1.051-.68-.204-.397-.18-.874.062-1.25.243-.375.667-.593 1.114-.57 4.745.247 8.731 3.654 9.714 8.303.983 4.649-1.284 9.378-5.523 11.524-.174.09-.367.138-.564.14zM74.824 19.743c-.565 0-1.06-.38-1.207-.927-.146-.546.092-1.123.582-1.406 3.016-1.732 4.563-5.217 3.827-8.615-.736-3.399-3.587-5.93-7.05-6.26-.678-.074-1.171-.68-1.108-1.36.064-.679.662-1.182 1.343-1.128 4.544.431 8.288 3.754 9.256 8.215.968 4.462-1.062 9.037-5.019 11.313-.19.11-.405.168-.624.168zM60.586 19.464c-.554.001-1.042-.362-1.2-.892-.159-.53.05-1.101.513-1.404 2.795-1.83 4.155-5.206 3.41-8.463C62.564 5.45 59.87 3 56.559 2.568c-.45-.05-.84-.338-1.016-.754-.177-.417-.115-.897.162-1.255.278-.357.727-.537 1.174-.47 4.35.566 7.888 3.78 8.868 8.056.98 4.276-.806 8.71-4.475 11.114-.204.134-.442.206-.686.205z"/>
            <path fill="#FFF" d="M178.647 98.123H41.448c-1.451 0-2.835-1.176-3.091-2.625L26.394 27.655c-.25-1.45.713-2.625 2.164-2.625h137.196c1.452 0 2.835 1.178 3.092 2.625l11.962 67.843c.259 1.449-.71 2.625-2.161 2.625z"/>
            <path fill="#B8CFF1" d="M175.554 93.703H42.982l-.019-.104-11.311-64.154h132.572l.018.104 11.312 64.154zm-132.362-.25h132.062l-11.242-63.758H31.949l11.243 63.758z"/>
            <path fill="#B8CFF1" d="M40.829 80.652H173.148V81.652H40.829zM38.572 67.85H170.891V68.85H38.572zM36.314 55.048H168.63299999999998V56.048H36.314zM34.058 42.247H166.37699999999998V43.247H34.058z"/>
            <path fill="#B8CFF1" d="M150.734 29.077H151.734V94.071H150.734z" transform="rotate(-10 150.86 61.574)"/>
            <path fill="#B8CFF1" d="M131.831 29.077H132.831V94.071H131.831z" transform="rotate(-10 131.956 61.574)"/>
            <path fill="#B8CFF1" d="M112.93 29.076H113.93V94.07H112.93z" transform="rotate(-10 113.055 61.573)"/>
            <path fill="#B8CFF1" d="M94.027 29.077H95.027V94.071H94.027z" transform="rotate(-10 94.152 61.574)"/>
            <path fill="#B8CFF1" d="M75.124 29.077H76.124V94.071H75.124z" transform="rotate(-10 75.25 61.574)"/>
            <path fill="#B8CFF1" d="M56.22 29.077H57.22V94.071H56.22z" transform="rotate(-10 56.345 61.574)"/>
            <path fill="#B8CFF1" d="M107.32 46.84h-8.18c-.578-.021-1.067-.435-1.182-1-.055-.249.008-.508.17-.703.161-.196.404-.305.658-.298h8.18c.578.02 1.067.433 1.182 1 .055.248-.007.507-.17.702-.16.196-.404.306-.657.298zM107.88 49.997H99.7c-.579-.02-1.068-.434-1.183-1-.055-.248.008-.507.17-.703.161-.195.404-.305.657-.297h8.182c.577.02 1.066.433 1.18 1 .056.247-.007.506-.168.702-.162.195-.405.305-.659.298zM147.635 84.942h-8.18c-.577-.02-1.066-.434-1.181-1-.055-.248.008-.507.17-.703.161-.195.404-.305.657-.297h8.18c.578.02 1.066.433 1.182 1 .054.247-.008.506-.17.702-.161.195-.404.305-.658.298zM148.193 88.1h-8.18c-.578-.02-1.068-.434-1.183-1-.055-.249.008-.508.17-.703.161-.196.404-.305.658-.298h8.18c.578.02 1.067.433 1.182 1 .055.248-.008.507-.17.702-.161.196-.404.306-.657.298zM49.334 61.047h-8.18c-.577-.02-1.066-.434-1.18-1-.056-.248.006-.508.168-.703.162-.196.405-.305.659-.297h8.18c.577.02 1.066.433 1.18 1 .056.247-.007.506-.168.702-.162.195-.405.305-.659.298zM49.892 64.204h-8.18c-.578-.02-1.067-.433-1.183-1-.054-.248.008-.507.17-.702.161-.196.404-.305.658-.298h8.18c.578.02 1.067.433 1.182 1 .055.248-.007.507-.169.702-.162.196-.405.306-.658.298z"/>
            <path fill="#6F9CFF" d="M75.196 79.34H63.078c-1.049 0-2.057-.858-2.242-1.907l-.96-5.441c-.185-1.05.522-1.907 1.57-1.907H73.57c1.047 0 2.056.858 2.24 1.907l.96 5.44c.18 1.053-.527 1.907-1.575 1.907z"/>
            <path fill="#FFF" d="M67.843 77.115c-.064 0-.126-.024-.172-.068l-2.72-2.575c-.065-.062-.093-.153-.072-.24.02-.087.086-.157.172-.182.086-.026.178-.004.243.058l2.53 2.394 3.834-4.537c.09-.105.247-.119.353-.03.105.09.119.247.03.353l-4 4.739c-.045.052-.109.084-.178.088h-.02z"/>
        </g>
    </g>
</svg>
