<?xml version="1.0" encoding="UTF-8"?>
<svg width="44px" height="59px" viewBox="0 0 44 59" version="1.1" xmlns="http://www.w3.org/2000/svg" xmlns:xlink="http://www.w3.org/1999/xlink">
    <title>CD441D32-3D20-404B-B35D-74130E99A332</title>
    <g id="General" stroke="none" stroke-width="1" fill="none" fill-rule="evenodd">
        <g id="[Web]-Document-List_Upload-Office-File" transform="translate(-5481.000000, -815.000000)" fill-rule="nonzero">
            <g id="Group-16-Copy-2" transform="translate(4530.000000, 89.000000)">
                <g id="Document-Grid-/-Web-/-Old" transform="translate(842.000000, 663.000000)">
                    <g id="Group" transform="translate(16.000000, 16.000000)">
                        <g id="PDF" transform="translate(93.000000, 47.000000)">
                            <path d="M2.42622951,5.83262907e-13 L25.4661894,5.83262907e-13 L25.4661894,5.83262907e-13 L44,18.4567352 L44,56.5737705 C44,57.91374 42.91374,59 41.5737705,59 L2.42622951,59 C1.08625995,59 -1.16816869e-15,57.91374 0,56.5737705 L0,2.42622951 C-1.64098943e-16,1.08625995 1.08625995,5.82176787e-13 2.42622951,5.83262907e-13 Z" id="Path-3" fill="#C1D1E0"></path>
                            <polygon id="Fill-7" fill="#C1D1E0" style="mix-blend-mode: multiply;" opacity="0.295503162" points="44 36.1800276 44 18.3683041 25.4661894 16.2345715"></polygon>
                            <path d="M25.4661894,3.18971902e-14 L25.4661894,16.0189017 C25.4661894,17.3588713 26.5524493,18.4451312 27.8924189,18.4451312 C27.8962776,18.4451312 27.9001364,18.445122 27.9039951,18.4451036 L44,18.3683041 L44,18.3683041 L25.4661894,3.18971902e-14 Z" id="Path-2" fill="#F2F6FA"></path>
                            <path d="M14.5005877,41.7916667 C15.1934158,41.7916667 15.7950733,41.9022906 16.3055782,42.1235417 C16.8160831,42.3447928 17.2098953,42.660861 17.4870265,43.071756 C17.7641578,43.4826509 17.9027213,43.9655329 17.9027213,44.5204167 C17.9027213,45.0753004 17.7641578,45.5564265 17.4870265,45.9638095 C17.2098953,46.3711925 16.8160831,46.6855048 16.3055782,46.906756 C15.7950733,47.1280071 15.1934158,47.238631 14.5005877,47.238631 L13.1659886,47.238631 L13.1659886,49.1666667 L11,49.1666667 L11,41.7916667 L14.5005877,41.7916667 Z M14.3693156,45.5950595 C14.8141842,45.5950595 15.1496538,45.501995 15.3757346,45.3158631 C15.6018153,45.1297312 15.714854,44.8645851 15.714854,44.5204167 C15.714854,44.1762483 15.6018153,43.9093462 15.3757346,43.7197024 C15.1496538,43.5300586 14.8141842,43.4352381 14.3693156,43.4352381 L13.1659886,43.4352381 L13.1659886,45.5950595 L14.3693156,45.5950595 Z M18.455655,41.7916667 L22.0765754,41.7916667 C22.915262,41.7916667 23.6591295,41.9426771 24.3082,42.2447024 C24.9572705,42.5467277 25.460475,42.9751758 25.8178284,43.5300595 C26.1751819,44.0849433 26.3538559,44.7346391 26.3538559,45.4791667 C26.3538559,46.2236942 26.1751819,46.8733901 25.8178284,47.4282738 C25.460475,47.9831575 24.9572705,48.4116056 24.3082,48.713631 C23.6591295,49.0156563 22.915262,49.1666667 22.0765754,49.1666667 L18.455655,49.1666667 L18.455655,41.7916667 Z M21.9890607,47.5020238 C22.6454241,47.5020238 23.1723302,47.3229185 23.5697948,46.9647024 C23.9672593,46.6064863 24.1659886,46.1113127 24.1659886,45.4791667 C24.1659886,44.8470206 23.9672593,44.351847 23.5697948,43.993631 C23.1723302,43.6354149 22.6454241,43.4563095 21.9890607,43.4563095 L20.6216436,43.4563095 L20.6216436,47.5020238 L21.9890607,47.5020238 Z M29.1602929,43.403631 L29.1602929,45.026131 L32.5405479,45.026131 L32.5405479,46.6380952 L29.1602929,46.6380952 L29.1602929,49.1666667 L26.9943043,49.1666667 L26.9943043,41.7916667 L33,41.7916667 L33,43.403631 L29.1602929,43.403631 Z" fill="#8093A7"></path>
                        </g>
                    </g>
                </g>
            </g>
        </g>
    </g>
</svg>