<svg xmlns="http://www.w3.org/2000/svg" width="34" height="47" viewBox="0 0 34 47">
    <g fill="none" fill-rule="evenodd">
        <path fill="#CD0000" d="M0 0h22.667L34 11.75V47H0z"/>
        <path fill="#FD8C8B" d="M22.667 11.41H34L22.667 0z"/>
        <path fill="#FFF" d="M9.976 27.72c.41 0 .779.09 1.104.272.325.181.58.435.764.76.184.325.276.701.276 1.128 0 .427-.092.804-.276 1.132a1.949 1.949 0 0 1-.764.764 2.229 2.229 0 0 1-1.104.272c-.304 0-.583-.059-.836-.176a1.739 1.739 0 0 1-.644-.512v2.192h-.768V27.76h.736v.672a1.63 1.63 0 0 1 .648-.532c.261-.12.55-.18.864-.18zm-.064 3.656c.272 0 .516-.063.732-.188.216-.125.387-.301.512-.528.125-.227.188-.487.188-.78 0-.293-.063-.553-.188-.78a1.326 1.326 0 0 0-.512-.524 1.456 1.456 0 0 0-.732-.184c-.267 0-.508.063-.724.188-.216.125-.387.3-.512.524a1.562 1.562 0 0 0-.188.776c0 .293.061.553.184.78.123.227.293.403.512.528.219.125.461.188.728.188zm7.272-5.312V32h-.736v-.672c-.17.235-.387.413-.648.536-.261.123-.55.184-.864.184-.41 0-.779-.09-1.104-.272a1.949 1.949 0 0 1-.764-.764 2.274 2.274 0 0 1-.276-1.132c0-.427.092-.803.276-1.128.184-.325.439-.579.764-.76a2.229 2.229 0 0 1 1.104-.272c.304 0 .584.057.84.172.256.115.47.284.64.508v-2.336h.768zM15 31.376c.267 0 .51-.063.728-.188.219-.125.39-.301.512-.528.123-.227.184-.487.184-.78 0-.293-.061-.553-.184-.78a1.292 1.292 0 0 0-.512-.524 1.462 1.462 0 0 0-.728-.184c-.272 0-.516.061-.732.184a1.326 1.326 0 0 0-.512.524 1.585 1.585 0 0 0-.188.78c0 .293.063.553.188.78.125.227.296.403.512.528.216.125.46.188.732.188zm5.192-4.728c-.459 0-.688.248-.688.744v.368h1.232v.632H19.52V32h-.768v-3.608h-.72v-.632h.72v-.376c0-.421.123-.755.368-1s.59-.368 1.032-.368c.17 0 .33.021.48.064.15.043.277.104.384.184l-.232.584a.956.956 0 0 0-.592-.2z"/>
    </g>
</svg>
