<svg xmlns="http://www.w3.org/2000/svg" xmlns:xlink="http://www.w3.org/1999/xlink" width="240" height="550" viewBox="0 0 240 550">
    <defs>
        <path id="eyu6k5p4ga" d="M0 0H240V550H0z"/>
        <path id="r9yf97l5js" d="M12.898.017c-.329-.002-.518.026-.802.058-.748.075-1.35.224-1.724.415-.222.094-.51.195-.706.64-.116.27.072.447.15.743.072.324.486.645.871 1.024.176.18.52.518.925.876.282.235.701.486 1.07.816.394.362 1.048 1.101 1.302 1.332.512.453.889.725.891 1.23-.001.368-.351.51-.966.827-.259.126-1.6.067-2.316.282-.205.06-.456.026-.706.013-1.138-.01-1.944-.127-3.02-.32-.785-.138-1.71-.326-2.193-.55-.07-.025-.568-.162-1.059-.39-.678-.31-2.034-1.29-2.296-1.524-.127-.115-.492-.33-.758-.577-.365-.317-.578-.527-.716-.822-.012-.038-.171-.394-.183-.678-.01-.323.032-.67.436-.92.194-.137.35-.264.708-.34L2 2.052c.004-.007.082-.06.083-.101-.004-.054-.079-.09-.11-.107-.068-.013-.153.016-.178.024-.267.1-.502.157-.717.255-.239.105-.473.202-.63.33-.197.166-.342.37-.425.657-.147.511.466 1.395.482 1.526.04.123.343.583.81 1.064.29.28 1.233 1.144 1.457 1.35.181.173.624.437 1.198.706.484.223 1.063.566 1.645.777.32.12.982.34 1.458.477.969.283 1.881.516 3.007.61 1.031.1 2.244.084 3.198-.031.144-.02.367-.093.494-.101.06-.004.108-.003.15-.003.088 0 .156.001.27-.032.56-.129.81-.3 1.136-.516.3-.186.538-.796.453-1.199-.088-.475-.222-.922-.492-1.263-.397-.478-.388-.678-.825-1.114-.324-.317-.484-.592-.84-.925-.598-.548-.982-1.049-1.125-1.213-.29-.321-1.057-.963-1.203-1.365-.066-.177-.154-.591-.006-.784.145-.204.38-.424 1.056-.557.208-.035.52-.027.831-.02.28.008.557.015.76-.01.419-.035 1.26.379 1.715.413.876.184 2 .709 2.14.881.142.186.302.297.29.32-.05.12.018.513.326.699.23.136.706.09.863.127.184.041.465-.064.567-.105.317-.056.272-.13.417-.293.124-.122.063-.308.014-.455-.036-.151-.057-.275-.147-.36-.299-.285-.787-.48-1.198-.665-.427-.195-1.066-.394-1.81-.594-.382-.1-.656-.187-.96-.237C15.8.144 15.401.097 14.76.06 14.307.033 13.835 0 13.394 0c-.172 0-.338.005-.496.017zm10.054 5.882c-.306.114-.615.318-.813.607-.054.066-.12.156-.174.262-.046.09.044.32.188.402.176.1.595.167.69.163.415-.027.731-.104 1-.206.078-.031.18-.072.382-.186.088-.05.4-.302.409-.46.001-.226-.228-.465-.457-.601-.124-.082-.28-.12-.382-.141h-.004c-.186 0-.505.043-.84.16zm-2.675 1.804c-.186.02-.672.125-.75.157-.153.057-.625.22-.73.383-.132.2-.617.448-.79.525-.269.122-.858.553-1.192.806-.417.314-.838.881-.909 1.123-.046.151-.1.36-.072.508.04.184.187.279.232.374.152.25.493.33.596.33.069.005.365-.01.493-.018.345-.011.83-.157 1.592-.257.374-.047 1.147-.109 1.563-.177.428-.078.698-.068.99-.058.117.004.237.008.375.006.065-.004.175.012.293.028l.041.005c.193-.08.394-.154.598-.224-.002-.027-.018-.07-.064-.1-.107-.055-.27-.096-.324-.092-.131.016-.452.019-.806.026-.35-.002-.7.017-.958.04-.287.02-.563.035-.81.034-.432-.002-.801-.024-1.068-.045-.234-.026-.7-.147-.879-.237-.065-.034-.083-.083-.073-.18-.004-.136.178-.353.47-.585.297-.24.693-.493 1.089-.684.16-.073.424-.207.692-.33.213-.097.424-.186.572-.234.243-.073.506-.125.626-.24.152-.159.064-.593-.281-.705-.106-.035-.226-.181-.458-.181-.02 0-.039 0-.058.002zm5.393 2.942c-.405.01-.817.05-1.208.11-.403.064-.806.148-1.214.262-.216.06-.431.126-.64.197 0 .01-.001.018-.003.022-.005.029.003.198-.124.225-.091.016-.144 0-.186 0-.084 0-.187-.01-.286-.023-.1.042-.2.085-.297.13-.329.142-.621.271-.872.402-.38.2-.668.403-.83.66-.086.131-.166.573-.08.81.104.219.634.618.9.64.202.009.445-.105 1.025-.172.449-.051 1.033-.21 1.592-.297.28-.044.588-.063.872-.074.399-.015.773-.022 1.077-.013.255.006.424.06.525.183.033.037-.033.168-.24.434-.144.183-.326.338-.511.48-.133.099-.24.168-.647.485-.895.649-1.353.88-2.148 1.27-.56.252-1.433.716-2.034.926-.564.178-1.556.428-1.794.452-.21.007-.91.23-1.88.173-.46-.027-.99-.12-1.553-.33-.755-.298-1.25-.64-1.66-1.052-.282-.276-.496-.588-.646-.9-.171-.374-.24-.747-.193-1.063.047-.396.515-1.075 1.248-1.588.4-.24.478-.211.766-.292.132-.036.259-.105.342-.146.16-.073.165-.122 0-.123-.18.012-.345-.01-.56.047-.25.048-.197.024-.58.17-.543.198-1.153.528-1.289.695-.182.216-.426.617-.51 1.128-.09.5-.037.988.121 1.448.158.46.432.895.796 1.294.57.645 1.246 1.12 1.795 1.335 1.301.501 1.791.592 2.658.547.468-.01.942-.07 1.361-.105.666-.055 1.448-.216 1.654-.297.659-.242 1.339-.609 2.133-.937.548-.227 1.116-.516 1.484-.752l1.178-.761c.688-.403 1.27-.941 1.588-1.162.362-.248.787-.763 1.105-.9.28-.127.564-.2.722-.326.205-.183.14-.462.1-.667-.032-.14-.205-.165-.307-.268-.155-.14-.3-.182-.431-.165-.016-.008-.037-.008-.05-.004-.155-.017-.401.002-.678.038l-.115.024-1.045.11c-.4.036-.822.08-1.23.11-.644.054-1.25.09-1.644.116-.732.042-.888.025-1.04-.02-.074-.021-.142-.018-.192-.016-.077.004-.114.01-.07-.075.057-.115.17-.234.363-.351.259-.167.663-.355 1.227-.532.222-.073.465-.146.737-.215.39-.1 1.044-.192 1.603-.239.314-.028.604-.034.794-.021.366.03.378.17.423.326.028.065-.01.118.047.23.074.139.272.176.304.213.074.099.502-.014.749-.075.168-.048.247-.265.288-.265.103-.02.137-.105.1-.216-.032-.119-.04-.226-.056-.296-.098-.357-.517-.526-.758-.659-.18-.09-.419-.17-.694-.215-.325-.057-.696-.085-1.083-.085-.099 0-.198.002-.299.005zm5.844 3.096c-.227.102-.372.265-.582.375-.016.012-.515.304-.717.44-.354.21-1.06.585-1.277.69-.392.183-.799.48-.923.583-.223.196-.536.366-.718.664-.14.217-.056.64.127.845.164.185.427.174.62.137.15-.027.516-.181.771-.3.247-.121.226-.1.622-.312.21-.11.947-.365 1.252-.438.32-.084.748-.238 1.148-.314.49-.092.65-.105 1.114-.168.112-.016.597-.08.757-.03.189.055.234.21.139.377-.038.074-.03.079-.216.324-.269.326-.69.813-.88 1.107-.194.26-.385.576-.488.739-.323.555-.326 1.191.13 1.389.415.179.51.175 1.055.111.58-.067 1.396-.19 2.148-.314l1.514-.224c.354-.027.464-.002.719-.038.099.009.182-.216.17-.254-.065-.094-.46-.17-.563-.15-.378.139-.946.162-1.958.309-.312.047-.867.045-1.381-.019-.243-.03-.381-.14-.397-.312-.012-.14.046-.316.175-.57.045-.09.26-.29.384-.473.12-.176.285-.318.562-.621.367-.38.796-.759 1.044-.88.123-.061.304-.216.433-.408.086-.11.07-.242.03-.365-.09-.27-.298-.467-.504-.51-.143-.021-.5-.088-.731-.04-.156.045-.433.08-.65.124-.25.05-.593.133-.869.19-.526.104-.946.18-1.538.272-.165.02-1.296.24-1.407.195-.032-.016-.078-.05-.057-.09.062-.144.384-.372.438-.396.255-.118.559-.231.856-.35.087-.027.407-.05.485-.083.206-.082.301-.208.405-.29.073-.064.145-.204.173-.322.014-.106-.118-.296-.228-.382-.189-.137-.386-.194-.665-.253-.068-.014-.151-.029-.24-.029-.092 0-.19.016-.282.064z"/>
        <path id="jp6vfu4tpu" d="M12.898.017c-.329-.002-.518.026-.802.058-.748.075-1.35.224-1.724.415-.222.094-.51.195-.706.64-.116.27.072.447.15.743.072.324.486.645.871 1.024.176.18.52.518.925.876.282.235.701.486 1.07.816.394.362 1.048 1.101 1.302 1.332.512.453.889.725.891 1.23-.001.368-.351.51-.966.827-.259.126-1.6.067-2.316.282-.205.06-.456.026-.706.013-1.138-.01-1.944-.127-3.02-.32-.785-.138-1.71-.326-2.193-.55-.07-.025-.568-.162-1.059-.39-.678-.31-2.034-1.29-2.296-1.524-.127-.115-.492-.33-.758-.577-.365-.317-.578-.527-.716-.822-.012-.038-.171-.394-.183-.678-.01-.323.032-.67.436-.92.194-.137.35-.264.708-.34L2 2.052c.004-.007.082-.06.083-.101-.004-.054-.079-.09-.11-.107-.068-.013-.153.016-.178.024-.267.1-.502.157-.717.255-.239.105-.473.202-.63.33-.197.166-.342.37-.425.657-.147.511.466 1.395.482 1.526.04.123.343.583.81 1.064.29.28 1.233 1.144 1.457 1.35.181.173.624.437 1.198.706.484.223 1.063.566 1.645.777.32.12.982.34 1.458.477.969.283 1.881.516 3.007.61 1.031.1 2.244.084 3.198-.031.144-.02.367-.093.494-.101.06-.004.108-.003.15-.003.088 0 .156.001.27-.032.56-.129.81-.3 1.136-.516.3-.186.538-.796.453-1.199-.088-.475-.222-.922-.492-1.263-.397-.478-.388-.678-.825-1.114-.324-.317-.484-.592-.84-.925-.598-.548-.982-1.049-1.125-1.213-.29-.321-1.057-.963-1.203-1.365-.066-.177-.154-.591-.006-.784.145-.204.38-.424 1.056-.557.208-.035.52-.027.831-.02.28.008.557.015.76-.01.419-.035 1.26.379 1.715.413.876.184 2 .709 2.14.881.142.186.302.297.29.32-.05.12.018.513.326.699.23.136.706.09.863.127.184.041.465-.064.567-.105.317-.056.272-.13.417-.293.124-.122.063-.308.014-.455-.036-.151-.057-.275-.147-.36-.299-.285-.787-.48-1.198-.665-.427-.195-1.066-.394-1.81-.594-.382-.1-.656-.187-.96-.237C15.8.144 15.401.097 14.76.06 14.307.033 13.835 0 13.394 0c-.172 0-.338.005-.496.017zm10.054 5.882c-.306.114-.615.318-.813.607-.054.066-.12.156-.174.262-.046.09.044.32.188.402.176.1.595.167.69.163.415-.027.731-.104 1-.206.078-.031.18-.072.382-.186.088-.05.4-.302.409-.46.001-.226-.228-.465-.457-.601-.124-.082-.28-.12-.382-.141h-.004c-.186 0-.505.043-.84.16zm-2.675 1.804c-.186.02-.672.125-.75.157-.153.057-.625.22-.73.383-.132.2-.617.448-.79.525-.269.122-.858.553-1.192.806-.417.314-.838.881-.909 1.123-.046.151-.1.36-.072.508.04.184.187.279.232.374.152.25.493.33.596.33.069.005.365-.01.493-.018.345-.011.83-.157 1.592-.257.374-.047 1.147-.109 1.563-.177.428-.078.698-.068.99-.058.117.004.237.008.375.006.065-.004.175.012.293.028l.041.005c.193-.08.394-.154.598-.224-.002-.027-.018-.07-.064-.1-.107-.055-.27-.096-.324-.092-.131.016-.452.019-.806.026-.35-.002-.7.017-.958.04-.287.02-.563.035-.81.034-.432-.002-.801-.024-1.068-.045-.234-.026-.7-.147-.879-.237-.065-.034-.083-.083-.073-.18-.004-.136.178-.353.47-.585.297-.24.693-.493 1.089-.684.16-.073.424-.207.692-.33.213-.097.424-.186.572-.234.243-.073.506-.125.626-.24.152-.159.064-.593-.281-.705-.106-.035-.226-.181-.458-.181-.02 0-.039 0-.058.002zm5.393 2.942c-.405.01-.817.05-1.208.11-.403.064-.806.148-1.214.262-.216.06-.431.126-.64.197 0 .01-.001.018-.003.022-.005.029.003.198-.124.225-.091.016-.144 0-.186 0-.084 0-.187-.01-.286-.023-.1.042-.2.085-.297.13-.329.142-.621.271-.872.402-.38.2-.668.403-.83.66-.086.131-.166.573-.08.81.104.219.634.618.9.64.202.009.445-.105 1.025-.172.449-.051 1.033-.21 1.592-.297.28-.044.588-.063.872-.074.399-.015.773-.022 1.077-.013.255.006.424.06.525.183.033.037-.033.168-.24.434-.144.183-.326.338-.511.48-.133.099-.24.168-.647.485-.895.649-1.353.88-2.148 1.27-.56.252-1.433.716-2.034.926-.564.178-1.556.428-1.794.452-.21.007-.91.23-1.88.173-.46-.027-.99-.12-1.553-.33-.755-.298-1.25-.64-1.66-1.052-.282-.276-.496-.588-.646-.9-.171-.374-.24-.747-.193-1.063.047-.396.515-1.075 1.248-1.588.4-.24.478-.211.766-.292.132-.036.259-.105.342-.146.16-.073.165-.122 0-.123-.18.012-.345-.01-.56.047-.25.048-.197.024-.58.17-.543.198-1.153.528-1.289.695-.182.216-.426.617-.51 1.128-.09.5-.037.988.121 1.448.158.46.432.895.796 1.294.57.645 1.246 1.12 1.795 1.335 1.301.501 1.791.592 2.658.547.468-.01.942-.07 1.361-.105.666-.055 1.448-.216 1.654-.297.659-.242 1.339-.609 2.133-.937.548-.227 1.116-.516 1.484-.752l1.178-.761c.688-.403 1.27-.941 1.588-1.162.362-.248.787-.763 1.105-.9.28-.127.564-.2.722-.326.205-.183.14-.462.1-.667-.032-.14-.205-.165-.307-.268-.155-.14-.3-.182-.431-.165-.016-.008-.037-.008-.05-.004-.155-.017-.401.002-.678.038l-.115.024-1.045.11c-.4.036-.822.08-1.23.11-.644.054-1.25.09-1.644.116-.732.042-.888.025-1.04-.02-.074-.021-.142-.018-.192-.016-.077.004-.114.01-.07-.075.057-.115.17-.234.363-.351.259-.167.663-.355 1.227-.532.222-.073.465-.146.737-.215.39-.1 1.044-.192 1.603-.239.314-.028.604-.034.794-.021.366.03.378.17.423.326.028.065-.01.118.047.23.074.139.272.176.304.213.074.099.502-.014.749-.075.168-.048.247-.265.288-.265.103-.02.137-.105.1-.216-.032-.119-.04-.226-.056-.296-.098-.357-.517-.526-.758-.659-.18-.09-.419-.17-.694-.215-.325-.057-.696-.085-1.083-.085-.099 0-.198.002-.299.005zm5.844 3.096c-.227.102-.372.265-.582.375-.016.012-.515.304-.717.44-.354.21-1.06.585-1.277.69-.392.183-.799.48-.923.583-.223.196-.536.366-.718.664-.14.217-.056.64.127.845.164.185.427.174.62.137.15-.027.516-.181.771-.3.247-.121.226-.1.622-.312.21-.11.947-.365 1.252-.438.32-.084.748-.238 1.148-.314.49-.092.65-.105 1.114-.168.112-.016.597-.08.757-.03.189.055.234.21.139.377-.038.074-.03.079-.216.324-.269.326-.69.813-.88 1.107-.194.26-.385.576-.488.739-.323.555-.326 1.191.13 1.389.415.179.51.175 1.055.111.58-.067 1.396-.19 2.148-.314l1.514-.224c.354-.027.464-.002.719-.038.099.009.182-.216.17-.254-.065-.094-.46-.17-.563-.15-.378.139-.946.162-1.958.309-.312.047-.867.045-1.381-.019-.243-.03-.381-.14-.397-.312-.012-.14.046-.316.175-.57.045-.09.26-.29.384-.473.12-.176.285-.318.562-.621.367-.38.796-.759 1.044-.88.123-.061.304-.216.433-.408.086-.11.07-.242.03-.365-.09-.27-.298-.467-.504-.51-.143-.021-.5-.088-.731-.04-.156.045-.433.08-.65.124-.25.05-.593.133-.869.19-.526.104-.946.18-1.538.272-.165.02-1.296.24-1.407.195-.032-.016-.078-.05-.057-.09.062-.144.384-.372.438-.396.255-.118.559-.231.856-.35.087-.027.407-.05.485-.083.206-.082.301-.208.405-.29.073-.064.145-.204.173-.322.014-.106-.118-.296-.228-.382-.189-.137-.386-.194-.665-.253-.068-.014-.151-.029-.24-.029-.092 0-.19.016-.282.064z"/>
        <path id="8euk7jj5ow" d="M0 .454c2.77-.295 5.801.028 8.824.626 3.035.621 6.095 1.618 9.095 2.864l2.238.993c.376.156.739.354 1.103.543l1.097.563c1.486.706 2.88 1.597 4.32 2.41.73.393 1.393.886 2.095 1.324l2.088 1.348c1.355.945 2.68 1.929 4.055 2.875l.085-.07c-1.255-1.056-2.541-2.096-3.831-3.135l-2.043-1.458L28.1 8.61c-.338-.248-.696-.472-1.056-.692-1.435-.884-2.855-1.806-4.37-2.564l-1.122-.594c-.375-.195-.747-.399-1.134-.562L18.11 3.163c-.382-.185-.777-.316-1.167-.463l-1.174-.434c-.392-.14-.78-.302-1.173-.422l-1.182-.354-1.181-.346c-.392-.11-.786-.185-1.179-.278L9.88.599C9.486.504 9.1.468 8.712.4 7.145.146 5.588 0 4.101 0 2.65 0 1.265.14 0 .454z"/>
        <path id="8xhzw8khcy" d="M0 .454c2.77-.295 5.801.028 8.824.626 3.035.621 6.095 1.618 9.095 2.864l2.238.993c.376.156.739.354 1.103.543l1.097.563c1.486.706 2.88 1.597 4.32 2.41.73.393 1.393.886 2.095 1.324l2.088 1.348c1.355.945 2.68 1.929 4.055 2.875l.085-.07c-1.255-1.056-2.541-2.096-3.831-3.135l-2.043-1.458L28.1 8.61c-.338-.248-.696-.472-1.056-.692-.451-.277-.9-.559-1.353-.838l-.136-.085c-.94-.58-1.89-1.145-2.881-1.641l-1.122-.594c-.375-.195-.747-.399-1.134-.562L18.11 3.163c-.382-.185-.777-.316-1.167-.463l-1.174-.434c-.392-.14-.78-.302-1.173-.422l-1.182-.354-1.181-.346c-.392-.11-.786-.185-1.179-.278L9.88.599C9.486.504 9.1.468 8.712.4 7.145.146 5.588 0 4.1 0 2.65 0 1.265.14 0 .454z"/>
        <path id="e51s5xv5yA" d="M0 .454c2.77-.295 5.801.028 8.824.626 3.035.621 6.095 1.618 9.095 2.864l2.238.993c.376.156.739.354 1.103.543l1.097.563c1.486.706 2.88 1.597 4.32 2.41.73.393 1.393.886 2.095 1.324l2.088 1.348c1.355.945 2.68 1.929 4.055 2.875l.085-.07c-1.255-1.056-2.541-2.096-3.831-3.135l-2.043-1.458L28.1 8.61c-.338-.248-.696-.472-1.056-.692-.451-.277-.9-.559-1.353-.838l-.136-.085c-.94-.58-1.89-1.145-2.881-1.641l-1.122-.594c-.375-.195-.747-.399-1.134-.562L18.11 3.163c-.382-.185-.777-.316-1.167-.463l-1.174-.434c-.392-.14-.78-.302-1.173-.422l-1.182-.354-1.181-.346c-.392-.11-.786-.185-1.179-.278L9.88.599C9.486.504 9.1.468 8.712.4 7.145.146 5.588 0 4.1 0 2.65 0 1.265.14 0 .454z"/>
        <path id="eso5jzewzC" d="M8.824 1.08c3.035.621 6.095 1.618 9.095 2.864l2.238.993c.376.156.739.354 1.103.543l1.097.563c1.486.706 2.88 1.597 4.32 2.41.73.393 1.393.886 2.095 1.324l2.088 1.348c1.355.945 2.68 1.929 4.055 2.875l.085-.07c-1.255-1.056-2.541-2.096-3.831-3.135l-2.043-1.458L28.1 8.61c-.338-.248-.696-.472-1.056-.692-1.435-.884-2.855-1.806-4.37-2.564l-1.122-.594c-.375-.195-.747-.399-1.134-.562L18.11 3.163c-.382-.185-.777-.316-1.167-.463l-1.174-.434c-.392-.14-.78-.302-1.173-.422l-1.182-.354-1.181-.346c-.392-.11-.786-.185-1.179-.278L9.88.599C9.486.504 9.1.468 8.712.4 7.145.146 5.588 0 4.101 0 2.65 0 1.265.14 0 .454c2.77-.295 5.801.028 8.824.626z"/>
        <path id="2hupjn3ynE" d="M24.354.667L1.805 22.097c-.78.74-.687 1.792.203 2.351l6.448 4.048L0 36.532l21.352.06 16.12 10.12c.891.559 2.243.413 3.022-.327l22.549-21.43c.78-.74.687-1.793-.203-2.352L27.375.34C27.01.11 26.568 0 26.12 0c-.647 0-1.306.23-1.766.667z"/>
        <path id="f8gdalklhF" d="M14.132.38L.263 15.278c-.382.41-.343.984.084 1.284l17.254 11.943c.432.282 1.079.19 1.456-.217l6.935-7.45 6.935-7.45c.384-.411.341-.987-.09-1.286L15.608.177C15.437.058 15.229 0 15.016 0c-.322 0-.653.132-.884.38zm.872 1.828L30.668 13.05l-8.323 8.94-.448-6.436-9.553 1.962-1.141-5.689-5.906.81 9.707-10.429z"/>
        <path id="wu22mozpdH" d="M14.132.38L.263 15.278c-.384.412-.342.989.09 1.287L17.58 28.491c.432.3 1.094.21 1.477-.203l13.87-14.9c.384-.411.341-.987-.091-1.286L15.608.177C15.437.058 15.228 0 15.016 0c-.322 0-.653.132-.884.38zm.872 1.828L30.667 13.05l-8.322 8.94-.448-6.436-9.553 1.962-1.142-5.689-5.906.81 9.708-10.429z"/>
        <path id="d5yiph02lJ" d="M.62.62c-.903.671-.808 1.611.21 2.1 1.02.488 2.577.34 3.48-.332.902-.672.81-1.611-.211-2.1C3.693.093 3.203 0 2.703 0 1.945 0 1.163.214.62.62z"/>
        <path id="b45qkc50dL" d="M.634.7c-.924.76-.827 1.823.215 2.376 1.043.552 2.636.384 3.56-.375.923-.76.828-1.823-.216-2.375C3.778.106 3.277 0 2.765 0 1.99 0 1.19.243.635.7z"/>
        <path id="s28oy4692N" d="M10.097 4.929l1.818 1.167 1.694-.854c.845-.427 1.946-.376 2.727.126l3.235 2.075L7.502 19.23c-.674.659-1.83.868-2.802.509l-2.716-1.004-1.468 1.434 10.908 6.998 1.468-1.434-1.802-1.895c-.646-.679-.626-1.617.048-2.275l12.07-11.787 3.236 2.075c.781.502 1.072 1.343.721 2.087l-.706 1.488 1.819 1.166 4.404-4.302L14.502.627l-4.405 4.302z"/>
        <path id="dmjn5kghkP" d="M10.097 4.929l1.818 1.167 1.694-.854c.845-.427 1.946-.376 2.727.126l3.235 2.075L7.502 19.23c-.674.659-1.83.868-2.802.509l-2.716-1.004-1.468 1.434 5.128 3.29 5.78 3.708 1.468-1.434-1.802-1.895c-.646-.679-.626-1.617.048-2.275l12.07-11.787 3.236 2.075c.781.502 1.072 1.343.721 2.087l-.706 1.488 1.819 1.166 4.404-4.302-15.486-9.935L14.502.627l-4.405 4.302z"/>
        <path id="1l0tx0hhsR" d="M10.097 4.929l1.818 1.167 1.694-.854c.845-.427 1.946-.376 2.727.126l3.235 2.075L7.502 19.23c-.674.659-1.83.868-2.802.509l-2.716-1.004-1.468 1.434 5.129 3.289 5.779 3.709 1.468-1.434-1.802-1.895c-.646-.679-.626-1.617.048-2.275l12.07-11.787 3.236 2.075c.781.502 1.072 1.343.721 2.087l-.706 1.488 1.819 1.166 4.404-4.302-15.487-9.935L14.502.627l-4.405 4.302z"/>
        <path id="73zhsqnfiT" d="M14.502.627l-4.405 4.302 1.818 1.167 1.694-.854c.845-.427 1.946-.376 2.727.126l3.235 2.075L7.502 19.23c-.674.659-1.83.868-2.802.509l-2.716-1.004-1.468 1.433 10.909 6.998 1.467-1.433-1.802-1.895c-.646-.679-.626-1.617.048-2.275l12.07-11.787 3.236 2.075c.781.502 1.072 1.343.721 2.087l-.706 1.488 1.819 1.166 4.404-4.302-15.487-9.935L14.502.627z"/>
        <linearGradient id="lpilj5rm2e" x1="46.247%" x2="58.819%" y1="16.652%" y2="115.978%">
            <stop offset="0%" stop-color="#84F0A8"/>
            <stop offset="100%" stop-color="#48B676"/>
        </linearGradient>
        <linearGradient id="w7al742yyf" x1="42.643%" x2="67.286%" y1="45.637%" y2="58.632%">
            <stop offset="0%" stop-color="#84F0A8"/>
            <stop offset="100%" stop-color="#48B676"/>
        </linearGradient>
        <linearGradient id="3zppy5hgpg" x1="50%" x2="50%" y1="-10.877%" y2="100%">
            <stop offset="0%" stop-color="#FFE579"/>
            <stop offset="100%" stop-color="#FEB755"/>
        </linearGradient>
        <linearGradient id="39rcx4ye4h" x1="50%" x2="50%" y1="-10.877%" y2="100%">
            <stop offset="0%" stop-color="#FFE579"/>
            <stop offset="100%" stop-color="#FEB755"/>
        </linearGradient>
        <linearGradient id="zly1uk8bki" x1="123.847%" x2="68.895%" y1="23.383%" y2="86.112%">
            <stop offset="0%" stop-color="#F78D97"/>
            <stop offset="0%" stop-color="#F78D97"/>
            <stop offset="100%" stop-color="#EC545E"/>
        </linearGradient>
        <linearGradient id="odwgic03qj" x1="77.421%" x2="24.993%" y1="35.953%" y2="52.871%">
            <stop offset="0%" stop-color="#FF9D61"/>
            <stop offset="100%" stop-color="#FFD873"/>
        </linearGradient>
        <linearGradient id="w25dzrvk8k" x1="69.348%" x2="32.355%" y1="33.093%" y2="53.456%">
            <stop offset="0%" stop-color="#FF9D61"/>
            <stop offset="100%" stop-color="#FFD873"/>
        </linearGradient>
        <linearGradient id="260hhhytrl" x1="61.024%" x2="19.225%" y1="117.164%" y2="-168.856%">
            <stop offset="0%" stop-color="#CFDDF3"/>
            <stop offset="6%" stop-color="#CCDBF2"/>
            <stop offset="18%" stop-color="#CFDDF3"/>
            <stop offset="100%" stop-color="#A1B8E3"/>
        </linearGradient>
        <linearGradient id="bv5h4hsuim" x1="90.209%" x2="-20.769%" y1="102.307%" y2="-20.585%">
            <stop offset="0%" stop-color="#CFDDF3"/>
            <stop offset="36%" stop-color="#CCDBF2"/>
            <stop offset="100%" stop-color="#A1B8E3"/>
        </linearGradient>
        <linearGradient id="3aoo1znbyn" x1="79.795%" x2="24.758%" y1="10.794%" y2="145.942%">
            <stop offset="0%" stop-color="#CFDDF3"/>
            <stop offset="100%" stop-color="#A1B8E3"/>
        </linearGradient>
        <linearGradient id="k6pagnh4xo" x1="109.017%" x2="0%" y1="34.073%" y2="88.974%">
            <stop offset="0%" stop-color="#CFDDF3"/>
            <stop offset="100%" stop-color="#A1B8E3"/>
        </linearGradient>
        <linearGradient id="b7t6892dwp" x1="64.174%" x2="40.821%" y1="31.327%" y2="54.731%">
            <stop offset="0%" stop-color="#FF9D61"/>
            <stop offset="100%" stop-color="#FFD873"/>
        </linearGradient>
        <linearGradient id="9jqjr4s2jq" x1="50%" x2="-19.004%" y1="50%" y2="137.211%">
            <stop offset="0%" stop-color="#FF9D61"/>
            <stop offset="100%" stop-color="#FFD873"/>
        </linearGradient>
        <linearGradient id="06v78x5bnr" x1="58.055%" x2="58.055%" y1="0%" y2="93.576%">
            <stop offset="0%" stop-color="#CFDDF3" stop-opacity="0"/>
            <stop offset="99.821%" stop-color="#A1B8E3" stop-opacity=".998"/>
            <stop offset="100%" stop-color="#A1B8E3"/>
        </linearGradient>
        <ellipse id="6fd2c3vdac" cx="280.5" cy="218.5" rx="280.5" ry="218.5"/>
    </defs>
    <g fill="none" fill-rule="evenodd">
        <g>
            <mask id="zh3012gdob" fill="#fff">
                <use xlink:href="#eyu6k5p4ga"/>
            </mask>
            <use fill="#E2E9F1" fill-rule="nonzero" xlink:href="#eyu6k5p4ga"/>
            <g mask="url(#zh3012gdob)">
                <g transform="translate(-161.000000, -79.000000)">
                    <mask id="drnqnnkpkd" fill="#fff">
                        <use xlink:href="#6fd2c3vdac"/>
                    </mask>
                    <path fill="#FFF" d="M428.17 137.939c0 21.64-5.5 41.99-15.181 59.74-15.549 28.54-41.899 50.33-73.549 59.91-3.631 1.105-7.33 2.045-11.088 2.81-5.403 1.104-10.626-2.987-10.682-8.5v-.12c0-3.802 1.815-7.182 4.631-9.314 1.862-1.41 3.647-2.925 5.154-4.712 5.181-6.144 10.174-12.397 10.545-16.394.75-8.083-1.667-12.917-11.75-17.75-9.297-4.456-25.641-1.86-32.63.08h-.011c-2.989.33-6.029.5-9.109.5-.841 0-1.679-.013-2.514-.038-39.918-1.193-71.292-34.397-71.969-74.327-.012-.654-.017-1.31-.017-1.965 0-28.19 10.279-53.99 27.29-73.83.57-.665 1.149-1.324 1.734-1.976C278.885 7.683 347.86 6.845 390.523 48.53c23.227 22.697 37.647 54.37 37.647 89.409" mask="url(#drnqnnkpkd)" opacity=".555"/>
                    <g mask="url(#drnqnnkpkd)">
                        <g transform="translate(199.000000, 211.000000)">
                            <path fill="#F0C9CF" fill-rule="nonzero" d="M73 51.838L64.814 83.21c-.626 2.396-2.183 4.431-4.313 5.637-2.13 1.206-4.65 1.48-6.982.757L48 87.894 64.667 48 73 51.838z"/>
                            <path fill="#D683A7" fill-rule="nonzero" d="M69 43.167c-.688-.901-6.185 2.124-7.468 2.414-1.284.29-.14 3.734 2.319 3.396 2.459-.338 3.178-2.994 3.178-2.994L69 43.167z"/>
                            <path fill="#2A3551" fill-rule="nonzero" d="M65.14 37.051L65 58l2-.482v-20.46c-.001-.453-.257-.855-.633-.994-.28-.118-.594-.07-.838.126-.244.197-.39.518-.389.861z"/>
                            <path fill="#F0C9CF" fill-rule="nonzero" d="M67.608 43.463s-6.724 6.356-5.447 8.196c1.278 1.84 5.492-1.51 6.24-2.542-.098 2.107 2.779 4.108 4.482 3.862 2.608-.379 3.654-2.872 2.854-4.003-.8-1.13-5.663-3.764-5.663-3.764s-1.18-3.428-2.466-1.75z"/>
                            <path fill="url(#lpilj5rm2e)" fill-rule="nonzero" d="M85 229.048L67.058 233 39.653 140.643 17.785 231.415 0 228.777 11.419 132.281 13.18 117.419 39.78 115.375 57.647 114 57.975 115.375 58.162 116.171z"/>
                            <path fill="url(#w7al742yyf)" fill-rule="nonzero" d="M58 116.801L11 133 12.771 118.055 39.517 116 57.812 116z"/>
                            <path fill="url(#3zppy5hgpg)" d="M59.089 113.263c.158 1.159-.66 2.227-1.834 2.393l-43.517 6.32c-.704.1-1.417-.113-1.945-.583-.53-.47-.819-1.147-.791-1.848l1.25-33.655.917-24.576 6.647-14.322L21.196 44h15.263l1.667.217c.417.052.826.12 1.235.194 6.605 1.254 12.239 5.478 15.234 11.42L64 74.53l-8.966 8.982 4.055 29.752z"/>
                            <path fill="url(#39rcx4ye4h)" d="M18.766 57.1c-.267.676-.379 1.407-.326 2.136l1.602 21.762-1.341.813-6.14 3.76-7.692 4.677L3.58 91 1.143 69.327C.078 59.82 5.032 50.681 13.416 46.685l5.19-2.482L21.13 43l1.805.504 1.066.3-2.066 5.265-3.168 8.031z"/>
                            <circle fill="#FFF" fill-rule="nonzero" opacity=".25" style="mix-blend-mode:overlay" cx="12.5" cy="113.5" r="1.5"/>
                            <circle fill="#FFF" fill-rule="nonzero" opacity=".25" style="mix-blend-mode:overlay" cx="21.5" cy="113.5" r="1.5"/>
                            <circle fill="#FFF" fill-rule="nonzero" opacity=".25" style="mix-blend-mode:overlay" cx="31.5" cy="113.5" r="1.5"/>
                            <circle fill="#FFF" fill-rule="nonzero" opacity=".25" style="mix-blend-mode:overlay" cx="40.5" cy="113.5" r="1.5"/>
                            <circle fill="#FFF" fill-rule="nonzero" opacity=".25" style="mix-blend-mode:overlay" cx="49.5" cy="113.5" r="1.5"/>
                            <circle fill="#FFF" fill-rule="nonzero" opacity=".25" style="mix-blend-mode:overlay" cx="21.5" cy="104.5" r="1.5"/>
                            <circle fill="#FFF" fill-rule="nonzero" opacity=".25" style="mix-blend-mode:overlay" cx="31.5" cy="104.5" r="1.5"/>
                            <circle fill="#FFF" fill-rule="nonzero" opacity=".25" style="mix-blend-mode:overlay" cx="40.5" cy="104.5" r="1.5"/>
                            <circle fill="#FFF" fill-rule="nonzero" opacity=".25" style="mix-blend-mode:overlay" cx="49.5" cy="104.5" r="1.5"/>
                            <circle fill="#FFF" fill-rule="nonzero" opacity=".25" style="mix-blend-mode:overlay" cx="12.5" cy="95.5" r="1.5"/>
                            <circle fill="#FFF" fill-rule="nonzero" opacity=".25" style="mix-blend-mode:overlay" cx="21.5" cy="95.5" r="1.5"/>
                            <circle fill="#FFF" fill-rule="nonzero" opacity=".25" style="mix-blend-mode:overlay" cx="31.5" cy="95.5" r="1.5"/>
                            <circle fill="#FFF" fill-rule="nonzero" opacity=".25" style="mix-blend-mode:overlay" cx="40.5" cy="95.5" r="1.5"/>
                            <circle fill="#FFF" fill-rule="nonzero" opacity=".25" style="mix-blend-mode:overlay" cx="49.5" cy="95.5" r="1.5"/>
                            <circle fill="#FFF" fill-rule="nonzero" opacity=".25" style="mix-blend-mode:overlay" cx="12.5" cy="87.5" r="1.5"/>
                            <circle fill="#FFF" fill-rule="nonzero" opacity=".25" style="mix-blend-mode:overlay" cx="21.5" cy="87.5" r="1.5"/>
                            <circle fill="#FFF" fill-rule="nonzero" opacity=".25" style="mix-blend-mode:overlay" cx="31.5" cy="87.5" r="1.5"/>
                            <circle fill="#FFF" fill-rule="nonzero" opacity=".25" style="mix-blend-mode:overlay" cx="40.5" cy="87.5" r="1.5"/>
                            <circle fill="#FFF" fill-rule="nonzero" opacity=".25" style="mix-blend-mode:overlay" cx="49.5" cy="87.5" r="1.5"/>
                            <circle fill="#FFF" fill-rule="nonzero" opacity=".25" style="mix-blend-mode:overlay" cx="12.5" cy="78.5" r="1.5"/>
                            <circle fill="#FFF" fill-rule="nonzero" opacity=".25" style="mix-blend-mode:overlay" cx="21.5" cy="78.5" r="1.5"/>
                            <circle fill="#FFF" fill-rule="nonzero" opacity=".25" style="mix-blend-mode:overlay" cx="31.5" cy="78.5" r="1.5"/>
                            <circle fill="#FFF" fill-rule="nonzero" opacity=".25" style="mix-blend-mode:overlay" cx="40.5" cy="78.5" r="1.5"/>
                            <circle fill="#FFF" fill-rule="nonzero" opacity=".25" style="mix-blend-mode:overlay" cx="49.5" cy="78.5" r="1.5"/>
                            <circle fill="#FFF" fill-rule="nonzero" opacity=".25" style="mix-blend-mode:overlay" cx="58.5" cy="78.5" r="1.5"/>
                            <circle fill="#FFF" fill-rule="nonzero" opacity=".25" style="mix-blend-mode:overlay" cx="67.5" cy="78.5" r="1.5"/>
                            <circle fill="#FFF" fill-rule="nonzero" opacity=".25" style="mix-blend-mode:overlay" cx="3.5" cy="69.5" r="1.5"/>
                            <circle fill="#FFF" fill-rule="nonzero" opacity=".25" style="mix-blend-mode:overlay" cx="12.5" cy="69.5" r="1.5"/>
                            <circle fill="#FFF" fill-rule="nonzero" opacity=".25" style="mix-blend-mode:overlay" cx="21.5" cy="69.5" r="1.5"/>
                            <circle fill="#FFF" fill-rule="nonzero" opacity=".25" style="mix-blend-mode:overlay" cx="31.5" cy="69.5" r="1.5"/>
                            <circle fill="#FFF" fill-rule="nonzero" opacity=".25" style="mix-blend-mode:overlay" cx="40.5" cy="69.5" r="1.5"/>
                            <circle fill="#FFF" fill-rule="nonzero" opacity=".25" style="mix-blend-mode:overlay" cx="49.5" cy="69.5" r="1.5"/>
                            <circle fill="#FFF" fill-rule="nonzero" opacity=".25" style="mix-blend-mode:overlay" cx="58.5" cy="69.5" r="1.5"/>
                            <circle fill="#FFF" fill-rule="nonzero" opacity=".25" style="mix-blend-mode:overlay" cx="67.5" cy="69.5" r="1.5"/>
                            <circle fill="#FFF" fill-rule="nonzero" opacity=".25" style="mix-blend-mode:overlay" cx="3.5" cy="61.5" r="1.5"/>
                            <circle fill="#FFF" fill-rule="nonzero" opacity=".25" style="mix-blend-mode:overlay" cx="12.5" cy="61.5" r="1.5"/>
                            <circle fill="#FFF" fill-rule="nonzero" opacity=".25" style="mix-blend-mode:overlay" cx="21.5" cy="61.5" r="1.5"/>
                            <circle fill="#FFF" fill-rule="nonzero" opacity=".25" style="mix-blend-mode:overlay" cx="31.5" cy="61.5" r="1.5"/>
                            <circle fill="#FFF" fill-rule="nonzero" opacity=".25" style="mix-blend-mode:overlay" cx="40.5" cy="61.5" r="1.5"/>
                            <circle fill="#FFF" fill-rule="nonzero" opacity=".25" style="mix-blend-mode:overlay" cx="49.5" cy="61.5" r="1.5"/>
                            <circle fill="#FFF" fill-rule="nonzero" opacity=".25" style="mix-blend-mode:overlay" cx="58.5" cy="61.5" r="1.5"/>
                            <circle fill="#FFF" fill-rule="nonzero" opacity=".25" style="mix-blend-mode:overlay" cx="67.5" cy="61.5" r="1.5"/>
                            <circle fill="#FFF" fill-rule="nonzero" opacity=".25" style="mix-blend-mode:overlay" cx="3.5" cy="52.5" r="1.5"/>
                            <circle fill="#FFF" fill-rule="nonzero" opacity=".25" style="mix-blend-mode:overlay" cx="12.5" cy="52.5" r="1.5"/>
                            <circle fill="#FFF" fill-rule="nonzero" opacity=".25" style="mix-blend-mode:overlay" cx="21.5" cy="52.5" r="1.5"/>
                            <circle fill="#FFF" fill-rule="nonzero" opacity=".25" style="mix-blend-mode:overlay" cx="31.5" cy="52.5" r="1.5"/>
                            <circle fill="#FFF" fill-rule="nonzero" opacity=".25" style="mix-blend-mode:overlay" cx="40.5" cy="52.5" r="1.5"/>
                            <circle fill="#FFF" fill-rule="nonzero" opacity=".25" style="mix-blend-mode:overlay" cx="49.5" cy="52.5" r="1.5"/>
                            <circle fill="#FFF" fill-rule="nonzero" opacity=".25" style="mix-blend-mode:overlay" cx="67.5" cy="52.5" r="1.5"/>
                            <circle fill="#FFF" fill-rule="nonzero" opacity=".25" style="mix-blend-mode:overlay" cx="21.5" cy="43.5" r="1.5"/>
                            <circle fill="#FFF" fill-rule="nonzero" opacity=".25" style="mix-blend-mode:overlay" cx="31.5" cy="43.5" r="1.5"/>
                            <circle fill="#FFF" fill-rule="nonzero" opacity=".25" style="mix-blend-mode:overlay" cx="67.5" cy="43.5" r="1.5"/>
                            <path fill="#2A3551" fill-rule="nonzero" d="M42.803 78.768l9.214-20.049c.354-.77 1.036-1.346 1.863-1.57l37.44-10.136c.631-.17 1.93 1.37 1.638 1.956L79.336 73.923c-.436.876-1.193 1.557-2.118 1.904L42 89l.803-10.232z"/>
                            <path fill="#364380" fill-rule="nonzero" d="M42.822 79.779l9.335-20.042c.358-.77 1.05-1.346 1.889-1.57L92.01 48.034c.296-.09.618.003.816.235.197.233.23.56.082.824l-13.05 25.842c-.442.876-1.21 1.557-2.148 1.904L42 90l.822-10.221z"/>
                            <path fill="#F0C9CF" fill-rule="nonzero" d="M52.409 85.05s.752 1.75-2.973 5.143c-3.725 3.394-9.391 1.198-9.391 1.198l-14.998 11.232c-3.289 2.442-7.613 3.048-11.46 1.607-3.845-1.442-6.677-4.73-7.503-8.715l-.106-.506L5 90.305l7.984-4.63 6.374-3.72.21 1.175.994 5.433 16.315-7.874s3.28-5.21 4.846-7.034c1.565-1.823 3.326-2.143 3.883-.945.557 1.198-2.973 6.088-2.973 6.088s1.31-.104 5.268-1.488c3.958-1.385 6.51-4.138 7.563-3.29 1.053.849.459 3.29-.956 5.21.137 2.143-.622 4.247-2.1 5.82z"/>
                            <path fill="#D683A7" fill-rule="nonzero" d="M20 83.173L6.94 95 6 90.308 13.673 85.69 19.798 82z"/>
                            <path fill="#FFF" fill-rule="nonzero" d="M40 43.826c-.635 3.261-2.66 6.55-8.096 7.085-4.296.43-7.293-.75-9.357-2.36-.88-.687-1.652-1.48-2.293-2.359-.487-.658-.907-1.355-1.254-2.082L21.66 43l1.904.465h13.523l1.682.201c.413.028.826.09 1.231.16z"/>
                            <path fill="#F0C9CF" fill-rule="nonzero" d="M32.373 48.933C25.01 49.75 22 42.82 22 42.82l1.494-.644c.132-3.062.027-6.13-.314-9.175l2.106.534 10.366 2.645c-.956 2.224-.71 5.343-.59 6.337 0 .2.037.318.037.318l1.897.497s.306 5.054-4.623 5.602z"/>
                            <path fill="#D683A7" fill-rule="nonzero" d="M35.398 42.996c-4.259.096-9.592-1.351-11.26-6.725-.207-.466-.18-.999.072-1.443.252-.444.7-.75 1.215-.828L36 36.65c-.975 2.226-.724 5.351-.602 6.346z"/>
                            <path fill="#203966" fill-rule="nonzero" d="M21.169 28.996l-3.808-4.61c-1.982-2.385-1.778-5.852.472-8-.988-2.304-.88-4.917.297-7.136 1.176-2.218 3.298-3.814 5.795-4.358l3.914-.833c.699-.15 1.358-.442 1.935-.855L33.544.52c.912-.65 2.139-.694 3.098-.111 1.244.74 1.69 2.291 1.02 3.554l-1.187 2.134c-.058.111-.034.247.06.333.093.085.233.101.344.038l6.853-4.156c.88-.534 2.024-.378 2.719.372.67.728.734 1.812.152 2.61l-4.698 6.43c-.073.1-.071.234.003.332.075.098.205.138.324.1l1.15-.402c1.177-.404 2.484.048 3.137 1.086.627.993.493 2.274-.327 3.123-2.285 2.334-6.465 7.003-7.029 9.665-.792 3.628-17.994 3.368-17.994 3.368z"/>
                            <path fill="#F0C9CF" fill-rule="nonzero" d="M39.954 22.062c-.182 1.133-.267 2.279-.251 3.426 0 1.053.206 2.796.228 4.698.038 1.368-.077 2.735-.343 4.077C38.925 37.348 37.073 40 32.407 40c-9.568 0-10.536-9.427-10.536-9.427-.016.558-.339 1.062-.84 1.312-.502.25-1.102.206-1.561-.115-1.601-.796-2.15-4.426-.336-5.305 1.067-.508 2.203.182 2.966.834.145.122.35.143.517.055.168-.088.265-.27.245-.457l-.381-4.433c2.607.758 11.961-1.857 15.644-5.464.18 1.057.638 2.047 1.326 2.872.46.632.643 1.423.503 2.19z"/>
                            <path stroke="#C85E8B" stroke-linecap="round" stroke-width=".53" d="M19 28.226c1.153-.657 2.19.174 1.97 1.774M21 88L15 91M54 79c-1.222 2.9-8 4-8 4M53 84c-3.013 3.83-8 2.9-8 2.9"/>
                            <ellipse cx="55.588" cy="62.627" fill="#FFF" fill-rule="nonzero" opacity=".25" style="mix-blend-mode:overlay" rx="2.248" ry="1.707" transform="translate(55.587752, 62.627160) rotate(-36.470000) translate(-55.587752, -62.627160)"/>
                            <ellipse cx="55.588" cy="62.627" fill="#FFF" fill-rule="nonzero" opacity=".25" style="mix-blend-mode:overlay" rx="1.158" ry="1" transform="translate(55.587752, 62.627160) rotate(-36.470000) translate(-55.587752, -62.627160)"/>
                        </g>
                    </g>
                    <path fill="url(#zly1uk8bki)" d="M419.17 127.939c0 21.64-5.5 41.99-15.181 59.74-15.549 28.54-41.899 50.33-73.549 59.91-3.631 1.105-7.33 2.045-11.088 2.81-5.403 1.104-10.626-2.987-10.682-8.5v-.12c0-3.802 1.815-7.182 4.631-9.314 1.862-1.41 3.647-2.925 5.154-4.712 5.181-6.144 10.174-12.397 10.545-16.394.75-8.083-1.667-12.917-11.75-17.75-9.297-4.456-25.641-1.86-32.63.08h-.011c-2.989.33-6.029.5-9.109.5-.841 0-1.679-.013-2.514-.038-39.918-1.193-71.292-34.397-71.969-74.327-.012-.654-.017-1.31-.017-1.965 0-28.19 10.279-53.99 27.29-73.83.57-.665 1.149-1.324 1.734-1.976C269.885-2.317 338.86-3.155 381.523 38.53c23.227 22.697 37.647 54.37 37.647 89.409" mask="url(#drnqnnkpkd)"/>
                    <circle cx="301" cy="104" r="107" fill="#EC545E" mask="url(#drnqnnkpkd)"/>
                    <text font-family="Montserrat-ExtraBold, Montserrat" font-size="80" font-weight="600" letter-spacing=".8" mask="url(#drnqnnkpkd)">
                        <tspan x="238" y="178" fill="#FFF">34</tspan>
                    </text>
                    <text font-family="Montserrat-Bold, Montserrat" font-size="14" font-weight="bold" letter-spacing=".74" mask="url(#drnqnnkpkd)">
                        <tspan x="239" y="111" fill="#FFF">SAVE</tspan>
                    </text>
                    <text font-family="Montserrat-Black, Montserrat" font-size="32" font-weight="700" letter-spacing=".32" mask="url(#drnqnnkpkd)">
                        <tspan x="348" y="178" fill="#FFF">%</tspan>
                    </text>
                    <path fill="url(#odwgic03qj)" d="M181.435 133.024l30 33.125-15.726 10.875-14.274-44zm18.272 7.606l30 9.415-8.964 13.585-21.036-23z" mask="url(#drnqnnkpkd)" transform="translate(205.570796, 155.023636) rotate(99.000000) translate(-205.570796, -155.023636)"/>
                    <path stroke="#FFF" stroke-linecap="round" stroke-linejoin="round" stroke-width="2" d="M411.215 80c0 9.94-8.06 18-18 18-9.943 0-18.002-8.06-18.002-18s8.06-18 18.002-18c9.94 0 18 8.06 18 18z" mask="url(#drnqnnkpkd)"/>
                    <path stroke="#EC545E" stroke-linecap="round" stroke-linejoin="round" stroke-width="2" d="M375.5 255L375.5 264M380 259.5L371 259.5" mask="url(#drnqnnkpkd)"/>
                    <g mask="url(#drnqnnkpkd)">
                        <g>
                            <path fill="url(#w25dzrvk8k)" d="M21 13.585c-4.4 1.339-7.157 6.308-8.362 11.415-4.153-3.166-8.044-6.678-11.633-10.5-.169-.181-.413-.864-.548-1.088-.843-1.15-.27-2.308-.228-2.921C1.325 7.5 1.865 4.822 4.267 2.42 5.133 1.498 6.104.685 7.16 0 9.4.873 11.213 4.727 21 13.585z" transform="translate(323.000000, 283.000000)"/>
                            <path fill="#FF9600" d="M3.994 10.768c-.803.049-1.509.51-1.825 1.192-.317.682-.191 1.47.325 2.04-1.038-.908-1.581-2.195-1.483-3.51C1.074 9.524 1.313 5.016 9 0 2.725 4.468 1.003 7.986 3.994 10.768z" transform="translate(323.000000, 283.000000)"/>
                        </g>
                    </g>
                    <g mask="url(#drnqnnkpkd)" opacity=".403">
                        <g>
                            <path fill="url(#260hhhytrl)" d="M89 189.866V231H71.965c-10.955-15.911-23.942-35.583-35.144-54.95-22.564-38.901-38.14-76.543-16.382-79.803 10.883-1.63 21.098 4.918 30.399 15.933C66.843 131.132 80.054 163.34 89 189.866z" transform="translate(154.111111, 327.500000) scale(-1, 1) translate(-154.111111, -327.500000) translate(109.611111, 212.000000)"/>
                            <path stroke="#FFF" stroke-width=".949" d="M32 115c14.398 27.345 45.92 92.18 57 115" transform="translate(154.111111, 327.500000) scale(-1, 1) translate(-154.111111, -327.500000) translate(109.611111, 212.000000)"/>
                            <path fill="url(#bv5h4hsuim)" d="M80 231H43.125c-21.049-13.627-44.81-32.775-43.03-49.217 1.618-15.035 17.613-16.689 35.912-5.587C51.439 185.54 68.52 203.95 80 231z" transform="translate(154.111111, 327.500000) scale(-1, 1) translate(-154.111111, -327.500000) translate(109.611111, 212.000000)"/>
                            <path stroke="#FFF" stroke-width=".949" d="M15 183c13.792 6.948 39.222 33.169 53 48" transform="translate(154.111111, 327.500000) scale(-1, 1) translate(-154.111111, -327.500000) translate(109.611111, 212.000000)"/>
                        </g>
                    </g>
                    <g mask="url(#drnqnnkpkd)">
                        <g fill-rule="nonzero">
                            <path fill="url(#3aoo1znbyn)" d="M53.524 144.93c7.576-4.661 12.749-12.354 14.183-21.091.949-6.283 0-13.194 3.569-18.49 4.246-6.461 13.054-7.673 20.597-9.378 7.544-1.705 16.217-6.417 16.127-14.136 0-10.232-14.952-14.001-18.43-23.65-1.455-6.172.046-12.667 4.065-17.59 3.964-4.848 7.107-10.305 9.305-16.156 2.034-7.953-1.132-16.323-7.933-20.978-6.802-4.655-15.802-4.61-22.557.11-13.235 9.29-11.428 31.414-24.572 40.748-7.86 5.654-20.01 5.834-24.709 14.315-5.962 10.726 5.918 24.413 1.627 35.9-2.801 7.405-11.067 10.906-16.713 16.425-8.444 8.615-10.49 21.588-5.105 32.356 5.918 11.174 13.551 9.289 23.986 6.731 9.079-2.244 18.023 0 26.56-5.116z" opacity=".6" transform="translate(377.264989, 393.853533) rotate(2.000000) translate(-377.264989, -393.853533) translate(320.065875, 310.191486)"/>
                            <path fill="#FFF" fill-opacity=".6" d="M91.693 75.804c-12.78-1.582-25.744.82-37.062 6.867 1.134-3.21 2.268-6.377 3.357-9.543l11.295-32.73L87.43 31.48c.313-.16.45-.527.317-.847-.179-.316-.58-.434-.907-.268L69.692 38.57l4.853-14.046c.113-.333-.07-.692-.408-.803-.338-.11-.704.069-.816.401L56.58 72.593c-2.45 7.046-4.944 14.225-7.757 21.315-1.58-11.344-7.15-21.787-15.74-29.52-.12-.12-.284-.187-.455-.187-.17 0-.334.068-.453.187-.135.11-.213.274-.213.446 0 .173.078.336.213.446 8.515 7.602 13.985 17.945 15.423 29.163.043.318.31.561.636.58-1.588 3.968-3.221 7.892-5.036 11.772-5.31 11.215-11.819 21.842-19.415 31.704 1.127-8.465-3.784-16.59-11.886-19.664-.155-.072-.334-.075-.491-.006-.157.069-.276.2-.325.362-.124.32.038.678.363.803 7.895 2.962 12.58 10.978 11.204 19.174-.04.29.13.568.409.67-3.728 4.838-7.71 9.482-11.93 13.912-.123.117-.192.278-.192.446 0 .167.07.328.191.446.146.054.308.054.454 0 .16.062.338.062.499 0 8.008-8.409 15.163-17.563 21.366-27.335 6.729-3.176 14.01-5.068 21.457-5.574.169-.011.326-.088.436-.214.111-.125.166-.29.154-.455.002-.17-.073-.333-.204-.445-.13-.111-.305-.16-.477-.134-7.038.486-13.934 2.192-20.368 5.038 3.665-5.756 6.997-11.711 9.98-17.836 3.538-7.536 6.532-15.34 9.073-23.099 11.372-6.313 24.514-8.847 37.47-7.223.17.04.35.003.49-.1.141-.104.227-.263.236-.436.154-.127.243-.314.243-.512s-.089-.386-.243-.513z" transform="translate(377.264989, 393.853533) rotate(2.000000) translate(-377.264989, -393.853533) translate(320.065875, 310.191486)"/>
                            <path fill="url(#k6pagnh4xo)" d="M45.884 167.248c5.037.469 10.035-1.246 13.732-4.711 2.613-2.534 4.43-6 8.017-7.2 4.164-1.468 8.55 1.021 12.58 2.844 4.031 1.822 9.568 2.711 12.182-.845 3.5-4.711-1.905-11.556 0-17.157 1.472-3.325 4.403-5.773 7.929-6.622 3.48-.855 6.8-2.265 9.834-4.178 3.675-2.927 5.144-7.841 3.68-12.315-1.462-4.473-5.547-7.558-10.236-7.731-9.17-.356-16.035 10.312-25.205 10.045-5.537 0-11.118-4.445-16.168-2-6.423 2.844-5.803 13.334-11.738 16.934-3.81 2.4-8.86 1.112-13.29 1.69-6.84 1.01-12.296 6.252-13.598 13.067-1.196 7.112 3.012 8.89 8.505 11.379 5.492 2.489 8.106 5.956 13.776 6.8z" opacity=".6" transform="translate(377.264989, 393.853533) rotate(2.000000) translate(-377.264989, -393.853533) translate(320.065875, 310.191486)"/>
                            <path fill="#D6E3FA" d="M87.499 150.827c-5.202-5.08-11.888-8.414-19.113-9.532l4.823-3.192 16.502-10.93 11.326 2.01c.196 0 .354-.156.354-.349 0-.193-.158-.35-.354-.35l-10.618-1.88 7.035-4.678c.118-.156.118-.37 0-.525-.152-.134-.38-.134-.531 0L72.5 137.579c-3.584 2.36-7.212 4.766-10.928 7.04 3.254-5.675 4.396-12.295 3.23-18.715-.021-.094-.08-.176-.164-.225-.084-.05-.185-.063-.279-.037-.176.055-.3.211-.31.394 1.173 6.32.028 12.846-3.23 18.407-.11.142-.11.34 0 .481-2.123 1.224-4.423 2.492-6.37 3.586-6.29 3.278-12.92 5.872-19.776 7.739 1.613-1.648 2.652-3.762 2.964-6.034.328-2.434-.203-4.905-1.504-6.996-.067-.075-.164-.118-.266-.118-.101 0-.198.043-.265.118-.13.135-.13.346 0 .481 2.512 4.02 1.809 9.232-1.681 12.461v.437c-3.363.875-6.77 1.662-10.22 2.23-.192.06-.32.24-.31.438.098.047.212.047.31 0 6.522-1.073 12.923-2.772 19.112-5.072 4.285.856 8.359 2.535 11.99 4.94.157.117.374.117.53 0 .112-.141.112-.339 0-.48-3.33-2.153-7.012-3.721-10.883-4.635 3.678-1.373 7.268-2.964 10.751-4.766 4.234-2.319 8.34-4.858 12.3-7.608 7.312.987 14.1 4.302 19.333 9.444.095.094.233.13.363.096.13-.034.23-.134.265-.262s-.002-.265-.097-.358l.133.262z" transform="translate(377.264989, 393.853533) rotate(2.000000) translate(-377.264989, -393.853533) translate(320.065875, 310.191486)"/>
                        </g>
                    </g>
                    <g mask="url(#drnqnnkpkd)">
                        <g fill-rule="nonzero">
                            <path fill="url(#b7t6892dwp)" d="M2.85 6.814C5.516 4.78 7.828 3.126 9.784 1.849 12.718-.066 16.527-.25 18.43.214 20.577 1.654 26.187 5.576 28.5 7.6c-1.364.238-2.576.238-4.385.66-6.502 1.521-8.798 6.648-9.667 6.972-1.62.604-.934.326-1.912.442-.652.077-3.88-2.877-9.686-8.86z" transform="translate(306.695357, 381.012500) scale(1, -1) translate(-306.695357, -381.012500) translate(292.445357, 373.175000)"/>
                            <path fill="url(#9jqjr4s2jq)" d="M2.402 4.275C-.163 6.767-.674 8.504.87 9.487c1.66 1.059 6.79 4.19 9.152 5.52 1.527.86 2.937.89 4.228.09-1.685.643-2.772.37-3.263-.819-.49-1.19.185-2.398 2.029-3.627L2.402 4.275z" transform="translate(306.695357, 381.012500) scale(1, -1) translate(-306.695357, -381.012500) translate(292.445357, 373.175000)"/>
                        </g>
                    </g>
                    <path fill="url(#06v78x5bnr)" fill-rule="nonzero" d="M132 305H408V506H132z" mask="url(#drnqnnkpkd)" opacity=".6"/>
                    <g mask="url(#drnqnnkpkd)">
                        <g>
                            <g>
                                <path fill="#FFF" d="M48.426 56.754L3.703 28.368c-4.315-2.738-4.977-8.756-1.361-12.362l13.707-13.67c2.66-2.654 6.814-3.098 9.977-1.067l44.307 28.443c4.249 2.728 4.925 8.654 1.4 12.265l-13.29 13.612c-2.64 2.706-6.822 3.192-10.017 1.165" transform="translate(177.684294, 412.132694) rotate(-51.000000) translate(-177.684294, -412.132694) translate(140.684294, 383.132694)"/>
                                <path stroke="#FFF" stroke-width=".5" d="M48.426 56.754L3.703 28.368c-4.315-2.738-4.977-8.756-1.361-12.362l13.707-13.67c2.66-2.654 6.814-3.098 9.977-1.067l44.307 28.443c4.249 2.728 4.925 8.654 1.4 12.265l-13.29 13.612c-2.64 2.706-6.822 3.192-10.017 1.165z" transform="translate(177.684294, 412.132694) rotate(-51.000000) translate(-177.684294, -412.132694) translate(140.684294, 383.132694)"/>
                                <path fill="#273D57" d="M19.437 18.21c.024-.008.11-.036.175-.023.033.016.106.052.11.105 0 .04-.078.093-.082.101l-.192.097c-.354.075-.509.2-.7.338-.4.246-.442.59-.432.91.012.28.169.634.18.67.138.293.349.5.709.814.264.244.625.457.75.571.26.232 1.601 1.203 2.27 1.51.487.225.979.36 1.048.385.48.221 1.394.407 2.17.544 1.063.191 1.86.308 2.986.317.248.013.496.046.7-.014.708-.211 2.033-.154 2.29-.278.607-.314.953-.455.955-.82-.002-.499-.375-.768-.881-1.215-.252-.229-.899-.962-1.288-1.32-.365-.326-.779-.575-1.058-.807-.4-.354-.741-.689-.916-.867-.38-.375-.789-.693-.861-1.014-.076-.292-.262-.467-.148-.735.194-.44.478-.541.698-.634.37-.188.966-.336 1.706-.41.28-.031.467-.06.792-.058.562-.042 1.22.005 1.842.045.635.034 1.029.08 1.378.155.3.05.573.136.95.235.736.198 1.37.395 1.791.588.406.184.889.376 1.185.657.089.085.109.207.145.358.048.146.108.328-.014.45-.143.161-.099.234-.412.29-.102.04-.379.144-.562.103-.154-.037-.626.01-.853-.125-.304-.184-.372-.574-.322-.69.012-.025-.146-.135-.288-.318-.137-.171-1.25-.69-2.115-.872-.45-.035-1.283-.444-1.698-.41-.422.052-1.183-.036-1.573.031-.667.13-.9.349-1.043.551-.147.19-.06.6.005.775.144.398.902 1.034 1.19 1.351.141.163.521.66 1.112 1.2.353.33.51.603.83.917.434.431.424.63.817 1.102.267.338.4.78.487 1.251.084.398-.15 1-.448 1.186-.322.214-.57.383-1.124.51-.168.049-.236.024-.415.035-.126.008-.346.08-.489.1-.943.114-2.143.129-3.163.031-1.113-.093-2.016-.324-2.974-.604-.47-.135-1.125-.353-1.441-.472-.577-.21-1.149-.548-1.628-.77-.568-.265-1.006-.527-1.184-.697-.223-.204-1.154-1.06-1.442-1.336-.461-.476-.76-.932-.8-1.054-.016-.13-.623-1.004-.478-1.51.082-.284.225-.486.421-.651.155-.125.387-.222.624-.327.212-.096.444-.152.708-.252m17.198 7.445c-.39.19-.782.44-1.076.677-.29.23-.47.445-.466.578-.008.098.008.147.073.18.178.089.637.208.87.234.263.02.629.043 1.056.045.244.001.516-.014.8-.033.257-.024.603-.043.949-.041.35-.007.666-.01.796-.025.053-.004.215.037.322.09.06.04.068.106.06.122-.004.028.003.194-.123.222-.09.016-.142 0-.184 0-.195.003-.486-.063-.612-.056-.473.007-.756-.055-1.351.052-.411.067-1.175.128-1.545.176-.753.099-1.234.243-1.575.253-.127.008-.419.023-.488.018-.101 0-.44-.079-.589-.327-.044-.093-.19-.187-.23-.37-.027-.146.026-.352.071-.502.071-.239.488-.8.9-1.112.33-.25.913-.677 1.178-.798.171-.076.652-.321.783-.52.102-.161.57-.321.72-.378.078-.032.558-.135.742-.155.268-.027.397.14.511.176.342.111.428.541.278.7-.119.112-.378.164-.62.236-.145.048-.353.137-.565.233-.265.12-.526.253-.685.325m2.937-2.198c-.142-.081-.23-.309-.186-.398.053-.105.12-.194.173-.259.196-.287.502-.488.803-.6.334-.116.651-.16.834-.159.101.02.256.058.377.14.228.134.455.37.453.593-.008.158-.318.408-.404.457-.2.113-.302.153-.379.184-.264.1-.578.176-.988.204-.094.003-.509-.063-.683-.162m6.282 4.384c.016.07.023.175.055.292.036.11.003.195-.098.215-.041 0-.12.214-.286.262-.244.06-.668.172-.74.075-.032-.037-.228-.075-.3-.213-.057-.11-.02-.162-.048-.227-.044-.154-.056-.292-.418-.322-.187-.013-.475-.006-.784.021-.554.047-1.2.137-1.587.237-.27.067-.509.14-.729.212-.558.176-.957.36-1.213.526-.192.116-.302.234-.36.348-.07.137.073.036.26.09.15.044.304.062 1.028.02.39-.027.99-.061 1.627-.115.403-.03.822-.074 1.217-.108l1.033-.11.114-.024c.273-.035.517-.054.67-.038.013-.004.033-.004.049.005.13-.016.273.025.427.163.1.103.272.127.304.265.04.203.103.48-.1.66-.156.126-.437.198-.714.322-.313.137-.734.646-1.093.892-.314.218-.89.751-1.57 1.15l-1.166.753c-.363.234-.925.52-1.467.744-.785.326-1.458.688-2.11.929-.203.08-.976.239-1.635.293-.415.034-.883.093-1.347.104-.857.045-1.342-.046-2.628-.542-.544-.213-1.213-.682-1.776-1.321-.36-.395-.631-.826-.788-1.28-.156-.456-.207-.938-.12-1.433.084-.507.325-.903.505-1.117.135-.166.738-.492 1.276-.688.378-.144.325-.12.573-.168.212-.056.375-.035.553-.047.163 0 .16.05 0 .122-.082.04-.208.109-.337.144-.285.08-.363.052-.758.29-.726.508-1.188 1.179-1.235 1.572-.046.312.022.681.192 1.05.148.31.36.62.638.892.405.407.896.746 1.642 1.04.556.21 1.08.3 1.536.327.96.057 1.651-.164 1.86-.171.235-.023 1.216-.27 1.773-.446.595-.209 1.46-.668 2.013-.917.786-.386 1.239-.615 2.124-1.256.403-.315.51-.384.64-.48.183-.141.363-.295.506-.477.204-.262.27-.393.237-.429-.1-.122-.267-.175-.52-.18-.3-.01-.67-.003-1.064.011-.281.012-.587.03-.863.074-.553.087-1.13.242-1.575.294-.573.067-.813.179-1.013.17-.264-.022-.787-.417-.891-.632-.085-.236-.006-.673.08-.803.16-.255.445-.456.82-.653.248-.13.538-.258.863-.398.465-.213.986-.397 1.519-.546.404-.112.803-.196 1.2-.259.387-.059.795-.097 1.196-.108.49-.019.964.008 1.366.078.273.046.509.124.687.214.24.13.654.299.75.652m7.28 4.765c-.245.121-.67.496-1.033.872-.274.299-.436.44-.555.614-.124.182-.335.38-.38.468-.128.252-.185.426-.173.564.015.17.152.28.393.31.507.062 1.057.064 1.366.017 1.001-.146 1.562-.168 1.937-.304.101-.02.491.055.556.148.012.037-.07.26-.168.25-.252.037-.361.011-.712.039l-1.497.22c-.744.123-1.55.245-2.124.312-.54.063-.634.067-1.043-.11-.451-.196-.449-.824-.13-1.374.102-.163.292-.474.483-.733.189-.291.605-.771.87-1.095.185-.242.177-.247.214-.32.094-.166.05-.32-.136-.373-.16-.05-.64.013-.75.029-.46.063-.617.075-1.102.166-.394.076-.818.228-1.136.311-.3.072-1.03.325-1.237.434-.391.209-.371.189-.616.31-.252.115-.615.268-.762.296-.19.036-.45.047-.613-.136-.182-.203-.265-.622-.126-.836.18-.295.49-.464.71-.658.123-.101.526-.395.913-.576.216-.105.913-.475 1.263-.684.2-.133.693-.424.71-.435.207-.11.35-.27.575-.372.178-.092.377-.063.516-.034.276.058.47.116.658.25.11.086.239.273.225.379-.028.117-.098.254-.17.319-.104.08-.197.206-.401.287-.078.031-.395.055-.48.083-.294.116-.595.228-.847.345-.053.024-.372.25-.433.391-.02.04.025.073.057.09.109.045 1.229-.173 1.391-.193.586-.09 1.001-.166 1.521-.27.274-.056.611-.139.86-.187.215-.044.488-.079.642-.123.228-.047.582.019.724.04.203.04.41.237.498.504.04.122.056.252-.03.361-.127.19-.306.344-.428.404" transform="translate(177.684294, 412.132694) rotate(-51.000000) translate(-177.684294, -412.132694) translate(140.684294, 383.132694)"/>
                            </g>
                            <g>
                                <g transform="translate(177.684294, 412.132694) rotate(-51.000000) translate(-177.684294, -412.132694) translate(140.684294, 383.132694) translate(17.000000, 16.000000)">
                                    <mask id="pvhd9msd9t" fill="#fff">
                                        <use xlink:href="#r9yf97l5js"/>
                                    </mask>
                                    <path fill="#273D57" d="M2.148 -13.839L49.176 9.837 36.061 35.712 -10.966 12.035z" mask="url(#pvhd9msd9t)"/>
                                </g>
                                <g transform="translate(177.684294, 412.132694) rotate(-51.000000) translate(-177.684294, -412.132694) translate(140.684294, 383.132694) translate(17.000000, 16.000000)">
                                    <mask id="32ou8gb50v" fill="#fff">
                                        <use xlink:href="#jp6vfu4tpu"/>
                                    </mask>
                                    <path stroke="#273D57" stroke-width=".75" d="M2.148 -13.839L49.176 9.837 36.061 35.712 -10.966 12.035z" mask="url(#32ou8gb50v)"/>
                                </g>
                            </g>
                            <g fill="#273D57" stroke="#273D57">
                                <path stroke-width=".75" d="M3.235 1.857c.024-.008.11-.036.175-.023.032.016.105.053.11.106-.001.04-.078.093-.082.101l-.192.097c-.354.076-.508.202-.7.34-.4.247-.441.592-.43.914.011.281.168.636.18.673.137.294.347.502.707.817.264.246.624.46.75.574.258.233 1.598 1.208 2.267 1.516.486.226.977.362 1.046.388.479.221 1.392.408 2.167.545 1.063.192 1.859.31 2.983.319.248.013.495.046.699-.014.707-.213 2.03-.155 2.287-.28.606-.315.952-.456.954-.823-.002-.5-.375-.77-.88-1.22-.251-.23-.898-.966-1.286-1.326-.365-.327-.778-.577-1.057-.811-.4-.356-.74-.691-.914-.87-.38-.377-.789-.697-.861-1.019-.076-.293-.262-.469-.148-.738.194-.443.478-.543.697-.636.37-.19.965-.338 1.704-.413.28-.03.467-.059.792-.058.56-.042 1.218.006 1.84.045.633.035 1.027.082 1.375.156.3.05.572.137.95.236.734.199 1.367.397 1.788.59.406.185.888.379 1.183.66.09.086.11.209.145.36.048.146.109.33-.014.451-.143.163-.098.237-.411.292-.102.04-.378.145-.561.104-.154-.037-.626.01-.852-.126-.304-.184-.372-.576-.322-.693.012-.025-.146-.136-.287-.32-.138-.171-1.248-.692-2.113-.875-.45-.035-1.281-.446-1.696-.411-.421.052-1.181-.037-1.571.03-.667.132-.9.35-1.042.554-.147.191-.059.603.005.778.144.4.901 1.038 1.189 1.357.14.164.52.662 1.11 1.206.353.331.51.605.83.92.433.434.423.633.816 1.107.266.34.399.784.486 1.257.084.399-.15 1.005-.448 1.19-.322.216-.57.386-1.123.514-.167.048-.235.023-.414.035-.126.008-.345.08-.488.1-.942.114-2.14.13-3.159.031-1.112-.094-2.014-.326-2.97-.607-.47-.136-1.124-.354-1.44-.474-.576-.21-1.147-.55-1.626-.772-.567-.267-1.004-.53-1.182-.702-.223-.204-1.153-1.063-1.44-1.341-.461-.479-.76-.936-.8-1.059-.016-.13-.622-1.008-.477-1.517.082-.285.225-.488.42-.654.155-.125.387-.222.623-.327.212-.097.444-.153.708-.254zm17.177 7.478c-.39.19-.782.441-1.075.68-.289.23-.468.446-.465.58-.009.099.008.147.072.18.179.09.637.21.869.235.263.022.628.044 1.055.046.244.001.516-.014.8-.034.256-.023.601-.042.947-.04.349-.007.665-.01.795-.026.053-.004.215.038.321.091.06.04.068.106.06.123-.004.028.004.195-.122.223-.09.016-.142 0-.184 0-.195.002-.486-.064-.612-.056-.471.006-.755-.056-1.349.052-.41.067-1.173.129-1.543.177-.752.098-1.232.243-1.573.254-.126.007-.418.022-.487.018-.102 0-.439-.08-.589-.328-.043-.094-.19-.189-.228-.372-.028-.147.025-.354.07-.505.07-.24.487-.804.898-1.116.33-.251.913-.68 1.177-.802.171-.076.651-.323.782-.521.102-.163.57-.324.72-.38.077-.033.557-.137.74-.157.268-.027.397.14.51.178.342.111.429.543.278.701-.118.114-.378.166-.618.238-.146.048-.354.137-.565.234-.265.121-.525.254-.684.327zm2.933-2.208c-.142-.082-.23-.31-.186-.4.054-.105.12-.195.173-.26.196-.288.501-.49.802-.603.333-.116.65-.16.833-.16.101.022.256.059.377.141.227.135.454.372.452.597-.008.158-.318.41-.403.458-.2.113-.302.153-.379.185-.264.101-.577.177-.987.205-.094.003-.508-.064-.682-.163zm6.274 4.403c.016.07.023.176.055.294.037.11.003.195-.098.215-.04 0-.119.215-.285.264-.244.06-.667.172-.74.075-.032-.038-.227-.075-.3-.214-.056-.11-.02-.163-.047-.228-.044-.155-.056-.294-.417-.324-.187-.012-.475-.006-.784.022-.553.046-1.199.137-1.584.237-.27.068-.509.14-.728.214-.558.176-.957.362-1.212.528-.192.117-.302.235-.36.349-.07.138.074.037.26.09.15.045.304.063 1.027.02.39-.026.988-.06 1.625-.115.402-.03.82-.074 1.215-.108l1.032-.11.114-.025c.272-.035.516-.054.67-.038.012-.004.032-.004.048.005.13-.016.273.025.426.164.1.103.272.128.304.266.04.204.103.482-.1.664-.156.126-.436.198-.713.323-.313.137-.733.648-1.091.895-.314.22-.889.755-1.569 1.155l-1.165.756c-.362.235-.923.522-1.465.748-.784.327-1.456.69-2.107.932-.203.08-.975.24-1.633.295-.415.034-.882.094-1.345.104-.857.046-1.34-.046-2.625-.544-.543-.214-1.212-.685-1.774-1.327-.36-.396-.63-.83-.786-1.286-.157-.457-.208-.942-.12-1.438.083-.51.324-.908.504-1.122.135-.167.737-.494 1.274-.692.378-.144.325-.12.573-.168.212-.056.374-.035.552-.047.163 0 .16.05 0 .122-.082.04-.207.11-.337.145-.285.081-.362.052-.757.29-.725.511-1.186 1.185-1.233 1.58-.046.313.022.684.191 1.055.148.31.36.622.637.895.405.41.895.75 1.64 1.046.556.21 1.08.301 1.535.328.958.057 1.649-.165 1.857-.172.235-.024 1.215-.272 1.772-.449.594-.21 1.457-.67 2.01-.92.785-.388 1.237-.618 2.121-1.262.402-.316.509-.385.64-.482.182-.142.362-.296.505-.479.203-.263.27-.394.237-.43-.1-.123-.267-.177-.52-.182-.3-.009-.67-.003-1.063.012-.28.011-.585.03-.861.074-.553.087-1.13.243-1.573.295-.573.067-.813.18-1.012.17-.264-.02-.786-.418-.89-.634-.085-.237-.006-.676.08-.806.159-.256.444-.458.819-.657.248-.129.537-.258.862-.4.464-.213.984-.398 1.517-.547.403-.113.801-.197 1.2-.26.385-.06.792-.098 1.193-.109.488-.019.963.008 1.365.079.272.046.507.124.685.215.24.13.653.3.749.654zm7.271 4.786c-.244.121-.668.498-1.031.875-.274.3-.436.443-.555.618-.123.182-.335.38-.38.47-.127.252-.184.427-.172.566.015.17.152.281.392.31.507.064 1.056.066 1.365.019 1-.147 1.56-.17 1.934-.306.101-.02.491.055.556.149.012.036-.07.26-.168.251-.251.036-.361.011-.71.038l-1.496.223c-.743.122-1.548.245-2.121.312-.54.063-.634.067-1.043-.11-.45-.197-.447-.828-.129-1.38.102-.164.291-.476.483-.736.188-.293.604-.775.87-1.1.183-.244.175-.248.212-.321.094-.167.05-.322-.136-.376-.16-.05-.638.014-.748.03-.46.063-.618.075-1.102.166-.394.076-.817.23-1.134.313-.3.072-1.029.326-1.236.435-.39.21-.37.19-.615.311-.252.117-.614.27-.76.298-.192.037-.451.048-.613-.136-.182-.204-.265-.625-.126-.84.18-.297.489-.466.709-.66.122-.102.525-.398.912-.58.216-.105.912-.476 1.261-.686.2-.134.693-.425.71-.437.206-.11.35-.272.574-.373.178-.093.377-.064.515-.034.276.058.47.116.657.25.11.086.239.275.225.38-.028.118-.098.256-.17.32-.103.082-.196.208-.4.29-.078.031-.394.055-.48.083-.293.116-.594.23-.846.347-.052.024-.37.25-.432.392-.02.041.024.074.056.09.11.046 1.228-.174 1.39-.194.586-.09 1-.166 1.52-.27.273-.057.61-.14.858-.188.215-.044.487-.08.642-.123.227-.048.58.018.722.039.204.041.41.238.498.507.04.122.056.253-.03.362-.127.191-.306.345-.428.406z" transform="translate(177.684294, 412.132694) rotate(-51.000000) translate(-177.684294, -412.132694) translate(140.684294, 383.132694) translate(16.000000, 16.000000)"/>
                                <path d="M8.544 11.04c.38.069.758.106 1.144.203l1.153.274c.386.096.77.172 1.156.285l1.158.355 1.16.364c.384.124.765.29 1.15.433l1.15.445c.384.151.771.286 1.145.476l2.263 1.064c.38.167.744.376 1.112.577l1.1.609c1.486.78 2.877 1.726 4.285 2.633.353.225.704.455 1.035.71l1.007.745 2.003 1.496c1.266 1.067 2.526 2.135 3.757 3.219l-.083.072c-1.35-.971-2.648-1.98-3.977-2.95l-2.047-1.385c-.689-.45-1.338-.955-2.055-1.359-1.412-.835-2.779-1.749-4.236-2.474l-1.075-.579c-.358-.193-.713-.396-1.083-.556l-2.194-1.02c-2.941-1.279-5.944-2.302-8.92-2.94-2.963-.615-5.937-.946-8.652-.643 2.512-.654 5.508-.57 8.544-.054z" transform="translate(177.684294, 412.132694) rotate(-51.000000) translate(-177.684294, -412.132694) translate(140.684294, 383.132694) translate(16.000000, 16.000000)"/>
                            </g>
                            <g transform="translate(177.684294, 412.132694) rotate(-51.000000) translate(-177.684294, -412.132694) translate(140.684294, 383.132694) translate(16.000000, 27.000000)">
                                <mask id="qeh4gcne7x" fill="#fff">
                                    <use xlink:href="#8euk7jj5ow"/>
                                </mask>
                                <path fill="#B0D4EB" d="M0 0.453L32.107 20.277 36.496 13.752 4.389 -6.072z" mask="url(#qeh4gcne7x)"/>
                            </g>
                            <g>
                                <g transform="translate(177.684294, 412.132694) rotate(-51.000000) translate(-177.684294, -412.132694) translate(140.684294, 383.132694) translate(16.000000, 27.000000)">
                                    <mask id="0voy10sjlz" fill="#fff">
                                        <use xlink:href="#8xhzw8khcy"/>
                                    </mask>
                                    <path fill="#273D57" d="M-7.999 2.111L32.863 27.341 43.523 11.494 2.659 -13.736z" mask="url(#0voy10sjlz)"/>
                                </g>
                                <g transform="translate(177.684294, 412.132694) rotate(-51.000000) translate(-177.684294, -412.132694) translate(140.684294, 383.132694) translate(16.000000, 27.000000)">
                                    <mask id="mo034khv1B" fill="#fff">
                                        <use xlink:href="#e51s5xv5yA"/>
                                    </mask>
                                    <path stroke="#273D57" stroke-width=".75" d="M-7.999 2.111L32.863 27.341 43.523 11.494 2.659 -13.736z" mask="url(#mo034khv1B)"/>
                                </g>
                            </g>
                            <g transform="translate(177.684294, 412.132694) rotate(-51.000000) translate(-177.684294, -412.132694) translate(140.684294, 383.132694) translate(16.000000, 27.000000)">
                                <mask id="htmvfte2zD" fill="#fff">
                                    <use xlink:href="#eso5jzewzC"/>
                                </mask>
                                <path stroke="#273D57" stroke-width=".75" d="M0 0.453L32.107 20.277 36.496 13.752 4.389 -6.072z" mask="url(#htmvfte2zD)"/>
                            </g>
                            <path fill="#273D57" stroke="#273D57" stroke-width=".75" d="M24.713 27.43c.388.072.773.11 1.166.212l1.177.285c.392.1.785.18 1.178.298l1.18.37 1.183.381c.393.129.781.302 1.173.452l1.174.464c.39.158.786.298 1.167.497l2.307 1.11c.387.175.76.393 1.134.603l1.122.635c1.515.813 2.934 1.802 4.37 2.749.36.234.718.474 1.055.74l1.028.778 2.041 1.562c1.291 1.113 2.577 2.228 3.832 3.359l-.084.075c-1.377-1.014-2.7-2.067-4.056-3.08l-2.088-1.445c-.702-.47-1.365-.996-2.095-1.418-1.44-.87-2.834-1.825-4.32-2.582l-1.096-.604c-.365-.202-.728-.414-1.104-.58l-2.238-1.066c-3-1.334-6.06-2.402-9.095-3.068-3.022-.641-6.056-.987-8.824-.671 2.562-.682 5.616-.595 8.713-.057z" transform="translate(177.684294, 412.132694) rotate(-51.000000) translate(-177.684294, -412.132694) translate(140.684294, 383.132694)"/>
                        </g>
                    </g>
                    <g mask="url(#drnqnnkpkd)">
                        <g transform="translate(370.272271, 365.352468)"/>
                    </g>
                    <g mask="url(#drnqnnkpkd)">
                        <g>
                            <g>
                                <g>
                                    <g>
                                        <g>
                                            <g fill="#FFF">
                                                <path d="M25.107 42.211L2.544 28.47C-.373 26.692-.872 22.71 1.52 20.29L19.98 1.6c1.757-1.78 4.535-2.113 6.674-.801L49.47 14.789c2.932 1.797 3.4 5.817.959 8.223l-18.712 18.44c-1.758 1.733-4.494 2.047-6.61.76" transform="translate(333.000000, 430.500000) scale(-1, 1) translate(-333.000000, -430.500000) translate(307.000000, 409.000000)"/>
                                            </g>
                                            <path fill="#B0D4EB" d="M27.691 15.179c.888.58.97 1.694.184 2.49-.786.797-2.141.973-3.03.394-.887-.58-.97-1.695-.183-2.49.786-.798 2.142-.974 3.03-.394" transform="translate(333.000000, 430.500000) scale(-1, 1) translate(-333.000000, -430.500000) translate(307.000000, 409.000000)"/>
                                        </g>
                                        <g transform="translate(333.000000, 430.500000) scale(-1, 1) translate(-333.000000, -430.500000) translate(307.000000, 409.000000) translate(9.667218, 7.919429)">
                                            <mask id="fpm8zslbjG" fill="#fff">
                                                <use xlink:href="#f8gdalklhF"/>
                                            </mask>
                                            <path fill="#B0D4EB" d="M-8.516 17.164L18.821 36.087 41.706 11.504 14.368 -7.419z" mask="url(#fpm8zslbjG)"/>
                                        </g>
                                    </g>
                                    <g transform="translate(333.000000, 430.500000) scale(-1, 1) translate(-333.000000, -430.500000) translate(307.000000, 409.000000) translate(9.667405, 7.919429)">
                                        <mask id="8qm483uscI" fill="#fff">
                                            <use xlink:href="#wu22mozpdH"/>
                                        </mask>
                                        <path fill="#B0D4EB" d="M-0.431 16.023L18.364 29.033 33.619 12.644 14.825 -0.366z" mask="url(#8qm483uscI)"/>
                                    </g>
                                </g>
                                <g transform="translate(333.000000, 430.500000) scale(-1, 1) translate(-333.000000, -430.500000) translate(307.000000, 409.000000) translate(23.785836, 16.186496)">
                                    <mask id="4p3cf4iq7K" fill="#fff">
                                        <use xlink:href="#d5yiph02lJ"/>
                                    </mask>
                                    <path fill="#B0D4EB" d="M-10.54 2.766L3.215 9.36 15.471 0.242 1.715 -6.353z" mask="url(#4p3cf4iq7K)"/>
                                </g>
                            </g>
                            <g transform="translate(333.000000, 430.500000) scale(-1, 1) translate(-333.000000, -430.500000) translate(307.000000, 409.000000) translate(23.335613, 15.344800)">
                                <mask id="pmhglao25M" fill="#fff">
                                    <use xlink:href="#b45qkc50dL"/>
                                </mask>
                                <path fill="#B0D4EB" d="M-18.512 7.51L4.143 19.515 22.532 4.391 -0.122 -7.613z" mask="url(#pmhglao25M)"/>
                            </g>
                            <path fill="#B0D4EB" d="M40.416 19.746l-8.525 8.732-.459-6.286-9.786 1.916-1.17-5.557-6.05.792L24.37 9.157l16.045 10.589zm2.222-.926L24.99 7.172c-.443-.292-1.12-.204-1.513.198L9.27 21.923c-.392.402-.35.964.092 1.257l17.65 11.648c.442.292 1.119.204 1.512-.198l14.208-14.553c.393-.402.35-.965-.093-1.257z" transform="translate(333.000000, 430.500000) scale(-1, 1) translate(-333.000000, -430.500000) translate(307.000000, 409.000000)"/>
                        </g>
                    </g>
                    <g mask="url(#drnqnnkpkd)">
                        <g>
                            <g fill="#FFF">
                                <path d="M29.343 49.943L3.181 33.781c-3.383-2.09-3.96-6.772-1.187-9.62L23.397 2.177c2.038-2.092 5.259-2.484 7.74-.941l26.455 16.455c3.398 2.114 3.942 6.841 1.111 9.67l-21.696 21.69c-2.039 2.037-5.212 2.406-7.664.891" transform="translate(230.000000, 405.000000)"/>
                            </g>
                            <g>
                                <path fill="#B0D4EB" d="M.516 20.827l1.469-1.434L4.7 20.397c.972.359 2.128.15 2.802-.508L19.572 8.1l-3.236-2.075c-.781-.501-1.882-.553-2.727-.126l-1.694.854-1.818-1.166 4.405-4.303 18.18 11.663-4.404 4.302-1.82-1.166.706-1.488c.352-.744.06-1.585-.72-2.086l-3.236-2.076-12.07 11.787c-.674.658-.693 1.596-.048 2.275l1.803 1.894-1.47 1.435L.517 20.827z" transform="translate(230.000000, 405.000000) translate(13.000000, 10.000000)"/>
                                <g transform="translate(230.000000, 405.000000) translate(13.000000, 10.000000) translate(0.000000, 0.657700)">
                                    <mask id="5yt7gtyqrO" fill="#fff">
                                        <use xlink:href="#s28oy4692N"/>
                                    </mask>
                                    <path fill="#B0D4EB" d="M-4.804 16.756L17.08 30.795 34.703 13.586 12.818 -0.453z" mask="url(#5yt7gtyqrO)"/>
                                </g>
                                <g transform="translate(230.000000, 405.000000) translate(13.000000, 10.000000) translate(0.000000, 0.657700)">
                                    <mask id="q232teemjQ" fill="#fff">
                                        <use xlink:href="#dmjn5kghkP"/>
                                    </mask>
                                    <path fill="#B0D4EB" d="M-11 18.722L15.935 36 40.899 11.621 13.965 -5.657z" mask="url(#q232teemjQ)"/>
                                </g>
                                <g transform="translate(230.000000, 405.000000) translate(13.000000, 10.000000) translate(0.000000, 0.657700)">
                                    <mask id="6cpt8vflxS" fill="#fff">
                                        <use xlink:href="#1l0tx0hhsR"/>
                                    </mask>
                                    <path fill="#B0D4EB" d="M-3.12 17.836L15.398 29.714 33.02 12.505 14.502 0.627z" mask="url(#6cpt8vflxS)"/>
                                </g>
                                <g transform="translate(230.000000, 405.000000) translate(13.000000, 10.000000) translate(0.000000, 0.657700)">
                                    <mask id="ymdpupk5vU" fill="#fff">
                                        <use xlink:href="#73zhsqnfiT"/>
                                    </mask>
                                    <path fill="#B0D4EB" d="M-11 18.722L15.598 35.784 40.563 11.405 13.965 -5.657z" mask="url(#ymdpupk5vU)"/>
                                </g>
                            </g>
                        </g>
                    </g>
                </g>
            </g>
        </g>
    </g>
</svg>
