<?xml version="1.0" encoding="UTF-8"?>
<svg width="44px" height="59px" viewBox="0 0 44 59" version="1.1" xmlns="http://www.w3.org/2000/svg" xmlns:xlink="http://www.w3.org/1999/xlink">
    <title>png-grey</title>
    <g id="General" stroke="none" stroke-width="1" fill="none" fill-rule="evenodd">
        <g id="png-grey" fill-rule="nonzero">
            <g id="pptx-grey-copy-2" transform="translate(0.000000, 0.000000)">
                <g id="Group-12-Copy-3" transform="translate(0.000000, 0.000000)">
                    <path d="M2.45833333,5.83262907e-13 L25.4661894,5.83262907e-13 L25.4661894,5.83262907e-13 L44,18.4567352 L44,56.5416667 C44,57.8993667 42.8993667,59 41.5416667,59 L2.45833333,59 C1.10063332,59 0,57.8993667 0,56.5416667 L0,2.45833333 C0,1.10063332 1.10063332,5.83262907e-13 2.45833333,5.83262907e-13 Z" id="Path-3" fill="#C1D1E0"></path>
                    <polygon id="Fill-7" fill="#C1D1E0" opacity="0.295503162" style="mix-blend-mode: multiply;" points="44 36.1800276 44 18.3683041 25.4661894 16.2345715"></polygon>
                    <path d="M25.4661894,3.18971902e-14 L25.4661894,15.9866444 C25.4661894,17.3443444 26.5668227,18.4449777 27.9245227,18.4449777 C27.9284325,18.4449777 27.9323423,18.4449777 27.9362521,18.4449777 L44,18.3683041 L44,18.3683041 L25.4661894,3.18971902e-14 Z" id="Path-2" fill="#F2F6FA"></path>
                </g>
            </g>
            <path d="M12.85,49 L12.85,47.28 L13.86,47.28 C14.5066667,47.28 15.07,47.1733333 15.55,46.96 C16.03,46.7466667 16.4,46.44 16.66,46.04 C16.92,45.64 17.05,45.1733333 17.05,44.64 C17.05,44.1066667 16.92,43.64 16.66,43.24 C16.4,42.84 16.03,42.5333333 15.55,42.32 C15.07,42.1066667 14.5066667,42 13.86,42 L13.86,42 L10.49,42 L10.49,49 L12.85,49 Z M13.71,45.46 L12.85,45.46 L12.85,43.82 L13.71,43.82 C14.03,43.82 14.27,43.8916667 14.43,44.035 C14.59,44.1783333 14.67,44.38 14.67,44.64 C14.67,44.9 14.59,45.1016667 14.43,45.245 C14.27,45.3883333 14.03,45.46 13.71,45.46 L13.71,45.46 Z M20.22,49 L20.22,45.82 L22.88,49 L24.82,49 L24.82,42 L22.52,42 L22.52,45.18 L19.86,42 L17.92,42 L17.92,49 L20.22,49 Z M29.59,49.16 C30.1166667,49.16 30.6533333,49.0833333 31.2,48.93 C31.7466667,48.7766667 32.2266667,48.5566667 32.64,48.27 L32.64,48.27 L32.64,45.31 L30.59,45.31 L30.59,47.08 C30.3166667,47.1933333 30.03,47.25 29.73,47.25 C29.2233333,47.25 28.8183333,47.09 28.515,46.77 C28.2116667,46.45 28.06,46.0266667 28.06,45.5 C28.06,44.96 28.2133333,44.5333333 28.52,44.22 C28.8266667,43.9066667 29.24,43.75 29.76,43.75 C30.3666667,43.75 30.89,44.0066667 31.33,44.52 L31.33,44.52 L32.84,43.19 C32.48,42.75 32.0283333,42.415 31.485,42.185 C30.9416667,41.955 30.3266667,41.84 29.64,41.84 C28.88,41.84 28.1983333,41.995 27.595,42.305 C26.9916667,42.615 26.5216667,43.0483333 26.185,43.605 C25.8483333,44.1616667 25.68,44.7933333 25.68,45.5 C25.68,46.2066667 25.8483333,46.8383333 26.185,47.395 C26.5216667,47.9516667 26.9866667,48.385 27.58,48.695 C28.1733333,49.005 28.8433333,49.16 29.59,49.16 Z" id="PNG" fill="#7F93A8"></path>
        </g>
    </g>
</svg>