<svg width="25" height="24" viewBox="0 0 25 24" fill="none" xmlns="http://www.w3.org/2000/svg">
<path d="M1.5 6.53054V20.5069C1.5 21.6077 2.36209 22.5 3.42552 22.5H15.9414C17.0049 22.5 17.8669 21.6077 17.8669 20.5069V6.53054C17.8669 5.4298 17.0049 4.53747 15.9414 4.53747H3.42552C2.36209 4.53747 1.5 5.4298 1.5 6.53054ZM3.90689 8.32429C3.90689 7.884 4.23846 7.52706 4.64748 7.52706H14.7194C15.1285 7.52706 15.46 7.884 15.46 8.32429C15.46 8.76459 15.1285 9.12152 14.7194 9.12152H4.64748C4.23846 9.12152 3.90689 8.76459 3.90689 8.32429ZM3.90689 11.5132C3.90689 11.0729 4.23846 10.716 4.64748 10.716H14.7194C15.1285 10.716 15.46 11.0729 15.46 11.5132C15.46 11.9535 15.1285 12.3104 14.7194 12.3104H4.64748C4.23846 12.3104 3.90689 11.9535 3.90689 11.5132ZM4.65178 15.4993C4.24039 15.4993 3.90689 15.1424 3.90689 14.7021C3.90689 14.2618 4.24039 13.9049 4.65178 13.9049H8.07824C8.48962 13.9049 8.82312 14.2618 8.82312 14.7021C8.82312 15.1424 8.48962 15.4993 8.07824 15.4993H4.65178ZM3.42552 5.07373C2.64665 5.07373 2.01704 5.72699 2.01704 6.53054V20.5069C2.01704 21.3105 2.64665 21.9637 3.42552 21.9637H15.9414C16.7203 21.9637 17.3499 21.3105 17.3499 20.5069V6.53054C17.3499 5.72699 16.7203 5.07373 15.9414 5.07373H3.42552ZM1.5 6.53054C1.5 5.4298 2.36209 4.53747 3.42552 4.53747H15.9414C17.0049 4.53747 17.8669 5.4298 17.8669 6.53054V20.5069C17.8669 21.6077 17.0049 22.5 15.9414 22.5H3.42552C2.36209 22.5 1.5 21.6077 1.5 20.5069V6.53054ZM6.62492 2.97694C6.8996 1.91371 7.95498 1.28321 8.98218 1.56868L21.0716 4.92846C22.0988 5.21393 22.7089 6.30727 22.4342 7.3705L18.9465 20.8707C18.6861 21.8784 17.7244 22.4974 16.7502 22.3162C17.4096 21.9999 17.8669 21.3087 17.8669 20.5069V6.53054C17.8669 5.4298 17.0049 4.53747 15.9414 4.53747L6.22176 4.53748L6.62492 2.97694Z" fill="#74D6F1"/>
</svg>
