<svg width="24" height="24" viewBox="0 0 24 24" fill="none" xmlns="http://www.w3.org/2000/svg">
<path d="M1 6.53054V20.5069C1 21.6077 1.86209 22.5 2.92552 22.5H15.4414C16.5049 22.5 17.3669 21.6077 17.3669 20.5069V6.53054C17.3669 5.4298 16.5049 4.53747 15.4414 4.53747H2.92552C1.86209 4.53747 1 5.4298 1 6.53054ZM3.40689 8.32429C3.40689 7.884 3.73846 7.52706 4.14748 7.52706H14.2194C14.6285 7.52706 14.96 7.884 14.96 8.32429C14.96 8.76459 14.6285 9.12152 14.2194 9.12152H4.14748C3.73846 9.12152 3.40689 8.76459 3.40689 8.32429ZM3.40689 11.5132C3.40689 11.0729 3.73846 10.716 4.14748 10.716H14.2194C14.6285 10.716 14.96 11.0729 14.96 11.5132C14.96 11.9535 14.6285 12.3104 14.2194 12.3104H4.14748C3.73846 12.3104 3.40689 11.9535 3.40689 11.5132ZM4.15178 15.4993C3.74039 15.4993 3.40689 15.1424 3.40689 14.7021C3.40689 14.2618 3.74039 13.9049 4.15178 13.9049H7.57824C7.98962 13.9049 8.32312 14.2618 8.32312 14.7021C8.32312 15.1424 7.98962 15.4993 7.57824 15.4993H4.15178ZM2.92552 5.07373C2.14665 5.07373 1.51704 5.72699 1.51704 6.53054V20.5069C1.51704 21.3105 2.14665 21.9637 2.92552 21.9637H15.4414C16.2203 21.9637 16.8499 21.3105 16.8499 20.5069V6.53054C16.8499 5.72699 16.2203 5.07373 15.4414 5.07373H2.92552ZM1 6.53054C1 5.4298 1.86209 4.53747 2.92552 4.53747H15.4414C16.5049 4.53747 17.3669 5.4298 17.3669 6.53054V20.5069C17.3669 21.6077 16.5049 22.5 15.4414 22.5H2.92552C1.86209 22.5 1 21.6077 1 20.5069V6.53054ZM6.12492 2.97694C6.3996 1.91371 7.45498 1.28321 8.48218 1.56868L20.5716 4.92846C21.5988 5.21393 22.2089 6.30727 21.9342 7.3705L18.4465 20.8707C18.1861 21.8784 17.2244 22.4974 16.2502 22.3162C16.9096 21.9999 17.3669 21.3087 17.3669 20.5069V6.53054C17.3669 5.4298 16.5049 4.53747 15.4414 4.53747L5.72176 4.53748L6.12492 2.97694Z" fill="#087191"/>
</svg>
