<svg width="25" height="24" viewBox="0 0 25 24" fill="none" xmlns="http://www.w3.org/2000/svg">
<path d="M15.4655 6.36701C15.8769 6.36701 16.2104 6.69981 16.2104 7.11034V20.1417C16.2104 20.5522 15.8769 20.885 15.4655 20.885H3.36207C2.95071 20.885 2.61724 20.5522 2.61724 20.1417V7.11034C2.61724 6.69981 2.95071 6.36701 3.36207 6.36701H15.4655ZM3.36207 5.25203C2.33368 5.25203 1.5 6.08402 1.5 7.11034V20.1417C1.5 21.168 2.33368 22 3.36207 22H15.4655C16.4939 22 17.3276 21.168 17.3276 20.1417V7.11034C17.3276 6.08402 16.4939 5.25203 15.4655 5.25203H3.36207Z" fill="#BCCFDC"/>
<path d="M9.34073 3.15105L20.8651 6.84267C21.2567 6.96814 21.4723 7.38672 21.3466 7.7776L17.6475 20.231C17.5809 20.438 17.432 20.5957 17.2484 20.6797C17.1066 21.1484 16.7842 21.539 16.362 21.7709L16.3692 21.7732C17.3484 22.0869 18.397 21.549 18.7113 20.5718L22.4104 8.11837C22.7247 7.14116 22.1857 6.0947 21.2065 5.78104L9.68219 2.08942C8.703 1.77575 7.65442 2.31366 7.34012 3.29086L6.70934 5.25205H7.88273L8.40391 3.63163C8.52963 3.24075 8.94906 3.02558 9.34073 3.15105Z" fill="#BCCFDC"/>
<path d="M3.82759 8.78281C3.82759 9.19334 4.14823 9.52613 4.54377 9.52613H14.2838C14.6794 9.52613 15 9.19334 15 8.78281C15 8.37229 14.6794 8.03949 14.2838 8.03949H4.54377C4.14823 8.03949 3.82759 8.37229 3.82759 8.78281Z" fill="#BCCFDC"/>
<path d="M3.82759 11.7561C3.82759 11.3456 4.14823 11.0128 4.54377 11.0128H14.2838C14.6794 11.0128 15 11.3456 15 11.7561C15 12.1666 14.6794 12.4994 14.2838 12.4994H4.54377C4.14823 12.4994 3.82759 12.1666 3.82759 11.7561Z" fill="#BCCFDC"/>
<path d="M3.82759 14.7294C3.82759 15.1399 4.15009 15.4727 4.54792 15.4727H7.86147C8.2593 15.4727 8.58181 15.1399 8.58181 14.7294C8.58181 14.3189 8.2593 13.9861 7.86147 13.9861H4.54792C4.15009 13.9861 3.82759 14.3189 3.82759 14.7294Z" fill="#BCCFDC"/>
</svg>
