<svg width="24" height="24" viewBox="0 0 24 24" fill="none" xmlns="http://www.w3.org/2000/svg">
<path d="M14.9655 6.36701C15.3769 6.36701 15.7104 6.69981 15.7104 7.11034V20.1417C15.7104 20.5522 15.3769 20.885 14.9655 20.885H2.86207C2.45071 20.885 2.11724 20.5522 2.11724 20.1417V7.11034C2.11724 6.69981 2.45071 6.36701 2.86207 6.36701H14.9655ZM2.86207 5.25203C1.83368 5.25203 1 6.08402 1 7.11034V20.1417C1 21.168 1.83368 22 2.86207 22H14.9655C15.9939 22 16.8276 21.168 16.8276 20.1417V7.11034C16.8276 6.08402 15.9939 5.25203 14.9655 5.25203H2.86207Z" fill="#325167"/>
<path d="M8.84073 3.15105L20.3651 6.84267C20.7567 6.96814 20.9723 7.38672 20.8466 7.7776L17.1475 20.231C17.0809 20.438 16.932 20.5957 16.7484 20.6797C16.6066 21.1484 16.2842 21.539 15.862 21.7709L15.8692 21.7732C16.8484 22.0869 17.897 21.549 18.2113 20.5718L21.9104 8.11837C22.2247 7.14116 21.6857 6.0947 20.7065 5.78104L9.18219 2.08942C8.203 1.77575 7.15442 2.31366 6.84012 3.29086L6.20934 5.25205H7.38273L7.90391 3.63163C8.02963 3.24075 8.44906 3.02558 8.84073 3.15105Z" fill="#325167"/>
<path d="M3.32759 8.78281C3.32759 9.19334 3.64823 9.52613 4.04377 9.52613H13.7838C14.1794 9.52613 14.5 9.19334 14.5 8.78281C14.5 8.37229 14.1794 8.03949 13.7838 8.03949H4.04377C3.64823 8.03949 3.32759 8.37229 3.32759 8.78281Z" fill="#325167"/>
<path d="M3.32759 11.7561C3.32759 11.3456 3.64823 11.0128 4.04377 11.0128H13.7838C14.1794 11.0128 14.5 11.3456 14.5 11.7561C14.5 12.1666 14.1794 12.4994 13.7838 12.4994H4.04377C3.64823 12.4994 3.32759 12.1666 3.32759 11.7561Z" fill="#325167"/>
<path d="M3.32759 14.7294C3.32759 15.1399 3.65009 15.4727 4.04792 15.4727H7.36147C7.7593 15.4727 8.08181 15.1399 8.08181 14.7294C8.08181 14.3189 7.7593 13.9861 7.36147 13.9861H4.04792C3.65009 13.9861 3.32759 14.3189 3.32759 14.7294Z" fill="#325167"/>
</svg>
