<?xml version="1.0" encoding="UTF-8"?>
<svg width="44px" height="59px" viewBox="0 0 44 59" version="1.1" xmlns="http://www.w3.org/2000/svg" xmlns:xlink="http://www.w3.org/1999/xlink">
    <title>075CA1B1-CA5C-40D3-B0A9-797311C7F6A4</title>
    <g id="General" stroke="none" stroke-width="1" fill="none" fill-rule="evenodd">
        <g id="[Web]-Document-List_Upload-Office-File" transform="translate(-5481.000000, -488.000000)" fill-rule="nonzero">
            <g id="Group-16-Copy-2" transform="translate(4530.000000, 89.000000)">
                <g id="Document-Grid-/-Card-/-Uploading-Copy-5" transform="translate(842.000000, 336.000000)">
                    <g id="List/Grid-view/Placeholder" transform="translate(16.000000, 16.000000)">
                        <g id="Powerpoint" transform="translate(93.000000, 47.000000)">
                            <g id="Group-12-Copy-3" transform="translate(0.000000, 0.000000)">
                                <path d="M2.45833333,5.83262907e-13 L25.4661894,5.83262907e-13 L25.4661894,5.83262907e-13 L44,18.4567352 L44,56.5416667 C44,57.8993667 42.8993667,59 41.5416667,59 L2.45833333,59 C1.10063332,59 -7.21908123e-16,57.8993667 0,56.5416667 L0,2.45833333 C-1.66270297e-16,1.10063332 1.10063332,5.86176847e-13 2.45833333,5.83262907e-13 Z" id="Path-3" fill="#C1D1E0"></path>
                                <polygon id="Fill-7" fill="#C1D1E0" style="mix-blend-mode: multiply;" opacity="0.295503162" points="44 36.1800276 44 18.3683041 25.4661894 16.2345715"></polygon>
                                <path d="M25.4661894,3.18971902e-14 L25.4661894,15.9866444 C25.4661894,17.3443444 26.5668227,18.4449777 27.9245227,18.4449777 C27.9284325,18.4449777 27.9323423,18.4449684 27.9362521,18.4449497 L44,18.3683041 L44,18.3683041 L25.4661894,3.18971902e-14 Z" id="Path-2" fill="#F2F6FA"></path>
                            </g>
                            <path d="M10.5170864,49.1666667 L10.5170864,47.4753333 L11.504642,47.4753333 C12.1369383,47.4753333 12.6877531,47.3704444 13.1570864,47.1606667 C13.6264198,46.9508889 13.9881975,46.6493333 14.2424198,46.256 C14.496642,45.8626667 14.6237531,45.4037778 14.6237531,44.8793333 C14.6237531,44.3548889 14.496642,43.896 14.2424198,43.5026667 C13.9881975,43.1093333 13.6264198,42.8077778 13.1570864,42.598 C12.6877531,42.3882222 12.1369383,42.2833333 11.504642,42.2833333 L11.504642,42.2833333 L8.20953088,42.2833333 L8.20953088,49.1666667 L10.5170864,49.1666667 Z M11.3579753,45.6856667 L10.5170864,45.6856667 L10.5170864,44.073 L11.3579753,44.073 C11.6708642,44.073 11.9055309,44.1434722 12.0619753,44.2844167 C12.2184198,44.4253611 12.296642,44.6236667 12.296642,44.8793333 C12.296642,45.135 12.2184198,45.3333056 12.0619753,45.47425 C11.9055309,45.6151944 11.6708642,45.6856667 11.3579753,45.6856667 L11.3579753,45.6856667 Z M17.9232099,49.1666667 L17.9232099,47.4753333 L18.9107654,47.4753333 C19.5430617,47.4753333 20.0938765,47.3704444 20.5632099,47.1606667 C21.0325432,46.9508889 21.394321,46.6493333 21.6485432,46.256 C21.9027654,45.8626667 22.0298765,45.4037778 22.0298765,44.8793333 C22.0298765,44.3548889 21.9027654,43.896 21.6485432,43.5026667 C21.394321,43.1093333 21.0325432,42.8077778 20.5632099,42.598 C20.0938765,42.3882222 19.5430617,42.2833333 18.9107654,42.2833333 L18.9107654,42.2833333 L15.6156543,42.2833333 L15.6156543,49.1666667 L17.9232099,49.1666667 Z M18.7640988,45.6856667 L17.9232099,45.6856667 L17.9232099,44.073 L18.7640988,44.073 C19.0769877,44.073 19.3116543,44.1434722 19.4680988,44.2844167 C19.6245432,44.4253611 19.7027654,44.6236667 19.7027654,44.8793333 C19.7027654,45.135 19.6245432,45.3333056 19.4680988,45.47425 C19.3116543,45.6151944 19.0769877,45.6856667 18.7640988,45.6856667 L18.7640988,45.6856667 Z M26.6688889,49.1666667 L26.6688889,44.0828333 L28.6733333,44.0828333 L28.6733333,42.2833333 L22.3568889,42.2833333 L22.3568889,44.0828333 L24.3613333,44.0828333 L24.3613333,49.1666667 L26.6688889,49.1666667 Z M31.2101235,49.1666667 L32.3639012,47.3278333 L33.5470123,49.1666667 L36.1870123,49.1666667 L33.6643457,45.607 L36.0403457,42.2833333 L33.5567901,42.2833333 L32.4225679,44.014 L31.2590123,42.2833333 L28.6679012,42.2833333 L31.053679,45.6955 L28.5799012,49.1666667 L31.2101235,49.1666667 Z" id="PPTX" fill="#7F93A8"></path>
                        </g>
                    </g>
                </g>
            </g>
        </g>
    </g>
</svg>