<svg xmlns="http://www.w3.org/2000/svg" xmlns:xlink="http://www.w3.org/1999/xlink" width="101" height="24" viewBox="0 0 101 24">
    <defs>
        <path id="a" d="M0 23.898h100.25V0H0z"/>
    </defs>
    <g fill="none" fill-rule="evenodd">
        <mask id="b" fill="#fff">
            <use xlink:href="#a"/>
        </mask>
        <g fill="#ED3D48" mask="url(#b)">
            <path d="M10.234 17.79l-3.425-5.738 6.8-11.053L20.475 1z"/>
            <path d="M13.76 23.545l-3.526-5.756h12.65l3.375 5.756zM4.067 16.979l4.115 6.566H0l4.004-6.566z"/>
        </g>
        <g fill="#273D57" mask="url(#b)">
            <path d="M76.918 18.998h2.88V6.823h-2.88zM82.529 18.998h2.842v-7.74l6.337 7.74h2.448V6.823h-2.841v7.497l-6.131-7.497h-2.655zM35.258 18.998h9.403v-2.435h-6.524v-9.74h-2.88zM51.914 19.189c.881 0 1.672-.113 2.38-.34a4.874 4.874 0 0 0 1.807-1.025 4.42 4.42 0 0 0 1.15-1.716c.264-.688.398-1.493.401-2.415v-6.87h-2.878v6.975c-.003.643-.116 1.182-.34 1.614-.228.435-.548.76-.969.98-.42.217-.925.327-1.514.327-.59 0-1.094-.113-1.514-.339a2.261 2.261 0 0 1-.966-1.009c-.228-.446-.34-1-.343-1.66V6.822H46.25v6.957c.007 1.195.234 2.195.689 2.994a4.297 4.297 0 0 0 1.944 1.81c.844.402 1.854.605 3.032.605M60.587 18.998h2.823V11.1l3.645 5.149h.075l3.682-5.2v7.948h2.86V6.823h-3.103l-3.439 5.149-3.44-5.149h-3.103z"/>
        </g>
    </g>
</svg>
