<svg xmlns="http://www.w3.org/2000/svg" xmlns:xlink="http://www.w3.org/1999/xlink" width="188" height="120" viewBox="0 0 188 120">
    <defs>
        <linearGradient id="a" x1="50%" x2="-33.696%" y1="19.686%" y2="294.476%">
            <stop offset="0%" stop-color="#F7FAFF"/>
            <stop offset="100%" stop-color="#6B9AD9"/>
        </linearGradient>
        <linearGradient id="b" x1="50%" x2="-33.812%" y1="49.185%" y2="56.572%">
            <stop offset="0%" stop-color="#F7FAFF"/>
            <stop offset="100%" stop-color="#6B9AD9"/>
        </linearGradient>
        <linearGradient id="c" x1="61.633%" x2="-172.763%" y1="41.769%" y2="59.481%">
            <stop offset="0%" stop-color="#E5EDFF"/>
            <stop offset="100%" stop-color="#6B9AD9"/>
        </linearGradient>
        <linearGradient id="d" x1="50%" x2="-33.812%" y1="49.632%" y2="52.97%">
            <stop offset="0%" stop-color="#F7FAFF"/>
            <stop offset="100%" stop-color="#6B9AD9"/>
        </linearGradient>
        <linearGradient id="e" x1="108.253%" x2="20.438%" y1="-234.086%" y2="285.14%">
            <stop offset="0%" stop-color="#E5EDFF"/>
            <stop offset="100%" stop-color="#6B9AD9"/>
        </linearGradient>
        <linearGradient id="f" x1="51.952%" x2="0%" y1="1.963%" y2="216.304%">
            <stop offset="0%" stop-color="#F7FAFF"/>
            <stop offset="100%" stop-color="#6B9AD9"/>
        </linearGradient>
        <linearGradient id="g" x1="129.448%" x2="100.911%" y1="-39.692%" y2="115.938%">
            <stop offset="0%" stop-color="#E5EDFF"/>
            <stop offset="100%" stop-color="#6B9AD9"/>
        </linearGradient>
        <linearGradient id="h" x1="50%" x2="50%" y1="-104.29%" y2="100%">
            <stop offset="0%" stop-color="#FFF"/>
            <stop offset="100%" stop-color="#B3CDEF"/>
        </linearGradient>
        <linearGradient id="i" x1="157.42%" x2="118.836%" y1="49.467%" y2="50.392%">
            <stop offset="0%" stop-color="#E5EDFF"/>
            <stop offset="100%" stop-color="#6B9AD9"/>
        </linearGradient>
        <linearGradient id="j" x1="50%" x2="50%" y1="-104.29%" y2="100%">
            <stop offset="0%" stop-color="#FFF"/>
            <stop offset="100%" stop-color="#B3CDEF"/>
        </linearGradient>
        <linearGradient id="k" x1="50%" x2="61.11%" y1="79.011%" y2="-300.91%">
            <stop offset="0%" stop-color="#F7FAFF"/>
            <stop offset="100%" stop-color="#6B9AD9"/>
        </linearGradient>
        <linearGradient id="l" x1="100%" x2="-315.227%" y1="-237.018%" y2="904.962%">
            <stop offset="0%" stop-color="#F7FAFF"/>
            <stop offset="100%" stop-color="#6B9AD9"/>
        </linearGradient>
        <linearGradient id="m" x1="100%" x2="-315.227%" y1="-237.018%" y2="904.962%">
            <stop offset="0%" stop-color="#F7FAFF"/>
            <stop offset="100%" stop-color="#6B9AD9"/>
        </linearGradient>
        <linearGradient id="n" x1="100%" x2="-315.227%" y1="-237.018%" y2="904.962%">
            <stop offset="0%" stop-color="#F7FAFF"/>
            <stop offset="100%" stop-color="#6B9AD9"/>
        </linearGradient>
        <linearGradient id="o" x1="79.383%" x2="50%" y1="34.276%" y2="71.479%">
            <stop offset="0%" stop-color="#F7FAFF"/>
            <stop offset="100%" stop-color="#6B9AD9"/>
        </linearGradient>
        <linearGradient id="p" x1="123.127%" x2="96.861%" y1="-39.692%" y2="115.938%">
            <stop offset="0%" stop-color="#E5EDFF"/>
            <stop offset="100%" stop-color="#6B9AD9"/>
        </linearGradient>
        <linearGradient id="q" x1="50%" x2="-32.425%" y1="19.686%" y2="294.476%">
            <stop offset="0%" stop-color="#F7FAFF"/>
            <stop offset="100%" stop-color="#6B9AD9"/>
        </linearGradient>
        <linearGradient id="r" x1="79.383%" x2="50%" y1="-45.672%" y2="180.687%">
            <stop offset="0%" stop-color="#F7FAFF"/>
            <stop offset="100%" stop-color="#6B9AD9"/>
        </linearGradient>
        <linearGradient id="s" x1="50%" x2="-33.812%" y1="21.501%" y2="279.838%">
            <stop offset="0%" stop-color="#F7FAFF"/>
            <stop offset="100%" stop-color="#6B9AD9"/>
        </linearGradient>
        <linearGradient id="t" x1="73.8%" x2="50%" y1="-51.765%" y2="189.01%">
            <stop offset="0%" stop-color="#F7FAFF"/>
            <stop offset="100%" stop-color="#6B9AD9"/>
        </linearGradient>
        <linearGradient id="v" x1="50%" x2="-12.737%" y1="19.686%" y2="294.476%">
            <stop offset="0%" stop-color="#F7FAFF"/>
            <stop offset="100%" stop-color="#6B9AD9"/>
        </linearGradient>
        <path id="u" d="M0 0h22.693v26.23H0z"/>
        <linearGradient id="x" x1="79.383%" x2="50%" y1="-49.675%" y2="186.155%">
            <stop offset="0%" stop-color="#F7FAFF"/>
            <stop offset="100%" stop-color="#6B9AD9"/>
        </linearGradient>
        <linearGradient id="y" x1="50%" x2="50%" y1="-104.29%" y2="100%">
            <stop offset="0%" stop-color="#FFF"/>
            <stop offset="100%" stop-color="#B3CDEF"/>
        </linearGradient>
        <linearGradient id="z" x1="64.132%" x2="59.056%" y1="-39.692%" y2="115.938%">
            <stop offset="0%" stop-color="#E5EDFF"/>
            <stop offset="100%" stop-color="#6B9AD9"/>
        </linearGradient>
        <linearGradient id="A" x1="125.307%" x2="98.257%" y1="-39.692%" y2="115.938%">
            <stop offset="0%" stop-color="#E5EDFF"/>
            <stop offset="100%" stop-color="#6B9AD9"/>
        </linearGradient>
        <linearGradient id="B" x1="50%" x2="50%" y1="0%" y2="189.01%">
            <stop offset="0%" stop-color="#F7FAFF"/>
            <stop offset="100%" stop-color="#FFF"/>
        </linearGradient>
        <linearGradient id="C" x1="67.182%" x2="50%" y1="-51.765%" y2="189.01%">
            <stop offset="0%" stop-color="#F7FAFF"/>
            <stop offset="100%" stop-color="#6B9AD9"/>
        </linearGradient>
        <linearGradient id="D" x1="50%" x2="-33.812%" y1="39.374%" y2="135.699%">
            <stop offset="0%" stop-color="#F7FAFF"/>
            <stop offset="100%" stop-color="#6B9AD9"/>
        </linearGradient>
        <linearGradient id="E" x1="83.28%" x2="59.889%" y1="49.496%" y2="50.615%">
            <stop offset="0%" stop-color="#476DB1"/>
            <stop offset="100%" stop-color="#283F6F"/>
        </linearGradient>
        <linearGradient id="F" x1="66.68%" x2="54.956%" y1="11.256%" y2="97.31%">
            <stop offset="0%" stop-color="#476DB1"/>
            <stop offset="100%" stop-color="#283F6F"/>
        </linearGradient>
        <linearGradient id="G" x1="61.627%" x2="61.627%" y1="22.214%" y2="146.271%">
            <stop offset="0%" stop-color="#476DB1"/>
            <stop offset="100%" stop-color="#283F6F"/>
        </linearGradient>
        <linearGradient id="H" x1="100%" x2="0%" y1="50%" y2="50%">
            <stop offset="0%" stop-color="#2865C6"/>
            <stop offset="100%" stop-color="#10378A"/>
        </linearGradient>
        <linearGradient id="I" x1="50%" x2="55.228%" y1="39.514%" y2="75.297%">
            <stop offset="0%" stop-color="#1542AB"/>
            <stop offset="100%" stop-color="#2B68EE"/>
        </linearGradient>
        <linearGradient id="J" x1="100%" x2="0%" y1="50%" y2="50%">
            <stop offset="0%" stop-color="#2865C6"/>
            <stop offset="100%" stop-color="#10378A"/>
        </linearGradient>
        <linearGradient id="K" x1="60.731%" x2="52.081%" y1="6.787%" y2="50%">
            <stop offset="0%" stop-color="#3485F7"/>
            <stop offset="100%" stop-color="#1A57CF"/>
        </linearGradient>
        <linearGradient id="L" x1="61.627%" x2="61.627%" y1="22.214%" y2="146.271%">
            <stop offset="0%" stop-color="#476DB1"/>
            <stop offset="100%" stop-color="#283F6F"/>
        </linearGradient>
        <linearGradient id="M" x1="61.627%" x2="61.627%" y1="22.214%" y2="146.271%">
            <stop offset="0%" stop-color="#476DB1"/>
            <stop offset="100%" stop-color="#283F6F"/>
        </linearGradient>
        <linearGradient id="N" x1="83.28%" x2="59.889%" y1="45.669%" y2="55.288%">
            <stop offset="0%" stop-color="#476DB1"/>
            <stop offset="100%" stop-color="#283F6F"/>
        </linearGradient>
        <linearGradient id="O" x1="50%" x2="50%" y1="-10.877%" y2="100%">
            <stop offset="0%" stop-color="#FFE579"/>
            <stop offset="100%" stop-color="#FEB755"/>
        </linearGradient>
        <linearGradient id="P" x1="50%" x2="50%" y1="-10.877%" y2="90.689%">
            <stop offset="0%" stop-color="#FFECB3"/>
            <stop offset="100%" stop-color="#FEC35F"/>
        </linearGradient>
        <linearGradient id="Q" x1="51.752%" x2="53.948%" y1="79.653%" y2="50%">
            <stop offset="0%" stop-color="#F5B79C"/>
            <stop offset="100%" stop-color="#EC906C"/>
        </linearGradient>
        <linearGradient id="R" x1="68.657%" x2="26.001%" y1="109.304%" y2="-47.176%">
            <stop offset="0%" stop-color="#032258"/>
            <stop offset="100%" stop-color="#133E94"/>
        </linearGradient>
        <linearGradient id="S" x1="-16.574%" x2="83.636%" y1="115.57%" y2="29.345%">
            <stop offset="0%" stop-color="#FAD0BA"/>
            <stop offset="100%" stop-color="#F2A384"/>
        </linearGradient>
        <linearGradient id="T" x1="50%" x2="50%" y1="-10.877%" y2="100%">
            <stop offset="0%" stop-color="#FFE579"/>
            <stop offset="100%" stop-color="#FEB755"/>
        </linearGradient>
        <linearGradient id="U" x1="50%" x2="50%" y1="-10.877%" y2="90.689%">
            <stop offset="0%" stop-color="#FFECB3"/>
            <stop offset="100%" stop-color="#FEC35F"/>
        </linearGradient>
        <linearGradient id="V" x1="56.381%" x2="54.089%" y1="-39.692%" y2="115.938%">
            <stop offset="0%" stop-color="#E5EDFF"/>
            <stop offset="100%" stop-color="#6B9AD9"/>
        </linearGradient>
        <linearGradient id="W" x1="82.964%" x2="59.795%" y1="11.256%" y2="97.31%">
            <stop offset="0%" stop-color="#476DB1"/>
            <stop offset="100%" stop-color="#283F6F"/>
        </linearGradient>
        <linearGradient id="X" x1="50%" x2="50%" y1="-142.327%" y2="170.165%">
            <stop offset="0%" stop-color="#95B7E5"/>
            <stop offset="100%" stop-color="#476DB1"/>
        </linearGradient>
        <linearGradient id="Y" x1="75.057%" x2="57.446%" y1="11.256%" y2="97.31%">
            <stop offset="0%" stop-color="#476DB1"/>
            <stop offset="100%" stop-color="#283F6F"/>
        </linearGradient>
        <linearGradient id="Z" x1="109.224%" x2="50.158%" y1="25.34%" y2="70.686%">
            <stop offset="0%" stop-color="#F59BA9"/>
            <stop offset="100%" stop-color="#F25267"/>
        </linearGradient>
        <linearGradient id="aa" x1="9797.155%" x2="75.941%" y1="49.932%" y2="50.057%">
            <stop offset="0%" stop-color="#F59BA9"/>
            <stop offset="100%" stop-color="#F25267"/>
        </linearGradient>
        <linearGradient id="ab" x1="50%" x2="50%" y1="-104.29%" y2="100%">
            <stop offset="0%" stop-color="#FFF"/>
            <stop offset="100%" stop-color="#B3CDEF"/>
        </linearGradient>
        <linearGradient id="ac" x1="50%" x2="50%" y1="-10.877%" y2="100%">
            <stop offset="0%" stop-color="#FFE579"/>
            <stop offset="100%" stop-color="#FEB755"/>
        </linearGradient>
        <linearGradient id="ad" x1="50%" x2="50%" y1="-142.327%" y2="170.165%">
            <stop offset="0%" stop-color="#95B7E5"/>
            <stop offset="100%" stop-color="#476DB1"/>
        </linearGradient>
        <linearGradient id="ae" x1="50%" x2="50%" y1="-47.448%" y2="450.146%">
            <stop offset="0%" stop-color="#95B7E5"/>
            <stop offset="100%" stop-color="#476DB1"/>
        </linearGradient>
        <linearGradient id="af" x1="50.653%" x2="50.418%" y1="-39.692%" y2="115.938%">
            <stop offset="0%" stop-color="#E5EDFF"/>
            <stop offset="100%" stop-color="#6B9AD9"/>
        </linearGradient>
        <linearGradient id="ag" x1="157.42%" x2="118.836%" y1="49.752%" y2="50.183%">
            <stop offset="0%" stop-color="#E5EDFF"/>
            <stop offset="100%" stop-color="#6B9AD9"/>
        </linearGradient>
        <linearGradient id="ah" x1="50%" x2="50%" y1="-142.327%" y2="170.165%">
            <stop offset="0%" stop-color="#95B7E5"/>
            <stop offset="100%" stop-color="#476DB1"/>
        </linearGradient>
        <linearGradient id="ai" x1="83.28%" x2="59.889%" y1="49.961%" y2="50.047%">
            <stop offset="0%" stop-color="#476DB1"/>
            <stop offset="100%" stop-color="#283F6F"/>
        </linearGradient>
        <linearGradient id="aj" x1="50%" x2="57.815%" y1="32.119%" y2="115.978%">
            <stop offset="0%" stop-color="#84F0A8"/>
            <stop offset="100%" stop-color="#48B676"/>
        </linearGradient>
        <linearGradient id="ak" x1="157.42%" x2="118.836%" y1="14.562%" y2="76.052%">
            <stop offset="0%" stop-color="#E5EDFF"/>
            <stop offset="100%" stop-color="#6B9AD9"/>
        </linearGradient>
        <linearGradient id="al" x1="149.379%" x2="157.42%" y1="44.935%" y2="56.292%">
            <stop offset="0%" stop-color="#E5EDFF"/>
            <stop offset="100%" stop-color="#6B9AD9"/>
        </linearGradient>
        <linearGradient id="am" x1="50%" x2="50%" y1="-104.29%" y2="100%">
            <stop offset="0%" stop-color="#FFF"/>
            <stop offset="100%" stop-color="#B3CDEF"/>
        </linearGradient>
        <linearGradient id="an" x1="141.586%" x2="-20.564%" y1="50.616%" y2="50.296%">
            <stop offset="0%" stop-color="#F7FAFF"/>
            <stop offset="100%" stop-color="#6B9AD9"/>
        </linearGradient>
        <linearGradient id="ao" x1="141.586%" x2="-20.564%" y1="50.909%" y2="50.436%">
            <stop offset="0%" stop-color="#F7FAFF"/>
            <stop offset="100%" stop-color="#6B9AD9"/>
        </linearGradient>
        <linearGradient id="ap" x1="157.42%" x2="118.836%" y1="49.754%" y2="50.181%">
            <stop offset="0%" stop-color="#E5EDFF"/>
            <stop offset="100%" stop-color="#6B9AD9"/>
        </linearGradient>
        <linearGradient id="aq" x1="79.383%" x2="50%" y1="1.9%" y2="115.704%">
            <stop offset="0%" stop-color="#F7FAFF"/>
            <stop offset="100%" stop-color="#6B9AD9"/>
        </linearGradient>
        <linearGradient id="ar" x1="79.383%" x2="50%" y1="33.867%" y2="72.038%">
            <stop offset="0%" stop-color="#F7FAFF"/>
            <stop offset="100%" stop-color="#6B9AD9"/>
        </linearGradient>
        <linearGradient id="as" x1="50%" x2="-12.736%" y1="19.686%" y2="294.476%">
            <stop offset="0%" stop-color="#F7FAFF"/>
            <stop offset="100%" stop-color="#6B9AD9"/>
        </linearGradient>
        <linearGradient id="at" x1="50%" x2="-26.725%" y1="19.686%" y2="294.476%">
            <stop offset="0%" stop-color="#F7FAFF"/>
            <stop offset="100%" stop-color="#6B9AD9"/>
        </linearGradient>
        <linearGradient id="au" x1="50%" x2="50%" y1="-104.29%" y2="100%">
            <stop offset="0%" stop-color="#FFF"/>
            <stop offset="100%" stop-color="#B3CDEF"/>
        </linearGradient>
        <linearGradient id="av" x1="50%" x2="53.813%" y1="32.119%" y2="115.978%">
            <stop offset="0%" stop-color="#84F0A8"/>
            <stop offset="100%" stop-color="#48B676"/>
        </linearGradient>
        <linearGradient id="aw" x1="53.252%" x2="50%" y1="0%" y2="100%">
            <stop offset="0%" stop-color="#FFF"/>
            <stop offset="100%" stop-color="#E5EEFF"/>
        </linearGradient>
        <linearGradient id="ax" x1="157.42%" x2="118.836%" y1="14.426%" y2="76.153%">
            <stop offset="0%" stop-color="#E5EDFF"/>
            <stop offset="100%" stop-color="#6B9AD9"/>
        </linearGradient>
        <linearGradient id="ay" x1="149.379%" x2="157.42%" y1="44.916%" y2="56.316%">
            <stop offset="0%" stop-color="#E5EDFF"/>
            <stop offset="100%" stop-color="#6B9AD9"/>
        </linearGradient>
    </defs>
    <g fill="none" fill-rule="evenodd">
        <g fill="#E2EBFC" opacity=".806" transform="translate(0 108)">
            <ellipse cx="98.781" cy="6" rx="52.043" ry="6"/>
            <ellipse cx="164.249" cy="9.38" rx="14.751" ry="2.62"/>
            <ellipse cx="28.176" cy="3.465" rx="28.176" ry="3.465"/>
        </g>
        <g fill-rule="nonzero" transform="translate(121 94)">
            <path fill="url(#a)" d="M0 .992h20l-3.279 20.014H3.28z"/>
            <ellipse cx="10" cy="20.759" fill="url(#b)" rx="6.557" ry="1.075"/>
            <ellipse cx="11.557" cy="20.594" fill="url(#c)" rx="4.344" ry="1"/>
            <ellipse cx="9.918" cy="1.075" fill="url(#d)" rx="9.754" ry="1.075"/>
            <path fill="url(#e)" d="M.003 1.099C.436 1.043.71.957.827.842 1.113.561 1.088 0 1.568 0c.775 0 1.35.14 1.723.417.444.06.795.037 1.052-.068.54.037.271.646.271 1.103-.457.293-.61.444-.459.452l.763.223L3.916 3.82c-1.052.281-1.695.281-1.927 0-.078-.095-.772.624-.772.456 0-1.033.094-1.484-.053-1.637-.049-.05-.27.197-.337.114-.103-.13-.552-.368-.724-.726-.08-.167-.114-.476-.1-.927z" transform="translate(6.393 16.707)"/>
            <path fill="url(#f)" d="M.436 2.426c0 .15-.194-.602-.226-.658-.17-.298-.237-.522-.2-.671C.056.913.71.767.748.67.87.36.91.166 1.14.08 1.514-.06 2.64-.053 2.91.408c.047.08-.063.243-.33.49-.01.01-.505.129-.756.053-.083-.024.231-.327.21-.372-.043-.092-.356.065-.409.09-.085.04-.113.262.036.39.081.069.38.053.373.098-.005.033-.357.083-.409.08-.126-.01-.308-.146-.547-.408-.014.371.007.586.064.645.027.027-.072-.404-.027-.416.113-.028.405.296.51.304.14.01.295-.018.466-.085.021-.008-.232.337-.21.327.032-.014.345-.387.39-.412a8.61 8.61 0 0 0 .39-.24L3.244.67C4.032.362 4.373.332 4.269.58c-.157.372-.348 1.255-.72 1.223-.267-.024-.295.014-.497.094-.141.056.358 0 .561.045.498.106 1.33.13 1.304.223-.049.174-.986 1.124-1.304 1.264-.05.023.006-.574-.368-1.05-.078-.098-.3-.147-.666-.146.31.06.498.144.564.252.32.515.253 1.085.227 1.094-.655.245-1.72 1.11-2.16.833-.079-.05.43-1.303.414-1.464-.009-.09-.094-.353-.205-.389-.075-.024-.183.18-.209.135-.04-.067.13-.282.209-.315.153-.063 1.623-.418 1.525-.437-.132-.026-1.864.29-1.734.223.1-.053.305-.222.613-.508-.282.136-.486.205-.613.205s-.193-.069-.197-.205l-.577.235v.534z" transform="translate(6.393 16.707)"/>
            <path fill="#D2D9FF" d="M7.05 19.034c.084.323.153.485.206.485.044 0 .064-.254.136-.485.06-.189.183-.367.14-.34-.064.041-.225.154-.483.34z"/>
            <g>
                <path fill="url(#e)" d="M.003 1.099C.436 1.043.71.957.827.842 1.113.561 1.088 0 1.568 0c.775 0 1.35.14 1.723.417.444.06.795.037 1.052-.068.54.037.271.646.271 1.103-.457.293-.61.444-.459.452l.763.223L3.916 3.82c-1.052.281-1.695.281-1.927 0-.078-.095-.772.624-.772.456 0-1.033.094-1.484-.053-1.637-.049-.05-.27.197-.337.114-.103-.13-.552-.368-.724-.726-.08-.167-.114-.476-.1-.927z" transform="rotate(144 4.244 10.424)"/>
                <path fill="url(#f)" d="M.436 2.426c0 .15-.194-.602-.226-.658-.17-.298-.237-.522-.2-.671C.056.913.71.767.748.67.87.36.91.166 1.14.08 1.514-.06 2.64-.053 2.91.408c.047.08-.063.243-.33.49-.01.01-.505.129-.756.053-.083-.024.231-.327.21-.372-.043-.092-.356.065-.409.09-.085.04-.113.262.036.39.081.069.38.053.373.098-.005.033-.357.083-.409.08-.126-.01-.308-.146-.547-.408-.014.371.007.586.064.645.027.027-.072-.404-.027-.416.113-.028.405.296.51.304.14.01.295-.018.466-.085.021-.008-.232.337-.21.327.032-.014.345-.387.39-.412a8.61 8.61 0 0 0 .39-.24L3.244.67C4.032.362 4.373.332 4.269.58c-.157.372-.348 1.255-.72 1.223-.267-.024-.295.014-.497.094-.141.056.358 0 .561.045.498.106 1.33.13 1.304.223-.049.174-.986 1.124-1.304 1.264-.05.023.006-.574-.368-1.05-.078-.098-.3-.147-.666-.146.31.06.498.144.564.252.32.515.253 1.085.227 1.094-.655.245-1.72 1.11-2.16.833-.079-.05.43-1.303.414-1.464-.009-.09-.094-.353-.205-.389-.075-.024-.183.18-.209.135-.04-.067.13-.282.209-.315.153-.063 1.623-.418 1.525-.437-.132-.026-1.864.29-1.734.223.1-.053.305-.222.613-.508-.282.136-.486.205-.613.205s-.193-.069-.197-.205l-.577.235v.534z" transform="rotate(144 4.244 10.424)"/>
                <path fill="#D2D9FF" d="M11.907 14.866c-.258-.212-.41-.302-.452-.27-.036.026.098.242.175.472.063.187.067.404.086.357.028-.071.092-.257.191-.559z"/>
            </g>
            <g>
                <path fill="url(#e)" d="M.003 1.099C.436 1.043.71.957.827.842 1.113.561 1.088 0 1.568 0c.775 0 1.35.14 1.723.417.444.06.795.037 1.052-.068.54.037.271.646.271 1.103-.457.293-.61.444-.459.452l.763.223L3.916 3.82c-1.052.281-1.695.281-1.927 0-.078-.095-.772.624-.772.456 0-1.033.094-1.484-.053-1.637-.049-.05-.27.197-.337.114-.103-.13-.552-.368-.724-.726-.08-.167-.114-.476-.1-.927z" transform="rotate(-133 11.262 8.11)"/>
                <path fill="url(#f)" d="M.436 2.426c0 .15-.194-.602-.226-.658-.17-.298-.237-.522-.2-.671C.056.913.71.767.748.67.87.36.91.166 1.14.08 1.514-.06 2.64-.053 2.91.408c.047.08-.063.243-.33.49-.01.01-.505.129-.756.053-.083-.024.231-.327.21-.372-.043-.092-.356.065-.409.09-.085.04-.113.262.036.39.081.069.38.053.373.098-.005.033-.357.083-.409.08-.126-.01-.308-.146-.547-.408-.014.371.007.586.064.645.027.027-.072-.404-.027-.416.113-.028.405.296.51.304.14.01.295-.018.466-.085.021-.008-.232.337-.21.327.032-.014.345-.387.39-.412a8.61 8.61 0 0 0 .39-.24L3.244.67C4.032.362 4.373.332 4.269.58c-.157.372-.348 1.255-.72 1.223-.267-.024-.295.014-.497.094-.141.056.358 0 .561.045.498.106 1.33.13 1.304.223-.049.174-.986 1.124-1.304 1.264-.05.023.006-.574-.368-1.05-.078-.098-.3-.147-.666-.146.31.06.498.144.564.252.32.515.253 1.085.227 1.094-.655.245-1.72 1.11-2.16.833-.079-.05.43-1.303.414-1.464-.009-.09-.094-.353-.205-.389-.075-.024-.183.18-.209.135-.04-.067.13-.282.209-.315.153-.063 1.623-.418 1.525-.437-.132-.026-1.864.29-1.734.223.1-.053.305-.222.613-.508-.282.136-.486.205-.613.205s-.193-.069-.197-.205l-.577.235v.534z" transform="rotate(-133 11.262 8.11)"/>
                <path fill="#D2D9FF" d="M14.266 19.81c.179-.282.25-.442.214-.482-.03-.032-.23.127-.448.232-.178.085-.393.116-.343.129.073.02.266.06.577.122z"/>
            </g>
        </g>
        <g fill-rule="nonzero">
            <path fill="url(#g)" d="M0 0h43v50H0z" transform="translate(8 61)"/>
            <path fill="url(#h)" d="M0 0h38.382v13.696H0z" transform="translate(10.31 63.31)"/>
            <path fill="url(#i)" d="M8.32 2.145h21.741a.908.908 0 1 1 0 1.815H8.321a.908.908 0 0 1 0-1.815z" transform="translate(10.31 63.31)"/>
            <path fill="url(#h)" d="M0 0h38.382v13.696H0z" transform="translate(10.31 79.317)"/>
            <path fill="url(#i)" d="M8.32 2.145h21.741a.908.908 0 1 1 0 1.815H8.321a.908.908 0 0 1 0-1.815z" transform="translate(10.31 79.317)"/>
            <g>
                <path fill="url(#h)" d="M0 0h38.382v13.696H0z" transform="translate(10.31 95.323)"/>
                <path fill="url(#i)" d="M8.32 2.145h21.741a.908.908 0 1 1 0 1.815H8.321a.908.908 0 0 1 0-1.815z" transform="translate(10.31 95.323)"/>
            </g>
        </g>
        <g fill-rule="nonzero">
            <path fill="url(#j)" d="M0 9.76h50V12H0z" transform="translate(14 19)"/>
            <g transform="translate(18.29 19)">
                <path fill="url(#k)" d="M3.053 0a2.393 2.393 0 0 1 2.393 2.393V8.48H.66V2.393A2.393 2.393 0 0 1 3.053 0z"/>
                <ellipse cx="4.373" cy="2.32" fill="url(#l)" rx="1" ry="1"/>
                <ellipse cx="3.3" cy="3.68" fill="url(#m)" rx="1" ry="1"/>
                <ellipse cx="4.62" cy="4.32" fill="url(#m)" rx="1" ry="1"/>
                <ellipse cx="3.713" cy="6.16" fill="url(#n)" rx="1" ry="1"/>
                <path fill="url(#o)" d="M2.4 7.36h1.306a2.4 2.4 0 0 1 2.4 2.4H0a2.4 2.4 0 0 1 2.4-2.4z"/>
            </g>
            <path fill="url(#p)" d="M2.64 1.28H1.62a.96.96 0 1 0 0 1.92h1.02v.64H1.6a1.6 1.6 0 1 1 0-3.2h1.04v.64z" transform="translate(25.716 24.6)"/>
            <path fill="url(#q)" d="M1.98 0h4.125v4.16H1.98z" transform="translate(25.716 24.6)"/>
            <path fill="url(#p)" d="M2.64 1.28H1.62a.96.96 0 1 0 0 1.92h1.02v.64H1.6a1.6 1.6 0 1 1 0-3.2h1.04v.64z" transform="translate(30.337 24.6)"/>
            <path fill="url(#q)" d="M1.98 0h4.125v4.16H1.98z" transform="translate(30.337 24.6)"/>
            <g>
                <path fill="url(#r)" d="M0 0h9.571v9.28H0z" transform="translate(40.568 19.48)"/>
                <path fill="url(#s)" d="M1.65 1.92h6.271V8H1.65z" transform="translate(40.568 19.48)"/>
            </g>
            <g>
                <path fill="url(#r)" d="M0 0h9.571v9.28H0z" transform="translate(52.449 19.48)"/>
                <path fill="url(#s)" d="M1.65 1.92h6.271V8H1.65z" transform="translate(52.449 19.48)"/>
            </g>
        </g>
        <path fill="url(#t)" fill-rule="nonzero" d="M0 0h27v30H0z" transform="translate(71 15)"/>
        <g transform="translate(73.153 16.967)">
            <mask id="w" fill="#fff">
                <use xlink:href="#u"/>
            </mask>
            <use fill="url(#v)" fill-rule="nonzero" xlink:href="#u"/>
            <g fill-rule="nonzero" mask="url(#w)">
                <g transform="translate(-1.325 2.787)">
                    <ellipse cx="19.96" cy="2.049" fill="url(#x)" rx="2.071" ry="2.049"/>
                    <path fill="url(#y)" d="M12.258 3.554c1.16 0 2.319 4.662 3.478 13.987H8.78C9.94 8.216 11.1 3.554 12.258 3.554z"/>
                    <path fill="#FFF" d="M14.085 10.957c-.632.1-1.296-.763-1.482-1.925-.186-1.163.176-2.185.809-2.284.632-.1 1.296.762 1.482 1.925.186 1.162-.176 2.185-.809 2.284z"/>
                    <path fill="url(#z)" d="M11.595 9.344v7.569c-2.098 1.478-3.147 1.478-3.147 0s1.049-4 3.147-7.569z"/>
                    <path fill="url(#A)" d="M14.742 14.262c2.098 1.546 3.148 2.639 3.148 3.279 0 .64-1.05.64-3.148 0v-3.279z"/>
                    <path fill="url(#B)" d="M10.662 23.199a2.24 2.24 0 0 1-1.8.9 2.24 2.24 0 0 1-1.675-.747 1.66 1.66 0 0 1-1.39.746 1.66 1.66 0 0 1-1.352-.693 1.245 1.245 0 0 1-.884.365c-.367 0-.697-.157-.925-.408-.28.254-.653.408-1.062.408-.87 0-1.574-.697-1.574-1.557s.705-1.557 1.574-1.557c.596 0 1.114.328 1.381.811.18-.099.386-.156.606-.156.313 0 .598.115.817.303a1.66 1.66 0 0 1 1.42-.794c.359 0 .692.113.963.305a2.236 2.236 0 0 1 2.101-1.453c.341 0 .665.076.954.211a1.571 1.571 0 0 1 1.53-1.194c.631 0 1.175.367 1.426.897.28-.252.651-.406 1.06-.406.585 0 1.096.317 1.367.787.329-.187.71-.295 1.117-.295.965 0 1.788.605 2.1 1.453a1.66 1.66 0 0 1 .964-.305c.603 0 1.13.318 1.42.794.219-.188.504-.303.817-.303.273 0 .525.088.73.236.253-.527.795-.891 1.423-.891.869 0 1.574.697 1.574 1.557s-.705 1.557-1.574 1.557c-.456 0-.867-.191-1.154-.498-.227.302-.59.498-1 .498-.345 0-.658-.14-.883-.365-.3.42-.794.693-1.353.693a1.66 1.66 0 0 1-1.39-.746 2.24 2.24 0 0 1-1.674.746 2.24 2.24 0 0 1-1.678-.75 2.07 2.07 0 0 1-1.966 1.406 2.067 2.067 0 0 1-2.01-1.555z"/>
                </g>
            </g>
        </g>
        <g fill-rule="nonzero">
            <path fill="url(#C)" d="M0 0h39v51H0z" transform="translate(127 8)"/>
            <path fill="url(#D)" d="M0 22.495h35.315v20.909H0zM0 0h35.315v20.909H0z" transform="translate(129 11)"/>
            <path fill="#FFF" d="M141.592 33.495h5.065l-8.684 20.764h-5.065zM141.592 11h5.065l-8.684 20.765h-5.065zM150.276 33.783h2.17l-8.683 20.765h-2.171zM150.276 11.288h2.17l-8.683 20.765h-2.171z"/>
        </g>
        <g fill-rule="nonzero">
            <path stroke="#6C90CA" stroke-linecap="round" stroke-linejoin="round" stroke-width="4" d="M99.588 47.559c3.764-6.112 8.396-8.392 13.896-6.84 5.5 1.551 7.86 11.719 7.079 30.501"/>
            <path fill="url(#E)" d="M24.741 31.927h12.351c1.008 0 1.825.817 1.825 1.824h-16c0-1.007.816-1.824 1.824-1.824z" transform="translate(90 40)"/>
            <path fill="url(#F)" d="M9.113 6.01a1.91 1.91 0 0 1 1.939 1.938l-.056 3.641-3.937.06.056-3.64A2.03 2.03 0 0 1 9.113 6.01z" transform="rotate(30 -20.585 196.772)"/>
            <path fill="url(#G)" d="M6.77 9.289a5.317 5.317 0 0 1 5.397 5.398l-.027 1.752-10.963.168.027-1.753a5.653 5.653 0 0 1 5.565-5.565z" transform="rotate(30 -22.969 200.89)"/>
        </g>
        <path fill="#F2A384" fill-rule="nonzero" d="M109.01 108.036c.039-.242 2.638-3.141 3.532-1.838.894 1.303 1.163 2.199 1.59 2.663.284.31.328.544.134.703l-2.003.705-1.305-.712c-1.323-.853-1.972-1.36-1.947-1.521z"/>
        <path fill="url(#H)" fill-rule="nonzero" d="M38.243 27.19c.462-.19 1.04.837 1.886.835.847-.002 1.375-.937 1.591-.843.632.274 1.55.405 2.559.727 2.483.791 2.723.905 2.36 2.09-.001.263-2.824.4-8.47.414-.226-.55-.348-1.063-.365-1.541-.025-.716-.023-1.492.439-1.682z" transform="rotate(-13 435.977 -250.462)"/>
        <path fill="url(#I)" fill-rule="nonzero" d="M.085 8.176c9.024 1.497 14.794 2.246 17.311 2.246 3.776 0 18.198 17.09 19.448 17.09s3.503-2.182 3.109-2.713c-.395-.532-10.947-19.554-15.21-20.955-2.84-.934-9.601-2.183-20.28-3.747L.085 8.176z" transform="translate(72.908 81.404)"/>
        <path stroke="#3485F7" stroke-dasharray="5,10" stroke-linecap="round" stroke-linejoin="round" d="M79.17 84.213l17.196 5.261 14.024 16.79"/>
        <path fill="#F2A384" fill-rule="nonzero" d="M83.09 109.135l3.03 1.408c-.423.603-.493 1.06-.21 1.369.284.309.395.309.332 0l-2 .705-1.304-.712.151-2.77z"/>
        <path fill="url(#J)" fill-rule="nonzero" d="M19.14 32.954c.42-.19.946.84 1.714.84s1.245-.935 1.442-.84c.574.275 1.406.409 2.323.733 2.255.797 2.473.911 2.145 2.096 0 .263-2.561.394-7.683.394-.207-.55-.32-1.064-.335-1.542-.024-.716-.024-1.493.395-1.681z" transform="translate(63.622 78.743)"/>
        <path fill="url(#K)" fill-rule="nonzero" d="M31.617 2.581c4.649 1.79 2.667 6.835 0 12.21-4.02 8.103-8.104 16.06-9.1 17.234-.218.258-2.956-.477-3.113-.61-.582-.494 1.194-7.005 5.329-19.533-3.397-.516-6.263-.516-8.6 0C12.63 12.657-1.112 14.431.08 7.44.873 2.778 4.079.33 9.694.096 21.211.56 28.518 1.388 31.617 2.58z" transform="translate(63.622 78.743)"/>
        <path stroke="#3485F7" stroke-dasharray="5,10" stroke-linecap="round" stroke-linejoin="round" d="M73.187 83.308c4.014.96 7.595 1.441 10.743 1.441 4.723 0 10.442-1.213 10.07 1.753-.247 1.977-3.171 9.396-8.77 22.256"/>
        <g fill-rule="nonzero">
            <path fill="url(#L)" d="M11.002 8.274l17.626-.046a1.136 1.136 0 0 1-1.134 1.133L12.13 9.4a1.124 1.124 0 0 1-1.127-1.127z" transform="rotate(-75 101.252 -22.717)"/>
            <path fill="url(#M)" d="M0 16.632h16.994a.582.582 0 0 1 0 1.164H1.164A1.164 1.164 0 0 1 0 16.632z" transform="translate(90.816 55.293)"/>
            <path fill="url(#N)" d="M15.918 17.131h1v1h-1zM14.426 17.131h1v1h-1z" transform="translate(90.816 55.293)"/>
        </g>
        <g fill-rule="nonzero">
            <path fill="url(#O)" d="M4.072.988c3.243-1.89 7.221-.477 8.092 1.41.87 1.888 3.341 1.91 2.313 10.46-.686 5.7-.154 9.136 1.596 10.305 1.95.144 2.237 1.094.86 2.85-2.063 2.634-3.594 4.32-7.5 4.805-2.605.324-4.958-.422-7.06-2.237-.615-4.348-1.044-6.876-1.287-7.584C.51 19.327-.447 12.014.478 9.206c.926-2.809.35-6.329 3.594-8.218z" transform="translate(59.643 54.794)"/>
            <path fill="url(#P)" d="M10.58.869l-.808.87L8.636.365 7.329 1.753 6.335.41 5.116 1.739l-.753-.91A6.624 6.624 0 0 1 7.138.1l.267.36.338-.359c1.06.049 2.05.337 2.837.767zm2.75 3.116c.449.576.893 1.31 1.155 2.564l-.032.035-1.136-1.374-1.307 1.388-.999-1.348-1.239 1.334L8.636 5.21 7.329 6.598l-.994-1.342-1.219 1.328L3.98 5.21 2.673 6.598 1.674 5.25l-.501.587a12.28 12.28 0 0 1 .447-1.802l.1-.117 1.03 1.388 1.27-1.35 1.128 1.365 1.228-1.403 1.029 1.388 1.27-1.35 1.13 1.365 1.252-1.403 1.029 1.388 1.244-1.32zm1.383 5.899c-.012.41-.035.848-.071 1.318l-.189.205-1.136-1.373-1.307 1.387-.999-1.348-1.239 1.334-1.136-1.373-1.307 1.387-.994-1.342-1.219 1.328-1.136-1.373-1.307 1.387-.999-1.348-.775.908-.63-.541 1.451-1.7 1.03 1.39 1.27-1.35 1.128 1.364L6.376 8.74l1.029 1.388 1.27-1.349 1.13 1.364 1.252-1.403 1.029 1.388 1.27-1.349 1.13 1.364.227-.26zm-.424 4.845c-.033.419-.058.823-.075 1.212l-.897-1.084-1.307 1.387-.999-1.348-1.239 1.334-1.136-1.373-1.307 1.387-.994-1.342-1.219 1.328-1.136-1.373-1.307 1.387-.999-1.348-.775.908-.63-.54 1.451-1.7 1.03 1.389 1.27-1.35 1.128 1.364 1.228-1.403 1.029 1.389 1.27-1.35 1.13 1.364 1.252-1.403 1.029 1.389 1.27-1.35.933 1.126zm.06 4.895a9.5 9.5 0 0 0 .265 1.254l-.16.175-1.137-1.373-1.307 1.388-.999-1.349-1.239 1.334-1.136-1.373-1.307 1.388-.994-1.343-1.219 1.328L3.98 19.68l-1.307 1.388-.999-1.349-.716.84c-.071-.28-.146-.626-.22-1.022l.982-1.15 1.03 1.389 1.27-1.35 1.128 1.364 1.228-1.403 1.029 1.389 1.27-1.35 1.13 1.364 1.252-1.403 1.029 1.389 1.27-1.35.992 1.198zm3.243 4.072c.237.276.259.656.067 1.14l-.993 1.055-.995-1.343-1.218 1.328-1.136-1.373-1.307 1.388-.999-1.349-1.239 1.334-1.136-1.373-1.307 1.388-.994-1.343-1.219 1.328-1.136-1.373-1.307 1.388-.872-1.178c-.078-.493-.151-.94-.22-1.34l.14-.163L2.748 24.6l1.27-1.35 1.13 1.364 1.227-1.403L7.405 24.6l1.27-1.35 1.13 1.364 1.252-1.403 1.029 1.389 1.27-1.35 1.13 1.364 1.227-1.403 1.029 1.389.85-.903zm-3.45 5.325a8.16 8.16 0 0 1-.682.479l-.143-.174-.51.542c-.338.17-.7.32-1.09.451l-.706-.953-1.239 1.333-1.136-1.373-1.307 1.388-.994-1.342-.938 1.022c-.277-.1-.55-.215-.82-.345l-.597-.723-.245.26a10.146 10.146 0 0 1-.696-.472l.98-1.041 1.13 1.363 1.227-1.403 1.029 1.39 1.27-1.35 1.13 1.363 1.252-1.403 1.029 1.39 1.27-1.35.785.948z" transform="translate(59.643 54.794)"/>
            <path fill="#EEB75E" d="M70.928 56.128c.226.455.384.987.448 1.606.284 2.741.928 5.478 1.932 8.212.197.489.481.94.853 1.35l-.042.356c-.477 3.968-.364 6.838.339 8.61-3.535.136-6.062-.303-7.58-1.316-4.02-2.682-6.418-10.573-5.8-15.118.043-.31.092-.605.147-.886.405-1.23 1.093-2.347 2.49-3.16 2.587-1.507 5.64-.914 7.213.346z" opacity=".5"/>
        </g>
        <g>
            <path fill="url(#Q)" d="M9.87 16.436c-3.564 3.037-5.64.86-4.978 0 .461-.599.34-2.264-.363-4.997 3.546-3.042 5.19-4.046 4.933-3.013-.385 1.55-.077.172-.154 2.41-.05 1.466.137 3.294.562 5.482v.118z" transform="scale(-1 1) rotate(-9 208.513 510.324)"/>
            <path fill="url(#R)" fill-rule="nonzero" d="M2.03 8.51C1.921 7.008 1.404 5.944.477 5.32c-1.391-.936.574-3.635 3.339-4.64 2.765-1.004 5.985-.755 8.49 2.074 2.505 2.83 2.182 5.67 1.674 8.89-.509 3.22 5.411 5.858 4.084 10.616-1.326 4.758-7.398 2.58-7.874 1.04-.477-1.541 1.496-6.14 0-7.147-.997-.671-1.388-2.076-1.174-4.215L2.03 8.511z" transform="scale(-1 1) rotate(-9 208.513 510.324)"/>
            <path fill="url(#S)" d="M1.606 8.52l-.1-1.432c-.431-1.02.228-2.229.648-2.034 1.19.55 3.612 1.638 5.261 2.178.295.097.638 1.686.872 1.742.275.064.428-1.413.584-1.424.482-.499 1.76-.75 1.827 1.044.044 1.195-.426 1.72-1.412 1.573l-.254 2.034c-1.087 1.405-2.244 2.302-3.472 2.69-.994.315-1.651.335-1.972.061-.568-.486-1.162-1.907-1.671-3.94-.324-.088-.966-.065-.966-.467 0-.149.47-1.416.655-2.025z" transform="scale(-1 1) rotate(-9 208.513 510.324)"/>
        </g>
        <g fill-rule="nonzero">
            <path fill="#F2A384" d="M84.542 70.784l3.17-.338c1.262-.75 2.322-1.125 3.179-1.125 1.285 0 2.962 1.47 3.953 1.627.991.156.1.799-.362.799-.463 0-.76-.577-2.292-.256-1.532.321-1.722.973-2.225 1.093-.336.08-.937.039-1.805-.126l-3.308 1.203-.31-2.877z"/>
            <path fill="url(#T)" d="M4.09.056c1.338-.306 5.136.56 5.561 4.673.426 4.111 1.084 8.324 1.53 9.295.446.971 2.424 5.94 10.696 2.717 1.047-.063 1.676.44 1.889 1.508a4.677 4.677 0 0 1-.408 3.067c-7.486 2.45-12.568 2.78-15.248.993-4.02-2.682-8.62-11.565-8-16.11C.728 1.652 2.753.361 4.09.055z" transform="translate(61.798 52.632)"/>
            <path fill="url(#U)" d="M12.408 15.981l-.354-.039.022 1.909-1.653-.274.033 1.823-1.769-.196.021 1.908-1.645-.272.016.66a13.674 13.674 0 0 1-.875-.864l-.038-.788 1.702.282-.02-1.856 1.756.195-.07-1.882 1.702.282-.021-1.856.504.056c.179.288.405.603.69.912zm-1.595-3.244l-.945-.672-.904 1.68-1.313-1.043-.852 1.61-1.453-1.031-.903 1.68-1.307-1.04-.653 1.252a29.31 29.31 0 0 1-.455-.923l.802-1.632 1.353 1.075.878-1.634 1.443 1.025.848-1.68 1.352 1.073.879-1.633.996.708c.08.439.158.837.234 1.185zM6.626.437c.159.068.317.146.474.234l.896.636c.248.221.482.475.69.764l-.283.544-1.452-1.031-.904 1.68L4.734 2.22l-.852 1.61L2.429 2.8l-.903 1.68-.873-.694c.097-.292.203-.561.315-.81l.297.236.88-1.633 1.442 1.024.848-1.68 1.352 1.074.84-1.56zm3.18 5.697c.057.496.117.987.178 1.469l-.04.077L8.492 6.65l-.904 1.68-1.313-1.044-.852 1.61L3.97 7.864l-.904 1.68L1.76 8.504l-.834 1.599-.524-.373c-.096-.404-.173-.8-.23-1.182l.46.327.823-1.674 1.352 1.074.88-1.633 1.442 1.024.848-1.68L7.328 7.06l.879-1.633 1.442 1.024.156-.318zm6.593 11.662c.29.02.595.024.917.011l.589 1.288-1.62.424.768 1.651-1.695.543.665 1.454c-.952.147-1.838.234-2.656.263l-.05-.1 1.669-.437-.772-1.686 1.684-.54-.828-1.69 1.67-.437-.34-.744zm4.562-.722c.296-.1.601-.21.916-.333.343-.02.641.02.895.12l-.588.394 1.24 1.448-1.442.856 1.193 1.375-1.244.833c-.398.12-.788.234-1.17.341l-.305-.355 1.47-.983-1.26-1.397 1.485-.88-1.205-1.409.015-.01z" transform="translate(61.798 52.632)"/>
        </g>
        <g fill-rule="nonzero">
            <path fill="url(#V)" d="M15.33 31.303h1.978v8.116H15.33z" transform="translate(53 63)"/>
            <g transform="translate(57.12 102.253)">
                <ellipse cx="1.484" cy="10.6" fill="url(#W)" rx="1.484" ry="1.491"/>
                <ellipse cx="22.253" cy="10.6" fill="url(#W)" rx="1.484" ry="1.491"/>
                <ellipse cx="12.198" cy="12.256" fill="url(#W)" rx="1.484" ry="1.491"/>
                <path fill="url(#X)" d="M10.206 1.972A1.907 1.907 0 0 1 12.265.05a2.02 2.02 0 0 1 1.853 1.792l2.147 1.476 6.912 4.755a1.008 1.008 0 0 1 .207 1.472 1.324 1.324 0 0 1-1.662.316L13.87 5.52l-.43 5.615a1.22 1.22 0 0 1-1.185 1.126 1.177 1.177 0 0 1-1.202-1.068l-.54-5.828-8.13 4.496a1.324 1.324 0 0 1-1.662-.316 1.008 1.008 0 0 1 .206-1.472l9.214-6.338.064.237z"/>
            </g>
            <path fill="url(#Y)" d="M.476 6.413v-3.81c0-.585.208-1.152.587-1.597a2.439 2.439 0 0 1 3.45-.271l1.194 1.026a8.462 8.462 0 0 1 2.937 6.067c.205 4.926.714 8.788 1.527 11.585 1.504 5.175 7.012 5.99 13.909 5.99 6.896 0 6.464 4.507 4.556 6.969-1.908 2.461-17.136 3.663-23.56-1.653C.792 27.175-.741 19.073.476 6.413z" transform="translate(53 63)"/>
        </g>
        <g fill-rule="nonzero">
            <path fill="#F2F5FF" d="M126 67.474h11.68v2.053H126z"/>
            <path fill="#D33C50" d="M126.16 67.634c.281.025.505.427.505.92 0 .492-.224.894-.505.919v-1.84z"/>
            <path fill="url(#Z)" d="M0 .474h1v2.053H0z" transform="translate(126 67)"/>
            <path fill="url(#aa)" d="M.632 0h11.052a.316.316 0 1 1 0 .632H0C0 .282.283 0 .632 0zM0 2.368h11.684a.316.316 0 1 1 0 .632H.632A.632.632 0 0 1 0 2.368z" transform="translate(126 67)"/>
        </g>
        <g fill-rule="nonzero">
            <path fill="url(#ab)" d="M3.04.057c.573.061.375 1.44.532 1.696.158.253.6.33.538.882-.062.551-.488.533-.539.992-.05.458.908.398.826 1.122-.082.724-.82.943-.87 1.379-.048.436.318.607.21 1.572-.109.965-.855 1.163-1.97 1.247C.654 9.031-.037 8.706.07 7.665c.108-1.04 1.292-1.01 1.438-1.581.146-.569-.604-.879-.533-1.546.07-.668 1.197-.637 1.255-1.17.057-.534-.825-.824-.766-1.378.058-.554.282-.637.705-.827.423-.188.298-1.167.87-1.106z" transform="rotate(-16 271.923 -379.224)"/>
            <path fill="#98BBE9" d="M119.157 67.773c.492-.33.686-.765.59-1.322-.004-.028.01-.057.032-.065.023-.007.045.01.05.038.103.607-.112 1.09-.636 1.443.105.275.208.548.281.876.11.5.137.84.08 1.025.007.038-.011.078-.04.09-.03.012-.1.007-.106-.03a5.727 5.727 0 0 0-.101-.984c-.07-.403-.294-.938-.457-1.456-.356.158-.684.01-.978-.439-.015-.023-.013-.056.005-.074.019-.017.045-.013.06.01.272.415.563.546.883.406a3.492 3.492 0 0 1-.145-.68c-.035-.406.067-1.068.152-1.758-.364.145-.7-.014-.998-.473-.015-.023-.012-.056.006-.072.019-.017.046-.011.061.012.277.425.575.566.904.435a.038.038 0 0 1 .039.006c.056-.465.102-.94.09-1.352a3.896 3.896 0 0 0-.175-1.024c-.014 0-.026-.013-.026-.031 0-.01.003-.02.008-.028a6.823 6.823 0 0 0-.1-.29c-.212.074-.405-.022-.573-.283-.01-.016-.008-.037.005-.048.012-.01.031-.006.042.01.152.236.319.32.504.257-.08-.217-.16-.41-.216-.577-.161-.476-.225-1.073-.215-1.075.012-.002.08.609.246 1.068.095.266.235.573.353.923.178-.035.296-.184.357-.452.004-.019.02-.03.036-.027.015.004.024.023.02.042-.065.287-.196.457-.39.503.076.234.141.488.177.76.104.8-.027 1.61-.114 2.316.37-.076.614-.393.736-.96.007-.03.03-.048.052-.043.022.005.035.031.03.06-.133.612-.407.968-.82 1.05h-.01c-.049.416-.076.793-.021 1.108.077.444.199.78.322 1.105z"/>
            <g>
                <path fill="url(#ac)" d="M2.115 0c.562 0 .518 1.436.699 1.686.18.251.62.3.62.882 0 .583-.42.583-.42 1.062 0 .48.933.391.933 1.163s-.702.999-.702 1.457c0 .458.38.65.38 1.673 0 1.022-.718 1.173-1.812 1.173C.718 9.096 0 8.722 0 7.699c0-1.022 1.169-.959 1.252-1.532.084-.573-.684-.885-.684-1.548s1.107-.663 1.107-1.205-.892-.788-.892-1.341c0-.553.21-.652.601-.876C1.776.973 1.552 0 2.114 0z" transform="scale(-1 1) rotate(-17 141.032 445.545)"/>
                <path fill="#EFDDB8" d="M119.855 68.28c-.47-.302-.616-.725-.446-1.283.009-.028-.002-.056-.024-.063-.022-.006-.047.01-.056.039-.185.608-.024 1.079.477 1.4a6.681 6.681 0 0 0-.399.871c-.176.495-.245.83-.207 1.004-.012.037.003.075.033.084.03.009.103-.002.114-.04.027-.239.101-.56.223-.96.12-.393.412-.917.642-1.423.368.184.728.023 1.07-.473.018-.025.018-.062 0-.083-.018-.02-.047-.017-.064.008-.315.455-.631.6-.958.441.103-.235.189-.464.233-.671.085-.393.065-1.034.065-1.707.367.183.726.022 1.07-.474.017-.025.016-.062-.002-.083-.017-.02-.046-.017-.064.009-.321.464-.644.605-.978.43a.035.035 0 0 0-.026-.002c.002-.46.016-.93.08-1.34.06-.371.176-.708.306-1.008.017 0 .035-.015.04-.036.004-.014 0-.028-.008-.035a7.433 7.433 0 0 1 .132-.273c.21.112.417.023.612-.258.012-.017.011-.042 0-.056-.013-.015-.033-.012-.044.005-.176.253-.351.33-.534.238.109-.213.214-.402.292-.566.222-.465.364-1.06.354-1.062-.012-.004-.16.605-.384 1.053-.13.26-.31.562-.475.907-.186-.036-.28-.197-.283-.491 0-.021-.015-.034-.034-.03-.018.006-.032.026-.032.047.004.318.11.503.314.548a4.537 4.537 0 0 0-.272.742c-.212.804-.18 1.612-.182 2.314-.403-.052-.606-.376-.613-.986 0-.031-.023-.05-.05-.043-.026.007-.047.037-.047.068.008.663.241 1.027.696 1.077a.04.04 0 0 0 .014 0c-.004.402-.025.767-.117 1.07-.133.436-.3.77-.468 1.09z" style="mix-blend-mode:multiply"/>
            </g>
        </g>
        <g fill-rule="nonzero">
            <path fill="url(#ad)" d="M.157.152H8L6.257 5H1.9z" transform="translate(116 69)"/>
            <path fill="url(#ae)" d="M0 0h8v1.515H0z" transform="translate(116 69)"/>
        </g>
        <g fill-rule="nonzero">
            <path fill="#F2F5FF" d="M125 70.474h11.68v2.053H125z"/>
            <path fill="#7D95C9" d="M125.16 70.634c.281.025.505.427.505.92 0 .492-.224.894-.505.919v-1.84z"/>
            <path fill="url(#af)" d="M0 .474h1v2.053H0z" transform="translate(125 70)"/>
            <path fill="url(#ag)" d="M.632 0h11.052a.316.316 0 1 1 0 .632H0C0 .282.283 0 .632 0zM0 2.368h11.684a.316.316 0 1 1 0 .632H.632A.632.632 0 0 1 0 2.368z" transform="translate(125 70)"/>
        </g>
        <g fill-rule="nonzero">
            <path fill="url(#ah)" d="M53.705 38.873V2.461h-3.88l3.88 36.412zM49.092 1.805h5.272v39.703a.493.493 0 0 1-.494.492.549.549 0 0 1-.546-.49L49.092 1.806z" transform="translate(81 74)"/>
            <path fill="url(#ah)" d="M7.413 38.873V2.461h-3.88l3.88 36.412zM2.801 1.805h5.271v39.703a.493.493 0 0 1-.494.492.549.549 0 0 1-.546-.49L2.8 1.806z" transform="matrix(-1 0 0 1 91.873 74)"/>
            <path fill="url(#ai)" d="M0 0h57v1.805H0z" transform="translate(81 74)"/>
        </g>
        <g fill-rule="nonzero">
            <path fill="url(#aj)" d="M3.32 4.076h.498V2.283c0-.54.446-.979.996-.979s.996.438.996.979v2.771a.987.987 0 0 1-1.162.965 1.02 1.02 0 0 1-.166.014H3.32V8.64H0v-7.01C0 .73.743 0 1.66 0c.917 0 1.66.73 1.66 1.63v2.446z" transform="translate(9.806 35)"/>
            <path fill="#42B16D" d="M9.972 35.919v7.722h-.166v-7.01c0-.256.06-.497.166-.712zm.498-.593v8.315h-.166v-8.175c.052-.05.108-.097.166-.14zm.498-.251v8.566h-.166v-8.505c.054-.023.11-.044.166-.061zm.498-.075v8.641H11.3v-8.633a1.71 1.71 0 0 1 .166-.008zm.498.075v8.566h-.166v-8.608c.057.01.112.025.166.042zm.498.251v8.315h-.166v-8.423c.058.033.113.069.166.108zm.498.593v7.722h-.166v-7.989c.064.083.12.172.166.267zm.498 3.157v1.957h-.166v-1.957h.166zm.499-2.523v4.48h-.166v-4.291a.989.989 0 0 1 .166-.189zm.498-.235v4.701a1.02 1.02 0 0 1-.166.014V36.36c.053-.019.108-.033.166-.042zm.498.042v4.617a1.004 1.004 0 0 1-.166.042v-4.701c.057.01.112.023.166.042zm.498.382v3.853a.989.989 0 0 1-.166.189v-4.23a.989.989 0 0 1 .166.188z"/>
            <path fill="url(#ak)" d="M.166.163h8.3L6.622 5.38H2.01z" transform="translate(7.316 42.337)"/>
            <path fill="url(#al)" d="M0 0h8.466v1.63H0z" transform="translate(7.316 42.337)"/>
            <path fill="url(#am)" d="M0 13.717h42V16H0z" transform="translate(3 34)"/>
            <g>
                <path fill="#F2F5FF" d="M18.79 47.992V36.039h1.957v11.953z"/>
                <path fill="url(#an)" d="M.652 0h11.473a.326.326 0 0 1 0 .652H0C0 .292.292 0 .652 0zM0 2.446h12.125a.326.326 0 0 1 0 .652H.652A.652.652 0 0 1 0 2.446z" transform="rotate(-90 33.146 14.845)"/>
                <path fill="#F2F5FF" d="M25.126 47.977v-10.36h2.059v10.36z"/>
                <path fill="url(#ao)" d="M.686 0h9.761a.343.343 0 0 1 0 .686H0C0 .307.307 0 .686 0zM0 2.574h10.447a.343.343 0 1 1 0 .686H.687A.686.686 0 0 1 0 2.575z" transform="rotate(-90 36.294 11.683)"/>
                <g>
                    <path fill="#F2F5FF" d="M21.944 47.992v-12.12h2.12v12.12z"/>
                    <path fill="url(#ap)" d="M.652 0h11.473a.326.326 0 0 1 0 .652H0C0 .292.292 0 .652 0zM0 2.446h12.125a.326.326 0 0 1 0 .652H.652A.652.652 0 0 1 0 2.446z" transform="rotate(-90 34.723 13.268)"/>
                </g>
                <g>
                    <path fill="#F2F5FF" d="M28.252 47.992v-12.12h2.12v12.12z"/>
                    <path fill="url(#ap)" d="M.652 0h11.473a.326.326 0 0 1 0 .652H0C0 .292.292 0 .652 0zM0 2.446h12.125a.326.326 0 0 1 0 .652H.652A.652.652 0 0 1 0 2.446z" transform="rotate(-90 37.877 10.114)"/>
                </g>
            </g>
            <g transform="translate(34.21 40.054)">
                <ellipse cx="2.988" cy="2.935" stroke="#D2E1F5" rx="2.988" ry="2.935"/>
                <path fill="url(#aq)" d="M1.66 4.565h-.166l.498-.978H3.32l.345.677.112-.188h-.125l.415-.815.415.815h-.124l.29.49h-.207l.373.488H4.15v.49h-.166v-.49h-.332v.49H1.66v-.979zm1.992 0v.055l.042-.055h-.042z"/>
                <path fill="url(#ar)" d="M2.446 5.38h1.25a2.446 2.446 0 0 1 2.446 2.446H0A2.446 2.446 0 0 1 2.446 5.38z"/>
            </g>
        </g>
        <g fill-rule="nonzero">
            <path stroke="#D2E1F5" stroke-width="3" d="M104.085 26.25h8.652v10h-8.652z"/>
            <path fill="url(#as)" d="M3.478.083h8.651v10H3.478z" transform="translate(104 14)"/>
            <path fill="url(#at)" d="M10.942 15.583h7.973v8.334h-6.797l-1.176-1.038z" transform="translate(104 14)"/>
        </g>
        <g fill-rule="nonzero">
            <path fill="url(#au)" d="M12.553.232c2.367.236 1.55 5.573 2.2 6.56.65.98 2.476 1.277 2.22 3.412-.254 2.136-2.016 2.064-2.226 3.838-.21 1.774 3.752 1.543 3.414 4.343-.338 2.8-3.393 3.649-3.593 5.336-.201 1.687 1.312 2.348.864 6.082-.448 3.733-3.53 4.498-8.135 4.824-4.603.327-7.46-.933-7.012-4.958.448-4.026 5.336-3.91 5.94-6.119.603-2.201-2.493-3.399-2.202-5.982.29-2.583 4.947-2.464 5.185-4.527.237-2.063-3.408-3.189-3.165-5.332.242-2.143 1.167-2.462 2.913-3.2 1.746-.724 1.23-4.513 3.597-4.277z" transform="scale(-1 1) rotate(-16 166.231 684.41)"/>
            <path fill="#98BBE9" d="M165.766 101.64c.085.055.184.018.222-.083.037-.102-.002-.228-.087-.283-2.05-1.315-2.879-3.024-2.525-5.186.018-.11-.042-.222-.134-.252-.091-.03-.18.033-.198.142-.385 2.356.536 4.256 2.722 5.662zM166.936 92.682c.095.019.175-.057.178-.17.003-.113-.072-.22-.167-.24-1.54-.31-2.57-1.562-3.116-3.79-.028-.111-.124-.187-.215-.17-.092.018-.144.121-.116.232.586 2.39 1.737 3.792 3.436 4.138zM167.163 80.345c.066.01.121-.044.123-.119.002-.075-.05-.143-.116-.152-.795-.11-1.326-.7-1.609-1.802-.019-.073-.085-.12-.149-.106-.063.015-.099.087-.08.16.31 1.208.926 1.894 1.831 2.02zM167.638 79c-.064-.022-.097-.097-.075-.167.022-.07.091-.11.155-.088.771.262 1.451-.05 2.065-.961.041-.061.118-.076.172-.034.054.042.065.126.024.187-.675 1.002-1.463 1.362-2.34 1.063zM167.037 89.933c-.092-.037-.14-.15-.106-.253.033-.104.134-.159.226-.123 1.361.535 2.576.008 3.684-1.627.06-.09.172-.109.25-.043.077.066.09.192.03.282-1.198 1.768-2.569 2.362-4.084 1.764zM167.082 99.774c-.09-.04-.137-.157-.104-.26.033-.105.134-.156.224-.115 1.343.6 2.546.116 3.647-1.497.06-.088.17-.103.247-.033.076.07.088.2.028.288-1.19 1.744-2.548 2.289-4.042 1.617z"/>
            <path fill="#8FAFDA" d="M164.4 109.002c-.024.146.055.304.177.353.122.048.406.034.43-.113-.028-.962.088-2.235.349-3.818.391-2.374 2.239-5.922 2.441-8.637.2-2.708-1.313-8.378-1.266-12.47.033-3.314 1.419-5.962 2.045-7.797.629-1.841.849-4.157.807-4.165-.05-.01-.286 2.362-.935 4.136-.646 1.768-1.82 4.013-2.151 6.762-.618 5.126 1.407 10.383.85 13.743-.559 3.36-1.855 5.124-2.486 8.027-.42 1.933-.506 3.258-.26 3.979z"/>
            <g>
                <path fill="url(#av)" d="M8.894 0c2.367 0 2.18 5.58 2.94 6.553.759.975 2.607 1.165 2.607 3.428s-1.762 2.263-1.762 4.126c0 1.863 3.923 1.52 3.923 4.52 0 3-2.955 3.881-2.955 5.661 0 1.78 1.597 2.529 1.597 6.5 0 3.973-3.016 4.56-7.62 4.56S0 33.892 0 29.92c0-3.972 4.915-3.728 5.268-5.954.352-2.226-2.88-3.439-2.88-6.016 0-2.578 4.657-2.578 4.657-4.685 0-2.106-3.753-3.062-3.753-5.21 0-2.15.882-2.533 2.53-3.404C7.47 3.78 6.527 0 8.894 0z" transform="rotate(-17 319.569 -448.247)"/>
                <path fill="#5ACE87" d="M162.274 103.49c-.083.05-.193.01-.245-.09-.053-.102-.028-.224.055-.275 1.997-1.221 2.646-2.893 1.983-5.061-.033-.11.015-.22.107-.249.093-.028.195.037.228.147.723 2.366.002 4.224-2.128 5.527zM159.84 94.698c-.097.023-.186-.05-.2-.16-.015-.112.052-.22.148-.243 1.56-.366 2.493-1.655 2.819-3.917.016-.113.107-.194.203-.18.096.013.16.115.144.228-.35 2.429-1.393 3.87-3.114 4.272zM157.981 82.372c-.066.015-.127-.034-.137-.11-.01-.075.036-.148.101-.163.793-.182 1.265-.828 1.43-1.97.01-.077.073-.131.138-.123.066.01.11.079.099.155-.18 1.255-.728 2.003-1.63 2.21zM157.384 81.025c.063-.024.087-.1.053-.167-.034-.068-.113-.103-.176-.08-.759.293-1.511.021-2.287-.834-.051-.057-.133-.067-.183-.023-.049.044-.047.126.005.183.851.94 1.723 1.253 2.588.92zM159.503 91.933c.092-.035.125-.144.074-.244-.05-.1-.166-.153-.258-.119-1.362.515-2.724.013-4.129-1.536-.076-.085-.197-.101-.268-.037-.072.064-.068.184.009.269 1.517 1.674 3.055 2.24 4.572 1.667zM160.72 101.63c.092-.035.126-.144.075-.244-.05-.1-.166-.154-.258-.119-1.362.515-2.724.013-4.13-1.537-.076-.084-.196-.1-.268-.037-.071.065-.067.185.01.27 1.517 1.674 3.055 2.24 4.571 1.667z"/>
                <path fill="#42B16D" d="M164.651 110.766c.045.144-.02.293-.145.33-.125.039-.431.004-.476-.14-.088-.935-.37-2.183-.846-3.744-.713-2.341-3.107-5.87-3.66-8.529-.552-2.658.278-8.285-.323-12.378-.489-3.33-2.26-5.914-3.146-7.715-.885-1.8-1.425-4.113-1.384-4.125.048-.015.613 2.354 1.51 4.087.895 1.733 2.397 3.922 3.114 6.675 1.334 5.124-.074 10.363.937 13.67 1.011 3.306 2.604 5.082 3.642 7.961.692 1.92.95 3.222.777 3.908z"/>
            </g>
            <g>
                <path fill="url(#aw)" d="M8.894 0c2.367 0 2.18 4.76 2.94 5.592.759.83 2.607.994 2.607 2.924s-1.762 1.93-1.762 3.52 3.923 1.297 3.923 3.856c0 2.56-2.955 3.312-2.955 4.831 0 1.519 1.597 2.158 1.597 5.547s-3.016 3.89-7.62 3.89S0 28.918 0 25.53c0-3.39 4.915-3.182 5.268-5.08.352-1.9-2.88-2.935-2.88-5.134 0-2.2 4.657-2.2 4.657-3.997 0-1.797-3.753-2.613-3.753-4.446 0-1.833.882-2.161 2.53-2.904C7.47 3.226 6.527 0 8.894 0z" transform="scale(-1 1) rotate(-28 72.673 418.214)"/>
                <path fill="#D2DEF8" d="M167.54 104.549a.176.176 0 0 0 .228-.27c-1.768-1.504-2.183-3.086-1.275-4.794a.176.176 0 0 0-.072-.237.176.176 0 0 0-.237.073c-.991 1.865-.53 3.623 1.356 5.228zM170.877 97.433c.09.035.192-.01.227-.1a.178.178 0 0 0-.102-.229c-1.466-.571-2.147-1.809-2.051-3.756a.177.177 0 0 0-.167-.186.174.174 0 0 0-.184.166c-.102 2.09.66 3.474 2.277 4.105zM174.251 87.35a.12.12 0 0 0 .155-.068.12.12 0 0 0-.07-.154c-.745-.288-1.09-.909-1.043-1.893a.12.12 0 0 0-.113-.125.118.118 0 0 0-.126.112c-.053 1.08.348 1.8 1.197 2.128zM175.134 86.405a.12.12 0 0 1-.03-.166.12.12 0 0 1 .166-.028c.655.457 1.364.396 2.152-.194a.12.12 0 0 1 .168.024c.04.053.03.128-.023.167-.866.648-1.686.718-2.433.197zM171.8 95.28a.173.173 0 0 1-.042-.242.178.178 0 0 1 .245-.044c1.178.812 2.46.692 3.89-.377a.177.177 0 0 1 .246.034.174.174 0 0 1-.036.244c-1.544 1.155-2.991 1.29-4.302.386zM169.419 103.32a.173.173 0 0 1-.043-.243.178.178 0 0 1 .246-.045c1.177.812 2.46.693 3.888-.376a.177.177 0 0 1 .247.033.174.174 0 0 1-.036.244c-1.544 1.155-2.991 1.29-4.302.386z"/>
                <path fill="#D2DEF8" d="M164.345 110.246a.235.235 0 0 0 .098.317c.116.062.414.102.475-.012.202-.782.63-1.787 1.281-3.017.978-1.845 3.72-4.325 4.584-6.478.863-2.154.769-7.17 1.858-10.544.886-2.744 2.912-4.555 3.988-5.897 1.076-1.342 1.884-3.202 1.846-3.222-.044-.024-.883 1.88-1.961 3.16-1.079 1.282-2.796 2.817-3.829 5.014-1.923 4.09-1.224 8.905-2.609 11.51-1.385 2.604-3.138 3.763-4.496 5.995-.905 1.488-1.317 2.546-1.235 3.174z"/>
            </g>
            <g>
                <path fill="url(#ax)" d="M.282.278h14.12L11.263 9.17H3.42z" transform="translate(157.12 107.731)"/>
                <path fill="url(#ay)" d="M0 0h14.401v2.779H0z" transform="translate(157.12 107.731)"/>
            </g>
        </g>
    </g>
</svg>
