<svg xmlns="http://www.w3.org/2000/svg" xmlns:xlink="http://www.w3.org/1999/xlink" width="205" height="522" xmlns:v="https://vecta.io/nano"><style><![CDATA[.B{fill:#fff}.C{mask:url(#o)}.D{fill-rule:nonzero}.E{fill:#79101f}.F{fill:#000}.G{fill:#c5d7f3}.H{fill:#ed3d48}.I{fill:#858585}]]></style><defs><path id="A" d="M0 0H205V521.774H0z"/><path id="B" d="M0 0h189v4H0z"/><path id="C" d="M0 0H144V157H0z"/><path id="D" d="M17.479 74.713c-1.58-.893-6.872 1.24-6.872 5.552C7.797 70.672 0 57.689 0 43.5 3.575 31.13 12.9 11.629 14.982 8.568 16.371 6.528 23.25 3.672 35.62 0c2.767 3.033 6.046 4.55 9.837 4.55 5.687 0 5.985-3.498 7.505-3.68s10.125 3.68 14.37 7.79 8.79 20.272 19.956 32.819S102.46 62.779 108 67.494c-2.032 1.825-4.786 2.889-4.786 7.22-2.005-1.475-13.193-9.193-22.676-18.176S66.85 40.083 65.418 39.072c-1.645-1.163 2.075 34.82 1.914 41.193S45.327 87 38.496 87s-17.395-2.371-20.107-4.71c-.447-.385.724-50.978 0-48.855-1.838 5.386-6.107 8.044-6.107 11.59 0 8.244 5.207 30.269 5.197 29.688z"/><path id="E" d="M1.12.03L.968.06.808.093.645.126.48.16.32.193.167.224.022.254H.019.017L.015.256H.012L.01.258H.007.005.003L0 .273 1.264.015 1.266 0l-.145.03"/><path id="F" d="M1.13.027L.99.055.843.085l-.15.03-.149.03-.147.03-.142.029L.121.23.107.233.092.236.076.24.061.243.045.246.029.249.014.252 0 .255c1.86.49 2.797 2.481 2.468 4.362l1.264-.255C4.06 2.482 3.124.491 1.264 0L1.13.027"/><path id="G" d="M1.264.049L0 .306C.345.236.726.238 1.137.34l.068.017L2.47.1C2.447.092 2.424.087 2.401.08A2.82 2.82 0 0 0 1.749 0a2.39 2.39 0 0 0-.485.049"/><path id="H" d="M2.115.255C2.077.51 1.773 2.205 0 3.926l1.263-.254C3.037 1.95 3.34.255 3.38 0"/><path id="I" d="M1.438.014l-.146.03-.154.032L.98.108.82.14.664.172.509.204.363.234.29.247.284.25H.278L.272.253c-.01.001-.02 0-.028.005L0 .488 1.264.232 1.468.04 1.32.07l-.156.032-.162.033-.166.034-.165.034L.51.235.353.267.205.297 1.468.039 1.508 0l-.07.014"/><path id="J" d="M1.964.255C1.036.442.36 1.15 0 1.894l1.264-.255C1.624.895 2.3.187 3.228 0"/><path id="K" d="M1.116.03L.959.06.797.094.632.127.466.161.304.193.148.225 0 .255C.577.85.865 1.66.93 2.389l1.265-.255C2.128 1.407 1.84.595 1.264 0l-.148.03"/><path id="L" d="M1.264.056L0 .31C.401.23.832.234 1.282.343a2.78 2.78 0 0 1 1.367.774L3.913.863A2.78 2.78 0 0 0 2.545.088 3.04 3.04 0 0 0 1.823 0a2.79 2.79 0 0 0-.56.056"/><path id="M" d="M6.022.037L5.89.064 5.756.09l-.135.028-.134.027-.131.026-.125.026L5.16.21l-.03.007-.03.006-.029.006-.03.006-.03.006-.057.011C3.86 1.232 2.286 2.197 0 2.89h.001l1.263-.255C3.549 1.942 5.124.977 6.206 0l-.184.037"/><path id="N" d="M2.548.255C1.244.518.26 1.688 0 3.147l1.264-.255C1.524 1.432 2.508.263 3.81 0"/><path id="O" d="M.08.255C-.003.66-.734 4.82 4.544 9.629l1.263-.255C.53 4.566 1.26.406 1.344 0"/><path id="P" d="M7.982.255C4.132 1.032.967 4.21.182 8.612c-1.052 5.898 2.57 11.759 8.09 13.09a9.44 9.44 0 0 0 4.097.088l1.264-.255c-1.31.264-2.698.25-4.098-.088-5.52-1.331-9.142-7.192-8.09-13.09C2.231 3.955 5.396.777 9.246 0"/><path id="Q" d="M4.437 0L.707 3.682A5.91 5.91 0 0 1 0 4.28L3.73.598"/><path id="R" d="M5.56 0C4.137 1.405 3.476 3.467 3.819 5.59c.226 1.42.737 3.21 1.334 5.002l.113.336.114.335.116.334.058.167.118.332 2.527 6.407c.183.424 3.672 8.476 6.485 12.163l-3.73 3.682c-2.812-3.687-6.302-11.74-6.485-12.163l-.942-2.259-.101-.249c-.579-1.44-1.308-3.332-1.947-5.236l-.112-.335-.055-.168-.108-.336C.703 12.04.287 10.515.089 9.272c-.342-2.123.318-4.185 1.74-5.59"/><path id="S" d="M0 0h49.505v17.693H0z"/><path id="T" d="M3.363.559L0 4c.228-.17.44-.357.638-.56L4 0a5.47 5.47 0 0 1-.637.559"/><path id="U" d="M1.87 3.645C.414 5.035-.26 7.076.09 9.179c.723 4.39 4.288 12.361 4.475 12.78S8.317 30.35 11.19 34L15 30.355c-2.873-3.65-6.437-11.62-6.625-12.04S4.623 9.925 3.901 5.533C3.55 3.432 4.226 1.39 5.68 0"/><path id="V" d="M0 0h59v48H0z"/><linearGradient id="W" x1="79.515%" x2="24.995%" y1="10.794%" y2="145.942%"><stop offset="0%" stop-color="#cfddf3"/><stop offset="100%" stop-color="#a1b8e3"/></linearGradient><linearGradient id="X" x1="109.017%" x2="0%" y1="34.289%" y2="88.446%"><stop offset="0%" stop-color="#cfddf3"/><stop offset="100%" stop-color="#a1b8e3"/></linearGradient><linearGradient id="Y" x1="59.754%" x2="52.345%" y1="77.543%" y2="43.921%"><stop offset="0%" stop-color="#cfddf3" stop-opacity="0"/><stop offset="0%" stop-color="#cfddf3" stop-opacity=".06"/><stop offset="36%" stop-color="#ccdbf2"/><stop offset="100%" stop-color="#a1b8e3"/></linearGradient><linearGradient id="Z" x1="0%" x2="100%" y1="50.009%" y2="50.009%"><stop offset="0%" stop-color="#e5edff"/><stop offset="100%" stop-color="#6b9ad9"/></linearGradient><linearGradient id="a" x1="58.215%" x2="-25.511%" y1="22.423%" y2="297.105%"><stop offset="0%" stop-color="#f7faff"/><stop offset="100%" stop-color="#6b9ad9"/></linearGradient><linearGradient id="b" x1="50.498%" x2="49.73%" y1="77.543%" y2="-2.014%"><stop offset="0%" stop-color="#cfddf3"/><stop offset="36%" stop-color="#ccdbf2"/><stop offset="100%" stop-color="#a1b8e3"/></linearGradient><linearGradient id="c" x1="61.085%" x2="19.054%" y1="117.164%" y2="-168.856%"><stop offset="0%" stop-color="#cfddf3"/><stop offset="6%" stop-color="#ccdbf2"/><stop offset="18%" stop-color="#cfddf3"/><stop offset="100%" stop-color="#a1b8e3"/></linearGradient><linearGradient id="d" x1="107.254%" x2="38.27%" y1="-120.462%" y2="-120.462%"><stop offset="0%" stop-color="#fad0ba"/><stop offset="100%" stop-color="#f2a384"/></linearGradient><linearGradient id="e" x1="42.643%" x2="67.286%" y1="31.242%" y2="87.113%"><stop offset="0%" stop-color="#84f0a8"/><stop offset="100%" stop-color="#48b676"/></linearGradient><linearGradient id="f" x1="69.187%" x2="11.597%" y1="32.266%" y2="81.962%"><stop offset="0%" stop-color="#3485f7"/><stop offset="100%" stop-color="#1a57cf"/></linearGradient><linearGradient id="g" x1="46.616%" x2="53.384%" y1="107.338%" y2="6.301%"><stop offset="0%" stop-color="#eaf0f7" stop-opacity=".116"/><stop offset="100%" stop-color="#d1dded"/></linearGradient><linearGradient id="h" x1="72.989%" x2="45.134%" y1="33.934%" y2="50%"><stop offset="0%" stop-color="#eaf0f7" stop-opacity=".116"/><stop offset="100%" stop-color="#d1dded"/></linearGradient><linearGradient id="i" x1="42.643%" x2="67.286%" y1="16.652%" y2="115.978%"><stop offset="0%" stop-color="#84f0a8"/><stop offset="100%" stop-color="#48b676"/></linearGradient><linearGradient id="j" x1="50%" x2="-33.859%" y1="24.66%" y2="177.644%"><stop offset="0%" stop-color="#eef3ff"/><stop offset="100%" stop-color="#6b9ad9"/></linearGradient><linearGradient id="k" x1="50%" x2="-33.859%" y1="25.235%" y2="174.745%"><stop offset="0%" stop-color="#eef3ff"/><stop offset="100%" stop-color="#6b9ad9"/></linearGradient><linearGradient id="l" x1="140.584%" x2="25.163%" y1="6.026%" y2="122.778%"><stop offset="0%" stop-color="#e5edff"/><stop offset="100%" stop-color="#6b9ad9"/></linearGradient><linearGradient id="m" x1="50%" x2="-17.284%" y1="19.686%" y2="294.476%"><stop offset="0%" stop-color="#f7faff"/><stop offset="100%" stop-color="#6b9ad9"/></linearGradient><filter id="n" width="120.5%" height="120.5%" x="-10.3%" y="-10.3%"><feOffset dy="1" in="SourceAlpha"/><feGaussianBlur stdDeviation=".5"/><feColorMatrix result="C" values="0 0 0 0 0.716553584 0 0 0 0 0.761905502 0 0 0 0 0.797809103 0 0 0 1 0"/><feMerge><feMergeNode in="C"/><feMergeNode in="SourceGraphic"/></feMerge></filter></defs><g fill="none" fill-rule="evenodd"><mask id="o" class="B"><use xlink:href="#A"/></mask><g fill="#e2e9f1"><use opacity=".7" xlink:href="#A"/><path d="M0 0H205V522H0z" class="C D"/></g><g class="C D"><g transform="rotate(34 42.458 324.2)"><path fill="url(#W)" d="M63.436 172.581c8.979-5.55 15.11-14.71 16.81-25.115 1.124-7.481 0-15.71 4.229-22.016 5.032-7.695 15.472-9.138 24.412-11.169s19.22-7.641 19.113-16.833c0-12.184-17.721-16.672-21.843-28.161a24.39 24.39 0 0 1 4.818-20.948c4.698-5.772 8.423-12.27 11.028-19.237 2.41-9.47-1.341-19.437-9.402-24.98a23.43 23.43 0 0 0-26.734.131C70.181 15.315 72.323 41.66 56.744 52.774c-9.315 6.734-23.716 6.947-29.284 17.047-7.067 12.772 7.013 29.07 1.927 42.75-3.319 8.817-13.116 12.985-19.808 19.558-10.007 10.258-12.432 25.706-6.05 38.529 7.014 13.306 16.061 11.061 28.428 8.015 10.76-2.672 21.36 0 31.479-6.092z" opacity=".6"/><path fill-opacity=".6" d="M108.473 91.118a73.28 73.28 0 0 0-43.925 8.23l3.978-11.437 13.388-39.226 21.505-10.688a.8.8 0 0 0 .377-1.016.81.81 0 0 0-1.076-.32l-20.323 9.833L88.15 29.66a.76.76 0 0 0-.484-.962c-.4-.133-.834.083-.967.481L66.859 87.27l-9.193 25.545c-1.874-13.596-8.474-26.111-18.656-35.378-.142-.144-.336-.225-.538-.225s-.396.081-.538.225a.69.69 0 0 0-.252.534c0 .207.093.403.252.535 10.092 9.11 16.576 21.506 18.28 34.95.051.382.367.673.753.695-1.882 4.757-3.817 9.46-5.968 14.109a208.95 208.95 0 0 1-23.011 37.997c1.336-10.145-4.484-19.882-14.086-23.568a.7.7 0 0 0-.583-.006c-.186.082-.326.24-.385.434a.75.75 0 0 0 .43.962c9.358 3.55 14.91 13.156 13.28 22.98-.047.346.154.68.484.801a208.96 208.96 0 0 1-14.14 16.674c-.145.14-.226.333-.226.535s.081.393.226.534c.173.066.364.066.537 0 .19.074.402.074.592 0 9.49-10.077 17.972-21.049 25.323-32.76a70.24 70.24 0 0 1 25.43-6.68c.2-.014.386-.106.517-.256a.74.74 0 0 0 .182-.546.69.69 0 0 0-.24-.533.7.7 0 0 0-.566-.161 71.32 71.32 0 0 0-24.14 6.038c4.343-6.899 8.292-14.036 11.828-21.376 4.193-9.032 7.742-18.384 10.753-27.683 13.478-7.567 29.054-10.604 44.409-8.658a.7.7 0 0 0 .581-.12c.167-.124.269-.315.28-.52.182-.153.288-.378.288-.615a.8.8 0 0 0-.289-.615z" class="B"/><path fill="url(#X)" d="M53.337 199.149c6.035.558 12.02-1.482 16.448-5.605 3.13-3.014 5.306-7.138 9.604-8.566 4.987-1.745 10.24 1.216 15.068 3.384s11.461 3.226 14.591-1.005c4.192-5.605-2.281-13.748 0-20.41 1.763-3.956 5.274-6.869 9.498-7.879a40.12 40.12 0 0 0 11.779-4.97c4.402-3.482 6.162-9.329 4.41-14.65s-6.646-8.993-12.263-9.198c-10.983-.423-19.207 12.267-30.19 11.95-6.632 0-13.318-5.288-19.366-2.38-7.694 3.385-6.95 15.864-14.06 20.147-4.564 2.855-10.612 1.322-15.918 2.01-8.195 1.201-14.73 7.438-16.289 15.545-1.432 8.46 3.608 10.576 10.187 13.537s9.71 7.085 16.501 8.09z" opacity=".6"/><path fill="#d6e3fa" d="M103.36 178.632c-6.202-6.015-14.174-9.964-22.788-11.288l5.75-3.78 19.675-12.944 13.504 2.382a.42.42 0 0 0 .422-.414c0-.23-.189-.415-.422-.415l-12.66-2.226 8.388-5.54c.14-.184.14-.438 0-.622a.48.48 0 0 0-.633 0l-29.119 19.158-13.029 8.336a32.55 32.55 0 0 0 3.85-22.16c-.024-.112-.095-.209-.195-.268a.43.43 0 0 0-.332-.043.52.52 0 0 0-.369.466c1.398 7.484.032 15.213-3.85 21.798-.133.168-.133.402 0 .57l-7.597 4.246a118.72 118.72 0 0 1-23.58 9.164c1.925-1.95 3.163-4.454 3.535-7.145.391-2.882-.242-5.808-1.794-8.284a.42.42 0 0 0-.316-.14c-.121 0-.236.05-.317.14a.41.41 0 0 0 0 .57c2.996 4.76 2.157 10.932-2.004 14.756v.518c-4.01 1.035-8.07 1.967-12.185 2.64a.52.52 0 0 0-.37.518.43.43 0 0 0 .37 0 123.11 123.11 0 0 0 22.788-6.006c5.109 1.014 9.965 3.002 14.295 5.85.188.139.446.139.633 0a.46.46 0 0 0 0-.569 41.58 41.58 0 0 0-12.976-5.488c4.385-1.626 8.665-3.51 12.818-5.644a163.05 163.05 0 0 0 14.665-9.01c8.718 1.169 16.81 5.095 23.051 11.185.114.11.278.154.433.113s.275-.159.316-.31a.43.43 0 0 0-.116-.425l.159.31z"/></g></g><path fill="url(#Y)" d="M147.084 402.453h-474.419V58.003c18.956-2.005 38.056 1.936 54.814 11.309 39.434 21.96 75.082-21.724 77.558-91.517 2.145-60.523 78.156-92.654 122.514-39.437 61.181 73.421 66.466-.235 66.466-.235L3.98-69.42C50.881 55.944-166.298-3.707-14.399 111.044c54.682 41.33 64.407 73.382 62.282 120.9-2.847 62.83 53.713 87.868 99.2 97.843v72.666z" opacity=".344" class="C"/><path fill="#f2f2f2" d="M167.655 235H35.345C34.05 235 33 233.957 33 232.671v-85.342c0-1.286 1.05-2.329 2.345-2.329h132.31c1.295 0 2.345 1.043 2.345 2.329v85.342c0 1.286-1.05 2.329-2.345 2.329" class="C"/><g class="D C"><path fill="#273d57" d="M33 232.867v-84.734A2.14 2.14 0 0 1 35.146 146h131.708a2.14 2.14 0 0 1 2.146 2.133v84.734a2.14 2.14 0 0 1-2.146 2.133H35.146A2.14 2.14 0 0 1 33 232.867" opacity=".9"/><path fill="url(#Z)" d="M164 230H39v-79h125z"/></g><path d="M191.164 260H11.837c-3.544 0-5.586-.77-4.58-1.701L32.53 234.88c.529-.49 2.985-.881 5.494-.881h126.952c2.51 0 4.966.391 5.495.881l25.273 23.418c1.005.931-1.037 1.701-4.58 1.701" class="B C"/><g class="C"><g transform="translate(7 258)"><mask id="p" class="B"><use xlink:href="#B"/></mask><path d="M189 0c-.012.683-1.911 1.19-4.835 1.19H4.835C1.961 1.19.077.7 0 .036v2.786C.035 3.5 1.928 4 4.834 4h179.331c2.913 0 4.808-.503 4.832-1.183l.003-.77V0z" style="mix-blend-mode:multiply" mask="url(#p)" opacity=".744" class="D G"/></g><g class="D"><g class="G"><path d="M176.508 248H26.492c-1.037 0-1.682-.204-1.442-.455l12.68-13.232c.166-.173.994-.313 1.85-.313h123.84c.856 0 1.684.14 1.85.313l12.68 13.232c.24.25-.405.455-1.442.455" style="mix-blend-mode:multiply" opacity=".2"/><path d="M124.038 258H78.962c-1.167 0-2.042-.246-1.956-.548l1.999-6.996c.072-.252.989-.456 2.047-.456h40.896c1.058 0 1.975.204 2.047.456l2 6.996c.085.302-.79.548-1.957.548" style="mix-blend-mode:multiply" opacity=".946"/></g><path fill="#273d57" d="M49.288 245c.46 0 .775.11.701.248l-1.324 2.488c-.078.146-.526.264-1.001.264h-5.95c-.475 0-.788-.118-.699-.264l1.528-2.488c.085-.137.526-.248.986-.248h5.76zm-12.024 0c.491 0 .814.11.72.248l-1.701 2.488c-.1.146-.592.264-1.1.264h-6.445c-.508 0-.828-.118-.716-.264l1.921-2.488c.106-.137.59-.248 1.081-.248h6.24zm21.976 0c.476 0 .813.11.753.248l-1.092 2.488c-.064.146-.514.264-1.006.264h-6.131c-.492 0-.83-.118-.753-.264l1.301-2.488c.073-.137.516-.248.993-.248h5.935zm101.228 0c.46 0 .902.11.986.248l1.53 2.489c.09.145-.223.263-.698.263h-5.947c-.475 0-.924-.118-1.001-.263l-1.327-2.489c-.074-.137.24-.248.7-.248h5.757zm-8.93 1c.456 0 .884.15.954.337l.498 1.317c.072.19-.246.346-.711.346h-5.905c-.465 0-.89-.155-.95-.346l-.417-1.317c-.059-.186.264-.337.721-.337h5.81zm20.748 0c.45 0 .895.15.994.337l.7 1.317c.101.19-.188.346-.646.346h-5.706c-.458 0-.902-.155-.992-.346l-.62-1.317c-.088-.186.206-.337.656-.337h5.614zm-102.024-1c.446 0 .775.11.735.248l-.741 2.488c-.044.146-.453.264-.914.264H62.74c-.461 0-.79-.118-.734-.264l.96-2.488c.053-.137.458-.248.905-.248h6.39zm69.867 0c.447 0 .852.11.904.248l.96 2.489c.057.145-.272.263-.733.263h-6.602c-.461 0-.87-.118-.914-.263l-.74-2.489c-.041-.137.287-.248.734-.248h6.39zm-11.841 0c.491 0 .923.11.964.248l.745 2.489c.043.145-.333.263-.84.263H74.843c-.508 0-.884-.118-.84-.263l.744-2.489c.041-.137.472-.248.964-.248h52.576zm-81.01-5c.484 0 .8.132.705.295l-.406.705h2.286l.37-.751c.067-.138.472-.249.903-.249h6.178c.432 0 .736.111.68.249l-.311.751h2.02l.302-.751c.055-.138.46-.249.905-.249h6.36c.445 0 .77.111.726.249l-.242.751h2.721l.205-.751c.037-.138.398-.249.804-.249h5.826c.407 0 .716.111.688.249l-.149.751h4.468l.136-.751c.025-.138.386-.249.806-.249h6.006c.42 0 .749.111.735.249l-.08.751h3.229l.064-.751c.012-.138.373-.249.806-.249h6.198c.434 0 .784.111.783.249l-.005.751h3.017l-.012-.751c-.002-.138.346-.249.778-.249h6.18c.432 0 .793.111.806.249l.07.751h2.252l-.085-.751c-.016-.138.31-.249.729-.249h5.99c.418 0 .779.111.805.249l.142.751h3.489l-.154-.751c-.028-.138.278-.249.684-.249h5.809c.406 0 .766.111.805.249l.209.751h2.742l-.247-.751c-.045-.138.277-.249.721-.249h6.343c.444 0 .849.111.905.249l.307.751h3.043l-.316-.751c-.058-.138.244-.249.675-.249h6.16c.431 0 .836.111.905.249l.374.751h2.277l-.382-.705c-.08-.148.153-.27.532-.292l.118-.003h8.757c.447 0 .895.132 1.001.295l.457.705h2.134c.453 0 .91.107 1.088.247l.048.048 1.82 2.393c.13.172-.185.312-.706.312h-16.768c-.52 0-1.021-.14-1.12-.312l-.391-.688h-2.34l.345.737c.067.145-.242.263-.69.263h-6.424c-.449 0-.858-.118-.914-.263l-.283-.737h-2.96l.274.737c.054.145-.277.263-.74.263h-6.623c-.463 0-.872-.118-.914-.263l-.211-.737h-2.708l.199.737c.04.145-.316.263-.794.263h-6.834c-.478 0-.887-.118-.913-.263l-.135-.737h-4.428l.106.737c.021.145-.317.263-.756.263h-6.274c-.438 0-.801-.118-.81-.263l-.048-.737h-3.141l.03.737c.006.145-.352.263-.8.263h-6.4c-.448 0-.806-.118-.8-.263l.03-.737h-3.143l-.046.737c-.01.145-.372.263-.81.263h-6.274c-.438 0-.777-.118-.756-.263l.105-.737h-2.428l-.134.737c-.026.145-.435.263-.913.263h-6.834c-.478 0-.833-.118-.794-.263l.198-.737h-2.707l-.21.737c-.043.145-.452.263-.915.263h-6.623c-.463 0-.794-.118-.74-.263l.273-.737h-2.96l-.282.737c-.056.145-.465.263-.914.263h-6.424c-.449 0-.757-.118-.69-.263l.344-.737h-3.34l-.39.688c-.09.157-.512.286-.979.309l-.141.003H31.735c-.52 0-.836-.14-.705-.312l1.819-2.393c.123-.163.632-.295 1.136-.295h1.221l.494-.705c.103-.146.505-.268.936-.291l.145-.004zm19.078-3c.394 0 .68.074.64.166l-.732 1.659c-.043.097-.406.175-.812.175h-5.807c-.405 0-.692-.078-.639-.175l.904-1.659c.05-.092.41-.166.805-.166h5.64zm-19.993 0c.427 0 .706.088.622.197l-1.226 1.596c-.088.114-.516.207-.955.207h-7.171c-.44 0-.714-.093-.612-.207l1.425-1.596c.097-.11.522-.197.95-.197zm30.953 0c.406 0 .711.074.682.166l-.525 1.659c-.03.097-.394.175-.812.175h-5.975c-.418 0-.723-.078-.682-.175l.702-1.659c.039-.092.399-.166.805-.166h5.805zm9.957 0c.418 0 .743.074.726.166l-.305 1.659c-.018.097-.381.175-.811.175h-6.154c-.43 0-.756-.078-.727-.175l.487-1.659c.027-.092.388-.166.806-.166h5.978zm20.752 0c.434 0 .794.074.804.166l.17 1.659c.01.097-.344.175-.791.175h-6.4c-.447 0-.81-.078-.808-.175l.018-1.659c.001-.092.354-.166.789-.166h6.218zm-9.798 0c.431 0 .777.074.773.166l-.073 1.659c-.004.097-.367.175-.81.175h-6.341c-.444 0-.79-.078-.776-.175l.26-1.659c.015-.092.376-.166.807-.166h6.16zm19.562 0c.423 0 .783.074.806.166l.404 1.659c.023.097-.31.175-.745.175h-6.223c-.435 0-.798-.078-.81-.175l-.22-1.659c-.013-.092.32-.166.742-.166h6.046zm9.78 0c.41 0 .77.074.805.166l.623 1.659c.036.097-.277.175-.699.175h-6.04c-.423 0-.786-.078-.812-.175l-.445-1.659c-.024-.092.289-.166.699-.166h5.869zm10.792 0c.398 0 .758.074.804.166l.83 1.659c.048.097-.245.175-.655.175h-5.869c-.41 0-.774-.078-.812-.175l-.656-1.659c-.036-.092.257-.166.656-.166h5.702zm9.803 0c.387 0 .747.074.804.166l1.024 1.659c.06.097-.215.175-.614.175h-5.705c-.398 0-.762-.078-.812-.175l-.856-1.659c-.047-.092.229-.166.616-.166h5.543zm16.217 0c.467 0 .932.088 1.038.197l1.558 1.596c.111.114-.188.207-.668.207h-12.017c-.48 0-.943-.093-1.032-.207l-1.246-1.596c-.085-.11.225-.197.692-.197zm-107.988 0c.383 0 .652.074.6.166l-.927 1.659c-.054.097-.418.175-.812.175h-5.646c-.394 0-.662-.078-.599-.175l1.095-1.659c.06-.092.42-.166.804-.166h5.485zm-.077-2c.432 0 .736.075.677.169l-.415.658c-.06.096-.464.173-.903.173h-5.997c-.44 0-.738-.077-.668-.173l.484-.658c.069-.094.475-.169.907-.169h5.915zm-9.973 0c.427 0 .717.075.646.169l-.498.658c-.072.096-.482.173-.915.173H39.65c-.433 0-.718-.077-.636-.173l.567-.658c.08-.094.492-.169.919-.169h5.843zm18.944 0c.438 0 .755.075.709.169l-.33.658c-.047.096-.445.173-.89.173h-6.07c-.444 0-.757-.077-.7-.173l.4-.658c.056-.094.457-.169.895-.169h5.986zm9.97 0c.443 0 .775.075.74.169l-.24.658c-.035.096-.427.173-.877.173h-6.144c-.45 0-.777-.077-.732-.173l.312-.658c.044-.094.439-.169.882-.169h6.059zm19.037 0c.397 0 .713.075.706.169l-.05.658c-.008.096-.34.173-.743.173H88.7c-.403 0-.716-.077-.7-.173l.115-.658c.016-.094.351-.169.749-.169h5.43zm-8.068 0c.448 0 .794.075.773.169l-.15.658c-.022.096-.408.173-.863.173h-6.219c-.455 0-.797-.077-.765-.173l.222-.658c.032-.094.42-.169.87-.169h6.132zm17.009 0c.4 0 .728.075.733.169l.032.658c.005.096-.32.173-.726.173h-5.548c-.406 0-.73-.077-.726-.173l.032-.658c.005-.094.333-.169.733-.169h5.47zm10.902 0c.397 0 .732.075.748.169l.114.658c.017.096-.296.173-.699.173h-5.507c-.403 0-.735-.077-.742-.173l-.05-.658c-.008-.094.308-.169.705-.169h5.43zm9.77 0c.448 0 .837.075.868.169l.223.658c.032.096-.31.173-.765.173h-6.219c-.455 0-.841-.077-.863-.173l-.15-.658c-.021-.094.325-.169.773-.169h6.133zm8.895 0c.443 0 .838.075.882.169l.312.658c.045.096-.283.173-.732.173h-6.144c-.45 0-.842-.077-.877-.173l-.24-.658c-.035-.094.297-.169.74-.169h6.059zm9.897 0c.438 0 .839.075.895.169l.4.658c.057.096-.256.173-.7.173h-6.071c-.444 0-.842-.077-.89-.173l-.328-.658c-.047-.094.27-.169.708-.169h5.986zm9.9 0c.433 0 .838.075.907.169l.484.658c.07.096-.229.173-.668.173h-5.997c-.44 0-.843-.077-.903-.173l-.415-.658c-.058-.094.245-.169.677-.169h5.915zm9.901 0c.427 0 .839.075.92.169l.566.658c.082.096-.203.173-.636.173h-5.926c-.433 0-.843-.077-.915-.173l-.498-.658c-.07-.094.219-.169.646-.169h5.843z" opacity=".651"/></g></g><g filter="url(#n)" class="C"><g transform="translate(19 132)"><rect width="39" height="39" fill="url(#a)" rx="19.5" class="D"/><g class="H"><path d="M8.736 14.326L5.808 9.43 11.617 0h5.861zm3.006 4.916l-3.006-4.916h10.797l2.881 4.916zm-8.273-5.603l3.516 5.603H0l3.416-5.603z" transform="translate(8.138 9.32)"/></g></g></g><g opacity=".2" class="C"><path fill="url(#b)" d="M205.074 396.922v199.36c-22.45-41.965-39.232-86.723-49.909-133.103-19.195-83.602-12.183-149.176 11.737-146.073 15.922 2.116 28.912 38.447 38.172 79.816z"/><path fill="url(#c)" d="M205.074 564.458v53.647h-22.278c-14.328-20.75-31.312-46.407-45.962-71.665-29.509-50.735-49.88-99.827-21.425-104.078 14.233-2.126 27.592 6.414 39.756 20.78 20.932 24.716 38.21 66.721 49.91 101.316z"/><path stroke="#fff" stroke-width=".949" d="M130.249 467.06c18.9 35.6 60.28 120.009 74.825 149.717m-36.141-270.039c.636 22.924 1.3 74.256 36.141 202.283"/></g><g class="C"><g transform="translate(42 73)"><mask id="q" class="B"><use xlink:href="#C"/></mask><g mask="url(#q)"><path fill="url(#d)" d="M57.82 46.586c1.07 7.954 1.275 12.583.615 13.886-.99 1.954.927 11.148 7.032 11.681s9.306-2.004 9.546-8.207.622-8.595 1.608-11.34-17.388-14.117-18.186-12.015c-.532 1.402-.737 3.4-.615 5.995z"/><path fill="url(#d)" d="M82.347 28.372l.057 8.806c-.177 1.418-.319 3.531-.16 6.261s-1.237 9.444-2.796 11.876c-.931 1.453-4.622 4.253-8.241 3.86-4.292-.467-8.984-4.672-9.486-6.775-.925-3.877-.158-7.297-2.825-9.357s-4.61-3.974-4.37-7.154 2.978-10.75 4.37-11.068 23.451 1.759 23.451 3.55z"/><g class="D"><path fill="#203966" d="M59.886 26.393c1.271 1.898 12.4 11.046 23.555 5.107s-3.684-16.721-10.412-17.951-12.523-.547-16.593 5.04-6.11 15.163 1.851 28.154c.35-2.062.526-3.435.526-4.122-3.169-2.868-3.96-5.54-2.377-8.018 2.377-3.716 3.163 3.57 3.45 4.74.946 0 1.541-.163 1.786-.489-.652-1.839-.89-3.54-.713-5.102.265-2.343 1.047-2.865-1.073-7.359z"/><path fill="url(#e)" d="M37.818 164.471c0-2.889-3.372-21.814 3.578-27.5s15.548 2.61 47.213 3.866c.521 12.71.521 21.658 0 26.844s-19.648 12.537-50.791-3.21z"/></g><path fill="url(#d)" d="M33.006 139.575c.744 3.207 3.207 6.633 4.037 7.373s3.848 1.656 4.418 1.478 2.073-1.399 2.14-2.828-1.372-2.234-1.382-4.345-3.62-5.174-3.62-7.042-6.337 2.158-5.593 5.364z"/><path fill="url(#d)" d="M125.97 135.511c2.24 2.887 3.697 3.392 4.537 4.253s2.76 3.9 3.473 3.393 1.451-1.505.342-3.393-2.79-3.882-2.208-4.882 3.432-3.955 5.809-4.64 3.167-.244 3.403-.612-2.842-.904-4.111-1.042a23.77 23.77 0 0 0-5.66 0c-1.729.198-2.933-.5-3.613-2.095-2.807 4.088-3.464 7.094-1.971 9.018z"/><g transform="translate(22 61)"><mask id="r" class="B"><use xlink:href="#D"/></mask><use fill="url(#f)" xlink:href="#D" class="D"/><path fill="url(#g)" d="M16.099 37.867l9.786-13.045c2.417 28.203-1.769 47.189-12.557 56.958-2.852-16.95-1.264-25.81 0-33.217.553-3.242 1.477-6.808 2.77-10.696z" style="mix-blend-mode:multiply" mask="url(#r)"/><path fill="url(#h)" d="M19.362 84.726c3.653-10.735 20.07-46.092 27.097-51.134s7.556-11.548 7.291-20.185S37.074-12.437 28.494-5.928-3.056 12.588-5.567 32.724 2.618 83.746 7.45 80.693s8.257 14.768 11.91 4.033z" style="mix-blend-mode:multiply" mask="url(#r)" opacity=".162"/></g><path fill="url(#i)" d="M58.919 55.275c0 1.91 3.024 7.245 8.863 7.042s7.015-.357 7.678-3.203c0 4.217.228 5.462-.85 8.243s-7.788 4.305-11.553 1.995-5.726-3.693-5.176-7.91 1.038-8.076 1.038-6.167z"/></g></g><path d="M183 226.708l.23-.026-.23.026zm.498-.058l.229-.038-.23.038zm-1.001.089l.23-.013-.23.013zm-1.884-.127l-.172-.027.172.027zm.555.076l-.208-.022.208.022zm.53.041l-.222-.01.221.01zm.517.013h-.227.227zm-10.284-13.85l-.1.492.1-.492zm.124-.5l-.09.357.09-.357zm.18-.604l-.142.466.142-.466zm.164-.455l-.156.432.156-.432zm.189-.462l-.137.329.137-.329zm.256-.55l-.202.426.202-.425zm.221-.413l-.201.376.201-.376zm.248-.419l-.178.297.178-.297zm.324-.489l-.255.38.255-.38zm.273-.368l-.24.322.24-.322zm.302-.372l-.216.263.216-.263zm.382-.426l-.302.332.302-.332zm.319-.318l-.27.269.27-.27zm.783-.677l-.343.28.343-.28zm.359-.264l-.297.218.297-.218zm.393-.262l-.281.184.28-.184zm-1.185.884l-.25.225.25-.225zm2.052-1.373l-.317.165.317-.165zm.43-.2l-.308.14.308-.14zm-.824.406l-.377.222.377-.222zm.924-.45l.407-.161-.407.161zm.828-.304l-.333.112.333-.112zm.13-.04l.332-.092-.331.092zm1.19 5.038c-.107-.026-.212-.045-.317-.06l.317.06zm5.398 1.302a2.88 2.88 0 0 0-.29-.054l.292.054h-.002zm-6.394-1.377a2.41 2.41 0 0 0-.257.037l-.007.001a2.64 2.64 0 0 1 .267-.038h-.003zm.323-.013a2.5 2.5 0 0 0-.275.01h-.005a2.59 2.59 0 0 1 .28-.01zm.332.024a2.98 2.98 0 0 0-.294-.023h-.002l.297.023zm3.25 2.096l-.111.121.111-.12zm1.54-.79l-.148.022c.048-.01.098-.015.147-.022zm.27-.017l-.16.005.16-.005zm.295.013l-.186-.014.186.014zm-8.612.812l-.02.052.02-.052zm.106-.243l-.014.028.014-.028zm.12-.231c-.01.015-.018.03-.026.047l.025-.047zm.137-.227l-.022.032.022-.032zm.142-.201l-.029.039.029-.04zm.168-.205l-.03.032.03-.032zm.162-.172l-.03.031.03-.03zm.196-.177l-.036.03.036-.03zm.18-.14l-.03.022.03-.022zm.416-.25l-.024.012.024-.013zm-.195.106l-.042.025.042-.025zm-1.597 2.252l-.014.056.014-.056zm7.23-.978c.058-.036.118-.068.179-.099l-.18.099zm-.172.114l.16-.107h.002a1.98 1.98 0 0 0-.162.108zm-.171.135l.123-.098-.123.098zm-.365.365l-.104.13.104-.13zm-.126.158l-.113.162.113-.162zm-.14.205l-.078.129.078-.129zm-.106.177l-.089.17v-.001l.09-.169zm9.438 5.193c1.052-5.899-2.568-11.76-8.088-13.091a9.43 9.43 0 0 0-4.494.002c.13-.033.263-.063.395-.09l-1.263.255c-3.85.777-7.016 3.956-7.8 8.358-1.053 5.897 2.568 11.758 8.089 13.09 1.4.338 2.788.352 4.097.087l1.264-.255-.029.005c3.862-.766 7.042-3.949 7.83-8.36z" class="F"/><g transform="translate(186.278 215.112)"><mask id="s" class="B"><use xlink:href="#E"/></mask><path d="M1.264.016L0 .273c.34-1.93-.623-3.977-2.534-4.443-.412-.101-.792-.103-1.137-.033l1.263-.258c.346-.07.726-.068 1.138.033C.64-3.962 1.604-1.914 1.264.016" mask="url(#s)" class="E"/></g><g transform="translate(183.812 210.75)"><mask id="t" class="B"><use xlink:href="#F"/></mask><path d="M3.73 4.377l-1.264.255C2.806 2.724 1.843.7-.068.238-.48.138-.86.136-1.206.206L.058-.05c.345-.07.726-.068 1.138.032 1.91.46 2.873 2.486 2.533 4.394" mask="url(#t)" class="E"/></g><g transform="translate(182.607 210.653)"><mask id="u" class="B"><use xlink:href="#G"/></mask><path d="M4.935 4.525l-1.264.258c.34-1.93-.623-3.978-2.534-4.444C.725.239.345.236 0 .307L1.263.049a2.58 2.58 0 0 1 1.138.032c1.91.466 2.874 2.514 2.534 4.444" mask="url(#u)" class="E"/></g><g transform="translate(184.162 215.127)"><mask id="v" class="B"><use xlink:href="#H"/></mask><path d="M-3.923 6.536l-1.263.255C1.302 4.821 2.053.666 2.116.255L3.379 0c-.062.411-.813 4.567-7.302 6.536" mask="url(#v)" class="E"/></g><g transform="translate(183.918 218.799)"><mask id="w" class="B"><use xlink:href="#I"/></mask><path d="M-3.679 2.897l-1.263.258c6.489-1.992 7.24-6.194 7.302-6.61l1.263-.257c-.062.415-.813 4.617-7.302 6.609" mask="url(#w)" class="E"/></g><g transform="translate(180.642 210.7)"><mask id="x" class="B"><use xlink:href="#J"/></mask><path d="M1.264 1.639L0 1.893C.36 1.15 1.036.443 1.965.255L3.228 0C2.3.187 1.624.895 1.264 1.64" mask="url(#x)" class="I"/></g><g transform="translate(179.711 210.205)"><mask id="y" class="B"><use xlink:href="#K"/></mask><path d="M2.194 2.134L.931 2.39C.825 1.224.152-.153-1.367-.52c-.45-.108-.882-.113-1.283-.032l1.264-.255c.401-.08.833-.076 1.283.032C1.416-.408 2.089.97 2.194 2.135" mask="url(#y)" class="E"/></g><g transform="translate(177.062 209.342)"><mask id="z" class="B"><use xlink:href="#L"/></mask><path d="M4.844 2.997l-1.264.255C3.474 2.087 2.8.709 1.282.342.832.235.4.23 0 .312L1.263.056c.401-.081.833-.077 1.283.032 1.519.366 2.192 1.744 2.298 2.909" mask="url(#z)" class="E"/></g><g transform="translate(178.976 219.027)"><mask id="AA" class="B"><use xlink:href="#M"/></mask><path d="M1.264 2.636L0 2.891C6.489.921 7.24-3.234 7.302-3.645L8.565-3.9c-.062.411-.813 4.566-7.301 6.536" mask="url(#AA)" class="E"/></g><g transform="translate(174.516 209.398)"><mask id="AB" class="B"><use xlink:href="#N"/></mask><path d="M1.264 2.893L0 3.147C.26 1.687 1.244.517 2.548.255L3.81 0C2.508.263 1.524 1.433 1.264 2.893" mask="url(#AB)" class="I"/></g><path fill="#f6f6f6" d="M185.008 210.733c1.91.46 2.874 2.486 2.539 4.365-.068.44-.819 4.596-7.303 6.567-5.278-4.809-4.547-8.969-4.464-9.375.34-1.908 1.917-3.32 3.828-2.86 1.519.367 2.192 1.745 2.298 2.91.494-1.02 1.583-1.974 3.102-1.607"/><g transform="translate(174.436 212.29)"><mask id="AC" class="B"><use xlink:href="#O"/></mask><path d="M5.807 9.374l-1.263.255C-.734 4.821-.003.661.08.255L1.344 0C1.26.406.529 4.566 5.807 9.374" mask="url(#AC)" class="I"/></g><g transform="translate(170 204.184)"><mask id="AD" class="B"><use xlink:href="#P"/></mask><path d="M13.633 21.535l-1.264.255a9.46 9.46 0 0 1-4.098-.087C2.751 20.37-.87 14.51.181 8.613.968 4.21 4.134 1.031 7.983.254L9.246 0c-3.85.777-7.015 3.955-7.8 8.357-1.053 5.898 2.569 11.759 8.089 13.09 1.4.338 2.788.352 4.098.088" mask="url(#AD)" class="E"/></g><path d="M180.24 221.664c6.488-1.97 7.24-6.125 7.302-6.537.34-1.908-.623-3.933-2.534-4.394-1.52-.367-2.608.586-3.102 1.606-.106-1.165-.78-2.543-2.298-2.909-1.911-.46-3.488.952-3.823 2.83-.088.436-.82 4.596 4.455 9.404m3.105-17.394c5.519 1.331 9.14 7.192 8.088 13.092s-6.38 9.6-11.898 8.268-9.142-7.19-8.09-13.089 6.38-9.602 11.9-8.27" class="H"/><path d="M80.166 82.71l-3.73 3.681c-.218.216-.454.416-.707.598l3.73-3.682c.253-.182.49-.382.707-.598" class="F"/><g transform="translate(75.73 82.71)"><mask id="AE" class="B"><use xlink:href="#Q"/></mask><path d="M4.437 0L.707 3.682C.49 3.898.253 4.098 0 4.28L3.73.598c.253-.182.489-.382.707-.598" mask="url(#AE)" class="F"/></g><g class="F"><path d="M60.37 70.31l-3.73 3.682-16.489-3.013 3.73-3.682z"/><path d="M50.549 82.685l-3.73 3.682 9.821-12.375 3.73-3.682zM20.83 67.293l3.73-3.682c-1.423 1.405-2.083 3.467-1.741 5.59.707 4.437 4.196 12.489 4.38 12.913s3.673 8.476 6.485 12.163l-3.73 3.682c-2.812-3.687-6.302-11.74-6.485-12.164s-3.673-8.476-4.38-12.912c-.342-2.123.318-4.185 1.741-5.59"/></g><g transform="translate(19 63.61)"><mask id="AF" class="B"><use xlink:href="#R"/></mask><path d="M14.684 30.666l-3.73 3.682C8.142 30.66 4.652 22.608 4.47 22.185S.796 13.708.089 9.273c-.342-2.124.318-4.186 1.741-5.59L5.56 0C4.137 1.405 3.477 3.467 3.819 5.59c.707 4.437 4.196 12.489 4.38 12.913s3.672 8.476 6.485 12.163" mask="url(#AF)" class="F"/></g><path d="M50.549 82.685l9.82-12.375-16.488-3.013 6.668 15.388m20.498-30.644c2.811 3.687 6.301 11.74 6.484 12.163s3.673 8.476 4.38 12.912c.395 2.451-.55 4.822-2.452 6.191-3.457 2.486-18.409 7.805-19.196 8.086s-15.739 5.6-20.134 5.908c-2.427.171-4.894-.985-6.446-3.024-2.811-3.687-6.3-11.74-6.484-12.163s-3.673-8.477-4.38-12.912c-.395-2.45.545-4.82 2.452-6.191 3.452-2.484 18.404-7.804 19.19-8.085s15.74-5.6 20.14-5.91c2.422-.17 4.894.986 6.446 3.025" class="F"/><g transform="translate(29.954 83.307)"><mask id="AG" class="B"><use xlink:href="#S"/></mask><path d="M49.505 0l-3.73 3.682c-3.457 2.485-18.41 7.806-19.196 8.086s-15.74 5.6-20.134 5.908c-2.427.171-4.894-.985-6.445-3.024l3.73-3.682c1.55 2.039 4.018 3.195 6.445 3.024 4.395-.308 19.347-5.628 20.134-5.908S46.048 2.486 49.505 0" mask="url(#AG)" class="F"/></g><g transform="translate(76 81)"><mask id="AH" class="B"><use xlink:href="#T"/></mask><path fill="#720d1c" d="M4 0L.638 3.441C.44 3.642.228 3.83 0 4L3.362.559C3.591.389 3.803.2 4 0" mask="url(#AH)"/></g><path fill="#6e0d1b" d="M61 68.151L57.31 72 41 68.849 44.689 65z"/><path fill="#6f0d1b" d="M50.853 80.331L47 84l10.146-12.331L61 68z"/><g transform="translate(19 62)"><mask id="AI" class="B"><use xlink:href="#U"/></mask><path fill="#9b3339" d="M15 30.355L11.19 34c-2.873-3.65-6.437-11.62-6.625-12.04S.813 13.569.09 9.179c-.349-2.103.326-4.144 1.78-5.534L5.68 0C4.226 1.39 3.552 3.432 3.9 5.534c.724 4.39 4.288 12.362 4.475 12.781s3.977 8.624 6.85 12.274" mask="url(#AI)"/></g><g transform="translate(23 47)"><mask id="AJ" class="B"><use xlink:href="#V"/></mask><path d="M27.693 33.465l-6.638-15.287 16.413 2.991-9.775 12.296zm26.857-18.36c-.183-.421-3.655-8.42-6.453-12.084C46.55.995 44.089-.152 41.678.016c-1.052.077-2.71.436-4.636.948-6.082 1.611-14.815 4.712-15.41 4.923-.783.278-15.666 5.565-19.101 8.031C.631 15.28-.306 17.634.089 20.07c.703 4.406 4.176 12.406 4.359 12.826s3.655 8.42 6.456 12.082c1.543 2.027 3.998 3.175 6.416 3.005 3.28-.23 12.473-3.26 17.194-4.876l2.847-.992c.785-.28 15.668-5.566 19.109-8.034 1.893-1.36 2.833-3.715 2.443-6.149-.707-4.409-4.18-12.407-4.363-12.828z" mask="url(#AJ)" class="H"/></g><path fill="#9b3339" d="M78 84c-3.422 2.528-17.841 8.444-18.62 8.73s-11.713 4.588-21.698 6.34c-2.22.39-5.957-.996-7.492-3.07l3.657-3.846c.709 1.059 4.41 3.058 5.636 2.846 10.213-1.766 19.117-5.558 19.897-5.843s17.365-6.364 20.786-8.894L78 84z"/><g class="D"><path fill="url(#j)" d="M182 74.789L165.913 64c-4.267 9.145-10.571 15.648-18.913 19.508L160.765 96c10.77-3.85 17.849-10.92 21.235-21.211z"/><path style="mix-blend-mode:multiply" d="M154.28 83l-1.28.817L163.438 92l1.562-.793zm11.494-14L178 76.689 177.171 78 165 70.33zm-2 3L176 79.689 175.171 81 163 73.33zm4.009 7L174 82.711 173.161 84 167 80.308zm-5.746-4L166 77.755c-.104.232-.24.497-.408.794-.765 1.356-1.845 2.54-3.162 3.465l-1.353.986L157 80.053l.661-.373c1.699-.978 3.084-2.358 4.013-3.998l.363-.682zm3.557 7L171 86.259c-.622.922-1.318 1.702-2.087 2.339s-1.578 1.104-2.43 1.402L161 85.823c1.156-.678 2.068-1.298 2.737-1.86s1.288-1.217 1.857-1.963z" opacity=".517" class="G"/><path fill="url(#k)" d="M64 269.846L40.099 254c-6.34 13.432-15.705 22.983-28.099 28.653L32.452 301c16-5.655 26.517-16.04 31.548-31.154z"/><path style="mix-blend-mode:multiply" d="M22.677 281.881l-1.877 1.23 15.309 12.313 2.291-1.193zm17.665-20.712l18.058 11.57-1.224 1.973L39.2 263.171zm-3.2 4.78L55.2 277.518l-1.224 1.974L36 267.95zm5.621 10.356L52 281.626l-1.246 1.849-9.154-5.295zm-8.751-6.373L40 274.047c-.158.347-.363.743-.616 1.186-1.157 2.026-2.789 3.794-4.78 5.176l-2.044 1.472-6.16-4.401 1-.557c2.566-1.461 4.66-3.523 6.062-5.972l.55-1.019zm5.772 10.356L48 286.65c-.946 1.378-2.003 2.543-3.172 3.494s-2.4 1.649-3.693 2.094L32.8 286c1.757-1.013 3.143-1.94 4.16-2.78s1.958-1.816 2.824-2.93z" opacity=".517" class="G"/><g opacity=".5"><path fill="url(#l)" d="M140.675 26.71l-.007-.006c-.77-.595-.892-1.678-.273-2.418l11.639-13.903c.581-.696 1.62-.848 2.39-.35l4.14 2.668c.685.442 1.596.376 2.205-.16l49.518-43.566.028-.024c.743-.626 1.873-.555 2.525.159l37.19 40.742a1.67 1.67 0 0 1-.086 2.356L193.92 65.503c-.644.612-1.663.665-2.372.123L140.675 26.71z"/><path fill="url(#m)" d="M194.918 65.369L163.899 28.41c-.574-.684-.514-1.679.138-2.294l64.223-60.63a1.81 1.81 0 0 1 2.496.028c.13.129.239.277.321.439l22.74 44.687c.337.661.196 1.456-.349 1.972l-55.946 52.901a1.81 1.81 0 0 1-2.496-.026l-.11-.118z"/><path fill="#a3c1ea" d="M193.619 60.128l-1.908-1.698 18.482-14.744 1.498 1.962z"/></g></g></g></g></svg>