<svg width="30" height="20" viewBox="0 0 30 20" fill="none" xmlns="http://www.w3.org/2000/svg">
<path d="M9.82327 18.3563H1.51318V13.6193L3.69677 9.64137L1.51318 6.65985V1.25732H9.82327V18.3563Z" fill="#8EDEF4"/>
<path fill-rule="evenodd" clip-rule="evenodd" d="M30 6.51573C30 7.12099 29.7334 7.44016 29.1359 7.55109V7.54525C28.6016 7.63755 28.1169 7.91515 27.767 8.3293C27.417 8.74346 27.2242 9.26767 27.2223 9.80988C27.2204 10.3521 27.4097 10.8776 27.7568 11.2942C28.1039 11.7107 28.5867 11.9916 29.1203 12.0876C29.7451 12.2043 30 12.5079 30 13.1346V13.4791V17.7742C29.9981 18.8894 29.2429 19.6387 28.1239 19.6387H2.01233C0.714239 19.6387 0 18.9283 0 17.6419V17.0425V13.1502C0 12.4963 0.241324 12.2082 0.89134 12.0837C1.4234 11.9827 1.90324 11.6984 2.24742 11.2802C2.5916 10.8621 2.77835 10.3366 2.77522 9.795C2.77407 9.25702 2.58343 8.73664 2.23679 8.32523C1.89015 7.91381 1.40965 7.63766 0.879663 7.54525C0.254947 7.42848 0 7.12488 0 6.49627V6.30165V1.86636C0.00194616 0.74927 0.755109 0 1.87415 0H28.1356C29.2488 0 30 0.755109 30 1.87804V6.51573ZM28.2056 13.8119C28.2056 13.7146 28.2018 13.7048 28.0928 13.664L28.0889 13.6756C27.3039 13.3842 26.6271 12.8593 26.1496 12.1715C25.6721 11.4838 25.4168 10.6662 25.418 9.82889C25.4193 8.9916 25.6771 8.1748 26.1567 7.48849C26.6363 6.80217 27.3147 6.2793 28.1006 5.99027C28.1998 5.95524 28.1998 5.9494 28.1998 5.83263V3.01849V2.04541V1.81576H27.9779H10.7272V2.06682C10.7272 2.17511 10.7285 2.28141 10.7299 2.38647C10.7324 2.59293 10.735 2.79458 10.7272 2.99708C10.7263 3.14497 10.6906 3.29056 10.623 3.42209C10.5554 3.55361 10.4577 3.66736 10.338 3.75414C10.2002 3.84727 10.0394 3.90045 9.87322 3.90781C9.70709 3.91516 9.54216 3.8764 9.39669 3.79581C9.25123 3.71522 9.1309 3.59595 9.04904 3.4512C8.96717 3.30645 8.92696 3.14187 8.93286 2.97567V2.03568V1.80992H7.06066H1.9228C1.83717 1.80992 1.8216 1.82355 1.8216 1.82355C1.80686 1.86601 1.80155 1.91117 1.80603 1.95589C1.80603 2.32548 1.80724 2.71551 1.80848 3.12018L1.80848 3.12025C1.81112 3.97702 1.81396 4.89944 1.80603 5.83263C1.80409 5.94162 1.80798 5.95524 1.93059 6.00195C2.713 6.29086 3.38829 6.81224 3.86579 7.49608C4.34328 8.17993 4.60012 8.99349 4.60182 9.82754C4.60351 10.6616 4.34998 11.4762 3.87527 12.162C3.40056 12.8478 2.72739 13.3719 1.94616 13.664C1.81966 13.7107 1.80603 13.734 1.80603 13.8819V16.6377V17.64V17.854H2.01427H8.93286V17.6594V16.7272C8.93542 16.5425 8.98001 16.3608 9.06325 16.1959C9.15675 16.0291 9.30326 15.8984 9.47954 15.8243C9.65583 15.7503 9.85178 15.7372 10.0363 15.7872C10.2317 15.8326 10.4059 15.943 10.5304 16.1004C10.6548 16.2577 10.7222 16.4527 10.7214 16.6533V17.6049V17.8501H14.133H28.0733C28.1667 17.8501 28.1901 17.8326 28.1901 17.8326C28.2044 17.7962 28.2098 17.7568 28.2056 17.7178V13.8119ZM17.0159 5.26494C16.6416 5.01322 16.201 4.87823 15.75 4.87706C15.1474 4.87704 14.5692 5.11509 14.1412 5.53937C13.7133 5.96365 13.4703 6.5398 13.4652 7.14239C13.4625 7.59344 13.5937 8.03515 13.8422 8.41158C14.0907 8.78802 14.4454 9.08223 14.8612 9.25698C15.277 9.43173 15.7354 9.47915 16.1782 9.39323C16.621 9.30731 17.0283 9.09192 17.3486 8.77434C17.669 8.45676 17.8878 8.05127 17.9775 7.60921C18.0672 7.16716 18.0237 6.70843 17.8525 6.29111C17.6814 5.87379 17.3902 5.51666 17.0159 5.26494ZM15.0178 7.63636C14.9235 7.49189 14.8742 7.32268 14.8761 7.15017C14.8769 7.03569 14.9003 6.92249 14.945 6.81709C14.9897 6.71169 15.0548 6.61617 15.1366 6.53603C15.2183 6.4559 15.3151 6.39273 15.4214 6.35017C15.5277 6.3076 15.6413 6.28648 15.7558 6.28803C15.9283 6.28958 16.0965 6.34227 16.2391 6.43945C16.3816 6.53662 16.4921 6.67389 16.5566 6.8339C16.6211 6.99391 16.6367 7.16946 16.6014 7.33833C16.5661 7.5072 16.4815 7.66179 16.3583 7.78255C16.235 7.90331 16.0788 7.9848 15.9092 8.0167C15.7397 8.04861 15.5645 8.02951 15.4058 7.9618C15.2471 7.8941 15.1121 7.78084 15.0178 7.63636ZM22.1979 6.44364C22.251 6.36812 22.2985 6.28876 22.3399 6.20621C22.4287 6.01378 22.4463 5.79611 22.3896 5.59192C22.333 5.38772 22.2057 5.21025 22.0305 5.09106C21.8523 4.96708 21.6346 4.91322 21.4191 4.93979C21.2036 4.96637 21.0056 5.07151 20.8628 5.23508C20.7973 5.30966 20.7375 5.38903 20.6838 5.47251L20.6701 5.49197L15.5537 13.0508C15.4755 13.1625 15.4102 13.2826 15.3591 13.4089C15.3071 13.5421 15.2887 13.686 15.3057 13.8279C15.3227 13.9698 15.3744 14.1053 15.4564 14.2224C15.5392 14.3421 15.6496 14.44 15.7784 14.5077C15.9072 14.5755 16.0504 14.6112 16.1959 14.6117C16.3637 14.6059 16.5272 14.5568 16.6704 14.4692C16.8137 14.3815 16.9318 14.2583 17.0133 14.1115L20.6215 8.77903L22.1979 6.44364ZM21.9503 14.7674C21.4997 14.7592 21.0617 14.6177 20.6916 14.3607C20.3214 14.1036 20.0358 13.7427 19.8708 13.3233C19.7058 12.904 19.6688 12.4452 19.7645 12.0048C19.8602 11.5645 20.0843 11.1624 20.4084 10.8494C20.7326 10.5364 21.1423 10.3265 21.5857 10.2463C22.0291 10.166 22.4864 10.2191 22.8997 10.3986C23.313 10.5782 23.6637 10.8763 23.9077 11.2552C24.1516 11.6341 24.2777 12.0768 24.2701 12.5274C24.265 12.8268 24.201 13.1223 24.0816 13.397C23.9623 13.6717 23.7899 13.9202 23.5745 14.1282C23.359 14.3363 23.1047 14.4998 22.826 14.6095C22.5473 14.7191 22.2497 14.7728 21.9503 14.7674ZM21.9503 13.3564C22.1213 13.3605 22.2898 13.3139 22.4345 13.2226C22.5792 13.1312 22.6937 12.9991 22.7635 12.8428C22.8333 12.6866 22.8554 12.5132 22.8269 12.3444C22.7985 12.1757 22.7208 12.0191 22.6036 11.8943C22.4864 11.7696 22.335 11.6823 22.1683 11.6434C22.0017 11.6045 21.8272 11.6157 21.667 11.6757C21.5067 11.7356 21.3677 11.8416 21.2675 11.9804C21.1672 12.1191 21.1103 12.2843 21.1037 12.4553C21.1 12.5701 21.1191 12.6845 21.1597 12.7919C21.2002 12.8993 21.2616 12.9977 21.3402 13.0813C21.4188 13.165 21.5132 13.2324 21.6179 13.2796C21.7225 13.3268 21.8355 13.3529 21.9503 13.3564ZM10.5169 8.2848C10.515 8.37648 10.4946 8.46683 10.4569 8.55042C10.4192 8.63402 10.365 8.70914 10.2976 8.77129C10.2302 8.83345 10.1509 8.88135 10.0645 8.91212C9.97815 8.94289 9.88645 8.95591 9.79492 8.95039C9.70403 8.94888 9.61434 8.92935 9.53105 8.89293C9.44776 8.8565 9.37253 8.80391 9.30972 8.7382C9.2469 8.67249 9.19775 8.59496 9.16512 8.51012C9.13249 8.42528 9.11701 8.3348 9.1196 8.24393V7.21636V6.1596C9.11701 6.06829 9.13251 5.97736 9.16519 5.89206C9.19788 5.80676 9.24711 5.72877 9.31006 5.66257C9.373 5.59636 9.44842 5.54326 9.53196 5.50632C9.61551 5.46938 9.70554 5.44932 9.79686 5.44731C9.88808 5.44206 9.97941 5.45521 10.0654 5.48599C10.1515 5.51677 10.2304 5.56454 10.2976 5.62646C10.3648 5.68838 10.4188 5.76318 10.4565 5.84641C10.4942 5.92964 10.5147 6.01961 10.5169 6.11095C10.5377 6.83621 10.5377 7.56083 10.5169 8.2848ZM10.464 13.7893C10.5001 13.7048 10.5188 13.6138 10.519 13.5218C10.5385 12.8095 10.5378 12.0966 10.5171 11.383C10.504 11.2031 10.422 11.0351 10.2882 10.9142C10.1544 10.7932 9.97915 10.7284 9.79883 10.7335C9.61852 10.7385 9.44708 10.8128 9.32022 10.9411C9.19337 11.0693 9.12086 11.2415 9.1178 11.4219V12.4495V13.4226V13.4829C9.11468 13.5759 9.13019 13.6687 9.16341 13.7556C9.19664 13.8426 9.24691 13.922 9.31128 13.9893C9.37564 14.0566 9.4528 14.1103 9.53821 14.1473C9.62363 14.1843 9.71559 14.2039 9.80868 14.2049C9.90059 14.2083 9.99223 14.1932 10.0782 14.1604C10.1641 14.1276 10.2425 14.0779 10.3088 14.0141C10.3751 13.9504 10.4279 13.8739 10.464 13.7893Z" fill="#4690A4"/>
</svg>
