<?xml version="1.0" encoding="UTF-8"?>
<svg width="16px" height="16px" viewBox="0 0 16 16" version="1.1" xmlns="http://www.w3.org/2000/svg" xmlns:xlink="http://www.w3.org/1999/xlink">
    <!-- Generator: Sketch 58 (84663) - https://sketch.com -->
    <title>Btn/16/Radio-16-Selected</title>
    <desc>Created with Sketch.</desc>
    <g id="Dark-Mode-2" stroke="none" stroke-width="1" fill="none" fill-rule="evenodd">
        <g id="[Darkmode]-09_Sync" transform="translate(-297.000000, -315.000000)" fill-rule="nonzero">
            <g id="Popup/Sync" transform="translate(257.000000, 202.000000)">
                <g id="Group-2">
                    <g>
                        <g id="Group-3" transform="translate(40.000000, 111.000000)">
                            <g id="Btn/16/Radio-16-NotSelected" transform="translate(0.000000, 2.000000)">
                                <g id="Btn/16/Radio-16-Selected">
                                    <path d="M8,0 C12.418278,0 16,3.581722 16,8 C16,12.418278 12.418278,16 8,16 C3.581722,16 0,12.418278 0,8 C0,3.581722 3.581722,0 8,0 Z M8,2 C4.6862915,2 2,4.6862915 2,8 C2,11.3137085 4.6862915,14 8,14 C11.3137085,14 14,11.3137085 14,8 C14,4.6862915 11.3137085,2 8,2 Z" id="Rectangle-11-Copy" fill="#587491"></path>
                                    <circle id="Oval-3" fill="#3C80EF" cx="8" cy="8" r="4"></circle>
                                </g>
                            </g>
                        </g>
                    </g>
                </g>
            </g>
        </g>
    </g>
</svg>