<svg width="24" height="24" viewBox="0 0 24 24" fill="none" xmlns="http://www.w3.org/2000/svg">
<path d="M13.3852 13.6148C13.5383 13.7678 13.5383 14.0158 13.3852 14.1688L12.5541 15L13.3852 15.8312C13.5382 15.9842 13.5382 16.2322 13.3852 16.3852C13.2322 16.5383 12.9841 16.5383 12.8311 16.3852L12 15.5541L11.1689 16.3852C11.0159 16.5382 10.7678 16.5382 10.6148 16.3852C10.4618 16.2322 10.4618 15.9841 10.6148 15.8311L11.4459 15L10.6148 14.1689C10.4617 14.0159 10.4617 13.7678 10.6148 13.6148C10.7678 13.4618 11.0158 13.4618 11.1688 13.6148L12 14.4459L12.8312 13.6148C12.9842 13.4617 13.2322 13.4617 13.3852 13.6148Z" fill="#74D6F1"/>
<path d="M19.9 6.9L15 2.2C14.8 2.1 14.6 2 14.5 2L5.5 2.00002C5.1 2.00002 4.8 2.10002 4.5 2.40002C4.2 2.70002 4 3.00002 4 3.40002V20.1C4 20.5 4.2 20.9 4.4 21.1C4.7 21.4 5 21.5 5.4 21.5L18.6 21.5C19 21.5 19.3 21.4 19.6 21.1C19.9 20.8 20 20.5 20 20.1V7.39999C20 7.02344 20 7 19.9 6.9ZM14.5 2.69999L18.983 6.99999H15C14.4477 6.99999 14 6.55228 14 5.99999V2.99999C14 2.5 14 2.49999 14.5 2.69999ZM7.5 13C7.5 12.4477 7.94772 12 8.5 12H15.5C16.0523 12 16.5 12.4477 16.5 13V17C16.5 17.5523 16.0523 18 15.5 18H8.5C7.94772 18 7.5 17.5523 7.5 17V13Z" fill="#74D6F1"/>
</svg>
