<svg width="24" height="24" viewBox="0 0 24 24" fill="none" xmlns="http://www.w3.org/2000/svg">
<path d="M7.5 13C7.5 12.4477 7.94772 12 8.5 12H15.5C16.0523 12 16.5 12.4477 16.5 13V17C16.5 17.5523 16.0523 18 15.5 18H8.5C7.94772 18 7.5 17.5523 7.5 17V13ZM13.3852 13.6148C13.2322 13.4617 12.9842 13.4617 12.8312 13.6148L12 14.4459L11.1688 13.6148C11.0158 13.4618 10.7678 13.4618 10.6148 13.6148C10.4617 13.7678 10.4617 14.0159 10.6148 14.1689L11.4459 15L10.6148 15.8311C10.4618 15.9841 10.4618 16.2322 10.6148 16.3852C10.7678 16.5382 11.0159 16.5382 11.1689 16.3852L12 15.5541L12.8311 16.3852C12.9841 16.5383 13.2322 16.5383 13.3852 16.3852C13.5382 16.2322 13.5382 15.9842 13.3852 15.8312L12.5541 15L13.3852 14.1688C13.5383 14.0158 13.5383 13.7678 13.3852 13.6148Z" fill="#BCCFDC"/>
<path d="M15 2.2L19.9 6.9C20 7 20 7.02344 20 7.39999V20.1C20 20.5 19.9 20.8 19.6 21.1C19.3 21.4 19 21.5 18.6 21.5L5.4 21.5C5 21.5 4.7 21.4 4.4 21.1C4.2 20.9 4 20.5 4 20.1V3.40002C4 3.00002 4.2 2.70002 4.5 2.40002C4.8 2.10002 5.1 2.00002 5.5 2.00002L14.5 2C14.6 2 14.8 2.1 15 2.2ZM17.8 7L15.1 4.4V7H17.8ZM5.5 3.50002V20.1L18.6 20V8.5H14.4C13.9 8.5 13.6 8.1 13.6 7.7V3.5L5.5 3.50002Z" fill="#BCCFDC"/>
</svg>
