<svg width="267" height="136" viewBox="0 0 267 136" fill="none" xmlns="http://www.w3.org/2000/svg">
<path d="M56.16 6.05387C56.16 2.71042 58.8704 0 62.2139 0H243.226C246.57 0 249.28 2.71041 249.28 6.05386V125.573H56.16V6.05387Z" fill="#829DB0"/>
<path d="M57.4213 6.05387C57.4213 3.40697 59.567 1.26122 62.2139 1.26122H243.226C245.873 1.26122 248.019 3.40696 248.019 6.05386V124.312H57.4213V6.05387Z" stroke="#325167" stroke-width="2.52244"/>
<rect x="39.3866" y="125.574" width="227.12" height="10.4267" rx="1.51347" fill="#102D42"/>
<circle cx="154.987" cy="7.253" r="2.26667" fill="white"/>
<rect x="20.9646" y="35.4824" width="158.956" height="71.2842" rx="9.57407" fill="#F7F7F7"/>
<path d="M129.53 103.898H151.243L140.181 118.647L129.53 103.898Z" fill="#363C3C"/>
<rect x="20.9646" y="35.4824" width="158.956" height="71.2842" rx="9.57407" fill="#102D42"/>
<g filter="url(#filter0_d_3_8464)">
<rect x="14" y="28.1074" width="158.956" height="71.2842" rx="9.57407" fill="#F4FCFF"/>
</g>
<path d="M122.565 96.5234H144.278L133.216 111.272L122.565 96.5234Z" fill="#F7F7F7"/>
<rect x="36.3555" y="42.678" width="20.0217" height="26.1669" rx="10.0108" stroke="#102D42" stroke-width="4.55908"/>
<rect x="29.5691" y="58.4238" width="34.0034" height="26.2195" rx="3.19136" fill="#F2BE38"/>
<circle cx="46.7574" cy="70.2864" r="2.03058" fill="#102D42"/>
<rect x="45.7417" y="71.3008" width="2.03058" height="4.73803" fill="#102D42"/>
<rect x="82.4165" y="49.8203" width="71.6939" height="28.2679" fill="#E6F9FF"/>
<rect x="82.4165" y="49.8203" width="71.6939" height="25.4001" fill="#77C2D7"/>
<path d="M91.5107 68.4126L94.2048 65.1514L96.8705 68.4126L99.0825 66.4843L96.5019 63.5349L100.217 61.8901L99.0542 59.2528L95.5944 60.9259L95.7078 56.899H92.6734L92.8152 60.9259L89.3555 59.2528L88.1644 61.9185L91.9077 63.5349L89.2987 66.4843L91.5107 68.4126ZM108.443 68.4126L111.137 65.1514L113.803 68.4126L116.015 66.4843L113.434 63.5349L117.149 61.8901L115.986 59.2528L112.527 60.9259L112.64 56.899H109.606L109.747 60.9259L106.288 59.2528L105.097 61.9185L108.84 63.5349L106.231 66.4843L108.443 68.4126ZM125.375 68.4126L128.069 65.1514L130.735 68.4126L132.947 66.4843L130.366 63.5349L134.081 61.8901L132.919 59.2528L129.459 60.9259L129.572 56.899H126.538L126.68 60.9259L123.22 59.2528L122.029 61.9185L125.772 63.5349L123.163 66.4843L125.375 68.4126ZM142.307 68.4126L145.001 65.1514L147.667 68.4126L149.879 66.4843L147.298 63.5349L151.013 61.8901L149.851 59.2528L146.391 60.9259L146.504 56.899H143.47L143.612 60.9259L140.152 59.2528L138.961 61.9185L142.704 63.5349L140.095 66.4843L142.307 68.4126Z" fill="white"/>
<defs>
<filter id="filter0_d_3_8464" x="0.322755" y="16.2538" width="186.31" height="98.6377" filterUnits="userSpaceOnUse" color-interpolation-filters="sRGB">
<feFlood flood-opacity="0" result="BackgroundImageFix"/>
<feColorMatrix in="SourceAlpha" type="matrix" values="0 0 0 0 0 0 0 0 0 0 0 0 0 0 0 0 0 0 127 0" result="hardAlpha"/>
<feOffset dy="1.82363"/>
<feGaussianBlur stdDeviation="6.83862"/>
<feColorMatrix type="matrix" values="0 0 0 0 0 0 0 0 0 0 0 0 0 0 0 0 0 0 0.12 0"/>
<feBlend mode="normal" in2="BackgroundImageFix" result="effect1_dropShadow_3_8464"/>
<feBlend mode="normal" in="SourceGraphic" in2="effect1_dropShadow_3_8464" result="shape"/>
</filter>
</defs>
</svg>
