<svg width="48" height="48" viewBox="0 0 48 48" fill="none" xmlns="http://www.w3.org/2000/svg">
<circle cx="24" cy="24" r="24" fill="#FFF1CC"/>
<path d="M37.8605 29.0911H37.5544V27.1822C37.5544 25.428 36.1829 24 34.4982 24C32.8135 24 31.4421 25.428 31.4421 27.1822V29.0911H31.1359C29.9587 29.0911 29 30.0893 29 31.3188V35.7723C29 36.9999 29.9587 38 31.1395 38H37.8623C39.0413 38 40 36.9999 40 35.7723V31.3188C40 30.0893 39.0413 29.0911 37.8605 29.0911ZM33.2772 27.1822C33.2772 26.4798 33.8255 25.9089 34.5 25.9089C35.1745 25.9089 35.7228 26.4798 35.7228 27.1822V29.0911H33.279V27.1822H33.2772Z" fill="#FFC229"/>
<path d="M27.3125 31.4474C27.3125 29.8163 28.3112 28.4149 29.7286 27.8224V27.5197C29.7286 26.7856 29.906 26.0953 30.1998 25.4718C29.2865 24.8589 28.1895 24.4983 27.0098 24.4983H16.7384C13.5754 24.4983 11 27.0737 11 30.2385V34.467C11 34.9671 11.4062 35.3733 11.9062 35.3733H27.3125V31.4474Z" fill="#FFD562"/>
<path d="M27.9161 16.0411C27.9161 19.3776 25.2115 22.0822 21.8751 22.0822C18.5386 22.0822 15.834 19.3776 15.834 16.0411C15.834 12.7046 18.5386 10 21.8751 10C25.2115 10 27.9161 12.7046 27.9161 16.0411Z" fill="#FFD562"/>
</svg>
