<svg width="80" height="80" viewBox="0 0 80 80" fill="none" xmlns="http://www.w3.org/2000/svg">
<g opacity="0.8">
<path d="M70 11.5C69.337 11.5 68.7011 11.2366 68.2322 10.7678C67.7634 10.2989 67.5 9.66304 67.5 9L65 9C65 9.66304 64.7366 10.2989 64.2678 10.7678C63.7989 11.2366 63.163 11.5 62.5 11.5C61.837 11.5 61.2011 11.2366 60.7322 10.7678C60.2634 10.2989 60 9.66304 60 9L57.5 9C57.5 9.66304 57.2366 10.2989 56.7678 10.7678C56.2989 11.2366 55.663 11.5 55 11.5C54.337 11.5 53.7011 11.2366 53.2322 10.7678C52.7634 10.2989 52.5 9.66304 52.5 9L50 9C50 9.66304 49.7366 10.2989 49.2678 10.7678C48.7989 11.2366 48.163 11.5 47.5 11.5C46.837 11.5 46.2011 11.2366 45.7322 10.7678C45.2634 10.2989 45 9.66304 45 9L42.5 9C42.5 9.66304 42.2366 10.2989 41.7678 10.7678C41.2989 11.2366 40.663 11.5 40 11.5C39.337 11.5 38.7011 11.2366 38.2322 10.7678C37.7634 10.2989 37.5 9.66304 37.5 9L35 9C35 9.66304 34.7366 10.2989 34.2678 10.7678C33.7989 11.2366 33.163 11.5 32.5 11.5C31.837 11.5 31.2011 11.2366 30.7322 10.7678C30.2634 10.2989 30 9.66304 30 9L27.5 9C27.5 9.66304 27.2366 10.2989 26.7678 10.7678C26.2989 11.2366 25.663 11.5 25 11.5C24.337 11.5 23.7011 11.2366 23.2322 10.7678C22.7634 10.2989 22.5 9.66304 22.5 9L20 9C20 9.66304 19.7366 10.2989 19.2678 10.7678C18.7989 11.2366 18.163 11.5 17.5 11.5C16.837 11.5 16.2011 11.2366 15.7322 10.7678C15.2634 10.2989 15 9.66304 15 9L12.5 9C12.5 9.66304 12.2366 10.2989 11.7678 10.7678C11.2989 11.2366 10.663 11.5 10 11.5C9.33696 11.5 8.70107 11.2366 8.23223 10.7678C7.76339 10.2989 7.5 9.66304 7.5 9L-2.84124e-06 9L-2.5134e-06 16.5C0.663039 16.5 1.29892 16.7634 1.76776 17.2322C2.23661 17.7011 2.5 18.337 2.5 19C2.5 19.663 2.23661 20.2989 1.76776 20.7678C1.29892 21.2366 0.663039 21.5 -2.29485e-06 21.5L-2.18557e-06 24C0.663039 24 1.29892 24.2634 1.76776 24.7322C2.23661 25.2011 2.5 25.837 2.5 26.5C2.5 27.163 2.23661 27.7989 1.76776 28.2678C1.29892 28.7366 0.663039 29 -1.96701e-06 29L-1.85773e-06 31.5C0.663039 31.5 1.29892 31.7634 1.76777 32.2322C2.23661 32.7011 2.5 33.337 2.5 34C2.5 34.663 2.23661 35.2989 1.76777 35.7678C1.29892 36.2366 0.66304 36.5 -1.63918e-06 36.5L-1.5299e-06 39C0.66304 39 1.29892 39.2634 1.76777 39.7322C2.23661 40.2011 2.5 40.837 2.5 41.5C2.5 42.163 2.23661 42.7989 1.76777 43.2678C1.29892 43.7366 0.66304 44 -1.31134e-06 44L-1.20206e-06 46.5C0.66304 46.5 1.29892 46.7634 1.76777 47.2322C2.23661 47.7011 2.5 48.337 2.5 49C2.5 49.663 2.23661 50.2989 1.76777 50.7678C1.29893 51.2366 0.66304 51.5 -9.83506e-07 51.5L-8.74228e-07 54C0.66304 54 1.29893 54.2634 1.76777 54.7322C2.23661 55.2011 2.5 55.837 2.5 56.5C2.5 57.163 2.23661 57.7989 1.76777 58.2678C1.29893 58.7366 0.663041 59 -6.55671e-07 59L-5.46392e-07 61.5C0.663041 61.5 1.29893 61.7634 1.76777 62.2322C2.23661 62.7011 2.5 63.337 2.5 64C2.5 64.663 2.23661 65.2989 1.76777 65.7678C1.29893 66.2366 0.663041 66.5 -3.27835e-07 66.5L0 74L7.5 74C7.5 73.337 7.76339 72.7011 8.23223 72.2322C8.70107 71.7634 9.33696 71.5 10 71.5C10.663 71.5 11.2989 71.7634 11.7678 72.2322C12.2366 72.7011 12.5 73.337 12.5 74L15 74C15 73.337 15.2634 72.7011 15.7322 72.2322C16.2011 71.7634 16.837 71.5 17.5 71.5C18.163 71.5 18.7989 71.7634 19.2678 72.2322C19.7366 72.7011 20 73.337 20 74L22.5 74C22.5 73.337 22.7634 72.7011 23.2322 72.2322C23.7011 71.7634 24.337 71.5 25 71.5C25.663 71.5 26.2989 71.7634 26.7678 72.2322C27.2366 72.7011 27.5 73.337 27.5 74L30 74C30 73.337 30.2634 72.7011 30.7322 72.2322C31.2011 71.7634 31.837 71.5 32.5 71.5C33.163 71.5 33.7989 71.7634 34.2678 72.2322C34.7366 72.7011 35 73.337 35 74L37.5 74C37.5 73.337 37.7634 72.7011 38.2322 72.2322C38.7011 71.7634 39.337 71.5 40 71.5C40.663 71.5 41.2989 71.7634 41.7678 72.2322C42.2366 72.7011 42.5 73.337 42.5 74L45 74C45 73.337 45.2634 72.7011 45.7322 72.2322C46.2011 71.7634 46.837 71.5 47.5 71.5C48.163 71.5 48.7989 71.7634 49.2678 72.2322C49.7366 72.7011 50 73.337 50 74L52.5 74C52.5 73.337 52.7634 72.7011 53.2322 72.2322C53.7011 71.7634 54.337 71.5 55 71.5C55.663 71.5 56.2989 71.7634 56.7678 72.2322C57.2366 72.7011 57.5 73.337 57.5 74L60 74C60 73.337 60.2634 72.7011 60.7322 72.2322C61.2011 71.7634 61.837 71.5 62.5 71.5C63.163 71.5 63.7989 71.7634 64.2678 72.2322C64.7366 72.7011 65 73.337 65 74L67.5 74C67.5 73.337 67.7634 72.7011 68.2322 72.2322C68.7011 71.7634 69.337 71.5 70 71.5C70.663 71.5 71.2989 71.7634 71.7678 72.2322C72.2366 72.7011 72.5 73.337 72.5 74L80 74L80 66.5C79.337 66.5 78.7011 66.2366 78.2322 65.7678C77.7634 65.2989 77.5 64.663 77.5 64C77.5 63.337 77.7634 62.7011 78.2322 62.2322C78.7011 61.7634 79.337 61.5 80 61.5L80 59C79.337 59 78.7011 58.7366 78.2322 58.2678C77.7634 57.7989 77.5 57.163 77.5 56.5C77.5 55.837 77.7634 55.2011 78.2322 54.7322C78.7011 54.2634 79.337 54 80 54L80 51.5C79.337 51.5 78.7011 51.2366 78.2322 50.7678C77.7634 50.2989 77.5 49.663 77.5 49C77.5 48.337 77.7634 47.7011 78.2322 47.2322C78.7011 46.7634 79.337 46.5 80 46.5L80 44C79.337 44 78.7011 43.7366 78.2322 43.2678C77.7634 42.7989 77.5 42.163 77.5 41.5C77.5 40.837 77.7634 40.2011 78.2322 39.7322C78.7011 39.2634 79.337 39 80 39L80 36.5C79.337 36.5 78.7011 36.2366 78.2322 35.7678C77.7634 35.2989 77.5 34.663 77.5 34C77.5 33.337 77.7634 32.7011 78.2322 32.2322C78.7011 31.7634 79.337 31.5 80 31.5L80 29C79.337 29 78.7011 28.7366 78.2322 28.2678C77.7634 27.7989 77.5 27.163 77.5 26.5C77.5 25.837 77.7634 25.2011 78.2322 24.7322C78.7011 24.2634 79.337 24 80 24L80 21.5C79.337 21.5 78.7011 21.2366 78.2322 20.7678C77.7634 20.2989 77.5 19.663 77.5 19C77.5 18.337 77.7634 17.7011 78.2322 17.2322C78.7011 16.7634 79.337 16.5 80 16.5L80 9L72.5 9C72.5 9.66304 72.2366 10.2989 71.7678 10.7678C71.2989 11.2366 70.663 11.5 70 11.5Z" fill="white"/>
<path opacity="0.2" d="M6 16H73V67H6V16Z" fill="#4690A4"/>
<path opacity="0.9" d="M14 54H36.5V56.5H14V54Z" fill="#F4FCFF"/>
<path opacity="0.5" d="M56.75 39.5C61.5825 39.5 65.5 35.5825 65.5 30.75C65.5 25.9175 61.5825 22 56.75 22C51.9175 22 48 25.9175 48 30.75C48 35.5825 51.9175 39.5 56.75 39.5Z" fill="#FAB1A5"/>
<path opacity="0.9" d="M14 49H36.5V51.5H14V49Z" fill="#F4FCFF"/>
<path d="M52 31.05C49.7375 31.05 49.4125 29.5 48.25 29.5C48.0662 29.4993 47.8841 29.5354 47.7145 29.6062C47.5449 29.6771 47.3912 29.7812 47.2625 29.9125C46.5155 30.6175 45.5272 31.0102 44.5 31.0102C43.4728 31.0102 42.4845 30.6175 41.7375 29.9125C41.6084 29.7817 41.4547 29.6779 41.2852 29.607C41.1156 29.5362 40.9337 29.4997 40.75 29.4997C40.5663 29.4997 40.3844 29.5362 40.2148 29.607C40.0453 29.6779 39.8916 29.7817 39.7625 29.9125C39.0155 30.6175 38.0272 31.0102 37 31.0102C35.9728 31.0102 34.9845 30.6175 34.2375 29.9125C34.1088 29.7812 33.9551 29.6771 33.7855 29.6062C33.6159 29.5354 33.4338 29.4993 33.25 29.5C32.9185 29.5 32.6005 29.3683 32.3661 29.1339C32.1317 28.8995 32 28.5815 32 28.25C32 27.9185 32.1317 27.6005 32.3661 27.3661C32.6005 27.1317 32.9185 27 33.25 27C35.5125 27 35.8375 28.55 37 28.55C37.1838 28.5507 37.3659 28.5146 37.5355 28.4438C37.7051 28.3729 37.8588 28.2688 37.9875 28.1375C38.7345 27.4325 39.7228 27.0398 40.75 27.0398C41.7772 27.0398 42.7655 27.4325 43.5125 28.1375C43.6416 28.2683 43.7953 28.3721 43.9648 28.443C44.1344 28.5138 44.3163 28.5503 44.5 28.5503C44.6837 28.5503 44.8656 28.5138 45.0352 28.443C45.2047 28.3721 45.3584 28.2683 45.4875 28.1375C46.2345 27.4325 47.2228 27.0398 48.25 27.0398C49.2772 27.0398 50.2655 27.4325 51.0125 28.1375C51.1412 28.2688 51.2949 28.3729 51.4645 28.4438C51.6341 28.5146 51.8162 28.5507 52 28.55C52.3315 28.55 52.6495 28.6817 52.8839 28.9161C53.1183 29.1505 53.25 29.4685 53.25 29.8C53.25 30.1315 53.1183 30.4495 52.8839 30.6839C52.6495 30.9183 52.3315 31.05 52 31.05Z" fill="#F4FCFF"/>
<path d="M52 37.3C49.7375 37.3 49.4125 35.75 48.25 35.75C48.0662 35.7493 47.8841 35.7854 47.7145 35.8562C47.5449 35.9271 47.3912 36.0312 47.2625 36.1625C46.5155 36.8675 45.5272 37.2602 44.5 37.2602C43.4728 37.2602 42.4845 36.8675 41.7375 36.1625C41.6084 36.0317 41.4547 35.9279 41.2852 35.857C41.1156 35.7862 40.9337 35.7497 40.75 35.7497C40.5663 35.7497 40.3844 35.7862 40.2148 35.857C40.0453 35.9279 39.8916 36.0317 39.7625 36.1625C39.0155 36.8675 38.0272 37.2602 37 37.2602C35.9728 37.2602 34.9845 36.8675 34.2375 36.1625C34.1088 36.0312 33.9551 35.9271 33.7855 35.8562C33.6159 35.7854 33.4338 35.7493 33.25 35.75C32.9185 35.75 32.6005 35.6183 32.3661 35.3839C32.1317 35.1495 32 34.8315 32 34.5C32 34.1685 32.1317 33.8505 32.3661 33.6161C32.6005 33.3817 32.9185 33.25 33.25 33.25C35.5125 33.25 35.8375 34.8 37 34.8C37.1838 34.8007 37.3659 34.7646 37.5355 34.6938C37.7051 34.6229 37.8588 34.5188 37.9875 34.3875C38.7345 33.6825 39.7228 33.2898 40.75 33.2898C41.7772 33.2898 42.7655 33.6825 43.5125 34.3875C43.6416 34.5183 43.7953 34.6221 43.9648 34.693C44.1344 34.7638 44.3163 34.8003 44.5 34.8003C44.6837 34.8003 44.8656 34.7638 45.0352 34.693C45.2047 34.6221 45.3584 34.5183 45.4875 34.3875C46.2345 33.6825 47.2228 33.2898 48.25 33.2898C49.2772 33.2898 50.2655 33.6825 51.0125 34.3875C51.1412 34.5188 51.2949 34.6229 51.4645 34.6938C51.6341 34.7646 51.8162 34.8007 52 34.8C52.3315 34.8 52.6495 34.9317 52.8839 35.1661C53.1183 35.4005 53.25 35.7185 53.25 36.05C53.25 36.3815 53.1183 36.6995 52.8839 36.9339C52.6495 37.1683 52.3315 37.3 52 37.3Z" fill="#F4FCFF"/>
</g>
</svg>
