<svg xmlns="http://www.w3.org/2000/svg" xmlns:xlink="http://www.w3.org/1999/xlink" width="40" height="40" viewBox="0 0 40 40">
    <defs>
        <linearGradient id="7dl5qzqvia" x1="50%" x2="50%" y1="0%" y2="100%">
            <stop offset="0%" stop-color="#23D9FD"/>
            <stop offset="100%" stop-color="#1F63F0"/>
        </linearGradient>
        <path id="xkcuh5aejb" d="M0 17L2.143 33.971 4.555 17 0 17 2.115 0 4.555 17z"/>
    </defs>
    <g fill="none" fill-rule="evenodd">
        <g>
            <g>
                <g>
                    <g>
                        <path fill="#FFF" fill-rule="nonzero" stroke="#E7EBF0" stroke-width=".5" d="M27.278.25c3.188.008 4.976.068 6.885.672 2.286.835 4.086 2.637 4.919 4.925.6 1.905.66 3.693.667 6.875h0l.001.801v13.755c-.008 3.188-.068 4.976-.672 6.885-.835 2.286-2.637 4.086-4.924 4.918-1.906.601-3.693.661-6.876.668h0l-.801.001H12.722c-3.188-.008-4.976-.068-6.884-.672-2.287-.835-4.087-2.637-4.92-4.925-.6-1.905-.66-3.693-.667-6.874h0V12.722c.007-3.188.067-4.976.67-6.885C1.758 3.551 3.56 1.751 5.848.918 7.752.318 9.54.258 12.72.251h0z" transform="translate(-45.000000, -538.000000) translate(25.000000, 26.000000) translate(0.000000, 383.000000) translate(20.000000, 129.000000)"/>
                        <g transform="translate(-45.000000, -538.000000) translate(25.000000, 26.000000) translate(0.000000, 383.000000) translate(20.000000, 129.000000) translate(3.000000, 3.000000)">
                            <ellipse cx="17.081" cy="17" fill="url(#7dl5qzqvia)" rx="16.919" ry="17"/>
                            <path fill="#FFF" d="M16.756 1.308h.325V4.25h-.325V1.308zm2.714.21l.32.057-.508 2.897-.32-.056.508-2.898zm2.637.68l.306.112-1.001 2.765-.306-.112 1.001-2.765zm2.48 1.13l.281.164-1.464 2.548-.282-.163 1.464-2.548zm2.246 1.546l.249.21L25.2 7.338l-.25-.21 1.883-2.254zm1.945 1.914l.209.25-2.243 1.892-.21-.25 2.244-1.892zm1.584 2.224l.163.284-2.536 1.47-.163-.282 2.536-1.472zm1.176 2.467l.112.308-2.752 1.006-.111-.307 2.751-1.007zm.732 2.635l.057.322-2.884.511-.056-.322 2.883-.51zm.266 2.723v.326h-2.928v-.326h2.928zm-.21 2.727l-.056.322-2.883-.511.056-.322 2.884.51zm-.676 2.65l-.112.307-2.751-1.007.111-.307 2.752 1.006zm-1.125 2.49l-.163.284-2.536-1.472.163-.283 2.536 1.471zm-1.538 2.257l-.21.25-2.243-1.89.21-.25 2.243 1.89zm-1.905 1.955l-.25.21-1.882-2.254.25-.21 1.882 2.254zm-2.214 1.592l-.282.163-1.464-2.548.282-.163 1.464 2.548zm-2.455 1.182l-.306.112-1.001-2.765.306-.112 1.001 2.765zm-2.622.735l-.32.057-.509-2.898.32-.056.509 2.897zm-2.71.267h-.325V29.75h.325v2.942zm-2.714-.21l-.32-.057.508-2.897.32.056-.508 2.898zm-2.637-.68l-.305-.112 1.001-2.765.306.112-1.002 2.765zm-2.479-1.13l-.282-.164 1.464-2.548.282.163-1.464 2.548zm-2.246-1.546l-.25-.21 1.883-2.254.25.21-1.883 2.254zM5.06 27.212l-.21-.25 2.244-1.892.21.25-2.244 1.892zm-1.585-2.224l-.162-.284 2.536-1.47.162.282-2.536 1.472zM2.3 22.52l-.111-.308 2.751-1.006.112.307-2.752 1.007zm-.732-2.635l-.056-.322 2.883-.511.057.322-2.884.51zm-.265-2.723v-.326H4.23v.326H1.302zm.209-2.727l.056-.322 2.884.511-.057.322-2.883-.51zm.677-2.65l.111-.307 2.752 1.007-.112.307-2.751-1.006zm1.125-2.49l.162-.284 2.536 1.472-.162.283-2.536-1.471zM4.85 7.039l.209-.25 2.243 1.89-.209.25-2.243-1.89zm1.905-1.955l.249-.21 1.882 2.254-.25.21-1.881-2.254zm2.213-1.592l.282-.163 1.464 2.548-.282.163L8.97 3.492zm2.456-1.182l.305-.112 1.002 2.765-.306.112-1.001-2.765zm2.622-.735l.32-.057.509 2.898-.32.056-.51-2.897z"/>
                            <path fill="#FFF" d="M17.081 31.057v1.635h-.325v-1.635h.325zm2.427-.241l.283 1.61-.32.056-.283-1.61.32-.056zm-5.179 0l.32.056-.282 1.61-.32-.057.282-1.61zm7.528-.662l.556 1.536-.306.112-.556-1.536.306-.112zm-9.876 0l.306.112-.557 1.536-.305-.112.556-1.536zm12.074-1.062l.813 1.416-.282.163-.813-1.415.282-.164zm-14.272 0l.282.164-.814 1.415-.282-.163.814-1.416zm16.253-1.428l1.046 1.252-.25.21-1.045-1.252.25-.21zm-18.235 0l.25.21-1.046 1.252-.25-.21 1.046-1.252zm19.94-1.753l1.246 1.05-.21.25-1.246-1.05.21-.25zm-21.644 0l.21.25-1.247 1.05-.21-.25 1.247-1.05zm23.02-2.024l1.408.817-.163.284-1.409-.818.163-.283zm-24.396 0l.163.283-1.409.818-.162-.284 1.408-.817zm25.4-2.233l1.529.56-.112.307-1.528-.56.111-.307zm-26.404 0l.11.308-1.528.559-.111-.308 1.529-.559zm27.008-2.374l1.602.284-.057.322-1.602-.284.057-.322zm-27.612 0l.056.322-1.602.284-.056-.322 1.602-.284zm29.423-2.443v.326h-1.627v-.326h1.627zm-29.608 0v.326H1.302v-.326h1.626zm29.342-2.723l.057.322-1.602.284-.057-.322 1.602-.284zm-30.703 0l1.602.284-.056.322-1.602-.284.056-.322zm29.971-2.635l.112.308-1.529.559-.111-.308 1.528-.559zm-29.239 0l1.529.56-.111.307-1.53-.56.112-.307zm28.063-2.467l.163.284-1.409.817-.163-.283 1.41-.818zm-26.887 0l1.41.818-.164.283-1.408-.817.162-.284zm25.303-2.224l.209.25L27.74 8.09l-.21-.25 1.247-1.05zm-23.718 0l1.246 1.05-.209.251-1.246-1.05.209-.25zm21.773-1.914l.249.21-1.046 1.252-.249-.21 1.046-1.252zm-19.828 0L8.05 6.126l-.25.21-1.045-1.252.249-.21zM24.586 3.33l.282.163-.813 1.416-.282-.164.813-1.415zm-15.335 0l.814 1.415-.282.164-.814-1.416.282-.163zm12.856-1.13l.306.111-.556 1.536-.306-.112.556-1.536zm-10.377 0l.557 1.535-.306.112-.556-1.536.305-.112zm7.74-.681l.32.057-.282 1.61-.32-.057.282-1.61zm-5.103 0l.283 1.61-.32.056-.283-1.61.32-.056zm2.714-.21v1.635h-.325V1.308h.325z" transform="translate(16.918795, 17.000000) rotate(5.000000) translate(-16.918795, -17.000000)"/>
                            <g transform="translate(17.091486, 16.989939) rotate(45.000000) translate(-17.091486, -16.989939) translate(14.813992, 0.004436)">
                                <mask id="buvxwkes5c" fill="#fff">
                                    <use xlink:href="#xkcuh5aejb"/>
                                </mask>
                                <use fill="#FFF" xlink:href="#xkcuh5aejb"/>
                                <path fill="#FF1414" d="M-0.325 0H4.881V17H-0.325z" mask="url(#buvxwkes5c)"/>
                            </g>
                        </g>
                    </g>
                </g>
            </g>
        </g>
    </g>
</svg>
