<svg width="25" height="24" viewBox="0 0 25 24" fill="none" xmlns="http://www.w3.org/2000/svg">
<path d="M13.944 2.00314C16.0735 3.76426 18.6794 4.90164 21.4553 5.28158C21.6075 5.30235 21.7466 5.37585 21.8469 5.48839C21.9471 5.60092 22.0015 5.74481 22 5.89322V10.872C22.0002 12.8212 21.4927 14.7391 20.5243 16.4493C19.5559 18.1594 18.1577 19.6069 16.4583 20.6584L12.842 22.9032C12.74 22.9664 12.6212 23 12.5 23C12.3788 23 12.2601 22.9664 12.158 22.9032L8.54168 20.6584C6.84229 19.6069 5.44405 18.1594 4.47566 16.4493C3.50727 14.7391 2.99982 12.8212 3.00003 10.872V5.89322C2.99852 5.74481 3.05294 5.60092 3.15315 5.48839C3.25336 5.37585 3.39252 5.30235 3.5447 5.28158C6.32058 4.90164 8.92646 3.76426 11.056 2.00314L12.0883 1.14684C12.2031 1.05207 12.349 1 12.5 1C12.651 1 12.7969 1.05207 12.9117 1.14684L13.944 2.00314ZM10.3286 9.50464H10.1983C9.80137 9.50612 9.4211 9.66948 9.14043 9.95912C8.85976 10.2487 8.70144 10.6412 8.70001 11.0508V14.1206C8.70144 14.5302 8.85976 14.9226 9.14043 15.2122C9.4211 15.5018 9.80137 15.6652 10.1983 15.6667H14.8017C15.1987 15.6652 15.5789 15.5018 15.8596 15.2122C16.1403 14.9226 16.2986 14.5302 16.3 14.1206V11.0508C16.2986 10.6412 16.1403 10.2487 15.8596 9.95912C15.5789 9.66948 15.1987 9.50612 14.8017 9.50464H14.6714V7.82408C14.6714 7.2298 14.4427 6.65986 14.0354 6.23964C13.6282 5.81942 13.0759 5.58334 12.5 5.58334C11.9241 5.58334 11.3718 5.81942 10.9646 6.23964C10.5574 6.65986 10.3286 7.2298 10.3286 7.82408V9.50464ZM15.2143 14.1206C15.2143 14.1765 15.2036 14.2318 15.1829 14.2835C15.1622 14.3351 15.1318 14.3821 15.0935 14.4216C15.0552 14.4611 15.0097 14.4925 14.9596 14.5139C14.9096 14.5353 14.8559 14.5463 14.8017 14.5463H10.1983C10.1441 14.5463 10.0905 14.5353 10.0404 14.5139C9.99036 14.4925 9.94488 14.4611 9.90657 14.4216C9.86826 14.3821 9.83787 14.3351 9.81713 14.2835C9.7964 14.2318 9.78573 14.1765 9.78573 14.1206V11.0508C9.78573 10.9378 9.8292 10.8295 9.90657 10.7497C9.98394 10.6699 10.0889 10.625 10.1983 10.625H14.8017C14.8559 10.625 14.9096 10.636 14.9596 10.6574C15.0097 10.6788 15.0552 10.7102 15.0935 10.7497C15.1318 10.7892 15.1622 10.8362 15.1829 10.8878C15.2036 10.9395 15.2143 10.9948 15.2143 11.0508V14.1206ZM13.5857 9.50464H11.4143V7.82408C11.4143 7.52694 11.5287 7.24197 11.7323 7.03186C11.9359 6.82175 12.2121 6.70371 12.5 6.70371C12.788 6.70371 13.0641 6.82175 13.2677 7.03186C13.4713 7.24197 13.5857 7.52694 13.5857 7.82408V9.50464Z" fill="#74D6F1"/>
</svg>
