<svg width="25" height="24" viewBox="0 0 25 24" fill="none" xmlns="http://www.w3.org/2000/svg">
<path d="M21.4553 5.28158C18.6794 4.90164 16.0735 3.76426 13.944 2.00314L12.9117 1.14684C12.7969 1.05207 12.651 1 12.5 1C12.349 1 12.2031 1.05207 12.0883 1.14684L11.056 2.00314C8.92646 3.76426 6.32058 4.90164 3.5447 5.28158C3.39252 5.30235 3.25336 5.37585 3.15315 5.48839C3.05294 5.60092 2.99852 5.74481 3.00003 5.89322V10.872C2.99982 12.8212 3.50727 14.7391 4.47566 16.4493C5.44405 18.1594 6.84229 19.6069 8.54168 20.6584L12.158 22.9032C12.2601 22.9664 12.3788 23 12.5 23C12.6212 23 12.74 22.9664 12.842 22.9032L16.4583 20.6584C18.1577 19.6069 19.5559 18.1594 20.5243 16.4493C21.4927 14.7391 22.0002 12.8212 22 10.872V5.89322C22.0015 5.74481 21.9471 5.60092 21.8469 5.48839C21.7466 5.37585 21.6075 5.30235 21.4553 5.28158ZM20.7333 10.872C20.7371 12.6196 20.2847 14.34 19.4179 15.8741C18.5512 17.4081 17.298 18.7065 15.7743 19.6492L12.5 21.6799L9.22568 19.6492C7.70195 18.7065 6.44882 17.4081 5.58208 15.8741C4.71534 14.34 4.26294 12.6196 4.26669 10.872V6.41313C7.07563 5.92705 9.69928 4.72559 11.8667 2.93285L12.5 2.41906L13.1333 2.93285C15.3007 4.72559 17.9244 5.92705 20.7333 6.41313V10.872Z" fill="#BCCFDC"/>
<path d="M10.3286 7.82407V9.50463H10.1983C9.80136 9.50611 9.42109 9.66947 9.14042 9.95911C8.85975 10.2487 8.70143 10.6411 8.7 11.0507V14.1206C8.70143 14.5302 8.85975 14.9226 9.14042 15.2122C9.42109 15.5018 9.80136 15.6652 10.1983 15.6667H14.8017C15.1986 15.6652 15.5789 15.5018 15.8596 15.2122C16.1403 14.9226 16.2986 14.5302 16.3 14.1206V11.0507C16.2986 10.6411 16.1403 10.2487 15.8596 9.95911C15.5789 9.66947 15.1986 9.50611 14.8017 9.50463H14.6714V7.82407C14.6714 7.22979 14.4427 6.65985 14.0354 6.23963C13.6282 5.81941 13.0759 5.58333 12.5 5.58333C11.9241 5.58333 11.3718 5.81941 10.9646 6.23963C10.5573 6.65985 10.3286 7.22979 10.3286 7.82407ZM15.2143 11.0507V14.1206C15.2143 14.1765 15.2036 14.2318 15.1829 14.2835C15.1621 14.3351 15.1318 14.3821 15.0934 14.4216C15.0551 14.4611 15.0097 14.4925 14.9596 14.5139C14.9095 14.5353 14.8559 14.5463 14.8017 14.5463H10.1983C10.1441 14.5463 10.0905 14.5353 10.0404 14.5139C9.99035 14.4925 9.94487 14.4611 9.90655 14.4216C9.86824 14.3821 9.83785 14.3351 9.81712 14.2835C9.79639 14.2318 9.78572 14.1765 9.78572 14.1206V11.0507C9.78572 10.9378 9.82918 10.8295 9.90655 10.7497C9.98393 10.6699 10.0889 10.625 10.1983 10.625H14.8017C14.8559 10.625 14.9095 10.636 14.9596 10.6574C15.0097 10.6788 15.0551 10.7102 15.0934 10.7497C15.1318 10.7892 15.1621 10.8362 15.1829 10.8878C15.2036 10.9395 15.2143 10.9948 15.2143 11.0507ZM13.5857 7.82407V9.50463H11.4143V7.82407C11.4143 7.52693 11.5287 7.24196 11.7323 7.03185C11.9359 6.82174 12.2121 6.7037 12.5 6.7037C12.788 6.7037 13.0641 6.82174 13.2677 7.03185C13.4713 7.24196 13.5857 7.52693 13.5857 7.82407Z" fill="#BCCFDC"/>
</svg>
