<svg width="24" height="24" viewBox="0 0 24 24" fill="none" xmlns="http://www.w3.org/2000/svg">
<path d="M13.444 2.00314C15.5735 3.76426 18.1794 4.90164 20.9553 5.28158C21.1075 5.30235 21.2466 5.37585 21.3469 5.48839C21.4471 5.60092 21.5015 5.74481 21.5 5.89322V10.872C21.5002 12.8212 20.9927 14.7391 20.0243 16.4493C19.0559 18.1594 17.6577 19.6069 15.9583 20.6584L12.342 22.9032C12.24 22.9664 12.1212 23 12 23C11.8788 23 11.7601 22.9664 11.658 22.9032L8.04168 20.6584C6.34229 19.6069 4.94405 18.1594 3.97566 16.4493C3.00727 14.7391 2.49982 12.8212 2.50003 10.872V5.89322C2.49852 5.74481 2.55294 5.60092 2.65315 5.48839C2.75336 5.37585 2.89252 5.30235 3.0447 5.28158C5.82058 4.90164 8.42646 3.76426 10.556 2.00314L11.5883 1.14684C11.7031 1.05207 11.849 1 12 1C12.151 1 12.2969 1.05207 12.4117 1.14684L13.444 2.00314ZM9.82858 9.50464H9.6983C9.30137 9.50612 8.9211 9.66948 8.64043 9.95912C8.35976 10.2487 8.20144 10.6412 8.20001 11.0508V14.1206C8.20144 14.5302 8.35976 14.9226 8.64043 15.2122C8.9211 15.5018 9.30137 15.6652 9.6983 15.6667H14.3017C14.6987 15.6652 15.0789 15.5018 15.3596 15.2122C15.6403 14.9226 15.7986 14.5302 15.8 14.1206V11.0508C15.7986 10.6412 15.6403 10.2487 15.3596 9.95912C15.0789 9.66948 14.6987 9.50612 14.3017 9.50464H14.1714V7.82408C14.1714 7.2298 13.9427 6.65986 13.5354 6.23964C13.1282 5.81942 12.5759 5.58334 12 5.58334C11.4241 5.58334 10.8718 5.81942 10.4646 6.23964C10.0574 6.65986 9.82858 7.2298 9.82858 7.82408V9.50464ZM14.7143 14.1206C14.7143 14.1765 14.7036 14.2318 14.6829 14.2835C14.6622 14.3351 14.6318 14.3821 14.5935 14.4216C14.5552 14.4611 14.5097 14.4925 14.4596 14.5139C14.4096 14.5353 14.3559 14.5463 14.3017 14.5463H9.6983C9.64412 14.5463 9.59047 14.5353 9.54041 14.5139C9.49036 14.4925 9.44488 14.4611 9.40657 14.4216C9.36826 14.3821 9.33787 14.3351 9.31713 14.2835C9.2964 14.2318 9.28573 14.1765 9.28573 14.1206V11.0508C9.28573 10.9378 9.3292 10.8295 9.40657 10.7497C9.48394 10.6699 9.58888 10.625 9.6983 10.625H14.3017C14.3559 10.625 14.4096 10.636 14.4596 10.6574C14.5097 10.6788 14.5552 10.7102 14.5935 10.7497C14.6318 10.7892 14.6622 10.8362 14.6829 10.8878C14.7036 10.9395 14.7143 10.9948 14.7143 11.0508V14.1206ZM13.0857 9.50464H10.9143V7.82408C10.9143 7.52694 11.0287 7.24197 11.2323 7.03186C11.4359 6.82175 11.7121 6.70371 12 6.70371C12.288 6.70371 12.5641 6.82175 12.7677 7.03186C12.9713 7.24197 13.0857 7.52694 13.0857 7.82408V9.50464Z" fill="#087191"/>
</svg>
