<svg width="24" height="24" viewBox="0 0 24 24" fill="none" xmlns="http://www.w3.org/2000/svg">
<path d="M9.77526 8.69939C9.77526 8.11214 10.0122 7.5526 10.4282 7.14264C10.8443 6.73268 11.4106 6.5 12 6.5C12.5894 6.5 13.1556 6.72714 13.5717 7.14264C13.9935 7.55814 14.2246 8.11768 14.2246 8.69939L14.2246 10.35H14.3575C14.762 10.3555 15.1491 10.5162 15.438 10.7987C15.727 11.0813 15.8887 11.4635 15.8887 11.868L15.8888 14.882C15.8888 15.2865 15.727 15.6743 15.4381 15.9568C15.155 16.2393 14.762 16.4 14.3575 16.4H9.64235C9.23786 16.4 8.85071 16.2393 8.56179 15.9568C8.27287 15.6687 8.11107 15.2865 8.11107 14.882L8.11099 11.868C8.11099 11.4691 8.27278 11.0813 8.5617 10.7987C8.84485 10.5107 9.23778 10.35 9.64227 10.35H9.77517L9.77526 8.69939ZM14.3575 11.602C14.3112 11.5854 14.2592 11.5743 14.2072 11.5743V11.5688H9.79251C9.6885 11.5688 9.59026 11.6131 9.51514 11.6851C9.44002 11.7572 9.39958 11.8569 9.39958 11.9621L9.39966 14.7879C9.39966 14.8377 9.40544 14.8876 9.42855 14.9374C9.45167 14.9873 9.48056 15.0316 9.51523 15.0649C9.5499 15.0981 9.59613 15.1258 9.64235 15.148C9.68858 15.1646 9.74059 15.1757 9.79259 15.1757H14.2073C14.2593 15.1757 14.3113 15.1701 14.3575 15.148C14.4038 15.1313 14.45 15.1036 14.4847 15.0649C14.5251 15.0261 14.554 14.9873 14.5714 14.9374C14.5887 14.8876 14.6002 14.8377 14.6002 14.7879L14.6002 11.9621C14.6002 11.9123 14.5886 11.8624 14.5713 11.8126C14.5482 11.7627 14.5193 11.7184 14.4846 11.6851C14.4499 11.6519 14.4037 11.6187 14.3575 11.602ZM13.1093 10.35L13.1094 8.69939H13.1036C13.1036 8.4113 12.9881 8.12876 12.78 7.92378C12.572 7.7188 12.2889 7.60246 11.9942 7.60246C11.6995 7.60246 11.4163 7.7188 11.2083 7.92378C11.0003 8.12876 10.8847 8.40576 10.8847 8.69939L10.8846 10.35H13.1093Z" fill="black"/>
<path d="M21.4561 5.28264C21.6019 5.30521 21.742 5.37856 21.843 5.49141L21.8486 5.48012C21.9495 5.59297 22 5.73968 22 5.88638V10.8687C22.0056 12.821 21.501 14.7394 20.5366 16.4491C19.5723 18.1588 18.1818 19.6089 16.4942 20.6584L12.3447 22.9041C12.2437 22.9661 12.126 23 12.0026 23C11.8793 23 11.7616 22.9661 11.6606 22.9041L7.51133 20.6584C5.81813 19.6089 4.43329 18.1588 3.46894 16.4491C2.5046 14.7394 2 12.821 2 10.8743V5.89202C2 5.74532 2.06167 5.60426 2.15699 5.49141C2.2523 5.37856 2.39247 5.30521 2.54384 5.28264C5.30232 4.90459 8.44803 3.76481 10.5673 2.00436L11.5934 1.1467C11.7055 1.05078 11.8513 1 12.0026 1C12.154 1 12.2998 1.05078 12.4119 1.1467L13.4379 2.00436C15.5517 3.76481 18.6976 4.90459 21.4561 5.28264ZM19.2303 15.7664C20.0657 14.2767 20.4974 12.6066 20.4974 10.9082H20.5086V6.57476C17.795 6.10644 14.7051 4.93845 12.6138 3.19492L12.0026 2.69838L11.3915 3.19492C9.29464 4.9328 6.21059 6.1008 3.49697 6.57476V10.9082C3.49137 12.6066 3.92869 14.2767 4.76408 15.7664C5.59947 17.256 6.8105 18.5199 8.27945 19.434L11.997 21.4088L15.7149 19.434C17.1838 18.5199 18.3949 17.256 19.2303 15.7664Z" fill="black"/>
</svg>
