<svg width="20" height="21" viewBox="0 0 20 21" fill="none" xmlns="http://www.w3.org/2000/svg">
<path fill-rule="evenodd" clip-rule="evenodd" d="M18.5 10.8281C18.5 15.5225 14.6944 19.3281 10 19.3281C5.30558 19.3281 1.5 15.5225 1.5 10.8281C1.5 6.1337 5.30558 2.32812 10 2.32812C14.6944 2.32812 18.5 6.1337 18.5 10.8281ZM20 10.8281C20 16.351 15.5228 20.8281 10 20.8281C4.47715 20.8281 0 16.351 0 10.8281C0 5.30528 4.47715 0.828125 10 0.828125C15.5228 0.828125 20 5.30528 20 10.8281ZM9.99999 16.6615C13.2217 16.6615 15.8333 14.0498 15.8333 10.8281C15.8333 7.60647 13.2217 4.9948 9.99999 4.9948C6.77833 4.9948 4.16666 7.60647 4.16666 10.8281C4.16666 14.0498 6.77833 16.6615 9.99999 16.6615Z" fill="#102D42"/>
</svg>
