<svg width="80" height="80" viewBox="0 0 80 80" fill="none" xmlns="http://www.w3.org/2000/svg">
<rect x="77" y="10" width="63" height="72" rx="4" transform="rotate(90 77 10)" fill="#DAE4EC"/>
<rect x="75" y="8" width="63" height="72" rx="4" transform="rotate(90 75 8)" fill="#F1F5F8"/>
<path d="M26 14L26 71L7 71C4.79086 71 3 69.2091 3 67L3 14L26 14Z" fill="#4690A4"/>
<path d="M71 8C73.2091 8 75 9.79086 75 12L75 14L3 14L3 12C3 9.79086 4.79086 8 7 8L71 8Z" fill="#77C2D7"/>
<rect x="22" y="17" width="12" height="15" rx="2" transform="rotate(90 22 17)" fill="#B2ECFC"/>
<path d="M13.8684 33H8.13318C7.83296 32.9991 7.54533 32.8934 7.33304 32.7061C7.12075 32.5188 7.00103 32.2649 7 32C7.00103 31.7351 7.12075 31.4812 7.33304 31.2939C7.54533 31.1066 7.83296 31.0009 8.13318 31H13.8684C14.1683 31.0013 14.4556 31.1071 14.6675 31.2944C14.8795 31.4817 14.999 31.7353 15 32C14.9992 32.2648 14.8797 32.5185 14.6677 32.7058C14.4557 32.8932 14.1684 32.9989 13.8684 33Z" fill="white"/>
<path d="M21.8684 37H8.13318C7.83296 36.9991 7.54533 36.8934 7.33304 36.7061C7.12075 36.5188 7.00103 36.2649 7 36C7.00103 35.7351 7.12075 35.4812 7.33304 35.2939C7.54533 35.1066 7.83296 35.0009 8.13318 35H21.8684C22.1683 35.0013 22.4556 35.1071 22.6675 35.2944C22.8795 35.4817 22.999 35.7353 23 36C22.9992 36.2648 22.8797 36.5185 22.6677 36.7058C22.4557 36.8932 22.1684 36.9989 21.8684 37Z" fill="white"/>
<path d="M21.8684 41H8.13318C7.83296 40.9991 7.54533 40.8934 7.33304 40.7061C7.12075 40.5188 7.00103 40.2649 7 40C7.00103 39.7351 7.12075 39.4812 7.33304 39.2939C7.54533 39.1066 7.83296 39.0009 8.13318 39H21.8684C22.1683 39.0013 22.4556 39.1071 22.6675 39.2944C22.8795 39.4817 22.999 39.7353 23 40C22.9992 40.2648 22.8797 40.5185 22.6677 40.7058C22.4557 40.8932 22.1684 40.9989 21.8684 41Z" fill="white"/>
<path d="M17.8684 45H8.13318C7.83296 44.9991 7.54533 44.8934 7.33304 44.7061C7.12075 44.5188 7.00103 44.2649 7 44C7.00103 43.7351 7.12075 43.4812 7.33304 43.2939C7.54533 43.1066 7.83296 43.0009 8.13318 43H17.8684C18.1683 43.0013 18.4556 43.1071 18.6675 43.2944C18.8795 43.4817 18.999 43.7353 19 44C18.9992 44.2648 18.8797 44.5185 18.6677 44.7058C18.4557 44.8932 18.1684 44.9989 17.8684 45Z" fill="white"/>
<path d="M21.8684 51H8.13318C7.83296 50.9991 7.54533 50.8934 7.33304 50.7061C7.12075 50.5188 7.00103 50.2649 7 50C7.00103 49.7351 7.12075 49.4812 7.33304 49.2939C7.54533 49.1066 7.83296 49.0009 8.13318 49H21.8684C22.1683 49.0013 22.4556 49.1071 22.6675 49.2944C22.8795 49.4817 22.999 49.7353 23 50C22.9992 50.2648 22.8797 50.5185 22.6677 50.7058C22.4557 50.8932 22.1684 50.9989 21.8684 51Z" fill="white"/>
<path d="M21.8684 55H8.13318C7.83296 54.9991 7.54533 54.8934 7.33304 54.7061C7.12075 54.5188 7.00103 54.2649 7 54C7.00103 53.7351 7.12075 53.4812 7.33304 53.2939C7.54533 53.1066 7.83296 53.0009 8.13318 53H21.8684C22.1683 53.0013 22.4556 53.1071 22.6675 53.2944C22.8795 53.4817 22.999 53.7353 23 54C22.9992 54.2648 22.8797 54.5185 22.6677 54.7058C22.4557 54.8932 22.1684 54.9989 21.8684 55Z" fill="white"/>
<rect x="71.9985" y="17" width="52" height="43" rx="2" transform="rotate(89.9965 71.9985 17)" fill="white"/>
<path d="M60.6335 22.557L33.2145 22.4036C32.9565 22.4025 32.7094 22.2991 32.5276 22.1164C32.3457 21.9336 32.2439 21.6863 32.2445 21.4287C32.2454 21.1712 32.3487 20.9246 32.5317 20.7432C32.7147 20.5618 32.9624 20.4604 33.2204 20.4612L60.6405 20.6138C60.8985 20.6149 61.1455 20.7182 61.3274 20.901C61.5093 21.0838 61.6111 21.3311 61.6105 21.5886C61.6102 21.7163 61.5846 21.8427 61.5353 21.9605C61.486 22.0783 61.4139 22.1852 61.3232 22.2751C61.2325 22.365 61.1248 22.4362 61.0065 22.4846C60.8881 22.5329 60.7614 22.5575 60.6335 22.557Z" fill="#D4F5FF"/>
<path d="M68.6062 30.0024L33.1879 29.8492C32.9299 29.848 32.6829 29.7447 32.5011 29.562C32.3192 29.3792 32.2175 29.1319 32.2182 28.8744C32.219 28.6168 32.3223 28.3702 32.5053 28.1888C32.6883 28.0073 32.9361 27.9059 33.1941 27.9068L68.6141 28.0594C68.8721 28.0605 69.1191 28.1638 69.301 28.3466C69.4828 28.5294 69.5845 28.7767 69.5839 29.0342C69.5835 29.1619 69.558 29.2884 69.5087 29.4062C69.4593 29.524 69.3872 29.631 69.2964 29.7209C69.2056 29.8108 69.0979 29.882 68.9794 29.9303C68.861 29.9786 68.7342 30.0031 68.6062 30.0024Z" fill="#D4F5FF"/>
<path d="M68.5793 37.4526L33.1603 37.2992C32.9023 37.2982 32.6552 37.1949 32.4733 37.0121C32.2914 36.8293 32.1896 36.5819 32.1903 36.3244C32.1912 36.0668 32.2945 35.8203 32.4775 35.6389C32.6605 35.4575 32.9082 35.3561 33.1662 35.3571L68.5851 35.5105C68.8432 35.5115 69.0903 35.6148 69.2722 35.7976C69.4541 35.9804 69.5559 36.2278 69.5552 36.4853C69.5542 36.7428 69.4509 36.9893 69.2679 37.1707C69.0849 37.3521 68.8372 37.4535 68.5793 37.4526Z" fill="#D4F5FF"/>
<path d="M68.5522 44.8988L33.1333 44.7455C32.8752 44.7444 32.6281 44.6411 32.4462 44.4583C32.2643 44.2755 32.1625 44.0282 32.1632 43.7706C32.1642 43.5131 32.2675 43.2666 32.4505 43.0852C32.6335 42.9038 32.8811 42.8025 33.1391 42.8033L68.5592 42.9559C68.8172 42.957 69.0643 43.0603 69.2462 43.2431C69.4281 43.4259 69.5299 43.6732 69.5292 43.9308C69.5289 44.0585 69.5033 44.1848 69.454 44.3026C69.4047 44.4203 69.3326 44.5272 69.2419 44.6171C69.1512 44.707 69.0435 44.7782 68.9252 44.8265C68.8069 44.8749 68.6801 44.8994 68.5522 44.8988Z" fill="#D4F5FF"/>
</svg>
