<svg xmlns="http://www.w3.org/2000/svg" width="17" height="16" viewBox="0 0 17 16">
    <path fill="#FFF" fill-rule="nonzero" d="M12.333 0c.306 0 .596.063.864.17l-3.17 3.169a3.239 3.239 0 0 0-2.282.953C6.695 5.342 6.643 7.724 6.669 8.7l.034 1.263 1.263.034.221.003c2.063 0 3.472-.363 4.188-1.077a3.237 3.237 0 0 0 .954-2.285L14.667 5.3V12h2v1.667A2.333 2.333 0 0 1 14.333 16H6a2 2 0 0 1-2-2V4H.667V2.333A2.333 2.333 0 0 1 3 0zm3 13.333H8.667v.334c0 .39-.082.72-.217 1h5.883c.552 0 1-.449 1-1v-.334zM14.96.293a1 1 0 1 1 1.414 1.414l-4.437 4.436a1.933 1.933 0 0 1-.505 1.836c-.697.696-3.009.692-3.38.687l-.05-.001c0-.025-.068-2.676.686-3.43a1.933 1.933 0 0 1 1.835-.506zM3 1.333c-.551 0-1 .449-1 1v.334h2v-.334c0-.551-.449-1-1-1z"/>
</svg>
