<svg xmlns="http://www.w3.org/2000/svg" xmlns:xlink="http://www.w3.org/1999/xlink" width="34" height="20" viewBox="0 0 34 20">
    <defs>
        <path id="a" d="M0 0h27.826v6.087H0z"/>
    </defs>
    <g fill="none" fill-rule="evenodd">
        <path fill="#FFF" stroke="#FFF" stroke-width=".5" d="M1.74 12.727a.305.305 0 0 1 .102-.088c.028-.003.09-.01.115.023.016.027-.012.092-.011.1l-.083.141c-.196.196-.244.34-.31.508-.155.324-.04.564.101.766.124.176.371.339.394.357.21.132.432.179.794.232.271.048.591.035.72.057.263.042 1.53.112 2.087.032.407-.056.78-.173.834-.185.4-.056 1.065-.315 1.622-.548.763-.318 1.324-.573 2.052-1.035.165-.094.339-.175.444-.298.368-.43 1.244-.942 1.358-1.129.26-.454.424-.688.273-.924-.208-.32-.56-.34-1.072-.419-.256-.043-.977-.247-1.376-.317-.37-.059-.74-.048-1.016-.082a13.654 13.654 0 0 1-.95-.18c-.4-.084-.795-.12-.975-.296-.17-.157-.363-.193-.4-.413-.06-.364.082-.547.186-.698.16-.275.48-.617.926-.972.167-.136.276-.231.486-.365.343-.26.786-.503 1.203-.735.422-.24.695-.374.95-.471.215-.093.425-.15.71-.242.554-.178 1.044-.313 1.395-.364.338-.05.728-.125 1.035-.067.093.018.157.089.242.17.092.075.207.168.178.297-.025.163.034.192-.144.358-.049.068-.184.25-.318.299-.115.04-.4.266-.601.273-.272.007-.478-.216-.495-.312-.002-.02-.15-.026-.316-.086-.16-.053-1.091.073-1.723.314-.305.165-1.01.246-1.262.44-.25.21-.776.467-1 .672-.374.362-.433.599-.441.788-.016.184.21.412.325.498.258.196 1.01.292 1.327.378.158.046.609.209 1.215.313.363.067.578.177.914.247.458.098.535.23.983.372.312.107.581.338.833.605.22.222.32.708.205.95-.118.272-.208.484-.51.796-.088.1-.143.113-.253.194-.078.057-.19.195-.273.267a12.04 12.04 0 0 1-2.021 1.331c-.756.401-1.432.626-2.164.843-.36.108-.87.239-1.124.293-.457.104-.966.123-1.366.179-.476.064-.866.077-1.052.04-.228-.039-1.182-.204-1.482-.264-.495-.115-.877-.285-.953-.347-.064-.077-.818-.39-.935-.776a.988.988 0 0 1 0-.595c.048-.145.157-.303.266-.468.096-.15.222-.282.35-.457zM15.895 10.4c-.173.284-.32.607-.41.883-.092.268-.118.48-.06.565.035.067.065.091.12.086.153-.016.498-.13.657-.21.179-.095.423-.233.699-.408.157-.101.326-.224.501-.354a7.99 7.99 0 0 1 .592-.419c.223-.15.425-.282.503-.347a.688.688 0 0 1 .244-.074c.056.001.088.04.09.053.008.02.082.125.013.195-.051.047-.092.058-.118.075-.125.083-.34.162-.418.219-.3.2-.51.277-.847.593-.236.213-.703.57-.921.754-.443.375-.692.667-.908.816-.078.057-.26.188-.306.214-.065.042-.315.13-.514.033-.067-.042-.2-.042-.302-.143-.078-.083-.13-.238-.163-.354-.054-.183-.02-.718.116-1.09.109-.297.306-.815.427-1.002.078-.12.285-.478.287-.66-.001-.147.233-.444.307-.543.036-.053.302-.319.412-.407.16-.129.313-.075.402-.098.265-.07.5.171.469.335-.03.122-.175.263-.3.41a4.746 4.746 0 0 0-.267.384c-.12.188-.233.381-.305.494zm.975-2.635c-.125.006-.277-.103-.285-.18-.009-.09-.004-.174.003-.238.007-.266.12-.523.267-.72.167-.214.353-.373.47-.448a.825.825 0 0 1 .302-.067c.202-.007.446.051.538.195.06.106-.036.396-.07.462-.082.156-.13.224-.167.277a2.548 2.548 0 0 1-.552.54c-.059.041-.353.17-.506.18zm5.862.224c.039.037.088.102.157.165.07.056.083.124.026.18-.026.016.013.187-.075.287-.132.14-.358.387-.445.354-.036-.01-.177.047-.281-.012-.082-.047-.08-.097-.125-.127-.093-.081-.158-.165-.403-.034-.125.069-.308.193-.496.338-.336.26-.715.586-.922.81-.144.156-.269.302-.38.44-.286.344-.466.629-.562.842a.7.7 0 0 0-.087.373c.012.117.062-.007.205-.05.115-.033.221-.086.67-.413.24-.179.61-.449.998-.748.246-.187.498-.388.737-.574l.62-.5.063-.062c.16-.136.31-.25.416-.302a.053.053 0 0 1 .033-.018c.077-.064.185-.096.342-.07.107.023.228-.032.306.044.11.114.265.266.21.468-.048.145-.199.307-.325.503-.145.218-.204.72-.333 1.028-.111.27-.26.852-.532 1.392l-.437.969c-.136.301-.379.718-.634 1.088-.37.535-.652 1.048-.971 1.473-.098.136-.53.56-.93.867-.253.194-.53.426-.823.625-.533.385-.882.527-1.916.74-.438.088-1.063.063-1.69-.116a2.85 2.85 0 0 1-1.04-.5 2.182 2.182 0 0 1-.672-.873 1.844 1.844 0 0 1-.14-.93c.018-.162.27-.623.535-.972.183-.25.16-.213.3-.346.112-.124.225-.178.336-.26.104-.066.122-.033.05.08-.036.059-.089.155-.158.233-.15.17-.211.183-.367.5-.255.628-.274 1.253-.14 1.525.1.22.297.43.56.6.224.136.487.249.78.309.43.094.886.11 1.49-.01.444-.096.819-.254 1.123-.426.64-.36.994-.79 1.124-.88.142-.113.67-.68.956-1.024.296-.38.66-1.035.913-1.425.346-.575.541-.91.844-1.69.129-.37.169-.459.212-.576.06-.167.111-.34.128-.517.022-.254.01-.364-.026-.375-.115-.036-.245-.002-.409.1-.197.118-.433.276-.68.449a5.836 5.836 0 0 0-.524.404c-.32.286-.627.626-.891.842-.341.281-.449.453-.58.53-.18.096-.68.058-.837-.038-.152-.117-.283-.432-.282-.55-.003-.231.097-.48.256-.762.106-.186.239-.389.39-.615a8.232 8.232 0 0 1 1.415-1.646c.224-.198.47-.391.724-.565.306-.214.623-.394.91-.515.195-.084.379-.131.531-.147.208-.015.544-.078.753.11zm6.663.055c-.108.179-.224.597-.302.99-.052.306-.098.465-.102.626-.003.168-.058.384-.05.46.023.214.058.35.123.435.08.103.215.117.381.037.353-.17.707-.397.886-.555.584-.51.935-.756 1.12-1 .057-.054.339-.168.42-.134.022.018.062.196-.005.231-.147.127-.228.157-.442.32l-.87.762c-.429.388-.896.8-1.237 1.082-.322.264-.38.305-.718.362-.371.06-.63-.347-.654-.834-.001-.147-.01-.425.007-.672 0-.266.068-.749.104-1.067.018-.233.01-.232.004-.294-.008-.146-.1-.228-.243-.185-.122.034-.405.274-.469.33-.27.23-.367.304-.64.563-.223.213-.432.486-.601.672a6.668 6.668 0 0 0-.616.792c-.165.297-.16.276-.267.455-.114.18-.284.429-.367.507-.108.102-.27.217-.45.166-.203-.055-.43-.29-.43-.486-.007-.265.122-.503.184-.719.036-.116.174-.473.347-.75.096-.157.39-.684.529-.965.073-.168.27-.56.275-.574.088-.156.113-.32.216-.478.076-.134.217-.197.317-.236.202-.077.351-.12.527-.111.106.01.267.077.303.15.03.088.042.205.022.277-.032.095-.04.214-.138.35-.036.053-.23.2-.274.253-.14.197-.288.394-.402.574-.024.038-.134.315-.115.432.004.035.046.037.074.034.089-.016.718-.62.814-.701.34-.301.575-.522.867-.805.152-.148.335-.343.474-.476.121-.118.282-.254.363-.346.127-.125.381-.229.482-.274.147-.058.361-.018.53.119.076.062.14.139.13.245a.97.97 0 0 1-.107.438z"/>
        <g transform="translate(3.478 13.913)">
            <mask id="b" fill="#fff">
                <use xlink:href="#a"/>
            </mask>
            <path fill="#FFF" stroke="#FFF" stroke-width=".5" d="M0 6.087c1.347-1.462 3.311-2.651 5.48-3.58.273-.114.532-.247.82-.345l.857-.303c.287-.098.567-.208.862-.296l.892-.253.897-.246c.3-.08.614-.133.92-.2l.926-.192c.309-.062.614-.136.934-.17l1.896-.255c.315-.05.636-.068.956-.091L16.4.09c1.28-.116 2.567-.086 3.85-.088.32-.002.64 0 .96.026l.956.061 1.909.13c1.256.16 2.51.322 3.751.507l-.023.08c-1.27-.063-2.525-.172-3.782-.243l-1.892-.04C21.5.52 20.872.465 20.244.503c-1.254.05-2.513.03-3.751.17l-.932.075c-.311.024-.624.041-.927.092l-1.836.255c-2.423.4-4.78.989-6.96 1.814C3.676 3.745 1.623 4.766 0 6.087" mask="url(#b)"/>
        </g>
    </g>
</svg>
