<svg width="40" height="40" viewBox="0 0 40 40" fill="none" xmlns="http://www.w3.org/2000/svg">
<g clip-path="url(#clip0_3249_6917)">
<path d="M29.8502 0H10.1498C4.54423 0 0 4.54423 0 10.1498V29.8502C0 35.4558 4.54423 40 10.1498 40H29.8502C35.4558 40 40 35.4558 40 29.8502V10.1498C40 4.54423 35.4558 0 29.8502 0Z" fill="#EF3C5B"/>
<path d="M19.1662 30.9244H19.1573C18.1233 30.9214 17.2941 30.4675 16.8223 29.6456C15.8299 27.9174 16.5123 24.728 18.7375 20.5906H9.66761C9.40355 20.5906 9.15878 20.4497 9.02676 20.2197C8.89473 19.9898 8.89473 19.7079 9.02676 19.4795C13.3184 12.0859 18.0462 8.7793 20.8321 8.7793H20.841C21.875 8.78226 22.7043 9.2362 23.176 10.058C24.1684 11.7863 23.486 14.9757 21.2594 19.1131H30.3322C30.5963 19.1131 30.841 19.254 30.9731 19.4839C31.1051 19.7139 31.1051 19.9957 30.9731 20.2242C26.6814 27.6177 21.9521 30.9244 19.1662 30.9259V30.9244ZM20.4271 20.5921C17.8326 25.17 17.5166 27.8863 18.104 28.9098C18.2361 29.1398 18.4883 29.4439 19.1603 29.4454H19.1662C21.3869 29.4454 25.3923 26.4117 29.0238 20.5906H20.4257L20.4271 20.5921ZM10.976 19.1131H19.5712C22.1658 14.5336 22.4817 11.8189 21.8943 10.7953C21.7623 10.5654 21.5101 10.2613 20.8381 10.2598H20.8321C18.6129 10.2598 14.6075 13.2935 10.9745 19.1131H10.976Z" fill="white"/>
</g>
<defs>
<clipPath id="clip0_3249_6917">
<rect width="40" height="40" fill="white"/>
</clipPath>
</defs>
</svg>