<svg width="16" height="16" viewBox="0 0 16 16" fill="none" xmlns="http://www.w3.org/2000/svg">
<g clip-path="url(#clip0_5648_142646)">
<path d="M15.1988 7.60383L13.4575 7.04258C12.3438 6.67508 11.6913 5.77383 11.385 4.64133L10.6188 0.908828C10.5988 0.835078 10.55 0.736328 10.4 0.736328C10.2738 0.736328 10.2013 0.835078 10.1813 0.908828L9.415 4.64258C9.1075 5.77508 8.45625 6.67633 7.3425 7.04383L5.60125 7.60508C5.355 7.68508 5.35125 8.03258 5.59625 8.11633L7.35 8.72008C8.46 9.08883 9.1075 9.98883 9.415 11.1163L10.1825 14.8076C10.2025 14.8813 10.2438 15.0138 10.4013 15.0138C10.5675 15.0138 10.6 14.8813 10.62 14.8076L11.3875 11.1163C11.695 9.98758 12.3425 9.08758 13.4525 8.72008L15.2063 8.11633C15.4488 8.03133 15.445 7.68383 15.1988 7.60383Z" fill="#FDD835"/>
<path d="M15.3638 7.76011C15.3363 7.69136 15.2825 7.63136 15.1988 7.60386L13.4575 7.04261C12.3438 6.67511 11.6913 5.77386 11.385 4.64136L10.6188 0.908857C10.6075 0.866357 10.5675 0.788857 10.5213 0.766357L10.7688 4.51261C10.9525 6.22261 11.11 7.02761 12.475 7.26261C13.6475 7.46511 15.0038 7.69761 15.3638 7.76011Z" fill="#FFEE58"/>
<path d="M15.3675 7.95508L12.3475 8.64758C11.2837 8.91758 10.6975 9.53383 10.6975 11.1463L10.4012 15.0138C10.5025 15.0038 10.585 14.9488 10.62 14.8076L11.3875 11.1163C11.695 9.98758 12.3425 9.08758 13.4525 8.72008L15.2062 8.11633C15.2887 8.08633 15.3412 8.02508 15.3675 7.95508Z" fill="#F4B400"/>
<path d="M5.22626 10.8514C4.18501 10.5076 4.09001 10.1201 3.91501 9.46637L3.47876 7.93637C3.45251 7.83762 3.19501 7.83762 3.16751 7.93637L2.87126 9.35012C2.69501 10.0014 2.32001 10.5189 1.68001 10.7301L0.660006 11.1726C0.518756 11.2189 0.516256 11.4189 0.657506 11.4664L1.68501 11.8301C2.32251 12.0414 2.69501 12.5589 2.87251 13.2076L3.16876 14.5601C3.19626 14.6589 3.45251 14.6589 3.47876 14.5601L3.82626 13.2139C4.00251 12.5614 4.27251 12.0426 5.13876 11.8301L6.10376 11.4664C6.24501 11.4176 6.24376 11.2176 6.10126 11.1714L5.22626 10.8514Z" fill="#FDD835"/>
<path d="M3.56125 9.4437C3.6675 10.4262 3.72125 10.6987 4.5175 10.9024L6.17625 11.2262C6.15875 11.2024 6.13375 11.1824 6.1 11.1724L5.225 10.8512C4.31125 10.5387 4.05875 10.1412 3.8875 9.3462C3.71625 8.5512 3.53375 8.03245 3.53375 8.03245C3.47 7.8612 3.37875 7.86995 3.37875 7.86995L3.56125 9.4437Z" fill="#FFEE58"/>
<path d="M3.59125 12.8737C3.59125 11.9475 4.0975 11.4888 4.9025 11.4888L6.155 11.4375C6.155 11.4375 6.0825 11.5338 5.95625 11.5638L5.13875 11.83C4.445 12.1087 4.12875 12.2488 3.91375 13.1975C3.91375 13.1975 3.63625 14.3012 3.58375 14.4175C3.51125 14.58 3.425 14.6138 3.425 14.6138L3.59125 12.8737Z" fill="#F4B400"/>
<path d="M7.4675 3.51747C7.5375 3.49372 7.535 3.39372 7.46375 3.37372L6.49875 3.11372C6.39949 3.08681 6.30888 3.03468 6.23573 2.9624C6.16257 2.89012 6.10935 2.80015 6.08125 2.70122L5.70125 1.13247C5.6825 1.05622 5.57375 1.05622 5.555 1.13372L5.1975 2.69622C5.17053 2.79789 5.11693 2.89053 5.04222 2.96458C4.96751 3.03863 4.8744 3.09141 4.7725 3.11747L3.81375 3.36622C3.7425 3.38497 3.7375 3.48497 3.8075 3.50997L4.81875 3.85997C5 3.92247 5.14 4.06997 5.195 4.25372L5.55625 5.70247C5.575 5.77747 5.6825 5.77872 5.70125 5.70247L6.075 4.24872C6.10265 4.15798 6.15155 4.07515 6.21764 4.0071C6.28373 3.93905 6.3651 3.88776 6.455 3.85747L7.4675 3.51747Z" fill="#F4B400" stroke="#F4B400" stroke-width="0.125" stroke-miterlimit="10"/>
</g>
<defs>
<clipPath id="clip0_5648_142646">
<rect width="16" height="16" fill="white"/>
</clipPath>
</defs>
</svg>
