<svg width="24" height="24" viewBox="0 0 24 24" fill="none" xmlns="http://www.w3.org/2000/svg">
  <rect width="22" height="22" transform="translate(1 1)"/>
  <path d="M12 23C18.0751 23 23 18.0751 23 12C23 5.92487 18.0751 1 12 1C5.92487 1 1 5.92487 1 12C1 18.0751 5.92487 23 12 23Z" fill="#035970"/>
  <path d="M15.8108 7.03984L17.3639 7.88945L15.8108 8.73905L14.9612 10.2906L14.1131 8.73905L12.5601 7.88945L14.1131 7.03984L14.9612 5.48682L15.8108 7.03984Z" fill="#E6F9FF"/>
  <path d="M11.5846 10.3355L14.6386 12.0072L11.5846 13.6775L9.91438 16.7314L8.24267 13.6775L5.18872 12.0072L8.24267 10.3355L9.91438 7.28156L11.5846 10.3355Z" fill="#E6F9FF"/>
  <path d="M17.3639 16.1105L15.8108 15.2609L14.9612 13.7094L14.1131 15.2609L12.5601 16.1105L14.1131 16.9601L14.9612 18.5132L15.8108 16.9601L17.3639 16.1105Z" fill="#E6F9FF"/>
</svg>
  