<svg width="20" height="18" viewBox="0 0 20 18" fill="none" xmlns="http://www.w3.org/2000/svg">
<path d="M17.6923 0H2.30769C1.03462 0 0 1.00875 0 2.25V12.75C0 13.99 1.03462 15 2.30769 15H9.23077V16.5H6.92308C6.49744 16.5 6.15385 16.8363 6.15385 17.25C6.15385 17.6637 6.49744 18 6.92308 18H13.0769C13.5013 18 13.8462 17.6637 13.8462 17.25C13.8462 16.8363 13.5013 16.5 13.0769 16.5H10.7692V15H17.6923C18.9641 15 20 13.99 20 12.75V2.25C20 1.00875 18.9641 0 17.6923 0ZM18.4615 12.75C18.4615 13.1637 18.1167 13.5 17.6923 13.5H2.30769C1.88333 13.5 1.53846 13.1637 1.53846 12.75V11.25H18.4615V12.75ZM18.4615 9.75H1.53846V2.25C1.53846 1.83625 1.88333 1.5 2.30769 1.5H17.6923C18.1167 1.5 18.4615 1.83625 18.4615 2.25V9.75Z" fill="#618298"/>
</svg>
