<svg width="110" height="100" viewBox="0 0 110 100" fill="none" xmlns="http://www.w3.org/2000/svg">
<g clip-path="url(#clip0_809_3328)">
<path d="M37.367 31.3618L4.52129 91.0531C3.10648 93.6247 5.6892 96.5556 8.41883 95.4729L73.5522 69.6469L37.367 31.3618Z" fill="#BFEDFF"/>
<path d="M93.784 20.4655C94.4272 25.7852 98.6198 29.9778 103.94 30.621C98.6198 31.2642 94.4272 35.4568 93.784 40.7766C93.1408 35.4568 88.9482 31.2642 83.6284 30.621C88.9482 29.9778 93.1408 25.7852 93.784 20.4655Z" fill="#7FCFE2"/>
<path d="M86.9447 42.058C87.3274 45.2173 89.8175 47.7074 92.9768 48.0901C89.8175 48.4729 87.3274 50.963 86.9447 54.1222C86.562 50.963 84.0719 48.4729 80.9126 48.0901C84.0719 47.7074 86.562 45.2173 86.9447 42.058Z" fill="#BFEDFF"/>
<path d="M101.043 38.4247C102.007 39.6383 103.675 40.0359 105.082 39.3902C103.869 40.3544 103.471 42.0223 104.117 43.4297C103.152 42.2161 101.485 41.8186 100.077 42.4643C101.291 41.5001 101.688 39.8322 101.043 38.4247Z" fill="#BFEDFF"/>
<path d="M73.5524 69.6413C76.8513 66.7145 71.6171 55.428 61.8614 44.4322C52.1058 33.4364 41.523 26.8953 38.2241 29.8221C34.9253 32.7489 40.1595 44.0354 49.9151 55.0312C59.6708 66.0269 70.2535 72.5681 73.5524 69.6413Z" fill="#7FCFE2"/>
<mask id="mask0_809_3328" style="mask-type:luminance" maskUnits="userSpaceOnUse" x="4" y="31" width="70" height="65">
<path d="M37.367 31.3618L4.52129 91.0531C3.10648 93.6247 5.6892 96.5556 8.41883 95.4729L73.5522 69.6469L37.367 31.3618Z" fill="white"/>
</mask>
<g mask="url(#mask0_809_3328)">
<path d="M5.24582 63.8309C5.13718 63.9865 5.14335 64.2457 5.13965 64.4902C5.24088 64.2951 5.27669 64.0927 5.24582 63.8309Z" fill="#F1385A"/>
<path d="M5.13935 64.4958C5.13935 64.4958 5.14075 64.4986 5.14075 64.5C5.14075 64.4958 5.14075 64.493 5.14075 64.4902C5.14075 64.493 5.13934 64.4944 5.13794 64.4958H5.13935Z" fill="#F1385A"/>
<path d="M34.2549 91.9149C34.203 91.9198 34.1437 91.9247 34.0833 91.9309C34.1413 91.9309 34.2005 91.9297 34.2549 91.9149Z" fill="#F1385A"/>
<path d="M6.85112 76.3445L7.05112 76.3235C7.22272 76.8914 6.87705 76.5581 7.09803 77.0667C7.43137 77.184 7.36347 77.9457 7.5647 78.0791C7.54248 78.0828 7.62026 78.3408 7.5326 78.3544C7.70174 78.3815 7.6647 78.6038 7.76223 78.7507C7.82396 78.7939 7.78816 78.6926 7.81532 78.6334L8.00544 78.9791C8.01408 79.1396 7.94495 79.2062 7.86964 79.0568C7.91038 79.1791 7.97087 79.3581 8.04495 79.5803C8.08322 79.6914 8.12519 79.8136 8.17087 79.9445C8.22149 80.0741 8.27581 80.2124 8.33383 80.3581C8.44988 80.6494 8.57828 80.9692 8.71285 81.3025C8.77705 81.4704 8.85606 81.6383 8.93383 81.8087C9.01161 81.9791 9.09186 82.1507 9.17087 82.3223C9.47581 83.0149 9.85112 83.6828 10.1561 84.2507C10.477 84.8112 10.7672 85.2519 10.9289 85.4828C10.9499 85.2988 10.7017 85.0433 10.7857 84.8371C11.0264 85.0359 10.9845 85.2272 11.1425 85.2815C11.0598 85.4013 11.1289 85.5507 11.2128 85.7075C11.2993 85.863 11.3943 86.0309 11.3462 86.2L11.5203 86.1852L11.5277 86.3605C11.9659 86.8581 12.0227 86.9075 12.0524 86.9568C12.0832 87.005 12.082 87.0519 12.424 87.5284C12.64 87.7914 12.8375 87.9531 13.003 88.0914C13.1746 88.226 13.3141 88.3371 13.4067 88.505C13.3709 88.4605 13.3462 88.2889 13.4894 88.3963C13.4067 88.505 13.8635 88.6877 13.8178 88.8408C13.8795 88.9 13.998 89.0383 14.1017 89.1284C14.2104 89.2149 14.3042 89.2531 14.3067 89.1235C14.3042 89.2519 14.619 89.6383 14.3573 89.4778C14.4684 89.6025 14.5622 89.7396 14.6746 89.7988L14.5622 89.6075C14.7672 89.8038 14.8968 89.9815 15.024 90.1297C15.1474 90.2803 15.2832 90.3865 15.4721 90.4556L15.3709 90.2605C15.6252 90.484 15.8388 90.6667 15.8141 90.8902L15.5215 90.6914C15.7289 90.8828 15.8968 91.0346 16.0647 91.1704C16.2314 91.3062 16.4104 91.4099 16.6203 91.5272L16.4943 91.4161C16.6388 91.4778 16.9017 91.6433 17.224 91.8568C17.382 91.9667 17.5672 92.0754 17.7573 92.1902C17.9474 92.305 18.1449 92.4247 18.3437 92.5445C18.4425 92.6038 18.5412 92.663 18.6388 92.721C18.74 92.7741 18.84 92.826 18.9375 92.8778C19.1338 92.9791 19.3203 93.0741 19.4906 93.1568C19.6622 93.2383 19.8128 93.3124 19.9449 93.3605C20.0783 93.4075 20.1845 93.4383 20.2573 93.447L20.1141 93.2025L20.5746 93.3321C20.5289 93.3038 20.1511 93.6124 20.1326 93.5494C20.2425 93.6099 20.4104 93.7038 20.6215 93.821C20.8326 93.9371 21.0832 94.0828 21.3783 94.2173C21.6696 94.3568 21.9906 94.5099 22.3252 94.6704C22.6684 94.8124 23.0264 94.9593 23.3845 95.1075C23.4746 95.1433 23.5622 95.1828 23.6536 95.2149C23.7449 95.247 23.8351 95.2778 23.9252 95.3099C24.1054 95.3729 24.2832 95.4359 24.4573 95.4963C24.6314 95.5568 24.8005 95.6198 24.9659 95.6729C25.1326 95.7223 25.2919 95.7692 25.4449 95.8149C25.7486 95.905 26.0203 95.9877 26.2425 96.0593C26.4672 96.1198 26.6437 96.168 26.7536 96.205C27.1005 96.3643 26.7684 96.4359 26.7585 96.4568C27.2178 96.5087 26.9845 96.3568 27.3598 96.4556C27.4585 96.5037 27.3166 96.5581 27.2536 96.5642C27.424 96.5852 27.5684 96.6704 27.5943 96.6062C27.3956 96.5112 27.519 96.3593 27.4548 96.2297C27.6141 96.2754 27.7746 96.3062 27.9363 96.3383L27.8943 96.442C28.0042 96.4642 28.224 96.1951 28.6882 96.3334C28.7882 96.3544 28.8882 96.3766 28.9894 96.3988C29.0906 96.4198 29.1943 96.4297 29.298 96.4445C29.5054 96.4717 29.7166 96.4963 29.9277 96.5198C30.1388 96.5408 30.3499 96.5717 30.5585 96.5828C30.7684 96.5951 30.9746 96.6099 31.1783 96.6272C31.1622 96.6926 30.9882 96.721 30.8141 96.7494C30.924 96.7593 31.0919 96.7519 31.1906 96.805C30.9993 96.6778 31.5375 96.747 31.3857 96.6902C31.5375 96.6321 31.6993 96.6062 31.8635 96.5976C32.0277 96.5815 32.1956 96.5815 32.361 96.584C32.6919 96.5902 33.0166 96.6062 33.2758 96.5149C33.2968 96.3964 33.5499 95.347 33.7536 94.2963C33.961 93.2445 34.1203 92.1902 34.1104 92.047C34.2462 92.0457 34.382 92.0445 34.4264 92.0655C34.3857 92 34.1178 91.9803 33.9783 92.026L33.9622 92.1803C33.6363 92.2507 33.8808 92.0926 33.561 92.1198C33.5388 91.9951 33.8301 91.9531 34.0869 91.9284C33.8536 91.9247 33.6203 91.8457 33.5314 91.9877C33.3116 91.947 33.5499 91.8334 33.2869 91.7926C33.103 91.8396 32.861 91.9531 32.6474 91.8815L32.6511 91.8593C32.3931 91.7939 32.1956 91.842 32.0017 91.8889C31.8091 91.9247 31.6203 91.9618 31.3882 91.8852L31.4412 91.8457C31.3598 91.805 31.2375 91.8038 31.0968 91.8025C31.0264 91.8025 30.9524 91.8001 30.877 91.7939C30.8017 91.7865 30.7277 91.7667 30.6548 91.7396C30.7363 91.7741 30.803 91.8729 30.6227 91.868C30.2894 91.7494 30.0474 91.8025 29.8104 91.6778C29.7252 91.7112 29.64 91.7383 29.5548 91.7655C29.4079 91.7371 29.2067 91.7025 28.9635 91.6642C28.8425 91.6457 28.7104 91.6247 28.5696 91.6038C28.4314 91.5741 28.2845 91.5433 28.1314 91.5099C27.8252 91.4433 27.4857 91.3889 27.1462 91.2877C26.9746 91.242 26.7993 91.1963 26.6227 91.1507C26.5351 91.126 26.4437 91.1075 26.3573 91.0791L26.0956 90.9926C24.6869 90.5568 23.3388 89.9284 22.8252 89.6136L22.8758 89.6198C22.7746 89.5655 22.6672 89.5087 22.5536 89.447C22.4968 89.4161 22.4388 89.3852 22.3795 89.3531C22.3203 89.3198 22.2635 89.2815 22.203 89.2445C21.9635 89.0939 21.7054 88.9309 21.4338 88.7605C21.1721 88.5729 20.8993 88.3766 20.619 88.1754C20.4758 88.0791 20.3449 87.9618 20.2067 87.8519C20.0696 87.7408 19.9314 87.6297 19.7931 87.5186L19.5857 87.3519L19.3882 87.1729C19.2561 87.0544 19.124 86.9359 18.9943 86.8198C18.7264 86.5939 18.4894 86.342 18.2511 86.1136C18.1326 85.9988 18.0153 85.8865 17.903 85.7766C17.7919 85.6642 17.6894 85.5494 17.5869 85.4433C17.3832 85.2284 17.1906 85.0334 17.0166 84.8605C16.9277 84.5445 16.6536 84.2322 16.4882 83.9618C16.5536 84.1309 16.4487 84.1346 16.3696 84.0223C16.2227 83.8322 16.1573 83.7235 16.1104 83.6754C16.0659 83.6247 16.0511 83.6247 16.0338 83.626C15.9993 83.6284 15.9585 83.6346 15.6585 83.2433C15.282 82.8161 14.5635 81.6359 13.9635 80.4062C13.8215 80.0951 13.6795 79.784 13.5425 79.4865C13.4721 79.3396 13.4166 79.1865 13.3598 79.042C13.303 78.8963 13.2486 78.7568 13.1968 78.6223C13.0956 78.3531 12.9968 78.1124 12.9289 77.9013C12.8622 77.6902 12.8091 77.5161 12.7758 77.3914C12.5956 77.1667 12.4696 76.8815 12.361 76.5926C12.2598 76.3001 12.1672 76.005 12.0264 75.7655L12.0832 75.8038C12.0524 75.7371 12.0104 75.6297 11.9622 75.4902C11.9128 75.3519 11.8548 75.1815 11.8042 74.9852C11.698 74.5951 11.5684 74.1223 11.4474 73.6445C11.34 73.1605 11.2326 72.6754 11.1363 72.2704C11.0462 71.863 10.9832 71.5322 10.9301 71.368L10.924 71.463C10.6931 70.9 10.9005 70.9408 10.8647 70.4704C10.6783 70.5692 10.4807 70.0828 10.4326 69.8914H10.477C10.4351 69.7482 10.3437 69.5186 10.2474 69.2642C10.1993 69.1371 10.1511 69.0038 10.1079 68.8717C10.0696 68.7383 10.0351 68.6075 10.0128 68.4865L10.124 68.4902C9.95359 68.1001 9.89433 67.3284 9.84988 67.0371C9.8326 66.3556 9.8968 65.3087 9.70668 64.4161L9.97828 63.8149L9.94124 63.7321C9.94124 63.7321 8.98445 63.5519 7.93754 63.5161C6.89186 63.4815 5.75235 63.5988 5.39556 64.2655L5.28569 64.2519L5.31655 64.505C5.28322 64.8124 5.41902 64.9445 5.30914 64.9322L5.29433 64.5149C5.28322 64.8223 5.21161 64.6136 5.14124 64.5001C5.13877 64.6284 5.13507 64.7544 5.10791 64.8581C5.15359 64.9161 5.14988 64.8099 5.17087 64.7605C5.22026 64.9223 5.33877 65.1445 5.30174 65.3482C5.31408 65.663 5.12519 65.3828 5.14124 65.7494C5.23137 67.6889 5.35482 69.5877 5.74248 71.5371C5.70668 71.5902 5.69803 71.5371 5.66593 71.484C5.83507 72.063 5.92766 72.5877 6.08692 73.1112C6.06964 73.2704 6.01408 73.326 5.98075 73.3803C6.01408 73.326 6.22026 74.0568 6.41902 74.805C6.46593 74.9926 6.52149 75.1803 6.57458 75.3568C6.62643 75.5334 6.67458 75.7001 6.71655 75.8433C6.79927 76.1309 6.85359 76.3284 6.85112 76.342V76.3445Z" fill="#073644"/>
<path d="M13.4065 56.7C13.2978 56.8556 13.304 57.1148 13.3003 57.3593C13.4015 57.1642 13.4373 56.9617 13.4065 56.7Z" fill="#F1385A"/>
<path d="M13.2971 57.3649C13.2971 57.3649 13.2985 57.3677 13.2999 57.3691C13.2999 57.3649 13.2999 57.3621 13.2999 57.3593C13.2999 57.3621 13.2985 57.3635 13.2971 57.3649Z" fill="#F1385A"/>
<path d="M42.4148 84.784C42.3629 84.7889 42.3037 84.7939 42.2432 84.8C42.3012 84.8 42.3604 84.7988 42.4148 84.784Z" fill="#F1385A"/>
<path d="M15.0099 69.2136L15.2099 69.1926C15.3815 69.7605 15.0358 69.4271 15.2568 69.9358C15.5901 70.0531 15.5222 70.8148 15.7234 70.9481C15.7012 70.9518 15.779 71.2099 15.6913 71.2234C15.8605 71.2506 15.8234 71.4728 15.921 71.6197C15.9827 71.6629 15.9469 71.5617 15.9741 71.5024L16.1642 71.8481C16.1728 72.0086 16.1037 72.0753 16.0284 71.9259C16.0691 72.0481 16.1296 72.2271 16.2037 72.4494C16.242 72.5605 16.2839 72.6827 16.3296 72.8136C16.3802 72.9432 16.4346 73.0815 16.4926 73.2271C16.6099 73.5185 16.737 73.8382 16.8716 74.1716C16.9358 74.3395 17.0136 74.5074 17.0926 74.6778C17.1704 74.8481 17.2506 75.0197 17.3296 75.1913C17.6346 75.8839 18.0099 76.5518 18.3148 77.1197C18.6358 77.6802 18.9259 78.121 19.0876 78.3518C19.1086 78.1667 18.8605 77.9123 18.9444 77.7062C19.1852 77.9049 19.1432 78.0963 19.3012 78.1506C19.2185 78.2704 19.2876 78.4197 19.3716 78.5765C19.458 78.7321 19.5531 78.9 19.5049 79.0691L19.679 79.0543L19.6864 79.2296C20.1247 79.7271 20.1815 79.7765 20.2111 79.8259C20.242 79.8741 20.2407 79.921 20.5827 80.3975C20.7988 80.6605 20.9963 80.8222 21.1617 80.9605C21.3333 81.095 21.4728 81.2062 21.5654 81.3741C21.5296 81.3296 21.5049 81.158 21.6481 81.2654C21.5654 81.3741 22.0222 81.5568 21.9765 81.7099C22.0383 81.7691 22.1568 81.9074 22.2605 81.9975C22.3691 82.0839 22.463 82.1222 22.4654 81.9926C22.463 82.121 22.7778 82.5074 22.516 82.3469C22.6272 82.4716 22.721 82.6086 22.8333 82.6679L22.721 82.4765C22.9259 82.6728 23.0555 82.8506 23.1827 82.9987C23.3062 83.1494 23.442 83.2555 23.6309 83.3247L23.5284 83.1296C23.7827 83.3531 23.9963 83.5358 23.9716 83.7592L23.679 83.5605C23.8864 83.7518 24.0543 83.9037 24.2222 84.0395C24.3889 84.1753 24.5679 84.279 24.7778 84.3963L24.6518 84.2852C24.7963 84.3469 25.0592 84.5123 25.3815 84.7259C25.5395 84.8358 25.7247 84.9444 25.9148 85.0592C26.1049 85.1741 26.3025 85.2938 26.5012 85.4136C26.6 85.4728 26.6988 85.5321 26.7963 85.5901C26.8975 85.6432 26.9975 85.695 27.0951 85.7469C27.2913 85.8481 27.4778 85.9432 27.6481 86.0259C27.8197 86.1074 27.9704 86.1815 28.1025 86.2296C28.2358 86.2765 28.342 86.3074 28.4148 86.316L28.2716 86.0716L28.7321 86.2012C28.6864 86.1728 28.3086 86.4815 28.2901 86.4185C28.4 86.479 28.5679 86.5728 28.779 86.6901C28.9901 86.8062 29.2407 86.9518 29.5358 87.0864C29.8272 87.2259 30.1481 87.379 30.4827 87.5395C30.8259 87.6815 31.1839 87.8284 31.542 87.9765C31.6321 88.0123 31.7197 88.0518 31.8111 88.0839C31.9025 88.116 31.9926 88.1469 32.0827 88.179C32.263 88.242 32.4407 88.3049 32.6148 88.3654C32.7889 88.4259 32.958 88.4889 33.1222 88.542C33.2889 88.5913 33.4481 88.6383 33.6012 88.6839C33.9049 88.7741 34.1765 88.8568 34.3988 88.9284C34.6234 88.9889 34.8 89.037 34.9099 89.0741C35.2568 89.2333 34.9247 89.3049 34.9148 89.3259C35.3741 89.3778 35.1407 89.2259 35.516 89.3247C35.6136 89.3728 35.4728 89.4271 35.4099 89.4333C35.5802 89.4543 35.7247 89.5395 35.7506 89.4753C35.5518 89.3802 35.6753 89.2284 35.6111 89.0987C35.7704 89.1444 35.9309 89.1753 36.0926 89.2074L36.0506 89.3111C36.1593 89.3333 36.3802 89.0642 36.8444 89.2024C36.9444 89.2234 37.0444 89.2457 37.1457 89.2679C37.2469 89.2889 37.3506 89.2987 37.4543 89.3136C37.6617 89.3407 37.8728 89.3654 38.0839 89.3889C38.2951 89.4099 38.5062 89.4407 38.7148 89.4518C38.9247 89.4642 39.1309 89.479 39.3346 89.4963C39.3185 89.5617 39.1444 89.5901 38.9704 89.6185C39.0802 89.6284 39.2481 89.621 39.3469 89.6741C39.1555 89.5469 39.6938 89.616 39.542 89.5592C39.6938 89.5012 39.8555 89.4753 40.0197 89.4666C40.1839 89.4506 40.3518 89.4506 40.5173 89.4531C40.8481 89.4592 41.1728 89.4753 41.4321 89.3839C41.4531 89.2654 41.7062 88.216 41.9099 87.1654C42.1173 86.1136 42.2765 85.0592 42.2667 84.916C42.4025 84.9148 42.5383 84.9136 42.5815 84.9345C42.5407 84.8691 42.2728 84.8494 42.1333 84.895L42.1173 85.0494C41.7913 85.1197 42.0358 84.9617 41.716 84.9889C41.6938 84.8642 41.9852 84.8222 42.242 84.7975C42.0086 84.7938 41.7753 84.7148 41.6864 84.8568C41.4667 84.816 41.7049 84.7025 41.442 84.6617C41.258 84.7086 41.016 84.8222 40.8025 84.7506L40.8062 84.7284C40.5481 84.6629 40.3506 84.7111 40.1568 84.758C39.9642 84.7938 39.7753 84.8308 39.5432 84.7543L39.5963 84.7148C39.5148 84.6741 39.3926 84.6728 39.2518 84.6716C39.1815 84.6716 39.1074 84.6691 39.0321 84.6629C38.9568 84.6555 38.8827 84.6358 38.8099 84.6086C38.8913 84.6432 38.958 84.742 38.7778 84.737C38.4444 84.6185 38.2025 84.6716 37.9654 84.5481C37.8802 84.5815 37.7951 84.6086 37.7099 84.6358C37.563 84.6074 37.3617 84.5728 37.1185 84.5345C36.9975 84.516 36.8654 84.495 36.7247 84.4741C36.5864 84.4444 36.4395 84.4136 36.2864 84.3802C35.9802 84.3136 35.6407 84.2592 35.3012 84.158C35.1296 84.1123 34.9543 84.0666 34.7778 84.021C34.6901 83.9963 34.5988 83.9778 34.5123 83.9494L34.2506 83.8629C32.842 83.4271 31.4938 82.7987 30.9802 82.4839L31.0309 82.4901C30.9296 82.4358 30.8222 82.379 30.7086 82.3173C30.6518 82.2864 30.5938 82.2555 30.5346 82.2234C30.4753 82.1901 30.4185 82.1518 30.358 82.1148C30.1185 81.9642 29.8605 81.8012 29.5889 81.6308C29.3272 81.4432 29.0543 81.2469 28.7741 81.0457C28.6309 80.9494 28.5 80.8321 28.3617 80.7222C28.2247 80.6111 28.0864 80.5 27.9481 80.3889L27.7407 80.2222L27.5432 80.0432C27.4111 79.9247 27.279 79.8062 27.1494 79.6901C26.8815 79.4642 26.6444 79.2123 26.4062 78.9839C26.2876 78.8691 26.1704 78.7568 26.058 78.6469C25.9469 78.5345 25.8444 78.4197 25.742 78.3136C25.5383 78.0987 25.3457 77.9037 25.1716 77.7308C25.0827 77.4148 24.8086 77.1025 24.6432 76.8321C24.7086 77.0012 24.6037 77.0049 24.5247 76.8926C24.3778 76.7025 24.3123 76.5938 24.2654 76.5457C24.221 76.495 24.2062 76.495 24.1889 76.4963C24.1555 76.4987 24.1148 76.5049 23.8136 76.1136C23.437 75.6864 22.7185 74.5062 22.1185 73.2765C21.9765 72.9654 21.8346 72.6543 21.6975 72.3568C21.6272 72.2099 21.5716 72.0568 21.5148 71.9123C21.458 71.7666 21.4037 71.6271 21.3518 71.4926C21.2506 71.2234 21.1518 70.9827 21.0839 70.7716C21.0173 70.5605 20.9642 70.3864 20.9309 70.2617C20.7506 70.037 20.6247 69.7518 20.516 69.4629C20.4148 69.1704 20.3222 68.8753 20.1815 68.6358L20.2383 68.6741C20.2074 68.6074 20.1654 68.5 20.116 68.3605C20.0667 68.2222 20.0086 68.0518 19.958 67.8555C19.8518 67.4654 19.7222 66.9926 19.6012 66.5148C19.4938 66.0308 19.3864 65.5457 19.2901 65.1407C19.2 64.7333 19.137 64.4025 19.0839 64.2383L19.0778 64.3333C18.8469 63.7703 19.0543 63.8111 19.0185 63.3407C18.8321 63.4395 18.6346 62.9531 18.5864 62.7617H18.6309C18.5889 62.6185 18.4975 62.3889 18.4012 62.1345C18.3543 62.0074 18.3049 61.8741 18.2617 61.742C18.2234 61.6086 18.1889 61.4778 18.1667 61.3568L18.2778 61.3605C18.1074 60.9704 18.0481 60.1987 18.0037 59.9074C17.9864 59.2259 18.0506 58.179 17.8605 57.2864L18.1321 56.6852L18.0951 56.6024C18.0951 56.6024 17.1383 56.4222 16.0913 56.3864C15.0457 56.3518 13.9062 56.4691 13.5494 57.1358L13.4395 57.1222L13.4704 57.3753C13.437 57.6827 13.5728 57.8148 13.463 57.8025L13.4481 57.3852C13.437 57.6926 13.3654 57.4839 13.2951 57.3704C13.2926 57.4987 13.2889 57.6247 13.2617 57.7284C13.3074 57.7864 13.3037 57.6802 13.3247 57.6308C13.3741 57.7926 13.4926 58.0148 13.4555 58.2185C13.4679 58.5333 13.279 58.2531 13.2951 58.6197C13.3852 60.5592 13.5086 62.458 13.8963 64.4074C13.8605 64.4605 13.8518 64.4074 13.8197 64.3543C13.9889 64.9333 14.0815 65.458 14.2407 65.9815C14.2234 66.1407 14.1679 66.1963 14.1346 66.2506C14.1679 66.1963 14.3741 66.9271 14.5728 67.6753C14.6197 67.8629 14.6753 68.0506 14.7284 68.2271C14.7802 68.4037 14.8284 68.5704 14.8704 68.7136C14.9531 69.0012 15.0074 69.1987 15.0049 69.2123L15.0099 69.2136Z" fill="#073644"/>
<path d="M18.4792 38.4284C18.3755 38.6469 18.3891 39.0148 18.394 39.363C18.4891 39.0877 18.5187 38.8025 18.4792 38.4284Z" fill="#F1385A"/>
<path d="M18.3911 39.3709C18.3911 39.3709 18.3924 39.3749 18.3938 39.3763C18.3938 39.3709 18.3938 39.367 18.3938 39.363C18.3938 39.3656 18.3924 39.3683 18.3911 39.3709Z" fill="#F1385A"/>
<path d="M59.9358 79.442C59.858 79.4481 59.7691 79.4543 59.6777 79.4617C59.7642 79.4617 59.8518 79.4568 59.9358 79.442Z" fill="#F1385A"/>
<path d="M21.0782 56.1198L21.2819 56.1111C21.4017 56.5124 21.3782 56.5852 21.3449 56.6519C21.314 56.7185 21.2869 56.7753 21.4375 57.1358C21.8017 57.3333 21.835 58.3679 22.0634 58.5728C22.0363 58.5766 22.1671 58.9346 22.077 58.9432C22.2622 58.9988 22.2548 59.2963 22.3795 59.5074C22.4511 59.5728 22.398 59.4309 22.4165 59.3543L22.6696 59.8469C22.7042 60.0654 22.6412 60.1482 22.5387 59.9358C22.6005 60.1062 22.6906 60.3568 22.8042 60.6679C22.8326 60.7457 22.8622 60.8272 22.8943 60.9124C22.9289 60.9963 22.9659 61.0827 23.0029 61.1741C23.0795 61.3543 23.1597 61.5482 23.2449 61.7506C23.4177 62.1568 23.6079 62.6012 23.8066 63.0679C24.0276 63.5259 24.2597 64.0025 24.4906 64.4815C24.6091 64.7198 24.719 64.9617 24.8449 65.1938C24.9721 65.4259 25.0992 65.6556 25.2227 65.8803C25.4733 66.3284 25.7066 66.763 25.94 67.1506C26.4215 67.9173 26.8215 68.5358 27.0498 68.858C27.0363 68.6235 26.7091 68.2556 26.7622 68.0012C27.0696 68.2963 27.061 68.537 27.2486 68.6321C27.1103 68.9173 27.7215 69.4161 27.6819 69.8321L27.8745 69.842L27.919 70.0654C28.5103 70.7729 28.6103 70.8296 28.6511 70.8988C28.6968 70.9642 28.7054 71.0235 29.1992 71.6766C29.5017 72.0408 29.761 72.279 29.998 72.4679C30.2289 72.6605 30.4153 72.8222 30.5597 73.0445C30.5091 72.984 30.4412 72.7667 30.6313 72.9247C30.5597 73.0445 31.1326 73.3482 31.1116 73.5272C31.1943 73.6136 31.3708 73.7963 31.5215 73.9173C31.6708 74.0395 31.7894 74.1025 31.7634 73.9457C31.7894 74.1025 32.2499 74.6222 31.9042 74.384C32.0647 74.5543 32.2054 74.7358 32.3511 74.8272L32.1758 74.5766C32.319 74.7124 32.4387 74.8395 32.5461 74.958C32.5992 75.0173 32.6498 75.0741 32.698 75.1296C32.7499 75.1815 32.798 75.2309 32.8461 75.279C33.0387 75.4704 33.219 75.6259 33.4647 75.7383L33.298 75.4889C33.6548 75.7975 33.9548 76.0519 33.9733 76.3124L33.5758 76.0272C33.7227 76.158 33.8548 76.2753 33.9795 76.3852C34.0424 76.4395 34.1029 76.4914 34.161 76.542C34.2239 76.5889 34.2844 76.6346 34.3437 76.679C34.5857 76.8556 34.8227 77.0136 35.1066 77.1827L34.9289 77.0321C35.1202 77.1272 35.477 77.3679 35.9239 77.6654C36.3807 77.9482 36.9313 78.2877 37.4795 78.6259C38.0387 78.9445 38.6066 79.242 39.0745 79.484C39.3066 79.6087 39.5264 79.6963 39.7066 79.7679C39.8881 79.8395 40.0326 79.8889 40.1289 79.9099L39.8931 79.6185L40.5165 79.8309C40.4511 79.7926 40.0215 80.0753 39.9869 80.0037C40.1412 80.0877 40.3758 80.2148 40.6721 80.3753C40.7461 80.4148 40.8239 80.4568 40.9054 80.5012C40.9461 80.5235 40.9881 80.5457 41.0301 80.5679C41.0733 80.5889 41.1178 80.6099 41.1634 80.6309C41.3437 80.7161 41.5375 80.8062 41.7424 80.9025C41.9461 80.9975 42.161 81.0988 42.3832 81.2025C42.6054 81.3062 42.8338 81.4173 43.0758 81.5087C43.5573 81.7025 44.0585 81.9037 44.5597 82.1049C45.0684 82.2852 45.5795 82.4543 46.0659 82.621C46.1881 82.663 46.3079 82.7037 46.4264 82.7445C46.5449 82.7852 46.6647 82.8136 46.7807 82.8482C47.014 82.9148 47.2375 82.979 47.4511 83.0395C47.6634 83.1012 47.8647 83.1593 48.0523 83.2136C48.2387 83.2691 48.4116 83.321 48.5708 83.3568C48.8869 83.4333 49.1326 83.4975 49.2881 83.5445C49.7807 83.7333 49.3326 83.7815 49.3215 83.8025C49.956 83.8901 49.6215 83.7173 50.1461 83.8457C50.2857 83.9025 50.0955 83.9469 50.0091 83.9482C50.2437 83.9877 50.4523 84.0691 50.4819 84.0074C50.1992 83.9087 50.356 83.7605 50.2548 83.6235C50.4795 83.6753 50.7066 83.7111 50.9313 83.7556L50.882 83.858C51.035 83.8864 51.3177 83.6272 51.9733 83.7938C52.1128 83.821 52.2536 83.8543 52.398 83.8741C52.5412 83.8926 52.6869 83.9111 52.8326 83.9296C53.1252 83.963 53.4202 83.9963 53.7153 84.0296C54.3054 84.1062 54.8992 84.121 55.4696 84.1679C55.4486 84.2321 55.2066 84.258 54.9634 84.2827C55.1165 84.2951 55.3511 84.2901 55.4906 84.3457C55.2202 84.2148 55.9745 84.2951 55.761 84.2346C55.9733 84.1778 56.198 84.1593 56.4289 84.1469C56.6597 84.1296 56.8955 84.1309 57.1276 84.1333C57.5931 84.1395 58.0486 84.1556 58.4128 84.0654C58.4424 83.9445 58.8103 82.8914 59.1264 81.8346C59.4474 80.7778 59.719 79.7185 59.7091 79.5753C59.9128 79.5704 60.1153 79.5667 60.1782 79.5864C60.1202 79.5222 59.7202 79.5087 59.5103 79.558L59.4819 79.7136C58.9955 79.7914 59.3622 79.6284 58.8857 79.6617C58.856 79.537 59.2918 79.4889 59.6758 79.458C59.3276 79.4605 58.9795 79.3864 58.8449 79.5296C58.5178 79.4938 58.8745 79.3741 58.4832 79.3407C58.3449 79.3691 58.1844 79.4086 58.019 79.4333C57.8536 79.4593 57.6819 79.4704 57.5227 79.4333L57.5289 79.4111C57.1412 79.3457 56.8449 79.3926 56.5548 79.4408C56.2659 79.479 55.9844 79.5062 55.6338 79.4247L55.7116 79.3864C55.5881 79.3432 55.4029 79.3395 55.1931 79.3333C54.9832 79.3247 54.7449 79.3284 54.5264 79.2593C54.6511 79.2988 54.7548 79.4012 54.4844 79.3864C53.977 79.2506 53.6177 79.2914 53.2536 79.1543C53.1289 79.1803 53.0017 79.2148 52.877 79.2333C52.656 79.1938 52.3523 79.1432 51.9857 79.0852C51.8029 79.0568 51.6042 79.0259 51.3931 78.9938C51.34 78.9852 51.2869 78.9778 51.2326 78.9692C51.1795 78.958 51.1239 78.9457 51.0696 78.9346C50.9597 78.9111 50.8461 78.8877 50.7301 78.863C50.498 78.8148 50.256 78.7654 50.0066 78.7136C49.8819 78.6877 49.7548 78.6617 49.6264 78.6358C49.498 78.6099 49.3721 78.5704 49.2424 78.5371C48.9844 78.4692 48.7202 78.3988 48.4548 78.3284C48.1894 78.2568 47.9165 78.1951 47.656 78.1025C47.3918 78.0161 47.1276 77.9309 46.8659 77.8457C46.6054 77.758 46.34 77.6864 46.0943 77.5815C45.598 77.384 45.114 77.205 44.677 77.0247C44.2474 76.8272 43.8536 76.6457 43.5177 76.4914C43.177 76.3457 42.9128 76.184 42.7128 76.0803L42.7844 76.0975C42.4807 75.9358 42.1375 75.7531 41.7634 75.5531C41.4029 75.3296 41.014 75.0889 40.6042 74.837C40.5017 74.7741 40.398 74.7099 40.2943 74.6445C40.1943 74.5728 40.0918 74.5012 39.9894 74.4284C39.7844 74.284 39.5758 74.137 39.3647 73.9877C38.9338 73.7012 38.5264 73.3617 38.1091 73.0333C36.4486 71.7099 34.9239 70.1889 33.9289 69.1346C33.8782 69.0309 33.8103 68.9284 33.7412 68.8185C33.6733 68.7087 33.5968 68.5975 33.519 68.4889C33.3622 68.2704 33.1955 68.0568 33.0634 67.8642C33.1844 68.0988 33.0634 68.0827 32.94 67.9198C32.4992 67.3593 32.4782 67.3445 32.4387 67.3408C32.4005 67.337 32.3548 67.3358 31.9128 66.7593C31.7807 66.5975 31.6079 66.3716 31.4066 66.1C31.2091 65.8247 31.0017 65.4889 30.7684 65.1272C30.2857 64.4136 29.8165 63.5161 29.3289 62.6395C28.8943 61.7309 28.4363 60.8432 28.1326 60.0531C27.9733 59.663 27.8276 59.3086 27.7054 59.0099C27.5881 58.7086 27.5103 58.4531 27.4498 58.2741C27.219 57.9321 27.0412 57.5136 26.8708 57.0951L26.8079 56.9383L26.7523 56.779C26.714 56.6741 26.6758 56.5691 26.6387 56.4654C26.561 56.2605 26.4795 56.0642 26.3881 55.8852L26.4536 55.9469C26.3696 55.7506 26.2091 55.3173 26.0301 54.7568C25.8684 54.1901 25.6721 53.5012 25.4745 52.8074C25.3029 52.1062 25.1313 51.4 24.9869 50.8099C24.9511 50.6617 24.9128 50.5222 24.8832 50.3901C24.8548 50.258 24.8276 50.1346 24.8029 50.0222C24.7523 49.7975 24.7091 49.6173 24.6758 49.4975L24.6795 49.6346C24.3869 48.8062 24.6029 48.8815 24.5177 48.2012C24.3326 48.3309 24.0918 47.6148 24.0264 47.3358L24.0708 47.3383C24.0165 47.1296 23.9042 46.7914 23.7869 46.4185C23.7276 46.2321 23.6671 46.037 23.6128 45.8445C23.5585 45.6519 23.5202 45.4593 23.4881 45.284L23.6005 45.2951C23.4029 44.7222 23.2931 43.6037 23.2264 43.1815C23.198 42.6901 23.1931 42.063 23.1585 41.3988C23.1498 41.2321 23.14 41.0642 23.1276 40.8951C23.114 40.7259 23.0992 40.5556 23.0894 40.3852C23.0634 40.0445 23.0252 39.7062 22.9659 39.3803L23.2177 38.5148L23.1782 38.3926C23.1782 38.3926 22.214 38.1074 21.1634 38.0346C20.1153 37.963 18.977 38.1111 18.6412 39.0494L18.5301 39.0272L18.5696 39.3864C18.5461 39.8235 18.6869 40.0136 18.5758 39.9926L18.5474 39.3988C18.5474 39.8358 18.4671 39.537 18.3943 39.3741C18.3968 39.5568 18.3955 39.7346 18.3721 39.8815C18.4202 39.9642 18.4128 39.8148 18.4313 39.7457C18.4857 39.9778 18.6116 40.2951 18.5807 40.584C18.6042 41.0309 18.4029 40.6272 18.435 41.1494C18.6054 43.9025 18.8511 46.5864 19.4128 49.3457C19.3819 49.4173 19.3671 49.342 19.3301 49.2667C19.5548 50.0877 19.698 50.8284 19.9091 51.5728C19.9116 51.7926 19.8634 51.8654 19.8338 51.9383C19.8622 51.8654 20.1523 52.8975 20.4363 53.9556C20.5881 54.4827 20.7573 55.0124 20.8758 55.4173C20.9968 55.8222 21.077 56.1012 21.0758 56.1198H21.0782Z" fill="#073644"/>
<path d="M29.798 45.4223L30.0055 45.4075C30.3857 46.3272 29.903 45.763 30.3042 46.5951C30.5042 46.7062 30.6499 47.0593 30.7783 47.4149C30.9042 47.7717 31.0301 48.1235 31.161 48.2383C31.1376 48.2408 31.3178 48.6544 31.2264 48.6655C31.324 48.6964 31.3808 48.7976 31.4314 48.9223C31.4845 49.0457 31.5338 49.1914 31.6129 49.3112C31.6956 49.3865 31.6203 49.2235 31.6289 49.1346L31.961 49.6976C32.0277 49.9482 31.9758 50.0445 31.84 49.8013C31.9252 49.9964 32.0561 50.2828 32.2277 50.6346C32.398 50.9865 32.5956 51.4099 32.8351 51.8704C32.9536 52.1013 33.0771 52.3433 33.2055 52.5939C33.3388 52.842 33.4771 53.0988 33.6178 53.3618C33.8968 53.889 34.2116 54.426 34.5203 54.9692C35.1548 56.0433 35.8141 57.1099 36.4116 57.9828C36.7042 58.4235 36.982 58.8136 37.2203 59.142C37.34 59.305 37.4474 59.4544 37.5437 59.5853C37.6413 59.7149 37.7289 59.8248 37.8017 59.9136C37.7499 59.6581 37.3573 59.2396 37.3795 58.9581C37.7425 59.2964 37.7659 59.5618 37.9808 59.6704C37.8783 59.9778 38.561 60.5692 38.5783 61.0223L38.7845 61.0408L38.8598 61.289C39.2178 61.6902 39.4277 61.9062 39.5499 62.0334C39.6721 62.1618 39.7092 62.2013 39.7363 62.2383C39.7635 62.2754 39.7808 62.3112 39.8647 62.4309C39.9487 62.5507 40.098 62.7556 40.4017 63.1235C40.7672 63.5371 41.0746 63.8075 41.3413 64.0334C41.6055 64.2606 41.8166 64.4519 41.9943 64.7038C41.9326 64.6371 41.8413 64.3927 42.0598 64.5791C41.9943 64.705 42.6462 65.0692 42.6413 65.2618C42.8388 65.4593 43.461 66.1149 43.3783 65.7704C43.419 65.9433 43.9561 66.547 43.5647 66.2593C43.7487 66.4593 43.9203 66.663 44.0882 66.7717L43.8746 66.4902C44.2116 66.8025 44.4462 67.0717 44.6635 67.3013C44.8832 67.5285 45.0906 67.7099 45.3647 67.8556L45.1659 67.5704C45.3709 67.7544 45.5585 67.9211 45.7005 68.0778C45.8425 68.2346 45.9425 68.3754 45.9622 68.5149C45.8092 68.4025 45.6548 68.2927 45.5055 68.1754C46.1857 68.7865 46.6055 69.147 47.2524 69.5643L47.0487 69.384C47.4734 69.6346 48.6857 70.5396 49.9425 71.3618C51.1931 72.1939 52.5017 72.9174 52.9338 73.0655L52.6672 72.7248C52.9017 72.8297 53.1338 72.9383 53.3721 73.0359C53.2956 72.989 52.8166 73.226 52.7783 73.1445C52.9499 73.2581 53.2215 73.4161 53.5585 73.6198C53.7289 73.7198 53.9129 73.8359 54.1166 73.9507C54.3215 74.0655 54.54 74.1889 54.7709 74.3186C55.698 74.8309 56.8289 75.4211 57.9919 75.9408C59.1536 76.4618 60.3314 76.9433 61.324 77.2877C62.3129 77.6433 63.103 77.889 63.4672 78.0161C64.0425 78.2643 63.5141 78.2606 63.5005 78.2803C63.8721 78.3618 63.961 78.347 64.0338 78.3346C64.1067 78.3235 64.1635 78.3161 64.4746 78.4025C64.6388 78.4704 64.4116 78.5001 64.3104 78.4939C64.5894 78.5482 64.8314 78.6606 64.8684 78.6025C64.5375 78.4655 64.7252 78.3346 64.6092 78.189C64.8746 78.2606 65.1376 78.3383 65.4055 78.3988L65.345 78.4976C65.4351 78.5186 65.5659 78.4717 65.7696 78.447C65.9746 78.4198 66.2511 78.4285 66.6425 78.526C67.9721 78.8334 69.4511 78.9951 70.8215 79.105C70.7956 79.1692 70.5055 79.1853 70.2116 79.2001C70.3956 79.2186 70.6783 79.2235 70.845 79.284C70.682 79.2124 70.8277 79.205 70.982 79.2062C71.1363 79.2025 71.2993 79.2062 71.1709 79.1766C71.4264 79.1211 71.698 79.0976 71.9758 79.0927C72.2536 79.0902 72.5388 79.0828 72.819 79.0902C73.3808 79.1075 73.9301 79.0939 74.3696 78.9939C74.4042 78.8778 74.8326 77.8124 75.1845 76.747C75.2733 76.4803 75.3585 76.2136 75.4363 75.9618C75.5129 75.7075 75.582 75.4655 75.6388 75.2544C75.7524 74.8309 75.8178 74.526 75.8116 74.4544C76.0487 74.4346 76.2832 74.4161 76.3585 74.4322C76.2894 74.3717 75.8227 74.3865 75.5808 74.4519L75.5524 74.6087C75.2696 74.6667 75.2338 74.6408 75.2005 74.6161C75.1659 74.5902 75.1338 74.5581 74.8561 74.5815C74.8178 74.4556 75.3264 74.4062 75.7709 74.3396C75.3672 74.3729 74.9598 74.3038 74.8042 74.4519C74.4215 74.4248 74.8363 74.2964 74.3783 74.2729C74.0573 74.3248 73.6326 74.4569 73.2573 74.3939L73.2635 74.3717C72.8092 74.3001 72.4635 74.3544 72.124 74.3877C71.9548 74.4038 71.7869 74.4211 71.6092 74.4235C71.4326 74.426 71.2462 74.4161 71.04 74.3643L71.1326 74.3297C70.845 74.2309 70.2598 74.2939 69.74 74.147C69.8869 74.189 70.0092 74.2951 69.6894 74.2729C69.54 74.2359 69.4005 74.2099 69.2709 74.1902C69.14 74.1667 69.019 74.1457 68.9017 74.1272C68.6684 74.089 68.4536 74.0531 68.2413 73.9704L67.7968 74.0124C67.6659 73.9877 67.5092 73.9581 67.3326 73.9235C67.1561 73.8914 66.9585 73.8433 66.7437 73.7976C66.3116 73.7124 65.8104 73.584 65.261 73.4507C64.1647 73.163 62.8882 72.7643 61.6338 72.2815C60.3783 71.8025 59.1487 71.2408 58.1215 70.7173C57.8659 70.584 57.6203 70.4569 57.3894 70.3371C57.161 70.2099 56.9474 70.0914 56.7499 69.9815C56.3524 69.7667 56.0338 69.563 55.7956 69.4235L55.8795 69.4519C55.5141 69.2433 55.1141 68.984 54.6758 68.7062C54.4561 68.568 54.2351 68.4124 54.003 68.2569C53.8869 68.1791 53.7696 68.1001 53.6511 68.0186C53.5338 67.9346 53.4153 67.8507 53.2956 67.7643C53.0561 67.5902 52.8067 67.4211 52.5622 67.2334C52.3166 67.0482 52.0659 66.8593 51.8129 66.668C51.5635 66.4704 51.3129 66.2704 51.0598 66.0692C50.8055 65.8692 50.5598 65.6556 50.3079 65.4482C49.3104 64.6087 48.34 63.7272 47.4697 62.8914C47.0413 62.4667 46.6215 62.0692 46.2487 61.6828C46.0598 61.4914 45.8771 61.3087 45.703 61.1334C45.5314 60.9556 45.3672 60.7865 45.2141 60.6272C45.1462 60.505 45.0622 60.3791 44.9697 60.2519C44.8795 60.1223 44.7808 59.9927 44.6783 59.863C44.4771 59.6038 44.2573 59.3544 44.0931 59.1198C44.2548 59.3988 44.1203 59.3692 43.9672 59.1729C43.4227 58.4914 43.3882 58.4815 43.345 58.4754C43.3017 58.4692 43.2524 58.4643 42.6894 57.7815C42.0227 57.0099 40.5561 55.0248 39.3141 52.926C38.045 50.8445 37.0042 48.668 36.6462 47.8359C36.0598 47.0383 35.6598 45.8815 35.1845 45.0482L35.261 45.1198C35.0203 44.6655 34.3783 43.0803 33.8153 41.4457C33.2487 39.8124 32.761 38.1334 32.5721 37.568L32.5919 37.7285C32.1919 36.7618 32.4277 36.8408 32.2721 36.0383C32.1894 36.1161 32.061 35.947 31.945 35.7173C31.8314 35.4865 31.7264 35.1951 31.6783 35.0309L31.724 35.0334C31.6857 34.9112 31.6277 34.7507 31.561 34.5667C31.4968 34.3815 31.4252 34.1729 31.3487 33.9532C31.2734 33.7334 31.1968 33.5038 31.124 33.2766C31.0561 33.0494 30.9956 32.8235 30.9474 32.6174L31.061 32.6285C30.9968 32.4606 30.9363 32.2519 30.8783 32.0272C30.8215 31.8013 30.7758 31.5569 30.7301 31.3186C30.6882 31.0791 30.6462 30.847 30.6104 30.642C30.5795 30.4371 30.5536 30.2593 30.5301 30.1346C30.498 29.8445 30.4622 29.5161 30.4363 29.1593C30.4116 28.8025 30.3845 28.4211 30.3499 28.0285C30.3215 27.6346 30.2906 27.2297 30.2437 26.8285C30.198 26.426 30.1536 26.026 30.082 25.642C30.1536 25.3001 30.2388 24.9593 30.3203 24.6198L30.2795 24.4754C30.2795 24.4754 30.0376 24.3902 29.6647 24.2914C29.2919 24.1927 28.7869 24.0815 28.2622 24.0322C27.2129 23.9371 26.0758 24.0976 25.7474 25.2272L25.6363 25.2001L25.6795 25.6334C25.6709 26.1593 25.819 26.389 25.7067 26.363L25.6573 25.6482C25.6721 26.1741 25.582 25.8136 25.503 25.6173C25.5104 25.8371 25.5166 26.0507 25.498 26.2285C25.5487 26.3285 25.5363 26.1482 25.5536 26.0655C25.6166 26.3445 25.7536 26.7272 25.7338 27.0754C25.782 27.6112 25.561 27.1272 25.619 27.7544C25.8943 31.0655 26.3684 34.2717 27.2511 37.5186C27.2277 37.6038 27.2055 37.5161 27.1598 37.4272C27.4635 38.3951 27.6968 39.2655 28.0166 40.1334C28.0462 40.3927 28.003 40.4791 27.9832 40.5655C27.9943 40.5223 28.098 40.8038 28.2561 41.2494C28.3363 41.4717 28.4301 41.7346 28.5326 42.0186C28.5832 42.1606 28.6351 42.3087 28.6882 42.4593C28.7437 42.6087 28.8005 42.7618 28.8561 42.9149C28.9684 43.2211 29.082 43.5285 29.1882 43.8186C29.2993 44.1075 29.403 44.3778 29.4931 44.6124C29.6697 45.0815 29.7968 45.4013 29.8005 45.4223H29.798Z" fill="#073644"/>
</g>
<path d="M45.3744 19.5346C45.3509 19.5556 45.3484 19.5926 45.3447 19.6272C45.3682 19.6 45.3781 19.5716 45.3744 19.5346Z" fill="#073542"/>
<path d="M45.343 19.628H45.3439V19.6271L45.343 19.628Z" fill="#073542"/>
<path d="M46.4099 26.3605C46.4099 26.3519 46.4099 26.342 46.4087 26.3322C46.4087 26.342 46.4087 26.3519 46.4099 26.3605Z" fill="#073542"/>
<path d="M45.2756 21.3087L45.3151 21.3136C45.3151 21.3963 45.2694 21.337 45.2793 21.4136C45.3348 21.4432 45.2731 21.5395 45.3027 21.5667C45.2978 21.5667 45.2966 21.6037 45.2793 21.6012C45.3102 21.6124 45.2867 21.6395 45.2941 21.663C45.3027 21.6716 45.3027 21.6568 45.3126 21.6506L45.3237 21.7049C45.3139 21.7259 45.2966 21.7309 45.2929 21.7086C45.2818 21.8494 45.2534 22.5247 45.2682 22.6766C45.2916 22.6568 45.2756 22.6099 45.3114 22.5926C45.3311 22.6321 45.304 22.6519 45.325 22.6691C45.2719 22.684 45.3126 22.7568 45.2583 22.7877L45.2892 22.7988L45.2706 22.8185C45.3027 22.9951 45.2855 22.8593 45.2793 23.0148C45.2842 23.1049 45.3262 23.1482 45.3102 23.1988C45.3102 23.1914 45.3287 23.1716 45.3373 23.1951C45.3102 23.1988 45.3558 23.258 45.3299 23.2691C45.3336 23.2926 45.3299 23.3667 45.3657 23.3407C45.3472 23.3531 45.3398 23.4198 45.3237 23.3803C45.3237 23.4025 45.3176 23.4247 45.325 23.4407L45.3348 23.4124C45.3398 23.4877 45.3114 23.5296 45.3447 23.5778L45.3595 23.5494C45.362 23.5951 45.3645 23.6321 45.3287 23.6506L45.3176 23.6037C45.3176 23.679 45.3213 23.7235 45.3398 23.7864V23.7642C45.3768 23.8432 45.4064 24.2605 45.4521 24.3333L45.4805 24.3L45.504 24.363C45.504 24.3556 45.4126 24.3321 45.4225 24.3259C45.425 24.4605 45.4472 25.1642 45.4274 25.2889C45.4114 25.3395 45.383 25.2975 45.3781 25.2975C45.3879 25.3593 45.4077 25.3235 45.4052 25.3766C45.4003 25.3914 45.383 25.3741 45.3793 25.3654C45.383 25.3877 45.3731 25.4099 45.3855 25.4111C45.3953 25.3827 45.4299 25.3951 45.4534 25.3827L45.4509 25.4494L45.4287 25.4469C45.4287 25.4617 45.4892 25.4852 45.4768 25.5506C45.4669 25.6617 45.4756 25.7827 45.4694 25.8938C45.4558 25.8926 45.4484 25.8691 45.441 25.8457C45.441 25.8605 45.4435 25.884 45.4348 25.8975C45.4583 25.8704 45.4497 25.9445 45.4595 25.9235C45.5126 26.0049 45.4645 26.1111 45.5003 26.1827C45.5484 26.1889 46.3274 26.337 46.3842 26.337C46.3842 26.3593 46.3818 26.3815 46.3781 26.3889C46.3916 26.3827 46.3978 26.3395 46.3904 26.3161L46.3595 26.3124C46.3484 26.258 46.3781 26.3 46.3756 26.2469C46.4003 26.2445 46.4064 26.2926 46.4089 26.3346C46.4114 26.2963 46.4299 26.258 46.4027 26.242C46.4126 26.2062 46.4336 26.2457 46.4447 26.2025C46.4373 26.1716 46.4126 26.1309 46.4274 26.0951H46.4324C46.4583 26.0099 46.3941 25.963 46.42 25.8852L46.4287 25.8938C46.4435 25.8654 46.4237 25.8111 46.4385 25.7605C46.4336 25.7753 46.4151 25.7877 46.4126 25.7568C46.4287 25.6988 46.4126 25.6593 46.4324 25.6173L46.4077 25.5766C46.4126 25.3753 46.3781 24.579 46.3731 24.3766L46.3768 24.384C46.3645 24.0753 46.3669 23.442 46.3324 23.1235C46.3571 23.0741 46.3509 23.0062 46.3583 22.9543C46.3484 22.9827 46.3311 22.9728 46.3324 22.9506C46.3348 22.7938 46.3151 22.9395 46.3052 22.7815C46.283 22.5988 46.3077 21.9012 46.3287 21.7383C46.2929 21.6519 46.32 21.5432 46.2978 21.4568L46.3064 21.4654C46.2929 21.3741 46.3262 20.8556 46.3139 20.7494L46.3089 20.7642C46.2867 20.6716 46.3262 20.684 46.3385 20.6111C46.299 20.621 46.2756 20.5408 46.2731 20.5111H46.2818C46.2756 20.4667 46.2398 20.363 46.2348 20.2877L46.2571 20.2901C46.2336 20.2272 46.2435 20.1087 46.241 20.063C46.2497 19.9593 46.2879 19.8 46.2595 19.6617L46.3225 19.5728L46.3163 19.5593C46.3163 19.5593 45.562 19.4148 45.4015 19.5975L45.3793 19.5951L45.3818 19.6309C45.3706 19.6741 45.3966 19.6938 45.3744 19.6914L45.3768 19.6321C45.3706 19.6753 45.3583 19.6457 45.346 19.6284C45.3435 19.6469 45.341 19.6642 45.3348 19.679C45.3435 19.6877 45.3435 19.6728 45.3484 19.6654C45.3558 19.6889 45.3768 19.721 45.3669 19.7506C45.3645 19.7951 45.3311 19.7531 45.3287 19.8049C45.3114 20.079 45.2867 20.3457 45.2916 20.6235C45.283 20.6296 45.283 20.6235 45.2793 20.6148C45.2892 20.6988 45.2855 20.7728 45.2953 20.8494C45.2855 20.8704 45.2719 20.8766 45.2632 20.8827C45.2818 20.8704 45.283 21.3037 45.2781 21.3099L45.2756 21.3087Z" fill="#073542"/>
<path d="M69.5881 15.8938C69.5597 15.9 69.5449 15.9259 69.5288 15.9506C69.5584 15.9395 69.577 15.9234 69.5881 15.8938Z" fill="#073542"/>
<path d="M68.2139 21.4222C68.2163 21.4161 68.2188 21.4074 68.2225 21.4C68.2188 21.4074 68.2151 21.4136 68.2139 21.4222Z" fill="#073542"/>
<path d="M68.8968 17.1777L68.9314 17.1975C68.9042 17.2592 68.882 17.1975 68.8647 17.258C68.9054 17.3037 68.8165 17.3506 68.8351 17.3814C68.8314 17.379 68.8165 17.4061 68.8017 17.3975C68.8252 17.4185 68.7956 17.4296 68.7943 17.4493C68.7993 17.4592 68.8042 17.4493 68.8153 17.4469L68.8067 17.4913C68.7906 17.5024 68.7721 17.5 68.777 17.4814C68.719 17.5827 68.4635 18.0753 68.4264 18.1938C68.4536 18.1888 68.456 18.1469 68.4943 18.1493C68.4993 18.1876 68.4684 18.1901 68.4807 18.2123C68.4264 18.2012 68.4388 18.2728 68.3795 18.2728L68.403 18.2938L68.3795 18.3012C68.3486 18.4456 68.3795 18.3382 68.3202 18.4518C68.2943 18.5209 68.3178 18.5703 68.2869 18.6024C68.2894 18.5975 68.3128 18.5901 68.3128 18.6111C68.2869 18.6024 68.3091 18.6654 68.2807 18.6629C68.2758 18.6814 68.2474 18.7358 68.2894 18.7321C68.2684 18.7345 68.2388 18.7802 68.2388 18.7444C68.2301 18.7605 68.2178 18.774 68.2202 18.7901L68.2388 18.7728C68.2178 18.8321 68.1783 18.8506 68.1918 18.9012L68.2141 18.8864C68.2005 18.9209 68.1906 18.9506 68.1511 18.9493L68.1573 18.9098C68.1326 18.9666 68.119 19.0012 68.1153 19.0555L68.1239 19.0395C68.1301 19.1135 68.0153 19.437 68.0314 19.5111L68.0684 19.4975V19.5543C68.0684 19.5543 67.9956 19.4938 68.0067 19.4926C67.9635 19.595 67.7449 20.1284 67.6844 20.2135C67.6536 20.2444 67.6412 20.2024 67.6375 20.2C67.6264 20.2506 67.656 20.2321 67.6351 20.2703C67.6252 20.279 67.6165 20.2592 67.6153 20.2518C67.6104 20.2703 67.5943 20.2814 67.6054 20.2888C67.6239 20.2716 67.6523 20.295 67.677 20.295L67.6511 20.3444L67.6326 20.3333C67.6264 20.3444 67.6746 20.3864 67.6412 20.4308C67.5943 20.5098 67.561 20.6037 67.519 20.6839C67.5079 20.6777 67.5091 20.6567 67.5091 20.6358C67.503 20.6469 67.4993 20.6654 67.4857 20.6716C67.5165 20.6605 67.4844 20.7135 67.5005 20.7012C67.5215 20.7839 67.4412 20.8432 67.4499 20.9123C67.4918 20.937 68.1511 21.3703 68.203 21.3938C68.1943 21.4098 68.1857 21.4259 68.1795 21.4296C68.1931 21.4308 68.2141 21.4012 68.2153 21.3802L68.1881 21.3642C68.1968 21.3197 68.2091 21.3617 68.2252 21.3222C68.2486 21.3308 68.2375 21.3691 68.2252 21.4012C68.2412 21.374 68.2709 21.353 68.2511 21.3296C68.2733 21.3074 68.2783 21.3456 68.3017 21.3172C68.3054 21.2913 68.2968 21.2506 68.3227 21.2296L68.3264 21.2321C68.3795 21.1777 68.3363 21.1172 68.3869 21.0691L68.3918 21.079C68.4141 21.0642 68.4153 21.0148 68.4462 20.9839C68.4363 20.9926 68.4153 20.9938 68.4239 20.9703C68.4585 20.9333 68.4573 20.8975 68.4894 20.874L68.4807 20.8333C68.5536 20.6851 68.7919 20.0753 68.8573 19.9222V19.9296C68.9511 19.6938 69.1684 19.2222 69.2462 18.9691C69.2844 18.9419 69.303 18.8888 69.3264 18.853C69.3079 18.8703 69.2956 18.8555 69.3042 18.8395C69.3598 18.7234 69.2931 18.8247 69.3375 18.7024C69.3795 18.5567 69.64 18.0456 69.7128 17.9333C69.7104 17.853 69.7709 17.7839 69.7795 17.7111L69.7844 17.7209C69.803 17.6469 70.0091 17.274 70.0338 17.1889L70.024 17.1975C70.0351 17.1185 70.0659 17.1444 70.103 17.095C70.0635 17.0851 70.0696 17.0172 70.077 16.9926L70.0844 16.9975C70.0943 16.9605 70.0968 16.8691 70.1178 16.8098L70.1363 16.8209C70.1363 16.7642 70.1857 16.6802 70.198 16.6444C70.2412 16.5703 70.3301 16.4679 70.3511 16.3518L70.4388 16.3111V16.2987C70.4388 16.2987 69.8005 15.879 69.5919 15.9493L69.5733 15.9382L69.5635 15.9666C69.5388 15.995 69.5548 16.0197 69.5363 16.0086L69.5585 15.9654C69.5375 15.995 69.5375 15.9679 69.5326 15.9506C69.5239 15.9629 69.5165 15.9753 69.5054 15.9839C69.5104 15.9938 69.5153 15.9839 69.5227 15.9802C69.5227 16.0012 69.5289 16.0333 69.5104 16.0506C69.4931 16.0827 69.477 16.0382 69.4573 16.0765C69.3486 16.2753 69.2351 16.4629 69.1462 16.6728C69.1363 16.6728 69.1388 16.6679 69.1375 16.6605C69.1178 16.7271 69.0894 16.7814 69.0721 16.8419C69.056 16.8543 69.0412 16.853 69.0314 16.853C69.0523 16.8506 68.9067 17.1753 68.9005 17.179L68.8968 17.1777Z" fill="#073542"/>
<path d="M86.2775 17.0284C86.2565 17.016 86.2479 17.021 86.2393 17.0247C86.2602 17.0358 86.2726 17.037 86.2775 17.0284Z" fill="#073542"/>
<path d="M85.7812 19.0284C85.7812 19.0284 85.7847 19.0232 85.7864 19.0197C85.783 19.0214 85.7812 19.0232 85.7812 19.0284Z" fill="#073542"/>
<path d="M85.8838 17.2914L85.911 17.3198C85.8962 17.3358 85.874 17.2926 85.8678 17.3136C85.9024 17.358 85.8406 17.3333 85.8567 17.3593C85.8542 17.3556 85.8456 17.3617 85.8332 17.3494C85.853 17.3729 85.8308 17.3617 85.8332 17.3716C85.8382 17.379 85.8406 17.3766 85.848 17.3815L85.8456 17.3988C85.8345 17.3963 85.8209 17.384 85.8233 17.3778C85.79 17.3963 85.6468 17.5025 85.6295 17.5408C85.6493 17.5531 85.6468 17.5334 85.6764 17.5556C85.6838 17.5766 85.6604 17.5617 85.6727 17.5803C85.632 17.5457 85.648 17.5877 85.6036 17.5556L85.6233 17.579L85.6061 17.5704C85.5962 17.6247 85.6098 17.5889 85.5764 17.6124C85.5629 17.6321 85.5863 17.6704 85.5653 17.6679C85.5666 17.6679 85.5838 17.6766 85.5851 17.6852C85.5653 17.6679 85.5875 17.7099 85.5666 17.6938C85.5653 17.7 85.5493 17.7124 85.5801 17.7321C85.5653 17.7222 85.5468 17.7284 85.5431 17.7111C85.5382 17.7148 85.5308 17.7148 85.5332 17.7235H85.5456C85.5357 17.7432 85.5073 17.7309 85.5221 17.763L85.5382 17.7679C85.532 17.7778 85.5271 17.7864 85.4974 17.7654V17.7494C85.4851 17.7642 85.4789 17.7741 85.4814 17.7988L85.4863 17.7951C85.4974 17.8346 85.4431 17.9334 85.4629 17.979L85.4888 17.9926L85.4937 18.021C85.4937 18.021 85.4345 17.9519 85.4419 17.9568C85.4196 17.984 85.3073 18.1296 85.2715 18.1408C85.2517 18.1395 85.2382 18.1111 85.2345 18.1087C85.2308 18.1272 85.2505 18.1346 85.2394 18.142C85.2332 18.142 85.2246 18.1259 85.2234 18.1222C85.2221 18.1284 85.211 18.1259 85.2196 18.1358C85.232 18.1371 85.2542 18.1642 85.2727 18.1778L85.2579 18.1877L85.2431 18.1716C85.2431 18.1716 85.2789 18.221 85.2592 18.2247C85.232 18.2383 85.2159 18.2667 85.1925 18.284C85.1838 18.2741 85.1826 18.2642 85.1814 18.2543C85.1777 18.2568 85.1764 18.263 85.1666 18.2593C85.1875 18.2704 85.169 18.279 85.1801 18.2815C85.2036 18.3346 85.1493 18.3198 85.1629 18.358C85.1962 18.3926 85.7283 18.963 85.769 19.0037C85.7641 19.0074 85.7592 19.0111 85.7542 19.0087C85.7653 19.0173 85.7777 19.0136 85.7764 19.0037L85.7554 18.9815C85.7579 18.9642 85.7703 18.9914 85.7789 18.9815C85.7974 18.9988 85.7925 19.0111 85.7863 19.021C85.795 19.0161 85.8159 19.021 85.7987 19C85.8122 19 85.8196 19.0222 85.8357 19.021C85.8357 19.0099 85.8258 18.9852 85.8431 18.9889L85.8456 18.9926C85.8801 18.9951 85.8419 18.942 85.8752 18.9445L85.8801 18.9519C85.8962 18.9568 85.8913 18.9334 85.9122 18.9346C85.9061 18.9346 85.8913 18.9235 85.8937 18.9161C85.9159 18.9161 85.911 18.8975 85.9332 18.9037L85.9233 18.879C85.9629 18.8445 86.0826 18.6716 86.1172 18.6309V18.6346C86.1653 18.5679 86.2826 18.4519 86.3159 18.3679C86.3419 18.3753 86.3505 18.3593 86.3653 18.3543C86.353 18.3531 86.3419 18.3383 86.3468 18.3358C86.3777 18.3087 86.3369 18.3222 86.3579 18.2852C86.3752 18.2358 86.5196 18.1222 86.5641 18.1074C86.5542 18.0667 86.5937 18.0642 86.5925 18.0334L86.5974 18.0408C86.6048 18.0148 86.7221 17.9408 86.732 17.9124H86.7258C86.7258 17.879 86.753 17.9087 86.774 17.9025C86.7431 17.8766 86.7419 17.8457 86.7456 17.8383L86.7517 17.8445C86.7554 17.8309 86.7493 17.7877 86.7592 17.7704L86.774 17.7864C86.769 17.758 86.7974 17.7432 86.8036 17.7334C86.8295 17.7198 86.8851 17.7173 86.89 17.6716L86.9505 17.6988L86.948 17.6926C86.948 17.6926 86.4332 17.1408 86.2851 17.063L86.2703 17.0469L86.2653 17.0556C86.2493 17.0556 86.2653 17.0778 86.2493 17.0617L86.2616 17.0531C86.2493 17.0568 86.2468 17.0432 86.2406 17.0309C86.2357 17.0334 86.2308 17.0346 86.2233 17.0321C86.2283 17.0395 86.2308 17.0371 86.2357 17.0395C86.2369 17.0494 86.2456 17.0692 86.2332 17.0679C86.2233 17.0753 86.2073 17.0432 86.1962 17.0519C86.1345 17.0914 86.0678 17.1235 86.0209 17.179C86.0135 17.1741 86.0147 17.1729 86.0135 17.1679C86.0048 17.1901 85.9888 17.2013 85.9826 17.2222C85.9715 17.2198 85.9616 17.2111 85.953 17.2062C85.9678 17.2161 85.8913 17.2988 85.8863 17.2963L85.8838 17.2914Z" fill="#073542"/>
<path d="M54.9021 5.5061C54.8799 5.51598 54.8787 5.52709 54.8774 5.5382C54.8984 5.52709 54.9071 5.51598 54.9021 5.5061Z" fill="#073542"/>
<path d="M56.2606 7.34442C56.2606 7.34442 56.2578 7.33881 56.2578 7.33459C56.2578 7.3374 56.2578 7.34162 56.2606 7.34442Z" fill="#073542"/>
<path d="M54.8911 6.04442L54.9306 6.03948C54.9355 6.06417 54.8874 6.0543 54.9009 6.07528C54.9577 6.07528 54.9009 6.11355 54.9318 6.11602C54.9269 6.11602 54.9281 6.12837 54.9108 6.1296C54.9417 6.12837 54.9195 6.13948 54.9281 6.14565C54.9367 6.14565 54.9367 6.14195 54.9454 6.13948L54.959 6.15306C54.9503 6.16047 54.933 6.16541 54.9281 6.15923C54.9244 6.20244 54.9281 6.40615 54.9516 6.44812C54.9738 6.43824 54.9553 6.42713 54.9898 6.41602C55.0121 6.42467 54.9861 6.43454 55.0071 6.43578C54.9553 6.44936 54.9985 6.46417 54.9466 6.48146H54.9775L54.9602 6.48886C54.9997 6.53578 54.9775 6.49874 54.9775 6.54565C54.9861 6.57158 55.0306 6.57775 55.017 6.59504C55.017 6.59257 55.0343 6.58392 55.0429 6.58886C55.017 6.59503 55.0651 6.60368 55.0392 6.61232C55.0442 6.61849 55.0442 6.64071 55.0787 6.62713C55.0614 6.63331 55.0577 6.65429 55.0405 6.64565C55.0405 6.65183 55.0367 6.65923 55.0454 6.66294L55.054 6.65306C55.0627 6.67405 55.0368 6.69133 55.0726 6.69997L55.0849 6.68886C55.0898 6.70121 55.0935 6.71232 55.059 6.72343L55.0454 6.71108C55.0503 6.73331 55.054 6.74565 55.0763 6.76047V6.7543C55.1158 6.77158 55.1651 6.88886 55.2133 6.90368L55.2392 6.88886L55.2651 6.90368C55.2651 6.90368 55.1738 6.90985 55.1824 6.90615C55.1911 6.94565 55.2479 7.14812 55.2355 7.18886C55.2232 7.20615 55.1923 7.19874 55.1874 7.19997C55.2009 7.21602 55.2182 7.20244 55.2182 7.21849C55.2145 7.22343 55.196 7.22096 55.1923 7.21849C55.1972 7.22467 55.1886 7.23207 55.2009 7.23084C55.2096 7.22096 55.2442 7.21849 55.2664 7.21109V7.23084L55.2454 7.23331C55.2454 7.23824 55.3059 7.23331 55.2985 7.25553C55.2948 7.2901 55.3084 7.32343 55.3084 7.358C55.2948 7.35923 55.2861 7.3543 55.2775 7.34812C55.2775 7.35306 55.2824 7.35923 55.2738 7.36417C55.2948 7.35182 55.2911 7.37528 55.2997 7.36787C55.3565 7.38269 55.3133 7.4222 55.3528 7.43701C55.4009 7.43084 56.1763 7.34565 56.233 7.33578C56.233 7.34195 56.233 7.34936 56.2293 7.35183C56.2417 7.34812 56.2466 7.33331 56.238 7.32837L56.2071 7.33207C56.1935 7.31849 56.2244 7.3259 56.2195 7.30985C56.2442 7.30491 56.2516 7.31849 56.2565 7.33084C56.2565 7.31849 56.2738 7.30491 56.2454 7.30491C56.254 7.29257 56.2763 7.30121 56.2837 7.28639C56.275 7.27899 56.2491 7.27034 56.2614 7.258H56.2664C56.2874 7.22713 56.2219 7.22467 56.2442 7.1975H56.2528C56.2651 7.18763 56.2442 7.17528 56.2565 7.158C56.2528 7.16294 56.2355 7.17034 56.2306 7.1617C56.2429 7.14195 56.2256 7.13331 56.2429 7.11726L56.217 7.10985C56.2121 7.04936 56.138 6.82096 56.1244 6.76294H56.1281C56.1009 6.67652 56.0713 6.48886 56.0219 6.40121C56.0429 6.38269 56.0343 6.36417 56.038 6.34689C56.0293 6.35676 56.0121 6.35676 56.0121 6.35059C56.0071 6.30368 55.9948 6.35059 55.9775 6.30491C55.9466 6.25553 55.9367 6.04565 55.9491 5.9938C55.9096 5.97405 55.9306 5.93825 55.9047 5.91602H55.9133C55.896 5.89257 55.9022 5.73454 55.8849 5.70491L55.88 5.70985C55.854 5.68639 55.8923 5.68393 55.9009 5.66047C55.8614 5.67034 55.8355 5.65059 55.8306 5.64195H55.8392C55.8306 5.62837 55.7911 5.60368 55.7824 5.58269L55.8047 5.58022C55.7787 5.56541 55.7824 5.5296 55.7775 5.51602C55.7812 5.48392 55.8108 5.43084 55.775 5.39503L55.8318 5.358L55.8256 5.35553C55.8256 5.35553 55.075 5.43824 54.9256 5.51849L54.9034 5.52096L54.9084 5.53084C54.8997 5.54565 54.9256 5.54689 54.9046 5.54936V5.53084C54.8997 5.54442 54.8874 5.53825 54.8738 5.53454C54.8738 5.54071 54.8713 5.54565 54.8651 5.55183C54.8738 5.55183 54.8738 5.54812 54.8775 5.54565C54.8861 5.55183 54.9084 5.558 54.8997 5.56788C54.8997 5.58146 54.8651 5.57405 54.8651 5.5901C54.8614 5.67405 54.8503 5.75676 54.8688 5.83701C54.8602 5.84071 54.8602 5.83701 54.8553 5.83701C54.8689 5.86047 54.8688 5.88269 54.8824 5.90368C54.8738 5.91109 54.8614 5.91602 54.8516 5.91849C54.8688 5.91232 54.8923 6.03948 54.8874 6.04195L54.8911 6.04442Z" fill="#073542"/>
<path d="M78.6554 37.3481C78.6295 37.3358 78.6048 37.3481 78.5801 37.3567C78.6085 37.3666 78.6319 37.3642 78.6554 37.3481Z" fill="#073542"/>
<path d="M74.7402 40.796C74.7402 40.796 74.7511 40.7888 74.7571 40.7839C74.7511 40.7864 74.7451 40.79 74.7402 40.796Z" fill="#073542"/>
<path d="M77.4539 37.9258L77.47 37.9616C77.4169 37.9925 77.4317 37.932 77.3872 37.9678C77.3959 38.0271 77.3021 38.0098 77.2996 38.0456C77.2984 38.0419 77.2724 38.0542 77.265 38.0382C77.2724 38.069 77.244 38.0592 77.2317 38.074C77.2305 38.0839 77.2403 38.0789 77.249 38.0851L77.2193 38.1147C77.2008 38.1147 77.1885 38.1011 77.2021 38.0888C77.1058 38.132 76.6527 38.3592 76.5613 38.4283C76.586 38.4407 76.6082 38.4098 76.6379 38.4345C76.6218 38.4666 76.5959 38.4505 76.5946 38.4752C76.5576 38.4345 76.5317 38.4974 76.4848 38.4616L76.4922 38.4925L76.47 38.4839C76.3712 38.5777 76.4514 38.5123 76.3465 38.5641C76.2897 38.6024 76.2835 38.6542 76.2428 38.6604C76.2477 38.6579 76.27 38.6666 76.2588 38.6814C76.2428 38.6604 76.228 38.7209 76.207 38.7024C76.1934 38.7135 76.144 38.7382 76.1786 38.7604C76.1613 38.7493 76.1144 38.7678 76.1329 38.7394C76.1181 38.7468 76.1008 38.7505 76.0946 38.7629L76.1181 38.7604C76.0712 38.7937 76.0305 38.7839 76.0156 38.8308L76.0416 38.8332C76.0132 38.8518 75.9897 38.8691 75.9613 38.8444L75.986 38.8172C75.9379 38.8456 75.9095 38.8653 75.8786 38.9049L75.8934 38.8974C75.8601 38.9579 75.6045 39.1394 75.5798 39.2061L75.6156 39.2172L75.586 39.2616C75.586 39.2616 75.5601 39.1715 75.5687 39.1777C75.4823 39.2308 75.0366 39.5123 74.9465 39.5419C74.9058 39.5468 74.9181 39.5073 74.9169 39.5024C74.8823 39.5345 74.9144 39.5382 74.8798 39.5555C74.8675 39.5555 74.8712 39.5357 74.8737 39.5283C74.8601 39.5394 74.8416 39.5394 74.8477 39.5518C74.8712 39.5493 74.8811 39.5839 74.8996 39.5999L74.8551 39.6221L74.8465 39.6024C74.8366 39.6073 74.8514 39.669 74.8033 39.6826C74.7267 39.716 74.6514 39.7678 74.5774 39.8049C74.5724 39.7925 74.5835 39.7777 74.5946 39.7616C74.5848 39.7666 74.5712 39.7777 74.5576 39.7752C74.5872 39.7851 74.5354 39.8061 74.5539 39.8073C74.528 39.8839 74.4342 39.8814 74.4058 39.9394C74.4255 39.9839 74.7181 40.7147 74.7465 40.7641C74.7317 40.7715 74.7169 40.7789 74.7095 40.7777C74.7193 40.7876 74.7514 40.7765 74.7626 40.7604L74.7502 40.732C74.7798 40.7024 74.7675 40.7431 74.8008 40.7221C74.8156 40.7431 74.786 40.7653 74.7601 40.7839C74.786 40.7715 74.8206 40.774 74.8169 40.7444C74.8453 40.7394 74.8292 40.7728 74.8626 40.7653C74.8786 40.7468 74.8934 40.711 74.923 40.711V40.7147C74.9934 40.7049 74.9922 40.632 75.0551 40.6246V40.6345C75.0786 40.637 75.1045 40.5987 75.1453 40.5937C75.1329 40.5937 75.1169 40.5839 75.1342 40.5703C75.1798 40.5629 75.1971 40.5345 75.2342 40.5345L75.2477 40.4974C75.3811 40.4258 75.8798 40.0987 76.0095 40.0197L76.0058 40.0258C76.1996 39.8999 76.6119 39.6653 76.8021 39.5172C76.8465 39.5197 76.8872 39.49 76.9243 39.4765C76.9008 39.4789 76.8984 39.4604 76.9132 39.4518C77.0169 39.3962 76.9119 39.4332 77.0095 39.3653C77.1169 39.2777 77.5823 39.0394 77.6984 38.9962C77.7366 38.9332 77.8206 38.916 77.865 38.8641V38.8752C77.9169 38.8295 78.2687 38.6641 78.3317 38.6135H78.3193C78.3687 38.5604 78.3798 38.5987 78.4329 38.5826C78.407 38.5518 78.4465 38.5024 78.465 38.4876L78.4687 38.495C78.4946 38.4715 78.5453 38.4036 78.591 38.3703L78.5996 38.39C78.6292 38.3456 78.7107 38.3098 78.7391 38.2913C78.8107 38.2604 78.9329 38.2332 79.0095 38.1567L79.0984 38.1777L79.1033 38.1678C79.1033 38.1678 78.8206 37.4604 78.6218 37.39L78.6132 37.3703L78.591 37.3863C78.5576 37.3937 78.5576 37.4221 78.5477 37.4024L78.5872 37.3826C78.5564 37.3937 78.57 37.3715 78.5749 37.3555C78.5626 37.3604 78.549 37.3653 78.5366 37.3641C78.5354 37.374 78.5453 37.369 78.5514 37.3715C78.5403 37.3863 78.5292 37.4172 78.5058 37.4184C78.4761 37.4332 78.486 37.3888 78.4514 37.4061C78.265 37.4937 78.0798 37.5715 77.9021 37.6789C77.8934 37.674 77.8984 37.6703 77.9021 37.6641C77.8527 37.7036 77.8021 37.7283 77.7576 37.7653C77.7391 37.7653 77.728 37.7555 77.7193 37.7493C77.7366 37.7604 77.4564 37.9234 77.449 37.9221L77.4539 37.9258Z" fill="#073542"/>
<path d="M82.0408 60.4272C82.0346 60.4037 82.026 60.4012 82.0161 60.3975C82.0235 60.4197 82.0309 60.4309 82.0408 60.4272Z" fill="#073542"/>
<path d="M80.2197 61.4644C80.2197 61.4644 80.2255 61.4644 80.2283 61.463C80.2255 61.463 80.2226 61.463 80.2197 61.4644Z" fill="#073542"/>
<path d="M81.5667 60.3284V60.3679C81.5433 60.3679 81.5593 60.3223 81.5384 60.3321C81.5309 60.3877 81.505 60.326 81.4976 60.3556C81.4976 60.3507 81.4877 60.3494 81.489 60.3321C81.4865 60.363 81.4791 60.3395 81.4729 60.347C81.4705 60.3556 81.4742 60.3556 81.4766 60.3655L81.4618 60.3766C81.4556 60.3667 81.4544 60.3494 81.4618 60.3457C81.4248 60.3346 81.2445 60.3062 81.2038 60.321C81.2087 60.3445 81.2211 60.3284 81.226 60.3642C81.2149 60.384 81.21 60.3568 81.205 60.3778C81.2013 60.3247 81.1816 60.3655 81.1729 60.3112L81.1705 60.342L81.1655 60.3235C81.1186 60.3556 81.1544 60.3383 81.1137 60.3321C81.089 60.3371 81.0779 60.3791 81.0643 60.363C81.0667 60.363 81.0717 60.3815 81.0643 60.3902C81.0643 60.363 81.0482 60.4087 81.0445 60.3828C81.0384 60.3865 81.0186 60.3828 81.0248 60.4186C81.0211 60.4 81.0038 60.3926 81.0137 60.3766C81.0075 60.3766 81.0013 60.3704 80.9976 60.3778L81.005 60.3877C80.9853 60.3926 80.9742 60.3642 80.9606 60.3976L80.968 60.4124C80.9556 60.4149 80.9458 60.4173 80.9408 60.3815L80.9532 60.3704C80.9334 60.3704 80.9211 60.3741 80.905 60.3926H80.9112C80.8902 60.4297 80.7791 60.4593 80.7593 60.505L80.768 60.5334L80.7507 60.5568C80.7507 60.5568 80.7593 60.4655 80.7606 60.4753C80.7248 60.4778 80.5371 60.5 80.5038 60.4803C80.4902 60.4642 80.5013 60.4358 80.5013 60.4309C80.4853 60.4408 80.4939 60.4605 80.4803 60.4581C80.4766 60.4531 80.4803 60.4358 80.4828 60.4321C80.4766 60.4358 80.4705 60.426 80.4705 60.4383C80.4779 60.4482 80.4754 60.4828 80.4779 60.5062L80.4593 60.5037V60.4815C80.4593 60.4815 80.4495 60.542 80.4322 60.5297C80.4026 60.5198 80.3705 60.5284 80.3408 60.5223C80.3408 60.5087 80.347 60.5013 80.3544 60.4939C80.3507 60.4939 80.3445 60.4963 80.3408 60.4877C80.3482 60.5112 80.3285 60.5038 80.3334 60.5124C80.3112 60.5655 80.2828 60.5173 80.2643 60.5531C80.263 60.6013 80.2235 61.3803 80.2235 61.4371C80.2174 61.4371 80.2112 61.4346 80.21 61.4309C80.2112 61.4445 80.2235 61.4507 80.2297 61.4433V61.4124C80.2445 61.4013 80.2347 61.4309 80.2482 61.4284C80.2482 61.4531 80.2359 61.4593 80.2248 61.4618C80.2347 61.4642 80.2458 61.4828 80.2495 61.4556C80.2593 61.4655 80.2495 61.4865 80.2593 61.4976C80.268 61.4902 80.2779 61.4655 80.2877 61.4803V61.4852C80.3112 61.5112 80.3223 61.447 80.3433 61.4729L80.3408 61.4815C80.3482 61.4963 80.363 61.4766 80.3766 61.4926C80.3729 61.4877 80.3692 61.4692 80.3766 61.4667C80.3914 61.4828 80.4025 61.4667 80.4137 61.4865L80.4248 61.4618C80.4791 61.4667 80.6902 61.4321 80.7445 61.4272L80.7421 61.4309C80.8248 61.4186 80.9927 61.421 81.0779 61.3865C81.0914 61.4112 81.1087 61.405 81.1223 61.4112C81.1149 61.4013 81.1174 61.384 81.1223 61.3852C81.1643 61.3877 81.1248 61.3679 81.168 61.3581C81.2161 61.3358 81.4026 61.3618 81.4458 61.3815C81.4692 61.3457 81.4976 61.3729 81.5211 61.3507L81.5186 61.3593C81.5433 61.3457 81.6816 61.3791 81.71 61.3667L81.7063 61.3618C81.7309 61.3396 81.7272 61.3791 81.747 61.3914C81.7445 61.3519 81.7655 61.3284 81.7742 61.326V61.3346C81.7865 61.3284 81.8137 61.2926 81.8334 61.2877V61.3099C81.8495 61.2865 81.8816 61.2963 81.8927 61.2939C81.9198 61.3025 81.963 61.3408 82.0001 61.3124L82.0235 61.3754L82.0272 61.3692C82.0272 61.3692 82.0655 60.6149 82.0174 60.4544V60.4321L82.0087 60.4346C81.9976 60.4235 81.9914 60.4494 81.9927 60.4272L82.0087 60.4297C81.9976 60.4235 82.005 60.4112 82.0087 60.3988C82.0038 60.3963 81.9988 60.3939 81.9951 60.3877C81.9927 60.3963 81.9964 60.3963 81.9988 60.4013C81.9927 60.4087 81.984 60.4297 81.9766 60.4198C81.9643 60.4173 81.9766 60.384 81.9618 60.3815C81.889 60.3642 81.8174 60.3395 81.7433 60.3445C81.7421 60.3358 81.7433 60.3358 81.7458 60.3321C81.7235 60.342 81.7038 60.3383 81.6828 60.3482C81.6766 60.3383 81.6754 60.3247 81.6742 60.3161C81.6779 60.3346 81.5618 60.3358 81.5606 60.3309L81.5667 60.3284Z" fill="#073542"/>
<path d="M55.5572 10.1975C55.5485 10.2987 55.5732 10.4666 55.5942 10.6271C55.5979 10.5012 55.5868 10.3691 55.5572 10.1975Z" fill="#073542"/>
<path d="M49.4487 41.0445C49.4722 41.0087 49.4981 40.9679 49.524 40.9272C49.4981 40.9655 49.4722 41.005 49.4487 41.0445Z" fill="#073542"/>
<path d="M55.9016 18.3938L55.9399 18.421C55.9189 18.8025 55.8905 18.5296 55.8782 18.8815C55.9214 19.0234 55.8189 19.4654 55.8374 19.5889C55.8337 19.5852 55.8164 19.758 55.7992 19.7457C55.8251 19.8012 55.7905 19.9234 55.7881 20.0333C55.793 20.0741 55.7992 20.0049 55.8115 19.9765L55.7992 20.2271C55.7769 20.3234 55.756 20.3444 55.7671 20.2395C55.7448 20.4012 55.7004 20.716 55.6461 21.1099C55.5979 21.5037 55.5164 21.9716 55.4362 22.442C55.3634 22.9136 55.2634 23.3815 55.1868 23.7765C55.114 24.1728 55.0411 24.4926 55.0053 24.6654C55.0473 24.5815 55.0807 24.3667 55.1337 24.2938C55.1127 24.4802 55.0671 24.5605 55.0695 24.6444C55.0016 24.7025 54.9671 25.0407 54.8831 25.1667L54.9004 25.2259L54.8621 25.3123C54.7016 26.116 54.8337 25.4975 54.6498 26.2C54.551 26.6086 54.5424 26.8136 54.4621 27.0333C54.472 27 54.5152 26.916 54.493 27.0222C54.4621 27.0333 54.4325 27.3062 54.3918 27.3506C54.3658 27.4543 54.2683 27.7864 54.335 27.6839C54.3016 27.7358 54.2103 28.0308 54.2448 27.8494C54.2165 27.9494 54.1806 28.0444 54.1658 28.1185L54.2152 27.9938C54.1152 28.3309 54.0313 28.5062 53.9942 28.7346L54.0473 28.6148C53.9868 28.816 53.9374 28.9852 53.8782 29.0531L53.9325 28.8432C53.8325 29.1778 53.7621 29.3753 53.6881 29.658L53.7226 29.5605C53.6794 29.742 53.5152 30.295 53.33 30.8395C53.1547 31.3864 52.9572 31.9234 52.9177 32.0913L53.0004 31.9543L52.9152 32.237C52.9276 32.2049 52.8819 32.0716 52.9016 32.0469C52.8732 32.121 52.83 32.2321 52.7757 32.3741C52.7189 32.5136 52.6498 32.6827 52.5732 32.8704C52.4239 33.2469 52.2313 33.695 52.0362 34.1395C51.6448 35.0284 51.2239 35.8975 51.0844 36.1543C50.9646 36.3568 51.0251 36.1728 51.0226 36.1679C50.9041 36.4271 50.9942 36.2913 50.8831 36.5074C50.8485 36.5642 50.8695 36.4852 50.8831 36.4506C50.8387 36.5469 50.7856 36.6309 50.793 36.6444C50.8621 36.5296 50.8671 36.5963 50.9127 36.5555L50.7683 36.8333L50.7547 36.8111C50.7214 36.8728 50.7263 36.9951 50.5732 37.2617C50.3251 37.7173 50.0597 38.2136 49.7979 38.6642C49.7905 38.6506 49.8374 38.5518 49.8844 38.4518C49.8498 38.5123 49.8004 38.6062 49.7609 38.658C49.8436 38.5605 49.6658 38.8555 49.7226 38.7741C49.5782 39.1309 49.2856 39.5321 49.1387 39.8358C49.151 39.8605 49.2337 40.1234 49.3127 40.3852C49.3942 40.6469 49.4695 40.9111 49.4942 40.9271C49.4337 41.0173 49.3732 41.1074 49.3473 41.1358C49.3782 41.1148 49.5004 40.942 49.556 40.842L49.5411 40.8086C49.672 40.5852 49.5893 40.7679 49.7226 40.5531C49.751 40.5555 49.6325 40.7543 49.5214 40.9284C49.6251 40.7753 49.7387 40.6296 49.7547 40.5518C49.856 40.4111 49.772 40.5852 49.8905 40.4136C49.9621 40.2839 50.0436 40.1062 50.1424 39.9679L50.1448 39.9728C50.3806 39.6321 50.4325 39.4099 50.6424 39.0975L50.63 39.137C50.7078 39.0284 50.8189 38.7901 50.9498 38.5889C50.9115 38.6457 50.8671 38.6889 50.935 38.5617C51.0806 38.3271 51.156 38.1543 51.2695 37.9864L51.3387 37.8037C51.5671 37.3815 52.1029 36.3234 52.5905 35.242C52.8387 34.7037 53.0683 34.1568 53.2646 33.6913C53.4535 33.2234 53.614 32.8383 53.6992 32.6136L53.6893 32.6506C53.951 31.9654 54.3547 30.9222 54.6992 29.8518C54.7436 29.7185 54.7881 29.5852 54.8325 29.4518C54.8732 29.3173 54.914 29.1839 54.9547 29.0531C55.035 28.7889 55.114 28.5296 55.1881 28.2827C55.3251 27.7827 55.4498 27.3271 55.5424 26.9605C55.6239 26.7395 55.6979 26.4247 55.7646 26.1889C55.7214 26.3185 55.7165 26.2691 55.7436 26.1667C55.9276 25.4444 55.7473 26.116 55.9053 25.379C55.9461 25.1654 56.0288 24.8049 56.1214 24.3704C56.2029 23.9321 56.3127 23.4234 56.4016 22.9136C56.4448 22.658 56.4868 22.4037 56.5288 22.1605C56.5708 21.916 56.6115 21.6827 56.6374 21.4679C56.6992 21.0383 56.7485 20.6901 56.7757 20.4988C56.7893 20.0839 56.8547 19.5704 56.872 19.1654L56.8769 19.2062C56.9004 18.9889 56.935 18.2642 56.9819 17.5309C56.9955 17.1642 57.0004 16.7938 57.0066 16.4839C57.0127 16.1741 57.0165 15.9247 57.0066 15.7988L57.0029 15.8667C56.9695 15.4247 57.0103 15.4852 57.014 15.1358C56.9757 15.1827 56.9424 14.8049 56.9362 14.6605L56.9448 14.6654C56.9374 14.4481 56.8597 13.958 56.8337 13.6L56.856 13.6123C56.8337 13.4642 56.8164 13.2481 56.8016 13.0444C56.7831 12.8395 56.7597 12.6469 56.7473 12.5395C56.7263 12.2938 56.7004 11.9815 56.672 11.6481C56.6597 11.4815 56.6325 11.3111 56.6066 11.142C56.5794 10.9728 56.5498 10.8037 56.5164 10.642L56.5115 10.2111L56.4955 10.1506C56.4955 10.1506 56.2831 10.0136 56.0683 9.99011C55.8522 9.96665 55.6362 10.0543 55.6226 10.4864L55.5992 10.4765L55.6276 10.642C55.6486 10.842 55.6881 10.9309 55.6646 10.9197L55.6239 10.6469C55.6485 10.8469 55.6152 10.7099 55.5918 10.6358C55.6029 10.7197 55.6127 10.8012 55.6164 10.8679C55.6313 10.9062 55.6214 10.837 55.6202 10.8062C55.6448 10.9123 55.6881 11.058 55.6992 11.1913C55.73 11.3963 55.6658 11.2099 55.7016 11.4481C55.7461 11.7629 55.7658 12.0778 55.7992 12.3913L55.8448 12.8605L55.8671 13.095L55.8794 13.3296C55.9115 13.9568 55.9609 14.5839 55.9671 15.2271C55.9584 15.2568 55.9584 15.2222 55.9535 15.1852C55.9609 15.379 55.9683 15.5617 55.9745 15.7395C55.9769 15.8284 55.9806 15.9173 55.9831 16.0049C55.9831 16.0926 55.9831 16.1802 55.9831 16.2691C55.972 16.3667 55.9584 16.3938 55.9485 16.4222C55.9584 16.3926 55.9547 16.8802 55.9485 17.3778C55.9399 17.6271 55.9239 17.8778 55.914 18.0691C55.9029 18.2605 55.8955 18.3913 55.8942 18.4L55.9016 18.3938Z" fill="#073542"/>
<path d="M77.126 50.2296C77.0729 50.2135 76.9877 50.2247 76.9062 50.2333C76.9717 50.2469 77.0396 50.2456 77.126 50.2296Z" fill="#073542"/>
<path d="M63.2402 57.358C63.2538 57.3457 63.2686 57.3308 63.2847 57.3173C63.2686 57.3308 63.2513 57.3444 63.2402 57.358Z" fill="#073542"/>
<path d="M73.001 50.9777V51.0185C72.8121 51.0703 72.9331 50.9901 72.7615 51.0481C72.7096 51.1222 72.4701 51.1197 72.4207 51.1703C72.4207 51.1654 72.3368 51.1913 72.3368 51.174C72.3207 51.2111 72.2528 51.2098 72.2022 51.2345C72.1862 51.2493 72.2195 51.2382 72.2355 51.2419L72.1182 51.2925C72.0676 51.2987 72.0516 51.2864 72.101 51.2654C71.9417 51.3135 71.48 51.4543 71.0182 51.6074C70.5627 51.7777 70.1059 51.9518 69.9417 52.0246C69.9936 52.0296 70.0911 51.974 70.1429 51.9925C70.0627 52.0456 70.0108 52.037 69.98 52.0716C69.9257 52.037 69.78 52.132 69.6948 52.1148L69.6812 52.1543L69.6306 52.1567C69.2627 52.3555 69.5491 52.2098 69.2096 52.353C69.0158 52.4444 68.9405 52.5234 68.8257 52.558C68.8417 52.5506 68.8923 52.5493 68.8454 52.5777C68.8257 52.558 68.7195 52.6555 68.6824 52.6419C68.6331 52.6654 68.4738 52.7382 68.5429 52.7456C68.5084 52.7419 68.3652 52.8049 68.4417 52.7493C68.3936 52.7716 68.3454 52.7901 68.3158 52.8135L68.3812 52.7925C68.2244 52.8765 68.1244 52.895 68.0355 52.9765L68.101 52.9604C68.0071 53.0098 67.9281 53.0518 67.875 53.0382L67.9676 52.979C67.8096 53.0592 67.7145 53.1086 67.5923 53.1913L67.6392 53.1691C67.5615 53.2234 67.3121 53.3777 67.0676 53.5333C66.822 53.6888 66.5787 53.8432 66.5145 53.9049L66.5973 53.8901C66.5578 53.9197 66.5195 53.9518 66.4812 53.9839C66.496 53.9753 66.4973 53.8679 66.5145 53.8691C66.3787 53.9518 65.959 54.2111 65.5417 54.4666C65.1306 54.7345 64.7244 54.9987 64.5997 55.0802C64.4936 55.1345 64.5565 55.0555 64.5553 55.0518C64.4429 55.1432 64.5207 55.1123 64.4182 55.1802C64.3874 55.195 64.4108 55.158 64.4244 55.1444C64.3824 55.1777 64.3355 55.1987 64.3392 55.2111C64.401 55.1814 64.3973 55.2259 64.4331 55.2283L64.3022 55.316L64.2948 55.2938C64.2664 55.3135 64.2553 55.3925 64.1232 55.474C63.9084 55.6234 63.6812 55.7925 63.4713 55.953C63.4664 55.9407 63.5059 55.9 63.5442 55.8592C63.5158 55.8802 63.475 55.916 63.4442 55.9296C63.5084 55.9086 63.3664 56.0098 63.4121 55.9876C63.2923 56.1469 63.0664 56.2654 62.959 56.4037C62.9664 56.4283 63.0331 56.6432 63.0997 56.858C63.1689 57.0728 63.2454 57.2827 63.2652 57.3049C63.2257 57.337 63.196 57.3641 63.1812 57.3703C63.1985 57.3728 63.2689 57.3185 63.3047 57.2777L63.2911 57.2493C63.3738 57.1629 63.3244 57.2444 63.4108 57.1666C63.4318 57.1814 63.3553 57.2555 63.2861 57.3185C63.3516 57.2654 63.4269 57.2246 63.4355 57.1814C63.5047 57.1382 63.4479 57.2111 63.5306 57.1567C63.5787 57.1074 63.6331 57.0308 63.7047 56.9913V56.9962C63.8726 56.8938 63.917 56.7827 64.0713 56.6913L64.0615 56.7098C64.1195 56.6827 64.2047 56.5901 64.3071 56.5358C64.2775 56.5506 64.2442 56.553 64.2973 56.5098C64.4121 56.4444 64.475 56.379 64.5627 56.3382L64.622 56.2641C64.7133 56.195 64.8775 56.0839 65.0738 55.9432C65.1726 55.874 65.2787 55.7975 65.3898 55.7185C65.5034 55.6432 65.6207 55.5641 65.7392 55.4851C65.8565 55.4061 65.975 55.3271 66.0886 55.2518C66.2034 55.1777 66.3158 55.1098 66.4182 55.0456C66.6244 54.9185 66.7936 54.8135 66.8923 54.753L66.8787 54.7654C67.0269 54.6703 67.2232 54.5679 67.4368 54.4456C67.5442 54.3851 67.6565 54.3234 67.7713 54.2592C67.8849 54.1938 68.0034 54.1296 68.1244 54.0703C68.6047 53.8259 69.0849 53.5716 69.4133 53.4172C69.5257 53.3938 69.6652 53.3259 69.775 53.2839C69.7108 53.3012 69.7244 53.2765 69.7713 53.2567C70.0985 53.1135 69.7861 53.232 70.1133 53.0753C70.301 52.9839 70.7713 52.8061 71.2355 52.6296C71.4664 52.537 71.7059 52.474 71.9034 52.4098C72.1022 52.3481 72.2639 52.2999 72.3528 52.2765C72.5306 52.1814 72.7713 52.1209 72.954 52.053L72.938 52.0666C73.0368 52.032 73.3738 51.9444 73.7145 51.8555C73.8849 51.8111 74.0553 51.7654 74.1997 51.7283C74.3442 51.6975 74.4615 51.6728 74.5195 51.6567L74.4862 51.6592C74.6874 51.5925 74.6689 51.637 74.8343 51.6135C74.8047 51.579 74.9763 51.5185 75.0442 51.5012V51.5098C75.1442 51.4814 75.3689 51.3975 75.5368 51.3555L75.5343 51.379C75.6689 51.3197 75.9405 51.2938 76.0417 51.274C76.2775 51.2469 76.6429 51.2296 76.9516 51.1518L77.1615 51.1827L77.1898 51.1716C77.1898 51.1716 77.2479 50.9716 77.2528 50.7604C77.2578 50.5493 77.2084 50.3246 76.9849 50.279L76.9886 50.2567L76.9047 50.2728C76.8022 50.2777 76.759 50.3098 76.7627 50.2876L76.9022 50.2691C76.7997 50.279 76.8689 50.2555 76.9059 50.2382C76.8627 50.2432 76.8219 50.2469 76.7874 50.2444C76.7689 50.2555 76.8034 50.2506 76.8195 50.253C76.7652 50.2691 76.6923 50.3012 76.6244 50.3012C76.5195 50.3148 76.6121 50.2666 76.4911 50.2839C76.1689 50.3246 75.8503 50.3642 75.5331 50.4049C75.2182 50.4642 74.9022 50.5271 74.5812 50.5987C74.5652 50.5925 74.5812 50.5901 74.5997 50.5814C74.4084 50.6321 74.2355 50.6666 74.0615 50.7135C74.0096 50.7135 73.9936 50.7049 73.9775 50.6987C73.9936 50.7012 73.7553 50.774 73.5096 50.8432C73.3874 50.8777 73.2627 50.9123 73.1689 50.9382C73.0738 50.9641 73.0096 50.9814 73.0047 50.9814L73.001 50.9777Z" fill="#073542"/>
<path d="M83.5553 19.8223C83.4454 19.9 83.2837 20.0618 83.1294 20.2136C83.2627 20.1099 83.3936 19.9914 83.5553 19.8223Z" fill="#073542"/>
<path d="M83.1271 20.2167C83.1271 20.2167 83.1256 20.2198 83.124 20.2198C83.1271 20.2167 83.1287 20.2152 83.1302 20.2136C83.1287 20.2136 83.1271 20.2167 83.1256 20.2167H83.1271Z" fill="#073542"/>
<path d="M54.5269 50.9828C54.5639 50.9433 54.6071 50.8988 54.6503 50.8544C54.6083 50.8963 54.5651 50.9396 54.5269 50.9828Z" fill="#073542"/>
<path d="M75.7472 27.663L75.7521 27.7136C75.3941 28.0815 75.6151 27.7889 75.2904 28.1346C75.2003 28.3062 74.7348 28.6939 74.641 28.8321C74.641 28.826 74.4768 28.9914 74.4743 28.9692C74.446 29.0408 74.3126 29.1445 74.2151 29.2556C74.1842 29.3 74.2484 29.2346 74.283 29.2124L74.0558 29.4605C73.9571 29.5482 73.9213 29.5581 74.0188 29.4543C73.3978 30.0741 70.4299 33.0667 69.7805 33.7531C69.8818 33.6827 70.0743 33.463 70.1781 33.4087C70.0176 33.6013 69.9163 33.6667 69.8534 33.7605C69.7484 33.7914 69.4595 34.1445 69.2892 34.242L69.2608 34.3148L69.1608 34.3902C68.4151 35.1976 68.9966 34.5803 68.3101 35.2716C67.9188 35.6778 67.762 35.8988 67.5311 36.1124C67.5645 36.079 67.6645 36.0037 67.5682 36.1124C67.5311 36.1124 67.3102 36.4037 67.241 36.4358C67.1435 36.5408 66.8163 36.8692 66.9521 36.7827C66.8842 36.826 66.5892 37.1173 66.7509 36.9297C66.6521 37.0284 66.5546 37.121 66.4892 37.1988L66.6213 37.0778C66.2953 37.4185 66.0953 37.5827 65.9052 37.8247L66.0373 37.7099C65.8423 37.9124 65.6793 38.0827 65.5756 38.1371L65.7694 37.9223C65.4435 38.2568 65.2484 38.4605 64.9892 38.7519L65.0867 38.6531C64.7657 39.0334 62.9719 40.9099 62.6842 41.2679L62.8509 41.1371L62.5929 41.4346C62.6262 41.4013 62.6608 41.2358 62.6941 41.2136C62.1064 41.8173 59.0583 44.9655 58.5003 45.5087C58.2694 45.7223 58.4287 45.5185 58.4287 45.5124C58.1694 45.7926 58.3348 45.6507 58.1052 45.8815C58.0398 45.9408 58.1027 45.8531 58.1348 45.8148C58.0373 45.9186 57.9385 46.0062 57.9398 46.0235C58.0719 45.9037 58.0435 45.9815 58.1126 45.9432L57.8188 46.2395L57.8163 46.2111C57.7509 46.2778 57.6941 46.4223 57.399 46.7074C56.9077 47.1963 56.3879 47.7395 55.8966 48.2334C55.8953 48.2161 55.9916 48.1062 56.0879 47.9963C56.0225 48.063 55.925 48.1667 55.8583 48.221C55.9929 48.1173 55.6645 48.4408 55.7645 48.3531C55.446 48.7556 54.9497 49.1926 54.6608 49.5395C54.6682 49.6013 54.578 50.8074 54.6188 50.8469C54.52 50.9457 54.4225 51.0445 54.3892 51.0716C54.4237 51.0556 54.6213 50.863 54.7176 50.7531L54.7126 50.7136C54.9398 50.4655 54.7805 50.6704 55.0089 50.4346C55.0385 50.4395 54.8324 50.6593 54.6484 50.8506C54.8176 50.6815 54.9978 50.5235 55.046 50.4346C55.2101 50.2815 55.0509 50.4741 55.2472 50.2877C55.3768 50.1445 55.5361 49.9457 55.7015 49.7976V49.8037C56.0978 49.4371 56.2509 49.1877 56.6139 48.8531L56.583 48.8963C56.7151 48.7815 56.941 48.5235 57.1706 48.3099C57.104 48.3704 57.0373 48.4136 57.1669 48.2766C57.4311 48.0297 57.5916 47.842 57.7904 47.6679L57.9497 47.4692C58.8324 46.5741 62.2781 43.0013 63.1583 42.0951L63.1262 42.1334C64.462 40.7494 67.225 37.9284 68.5904 36.4827C68.8225 36.2803 69.1151 35.9729 69.3447 35.7482C69.2126 35.8692 69.2435 35.8124 69.341 35.7136C70.0262 35.0173 69.3756 35.6543 70.0583 34.9408C70.8385 34.1111 73.9015 31.0148 74.6237 30.3074C74.9781 29.8951 75.4706 29.4284 75.8262 29.0334L75.7953 29.0778C76.1855 28.6605 78.4694 26.3729 78.9237 25.8889L78.8583 25.9494C79.2472 25.5198 79.22 25.6037 79.5472 25.2865C79.4768 25.3013 79.8077 24.9309 79.9373 24.7939V24.805C80.1336 24.5963 80.5595 24.1099 80.8855 23.7692L80.8879 23.7976C81.146 23.5 81.6694 22.979 81.8645 22.7753C82.3225 22.3198 83.046 21.6346 83.6287 20.9976L84.0632 20.642L84.1163 20.579C84.1163 20.579 84.2052 19.4099 83.2929 20.1124L83.2904 20.084L83.1348 20.2469C82.9385 20.4334 82.8682 20.5395 82.8657 20.5111L83.1262 20.2482C82.9311 20.4383 83.0558 20.2939 83.12 20.2111C83.0398 20.2914 82.9608 20.3679 82.8929 20.4272C82.862 20.4716 82.9274 20.405 82.9595 20.379C82.8632 20.4889 82.7348 20.6494 82.604 20.7692C82.4077 20.9667 82.5657 20.7568 82.3373 20.9877C81.1274 22.2 79.9497 23.3692 78.7422 24.6099C78.7077 24.6321 78.7422 24.5988 78.7731 24.5593C78.4151 24.9383 78.0892 25.2679 77.7632 25.6136C77.6645 25.7013 77.6287 25.7173 77.5953 25.7395C77.6632 25.6963 75.7756 27.6284 75.7422 27.6556L75.7472 27.663Z" fill="#073542"/>
</g>
<defs>
<clipPath id="clip0_809_3328">
<rect width="110" height="100" fill="white"/>
</clipPath>
</defs>
</svg>
