<svg id="721f50c0-9f96-4cb2-aa85-4a7d77eec0bc" data-name="Layer 1" xmlns="http://www.w3.org/2000/svg" xmlns:xlink="http://www.w3.org/1999/xlink" viewBox="0 0 476 308"><defs><style>.df9631d6-4ab7-4f81-b9b9-c80e299a940f{fill:#fff;}.\37 a9a80cc-dd5d-4e0b-a97f-9407b7fe60d7{opacity:0.9001;}.\35 d81212c-62d5-4ebb-8112-7d071a5e647c{fill:url(#b5f54d75-5ac7-4e2f-9c8c-0d0563e3d99b);}.\34 9525185-1cd8-4c13-a4df-de1c303b4b7e{fill:#8aafe1;}.\31 b31001b-c95f-4c64-a0fb-e9e0d2e9b914{fill:url(#c85c7de1-87d2-4b1b-b609-0d21364d5918);}.d3189d27-0527-4c20-8a61-4ab4a5b41e5f{fill:url(#2b88bc7f-b821-443f-91dd-6d6862bf9b93);}.\37 048e49e-3291-4540-92cf-266f6e732bfb{fill:url(#1f69f691-1019-4704-9a15-bd3c5df31190);}.\38 8eab73a-8e17-4a38-8297-11203ddcf652{fill:url(#8d4e18e9-588a-4afd-82c1-668947922bc2);}.\38 18c9045-ca83-43d8-a380-7d1bcebb6c03{fill:url(#73a19b6e-0012-4281-8e26-ed5bbfadae23);}.d2f3c94d-8d22-4783-b8d8-f22733f6b7da{fill:#e0e5ff;}.\39 91299af-d03e-44d0-a682-3d6cc16b9925{fill:url(#2e57a9e8-9fc9-4b6c-a3b5-a51868509d7a);}.d3b9b1d3-444a-401b-9437-914c56ee0e76{fill:url(#ba0df5ae-b124-48a3-96ff-437bb0641d7a);}.\30 133ae57-6a21-488d-86fa-92eb809b74eb{fill:url(#898daac2-183f-4ca6-b6e4-70507ebb28f1);}.\33 65917f8-0013-4720-88f2-8dfb662abec4{fill:url(#d014d6dd-681d-4fc4-a0f0-dd566f5b92a9);}.\33 e295648-591b-41bc-917d-351af9c0f60c{fill:url(#8e6574f2-7653-4061-bf54-858b580e6679);}.\31 97fc382-ad62-444a-8e0c-796c119b64bd{fill:url(#29d5afcf-fb4a-4cdf-a80c-7e693d815376);}.\31 6be6cae-122a-4039-a29f-1b140ce2135a{mask:url(#813ac4bd-6a27-4202-b6dc-6703ae0bd028);}.ef6194e7-732c-4615-8446-4a66c2d9fb31{fill:#42b16d;}.\38 65939e3-f244-42da-8e04-fd4fe7e8970b{fill:url(#c860efe3-9b12-4395-97d8-0d6dc384c8fd);}.\34 d9c8d20-63b2-44ae-b50c-1c79491ff42d{fill:url(#552549c1-b39c-4bf9-bf04-f4a493250660);}.bfd47598-a589-4134-bd74-e77ca0b9e65d{fill:url(#1a63755e-fe0b-47a3-9855-74a884f3419f);}.fc5f3112-e157-4fd8-9fad-3caceba8c2af{fill:#b7c8ff;}.\32 4018ba5-2b18-439e-b586-4c5c109a7f1f{fill:url(#b20ed1b2-1507-4390-8fe5-e33369d42137);}.ea19e726-c563-40b3-8de4-0bd1f06a3704{fill:url(#4b5f6d62-4119-4ecb-b30c-b7c38c22cb46);}.\33 a37d151-d9b7-4361-94d3-4a54ed411cad{fill:url(#c7076d6c-7b6f-4c6d-9ab2-08e850eb1398);}.\33 92fe244-1523-4461-96e2-28104c2e8415{fill:url(#883cf020-c436-46ea-9cfe-89a2bed66eb0);}.b73b5477-afa8-4236-b3d4-e94910cc2590{fill:#f2f5ff;}.\39 f624377-06a2-43ee-9cb9-954c7d017c7b{fill:#f2a384;}.\37 5f01d31-b537-46a6-8e91-646446bd4e55{fill:url(#1ae02f1b-424d-4223-bf47-67eee20d78ae);}.\38 5747e15-eb22-428f-b265-421316d7876a{fill:url(#fd37d731-c699-4e7f-941a-2d7e0ccb45fa);}.\36 3a81b92-190b-4a57-a844-c5f1197d708b{fill:url(#0e388d50-0a15-4c47-821e-7e0f04916cf1);}.d5240f19-5038-4b08-94bd-d296a803f7b0{fill:url(#92ee4b57-a6e1-44ce-98e7-000a83e4e37e);}.eb30d8c4-524a-417b-865b-405eded3375e{fill:#5f90cc;}.\36 a3ccb29-0fad-4cae-a359-00345d633004{fill:url(#5a403c02-1b4c-42bd-9829-5f9240ed0a3a);}.b744c9ac-c9c4-442b-acaf-de73c28b06ca{mask:url(#e4c22773-332c-4044-945b-5f4594b4b480);}.\37 6a469e4-2c22-4d84-98b0-5ed4e739a862{fill:#abc0ff;}.\34 73b2072-08bb-44f8-a399-9351776cc05f,.\37 6a469e4-2c22-4d84-98b0-5ed4e739a862{opacity:0.5;}.\33 209930a-0ee5-4543-848c-f2c7b95d3bcb,.\34 73b2072-08bb-44f8-a399-9351776cc05f,.\37 6a469e4-2c22-4d84-98b0-5ed4e739a862{isolation:isolate;}.\37 fde6f28-964a-4031-9bcf-48e739b0dae2{fill:url(#071fc2c9-5a17-4d5c-929c-91989411e846);}.\38 29f793e-3bd8-478e-99c2-c18d78d22fdf{fill:url(#ee4d167f-8ffe-44dc-afc3-147629bf1765);}.\33 c15adf7-05bd-44f8-b613-38f447b157e0{fill:url(#dfc50e0b-3401-4784-abc7-a595cc8a66ee);}.\30 8051a1f-44da-4318-8cd6-0681f62a623b{fill:#bf8d30;}.ca7565d4-6973-448d-a393-0ad69ed2e338{fill:url(#3dd28b5f-0135-409c-b5de-7c310468732d);}.\31 2fd7c7f-59e0-4a07-8e4c-246a830c8fd6{fill:url(#608ea955-3035-426e-b3e9-394f6a92026e);}.\34 3c51c27-0e03-418c-9d82-885c394f54c4{fill:url(#974781fa-78e6-4a30-9394-9c672022e763);}.\39 49a874a-59a9-42c5-a711-46598a18408b{fill:url(#e1cf5dc3-b25b-468f-84b1-a6b4a127c650);}.\36 9f7c7ee-8457-4177-a3d0-e3e4eedddb0d{fill:url(#bfb39c07-3d3b-4f43-863b-b8b163a83080);}.dc4d22c8-de0c-4003-907c-d0def59434ae{fill:url(#6c24d2f1-d90f-4e90-90bf-baee76db0777);}.a3ac8371-f783-4587-98e4-3a604565ada8{fill:url(#a585b964-24dc-47ef-849d-db620b0ecae8);}.\38 bf53761-5e19-419e-8ff1-7f312577e71e{fill:url(#d166b054-4c84-4baa-a9e3-499bc51afe62);}.a4549e85-4333-4650-bec4-247fd1d3857f{fill:url(#e5dc9e08-d8c7-4880-b75e-25d949962d97);}.d7ae9862-1794-4496-873b-f493ab8de71d{fill:#1542ab;}.fdb33ef6-953c-4780-bf9a-3c8f25e1ca49{fill:url(#44e9bff5-15f3-430b-a363-3ab00326a110);}.\39 9faf4d5-4c06-47c8-a5d8-a56251677e3e{fill:url(#8674a446-4812-4f8a-b666-d3f571e4714d);}.bef4d563-6ee6-4598-af24-cc2ce079946a{fill:url(#1bd8b70c-2c43-4925-bd10-bc50e7d320e4);}.f753815e-def9-4cc6-b83f-b83b0f17bc30{mask:url(#cbf38146-e7ff-4dc4-999a-37694178b8a7);}.\34 73b2072-08bb-44f8-a399-9351776cc05f{fill:#eeb84e;}.b6ada41e-5f5b-4ad6-8d2c-9010707f4e46{fill:url(#73a6250b-393a-427f-8459-bbb4a3a368d8);}.\30 f7ab7fd-cab2-405b-863c-fd10ab6c318c{fill:url(#c18e14f0-d41c-4d1f-bd9e-0574f95fbba5);}.d21d76c2-30b5-47da-897c-379b7943005a{mask:url(#019931e6-cde5-4a61-834f-7312c5635c02);}.\39 b2d22d4-0688-473d-b3df-01bc179689a0{fill:#b06c57;}.\33 0988322-e621-4963-8d0e-e4133eaae2bd{fill:url(#cc851c44-5425-4a38-a456-aab4d9ce2fd4);}.af66bdf5-c066-46d1-976f-bcc7075f8c1c{fill:url(#b6241a61-5d21-43f0-8f37-bd3dc6e47b95);}.\35 fcde369-d106-4bed-8fc3-cc6b4eaf664e{fill:url(#232a7671-8d07-4a07-98a2-91984f72a163);}.a2b18461-e264-451f-8c2b-1db0a1788804{fill:#111aa7;}.f311c208-e2c3-4027-8266-d8bbbec76b48{fill:url(#380b6258-3321-45c9-b905-5174815a1b9a);}.ac513ef9-b75b-4c30-a51f-58b7632799c1{fill:url(#0f9b8a13-6250-4bdb-a5b4-4d85bcefddd3);}.ac4093bb-9aa6-4e05-96b2-1436da36bf8d{fill:#d2d9ff;}.c2bbb8b5-1e12-47af-9ccd-daea3c53c539{fill:url(#447d3c92-af10-4c3e-b78b-ca7c38ca7d9f);}.\37 314bb4a-6ae4-44c7-a8fa-a2c3a0a9c80d{fill:url(#aacd20cb-8065-4409-8410-a08c54a26cdf);}.\38 ef80c36-e80b-4366-86c3-e71a655a3653{fill:url(#a8268f15-369c-417a-9e2d-84644ef9df00);}.ef5a1e95-a72b-4c72-8ea3-a077db8d228c{fill:url(#4330c230-f240-4001-8f58-fe4430b91392);}.\35 b0fce0a-87e8-4cc4-95ec-dd48aa8766bd{fill:url(#fe40f931-7e32-4580-934f-d05104dc69e9);}.ce83e0cc-ce84-4c44-9c3b-790eab8e1ad7{fill:url(#b51c9d64-fd23-46c5-8064-58fcf97df660);}.\33 209930a-0ee5-4543-848c-f2c7b95d3bcb{fill:#e2ebfc;opacity:0.8062;}.bf7d7ce8-032b-414e-915a-719fa1e50103{fill:url(#088540bc-943c-43f9-8d20-604b34327047);}.\33 24da186-4c71-4f7c-9396-43d154bc4e8d{fill:#98bbe9;}.\37 5ffb436-912f-4e9d-93a6-4ffe736c3497{fill:#8fafda;}.ed2fcf33-5b79-47c4-b2dc-a884106e5623{fill:url(#1f878e1e-ae32-46dc-83f7-4870094c1a69);}.\36 ac01d84-dfd6-49b4-8ef7-2119f04506e9{fill:#5ace87;}.cbb2abcf-a1b2-4f9d-b100-4877a65606a3{fill:url(#0fd54b46-7756-4ab6-8d2b-c19344811285);}.\38 e70b254-f684-4600-86d2-a5418b7d20e5{fill:#d2def8;}.\35 fec588f-c728-4455-a638-efd9e01ebb1e{fill:url(#72fe34fa-632e-4a0c-ac77-dc4817170588);}.\33 9cf6d00-c501-436f-acec-6fab60028753{fill:url(#46c6eb65-de50-4e91-8bb5-6bf871aab8a6);}</style><linearGradient id="b5f54d75-5ac7-4e2f-9c8c-0d0563e3d99b" x1="-58.2081" y1="573.3763" x2="-59.0462" y2="570.6284" gradientTransform="matrix(289.1729, 0, 0, -206.976, 17003.038, 118721.4314)" gradientUnits="userSpaceOnUse"><stop offset="0" stop-color="#f7faff"/><stop offset="1" stop-color="#6b9ad9"/></linearGradient><linearGradient id="c85c7de1-87d2-4b1b-b609-0d21364d5918" x1="-54.3874" y1="552.3088" x2="-54.7733" y2="550.7525" gradientTransform="matrix(15.3611, 0, 0, -11.52, 1057.4368, 6439.0621)" gradientUnits="userSpaceOnUse"><stop offset="0" stop-color="#e5edff"/><stop offset="1" stop-color="#6b9ad9"/></linearGradient><linearGradient id="2b88bc7f-b821-443f-91dd-6d6862bf9b93" x1="-54.3874" y1="563.8973" x2="-54.7733" y2="562.341" gradientTransform="matrix(15.3611, 0, 0, -23.04, 1077.0224, 13050.2741)" xlink:href="#c85c7de1-87d2-4b1b-b609-0d21364d5918"/><linearGradient id="1f69f691-1019-4704-9a15-bd3c5df31190" x1="-54.3874" y1="567.7602" x2="-54.7733" y2="566.2039" gradientTransform="matrix(15.3611, 0, 0, -34.56, 1096.2234, 19661.4872)" xlink:href="#c85c7de1-87d2-4b1b-b609-0d21364d5918"/><linearGradient id="8d4e18e9-588a-4afd-82c1-668947922bc2" x1="-55.5794" y1="563.4977" x2="-55.9653" y2="561.9414" gradientTransform="matrix(22.2736, 0, 0, -22.272, 1356.2105, 12593.3977)" xlink:href="#c85c7de1-87d2-4b1b-b609-0d21364d5918"/><linearGradient id="73a19b6e-0012-4281-8e26-ed5bbfadae23" x1="-57.3652" y1="563.4977" x2="-57.751" y2="561.9414" gradientTransform="matrix(68.3569, 0, 0, -22.272, 3994.4815, 12624.1188)" xlink:href="#c85c7de1-87d2-4b1b-b609-0d21364d5918"/><linearGradient id="2e57a9e8-9fc9-4b6c-a3b5-a51868509d7a" x1="-57.3795" y1="571.6864" x2="-57.7653" y2="570.1301" gradientTransform="matrix(69.509, 0, 0, -70.272, 4062.07, 40249.9351)" xlink:href="#c85c7de1-87d2-4b1b-b609-0d21364d5918"/><linearGradient id="ba0df5ae-b124-48a3-96ff-437bb0641d7a" x1="-58.3096" y1="565.9658" x2="-58.0322" y2="556.543" gradientTransform="matrix(289.1729, 0, 0, -30.336, 17003.038, 17172.8644)" gradientUnits="userSpaceOnUse"><stop offset="0" stop-color="#476db1"/><stop offset="1" stop-color="#283f6f"/></linearGradient><linearGradient id="898daac2-183f-4ca6-b6e4-70507ebb28f1" x1="-58.0661" y1="540.0694" x2="-58.3" y2="539.2089" gradientTransform="matrix(188.5576, 0, 0, -7.68, 11177.3364, 4335.5471)" xlink:href="#ba0df5ae-b124-48a3-96ff-437bb0641d7a"/><linearGradient id="d014d6dd-681d-4fc4-a0f0-dd566f5b92a9" x1="-53.6989" y1="573.4753" x2="-53.6989" y2="570.3503" gradientTransform="matrix(12.2889, 0, 0, -94.08, 784.7771, 54012.9519)" gradientUnits="userSpaceOnUse"><stop offset="0" stop-color="#95b7e5"/><stop offset="1" stop-color="#476db1"/></linearGradient><linearGradient id="8e6574f2-7653-4061-bf54-858b580e6679" x1="-53.6989" y1="573.4753" x2="-53.6989" y2="570.3503" gradientTransform="matrix(12.2889, 0, 0, -94.08, 942.2288, 54012.9519)" xlink:href="#d014d6dd-681d-4fc4-a0f0-dd566f5b92a9"/><linearGradient id="29d5afcf-fb4a-4cdf-a80c-7e693d815376" x1="-54.1711" y1="561.4372" x2="-53.9983" y2="560.5986" gradientTransform="matrix(13.441, 0, 0, -20.352, 1002.5208, 11590.6009)" gradientUnits="userSpaceOnUse"><stop offset="0" stop-color="#84f0a8"/><stop offset="1" stop-color="#48b676"/></linearGradient><mask id="813ac4bd-6a27-4202-b6dc-6703ae0bd028" x="268.5035" y="156.288" width="13.441" height="24.1092" maskUnits="userSpaceOnUse"><g id="21471fb9-7de7-4177-9cbb-8df2c18445bd" data-name="mask-8"><path id="ea3b8b8a-2d89-46b3-bc5e-0a4c2aa6cd47" data-name="path-7" class="df9631d6-4ab7-4f81-b9b9-c80e299a940f" d="M276.184,167.04h1.1521v-4.224a2.3042,2.3042,0,0,1,4.6083,0v6.528a3.31,3.31,0,0,1-3.0722,2.304H276.184v6.144h-7.6805V161.28a3.84,3.84,0,0,1,7.6805,0Z"/></g></mask><linearGradient id="c860efe3-9b12-4395-97d8-0d6dc384c8fd" x1="-55.2603" y1="553.7833" x2="-55.6461" y2="552.227" gradientTransform="matrix(19.2014, 0, 0, -12.288, 1337.009, 6972.3524)" xlink:href="#c85c7de1-87d2-4b1b-b609-0d21364d5918"/><linearGradient id="552549c1-b39c-4bf9-bf04-f4a493250660" x1="-55.5227" y1="506.1974" x2="-55.4423" y2="503.1352" gradientTransform="matrix(19.5854, 0, 0, -3.84, 1359.2826, 2115.2975)" xlink:href="#c85c7de1-87d2-4b1b-b609-0d21364d5918"/><linearGradient id="1a63755e-fe0b-47a3-9855-74a884f3419f" x1="-57.762" y1="570.0398" x2="-57.9959" y2="569.1792" gradientTransform="matrix(95.6229, 0, 0, -55.68, 5742.5757, 31864.6034)" xlink:href="#ba0df5ae-b124-48a3-96ff-437bb0641d7a"/><linearGradient id="b20ed1b2-1507-4390-8fe5-e33369d42137" x1="-57.1099" y1="568.6934" x2="-57.9485" y2="566.8632" gradientTransform="matrix(46.2648, 0, 0, -44.8953, 2752.5252, 25732.3606)" gradientUnits="userSpaceOnUse"><stop offset="0" stop-color="#eef3ff"/><stop offset="1" stop-color="#6b9ad9"/></linearGradient><linearGradient id="4b5f6d62-4119-4ecb-b30c-b7c38c22cb46" x1="-52.4676" y1="540.13" x2="-52.8535" y2="538.5737" gradientTransform="matrix(10.249, 0, 0, -7.552, 656.6496, 4264.558)" xlink:href="#c85c7de1-87d2-4b1b-b609-0d21364d5918"/><linearGradient id="c7076d6c-7b6f-4c6d-9ab2-08e850eb1398" x1="59.9462" y1="568.1319" x2="59.9462" y2="565.007" gradientTransform="matrix(-0.2653, 2.1605, -11.052, -1.357, 6386.5493, 842.2386)" xlink:href="#d014d6dd-681d-4fc4-a0f0-dd566f5b92a9"/><linearGradient id="883cf020-c436-46ea-9cfe-89a2bed66eb0" x1="474.5082" y1="552.5483" x2="474.5082" y2="549.4234" gradientTransform="translate(2232.6377 234.0035) rotate(97) scale(0.4837 3.8333)" xlink:href="#d014d6dd-681d-4fc4-a0f0-dd566f5b92a9"/><linearGradient id="1ae02f1b-424d-4223-bf47-67eee20d78ae" x1="-57.4066" y1="569.2155" x2="-57.3543" y2="568.457" gradientTransform="matrix(53.1109, 0, 0, -49.4849, 3146.4155, 28420.3484)" gradientUnits="userSpaceOnUse"><stop offset="0" stop-color="#1542ab"/><stop offset="1" stop-color="#2b68ee"/></linearGradient><linearGradient id="fd37d731-c699-4e7f-941a-2d7e0ccb45fa" x1="-55.7756" y1="551.5157" x2="-56.7756" y2="551.5157" gradientTransform="matrix(26.5234, 0, 0, -11.6725, 1619.5898, 6731.6215)" gradientUnits="userSpaceOnUse"><stop offset="0" stop-color="#2865c6"/><stop offset="1" stop-color="#10378a"/></linearGradient><linearGradient id="0e388d50-0a15-4c47-821e-7e0f04916cf1" x1="-57.617" y1="569.4044" x2="-57.7035" y2="568.9044" gradientTransform="matrix(72.7592, 0, 0, -48.6187, 4284.3176, 27934.0458)" gradientUnits="userSpaceOnUse"><stop offset="0" stop-color="#3485f7"/><stop offset="1" stop-color="#1a57cf"/></linearGradient><linearGradient id="92ee4b57-a6e1-44ce-98e7-000a83e4e37e" x1="-55.1371" y1="560.8544" x2="-56.1371" y2="560.8544" gradientTransform="matrix(20.6087, 0, 0, -19.7258, 1190.586, 11354.0037)" xlink:href="#fd37d731-c699-4e7f-941a-2d7e0ccb45fa"/><linearGradient id="5a403c02-1b4c-42bd-9829-5f9240ed0a3a" x1="-57.0043" y1="571.4551" x2="-57.1116" y2="570.4551" gradientTransform="matrix(40.9953, 0, 0, -77.609, 2408.7178, 44535.0083)" gradientUnits="userSpaceOnUse"><stop offset="0" stop-color="#fff"/><stop offset="1" stop-color="#e5eeff"/></linearGradient><mask id="e4c22773-332c-4044-945b-5f4594b4b480" x="48.9962" y="185.3959" width="58.9495" height="77.609" maskUnits="userSpaceOnUse"><g id="1ee6f83e-81bf-4246-8b5a-951e03af0c4a" data-name="mask-16"><path id="be44aef7-a2f3-4254-be3e-0f9d58551dc0" data-name="path-15" class="df9631d6-4ab7-4f81-b9b9-c80e299a940f" d="M59.6542,186.4182c7.5115-4.3621,16.1085,6.3785,18.1253,10.7364s7.7385,4.4067,5.3555,24.1489q-2.3831,19.7422,1.7885,21.3464,7.498-1.0663,3.9027,9.0268c-3.5952,10.093-8.3247,9.973-17.373,11.094s-15.624-1.9159-19.3313-6.2645,4.6544-13.1357,0-21.4392c-1.7978-3.2074-3.1257-22.8871-3.1257-29.3156S52.1426,190.78,59.6542,186.4182Z"/></g></mask><linearGradient id="071fc2c9-5a17-4d5c-929c-91989411e846" x1="-56.0736" y1="562.6064" x2="-56.876" y2="564.1712" gradientTransform="matrix(29.4566, 0, 0, -23.7805, 1736.4268, 13576.5081)" gradientUnits="userSpaceOnUse"><stop offset="0" stop-color="#032258"/><stop offset="1" stop-color="#133e94"/></linearGradient><linearGradient id="ee4d167f-8ffe-44dc-afc3-147629bf1765" x1="-57.3121" y1="568.9574" x2="-58.1145" y2="570.5222" gradientTransform="matrix(64.9056, 0, 0, -55.5942, 3812.5891, 31829.3874)" xlink:href="#071fc2c9-5a17-4d5c-929c-91989411e846"/><linearGradient id="dfc50e0b-3401-4784-abc7-a595cc8a66ee" x1="-57.4031" y1="569.824" x2="-57.5104" y2="568.824" gradientTransform="matrix(56.3316, 0, 0, -52.6396, 3319.3036, 30181.6052)" xlink:href="#5a403c02-1b4c-42bd-9829-5f9240ed0a3a"/><linearGradient id="3dd28b5f-0135-409c-b5de-7c310468732d" x1="-59.3228" y1="571.5049" x2="-60.1252" y2="573.0697" gradientTransform="matrix(-104.2348, -27.9296, 27.4307, -102.3727, -21538.0274, 57001.4172)" xlink:href="#071fc2c9-5a17-4d5c-929c-91989411e846"/><linearGradient id="608ea955-3035-426e-b3e9-394f6a92026e" x1="-62.8204" y1="566.4284" x2="-62.8204" y2="567.0441" gradientTransform="matrix(-28.1916, -7.5539, 8.1497, -30.4151, -6064.2129, 16864.6976)" gradientUnits="userSpaceOnUse"><stop offset="0" stop-color="#f4af92"/><stop offset="1" stop-color="#ec906c"/></linearGradient><linearGradient id="974781fa-78e6-4a30-9394-9c672022e763" x1="-69.1272" y1="555.9776" x2="-68.9543" y2="555.139" gradientTransform="matrix(0, -11.9049, 13.056, 0, -6918.2802, -763.1992)" xlink:href="#29d5afcf-fb4a-4cdf-a80c-7e693d815376"/><linearGradient id="e1cf5dc3-b25b-468f-84b1-a6b4a127c650" x1="-60.2828" y1="568.1505" x2="-61.0853" y2="569.7153" gradientTransform="matrix(-60.0927, -16.1018, 11.2307, -41.9135, -9714.6105, 22931.3311)" xlink:href="#071fc2c9-5a17-4d5c-929c-91989411e846"/><linearGradient id="bfb39c07-3d3b-4f43-863b-b8b163a83080" x1="-54.031" y1="548.5326" x2="-53.7701" y2="549.4751" gradientTransform="matrix(12.5765, 0, 0, -10.6123, 978.3939, 6122.298)" gradientUnits="userSpaceOnUse"><stop offset="0" stop-color="#fad0ba"/><stop offset="1" stop-color="#f2a384"/></linearGradient><linearGradient id="6c24d2f1-d90f-4e90-90bf-baee76db0777" x1="-54.031" y1="548.5326" x2="-53.7701" y2="549.4751" gradientTransform="matrix(12.5765, 0, 0, -10.6123, 1016.3217, 6122.298)" xlink:href="#bfb39c07-3d3b-4f43-863b-b8b163a83080"/><linearGradient id="a585b964-24dc-47ef-849d-db620b0ecae8" x1="-55.755" y1="550.4531" x2="-56.755" y2="550.4531" gradientTransform="matrix(26.2812, 0, 0, -11.1543, 1812.1981, 6440.4538)" xlink:href="#fd37d731-c699-4e7f-941a-2d7e0ccb45fa"/><linearGradient id="d166b054-4c84-4baa-a9e3-499bc51afe62" x1="-55.755" y1="550.4531" x2="-56.755" y2="550.4531" gradientTransform="matrix(26.2812, 0, 0, -11.1543, 1774.2706, 6440.4538)" xlink:href="#fd37d731-c699-4e7f-941a-2d7e0ccb45fa"/><linearGradient id="e5dc9e08-d8c7-4880-b75e-25d949962d97" x1="-57.4869" y1="572.8039" x2="-57.5734" y2="572.3039" gradientTransform="matrix(64.022, 0, 0, -127.8216, 4004.0545, 73380.8368)" xlink:href="#0e388d50-0a15-4c47-821e-7e0f04916cf1"/><linearGradient id="44e9bff5-15f3-430b-a363-3ab00326a110" x1="-55.3074" y1="567.1098" x2="-55.2551" y2="566.3512" gradientTransform="matrix(18.3668, 0, 0, -35.5945, 1326.8319, 20393.3147)" xlink:href="#1ae02f1b-424d-4223-bf47-67eee20d78ae"/><linearGradient id="8674a446-4812-4f8a-b666-d3f571e4714d" x1="-60.7984" y1="571.9265" x2="-60.9057" y2="570.9265" gradientTransform="translate(-14908.4106 44402.4161) rotate(-165) scale(53.5657 81.7213)" xlink:href="#5a403c02-1b4c-42bd-9829-5f9240ed0a3a"/><linearGradient id="1bd8b70c-2c43-4925-bd10-bc50e7d320e4" x1="-56.8313" y1="573.1139" x2="-56.8313" y2="572.0051" gradientTransform="matrix(35.357, 0, 0, -141.6521, 2363.0735, 81268.5748)" gradientUnits="userSpaceOnUse"><stop offset="0" stop-color="#ffe579"/><stop offset="1" stop-color="#feb755"/></linearGradient><mask id="cbf38146-e7ff-4dc4-999a-37694178b8a7" x="336.0117" y="101.1729" width="39.1438" height="141.6522" maskUnits="userSpaceOnUse"><g id="7725ee83-9c80-4704-91dd-e8133b0d2637" data-name="mask-22"><path id="e7d3c97e-4ae3-4958-a80f-78e95dcae93e" data-name="path-21" class="df9631d6-4ab7-4f81-b9b9-c80e299a940f" d="M341.4731,116.6245q-9.0447,34.4005-3.11,54.493c5.9344,20.0924-3.7409,43.442-1.4709,54.5308q16.9651,1.7679,29.6276,17.1768,5.3523-6.8586,4.797-30.1226c-.5554-23.2642-6.1255-24.558-6.9847-35.1482a200.4656,200.4656,0,0,1,0-26.3613l-7.9129-39.7424a82.8961,82.8961,0,0,0-8.8111-6.5847,45.3429,45.3429,0,0,0-8.1339-3.693Z"/></g></mask><linearGradient id="73a6250b-393a-427f-8459-bbb4a3a368d8" x1="-56.6638" y1="571.6302" x2="-56.6638" y2="570.5214" gradientTransform="matrix(32.1324, 0, 0, -79.2625, 2177.8972, 45410.4161)" xlink:href="#1bd8b70c-2c43-4925-bd10-bc50e7d320e4"/><linearGradient id="c18e14f0-d41c-4d1f-bd9e-0574f95fbba5" x1="-57.632" y1="573.0727" x2="-57.632" y2="571.9639" gradientTransform="matrix(67.9729, 0, 0, -138.624, 4199.9356, 79517.5553)" xlink:href="#1bd8b70c-2c43-4925-bd10-bc50e7d320e4"/><mask id="019931e6-cde5-4a61-834f-7312c5635c02" x="248.534" y="91.008" width="67.9729" height="138.624" maskUnits="userSpaceOnUse"><g id="a10bf1fd-15ab-49b8-af6f-a8857103e2f8" data-name="mask-24"><path id="42a67f21-b469-4dad-9ea9-9d891c0b99d0" data-name="path-23" class="df9631d6-4ab7-4f81-b9b9-c80e299a940f" d="M314.6551,105.5922q-4.3234,11.3823-5.8671,16.1527-2.3168,7.1606-1.7984,11.811c1.0365,9.2979,3.92,12.3431,1.4219,34.584-.9767,8.6953-6.46,20.9361-7.5188,30.6315-1.6485,15.1037,2.4052,20.3287,1.39,22.8268-1.39,3.4189-16.2221.277-23.6447,8.0338-2.39-4.6149,6.6912-20.8868,6.6912-23.3722s.3093-21.1513,7.9365-34.8436q7.6272-13.6922,5.8286-40.0577-19.1687-3.6862-28.04-9.6136t-22.52-25.5757q2.0363-5.1612,4.67-5.1612c2.634,0,20.48,16.1986,34.2773,18.1636,5.784.8237,10.4287-2.5949,14.801-3.5794,6.9559-1.5664,12.0215-1.5069,12.8646-1.7954q1.3731-.47,1.36.7026Z"/></g></mask><linearGradient id="cc851c44-5425-4a38-a456-aab4d9ce2fd4" x1="-56.3378" y1="567.3849" x2="-57.1403" y2="568.9497" gradientTransform="matrix(32.9659, 0, 0, -41.5688, 2053.1821, 23740.3568)" xlink:href="#071fc2c9-5a17-4d5c-929c-91989411e846"/><linearGradient id="b6241a61-5d21-43f0-8f37-bd3dc6e47b95" x1="-55.3009" y1="556.814" x2="-56.3009" y2="556.814" gradientTransform="matrix(21.859, 0, 0, -15.1912, 1455.4839, 8738.7121)" xlink:href="#fd37d731-c699-4e7f-941a-2d7e0ccb45fa"/><linearGradient id="232a7671-8d07-4a07-98a2-91984f72a163" x1="-53.6451" y1="550.9923" x2="-54.6451" y2="550.9923" gradientTransform="matrix(13.548, 0, 0, -11.4114, 930.8867, 6562.0956)" xlink:href="#fd37d731-c699-4e7f-941a-2d7e0ccb45fa"/><linearGradient id="380b6258-3321-45c9-b905-5174815a1b9a" x1="-57.8967" y1="571.9091" x2="-57.6503" y2="570.9159" gradientTransform="matrix(90.4913, 0, 0, -94.6644, 5417.841, 54303.9139)" xlink:href="#29d5afcf-fb4a-4cdf-a80c-7e693d815376"/><linearGradient id="0f9b8a13-6250-4bdb-a5b4-4d85bcefddd3" x1="-57.7821" y1="571.7685" x2="-57.587" y2="570.6785" gradientTransform="matrix(72.1321, 0, 0, -80.8501, 4340.837, 46370.8523)" xlink:href="#29d5afcf-fb4a-4cdf-a80c-7e693d815376"/><linearGradient id="447d3c92-af10-4c3e-b78b-ca7c38ca7d9f" x1="-49.8438" y1="536.2066" x2="-50.0777" y2="535.346" gradientTransform="matrix(6.9125, 0, 0, -6.912, 530.5507, 3996.9438)" xlink:href="#ba0df5ae-b124-48a3-96ff-437bb0641d7a"/><linearGradient id="aacd20cb-8065-4409-8410-a08c54a26cdf" x1="-49.8438" y1="536.2066" x2="-50.0777" y2="535.346" gradientTransform="matrix(6.9125, 0, 0, -6.912, 578.9382, 3996.9438)" xlink:href="#ba0df5ae-b124-48a3-96ff-437bb0641d7a"/><linearGradient id="a8268f15-369c-417a-9e2d-84644ef9df00" x1="-49.8438" y1="536.2066" x2="-50.0777" y2="535.346" gradientTransform="matrix(0.0131, 6.9125, 6.912, -0.0131, -3492.3892, 650.0206)" xlink:href="#ba0df5ae-b124-48a3-96ff-437bb0641d7a"/><linearGradient id="4330c230-f240-4001-8f58-fe4430b91392" x1="-57.4045" y1="566.9095" x2="-57.4045" y2="563.7845" gradientTransform="matrix(53.8558, 0, 0, -28.3927, 3301.3584, 16324.9162)" xlink:href="#d014d6dd-681d-4fc4-a0f0-dd566f5b92a9"/><linearGradient id="fe40f931-7e32-4580-934f-d05104dc69e9" x1="-57.4465" y1="571.1494" x2="-57.6804" y2="570.2888" gradientTransform="matrix(62.9217, 0, 0, -72.4154, 3802.4522, 41544.1114)" xlink:href="#ba0df5ae-b124-48a3-96ff-437bb0641d7a"/><linearGradient id="b51c9d64-fd23-46c5-8064-58fcf97df660" x1="-57.862" y1="572.8455" x2="-57.862" y2="569.7205" gradientTransform="matrix(92.4752, 0, 0, -76.9939, 5546.0603, 44178.1174)" xlink:href="#d014d6dd-681d-4fc4-a0f0-dd566f5b92a9"/><linearGradient id="088540bc-943c-43f9-8d20-604b34327047" x1="-61.0321" y1="573.4999" x2="-61.0321" y2="571.457" gradientTransform="matrix(-49.4691, -14.1851, 27.2345, -94.9781, -18159.8134, 53671.4196)" gradientUnits="userSpaceOnUse"><stop offset="0" stop-color="#fff"/><stop offset="1" stop-color="#b3cdef"/></linearGradient><linearGradient id="1f878e1e-ae32-46dc-83f7-4870094c1a69" x1="-59.0273" y1="571.8645" x2="-58.8544" y2="571.0259" gradientTransform="matrix(45.5387, -13.9226, -29.6346, -96.9306, 20033.387, 54813.3386)" xlink:href="#29d5afcf-fb4a-4cdf-a80c-7e693d815376"/><linearGradient id="0fd54b46-7756-4ab6-8d2b-c19344811285" x1="-62.1522" y1="572.4946" x2="-62.2595" y2="571.4946" gradientTransform="translate(-25454.1877 42638.4286) rotate(-152) scale(47.6194 86.7228)" xlink:href="#5a403c02-1b4c-42bd-9829-5f9240ed0a3a"/><linearGradient id="72fe34fa-632e-4a0c-ac77-dc4817170588" x1="-56.8777" y1="565.0076" x2="-57.2635" y2="563.4513" gradientTransform="matrix(40.5421, 0, 0, -25.4184, 2737.0899, 14621.5134)" xlink:href="#c85c7de1-87d2-4b1b-b609-0d21364d5918"/><linearGradient id="46c6eb65-de50-4e91-8bb5-6bf871aab8a6" x1="-57.1084" y1="542.1152" x2="-57.028" y2="539.0529" gradientTransform="matrix(41.3529, 0, 0, -7.9432, 2784.1186, 4574.4363)" xlink:href="#c85c7de1-87d2-4b1b-b609-0d21364d5918"/></defs><title>teams</title><g id="73a0970d-c794-48cf-9a59-f67685ca906a" data-name="Teams" class="7a9a80cc-dd5d-4e0b-a97f-9407b7fe60d7"><g id="5487cc47-9f51-4b8b-b947-14d837193f04" data-name="[Teams]-01.1_Teams_Create_Team"><g id="18e4f80a-d0c6-4225-89cc-268b0da089ac" data-name="Illustration/Teams"><g id="99a38eeb-8bc5-4e20-bc93-70079e388d64" data-name="Window"><path id="3fc28f0c-7d37-4601-9db2-d8a56cfe78bd" data-name="Window-base" class="5d81212c-62d5-4ebb-8112-7d071a5e647c" d="M8.5167,0H282.3285a7.68,7.68,0,0,1,7.68,7.68V205.44a1.536,1.536,0,0,1-1.5361,1.536H2.3722A1.5361,1.5361,0,0,1,.8361,205.44V7.68A7.68,7.68,0,0,1,8.5167,0Z"/><g id="308d1179-ec7f-4b0a-b636-bb538aeeb411" data-name="Chart-bar"><path class="49525185-1cd8-4c13-a4df-de1c303b4b7e" d="M166.3521,95.6161H154.063a2.3069,2.3069,0,0,1-2.3042-2.3042V73.3441A2.3069,2.3069,0,0,1,154.063,71.04h12.2891a2.3068,2.3068,0,0,1,2.3041,2.3042V93.3119A2.3068,2.3068,0,0,1,166.3521,95.6161ZM154.063,72.576a.7692.7692,0,0,0-.7681.7681V93.3119a.7691.7691,0,0,0,.7681.768h12.2891a.7691.7691,0,0,0,.768-.768V73.3441a.7692.7692,0,0,0-.768-.7681Z"/><path class="49525185-1cd8-4c13-a4df-de1c303b4b7e" d="M203.44,95.2318H199.6a.3838.3838,0,1,1,0-.7676h3.84a.3838.3838,0,0,1,0,.7676Zm-7.68,0h-3.294a1.9057,1.9057,0,0,1-.6684-.12.3839.3839,0,0,1,.2675-.72,1.15,1.15,0,0,0,.4009.0718h3.294a.3838.3838,0,1,1,0,.7676Zm10.5312-1.647a.3839.3839,0,0,1-.3838-.3838v-3.84a.3838.3838,0,1,1,.7676,0v3.84A.3839.3839,0,0,1,206.291,93.5848ZM190.93,91.723a.3839.3839,0,0,1-.3838-.3838v-3.84a.3838.3838,0,1,1,.7676,0v3.84A.3839.3839,0,0,1,190.93,91.723Zm15.3613-5.8184a.3838.3838,0,0,1-.3838-.3837v-3.84a.3838.3838,0,1,1,.7676,0v3.84A.3838.3838,0,0,1,206.291,85.9046ZM190.93,84.0433a.3839.3839,0,0,1-.3838-.3838v-3.84a.3838.3838,0,1,1,.7676,0v3.84A.3839.3839,0,0,1,190.93,84.0433ZM206.291,78.225a.3839.3839,0,0,1-.3838-.3838v-3.84a.3838.3838,0,0,1,.7676,0v3.84A.3839.3839,0,0,1,206.291,78.225ZM190.93,76.3631a.3838.3838,0,0,1-.3838-.3837V72.14a.3838.3838,0,1,1,.7676,0v3.84A.3838.3838,0,0,1,190.93,76.3631Zm15.3613-5.8183a.3839.3839,0,0,1-.3838-.3838v-3.84a.3838.3838,0,0,1,.7676,0v3.84A.3839.3839,0,0,1,206.291,70.5448ZM190.93,68.683a.3839.3839,0,0,1-.3838-.3838V65.6639a1.9066,1.9066,0,0,1,.56-1.3554.3839.3839,0,0,1,.5439.5419,1.1457,1.1457,0,0,0-.3364.8135v2.6353A.3839.3839,0,0,1,190.93,68.683Zm13.0561-4.1714h-3.84a.3838.3838,0,1,1,0-.7676h3.84a.3838.3838,0,1,1,0,.7676Zm-7.68,0h-3.84a.3838.3838,0,1,1,0-.7676h3.84a.3838.3838,0,0,1,0,.7676Z"/><path id="46ed55fd-7247-4c10-b79f-3cf8daf58a8f" data-name="Chart-bar-base" class="1b31001b-c95f-4c64-a0fb-e9e0d2e9b914" d="M211.6674,83.328h12.2889a1.5361,1.5361,0,0,1,1.5361,1.536v8.448a1.5361,1.5361,0,0,1-1.5361,1.536H211.6674a1.536,1.536,0,0,1-1.5361-1.536V84.864A1.536,1.536,0,0,1,211.6674,83.328Z"/><path id="db6fabc1-7580-4284-81f6-3352c153520d" data-name="Chart-bar-base" class="d3189d27-0527-4c20-8a61-4ab4a5b41e5f" d="M231.2528,71.808h12.2889a1.5361,1.5361,0,0,1,1.5361,1.536V93.312a1.5361,1.5361,0,0,1-1.5361,1.536H231.2528a1.536,1.536,0,0,1-1.5361-1.536V73.344A1.536,1.536,0,0,1,231.2528,71.808Z"/><path id="ec4a6b59-c87d-4b9b-90c7-3a8d04c151d3" data-name="Chart-bar-base" class="7048e49e-3291-4540-92cf-266f6e732bfb" d="M250.4542,60.288h12.2889a1.5361,1.5361,0,0,1,1.5361,1.536V93.312a1.5361,1.5361,0,0,1-1.5361,1.536H250.4542a1.536,1.536,0,0,1-1.5361-1.536V61.824A1.536,1.536,0,0,1,250.4542,60.288Z"/><path class="49525185-1cd8-4c13-a4df-de1c303b4b7e" d="M185.5537,95.2318h-1.3159a.3838.3838,0,1,1,0-.7676h1.3159a1.1534,1.1534,0,0,0,1.1519-1.1523v-.11a.3838.3838,0,1,1,.7675,0v.11A1.9217,1.9217,0,0,1,185.5537,95.2318Zm-5.1558,0h-3.84a.3838.3838,0,1,1,0-.7676h3.84a.3838.3838,0,0,1,0,.7676Zm-7.6684-.0952a.3785.3785,0,0,1-.1338-.0244,1.93,1.93,0,0,1-1.251-1.8V91.3387a.3838.3838,0,0,1,.7676,0v1.9732a1.1588,1.1588,0,0,0,.751,1.0805.3842.3842,0,0,1-.1338.7442Zm14.36-5.3916a.3838.3838,0,0,1-.3838-.3838v-3.84a.3838.3838,0,0,1,.7675,0v3.84A.3838.3838,0,0,1,187.0894,89.745Zm-15.3609-1.8623a.3839.3839,0,0,1-.3838-.3838v-3.84a.3838.3838,0,0,1,.7676,0v3.84A.3839.3839,0,0,1,171.7285,87.8827Zm15.3609-5.8174a.3838.3838,0,0,1-.3838-.3838v-3.84a.3838.3838,0,1,1,.7675,0v3.84A.3838.3838,0,0,1,187.0894,82.0653Zm-15.3609-1.8628a.3839.3839,0,0,1-.3838-.3838v-3.84a.3838.3838,0,0,1,.7676,0v3.84A.3839.3839,0,0,1,171.7285,80.2025Zm15.3609-5.8174a.3838.3838,0,0,1-.3838-.3838v-3.84a.3838.3838,0,1,1,.7675,0v3.84A.3838.3838,0,0,1,187.0894,74.3851Zm-15.3609-1.8623a.3839.3839,0,0,1-.3838-.3838v-3.84a.3838.3838,0,0,1,.7676,0v3.84A.3839.3839,0,0,1,171.7285,72.5228Zm15.3609-5.8179a.3837.3837,0,0,1-.3838-.3837v-3.84a.3838.3838,0,1,1,.7675,0v3.84A.3837.3837,0,0,1,187.0894,66.7049Zm-15.3609-1.8623a.3838.3838,0,0,1-.3838-.3838v-3.84a.3838.3838,0,1,1,.7676,0v3.84A.3838.3838,0,0,1,171.7285,64.8426Zm15.3609-5.8173a.3838.3838,0,0,1-.3838-.3838v-3.84a.3838.3838,0,1,1,.7675,0v3.84A.3838.3838,0,0,1,187.0894,59.0253Zm-15.3609-1.8628a.3839.3839,0,0,1-.3838-.3838V54.1439a1.9077,1.9077,0,0,1,.5606-1.356.3839.3839,0,0,1,.5439.542,1.1452,1.1452,0,0,0-.3369.814v2.6348A.3839.3839,0,0,1,171.7285,57.1625Zm13.0562-4.1709h-3.84a.3838.3838,0,0,1,0-.7676h3.84a.3838.3838,0,0,1,0,.7676Zm-7.68,0h-3.84a.3838.3838,0,0,1,0-.7676h3.84a.3838.3838,0,0,1,0,.7676Z"/></g><g id="739da44d-238d-4359-a144-cd6eb9b96369" data-name="UI"><path id="99a3077c-510a-4b12-8b74-c4b2fe553122" data-name="UI-base" class="88eab73a-8e17-4a38-8297-11203ddcf652" d="M102.6035,56.448h19.2014a1.5361,1.5361,0,0,1,1.5361,1.536v19.2a1.5361,1.5361,0,0,1-1.5361,1.536H102.6035a1.536,1.536,0,0,1-1.5361-1.536v-19.2A1.536,1.536,0,0,1,102.6035,56.448Z"/><path class="49525185-1cd8-4c13-a4df-de1c303b4b7e" d="M75.7241,79.1039H72.8735a.3838.3838,0,0,1,0-.7676h2.8482a1.3816,1.3816,0,0,0,.6929-.2315.3839.3839,0,0,1,.4619.6133A1.9,1.9,0,0,1,75.7241,79.1039Zm-6.6909,0h-3.84a.3838.3838,0,0,1,0-.7676h3.84a.3838.3838,0,0,1,0,.7676Zm-7.68,0h-3.84a.3838.3838,0,1,1,0-.7676h3.84a.3838.3838,0,1,1,0,.7676Zm-7.68,0h-3.84a.3838.3838,0,0,1,0-.7676h3.84a.3838.3838,0,1,1,0,.7676Zm-7.68,0h-3.84a.3838.3838,0,0,1,0-.7676h3.84a.3838.3838,0,0,1,0,.7676Zm-7.68,0h-3.84a.3838.3838,0,0,1,0-.7676h3.84a.3838.3838,0,0,1,0,.7676Zm-7.68,0h-3.84a.3838.3838,0,0,1,0-.7676h3.84a.3838.3838,0,0,1,0,.7676Zm-7.68,0h-.9956a1.9222,1.9222,0,0,1-1.92-1.92v-.43a.3838.3838,0,0,1,.7676,0v.43a1.1539,1.1539,0,0,0,1.1523,1.1524h.9956a.3838.3838,0,0,1,0,.7676ZM77.2578,75.15a.3839.3839,0,0,1-.3838-.3838v-3.84a.3838.3838,0,1,1,.7676,0v3.84A.3839.3839,0,0,1,77.2578,75.15ZM20.4214,73.2972a.3838.3838,0,0,1-.3838-.3838v-3.84a.3838.3838,0,0,1,.7676,0v3.84A.3838.3838,0,0,1,20.4214,73.2972ZM77.2578,67.47a.3839.3839,0,0,1-.3838-.3838v-3.84a.3838.3838,0,0,1,.7676,0v3.84A.3839.3839,0,0,1,77.2578,67.47ZM20.4214,65.6175a.3838.3838,0,0,1-.3838-.3837v-3.84a.3838.3838,0,0,1,.7676,0v3.84A.3838.3838,0,0,1,20.4214,65.6175ZM77.2578,59.79a.3839.3839,0,0,1-.3838-.3838V57.9838a1.1534,1.1534,0,0,0-1.1523-1.1519.3838.3838,0,1,1-.0044-.7676h.0044a1.9218,1.9218,0,0,1,1.92,1.9195v1.4223A.3839.3839,0,0,1,77.2578,59.79ZM20.4805,57.9437a.3847.3847,0,0,1-.3692-.49,1.9289,1.9289,0,0,1,1.8462-1.3892h3.84a.3838.3838,0,1,1,0,.7676h-3.84a1.1568,1.1568,0,0,0-1.1079.8335A.3845.3845,0,0,1,20.4805,57.9437Zm51.3969-1.1118h-3.84a.3838.3838,0,1,1,0-.7676h3.84a.3838.3838,0,0,1,0,.7676Zm-7.68,0h-3.84a.3838.3838,0,1,1,0-.7676h3.84a.3838.3838,0,0,1,0,.7676Zm-7.68,0h-3.84a.3838.3838,0,1,1,0-.7676h3.84a.3838.3838,0,1,1,0,.7676Zm-7.68,0h-3.84a.3838.3838,0,0,1,0-.7676h3.84a.3838.3838,0,1,1,0,.7676Zm-7.68,0h-3.84a.3838.3838,0,0,1,0-.7676h3.84a.3838.3838,0,1,1,0,.7676Zm-7.68,0h-3.84a.3838.3838,0,0,1,0-.7676h3.84a.3838.3838,0,1,1,0,.7676Z"/><path id="30887a41-7678-4991-9af1-a99d2999aae8" data-name="UI-base" class="818c9045-ca83-43d8-a380-7d1bcebb6c03" d="M21.9576,87.168H87.2424a1.5361,1.5361,0,0,1,1.5361,1.536v19.2a1.5361,1.5361,0,0,1-1.5361,1.536H21.9576a1.5361,1.5361,0,0,1-1.5361-1.536v-19.2A1.5361,1.5361,0,0,1,21.9576,87.168Z"/><path class="49525185-1cd8-4c13-a4df-de1c303b4b7e" d="M121.8047,113.28H102.6035a2.3069,2.3069,0,0,1-2.3042-2.3042v-19.2a2.3068,2.3068,0,0,1,2.3042-2.3037h19.2012a2.3068,2.3068,0,0,1,2.3042,2.3037v19.2A2.3069,2.3069,0,0,1,121.8047,113.28ZM102.6035,91.0082a.7688.7688,0,0,0-.7681.7675v19.2a.7692.7692,0,0,0,.7681.7681h19.2012a.7692.7692,0,0,0,.7681-.7681v-19.2a.7688.7688,0,0,0-.7681-.7675Z"/><path id="7fa6acb8-24e6-4815-94bf-f683e2c9c58a" data-name="UI-base" class="d2f3c94d-8d22-4783-b8d8-f22733f6b7da" d="M102.6035,124.032h19.2014a1.5361,1.5361,0,0,1,1.5361,1.536v19.2a1.5361,1.5361,0,0,1-1.5361,1.536H102.6035a1.536,1.536,0,0,1-1.5361-1.536v-19.2A1.536,1.536,0,0,1,102.6035,124.032Z"/><path class="49525185-1cd8-4c13-a4df-de1c303b4b7e" d="M118.9541,180.48h-3.84a.3838.3838,0,1,1,0-.7675h3.84a.3838.3838,0,1,1,0,.7675Zm-7.68,0h-3.84a.3838.3838,0,1,1,0-.7675h3.84a.3838.3838,0,1,1,0,.7675Zm-7.68,0h-.99a1.9221,1.9221,0,0,1-1.92-1.92v-.4355a.3838.3838,0,0,1,.7676,0v.4355a1.1535,1.1535,0,0,0,1.1523,1.1524h.99a.3838.3838,0,0,1,0,.7675Zm19.1333-.3076a.3837.3837,0,0,1-.23-.6914,1.14,1.14,0,0,0,.46-.9209v-2.415a.3838.3838,0,0,1,.7676,0v2.415a1.9283,1.9283,0,0,1-.7681,1.5362A.38.38,0,0,1,122.7271,180.1722Zm-21.66-5.5039a.3839.3839,0,0,1-.3838-.3838v-3.84a.3838.3838,0,0,1,.7676,0v3.84A.3839.3839,0,0,1,101.0674,174.6683Zm22.2734-1.98a.3838.3838,0,0,1-.3838-.3838v-3.84a.3838.3838,0,0,1,.7676,0v3.84A.3838.3838,0,0,1,123.3408,172.6888Zm-22.2734-5.7011a.3839.3839,0,0,1-.3838-.3838v-3.84a.3838.3838,0,0,1,.7676,0v3.84A.3839.3839,0,0,1,101.0674,166.9877Zm22.2734-1.98a.3839.3839,0,0,1-.3838-.3838v-3.84a.3838.3838,0,0,1,.7676,0v3.84A.3839.3839,0,0,1,123.3408,165.0082Zm-22.2124-5.6944a.4149.4149,0,0,1-.1074-.0146.3842.3842,0,0,1-.2612-.4766,1.93,1.93,0,0,1,1.8437-1.3828h3.84a.3838.3838,0,0,1,0,.7676h-3.84a1.1587,1.1587,0,0,0-1.1064.83A.3838.3838,0,0,1,101.1284,159.3138Zm20.6753-1.1064h-3.84a.3838.3838,0,0,1,0-.7676h3.84a.3838.3838,0,1,1,0,.7676Zm-7.68,0h-3.84a.3838.3838,0,0,1,0-.7676h3.84a.3838.3838,0,1,1,0,.7676Z"/><path id="1a80bc72-7f56-4af6-82fa-0f4b75b73117" data-name="UI-base" class="991299af-d03e-44d0-a682-3d6cc16b9925" d="M21.5736,118.272H88.01a1.536,1.536,0,0,1,1.5361,1.536v67.2a1.536,1.536,0,0,1-1.5361,1.536H21.5736a1.536,1.536,0,0,1-1.5361-1.536v-67.2A1.536,1.536,0,0,1,21.5736,118.272Z"/></g><g id="612e43db-2fb1-42a8-b102-ecf8ee8629d8" data-name="Titlebar"><path id="8abe8daf-4e7b-4527-9a93-bfd208022180" data-name="Titlebar-base" class="d3b9b1d3-444a-401b-9437-914c56ee0e76" d="M8.5167,0H282.3285a7.68,7.68,0,0,1,7.68,7.68V28.8a1.536,1.536,0,0,1-1.5361,1.536H2.3722A1.5361,1.5361,0,0,1,.8361,28.8V7.68A7.68,7.68,0,0,1,8.5167,0Z"/><g id="4e813d4f-762e-496a-a29a-685ee747107b" data-name="Titlebar-button"><circle class="df9631d6-4ab7-4f81-b9b9-c80e299a940f" cx="15.2372" cy="15.168" r="4.8003"/><circle class="df9631d6-4ab7-4f81-b9b9-c80e299a940f" cx="30.2142" cy="15.168" r="4.8003"/><circle class="df9631d6-4ab7-4f81-b9b9-c80e299a940f" cx="45.1913" cy="15.168" r="4.8003"/></g></g><g id="9289b770-9731-4979-9dd5-8a84e5da162f" data-name="Chart"><path class="49525185-1cd8-4c13-a4df-de1c303b4b7e" d="M262.9629,117.888H159.44a.7681.7681,0,1,1,0-1.5361H262.9629a.7681.7681,0,0,1,0,1.5361Z"/><path class="49525185-1cd8-4c13-a4df-de1c303b4b7e" d="M262.9629,130.1761H159.44a.7681.7681,0,1,1,0-1.5361H262.9629a.7681.7681,0,0,1,0,1.5361Z"/><path class="49525185-1cd8-4c13-a4df-de1c303b4b7e" d="M262.9629,142.4642H159.44a.7681.7681,0,1,1,0-1.5361H262.9629a.7681.7681,0,0,1,0,1.5361Z"/><path class="49525185-1cd8-4c13-a4df-de1c303b4b7e" d="M262.9629,154.7518H159.44a.7681.7681,0,1,1,0-1.5361H262.9629a.7681.7681,0,0,1,0,1.5361Z"/><path class="49525185-1cd8-4c13-a4df-de1c303b4b7e" d="M262.9629,167.0394H159.44a.7676.7676,0,1,1,0-1.5351H262.9629a.7676.7676,0,1,1,0,1.5351Z"/><path class="49525185-1cd8-4c13-a4df-de1c303b4b7e" d="M262.9629,179.3275H159.44a.7676.7676,0,1,1,0-1.5352H262.9629a.7676.7676,0,0,1,0,1.5352Z"/></g></g><g id="bba66cf5-60f1-467a-92d3-883865cc51e0" data-name="Table"><polygon id="d99d3dbb-8338-4d55-b97d-e6f36369dd76" data-name="Table-base" class="0133ae57-6a21-488d-86fa-92eb809b74eb" points="111.436 187.392 299.994 187.392 299.994 195.072 111.436 195.072 111.436 187.392"/><path id="5e46429e-9662-4dce-a681-1a638206ef80" data-name="Table-base" class="365917f8-0013-4720-88f2-8dfb662abec4" d="M120.2688,281.0658l9.045-85.2258h-9.045Zm10.7527-86.7618-9.8631,92.9344a1.2807,1.2807,0,0,1-1.2737,1.1456,1.1521,1.1521,0,0,1-1.1521-1.152V194.304Z"/><path id="0f5eecb2-5dd0-466d-b85f-04796a595d99" data-name="Table-base" class="3e295648-591b-41bc-917d-351af9c0f60c" d="M286.9368,281.0658V195.84h-9.045ZM276.184,194.304h12.2889v92.928a1.1521,1.1521,0,0,1-1.1521,1.152,1.2807,1.2807,0,0,1-1.2736-1.1456Z"/></g><g id="6b51150a-edce-4e03-b5e2-f06f563f0094" data-name="Cactus"><g id="65495484-304f-49ca-b6b8-b81e36117f94" data-name="Mask"><path id="81bcaf5b-e73c-4924-b0ce-63e7fd6a8772" data-name="path-7" class="197fc382-ad62-444a-8e0c-796c119b64bd" d="M276.184,167.04h1.1521v-4.224a2.3042,2.3042,0,0,1,4.6083,0v6.528a3.31,3.31,0,0,1-3.0722,2.304H276.184v6.144h-7.6805V161.28a3.84,3.84,0,0,1,7.6805,0Z"/></g><g class="16be6cae-122a-4039-a29f-1b140ce2135a"><path id="7ad42368-1355-42e7-a70c-9790c9b54691" data-name="Combined-Shape" class="ef6194e7-732c-4615-8446-4a66c2d9fb31" d="M268.5035,156.288h.384v24.1092h-.384Zm1.152,0h.3841v24.1092h-.3841Zm1.1521,0h.3841v24.1092h-.3841Zm1.1521,0h.384v24.1092h-.384Zm1.1521,0h.384v24.1092h-.384Zm1.1521,0h.384v24.1092h-.384Zm1.1521,0h.384v24.1092h-.384Zm1.152,0h.3841v24.1092h-.3841Zm1.1521,0h.3841v24.1092H277.72Zm1.1521,0h.384v24.1092h-.384Zm1.1521,0h.384v24.1092h-.384Zm1.1521,0h.384v24.1092h-.384Z"/></g><g id="518f2309-81dc-4014-aa61-6cfe03ec4b4a" data-name="vase"><polygon class="865939e3-f244-42da-8e04-fd4fe7e8970b" points="263.127 175.104 282.328 175.104 278.061 187.392 267.394 187.392 263.127 175.104"/><rect class="4d9c8d20-63b2-44ae-b50c-1c79491ff42d" x="262.743" y="174.72" width="19.5854" height="3.84"/></g></g><g id="af599545-94c3-454a-9701-00ee2698cd4a" data-name="Imac"><path id="42ddcc32-7088-42f5-91ff-059c83d2b95d" data-name="Imac-base" class="bfd47598-a589-4134-bd74-e77ca0b9e65d" d="M161.36,121.728H253.91a1.536,1.536,0,0,1,1.5361,1.536v52.608a1.536,1.536,0,0,1-1.5361,1.536H161.36a1.536,1.536,0,0,1-1.5361-1.536V123.264A1.536,1.536,0,0,1,161.36,121.728Z"/><polygon id="190b7c89-d410-4b3b-b846-23ba9e16d9bd" data-name="Imac-base" class="fc5f3112-e157-4fd8-9fad-3caceba8c2af" points="197.458 177.024 218.58 177.024 218.58 189.696 197.458 189.696 197.458 177.024"/><polygon id="d09960b3-147a-483d-9daa-61a1d7346569" data-name="Imac-base" class="df9631d6-4ab7-4f81-b9b9-c80e299a940f" points="163.664 125.568 251.606 125.568 251.606 173.568 163.664 173.568 163.664 125.568"/></g><g id="53d68865-ecec-4475-8f57-92f310a3f734" data-name="Girl"><g id="0443d459-e2b1-4fe2-a88a-d078d5d9f3fa" data-name="Note"><path id="a391507c-153d-477d-b415-1e2134c344b7" data-name="Note-base" class="24018ba5-2b18-439e-b586-4c5c109a7f1f" d="M107.5839,189.6455l19.6406,8.1986a1.5361,1.5361,0,0,1,.6664,2.2986L104.34,233.7671a1.5362,1.5362,0,0,1-1.85.5363l-19.6406-8.1986a1.5362,1.5362,0,0,1-.6665-2.2986l23.5512-33.6244A1.5362,1.5362,0,0,1,107.5839,189.6455Z"/><path id="fdd7037b-745a-4325-8b12-f1db31cdabd3" data-name="Combined-Shape" class="ea19e726-c563-40b3-8de4-0bd1f06a3704" d="M115.6865,190.6888a2.9063,2.9063,0,0,1,2.8022-.54,1.4665,1.4665,0,0,1,.8761,2.0758l.9.3757a1.5359,1.5359,0,0,1,.4956,2.5023l-1.9847,1.9891a1.5363,1.5363,0,0,1-1.6942.3262l-5.1913-2.2319a1.536,1.536,0,0,1-.5477-2.4244l1.7684-2.0146a1.5364,1.5364,0,0,1,1.7463-.4042Zm1.2208,1.54a1.2118,1.2118,0,0,0,1.3289-.3912.624.624,0,0,0-.2775-1.0129,1.2117,1.2117,0,0,0-1.3289.3912A.624.624,0,0,0,116.9073,192.2287Z"/></g><g id="e44d2301-4b2f-4113-9c28-003ca887e7ae" data-name="Pen"><path id="93165b54-2c05-4a45-a3f5-3713a39e78b7" data-name="Pen-base" class="3a37d151-d9b7-4361-94d3-4a54ed411cad" d="M107.4091,202.7208a1.0883,1.0883,0,0,0,.9476,1.2128l9.9718,1.2244.2652-2.16-9.9718-1.2244A1.0883,1.0883,0,0,0,107.4091,202.7208Z"/><path id="38ff521a-7052-4803-a7ba-3b5ac638ac2b" data-name="Pen-base" class="392fe244-1523-4461-96e2-28104c2e8415" d="M107.7611,204.3479a.2419.2419,0,0,0,.21.2695l3.3248.4082a.2418.2418,0,0,0,.0589-.48l-3.3247-.4082A.2418.2418,0,0,0,107.7611,204.3479Z"/><path id="a85edb48-93a1-436f-b2a9-2e918f4c7808" data-name="Pen-base" class="b73b5477-afa8-4236-b3d4-e94910cc2590" d="M105.96,202.5428a.6046.6046,0,0,0,.5264.6738l.7928.0974a.6047.6047,0,0,0,.1474-1.2l-.7928-.0973A.6046.6046,0,0,0,105.96,202.5428Z"/><polygon id="e0755512-0aa6-4a3f-958c-65a8de0be8bf" data-name="Pen-base" class="b73b5477-afa8-4236-b3d4-e94910cc2590" points="118.413 202.975 118.147 205.136 120.258 204.42 118.413 202.975"/></g><g id="41cf0c89-c7e3-491c-9fe3-bfb14a831ec7" data-name="Foot"><path id="eec0f1ff-5538-42d4-9919-d104a425af6b" data-name="Leg" class="9f624377-06a2-43ee-9cb9-954c7d017c7b" d="M115.0577,285.0224c.0519-.5478,3.2628-3.6719,6.7173-.0342s4.373,4.9423,5.97,6.305a8.5993,8.5993,0,0,0,3.3516,1.8332l-6.5877.4167-9.489-1.0915Q115.0058,285.57,115.0577,285.0224Z"/><path id="4e1bb8a5-2d0c-45e5-9ec2-29faeec2df21" data-name="Pants" class="75f01d31-b537-46a6-8e91-646446bd4e55" d="M79.7518,280.12,71.87,257.66q29.7254-24.544,42.6059-16.8048c12.88,7.7393,10.23,44.2647,10.3661,45.32s-7.5346,3.9615-8.9861,1.0511-9.6243-20.4528-10.4536-26.8817Q100.1824,267.26,79.7518,280.12Z"/><polygon id="8f79f51f-57fc-4f1e-b490-c883b427d2c4" data-name="Leg" class="9f624377-06a2-43ee-9cb9-954c7d017c7b" points="58.534 295.876 48.08 293.505 45.268 294.428 49.522 288.831 56.961 287.298 58.534 295.876"/><path id="75a76b41-d978-40ae-8cc2-fada6b7fd8a6" data-name="Shoes" class="85747e15-eb22-428f-b265-421316d7876a" d="M115.02,288.3206c1.3639-.6788,3.0766,3.0193,5.5766,3.0193s4.0553-3.358,4.6942-3.0193c1.8678.99,4.5785,1.4713,7.5618,2.6359,7.34,2.8652,8.05,3.2765,6.9827,7.534q0,1.4193-25.01,1.4193a19.06,19.06,0,0,1-1.0907-5.5437C113.6558,291.79,113.6558,288.9994,115.02,288.3206Z"/><path id="f3fcddf6-d705-4069-9933-47910ede3c98" data-name="Pants" class="63a81b92-190b-4a57-a844-c5f1197d708b" d="M122.5378,284.4959c-6.0454,18.5948-63.7656,15.0871-67.6261,13.264-2.2029-1.04.0895-10.0054,1.3043-10.4428,2.8224-1.0162,42.1841-4.5125,34.626-2.8212s-41.3657-3.0288-40.29-20.5394c.71-11.5584,2.0175-14.6711,9.6462-12.791,3.9286.9683,13.4264,5.1435,17.2322,6.2294C102.2269,264.47,128.0367,267.5824,122.5378,284.4959Z"/><path id="d22acde4-d077-40f3-90e6-56c46d42c7ab" data-name="Shoes" class="d5240f19-5038-4b08-94bd-d296a803f7b0" d="M54.25,287.8515c-.28,1.3052-3.38.2471-4.77,1.9037s.1121,4.673-.4819,4.8961c-1.7364.6522-3.5829,2.1636-6.0626,3.4516-6.1007,3.1689-6.7858,3.3966-9.1931.1712q-1-.8394,12.9059-17.4112a18.53,18.53,0,0,1,4.5141,2.5559C53.0216,284.89,54.53,286.5463,54.25,287.8515Z"/><path class="eb30d8c4-524a-417b-865b-405eded3375e" d="M67.064,293.0814a.25.25,0,0,1-.0186-.499q.97-.0747,1.9131-.1514a.25.25,0,0,1,.04.4981q-.9434.0761-1.915.1513Zm5.74-.4795a.25.25,0,0,1-.022-.499q.9712-.0879,1.9107-.1777a.25.25,0,1,1,.0468.498q-.94.0894-1.9126.1777Zm5.7314-.5644a.25.25,0,0,1-.0263-.4991q.9726-.1039,1.9062-.2119a.2538.2538,0,0,1,.2774.22.25.25,0,0,1-.22.2763q-.9353.1085-1.91.2139Zm5.72-.6827a.25.25,0,0,1-.0323-.498q.9756-.1289,1.9-.2607a.25.25,0,1,1,.07.4941q-.9258.1334-1.9043.2627C84.2773,291.3539,84.2666,291.3548,84.2554,291.3548Zm5.6948-.8593a.25.25,0,0,1-.042-.4961q.9792-.17,1.8838-.3438a.25.25,0,1,1,.0947.49q-.9089.1757-1.8935.3457A.2157.2157,0,0,1,89.95,290.4955Zm5.6387-1.169a.25.25,0,0,1-.0616-.4922c.6573-.167,1.2754-.3379,1.8384-.51a.2531.2531,0,0,1,.312.166.25.25,0,0,1-.1665.3125c-.57.1738-1.1963.3476-1.8608.5156A.2223.2223,0,0,1,95.5889,289.3265Zm5.3955-1.958a.25.25,0,0,1-.1265-.4658,3.8838,3.8838,0,0,0,1.3447-1.1611.25.25,0,1,1,.4229.2656,4.3487,4.3487,0,0,1-1.5147,1.3271A.2468.2468,0,0,1,100.9844,287.3685Zm.0459-4.3994a.2494.2494,0,0,1-.1587-.0566q-.7274-.5978-1.4986-1.1856a.25.25,0,0,1,.3028-.3984q.7785.5932,1.5132,1.1972a.25.25,0,0,1-.1587.4434Zm-4.6314-3.42a.2493.2493,0,0,1-.1386-.042q-.7852-.5244-1.6065-1.04a.25.25,0,0,1,.2666-.4238q.8277.5216,1.6172,1.0479a.25.25,0,0,1-.1387.458Zm-4.914-3.001a.2542.2542,0,0,1-.1226-.0322q-.8239-.4629-1.68-.918a.25.25,0,0,1,.2354-.4414q.86.4586,1.6894.9238a.25.25,0,0,1-.1225.4678Zm-5.1094-2.6572a.242.242,0,0,1-.1089-.0254q-.8526-.4116-1.7319-.8164a.25.25,0,0,1,.209-.4551q.8839.4072,1.7407.8223a.25.25,0,0,1-.1089.4746Zm-5.2583-2.3721a.2345.2345,0,0,1-.0869-.0176l-.0425-.0175a.25.25,0,0,1,.1914-.4629.2717.2717,0,0,1,.1567.3359A.2445.2445,0,0,1,81.1172,271.5189Z"/></g><g id="b51f5f94-3d9f-457e-b9fa-fb1ee1581478" data-name="Body"><path id="e4204f2a-3d13-4d1b-94cc-8f18f24d18b7" data-name="path-15" class="6a3ccb29-0fad-4cae-a359-00345d633004" d="M59.6542,186.4182c7.5115-4.3621,16.1085,6.3785,18.1253,10.7364s7.7385,4.4067,5.3555,24.1489q-2.3831,19.7422,1.7885,21.3464,7.498-1.0663,3.9027,9.0268c-3.5952,10.093-8.3247,9.973-17.373,11.094s-15.624-1.9159-19.3313-6.2645,4.6544-13.1357,0-21.4392c-1.7978-3.2074-3.1257-22.8871-3.1257-29.3156S52.1426,190.78,59.6542,186.4182Z"/><g class="b744c9ac-c9c4-442b-acaf-de73c28b06ca"><path id="b7566e47-56ef-45ec-9529-e6a7d7029201" data-name="Shadow" class="76a469e4-2c22-4d84-98b0-5ed4e739a862" d="M62.1542,189.0572c3.0957-.7068,13.6416-.1459,14.6271,9.3476a77.9281,77.9281,0,0,0,4.4757,18.9595q3.4267,8.4917,22.0887,10.2166,3.6377-.2172,4.3752,3.48a10.77,10.77,0,0,1-.9446,7.083q-31.1046,6.1923-40.4131,0c-9.3084-6.1921-14.8642-24.41-13.43-34.9056S59.0584,189.7639,62.1542,189.0572Z"/></g></g><g id="5ce0ab2f-a106-4295-b748-55cb8dad7684" data-name="Head"><path id="e425bbe8-1418-4e40-8b2b-1265dc56ec1a" data-name="hair" class="7fde6f28-964a-4031-9bcf-48e739b0dae2" d="M80.3728,172.3417q7.6172,6.6351,6.4034,15.5893t-13.42,8.12l-15.87-21.3388Z"/><path id="a120afc0-fc7a-49c4-b503-d91aebc9287f" data-name="Face" class="9f624377-06a2-43ee-9cb9-954c7d017c7b" d="M94.3649,161.7972q-.2474,7.5258-1.4493,10.5669c-.5431,1.3741.8366,1.7922,0,2.97-.3762.53-2.8352,1.9074-3.2327,2.4149-3.8635,4.9326-8.5108,8.6734-9.5964,8.2232a31.774,31.774,0,0,1-5.278-3.8555q-3.6378,4.3735-3.1779,6.2538c.46,1.88-5.2546,4.5076-7.413,2.2538q-2.1584-2.2539-3.0519-7.6748l1.3772-8.0641,4.3614-7.956,6.2235-5.132,18.39-.8081Z"/><path id="42c23c15-3e77-44b7-b973-2029040af46b" data-name="Hair" class="829f793e-3bd8-478e-99c2-c18d78d22fdf" d="M93.5526,161.87q-2.0467,9.2149-.8088,12.7039-2.0161,2.1042-3.4123,3.2886c-1.34,1.1366,17.7309-4.9785,17.7309-14.6813s-4.3509-10.1321-6.825-10.9107-8.2068-17.8823-23.2157-16.3587S65.8891,148.984,55.8758,155.3s-17.76,17.7288-11.4216,27.1042,13.543,10.4327,23.5943,7.6739c5.6087-1.5394,5.1731-11.3464,5.707-20.39.04-.6807-1.8036-.5031-1.9568-2.2593s.6225-3.7124,1.9568-4.248c3.2662-1.3112,7.8526,3.8443,11.02,3.204Q95.8412,164.1487,93.5526,161.87Z"/></g><g id="f41e5366-01f2-4b8b-b24a-add781d49ccf" data-name="Hand"><path class="9f624377-06a2-43ee-9cb9-954c7d017c7b" d="M108.126,218.8274l-4.3964-3.365,6.2359-5.2471,1.18-5.0778.7379-.9035a2.8786,2.8786,0,0,0,2.295-.1887c.7927-.59,1.9022-2.2439,2.7779-1.9857.134.04,1.2123.3808,1.2973.6817.1266.4478-.7515.9144-.5674,1.0362,1.5132,1.0008,2.5712,3.1,1.7147,4.5829q-1.4886,2.5783-5.929,5.0763Z"/><path id="b357ce64-7a28-44da-91cd-14faf7c0c0b0" data-name="Sleeve" class="3c15adf7-05bd-44f8-b613-38f447b157e0" d="M64.0743,186.7532c3.0958-.7068,11.8927,1.2951,12.8782,10.7886s.6791,18.7511,4.1115,22.289,6.1043.4746,25.2613-6.967q3.6377-.2172,4.3752,3.4806t0,3.4864q-24.0294,22.5656-34.5813,18.9278c-10.5519-3.6379-22.7-27.3285-21.2656-37.8238S60.9785,187.46,64.0743,186.7532Z"/></g></g><g id="034aefe8-62b9-4b07-bb95-bb3bceb48b8a" data-name="Girl"><path id="345a8f40-e885-4b6d-a750-d89c0aa05750" data-name="Jacket" class="08051a1f-44da-4318-8cd6-0681f62a623b" d="M279.2043,230.6q6.9273,10.398,67.3016,11.8954H365.92l-12.3463-26.5264L317.9546,199.64Q272.2769,220.2019,279.2043,230.6Z"/><g id="c505f71a-a375-40be-98c4-5813143d9ae2" data-name="Head"><path id="4dad7193-2ee3-4b7e-a7f5-1aa4f3e1b3f6" data-name="Face" class="9f624377-06a2-43ee-9cb9-954c7d017c7b" d="M302.7464,66.218q-2.5515,4.7793-2.8009,6.6731c-.266,2.02.8761,3.6539,1.0145,4.8783.1817,1.608-1.0751,1.7066-.5288,3.1893.2457.6667,2.4424,2.8189,2.7168,3.4684,2.6663,6.3117,6.4955,11.5827,7.7656,11.4122a34.6144,34.6144,0,0,0,6.648-2.5939q5.5563,2.791-.0166,11.0291c-5.573,8.238-6.32,13.8391.7144,13.0189q7.0339-.82,22.4447-14.1746-5.5762-2.5272-7.4784-5.7979t-.7052-8.2731l-2.3326-9.6533-5.0932-7.1883-19.1233-6.0411Z"/><path id="be886489-c679-4e45-84c1-7f5832de4e29" data-name="Hair" class="ca7565d4-6973-448d-a393-0ad69ed2e338" d="M330.7023,55.8712Q338.289,37.42,350.2192,39.1488c11.93,1.7282,13.9433,19.84,18.4325,22.6635s21.3281,10.4429,27.33,17.2184,1.0939,16.8841,9.2039,19.51,32.8574,15.4127,9.2562,43.6972c-14.7361,17.66-51.6079,19.5205-51.6085-.0016-.0007-22.3238-12.6114-12.1823-19.3038-22.3244s1.7018-15.1142-.0006-21.3731-7.3851-1.5278-12.8257-9.5513c-5.8271-8.5935-3.0993-12.7139-1.55-19.9449A63.3319,63.3319,0,0,0,330.7023,55.8712Z"/><path id="95decd0b-05da-46dc-84c8-0a6dfc0f5b63" data-name="Neck" class="12fd7c7f-59e0-4a07-8e4c-246a830c8fd6" d="M317.1892,93.2453q5.5521,2.7845-.008,10.9865c-5.56,8.202-6.3016,13.7809.7235,12.9693q7.0251-.8118,22.4073-14.1027-5.5716-2.5218-7.4741-5.7813t-.7107-8.2418l-14.9308-3.974a6.721,6.721,0,0,1,.7305,4.31c-.4093,2.4026-5.3385,4.8113-5.7028,5.7479Q312.0612,95.5783,317.1892,93.2453Z"/><ellipse id="788779e4-c0d7-44d1-8f71-7965b60eb3b3" data-name="hairbands" class="43c51c27-0e03-418c-9d82-885c394f54c4" cx="338.3235" cy="59.3295" rx="6.528" ry="5.9524" transform="translate(193.4511 370.7693) rotate(-75)"/><path id="eff0ec9a-1fed-4219-8154-0ad1277fa755" data-name="Hair" class="949a874a-59a9-42c5-a711-46598a18408b" d="M300.7259,79.7916c-.9424,1.3382,2.2457,3.3239,2.9539,5.1541,1.14,1.6426-28.7444-2.1561-24.6554-21.5428s25.9657-11.53,28.7972-11.6507,17.8857-6.3038,24.1762-2.6005c6.241,3.6742,9.9157,12.0434,8.45,22.8389-1.7677,13.0227-5.6039,20.0142-8.427,20.0127q-4.7346-.0025-14.5774-7.051,4.4657-.7131,3.15-5.9178c-1.3156-5.2047-6.2423-4.0784-7.311-.09l-1.5781-3.17L300.3665,74.585Q301.8776,78.156,300.7259,79.7916Z"/></g><g id="fb716ea7-41c5-4136-b144-e59224911371" data-name="Foot"><path id="f1cf4be5-5c2c-4687-b755-45e188f6ef7a" data-name="Leg" class="69f7c7ee-8457-4177-a3d0-e3e4eedddb0d" d="M306.7335,288.39l1.2228,7.5839a6.6456,6.6456,0,0,1-5.512,3.0284,11.1759,11.1759,0,0,1-5.8395-1.5272l-1.225-8.2892Z"/><path id="32fb86ed-8287-43b0-88ae-5ce80df277da" data-name="Leg" class="dc4d22c8-de0c-4003-907c-d0def59434ae" d="M344.6611,288.39l1.2229,7.5839a6.6456,6.6456,0,0,1-5.512,3.0284,11.1759,11.1759,0,0,1-5.8395-1.5272l-1.225-8.2892Z"/><path id="f975113d-adf9-4c32-96cb-4f5c04aad1e9" data-name="Shoes" class="a3ac8371-f783-4587-98e4-3a604565ada8" d="M345.9221,294.9337c.9279,0,.9279,3.13.9683,5.5119a22.0068,22.0068,0,0,1-.472,3.9633,1.5387,1.5387,0,0,1-1.4338,1.286c-14.8924.5384-23.8661.5238-23.8934-.0436-1.19-3.8729-.5416-4.2907,6.2119-7.3288,2.7451-1.2349,5.2649-1.8246,6.972-2.8385.5839-.3468,1.8077,2.4573,5.8446,2.4573S344.9941,294.9337,345.9221,294.9337Z"/><path id="cfbaa7df-1875-48e9-bf50-372ef0d7929f" data-name="Shoes" class="8bf53761-5e19-419e-8ff1-7f312577e71e" d="M307.9944,294.9337c.9279,0,.9279,3.13.9683,5.5119a21.9975,21.9975,0,0,1-.472,3.9633,1.5387,1.5387,0,0,1-1.4338,1.286c-14.8924.5384-23.8661.5238-23.8933-.0436-1.19-3.8729-.5417-4.2907,6.2118-7.3288,2.7451-1.2349,5.2649-1.8246,6.972-2.8385.584-.3468,1.8078,2.4573,5.8446,2.4573S307.0664,294.9337,307.9944,294.9337Z"/><path id="d8e38c0b-fc54-4b77-873c-651d69f30226" data-name="Pants" class="a4549e85-4333-4650-bec4-247fd1d3857f" d="M349.72,164.4937q-.556,12.4907,0,13.9381.8341,2.1714-9.7823,54.1807c.606,33.8312,5.6525,52.4156,5.0474,55.7533-.9078,5.0066-11.4587,5.0064-12.7391,1.3882q-1.28-3.6183-10.597-58.8l-1.09-28.8531q-6.5148,11.34-18.2243,30.895c1.2769,35.8815,6.12,54.8731,4.4357,56.9747-1.5007,1.873-11.39,3.195-11.9839,0q-9.0286-37.128-9.0277-57.3533t18.5965-68.124Z"/><path class="d7ae9862-1794-4496-873b-f493ab8de71d" d="M340.2939,287.6283l-7.3378-52.5215a23.687,23.687,0,0,1,.0644-6.9805l7.2744-45.8984.4942.0781-7.2745,45.8985a23.1362,23.1362,0,0,0-.0625,6.8339L340.79,287.56Z"/><path id="3ed0dbff-ff8a-49d4-a556-d4f68f66e22f" data-name="Shadow" class="fdb33ef6-953c-4780-bf9a-3c8f25e1ca49" d="M302.3416,232.9841l-.15-.0433L314.8072,197.39q1.2615,1.0613,5.7516,4.7114Q314.046,213.438,302.3416,232.9841Z"/></g><path id="f4b6842e-5d5b-47c3-b82d-84dcb309253f" data-name="Body" class="99faf4d5-4c06-47c8-a5d8-a56251677e3e" d="M318.0153,103.3233l-6.4076,2.49-8.6048,17.8116q5.8594,21.3882,5.8592,26.8983,0,2.6075-1.9225,13.5557-.0481.2742-.0852.55a13.786,13.786,0,0,0,11.83,15.497c10.6308,1.4266,19.3986-.41,25.202-5.7009,3.9985-3.6456,13.992-58.7456,11.2821-61.696s-4.0679-6.9326-17.297-11.947q-16.4174,13.0465-21.0642,10.7974C313.71,110.0806,315.4724,107.3656,318.0153,103.3233Z"/><g id="c8a6755a-caa1-4982-b0f7-59e4be0b603c" data-name="Jacket"><path id="1ee51a59-4764-4fd4-88f4-8a703d8008d0" data-name="path-21" class="bef4d563-6ee6-4598-af24-cc2ce079946a" d="M341.4731,116.6245q-9.0447,34.4005-3.11,54.493c5.9344,20.0924-3.7409,43.442-1.4709,54.5308q16.9651,1.7679,29.6276,17.1768,5.3523-6.8586,4.797-30.1226c-.5554-23.2642-6.1255-24.558-6.9847-35.1482a200.4656,200.4656,0,0,1,0-26.3613l-7.9129-39.7424a82.8961,82.8961,0,0,0-8.8111-6.5847,45.3429,45.3429,0,0,0-8.1339-3.693Z"/><g class="f753815e-def9-4cc6-b83f-b83b0f17bc30"><path id="e45a3d8b-d46e-48ca-9304-80fa6637d62f" data-name="Shadow" class="473b2072-08bb-44f8-a399-9351776cc05f" d="M348.4448,140.09q-4.41-5.9246,0-19.4652c1.042-3.2,5.4332-4.0731,11.7029,0,7.5158,4.8827,18.9868,25.64,13.6291,40.8636-8.2516,23.4456-21.85,29.8722-29.3644,31.4075-1.4349.2932-1.7391-.4209-4.74,2.69q-5.1063,5.2932,1.2187-13.06,14.4717-20.538,13.2627-27.4881A47.5228,47.5228,0,0,0,348.4448,140.09Z"/></g></g><path id="96c123e4-1e65-44ae-99f0-525cbe56479e" data-name="Hand" class="9f624377-06a2-43ee-9cb9-954c7d017c7b" d="M346.2322,187.8234l-5.2012,5.53q-2.3417,4.5245-4.8666,6.1022c-1.4527.9076-3.5873-.0764-4.64-1.5536-.2143-.3006-1.6326-.34-1.7425-.6695-.2886-.8661,1.0815-2.0744,1.8877-2.8453,1.2014-1.1488-.2935-.96.2879-2.2q.5813-1.24,5.7317-2.2251l5.0267-6.4148Z"/><path id="798308a5-24b5-4951-a883-db24325a28e8" data-name="Path-46" class="b6ada41e-5f5b-4ad6-8d2c-9010707f4e46" d="M348.4448,132.41q-4.41-5.9246,0-19.4652c1.042-3.1995,5.4332-4.0731,11.7029,0,7.5158,4.8827,16.8412,28.2329,11.4835,43.4561-9.8272,27.9225-18.73,28.5022-24.2285,32.01q-5.4985,3.5076-6.318-4.5961,15.4984-22.5312,14.2895-29.4812T348.4448,132.41Z"/><path id="1aeb337b-d0be-49e9-ba10-bae38eb0bbf1" data-name="Hand" class="9f624377-06a2-43ee-9cb9-954c7d017c7b" d="M251.5594,98.2514l-5.3457-5.3907q-4.44-2.4979-5.929-5.0763c-.8565-1.4833.2015-3.5821,1.7147-4.5829.3079-.2037-3.5845-4.6-3.2512-4.6982.8757-.2582,6.0166,4.1334,6.759,4.966,1.1062,1.2407.97-.26,2.1888.3644q1.2188.6243,2.0239,5.8056l6.2359,5.2471Z"/><g id="8dad23b7-3877-4083-b26f-6b3468c71987" data-name="Jacket"><path id="c5942b89-f50f-4183-852e-8d052cc97165" data-name="path-23" class="0f7ab7fd-cab2-405b-863c-fd10ab6c318c" d="M314.6551,105.5922q-4.3234,11.3823-5.8671,16.1527-2.3168,7.1606-1.7984,11.811c1.0365,9.2979,3.92,12.3431,1.4219,34.584-.9767,8.6953-6.46,20.9361-7.5188,30.6315-1.6485,15.1037,2.4052,20.3287,1.39,22.8268-1.39,3.4189-16.2221.277-23.6447,8.0338-2.39-4.6149,6.6912-20.8868,6.6912-23.3722s.3093-21.1513,7.9365-34.8436q7.6272-13.6922,5.8286-40.0577-19.1687-3.6862-28.04-9.6136t-22.52-25.5757q2.0363-5.1612,4.67-5.1612c2.634,0,20.48,16.1986,34.2773,18.1636,5.784.8237,10.4287-2.5949,14.801-3.5794,6.9559-1.5664,12.0215-1.5069,12.8646-1.7954q1.3731-.47,1.36.7026Z"/><g class="d21d76c2-30b5-47da-897c-379b7943005a"><path id="885268f9-ce69-4ad7-b1f0-b8f756b44991" data-name="Shadow" class="473b2072-08bb-44f8-a399-9351776cc05f" d="M298.59,133.1678a19.0017,19.0017,0,0,1,1.5425-7.8724q1.458-3.0268.8177-3.5674-15.9047,7.8657-26.6279,3.5674t5.4016,11.7926Z"/></g></g></g><g id="209cebae-7a98-49b9-9a04-ff3355e1508e" data-name="Head"><path id="53a63979-05b9-43a9-8fea-f484d0e6c69c" data-name="Neck" class="9b2d22d4-0688-473d-b3df-01bc179689a0" d="M177.71,151.4141a43.5775,43.5775,0,0,1-2.865,7.62c-1.0844,1.863.8452,6.55,5.5682,6.55q4.7229,0,15.4463-4.2975a15.2332,15.2332,0,0,1-3.3606-5.6925,14.3535,14.3535,0,0,1,0-7.5975q5.431-12.7125,4.2964-15.4594t-12.1988-9.3608q-11.5457,4.7562-11.5457,8.3384v6.37q-3.3678-1.4556-3.3678,2.2819t4.3536,5.1121Z"/><path id="674dc5be-65b2-426a-9fce-21bfdfdc1110" data-name="Hair" class="30988322-e621-4963-8d0e-e4133eaae2bd" d="M187.0679,112.8414c2.2162,1.1686,8.9377,3.1176,10.125,4.9567a8.1921,8.1921,0,0,1,1.0424,7.4275q3.855,5.2973,0,14.9386c-3.855,9.6413-6.36,10.6144-11.1674,11.2167s-8.2685-4.66-9.8869-8.579a11.6147,11.6147,0,0,0-4.2166-5.5821l-.8312-6.6886s-4.9363-.4755-4.9363-8.8947S172.9644,105.4044,187.0679,112.8414Z"/></g><g id="bbb3da03-74b5-4c40-ab14-7cdda4ba4137" data-name="Man"><g id="22b478ae-3cff-4be9-8d8a-7387d52097ca" data-name="Foot"><path id="066e2641-1cdf-4ca8-b096-d26f03911381" data-name="Leg" class="9b2d22d4-0688-473d-b3df-01bc179689a0" d="M230.6234,267.3066c.4688-.3155,7.111.03,6.3249,3.5886a45.5559,45.5559,0,0,0-1.1592,6.415,2.833,2.833,0,0,1-1.4575,2.2827l-4.3675-2.2827-.8646-3.3276Q230.1548,267.6222,230.6234,267.3066Z"/><path id="7aba7b4c-db40-4173-a8e0-d81916a2b7ca" data-name="Shoes" class="af66bdf5-c066-46d1-976f-bcc7075f8c1c" d="M228.0876,272.46c1.2937-.2024,1.6913,3.32,3.7273,3.981s4.2078-1.7135,4.6368-1.2635c1.2542,1.3157,3.3319,2.4323,5.4473,4.1881,5.2045,4.32,5.6725,4.8488,3.655,8.0992q-.3826,1.178-20.75-5.4393a16.9146,16.9146,0,0,1,.6066-4.8888C226.0413,274.9784,226.7938,272.6625,228.0876,272.46Z"/><path id="d4e440fd-1d9d-43d4-9246-4c9daab03459" data-name="Leg" class="9b2d22d4-0688-473d-b3df-01bc179689a0" d="M201.7226,265.3068q.3082.4735-.4379,5.8246l-2.0962,2.7252-4.9122.3949a3.5332,3.5332,0,0,0,1.4868-1.9915,37.826,37.826,0,0,0,1.3038-5.801C197.7339,262.8758,201.4144,264.8332,201.7226,265.3068Z"/><path id="0fd79149-b0e6-4cae-9817-3cac08a86ca9" data-name="Shoes" class="5fcde369-d106-4bed-8fc3-cc6b4eaf664e" d="M200.9853,270.4615c1.4608.1326,2.0446.8411,2.6478,2.9494a14.2489,14.2489,0,0,1,.432,4.819q-9.3792,2.5287-11.2016,1.8274c-4.8938-1.883-.5984-8.3023.1283-8.9686a11.3592,11.3592,0,0,1,4.11-2.1256C199.4523,268.1993,199.5244,270.3289,200.9853,270.4615Z"/><path id="08f4599a-9d69-4700-83e7-02ca9243141f" data-name="Pants" class="a2b18461-e264-451f-8c2b-1db0a1788804" d="M222.49,220.0523q22.179-9.9608,31.8185,0c9.64,9.9608-12.8727,45.6162-14.4038,50.1194s-5.7905,1.6133-7.4025,1.1828a5.2139,5.2139,0,0,1-2.9246-2.688l6.9731-28.4037-17.5277-2.3759-5.0217-10.96Z"/><path id="08b2685d-b1d0-4c66-bdd3-bb42856fa44d" data-name="Pants" class="a2b18461-e264-451f-8c2b-1db0a1788804" d="M187.9272,220.0523q24.95-11.6651,29.4384-5.8325c4.4884,5.8325,8.3333,25.0047-14.126,53.3661a6.1715,6.1715,0,0,1-4.3144,1.448q-1.8858-.27-3.1423-3.4394l6.205-25.3317L184.46,237.8869l-5.0217-10.96Z"/></g><g id="ed65a424-13df-4fca-ba11-965ab0fdf5c2" data-name="Body"><path class="9b2d22d4-0688-473d-b3df-01bc179689a0" d="M174.8754,160.1041q10.674,4.8813,12.989,2.4407t2.0406-3.609q20.6244,1.7408,25.1287,11.2091c4.5045,9.4683,16.4116,41.04,21.6025,34.7224a59.3889,59.3889,0,0,0,7.2408-10.45q-3.4133-3.1653-3.4132-3.8535c0-.6881,2.274-.7246,3.4132-.3623s.9267-7.9306,1.6447-8.4758q.7179-.5452,1.823,5.8422,1.6377-6.8721,2.2205-6.5963t0,7.647q2.8884-3.4167,3.33-2.887t-1.7082,4.8322q2.6566-.9726,2.6566-.3623t-2.6566,2.4617l-1.6217,3.0153q-5.9093,22.9533-17.17,24.3666t-8.9715,0q2.7515,3.7765,1.9992,6.3148c-.7524,2.5382-5.8013,15.1934-11.0635,17.327q-5.2623,2.1336-30.0282-10.8273l-27.8989-25.7381-2.75-28.2128q-39.0858-22.1572-42.4256-58.1161l-1.1182-3.58a41.4081,41.4081,0,0,1-4.121-4.8024q-.2316-.58,2.4914.7183-1.3791-3.9112-1.02-4.3246t2.65,2.45q.1688-4.9887.7278-5.1946t1.6787,4.3083q.5221-3.98,1.0658-3.5265t.9857,6.2877q2.1525-1.875,2.3989-1.2064t-1.27,4.66q16.12,26.8118,27.1736,31.4873T175.7174,157.7Z"/><path class="f311c208-e2c3-4027-8266-d8bbbec76b48" d="M182.0356,165.504q6.6173,1.8711,12.9362-6.0373,15.5576,1.21,20.0619,10.6782c2.6394,5.5479,7.82,18.6844,12.7024,27.3409q3.45,6.1171-12.7024,13.74,4.8036,7.2713,9.6865,9.4373c1.1043,1.0381,1.1043,4.3426.7028,5.6973-.7524,2.5382-5.8013,15.1934-11.0635,17.327q-5.2623,2.1336-30.0282-10.8273l-27.8989-25.7381-3.49-27.9036q-13.3632-5.05-14.1178-8.1286c-3.776-15.4076,4.2234-23.9985,10.6962-21.2606a108.354,108.354,0,0,0,26.4593,6.9227Q175.4185,163.6329,182.0356,165.504Z"/><path id="2a9aaba3-0137-4450-9ee0-fb248e156971" data-name="Texture" class="ac513ef9-b75b-4c30-a51f-58b7632799c1" d="M167.4024,202.5472a4.0323,4.0323,0,1,1,5.8106,2.5054,26.54,26.54,0,0,1-3.21.27A4.0282,4.0282,0,0,1,167.4024,202.5472Zm-18.283-33.7519a4.032,4.032,0,1,1,2.8513-4.9382A4.0322,4.0322,0,0,1,149.1194,168.7953Zm18.48,16.3191a4.032,4.032,0,1,1,2.8512-4.9382A4.0323,4.0323,0,0,1,167.5993,185.1144Zm-.9878-19.2647a4.032,4.032,0,1,1,2.8512-4.9382A4.0324,4.0324,0,0,1,166.6115,165.85Zm41.6349,70.147a4.0323,4.0323,0,1,1,5.8106,2.5054,26.54,26.54,0,0,1-3.21.27A4.0284,4.0284,0,0,1,208.2464,235.9967Zm-18.283-33.7519a4.032,4.032,0,1,1,2.8513-4.9381A4.0322,4.0322,0,0,1,189.9634,202.2448Zm18.48,16.3191a4.032,4.032,0,1,1,2.8512-4.9381A4.0323,4.0323,0,0,1,208.4433,218.5639Zm-.9878-19.2647a4.032,4.032,0,1,1,2.8512-4.9382A4.0323,4.0323,0,0,1,207.4555,199.2992Zm-17.4921-16.3425a4.0016,4.0016,0,1,1,2.8513-4.8981A4.0358,4.0358,0,0,1,189.9634,182.9567Zm17.4921-2.9217a4.0016,4.0016,0,1,1,2.8512-4.8982A4.0359,4.0359,0,0,1,207.4555,180.035Z"/></g></g><g id="672ecafc-5e3e-4061-b133-b93931db4614" data-name="Chair"><polygon id="8e7183bd-b0c9-4d29-9a51-2d3010de698b" data-name="Chair-base" class="ac4093bb-9aa6-4e05-96b2-1436da36bf8d" points="207.827 250.752 212.435 250.752 212.435 269.568 207.827 269.568 207.827 250.752"/><circle id="b8d0fae1-0874-4ef3-acbf-dbe791cb71c0" data-name="Wheel" class="c2bbb8b5-1e12-47af-9ccd-daea3c53c539" cx="185.1695" cy="293.76" r="3.4562"/><circle id="cf994f2a-52e4-44e3-be8c-357dc45541e8" data-name="Wheel" class="7314bb4a-6ae4-44c7-a8fa-a2c3a0a9c80d" cx="233.557" cy="293.76" r="3.4563"/><circle id="1ddbbd10-b353-4043-90c3-c49b44064254" data-name="Wheel" class="8ef80c36-e80b-4366-86c3-e71a655a3653" cx="210.1313" cy="297.6" r="3.456" transform="translate(-87.8677 507.1651) rotate(-89.8911)"/><path id="6f949840-621d-4c14-9774-d734770c7a9b" data-name="Chair-base" class="ef5a1e95-a72b-4c72-8ea3-a077db8d228c" d="M205.4776,273.7589l-.2661-2.8615a1.5358,1.5358,0,0,1,1.5612-1.6779l6.6012.1365c.0287.0006.0575.002.0861.0042a1.536,1.536,0,0,1,1.4137,1.6493l-.1891,2.4579,21.017,14.4247q.0855.0586.1656.1247a2.3482,2.3482,0,0,1,.3169,3.3058,3.0935,3.0935,0,0,1-3.88.74l-18.2757-10.0766-1.0007,13.0011a2.843,2.843,0,0,1-2.7616,2.6238,2.7434,2.7434,0,0,1-2.8023-2.4883l-1.255-13.496-18.9275,10.436a3.0935,3.0935,0,0,1-3.88-.74,2.3482,2.3482,0,0,1,.3169-3.3058q.08-.066.1656-.1247l21.4335-14.7106Z"/><path id="8cdd84a1-1b87-40f6-929b-3da610d1d3fb" data-name="Chair-base" class="5b0fce0a-87e8-4cc4-95ec-dd48aa8766bd" d="M156.0711,180.7831c-2.3249-1.2981-5.8784-.0826-7.0008,1.5464.3613,2.3034.59,3.2989.6,3.352,3.6506,19.683,17.7965,38.6344,28.8064,50.4957q9.4141,10.1421,15.96,16.1813a20.6351,20.6351,0,0,0,11.6952-1.3551c2.3216-1.0189,5.9624-.719,5.8587-3.9115-.2137-6.58-6.06-9.9041-8.3674-19.4354-2.1646-8.9418.27-27.1569-6.2719-30.9065s-14.7351,2.7589-27.2212-2.663C161.2971,190.2518,158.3961,182.0811,156.0711,180.7831Z"/><path id="4b881267-4204-41b4-8e99-3f443e54c73f" data-name="Chair-base" class="a2b18461-e264-451f-8c2b-1db0a1788804" d="M221.335,235.722c6.264-1.72,14.7362-3.6144,19.0269,0s2.3181,9.4226-.5527,12.69q-2.8709,3.2675-25.4713,6.28l-1.3387-11.0195A16.4644,16.4644,0,0,0,221.335,235.722Z"/><path id="41d6d273-677e-43f6-917b-d6739dead377" data-name="Chair-base" class="ce83e0cc-ce84-4c44-9c3b-790eab8e1ad7" d="M149.0214,182.1138q4.2636,33.9018,7.4035,44.6131c3.1746,10.83,7.2191,15.39,11.5848,19.7326s20.6916,11.91,33.7344,12.58c11.544.5929,27.665-2.7807,33.6282-6.4892s9.0482-11.6594,2.306-13.6363-28.4763,6.1639-30.5238,5.2757c-11.392-4.9419-7.9192-39.2281-13.4112-42.8641-5.22-3.4559-16.3516.9819-29.7583-4.9347Q158.09,193.79,149.0214,182.1138Z"/></g><ellipse id="9874a515-f5f8-4cab-95aa-782749333005" data-name="Shadow" class="3209930a-0ee5-4543-848c-f2c7b95d3bcb" cx="423.6507" cy="301.248" rx="34.1785" ry="5.952"/><g id="a663c68e-d8fc-451e-84a8-08c818ac58fe" data-name="leaves"><g id="d7ff5fac-636e-4925-80b9-4747d61e68e1" data-name="Leaves"><path id="1f0cec3a-f7fe-4e3f-80c4-e84582793516" data-name="Leaf" class="bf7d7ce8-032b-414e-915a-719fa1e50103" d="M440.7654,163.68c-6.712-1.2208-8.6821,14.1374-11.2528,16.3443-2.5651,2.1872-7.8351,1.5624-8.82,7.6506s3.9287,7.2837,3.1056,12.34-11.5633,1.2852-12.844,9.2716,6.4693,12.7414,5.6893,17.55-5.4737,5.4371-7.19,16.0822,6.1783,15.1911,18.6138,19.73,21.3063,3.325,23.2535-8.1254-11.621-14.9955-11.539-21.5614c.076-6.545,9.5577-7.4,10.798-14.749s-11.6929-10.7037-10.7169-16.5784,11.915-6.0954,12.9413-12.1953-1.273-7.7106-5.5039-11.1245C443.0588,174.939,447.4773,164.9011,440.7654,163.68Z"/><path id="5e4012ba-67e0-455c-91a0-ea71d558c7a3" data-name="leaves-base" class="324da186-4c71-4f7c-9396-43d154bc4e8d" d="M428.3989,257.0091a.4169.4169,0,0,0,.6366-.24.7107.7107,0,0,0-.2487-.8119c-5.8788-3.77-8.257-8.6722-7.2419-14.8718a.6521.6521,0,0,0-.3844-.722.4483.4483,0,0,0-.5693.4079C419.4864,247.5282,422.13,252.9764,428.3989,257.0091Z"/><path id="df4b22c5-513d-4e05-9708-b8a2eb026ae4" data-name="leaves-base" class="324da186-4c71-4f7c-9396-43d154bc4e8d" d="M431.7552,231.3188c.2727.0552.5007-.1627.5093-.4867a.6762.6762,0,0,0-.4784-.6857c-4.4193-.89-7.3746-4.4818-8.9392-10.8718a.5841.5841,0,0,0-.6172-.4856.51.51,0,0,0-.3326.6642C423.5784,226.3085,426.88,230.3265,431.7552,231.3188Z"/><path id="4e3b7cb8-bd2d-4520-82f4-c34902d6aca7" data-name="leaves-base" class="324da186-4c71-4f7c-9396-43d154bc4e8d" d="M432.4044,195.9424a.3229.3229,0,0,0,.3522-.3424.4229.4229,0,0,0-.3326-.4368c-2.2814-.314-3.8046-2.0094-4.6151-5.166a.3786.3786,0,0,0-.427-.3036.358.358,0,0,0-.23.457C428.0422,193.616,429.8061,195.5812,432.4044,195.9424Z"/><path id="837799aa-052b-4e20-bce9-c8ae5e9fcb6a" data-name="leaves-base" class="324da186-4c71-4f7c-9396-43d154bc4e8d" d="M433.7665,192.0835a.3787.3787,0,0,1-.2175-.4781.3575.3575,0,0,1,.4464-.2526c2.2114.7512,4.1619-.1421,5.9229-2.7561a.3385.3385,0,0,1,.4933-.0972.4039.4039,0,0,1,.0671.5368C438.5439,191.91,436.285,192.9427,433.7665,192.0835Z"/><path id="c799ed00-a340-4d4c-8592-8c4e4980d6dc" data-name="leaves-base" class="324da186-4c71-4f7c-9396-43d154bc4e8d" d="M432.0439,223.4352a.5858.5858,0,0,1-.3056-.7256.4994.4994,0,0,1,.6485-.35c3.9046,1.5343,7.3906.0219,10.5676-4.6667a.4758.4758,0,0,1,.7153-.1224.6259.6259,0,0,1,.0865.8088C440.3224,223.4494,436.3891,225.1524,432.0439,223.4352Z"/><path id="88f69075-9aba-49a3-87bf-d793e590ce5e" data-name="leaves-base" class="324da186-4c71-4f7c-9396-43d154bc4e8d" d="M432.1753,251.6585a.6213.6213,0,0,1-.2988-.7493.4738.4738,0,0,1,.6421-.3285c3.8509,1.7219,7.3012.3339,10.46-4.2909a.457.457,0,0,1,.7072-.094.6548.6548,0,0,1,.082.8246C440.3537,252.0219,436.4606,253.5846,432.1753,251.6585Z"/><path id="629c68c3-84a3-41f8-ba89-4f43ff725f74" data-name="leaves-base" class="75ffb436-912f-4e9d-93a6-4ffe736c3497" d="M424.4839,278.12a.946.946,0,0,0,.5066,1.012c.3492.1389,1.1634.0987,1.2333-.3226a59.919,59.919,0,0,1,1.0006-10.9487c1.122-6.81,6.4195-16.9825,7-24.7679.5753-7.7674-3.7676-24.0256-3.6342-35.7635.0941-9.5007,4.0691-17.0954,5.8663-22.3579a49.3257,49.3257,0,0,0,2.3129-11.9435c-.1436-.0285-.821,6.7743-2.68,11.8626-1.8535,5.0705-5.2221,11.5058-6.1705,19.39-1.7722,14.7,4.0384,29.7768,2.4388,39.4119S427.04,258.385,425.2315,266.71Q423.4258,275.0242,424.4839,278.12Z"/></g><g id="50b46042-3287-4506-a94c-852cf6177a4a" data-name="Leaves"><path id="84752b08-5ac2-412f-82d6-73866fc13555" data-name="Leaf" class="ed2fcf33-5b79-47c4-b2dc-a884106e5623" d="M393.3386,169.903c6.4918-1.9848,10.6575,13.4715,13.5569,15.5061s8.1275,1.0082,10.0245,7.213-2.9347,7.682-1.3729,12.79,12.0348.877,14.55,9.1042-4.8509,13.1224-3.3585,18.0038,6.5,5.5949,9.8306,16.4871-4.4521,15.03-17.08,18.8911-22.1313,2.406-25.4614-8.4863,10.3567-14.3458,9.4574-20.7459-10.7817-7.014-12.943-14.0832,10.6117-10.9742,8.8458-16.75-12.8605-5.25-14.6618-11.1421.2958-7.6855,4.0856-11.4553S386.8468,171.8877,393.3386,169.903Z"/><path id="a040bd35-4439-4980-a2f9-39335a1d2c2d" data-name="Leaves-base" class="6ac01d84-dfd6-49b4-8ef7-2119f04506e9" d="M418.4278,262.3611a.508.508,0,0,1-.7034-.2587.6007.6007,0,0,1,.16-.7868c5.7274-3.5025,7.5892-8.2958,5.6885-14.5127a.5087.5087,0,1,1,.9595-.2933C426.6076,253.2964,424.5382,258.6244,418.4278,262.3611Z"/><path id="bdf9b80c-11e0-42e6-ac6f-3bbf9bced906" data-name="Leaves-base" class="6ac01d84-dfd6-49b4-8ef7-2119f04506e9" d="M411.46,237.1465a.4932.4932,0,0,1-.5775-.4646.62.62,0,0,1,.4243-.6953c4.4823-1.0319,7.1557-4.7239,8.0686-11.2176a.5114.5114,0,1,1,1,.1405C419.3948,231.8814,416.4069,236.0076,411.46,237.1465Z"/><path id="d0ac4959-b9b6-40d9-8fc5-8f48a7d027d1" data-name="Leaves-base" class="6ac01d84-dfd6-49b4-8ef7-2119f04506e9" d="M406.1264,201.8022a.337.337,0,0,1-.3947-.3143.4169.4169,0,0,1,.2889-.469c2.2773-.5152,3.63-2.3648,4.0911-5.6445a.3486.3486,0,1,1,.6827.0959C410.288,199.0728,408.7211,201.2153,406.1264,201.8022Z"/><path id="c357121b-ecaa-4feb-b6f0-73f22dce952d" data-name="Leaves-base" class="6ac01d84-dfd6-49b4-8ef7-2119f04506e9" d="M404.4008,197.944a.337.337,0,0,0,.1514-.4813.4167.4167,0,0,0-.5017-.2273c-2.1761.8464-4.3319.0694-6.5481-2.3918a.3486.3486,0,1,0-.5123.4613C399.4244,198.0083,401.9215,198.9083,404.4008,197.944Z"/><path id="36214aad-3913-4381-9d6b-69f7571c0c9f" data-name="Leaves-base" class="6ac01d84-dfd6-49b4-8ef7-2119f04506e9" d="M410.47,229.2247a.49.49,0,0,0,.2159-.7051.6208.6208,0,0,0-.7385-.34c-3.906,1.4932-7.8074.0552-11.823-4.4043a.5084.5084,0,1,0-.7453.6711C401.7176,229.2643,406.1208,230.8872,410.47,229.2247Z"/><path id="10508adf-29db-4164-b373-e167ef0064b9" data-name="Leaves-base" class="6ac01d84-dfd6-49b4-8ef7-2119f04506e9" d="M413.96,257.0309a.49.49,0,0,0,.216-.705.6207.6207,0,0,0-.7386-.34c-3.906,1.4932-7.8073.0552-11.8229-4.4044a.5084.5084,0,1,0-.7453.6711C405.2079,257.07,409.6112,258.6935,413.96,257.0309Z"/><path id="0d5f5b89-e763-40ec-8d0d-e2fdbcfb41a1" data-name="Leaves-base" class="ef6194e7-732c-4615-8446-4a66c2d9fb31" d="M425.2455,283.2264a.7373.7373,0,0,1-.4181.949c-.3577.1094-1.2362.01-1.363-.4044a57.8761,57.8761,0,0,0-2.4263-10.735c-2.0452-6.7136-8.91-16.834-10.494-24.4559s.7958-23.76-.9263-35.4972c-1.4012-9.55-6.4831-16.9577-9.0214-22.1215a51.9388,51.9388,0,0,1-3.97-11.83c.14-.0426,1.7583,6.75,4.3287,11.72s6.8768,11.247,8.9322,19.1408c3.8261,14.6948-.2125,29.7174,2.6863,39.1989s7.4668,14.5737,10.4429,22.8291Q425.9925,280.276,425.2455,283.2264Z"/></g><g id="b06d3af2-8c1d-44cb-9540-1b7b249521fd" data-name="Leaves"><path id="8985e827-3e15-4aa5-8b30-eb436d42013b" data-name="Leaf" class="cbb2abcf-a1b2-4f9d-b100-4877a65606a3" d="M468.9869,192.1425c-5.9938-3.187-11.9475,9.1506-14.9925,10.2384s-7.9441-.987-10.55,3.9146,1.8548,7.2736-.2909,11.309-11.6856-1.991-15.1413,4.5082,3.0125,12.3877.9622,16.2438-6.9571,3.3273-11.5322,11.9318,2.3886,13.937,14.0478,20.1363,20.9829,7.1162,25.558-1.4883-8.1539-14.6953-6.4826-19.9923,11.2535-3.5707,14.2228-9.1551-8.8239-11.855-6.3977-16.4179,13.0306-1.58,15.5054-6.2346.6837-6.6747-2.4865-10.78S474.9808,195.33,468.9869,192.1425Z"/><path id="8ffa5347-6915-4d43-b71a-432a096ca928" data-name="Leaves-base" class="8e70b254-f684-4600-86d2-a5418b7d20e5" d="M433.2083,265.906a.5017.5017,0,0,0,.7091-.0619.5074.5074,0,0,0-.055-.713c-5.0675-4.3174-6.2543-8.8629-3.643-13.774a.5017.5017,0,1,0-.8859-.471C426.4828,256.2474,427.802,261.3,433.2083,265.906Z"/><path id="dad498a1-8d73-4c50-a0a1-5068d4b07c3b" data-name="Leaves-base" class="8e70b254-f684-4600-86d2-a5418b7d20e5" d="M442.8044,245.4449a.507.507,0,0,0,.3632-.9468c-4.2155-1.6309-6.1658-5.1843-5.8723-10.7872a.5049.5049,0,1,0-1.0084-.0529C435.9718,239.6735,438.1515,243.6448,442.8044,245.4449Z"/><path id="7b5b44c3-ed38-4dbf-b135-c6afaf961cdc" data-name="Leaves-base" class="8e70b254-f684-4600-86d2-a5418b7d20e5" d="M452.5193,216.4563a.3427.3427,0,1,0,.2476-.639c-2.1434-.821-3.1336-2.6035-2.9854-5.4333a.3447.3447,0,0,0-.6885-.0361C448.93,213.4562,450.0772,215.5209,452.5193,216.4563Z"/><path id="cec80110-1245-479f-860e-9c5bbe9761c4" data-name="Leaves-base" class="8e70b254-f684-4600-86d2-a5418b7d20e5" d="M455.0585,213.7421a.3427.3427,0,1,1,.3913-.5626c1.8792,1.3179,3.9107,1.1421,6.1738-.5632a.3447.3447,0,0,1,.415.5506C459.5527,215.04,457.2,215.2437,455.0585,213.7421Z"/><path id="b10ef629-5816-4d31-8421-aa52b1b6c3b7" data-name="Leaves-base" class="8e70b254-f684-4600-86d2-a5418b7d20e5" d="M445.4676,239.26a.5.5,0,0,1-.1212-.7.5082.5082,0,0,1,.7038-.1281c3.3758,2.3417,7.0556,1.9943,11.1563-1.0956a.5014.5014,0,1,1,.6035.8009C453.38,241.4752,449.2265,241.8674,445.4676,239.26Z"/><path id="7fe52680-81b7-48dd-ad68-77dc4c997fcd" data-name="Leaves-base" class="8e70b254-f684-4600-86d2-a5418b7d20e5" d="M438.6076,262.3688a.5.5,0,0,1-.1212-.7.5081.5081,0,0,1,.7037-.1281c3.3759,2.3417,7.0557,1.9943,11.1563-1.0956a.5015.5015,0,1,1,.6036.801C446.52,264.5841,442.3665,264.9762,438.6076,262.3688Z"/><path id="a5ad7c1c-caed-4baf-b0ff-6f2f2a7c70f9" data-name="Leaves-base" class="8e70b254-f684-4600-86d2-a5418b7d20e5" d="M424.0224,282.2889a.6746.6746,0,0,0,.2825.9112c.33.1756,1.1877.2908,1.362-.0368a42.545,42.545,0,0,1,3.686-8.6755c2.8128-5.3052,10.6905-12.44,13.174-18.6311s2.228-20.6083,5.3629-30.3056c2.5507-7.89,8.3717-13.1,11.4636-16.96a38.0758,38.0758,0,0,0,5.3089-9.2647c-.1289-.0685-2.5415,5.4021-5.64,9.0887s-8.0311,8.1-11.0025,14.418c-5.5312,11.76-3.5393,25.5964-7.5218,33.0864s-9.0176,10.826-12.92,17.2443Q423.6757,279.5821,424.0224,282.2889Z"/></g><g id="02821078-3efd-41c2-a050-9da281c1d6d5" data-name="vase"><polygon id="f6ff969f-c25b-4686-8ca4-ef73474cb646" data-name="Vase-base" class="5fec588f-c728-4455-a638-efd9e01ebb1e" points="404.108 275.738 444.65 275.738 435.641 301.157 413.117 301.157 404.108 275.738"/><rect id="c6cbde1e-83f3-4109-b2f9-ffd79dfe19fb" data-name="Vase-base" class="39cf6d00-c501-436f-acec-6fab60028753" x="403.2972" y="274.944" width="41.3529" height="7.9432"/></g></g></g></g></g></svg>