<svg id="Layer_1" data-name="Layer 1" 
  xmlns="http://www.w3.org/2000/svg" 
  xmlns:xlink="http://www.w3.org/1999/xlink" viewBox="0 0 184 113">
  <defs>
    <style>.cls-1{fill:#fff;}.cls-2{opacity:0.3;}.cls-3,.cls-5{fill:#e2ebfc;}.cls-4,.cls-56,.cls-86{opacity:0.5;}.cls-5{opacity:0.81;}.cls-34,.cls-35,.cls-36,.cls-37,.cls-38,.cls-39,.cls-5,.cls-56,.cls-86{isolation:isolate;}.cls-6{fill:url(#linear-gradient);}.cls-7{fill:url(#linear-gradient-2);}.cls-8{fill:url(#linear-gradient-3);}.cls-9{fill:#abc6ed;}.cls-10{fill:url(#linear-gradient-4);}.cls-11{fill:url(#linear-gradient-5);}.cls-12{fill:url(#linear-gradient-6);}.cls-13{fill:url(#linear-gradient-7);}.cls-14{fill:url(#linear-gradient-8);}.cls-15{fill:url(#linear-gradient-9);}.cls-16{fill:url(#linear-gradient-10);}.cls-17{fill:url(#linear-gradient-11);}.cls-18{fill:url(#linear-gradient-12);}.cls-19{fill:url(#linear-gradient-13);}.cls-20{fill:url(#linear-gradient-14);}.cls-21{fill:url(#linear-gradient-15);}.cls-22{fill:url(#linear-gradient-16);}.cls-23{fill:url(#linear-gradient-17);}.cls-24{fill:url(#linear-gradient-18);}.cls-25{fill:url(#linear-gradient-19);}.cls-26{fill:url(#linear-gradient-20);}.cls-27{fill:url(#linear-gradient-21);}.cls-28{fill:url(#linear-gradient-22);}.cls-29{fill:url(#linear-gradient-23);}.cls-30{fill:url(#linear-gradient-24);}.cls-31{fill:url(#linear-gradient-25);}.cls-32,.cls-33{stroke-width:10px;}.cls-32{fill:url(#linear-gradient-26);stroke:url(#linear-gradient-27);}.cls-33{fill:url(#linear-gradient-28);stroke:url(#linear-gradient-29);}.cls-34,.cls-35,.cls-36,.cls-37,.cls-38,.cls-39{opacity:0.4;}.cls-34{fill:url(#linear-gradient-30);}.cls-35{fill:url(#linear-gradient-31);}.cls-36{fill:url(#linear-gradient-32);}.cls-37{fill:url(#linear-gradient-33);}.cls-38{fill:url(#linear-gradient-34);}.cls-39{fill:url(#linear-gradient-35);}.cls-40{fill:url(#linear-gradient-36);}.cls-41,.cls-46{stroke-width:2px;}.cls-41{fill:url(#linear-gradient-37);stroke:url(#linear-gradient-38);}.cls-42{fill:#2a73e7;}.cls-43{fill:url(#linear-gradient-39);}.cls-44{fill:url(#linear-gradient-40);}.cls-45{fill:url(#linear-gradient-41);}.cls-46{fill:url(#linear-gradient-42);stroke:url(#linear-gradient-43);}.cls-47{fill:#f35f73;}.cls-48{fill:url(#linear-gradient-44);}.cls-49{fill:url(#linear-gradient-45);}.cls-50{fill:url(#linear-gradient-46);}.cls-51{fill:#233a67;}.cls-52{fill:url(#linear-gradient-47);}.cls-53{fill:url(#linear-gradient-48);}.cls-54{fill:url(#linear-gradient-49);}.cls-55{fill:url(#linear-gradient-50);}.cls-56{fill:url(#linear-gradient-51);}.cls-57{fill:url(#linear-gradient-52);}.cls-58{fill:url(#linear-gradient-53);}.cls-59{fill:url(#linear-gradient-54);}.cls-60{fill:url(#linear-gradient-55);}.cls-61{fill:url(#linear-gradient-56);}.cls-62{fill:url(#linear-gradient-57);}.cls-63{fill:url(#linear-gradient-58);}.cls-64{fill:url(#linear-gradient-59);}.cls-65,.cls-67,.cls-70{fill:none;}.cls-65{stroke:#1542ab;}.cls-66{fill:url(#linear-gradient-60);}.cls-67{stroke:#48c172;stroke-linecap:round;stroke-linejoin:round;stroke-dasharray:5 10;}.cls-68{fill:url(#linear-gradient-61);}.cls-69{fill:url(#linear-gradient-62);}.cls-70{stroke:#5fcc89;}.cls-71{fill:#5fcc89;}.cls-72{fill:url(#linear-gradient-63);}.cls-73{fill:url(#linear-gradient-64);}.cls-74{fill:url(#linear-gradient-65);}.cls-75{fill:url(#linear-gradient-66);}.cls-76{fill:url(#linear-gradient-67);}.cls-77{fill:url(#linear-gradient-68);}.cls-78{fill:url(#linear-gradient-69);}.cls-79{fill:url(#linear-gradient-70);}.cls-80{fill:url(#linear-gradient-71);}.cls-81{fill:url(#linear-gradient-72);}.cls-82{fill:url(#linear-gradient-73);}.cls-83{fill:url(#linear-gradient-74);}.cls-84{fill:url(#linear-gradient-75);}.cls-85{fill:url(#linear-gradient-76);}.cls-86{fill:url(#linear-gradient-77);}.cls-87{fill:url(#linear-gradient-78);}.cls-88{fill:url(#linear-gradient-79);}.cls-89{mask:url(#mask);}.cls-90{fill:url(#linear-gradient-80);}.cls-91{fill:url(#linear-gradient-81);}.cls-92{fill:url(#linear-gradient-82);}.cls-93{fill:url(#linear-gradient-83);}.cls-94{fill:url(#linear-gradient-84);}.cls-95{fill:url(#linear-gradient-85);}.cls-96{fill:url(#linear-gradient-86);}.cls-97{fill:url(#linear-gradient-87);}</style>
    <linearGradient id="linear-gradient" x1="-558.95" y1="407.09" x2="-558.39" y2="407.1" gradientTransform="matrix(19.08, 0, 0, -9.79, 10682.51, 4029.88)" gradientUnits="userSpaceOnUse">
      <stop offset="0" stop-color="#925948"/>
      <stop offset="1" stop-color="#b06c57"/>
    </linearGradient>
    <linearGradient id="linear-gradient-2" x1="-539.51" y1="425.44" x2="-539.57" y2="423.92" gradientTransform="matrix(12.12, 0.64, 0.98, -18.76, 6138.81, 8348.89)" gradientUnits="userSpaceOnUse">
      <stop offset="0" stop-color="#f7faff"/>
      <stop offset="1" stop-color="#6b9ad9"/>
    </linearGradient>
    <linearGradient id="linear-gradient-3" x1="-545.41" y1="421.86" x2="-545.91" y2="419.11" gradientTransform="matrix(13.4, 0, 0, -17.27, 7342.42, 7332.73)" xlink:href="#linear-gradient-2"/>
    <linearGradient id="linear-gradient-4" x1="-428.11" y1="352.69" x2="-428.11" y2="350.64" gradientTransform="matrix(3.66, 0, 0, -3.66, 1592.66, 1329.5)" gradientUnits="userSpaceOnUse">
      <stop offset="0" stop-color="#fff"/>
      <stop offset="1" stop-color="#b3cdef"/>
    </linearGradient>
    <linearGradient id="linear-gradient-5" x1="-388.67" y1="350.72" x2="-388.26" y2="352.24" gradientTransform="matrix(2.94, 0, 0, -3.67, 1149.27, 1311.55)" gradientUnits="userSpaceOnUse">
      <stop offset="0" stop-color="#062764"/>
      <stop offset="1" stop-color="#1c4cb9"/>
    </linearGradient>
    <linearGradient id="linear-gradient-6" x1="-489.57" y1="395.25" x2="-490.09" y2="396.81" gradientTransform="matrix(5.92, 0, 0, -7.32, 2912.26, 2913.9)" gradientUnits="userSpaceOnUse">
      <stop offset="0" stop-color="#032258"/>
      <stop offset="1" stop-color="#133e94"/>
    </linearGradient>
    <linearGradient id="linear-gradient-7" x1="-540.16" y1="421.99" x2="-539.91" y2="422.04" gradientTransform="matrix(11.91, 0, 0, -17.73, 6445.7, 7506.68)" xlink:href="#linear-gradient"/>
    <linearGradient id="linear-gradient-8" x1="-539.57" y1="417.09" x2="-540.12" y2="418.65" gradientTransform="matrix(11.87, 0, 0, -14.33, 6420.33, 6003.88)" xlink:href="#linear-gradient-6"/>
    <linearGradient id="linear-gradient-9" x1="-719.4" y1="366.81" x2="-718.85" y2="366.86" gradientTransform="translate(-3265.76 1728.93) rotate(180) scale(4.55 4.44)" xlink:href="#linear-gradient"/>
    <linearGradient id="linear-gradient-10" x1="-650.22" y1="387.69" x2="-651.22" y2="387.69" gradientTransform="translate(-6260.13 2504.55) rotate(180) scale(9.64 6.19)" gradientUnits="userSpaceOnUse">
      <stop offset="0" stop-color="#2865c6"/>
      <stop offset="1" stop-color="#10378a"/>
    </linearGradient>
    <linearGradient id="linear-gradient-11" x1="-719.4" y1="366.81" x2="-718.85" y2="366.86" gradientTransform="translate(-3255.1 1726.92) rotate(180) scale(4.55 4.44)" xlink:href="#linear-gradient"/>
    <linearGradient id="linear-gradient-12" x1="-644.15" y1="370.44" x2="-645.15" y2="370.44" gradientTransform="translate(-6874.22 1829.67) rotate(180) scale(10.7 4.67)" xlink:href="#linear-gradient-10"/>
    <linearGradient id="linear-gradient-13" x1="-559.22" y1="434.69" x2="-559.23" y2="434.19" gradientTransform="matrix(19.49, 0, 0, -51.86, 10913.86, 22592.26)" gradientUnits="userSpaceOnUse">
      <stop offset="0" stop-color="#3485f7"/>
      <stop offset="1" stop-color="#1a57cf"/>
    </linearGradient>
    <linearGradient id="linear-gradient-14" x1="-388.94" y1="415.47" x2="-388.93" y2="414.72" gradientTransform="matrix(2.94, 0, 0, -12.95, 1159.92, 5450.58)" gradientUnits="userSpaceOnUse">
      <stop offset="0" stop-color="#1542ab"/>
      <stop offset="1" stop-color="#2b68ee"/>
    </linearGradient>
    <linearGradient id="linear-gradient-15" x1="-557.26" y1="430.94" x2="-557.36" y2="428.54" gradientTransform="matrix(18.32, 0, 0, -30.92, 10224.34, 13333.05)" xlink:href="#linear-gradient-2"/>
    <linearGradient id="linear-gradient-16" x1="-546.8" y1="421.38" x2="-547.36" y2="418.63" gradientTransform="matrix(13.84, 0, 0, -16.85, 7621.22, 7148.09)" xlink:href="#linear-gradient-2"/>
    <linearGradient id="linear-gradient-17" x1="-433.73" y1="351.55" x2="-433.73" y2="349.51" gradientTransform="matrix(3.79, 0, 0, -3.61, 1689.74, 1311.6)" xlink:href="#linear-gradient-4"/>
    <linearGradient id="linear-gradient-18" x1="-509.46" y1="416.26" x2="-509.59" y2="414.71" gradientTransform="matrix(7.38, 0, 0, -13, 3890.56, 5456)" gradientUnits="userSpaceOnUse">
      <stop offset="0" stop-color="#e5edff"/>
      <stop offset="1" stop-color="#6b9ad9"/>
    </linearGradient>
    <linearGradient id="linear-gradient-19" x1="-269.63" y1="336.71" x2="-269.92" y2="333.97" gradientTransform="matrix(1.84, 0, 0, -3.14, 627.41, 1109.2)" xlink:href="#linear-gradient-2"/>
    <linearGradient id="linear-gradient-20" x1="-526.8" y1="416.37" x2="-526.95" y2="413.96" gradientTransform="matrix(9.42, 0, 0, -13, 5101.79, 5456)" xlink:href="#linear-gradient-2"/>
    <linearGradient id="linear-gradient-21" x1="-509.46" y1="416.26" x2="-509.59" y2="414.71" gradientTransform="matrix(7.38, 0, 0, -13, 3871.56, 5456)" xlink:href="#linear-gradient-18"/>
    <linearGradient id="linear-gradient-22" x1="-269.63" y1="336.71" x2="-269.92" y2="333.97" gradientTransform="matrix(1.84, 0, 0, -3.14, 608.41, 1109.2)" xlink:href="#linear-gradient-2"/>
    <linearGradient id="linear-gradient-23" x1="-526.8" y1="416.37" x2="-526.95" y2="413.96" gradientTransform="matrix(9.42, 0, 0, -13, 5082.79, 5456)" xlink:href="#linear-gradient-2"/>
    <linearGradient id="linear-gradient-24" x1="-546.8" y1="421.38" x2="-547.36" y2="418.63" gradientTransform="matrix(13.84, 0, 0, -16.85, 7641.22, 7148.09)" xlink:href="#linear-gradient-2"/>
    <linearGradient id="linear-gradient-25" x1="-433.73" y1="351.55" x2="-433.73" y2="349.51" gradientTransform="matrix(3.79, 0, 0, -3.61, 1709.74, 1311.6)" xlink:href="#linear-gradient-4"/>
    <linearGradient id="linear-gradient-26" x1="-574.22" y1="266.52" x2="-574.22" y2="263.4" gradientTransform="matrix(38.62, 0, 0, -1.86, 22231.5, 559.08)" gradientUnits="userSpaceOnUse">
      <stop offset="0" stop-color="#95b7e5"/>
      <stop offset="1" stop-color="#476db1"/>
    </linearGradient>
    <linearGradient id="linear-gradient-27" x1="-574.22" y1="265.1" x2="-574.22" y2="264.1" gradientTransform="matrix(38.62, 0, 0, -1.86, 22231.5, 559.08)" gradientUnits="userSpaceOnUse">
      <stop offset="0" stop-color="#36558e"/>
      <stop offset="1" stop-color="#233a67"/>
    </linearGradient>
    <linearGradient id="linear-gradient-28" x1="-574.22" y1="266.52" x2="-574.22" y2="263.4" gradientTransform="matrix(38.62, 0, 0, -1.86, 22302.73, 559.08)" xlink:href="#linear-gradient-26"/>
    <linearGradient id="linear-gradient-29" x1="-574.22" y1="265.1" x2="-574.22" y2="264.1" gradientTransform="matrix(38.62, 0, 0, -1.86, 22302.73, 559.08)" xlink:href="#linear-gradient-27"/>
    <linearGradient id="linear-gradient-30" x1="-494.12" y1="387.86" x2="-494.35" y2="387.01" gradientTransform="matrix(6.19, 0, 0, -6.16, 3100.23, 2453.67)" gradientUnits="userSpaceOnUse">
      <stop offset="0" stop-color="#476db1"/>
      <stop offset="1" stop-color="#283f6f"/>
    </linearGradient>
    <linearGradient id="linear-gradient-31" x1="-494.12" y1="387.86" x2="-494.35" y2="387.01" gradientTransform="matrix(6.19, 0, 0, -6.16, 3112.61, 2453.67)" xlink:href="#linear-gradient-30"/>
    <linearGradient id="linear-gradient-32" x1="-494.12" y1="387.86" x2="-494.35" y2="387.01" gradientTransform="matrix(6.19, 0, 0, -6.16, 3125, 2453.67)" xlink:href="#linear-gradient-30"/>
    <linearGradient id="linear-gradient-33" x1="-494.12" y1="387.86" x2="-494.35" y2="387.01" gradientTransform="matrix(6.19, 0, 0, -6.16, 3203.97, 2453.67)" xlink:href="#linear-gradient-30"/>
    <linearGradient id="linear-gradient-34" x1="-494.12" y1="387.86" x2="-494.35" y2="387.01" gradientTransform="matrix(6.19, 0, 0, -6.16, 3191.58, 2453.67)" xlink:href="#linear-gradient-30"/>
    <linearGradient id="linear-gradient-35" x1="-494.12" y1="387.86" x2="-494.35" y2="387.01" gradientTransform="matrix(6.19, 0, 0, -6.16, 3179.19, 2453.67)" xlink:href="#linear-gradient-30"/>
    <linearGradient id="linear-gradient-36" x1="-575.1" y1="432.99" x2="-575.33" y2="432.13" gradientTransform="matrix(41.34, 0, 0, -41.12, 23871.84, 17839.57)" xlink:href="#linear-gradient-30"/>
    <linearGradient id="linear-gradient-37" x1="-560.16" y1="405.72" x2="-561" y2="405.12" gradientTransform="matrix(20.13, 0, 0, -9.39, 11372.95, 3869.36)" xlink:href="#linear-gradient-2"/>
    <linearGradient id="linear-gradient-38" x1="-560.19" y1="406.19" x2="-560.19" y2="405.19" gradientTransform="matrix(20.13, 0, 0, -9.39, 11372.95, 3869.36)" xlink:href="#linear-gradient-27"/>
    <linearGradient id="linear-gradient-39" x1="-208.39" y1="247.98" x2="-208.46" y2="247.48" gradientTransform="matrix(1.55, 0, 0, -1.69, 427.24, 479.84)" xlink:href="#linear-gradient-13"/>
    <linearGradient id="linear-gradient-40" x1="-208.39" y1="247.98" x2="-208.46" y2="247.48" gradientTransform="matrix(1.55, 0, 0, -1.69, 427.24, 474.6)" xlink:href="#linear-gradient-13"/>
    <linearGradient id="linear-gradient-41" x1="-208.39" y1="247.98" x2="-208.46" y2="247.48" gradientTransform="matrix(1.55, 0, 0, -1.69, 427.24, 477.07)" xlink:href="#linear-gradient-13"/>
    <linearGradient id="linear-gradient-42" x1="-560.16" y1="405.72" x2="-561" y2="405.12" gradientTransform="matrix(20.13, 0, 0, -9.39, 11372.95, 3856.42)" xlink:href="#linear-gradient-2"/>
    <linearGradient id="linear-gradient-43" x1="-560.19" y1="406.19" x2="-560.19" y2="405.19" gradientTransform="matrix(20.13, 0, 0, -9.39, 11372.95, 3856.42)" xlink:href="#linear-gradient-27"/>
    <linearGradient id="linear-gradient-44" x1="-470.58" y1="374.43" x2="-470.28" y2="373.88" gradientTransform="matrix(4.95, 0, 0, -4.93, 2409.34, 1886.44)" gradientUnits="userSpaceOnUse">
      <stop offset="0" stop-color="#f59ba9"/>
      <stop offset="1" stop-color="#f25267"/>
    </linearGradient>
    <linearGradient id="linear-gradient-45" x1="-470.42" y1="374.76" x2="-470.42" y2="373.65" gradientTransform="matrix(4.95, 0, 0, -4.93, 2409.34, 1895.06)" gradientUnits="userSpaceOnUse">
      <stop offset="0" stop-color="#ffe579"/>
      <stop offset="1" stop-color="#feb755"/>
    </linearGradient>
    <linearGradient id="linear-gradient-46" x1="-470.46" y1="374.32" x2="-470.29" y2="373.49" gradientTransform="matrix(4.95, 0, 0, -4.93, 2409.34, 1904.15)" gradientUnits="userSpaceOnUse">
      <stop offset="0" stop-color="#84f0a8"/>
      <stop offset="1" stop-color="#48b676"/>
    </linearGradient>
    <linearGradient id="linear-gradient-47" x1="-584.11" y1="431.7" x2="-584.11" y2="428.83" gradientTransform="matrix(109.47, 0, 0, -28.34, 64033.9, 12244.27)" xlink:href="#linear-gradient-30"/>
    <linearGradient id="linear-gradient-48" x1="-584.01" y1="249.65" x2="-584.01" y2="244.73" gradientTransform="matrix(107.4, 0, 0, -1.69, 62815.42, 493.09)" xlink:href="#linear-gradient-30"/>
    <linearGradient id="linear-gradient-49" x1="-560.58" y1="408.4" x2="-560.02" y2="408.41" gradientTransform="matrix(20.14, 0, 0, -10.19, 11304.58, 4212.34)" xlink:href="#linear-gradient"/>
    <linearGradient id="linear-gradient-50" x1="-547.06" y1="425.79" x2="-547.12" y2="424.27" gradientTransform="matrix(13.91, 0, 0, -21.25, 7618.92, 9074.79)" xlink:href="#linear-gradient-2"/>
    <linearGradient id="linear-gradient-51" x1="-492.79" y1="389.48" x2="-492.92" y2="387.96" gradientTransform="matrix(6.1, 0, 0, -6.32, 3021.65, 2506.87)" xlink:href="#linear-gradient-2"/>
    <linearGradient id="linear-gradient-52" x1="-530.08" y1="420.33" x2="-530.21" y2="421.56" gradientTransform="matrix(9.94, 0, 0, -16.86, 5438.48, 7130.08)" gradientUnits="userSpaceOnUse">
      <stop offset="0" stop-color="#092871"/>
      <stop offset="1" stop-color="#1c4cb9"/>
    </linearGradient>
    <linearGradient id="linear-gradient-53" x1="-565.49" y1="430.81" x2="-565.47" y2="431.19" gradientTransform="matrix(24.55, 0, 0, -36.69, 14050.38, 15895.66)" gradientUnits="userSpaceOnUse">
      <stop offset="0" stop-color="#46c36f" stop-opacity="0"/>
      <stop offset="1" stop-color="#399d62"/>
    </linearGradient>
    <linearGradient id="linear-gradient-54" x1="-442.15" y1="345.11" x2="-441.89" y2="345.81" gradientTransform="matrix(4, 0, 0, -3.45, 1928.07, 1292.91)" gradientUnits="userSpaceOnUse">
      <stop offset="0" stop-color="#fad0ba"/>
      <stop offset="1" stop-color="#f2a384"/>
    </linearGradient>
    <linearGradient id="linear-gradient-55" x1="-442.15" y1="345.11" x2="-441.89" y2="345.81" gradientTransform="matrix(4, 0, 0, -3.45, 1940.13, 1292.91)" xlink:href="#linear-gradient-54"/>
    <linearGradient id="linear-gradient-56" x1="-518.37" y1="350.28" x2="-519.37" y2="350.28" gradientTransform="matrix(8.35, 0, 0, -3.62, 4505.99, 1372.71)" xlink:href="#linear-gradient-10"/>
    <linearGradient id="linear-gradient-57" x1="-518.37" y1="350.28" x2="-519.37" y2="350.28" gradientTransform="matrix(8.35, 0, 0, -3.62, 4493.93, 1372.71)" xlink:href="#linear-gradient-10"/>
    <linearGradient id="linear-gradient-58" x1="-560.49" y1="433.13" x2="-560.51" y2="432.63" gradientTransform="matrix(20.35, 0, 0, -41.54, 11572.07, 18049.23)" xlink:href="#linear-gradient-13"/>
    <linearGradient id="linear-gradient-59" x1="-488.43" y1="412.45" x2="-488.42" y2="411.69" gradientTransform="matrix(5.84, 0, 0, -11.57, 3016.03, 4843.39)" xlink:href="#linear-gradient-14"/>
    <linearGradient id="linear-gradient-60" x1="-552.75" y1="427.45" x2="-552.78" y2="427.06" gradientTransform="matrix(16.03, 0, 0, -26.04, 9030.76, 11193.56)" gradientUnits="userSpaceOnUse">
      <stop offset="0" stop-color="#f58898"/>
      <stop offset="1" stop-color="#fff"/>
    </linearGradient>
    <linearGradient id="linear-gradient-61" x1="-517.01" y1="432.93" x2="-517.01" y2="432.09" gradientTransform="matrix(8.14, 0, 0, -42.2, 4383.36, 18322.3)" xlink:href="#linear-gradient-46"/>
    <linearGradient id="linear-gradient-62" x1="-515.4" y1="432.32" x2="-515.42" y2="431.35" gradientTransform="matrix(7.96, 0, 0, -37.31, 4280.46, 16166.41)" xlink:href="#linear-gradient-46"/>
    <linearGradient id="linear-gradient-63" x1="-504.16" y1="411.41" x2="-504.13" y2="411.7" gradientTransform="matrix(6.91, 0, 0, -11.35, 3653.48, 4709.74)" gradientUnits="userSpaceOnUse">
      <stop offset="0" stop-color="#f5b79c"/>
      <stop offset="1" stop-color="#ec906c"/>
    </linearGradient>
    <linearGradient id="linear-gradient-64" x1="-522.97" y1="407.38" x2="-522.14" y2="408.24" gradientTransform="matrix(8.78, 0, 0, -10.04, 4753.93, 4125.62)" xlink:href="#linear-gradient-54"/>
    <linearGradient id="linear-gradient-65" x1="-559.78" y1="429.3" x2="-559.92" y2="430.53" gradientTransform="matrix(19.91, 0, 0, -31.36, 11320.42, 13522.59)" xlink:href="#linear-gradient-52"/>
    <linearGradient id="linear-gradient-66" x1="-505.93" y1="424.82" x2="-506.01" y2="425.72" gradientTransform="matrix(7.07, 0, 0, -21.68, 3750.65, 9276.64)" gradientUnits="userSpaceOnUse">
      <stop offset="0" stop-color="#84f0a8" stop-opacity="0.32"/>
      <stop offset="0.51" stop-color="#7ae69f" stop-opacity="0.55"/>
      <stop offset="1" stop-color="#71de98" stop-opacity="0"/>
    </linearGradient>
    <linearGradient id="linear-gradient-67" x1="-536.88" y1="432" x2="-536.87" y2="431.16" gradientTransform="matrix(11.21, 0, 0, -37.66, 6179.65, 16320.75)" xlink:href="#linear-gradient-46"/>
    <linearGradient id="linear-gradient-68" x1="-526.96" y1="431.8" x2="-526.99" y2="430.83" gradientTransform="matrix(9.44, 0, 0, -35.22, 5131.76, 15244.75)" xlink:href="#linear-gradient-46"/>
    <linearGradient id="linear-gradient-69" x1="-435.92" y1="250.78" x2="-435.66" y2="250.97" gradientTransform="matrix(3.83, 0, 0, -1.73, 1826.36, 492.21)" xlink:href="#linear-gradient-54"/>
    <linearGradient id="linear-gradient-70" x1="-247.94" y1="70.58" x2="-247.65" y2="70.9" gradientTransform="matrix(1.73, 0, 0, -0.88, 584.48, 121.38)" gradientUnits="userSpaceOnUse">
      <stop offset="0" stop-color="#f7b196"/>
      <stop offset="1" stop-color="#eb9775"/>
    </linearGradient>
    <linearGradient id="linear-gradient-71" x1="-521.41" y1="417.75" x2="-521.56" y2="416.19" gradientTransform="matrix(8.68, 0, 0, -13.81, 4683.65, 5807.32)" xlink:href="#linear-gradient-18"/>
    <linearGradient id="linear-gradient-72" x1="-317.48" y1="345" x2="-317.82" y2="342.26" gradientTransform="matrix(2.17, 0, 0, -3.41, 846.27, 1223.52)" xlink:href="#linear-gradient-2"/>
    <linearGradient id="linear-gradient-73" x1="-536.53" y1="417.85" x2="-536.73" y2="415.44" gradientTransform="matrix(11.16, 0, 0, -13.81, 6155.07, 5807.32)" xlink:href="#linear-gradient-2"/>
    <linearGradient id="linear-gradient-74" x1="-548.19" y1="425.41" x2="-548.08" y2="426.23" gradientTransform="matrix(14.27, 0, 0, -22.32, 7997.68, 9555.57)" gradientUnits="userSpaceOnUse">
      <stop offset="0" stop-color="#7be7a1"/>
      <stop offset="1" stop-color="#84f0a8"/>
    </linearGradient>
    <linearGradient id="linear-gradient-75" x1="-744.09" y1="250.78" x2="-743.83" y2="250.97" gradientTransform="translate(-2680.83 492.21) rotate(180) scale(3.83 1.73)" xlink:href="#linear-gradient-54"/>
    <linearGradient id="linear-gradient-76" x1="-932" y1="70.58" x2="-931.7" y2="70.9" gradientTransform="translate(-1439.41 121.38) rotate(180) scale(1.73 0.88)" xlink:href="#linear-gradient-70"/>
    <linearGradient id="linear-gradient-77" x1="-544.63" y1="425.01" x2="-544.81" y2="424.03" gradientTransform="matrix(13.19, 0, 0, -20.33, 7362.57, 8679.28)" xlink:href="#linear-gradient-46"/>
    <linearGradient id="linear-gradient-78" x1="-566.7" y1="429.85" x2="-566.95" y2="427.45" gradientTransform="matrix(26, 0, 0, -28, 14788, 12023)" xlink:href="#linear-gradient-2"/>
    <linearGradient id="linear-gradient-79" x1="-562.43" y1="427.43" x2="-563.1" y2="424.68" gradientTransform="matrix(21.85, 0, 0, -24.48, 12343.2, 10472.9)" xlink:href="#linear-gradient-2"/>
    <mask id="mask" x="38.8" y="3.84" width="24.4" height="25.7" maskUnits="userSpaceOnUse">
      <g id="mask-62">
        <polygon id="path-61" class="cls-1" points="40.07 3.84 61.93 3.84 61.93 28.32 40.07 28.32 40.07 3.84"/>
      </g>
    </mask>
    <linearGradient id="linear-gradient-80" x1="-441.42" y1="355.97" x2="-441.71" y2="353.76" gradientTransform="matrix(3.99, 0, 0, -3.83, 1818.79, 1366.32)" xlink:href="#linear-gradient-2"/>
    <linearGradient id="linear-gradient-81" x1="-501.43" y1="416.99" x2="-501.43" y2="414.95" gradientTransform="matrix(6.7, 0, 0, -13.05, 3409.89, 5439.79)" xlink:href="#linear-gradient-4"/>
    <linearGradient id="linear-gradient-82" x1="-394.78" y1="401.02" x2="-394.83" y2="399.47" gradientTransform="matrix(3.03, 0, 0, -8.1, 1245.03, 3259.56)" xlink:href="#linear-gradient-18"/>
    <linearGradient id="linear-gradient-83" x1="-394.65" y1="348.3" x2="-394.94" y2="346.75" gradientTransform="matrix(3.03, 0, 0, -3.51, 1251.09, 1239.89)" xlink:href="#linear-gradient-18"/>
    <linearGradient id="linear-gradient-84" x1="-565.32" y1="383.24" x2="-565.32" y2="381.35" gradientTransform="matrix(24.4, 0, 0, -5.66, 13847.69, 2193.47)" gradientUnits="userSpaceOnUse">
      <stop offset="0" stop-color="#f7faff"/>
      <stop offset="1" stop-color="#fff"/>
    </linearGradient>
    <linearGradient id="linear-gradient-85" x1="-517.74" y1="408.5" x2="-517.74" y2="407.5" gradientTransform="matrix(8.22, 0, 0, -10.06, 4331.66, 4122.06)" gradientUnits="userSpaceOnUse">
      <stop offset="0" stop-color="#ebf2fb"/>
      <stop offset="1" stop-color="#d2e1f5"/>
    </linearGradient>
    <linearGradient id="linear-gradient-86" x1="-513.46" y1="406.67" x2="-514.01" y2="403.92" gradientTransform="matrix(7.77, 0, 0, -9.58, 4065.44, 3899.33)" xlink:href="#linear-gradient-2"/>
    <linearGradient id="linear-gradient-87" x1="-506.98" y1="399.84" x2="-507.65" y2="397.09" gradientTransform="matrix(7.16, 0, 0, -7.99, 3712.82, 3209.81)" xlink:href="#linear-gradient-2"/>
  </defs>
  <title>Artboard 1</title>
  <g id="Symbols">
    <g id="Background" class="cls-2">
      <ellipse class="cls-3" cx="140.28" cy="39.93" rx="38.38" ry="37.89"/>
      <ellipse id="Bzckground" class="cls-3" cx="39.27" cy="66.01" rx="38.38" ry="37.89"/>
    </g>
    <g id="Shadow" class="cls-4">
      <path class="cls-5" d="M114.3,105.43v3.67a3.73,3.73,0,0,1-3.64,3.81H71.34a3.73,3.73,0,0,1-3.64-3.81v-3.67H33.15a2.18,2.18,0,0,1,0-4.35h115.7a2.18,2.18,0,0,1,0,4.35Z"/>
    </g>
    <g id="Hand">
      <path class="cls-6" d="M28.23,45.55c.19,0,.62-.2.75-.21a5.78,5.78,0,0,1,2.1-.88c.22,0,.08.46-.42,1.22,1.83-.09,2.83-.06,3,.1s-.36.39-1.58.72c1.45.18,2.15.36,2.11.54s-.76.4-2.13.63c1.15.38,1.67.63,1.56.76a5.14,5.14,0,0,1-2.1.17c.64.61.88.95.73,1A14.69,14.69,0,0,1,28.85,48l-1.93-.24a36,36,0,0,1-11.65-3.62c-1-.5,2.32-4.91,3.19-4.17,1.76,1.48,5.36,3.44,9.77,5.63Z"/>
      <path id="Sleeve" class="cls-7" d="M19.55,32.17a26.55,26.55,0,0,0,1.6,7.89,3.91,3.91,0,0,0,.91,1.38c.06.07.36-.26.43-.19.27.28.65.39,1,.69,1.61,1.35-1,5.56-4,4.66-.38-.11-.73-.69-1-1.08-.06-.08.17-.33.09-.38Q17.77,44.59,17,44c-4.48-3.53-5.66-13.69-3.55-15.52C15.32,26.82,19.15,27.6,19.55,32.17Z"/>
    </g>
    <g id="File">
      <path id="File-base" class="cls-8" d="M38.38,42.83a.62.62,0,0,1,.6.63l-.27,15.88a.61.61,0,0,1-.62.6l-11.92-.21a.61.61,0,0,1-.59-.63l.22-12.85,3.61-3.58Z"/>
      <path id="File-base-2" data-name="File-base" class="cls-9" d="M36.7,47.86a.23.23,0,0,1,.22.24.22.22,0,0,1-.23.22l-8.45-.15a.23.23,0,0,1-.23-.23.24.24,0,0,1,.23-.23Z"/>
      <path id="File-base-3" data-name="File-base" class="cls-9" d="M36.65,50.46a.22.22,0,0,1,.22.24.22.22,0,0,1-.23.22l-8.45-.15a.23.23,0,0,1-.22-.23.23.23,0,0,1,.23-.23Z"/>
      <path id="File-base-4" data-name="File-base" class="cls-9" d="M36.61,52.93a.23.23,0,0,1,0,.46l-8.45-.15a.23.23,0,0,1-.22-.24.22.22,0,0,1,.23-.22Z"/>
      <path id="File-base-5" data-name="File-base" class="cls-9" d="M36.57,55.39a.24.24,0,0,1,.22.24.23.23,0,0,1-.23.23l-8.45-.15a.24.24,0,0,1,0-.47Z"/>
      <path id="File-base-6" data-name="File-base" class="cls-10" d="M29.48,42.64l-.06,3.06a.6.6,0,0,1-.61.6l-3,0Z"/>
    </g>
    <g id="Head">
      <path id="Hair" class="cls-11" d="M7.38,21.51C8.23,23,9,23.8,9.64,23.8s.83-.94.53-2.82l-1.51-.85Z"/>
      <path id="Hair-2" data-name="Hair" class="cls-12" d="M16.41,12.56A2.8,2.8,0,0,1,18,15.44a4.13,4.13,0,0,1-1.44,3h-3L12.13,15l.38-.88.9-.64V13l2-1.92a2.25,2.25,0,0,0,1,1.48Z"/>
      <path id="Face" class="cls-13" d="M7.87,21.72c-.93,0-1.62-1.62-1.39-2.43a.57.57,0,0,1,.79-.44,3.29,3.29,0,0,1-.18-2c.35-.76,4.21-2.33,6.48-2.33h0a3.33,3.33,0,0,1,3.3,2.91,6,6,0,0,1,.06.63v1.66c0,2.53-.15,3.06-.42,3.74s-.15,1.16-1.34,1.8c.37,2.17.24,2.23.51,2.77.41.81,4.9,2.15,1.25,3.81-2.43,1.11-5.19,0-8.54-4.14a3.84,3.84,0,0,0,1.38-2.51c.05-.95-.09-.53-.44-1.23s-.73-1.62-1-2.32A1.88,1.88,0,0,1,7.87,21.72Z"/>
      <path id="Hair-3" data-name="Hair" class="cls-14" d="M10.7,16.41a.48.48,0,0,1-.31.31A1.86,1.86,0,0,0,9,18.08c0,.5,0,1.09,0,1.79C9,22.18,10.17,23,11.15,23s2-1.85,3.4-1.85a4,4,0,0,1,2.34.69c.5,1.6.3,2.6-.46,3.16-1.13.85-4.9,0-6.26,0S9,23.33,8.66,21.1c-.25-1.49-.7-2.21-1.36-2.16a.71.71,0,0,0-.6.31,2.55,2.55,0,0,0-.15,1.08c-3.32-5.86.68-9,3.47-8.56A7.76,7.76,0,0,0,15.45,11c.56,4.87-2.63,4.13-4.56,4.7Zm5,6.85a1.78,1.78,0,0,0,.7-.14.16.16,0,0,0,.09-.2l0-.05q-.93-1-1.53-1h-.14q-.6,0-1.53,1a.17.17,0,0,0,0,.22.09.09,0,0,0,0,0,1.78,1.78,0,0,0,.7.14,1.59,1.59,0,0,0,.6-.15.57.57,0,0,1,.48,0A1.63,1.63,0,0,0,15.73,23.26Z"/>
    </g>
    <g id="Foot">
      <path id="Rectangle-3-Copy" class="cls-15" d="M7.12,97.66V101a2.77,2.77,0,0,0,2.22,1.1,2.92,2.92,0,0,0,2-.64L11.68,98Z"/>
      <path id="Shoes" class="cls-16" d="M7.15,100.81c-.3-.07-.42.9-.43,1.89a14.59,14.59,0,0,0,.15,1.7.77.77,0,0,0,.47.64c2.22.61,5.24,1.86,6.15,1.94a7.88,7.88,0,0,0,2.29-.31h0a.76.76,0,0,0,.58-.74h0a1.18,1.18,0,0,0-.47-.93l-2.55-1.87a26,26,0,0,0-1.89-2.32c-.19-.18-.49,1.46-1.81,1.16A10.7,10.7,0,0,1,7.15,100.81Z"/>
      <path id="leg" class="cls-17" d="M17.79,95.65V99a2.74,2.74,0,0,0,2.21,1.1,2.89,2.89,0,0,0,2-.64L22.34,96Z"/>
      <path id="Shoes-2" data-name="Shoes" class="cls-18" d="M17.77,98.39c-.37,0-.37,1.3-.39,2.3a10.51,10.51,0,0,0,.19,1.66.65.65,0,0,0,.58.54c6,.22,9.88.22,9.89,0,.31-1.08-1-2.07-4-3-.84-.57-1.49-1-1.94-1.27-.24-.15-.4,1-2,1S18.14,98.39,17.77,98.39Z"/>
      <path id="Pants" class="cls-19" d="M13,79c-2.23,12.84-.48,19.68-.78,20.52-.46,1.26-5.46,1.26-5.78-.48q-.33-1.76,0-19.46c-1-12.54-2.07-14.42-2-17.36S5.71,54.73,8,48.56l6,8,2.16-3.87q4.65-2.84,6,3a71.52,71.52,0,0,1,1.51,22.78c-2.22,12.83-.47,18.44-.78,19.28-.46,1.26-5.45,1.26-5.78-.48-.22-1.17-.22-6.42,0-18.23-1-4.59-2-8.34-2.79-11.26Z"/>
      <path id="Shadow-2" data-name="Shadow" class="cls-20" d="M17.08,78.84c-1-4.52-1.93-8.22-2.76-11.1l1.89-1.85,1.05,13Z"/>
    </g>
    <path class="cls-21" d="M15.3,26.57,18,29.08Q20.9,31,21.21,36.24t0,17.68q-5.05,5.27-16.1,1.54.66-3.74-.71-11.54Q2.17,32.22,3.6,30.5c.85-1,2.58-1.64,4.77-3.08A2.68,2.68,0,0,0,9,26.27a1.9,1.9,0,0,1,.6-.18c.07.05-.27.45-.23.48,2.62,2.06,4.4,2.85,5.49,2.51.68-.22.92,2.45,1.31,2.24.18-.1.18-1,0-2.74a2,2,0,0,1-.56-.47C15.49,28,15.47,27.27,15.3,26.57Z"/>
    <g id="File-2" data-name="File">
      <path id="File-base-7" data-name="File-base" class="cls-22" d="M58.29,45a.63.63,0,0,1,.64.61V61.27a.63.63,0,0,1-.64.61H45.72a.63.63,0,0,1-.64-.61V48.61L48.83,45Z"/>
      <path id="File-base-8" data-name="File-base" class="cls-9" d="M56.6,50a.23.23,0,1,1,0,.45H47.69a.23.23,0,1,1,0-.45Z"/>
      <path id="File-base-9" data-name="File-base" class="cls-9" d="M56.6,52.57a.23.23,0,1,1,0,.45H47.69a.23.23,0,1,1,0-.45Z"/>
      <path id="File-base-10" data-name="File-base" class="cls-9" d="M56.6,55a.23.23,0,1,1,0,.45H47.69a.23.23,0,1,1,0-.45Z"/>
      <path id="File-base-11" data-name="File-base" class="cls-9" d="M56.6,57.43a.23.23,0,1,1,0,.45H47.69a.23.23,0,1,1,0-.45Z"/>
      <path id="File-base-12" data-name="File-base" class="cls-23" d="M48.9,45v3a.62.62,0,0,1-.64.6H45.11Z"/>
    </g>
    <g id="Box">
      <polygon id="Box-base" class="cls-24" points="127.08 51.44 134.46 50 134.46 63 127.08 63 127.08 51.44"/>
      <polygon id="Box-base-2" data-name="Box-base" class="cls-25" points="129.04 51.08 130.89 50.72 130.89 53.76 129.04 53.86 129.04 51.08"/>
      <polygon id="Box-base-3" data-name="Box-base" class="cls-26" points="143.87 51.44 143.87 63 134.46 63 134.46 50 143.87 51.44"/>
    </g>
    <g id="Box-2" data-name="Box">
      <polygon id="Box-base-4" data-name="Box-base" class="cls-27" points="108.08 51.44 115.45 50 115.45 63 108.08 63 108.08 51.44"/>
      <polygon id="Box-base-5" data-name="Box-base" class="cls-28" points="110.04 51.08 111.89 50.72 111.89 53.76 110.04 53.86 110.04 51.08"/>
      <polygon id="Box-base-6" data-name="Box-base" class="cls-29" points="124.87 51.44 124.87 63 115.45 63 115.45 50 124.87 51.44"/>
    </g>
    <g id="File-3" data-name="File">
      <path id="File-base-13" data-name="File-base" class="cls-30" d="M78.29,45a.63.63,0,0,1,.64.61V61.27a.63.63,0,0,1-.64.61H65.72a.63.63,0,0,1-.64-.61V48.61L68.83,45Z"/>
      <path id="File-base-14" data-name="File-base" class="cls-9" d="M76.6,50a.23.23,0,1,1,0,.45H67.69a.23.23,0,1,1,0-.45Z"/>
      <path id="File-base-15" data-name="File-base" class="cls-9" d="M76.6,52.57a.23.23,0,1,1,0,.45H67.69a.23.23,0,1,1,0-.45Z"/>
      <path id="File-base-16" data-name="File-base" class="cls-9" d="M76.6,55a.23.23,0,1,1,0,.45H67.69a.23.23,0,1,1,0-.45Z"/>
      <path id="File-base-17" data-name="File-base" class="cls-9" d="M76.6,57.43a.23.23,0,1,1,0,.45H67.69a.23.23,0,1,1,0-.45Z"/>
      <path id="File-base-18" data-name="File-base" class="cls-31" d="M68.9,45v3a.62.62,0,0,1-.64.6H65.11Z"/>
    </g>
    <g id="Conveyor">
      <g id="Conveyor-base">
        <path class="cls-32" d="M74.7,68.12V66.26H37a.93.93,0,1,0,0,1.86Z"/>
        <path class="cls-33" d="M107.3,66.26v1.86H145a.93.93,0,1,0,0-1.86Z"/>
        <ellipse class="cls-34" cx="39.13" cy="66.96" rx="3.1" ry="3.08"/>
        <ellipse class="cls-35" cx="51.52" cy="66.96" rx="3.1" ry="3.08"/>
        <ellipse class="cls-36" cx="63.9" cy="66.96" rx="3.1" ry="3.08"/>
        <path class="cls-37" d="M142.87,70A3.08,3.08,0,1,1,146,67,3.09,3.09,0,0,1,142.87,70Z"/>
        <path class="cls-38" d="M130.48,70a3.08,3.08,0,1,1,3.1-3.08A3.08,3.08,0,0,1,130.48,70Z"/>
        <path class="cls-39" d="M118.1,70A3.08,3.08,0,1,1,121.19,67,3.09,3.09,0,0,1,118.1,70Z"/>
      </g>
      <path id="Conveyor-base-2" data-name="Conveyor-base" class="cls-40" d="M74.74,32h32.05a4.63,4.63,0,0,1,4.65,4.62v36.5H70.1V36.62A4.63,4.63,0,0,1,74.74,32Z"/>
      <g id="Conveyor-base-3" data-name="Conveyor-base">
        <g id="Group-15">
          <polygon id="Rectangle-2-Copy-9" class="cls-41" points="86.82 53.25 106.95 53.25 106.95 62.65 86.82 62.65 86.82 53.25"/>
          <g id="Group-11">
            <path id="Rectangle-2-Copy-3" class="cls-42" d="M96.42,54.64V56c0,.08-.17.15-.37.15H88.8c-.21,0-.37-.07-.37-.15V54.64c0-.09.16-.15.37-.15h7.25C96.25,54.49,96.42,54.55,96.42,54.64Z"/>
            <path id="Rectangle-2-Copy-8" class="cls-42" d="M97.5,59.88v1.38c0,.09-.14.16-.31.16H88.71c-.18,0-.32-.07-.32-.16V59.88c0-.09.14-.16.32-.16h8.48C97.36,59.72,97.5,59.79,97.5,59.88Z"/>
            <path id="Rectangle-2-Copy-11" class="cls-43" d="M105.25,59.88v1.38c0,.09,0,.16-.06.16h-1.44s0-.07,0-.16V59.88c0-.09,0-.16,0-.16h1.44S105.25,59.79,105.25,59.88Z"/>
            <path id="Rectangle-2-Copy-13" class="cls-44" d="M105.25,54.64V56c0,.08,0,.15-.06.15h-1.44s0-.07,0-.15V54.64c0-.09,0-.15,0-.15h1.44S105.25,54.55,105.25,54.64Z"/>
            <path id="Rectangle-2-Copy-12" class="cls-45" d="M105.25,57.1v1.39c0,.09,0,.15-.06.15h-1.44s0-.06,0-.15V57.1c0-.08,0-.15,0-.15h1.44S105.25,57,105.25,57.1Z"/>
            <path id="Rectangle-2-Copy-10" class="cls-42" d="M99.21,57.26v1.38c0,.09-.13.16-.28.16H88.69c-.15,0-.27-.07-.27-.16V57.26c0-.09.12-.16.27-.16H98.93C99.08,57.1,99.21,57.17,99.21,57.26Z"/>
          </g>
        </g>
        <g id="Group-12">
          <polygon id="Rectangle-2-Copy-9-2" data-name="Rectangle-2-Copy-9" class="cls-46" points="86.82 40.32 106.95 40.32 106.95 49.71 86.82 49.71 86.82 40.32"/>
          <path id="Path-51" class="cls-47" d="M88.74,47.77a.09.09,0,1,1-.13-.12l1.89-2a2,2,0,0,1,2.55-.24,2.1,2.1,0,0,0,2.48,0l2.52-1.89a2,2,0,0,1,2.66.2,1.73,1.73,0,0,0,2.36.1l2.73-2.34a.1.1,0,0,1,.13.14L103.19,44a1.91,1.91,0,0,1-2.61-.11,1.83,1.83,0,0,0-2.42-.18l-2.52,1.89a2.31,2.31,0,0,1-2.7,0,1.79,1.79,0,0,0-2.31.22Z"/>
          <path id="Path-51-Copy" class="cls-47" d="M88.72,47.79a.09.09,0,0,1-.12,0,.08.08,0,0,1,0-.12l4-2.15a3.36,3.36,0,0,1,2.87-.15,3,3,0,0,0,2.69-.17l.24-.15a2.94,2.94,0,0,1,3,0,2.78,2.78,0,0,0,2.8.05l1.77-1a.09.09,0,0,1,.1.16l-1.78,1a3,3,0,0,1-3,0,2.72,2.72,0,0,0-2.78,0l-.25.15a3.21,3.21,0,0,1-2.85.18,3.2,3.2,0,0,0-2.72.14Z"/>
        </g>
        <g id="Group-14">
          <ellipse id="Oval" class="cls-48" cx="78.46" cy="42.47" rx="2.48" ry="2.46"/>
          <ellipse id="Oval-Copy" class="cls-49" cx="78.46" cy="51.1" rx="2.48" ry="2.46"/>
          <ellipse id="Oval-Copy-2" class="cls-50" cx="78.46" cy="60.18" rx="2.48" ry="2.46"/>
        </g>
      </g>
      <path id="Combined-Shape" class="cls-51" d="M71.74,67h.75v1.7h-.75Zm2.46,0H75v1.7H74.2Zm2.32,0h.76v1.7h-.76Zm2.33,0h.76v1.7h-.76Zm2.32,0h.76v1.7h-.76Zm2.32,0h.76v1.7h-.76Zm2.32,0h.76v1.7h-.76Zm2.33,0h.76v1.7h-.76Zm2.32,0h.76v1.7h-.76Zm2.32,0h.76v1.7h-.76Zm2.33,0h.75v1.7h-.75Zm2.32,0h.76v1.7h-.76Zm2.32,0h.76v1.7h-.76Zm2.32,0h.76v1.7h-.76Zm2.33,0h.75v1.7h-.75Zm2.32,0h.76v1.7h-.76ZM109,67h.76v1.7H109Z"/>
      <path id="Combined-Shape-2" data-name="Combined-Shape" class="cls-52" d="M131.1,77.59H104.78V103h-3.41V77.59H76.6V103H73.19V77.59H46.87V103H43.46V77.59h-6a1.47,1.47,0,1,1,0-2.93H144a1.47,1.47,0,1,1,0,2.93h-9.52V103H131.1Z"/>
      <path id="Rectangle" class="cls-53" d="M37.81,73H143.72c.41,0,.75,0,.75.11v1.46c0,.07-.34.12-.75.12H37.81c-.41,0-.74,0-.74-.12V73.08C37.07,73,37.4,73,37.81,73Z"/>
      <path id="Rectangle-2" data-name="Rectangle" class="cls-51" d="M68.86,68.66h43.82a.3.3,0,0,1,.31.3v3.85a.31.31,0,0,1-.31.31H68.86a.31.31,0,0,1-.31-.31V69A.3.3,0,0,1,68.86,68.66Z"/>
    </g>
    <g id="Hand-2" data-name="Hand">
      <path class="cls-54" d="M24.61,51.66c.2,0,.65-.22.79-.23a6,6,0,0,1,2.22-.91c.23,0,.08.48-.45,1.27,1.94-.1,3-.06,3.16.1s-.39.41-1.67.75q2.3.28,2.22.57c0,.19-.79.41-2.25.65,1.23.39,1.77.66,1.65.79a5.36,5.36,0,0,1-2.22.18c.68.63.94,1,.78,1.06a16.08,16.08,0,0,1-3.58-1.74l-2-.25a38.58,38.58,0,0,1-12.29-3.76c-1-.52,2.44-5.11,3.37-4.34,1.85,1.54,5.65,3.58,10.31,5.86Z"/>
      <path id="Sleeve-2" data-name="Sleeve" class="cls-55" d="M10.27,34.93a29.92,29.92,0,0,0,2.3,8.83,4.46,4.46,0,0,0,1.12,1.5c.08.07.4-.31.48-.24.33.3.77.4,1.2.73,1.93,1.43-.83,6.33-4.26,5.49-.43-.1-.87-.74-1.19-1.16-.07-.09.17-.39.08-.44-.68-.38-1.34-.79-2-1.22C2.7,44.7.74,33.29,3.05,31.1,5.11,29.15,9.54,29.8,10.27,34.93Z"/>
      <path id="Sleeve-base" class="cls-56" d="M13.72,45.27c.1,0,.38-.31.45-.25.33.3.77.4,1.2.73,1.93,1.43-.83,6.33-4.26,5.49-.43-.1-.87-.74-1.19-1.16-.06-.07.1-.29.1-.39Q13.8,48.27,13.72,45.27Z"/>
    </g>
    <g id="Girl">
      <path id="Hair-4" data-name="Hair" class="cls-57" d="M166,22.32a4.65,4.65,0,0,0-3.75,4.62A8.74,8.74,0,0,0,163,30.3c.48,1.2-.5,1.85-.26,4,.19,1.66,1.54,2.84,1.26,4.07-.06.3,3.93-1.3,3.64-1-2.36,2.5-1.67,2.4,2-.3l2.45-2.78-.36-6.42-2.09-3Z"/>
      <path id="Jacket" class="cls-58" d="M154.61,75.64q2.23,3.36,20.16,3.84h2.32c.39-.06.6-.13.62-.23s.4-2.93,1.16-8.53L161.44,42.79q-2.38,26.81-4.5,28.41Q153.45,73.87,154.61,75.64Z"/>
      <g id="Foot-2" data-name="Foot">
        <path id="leg-2" data-name="leg" class="cls-59" d="M163.33,99.12l.39,2.47a2.11,2.11,0,0,1-1.75,1,3.52,3.52,0,0,1-1.86-.5l-.39-2.69Z"/>
        <path id="leg-3" data-name="leg" class="cls-60" d="M175.39,99.12l.39,2.47a2.13,2.13,0,0,1-1.76,1,3.49,3.49,0,0,1-1.85-.5l-.39-2.69Z"/>
        <path id="Shoes-3" data-name="Shoes" class="cls-61" d="M175.79,101.25c.29,0,.29,1,.31,1.79a8.43,8.43,0,0,1-.15,1.29.5.5,0,0,1-.46.41c-4.73.18-7.59.17-7.59,0-.38-1.26-.18-1.39,2-2.38.87-.4,1.67-.59,2.22-.92.18-.12.57.79,1.85.79S175.49,101.25,175.79,101.25Z"/>
        <path id="Shoes-4" data-name="Shoes" class="cls-62" d="M163.73,101.25c.3,0,.3,1,.31,1.79a6.45,6.45,0,0,1-.15,1.29.48.48,0,0,1-.45.41c-4.74.18-7.59.17-7.6,0-.38-1.26-.17-1.39,2-2.38.87-.4,1.67-.59,2.21-.92.19-.12.58.79,1.86.79S163.44,101.25,163.73,101.25Z"/>
        <path id="Pants-2" data-name="Pants" class="cls-63" d="M177,58.86a26.24,26.24,0,0,0,0,4.53q.27.7-3.1,17.61c.19,11,1.79,17,1.6,18.11-.29,1.63-3.64,1.63-4.05.45q-.41-1.17-3.37-19.1l-.34-9.38q-2.07,3.69-5.8,10c.41,11.66,1.95,17.83,1.41,18.51s-3.62,1-3.8,0Q156.66,87.57,156.67,81t5.91-22.14Z"/>
        <path id="Shadow-3" data-name="Shadow" class="cls-64" d="M161.94,81.12l-.05,0,4-11.55,1.83,1.53Q165.66,74.77,161.94,81.12Z"/>
        <path id="Texture" class="cls-65" d="M174.08,64.64,173,71.88a61.06,61.06,0,0,0-.15,17.6l1.28,9.38"/>
      </g>
      <g id="Body">
        <path id="Path-5" class="cls-66" d="M165.48,37.87c1.82-.27,3.86-.46,6.11-.79,4,1.63,4.45,2.93,5.27,3.89s-2.22,18.94-3.43,20.13c-1.77,1.73-4.44,2.33-7.68,1.86h0a4.28,4.28,0,0,1-3.64-4.86s0-.06,0-.09a44.57,44.57,0,0,0,.64-4.71c0-1.19-.6-4.12-1.79-8.77l2.62-5.81Z"/>
        <g id="Texture-2" data-name="Texture">
          <path class="cls-67" d="M173.83,72.27c3,2.23,4.43,4,4.43,5.43"/>
        </g>
      </g>
      <g id="Jacket-2" data-name="Jacket">
        <path id="Jacket-base" class="cls-68" d="M173.15,41.91l-1-4.63c3.7,1.87,5.75,1.87,6.72,4s-1.63,15-1.44,17.26c.27,3.42,1.92,3.84,2.09,11.35a25,25,0,0,1-.74,7.84,7.3,7.3,0,0,1-.48,1.07,1.41,1.41,0,0,1-1.23.73h0a.67.67,0,0,0,.42-.16.63.63,0,0,0,0-.88c-3.15-3.5-3-5.25-6-5.25-.73-3.58,2.55-10.29.64-16.78Q170.88,52.09,173.15,41.91Z"/>
        <path id="Texture-3" data-name="Texture" class="cls-69" d="M179,44.47a1.26,1.26,0,0,1-.58-.42l-.14-.18-.15-.16a1.43,1.43,0,0,0-2,.08l-.13.12a1.48,1.48,0,0,1-2.09-.16l-.13-.16a1.29,1.29,0,0,0-.17-.16,1.32,1.32,0,0,0-.73-.31c.08-.4.17-.8.26-1.21l-.27-1.25a1.24,1.24,0,0,1,1.48.62,1.06,1.06,0,0,0,.12.2,1.27,1.27,0,0,0,1.79.23l.86-.66.21-.13a1.18,1.18,0,0,1,1.56.56.91.91,0,0,0,.09.17A12.48,12.48,0,0,1,179,44.47Zm-.7,6.12,0,0-.15-.17a1.43,1.43,0,0,0-2,.08,1.59,1.59,0,0,1-.13.13,1.49,1.49,0,0,1-2.09-.17l-.13-.15a.91.91,0,0,0-.17-.17,1.38,1.38,0,0,0-1.83.07c.06-.71.14-1.47.25-2.26l.43-.36a1.14,1.14,0,0,1,.23-.15,1.24,1.24,0,0,1,1.66.55,1.06,1.06,0,0,0,.12.2,1.27,1.27,0,0,0,1.79.23l.86-.66.21-.13a1.17,1.17,0,0,1,1.35.26C178.58,48.76,178.46,49.68,178.33,50.59Zm-.81,6.14a1.44,1.44,0,0,0-1.38.42,1.59,1.59,0,0,1-.13.13,1.49,1.49,0,0,1-2.09-.17l-.13-.15a1.36,1.36,0,0,0-1.59-.37,1.54,1.54,0,0,1,0-.17,9.32,9.32,0,0,1-.33-1.64h0l.65-.54.23-.14a1.23,1.23,0,0,1,1.66.54.82.82,0,0,0,.12.2,1.28,1.28,0,0,0,1.79.24l.86-.66a1.2,1.2,0,0,1,.21-.13,1.1,1.1,0,0,1,.5-.11C177.71,55.13,177.59,56,177.52,56.73ZM179,64.49a1.29,1.29,0,0,1-.55-.41l-.14-.17-.15-.17a1.43,1.43,0,0,0-2,.09L176,64a1.49,1.49,0,0,1-2.09-.17l-.13-.15a1.35,1.35,0,0,0-1.15-.48,21.38,21.38,0,0,0,.11-2.41,1.24,1.24,0,0,1,1.61.57.82.82,0,0,0,.12.2,1.28,1.28,0,0,0,1.79.24l.86-.66a1.2,1.2,0,0,1,.21-.13,1.16,1.16,0,0,1,.57-.11A29.79,29.79,0,0,1,179,64.49Zm.53,5.8a1.38,1.38,0,0,0-.86.49,1.21,1.21,0,0,1-.2.19,1.31,1.31,0,0,1-1.85-.22l-.14-.17a.75.75,0,0,0-.15-.16,1.43,1.43,0,0,0-2,.08l-.13.12a1.48,1.48,0,0,1-2.09-.17L172,70.3a.91.91,0,0,0-.17-.17,1.07,1.07,0,0,0-.22-.15c.11-.79.27-1.64.43-2.53a1.18,1.18,0,0,1,.53.53,1.32,1.32,0,0,0,.12.2,1.29,1.29,0,0,0,1.8.24l.85-.66.22-.13a1.17,1.17,0,0,1,1.55.56,1,1,0,0,0,.15.24,1.12,1.12,0,0,0,1.58.15l.65-.53c0,.55.06,1.15.07,1.8C179.53,70,179.53,70.15,179.53,70.29ZM179,77a1.38,1.38,0,0,0-1.36.48,1.34,1.34,0,0,1-.21.2,1.36,1.36,0,0,1-.37.21c-1.37-1.62-2-2.81-2.75-3.6l.09,0a1.19,1.19,0,0,1,1.59.57,1,1,0,0,0,.16.25,1.16,1.16,0,0,0,1.62.16l.67-.55a1.14,1.14,0,0,1,.23-.15,1.25,1.25,0,0,1,.75-.13A17,17,0,0,1,179,77Z"/>
        <path id="Path-62" class="cls-70" d="M179,68.08a6.55,6.55,0,0,1-2-.79,6.87,6.87,0,0,1-1.7-1.53h0a.42.42,0,0,0-.59-.06l0,0h0a.68.68,0,0,0-.16.76l.61,1.51a2.09,2.09,0,0,0,2.16,1.29l1-.12a1.33,1.33,0,0,0,.91-.52h0a.35.35,0,0,0-.06-.49.37.37,0,0,0-.14-.07Z"/>
        <circle id="Oval-4" class="cls-71" cx="176.08" cy="68.74" r="1"/>
        <path id="Texture-4" data-name="Texture" class="cls-70" d="M173.06,71.65c-.73-3.58,2.55-10.29.64-16.79-.66-2.22,0-5,.54-9.18,0-.16-.74-.69-.72-.85,0-.32,1-.47,1.08-.8a17.58,17.58,0,0,0-.69-5.46l-1.14-2.84"/>
      </g>
      <g id="Head-2" data-name="Head">
        <path id="Neck" class="cls-72" d="M171.59,37.08c-3.33,2.83-5.47,4-6.41,3.52s-.41-1.38.36-2.7l-.1.05c.36-.39.88,0,1.49-.76.44-.56.32-2.11-.33-4.66,3.31-2.84,4.85-3.78,4.6-2.81-.36,1.44-.07.16-.14,2.25a23.12,23.12,0,0,0,.53,5.11Z"/>
        <path id="Face-2" data-name="Face" class="cls-73" d="M164,30.77l-.25-2.3c-.4-.95.47-2,.87-1.79a4.88,4.88,0,0,0,5.05-.73c-.22,1.64-.22,2.6,1,2.95.45-.46,1.65-.7,1.71,1q.06,1.68-1.32,1.47l-.24,1.9a6.8,6.8,0,0,1-3.24,2.51c-.93.29-1.54.31-1.84.06-.54-.46-1.09-1.78-1.57-3.68-.3-.08-.57-.16-.57-.54C163.58,31.45,163.85,31.34,164,30.77Z"/>
        <path id="Hair-5" data-name="Hair" class="cls-74" d="M164.07,24.63a3.45,3.45,0,0,0,3,3.61c3,.72,3,1.08,2.3,2.88-.43,1.22-1.34,2.27-1,3.64s2.14,1.15,2.8,2,.51,2.18,1.7,2.63a7.1,7.1,0,0,0,3.78-.16q0,11.27,1.45,12.83a3.43,3.43,0,0,0,5.36,0c1.41-1.78-.67-3.58-.67-5,0-2,.74-3.44,0-5.59s-3.23-2.86-4.24-4.45-.62-1.87-.93-4.14-2.38-3.28-2.38-4.67c0-2.17.24-3.61-1.37-5.19s-3.87-.42-5.39-.78C165.49,21.57,164,22.35,164.07,24.63Z"/>
      </g>
      <g id="Jacket-3" data-name="Jacket">
        <path id="Combined-Shape-3" data-name="Combined-Shape" class="cls-75" d="M179.05,42.1c.32,3.57-1.79,14.33-1.62,16.4a10.49,10.49,0,0,0,.62,2.77c-.89.84-2.22,1.55-5.43,2.11a18,18,0,0,0-.47-7c-.05-.16-.09-.32-.13-.49a17.6,17.6,0,0,0,3.36-9.65C175.38,42.32,176.61,40.93,179.05,42.1Z"/>
        <path class="cls-76" d="M164.5,38.34q-1.56,4.19-1.89,5.22c-.5,1.54-.76,4.53-1.56,11.72-.31,2.81.13,7-.21,10.09-.53,4.89,1.55,6.58,1.22,7.39-.45,1.1-5.22.09-7.61,2.6-.77-1.5,2.49-3.55,3-13.64a20.37,20.37,0,0,1,1.36-7.24,15.57,15.57,0,0,0,1.33-8.92,8.26,8.26,0,0,1,.33-4.73,4.84,4.84,0,0,1,4.14-3.07c.3-.11.9-.11.89.14Z"/>
        <path id="Texture-5" data-name="Texture" class="cls-77" d="M162.7,43.29l-.06.05a1.33,1.33,0,0,1-1.86-.22l-.13-.17a1.46,1.46,0,0,0-.59-.44,5,5,0,0,1,.45-1.68q.19-.37.39-.69a1.14,1.14,0,0,1,.33.42,1.58,1.58,0,0,0,.15.24A1.13,1.13,0,0,0,163,41l.65-.53a.58.58,0,0,1,.15-.11C163.25,41.71,162.89,42.71,162.7,43.29Zm-1.1,7a1.36,1.36,0,0,1-.82-.49l-.13-.17a1.29,1.29,0,0,0-.16-.17.89.89,0,0,0-.22-.16,15.56,15.56,0,0,0,0-2.73,1.15,1.15,0,0,1,.93.67,1.58,1.58,0,0,0,.15.24,1.12,1.12,0,0,0,.5.34C161.79,48.55,161.7,49.37,161.6,50.3ZM161,56.66a1,1,0,0,1-.17-.18l-.13-.17-.16-.16a1.43,1.43,0,0,0-2,.08l-.12.12-.18.13a10.58,10.58,0,0,1,.68-2c.12-.26.23-.52.34-.78l.28-.21a.92.92,0,0,1,.21-.13,1.16,1.16,0,0,1,1.53.51c-.05.45-.1.92-.16,1.41S161,56.18,161,56.66Zm0,6.68a1.66,1.66,0,0,1-.18-.19l-.13-.17a1.21,1.21,0,0,0-.16-.16,1.43,1.43,0,0,0-2,.08l-.12.12a1.54,1.54,0,0,1-1,.36c0-.53.09-1.08.12-1.66,0-.23,0-.45,0-.67a1.26,1.26,0,0,0,1.08-.23l.86-.66a1.48,1.48,0,0,1,.21-.13,1.19,1.19,0,0,1,1.28.19C161,61.27,161,62.33,161,63.34Zm.15,6.4-.1.11a1.89,1.89,0,0,1-.2.2,1.33,1.33,0,0,1-1.86-.22l-.13-.18-.15-.16a1.43,1.43,0,0,0-2,.08l-.13.13a1.29,1.29,0,0,1-.39.23c.22-.7.43-1.5.63-2.42l0,0,.86-.66.21-.13a1.17,1.17,0,0,1,1.55.56,1.4,1.4,0,0,0,.15.24,1.12,1.12,0,0,0,1.24.35A9.26,9.26,0,0,0,161.11,69.74ZM154.4,74.4a1.4,1.4,0,0,0,.74-.27l.87-.68a1,1,0,0,1,.23-.13,1.19,1.19,0,0,1,1.5.41,6.12,6.12,0,0,0-3.29,1.63A1.26,1.26,0,0,1,154.4,74.4Z"/>
        <path id="Texture-6" data-name="Texture" class="cls-67" d="M154.46,74.5q4.47-3.34,6.48-2.66"/>
        <path id="Texture-7" data-name="Texture" class="cls-70" d="M164.09,38q-1.76,3.45-2.13,4.41c-.51,1.28-1,4.49-1.84,11.68-.31,2.81.13,7-.21,10.09-.53,4.89,1.55,6.58,1.22,7.39"/>
      </g>
      <g id="Hand-3" data-name="Hand">
        <path class="cls-78" d="M157.19,58.16H161a1.72,1.72,0,0,1-1.73,1.72h-.37A1.72,1.72,0,0,1,157.19,58.16Z"/>
        <path id="Shadow-4" data-name="Shadow" class="cls-79" d="M156.72,58.48v-.32h1.73v.32a.56.56,0,0,1-.56.56h-.61A.56.56,0,0,1,156.72,58.48Z"/>
      </g>
      <g id="Box-3" data-name="Box">
        <polygon id="Box-base-7" data-name="Box-base" class="cls-80" points="154.05 45.89 162.72 44.36 162.72 58.17 154.05 58.17 154.05 45.89"/>
        <polygon id="Box-base-8" data-name="Box-base" class="cls-81" points="156.37 45.53 158.54 45.13 158.54 48.43 156.37 48.55 156.37 45.53"/>
        <polygon id="Box-base-9" data-name="Box-base" class="cls-82" points="173.88 45.89 173.88 58.17 162.72 58.17 162.72 44.36 173.88 45.89"/>
      </g>
      <g id="Hand-4" data-name="Hand">
        <path id="Sleeve-3" data-name="Sleeve" class="cls-83" d="M168.54,57.23c5,.46,6.31-.56,7-3.07,1-3.76.1-10.8-.4-13.1s2.73-2.3,4.69-.39,4,16.77-2.39,19.83a12.22,12.22,0,0,1-8.54.63h0a1.86,1.86,0,0,1-1.36-2.2h0A3.39,3.39,0,0,1,168.54,57.23Z"/>
        <path id="texture-8" data-name="texture" class="cls-70" d="M178.69,39.86c2,1.91,5,17.65-1.4,20.74"/>
        <path class="cls-84" d="M168.34,58.16h-3.83a1.73,1.73,0,0,0,1.73,1.72h.38A1.72,1.72,0,0,0,168.34,58.16Z"/>
        <path id="Shadow-5" data-name="Shadow" class="cls-85" d="M168.35,58.48v-.32h-1.73v.32a.56.56,0,0,0,.56.56h.61A.56.56,0,0,0,168.35,58.48Z"/>
        <path id="Texture-9" data-name="Texture" class="cls-86" d="M181.19,44.3a1.36,1.36,0,0,0-.54.39,1.26,1.26,0,0,1-.2.2,1.32,1.32,0,0,1-1.85-.22l-.13-.17a1.29,1.29,0,0,0-.16-.17,1.43,1.43,0,0,0-2,.08.8.8,0,0,1-.13.13,1.47,1.47,0,0,1-.47.27c-.09-.83-.2-1.59-.3-2.24a1.28,1.28,0,0,0,1-.24l.86-.66a1.07,1.07,0,0,1,.21-.13,1.17,1.17,0,0,1,1.55.57,1.14,1.14,0,0,0,.15.23,1.12,1.12,0,0,0,1.54.19A17.45,17.45,0,0,1,181.19,44.3Zm.54,6.58a1.41,1.41,0,0,0-1.08.5,1.26,1.26,0,0,1-.2.2,1.32,1.32,0,0,1-1.85-.22l-.13-.17a1.29,1.29,0,0,0-.16-.17,1.43,1.43,0,0,0-2,.08.8.8,0,0,1-.13.13l-.22.16c0-.69.05-1.42,0-2.14a1.37,1.37,0,0,0,.45-.23l.86-.65a.77.77,0,0,1,.21-.14,1.17,1.17,0,0,1,1.55.57,1.14,1.14,0,0,0,1.74.39l.64-.54.23-.14.05,0C181.75,49.27,181.76,50.08,181.73,50.88Zm-2,7.65a1.32,1.32,0,0,1-1.17-.5l-.13-.17a1.29,1.29,0,0,0-.16-.17,1.43,1.43,0,0,0-2,.08.8.8,0,0,1-.13.13,1.49,1.49,0,0,1-2.09-.17l-.12-.15c-.06-.06-.11-.12-.17-.17a1.29,1.29,0,0,0-.59-.28,3.17,3.17,0,0,0,1.75-1.39,1.28,1.28,0,0,0,1.49,0l.86-.66a.74.74,0,0,1,.21-.13,1.15,1.15,0,0,1,1.55.56,1.58,1.58,0,0,0,.15.24,1.13,1.13,0,0,0,1.59.15l.24-.2A10.54,10.54,0,0,1,179.77,58.53Zm-7.7-1.15a1.1,1.1,0,0,0-.22.21l-.19.19a1.34,1.34,0,0,1-1.88-.2l-.12-.15A14.16,14.16,0,0,0,172.07,57.38Zm-3.52,3.78.08,0a1.17,1.17,0,0,1,1.51.42c-.41-.07-.82-.16-1.24-.26h0A1.48,1.48,0,0,1,168.55,61.16Zm3.81.6.27-.22a1.07,1.07,0,0,1,.22-.15,1.22,1.22,0,0,1,1.44.24A12.27,12.27,0,0,1,172.36,61.76Z"/>
      </g>
    </g>
    <g id="Picture">
      <polygon id="Picture-base" class="cls-87" points="38 2 64 2 64 30 38 30 38 2"/>
      <polygon id="path-61-2" data-name="path-61" class="cls-88" points="40.07 3.84 61.93 3.84 61.93 28.32 40.07 28.32 40.07 3.84"/>
      <g class="cls-89">
        <g id="Group-19">
          <ellipse id="Moon" class="cls-90" cx="58.02" cy="8.35" rx="1.99" ry="1.91"/>
          <path id="Rocket-base" class="cls-91" d="M50.6,9.75q1.68,0,3.35,13.06h-6.7Q48.93,9.76,50.6,9.75Z"/>
          <path id="Rocket-base-2" data-name="Rocket-base" class="cls-1" d="M52.36,16.66c-.61.1-1.25-.71-1.43-1.79s.17-2,.78-2.14,1.25.72,1.43,1.8S53,16.57,52.36,16.66Z"/>
          <path id="Rocket-base-3" data-name="Rocket-base" class="cls-92" d="M50,15.16v7.06q-3,2.07-3,0T50,15.16Z"/>
          <path id="Rocket-base-4" data-name="Rocket-base" class="cls-93" d="M53,19.75q3,2.16,3,3.06t-3,0Z"/>
          <path id="Smoke" class="cls-94" d="M49.06,28.09a2.2,2.2,0,0,1-3.34.14,1.63,1.63,0,0,1-2.64.05,1.23,1.23,0,0,1-.85.34,1.18,1.18,0,0,1-.89-.38,1.54,1.54,0,0,1-1,.38,1.45,1.45,0,1,1,0-2.9,1.51,1.51,0,0,1,1.33.75,1.31,1.31,0,0,1,.59-.14,1.18,1.18,0,0,1,.78.28,1.65,1.65,0,0,1,2.3-.46,2.14,2.14,0,0,1,2-1.35,2.33,2.33,0,0,1,.92.19,1.54,1.54,0,0,1,2.85-.27,1.55,1.55,0,0,1,2.33.35,2.3,2.3,0,0,1,1.08-.27,2.14,2.14,0,0,1,2,1.35,1.65,1.65,0,0,1,2.3.46,1.18,1.18,0,0,1,.78-.28,1.22,1.22,0,0,1,.71.22,1.51,1.51,0,0,1,1.37-.83,1.45,1.45,0,1,1,0,2.9,1.55,1.55,0,0,1-1.11-.46,1.24,1.24,0,0,1-1.82.12,1.63,1.63,0,0,1-2.64-.05,2.17,2.17,0,0,1-1.61.7,2.21,2.21,0,0,1-1.62-.7,2,2,0,0,1-3.83-.14Z"/>
        </g>
      </g>
    </g>
    <g id="sticky-note">
      <path class="cls-95" d="M71.25,12v9.1h7.31V12ZM79,11.5V21.56H70.8V11.5Z"/>
      <polygon class="cls-96" points="74.07 0.08 81.83 0.08 81.83 9.66 74.07 9.66 74.07 0.08"/>
      <polygon class="cls-97" points="80.77 14.93 87.92 14.93 87.92 22.92 81.82 22.92 80.77 21.93 80.77 14.93"/>
    </g>
  </g>
</svg>