<?xml version="1.0" encoding="UTF-8"?>
<svg width="352px" height="352px" viewBox="0 0 352 352" version="1.1" xmlns="http://www.w3.org/2000/svg" xmlns:xlink="http://www.w3.org/1999/xlink">
    <!-- Generator: Sketch 56.2 (81672) - https://sketch.com -->
    <title>Illustration/404/Team</title>
    <desc>Created with Sketch.</desc>
    <defs>
        <linearGradient x1="50%" y1="93.9800382%" x2="50%" y2="-34.3490375%" id="linearGradient-1">
            <stop stop-color="#ECF3FF" offset="0%"></stop>
            <stop stop-color="#D6E1F2" offset="24.0403723%"></stop>
            <stop stop-color="#BFCDE4" offset="52.3622255%"></stop>
            <stop stop-color="#95ABC9" offset="100%"></stop>
        </linearGradient>
        <circle id="path-2" cx="176" cy="176" r="176"></circle>
        <linearGradient x1="50.0119925%" y1="119.766759%" x2="50.0119925%" y2="52.1149112%" id="linearGradient-4">
            <stop stop-color="#B7C4CB" stop-opacity="0" offset="0%"></stop>
            <stop stop-color="#FFFFFF" stop-opacity="0.251302083" offset="36.9261149%"></stop>
            <stop stop-color="#FFFFFF" offset="100%"></stop>
        </linearGradient>
        <linearGradient x1="50.0119925%" y1="119.766759%" x2="50.0119925%" y2="52.1149112%" id="linearGradient-5">
            <stop stop-color="#B7C4CB" stop-opacity="0" offset="0%"></stop>
            <stop stop-color="#FFFFFF" stop-opacity="0.251302083" offset="36.9261149%"></stop>
            <stop stop-color="#FFFFFF" offset="100%"></stop>
        </linearGradient>
    </defs>
    <g id="404" stroke="none" stroke-width="1" fill="none" fill-rule="evenodd">
        <g id="[Web]-Unavailable-Team" transform="translate(-544.000000, -73.000000)">
            <g id="Illustration/404/Team" transform="translate(544.000000, 73.000000)">
                <g>
                    <mask id="mask-3" fill="white">
                        <use xlink:href="#path-2"></use>
                    </mask>
                    <use id="base" fill="url(#linearGradient-1)" xlink:href="#path-2"></use>
                    <g id="Artwork" mask="url(#mask-3)">
                        <g transform="translate(28.593838, -13.803922)">
                            <g id="ghost" opacity="0.601446243" transform="translate(8.406162, 104.803922)">
                                <path d="M131.926849,119.977704 C133.914353,126.645034 135.62772,133.911707 137.07777,141.759476 C154.824235,216.709709 160.087881,280.43134 152.868709,332.92437 C108.544592,332.92437 44.8566856,332.92437 4.53146072,332.92437 C-4.60294531,282.644947 0.0723303494,218.923315 18.5572877,141.759476 C20.0419777,133.770218 21.7298046,126.47195 23.6377877,119.841353 L27.9952403,48.5135378 C29.6287728,21.7739922 51.790979,0.924369748 78.5803748,0.924369748 C105.27119,0.924369748 127.256407,21.8876928 128.525821,48.5483047 L131.926849,119.977704 Z" id="Combined-Shape" fill="url(#linearGradient-4)"></path>
                                <path d="M60.5,40.9243697 C55.2532949,40.9243697 51,45.9860394 51,52.2299253 L51,61.7834282 C51,69.0056216 54.7966081,75.4562352 60.5,77.9243697 C66.2033919,75.4562352 70,69.0056216 70,61.7834282 L70,52.2299253 C70,45.9860394 65.7467051,40.9243697 60.5,40.9243697 Z" id="Rectangle-5" fill="#E6EEFC"></path>
                                <path d="M93.5,40.9243697 C88.2532949,40.9243697 84,45.9860394 84,52.2299253 L84,61.7834282 C84,69.0056216 87.7966081,75.4562352 93.5,77.9243697 C99.2033919,75.4562352 103,69.0056216 103,61.7834282 L103,52.2299253 C103,45.9860394 98.7467051,40.9243697 93.5,40.9243697 Z" id="Rectangle-5-Copy" fill="#E6EEFC"></path>
                                <circle id="Oval-4" fill="#302C48" cx="62" cy="62.9243697" r="6"></circle>
                                <circle id="Oval-4-Copy" fill="#302C48" cx="96" cy="62.9243697" r="6"></circle>
                                <circle id="Oval-4-Copy-3" fill="#FFFFFF" cx="64" cy="63.9243697" r="2"></circle>
                                <circle id="Oval-4-Copy-2" fill="#FFFFFF" cx="98" cy="63.9243697" r="2"></circle>
                            </g>
                            <g id="ghost" opacity="0.600957961" transform="translate(130.406162, 104.803922)">
                                <path d="M131.926849,119.977704 C133.914353,126.645034 135.62772,133.911707 137.07777,141.759476 C154.824235,216.709709 160.087881,280.43134 152.868709,332.92437 C108.544592,332.92437 44.8566856,332.92437 4.53146072,332.92437 C-4.60294531,282.644947 0.0723303494,218.923315 18.5572877,141.759476 C20.0419777,133.770218 21.7298046,126.47195 23.6377877,119.841353 L27.9952403,48.5135378 C29.6287728,21.7739922 51.790979,0.924369748 78.5803748,0.924369748 C105.27119,0.924369748 127.256407,21.8876928 128.525821,48.5483047 L131.926849,119.977704 Z" id="Combined-Shape" fill="url(#linearGradient-4)"></path>
                                <path d="M60.5,40.9243697 C55.2532949,40.9243697 51,45.9860394 51,52.2299253 L51,61.7834282 C51,69.0056216 54.7966081,75.4562352 60.5,77.9243697 C66.2033919,75.4562352 70,69.0056216 70,61.7834282 L70,52.2299253 C70,45.9860394 65.7467051,40.9243697 60.5,40.9243697 Z" id="Rectangle-5" fill="#E6EEFC"></path>
                                <path d="M93.5,40.9243697 C88.2532949,40.9243697 84,45.9860394 84,52.2299253 L84,61.7834282 C84,69.0056216 87.7966081,75.4562352 93.5,77.9243697 C99.2033919,75.4562352 103,69.0056216 103,61.7834282 L103,52.2299253 C103,45.9860394 98.7467051,40.9243697 93.5,40.9243697 Z" id="Rectangle-5-Copy" fill="#E6EEFC"></path>
                                <circle id="Oval-4" fill="#302C48" cx="62" cy="62.9243697" r="6"></circle>
                                <circle id="Oval-4-Copy" fill="#302C48" cx="96" cy="62.9243697" r="6"></circle>
                                <circle id="Oval-4-Copy-3" fill="#FFFFFF" cx="64" cy="63.9243697" r="2"></circle>
                                <circle id="Oval-4-Copy-2" fill="#FFFFFF" cx="98" cy="63.9243697" r="2"></circle>
                            </g>
                            <g id="ghost" transform="translate(59.159664, 78.879552)">
                                <path d="M147.589561,132.943091 C149.810006,140.388287 151.724185,148.502751 153.344184,157.266106 C173.170584,240.960659 179.051145,312.116589 170.985865,370.733894 C121.466838,370.733894 50.3145317,370.733894 5.26307824,370.733894 C-4.94190561,314.588453 0.281325371,243.432524 20.9327712,157.266106 C22.591471,148.344754 24.477116,140.19501 26.60872,132.790832 L31.4753295,53.1666565 C33.3012012,23.292978 58.0613064,5.49794616e-15 87.9907313,0 C117.809972,-5.47770572e-15 142.372254,23.4200702 143.791133,53.2055351 L147.589561,132.943091 Z" id="Combined-Shape" fill="url(#linearGradient-5)"></path>
                                <path d="M67.047619,44.3697479 C61.0575727,44.3697479 56.2016807,50.0349552 56.2016807,57.0233427 L56.2016807,67.7159755 C56.2016807,75.7993207 60.5361836,83.0190854 67.047619,85.7815126 C73.5590545,83.0190854 77.8935574,75.7993207 77.8935574,67.7159755 L77.8935574,57.0233427 C77.8935574,50.0349552 73.0376654,44.3697479 67.047619,44.3697479 Z" id="Rectangle-5" fill="#E6EEFC"></path>
                                <path d="M104.515406,44.3697479 C98.5253598,44.3697479 93.6694678,50.0349552 93.6694678,57.0233427 L93.6694678,67.7159755 C93.6694678,75.7993207 98.0039707,83.0190854 104.515406,85.7815126 C111.026842,83.0190854 115.361345,75.7993207 115.361345,67.7159755 L115.361345,57.0233427 C115.361345,50.0349552 110.505453,44.3697479 104.515406,44.3697479 Z" id="Rectangle-5-Copy" fill="#E6EEFC"></path>
                                <circle id="Oval-4" fill="#302C48" cx="69.0196078" cy="69.0196078" r="6.90196078"></circle>
                                <circle id="Oval-4-Copy" fill="#302C48" cx="106.487395" cy="69.0196078" r="6.90196078"></circle>
                                <circle id="Oval-4-Copy-3" fill="#FFFFFF" cx="71.4845938" cy="70.4985994" r="2.46498599"></circle>
                                <circle id="Oval-4-Copy-2" fill="#FFFFFF" cx="108.952381" cy="70.4985994" r="2.46498599"></circle>
                            </g>
                            <g id="spider" transform="translate(0.000000, 59.159664)">
                                <path d="M22.5493653,126.009693 C22.5493653,130.863244 19.2438705,141.56577 14.9910065,142.341514" id="Path-40" stroke="#302C48" stroke-width="0.985994398"></path>
                                <path d="M11.7034269,116.149749 C11.7034269,121.0033 8.39793212,131.705826 4.14506808,132.48157" id="Path-40-Copy-4" stroke="#302C48" stroke-width="0.985994398" transform="translate(7.924248, 124.315660) rotate(34.000000) translate(-7.924248, -124.315660) "></path>
                                <path d="M46.2126816,117.135743 C46.2126816,121.989294 42.9071868,132.69182 38.6543227,133.467565" id="Path-40-Copy-5" stroke="#302C48" stroke-width="0.985994398" transform="translate(42.433502, 125.301654) rotate(-90.000000) translate(-42.433502, -125.301654) "></path>
                                <path d="M37.3392813,126.009693 C37.3392813,130.863244 34.0337865,141.56577 29.7809224,142.341514" id="Path-40-Copy" stroke="#302C48" stroke-width="0.985994398" transform="translate(33.560102, 134.175604) scale(-1, 1) rotate(-14.000000) translate(-33.560102, -134.175604) "></path>
                                <polygon id="Star-2" fill="#302C48" points="26.1288515 132.933897 24.5815703 136.007918 23.5216696 132.733732 21.5232747 135.535536 20.9755978 132.137928 18.57293 134.601842 18.5503139 131.160451 15.7996897 133.228723 16.3026645 129.824212 13.2685561 131.448364 14.2853327 128.16053 11.038857 129.302494 12.5456028 126.208402 9.16285458 126.84141 11.1242528 124.013584 7.68452074 124.122799 10.0545979 121.62752 6.63850638 121.210382 9.3617098 119.106137 6.04932919 118.172425 9.06182934 116.508535 5.93079898 115.080133 9.16198541 113.8956 6.28569401 112.005988 9.65983044 111.328575 7.10569584 109.022045 10.5436954 108.867631 8.37158431 106.198246 11.7928632 106.57045 10.0536881 103.600777 13.3780544 104.490875 12.11258 101.290522 15.2621134 102.677649 14.5000015 99.3216295 17.4008796 101.173275 17.1599934 97.7402503 19.7442221 100.013012 20.0302077 96.58345 22.2372149 99.2240567 23.0433691 95.878343 24.8214243 98.824901 26.1288515 95.6414566 27.4362788 98.824901 29.214334 95.878343 30.0204882 99.2240567 32.2274953 96.58345 32.513481 100.013012 35.0977097 97.7402503 34.8568234 101.173275 37.7577015 99.3216295 36.9955896 102.677649 40.145123 101.290522 38.8796487 104.490875 42.204015 103.600777 40.4648399 106.57045 43.8861188 106.198246 41.7140077 108.867631 45.1520072 109.022045 42.5978726 111.328575 45.9720091 112.005988 43.0957177 113.8956 46.3269041 115.080133 43.1958737 116.508535 46.2083739 118.172425 42.8959933 119.106137 45.6191967 121.210382 42.2031052 121.62752 44.5731823 124.122799 41.1334503 124.013584 43.0948485 126.84141 39.7121003 126.208402 41.2188461 129.302494 37.9723704 128.16053 38.989147 131.448364 35.9550385 129.824212 36.4580134 133.228723 33.7073891 131.160451 33.6847731 134.601842 31.2821053 132.137928 30.7344283 135.535536 28.7360335 132.733732 27.6761328 136.007918"></polygon>
                                <path d="M26.1288515,0.492997199 L26.1288515,96.1541704" id="Line" stroke="#FFFFFF" stroke-width="0.985994398" opacity="0.70405506" stroke-linecap="square"></path>
                                <g id="Group-6" transform="translate(14.789916, 110.431373)">
                                    <circle id="Oval-3" fill="#FFFFFF" cx="5.91596639" cy="5.91596639" r="5.91596639"></circle>
                                    <circle id="Oval-3-Copy" fill="#4B4B4B" cx="7.39495798" cy="6.40896359" r="2.46498599"></circle>
                                </g>
                                <g id="Group-6-Copy" transform="translate(30.565826, 110.431373)">
                                    <circle id="Oval-3" fill="#FFFFFF" cx="5.91596639" cy="5.91596639" r="5.91596639"></circle>
                                    <circle id="Oval-3-Copy" fill="#4B4B4B" cx="7.39495798" cy="6.40896359" r="2.46498599"></circle>
                                </g>
                            </g>
                            <g id="spider" transform="translate(271.148459, 118.319328) scale(-1, 1) translate(-271.148459, -118.319328) translate(247.484594, 0.000000)">
                                <path d="M19.5913821,218.693166 C19.5913821,223.546717 16.2858873,234.249243 12.0330233,235.024988" id="Path-40" stroke="#302C48" stroke-width="0.985994398"></path>
                                <path d="M11.7034269,211.791205 C11.7034269,216.644756 8.39793212,227.347283 4.14506808,228.123027" id="Path-40-Copy-2" stroke="#302C48" stroke-width="0.985994398" transform="translate(7.924248, 219.957116) rotate(29.000000) translate(-7.924248, -219.957116) "></path>
                                <path d="M42.2650565,211.791205 C42.2650565,216.644756 38.9595617,227.347283 34.7066977,228.123027" id="Path-40-Copy-3" stroke="#302C48" stroke-width="0.985994398" transform="translate(38.485877, 219.957116) scale(-1, -1) rotate(103.000000) translate(-38.485877, -219.957116) "></path>
                                <path d="M34.3812981,218.693166 C34.3812981,223.546717 31.0758033,234.249243 26.8229392,235.024988" id="Path-40-Copy" stroke="#302C48" stroke-width="0.985994398" transform="translate(30.602119, 226.859077) scale(-1, 1) rotate(-14.000000) translate(-30.602119, -226.859077) "></path>
                                <polygon id="Star-2" fill="#302C48" points="23.1708683 225.617371 21.6235871 228.691392 20.5636864 225.417205 18.5652915 228.219009 18.0176146 224.821402 15.6149468 227.285316 15.5923307 223.843924 12.8417065 225.912197 13.3446814 222.507685 10.3105729 224.131837 11.3273495 220.844004 8.08087382 221.985967 9.58761961 218.891876 6.20487139 219.524884 8.16626959 216.697057 4.72653754 216.806273 7.09661466 214.310993 3.68052318 213.893856 6.4037266 211.789611 3.091346 210.855898 6.10384614 209.192009 2.97281579 207.763606 6.20400222 206.579073 3.32771082 204.689462 6.70184725 204.012049 4.14771264 201.705519 7.58571218 201.551105 5.41360111 198.881719 8.83487996 199.253923 7.09570488 196.284251 10.4200712 197.174348 9.15459685 193.973995 12.3041302 195.361123 11.5420183 192.005103 14.4428964 193.856748 14.2020102 190.423724 16.7862389 192.696486 17.0722245 189.266923 19.2792317 191.90753 20.0853859 188.561816 21.8634411 191.508374 23.1708683 188.32493 24.4782956 191.508374 26.2563508 188.561816 27.062505 191.90753 29.2695122 189.266923 29.5554978 192.696486 32.1397265 190.423724 31.8988402 193.856748 34.7997184 192.005103 34.0376065 195.361123 37.1871398 193.973995 35.9216655 197.174348 39.2460318 196.284251 37.5068567 199.253923 40.9281356 198.881719 38.7560245 201.551105 42.1940241 201.705519 39.6398894 204.012049 43.0140259 204.689462 40.1377345 206.579073 43.3689209 207.763606 40.2378906 209.192009 43.2503907 210.855898 39.9380101 211.789611 42.6612135 213.893856 39.245122 214.310993 41.6151991 216.806273 38.1754671 216.697057 40.1368653 219.524884 36.7541171 218.891876 38.2608629 221.985967 35.0143872 220.844004 36.0311638 224.131837 32.9970553 222.507685 33.5000302 225.912197 30.7494059 223.843924 30.7267899 227.285316 28.3241221 224.821402 27.7764452 228.219009 25.7780503 225.417205 24.7181496 228.691392"></polygon>
                                <g id="Group-6" transform="translate(11.831933, 203.114846)">
                                    <circle id="Oval-3" fill="#FFFFFF" cx="5.91596639" cy="5.91596639" r="5.91596639"></circle>
                                    <circle id="Oval-3-Copy" fill="#4B4B4B" cx="7.39495798" cy="4.43697479" r="2.46498599"></circle>
                                </g>
                                <g id="Group-6-Copy" transform="translate(27.607843, 203.114846)">
                                    <circle id="Oval-3" fill="#FFFFFF" cx="5.91596639" cy="5.91596639" r="5.91596639"></circle>
                                    <circle id="Oval-3-Copy" fill="#4B4B4B" cx="7.39495798" cy="4.43697479" r="2.46498599"></circle>
                                </g>
                                <path d="M26.6218487,0 L26.6218487,189.330633" id="Line" stroke="#FFFFFF" stroke-width="0.985994398" opacity="0.700548129" stroke-linecap="square"></path>
                            </g>
                        </g>
                    </g>
                </g>
            </g>
        </g>
    </g>
</svg>