<svg width="32" height="32" viewBox="0 0 32 32" fill="none" xmlns="http://www.w3.org/2000/svg">
<circle cx="16" cy="16" r="16" fill="#DAE4EC"/>
<path d="M11.3548 16.4669C11.3548 16.5486 11.3398 16.6295 11.3107 16.705C11.2815 16.7805 11.2387 16.8491 11.1848 16.9069C11.1309 16.9646 11.0669 17.0105 10.9964 17.0417C10.926 17.073 10.8505 17.0891 10.7742 17.0891H10.7742L7.58057 17.0888C7.4727 17.0888 7.36698 17.0566 7.27524 16.9958C7.18351 16.935 7.10938 16.848 7.06119 16.7446C7.01299 16.6412 6.99263 16.5254 7.00238 16.4103C7.01213 16.2952 7.0516 16.1853 7.11638 16.0929C7.631 15.354 8.31736 14.7726 9.10704 14.4066C8.76772 14.0742 8.50693 13.6602 8.34613 13.1986C8.18534 12.7371 8.12914 12.2413 8.18217 11.7519C8.23519 11.2625 8.39593 10.7937 8.65114 10.3839C8.90635 9.97414 9.24873 9.6352 9.65009 9.39498C10.0515 9.15476 10.5003 9.02014 10.9597 9.00221C11.4192 8.98427 11.876 9.08353 12.2926 9.29181C12.7092 9.5001 13.0737 9.81144 13.3561 10.2002C13.6384 10.589 13.8306 11.0441 13.9167 11.528C13.9389 11.6537 13.9245 11.7837 13.8754 11.9003C13.8262 12.0169 13.7447 12.1144 13.6419 12.1796C12.7019 12.7755 11.9865 13.7056 11.62 14.8081C11.4439 15.3408 11.3542 15.9018 11.3548 16.4669V16.4669ZM24.8836 16.0927C24.369 15.3538 23.6827 14.7724 22.893 14.4064C23.2323 14.074 23.4931 13.66 23.6539 13.1985C23.8147 12.737 23.8709 12.2411 23.8179 11.7518C23.7648 11.2624 23.6041 10.7935 23.3489 10.3838C23.0937 9.97402 22.7513 9.63507 22.35 9.39485C21.9486 9.15463 21.4997 9.02001 21.0403 9.00206C20.5809 8.98412 20.1241 9.08337 19.7075 9.29164C19.2909 9.49991 18.9264 9.81125 18.644 10.2C18.3616 10.5888 18.1695 11.0439 18.0834 11.5278C18.0611 11.6535 18.0755 11.7835 18.1247 11.9001C18.1738 12.0166 18.2553 12.1142 18.3581 12.1793C19.2981 12.7753 20.0135 13.7054 20.3801 14.808C20.5561 15.3406 20.6458 15.9016 20.6452 16.4667C20.6452 16.5484 20.6602 16.6293 20.6894 16.7048C20.7186 16.7803 20.7613 16.8489 20.8153 16.9067C20.8692 16.9645 20.9332 17.0103 21.0036 17.0416C21.0741 17.0728 21.1496 17.0889 21.2259 17.0889L24.4194 17.0886C24.5273 17.0886 24.633 17.0564 24.7248 16.9956C24.8165 16.9348 24.8906 16.8478 24.9388 16.7444C24.987 16.641 25.0074 16.5253 24.9976 16.4102C24.9879 16.295 24.9484 16.1851 24.8836 16.0927L24.8836 16.0927ZM18.1166 19.4292C18.6952 18.955 19.1205 18.2984 19.3327 17.5517C19.5449 16.8051 19.5335 16.0059 19.2999 15.2666C19.0663 14.5272 18.6223 13.885 18.0304 13.4301C17.4385 12.9752 16.7285 12.7305 16.0001 12.7305C15.2717 12.7305 14.5616 12.9752 13.9697 13.4301C13.3778 13.885 12.9339 14.5272 12.7003 15.2666C12.4667 16.0059 12.4552 16.8051 12.6674 17.5517C12.8797 18.2984 13.305 18.955 13.8835 19.4292C12.7531 19.9641 11.8373 20.9127 11.3001 22.1052C11.2569 22.2 11.237 22.3051 11.2422 22.4105C11.2473 22.5159 11.2774 22.6181 11.3296 22.7076C11.3818 22.7971 11.4544 22.8709 11.5405 22.922C11.6267 22.9732 11.7235 23 11.822 23H20.1781C20.2766 23 20.3735 22.9732 20.4596 22.922C20.5457 22.8708 20.6183 22.7971 20.6705 22.7076C20.7227 22.6181 20.7528 22.5159 20.758 22.4105C20.7631 22.3051 20.7432 22.2 20.7001 22.1052C20.1629 20.9127 19.247 19.9641 18.1166 19.4292V19.4292Z" fill="#618298"/>
</svg>
