<svg width="480" height="484" viewBox="0 0 480 484" fill="none" xmlns="http://www.w3.org/2000/svg">
<g clip-path="url(#clip0_490_8191)">
<rect width="480" height="484" fill="white"/>
<path d="M0 0H480V484H0V0Z" fill="#CE2846"/>
<mask id="mask0_490_8191" style="mask-type:alpha" maskUnits="userSpaceOnUse" x="0" y="0" width="480" height="484">
<path d="M0 0H480V484H0V0Z" fill="#DA6668"/>
</mask>
<g mask="url(#mask0_490_8191)">
<path opacity="0.1" d="M403.993 277.905C536.97 266.732 585.285 331.341 592.82 365.042L634.241 -87.9812L13.0968 -142.749C10.8554 -139.671 3.32535 -123.532 -8.86397 -83.5959C-58.8716 42.2904 50.8312 66.0607 85.5292 69.1201C120.227 72.1796 211.383 66.1194 258.887 119.436C306.391 172.752 237.773 291.871 403.993 277.905Z" fill="#FCF0EE"/>
<path d="M514.901 129.492C550.504 117.536 575.562 123.098 583.641 127.373L621.657 -51.8819L266.616 -121.422C262.909 -113.875 254.986 -97.6709 252.951 -93.2215C250.408 -87.6597 250.379 -62.2719 274.001 -38.8885C297.623 -15.5051 301.193 -7.01454 302.353 21.2035C299.773 61.0971 304.375 70.7884 327.323 76.3042C346.775 80.9799 387.847 52.1645 411.936 89.4906C436.025 126.817 470.397 144.438 514.901 129.492Z" fill="#CE2846"/>
</g>
</g>
<defs>
<clipPath id="clip0_490_8191">
<rect width="480" height="484" fill="white"/>
</clipPath>
</defs>
</svg>
