<svg xmlns="http://www.w3.org/2000/svg" width="154" height="95" viewBox="0 0 154 95">
    <defs>
        <linearGradient id="t1bcew42pa" x1="50.001%" x2="50.001%" y1="107.285%" y2="4.914%">
            <stop offset="0%" stop-color="#C0D0DF"/>
            <stop offset="100%" stop-color="#E7EBF0"/>
        </linearGradient>
        <linearGradient id="zwe1cxniab" x1="50%" x2="50%" y1="99.993%" y2="-.005%">
            <stop offset="0%" stop-color="#C0D0DF"/>
            <stop offset="100%" stop-color="#8093A7"/>
        </linearGradient>
        <linearGradient id="9jmmkxcrjc" x1="50.001%" x2="50.001%" y1="94.791%" y2="1.684%">
            <stop offset="0%" stop-color="#C0D0DF"/>
            <stop offset="100%" stop-color="#E7EBF0"/>
        </linearGradient>
        <linearGradient id="akwyzlqqmd" x1="50.012%" x2="50.012%" y1="-7.814%" y2="118.774%">
            <stop offset="0%" stop-color="#C0D0DF"/>
            <stop offset="100%" stop-color="#8093A7"/>
        </linearGradient>
        <linearGradient id="6uk31m0zve" x1="50.132%" x2="50.132%" y1="-7.81%" y2="118.78%">
            <stop offset="0%" stop-color="#DEE1E2"/>
            <stop offset="100%" stop-color="#B4BCBE"/>
        </linearGradient>
        <linearGradient id="cu92wv115f" x1="140.27%" x2="-12.854%" y1="82.219%" y2="26.838%">
            <stop offset="0%" stop-color="#C0D0DF"/>
            <stop offset="100%" stop-color="#8093A7"/>
        </linearGradient>
        <linearGradient id="7f9g50sjrg" x1="50%" x2="50%" y1="100.209%" y2="-7.208%">
            <stop offset="0%" stop-color="#C0D0DF"/>
            <stop offset="100%" stop-color="#E7EBF0"/>
        </linearGradient>
        <linearGradient id="4q3ehqxtyh" x1="92.361%" x2="-7.332%" y1="71.833%" y2="-36.789%">
            <stop offset="0%" stop-color="#C0D0DF"/>
            <stop offset="100%" stop-color="#8093A7"/>
        </linearGradient>
        <linearGradient id="e84av89g3i" x1="35.522%" x2="73.764%" y1="20.41%" y2="137.062%">
            <stop offset="0%" stop-color="#E7EBF0"/>
            <stop offset="34.768%" stop-color="#D9E1EA"/>
            <stop offset="69.835%" stop-color="#CBD7E4"/>
            <stop offset="100%" stop-color="#C0D0DF"/>
        </linearGradient>
        <linearGradient id="yzct6lqb5j" x1="-46.625%" x2="82.231%" y1="49.999%" y2="49.999%">
            <stop offset="0%" stop-color="#C0D0DF" stop-opacity=".9"/>
            <stop offset="9%" stop-color="#E7EBF0" stop-opacity=".9"/>
            <stop offset="25%" stop-color="#E7EBF0" stop-opacity=".86"/>
            <stop offset="44%" stop-color="#E7EBF0" stop-opacity=".7"/>
            <stop offset="68%" stop-color="#E7EBF0" stop-opacity=".47"/>
            <stop offset="93%" stop-color="#E7EBF0" stop-opacity=".18"/>
            <stop offset="100%" stop-color="#E7EBF0" stop-opacity=".1"/>
        </linearGradient>
        <linearGradient id="g6mltwddwk" x1="49.617%" x2="51.009%" y1="-6.377%" y2="105.29%">
            <stop offset="0%" stop-color="#DEE1E2"/>
            <stop offset="100%" stop-color="#B4BCBE"/>
        </linearGradient>
        <linearGradient id="xkax39c2hl" x1="50%" x2="50%" y1="-19.395%" y2="96.226%">
            <stop offset="0%" stop-color="#C0D0DF"/>
            <stop offset="100%" stop-color="#8093A7"/>
        </linearGradient>
        <linearGradient id="0gcaerywbm" x1="168.709%" x2="4.776%" y1="-17.434%" y2="77.071%">
            <stop offset="0%" stop-color="#C0D0DF"/>
            <stop offset="100%" stop-color="#8093A7"/>
        </linearGradient>
        <linearGradient id="upjn1u6fnn" x1="105.532%" x2="12.687%" y1="-11.314%" y2="81.13%">
            <stop offset="0%" stop-color="#FEFEFC"/>
            <stop offset="100%" stop-color="#C4EAFC" stop-opacity=".1"/>
        </linearGradient>
        <linearGradient id="5p7s5qd0jo" x1="-26.119%" x2="67.52%" y1="36.64%" y2="53.075%">
            <stop offset="0%" stop-color="#C0D0DF" stop-opacity=".2"/>
            <stop offset="100%" stop-color="#8093A7"/>
        </linearGradient>
        <linearGradient id="wlsp6tb7kp" x1="3.119%" x2="77.098%" y1="57.935%" y2="45.414%">
            <stop offset="0%" stop-color="#E7EBF0"/>
            <stop offset="100%" stop-color="#C0D0DF"/>
        </linearGradient>
        <linearGradient id="nz1alprdbq" x1="42.914%" x2="71.776%" y1="-11.3%" y2="179.731%">
            <stop offset="0%" stop-color="#F9BB6A"/>
            <stop offset="100%" stop-color="#C9803D"/>
        </linearGradient>
    </defs>
    <g fill="none" fill-rule="evenodd">
        <g>
            <g>
                <path d="M0 0H154V95H0z" opacity=".68" transform="translate(-643 -333) translate(643 333)"/>
                <g>
                    <g opacity=".6" transform="translate(-643 -333) translate(643 333) translate(40 2) translate(23)">
                        <path fill="url(#t1bcew42pa)" fill-rule="nonzero" d="M90.304 41.64c-.631-6.493-4.178-12.133-9.318-15.607v-7.457C80.986 8.36 73.015 0 63.26 0h-.1c-9.757 0-17.728 8.36-17.728 18.576v8.547c-4.338 3.502-7.276 8.665-7.846 14.517-.066.687-.1 1.383-.101 2.089v1.436c0 11.794 9.58 21.352 21.4 21.352h10.119c3.416.006 6.784-.81 9.819-2.376.052-.027.105-.053.156-.083C85.774 60.48 90.405 53.36 90.405 45.16v-1.436c0-.703-.034-1.398-.101-2.086zM75.88 23.5c-2.214-.747-4.537-1.127-6.875-1.125H58.886c-2.866-.004-5.704.57-8.344 1.684v-3.538c0-.591.02-1.175.06-1.751.25-3.565 1.266-6.814 3.073-9.278 2.1-2.861 5.268-4.66 9.537-4.66 7.68 0 11.695 5.708 12.51 12.866.106.937.159 1.88.157 2.824V23.5z" opacity=".26"/>
                        <path fill="url(#zwe1cxniab)" fill-rule="nonzero" d="M76.808 64.752c-1.503 1.481-3.217 2.733-5.087 3.716-.052.029-.105.055-.157.084-3.042 1.566-6.417 2.38-9.841 2.375h-10.14c-11.846 0-21.448-9.556-21.448-21.348v-1.436c0-.705.034-1.401.101-2.088.571-5.851 3.516-11.013 7.863-14.515v-8.545c0-6.55 3.285-12.335 8.22-15.645-3.33 3.38-5.405 8.103-5.405 13.309v8.545c-4.347 3.501-7.292 8.663-7.863 14.514-.067.687-.101 1.383-.101 2.089v1.436c0 11.791 9.6 21.349 21.447 21.349H64.54c3.424.004 6.8-.81 9.84-2.376.054-.027.105-.055.158-.084.784-.412 1.543-.873 2.27-1.38z" opacity=".19"/>
                        <path fill="url(#9jmmkxcrjc)" fill-rule="nonzero" d="M76.44 20.45v8.95h-5.123v-7.001c.001-.945-.051-1.89-.157-2.83-.817-7.171-4.843-12.892-12.544-12.892-3.875 0-6.846 1.479-8.936 3.885-.218.25-.426.512-.625.783-1.811 2.47-2.83 5.728-3.082 9.298-.042.578-.061 1.164-.061 1.755v7h-5.12V20.45c0-5.217 2.077-9.95 5.407-13.338 3.205-3.26 7.57-5.274 12.367-5.274h.1c9.782 0 17.774 8.376 17.774 18.612z"/>
                        <path fill="url(#akwyzlqqmd)" fill-rule="nonzero" d="M76.44 22.243v5.687c-1.556-1.008-3.235-1.798-4.992-2.35v-2.875c.001-.955-.05-1.91-.153-2.86 1.812.554 3.543 1.36 5.145 2.398z"/>
                        <path fill="url(#6uk31m0zve)" fill-rule="nonzero" d="M71.373 22.418c0-.983-.052-1.964-.157-2.94l.125.038c.022.449.033.9.033 1.356l-.001 1.546z" opacity=".82"/>
                        <path fill="url(#cu92wv115f)" fill-rule="nonzero" d="M76.44 26.129v1.433c-1.604-.96-3.334-1.714-5.145-2.24v-1.434c1.81.526 3.54 1.28 5.145 2.24z"/>
                        <path fill="url(#7f9g50sjrg)" fill-rule="nonzero" d="M85.995 45.952v1.435c0 7.244-3.622 13.644-9.16 17.5-.725.505-1.482.966-2.266 1.378l-.157.083c-3.034 1.565-6.402 2.38-9.819 2.374H54.475c-11.82 0-21.4-9.55-21.4-21.33v-1.436c0-.703.034-1.399.101-2.086.57-5.847 3.508-11.003 7.846-14.503.16-.13.321-.256.485-.38.583-.444 1.19-.858 1.815-1.239.145-.089.292-.176.439-.26 3.255-1.882 6.951-2.87 10.714-2.866h10.12c1.364 0 2.725.129 4.065.385 2.834.544 5.528 1.657 7.918 3.271 5.14 3.469 8.684 9.104 9.315 15.59.068.685.101 1.38.102 2.084z"/>
                        <path fill="url(#4q3ehqxtyh)" fill-rule="nonzero" d="M85.995 45.715v1.443c0 8.24-4.634 15.396-11.434 18.992.77-.712 1.547-1.538 2.219-2.488 5.754-8.174 2.909-24.94-6.342-32.167-9.26-7.235-19.802-4.863-26.706-4.361 3.258-1.892 6.957-2.885 10.722-2.879H64.58c11.122 0 20.261 8.496 21.313 19.361.068.69.101 1.39.102 2.099z" opacity=".42"/>
                        <path fill="url(#e84av89g3i)" fill-rule="nonzero" d="M56.595 68.722h-2.24c-11.753 0-21.28-9.538-21.28-21.306v-1.434c0-.703.034-1.397.101-2.084.587-6.055 3.706-11.369 8.284-14.866-3.511 8.203-4.274 21.473.216 29.79 4.39 8.129 11.67 9.368 14.919 9.9z"/>
                        <path fill="url(#yzct6lqb5j)" fill-rule="nonzero" d="M62.108 68.722h-7.554c-11.863 0-21.479-9.55-21.479-21.333v-1.435c0-.704.034-1.4.102-2.087.592-6.062 3.74-11.383 8.362-14.884 3.738-2.835 8.312-4.368 13.016-4.36h5.951c-2.54 1.413-4.932 3.256-5.237 6.037-.5 4.561 5.242 5.877 6.49 12.121 1.66 8.304-7.179 12.611-5.711 19.34.67 3.071 3.149 5.093 6.06 6.601z" opacity=".4"/>
                        <path fill="#FFF" fill-rule="nonzero" d="M64.276 54.938c.098.399.008.82-.243 1.144-.251.324-.635.513-1.042.513h-7.28c-.407 0-.79-.189-1.042-.513-.25-.323-.34-.745-.243-1.144l1.81-7.442c.118-.482-.039-.991-.407-1.32-1.181-1.05-1.842-2.573-1.805-4.162.06-2.788 2.243-5.063 4.962-5.25.108-.009.217-.013.327-.014 2.225-.016 4.225 1.366 5.018 3.468.792 2.1.209 4.478-1.463 5.962-.366.329-.52.836-.402 1.316l1.81 7.442z"/>
                        <path fill="url(#g6mltwddwk)" fill-rule="nonzero" d="M56.327 47.496l-1.87 7.441c-.1.4-.007.822.252 1.145.26.324.656.513 1.076.513h-.753c-.42 0-.817-.189-1.076-.513-.26-.323-.352-.745-.252-1.145l1.87-7.441c.122-.483-.04-.992-.421-1.321-1.22-1.05-1.902-2.573-1.864-4.161.065-2.899 2.498-5.244 5.462-5.264.14 0 .279.003.416.013-2.807.188-5.06 2.463-5.123 5.251-.038 1.589.644 3.112 1.864 4.161.38.33.541.839.42 1.321z"/>
                        <path fill="url(#xkax39c2hl)" fill-rule="nonzero" d="M40.793 23.592c1.545-1.372 3.278-2.51 5.145-3.38-.04.582-.06 1.171-.06 1.768v3.926c-1.742.817-3.366 1.869-4.828 3.127h-.258v-5.441z"/>
                        <path fill="url(#0gcaerywbm)" fill-opacity=".6" fill-rule="nonzero" d="M45.938 23.887v1.938c-1.734.881-3.364 1.957-4.859 3.207h-.287v-1.79c1.577-1.32 3.305-2.446 5.145-3.355z"/>
                        <path fill="url(#upjn1u6fnn)" fill-rule="nonzero" d="M90.037 67.694l-8.985 8.379c-.476-.73-.795-1.554-.937-2.418l7.65-7.138h.003c.829.226 1.602.626 2.27 1.177z" opacity=".21"/>
                        <rect width="43.733" height="16.17" y=".367" fill="url(#5p7s5qd0jo)" fill-rule="nonzero" opacity=".12" rx="6.831"/>
                        <rect width="39.69" height="14.7" x="7.718" y="6.615" fill="url(#wlsp6tb7kp)" fill-rule="nonzero" rx="6.242"/>
                        <path stroke="#FFF" stroke-linecap="round" stroke-linejoin="round" stroke-width="1.107" d="M17.303 10.658L17.303 17.273M20.58 13.996L13.965 13.996M19.845 16.17L15.068 11.393M15.068 16.17L19.845 11.393M28.328 10.658L28.328 17.273M31.605 13.996L24.99 13.996M30.87 16.17L26.093 11.393M26.093 16.17L30.87 11.393M39.353 10.658L39.353 17.273M42.63 13.996L36.015 13.996M41.895 16.17L37.117 11.393M37.117 16.17L41.895 11.393"/>
                        <path fill="#8093A7" fill-rule="nonzero" d="M88.567 29.408c.233-.02.465-.036.696-.053.014 0 .026.008.034.024.007.016.007.036.001.053-.006.016-.018.027-.03.028h-.005c-.232-.017-.464-.032-.696-.052zM45.185 73.481l.05-.349.05.35c0 .01-.023.018-.052.018-.029 0-.052-.008-.052-.019h.004z"/>
                    </g>
                    <g>
                        <path fill="#273D57" fill-rule="nonzero" d="M71.416 50.19c-.183-.123-.353-.265-.53-.402l-.131-.102-.076-.053-.082-.047-.08-.05c-.145-.086-.313-.206-.468-.288-.03-.012-.06-.021-.092-.03-.152-.037-.295-.018-.405.107-.23.291-.208.76-.41 1.146l-.043.107-.045.106-.017-.034c-.074-.162-.14-.328-.21-.49-.122-.28-.265-.575-.499-.779-.032-.028-.066-.055-.101-.08-.188-.113-.397.042-.425.241l-.055.145c-.035.097-.072.193-.111.288l-.048.115c-.108.28-.28.487-.458.74-.161-.165-.401-.271-.54-.44-.027-.024-.053-.05-.078-.077-.079-.081-.148-.172-.208-.268-.08-.108-.232-.13-.34-.052-.105.082-.128.232-.052.341.107.163.235.312.38.442l.11.1c.206.178.372.462.626.475.521.103.742-.586.977-1l.045-.101c.043-.103.084-.206.123-.31l.03.047.03.05.007.011v.006c.02.036.038.073.056.11.038.08.073.16.108.241.133.318.26.656.48.927.123.153.33.114.419-.048.076-.137.145-.278.207-.421l.06-.145c.044-.142.11-.275.199-.393l.04-.062c.094-.139.133-.412.382-.351.198.054.344.192.49.33l.062.05c.12.097.243.193.372.279.107.08.257.062.342-.04.081-.106.063-.257-.04-.341z" transform="translate(-643 -333) translate(643 333) translate(40 2) translate(0 25) rotate(31 68.687 50.315)"/>
                        <path fill="#ED3D48" d="M68.79 47.239l1.647-1.435-.546-.157.536 1.408c.09.235.343.331.547.157l1.639-1.431c.316-.277-.142-.744-.458-.467l-1.638 1.431.547.157-.537-1.408c-.09-.236-.343-.331-.546-.157l-1.648 1.435c-.317.276.14.743.458.467z" transform="translate(-643 -333) translate(643 333) translate(40 2) translate(0 25) rotate(31 70.473 46.276)"/>
                        <path fill="#ED3D48" d="M63.792 52.898l2.355.87-.157-.543-1.121 1.319c-.17.198-.077.456.157.542l2.346.86c.165.061.357-.079.397-.237.047-.186-.07-.336-.237-.397l-2.346-.86.157.543 1.12-1.32c.17-.198.077-.456-.156-.542l-2.355-.869c-.165-.06-.356.079-.397.237-.047.187.071.335.237.397z" transform="translate(-643 -333) translate(643 333) translate(40 2) translate(0 25) rotate(31 65.662 54.105)"/>
                        <path fill="#273D57" fill-rule="nonzero" d="M8.442 14.894c-.156-.159-.295-.334-.436-.506l-.108-.128-.066-.066c-.024-.02-.048-.043-.07-.066l-.067-.066c-.125-.116-.264-.265-.402-.38-.027-.017-.056-.033-.085-.046-.136-.076-.304-.06-.424.038-.29.259-.369.747-.65 1.108l-.067.103-.066.101c0-.013-.006-.025-.009-.038-.04-.18-.066-.362-.105-.543-.06-.308-.14-.639-.33-.889-.027-.036-.056-.07-.088-.102-.162-.15-.402-.027-.473.174l-.084.14c-.056.092-.113.185-.172.277l-.072.11c-.167.269-.381.452-.612.681-.125-.198-.34-.35-.443-.548l-.06-.093c-.06-.099-.11-.204-.149-.313-.026-.06-.077-.106-.138-.128-.062-.02-.13-.016-.188.014-.121.067-.175.213-.124.342.07.186.166.361.283.522.028.04.057.081.087.12.166.222.271.541.52.601.494.199.86-.474 1.182-.86l.066-.097c.066-.098.127-.198.188-.297l.02.053.02.058.003.012v.006l.032.123c.021.088.039.178.056.264.066.351.117.721.276 1.04.09.179.301.175.426.024.105-.127.203-.26.296-.397.03-.044.06-.09.09-.138.074-.134.17-.255.282-.359l.053-.057c.122-.125.221-.4.453-.294.189.091.3.259.415.43l.05.06c.099.122.198.242.31.353.09.101.245.11.346.019.097-.09.126-.267.034-.362z" transform="translate(-643 -333) translate(643 333) translate(40 2) translate(0 25) rotate(50 5.716 14.55)"/>
                        <path fill="#ED3D48" d="M3.791 21.117l-.343 2.27.526-.265-1.334-.707c-.222-.117-.484-.014-.526.265l-.338 2.26c-.066.437.595.473.662.037l.338-2.26-.526.264 1.333.706c.103.062.23.067.337.014.107-.054.178-.16.19-.279l.342-2.27c.067-.436-.595-.472-.661-.036v.001z" transform="translate(-643 -333) translate(643 333) translate(40 2) translate(0 25) rotate(50 3.114 23.046)"/>
                        <path fill="#ED3D48" d="M5.435 17.154l-2.14 1.51.533.189-.38-1.749c-.058-.264-.323-.337-.534-.186l-2.13 1.508c-.15.106-.155.353-.051.482.121.15.315.138.463.032l2.13-1.508-.534-.187.38 1.748c.058.265.323.337.534.188l2.14-1.511c.152-.107.155-.354.052-.482-.122-.152-.314-.139-.463-.032v-.002z" transform="translate(-643 -333) translate(643 333) translate(40 2) translate(0 25) rotate(50 3.315 18.049)"/>
                        <path fill="#E7EBF0" fill-rule="nonzero" d="M26.234 62.462c-.138 1.066 1.625 1.232 2.303 1.364 2.405.468 4.851.09 7.253-.217.272-.055.543-.106.817-.15 2.508-.403 4.96.308 7.465.388 2.079.066 4.168.032 6.243-.25.33-.044.9-.09 1.11-.515.209-.425-.008-.755-.314-.9-1.479-.702-3.086-.703-4.63-.776-3.144-.15-6.247.842-9.38.595-.698-.055-1.39-.204-2.078-.345-.23-.047-.463-.092-.69-.132-1.317-.233-2.661-.273-3.993-.192-.68.04-1.358.103-2.033.198-.556.079-1.304.09-1.776.436-.163.117-.271.297-.297.496z" transform="translate(-643 -333) translate(643 333) translate(40 2) translate(0 25)"/>
                        <path fill="#371905" fill-rule="nonzero" d="M32.777 49.441c.015.207.03.413.048.618l.025.292.012.133.013.132c.04.41.084.82.132 1.228.099.829.215 1.654.341 2.473.252 1.632.548 3.249.852 4.862.172.914.347 1.827.517 2.742.056.301-.07.662-.29.733-.22.071-.45-.094-.51-.416-.608-3.266-1.273-6.518-1.683-9.851-.06-.488-.114-.977-.163-1.468-.048-.49-.09-.983-.126-1.476-.022-.311.206-.61.413-.595.245.016.392.264.417.595l.002-.002z" transform="translate(-643 -333) translate(643 333) translate(40 2) translate(0 25)"/>
                        <path fill="#300000" fill-rule="nonzero" d="M34.341 62.338c-.095.055-.193.105-.293.15-.101.044-.206.085-.312.12-.387.083-.895.199-1.359.183-.113-.004-.226-.017-.337-.041-.086-.017-.17-.039-.252-.066-.085-.029-.167-.066-.245-.113-.244-.127-.244-.411-.143-.635.142-.243.304-.446.547-.565.064-.033.13-.06.198-.083.608-.202 1.317 0 1.786.494.042.041.082.083.12.127.048.115.17.175.217.29.027.045.051.091.073.139z" transform="translate(-643 -333) translate(643 333) translate(40 2) translate(0 25)"/>
                        <path fill="#371905" fill-rule="nonzero" d="M34.52 62.644c-.262.156-.547.27-.844.34-.296.066-.597.116-.899.148-.313.032-.63.01-.936-.066-.286-.073-.621-.207-.768-.483-.288-.544.153-1.196.615-1.478.475-.29 1.095-.324 1.613-.14.303.105.58.274.814.495.048.046.094.094.14.143.038.038.072.08.103.124.007.017.016.034.026.05-.028-.036-.028-.038 0-.008.11.112.2.243.265.388.079.167.052.39-.127.486-.159.083-.4.051-.486-.128-.022-.048-.048-.094-.073-.14-.01-.017-.06-.084-.006-.022l-.037-.041c-.048-.048-.093-.1-.133-.155l-.02-.036c.018.018.013.013-.014-.016l-.048-.05c-.038-.04-.076-.078-.115-.114l-.047-.042s-.078-.063-.038-.032c.04.032-.042-.03-.04-.027l-.065-.043c-.048-.03-.098-.059-.148-.085l-.083-.04c.012.006.066.024 0 0-.048-.018-.095-.035-.144-.05-.05-.015-.098-.027-.147-.037l-.06-.011c-.041-.006-.04-.006.005 0l-.06-.006c-.088-.008-.178-.008-.268 0-.015 0-.11.019-.023 0l-.06.01c-.058.012-.116.028-.173.047.009 0-.1.037-.057.02.042-.018-.066.03-.056.027-.045.023-.09.049-.132.077-.056.037-.01.009 0 0l-.066.06-.042.043c-.013.015-.075.088-.05.057.024-.031-.029.04-.027.04l-.035.051c-.018.027-.033.055-.051.082-.04.058-.008.008 0-.008-.008.023-.045.1-.035.127l.006-.043v.076c.004.04.004.033 0-.02.004 0 .008.046.014.048l-.017-.04c.007.015.016.029.025.042-.032-.06-.018-.033-.006-.014l-.03-.021.049.03c.019.01.037.022.057.032.005 0 .105.047.039.021.056.023.115.042.174.058.058.015.117.03.177.04 0 0 .119.018.054.01l.076.007c.135.01.27.01.404 0 .066-.005.132-.012.198-.02l.033-.005.107-.017c.138-.023.274-.051.41-.08.124-.025.245-.06.363-.104.111-.042-.028.014.035-.014.04-.017.078-.035.117-.054.066-.032.132-.066.193-.103.169-.095.382-.036.48.13.098.168.044.383-.122.483l-.004.001zM44.14 49.441c-.016.207-.032.413-.05.618l-.024.292-.012.133-.013.132c-.04.41-.085.82-.133 1.228-.098.829-.214 1.654-.34 2.473-.252 1.632-.549 3.249-.852 4.862-.172.914-.347 1.827-.517 2.742-.056.301.07.662.29.733.22.071.45-.094.51-.416.608-3.266 1.272-6.518 1.683-9.851.06-.488.114-.977.162-1.468.049-.49.09-.983.123-1.478.023-.311-.205-.61-.413-.595-.244.016-.392.264-.417.595h.002z" transform="translate(-643 -333) translate(643 333) translate(40 2) translate(0 25)"/>
                        <path fill="#371905" fill-rule="nonzero" d="M42.575 62.338c.095.055.192.105.293.15.1.044.205.085.312.12.387.083.894.199 1.359.183.113-.004.226-.017.337-.041.085-.017.17-.039.251-.066.086-.029.168-.066.245-.113.245-.127.245-.411.144-.635-.143-.243-.305-.446-.547-.565-.064-.033-.13-.06-.199-.083-.607-.202-1.317 0-1.786.494-.04.041-.081.083-.12.127-.047.115-.169.175-.217.29-.026.045-.05.091-.072.139z" transform="translate(-643 -333) translate(643 333) translate(40 2) translate(0 25)"/>
                        <path fill="#371905" fill-rule="nonzero" d="M42.395 62.644c.263.156.547.27.844.34.297.066.597.116.9.148.313.032.63.01.935-.066.287-.073.622-.207.768-.483.289-.544-.152-1.196-.615-1.478-.474-.29-1.095-.324-1.612-.14-.304.105-.58.274-.814.495-.048.046-.095.094-.14.143-.038.038-.073.08-.103.124-.007.017-.016.034-.026.05.028-.036.028-.038 0-.008-.111.112-.2.243-.265.388-.08.167-.052.39.127.486.158.083.4.051.486-.128.022-.048.048-.094.073-.14.01-.017.059-.084.005-.022l.038-.041c.048-.048.092-.1.132-.155l.02-.036.015-.016.048-.05c.038-.04.075-.078.115-.114l.047-.042s.077-.063.037-.032c-.04.032.042-.03.04-.027l.066-.043c.048-.03.097-.059.147-.085l.084-.04c-.013.006-.066.024 0 0 .047-.018.095-.035.144-.05.049-.015.097-.027.147-.037l.06-.011c.04-.006.04-.006-.006 0l.06-.006c.089-.008.179-.008.268 0 .016 0 .11.019.024 0l.059.01c.059.012.116.028.173.047-.008 0 .1.037.058.02-.043-.018.066.03.055.027.046.023.09.049.133.077.055.037.01.009 0 0l.066.06.041.043c.014.015.075.088.05.057-.024-.031.03.04.028.04l.035.051.05.082c.04.058.008.008 0-.008.009.023.046.1.035.127l-.006-.043v.076c-.003.04-.003.033 0-.02-.004 0-.007.046-.013.048l.017-.04c-.008.015-.016.029-.026.042.032-.06.019-.033.006-.014l.03-.021-.048.03-.058.032c-.004 0-.104.047-.038.021-.057.023-.115.042-.174.058-.058.015-.118.03-.177.04 0 0-.12.018-.054.01l-.077.007c-.134.01-.269.01-.403 0-.066-.005-.132-.012-.199-.02-.066-.009.083.013-.032-.005l-.108-.017c-.137-.023-.274-.051-.41-.08-.123-.025-.244-.06-.362-.104-.112-.042.028.014-.035-.014-.04-.017-.079-.035-.118-.054-.066-.032-.132-.066-.192-.103-.169-.095-.383-.036-.48.13-.098.168-.044.383.121.483l.004.001z" transform="translate(-643 -333) translate(643 333) translate(40 2) translate(0 25)"/>
                        <path fill="url(#nz1alprdbq)" fill-rule="nonzero" d="M30.435 57.44c-4.642-.974-9.19-2.954-12.925-5.899-2.874-2.266-4.885-5.241-6.275-8.604-1.504-3.644-3.118-7.804-3.51-11.733-.595-6.013 1.378-11.825 4.319-17 1.806-3.18 4.638-5.603 7.594-7.68C24.508 3.104 30.344.652 36.39.158c.773-.061 1.547-.092 2.323-.092.586-.004 1.17.014 1.75.054.58.04 1.159.099 1.734.178.48.069.958.151 1.436.248.478.096.95.205 1.418.327 5.917 1.667 12.514 3.329 16.46 8.424.406.523.8 1.046 1.182 1.568 4.191 5.75 6.756 11.835 6.341 19.216-.21 3.771-1.002 7.488-2.349 11.017-1.584 4.131-4.347 7.404-7.396 10.596-3.095 3.242-6.621 4.492-10.903 5.438-5.86 1.296-12.108 1.533-17.951.307z" transform="translate(-643 -333) translate(643 333) translate(40 2) translate(0 25)"/>
                        <path fill="#EBAB5E" fill-rule="nonzero" d="M44.67 3.23c-.764-.142-1.71-.115-2.064.69-.637 1.533.174 3.364 1.635 4.154.926.503 1.984.51 2.835-.12.74-.59 1.168-1.473.988-2.452-.264-1.317-1.637-1.618-2.663-2.062-.24-.077-.484-.147-.731-.21z" transform="translate(-643 -333) translate(643 333) translate(40 2) translate(0 25)"/>
                        <path fill="#E4A453" fill-rule="nonzero" d="M61.51 9.305c-.552-.654-1.145-1.273-1.774-1.853-.21-.193-.424-.381-.642-.565-.252-.223-.514-.432-.788-.628-.278-.198-.565-.38-.87-.558-.446-.23-.896-.475-1.355-.712-.228-.119-.459-.235-.691-.35-1.467-.634-3.17-1.87-4.697-1.107-.784.364-.186 1.406.43 1.767 1.156.685 2.232 1.256 3.252 2.014.257.18.504.36.741.554.24.196.465.408.677.633.145.168.276.348.391.537.118.194.219.397.301.608.076.226.158.444.251.654.257.625.613 1.204 1.054 1.716.17.206.35.405.536.6.649.789 1.64 1.202 2.328 2.009 1.72 1.918 1.436 4.458 1.707 6.88.117.272.2.557.245.85.176.832-.038 1.926-.79 2.215-1.705.7-2.371 1.988-2.455 3.426-.016.295-.012.59.012.885.056 1.07.34 2.083.673 3.091.084.252.17.503.258.755.153.244.282.502.384.771.536 2.269-.499 4.527-1.644 6.573-.143.255-.288.507-.433.755-.471 1.102-1.48 1.886-2.533 2.32-.539.2-1.087.371-1.643.514-.277.077-.555.153-.83.237-2.168.505-3.902 2.047-4.341 4.461-.26 1.426-2.387.902-3.506.308-.336-.152-.683-.28-1.037-.383-1.017-.282-2-.178-2.785.959-.851 1.182-1.563 2.844-3.268 2.778-.24 0-.499.025-.762.043-.787.055-1.608.08-2.057-.53-1.853-2.628-5.204-2.174-7.696-1.017-.358.14-.705.286-1.038.433-.244.029-.492-.008-.718-.108-.237-.068-.47-.152-.697-.25-.898-.397-1.657-1.032-2.057-1.968-.14-.278-.273-.571-.407-.865-.268-.587-.54-1.177-.875-1.703-.817-1.323-1.946-1.235-3.06-.696-.226.11-.447.233-.661.366-.4.383-.852.709-1.341.967-.231.119-.476.21-.728.27-2.012.475-2.81-1.735-4.192-2.735-.198-.15-.397-.3-.632-.388.91 2.593 2.77 4.7 4.776 6.568.344.308.701.596 1.066.877.244.185.492.366.743.543.547.274.988.717 1.51 1.038.25.171.5.344.747.518.248.173.492.35.732.529 1.817 1.007 3.715 1.803 5.638 2.494.32.115.642.227.963.336 1.896.642 3.856.955 5.839 1.232.373.044.748.082 1.124.113 4.499.39 9.11.014 13.506-.958 3.425-.757 6.367-1.71 8.991-3.72.328-.251.651-.52.968-.806 2.382-2.519 4.71-5.13 6.615-8.004.22-.367.433-.742.637-1.124.41-.771.772-1.567 1.085-2.382 1.347-3.529 2.139-7.245 2.349-11.016.421-7.544-2.27-13.737-6.632-19.602-.29-.391-.589-.78-.895-1.17z" opacity=".591" transform="translate(-643 -333) translate(643 333) translate(40 2) translate(0 25)"/>
                        <path fill="#E4A453" fill-rule="nonzero" d="M62.704 10.855c-.74-1.18-1.937-2.015-2.987-2.93.947 1.296 1.819 2.633 2.32 4.247.168.563.523 1.044.907 1.497.232.387.455.777.668 1.17 4.242 7.268 3.668 16.105.264 23.562-.15.369-.304.735-.463 1.1l-.16.361c-.204.479-.565 1.058-1.059.996-2.01-.168-3.09 1.755-2.625 3.488.022.18.048.358.074.533l.08.512c0 .156-.011.312-.037.467-.081.49-.314.943-.664 1.295-.112.152-.228.304-.346.454-1.062 1.365-2.247 2.63-3.54 3.776-.522.33-1.06.644-1.616.931-11.03 5.678-24.584 4.707-35.58-.767.13.095.26.188.39.28.547.274.988.717 1.51 1.038.25.172.5.344.747.518.248.174.492.35.732.53 1.817 1.006 3.715 1.802 5.638 2.493.32.115.642.227.963.337 1.896.641 3.856.954 5.839 1.23.373.045.748.083 1.124.115 4.499.39 9.11.013 13.506-.959 3.425-.757 6.367-1.71 8.991-3.72.328-.25.651-.52.968-.805 1.455-1.54 2.89-3.114 4.222-4.763.121-.15.241-.3.36-.451.245-.284.463-.63.705-.914.115-.153.23-.307.343-.463.34-.465.67-.936.988-1.415.22-.367.433-.742.637-1.124.409-.771.771-1.567 1.085-2.382 1.346-3.529 2.139-7.245 2.349-11.016.34-6.13-1.371-11.367-4.365-16.262-.23-.377-.467-.751-.711-1.124-.239-.365-.473-.709-.687-1.022-.213-.314-.397-.571-.57-.813z" opacity=".591" transform="translate(-643 -333) translate(643 333) translate(40 2) translate(0 25)"/>
                        <path fill="#371905" fill-rule="nonzero" d="M21.903 7.431c-.293-.066-.563-.207-.786-.41-.484-.446-.64-1.147-.392-1.757.362-.86 1.407-1.253 2.276-.975.69.23 1.141.89 1.105 1.615-.057.89-.905 1.587-1.773 1.574-.145 0-.289-.015-.43-.047zM44.659 53.393c-.293-.066-.564-.206-.786-.407-.484-.447-.64-1.147-.392-1.757.362-.86 1.407-1.253 2.275-.976.69.23 1.142.89 1.106 1.615-.058.89-.905 1.588-1.774 1.574-.144 0-.288-.016-.429-.049zM20.45 46.914c-.293-.067-.563-.209-.786-.41-.483-.448-.64-1.148-.391-1.758.361-.86 1.407-1.253 2.275-.975.69.229 1.141.89 1.106 1.615-.058.89-.905 1.587-1.774 1.573-.145.002-.289-.014-.43-.045zM30.258 18.879c-.477.03-.916-.323-1.045-.788-.053-.281.007-.572.165-.81.4-.586 1.178-.776 1.802-.439.34.192.554.546.567.935.01.637-.595 1.093-1.19 1.105-.1.008-.2.007-.299-.003zM53.964 46.222c-.477.031-.916-.322-1.045-.788-.053-.28.006-.57.165-.809.4-.585 1.176-.773 1.8-.437.339.192.554.546.567.935.01.637-.596 1.093-1.19 1.105-.1.007-.199.005-.297-.006zM18.73 24.008c-.714-.211-1.472-.893-1.222-1.704.176-.549.683-.877 1.235-.942.696-.062 1.386.354 1.58 1.025.075.26.075.535 0 .794-.09.283-.261.533-.493.719-.229.178-.51.265-.803.185-.101-.015-.2-.04-.297-.077zM31.81 54.15c-.467-.1-.863-.406-1.075-.833-.209-.506.062-1.054.463-1.397.224-.16.485-.26.759-.29.343-.03.687.054.978.238.477.311.78.89.582 1.439-.176.573-.805 1.02-1.423.906-.097-.012-.192-.033-.284-.064zM44.286 6.686c-.467-.099-.863-.405-1.075-.832-.209-.506.062-1.053.463-1.397.223-.16.484-.26.757-.29.343-.03.686.053.978.237.476.304.78.879.582 1.436-.176.577-.805 1.024-1.42.907-.097-.01-.193-.03-.285-.061zM41.952 21.13c-.466-.099-.862-.405-1.075-.832-.209-.506.062-1.054.463-1.397.224-.16.486-.26.759-.289.343-.029.686.056.976.24.477.312.781.891.582 1.44-.175.572-.805 1.019-1.423.905-.096-.012-.19-.035-.282-.067zM66.114 19.49c-.466-.1-.862-.405-1.075-.832-.209-.506.062-1.054.463-1.397.224-.16.485-.26.759-.29.343-.03.687.054.978.238.477.31.78.89.582 1.439-.175.573-.805 1.02-1.423.905-.097-.011-.192-.033-.284-.064zM60.34 10.253c-.634-.132-1.18-.683-1.161-1.327.038-.44.278-.839.65-1.079.615-.33 1.374-.213 1.862.287.236.295.473.63.408 1.01-.092.681-.756 1.308-1.478 1.175-.096-.012-.19-.034-.282-.066zM59.925 42.125c-.184-.722.013-1.72.839-1.918.56-.133 1.103.137 1.44.578.41.566.405 1.372-.071 1.882-.185.197-.42.338-.682.407-.29.067-.592.048-.87-.056-.27-.106-.49-.302-.57-.595-.04-.096-.068-.196-.086-.298zM60.773 28.643c-.154-.451-.094-.948.164-1.349.331-.438.937-.485 1.436-.319.252.111.472.285.637.504.202.28.306.62.296.966-.023.568-.365 1.124-.938 1.236-.582.142-1.287-.17-1.506-.76-.04-.089-.07-.182-.089-.278zM66.73 35.192c-.154-.451-.093-.948.165-1.349.33-.439.936-.486 1.436-.319.252.11.471.284.637.504.201.28.306.618.296.962-.023.569-.365 1.125-.938 1.236-.582.143-1.287-.169-1.506-.759-.04-.088-.07-.18-.09-.275z" transform="translate(-643 -333) translate(643 333) translate(40 2) translate(0 25)"/>
                        <path fill="#EBAB5E" fill-rule="nonzero" d="M32.937 3.895c-.607.11-1.092.476-1.45.96-.35.49-.583 1.056-.678 1.653.003.305.05.609.142.9.093.795.68 1.562 1.447 1.702.41.072.824.132 1.237.195 1.756.276 3.472.718 5.019 1.847.968.727 2.324-.75 2.748-1.822.708-1.686-.631-3.464-2.047-4.389-.265-.17-.542-.32-.827-.453-1.442-.656-3.05-.854-4.608-.569l-.983-.024z" transform="translate(-643 -333) translate(643 333) translate(40 2) translate(0 25)"/>
                        <path fill="#E4A453" fill-rule="nonzero" d="M13.322 14.478c-.727 1.714-.875 3.644-.093 4.985.414.71 1.035 1.413 1.829 1.286 3.24-.475 5.441-3.97 6.002-7.044.236-1.293-.64-2.358-1.8-2.82-2.512-1-4.86 1.062-5.938 3.593z" transform="translate(-643 -333) translate(643 333) translate(40 2) translate(0 25)"/>
                        <path fill="#371905" fill-rule="nonzero" d="M33.883 8.594c-.466-.099-.862-.405-1.075-.832-.209-.506.062-1.054.463-1.397.224-.16.486-.26.76-.29.342-.03.686.054.977.238.477.311.781.89.582 1.44-.175.572-.805 1.018-1.423.905-.097-.012-.192-.033-.284-.064z" transform="translate(-643 -333) translate(643 333) translate(40 2) translate(0 25)"/>
                        <path fill="#E4A453" fill-rule="nonzero" d="M13.537 31.305c-2.267.745-2.793 2.448-2.628 4.36.04.392.103.782.19 1.167l.252.79c.086.269.174.54.265.809.21.695.458 1.455.92 2.034.114.146.242.279.384.397.206.152.435.27.679.35.243.079.497.123.753.132 1.138.004 2.347-.662 2.568-1.866.14-.768-.179-1.506.01-2.288.268-1.22.57-2.503.072-3.7-.083-.207-.185-.406-.304-.595-.478-.755-1.245-1.337-2.336-1.6-.275-.017-.55-.013-.825.01z" transform="translate(-643 -333) translate(643 333) translate(40 2) translate(0 25)"/>
                        <path fill="#371905" fill-rule="nonzero" d="M12.416 36.371c-.193-.72-.007-1.72.816-1.93.56-.138 1.105.124 1.447.562.416.56.42 1.366-.05 1.882-.182.199-.417.343-.677.414-.288.07-.591.055-.871-.046-.271-.102-.493-.296-.577-.589-.04-.094-.07-.192-.088-.293z" transform="translate(-643 -333) translate(643 333) translate(40 2) translate(0 25)"/>
                        <path fill="#E4A453" fill-rule="nonzero" d="M51.467 12.465c-.4.273-.737.63-.987 1.045-.126.208-.232.427-.315.655-.503 1.397-.205 2.726.521 3.813.181.27.388.525.617.757 1.177 1.208 3.16 2.137 4.582 1.308 1.292-.738.035-2.918-.208-4.281-.092-.232-.197-.46-.314-.68-.339-.655-.806-1.237-1.372-1.71-.254-.207-.53-.386-.821-.534-.295-.151-.609-.264-.933-.336-.255-.035-.513-.048-.77-.037z" transform="translate(-643 -333) translate(643 333) translate(40 2) translate(0 25)"/>
                        <path fill="#371905" fill-rule="nonzero" d="M52.811 17.53c-.714-.211-1.472-.893-1.221-1.704.175-.545.682-.876 1.234-.942.696-.062 1.385.354 1.58 1.024.075.26.075.535 0 .794-.09.283-.263.533-.495.72-.228.177-.51.264-.803.184-.1-.014-.2-.04-.295-.076zM15.951 16.405c-.467-.098-.863-.405-1.075-.833-.21-.506.062-1.054.463-1.397.224-.16.485-.26.758-.29.344-.03.687.054.978.238.478.31.781.89.582 1.439-.175.573-.804 1.02-1.423.905-.096-.01-.19-.031-.283-.062z" transform="translate(-643 -333) translate(643 333) translate(40 2) translate(0 25)"/>
                        <path fill="#300000" fill-rule="nonzero" d="M62.422 43.382c-.251.612-.545 1.207-.878 1.779l.01-.026c-.483.774-1.017 1.527-1.694 2.129l.036-.015c-1.146 1.061-2.562 1.787-4.093 2.099-.194.044-.389.082-.585.114-.104.017-.209.033-.314.048l-.148.02c-.05.006.015 0 .02 0l-.11.012c-.228.026-.454.178-.446.435.008.214.19.472.435.445.765-.083 1.521-.237 2.258-.459 2.968-.809 5.09-3.378 6.172-6.157.073-.237.055-.542-.232-.636-.179-.055-.37.041-.431.218v-.006z" transform="translate(-643 -333) translate(643 333) translate(40 2) translate(0 25)"/>
                        <path fill="#300000" fill-rule="nonzero" d="M54.221 49.799c.007.114 0 .228-.02.34-.02.11-.053.216-.097.318-.276.553-.772 1.035-1.452 1.078-.103.006-.206.002-.309-.01-.655-.03-1.187-.595-1.164-1.213.047-.974 1.226-1.33 2.095-1.053.145.037.285.091.417.16.124.065.24.143.347.234l.183.146z" transform="translate(-643 -333) translate(643 333) translate(40 2) translate(0 25)"/>
                        <path fill="#300000" fill-rule="nonzero" d="M53.826 49.794c.006.086.003.172-.008.258.01-.072-.014.06-.014.06-.01.04-.022.08-.035.118-.003.01-.058.133-.016.047-.014.029-.03.056-.045.084-.03.055-.064.109-.1.162l-.054.078c-.01.012-.077.095-.014.02-.041.05-.084.096-.129.141-.045.045-.076.074-.117.107l-.074.06c.077-.059-.034.02-.049.03-.054.034-.11.064-.168.09l-.059.027c.086-.036-.014 0-.027.007-.063.02-.127.036-.192.048-.014 0-.121.01-.033.005-.05 0-.1.006-.152.005-.066 0-.128-.006-.192-.012-.032 0-.066-.004-.097-.008.1.012-.004-.004-.021-.008-.062-.015-.122-.035-.18-.058.095.037 0 0-.017-.011-.028-.015-.054-.03-.08-.047-.027-.017-.052-.035-.078-.053-.082-.057.055.058-.016-.014-.043-.043-.085-.088-.127-.132-.066-.073.039.066-.013-.017-.013-.021-.027-.042-.04-.066l-.037-.066-.025-.055c.017.047.019.05.004.01-.018-.06-.033-.117-.045-.177-.02-.095 0 .08 0-.02v-.076c0-.025.003-.051.004-.077.006-.1-.022.082 0-.013.012-.042.022-.163.059-.19l-.02.046.025-.049c.013-.023.026-.047.041-.07.01-.015.022-.029.03-.044.051-.077-.06.06.004-.005.039-.039.075-.078.117-.113.02-.017.071-.08.004-.007.028-.024.06-.044.093-.06.04-.024.081-.046.124-.066.025-.012.051-.024.078-.035-.095.04-.005.004.014 0 .111-.035.226-.062.342-.078-.102.015 0 0 .016 0 .04-.004.08-.006.12-.006.069-.002.139 0 .208.006l.06.005.059.008c-.056-.009-.062-.009-.018 0 .067.015.133.029.199.048.088.025.175.053.264.085.01.004.07.033.015.006.049.023.097.048.145.075.188.11.274.199.456.34.163.13.449.042.543-.132.114-.205.044-.404-.132-.542l-.05-.04c-.054-.043.037.03-.012-.009l-.114-.093c-.088-.074-.182-.14-.281-.199-.185-.104-.382-.185-.587-.242-.285-.087-.584-.12-.88-.099-.604.052-1.258.314-1.545.881-.316.62-.171 1.376.352 1.834.562.491 1.39.555 2.059.252.723-.327 1.283-1.146 1.246-1.944-.01-.206-.169-.406-.39-.397-.202.007-.408.166-.398.387z" transform="translate(-643 -333) translate(643 333) translate(40 2) translate(0 25)"/>
                        <path fill="#300000" fill-rule="nonzero" d="M53.268 48.839c-.057-.028-.117-.052-.173-.084-.016-.008-.032-.018-.047-.029l.027.02c.006.022.059.133.04.141v-.037c0-.022 0-.017-.003.014-.003.03-.003.035 0 .014.002-.013.006-.026.01-.039.014-.066-.004.027-.013.024l.013-.023c.019-.029.019-.029 0 0-.02.029-.022.032-.008.01l.026-.025c.005.018-.083.049-.094.052.066-.02-.066.016-.021.005.025-.007-.042-.014 0 0 .028.01.059.016.088.023.03.008.041.014.003 0 .054.026.106.056.156.09.026.016.039.026.006 0 .023.019.046.04.067.06.04.038.077.078.113.12.016.019.03.039.046.057-.042-.052.008.012.015.023.03.046.057.093.086.14.13.211.242.432.338.661l.69-.381c-.136-.31-.39-.553-.704-.676-.141-.056-.283-.113-.428-.157-.06-.018-.12-.037-.182-.05-.115-.024-.234-.024-.35 0-.204.033-.343.287-.285.48.058.207.27.332.48.284.095-.016-.067-.005-.067-.008.024.005.048.011.07.019.056.015.11.031.166.049.111.036.225.08.33.125-.038-.016-.008-.003.012.008l.066.04c.025.017.042.03.009 0l.052.048.048.05c.066.071-.01-.03.014.019.024.047.053.095.075.147.078.192.369.257.536.155.198-.123.238-.33.155-.536-.12-.303-.276-.592-.463-.86-.219-.306-.504-.57-.873-.676-.19-.054-.39-.07-.57.025-.159.091-.28.237-.341.41-.076.176-.076.376 0 .551.103.199.279.297.473.39.195.091.433.069.543-.133.094-.169.07-.446-.13-.54zM14.803 42.58c.155.643.354 1.275.595 1.891l-.006-.026c.36.839.774 1.664 1.351 2.36l-.034-.02c.974 1.224 2.265 2.156 3.732 2.695.185.072.372.138.561.199.101.033.202.064.303.095l.143.042-.02-.006.108.03c.222.058.422.243.375.496-.04.211-.26.437-.498.374-.744-.198-1.468-.463-2.163-.794-2.81-1.25-4.519-4.111-5.165-7.022-.036-.245.027-.544.326-.596.185-.027.358.097.393.28l-.001.001z" transform="translate(-643 -333) translate(643 333) translate(40 2) translate(0 25)"/>
                        <path fill="#300000" fill-rule="nonzero" d="M21.936 50.166c-.024.112-.035.226-.032.34.003.111.02.222.048.33.188.589.606 1.14 1.271 1.286.101.022.204.034.307.038.652.066 1.263-.408 1.334-1.023.102-.97-1.01-1.5-1.91-1.36-.149.016-.295.048-.437.096-.132.045-.259.105-.377.178-.06.032-.127.072-.204.115z" transform="translate(-643 -333) translate(643 333) translate(40 2) translate(0 25)"/>
                        <path fill="#300000" fill-rule="nonzero" d="M22.327 50.222c-.019.084-.03.17-.032.255 0-.073.005.062.005.062.004.041.01.082.016.123 0 .01.038.136.009.049.01.03.02.06.032.089.022.06.047.118.074.175.013.029.027.057.042.086.007.013.06.105.01.022.034.054.067.108.106.159.04.05.067.084.1.123.02.024.042.047.066.07-.066-.07.03.026.044.038.048.041.1.08.152.115l.055.034c-.08-.048.013.005.025.011.06.03.12.055.183.076.012.005.118.03.032.011.05.01.098.021.148.028.067.01.127.014.192.018.033 0 .066.005.098.006-.102 0 .004 0 .022-.004.063-.006.126-.016.187-.03-.1.022 0 0 .018-.01.03-.01.059-.021.087-.034.028-.012.055-.027.084-.04.09-.044-.063.048.018-.011.05-.037.098-.074.145-.113.078-.062-.048.061.016-.014l.05-.058.045-.06.034-.051-.005.009c.026-.056.05-.11.07-.168.035-.092-.009.078.004-.019.004-.025.01-.05.013-.076l.007-.077c.01-.099.01.084 0-.013-.005-.043 0-.164-.029-.198l.013.048-.017-.051-.03-.076-.025-.048c-.037-.084.051.069 0-.005-.031-.044-.062-.089-.098-.132-.017-.02-.058-.09-.004-.008-.024-.028-.052-.053-.082-.074-.036-.03-.074-.057-.113-.084-.023-.016-.047-.03-.072-.045.088.054.004.004-.013-.005-.105-.053-.214-.097-.326-.132.097.03 0 0-.017 0-.038-.01-.077-.018-.117-.024-.068-.012-.137-.02-.207-.026l-.06-.003h-.059.017c-.066.004-.136.008-.205.017-.091.011-.181.026-.27.044-.01 0-.076.022-.016.004-.052.015-.104.033-.155.052-.202.08-.302.153-.503.265-.18.103-.45-.028-.517-.211-.081-.22.019-.407.211-.517l.056-.031c.06-.035-.042.024.013-.008l.126-.074c.099-.06.201-.11.308-.154.198-.075.405-.126.616-.151.295-.043.596-.03.886.036.588.142 1.19.5 1.393 1.105.218.661-.04 1.386-.626 1.76-.63.397-1.456.338-2.073-.066-.666-.433-1.095-1.328-.937-2.112.04-.201.228-.375.446-.335.199.047.377.241.334.458z" transform="translate(-643 -333) translate(643 333) translate(40 2) translate(0 25)"/>
                        <path fill="#300000" fill-rule="nonzero" d="M23.023 49.362c.061-.019.124-.033.184-.056.017-.006.034-.013.05-.022l-.03.017c-.008.02-.077.119-.061.132l.006-.037V49.425l-.004-.04c-.004-.066 0 .027.008.025l-.01-.024c-.014-.031-.014-.031 0 0 .016.03.018.034.008.012l-.023-.03c-.007.017.075.06.085.067-.062-.03.067.027.02.007-.023-.01.045-.007 0 0-.028.006-.06.008-.09.011-.03.003-.042.007 0 0-.057.018-.113.04-.167.066-.029.013-.042.02-.007 0-.026.015-.051.032-.076.05-.046.031-.09.065-.132.102-.019.016-.036.033-.054.05.05-.046-.01.01-.019.02-.037.04-.07.083-.106.125-.16.19-.306.391-.434.604l-.62-.488c.18-.286.469-.488.799-.562.147-.033.297-.066.446-.09.062-.009.125-.018.187-.022.118-.006.235.012.345.054.199.066.297.336.21.517-.09.197-.317.288-.518.21-.093-.031.066.004.066 0-.024 0-.048.003-.073.007l-.17.023c-.115.018-.234.045-.348.074.04-.01.01 0-.012.006l-.07.03c-.027.012-.047.023-.01 0-.02.012-.039.025-.058.039l-.055.043c-.075.06.014-.028-.016.015-.03.044-.066.086-.096.133-.107.178-.404.198-.554.071-.18-.151-.184-.363-.071-.553.166-.283.364-.545.59-.783.265-.269.585-.487.966-.535.198-.025.397-.011.558.11.144.115.241.277.276.458.048.185.016.382-.086.544-.132.182-.321.252-.53.313-.208.062-.437.003-.517-.21-.066-.179.001-.45.213-.512z" transform="translate(-643 -333) translate(643 333) translate(40 2) translate(0 25)"/>
                        <path fill="#FFBABA" fill-rule="nonzero" d="M29.99 37.345l-.015.003h-.014c-.775.118-1.793.57-2.02 1.448-.232.899.648 1.54 1.369 1.733.753.204 1.577.09 2.274-.264.639-.324 1.232-1.002.869-1.782-.437-.934-1.554-1.254-2.463-1.138zM47.947 37.349h-.014l-.015-.003c-.853-.109-1.77.143-2.315.887-.218.3-.335.682-.22 1.053.11.36.382.634.68.831.66.425 1.45.594 2.226.478.713-.109 1.687-.595 1.712-1.473.033-1.065-1.221-1.647-2.054-1.773z" transform="translate(-643 -333) translate(643 333) translate(40 2) translate(0 25)"/>
                        <path fill="#371905" fill-rule="nonzero" d="M41.678 38.657c-.319-1.028-1.174-1.847-2.35-1.919-1.31-.08-2.237.794-2.66 1.89-.24.619.797.92 1.036.303.255-.662.78-1.244 1.588-1.17.679.06 1.145.543 1.329 1.137.194.629 1.251.396 1.058-.24l-.001-.001zM47.46 34.067l.007-.007c.584-.59 1.34-1.044 2.159-1.41.318-.142.17-.595-.179-.55-1.544.2-2.952 1.167-4.017 2.166-.208.181-.407.37-.596.567-.176.184-.346.374-.508.571-.177.216.03.52.312.463l.037-.008c.293-.058.59-.098.888-.117 1.425-.132 2.839.14 4.178.537.314.093.542-.283.3-.493-.704-.6-1.541-1.024-2.442-1.234-.107-.017-.194-.094-.223-.198-.03-.104.002-.215.083-.287zM30.584 34.067l-.008-.007c-.584-.59-1.34-1.044-2.159-1.41-.319-.142-.171-.595.178-.55 1.544.2 2.952 1.167 4.017 2.166.209.181.407.37.596.567.176.184.346.374.509.571.176.216-.03.52-.313.463l-.037-.008c-.293-.059-.59-.098-.888-.117-1.426-.133-2.84.14-4.178.536-.314.093-.543-.282-.3-.492.703-.601 1.54-1.024 2.442-1.235.106-.017.193-.094.223-.197.03-.104-.002-.215-.082-.287z" transform="translate(-643 -333) translate(643 333) translate(40 2) translate(0 25)"/>
                        <path fill="#4EC5E5" fill-rule="nonzero" d="M24.369 34.958c.066-.368-.53-.674-.85-.86-1.301-.74-3.015-1.338-4.515-1.02-1.33.283-2.483 1.225-2.787 2.585-.198.888.048 1.994.77 2.597.781.653 1.965.558 2.845.183.836-.356 1.485-.954 2.204-1.49.718-.535 1.437-1.116 2.134-1.703.098-.071.168-.174.199-.292z" transform="translate(-643 -333) translate(643 333) translate(40 2) translate(0 25)"/>
                        <path fill="#FFF" fill-rule="nonzero" d="M17.17 35.952c-.111-.286-.08-.608.085-.867.024-.065.052-.128.085-.188.433-.802 1.68-1.413 2.261-.619.53.672-.475 1.434-1.094 1.798-.104.051-.213.095-.324.129-.056.016-.112.03-.17.041-.055.011-.112.02-.169.023-.209.042-.424-.032-.562-.194-.038-.038-.075-.079-.113-.123z" transform="translate(-643 -333) translate(643 333) translate(40 2) translate(0 25)"/>
                        <path fill="#4EC5E5" fill-rule="nonzero" d="M55.159 35.915c-.097-.373.49-.733.806-.945 1.276-.86 2.986-1.603 4.547-1.39 1.384.188 2.637 1.067 3.052 2.439.271.895.103 2.05-.591 2.723-.75.728-1.972.722-2.901.405-.885-.302-1.594-.865-2.371-1.36-.778-.495-1.558-1.035-2.316-1.588-.106-.065-.186-.166-.226-.284z" transform="translate(-643 -333) translate(643 333) translate(40 2) translate(0 25)"/>
                        <path fill="#FFF" fill-rule="nonzero" d="M59.19 35.06c.22-.288.563-.455.926-.45.08-.016.16-.026.242-.03 1.078-.057 2.466.828 2.023 1.909-.352.953-1.743.406-2.494 0-.116-.074-.227-.158-.33-.25-.052-.046-.1-.095-.147-.145-.045-.05-.088-.102-.128-.157-.164-.194-.226-.397-.151-.691.018-.058.036-.12.059-.187z" transform="translate(-643 -333) translate(643 333) translate(40 2) translate(0 25)"/>
                        <path fill="#4EC5E5" fill-rule="nonzero" d="M52.984 31.464c-.258-.174-.095-.706-.017-1.004.314-1.203.951-2.569 2.009-3.276.938-.627 2.166-.765 3.149-.157.642.397 1.156 1.186 1.096 1.965-.066.842-.807 1.491-1.539 1.797-.697.29-1.427.33-2.161.446-.734.115-1.496.207-2.25.28-.098.017-.2-.001-.287-.051z" transform="translate(-643 -333) translate(643 333) translate(40 2) translate(0 25)"/>
                        <path fill="#FFF" fill-rule="nonzero" d="M54.952 28.908c-.024-.297.094-.588.319-.784.04-.053.084-.104.132-.151.624-.627 1.953-.85 2.275.05.309.771-.837 1.203-1.513 1.37-.112.02-.225.03-.339.03-.056 0-.112 0-.168-.008-.055-.005-.11-.014-.164-.026-.206-.019-.386-.148-.47-.337-.026-.046-.049-.094-.072-.144z" transform="translate(-643 -333) translate(643 333) translate(40 2) translate(0 25)"/>
                        <path fill="#ED3D48" d="M70.077 45.564L70.305 45.366 70.618 45.564 70.725 45.928 70.401 46.053 70.161 45.928z" transform="translate(-643 -333) translate(643 333) translate(40 2) translate(0 25)"/>
                    </g>
                </g>
                <path fill="#ED3D48" d="M110.182 73.857L110.239 73.544 110.473 73.544 110.773 73.643 110.901 73.857 110.773 74.131 110.316 74.204zM105.946 80.692l.121-.2.175-.042.267.121v.42l-.338.173-.225-.059-.058-.113.058-.3zM104.958 81.151L105.155 81.105 105.359 81.307 105.419 81.462 105.359 81.678 105.155 81.843 104.839 81.843 104.77 81.578zM43.315 44.529c0-.027-.016-.122-.05-.284l.226-.188h.127l.186.236.073.236-.073.202h-.399c-.06-.108-.09-.175-.09-.202zM42.706 45.516L42.88 45.318 43.071 45.318 43.247 45.417 43.369 45.637 43.369 46.061 43.008 46.097 42.805 45.951zM42.724 49.845l-.156-.114-.043-.3.043-.13.156-.063c.215.022.323.042.323.062 0 .02.067.092.201.216l-.03.215-.23.157-.264-.043zM43.315 50.23L43.524 50.265 43.702 50.317 43.702 50.574 43.731 50.764 43.441 50.864 43.154 50.764 42.974 50.574 42.974 50.345z" transform="translate(-643 -333) translate(643 333)"/>
            </g>
        </g>
    </g>
</svg>
