<svg width="48" height="48" viewBox="0 0 48 48" fill="none" xmlns="http://www.w3.org/2000/svg">
<circle cx="24" cy="24" r="24" fill="#FFECEF"/>
<g clip-path="url(#clip0_1_2700)">
<path d="M24.0024 43.9994C20.0456 44.0007 16.1773 42.8285 12.8868 40.631C9.59626 38.4335 7.03138 35.3095 5.51658 31.6541C4.00178 27.9987 3.6051 23.9762 4.37673 20.0953C5.14835 16.2145 7.05361 12.6496 9.8515 9.85174C12.6494 7.05385 16.2142 5.14859 20.0951 4.37697C23.9759 3.60535 27.9985 4.00202 31.6538 5.51683C35.3092 7.03163 38.4332 9.5965 40.6307 12.887C42.8282 16.1775 44.0005 20.0458 43.9992 24.0027C43.9923 29.304 41.8833 34.3863 38.1347 38.1349C34.386 41.8835 29.3038 43.9925 24.0024 43.9994ZM24.0024 5.595C20.3614 5.59372 16.8019 6.67222 13.7739 8.6941C10.7459 10.716 8.38556 13.5904 6.99133 16.9539C5.59711 20.3173 5.23165 24.0187 5.94118 27.5898C6.65071 31.161 8.40336 34.4415 10.9775 37.0165C13.5516 39.5915 16.8315 41.3453 20.4024 42.0561C23.9733 42.7669 27.6748 42.4028 31.0387 41.0097C34.4027 39.6167 37.2779 37.2573 39.3009 34.2301C41.3238 31.2028 42.4036 27.6436 42.4036 24.0027C42.3984 19.1233 40.4583 14.4453 37.0087 10.9945C33.5591 7.54365 28.8817 5.60187 24.0024 5.595Z" fill="#F2385A"/>
<path d="M29.1206 29.9446C28.9091 29.944 28.7063 29.8601 28.5563 29.7111L18.3146 19.45C18.1641 19.3004 18.0792 19.097 18.0786 18.8848C18.078 18.6725 18.1617 18.4687 18.3114 18.3182C18.4611 18.1677 18.6644 18.0828 18.8766 18.0822C19.0889 18.0815 19.2927 18.1653 19.4432 18.3149L29.6848 28.5566C29.759 28.6306 29.8178 28.7186 29.8579 28.8154C29.898 28.9123 29.9187 29.016 29.9187 29.1208C29.9187 29.2257 29.898 29.3294 29.8579 29.4263C29.8178 29.5231 29.759 29.6111 29.6848 29.6851C29.6131 29.7642 29.5262 29.828 29.4292 29.8725C29.3322 29.9171 29.2272 29.9416 29.1206 29.9446Z" fill="#F2385A"/>
<path d="M18.8792 29.9446C18.7213 29.9447 18.567 29.8979 18.4358 29.8102C18.3045 29.7226 18.2022 29.598 18.1418 29.4521C18.0814 29.3063 18.0656 29.1459 18.0964 28.9911C18.1272 28.8363 18.2033 28.6941 18.3149 28.5825L28.5565 18.3149C28.707 18.1653 28.9108 18.0815 29.1231 18.0822C29.3353 18.0828 29.5387 18.1677 29.6883 18.3182C29.838 18.4687 29.9217 18.6725 29.9211 18.8848C29.9205 19.097 29.8356 19.3004 29.6851 19.45L19.4435 29.6851C19.3718 29.7642 19.2848 29.828 19.1879 29.8725C19.0909 29.9171 18.9859 29.9416 18.8792 29.9446Z" fill="#F2385A"/>
</g>
<defs>
<clipPath id="clip0_1_2700">
<rect width="40" height="40" fill="white" transform="translate(4 4)"/>
</clipPath>
</defs>
</svg>
