<svg width="48" height="48" viewBox="0 0 48 48" fill="none" xmlns="http://www.w3.org/2000/svg">
<circle cx="24" cy="24" r="24" fill="#E0FFEE"/>
<g clip-path="url(#clip0_1_2708)">
<path d="M24.0022 44C20.7146 43.9994 17.4778 43.1884 14.5784 41.6387C11.679 40.089 9.20625 37.8485 7.37912 35.1154C5.55198 32.3823 4.42676 29.2409 4.10305 25.9693C3.77934 22.6977 4.26712 19.3967 5.52322 16.3585C6.77932 13.3204 8.765 10.6387 11.3045 8.55086C13.844 6.46302 16.8591 5.03341 20.0828 4.38854C23.3065 3.74366 26.6395 3.90343 29.7868 4.85369C32.934 5.80395 35.7985 7.5154 38.1267 9.83658C38.2763 9.98621 38.3604 10.1892 38.3604 10.4008C38.3604 10.6124 38.2763 10.8153 38.1267 10.965C37.977 11.1146 37.7741 11.1987 37.5625 11.1987C37.3509 11.1987 37.1479 11.1146 36.9983 10.965C33.8047 7.78162 29.5519 5.8839 25.0497 5.63314C20.5475 5.38237 16.1103 6.79609 12.5829 9.6051C9.05559 12.4141 6.68446 16.4222 5.921 20.8663C5.15755 25.3104 6.0551 29.8801 8.44275 33.7052C10.8304 37.5304 14.5414 40.3439 18.8692 41.61C23.197 42.8762 27.8392 42.5066 31.9121 40.5715C35.985 38.6365 39.204 35.2712 40.9563 31.1164C42.7086 26.9616 42.8717 22.3075 41.4146 18.0402C41.3777 17.8506 41.4109 17.654 41.5079 17.487C41.605 17.32 41.7594 17.1939 41.9424 17.1321C42.1254 17.0703 42.3247 17.077 42.5031 17.151C42.6815 17.225 42.8271 17.3612 42.9127 17.5344C43.9378 20.5439 44.2311 23.7543 43.7684 26.8998C43.3056 30.0452 42.1002 33.0352 40.2518 35.622C38.4035 38.2088 35.9654 40.318 33.1396 41.775C30.3138 43.2319 27.1815 43.9947 24.0022 44Z" fill="#20C9AD"/>
<path d="M24.7523 29.5577C24.6475 29.5581 24.5436 29.5377 24.4468 29.4976C24.3499 29.4576 24.262 29.3986 24.1881 29.3243L19.2659 24.4021C19.1163 24.2525 19.0322 24.0495 19.0322 23.8379C19.0322 23.6263 19.1163 23.4233 19.2659 23.2737C19.4156 23.1241 19.6185 23.04 19.8301 23.04C20.0417 23.04 20.2447 23.1241 20.3943 23.2737L24.7523 27.6252L41.2309 11.1336C41.3041 11.0579 41.3917 10.9977 41.4887 10.9566C41.5856 10.9155 41.6898 10.8943 41.7951 10.8943C41.9004 10.8943 42.0046 10.9155 42.1015 10.9566C42.1985 10.9977 42.2861 11.0579 42.3593 11.1336C42.4334 11.2077 42.4922 11.2956 42.5323 11.3925C42.5725 11.4893 42.5931 11.593 42.5931 11.6978C42.5931 11.8026 42.5725 11.9064 42.5323 12.0032C42.4922 12.1 42.4334 12.1879 42.3593 12.262L25.3035 29.3178C25.1577 29.466 24.9602 29.552 24.7523 29.5577Z" fill="#20C9AD"/>
</g>
<defs>
<clipPath id="clip0_1_2708">
<rect width="40" height="40" fill="white" transform="translate(4 4)"/>
</clipPath>
</defs>
</svg>
