<svg width="48" height="48" viewBox="0 0 48 48" fill="none" xmlns="http://www.w3.org/2000/svg">
<circle cx="24" cy="24" r="24" fill="#FFF1CC"/>
<g clip-path="url(#clip0_1_2715)">
<path d="M23.9992 43.9929C20.043 43.9942 16.1753 42.8222 12.8853 40.625C9.59535 38.4279 7.03089 35.3044 5.51633 31.6496C4.00178 27.9948 3.60517 23.9729 4.37666 20.0927C5.14816 16.2125 7.05311 12.6482 9.85055 9.85079C12.648 7.05335 16.2122 5.1484 20.0925 4.37691C23.9727 3.60541 27.9946 4.00202 31.6493 5.51658C35.3041 7.03114 38.4276 9.59559 40.6248 12.8856C42.8219 16.1755 43.994 20.0432 43.9927 23.9994C43.9858 29.2999 41.8772 34.3814 38.1291 38.1294C34.3811 41.8774 29.2997 43.9861 23.9992 43.9929ZM23.9992 5.59474C20.3588 5.59346 16.7998 6.67179 13.7723 8.69334C10.7448 10.7149 8.38485 13.5889 6.99085 16.9518C5.59685 20.3147 5.23145 24.0154 5.94086 27.586C6.65028 31.1566 8.40264 34.4366 10.9763 37.0112C13.55 39.5858 16.8294 41.3393 20.3997 42.05C23.9701 42.7606 27.671 42.3965 31.0343 41.0037C34.3977 39.6109 37.2725 37.2519 39.2952 34.2252C41.3178 31.1984 42.3974 27.6398 42.3974 23.9994C42.3922 19.1209 40.4524 14.4436 37.0034 10.9933C33.5543 7.54308 28.8777 5.60161 23.9992 5.59474Z" fill="#F2BE38"/>
<path d="M22.8141 26.9248H25.2541L25.4341 15.8848H22.6741L22.8141 26.9248ZM24.0741 31.1448C24.9141 31.1448 25.5941 30.4848 25.5941 29.5848C25.5941 28.7248 24.9141 28.0648 24.0741 28.0648C23.1941 28.0648 22.4941 28.7248 22.4941 29.5848C22.4941 30.4848 23.1941 31.1448 24.0741 31.1448Z" fill="#F2BE38"/>
</g>
<defs>
<clipPath id="clip0_1_2715">
<rect width="40" height="40" fill="white" transform="translate(4 4)"/>
</clipPath>
</defs>
</svg>
