<svg width="48" height="48" viewBox="0 0 48 48" fill="none" xmlns="http://www.w3.org/2000/svg">
<circle cx="24" cy="24" r="24" fill="#E6F9FF"/>
<g clip-path="url(#clip0_1_2691)">
<path d="M23.9992 43.9929C20.043 43.9942 16.1753 42.8222 12.8853 40.625C9.59535 38.4279 7.03089 35.3044 5.51633 31.6496C4.00178 27.9948 3.60517 23.9729 4.37666 20.0927C5.14816 16.2125 7.05311 12.6482 9.85055 9.85079C12.648 7.05335 16.2122 5.1484 20.0925 4.37691C23.9727 3.60541 27.9946 4.00202 31.6493 5.51658C35.3041 7.03114 38.4276 9.59559 40.6248 12.8856C42.8219 16.1755 43.994 20.0432 43.9927 23.9994C43.9858 29.2999 41.8772 34.3814 38.1291 38.1294C34.3811 41.8774 29.2997 43.9861 23.9992 43.9929ZM23.9992 5.59474C20.3588 5.59346 16.7998 6.67179 13.7723 8.69334C10.7448 10.7149 8.38485 13.5889 6.99085 16.9518C5.59685 20.3147 5.23145 24.0154 5.94086 27.586C6.65028 31.1566 8.40264 34.4366 10.9763 37.0112C13.55 39.5858 16.8294 41.3393 20.3997 42.05C23.9701 42.7606 27.671 42.3965 31.0343 41.0037C34.3977 39.6109 37.2725 37.2519 39.2952 34.2252C41.3178 31.1984 42.3974 27.6398 42.3974 23.9994C42.3922 19.1209 40.4524 14.4436 37.0034 10.9933C33.5543 7.54308 28.8777 5.60161 23.9992 5.59474Z" fill="#77C2D7"/>
<path d="M24.6109 31.1429H22.7446C22.7217 31.1432 22.699 31.139 22.6778 31.1304C22.6567 31.1218 22.6374 31.1091 22.6213 31.093C22.6051 31.0768 22.5924 31.0576 22.5838 31.0365C22.5752 31.0153 22.571 30.9926 22.5713 30.9698V21.2275C22.5713 21.1816 22.5896 21.1376 22.6221 21.1051C22.6545 21.0727 22.6986 21.0544 22.7446 21.0544H24.6109C24.6336 21.0544 24.6562 21.0589 24.6772 21.0676C24.6982 21.0763 24.7173 21.0891 24.7334 21.1051C24.7495 21.1212 24.7622 21.1403 24.7709 21.1613C24.7797 21.1823 24.7841 21.2048 24.7841 21.2275V30.9698C24.7845 30.9926 24.7803 31.0153 24.7717 31.0365C24.7631 31.0576 24.7503 31.0768 24.7342 31.093C24.718 31.1091 24.6988 31.1218 24.6776 31.1304C24.6564 31.139 24.6337 31.1432 24.6109 31.1429Z" fill="#77C2D7"/>
<path d="M23.7499 17.0511L22.7235 18.7972C22.7084 18.8239 22.7005 18.854 22.7007 18.8846C22.7008 18.9153 22.709 18.9453 22.7244 18.9718C22.7398 18.9983 22.7619 19.0204 22.7884 19.0357C22.815 19.0511 22.8451 19.0592 22.8757 19.0594H24.5583C24.6272 19.0597 24.695 19.0419 24.7549 19.0079C24.8148 18.9738 24.8647 18.9247 24.8996 18.8654L25.9049 17.1534C25.9225 17.1234 25.9319 17.0894 25.9321 17.0547C25.9322 17.0199 25.9232 16.9858 25.9058 16.9557C25.8885 16.9256 25.8635 16.9006 25.8334 16.8833C25.8032 16.866 25.7691 16.857 25.7343 16.8571H24.0885C24.02 16.857 23.9526 16.8749 23.8932 16.9089C23.8338 16.943 23.7843 16.992 23.7499 17.0511Z" fill="#77C2D7"/>
</g>
<defs>
<clipPath id="clip0_1_2691">
<rect width="40" height="40" fill="white" transform="translate(4 4)"/>
</clipPath>
</defs>
</svg>
