<svg width="80" height="80" viewBox="0 0 80 80" fill="none" xmlns="http://www.w3.org/2000/svg">
<mask id="mask0_4213_73466" style="mask-type:alpha" maskUnits="userSpaceOnUse" x="0" y="0" width="80" height="80">
<rect width="80" height="80" fill="#C4C4C4"/>
</mask>
<g mask="url(#mask0_4213_73466)">
<path d="M68.1029 5.32768L68.3362 5.75459C68.5693 6.18044 68.9193 6.53071 69.3454 6.76351L69.7723 6.99711C70.2092 7.23624 70.2092 7.86383 69.7723 8.10269L69.3454 8.33629C68.9196 8.5691 68.5693 8.91937 68.3362 9.34522L68.1029 9.77212C67.8638 10.2093 67.2362 10.2093 66.9973 9.77212L66.7637 9.34522C66.5309 8.91937 66.1806 8.5691 65.7548 8.33629L65.3279 8.10269C64.8907 7.86383 64.8907 7.23624 65.3279 6.99711L65.7548 6.76351C66.1806 6.53071 66.5309 6.18044 66.7637 5.75459L66.9973 5.32768C67.2362 4.89077 67.8638 4.89077 68.1029 5.32768Z" fill="#8EDEF4"/>
<path d="M8.10289 71.3277L8.33623 71.7546C8.5693 72.1804 8.9193 72.5307 9.34542 72.7635L9.77232 72.9971C10.2092 73.2362 10.2092 73.8638 9.77232 74.1027L9.34542 74.3363C8.91956 74.5691 8.5693 74.9194 8.33623 75.3452L8.10289 75.7721C7.86376 76.2093 7.23618 76.2093 6.99731 75.7721L6.76371 75.3452C6.5309 74.9194 6.18064 74.5691 5.75479 74.3363L5.32788 74.1027C4.89071 73.8638 4.89071 73.2362 5.32788 72.9971L5.75479 72.7635C6.18064 72.5307 6.5309 72.1804 6.76371 71.7546L6.99731 71.3277C7.23618 70.8908 7.86376 70.8908 8.10289 71.3277Z" fill="#4690A4"/>
<path d="M8.92812 5.52044L9.29871 6.19846C9.66888 6.87481 10.2248 7.43112 10.9015 7.80087L11.5796 8.17189C12.2735 8.55168 12.2735 9.54843 11.5796 9.9278L10.9015 10.2988C10.2252 10.6686 9.66888 11.2249 9.29871 11.9012L8.92812 12.5793C8.54832 13.2736 7.55157 13.2736 7.1722 12.5793L6.80119 11.9012C6.43143 11.2249 5.87513 10.6686 5.19878 10.2988L4.52075 9.9278C3.82642 9.54843 3.82642 8.55168 4.52075 8.17189L5.19878 7.80087C5.87513 7.43112 6.43143 6.87481 6.80119 6.19846L7.1722 5.52044C7.55157 4.82652 8.54832 4.82652 8.92812 5.52044Z" fill="#F2BE38"/>
<path d="M68.4491 45.447C67.1431 45.5165 66.1516 44.2033 66.5907 42.9448C67.0736 41.5474 67.5052 39.6525 67.476 37.3881C67.4028 32.3508 63.1518 28.7987 57.646 29.9291C52.1914 31.0521 51.167 35.9614 51.9609 38.277C52.378 39.4842 53.8194 41.5438 55.1071 43.2412C56.007 44.4264 55.2534 46.1567 53.8084 46.2335L39.2372 47.0164L38.4762 34.1323C38.414 33.0495 37.2434 32.4679 36.4093 33.1044C35.0081 34.1726 32.7912 35.1273 29.6486 34.4506C23.6745 33.1702 23.6526 27.4928 24.6367 24.6357C25.4671 22.225 31.0571 19.0424 35.3301 21.8665C36.2373 22.4664 37.4153 21.7458 37.3495 20.6154L36.5373 4.35486C18.3809 6.09614 4.18286 21.3909 4.18286 40.0037C4.18286 42.0705 4.36212 44.0972 4.69869 46.0689L18.6443 46.2335C19.2736 46.2445 19.5918 46.9322 19.1711 47.3602C18.3663 48.1797 17.5724 49.5149 17.7151 51.5415C17.9968 55.5033 21.571 57.0068 25.522 55.335C29.4584 53.6706 30.4864 49.2369 26.5976 46.1384L39.1201 46.3908L39.2042 56.2203C39.2116 57.2958 40.5212 57.9689 41.4688 57.3763C46.3051 54.3364 50.9 58.0421 51.1378 60.965C51.4158 64.3561 49.5208 67.7289 45.3576 67.3192C43.5577 67.1436 42.109 66.6351 41.0517 66.1193C40.0822 65.6474 38.9555 66.2913 38.9628 67.3082L39.0323 75.8061C39.3542 75.8135 39.6762 75.8208 40.0018 75.8208C58.063 75.8208 72.9964 62.4538 75.4585 45.0739L68.4491 45.447Z" fill="#8EDEF4"/>
<path d="M40.0018 76.0007C39.6909 76.0007 39.3616 75.9971 39.0287 75.9861L38.8494 75.9824L38.7799 67.3089C38.7763 66.7931 39.0397 66.3139 39.4897 66.0322C39.9835 65.7213 40.5981 65.692 41.1323 65.9554C42.4346 66.5919 43.865 66.987 45.3759 67.137C47.0002 67.2979 48.3868 66.8626 49.3855 65.8822C50.5269 64.7592 51.1159 62.9264 50.9549 60.9803C50.8342 59.5243 49.5757 57.9184 47.8965 57.077C46.7332 56.4954 44.3626 55.7784 41.5676 57.5343C41.0591 57.8526 40.4042 57.8672 39.8591 57.5672C39.3397 57.2819 39.025 56.7807 39.0214 56.2247L38.9409 46.5744L27.1171 46.3367C28.6975 47.756 29.4328 49.479 29.1914 51.2313C28.939 53.0677 27.5964 54.6663 25.5989 55.5113C23.4075 56.4405 21.2601 56.4259 19.7163 55.4784C18.4359 54.6919 17.6603 53.3018 17.5359 51.5569C17.3822 49.4095 18.2712 48.0194 19.0431 47.2329C19.1785 47.0976 19.2151 46.911 19.1492 46.7427C19.087 46.5891 18.9224 46.4245 18.6444 46.4208L4.54509 46.2525L4.51949 46.1025C4.1756 44.0905 4 42.0383 4 40.0044C4 30.9943 7.34373 22.3757 13.4166 15.7288C19.4492 9.1258 27.6549 5.02134 36.5227 4.17265L36.713 4.15436L37.5324 20.6051C37.569 21.2124 37.2727 21.7721 36.7642 22.0684C36.2776 22.3501 35.7033 22.3318 35.2313 22.0208C32.8278 20.4332 30.267 20.9453 28.9499 21.3916C26.9818 22.0611 25.2404 23.4512 24.8087 24.695C24.2343 26.3631 23.9929 29.0774 25.2111 31.2358C26.0964 32.8051 27.6 33.8257 29.6816 34.272C32.8315 34.9488 35.0155 33.9318 36.2923 32.9587C36.7239 32.6295 37.2764 32.5673 37.7666 32.7905C38.2787 33.0246 38.6226 33.5367 38.6556 34.122L39.4055 46.8232L53.7938 46.0513C54.3865 46.0184 54.8913 45.6709 55.1474 45.1185C55.4145 44.5368 55.3413 43.8637 54.9572 43.3516C53.2012 41.036 52.1329 39.3496 51.7854 38.3363C51.372 37.1291 51.4159 35.0951 52.4585 33.2697C53.1829 31.9967 54.6645 30.3541 57.6058 29.7505C60.324 29.1908 62.8738 29.7286 64.7835 31.2614C66.598 32.721 67.6187 34.8939 67.6553 37.3851C67.6846 39.324 67.3809 41.2152 66.7627 43.0041C66.5761 43.5382 66.6712 44.1308 67.0151 44.5881C67.3553 45.038 67.8858 45.2904 68.4382 45.2612L75.6707 44.8734L75.6378 45.0965C74.4342 53.5981 70.1905 61.412 63.697 67.1004C57.1412 72.8401 48.727 76.0007 40.0018 76.0007ZM39.2153 75.6239C39.486 75.6312 39.7494 75.6312 40.0018 75.6312C57.5656 75.6312 72.6782 62.5935 75.2464 45.2648L68.4638 45.6306L68.4528 45.4477L68.4638 45.6306C67.7906 45.6672 67.1431 45.3599 66.7261 44.8112C66.309 44.2552 66.192 43.5345 66.4188 42.887C67.0261 41.1384 67.3187 39.2874 67.2931 37.3924C67.2602 35.0146 66.2871 32.9405 64.5603 31.5504C62.7385 30.0871 60.2947 29.5749 57.6863 30.1127C54.8803 30.6907 53.4719 32.2491 52.7841 33.4526C51.8 35.1756 51.7524 37.0888 52.1402 38.2192C52.4695 39.1813 53.5487 40.8787 55.2571 43.1321C55.7254 43.7503 55.8132 44.5698 55.4876 45.2758C55.173 45.9525 54.5511 46.3806 53.8194 46.4208L39.3177 47.2L39.3945 56.221C39.3982 56.6417 39.6396 57.0258 40.0421 57.2453C40.4701 57.4794 40.9823 57.4721 41.3774 57.2234C44.3223 55.3723 46.832 56.1332 48.0648 56.7478C49.883 57.6587 51.1964 59.3488 51.3281 60.951C51.4964 63.0033 50.8671 64.9457 49.6489 66.1456C48.5733 67.2028 47.0844 67.6747 45.3467 67.5028C43.7919 67.3492 42.3212 66.9394 40.9786 66.2846C40.5579 66.0798 40.075 66.1017 39.6909 66.3432C39.347 66.559 39.1494 66.9102 39.1531 67.3053L39.2153 75.6239ZM4.8524 45.8867L18.6444 46.0513C19.0285 46.0586 19.3468 46.2708 19.4821 46.6037C19.6065 46.911 19.537 47.2475 19.2992 47.489C18.5785 48.2206 17.7517 49.5156 17.8944 51.5276C18.0115 53.1701 18.7066 54.4285 19.8992 55.1602C21.3442 56.0454 23.3636 56.0454 25.4452 55.1675C27.322 54.3736 28.5841 52.8811 28.8182 51.1764C29.0597 49.4168 28.2293 47.6792 26.4806 46.2818L26.0562 45.9416L38.9958 46.2013L38.2824 34.144C38.2568 33.6867 38.0044 33.3063 37.6056 33.1234C37.2434 32.9551 36.8337 33.0026 36.5081 33.2477C35.1691 34.2684 32.8863 35.3366 29.5975 34.6305C27.4098 34.1586 25.8221 33.0795 24.8855 31.415C23.6088 29.1506 23.8575 26.3155 24.4575 24.5742C24.9294 23.2097 26.7257 21.7574 28.8256 21.0441C30.2048 20.5759 32.8937 20.0381 35.4252 21.7136C35.7801 21.9477 36.2081 21.9623 36.574 21.7501C36.9654 21.527 37.1886 21.0953 37.1593 20.6271L36.3654 4.55676C18.1103 6.40413 4.36949 21.6075 4.36949 40.0044C4.36949 41.9688 4.53046 43.9479 4.8524 45.8867Z" fill="white"/>
<path d="M41.0518 66.1164C42.1127 66.6322 43.5577 67.137 45.3576 67.3163C49.5208 67.726 51.4159 64.3531 51.1378 60.962C50.9 58.0428 46.3051 54.3371 41.4688 57.3734C40.5213 57.9696 39.2153 57.2965 39.2043 56.2174L39.1202 46.3879L26.5976 46.1355C30.4864 49.2339 29.4584 53.6676 25.5221 55.3321C21.571 57.0039 17.9968 55.5004 17.7151 51.5386C17.5725 49.512 18.3663 48.1767 19.1712 47.3573C19.5919 46.9293 19.2736 46.2452 18.6444 46.2306L4.69873 46.066C7.52664 62.6484 21.754 75.3423 39.0323 75.7995L38.9628 67.3016C38.9555 66.292 40.0823 65.6445 41.0518 66.1164Z" fill="#FAB1A5"/>
<path d="M39.0324 75.9889H39.0287C21.9113 75.5353 7.39495 62.9658 4.51949 46.1017C4.50851 46.0468 4.5268 45.9919 4.55973 45.9517C4.59631 45.9115 4.64753 45.8859 4.7024 45.8859L18.648 46.0505C19.0322 46.0578 19.3504 46.27 19.4858 46.6029C19.6102 46.9101 19.5407 47.2467 19.3029 47.4881C18.5822 48.2198 17.7554 49.5148 17.8981 51.5268C18.0151 53.1693 18.7102 54.4277 19.9029 55.1593C21.3479 56.0446 23.3673 56.0446 25.4489 55.1666C27.3256 54.3728 28.5878 52.8803 28.8219 51.1756C29.0634 49.416 28.2329 47.6784 26.4842 46.2809C26.422 46.2334 26.4001 46.1493 26.4257 46.0761C26.4513 46.0029 26.5208 45.9554 26.5976 45.9554H26.6013L39.1238 46.2078C39.2226 46.2114 39.3031 46.2919 39.3031 46.3907L39.3872 56.2202C39.3909 56.6409 39.6323 57.025 40.0348 57.2445C40.4628 57.4786 40.9749 57.4713 41.37 57.2225C44.315 55.3715 46.8246 56.1287 48.0575 56.747C49.8757 57.6578 51.1891 59.3479 51.3208 60.9502C51.489 63.0024 50.8598 64.9449 49.6416 66.1448C48.566 67.202 47.0771 67.6739 45.3394 67.502C43.7846 67.3483 42.3139 66.9386 40.9713 66.2838C40.5506 66.0789 40.0677 66.1009 39.6835 66.3423C39.3397 66.5582 39.1421 66.9093 39.1458 67.3044L39.2153 75.8023C39.2153 75.8535 39.197 75.9011 39.1604 75.934C39.1275 75.967 39.0799 75.9889 39.0324 75.9889ZM4.91825 46.2553C7.84127 62.7756 22.0613 75.078 38.8494 75.6158L38.7836 67.3081C38.7799 66.7923 39.0433 66.3131 39.4933 66.0314C39.9872 65.7204 40.6018 65.6912 41.1359 65.9546C42.4383 66.5911 43.8687 66.9862 45.3796 67.1361C47.0039 67.2971 48.3904 66.8618 49.3891 65.8814C50.5306 64.7583 51.1195 62.9256 50.9586 60.9795C50.8379 59.5235 49.5794 57.9176 47.9002 57.0762C46.7368 56.4945 44.3662 55.7775 41.5713 57.5335C41.0627 57.8517 40.4079 57.8664 39.8628 57.5664C39.3433 57.281 39.0287 56.7799 39.025 56.2238L38.9446 46.5736L27.1208 46.3358C28.7012 47.7552 29.4365 49.4782 29.1951 51.2304C28.9426 53.0668 27.6 54.6655 25.6026 55.5105C23.4112 56.4397 21.2638 56.425 19.7199 55.4776C18.4395 54.6911 17.6639 53.301 17.5396 51.556C17.3859 49.4087 18.2749 48.0186 19.0468 47.2321C19.1822 47.0967 19.2187 46.9102 19.1529 46.7419C19.0907 46.5882 18.9261 46.4236 18.648 46.42L4.91825 46.2553Z" fill="white"/>
<path d="M35.3302 21.8673C31.0572 19.0468 25.4673 22.2258 24.6368 24.6365C23.6527 27.4935 23.6747 33.171 29.6451 34.455C32.7876 35.1281 35.0009 34.177 36.4057 33.1088C37.2398 32.4723 38.4105 33.0576 38.4727 34.1368L39.2336 47.0208L53.8048 46.238C55.2499 46.1612 56.0035 44.4308 55.1035 43.2456C53.8158 41.5519 52.3744 39.4923 51.9574 38.2815C51.1635 35.9695 52.1878 31.0566 57.6424 29.9335C63.1446 28.8032 67.3993 32.3552 67.4724 37.3925C67.5054 39.6606 67.0737 41.5519 66.5871 42.9493C66.1518 44.2077 67.1395 45.521 68.4455 45.4515L75.4549 45.0747C75.6891 43.4175 75.8135 41.7275 75.8135 40.0045C75.8135 23.9561 65.2591 10.3733 50.7099 5.81892C50.6952 5.82258 50.6806 5.82624 50.666 5.82989L50.5672 5.77502C47.2308 4.74342 43.6822 4.18738 40.0019 4.18738C38.8349 4.18738 37.6788 4.24591 36.5411 4.35565L37.3496 20.6125C37.4154 21.7429 36.2374 22.4636 35.3302 21.8673Z" fill="#4690A4"/>
<path d="M39.2336 47.1993C39.1385 47.1993 39.0543 47.1224 39.0507 47.0273L38.2897 34.1433C38.2641 33.686 38.0117 33.3056 37.6129 33.1226C37.2508 32.9544 36.841 33.0019 36.5154 33.247C35.1765 34.2677 32.8937 35.3358 29.6048 34.6298C27.4171 34.1579 25.8294 33.0787 24.8929 31.4143C23.6161 29.1499 23.8649 26.3148 24.4648 24.5735C24.9368 23.209 26.733 21.7567 28.8329 21.0434C30.2121 20.5751 32.901 20.0374 35.4326 21.7128C35.7874 21.947 36.2155 21.9616 36.5813 21.7494C36.9727 21.5263 37.1959 21.0946 37.1666 20.6264L36.3545 4.36216C36.3508 4.26339 36.424 4.17925 36.5191 4.16828C37.6825 4.05853 38.8531 4 39.9982 4C43.62 4 47.1942 4.53775 50.6257 5.59496C50.6367 5.59862 50.6476 5.60228 50.6586 5.60959L50.6989 5.63154C50.7208 5.63154 50.7464 5.63154 50.7684 5.63886C54.3828 6.76923 57.7851 8.46296 60.8801 10.6688C63.9348 12.8491 66.6237 15.4757 68.8662 18.4863C73.5306 24.7381 76 32.1752 76 40C76 41.6937 75.8793 43.4058 75.6378 45.0958C75.6269 45.1836 75.5537 45.2495 75.4659 45.2531L68.4565 45.6299C67.7834 45.6665 67.1358 45.3592 66.7188 44.8105C66.3017 44.2544 66.1847 43.5338 66.4115 42.8863C67.0188 41.1377 67.3114 39.2867 67.2858 37.3917C67.2529 35.0139 66.2798 32.9397 64.553 31.5496C62.7312 30.0864 60.2874 29.5742 57.679 30.112C54.873 30.69 53.4646 32.2483 52.7768 33.4519C51.7927 35.1749 51.7451 37.0881 52.1329 38.2185C52.4622 39.1806 53.5414 40.878 55.2499 43.1314C55.7181 43.7496 55.8059 44.569 55.4803 45.2751C55.1657 45.9518 54.5438 46.3798 53.8121 46.4201L39.2409 47.2029C39.2409 47.1993 39.2373 47.1993 39.2336 47.1993ZM37.1666 32.6581C37.3678 32.6581 37.5727 32.702 37.7666 32.7898C38.2788 33.0239 38.6226 33.536 38.6556 34.1213L39.4055 46.8225L53.7938 46.0506C54.3865 46.0177 54.8913 45.6702 55.1474 45.1178C55.4145 44.5361 55.3413 43.863 54.9572 43.3509C53.2012 41.0353 52.1329 39.3488 51.7854 38.3355C51.372 37.1283 51.4159 35.0944 52.4585 33.269C53.1829 31.9959 54.6645 30.3534 57.6058 29.7498C60.324 29.1901 62.8739 29.7279 64.7835 31.2606C66.5981 32.7202 67.6187 34.8932 67.6553 37.3844C67.6846 39.3232 67.3809 41.2145 66.7627 43.0033C66.5761 43.5374 66.6712 44.1301 67.0151 44.5873C67.3553 45.0373 67.8858 45.2897 68.4382 45.2604L75.294 44.891C75.5171 43.2667 75.6305 41.6242 75.6305 39.9963C75.6305 24.3467 65.6176 10.6944 50.7062 6.00102C50.6989 6.00102 50.6952 6.00467 50.6879 6.00467C50.6513 6.00833 50.6147 6.00102 50.5818 5.98273L50.5013 5.93883C47.11 4.89625 43.5761 4.36582 39.9982 4.36582C38.9226 4.36582 37.8215 4.41703 36.7276 4.5158L37.5288 20.5971C37.5654 21.2043 37.2691 21.764 36.7605 22.0604C36.274 22.342 35.6996 22.3237 35.2277 22.0128C32.8278 20.4325 30.2633 20.9446 28.95 21.3909C26.9818 22.0604 25.2404 23.4505 24.8087 24.6942C24.2344 26.3624 23.9929 29.0767 25.2111 31.235C26.0965 32.8044 27.6 33.825 29.6816 34.2713C32.8315 34.9481 35.0155 33.9311 36.2923 32.958C36.552 32.7605 36.8593 32.6581 37.1666 32.6581Z" fill="white"/>
</g>
<path d="M45.65 27C45.65 33.4341 40.4341 38.65 34 38.65C27.5659 38.65 22.35 33.4341 22.35 27C22.35 20.5659 27.5659 15.35 34 15.35C40.4341 15.35 45.65 20.5659 45.65 27Z" fill="#F2385A" stroke="white" stroke-width="0.7"/>
<g clip-path="url(#clip0_4213_73466)">
<path d="M31.6319 29.1001L36.2158 21.2526C36.2379 21.2144 36.2496 21.171 36.2496 21.1268C36.2496 21.0827 36.238 21.0393 36.2159 21.001C36.1938 20.9627 36.162 20.9309 36.1237 20.9088C36.0854 20.8867 36.042 20.875 35.9978 20.875H33.0422C32.9689 20.875 32.8968 20.8942 32.8331 20.9306C32.7694 20.9671 32.7164 21.0195 32.6793 21.0827L27.9328 29.2121C27.8959 29.2757 27.8763 29.3479 27.8762 29.4214C27.876 29.495 27.8952 29.5672 27.9319 29.631C27.9685 29.6948 28.0213 29.7478 28.085 29.7847C28.1486 29.8217 28.2209 29.8413 28.2945 29.8415H30.359L29.4679 31.3685C29.4309 31.4322 29.4114 31.5045 29.4113 31.5781C29.4112 31.6517 29.4305 31.7241 29.4673 31.7879C29.5041 31.8517 29.5571 31.9047 29.6209 31.9416C29.6847 31.9784 29.7571 31.9978 29.8309 31.9979H37.2669C37.3551 31.9975 37.4417 31.9741 37.518 31.93C37.5943 31.8858 37.6577 31.8224 37.7017 31.7461L39.0276 29.4802C39.0497 29.4421 39.0613 29.3988 39.0614 29.3547C39.0615 29.3107 39.05 29.2674 39.028 29.2291C39.0061 29.1909 38.9745 29.1591 38.9364 29.1369C38.8983 29.1147 38.855 29.1029 38.8109 29.1026L31.6319 29.1001ZM33.23 21.6177H35.142L30.7736 29.1001H28.8591L33.23 21.6177ZM37.1371 31.2564H30.3955L31.221 29.8428H37.9576L37.1371 31.2564Z" fill="white"/>
</g>
<defs>
<clipPath id="clip0_4213_73466">
<rect width="11.25" height="11.25" fill="white" transform="translate(27.875 20.875)"/>
</clipPath>
</defs>
</svg>
