<svg width="90" height="86" viewBox="0 0 90 86" fill="none" xmlns="http://www.w3.org/2000/svg">
<path d="M41.8411 47.5941C41.1929 47.6664 40.6501 47.1088 40.7397 46.4628L45.6041 11.4028C45.6769 10.8788 45.3289 10.3873 44.8077 10.2962C42.6237 9.91447 40.41 9.72242 38.1916 9.72255C17.099 9.72255 0 26.7978 0 47.8613C0 68.9247 17.099 86 38.1916 86C59.2842 86 76.3832 68.9247 76.3832 47.8613C76.3822 46.8277 76.3397 45.7947 76.2557 44.7649C76.2106 44.213 75.7139 43.8156 75.1636 43.877L41.8411 47.5941Z" fill="#4690A4"/>
<g opacity="0.6" filter="url(#filter0_d_4217_75526)">
<path d="M81.0195 39.296C80.1456 31.2387 76.7256 23.6684 71.255 17.682C65.7843 11.6956 58.5472 7.60401 50.592 6L45.4214 43.2669L81.0195 39.296Z" fill="#FAB1A5"/>
</g>
<path d="M89.6665 77.8819C89.6665 80.5825 87.3923 82.8566 84.6917 82.8566C83.2704 82.8566 81.9911 82.288 80.9961 81.2931L65.0768 63.9524C64.5082 63.3838 64.5082 62.5311 65.0768 61.9625L68.7725 58.2669C69.3411 57.6982 70.1938 57.6982 70.7624 58.2669L88.103 74.3284C89.0979 75.1813 89.6665 76.6026 89.6665 77.8819Z" fill="#233F52"/>
<path d="M65.4955 61.5004L68.3096 58.6863L64.0884 54.4652L61.2744 57.2793L65.4955 61.5004Z" fill="#DAE4EC"/>
<path d="M66.2136 59.4042L66.9243 60.1148L68.3456 58.6935L64.0815 54.4294L61.2388 57.2722L63.3709 59.4042C64.2237 58.5513 65.3608 58.5513 66.2136 59.4042Z" fill="#BCCFDC"/>
<path d="M48.4464 20.3164C36.6492 20.3164 27.126 29.8396 27.126 41.6369C27.126 53.4341 36.6492 62.9573 48.4464 62.9573C60.2437 62.9573 69.7669 53.4341 69.7669 41.6369C69.7669 29.8396 60.2438 20.3164 48.4464 20.3164ZM48.4464 59.3767C39.0654 59.3767 30.4686 51.0179 30.4686 41.6369C30.4686 32.2559 39.0654 23.7131 48.4464 23.7131C57.8275 23.7131 66.2458 32.2559 66.2458 41.6369C66.2458 51.0179 57.8275 59.3767 48.4464 59.3767Z" fill="#BCCFDC"/>
<path opacity="0.2" d="M48.4467 59.475C58.2985 59.475 66.285 51.4885 66.285 41.6367C66.285 31.7849 58.2985 23.7984 48.4467 23.7984C38.5949 23.7984 30.6084 31.7849 30.6084 41.6367C30.6084 51.4885 38.5949 59.475 48.4467 59.475Z" fill="#EBEFF2"/>
<path d="M32.0294 42.7603C32.0294 33.1334 39.7048 25.2569 49.0858 25.2569C53.4921 25.2569 57.4893 26.4127 60.6163 29.0381C57.4893 25.3916 52.7814 23.7984 47.6645 23.7984C38.2835 23.7984 30.1309 32.1445 30.1309 41.7714C30.1309 47.0224 32.8823 51.2203 36.2935 54.4293C33.7351 51.2203 32.0294 47.2821 32.0294 42.7603Z" fill="#829DB0"/>
<path d="M48.4463 62.9575C60.2437 62.9575 69.7668 53.4343 69.7668 41.6371C69.0561 41.6371 68.3454 42.2057 68.3454 43.0584C68.0612 47.8911 65.9291 52.2972 62.66 55.5664C59.3908 58.9777 54.8425 61.1098 49.8677 61.5362C49.0149 61.5362 48.4463 62.2469 48.4463 62.9575Z" fill="#829DB0"/>
<path d="M87.9689 74.186L87.1208 73.4754C87.8275 74.3282 88.2516 75.4653 88.2516 76.6024C88.2516 78.4501 85.99 79.1608 84.7179 77.8816L69.8767 62.9572C69.0286 62.1044 67.7565 62.1044 66.9085 62.9572L65.4951 64.3786L80.9017 81.0085C81.7498 81.8614 82.8806 82.572 84.0113 82.7142C85.5661 82.8564 87.1209 82.2878 88.1103 81.2929C89.0997 80.298 89.6651 78.7345 89.5237 77.171C89.5237 76.0338 88.817 75.0389 87.9689 74.186Z" fill="#102D42"/>
<defs>
<filter id="filter0_d_4217_75526" x="37.4214" y="0" width="51.5981" height="53.2669" filterUnits="userSpaceOnUse" color-interpolation-filters="sRGB">
<feFlood flood-opacity="0" result="BackgroundImageFix"/>
<feColorMatrix in="SourceAlpha" type="matrix" values="0 0 0 0 0 0 0 0 0 0 0 0 0 0 0 0 0 0 127 0" result="hardAlpha"/>
<feOffset dy="2"/>
<feGaussianBlur stdDeviation="4"/>
<feColorMatrix type="matrix" values="0 0 0 0 0 0 0 0 0 0 0 0 0 0 0 0 0 0 0.08 0"/>
<feBlend mode="normal" in2="BackgroundImageFix" result="effect1_dropShadow_4217_75526"/>
<feBlend mode="normal" in="SourceGraphic" in2="effect1_dropShadow_4217_75526" result="shape"/>
</filter>
</defs>
</svg>
