<svg width="80" height="80" viewBox="0 0 80 80" fill="none" xmlns="http://www.w3.org/2000/svg">
<path d="M39.0244 78.0488C60.577 78.0488 78.0488 60.577 78.0488 39.0244C78.0488 17.4718 60.577 0 39.0244 0C17.4718 0 0 17.4718 0 39.0244C0 60.577 17.4718 78.0488 39.0244 78.0488Z" fill="#D4F5FF"/>
<path d="M57.8053 29.5559C57.8053 34.52 53.7855 39.8798 48.8214 39.8798C43.8573 39.8798 39.8374 34.52 39.8374 29.5559C39.8374 24.5917 43.8573 21.0755 48.8214 21.0755C53.7855 21.0665 57.8053 24.5917 57.8053 29.5559Z" fill="#77C2D7"/>
<path d="M37.6701 58.9808H59.6039C61.9151 58.9808 63.9565 57.4879 64.6579 55.2847L65.836 51.5976C66.6993 48.8997 65.2964 45.968 62.6345 44.9967C53.7045 41.7323 44.4777 42.1549 35.0171 45.2935C32.3642 46.1748 30.8984 49.0076 31.6268 51.7055L32.5351 55.0598C33.1736 57.371 35.269 58.9808 37.6701 58.9808Z" fill="#77C2D7"/>
<path d="M39.0476 29.5559C39.0476 34.52 35.0278 39.8798 30.0637 39.8798C25.0996 39.8798 21.0797 34.52 21.0797 29.5559C21.0797 24.5917 25.0996 21.0755 30.0637 21.0755C35.0278 21.0665 39.0476 24.5917 39.0476 29.5559Z" fill="#77C2D7"/>
<path d="M18.9125 58.9808H40.8463C43.1575 58.9808 45.1989 57.4879 45.9004 55.2847L47.0785 51.5976C47.9418 48.8997 46.5389 45.968 43.877 44.9967C34.947 41.7323 25.7202 42.1549 16.2596 45.2935C13.6067 46.1748 12.1408 49.0076 12.8692 51.7055L13.7775 55.0598C14.416 57.371 16.5114 58.9808 18.9125 58.9808Z" fill="#77C2D7"/>
<path d="M49.8359 26.42C49.8359 32.1769 45.1741 38.3927 39.4172 38.3927C33.6603 38.3927 28.9985 32.1769 28.9985 26.42C28.9985 20.6632 33.6603 16.5854 39.4172 16.5854C45.1741 16.575 49.8359 20.6632 49.8359 26.42Z" fill="#035970"/>
<path d="M26.4851 60.5441H51.9217C54.602 60.5441 56.9694 58.8129 57.7829 56.2577L59.1491 51.9818C60.1503 48.8531 58.5233 45.4532 55.4363 44.3268C45.0802 40.541 34.3799 41.0312 23.4085 44.671C20.3319 45.693 18.632 48.9782 19.4767 52.1069L20.5301 55.997C21.2705 58.6773 23.7005 60.5441 26.4851 60.5441Z" fill="#035970"/>
<path d="M78.6744 64.3902C78.6744 72.818 71.8424 79.65 63.4147 79.65C54.987 79.65 48.1549 72.818 48.1549 64.3902C48.1549 55.9625 54.987 49.1305 63.4147 49.1305C71.8424 49.1305 78.6744 55.9625 78.6744 64.3902Z" fill="#F2385A" stroke="white" stroke-width="0.7"/>
<path fill-rule="evenodd" clip-rule="evenodd" d="M64.4573 57.6829C64.4573 57.2687 64.1215 56.9329 63.7073 56.9329C63.2931 56.9329 62.9573 57.2687 62.9573 57.6829V63.9329H56.7073C56.2931 63.9329 55.9573 64.2687 55.9573 64.6829C55.9573 65.0971 56.2931 65.4329 56.7073 65.4329H62.9573V71.6829C62.9573 72.0971 63.2931 72.4329 63.7073 72.4329C64.1215 72.4329 64.4573 72.0971 64.4573 71.6829V65.4329H70.7073C71.1215 65.4329 71.4573 65.0971 71.4573 64.6829C71.4573 64.2687 71.1215 63.9329 70.7073 63.9329H64.4573V57.6829Z" fill="white"/>
</svg>
