<svg width="80" height="80" viewBox="0 0 80 80" fill="none" xmlns="http://www.w3.org/2000/svg">
<mask id="mask0_4217_74885" style="mask-type:alpha" maskUnits="userSpaceOnUse" x="0" y="0" width="80" height="80">
<rect width="80" height="80" fill="#C4C4C4"/>
</mask>
<g mask="url(#mask0_4217_74885)">
<path d="M35.0986 5.27804C27.1732 11.4955 16.1933 16.3806 4.11953 19.0429L4.00046 41.8197C3.94585 52.2414 8.78838 61.67 18.3935 69.8438C24.7048 75.214 31.3405 78.5459 34.7073 80.0422C34.8523 79.9807 35.0113 79.9078 35.1676 79.8395V5.3304C35.1447 5.31445 35.1207 5.29626 35.0986 5.27804Z" fill="#B2ECFC"/>
<path d="M35.2197 5.27753V80.1375C38.7203 78.5724 45.0827 75.3392 51.1761 70.2206C60.8639 62.0815 65.8039 52.6474 65.858 42.1767L65.9773 19.2926C53.9686 16.5331 43.0724 11.5586 35.2197 5.27753Z" fill="#B2ECFC"/>
<path d="M35.4121 5.22629C23.6832 10.3324 17.6259 12.1761 6.33783 14.7817L6.33783 40.9899C6.28678 51.1896 10.8141 60.4175 19.7942 68.4172C25.6947 73.6731 31.8985 76.934 35.0462 78.3984C35.1817 78.3383 35.3304 78.2669 35.4766 78.2001V5.27753C35.4551 5.26192 35.4327 5.24412 35.4121 5.22629Z" fill="#77C2D7"/>
<path d="M35.4773 5.27735V78.1999C38.7508 76.6753 44.7004 73.5258 50.3984 68.5396C59.4576 60.6112 64.0771 51.4212 64.1277 41.2215V14.0077C52.7008 11.6863 40.8038 7.72067 35.4773 5.27735Z" fill="#77C2D7"/>
<path d="M68.301 28.2421C67.6773 29.1907 66.9471 30.0658 66.1243 30.8447L67.0553 33.2275C67.359 34.0062 67.029 34.882 66.2976 35.275L62.877 37.0884C62.1394 37.4795 61.2312 37.2548 60.7571 36.5664L59.316 34.4748C58.1629 34.7383 56.9858 34.8587 55.8054 34.8355L54.7679 37.1975C54.4312 37.9627 53.5786 38.3524 52.7848 38.1087L49.0825 36.9718C48.2887 36.7281 47.8018 35.927 47.9525 35.1047L48.4052 32.6582C47.3326 31.9963 46.3553 31.2009 45.4882 30.2899L43.1989 31.1817C42.4202 31.4855 41.5443 31.1555 41.1513 30.424L39.3379 27.0034C38.9469 26.2658 39.1715 25.3576 39.8599 24.8836L41.8504 23.5064C41.5712 22.2941 41.4431 21.0537 41.4853 19.8112L39.3556 18.879C38.5904 18.5422 38.2007 17.6897 38.4445 16.8959L39.5813 13.1936C39.825 12.3998 40.626 11.9129 41.4484 12.0636L43.7032 12.4777C44.3494 11.4343 45.1291 10.4861 46.0118 9.64423L45.1922 7.53991C44.8884 6.76122 45.2184 5.88535 45.9498 5.4924L49.3623 3.68326C50.1 3.29221 51.0082 3.51681 51.4822 4.20525L52.7257 6.01218C53.9847 5.71336 55.2725 5.58625 56.5683 5.63127L57.4695 3.58033C57.8063 2.81511 58.6588 2.42542 59.4526 2.66917L63.1549 3.80599C63.9487 4.04974 64.4357 4.85074 64.2849 5.67309L63.8798 7.87636C65.0068 8.58208 66.0265 9.4381 66.9181 10.4244L69.0386 9.59614C69.8173 9.29235 70.6932 9.62237 71.0861 10.3538L72.8995 13.7744C73.2906 14.512 73.066 15.4203 72.3775 15.8943L70.3971 17.2609C70.6515 18.4656 70.7486 19.6965 70.6835 20.9252L72.8856 21.8864C73.6508 22.2232 74.0405 23.0757 73.7968 23.8695L72.66 27.5718C72.4162 28.3656 71.6152 28.8526 70.7929 28.7018L68.301 28.2421ZM57.9626 14.1079C54.589 13.072 50.9982 14.9757 49.9623 18.3493C48.9264 21.7229 50.83 25.3137 54.2036 26.3496C57.5772 27.3855 61.1681 25.4818 62.204 22.1082C63.2399 18.7346 61.3362 15.1438 57.9626 14.1079Z" fill="#4690A4"/>
<path d="M16.6795 13.4584L19.1395 12.4086C19.8972 12.0848 20.7764 12.3819 21.1812 13.0966L21.9499 14.4388C22.9966 14.2784 24.0593 14.2654 25.113 14.3921L25.8738 12.997C26.2649 12.2757 27.1419 11.9613 27.9043 12.2633L30.3865 13.263C31.1469 13.5711 31.5647 14.3984 31.3477 15.1936L30.9326 16.722C31.804 17.3764 32.5795 18.1438 33.2363 19.0105L34.7889 18.5508C35.5797 18.3186 36.4159 18.7111 36.7397 19.4688L37.7856 21.9412C38.1095 22.6989 37.8124 23.5781 37.0977 23.9829L35.5996 24.8394C35.7199 25.84 35.7153 26.8497 35.5851 27.848L37.0966 28.6718C37.8179 29.0629 38.1323 29.9399 37.8303 30.7023L36.8306 33.1844C36.5225 33.9449 35.6952 34.3627 34.9 34.1457L33.1403 33.6663C32.5687 34.4002 31.9114 35.0602 31.1826 35.6439L31.7048 37.4126C31.9371 38.2033 31.5446 39.0396 30.7869 39.3634L28.3269 40.4132C27.5692 40.737 26.69 40.4399 26.2851 39.7251L25.3751 38.136C24.418 38.2696 23.4479 38.2907 22.4892 38.1863L21.5986 39.8266C21.2075 40.548 20.3306 40.8623 19.5682 40.5603L17.086 39.5607C16.3256 39.2525 15.9078 38.4253 16.1248 37.63L16.5946 35.9012C15.7653 35.2869 15.0219 34.57 14.3789 33.7687L12.6855 34.2666C11.8948 34.4989 11.0586 34.1064 10.7347 33.3487L9.68496 30.8887C9.36121 30.131 9.65832 29.2518 10.373 28.8469L11.8773 27.9924C11.7321 26.9842 11.7139 25.9606 11.8336 24.9523L10.3804 24.1599C9.65898 23.7688 9.34464 22.8918 9.6466 22.1294L10.6463 19.6473C10.9544 18.8868 11.7817 18.469 12.5769 18.6861L14.1487 19.1144C14.7493 18.308 15.4461 17.5856 16.2294 16.9574L15.7721 15.419C15.5274 14.6247 15.9218 13.7822 16.6795 13.4584ZM21.7611 31.1426C24.4421 32.2238 27.5036 30.9176 28.5784 28.2346C29.6596 25.5535 28.3533 22.4922 25.6704 21.4173C22.9893 20.3361 19.9279 21.6424 18.853 24.3253C17.7718 27.0065 19.0782 30.0678 21.7611 31.1426Z" fill="#F4FCFF"/>
<path d="M52.473 48.0091C53.2297 48.3296 53.6294 49.1717 53.3937 49.9612L52.9306 51.5359C52.7011 52.3273 51.9125 52.8181 51.1007 52.6774L49.9015 52.472C49.4941 53.1138 49.0155 53.6998 48.4678 54.2238L48.9302 55.3701C49.2378 56.1363 48.9302 57.0056 48.2049 57.4004L46.7626 58.1858C46.0374 58.5807 45.1377 58.3723 44.6599 57.6963L43.955 56.6994C43.1857 56.8839 42.404 56.9765 41.62 56.9664L41.1303 58.119C40.8098 58.8756 39.9677 59.2753 39.1782 59.0397L37.6035 58.5765C36.8121 58.3471 36.3213 57.5585 36.462 56.7466L36.6659 55.5741C35.9435 55.1419 35.2888 54.622 34.7 54.0204L33.6166 54.4546C32.8503 54.7622 31.9811 54.4546 31.5862 53.7293L30.8008 52.287C30.4059 51.5619 30.6143 50.6621 31.2903 50.1843L32.2187 49.526C32.0189 48.7182 31.9253 47.8955 31.9425 47.0661L30.9454 46.6445C30.1888 46.324 29.7892 45.4819 30.0247 44.6924L30.488 43.1177C30.7174 42.3263 31.506 41.8355 32.3178 41.9762L33.3625 42.1545C33.7871 41.4569 34.297 40.8127 34.8785 40.2448L34.4883 39.2835C34.1807 38.5172 34.4883 37.6481 35.2135 37.2532L36.6558 36.4678C37.381 36.0728 38.2808 36.2813 38.7585 36.9574L39.3319 37.7645C40.1702 37.5537 41.0278 37.4573 41.89 37.4778L42.2883 36.5347C42.6089 35.778 43.4508 35.3783 44.2404 35.614L45.8151 36.0771C46.6065 36.3066 47.0972 37.0952 46.9566 37.907L46.7835 38.9126C47.5374 39.3748 48.2259 39.9391 48.8282 40.5855L49.7976 40.1909C50.5639 39.8833 51.4331 40.191 51.828 40.9162L52.6177 42.3667C53.0126 43.0918 52.8042 43.9916 52.1282 44.4693L51.2018 45.1214C51.3768 45.9217 51.4579 46.7405 51.4221 47.5642L52.473 48.0091ZM42.8907 43.1258C40.6319 42.4594 38.258 43.7596 37.5915 46.0183C36.925 48.277 38.2252 50.651 40.484 51.3175C42.7427 51.9839 45.1166 50.6838 45.7832 48.425C46.4495 46.1663 45.1494 43.7923 42.8907 43.1258Z" fill="#102D42"/>
</g>
</svg>
