<svg width="40" height="40" viewBox="0 0 40 40" fill="none" xmlns="http://www.w3.org/2000/svg">
  <g id="3527e699c2f8e31889808eeb5e6a8dce">
    <ellipse id="a6936e69ee0d7d1ff2b0dcabeaafe106" cx="20" cy="20" rx="20" ry="20" fill="#F2385A"></ellipse>
    <path id="3519471ca2f716c7314e74fd7a1bf8a2" fill-rule="evenodd" clip-rule="evenodd" d="M23.4174 14.0202C22.9261 13.7646 22.3629 13.6874 21.8222 13.8011C21.2815 13.9148 20.795 14.2127 20.4452 14.6461C20.0953 15.0795 19.9037 15.6219 19.9036 16.1821L19.9025 17.4552C19.9023 17.6757 19.8051 17.885 19.6367 18.0273C19.4683 18.1697 19.2458 18.2307 19.0283 18.1942C16.9785 17.85 15.1354 16.8277 13.8294 15.9234C13.428 15.6455 13.0726 15.3753 12.772 15.1337C12.6087 17.6723 13.3823 19.4328 14.2299 20.5912C14.7325 21.2781 15.2707 21.7656 15.6802 22.0794C15.8846 22.236 16.0555 22.3482 16.1716 22.4195C16.2296 22.455 16.2737 22.4803 16.3013 22.4956C16.3083 22.4995 16.3143 22.5027 16.3191 22.5053C16.3238 22.5078 16.3274 22.5097 16.3299 22.5111L16.3337 22.5131C16.5239 22.6097 16.6642 22.7829 16.719 22.9892C16.7741 23.1963 16.7379 23.4171 16.6196 23.5958C15.9001 24.6827 14.8458 25.4679 14.0125 25.9715C13.9473 26.0109 13.8831 26.0487 13.8202 26.0851C14.1953 26.1789 14.6983 26.25 15.3623 26.25C17.7386 26.25 20.0267 25.3392 21.7619 23.7011C23.4973 22.0629 24.5495 19.82 24.7033 17.4273C24.7149 17.2463 24.7918 17.0757 24.9196 16.947L26.1984 15.6591L25.2096 15.6591C24.9107 15.6591 24.6403 15.4816 24.5214 15.2074C24.2992 14.6946 23.9089 14.2758 23.4174 14.0202ZM11.9379 25.3438L11.9396 25.3431L11.9553 25.337C11.9702 25.3311 11.9939 25.3216 12.0254 25.3084C12.0886 25.2821 12.183 25.2414 12.3014 25.1864C12.5388 25.076 12.8695 24.9095 13.2367 24.6876C13.7912 24.3526 14.3982 23.9096 14.8968 23.3668C14.855 23.3361 14.812 23.3038 14.7679 23.27C14.2691 22.8878 13.6225 22.3014 13.0193 21.477C11.7995 19.8097 10.7943 17.217 11.4648 13.5031C11.5145 13.228 11.7131 13.0033 11.98 12.9202C12.2468 12.8372 12.5376 12.9094 12.7346 13.1075C12.7348 13.1076 12.7345 13.1073 12.7346 13.1075L12.2029 13.6364C12.7351 13.1079 12.7347 13.1076 12.7346 13.1075L12.74 13.1128L12.7628 13.1352C12.7838 13.1557 12.8164 13.1871 12.8599 13.2281C12.947 13.31 13.0777 13.43 13.2471 13.5769C13.5864 13.8711 14.0782 14.2712 14.6833 14.6902C15.6978 15.3927 16.9954 16.1235 18.4033 16.5184L18.4036 16.182C18.4038 15.2802 18.7122 14.4048 19.278 13.7039C19.8439 13.0028 20.6332 12.5183 21.5136 12.3332C22.3942 12.1481 23.3109 12.2741 24.1096 12.6894C24.7574 13.0263 25.295 13.5367 25.6663 14.1591L28 14.1591C28.3029 14.1591 28.576 14.3413 28.6924 14.6209C28.8088 14.9005 28.7456 15.2226 28.5322 15.4375L26.1782 17.8083C25.9376 20.471 24.7349 22.9574 22.7916 24.7919C20.779 26.6918 18.1229 27.7499 15.3623 27.75C14.0036 27.75 13.0942 27.4931 12.4974 27.1926C12.1999 27.0428 11.986 26.885 11.8374 26.7503C11.7634 26.6832 11.7064 26.6226 11.6638 26.5726C11.6425 26.5476 11.6249 26.5253 11.6106 26.5063C11.6035 26.4967 11.5972 26.488 11.5917 26.4802L11.584 26.4691L11.5806 26.4641L11.579 26.4617L11.5782 26.4606C11.5778 26.46 11.5775 26.4594 12.2029 26.0455L11.5775 26.4594C11.4515 26.2692 11.419 26.032 11.4892 25.8149C11.5592 25.5981 11.7249 25.4246 11.9379 25.3438ZM11.9379 25.3438C11.9379 25.3438 11.9378 25.3438 11.9379 25.3438Z" fill="white"></path>
  </g>
</svg>