<svg xmlns="http://www.w3.org/2000/svg" xmlns:xlink="http://www.w3.org/1999/xlink" width="240" height="529" viewBox="0 0 240 529">
    <defs>
        <path id="6fi0hdfbla" d="M0 0H240V529H0z"/>
        <path id="5tx0fd8yud" d="M71.757 18.033C61.73 32.523 73.486 56 58.605 66.89c-14.482 10.607-32.278-6.773-45.929 2.355-20.223 13.538-16.526 75.5 13.086 113.992 8.906 11.576 16.343 16.077 19.641 29.173 7.07 28.111-17.797 44.84-13.06 58.745 10.65 31.302 174.518 57.577 240.271-36.513 30.742-43.947 35.303-107.403 7.86-155.6C230.898-8.041 94.29-14.472 71.757 18.032z"/>
        <path id="ymvtl8fi0o" d="M10.097 4.929l1.818 1.167 1.694-.854c.845-.427 1.946-.376 2.727.126l3.235 2.075L7.502 19.23c-.674.659-1.83.868-2.802.509l-2.716-1.004-1.468 1.434 10.908 6.998 1.468-1.434-1.802-1.895c-.646-.679-.626-1.617.048-2.275l12.07-11.787 3.236 2.075c.781.502 1.072 1.343.721 2.087l-.706 1.488 1.819 1.166 4.404-4.302L14.502.627l-4.405 4.302z"/>
        <path id="lpxz6kceeq" d="M10.097 4.929l1.818 1.167 1.694-.854c.845-.427 1.946-.376 2.727.126l3.235 2.075L7.502 19.23c-.674.659-1.83.868-2.802.509l-2.716-1.004-1.468 1.434 5.128 3.29 5.78 3.708 1.468-1.434-1.802-1.895c-.646-.679-.626-1.617.048-2.275l12.07-11.787 3.236 2.075c.781.502 1.072 1.343.721 2.087l-.706 1.488 1.819 1.166 4.404-4.302-15.486-9.935L14.502.627l-4.405 4.302z"/>
        <path id="jsbxujthjs" d="M10.097 4.929l1.818 1.167 1.694-.854c.845-.427 1.946-.376 2.727.126l3.235 2.075L7.502 19.23c-.674.659-1.83.868-2.802.509l-2.716-1.004-1.468 1.434 5.129 3.289 5.779 3.709 1.468-1.434-1.802-1.895c-.646-.679-.626-1.617.048-2.275l12.07-11.787 3.236 2.075c.781.502 1.072 1.343.721 2.087l-.706 1.488 1.819 1.166 4.404-4.302-15.487-9.935L14.502.627l-4.405 4.302z"/>
        <path id="40gyrocqku" d="M14.502.627l-4.405 4.302 1.818 1.167 1.694-.854c.845-.427 1.946-.376 2.727.126l3.235 2.075L7.502 19.23c-.674.659-1.83.868-2.802.509l-2.716-1.004-1.468 1.433 10.909 6.998 1.467-1.433-1.802-1.895c-.646-.679-.626-1.617.048-2.275l12.07-11.787 3.236 2.075c.781.502 1.072 1.343.721 2.087l-.706 1.488 1.819 1.166 4.404-4.302-15.487-9.935L14.502.627z"/>
        <path id="fv7ywbmzjw" d="M30.782 1.284L2.597 28.279c-.975.933-.86 2.258.253 2.962l8.06 5.099L.34 46.464l26.69.075 20.151 12.748c1.113.703 2.803.52 3.777-.413L79.144 31.88c.974-.934.859-2.26-.254-2.963L34.559.872c-.456-.288-1.009-.428-1.57-.428-.807 0-1.632.29-2.207.84z"/>
        <path id="vs19daoigy" d="M17.501.023c-.446-.002-.702.037-1.088.082-1.014.103-1.83.311-2.34.576-.3.131-.692.271-.957.89-.157.377.098.622.203 1.033.099.45.66.897 1.182 1.424.24.251.706.72 1.256 1.22.383.325.951.675 1.451 1.133.535.503 1.423 1.532 1.767 1.853.695.63 1.206 1.008 1.21 1.709-.003.513-.478.71-1.311 1.152-.352.174-2.17.092-3.143.39-.278.085-.62.038-.958.02-1.545-.014-2.638-.177-4.099-.445-1.064-.192-2.319-.455-2.975-.764-.095-.036-.77-.226-1.436-.543-.92-.43-2.761-1.794-3.116-2.12-.173-.16-.668-.46-1.03-.803-.494-.44-.782-.733-.97-1.143-.017-.052-.233-.548-.248-.942-.015-.45.043-.933.59-1.279.264-.192.476-.368.961-.475l.263-.136c.006-.01.112-.084.113-.14-.005-.076-.106-.127-.15-.15-.09-.017-.207.022-.24.033-.363.141-.681.22-.973.355-.324.147-.642.282-.854.458-.269.233-.465.516-.578.915-.199.711.633 1.94.655 2.122.055.171.465.811 1.098 1.48.394.39 1.673 1.591 1.978 1.878.245.24.846.607 1.625.98.657.311 1.442.787 2.233 1.081.435.167 1.332.473 1.978.664 1.314.393 2.552.717 4.08.848 1.4.138 3.045.116 4.339-.044.195-.028.498-.13.67-.14.082-.005.147-.004.205-.004.118 0 .211.002.365-.045.76-.178 1.1-.416 1.541-.717.409-.26.73-1.108.615-1.667-.119-.66-.301-1.282-.668-1.757-.538-.664-.526-.942-1.12-1.549-.439-.44-.655-.823-1.139-1.287-.81-.761-1.332-1.458-1.527-1.686-.393-.446-1.433-1.34-1.632-1.899-.088-.245-.208-.82-.007-1.089.197-.284.515-.59 1.432-.774.282-.05.705-.039 1.129-.028.378.01.755.02 1.03-.014.569-.049 1.71.526 2.328.574 1.189.256 2.714.985 2.903 1.225.194.259.41.413.394.446-.068.166.024.712.442.97.312.19.959.125 1.17.177.25.058.632-.088.77-.145.43-.079.37-.181.567-.407.168-.171.085-.429.019-.633-.05-.211-.078-.383-.2-.502-.405-.395-1.068-.666-1.625-.924-.58-.27-1.448-.548-2.456-.825-.52-.14-.891-.26-1.304-.33-.48-.105-1.02-.17-1.89-.22C19.414.045 18.772 0 18.174 0c-.232 0-.458.007-.673.023zm13.642 8.18c-.414.159-.833.442-1.102.845-.073.09-.163.215-.236.364-.062.124.06.444.255.558.239.139.807.232.936.227.563-.038.993-.144 1.356-.286.106-.044.245-.1.52-.26.118-.068.543-.418.554-.64.002-.313-.309-.646-.62-.835-.168-.114-.38-.166-.519-.196h-.005c-.251 0-.684.06-1.139.223zm-3.63 2.509c-.251.028-.91.173-1.016.218-.208.08-.85.305-.99.532-.18.278-.839.623-1.074.73-.363.17-1.163.77-1.616 1.121-.566.437-1.138 1.226-1.234 1.562-.063.21-.136.5-.098.706.055.257.255.388.316.52.205.348.669.458.808.46.094.006.496-.016.668-.026.47-.015 1.128-.218 2.162-.357.507-.066 1.556-.152 2.12-.246.58-.108.947-.094 1.344-.081.158.006.321.011.508.008.088-.004.238.017.398.04.02.001.038.004.056.007.261-.111.534-.215.811-.312-.003-.038-.025-.098-.086-.14-.146-.075-.368-.133-.44-.127-.179.022-.614.026-1.094.036-.474-.003-.95.024-1.3.057-.39.026-.764.047-1.098.046-.587-.003-1.089-.033-1.45-.063-.319-.036-.95-.204-1.193-.33-.089-.046-.113-.114-.1-.25-.004-.19.242-.49.638-.814.404-.334.941-.685 1.478-.95.217-.102.575-.288.94-.458.289-.135.575-.26.775-.327.33-.1.687-.173.85-.332.206-.222.087-.826-.382-.982-.144-.048-.306-.252-.622-.252-.025 0-.052.001-.078.004zm7.32 4.09c-.55.016-1.11.07-1.64.154-.547.088-1.094.206-1.648.364-.293.083-.584.175-.869.274.001.014 0 .025-.003.03-.007.04.004.275-.168.314-.124.022-.196-.001-.253-.001-.114.002-.253-.013-.387-.031-.137.058-.272.117-.403.18-.447.197-.843.377-1.184.56-.516.276-.907.56-1.126.917-.117.182-.226.797-.11 1.127.143.303.861.859 1.223.889.274.013.604-.145 1.39-.24.61-.07 1.402-.29 2.16-.412.38-.062.799-.088 1.184-.104.541-.02 1.048-.03 1.461-.016.347.007.575.083.713.254.045.05-.046.233-.325.602-.197.255-.443.47-.695.67-.18.136-.324.232-.878.674-1.214.901-1.835 1.223-2.914 1.765-.76.35-1.944.995-2.76 1.287-.765.249-2.111.596-2.435.629-.285.01-1.234.319-2.55.24-.625-.037-1.344-.166-2.107-.459-1.025-.414-1.697-.89-2.254-1.462-.382-.384-.671-.818-.876-1.252-.232-.52-.325-1.038-.261-1.477.064-.552.698-1.496 1.693-2.209.543-.334.649-.294 1.039-.406.179-.05.352-.146.464-.203.217-.102.224-.17 0-.17-.245.016-.468-.014-.758.064-.341.067-.268.033-.787.237-.738.275-1.566.734-1.75.966-.247.301-.579.858-.693 1.57-.12.695-.05 1.373.165 2.013.214.638.585 1.244 1.08 1.798.772.898 1.69 1.557 2.436 1.857 1.765.697 2.43.824 3.607.761.635-.014 1.277-.098 1.846-.146.904-.077 1.964-.3 2.244-.413.894-.337 1.816-.846 2.895-1.303.744-.316 1.514-.718 2.013-1.046l1.599-1.059c.934-.56 1.723-1.308 2.154-1.615.491-.345 1.069-1.06 1.5-1.253.38-.175.765-.276.979-.451.279-.255.19-.643.137-.928-.044-.194-.279-.23-.417-.373-.21-.195-.407-.252-.585-.23-.022-.011-.05-.011-.067-.006-.211-.023-.546.004-.92.054l-.158.033-1.417.154c-.542.049-1.116.11-1.668.152-.875.076-1.696.124-2.232.162-.993.058-1.205.034-1.41-.028-.101-.03-.194-.025-.261-.023-.105.006-.155.013-.096-.104.078-.16.23-.325.493-.488.351-.233.9-.493 1.664-.74.302-.101.632-.203 1-.298.53-.14 1.418-.268 2.177-.332.425-.04.82-.048 1.077-.03.496.04.513.235.573.452.038.092-.012.166.065.32.1.194.368.246.412.297.1.137.68-.02 1.016-.104.229-.067.335-.369.391-.369.14-.027.186-.146.135-.3-.043-.166-.054-.314-.075-.411-.133-.497-.701-.733-1.03-.917-.244-.126-.567-.236-.94-.3-.441-.079-.945-.118-1.47-.118-.134 0-.27.003-.406.008zm7.928 4.306c-.307.141-.503.368-.788.52-.022.018-.7.425-.973.612-.481.294-1.438.814-1.734.96-.53.255-1.084.669-1.252.81-.302.273-.727.51-.974.925-.19.301-.077.888.173 1.175.222.257.58.242.841.19.202-.038.7-.252 1.046-.416.335-.17.307-.14.844-.435.285-.153 1.285-.508 1.698-.608.436-.118 1.016-.332 1.558-.438.664-.128.882-.145 1.512-.234.152-.021.81-.11 1.027-.04.256.075.317.29.189.524-.052.103-.042.11-.293.45-.365.453-.936 1.13-1.195 1.539-.263.363-.522.8-.662 1.027-.438.773-.442 1.657.177 1.932.563.249.69.243 1.432.155.787-.094 1.893-.265 2.914-.437l2.054-.311c.48-.037.63-.003.976-.053.134.012.248-.3.23-.353-.088-.13-.623-.236-.763-.208-.513.192-1.284.224-2.657.428-.423.066-1.177.064-1.874-.025-.33-.041-.518-.196-.539-.435-.016-.194.063-.439.238-.791.06-.126.352-.404.52-.658.164-.245.387-.444.763-.865.498-.527 1.08-1.054 1.416-1.223.168-.085.413-.3.588-.568.118-.153.096-.336.041-.507-.122-.376-.405-.65-.683-.709-.195-.03-.68-.122-.993-.056-.212.063-.587.112-.882.173-.34.068-.804.185-1.178.263-.714.146-1.284.251-2.088.379-.223.028-1.759.334-1.908.271-.044-.022-.106-.069-.078-.126.084-.2.52-.517.594-.55.346-.164.758-.321 1.161-.486.118-.038.552-.07.658-.115.28-.114.41-.29.55-.403.1-.09.197-.284.235-.45.018-.147-.16-.41-.309-.53-.257-.19-.524-.27-.903-.352-.092-.02-.205-.04-.325-.04-.125 0-.258.022-.384.09z"/>
        <path id="lqtcdie5uA" d="M17.501.023c-.446-.002-.702.037-1.088.082-1.014.103-1.83.311-2.34.576-.3.131-.692.271-.957.89-.157.377.098.622.203 1.033.099.45.66.897 1.182 1.424.24.251.706.72 1.256 1.22.383.325.951.675 1.451 1.133.535.503 1.423 1.532 1.767 1.853.695.63 1.206 1.008 1.21 1.709-.003.513-.478.71-1.311 1.152-.352.174-2.17.092-3.143.39-.278.085-.62.038-.958.02-1.545-.014-2.638-.177-4.099-.445-1.064-.192-2.319-.455-2.975-.764-.095-.036-.77-.226-1.436-.543-.92-.43-2.761-1.794-3.116-2.12-.173-.16-.668-.46-1.03-.803-.494-.44-.782-.733-.97-1.143-.017-.052-.233-.548-.248-.942-.015-.45.043-.933.59-1.279.264-.192.476-.368.961-.475l.263-.136c.006-.01.112-.084.113-.14-.005-.076-.106-.127-.15-.15-.09-.017-.207.022-.24.033-.363.141-.681.22-.973.355-.324.147-.642.282-.854.458-.269.233-.465.516-.578.915-.199.711.633 1.94.655 2.122.055.171.465.811 1.098 1.48.394.39 1.673 1.591 1.978 1.878.245.24.846.607 1.625.98.657.311 1.442.787 2.233 1.081.435.167 1.332.473 1.978.664 1.314.393 2.552.717 4.08.848 1.4.138 3.045.116 4.339-.044.195-.028.498-.13.67-.14.082-.005.147-.004.205-.004.118 0 .211.002.365-.045.76-.178 1.1-.416 1.541-.717.409-.26.73-1.108.615-1.667-.119-.66-.301-1.282-.668-1.757-.538-.664-.526-.942-1.12-1.549-.439-.44-.655-.823-1.139-1.287-.81-.761-1.332-1.458-1.527-1.686-.393-.446-1.433-1.34-1.632-1.899-.088-.245-.208-.82-.007-1.089.197-.284.515-.59 1.432-.774.282-.05.705-.039 1.129-.028.378.01.755.02 1.03-.014.569-.049 1.71.526 2.328.574 1.189.256 2.714.985 2.903 1.225.194.259.41.413.394.446-.068.166.024.712.442.97.312.19.959.125 1.17.177.25.058.632-.088.77-.145.43-.079.37-.181.567-.407.168-.171.085-.429.019-.633-.05-.211-.078-.383-.2-.502-.405-.395-1.068-.666-1.625-.924-.58-.27-1.448-.548-2.456-.825-.52-.14-.891-.26-1.304-.33-.48-.105-1.02-.17-1.89-.22C19.414.045 18.772 0 18.174 0c-.232 0-.458.007-.673.023zm13.642 8.18c-.414.159-.833.442-1.102.845-.073.09-.163.215-.236.364-.062.124.06.444.255.558.239.139.807.232.936.227.563-.038.993-.144 1.356-.286.106-.044.245-.1.52-.26.118-.068.543-.418.554-.64.002-.313-.309-.646-.62-.835-.168-.114-.38-.166-.519-.196h-.005c-.251 0-.684.06-1.139.223zm-3.63 2.509c-.251.028-.91.173-1.016.218-.208.08-.85.305-.99.532-.18.278-.839.623-1.074.73-.363.17-1.163.77-1.616 1.121-.566.437-1.138 1.226-1.234 1.562-.063.21-.136.5-.098.706.055.257.255.388.316.52.205.348.669.458.808.46.094.006.496-.016.668-.026.47-.015 1.128-.218 2.162-.357.507-.066 1.556-.152 2.12-.246.58-.108.947-.094 1.344-.081.158.006.321.011.508.008.088-.004.238.017.398.04.02.001.038.004.056.007.261-.111.534-.215.811-.312-.003-.038-.025-.098-.086-.14-.146-.075-.368-.133-.44-.127-.179.022-.614.026-1.094.036-.474-.003-.95.024-1.3.057-.39.026-.764.047-1.098.046-.587-.003-1.089-.033-1.45-.063-.319-.036-.95-.204-1.193-.33-.089-.046-.113-.114-.1-.25-.004-.19.242-.49.638-.814.404-.334.941-.685 1.478-.95.217-.102.575-.288.94-.458.289-.135.575-.26.775-.327.33-.1.687-.173.85-.332.206-.222.087-.826-.382-.982-.144-.048-.306-.252-.622-.252-.025 0-.052.001-.078.004zm7.32 4.09c-.55.016-1.11.07-1.64.154-.547.088-1.094.206-1.648.364-.293.083-.584.175-.869.274.001.014 0 .025-.003.03-.007.04.004.275-.168.314-.124.022-.196-.001-.253-.001-.114.002-.253-.013-.387-.031-.137.058-.272.117-.403.18-.447.197-.843.377-1.184.56-.516.276-.907.56-1.126.917-.117.182-.226.797-.11 1.127.143.303.861.859 1.223.889.274.013.604-.145 1.39-.24.61-.07 1.402-.29 2.16-.412.38-.062.799-.088 1.184-.104.541-.02 1.048-.03 1.461-.016.347.007.575.083.713.254.045.05-.046.233-.325.602-.197.255-.443.47-.695.67-.18.136-.324.232-.878.674-1.214.901-1.835 1.223-2.914 1.765-.76.35-1.944.995-2.76 1.287-.765.249-2.111.596-2.435.629-.285.01-1.234.319-2.55.24-.625-.037-1.344-.166-2.107-.459-1.025-.414-1.697-.89-2.254-1.462-.382-.384-.671-.818-.876-1.252-.232-.52-.325-1.038-.261-1.477.064-.552.698-1.496 1.693-2.209.543-.334.649-.294 1.039-.406.179-.05.352-.146.464-.203.217-.102.224-.17 0-.17-.245.016-.468-.014-.758.064-.341.067-.268.033-.787.237-.738.275-1.566.734-1.75.966-.247.301-.579.858-.693 1.57-.12.695-.05 1.373.165 2.013.214.638.585 1.244 1.08 1.798.772.898 1.69 1.557 2.436 1.857 1.765.697 2.43.824 3.607.761.635-.014 1.277-.098 1.846-.146.904-.077 1.964-.3 2.244-.413.894-.337 1.816-.846 2.895-1.303.744-.316 1.514-.718 2.013-1.046l1.599-1.059c.934-.56 1.723-1.308 2.154-1.615.491-.345 1.069-1.06 1.5-1.253.38-.175.765-.276.979-.451.279-.255.19-.643.137-.928-.044-.194-.279-.23-.417-.373-.21-.195-.407-.252-.585-.23-.022-.011-.05-.011-.067-.006-.211-.023-.546.004-.92.054l-.158.033-1.417.154c-.542.049-1.116.11-1.668.152-.875.076-1.696.124-2.232.162-.993.058-1.205.034-1.41-.028-.101-.03-.194-.025-.261-.023-.105.006-.155.013-.096-.104.078-.16.23-.325.493-.488.351-.233.9-.493 1.664-.74.302-.101.632-.203 1-.298.53-.14 1.418-.268 2.177-.332.425-.04.82-.048 1.077-.03.496.04.513.235.573.452.038.092-.012.166.065.32.1.194.368.246.412.297.1.137.68-.02 1.016-.104.229-.067.335-.369.391-.369.14-.027.186-.146.135-.3-.043-.166-.054-.314-.075-.411-.133-.497-.701-.733-1.03-.917-.244-.126-.567-.236-.94-.3-.441-.079-.945-.118-1.47-.118-.134 0-.27.003-.406.008zm7.928 4.306c-.307.141-.503.368-.788.52-.022.018-.7.425-.973.612-.481.294-1.438.814-1.734.96-.53.255-1.084.669-1.252.81-.302.273-.727.51-.974.925-.19.301-.077.888.173 1.175.222.257.58.242.841.19.202-.038.7-.252 1.046-.416.335-.17.307-.14.844-.435.285-.153 1.285-.508 1.698-.608.436-.118 1.016-.332 1.558-.438.664-.128.882-.145 1.512-.234.152-.021.81-.11 1.027-.04.256.075.317.29.189.524-.052.103-.042.11-.293.45-.365.453-.936 1.13-1.195 1.539-.263.363-.522.8-.662 1.027-.438.773-.442 1.657.177 1.932.563.249.69.243 1.432.155.787-.094 1.893-.265 2.914-.437l2.054-.311c.48-.037.63-.003.976-.053.134.012.248-.3.23-.353-.088-.13-.623-.236-.763-.208-.513.192-1.284.224-2.657.428-.423.066-1.177.064-1.874-.025-.33-.041-.518-.196-.539-.435-.016-.194.063-.439.238-.791.06-.126.352-.404.52-.658.164-.245.387-.444.763-.865.498-.527 1.08-1.054 1.416-1.223.168-.085.413-.3.588-.568.118-.153.096-.336.041-.507-.122-.376-.405-.65-.683-.709-.195-.03-.68-.122-.993-.056-.212.063-.587.112-.882.173-.34.068-.804.185-1.178.263-.714.146-1.284.251-2.088.379-.223.028-1.759.334-1.908.271-.044-.022-.106-.069-.078-.126.084-.2.52-.517.594-.55.346-.164.758-.321 1.161-.486.118-.038.552-.07.658-.115.28-.114.41-.29.55-.403.1-.09.197-.284.235-.45.018-.147-.16-.41-.309-.53-.257-.19-.524-.27-.903-.352-.092-.02-.205-.04-.325-.04-.125 0-.258.022-.384.09z"/>
        <path id="7nomajihbC" d="M0 .637c3.774-.413 7.907.04 12.025.88 4.137.873 8.308 2.274 12.395 4.023l3.051 1.396c.513.22 1.007.497 1.504.762l1.495.791c2.025.993 3.924 2.244 5.887 3.386.996.552 1.898 1.245 2.855 1.86l2.846 1.894c1.847 1.328 3.652 2.71 5.527 4.039l.115-.099c-1.71-1.483-3.463-2.944-5.222-4.404l-2.783-2.048-1.4-1.02c-.46-.349-.947-.663-1.438-.972-1.956-1.241-3.891-2.537-5.956-3.602l-1.529-.834c-.511-.275-1.018-.56-1.546-.79l-3.143-1.455c-.52-.26-1.059-.445-1.591-.651l-1.6-.61c-.534-.196-1.064-.424-1.599-.592l-1.61-.498-1.61-.486c-.534-.154-1.07-.26-1.606-.39L13.464.84c-.536-.132-1.061-.184-1.59-.278C9.738.205 7.616 0 5.589 0 3.61 0 1.724.195 0 .637z"/>
        <path id="d1s9ifplfE" d="M0 .637c3.774-.413 7.907.04 12.025.88 4.137.873 8.308 2.274 12.395 4.023l3.051 1.396c.513.22 1.007.497 1.504.762l1.495.791c2.025.993 3.924 2.244 5.887 3.386.996.552 1.898 1.245 2.855 1.86l2.846 1.894c1.847 1.328 3.652 2.71 5.527 4.039l.115-.099c-1.71-1.483-3.463-2.944-5.222-4.404l-2.783-2.048-1.4-1.02c-.46-.349-.947-.663-1.438-.972-.615-.39-1.228-.785-1.843-1.177l-.186-.12C33.547 9.015 32.25 8.22 30.9 7.524l-1.529-.834c-.511-.275-1.018-.56-1.546-.79l-3.143-1.455c-.52-.26-1.059-.445-1.591-.651l-1.6-.61c-.534-.196-1.064-.424-1.599-.592l-1.61-.498-1.61-.486c-.534-.154-1.07-.26-1.606-.39L13.464.84c-.536-.132-1.061-.184-1.59-.278C9.738.205 7.616 0 5.588 0 3.61 0 1.724.196 0 .637z"/>
        <path id="udy7mn5kpG" d="M0 .637c3.774-.413 7.907.04 12.025.88 4.137.873 8.308 2.274 12.395 4.023l3.051 1.396c.513.22 1.007.497 1.504.762l1.495.791c2.025.993 3.924 2.244 5.887 3.386.996.552 1.898 1.245 2.855 1.86l2.846 1.894c1.847 1.328 3.652 2.71 5.527 4.039l.115-.099c-1.71-1.483-3.463-2.944-5.222-4.404l-2.783-2.048-1.4-1.02c-.46-.349-.947-.663-1.438-.972-.615-.39-1.228-.785-1.843-1.177l-.186-.12C33.547 9.015 32.25 8.22 30.9 7.524l-1.529-.834c-.511-.275-1.018-.56-1.546-.79l-3.143-1.455c-.52-.26-1.059-.445-1.591-.651l-1.6-.61c-.534-.196-1.064-.424-1.599-.592l-1.61-.498-1.61-.486c-.534-.154-1.07-.26-1.606-.39L13.464.84c-.536-.132-1.061-.184-1.59-.278C9.738.205 7.616 0 5.588 0 3.61 0 1.724.196 0 .637z"/>
        <path id="x4ico7k4sI" d="M12.025 1.517c4.137.873 8.308 2.274 12.395 4.023l3.051 1.396c.513.22 1.007.497 1.504.762l1.495.791c2.025.993 3.924 2.244 5.887 3.386.996.552 1.898 1.245 2.855 1.86l2.846 1.894c1.847 1.328 3.652 2.71 5.527 4.039l.115-.099c-1.71-1.483-3.463-2.944-5.222-4.404l-2.783-2.048-1.4-1.02c-.46-.349-.947-.663-1.438-.972-1.956-1.241-3.891-2.537-5.956-3.602l-1.529-.834c-.511-.275-1.018-.56-1.546-.79l-3.143-1.455c-.52-.26-1.059-.445-1.591-.651l-1.6-.61c-.534-.196-1.064-.424-1.599-.592l-1.61-.498-1.61-.486c-.534-.154-1.07-.26-1.606-.39L13.464.84c-.536-.132-1.061-.184-1.59-.278C9.738.205 7.616 0 5.589 0 3.61 0 1.724.195 0 .637c3.774-.413 7.907.04 12.025.88z"/>
        <path id="xzw5p2vntL" d="M110.74 105.293L4.98 39.399c-6.112-3.808-6.698-12.276-1.204-17.388L23.845 3.339c4.027-3.747 10.08-4.42 14.551-1.616l105.65 66.232c6.115 3.834 6.662 12.335 1.12 17.425l-19.958 18.335c-4.022 3.694-10.022 4.348-14.469 1.578"/>
        <path id="xn6snesbgN" d="M23.877 41.212L2.419 27.795c-2.774-1.734-3.248-5.622-.974-7.986L19 1.56c1.672-1.738 4.313-2.063 6.348-.782l21.698 13.66c2.788 1.755 3.234 5.679.912 8.028L30.163 40.47c-1.672 1.692-4.275 1.998-6.286.74"/>
        <path id="t7v9vs2rxP" d="M.753 6.202c-1.621 3.873-.564 8.48 2.584 11.255 5.2 4.584 13.231 2.737 15.91-3.659 1.621-3.872.564-8.48-2.584-11.255C14.702.814 12.337 0 10.009 0 6.166 0 2.422 2.219.753 6.202z"/>
        <path id="ah93zsb2zR" d="M.495 4.837c-1.091 2.8-.338 6.08 1.863 8.12 3.94 3.654 10.195 2.215 12.147-2.794 1.091-2.8.338-6.08-1.863-8.121C11.145.653 9.311 0 7.507 0 4.567 0 1.705 1.733.495 4.837z"/>
        <path id="zq9ns948wT" d="M25.957.116l-3.11.41.711 8.598 3.11-.41c.777-.102 1.318-.694 1.26-1.382l-.512-6.19C27.365.52 26.85.101 26.177.101c-.071 0-.145.005-.22.014zM4.58 2.93c-.39.052-.673.176-.944.472L.395 6.957c-.54.592-.483 1.28.143 1.719L4.29 11.31c.314.221.612.269 1 .217l15.547-2.045-.71-8.598L4.58 2.93z"/>
        <path id="z1uodldnjV" d="M25.957.116l-3.11.41.711 8.598 3.11-.41c.777-.102 1.318-.694 1.26-1.382l-.512-6.19c-.028-.338-.192-.615-.444-.799l-.03-.022c-.208-.14-.471-.22-.764-.22-.072 0-.146.006-.221.015zM4.58 2.93c-.39.052-.673.176-.944.472L.395 6.957c-.54.592-.483 1.28.143 1.719L4.29 11.31c.314.221.612.269 1 .217l15.547-2.045-.71-8.598L4.58 2.93z"/>
        <path id="oh94vyfqjX" d="M25.957.116l-3.11.41.711 8.598 3.11-.41c.777-.102 1.318-.694 1.26-1.382l-.512-6.19c-.028-.338-.192-.615-.444-.799l-.03-.022c-.208-.14-.471-.22-.764-.22-.072 0-.146.006-.221.015zM4.58 2.93c-.39.052-.673.176-.944.472L.395 6.957c-.54.592-.483 1.28.143 1.719L4.29 11.31c.314.221.612.269 1 .217l15.547-2.045-.71-8.598L4.58 2.93z"/>
        <path id="1xg9t8wxvZ" d="M25.957.116l-3.11.41.711 8.598 3.11-.41c.777-.102 1.318-.694 1.26-1.382l-.512-6.19c-.028-.338-.192-.615-.444-.799l-.03-.022c-.208-.14-.471-.22-.764-.22-.072 0-.146.006-.221.015zM4.58 2.93c-.39.052-.673.176-.944.472L.395 6.957c-.54.592-.483 1.28.143 1.719L4.29 11.31c.314.221.612.269 1 .217l15.547-2.045-.71-8.598L4.58 2.93z"/>
        <path id="g0jqwxul8ab" d="M25.957.116l-3.11.41.711 8.598 3.11-.41c.777-.102 1.318-.694 1.26-1.382l-.512-6.19c-.027-.335-.19-.612-.439-.795L26.94.32c-.207-.14-.47-.218-.76-.218-.073 0-.147.005-.222.014zM4.58 2.93c-.386.051-.669.174-.937.466l-2.26 2.478-.989 1.084c-.54.592-.483 1.28.143 1.719L4.29 11.31c.314.221.612.269 1 .217l15.547-2.045-.71-8.598L4.58 2.93z"/>
        <path id="cpgp8gl3mad" d="M12.291.57L.467 13.204c-.326.348-.293.834.071 1.088l14.71 10.13c.369.24.92.16 1.242-.184l5.913-6.318 5.912-6.319c.328-.35.292-.837-.077-1.091L13.55.397c-.146-.1-.324-.15-.505-.15-.274 0-.557.112-.754.322zm.743 1.55l13.355 9.195-7.096 7.582-.381-5.458-8.145 1.664-.973-4.825-5.036.687 8.276-8.845z"/>
        <path id="drzb63fooaf" d="M12.291.57L.467 13.204c-.328.35-.292.838.076 1.091l14.688 10.115c.368.254.933.178 1.26-.172l11.824-12.637c.328-.35.292-.837-.077-1.091L13.55.397c-.146-.1-.324-.15-.505-.15-.274 0-.557.112-.754.322zm.743 1.55l13.355 9.195-7.096 7.582-.381-5.458-8.145 1.664-.973-4.825-5.036.687 8.276-8.845z"/>
        <path id="eq6u8t5dsah" d="M.808.784c-.77.57-.689 1.367.18 1.782.869.414 2.196.288 2.966-.282s.69-1.367-.18-1.781C3.428.338 3.011.259 2.584.259 1.938.259 1.272.44.808.784z"/>
        <path id="ritmcnk3qaj" d="M.808.784c-.77.57-.689 1.367.18 1.782.869.414 2.196.288 2.966-.282s.69-1.367-.18-1.781C3.428.338 3.011.259 2.584.259 1.938.259 1.272.44.808.784z"/>
        <linearGradient id="1a485m9udb" x1=".002%" x2="99.995%" y1="50.002%" y2="50.002%">
            <stop offset="0%" stop-color="#63B0FF" stop-opacity=".2"/>
            <stop offset="100%" stop-color="#A2B3F0" stop-opacity=".05"/>
        </linearGradient>
        <linearGradient id="pu0s56h8pf" x1="50.504%" x2="49.727%" y1="77.543%" y2="-2.014%">
            <stop offset="0%" stop-color="#CFDDF3"/>
            <stop offset="36%" stop-color="#CCDBF2"/>
            <stop offset="100%" stop-color="#A1B8E3"/>
        </linearGradient>
        <linearGradient id="ktjkh4b3gg" x1="61.024%" x2="19.225%" y1="117.164%" y2="-168.856%">
            <stop offset="0%" stop-color="#CFDDF3"/>
            <stop offset="6%" stop-color="#CCDBF2"/>
            <stop offset="18%" stop-color="#CFDDF3"/>
            <stop offset="100%" stop-color="#A1B8E3"/>
        </linearGradient>
        <linearGradient id="ubbe760mfh" x1="90.209%" x2="-20.769%" y1="102.307%" y2="-20.585%">
            <stop offset="0%" stop-color="#CFDDF3"/>
            <stop offset="36%" stop-color="#CCDBF2"/>
            <stop offset="100%" stop-color="#A1B8E3"/>
        </linearGradient>
        <linearGradient id="k0o3zfi1wi" x1="50.493%" x2="49.733%" y1="77.543%" y2="-2.014%">
            <stop offset="0%" stop-color="#CFDDF3"/>
            <stop offset="36%" stop-color="#CCDBF2"/>
            <stop offset="100%" stop-color="#A1B8E3"/>
        </linearGradient>
        <linearGradient id="xk6edcutyj" x1="69.187%" x2="11.597%" y1="23.935%" y2="96.976%">
            <stop offset="0%" stop-color="#3485F7"/>
            <stop offset="100%" stop-color="#1A57CF"/>
        </linearGradient>
        <linearGradient id="3zazyyntjk" x1="46.904%" x2="52.176%" y1=".893%" y2="95.939%">
            <stop offset="0%" stop-color="#84F0A8"/>
            <stop offset="100%" stop-color="#33A25D"/>
        </linearGradient>
        <linearGradient id="b3ij4n4h7l" x1="76.73%" x2="14.715%" y1="34.395%" y2="53.172%">
            <stop offset="0%" stop-color="#FFC56E"/>
            <stop offset="100%" stop-color="#FF8421"/>
        </linearGradient>
        <linearGradient id="7i7w2gam8m" x1="39.467%" x2="57.402%" y1="26.916%" y2="71.595%">
            <stop offset="0%" stop-color="#84F0A8"/>
            <stop offset="100%" stop-color="#33A25D"/>
        </linearGradient>
        <linearGradient id="gxwq6yhxgn" x1="48.426%" x2="-1.187%" y1="48.836%" y2="60.502%">
            <stop offset="0%" stop-color="#33A25D"/>
            <stop offset="100%" stop-color="#103B0F"/>
        </linearGradient>
        <linearGradient id="4wclji4fmal" x1="69.348%" x2="32.355%" y1="33.093%" y2="53.456%">
            <stop offset="0%" stop-color="#FF9D61"/>
            <stop offset="100%" stop-color="#FFD873"/>
        </linearGradient>
        <linearGradient id="v5jkcm1qcam" x1="64.174%" x2="40.821%" y1="31.327%" y2="54.731%">
            <stop offset="0%" stop-color="#FF9D61"/>
            <stop offset="100%" stop-color="#FFD873"/>
        </linearGradient>
        <linearGradient id="jmmizi3g3an" x1="50%" x2="-19.004%" y1="50%" y2="137.211%">
            <stop offset="0%" stop-color="#FF9D61"/>
            <stop offset="100%" stop-color="#FFD873"/>
        </linearGradient>
        <filter id="aj8k0sqwmK" width="108.1%" height="111.2%" x="-2.7%" y="-2.8%" filterUnits="objectBoundingBox">
            <feOffset dx="2" dy="3" in="SourceAlpha" result="shadowOffsetOuter1"/>
            <feGaussianBlur in="shadowOffsetOuter1" result="shadowBlurOuter1" stdDeviation="1.5"/>
            <feColorMatrix in="shadowBlurOuter1" values="0 0 0 0 0.733333333 0 0 0 0 0.866666667 0 0 0 0 0.952941176 0 0 0 1 0"/>
        </filter>
        <filter id="0t7snlyhhM" width="140.4%" height="147.6%" x="-18.2%" y="-19.1%" filterUnits="objectBoundingBox">
            <feOffset dx="1" dy="2" in="SourceAlpha" result="shadowOffsetOuter1"/>
            <feGaussianBlur in="shadowOffsetOuter1" result="shadowBlurOuter1" stdDeviation="3"/>
            <feColorMatrix in="shadowBlurOuter1" values="0 0 0 0 0.486294097 0 0 0 0 0.717411661 0 0 0 0 0.871490036 0 0 0 0.342165647 0"/>
        </filter>
        <filter id="k183ba0yoO" width="205%" height="205%" x="-52.5%" y="-52.5%" filterUnits="objectBoundingBox">
            <feOffset dy="2" in="SourceAlpha" result="shadowOffsetOuter1"/>
            <feGaussianBlur in="shadowOffsetOuter1" result="shadowBlurOuter1" stdDeviation="1.5"/>
            <feColorMatrix in="shadowBlurOuter1" result="shadowMatrixOuter1" values="0 0 0 0 0.705555586 0 0 0 0 0.776017025 0 0 0 0 0.856544384 0 0 0 1 0"/>
            <feMerge>
                <feMergeNode in="shadowMatrixOuter1"/>
                <feMergeNode in="SourceGraphic"/>
            </feMerge>
        </filter>
    </defs>
    <g fill="none" fill-rule="evenodd">
        <g>
            <mask id="svb7rv269c" fill="#fff">
                <use xlink:href="#6fi0hdfbla"/>
            </mask>
            <use fill="#E2E9F1" fill-rule="nonzero" xlink:href="#6fi0hdfbla"/>
            <path fill="url(#1a485m9udb)" fill-rule="nonzero" d="M43.757 8.033C33.73 22.523 45.486 46 30.605 56.89c-14.482 10.607-32.278-6.773-45.929 2.355-20.223 13.538-16.526 75.5 13.086 113.992 8.906 11.576 16.343 16.077 19.641 29.173 7.07 28.111-17.797 44.84-13.06 58.745 10.65 31.302 174.518 57.577 240.271-36.513 30.742-43.947 35.303-107.403 7.86-155.6C202.898-18.041 66.29-24.472 43.757 8.032z" mask="url(#svb7rv269c)"/>
            <g mask="url(#svb7rv269c)">
                <g transform="translate(-28 -10)">
                    <mask id="3hnqoe791e" fill="#fff">
                        <use xlink:href="#5tx0fd8yud"/>
                    </mask>
                    <g mask="url(#3hnqoe791e)" opacity=".403">
                        <g>
                            <path fill="url(#pu0s56h8pf)" d="M89 61.24V214c-17.308-32.156-30.247-66.452-38.479-101.99C35.722 47.95 41.128-2.296 59.571.08 71.844 1.702 81.86 29.541 89 61.241z" transform="translate(179 79)"/>
                            <path fill="url(#ktjkh4b3gg)" d="M89 189.866V231H71.965c-10.955-15.911-23.942-35.583-35.144-54.95-22.564-38.901-38.14-76.543-16.382-79.803 10.883-1.63 21.098 4.918 30.399 15.933C66.843 131.132 80.054 163.34 89 189.866z" transform="translate(179 79)"/>
                            <path stroke="#FFF" stroke-width=".949" d="M32 115c14.398 27.345 45.92 92.18 57 115M62 22c.475 17.679.971 57.266 27 156" transform="translate(179 79)"/>
                            <path fill="url(#ubbe760mfh)" d="M80 231H43.125c-21.049-13.627-44.81-32.775-43.03-49.217 1.618-15.035 17.613-16.689 35.912-5.587C51.439 185.54 68.52 203.95 80 231z" transform="translate(179 79)"/>
                            <path stroke="#FFF" stroke-width=".949" d="M15 183c13.792 6.948 39.222 33.169 53 48" transform="translate(179 79)"/>
                        </g>
                    </g>
                </g>
            </g>
            <g mask="url(#svb7rv269c)" opacity=".2">
                <g>
                    <path fill="url(#k0o3zfi1wi)" d="M125 86.995V304c-24.305-45.68-42.475-94.399-54.034-144.883C50.184 68.116 57.776-3.263 83.673.115c17.238 2.303 31.3 41.85 41.327 86.88z" transform="matrix(-1 0 0 1 112 403)"/>
                    <path stroke="#FFF" stroke-width=".949" d="M86 33c.686 24.932 1.403 80.76 39 220" transform="matrix(-1 0 0 1 112 403)"/>
                </g>
            </g>
            <g mask="url(#svb7rv269c)">
                <g>
                    <g>
                        <g fill-rule="nonzero">
                            <path fill="#FFB29C" d="M39.328 25.166c.733.27 19.203-1.819 19.203-1.819l-.647 15.474s-16.6 1.45-19.008-.234c-2.409-1.683-5.171-12.671-5.171-12.671l5.317-.27M99.335 25.068l15.964 29.595-3.41 13.175s-4.572.517-12.127-14.502" transform="scale(-1 1) rotate(-14 360.188 691.216) translate(21.394) translate(0 13.291)"/>
                            <path fill="#FFB29C" d="M39.022 23.986L13.719 7.235 8.866 10.664 38.876 38.526 41.601 25.228z" transform="scale(-1 1) rotate(-14 360.188 691.216) translate(21.394) translate(0 13.291)"/>
                            <path fill="#FFB29C" d="M10.969 12.593l-8.79-1.229s-1.124-1.229.893-1.45c1.359-.105 2.724-.105 4.083 0 0 0-7.677-3.122-7.127-4.044.55-.921 6.711 2.2 6.711 2.2S.36 2.343 1.141 1.495c.782-.848 7.248 4.916 7.248 4.916S4.245.573 5.248.021C6.25-.534 15.797 10.478 15.956 10.81c.159.332-4.987 1.782-4.987 1.782z" transform="scale(-1 1) rotate(-14 360.188 691.216) translate(21.394) translate(0 13.291)"/>
                            <path fill="url(#xk6edcutyj)" d="M75.12 18.148l11.477 2.581 10.5 2.09c.356.215.643.436.875.663 8.035 2.325 19.1 25.49 19.1 25.49-5.555 4.621-11.726 8.417-18.325 11.282-.12.662-.243 1.327-.366 1.992l-.33 1.758c-.587 2.814-1.1 5.653-1.662 8.493-.11.528-.233 1.167-.343 1.757-.39 1.72-.745 3.441-1.063 5.15-.11.553-.232 1.18-.33 1.782-.294 1.524-.562 3.036-.831 4.523L51.49 76.307c.464-1.598.929-3.27 1.393-4.917l.465-1.733c.44-1.573.892-3.207 1.332-4.817l.513-1.709c.783-2.802 1.553-5.592 2.347-8.345.171-.578.343-1.155.501-1.72.402-1.36.809-2.714 1.22-4.045-2.826.802-4.954 1.146-5.412.935-1.553-.713-3.472-5.051-3.997-7.374-1.54-6.393-2.178-12.971-1.895-19.542 2.654-.367 5.508-.857 8.387-1.348l1.33-.226c4.74-.803 9.474-1.557 13.42-1.715 1.106-.931 2.479-1.494 3.926-1.603v.074l.098-.074z" transform="scale(-1 1) rotate(-14 360.188 691.216) translate(21.394) translate(0 13.291)"/>
                            <path fill="#FFB29C" d="M111.754 67.875L149 52.672 146.69 48.26 114.651 54.639zM88.455 21.086c-.83 2.102-3.007 5.703-8.165 4.707-4.89-.959-4.633-4.388-3.728-6.895v-.356l11.893 2.544z" transform="scale(-1 1) rotate(-14 360.188 691.216) translate(21.394) translate(0 13.291)"/>
                        </g>
                        <g transform="scale(-1 1) rotate(-14 360.188 691.216) translate(21.394) translate(75.334)">
                            <path fill="#FFB29C" fill-rule="nonzero" d="M13.122 21.423L10.922 34.353 3.978 33.013 7.56 22.836"/>
                            <path fill="#FF8783" d="M6.607 24.938c-2.062 3.556-.481 5.838 4.742 6.846.22-1.34.465-3.024.746-5.064l-5.488-1.782z"/>
                            <ellipse cx="10.531" cy="22.019" fill="#FFB29C" fill-rule="nonzero" rx="7.615" ry="7.657" transform="rotate(-32.37 10.531 22.02)"/>
                            <path fill="#FFB29C" fill-rule="nonzero" d="M3.783 24.987L4.26 22.025 3.184 21.423 0.702 24.397z"/>
                            <path fill="#203966" fill-rule="nonzero" d="M18.745 14.282c-1.051.517-2.103.971-3.154 1.488-1.601.848-3.203 1.683-4.89 2.384.233.897-.33 1.966.172 2.544.58.556 1.38.818 2.175.713v.196c-.195 2.028-.672 6.945-.61 6.945 1.966-.175 3.756-1.214 4.889-2.84 1.547-2.582 2.856-5.301 3.911-8.124 0 0 .44-1.966-2.493-3.306z"/>
                            <path fill="#FFB29C" fill-rule="nonzero" d="M13.427 21.988c.074 0 2.176-1.843 2.445 1.094.244 1.139-.096 2.325-.904 3.159-.723.691-1.857.691-2.58 0"/>
                            <path fill="#203966" fill-rule="nonzero" d="M20.688 15.106c-3.108-1.753-6.433-3.083-9.889-3.958-1.577-.467-3.374-.81-4.767.123-.746.558-1.332 1.304-1.7 2.163-.525.967-.787 2.057-.757 3.159.031 1.098.667 2.088 1.65 2.569-.113-.991.208-1.983.88-2.717.363 1.515 1.033 2.937 1.968 4.18.161.273.434.462.746.515.575 0 .66-.934.562-1.548 3.137 2.132 7.18 2.377 10.55.639l.757-5.125z"/>
                            <path fill="#203966" fill-rule="nonzero" d="M19.16 13.742c-1.686-2.982-1.858-6.592-.464-9.722 1.491-2.987 5.06-4.806 8.019-3.687 1.034.437 1.966 1.086 2.738 1.905 2.608 2.66 4.123 6.21 4.242 9.943.12 1.123-.106 2.255-.648 3.244-1.026 1.26-2.538 2.02-4.156 2.09-1.959.417-3.983.417-5.941 0-2.167-.429-4.02-1.827-5.036-3.798"/>
                        </g>
                    </g>
                    <g fill-rule="nonzero">
                        <path fill="url(#3zazyyntjk)" d="M126.107 122.147c-.93.91-1.87 1.794-2.824 2.678-8.335-7.923-19.85-19.815-27.073-31.044-12.333-19.176-27.073-79.704-27.073-79.704S109.34-1.93 112.568 5.98c-3.483 51.34 11.424 88.23 22.193 107.714-2.91 2.715-5.733 5.627-8.654 8.452z" transform="scale(-1 1) rotate(-14 360.188 691.216) translate(0 86.11)"/>
                        <path fill="#FFB29C" d="M29.388 67.774L39.02 87.43 33.556 92.737 21.285 73.683z" transform="scale(-1 1) rotate(-14 360.188 691.216) translate(0 86.11)"/>
                        <g>
                            <path fill="url(#b3ij4n4h7l)" d="M115.522 24.802c-2.848 14.533-21.72 16.584-34.761 15.97l-57.068-4.46L36.563 74.2c-1.699.627-3.398 1.229-5.072 1.954-3.26 1.302-6.495 2.674-9.705 4.115C10.492 65.895-5.886 40.403 2.132 21.608 14.025-6.01 97.922.723 97.922.723l5.108.418 2.64.196 10.769.873s1.919 8.07-.917 22.592z" transform="scale(-1 1) rotate(-14 360.188 691.216) translate(0 86.11)"/>
                            <path fill="url(#7i7w2gam8m)" d="M115.522 24.802c-2.848 14.533-21.72 16.584-34.761 15.97l-57.068-4.46L36.563 74.2c-1.699.627-3.398 1.229-5.072 1.954-3.26 1.302-6.495 2.674-9.705 4.115C10.492 65.895-5.886 40.403 2.132 21.608 14.025-6.01 97.922.723 97.922.723l5.108.418 2.64.196 10.769.873s1.919 8.07-.917 22.592z" transform="scale(-1 1) rotate(-14 360.188 691.216) translate(0 86.11)"/>
                        </g>
                        <path fill="url(#gxwq6yhxgn)" d="M40.548 87.393l-9.4 4.644c-.916.86-10.157 9.472-9.851 11.204.306 1.732 23.052-9.435 23.052-9.435l-3.801-6.413z" transform="scale(-1 1) rotate(-14 360.188 691.216) translate(0 86.11)"/>
                        <path fill="#74E199" d="M36.893 82.934L31.014 88.978 32.921 91.84 39.448 88.044 37.724 84.666z" transform="scale(-1 1) rotate(-14 360.188 691.216) translate(0 86.11)"/>
                    </g>
                </g>
            </g>
            <g mask="url(#svb7rv269c)">
                <g>
                    <g fill="#FFF">
                        <path d="M29.343 49.943L3.181 33.781c-3.383-2.09-3.96-6.772-1.187-9.62L23.397 2.177c2.038-2.092 5.259-2.484 7.74-.941l26.455 16.455c3.398 2.114 3.942 6.841 1.111 9.67l-21.696 21.69c-2.039 2.037-5.212 2.406-7.664.891" transform="translate(170 228)"/>
                    </g>
                    <g>
                        <path fill="#B0D4EB" d="M.516 20.827l1.469-1.434L4.7 20.397c.972.359 2.128.15 2.802-.508L19.572 8.1l-3.236-2.075c-.781-.501-1.882-.553-2.727-.126l-1.694.854-1.818-1.166 4.405-4.303 18.18 11.663-4.404 4.302-1.82-1.166.706-1.488c.352-.744.06-1.585-.72-2.086l-3.236-2.076-12.07 11.787c-.674.658-.693 1.596-.048 2.275l1.803 1.894-1.47 1.435L.517 20.827z" transform="translate(170 228) translate(13 10)"/>
                        <g transform="translate(170 228) translate(13 10) translate(0 .658)">
                            <mask id="lrzr01m9up" fill="#fff">
                                <use xlink:href="#ymvtl8fi0o"/>
                            </mask>
                            <path fill="#B0D4EB" d="M-4.804 16.756L17.08 30.795 34.703 13.586 12.818 -0.453z" mask="url(#lrzr01m9up)"/>
                        </g>
                        <g transform="translate(170 228) translate(13 10) translate(0 .658)">
                            <mask id="0v290d1h8r" fill="#fff">
                                <use xlink:href="#lpxz6kceeq"/>
                            </mask>
                            <path fill="#B0D4EB" d="M-11 18.722L15.935 36 40.899 11.621 13.965 -5.657z" mask="url(#0v290d1h8r)"/>
                        </g>
                        <g transform="translate(170 228) translate(13 10) translate(0 .658)">
                            <mask id="e5w2wpbpmt" fill="#fff">
                                <use xlink:href="#jsbxujthjs"/>
                            </mask>
                            <path fill="#B0D4EB" d="M-3.12 17.836L15.398 29.714 33.02 12.505 14.502 0.627z" mask="url(#e5w2wpbpmt)"/>
                        </g>
                        <g transform="translate(170 228) translate(13 10) translate(0 .658)">
                            <mask id="t5lokrhaqv" fill="#fff">
                                <use xlink:href="#40gyrocqku"/>
                            </mask>
                            <path fill="#B0D4EB" d="M-11 18.722L15.598 35.784 40.563 11.405 13.965 -5.657z" mask="url(#t5lokrhaqv)"/>
                        </g>
                    </g>
                </g>
            </g>
            <g mask="url(#svb7rv269c)">
                <g>
                    <g transform="translate(184 -27)">
                        <mask id="295t68a8ex" fill="#fff">
                            <use xlink:href="#fv7ywbmzjw"/>
                        </mask>
                        <path fill="#273D57" d="M-28.618 42.151L39.894 85.494 99.789 28.13 31.277 -15.213z" mask="url(#295t68a8ex)"/>
                    </g>
                    <g stroke="#FFF" stroke-width="10.603">
                        <path d="M78.108 28.937L34.026.435c-1.106-.716-2.786-.53-3.755.419L2.243 28.289c-.968.948-.854 2.295.252 3.01l8.015 5.182L0 46.77l26.54.077 20.038 12.956c1.106.715 2.786.528 3.755-.42l28.028-27.434c.968-.949.853-2.296-.253-3.01" transform="translate(184 -27) translate(.923 .229)"/>
                    </g>
                    <path fill="#FFF" d="M39.718 23.405L46.127 25.139 32 38.855 35.345 41 53 23.858 52.572 23.583 42.194 21z" transform="translate(184 -27)"/>
                </g>
            </g>
            <g mask="url(#svb7rv269c)">
                <g>
                    <g>
                        <path fill="#FFF" d="M66.213 77.666L5.063 38.821c-5.9-3.747-6.805-11.983-1.86-16.917l18.74-18.708c3.637-3.631 9.318-4.239 13.643-1.46l60.58 38.925c5.81 3.733 6.735 11.842 1.915 16.784l-18.17 18.628c-3.612 3.703-9.33 4.368-13.698 1.593" transform="translate(.228 -28.6)"/>
                        <path stroke="#FFF" stroke-width=".5" d="M66.213 77.666L5.063 38.821c-5.9-3.747-6.805-11.983-1.86-16.917l18.74-18.708c3.637-3.631 9.318-4.239 13.643-1.46l60.58 38.925c5.81 3.733 6.735 11.842 1.915 16.784l-18.17 18.628c-3.612 3.703-9.33 4.368-13.698 1.593z" transform="translate(.228 -28.6)"/>
                        <path fill="#273D57" d="M26.576 24.92c.034-.01.15-.049.24-.032.044.022.144.072.15.145-.001.055-.107.127-.112.138l-.263.132c-.484.103-.695.275-.958.463-.546.336-.603.807-.589 1.246.016.383.23.866.247.916.188.401.475.685.968 1.114.36.334.854.625 1.026.782.354.317 2.189 1.645 3.104 2.065.666.308 1.338.494 1.433.528.655.302 1.905.557 2.966.744 1.454.262 2.544.422 4.084.434.338.018.677.063.956-.019.968-.29 2.78-.21 3.13-.38.831-.43 1.305-.623 1.307-1.122-.003-.683-.513-1.051-1.205-1.664-.343-.313-1.229-1.315-1.76-1.805-.5-.447-1.065-.788-1.448-1.106-.547-.484-1.012-.942-1.25-1.186-.52-.513-1.08-.948-1.18-1.387-.103-.4-.357-.64-.202-1.006.265-.604.654-.74.955-.867.507-.258 1.32-.461 2.332-.562.385-.043.64-.08 1.084-.08.768-.056 1.668.008 2.519.062.867.047 1.406.11 1.883.213.411.068.784.186 1.3.321 1.005.27 1.871.54 2.449.804.554.252 1.215.515 1.62.9.121.116.148.284.198.49.065.2.148.45-.02.615-.195.221-.134.321-.563.397-.139.055-.518.198-.768.142-.21-.051-.856.012-1.167-.172-.416-.251-.508-.785-.44-.945.016-.033-.2-.184-.393-.434-.188-.235-1.708-.945-2.892-1.194-.617-.047-1.754-.607-2.322-.56-.577.071-1.617-.05-2.15.042-.913.179-1.232.477-1.427.754-.201.26-.081.821.006 1.06.198.545 1.234 1.415 1.628 1.85.193.222.713.901 1.52 1.642.483.452.698.825 1.136 1.254.592.59.58.863 1.117 1.508.364.463.546 1.068.666 1.713.114.543-.206 1.369-.613 1.623-.441.292-.78.524-1.538.699-.228.065-.322.031-.567.047-.172.01-.473.109-.667.136-1.291.156-2.931.177-4.325.043-1.523-.128-2.757-.444-4.067-.826-.644-.186-1.538-.484-1.97-.647-.79-.286-1.572-.75-2.226-1.052-.777-.364-1.376-.722-1.62-.956-.304-.278-1.578-1.449-1.971-1.828-.63-.652-1.04-1.275-1.095-1.442-.021-.177-.85-1.374-.653-2.067.113-.388.309-.665.576-.891.212-.171.53-.303.853-.446.29-.132.607-.209.968-.346m23.516 10.19c-.535.258-1.07.6-1.472.926-.395.314-.641.608-.637.79-.012.134.011.2.1.245.244.123.871.286 1.188.32.36.03.86.06 1.445.063.334.002.706-.02 1.095-.046.35-.032.823-.058 1.296-.055.478-.01.912-.014 1.09-.035.072-.005.293.051.439.124.082.055.093.144.082.167-.005.038.005.266-.168.304-.123.022-.194 0-.25 0-.268.003-.667-.087-.839-.077-.645.01-1.033-.076-1.847.071-.562.092-1.606.176-2.113.241-1.029.135-1.686.332-2.153.347-.173.01-.572.03-.667.024-.138 0-.6-.108-.805-.447-.06-.127-.26-.256-.313-.506-.039-.2.034-.483.096-.688.097-.327.667-1.096 1.23-1.522.451-.341 1.25-.927 1.61-1.091.235-.105.892-.44 1.07-.711.141-.222.78-.441.987-.518.106-.045.762-.186 1.013-.213.367-.037.543.19.7.242.466.151.585.74.379.956-.162.155-.517.225-.847.324-.2.065-.484.187-.773.319-.363.164-.719.346-.936.445m4.015-3.008c-.194-.112-.315-.423-.254-.545.073-.143.163-.266.236-.354.268-.393.686-.668 1.098-.823.456-.158.89-.218 1.14-.216.139.028.35.079.517.19.31.184.62.508.619.813-.012.216-.435.559-.553.625-.273.155-.412.21-.518.253-.362.137-.79.24-1.352.278-.128.004-.694-.086-.933-.221m8.589 6c.022.094.032.238.075.4.05.15.005.265-.133.293-.057 0-.163.292-.391.359-.334.082-.914.234-1.012.102-.045-.051-.311-.102-.412-.291-.076-.15-.026-.222-.064-.311-.06-.211-.077-.4-.571-.441-.256-.017-.65-.008-1.073.029-.757.064-1.641.187-2.17.324-.367.092-.695.191-.996.29-.763.241-1.31.494-1.659.72-.262.16-.413.32-.492.476-.095.188.1.05.355.123.206.062.417.085 1.406.028.534-.036 1.353-.084 2.225-.157.55-.042 1.123-.101 1.663-.149l1.413-.15.156-.032c.373-.048.706-.075.917-.052.017-.006.044-.006.066.006.179-.022.374.035.584.224.137.14.371.174.415.363.055.277.141.655-.136.903-.214.172-.597.27-.976.44-.429.188-1.004.884-1.494 1.22-.43.3-1.217 1.028-2.148 1.574l-1.594 1.03c-.496.32-1.264.712-2.006 1.019-1.074.445-1.993.94-2.885 1.27-.278.11-1.334.328-2.236.402-.567.047-1.206.128-1.84.143-1.173.061-1.835-.063-3.595-.742-.743-.292-1.658-.934-2.428-1.808-.493-.54-.862-1.13-1.076-1.752-.214-.623-.284-1.284-.164-1.96.114-.694.443-1.237.69-1.53.184-.226 1.008-.672 1.744-.941.517-.197.445-.165.784-.23.29-.077.512-.047.756-.064.223.001.218.067 0 .167-.112.055-.284.149-.462.198-.39.11-.495.07-1.036.395-.992.696-1.624 1.614-1.688 2.152-.062.427.03.933.262 1.438.203.423.492.847.872 1.22.555.557 1.225 1.02 2.246 1.424.76.286 1.477.41 2.1.447 1.312.077 2.258-.224 2.542-.234.322-.032 1.664-.37 2.426-.611.813-.286 1.995-.914 2.752-1.255 1.075-.528 1.693-.842 2.904-1.719.55-.43.696-.525.875-.657.25-.193.496-.403.692-.652.279-.36.369-.537.324-.587-.137-.167-.365-.24-.71-.247-.41-.012-.917-.004-1.456.016-.385.015-.802.042-1.18.1-.757.12-1.546.332-2.153.402-.784.092-1.113.246-1.385.233-.361-.029-1.076-.57-1.22-.864-.115-.323-.007-.921.11-1.099.219-.349.61-.624 1.122-.894.34-.176.735-.353 1.18-.545.635-.291 1.348-.543 2.077-.746.552-.154 1.097-.268 1.642-.355.528-.08 1.085-.133 1.634-.148.669-.025 1.318.011 1.868.108.373.062.695.169.938.292.328.178.895.408 1.026.892m9.954 6.521c-.334.165-.914.678-1.412 1.193-.374.409-.596.602-.76.84-.168.25-.457.52-.518.642-.175.343-.253.581-.237.77.02.233.208.384.537.424.694.086 1.446.09 1.868.025 1.369-.2 2.136-.23 2.648-.417.139-.027.673.075.76.203.017.05-.096.355-.229.343-.344.049-.494.014-.973.052l-2.047.302c-1.018.168-2.12.335-2.904.427-.74.085-.867.09-1.427-.15-.616-.27-.613-1.13-.177-1.882.14-.222.398-.648.66-1.002.258-.4.828-1.056 1.191-1.5.251-.33.24-.337.291-.436.129-.228.069-.439-.186-.512-.218-.067-.874.019-1.024.04-.63.086-.845.103-1.508.227-.54.104-1.118.312-1.553.426-.411.099-1.408.444-1.692.593-.534.287-.507.26-.841.424-.346.159-.841.368-1.042.406-.262.05-.617.065-.838-.186-.25-.278-.363-.851-.173-1.144.247-.404.67-.635.97-.9.168-.139.72-.542 1.25-.789.294-.144 1.248-.65 1.726-.936.274-.182.948-.58.97-.596.284-.149.48-.37.787-.508.244-.126.516-.086.706-.046.377.079.643.158.9.342.149.117.325.373.307.518-.039.16-.134.348-.234.436-.14.111-.268.283-.547.393-.106.043-.54.075-.657.113-.4.16-.812.313-1.157.473-.072.033-.509.342-.592.536-.029.055.033.1.077.122.15.062 1.68-.237 1.903-.264.801-.124 1.368-.227 2.08-.37.374-.076.835-.19 1.174-.255.296-.06.668-.108.88-.168.31-.065.794.026.988.054.279.056.56.324.682.69.055.167.076.345-.041.494-.173.26-.42.47-.586.553" transform="translate(.228 -28.6)"/>
                    </g>
                    <g>
                        <g transform="translate(.228 -28.6) translate(23.473 21.664)">
                            <mask id="yg2lgagv9z" fill="#fff">
                                <use xlink:href="#vs19daoigy"/>
                            </mask>
                            <path fill="#273D57" d="M2.915 -19.244L66.727 13.679 48.932 49.659 -14.881 16.736z" mask="url(#yg2lgagv9z)"/>
                        </g>
                        <g transform="translate(.228 -28.6) translate(23.473 21.664)">
                            <mask id="86ucn9ub8B" fill="#fff">
                                <use xlink:href="#lqtcdie5uA"/>
                            </mask>
                            <path stroke="#273D57" stroke-width=".75" d="M2.915 -19.244L66.727 13.679 48.932 49.659 -14.881 16.736z" mask="url(#86ucn9ub8B)"/>
                        </g>
                    </g>
                    <g fill="#273D57" stroke="#273D57">
                        <path stroke-width=".75" d="M4.376 2.564c.033-.011.149-.05.237-.032.044.022.143.072.148.146 0 .056-.105.129-.11.14l-.26.134c-.478.105-.687.279-.946.468-.54.341-.597.818-.583 1.263.016.388.228.878.244.929.186.406.47.693.957 1.128.356.339.844.634 1.013.792.35.321 2.164 1.667 3.068 2.093.658.312 1.322.5 1.416.535.647.306 1.883.563 2.931.753 1.438.265 2.515.428 4.036.44.335.018.67.064.945-.019.957-.294 2.748-.214 3.094-.386.821-.435 1.289-.63 1.29-1.136-.002-.692-.506-1.065-1.19-1.686-.34-.317-1.214-1.333-1.74-1.83-.493-.451-1.052-.797-1.43-1.12-.54-.49-1-.953-1.236-1.201-.514-.52-1.067-.96-1.165-1.406-.103-.405-.354-.647-.2-1.018.262-.612.646-.751.943-.879.502-.262 1.305-.467 2.305-.57.38-.042.632-.081 1.071-.08.76-.057 1.65.008 2.49.062.857.048 1.39.113 1.861.216.406.069.774.189 1.284.326.994.274 1.85.547 2.42.814.548.255 1.201.522 1.6.912.121.118.148.287.197.496.065.202.146.455-.02.623-.193.225-.132.326-.556.403-.137.056-.511.2-.759.143-.208-.051-.846.013-1.153-.174-.411-.254-.502-.795-.435-.957.016-.034-.198-.187-.388-.44-.187-.238-1.689-.957-2.859-1.21-.609-.047-1.733-.615-2.294-.567-.57.072-1.598-.05-2.126.043-.901.181-1.216.483-1.409.764-.199.264-.08.832.006 1.074.196.552 1.22 1.433 1.609 1.873.19.226.704.914 1.503 1.665.477.458.689.835 1.122 1.27.585.599.572.874 1.103 1.528.36.469.54 1.082.658 1.735.114.551-.203 1.387-.606 1.644-.435.297-.77.532-1.519.709-.226.066-.318.032-.56.047-.17.012-.468.111-.66.139-1.275.157-2.896.178-4.274.043-1.505-.13-2.725-.45-4.019-.837-.636-.188-1.52-.49-1.947-.655-.78-.29-1.553-.76-2.2-1.067-.768-.368-1.359-.731-1.6-.968-.3-.282-1.56-1.468-1.949-1.852-.622-.66-1.027-1.291-1.081-1.46-.021-.18-.841-1.393-.646-2.095.112-.394.305-.674.57-.903.209-.173.523-.307.842-.452.287-.134.6-.211.957-.35zm23.239 10.323c-.528.263-1.058.609-1.454.939-.391.318-.634.616-.63.8-.011.136.011.204.099.249.24.124.86.29 1.174.325.356.03.85.06 1.428.062.33.002.698-.019 1.082-.046.347-.032.814-.059 1.28-.056.473-.009.902-.014 1.077-.035.072-.005.291.052.435.125.081.057.092.147.081.17-.005.039.004.269-.166.308-.121.022-.192 0-.248 0-.264.003-.658-.088-.828-.078-.638.01-1.022-.077-1.825.072-.556.093-1.588.178-2.088.244-1.017.136-1.667.336-2.128.351-.17.01-.566.031-.66.025-.136-.001-.593-.11-.795-.453-.06-.13-.257-.26-.31-.513-.038-.203.034-.49.096-.697.095-.331.658-1.11 1.215-1.541.446-.347 1.234-.94 1.592-1.107.231-.106.88-.445 1.057-.72.139-.225.77-.447.975-.525.104-.045.753-.188 1-.215.363-.038.538.193.692.245.462.153.579.75.375.969-.16.156-.51.228-.837.327-.197.067-.478.19-.764.324-.358.166-.71.35-.925.451zm3.968-3.048c-.192-.113-.311-.428-.251-.551.072-.146.161-.27.233-.36.266-.398.679-.677 1.085-.833.451-.16.88-.221 1.127-.22.137.03.347.08.51.194.307.186.614.514.613.823-.012.219-.43.566-.547.633-.27.157-.407.212-.512.256-.357.14-.781.244-1.335.282-.127.005-.687-.087-.923-.224zm8.488 6.078c.022.096.031.243.075.406.05.152.004.27-.133.297-.055 0-.16.297-.386.364-.33.083-.902.237-1 .103-.044-.052-.307-.103-.406-.295-.076-.152-.027-.224-.064-.315-.06-.213-.076-.405-.565-.446-.253-.018-.642-.009-1.06.029-.748.065-1.622.19-2.144.328-.363.094-.687.194-.984.295-.754.244-1.294.5-1.64.73-.26.16-.408.323-.486.48-.095.192.099.052.351.125.203.063.411.087 1.39.029.527-.037 1.336-.085 2.198-.16.544-.042 1.11-.102 1.644-.15l1.396-.152.153-.033c.37-.049.699-.075.907-.052.017-.006.044-.006.065.006.177-.022.37.035.577.227.136.142.368.176.41.367.055.281.14.664-.134.916-.21.174-.59.273-.964.445-.424.19-.993.896-1.477 1.237-.425.303-1.202 1.041-2.122 1.594l-1.576 1.044c-.49.325-1.25.72-1.982 1.032-1.061.451-1.97.953-2.851 1.288-.275.11-1.319.331-2.21.406-.56.048-1.192.13-1.819.144-1.159.063-1.813-.063-3.552-.751-.734-.296-1.639-.946-2.4-1.832-.486-.547-.852-1.145-1.063-1.775-.212-.631-.28-1.3-.162-1.986.112-.703.438-1.252.682-1.55.182-.228.996-.68 1.724-.953.51-.2.439-.167.775-.233.286-.078.505-.048.747-.065.22.001.215.068 0 .169-.111.056-.281.15-.457.2-.385.112-.49.071-1.024.401-.98.705-1.605 1.635-1.668 2.18-.062.433.03.945.259 1.457.2.429.486.858.862 1.236.548.564 1.21 1.034 2.22 1.443.75.29 1.46.416 2.075.453 1.296.078 2.23-.227 2.512-.238.318-.032 1.644-.374 2.397-.619.804-.289 1.971-.925 2.72-1.27 1.062-.536 1.673-.853 2.87-1.742.544-.437.688-.532.864-.666.248-.195.49-.408.684-.66.275-.364.365-.545.32-.596-.135-.168-.36-.243-.702-.25-.405-.012-.906-.004-1.439.016-.38.016-.792.043-1.165.103-.748.12-1.528.336-2.128.407-.775.093-1.1.248-1.369.236-.357-.03-1.063-.578-1.205-.876-.114-.327-.007-.933.11-1.113.214-.354.6-.633 1.107-.906.336-.179.726-.358 1.166-.552.628-.296 1.332-.55 2.052-.756.546-.156 1.085-.272 1.623-.36.522-.081 1.073-.135 1.616-.15.66-.025 1.302.012 1.846.11.368.063.686.17.927.296.324.18.883.413 1.013.903zm9.837 6.607c-.33.168-.904.687-1.395 1.208-.37.415-.59.611-.75.852-.167.253-.453.526-.514.65-.172.348-.25.59-.234.78.021.237.206.39.531.43.686.087 1.429.09 1.846.025 1.353-.203 2.11-.233 2.617-.422.137-.028.665.076.752.205.016.051-.095.36-.227.348-.34.05-.489.014-.962.052l-2.023.307c-1.005.17-2.094.339-2.87.432-.73.086-.856.092-1.41-.152-.609-.273-.605-1.144-.174-1.907.137-.224.393-.656.652-1.015.255-.404.817-1.07 1.177-1.519.248-.336.237-.342.288-.443.126-.23.067-.444-.185-.518-.215-.068-.863.02-1.012.04-.621.088-.835.104-1.49.23-.533.106-1.105.317-1.534.433-.407.1-1.392.45-1.673.6-.528.29-.5.263-.831.43-.341.16-.83.372-1.03.411-.258.05-.61.065-.828-.189-.246-.282-.359-.862-.17-1.158.243-.41.66-.644.959-.913.165-.14.71-.548 1.233-.799.292-.145 1.234-.658 1.707-.948.27-.185.937-.587.96-.604.28-.15.473-.375.776-.515.241-.128.51-.087.697-.047.373.08.637.16.89.347.147.119.322.378.304.525-.039.162-.132.353-.231.442-.139.112-.265.286-.541.398-.105.044-.533.076-.65.115-.395.161-.802.317-1.143.479-.071.033-.502.346-.585.542-.028.057.033.102.076.125.148.062 1.66-.24 1.88-.268.792-.126 1.353-.23 2.056-.374.37-.078.825-.193 1.161-.26.292-.06.66-.109.869-.17.307-.066.785.026.977.055.275.057.553.329.673.7.055.168.076.349-.04.5-.171.263-.414.476-.579.56z" transform="translate(.228 -28.6) translate(22.285 21.663)"/>
                        <path d="M11.559 15.24c.514.096 1.026.147 1.548.28l1.56.379c.521.132 1.043.238 1.564.394l1.566.49 1.568.503c.521.17 1.037.4 1.557.597l1.557.615c.519.208 1.043.394 1.548.656l3.061 1.469c.514.23 1.007.52 1.505.797l1.489.84c2.01 1.076 3.892 2.383 5.797 3.636.477.31.953.627 1.4.979l1.362 1.029 2.71 2.065c1.712 1.473 3.418 2.948 5.083 4.444l-.112.1c-1.826-1.342-3.583-2.735-5.381-4.074l-2.77-1.912c-.93-.62-1.81-1.318-2.78-1.875-1.91-1.152-3.759-2.414-5.73-3.415l-1.455-.8c-.484-.267-.965-.547-1.464-.767l-2.97-1.41c-3.978-1.764-8.04-3.177-12.066-4.057-4.01-.849-8.033-1.306-11.706-.888 3.398-.902 7.451-.787 11.559-.075z" transform="translate(.228 -28.6) translate(22.285 21.663)"/>
                    </g>
                    <g transform="translate(.228 -28.6) translate(22.298 36.511)">
                        <mask id="hd4wh08puD" fill="#fff">
                            <use xlink:href="#7nomajihbC"/>
                        </mask>
                        <path fill="#B0D4EB" d="M0 0.637L43.757 28.486 49.739 19.32 5.982 -8.53z" mask="url(#hd4wh08puD)"/>
                    </g>
                    <g>
                        <g transform="translate(.228 -28.6) translate(22.298 36.511)">
                            <mask id="d9r41gjh6F" fill="#fff">
                                <use xlink:href="#d1s9ifplfE"/>
                            </mask>
                            <path fill="#273D57" d="M-10.902 2.965L44.788 38.409 59.315 16.148 3.625 -19.297z" mask="url(#d9r41gjh6F)"/>
                        </g>
                        <g transform="translate(.228 -28.6) translate(22.298 36.511)">
                            <mask id="k825mssj9H" fill="#fff">
                                <use xlink:href="#udy7mn5kpG"/>
                            </mask>
                            <path stroke="#273D57" stroke-width=".75" d="M-10.902 2.965L44.788 38.409 59.315 16.148 3.625 -19.297z" mask="url(#k825mssj9H)"/>
                        </g>
                    </g>
                    <g transform="translate(.228 -28.6) translate(22.298 36.511)">
                        <mask id="s1cvxnfqaJ" fill="#fff">
                            <use xlink:href="#x4ico7k4sI"/>
                        </mask>
                        <path stroke="#273D57" stroke-width=".75" d="M0 0.637L43.757 28.486 49.739 19.32 5.982 -8.53z" mask="url(#s1cvxnfqaJ)"/>
                    </g>
                    <path fill="#273D57" stroke="#273D57" stroke-width=".75" d="M33.72 37.172c.533.096 1.061.148 1.601.283l1.613.38c.539.134 1.078.241 1.616.398l1.62.494 1.62.507c.54.172 1.072.403 1.61.603l1.61.619c.536.21 1.077.397 1.6.662l3.164 1.48c.531.233 1.041.523 1.556.804l1.538.847c2.078 1.084 4.024 2.402 5.993 3.664.494.313.985.633 1.448.987l1.408 1.037 2.8 2.083c1.77 1.485 3.534 2.971 5.255 4.479l-.115.1c-1.888-1.352-3.704-2.756-5.563-4.105l-2.863-1.928c-.962-.626-1.871-1.329-2.873-1.89-1.975-1.162-3.887-2.434-5.924-3.443l-1.504-.806c-.5-.27-.998-.552-1.514-.774l-3.07-1.42c-4.112-1.779-8.311-3.203-12.473-4.091-4.144-.855-8.304-1.316-12.1-.895 3.512-.909 7.702-.793 11.948-.075z" transform="translate(.228 -28.6)"/>
                </g>
            </g>
            <g mask="url(#svb7rv269c)">
                <g>
                    <g>
                        <g transform="translate(131 106)">
                            <use fill="#000" filter="url(#aj8k0sqwmK)" xlink:href="#xzw5p2vntL"/>
                            <use fill="#FFF" xlink:href="#xzw5p2vntL"/>
                        </g>
                        <path fill="#E8EFF7" d="M114.258 73.74l-79.98-49.462c-1.49-.921-1.956-2.882-1.038-4.38l.394-.642c.917-1.497 2.868-1.963 4.359-1.042l79.98 49.463c1.49.92 1.954 2.882 1.037 4.378l-.393.644c-.918 1.496-2.87 1.963-4.36 1.041" transform="translate(131 106)"/>
                        <path fill="#263C57" d="M90.709 48.531L41.889 18.34c-1.104-.682-1.448-2.133-.769-3.242l.559-.911c.679-1.109 2.124-1.454 3.227-.772l48.82 30.192c1.103.682 1.447 2.134.768 3.242l-.559.912c-.679 1.108-2.123 1.453-3.226.771" transform="translate(131 106)"/>
                        <path fill="#AEC3D9" d="M25.23 34.774c.471-.71.81-1.324 1.016-1.844.205-.519.124-.902-.244-1.15-.25-.167-.522-.164-.815.007-.294.17-.565.413-.814.725s-.522.693-.819 1.14c-.504.76-.849 1.383-1.035 1.868-.186.485-.095.852.274 1.099.372.249.745.194 1.12-.165.374-.36.813-.92 1.318-1.68m2.274 1.524c-.46.694-.947 1.249-1.46 1.662-.514.414-1.026.691-1.537.831-.511.14-1.008.166-1.489.081-.48-.085-.933-.27-1.355-.552-.419-.28-.76-.627-1.023-1.04-.264-.414-.429-.885-.494-1.414-.065-.528-.009-1.109.17-1.741.178-.633.5-1.298.963-1.997.465-.701.954-1.257 1.467-1.666.512-.409 1.024-.687 1.536-.835.51-.148 1.008-.179 1.491-.092.483.087.934.27 1.353.55.422.283.765.63 1.028 1.04.263.41.427.884.492 1.42.066.537.007 1.123-.176 1.758-.183.636-.505 1.3-.966 1.995M100.62 84.591L98.396 83.194 103.484 75.023 105.708 76.42zM110.05 84.841c.45-.723.77-1.347.961-1.872.191-.526.1-.906-.277-1.142-.254-.16-.525-.15-.814.03-.289.179-.553.428-.793.748s-.501.707-.785 1.163c-.482.775-.81 1.407-.981 1.898-.173.49-.07.854.305 1.09.38.238.75.172 1.115-.198.364-.37.787-.942 1.269-1.717m2.317 1.457c-.44.708-.91 1.276-1.412 1.705-.501.428-1.005.72-1.512.874-.507.155-1.002.196-1.486.125-.483-.072-.94-.243-1.37-.513-.427-.268-.778-.605-1.053-1.01-.276-.406-.454-.872-.534-1.398-.08-.527-.04-1.109.12-1.746.16-.638.461-1.312.904-2.024.445-.715.918-1.284 1.419-1.708.5-.424 1.004-.717 1.511-.88.507-.162 1.003-.207 1.489-.135.485.073.94.243 1.367.511.43.27.783.607 1.058 1.01.274.402.452.87.533 1.405.08.535.039 1.122-.126 1.763-.164.64-.467 1.314-.908 2.021" transform="translate(131 106)"/>
                        <g>
                            <g transform="translate(131 106) translate(13.063 46.387)">
                                <use fill="#000" filter="url(#0t7snlyhhM)" xlink:href="#xn6snesbgN"/>
                                <use fill="#FFF" xlink:href="#xn6snesbgN"/>
                            </g>
                            <path fill="#335175" d="M26.819 14.973L13.42 23.323 11.197 20.528 20.902 14.391 15.962 11.066 17.805 8.396 27.059 14.625zM30.216 26.167c.675-1.163 1.161-2.17 1.46-3.024.298-.853.189-1.487-.328-1.9-.35-.28-.733-.282-1.15-.005-.417.277-.803.672-1.158 1.183-.356.51-.747 1.133-1.172 1.866-.722 1.245-1.219 2.266-1.488 3.064-.27.797-.147 1.403.37 1.816.522.418 1.049.334 1.583-.253.533-.586 1.16-1.502 1.883-2.747m3.524 1.967c-.712 1.093-1.462 1.963-2.25 2.611-.788.648-1.572 1.078-2.353 1.291-.78.213-1.537.248-2.268.104-.732-.143-1.417-.443-2.056-.898-.633-.451-1.147-1.006-1.541-1.666-.395-.66-.639-1.409-.73-2.248-.091-.839.004-1.758.286-2.758s.781-2.049 1.497-3.148c.72-1.105 1.475-1.978 2.26-2.617.788-.64 1.572-1.073 2.353-1.3.78-.225 1.539-.265 2.273-.12.734.145 1.418.444 2.051.895.638.456 1.155 1.01 1.55 1.665.393.654.636 1.408.727 2.26.09.852-.008 1.78-.297 2.784-.288 1.003-.789 2.052-1.502 3.145" transform="translate(131 106) translate(13.063 46.387)"/>
                        </g>
                    </g>
                    <g filter="url(#k183ba0yoO)" transform="translate(131 106) translate(84 37)">
                        <mask id="9wrjas3bzQ" fill="#fff">
                            <use xlink:href="#t7v9vs2rxP"/>
                        </mask>
                        <path fill="#FFF" d="M-10.027 14.606L14.602 30.046 30.028 5.394 5.398 -10.046z" mask="url(#9wrjas3bzQ)"/>
                    </g>
                    <g transform="translate(131 106) translate(87 39)">
                        <mask id="pviecvfpkS" fill="#fff">
                            <use xlink:href="#ah93zsb2zR"/>
                        </mask>
                        <path fill="#263C57" d="M-9.269 11.359L11.353 24.295 24.269 3.641 3.647 -9.296z" mask="url(#pviecvfpkS)"/>
                    </g>
                </g>
            </g>
            <g mask="url(#svb7rv269c)">
                <g>
                    <g>
                        <path fill="#FFF" d="M33.884 57.432L3.433 38.735c-3.938-2.417-4.61-7.835-1.382-11.13l24.912-25.43c2.372-2.421 6.121-2.875 9.008-1.09l30.792 19.037c3.956 2.445 4.589 7.914 1.294 11.187L42.804 56.4c-2.373 2.358-6.066 2.785-8.92 1.032" transform="translate(96.27 35.345)"/>
                        <path fill="#B0D4EB" d="M46.862 29.106l-.721-7.81 3.153-.373c.79-.092 1.423.306 1.48.931l.52 5.625c.059.625-.49 1.163-1.279 1.256l-3.153.371zm-3.48-7.485l.72 7.811-15.768 1.859c-.394.046-.697.003-1.015-.197L23.512 28.7c-.635-.4-.692-1.023-.144-1.562l3.288-3.23c.275-.27.562-.382.957-.43l15.769-1.857z" transform="translate(96.27 35.345)"/>
                    </g>
                    <g transform="translate(96.27 35.345) translate(22.73 20.655)">
                        <mask id="fx3q5xk2zU" fill="#fff">
                            <use xlink:href="#zq9ns948wT"/>
                        </mask>
                        <path fill="#B0D4EB" d="M-9.93 12.303L14.443 29.412 35.494 6.325 11.121 -10.784z" mask="url(#fx3q5xk2zU)"/>
                    </g>
                    <g transform="translate(96.27 35.345) translate(22.73 20.655)">
                        <mask id="zk59beuwyW" fill="#fff">
                            <use xlink:href="#z1uodldnjV"/>
                        </mask>
                        <path fill="#B0D4EB" d="M-17.081 14.167L12.832 35.165 42.494 2.634 12.581 -18.363z" mask="url(#zk59beuwyW)"/>
                    </g>
                    <g>
                        <g transform="translate(96.27 35.345) translate(22.73 20.655)">
                            <mask id="u3bmmo00tY" fill="#fff">
                                <use xlink:href="#oh94vyfqjX"/>
                            </mask>
                            <path fill="#B0D4EB" d="M-15.767 13.43L13.429 33.923 41.888 2.714 12.691 -17.78z" mask="url(#u3bmmo00tY)"/>
                        </g>
                        <g transform="translate(96.27 35.345) translate(22.73 20.655)">
                            <mask id="pjcs4smj5aa" fill="#fff">
                                <use xlink:href="#1xg9t8wxvZ"/>
                            </mask>
                            <path fill="#B0D4EB" d="M-0.865 8.34L16.861 20.782 32.171 3.992 14.444 -8.451z" mask="url(#pjcs4smj5aa)"/>
                        </g>
                    </g>
                    <g transform="translate(96.27 35.345) translate(22.73 20.655)">
                        <mask id="lb9slx7zmac" fill="#fff">
                            <use xlink:href="#g0jqwxul8ab"/>
                        </mask>
                        <path fill="#B0D4EB" d="M-26.091 14.788L14.184 43.058 52.211 1.356 11.936 -26.916z" mask="url(#lb9slx7zmac)"/>
                    </g>
                    <path fill="#B0D4EB" d="M29.339 41.414c-1.818-1.205-2.511-2.546-3.123-3.73-.524-1.017-.979-1.894-2.158-2.675-1.637-1.086-3.406-1.497-5.405-1.255-.988.12-1.85-.455-1.918-1.284-.069-.83.68-1.597 1.672-1.717 2.952-.356 5.645.257 8.004 1.82 1.818 1.204 2.51 2.546 3.123 3.73.525 1.016.978 1.893 2.157 2.675.535.354 2.158 1.43 6.553-.37.918-.377 1.971-.074 2.35.672.379.748-.058 1.66-.977 2.036-4.275 1.752-7.733 1.784-10.278.098" transform="translate(96.27 35.345)"/>
                </g>
            </g>
            <g mask="url(#svb7rv269c)">
                <g>
                    <g>
                        <g>
                            <g>
                                <g>
                                    <g fill="#FFF">
                                        <path d="M21.406 35.8L2.17 24.145c-2.487-1.507-2.913-4.884-.873-6.937L17.034 1.356c1.499-1.51 3.867-1.792 5.691-.68l19.453 11.867c2.5 1.524 2.9 4.933.818 6.974l-15.954 15.64c-1.5 1.47-3.832 1.736-5.636.643" transform="translate(187 64.53)"/>
                                    </g>
                                    <path fill="#B0D4EB" d="M23.61 12.873c.757.492.827 1.438.156 2.113-.67.675-1.826.825-2.583.334-.757-.492-.827-1.438-.156-2.113.67-.676 1.826-.825 2.583-.334" transform="translate(187 64.53)"/>
                                </g>
                                <g transform="translate(187 64.53) translate(8 6.47)">
                                    <mask id="v72m1fa12ae" fill="#fff">
                                        <use xlink:href="#cpgp8gl3mad"/>
                                    </mask>
                                    <path fill="#B0D4EB" d="M-7.019 14.805L16.289 30.854 35.8 10.004 12.492 -6.045z" mask="url(#v72m1fa12ae)"/>
                                </g>
                            </g>
                            <g transform="translate(187 64.53) translate(8 6.47)">
                                <mask id="a6s04c7qhag" fill="#fff">
                                    <use xlink:href="#drzb63fooaf"/>
                                </mask>
                                <path fill="#B0D4EB" d="M-0.125 13.837L15.899 24.871 28.906 10.971 12.883 -0.063z" mask="url(#a6s04c7qhag)"/>
                            </g>
                        </g>
                        <g transform="translate(187 64.53) translate(20 13.47)">
                            <mask id="ltmyqhzl5ai" fill="#fff">
                                <use xlink:href="#eq6u8t5dsah"/>
                            </mask>
                            <path fill="#B0D4EB" d="M-8.707 2.604L3.021 8.197 13.47 0.464 1.742 -5.129z" mask="url(#ltmyqhzl5ai)"/>
                        </g>
                    </g>
                    <g transform="translate(187 64.53) translate(20 13.47)">
                        <mask id="7krg6ufo3ak" fill="#fff">
                            <use xlink:href="#ritmcnk3qaj"/>
                        </mask>
                        <path fill="#B0D4EB" d="M-15.147 5.891L3.732 14.895 19.056 3.552 0.178 -5.451z" mask="url(#7krg6ufo3ak)"/>
                    </g>
                    <path fill="#B0D4EB" d="M34.796 17.395l-7.271 7.484-.392-5.387-8.347 1.642-.997-4.763-5.161.678 8.483-8.73 13.685 9.076zm1.896-.794L21.639 6.617c-.378-.25-.956-.175-1.29.17L8.228 19.261c-.334.345-.299.826.08 1.077l15.053 9.984c.377.25.954.175 1.29-.17L36.771 17.68c.335-.345.298-.828-.08-1.078z" transform="translate(187 64.53)"/>
                </g>
            </g>
            <g mask="url(#svb7rv269c)">
                <g>
                    <path fill="url(#4wclji4fmal)" d="M21 13.585c-4.4 1.339-7.157 6.308-8.362 11.415-4.153-3.166-8.044-6.678-11.633-10.5-.169-.181-.413-.864-.548-1.088-.843-1.15-.27-2.308-.228-2.921C1.325 7.5 1.865 4.822 4.267 2.42 5.133 1.498 6.104.685 7.16 0 9.4.873 11.213 4.727 21 13.585z" transform="translate(10 44)"/>
                    <path fill="#FF9600" d="M3.994 10.768c-.803.049-1.509.51-1.825 1.192-.317.682-.191 1.47.325 2.04-1.038-.908-1.581-2.195-1.483-3.51C1.074 9.524 1.313 5.016 9 0 2.725 4.468 1.003 7.986 3.994 10.768z" transform="translate(10 44)"/>
                </g>
            </g>
            <g fill-rule="nonzero" mask="url(#svb7rv269c)">
                <g>
                    <path fill="url(#v5jkcm1qcam)" d="M2.85 6.814C5.516 4.78 7.828 3.126 9.784 1.849 12.718-.066 16.527-.25 18.43.214 20.577 1.654 26.187 5.576 28.5 7.6c-1.364.238-2.576.238-4.385.66-6.502 1.521-8.798 6.648-9.667 6.972-1.62.604-.934.326-1.912.442-.652.077-3.88-2.877-9.686-8.86z" transform="matrix(1 0 0 -1 120.445 272.85)"/>
                    <path fill="url(#jmmizi3g3an)" d="M2.402 4.275C-.163 6.767-.674 8.504.87 9.487c1.66 1.059 6.79 4.19 9.152 5.52 1.527.86 2.937.89 4.228.09-1.685.643-2.772.37-3.263-.819-.49-1.19.185-2.398 2.029-3.627L2.402 4.275z" transform="matrix(1 0 0 -1 120.445 272.85)"/>
                </g>
            </g>
            <path fill="#FFB29C" fill-rule="nonzero" d="M220.574 204.027l1.005-3.495s.729 0 .584 1.316c-.19 1.188-.492 2.356-.9 3.488l-.69-1.31z" mask="url(#svb7rv269c)"/>
            <path fill="#FFB29C" fill-rule="nonzero" d="M221.296 205.77l4.112.396s.618-.454-.197-.777c-.548-.216-1.116-.381-1.694-.494 0 0 3.547-.493 3.422-.987s-3.035.198-3.035.198 3.285-1.89 3.087-2.37c-.197-.48-3.573 1.409-3.573 1.409s2.398-2.205 2.05-2.587c-.349-.382-5.597 3.41-5.702 3.548-.105.138 1.53 1.665 1.53 1.665z" mask="url(#svb7rv269c)"/>
        </g>
    </g>
</svg>
