<svg xmlns="http://www.w3.org/2000/svg" width="36" height="42" viewBox="0 0 36 42" fill="none">
  <path d="M35.2562 12.0057L23.5896 0.2457C23.5121 0.167719 23.4202 0.105883 23.319 0.0637255C23.2179 0.0215675 23.1095 -8.65081e-05 23 2.59729e-07H3C2.33696 2.59729e-07 1.70107 0.2655 1.23223 0.738091C0.763392 1.21068 0.5 1.85165 0.5 2.52V39.48C0.5 40.1483 0.763392 40.7893 1.23223 41.2619C1.70107 41.7345 2.33696 42 3 42H33C33.663 42 34.2989 41.7345 34.7678 41.2619C35.2366 40.7893 35.5 40.1483 35.5 39.48V12.6C35.5001 12.4897 35.4786 12.3804 35.4368 12.2784C35.395 12.1764 35.3336 12.0838 35.2562 12.0057ZM23.8333 2.8665L32.6542 11.76H23.8333V2.8665ZM33 40.32H3C2.77899 40.32 2.56702 40.2315 2.41074 40.074C2.25446 39.9164 2.16667 39.7028 2.16667 39.48V2.52C2.16667 2.29722 2.25446 2.08356 2.41074 1.92603C2.56702 1.7685 2.77899 1.68 3 1.68H22.1667V12.6C22.1667 12.8228 22.2545 13.0364 22.4107 13.194C22.567 13.3515 22.779 13.44 23 13.44H33.8333V39.48C33.8333 39.7028 33.7455 39.9164 33.5893 40.074C33.433 40.2315 33.221 40.32 33 40.32ZM23.5896 23.7657C23.746 23.9233 23.8338 24.1371 23.8338 24.36C23.8338 24.5829 23.746 24.7967 23.5896 24.9543C23.4332 25.1119 23.2211 25.2005 23 25.2005C22.7789 25.2005 22.5668 25.1119 22.4104 24.9543L18.8333 21.3486V32.76C18.8333 32.9828 18.7455 33.1964 18.5893 33.354C18.433 33.5115 18.221 33.6 18 33.6C17.779 33.6 17.567 33.5115 17.4107 33.354C17.2545 33.1964 17.1667 32.9828 17.1667 32.76V21.3486L13.5896 24.9543C13.4332 25.1119 13.2211 25.2005 13 25.2005C12.7789 25.2005 12.5668 25.1119 12.4104 24.9543C12.254 24.7967 12.1662 24.5829 12.1662 24.36C12.1662 24.1371 12.254 23.9233 12.4104 23.7657L17.4104 18.7257C17.4878 18.6476 17.5797 18.5856 17.6809 18.5434C17.782 18.5011 17.8905 18.4793 18 18.4793C18.1095 18.4793 18.218 18.5011 18.3191 18.5434C18.4203 18.5856 18.5122 18.6476 18.5896 18.7257L23.5896 23.7657Z" fill="#191C1D"/>
</svg>