<svg width="14" height="19" fill="none" xmlns="http://www.w3.org/2000/svg"><path fill-rule="evenodd" clip-rule="evenodd" d="M1.852 0C.829 0 0 .83 0 1.852v14.963c0 1.023.83 1.852 1.852 1.852h10.296c1.023 0 1.852-.83 1.852-1.852V.919v3.534h-2.482A1.852 1.852 0 0 1 9.668 2.6V0H1.852Z" fill="url(#a)"/><path d="M11.518 4.453H14L9.666 0v2.6c0 1.024.83 1.853 1.852 1.853Z" fill="#BCCFDC"/><rect x="2" y="5" width="7" height="1" rx=".5" fill="#fff"/><rect x="2" y="7" width="8" height="1" rx=".5" fill="#fff"/><rect x="2" y="9" width="10" height="1" rx=".5" fill="#fff"/><defs><linearGradient id="a" x1="7" y1="0" x2="7" y2="32.667" gradientUnits="userSpaceOnUse"><stop stop-color="#F1F5F8"/><stop offset="1" stop-color="#F1F5F8" stop-opacity="0"/></linearGradient></defs></svg>