<svg xmlns="http://www.w3.org/2000/svg" width="497" height="341" viewBox="0 0 497 341">
    <defs>
        <linearGradient id="a" x1="50%" x2="-33.812%" y1="19.686%" y2="294.476%">
            <stop offset="0%" stop-color="#F7FAFF"/>
            <stop offset="100%" stop-color="#6B9AD9"/>
        </linearGradient>
        <linearGradient id="b" x1="140.584%" x2="25.163%" y1="-6.483%" y2="143.48%">
            <stop offset="0%" stop-color="#E5EDFF"/>
            <stop offset="100%" stop-color="#6B9AD9"/>
        </linearGradient>
        <linearGradient id="c" x1="45.815%" x2="75.941%" y1="15.16%" y2="70.686%">
            <stop offset="0%" stop-color="#F59BA9"/>
            <stop offset="100%" stop-color="#F25267"/>
        </linearGradient>
        <linearGradient id="d" x1="69.094%" x2="0%" y1="-23.472%" y2="149.058%">
            <stop offset="0%" stop-color="#F7FAFF"/>
            <stop offset="100%" stop-color="#6B9AD9"/>
        </linearGradient>
        <linearGradient id="e" x1="84.355%" x2="25.163%" y1="14.667%" y2="143.48%">
            <stop offset="0%" stop-color="#E5EDFF"/>
            <stop offset="100%" stop-color="#6B9AD9"/>
        </linearGradient>
        <linearGradient id="f" x1="50%" x2="-33.859%" y1="19.686%" y2="202.699%">
            <stop offset="0%" stop-color="#EEF3FF"/>
            <stop offset="100%" stop-color="#6B9AD9"/>
        </linearGradient>
        <linearGradient id="g" x1="17.012%" x2="132.295%" y1="-9.919%" y2="110.02%">
            <stop offset="0%" stop-color="#E5EDFF"/>
            <stop offset="100%" stop-color="#6B9AD9"/>
        </linearGradient>
        <linearGradient id="h" x1="50%" x2="55.252%" y1="0%" y2="81.647%">
            <stop offset="0%" stop-color="#FFE579"/>
            <stop offset="100%" stop-color="#FEC644"/>
        </linearGradient>
        <linearGradient id="i" x1="61.039%" x2="50%" y1="-102.973%" y2="100%">
            <stop offset="0%" stop-color="#FFEDBF"/>
            <stop offset="100%" stop-color="#FEC644"/>
        </linearGradient>
        <linearGradient id="j" x1="50%" x2="50%" y1="-10.877%" y2="100%">
            <stop offset="0%" stop-color="#FFE579"/>
            <stop offset="100%" stop-color="#FEB755"/>
        </linearGradient>
        <linearGradient id="k" x1="50%" x2="55.228%" y1="27.773%" y2="103.623%">
            <stop offset="0%" stop-color="#1542AB"/>
            <stop offset="100%" stop-color="#2B68EE"/>
        </linearGradient>
        <linearGradient id="l" x1="60.731%" x2="52.081%" y1="0%" y2="50%">
            <stop offset="0%" stop-color="#3485F7"/>
            <stop offset="100%" stop-color="#1A57CF"/>
        </linearGradient>
        <linearGradient id="m" x1="107.254%" x2="38.27%" y1="-120.462%" y2="-120.462%">
            <stop offset="0%" stop-color="#FAD0BA"/>
            <stop offset="100%" stop-color="#F2A384"/>
        </linearGradient>
        <linearGradient id="n" x1="50%" x2="50%" y1="32.119%" y2="100%">
            <stop offset="0%" stop-color="#84F0A8"/>
            <stop offset="100%" stop-color="#48B676"/>
        </linearGradient>
        <linearGradient id="o" x1="50%" x2="60.668%" y1="3.643%" y2="53.317%">
            <stop offset="0%" stop-color="#46C36F" stop-opacity="0"/>
            <stop offset="100%" stop-color="#4DBB7A"/>
        </linearGradient>
        <linearGradient id="p" x1="92.577%" x2="-38.154%" y1="68.312%" y2="23.909%">
            <stop offset="0%" stop-color="#092871"/>
            <stop offset="100%" stop-color="#2B68EE"/>
        </linearGradient>
        <linearGradient id="q" x1="86.23%" x2="92.496%" y1="33.351%" y2="-19.001%">
            <stop offset="0%" stop-color="#F1A385" stop-opacity="0"/>
            <stop offset="100%" stop-color="#F2A384"/>
        </linearGradient>
        <linearGradient id="r" x1="100%" x2="0%" y1="50%" y2="50%">
            <stop offset="0%" stop-color="#2865C6"/>
            <stop offset="100%" stop-color="#10378A"/>
        </linearGradient>
        <linearGradient id="s" x1="50%" x2="67.286%" y1="32.119%" y2="115.978%">
            <stop offset="0%" stop-color="#84F0A8"/>
            <stop offset="100%" stop-color="#48B676"/>
        </linearGradient>
        <linearGradient id="t" x1="50%" x2="60.514%" y1="3.643%" y2="145.158%">
            <stop offset="0%" stop-color="#46C36F" stop-opacity="0"/>
            <stop offset="100%" stop-color="#4DBB7A"/>
        </linearGradient>
        <linearGradient id="u" x1="93.673%" x2="1.757%" y1="39.91%" y2="60.401%">
            <stop offset="0%" stop-color="#7BE7A1"/>
            <stop offset="100%" stop-color="#84F0A8"/>
        </linearGradient>
        <linearGradient id="v" x1="50%" x2="50%" y1="0%" y2="100%">
            <stop offset="0%" stop-color="#A0ECC3"/>
            <stop offset="100%" stop-color="#67D490"/>
        </linearGradient>
    </defs>
    <g fill="none" fill-rule="evenodd">
        <g fill="#E2EBFC">
            <ellipse cx="381.449" cy="115.641" opacity=".3" rx="115.484" ry="115.417"/>
            <ellipse cx="115.838" cy="191.279" opacity=".2" rx="115.484" ry="115.417"/>
        </g>
        <ellipse cx="135.887" cy="6.5" fill="#E2EBFC" opacity=".34" rx="135.766" ry="6.5" transform="translate(95 328)"/>
        <g fill-rule="nonzero">
            <path fill="url(#a)" d="M.425 41.295L40.497.666a.92.92 0 0 1 1.314 0l29.562 29.972a.951.951 0 0 1 0 1.332L31.3 72.6a.92.92 0 0 1-1.314 0L.425 42.626a.951.951 0 0 1 0-1.332z" transform="translate(28 65)"/>
            <path fill="url(#b)" d="M46.41 47.29a10.58 10.58 0 0 1-15.11 0c-4.172-4.23-4.172-11.09 0-15.32a10.58 10.58 0 0 1 15.11 0c4.172 4.23 4.172 11.09 0 15.32z" transform="translate(28 65)"/>
            <path fill="#FFF" d="M63.73 102.837l5.367-1.678a.927.927 0 0 1 1.162.622.954.954 0 0 1 0 .555l-1.655 5.443a.927.927 0 0 1-1.545.388l-3.712-3.764a.951.951 0 0 1 0-1.332.927.927 0 0 1 .383-.234z"/>
            <path fill="url(#b)" d="M.425 41.295L40.497.666a.92.92 0 0 1 1.314 0l3.613 3.663L4.038 46.29.425 42.627a.951.951 0 0 1 0-1.332z" transform="translate(28 65)"/>
            <path fill="#FFF" d="M33.352 107.294a.92.92 0 0 1-1.314 0 .951.951 0 0 1 0-1.332.92.92 0 0 1 1.314 0 .951.951 0 0 1 0 1.332zM35.65 104.963a.92.92 0 0 1-1.313 0 .951.951 0 0 1 0-1.332.92.92 0 0 1 1.314 0 .951.951 0 0 1 0 1.332z"/>
        </g>
        <g fill-rule="nonzero">
            <path fill="url(#c)" d="M15.043 1.198c.522-.886 1.68-1.19 2.584-.678l16.385 9.268a1.833 1.833 0 0 1 .692 2.532l-4.434 8.534 4.117 2.31c.225.126.386.338.447.586a.926.926 0 0 1-.7 1.117l-6.938 2.011-6.918 9.924c-.522.886-1.68 1.19-2.584.678L1.31 28.212a1.833 1.833 0 0 1-.693-2.532L15.043 1.198z" transform="translate(33 165)"/>
            <path fill="#FFF" d="M47.801 182.65c-1.2-.68-1.539-2.308-.755-3.638.784-1.33 2.318-1.9 4.318-.768 1.333.754 2.561 3.59 3.684 8.505-4.907 1.506-8.027 1.881-9.36 1.127-2-1.131-2.263-2.718-1.48-4.048.784-1.33 2.393-1.857 3.593-1.178z"/>
        </g>
        <g fill-rule="nonzero">
            <path fill="url(#d)" d="M3.31 12.114c4.204-3.593 7.848-6.518 10.931-8.775C18.867-.047 24.872-.373 27.874.449 31.256 2.994 40.1 9.927 43.747 13.503c-2.15.42-4.06.42-6.912 1.169-10.25 2.688-13.87 11.75-15.24 12.322-2.554 1.068-1.473.577-3.015.78-1.027.137-6.117-5.083-15.27-15.66z" transform="translate(91 239)"/>
            <path fill="url(#e)" d="M3.909 8.73c-3.871 4.133-4.642 7.014-2.312 8.645 2.506 1.754 10.246 6.947 13.812 9.153 2.305 1.426 4.431 1.475 6.38.148-2.542 1.068-4.184.616-4.924-1.357-.74-1.972.28-3.977 3.061-6.015L3.91 8.73z" transform="translate(91 239)"/>
        </g>
        <path fill="url(#a)" fill-rule="nonzero" d="M5.255 9.923c3.117-2.668 5.709-4.765 7.775-6.29C17.697.182 23.757-.15 26.787.687 30.2 3.28 39.125 10.343 42.805 13.987c-2.17.428-4.098.428-6.976 1.19-10.343 2.739-13.997 11.97-15.378 12.553-2.577 1.088-1.487.588-3.043.796-.856.114-4.935-3.072-12.237-9.559a6 6 0 0 1 .084-9.044z" transform="matrix(-1 0 0 1 300 273)"/>
        <g fill-rule="nonzero">
            <path fill="url(#f)" d="M85.682 27.522L46.442.321C36.033 23.378 20.655 39.773.308 49.505L33.886 81c26.27-9.707 43.536-27.533 51.796-53.478z" transform="translate(320 226)"/>
            <path fill="#C5D7F3" d="M339.39 273.289l-3.06 2.052 24.958 20.546 3.735-1.99zM365.506 239.925l29.445 18.552-1.997 3.165-29.31-18.508zM361.089 247.527l29.444 18.553-1.996 3.164-29.311-18.507zM370.826 265.333l14.798 9.105-1.996 3.164-14.665-9.06zM356.978 253.864l9.565 7.201a26.6 26.6 0 0 1-.984 2.076 27.144 27.144 0 0 1-7.634 9.06 101.383 101.383 0 0 0-3.266 2.577l-9.84-7.704c.48-.285 1.012-.61 1.597-.975a27.138 27.138 0 0 0 9.684-10.452c.337-.644.63-1.238.878-1.783zM365.348 271.898l13.252 10.53c-1.526 2.282-3.231 4.21-5.116 5.784-1.884 1.575-3.87 2.73-5.957 3.468l-13.443-10.328c2.833-1.677 5.07-3.21 6.709-4.6 1.64-1.39 3.158-3.009 4.555-4.854z" opacity=".517" style="mix-blend-mode:multiply"/>
        </g>
        <g fill-rule="nonzero">
            <path fill="url(#f)" d="M.403 21.194c0-8.635 1.46-15.676 4.38-21.123C15.747 14.78 27.342 21.439 39.57 20.046c.376 11.015-8.127 46.35 30.766 52.736-7.605 0-14.423-1.483-20.453-4.45-19.251-8.222-32.155-15.7-38.71-22.436C4.616 39.161 1.027 30.926.402 21.194z" transform="translate(164 239)"/>
            <path fill="url(#e)" d="M.234 20.065c1.828 19.277 12.267 24.66 31.315 16.15 6.585 21.104 20.386 33.26 41.404 36.467-21.748-.358-39.017-5.164-51.807-14.418-12.79-9.255-19.76-21.988-20.912-38.2z" transform="translate(164 239)"/>
        </g>
        <g transform="translate(386 96)">
            <path fill="url(#a)" fill-rule="nonzero" d="M21.955 57.01a29.418 29.418 0 0 0-8.214-17.161c-1.554-1.866-3.647-3.501-6.324-4.879a28.388 28.388 0 0 0-7.313-2.92C.192 29.054 2.228 14.655 4.34.16c38.676 5.55 31.01 42.534 28.109 48.18-1.302 2.533-4.8 5.423-10.494 8.67z"/>
            <path fill="url(#g)" d="M4.303.106C22.181 2.549 35.77 14.73 35.77 29.389c0 5.98-2.262 11.549-6.154 16.211 1.928-3.557 2.994-7.469 2.994-11.575 0-13.983-12.363-25.71-29.02-28.883L4.302.106z"/>
            <ellipse cx="7.551" cy="3.518" fill="url(#b)" fill-rule="nonzero" rx="1.154" ry="1.173"/>
            <ellipse cx="11.521" cy="4.665" fill="url(#b)" fill-rule="nonzero" rx="1.154" ry="1.173"/>
            <path fill="url(#b)" fill-rule="nonzero" d="M4.459 58.65c14.49-2.03 26.137-10.46 29.968-21.41.288-.34.443-.525.45-.52 0 31.667-10.14 49.689-30.418 54.068V58.65z"/>
        </g>
        <g fill-rule="nonzero">
            <path fill="url(#h)" d="M21.038.773l32.113 25.944c.605.489.698 1.374.208 1.977L34.977 51.34a1.41 1.41 0 0 1-1.981.208L.883 25.605a1.403 1.403 0 0 1-.208-1.977L19.057.981a1.41 1.41 0 0 1 1.981-.208z" transform="translate(130 55)"/>
            <path fill="url(#i)" d="M1.15 25.514a.468.468 0 0 1 .266-.832l27.125-1.65a1.408 1.408 0 0 1 1.477 1.183l4.303 27.048a.47.47 0 0 1-.76.438L1.15 25.513z" transform="translate(130 55)"/>
            <path fill="url(#j)" d="M20.836.61l32.523 26.275a.468.468 0 0 1-.248.83l-28.25 2.831a1.408 1.408 0 0 1-1.54-1.238l-3.247-28.28a.469.469 0 0 1 .762-.418z" transform="translate(130 55)"/>
        </g>
        <g fill-rule="nonzero">
            <path fill="url(#b)" d="M.816 34.127a.931.931 0 0 1-.146-1.315l6.091-7.547a.939.939 0 0 1 1.251-.19l2.167 1.449a.939.939 0 0 0 1.154-.087L37.253 2.79a.939.939 0 0 1 1.336.073l19.466 22.114a.931.931 0 0 1-.045 1.279L28.686 55.183a.939.939 0 0 1-1.242.067L.816 34.127z" transform="translate(254 67)"/>
            <path fill="url(#a)" d="M27.307 55.189L10.848 34.964a.931.931 0 0 1 .073-1.256L45 .528a.939.939 0 0 1 1.495.256L58.561 25.24a.931.931 0 0 1-.186 1.079L28.69 55.268a.939.939 0 0 1-1.383-.08z" transform="translate(254 67)"/>
            <path fill="#A3C1EA" d="M282.018 119.123l-.91-.963 8.808-8.368.713 1.113z"/>
        </g>
        <g fill-rule="nonzero">
            <path fill="url(#k)" d="M2.583 7.303L15.426.428h1.85c.451 0 .838.324.92.77l6.65 36.5a.937.937 0 0 1-.884 1.105l-15.4.614a.936.936 0 0 1-.958-.769l-5.5-30.351a.938.938 0 0 1 .48-.994z" transform="translate(223.176 144.358)"/>
            <path fill="url(#l)" d="M.76 7.32L15.236.52a.935.935 0 0 1 1.319.685l6.435 36.555a.937.937 0 0 1-.834 1.096l-15.42 1.45a.936.936 0 0 1-1.009-.77L.235 8.33a.937.937 0 0 1 .524-1.01z" transform="translate(223.176 144.358)"/>
            <path fill="url(#a)" d="M2.201 10.589l12.922-5.862a.467.467 0 0 1 .654.345l5.291 30.057a.468.468 0 0 1-.415.548L6.937 37.025a.468.468 0 0 1-.507-.385L1.934 11.097a.469.469 0 0 1 .267-.508z" transform="translate(223.176 144.358)"/>
        </g>
        <g fill-rule="nonzero">
            <path fill="url(#m)" d="M9.728 24.882l-6.687-.874c2.775-4.742 4.557-9.045 5.346-12.908.843-2.283-.17-2.803.643-6.121.455-1.856 1.373-4.25 3.629-4.817.276 2.016.543 3.18.822 4.817.28 1.637 1.012-2.117 2.851-1.638 1.84.48-1.783 4.054-1.783 5.57 0 2.423-.538 4.031-1.614 4.827L9.728 24.882z" transform="translate(213.353 167.318)"/>
            <path fill="url(#n)" d="M.807 24.282c3.923-5.205 5.884-8.137 5.884-8.797 0-.99 6.458-.924 6.458 1.269 0 2.192-2.466 11.112-3.644 11.866-.785.503-3.934.746-9.446.73l.748-5.068z" transform="translate(213.353 167.318)"/>
        </g>
        <g fill-rule="nonzero">
            <path fill="url(#n)" d="M2.81 30.938c19.171-.015 31.151-3.808 35.94-11.38C45.933 8.2 43.043 2.647 48.476.728c5.433-1.918 13.008 6.067 15.306 9.992 1.532 2.616 5.178 17.991 10.94 46.125l-66.444-8.51-5.467-17.397z" transform="translate(217.095 163.57)"/>
            <path fill="#6EDB96" d="M262.067 177.45l.845 3.178a1.41 1.41 0 0 1-.99 1.726 1.399 1.399 0 0 1-1.714-.997l-.845-3.177c-.352.057-.617.129-.794.214-.355.171 2.2-6.015 2.2-5.822 0 .551.19 1.27.573 2.155l3.155-.85a1.399 1.399 0 0 1 1.714.996 1.41 1.41 0 0 1-.99 1.726l-3.154.851z"/>
            <path fill="url(#o)" d="M.148 33.614c23.06-1.389 37.761-5.335 44.104-11.838 4.25-4.359 6.458-5.986 6.48-10.772.02-4.787-5.687-6.192-2.23-8.929 5.26-4.163 20.596 11.26 22.082 13.798 1.532 2.616 2.911 20.959 4.138 55.028l-66.444-8.51-8.13-28.777z" transform="translate(217.095 163.57)"/>
        </g>
        <path fill="url(#m)" d="M104.96 82.253c-3.187-1.527-5.819-4.232-7.896-8.117-8.955-5.462-13.71-4.17-14.264 3.878 1.06 4.073 6.408 10.34 16.042 18.8l1.033.645 10.695-10.003-5.61-5.203z" transform="translate(95.234 110.154)"/>
        <path fill="url(#m)" d="M96.425 62.743c.516.129 1.042.22 1.578.277 2.843.3 2.24 2.42.825 4.033 2.364 5.893 3.28 9.943 2.748 12.15-.812 3.37-5.915 5.345-16.208 3.749l-10.004-7.23c-2.159 2.12-4.246 1.674-6.264-1.336-3.025-4.516.56-6.186 2.628-5.823 2.442-3.186 2.387-6.87-.165-11.051 5.2-.407 9.095-1.308 11.685-2.702s4.282-3.243 5.074-5.548c2.165 1.356 3.625 3.67 4.379 6.941l3.724 6.54z" transform="translate(95.234 110.154)"/>
        <path fill="url(#m)" d="M86.823 51.956a8.762 8.762 0 0 0 1.499-2.694c2.165 1.356 3.625 3.67 4.379 6.941l3.724 6.54c.058.015.117.029.175.042-3.119.314-5.925-2.264-8.42-7.73a99.324 99.324 0 0 1-1.357-3.099z" transform="translate(95.234 110.154)"/>
        <path fill="url(#p)" d="M54.732 77.311c-14.034 1.172-15.437-9.136-9.824-28.816 5.614-19.679 11.461-34.907-9.355-45.45C14.736-7.496-12.631 13.12 7.25 38.188 27.132 63.255 20.349 79.42 40.698 84.34c13.566 3.28 21.987 1.327 25.261-5.857-4.557 2.129-8.3 1.738-11.227-1.172z" transform="translate(95.234 110.154)"/>
        <path fill="url(#h)" d="M54.03 76.14c-1.247 2.499-.78 4.685 1.404 6.56 2.183 1.874 4.678 1.952 7.485.234L54.03 76.14z" transform="translate(95.234 110.154)"/>
        <path fill="url(#p)" d="M88.414 49.432c-.78 5.467-4.678 9.06-11.695 10.777.78 4.373.234 7.34-1.638 8.903l1.404 3.748c-2.183-2.187-3.82-3.28-4.912-3.28-1.637 0-4.444 2.109-2.105 5.154 1.56 2.03 3.508 2.343 5.847.937 3.899.781 8.654 3.515 14.268 8.2v3.514c-3.04 1.406-41.868 1.467-39.295-23.427.38-3.672.976-7.012 1.79-10.022 3.66-13.528 17.577-21.523 31.083-17.857a25.311 25.311 0 0 1 4.61 1.749c5.386 2.67 8.347 8.14 4.853 18.398l-.632-1.896a9.942 9.942 0 0 0-3.578-4.898zM49.585 85.798c-2.665-.184-5.627-.67-8.887-1.458C20.35 79.42 27.132 63.255 7.251 38.187-8.283 18.601 5.026 1.733 21.519.32V.47C11.85 4.998 8.109 11.01 10.292 18.508c3.274 11.245 16.606 9.605 14.735 22.725-1.871 13.12 8.654 6.325 8.654 20.148 0 9.08 7.27 20.387 15.904 24.417z" transform="translate(95.234 110.154)"/>
        <path fill="url(#q)" d="M78.846 78.238c1.166-2.36 3.264-3.606 6.293-3.738 7.173-.312 11.695-2.733 13.566-7.263l.414.551c2.147 5.496 2.966 9.301 2.457 11.416-.812 3.369-5.915 5.344-16.208 3.748l-6.522-4.714z" transform="translate(95.234 110.154)"/>
        <g fill="url(#l)" fill-rule="nonzero" transform="translate(194.64 191.214)">
            <path d="M.148 4.482c3.177-.49 4.766-1.185 4.766-2.086 0-.901-.191-1.523-.574-1.864C15.27.032 21.858-.053 24.1.28c3.363.499 7.073 7.386 7.457 7.386.383 0 9.474 7.638 13.135 7.638 2.44 0 6.81 1.355 13.108 4.066l-9.417 8.86L9.62 23.095.15 4.482z"/>
        </g>
        <g>
            <path fill="url(#m)" fill-rule="nonzero" d="M86.566 50.712c-.57-.386-2.876-4.917 1.502-5.655 4.379-.737 5.406-.927 7.094-1.467 1.125-.36 1.944-.95 2.457-1.771l-.585 5.984-3.364 2.5c-4.356.53-6.724.667-7.104.41z" transform="translate(254.519 105)"/>
            <path fill="url(#r)" fill-rule="nonzero" d="M92.199 50.831c-.005-1.298 3.242-1.477 4.124-3.46.881-1.982-.97-4.286-.504-4.685 1.366-1.165 2.666-3.162 4.55-5.156 4.635-4.908 5.18-5.34 7.846-3.136.677.301-1.924 7.063-7.801 20.286-1.652-.096-3.101-.397-4.347-.902-1.869-.759-3.864-1.649-3.868-2.947z" transform="translate(254.519 105)"/>
            <path fill="url(#k)" fill-rule="nonzero" d="M32.343 50.046c6.751-3.397 54.372-9.161 57.487-7.44a6.458 6.458 0 0 1-1.21 11.82c-23.133 7.171-35.071 10.463-35.814 9.875-1.134-.898-18.073 49.319-23.587 57.951-5.515 8.633-12.37 21.456-23.9 5.147-7.686-10.872-6.777-18.155 2.727-21.848 11.698-34.738 19.797-53.24 24.297-55.505z" transform="translate(254.519 105)"/>
            <path fill="url(#m)" fill-rule="nonzero" d="M99.323 22.503c-.65-.225-4.049-4.005-.01-5.852 4.039-1.848 4.982-2.297 6.473-3.256.993-.64 1.632-1.422 1.915-2.348l.981 5.932-2.603 3.286c-4.07 1.642-6.322 2.388-6.756 2.238z" transform="translate(254.519 105)"/>
            <path fill="url(#l)" fill-rule="nonzero" d="M43.185 41.901c6.786-7.76 53.988-28.344 57.481-27.672 2.083.4 2.79 4.098 2.12 11.091C92.29 29.506 78.53 38.073 61.507 51.023 59.49 76.483 57.622 92.518 55.9 99.13c-2.58 9.917-11.891 36.876-27.888 24.934C17.35 116.1 15.32 104.9 21.925 90.462c9.65-27.2 16.736-43.387 21.26-48.56z" transform="translate(254.519 105)"/>
            <path stroke="#1A57CF" stroke-dasharray="5,10" stroke-linecap="round" stroke-linejoin="round" d="M354.393 122.102c-26.976 13.276-43.505 22.647-49.586 28.113-6.082 5.467-8.187 23.35-6.315 53.65"/>
            <path fill="url(#r)" fill-rule="nonzero" d="M104.795 21.157c-.34-1.252 2.75-2.267 3.09-4.411.338-2.144-2.046-3.889-1.698-4.395 1.019-1.48 1.758-3.745 3.062-6.16 3.21-5.942 3.624-6.5 6.769-5.064.731.116-.033 7.322-2.294 21.618-1.62.335-3.098.42-4.432.255-2-.248-4.158-.59-4.497-1.843z" transform="translate(254.519 105)"/>
        </g>
        <g transform="translate(178.268 160.758)">
            <path fill="url(#s)" fill-rule="nonzero" d="M8.2 36.346c3.746-4.212 6.459-6.318 8.14-6.318 2.52 0 2.52 3.033 4.397 3.89 5.58 2.545 40.486 24.845 62.586 5.918 22.1-18.928 22.016-39.483 26.3-39.483 4.285 0 19.64 21.464 24.167 35.023 2.752 8.242 4.421 17.02 5.006 26.335a5.627 5.627 0 0 1-1.854 4.539c-22.544 20.257-46.127 29.02-70.749 26.29C28.17 88.321 3.383 60.591.601 49.51c-1.854-7.387.679-11.775 7.6-13.165z"/>
            <path fill="#7DE9A2" fill-rule="nonzero" d="M103.578 87.547a84.88 84.88 0 0 1-3.362 1.228l-.273-1.02-4.017 1.08a1.786 1.786 0 0 1-.923-3.449l4.018-1.079-1.077-4.023a1.787 1.787 0 0 1 .495-1.758c.58-.134 1.128-.281 1.644-.44.614.148 1.13.62 1.305 1.273l1.076 4.024 4.017-1.078a1.786 1.786 0 0 1 .923 3.449l-4.017 1.078.19.715zM29.747 71.183c-3.676 0-6.657-2.985-6.657-6.667 0-3.683 2.98-6.668 6.657-6.668 3.676 0 6.657 2.985 6.657 6.668 0 3.682-2.98 6.667-6.657 6.667zm0-4a2.665 2.665 0 0 0 2.663-2.667 2.665 2.665 0 0 0-2.663-2.667 2.665 2.665 0 0 0-2.663 2.667 2.665 2.665 0 0 0 2.663 2.667zm42.442-10.401l2.94 2.945a1.787 1.787 0 0 1 0 2.525 1.78 1.78 0 0 1-2.52 0l-2.941-2.945-2.94 2.945a1.78 1.78 0 0 1-2.521 0 1.787 1.787 0 0 1 0-2.525l2.94-2.945-2.94-2.946a1.787 1.787 0 0 1 0-2.524 1.78 1.78 0 0 1 2.52 0l2.941 2.945 2.94-2.945a1.78 1.78 0 0 1 2.521 0 1.787 1.787 0 0 1 0 2.524l-2.94 2.946zm40.742-31.426l2.941 2.946a1.787 1.787 0 0 1 0 2.524 1.78 1.78 0 0 1-2.52 0l-2.941-2.945-2.94 2.945a1.78 1.78 0 0 1-2.521 0 1.787 1.787 0 0 1 0-2.524l2.94-2.946-2.94-2.945a1.787 1.787 0 0 1 0-2.525 1.78 1.78 0 0 1 2.52 0l2.94 2.945 2.942-2.945a1.78 1.78 0 0 1 2.52 0 1.787 1.787 0 0 1 0 2.525l-2.94 2.945zM58.875 87.944c-4.016 0-7.271-3.26-7.271-7.282 0-4.023 3.255-7.283 7.27-7.283 4.016 0 7.272 3.26 7.272 7.283 0 4.022-3.256 7.282-7.271 7.282zm0-4.37a2.91 2.91 0 0 0 2.908-2.912 2.91 2.91 0 0 0-2.908-2.914 2.91 2.91 0 0 0-2.909 2.914 2.91 2.91 0 0 0 2.909 2.913zm39.501-23.597c-4.016 0-7.271-3.26-7.271-7.283 0-4.022 3.255-7.282 7.271-7.282s7.271 3.26 7.271 7.282c0 4.023-3.255 7.283-7.271 7.283zm0-4.37a2.91 2.91 0 0 0 2.908-2.913 2.91 2.91 0 0 0-2.908-2.913 2.91 2.91 0 0 0-2.908 2.913 2.91 2.91 0 0 0 2.908 2.914z"/>
            <path fill="#52C47D" fill-rule="nonzero" d="M54.95 46.907c6.454.895 13.107.654 19.295-1.683-1.37 5.853-4.57 11.694-9.601 17.523-13.98 16.198-56.487.396-60.528-6.824-4.042-7.22.94-18.716 9.07-20.38 2.835-.58 4.673 13.318 9.034 15.295 8.152 3.696 20.013-2.911 27.72-2.911 1.864 0 3.534-.34 5.01-1.02z" opacity=".5"/>
            <path fill="url(#t)" fill-rule="nonzero" d="M133.8 35.403c2.746 8.235 4.412 17.004 4.996 26.308a5.627 5.627 0 0 1-1.854 4.539c-22.544 20.257-46.127 29.02-70.749 26.29C49.3 90.665 35.02 84.15 24.12 76.515c.456.182.914.369 1.375.561 43.271 18.04 27.366 1.171 59.878 2.343 32.512 1.171 18.01-16.165 33.447-20.382 10.163-2.776 15.156-10.654 14.98-23.635z"/>
            <path stroke="#5FCC89" d="M108.763 7.263c-10.448 27.8-25.34 42.482-44.675 44.044M101.75 39.169c2.177 1.978 3.898 4.037 5.162 6.178 1.309 2.215 2.293 4.796 2.952 7.741a1.517 1.517 0 0 0 1.822 1.147 2.118 2.118 0 0 0 1.636-1.908l.512-6.924a6 6 0 0 0-3.498-5.903l-5.317-2.421a3 3 0 0 0-2.36-.055l-.562.226a1.15 1.15 0 0 0-.346 1.919z"/>
            <ellipse cx="112.111" cy="42.584" fill="#5FCC89" rx="1" ry="1"/>
            <ellipse cx="16.15" cy="32.574" fill="#48C172" rx="1.169" ry="1.171"/>
            <path stroke="#48C172" stroke-dasharray="5,10" stroke-linecap="round" stroke-linejoin="round" d="M108.763 7.263c14.813 15.774 23.156 35.063 25.027 57.866"/>
        </g>
        <g>
            <path fill="url(#m)" fill-rule="nonzero" d="M62.824 27.1l-.485-8.958c-1.485-2.316-2.227-4.685-2.227-7.107 0-3.481-3.785-5.305-2.694-6.333.22-.207 1.148-.386 2.322 0 1.072.352 2.389 3.43 3.535 3.954.493.225 1.065-1.46 1.42-2.546.267-.817.49-2.496.49-2.914 0-.417-.49-2.296-.49-2.701 1.871-.854 5.501 1.972 5.956 3.828.542 2.212-.206 5.84-2.244 10.882l1.104 11.02-6.687.875z" transform="translate(180.139 164.038)"/>
            <path fill="url(#u)" fill-rule="nonzero" d="M61.314 21.718c-2.552 15.014-7.772 22.52-15.659 22.52-11.83 0-29.2-13.926-37.332-12.261-8.131 1.664-10.12 8.76-6.079 15.98 4.042 7.22 46.55 23.022 60.529 6.825 9.32-10.799 12.358-21.64 9.116-32.521-1.36-1.362-2.951-2.09-4.772-2.184-1.82-.093-3.755.454-5.803 1.641z" transform="translate(180.139 164.038)"/>
            <path fill="url(#v)" fill-rule="nonzero" d="M16.98 52.012c-4.016 0-7.272-3.26-7.272-7.283 0-4.022 3.256-7.283 7.271-7.283 4.016 0 7.271 3.26 7.271 7.283 0 4.022-3.255 7.283-7.27 7.283zm0-4.37a2.91 2.91 0 0 0 2.908-2.913 2.91 2.91 0 0 0-2.909-2.913 2.91 2.91 0 0 0-2.908 2.913 2.91 2.91 0 0 0 2.908 2.913z" opacity=".396" style="mix-blend-mode:overlay" transform="translate(180.139 164.038)"/>
            <path stroke="#5FCC89" d="M186.454 204.333c22.766 11.87 38.983 14.994 48.651 9.371 9.668-5.622 13.566-14.837 11.695-27.644"/>
        </g>
        <g>
            <path fill="url(#b)" fill-rule="nonzero" d="M1.141 15.054L56.456.284a.94.94 0 0 1 1.15.662l10.933 40.662a.935.935 0 0 1-.664 1.146l-55.314 14.77a.94.94 0 0 1-1.15-.662L.478 16.199a.935.935 0 0 1 .663-1.145z" transform="translate(184 86)"/>
            <path fill="url(#a)" d="M57.128 6.4l9.355 34.789-53.5 14.285-9.355-34.789z" transform="translate(184 86)"/>
            <path fill="#F2F5FF" fill-rule="nonzero" d="M188.955 104.394a.935.935 0 1 1-.486-1.807.935.935 0 1 1 .486 1.807zM192.129 103.546a.935.935 0 1 1-.486-1.807.935.935 0 1 1 .486 1.807z"/>
            <path fill="url(#b)" fill-rule="nonzero" d="M17.305 47.947L15.3 46.733l7.693-12.613 9.075 1.623 6.63-13.448 8.02 2.586 6.34-11.546 2.06 1.123-7.273 13.244-7.937-2.559-6.514 13.213-9.231-1.65z" transform="translate(184 86)"/>
        </g>
    </g>
</svg>
