<svg width="64" height="64" viewBox="0 0 64 64" fill="none" xmlns="http://www.w3.org/2000/svg">
<path d="M64 32C64 49.673 49.673 64 32 64C14.3269 64 0 49.673 0 32C0 14.3269 14.3269 0 32 0C49.673 0 64 14.3269 64 32Z" fill="#F9CE58"/>
<path fill-rule="evenodd" clip-rule="evenodd" d="M35.2006 35.2C35.2006 36.9673 33.768 38.4 32.0006 38.4C30.2333 38.4 28.8006 36.9673 28.8006 35.2V19.2C28.8006 17.4327 30.2333 16 32.0006 16C33.768 16 35.2006 17.4327 35.2006 19.2V35.2ZM35.2005 48.0005C35.2005 49.7678 33.7679 51.2005 32.0005 51.2005C30.2332 51.2005 28.8005 49.7678 28.8005 48.0005C28.8005 46.2331 30.2332 44.8005 32.0005 44.8005C33.7679 44.8005 35.2005 46.2331 35.2005 48.0005Z" fill="#192833"/>
</svg>
