<svg xmlns="http://www.w3.org/2000/svg" xmlns:xlink="http://www.w3.org/1999/xlink" width="64" height="64" viewBox="0 0 64 64">
    <defs>
        <path id="abl2atprra" d="M4 32C4 16.536 16.536 4 32 4s28 12.536 28 28-12.536 28-28 28S4 47.464 4 32zm3.003.413L7 32C7 18.193 18.193 7 32 7s25 11.193 25 25-11.193 25-25 25C18.33 57 7.224 46.03 7.003 32.413z"/>
    </defs>
    <g fill="none" fill-rule="evenodd">
        <g>
            <g>
                <g>
                    <path fill="#3C80EF" fill-rule="nonzero" d="M0 32C0 14.327 14.327 0 32 0c17.673 0 32 14.327 32 32 0 17.673-14.327 32-32 32C14.327 64 0 49.673 0 32zm3.004.48L3 32C3 15.984 15.984 3 32 3s29 12.984 29 29-12.984 29-29 29C16.144 61 3.26 48.275 3.004 32.48z" transform="translate(-6863.000000, -2087.000000) translate(6695.000000, 2063.000000) translate(168.000000, 24.000000)"/>
                    <g fill="#FFF" fill-rule="nonzero" transform="translate(-6863.000000, -2087.000000) translate(6695.000000, 2063.000000) translate(168.000000, 24.000000)">
                        <use xlink:href="#abl2atprra"/>
                        <use xlink:href="#abl2atprra"/>
                    </g>
                    <path fill="#2A466E" d="M45.6 47.341c-.77-6.83-6.563-12.14-13.6-12.14-7.036 0-12.83 5.31-13.601 12.14h27.202z" transform="translate(-6863.000000, -2087.000000) translate(6695.000000, 2063.000000) translate(168.000000, 24.000000)"/>
                    <path fill="#3C80EF" fill-rule="nonzero" d="M18.399 47.341s11.476-8.46 27.202 0H18.399z" transform="translate(-6863.000000, -2087.000000) translate(6695.000000, 2063.000000) translate(168.000000, 24.000000)"/>
                    <path fill="#2A466E" d="M14.74 32.517c-.405 0-.804-.18-1.072-.523-.46-.59-.354-1.443.237-1.904l4.615-3.596-4.77-2.805c-.646-.38-.862-1.212-.482-1.857.38-.646 1.211-.862 1.857-.482l6.491 3.818c.387.228.637.633.666 1.081.03.449-.166.882-.52 1.159l-6.19 4.822c-.247.193-.541.287-.833.287M49.26 32.517c-.29 0-.585-.094-.832-.287l-6.19-4.822c-.354-.277-.549-.71-.52-1.159.03-.448.279-.853.666-1.08l6.491-3.819c.645-.38 1.477-.164 1.857.482.38.645.164 1.477-.481 1.857l-4.771 2.805 4.615 3.596c.591.46.697 1.313.237 1.904-.268.343-.667.523-1.071.523" transform="translate(-6863.000000, -2087.000000) translate(6695.000000, 2063.000000) translate(168.000000, 24.000000)"/>
                </g>
            </g>
        </g>
    </g>
</svg>
