<svg xmlns="http://www.w3.org/2000/svg" xmlns:xlink="http://www.w3.org/1999/xlink" width="240" height="522" viewBox="0 0 240 522">
    <defs>
        <path id="rmf716vada" d="M0 0H240V521.774H0z"/>
        <path id="ewy8avxjag" d="M0 0L189 0 189 4 0 4z"/>
        <path id="q1vaxwf3ik" d="M0 0H144V157H0z"/>
        <path id="v6wqcgf6dr" d="M17.479 74.713c-1.58-.893-6.872 1.24-6.872 5.552C7.797 70.672 0 57.689 0 43.5 3.575 31.13 12.9 11.629 14.982 8.568 16.371 6.528 23.25 3.672 35.62 0c2.767 3.033 6.046 4.55 9.837 4.55 5.687 0 5.985-3.498 7.505-3.68 1.519-.183 10.125 3.68 14.37 7.79 4.245 4.109 8.79 20.272 19.956 32.819C98.455 54.026 102.46 62.779 108 67.494c-2.032 1.825-4.786 2.889-4.786 7.22-2.005-1.475-13.193-9.193-22.676-18.176-9.483-8.984-13.688-16.455-15.12-17.466-1.645-1.163 2.075 34.82 1.914 41.193C67.172 86.637 45.327 87 38.496 87c-6.83 0-17.395-2.371-20.107-4.71-.447-.385.724-50.978 0-48.855-1.838 5.386-6.107 8.044-6.107 11.59 0 8.244 5.207 30.269 5.197 29.688z"/>
        <path id="eshn0lh5jx" d="M1.12.03L.968.06l-.16.033-.163.033L.48.16.32.193.167.224l-.145.03H.019.017L.015.256H.012L.01.258H.007.005L.003.258 0 .273 1.264.015 1.266 0l-.145.03"/>
        <path id="y70rjrjcgz" d="M1.13.027L.99.055l-.147.03-.15.03C.649.125.589.136.544.145l-.147.03-.142.029L.121.23.107.233.092.236.076.24.061.243.045.246.029.249.014.252 0 .255c1.86.49 2.797 2.481 2.468 4.362l1.264-.255C4.06 2.482 3.124.491 1.264 0L1.13.027"/>
        <path id="p0nsy70huB" d="M1.264.049L0 .306C.345.236.726.238 1.137.34l.068.017L2.47.1C2.447.092 2.424.087 2.401.08 2.174.026 1.956 0 1.749 0c-.169 0-.33.017-.485.049"/>
        <path id="36ezrrp3cD" d="M2.115.255C2.077.51 1.773 2.205 0 3.926l1.263-.254C3.037 1.95 3.34.255 3.38 0"/>
        <path id="lzee8f08hF" d="M1.438.014l-.146.03-.154.032L.98.108.82.14.664.172.509.204C.465.213.406.224.363.234L.29.247.284.25H.278L.272.253C.262.254.252.253.244.258.166.335.084.412 0 .488L1.264.232c.07-.064.138-.128.204-.192l-.148.03-.156.032-.162.033-.166.034-.165.034L.51.235.353.267l-.148.03L1.468.039 1.508 0l-.07.014"/>
        <path id="32tc73zj0H" d="M1.964.255C1.036.442.36 1.15 0 1.894l1.264-.255C1.624.895 2.3.187 3.228 0"/>
        <path id="llmv3trmcJ" d="M1.116.03L.959.06.797.094.632.127.466.161.304.193.148.225C.103.235.044.245 0 .255.577.85.865 1.66.93 2.389l1.265-.255C2.128 1.407 1.84.595 1.264 0c-.045.009-.104.02-.148.03"/>
        <path id="fjrxojdzxL" d="M1.264.056L0 .31C.401.23.832.234 1.282.343c.57.137 1.02.417 1.367.774L3.913.863C3.566.505 3.115.225 2.545.088 2.3.028 2.057 0 1.823 0c-.192 0-.379.019-.56.056"/>
        <path id="450ozhnbtN" d="M6.022.037L5.89.064 5.756.09l-.135.028-.134.027-.131.026-.125.026L5.16.21 5.13.217l-.03.006-.029.006-.03.006-.03.006-.057.011c-.004.001-.01.001-.013.003C3.86 1.232 2.286 2.197 0 2.89h.001l1.263-.255C3.549 1.942 5.124.977 6.206 0l-.184.037"/>
        <path id="ddbecpsmqP" d="M2.548.255C1.244.518.26 1.688 0 3.147l1.264-.255C1.524 1.432 2.508.263 3.81 0"/>
        <path id="wkn6kdvuxR" d="M.08.255C-.003.66-.734 4.82 4.544 9.629l1.263-.255C.53 4.566 1.26.406 1.344 0"/>
        <path id="s2119tmynT" d="M7.982.255C4.132 1.032.967 4.21.182 8.612c-1.052 5.898 2.57 11.759 8.09 13.09 1.4.338 2.788.352 4.097.088l1.264-.255c-1.31.264-2.698.25-4.098-.088-5.52-1.331-9.142-7.192-8.09-13.09C2.231 3.955 5.396.777 9.246 0"/>
        <path id="fpveitfr8Z" d="M4.437 0L.707 3.682C.49 3.898.253 4.097 0 4.28L3.73.598"/>
        <path id="skmhmvgelab" d="M5.56 0C4.137 1.405 3.476 3.467 3.819 5.59c.226 1.42.737 3.21 1.334 5.002l.113.336.114.335.116.334.058.167.118.332c1.16 3.251 2.418 6.157 2.527 6.407.183.424 3.672 8.476 6.485 12.163l-3.73 3.682c-2.812-3.687-6.302-11.74-6.485-12.163-.057-.132-.432-.996-.942-2.259l-.101-.249c-.579-1.44-1.308-3.332-1.947-5.236l-.112-.335-.055-.168-.108-.336C.703 12.04.287 10.515.089 9.272c-.342-2.123.318-4.185 1.74-5.59"/>
        <path id="14heu7vjcad" d="M0 0L49.505 0 49.505 17.693 0 17.693z"/>
        <path id="x16g2pugoaf" d="M3.363.559L0 4c.228-.17.44-.357.638-.56L4 0c-.197.202-.41.389-.637.559"/>
        <path id="im1gu6qemah" d="M1.87 3.645C.414 5.035-.26 7.076.09 9.179c.723 4.39 4.288 12.361 4.475 12.78.188.42 3.752 8.391 6.625 12.041L15 30.355c-2.873-3.65-6.437-11.62-6.625-12.04-.187-.42-3.752-8.39-4.474-12.782C3.55 3.432 4.226 1.39 5.68 0"/>
        <path id="fb62db5k0aj" d="M0 0L59 0 59 48 0 48z"/>
        <linearGradient id="y9ypfewk1c" x1="79.829%" x2="24.728%" y1="10.794%" y2="145.942%">
            <stop offset="0%" stop-color="#CFDDF3"/>
            <stop offset="100%" stop-color="#A1B8E3"/>
        </linearGradient>
        <linearGradient id="r7xhwkg29d" x1="109.017%" x2="0%" y1="34.123%" y2="88.852%">
            <stop offset="0%" stop-color="#CFDDF3"/>
            <stop offset="100%" stop-color="#A1B8E3"/>
        </linearGradient>
        <linearGradient id="dkseca1y9e" x1="59.754%" x2="52.345%" y1="77.543%" y2="43.921%">
            <stop offset="0%" stop-color="#CFDDF3" stop-opacity="0"/>
            <stop offset="0%" stop-color="#CFDDF3" stop-opacity=".06"/>
            <stop offset="36%" stop-color="#CCDBF2"/>
            <stop offset="100%" stop-color="#A1B8E3"/>
        </linearGradient>
        <linearGradient id="66giol4lgf" x1="0%" x2="100%" y1="50.009%" y2="50.009%">
            <stop offset="0%" stop-color="#E5EDFF"/>
            <stop offset="100%" stop-color="#6B9AD9"/>
        </linearGradient>
        <linearGradient id="55n99kspoj" x1="58.215%" x2="-25.511%" y1="22.423%" y2="297.105%">
            <stop offset="0%" stop-color="#F7FAFF"/>
            <stop offset="100%" stop-color="#6B9AD9"/>
        </linearGradient>
        <linearGradient id="6hui1vuarm" x1="107.254%" x2="38.27%" y1="-120.462%" y2="-120.462%">
            <stop offset="0%" stop-color="#FAD0BA"/>
            <stop offset="100%" stop-color="#F2A384"/>
        </linearGradient>
        <linearGradient id="dooeymcaln" x1="107.254%" x2="38.27%" y1="-120.462%" y2="-120.462%">
            <stop offset="0%" stop-color="#FAD0BA"/>
            <stop offset="100%" stop-color="#F2A384"/>
        </linearGradient>
        <linearGradient id="fhtz84v84o" x1="42.643%" x2="67.286%" y1="31.242%" y2="87.113%">
            <stop offset="0%" stop-color="#84F0A8"/>
            <stop offset="100%" stop-color="#48B676"/>
        </linearGradient>
        <linearGradient id="v8zzt2vu9p" x1="107.254%" x2="38.27%" y1="-120.462%" y2="-120.462%">
            <stop offset="0%" stop-color="#FAD0BA"/>
            <stop offset="100%" stop-color="#F2A384"/>
        </linearGradient>
        <linearGradient id="sf3adkom5q" x1="107.254%" x2="38.27%" y1="-120.462%" y2="-120.462%">
            <stop offset="0%" stop-color="#FAD0BA"/>
            <stop offset="100%" stop-color="#F2A384"/>
        </linearGradient>
        <linearGradient id="nu8ngo10ws" x1="69.187%" x2="11.597%" y1="32.266%" y2="81.962%">
            <stop offset="0%" stop-color="#3485F7"/>
            <stop offset="100%" stop-color="#1A57CF"/>
        </linearGradient>
        <linearGradient id="5jjur6jvkt" x1="46.616%" x2="53.384%" y1="107.338%" y2="6.301%">
            <stop offset="0%" stop-color="#EAF0F7" stop-opacity=".116"/>
            <stop offset="100%" stop-color="#D1DDED"/>
        </linearGradient>
        <linearGradient id="au0pu0gbsv" x1="72.989%" x2="45.134%" y1="33.934%" y2="50%">
            <stop offset="0%" stop-color="#EAF0F7" stop-opacity=".116"/>
            <stop offset="100%" stop-color="#D1DDED"/>
        </linearGradient>
        <linearGradient id="evgjog4hzw" x1="42.643%" x2="67.286%" y1="16.652%" y2="115.978%">
            <stop offset="0%" stop-color="#84F0A8"/>
            <stop offset="100%" stop-color="#48B676"/>
        </linearGradient>
        <linearGradient id="b2jpt4s7vV" x1="50%" x2="-33.859%" y1="25.235%" y2="174.745%">
            <stop offset="0%" stop-color="#EEF3FF"/>
            <stop offset="100%" stop-color="#6B9AD9"/>
        </linearGradient>
        <linearGradient id="m1p1urvguW" x1="50.498%" x2="49.73%" y1="77.543%" y2="-2.014%">
            <stop offset="0%" stop-color="#CFDDF3"/>
            <stop offset="36%" stop-color="#CCDBF2"/>
            <stop offset="100%" stop-color="#A1B8E3"/>
        </linearGradient>
        <linearGradient id="19x9hzs8vX" x1="61.085%" x2="19.054%" y1="117.164%" y2="-168.856%">
            <stop offset="0%" stop-color="#CFDDF3"/>
            <stop offset="6%" stop-color="#CCDBF2"/>
            <stop offset="18%" stop-color="#CFDDF3"/>
            <stop offset="100%" stop-color="#A1B8E3"/>
        </linearGradient>
        <linearGradient id="qgoolm73fY" x1="90.209%" x2="-20.769%" y1="102.847%" y2="-21.314%">
            <stop offset="0%" stop-color="#CFDDF3"/>
            <stop offset="36%" stop-color="#CCDBF2"/>
            <stop offset="100%" stop-color="#A1B8E3"/>
        </linearGradient>
        <linearGradient id="k41rq77sgal" x1="50%" x2="-33.859%" y1="24.66%" y2="177.644%">
            <stop offset="0%" stop-color="#EEF3FF"/>
            <stop offset="100%" stop-color="#6B9AD9"/>
        </linearGradient>
        <linearGradient id="syfm8u365am" x1="140.584%" x2="25.163%" y1="6.026%" y2="122.778%">
            <stop offset="0%" stop-color="#E5EDFF"/>
            <stop offset="100%" stop-color="#6B9AD9"/>
        </linearGradient>
        <linearGradient id="p35ryoc21an" x1="50%" x2="-17.284%" y1="19.686%" y2="294.476%">
            <stop offset="0%" stop-color="#F7FAFF"/>
            <stop offset="100%" stop-color="#6B9AD9"/>
        </linearGradient>
        <filter id="0ht0dxdx2i" width="120.5%" height="120.5%" x="-10.3%" y="-10.3%" filterUnits="objectBoundingBox">
            <feOffset dy="1" in="SourceAlpha" result="shadowOffsetOuter1"/>
            <feGaussianBlur in="shadowOffsetOuter1" result="shadowBlurOuter1" stdDeviation=".5"/>
            <feColorMatrix in="shadowBlurOuter1" result="shadowMatrixOuter1" values="0 0 0 0 0.716553584 0 0 0 0 0.761905502 0 0 0 0 0.797809103 0 0 0 1 0"/>
            <feMerge>
                <feMergeNode in="shadowMatrixOuter1"/>
                <feMergeNode in="SourceGraphic"/>
            </feMerge>
        </filter>
    </defs>
    <g fill="none" fill-rule="evenodd">
        <g>
            <path fill="#E2E9F1" fill-rule="nonzero" d="M0 0H240V522H0z"/>
            <mask id="qp7ud8ukfb" fill="#fff">
                <use xlink:href="#rmf716vada"/>
            </mask>
            <use fill="#E2E9F1" opacity=".7" xlink:href="#rmf716vada"/>
            <g fill-rule="nonzero" mask="url(#qp7ud8ukfb)">
                <g>
                    <path fill="url(#y9ypfewk1c)" d="M45.099 122.047c6.383-3.926 10.742-10.404 11.95-17.762.8-5.29 0-11.11 3.007-15.57 3.578-5.441 11-6.461 17.356-7.897C83.768 79.382 91.076 75.414 91 68.914c0-8.616-12.599-11.79-15.53-19.916-1.225-5.198.04-10.667 3.426-14.813 3.34-4.083 5.988-8.678 7.84-13.605 1.714-6.697-.953-13.745-6.684-17.665s-13.314-3.883-19.006.093C49.894 10.83 51.416 29.46 40.341 37.32c-6.622 4.762-16.86 4.913-20.819 12.055-5.024 9.032 4.986 20.558 1.37 30.232-2.36 6.236-9.324 9.183-14.082 13.831-7.114 7.255-8.839 18.18-4.3 27.247 4.985 9.41 11.418 7.823 20.21 5.669 7.65-1.89 15.185 0 22.379-4.308z" opacity=".6" transform="rotate(34 -38.272 363.22)"/>
                    <path fill="#FFF" fill-opacity=".6" d="M77.002 64.459c-10.73-1.34-21.613.695-31.114 5.819.952-2.72 1.904-5.403 2.818-8.086l9.483-27.733 15.233-7.557c.263-.135.379-.446.267-.718-.15-.267-.488-.367-.762-.227L58.532 32.91l4.074-11.902c.095-.282-.058-.586-.342-.68-.284-.094-.591.058-.686.34l-14.052 41.07c-2.057 5.97-4.151 12.054-6.513 18.061-1.327-9.612-6.002-18.46-13.214-25.013-.1-.101-.238-.158-.381-.158-.144 0-.28.057-.381.158-.113.094-.179.232-.179.378s.066.285.179.378c7.148 6.441 11.74 15.205 12.948 24.71.036.27.26.476.533.492-1.333 3.362-2.704 6.687-4.227 9.975-4.458 9.502-9.922 18.507-16.3 26.864.947-7.173-3.175-14.057-9.977-16.663-.13-.06-.281-.063-.413-.005-.131.059-.231.17-.273.307-.103.272.033.575.305.68 6.628 2.51 10.56 9.302 9.406 16.248-.033.245.11.48.343.566-3.13 4.1-6.472 8.035-10.016 11.789-.102.1-.16.235-.16.378 0 .142.058.278.16.377.123.047.259.047.381 0 .135.053.284.053.42 0 6.722-7.124 12.73-14.881 17.936-23.16 5.65-2.692 11.762-4.295 18.013-4.724.142-.01.274-.075.367-.181.093-.106.139-.245.129-.386.001-.144-.061-.282-.171-.377-.11-.094-.257-.136-.4-.114-5.91.413-11.698 1.858-17.1 4.27 3.077-4.878 5.874-9.924 8.378-15.114 2.97-6.385 5.484-12.997 7.617-19.572 9.547-5.35 20.58-7.496 31.457-6.12.143.033.294.002.411-.085.118-.088.19-.223.198-.369.13-.108.204-.267.204-.434 0-.168-.075-.327-.204-.435z" transform="rotate(34 -38.272 363.22)"/>
                    <path fill="url(#r7xhwkg29d)" d="M38.514 140.927c4.262.396 8.49-1.053 11.619-3.98 2.211-2.14 3.748-5.07 6.784-6.084 3.523-1.239 7.234.864 10.645 2.404 3.41 1.54 8.096 2.29 10.307-.714 2.961-3.98-1.611-9.763 0-14.494 1.246-2.81 3.726-4.878 6.71-5.596 2.944-.721 5.754-1.913 8.32-3.53 3.11-2.472 4.353-6.624 3.115-10.403-1.238-3.78-4.694-6.386-8.662-6.532-7.759-.3-13.568 8.712-21.327 8.487-4.685 0-9.408-3.755-13.68-1.69-5.435 2.403-4.91 11.265-9.933 14.307-3.224 2.028-7.496.939-11.245 1.427-5.789.853-10.405 5.282-11.506 11.04-1.012 6.008 2.548 7.51 7.196 9.613 4.648 2.102 6.86 5.031 11.657 5.745z" opacity=".6" transform="rotate(34 -38.272 363.22)"/>
                    <path fill="#D6E3FA" d="M73.834 127.187c-4.401-4.277-10.059-7.085-16.172-8.027l4.08-2.687 13.964-9.205 9.584 1.693c.165 0 .299-.132.299-.294 0-.163-.134-.295-.3-.295l-8.984-1.583 5.952-3.94c.1-.13.1-.31 0-.442-.128-.112-.321-.112-.449 0l-20.665 13.624c-3.032 1.988-6.102 4.013-9.246 5.928 2.753-4.778 3.72-10.353 2.733-15.76-.018-.079-.068-.147-.139-.19-.07-.041-.156-.052-.236-.03-.149.046-.253.178-.262.331.992 5.323.023 10.818-2.733 15.501-.093.12-.093.286 0 .405-1.796 1.031-3.743 2.1-5.39 3.02-5.323 2.76-10.933 4.945-16.734 6.517 1.365-1.388 2.244-3.168 2.508-5.081.278-2.05-.172-4.13-1.273-5.891-.057-.064-.138-.1-.224-.1s-.168.036-.225.1c-.11.113-.11.29 0 .405 2.126 3.385 1.53 7.774-1.423 10.493v.368c-2.845.737-5.727 1.4-8.647 1.878-.162.05-.27.201-.262.368.082.04.18.04.262 0 5.519-.903 10.935-2.334 16.172-4.27 3.626.72 7.072 2.134 10.145 4.16.133.098.316.098.45 0 .093-.12.093-.286 0-.405-2.819-1.813-5.934-3.133-9.21-3.903 3.112-1.156 6.15-2.496 9.097-4.013 3.582-1.953 7.056-4.091 10.407-6.407 6.188.83 11.93 3.623 16.36 7.953.08.079.197.11.306.08.11-.028.196-.112.225-.22.03-.108-.002-.223-.082-.302l.112.221z" transform="rotate(34 -38.272 363.22)"/>
                </g>
            </g>
            <path fill="url(#dkseca1y9e)" d="M148.084 426.453h-474.419V82.003c18.956-2.005 38.056 1.936 54.814 11.309 39.434 21.96 75.082-21.724 77.558-91.517 2.145-60.523 78.156-92.654 122.514-39.437 61.181 73.421 66.466-.235 66.466-.235L4.98-45.42C51.881 79.944-165.298 20.293-13.399 135.044c54.682 41.33 64.407 73.382 62.282 120.9-2.847 62.83 53.713 87.868 99.2 97.843v72.666z" mask="url(#qp7ud8ukfb)" opacity=".344"/>
            <path fill="#F2F2F2" d="M186.655 235H54.345C53.05 235 52 233.957 52 232.671v-85.342c0-1.286 1.05-2.329 2.345-2.329h132.31c1.295 0 2.345 1.043 2.345 2.329v85.342c0 1.286-1.05 2.329-2.345 2.329" mask="url(#qp7ud8ukfb)"/>
            <path fill="#273D57" fill-rule="nonzero" d="M52 232.867v-84.734c0-1.178.96-2.133 2.146-2.133h131.708c1.185 0 2.146.955 2.146 2.133v84.734c0 1.178-.96 2.133-2.146 2.133H54.146c-1.186 0-2.146-.955-2.146-2.133" mask="url(#qp7ud8ukfb)" opacity=".9"/>
            <path fill="url(#66giol4lgf)" fill-rule="nonzero" d="M183 230L58 230 58 151 183 151z" mask="url(#qp7ud8ukfb)"/>
            <path fill="#FFF" d="M210.164 260H30.837c-3.544 0-5.586-.77-4.58-1.701L51.53 234.88c.529-.49 2.985-.881 5.494-.881h126.952c2.51 0 4.966.391 5.495.881l25.273 23.418c1.005.931-1.037 1.701-4.58 1.701" mask="url(#qp7ud8ukfb)"/>
            <g mask="url(#qp7ud8ukfb)">
                <g transform="translate(26 258)">
                    <mask id="naqk6o18fh" fill="#fff">
                        <use xlink:href="#ewy8avxjag"/>
                    </mask>
                    <path fill="#C5D7F3" fill-rule="nonzero" d="M189 0c-.012.683-1.911 1.19-4.835 1.19H4.835C1.961 1.19.077.7 0 .036v2.786C.035 3.5 1.928 4 4.834 4h179.331c2.913 0 4.808-.503 4.832-1.183l.003-.77V0z" style="mix-blend-mode:multiply" mask="url(#naqk6o18fh)" opacity=".744"/>
                </g>
            </g>
            <path fill="#C5D7F3" fill-rule="nonzero" d="M195.508 248H45.492c-1.037 0-1.682-.204-1.442-.455l12.68-13.232c.166-.173.994-.313 1.85-.313h123.84c.856 0 1.684.14 1.85.313l12.68 13.232c.24.25-.405.455-1.442.455" style="mix-blend-mode:multiply" mask="url(#qp7ud8ukfb)" opacity=".2"/>
            <path fill="#C5D7F3" fill-rule="nonzero" d="M143.038 258H97.962c-1.167 0-2.042-.246-1.956-.548l1.999-6.996c.072-.252.989-.456 2.047-.456h40.896c1.058 0 1.975.204 2.047.456l2 6.996c.085.302-.79.548-1.957.548" style="mix-blend-mode:multiply" mask="url(#qp7ud8ukfb)" opacity=".946"/>
            <path fill="#273D57" fill-rule="nonzero" d="M68.288 245c.46 0 .775.11.701.248l-1.324 2.488c-.078.146-.526.264-1.001.264h-5.95c-.475 0-.788-.118-.699-.264l1.528-2.488c.085-.137.526-.248.986-.248h5.76zm-12.024 0c.491 0 .814.11.72.248l-1.701 2.488c-.1.146-.592.264-1.1.264h-6.445c-.508 0-.828-.118-.716-.264l1.921-2.488c.106-.137.59-.248 1.081-.248h6.24zm21.976 0c.476 0 .813.11.753.248l-1.092 2.488c-.064.146-.514.264-1.006.264h-6.131c-.492 0-.83-.118-.753-.264l1.301-2.488c.073-.137.516-.248.993-.248h5.935zm101.228 0c.46 0 .902.11.986.248l1.53 2.489c.09.145-.223.263-.698.263h-5.947c-.475 0-.924-.118-1.001-.263l-1.327-2.489c-.074-.137.24-.248.7-.248h5.757zm-8.93 1c.456 0 .884.15.954.337l.498 1.317c.072.19-.246.346-.711.346h-5.905c-.465 0-.89-.155-.95-.346l-.417-1.317c-.059-.186.264-.337.721-.337h5.81zm20.748 0c.45 0 .895.15.994.337l.7 1.317c.101.19-.188.346-.646.346h-5.706c-.458 0-.902-.155-.992-.346l-.62-1.317c-.088-.186.206-.337.656-.337h5.614zm-102.024-1c.446 0 .775.11.735.248l-.741 2.488c-.044.146-.453.264-.914.264H81.74c-.461 0-.79-.118-.734-.264l.96-2.488c.053-.137.458-.248.905-.248h6.39zm69.867 0c.447 0 .852.11.904.248l.96 2.489c.057.145-.272.263-.733.263h-6.602c-.461 0-.87-.118-.914-.263l-.74-2.489c-.041-.137.287-.248.734-.248h6.39zm-11.841 0c.491 0 .923.11.964.248l.745 2.489c.043.145-.333.263-.84.263H93.843c-.508 0-.884-.118-.84-.263l.744-2.489c.041-.137.472-.248.964-.248h52.576zm-81.01-5c.484 0 .8.132.705.295l-.406.705h2.286l.37-.751c.067-.138.472-.249.903-.249h6.178c.432 0 .736.111.68.249l-.311.751h2.02l.302-.751c.055-.138.46-.249.905-.249h6.36c.445 0 .77.111.726.249l-.242.751h2.721l.205-.751c.037-.138.398-.249.804-.249h5.826c.407 0 .716.111.688.249l-.149.751h4.468l.136-.751c.025-.138.386-.249.806-.249h6.006c.42 0 .749.111.735.249l-.08.751h3.229l.064-.751c.012-.138.373-.249.806-.249h6.198c.434 0 .784.111.783.249l-.005.751h3.017l-.012-.751c-.002-.138.346-.249.778-.249h6.18c.432 0 .793.111.806.249l.07.751h2.252l-.085-.751c-.016-.138.31-.249.729-.249h5.99c.418 0 .779.111.805.249l.142.751h3.489l-.154-.751c-.028-.138.278-.249.684-.249h5.809c.406 0 .766.111.805.249l.209.751h2.742l-.247-.751c-.045-.138.277-.249.721-.249h6.343c.444 0 .849.111.905.249l.307.751h3.043l-.316-.751c-.058-.138.244-.249.675-.249h6.16c.431 0 .836.111.905.249l.374.751h2.277l-.382-.705c-.08-.148.153-.27.532-.292l.118-.003h8.757c.447 0 .895.132 1.001.295l.457.705h2.134c.453 0 .91.107 1.088.247l.048.048 1.82 2.393c.13.172-.185.312-.706.312h-16.768c-.52 0-1.021-.14-1.12-.312l-.391-.688h-2.34l.345.737c.067.145-.242.263-.69.263h-6.424c-.449 0-.858-.118-.914-.263l-.283-.737h-2.96l.274.737c.054.145-.277.263-.74.263h-6.623c-.463 0-.872-.118-.914-.263l-.211-.737h-2.708l.199.737c.04.145-.316.263-.794.263h-6.834c-.478 0-.887-.118-.913-.263l-.135-.737h-4.428l.106.737c.021.145-.317.263-.756.263h-6.274c-.438 0-.801-.118-.81-.263l-.048-.737h-3.141l.03.737c.006.145-.352.263-.8.263h-6.4c-.448 0-.806-.118-.8-.263l.03-.737h-3.143l-.046.737c-.01.145-.372.263-.81.263h-6.274c-.438 0-.777-.118-.756-.263l.105-.737h-2.428l-.134.737c-.026.145-.435.263-.913.263h-6.834c-.478 0-.833-.118-.794-.263l.198-.737h-2.707l-.21.737c-.043.145-.452.263-.915.263h-6.623c-.463 0-.794-.118-.74-.263l.273-.737h-2.96l-.282.737c-.056.145-.465.263-.914.263h-6.424c-.449 0-.757-.118-.69-.263l.344-.737h-3.34l-.39.688c-.09.157-.512.286-.979.309l-.141.003H50.735c-.52 0-.836-.14-.705-.312l1.819-2.393c.123-.163.632-.295 1.136-.295h1.221l.494-.705c.103-.146.505-.268.936-.291l.145-.004zm19.078-3c.394 0 .68.074.64.166l-.732 1.659c-.043.097-.406.175-.812.175h-5.807c-.405 0-.692-.078-.639-.175l.904-1.659c.05-.092.41-.166.805-.166h5.64zm-19.993 0c.427 0 .706.088.622.197l-1.226 1.596c-.088.114-.516.207-.955.207h-7.171c-.44 0-.714-.093-.612-.207l1.425-1.596c.097-.11.522-.197.95-.197zm30.953 0c.406 0 .711.074.682.166l-.525 1.659c-.03.097-.394.175-.812.175h-5.975c-.418 0-.723-.078-.682-.175l.702-1.659c.039-.092.399-.166.805-.166h5.805zm9.957 0c.418 0 .743.074.726.166l-.305 1.659c-.018.097-.381.175-.811.175h-6.154c-.43 0-.756-.078-.727-.175l.487-1.659c.027-.092.388-.166.806-.166h5.978zm20.752 0c.434 0 .794.074.804.166l.17 1.659c.01.097-.344.175-.791.175h-6.4c-.447 0-.81-.078-.808-.175l.018-1.659c.001-.092.354-.166.789-.166h6.218zm-9.798 0c.431 0 .777.074.773.166l-.073 1.659c-.004.097-.367.175-.81.175h-6.341c-.444 0-.79-.078-.776-.175l.26-1.659c.015-.092.376-.166.807-.166h6.16zm19.562 0c.423 0 .783.074.806.166l.404 1.659c.023.097-.31.175-.745.175h-6.223c-.435 0-.798-.078-.81-.175l-.22-1.659c-.013-.092.32-.166.742-.166h6.046zm9.78 0c.41 0 .77.074.805.166l.623 1.659c.036.097-.277.175-.699.175h-6.04c-.423 0-.786-.078-.812-.175l-.445-1.659c-.024-.092.289-.166.699-.166h5.869zm10.792 0c.398 0 .758.074.804.166l.83 1.659c.048.097-.245.175-.655.175h-5.869c-.41 0-.774-.078-.812-.175l-.656-1.659c-.036-.092.257-.166.656-.166h5.702zm9.803 0c.387 0 .747.074.804.166l1.024 1.659c.06.097-.215.175-.614.175h-5.705c-.398 0-.762-.078-.812-.175l-.856-1.659c-.047-.092.229-.166.616-.166h5.543zm16.217 0c.467 0 .932.088 1.038.197l1.558 1.596c.111.114-.188.207-.668.207h-12.017c-.48 0-.943-.093-1.032-.207l-1.246-1.596c-.085-.11.225-.197.692-.197zm-107.988 0c.383 0 .652.074.6.166l-.927 1.659c-.054.097-.418.175-.812.175h-5.646c-.394 0-.662-.078-.599-.175l1.095-1.659c.06-.092.42-.166.804-.166h5.485zm-.077-2c.432 0 .736.075.677.169l-.415.658c-.06.096-.464.173-.903.173h-5.997c-.44 0-.738-.077-.668-.173l.484-.658c.069-.094.475-.169.907-.169h5.915zm-9.973 0c.427 0 .717.075.646.169l-.498.658c-.072.096-.482.173-.915.173H58.65c-.433 0-.718-.077-.636-.173l.567-.658c.08-.094.492-.169.919-.169h5.843zm18.944 0c.438 0 .755.075.709.169l-.33.658c-.047.096-.445.173-.89.173h-6.07c-.444 0-.757-.077-.7-.173l.4-.658c.056-.094.457-.169.895-.169h5.986zm9.97 0c.443 0 .775.075.74.169l-.24.658c-.035.096-.427.173-.877.173h-6.144c-.45 0-.777-.077-.732-.173l.312-.658c.044-.094.439-.169.882-.169h6.059zm19.037 0c.397 0 .713.075.706.169l-.05.658c-.008.096-.34.173-.743.173H107.7c-.403 0-.716-.077-.7-.173l.115-.658c.016-.094.351-.169.749-.169h5.43zm-8.068 0c.448 0 .794.075.773.169l-.15.658c-.022.096-.408.173-.863.173h-6.219c-.455 0-.797-.077-.765-.173l.222-.658c.032-.094.42-.169.87-.169h6.132zm17.009 0c.4 0 .728.075.733.169l.032.658c.005.096-.32.173-.726.173h-5.548c-.406 0-.73-.077-.726-.173l.032-.658c.005-.094.333-.169.733-.169h5.47zm10.902 0c.397 0 .732.075.748.169l.114.658c.017.096-.296.173-.699.173h-5.507c-.403 0-.735-.077-.742-.173l-.05-.658c-.008-.094.308-.169.705-.169h5.43zm9.77 0c.448 0 .837.075.868.169l.223.658c.032.096-.31.173-.765.173h-6.219c-.455 0-.841-.077-.863-.173l-.15-.658c-.021-.094.325-.169.773-.169h6.133zm8.895 0c.443 0 .838.075.882.169l.312.658c.045.096-.283.173-.732.173h-6.144c-.45 0-.842-.077-.877-.173l-.24-.658c-.035-.094.297-.169.74-.169h6.059zm9.897 0c.438 0 .839.075.895.169l.4.658c.057.096-.256.173-.7.173h-6.071c-.444 0-.842-.077-.89-.173l-.328-.658c-.047-.094.27-.169.708-.169h5.986zm9.9 0c.433 0 .838.075.907.169l.484.658c.07.096-.229.173-.668.173h-5.997c-.44 0-.843-.077-.903-.173l-.415-.658c-.058-.094.245-.169.677-.169h5.915zm9.901 0c.427 0 .839.075.92.169l.566.658c.082.096-.203.173-.636.173h-5.926c-.433 0-.843-.077-.915-.173l-.498-.658c-.07-.094.219-.169.646-.169h5.843z" mask="url(#qp7ud8ukfb)" opacity=".651"/>
            <g filter="url(#0ht0dxdx2i)" mask="url(#qp7ud8ukfb)">
                <g transform="translate(35 126)">
                    <rect width="39" height="39" fill="url(#55n99kspoj)" fill-rule="nonzero" rx="19.5"/>
                    <g>
                        <g fill="#ED3D48">
                            <path d="M8.736 14.326L5.808 9.43 11.617 0 17.478 0zM11.742 19.242L8.736 14.326 19.533 14.326 22.414 19.242zM3.469 13.639L6.985 19.242 0 19.242 3.416 13.639z" transform="translate(8.138 9.32)"/>
                        </g>
                    </g>
                </g>
            </g>
            <g mask="url(#qp7ud8ukfb)">
                <g transform="translate(61 73)">
                    <mask id="otv0pk3l7l" fill="#fff">
                        <use xlink:href="#q1vaxwf3ik"/>
                    </mask>
                    <g mask="url(#otv0pk3l7l)">
                        <g>
                            <path fill="url(#6hui1vuarm)" d="M35.82 34.586c1.07 7.954 1.275 12.583.615 13.886-.99 1.954.927 11.148 7.032 11.681 6.105.533 9.306-2.004 9.546-8.207.24-6.203.622-8.595 1.608-11.34.986-2.745-17.388-14.117-18.186-12.015-.532 1.402-.737 3.4-.615 5.995z" transform="translate(22 12)"/>
                            <path fill="url(#dooeymcaln)" d="M60.347 16.372c0 1.792.235 7.388.057 8.806-.177 1.418-.319 3.531-.16 6.261.16 2.73-1.237 9.444-2.796 11.876-.931 1.453-4.622 4.253-8.241 3.86-4.292-.467-8.984-4.672-9.486-6.775-.925-3.877-.158-7.297-2.825-9.357-2.666-2.06-4.61-3.974-4.37-7.154.24-3.18 2.978-10.75 4.37-11.068 1.392-.318 23.451 1.759 23.451 3.55z" transform="translate(22 12)"/>
                            <path fill="#203966" fill-rule="nonzero" d="M37.886 14.393c1.271 1.898 12.4 11.046 23.555 5.107 11.154-5.94-3.684-16.721-10.412-17.951-6.729-1.23-12.523-.547-16.593 5.04-4.07 5.588-6.11 15.163 1.851 28.154.35-2.062.526-3.435.526-4.122-3.169-2.868-3.96-5.54-2.377-8.018 2.377-3.716 3.163 3.57 3.45 4.74.946 0 1.541-.163 1.786-.489-.652-1.839-.89-3.54-.713-5.102.265-2.343 1.047-2.865-1.073-7.359z" transform="translate(22 12)"/>
                            <path fill="url(#fhtz84v84o)" fill-rule="nonzero" d="M15.818 152.471c0-2.889-3.372-21.814 3.578-27.5 6.95-5.685 15.548 2.61 47.213 3.866.521 12.71.521 21.658 0 26.844s-19.648 12.537-50.791-3.21z" transform="translate(22 12)"/>
                            <path fill="url(#v8zzt2vu9p)" d="M11.006 127.575c.744 3.207 3.207 6.633 4.037 7.373.83.74 3.848 1.656 4.418 1.478.57-.178 2.073-1.399 2.14-2.828.069-1.429-1.372-2.234-1.382-4.345-.01-2.112-3.62-5.174-3.62-7.042 0-1.868-6.337 2.158-5.593 5.364z" transform="translate(22 12)"/>
                            <path fill="url(#sf3adkom5q)" d="M103.97 123.511c2.24 2.887 3.697 3.392 4.537 4.253.839.86 2.76 3.9 3.473 3.393.713-.507 1.451-1.505.342-3.393-1.11-1.89-2.79-3.882-2.208-4.882.584-1 3.432-3.955 5.809-4.64 2.377-.687 3.167-.244 3.403-.612.237-.369-2.842-.904-4.111-1.042-1.27-.139-3.067-.298-5.66 0-1.729.198-2.933-.5-3.613-2.095-2.807 4.088-3.464 7.094-1.971 9.018z" transform="translate(22 12)"/>
                            <g transform="translate(22 12) translate(0 49)">
                                <mask id="svr0hh3nou" fill="#fff">
                                    <use xlink:href="#v6wqcgf6dr"/>
                                </mask>
                                <use fill="url(#nu8ngo10ws)" fill-rule="nonzero" xlink:href="#v6wqcgf6dr"/>
                                <path fill="url(#5jjur6jvkt)" d="M16.099 37.867l9.786-13.045c2.417 28.203-1.769 47.189-12.557 56.958-2.852-16.95-1.264-25.81 0-33.217.553-3.242 1.477-6.808 2.77-10.696z" style="mix-blend-mode:multiply" mask="url(#svr0hh3nou)"/>
                                <path fill="url(#au0pu0gbsv)" d="M19.362 84.726c3.653-10.735 20.07-46.092 27.097-51.134 7.027-5.041 7.556-11.548 7.291-20.185-.264-8.636-16.676-25.844-25.256-19.335C19.914.58-3.056 12.588-5.567 32.724-8.08 52.86 2.618 83.746 7.45 80.693c4.832-3.053 8.257 14.768 11.91 4.033z" style="mix-blend-mode:multiply" mask="url(#svr0hh3nou)" opacity=".162"/>
                            </g>
                            <path fill="url(#evgjog4hzw)" d="M36.919 43.275c0 1.91 3.024 7.245 8.863 7.042 5.84-.203 7.015-.357 7.678-3.203 0 4.217.228 5.462-.85 8.243-1.076 2.78-7.788 4.305-11.553 1.995-3.764-2.31-5.726-3.693-5.176-7.91.551-4.217 1.038-8.076 1.038-6.167z" transform="translate(22 12)"/>
                        </g>
                    </g>
                </g>
            </g>
            <g mask="url(#qp7ud8ukfb)">
                <g>
                    <path fill="#000" d="M13 22.708c.077-.007.153-.017.23-.026-.077.009-.153.02-.23.026zm.498-.058c.077-.01.152-.025.229-.038-.077.013-.152.027-.23.038zm-1.001.089c.077-.003.153-.009.23-.013-.077.004-.153.01-.23.013zm-1.884-.127c-.057-.01-.114-.017-.172-.027.058.01.115.017.172.027zm.555.076c-.07-.008-.139-.013-.208-.022.07.01.138.014.208.022zm.53.041c-.075-.003-.148-.005-.222-.01.074.005.147.007.221.01zm.517.013c-.075 0-.15.002-.227 0 .076.002.152 0 .227 0zM1.931 8.892c-.037.162-.07.326-.1.492.03-.166.063-.33.1-.492zm.124-.5c-.032.118-.062.237-.09.357.028-.12.058-.239.09-.357zm.18-.604c-.05.153-.098.309-.142.466.044-.157.091-.313.142-.466zm.164-.455c-.055.143-.107.286-.156.432.05-.146.101-.29.156-.432zm.189-.462c-.048.109-.093.218-.137.329.044-.11.09-.22.137-.329zm.256-.55c-.07.14-.137.282-.202.426.065-.144.131-.286.202-.425zm.221-.413c-.07.124-.137.249-.201.376.064-.127.132-.252.201-.376zm.248-.419c-.06.098-.12.197-.178.297.058-.1.118-.199.178-.297zM3.637 5c-.088.124-.172.252-.255.38.083-.128.167-.256.255-.38zm.273-.368c-.082.105-.162.212-.24.322.078-.11.158-.217.24-.322zm.302-.372c-.073.086-.146.174-.216.263.07-.089.143-.177.216-.263zm.382-.426c-.103.108-.203.219-.302.332.099-.113.199-.224.302-.332zm.319-.318c-.092.088-.182.177-.27.269.088-.092.178-.181.27-.27zm.783-.677c-.116.09-.23.184-.343.28.113-.096.227-.19.343-.28zm.359-.264c-.1.07-.2.143-.297.218.097-.075.197-.147.297-.218zm.393-.262c-.095.06-.188.121-.281.184.093-.063.186-.124.28-.184zm-1.185.884c-.084.073-.168.148-.25.225.082-.077.166-.152.25-.225zm2.052-1.373c-.107.053-.212.108-.317.165.105-.057.21-.112.317-.165zm.43-.2c-.103.045-.206.091-.308.14.102-.049.205-.095.308-.14zm-.824.406c-.127.07-.253.145-.377.222.124-.077.25-.151.377-.222zm.924-.45c.134-.057.27-.11.407-.161-.137.05-.273.104-.407.161zm.828-.304c-.112.035-.223.073-.333.112.11-.04.221-.077.333-.112zm.13-.04c.11-.033.22-.064.332-.092-.111.028-.222.06-.331.092zm1.19 5.038c-.107-.026-.212-.045-.317-.06.105.015.21.034.317.06zm5.398 1.302c-.099-.024-.195-.041-.29-.054.096.013.193.03.292.054h-.002zM8.997 6.199c-.087.008-.173.02-.257.037l-.007.001c.088-.017.177-.03.267-.038h-.003zm.323-.013c-.093-.002-.185.002-.275.01H9.04c.092-.008.185-.012.28-.01zm.332.024c-.1-.013-.197-.02-.294-.023h-.002c.098.003.196.01.297.023zm3.25 2.096c-.038.04-.075.08-.111.121.036-.041.073-.081.111-.12zm1.54-.79c-.05.007-.1.013-.148.022.048-.01.098-.015.147-.022zm.27-.017c-.054 0-.108.001-.16.005.052-.004.106-.005.16-.005zm.295.013c-.063-.006-.125-.012-.186-.014.06.002.124.008.186.014zm-8.612.812l-.02.052.02-.052zm.106-.243l-.014.028.014-.028zm.12-.231c-.01.015-.018.03-.026.047l.025-.047zm.137-.227l-.022.032.022-.032zm.142-.201l-.029.039.029-.04zm.168-.205l-.03.032.03-.032zm.162-.172l-.03.031.03-.03zm.196-.177l-.036.03.036-.03zm.18-.14l-.03.022.03-.022zm.416-.25l-.024.012.024-.013zm-.195.106l-.042.025.042-.025zM6.23 8.836l-.014.056.014-.056zm7.23-.978c.058-.036.118-.068.179-.099-.061.03-.121.063-.18.099zm-.172.114c.052-.037.106-.073.16-.107h.002c-.056.033-.11.07-.162.108zm-.171.135c.04-.034.08-.067.123-.098-.042.031-.083.064-.123.098zm-.365.365c-.036.043-.07.086-.104.13.034-.044.068-.087.104-.13zm-.126.158c-.04.053-.077.107-.113.162.036-.055.074-.109.113-.162zm-.14.205c-.027.042-.053.085-.078.129.025-.044.05-.087.078-.129zm-.106.177c-.031.056-.061.113-.089.17v-.001c.028-.057.058-.113.09-.169zm9.438 5.193C22.87 8.306 19.25 2.445 13.73 1.114c-1.543-.372-3.07-.35-4.494.002.13-.033.263-.063.395-.09l-1.263.255c-3.85.777-7.016 3.956-7.8 8.358-1.053 5.897 2.568 11.758 8.089 13.09 1.4.338 2.788.352 4.097.087l1.264-.255-.029.005c3.862-.766 7.042-3.949 7.83-8.36z" transform="translate(189 204)"/>
                    <g transform="translate(189 204) translate(16.278 11.112)">
                        <mask id="8jsir7cemy" fill="#fff">
                            <use xlink:href="#eshn0lh5jx"/>
                        </mask>
                        <path fill="#79101F" d="M1.264.016L0 .273c.34-1.93-.623-3.977-2.534-4.443-.412-.101-.792-.103-1.137-.033l1.263-.258c.346-.07.726-.068 1.138.033C.64-3.962 1.604-1.914 1.264.016" mask="url(#8jsir7cemy)"/>
                    </g>
                    <g transform="translate(189 204) translate(13.812 6.75)">
                        <mask id="dohq85s1fA" fill="#fff">
                            <use xlink:href="#y70rjrjcgz"/>
                        </mask>
                        <path fill="#79101F" d="M3.73 4.377l-1.264.255C2.806 2.724 1.843.7-.068.238-.48.138-.86.136-1.206.206L.058-.05c.345-.07.726-.068 1.138.032 1.91.46 2.873 2.486 2.533 4.394" mask="url(#dohq85s1fA)"/>
                    </g>
                    <g transform="translate(189 204) translate(12.607 6.653)">
                        <mask id="139fyj02mC" fill="#fff">
                            <use xlink:href="#p0nsy70huB"/>
                        </mask>
                        <path fill="#79101F" d="M4.935 4.525l-1.264.258c.34-1.93-.623-3.978-2.534-4.444C.725.239.345.236 0 .307L1.263.049c.346-.07.726-.069 1.138.032 1.91.466 2.874 2.514 2.534 4.444" mask="url(#139fyj02mC)"/>
                    </g>
                    <g transform="translate(189 204) translate(14.162 11.127)">
                        <mask id="l6iub3dnhE" fill="#fff">
                            <use xlink:href="#36ezrrp3cD"/>
                        </mask>
                        <path fill="#79101F" d="M-3.923 6.536l-1.263.255C1.302 4.821 2.053.666 2.116.255L3.379 0c-.062.411-.813 4.567-7.302 6.536" mask="url(#l6iub3dnhE)"/>
                    </g>
                    <g transform="translate(189 204) translate(13.918 14.799)">
                        <mask id="m39w700ieG" fill="#fff">
                            <use xlink:href="#lzee8f08hF"/>
                        </mask>
                        <path fill="#79101F" d="M-3.679 2.897l-1.263.258c6.489-1.992 7.24-6.194 7.302-6.61l1.263-.257c-.062.415-.813 4.617-7.302 6.609" mask="url(#m39w700ieG)"/>
                    </g>
                    <g transform="translate(189 204) translate(10.642 6.7)">
                        <mask id="meljn9qfhI" fill="#fff">
                            <use xlink:href="#32tc73zj0H"/>
                        </mask>
                        <path fill="#858585" d="M1.264 1.639L0 1.893C.36 1.15 1.036.443 1.965.255L3.228 0C2.3.187 1.624.895 1.264 1.64" mask="url(#meljn9qfhI)"/>
                    </g>
                    <g transform="translate(189 204) translate(9.711 6.205)">
                        <mask id="riwbz7qktK" fill="#fff">
                            <use xlink:href="#llmv3trmcJ"/>
                        </mask>
                        <path fill="#79101F" d="M2.194 2.134L.931 2.39C.825 1.224.152-.153-1.367-.52c-.45-.108-.882-.113-1.283-.032l1.264-.255c.401-.08.833-.076 1.283.032C1.416-.408 2.089.97 2.194 2.135" mask="url(#riwbz7qktK)"/>
                    </g>
                    <g transform="translate(189 204) translate(7.062 5.342)">
                        <mask id="qv685p7y5M" fill="#fff">
                            <use xlink:href="#fjrxojdzxL"/>
                        </mask>
                        <path fill="#79101F" d="M4.844 2.997l-1.264.255C3.474 2.087 2.8.709 1.282.342.832.235.4.23 0 .312L1.263.056c.401-.081.833-.077 1.283.032 1.519.366 2.192 1.744 2.298 2.909" mask="url(#qv685p7y5M)"/>
                    </g>
                    <g transform="translate(189 204) translate(8.976 15.027)">
                        <mask id="qjcja7nqaO" fill="#fff">
                            <use xlink:href="#450ozhnbtN"/>
                        </mask>
                        <path fill="#79101F" d="M1.264 2.636L0 2.891C6.489.921 7.24-3.234 7.302-3.645L8.565-3.9c-.062.411-.813 4.566-7.301 6.536" mask="url(#qjcja7nqaO)"/>
                    </g>
                    <g transform="translate(189 204) translate(4.516 5.398)">
                        <mask id="v3rsunxxaQ" fill="#fff">
                            <use xlink:href="#ddbecpsmqP"/>
                        </mask>
                        <path fill="#858585" d="M1.264 2.893L0 3.147C.26 1.687 1.244.517 2.548.255L3.81 0C2.508.263 1.524 1.433 1.264 2.893" mask="url(#v3rsunxxaQ)"/>
                    </g>
                    <path fill="#F6F6F6" d="M15.008 6.733c1.91.46 2.874 2.486 2.539 4.365-.068.44-.819 4.596-7.303 6.567C4.966 12.856 5.697 8.696 5.78 8.29c.34-1.908 1.917-3.32 3.828-2.86 1.519.367 2.192 1.745 2.298 2.91.494-1.02 1.583-1.974 3.102-1.607" transform="translate(189 204)"/>
                    <g transform="translate(189 204) translate(4.436 8.29)">
                        <mask id="at61clhm8S" fill="#fff">
                            <use xlink:href="#wkn6kdvuxR"/>
                        </mask>
                        <path fill="#858585" d="M5.807 9.374l-1.263.255C-.734 4.821-.003.661.08.255L1.344 0C1.26.406.529 4.566 5.807 9.374" mask="url(#at61clhm8S)"/>
                    </g>
                    <g transform="translate(189 204) translate(0 .184)">
                        <mask id="ql7s8ddujU" fill="#fff">
                            <use xlink:href="#s2119tmynT"/>
                        </mask>
                        <path fill="#79101F" d="M13.633 21.535l-1.264.255c-1.31.264-2.697.25-4.098-.087C2.751 20.37-.87 14.51.181 8.613.968 4.21 4.134 1.031 7.983.254L9.246 0c-3.85.777-7.015 3.955-7.8 8.357-1.053 5.898 2.569 11.759 8.089 13.09 1.4.338 2.788.352 4.098.088" mask="url(#ql7s8ddujU)"/>
                    </g>
                    <path fill="#ED3D48" d="M10.24 17.664c6.488-1.97 7.24-6.125 7.302-6.537.34-1.908-.623-3.933-2.534-4.394-1.52-.367-2.608.586-3.102 1.606-.106-1.165-.78-2.543-2.298-2.909-1.911-.46-3.488.952-3.823 2.83-.088.436-.82 4.596 4.455 9.404M13.345.27c5.519 1.331 9.14 7.192 8.088 13.092-1.052 5.897-6.38 9.6-11.898 8.268C4.015 20.3.393 14.44 1.445 8.541c1.053-5.9 6.38-9.602 11.9-8.27" transform="translate(189 204)"/>
                </g>
            </g>
            <g fill-rule="nonzero" mask="url(#qp7ud8ukfb)">
                <g>
                    <path fill="url(#b2jpt4s7vV)" d="M52 15.846L28.099 0C21.759 13.432 12.394 22.983 0 28.653L20.452 47c16-5.655 26.517-16.04 31.548-31.154z" transform="translate(35 246)"/>
                    <path fill="#C5D7F3" style="mix-blend-mode:multiply" d="M10.677 27.881L8.8 29.111 24.109 41.424 26.4 40.231zM28.342 7.169L46.4 18.739 45.176 20.712 27.2 9.171zM25.142 11.949L43.2 23.518 41.976 25.492 24 13.95zM30.763 22.305L40 27.626 38.754 29.475 29.6 24.18zM22.012 15.932L28 20.047c-.158.347-.363.743-.616 1.186-1.157 2.026-2.789 3.794-4.78 5.176-.81.563-1.491 1.054-2.044 1.472L14.4 23.48c.3-.163.633-.349 1-.557 2.566-1.461 4.66-3.523 6.062-5.972.211-.368.394-.707.55-1.019zM27.784 26.288L36 32.65c-.946 1.378-2.003 2.543-3.172 3.494-1.168.95-2.4 1.649-3.693 2.094L20.8 32c1.757-1.013 3.143-1.94 4.16-2.78 1.016-.84 1.958-1.816 2.824-2.93z" opacity=".517" transform="translate(35 246)"/>
                </g>
            </g>
            <g mask="url(#qp7ud8ukfb)" opacity=".2">
                <g>
                    <path fill="url(#m1p1urvguW)" d="M115.074 79.922v199.36c-22.45-41.965-39.232-86.723-49.909-133.103C45.97 62.577 52.982-2.997 76.902.106c15.922 2.116 28.912 38.447 38.172 79.816z" transform="translate(125 279)"/>
                    <path fill="url(#19x9hzs8vX)" d="M115.074 247.458v53.647H92.796c-14.328-20.75-31.312-46.407-45.962-71.665-29.509-50.735-49.88-99.827-21.425-104.078 14.233-2.126 27.592 6.414 39.756 20.78 20.932 24.716 38.21 66.721 49.91 101.316z" transform="translate(125 279)"/>
                    <path stroke="#FFF" stroke-width=".949" d="M40.249 150.06c18.9 35.6 60.28 120.009 74.825 149.717M78.933 29.738c.636 22.924 1.3 74.256 36.141 202.283" transform="translate(125 279)"/>
                    <path fill="url(#qgoolm73fY)" d="M104.077 301.105H56.104C28.721 283.286-2.193 258.246.123 236.745c2.106-19.66 22.914-21.823 46.72-7.305 20.078 12.22 42.3 36.293 57.234 71.665z" transform="translate(125 279)"/>
                    <path stroke="#FFF" stroke-width=".949" d="M17.885 238.245c18.227 9.1 51.835 43.438 70.043 62.86" transform="translate(125 279)"/>
                </g>
            </g>
            <g mask="url(#qp7ud8ukfb)">
                <g>
                    <g>
                        <path fill="#000" d="M61.166 33.71l-3.73 3.681c-.218.216-.454.416-.707.598l3.73-3.682c.253-.182.49-.382.707-.598" transform="translate(26 35) translate(0 2)"/>
                        <g transform="translate(26 35) translate(0 2) translate(56.73 33.71)">
                            <mask id="ys3pv39upaa" fill="#fff">
                                <use xlink:href="#fpveitfr8Z"/>
                            </mask>
                            <path fill="#000" d="M4.437 0L.707 3.682C.49 3.898.253 4.098 0 4.28L3.73.598c.253-.182.489-.382.707-.598" mask="url(#ys3pv39upaa)"/>
                        </g>
                        <path fill="#000" d="M41.37 21.31L37.64 24.992 21.151 21.979 24.881 18.297z" transform="translate(26 35) translate(0 2)"/>
                        <path fill="#000" d="M31.549 33.685L27.819 37.367 37.64 24.992 41.37 21.31zM1.83 18.293l3.73-3.682c-1.423 1.405-2.083 3.467-1.741 5.59.707 4.437 4.196 12.489 4.38 12.913.183.424 3.673 8.476 6.485 12.163l-3.73 3.682c-2.812-3.687-6.302-11.74-6.485-12.164-.184-.423-3.673-8.476-4.38-12.912-.342-2.123.318-4.185 1.741-5.59" transform="translate(26 35) translate(0 2)"/>
                        <g transform="translate(26 35) translate(0 2) translate(0 14.61)">
                            <mask id="lyoah66p6ac" fill="#fff">
                                <use xlink:href="#skmhmvgelab"/>
                            </mask>
                            <path fill="#000" d="M14.684 30.666l-3.73 3.682C8.142 30.66 4.652 22.608 4.47 22.185 4.285 21.76.796 13.708.089 9.273c-.342-2.124.318-4.186 1.741-5.59L5.56 0C4.137 1.405 3.477 3.467 3.819 5.59c.707 4.437 4.196 12.489 4.38 12.913.183.424 3.672 8.476 6.485 12.163" mask="url(#lyoah66p6ac)"/>
                        </g>
                        <path fill="#000" d="M31.549 33.685l9.82-12.375-16.488-3.013 6.668 15.388M52.047 3.041c2.811 3.687 6.301 11.74 6.484 12.163.184.424 3.673 8.476 4.38 12.912.395 2.451-.55 4.822-2.452 6.191-3.457 2.486-18.409 7.805-19.196 8.086-.787.28-15.739 5.6-20.134 5.908-2.427.171-4.894-.985-6.446-3.024-2.811-3.687-6.3-11.74-6.484-12.163-.184-.424-3.673-8.477-4.38-12.912-.395-2.45.545-4.82 2.452-6.191 3.452-2.484 18.404-7.804 19.19-8.085.788-.28 15.74-5.6 20.14-5.91 2.422-.17 4.894.986 6.446 3.025" transform="translate(26 35) translate(0 2)"/>
                        <g transform="translate(26 35) translate(0 2) translate(10.954 34.307)">
                            <mask id="zafrieaovae" fill="#fff">
                                <use xlink:href="#14heu7vjcad"/>
                            </mask>
                            <path fill="#000" d="M49.505 0l-3.73 3.682c-3.457 2.485-18.41 7.806-19.196 8.086-.787.28-15.74 5.6-20.134 5.908-2.427.171-4.894-.985-6.445-3.024l3.73-3.682c1.55 2.039 4.018 3.195 6.445 3.024 4.395-.308 19.347-5.628 20.134-5.908.787-.28 15.739-5.6 19.196-8.086" mask="url(#zafrieaovae)"/>
                        </g>
                    </g>
                    <g transform="translate(26 35) translate(57 34)">
                        <mask id="gds1z4drfag" fill="#fff">
                            <use xlink:href="#x16g2pugoaf"/>
                        </mask>
                        <path fill="#720D1C" d="M4 0L.638 3.441C.44 3.642.228 3.83 0 4L3.362.559C3.591.389 3.803.2 4 0" mask="url(#gds1z4drfag)"/>
                    </g>
                    <path fill="#6E0D1B" d="M42 21.151L38.31 25 22 21.849 25.689 18z" transform="translate(26 35)"/>
                    <path fill="#6F0D1B" d="M31.853 33.331L28 37 38.146 24.669 42 21z" transform="translate(26 35)"/>
                    <g transform="translate(26 35) translate(0 15)">
                        <mask id="efro2t8fuai" fill="#fff">
                            <use xlink:href="#im1gu6qemah"/>
                        </mask>
                        <path fill="#9B3339" d="M15 30.355L11.19 34c-2.873-3.65-6.437-11.62-6.625-12.04C4.378 21.54.813 13.569.09 9.179c-.349-2.103.326-4.144 1.78-5.534L5.68 0C4.226 1.39 3.552 3.432 3.9 5.534c.724 4.39 4.288 12.362 4.475 12.781.188.42 3.977 8.624 6.85 12.274" mask="url(#efro2t8fuai)"/>
                    </g>
                    <g transform="translate(26 35) translate(4)">
                        <mask id="6yi8m9zvwak" fill="#fff">
                            <use xlink:href="#fb62db5k0aj"/>
                        </mask>
                        <path fill="#ED3D48" d="M27.693 33.465l-6.638-15.287 16.413 2.991-9.775 12.296zm26.857-18.36c-.183-.421-3.655-8.42-6.453-12.084C46.55.995 44.089-.152 41.678.016c-1.052.077-2.71.436-4.636.948-6.082 1.611-14.815 4.712-15.41 4.923-.783.278-15.666 5.565-19.101 8.031C.631 15.28-.306 17.634.089 20.07c.703 4.406 4.176 12.406 4.359 12.826.183.42 3.655 8.42 6.456 12.082 1.543 2.027 3.998 3.175 6.416 3.005 3.28-.23 12.473-3.26 17.194-4.876 1.572-.542 2.651-.923 2.847-.992.785-.28 15.668-5.566 19.109-8.034 1.893-1.36 2.833-3.715 2.443-6.149-.707-4.409-4.18-12.407-4.363-12.828z" mask="url(#6yi8m9zvwak)"/>
                    </g>
                    <g>
                        <path d="M30.81 8.654c-.779.286-9.388 3.237-18.312 5.837l-8.688-2.4L0 15.738c1.535 2.074 4.802 3.617 7.205 3.443 4.35-.313 19.134-6.186 19.913-6.471.779-.285 15.578-5.698 19-8.226L49.81.737c-2.281 1.686-8.614 4.325-19 7.917z" transform="translate(26 35) translate(11.19 33.263)"/>
                        <path fill="#9B3339" d="M47.81 3.737c-3.422 2.528-17.841 8.444-18.62 8.73-.779.284-11.713 4.588-21.698 6.34-2.22.39-5.957-.996-7.492-3.07l3.657-3.846c.709 1.059 4.41 3.058 5.636 2.846C19.506 12.971 28.41 9.179 29.19 8.894 29.97 8.61 46.555 2.53 49.976 0L47.81 3.737z" transform="translate(26 35) translate(11.19 33.263)"/>
                    </g>
                </g>
            </g>
            <g fill-rule="nonzero" mask="url(#qp7ud8ukfb)">
                <g>
                    <path fill="url(#k41rq77sgal)" d="M35 10.789L18.913 0C14.646 9.145 8.342 15.648 0 19.508L13.765 32C24.535 28.15 31.614 21.08 35 10.789z" transform="translate(180 77)"/>
                    <path fill="#C5D7F3" style="mix-blend-mode:multiply" d="M7.28 19L6 19.817 16.438 28 18 27.207zM18.774 5L31 12.689 30.171 14 18 6.33zM16.774 8L29 15.689 28.171 17 16 9.33zM20.783 15L27 18.711 26.161 20 20 16.308zM15.037 11L19 13.755c-.104.232-.24.497-.408.794-.765 1.356-1.845 2.54-3.162 3.465-.537.377-.988.706-1.353.986L10 16.053c.199-.109.42-.233.661-.373 1.699-.978 3.084-2.358 4.013-3.998.14-.246.26-.473.363-.682zM18.594 18L24 22.259c-.622.922-1.318 1.702-2.087 2.339-.768.636-1.578 1.104-2.43 1.402L14 21.823c1.156-.678 2.068-1.298 2.737-1.86.668-.563 1.288-1.217 1.857-1.963z" opacity=".517" transform="translate(180 77)"/>
                </g>
            </g>
            <g fill-rule="nonzero" mask="url(#qp7ud8ukfb)" opacity=".5">
                <g>
                    <path fill="url(#syfm8u365am)" d="M.675 61.71l-.007-.006c-.77-.595-.892-1.678-.273-2.418l11.639-13.903c.581-.696 1.62-.848 2.39-.35l4.14 2.668c.685.442 1.596.376 2.205-.16L70.287 3.975l.028-.024c.743-.626 1.873-.555 2.525.159l37.19 40.742c.624.684.586 1.716-.086 2.356L53.92 100.503c-.644.612-1.663.665-2.372.123L.675 61.71z" transform="translate(170 -39)"/>
                    <path fill="url(#p35ryoc21an)" d="M54.918 100.369L23.899 63.41c-.574-.684-.514-1.679.138-2.294L88.26.486c.697-.659 1.815-.646 2.496.028.13.129.239.277.321.439l22.74 44.687c.337.661.196 1.456-.349 1.972l-55.946 52.901c-.697.66-1.814.648-2.496-.026-.038-.038-.075-.077-.11-.118z" transform="translate(170 -39)"/>
                    <path fill="#A3C1EA" d="M53.619 95.128L51.711 93.43 70.193 78.686 71.691 80.648z" transform="translate(170 -39)"/>
                </g>
            </g>
        </g>
    </g>
</svg>
