<svg width="354" height="119" viewBox="0 0 354 119" fill="none" xmlns="http://www.w3.org/2000/svg">
<path d="M57.5 115C89.2564 115 115 89.2564 115 57.5C115 25.7436 89.2564 0 57.5 0C25.7436 0 0 25.7436 0 57.5C0 89.2564 25.7436 115 57.5 115Z" fill="#F1F5F8"/>
<path d="M34 57C37.866 57 41 53.866 41 50C41 46.134 37.866 43 34 43C30.134 43 27 46.134 27 50C27 53.866 30.134 57 34 57Z" fill="#102D42"/>
<path d="M80 57C83.866 57 87 53.866 87 50C87 46.134 83.866 43 80 43C76.134 43 73 46.134 73 50C73 53.866 76.134 57 80 57Z" fill="#102D42"/>
<mask id="mask0_9_316" style="mask-type:alpha" maskUnits="userSpaceOnUse" x="38" y="75" width="38" height="13">
<path d="M38 75H76V88H38V75Z" fill="white"/>
</mask>
<g mask="url(#mask0_9_316)">
<path fill-rule="evenodd" clip-rule="evenodd" d="M57.74 87.9969C51.002 87.8819 45.308 86.6719 40.966 81.9329C40.021 80.9009 36.578 76.5759 38.655 75.2199C39.826 74.4549 41.263 75.8699 42.08 76.5949C45.032 79.2079 47.794 81.1829 51.645 82.0209C55.102 82.7729 58.752 82.7809 62.213 82.0509C65.509 81.3569 68.864 79.6149 71.327 77.2519C72.095 76.5159 72.83 75.6219 73.802 75.1599C74.696 74.7339 75.98 75.1999 75.998 76.3139C76.046 79.2739 72.983 82.4199 70.853 84.0299C67.24 86.7599 62.204 88.0729 57.74 87.9969Z" fill="#102D42"/>
</g>
<g filter="url(#filter0_dd_9_316)">
<path d="M99 115C107.837 115 115 107.837 115 99C115 90.1634 107.837 83 99 83C90.1634 83 83 90.1634 83 99C83 107.837 90.1634 115 99 115Z" fill="white"/>
<path d="M102.283 102.778H108.846L102.283 90.385H95.718L102.283 102.778Z" fill="#FFC107"/>
<path d="M95.249 102.778L92.436 107.735H105.769L108.846 102.778H95.249Z" fill="#2196F3"/>
<path d="M95.718 90.385L89.154 101.952L92.436 107.735L98.887 96.368L95.718 90.385Z" fill="#4CAF50"/>
</g>
<path d="M294.5 115C326.256 115 352 89.2564 352 57.5C352 25.7436 326.256 0 294.5 0C262.744 0 237 25.7436 237 57.5C237 89.2564 262.744 115 294.5 115Z" fill="#F1F5F8"/>
<path d="M271 57C274.866 57 278 53.866 278 50C278 46.134 274.866 43 271 43C267.134 43 264 46.134 264 50C264 53.866 267.134 57 271 57Z" fill="#102D42"/>
<path d="M317 57C320.866 57 324 53.866 324 50C324 46.134 320.866 43 317 43C313.134 43 310 46.134 310 50C310 53.866 313.134 57 317 57Z" fill="#102D42"/>
<mask id="mask1_9_316" style="mask-type:alpha" maskUnits="userSpaceOnUse" x="278" y="73" width="32" height="17">
<path d="M278 73H310V90H278V73Z" fill="white"/>
</mask>
<g mask="url(#mask1_9_316)">
<path fill-rule="evenodd" clip-rule="evenodd" d="M293.921 73C301.651 72.958 308.448 78.121 309.803 85.175C310.083 86.636 310.383 89.658 308.268 89.995C307.852 90.062 307.125 89.435 306.854 88.945C305.271 86.094 304.63 83.219 302.055 80.974C299.859 79.059 297.037 78.132 294.125 78.081C291.17 78.03 288.385 78.987 286.16 80.91C283.52 83.191 282.593 85.93 281.049 88.894C280.79 89.391 280.097 90.05 279.689 89.997C277.281 89.677 278.019 85.306 278.473 83.775C280.369 77.373 286.726 73.04 293.92 73" fill="#102D42"/>
</g>
<path fill-rule="evenodd" clip-rule="evenodd" d="M180.15 49.3221L174.363 55.3581H139.645C137.8 55.3541 136.516 54.2631 136.387 52.5901C136.253 50.7951 137.562 49.3271 139.354 49.3271C144.374 49.3171 170.125 49.3221 180.151 49.3221" fill="#F2385A"/>
<mask id="mask2_9_316" style="mask-type:alpha" maskUnits="userSpaceOnUse" x="182" y="38" width="33" height="18">
<path d="M182.547 38.2109H214.606V55.0639H182.547V38.2109Z" fill="white"/>
</mask>
<g mask="url(#mask2_9_316)">
<path fill-rule="evenodd" clip-rule="evenodd" d="M214.373 53.314C213.847 54.512 212.868 55.054 211.579 55.059C208.97 55.067 206.356 55.063 203.747 55.063H182.547L188.227 49.443H197.572V43.003C197.572 42.37 197.568 41.736 197.572 41.099C197.585 39.857 198.243 38.829 199.348 38.425C200.514 37.995 201.572 38.212 202.462 39.089C205.861 42.448 209.255 45.807 212.649 49.166C212.978 49.491 213.312 49.812 213.636 50.142C214.579 51.084 214.856 52.216 214.373 53.314Z" fill="#F2385A"/>
</g>
<path fill-rule="evenodd" clip-rule="evenodd" d="M140.263 60.6419H168.83L163.137 66.4319H154.194V69.5939C154.194 71.3739 154.199 73.1569 154.194 74.9369C154.194 76.2829 153.557 77.3469 152.432 77.7769C151.214 78.2459 150.142 77.9689 149.214 77.0209C145.53 73.2689 141.846 69.5179 138.153 65.7789C137.208 64.8259 136.869 63.7399 137.348 62.4609C137.792 61.2809 138.838 60.6409 140.263 60.6409V60.6419ZM214.867 63.7399C214.837 65.4169 213.57 66.6749 211.879 66.6749C204.974 66.6789 185.861 66.6789 171.094 66.6789L176.827 60.6489H209.67C210.43 60.6489 211.187 60.6289 211.95 60.6529C213.662 60.7039 214.902 62.0269 214.866 63.7409" fill="#F2385A"/>
<g filter="url(#filter1_dd_9_316)">
<path d="M336 115C344.837 115 352 107.837 352 99C352 90.1634 344.837 83 336 83C327.163 83 320 90.1634 320 99C320 107.837 327.163 115 336 115Z" fill="white"/>
<path d="M333.011 103.16L340.345 90.6042C340.381 90.543 340.399 90.4736 340.399 90.4029C340.399 90.3322 340.381 90.2628 340.345 90.2016C340.31 90.1404 340.259 90.0895 340.198 90.0541C340.137 90.0187 340.067 90.0001 339.996 90H335.268C335.15 90 335.035 90.0307 334.933 90.089C334.831 90.1473 334.746 90.2312 334.687 90.3323L327.093 103.339C327.033 103.441 327.002 103.557 327.002 103.674C327.002 103.792 327.032 103.908 327.091 104.01C327.15 104.112 327.234 104.196 327.336 104.256C327.438 104.315 327.553 104.346 327.671 104.346H330.974L329.549 106.79C329.49 106.891 329.458 107.007 329.458 107.125C329.458 107.243 329.489 107.359 329.548 107.461C329.607 107.563 329.691 107.648 329.794 107.707C329.896 107.765 330.011 107.797 330.129 107.797H342.027C342.168 107.796 342.307 107.759 342.429 107.688C342.551 107.617 342.652 107.516 342.723 107.394L344.844 103.768C344.88 103.707 344.898 103.638 344.898 103.568C344.898 103.497 344.88 103.428 344.845 103.367C344.81 103.305 344.759 103.255 344.698 103.219C344.637 103.183 344.568 103.165 344.497 103.164L333.011 103.16ZM335.568 91.1883H338.627L331.638 103.16H328.575L335.568 91.1883ZM341.819 106.61H331.033L332.354 104.348H343.132L341.819 106.61Z" fill="#F2385A"/>
</g>
<defs>
<filter id="filter0_dd_9_316" x="81" y="83" width="36" height="36" filterUnits="userSpaceOnUse" color-interpolation-filters="sRGB">
<feFlood flood-opacity="0" result="BackgroundImageFix"/>
<feColorMatrix in="SourceAlpha" type="matrix" values="0 0 0 0 0 0 0 0 0 0 0 0 0 0 0 0 0 0 127 0" result="hardAlpha"/>
<feMorphology radius="2" operator="erode" in="SourceAlpha" result="effect1_dropShadow_9_316"/>
<feOffset dy="2"/>
<feGaussianBlur stdDeviation="2"/>
<feColorMatrix type="matrix" values="0 0 0 0 0.0470588 0 0 0 0 0.352941 0 0 0 0 0.439216 0 0 0 0.08 0"/>
<feBlend mode="normal" in2="BackgroundImageFix" result="effect1_dropShadow_9_316"/>
<feColorMatrix in="SourceAlpha" type="matrix" values="0 0 0 0 0 0 0 0 0 0 0 0 0 0 0 0 0 0 127 0" result="hardAlpha"/>
<feMorphology radius="2" operator="erode" in="SourceAlpha" result="effect2_dropShadow_9_316"/>
<feOffset dy="2"/>
<feGaussianBlur stdDeviation="2"/>
<feColorMatrix type="matrix" values="0 0 0 0 0.0470588 0 0 0 0 0.352941 0 0 0 0 0.439216 0 0 0 0.12 0"/>
<feBlend mode="normal" in2="effect1_dropShadow_9_316" result="effect2_dropShadow_9_316"/>
<feBlend mode="normal" in="SourceGraphic" in2="effect2_dropShadow_9_316" result="shape"/>
</filter>
<filter id="filter1_dd_9_316" x="318" y="83" width="36" height="36" filterUnits="userSpaceOnUse" color-interpolation-filters="sRGB">
<feFlood flood-opacity="0" result="BackgroundImageFix"/>
<feColorMatrix in="SourceAlpha" type="matrix" values="0 0 0 0 0 0 0 0 0 0 0 0 0 0 0 0 0 0 127 0" result="hardAlpha"/>
<feMorphology radius="2" operator="erode" in="SourceAlpha" result="effect1_dropShadow_9_316"/>
<feOffset dy="2"/>
<feGaussianBlur stdDeviation="2"/>
<feColorMatrix type="matrix" values="0 0 0 0 0.0470588 0 0 0 0 0.352941 0 0 0 0 0.439216 0 0 0 0.08 0"/>
<feBlend mode="normal" in2="BackgroundImageFix" result="effect1_dropShadow_9_316"/>
<feColorMatrix in="SourceAlpha" type="matrix" values="0 0 0 0 0 0 0 0 0 0 0 0 0 0 0 0 0 0 127 0" result="hardAlpha"/>
<feMorphology radius="2" operator="erode" in="SourceAlpha" result="effect2_dropShadow_9_316"/>
<feOffset dy="2"/>
<feGaussianBlur stdDeviation="2"/>
<feColorMatrix type="matrix" values="0 0 0 0 0.0470588 0 0 0 0 0.352941 0 0 0 0 0.439216 0 0 0 0.12 0"/>
<feBlend mode="normal" in2="effect1_dropShadow_9_316" result="effect2_dropShadow_9_316"/>
<feBlend mode="normal" in="SourceGraphic" in2="effect2_dropShadow_9_316" result="shape"/>
</filter>
</defs>
</svg>
