<svg width="358" height="119" viewBox="0 0 358 119" fill="none" xmlns="http://www.w3.org/2000/svg">
<path d="M57.5 115C89.2564 115 115 89.2564 115 57.5C115 25.7436 89.2564 0 57.5 0C25.7436 0 0 25.7436 0 57.5C0 89.2564 25.7436 115 57.5 115Z" fill="#F1F5F8"/>
<path d="M34 57C37.866 57 41 53.866 41 50C41 46.134 37.866 43 34 43C30.134 43 27 46.134 27 50C27 53.866 30.134 57 34 57Z" fill="#102D42"/>
<path d="M80 57C83.866 57 87 53.866 87 50C87 46.134 83.866 43 80 43C76.134 43 73 46.134 73 50C73 53.866 76.134 57 80 57Z" fill="#102D42"/>
<mask id="mask0_9_3003" style="mask-type:alpha" maskUnits="userSpaceOnUse" x="38" y="75" width="38" height="13">
<path d="M38 75H76V88H38V75Z" fill="white"/>
</mask>
<g mask="url(#mask0_9_3003)">
<path fill-rule="evenodd" clip-rule="evenodd" d="M57.74 87.997C51.002 87.882 45.308 86.672 40.966 81.933C40.021 80.901 36.578 76.576 38.655 75.22C39.826 74.455 41.263 75.87 42.08 76.595C45.032 79.208 47.794 81.183 51.645 82.021C55.102 82.773 58.752 82.781 62.213 82.051C65.509 81.357 68.864 79.615 71.327 77.252C72.095 76.516 72.83 75.622 73.802 75.16C74.696 74.734 75.98 75.2 75.998 76.314C76.046 79.274 72.983 82.42 70.853 84.03C67.24 86.76 62.204 88.073 57.74 87.997Z" fill="#102D42"/>
</g>
<g filter="url(#filter0_dd_9_3003)">
<rect x="83" y="83" width="32" height="32" rx="16" fill="white"/>
<path d="M101.053 98.6294L105.987 97.1009C105.023 93.3823 101.191 91.1409 97.4296 92.0946C95.7356 92.524 94.2643 93.5621 93.3029 95.0062C93.3747 95.0044 101.053 98.6294 101.053 98.6294Z" fill="#0364B8"/>
<path d="M96.3297 95.8327L96.3295 95.8334C95.4421 95.2901 94.4186 95.0029 93.3748 95.0043C93.3506 95.0043 93.3269 95.0059 93.3029 95.0062C90.1979 95.0442 87.712 97.5632 87.7504 100.633C87.7644 101.746 88.1163 102.83 88.7606 103.743L101.053 98.6294L96.3297 95.8327Z" fill="#0078D4"/>
<path d="M105.987 97.1009C105.885 97.0941 105.783 97.0895 105.679 97.0895C105.056 97.0889 104.439 97.2147 103.868 97.4591L101.053 98.6294L109.703 103.751C110.9 101.554 110.069 98.8142 107.846 97.6309C107.272 97.3252 106.638 97.1444 105.987 97.1009Z" fill="#1490DF"/>
<path d="M88.7606 103.743C89.8112 105.236 91.5349 106.126 93.3748 106.125H105.679C107.36 106.125 108.905 105.214 109.703 103.751L101.053 98.6294L88.7606 103.743Z" fill="#28A8EA"/>
</g>
<path fill-rule="evenodd" clip-rule="evenodd" d="M182.499 48.6698L176.749 54.7377H142.247C140.414 54.7337 139.138 53.6369 139.009 51.9551C138.876 50.1506 140.177 48.6748 141.958 48.6748C146.947 48.6647 172.537 48.6698 182.5 48.6698" fill="#F2385A"/>
<mask id="mask1_9_3003" style="mask-type:alpha" maskUnits="userSpaceOnUse" x="184" y="37" width="33" height="18">
<path d="M184.882 37.5H216.741V54.4421H184.882V37.5Z" fill="white"/>
</mask>
<g mask="url(#mask1_9_3003)">
<path fill-rule="evenodd" clip-rule="evenodd" d="M216.509 52.6829C215.986 53.8872 215.014 54.4321 213.733 54.4371C211.14 54.4451 208.542 54.4411 205.949 54.4411H184.882L190.526 48.7914H199.813V42.3173C199.813 41.681 199.809 41.0436 199.813 40.4033C199.826 39.1547 200.48 38.1213 201.578 37.7151C202.737 37.2828 203.788 37.501 204.672 38.3826C208.05 41.7594 211.423 45.1362 214.796 48.5129C215.123 48.8396 215.455 49.1623 215.777 49.4941C216.714 50.4411 216.989 51.5791 216.509 52.6829Z" fill="#F2385A"/>
</g>
<path fill-rule="evenodd" clip-rule="evenodd" d="M142.861 60.0496H171.25L165.593 65.8703H156.705V69.049C156.705 70.8384 156.71 72.6308 156.705 74.4203C156.705 75.7734 156.072 76.843 154.954 77.2753C153.744 77.7468 152.679 77.4683 151.756 76.5153C148.095 72.7434 144.434 68.9726 140.764 65.2138C139.825 64.2558 139.488 63.164 139.964 61.8783C140.406 60.692 141.445 60.0486 142.861 60.0486V60.0496ZM217 63.164C216.97 64.8499 215.711 66.1146 214.031 66.1146C207.169 66.1186 188.175 66.1186 173.5 66.1186L179.197 60.0567H211.835C212.591 60.0567 213.343 60.0366 214.101 60.0607C215.803 60.112 217.035 61.442 216.999 63.165" fill="#F2385A"/>
<path d="M298.5 115C330.256 115 356 89.2564 356 57.5C356 25.7436 330.256 0 298.5 0C266.744 0 241 25.7436 241 57.5C241 89.2564 266.744 115 298.5 115Z" fill="#F1F5F8"/>
<path d="M275 57C278.866 57 282 53.866 282 50C282 46.134 278.866 43 275 43C271.134 43 268 46.134 268 50C268 53.866 271.134 57 275 57Z" fill="#102D42"/>
<path d="M321 57C324.866 57 328 53.866 328 50C328 46.134 324.866 43 321 43C317.134 43 314 46.134 314 50C314 53.866 317.134 57 321 57Z" fill="#102D42"/>
<mask id="mask2_9_3003" style="mask-type:alpha" maskUnits="userSpaceOnUse" x="282" y="73" width="32" height="17">
<path d="M282 73H314V90H282V73Z" fill="white"/>
</mask>
<g mask="url(#mask2_9_3003)">
<path fill-rule="evenodd" clip-rule="evenodd" d="M297.921 73C305.651 72.958 312.448 78.121 313.803 85.175C314.083 86.636 314.383 89.658 312.268 89.995C311.852 90.062 311.125 89.435 310.854 88.945C309.271 86.094 308.63 83.219 306.055 80.974C303.859 79.059 301.037 78.132 298.125 78.081C295.17 78.03 292.385 78.987 290.16 80.91C287.52 83.191 286.593 85.93 285.049 88.894C284.79 89.391 284.097 90.05 283.689 89.997C281.281 89.677 282.019 85.306 282.473 83.775C284.369 77.373 290.726 73.04 297.92 73" fill="#102D42"/>
</g>
<g filter="url(#filter1_dd_9_3003)">
<rect x="324" y="83" width="32" height="32" rx="16" fill="white"/>
<g clip-path="url(#clip0_9_3003)">
<path d="M337.011 103.16L344.345 90.6042C344.381 90.543 344.399 90.4736 344.399 90.4029C344.399 90.3322 344.381 90.2628 344.345 90.2016C344.31 90.1404 344.259 90.0895 344.198 90.0541C344.137 90.0187 344.067 90.0001 343.996 90H339.268C339.15 90 339.035 90.0307 338.933 90.089C338.831 90.1473 338.746 90.2312 338.687 90.3323L331.093 103.339C331.033 103.441 331.002 103.557 331.002 103.674C331.002 103.792 331.032 103.908 331.091 104.01C331.15 104.112 331.234 104.196 331.336 104.256C331.438 104.315 331.553 104.346 331.671 104.346H334.974L333.549 106.79C333.49 106.891 333.458 107.007 333.458 107.125C333.458 107.243 333.489 107.359 333.548 107.461C333.607 107.563 333.691 107.648 333.794 107.707C333.896 107.765 334.011 107.797 334.129 107.797H346.027C346.168 107.796 346.307 107.759 346.429 107.688C346.551 107.617 346.652 107.516 346.723 107.394L348.844 103.768C348.88 103.707 348.898 103.638 348.898 103.568C348.898 103.497 348.88 103.428 348.845 103.367C348.81 103.305 348.759 103.255 348.698 103.219C348.637 103.183 348.568 103.165 348.497 103.164L337.011 103.16ZM339.568 91.1883H342.627L335.638 103.16H332.575L339.568 91.1883ZM345.819 106.61H335.033L336.354 104.348H347.132L345.819 106.61Z" fill="#F2385A"/>
</g>
</g>
<defs>
<filter id="filter0_dd_9_3003" x="81" y="83" width="36" height="36" filterUnits="userSpaceOnUse" color-interpolation-filters="sRGB">
<feFlood flood-opacity="0" result="BackgroundImageFix"/>
<feColorMatrix in="SourceAlpha" type="matrix" values="0 0 0 0 0 0 0 0 0 0 0 0 0 0 0 0 0 0 127 0" result="hardAlpha"/>
<feMorphology radius="2" operator="erode" in="SourceAlpha" result="effect1_dropShadow_9_3003"/>
<feOffset dy="2"/>
<feGaussianBlur stdDeviation="2"/>
<feColorMatrix type="matrix" values="0 0 0 0 0.0470588 0 0 0 0 0.352941 0 0 0 0 0.439216 0 0 0 0.08 0"/>
<feBlend mode="normal" in2="BackgroundImageFix" result="effect1_dropShadow_9_3003"/>
<feColorMatrix in="SourceAlpha" type="matrix" values="0 0 0 0 0 0 0 0 0 0 0 0 0 0 0 0 0 0 127 0" result="hardAlpha"/>
<feMorphology radius="2" operator="erode" in="SourceAlpha" result="effect2_dropShadow_9_3003"/>
<feOffset dy="2"/>
<feGaussianBlur stdDeviation="2"/>
<feColorMatrix type="matrix" values="0 0 0 0 0.0470588 0 0 0 0 0.352941 0 0 0 0 0.439216 0 0 0 0.12 0"/>
<feBlend mode="normal" in2="effect1_dropShadow_9_3003" result="effect2_dropShadow_9_3003"/>
<feBlend mode="normal" in="SourceGraphic" in2="effect2_dropShadow_9_3003" result="shape"/>
</filter>
<filter id="filter1_dd_9_3003" x="322" y="83" width="36" height="36" filterUnits="userSpaceOnUse" color-interpolation-filters="sRGB">
<feFlood flood-opacity="0" result="BackgroundImageFix"/>
<feColorMatrix in="SourceAlpha" type="matrix" values="0 0 0 0 0 0 0 0 0 0 0 0 0 0 0 0 0 0 127 0" result="hardAlpha"/>
<feMorphology radius="2" operator="erode" in="SourceAlpha" result="effect1_dropShadow_9_3003"/>
<feOffset dy="2"/>
<feGaussianBlur stdDeviation="2"/>
<feColorMatrix type="matrix" values="0 0 0 0 0.0470588 0 0 0 0 0.352941 0 0 0 0 0.439216 0 0 0 0.08 0"/>
<feBlend mode="normal" in2="BackgroundImageFix" result="effect1_dropShadow_9_3003"/>
<feColorMatrix in="SourceAlpha" type="matrix" values="0 0 0 0 0 0 0 0 0 0 0 0 0 0 0 0 0 0 127 0" result="hardAlpha"/>
<feMorphology radius="2" operator="erode" in="SourceAlpha" result="effect2_dropShadow_9_3003"/>
<feOffset dy="2"/>
<feGaussianBlur stdDeviation="2"/>
<feColorMatrix type="matrix" values="0 0 0 0 0.0470588 0 0 0 0 0.352941 0 0 0 0 0.439216 0 0 0 0.12 0"/>
<feBlend mode="normal" in2="effect1_dropShadow_9_3003" result="effect2_dropShadow_9_3003"/>
<feBlend mode="normal" in="SourceGraphic" in2="effect2_dropShadow_9_3003" result="shape"/>
</filter>
<clipPath id="clip0_9_3003">
<rect width="18" height="18" fill="white" transform="translate(331 90)"/>
</clipPath>
</defs>
</svg>
