<?xml version="1.0" encoding="UTF-8"?>
<svg width="34px" height="47px" viewBox="0 0 34 47" version="1.1" xmlns="http://www.w3.org/2000/svg" xmlns:xlink="http://www.w3.org/1999/xlink">
    <!-- Generator: Sketch 52.6 (67491) - http://www.bohemiancoding.com/sketch -->
    <title>Thumbnail/xls-grey</title>
    <desc>Created with Sketch.</desc>
    <defs>
        <path d="M32.4816708,46.9106964 L1.35256246,46.9106964 C0.606280187,46.9106964 0,46.3102714 0,45.5700214 L0,1.3395 C0,0.599232061 0.606280187,0 1.35256246,0 L18.8279074,0 L18.8350257,0.00703206107 L18.8350257,14.8602232 L33.8341149,14.8613964 L33.8341149,45.5877453 C33.8245482,46.3198317 33.2231644,46.9106964 32.4816708,46.9106964 Z" id="path-1"></path>
        <polygon id="path-3" points="0 14.7099237 0 0 14.8297872 14.7099237"></polygon>
        <polygon id="path-5" points="15.1041166 0.318268931 15.1050643 15.2100431 0.0921834043 15.2100431 0.0921834043 0.318268931"></polygon>
    </defs>
    <g id="Thumbnail/xls-grey" stroke="none" stroke-width="1" fill="none" fill-rule="evenodd">
        <g id="thumbnail">
            <g id="Group-3">
                <mask id="mask-2" fill="white">
                    <use xlink:href="#path-1"></use>
                </mask>
                <g id="Clip-2"></g>
                <polygon id="Fill-1" fill="#D3D6DD" mask="url(#mask-2)" points="-1.73810749 48.7934231 35.7131457 48.7934231 35.7131457 -1.70506313 -1.73810749 -1.70506313"></polygon>
            </g>
            <g id="Group-6" transform="translate(19.170213, 0.000000)">
                <mask id="mask-4" fill="white">
                    <use xlink:href="#path-3"></use>
                </mask>
                <g id="Clip-5"></g>
                <polygon id="Fill-4" fill="#B0B7BD" mask="url(#mask-4)" points="-1.80851064 16.5038168 16.6382979 16.5038168 16.6382979 -1.79389313 -1.80851064 -1.79389313"></polygon>
            </g>
            <g id="Group-9" transform="translate(18.808511, 14.709924)">
                <mask id="mask-6" fill="white">
                    <use xlink:href="#path-5"></use>
                </mask>
                <g id="Clip-8"></g>
                <polygon id="Fill-7" fill="#CAD1D8" mask="url(#mask-6)" points="15.0960072 14.8339546 16.9138136 17.0039363 16.9138136 -1.4756242 -1.71632723 -1.4756242"></polygon>
            </g>
        </g>
        <path d="M12.065,40 L10.615,37.83 L9.185,40 L6.925,40 L9.475,36.46 L7.035,33 L9.265,33 L10.665,35.02 L12.045,33 L14.185,33 L11.745,36.38 L14.345,40 L12.065,40 Z M14.605,33 L16.585,33 L16.585,38.43 L19.925,38.43 L19.925,40 L14.605,40 L14.605,33 Z M22.945,40.14 C22.3783305,40.14 21.828336,40.0700007 21.295,39.93 C20.761664,39.7899993 20.328335,39.6033345 19.995,39.37 L20.645,37.91 C20.9583349,38.1166677 21.3216646,38.2833327 21.735,38.41 C22.1483354,38.5366673 22.554998,38.6 22.955,38.6 C23.7150038,38.6 24.095,38.4100019 24.095,38.03 C24.095,37.829999 23.9866677,37.6816672 23.77,37.585 C23.5533322,37.4883328 23.2050024,37.3866672 22.725,37.28 C22.1983307,37.1666661 21.7583351,37.0450006 21.405,36.915 C21.0516649,36.7849993 20.7483346,36.5766681 20.495,36.29 C20.2416654,36.0033319 20.115,35.6166691 20.115,35.13 C20.115,34.7033312 20.2316655,34.3183351 20.465,33.975 C20.6983345,33.631665 21.0466643,33.360001 21.51,33.16 C21.9733356,32.959999 22.5416633,32.86 23.215,32.86 C23.6750023,32.86 24.1283311,32.9116662 24.575,33.015 C25.0216689,33.1183338 25.4149983,33.269999 25.755,33.47 L25.145,34.94 C24.47833,34.5799982 23.8316698,34.4 23.205,34.4 C22.8116647,34.4 22.5250009,34.4583327 22.345,34.575 C22.1649991,34.6916673 22.075,34.8433324 22.075,35.03 C22.075,35.2166676 22.1816656,35.3566662 22.395,35.45 C22.6083344,35.5433338 22.9516643,35.6399995 23.425,35.74 C23.958336,35.8533339 24.3999982,35.9749994 24.75,36.105 C25.1000017,36.2350007 25.403332,36.4416652 25.66,36.725 C25.9166679,37.0083348 26.045,37.3933309 26.045,37.88 C26.045,38.3000021 25.9283345,38.6799983 25.695,39.02 C25.4616655,39.3600017 25.111669,39.6316657 24.645,39.835 C24.178331,40.0383343 23.61167,40.14 22.945,40.14 Z" id="XLS" fill="#6F7177"></path>
    </g>
</svg>