<svg xmlns="http://www.w3.org/2000/svg" width="44" height="59" viewBox="0 0 44 59">
    <g fill="none" fill-rule="evenodd">
        <g fill-rule="nonzero">
            <g>
                <g>
                    <g>
                        <g>
                            <g>
                                <path fill="#C1D1E0" d="M2.458 0h23.008L44 18.457v38.085C44 57.899 42.9 59 41.542 59H2.458C1.101 59 0 57.9 0 56.542V2.458C0 1.101 1.1 0 2.458 0z" transform="translate(-5206.000000, -488.000000) translate(4530.000000, 89.000000) translate(565.000000, 336.000000) translate(16.000000, 16.000000) translate(95.000000, 47.000000) translate(0.000000, 0.000000)"/>
                                <path fill="#C1D1E0" style="mix-blend-mode:multiply" d="M44 36.18L44 18.368 25.466 16.235z" opacity=".296" transform="translate(-5206.000000, -488.000000) translate(4530.000000, 89.000000) translate(565.000000, 336.000000) translate(16.000000, 16.000000) translate(95.000000, 47.000000) translate(0.000000, 0.000000)"/>
                                <path fill="#F2F6FA" d="M25.466 0v15.987c0 1.357 1.1 2.458 2.459 2.458h.011L44 18.368 25.466 0z" transform="translate(-5206.000000, -488.000000) translate(4530.000000, 89.000000) translate(565.000000, 336.000000) translate(16.000000, 16.000000) translate(95.000000, 47.000000) translate(0.000000, 0.000000)"/>
                            </g>
                            <path fill="#7F93A8" d="M10.59 49.167l1.154-1.84 1.183 1.84h2.64l-2.522-3.56 2.376-3.324h-2.484l-1.134 1.731-1.164-1.73H8.05l2.385 3.412-2.474 3.47h2.63zm10.897 0v-1.8h-3.09v-5.084H16.09v6.884h5.397zm2.772 0l1.153-1.84 1.184 1.84h2.64l-2.523-3.56 2.376-3.324h-2.484l-1.134 1.731-1.163-1.73h-2.592l2.386 3.412-2.474 3.47h2.63zm8.149.157c.684 0 1.266-.103 1.745-.31.48-.206.84-.485 1.08-.836.242-.35.362-.742.362-1.175 0-.498-.132-.891-.396-1.18-.264-.288-.575-.496-.933-.624-.359-.128-.799-.241-1.32-.34-.404-.078-.695-.152-.87-.22-.177-.07-.265-.173-.265-.31 0-.289.297-.433.89-.433.6 0 1.235.17 1.907.511l.694-1.681c-.345-.197-.745-.346-1.198-.448-.453-.101-.914-.152-1.383-.152-.685 0-1.266.102-1.746.305-.479.203-.839.482-1.08.836-.241.354-.362.747-.362 1.18 0 .498.13.893.391 1.185.261.291.567.501.92.629.351.128.791.247 1.32.359.41.085.705.164.884.236.18.072.27.18.27.324 0 .125-.07.218-.206.28-.137.063-.365.094-.685.094-.371 0-.759-.057-1.163-.172-.404-.115-.77-.267-1.095-.457l-.743 1.691c.345.216.787.388 1.325.516.537.128 1.09.192 1.657.192z" transform="translate(-5206.000000, -488.000000) translate(4530.000000, 89.000000) translate(565.000000, 336.000000) translate(16.000000, 16.000000) translate(95.000000, 47.000000)"/>
                        </g>
                    </g>
                </g>
            </g>
        </g>
    </g>
</svg>
