<svg xmlns="http://www.w3.org/2000/svg" width="40" height="40" viewBox="0 0 40 40">
    <defs>
        <linearGradient id="fj442j8m1a" x1="50%" x2="50%" y1="0%" y2="100%">
            <stop offset="0%" stop-color="#8093A7"/>
            <stop offset="100%" stop-color="#C0D0DF"/>
        </linearGradient>
    </defs>
    <g fill="none" fill-rule="evenodd">
        <g fill-rule="nonzero">
            <g>
                <g>
                    <g>
                        <path fill="#FFF" stroke="#E7EBF0" stroke-width=".5" d="M27.278.25c3.188.008 4.976.068 6.885.672 2.286.835 4.086 2.637 4.919 4.925.6 1.905.66 3.693.667 6.875h0l.001.801v13.755c-.008 3.188-.068 4.976-.672 6.885-.835 2.286-2.637 4.086-4.924 4.918-1.906.601-3.693.661-6.876.668h0l-.801.001H12.722c-3.188-.008-4.976-.068-6.884-.672-2.287-.835-4.087-2.637-4.92-4.925-.6-1.905-.66-3.693-.667-6.874h0V12.722c.007-3.188.067-4.976.67-6.885C1.758 3.551 3.56 1.751 5.848.918 7.752.318 9.54.258 12.72.251h0z" transform="translate(-1765.000000, -538.000000) translate(1745.000000, 26.000000) translate(0.000000, 383.000000) translate(20.000000, 129.000000)"/>
                        <g fill="url(#fj442j8m1a)" transform="translate(-1765.000000, -538.000000) translate(1745.000000, 26.000000) translate(0.000000, 383.000000) translate(20.000000, 129.000000) translate(4.000000, 4.000000)">
                            <path d="M16 0C7.163 0 0 7.163 0 16s7.163 16 16 16 16-7.163 16-16S24.837 0 16 0zm.5 29.101c-.182.164-.371.198-.498.198-.129 0-.32-.035-.506-.201-2.252-2.026-3.91-4.616-4.852-7.483 3.514-.898 7.206-.91 10.726-.038-.941 2.884-2.606 5.49-4.87 7.524zm-6.46-9.872c-.192-1.056-.296-2.136-.296-3.229s.104-2.173.296-3.229c1.98.505 4.01.759 6.042.759 1.977 0 3.955-.241 5.885-.72.188 1.044.29 2.11.29 3.19s-.102 2.146-.29 3.19c-3.914-.97-8.018-.959-11.926.039zm5.46-16.33c.182-.164.372-.198.498-.198.129 0 .32.035.506.201 2.262 2.035 3.924 4.639 4.865 7.52-3.52.873-7.211.861-10.726-.037.943-2.868 2.603-5.46 4.856-7.486zm8.836 9.192c1.348-.484 2.662-1.092 3.925-1.822.818 1.742 1.277 3.683 1.277 5.731s-.459 3.99-1.276 5.73c-1.264-.729-2.577-1.337-3.926-1.821.248-1.274.382-2.582.382-3.909s-.134-2.634-.382-3.909zm2.681-3.945c-1.063.613-2.164 1.132-3.294 1.551-.786-2.423-2.024-4.666-3.637-6.604 2.822.895 5.244 2.693 6.931 5.053zM11.915 3.093c-1.6 1.924-2.83 4.146-3.618 6.548-1.12-.425-2.213-.946-3.266-1.562 1.684-2.326 4.088-4.1 6.884-4.986zM3.77 10.195c1.256.735 2.562 1.35 3.903 1.842-.255 1.292-.392 2.617-.392 3.963s.137 2.671.392 3.963c-1.34.492-2.647 1.107-3.903 1.842-.838-1.76-1.31-3.728-1.31-5.805 0-2.077.472-4.045 1.31-5.805zm1.26 13.725c1.052-.615 2.145-1.136 3.266-1.561.787 2.401 2.017 4.624 3.618 6.548-2.796-.887-5.2-2.66-6.884-4.987zm15.055 4.987c1.613-1.94 2.85-4.181 3.637-6.605 1.13.42 2.231.94 3.294 1.552-1.687 2.36-4.11 4.157-6.931 5.053z"/>
                        </g>
                    </g>
                </g>
            </g>
        </g>
    </g>
</svg>
