<svg width="40" height="40" viewBox="0 0 40 40" fill="none" xmlns="http://www.w3.org/2000/svg">
  <g id="99d4eee28a75a117c7295fc604e6824c">
    <ellipse id="225e3de37025b6373c6b30e5f62d9cc9" cx="20" cy="20" rx="20" ry="20" fill="#F2385A"></ellipse>
    <path id="1341eeafcfcbb49716b2f8b6611d93e6" fill-rule="evenodd" clip-rule="evenodd" d="M29.0941 14.6768L29.1 14.7C29.3 15.5 29.6 17.1 29.6 19.8C29.6 22.4 29.3 24 29.1 24.9C29 25.2 28.5 26 28.6 25.8C28.5 26 28.1 26.3 27.8 26.4C24.8 27.6 20 27.6 19.8 27.6H19.7C19.1 27.6 14.6 27.5 11.8 26.4C11.5 26.3 11.2023 26.1023 10.9 25.8C10.7 25.6 10.6 25.3 10.5 24.9C10.3 24.1 10 22.5 10 19.8C10 17.1 10.3 15.5 10.5 14.7C10.6669 14.0323 11.1093 13.4341 11.7612 13.2131L11.8 13.2C14.8 12 19.6 12 19.8 12C20 12 24.8 12 27.8 13.2C28.4424 13.4141 28.9223 14.0218 29.0941 14.6768ZM27.5896 24.6312L27.6 24.6C27.8 23.9 28 22.4 27.8 19.9C27.8 17.3225 27.6177 15.8385 27.4272 15.1872C27.4101 15.1287 27.4028 15.0688 27.3971 15.0081C27.3965 15.0019 27.3958 14.9957 27.395 14.9896C27.3764 14.8524 27.3084 14.6926 27.1879 14.6246C27.1544 14.6057 27.1176 14.5966 27.0805 14.5875C27.0579 14.5819 27.0351 14.5763 27.013 14.5684C24.3003 13.6 19.7 13.6 19.7 13.6C19.41 13.6 15.1948 13.6 12.5656 14.5035C12.3893 14.5641 12.2319 14.6681 12.1 14.8L12.1 14.8C12.0105 14.8895 11.9933 15.0207 11.9765 15.1488C11.9732 15.1747 11.9698 15.2005 11.9658 15.2257C11.9606 15.2591 11.9552 15.2938 11.9495 15.3297C11.8241 16.1271 11.6 17.5526 11.6 19.8C11.6 22.2896 11.7983 23.7875 12.195 24.59C12.1983 24.5967 12.1999 24.6039 12.2004 24.6113C12.2008 24.6172 12.2014 24.6233 12.2024 24.6297C12.2097 24.6808 12.4427 25.0958 12.4942 25.0998C12.498 25.1001 12.5017 25.1006 12.5052 25.1019C14.6237 25.8848 17.9686 26.0536 19.3124 26.09C19.7047 26.1006 20.0953 26.1049 20.4877 26.1009C21.8327 26.0874 25.1818 25.963 27.3 25.1C27.4577 25.0358 27.5198 24.8451 27.5743 24.6778C27.5794 24.662 27.5845 24.6464 27.5896 24.6312ZM18.4996 16.0999C18.7996 15.9999 19.0996 15.9999 19.2996 16.1999L23.2996 19.1999C23.4996 19.2999 23.5996 19.5999 23.5996 19.7999C23.5996 19.9999 23.4996 20.2999 23.2996 20.3999L19.2996 23.3999C19.246 23.4267 19.1996 23.4535 19.1565 23.4783C19.0388 23.5463 18.946 23.5999 18.7996 23.5999C18.6996 23.5999 18.5996 23.5999 18.4996 23.4999C18.2996 23.2999 18.0996 23.0999 18.0996 22.7999V16.7999C18.0996 16.4999 18.1996 16.1999 18.4996 16.0999ZM19.5996 18.2999V21.2999L21.5996 19.7999L19.5996 18.2999Z" fill="white"></path>
  </g>
</svg>