<svg width="419" height="271" viewBox="0 0 419 271" fill="none" xmlns="http://www.w3.org/2000/svg">
<rect x="194.972" y="38.1818" width="226.797" height="178.706" rx="3.5" transform="rotate(10.5574 194.972 38.1818)" fill="#FCF0EE" stroke="#FAB1A5"/>
<path d="M193.839 41.5309C194.244 39.3592 196.332 37.9268 198.504 38.3315L414.58 78.6028C416.752 79.0076 418.184 81.0963 417.78 83.268L415.962 93.021L192.021 51.2839L193.839 41.5309Z" fill="#FAB1A5"/>
<rect x="199.972" y="70.7881" width="205.017" height="58.2148" rx="4" transform="rotate(10.5574 199.972 70.7881)" fill="#FAB1A5"/>
<rect x="216.469" y="154.965" width="15.1865" height="11.3898" transform="rotate(10.5574 216.469 154.965)" fill="#6C63FE"/>
<rect x="213.454" y="171.137" width="15.1865" height="11.3898" transform="rotate(10.5574 213.454 171.137)" fill="#FE5A5A"/>
<rect x="210.439" y="187.311" width="15.1865" height="11.3898" transform="rotate(10.5574 210.439 187.311)" fill="#FF9800"/>
<rect x="250.839" y="163.946" width="105.04" height="6.32769" transform="rotate(10.5574 250.839 163.946)" fill="#FAB1A5"/>
<rect x="247.824" y="180.119" width="105.04" height="6.32769" transform="rotate(10.5574 247.824 180.119)" fill="#FAB1A5"/>
<rect x="244.809" y="196.292" width="105.04" height="6.32769" transform="rotate(10.5574 244.809 196.292)" fill="#C6BFFF"/>
<circle cx="203.871" cy="46.4122" r="1.89831" transform="rotate(10.5574 203.871 46.4122)" fill="#EB5757"/>
<circle cx="211.336" cy="47.8038" r="1.89831" transform="rotate(10.5574 211.336 47.8038)" fill="#F2C94C"/>
<circle cx="218.801" cy="49.1949" r="1.89831" transform="rotate(10.5574 218.801 49.1949)" fill="#3BE88B"/>
<rect x="-0.399926" y="0.583146" width="226.797" height="178.706" rx="3.5" transform="matrix(-0.983072 0.183221 0.183221 0.983072 223.041 37.6818)" fill="#FCF0EE" stroke="#FAB1A5"/>
<path d="M224.674 41.5309C224.269 39.3592 222.18 37.9268 220.008 38.3315L3.93226 78.6028C1.76052 79.0076 0.328097 81.0963 0.732856 83.268L2.55057 93.021L226.491 51.2839L224.674 41.5309Z" fill="#FAB1A5"/>
<rect width="205.017" height="58.2148" rx="4" transform="matrix(-0.983072 0.183221 0.183221 0.983072 218.541 70.7881)" fill="#FAB1A5"/>
<rect width="15.1865" height="11.3898" transform="matrix(-0.983072 0.183221 0.183221 0.983072 202.042 154.965)" fill="#6C63FE"/>
<rect width="15.1865" height="11.3898" transform="matrix(-0.983072 0.183221 0.183221 0.983072 205.06 171.137)" fill="#FE5A5A"/>
<rect width="15.1865" height="11.3898" transform="matrix(-0.983072 0.183221 0.183221 0.983072 208.076 187.311)" fill="#FF9800"/>
<rect width="105.04" height="6.32769" transform="matrix(-0.983072 0.183221 0.183221 0.983072 167.671 163.946)" fill="#FAB1A5"/>
<rect width="105.04" height="6.32769" transform="matrix(-0.983072 0.183221 0.183221 0.983072 170.688 180.118)" fill="#FAB1A5"/>
<rect width="105.04" height="6.32769" transform="matrix(-0.983072 0.183221 0.183221 0.983072 173.704 196.292)" fill="#C6BFFF"/>
<circle r="1.89831" transform="matrix(-0.983072 0.183221 0.183221 0.983072 214.642 46.4122)" fill="#EB5757"/>
<circle r="1.89831" transform="matrix(-0.983072 0.183221 0.183221 0.983072 207.177 47.8038)" fill="#F2C94C"/>
<circle r="1.89831" transform="matrix(-0.983072 0.183221 0.183221 0.983072 199.712 49.1949)" fill="#3BE88B"/>
<rect x="71.3164" y="30.4014" width="276.108" height="217.608" rx="3.5" fill="#E6F9FF" stroke="#8EDEF4"/>
<path d="M70.8164 33.9014C70.8164 31.6922 72.6073 29.9014 74.8164 29.9014H343.925C346.134 29.9014 347.925 31.6922 347.925 33.9014V46.8358H70.8164V33.9014Z" fill="#B2ECFC"/>
<rect x="84.8693" y="68.3887" width="249.397" height="70.8165" rx="4" fill="#B2ECFC"/>
<rect x="85" y="165" width="63" height="14" rx="4" fill="#B2ECFC"/>
<rect x="85" y="185" width="63" height="14" rx="4" fill="#B2ECFC"/>
<rect x="85" y="205" width="63" height="14" rx="4" fill="#B2ECFC"/>
<rect x="159" y="168" width="142" height="8" rx="4" fill="#B2ECFC"/>
<rect x="159" y="188" width="142" height="8" rx="4" fill="#B2ECFC"/>
<rect x="159" y="208" width="142" height="8" rx="4" fill="#B2ECFC"/>
<circle cx="83.9023" cy="38.3688" r="2.30924" fill="#F2385A"/>
<circle cx="93.139" cy="38.3688" r="2.30924" fill="#F2BE38"/>
<circle cx="102.376" cy="38.3688" r="2.30924" fill="#20C9AD"/>
<path d="M177.673 65.9791L188.824 100.168C189.653 102.564 192.602 103.486 194.538 101.827L227.897 74.2729C227.897 74.2729 192.418 60.4499 192.418 61.1872C192.418 61.9244 177.673 65.9791 177.673 65.9791Z" fill="#FF768F"/>
<path d="M265.772 0.273958C243.932 8.93636 173.619 37.6882 146.986 48.6544C143.485 50.1289 143.669 55.1051 147.263 56.3031L177.674 65.9792L188.824 100.076C189.285 101.458 190.391 102.288 191.681 102.564C192.694 102.748 194.261 75.0103 194.261 75.0103C194.261 75.0103 226.238 98.6936 241.351 109.936C245.13 112.701 250.382 110.581 251.304 106.066C255.819 82.7511 267.154 24.6024 270.933 4.69731C271.486 1.5641 268.537 -0.831881 265.772 0.273958Z" fill="#FCD7DE"/>
<path d="M191.681 102.564C192.695 102.748 194.261 75.0101 194.261 75.0101L246.789 25.7081C247.157 25.3395 246.696 24.7865 246.328 25.063L177.766 66.0712L188.916 100.168C189.285 101.458 190.391 102.287 191.681 102.564Z" fill="#FAAFBD"/>
<path d="M10 161.942C45.6694 161.85 93.1982 141.648 102.686 102.889C106.517 87.2573 103.142 70.5287 90.7351 59.102C75.1354 44.6587 57.9849 57.8222 62.1813 78.0245C69.1145 111.116 109.436 135.615 140.088 135.889C157.786 136.072 174.389 127.57 180.775 110.202" stroke="#FAB1A5" stroke-width="1.5" stroke-miterlimit="10" stroke-dasharray="2.59 2.59"/>
<path d="M344.13 260.191C344.13 260.191 345.609 262.526 345.99 269.069C346.03 269.68 345.542 270.195 344.931 270.195H333.338C332.877 270.195 332.537 269.734 332.687 269.299C333.365 267.29 335.415 262.39 340.003 259.58L344.13 260.191Z" fill="#F2385A"/>
<path d="M344.632 255.752L343.981 261.25C343.926 261.725 343.546 262.105 343.071 262.16C342.433 262.227 341.51 262.282 340.614 262.132C339.8 261.997 339.216 261.277 339.216 260.449V255.142L344.632 255.752Z" fill="url(#paint0_linear_229_874)"/>
<path d="M315.447 259.58C315.447 259.58 317.66 263.028 317.619 267.766C317.605 268.879 316.669 269.775 315.556 269.775H297.556C296.714 269.775 296.375 268.689 297.067 268.2C300.474 265.811 307.166 261.345 312.013 259.58H315.447Z" fill="#F2385A"/>
<path d="M317.307 253.648L315.908 260.435C315.746 261.195 315.013 261.711 314.252 261.535C313.791 261.426 313.248 261.236 312.664 260.87C312.108 260.53 311.836 259.865 311.945 259.227L313.397 251.001L317.307 253.648Z" fill="url(#paint1_linear_229_874)"/>
<path d="M342.066 159.238C342.066 159.238 346.926 163.527 347.849 168.686C348.759 173.844 345.256 257.68 345.256 257.68C345.256 257.68 340.397 258.494 337.886 256.974C337.886 256.974 334.913 202.568 332.659 189.998C332.659 189.998 320.809 246.359 317.524 256.54C317.524 256.54 312.841 257.11 311.334 256.214C311.334 256.214 314.442 183.156 318.338 170.165L342.066 159.238Z" fill="#102D42"/>
<path d="M301.981 113.463L301.981 113.463C297.569 111.663 294.152 108.935 291.532 105.894C289.347 107.56 286.266 109.55 282.601 110.912C286.514 119.077 292.88 125.513 298.278 129.912C300.985 132.117 303.447 133.81 305.232 134.951C306.124 135.522 306.847 135.954 307.347 136.244C307.597 136.389 307.792 136.499 307.923 136.572C307.989 136.608 308.039 136.635 308.073 136.654L308.088 136.662L323.795 127.31C323.794 127.307 323.792 127.304 323.79 127.3C323.765 127.254 323.726 127.185 323.669 127.094C323.556 126.912 323.372 126.642 323.091 126.293C322.53 125.594 321.583 124.581 320.04 123.325C316.956 120.812 311.492 117.33 301.981 113.463Z" fill="#FAB1A5" stroke="#FAB1A5" stroke-width="0.144271"/>
<path d="M287.008 72.1028C287.334 71.5327 288.203 71.777 288.189 72.4286L287.999 78.5778C287.959 79.7724 287.565 80.9126 286.845 81.8628L284.565 84.347C283.601 85.6366 283.235 87.2655 283.574 88.8401C284.361 92.6003 286.438 99.7947 291.556 105.795C289.357 107.478 286.235 109.5 282.515 110.872C279.637 104.844 278.104 97.8807 279.271 90.1025C278.375 89.2338 278.171 87.8899 278.782 86.804L287.008 72.1028Z" fill="url(#paint2_linear_229_874)"/>
<path d="M316.247 107.155L316.247 107.155C312.272 107.881 306.857 109.119 301.537 111.144C296.22 113.168 291.003 115.977 287.41 119.842L287.4 119.869C287.39 119.895 287.375 119.934 287.355 119.984C287.314 120.086 287.254 120.234 287.172 120.424C287.01 120.803 286.765 121.346 286.436 122.005C285.778 123.321 284.78 125.097 283.425 126.935C280.724 130.599 276.594 134.519 270.88 135.53C270.473 139.527 269.625 143.523 268.338 147.519C272.185 148.893 276.606 149.283 281.491 147.756C286.405 146.22 291.793 142.744 297.543 136.37L297.608 136.298L297.658 136.381L316.133 167.168C316.629 167.994 316.89 168.93 316.89 169.893C316.89 170.972 317.916 171.738 318.942 171.439C323.817 170.014 335.838 166.364 342.524 163.15C343.777 162.543 344.292 161.052 343.698 159.798C342.666 157.652 341.051 154.204 339.503 150.674C337.615 146.368 327.881 121.349 324.311 111.738C323.088 108.445 319.688 106.523 316.247 107.155Z" fill="#FF768F" stroke="#FAB1A5" stroke-width="0.144271"/>
<path d="M251.891 133.31L253.954 130.555C260.647 135.143 266.226 136.229 270.8 135.455C270.393 139.5 269.538 143.532 268.235 147.55C258.04 143.871 251.891 133.31 251.891 133.31Z" fill="url(#paint3_linear_229_874)"/>
<path d="M253.344 133.351L241.71 133.799L231 127.813C232.534 126.849 241.235 128.817 241.235 128.817C241.235 128.817 250.33 127.446 252.787 127.433C254.837 127.433 254.538 130.365 254.375 131.369C254.348 131.573 254.321 131.695 254.321 131.695L253.344 133.351Z" fill="url(#paint4_linear_229_874)"/>
<path d="M305.293 92.8179L311.429 107.804C311.429 107.804 304.37 112.691 298.696 112.216L295.628 98.7499L305.293 92.8179Z" fill="url(#paint5_linear_229_874)"/>
<path d="M294.922 82.6093C294.787 82.8129 290.483 98.3421 290.483 98.3421L299.402 100.609L305.66 86.4916C305.673 86.4916 297.271 79.27 294.922 82.6093Z" fill="url(#paint6_linear_229_874)"/>
<path d="M302.307 88.6367L299.592 96.3334C299.551 96.4284 299.51 96.5235 299.456 96.6049C299.09 97.1343 297.691 98.8311 296.022 97.2972C294.515 95.899 293.117 94.6502 291.827 94.4194C291.244 94.3108 290.687 94.6638 290.538 95.2339C290.144 96.6456 289.33 99.8492 289.031 102.727C288.977 103.311 289.37 103.84 289.954 103.949C291.692 104.274 295.397 104.872 298.479 104.655C298.9 104.627 299.266 104.37 299.443 103.989C300.298 102.13 302.89 96.4963 303.868 95.0438C304.777 93.6728 307.004 93.7136 307.94 93.795C308.252 93.8222 308.551 93.7271 308.782 93.5235C309.596 92.8041 311.157 90.9715 308.972 88.786C308.51 88.3245 308.524 87.5915 308.999 87.1435C309.936 86.2612 310.94 84.6865 309.379 82.7454C307.791 80.7635 305.687 81.0893 304.397 81.5508C303.881 81.7408 303.311 81.5237 303.026 81.0486C302.863 80.7771 302.578 80.5735 302.103 80.6142C301.452 80.6685 300.895 80.1255 300.909 79.4603C300.936 78.1979 300.474 76.5961 298.275 75.9174C294.379 74.7093 291.949 78.4694 291.705 81.2793C291.461 84.0892 295.764 85.1616 298.289 84.9716C300.216 84.8223 301.642 86.7363 302.212 87.6593C302.388 87.958 302.415 88.3109 302.307 88.6367Z" fill="#102D42"/>
<path d="M302.85 97.8404C302.85 97.8404 303.474 92.9672 305.51 92.7228C307.533 92.4785 309.515 94.1482 307.492 96.8902C304.981 100.297 302.85 97.8404 302.85 97.8404Z" fill="url(#paint7_linear_229_874)"/>
<defs>
<linearGradient id="paint0_linear_229_874" x1="338.837" y1="262.186" x2="346.352" y2="257.19" gradientUnits="userSpaceOnUse">
<stop stop-color="#F9B776"/>
<stop offset="1" stop-color="#F47960"/>
</linearGradient>
<linearGradient id="paint1_linear_229_874" x1="311.545" y1="261.507" x2="320.55" y2="257.516" gradientUnits="userSpaceOnUse">
<stop stop-color="#F9B776"/>
<stop offset="1" stop-color="#F47960"/>
</linearGradient>
<linearGradient id="paint2_linear_229_874" x1="277.515" y1="110.64" x2="301.708" y2="103.576" gradientUnits="userSpaceOnUse">
<stop stop-color="#F9B776"/>
<stop offset="1" stop-color="#F47960"/>
</linearGradient>
<linearGradient id="paint3_linear_229_874" x1="250.57" y1="147.449" x2="270.107" y2="128.545" gradientUnits="userSpaceOnUse">
<stop stop-color="#F9B776"/>
<stop offset="1" stop-color="#F47960"/>
</linearGradient>
<linearGradient id="paint4_linear_229_874" x1="229.358" y1="133.761" x2="233.518" y2="120.413" gradientUnits="userSpaceOnUse">
<stop stop-color="#F9B776"/>
<stop offset="1" stop-color="#F47960"/>
</linearGradient>
<linearGradient id="paint5_linear_229_874" x1="294.524" y1="112.133" x2="315.595" y2="97.2311" gradientUnits="userSpaceOnUse">
<stop stop-color="#F9B776"/>
<stop offset="1" stop-color="#F47960"/>
</linearGradient>
<linearGradient id="paint6_linear_229_874" x1="289.423" y1="100.497" x2="309.818" y2="86.2403" gradientUnits="userSpaceOnUse">
<stop stop-color="#F9B776"/>
<stop offset="1" stop-color="#F47960"/>
</linearGradient>
<linearGradient id="paint7_linear_229_874" x1="302.466" y1="98.6617" x2="309.189" y2="93.3115" gradientUnits="userSpaceOnUse">
<stop stop-color="#F9B776"/>
<stop offset="1" stop-color="#F47960"/>
</linearGradient>
</defs>
</svg>
