<svg xmlns="http://www.w3.org/2000/svg" width="88" height="88" viewBox="0 0 88 88">
    <defs>
        <linearGradient id="h9cakhqhva" x1="157.42%" x2="118.836%" y1="25.495%" y2="68.015%">
            <stop offset="0%" stop-color="#E5EDFF"/>
            <stop offset="100%" stop-color="#6B9AD9"/>
        </linearGradient>
        <linearGradient id="mhqxm2dj8b" x1="165.734%" x2="3.097%" y1="55.085%" y2="48.313%">
            <stop offset="0%" stop-color="#8093A7" stop-opacity=".2"/>
            <stop offset="100%" stop-color="#FFF"/>
        </linearGradient>
        <linearGradient id="qknu1t1pyc" x1="149.996%" x2="0%" y1="56.188%" y2="56.188%">
            <stop offset="0%" stop-color="#E5EDFF"/>
            <stop offset="100%" stop-color="#6B9AD9"/>
        </linearGradient>
        <linearGradient id="0oxlodf9cd" x1="50%" x2="50%" y1="96.028%" y2="1.628%">
            <stop offset="0%" stop-color="#8093A7" stop-opacity=".2"/>
            <stop offset="0%" stop-color="#0953A0" stop-opacity=".2"/>
            <stop offset="100%" stop-color="#FFF"/>
        </linearGradient>
        <linearGradient id="ehsz405pfe" x1="50%" x2="50%" y1="-71.136%" y2="194.983%">
            <stop offset="0%" stop-color="#E5EDFF"/>
            <stop offset="100%" stop-color="#6B9AD9"/>
        </linearGradient>
        <linearGradient id="cyh5ifacff" x1="157.42%" x2="118.836%" y1="44.758%" y2="53.853%">
            <stop offset="0%" stop-color="#E5EDFF"/>
            <stop offset="100%" stop-color="#6B9AD9"/>
        </linearGradient>
        <linearGradient id="zxlifwrtcg" x1="50%" x2="50%" y1="96.028%" y2="1.628%">
            <stop offset="0%" stop-color="#8093A7" stop-opacity=".2"/>
            <stop offset="0%" stop-color="#0953A0" stop-opacity=".2"/>
            <stop offset="100%" stop-color="#FFF"/>
        </linearGradient>
        <linearGradient id="96xjb4zezh" x1="157.42%" x2="118.836%" y1="-39.646%" y2="115.903%">
            <stop offset="0%" stop-color="#E5EDFF"/>
            <stop offset="100%" stop-color="#6B9AD9"/>
        </linearGradient>
        <linearGradient id="1h4gsl56ei" x1="92.65%" x2="15.844%" y1="5.781%" y2="78.048%">
            <stop offset="0%" stop-color="#FEFEFC"/>
            <stop offset="100%" stop-color="#C4EAFC" stop-opacity=".1"/>
        </linearGradient>
        <linearGradient id="5yt7o6zc2j" x1="110.62%" x2="13.181%" y1="2.672%" y2="94.416%">
            <stop offset="0%" stop-color="#FEFEFC"/>
            <stop offset="100%" stop-color="#C4EAFC" stop-opacity=".1"/>
        </linearGradient>
    </defs>
    <g fill="none" fill-rule="evenodd">
        <g>
            <g>
                <g transform="translate(-644 -664) translate(521 664) translate(123)">
                    <g>
                        <path d="M0 0H88V88H0z"/>
                        <g fill-rule="nonzero" opacity=".6" transform="translate(1.833 13.75)">
                            <path fill="url(#h9cakhqhva)" d="M63.764 27.164v25.764c0 2.081-1.704 3.785-3.785 3.785H3.785C1.704 56.713 0 55.009 0 52.928V27.164c0-2.081 1.704-3.78 3.785-3.78H59.98c2.082 0 3.785 1.699 3.785 3.78z"/>
                            <path fill="url(#mhqxm2dj8b)" d="M66.001 45.46v3.79H11.577c-2.082 0-3.786-1.698-3.786-3.78V21.146h3.796v20.529c0 2.082 1.699 3.785 3.78 3.785h50.634z" opacity=".18"/>
                            <path fill="url(#qknu1t1pyc)" d="M73.116 18.149v25.763c0 2.082-1.704 3.785-3.785 3.785H13.13c-2.082 0-3.78-1.704-3.78-3.785V18.149c.004-2.086 1.694-3.776 3.78-3.78h56.2c2.081-.001 3.786 1.698 3.786 3.78z"/>
                            <circle cx="23.724" cy="31.032" r="8.383" fill="#FFF" opacity=".511"/>
                            <rect width="21.236" height="3.801" x="35.132" y="25.326" fill="#FFF" opacity=".511" rx="1.9"/>
                            <rect width="8.283" height="3.801" x="59.378" y="25.255" fill="#FFF" opacity=".511" rx="1.9"/>
                            <rect width="21.236" height="3.801" x="35.132" y="32.94" fill="#FFF" opacity=".511" rx="1.9"/>
                            <rect width="8.283" height="3.801" x="59.378" y="32.869" fill="#FFF" opacity=".511" rx="1.9"/>
                            <path fill="url(#0oxlodf9cd)" d="M23.52 7.054v13.363c-.005 1.593-1.295 2.884-2.889 2.889H7.273c-1.593-.005-2.884-1.296-2.889-2.89V7.055c0-1.582 1.3-2.883 2.889-2.883H20.63c1.588.002 2.89 1.303 2.89 2.883z" opacity=".18"/>
                            <path fill="url(#ehsz405pfe)" d="M19.346 2.883v13.363c-.005 1.593-1.296 2.883-2.889 2.889H3.1c-1.593-.006-2.884-1.296-2.889-2.89V2.884C.211 1.3 1.511 0 3.1 0h13.357c1.588 0 2.889 1.3 2.889 2.883z"/>
                            <path fill="url(#cyh5ifacff)" d="M43.592 10.891c.031.018.05.051.05.087v.005c-.013.394-.03.787-.045 1.18-.002.028-.025.048-.052.048-.027 0-.05-.02-.051-.047-.015-.394-.033-.787-.045-1.18-.003-.036.014-.07.044-.09.03-.02.068-.02.1-.003zm-.317-2.285l.003.006c.093.184.17.375.23.572.06.196.103.397.129.6.01.072-.04.139-.112.15-.058.01-.113-.02-.14-.068l-.013-.04c-.035-.186-.085-.369-.15-.546-.063-.177-.142-.348-.234-.51-.043-.08-.015-.18.063-.224.078-.044.178-.018.224.06zm-1.763-1.69l.005.002c.38.173.728.41 1.028.7.07.073.07.188.002.263-.055.06-.139.078-.211.05l-.052-.029c-.278-.246-.595-.444-.939-.586-.071-.03-.121-.095-.131-.172-.01-.077.022-.153.083-.2.062-.047.144-.058.215-.028zm-7.126-.367l1.18.002c.152 0 .275.123.275.274 0 .152-.123.274-.274.274l-1.181.003c-.153 0-.276-.124-.276-.277 0-.152.123-.276.276-.276zm-1.18.002c.097 0 .188.051.237.136.05.084.05.189.001.274-.048.085-.138.138-.236.138h-.003l-1.18-.005c-.149 0-.27-.12-.27-.27 0-.148.121-.269.27-.269l1.18-.004zm3.538.003l.003.001 1.18.008c.145 0 .262.117.262.261 0 .144-.117.261-.261.261l-1.18.008c-.146-.004-.261-.123-.262-.268-.001-.145.113-.265.258-.27zm-5.9.01c.144-.002.262.114.263.258.002.144-.114.262-.258.263h-.005l-1.18-.01c-.139 0-.251-.113-.251-.251 0-.139.112-.25.25-.25l1.181-.01zm8.266.01l.59.007.295.004c.024 0 .05 0 .077.003l.078.003.157.008c.128.007.227.115.223.243-.005.129-.11.23-.24.227h-.017l-.138-.003h-.14l-.295.004-.59.008c-.09 0-.174-.046-.22-.123-.045-.077-.047-.173-.003-.251.044-.078.126-.127.216-.128l.007-.002zm-10.627.014c.086-.005.168.038.213.112.045.073.047.165.004.24-.043.075-.123.12-.21.119h-.007l-1.18-.019c-.12 0-.217-.097-.217-.217s.097-.217.216-.217l1.18-.018zm-2.362.043c.104.002.188.086.19.19.002.105-.08.192-.183.198h-.007c-.394-.007-.787-.019-1.18-.028-.092 0-.166-.074-.166-.166 0-.091.074-.165.165-.165.394-.01.787-.022 1.18-.03zm-2.36.06c.049-.004.097.02.123.061.027.042.029.095.005.139-.024.043-.07.07-.12.07h-.009l-1.18-.038c-.051-.003-.091-.045-.091-.097 0-.051.04-.094.09-.097v-.001l1.181-.038z"/>
                            <path fill="url(#zxlifwrtcg)" d="M78.551 47.094c0 4.65-3.771 8.423-8.423 8.423-.041 0-.082-.001-.123-.005-1.016-.01-2.021-.207-2.966-.58-.79-.31-1.525-.739-2.183-1.273-1.306-1.042-2.271-2.45-2.773-4.044-.253-.817-.382-1.667-.383-2.522 0-4.652 3.772-8.423 8.427-8.423.855 0 1.706.13 2.522.383 3.473 1.083 5.854 4.28 5.897 7.917.004.04.006.082.005.124z" opacity=".18"/>
                            <path fill="url(#96xjb4zezh)" d="M83.628 49.164c0 5.06-4.103 9.164-9.164 9.164-.045.001-.09 0-.134-.005-1.106-.01-2.2-.225-3.227-.632-.859-.335-1.66-.802-2.375-1.383-1.42-1.135-2.47-2.667-3.017-4.4-.275-.889-.416-1.814-.416-2.744 0-5.06 4.103-9.164 9.168-9.164.93 0 1.855.141 2.744.417 3.778 1.178 6.368 4.655 6.416 8.613.004.044.005.09.005.134z"/>
                            <g opacity=".21">
                                <path fill="url(#1h4gsl56ei)" d="M15.656 2.981L3.003 15.634C1.608 14.52.576 13.014.04 11.31L11.333.022c1.702.537 3.207 1.566 4.323 2.96z" transform="translate(66.88 40.89)"/>
                                <path fill="url(#5yt7o6zc2j)" d="M17.637 8.484l-9.13 9.13c-1.086-.01-2.16-.221-3.17-.62L17.014 5.308c.398 1.012.609 2.088.623 3.175z" transform="translate(66.88 40.89)"/>
                            </g>
                            <g fill="#FFF">
                                <path d="M9.625 2.517c.143-.056.303-.036.429.057.125.093.2.246.2.41v8.948c0 .163-.075.316-.2.409-.08.058-.172.088-.266.088-.055 0-.11-.01-.163-.031l-3.1-1.24v.774c0 .146-.06.285-.165.38-.084.076-.191.117-.3.117-.026 0-.052-.002-.078-.007l-2.796-.497c-.224-.04-.39-.247-.39-.49V9.667l-.63-.252c-.18-.073-.302-.259-.302-.466V5.966c0-.207.121-.393.303-.466zM3.729 10.04v.975l1.864.331v-.56L3.73 10.04zm6.958-.593c.128-.238.413-.32.636-.182l.808.498c.223.137.3.44.17.679-.086.16-.243.248-.404.248-.079 0-.159-.021-.232-.066l-.808-.498c-.222-.137-.299-.441-.17-.679zm1.898-2.486c.257 0 .466.223.466.498 0 .274-.209.497-.466.497h-.932c-.258 0-.467-.223-.467-.497 0-.275.21-.498.467-.498zm-.92-2.667c.223-.138.508-.057.637.181.128.239.052.542-.171.68l-.808.497c-.073.045-.153.066-.232.066-.161 0-.318-.089-.404-.248-.129-.238-.052-.542.17-.68z" transform="translate(2.449 2.237)"/>
                            </g>
                            <g fill="#FFF">
                                <path d="M8.955 6.98c.282.283.282.706 0 .988l-.987.987c-.282.282-.705.282-.987 0L5.5 7.475l-1.48 1.48c-.283.282-.706.282-.988 0l-.987-.987c-.282-.282-.282-.705 0-.987L3.525 5.5l-1.48-1.48c-.282-.283-.282-.706 0-.988l.987-.987c.282-.282.705-.282.987 0L5.5 3.525l1.48-1.48c.283-.282.706-.282.988 0l.987.987c.282.282.282.705 0 .987L7.475 5.5l1.48 1.48z" transform="translate(68.961 43.667)"/>
                            </g>
                        </g>
                    </g>
                    <ellipse cx="35.292" cy="76.226" fill="#E2EBFC" opacity=".421" rx="33.458" ry="1.976"/>
                </g>
            </g>
        </g>
    </g>
</svg>
