<svg width="378" height="332" viewBox="0 0 378 332" fill="none" xmlns="http://www.w3.org/2000/svg">
<mask id="mask0_235_1666" style="mask-type:alpha" maskUnits="userSpaceOnUse" x="0" y="246" width="378" height="86">
<rect y="246" width="378" height="86" fill="#FCF0EE"/>
</mask>
<g mask="url(#mask0_235_1666)">
<path d="M62.8402 349.669C75.8653 346.045 88.7368 342.884 100.801 340.192C181.587 322.132 288.864 304.352 370.611 329.354C409.468 341.237 433.824 358.721 452.73 380.452C463.095 392.363 475.738 404.703 497.077 410.657C519.451 416.915 545.352 415.242 568.306 410.901C587.583 407.254 605.959 402.077 625.777 399.456C661.691 394.709 690.253 401.885 705.096 421.092C723.041 444.304 727.104 475.447 788.107 467.715C804.56 465.63 819.864 461.423 835.927 458.551C867.922 452.827 907.884 453.724 929.217 468.118C957.279 487.051 938.304 514.871 955.679 535.933C966.341 548.848 982.507 550.264 1005.4 552.879C1078.09 561.187 1151.81 595.735 1103.54 638.712C1065.81 672.299 1003.21 697.935 940.469 715.561C823.669 748.378 689.46 775.169 558.174 752.96C488.61 741.192 440.859 715.465 418.5 677.674C412.976 668.345 403.533 658.594 386.817 655.306C370.72 652.143 353.058 655.188 336.53 653.076C317.114 650.59 299.694 643.722 283.825 637.359C256.844 626.534 228.643 614.955 196.019 610.025C161.378 604.806 124.012 605.555 88.7764 601.955C71.4361 600.188 52.9265 596.868 43.4389 588.647C20.2028 568.518 66.229 550.615 55.042 530.283C51.4253 523.698 41.6652 518.805 32.2519 514.281C-8.0173 494.865 -57.9178 470.84 -63.4519 439.478C-70.8488 397.352 -2.0572 367.718 62.8402 349.669Z" fill="#FAB1A5"/>
<g filter="url(#filter0_dddd_235_1666)">
<path d="M252.014 337.869C299.695 373.26 333.952 420.413 402 430.27V542H-344V347.198C-319.34 359.596 -291.531 369.632 -258.965 374.02C-251.578 375.025 -248.297 402.739 -237.286 390.607C-184.767 393.616 -135.323 381.163 -90.6792 366.5C-80.3231 363.084 -70.1695 359.484 -60.1071 355.802C-28.5429 344.294 5.68619 319.535 39.9128 310.537C121.668 288.972 197.471 297.395 252.014 337.869Z" fill="#E6F9FF"/>
</g>
</g>
<path d="M111.535 318.842H66.6844" stroke="#1D2026" stroke-width="2.12746"/>
<path opacity="0.5" fill-rule="evenodd" clip-rule="evenodd" d="M61.4336 154.944C61.4336 156.897 61.583 158.848 61.8792 160.778H329.992C331.486 155.793 332.242 150.615 332.238 145.409C332.238 115.995 308.465 92.1501 279.128 92.1501C278.341 92.1501 277.56 92.1674 276.784 92.2018C273.842 92.3242 270.937 91.5145 268.48 89.8873C266.023 88.26 264.139 85.8983 263.097 83.1371C254.856 61.5446 233.996 46.207 209.567 46.207C199.851 46.2016 190.293 48.6757 181.794 53.3965C173.295 58.1174 166.133 64.9295 160.984 73.1918C159.527 75.5543 157.403 77.4287 154.88 78.5761C152.358 79.7235 149.552 80.0923 146.82 79.6352C135.547 77.6769 123.946 79.7876 114.078 85.5923C104.209 91.3973 96.7099 100.521 92.9139 111.343C92.2598 113.226 91.2142 114.949 89.8493 116.398C88.4844 117.847 86.8285 118.99 84.9898 119.752C78.0236 122.611 72.0644 127.485 67.8693 133.752C63.6741 140.019 61.4336 147.396 61.4336 154.944Z" fill="white"/>
<path d="M118.999 230.852C135.156 247.343 126.294 245.579 126.294 245.579C126.294 245.579 103.557 235.551 100.913 232.573C98.2697 229.595 107.965 224.934 107.965 224.934C107.965 224.934 111.858 223.564 118.999 230.852Z" fill="url(#paint0_linear_235_1666)"/>
<path d="M151.979 201.49H107.128" stroke="#102D42" stroke-width="2.12746"/>
<path d="M138.497 240.605H93.6465" stroke="#102D42" stroke-width="2.12746"/>
<path d="M125.017 279.724H80.1663" stroke="#102D42" stroke-width="2.12746"/>
<path d="M168.925 152.124L108.22 326.167" stroke="#102D42" stroke-width="2.12746"/>
<path d="M124.683 152.124L63.9779 326.167" stroke="#102D42" stroke-width="2.12746"/>
<path d="M165.46 162.369H120.609" stroke="#1D2026" stroke-width="2.12746"/>
<path d="M147.665 152.111C147.665 152.111 156.56 155.9 158.535 159.563C160.511 163.226 160.166 166.949 157.679 169.278C156.475 170.403 144.309 170.303 144.309 170.303L141.344 157.68L147.665 152.111Z" fill="url(#paint1_linear_235_1666)"/>
<path d="M165.13 162.369H153.361" stroke="#102D42" stroke-width="2.12746"/>
<path d="M92.8149 270.062C92.8149 270.062 115.853 271.807 111.726 275.546C107.6 279.284 85.9817 283.135 79.2108 282.386C72.4399 281.636 79.7924 272.01 79.7924 272.01L92.8149 270.062Z" fill="url(#paint2_linear_235_1666)"/>
<path d="M135.804 154.893L149.916 168.481C152.221 170.7 153.667 173.663 153.999 176.845C154.332 180.028 153.528 183.225 151.732 185.873L122.83 232.887L103.536 222.53L125.703 183.297L107.137 171.695L95.2064 269.721L77.9201 273.044L77.1999 160.931C77.1456 154.541 78.344 148.202 80.7327 142.275L84.0536 134.022L117.583 133.19L135.804 154.893Z" fill="#77C2D7"/>
<path d="M176.554 93.1891C176.679 93.1891 181.445 94.5016 181.5 92.3874C181.554 90.2731 176.024 89.0828 173.181 88.9252C170.339 88.7676 167.118 89.1671 166.045 87.224C164.363 84.1804 166.909 81.9982 167.284 79.6149C167.659 77.2316 167.078 75.851 165.572 75.9353C164.067 76.0195 163.982 81.1285 160.827 83.1694C157.509 85.3163 155.12 89.4388 155.12 89.4388L146.506 95.0587C146.506 95.0587 152.694 103.823 152.946 103.864C153.199 103.904 160.137 98.135 160.137 98.135C160.137 98.135 160.681 99.934 169.543 102.233" fill="url(#paint3_linear_235_1666)"/>
<path d="M115.065 108.087L111.679 130.795C111.333 133.096 111.619 135.447 112.502 137.599C113.385 139.752 114.831 141.626 116.692 143.024L141.49 161.655L151.083 152.291L132.332 130.183C132.332 130.183 141.485 100.051 125.565 91.7406C111.149 84.213 104.45 90.0068 100.452 95.961C97.3326 100.603 94.3351 111.321 91.9409 116.672C89.5468 122.022 84.022 134.042 84.022 134.042L115.942 136.488" fill="#DA6668"/>
<path d="M137.306 115.667C132.804 115.667 129.154 112.017 129.154 107.514C129.154 103.011 132.804 99.3613 137.306 99.3613C141.809 99.3613 145.459 103.011 145.459 107.514C145.459 112.017 141.809 115.667 137.306 115.667Z" fill="#EF6E45"/>
<path d="M149.089 87.9463L158.231 103.415L127.517 127.72L123.783 103.08L149.089 87.9463Z" fill="#DA6668"/>
<path d="M121.996 63.9719C119.167 63.1703 116.226 64.764 115.338 67.5441L115.285 67.7194L109.323 88.7615C108.505 91.6495 110.182 94.6541 113.07 95.4724C115.899 96.2741 118.84 94.6804 119.729 91.9002L119.781 91.7249L125.744 70.6829C126.562 67.7948 124.884 64.7902 121.996 63.9719Z" fill="url(#paint4_linear_235_1666)"/>
<path d="M117.048 85.5248L118.432 85.884C120.044 86.2985 121.733 86.3775 123.382 86.1158C125.031 85.8537 126.595 85.2571 127.967 84.3684C129.339 83.4797 130.484 82.3205 131.32 80.9735C132.155 79.6266 132.662 78.125 132.802 76.5754L133.501 68.8973C133.726 66.4183 133.006 63.945 131.466 61.9111C129.925 59.8776 127.664 58.4135 125.078 57.7769C123.634 57.4208 122.126 57.333 120.645 57.5183C119.164 57.7038 117.737 58.1586 116.447 58.8571C115.154 59.5556 114.023 60.4839 113.116 61.5894C112.209 62.6946 111.548 63.955 111.165 65.2988L109.083 72.6176C108.317 75.3112 108.723 78.1775 110.214 80.5943C111.705 83.0108 114.16 84.7826 117.048 85.5248Z" fill="url(#paint5_linear_235_1666)"/>
<g filter="url(#filter1_i_235_1666)">
<path fill-rule="evenodd" clip-rule="evenodd" d="M71.7098 72.8835C70.476 87.4659 84.6535 88.7024 84.6535 88.7024C84.6535 88.7024 76.808 104.706 94.3661 103.377C111.924 102.048 116.715 89.5177 116.036 82.3515C115.764 79.4981 114.286 77.286 112.614 75.1527C122.237 73.6662 122.091 67.0381 122.091 67.0381C122.091 67.0381 137.518 73.0575 137.393 61.1845C137.268 49.3114 125.099 45.5069 117.908 45.6319C116.392 45.6637 114.892 45.9248 113.454 46.4064C108.834 47.9201 105.239 50.6566 99.0946 50.7545C82.1208 51.0262 80.4902 60.6002 80.4902 60.6002C80.4902 60.6002 72.5468 63.0161 71.7098 72.8835Z" fill="#035970"/>
</g>
<path fill-rule="evenodd" clip-rule="evenodd" d="M169.317 300.113C175.019 300.579 179.368 298.029 184.839 297.338C190.389 296.637 197.022 299.099 200.581 303.456C204.012 307.657 201.19 313.215 197.123 315.907C194.449 317.676 191.055 318.087 187.893 318.057C184.131 318.022 180.72 317.647 177.223 316.436C173.57 315.17 169.062 315.594 165.25 315.594L169.317 300.113Z" fill="#FAB1A5"/>
<path fill-rule="evenodd" clip-rule="evenodd" d="M152.427 291.365C152.166 289.937 150.483 288.508 149.273 287.873C148.069 287.241 146.044 286.132 144.717 286C144.222 287.367 143.714 288.866 143.421 290.346C143.236 291.273 142.879 292.293 142.817 293.233C142.737 294.446 143.312 295.318 143.655 296.42L152.427 291.365Z" fill="#FAB1A5"/>
<path fill-rule="evenodd" clip-rule="evenodd" d="M166.052 291.329C166.944 291.011 167.512 289.931 168.322 289.395C169.863 288.373 172.022 287.055 173.818 286.815C175.474 286.594 175.624 289.155 175.866 290.646C176.237 292.944 176.98 295.866 175.938 298.023L166.052 291.329Z" fill="#FAB1A5"/>
<path fill-rule="evenodd" clip-rule="evenodd" d="M141.111 306.776C140.292 307.261 139.33 306.984 138.517 307.635C139.352 309.469 140.885 311.197 142.406 312.546C142.606 312.724 142.805 312.894 143.002 313.058C149.916 318.778 159.131 317.395 167.238 316.159C170.421 315.672 173.17 314.839 175.572 313.043C176.542 312.318 177.456 311.438 178.317 310.361C178.815 309.741 179.634 308.842 179.27 308.123C179.028 307.648 177.89 307.122 177.442 306.994C177.965 306.632 178.563 306.412 179.084 305.912C178.632 305.032 177.705 303.943 176.98 303.238C177.858 303.412 178.837 303.365 179.677 303.55C178.501 298.499 175.062 294.235 171.07 291.585C169.109 290.281 166.757 289.121 164.45 288.873C163.506 288.771 162.544 288.657 161.578 288.568C160.023 288.422 158.452 288.338 156.909 288.471C156.125 288.535 155.348 288.658 154.584 288.856C151.114 289.753 147.79 291.687 145.128 294.295C143.626 295.765 142.44 297.473 141.123 299.12C140.199 300.276 138.834 301.287 138.197 302.68C139.079 303.134 140.017 303.571 140.892 303.995C140.076 304.296 138.391 303.75 138 304.836C138.984 305.245 140.433 305.816 141.111 306.776Z" fill="#FFDBD6"/>
<path fill-rule="evenodd" clip-rule="evenodd" d="M158.158 300.184C158.447 299.653 158.937 299.569 159.44 299.655C159.821 299.721 160.153 300.076 160.32 300.444C160.514 300.869 160.487 301.367 160.172 301.717C159.893 302.027 159.367 302.154 159.027 301.881C158.898 301.777 158.742 301.665 158.596 301.593C158.672 301.629 158.748 301.664 158.824 301.7C158.794 301.688 158.764 301.678 158.734 301.665C158.544 301.582 158.453 301.512 158.295 301.371C157.994 301.103 157.97 300.53 158.158 300.184Z" fill="white"/>
<path fill-rule="evenodd" clip-rule="evenodd" d="M161.197 305.011C160.588 305.626 159.679 304.856 159.335 304.3C158.871 303.549 158.699 302.314 158.959 301.459C159.061 301.122 159.606 301.163 159.57 301.546C159.504 302.242 159.474 302.865 159.677 303.544C159.779 303.886 159.971 304.216 160.247 304.43C160.528 304.648 160.874 304.587 161.165 304.754C161.253 304.804 161.268 304.94 161.197 305.011Z" fill="white"/>
<path fill-rule="evenodd" clip-rule="evenodd" d="M157.281 304.855C157.751 304.447 158.212 304.181 158.453 303.57C158.709 302.919 158.701 302.223 158.793 301.542C158.863 301.03 159.598 301.206 159.635 301.656C159.722 302.729 158.982 305.955 157.312 305.093C157.229 305.051 157.21 304.917 157.281 304.855Z" fill="white"/>
<path fill-rule="evenodd" clip-rule="evenodd" d="M148.378 299.428C148.376 299.494 148.429 299.662 148.419 299.778C148.408 299.894 148.411 300.011 148.414 300.128C148.422 300.466 148.296 300.778 148.08 301.032C147.861 301.29 147.342 301.294 147.124 301.032C146.854 300.708 146.77 300.33 146.841 299.92C146.861 299.805 146.885 299.692 146.915 299.579C146.966 299.381 147.092 299.269 147.192 299.114C147.515 298.611 148.405 298.785 148.378 299.428Z" fill="white"/>
<path fill-rule="evenodd" clip-rule="evenodd" d="M170.63 297.618C170.638 297.638 170.645 297.659 170.653 297.679C170.604 297.594 170.555 297.508 170.506 297.422C170.976 297.852 170.935 298.75 170.633 299.257C170.464 299.542 170.131 299.688 169.813 299.598C169.472 299.502 169.318 299.216 169.279 298.882C169.295 298.995 169.288 298.938 169.257 298.712C169.27 298.613 169.283 298.515 169.296 298.417C169.31 298.316 169.329 298.215 169.355 298.117C169.421 297.857 169.495 297.607 169.7 297.422C169.651 297.508 169.602 297.594 169.553 297.679C169.561 297.659 169.568 297.638 169.576 297.618C169.768 297.087 170.438 297.087 170.63 297.618Z" fill="white"/>
<path fill-rule="evenodd" clip-rule="evenodd" d="M144.069 305.2C143.372 305.209 142.71 305.369 142.054 305.599C141.546 305.777 141.055 306.214 140.517 305.96C140.451 305.929 140.399 305.835 140.405 305.761C140.455 305.152 141.081 304.962 141.577 304.766C142.378 304.449 143.221 304.373 144.069 304.48C144.511 304.536 144.54 305.194 144.069 305.2Z" fill="white"/>
<path fill-rule="evenodd" clip-rule="evenodd" d="M143.377 307.611C142.911 307.778 142.435 307.9 141.963 308.042C141.515 308.177 141.03 308.549 140.569 308.409C140.416 308.362 140.37 308.164 140.432 308.01C140.633 307.505 141.175 307.416 141.595 307.287C142.127 307.123 142.67 307.023 143.201 306.853C143.615 306.72 143.786 307.465 143.377 307.611Z" fill="white"/>
<path fill-rule="evenodd" clip-rule="evenodd" d="M174.469 302.031C175.548 302.029 177.081 302.047 177.967 302.954C178.12 303.109 178.113 303.413 177.913 303.501C177.392 303.729 176.958 303.625 176.43 303.484C175.779 303.311 175.132 303.175 174.469 303.141C173.934 303.113 173.93 302.032 174.469 302.031Z" fill="white"/>
<path fill-rule="evenodd" clip-rule="evenodd" d="M174.327 305.236C175.477 305.334 176.948 305.217 177.913 306.075C178.187 306.319 178.097 306.789 177.739 306.826C176.576 306.942 175.35 306.233 174.255 305.855C173.972 305.757 174.015 305.21 174.327 305.236Z" fill="white"/>
<path fill-rule="evenodd" clip-rule="evenodd" d="M160.39 315.894C163.013 315.397 172.565 313.372 173.95 316.833C174.466 318.124 173.182 319.176 172.089 319.625C169.266 320.788 165.118 320.461 162.041 320.277C160.757 320.2 155.302 319.222 156.647 317.033C157.213 316.11 159.451 316.072 160.39 315.894Z" fill="#EA998C"/>
<mask id="mask1_235_1666" style="mask-type:alpha" maskUnits="userSpaceOnUse" x="147" y="315" width="17" height="8">
<path fill-rule="evenodd" clip-rule="evenodd" d="M163.595 315.679H147.709V322.068H163.595V315.679Z" fill="white"/>
</mask>
<g mask="url(#mask1_235_1666)">
<path fill-rule="evenodd" clip-rule="evenodd" d="M156.458 321.804C157.92 321.917 162.55 322.646 163.45 321.048C164.274 319.587 161.354 319.033 160.341 318.731C157.737 317.954 155.499 316.291 152.75 315.785C150.317 315.338 146.561 316.264 148.046 319.279C149.251 321.727 153.992 321.612 156.458 321.804Z" fill="#F4A295"/>
</g>
<path fill-rule="evenodd" clip-rule="evenodd" d="M201.442 305.235C203.712 306.056 203.814 310.288 203.687 312.097C203.508 314.635 201.937 317.174 199.592 318.584C195.969 320.762 191.293 320.983 187.101 321.155C183.366 321.309 179.225 321.453 175.767 320.475C173.334 319.788 168.039 316.486 172.748 314.662C175.23 313.7 178.8 316.08 181.313 316.384C184.444 316.763 187.708 316.977 190.802 316.29C196.272 315.076 201.978 312.192 201.442 306.702V305.235Z" fill="#F4A295"/>
<path opacity="0.2" fill-rule="evenodd" clip-rule="evenodd" d="M312.93 313.425C323.021 313.425 331.201 315.188 331.201 317.362C331.201 319.536 323.021 321.299 312.93 321.299C302.839 321.299 294.659 319.536 294.659 317.362C294.659 315.188 302.839 313.425 312.93 313.425Z" fill="#035970"/>
<path fill-rule="evenodd" clip-rule="evenodd" d="M329.921 298.624C331.066 300.633 331.708 302.884 331.708 305.261C331.708 313.748 323.528 320.628 313.437 320.628C303.346 320.628 295.165 313.748 295.165 305.261C295.165 302.745 295.884 300.371 297.158 298.275C305.252 299.558 321.363 299.475 329.921 298.624Z" fill="#4690A4"/>
<path fill-rule="evenodd" clip-rule="evenodd" d="M313.564 295.228C322.744 295.228 330.186 296.99 330.186 299.165C330.186 301.339 322.744 303.102 313.564 303.102C304.384 303.102 296.942 301.339 296.942 299.165C296.942 296.99 304.384 295.228 313.564 295.228Z" fill="#77C2D7"/>
<path fill-rule="evenodd" clip-rule="evenodd" d="M312.169 295.737C311.262 289.449 308.765 280.37 301.257 270.59C296.835 264.83 296.821 250.801 296.182 249.254C299.652 250.448 305.886 253.527 312.169 262.208C318.756 271.308 314.578 289.867 312.169 295.737Z" fill="#DA6668"/>
<g style="mix-blend-mode:multiply" opacity="0.5">
<path fill-rule="evenodd" clip-rule="evenodd" d="M312.367 295.759C313.06 280.475 311.159 270.829 305.182 261.723L312.367 295.759Z" fill="black" fill-opacity="0.01"/>
<path d="M312.367 295.759C313.06 280.475 311.159 270.829 305.182 261.723" stroke="#4690A4" stroke-width="0.551287"/>
</g>
<path fill-rule="evenodd" clip-rule="evenodd" d="M312.196 302.191C309.392 297.701 304.437 291.616 295.424 286.683C290.115 283.777 285.392 273.084 284.385 272.119C287.434 271.863 293.225 272.114 300.936 276.621C309.018 281.346 312.063 296.904 312.196 302.191Z" fill="#FAB1A5"/>
<g style="mix-blend-mode:multiply" opacity="0.5">
<path fill-rule="evenodd" clip-rule="evenodd" d="M312.132 302.16C307.527 290.272 302.837 283.555 295.217 278.62L312.132 302.16Z" fill="black" fill-opacity="0.01"/>
<path d="M312.132 302.16C307.527 290.272 302.837 283.555 295.217 278.62" stroke="#4690A4" stroke-width="0.551287"/>
</g>
<path fill-rule="evenodd" clip-rule="evenodd" d="M314.21 302.804C316.421 297.971 320.568 291.273 328.906 285.198C333.817 281.619 337.135 270.361 338.012 269.271C334.942 269.409 329.207 270.407 322.111 275.891C314.673 281.638 313.658 297.523 314.21 302.804Z" fill="#FAAFBD"/>
<g style="mix-blend-mode:multiply" opacity="0.5">
<path fill-rule="evenodd" clip-rule="evenodd" d="M313.567 302.896C316.612 290.464 320.413 283.17 327.363 277.273L313.567 302.896Z" fill="black" fill-opacity="0.01"/>
<path d="M313.567 302.896C316.612 290.464 320.413 283.17 327.363 277.273" stroke="#4690A4" stroke-width="0.551287"/>
</g>
<path d="M56.945 36.6029C57.4411 35.8275 58.5398 35.5618 59.399 36.0095L74.9567 44.1154C75.8159 44.563 76.1103 45.5545 75.6142 46.3299L71.4041 53.7929L75.3131 55.8129C75.5265 55.924 75.6799 56.1094 75.7374 56.3256C75.8533 56.7609 75.5561 57.1985 75.0737 57.3031L68.4849 59.0618L61.9163 67.7407C61.4203 68.5161 60.3216 68.7818 59.4623 68.3341L43.9047 60.2282C43.0455 59.7805 42.7511 58.789 43.2471 58.0136L56.945 36.6029Z" fill="#F2385A"/>
<path d="M56.7148 50.9908C55.5747 50.3967 55.2537 48.9723 55.9978 47.8092C56.7419 46.6461 58.1988 46.148 60.0976 47.1373C61.3635 47.7969 62.5297 50.2765 63.5961 54.5761C58.9368 55.8924 55.9742 56.2208 54.7083 55.5612C52.8095 54.5719 52.559 53.1842 53.3031 52.0211C54.0472 50.858 55.5747 50.3967 56.7148 50.9908Z" fill="white"/>
<path d="M305.892 209.899L282.04 195C282.04 195 272.552 213.944 254 221.94L274.409 239.191C274.409 239.191 298.361 231.216 305.892 209.899Z" fill="#FAB1A5"/>
<path opacity="0.517119" d="M265.598 220.728L263.738 221.852L278.908 233.105L281.179 232.015L265.598 220.728Z" fill="white"/>
<path opacity="0.517119" d="M278.787 206.617L296.684 216.779L295.47 218.512L277.654 208.375L278.787 206.617Z" fill="white"/>
<path opacity="0.517119" d="M284.706 216.369L293.7 221.356L292.487 223.089L283.573 218.127L284.706 216.369Z" fill="white"/>
<path opacity="0.517119" d="M276.289 210.087L282.102 214.032C281.949 214.365 281.75 214.744 281.504 215.169C280.381 217.111 278.797 218.806 276.864 220.131C276.077 220.671 275.415 221.141 274.879 221.542L268.899 217.323C269.19 217.167 269.513 216.989 269.869 216.789C272.361 215.388 274.393 213.411 275.755 211.064C275.96 210.711 276.138 210.385 276.289 210.087Z" fill="white"/>
<path opacity="0.517119" d="M281.376 219.965L289.431 225.733C288.503 226.983 287.467 228.038 286.321 228.901C285.176 229.763 283.969 230.396 282.7 230.8L274.529 225.143C276.251 224.224 277.611 223.384 278.607 222.623C279.604 221.862 280.527 220.976 281.376 219.965Z" fill="white"/>
<g clip-path="url(#clip0_235_1666)">
<path d="M211.205 161.858H205.14C205.064 161.863 204.987 161.853 204.915 161.827C204.843 161.802 204.777 161.762 204.721 161.71C204.666 161.658 204.621 161.595 204.591 161.525C204.56 161.455 204.544 161.379 204.544 161.303C204.544 161.226 204.56 161.151 204.591 161.081C204.621 161.011 204.666 160.948 204.721 160.896C204.777 160.844 204.843 160.804 204.915 160.778C204.987 160.753 205.064 160.742 205.14 160.747H211.205C211.346 160.757 211.478 160.82 211.574 160.923C211.671 161.026 211.724 161.162 211.724 161.303C211.724 161.444 211.671 161.58 211.574 161.683C211.478 161.786 211.346 161.849 211.205 161.858Z" fill="#102D42"/>
<path d="M230.357 192.624H199.89C199.743 192.624 199.602 192.565 199.498 192.461C199.393 192.357 199.335 192.216 199.335 192.069V148.511C199.335 148.438 199.349 148.365 199.376 148.298C199.404 148.23 199.445 148.169 199.497 148.117C199.548 148.066 199.61 148.025 199.677 147.997C199.745 147.969 199.817 147.954 199.89 147.954H230.357C230.505 147.954 230.647 148.013 230.751 148.117C230.856 148.222 230.915 148.363 230.915 148.511V192.069C230.915 192.142 230.9 192.215 230.872 192.282C230.844 192.349 230.803 192.411 230.751 192.462C230.699 192.514 230.638 192.554 230.57 192.582C230.503 192.61 230.43 192.624 230.357 192.624ZM200.448 191.513H229.802V149.065H200.448V191.513Z" fill="#102D42"/>
<path d="M225.109 170.74H205.14C204.993 170.74 204.852 170.682 204.748 170.578C204.644 170.474 204.585 170.333 204.585 170.186C204.585 170.039 204.644 169.898 204.748 169.794C204.852 169.69 204.993 169.632 205.14 169.632H225.109C225.257 169.632 225.398 169.69 225.502 169.794C225.606 169.898 225.665 170.039 225.665 170.186C225.665 170.333 225.606 170.474 225.502 170.578C225.398 170.682 225.257 170.74 225.109 170.74Z" fill="#102D42"/>
<path d="M225.109 175.533H205.14C205.064 175.538 204.987 175.528 204.915 175.502C204.843 175.477 204.777 175.437 204.721 175.385C204.666 175.332 204.621 175.269 204.591 175.199C204.56 175.129 204.544 175.054 204.544 174.978C204.544 174.901 204.56 174.826 204.591 174.756C204.621 174.686 204.666 174.623 204.721 174.571C204.777 174.519 204.843 174.479 204.915 174.453C204.987 174.427 205.064 174.417 205.14 174.422H225.109C225.25 174.432 225.382 174.495 225.479 174.598C225.575 174.701 225.629 174.837 225.629 174.978C225.629 175.119 225.575 175.254 225.479 175.358C225.382 175.461 225.25 175.523 225.109 175.533Z" fill="#102D42"/>
<path d="M225.109 180.324H205.14C204.993 180.324 204.852 180.266 204.748 180.162C204.644 180.058 204.585 179.917 204.585 179.77C204.585 179.623 204.644 179.482 204.748 179.378C204.852 179.274 204.993 179.216 205.14 179.216H225.109C225.257 179.216 225.398 179.274 225.502 179.378C225.606 179.482 225.665 179.623 225.665 179.77C225.665 179.917 225.606 180.058 225.502 180.162C225.398 180.266 225.257 180.324 225.109 180.324Z" fill="#102D42"/>
<path d="M239.923 162.995H217.851C217.778 162.995 217.705 162.981 217.638 162.953C217.57 162.925 217.509 162.884 217.457 162.832C217.406 162.78 217.365 162.719 217.337 162.651C217.309 162.584 217.295 162.511 217.296 162.438V140.406C217.296 140.259 217.354 140.118 217.458 140.014C217.562 139.91 217.704 139.852 217.851 139.852H239.923C240.07 139.852 240.211 139.91 240.315 140.014C240.419 140.118 240.478 140.259 240.478 140.406V162.438C240.478 162.511 240.464 162.584 240.436 162.651C240.409 162.719 240.368 162.78 240.316 162.832C240.265 162.884 240.203 162.925 240.136 162.953C240.068 162.981 239.996 162.995 239.923 162.995ZM218.409 161.884H239.357V140.975H218.409V161.884Z" fill="#102D42"/>
<path d="M240.012 142.782C241.565 142.782 242.824 141.525 242.824 139.975C242.824 138.425 241.565 137.168 240.012 137.168C238.458 137.168 237.199 138.425 237.199 139.975C237.199 141.525 238.458 142.782 240.012 142.782Z" fill="#102D42"/>
<path d="M217.851 142.782C219.404 142.782 220.663 141.525 220.663 139.975C220.663 138.425 219.404 137.168 217.851 137.168C216.298 137.168 215.039 138.425 215.039 139.975C215.039 141.525 216.298 142.782 217.851 142.782Z" fill="#102D42"/>
<path d="M240.012 164.66C241.565 164.66 242.824 163.403 242.824 161.853C242.824 160.303 241.565 159.046 240.012 159.046C238.458 159.046 237.199 160.303 237.199 161.853C237.199 163.403 238.458 164.66 240.012 164.66Z" fill="#102D42"/>
<path d="M217.851 164.66C219.404 164.66 220.663 163.403 220.663 161.853C220.663 160.303 219.404 159.046 217.851 159.046C216.298 159.046 215.039 160.303 215.039 161.853C215.039 163.403 216.298 164.66 217.851 164.66Z" fill="#102D42"/>
<path d="M225.109 185.382H205.14C205.064 185.387 204.987 185.376 204.915 185.351C204.843 185.325 204.777 185.285 204.721 185.233C204.666 185.181 204.621 185.118 204.591 185.048C204.56 184.978 204.544 184.903 204.544 184.826C204.544 184.75 204.56 184.674 204.591 184.604C204.621 184.534 204.666 184.471 204.721 184.419C204.777 184.367 204.843 184.327 204.915 184.302C204.987 184.276 205.064 184.266 205.14 184.271H225.109C225.25 184.28 225.382 184.343 225.479 184.446C225.575 184.549 225.629 184.685 225.629 184.826C225.629 184.967 225.575 185.103 225.479 185.206C225.382 185.309 225.25 185.372 225.109 185.382Z" fill="#102D42"/>
</g>
<rect x="171.639" y="68.3477" width="146.455" height="44.7637" fill="white" stroke="#B2ECFC" stroke-width="2.10651" stroke-linejoin="round"/>
<rect x="279.861" y="75.7188" width="28.4787" height="28.4787" rx="1.41625" fill="#E6F9FF"/>
<path d="M288.882 86.9062L285.794 94.704H302.407L297.158 88.8557L294.008 91.7375L288.882 86.9062Z" fill="#8EDEF4"/>
<circle cx="294.101" cy="86.7376" r="1.52564" fill="#8EDEF4"/>
<rect x="190.044" y="77.4766" width="70.9693" height="2.9987" rx="1.49935" fill="#FF768F"/>
<rect x="190.044" y="85.4727" width="70.9693" height="2.9987" rx="1.49935" fill="#FF768F"/>
<rect x="190.044" y="93.4688" width="70.9693" height="2.9987" rx="1.49935" fill="#FF768F"/>
<rect x="190.044" y="101.465" width="70.9693" height="2.9987" rx="1.49935" fill="#FF768F"/>
<rect x="169.693" y="65.4277" width="3.89249" height="3.89249" fill="white" stroke="#B2ECFC" stroke-width="3.89249"/>
<rect x="316.148" y="65.4277" width="3.89249" height="3.89249" fill="white" stroke="#B2ECFC" stroke-width="3.89249"/>
<rect x="169.693" y="111.652" width="3.89249" height="3.89249" fill="white" stroke="#B2ECFC" stroke-width="3.89249"/>
<rect x="316.148" y="111.652" width="3.89249" height="3.89249" fill="white" stroke="#B2ECFC" stroke-width="3.89249"/>
<path d="M178.33 111.551L173.995 127.445C173.18 130.433 169.063 130.74 167.814 127.905L165.362 122.339C165.031 121.587 164.43 120.987 163.679 120.656L158.001 118.154C155.179 116.911 155.467 112.817 158.436 111.981L174.266 107.521C176.727 106.828 179.002 109.085 178.33 111.551Z" fill="#F2385A"/>
<path d="M327.801 177.539C323.104 177.539 318.578 175.78 315.119 172.608C311.661 169.436 309.521 165.084 309.124 160.412C309.112 160.269 309.157 160.126 309.25 160.016C309.343 159.905 309.477 159.836 309.621 159.824C309.765 159.812 309.908 159.857 310.018 159.95C310.129 160.043 310.198 160.176 310.21 160.32C310.594 164.712 312.612 168.8 315.868 171.779C319.124 174.758 323.38 176.41 327.796 176.41C332.212 176.41 336.468 174.758 339.724 171.779C342.979 168.8 344.998 164.712 345.382 160.32C345.4 160.181 345.472 160.054 345.581 159.966C345.691 159.879 345.83 159.836 345.97 159.848C346.11 159.86 346.24 159.925 346.334 160.03C346.427 160.135 346.476 160.272 346.47 160.412C346.074 165.083 343.935 169.434 340.478 172.605C337.02 175.777 332.496 177.538 327.801 177.539Z" fill="#4690A4"/>
<path d="M345.934 157.843C345.795 157.843 345.661 157.789 345.56 157.694C345.459 157.599 345.398 157.469 345.39 157.33C345.006 152.939 342.987 148.85 339.731 145.871C336.476 142.893 332.22 141.24 327.804 141.24C323.387 141.24 319.131 142.893 315.876 145.871C312.62 148.85 310.601 152.939 310.218 157.33C310.206 157.474 310.137 157.607 310.027 157.7C309.916 157.794 309.774 157.839 309.63 157.828C309.486 157.816 309.352 157.747 309.259 157.637C309.165 157.527 309.12 157.384 309.132 157.241C309.52 152.563 311.657 148.202 315.116 145.023C318.576 141.845 323.106 140.08 327.809 140.08C332.511 140.08 337.041 141.845 340.501 145.023C343.961 148.202 346.097 152.563 346.486 157.241C346.492 157.312 346.484 157.384 346.462 157.452C346.44 157.52 346.405 157.583 346.359 157.637C346.313 157.692 346.256 157.737 346.192 157.769C346.129 157.802 346.059 157.822 345.988 157.828L345.934 157.843Z" fill="#4690A4"/>
<path d="M346.062 158.635C345.939 158.635 345.819 158.593 345.723 158.517L343.225 156.525C343.169 156.481 343.123 156.426 343.088 156.364C343.053 156.301 343.031 156.233 343.023 156.162C343.015 156.091 343.021 156.019 343.041 155.95C343.06 155.882 343.094 155.818 343.138 155.762C343.183 155.706 343.238 155.659 343.3 155.625C343.363 155.59 343.431 155.568 343.502 155.56C343.574 155.552 343.645 155.558 343.714 155.578C343.783 155.597 343.847 155.63 343.903 155.675L345.975 157.315L347.618 155.249C347.662 155.193 347.718 155.146 347.78 155.112C347.843 155.077 347.912 155.055 347.983 155.047C348.054 155.038 348.126 155.044 348.195 155.064C348.264 155.083 348.328 155.116 348.384 155.161C348.44 155.205 348.487 155.26 348.522 155.323C348.557 155.385 348.579 155.454 348.587 155.525C348.596 155.596 348.59 155.668 348.57 155.737C348.55 155.805 348.517 155.87 348.473 155.926L346.488 158.419C346.439 158.485 346.374 158.539 346.3 158.576C346.226 158.614 346.145 158.634 346.062 158.635Z" fill="#4690A4"/>
<path d="M307.571 162.897C307.468 162.897 307.368 162.869 307.281 162.814C307.194 162.76 307.125 162.682 307.08 162.59C307.036 162.498 307.018 162.395 307.029 162.294C307.041 162.192 307.081 162.096 307.144 162.016L309.129 159.522C309.173 159.465 309.229 159.418 309.292 159.383C309.355 159.347 309.424 159.325 309.496 159.317C309.567 159.309 309.64 159.315 309.709 159.335C309.779 159.356 309.843 159.39 309.899 159.435L312.397 161.416C312.51 161.506 312.583 161.637 312.599 161.78C312.616 161.923 312.574 162.067 312.484 162.18C312.44 162.236 312.385 162.282 312.322 162.317C312.26 162.352 312.191 162.374 312.12 162.382C311.977 162.398 311.832 162.357 311.719 162.267L309.642 160.627L307.999 162.692C307.948 162.757 307.883 162.809 307.809 162.844C307.734 162.88 307.653 162.898 307.571 162.897Z" fill="#4690A4"/>
<path d="M336.72 167.965C336.579 167.965 336.444 167.911 336.342 167.814L327.424 159.277C327.37 159.227 327.328 159.166 327.299 159.099C327.269 159.031 327.254 158.959 327.254 158.885V144.363C327.249 144.288 327.259 144.213 327.284 144.142C327.31 144.072 327.349 144.007 327.4 143.953C327.451 143.898 327.513 143.854 327.582 143.825C327.651 143.795 327.725 143.779 327.8 143.779C327.875 143.779 327.949 143.795 328.018 143.825C328.086 143.854 328.148 143.898 328.199 143.953C328.251 144.007 328.29 144.072 328.315 144.142C328.34 144.213 328.35 144.288 328.345 144.363V158.652L337.097 167.032C337.175 167.107 337.229 167.204 337.252 167.31C337.274 167.416 337.265 167.527 337.224 167.627C337.184 167.728 337.114 167.814 337.024 167.875C336.935 167.936 336.829 167.969 336.72 167.97V167.965Z" fill="#4690A4"/>
<path fill-rule="evenodd" clip-rule="evenodd" d="M283.211 28.0133C283.247 28.0138 283.283 28.0141 283.318 28.0141C286.856 28.0141 289.724 25.1474 289.724 21.6111C289.724 18.0748 286.856 15.208 283.318 15.208C283.158 15.208 282.999 15.2139 282.841 15.2255C281.859 10.3457 277.547 6.67054 272.376 6.67054C272.118 6.67054 271.863 6.67964 271.61 6.69753C270.034 2.7719 266.19 0 261.699 0C257.105 0 253.188 2.90147 251.683 6.97147C250.872 6.77479 250.026 6.67054 249.155 6.67054C243.259 6.67054 238.479 11.4484 238.479 17.3423C238.479 23.2361 243.259 28.014 249.155 28.014C249.198 28.014 249.241 28.0138 249.285 28.0133H272.246C272.289 28.0138 272.332 28.014 272.376 28.014C272.419 28.014 272.462 28.0138 272.505 28.0133H283.211Z" fill="#4690A4"/>
<path d="M294.072 19.7885L295.653 22.8931L297.552 19.9723L294.072 19.7885ZM308.176 28.9525L306.595 25.8479L304.696 28.7687L308.176 28.9525ZM296.185 21.5212L305.734 27.7257L306.063 27.2198L296.514 21.0153L296.185 21.5212Z" fill="#DA6668"/>
<path d="M220.614 27.9146L224.093 27.702L222.169 24.797L220.614 27.9146ZM232.72 19.9053L229.242 20.1179L231.165 23.0229L232.72 19.9053ZM223.046 26.6676L230.622 21.6555L230.289 21.1523L222.713 26.1644L223.046 26.6676Z" fill="#DA6668"/>
<path d="M266.5 15.5577C266.718 17.0579 266.26 18.6377 265.09 19.7908C263.36 21.4969 260.692 21.7069 258.729 20.4253L260.104 19.0852L255.051 18.3807L255.756 23.3143L257.299 21.8365C260.07 23.8788 264 23.686 266.518 21.202C267.978 19.7621 268.644 17.8507 268.561 15.9645L266.5 15.5577ZM257.943 12.7416C259.672 11.0355 262.34 10.8244 264.302 12.1071L262.925 13.4466L267.978 14.1517L267.274 9.21582L265.732 10.697C262.961 8.65306 259.031 8.8481 256.513 11.3315C255.053 12.7708 254.388 14.6823 254.47 16.5679L256.531 16.9741C256.313 15.4734 256.772 13.8952 257.943 12.7416Z" fill="white"/>
<rect x="314.357" y="20.5244" width="26.813" height="25.69" rx="3.52039" fill="white" stroke="#8EDEF4" stroke-width="1.00582"/>
<rect x="187.503" y="20.5244" width="27.202" height="25.69" rx="3.52039" fill="white" stroke="#8EDEF4" stroke-width="1.00582"/>
<path d="M327.463 28.0202L323.05 30.8461L327.463 33.672L323.05 36.4979L318.636 33.6568L323.05 30.8309L318.636 28.0202L323.05 25.1943L327.463 28.0202ZM323.027 37.4068L327.44 34.5809L331.853 37.4068L327.44 40.2327L323.027 37.4068ZM327.463 33.6568L331.876 30.8309L327.463 28.0202L331.853 25.1943L336.266 28.0202L331.853 30.8461L336.266 33.672L331.853 36.4979L327.463 33.6568Z" fill="#0061FF"/>
<path d="M193.921 38.0834L194.668 39.3655C194.823 39.6354 195.046 39.8475 195.307 40.0017L197.973 35.4131H192.642C192.642 35.7119 192.719 36.0108 192.874 36.2807L193.921 38.0834Z" fill="#0066DA"/>
<path d="M201.104 30.0144L198.438 25.4258C198.177 25.58 197.954 25.7921 197.799 26.062L192.874 34.5452C192.722 34.8093 192.642 35.1084 192.642 35.4128H197.973L201.104 30.0144Z" fill="#00AC47"/>
<path d="M206.901 40.0017C207.163 39.8475 207.386 39.6354 207.541 39.3655L207.851 38.8353L209.334 36.2807C209.489 36.0108 209.567 35.7119 209.567 35.4131H204.235L205.37 37.6303L206.901 40.0017Z" fill="#EA4335"/>
<path d="M201.104 30.0143L203.77 25.4257C203.508 25.2715 203.208 25.1943 202.897 25.1943H199.311C199.001 25.1943 198.7 25.2811 198.438 25.4257L201.104 30.0143Z" fill="#00832D"/>
<path d="M204.235 35.4131H197.973L195.308 40.0017C195.569 40.156 195.87 40.2331 196.18 40.2331H206.029C206.339 40.2331 206.639 40.1463 206.901 40.0017L204.235 35.4131Z" fill="#2684FC"/>
<path d="M206.872 30.3036L204.409 26.062C204.254 25.7921 204.031 25.58 203.77 25.4258L201.104 30.0144L204.235 35.4128H209.557C209.557 35.114 209.479 34.8151 209.324 34.5452L206.872 30.3036Z" fill="#FFBA00"/>
<path d="M247.076 39.7754L245.181 42.0033L248.058 42.53L247.076 39.7754ZM219.065 71.6209C219.324 71.53 219.593 71.4315 219.869 71.3255L219.688 70.8526C219.416 70.9569 219.152 71.0537 218.897 71.1428L219.065 71.6209ZM221.449 70.6732C221.947 70.4538 222.464 70.2137 222.996 69.9528L222.773 69.498C222.247 69.7559 221.737 69.9931 221.245 70.2097L221.449 70.6732ZM224.52 69.1701C225.007 68.9084 225.504 68.6307 226.008 68.337L225.753 67.8993C225.254 68.1901 224.762 68.4649 224.28 68.7238L224.52 69.1701ZM227.473 67.45C227.945 67.1532 228.422 66.8428 228.901 66.5189L228.618 66.0992C228.143 66.42 227.671 66.7273 227.203 67.0212L227.473 67.45ZM230.3 65.5396C230.756 65.2096 231.212 64.8674 231.668 64.5131L231.357 64.1131C230.906 64.4639 230.454 64.8027 230.003 65.1295L230.3 65.5396ZM232.999 63.4422C233.432 63.0818 233.864 62.7102 234.292 62.3275L233.955 61.9496C233.531 62.3284 233.104 62.6962 232.675 63.053L232.999 63.4422ZM235.546 61.1673C235.954 60.776 236.358 60.3743 236.758 59.9621L236.394 59.6095C235.999 60.0172 235.599 60.4146 235.195 60.8017L235.546 61.1673ZM237.925 58.7123C238.303 58.291 238.677 57.8597 239.043 57.4183L238.654 57.0947C238.291 57.5308 237.922 57.9572 237.548 58.3737L237.925 58.7123ZM240.109 56.0814C240.453 55.6313 240.791 55.1717 241.119 54.7024L240.705 54.4116C240.38 54.875 240.047 55.329 239.707 55.7736L240.109 56.0814ZM242.071 53.2816C242.376 52.8038 242.673 52.3168 242.96 51.8204L242.521 51.5668C242.238 52.0565 241.945 52.5372 241.644 53.0089L242.071 53.2816ZM243.783 50.3207C244.044 49.8176 244.296 49.3056 244.537 48.7846L244.077 48.5721C243.839 49.0859 243.591 49.5909 243.334 50.0872L243.783 50.3207ZM245.218 47.2148C245.431 46.6898 245.633 46.1563 245.824 45.6143L245.346 45.4463C245.158 45.9807 244.959 46.5066 244.749 47.0242L245.218 47.2148ZM246.352 43.9865C246.514 43.4441 246.664 42.8936 246.802 42.3351L246.31 42.214C246.174 42.7645 246.026 43.3071 245.867 43.8418L246.352 43.9865Z" fill="#F2385A"/>
<defs>
<filter id="filter0_dddd_235_1666" x="-345.845" y="288.692" width="773.313" height="268.818" filterUnits="userSpaceOnUse" color-interpolation-filters="sRGB">
<feFlood flood-opacity="0" result="BackgroundImageFix"/>
<feColorMatrix in="SourceAlpha" type="matrix" values="0 0 0 0 0 0 0 0 0 0 0 0 0 0 0 0 0 0 127 0" result="hardAlpha"/>
<feOffset dx="0.637754" dy="0.132092"/>
<feGaussianBlur stdDeviation="1.21799"/>
<feColorMatrix type="matrix" values="0 0 0 0 0.458824 0 0 0 0 0.027451 0 0 0 0 0.027451 0 0 0 0.0171563 0"/>
<feBlend mode="normal" in2="BackgroundImageFix" result="effect1_dropShadow_235_1666"/>
<feColorMatrix in="SourceAlpha" type="matrix" values="0 0 0 0 0 0 0 0 0 0 0 0 0 0 0 0 0 0 127 0" result="hardAlpha"/>
<feOffset dx="2.74725" dy="0.56901"/>
<feGaussianBlur stdDeviation="2.29634"/>
<feColorMatrix type="matrix" values="0 0 0 0 0.301961 0 0 0 0 0.0235294 0 0 0 0 0.0235294 0 0 0 0.02925 0"/>
<feBlend mode="normal" in2="effect1_dropShadow_235_1666" result="effect2_dropShadow_235_1666"/>
<feColorMatrix in="SourceAlpha" type="matrix" values="0 0 0 0 0 0 0 0 0 0 0 0 0 0 0 0 0 0 127 0" result="hardAlpha"/>
<feOffset dx="6.62283" dy="1.37172"/>
<feGaussianBlur stdDeviation="3.84016"/>
<feColorMatrix type="matrix" values="0 0 0 0 0.301961 0 0 0 0 0.0235294 0 0 0 0 0.0235294 0 0 0 0.0379688 0"/>
<feBlend mode="normal" in2="effect2_dropShadow_235_1666" result="effect3_dropShadow_235_1666"/>
<feColorMatrix in="SourceAlpha" type="matrix" values="0 0 0 0 0 0 0 0 0 0 0 0 0 0 0 0 0 0 127 0" result="hardAlpha"/>
<feOffset dx="12.5589" dy="2.60119"/>
<feGaussianBlur stdDeviation="6.45458"/>
<feColorMatrix type="matrix" values="0 0 0 0 0.301961 0 0 0 0 0.0235294 0 0 0 0 0.0235294 0 0 0 0.045 0"/>
<feBlend mode="normal" in2="effect3_dropShadow_235_1666" result="effect4_dropShadow_235_1666"/>
<feBlend mode="normal" in="SourceGraphic" in2="effect4_dropShadow_235_1666" result="shape"/>
</filter>
<filter id="filter1_i_235_1666" x="71.6337" y="45.6289" width="70.8256" height="62.8925" filterUnits="userSpaceOnUse" color-interpolation-filters="sRGB">
<feFlood flood-opacity="0" result="BackgroundImageFix"/>
<feBlend mode="normal" in="SourceGraphic" in2="BackgroundImageFix" result="shape"/>
<feColorMatrix in="SourceAlpha" type="matrix" values="0 0 0 0 0 0 0 0 0 0 0 0 0 0 0 0 0 0 127 0" result="hardAlpha"/>
<feOffset dx="5.06537" dy="5.06537"/>
<feGaussianBlur stdDeviation="3.79903"/>
<feComposite in2="hardAlpha" operator="arithmetic" k2="-1" k3="1"/>
<feColorMatrix type="matrix" values="0 0 0 0 0 0 0 0 0 0 0 0 0 0 0 0 0 0 0.139889 0"/>
<feBlend mode="normal" in2="shape" result="effect1_innerShadow_235_1666"/>
</filter>
<linearGradient id="paint0_linear_235_1666" x1="128.334" y1="245.706" x2="109.043" y2="219.746" gradientUnits="userSpaceOnUse">
<stop stop-color="#F9B776"/>
<stop offset="1" stop-color="#F47960"/>
</linearGradient>
<linearGradient id="paint1_linear_235_1666" x1="153.17" y1="166.788" x2="140.649" y2="158.548" gradientUnits="userSpaceOnUse">
<stop stop-color="#F9B776"/>
<stop offset="1" stop-color="#F47960"/>
</linearGradient>
<linearGradient id="paint2_linear_235_1666" x1="101.493" y1="279.756" x2="94.7411" y2="267.215" gradientUnits="userSpaceOnUse">
<stop stop-color="#F9B776"/>
<stop offset="1" stop-color="#F47960"/>
</linearGradient>
<linearGradient id="paint3_linear_235_1666" x1="166.791" y1="85.4662" x2="146.486" y2="102.09" gradientUnits="userSpaceOnUse">
<stop stop-color="#F9B776"/>
<stop offset="1" stop-color="#F47960"/>
</linearGradient>
<linearGradient id="paint4_linear_235_1666" x1="112.71" y1="98.2849" x2="108.753" y2="87.8298" gradientUnits="userSpaceOnUse">
<stop stop-color="#F9B776"/>
<stop offset="1" stop-color="#F47960"/>
</linearGradient>
<linearGradient id="paint5_linear_235_1666" x1="123.126" y1="75.4507" x2="99.9852" y2="89.261" gradientUnits="userSpaceOnUse">
<stop stop-color="#F9B776"/>
<stop offset="0.632873" stop-color="#F47960"/>
</linearGradient>
<clipPath id="clip0_235_1666">
<rect width="43.489" height="55.4558" fill="white" transform="translate(199.335 137.168)"/>
</clipPath>
</defs>
</svg>
