<svg width="141" height="44" viewBox="0 0 141 44" fill="none" xmlns="http://www.w3.org/2000/svg">
<path d="M74.306 11.0551C74.306 12.6406 73.0287 13.9179 71.4431 13.9179C69.8575 13.9179 68.5802 12.6406 68.5802 11.0551C68.5802 9.46947 69.8135 8.19219 71.4431 8.19219C73.0727 8.23624 74.306 9.51351 74.306 11.0551ZM62.5022 16.8248C62.5022 17.0891 62.5022 17.5295 62.5022 17.5295C62.5022 17.5295 61.1368 15.7678 58.2299 15.7678C53.4291 15.7678 49.6854 19.4234 49.6854 24.4885C49.6854 29.5095 53.3851 33.2092 58.2299 33.2092C61.1808 33.2092 62.5022 31.4034 62.5022 31.4034V32.1522C62.5022 32.5045 62.7664 32.7688 63.1188 32.7688H66.6863V16.2082C66.6863 16.2082 63.4271 16.2082 63.1188 16.2082C62.7664 16.2082 62.5022 16.5165 62.5022 16.8248ZM62.5022 27.4394C61.8415 28.4084 60.5202 29.2452 58.9346 29.2452C56.1158 29.2452 53.9576 27.4835 53.9576 24.4885C53.9576 21.4935 56.1158 19.7317 58.9346 19.7317C60.4761 19.7317 61.8855 20.6126 62.5022 21.5375V27.4394ZM69.329 16.2082H73.5572V32.7688H69.329V16.2082ZM132.488 15.7678C129.581 15.7678 128.216 17.5295 128.216 17.5295V8.23624H123.988V32.7688C123.988 32.7688 127.247 32.7688 127.555 32.7688C127.908 32.7688 128.172 32.4605 128.172 32.1522V31.4034C128.172 31.4034 129.537 33.2092 132.444 33.2092C137.245 33.2092 140.989 29.5095 140.989 24.4885C140.989 19.4675 137.245 15.7678 132.488 15.7678ZM131.783 29.2012C130.154 29.2012 128.877 28.3644 128.216 27.3954V21.4935C128.877 20.6126 130.286 19.6877 131.783 19.6877C134.602 19.6877 136.76 21.4494 136.76 24.4444C136.76 27.4394 134.602 29.2012 131.783 29.2012ZM121.785 22.9469V32.8128H117.557V23.4314C117.557 20.7007 116.676 19.5996 114.298 19.5996C113.021 19.5996 111.699 20.2603 110.863 21.2292V32.7688H106.634V16.2082H109.982C110.334 16.2082 110.598 16.5165 110.598 16.8248V17.5295C111.832 16.2523 113.461 15.7678 115.091 15.7678C116.941 15.7678 118.482 16.2963 119.715 17.3534C121.213 18.5866 121.785 20.1722 121.785 22.9469ZM96.372 15.7678C93.4651 15.7678 92.0998 17.5295 92.0998 17.5295V8.23624H87.8715V32.7688C87.8715 32.7688 91.1308 32.7688 91.4391 32.7688C91.7915 32.7688 92.0557 32.4605 92.0557 32.1522V31.4034C92.0557 31.4034 93.4211 33.2092 96.328 33.2092C101.129 33.2092 104.873 29.5095 104.873 24.4885C104.917 19.4675 101.173 15.7678 96.372 15.7678ZM95.6673 29.2012C94.0377 29.2012 92.7604 28.3644 92.0998 27.3954V21.4935C92.7604 20.6126 94.1698 19.6877 95.6673 19.6877C98.4862 19.6877 100.644 21.4494 100.644 24.4444C100.644 27.4394 98.4862 29.2012 95.6673 29.2012ZM84.2159 15.7678C85.4932 15.7678 86.1538 15.988 86.1538 15.988V19.9079C86.1538 19.9079 82.6303 18.7187 80.4281 21.2292V32.8128H76.1999V16.2082C76.1999 16.2082 79.4591 16.2082 79.7674 16.2082C80.1198 16.2082 80.384 16.5165 80.384 16.8248V17.5295C81.1768 16.6046 82.8946 15.7678 84.2159 15.7678ZM40.304 31.2713C40.0838 30.7427 39.8635 30.1702 39.6433 29.6857C39.291 28.8929 38.9386 28.1441 38.6303 27.4394L38.5863 27.3954C35.5472 20.7888 32.288 14.0941 28.8525 7.48749L28.7204 7.22322C28.368 6.56256 28.0157 5.85786 27.6633 5.15315C27.2229 4.36036 26.7824 3.52352 26.0777 2.73073C24.6683 0.968969 22.6423 0 20.4842 0C18.2819 0 16.3 0.968969 14.8465 2.64264C14.1859 3.43544 13.7014 4.27227 13.2609 5.06506C12.9086 5.76977 12.5562 6.47447 12.2039 7.13514L12.0717 7.3994C8.68035 14.006 5.37704 20.7007 2.338 27.3073L2.29396 27.3954C1.98565 28.1001 1.6333 28.8489 1.28095 29.6416C1.06073 30.1261 0.840507 30.6547 0.620287 31.2272C0.0477144 32.8569 -0.128462 34.3984 0.0917584 35.984C0.576243 39.2873 2.77845 42.0621 5.81748 43.2953C6.96263 43.7798 8.15182 44 9.38505 44C9.7374 44 10.1778 43.956 10.5302 43.9119C11.9837 43.7357 13.4811 43.2513 14.9346 42.4144C16.7404 41.4014 18.4581 39.9479 20.3961 37.8338C22.334 39.9479 24.0958 41.4014 25.8575 42.4144C27.311 43.2513 28.8085 43.7357 30.2619 43.9119C30.6143 43.956 31.0547 44 31.4071 44C32.6403 44 33.8735 43.7798 34.9746 43.2953C38.0577 42.0621 40.2159 39.2432 40.7004 35.984C41.0527 34.4424 40.8765 32.9009 40.304 31.2713ZM20.4401 33.5616C18.0617 30.5666 16.5202 27.7477 15.9917 25.3694C15.7714 24.3564 15.7274 23.4755 15.8595 22.6827C15.9476 21.978 16.2119 21.3614 16.5642 20.8328C17.4011 19.6436 18.8105 18.8949 20.4401 18.8949C22.0697 18.8949 23.5232 19.5996 24.316 20.8328C24.6683 21.3614 24.9326 21.978 25.0207 22.6827C25.1528 23.4755 25.1088 24.4004 24.8886 25.3694C24.36 27.7037 22.8185 30.5225 20.4401 33.5616ZM38.0137 35.6316C37.7054 37.9219 36.1638 39.9039 34.0057 40.7848C32.9486 41.2252 31.8035 41.3574 30.6583 41.2252C29.5572 41.0931 28.4561 40.7407 27.311 40.0801C25.7254 39.1992 24.1398 37.8338 22.29 35.8078C25.1969 32.2402 26.9586 28.981 27.6193 26.0741C27.9276 24.7087 27.9716 23.4755 27.8395 22.3303C27.6633 21.2292 27.2669 20.2162 26.6503 19.3353C25.285 17.3534 22.9947 16.2082 20.4401 16.2082C17.8856 16.2082 15.5953 17.3974 14.2299 19.3353C13.6133 20.2162 13.2169 21.2292 13.0407 22.3303C12.8645 23.4755 12.9086 24.7528 13.2609 26.0741C13.9216 28.981 15.7274 32.2843 18.5903 35.8519C16.7845 37.8779 15.1548 39.2432 13.5692 40.1241C12.4241 40.7848 11.323 41.1371 10.2219 41.2693C9.0327 41.4014 7.88755 41.2252 6.87454 40.8288C4.71638 39.9479 3.17484 37.966 2.86653 35.6757C2.7344 34.5746 2.82249 33.4735 3.26293 32.2402C3.39506 31.7998 3.61528 31.3594 3.8355 30.8308C4.14381 30.1261 4.49616 29.3774 4.84852 28.6286L4.89256 28.5405C7.9316 21.978 11.1909 15.2833 14.5822 8.76476L14.7144 8.5005C15.0667 7.83984 15.4191 7.13514 15.7714 6.47447C16.1238 5.76977 16.5202 5.10911 17.0047 4.53654C17.9296 3.47948 19.1628 2.90691 20.5282 2.90691C21.8936 2.90691 23.1268 3.47948 24.0517 4.53654C24.5362 5.10911 24.9326 5.76977 25.285 6.47447C25.6373 7.13514 25.9897 7.83984 26.342 8.5005L26.4741 8.76476C29.8215 15.3273 33.0807 22.022 36.1198 28.5846V28.6286C36.4721 29.3333 36.7804 30.1261 37.1328 30.8308C37.353 31.3594 37.5732 31.7998 37.7054 32.2402C38.0577 33.3854 38.1899 34.4865 38.0137 35.6316Z" fill="#618298"/>
</svg>
