<svg width="429" height="300" viewBox="0 0 429 300" fill="none" xmlns="http://www.w3.org/2000/svg">
<path d="M184.737 39.9848C184.994 39.8132 185.105 39.4824 185.031 39.1883L182.151 28.8944C182.065 28.588 181.796 28.3797 181.49 28.3552L172.593 27.8282C170.522 24.0783 167.887 20.7451 164.823 17.9388L166.416 9.16448C166.478 8.85812 166.331 8.55174 166.061 8.39243L156.735 3.14747C156.466 2.98815 156.122 3.02492 155.89 3.23325L149.223 9.15222C145.228 7.98804 141.013 7.46109 136.736 7.64491L131.662 0.316643C131.491 0.0593033 131.16 -0.0509796 130.866 0.0225449L120.572 2.90237C120.266 2.98815 120.057 3.25776 120.033 3.56413L119.506 12.461C115.756 14.532 112.423 17.1667 109.616 20.2304L100.842 18.625C100.536 18.5638 100.229 18.7108 100.07 18.9927L94.825 28.3184C94.6656 28.588 94.7024 28.9312 94.9108 29.164L100.83 35.8305C99.6655 39.8255 99.1386 44.0411 99.3224 48.3179L91.9941 53.3913C91.7368 53.5752 91.6265 53.8938 91.7 54.1879L94.5799 64.4818C94.6656 64.7881 94.9353 64.9965 95.2416 65.021L104.138 65.5479C106.209 69.2978 108.844 72.6311 111.908 75.4374L110.315 84.2117C110.254 84.518 110.401 84.8244 110.67 84.9837L119.996 90.2287C120.266 90.388 120.609 90.3512 120.841 90.1429L127.508 84.2239C131.503 85.3881 135.719 85.9151 139.995 85.7313L145.069 93.0595C145.24 93.3169 145.571 93.4271 145.865 93.3536L156.159 90.4738C156.466 90.388 156.674 90.1184 156.698 89.812L157.225 80.9152C160.975 78.8442 164.309 76.2094 167.115 73.1458L175.889 74.7389C176.196 74.8001 176.502 74.6531 176.661 74.3835L181.906 65.0577C182.065 64.7881 182.029 64.445 181.82 64.2122L175.901 57.5457C177.066 53.5507 177.593 49.3351 177.409 45.0582L184.737 39.9848ZM164.578 42.3254C166.87 55.4991 158.831 68.5625 145.682 72.2512C131.662 76.1727 117.067 67.9621 113.133 53.9428C112.888 53.0727 112.692 52.2027 112.545 51.3326C111.883 47.5214 112.067 43.6122 113.084 39.8868C113.17 39.5681 113.501 39.3843 113.82 39.4701C114.052 39.5314 114.212 39.7275 114.249 39.948C114.261 40.0338 114.261 40.1196 114.236 40.2054C113.256 43.7715 113.084 47.4969 113.722 51.1365C113.869 51.9698 114.052 52.8031 114.285 53.6364C118.035 67.0185 131.969 74.8614 145.351 71.1115C157.899 67.5944 165.571 55.1192 163.389 42.546C163.242 41.7127 163.059 40.8794 162.826 40.0461C162.814 39.9848 162.789 39.9235 162.777 39.8745C161.772 36.3942 160.081 33.2815 157.887 30.6713C151.809 23.4288 141.883 19.924 132.189 22.4607C132.042 22.4975 131.907 22.5342 131.76 22.571C130.02 23.0612 128.354 23.7229 126.773 24.5563C126.479 24.7156 126.111 24.593 125.964 24.3112C125.939 24.2499 125.915 24.1886 125.903 24.1273C125.866 23.8823 125.976 23.6127 126.209 23.4901C126.246 23.4779 126.27 23.4534 126.307 23.4411C126.479 23.3553 126.638 23.2695 126.809 23.1837C128.28 22.4485 129.836 21.8602 131.429 21.4068C132.3 21.1617 133.17 20.9657 134.052 20.8186C147.226 18.527 160.301 26.566 163.978 39.7152C164.235 40.573 164.431 41.4554 164.578 42.3254ZM149.664 46.4062C149.824 52.6316 144.885 57.8275 138.66 57.9868C135.645 58.0604 132.777 56.9574 130.584 54.8864C128.39 52.8031 127.153 49.9968 127.067 46.9822C126.92 41.3206 130.988 36.5045 136.417 35.5609C136.956 35.4629 137.508 35.4138 138.071 35.4016C141.086 35.3281 143.954 36.431 146.147 38.502C148.341 40.5853 149.591 43.3916 149.664 46.4062Z" fill="#9EB6C7"/>
<path d="M145.682 72.2513C158.831 68.5749 166.87 55.4993 164.578 42.3256C164.431 41.4555 164.235 40.5732 163.99 39.7031C160.314 26.5539 147.238 18.5149 134.064 20.8065C133.194 20.9536 132.324 21.1496 131.442 21.3947C129.849 21.8481 128.292 22.4364 126.822 23.1716C126.65 23.2574 126.491 23.3432 126.319 23.429C126.283 23.4412 126.258 23.4657 126.221 23.478C125.988 23.6005 125.866 23.8579 125.915 24.1152C125.927 24.1765 125.952 24.2378 125.976 24.2991C126.135 24.5932 126.491 24.7035 126.785 24.5442C128.366 23.7108 130.032 23.0491 131.773 22.5589C131.92 22.5221 132.054 22.4854 132.201 22.4486C141.895 19.9119 151.821 23.4167 157.899 30.6592C160.093 33.2694 161.784 36.3821 162.789 39.8624C162.801 39.9237 162.826 39.9727 162.838 40.034C163.071 40.8673 163.255 41.7006 163.402 42.5339C165.583 55.1071 157.912 67.5823 145.363 71.0994C131.981 74.8493 118.047 67.0064 114.298 53.6243C114.065 52.8033 113.881 51.97 113.734 51.1244C113.109 47.4848 113.28 43.7594 114.248 40.1933C114.273 40.1075 114.273 40.0217 114.261 39.9359C114.224 39.7154 114.065 39.5193 113.832 39.458C113.513 39.3722 113.182 39.556 113.097 39.8747C112.079 43.6123 111.896 47.5215 112.557 51.3205C112.704 52.2028 112.913 53.0729 113.146 53.9307C117.055 67.9622 131.662 76.1728 145.682 72.2513Z" fill="#DAE4EC"/>
<path d="M138.66 57.9866C144.885 57.8272 149.824 52.6313 149.664 46.406C149.591 43.3913 148.341 40.585 146.147 38.5017C143.954 36.4185 141.098 35.3278 138.072 35.4013C137.508 35.4136 136.956 35.4748 136.417 35.5606C130.988 36.5042 126.92 41.3203 127.067 46.9819C127.14 49.9966 128.39 52.8029 130.584 54.8861C132.778 56.9694 135.645 58.0723 138.66 57.9866ZM146.062 46.4917C146.111 48.5505 145.363 50.499 143.954 51.9818C142.802 53.195 141.331 53.9793 139.714 54.2612C139.346 54.3224 138.966 54.3592 138.574 54.3714C134.334 54.4817 130.792 51.124 130.682 46.8839C130.633 44.8251 131.381 42.8766 132.79 41.3938C134.199 39.8988 136.111 39.0532 138.17 39.0042C138.243 39.0042 138.304 39.0042 138.378 39.0042C140.363 39.0042 142.226 39.7517 143.672 41.1242C145.167 42.5335 146.013 44.4452 146.062 46.4917Z" fill="#DAE4EC"/>
<path d="M143.954 51.994C145.363 50.4989 146.123 48.5504 146.061 46.5039C146.012 44.4452 145.155 42.5334 143.672 41.1242C142.226 39.7516 140.363 39.0041 138.378 39.0041C138.317 39.0041 138.243 39.0041 138.17 39.0041C136.111 39.0531 134.199 39.911 132.79 41.3938C131.38 42.8888 130.621 44.8373 130.682 46.8838C130.792 51.1239 134.334 54.4817 138.574 54.3714C138.954 54.3591 139.334 54.3224 139.714 54.2611C141.319 53.9915 142.802 53.2072 143.954 51.994Z" fill="#9EB6C7"/>
<path d="M108.207 96.944C108.256 96.7357 108.158 96.5151 107.974 96.4048L102.717 93.1451C102.692 90.253 102.215 87.3487 101.234 84.5424L105.094 79.7141C105.229 79.5425 105.241 79.3096 105.131 79.1258L101.173 72.8515C101.063 72.6677 100.842 72.5819 100.621 72.6309L94.6044 74.0524C92.4844 71.9691 90.0702 70.278 87.4723 69.0158L86.7983 62.864C86.7737 62.6434 86.6144 62.4718 86.4061 62.4228L79.1636 60.7929C78.9553 60.7439 78.7347 60.842 78.6244 61.0258L75.3647 66.283C72.4726 66.3075 69.5683 66.7854 66.762 67.7658L61.9337 63.9056C61.7621 63.7708 61.5293 63.7586 61.3454 63.8688L55.0711 67.8271C54.8873 67.9374 54.8015 68.158 54.8505 68.3785L56.272 74.3956C54.1888 76.5156 52.4976 78.9298 51.2354 81.5277L45.0836 82.2017C44.863 82.2262 44.6914 82.3856 44.6424 82.5939L43.0126 89.8364C42.9635 90.0447 43.0616 90.2653 43.2454 90.3756L48.5026 93.6353C48.5271 96.5274 49.005 99.4317 49.9854 102.238L46.1252 107.066C45.9904 107.238 45.9782 107.471 46.0885 107.655L50.0467 113.929C50.157 114.113 50.3776 114.199 50.5981 114.149L56.6152 112.728C58.7352 114.811 61.1494 116.502 63.7473 117.765L64.4213 123.916C64.4459 124.137 64.6052 124.309 64.8135 124.358L72.056 125.987C72.2643 126.036 72.4849 125.938 72.5952 125.755L75.8549 120.497C78.747 120.473 81.6513 119.995 84.4576 119.015L89.2859 122.875C89.4575 123.01 89.6903 123.022 89.8742 122.912L96.1485 118.953C96.3323 118.843 96.4181 118.622 96.3691 118.402L94.9476 112.385C97.0308 110.265 98.722 107.851 99.9842 105.253L106.136 104.579C106.357 104.554 106.528 104.395 106.577 104.187L108.207 96.944ZM91.1241 83.7213C96.4794 92.1892 93.9304 103.439 85.4625 108.794C77.9014 113.561 68.1345 112.066 62.3136 105.669C61.615 104.897 60.9655 104.052 60.3896 103.133C58.6249 100.351 57.6568 97.1401 57.5833 93.8681C57.5833 93.7211 57.6936 93.5985 57.8406 93.5985C57.9264 93.5985 57.9999 93.6353 58.049 93.6843C58.0857 93.7333 58.1225 93.7946 58.1225 93.8559C58.196 97.0298 59.1396 100.142 60.843 102.851C61.4067 103.733 62.0317 104.554 62.718 105.314C68.3673 111.527 77.8401 112.985 85.1807 108.353C93.4035 103.157 95.8667 92.2383 90.683 84.0154C90.1193 83.1331 89.4943 82.312 88.808 81.5522C85.4012 77.8146 80.6097 75.7926 75.7324 75.7926C72.5094 75.7926 69.2619 76.6749 66.3453 78.5131C65.2792 79.1871 64.2865 79.9714 63.4042 80.8415C63.3062 80.9395 63.1346 80.9395 63.0243 80.8415C63.0243 80.8415 63.0243 80.8415 63.0121 80.8292C62.914 80.7189 62.9263 80.5596 63.0243 80.4616C63.0366 80.4493 63.0366 80.4493 63.0488 80.4371C63.1224 80.3758 63.1836 80.3023 63.2572 80.241C63.2572 80.241 63.2572 80.241 63.2694 80.241C63.2939 80.2165 63.3184 80.192 63.3552 80.1675C63.4165 80.1185 63.4655 80.0694 63.5268 80.0082C63.9189 79.6528 64.3356 79.3097 64.7522 78.991C65.1811 78.6724 65.6223 78.366 66.0635 78.0719C73.6246 73.2926 83.3915 74.8 89.2124 81.1969C89.8987 81.9566 90.5359 82.8022 91.1241 83.7213ZM82.3743 91.1599C83.5998 94.8975 81.5533 98.9293 77.8156 100.142C76.002 100.731 74.078 100.584 72.3746 99.7258C70.6835 98.868 69.4212 97.3974 68.8208 95.5838C68.2325 93.7701 68.3796 91.8461 69.2374 90.1427C69.6418 89.3584 70.1688 88.6599 70.7937 88.0962C71.529 87.4222 72.3991 86.9198 73.3795 86.6011C77.1171 85.3879 81.1489 87.4345 82.3743 91.1599Z" fill="#9EB6C7"/>
<path d="M85.4503 108.794C93.9182 103.439 96.4671 92.2016 91.1119 83.7214C90.5359 82.8023 89.8864 81.9567 89.1879 81.1847C83.367 74.7878 73.6 73.2804 66.0389 78.0597C65.5855 78.3416 65.1444 78.648 64.7277 78.9788C64.2988 79.2975 63.8944 79.6406 63.5023 79.996C63.441 80.045 63.392 80.094 63.3307 80.1553C63.3062 80.1798 63.2817 80.2043 63.2449 80.2288C63.2449 80.2288 63.2449 80.2288 63.2327 80.2288C63.1591 80.2901 63.0978 80.3636 63.0243 80.4249C63.0121 80.4371 63.0121 80.4371 62.9998 80.4494C62.9018 80.5474 62.8895 80.719 62.9876 80.817C62.9876 80.817 62.9876 80.817 62.9998 80.8293C63.0979 80.9396 63.2694 80.9396 63.3797 80.8293C64.2743 79.9592 65.2669 79.1749 66.3208 78.5009C69.2374 76.6627 72.4971 75.7804 75.7078 75.7804C80.5852 75.7804 85.3767 77.8024 88.7835 81.54C89.4698 82.2876 90.0947 83.1086 90.6585 84.0032C95.8544 92.2261 93.3912 103.145 85.1561 108.341C77.8156 112.973 68.3428 111.515 62.6935 105.302C62.0072 104.554 61.3822 103.733 60.8185 102.839C59.1151 100.13 58.1715 97.0299 58.098 93.8437C58.098 93.7824 58.0735 93.7211 58.0244 93.6721C57.9754 93.6108 57.9019 93.5863 57.8161 93.5863C57.6691 93.5863 57.5465 93.7089 57.5588 93.8559C57.6323 97.1279 58.6004 100.339 60.3651 103.12C60.941 104.04 61.5905 104.885 62.289 105.657C68.1345 112.054 77.9014 113.561 85.4503 108.794Z" fill="#DAE4EC"/>
<path d="M77.8157 100.155C81.5533 98.9298 83.5876 94.9103 82.3744 91.1726C81.1612 87.435 77.1294 85.4007 73.3917 86.6139C72.4236 86.9325 71.5413 87.4472 70.806 88.109C70.1688 88.6849 69.6418 89.3712 69.2497 90.1555C68.3919 91.8466 68.2448 93.7829 68.833 95.5965C69.4213 97.4102 70.6835 98.8685 72.3869 99.7386C74.078 100.596 76.002 100.743 77.8157 100.155ZM81.3572 91.4912C82.117 93.8319 81.3818 96.3073 79.6661 97.8636C79.0534 98.4151 78.3181 98.8563 77.4848 99.1381C75.953 99.6406 74.3108 99.518 72.8648 98.7827C71.4188 98.0475 70.3526 96.7975 69.8502 95.2657C69.3477 93.7338 69.4703 92.0917 70.2055 90.6457C70.9408 89.1996 72.1908 88.1335 73.7226 87.631C76.8966 86.5894 80.3156 88.3173 81.3572 91.4912Z" fill="#DAE4EC"/>
<path d="M79.6661 97.8637C81.3818 96.3074 82.117 93.832 81.3573 91.4913C80.3156 88.3174 76.8966 86.5772 73.7226 87.6189C72.1908 88.1213 70.9408 89.1875 70.2056 90.6335C69.4703 92.0795 69.3478 93.7217 69.8502 95.2535C70.3526 96.7853 71.4188 98.0353 72.8648 98.7706C74.3109 99.5058 75.953 99.6284 77.4848 99.1259C78.3181 98.8686 79.0534 98.4274 79.6661 97.8637Z" fill="#9EB6C7"/>
<path d="M415.395 168.07C412.406 185.368 392.254 283.197 319.717 277.521C316.884 277.3 314.798 274.855 315.163 272.037C317.358 255.121 330.864 198.792 413.906 166.216C414.753 165.889 415.599 166.908 415.395 168.07Z" fill="url(#paint0_linear_700_1005)"/>
<path d="M404.327 179.384C404.327 179.384 403.43 181.172 401.769 184.258C400.938 185.81 399.909 187.668 398.705 189.8C397.501 191.933 396.124 194.322 394.582 196.899C393.041 199.477 391.333 202.26 389.503 205.167C387.657 208.072 385.685 211.135 383.552 214.23C381.451 217.346 379.203 220.513 376.882 223.706C375.713 225.301 374.512 226.874 373.309 228.465C372.074 230.034 370.87 231.625 369.6 233.189C368.333 234.736 367.097 236.305 365.783 237.812C365.143 238.567 364.485 239.32 363.845 240.076C363.205 240.831 362.533 241.565 361.878 242.301C361.223 243.037 360.567 243.772 359.915 244.491C359.245 245.208 358.577 245.907 357.909 246.606C356.606 248.027 355.245 249.352 353.918 250.682C351.25 253.323 348.574 255.752 345.977 257.983C345.342 258.564 344.681 259.072 344.019 259.597C343.373 260.125 342.73 260.635 342.107 261.131C341.481 261.643 340.842 262.119 340.225 262.563C339.606 263.024 338.989 263.468 338.389 263.914C338.08 264.136 337.789 264.36 337.5 264.567C337.193 264.772 336.887 264.976 336.6 265.166C336.007 265.561 335.416 265.938 334.86 266.32C334.288 266.682 333.749 267.066 333.199 267.397C332.649 267.727 332.102 268.04 331.574 268.338C331.046 268.636 330.552 268.939 330.06 269.224C329.814 269.367 329.569 269.51 329.342 269.638C329.099 269.763 328.858 269.872 328.631 269.999C327.696 270.472 326.836 270.901 326.069 271.291C325.299 271.697 324.58 271.988 323.971 272.24C323.344 272.491 322.825 272.72 322.398 272.909C321.547 273.27 321.086 273.455 321.086 273.455L321.03 273.482C320.55 273.682 320.339 274.231 320.54 274.694C320.74 275.174 321.289 275.386 321.752 275.184C321.752 275.184 322.215 274.982 323.103 274.609C323.546 274.422 324.083 274.195 324.714 273.91C325.343 273.642 326.082 273.337 326.871 272.915C327.657 272.511 328.537 272.066 329.494 271.562C329.737 271.437 329.981 271.311 330.224 271.185C330.47 271.043 330.716 270.9 330.961 270.757C331.455 270.455 331.966 270.154 332.497 269.839C333.027 269.524 333.577 269.193 334.144 268.865C334.696 268.518 335.252 268.136 335.828 267.739C336.402 267.36 336.995 266.965 337.59 266.553C337.897 266.349 338.203 266.144 338.509 265.939C338.801 265.715 339.109 265.493 339.418 265.271C340.02 264.808 340.656 264.349 341.275 263.888C341.914 263.412 342.553 262.936 343.181 262.407C343.807 261.894 344.452 261.366 345.117 260.824C345.763 260.297 346.445 259.756 347.08 259.175C349.701 256.895 352.383 254.414 355.041 251.72C356.37 250.373 357.735 249.013 359.041 247.575C359.711 246.859 360.364 246.14 361.034 245.423C361.689 244.688 362.344 243.952 363.001 243.198C363.659 242.445 364.314 241.709 364.971 240.956C365.613 240.184 366.254 239.428 366.896 238.656C368.196 237.13 369.433 235.544 370.703 233.979C371.956 232.413 373.164 230.788 374.384 229.199C375.573 227.589 376.778 225.981 377.93 224.384C380.238 221.155 382.471 217.968 384.542 214.813C386.645 211.68 388.602 208.597 390.434 205.673C392.25 202.729 393.941 199.944 395.47 197.33C401.562 186.922 405.11 179.678 405.11 179.678C405.205 179.481 405.131 179.244 404.934 179.149C404.659 179.113 404.422 179.187 404.327 179.384Z" fill="white"/>
<path d="M374.953 60.2934C374.548 58.4408 372.826 58.9154 371.401 60.1975C296.336 127.924 271.371 245.923 291.385 283.225C292.435 285.182 294.64 286.065 296.777 285.461C316.815 279.8 414.875 242.417 374.953 60.2934Z" fill="url(#paint1_linear_700_1005)"/>
<path d="M370.998 85.5538C370.998 85.5538 370.973 85.7428 370.926 86.1036C370.862 86.4622 370.794 86.9777 370.666 87.6949C370.431 89.0972 370.023 91.1584 369.525 93.7672C369.011 96.3738 368.352 99.5557 367.565 103.175C366.779 106.795 365.827 110.882 364.777 115.324C363.709 119.763 362.523 124.571 361.183 129.622C359.859 134.691 358.365 139.984 356.793 145.476C355.189 150.946 353.492 156.596 351.648 162.297C351.183 163.722 350.718 165.147 350.25 166.589C349.768 168.011 349.283 169.451 348.798 170.89C347.846 173.772 346.793 176.623 345.772 179.496C344.751 182.368 343.649 185.195 342.613 188.048C341.528 190.878 340.428 193.688 339.332 196.463C338.185 199.232 337.092 201.99 335.919 204.686C335.326 206.024 334.749 207.364 334.175 208.687C333.879 209.348 333.6 210.01 333.305 210.671C333.009 211.331 332.698 211.972 332.405 212.616C331.8 213.9 331.213 215.186 330.629 216.456C330.335 217.099 330.044 217.725 329.752 218.351C329.444 218.975 329.136 219.599 328.847 220.208C327.617 222.669 326.513 225.111 325.269 227.413C324.663 228.575 324.077 229.722 323.493 230.851C323.193 231.406 322.909 231.981 322.629 232.521C322.329 233.076 322.032 233.614 321.735 234.152C320.528 236.301 319.417 238.393 318.27 240.358C317.105 242.321 315.986 244.202 314.933 245.987C313.847 247.75 312.774 249.41 311.783 250.976C311.281 251.75 310.798 252.508 310.334 253.251C309.84 253.956 309.366 254.646 308.911 255.32C308.006 256.635 307.165 257.854 306.412 258.944C305.658 260.034 304.907 260.967 304.31 261.798C303.695 262.626 303.167 263.327 302.743 263.9C301.894 265.048 301.431 265.652 301.431 265.652C301.349 265.746 301.38 265.907 301.477 265.972C301.571 266.054 301.715 266.021 301.797 265.927C301.797 265.927 302.26 265.323 303.158 264.199C304.021 263.071 305.352 261.444 306.96 259.295C307.731 258.207 308.603 257.01 309.543 255.7C310.013 255.044 310.504 254.357 310.998 253.653C311.477 252.929 311.977 252.172 312.497 251.401C313.522 249.84 314.641 248.221 315.747 246.443C316.835 244.662 317.971 242.783 319.168 240.842C320.349 238.882 321.495 236.794 322.719 234.647C323.016 234.109 323.33 233.574 323.647 233.021C323.946 232.466 324.246 231.91 324.546 231.355C325.147 230.228 325.75 229.083 326.373 227.924C328.83 223.281 331.242 218.318 333.651 213.11C333.944 212.467 334.257 211.809 334.553 211.148C334.849 210.488 335.127 209.825 335.423 209.165C336.015 207.844 336.591 206.503 337.187 205.148C338.377 202.455 339.473 199.679 340.654 196.915C341.769 194.124 342.886 191.317 343.991 188.473C344.525 187.057 345.061 185.624 345.58 184.189C346.116 182.756 346.65 181.34 347.154 179.885C348.158 177.011 349.196 174.14 350.148 171.259C350.633 169.819 351.118 168.379 351.6 166.957C352.068 165.515 352.516 164.088 352.983 162.646C354.829 156.928 356.495 151.256 358.084 145.766C359.623 140.253 361.07 134.919 362.343 129.843C363.633 124.768 364.77 119.936 365.803 115.492C367.823 106.564 369.27 99.0812 370.215 93.8396C370.68 91.2091 371.02 89.1389 371.238 87.7344C371.347 87.0322 371.42 86.4651 371.467 86.1043C371.497 85.7412 371.522 85.5522 371.522 85.5522C371.538 85.4319 371.448 85.3154 371.31 85.2975C371.19 85.2818 371.074 85.3715 371.058 85.4917L370.998 85.5538Z" fill="white"/>
<path d="M341.751 75.9072H106.205C102.158 75.9072 98.8675 79.1982 98.8675 83.2445V249.627C98.8675 253.673 102.158 256.964 106.205 256.964H196.571C196.571 256.964 202.344 274.768 184.486 283.939H269.026C269.026 283.939 248.903 277.033 254.082 256.964H341.697C345.744 256.964 349.034 253.673 349.034 249.627V83.2445C349.088 79.1982 345.797 75.9072 341.751 75.9072Z" fill="#035970"/>
<path d="M337.764 228.618C337.764 231.032 335.929 233 333.701 233H110.887C108.648 233 106.824 231.021 106.824 228.618L105 97.839C105.218 89.9686 111.613 87.1401 115.489 87.3078L333.193 85.0026C335.276 84.9467 337.287 85.8075 338.769 87.395C340.241 88.9825 341.049 91.1513 340.998 93.3984L337.764 228.618Z" fill="#F1F5F8"/>
<path d="M197.591 179H121.409C120.079 179 119 177.172 119 174.921V105.152C119 101.162 120.882 97.9085 123.235 97.8193L197.591 95C198.921 95 200 96.8276 200 99.0785V174.933C200 177.172 198.921 179 197.591 179Z" fill="#DAE4EC"/>
<path d="M317.783 110H216.217C214.441 110 213 109.717 213 109.368V98.5684C213 97.95 215.513 97.4491 218.646 97.4353L317.783 97C319.559 97 321 97.2833 321 97.6322V109.371C321 109.72 319.559 110 317.783 110Z" fill="#DAE4EC"/>
<path d="M317.783 130H216.217C214.441 130 213 129.717 213 129.368V118.568C213 117.95 215.513 117.449 218.646 117.435L317.783 117C319.559 117 321 117.283 321 117.632V129.371C321 129.72 319.559 130 317.783 130Z" fill="#DAE4EC"/>
<path d="M317.783 151H216.217C214.441 151 213 150.717 213 150.368V139.568C213 138.95 215.513 138.449 218.646 138.435L317.783 138C319.559 138 321 138.283 321 138.632V150.371C321 150.72 319.559 151 317.783 151Z" fill="#DAE4EC"/>
<path d="M217.962 198H122.038C120.361 198 119 197.804 119 197.562V190.086C119 189.658 121.374 189.311 124.333 189.301L217.962 189C219.639 189 221 189.196 221 189.438V197.565C221 197.806 219.639 198 217.962 198Z" fill="#DAE4EC"/>
<path d="M217.962 212H122.038C120.361 212 119 211.804 119 211.562V204.086C119 203.658 121.374 203.311 124.333 203.301L217.962 203C219.639 203 221 203.196 221 203.438V211.565C221 211.806 219.639 212 217.962 212Z" fill="#DAE4EC"/>
<path d="M317.783 171H216.217C214.441 171 213 170.695 213 170.319V158.689C213 158.023 215.513 157.484 218.646 157.469L317.783 157C319.559 157 321 157.305 321 157.681V170.323C321 170.699 319.559 171 317.783 171Z" fill="#DAE4EC"/>
<path d="M227.107 239.485C230.29 244.071 225.272 249.088 220.741 245.851C220.579 245.743 220.471 245.582 220.363 245.474C217.18 240.888 222.197 235.871 226.729 239.108C226.891 239.162 226.999 239.323 227.107 239.485Z" fill="#77C2D7"/>
<path d="M299.616 256.965C299.616 257.019 266.113 257.126 224.787 257.126C183.461 257.126 149.958 257.072 149.958 256.965C149.958 256.911 183.461 256.803 224.787 256.803C266.113 256.857 299.616 256.911 299.616 256.965Z" fill="#102D42"/>
<path d="M374.325 284.439C374.325 284.555 304.543 284.788 218.503 284.788C132.412 284.672 62.6305 284.555 62.6305 284.439C62.6305 284.207 132.412 284.091 218.503 284.091C304.543 284.091 374.325 284.207 374.325 284.439Z" fill="#102D42"/>
<path d="M337.153 92.3382C336.962 87.7387 335.62 83.3309 333.32 79.3063L337.153 77.1982C335.237 73.7486 332.745 70.6823 329.87 67.9993L326.995 71.2572C323.737 68.3825 319.712 66.0828 315.112 64.7413L316.262 60.5251C313.003 59.5669 309.936 59.1836 306.678 59.1836C305.911 59.1836 305.336 59.1836 304.57 59.1836L304.761 63.5914C300.161 63.7831 295.753 65.1246 291.728 67.4243L289.62 63.5914C286.17 65.5079 283.103 67.9993 280.42 70.8739L283.678 73.7486C280.803 77.0066 278.503 81.0311 277.161 85.6306L272.945 84.4807C271.986 87.7387 271.603 90.805 271.603 94.063C271.603 94.8295 271.603 95.4045 271.603 96.1711L276.011 95.9794C276.203 100.579 277.545 104.987 279.845 109.011L276.011 111.119C277.928 114.569 280.42 117.635 283.295 120.318L286.17 117.06C289.428 119.935 293.453 122.235 298.053 123.576L296.903 127.792H297.095C300.353 128.751 303.42 129.134 306.678 129.134C307.445 129.134 308.02 129.134 308.786 129.134L308.595 124.726C313.195 124.535 317.603 123.193 321.628 120.893L323.737 124.726C327.187 122.81 330.253 120.318 332.937 117.444L329.678 114.569C332.553 111.311 334.853 107.286 336.195 102.687L340.412 103.837C341.37 100.579 341.753 97.5126 341.753 94.2546C341.753 93.488 341.753 92.9131 341.753 92.1465L337.153 92.3382ZM299.011 121.085L299.203 120.318L299.011 121.085ZM324.503 99.2374C322.203 107.478 314.728 112.653 306.678 112.653C304.953 112.653 303.228 112.461 301.695 111.886C293.453 109.586 288.278 102.112 288.278 94.063C288.278 92.3382 288.47 90.6134 289.045 89.0802C291.345 80.8395 298.82 75.6651 306.87 75.6651C308.595 75.6651 310.32 75.8567 311.853 76.4316C320.095 78.7314 325.27 86.2055 325.27 94.2546C325.078 95.7878 324.887 97.5126 324.503 99.2374Z" fill="#D8D8D8"/>
<path d="M321.446 96.5332C322.766 88.3832 317.228 80.7068 309.077 79.3875C300.926 78.0682 293.248 83.6057 291.929 91.7557C290.61 99.9058 296.148 107.582 304.299 108.901C312.45 110.221 320.127 104.683 321.446 96.5332Z" fill="#11477C"/>
<path d="M312.618 94.6371H310.509V89.2711C310.509 87.163 308.784 85.4382 306.676 85.4382C304.568 85.4382 302.843 87.163 302.843 89.2711V94.6371H300.734V89.2711C300.734 86.0131 303.418 83.3301 306.676 83.3301C309.934 83.3301 312.618 86.0131 312.618 89.2711V94.6371Z" fill="#DCDCDC"/>
<path d="M299.01 92.7207V101.153C299.01 101.92 299.585 102.686 300.543 102.686H312.81C313.577 102.686 314.344 102.111 314.344 101.153V92.7207C314.344 91.9541 313.768 91.1875 312.81 91.1875H300.543C299.777 91.1875 299.01 91.9541 299.01 92.7207Z" fill="#DCDCDC"/>
<path d="M307.825 95.7849C307.825 95.0183 307.25 94.4434 306.483 94.4434C305.717 94.4434 305.142 95.0183 305.142 95.7849C305.142 96.3598 305.525 96.7431 305.908 96.9347V98.8512C305.908 99.2345 306.1 99.4261 306.483 99.4261C306.867 99.4261 307.058 99.2345 307.058 98.8512V96.9347C307.633 96.5514 307.825 96.1682 307.825 95.7849Z" fill="#2672B1"/>
<path d="M360.003 31.8786L307.474 13.0186L255.457 31.6316C248.823 34.772 243 36.6421 243 42.8346V73.6388C243 95.0217 248.611 116.211 260.133 134.929C269.838 150.667 284.853 166.88 307.986 177.184C329.248 170.285 345.11 151.866 354.815 136.129C366.337 117.41 371.948 96.2214 371.948 74.8385V47.1395C371.966 38.3005 367.29 33.9957 360.003 31.8786Z" fill="#4690A4"/>
<path d="M307.986 159.294C289.688 151.143 277.795 138.034 270.12 125.579C260.998 110.777 256.569 94.016 256.569 77.0791V55.4845C256.569 50.5974 259.516 46.0103 265.391 43.2757L307.492 27.5385L307.474 13.0186L255.457 31.6316C250.005 34.0133 243 36.6421 243 42.8346V73.6388C243 95.0217 248.611 116.211 260.133 134.929C269.838 150.667 284.853 166.88 307.986 177.184V159.294Z" fill="#B2ECFC"/>
<path d="M307.985 177.165C311.672 175.93 315.06 174.519 318.307 172.737C327.023 167.991 334.47 161.463 340.151 155.553C346.503 148.954 351.232 141.809 355.343 135.14C366.865 116.421 372.476 95.2324 371.965 73.2673L372 47.8443C371.965 35.1768 365.471 34.2418 360.019 31.86L307.491 13L307.508 27.5199L350.103 43.5218C355.961 46.2564 358.925 50.8435 358.925 55.7305V77.3251C358.925 94.2445 354.496 111.005 345.374 125.825C337.699 138.281 326.318 151.124 308.02 159.275V177.165H307.985Z" fill="#B2ECFC"/>
<path fill-rule="evenodd" clip-rule="evenodd" d="M345.688 71.6874C346.896 72.8956 346.896 74.8544 345.688 76.0626L304.438 117.313C303.229 118.521 301.271 118.521 300.062 117.313L279.437 96.6886C278.229 95.4804 278.229 93.5216 279.437 92.3134C280.645 91.1052 282.604 91.1051 283.813 92.3133L302.25 110.75L341.312 71.6874C342.521 70.4792 344.479 70.4792 345.688 71.6874Z" fill="white"/>
<g clip-path="url(#clip0_700_1005)">
<path d="M165.133 282.546C161.395 282.869 154.91 283.395 149.796 283.621C146.724 283.753 144.954 283.454 143.934 283.046C143.934 283.161 143.934 283.27 143.944 283.371C143.957 283.633 144.068 283.881 144.253 284.066C144.439 284.251 144.687 284.36 144.949 284.372C151.637 284.754 158.34 284.76 165.029 284.392C165.158 284.386 165.283 284.346 165.393 284.277C165.502 284.208 165.592 284.112 165.654 283.998C165.716 283.884 165.747 283.756 165.745 283.626C165.743 283.497 165.708 283.37 165.643 283.258C165.49 283.009 165.319 282.771 165.133 282.546Z" fill="#8EDEF4"/>
<path d="M149.798 283.62C154.911 283.394 161.392 282.869 165.134 282.545C161.46 278.028 149.798 274.982 149.798 274.982H146.504C144.237 278.255 143.909 281.371 143.934 283.046C144.954 283.454 146.724 283.756 149.798 283.62Z" fill="#102D42"/>
<path d="M145.949 269.594L146.257 275.707C146.273 276.029 146.399 276.336 146.616 276.576C146.832 276.815 147.124 276.972 147.443 277.019C148.273 277.145 149.12 277.075 149.918 276.815C150.199 276.722 150.45 276.555 150.645 276.332C150.84 276.108 150.972 275.836 151.026 275.544L152.09 269.594H145.949Z" fill="url(#paint2_linear_700_1005)"/>
<path d="M107.722 289.598C106.101 289.304 105.368 288.214 105.061 287.049C105.061 287.059 105.061 287.069 105.061 287.079C104.938 287.682 105.01 288.307 105.265 288.866C105.52 289.425 105.945 289.889 106.48 290.19C107.814 290.923 109.276 291.048 110.409 290.983C111.007 290.955 111.588 290.78 112.103 290.473C112.617 290.166 113.047 289.736 113.356 289.222L113.364 289.207C112.139 289.994 110.424 290.086 107.722 289.598Z" fill="#8EDEF4"/>
<path d="M115.363 271.476H112.642C108.503 271.367 105.906 282.671 105.055 287.048C105.362 288.213 106.096 289.304 107.717 289.597C110.419 290.086 112.133 289.993 113.353 289.21C115.593 285.4 116.697 279.821 117.23 276.563C117.841 272.86 115.363 271.476 115.363 271.476Z" fill="#102D42"/>
<path d="M112.995 265.806L111.488 271.814C111.399 272.173 111.435 272.551 111.588 272.887C111.742 273.223 112.006 273.497 112.335 273.663C113.178 274.096 114.367 274.553 115.458 274.421C115.709 274.388 115.946 274.285 116.142 274.125C116.338 273.964 116.485 273.751 116.567 273.511L118.782 267.186L112.995 265.806Z" fill="url(#paint3_linear_700_1005)"/>
<path d="M166.053 186.616C166.053 186.616 152.574 271.06 152.796 271.529C152.796 271.529 149.073 273.224 145.015 271.745C145.015 271.745 146.234 226.604 149.09 209.295C149.09 209.295 126.087 249.643 118.786 269.747C118.786 269.747 114.975 269.292 111.822 267.212C111.822 267.212 136.593 194.588 143.198 184.915L166.053 186.616Z" fill="#DA6668"/>
<path d="M149.626 208.994C149.718 208.994 149.809 208.971 149.89 208.927C149.97 208.883 150.038 208.819 150.088 208.741L155.001 200.874L158.479 200.173C158.62 200.144 158.744 200.061 158.823 199.941C158.903 199.821 158.932 199.675 158.903 199.534C158.875 199.392 158.792 199.268 158.673 199.189C158.553 199.109 158.407 199.08 158.266 199.108L154.559 199.856C154.487 199.87 154.418 199.899 154.358 199.941C154.297 199.983 154.245 200.037 154.206 200.1L149.169 208.163C149.118 208.245 149.089 208.34 149.086 208.437C149.083 208.533 149.106 208.629 149.153 208.714C149.2 208.799 149.268 208.87 149.351 208.919C149.435 208.968 149.53 208.994 149.626 208.994Z" fill="#DA6668"/>
<path d="M227.905 103.928C227.905 103.928 218.814 105.938 213.28 108.497C212.183 109.005 211.304 109.889 210.802 110.99C209.148 114.623 204.198 123.731 194.595 128.078C195.981 129.919 198.208 133.749 199.178 140.172C204.944 135.871 209.92 128.683 212.31 116.909C212.31 116.909 214.13 117.901 216.395 116.795C217.594 116.212 218.979 115.384 220.018 114.733C221.058 114.093 221.813 113.078 222.126 111.896C222.521 110.34 222.29 108.972 222.29 107.505L226.964 106.053C226.964 106.053 228.374 105.522 227.905 103.928Z" fill="url(#paint4_linear_700_1005)"/>
<path d="M199.178 140.173C198.208 133.75 195.982 129.92 194.595 128.079C188.632 130.78 180.875 131.645 170.998 128.211C170.087 127.896 169.136 127.708 168.174 127.653C162.916 127.343 145.587 126.78 131.248 131.528C129.76 132.02 128.393 132.82 127.235 133.877C126.077 134.933 125.155 136.223 124.528 137.661C120.65 146.583 114.371 166.896 131.805 177.159C132.925 174.359 134.335 171.685 136.012 169.179C133.204 164.433 132.373 157.954 137.354 149.503C140.987 159.334 142.692 173.68 143.048 180.029C143.164 182.12 142.799 184.209 141.981 186.135L141.892 186.345C141.851 186.443 141.832 186.548 141.836 186.654C141.84 186.759 141.867 186.863 141.915 186.957C141.963 187.051 142.031 187.134 142.115 187.198C142.199 187.263 142.295 187.309 142.398 187.332C152.213 189.546 162.42 188.949 165.477 188.695C165.741 188.673 165.992 188.568 166.194 188.395C166.395 188.222 166.537 187.989 166.598 187.731C171.364 167.576 171.376 153.822 170.207 145.137C174.671 146.137 188.322 148.276 199.178 140.173Z" fill="#77C2D7"/>
<path d="M170.644 145H170.691C170.738 144.994 170.782 144.981 170.823 144.959C170.863 144.938 170.899 144.91 170.927 144.876C170.955 144.843 170.976 144.804 170.988 144.763C171 144.722 171.003 144.68 170.997 144.638C170.242 139.461 168.721 137.242 168.656 137.15C168.606 137.078 168.526 137.027 168.434 137.008C168.342 136.989 168.245 137.004 168.166 137.05C168.086 137.096 168.029 137.168 168.009 137.252C167.988 137.335 168.005 137.423 168.055 137.495C168.071 137.516 169.559 139.706 170.292 144.722C170.304 144.799 170.346 144.87 170.411 144.921C170.475 144.972 170.558 145 170.644 145Z" fill="#8EDEF4"/>
<path d="M146.006 115.912C146.006 115.912 145.012 126.434 144.139 129.547C144.074 129.776 144.088 130.021 144.179 130.241C144.269 130.461 144.431 130.645 144.638 130.762C146.122 131.611 149.68 132.998 154.549 130.606C154.933 130.415 155.253 130.117 155.47 129.747C155.688 129.378 155.793 128.952 155.774 128.524L155.345 118.355L146.006 115.912Z" fill="url(#paint5_linear_700_1005)"/>
<path d="M214.736 115.967C214.816 115.967 214.896 115.949 214.969 115.914C215.041 115.879 215.106 115.829 215.156 115.766C216.463 114.156 218.687 111.599 219.462 111.161C220.143 110.775 220.532 110.341 220.648 109.84C220.749 109.41 220.648 108.958 220.333 108.497C220.274 108.408 220.189 108.339 220.09 108.298C219.992 108.257 219.883 108.247 219.778 108.269L215.808 109.055C215.717 109.074 215.633 109.115 215.562 109.176L213.454 110.992C213.396 111.037 213.349 111.094 213.313 111.158C213.278 111.222 213.256 111.293 213.249 111.366C213.242 111.439 213.25 111.512 213.272 111.582C213.294 111.652 213.33 111.717 213.377 111.773C213.425 111.828 213.483 111.874 213.549 111.906C213.615 111.938 213.686 111.957 213.759 111.961C213.832 111.965 213.905 111.954 213.974 111.929C214.043 111.904 214.106 111.865 214.159 111.815L216.162 110.098L219.587 109.41C219.603 109.468 219.603 109.529 219.587 109.587C219.544 109.774 219.307 109.999 218.919 110.218C217.72 110.897 214.653 114.656 214.308 115.083C214.243 115.163 214.203 115.259 214.19 115.361C214.178 115.463 214.195 115.566 214.239 115.658C214.283 115.751 214.352 115.829 214.439 115.884C214.526 115.939 214.626 115.968 214.728 115.968L214.736 115.967Z" fill="url(#paint6_linear_700_1005)"/>
<path d="M146.942 184.344L161.274 184.031C161.274 184.031 148.777 180.497 148.002 181.456C148.002 181.456 140.256 176.355 136.012 169.175C134.335 171.68 132.925 174.355 131.805 177.155C135.61 179.397 140.606 183.288 146.942 184.344Z" fill="url(#paint7_linear_700_1005)"/>
<path d="M146.539 181.857C146.539 181.857 146.243 187.579 153.739 186.744C157.813 186.292 164.389 182.485 164.389 182.485C164.389 182.485 147.248 182.445 146.539 181.857Z" fill="url(#paint8_linear_700_1005)"/>
<path d="M149.474 183.392H149.557L185.187 183.353C185.402 183.367 185.619 183.336 185.822 183.263C186.026 183.19 186.212 183.076 186.37 182.927C186.528 182.779 186.653 182.6 186.739 182.401C186.825 182.202 186.87 181.988 186.87 181.771C186.87 181.555 186.825 181.34 186.739 181.141C186.653 180.942 186.528 180.763 186.37 180.615C186.212 180.467 186.026 180.353 185.822 180.28C185.619 180.206 185.402 180.176 185.187 180.19L149.555 180.229C149.156 180.248 148.779 180.418 148.499 180.704C148.22 180.991 148.059 181.372 148.049 181.773C148.039 182.173 148.181 182.562 148.445 182.862C148.71 183.162 149.078 183.351 149.476 183.39L149.474 183.392Z" fill="#035970"/>
<path d="M217.218 151.313H187.544C186.475 151.311 185.428 151.612 184.523 152.181C183.618 152.75 182.892 153.564 182.429 154.529L168.71 183.373H205.587C206.273 183.376 206.945 183.171 207.515 182.787C208.084 182.403 208.526 181.856 208.783 181.218L219.421 154.524C219.561 154.166 219.611 153.779 219.568 153.397C219.524 153.015 219.387 152.649 219.17 152.333C218.952 152.016 218.661 151.757 218.321 151.579C217.98 151.401 217.602 151.31 217.218 151.313Z" fill="#035970"/>
<path d="M196.308 166.103C195.665 168.084 196.141 170.008 197.369 170.4C198.597 170.792 200.116 169.505 200.759 167.523C201.402 165.541 200.928 163.618 199.705 163.226C198.482 162.833 196.955 164.122 196.308 166.103Z" fill="#E5F9FF"/>
<path d="M157.737 101.298C157.869 101.513 161.403 117.883 161.403 117.883L152.038 119.705L146.388 104.689C146.388 104.689 155.499 97.6978 157.737 101.298Z" fill="url(#paint9_linear_700_1005)"/>
<path d="M149.738 107.112L152.093 115.251C152.123 115.354 152.168 115.453 152.225 115.545C152.575 116.109 153.923 117.964 155.732 116.469C157.374 115.111 158.894 113.894 160.24 113.736C160.531 113.702 160.824 113.778 161.063 113.949C161.302 114.12 161.469 114.373 161.532 114.66C161.854 116.147 162.514 119.512 162.641 122.524C162.653 122.819 162.553 123.107 162.363 123.332C162.173 123.557 161.906 123.702 161.614 123.739C159.79 123.979 155.931 124.378 152.752 123.969C152.541 123.942 152.341 123.86 152.173 123.729C152.005 123.598 151.875 123.425 151.796 123.227C151.027 121.246 148.665 115.249 147.749 113.679C146.888 112.205 144.579 112.113 143.606 112.143C143.449 112.149 143.292 112.122 143.146 112.064C142.999 112.007 142.866 111.92 142.754 111.809C141.95 111.017 140.448 109.027 142.844 106.883C142.962 106.777 143.058 106.649 143.126 106.505C143.194 106.361 143.232 106.205 143.238 106.046C143.245 105.887 143.219 105.728 143.164 105.579C143.108 105.43 143.023 105.294 142.913 105.179C141.991 104.205 141.045 102.52 142.782 100.596C144.547 98.6391 146.704 99.0907 148.008 99.6546C148.264 99.7616 148.549 99.7758 148.813 99.6945C149.078 99.6132 149.306 99.4416 149.458 99.2095C149.641 98.9454 149.944 98.7421 150.446 98.8134C150.607 98.8335 150.77 98.8197 150.925 98.773C151.08 98.7262 151.224 98.6474 151.347 98.5418C151.47 98.4361 151.57 98.3058 151.64 98.1593C151.71 98.0128 151.748 97.8532 151.753 97.6909C151.804 96.3703 152.368 94.7434 154.682 94.1636C158.788 93.1376 161.08 97.1864 161.163 100.115C161.246 103.044 156.729 103.904 154.123 103.557C152.147 103.293 150.551 105.185 149.907 106.108C149.805 106.252 149.737 106.417 149.708 106.591C149.679 106.764 149.689 106.943 149.738 107.112Z" fill="#035970"/>
<path d="M148.634 116.63C148.634 116.63 148.271 111.533 146.185 111.166C144.099 110.799 141.957 112.41 143.882 115.369C146.278 119.051 148.634 116.63 148.634 116.63Z" fill="url(#paint10_linear_700_1005)"/>
</g>
<defs>
<linearGradient id="paint0_linear_700_1005" x1="510.107" y1="101.226" x2="379.562" y2="301.762" gradientUnits="userSpaceOnUse">
<stop stop-color="#EFB3A8"/>
<stop offset="1" stop-color="white"/>
</linearGradient>
<linearGradient id="paint1_linear_700_1005" x1="502.561" y1="-72.8213" x2="214.83" y2="174.392" gradientUnits="userSpaceOnUse">
<stop stop-color="#FFE8E3"/>
<stop offset="1" stop-color="#FCF6F6"/>
</linearGradient>
<linearGradient id="paint2_linear_700_1005" x1="152.519" y1="277.035" x2="144.378" y2="271.227" gradientUnits="userSpaceOnUse">
<stop stop-color="#F9B776"/>
<stop offset="1" stop-color="#F47960"/>
</linearGradient>
<linearGradient id="paint3_linear_700_1005" x1="119.295" y1="274.393" x2="109.796" y2="267.372" gradientUnits="userSpaceOnUse">
<stop stop-color="#F9B776"/>
<stop offset="1" stop-color="#F47960"/>
</linearGradient>
<linearGradient id="paint4_linear_700_1005" x1="230.335" y1="139.957" x2="189.647" y2="107.344" gradientUnits="userSpaceOnUse">
<stop stop-color="#F9B776"/>
<stop offset="1" stop-color="#F47960"/>
</linearGradient>
<linearGradient id="paint5_linear_700_1005" x1="156.592" y1="131.845" x2="139.923" y2="121.283" gradientUnits="userSpaceOnUse">
<stop stop-color="#F9B776"/>
<stop offset="1" stop-color="#F47960"/>
</linearGradient>
<linearGradient id="paint6_linear_700_1005" x1="10134.4" y1="-3462.1" x2="7738.4" y2="-647.598" gradientUnits="userSpaceOnUse">
<stop stop-color="#FEBBBA"/>
<stop offset="1" stop-color="#FF928E"/>
</linearGradient>
<linearGradient id="paint7_linear_700_1005" x1="163.333" y1="184.254" x2="148.038" y2="158.413" gradientUnits="userSpaceOnUse">
<stop stop-color="#F9B776"/>
<stop offset="1" stop-color="#F47960"/>
</linearGradient>
<linearGradient id="paint8_linear_700_1005" x1="165.636" y1="186.798" x2="162.317" y2="176.429" gradientUnits="userSpaceOnUse">
<stop stop-color="#F9B776"/>
<stop offset="1" stop-color="#F47960"/>
</linearGradient>
<linearGradient id="paint9_linear_700_1005" x1="162.452" y1="119.59" x2="141.755" y2="105.685" gradientUnits="userSpaceOnUse">
<stop stop-color="#F9B776"/>
<stop offset="1" stop-color="#F47960"/>
</linearGradient>
<linearGradient id="paint10_linear_700_1005" x1="149.019" y1="117.374" x2="142.04" y2="112.07" gradientUnits="userSpaceOnUse">
<stop stop-color="#F9B776"/>
<stop offset="1" stop-color="#F47960"/>
</linearGradient>
<clipPath id="clip0_700_1005">
<rect width="123" height="197" fill="white" transform="translate(105 94)"/>
</clipPath>
</defs>
</svg>
