<svg xmlns="http://www.w3.org/2000/svg" xmlns:xlink="http://www.w3.org/1999/xlink" width="446" height="300" xmlns:v="https://vecta.io/nano"><defs><linearGradient id="A" x1="50%" x2="50%" y1="-10.877%" y2="100%"><stop offset="0%" stop-color="#ffe579"/><stop offset="100%" stop-color="#feb755"/></linearGradient><linearGradient id="B" x1="100%" x2="0%" y1="50%" y2="50%"><stop offset="0%" stop-color="#ecc052"/><stop offset="100%" stop-color="#f0ab45"/></linearGradient><linearGradient id="C" x1="30.563%" x2="203.595%" y1="85.331%" y2="-134.49%"><stop offset="0%" stop-color="#f7faff"/><stop offset="100%" stop-color="#6b9ad9"/></linearGradient><linearGradient id="D" x1="50%" x2="55.252%" y1="4.533%" y2="78.778%"><stop offset="0%" stop-color="#ffe579"/><stop offset="100%" stop-color="#fec644"/></linearGradient><linearGradient id="E" x1="61.039%" x2="50%" y1="-62.601%" y2="86.804%"><stop offset="0%" stop-color="#ffedbf"/><stop offset="100%" stop-color="#fec644"/></linearGradient><linearGradient id="F" x1="50%" x2="67.286%" y1="32.119%" y2="115.978%"><stop offset="0%" stop-color="#84f0a8"/><stop offset="100%" stop-color="#48b676"/></linearGradient><linearGradient id="G" x1="22.571%" x2="91.212%" y1="18.017%" y2="91.909%"><stop offset="0%" stop-color="#ef1a1b"/><stop offset="42.132%" stop-color="#d13043"/><stop offset="100%" stop-color="#9f041b"/></linearGradient><linearGradient id="H" x1="38.248%" x2="79.987%" y1="32.129%" y2="79.486%"><stop offset="0%" stop-color="#fd8378"/><stop offset="100%" stop-color="#db324b"/></linearGradient><linearGradient id="I" x1="12.246%" x2="30.832%" y1="18.691%" y2="50%"><stop offset="0%" stop-color="#f7b8c4"/><stop offset="100%" stop-color="#f0022d"/></linearGradient><filter id="J" width="163%" height="171.2%" x="-31.4%" y="-34.8%"><feOffset dx="3" dy="6" in="SourceAlpha"/><feGaussianBlur stdDeviation="1.5"/><feColorMatrix result="C" values="0 0 0 0 0.676046981 0 0 0 0 0.0115368655 0 0 0 0 0.0993023525 0 0 0 0.24793365 0"/><feMerge><feMergeNode in="C"/><feMergeNode in="SourceGraphic"/></feMerge></filter><rect id="K" width="90" height="90" rx="25.2"/><path id="L" d="M432 137a2 2 0 0 1-2 2h-20a2 2 0 1 1 0-4h20a2 2 0 0 1 2 2z"/><path id="M" d="M24.5 169a2.5 2.5 0 0 1-2.5 2.5H3a2.5 2.5 0 1 1 0-5h19a2.5 2.5 0 0 1 2.5 2.5z"/></defs><g fill="none" fill-rule="evenodd" transform="translate(0 -49)"><g transform="translate(5)"><ellipse cx="203.887" cy="342.5" fill="#e2ebfc" opacity=".34" rx="135.766" ry="6.5"/><g fill-rule="nonzero"><g transform="rotate(-39 275.19 95.867)"><path fill="url(#A)" d="M103.844 25.048l177.864 142.535c1.102.883 1.272 2.483.38 3.574-.432.527-1.058.86-1.74.93l-154.495 15.356c-4.19.416-7.944-2.577-8.423-6.72L99.677 27.312c-.162-1.395.85-2.654 2.26-2.814a2.58 2.58 0 0 1 1.908.55z" transform="rotate(180 191.16 105.981)"/><path fill="url(#B)" d="M27.83 96.422h232v151h-232z" transform="rotate(39 143.829 171.922)"/><rect width="199" height="150" x="84.43" y="46.423" fill="url(#C)" rx="8" transform="rotate(219 183.93 121.423)"/><path fill="url(#D)" d="M144.24 158.837l12.87 10.422c3.21 2.575 127.62 13.988 125.02 17.168l-97.578 119.4a7.53 7.53 0 0 1-10.518 1.095L3.57 170.142c-3.2-2.575-3.705-7.24-1.106-10.42l97.58-119.4c2.6-3.18 40.99 115.94 44.198 118.516z"/><path fill="url(#E)" d="M4.963 170.283a2.45 2.45 0 0 1-.914-1.76c-.084-1.356.956-2.522 2.322-2.604l143.14-8.658c3.82-.23 7.194 2.455 7.794 6.205l22.708 141.937c.1.69-.08 1.39-.52 1.933a2.49 2.49 0 0 1-3.485.363L4.963 170.283z"/></g><circle cx="338.5" cy="307.5" r="41.5" fill="url(#F)"/><path fill="#f6f9ff" d="M333.313 323.063c-.934 0-1.557-.312-2.18-.934l-12.45-12.45c-1.244-1.245-1.244-3.113 0-4.358s3.113-1.245 4.358 0l10.27 10.272 22.723-22.723c1.245-1.245 3.112-1.245 4.357 0s1.245 3.113 0 4.358l-24.9 24.9c-.622.622-1.245.934-2.178.934"/></g><g transform="translate(174 114)"><mask id="N" fill="#fff"><use xlink:href="#K"/></mask><use fill="url(#G)" xlink:href="#K"/><circle cx="21.291" cy="24.082" r="29.663" fill="url(#H)" mask="url(#N)" opacity=".563"/><path fill="url(#I)" d="M66.37 101.84c38.94-4.496 36.53-14.32 40.56-40.56s-35.133-45.167-54.144-37.06S42.726 46.877 25.8 61.28s1.622 45.056 40.56 40.56z" mask="url(#N)" opacity=".55"/><g fill="#fff" filter="url(#J)" transform="translate(17.442 20.233)"><path d="M28.884 0L14.65 24.8l7.168 12.874L43.256 0zm-7.256 37.674l7.522 12.56h26.664l-7.2-12.56zM8.534 35.58L0 50.233h17.442L8.668 35.58z"/></g></g></g><circle cx="440" cy="180" r="6" fill="#ff959b"/><circle cx="54" cy="139" r="6" fill="#c2daff"/><g stroke="#b1cdf9" stroke-width="3"><circle cx="40.5" cy="208.5" r="7.5"/><circle cx="408.5" cy="211.5" r="6.5"/></g><rect width="4" height="24" x="417" fill="#faafb1" rx="2" y="125"/><use xlink:href="#L" fill="#d8d8d8"/><g fill="#faafb1"><use xlink:href="#L"/><path d="M12.5 157a2.5 2.5 0 0 1 2.5 2.5v19a2.5 2.5 0 1 1-5 0v-19a2.5 2.5 0 0 1 2.5-2.5z"/></g><use xlink:href="#M" fill="#d8d8d8"/><use xlink:href="#M" fill="#faafb1"/></g></svg>