<svg width="120" height="41" viewBox="0 0 120 41" fill="none" xmlns="http://www.w3.org/2000/svg">
<path d="M115.731 40.2143H4.20356C2.22447 40.2143 0.5 38.3386 0.5 35.8968V4.81039C0.5 2.36859 2.22352 0.5 4.20356 0.5H115.731C117.719 0.5 119.5 2.37926 119.5 4.81039V35.8968C119.5 38.328 117.718 40.2143 115.731 40.2143Z" fill="#102D42" stroke="#618298"/>
<path fill-rule="evenodd" clip-rule="evenodd" d="M24.2321 10.4853C25.009 9.49637 25.5406 8.15099 25.393 6.78571C24.2686 6.83637 22.8623 7.57737 22.0526 8.54456C21.3361 9.39685 20.6961 10.7938 20.8614 12.1075C22.1246 12.2034 23.4214 11.4588 24.2321 10.4853ZM27.0765 19.0604C27.051 16.1662 29.387 14.747 29.528 14.6614L29.5308 14.6597C28.1877 12.6665 26.1059 12.3942 25.3743 12.3724C24.3046 12.2579 23.2546 12.6821 22.3966 13.0287C21.8521 13.2486 21.385 13.4374 21.0392 13.4374C20.6456 13.4374 20.1649 13.2408 19.6263 13.0205C18.922 12.7325 18.1186 12.4039 17.281 12.4213C15.3788 12.4512 13.5992 13.5722 12.6232 15.3129C10.609 18.8623 12.1112 24.0783 14.041 26.9473C15.0063 28.3524 16.1343 29.9212 17.6108 29.866C18.2805 29.8379 18.7557 29.6343 19.2466 29.4241C19.8143 29.1809 20.403 28.9287 21.3379 28.9287C22.2197 28.9287 22.7833 29.173 23.3243 29.4075C23.8428 29.6323 24.3405 29.848 25.0774 29.8307C26.6277 29.8054 27.6037 28.4193 28.5352 27.0015C29.6508 25.3911 30.0988 23.805 30.1165 23.7236C30.0801 23.7109 27.1059 22.5555 27.0765 19.0604ZM45.962 29.6642H47.9807L44.154 17.6236H41.802L37.994 29.6642H39.9593L41.0127 26.1275H44.8562L45.962 29.6642ZM43.5229 21.4996L44.5229 24.6437H41.3469L42.3291 21.4996C42.5869 20.4999 42.7744 19.7435 42.8909 19.2314H42.9264C43.2189 20.4221 43.4171 21.1784 43.5229 21.4996ZM57.7736 25.2165C57.7736 26.6931 57.3816 27.8603 56.5976 28.7171C55.8954 29.4798 55.0233 29.8607 53.9825 29.8607C52.8589 29.8607 52.0518 29.4499 51.5602 28.6284H51.5247V33.202H49.6296V23.8404C49.6296 22.9121 49.6056 21.9594 49.5593 20.9823H51.226L51.3318 22.3584H51.3673C51.9994 21.3215 52.9585 20.804 54.2456 20.804C55.2518 20.804 56.0918 21.2084 56.7638 22.0182C57.4376 22.8289 57.7736 23.8947 57.7736 25.2165ZM55.8429 25.2871C55.8429 24.4421 55.6562 23.7454 55.2811 23.1971C54.8713 22.6253 54.3211 22.3394 53.6313 22.3394C53.1638 22.3394 52.7389 22.4986 52.3593 22.8126C51.9789 23.1293 51.73 23.5427 51.6136 24.0548C51.5549 24.2937 51.5256 24.4891 51.5256 24.6429V26.0905C51.5256 26.7221 51.7158 27.255 52.0962 27.6902C52.4767 28.1254 52.9709 28.3425 53.5789 28.3425C54.2927 28.3425 54.8482 28.062 55.2456 27.5029C55.6438 26.9428 55.8429 26.2045 55.8429 25.2871ZM66.4073 28.7171C67.1922 27.8603 67.5842 26.6931 67.5842 25.2165C67.5842 23.8947 67.2473 22.8289 66.5762 22.0182C65.9025 21.2084 65.0625 20.804 64.0571 20.804C62.7691 20.804 61.81 21.3215 61.1789 22.3584H61.1434L61.0376 20.9823H59.3709C59.4171 21.9594 59.4411 22.9121 59.4411 23.8404V33.202H61.3362V28.6284H61.3718C61.8625 29.4499 62.6696 29.8607 63.7931 29.8607C64.834 29.8607 65.706 29.4798 66.4073 28.7171ZM65.0909 23.1971C65.466 23.7454 65.6536 24.4421 65.6536 25.2871C65.6536 26.2045 65.4545 26.9428 65.0562 27.5029C64.6589 28.062 64.1034 28.3425 63.3896 28.3425C62.7798 28.3425 62.2856 28.1245 61.9051 27.6902C61.5265 27.255 61.3362 26.7221 61.3362 26.0905V24.6429C61.3362 24.4891 61.3665 24.2937 61.4242 24.0548C61.5407 23.5427 61.7887 23.1293 62.1691 22.8126C62.5496 22.4986 62.9736 22.3394 63.442 22.3394C64.1327 22.3394 64.6811 22.6253 65.0909 23.1971ZM78.5531 26.2876C78.5531 27.3118 78.2038 28.1451 77.5025 28.7884C76.7318 29.4914 75.6589 29.8424 74.2803 29.8424C73.0074 29.8424 71.9869 29.5927 71.2145 29.0924L71.6536 27.4846C72.4856 27.9967 73.3985 28.2537 74.3931 28.2537C75.1069 28.2537 75.6625 28.089 76.0616 27.7615C76.4589 27.434 76.6571 26.9942 76.6571 26.446C76.6571 25.9574 76.4936 25.5457 76.1656 25.2119C75.8394 24.878 75.2945 24.5677 74.5336 24.2809C72.4625 23.4946 71.4278 22.3429 71.4278 20.8283C71.4278 19.8385 71.7905 19.0269 72.5167 18.3954C73.2403 17.763 74.2056 17.4472 75.4127 17.4472C76.4891 17.4472 77.3834 17.6381 78.0971 18.019L77.6234 19.5915C76.9567 19.2223 76.2029 19.0378 75.3594 19.0378C74.6927 19.0378 74.1718 19.2051 73.7985 19.5381C73.4829 19.8358 73.3247 20.1986 73.3247 20.6283C73.3247 21.1042 73.5051 21.4978 73.8678 21.8072C74.1834 22.0931 74.7567 22.4026 75.5887 22.7364C76.6065 23.1535 77.354 23.6412 77.8349 24.2003C78.314 24.7577 78.5531 25.4552 78.5531 26.2876ZM82.73 22.4298H84.8189V20.9804H82.73V18.8189L80.8687 19.3907V20.9804H79.6243V22.428H80.8687V26.8043C80.8687 27.9 81.0803 28.6799 81.5007 29.145C81.9229 29.6091 82.5078 29.8416 83.2563 29.8416C83.8651 29.8416 84.3567 29.7702 84.73 29.6281L84.6776 28.1633C84.4554 28.223 84.1745 28.2529 83.8358 28.2529C83.098 28.2529 82.73 27.7173 82.73 26.6451V22.4298ZM94.2438 25.2518C94.2438 26.5863 93.8687 27.6819 93.1202 28.5388C92.3353 29.4209 91.2936 29.8606 89.9949 29.8606C88.7433 29.8606 87.7469 29.4381 87.0038 28.593C86.2607 27.748 85.8891 26.6813 85.8891 25.3956C85.8891 24.0502 86.2713 22.9482 87.0384 22.0914C87.8038 21.2337 88.8367 20.8048 90.1353 20.8048C91.3869 20.8048 92.394 21.2274 93.154 22.0733C93.8811 22.8939 94.2438 23.9534 94.2438 25.2518ZM92.2775 25.3142C92.2775 24.5135 92.1096 23.8268 91.7691 23.254C91.3718 22.561 90.8038 22.2154 90.0678 22.2154C89.306 22.2154 88.7273 22.5619 88.33 23.254C87.9895 23.8277 87.8215 24.5252 87.8215 25.3504C87.8215 26.1511 87.9895 26.8378 88.33 27.4096C88.7398 28.1027 89.3122 28.4483 90.0509 28.4483C90.7744 28.4483 91.3424 28.0954 91.7522 27.3915C92.1016 26.8079 92.2775 26.114 92.2775 25.3142ZM99.8065 22.6253C100.016 22.6253 100.216 22.6434 100.404 22.6787V20.8393C100.263 20.8167 100.105 20.804 99.9301 20.804C99.4385 20.804 98.9825 20.9587 98.5603 21.2691C98.1283 21.6138 97.8127 22.0734 97.6127 22.6443H97.5603L97.4909 20.9832H95.8403C95.8874 21.8047 95.9114 22.7158 95.9114 23.7164L95.8936 29.6644H97.7878V25.1089C97.7878 24.4185 97.9461 23.8467 98.2616 23.3944C98.6243 22.8814 99.1398 22.6253 99.8065 22.6253ZM108.879 24.9127C108.879 25.2583 108.857 25.5496 108.81 25.7876H103.125C103.147 26.6453 103.422 27.3012 103.95 27.7536C104.429 28.1581 105.048 28.3607 105.809 28.3607C106.651 28.3607 107.419 28.2241 108.11 27.95L108.406 29.289C107.599 29.6473 106.646 29.8255 105.547 29.8255C104.224 29.8255 103.186 29.4292 102.43 28.6376C101.677 27.8459 101.299 26.7828 101.299 25.4492C101.299 24.14 101.65 23.0498 102.353 22.1803C103.089 21.252 104.084 20.7879 105.335 20.7879C106.565 20.7879 107.495 21.252 108.127 22.1803C108.628 22.9177 108.879 23.8297 108.879 24.9127ZM107.072 24.4123C107.085 23.8405 106.961 23.3465 106.704 22.9294C106.376 22.3929 105.872 22.1251 105.194 22.1251C104.574 22.1251 104.07 22.3866 103.686 22.9113C103.37 23.3284 103.182 23.8288 103.125 24.4114H107.072V24.4123ZM42.9559 12.6214C43.5826 12.0831 43.8964 11.2814 43.8964 10.2165C43.8964 9.26834 43.6057 8.54001 43.0262 8.03063C42.5088 7.58006 41.7417 7.35477 40.7239 7.35477C40.1479 7.35477 39.6146 7.39639 39.1195 7.47782V13.2963C39.499 13.3434 39.9524 13.3669 40.4822 13.3669C41.5506 13.3669 42.3755 13.1181 42.9559 12.6214ZM42.3755 8.65401C42.7346 9.02315 42.9142 9.55244 42.9142 10.2428C42.9142 11.0154 42.7186 11.6035 42.331 12.0071C41.9435 12.4106 41.3933 12.6123 40.6804 12.6123C40.3755 12.6123 40.1657 12.6042 40.051 12.5861V8.16272C40.2582 8.1211 40.5079 8.1012 40.8013 8.1012C41.4919 8.1012 42.0164 8.28577 42.3755 8.65401ZM49.1043 11.1467C49.1043 11.8026 48.9203 12.34 48.5523 12.7617C48.1665 13.195 47.6554 13.4113 47.0172 13.4113C46.4021 13.4113 45.9123 13.2041 45.547 12.7879C45.1826 12.3726 45.0003 11.8488 45.0003 11.2172C45.0003 10.5568 45.1879 10.0148 45.5648 9.59409C45.9417 9.17338 46.4483 8.96257 47.0866 8.96257C47.7017 8.96257 48.1959 9.16976 48.5701 9.58504C48.9257 9.98857 49.1043 10.5097 49.1043 11.1467ZM48.1381 11.1774C48.1381 10.7839 48.0546 10.4464 47.8883 10.165C47.6928 9.82481 47.4146 9.65471 47.0528 9.65471C46.6786 9.65471 46.3941 9.82481 46.1985 10.165C46.0314 10.4464 45.9488 10.7893 45.9488 11.1946C45.9488 11.5882 46.0323 11.9257 46.1985 12.207C46.4003 12.5472 46.6812 12.7173 47.0439 12.7173C47.3994 12.7173 47.6785 12.5445 47.8794 12.198C48.0519 11.9112 48.1381 11.571 48.1381 11.1774ZM55.1728 9.05045H56.0872L54.7764 13.3146H53.9231L53.38 11.4625C53.2422 11.0002 53.1302 10.5406 53.0431 10.0846H53.0262C52.9453 10.5533 52.8333 11.012 52.6893 11.4625L52.1124 13.3146H51.2493L50.0164 9.04954H50.9737L51.4475 11.0771C51.5622 11.5566 51.6564 12.0135 51.732 12.446H51.7488C51.8182 12.0895 51.9328 11.6354 52.0946 11.0862L52.6893 9.05045H53.4484L54.0182 11.0427C54.156 11.5286 54.2679 11.9964 54.3542 12.4469H54.38C54.4431 12.0081 54.5382 11.5404 54.6644 11.0427L55.1728 9.05045ZM60.9168 13.3143H59.9852V10.8714C59.9852 10.1187 59.7043 9.74229 59.1408 9.74229C58.8643 9.74229 58.6412 9.84543 58.4679 10.0526C58.2963 10.2598 58.2092 10.5041 58.2092 10.7837V13.3134H57.2777V10.268C57.2777 9.89338 57.2661 9.48715 57.2439 9.04743H58.0625L58.1061 9.71424H58.1319C58.2403 9.50705 58.4021 9.33605 58.6145 9.19943C58.867 9.04019 59.1497 8.95967 59.459 8.95967C59.8501 8.95967 60.1754 9.08815 60.4341 9.346C60.7559 9.66176 60.9168 10.1331 60.9168 10.7592V13.3143ZM62.555 13.3142H63.4857V7.09219H62.555V13.3142ZM68.9702 11.1467C68.9702 11.8026 68.7862 12.34 68.4182 12.7617C68.0324 13.195 67.5204 13.4113 66.883 13.4113C66.267 13.4113 65.7773 13.2041 65.4128 12.7879C65.0484 12.3726 64.8662 11.8488 64.8662 11.2172C64.8662 10.5568 65.0537 10.0148 65.4306 9.59409C65.8075 9.17338 66.3142 8.96257 66.9515 8.96257C67.5675 8.96257 68.0608 9.16976 68.4359 9.58504C68.7915 9.98857 68.9702 10.5097 68.9702 11.1467ZM68.003 11.1774C68.003 10.7839 67.9195 10.4464 67.7533 10.165C67.5586 9.82481 67.2795 9.65471 66.9186 9.65471C66.5435 9.65471 66.259 9.82481 66.0644 10.165C65.8973 10.4464 65.8146 10.7893 65.8146 11.1946C65.8146 11.5882 65.8982 11.9257 66.0644 12.207C66.2662 12.5472 66.547 12.7173 66.9097 12.7173C67.2653 12.7173 67.5435 12.5445 67.7444 12.198C67.9177 11.9112 68.003 11.571 68.003 11.1774ZM72.6421 13.3145H73.4786C73.4386 13.0629 73.4181 12.7237 73.4181 12.2975V10.7269C73.4181 9.55066 72.8688 8.96257 71.7737 8.96257C71.2066 8.96257 70.7257 9.08562 70.3364 9.33081L70.5257 9.95328C70.8404 9.74338 71.2048 9.63752 71.6181 9.63752C72.1986 9.63752 72.4884 9.918 72.4884 10.4799V10.5595C71.7124 10.5531 71.1097 10.6879 70.6812 10.963C70.2519 11.238 70.0386 11.6352 70.0386 12.1564C70.0386 12.5011 70.1479 12.7915 70.3666 13.0249C70.6075 13.2819 70.9275 13.4113 71.323 13.4113C71.8528 13.4113 72.2608 13.2149 72.547 12.8232H72.5728L72.6421 13.3145ZM72.5115 11.191V11.8488C72.5115 11.913 72.5061 11.9691 72.4964 12.0152C72.4564 12.2206 72.3488 12.388 72.1737 12.5201C71.9995 12.6513 71.8084 12.7173 71.6039 12.7173C71.4217 12.7173 71.2688 12.6621 71.1488 12.5509C71.0288 12.4396 70.9701 12.2731 70.9701 12.0505C70.9701 11.4597 71.4839 11.1729 72.5115 11.191ZM78.7719 13.3142H77.9452L77.9017 12.6293H77.8759C77.6119 13.1505 77.1621 13.411 76.5301 13.411C76.0252 13.411 75.6048 13.2093 75.2715 12.8058C74.9381 12.4022 74.7719 11.8784 74.7719 11.2351C74.7719 10.5448 74.9524 9.98562 75.315 9.55857C75.6661 9.16047 76.0964 8.96143 76.6084 8.96143C77.171 8.96143 77.5648 9.15414 77.7888 9.54047H77.8066V7.09219H78.739V12.1652C78.739 12.5805 78.7497 12.9632 78.7719 13.3142ZM77.8066 11.5156V10.8044C77.8066 10.6814 77.7977 10.5819 77.7808 10.5059C77.7284 10.2779 77.6155 10.086 77.4439 9.93133C77.2706 9.77662 77.0617 9.69881 76.8208 9.69881C76.4732 9.69881 76.2012 9.83905 76.0012 10.1204C75.803 10.4018 75.7026 10.761 75.7026 11.1998C75.7026 11.6214 75.7977 11.9634 75.9888 12.2267C76.1906 12.5072 76.4626 12.6474 76.803 12.6474C77.1088 12.6474 77.3532 12.5307 77.539 12.2964C77.7186 12.0801 77.8066 11.8196 77.8066 11.5156ZM86.187 12.7617C86.555 12.34 86.739 11.8026 86.739 11.1467C86.739 10.5097 86.5604 9.98857 86.2048 9.58504C85.8315 9.16976 85.3363 8.96257 84.7221 8.96257C84.083 8.96257 83.5763 9.17338 83.1995 9.59409C82.8226 10.0148 82.635 10.5568 82.635 11.2172C82.635 11.8488 82.8172 12.3726 83.1817 12.7879C83.5479 13.2041 84.0377 13.4113 84.6519 13.4113C85.291 13.4113 85.8012 13.195 86.187 12.7617ZM85.5239 10.165C85.6901 10.4464 85.7737 10.7839 85.7737 11.1774C85.7737 11.571 85.6866 11.9112 85.515 12.198C85.3141 12.5445 85.0341 12.7173 84.6786 12.7173C84.3159 12.7173 84.035 12.5472 83.8332 12.207C83.667 11.9257 83.5835 11.5882 83.5835 11.1946C83.5835 10.7893 83.6661 10.4464 83.8332 10.165C84.0297 9.82481 84.3141 9.65471 84.6875 9.65471C85.0501 9.65471 85.3275 9.82481 85.5239 10.165ZM91.7479 13.3143H90.8172V10.8714C90.8172 10.1187 90.5363 9.74229 89.9719 9.74229C89.6954 9.74229 89.4723 9.84543 89.2999 10.0526C89.1274 10.2598 89.0412 10.5041 89.0412 10.7837V13.3134H88.1088V10.268C88.1088 9.89338 88.0981 9.48715 88.0759 9.04743H88.8937L88.9372 9.71424H88.963C89.0723 9.50705 89.2341 9.33605 89.4457 9.19943C89.699 9.04019 89.9808 8.95967 90.291 8.95967C90.6812 8.95967 91.0066 9.08815 91.2652 9.346C91.5879 9.66176 91.7479 10.1331 91.7479 10.7592V13.3143ZM96.9914 9.75963H98.0163V9.04849H96.9905V7.9872L96.0777 8.26768V9.04939H95.4652V9.75963H96.0777V11.9103C96.0777 12.4486 96.1808 12.8322 96.3888 13.0602C96.5959 13.2882 96.8821 13.4022 97.2501 13.4022C97.5479 13.4022 97.7897 13.3669 97.9737 13.2963L97.9497 12.5771C97.8403 12.6069 97.7017 12.6214 97.5345 12.6214C97.1737 12.6214 96.9914 12.3581 96.9914 11.8315V9.75963ZM102.949 13.3142H102.016V10.8895C102.016 10.125 101.735 9.74224 101.173 9.74224C100.741 9.74224 100.446 9.9639 100.284 10.4072C100.256 10.5004 100.24 10.6144 100.24 10.7483V13.3133H99.3097V7.09219H100.24V9.66262H100.258C100.551 9.19486 100.972 8.96143 101.517 8.96143C101.903 8.96143 102.222 9.0899 102.475 9.34776C102.791 9.66895 102.949 10.1467 102.949 10.7782V13.3142ZM108.001 11.4098C108.024 11.2931 108.036 11.1501 108.036 10.98C108.036 10.448 107.912 10.0002 107.663 9.63828C107.353 9.18228 106.896 8.95428 106.293 8.95428C105.677 8.95428 105.189 9.18228 104.828 9.63828C104.482 10.0653 104.311 10.601 104.311 11.2442C104.311 11.8993 104.495 12.4213 104.866 12.8104C105.236 13.1994 105.747 13.394 106.396 13.394C106.937 13.394 107.405 13.3062 107.802 13.1307L107.656 12.472C107.317 12.6068 106.94 12.6738 106.527 12.6738C106.153 12.6738 105.848 12.5742 105.612 12.3752C105.353 12.1526 105.22 11.8314 105.208 11.4098H108.001ZM106.967 10.0065C107.093 10.211 107.154 10.4535 107.147 10.7349H105.208C105.238 10.448 105.329 10.2029 105.484 9.99748C105.673 9.73962 105.921 9.61114 106.225 9.61114C106.559 9.61114 106.805 9.74324 106.967 10.0065Z" fill="white"/>
</svg>
