<svg xmlns="http://www.w3.org/2000/svg" width="157" height="32" viewBox="0 0 157 32">
    <g fill="none" fill-rule="evenodd">
        <g fill-rule="nonzero">
            <g>
                <path fill="#0E57AF" d="M11 0L0 8 11 8z" transform="translate(-1451 -464) translate(1451 464)"/>
                <path fill="#0E57AF" d="M157 0L146 8 157 8z" transform="translate(-1451 -464) translate(1451 464) matrix(-1 0 0 1 303 0)"/>
                <g>
                    <path fill="#3C80EF" d="M0 0h135v28c0 2.21-1.79 4-4 4H4c-2.21 0-4-1.79-4-4V0z" transform="translate(-1451 -464) translate(1451 464) translate(11)"/>
                    <path fill="#FFF" d="M18.51 21c1.205 0 2.152-.272 2.84-.816.688-.544 1.032-1.296 1.032-2.256 0-.693-.179-1.28-.536-1.76-.357-.48-.861-.81-1.512-.992.555-.203.99-.523 1.304-.96.315-.437.472-.955.472-1.552 0-.928-.333-1.65-1-2.168-.667-.517-1.587-.776-2.76-.776h-4.96V21h5.12zm-.496-6.528h-2.608V11.32h2.608c.715 0 1.248.128 1.6.384.352.256.528.65.528 1.184 0 1.056-.71 1.584-2.128 1.584zm.272 4.928h-2.88v-3.328h2.88c.736 0 1.277.139 1.624.416.347.277.52.699.52 1.264 0 .565-.17.981-.512 1.248-.341.267-.885.4-1.632.4zM32.21 21v-1.632h-5.536v-3.296h5.216v-1.616h-5.216v-3.104h5.536V9.72h-7.552V21h7.552zm6.948 0v-9.584h3.68V9.72h-9.424v1.696h3.68V21h2.064zm10.148 0v-9.584h3.68V9.72h-9.424v1.696h3.68V21h2.064zm12.98 0v-1.632H56.75v-3.296h5.216v-1.616H56.75v-3.104h5.536V9.72h-7.552V21h7.552zm4.244 0v-4.528h1.568c.405 0 .741.07 1.008.208.267.139.49.379.672.72l1.936 3.6h2.24l-1.888-3.456c-.363-.683-.843-1.104-1.44-1.264.885-.17 1.57-.536 2.056-1.096.485-.56.728-1.272.728-2.136 0-1.077-.333-1.901-1-2.472-.667-.57-1.64-.856-2.92-.856h-4.992V21h2.032zm2.672-6.112h-2.688V11.32h2.688c.779 0 1.35.141 1.712.424.363.283.544.733.544 1.352 0 .608-.181 1.059-.544 1.352-.363.293-.933.44-1.712.44zM84.794 21c1.845 0 3.277-.496 4.296-1.488 1.019-.992 1.528-2.379 1.528-4.16 0-1.781-.51-3.165-1.528-4.152-1.019-.987-2.45-1.48-4.296-1.48h-4.16V21h4.16zm-.128-1.68h-1.968V11.4h1.968c2.592 0 3.888 1.317 3.888 3.952 0 2.645-1.296 3.968-3.888 3.968zM100.59 21v-1.632h-5.536v-3.296h5.216v-1.616h-5.216v-3.104h5.536V9.72h-7.552V21h7.552zm2.884 0l1.136-2.64h5.488l1.136 2.64h2.048l-5.104-11.28h-1.68L101.394 21h2.08zm5.936-4.24h-4.128l2.064-4.8 2.064 4.8zM122.15 21v-1.696h-5.264V9.72h-2.064V21h7.328z" transform="translate(-1451 -464) translate(1451 464) translate(11)"/>
                </g>
            </g>
        </g>
    </g>
</svg>
