<svg width="132" height="72" viewBox="0 0 132 72" fill="none" xmlns="http://www.w3.org/2000/svg">
<mask id="mask0_5476_87714" style="mask-type:alpha" maskUnits="userSpaceOnUse" x="0" y="0" width="132" height="72">
<rect width="132" height="72" fill="#C4C4C4"/>
</mask>
<g mask="url(#mask0_5476_87714)">
<path d="M32.2637 67.4917C24.7465 65.6366 20.151 62.3197 19.2678 58.0283C18.2328 53.0291 22.2788 47.2901 30.6725 41.9022C38.9652 36.5753 50.5672 32.1854 63.3037 29.5363C76.0403 26.8873 88.4228 26.2994 98.157 27.8766C108.005 29.4818 114.001 33.1101 115.032 38.1255C116.026 42.9426 112.295 48.45 104.512 53.6621L104.134 53.1047C111.671 48.0553 115.31 42.7829 114.365 38.253C113.379 33.541 107.581 30.0821 98.0295 28.5326C88.3763 26.9754 76.0827 27.5509 63.419 30.1835C50.7553 32.8161 39.2462 37.1774 31.0141 42.4678C22.8668 47.6931 18.9374 53.1687 19.9028 57.8928C20.8188 62.3298 26.0903 65.6932 34.7401 67.3466L34.6126 68.0026C33.8067 67.8553 33.0251 67.6796 32.2637 67.4917Z" fill="#829DB0"/>
<path d="M77.4139 68.0341L77.0204 67.6406C79.8732 64.7457 79.8029 59.279 76.8236 52.2524C73.8163 45.1415 68.195 37.3279 61.0138 30.2311C53.8326 23.1342 45.9348 17.6254 38.7817 14.7164C31.713 11.8355 26.2463 11.8355 23.3935 14.7304L23 14.3369C26.0214 11.2733 31.6989 11.2171 38.9925 14.1964C46.2018 17.1335 54.1699 22.6845 61.4073 29.8235C68.6447 36.9906 74.3081 44.8745 77.3436 52.0416C80.4072 59.293 80.4353 64.9705 77.4139 68.0341Z" fill="#829DB0"/>
<circle cx="112.565" cy="49.5652" r="9.56516" fill="#F1F5F8"/>
<mask id="mask1_5476_87714" style="mask-type:alpha" maskUnits="userSpaceOnUse" x="103" y="40" width="20" height="20">
<path d="M112.565 59.1303C117.848 59.1303 122.13 54.8479 122.13 49.5652C122.13 44.2825 117.848 40 112.565 40C107.282 40 103 44.2825 103 49.5652C103 54.8479 107.282 59.1303 112.565 59.1303Z" fill="#FCE3C3"/>
</mask>
<g mask="url(#mask1_5476_87714)">
<path d="M116.332 54.173C116.332 54.2067 116.332 54.2405 116.328 54.27C116.32 54.5485 116.307 54.8312 116.286 55.1139C116.24 55.713 116.164 56.3164 116.062 56.924C115.847 58.2531 115.527 59.5864 115.223 60.8521C115.041 60.9745 114.738 61.1686 114.527 61.2403C112.721 61.8479 111.535 61.7298 109.657 61.3964C109.387 60.3079 109.244 59.1897 109.172 58.0716C109.092 56.8522 109.016 55.6329 109.025 54.4135C109.063 54.2911 109.101 54.173 109.143 54.0506C109.151 54.0295 109.16 54.0084 109.168 53.9831C109.185 53.9409 109.202 53.8987 109.219 53.8565C109.265 53.7426 109.311 53.6287 109.358 53.519C109.425 53.3671 109.493 53.2236 109.569 53.076C109.856 52.7426 110.164 52.4346 110.493 52.1435C110.847 51.8313 111.235 51.5359 111.687 51.3967C111.999 51.2996 112.328 51.2828 112.653 51.2954C112.856 51.3039 113.058 51.3292 113.257 51.3671C113.999 51.5106 114.704 51.8397 115.294 52.3123C115.48 52.4599 115.653 52.6245 115.809 52.8017C115.839 52.8312 115.864 52.865 115.894 52.8988C116.058 53.0928 116.21 53.3038 116.278 53.5485C116.337 53.7553 116.332 53.9662 116.332 54.173Z" fill="url(#paint0_linear_5476_87714)"/>
<path d="M115.29 44.6752C115.193 44.5402 115.092 44.4052 114.982 44.2786C114.759 44.017 114.489 43.785 114.193 43.5993C113.092 42.8989 111.603 43.0128 110.658 43.9284C110.219 44.3546 109.932 44.9157 109.75 45.498C109.417 46.5486 109.333 47.6625 109.307 48.7553C109.303 49.0296 109.299 49.3038 109.295 49.5781C109.295 49.6582 109.253 50.3164 109.307 50.3375C109.497 50.4135 109.691 50.4768 109.885 50.5401C110.936 50.8776 112.033 51.0928 113.134 51.0464C114.231 51.0042 115.333 50.6877 116.223 50.0337C116.261 49.73 116.278 49.4388 116.278 49.1435C116.282 48.2532 116.316 47.3461 116.105 46.4769C115.953 45.8355 115.674 45.2195 115.29 44.6752Z" fill="#102D42"/>
<path d="M113.928 48.3882L113.94 49.3839L113.966 51.6413L111.383 51.8016L111.451 50.4852L111.506 49.3207L113.928 48.3882Z" fill="url(#paint1_linear_5476_87714)"/>
<path d="M114.974 46.8436C114.856 47.4174 114.628 47.9702 114.32 48.4385C113.822 49.1938 112.995 49.8731 112.063 49.949C111.586 49.987 111.105 49.8309 110.759 49.4976C110.675 49.4174 110.599 49.3246 110.531 49.2275C109.911 48.3288 109.818 47.1348 110.097 46.0588C110.215 45.5947 110.405 45.1517 110.649 44.7677C110.915 44.3458 111.303 43.9829 111.746 43.734C112.48 43.3247 113.371 43.2403 114.109 43.7846C114.442 44.0293 114.687 44.3838 114.839 44.7719C114.843 44.7846 114.852 44.8015 114.856 44.8141C115.092 45.447 115.113 46.1601 114.974 46.8436Z" fill="url(#paint2_linear_5476_87714)"/>
<path d="M122.691 58.1178C121.636 58.1431 119.21 56.7128 118.206 56.198C118.016 56.101 117.661 55.9026 117.248 55.6706C116.944 55.4976 116.607 55.3035 116.286 55.1136C115.729 54.7888 115.218 54.4765 114.995 54.3204C114.818 54.198 114.636 54.0546 114.463 53.9027C113.856 53.3626 113.32 52.6538 113.235 51.8648C113.231 51.8226 113.231 51.5272 113.261 51.3711C113.273 51.312 113.29 51.2699 113.311 51.2741C115.109 51.4091 116.796 52.1939 118.37 53.0715C118.877 53.3542 119.151 53.5525 119.564 53.8225C119.653 53.8816 119.746 53.9407 119.851 54.0082L119.855 54.0124C119.851 53.9997 119.847 53.9913 119.843 53.9786C119.78 53.8225 119.72 53.658 119.67 53.5061C119.615 53.35 119.569 53.2065 119.531 53.0842C119.429 52.7846 119.311 52.3753 119.311 52.3753C119.311 52.3753 118.936 51.3711 118.885 51.35C118.758 51.2994 118.64 51.2361 118.526 51.1602C118.387 51.0673 118.29 50.945 118.159 50.8395C117.94 50.6581 117.678 50.5188 117.446 50.3543C117.375 50.3036 117.299 50.2488 117.256 50.1686C117.256 50.1644 117.252 50.1644 117.252 50.1602C117.214 50.0842 117.214 49.9787 117.282 49.9197C117.332 49.8733 117.404 49.8648 117.472 49.8775C117.585 49.8986 117.699 49.9619 117.801 50.0209C117.864 50.0589 117.931 50.1053 118.003 50.1264C118.113 50.1602 118.066 50.0716 118.029 50.0041C117.991 49.9323 117.944 49.8606 117.894 49.7931C117.792 49.6623 117.678 49.5442 117.573 49.4134L116.86 48.5526C116.788 48.4682 116.839 48.3206 116.944 48.2868C117.088 48.2446 117.189 48.4218 117.269 48.5062C117.408 48.6497 117.548 48.7889 117.687 48.9281C117.788 49.0294 117.885 49.1307 117.986 49.2277C118.045 49.2868 118.083 49.3669 118.142 49.4302C118.164 49.4513 118.223 49.5188 118.261 49.4977C118.303 49.4766 118.256 49.4091 118.244 49.3796C118.214 49.3079 118.185 49.2404 118.151 49.1686C118.088 49.0336 118.02 48.9028 117.953 48.772C117.813 48.5062 117.67 48.2404 117.56 47.9577C117.556 47.945 117.552 47.9324 117.552 47.9239C117.514 47.8396 117.56 47.7256 117.649 47.6961C117.818 47.6413 117.906 47.8775 117.974 47.9872C118.079 48.1644 118.18 48.3459 118.29 48.5231C118.37 48.6539 118.45 48.7889 118.531 48.9197C118.56 48.9661 118.64 49.2108 118.72 49.1813C118.792 49.1602 118.699 48.9746 118.691 48.9281C118.67 48.8227 118.645 48.7214 118.623 48.6159C118.577 48.4092 118.522 48.2024 118.467 47.9999C118.463 47.9788 118.459 47.9619 118.459 47.945C118.442 47.886 118.421 47.8311 118.404 47.772C118.37 47.6708 118.455 47.5611 118.564 47.5653C118.72 47.5695 118.742 47.7678 118.78 47.8818C118.839 48.0632 118.893 48.2446 118.948 48.426C118.986 48.5526 119.024 48.6834 119.062 48.8142C119.083 48.8817 119.142 49.1897 119.269 49.1011C119.294 49.0843 119.29 49.021 119.294 48.9956C119.299 48.9155 119.286 48.8353 119.282 48.7509C119.269 48.5357 119.261 48.3163 119.252 48.0969C119.248 47.9788 119.383 47.8944 119.488 47.945C119.645 48.0252 119.59 48.329 119.594 48.4682C119.598 48.6919 119.611 48.9155 119.632 49.1349C119.636 49.1729 119.64 49.2108 119.653 49.2488C119.67 49.2952 119.699 49.3374 119.725 49.3754C119.877 49.6117 119.965 49.8859 120.003 50.1602C120.02 50.2994 120.024 50.4386 120.016 50.5821C120.007 50.7256 119.948 50.9914 119.948 50.9914C119.948 50.9914 120.054 51.1559 120.1 51.2192C120.155 51.2909 120.206 51.3669 120.256 51.4428C120.366 51.5947 120.471 51.7509 120.581 51.9027C120.957 52.4344 121.341 52.9576 121.699 53.5061C122.619 54.9195 122.995 55.641 123.4 56.6115C123.615 57.1684 123.45 58.1009 122.691 58.1178Z" fill="url(#paint3_linear_5476_87714)"/>
<path d="M114.405 43.9363C114.076 43.679 113.7 43.4933 113.287 43.3963C113.063 43.3414 112.835 43.3119 112.607 43.3034C112.316 43.295 112.152 43.4005 112.012 43.6536C111.903 43.8477 111.852 44.0714 111.839 44.295C111.835 44.3625 111.835 44.4342 111.839 44.5059C111.882 45.1937 112.257 45.9363 112.671 46.3245C113.008 46.6367 113.438 46.8561 113.881 46.9616C114.329 47.0671 114.881 47.0882 115.295 46.8603C115.687 46.6451 115.738 46.1979 115.628 45.8013C115.493 45.3076 115.198 44.8055 114.877 44.4131C114.738 44.2317 114.578 44.0756 114.405 43.9363Z" fill="#102D42"/>
<path d="M112.666 43.6371C112.653 43.5864 112.641 43.54 112.611 43.4978C112.548 43.4008 112.426 43.3628 112.308 43.3502C111.902 43.3122 111.523 43.5527 111.198 43.7974C110.995 43.9493 110.797 44.1096 110.641 44.3122C110.535 44.4472 110.447 44.5991 110.371 44.7552C110.135 45.2278 109.966 45.7383 109.877 46.2615L109.928 46.5611C109.974 46.0168 110.164 45.464 110.565 45.1012C111.084 44.6328 111.835 44.5611 112.514 44.4008C112.561 44.3881 112.607 44.3755 112.637 44.3417C112.662 44.3164 112.67 44.2784 112.675 44.2447C112.713 44.0421 112.713 43.8312 112.666 43.6371Z" fill="#102D42"/>
<path d="M115.337 47.3292C115.253 47.1266 115.046 46.9832 114.784 46.979C114.485 46.9705 114.253 47.2237 114.063 47.4515L113.696 48.8397C113.687 48.8777 114.054 48.865 114.097 48.8566C114.244 48.8228 114.396 48.7469 114.523 48.6709C114.793 48.5148 115.025 48.2954 115.194 48.038C115.333 47.8313 115.438 47.5697 115.337 47.3292Z" fill="url(#paint4_linear_5476_87714)"/>
<path d="M111.999 43.4222C112.004 43.4813 112.008 43.5361 112.004 43.5952C112.004 43.6163 112.004 43.6332 111.999 43.6543C111.987 43.8737 111.928 44.0931 111.835 44.2914C111.805 44.3547 111.771 44.418 111.733 44.4812C111.725 44.4939 111.717 44.5108 111.704 44.5234C111.501 44.8357 111.21 45.0888 110.898 45.2829C110.733 45.3842 110.561 45.4728 110.375 45.515C110.337 45.5234 110.295 45.5276 110.257 45.5318C110.252 45.5318 110.248 45.5318 110.244 45.5318C110.202 45.5361 110.16 45.5361 110.117 45.5318C110.02 45.5276 109.923 45.5023 109.831 45.4601C109.89 45.2787 109.953 45.1015 110.033 44.9327C110.4 44.1184 111.008 43.5488 111.75 43.283C111.831 43.2956 111.911 43.3125 111.987 43.3378C111.991 43.3673 111.995 43.3969 111.999 43.4222Z" fill="#102D42"/>
<path d="M112.291 52.7001C112.274 52.7212 112.253 52.7423 112.232 52.7634C111.886 53.1262 111.367 53.4047 111 53.6621C110.527 53.9912 110.232 54.3245 109.966 54.8266C109.911 54.9279 109.86 55.0291 109.814 55.1304C109.78 55.2021 109.747 55.2781 109.713 55.3498C109.536 55.7422 109.384 56.1557 109.24 56.5734C108.979 57.3371 108.751 58.1219 108.472 58.835C108.139 59.6999 107.759 60.5311 107.295 61.337C106.844 62.1302 106.363 62.9024 105.856 63.6618C105.603 64.0416 105.342 64.4171 105.076 64.7842C104.983 64.9108 104.726 65.2863 104.565 65.5057C104.531 65.5521 104.502 65.5943 104.477 65.6196L104.472 65.628C104.485 65.7968 104.472 66.012 104.418 66.3791C104.388 66.5774 104.358 66.7715 104.308 66.9656C104.228 67.2694 104.034 67.5225 103.903 67.8052C103.873 67.8643 103.848 67.9233 103.806 67.9782C103.616 68.2187 103.392 67.9529 103.401 67.7335C103.401 67.7124 103.405 67.6913 103.409 67.6744C103.43 67.5563 103.494 67.4466 103.548 67.3411C103.578 67.2778 103.607 67.2145 103.624 67.147C103.637 67.0879 103.662 67.012 103.612 66.9656C103.565 66.9234 103.472 66.9107 103.413 66.9191C103.342 66.9276 103.278 66.9656 103.223 67.012C103.181 67.0457 103.143 67.0837 103.11 67.1259C103.017 67.2272 102.932 67.3369 102.844 67.4381C102.717 67.5816 102.62 67.7335 102.574 67.9191C102.527 68.109 102.523 68.3031 102.506 68.4972C102.489 68.7039 102.481 68.9866 102.295 69.1216C102.211 69.1849 102.088 69.1258 102.059 69.0372C102.042 68.9866 102.042 68.9318 102.046 68.8769C102.063 68.5351 102.072 68.1934 102.135 67.8558C102.198 67.5394 102.346 67.2398 102.489 66.9487C102.7 66.5225 103.641 65.0627 103.641 65.0627C103.65 65.05 104.046 64.1302 104.312 63.5521C104.515 63.1176 104.683 62.7842 104.873 62.3454C105.245 61.4847 105.73 60.3961 106.046 59.5143C106.072 59.4425 106.097 59.3708 106.118 59.2991C106.143 59.2189 106.169 59.1345 106.194 59.0544C106.392 58.3793 106.481 57.7633 106.645 57.0249C106.818 56.2443 107.004 55.468 107.181 54.6916C107.46 53.4511 107.966 52.717 108.396 52.4554C108.987 52.0925 109.582 51.8014 110.206 51.582C110.257 51.5651 110.312 51.544 110.363 51.5271C110.599 51.4512 110.839 51.3795 111.084 51.3246C111.126 51.3162 111.173 51.3035 111.215 51.2951C111.498 51.236 111.784 51.1854 112.08 51.1516C112.189 51.1389 112.291 51.198 112.379 51.2866C112.481 51.3921 112.557 51.5398 112.586 51.6664C112.679 52.0883 112.535 52.4216 112.291 52.7001Z" fill="url(#paint5_linear_5476_87714)"/>
<path d="M115.789 51.7213C115.852 52.3711 115.852 53.0335 115.924 53.6791C116.025 54.6368 116.236 55.5777 116.379 56.5313C116.459 57.0714 116.506 57.6283 116.497 58.1811C116.493 58.6072 116.459 59.0291 116.392 59.4426C114.493 60.3709 112.278 60.6325 110.211 60.1768C110 60.1304 109.789 60.0755 109.582 59.9996C109.27 59.8857 108.995 59.7211 108.675 59.6198C108.662 58.7085 108.649 57.7929 108.704 56.8857C108.734 56.3499 108.789 55.8182 108.873 55.2908C109.101 53.9111 109.54 52.9027 109.738 51.5188C109.865 51.4935 110.067 51.3964 110.198 51.3711C110.438 51.3247 110.683 51.253 110.941 51.2319C110.932 51.6074 110.995 51.9871 111.177 52.3162C111.379 52.6833 111.734 52.9744 112.151 53.0335C112.346 53.063 112.544 53.0377 112.734 53.004C113.088 52.9365 113.443 52.8141 113.713 52.5736C113.962 52.35 114.118 52.0462 114.24 51.734C114.32 51.5272 114.358 51.4217 114.413 51.2065C114.552 51.2445 115.025 51.4048 115.101 51.447C115.151 51.4766 115.738 51.696 115.789 51.7213Z" fill="#D4F5FF"/>
<path d="M116.497 58.1852C116.493 58.6114 116.459 59.0333 116.392 59.4468C114.493 60.375 112.278 60.6366 110.211 60.1809C110 60.1345 109.789 60.0797 109.582 60.0037C109.27 59.8898 108.995 59.7253 108.675 59.624C108.662 58.7126 108.649 57.797 108.704 56.8899C108.869 57.122 109.063 57.3245 109.312 57.4595C109.692 57.6705 110.147 57.6916 110.582 57.662C111.016 57.6325 111.447 57.5523 111.881 57.5776C112.67 57.6241 113.392 58.008 114.164 58.1852C114.51 58.2654 114.864 58.3034 115.215 58.3076C115.645 58.316 116.075 58.2738 116.497 58.1852Z" fill="#D4F5FF"/>
<path d="M106.696 59.5483C106.536 59.4133 106.333 59.3289 106.122 59.3036C106.147 59.2234 106.173 59.139 106.198 59.0588C106.274 59.0884 106.341 59.1306 106.417 59.1812C106.552 59.274 106.641 59.3922 106.696 59.5483Z" fill="#FCB9B4"/>
<path d="M112.557 59.8016C112.527 59.8016 112.502 59.7763 112.502 59.7468C112.502 59.7173 112.527 59.6919 112.557 59.6919C112.654 59.6919 112.751 59.6919 112.848 59.6877C112.877 59.6835 112.903 59.7088 112.903 59.7426C112.903 59.7721 112.882 59.7974 112.848 59.7974C112.751 59.8016 112.654 59.8016 112.557 59.8016ZM112.266 59.7974C112.169 59.7932 112.067 59.789 111.97 59.7848C111.941 59.7848 111.915 59.7594 111.92 59.7257C111.92 59.6962 111.945 59.6708 111.979 59.6751C112.076 59.6793 112.173 59.6835 112.27 59.6877C112.299 59.6877 112.325 59.713 112.325 59.7426C112.32 59.7763 112.295 59.7974 112.266 59.7974ZM113.139 59.7848C113.109 59.7848 113.088 59.7637 113.084 59.7341C113.084 59.7046 113.105 59.6793 113.135 59.6751C113.232 59.6708 113.329 59.6624 113.422 59.654C113.451 59.6497 113.476 59.6751 113.481 59.7046C113.485 59.7341 113.46 59.7594 113.43 59.7637C113.337 59.7721 113.24 59.7805 113.139 59.7848ZM111.683 59.7637H111.679C111.582 59.7552 111.485 59.7468 111.388 59.7341C111.358 59.7299 111.337 59.7046 111.342 59.6751C111.346 59.6455 111.371 59.6244 111.401 59.6287C111.498 59.6413 111.595 59.6497 111.688 59.6582C111.717 59.6624 111.738 59.6877 111.738 59.7173C111.738 59.7426 111.713 59.7637 111.683 59.7637ZM113.717 59.7341C113.692 59.7341 113.666 59.713 113.662 59.6877C113.658 59.6582 113.679 59.6329 113.709 59.6287C113.806 59.616 113.898 59.6033 113.995 59.5907C114.025 59.5865 114.055 59.6076 114.059 59.6371C114.063 59.6666 114.042 59.6962 114.012 59.7004C113.915 59.713 113.818 59.7257 113.721 59.7384C113.721 59.7341 113.721 59.7341 113.717 59.7341ZM111.105 59.7004C111.101 59.7004 111.101 59.7004 111.097 59.7004C111 59.6877 110.903 59.6708 110.806 59.654C110.776 59.6497 110.755 59.6202 110.759 59.5907C110.763 59.5611 110.793 59.54 110.823 59.5443C110.915 59.5611 111.012 59.5738 111.109 59.5907C111.139 59.5949 111.16 59.6244 111.156 59.654C111.156 59.6793 111.131 59.7004 111.105 59.7004ZM114.295 59.654C114.27 59.654 114.244 59.6371 114.24 59.6076C114.236 59.578 114.257 59.5485 114.287 59.5443C114.379 59.5274 114.476 59.5105 114.569 59.4894C114.599 59.4852 114.628 59.5021 114.633 59.5316C114.637 59.5611 114.62 59.5907 114.59 59.5949C114.493 59.616 114.396 59.6329 114.303 59.6497C114.303 59.654 114.299 59.654 114.295 59.654ZM110.531 59.6033C110.527 59.6033 110.523 59.6033 110.519 59.6033C110.422 59.5822 110.329 59.5654 110.232 59.54C110.202 59.5316 110.185 59.5021 110.19 59.4768C110.198 59.4472 110.223 59.4303 110.253 59.4346C110.346 59.4557 110.443 59.4768 110.536 59.4936C110.565 59.4979 110.586 59.5274 110.578 59.5569C110.582 59.5822 110.557 59.6033 110.531 59.6033ZM114.865 59.54C114.839 59.54 114.818 59.5232 114.81 59.4979C114.801 59.4683 114.822 59.4388 114.852 59.4346C114.945 59.4135 115.038 59.3882 115.135 59.3671C115.164 59.3586 115.194 59.3755 115.202 59.405C115.211 59.4346 115.194 59.4641 115.164 59.4725C115.071 59.4979 114.974 59.5189 114.882 59.5443C114.873 59.54 114.869 59.54 114.865 59.54ZM109.966 59.4725C109.962 59.4725 109.958 59.4725 109.953 59.4725C109.861 59.4472 109.764 59.4219 109.671 59.3924C109.641 59.3839 109.624 59.3544 109.633 59.3249C109.641 59.2953 109.671 59.2784 109.7 59.2869C109.793 59.3122 109.886 59.3417 109.979 59.3628C110.008 59.3713 110.025 59.4008 110.017 59.4303C110.012 59.4557 109.987 59.4725 109.966 59.4725ZM115.43 59.3924C115.405 59.3924 115.384 59.3755 115.379 59.3544C115.371 59.3249 115.388 59.2953 115.417 59.2869C115.51 59.2616 115.603 59.232 115.696 59.2025C115.725 59.1941 115.755 59.2109 115.763 59.2363C115.772 59.2658 115.755 59.2953 115.73 59.3038C115.637 59.3333 115.544 59.3628 115.451 59.3882C115.438 59.3882 115.434 59.3924 115.43 59.3924ZM109.405 59.308C109.401 59.308 109.392 59.308 109.388 59.3038C109.295 59.2742 109.202 59.2405 109.11 59.2109C109.08 59.2025 109.067 59.1687 109.076 59.1434C109.084 59.1139 109.118 59.1012 109.143 59.1097C109.236 59.1434 109.325 59.173 109.418 59.2025C109.447 59.2109 109.46 59.2405 109.451 59.27C109.451 59.2911 109.43 59.308 109.405 59.308ZM115.983 59.2109C115.962 59.2109 115.941 59.1983 115.932 59.173C115.924 59.1434 115.936 59.1139 115.966 59.1055C116.054 59.0717 116.147 59.0379 116.236 59.0042C116.265 58.9915 116.295 59.0084 116.308 59.0337C116.32 59.0633 116.303 59.0928 116.278 59.1055C116.185 59.1392 116.097 59.1772 116.004 59.2067C115.995 59.2109 115.991 59.2109 115.983 59.2109ZM108.856 59.1097C108.848 59.1097 108.844 59.1097 108.835 59.1055C108.747 59.0717 108.654 59.0337 108.565 58.9958C108.536 58.9831 108.523 58.9536 108.536 58.924C108.548 58.8945 108.578 58.8818 108.607 58.8945C108.696 58.9325 108.789 58.9704 108.877 59.0042C108.907 59.0169 108.92 59.0464 108.907 59.0759C108.899 59.097 108.877 59.1097 108.856 59.1097ZM116.523 59C116.502 59 116.481 58.9873 116.472 58.9662C116.46 58.9367 116.472 58.9071 116.502 58.8945C116.59 58.8565 116.679 58.8185 116.768 58.7764C116.793 58.7637 116.827 58.7764 116.839 58.8017C116.852 58.827 116.839 58.8607 116.814 58.8734C116.725 58.9156 116.637 58.9536 116.548 58.9915C116.54 59 116.531 59 116.523 59ZM108.316 58.8861C108.308 58.8861 108.299 58.8861 108.295 58.8818C108.207 58.8396 108.118 58.7974 108.029 58.7553C108.004 58.7426 107.991 58.7088 108.004 58.6835C108.017 58.6582 108.05 58.6456 108.076 58.6582C108.164 58.7004 108.249 58.7426 108.337 58.7806C108.363 58.7932 108.375 58.827 108.363 58.8523C108.358 58.8734 108.337 58.8861 108.316 58.8861ZM117.054 58.7595C117.033 58.7595 117.016 58.7468 117.004 58.7299C116.991 58.7046 117 58.6709 117.029 58.6582C117.114 58.616 117.202 58.5696 117.287 58.5274C117.312 58.5148 117.346 58.5232 117.358 58.5485C117.371 58.5738 117.362 58.6076 117.337 58.6202C117.253 58.6666 117.164 58.7088 117.076 58.751C117.067 58.7553 117.059 58.7595 117.054 58.7595ZM107.793 58.6245C107.785 58.6245 107.776 58.6245 107.768 58.6202C107.683 58.5738 107.595 58.5274 107.51 58.481C107.485 58.4641 107.477 58.4346 107.489 58.4051C107.506 58.3797 107.536 58.3713 107.565 58.384C107.65 58.4304 107.734 58.4768 107.818 58.5232C107.844 58.5359 107.856 58.5696 107.84 58.5949C107.831 58.616 107.814 58.6245 107.793 58.6245ZM117.565 58.4852C117.548 58.4852 117.527 58.4768 117.519 58.4557C117.502 58.4304 117.514 58.3966 117.54 58.3797C117.624 58.3333 117.708 58.2827 117.789 58.2321C117.814 58.2152 117.848 58.2236 117.865 58.2489C117.881 58.2743 117.873 58.308 117.848 58.3249C117.763 58.3755 117.679 58.4261 117.595 58.4726C117.586 58.4852 117.573 58.4852 117.565 58.4852ZM107.287 58.3375C107.278 58.3375 107.266 58.3333 107.257 58.3291C107.173 58.2785 107.093 58.2278 107.008 58.173C106.983 58.1561 106.975 58.1224 106.991 58.097C107.008 58.0717 107.042 58.0633 107.067 58.0802C107.148 58.1308 107.232 58.1856 107.312 58.2321C107.337 58.2489 107.346 58.2827 107.329 58.308C107.325 58.3291 107.304 58.3375 107.287 58.3375ZM118.063 58.1856C118.046 58.1856 118.029 58.1772 118.016 58.1603C118 58.135 118.008 58.1013 118.033 58.0844C118.114 58.0338 118.194 57.9789 118.274 57.9241C118.299 57.9072 118.333 57.9114 118.35 57.9367C118.367 57.962 118.362 57.9958 118.337 58.0127C118.257 58.0675 118.173 58.1224 118.092 58.173C118.084 58.1814 118.076 58.1856 118.063 58.1856ZM106.797 58.0253C106.785 58.0253 106.776 58.0211 106.768 58.0169C106.688 57.962 106.607 57.9072 106.527 57.8481C106.502 57.8312 106.498 57.7975 106.515 57.7722C106.532 57.7468 106.565 57.7426 106.591 57.7595C106.671 57.8144 106.747 57.8734 106.827 57.9283C106.852 57.9451 106.856 57.9789 106.84 58.0042C106.831 58.0169 106.814 58.0253 106.797 58.0253ZM118.544 57.8565C118.527 57.8565 118.51 57.8481 118.502 57.8354C118.485 57.8101 118.489 57.7764 118.514 57.7595C118.59 57.7046 118.67 57.6456 118.746 57.5865C118.772 57.5696 118.805 57.5739 118.822 57.5949C118.839 57.6203 118.835 57.654 118.814 57.6709C118.738 57.73 118.658 57.789 118.582 57.8481C118.565 57.8523 118.552 57.8565 118.544 57.8565ZM106.325 57.6793C106.312 57.6793 106.299 57.6751 106.291 57.6667C106.215 57.6076 106.135 57.5443 106.063 57.4852C106.038 57.4641 106.038 57.4304 106.055 57.4093C106.076 57.384 106.11 57.384 106.131 57.4009C106.207 57.4599 106.283 57.5232 106.359 57.5823C106.384 57.5992 106.388 57.6329 106.367 57.6582C106.359 57.6751 106.342 57.6793 106.325 57.6793ZM119.004 57.5021C118.987 57.5021 118.974 57.4937 118.962 57.481C118.94 57.4557 118.945 57.422 118.97 57.4051C119.046 57.346 119.118 57.2827 119.189 57.2194C119.211 57.1983 119.249 57.2026 119.265 57.2236C119.286 57.2447 119.282 57.2827 119.261 57.2996C119.189 57.3629 119.113 57.4262 119.038 57.4895C119.029 57.4979 119.016 57.5021 119.004 57.5021ZM105.873 57.3123C105.861 57.3123 105.848 57.308 105.84 57.2996C105.768 57.2363 105.692 57.1688 105.62 57.1055C105.599 57.0844 105.595 57.0507 105.616 57.0296C105.637 57.0085 105.671 57.0042 105.692 57.0253C105.764 57.0886 105.835 57.1561 105.907 57.2194C105.928 57.2405 105.932 57.2743 105.911 57.2954C105.907 57.3038 105.89 57.3123 105.873 57.3123ZM119.443 57.1224C119.43 57.1224 119.413 57.1182 119.4 57.1055C119.379 57.0844 119.384 57.0507 119.405 57.0296C119.476 56.9663 119.548 56.8988 119.616 56.8313C119.637 56.8102 119.67 56.8102 119.692 56.8313C119.713 56.8523 119.713 56.8861 119.692 56.9072C119.62 56.9747 119.548 57.0422 119.481 57.1097C119.468 57.1182 119.455 57.1224 119.443 57.1224ZM105.447 56.9199C105.435 56.9199 105.422 56.9156 105.409 56.903C105.342 56.8355 105.27 56.768 105.202 56.6962C105.181 56.6751 105.181 56.6414 105.202 56.6203C105.224 56.5992 105.257 56.5992 105.278 56.6203C105.346 56.6878 105.413 56.7595 105.485 56.827C105.506 56.8481 105.506 56.8819 105.485 56.903C105.472 56.9114 105.46 56.9199 105.447 56.9199ZM119.86 56.7173C119.848 56.7173 119.835 56.7131 119.822 56.7005C119.801 56.6794 119.801 56.6456 119.822 56.6245C119.89 56.557 119.957 56.4853 120.021 56.4135C120.042 56.3924 120.075 56.3882 120.097 56.4093C120.118 56.4304 120.122 56.4642 120.101 56.4853C120.033 56.557 119.966 56.6287 119.898 56.6962C119.89 56.7089 119.877 56.7173 119.86 56.7173ZM105.038 56.5021C105.025 56.5021 105.008 56.4979 105 56.4853C104.937 56.4135 104.869 56.3418 104.806 56.2659C104.785 56.2448 104.789 56.2068 104.81 56.1899C104.831 56.1688 104.869 56.173 104.886 56.1941C104.949 56.2659 105.013 56.3418 105.08 56.4093C105.101 56.4304 105.097 56.4642 105.076 56.4853C105.067 56.4937 105.055 56.5021 105.038 56.5021ZM120.257 56.287C120.244 56.287 120.232 56.2827 120.223 56.2743C120.202 56.2532 120.198 56.2195 120.219 56.1984C120.282 56.1266 120.346 56.0507 120.405 55.979C120.426 55.9536 120.459 55.9536 120.481 55.9705C120.506 55.9916 120.506 56.0254 120.489 56.0465C120.426 56.1224 120.362 56.1984 120.299 56.2701C120.286 56.2785 120.27 56.287 120.257 56.287ZM104.658 56.0591C104.641 56.0591 104.629 56.0507 104.616 56.038C104.553 55.9621 104.494 55.8861 104.435 55.8102C104.418 55.7849 104.422 55.7511 104.443 55.7342C104.468 55.7174 104.502 55.7216 104.519 55.7427C104.578 55.8186 104.637 55.8946 104.7 55.9705C104.721 55.9958 104.717 56.0296 104.692 56.0465C104.683 56.0549 104.671 56.0591 104.658 56.0591ZM120.624 55.8355C120.611 55.8355 120.599 55.8313 120.59 55.8228C120.565 55.806 120.561 55.7722 120.582 55.7469C120.641 55.6709 120.7 55.595 120.755 55.5148C120.772 55.4895 120.805 55.4853 120.831 55.5022C120.856 55.519 120.86 55.5528 120.843 55.5781C120.784 55.6583 120.725 55.7342 120.666 55.8144C120.658 55.8271 120.641 55.8355 120.624 55.8355ZM104.304 55.5992C104.287 55.5992 104.27 55.5908 104.262 55.5781C104.207 55.5022 104.148 55.422 104.093 55.3376C104.076 55.3123 104.08 55.2785 104.105 55.2617C104.131 55.2448 104.164 55.249 104.181 55.2743C104.236 55.3545 104.291 55.4347 104.35 55.5106C104.367 55.5359 104.363 55.5697 104.337 55.5866C104.325 55.595 104.312 55.5992 104.304 55.5992ZM120.966 55.3629C120.953 55.3629 120.945 55.3587 120.936 55.3545C120.911 55.3376 120.907 55.3039 120.924 55.2785C120.978 55.1984 121.033 55.1182 121.084 55.038C121.101 55.0127 121.135 55.0043 121.16 55.0212C121.185 55.038 121.194 55.0718 121.177 55.0971C121.126 55.1773 121.071 55.2617 121.016 55.3418C121.004 55.3545 120.987 55.3629 120.966 55.3629ZM103.975 55.1224C103.958 55.1224 103.941 55.114 103.928 55.0971C103.878 55.017 103.823 54.9326 103.772 54.8482C103.755 54.8229 103.764 54.7891 103.789 54.7722C103.814 54.7554 103.848 54.7638 103.865 54.7891C103.916 54.8693 103.966 54.9537 104.017 55.0338C104.034 55.0591 104.025 55.0929 104 55.1098C103.996 55.1182 103.983 55.1224 103.975 55.1224ZM121.282 54.8735C121.274 54.8735 121.261 54.8693 121.253 54.8651C121.227 54.8482 121.219 54.8144 121.236 54.7891C121.286 54.7047 121.333 54.6246 121.383 54.5402C121.4 54.5149 121.43 54.5064 121.459 54.5191C121.485 54.536 121.493 54.5655 121.481 54.595C121.434 54.6794 121.383 54.7638 121.333 54.8482C121.32 54.8651 121.303 54.8735 121.282 54.8735ZM103.675 54.6246C103.658 54.6246 103.637 54.6161 103.629 54.595C103.582 54.5106 103.532 54.4262 103.489 54.3376C103.477 54.3123 103.485 54.2786 103.511 54.2659C103.536 54.2533 103.57 54.2617 103.582 54.287C103.629 54.3714 103.675 54.4558 103.721 54.5402C103.738 54.5655 103.726 54.5992 103.7 54.6161C103.692 54.6203 103.683 54.6246 103.675 54.6246ZM121.569 54.3672C121.561 54.3672 121.552 54.3672 121.544 54.363C121.518 54.3503 121.506 54.3165 121.523 54.2912C121.569 54.2068 121.611 54.1182 121.654 54.0339C121.666 54.0085 121.7 53.9959 121.725 54.0085C121.751 54.0212 121.763 54.055 121.751 54.0803C121.708 54.1689 121.662 54.2533 121.616 54.3419C121.607 54.3587 121.59 54.3672 121.569 54.3672ZM103.401 54.1098C103.38 54.1098 103.363 54.0971 103.35 54.0803C103.308 53.9959 103.266 53.9031 103.224 53.8187C103.211 53.7934 103.224 53.7596 103.249 53.7469C103.274 53.7343 103.308 53.7469 103.321 53.7723C103.363 53.8609 103.401 53.9495 103.443 54.0339C103.456 54.0592 103.447 54.0929 103.418 54.1056C103.418 54.1098 103.409 54.1098 103.401 54.1098ZM121.831 53.844C121.822 53.844 121.814 53.844 121.81 53.8398C121.784 53.8271 121.772 53.7934 121.784 53.768C121.826 53.6794 121.864 53.5908 121.902 53.5022C121.915 53.4727 121.945 53.46 121.974 53.4727C122.004 53.4853 122.016 53.5149 122.004 53.5444C121.966 53.633 121.928 53.7258 121.886 53.8145C121.869 53.8313 121.848 53.844 121.831 53.844ZM103.16 53.5824C103.139 53.5824 103.118 53.5697 103.11 53.5486C103.072 53.46 103.034 53.3672 103 53.2786C102.987 53.2491 103.004 53.2195 103.03 53.2069C103.059 53.1942 103.089 53.2111 103.101 53.2364C103.135 53.325 103.173 53.4136 103.211 53.5022C103.224 53.5318 103.211 53.5613 103.181 53.5739C103.173 53.5824 103.169 53.5824 103.16 53.5824ZM122.054 53.3081C122.046 53.3081 122.042 53.3081 122.033 53.3039C122.004 53.2913 121.991 53.2617 122.004 53.2322C122.037 53.1436 122.071 53.0508 122.105 52.9579C122.113 52.9284 122.147 52.9157 122.172 52.9242C122.202 52.9326 122.215 52.9664 122.206 52.9917C122.172 53.0845 122.139 53.1773 122.105 53.2659C122.101 53.2913 122.08 53.3081 122.054 53.3081ZM102.949 53.0423C102.928 53.0423 102.907 53.0297 102.899 53.0043C102.865 52.9115 102.835 52.8187 102.806 52.7259C102.797 52.6963 102.814 52.6668 102.84 52.6584C102.869 52.6499 102.899 52.6668 102.907 52.6921C102.937 52.7849 102.966 52.8735 103 52.9664C103.008 52.9959 102.996 53.0254 102.966 53.0339C102.962 53.0381 102.954 53.0423 102.949 53.0423ZM122.253 52.7554C122.248 52.7554 122.24 52.7554 122.236 52.7512C122.206 52.7427 122.194 52.7132 122.202 52.6837C122.232 52.5909 122.261 52.498 122.286 52.4052C122.295 52.3757 122.324 52.3588 122.354 52.3672C122.383 52.3757 122.4 52.4052 122.392 52.4347C122.362 52.5276 122.337 52.6204 122.307 52.7132C122.295 52.7427 122.274 52.7554 122.253 52.7554ZM102.768 52.4854C102.743 52.4854 102.721 52.4685 102.717 52.4474C102.688 52.3546 102.662 52.2575 102.637 52.1647C102.629 52.1352 102.646 52.1056 102.675 52.0972C102.705 52.0888 102.734 52.1056 102.743 52.1352C102.768 52.228 102.793 52.3208 102.819 52.4136C102.827 52.4432 102.81 52.4727 102.781 52.4812C102.781 52.4854 102.772 52.4854 102.768 52.4854ZM122.417 52.1985C122.413 52.1985 122.409 52.1985 122.405 52.1985C122.375 52.19 122.358 52.1605 122.367 52.1309C122.392 52.0381 122.413 51.9453 122.434 51.8483C122.443 51.8187 122.472 51.8018 122.497 51.8061C122.527 51.8145 122.544 51.844 122.54 51.8694C122.518 51.9622 122.493 52.0592 122.468 52.152C122.464 52.1816 122.443 52.1985 122.417 52.1985ZM102.62 51.9242C102.595 51.9242 102.574 51.9073 102.565 51.882C102.544 51.7892 102.523 51.6921 102.502 51.5951C102.498 51.5656 102.515 51.536 102.544 51.5318C102.574 51.5276 102.603 51.5445 102.608 51.574C102.629 51.6668 102.646 51.7639 102.671 51.8567C102.679 51.8862 102.658 51.9158 102.629 51.92C102.629 51.9242 102.624 51.9242 102.62 51.9242ZM122.548 51.6289C122.544 51.6289 122.54 51.6289 122.535 51.6289C122.506 51.6246 122.485 51.5951 122.493 51.5656C122.51 51.4727 122.531 51.3757 122.548 51.2829C122.552 51.2533 122.582 51.2322 122.611 51.2365C122.641 51.2407 122.662 51.2702 122.658 51.2997C122.641 51.3968 122.624 51.4938 122.603 51.5867C122.594 51.612 122.573 51.6289 122.548 51.6289ZM102.506 51.3546C102.481 51.3546 102.456 51.3377 102.451 51.3082C102.435 51.2111 102.418 51.1141 102.405 51.0171C102.401 50.9875 102.422 50.958 102.451 50.9538C102.481 50.9495 102.511 50.9706 102.515 51.0002C102.527 51.093 102.544 51.19 102.561 51.2871C102.565 51.3166 102.544 51.3462 102.515 51.3504C102.511 51.3546 102.506 51.3546 102.506 51.3546ZM122.645 51.055C122.641 51.055 122.641 51.055 122.637 51.055C122.607 51.0508 122.586 51.0213 122.59 50.9917C122.603 50.8947 122.616 50.7976 122.628 50.7048C122.632 50.6753 122.658 50.6542 122.687 50.6584C122.717 50.6626 122.738 50.6879 122.734 50.7175C122.721 50.8145 122.708 50.9116 122.696 51.0086C122.696 51.0381 122.675 51.055 122.645 51.055ZM102.422 50.7766C102.397 50.7766 102.371 50.7555 102.367 50.7301C102.354 50.6331 102.346 50.5361 102.338 50.439C102.333 50.4095 102.359 50.3842 102.388 50.3799C102.418 50.3757 102.443 50.401 102.447 50.4306C102.456 50.5276 102.464 50.6247 102.477 50.7175C102.481 50.747 102.46 50.7723 102.43 50.7766C102.426 50.7766 102.426 50.7766 102.422 50.7766ZM122.713 50.477H122.708C122.679 50.4728 122.658 50.4474 122.658 50.4179C122.666 50.3209 122.675 50.2238 122.679 50.131C122.679 50.1015 122.708 50.0804 122.738 50.0804C122.767 50.0804 122.793 50.1057 122.788 50.1394C122.784 50.2365 122.776 50.3335 122.767 50.4306C122.763 50.4559 122.738 50.477 122.713 50.477ZM102.371 50.1985C102.342 50.1985 102.321 50.1774 102.316 50.1479C102.312 50.0508 102.308 49.9538 102.304 49.8567C102.304 49.8272 102.325 49.8019 102.359 49.8019C102.388 49.8019 102.413 49.8272 102.413 49.8567C102.418 49.9538 102.422 50.0508 102.426 50.1479C102.43 50.169 102.405 50.1943 102.371 50.1985C102.376 50.1985 102.371 50.1985 102.371 50.1985ZM122.746 49.8947C122.742 49.8947 122.742 49.8947 122.746 49.8947C122.717 49.8947 122.691 49.8694 122.691 49.8399C122.696 49.7428 122.696 49.6458 122.696 49.5487V49.5276C122.696 49.4981 122.721 49.4728 122.751 49.4728C122.78 49.4728 122.805 49.4981 122.805 49.5276V49.5487C122.805 49.6458 122.805 49.7428 122.801 49.8399C122.797 49.8736 122.776 49.8947 122.746 49.8947ZM102.354 49.6162C102.325 49.6162 102.3 49.5909 102.3 49.5614V49.553C102.3 49.4601 102.3 49.3631 102.304 49.2703C102.304 49.2407 102.329 49.2154 102.359 49.2154C102.388 49.2154 102.413 49.2407 102.413 49.2703C102.409 49.3631 102.409 49.4559 102.409 49.5487V49.5572C102.409 49.5909 102.384 49.6162 102.354 49.6162ZM122.742 49.2956C122.713 49.2956 122.687 49.2703 122.687 49.2407C122.683 49.1437 122.679 49.0466 122.675 48.9496C122.675 48.9201 122.696 48.8947 122.725 48.8905C122.755 48.8863 122.78 48.9116 122.784 48.9412C122.788 49.0382 122.793 49.1352 122.797 49.2323C122.801 49.2703 122.776 49.2956 122.742 49.2956C122.746 49.2956 122.746 49.2956 122.742 49.2956ZM102.371 49.034C102.338 49.034 102.316 49.0044 102.316 48.9749C102.321 48.8779 102.329 48.7808 102.338 48.6838C102.342 48.6542 102.367 48.6331 102.397 48.6331C102.426 48.6374 102.447 48.6627 102.447 48.6922C102.439 48.7893 102.435 48.8863 102.426 48.9791C102.422 49.0087 102.401 49.034 102.371 49.034ZM122.708 48.7133C122.679 48.7133 122.658 48.6922 122.653 48.6627C122.645 48.5656 122.637 48.4686 122.624 48.3758C122.62 48.3462 122.641 48.3209 122.67 48.3167C122.7 48.3125 122.725 48.3336 122.729 48.3631C122.742 48.4602 122.751 48.5572 122.759 48.6542C122.763 48.6838 122.738 48.7091 122.708 48.7133C122.713 48.7133 122.713 48.7133 122.708 48.7133ZM102.422 48.4517H102.418C102.388 48.4475 102.367 48.4222 102.371 48.3926C102.384 48.2956 102.397 48.1986 102.409 48.1015C102.413 48.072 102.443 48.0509 102.473 48.0551C102.502 48.0593 102.523 48.0889 102.519 48.1184C102.506 48.2154 102.494 48.3083 102.481 48.4053C102.473 48.4306 102.447 48.4517 102.422 48.4517ZM122.645 48.1353C122.62 48.1353 122.594 48.1142 122.59 48.0889C122.578 47.9918 122.561 47.899 122.544 47.8019C122.54 47.7724 122.556 47.7429 122.586 47.7387C122.616 47.7344 122.645 47.7513 122.649 47.7808C122.666 47.8779 122.683 47.9749 122.696 48.072C122.7 48.1015 122.679 48.131 122.649 48.1353H122.645ZM102.502 47.8779C102.498 47.8779 102.498 47.8779 102.494 47.8779C102.464 47.8737 102.443 47.8441 102.447 47.8146C102.464 47.7176 102.481 47.6205 102.502 47.5277C102.506 47.4982 102.536 47.4813 102.565 47.4855C102.595 47.4897 102.616 47.5193 102.608 47.5488C102.591 47.6416 102.57 47.7387 102.553 47.8315C102.548 47.8568 102.527 47.8779 102.502 47.8779ZM122.544 47.5614C122.518 47.5614 122.497 47.5446 122.489 47.5193C122.468 47.4264 122.451 47.3294 122.426 47.2366C122.417 47.207 122.438 47.1775 122.468 47.1733C122.497 47.1648 122.527 47.1859 122.531 47.2155C122.552 47.3125 122.573 47.4053 122.594 47.5024C122.599 47.5319 122.582 47.5614 122.552 47.5657C122.552 47.5614 122.548 47.5614 122.544 47.5614ZM102.616 47.3041C102.612 47.3041 102.608 47.3041 102.603 47.3041C102.574 47.2956 102.557 47.2661 102.561 47.2408C102.582 47.148 102.608 47.0509 102.633 46.9581C102.641 46.9285 102.671 46.9117 102.7 46.9201C102.73 46.9285 102.747 46.9581 102.738 46.9876C102.713 47.0804 102.692 47.1775 102.671 47.2703C102.662 47.2872 102.641 47.3041 102.616 47.3041ZM122.413 46.9961C122.388 46.9961 122.367 46.9792 122.362 46.9539C122.337 46.861 122.312 46.7682 122.286 46.6754C122.278 46.6459 122.295 46.6163 122.324 46.6079C122.354 46.5994 122.383 46.6163 122.392 46.6459C122.417 46.7387 122.447 46.8315 122.472 46.9285C122.48 46.9581 122.464 46.9876 122.434 46.9961C122.421 46.9961 122.417 46.9961 122.413 46.9961ZM102.764 46.7429C102.759 46.7429 102.755 46.7429 102.747 46.7387C102.717 46.7302 102.7 46.7007 102.709 46.6712C102.734 46.5783 102.764 46.4855 102.793 46.3927C102.802 46.3632 102.831 46.3505 102.861 46.3589C102.89 46.3674 102.903 46.3969 102.894 46.4265C102.865 46.5193 102.835 46.6121 102.81 46.7049C102.81 46.726 102.785 46.7429 102.764 46.7429ZM122.248 46.4349C122.227 46.4349 122.206 46.4222 122.198 46.3969C122.168 46.3041 122.135 46.2155 122.105 46.1227C122.097 46.0931 122.109 46.0636 122.139 46.0509C122.168 46.0425 122.198 46.0552 122.21 46.0847C122.244 46.1775 122.274 46.2703 122.303 46.3632C122.312 46.3927 122.299 46.4222 122.27 46.4307C122.257 46.4349 122.253 46.4349 122.248 46.4349ZM102.941 46.186C102.937 46.186 102.928 46.186 102.924 46.1817C102.894 46.1733 102.882 46.1395 102.89 46.1142C102.924 46.0214 102.958 45.9286 102.992 45.84C103.004 45.8104 103.034 45.7978 103.063 45.8104C103.093 45.8231 103.105 45.8526 103.093 45.8822C103.059 45.9708 103.025 46.0636 102.992 46.1564C102.987 46.1733 102.966 46.186 102.941 46.186ZM122.05 45.8906C122.029 45.8906 122.008 45.8779 121.999 45.8568C121.966 45.7682 121.928 45.6796 121.89 45.591C121.877 45.5615 121.89 45.532 121.919 45.5193C121.949 45.5066 121.978 45.5193 121.991 45.5488C122.029 45.6374 122.067 45.7303 122.101 45.8189C122.113 45.8484 122.097 45.8779 122.071 45.8906C122.063 45.8864 122.059 45.8906 122.05 45.8906ZM103.156 45.6417C103.148 45.6417 103.143 45.6417 103.135 45.6374C103.105 45.6248 103.093 45.5952 103.105 45.5657C103.143 45.4771 103.181 45.3843 103.224 45.2957C103.236 45.2704 103.27 45.2577 103.295 45.2704C103.321 45.283 103.333 45.3168 103.321 45.3421C103.283 45.4307 103.24 45.5193 103.202 45.6079C103.194 45.629 103.177 45.6417 103.156 45.6417ZM121.822 45.3547C121.801 45.3547 121.78 45.3421 121.772 45.321C121.734 45.2324 121.691 45.148 121.649 45.0594C121.637 45.0341 121.645 45.0003 121.675 44.9877C121.7 44.975 121.734 44.9834 121.746 45.013C121.789 45.1016 121.831 45.1902 121.873 45.2746C121.886 45.2999 121.873 45.3337 121.848 45.3463C121.839 45.3547 121.831 45.3547 121.822 45.3547ZM103.397 45.11C103.388 45.11 103.38 45.11 103.371 45.1058C103.346 45.0932 103.333 45.0594 103.346 45.0341C103.388 44.9455 103.435 44.8569 103.481 44.7725C103.494 44.7472 103.527 44.7345 103.553 44.7514C103.578 44.764 103.591 44.7978 103.574 44.8231C103.527 44.9075 103.485 44.9961 103.443 45.0805C103.435 45.1016 103.418 45.11 103.397 45.11ZM121.565 44.8358C121.544 44.8358 121.527 44.8273 121.518 44.8062C121.472 44.7219 121.426 44.6375 121.379 44.5531C121.362 44.5278 121.375 44.494 121.4 44.4771C121.426 44.4603 121.459 44.4729 121.476 44.4982C121.523 44.5826 121.569 44.667 121.616 44.7556C121.628 44.7809 121.62 44.8147 121.594 44.8273C121.582 44.8316 121.573 44.8358 121.565 44.8358ZM103.667 44.5953C103.658 44.5953 103.65 44.5911 103.641 44.5868C103.616 44.57 103.608 44.5404 103.62 44.5109C103.667 44.4265 103.717 44.3421 103.768 44.2577C103.785 44.2324 103.819 44.224 103.844 44.2409C103.869 44.2577 103.878 44.2915 103.861 44.3168C103.81 44.397 103.764 44.4814 103.713 44.5657C103.705 44.5868 103.688 44.5953 103.667 44.5953ZM121.278 44.3295C121.261 44.3295 121.24 44.321 121.232 44.3041C121.181 44.224 121.13 44.1396 121.08 44.0594C121.063 44.0341 121.071 44.0004 121.097 43.9835C121.122 43.9666 121.156 43.975 121.173 44.0004C121.223 44.0805 121.278 44.1649 121.329 44.2493C121.345 44.2746 121.337 44.3084 121.312 44.3252C121.299 44.3252 121.286 44.3295 121.278 44.3295ZM103.97 44.0974C103.962 44.0974 103.949 44.0932 103.941 44.089C103.916 44.0721 103.907 44.0383 103.924 44.013C103.979 43.9328 104.029 43.8485 104.084 43.7683C104.101 43.743 104.135 43.7388 104.16 43.7556C104.186 43.7725 104.19 43.8063 104.173 43.8316C104.118 43.9117 104.063 43.9919 104.013 44.0721C104.004 44.089 103.987 44.0974 103.97 44.0974ZM120.962 43.84C120.945 43.84 120.928 43.8316 120.915 43.8147C120.86 43.7345 120.805 43.6544 120.746 43.5784C120.729 43.5531 120.734 43.5194 120.759 43.5025C120.784 43.4856 120.818 43.4898 120.835 43.5151C120.894 43.5953 120.949 43.6755 121.004 43.7556C121.021 43.7809 121.016 43.8147 120.991 43.8316C120.987 43.8358 120.974 43.84 120.962 43.84ZM104.3 43.6164C104.287 43.6164 104.278 43.6122 104.266 43.608C104.24 43.5911 104.236 43.5573 104.253 43.532C104.312 43.4518 104.371 43.3759 104.43 43.2957C104.447 43.2704 104.481 43.2662 104.506 43.2873C104.532 43.3042 104.536 43.3379 104.515 43.3632C104.456 43.4392 104.397 43.5151 104.342 43.5953C104.333 43.608 104.316 43.6164 104.3 43.6164ZM120.62 43.3717C120.603 43.3717 120.586 43.3632 120.578 43.3506C120.519 43.2746 120.459 43.1987 120.396 43.1227C120.375 43.0974 120.379 43.0637 120.405 43.0468C120.426 43.0257 120.464 43.0299 120.481 43.0552C120.544 43.1312 120.603 43.2071 120.662 43.2831C120.679 43.3084 120.675 43.3421 120.654 43.359C120.645 43.3675 120.632 43.3717 120.62 43.3717ZM104.654 43.1565C104.641 43.1565 104.629 43.1523 104.62 43.1438C104.595 43.1227 104.595 43.089 104.612 43.0679C104.671 42.9919 104.738 42.916 104.802 42.8443C104.823 42.8232 104.856 42.8189 104.878 42.84C104.899 42.8611 104.903 42.8949 104.882 42.916C104.818 42.9877 104.755 43.0637 104.696 43.1396C104.688 43.1481 104.671 43.1565 104.654 43.1565ZM120.253 42.9202C120.236 42.9202 120.223 42.9118 120.211 42.9033C120.147 42.8316 120.084 42.7599 120.016 42.6881C119.995 42.6671 120 42.6333 120.021 42.6122C120.042 42.5911 120.075 42.5953 120.097 42.6164C120.164 42.6881 120.227 42.7599 120.291 42.8358C120.312 42.8569 120.308 42.8949 120.286 42.9118C120.278 42.916 120.265 42.9202 120.253 42.9202ZM105.038 42.7135C105.025 42.7135 105.013 42.7092 105 42.7008C104.979 42.6797 104.975 42.646 104.996 42.6249C105.063 42.5531 105.131 42.4814 105.198 42.4139C105.219 42.3928 105.253 42.3928 105.274 42.4139C105.295 42.435 105.295 42.4687 105.274 42.4898C105.207 42.5574 105.139 42.6291 105.076 42.7008C105.067 42.7092 105.051 42.7135 105.038 42.7135ZM119.856 42.4941C119.843 42.4941 119.827 42.4898 119.818 42.4772C119.751 42.4097 119.683 42.3379 119.611 42.2747C119.59 42.2536 119.59 42.2198 119.611 42.1987C119.632 42.1776 119.666 42.1776 119.687 42.1987C119.755 42.2662 119.827 42.3337 119.894 42.4055C119.915 42.4266 119.915 42.4603 119.894 42.4814C119.886 42.4856 119.873 42.4941 119.856 42.4941ZM105.443 42.2958C105.43 42.2958 105.413 42.2915 105.405 42.2789C105.384 42.2578 105.384 42.224 105.405 42.2029C105.472 42.1354 105.544 42.0679 105.616 42.0004C105.637 41.9793 105.671 41.9835 105.692 42.0046C105.713 42.0257 105.709 42.0595 105.688 42.0806C105.616 42.1439 105.544 42.2114 105.477 42.2789C105.468 42.2915 105.456 42.2958 105.443 42.2958ZM119.438 42.0848C119.426 42.0848 119.413 42.0806 119.4 42.0721C119.329 42.0088 119.257 41.9413 119.185 41.878C119.164 41.8569 119.16 41.8232 119.181 41.8021C119.202 41.781 119.236 41.7768 119.257 41.7979C119.333 41.8612 119.405 41.9287 119.476 41.992C119.497 42.0131 119.502 42.0468 119.481 42.0679C119.468 42.0806 119.455 42.0848 119.438 42.0848ZM105.869 41.9034C105.852 41.9034 105.84 41.8949 105.827 41.8865C105.806 41.8654 105.81 41.8274 105.831 41.8105C105.903 41.7472 105.979 41.684 106.055 41.6207C106.08 41.5996 106.114 41.6038 106.131 41.6291C106.152 41.6544 106.148 41.6882 106.122 41.7051C106.046 41.7641 105.975 41.8274 105.903 41.8907C105.894 41.8991 105.882 41.9034 105.869 41.9034ZM119 41.7051C118.987 41.7051 118.974 41.7008 118.966 41.6924C118.89 41.6333 118.814 41.57 118.738 41.511C118.713 41.4941 118.708 41.4603 118.73 41.435C118.746 41.4097 118.78 41.4055 118.805 41.4266C118.881 41.4856 118.962 41.5489 119.033 41.608C119.059 41.6291 119.059 41.6629 119.042 41.684C119.029 41.6966 119.016 41.7051 119 41.7051ZM106.321 41.5321C106.304 41.5321 106.287 41.5236 106.278 41.511C106.261 41.4856 106.266 41.4519 106.287 41.435C106.363 41.3759 106.443 41.3169 106.519 41.2578C106.544 41.2409 106.578 41.2451 106.595 41.2705C106.612 41.2958 106.607 41.3295 106.582 41.3464C106.506 41.4013 106.426 41.4603 106.35 41.5194C106.346 41.5321 106.333 41.5321 106.321 41.5321ZM118.54 41.3506C118.527 41.3506 118.519 41.3464 118.506 41.3422C118.43 41.2873 118.35 41.2283 118.27 41.1734C118.244 41.1565 118.24 41.1228 118.257 41.0975C118.274 41.0722 118.308 41.0679 118.333 41.0848C118.413 41.1397 118.493 41.1987 118.573 41.2536C118.599 41.2705 118.603 41.3042 118.586 41.3295C118.569 41.3422 118.557 41.3506 118.54 41.3506ZM106.789 41.1903C106.772 41.1903 106.755 41.1819 106.742 41.165C106.726 41.1397 106.73 41.1059 106.755 41.089C106.835 41.0342 106.915 40.9793 107 40.9287C107.025 40.9118 107.059 40.9203 107.076 40.9456C107.093 40.9709 107.084 41.0046 107.059 41.0215C106.979 41.0722 106.899 41.127 106.818 41.1819C106.81 41.1903 106.802 41.1903 106.789 41.1903ZM118.059 41.0215C118.05 41.0215 118.038 41.0173 118.029 41.0131C117.949 40.9625 117.865 40.9076 117.784 40.8612C117.759 40.8443 117.751 40.8106 117.768 40.7852C117.784 40.7599 117.818 40.7515 117.843 40.7684C117.928 40.819 118.008 40.8696 118.092 40.9245C118.118 40.9414 118.126 40.9751 118.109 41.0004C118.092 41.0131 118.076 41.0215 118.059 41.0215ZM107.278 40.8781C107.261 40.8781 107.24 40.8696 107.232 40.8528C107.215 40.8274 107.223 40.7937 107.249 40.7768C107.333 40.7262 107.418 40.6755 107.502 40.6291C107.527 40.6123 107.561 40.6249 107.578 40.6502C107.595 40.6755 107.582 40.7093 107.557 40.7262C107.472 40.7726 107.388 40.8232 107.308 40.8738C107.299 40.8738 107.287 40.8781 107.278 40.8781ZM117.557 40.7177C117.548 40.7177 117.54 40.7135 117.531 40.7093C117.447 40.6629 117.362 40.6165 117.278 40.5701C117.253 40.5574 117.24 40.5236 117.257 40.4983C117.27 40.473 117.303 40.4604 117.329 40.4772C117.413 40.5236 117.502 40.5701 117.586 40.6165C117.611 40.6333 117.62 40.6629 117.607 40.6924C117.595 40.7093 117.578 40.7177 117.557 40.7177ZM107.785 40.5912C107.764 40.5912 107.747 40.5827 107.738 40.5616C107.726 40.5363 107.734 40.5026 107.759 40.4899C107.844 40.4435 107.932 40.4013 108.021 40.3549C108.046 40.3422 108.08 40.3507 108.093 40.3802C108.105 40.4055 108.097 40.4393 108.067 40.4519C107.983 40.4941 107.894 40.5363 107.81 40.5827C107.802 40.5869 107.793 40.5912 107.785 40.5912ZM117.042 40.4477C117.033 40.4477 117.025 40.4477 117.016 40.4435C116.928 40.4013 116.839 40.3591 116.755 40.3211C116.73 40.3085 116.717 40.2747 116.73 40.2494C116.742 40.2241 116.776 40.2114 116.801 40.2241C116.89 40.2663 116.979 40.3085 117.067 40.3507C117.092 40.3633 117.105 40.3971 117.092 40.4224C117.08 40.435 117.063 40.4477 117.042 40.4477ZM108.304 40.3338C108.283 40.3338 108.261 40.3211 108.253 40.3C108.24 40.2747 108.253 40.241 108.278 40.2283C108.367 40.1861 108.456 40.1481 108.544 40.1102C108.574 40.0975 108.603 40.1102 108.616 40.1397C108.629 40.1692 108.616 40.1988 108.586 40.2114C108.498 40.2494 108.409 40.2874 108.321 40.3296C108.321 40.3296 108.312 40.3338 108.304 40.3338ZM116.51 40.2072C116.502 40.2072 116.498 40.2072 116.489 40.203C116.4 40.165 116.308 40.127 116.219 40.0933C116.19 40.0806 116.177 40.0511 116.19 40.0215C116.202 39.992 116.232 39.9794 116.261 39.992C116.35 40.0258 116.443 40.0637 116.531 40.1017C116.561 40.1144 116.573 40.1439 116.561 40.1734C116.552 40.1945 116.531 40.2072 116.51 40.2072ZM108.839 40.1059C108.818 40.1059 108.797 40.0933 108.789 40.0722C108.776 40.0426 108.793 40.0131 108.818 40.0005C108.907 39.9667 109 39.9287 109.093 39.8992C109.122 39.8908 109.152 39.9034 109.16 39.9329C109.169 39.9625 109.156 39.992 109.126 40.0005C109.038 40.0342 108.945 40.068 108.856 40.1017C108.852 40.1059 108.848 40.1059 108.839 40.1059ZM115.966 39.9962C115.962 39.9962 115.953 39.9962 115.949 39.992C115.86 39.9583 115.768 39.9287 115.675 39.8992C115.645 39.8908 115.633 39.8612 115.641 39.8317C115.649 39.8021 115.679 39.7895 115.709 39.7979C115.801 39.8275 115.894 39.8612 115.987 39.8908C116.017 39.8992 116.029 39.9329 116.021 39.9583C116.008 39.9794 115.987 39.9962 115.966 39.9962ZM109.388 39.9076C109.367 39.9076 109.346 39.895 109.337 39.8697C109.329 39.8401 109.342 39.8106 109.371 39.8021C109.464 39.7726 109.557 39.7431 109.65 39.7135C109.679 39.7051 109.709 39.722 109.717 39.7515C109.726 39.781 109.709 39.8106 109.679 39.819C109.586 39.8443 109.493 39.8739 109.401 39.9034C109.401 39.9076 109.392 39.9076 109.388 39.9076ZM115.409 39.8148C115.405 39.8148 115.4 39.8148 115.392 39.8106C115.299 39.7853 115.206 39.7557 115.114 39.7346C115.084 39.7262 115.067 39.6967 115.076 39.6671C115.084 39.6376 115.114 39.6207 115.143 39.6292C115.236 39.6545 115.333 39.6798 115.426 39.7051C115.455 39.7135 115.472 39.7431 115.464 39.7726C115.455 39.7979 115.434 39.8148 115.409 39.8148ZM109.945 39.7431C109.92 39.7431 109.899 39.7262 109.894 39.7009C109.886 39.6713 109.903 39.6418 109.932 39.6334C110.025 39.6081 110.122 39.5827 110.215 39.5616C110.245 39.5532 110.274 39.5743 110.278 39.6038C110.287 39.6334 110.266 39.6629 110.236 39.6671C110.143 39.6882 110.046 39.7135 109.953 39.7389C109.953 39.7431 109.949 39.7431 109.945 39.7431ZM114.848 39.6671C114.844 39.6671 114.839 39.6671 114.835 39.6671C114.742 39.646 114.645 39.6249 114.552 39.6081C114.523 39.6038 114.502 39.5743 114.51 39.5448C114.519 39.5152 114.544 39.4941 114.574 39.5026C114.671 39.5237 114.763 39.5405 114.86 39.5659C114.89 39.5743 114.907 39.6038 114.903 39.6292C114.894 39.6503 114.873 39.6671 114.848 39.6671ZM110.515 39.6123C110.489 39.6123 110.468 39.5954 110.46 39.5701C110.455 39.5405 110.472 39.511 110.502 39.5068C110.595 39.4857 110.692 39.4688 110.789 39.4519C110.818 39.4477 110.848 39.4688 110.852 39.4984C110.856 39.5279 110.839 39.5574 110.806 39.5616C110.709 39.5785 110.616 39.5954 110.523 39.6165C110.519 39.6123 110.519 39.6123 110.515 39.6123ZM114.278 39.5532C114.274 39.5532 114.274 39.5532 114.27 39.5532C114.177 39.5363 114.08 39.5237 113.983 39.5068C113.953 39.5026 113.932 39.473 113.936 39.4435C113.941 39.414 113.97 39.3929 114 39.3971C114.097 39.4098 114.194 39.4266 114.291 39.4435C114.32 39.4477 114.341 39.4773 114.337 39.5068C114.325 39.5363 114.303 39.5532 114.278 39.5532ZM111.088 39.5152C111.063 39.5152 111.038 39.4941 111.034 39.4688C111.029 39.4393 111.05 39.4098 111.08 39.4055C111.177 39.3929 111.274 39.3802 111.371 39.3676C111.401 39.3633 111.426 39.3844 111.43 39.414C111.434 39.4435 111.413 39.4688 111.384 39.473C111.291 39.4857 111.194 39.4984 111.097 39.511C111.093 39.5152 111.088 39.5152 111.088 39.5152ZM113.7 39.473H113.696C113.599 39.4604 113.502 39.4519 113.409 39.4435C113.375 39.4435 113.354 39.414 113.354 39.3844C113.358 39.3549 113.384 39.3338 113.413 39.3338C113.51 39.3422 113.607 39.3507 113.704 39.3633C113.734 39.3676 113.755 39.3929 113.751 39.4224C113.751 39.4519 113.725 39.473 113.7 39.473ZM111.666 39.4477C111.637 39.4477 111.616 39.4266 111.612 39.3971C111.607 39.3676 111.633 39.3422 111.662 39.338C111.759 39.3296 111.856 39.3211 111.953 39.3169C111.983 39.3169 112.008 39.338 112.012 39.3676C112.012 39.3971 111.991 39.4224 111.962 39.4266C111.865 39.4308 111.768 39.4393 111.675 39.4477C111.666 39.4477 111.666 39.4477 111.666 39.4477ZM113.118 39.4224C113.017 39.4182 112.92 39.414 112.827 39.4098C112.797 39.4098 112.772 39.3844 112.772 39.3549C112.772 39.3254 112.797 39.3 112.827 39.3C112.924 39.3043 113.021 39.3085 113.118 39.3127C113.147 39.3127 113.173 39.338 113.168 39.3718C113.173 39.4013 113.147 39.4224 113.118 39.4224ZM112.244 39.414C112.215 39.414 112.19 39.3887 112.19 39.3591C112.19 39.3296 112.211 39.3043 112.244 39.3043C112.342 39.3 112.439 39.3 112.536 39.3C112.565 39.3 112.59 39.3254 112.59 39.3549C112.59 39.3844 112.565 39.4098 112.536 39.4098C112.443 39.4098 112.346 39.4098 112.244 39.414C112.249 39.414 112.249 39.414 112.244 39.414Z" fill="#FBB03B"/>
</g>
<mask id="mask2_5476_87714" style="mask-type:alpha" maskUnits="userSpaceOnUse" x="26" y="56" width="16" height="16">
<path d="M34 72C38.4183 72 42 68.4183 42 64C42 59.5817 38.4183 56 34 56C29.5817 56 26 59.5817 26 64C26 68.4183 29.5817 72 34 72Z" fill="#FCE3C3"/>
</mask>
<g mask="url(#mask2_5476_87714)">
<path d="M40.0304 67.7725C40.0304 66.6432 39.1164 65.7292 37.9871 65.7292C37.8425 65.7292 37.7013 65.7434 37.5637 65.7751C37.3978 64.9494 37.5425 63.9472 37.5813 63.3367C37.6766 61.9251 37.6307 60.0901 36.3956 59.0773C35.6793 58.4915 34.5782 58.3292 33.6925 58.6503C32.6832 59.0138 32.0763 59.9454 31.7869 60.877C31.6034 61.4734 31.5399 62.091 31.3811 62.6838C31.2681 62.6309 31.1446 62.6026 31.0141 62.6026C30.6047 62.6026 30.2589 62.8885 30.1707 63.2696C30.0824 63.259 29.9907 63.252 29.8989 63.252C28.7167 63.252 27.7604 64.2083 27.7604 65.3905C27.7604 65.641 27.8028 65.8845 27.8839 66.1068C27.3087 66.4527 26.9241 67.0843 26.9241 67.8042C26.9241 68.8029 27.6616 69.6287 28.6215 69.7663C28.8367 70.6838 29.659 71.3684 30.64 71.3684C30.6823 71.3684 30.7247 71.3684 30.767 71.3649C31.0988 72.2012 31.9139 72.7941 32.8703 72.7941C33.7454 72.7941 34.5077 72.2965 34.8817 71.566C35.2452 71.8131 35.6828 71.9577 36.1557 71.9577C37.3802 71.9577 38.3753 70.9873 38.4141 69.7734C39.3387 69.5757 40.0304 68.7535 40.0304 67.7725Z" fill="#102D42"/>
<path d="M46.0754 85.6109C45.8707 85.0993 45.666 84.5876 45.4614 84.0759C45.2638 83.5854 45.0944 83.1619 44.8368 82.6996C44.7309 82.509 44.5862 82.262 44.4662 82.0715C43.891 81.0163 43.3193 79.9577 42.7441 78.9025C42.3806 78.2356 42.0172 77.5651 41.6537 76.8981C41.4137 76.4605 41.1773 76.0194 40.9938 75.5536C40.7679 74.9784 40.6338 74.3679 40.5139 73.7609C40.2633 72.5152 40.0586 71.2519 39.6387 70.0556C39.3176 69.1416 38.8588 68.2594 38.153 67.5924C37.112 66.6079 35.644 66.2303 34.236 66.3255C33.9925 66.3432 33.749 66.3749 33.5125 66.4208C32.8526 66.5479 32.2174 66.7878 31.6352 67.1195C31.0317 67.4654 30.5412 67.8924 30.1495 68.4676C30.026 68.6476 29.9166 68.8381 29.8143 69.0322C29.4296 69.7662 29.1826 70.5637 28.8685 71.333C28.3145 72.6987 27.5205 73.9903 27.2629 75.4407C26.9947 76.9475 27.6511 80.5964 27.644 82.7314C27.6016 83.543 27.3017 84.577 27.2311 85.0251C27.1746 85.378 27.1147 85.745 27.1535 86.1015C27.1958 86.4826 27.2946 86.8496 27.3899 87.2166C27.404 87.2731 27.4181 87.333 27.4534 87.3824C27.517 87.4707 27.6616 87.4918 27.7287 87.4001C27.8769 87.1954 27.7957 86.8919 27.7463 86.6661C27.7005 86.4543 27.6405 86.2461 27.6299 86.0309C27.6193 85.8191 27.6722 85.6286 27.7569 85.4345C27.8169 85.2969 27.8734 85.1557 27.9369 85.0146C27.9545 84.9757 27.9722 84.9369 27.9934 84.9016C28.0004 84.8875 28.011 84.8734 28.0181 84.8593C28.0604 84.7922 28.1133 84.7358 28.1874 84.7005C28.2474 84.6723 28.3462 84.6546 28.4098 84.6864C28.4768 84.7217 28.4733 84.8099 28.4803 84.8769C28.4874 84.9546 28.4768 85.0322 28.4662 85.1098C28.4486 85.2122 28.4274 85.318 28.4239 85.4239C28.4239 85.4521 28.4239 85.4804 28.4274 85.5086C28.4309 85.5298 28.4345 85.5545 28.4415 85.5757C28.505 85.8121 28.8262 86.0203 28.9462 85.7062C28.9709 85.6392 28.9814 85.5651 28.992 85.4945C29.0414 85.1522 29.1614 84.8169 29.1473 84.4711C29.1367 84.2488 29.105 84.03 29.0732 83.8112C29.0167 83.4477 28.8544 82.9149 28.8156 82.7384C29.0414 80.5611 29.1579 78.712 29.2814 76.5417C29.2955 76.3123 29.3096 76.0794 29.3732 75.8606C29.4578 75.5783 29.6202 75.3277 29.7825 75.0807C30.7741 73.5668 31.7163 72.0176 32.6056 70.4402C32.9162 69.8897 33.2302 69.3004 33.2161 68.6652C34.0489 69.2686 35.1958 69.4098 36.1486 69.0287C37.3379 71.693 37.8919 74.6255 39.314 77.1698C40.4645 79.206 42.1548 80.8116 43.5381 82.6996C43.5875 82.7667 43.5664 82.9713 43.5699 83.0596C43.584 83.3419 43.5628 83.6242 43.5946 83.9065C43.6299 84.1923 43.6969 84.4711 43.7922 84.7428C43.8346 84.8663 43.9545 84.9757 44.078 84.8663C44.0886 84.8593 44.0992 84.8522 44.1098 84.8381C44.2333 84.7075 44.2333 84.5276 44.2263 84.3582C44.2192 84.1641 44.2263 83.9841 44.311 83.8077C44.3321 83.7583 44.3709 83.7159 44.4239 83.7053C44.4556 83.6983 44.4874 83.7053 44.5192 83.7159C44.6215 83.7512 44.6991 83.8147 44.7627 83.8924C44.7944 83.9347 44.8262 83.9806 44.8509 84.0265C44.8756 84.0723 44.9003 84.1182 44.9215 84.1641C44.9497 84.2241 44.9744 84.2806 45.0026 84.337C45.0097 84.3476 45.0132 84.3582 45.0203 84.3723C45.0238 84.3829 45.0308 84.3935 45.0344 84.4041C45.0661 84.4711 45.1014 84.5346 45.1332 84.6017C45.1932 84.7217 45.2532 84.8381 45.3132 84.9581C45.3661 85.0604 45.419 85.1663 45.472 85.2686C45.5637 85.4486 45.6625 85.6533 45.8249 85.7839C45.9448 85.8791 46.1425 85.7768 46.0754 85.6109Z" fill="#FFCFCA"/>
<path d="M36.1063 66.9888C35.9405 67.0912 35.7393 67.1123 35.5452 67.1335C35.3123 67.1582 35.0794 67.1829 34.843 67.1723C34.3878 67.1547 33.9714 66.9924 33.5373 66.8477C33.5444 66.583 33.5514 66.3219 33.5585 66.0572C33.5691 65.729 33.5761 65.3973 33.5514 65.0691C33.5444 64.9668 33.5338 64.868 33.5197 64.7692C33.4879 64.5186 33.4456 64.2716 33.3997 64.0246C33.3644 63.8199 33.3256 63.6187 33.2903 63.4141C33.4067 63.527 33.5197 63.587 33.6643 63.6646C34.2713 63.9999 34.8889 64.3104 35.51 64.6139C35.697 64.7056 35.8875 64.7974 36.0887 64.8468L36.0958 66.0007L36.1063 66.9888Z" fill="url(#paint6_linear_5476_87714)"/>
<path d="M37.2957 61.5936C37.2604 61.4277 37.2146 61.2654 37.1616 61.103C36.9958 60.5984 36.6746 60.1291 36.2371 59.8115C35.3937 59.2045 34.1868 59.3068 33.4704 60.0514C33.301 60.2279 33.1599 60.429 33.0575 60.6513C32.807 61.1913 32.7752 61.7806 32.8846 62.3523C32.9799 62.8569 33.1846 63.3509 33.4457 63.7815C33.6045 64.0461 33.7915 64.3002 34.0174 64.519C34.1444 64.6461 34.2856 64.759 34.4409 64.8578C34.7479 65.0554 35.0937 65.186 35.4572 65.2107C35.7854 65.2318 36.1241 65.1542 36.4065 64.9919C36.7276 64.8049 36.9252 64.512 37.0734 64.1838C37.4334 63.3792 37.4828 62.4511 37.2957 61.5936Z" fill="url(#paint7_linear_5476_87714)"/>
<path d="M33.6041 63.6118C33.2865 63.76 32.8913 63.7247 32.6054 63.5165C32.3655 63.3436 32.2137 63.0542 32.1996 62.7613C32.1961 62.7084 32.1996 62.6555 32.2067 62.599C32.2173 62.5037 32.2455 62.412 32.2949 62.3308C32.4114 62.1297 32.6584 62.0167 32.8913 62.0414C33.1242 62.0662 33.3324 62.2249 33.4383 62.4332L33.5018 62.8849L33.6041 63.6118Z" fill="url(#paint8_linear_5476_87714)"/>
<path d="M36.3642 59.5218C36.0925 60.2982 35.5208 60.951 34.8221 61.3851C34.1234 61.8191 33.3047 62.0414 32.486 62.0838C32.4295 62.0873 32.5954 61.0039 32.6271 60.8981C32.793 60.344 33.1565 59.8535 33.6329 59.5289C33.7035 59.4794 33.7776 59.4336 33.8552 59.3948C34.3281 59.1442 34.8821 59.0525 35.4114 59.1301C35.6302 59.1618 35.842 59.2183 36.0361 59.3206C36.0749 59.3418 36.3819 59.4759 36.3642 59.5218Z" fill="#102D42"/>
<path d="M37.5673 75.4087C37.7226 74.1842 37.839 72.9596 38.0861 71.7492C38.3048 70.6729 38.5589 69.5366 38.1496 68.478C37.9767 68.2944 37.7685 68.1462 37.5532 68.0121C35.7182 66.8794 33.4138 66.9958 31.3812 67.7087C31.2718 69.3919 31.4906 71.0823 31.6317 72.7691C31.6741 73.0091 31.7058 73.2561 31.734 73.4996C31.9105 75.024 32.0093 76.5556 32.1116 78.0871C32.161 78.0801 32.2105 78.0765 32.2599 78.073C32.6057 78.0624 32.948 78.1189 33.2868 78.1753C34.1619 78.32 35.0336 78.4682 35.9087 78.6129C36.2475 78.6694 36.5863 78.7259 36.9215 78.807C37.1156 77.9283 37.3238 77.0532 37.532 76.1745C37.5214 75.9239 37.5355 75.6663 37.5673 75.4087Z" fill="#FFCFCA"/>
<path d="M40.4364 72.0142C40.1576 72.3636 39.8224 72.5965 39.4412 72.7553C39.3354 72.7976 39.2366 72.8365 39.1448 72.8682C38.7637 72.9988 38.4814 73.0305 38.0085 73.0835L37.6309 76.877C37.1475 77.0217 36.6428 77.0817 36.1382 77.0994C35.3583 77.1276 34.5678 77.0782 33.788 77.0147C33.0716 76.9547 32.3411 76.8382 31.6918 76.51C31.7094 75.5925 31.6883 74.675 31.6353 73.7575C31.6142 73.3764 31.5859 72.9917 31.5506 72.6106C31.5506 72.6071 31.5506 72.6 31.5506 72.5965C31.4554 72.7306 31.3601 72.8365 31.2824 72.9776C30.3543 72.3636 29.5286 71.6296 28.7981 70.7932C28.8157 70.7544 28.8299 70.7191 28.844 70.6803C28.9322 70.458 29.0416 70.2498 29.1651 70.0416C29.4227 69.5934 29.6874 69.1488 29.9662 68.7147C30.0191 68.6335 30.072 68.5524 30.125 68.4747C30.4955 67.9419 30.9331 67.4584 31.4659 67.0879C31.7518 66.8903 32.0553 66.7244 32.3799 66.5974C32.5458 66.5303 33.4809 66.2762 33.488 66.2904C33.6009 66.4774 33.7174 66.5515 33.9256 66.615C34.4302 66.7703 34.9701 66.7844 35.4924 66.7138C35.7818 66.675 36.1876 66.4174 36.1876 66.4174C36.1876 66.4174 37.0981 66.6785 37.5639 66.9573C37.765 67.0808 37.9556 67.222 38.1391 67.3737C38.6896 67.8325 39.1095 68.4042 39.413 69.0535C39.7235 69.7204 39.9212 70.4298 40.1505 71.1285C40.2494 71.4214 40.3482 71.7178 40.4364 72.0142Z" fill="#20C9AD"/>
<path d="M38.2165 71.2625C38.227 71.0931 38.2341 70.9202 38.22 70.7508C38.2059 70.5497 38.1635 70.3521 38.1176 70.1544C38.0118 69.7204 37.8812 69.2969 37.7224 68.884C37.7577 68.9511 37.7965 69.0181 37.8353 69.0817C38.1141 69.5545 38.3788 70.0556 38.4635 70.6167C38.527 71.0437 38.4847 71.4884 38.587 71.9083C38.6752 72.2718 38.8693 72.6 39.1269 72.8399C39.134 72.847 39.1446 72.854 39.1516 72.8611C38.7705 72.9917 38.4882 73.0234 38.0153 73.0764C38.1071 72.4376 38.1776 71.9118 38.2165 71.2625Z" fill="#20C9AD"/>
<path d="M32.2915 71.573C32.1468 72.3176 31.9915 73.0869 31.6386 73.7539C31.6175 73.3727 31.5892 72.9881 31.554 72.607C31.8645 72.307 32.1821 71.9859 32.2915 71.573Z" fill="#EF5D30"/>
</g>
<circle cx="19" cy="12" r="8.99996" fill="#FFF1CC"/>
<mask id="mask3_5476_87714" style="mask-type:alpha" maskUnits="userSpaceOnUse" x="10" y="3" width="18" height="18">
<path d="M19 20.9999C23.9705 20.9999 27.9999 16.9705 27.9999 12C27.9999 7.02942 23.9705 3 19 3C14.0294 3 10 7.02942 10 12C10 16.9705 14.0294 20.9999 19 20.9999Z" fill="#FCE3C3"/>
</mask>
<g mask="url(#mask3_5476_87714)">
<path d="M20.0419 10.9034C20.9626 10.76 21.5613 9.69536 21.3791 8.52546C21.1969 7.35557 20.3028 6.52344 19.382 6.66685C18.4613 6.81026 17.8626 7.8749 18.0448 9.0448C18.227 10.2147 19.1211 11.0468 20.0419 10.9034Z" fill="#102D42"/>
<path d="M16.7932 13.8621L20.1717 14.001L19.207 15.9979L17.1148 15.9145L16.7932 13.8621Z" fill="#102D42"/>
<path d="M12.0649 34.2678C13.1289 35.0698 24.7848 34.9705 24.7768 34.3949C24.757 33.0014 24.5426 31.4968 24.3441 30.0199C24.229 29.1862 24.1218 28.3644 24.0582 27.5784C23.9034 25.7244 23.3834 19.8885 23.3119 18.8563C23.2643 18.1814 23.1452 16.6569 23.1332 16.4743C23.0459 16.4148 22.9586 16.3552 22.8712 16.2996C22.8673 16.2996 22.8673 16.2957 22.8633 16.2957C22.7998 16.256 22.7243 16.2123 22.641 16.1647C22.2956 15.9622 21.839 15.7042 21.5373 15.5612C20.783 15.2039 20.0089 14.9856 19.195 14.8665C17.8373 14.672 16.4954 14.9062 15.5069 15.1841C14.6216 15.4302 14.0221 15.7121 13.9586 15.7399C13.9546 15.7399 13.9546 15.7439 13.9546 15.7439C13.9546 15.7439 14.5184 15.986 14.6692 16.915C15.3124 20.8731 13.371 24.0213 13.371 24.0213C13.371 24.0213 12.8788 27.4672 12.5929 29.222C12.4024 30.3415 11.918 34.1527 12.0649 34.2678Z" fill="#B2ECFC"/>
<path d="M16.7378 11.9961C16.7735 12.2025 16.8093 12.405 16.849 12.6114C16.8529 12.6234 16.8529 12.6353 16.8569 12.6472C16.8569 12.6511 16.8609 12.6591 16.8609 12.6631C16.9085 12.933 16.9561 13.2069 16.9919 13.4769C17.0038 13.5881 17.0157 13.6952 17.0236 13.8064C17.0316 13.9295 17.0355 14.0525 17.0395 14.1756C17.0435 14.4138 17.0355 14.648 17.0276 14.8862C17.0236 15.0212 17.0197 15.1522 17.0197 15.2872C17.0197 15.442 16.9522 15.6088 17.0157 15.7596C17.0951 15.9502 17.2777 16.0495 17.4365 16.1606C17.6112 16.2837 17.8018 16.3829 18.0002 16.4544C18.3893 16.6013 18.8339 16.6569 19.2389 16.5298C20.013 16.2916 19.8066 15.442 19.8066 14.8267V14.656V14.2034L19.8026 13.5603C19.5803 13.5047 19.3739 13.4054 19.1674 13.3062C18.4886 12.9727 17.8097 12.6313 17.1467 12.2661C17.1308 12.2581 17.111 12.2462 17.0951 12.2383C16.9601 12.1668 16.8529 12.1073 16.7378 11.9961Z" fill="url(#paint9_linear_5476_87714)"/>
<path d="M17.1429 12.1625C16.7935 12.4047 16.3132 12.4483 15.9281 12.2657C15.6025 12.1109 15.3604 11.7973 15.281 11.4479C15.2651 11.3844 15.2571 11.3209 15.2532 11.2534C15.2492 11.1383 15.2611 11.0231 15.3008 10.912C15.4001 10.646 15.67 10.4554 15.9519 10.4395C16.2338 10.4197 16.5196 10.5666 16.6903 10.7929L16.865 11.3209L17.1429 12.1625Z" fill="url(#paint10_linear_5476_87714)"/>
<path d="M17.25 36.2763C16.8847 36.8242 13.1132 35.1965 11.8627 34.6804C10.9139 34.2874 11.2593 33.7236 11.3625 32.9932C11.6602 30.8295 12.0255 28.9716 12.3828 26.9786C12.5177 26.2204 12.6527 25.4422 12.7837 24.6205C12.7877 24.5847 12.7956 24.553 12.7996 24.5212C12.6408 25.0492 12.351 26.133 12.2279 26.5102C11.5451 28.654 10.4494 33.7236 9.30602 33.9063C9.10752 33.938 6.9399 33.1758 6.84065 32.9018C6.15782 30.9843 8.27779 23.9535 8.62318 23.0841C9.21471 21.5794 11.0925 17.7008 11.5888 17.0576C12.5455 15.8269 15.658 15.1004 15.8128 15.0568C16.2614 14.9297 16.714 14.8146 17.1706 14.7153C17.6231 15.7833 17.7303 16.8353 17.8455 17.9906C18.4568 24.148 17.5398 35.8476 17.25 36.2763Z" fill="#035970"/>
<path d="M18.2539 16.0535L18.2222 16.2282L18.1864 16.4068L18.1309 16.6966L18.0991 16.8713L18.0078 17.3517L17.976 17.5224L17.8569 18.1338L15.9712 15.0054L16.1022 14.8228L16.1935 14.6958L16.3523 14.4774L16.4396 14.3543L16.5746 14.1678L16.662 14.0447L16.793 13.8621L18.2539 16.0535Z" fill="#102D42"/>
<path d="M13.0974 25.5499C12.8989 26.0342 12.6647 26.5265 12.3828 26.9791C12.5178 26.2208 12.6528 25.4427 12.7838 24.6209C12.8672 24.4343 13.681 22.5605 13.9192 20.6191C14.0105 22.9932 13.5063 24.5455 13.0974 25.5499Z" fill="#AF4646"/>
<path d="M33.7332 22.9928C32.8995 24.16 26.7579 30.7978 24.8762 26.9191C24.8484 26.8636 24.8166 26.7762 24.7769 26.669C24.5744 26.1053 24.2489 24.9619 24.1139 24.5173C24.1179 24.553 24.1258 24.5848 24.1298 24.6165C24.1417 24.684 24.1496 24.7476 24.1616 24.815C24.2807 25.5614 24.4077 26.276 24.5308 26.9747C24.8881 28.9637 25.2493 30.8256 25.5511 32.9893C25.6543 33.7237 25.9957 34.2874 25.0508 34.6765C23.8003 35.1926 20.0288 36.8203 19.6636 36.2724C19.4809 35.9985 19.6278 31.1392 19.4889 26.0934C19.4095 23.1754 18.8418 20.2416 19.0681 17.9867C19.1832 16.8314 19.2944 15.7794 19.743 14.7114C20.1995 14.8146 20.6521 14.9258 21.1007 15.0528C21.2555 15.0965 24.364 15.8191 25.3248 17.0537C25.825 17.6969 27.9807 23.0325 27.9807 23.0325C27.9807 23.0325 29.8267 21.6549 32.042 20.7061C32.3636 20.5751 33.9595 22.6752 33.7332 22.9928Z" fill="#035970"/>
<path d="M18.6553 16.053L18.691 16.2277L18.7228 16.4063L18.7783 16.6961L18.8101 16.8708L18.9014 17.3512L18.9371 17.5219L19.0523 18.1333L20.938 15.0049L20.807 14.8223L20.7197 14.6953L20.5609 14.4769L20.4696 14.3539L20.3346 14.1673L20.2472 14.0442L20.1162 13.8616L18.6553 16.053Z" fill="#102D42"/>
<path d="M21.1166 12.7823C20.9459 13.1952 20.7156 13.5684 20.3306 13.8105C19.9891 14.0249 19.5802 14.1281 19.1793 14.1122C18.7346 14.0924 18.3098 13.9376 17.9327 13.6994C17.7461 13.5803 17.5674 13.4413 17.4086 13.2905C17.1307 13.0245 16.8965 12.7108 16.694 12.3853C16.3645 11.8494 16.1025 11.2419 15.9715 10.6107C15.8207 9.90009 15.8445 9.16167 16.1343 8.47883C16.2534 8.20094 16.4161 7.94289 16.6186 7.7166C17.4722 6.76777 18.9371 6.605 19.9772 7.33945C20.5211 7.72454 20.9261 8.30018 21.1404 8.92744C21.2079 9.12594 21.2675 9.32841 21.3151 9.53485C21.5652 10.6067 21.5295 11.766 21.1166 12.7823Z" fill="url(#paint11_linear_5476_87714)"/>
<path d="M24.7771 26.669C24.5746 26.1052 24.2491 24.9619 24.1141 24.5172C24.1181 24.553 24.126 24.5847 24.13 24.6165C24.1419 24.684 24.1499 24.7475 24.1618 24.815L24.1022 24.4934L23.7727 19.5349C23.7727 19.5349 24.8168 24.2155 24.8327 25.8035C24.8287 25.9703 24.8049 26.3236 24.7771 26.669Z" fill="#AF4646"/>
<path d="M15.801 7.91884C15.7176 7.58933 15.8248 7.22012 16.0392 6.97001C16.2535 6.71991 16.5592 6.57302 16.8768 6.52141C17.1905 6.4698 17.512 6.50553 17.8257 6.56905C18.1274 6.6286 18.4291 6.71594 18.7348 6.70006C19.108 6.67624 19.4732 6.48568 19.7193 6.18396C19.9536 5.89812 20.4578 5.93782 20.7595 6.14029C21.0652 6.34276 21.3629 6.69212 21.4264 7.07323C21.486 7.4345 21.4542 8.04191 20.8826 8.37539C20.2116 8.76842 18.1075 8.62947 17.8217 8.62153C17.5359 8.61359 17.2302 8.68902 17.0436 8.91928C16.6704 9.37583 16.5989 10.0587 16.5711 10.67C16.3528 10.547 16.1424 10.4954 15.8923 10.4954C15.7851 10.4954 15.666 10.5033 15.531 10.6026C15.2968 10.146 15.1578 9.6577 15.0506 9.15351C14.999 8.9034 14.9593 8.64138 14.9911 8.3873C15.003 8.29202 15.0268 8.19277 15.0784 8.11337C15.1578 7.99427 15.2928 7.92678 15.4278 7.9109C15.5667 7.88708 15.666 7.87914 15.801 7.91884Z" fill="#102D42"/>
</g>
<rect x="53.2767" y="2.02065" width="26.8529" height="48.0133" rx="12.3259" stroke="#F2BE38" stroke-width="4.04129"/>
<rect x="75.3787" y="22.4302" width="9.73379" height="24.9693" rx="2.8289" fill="#102D42"/>
<g filter="url(#filter0_f_5476_87714)">
<path d="M73.6858 22.8533H86.382" stroke="white" stroke-width="0.404129"/>
</g>
<rect x="47.9998" y="22" width="9.73379" height="24.9693" rx="2.8289" fill="#102D42"/>
<mask id="mask4_5476_87714" style="mask-type:alpha" maskUnits="userSpaceOnUse" x="47" y="22" width="11" height="25">
<rect x="47.9998" y="22" width="9.73379" height="24.9693" rx="2.8289" fill="#102D42"/>
</mask>
<g mask="url(#mask4_5476_87714)">
<g filter="url(#filter1_f_5476_87714)">
<path d="M46.6008 22.8533H59.2971" stroke="white" stroke-width="0.404129"/>
</g>
</g>
<circle cx="66.7577" cy="47.2423" r="24.7577" fill="#F2BE38"/>
<circle cx="66.7577" cy="47.2423" r="12.9079" fill="#FFF1CC"/>
<circle cx="66.7574" cy="47.242" r="3.59727" fill="#102D42"/>
<rect x="65.6995" y="45.761" width="2.11604" height="6.77133" rx="1.05802" fill="#102D42"/>
</g>
<defs>
<filter id="filter0_f_5476_87714" x="72.4734" y="21.4387" width="15.1211" height="2.82907" filterUnits="userSpaceOnUse" color-interpolation-filters="sRGB">
<feFlood flood-opacity="0" result="BackgroundImageFix"/>
<feBlend mode="normal" in="SourceGraphic" in2="BackgroundImageFix" result="shape"/>
<feGaussianBlur stdDeviation="0.606194" result="effect1_foregroundBlur_5476_87714"/>
</filter>
<filter id="filter1_f_5476_87714" x="45.3884" y="21.4387" width="15.1211" height="2.82907" filterUnits="userSpaceOnUse" color-interpolation-filters="sRGB">
<feFlood flood-opacity="0" result="BackgroundImageFix"/>
<feBlend mode="normal" in="SourceGraphic" in2="BackgroundImageFix" result="shape"/>
<feGaussianBlur stdDeviation="0.606194" result="effect1_foregroundBlur_5476_87714"/>
</filter>
<linearGradient id="paint0_linear_5476_87714" x1="119.259" y1="59.5099" x2="93.1295" y2="49.2616" gradientUnits="userSpaceOnUse">
<stop stop-color="#F9B776"/>
<stop offset="1" stop-color="#F47960"/>
</linearGradient>
<linearGradient id="paint1_linear_5476_87714" x1="114.999" y1="51.0908" x2="105.954" y2="47.279" gradientUnits="userSpaceOnUse">
<stop stop-color="#F9B776"/>
<stop offset="1" stop-color="#F47960"/>
</linearGradient>
<linearGradient id="paint2_linear_5476_87714" x1="117.108" y1="48.59" x2="99.3664" y2="40.8785" gradientUnits="userSpaceOnUse">
<stop stop-color="#F9B776"/>
<stop offset="1" stop-color="#F47960"/>
</linearGradient>
<linearGradient id="paint3_linear_5476_87714" x1="127.592" y1="55.9206" x2="94.878" y2="38.2151" gradientUnits="userSpaceOnUse">
<stop stop-color="#F9B776"/>
<stop offset="1" stop-color="#F47960"/>
</linearGradient>
<linearGradient id="paint4_linear_5476_87714" x1="116.051" y1="48.4727" x2="110.485" y2="45.7096" gradientUnits="userSpaceOnUse">
<stop stop-color="#F9B776"/>
<stop offset="1" stop-color="#F47960"/>
</linearGradient>
<linearGradient id="paint5_linear_5476_87714" x1="116.847" y1="65.4002" x2="77.4574" y2="52.5138" gradientUnits="userSpaceOnUse">
<stop stop-color="#F9B776"/>
<stop offset="1" stop-color="#F47960"/>
</linearGradient>
<linearGradient id="paint6_linear_5476_87714" x1="37.2339" y1="66.3917" x2="27.3387" y2="62.2644" gradientUnits="userSpaceOnUse">
<stop stop-color="#F9B776"/>
<stop offset="1" stop-color="#F47960"/>
</linearGradient>
<linearGradient id="paint7_linear_5476_87714" x1="39.2354" y1="64.0068" x2="23.4128" y2="57.048" gradientUnits="userSpaceOnUse">
<stop stop-color="#F9B776"/>
<stop offset="1" stop-color="#F47960"/>
</linearGradient>
<linearGradient id="paint8_linear_5476_87714" x1="34.1671" y1="63.3557" x2="29.4189" y2="61.1215" gradientUnits="userSpaceOnUse">
<stop stop-color="#F9B776"/>
<stop offset="1" stop-color="#F47960"/>
</linearGradient>
<linearGradient id="paint9_linear_5476_87714" x1="21.0704" y1="15.6417" x2="9.87609" y2="11.4521" gradientUnits="userSpaceOnUse">
<stop stop-color="#F9B776"/>
<stop offset="1" stop-color="#F47960"/>
</linearGradient>
<linearGradient id="paint10_linear_5476_87714" x1="17.8998" y1="11.9741" x2="11.8756" y2="8.70487" gradientUnits="userSpaceOnUse">
<stop stop-color="#F9B776"/>
<stop offset="1" stop-color="#F47960"/>
</linearGradient>
<linearGradient id="paint11_linear_5476_87714" x1="23.7115" y1="12.6076" x2="4.25181" y2="4.22729" gradientUnits="userSpaceOnUse">
<stop stop-color="#F9B776"/>
<stop offset="1" stop-color="#F47960"/>
</linearGradient>
</defs>
</svg>
