<svg width="296" height="292" viewBox="0 0 296 292" fill="none" xmlns="http://www.w3.org/2000/svg">
  <g id="cc7e0d2237dbeab051e95bac855ad641">
    <path id="11c916d37af4ae3522e47ff708f1611d" d="M257.893 250.519C251.945 256.781 246.322 260.815 241.869 264.004C189.605 301.498 127.776 290.575 114.627 287.899C95.2158 283.958 57.7112 276.338 30.5861 244.446C-10.4412 196.196 -4.0545 120.173 27.7743 69.9889C33.5965 60.8114 64.3487 9.86435 126.846 1.69026C164.675 -3.25392 208.765 6.71806 240.698 33.4668C307.732 89.6297 302.955 203.074 257.893 250.519Z" fill="#F4FCFF"></path>
    <g id="fe0adcc2719692fdc1159d4bb4045f2f">
      <g id="15a62e75d719703c2b5f39e94bfeae39">
        <path id="34ed009daaf280d739b4010ff83ac7e8" d="M17.1436 251.241C17.1436 253.854 19.2864 255.997 21.9101 255.997H279.478C282.101 255.997 284.244 253.854 284.244 251.241L286.387 103.229C286.387 100.616 283.304 95.5042 277.649 95.891L25.924 89.3789C22.6418 89.2953 19.4641 90.5601 17.1332 92.8806C14.8022 95.2011 13.5269 98.3683 13.6106 101.661L17.1436 251.241Z" fill="#035970"></path>
        <path id="033156b05297b8e31e2e8ad01dc1324c" d="M21.8473 246.683C21.8473 249.161 23.8752 251.188 26.3525 251.188H273.258C275.736 251.188 277.764 249.161 277.764 246.683L279.781 112.312C279.541 104.222 272.453 101.316 268.157 101.494L26.9065 95.0234C24.5964 94.9607 22.3595 95.8491 20.7289 97.4798C19.0983 99.1104 18.1889 101.347 18.2516 103.657L21.8473 246.683Z" fill="#618298"></path>
        <g id="1a005cfbe3af7cd23309fc6478390420" opacity="0.37">
          <path id="04f0201f04c846181e3ba87b8615e026" opacity="0.37" d="M275.098 182.545C274.899 182.545 274.743 182.377 274.743 182.189L274.899 171.297C274.899 171.099 275.077 170.952 275.255 170.952C275.453 170.952 275.61 171.12 275.6 171.308L275.443 182.21C275.453 182.388 275.297 182.545 275.098 182.545Z" fill="white"></path>
          <path id="62958fe7ed64abdbe4360a709ee9f6fe" opacity="0.37" d="M275.495 155.838C275.297 155.838 275.14 155.671 275.14 155.482L275.757 113.744C275.746 111.173 274.962 109.124 273.426 107.65C270.583 104.933 266.098 105.069 265.9 105.079L188.81 102.999C188.612 102.999 188.455 102.832 188.465 102.633C188.465 102.445 188.633 102.288 188.821 102.288H188.831L265.9 104.358C266.088 104.347 270.865 104.201 273.917 107.128C275.6 108.737 276.457 110.964 276.468 113.734L275.851 155.472C275.84 155.681 275.684 155.838 275.495 155.838Z" fill="white"></path>
        </g>
        <path id="1c8040c6abb4db5b3359b7d9e6c02fab" d="M266.509 238.726C266.249 227.413 266.343 127.184 266.978 118.534C267.613 109.873 254.426 108.254 234.198 107.285C213.96 106.315 43.2068 102.459 38.8111 102.086C28.9261 101.266 25.1138 105.527 27.8741 149.17C29.4261 173.767 29.8532 214.396 30.4157 233.059C30.5823 238.62 35.03 243.03 40.4673 243.041C81.5592 243.158 239.042 243.616 249.531 243.935C261.582 244.298 266.613 243.211 266.509 238.726Z" fill="#F4FCFF"></path>
      </g>
      <path id="8eb6e45579634180d38cd0e0453e1870" d="M0.858179 263.554H294.436C294.864 263.554 295.22 263.199 295.22 262.77V251.335C295.22 250.906 294.864 250.551 294.436 250.551H0.858179C0.429614 250.551 0.0742188 250.906 0.0742188 251.335V262.77C0.0742188 263.209 0.419161 263.554 0.858179 263.554Z" fill="#035970"></path>
      <path id="4c80593de9594ad3c78319faed492978" opacity="0.37" d="M237.144 134.692H38.0074C37.4848 134.692 37.0667 134.274 37.0667 133.751V118.856C37.0667 118.333 37.4848 117.915 38.0074 117.915H237.144C237.667 117.915 238.085 118.333 238.085 118.856V133.751C238.085 134.274 237.667 134.692 237.144 134.692Z" fill="white"></path>
      <path id="42a25a1f71b6c1fef8ad04682a20d506" opacity="0.37" d="M253.994 236.377H38.2687C37.5997 236.377 37.0667 235.844 37.0667 235.175V220.802C37.0667 220.133 37.5997 219.6 38.2687 219.6H254.004C254.673 219.6 255.206 220.133 255.206 220.802V235.175C255.196 235.833 254.663 236.377 253.994 236.377Z" fill="white"></path>
      <path id="e8bc49c6d10f9707b791f8aa57a7629a" opacity="0.37" d="M255.196 195.433H137.403V215.899H255.196V195.433Z" fill="white"></path>
      <path id="eb689e7d452660678dde2ce1b2958f33" d="M130.023 141.737H37.0667V146.096H130.023V141.737Z" fill="white"></path>
      <path id="2c3e80b462a631c3a57c190408edb183" d="M130.023 149.117H37.0667V153.476H130.023V149.117Z" fill="white"></path>
      <path id="d6b7baa9210dedcb4c32d5df05b4b6b9" d="M130.023 156.507H37.0667V160.866H130.023V156.507Z" fill="white"></path>
      <path id="7c9e18fd053104ff5aee8fe47aab7960" opacity="0.53" d="M130.023 163.886H37.0667V215.9H130.023V163.886Z" fill="white"></path>
    </g>
    <g id="aa333638eb5d21a040f8b68c6d31f885">
      <path id="eda0af366637d6c765a178934f91073b" d="M239.608 50.9076C238.92 50.8882 238.368 50.3842 238.358 49.7444C238.232 43.2306 236.031 10.8939 205.236 4.13768C170.951 -3.38429 155.258 28.8555 155.258 28.8555C155.258 28.8555 112.83 13.8116 104.698 54.1161C78.0993 60.0193 71.188 92.1427 88.4904 107.836C91.2433 110.327 94.9268 111.742 98.775 111.772L265.363 113.158C270.249 113.196 274.591 110.24 275.977 105.907C281.173 89.6612 287.997 51.9545 239.608 50.9076Z" fill="#48687F"></path>
      <path id="53e2632f4f27810cac48fbc01591a503" d="M235.61 56.0299C234.922 56.0106 234.369 55.5065 234.36 54.8668C234.224 48.6243 232.043 18.6334 203.041 12.3521C170.617 5.32453 155.786 35.4318 155.786 35.4318C155.786 35.4318 115.675 21.3766 107.979 59.0155C83.0674 64.4728 76.4178 93.95 92.1887 108.761C94.9513 111.359 98.722 112.832 102.657 112.861L259.485 114.151C264.389 114.189 268.732 111.214 270.108 106.871C274.984 91.4491 280.79 57.0283 235.61 56.0299Z" fill="#F7F9FB"></path>
    </g>
    <g id="67c53ef100363791c0644664e24e991c">
      <path id="4fe4b16a55e7cf05749b28cb5ed3dc4e" d="M6.60561 281.525C6.60561 281.525 5.22716 283.7 4.87306 289.796C4.83512 290.365 5.29039 290.845 5.85947 290.845H16.6594C17.0894 290.845 17.4056 290.415 17.2665 290.011C16.6341 288.139 14.7245 283.574 10.4501 280.956L6.60561 281.525Z" fill="#F2385A"></path>
      <path id="8cf9da15510a3d235790f83f8b55fee1" d="M6.1377 277.39L6.74472 282.512C6.7953 282.954 7.1494 283.308 7.59202 283.359C8.1864 283.422 9.04635 283.473 9.88101 283.334C10.6398 283.207 11.1836 282.537 11.1836 281.766V276.821L6.1377 277.39Z" fill="url(#738b331991083e39ea1e7c105b7793a4)"></path>
      <path id="84e5cca328f328278e9949ee9ae32ddd" d="M33.3272 280.956C33.3272 280.956 31.2658 284.168 31.3037 288.582C31.3164 289.619 32.189 290.453 33.226 290.453H49.995C50.7791 290.453 51.0952 289.441 50.4503 288.986C47.276 286.76 41.0414 282.6 36.5267 280.956H33.3272V280.956Z" fill="#F2385A"></path>
      <path id="adbdb4fe9ab3249d9eb94b5bfa7600e0" d="M31.5947 275.429L32.8973 281.753C33.0491 282.461 33.732 282.941 34.4401 282.777C34.8701 282.676 35.376 282.499 35.9198 282.157C36.4383 281.841 36.6912 281.221 36.59 280.627L35.2369 272.963L31.5947 275.429Z" fill="url(#85e77ac87469caa3ebd10e46558d7809)"></path>
      <path id="13ff4e7bbb9067a650fc3603a793cacc" d="M8.5278 187.474C8.5278 187.474 4.00042 191.471 3.14047 196.276C2.29316 201.082 5.55591 279.185 5.55591 279.185C5.55591 279.185 10.0833 279.944 12.4229 278.528C12.4229 278.528 15.1924 227.841 17.2917 216.131C17.2917 216.131 28.3319 268.638 31.3923 278.123C31.3923 278.123 35.7553 278.654 37.1591 277.82C37.1591 277.82 34.2631 209.757 30.6336 197.655L8.5278 187.474Z" fill="#102D42"></path>
      <path id="d8f164cd0acd7107155353eea754344e" d="M45.8742 144.835L45.8743 144.835C49.984 143.158 53.1663 140.617 55.6077 137.784C57.6423 139.336 60.5097 141.187 63.9206 142.456C60.2756 150.059 54.3462 156.053 49.3187 160.15C46.7975 162.204 44.5042 163.781 42.8412 164.844C42.0098 165.376 41.3361 165.779 40.8703 166.049C40.6375 166.184 40.4566 166.286 40.3341 166.354C40.2728 166.388 40.2261 166.413 40.1947 166.43L40.1833 166.437L25.5561 157.728C25.557 157.726 25.5579 157.725 25.5588 157.723C25.5819 157.68 25.6183 157.616 25.6711 157.531C25.7768 157.362 25.9481 157.11 26.2094 156.785C26.7319 156.135 27.6143 155.191 29.0509 154.021C31.9242 151.68 37.014 148.437 45.8742 144.835Z" fill="#FAB1A5" stroke="#FAB1A5" stroke-width="0.144271"></path>
      <path id="a5aeb42efd9c66104d29624594acd7f6" d="M59.8212 106.298C59.5177 105.767 58.7084 105.994 58.721 106.601L58.8981 112.33C58.936 113.443 59.3027 114.505 59.973 115.39L62.0976 117.705C62.9955 118.906 63.3369 120.424 63.0208 121.891C62.2873 125.394 60.3524 132.096 55.5847 137.686C57.6334 139.254 60.5421 141.138 64.0072 142.416C66.6882 136.801 68.1172 130.313 67.0296 123.067C67.8643 122.257 68.054 121.005 67.4849 119.994L59.8212 106.298Z" fill="url(#05d101d3462a88ef417b00d331e0f7ea)"></path>
      <path id="ef9f5f53be06a1689f41af2345073070" d="M32.5808 138.958L32.5809 138.958C36.2838 139.634 41.3282 140.787 46.2847 142.674C51.2376 144.56 56.0964 147.176 59.4428 150.776L59.4519 150.8C59.4613 150.824 59.4754 150.86 59.4942 150.907C59.5319 151.002 59.5884 151.14 59.664 151.317C59.8154 151.67 60.0433 152.177 60.3501 152.79C60.9636 154.017 61.8928 155.671 63.1557 157.384C65.672 160.797 69.5197 164.449 74.8422 165.392C75.2221 169.113 76.0109 172.834 77.2085 176.554C73.6266 177.833 69.511 178.195 64.9631 176.773C60.3865 175.343 55.3668 172.105 50.0108 166.168L49.9456 166.095L49.8954 166.179L32.6838 194.861C32.2218 195.631 31.9779 196.503 31.9779 197.402C31.9779 198.404 31.025 199.115 30.0721 198.838C25.5309 197.509 14.3324 194.109 8.1041 191.115C6.9388 190.551 6.46007 189.165 7.01222 187.999C7.97361 186 9.47885 182.787 10.9209 179.498C12.6797 175.487 21.7478 152.178 25.0737 143.225C26.2123 140.159 29.3778 138.37 32.5808 138.958Z" fill="#FAB1A5" stroke="#FAB1A5" stroke-width="0.144271"></path>
      <path id="2272b2258e2e34038cf8ac3c9dc8c2c0" d="M92.5372 163.32L90.615 160.753C84.3803 165.027 79.1827 166.039 74.9209 165.318C75.3003 169.087 76.097 172.843 77.311 176.586C86.8084 173.159 92.5372 163.32 92.5372 163.32Z" fill="url(#008723437513b2f3c7bbb34dd321585f)"></path>
      <path id="882304f9a3531c4bca55961c17a511f4" d="M91.1841 163.358L102.022 163.775L112 158.198C110.571 157.3 102.465 159.134 102.465 159.134C102.465 159.134 93.9916 157.857 91.7026 157.844C89.793 157.844 90.0712 160.576 90.223 161.511C90.2483 161.701 90.2736 161.815 90.2736 161.815L91.1841 163.358Z" fill="url(#4d5e3b3e5a2aa9ca7355b4bd7b595094)"></path>
      <path id="d8c73025079fac87e716d0303ecf0a25" d="M42.7867 125.596L37.0706 139.557C37.0706 139.557 43.6466 144.11 48.9328 143.668L51.7909 131.122L42.7867 125.596Z" fill="url(#ae7e01e7f436fc1f9bc18392f5fbd061)"></path>
      <g id="38a131dabb16b9268b9949f0844e7ba4">
        <path id="8ae7ef7a93d3cac18e995bee11f1db88" d="M52.4483 116.086C52.5748 116.276 56.5837 130.743 56.5837 130.743L48.275 132.855L42.4451 119.703C42.4324 119.703 50.2605 112.975 52.4483 116.086Z" fill="url(#e470e3e80beaf69d694d65c545e1098f)"></path>
        <path id="3d6573087de494d815bf0c0620e5a1dd" d="M45.5688 121.701L48.0981 128.871C48.136 128.96 48.1739 129.048 48.2245 129.124C48.566 129.617 49.8686 131.198 51.4241 129.769C52.8278 128.467 54.1304 127.303 55.3318 127.088C55.8756 126.987 56.3941 127.316 56.5332 127.847C56.8999 129.162 57.6587 132.147 57.9369 134.828C57.9875 135.371 57.6207 135.865 57.077 135.966C55.4582 136.269 52.0058 136.826 49.1351 136.623C48.743 136.598 48.4016 136.358 48.2372 136.004C47.4405 134.271 45.025 129.023 44.1145 127.67C43.2672 126.393 41.1932 126.431 40.3206 126.506C40.0297 126.532 39.7515 126.443 39.5365 126.253C38.7777 125.583 37.3234 123.876 39.3595 121.84C39.7894 121.41 39.7768 120.727 39.3342 120.31C38.4616 119.488 37.5257 118.021 38.9801 116.212C40.4597 114.366 42.4199 114.669 43.6213 115.099C44.1018 115.276 44.633 115.074 44.8985 114.632C45.0503 114.379 45.3159 114.189 45.7585 114.227C46.3655 114.277 46.884 113.772 46.8714 113.152C46.8461 111.976 47.2761 110.484 49.3248 109.851C52.9543 108.726 55.2179 112.229 55.4456 114.847C55.6732 117.464 51.6643 118.463 49.3121 118.286C47.5163 118.147 46.1885 119.93 45.6573 120.79C45.4929 121.068 45.4676 121.397 45.5688 121.701Z" fill="#102D42"></path>
        <path id="3ea3b5376cbd08e28438b9abb7936518" d="M45.0629 130.275C45.0629 130.275 44.4812 125.735 42.5843 125.507C40.7 125.28 38.8536 126.835 40.7379 129.39C43.0775 132.564 45.0629 130.275 45.0629 130.275Z" fill="url(#243a77a5822785ccdb8c4867b2bb4658)"></path>
      </g>
    </g>
    <g id="a325bec842f54606ede9c520ffc0dacf">
      <g id="96667b7aaa1482444877d47b574ff19f">
        <path id="b8b6bbda8678717f3c72386cc6720b2d" d="M183.256 55.1206C164.841 69.5665 139.33 80.9167 111.278 87.1025L111.001 140.023C110.874 164.237 122.125 186.144 144.442 205.135C159.106 217.612 174.524 225.354 182.347 228.83C182.683 228.687 183.053 228.518 183.416 228.359V55.2423C183.363 55.2053 183.307 55.163 183.256 55.1206Z" fill="#B2ECFC"></path>
        <path id="e6f11a4f9c59cdc57088b7aa84f305ef" d="M183.537 55.1195V229.052C191.67 225.415 206.453 217.903 220.61 206.01C243.119 187.1 254.597 165.18 254.723 140.852L255 87.6827C227.099 81.271 201.782 69.7131 183.537 55.1195Z" fill="#B2ECFC"></path>
      </g>
      <path id="97c83d35e0da283e05ea4597773ebf9a" d="M183.984 55C156.733 66.8638 142.659 71.1474 116.432 77.2014L116.432 138.094C116.313 161.793 126.832 183.233 147.697 201.82C161.406 214.032 175.82 221.608 183.134 225.011C183.449 224.871 183.794 224.705 184.134 224.55V55.119C184.084 55.0828 184.032 55.0414 183.984 55Z" fill="#4690A4"></path>
      <path id="115f411cacb115cacc7818bad7273af2" d="M184.136 55.119V224.55C191.742 221.007 205.565 213.69 218.804 202.105C239.852 183.684 250.586 162.331 250.703 138.633V75.4034C224.153 70.0099 196.512 60.7959 184.136 55.119Z" fill="#67A4BA"></path>
      <g id="ab86a8790f445442eeeeb505bf12bd48">
        <path id="83814ef5655325b969903d7f4774985f" fill-rule="evenodd" clip-rule="evenodd" d="M162.472 131.879V123.216C162.472 117.472 164.754 111.963 168.815 107.902C172.877 103.84 178.386 101.558 184.13 101.558C189.874 101.558 195.383 103.84 199.444 107.902C203.506 111.963 205.788 117.472 205.788 123.216V131.879C208.085 131.879 210.289 132.792 211.914 134.417C213.538 136.041 214.451 138.245 214.451 140.542V162.2C214.451 164.498 213.538 166.702 211.914 168.326C210.289 169.951 208.085 170.864 205.788 170.864H162.472C160.174 170.864 157.971 169.951 156.346 168.326C154.721 166.702 153.809 164.498 153.809 162.2V140.542C153.809 138.245 154.721 136.041 156.346 134.417C157.971 132.792 160.174 131.879 162.472 131.879V131.879ZM197.125 123.216V131.879H171.135V123.216C171.135 119.77 172.504 116.464 174.941 114.027C177.378 111.59 180.683 110.221 184.13 110.221C187.576 110.221 190.881 111.59 193.318 114.027C195.755 116.464 197.125 119.77 197.125 123.216V123.216Z" fill="#F4FCFF"></path>
      </g>
    </g>
  </g>
  <defs>
    <linearGradient id="738b331991083e39ea1e7c105b7793a4" x1="11.5362" y1="283.383" x2="4.5351" y2="278.73" gradientUnits="userSpaceOnUse">
      <stop stop-color="#F9B776"></stop>
      <stop offset="1" stop-color="#F47960"></stop>
    </linearGradient>
    <linearGradient id="85e77ac87469caa3ebd10e46558d7809" x1="36.9625" y1="282.751" x2="28.5729" y2="279.033" gradientUnits="userSpaceOnUse">
      <stop stop-color="#F9B776"></stop>
      <stop offset="1" stop-color="#F47960"></stop>
    </linearGradient>
    <linearGradient id="05d101d3462a88ef417b00d331e0f7ea" x1="68.6656" y1="142.2" x2="46.1272" y2="135.619" gradientUnits="userSpaceOnUse">
      <stop stop-color="#F9B776"></stop>
      <stop offset="1" stop-color="#F47960"></stop>
    </linearGradient>
    <linearGradient id="008723437513b2f3c7bbb34dd321585f" x1="93.7682" y1="176.492" x2="75.5673" y2="158.88" gradientUnits="userSpaceOnUse">
      <stop stop-color="#F9B776"></stop>
      <stop offset="1" stop-color="#F47960"></stop>
    </linearGradient>
    <linearGradient id="4d5e3b3e5a2aa9ca7355b4bd7b595094" x1="113.529" y1="163.74" x2="109.654" y2="151.304" gradientUnits="userSpaceOnUse">
      <stop stop-color="#F9B776"></stop>
      <stop offset="1" stop-color="#F47960"></stop>
    </linearGradient>
    <linearGradient id="ae7e01e7f436fc1f9bc18392f5fbd061" x1="52.8195" y1="143.591" x2="33.189" y2="129.707" gradientUnits="userSpaceOnUse">
      <stop stop-color="#F9B776"></stop>
      <stop offset="1" stop-color="#F47960"></stop>
    </linearGradient>
    <linearGradient id="e470e3e80beaf69d694d65c545e1098f" x1="57.5716" y1="132.751" x2="38.5709" y2="119.469" gradientUnits="userSpaceOnUse">
      <stop stop-color="#F9B776"></stop>
      <stop offset="1" stop-color="#F47960"></stop>
    </linearGradient>
    <linearGradient id="243a77a5822785ccdb8c4867b2bb4658" x1="45.4202" y1="131.04" x2="39.1572" y2="126.056" gradientUnits="userSpaceOnUse">
      <stop stop-color="#F9B776"></stop>
      <stop offset="1" stop-color="#F47960"></stop>
    </linearGradient>
  </defs>
</svg>