<svg width="34" height="34" viewBox="0 0 34 34" fill="none" xmlns="http://www.w3.org/2000/svg">
<path d="M3.93335 26.2495L5.88335 25.0662C6.07674 24.9469 6.23643 24.7802 6.34728 24.5818C6.45812 24.3835 6.51643 24.1601 6.51668 23.9329L6.55002 17.9162C6.55267 17.6668 6.62797 17.4235 6.76668 17.2162L10.0667 12.0329C10.1657 11.8797 10.2947 11.7482 10.446 11.6463C10.5972 11.5444 10.7675 11.4742 10.9467 11.44C11.1258 11.4057 11.31 11.4081 11.4882 11.447C11.6663 11.4859 11.8348 11.5604 11.9834 11.6662L15.25 14.0329C15.5319 14.2294 15.8749 14.3181 16.2167 14.2829L21.4667 13.5662C21.7852 13.5224 22.0761 13.362 22.2833 13.1162L25.9834 8.84954C26.2028 8.58946 26.3159 8.25611 26.3 7.91621L26.1167 3.86621M26.85 29.6328L25.05 27.8328C24.8835 27.6664 24.6768 27.5458 24.45 27.4828L20.8667 26.5495C20.552 26.4633 20.2798 26.2648 20.1016 25.9914C19.9235 25.718 19.8517 25.3888 19.9 25.0661L20.2834 22.3661C20.3214 22.139 20.4162 21.9252 20.559 21.7446C20.7018 21.5639 20.8879 21.4223 21.1 21.3328L26.1667 19.2161C26.402 19.118 26.6605 19.0894 26.9116 19.1337C27.1627 19.178 27.3958 19.2934 27.5834 19.4661L31.7334 23.2661" stroke="#F2385A" stroke-width="2" stroke-linecap="round" stroke-linejoin="round"/>
<path d="M17 33C25.8366 33 33 25.8366 33 17C33 8.16344 25.8366 1 17 1C8.16344 1 1 8.16344 1 17C1 25.8366 8.16344 33 17 33Z" stroke="#C9F1FF" stroke-width="2" stroke-linecap="round" stroke-linejoin="round"/>
</svg>
