<svg width="170" height="144" viewBox="0 0 170 144" fill="none" xmlns="http://www.w3.org/2000/svg">
<circle cx="84.4614" cy="72" r="72" fill="#DAE4EC"/>
<circle cx="19.3848" cy="13.8462" r="4.15385" fill="#DAE4EC"/>
<circle cx="157.846" cy="34.6153" r="4.15385" fill="#DAE4EC"/>
<circle cx="2.76923" cy="24.923" r="2.76923" fill="#DAE4EC"/>
<circle cx="153.692" cy="22.1538" r="2.76923" fill="#DAE4EC"/>
<circle cx="167.231" cy="82.6154" r="2.76923" fill="#DAE4EC"/>
<path d="M37.2816 41.9003L82.9686 20.6027C85.1446 19.5884 87.6611 19.6049 89.8236 20.6477L133.863 41.885C136.937 43.3674 138.73 46.63 138.273 50.0122C136.182 65.4837 129.726 107.974 120.864 116.826C113.574 124.108 99.8393 134.44 90.9513 140.798C88.2314 142.744 84.5888 142.736 81.906 140.739C74.6064 135.307 63.0912 126.144 53.7627 116.826C43.2089 106.284 35.8539 70.9775 32.7884 50.1311C32.2831 46.6951 34.1338 43.3676 37.2816 41.9003Z" fill="#67A4BA"/>
<path d="M43.9073 47.4736L84.1085 28.2845C85.8039 27.4752 87.7804 27.5067 89.4491 28.3696L126.328 47.4397C128.539 48.5831 129.816 50.9476 129.498 53.4166C127.865 66.1205 122.362 104.589 114.746 112.183C108.498 118.413 96.6244 127.3 89.1676 132.61C87.1273 134.062 84.4022 134.056 82.3882 132.567C76.2763 128.049 66.329 120.184 58.3051 112.183C49.3255 103.229 43.099 71.3065 40.5752 53.6173C40.2101 51.0582 41.5744 48.5872 43.9073 47.4736Z" fill="#8EDEF4"/>
<path d="M114.983 112.183C108.665 118.484 96.5911 127.503 89.1524 132.789C87.8312 133.728 86.0215 132.765 86.037 131.144L87.0061 30.2504C87.0204 28.7602 88.6009 27.8085 89.9246 28.4931L126.565 47.44C128.776 48.5834 130.053 50.9478 129.736 53.4168C128.102 66.1207 122.599 104.589 114.983 112.183Z" fill="#77C2D7"/>
<circle cx="88.5" cy="82.5" r="20.5" fill="#77C2D7"/>
<path fill-rule="evenodd" clip-rule="evenodd" d="M86.4068 62.319C85.1647 62.319 83.9517 62.4439 82.7797 62.6817V55.065C82.7797 53.0618 84.4037 51.4379 86.4069 51.4379C88.4101 51.4379 90.034 53.0618 90.034 55.065V62.6818C88.862 62.4439 87.649 62.319 86.4068 62.319ZM68.2712 80.4546C68.2712 73.0178 72.7475 66.6265 79.1526 63.828V55.065C79.1526 51.0586 82.4005 47.8108 86.4069 47.8108C90.4133 47.8108 93.6611 51.0586 93.6611 55.065V63.828C100.066 66.6266 104.542 73.0178 104.542 80.4546C104.542 90.4706 96.4228 98.5902 86.4068 98.5902C76.3908 98.5902 68.2712 90.4706 68.2712 80.4546ZM91.8476 78.641C91.8476 81.0099 90.3337 83.0252 88.2206 83.7721V85.895C88.2206 86.8966 87.4087 87.7086 86.4071 87.7086C85.4055 87.7086 84.5935 86.8966 84.5935 85.895V83.7722C82.4803 83.0253 80.9663 81.01 80.9663 78.641C80.9663 75.6362 83.4022 73.2004 86.407 73.2004C89.4118 73.2004 91.8476 75.6362 91.8476 78.641Z" fill="white"/>
</svg>
