<svg width="170" height="144" viewBox="0 0 170 144" fill="none" xmlns="http://www.w3.org/2000/svg">
<circle cx="84.4614" cy="72" r="72" fill="#DAE4EC"/>
<circle cx="19.3848" cy="13.8462" r="4.15385" fill="#DAE4EC"/>
<circle cx="157.846" cy="34.6153" r="4.15385" fill="#DAE4EC"/>
<circle cx="2.76923" cy="24.923" r="2.76923" fill="#DAE4EC"/>
<circle cx="153.692" cy="22.1538" r="2.76923" fill="#DAE4EC"/>
<circle cx="167.231" cy="82.6154" r="2.76923" fill="#DAE4EC"/>
<path d="M37.2816 41.9003L82.9686 20.6027C85.1446 19.5884 87.6611 19.6049 89.8236 20.6477L133.863 41.885C136.937 43.3674 138.73 46.63 138.273 50.0122C136.182 65.4837 129.726 107.974 120.864 116.826C113.574 124.108 99.8393 134.44 90.9513 140.798C88.2314 142.744 84.5888 142.736 81.906 140.739C74.6064 135.307 63.0912 126.144 53.7627 116.826C43.2089 106.284 35.8539 70.9775 32.7884 50.1311C32.2831 46.6951 34.1338 43.3676 37.2816 41.9003Z" fill="#67A4BA"/>
<path d="M43.9073 47.4736L84.1085 28.2845C85.8039 27.4752 87.7804 27.5067 89.4491 28.3696L126.328 47.4397C128.539 48.5831 129.816 50.9476 129.498 53.4166C127.865 66.1205 122.362 104.589 114.746 112.183C108.498 118.413 96.6244 127.3 89.1676 132.61C87.1273 134.062 84.4022 134.056 82.3882 132.567C76.2763 128.049 66.329 120.184 58.3051 112.183C49.3255 103.229 43.099 71.3065 40.5752 53.6173C40.2101 51.0582 41.5744 48.5872 43.9073 47.4736Z" fill="#8EDEF4"/>
<path d="M114.983 112.183C108.665 118.484 96.5911 127.503 89.1524 132.789C87.8312 133.728 86.0215 132.765 86.037 131.144L87.0061 30.2504C87.0204 28.7602 88.6009 27.8085 89.9246 28.4931L126.565 47.44C128.776 48.5834 130.053 50.9478 129.736 53.4168C128.102 66.1207 122.599 104.589 114.983 112.183Z" fill="#77C2D7"/>
<circle cx="88.5" cy="82.5" r="20.5" fill="#77C2D7"/>
<path fill-rule="evenodd" clip-rule="evenodd" d="M86.4068 62.319C85.1647 62.319 83.9517 62.4439 82.7797 62.6817V55.065C82.7797 53.0618 84.4037 51.4379 86.4069 51.4379C88.4101 51.4379 90.034 53.0618 90.034 55.065V62.6818C88.862 62.4439 87.649 62.319 86.4068 62.319ZM68.2712 80.4546C68.2712 73.0178 72.7475 66.6265 79.1526 63.828V55.065C79.1526 51.0586 82.4005 47.8108 86.4069 47.8108C90.4133 47.8108 93.6611 51.0586 93.6611 55.065V63.828C100.066 66.6266 104.542 73.0178 104.542 80.4546C104.542 90.4706 96.4228 98.5902 86.4068 98.5902C76.3908 98.5902 68.2712 90.4706 68.2712 80.4546ZM91.8476 78.641C91.8476 81.0099 90.3337 83.0252 88.2206 83.7721V85.895C88.2206 86.8966 87.4087 87.7086 86.4071 87.7086C85.4055 87.7086 84.5935 86.8966 84.5935 85.895V83.7722C82.4803 83.0253 80.9663 81.01 80.9663 78.641C80.9663 75.6362 83.4022 73.2004 86.407 73.2004C89.4118 73.2004 91.8476 75.6362 91.8476 78.641Z" fill="white"/>
<path d="M155.383 121.58C155.076 123.274 154.617 124.814 154.002 126.355C150.32 135.597 142.036 142.067 132.524 143.608C129.149 144.224 125.773 144.07 122.245 143.454C107.21 140.373 97.3908 125.43 100.613 110.335C103.834 95.2389 118.563 85.3802 133.598 88.6151C138.967 89.6934 143.877 92.312 147.712 96.317C154.463 102.633 157.377 112.337 155.383 121.58Z" fill="#20C9AD"/>
<path fill-rule="evenodd" clip-rule="evenodd" d="M121.904 125.8L121.92 125.8L121.937 125.799C122.486 125.784 123.005 125.556 123.387 125.166L138.586 109.817C138.782 109.619 138.936 109.386 139.041 109.13C139.146 108.874 139.2 108.6 139.2 108.323C139.2 108.047 139.146 107.773 139.041 107.517C138.937 107.265 138.786 107.034 138.594 106.839C138.401 106.639 138.17 106.479 137.913 106.369C137.653 106.258 137.372 106.2 137.089 106.2C136.805 106.2 136.525 106.258 136.264 106.369C136.008 106.479 135.778 106.638 135.585 106.837L121.897 120.671L119.008 117.758C118.613 117.359 118.075 117.133 117.511 117.133C116.947 117.133 116.408 117.36 116.013 117.758C115.619 118.157 115.4 118.694 115.4 119.251C115.4 119.809 115.619 120.346 116.013 120.744L120.398 125.172L120.399 125.173C120.595 125.372 120.828 125.53 121.086 125.638C121.345 125.746 121.623 125.801 121.904 125.8ZM137.362 107.656C137.367 107.658 137.373 107.661 137.378 107.663L137.362 107.656ZM137.089 107.6C137.171 107.6 137.252 107.615 137.329 107.643C137.252 107.615 137.171 107.6 137.089 107.6C136.995 107.6 136.902 107.619 136.816 107.656C136.729 107.693 136.651 107.747 136.586 107.815L121.898 122.66L121.898 122.66L136.586 107.815C136.651 107.747 136.729 107.693 136.816 107.656C136.902 107.619 136.995 107.6 137.089 107.6ZM117.783 118.588C117.698 118.552 117.605 118.533 117.511 118.533C117.322 118.533 117.142 118.609 117.008 118.743C116.875 118.878 116.8 119.061 116.8 119.251C116.8 119.442 116.875 119.624 117.008 119.759L121.395 124.19C121.432 124.227 121.472 124.259 121.515 124.287C121.472 124.259 121.432 124.227 121.395 124.19L117.008 119.759C116.875 119.624 116.8 119.442 116.8 119.251C116.8 119.061 116.875 118.878 117.008 118.743C117.142 118.609 117.323 118.533 117.511 118.533C117.605 118.533 117.698 118.552 117.783 118.588Z" fill="white"/>
</svg>
