<svg width="80" height="80" viewBox="0 0 80 80" fill="none" xmlns="http://www.w3.org/2000/svg">
<circle cx="40" cy="40" r="40" fill="#FFECEF"/>
<g clip-path="url(#clip0_805_1580)">
<path d="M39.9985 73.3214C33.4049 73.3236 26.9587 71.3702 21.4754 67.7083C15.9921 64.0464 11.7181 58.8405 9.19379 52.7492C6.66953 46.6579 6.00851 39.9548 7.29434 33.4878C8.58017 27.0207 11.7551 21.0803 16.4175 16.4179C21.0799 11.7555 27.0203 8.58059 33.4873 7.29476C39.9544 6.00893 46.6575 6.66996 52.7488 9.19422C58.8401 11.7185 64.046 15.9926 67.7079 21.4759C71.3697 26.9592 73.3232 33.4053 73.321 39.9989C73.3096 48.8331 69.7952 57.3022 63.5485 63.5489C57.3017 69.7956 48.8327 73.31 39.9985 73.3214ZM39.9985 9.32449C33.9312 9.32235 27.9996 11.1196 22.9538 14.4888C17.9079 17.8581 13.9746 22.648 11.6513 28.2528C9.32798 33.8577 8.71898 40.0256 9.90134 45.9766C11.0837 51.9276 14.0043 57.3942 18.2938 61.6852C22.5832 65.9762 28.0489 68.8987 33.9994 70.0832C39.95 71.2676 46.1182 70.6608 51.7238 68.3395C57.3295 66.0181 62.1208 62.0865 65.4918 57.0419C68.8628 51.9972 70.6621 46.0662 70.6621 39.9989C70.6536 31.8681 67.4205 24.0725 61.6722 18.3221C55.9238 12.5717 48.1294 9.33593 39.9985 9.32449Z" fill="#F2385A"/>
</g>
<path fill-rule="evenodd" clip-rule="evenodd" d="M52.7886 30.2886C53.3621 29.715 53.3621 28.785 52.7886 28.2114C52.215 27.6379 51.285 27.6379 50.7114 28.2114L40 38.9229L29.2886 28.2114C28.715 27.6379 27.785 27.6379 27.2114 28.2114C26.6379 28.785 26.6379 29.715 27.2114 30.2886L37.9229 41L27.2114 51.7114C26.6379 52.285 26.6379 53.215 27.2114 53.7886C27.785 54.3621 28.715 54.3621 29.2886 53.7886L40 43.0771L50.7114 53.7886C51.285 54.3621 52.215 54.3621 52.7886 53.7886C53.3621 53.215 53.3621 52.285 52.7886 51.7114L42.0771 41L52.7886 30.2886Z" fill="#F2385A"/>
<defs>
<clipPath id="clip0_805_1580">
<rect width="66.6667" height="66.6667" fill="white" transform="translate(6.66669 6.66699)"/>
</clipPath>
</defs>
</svg>
