<svg xmlns="http://www.w3.org/2000/svg" width="88" height="88" viewBox="0 0 88 88">
    <defs>
        <linearGradient id="b3xtt4hsza" x1="-3.725%" x2="152.378%" y1="0%" y2="140.924%">
            <stop offset="0%" stop-color="#E5EDFF"/>
            <stop offset="100%" stop-color="#6B9AD9"/>
        </linearGradient>
        <linearGradient id="g5frxj6a4b" x1="48.067%" x2="54.896%" y1="99.693%" y2="-55.82%">
            <stop offset="0%" stop-color="#63B0FF" stop-opacity=".2"/>
            <stop offset="100%" stop-color="#A2B3F0" stop-opacity=".05"/>
        </linearGradient>
        <linearGradient id="067xsby6qc" x1="157.42%" x2="118.836%" y1="-39.692%" y2="115.938%">
            <stop offset="0%" stop-color="#E5EDFF"/>
            <stop offset="100%" stop-color="#6B9AD9"/>
        </linearGradient>
        <linearGradient id="u9oyrj2yxd" x1="42.99%" x2="88.111%" y1="40.37%" y2="78.429%">
            <stop offset="0%" stop-color="#E8EEF3" stop-opacity=".159"/>
            <stop offset="100%" stop-color="#E7EBF0" stop-opacity="0"/>
        </linearGradient>
    </defs>
    <g fill="none" fill-rule="evenodd">
        <g>
            <g>
                <g>
                    <path d="M0 0H88V88H0z" transform="translate(-1088 -386) translate(1016 386) translate(72)"/>
                    <g opacity=".7" transform="translate(-1088 -386) translate(1016 386) translate(72) translate(9 4)">
                        <g fill-rule="nonzero">
                            <g>
                                <path fill="url(#b3xtt4hsza)" d="M46.865 23.426c11.894-.181 21.602 9.18 21.832 21.073.034 1.746-.14 3.446-.5 5.076-.609 2.76-.97 5.57-.97 8.396v5.464c0 .837-.68 1.516-1.517 1.516h-5.464c-2.827 0-5.636.362-8.396.97-1.63.36-3.33.535-5.076.501-11.893-.23-21.254-9.938-21.073-21.831.177-11.61 9.555-20.987 21.164-21.165z"/>
                                <path fill="url(#g5frxj6a4b)" d="M30.17.004C13.736-.247.324 12.686.006 29.118c-.047 2.413.194 4.761.691 7.014.841 3.813 1.341 7.694 1.341 11.6v7.55c0 1.156.938 2.094 2.095 2.094h7.549c3.905 0 7.786.5 11.6 1.34 2.253.498 4.601.739 7.013.692 16.432-.318 29.366-13.73 29.115-30.163C59.166 13.205 46.21.248 30.17.004z"/>
                                <path fill="url(#067xsby6qc)" d="M30.165 3.805C15.675 3.584 3.848 14.988 3.567 29.477c-.04 2.127.172 4.198.61 6.184.742 3.363 1.183 6.785 1.183 10.23v6.656c0 1.02.826 1.846 1.846 1.846h6.657c3.444 0 6.866.441 10.229 1.183 1.986.438 4.056.65 6.183.61 14.49-.28 25.894-12.107 25.673-26.597-.216-14.143-11.64-25.568-25.783-25.784z"/>
                                <path fill="url(#u9oyrj2yxd)" d="M20.38 28.592c-.74-.786-1.787-1.28-2.952-1.28-2.24 0-4.057 1.817-4.057 4.058 0 1.165.493 2.212 1.28 2.952l8.752 8.752c.74.787 1.787 1.28 2.952 1.28 2.241 0 4.058-1.816 4.058-4.057 0-1.165-.494-2.212-1.28-2.952l-8.753-8.753z"/>
                                <circle cx="17.428" cy="31.369" r="4.057" fill="#FFF"/>
                                <path fill="url(#u9oyrj2yxd)" d="M31.855 28.592c-.74-.786-1.787-1.28-2.953-1.28-2.24 0-4.057 1.817-4.057 4.058 0 1.165.494 2.212 1.28 2.952l8.752 8.752c.74.787 1.788 1.28 2.953 1.28 2.24 0 4.057-1.816 4.057-4.057 0-1.165-.494-2.212-1.28-2.952l-8.752-8.753z"/>
                                <circle cx="28.903" cy="31.369" r="4.057" fill="#FFF"/>
                                <path fill="url(#u9oyrj2yxd)" d="M43.33 28.592c-.74-.786-1.788-1.28-2.953-1.28-2.241 0-4.058 1.817-4.058 4.058 0 1.165.494 2.212 1.28 2.952l8.753 8.752c.74.787 1.787 1.28 2.952 1.28 2.24 0 4.057-1.816 4.057-4.057 0-1.165-.493-2.212-1.28-2.952l-8.752-8.753z" opacity=".71"/>
                                <circle cx="40.377" cy="31.369" r="4.057" fill="#FFF"/>
                            </g>
                        </g>
                        <ellipse cx="34.532" cy="75.094" fill="#E2EBFC" opacity=".421" rx="34.532" ry="2"/>
                    </g>
                </g>
            </g>
        </g>
    </g>
</svg>
