<svg width="344" height="288" viewBox="0 0 344 288" fill="none" xmlns="http://www.w3.org/2000/svg">
<mask id="mask0_435_17891" style="mask-type:alpha" maskUnits="userSpaceOnUse" x="0" y="0" width="344" height="288">
<rect width="344" height="287.144" fill="#C4C4C4"/>
</mask>
<g mask="url(#mask0_435_17891)">
<path d="M481.67 45.352C446.514 6.71404 397.313 -19.9036 345.387 3.18554C329.738 10.1307 313.894 22.6722 295.937 22.2373C277.979 21.8023 262.038 -0.65196 243.215 9.54286C227.681 17.9466 230.577 39.5184 224.008 53.3939C214.369 73.7376 195.079 69.3558 177.746 61.046C165.894 55.327 151.418 49.6541 140.294 56.6778C132.388 61.6479 129.119 71.6437 128.765 80.9644C128.036 99.9654 137.393 129.137 112.451 137.294C98.8773 141.758 84.1351 134.3 69.9395 135.972C56.7358 137.522 45.7609 148.42 42.2311 160.943C37.4873 177.758 46.4228 187.593 56.7399 199.976C80.9972 229.072 110.863 253.005 144.561 270.352C177.674 287.336 216.789 292.011 247.419 267.294C266.787 251.674 278.543 227.426 299.916 214.678C317.02 204.54 339.043 203.508 357.316 211.284C366.757 215.286 375.085 221.464 384.588 225.503C394.092 229.543 405.461 230.985 414.178 225.594C428.204 216.929 430.071 198.213 442.971 189.372C457.81 179.206 477.047 192.022 490.612 199.211C502.694 205.602 520.645 211.687 532.925 202.721C540.047 197.519 543.071 188.421 544.644 179.768C546.217 171.115 546.821 162.049 550.764 154.175C556.595 142.534 568.529 135.571 579.052 127.91C596.281 115.379 610.314 90.5738 587.878 74.751C579.403 68.7642 568.32 67.9489 557.976 68.8001C547.633 69.6513 537.288 71.9002 526.992 71.305C507.647 70.1184 494.116 59.0257 481.67 45.352Z" fill="#FAB1A5"/>
<g filter="url(#filter0_ddd_435_17891)">
<path d="M116.842 101.533C148.557 60.0243 195.296 29.2878 249.01 47.8417C265.196 53.4201 282.057 64.5577 299.91 62.5853C317.764 60.6129 331.722 36.875 351.35 45.4191C367.547 52.4606 366.511 74.2012 374.245 87.4627C385.592 106.905 404.436 100.887 420.992 91.1218C432.311 84.408 446.247 77.5154 457.932 83.5599C466.235 87.834 470.348 97.513 471.5 106.769C473.855 125.638 467.033 155.504 492.582 161.493C506.488 164.778 520.537 156.083 534.824 156.533C548.112 156.945 559.98 166.863 564.57 179.037C570.738 195.383 562.678 205.948 553.46 219.17C531.786 250.238 504.081 276.642 471.994 296.814C440.458 316.573 401.888 324.583 369.252 302.583C348.617 288.68 334.825 265.528 312.438 254.659C294.528 246.025 272.499 246.883 254.959 256.197C245.896 260.994 238.128 267.862 229.006 272.701C219.884 277.54 208.68 279.951 199.533 275.327C184.816 267.897 181.352 249.41 167.741 241.706C152.086 232.849 134.018 247.268 121.118 255.592C109.629 262.996 92.2658 270.596 79.2622 262.715C71.7208 258.144 67.9283 249.338 65.6196 240.852C63.311 232.365 61.9318 223.384 57.3281 215.877C50.5211 204.779 38.0341 198.864 26.894 192.133C8.65354 181.125 -7.45315 157.614 13.544 139.926C21.475 133.235 32.4475 131.473 42.8257 131.435C53.2039 131.396 63.7033 132.75 73.9104 131.275C93.083 128.435 105.614 116.223 116.842 101.533Z" fill="#FCF0EE"/>
</g>
</g>
<defs>
<filter id="filter0_ddd_435_17891" x="-2.82534" y="16.5943" width="624.623" height="334.969" filterUnits="userSpaceOnUse" color-interpolation-filters="sRGB">
<feFlood flood-opacity="0" result="BackgroundImageFix"/>
<feColorMatrix in="SourceAlpha" type="matrix" values="0 0 0 0 0 0 0 0 0 0 0 0 0 0 0 0 0 0 127 0" result="hardAlpha"/>
<feOffset dx="12.3068" dy="2.54899"/>
<feGaussianBlur stdDeviation="6.70347"/>
<feColorMatrix type="matrix" values="0 0 0 0 0 0 0 0 0 0 0 0 0 0 0 0 0 0 0.06075 0"/>
<feBlend mode="normal" in2="BackgroundImageFix" result="effect1_dropShadow_435_17891"/>
<feColorMatrix in="SourceAlpha" type="matrix" values="0 0 0 0 0 0 0 0 0 0 0 0 0 0 0 0 0 0 127 0" result="hardAlpha"/>
<feOffset dx="17.6816" dy="3.6622"/>
<feGaussianBlur stdDeviation="10.3645"/>
<feColorMatrix type="matrix" values="0 0 0 0 0 0 0 0 0 0 0 0 0 0 0 0 0 0 0.0728438 0"/>
<feBlend mode="normal" in2="effect1_dropShadow_435_17891" result="effect2_dropShadow_435_17891"/>
<feColorMatrix in="SourceAlpha" type="matrix" values="0 0 0 0 0 0 0 0 0 0 0 0 0 0 0 0 0 0 127 0" result="hardAlpha"/>
<feOffset dx="24.3098" dy="5.03503"/>
<feGaussianBlur stdDeviation="15.3771"/>
<feColorMatrix type="matrix" values="0 0 0 0 0 0 0 0 0 0 0 0 0 0 0 0 0 0 0.09 0"/>
<feBlend mode="normal" in2="effect2_dropShadow_435_17891" result="effect3_dropShadow_435_17891"/>
<feBlend mode="normal" in="SourceGraphic" in2="effect3_dropShadow_435_17891" result="shape"/>
</filter>
</defs>
</svg>
