<svg width="122" height="72" viewBox="0 0 122 72" fill="none" xmlns="http://www.w3.org/2000/svg">
<path d="M46.2192 28.6256L40.0093 31.2731C38.9281 31.7341 37.678 31.2313 37.217 30.1501L30.4507 14.2796C29.6229 12.338 26.778 12.656 26.3994 14.7325L21.1968 43.2647C20.8927 44.9325 22.5655 46.269 24.125 45.6041L30.3349 42.9565C31.4161 42.4956 32.6662 42.9984 33.1272 44.0795L39.8936 59.9501C40.7214 61.8918 43.5662 61.5737 43.9448 59.4973L49.1475 30.9651C49.4515 29.2972 47.7787 27.9607 46.2192 28.6256Z" fill="url(#paint0_linear_5724_86621)"/>
<path d="M49.1475 30.9644L43.9447 59.497C43.7452 60.5927 42.8582 61.1988 41.9434 61.242L39.9832 39.5604C39.8176 37.7288 37.9142 36.591 36.2225 37.3122L34.5493 38.0256C32.8685 38.7422 30.9749 37.6235 30.7914 35.8056L28.4875 12.9867C29.2773 12.9797 30.0739 13.3956 30.4509 14.2799L37.2172 30.1503C37.678 31.2311 38.9279 31.7347 40.0099 31.2734L46.2195 28.6259C47.7783 27.9613 49.4513 29.2967 49.1475 30.9644Z" fill="url(#paint1_linear_5724_86621)"/>
<path d="M35.0706 48.6379L39.8936 59.9504C40.7214 61.892 43.5663 61.574 43.9449 59.4976L46.84 43.6201L35.0706 48.6379Z" fill="url(#paint2_linear_5724_86621)"/>
<path d="M118.912 29.4135L119.206 29.9518C119.5 30.4889 119.941 30.9305 120.478 31.2243L121.017 31.5183C121.567 31.8203 121.567 32.6111 121.017 32.9121L120.478 33.2066C119.941 33.5003 119.5 33.9419 119.206 34.479L118.912 35.0173C118.844 35.1425 118.743 35.2469 118.62 35.3197C118.498 35.3924 118.358 35.4308 118.215 35.4308C118.072 35.4308 117.933 35.3924 117.81 35.3197C117.687 35.2469 117.586 35.1425 117.518 35.0173L117.224 34.479C116.93 33.9419 116.488 33.5003 115.951 33.2066L115.413 32.9121C114.862 32.6111 114.862 31.8198 115.413 31.5183L115.951 31.2243C116.489 30.9307 116.93 30.489 117.224 29.9518L117.518 29.4135C117.586 29.2884 117.687 29.1839 117.81 29.1112C117.933 29.0384 118.072 29 118.215 29C118.358 29 118.498 29.0384 118.62 29.1112C118.743 29.1839 118.844 29.2884 118.912 29.4135Z" fill="#FAAFBD"/>
<path d="M107.434 60.2573L107.617 60.5922C107.8 60.9263 108.074 61.201 108.408 61.3837L108.743 61.5666C109.086 61.7545 109.086 62.2465 108.743 62.4337L108.408 62.6169C108.074 62.7997 107.799 63.0744 107.617 63.4085L107.434 63.7434C107.391 63.8213 107.328 63.8863 107.252 63.9315C107.176 63.9768 107.089 64.0007 107 64.0007C106.911 64.0007 106.824 63.9768 106.748 63.9315C106.672 63.8863 106.609 63.8213 106.567 63.7434L106.383 63.4085C106.201 63.0744 105.926 62.7996 105.592 62.6169L105.257 62.4337C104.914 62.2465 104.914 61.7542 105.257 61.5666L105.592 61.3837C105.926 61.2011 106.201 60.9263 106.384 60.5922L106.567 60.2573C106.609 60.1794 106.672 60.1144 106.748 60.0692C106.824 60.0239 106.911 60 107 60C107.089 60 107.176 60.0239 107.252 60.0692C107.328 60.1144 107.391 60.1794 107.434 60.2573Z" fill="#67A4BA"/>
<path d="M5.95651 25.3806L7.2027 28.9728C7.25608 29.1267 7.36162 29.2486 7.49497 29.3102L10.6083 30.7481C11.0482 30.9513 11.0482 31.6696 10.6083 31.8728L7.49497 33.3107C7.36162 33.3723 7.25608 33.4942 7.2027 33.6481L5.95651 37.2403C5.78042 37.748 5.15783 37.748 4.98173 37.2403L3.73555 33.6481C3.68216 33.4942 3.57662 33.3723 3.44327 33.3107L0.329954 31.8728C-0.109985 31.6696 -0.109985 30.9513 0.329954 30.7481L3.44327 29.3102C3.57662 29.2486 3.68216 29.1267 3.73555 28.9728L4.98173 25.3806C5.15783 24.8731 5.78042 24.8731 5.95651 25.3806Z" fill="#4690A4"/>
<path d="M79.3894 15.6434C72.4422 17.8762 60.3044 18.3681 60.3044 18.3681C60.3044 18.3681 64.4795 15.5949 79.3894 15.6434Z" fill="#DA6668"/>
<path d="M68.6711 16.2335L68.9777 19.0711L71.8885 18.7014L71.4887 15.6914L68.6711 16.2335Z" fill="#102D42"/>
<path d="M69.77 7.87927L67.1877 8.3522L66.9434 6.21709C66.9434 6.21709 67.8218 6.70661 69.6776 6.01611L69.77 7.87927Z" fill="#102D42"/>
<path d="M89.8945 41.5937C89.8945 48.1678 86.6844 53.9555 81.8152 57.3314C79.21 59.1393 76.129 60.2575 72.81 60.429C72.5044 60.4456 72.1987 60.4548 71.8903 60.4548C70.051 60.4548 68.2749 60.1663 66.603 59.6288C59.2376 57.2632 53.8826 50.0835 53.8826 41.5937C53.8826 33.0395 59.3181 25.8173 66.7705 23.5071C68.3948 23.0019 70.1123 22.7327 71.8903 22.7327C72.1987 22.7327 72.5044 22.7428 72.81 22.7585C76.129 22.93 79.21 24.0482 81.8152 25.856C86.6844 29.232 89.8945 35.0197 89.8945 41.5937Z" fill="url(#paint3_linear_5724_86621)"/>
<path d="M81.8143 20.4402C80.1836 19.6465 78.444 19.0629 76.623 18.7227C75.3849 18.4895 74.1111 18.366 72.809 18.366C61.0118 18.366 51.3981 28.3658 51.0128 40.8529C51.0027 41.1119 51 41.3747 51 41.6374C51 42.457 51.0384 43.2701 51.119 44.0675C51.1958 44.8677 51.312 45.655 51.4667 46.4266C51.7595 47.9395 52.1969 49.4016 52.7533 50.7909C53.1523 51.7856 53.6153 52.7416 54.1332 53.6589C54.5542 54.4011 55.0117 55.1174 55.5067 55.8005C59.4919 61.3383 65.7602 64.9088 72.8099 64.9088C74.1121 64.9088 75.3858 64.7853 76.6239 64.552C78.444 64.2119 80.1845 63.6283 81.8152 62.8346C89.3655 59.1774 94.6143 51.061 94.6143 41.6383C94.6143 32.2156 89.3655 24.0992 81.8143 20.4402ZM56.1931 41.9757C56.1931 43.5761 56.3825 45.1314 56.7403 46.6193C57.2353 48.6899 58.0561 50.6342 59.1433 52.3904C59.1881 52.4651 59.2329 52.5361 59.2814 52.607C59.7225 53.304 60.2075 53.9678 60.7355 54.6002C62.6077 56.8653 64.9741 58.6989 67.6727 59.9333C67.3094 59.8458 66.9553 59.7425 66.602 59.6291C63.7845 58.722 61.2598 57.1151 59.221 54.9957C58.6226 54.3771 58.0662 53.7124 57.5583 53.0127C57.3076 52.6725 57.0697 52.3222 56.8446 51.9626C55.8087 50.317 55.0117 48.4889 54.5066 46.5382C54.1012 44.9599 53.8825 43.3042 53.8825 41.5931C53.8825 33.0389 59.318 25.8167 66.7704 23.5065C68.2592 23.0427 69.8295 22.7772 71.4529 22.7422C62.7194 24.7178 56.1931 32.5788 56.1931 41.9757Z" fill="#FAB1A5"/>
<path d="M67.6737 59.9341C67.3104 59.8465 66.9563 59.7433 66.603 59.6299C59.2376 57.2643 53.8826 50.0846 53.8826 41.5948C53.8826 33.0406 59.3181 25.8184 66.7705 23.5081C68.2593 23.0444 69.8287 22.7789 71.4529 22.7439C62.7204 24.7204 56.195 32.5814 56.195 41.9783C56.195 49.9573 60.903 56.8329 67.6737 59.9341Z" fill="#DA6668"/>
<path d="M102.247 41.6383C102.247 49.0587 98.9918 55.6687 93.9196 59.9297C91.5202 61.9449 88.7155 63.4356 85.6573 64.2358C84.4156 64.5631 83.129 64.777 81.814 64.8646C81.3574 64.8941 80.9008 64.9097 80.4378 64.9097H72.8079C74.11 64.9097 75.3838 64.7862 76.6219 64.553C78.442 64.2128 80.1825 63.6292 81.8131 62.8355C82.6687 62.4206 83.495 61.9505 84.2866 61.4259C86.6667 59.8513 88.7412 57.8001 90.3947 55.3958C93.0484 51.5432 94.6141 46.7862 94.6141 41.6374C94.6141 32.2147 89.3652 24.0983 81.8131 20.4402C80.1825 19.6465 78.4429 19.0629 76.6219 18.7227C75.3838 18.4895 74.11 18.366 72.8079 18.366L79.2335 18.4019L81.8131 18.4148C93.2186 19.1708 102.247 29.2803 102.247 41.6383Z" fill="#DA6668"/>
<path d="M100.215 41.6391C100.215 53.9971 91.1872 64.1066 79.7826 64.8654C79.326 64.8949 78.8694 64.9105 78.4063 64.9105H77.2771C77.7402 64.9105 78.1968 64.8939 78.6507 64.8654C90.0589 64.1076 99.087 53.998 99.087 41.6391C99.087 29.2802 90.0589 19.1716 78.6507 18.4165L76.0711 18.4036L71.3529 18.3778C71.1635 18.3714 70.9704 18.3677 70.7773 18.3677L77.203 18.4036L79.7826 18.4165C91.1872 19.1716 100.215 29.2811 100.215 41.6391Z" fill="#102D42"/>
<path d="M81.8154 18.4165L79.2358 18.4036C79.6348 18.3806 80.0365 18.3677 80.4392 18.3677C80.9022 18.3677 81.3588 18.3843 81.8154 18.4165Z" fill="url(#paint4_linear_5724_86621)"/>
<path d="M81.8155 64.8652V64.9104H80.4392C80.9022 64.9104 81.3589 64.8947 81.8155 64.8652Z" fill="url(#paint5_linear_5724_86621)"/>
<path d="M78.2488 64.9106L79.0193 67.5583L80.1823 69.9027C80.1823 69.9027 79.6205 72 81.1267 72C82.6329 72 83.1216 70.89 82.3868 69.8409V66.6945L81.8148 64.2266L78.2488 64.9106Z" fill="#102D42"/>
<path d="M56.6697 57.29L58.9299 59.5892L56.2414 61.4506C56.2414 61.4506 55.8132 62.9929 54.2209 61.882C52.6287 60.772 53.9144 59.7893 54.6492 59.7865L56.6697 57.29Z" fill="#102D42"/>
<path d="M84.2778 20.4834L86.0137 16.9517L86.7119 17.3038L85.1261 20.4834H84.2778Z" fill="#233F52"/>
<path d="M83.63 15.9119L88.0681 17.9013C88.0681 17.9013 89.8955 17.4192 89.8955 15.6915L84.6942 13.6514C84.6942 13.6514 83.856 13.8256 83.63 14.6387C83.404 15.4509 83.63 15.9119 83.63 15.9119Z" fill="#233F52"/>
<path d="M89.8946 41.5939C89.8946 48.1679 86.6845 53.9556 81.8154 57.3316C79.2101 59.1394 76.1291 60.2577 72.8101 60.4291C72.5045 60.4457 72.1988 60.4549 71.8904 60.4549C70.4364 60.4549 69.0244 60.277 67.6738 59.9332C60.9031 56.8319 56.1951 49.9564 56.1951 41.9755C56.1951 32.5787 62.7205 24.7176 71.453 22.7411C71.5976 22.7346 71.7459 22.731 71.8904 22.731C72.1988 22.731 72.5045 22.7411 72.8101 22.7568C76.1291 22.9282 79.2101 24.0465 81.8154 25.8543C86.6845 29.2322 89.8946 35.0198 89.8946 41.5939Z" fill="#FCF0EE"/>
<path d="M103.619 17.0302L103.124 17.8949C102.146 18.0148 100.682 16.3784 100.593 16.2779L100.589 16.2751C100.869 15.8667 101.753 14.3281 103.001 15.1375C104.248 15.9442 103.619 17.0302 103.619 17.0302Z" fill="#233F52"/>
<path d="M73.0165 7.53193C71.626 8.45893 67.8021 8.69068 66.064 8.69068V7.53193C71.8578 6.95255 71.2784 6.95255 71.8578 6.37317C73.7118 2.20164 75.7203 0.772505 76.4928 0.579379C76.879 0.386253 78.0798 0 79.3897 0C90.6487 2.02549e-06 95.6123 4.63503 97.3504 5.79379C98.7139 6.70279 99.0886 9.27006 99.0886 12.7463C99.0886 15.5274 102.179 17.3814 103.724 17.9607V19.1195L103.144 19.6989C102.758 19.3126 101.754 18.4242 100.827 17.9607C99.6679 17.3814 97.3504 15.0639 97.3504 12.7463C97.3504 10.4288 97.3504 8.69068 96.771 7.53193C96.1917 6.37317 93.8741 5.21441 91.5566 4.05565C89.6882 3.12143 82.2866 0.579379 79.3897 1.15876C75.9809 1.84051 74.7546 5.21441 73.0165 7.53193Z" fill="#233F52"/>
<path d="M82.7349 19.8198C82.7349 19.8198 85.4764 20.833 86.6367 21.7263L86.9396 21.4377C86.9396 21.4377 84.4506 20.0835 83.1924 19.6797L82.7349 19.8198Z" fill="#102D42"/>
<path d="M74.0256 50.6379C73.9157 50.6379 73.8068 50.6361 73.698 50.6315C73.6092 50.6278 73.5406 50.5522 73.5433 50.4628C73.547 50.3734 73.6257 50.3005 73.7108 50.307C73.8151 50.3107 73.9203 50.3134 74.0256 50.3134C74.1143 50.3134 74.1866 50.3863 74.1866 50.4757C74.1866 50.5651 74.1143 50.6379 74.0256 50.6379ZM75.6224 50.4794C75.5473 50.4794 75.4805 50.4259 75.465 50.3494C75.4476 50.2618 75.5043 50.1761 75.5912 50.1586C75.6946 50.1383 75.7971 50.1152 75.8987 50.0903C75.9856 50.0691 76.0717 50.1226 76.0927 50.2093C76.1138 50.2959 76.0607 50.3835 75.9747 50.4047C75.8685 50.4305 75.7614 50.4545 75.6544 50.4757C75.6434 50.4784 75.6333 50.4794 75.6224 50.4794ZM72.1149 50.4084C72.1021 50.4084 72.0893 50.4065 72.0774 50.4038C71.9703 50.378 71.8641 50.3494 71.7589 50.319C71.6738 50.2941 71.6244 50.2046 71.6491 50.1189C71.6729 50.0332 71.7617 49.9834 71.8477 50.0083C71.9483 50.0378 72.0508 50.0645 72.1533 50.0894C72.2393 50.1106 72.2924 50.1982 72.2723 50.2849C72.253 50.3586 72.1872 50.4084 72.1149 50.4084ZM77.4516 49.8764C77.3912 49.8764 77.3326 49.8414 77.3052 49.7824C77.2677 49.7013 77.3024 49.6045 77.383 49.5676C77.4781 49.5234 77.5724 49.4763 77.6657 49.4284C77.7444 49.3869 77.8423 49.4192 77.8826 49.4985C77.9229 49.5778 77.8917 49.6755 77.813 49.717C77.716 49.7667 77.6181 49.8156 77.5184 49.8617C77.4973 49.8718 77.4745 49.8764 77.4516 49.8764ZM70.3103 49.7308C70.2856 49.7308 70.2609 49.7253 70.2371 49.7133C70.1401 49.6626 70.0431 49.6109 69.948 49.5566C69.8711 49.5123 69.8437 49.4137 69.8867 49.3353C69.9306 49.2579 70.0285 49.2302 70.1063 49.2735C70.1978 49.3261 70.2902 49.3759 70.3835 49.4247C70.4622 49.4653 70.4934 49.563 70.4531 49.6432C70.4247 49.6994 70.368 49.7308 70.3103 49.7308ZM79.0914 48.8614C79.0438 48.8614 78.9962 48.8402 78.9651 48.7997C78.9102 48.7296 78.9221 48.6273 78.9926 48.572C79.0749 48.5065 79.1564 48.4392 79.2369 48.371C79.3046 48.3129 79.4062 48.3212 79.4638 48.3894C79.5215 48.4577 79.5133 48.56 79.4455 48.6181C79.3623 48.6891 79.2781 48.7591 79.1921 48.8273C79.1619 48.8504 79.1262 48.8614 79.0914 48.8614ZM68.7108 48.6513C68.6742 48.6513 68.6367 48.6383 68.6065 48.6125C68.5232 48.5415 68.4418 48.4687 68.3612 48.394C68.2953 48.3332 68.2917 48.2309 68.3512 48.1654C68.4116 48.1 68.5131 48.0953 68.5781 48.1553C68.6559 48.2272 68.7346 48.2972 68.8142 48.3655C68.8819 48.4235 68.8901 48.5259 68.8325 48.5941C68.8014 48.6319 68.7556 48.6513 68.7108 48.6513ZM80.4622 47.4998C80.4265 47.4998 80.3908 47.4878 80.3615 47.4638C80.292 47.4076 80.2819 47.3053 80.3377 47.2361C80.4036 47.1532 80.4686 47.0702 80.5327 46.9845C80.5857 46.9126 80.6873 46.8987 80.7578 46.9522C80.8291 47.0057 80.8429 47.108 80.7898 47.179C80.7239 47.2675 80.6571 47.3541 80.5876 47.439C80.5555 47.4786 80.5098 47.4998 80.4622 47.4998ZM67.3922 47.238C67.3428 47.238 67.2952 47.2159 67.2631 47.1735C67.1982 47.0859 67.1341 46.9974 67.0719 46.907C67.0216 46.8333 67.0389 46.7328 67.1122 46.6812C67.1854 46.6295 67.2851 46.648 67.3363 46.7217C67.3967 46.8093 67.4581 46.895 67.5212 46.9789C67.5743 47.0508 67.5605 47.1522 67.4892 47.2057C67.459 47.2278 67.426 47.238 67.3922 47.238ZM81.5045 45.8671C81.4807 45.8671 81.456 45.8616 81.4331 45.8496C81.3535 45.81 81.3214 45.7122 81.3608 45.632C81.4075 45.5371 81.4532 45.4412 81.4962 45.3444C81.5328 45.2624 81.628 45.2264 81.7094 45.2633C81.7909 45.3002 81.8266 45.396 81.79 45.4781C81.7451 45.5786 81.6975 45.6781 81.649 45.7768C81.6207 45.8339 81.5639 45.8671 81.5045 45.8671ZM66.4121 45.5694C66.3508 45.5694 66.2922 45.5343 66.2657 45.4744C66.2209 45.3748 66.1779 45.2734 66.1358 45.172C66.1019 45.089 66.1413 44.995 66.2236 44.9609C66.306 44.9259 66.3993 44.9664 66.4332 45.0494C66.4734 45.148 66.5155 45.2448 66.5585 45.3416C66.5951 45.4228 66.5594 45.5196 66.478 45.5564C66.457 45.5647 66.4341 45.5694 66.4121 45.5694ZM82.1725 44.0464C82.1597 44.0464 82.1459 44.0445 82.1331 44.0418C82.0471 44.0196 81.9949 43.9321 82.016 43.8454C82.0416 43.7431 82.0654 43.6398 82.0874 43.5357C82.1057 43.4481 82.1908 43.3909 82.2786 43.4112C82.3655 43.4296 82.4205 43.5163 82.4022 43.6039C82.3793 43.7117 82.3546 43.8187 82.328 43.9247C82.3097 43.9975 82.2438 44.0464 82.1725 44.0464ZM65.81 43.7265C65.7359 43.7265 65.6691 43.6749 65.6526 43.5983C65.6297 43.4914 65.6087 43.3835 65.5904 43.2748C65.5748 43.1863 65.6334 43.1024 65.7203 43.0867C65.8073 43.071 65.8914 43.13 65.907 43.2176C65.9253 43.3227 65.9454 43.4269 65.9674 43.5301C65.9857 43.6177 65.9308 43.7034 65.8439 43.7228C65.8329 43.7256 65.8219 43.7265 65.81 43.7265ZM82.4406 42.1251C82.4388 42.1251 82.4369 42.1251 82.4351 42.1251C82.3463 42.1224 82.2768 42.0468 82.2804 41.9574C82.2841 41.8513 82.2859 41.7453 82.2859 41.6393C82.2859 41.5499 82.3582 41.4771 82.447 41.4771C82.5358 41.4771 82.608 41.5499 82.608 41.6393C82.608 41.7499 82.6062 41.8596 82.6026 41.9684C82.598 42.0569 82.5266 42.1251 82.4406 42.1251ZM65.6105 41.797C65.5218 41.797 65.4495 41.7241 65.4495 41.6347C65.4495 41.5241 65.4513 41.4144 65.4559 41.3047C65.4586 41.2152 65.5318 41.1452 65.6224 41.1489C65.7112 41.1516 65.7807 41.2272 65.7771 41.3166C65.7734 41.4217 65.7716 41.5278 65.7716 41.6347C65.7707 41.725 65.6993 41.797 65.6105 41.797ZM82.3079 40.1984C82.231 40.1984 82.1633 40.1431 82.1496 40.0647C82.1313 39.9596 82.1112 39.8554 82.0892 39.7522C82.0709 39.6646 82.1258 39.5789 82.2127 39.5595C82.2987 39.5392 82.3848 39.5964 82.404 39.684C82.4269 39.7909 82.4479 39.8988 82.4662 40.0076C82.4818 40.0961 82.4232 40.1799 82.3363 40.1956C82.3271 40.1975 82.317 40.1984 82.3079 40.1984ZM65.8127 39.8683C65.8018 39.8683 65.7899 39.8674 65.7789 39.8647C65.692 39.8462 65.6371 39.7596 65.6554 39.672C65.6782 39.5641 65.7029 39.4572 65.7295 39.3502C65.7514 39.2636 65.8384 39.211 65.9244 39.2332C66.0104 39.2553 66.0626 39.3429 66.0406 39.4295C66.015 39.5319 65.9912 39.6351 65.9692 39.7393C65.9537 39.8158 65.8869 39.8683 65.8127 39.8683ZM81.7735 38.3352C81.7104 38.3352 81.65 38.2974 81.6243 38.2347C81.5841 38.1361 81.5429 38.0393 81.499 37.9425C81.4624 37.8614 81.4981 37.7646 81.5795 37.7277C81.66 37.6908 81.7561 37.7268 81.7927 37.8088C81.8376 37.9084 81.8806 38.0098 81.9227 38.1112C81.9565 38.1942 81.9172 38.2882 81.8348 38.3223C81.8147 38.3315 81.7945 38.3352 81.7735 38.3352ZM66.4149 38.0255C66.3929 38.0255 66.37 38.0209 66.3481 38.0107C66.2675 37.9739 66.2319 37.878 66.2685 37.7959C66.3142 37.6954 66.3609 37.5959 66.4094 37.4972C66.4496 37.417 66.5457 37.3848 66.6253 37.4244C66.7049 37.464 66.737 37.5618 66.6976 37.642C66.651 37.7369 66.6052 37.8328 66.5613 37.9305C66.5347 37.9904 66.4762 38.0255 66.4149 38.0255ZM80.8557 36.6306C80.8044 36.6306 80.755 36.6067 80.723 36.5606C80.6626 36.4739 80.6013 36.3873 80.5391 36.3034C80.486 36.2315 80.4997 36.1301 80.5711 36.0766C80.6415 36.0222 80.7431 36.0369 80.7962 36.1089C80.8612 36.1964 80.9252 36.2859 80.9874 36.3762C81.0378 36.45 81.0204 36.5504 80.9472 36.6021C80.9188 36.6214 80.8868 36.6306 80.8557 36.6306ZM67.3986 36.3559C67.3647 36.3559 67.3309 36.3458 67.3025 36.3237C67.2311 36.2702 67.2174 36.1679 67.2705 36.0969C67.3363 36.0084 67.4041 35.9217 67.4727 35.836C67.5285 35.7668 67.6301 35.7558 67.6987 35.8129C67.7673 35.8692 67.7783 35.9715 67.7216 36.0406C67.6557 36.1227 67.5907 36.2066 67.5276 36.2914C67.4956 36.3338 67.4471 36.3559 67.3986 36.3559ZM79.5901 35.1685C79.5517 35.1685 79.5123 35.1547 79.4812 35.1261C79.4034 35.0542 79.3248 34.9841 79.2451 34.9159C79.1774 34.8578 79.1692 34.7555 79.2268 34.6873C79.2845 34.6191 79.3861 34.6108 79.4538 34.6689C79.5371 34.7398 79.6185 34.8127 79.699 34.8873C79.7649 34.9482 79.7686 35.0505 79.7091 35.116C79.6771 35.151 79.634 35.1685 79.5901 35.1685ZM68.719 34.9445C68.6733 34.9445 68.6284 34.9251 68.5964 34.8873C68.5388 34.8191 68.547 34.7168 68.6147 34.6587C68.698 34.5877 68.7831 34.5177 68.8691 34.4494C68.9396 34.3941 69.0402 34.407 69.0951 34.4771C69.15 34.5472 69.1381 34.6495 69.0677 34.7048C68.9853 34.7703 68.903 34.8366 68.8233 34.9058C68.7931 34.9316 68.7565 34.9445 68.719 34.9445ZM78.0336 34.0281C78.007 34.0281 77.9796 34.0217 77.9549 34.0069C77.8634 33.9553 77.771 33.9046 77.6776 33.8557C77.5989 33.8152 77.5678 33.7175 77.6081 33.6373C77.6483 33.558 77.7462 33.5266 77.8249 33.5672C77.9219 33.6179 78.018 33.6695 78.1132 33.7239C78.1901 33.7682 78.2175 33.8668 78.1736 33.9442C78.1443 33.9986 78.0894 34.0281 78.0336 34.0281ZM70.3204 33.8668C70.2618 33.8668 70.206 33.8345 70.1767 33.7783C70.1365 33.699 70.1676 33.6013 70.2472 33.5607C70.3442 33.5109 70.4421 33.463 70.5409 33.416C70.6215 33.3782 70.7176 33.4132 70.7542 33.4944C70.7908 33.5755 70.7569 33.6723 70.6764 33.7092C70.5812 33.7534 70.487 33.8004 70.3936 33.8484C70.3698 33.8613 70.3451 33.8668 70.3204 33.8668ZM76.2583 33.2786C76.2437 33.2786 76.2291 33.2768 76.2144 33.2722C76.1138 33.2427 76.0113 33.2159 75.9088 33.1911C75.8228 33.1699 75.7697 33.0823 75.7907 32.9956C75.8118 32.909 75.8978 32.8555 75.9847 32.8767C76.0918 32.9025 76.1979 32.9311 76.3032 32.9615C76.3883 32.9864 76.4377 33.0758 76.413 33.1616C76.3919 33.2325 76.3279 33.2786 76.2583 33.2786ZM72.124 33.1929C72.0517 33.1929 71.9858 33.1431 71.9675 33.0684C71.9465 32.9818 72.0005 32.8942 72.0865 32.873C72.1927 32.8472 72.2997 32.8232 72.4068 32.802C72.4946 32.7836 72.5788 32.8417 72.5962 32.9292C72.6136 33.0168 72.5569 33.1025 72.4699 33.1201C72.3665 33.1413 72.264 33.1634 72.1615 33.1883C72.1496 33.1911 72.1368 33.1929 72.124 33.1929ZM74.3568 32.9726C74.355 32.9726 74.3522 32.9726 74.3504 32.9726C74.2461 32.9689 74.1408 32.9661 74.0356 32.9661C73.9469 32.9661 73.8746 32.8933 73.8746 32.8039C73.8746 32.7144 73.9469 32.6416 74.0356 32.6416C74.1454 32.6416 74.2543 32.6444 74.3632 32.6481C74.452 32.6517 74.5206 32.7273 74.5179 32.8168C74.5142 32.9034 74.4428 32.9726 74.3568 32.9726Z" fill="#48687F"/>
<path d="M73.2109 43.1171C74.3005 43.1171 75.1838 42.2272 75.1838 41.1295C75.1838 40.0317 74.3005 39.1418 73.2109 39.1418C72.1213 39.1418 71.238 40.0317 71.238 41.1295C71.238 42.2272 72.1213 43.1171 73.2109 43.1171Z" fill="#48687F"/>
<path d="M71.0405 45.3819L75.1419 33.7051C75.1419 33.7051 74.6066 32.8459 75.3716 32.0429C76.1366 31.24 77.5504 26.8877 77.5504 26.8877C77.5504 26.8877 76.6326 31.7406 76.7094 32.2411C76.7863 32.7417 76.6069 33.7752 75.7916 33.9743L73.2038 41.1568L71.5868 45.6446L71.0405 45.3819Z" fill="#102D42"/>
<path d="M68.8722 39.5591L73.2042 41.1568L72.9736 41.7975L68.6819 40.1759C68.6819 40.1759 67.6698 40.8811 66.8087 40.0219C65.9476 39.1627 63.4824 37.8269 63.4824 37.8269C63.4824 37.8269 66.5406 38.4815 67.4584 38.3275C68.3753 38.1726 69.0635 38.9424 68.8722 39.5591Z" fill="#102D42"/>
<path d="M102.565 31.9949C94.2216 30.1409 88.6595 22.3385 86.9214 18.6691C86.9214 17.8966 89.0244 15.9308 92.7152 15.1929C98.509 14.0345 103.911 20.8557 104.882 23.1751C106.041 25.9428 104.882 30.8361 102.565 31.9949Z" fill="#FAB1A5"/>
<path d="M79.6024 15.7626C70.7978 15.5766 62.7631 17.3631 60.4257 18.2796C59.9199 14.792 60.0894 12.6196 63.5055 9.65202C67.3452 6.31643 74.9341 7.90606 77.383 11.1041C79.1874 13.4605 79.6024 15.247 79.6024 15.7626Z" fill="#FAB1A5"/>
<defs>
<linearGradient id="paint0_linear_5724_86621" x1="23.0258" y1="32.2298" x2="52.7048" y2="44.1661" gradientUnits="userSpaceOnUse">
<stop stop-color="#FEE97D"/>
<stop offset="1" stop-color="#FAC600"/>
</linearGradient>
<linearGradient id="paint1_linear_5724_86621" x1="43.9503" y1="33.4661" x2="22.8372" y2="42.4676" gradientUnits="userSpaceOnUse">
<stop stop-color="#FAC600" stop-opacity="0"/>
<stop offset="0.6899" stop-color="#D68C3D" stop-opacity="0.69"/>
<stop offset="1" stop-color="#C5715A"/>
</linearGradient>
<linearGradient id="paint2_linear_5724_86621" x1="42.4292" y1="49.586" x2="46.2587" y2="58.5681" gradientUnits="userSpaceOnUse">
<stop stop-color="#FAC600" stop-opacity="0"/>
<stop offset="0.6899" stop-color="#D68C3D" stop-opacity="0.69"/>
<stop offset="1" stop-color="#C5715A"/>
</linearGradient>
<linearGradient id="paint3_linear_5724_86621" x1="53.8822" y1="41.5939" x2="89.8946" y2="41.5939" gradientUnits="userSpaceOnUse">
<stop offset="0.2156" stop-color="#5069BE"/>
<stop offset="1" stop-color="#25375E"/>
</linearGradient>
<linearGradient id="paint4_linear_5724_86621" x1="79.2361" y1="18.3924" x2="81.8155" y2="18.3924" gradientUnits="userSpaceOnUse">
<stop offset="0.2156" stop-color="#5069BE"/>
<stop offset="1" stop-color="#25375E"/>
</linearGradient>
<linearGradient id="paint5_linear_5724_86621" x1="80.439" y1="64.888" x2="81.8156" y2="64.888" gradientUnits="userSpaceOnUse">
<stop offset="0.2156" stop-color="#5069BE"/>
<stop offset="1" stop-color="#25375E"/>
</linearGradient>
</defs>
</svg>
