<svg width="890" height="807" viewBox="0 0 890 807" fill="none" xmlns="http://www.w3.org/2000/svg">
<mask id="mask0_435_17830" style="mask-type:alpha" maskUnits="userSpaceOnUse" x="0" y="0" width="890" height="807">
<rect width="890" height="806.652" fill="#C4C4C4"/>
</mask>
<g mask="url(#mask0_435_17830)">
<path d="M1246.18 124.752C1155.23 24.7872 1027.93 -44.0783 893.588 15.6582C853.1 33.6268 812.11 66.0744 765.65 64.9491C719.191 63.8237 677.949 5.7298 629.25 32.1059C589.059 53.848 596.551 109.659 579.555 145.558C554.618 198.191 504.71 186.855 459.867 165.355C429.202 150.559 391.75 135.882 362.971 154.054C342.515 166.912 334.059 192.774 333.142 216.888C331.256 266.048 355.464 341.522 290.935 362.624C255.817 374.174 217.675 354.878 180.948 359.205C146.787 363.215 118.393 391.41 109.261 423.81C96.9878 467.312 120.106 492.759 146.798 524.798C209.557 600.073 286.825 661.993 374.009 706.874C459.68 750.814 560.878 762.91 640.124 698.963C690.234 658.551 720.65 595.815 775.947 562.835C820.199 536.605 877.175 533.933 924.452 554.053C948.878 564.408 970.423 580.39 995.01 590.841C1019.6 601.292 1049.01 605.023 1071.56 591.075C1107.85 568.658 1112.68 520.236 1146.06 497.361C1184.45 471.059 1234.22 504.219 1269.32 522.816C1300.57 539.353 1347.02 555.095 1378.79 531.897C1397.21 518.44 1405.04 494.902 1409.11 472.514C1413.18 450.126 1414.74 426.67 1424.94 406.299C1440.03 376.181 1470.9 358.166 1498.13 338.346C1542.71 305.927 1579.01 241.75 1520.96 200.813C1499.04 185.324 1470.36 183.215 1443.6 185.417C1416.84 187.619 1390.08 193.437 1363.44 191.897C1313.39 188.828 1278.38 160.128 1246.18 124.752Z" fill="#FAB1A5"/>
<g filter="url(#filter0_ddd_435_17830)">
<path d="M302.294 270.104C384.346 162.712 505.27 83.1902 644.24 131.193C686.118 145.626 729.739 174.441 775.931 169.338C822.122 164.235 858.234 102.82 909.015 124.925C950.921 143.143 948.24 199.391 968.25 233.701C997.606 284.003 1046.36 268.431 1089.19 243.168C1118.48 225.798 1154.53 207.965 1184.77 223.603C1206.25 234.662 1216.89 259.703 1219.87 283.65C1225.96 332.467 1208.31 409.738 1274.41 425.233C1310.39 433.731 1346.74 411.236 1383.7 412.4C1418.08 413.467 1448.79 439.125 1460.66 470.623C1476.62 512.914 1455.77 540.248 1431.92 574.456C1375.84 654.834 1304.16 723.147 1221.15 775.336C1139.56 826.457 1039.77 847.18 955.333 790.261C901.943 754.292 866.263 694.394 808.343 666.274C762.006 643.934 705.01 646.155 659.632 670.252C636.183 682.662 616.087 700.432 592.486 712.952C568.884 725.472 539.898 731.71 516.233 719.746C478.156 700.521 469.194 652.692 433.981 632.761C393.477 609.846 346.733 647.15 313.358 668.686C283.633 687.842 238.71 707.506 205.067 687.116C185.556 675.288 175.744 652.507 169.771 630.55C163.798 608.593 160.23 585.358 148.319 565.936C130.708 537.221 98.4017 521.919 69.5797 504.505C22.3879 476.025 -19.2835 415.196 35.0405 369.435C55.5596 352.124 83.9478 347.565 110.798 347.465C137.649 347.366 164.813 350.869 191.221 347.052C240.825 339.704 273.244 308.11 302.294 270.104Z" fill="#FCF0EE"/>
</g>
</g>
<defs>
<filter id="filter0_ddd_435_17830" x="-7.30001" y="50.3929" width="1615.93" height="866.532" filterUnits="userSpaceOnUse" color-interpolation-filters="sRGB">
<feFlood flood-opacity="0" result="BackgroundImageFix"/>
<feColorMatrix in="SourceAlpha" type="matrix" values="0 0 0 0 0 0 0 0 0 0 0 0 0 0 0 0 0 0 127 0" result="hardAlpha"/>
<feOffset dx="31.8195" dy="6.59044"/>
<feGaussianBlur stdDeviation="17.3319"/>
<feColorMatrix type="matrix" values="0 0 0 0 0 0 0 0 0 0 0 0 0 0 0 0 0 0 0.06075 0"/>
<feBlend mode="normal" in2="BackgroundImageFix" result="effect1_dropShadow_435_17830"/>
<feColorMatrix in="SourceAlpha" type="matrix" values="0 0 0 0 0 0 0 0 0 0 0 0 0 0 0 0 0 0 127 0" result="hardAlpha"/>
<feOffset dx="45.716" dy="9.46868"/>
<feGaussianBlur stdDeviation="26.7977"/>
<feColorMatrix type="matrix" values="0 0 0 0 0 0 0 0 0 0 0 0 0 0 0 0 0 0 0.0728438 0"/>
<feBlend mode="normal" in2="effect1_dropShadow_435_17830" result="effect2_dropShadow_435_17830"/>
<feColorMatrix in="SourceAlpha" type="matrix" values="0 0 0 0 0 0 0 0 0 0 0 0 0 0 0 0 0 0 127 0" result="hardAlpha"/>
<feOffset dx="62.8533" dy="13.0182"/>
<feGaussianBlur stdDeviation="39.7578"/>
<feColorMatrix type="matrix" values="0 0 0 0 0 0 0 0 0 0 0 0 0 0 0 0 0 0 0.09 0"/>
<feBlend mode="normal" in2="effect2_dropShadow_435_17830" result="effect3_dropShadow_435_17830"/>
<feBlend mode="normal" in="SourceGraphic" in2="effect3_dropShadow_435_17830" result="shape"/>
</filter>
</defs>
</svg>
