<svg width="321" height="313" viewBox="0 0 321 313" fill="none" xmlns="http://www.w3.org/2000/svg">
<path d="M282.338 269.81C276.035 276.363 270.07 280.59 265.365 283.926C209.99 323.175 144.455 311.733 130.524 308.94C109.954 304.811 70.205 296.835 41.4636 263.453C-2.02355 212.936 4.75705 133.351 38.4753 80.8227C44.6474 71.2169 77.2356 17.874 143.466 9.32219C183.563 4.14981 230.288 14.5924 264.126 42.5949C335.148 101.382 330.095 220.14 282.338 269.81Z" fill="#F4FCFF"/>
<path d="M83.7829 288.44C88.9971 289.245 93.4219 284.848 92.8759 279.601C88.4122 236.697 69.5633 197.805 13.1625 169.362C11.9504 168.75 11.2395 169.063 11.171 170.419C10.4277 185.133 8.90186 276.889 83.7829 288.44Z" fill="url(#paint0_linear_139_498)"/>
<path opacity="0.51" d="M76.5626 268.956C76.4302 268.956 76.3126 268.912 76.2096 268.809C41.0244 234.462 19.0336 184.067 18.813 183.567C18.71 183.317 18.813 183.023 19.0777 182.905C19.3278 182.802 19.622 182.905 19.7397 183.17C19.9603 183.67 41.8628 233.889 76.9157 268.088C77.1069 268.28 77.1216 268.603 76.9304 268.794C76.8274 268.897 76.695 268.956 76.5626 268.956Z" fill="white"/>
<path d="M204.626 276.909C203.005 281.93 206.707 286.97 211.979 287.171C249.846 288.614 286.102 277.174 318.271 232.889C319.978 230.538 319.285 228.701 316.423 228.201C297.403 224.874 224.189 216.308 204.626 276.909Z" fill="url(#paint1_linear_139_498)"/>
<path opacity="0.51" d="M226.218 272.634C226.1 272.634 225.982 272.59 225.894 272.516C225.688 272.34 225.659 272.016 225.835 271.81C238.544 256.836 259.343 247.319 274.553 241.979C291.013 236.198 304.664 233.904 304.796 233.889C305.075 233.845 305.325 234.036 305.37 234.301C305.414 234.58 305.237 234.83 304.958 234.874C304.413 234.963 250.65 244.112 226.6 272.457C226.512 272.575 226.365 272.634 226.218 272.634Z" fill="white"/>
<path d="M192.873 279.286C194.227 284.386 200.003 286.706 204.619 284.151C243.244 262.781 272.846 230.185 279.489 169.006C280.162 162.801 274.22 158.331 268.524 160.88C240.541 173.402 174.681 210.787 192.873 279.286Z" fill="url(#paint2_linear_139_498)"/>
<path opacity="0.51" d="M203.241 271.928C203.182 271.928 203.124 271.913 203.079 271.898C202.815 271.81 202.682 271.516 202.771 271.266C213.656 240.243 229.821 216.326 241.471 201.734C254.092 185.906 264.301 177.301 264.389 177.213C264.595 177.036 264.918 177.066 265.095 177.272C265.271 177.478 265.242 177.801 265.036 177.978C264.639 178.316 224.438 212.501 203.712 271.589C203.638 271.795 203.447 271.928 203.241 271.928Z" fill="white"/>
<path d="M276.58 61.4272H27.751C23.4765 61.4272 20 64.9038 20 69.1782V244.943C20 249.217 23.4765 252.694 27.751 252.694H123.213C123.213 252.694 129.311 271.501 110.447 281.19H199.754C199.754 281.19 178.496 273.895 183.967 252.694H276.523C280.797 252.694 284.274 249.217 284.274 244.943V69.1782C284.331 64.9038 280.854 61.4272 276.58 61.4272Z" fill="#035970"/>
<path d="M155.47 234.228C158.833 239.072 153.533 244.373 148.745 240.953C148.574 240.839 148.46 240.668 148.346 240.554C144.984 235.71 150.284 230.409 155.071 233.829C155.242 233.886 155.356 234.057 155.47 234.228Z" fill="#77C2D7"/>
<path d="M280.056 220.114H24.2741V69.7106C24.2741 66.633 26.7248 64.1824 29.8024 64.1824H274.528C277.605 64.1824 280.056 66.633 280.056 69.7106V220.114Z" fill="white"/>
<path d="M280.056 77.6132H24.2741V69.8622C24.2741 66.9556 26.6108 64.6189 29.5174 64.6189H275.782C278.175 64.6189 280.056 66.5566 280.056 68.8933V77.6132Z" fill="#F1F5F8"/>
<path d="M32.4241 73.2247C33.4313 73.2247 34.2479 72.4081 34.2479 71.4009C34.2479 70.3937 33.4313 69.5771 32.4241 69.5771C31.4169 69.5771 30.6003 70.3937 30.6003 71.4009C30.6003 72.4081 31.4169 73.2247 32.4241 73.2247Z" fill="#F2385A"/>
<path d="M37.7814 73.2247C38.7886 73.2247 39.6052 72.4081 39.6052 71.4009C39.6052 70.3937 38.7886 69.5771 37.7814 69.5771C36.7742 69.5771 35.9576 70.3937 35.9576 71.4009C35.9576 72.4081 36.7742 73.2247 37.7814 73.2247Z" fill="#F2BE38"/>
<path d="M42.8535 73.2247C43.8608 73.2247 44.6773 72.4081 44.6773 71.4009C44.6773 70.3937 43.8608 69.5771 42.8535 69.5771C41.8463 69.5771 41.0298 70.3937 41.0298 71.4009C41.0298 72.4081 41.8463 73.2247 42.8535 73.2247Z" fill="#20C9AD"/>
<path d="M232.069 252.694C232.069 252.751 196.677 252.865 153.02 252.865C109.364 252.865 73.9719 252.808 73.9719 252.694C73.9719 252.637 109.364 252.523 153.02 252.523C196.677 252.58 232.069 252.637 232.069 252.694Z" fill="#102D42"/>
<mask id="mask0_139_498" style="mask-type:alpha" maskUnits="userSpaceOnUse" x="23" y="64" width="257" height="157">
<path d="M279.666 220.85H23.8844V70.4467C23.8844 67.3691 26.3351 64.9185 29.4127 64.9185H274.138C277.216 64.9185 279.666 67.3691 279.666 70.4467V220.85Z" fill="white"/>
</mask>
<g mask="url(#mask0_139_498)">
</g>
<rect x="92.1796" y="280.491" width="122.018" height="8.59282" fill="#102D42"/>
<path d="M111.14 3.1802L0.831232 188.523C-1.59313 192.599 1.57369 197.569 6.60425 197.614L225.267 199.417C230.328 199.463 233.585 194.493 231.206 190.387L122.852 3.24082C120.368 -1.04728 113.685 -1.09274 111.14 3.1802Z" fill="#FAB1A5"/>
<path d="M111.7 14.2569L11.5136 182.584C9.31648 186.281 12.1954 190.796 16.7562 190.841L215.342 192.478C219.933 192.508 222.888 188.008 220.736 184.281L122.337 14.3175C120.08 10.4082 114.004 10.3779 111.7 14.2569Z" fill="#FCF0EE"/>
<path d="M79.3722 179.317L66.3412 179.741V156.467L79.3722 156.179V160.195L71.1597 160.392V165.498L78.8116 165.301V169.332L71.1597 169.544V175.529L79.3722 175.286V179.317Z" fill="#DA6668"/>
<path d="M89.5697 170.15V178.999L84.827 179.151V156.059L91.3425 155.907C94.373 155.847 96.6004 156.362 98.0398 157.468C99.4793 158.574 100.207 160.271 100.207 162.589C100.207 163.938 99.8429 165.15 99.1308 166.226C98.4186 167.302 97.4034 168.15 96.0852 168.787C99.4187 173.847 101.585 177.12 102.586 178.59L97.3883 178.757L92.085 170.09L89.5697 170.15ZM89.5697 166.165L91.1001 166.12C92.585 166.074 93.6911 165.786 94.4033 165.256C95.1154 164.726 95.4639 163.908 95.4639 162.801C95.4639 161.71 95.1003 160.938 94.373 160.498C93.6457 160.059 92.5244 159.847 91.0092 159.892L89.5697 159.922V166.165Z" fill="#DA6668"/>
<path d="M110.798 169.544V178.317L106.146 178.469V155.574L112.54 155.437C115.51 155.377 117.707 155.892 119.117 156.983C120.541 158.074 121.238 159.771 121.238 162.059C121.238 163.392 120.889 164.589 120.177 165.65C119.48 166.71 118.48 167.559 117.192 168.18C120.465 173.211 122.602 176.438 123.586 177.908L118.48 178.075L113.268 169.483L110.798 169.544ZM110.798 165.604L112.298 165.559C113.768 165.513 114.844 165.241 115.541 164.71C116.238 164.18 116.586 163.377 116.586 162.286C116.586 161.21 116.238 160.437 115.525 159.998C114.813 159.559 113.707 159.362 112.207 159.392L110.798 159.422V165.604Z" fill="#DA6668"/>
<path d="M146.527 165.877C146.527 169.604 145.648 172.483 143.906 174.544C142.163 176.605 139.648 177.681 136.36 177.787C133.072 177.893 130.541 176.968 128.769 175.014C126.996 173.044 126.102 170.18 126.102 166.407C126.102 162.634 126.996 159.725 128.769 157.695C130.541 155.664 133.087 154.619 136.375 154.543C139.663 154.467 142.178 155.407 143.906 157.361C145.648 159.316 146.527 162.15 146.527 165.877ZM130.905 166.316C130.905 168.847 131.36 170.741 132.269 171.998C133.178 173.256 134.542 173.847 136.36 173.786C139.981 173.68 141.784 171.089 141.784 166.013C141.784 160.937 139.981 158.437 136.39 158.528C134.587 158.574 133.208 159.24 132.299 160.559C131.36 161.862 130.905 163.786 130.905 166.316Z" fill="#DA6668"/>
<path d="M156.134 168.256V176.847L151.648 176.984V154.528L157.8 154.392C160.664 154.331 162.77 154.831 164.134 155.907C165.498 156.983 166.18 158.634 166.18 160.892C166.18 162.21 165.846 163.377 165.164 164.422C164.482 165.468 163.528 166.286 162.285 166.907C165.437 171.832 167.483 175.014 168.437 176.453L163.528 176.605L158.512 168.18L156.134 168.256ZM156.134 164.392L157.573 164.347C158.982 164.316 160.028 164.028 160.694 163.513C161.361 162.998 161.694 162.195 161.694 161.134C161.694 160.074 161.346 159.331 160.664 158.892C159.982 158.452 158.922 158.255 157.482 158.301L156.134 158.331V164.392Z" fill="#DA6668"/>
<path d="M64.9724 118.559L67.7079 100.8C67.9131 98.8853 69.5544 97.4263 71.4693 97.4263H71.9709C74.1593 97.4263 75.8918 99.2728 75.7551 101.461L73.7034 113.999C73.6806 114.501 74.0681 114.934 74.5697 114.934H81.1806C81.9101 114.934 82.48 114.364 82.5028 113.635L83.5286 101.097C83.5514 99.022 85.2384 97.3579 87.3128 97.3579H88.3843C90.436 97.3579 91.2566 98.9993 91.3022 101.051L92.3736 144.113C92.3964 145.071 91.6214 145.869 90.6411 145.869H84.4861C83.5514 145.869 82.7764 145.116 82.7536 144.159L82.4572 123.118H69.0073C66.6137 123.095 64.7216 120.975 64.9724 118.559Z" fill="white"/>
<path d="M67.708 118.558L69.6684 100.799C69.8736 98.8843 71.515 97.4253 73.4299 97.4253C75.6183 97.4253 77.3508 99.2718 77.2141 101.46L76.439 113.998C76.4162 114.5 76.8037 114.933 77.3052 114.933H83.9162C84.6457 114.933 85.2156 114.363 85.2384 113.634L85.398 101.096C85.4208 99.0211 87.1077 97.3569 89.1822 97.3569H90.2536C92.3053 97.3569 93.9922 98.9983 94.0378 101.05L95.1092 144.112C95.132 145.07 94.357 145.868 93.3767 145.868H87.2217C86.287 145.868 85.512 145.115 85.4892 144.158L85.1928 123.117H71.7429C69.3493 123.094 67.4572 120.974 67.708 118.558Z" fill="#DA6668"/>
<path d="M136.462 118.558L139.197 100.799C139.403 98.8845 141.044 97.4256 142.959 97.4256H143.46C145.649 97.4256 147.381 99.2721 147.245 101.461L145.193 113.999C145.17 114.5 145.558 114.933 146.059 114.933H152.67C153.4 114.933 153.97 114.363 153.992 113.634L155.018 101.096C155.041 99.0213 156.728 97.3572 158.802 97.3572H159.874C161.925 97.3572 162.746 98.9985 162.792 101.05L163.863 144.113C163.886 145.07 163.111 145.868 162.131 145.868H155.976C155.041 145.868 154.266 145.116 154.243 144.158L153.947 123.117H140.497C138.103 123.094 136.188 120.974 136.462 118.558Z" fill="white"/>
<path d="M139.197 118.558L141.158 100.799C141.363 98.8843 143.004 97.4253 144.919 97.4253C147.108 97.4253 148.84 99.2718 148.704 101.46L147.928 113.998C147.906 114.5 148.293 114.933 148.795 114.933H155.406C156.135 114.933 156.705 114.363 156.728 113.634L156.887 101.096C156.91 99.0211 158.597 97.3569 160.672 97.3569H161.743C163.795 97.3569 165.482 98.9983 165.527 101.05L166.599 144.112C166.622 145.07 165.846 145.868 164.866 145.868H158.711C157.777 145.868 157.001 145.115 156.979 144.158L156.682 123.117H143.232C140.839 123.094 138.924 120.974 139.197 118.558Z" fill="#DA6668"/>
<path d="M115.98 145.963C129.213 145.963 134.875 134.257 134.875 121.66C134.875 109.063 129.213 97.3569 115.98 97.3569C102.811 97.3569 97.0847 109.063 97.0847 121.66C97.0847 134.257 102.811 145.963 115.98 145.963ZM115.98 137.82C108.791 137.82 105.801 130.567 105.801 121.66C105.801 112.817 108.855 105.5 115.98 105.5C123.169 105.5 126.159 112.817 126.159 121.66C126.159 130.567 123.233 137.82 115.98 137.82Z" fill="#DA6668"/>
<path d="M261.296 197.297C274.054 184.539 274.054 163.856 261.296 151.099C248.539 138.342 227.856 138.342 215.099 151.099C202.342 163.856 202.342 184.539 215.099 197.297C227.856 210.054 248.539 210.054 261.296 197.297Z" fill="white"/>
<path d="M238.198 205.78C255.638 205.78 269.776 191.642 269.776 174.202C269.776 156.762 255.638 142.624 238.198 142.624C220.758 142.624 206.62 156.762 206.62 174.202C206.62 191.642 220.758 205.78 238.198 205.78Z" fill="#F2BE38"/>
<path opacity="0.7" d="M264.239 161.413C264.286 161.413 264.343 161.402 264.39 161.379C264.552 161.298 264.621 161.089 264.54 160.927C259.49 150.918 249.4 144.709 238.198 144.709C236.414 144.709 234.619 144.871 232.881 145.184C232.696 145.219 232.58 145.393 232.615 145.566C232.65 145.752 232.823 145.868 233.009 145.833C234.712 145.52 236.461 145.37 238.21 145.37C249.157 145.37 259.015 151.44 263.95 161.216C263.996 161.344 264.112 161.413 264.239 161.413Z" fill="white"/>
<path d="M256.398 193.784C266.835 183.348 266.835 166.427 256.398 155.991C245.962 145.554 229.041 145.554 218.605 155.991C208.168 166.427 208.168 183.348 218.605 193.784C229.041 204.221 245.962 204.221 256.398 193.784Z" fill="white"/>
<path d="M239.161 180.087L236.138 180.017C235.292 179.994 234.597 179.276 234.551 178.43L233.439 157.116C233.415 156.675 233.578 156.316 233.879 156.015C234.18 155.714 234.597 155.621 235.037 155.656L240.25 156.015C240.679 156.05 241.084 156.189 241.374 156.525C241.663 156.861 241.814 157.255 241.802 157.683L240.725 178.604C240.679 179.438 239.995 180.11 239.161 180.087Z" fill="#F2BE38"/>
<path d="M234.491 185.288C235.244 184.57 236.31 184.222 237.677 184.234C239.09 184.257 240.156 184.628 240.886 185.346C241.616 186.064 241.975 187.107 241.975 188.485C241.975 189.817 241.604 190.848 240.863 191.578C240.11 192.308 239.055 192.679 237.677 192.679C236.322 192.679 235.268 192.296 234.503 191.543C233.738 190.779 233.356 189.748 233.356 188.427C233.356 187.06 233.738 186.018 234.491 185.288Z" fill="#F2BE38"/>
<defs>
<linearGradient id="paint0_linear_139_498" x1="-71.0012" y1="92.7487" x2="32.6632" y2="303.408" gradientUnits="userSpaceOnUse">
<stop stop-color="#20C9AD"/>
<stop offset="1" stop-color="white"/>
</linearGradient>
<linearGradient id="paint1_linear_139_498" x1="84.1958" y1="187.348" x2="106.632" y2="316.391" gradientUnits="userSpaceOnUse">
<stop stop-color="#20C9AD"/>
<stop offset="1" stop-color="white"/>
</linearGradient>
<linearGradient id="paint2_linear_139_498" x1="99.6803" y1="73.0694" x2="213.213" y2="304.191" gradientUnits="userSpaceOnUse">
<stop stop-color="#20C9AD"/>
<stop offset="1" stop-color="white"/>
</linearGradient>
</defs>
</svg>
