<svg width="297" height="306" viewBox="0 0 297 306" fill="none" xmlns="http://www.w3.org/2000/svg">
<path d="M261.643 263.391C255.565 269.781 249.817 273.915 245.271 277.176C191.874 315.487 128.676 304.32 115.253 301.602C95.4223 297.567 57.0954 289.793 29.3755 257.198C-12.5585 207.885 -6.01965 130.21 26.4932 78.9206C32.439 69.5324 63.8648 17.4855 127.738 9.13498C166.394 4.07852 211.441 14.2738 244.085 41.6149C312.57 98.9817 307.695 214.901 261.643 263.391Z" fill="#F4FCFF"/>
<path d="M187.262 249.786C223.613 241.617 324.445 202.466 289.297 22.1303C288.292 17.0079 281.177 16.5138 279.513 21.455C271.723 44.6126 257.311 84.5042 238.387 103.099C179.768 160.697 173.18 215.115 173.624 239.064C173.756 246.162 180.344 251.334 187.262 249.786Z" fill="url(#paint0_linear_85_1129)"/>
<path opacity="0.37" d="M181.942 245.817L180.789 244.433C223.728 208.709 247.824 165.473 260.474 135.513C274.194 103.05 277.784 78.756 277.817 78.509L279.596 78.7725C279.563 79.0196 275.923 103.544 262.121 136.222C254.017 155.41 244.036 173.626 232.474 190.36C218.029 211.278 201.031 229.939 181.942 245.817Z" fill="white"/>
<path d="M240.857 6.0385C253.469 32.1729 318.974 185.263 167.131 270.414C163.6 272.394 159.154 271.537 157.122 268.035C143.931 245.299 107.488 155.683 235.998 5.59379C237.316 4.04556 240.017 4.30909 240.857 6.0385Z" fill="url(#paint1_linear_85_1129)"/>
<path opacity="0.37" d="M232.589 34.3843C232.852 39.3419 232.951 44.2995 233.001 49.2572C233.034 54.2148 232.984 59.1724 232.869 64.13C232.638 74.0453 232.128 83.9441 231.337 93.8264C229.739 113.591 227.038 133.273 222.838 152.676C218.638 172.061 212.972 191.184 205.067 209.417C201.114 218.525 196.568 227.402 191.347 235.868C188.711 240.085 185.961 244.235 182.98 248.221C179.998 252.207 176.836 256.061 173.493 259.751C173.18 260.096 172.653 260.113 172.323 259.816C171.977 259.503 171.961 258.976 172.257 258.647C175.568 255.007 178.714 251.202 181.695 247.282C184.66 243.346 187.41 239.261 190.046 235.078C195.25 226.711 199.796 217.915 203.765 208.873C211.704 190.772 217.436 171.748 221.685 152.462C225.935 133.142 228.718 113.509 230.398 93.7935C231.222 83.9276 231.782 74.0453 232.045 64.163C232.177 59.2218 232.243 54.2642 232.227 49.323C232.21 44.3819 232.128 39.4243 231.881 34.4996C231.864 34.3019 232.012 34.1372 232.21 34.1372C232.408 34.0384 232.572 34.1866 232.589 34.3843Z" fill="white"/>
<path d="M128.462 205.645L123.62 249.176H179.916L172.587 205.645H128.462Z" fill="#035970"/>
<path d="M10.3849 76.8618V196.586C10.3849 206.435 18.2249 214.49 28.0743 214.737C71.8036 215.857 224.732 218.591 266.37 217.981C273.518 217.882 279.316 212.151 279.53 205.003C280.337 177.184 281.638 110.313 276.812 79.2665C275.791 72.7277 270.273 67.836 263.669 67.6218C227.038 66.4524 64.9024 62.7301 23.2978 63.6689C16.1002 63.8172 10.3849 69.6807 10.3849 76.8618Z" fill="#035970"/>
<path d="M17.8956 76.2853V190.031C17.8956 195.779 22.5074 200.473 28.2556 200.555L260.375 203.421C266.074 203.504 270.751 198.925 270.768 193.226L271.163 80.5018C271.179 76.4336 267.935 73.09 263.85 72.9912L26.1968 68.1654C21.6509 68.0501 17.8956 71.723 17.8956 76.2853Z" fill="#77C2D7"/>
<path d="M272.513 208.116L17.8791 203.784C17.6814 203.784 17.5167 203.619 17.5167 203.405C17.5167 203.207 17.6814 203.043 17.8955 203.043L272.513 207.374C272.711 207.374 272.876 207.539 272.876 207.753C272.876 207.951 272.711 208.116 272.513 208.116Z" fill="#74767B"/>
<path d="M192.039 258.071H109.653C107.413 258.071 105.733 256.473 106.161 254.76L107.215 250.576C107.528 249.325 108.912 248.402 110.559 248.336L189.996 245.866C191.709 245.816 193.241 246.722 193.603 248.024L195.514 254.678C196.008 256.44 194.311 258.071 192.039 258.071Z" fill="#102D42"/>
<path d="M153.992 249.588C153.794 249.588 153.629 249.424 153.613 249.226C153.613 249.028 153.778 248.847 153.975 248.847L157.385 248.798C157.599 248.798 157.763 248.962 157.763 249.16C157.763 249.358 157.599 249.539 157.401 249.539L153.992 249.588Z" fill="white"/>
<path d="M109.208 255.88C109.192 255.88 109.175 255.88 109.142 255.88C108.945 255.847 108.796 255.649 108.829 255.452L109.307 252.405C109.571 250.725 111.003 249.473 112.716 249.456L148.82 248.929C149.034 248.929 149.199 249.094 149.199 249.292C149.199 249.489 149.034 249.671 148.836 249.671L112.733 250.198C111.382 250.214 110.262 251.202 110.048 252.52L109.571 255.567C109.554 255.748 109.389 255.88 109.208 255.88Z" fill="white"/>
<path d="M237.003 289.249H72.6766C71.2766 289.249 70.1401 288.113 70.1401 286.713V257L239.309 256.407V286.927C239.325 288.212 238.288 289.249 237.003 289.249Z" fill="#4690A4"/>
<path d="M70.3715 256.555L95.4561 237.202C96.955 236.05 98.7832 235.424 100.661 235.424H220.105C221.752 235.424 223.3 236.165 224.322 237.449L239.096 255.946C239.623 256.605 239.145 257.576 238.305 257.576H70.7174C70.1739 257.593 69.9433 256.901 70.3715 256.555Z" fill="#67A4BA"/>
<path d="M230.366 271.066C232.294 271.066 233.857 269.502 233.857 267.574C233.857 265.646 232.294 264.082 230.366 264.082C228.437 264.082 226.874 265.646 226.874 267.574C226.874 269.502 228.437 271.066 230.366 271.066Z" fill="#B9BCC5"/>
<path d="M228.784 253.657L203.568 260.261L178.417 275.727L153.909 274.623L117.724 277.456L154.09 273.52L178.072 273.536C178.072 273.536 171.302 261.233 172.603 261.332C173.904 261.431 180.641 272.795 180.641 272.795L200.521 259.932L189.914 256.506L194.937 243.264L192.961 256.028L203.337 258.713L228.784 253.657Z" fill="#084150"/>
<path d="M145.937 86.5794C147.387 86.3653 148.853 86.2171 150.319 86.1183C150.516 86.1018 150.714 86.0524 150.879 85.97C151.34 85.723 151.636 85.2289 151.603 84.6853C151.554 83.9277 150.912 83.3677 150.154 83.4171C148.622 83.5159 147.057 83.6806 145.542 83.8947C144.801 84.01 144.29 84.7018 144.389 85.443C144.488 86.1841 145.18 86.6947 145.937 86.5794Z" fill="#E6F9FF"/>
<path d="M110.938 106.064C110.328 105.636 109.472 105.784 109.043 106.394C108.154 107.662 107.314 108.963 106.54 110.297C106.161 110.939 106.375 111.779 107.034 112.158C107.462 112.405 107.956 112.389 108.352 112.191C108.566 112.076 108.763 111.895 108.895 111.681C109.636 110.412 110.427 109.161 111.267 107.975C111.695 107.349 111.547 106.509 110.938 106.064Z" fill="#E6F9FF"/>
<path d="M100.528 139.466C99.7871 139.516 99.2106 140.158 99.2435 140.899C99.3424 142.431 99.4906 143.996 99.7212 145.511C99.8365 146.252 100.528 146.763 101.269 146.664C101.434 146.647 101.582 146.598 101.714 146.516C102.208 146.252 102.505 145.709 102.422 145.116C102.208 143.666 102.06 142.2 101.978 140.735C101.928 139.993 101.286 139.417 100.528 139.466Z" fill="#E6F9FF"/>
<path d="M104.992 116.325C104.3 116.045 103.509 116.375 103.213 117.066C102.636 118.499 102.093 119.965 101.648 121.431C101.418 122.156 101.829 122.913 102.538 123.128C102.9 123.243 103.279 123.193 103.575 123.029C103.888 122.864 104.119 122.584 104.234 122.238C104.679 120.838 105.173 119.455 105.733 118.088C106.013 117.396 105.683 116.605 104.992 116.325Z" fill="#E6F9FF"/>
<path d="M134.77 89.5606C136.138 89.0335 137.538 88.5394 138.938 88.1276C139.02 88.0947 139.119 88.0617 139.185 88.0288C139.745 87.7323 140.041 87.0735 139.843 86.4476C139.629 85.7229 138.872 85.3112 138.147 85.5253C136.665 85.9535 135.199 86.4641 133.766 87.0241C133.058 87.2876 132.728 88.0782 132.992 88.7864C133.288 89.4782 134.079 89.8241 134.77 89.5606Z" fill="#E6F9FF"/>
<path d="M101.467 127.64C100.726 127.525 100.018 128.019 99.9024 128.76C99.6553 130.276 99.4577 131.824 99.3424 133.372C99.2765 134.113 99.8365 134.772 100.594 134.838C100.858 134.855 101.121 134.805 101.335 134.69C101.731 134.476 102.011 134.08 102.06 133.603C102.175 132.137 102.356 130.671 102.604 129.222C102.702 128.464 102.208 127.756 101.467 127.64Z" fill="#E6F9FF"/>
<path d="M102.258 151.177C101.533 151.391 101.121 152.149 101.335 152.873C101.764 154.339 102.274 155.822 102.834 157.255C103.114 157.963 103.888 158.309 104.597 158.029C104.646 158.012 104.695 157.979 104.745 157.963C105.338 157.65 105.634 156.925 105.371 156.266C104.844 154.899 104.366 153.499 103.954 152.099C103.74 151.391 102.982 150.979 102.258 151.177Z" fill="#E6F9FF"/>
<path d="M115.418 102.688C115.549 102.622 115.665 102.523 115.78 102.408C116.785 101.337 117.839 100.299 118.926 99.3276C119.486 98.817 119.535 97.9606 119.025 97.4006C118.514 96.8406 117.658 96.8076 117.098 97.3017C115.961 98.3394 114.841 99.4264 113.787 100.546C113.276 101.09 113.309 101.963 113.853 102.473C114.281 102.885 114.924 102.951 115.418 102.688Z" fill="#E6F9FF"/>
<path d="M124.41 94.9959C124.46 94.9794 124.493 94.9465 124.542 94.9135C125.761 94.09 127.013 93.3159 128.298 92.6077C128.956 92.2453 129.187 91.4053 128.825 90.763C128.462 90.1206 127.655 89.8735 126.996 90.2194C126.98 90.2194 126.98 90.2359 126.963 90.2359C125.613 90.9935 124.295 91.8006 123.01 92.6735C122.385 93.1018 122.22 93.9418 122.648 94.5677C123.043 95.1277 123.818 95.3088 124.41 94.9959Z" fill="#E6F9FF"/>
<path d="M108.401 162.739C108.039 162.097 107.215 161.833 106.573 162.179L106.556 162.196C105.898 162.541 105.667 163.398 106.029 164.057C106.787 165.407 107.611 166.774 108.467 168.043C108.862 168.619 109.62 168.8 110.229 168.471C110.279 168.454 110.295 168.405 110.345 168.372C110.971 167.96 111.135 167.104 110.724 166.494C109.9 165.308 109.109 164.024 108.401 162.739Z" fill="#E6F9FF"/>
<path d="M161.123 85.1959C161.206 84.4547 160.679 83.7794 159.937 83.6806C159.213 83.5982 158.455 83.5159 157.714 83.4665C156.973 83.4006 156.314 83.9606 156.248 84.7182C156.182 85.4594 156.742 86.1182 157.5 86.1841C158.208 86.2335 158.916 86.3159 159.608 86.3982C159.888 86.4312 160.168 86.3818 160.415 86.25C160.794 86.0359 161.074 85.6571 161.123 85.1959Z" fill="#E6F9FF"/>
<path d="M158.505 189.026C157.072 189.158 155.622 189.24 154.173 189.257C153.415 189.273 152.822 189.883 152.822 190.64C152.839 191.398 153.448 191.991 154.206 191.991C155.721 191.974 157.253 191.892 158.768 191.744C158.949 191.727 159.114 191.678 159.279 191.595C159.756 191.348 160.053 190.821 159.987 190.261C159.921 189.504 159.246 188.96 158.505 189.026Z" fill="#E6F9FF"/>
<path d="M199.697 107.942C200.109 108.485 200.834 108.634 201.427 108.321C201.493 108.288 201.558 108.255 201.608 108.205C202.201 107.761 202.333 106.904 201.871 106.295C201.427 105.702 200.966 105.109 200.488 104.549C200.01 103.972 199.154 103.89 198.577 104.368C198.001 104.845 197.918 105.702 198.396 106.278C198.824 106.822 199.269 107.382 199.697 107.942Z" fill="#E6F9FF"/>
<path d="M208.888 122.6C208.163 122.815 207.768 123.572 207.982 124.297C208.394 125.68 208.756 127.097 209.053 128.497C209.201 129.238 209.926 129.699 210.667 129.551C210.799 129.518 210.914 129.485 211.029 129.419C211.556 129.139 211.853 128.546 211.721 127.937C211.408 126.455 211.029 124.972 210.601 123.523C210.37 122.798 209.613 122.386 208.888 122.6Z" fill="#E6F9FF"/>
<path d="M211.293 134.015C210.551 134.064 209.975 134.723 210.024 135.464C210.123 136.897 210.173 138.363 210.14 139.796C210.123 140.553 210.733 141.163 211.474 141.179C211.704 141.179 211.935 141.13 212.133 141.015C212.561 140.784 212.841 140.339 212.857 139.829C212.874 138.313 212.841 136.782 212.725 135.266C212.693 134.525 212.034 133.965 211.293 134.015Z" fill="#E6F9FF"/>
<path d="M206.631 157.798C206.104 159.132 205.528 160.483 204.886 161.767C204.556 162.443 204.836 163.25 205.511 163.579C205.923 163.777 206.368 163.76 206.747 163.563C206.994 163.431 207.191 163.233 207.323 162.953C207.982 161.586 208.608 160.186 209.151 158.77C209.431 158.062 209.069 157.287 208.377 157.007C207.686 156.76 206.895 157.106 206.631 157.798Z" fill="#E6F9FF"/>
<path d="M194.048 176.541C192.994 177.53 191.907 178.485 190.787 179.391C190.194 179.852 190.111 180.708 190.573 181.301C190.984 181.828 191.709 181.96 192.269 181.647C192.335 181.614 192.417 181.565 192.483 181.516C193.669 180.577 194.822 179.556 195.926 178.518C196.469 178.007 196.502 177.134 195.975 176.591C195.448 176.047 194.591 176.031 194.048 176.541Z" fill="#E6F9FF"/>
<path d="M201.377 167.878C200.57 169.08 199.714 170.25 198.808 171.37C198.33 171.963 198.429 172.819 199.022 173.28C199.467 173.626 200.043 173.659 200.504 173.412C200.669 173.33 200.801 173.214 200.933 173.066C201.871 171.88 202.777 170.645 203.634 169.393C204.046 168.767 203.881 167.927 203.255 167.499C202.629 167.087 201.789 167.252 201.377 167.878Z" fill="#E6F9FF"/>
<path d="M211.111 145.692C210.37 145.577 209.679 146.087 209.563 146.829C209.349 148.245 209.069 149.678 208.723 151.078C208.542 151.803 209.003 152.544 209.728 152.725C210.057 152.807 210.403 152.758 210.683 152.61C211.013 152.429 211.276 152.116 211.375 151.72C211.721 150.238 212.017 148.739 212.248 147.24C212.363 146.499 211.853 145.791 211.111 145.692Z" fill="#E6F9FF"/>
<path d="M174.646 188.12C173.279 188.565 171.879 188.977 170.479 189.306C169.754 189.471 169.293 190.212 169.474 190.953C169.655 191.678 170.38 192.139 171.121 191.958C172.587 191.612 174.069 191.184 175.519 190.706C175.601 190.69 175.667 190.657 175.733 190.607C176.309 190.294 176.589 189.619 176.391 188.977C176.128 188.269 175.37 187.873 174.646 188.12Z" fill="#E6F9FF"/>
<path d="M184.989 183.393C183.754 184.118 182.486 184.81 181.168 185.452C180.493 185.781 180.213 186.589 180.542 187.264C180.872 187.939 181.679 188.219 182.354 187.89C182.914 187.61 183.474 187.33 184.034 187.033C184.824 186.621 185.615 186.177 186.373 185.716C187.015 185.337 187.229 184.497 186.85 183.854C186.471 183.229 185.631 183.014 184.989 183.393Z" fill="#E6F9FF"/>
<path d="M205.923 112.504C205.561 111.845 204.721 111.598 204.079 111.977C203.42 112.339 203.189 113.179 203.551 113.822C203.733 114.151 203.914 114.497 204.095 114.826C204.589 115.765 205.067 116.721 205.511 117.692C205.824 118.384 206.631 118.681 207.307 118.368C207.34 118.351 207.356 118.351 207.389 118.335C208.015 118.005 208.295 117.231 207.982 116.572C207.521 115.551 207.027 114.546 206.5 113.558C206.302 113.212 206.121 112.85 205.923 112.504Z" fill="#E6F9FF"/>
<path d="M147.107 188.861C146.415 188.779 145.707 188.664 145.015 188.548C144.274 188.417 143.566 188.927 143.45 189.668C143.319 190.41 143.829 191.118 144.57 191.233C145.312 191.348 146.053 191.464 146.777 191.563C147.057 191.596 147.337 191.546 147.585 191.414C147.963 191.217 148.243 190.838 148.293 190.377C148.392 189.635 147.848 188.96 147.107 188.861Z" fill="#E6F9FF"/>
<path d="M195.036 117.939L187.311 118.368C185.236 115.452 182.749 112.932 179.966 110.857L170.643 114.629L164.813 124.132L174.151 137.012L157.483 139.73L149.232 148.855L153.053 161.306L142.479 161.339L139.695 165.457L139.185 173.149C139.168 173.412 139.316 173.676 139.58 173.774L148.128 177.381C148.375 177.48 148.672 177.414 148.853 177.217L154.008 171.452C157.566 172.062 161.255 172.094 164.928 171.518L170.017 177.332C170.199 177.53 170.479 177.612 170.742 177.497L179.34 173.989C179.587 173.89 179.751 173.643 179.735 173.363L179.307 165.638C182.337 163.48 184.94 160.878 187.064 157.963L194.789 158.473C195.053 158.49 195.316 158.342 195.415 158.078L199.022 149.53C199.121 149.283 199.055 148.986 198.857 148.805L193.093 143.65C193.702 140.092 193.735 136.403 193.158 132.73L198.973 127.64C199.17 127.459 199.253 127.179 199.137 126.916L195.629 118.318C195.547 118.071 195.3 117.923 195.036 117.939Z" fill="#E6F9FF"/>
<path d="M163.907 143.765C160.992 145.906 156.989 145.511 154.535 142.975L153.069 144.589C155.952 147.471 160.432 148.163 164.039 146.252C164.434 146.038 164.829 145.791 165.192 145.527C167.712 143.666 169.029 140.784 168.98 137.869L166.806 138.215C166.74 140.339 165.752 142.415 163.907 143.765Z" fill="#4690A4"/>
<path d="M179.966 127.015C177.594 122.551 173.855 119.043 169.21 116.935L168.634 117.873C173.114 119.866 176.721 123.243 178.994 127.542C179.34 128.2 179.669 128.876 179.949 129.584C181.58 133.57 181.926 137.77 181.217 141.723C179.916 148.822 175.14 155.146 167.975 158.078C166.526 158.671 165.027 159.099 163.512 159.363C163.215 159.412 163.017 159.692 163.067 159.989C163.083 160.054 163.1 160.104 163.116 160.153C163.232 160.351 163.446 160.483 163.693 160.433C163.775 160.417 163.874 160.4 163.956 160.384C164.006 160.367 164.055 160.367 164.088 160.351C164.104 160.351 164.121 160.351 164.137 160.334C165.34 160.104 166.526 159.758 167.679 159.33C167.909 159.247 168.14 159.149 168.37 159.066C169.112 158.77 169.82 158.44 170.512 158.062C175.156 155.591 178.796 151.638 180.855 146.713C183.227 141.064 183.26 134.838 180.954 129.156C180.674 128.431 180.344 127.706 179.966 127.015Z" fill="#4690A4"/>
<path d="M144.159 157.04L140.519 145.165L148.77 136.04L165.01 133.389C165.208 133.356 165.307 133.125 165.191 132.96L156.1 120.443L161.93 110.939L171.253 107.168C171.137 107.085 171.039 107.003 170.923 106.92L171.434 99.1958C171.45 98.9323 171.302 98.6688 171.039 98.5699L162.49 94.9629C162.243 94.8641 161.947 94.9299 161.766 95.1276L156.61 100.892C153.053 100.283 149.363 100.25 145.69 100.826L140.601 95.0123C140.42 94.8146 140.14 94.7323 139.876 94.8476L131.279 98.3558C131.032 98.4546 130.867 98.7017 130.883 98.9817L131.312 106.706C128.281 108.864 125.679 111.466 123.554 114.382L115.829 113.871C115.566 113.855 115.302 114.003 115.203 114.266L111.596 122.815C111.498 123.062 111.563 123.358 111.761 123.539L117.526 128.695C116.916 132.252 116.883 135.942 117.46 139.615L111.646 144.704C111.448 144.885 111.366 145.165 111.481 145.429L114.989 154.026C115.088 154.273 115.335 154.438 115.615 154.422L123.34 153.993C125.498 157.024 128.1 159.626 131.015 161.751V161.767L133.799 157.65L143.747 157.617C144.027 157.633 144.257 157.337 144.159 157.04Z" fill="#E6F9FF"/>
<path d="M145.822 139.318C145.608 139.087 145.394 138.857 145.196 138.593C142.857 135.415 143.549 130.935 146.712 128.596C147.008 128.382 147.304 128.2 147.617 128.036C148.968 127.328 150.5 127.064 152.032 127.295C153.926 127.575 155.589 128.596 156.709 130.128C157.697 131.462 158.142 133.026 158.093 134.575L160.267 134.229C160.234 132.351 159.657 130.473 158.455 128.843C156.973 126.833 154.815 125.516 152.344 125.153C149.874 124.775 147.42 125.384 145.41 126.866C141.26 129.913 140.37 135.76 143.417 139.911C143.697 140.29 144.01 140.636 144.34 140.965L145.822 139.318Z" fill="#4690A4"/>
<path d="M159.905 113.015C154.255 110.643 148.029 110.593 142.347 112.916C130.636 117.692 124.987 131.099 129.763 142.81C130.06 143.535 130.389 144.243 130.752 144.918C132.333 147.883 134.54 150.469 137.225 152.494C137.472 152.676 137.801 152.626 137.982 152.379C138.114 152.198 138.13 151.984 138.032 151.803C137.999 151.737 137.949 151.671 137.883 151.622C135.33 149.695 133.222 147.24 131.723 144.407C131.378 143.749 131.065 143.09 130.785 142.398C126.239 131.248 131.608 118.466 142.775 113.921C148.178 111.713 154.123 111.746 159.493 114.019C159.641 114.085 159.789 114.151 159.937 114.217L160.514 113.278C160.3 113.196 160.119 113.097 159.905 113.015Z" fill="#4690A4"/>
<path d="M97.4408 88.4746C113.553 72.3623 113.553 46.239 97.4408 30.1266C81.3284 14.0143 55.2051 14.0143 39.0928 30.1266C22.9804 46.239 22.9804 72.3623 39.0928 88.4746C55.2051 104.587 81.3284 104.587 97.4408 88.4746Z" fill="white"/>
<path d="M96.4741 87.508C112.053 71.9295 112.053 46.6717 96.4741 31.0932C80.8956 15.5148 55.6379 15.5148 40.0594 31.0933C24.4809 46.6718 24.4809 71.9295 40.0594 87.508C55.6379 103.086 80.8956 103.086 96.4741 87.508Z" fill="#F2BE38"/>
<path opacity="0.7" d="M101.154 43.1466C101.22 43.1466 101.286 43.1301 101.352 43.0972C101.566 42.9984 101.648 42.7349 101.533 42.5372C95.1589 29.9043 82.4107 22.0479 68.2625 22.0479C66.006 22.0479 63.7496 22.2455 61.5425 22.6573C61.3119 22.7067 61.1637 22.9208 61.1966 23.1514C61.2461 23.382 61.4602 23.5302 61.6908 23.4973C63.8484 23.102 66.0555 22.9043 68.2625 22.9043C82.0813 22.9043 94.5495 30.5796 100.775 42.9325C100.858 43.0643 101.006 43.1466 101.154 43.1466Z" fill="white"/>
<path d="M91.2609 84.0384C104.447 70.8527 104.447 49.4743 91.2609 36.2885C78.0752 23.1028 56.6968 23.1028 43.5111 36.2885C30.3253 49.4743 30.3253 70.8527 43.511 84.0384C56.6968 97.2242 78.0752 97.2242 91.2609 84.0384Z" fill="white"/>
<path d="M69.4803 66.7325L65.6591 66.6337C64.5885 66.6007 63.7156 65.6948 63.6497 64.6243L62.2497 37.7114C62.2168 37.1514 62.4144 36.7067 62.7932 36.3279C63.1721 35.9491 63.6991 35.8338 64.2591 35.8667L70.8473 36.3279C71.3908 36.3608 71.9014 36.542 72.2638 36.9702C72.6261 37.3985 72.8238 37.8926 72.7908 38.4361L71.4403 64.8548C71.3908 65.909 70.5344 66.749 69.4803 66.7325Z" fill="#F2BE38"/>
<path d="M63.5849 73.3042C64.5401 72.3984 65.8743 71.9537 67.6037 71.9866C69.3825 72.0195 70.7331 72.4807 71.6554 73.3866C72.5778 74.2925 73.0389 75.6101 73.0389 77.356C73.0389 79.036 72.5613 80.3372 71.6225 81.2595C70.6837 82.1819 69.3331 82.643 67.6037 82.643C65.8907 82.643 64.5566 82.1654 63.6013 81.2101C62.6296 80.2548 62.1519 78.9372 62.1519 77.2736C62.1519 75.5442 62.6296 74.2266 63.5849 73.3042Z" fill="#F2BE38"/>
<path d="M47.9787 121.682L59.0469 139.256L76.9833 136.456L84.4609 127.117L76.9833 137.609L57.5151 141.364L47.9951 154.096L66.228 171.62C66.228 171.62 70.5598 189.145 70.3951 188.453C70.2304 187.761 63.6751 172.361 63.6751 172.361L55.9834 176.94L61.748 170.303C61.748 170.303 45.7551 154.54 45.014 154.096C44.2728 153.651 28.4776 165.164 28.494 163.714C28.527 162.265 43.4163 151.707 43.4163 151.707L56.461 139.256L47.9787 121.682Z" fill="#4690A4"/>
<path d="M236.921 293.877C236.921 293.877 237.645 297.962 237.991 302.014C238.123 303.595 236.904 304.979 235.323 305.044C229.937 305.275 218.391 305.703 214.257 305.522C213.631 305.489 213.236 304.863 213.45 304.27C213.648 303.793 214.01 303.397 214.488 303.183L233.544 294.421L236.921 293.877Z" fill="#102D42"/>
<path d="M237.497 291.473L236.921 296.365C236.921 296.365 233.577 297.913 231.304 296.167L232.688 290.715L237.497 291.473Z" fill="url(#paint2_linear_85_1129)"/>
<path d="M237.069 199.452C237.316 200.737 238.42 263.226 231.732 291.242C231.617 291.703 231.848 292.165 232.292 292.346C233.314 292.757 235.323 293.367 237.728 293.449C238.469 293.482 239.144 292.988 239.358 292.28C241.269 285.774 250.427 253.228 251.612 222.115C252.947 187.363 251.612 220.929 251.612 220.929L250.838 199.452H237.069Z" fill="#102D42"/>
<path d="M258.843 296.002C258.843 296.002 259.996 298.061 261.099 303.562C261.297 304.55 260.605 305.506 259.601 305.605C257.822 305.786 255.071 306 252.881 305.983C251.876 305.983 251.085 305.094 251.201 304.089C251.448 302.08 252.205 298.802 254.544 296.233L258.843 296.002Z" fill="#102D42"/>
<path d="M259.848 289.71L258.497 297.106C258.497 297.106 257.163 298.11 254.495 297.386L255.137 289.43L259.848 289.71Z" fill="url(#paint3_linear_85_1129)"/>
<path d="M263.504 201.363C268.972 234.337 262.318 282.859 260.078 292.362C259.947 292.939 259.469 293.383 258.876 293.482C257.871 293.647 256.224 293.779 254.61 293.317C254.05 293.153 253.655 292.642 253.638 292.066C253.342 284.39 253.885 237.252 248.78 218.624C248.516 217.685 247.94 216.861 247.149 216.285L237.267 209.252L236.509 197.904L263.504 201.363Z" fill="#102D42"/>
<path d="M214.867 154.372C215.69 160.285 216.58 161.636 217.255 161.669C219.429 161.784 218.984 148.459 226.923 141.723C231.93 137.473 238.782 137.111 244.151 137.605C241.648 146.582 239.144 155.575 236.641 164.551C235.554 167.236 230.777 178.09 219.989 181.384C217.799 182.059 214.521 183.047 211.474 181.746C205.479 179.16 202.662 168.586 205.347 155.36C206.582 154.899 208.328 154.405 214.867 154.372Z" fill="#FAB1A5"/>
<path d="M216.777 131.33L215.789 136.946C214.191 143.815 214.043 149.53 214.867 154.372C213.5 154.422 212.05 154.52 210.551 154.669C208.707 154.85 206.961 155.097 205.33 155.377C206.187 148.393 210.848 136.798 210.848 136.798C213.631 132.746 213.977 135.365 216.777 131.33Z" fill="url(#paint4_linear_85_1129)"/>
<path d="M205.429 119.504C206.549 119.471 207.636 119.965 208.361 120.822L215.443 129.222C215.443 129.222 216.728 128.958 216.86 126.488C216.975 124.017 219.61 123.72 219.61 123.72C219.61 123.72 219.231 127.163 218.507 132.252C218.095 135.167 216.365 137.292 214.965 138.577L210.864 137.16C207.109 131.791 204.77 125.862 203.469 119.553L205.429 119.504Z" fill="url(#paint5_linear_85_1129)"/>
<path d="M272.184 142.332C271.707 142.2 268.478 138.873 268.001 138.775C260.045 137.259 240.198 131.906 226.923 141.706C226.89 141.986 226.874 142.217 226.857 142.398C226.725 142.579 226.544 142.859 226.314 143.337C225.062 145.775 223.547 148.13 221.834 150.337C222.213 150.716 222.525 151.16 222.756 151.654C225.951 158.49 238.041 185.798 235.916 202.499C235.801 203.355 236.394 204.163 237.25 204.278C241.944 204.92 255.928 206.518 263.158 203.52C263.587 203.339 263.85 202.927 263.834 202.483C263.784 199.139 263.932 184.596 269.252 167.071C269.45 166.412 269.615 165.753 269.747 165.078C269.812 165.21 269.878 165.342 269.944 165.473L272.184 142.332Z" fill="#FAB1A5"/>
<path d="M260.045 137.259C274.869 138.346 277.965 146.812 288.226 141.64L286.415 157.502C282.61 161.702 276.878 164.551 269.648 165.622L260.045 137.259Z" fill="#FAB1A5"/>
<path d="M249.916 122.913C252.452 127.986 253.523 133.142 253.836 137.935C253.292 138.132 245.996 143.205 241.121 138.297C242.158 134.937 241.994 129.88 241.73 124.692L249.916 122.913Z" fill="url(#paint6_linear_85_1129)"/>
<path d="M236.69 109.605C236.558 109.836 232.902 127.015 232.902 127.015L242.768 128.892L248.648 113.113C248.631 113.113 239.029 105.817 236.69 109.605Z" fill="url(#paint7_linear_85_1129)"/>
<path d="M244.876 114.513C245.14 114.876 245.222 115.337 245.107 115.765L242.702 124.182C242.669 124.313 242.62 124.429 242.537 124.544C242.142 125.17 240.758 127.048 238.864 125.499C237.267 124.182 235.768 122.996 234.434 122.699C233.66 122.535 232.885 123.045 232.721 123.819C232.391 125.433 231.765 128.711 231.634 131.692C231.601 132.433 232.161 133.076 232.902 133.175C234.862 133.422 238.7 133.767 241.911 133.372C242.438 133.306 242.883 132.96 243.081 132.466C243.921 130.276 246.309 124.165 247.248 122.551C248.121 121.052 250.443 120.904 251.514 120.92C251.925 120.92 252.304 120.772 252.584 120.476C253.424 119.603 254.775 117.626 252.485 115.502C251.909 114.975 251.892 114.069 252.403 113.492C253.325 112.455 254.182 110.742 252.42 108.798C250.641 106.838 248.483 107.201 247.1 107.761C246.49 108.008 245.749 107.843 245.354 107.332C245.172 107.102 244.909 106.937 244.481 106.953C243.69 107.003 243.015 106.443 242.965 105.652C242.867 104.302 242.241 102.671 239.885 102.095C235.57 101.041 233.165 105.29 233.1 108.37C233.017 111.45 237.777 112.323 240.511 111.944C242.504 111.681 244.135 113.509 244.876 114.513Z" fill="#102D42"/>
<path d="M245.765 125.73C245.765 125.73 246.688 120.295 248.878 119.899C251.069 119.504 253.325 121.184 251.316 124.297C248.812 128.167 245.765 125.73 245.765 125.73Z" fill="url(#paint8_linear_85_1129)"/>
<path d="M249.372 106.163C248.994 106.146 248.582 106.179 248.121 106.278C247.083 106.492 245.683 107.036 246.045 108.04C246.589 109.539 249.405 108.139 250.904 110.56C252.222 112.702 251.151 115.024 251.547 117.33C251.744 118.45 252.469 120.113 253.457 120.772C253.902 121.069 257.443 121.629 257.641 121.003L258.629 117.807C259.518 114.942 256.109 110.149 254.363 108.222C253.012 106.723 251.184 106.229 249.372 106.163Z" fill="url(#paint9_linear_85_1129)"/>
<path d="M252.732 117.676L256.109 120.492C262.598 123.259 267.309 126.504 270.718 130.012C271.954 127.69 273.963 124.989 277.142 122.897C270.603 119.669 265.728 118.335 265.728 118.335C252.551 113.048 252.732 117.676 252.732 117.676Z" fill="url(#paint10_linear_85_1129)"/>
<path d="M270.735 130.029C281.408 141.015 278.278 135.431 278.361 144.786C278.393 148.278 281.424 161.603 281.424 161.603C314.036 147.52 286.826 128.283 277.158 122.913C273.963 125.005 271.97 127.69 270.735 130.029Z" fill="#FAB1A5"/>
<defs>
<linearGradient id="paint0_linear_85_1129" x1="51.5619" y1="-127.102" x2="278.441" y2="230.78" gradientUnits="userSpaceOnUse">
<stop stop-color="#EFB3A8"/>
<stop offset="1" stop-color="#FCF0EE"/>
</linearGradient>
<linearGradient id="paint1_linear_85_1129" x1="19.5476" y1="-163.78" x2="297.002" y2="215.143" gradientUnits="userSpaceOnUse">
<stop stop-color="#EFB3A8"/>
<stop offset="1" stop-color="#FCF0EE"/>
</linearGradient>
<linearGradient id="paint2_linear_85_1129" x1="237.93" y1="296.96" x2="230.789" y2="290.838" gradientUnits="userSpaceOnUse">
<stop stop-color="#F9B776"/>
<stop offset="1" stop-color="#F47960"/>
</linearGradient>
<linearGradient id="paint3_linear_85_1129" x1="260.222" y1="297.6" x2="252.115" y2="293.007" gradientUnits="userSpaceOnUse">
<stop stop-color="#F9B776"/>
<stop offset="1" stop-color="#F47960"/>
</linearGradient>
<linearGradient id="paint4_linear_85_1129" x1="217.577" y1="155.234" x2="198.027" y2="147.141" gradientUnits="userSpaceOnUse">
<stop stop-color="#F9B776"/>
<stop offset="1" stop-color="#F47960"/>
</linearGradient>
<linearGradient id="paint5_linear_85_1129" x1="220.738" y1="138.464" x2="199.792" y2="123.048" gradientUnits="userSpaceOnUse">
<stop stop-color="#F9B776"/>
<stop offset="1" stop-color="#F47960"/>
</linearGradient>
<linearGradient id="paint6_linear_85_1129" x1="254.724" y1="140.326" x2="236.536" y2="128.843" gradientUnits="userSpaceOnUse">
<stop stop-color="#F9B776"/>
<stop offset="1" stop-color="#F47960"/>
</linearGradient>
<linearGradient id="paint7_linear_85_1129" x1="249.748" y1="128.771" x2="228.047" y2="114.188" gradientUnits="userSpaceOnUse">
<stop stop-color="#F9B776"/>
<stop offset="1" stop-color="#F47960"/>
</linearGradient>
<linearGradient id="paint8_linear_85_1129" x1="252.538" y1="126.448" x2="245.029" y2="120.226" gradientUnits="userSpaceOnUse">
<stop stop-color="#F9B776"/>
<stop offset="1" stop-color="#F47960"/>
</linearGradient>
<linearGradient id="paint9_linear_85_1129" x1="259.668" y1="121.197" x2="243.06" y2="108.989" gradientUnits="userSpaceOnUse">
<stop stop-color="#F9B776"/>
<stop offset="1" stop-color="#F47960"/>
</linearGradient>
<linearGradient id="paint10_linear_85_1129" x1="278.847" y1="129.928" x2="263.736" y2="107.354" gradientUnits="userSpaceOnUse">
<stop stop-color="#F9B776"/>
<stop offset="1" stop-color="#F47960"/>
</linearGradient>
</defs>
</svg>
