<svg width="123" height="73" viewBox="0 0 123 73" fill="none" xmlns="http://www.w3.org/2000/svg">
<mask id="mask0_5080_80669" style="mask-type:alpha" maskUnits="userSpaceOnUse" x="5" y="0" width="118" height="72">
<rect x="5" width="118" height="72" fill="#C4C4C4"/>
</mask>
<g mask="url(#mask0_5080_80669)">
<rect x="19.656" y="8.01869" width="88.9079" height="85.2416" rx="3.43716" fill="white" stroke="#FAB1A5" stroke-width="0.458288"/>
<rect x="26.7595" y="18.3301" width="75.1592" height="1.83315" rx="0.916576" fill="#8EDEF4"/>
<rect x="26.7595" y="23.8296" width="75.1592" height="1.83315" rx="0.916576" fill="#8EDEF4"/>
<rect x="26.7595" y="29.3291" width="75.1592" height="1.83315" rx="0.916576" fill="#8EDEF4"/>
<rect x="26.7596" y="34.8284" width="75.1592" height="1.83315" rx="0.916576" fill="#8EDEF4"/>
<rect x="26.7596" y="41.2449" width="75.1592" height="1.83315" rx="0.916576" fill="#8EDEF4"/>
<rect x="26.7596" y="46.7439" width="39.9783" height="1.83315" rx="0.916576" fill="#8EDEF4"/>
<rect x="26.3012" y="52.7014" width="75.1592" height="1.83315" rx="0.916576" fill="#8EDEF4"/>
<rect x="26.3013" y="58.2009" width="75.1592" height="1.83315" rx="0.916576" fill="#8EDEF4"/>
<rect x="26.3013" y="63.7004" width="75.1592" height="1.83315" rx="0.916576" fill="#8EDEF4"/>
<rect x="26" y="69" width="75" height="8" rx="3.6663" fill="#8EDEF4"/>
<path d="M47.3237 45.4701L49.7605 54.4048C50.0083 55.3137 51.2606 55.407 51.6404 54.5449L53.2895 50.8015C53.3903 50.5729 53.5729 50.3902 53.8015 50.2895L57.5786 48.6255C58.4369 48.2473 58.3494 47.0021 57.4466 46.7478L48.5596 44.2444C47.8113 44.0336 47.1191 44.72 47.3237 45.4701Z" fill="#F2385A"/>
<path d="M94.8841 52.9473C95.6826 53.7692 96.8451 54.4737 97.667 54.9082C96.4811 56.4229 94.8606 57.9494 92.7118 59.4524L92.113 60.8614L90.0816 58.513C90.0816 58.513 93.6277 56.6813 94.8841 52.9473Z" fill="url(#paint0_linear_5080_80669)"/>
<path d="M82.1908 58.1372C82.1908 58.1372 78.4803 73.2258 78.8561 92.1423C78.8678 92.4828 79.1144 92.7764 79.4432 92.8469C79.9363 92.9408 80.6761 93.0582 81.2749 93.0347C81.592 93.023 81.862 92.7764 81.909 92.4594C82.4139 89.1951 85.3025 70.8304 87.0638 67.8244C87.0638 67.8244 88.5198 84.1225 88.2732 92.5885C88.2615 92.7999 88.4259 92.976 88.6372 92.9995C88.9543 93.0347 89.4592 93.0465 90.105 92.976C90.3516 92.9408 90.5395 92.7529 90.5747 92.5181C90.927 89.7587 92.9348 73.3432 92.653 61.5424C92.6413 60.8731 90.833 58.0081 90.833 58.0081L82.1908 58.1372Z" fill="#102D42"/>
<path d="M76.402 40.0422C77.0243 38.9854 77.6349 37.9169 78.2572 36.8601C83.1185 33.2318 90.5512 34.9109 93.428 35.2279C94.3674 35.3336 95.2363 35.7798 95.8704 36.4843C98.3714 39.2907 103.89 46.9818 97.6669 54.9194C96.845 54.485 95.6825 53.7804 94.884 52.9585C95.5533 50.9741 95.5651 48.4378 94.0504 45.3614C94.0034 45.6079 93.9447 45.8545 93.8742 46.0894C91.9485 52.5475 91.925 57.8902 91.9485 59.1231C91.9485 59.2875 91.8546 59.4401 91.7019 59.5106C89.0482 60.6261 83.9052 60.0742 82.1791 59.8394C81.8621 59.7924 81.6507 59.5106 81.6859 59.1935C82.4374 53.0524 77.9285 43.0364 76.7425 40.5354C76.6603 40.3357 76.5429 40.1714 76.402 40.0422Z" fill="#618298"/>
<path d="M88.7311 30.1318L89.3299 35.3805C89.3299 35.3805 86.3944 36.3199 84.2221 34.8404L85.6546 30.0378L88.7311 30.1318Z" fill="url(#paint1_linear_5080_80669)"/>
<path d="M87.2164 67.4364C87.2869 67.4364 87.3456 67.3894 87.3573 67.319C87.6626 66.0508 90.0932 64.6183 90.1284 64.6065C90.1989 64.5596 90.2224 64.4774 90.1871 64.4069C90.1402 64.3365 90.058 64.313 89.9875 64.3482C89.8819 64.4069 87.416 65.8512 87.0872 67.2485C87.0637 67.3307 87.1225 67.4129 87.1929 67.4246C87.1929 67.4364 87.2047 67.4364 87.2164 67.4364Z" fill="url(#paint2_linear_5080_80669)"/>
<path d="M66.4447 41.8504C72.0222 42.5902 75.5918 39.0323 78.2573 36.8483C81.7799 33.9832 84.5745 35.2983 84.5745 35.2983L80.8875 42.6254C75.2865 48.0737 69.4507 46.9817 65.7519 45.3026C65.6697 43.9053 66.022 42.7311 66.4447 41.8504Z" fill="#618298"/>
<path d="M58.5655 38.6567L60.4207 39.6196C62.6517 40.9347 64.6479 41.6157 66.4327 41.8506C66.0217 42.7195 65.6577 43.9055 65.7399 45.3028C63.3798 44.2342 61.9002 42.9309 61.9002 42.9309C57.6848 40.512 58.5655 38.6567 58.5655 38.6567Z" fill="url(#paint3_linear_5080_80669)"/>
<path d="M53.1761 41.3459C53.2936 40.9466 53.5754 40.6179 53.9628 40.4652L57.6851 38.9035C57.6851 38.9035 57.7321 38.4221 56.8866 38.1051C56.0295 37.788 56.2173 36.8369 56.2173 36.8369C56.2173 36.8369 57.3798 37.3418 59.0941 38.152C60.0687 38.61 60.6324 39.4554 60.9259 40.0895L59.9865 41.3694C57.6851 42.0974 55.3602 42.2735 53 42.0387L53.1761 41.3459Z" fill="url(#paint4_linear_5080_80669)"/>
<path d="M84.2103 24.0733C84.1751 24.132 83.5058 27.9364 83.0948 30.2966C82.9187 31.2712 83.635 32.1753 84.6213 32.234L85.5254 32.2927C87.1811 32.3867 88.6488 31.2125 88.8954 29.5686L89.553 25.3062C89.553 25.2944 85.0675 22.5233 84.2103 24.0733Z" fill="url(#paint5_linear_5080_80669)"/>
<path d="M90.516 25.3058C90.8565 24.8713 91.1618 24.1785 90.422 23.4505C89.6705 22.7108 88.8251 22.8986 88.2967 23.1452C88.0619 23.2509 87.7683 23.2039 87.5922 23.0043C87.5217 22.9104 87.4043 22.8517 87.2399 22.8752C86.9229 22.9104 86.6528 22.699 86.6176 22.3937C86.5589 21.8536 86.2653 21.2313 85.3259 21.0434C83.5881 20.7029 82.731 22.4407 82.7544 23.6619C82.7897 24.8831 84.6801 25.1414 85.7604 24.93C86.5471 24.7774 87.2399 25.4819 87.5452 25.8577C87.6626 25.9986 87.6979 26.1747 87.6626 26.3508L87.3926 27.525C87.5804 27.889 87.7683 28.2648 88.0384 28.5818C88.2263 28.8049 88.4376 28.9341 88.6607 28.981C88.9895 28.3822 89.8936 28.2765 90.3046 28.2648C90.469 28.2648 90.6099 28.1943 90.7156 28.0652C91.0326 27.7012 91.5258 26.891 90.5747 26.0925C90.3516 25.9046 90.3281 25.5406 90.516 25.3058Z" fill="#102D42"/>
<path d="M88.3553 30.2493C88.3553 30.2493 88.3905 28.124 89.2594 27.9244C90.1166 27.7248 91.0442 28.3471 90.3162 29.6152C89.3886 31.2004 88.3553 30.2493 88.3553 30.2493Z" fill="url(#paint6_linear_5080_80669)"/>
<path d="M104.489 28.1245C104.489 28.1245 106.074 28.8995 106.368 29.7801C106.603 30.4964 108.352 30.5786 108.528 31.9759C108.622 32.6922 109.151 33.2793 109.867 33.385C111.652 33.655 114.411 34.5944 114.857 37.6943C115.198 40.0662 113.988 40.9704 112.72 41.2757C111.793 41.4988 111.17 42.4146 111.358 43.354C111.534 44.2582 111.264 45.3032 109.703 46.1251C106.203 47.9687 102.704 41.7453 102.704 41.7453L101.988 30.8722L104.489 28.1245Z" fill="#102D42"/>
<path d="M105.452 54.1801C103.691 46.7004 108.164 42.4615 108.164 42.4615C105.346 39.749 100.203 38.5161 100.203 38.5161C100.203 38.5161 95.295 42.1092 95.8821 44.9156C96.2226 46.5594 99.3343 54.7789 99.3343 54.7789C99.3343 54.7789 102.188 56.141 105.452 54.1801Z" fill="#DA6668"/>
<path d="M109.362 57.8794C108.646 55.7189 105.452 54.1689 105.452 54.1689C102.188 56.1299 99.3226 54.7678 99.3226 54.7678C99.3226 54.7678 98.6768 57.2336 99.123 59.5233C99.5692 61.813 102.364 76.5259 102.364 76.5259C106.767 77.4183 113.531 75.6335 113.531 75.6335C110.712 70.6666 110.078 60.0517 109.362 57.8794Z" fill="#F2385A"/>
<path d="M103.397 33.5727L104.83 40.0191C104.97 40.5828 104.454 40.4888 103.878 40.3831C102.939 40.207 101.73 39.843 101.319 39.1033C101.272 39.0328 101.26 38.9389 101.248 38.8567L100.626 34.3829C100.579 34.0307 100.767 33.6784 101.096 33.5375L102.281 33.0091C102.751 32.8212 103.28 33.0913 103.397 33.5727Z" fill="url(#paint7_linear_5080_80669)"/>
<path d="M108.152 42.4617C108.152 42.4617 118.18 49.6361 109.432 57.1628C109.432 57.1628 109.104 57.5385 108.446 57.7381C108.117 57.8321 107.131 58.5836 106.638 58.9593C106.473 59.0885 106.25 59.0415 106.145 58.8654C106.062 58.7362 106.051 58.5601 106.121 58.4192L107.366 55.8007C107.706 55.4837 108.235 55.4602 108.61 55.742C108.845 55.9299 109.197 55.8477 109.327 55.5776C110.008 54.2038 111.276 50.1527 106.051 45.5851C105.851 45.4089 105.804 45.1271 105.921 44.8923C106.285 44.1995 107.131 42.8022 108.152 42.4617Z" fill="url(#paint8_linear_5080_80669)"/>
<path d="M100.649 27.6905C100.649 27.6905 99.1228 28.7238 98.4652 31.3658C97.8077 33.996 98.8762 34.9471 99.9682 34.8884C101.06 34.8297 102.645 34.4892 104.019 32.5987C105.393 30.7082 102.657 26.4341 100.649 27.6905Z" fill="url(#paint9_linear_5080_80669)"/>
<path d="M102.634 31.5418C102.634 31.5418 103.197 27.7609 100.062 28.348L99.4281 29.0055C99.4281 29.0055 97.8899 27.2794 99.5925 25.9761C101.295 24.6727 103.643 25.0015 104.947 27.3851C106.25 29.7688 106.72 31.4361 105.628 32.9156C104.536 34.3951 103.714 33.127 103.714 33.127C103.714 33.127 104.219 31.8471 103.796 31.2952C103.385 30.7434 102.845 31.6123 102.845 31.6123L102.634 31.5418Z" fill="#102D42"/>
<path d="M102.786 32.1173C102.786 32.1173 103.068 30.1798 104.055 30.7317C105.053 31.2836 103.702 32.5518 103.15 32.9745L102.786 32.1173Z" fill="url(#paint10_linear_5080_80669)"/>
<path d="M37.2198 48.7274C37.2198 48.7274 33.9336 56.3138 31.9057 55.312C29.8777 54.2981 28.3629 45.9543 28.3629 45.9543C28.3629 45.9543 34.691 44.4272 37.2198 48.7274Z" fill="url(#paint11_linear_5080_80669)"/>
<path d="M25.7119 59.9177C25.6142 60.4064 25.1988 84.1795 27.7398 94.8444C27.7765 95.0154 27.691 95.1987 27.5321 95.2598C27.1412 95.4186 26.3838 95.6507 25.4676 95.6751C25.1866 95.6874 24.93 95.5041 24.8445 95.2231C24.1238 92.7554 20.6421 80.368 20.1779 68.5303C19.6648 55.3122 20.1779 68.0783 20.1779 68.0783L20.4711 59.9055L25.7119 59.9177Z" fill="#829DB0"/>
<path d="M15.6457 60.6387C13.5689 73.185 16.0977 91.6561 16.9528 95.2722C17.0017 95.4921 17.185 95.6631 17.4049 95.6998C17.7836 95.7609 18.4188 95.8097 19.0296 95.6387C19.2373 95.5776 19.3961 95.3821 19.3961 95.1623C19.5061 92.2425 19.3106 74.3089 21.2408 67.2111C21.3385 66.8569 21.5584 66.5392 21.8638 66.3193L25.6265 63.6439L25.9197 59.3193L15.6457 60.6387Z" fill="#829DB0"/>
<path d="M29.1203 37.3418C21.534 36.5844 15.7923 38.5024 15.7923 38.5024C13.9354 49.3383 15.4624 61.8357 15.4624 61.8357C20.2879 63.1062 25.7242 61.0661 25.7242 61.0661C26.5305 56.5338 30.2687 43.7921 30.2687 43.7921C33.3106 43.4134 31.0383 37.5373 29.1203 37.3418Z" fill="#DA6668"/>
<path d="M18.1745 44.5373L15.7801 38.5024C15.7801 38.5024 9.9651 42.4606 9 47.4693C10.0995 47.5548 12.103 47.8358 14.0576 48.8253C14.4974 46.4553 18.1745 44.5373 18.1745 44.5373Z" fill="#DA6668"/>
<path d="M23.7696 50.2179C23.7696 50.2179 17.2338 53.9073 15.0348 50.7555C14.5828 50.0958 14.4729 49.4483 14.5828 48.8253C12.6282 47.8357 10.6247 47.5548 9.52525 47.4692C9.23206 48.9841 9.39087 50.5844 10.2827 52.2092C14.1308 59.2825 24.6369 51.8305 24.6369 51.8305L23.7696 50.2179Z" fill="url(#paint12_linear_5080_80669)"/>
<path d="M22.9877 54.8846L26.5548 42.4361C26.5915 42.2895 26.7137 42.1918 26.8603 42.1796C27.5077 42.1063 29.3768 41.8986 31.5391 41.7153C34.1412 41.4954 37.1709 41.3122 38.9789 41.471C39.2355 41.4954 39.3943 41.7642 39.2721 41.9963C38.2459 44.0731 34.0191 52.5269 31.9056 55.3C31.8323 55.3977 31.7224 55.4466 31.6124 55.4466L23.3419 55.3733C23.0854 55.3488 22.9144 55.1167 22.9877 54.8846Z" fill="#035970"/>
<path d="M31.9057 40.6277L34.4956 40.2002C34.63 40.1757 34.7521 40.3101 34.7033 40.4445L34.4467 41.2141C34.4223 41.2874 34.3612 41.3363 34.3001 41.3363L31.808 41.6661C31.6736 41.6783 31.5759 41.5684 31.6003 41.434L31.7591 40.7621C31.7713 40.6888 31.8324 40.64 31.9057 40.6277Z" fill="#D4F5FF"/>
<path d="M29.9755 42.8146L30.1832 41.7029C30.2076 41.5929 30.2931 41.5074 30.4031 41.4952L35.6195 40.9699C35.7905 40.9577 35.9371 41.1165 35.9005 41.2875L35.5706 42.668C35.5462 42.7779 35.4485 42.8634 35.3385 42.8634L30.232 43.12C30.0732 43.12 29.9389 42.9734 29.9755 42.8146Z" fill="#D4F5FF"/>
<path d="M23.8428 51.8794C23.8428 51.8794 23.342 49.8393 23.5496 49.1063C23.7451 48.3855 24.136 47.4449 25.431 47.6526C26.7259 47.8602 28.253 48.41 28.253 48.41C28.253 48.41 28.1797 49.3506 27.1901 49.0452L27.8009 49.5217C27.8009 49.5217 27.7154 50.2791 26.8847 49.8759L27.4467 50.499C27.4467 50.499 27.0924 51.122 26.4816 50.7189C25.8708 50.328 25.5776 52.1238 23.8428 51.8794Z" fill="url(#paint13_linear_5080_80669)"/>
<path d="M37.1098 48.8373C37.1098 48.8373 38.6124 47.3713 38.8323 46.6506C39.0522 45.9298 39.211 44.9403 38.0016 44.4272C36.7922 43.9141 35.2163 43.572 35.2163 43.572C35.2163 43.572 34.7765 44.415 35.7782 44.6715L35.0086 44.7448C35.0086 44.7448 34.6787 45.4289 35.595 45.5266L34.7765 45.7588C34.7765 45.7588 34.752 46.4795 35.4728 46.4673C36.2058 46.4429 35.5095 48.1287 37.1098 48.8373Z" fill="url(#paint14_linear_5080_80669)"/>
<path d="M23.3418 32.2847L21.3627 38.0142C21.3261 38.1119 21.3749 38.2096 21.4604 38.2585C21.998 38.5517 23.9526 39.4191 26.2981 37.9287C26.5425 37.7698 26.7135 37.5255 26.7501 37.2323L27.3976 32.2725H23.3418V32.2847Z" fill="url(#paint15_linear_5080_80669)"/>
<path d="M27.6543 26.9697C27.6543 26.9697 29.8289 31.0622 29.5479 32.7237C29.2669 34.3729 26.5671 34.2629 24.2093 32.9191L22.5723 28.4968L27.6543 26.9697Z" fill="url(#paint16_linear_5080_80669)"/>
<path d="M24.3193 30.745C24.417 30.7083 24.4536 30.5862 24.3926 30.5006C24.2215 30.2319 23.8917 29.6944 23.7817 29.2179C23.7817 29.2179 23.3908 28.9614 24.7835 28.6315C26.1762 28.3017 28.2407 27.7886 28.6805 26.6036C29.1081 25.4553 27.9964 22.56 26.2128 24.8689C26.1395 24.9544 26.0173 24.9544 25.944 24.8689C25.6509 24.4902 24.8812 23.7083 23.8184 24.1848C22.8289 24.6368 22.7067 25.3575 22.7189 25.724C22.7189 25.834 22.6212 25.9195 22.5235 25.8951C22.0226 25.7973 20.8132 25.7118 20.2512 26.9579C19.787 27.9841 20.0924 28.5582 20.3612 28.8392C20.4467 28.9247 20.41 29.0835 20.2879 29.1202C19.958 29.2179 19.5304 29.4989 19.5671 30.2807C19.6282 31.3558 20.8254 31.2581 21.1674 31.2092C21.2285 31.197 21.2774 31.2214 21.314 31.2581C21.6072 31.5757 22.9266 32.9561 24.3437 33.1149C24.4659 33.1272 24.5636 33.005 24.5269 32.8951L23.9039 31.0992C23.8795 31.0137 23.9161 30.9282 24.0016 30.8916L24.3193 30.745Z" fill="#102D42"/>
<path d="M24.5758 31.0016C24.5758 31.0016 23.0243 29.9387 22.9144 30.8305C22.8044 31.7223 24.307 32.1255 25.0522 31.7956L24.5758 31.0016Z" fill="url(#paint17_linear_5080_80669)"/>
<rect x="9.15179" y="2.15179" width="50.6964" height="14.2679" rx="7.13393" fill="white" stroke="#FAB1A5" stroke-width="0.303571"/>
<circle cx="16.2857" cy="9.28585" r="4.85714" fill="#F2385A" stroke="white" stroke-width="0.607143"/>
<path d="M14.294 10.8572H16.1773V10.38H14.7931V8.16511H14.294V10.8572ZM18.076 9.38182C18.3019 9.30168 18.444 9.07218 18.444 8.83539C18.444 8.50753 18.1926 8.16511 17.6826 8.16511H16.5388V10.8572H17.7373C18.28 10.8572 18.586 10.4892 18.586 10.074C18.586 9.76432 18.4221 9.47289 18.076 9.38182ZM17.6025 8.60589C17.8247 8.60589 17.9449 8.75161 17.9449 8.90825C17.9449 9.06489 17.832 9.22882 17.5843 9.22882H17.0305V8.60589H17.6025ZM17.6425 10.4127H17.0305V9.65139H17.6425C17.9376 9.65139 18.0724 9.84446 18.0724 10.0375C18.0724 10.2197 17.9303 10.4127 17.6425 10.4127Z" fill="white"/>
<circle cx="28.4284" cy="9.28585" r="4.85714" fill="#DA6668" stroke="white" stroke-width="0.607143"/>
<path d="M27.3485 10.8572H27.8767L26.8457 8.16511H26.4632L25.4214 10.8572H25.9496L26.1718 10.2452H27.1262L27.3485 10.8572ZM26.6527 8.87546L26.9842 9.79711H26.3175L26.6527 8.87546ZM29.3486 10.8972C29.8623 10.8972 30.2921 10.6495 30.5325 10.3253L30.1865 10.012C29.9934 10.2597 29.7056 10.42 29.3741 10.42C28.8678 10.42 28.478 10.0448 28.478 9.52025C28.478 8.98475 28.8787 8.59861 29.3778 8.59861C29.7056 8.59861 29.9825 8.76618 30.1755 9.00661L30.5143 8.68239C30.2812 8.35089 29.855 8.11775 29.3559 8.11775C28.5982 8.11775 27.9643 8.68968 27.9643 9.52025C27.9643 10.3435 28.58 10.8972 29.3486 10.8972Z" fill="white"/>
<circle cx="40.5715" cy="9.28585" r="4.85714" fill="#FAB1A5" stroke="white" stroke-width="0.607143"/>
<path d="M39.7291 10.8972C40.2428 10.8972 40.6726 10.6495 40.9131 10.3253L40.567 10.012C40.3739 10.2597 40.0861 10.42 39.7546 10.42C39.2483 10.42 38.8585 10.0448 38.8585 9.52025C38.8585 8.98475 39.2592 8.59861 39.7583 8.59861C40.0861 8.59861 40.363 8.76618 40.5561 9.00661L40.8948 8.68239C40.6617 8.35089 40.2355 8.11775 39.7364 8.11775C38.9787 8.11775 38.3448 8.68968 38.3448 9.52025C38.3448 10.3435 38.9605 10.8972 39.7291 10.8972ZM41.8295 10.9009C42.3723 10.9009 42.8131 10.584 42.8131 9.88089V8.16511H42.314V9.85903C42.314 10.2197 42.1064 10.4237 41.7967 10.4237C41.6146 10.4237 41.4179 10.3435 41.2649 10.1796L41.0099 10.5657C41.2357 10.7989 41.5417 10.9009 41.8295 10.9009Z" fill="white"/>
<circle cx="52.7143" cy="9.28585" r="4.85714" fill="#4690A4" stroke="white" stroke-width="0.607143"/>
<path d="M51.2822 10.8572H51.8104L50.7794 8.16511H50.3969L49.3551 10.8572H49.8833L50.1055 10.2452H51.0599L51.2822 10.8572ZM50.5864 8.87546L50.9179 9.79711H50.2512L50.5864 8.87546ZM52.1543 10.8572H52.6461V9.26161L53.4621 10.4419H53.626L54.442 9.26161V10.8572H54.9374V8.16511H54.6205L53.5459 9.73518L52.4676 8.16511H52.1543V10.8572Z" fill="white"/>
<path d="M115.346 25.3533L115.598 25.8137C115.849 26.2729 116.226 26.6506 116.686 26.9016L117.146 27.1535C117.617 27.4114 117.617 28.0881 117.146 28.3457L116.686 28.5976C116.227 28.8486 115.849 29.2263 115.598 29.6856L115.346 30.1459C115.088 30.6173 114.411 30.6173 114.154 30.1459L113.902 29.6856C113.651 29.2263 113.273 28.8486 112.814 28.5976L112.354 28.3457C111.882 28.0881 111.882 27.4114 112.354 27.1535L112.814 26.9016C113.273 26.6506 113.651 26.2729 113.902 25.8137L114.154 25.3533C114.411 24.8822 115.088 24.8822 115.346 25.3533Z" fill="#F2BE38"/>
<path d="M65.4336 0.257007L65.6166 0.591833C65.7994 0.925834 66.074 1.20055 66.4082 1.38315L66.743 1.56636C67.0857 1.75391 67.0857 2.24614 66.743 2.43348L66.4082 2.6167C66.0742 2.79929 65.7994 3.07401 65.6166 3.40801L65.4336 3.74284C65.2461 4.08572 64.7539 4.08572 64.5665 3.74284L64.3833 3.40801C64.2007 3.07401 63.926 2.79929 63.592 2.6167L63.2572 2.43348C62.9143 2.24614 62.9143 1.75391 63.2572 1.56636L63.592 1.38315C63.926 1.20055 64.2007 0.925834 64.3833 0.591833L64.5665 0.257007C64.7539 -0.0856689 65.2461 -0.0856689 65.4336 0.257007Z" fill="#F2BE38"/>
<path d="M92.4336 11.257L92.6166 11.5918C92.7994 11.9258 93.074 12.2006 93.4082 12.3831L93.743 12.5664C94.0857 12.7539 94.0857 13.2461 93.743 13.4335L93.4082 13.6167C93.0742 13.7993 92.7994 14.074 92.6166 14.408L92.4336 14.7428C92.2461 15.0857 91.7539 15.0857 91.5665 14.7428L91.3833 14.408C91.2007 14.074 90.926 13.7993 90.592 13.6167L90.2572 13.4335C89.9143 13.2461 89.9143 12.7539 90.2572 12.5664L90.592 12.3831C90.926 12.2006 91.2007 11.9258 91.3833 11.5918L91.5665 11.257C91.7539 10.9143 92.2461 10.9143 92.4336 11.257Z" fill="#F2BE38"/>
</g>
<rect y="72" width="107" height="1" rx="0.5" fill="#102D42"/>
<defs>
<linearGradient id="paint0_linear_5080_80669" x1="92.7299" y1="63.5326" x2="93.5747" y2="54.2887" gradientUnits="userSpaceOnUse">
<stop stop-color="#F9B776"/>
<stop offset="1" stop-color="#F47960"/>
</linearGradient>
<linearGradient id="paint1_linear_5080_80669" x1="86.0054" y1="37.577" x2="86.6412" y2="30.9997" gradientUnits="userSpaceOnUse">
<stop stop-color="#F9B776"/>
<stop offset="1" stop-color="#F47960"/>
</linearGradient>
<linearGradient id="paint2_linear_5080_80669" x1="86.2144" y1="61.7388" x2="89.2313" y2="66.9111" gradientUnits="userSpaceOnUse">
<stop stop-color="#020039"/>
<stop offset="1" stop-color="#090056"/>
</linearGradient>
<linearGradient id="paint3_linear_5080_80669" x1="61.2624" y1="47.5459" x2="61.833" y2="39.7602" gradientUnits="userSpaceOnUse">
<stop stop-color="#F9B776"/>
<stop offset="1" stop-color="#F47960"/>
</linearGradient>
<linearGradient id="paint4_linear_5080_80669" x1="55.7672" y1="43.9249" x2="56.1315" y2="37.7048" gradientUnits="userSpaceOnUse">
<stop stop-color="#F9B776"/>
<stop offset="1" stop-color="#F47960"/>
</linearGradient>
<linearGradient id="paint5_linear_5080_80669" x1="85.3322" y1="35.233" x2="86.5188" y2="25.1308" gradientUnits="userSpaceOnUse">
<stop stop-color="#F9B776"/>
<stop offset="1" stop-color="#F47960"/>
</linearGradient>
<linearGradient id="paint6_linear_5080_80669" x1="89.1316" y1="31.4249" x2="89.4526" y2="28.3436" gradientUnits="userSpaceOnUse">
<stop stop-color="#F9B776"/>
<stop offset="1" stop-color="#F47960"/>
</linearGradient>
<linearGradient id="paint7_linear_5080_80669" x1="102.097" y1="42.9993" x2="103.44" y2="34.3582" gradientUnits="userSpaceOnUse">
<stop stop-color="#F9B776"/>
<stop offset="1" stop-color="#F47960"/>
</linearGradient>
<linearGradient id="paint8_linear_5080_80669" x1="108.356" y1="64.626" x2="112.159" y2="45.8802" gradientUnits="userSpaceOnUse">
<stop stop-color="#F9B776"/>
<stop offset="1" stop-color="#F47960"/>
</linearGradient>
<linearGradient id="paint9_linear_5080_80669" x1="100.403" y1="37.398" x2="101.321" y2="28.7473" gradientUnits="userSpaceOnUse">
<stop stop-color="#F9B776"/>
<stop offset="1" stop-color="#F47960"/>
</linearGradient>
<linearGradient id="paint10_linear_5080_80669" x1="103.354" y1="33.7648" x2="103.696" y2="31.0501" gradientUnits="userSpaceOnUse">
<stop stop-color="#F9B776"/>
<stop offset="1" stop-color="#F47960"/>
</linearGradient>
<linearGradient id="paint11_linear_5080_80669" x1="31.4551" y1="58.6813" x2="32.5439" y2="47.347" gradientUnits="userSpaceOnUse">
<stop stop-color="#F9B776"/>
<stop offset="1" stop-color="#F47960"/>
</linearGradient>
<linearGradient id="paint12_linear_5080_80669" x1="14.7138" y1="57.8864" x2="15.1234" y2="48.7317" gradientUnits="userSpaceOnUse">
<stop stop-color="#F9B776"/>
<stop offset="1" stop-color="#F47960"/>
</linearGradient>
<linearGradient id="paint13_linear_5080_80669" x1="25.1589" y1="53.3467" x2="25.5538" y2="48.338" gradientUnits="userSpaceOnUse">
<stop stop-color="#F9B776"/>
<stop offset="1" stop-color="#F47960"/>
</linearGradient>
<linearGradient id="paint14_linear_5080_80669" x1="36.2458" y1="50.6144" x2="36.9173" y2="44.4867" gradientUnits="userSpaceOnUse">
<stop stop-color="#F9B776"/>
<stop offset="1" stop-color="#F47960"/>
</linearGradient>
<linearGradient id="paint15_linear_5080_80669" x1="23.4617" y1="40.9718" x2="24.177" y2="33.3789" gradientUnits="userSpaceOnUse">
<stop stop-color="#F9B776"/>
<stop offset="1" stop-color="#F47960"/>
</linearGradient>
<linearGradient id="paint16_linear_5080_80669" x1="25.0164" y1="36.298" x2="25.7279" y2="28.1459" gradientUnits="userSpaceOnUse">
<stop stop-color="#F9B776"/>
<stop offset="1" stop-color="#F47960"/>
</linearGradient>
<linearGradient id="paint17_linear_5080_80669" x1="23.657" y1="32.3945" x2="23.7559" y2="30.7093" gradientUnits="userSpaceOnUse">
<stop stop-color="#F9B776"/>
<stop offset="1" stop-color="#F47960"/>
</linearGradient>
</defs>
</svg>
