<svg xmlns="http://www.w3.org/2000/svg" width="180" height="181" fill="none">
  <g clip-path="url(#a)">
    <path fill="#000" d="M95 103v-1 1Zm0-6v-1 1Zm0-1v-1 1Zm0 8v1-1Zm0-1v1-1Zm0 2Zm0 3Zm1 2v1-2 1Zm0-20Zm0-1Zm0 23 1 1-1-1Zm1-24v-1l-1 1h1Zm0 26v-1 1Zm0 0Zm1 3v1-1Zm0-1v1-1Zm0 2Zm0 0 1 1-1-1Zm1-36Z"/>
    <path fill="#9BE9FD" d="m90 58 1 1a33 33 0 0 0-7-1h-5l-4 1h-1l-2 1h-1l-5 3v-1 1h-1 1l-1 1h-1l-1 1v-1l-1-1v-1h1l1-1h1l1-1a36 36 0 0 1 23-4l1 2Zm10 64a35 35 0 0 1-15 4h-6l-1-1h-3l-2-1h-2l-1-1h-1l-1-1h-1l-1-1a38 38 0 0 1-10-9 60 60 0 0 1-3-4 13 13 0 0 0 3 1 31 31 0 0 0 8 8l4 3h2l1 1h1a33 33 0 0 0 6 2h1s-1 0 0 0h11l1-1h2l2-1 3-1 1-1a64 64 0 0 0 1 3ZM85 91Zm3-21v1-1Zm-1 16h-1 1v-1l1-3v-3 1l1-1v-2l1-3v-2l-2-1v-1 2h-1s1 0 0 0v1l-1 3-1 4v1l-1 3v1l-1 2v2l-1 1 3 1v-1s0 1 0 0l1-2v-1l1-1Zm-4 4h-1 1Zm-1 0Zm-11 9Zm8-8v1-1l-1 1h1-1l-1 1h-1v1l-1-1v1l-1 1-2 1h-1l-1 1 1 2h1-1 2v-1l2-1 2-1h1v-1l2-1 2-1 1-1h1l-2-2h-2v1h-1Z"/>
    <path fill="#000" d="M57 113Z"/>
    <path fill="#1485A4" d="m141 123-70 41c-2 1-2 3-2 6l2 7c0 2 2 3 5 3h75c3 0 5-3 4-6l-14-51Z"/>
    <path fill="#9BE9FD" d="M84 119Zm0 0Zm-3-5Zm4 4h-1s1 0 0 0c0 0 1 0 0 0l1-1h-1 1v-1h-1v-2h-2s-1 0 0 0h-1v1l1 1h-1 1v1h-1l1 1h-1c1 0 0 0 0 0h1v1s-1 0 0 0h-1 3v-1h1-1 1Zm2-51Zm0 0Zm-3-5Zm4 4h-1 1-1 1-1 1v-1h-1s1 0 0 0h1v-1h-1c1 0 0 0 0 0s1 0 0 0c0 0 1 0 0 0h1-1v-2h-3 1-1s1 0 0 0v1l1 1h-1 1v2s-1 0 0 0h-1 1v1h-1 3v-1h1c-1 0 0 0 0 0Z"/>
    <path fill="#0094C2" d="M75 29Zm-8-8Zm7 6c-1 0 0 0 0 0l-1-1-1-1v-1h-1 1-1l-1-1-1-1h1l-1-1v1-1h-2 1v1l1 2 2 1v1l1 1v1h1v1h1v1l1-1-1-1v-1Zm18 2h1-1Zm3-8Zm-1 6v-1h1v-2 1-1l1-1v-2h-1v1l-1 1-1 1v2h-1v2h-1v1h2-1 1v-1l1-1Zm-11 2v-1 1Zm0-4v-5 1-6h-1v14h1v-4Z"/>
    <path fill="#9BE9FD" d="M66 112v1-1Zm1-6Zm0 6c0-1 0 0 0 0v-1h1v-2 1l1-1v-1 1-1l-2-2c0 1 0 0 0 0v1l-1 1v1h-1v1-1l-1 1v1l2 1v1-1h1Zm3-46Zm5 3Zm-5-2 1 1s0 1 0 0v1h1v1h1l2-1-1-1v-1h-1v-2c-1 0 0 0 0 0h-1v-1l-2 2v1Z"/>
    <mask id="b" width="88" height="59" x="68" y="122" maskUnits="userSpaceOnUse" style="mask-type:luminance">
      <path fill="#fff" d="m141 123-70 41c-2 1-2 3-2 6l2 7c0 2 2 3 5 3h75c3 0 5-3 4-6l-14-51Z"/>
    </mask>
    <g mask="url(#b)">
      <path fill="#0094C2" d="m64 177 6-1-6 1Zm6-1Z"/>
      <path fill="#66D6F9" d="M159 127h-1a13 13 0 0 0-1-3v-1l-1-1-1-1-1-1-2-1-3-1h-7l-2 1h-4l-1 1h-1 1l-3 1h-3l-1 1h-1a251 251 0 0 0-2 1l-1 1-4 2a115 115 0 0 0-37 32l1-3 2-2-1 2v1l-1 2h-1v1a27 27 0 0 0-3 4l-1 1v1l-1 2a15 15 0 0 0 0 5v2l1 1v1l1 2a89 89 0 0 1 1 2l1 1a18 18 0 0 0 8 6l4 1s-1 0 0 0l2 1 2 1 3 1 1 1 2 1c1 0 2 0 0 0a31 31 0 0 0 8 3h6-2 2l2-1 3 1a123 123 0 0 1 8-2h-1l7-1a65 65 0 0 0 20-11l5-4-2 1 1-2 2-1-1 2v-1h1l1-1 1-2 1-1 1-1 1-2 1-1 1-1 1-1v-1l1-1v-2l1-1v-4a149 149 0 0 0-5 0h-3a34 34 0 0 0-8 1h-1a258 258 0 0 0-21 7l-6 2h-1l-2 1-2 1v-1l-2 1h1l-1 1-2 1-6 3a93 93 0 0 0-18 11l2-2-1 1-1 1-1 1-1 1-1 1-1 1-3 4-5 6 1 2v4l1 2v1l1 1v1h1-1 1v-2l1-2v2a87 87 0 0 0-1 1v1-1l1-1v-2l2-2 1-2v-1h1l1-2 1-1 1-1 2-2 1-2 1-1 2-1h-1 2v-1l1-1 2-1 1-1s-1 1 0 0l1-1h1l2-1 2-1 1-1 2-1a189 189 0 0 1 42-16h2v1h-1v1h-1v1c-3 3-7 7-12 9l-2 2h-2a53 53 0 0 1-14 5 79 79 0 0 1-10 1h-4l-5-2-8-3-7-4h-2l-1-1-1-1-1-1-1-1v1-1l-1-3v-1a10 10 0 0 1 1-3l1-1v-1l1-2a51 51 0 0 1 10-12 91 91 0 0 1 15-12 121 121 0 0 1 13-7l1-1h2l2-1 7-2 2-1h7v1h1v5l-1 1-2 2-2 2-1 2-1 1-2 1-1 1-1 1h-1l-4 3-3 2h1-1a80 80 0 0 1-5 3l-2 1-2 2-3 2v-1l-2 2h-2l-1 1-4 1-1 1-2 1v-1a52 52 0 0 1-6 2l-7 2a270 270 0 0 1-23 3h-7s-7 8 4 8h2l3-1-3 1c2-1 1 0 0 0h3-1l5-1h3l13-2 12-2c8-2 16-6 24-10 1 0 0 0 0 0a111 111 0 0 0 13-8l1-1h1l1-1 1-1 1-2 2-1 1-1 1-1 2-1 4-5a17 17 0 0 0 2-5v-7Z"/>
    </g>
    <path fill="#9BE9FD" d="M101 121v-1 1ZM85 55l1 1-1-1Zm12 47h-1l1-1h-1v-1l1-1h-1v-1l1-5v-1l1-2v-2 1-2h1v-2l1-1v-3h1l1-2-1 1 1-1 1-2v1-2h1a2 2 0 0 0 0-3h-1v-1h-1v-1h-1 1l-7-8c0-1 0 0 0 0l-1-1h1-1v-1h-1l-2-3v-1l-2-2h-4l1 1v1l1 1 2 1v2l1-1v2h1l8 10a2559 2559 0 0 0 2 3 33 33 0 0 0-5 8v3l-2 6a52 52 0 0 0 0 7v10l1 1v2l1 2v1l1 1v2a34 34 0 0 0 1 3v1h2l1-2-1-1 1 1c-1-1 0 0 0 0v-1h-1v-1l-1-2v-2l-1-4-1-3v-5Z"/>
    <mask id="c" width="119" height="150" x="23" y="0" maskUnits="userSpaceOnUse" style="mask-type:luminance">
      <path fill="#fff" d="M98 39c-12-10-25-1-14 10l6 9 1 1 11 14 1 2-2 3a40 40 0 0 0-2 4 43 43 0 0 0-2 5v1h-1v2a36 36 0 0 0-1 4v5a16 16 0 0 0 0 1 47 47 0 0 0 0 2v3a42 42 0 0 0 0 1v2a23 23 0 0 0 1 2v2a54 54 0 0 0 1 1v1a52 52 0 0 0 1 4l1 1v2a34 34 0 0 1-44-12l-2-1-3-1 6 5 1 1c4 7 3 12-1 14 6 8 18 17 39 23l47-27c-12-58-44-84-44-84ZM63 64 29 20C15 2 29-7 43 8l40 40 6 9s-18-2-26 7Zm-4-5c29 32 10 38-6 25 25 23 5 28-3 23 20 16 4 28-7 18-15-14-13-26-1-23-19-20-11-35 5-25-17-22 1-29 12-18Z"/>
    </mask>
    <g mask="url(#c)">
      <path fill="#7F7F7F" d="m12-22-1 1v-2l1 1Zm-1 2v1l1-1h-1Zm0 2v1h1l-1-1Zm0 2v1h1l-1-1Zm0 3v1l1-1h-1Zm0 2v1l1-1h-1Zm0 2v1h1l-1-1Zm0 2v2l1-1-1-1Zm0 3v1l1-1h-1Zm0 2v1h1l-1-1Zm0 2v1h1l-1-1Zm0 3v1l1-1h-1Zm0 2v1l1-1h-1Zm0 2v1h1l-1-1Zm0 2v2l1-1-1-1Zm0 3v1l1-1h-1Zm0 2v1h1l-1-1Zm0 2v2l1-1-1-1Zm0 3v1l1-1h-1Zm0 2v1h1l-1-1Zm0 2v1h1l-1-1Zm0 3v1l1-1h-1Zm0 2v1l1-1h-1Zm0 2v1h1l-1-1Zm0 2v2l1-1-1-1Zm0 3v1l1-1h-1Zm0 2v1h1l-1-1Zm0 2v1h1l-1-1Zm0 3v1l1-1h-1Zm0 2v1l1-1h-1Zm0 2v1h1l-1-1Zm0 2v2l1-1-1-1Zm0 3v1l1-1h-1Zm0 2v1h1l-1-1Zm0 2v2l1-1-1-1Zm0 3v1l1-1h-1Zm0 2v1h1l-1-1Zm0 2v1h1l-1-1Zm0 3v1l1-1h-1Zm0 2v1l1-1h-1Zm0 2v1h1l-1-1Zm0 2v2l1-1-1-1Zm0 3v1l1-1h-1Zm0 2v1h1l-1-1Zm0 2v1h1l-1-1Zm0 3v1l1-1h-1Zm0 2v1l1-1h-1Zm0 2v1h1l-1-1Zm0 2v2l1-1-1-1Zm0 3v1l1-1h-1Zm0 2v1h1l-1-1Zm0 2v2l1-1-1-1Zm0 3v1l1-1h-1Zm0 2v1h1l-1-1Zm0 2v1a1 1 0 0 0 0-1Zm0 3v1l1-1h-1Zm0 2v1l1-1h-1Zm0 2v1h1l-1-1Zm0 2a1 1 0 0 0 0 2l1-1-1-1Zm0 3v1l1-1h-1Zm0 2v1h1l-1-1Zm0 2v1h1l-1-1Zm0 3v1l1-1h-1Zm0 2v1l1-1h-1Zm0 2v1h1l-1-1Zm0 2v2a1 1 0 0 0 0-2Zm0 3v1l1-1h-1Zm0 2v1h1l-1-1Zm0 2v2l1-1-1-1Zm0 3a1 1 0 0 0 0 1l1-1h-1Zm0 2v1h1l-1-1Zm0 2v1h1l-1-1Zm0 3v1l1-1h-1Zm0 2v1l1-1h-1Zm0 2v1h1l-1-1Zm0 2v2l1-1-1-1Zm0 3v1a1 1 0 0 0 0-1Zm0 2v1h1l-1-1Zm0 2v1h1l-1-1Zm0 3v1l1-1h-1Zm0 2a1 1 0 0 0 0 1l1-1h-1Zm0 2v1h1l-1-1Zm0 3v1l1-1h-1Zm3-187h-1l1 1v-1Zm0 2h-1l1 1v-1Zm0 2-1 1h1v-1Zm0 2-1 1 1 1v-2Zm0 3h-1l1 1v-1Zm0 2-1 1h1v-1Zm0 2-1 1h1v-1Zm0 3h-1l1 1v-1Zm0 2h-1l1 1v-1Zm0 2-1 1h1v-1Zm0 2-1 1 1 1V1Zm0 3h-1l1 1V4Zm0 2-1 1h1V6Zm0 2-1 1h1V8Zm0 3h-1l1 1v-1Zm0 2h-1l1 1v-1Zm0 2-1 1h1v-1Zm0 3h-1l1 1v-1Zm0 2h-1l1 1v-1Zm0 2-1 1h1v-1Zm0 2-1 1 1 1v-2Zm0 3h-1l1 1v-1Zm0 2-1 1h1v-1Zm0 2-1 1h1v-1Zm0 3h-1l1 1v-1Zm0 2h-1l1 1v-1Zm0 2-1 1h1v-1Zm0 2-1 1 1 1v-2Zm0 3h-1l1 1v-1Zm0 2-1 1h1v-1Zm0 2-1 1h1v-1Zm0 3h-1l1 1v-1Zm0 2-1 1h1v-1Zm0 2-1 1h1v-1Zm0 3h-1l1 1v-1Zm0 2h-1l1 1v-1Zm0 2-1 1h1v-1Zm0 2-1 1 1 1v-2Zm0 3h-1l1 1v-1Zm0 2-1 1h1v-1Zm0 2-1 1h1v-1Zm0 3h-1l1 1v-1Zm0 2h-1l1 1v-1Zm0 2-1 1h1v-1Zm0 2-1 1 1 1v-2Zm0 3h-1l1 1v-1Zm0 2-1 1h1v-1Zm0 2-1 1h1v-1Zm0 3h-1l1 1v-1Zm0 2-1 1h1v-1Zm0 2-1 1h1v-1Zm0 3h-1l1 1v-1Zm0 2h-1l1 1v-1Zm0 2-1 1h1v-1Zm0 2-1 1 1 1v-2Zm0 3h-1l1 1v-1Zm0 2-1 1h1v-1Zm0 2-1 1h1v-1Zm0 3h-1l1 1v-1Zm0 2h-1l1 1v-1Zm0 2-1 1h1a1 1 0 0 0 0-1Zm0 2-1 1 1 1v-2Zm0 3a1 1 0 0 0 0 1v-1Zm0 2-1 1h1v-1Zm0 2-1 1h1v-1Zm0 3h-1l1 1v-1Zm0 2-1 1h1v-1Zm0 2-1 1h1v-1Zm0 3h-1l1 1v-1Zm0 2h-1l1 1v-1Zm0 2-1 1h1v-1Zm0 2-1 1 1 1a1 1 0 0 0 0-2Zm0 3h-1l1 1v-1Zm0 2a1 1 0 0 0 0 1v-1Zm0 2-1 1h1v-1Zm0 3h-1l1 1v-1Zm0 2h-1l1 1v-1Zm0 2-1 1h1v-1Zm0 2-1 1 1 1v-2Zm0 3h-1l1 1v-1Zm0 2-1 1h1v-1Zm0 2-1 1 1 1v-2Zm2-187-1 1 1 1v-2Zm0 3h-1l1 1v-1Zm0 2-1 1h1v-1Zm0 2-1 1h1v-1Zm0 3h-1l1 1v-1Zm0 2h-1l1 1v-1Zm0 2-1 1h1v-1Zm0 2-1 1 1 1v-2Zm0 3h-1l1 1v-1Zm0 2-1 1h1v-1Zm0 2-1 1h1V0Zm0 3h-1l1 1V3Zm0 2h-1l1 1V5Zm0 2-1 1h1V7Zm0 2-1 1 1 1V9Zm0 3h-1l1 1v-1Zm0 2-1 1h1v-1Zm0 2-1 1 1 1v-2Zm0 3h-1l1 1v-1Zm0 2-1 1h1v-1Zm0 2-1 1h1v-1Zm0 3h-1l1 1v-1Zm0 2h-1l1 1v-1Zm0 2-1 1h1v-1Zm0 2-1 1 1 1v-2Zm0 3h-1l1 1v-1Zm0 2-1 1h1v-1Zm0 2-1 1h1v-1Zm0 3h-1l1 1v-1Zm0 2h-1l1 1v-1Zm0 2-1 1h1v-1Zm0 2-1 1 1 1v-2Zm0 3h-1l1 1v-1Zm0 2-1 1h1v-1Zm0 2-1 1 1 1v-2Zm0 3h-1l1 1v-1Zm0 2-1 1h1v-1Zm0 2-1 1h1v-1Zm0 3h-1l1 1v-1Zm0 2h-1l1 1v-1Zm0 2-1 1h1v-1Zm0 2-1 1 1 1v-2Zm0 3h-1l1 1v-1Zm0 2-1 1h1v-1Zm0 2-1 1h1v-1Zm0 3h-1l1 1v-1Zm0 2h-1l1 1v-1Zm0 2-1 1h1v-1Zm0 2-1 1 1 1v-2Zm0 3h-1l1 1v-1Zm0 2-1 1h1v-1Zm0 2-1 1 1 1v-2Zm0 3h-1l1 1v-1Zm0 2-1 1h1v-1Zm0 2-1 1h1a1 1 0 0 0 0-1Zm0 3h-1l1 1v-1Zm0 2h-1l1 1v-1Zm0 2-1 1h1v-1Zm0 2a1 1 0 0 0 0 2v-2Zm0 3h-1l1 1v-1Zm0 2-1 1h1v-1Zm0 2-1 1h1v-1Zm0 3h-1l1 1v-1Zm0 2h-1l1 1v-1Zm0 2-1 1h1v-1Zm0 2-1 1 1 1a1 1 0 0 0 0-2Zm0 3h-1l1 1v-1Zm0 2-1 1h1v-1Zm0 2-1 1 1 1v-2Zm0 3a1 1 0 0 0 0 1v-1Zm0 2-1 1h1v-1Zm0 2-1 1h1v-1Zm0 3h-1l1 1v-1Zm0 2h-1l1 1v-1Zm0 2-1 1h1v-1Zm0 2-1 1 1 1v-2Zm0 3h-1l1 1a1 1 0 0 0 0-1Zm0 2-1 1h1v-1Zm0 2-1 1h1v-1Zm0 3h-1l1 1v-1Zm0 2a1 1 0 0 0 0 1v-1Zm0 2-1 1h1v-1Zm0 3h-1l1 1v-1Zm2-187v1l1-1h-1Zm0 2v1l1-1h-1Zm0 2v1h1l-1-1Zm0 2v2l1-1-1-1Zm0 3v1l1-1h-1Zm0 2v1h1l-1-1Zm0 2v1h1l-1-1Zm0 3v1l1-1h-1Zm0 2v1l1-1h-1Zm0 2v1h1l-1-1Zm0 2v2l1-1-1-1Zm0 3v1l1-1h-1Zm0 2v1h1l-1-1Zm0 2v1h1l-1-1Zm0 3v1l1-1h-1Zm0 2v1l1-1h-1Zm0 2v1h1l-1-1Zm0 3v1l1-1h-1Zm0 2v1l1-1h-1Zm0 2v1h1l-1-1Zm0 2v2l1-1-1-1Zm0 3v1l1-1h-1Zm0 2v1h1l-1-1Zm0 2v1h1l-1-1Zm0 3v1l1-1h-1Zm0 2v1l1-1h-1Zm0 2v1h1l-1-1Zm0 2v2l1-1-1-1Zm0 3v1l1-1h-1Zm0 2v1h1l-1-1Zm0 2v1h1l-1-1Zm0 3v1l1-1h-1Zm0 2v1h1l-1-1Zm0 2v1h1l-1-1Zm0 3v1l1-1h-1Zm0 2v1l1-1h-1Zm0 2v1h1l-1-1Zm0 2v2l1-1-1-1Zm0 3v1l1-1h-1Zm0 2v1h1l-1-1Zm0 2v1h1l-1-1Zm0 3v1l1-1h-1Zm0 2v1l1-1h-1Zm0 2v1h1l-1-1Zm0 2v2l1-1-1-1Zm0 3v1l1-1h-1Zm0 2v1h1l-1-1Zm0 2v1h1l-1-1Zm0 3v1l1-1h-1Zm0 2v1h1l-1-1Zm0 2v1h1l-1-1Zm0 3v1l1-1h-1Zm0 2v1l1-1h-1Zm0 2v1h1l-1-1Zm0 2v2l1-1-1-1Zm0 3v1l1-1h-1Zm0 2v1h1l-1-1Zm0 2v1h1l-1-1Zm0 3v1l1-1h-1Zm0 2v1l1-1h-1Zm0 2v1a1 1 0 0 0 0-1Zm0 2v2l1-1-1-1Zm0 3a1 1 0 0 0 0 1l1-1h-1Zm0 2v1h1l-1-1Zm0 2v1h1l-1-1Zm0 3v1l1-1h-1Zm0 2v1h1l-1-1Zm0 2v1h1l-1-1Zm0 3v1l1-1h-1Zm0 2v1l1-1h-1Zm0 2v1h1l-1-1Zm0 2v2a1 1 0 0 0 0-2Zm0 3v1l1-1h-1Zm0 2a1 1 0 0 0 0 1h1l-1-1Zm0 2v1h1l-1-1Zm0 3v1l1-1h-1Zm0 2v1l1-1h-1Zm0 2v1h1l-1-1Zm0 2v2l1-1-1-1Zm0 3v1l1-1h-1Zm0 2v1h1l-1-1Zm0 2v2l1-1-1-1Zm2-187v2l1-1-1-1Zm0 3v1l1-1h-1Zm0 2v1h1l-1-1Zm0 2v1h1l-1-1Zm0 3v1l1-1h-1Zm0 2v1l1-1h-1Zm0 2v1h1l-1-1Zm0 2v2l1-1-1-1Zm0 3v1l1-1h-1Zm0 2v1h1l-1-1Zm0 2v1h1l-1-1Zm0 3v1l1-1h-1Zm0 2v1l1-1h-1Zm0 2v1h1l-1-1Zm0 2v2l1-1-1-1Zm0 3v1l1-1h-1Zm0 2v1h1l-1-1Zm0 2v2l1-1-1-1Zm0 3v1l1-1h-1Zm0 2v1h1l-1-1Zm0 2v1h1l-1-1Zm0 3v1l1-1h-1Zm0 2v1l1-1h-1Zm0 2v1h1l-1-1Zm0 2v2l1-1-1-1Zm0 3v1l1-1h-1Zm0 2v1h1l-1-1Zm0 2v1h1l-1-1Zm0 3v1l1-1h-1Zm0 2v1l1-1h-1Zm0 2v1h1l-1-1Zm0 2v2l1-1-1-1Zm0 3v1l1-1h-1Zm0 2v1h1l-1-1Zm0 2v2l1-1-1-1Zm0 3v1l1-1h-1Zm0 2v1h1l-1-1Zm0 2v1h1l-1-1Zm0 3v1l1-1h-1Zm0 2v1l1-1h-1Zm0 2v1h1l-1-1Zm0 2v2l1-1-1-1Zm0 3v1l1-1h-1Zm0 2v1h1l-1-1Zm0 2v1h1l-1-1Zm0 3v1l1-1h-1Zm0 2v1l1-1h-1Zm0 2v1h1l-1-1Zm0 2v2l1-1-1-1Zm0 3v1l1-1h-1Zm0 2v1h1l-1-1Zm0 2v2l1-1-1-1Zm0 3v1l1-1h-1Zm0 2v1h1l-1-1Zm0 2v1a1 1 0 0 0 0-1Zm0 3v1l1-1h-1Zm0 2v1l1-1h-1Zm0 2v1h1l-1-1Zm0 2a1 1 0 0 0 0 2l1-1-1-1Zm0 3v1l1-1h-1Zm0 2v1h1l-1-1Zm0 2v1h1l-1-1Zm0 3v1l1-1h-1Zm0 2v1l1-1h-1Zm0 2v1h1l-1-1Zm0 2v2a1 1 0 0 0 0-2Zm0 3v1l1-1h-1Zm0 2v1h1l-1-1Zm0 2v2l1-1-1-1Zm0 3a1 1 0 0 0 0 1l1-1h-1Zm0 2v1h1l-1-1Zm0 2v1h1l-1-1Zm0 3v1l1-1h-1Zm0 2v1l1-1h-1Zm0 2v1h1l-1-1Zm0 2v2l1-1-1-1Zm0 3v1a1 1 0 0 0 0-1Zm0 2v1h1l-1-1Zm0 2v1h1l-1-1Zm0 3v1l1-1h-1Zm0 2a1 1 0 0 0 0 1l1-1h-1Zm0 2v1h1l-1-1Zm0 3v1l1-1h-1Zm3-187h-1l1 1v-1Zm0 2h-1l1 1v-1Zm0 2-1 1h1v-1Zm0 2-1 1 1 1v-2Zm0 3h-1l1 1v-1Zm0 2-1 1h1v-1Zm0 2-1 1h1v-1Zm0 3h-1l1 1v-1Zm0 2h-1l1 1v-1Zm0 2-1 1h1a1 1 0 1 0 0-1Zm0 2-1 1 1 1V1Zm0 3h-1l1 1V4Zm0 2-1 1h1V6Zm0 2-1 1h1V8Zm0 3h-1l1 1v-1Zm0 2h-1l1 1v-1Zm0 2-1 1h1v-1Zm0 3h-1l1 1v-1Zm0 2h-1l1 1v-1Zm0 2-1 1h1v-1Zm0 2-1 1 1 1v-2Zm0 3h-1l1 1v-1Zm0 2-1 1h1v-1Zm0 2-1 1h1v-1Zm0 3h-1l1 1v-1Zm0 2h-1l1 1v-1Zm0 2-1 1h1v-1Zm0 2-1 1 1 1v-2Zm0 3h-1l1 1v-1Zm0 2-1 1h1v-1Zm0 2-1 1h1v-1Zm0 3h-1l1 1v-1Zm0 2-1 1h1v-1Zm0 2-1 1h1v-1Zm0 3h-1l1 1v-1Zm0 2h-1l1 1v-1Zm0 2-1 1h1v-1Zm0 2-1 1 1 1v-2Zm0 3h-1l1 1v-1Zm0 2-1 1h1v-1Zm0 2-1 1h1v-1Zm0 3h-1l1 1v-1Zm0 2h-1l1 1v-1Zm0 2-1 1h1v-1Zm0 2-1 1 1 1v-2Zm0 3h-1l1 1v-1Zm0 2-1 1h1v-1Zm0 2-1 1h1v-1Zm0 3h-1l1 1v-1Zm0 2-1 1h1v-1Zm0 2-1 1h1v-1Zm0 3h-1l1 1v-1Zm0 2h-1l1 1v-1Zm0 2-1 1h1v-1Zm0 2-1 1 1 1v-2Zm0 3h-1l1 1v-1Zm0 2-1 1h1v-1Zm0 2-1 1h1v-1Zm0 3h-1l1 1v-1Zm0 2h-1l1 1v-1Zm0 2-1 1h1a1 1 0 0 0 0-1Zm0 2-1 1 1 1v-2Zm0 3a1 1 0 0 0 0 1v-1Zm0 2-1 1h1v-1Zm0 2-1 1h1v-1Zm0 3h-1l1 1v-1Zm0 2-1 1h1v-1Zm0 2-1 1h1v-1Zm0 3h-1l1 1v-1Zm0 2h-1l1 1v-1Zm0 2-1 1h1v-1Zm0 2-1 1 1 1a1 1 0 0 0 0-2Zm0 3h-1l1 1v-1Zm0 2a1 1 0 0 0 0 1v-1Zm0 2-1 1h1v-1Zm0 3h-1l1 1v-1Zm0 2h-1l1 1v-1Zm0 2-1 1h1v-1Zm0 2-1 1 1 1v-2Zm0 3h-1l1 1v-1Zm0 2-1 1h1v-1Zm0 2-1 1 1 1v-2Zm2-187-1 1 1 1 1-1-1-1Zm0 3h-1l1 1 1-1h-1Zm0 2-1 1h2l-1-1Zm0 2-1 1h2l-1-1Zm0 3h-1l1 1 1-1h-1Zm0 2h-1l1 1 1-1h-1Zm0 2-1 1h2l-1-1Zm0 2-1 1 1 1 1-1-1-1Zm0 3h-1l1 1 1-1h-1Zm0 2-1 1h2l-1-1Zm0 2-1 1h2l-1-1Zm0 3h-1l1 1 1-1h-1Zm0 2h-1l1 1 1-1h-1Zm0 2-1 1h2l-1-1Zm0 2-1 1 1 1 1-1-1-1Zm0 3h-1l1 1 1-1h-1Zm0 2-1 1h2l-1-1Zm0 2-1 1 1 1 1-1-1-1Zm0 3h-1l1 1 1-1h-1Zm0 2-1 1h2l-1-1Zm0 2-1 1h2l-1-1Zm0 3h-1l1 1 1-1h-1Zm0 2h-1l1 1 1-1h-1Zm0 2-1 1h2l-1-1Zm0 2-1 1 1 1 1-1-1-1Zm0 3h-1l1 1 1-1h-1Zm0 2-1 1h2l-1-1Zm0 2-1 1h2l-1-1Zm0 3h-1l1 1 1-1h-1Zm0 2h-1l1 1 1-1h-1Zm0 2-1 1h2l-1-1Zm0 2-1 1 1 1 1-1-1-1Zm0 3h-1l1 1 1-1h-1Zm0 2-1 1h2l-1-1Zm0 2-1 1 1 1 1-1-1-1Zm0 3h-1l1 1 1-1h-1Zm0 2-1 1h2l-1-1Zm0 2-1 1h2l-1-1Zm0 3h-1l1 1 1-1h-1Zm0 2h-1l1 1 1-1h-1Zm0 2-1 1h2l-1-1Zm0 2-1 1 1 1 1-1-1-1Zm0 3h-1l1 1 1-1h-1Zm0 2-1 1h2l-1-1Zm0 2-1 1h2l-1-1Zm0 3h-1l1 1 1-1h-1Zm0 2h-1l1 1 1-1h-1Zm0 2-1 1h2l-1-1Zm0 2-1 1 1 1 1-1-1-1Zm0 3h-1l1 1 1-1h-1Zm0 2-1 1h2l-1-1Zm0 2-1 1 1 1 1-1-1-1Zm0 3h-1l1 1 1-1h-1Zm0 2-1 1h2l-1-1Zm0 2-1 1h1a1 1 0 0 0 0-1Zm0 3h-1l1 1 1-1h-1Zm0 2h-1l1 1 1-1h-1Zm0 2-1 1h2l-1-1Zm0 2a1 1 0 0 0 0 2l1-1-1-1Zm0 3h-1l1 1 1-1h-1Zm0 2-1 1h2l-1-1Zm0 2-1 1h2l-1-1Zm0 3h-1l1 1 1-1h-1Zm0 2h-1l1 1 1-1h-1Zm0 2-1 1h2l-1-1Zm0 2-1 1 1 1a1 1 0 0 0 0-2Zm0 3h-1l1 1 1-1h-1Zm0 2-1 1h2l-1-1Zm0 2-1 1 1 1 1-1-1-1Zm0 3a1 1 0 0 0 0 1l1-1h-1Zm0 2-1 1h2l-1-1Zm0 2-1 1h2l-1-1Zm0 3h-1l1 1 1-1h-1Zm0 2h-1l1 1 1-1h-1Zm0 2-1 1h2l-1-1Zm0 2-1 1 1 1 1-1-1-1Zm0 3h-1l1 1a1 1 0 0 0 0-1Zm0 2-1 1h2l-1-1Zm0 2-1 1h2l-1-1Zm0 3h-1l1 1 1-1h-1Zm0 2a1 1 0 0 0 0 1l1-1h-1Zm0 2-1 1h2l-1-1Zm0 3h-1l1 1 1-1h-1Zm2-187v1l1-1h-1Zm0 2v1l1-1h-1Zm0 2v1h1l-1-1Zm0 2v2l1-1-1-1Zm0 3v1l1-1h-1Zm0 2v1h1l-1-1Zm0 2v1h1l-1-1Zm0 3v1l1-1h-1Zm0 2v1l1-1h-1Zm0 2v1h1l-1-1Zm0 2v2l1-1-1-1Zm0 3v1l1-1h-1Zm0 2v1h1l-1-1Zm0 2v1h1l-1-1Zm0 3v1l1-1h-1Zm0 2v1l1-1h-1Zm0 2v1h1l-1-1Zm0 3v1l1-1h-1Zm0 2v1l1-1h-1Zm0 2v1h1l-1-1Zm0 2v2l1-1-1-1Zm0 3v1l1-1h-1Zm0 2v1h1l-1-1Zm0 2v1h1l-1-1Zm0 3v1l1-1h-1Zm0 2v1l1-1h-1Zm0 2v1h1l-1-1Zm0 2v2l1-1-1-1Zm0 3v1l1-1h-1Zm0 2v1h1l-1-1Zm0 2v1h1l-1-1Zm0 3v1l1-1h-1Zm0 2v1h1l-1-1Zm0 2v1h1l-1-1Zm0 3v1l1-1h-1Zm0 2v1l1-1h-1Zm0 2v1h1l-1-1Zm0 2v2l1-1-1-1Zm0 3v1l1-1h-1Zm0 2v1h1l-1-1Zm0 2v1h1l-1-1Zm0 3v1l1-1h-1Zm0 2v1l1-1h-1Zm0 2v1h1l-1-1Zm0 2v2l1-1-1-1Zm0 3v1l1-1h-1Zm0 2v1h1l-1-1Zm0 2v1h1l-1-1Zm0 3v1l1-1h-1Zm0 2v1h1l-1-1Zm0 2v1h1l-1-1Zm0 3v1l1-1h-1Zm0 2v1l1-1h-1Zm0 2v1h1l-1-1Zm0 2v2l1-1-1-1Zm0 3v1l1-1h-1Zm0 2v1h1l-1-1Zm0 2v1h1l-1-1Zm0 3v1l1-1h-1Zm0 2v1l1-1h-1Zm0 2v1a1 1 0 0 0 0-1Zm0 2v2l1-1-1-1Zm0 3a1 1 0 0 0 0 1l1-1h-1Zm0 2v1h1l-1-1Zm0 2v1h1l-1-1Zm0 3v1l1-1h-1Zm0 2v1h1l-1-1Zm0 2v1h1l-1-1Zm0 3v1l1-1h-1Zm0 2v1l1-1h-1Zm0 2v1h1l-1-1Zm0 2v2a1 1 0 0 0 0-2Zm0 3v1l1-1h-1Zm0 2a1 1 0 0 0 0 1h1l-1-1Zm0 2v1h1l-1-1Zm0 3v1l1-1h-1Zm0 2v1l1-1h-1Zm0 2v1h1l-1-1Zm0 2v2l1-1-1-1Zm0 3v1l1-1h-1Zm0 2v1h1l-1-1Zm0 2v2l1-1-1-1Zm3-187-1 1 1 1v-2Zm0 3h-1l1 1v-1Zm0 2-1 1h1v-1Zm0 2-1 1h1v-1Zm0 3h-1l1 1v-1Zm0 2h-1l1 1v-1Zm0 2-1 1h1v-1Zm0 2-1 1 1 1v-2Zm0 3h-1l1 1v-1Zm0 2-1 1h1v-1Zm0 2-1 1h1V0Zm0 3h-1l1 1V3Zm0 2h-1l1 1V5Zm0 2-1 1h1V7Zm0 2-1 1 1 1V9Zm0 3h-1l1 1v-1Zm0 2-1 1h1v-1Zm0 2-1 1 1 1v-2Zm0 3h-1l1 1v-1Zm0 2-1 1h1v-1Zm0 2-1 1h1v-1Zm0 3h-1l1 1v-1Zm0 2h-1l1 1v-1Zm0 2-1 1h1v-1Zm0 2-1 1 1 1v-2Zm0 3h-1l1 1v-1Zm0 2-1 1h1v-1Zm0 2-1 1h1v-1Zm0 3h-1l1 1v-1Zm0 2h-1l1 1v-1Zm0 2-1 1h1v-1Zm0 2-1 1 1 1v-2Zm0 3h-1l1 1v-1Zm0 2-1 1h1v-1Zm0 2-1 1 1 1v-2Zm0 3h-1l1 1v-1Zm0 2-1 1h1v-1Zm0 2-1 1h1v-1Zm0 3h-1l1 1v-1Zm0 2h-1l1 1v-1Zm0 2-1 1h1v-1Zm0 2-1 1 1 1v-2Zm0 3h-1l1 1v-1Zm0 2-1 1h1v-1Zm0 2-1 1h1v-1Zm0 3h-1l1 1v-1Zm0 2h-1l1 1v-1Zm0 2-1 1h1v-1Zm0 2-1 1 1 1v-2Zm0 3h-1l1 1v-1Zm0 2-1 1h1v-1Zm0 2-1 1 1 1v-2Zm0 3h-1l1 1v-1Zm0 2-1 1h1v-1Zm0 2-1 1h1a1 1 0 0 0 0-1Zm0 3h-1l1 1v-1Zm0 2h-1l1 1v-1Zm0 2-1 1h1v-1Zm0 2a1 1 0 0 0 0 2v-2Zm0 3h-1l1 1v-1Zm0 2-1 1h1v-1Zm0 2-1 1h1v-1Zm0 3h-1l1 1v-1Zm0 2h-1l1 1v-1Zm0 2-1 1h1v-1Zm0 2-1 1 1 1a1 1 0 0 0 0-2Zm0 3h-1l1 1v-1Zm0 2-1 1h1v-1Zm0 2-1 1 1 1v-2Zm0 3a1 1 0 0 0 0 1v-1Zm0 2-1 1h1v-1Zm0 2-1 1h1v-1Zm0 3h-1l1 1v-1Zm0 2h-1l1 1v-1Zm0 2-1 1h1v-1Zm0 2-1 1 1 1v-2Zm0 3h-1l1 1a1 1 0 0 0 0-1Zm0 2-1 1h1v-1Zm0 2-1 1h1v-1Zm0 3h-1l1 1v-1Zm0 2a1 1 0 0 0 0 1v-1Zm0 2-1 1h1v-1Zm0 3h-1l1 1v-1Zm2-187h-1l1 1v-1Zm0 2h-1l1 1v-1Zm0 2-1 1h1v-1Zm0 2-1 1 1 1v-2Zm0 3h-1l1 1v-1Zm0 2-1 1h1v-1Zm0 2-1 1h1v-1Zm0 3h-1l1 1v-1Zm0 2h-1l1 1v-1Zm0 2-1 1h1v-1Zm0 2-1 1 1 1V1Zm0 3h-1l1 1V4Zm0 2-1 1h1V6Zm0 2-1 1h1V8Zm0 3h-1l1 1v-1Zm0 2h-1l1 1v-1Zm0 2-1 1h1v-1Zm0 3h-1l1 1v-1Zm0 2h-1l1 1v-1Zm0 2-1 1h1v-1Zm0 2-1 1 1 1v-2Zm0 3h-1l1 1v-1Zm0 2-1 1h1v-1Zm0 2-1 1h1v-1Zm0 3h-1l1 1v-1Zm0 2h-1l1 1v-1Zm0 2-1 1h1v-1Zm0 2-1 1 1 1v-2Zm0 3h-1l1 1v-1Zm0 2-1 1h1v-1Zm0 2-1 1h1v-1Zm0 3h-1l1 1v-1Zm0 2-1 1h1v-1Zm0 2-1 1h1v-1Zm0 3h-1l1 1v-1Zm0 2h-1l1 1v-1Zm0 2-1 1h1v-1Zm0 2-1 1 1 1v-2Zm0 3h-1l1 1v-1Zm0 2-1 1h1v-1Zm0 2-1 1h1v-1Zm0 3h-1l1 1v-1Zm0 2h-1l1 1v-1Zm0 2-1 1h1v-1Zm0 2-1 1 1 1v-2Zm0 3h-1l1 1v-1Zm0 2-1 1h1v-1Zm0 2-1 1h1v-1Zm0 3h-1l1 1v-1Zm0 2-1 1h1v-1Zm0 2-1 1h1v-1Zm0 3h-1l1 1v-1Zm0 2h-1l1 1v-1Zm0 2-1 1h1v-1Zm0 2-1 1 1 1v-2Zm0 3h-1l1 1v-1Zm0 2-1 1h1v-1Zm0 2-1 1h1v-1Zm0 3h-1l1 1v-1Zm0 2h-1l1 1v-1Zm0 2-1 1h1a1 1 0 0 0 0-1Zm0 2-1 1 1 1v-2Zm0 3a1 1 0 0 0 0 1v-1Zm0 2-1 1h1v-1Zm0 2-1 1h1v-1Zm0 3h-1l1 1v-1Zm0 2-1 1h1v-1Zm0 2-1 1h1v-1Zm0 3h-1l1 1v-1Zm0 2h-1l1 1v-1Zm0 2-1 1h1v-1Zm0 2-1 1 1 1a1 1 0 0 0 0-2Zm0 3h-1l1 1v-1Zm0 2a1 1 0 0 0 0 1v-1Zm0 2-1 1h1v-1Zm0 3h-1l1 1v-1Zm0 2h-1l1 1v-1Zm0 2-1 1h1v-1Zm0 2-1 1 1 1v-2Zm0 3h-1l1 1v-1Zm0 2-1 1h1v-1Zm0 2-1 1 1 1v-2Zm2-187v2l1-1-1-1Zm0 3v1l1-1h-1Zm0 2v1h1l-1-1Zm0 2v1h1l-1-1Zm0 3v1l1-1h-1Zm0 2v1l1-1h-1Zm0 2v1h1l-1-1Zm0 2v2l1-1-1-1Zm0 3v1l1-1h-1Zm0 2v1h1l-1-1Zm0 2v1h1l-1-1Zm0 3v1l1-1h-1Zm0 2v1l1-1h-1Zm0 2v1h1l-1-1Zm0 2v2l1-1-1-1Zm0 3v1l1-1h-1Zm0 2v1h1l-1-1Zm0 2v2l1-1-1-1Zm0 3v1l1-1h-1Zm0 2v1h1l-1-1Zm0 2v1h1l-1-1Zm0 3v1l1-1h-1Zm0 2v1l1-1h-1Zm0 2v1h1l-1-1Zm0 2v2l1-1-1-1Zm0 3v1l1-1h-1Zm0 2v1h1l-1-1Zm0 2v1h1l-1-1Zm0 3v1l1-1h-1Zm0 2v1l1-1h-1Zm0 2v1h1l-1-1Zm0 2v2l1-1-1-1Zm0 3v1l1-1h-1Zm0 2v1h1l-1-1Zm0 2v2l1-1-1-1Zm0 3v1l1-1h-1Zm0 2v1h1l-1-1Zm0 2v1h1l-1-1Zm0 3v1l1-1h-1Zm0 2v1l1-1h-1Zm0 2v1h1l-1-1Zm0 2v2l1-1-1-1Zm0 3v1l1-1h-1Zm0 2v1h1l-1-1Zm0 2v1h1l-1-1Zm0 3v1l1-1h-1Zm0 2v1l1-1h-1Zm0 2v1h1l-1-1Zm0 2v2l1-1-1-1Zm0 3v1l1-1h-1Zm0 2v1h1l-1-1Zm0 2v2l1-1-1-1Zm0 3v1l1-1h-1Zm0 2v1h1l-1-1Zm0 2v1a1 1 0 0 0 0-1Zm0 3v1l1-1h-1Zm0 2v1l1-1h-1Zm0 2v1h1l-1-1Zm0 2a1 1 0 0 0 0 2l1-1-1-1Zm0 3v1l1-1h-1Zm0 2v1h1l-1-1Zm0 2v1h1l-1-1Zm0 3v1l1-1h-1Zm0 2v1l1-1h-1Zm0 2v1h1l-1-1Zm0 2v2a1 1 0 0 0 0-2Zm0 3v1l1-1h-1Zm0 2v1h1l-1-1Zm0 2v2l1-1-1-1Zm0 3a1 1 0 0 0 0 1l1-1h-1Zm0 2v1h1l-1-1Zm0 2v1h1l-1-1Zm0 3v1l1-1h-1Zm0 2v1l1-1h-1Zm0 2v1h1l-1-1Zm0 2v2l1-1-1-1Zm0 3v1a1 1 0 0 0 0-1Zm0 2v1h1l-1-1Zm0 2v1h1l-1-1Zm0 3v1l1-1h-1Zm0 2a1 1 0 0 0 0 1l1-1h-1Zm0 2v1h1l-1-1Zm0 3v1l1-1h-1Zm2-187v1l1-1h-1Zm0 2v1l1-1h-1Zm0 2v1h1l-1-1Zm0 2v2l1-1-1-1Zm0 3v1l1-1h-1Zm0 2v1h1l-1-1Zm0 2v1h1l-1-1Zm0 3v1l1-1h-1Zm0 2v1l1-1h-1Zm0 2v1h1l-1-1Zm0 2v2l1-1-1-1Zm0 3v1l1-1h-1Zm0 2v1h1l-1-1Zm0 2v1h1l-1-1Zm0 3v1l1-1h-1Zm0 2v1l1-1h-1Zm0 2v1h1l-1-1Zm0 3v1l1-1h-1Zm0 2v1l1-1h-1Zm0 2v1h1l-1-1Zm0 2v2l1-1-1-1Zm0 3v1l1-1h-1Zm0 2v1h1l-1-1Zm0 2v1h1l-1-1Zm0 3v1l1-1h-1Zm0 2v1l1-1h-1Zm0 2v1h1l-1-1Zm0 2v2l1-1-1-1Zm0 3v1l1-1h-1Zm0 2v1h1l-1-1Zm0 2v1h1l-1-1Zm0 3v1l1-1h-1Zm0 2v1h1l-1-1Zm0 2v1h1l-1-1Zm0 3v1l1-1h-1Zm0 2v1l1-1h-1Zm0 2v1h1l-1-1Zm0 2v2l1-1-1-1Zm0 3v1l1-1h-1Zm0 2v1h1l-1-1Zm0 2v1h1l-1-1Zm0 3v1l1-1h-1Zm0 2v1l1-1h-1Zm0 2v1h1l-1-1Zm0 2v2l1-1-1-1Zm0 3v1l1-1h-1Zm0 2v1h1l-1-1Zm0 2v1h1l-1-1Zm0 3v1l1-1h-1Zm0 2v1h1l-1-1Zm0 2v1h1l-1-1Zm0 3v1l1-1h-1Zm0 2v1l1-1h-1Zm0 2v1h1l-1-1Zm0 2v2l1-1-1-1Zm0 3v1l1-1h-1Zm0 2v1h1l-1-1Zm0 2v1h1l-1-1Zm0 3v1l1-1h-1Zm0 2v1l1-1h-1Zm0 2v1a1 1 0 0 0 0-1Zm0 2v2l1-1-1-1Zm0 3a1 1 0 0 0 0 1l1-1h-1Zm0 2v1h1l-1-1Zm0 2v1h1l-1-1Zm0 3v1l1-1h-1Zm0 2v1h1l-1-1Zm0 2v1h1l-1-1Zm0 3v1l1-1h-1Zm0 2v1l1-1h-1Zm0 2v1h1l-1-1Zm0 2v2a1 1 0 0 0 0-2Zm0 3v1l1-1h-1Zm0 2a1 1 0 0 0 0 1h1l-1-1Zm0 2v1h1l-1-1Zm0 3v1l1-1h-1Zm0 2v1l1-1h-1Zm0 2v1h1l-1-1Zm0 2v2l1-1-1-1Zm0 3v1l1-1h-1Zm0 2v1h1l-1-1Zm0 2v2l1-1-1-1Zm3-187-1 1 1 1v-2Zm0 3h-1l1 1v-1Zm0 2-1 1h1v-1Zm0 2-1 1h1v-1Zm0 3h-1l1 1v-1Zm0 2h-1l1 1v-1Zm0 2-1 1h1v-1Zm0 2-1 1 1 1v-2Zm0 3h-1l1 1v-1Zm0 2-1 1h1v-1Zm0 2-1 1h1V0Zm0 3h-1l1 1V3Zm0 2h-1l1 1V5Zm0 2-1 1h1V7Zm0 2-1 1 1 1V9Zm0 3h-1l1 1v-1Zm0 2-1 1h1v-1Zm0 2-1 1 1 1v-2Zm0 3h-1l1 1v-1Zm0 2-1 1h1v-1Zm0 2-1 1h1v-1Zm0 3h-1l1 1v-1Zm0 2h-1l1 1v-1Zm0 2-1 1h1v-1Zm0 2-1 1 1 1v-2Zm0 3h-1l1 1v-1Zm0 2-1 1h1v-1Zm0 2-1 1h1v-1Zm0 3h-1l1 1v-1Zm0 2h-1l1 1v-1Zm0 2-1 1h1v-1Zm0 2-1 1 1 1v-2Zm0 3h-1l1 1v-1Zm0 2-1 1h1v-1Zm0 2-1 1 1 1v-2Zm0 3h-1l1 1v-1Zm0 2-1 1h1v-1Zm0 2-1 1h1v-1Zm0 3h-1l1 1v-1Zm0 2h-1l1 1v-1Zm0 2-1 1h1v-1Zm0 2-1 1 1 1v-2Zm0 3h-1l1 1v-1Zm0 2-1 1h1v-1Zm0 2-1 1h1v-1Zm0 3h-1l1 1v-1Zm0 2h-1l1 1v-1Zm0 2-1 1h1v-1Zm0 2-1 1 1 1v-2Zm0 3h-1l1 1v-1Zm0 2-1 1h1v-1Zm0 2-1 1 1 1v-2Zm0 3h-1l1 1v-1Zm0 2-1 1h1v-1Zm0 2-1 1h1a1 1 0 0 0 0-1Zm0 3h-1l1 1v-1Zm0 2h-1l1 1v-1Zm0 2-1 1h1v-1Zm0 2a1 1 0 0 0 0 2v-2Zm0 3h-1l1 1v-1Zm0 2-1 1h1v-1Zm0 2-1 1h1v-1Zm0 3h-1l1 1v-1Zm0 2h-1l1 1v-1Zm0 2-1 1h1v-1Zm0 2-1 1 1 1a1 1 0 0 0 0-2Zm0 3h-1l1 1v-1Zm0 2-1 1h1v-1Zm0 2-1 1 1 1v-2Zm0 3a1 1 0 0 0 0 1v-1Zm0 2-1 1h1v-1Zm0 2-1 1h1v-1Zm0 3h-1l1 1v-1Zm0 2h-1l1 1v-1Zm0 2-1 1h1v-1Zm0 2-1 1 1 1v-2Zm0 3h-1l1 1a1 1 0 0 0 0-1Zm0 2-1 1h1v-1Zm0 2-1 1h1v-1Zm0 3h-1l1 1v-1Zm0 2a1 1 0 0 0 0 1v-1Zm0 2-1 1h1v-1Zm0 3h-1l1 1v-1Zm2-187h-1l1 1 1-1h-1Zm0 2h-1l1 1 1-1h-1Zm0 2-1 1h2l-1-1Zm0 2-1 1 1 1 1-1-1-1Zm0 3h-1l1 1 1-1h-1Zm0 2-1 1h2l-1-1Zm0 2-1 1h2l-1-1Zm0 3h-1l1 1 1-1h-1Zm0 2h-1l1 1 1-1h-1Zm0 2-1 1h2l-1-1Zm0 2-1 1 1 1 1-1-1-1Zm0 3h-1l1 1 1-1h-1Zm0 2-1 1h2l-1-1Zm0 2-1 1h2l-1-1Zm0 3h-1l1 1 1-1h-1Zm0 2h-1l1 1 1-1h-1Zm0 2-1 1h2l-1-1Zm0 3h-1l1 1 1-1h-1Zm0 2h-1l1 1 1-1h-1Zm0 2-1 1h2l-1-1Zm0 2-1 1 1 1 1-1-1-1Zm0 3h-1l1 1 1-1h-1Zm0 2-1 1h2l-1-1Zm0 2-1 1h2l-1-1Zm0 3h-1l1 1 1-1h-1Zm0 2h-1l1 1 1-1h-1Zm0 2-1 1h2l-1-1Zm0 2-1 1 1 1 1-1-1-1Zm0 3h-1l1 1 1-1h-1Zm0 2-1 1h2l-1-1Zm0 2-1 1h2l-1-1Zm0 3h-1l1 1 1-1h-1Zm0 2-1 1h2l-1-1Zm0 2-1 1h2l-1-1Zm0 3h-1l1 1 1-1h-1Zm0 2h-1l1 1 1-1h-1Zm0 2-1 1h2l-1-1Zm0 2-1 1 1 1 1-1-1-1Zm0 3h-1l1 1 1-1h-1Zm0 2-1 1h2l-1-1Zm0 2-1 1h2l-1-1Zm0 3h-1l1 1 1-1h-1Zm0 2h-1l1 1 1-1h-1Zm0 2-1 1h2l-1-1Zm0 2-1 1 1 1 1-1-1-1Zm0 3h-1l1 1 1-1h-1Zm0 2-1 1h2l-1-1Zm0 2-1 1h2l-1-1Zm0 3h-1l1 1 1-1h-1Zm0 2-1 1h2l-1-1Zm0 2-1 1h2l-1-1Zm0 3h-1l1 1 1-1h-1Zm0 2h-1l1 1 1-1h-1Zm0 2-1 1h2l-1-1Zm0 2-1 1 1 1 1-1-1-1Zm0 3h-1l1 1 1-1h-1Zm0 2-1 1h2l-1-1Zm0 2-1 1h2l-1-1Zm0 3h-1l1 1 1-1h-1Zm0 2h-1l1 1 1-1h-1Zm0 2-1 1h1a1 1 0 0 0 0-1Zm0 2-1 1 1 1 1-1-1-1Zm0 3a1 1 0 0 0 0 1l1-1h-1Zm0 2-1 1h2l-1-1Zm0 2-1 1h2l-1-1Zm0 3h-1l1 1 1-1h-1Zm0 2-1 1h2l-1-1Zm0 2-1 1h2l-1-1Zm0 3h-1l1 1 1-1h-1Zm0 2h-1l1 1 1-1h-1Zm0 2-1 1h2l-1-1Zm0 2-1 1 1 1a1 1 0 0 0 0-2Zm0 3h-1l1 1 1-1h-1Zm0 2a1 1 0 0 0 0 1h1l-1-1Zm0 2-1 1h2l-1-1Zm0 3h-1l1 1 1-1h-1Zm0 2h-1l1 1 1-1h-1Zm0 2-1 1h2l-1-1Zm0 2-1 1 1 1 1-1-1-1Zm0 3h-1l1 1 1-1h-1Zm0 2-1 1h2l-1-1Zm0 2-1 1 1 1 1-1-1-1Zm2-187v2l1-1-1-1Zm0 3v1l1-1h-1Zm0 2v1h1l-1-1Zm0 2v1h1l-1-1Zm0 3v1l1-1h-1Zm0 2v1l1-1h-1Zm0 2v1h1l-1-1Zm0 2v2l1-1-1-1Zm0 3v1l1-1h-1Zm0 2v1h1l-1-1Zm0 2v1h1l-1-1Zm0 3v1l1-1h-1Zm0 2v1l1-1h-1Zm0 2v1h1l-1-1Zm0 2v2l1-1-1-1Zm0 3v1l1-1h-1Zm0 2v1h1l-1-1Zm0 2v2l1-1-1-1Zm0 3v1l1-1h-1Zm0 2v1h1l-1-1Zm0 2v1h1l-1-1Zm0 3v1l1-1h-1Zm0 2v1l1-1h-1Zm0 2v1h1l-1-1Zm0 2v2l1-1-1-1Zm0 3v1l1-1h-1Zm0 2v1h1l-1-1Zm0 2v1h1l-1-1Zm0 3v1l1-1h-1Zm0 2v1l1-1h-1Zm0 2v1h1l-1-1Zm0 2v2l1-1-1-1Zm0 3v1l1-1h-1Zm0 2v1h1l-1-1Zm0 2v2l1-1-1-1Zm0 3v1l1-1h-1Zm0 2v1h1l-1-1Zm0 2v1h1l-1-1Zm0 3v1l1-1h-1Zm0 2v1l1-1h-1Zm0 2v1h1l-1-1Zm0 2v2l1-1-1-1Zm0 3v1l1-1h-1Zm0 2v1h1l-1-1Zm0 2v1h1l-1-1Zm0 3v1l1-1h-1Zm0 2v1l1-1h-1Zm0 2v1h1l-1-1Zm0 2v2l1-1-1-1Zm0 3v1l1-1h-1Zm0 2v1h1l-1-1Zm0 2v2l1-1-1-1Zm0 3v1l1-1h-1Zm0 2v1h1l-1-1Zm0 2v1a1 1 0 0 0 0-1Zm0 3v1l1-1h-1Zm0 2v1l1-1h-1Zm0 2v1h1l-1-1Zm0 2a1 1 0 0 0 0 2l1-1-1-1Zm0 3v1l1-1h-1Zm0 2v1h1l-1-1Zm0 2v1h1l-1-1Zm0 3v1l1-1h-1Zm0 2v1l1-1h-1Zm0 2v1h1l-1-1Zm0 2v2a1 1 0 0 0 0-2Zm0 3v1l1-1h-1Zm0 2v1h1l-1-1Zm0 2v2l1-1-1-1Zm0 3a1 1 0 0 0 0 1l1-1h-1Zm0 2v1h1l-1-1Zm0 2v1h1l-1-1Zm0 3v1l1-1h-1Zm0 2v1l1-1h-1Zm0 2v1h1l-1-1Zm0 2v2l1-1-1-1Zm0 3v1a1 1 0 0 0 0-1Zm0 2v1h1l-1-1Zm0 2v1h1l-1-1Zm0 3v1l1-1h-1Zm0 2a1 1 0 0 0 0 1l1-1h-1Zm0 2v1h1l-1-1Zm0 3v1l1-1h-1Zm3-187h-1l1 1v-1Zm0 2h-1l1 1v-1Zm0 2-1 1h1v-1Zm0 2-1 1 1 1v-2Zm0 3h-1l1 1v-1Zm0 2-1 1h1v-1Zm0 2-1 1h1v-1Zm0 3h-1l1 1v-1Zm0 2h-1l1 1v-1Zm0 2-1 1h1v-1Zm0 2-1 1 1 1V1Zm0 3h-1l1 1V4Zm0 2-1 1h1V6Zm0 2-1 1h1V8Zm0 3h-1l1 1v-1Zm0 2h-1l1 1v-1Zm0 2-1 1h1v-1Zm0 3h-1l1 1v-1Zm0 2h-1l1 1v-1Zm0 2-1 1h1v-1Zm0 2-1 1 1 1v-2Zm0 3h-1l1 1v-1Zm0 2-1 1h1v-1Zm0 2-1 1h1v-1Zm0 3h-1l1 1v-1Zm0 2h-1l1 1v-1Zm0 2-1 1h1v-1Zm0 2-1 1 1 1v-2Zm0 3h-1l1 1v-1Zm0 2-1 1h1v-1Zm0 2-1 1h1v-1Zm0 3h-1l1 1v-1Zm0 2-1 1h1v-1Zm0 2-1 1h1v-1Zm0 3h-1l1 1v-1Zm0 2h-1l1 1v-1Zm0 2-1 1h1v-1Zm0 2-1 1 1 1v-2Zm0 3h-1l1 1v-1Zm0 2-1 1h1v-1Zm0 2-1 1h1v-1Zm0 3h-1l1 1v-1Zm0 2h-1l1 1v-1Zm0 2-1 1h1v-1Zm0 2-1 1 1 1v-2Zm0 3h-1l1 1v-1Zm0 2-1 1h1v-1Zm0 2-1 1h1v-1Zm0 3h-1l1 1v-1Zm0 2-1 1h1v-1Zm0 2-1 1h1v-1Zm0 3h-1l1 1v-1Zm0 2h-1l1 1v-1Zm0 2-1 1h1v-1Zm0 2-1 1 1 1v-2Zm0 3h-1l1 1v-1Zm0 2-1 1h1v-1Zm0 2-1 1h1v-1Zm0 3h-1l1 1v-1Zm0 2h-1l1 1v-1Zm0 2-1 1h1a1 1 0 0 0 0-1Zm0 2-1 1 1 1v-2Zm0 3a1 1 0 0 0 0 1v-1Zm0 2-1 1h1v-1Zm0 2-1 1h1v-1Zm0 3h-1l1 1v-1Zm0 2-1 1h1v-1Zm0 2-1 1h1v-1Zm0 3h-1l1 1v-1Zm0 2h-1l1 1v-1Zm0 2-1 1h1v-1Zm0 2-1 1 1 1a1 1 0 0 0 0-2Zm0 3h-1l1 1v-1Zm0 2a1 1 0 0 0 0 1v-1Zm0 2-1 1h1v-1Zm0 3h-1l1 1v-1Zm0 2h-1l1 1v-1Zm0 2-1 1h1v-1Zm0 2-1 1 1 1v-2Zm0 3h-1l1 1v-1Zm0 2-1 1h1v-1Zm0 2-1 1 1 1v-2Zm2-187-1 1 1 1 1-1-1-1Zm0 3h-1l1 1 1-1h-1Zm0 2-1 1h2l-1-1Zm0 2-1 1h2l-1-1Zm0 3h-1l1 1 1-1h-1Zm0 2h-1l1 1 1-1h-1Zm0 2-1 1h2l-1-1Zm0 2-1 1 1 1 1-1-1-1Zm0 3h-1l1 1 1-1h-1Zm0 2-1 1h2l-1-1Zm0 2-1 1h2l-1-1Zm0 3h-1l1 1 1-1h-1Zm0 2h-1l1 1 1-1h-1Zm0 2-1 1h2l-1-1Zm0 2-1 1 1 1 1-1-1-1Zm0 3h-1l1 1 1-1h-1Zm0 2-1 1h2l-1-1Zm0 2-1 1 1 1 1-1-1-1Zm0 3h-1l1 1 1-1h-1Zm0 2-1 1h2l-1-1Zm0 2-1 1h2l-1-1Zm0 3h-1l1 1 1-1h-1Zm0 2h-1l1 1 1-1h-1Zm0 2-1 1h2l-1-1Zm0 2-1 1 1 1 1-1-1-1Zm0 3h-1l1 1 1-1h-1Zm0 2-1 1h2l-1-1Zm0 2-1 1h2l-1-1Zm0 3h-1l1 1 1-1h-1Zm0 2h-1l1 1 1-1h-1Zm0 2-1 1h2l-1-1Zm0 2-1 1 1 1 1-1-1-1Zm0 3h-1l1 1 1-1h-1Zm0 2-1 1h2l-1-1Zm0 2-1 1 1 1 1-1-1-1Zm0 3h-1l1 1 1-1h-1Zm0 2-1 1h2l-1-1Zm0 2-1 1h2l-1-1Zm0 3h-1l1 1 1-1h-1Zm0 2h-1l1 1 1-1h-1Zm0 2-1 1h2l-1-1Zm0 2-1 1 1 1 1-1-1-1Zm0 3h-1l1 1 1-1h-1Zm0 2-1 1h2l-1-1Zm0 2-1 1h2l-1-1Zm0 3h-1l1 1 1-1h-1Zm0 2h-1l1 1 1-1h-1Zm0 2-1 1h2l-1-1Zm0 2-1 1 1 1 1-1-1-1Zm0 3h-1l1 1 1-1h-1Zm0 2-1 1h2l-1-1Zm0 2-1 1 1 1 1-1-1-1Zm0 3h-1l1 1 1-1h-1Zm0 2-1 1h2l-1-1Zm0 2-1 1h1a1 1 0 0 0 0-1Zm0 3h-1l1 1 1-1h-1Zm0 2h-1l1 1 1-1h-1Zm0 2-1 1h2l-1-1Zm0 2a1 1 0 0 0 0 2l1-1-1-1Zm0 3h-1l1 1 1-1h-1Zm0 2-1 1h2l-1-1Zm0 2-1 1h2l-1-1Zm0 3h-1l1 1 1-1h-1Zm0 2h-1l1 1 1-1h-1Zm0 2-1 1h2l-1-1Zm0 2-1 1 1 1a1 1 0 0 0 0-2Zm0 3h-1l1 1 1-1h-1Zm0 2-1 1h2l-1-1Zm0 2-1 1 1 1 1-1-1-1Zm0 3a1 1 0 0 0 0 1l1-1h-1Zm0 2-1 1h2l-1-1Zm0 2-1 1h2l-1-1Zm0 3h-1l1 1 1-1h-1Zm0 2h-1l1 1 1-1h-1Zm0 2-1 1h2l-1-1Zm0 2-1 1 1 1 1-1-1-1Zm0 3h-1l1 1a1 1 0 0 0 0-1Zm0 2-1 1h2l-1-1Zm0 2-1 1h2l-1-1Zm0 3h-1l1 1 1-1h-1Zm0 2a1 1 0 0 0 0 1l1-1h-1Zm0 2-1 1h2l-1-1Zm0 3h-1l1 1 1-1h-1Zm2-187v1l1-1h-1Zm0 2v1l1-1h-1Zm0 2v1h1l-1-1Zm0 2v2l1-1-1-1Zm0 3v1l1-1h-1Zm0 2v1h1l-1-1Zm0 2v1h1l-1-1Zm0 3v1l1-1h-1Zm0 2v1l1-1h-1Zm0 2v1h1l-1-1Zm0 2v2l1-1-1-1Zm0 3v1l1-1h-1Zm0 2v1h1l-1-1Zm0 2v1h1l-1-1Zm0 3v1l1-1h-1Zm0 2v1l1-1h-1Zm0 2v1h1l-1-1Zm0 3v1l1-1h-1Zm0 2v1l1-1h-1Zm0 2v1h1l-1-1Zm0 2v2l1-1-1-1Zm0 3v1l1-1h-1Zm0 2v1h1l-1-1Zm0 2v1h1l-1-1Zm0 3v1l1-1h-1Zm0 2v1l1-1h-1Zm0 2v1h1l-1-1Zm0 2v2l1-1-1-1Zm0 3v1l1-1h-1Zm0 2v1h1l-1-1Zm0 2v1h1l-1-1Zm0 3v1l1-1h-1Zm0 2v1h1l-1-1Zm0 2v1h1l-1-1Zm0 3v1l1-1h-1Zm0 2v1l1-1h-1Zm0 2v1h1l-1-1Zm0 2v2l1-1-1-1Zm0 3v1l1-1h-1Zm0 2v1h1l-1-1Zm0 2v1h1l-1-1Zm0 3v1l1-1h-1Zm0 2v1l1-1h-1Zm0 2v1h1l-1-1Zm0 2v2l1-1-1-1Zm0 3v1l1-1h-1Zm0 2v1h1l-1-1Zm0 2v1h1l-1-1Zm0 3v1l1-1h-1Zm0 2v1h1l-1-1Zm0 2v1h1l-1-1Zm0 3v1l1-1h-1Zm0 2v1l1-1h-1Zm0 2v1h1l-1-1Zm0 2v2l1-1-1-1Zm0 3v1l1-1h-1Zm0 2v1h1l-1-1Zm0 2v1h1l-1-1Zm0 3v1l1-1h-1Zm0 2v1l1-1h-1Zm0 2v1a1 1 0 0 0 0-1Zm0 2v2l1-1-1-1Zm0 3a1 1 0 0 0 0 1l1-1h-1Zm0 2v1h1l-1-1Zm0 2v1h1l-1-1Zm0 3v1l1-1h-1Zm0 2v1h1l-1-1Zm0 2v1h1l-1-1Zm0 3v1l1-1h-1Zm0 2v1l1-1h-1Zm0 2v1h1l-1-1Zm0 2v2a1 1 0 0 0 0-2Zm0 3v1l1-1h-1Zm0 2a1 1 0 0 0 0 1h1l-1-1Zm0 2v1h1l-1-1Zm0 3v1l1-1h-1Zm0 2v1l1-1h-1Zm0 2v1h1l-1-1Zm0 2v2l1-1-1-1Zm0 3v1l1-1h-1Zm0 2v1h1l-1-1Zm0 2v2l1-1-1-1Zm3-187-1 1 1 1v-2Zm0 3h-1l1 1v-1Zm0 2-1 1h1v-1Zm0 2-1 1h1v-1Zm0 3h-1l1 1v-1Zm0 2h-1l1 1v-1Zm0 2-1 1h1v-1Zm0 2-1 1 1 1v-2Zm0 3h-1l1 1v-1Zm0 2-1 1h1v-1Zm0 2-1 1h1V0Zm0 3h-1l1 1V3Zm0 2h-1l1 1V5Zm0 2-1 1h1V7Zm0 2-1 1 1 1V9Zm0 3h-1l1 1v-1Zm0 2-1 1h1v-1Zm0 2-1 1 1 1v-2Zm0 3h-1l1 1v-1Zm0 2-1 1h1v-1Zm0 2-1 1h1v-1Zm0 3h-1l1 1v-1Zm0 2h-1l1 1v-1Zm0 2-1 1h1v-1Zm0 2-1 1 1 1v-2Zm0 3h-1l1 1v-1Zm0 2-1 1h1v-1Zm0 2-1 1h1v-1Zm0 3h-1l1 1v-1Zm0 2h-1l1 1v-1Zm0 2-1 1h1v-1Zm0 2-1 1 1 1v-2Zm0 3h-1l1 1v-1Zm0 2-1 1h1v-1Zm0 2-1 1 1 1v-2Zm0 3h-1l1 1v-1Zm0 2-1 1h1v-1Zm0 2-1 1h1v-1Zm0 3h-1l1 1v-1Zm0 2h-1l1 1v-1Zm0 2-1 1h1v-1Zm0 2-1 1 1 1v-2Zm0 3h-1l1 1v-1Zm0 2-1 1h1v-1Zm0 2-1 1h1v-1Zm0 3h-1l1 1v-1Zm0 2h-1l1 1v-1Zm0 2-1 1h1v-1Zm0 2-1 1 1 1v-2Zm0 3h-1l1 1v-1Zm0 2-1 1h1v-1Zm0 2-1 1 1 1v-2Zm0 3h-1l1 1v-1Zm0 2-1 1h1v-1Zm0 2-1 1h1a1 1 0 0 0 0-1Zm0 3h-1l1 1v-1Zm0 2h-1l1 1v-1Zm0 2-1 1h1v-1Zm0 2a1 1 0 0 0 0 2v-2Zm0 3h-1l1 1v-1Zm0 2-1 1h1v-1Zm0 2-1 1h1v-1Zm0 3h-1l1 1v-1Zm0 2h-1l1 1v-1Zm0 2-1 1h1v-1Zm0 2-1 1 1 1a1 1 0 0 0 0-2Zm0 3h-1l1 1v-1Zm0 2-1 1h1v-1Zm0 2-1 1 1 1v-2Zm0 3a1 1 0 0 0 0 1v-1Zm0 2-1 1h1v-1Zm0 2-1 1h1v-1Zm0 3h-1l1 1v-1Zm0 2h-1l1 1v-1Zm0 2-1 1h1v-1Zm0 2-1 1 1 1v-2Zm0 3h-1l1 1a1 1 0 0 0 0-1Zm0 2-1 1h1v-1Zm0 2-1 1h1v-1Zm0 3h-1l1 1v-1Zm0 2a1 1 0 0 0 0 1v-1Zm0 2-1 1h1v-1Zm0 3h-1l1 1v-1Zm2-187h-1l1 1v-1Zm0 2h-1l1 1v-1Zm0 2-1 1h1v-1Zm0 2-1 1 1 1v-2Zm0 3h-1l1 1v-1Zm0 2-1 1h1v-1Zm0 2-1 1h1v-1Zm0 3h-1l1 1v-1Zm0 2h-1l1 1v-1Zm0 2-1 1h1v-1Zm0 2-1 1 1 1V1Zm0 3h-1l1 1V4Zm0 2-1 1h1V6Zm0 2-1 1h1V8Zm0 3h-1l1 1v-1Zm0 2h-1l1 1v-1Zm0 2-1 1h1v-1Zm0 3h-1l1 1v-1Zm0 2h-1l1 1v-1Zm0 2-1 1h1v-1Zm0 2-1 1 1 1v-2Zm0 3h-1l1 1v-1Zm0 2-1 1h1v-1Zm0 2-1 1h1v-1Zm0 3h-1l1 1v-1Zm0 2h-1l1 1v-1Zm0 2-1 1h1v-1Zm0 2-1 1 1 1v-2Zm0 3h-1l1 1v-1Zm0 2-1 1h1v-1Zm0 2-1 1h1v-1Zm0 3h-1l1 1v-1Zm0 2-1 1h1v-1Zm0 2-1 1h1v-1Zm0 3h-1l1 1v-1Zm0 2h-1l1 1v-1Zm0 2-1 1h1v-1Zm0 2-1 1 1 1v-2Zm0 3h-1l1 1v-1Zm0 2-1 1h1v-1Zm0 2-1 1h1v-1Zm0 3h-1l1 1v-1Zm0 2h-1l1 1v-1Zm0 2-1 1h1v-1Zm0 2-1 1 1 1v-2Zm0 3h-1l1 1v-1Zm0 2-1 1h1v-1Zm0 2-1 1h1v-1Zm0 3h-1l1 1v-1Zm0 2-1 1h1v-1Zm0 2-1 1h1v-1Zm0 3h-1l1 1v-1Zm0 2h-1l1 1v-1Zm0 2-1 1h1v-1Zm0 2-1 1 1 1v-2Zm0 3h-1l1 1v-1Zm0 2-1 1h1v-1Zm0 2-1 1h1v-1Zm0 3h-1l1 1v-1Zm0 2h-1l1 1v-1Zm0 2-1 1h1a1 1 0 0 0 0-1Zm0 2-1 1 1 1v-2Zm0 3a1 1 0 0 0 0 1v-1Zm0 2-1 1h1v-1Zm0 2-1 1h1v-1Zm0 3h-1l1 1v-1Zm0 2-1 1h1v-1Zm0 2-1 1h1v-1Zm0 3h-1l1 1v-1Zm0 2h-1l1 1v-1Zm0 2-1 1h1v-1Zm0 2-1 1 1 1a1 1 0 0 0 0-2Zm0 3h-1l1 1v-1Zm0 2a1 1 0 0 0 0 1v-1Zm0 2-1 1h1v-1Zm0 3h-1l1 1v-1Zm0 2h-1l1 1v-1Zm0 2-1 1h1v-1Zm0 2-1 1 1 1v-2Zm0 3h-1l1 1v-1Zm0 2-1 1h1v-1Zm0 2-1 1 1 1v-2Zm2-187v2l1-1-1-1Zm0 3v1l1-1h-1Zm0 2v1h1l-1-1Zm0 2v1h1l-1-1Zm0 3v1l1-1h-1Zm0 2v1l1-1h-1Zm0 2v1h1l-1-1Zm0 2v2l1-1-1-1Zm0 3v1l1-1h-1Zm0 2v1h1l-1-1Zm0 2v1h1l-1-1Zm0 3v1l1-1h-1Zm0 2v1l1-1h-1Zm0 2v1h1l-1-1Zm0 2v2l1-1-1-1Zm0 3v1l1-1h-1Zm0 2v1h1l-1-1Zm0 2v2l1-1-1-1Zm0 3v1l1-1h-1Zm0 2v1h1l-1-1Zm0 2v1h1l-1-1Zm0 3v1l1-1h-1Zm0 2v1l1-1h-1Zm0 2v1h1l-1-1Zm0 2v2l1-1-1-1Zm0 3v1l1-1h-1Zm0 2v1h1l-1-1Zm0 2v1h1l-1-1Zm0 3v1l1-1h-1Zm0 2v1l1-1h-1Zm0 2v1h1l-1-1Zm0 2v2l1-1-1-1Zm0 3v1l1-1h-1Zm0 2v1h1l-1-1Zm0 2v2l1-1-1-1Zm0 3v1l1-1h-1Zm0 2v1h1l-1-1Zm0 2v1h1l-1-1Zm0 3v1l1-1h-1Zm0 2v1l1-1h-1Zm0 2v1h1l-1-1Zm0 2v2l1-1-1-1Zm0 3v1l1-1h-1Zm0 2v1h1l-1-1Zm0 2v1h1l-1-1Zm0 3v1l1-1h-1Zm0 2v1l1-1h-1Zm0 2v1h1l-1-1Zm0 2v2l1-1-1-1Zm0 3v1l1-1h-1Zm0 2v1h1l-1-1Zm0 2v2l1-1-1-1Zm0 3v1l1-1h-1Zm0 2v1h1l-1-1Zm0 2v1a1 1 0 0 0 0-1Zm0 3v1l1-1h-1Zm0 2v1l1-1h-1Zm0 2v1h1l-1-1Zm0 2a1 1 0 0 0 0 2l1-1-1-1Zm0 3v1l1-1h-1Zm0 2v1h1l-1-1Zm0 2v1h1l-1-1Zm0 3v1l1-1h-1Zm0 2v1l1-1h-1Zm0 2v1h1l-1-1Zm0 2v2a1 1 0 0 0 0-2Zm0 3v1l1-1h-1Zm0 2v1h1l-1-1Zm0 2v2l1-1-1-1Zm0 3a1 1 0 0 0 0 1l1-1h-1Zm0 2v1h1l-1-1Zm0 2v1h1l-1-1Zm0 3v1l1-1h-1Zm0 2v1l1-1h-1Zm0 2v1h1l-1-1Zm0 2v2l1-1-1-1Zm0 3v1a1 1 0 0 0 0-1Zm0 2v1h1l-1-1Zm0 2v1h1l-1-1Zm0 3v1l1-1h-1Zm0 2a1 1 0 0 0 0 1l1-1h-1Zm0 2v1h1l-1-1Zm0 3v1l1-1h-1Zm2-187v1l1-1h-1Zm0 2v1l1-1h-1Zm0 2v1h1l-1-1Zm0 2v2l1-1-1-1Zm0 3v1l1-1h-1Zm0 2v1h1l-1-1Zm0 2v1h1l-1-1Zm0 3v1l1-1h-1Zm0 2v1l1-1h-1Zm0 2v1h1l-1-1Zm0 2v2l1-1-1-1Zm0 3v1l1-1h-1Zm0 2v1h1l-1-1Zm0 2v1h1l-1-1Zm0 3v1l1-1h-1Zm0 2v1l1-1h-1Zm0 2v1h1l-1-1Zm0 3v1l1-1h-1Zm0 2v1l1-1h-1Zm0 2v1h1l-1-1Zm0 2v2l1-1-1-1Zm0 3v1l1-1h-1Zm0 2v1h1l-1-1Zm0 2v1h1l-1-1Zm0 3v1l1-1h-1Zm0 2v1l1-1h-1Zm0 2v1h1l-1-1Zm0 2v2l1-1-1-1Zm0 3v1l1-1h-1Zm0 2v1h1l-1-1Zm0 2v1h1l-1-1Zm0 3v1l1-1h-1Zm0 2v1h1l-1-1Zm0 2v1h1l-1-1Zm0 3v1l1-1h-1Zm0 2v1l1-1h-1Zm0 2v1h1l-1-1Zm0 2v2l1-1-1-1Zm0 3v1l1-1h-1Zm0 2v1h1l-1-1Zm0 2v1h1l-1-1Zm0 3v1l1-1h-1Zm0 2v1l1-1h-1Zm0 2v1h1l-1-1Zm0 2v2l1-1-1-1Zm0 3v1l1-1h-1Zm0 2v1h1l-1-1Zm0 2v1h1l-1-1Zm0 3v1l1-1h-1Zm0 2v1h1l-1-1Zm0 2v1h1l-1-1Zm0 3v1l1-1h-1Zm0 2v1l1-1h-1Zm0 2v1h1l-1-1Zm0 2v2l1-1-1-1Zm0 3v1l1-1h-1Zm0 2v1h1l-1-1Zm0 2v1h1l-1-1Zm0 3v1l1-1h-1Zm0 2v1l1-1h-1Zm0 2v1a1 1 0 0 0 0-1Zm0 2v2l1-1-1-1Zm0 3a1 1 0 0 0 0 1l1-1h-1Zm0 2v1h1l-1-1Zm0 2v1h1l-1-1Zm0 3v1l1-1h-1Zm0 2v1h1l-1-1Zm0 2v1h1l-1-1Zm0 3v1l1-1h-1Zm0 2v1l1-1h-1Zm0 2v1h1l-1-1Zm0 2v2a1 1 0 0 0 0-2Zm0 3v1l1-1h-1Zm0 2a1 1 0 0 0 0 1h1l-1-1Zm0 2v1h1l-1-1Zm0 3v1l1-1h-1Zm0 2v1l1-1h-1Zm0 2v1h1l-1-1Zm0 2v2l1-1-1-1Zm0 3v1l1-1h-1Zm0 2v1h1l-1-1Zm0 2v2l1-1-1-1Zm3-187-1 1 1 1v-2Zm0 3h-1l1 1v-1Zm0 2-1 1h1v-1Zm0 2-1 1h1v-1Zm0 3h-1l1 1v-1Zm0 2h-1l1 1v-1Zm0 2-1 1h1v-1Zm0 2-1 1 1 1v-2Zm0 3h-1l1 1v-1Zm0 2-1 1h1v-1Zm0 2-1 1h1V0Zm0 3h-1l1 1V3Zm0 2h-1l1 1V5Zm0 2-1 1h1V7Zm0 2-1 1 1 1V9Zm0 3h-1l1 1v-1Zm0 2-1 1h1v-1Zm0 2-1 1 1 1v-2Zm0 3h-1l1 1v-1Zm0 2-1 1h1v-1Zm0 2-1 1h1v-1Zm0 3h-1l1 1v-1Zm0 2h-1l1 1v-1Zm0 2-1 1h1v-1Zm0 2-1 1 1 1v-2Zm0 3h-1l1 1v-1Zm0 2-1 1h1v-1Zm0 2-1 1h1v-1Zm0 3h-1l1 1v-1Zm0 2h-1l1 1v-1Zm0 2-1 1h1v-1Zm0 2-1 1 1 1v-2Zm0 3h-1l1 1v-1Zm0 2-1 1h1v-1Zm0 2-1 1 1 1v-2Zm0 3h-1l1 1v-1Zm0 2-1 1h1v-1Zm0 2-1 1h1v-1Zm0 3h-1l1 1v-1Zm0 2h-1l1 1v-1Zm0 2-1 1h1v-1Zm0 2-1 1 1 1v-2Zm0 3h-1l1 1v-1Zm0 2-1 1h1v-1Zm0 2-1 1h1v-1Zm0 3h-1l1 1v-1Zm0 2h-1l1 1v-1Zm0 2-1 1h1v-1Zm0 2-1 1 1 1v-2Zm0 3h-1l1 1v-1Zm0 2-1 1h1v-1Zm0 2-1 1 1 1v-2Zm0 3h-1l1 1v-1Zm0 2-1 1h1v-1Zm0 2-1 1h1a1 1 0 0 0 0-1Zm0 3h-1l1 1v-1Zm0 2h-1l1 1v-1Zm0 2-1 1h1v-1Zm0 2a1 1 0 0 0 0 2v-2Zm0 3h-1l1 1v-1Zm0 2-1 1h1v-1Zm0 2-1 1h1v-1Zm0 3h-1l1 1v-1Zm0 2h-1l1 1v-1Zm0 2-1 1h1v-1Zm0 2-1 1 1 1a1 1 0 0 0 0-2Zm0 3h-1l1 1v-1Zm0 2-1 1h1v-1Zm0 2-1 1 1 1v-2Zm0 3a1 1 0 0 0 0 1v-1Zm0 2-1 1h1v-1Zm0 2-1 1h1v-1Zm0 3h-1l1 1v-1Zm0 2h-1l1 1v-1Zm0 2-1 1h1v-1Zm0 2-1 1 1 1v-2Zm0 3h-1l1 1a1 1 0 0 0 0-1Zm0 2-1 1h1v-1Zm0 2-1 1h1v-1Zm0 3h-1l1 1v-1Zm0 2a1 1 0 0 0 0 1v-1Zm0 2-1 1h1v-1Zm0 3h-1l1 1v-1Zm2-187h-1l1 1 1-1h-1Zm0 2h-1l1 1 1-1h-1Zm0 2-1 1h2l-1-1Zm0 2-1 1 1 1 1-1-1-1Zm0 3h-1l1 1 1-1h-1Zm0 2-1 1h2l-1-1Zm0 2-1 1h2l-1-1Zm0 3h-1l1 1 1-1h-1Zm0 2h-1l1 1 1-1h-1Zm0 2-1 1h2l-1-1Zm0 2-1 1 1 1 1-1-1-1Zm0 3h-1l1 1 1-1h-1Zm0 2-1 1h2l-1-1Zm0 2-1 1h2l-1-1Zm0 3h-1l1 1 1-1h-1Zm0 2h-1l1 1 1-1h-1Zm0 2-1 1h2l-1-1Zm0 3h-1l1 1 1-1h-1Zm0 2h-1l1 1 1-1h-1Zm0 2-1 1h2l-1-1Zm0 2-1 1 1 1 1-1-1-1Zm0 3h-1l1 1 1-1h-1Zm0 2-1 1h2l-1-1Zm0 2-1 1h2l-1-1Zm0 3h-1l1 1 1-1h-1Zm0 2h-1l1 1 1-1h-1Zm0 2-1 1h2l-1-1Zm0 2-1 1 1 1 1-1-1-1Zm0 3h-1l1 1 1-1h-1Zm0 2-1 1h2l-1-1Zm0 2-1 1h2l-1-1Zm0 3h-1l1 1 1-1h-1Zm0 2-1 1h2l-1-1Zm0 2-1 1h2l-1-1Zm0 3h-1l1 1 1-1h-1Zm0 2h-1l1 1 1-1h-1Zm0 2-1 1h2l-1-1Zm0 2-1 1 1 1 1-1-1-1Zm0 3h-1l1 1 1-1h-1Zm0 2-1 1h2l-1-1Zm0 2-1 1h2l-1-1Zm0 3h-1l1 1 1-1h-1Zm0 2h-1l1 1 1-1h-1Zm0 2-1 1h2l-1-1Zm0 2-1 1 1 1 1-1-1-1Zm0 3h-1l1 1 1-1h-1Zm0 2-1 1h2l-1-1Zm0 2-1 1h2l-1-1Zm0 3h-1l1 1 1-1h-1Zm0 2-1 1h2l-1-1Zm0 2-1 1h2l-1-1Zm0 3h-1l1 1 1-1h-1Zm0 2h-1l1 1 1-1h-1Zm0 2-1 1h2l-1-1Zm0 2-1 1 1 1 1-1-1-1Zm0 3h-1l1 1 1-1h-1Zm0 2-1 1h2l-1-1Zm0 2-1 1h2l-1-1Zm0 3h-1l1 1 1-1h-1Zm0 2h-1l1 1 1-1h-1Zm0 2-1 1h1a1 1 0 0 0 0-1Zm0 2-1 1 1 1 1-1-1-1Zm0 3a1 1 0 0 0 0 1l1-1h-1Zm0 2-1 1h2l-1-1Zm0 2-1 1h2l-1-1Zm0 3h-1l1 1 1-1h-1Zm0 2-1 1h2l-1-1Zm0 2-1 1h2l-1-1Zm0 3h-1l1 1 1-1h-1Zm0 2h-1l1 1 1-1h-1Zm0 2-1 1h2l-1-1Zm0 2-1 1 1 1a1 1 0 0 0 0-2Zm0 3h-1l1 1 1-1h-1Zm0 2a1 1 0 0 0 0 1h1l-1-1Zm0 2-1 1h2l-1-1Zm0 3h-1l1 1 1-1h-1Zm0 2h-1l1 1 1-1h-1Zm0 2-1 1h2l-1-1Zm0 2-1 1 1 1 1-1-1-1Zm0 3h-1l1 1 1-1h-1Zm0 2-1 1h2l-1-1Zm0 2-1 1 1 1 1-1-1-1Zm2-187v2l1-1-1-1Zm0 3v1l1-1h-1Zm0 2v1h1l-1-1Zm0 2v1h1l-1-1Zm0 3v1l1-1h-1Zm0 2v1l1-1h-1Zm0 2v1h1l-1-1Zm0 2v2l1-1-1-1Zm0 3v1l1-1h-1Zm0 2v1h1l-1-1Zm0 2v1h1l-1-1Zm0 3v1l1-1h-1Zm0 2v1l1-1h-1Zm0 2v1h1l-1-1Zm0 2v2l1-1-1-1Zm0 3v1l1-1h-1Zm0 2v1h1l-1-1Zm0 2v2l1-1-1-1Zm0 3v1l1-1h-1Zm0 2v1h1l-1-1Zm0 2v1h1l-1-1Zm0 3v1l1-1h-1Zm0 2v1l1-1h-1Zm0 2v1h1l-1-1Zm0 2v2l1-1-1-1Zm0 3v1l1-1h-1Zm0 2v1h1l-1-1Zm0 2v1h1l-1-1Zm0 3v1l1-1h-1Zm0 2v1l1-1h-1Zm0 2v1h1l-1-1Zm0 2v2l1-1-1-1Zm0 3v1l1-1h-1Zm0 2v1h1l-1-1Zm0 2v2l1-1-1-1Zm0 3v1l1-1h-1Zm0 2v1h1l-1-1Zm0 2v1h1l-1-1Zm0 3v1l1-1h-1Zm0 2v1l1-1h-1Zm0 2v1h1l-1-1Zm0 2v2l1-1-1-1Zm0 3v1l1-1h-1Zm0 2v1h1l-1-1Zm0 2v1h1l-1-1Zm0 3v1l1-1h-1Zm0 2v1l1-1h-1Zm0 2v1h1l-1-1Zm0 2v2l1-1-1-1Zm0 3v1l1-1h-1Zm0 2v1h1l-1-1Zm0 2v2l1-1-1-1Zm0 3v1l1-1h-1Zm0 2v1h1l-1-1Zm0 2v1a1 1 0 0 0 0-1Zm0 3v1l1-1h-1Zm0 2v1l1-1h-1Zm0 2v1h1l-1-1Zm0 2a1 1 0 0 0 0 2l1-1-1-1Zm0 3v1l1-1h-1Zm0 2v1h1l-1-1Zm0 2v1h1l-1-1Zm0 3v1l1-1h-1Zm0 2v1l1-1h-1Zm0 2v1h1l-1-1Zm0 2v2a1 1 0 0 0 0-2Zm0 3v1l1-1h-1Zm0 2v1h1l-1-1Zm0 2v2l1-1-1-1Zm0 3a1 1 0 0 0 0 1l1-1h-1Zm0 2v1h1l-1-1Zm0 2v1h1l-1-1Zm0 3v1l1-1h-1Zm0 2v1l1-1h-1Zm0 2v1h1l-1-1Zm0 2v2l1-1-1-1Zm0 3v1a1 1 0 0 0 0-1Zm0 2v1h1l-1-1Zm0 2v1h1l-1-1Zm0 3v1l1-1h-1Zm0 2a1 1 0 0 0 0 1l1-1h-1Zm0 2v1h1l-1-1Zm0 3v1l1-1h-1Zm3-187h-1l1 1v-1Zm0 2h-1l1 1v-1Zm0 2-1 1h1v-1Zm0 2-1 1 1 1v-2Zm0 3h-1l1 1v-1Zm0 2-1 1h1v-1Zm0 2-1 1h1v-1Zm0 3h-1l1 1v-1Zm0 2h-1l1 1v-1Zm0 2-1 1h1v-1Zm0 2-1 1 1 1V1Zm0 3h-1l1 1V4Zm0 2-1 1h1V6Zm0 2-1 1h1V8Zm0 3h-1l1 1v-1Zm0 2h-1l1 1v-1Zm0 2-1 1h1v-1Zm0 3h-1l1 1v-1Zm0 2h-1l1 1v-1Zm0 2-1 1h1v-1Zm0 2-1 1 1 1v-2Zm0 3h-1l1 1v-1Zm0 2-1 1h1v-1Zm0 2-1 1h1v-1Zm0 3h-1l1 1v-1Zm0 2h-1l1 1v-1Zm0 2-1 1h1v-1Zm0 2-1 1 1 1v-2Zm0 3h-1l1 1v-1Zm0 2-1 1h1v-1Zm0 2-1 1h1v-1Zm0 3h-1l1 1v-1Zm0 2-1 1h1v-1Zm0 2-1 1h1v-1Zm0 3h-1l1 1v-1Zm0 2h-1l1 1v-1Zm0 2-1 1h1v-1Zm0 2-1 1 1 1v-2Zm0 3h-1l1 1v-1Zm0 2-1 1h1v-1Zm0 2-1 1h1v-1Zm0 3h-1l1 1v-1Zm0 2h-1l1 1v-1Zm0 2-1 1h1v-1Zm0 2-1 1 1 1v-2Zm0 3h-1l1 1v-1Zm0 2-1 1h1v-1Zm0 2-1 1h1v-1Zm0 3h-1l1 1v-1Zm0 2-1 1h1v-1Zm0 2-1 1h1v-1Zm0 3h-1l1 1v-1Zm0 2h-1l1 1v-1Zm0 2-1 1h1v-1Zm0 2-1 1 1 1v-2Zm0 3h-1l1 1v-1Zm0 2-1 1h1v-1Zm0 2-1 1h1v-1Zm0 3h-1l1 1v-1Zm0 2h-1l1 1v-1Zm0 2-1 1h1a1 1 0 0 0 0-1Zm0 2-1 1 1 1v-2Zm0 3a1 1 0 0 0 0 1v-1Zm0 2-1 1h1v-1Zm0 2-1 1h1v-1Zm0 3h-1l1 1v-1Zm0 2-1 1h1v-1Zm0 2-1 1h1v-1Zm0 3h-1l1 1v-1Zm0 2h-1l1 1v-1Zm0 2-1 1h1v-1Zm0 2-1 1 1 1a1 1 0 0 0 0-2Zm0 3h-1l1 1v-1Zm0 2a1 1 0 0 0 0 1v-1Zm0 2-1 1h1v-1Zm0 3h-1l1 1v-1Zm0 2h-1l1 1v-1Zm0 2-1 1h1v-1Zm0 2-1 1 1 1v-2Zm0 3h-1l1 1v-1Zm0 2-1 1h1v-1Zm0 2-1 1 1 1v-2Zm2-187-1 1 1 1v-2Zm0 3h-1l1 1v-1Zm0 2-1 1h1v-1Zm0 2-1 1h1v-1Zm0 3h-1l1 1v-1Zm0 2h-1l1 1v-1Zm0 2-1 1h1v-1Zm0 2-1 1 1 1v-2Zm0 3h-1l1 1v-1Zm0 2-1 1h1v-1Zm0 2-1 1h1V0Zm0 3h-1l1 1V3Zm0 2h-1l1 1V5Zm0 2-1 1h1V7Zm0 2-1 1 1 1V9Zm0 3h-1l1 1v-1Zm0 2-1 1h1v-1Zm0 2-1 1 1 1v-2Zm0 3h-1l1 1v-1Zm0 2-1 1h1v-1Zm0 2-1 1h1v-1Zm0 3h-1l1 1v-1Zm0 2h-1l1 1v-1Zm0 2-1 1h1v-1Zm0 2-1 1 1 1v-2Zm0 3h-1l1 1v-1Zm0 2-1 1h1v-1Zm0 2-1 1h1v-1Zm0 3h-1l1 1v-1Zm0 2h-1l1 1v-1Zm0 2-1 1h1v-1Zm0 2-1 1 1 1v-2Zm0 3h-1l1 1v-1Zm0 2-1 1h1v-1Zm0 2-1 1 1 1v-2Zm0 3h-1l1 1v-1Zm0 2-1 1h1v-1Zm0 2-1 1h1v-1Zm0 3h-1l1 1v-1Zm0 2h-1l1 1v-1Zm0 2-1 1h1v-1Zm0 2-1 1 1 1v-2Zm0 3h-1l1 1v-1Zm0 2-1 1h1v-1Zm0 2-1 1h1v-1Zm0 3h-1l1 1v-1Zm0 2h-1l1 1v-1Zm0 2-1 1h1v-1Zm0 2-1 1 1 1v-2Zm0 3h-1l1 1v-1Zm0 2-1 1h1v-1Zm0 2-1 1 1 1v-2Zm0 3h-1l1 1v-1Zm0 2-1 1h1v-1Zm0 2-1 1h1a1 1 0 0 0 0-1Zm0 3h-1l1 1v-1Zm0 2h-1l1 1v-1Zm0 2-1 1h1v-1Zm0 2a1 1 0 0 0 0 2v-2Zm0 3h-1l1 1v-1Zm0 2-1 1h1v-1Zm0 2-1 1h1v-1Zm0 3h-1l1 1v-1Zm0 2h-1l1 1v-1Zm0 2-1 1h1v-1Zm0 2-1 1 1 1a1 1 0 0 0 0-2Zm0 3h-1l1 1v-1Zm0 2-1 1h1v-1Zm0 2-1 1 1 1v-2Zm0 3a1 1 0 0 0 0 1v-1Zm0 2-1 1h1v-1Zm0 2-1 1h1v-1Zm0 3h-1l1 1v-1Zm0 2h-1l1 1v-1Zm0 2-1 1h1v-1Zm0 2-1 1 1 1v-2Zm0 3h-1l1 1a1 1 0 0 0 0-1Zm0 2-1 1h1v-1Zm0 2-1 1h1v-1Zm0 3h-1l1 1v-1Zm0 2a1 1 0 0 0 0 1v-1Zm0 2-1 1h1v-1Zm0 3h-1l1 1v-1Zm2-187v1l1-1h-1Zm0 2v1l1-1h-1Zm0 2v1h1l-1-1Zm0 2v2l1-1-1-1Zm0 3v1l1-1h-1Zm0 2v1h1l-1-1Zm0 2v1h1l-1-1Zm0 3v1l1-1h-1Zm0 2v1l1-1h-1Zm0 2v1h1l-1-1Zm0 2v2l1-1-1-1Zm0 3v1l1-1h-1Zm0 2v1h1l-1-1Zm0 2v1h1l-1-1Zm0 3v1l1-1h-1Zm0 2v1l1-1h-1Zm0 2v1h1l-1-1Zm0 3v1l1-1h-1Zm0 2v1l1-1h-1Zm0 2v1h1l-1-1Zm0 2v2l1-1-1-1Zm0 3v1l1-1h-1Zm0 2v1h1l-1-1Zm0 2v1h1l-1-1Zm0 3v1l1-1h-1Zm0 2v1l1-1h-1Zm0 2v1h1l-1-1Zm0 2v2l1-1-1-1Zm0 3v1l1-1h-1Zm0 2v1h1l-1-1Zm0 2v1h1l-1-1Zm0 3v1l1-1h-1Zm0 2v1h1l-1-1Zm0 2v1h1l-1-1Zm0 3v1l1-1h-1Zm0 2v1l1-1h-1Zm0 2v1h1l-1-1Zm0 2v2l1-1-1-1Zm0 3v1l1-1h-1Zm0 2v1h1l-1-1Zm0 2v1h1l-1-1Zm0 3v1l1-1h-1Zm0 2v1l1-1h-1Zm0 2v1h1l-1-1Zm0 2v2l1-1-1-1Zm0 3v1l1-1h-1Zm0 2v1h1l-1-1Zm0 2v1h1l-1-1Zm0 3v1l1-1h-1Zm0 2v1h1l-1-1Zm0 2v1h1l-1-1Zm0 3v1l1-1h-1Zm0 2v1l1-1h-1Zm0 2v1h1l-1-1Zm0 2v2l1-1-1-1Zm0 3v1l1-1h-1Zm0 2v1h1l-1-1Zm0 2v1h1l-1-1Zm0 3v1l1-1h-1Zm0 2v1l1-1h-1Zm0 2v1a1 1 0 0 0 0-1Zm0 2v2l1-1-1-1Zm0 3a1 1 0 0 0 0 1l1-1h-1Zm0 2v1h1l-1-1Zm0 2v1h1l-1-1Zm0 3v1l1-1h-1Zm0 2v1h1l-1-1Zm0 2v1h1l-1-1Zm0 3v1l1-1h-1Zm0 2v1l1-1h-1Zm0 2v1h1l-1-1Zm0 2v2a1 1 0 0 0 0-2Zm0 3v1l1-1h-1Zm0 2a1 1 0 0 0 0 1h1l-1-1Zm0 2v1h1l-1-1Zm0 3v1l1-1h-1Zm0 2v1l1-1h-1Zm0 2v1h1l-1-1Zm0 2v2l1-1-1-1Zm0 3v1l1-1h-1Zm0 2v1h1l-1-1Zm0 2v2l1-1-1-1Zm2-187v2l1-1-1-1Zm0 3v1l1-1h-1Zm0 2v1h1l-1-1Zm0 2v1h1l-1-1Zm0 3v1l1-1h-1Zm0 2v1l1-1h-1Zm0 2v1h1l-1-1Zm0 2v2l1-1-1-1Zm0 3v1l1-1h-1Zm0 2v1h1l-1-1Zm0 2v1h1l-1-1Zm0 3v1l1-1h-1Zm0 2v1l1-1h-1Zm0 2v1h1l-1-1Zm0 2v2l1-1-1-1Zm0 3v1l1-1h-1Zm0 2v1h1l-1-1Zm0 2v2l1-1-1-1Zm0 3v1l1-1h-1Zm0 2v1h1l-1-1Zm0 2v1h1l-1-1Zm0 3v1l1-1h-1Zm0 2v1l1-1h-1Zm0 2v1h1l-1-1Zm0 2v2l1-1-1-1Zm0 3v1l1-1h-1Zm0 2v1h1l-1-1Zm0 2v1h1l-1-1Zm0 3v1l1-1h-1Zm0 2v1l1-1h-1Zm0 2v1h1l-1-1Zm0 2v2l1-1-1-1Zm0 3v1l1-1h-1Zm0 2v1h1l-1-1Zm0 2v2l1-1-1-1Zm0 3v1l1-1h-1Zm0 2v1h1l-1-1Zm0 2v1h1l-1-1Zm0 3v1l1-1h-1Zm0 2v1l1-1h-1Zm0 2v1h1l-1-1Zm0 2v2l1-1-1-1Zm0 3v1l1-1h-1Zm0 2v1h1l-1-1Zm0 2v1h1l-1-1Zm0 3v1l1-1h-1Zm0 2v1l1-1h-1Zm0 2v1h1l-1-1Zm0 2v2l1-1-1-1Zm0 3v1l1-1h-1Zm0 2v1h1l-1-1Zm0 2v2l1-1-1-1Zm0 3v1l1-1h-1Zm0 2v1h1l-1-1Zm0 2v1a1 1 0 0 0 0-1Zm0 3v1l1-1h-1Zm0 2v1l1-1h-1Zm0 2v1h1l-1-1Zm0 2a1 1 0 0 0 0 2l1-1-1-1Zm0 3v1l1-1h-1Zm0 2v1h1l-1-1Zm0 2v1h1l-1-1Zm0 3v1l1-1h-1Zm0 2v1l1-1h-1Zm0 2v1h1l-1-1Zm0 2v2a1 1 0 0 0 0-2Zm0 3v1l1-1h-1Zm0 2v1h1l-1-1Zm0 2v2l1-1-1-1Zm0 3a1 1 0 0 0 0 1l1-1h-1Zm0 2v1h1l-1-1Zm0 2v1h1l-1-1Zm0 3v1l1-1h-1Zm0 2v1l1-1h-1Zm0 2v1h1l-1-1Zm0 2v2l1-1-1-1Zm0 3v1a1 1 0 0 0 0-1Zm0 2v1h1l-1-1Zm0 2v1h1l-1-1Zm0 3v1l1-1h-1Zm0 2a1 1 0 0 0 0 1l1-1h-1Zm0 2v1h1l-1-1Zm0 3v1l1-1h-1Zm3-187h-1l1 1v-1Zm0 2h-1l1 1v-1Zm0 2-1 1h1v-1Zm0 2-1 1 1 1v-2Zm0 3h-1l1 1v-1Zm0 2-1 1h1v-1Zm0 2-1 1h1v-1Zm0 3h-1l1 1v-1Zm0 2h-1l1 1v-1Zm0 2-1 1h1v-1Zm0 2-1 1 1 1V1Zm0 3h-1l1 1V4Zm0 2-1 1h1V6Zm0 2-1 1h1V8Zm0 3h-1l1 1v-1Zm0 2h-1l1 1v-1Zm0 2-1 1h1v-1Zm0 3h-1l1 1v-1Zm0 2h-1l1 1v-1Zm0 2-1 1h1v-1Zm0 2-1 1 1 1v-2Zm0 3h-1l1 1v-1Zm0 2-1 1h1v-1Zm0 2-1 1h1v-1Zm0 3h-1l1 1v-1Zm0 2h-1l1 1v-1Zm0 2-1 1h1v-1Zm0 2-1 1 1 1v-2Zm0 3h-1l1 1v-1Zm0 2-1 1h1v-1Zm0 2-1 1h1v-1Zm0 3h-1l1 1v-1Zm0 2-1 1h1v-1Zm0 2-1 1h1v-1Zm0 3h-1l1 1v-1Zm0 2h-1l1 1v-1Zm0 2-1 1h1v-1Zm0 2-1 1 1 1v-2Zm0 3h-1l1 1v-1Zm0 2-1 1h1v-1Zm0 2-1 1h1v-1Zm0 3h-1l1 1v-1Zm0 2h-1l1 1v-1Zm0 2-1 1h1v-1Zm0 2-1 1 1 1v-2Zm0 3h-1l1 1v-1Zm0 2-1 1h1v-1Zm0 2-1 1h1v-1Zm0 3h-1l1 1v-1Zm0 2-1 1h1v-1Zm0 2-1 1h1v-1Zm0 3h-1l1 1v-1Zm0 2h-1l1 1v-1Zm0 2-1 1h1v-1Zm0 2-1 1 1 1v-2Zm0 3h-1l1 1v-1Zm0 2-1 1h1v-1Zm0 2-1 1h1v-1Zm0 3h-1l1 1v-1Zm0 2h-1l1 1v-1Zm0 2-1 1h1a1 1 0 0 0 0-1Zm0 2-1 1 1 1v-2Zm0 3a1 1 0 0 0 0 1v-1Zm0 2-1 1h1v-1Zm0 2-1 1h1v-1Zm0 3h-1l1 1v-1Zm0 2-1 1h1v-1Zm0 2-1 1h1v-1Zm0 3h-1l1 1v-1Zm0 2h-1l1 1v-1Zm0 2-1 1h1v-1Zm0 2-1 1 1 1a1 1 0 0 0 0-2Zm0 3h-1l1 1v-1Zm0 2a1 1 0 0 0 0 1v-1Zm0 2-1 1h1v-1Zm0 3h-1l1 1v-1Zm0 2h-1l1 1v-1Zm0 2-1 1h1v-1Zm0 2-1 1 1 1v-2Zm0 3h-1l1 1v-1Zm0 2-1 1h1v-1Zm0 2-1 1 1 1v-2Zm2-187v2l1-1-1-1Zm0 3v1l1-1h-1Zm0 2v1h1l-1-1Zm0 2v1h1l-1-1Zm0 3v1l1-1h-1Zm0 2v1l1-1h-1Zm0 2v1h1l-1-1Zm0 2v2l1-1-1-1Zm0 3v1l1-1h-1Zm0 2v1h1l-1-1Zm0 2v1h1l-1-1Zm0 3v1l1-1h-1Zm0 2v1l1-1h-1Zm0 2v1h1l-1-1Zm0 2v2l1-1-1-1Zm0 3v1l1-1h-1Zm0 2v1h1l-1-1Zm0 2v2l1-1-1-1Zm0 3v1l1-1h-1Zm0 2v1h1l-1-1Zm0 2v1h1l-1-1Zm0 3v1l1-1h-1Zm0 2v1l1-1h-1Zm0 2v1h1l-1-1Zm0 2v2l1-1-1-1Zm0 3v1l1-1h-1Zm0 2v1h1l-1-1Zm0 2v1h1l-1-1Zm0 3v1l1-1h-1Zm0 2v1l1-1h-1Zm0 2v1h1l-1-1Zm0 2v2l1-1-1-1Zm0 3v1l1-1h-1Zm0 2v1h1l-1-1Zm0 2v2l1-1-1-1Zm0 3v1l1-1h-1Zm0 2v1h1l-1-1Zm0 2v1h1l-1-1Zm0 3v1l1-1h-1Zm0 2v1l1-1h-1Zm0 2v1h1l-1-1Zm0 2v2l1-1-1-1Zm0 3v1l1-1h-1Zm0 2v1h1l-1-1Zm0 2v1h1l-1-1Zm0 3v1l1-1h-1Zm0 2v1l1-1h-1Zm0 2v1h1l-1-1Zm0 2v2l1-1-1-1Zm0 3v1l1-1h-1Zm0 2v1h1l-1-1Zm0 2v2l1-1-1-1Zm0 3v1l1-1h-1Zm0 2v1h1l-1-1Zm0 2v1a1 1 0 0 0 0-1Zm0 3v1l1-1h-1Zm0 2v1l1-1h-1Zm0 2v1h1l-1-1Zm0 2a1 1 0 0 0 0 2l1-1-1-1Zm0 3v1l1-1h-1Zm0 2v1h1l-1-1Zm0 2v1h1l-1-1Zm0 3v1l1-1h-1Zm0 2v1l1-1h-1Zm0 2v1h1l-1-1Zm0 2v2a1 1 0 0 0 0-2Zm0 3v1l1-1h-1Zm0 2v1h1l-1-1Zm0 2v2l1-1-1-1Zm0 3a1 1 0 0 0 0 1l1-1h-1Zm0 2v1h1l-1-1Zm0 2v1h1l-1-1Zm0 3v1l1-1h-1Zm0 2v1l1-1h-1Zm0 2v1h1l-1-1Zm0 2v2l1-1-1-1Zm0 3v1a1 1 0 0 0 0-1Zm0 2v1h1l-1-1Zm0 2v1h1l-1-1Zm0 3v1l1-1h-1Zm0 2a1 1 0 0 0 0 1l1-1h-1Zm0 2v1h1l-1-1Zm0 3v1l1-1h-1Zm2-187v1l1-1h-1Zm0 2v1l1-1h-1Zm0 2v1h1l-1-1Zm0 2v2l1-1-1-1Zm0 3v1l1-1h-1Zm0 2v1h1l-1-1Zm0 2v1h1l-1-1Zm0 3v1l1-1h-1Zm0 2v1l1-1h-1Zm0 2v1h1l-1-1Zm0 2v2l1-1-1-1Zm0 3v1l1-1h-1Zm0 2v1h1l-1-1Zm0 2v1h1l-1-1Zm0 3v1l1-1h-1Zm0 2v1l1-1h-1Zm0 2v1h1l-1-1Zm0 3v1l1-1h-1Zm0 2v1l1-1h-1Zm0 2v1h1l-1-1Zm0 2v2l1-1-1-1Zm0 3v1l1-1h-1Zm0 2v1h1l-1-1Zm0 2v1h1l-1-1Zm0 3v1l1-1h-1Zm0 2v1l1-1h-1Zm0 2v1h1l-1-1Zm0 2v2l1-1-1-1Zm0 3v1l1-1h-1Zm0 2v1h1l-1-1Zm0 2v1h1l-1-1Zm0 3v1l1-1h-1Zm0 2v1h1l-1-1Zm0 2v1h1l-1-1Zm0 3v1l1-1h-1Zm0 2v1l1-1h-1Zm0 2v1h1l-1-1Zm0 2v2l1-1-1-1Zm0 3v1l1-1h-1Zm0 2v1h1l-1-1Zm0 2v1h1l-1-1Zm0 3v1l1-1h-1Zm0 2v1l1-1h-1Zm0 2v1h1l-1-1Zm0 2v2l1-1-1-1Zm0 3v1l1-1h-1Zm0 2v1h1l-1-1Zm0 2v1h1l-1-1Zm0 3v1l1-1h-1Zm0 2v1h1l-1-1Zm0 2v1h1l-1-1Zm0 3v1l1-1h-1Zm0 2v1l1-1h-1Zm0 2v1h1l-1-1Zm0 2v2l1-1-1-1Zm0 3v1l1-1h-1Zm0 2v1h1l-1-1Zm0 2v1h1l-1-1Zm0 3v1l1-1h-1Zm0 2v1l1-1h-1Zm0 2v1a1 1 0 0 0 0-1Zm0 2v2l1-1-1-1Zm0 3a1 1 0 0 0 0 1l1-1h-1Zm0 2v1h1l-1-1Zm0 2v1h1l-1-1Zm0 3v1l1-1h-1Zm0 2v1h1l-1-1Zm0 2v1h1l-1-1Zm0 3v1l1-1h-1Zm0 2v1l1-1h-1Zm0 2v1h1l-1-1Zm0 2v2a1 1 0 0 0 0-2Zm0 3v1l1-1h-1Zm0 2a1 1 0 0 0 0 1h1l-1-1Zm0 2v1h1l-1-1Zm0 3v1l1-1h-1Zm0 2v1l1-1h-1Zm0 2v1h1l-1-1Zm0 2v2l1-1-1-1Zm0 3v1l1-1h-1Zm0 2v1h1l-1-1Zm0 2v2l1-1-1-1Zm3-187-1 1 1 1v-2Zm0 3h-1l1 1v-1Zm0 2-1 1h1v-1Zm0 2-1 1h1v-1Zm0 3h-1l1 1v-1Zm0 2h-1l1 1v-1Zm0 2-1 1h1v-1Zm0 2-1 1 1 1v-2Zm0 3h-1l1 1v-1Zm0 2-1 1h1v-1Zm0 2-1 1h1V0Zm0 3h-1l1 1V3Zm0 2h-1l1 1V5Zm0 2-1 1h1V7Zm0 2-1 1 1 1V9Zm0 3h-1l1 1v-1Zm0 2-1 1h1v-1Zm0 2-1 1 1 1v-2Zm0 3h-1l1 1v-1Zm0 2-1 1h1v-1Zm0 2-1 1h1v-1Zm0 3h-1l1 1v-1Zm0 2h-1l1 1v-1Zm0 2-1 1h1v-1Zm0 2-1 1 1 1v-2Zm0 3h-1l1 1v-1Zm0 2-1 1h1v-1Zm0 2-1 1h1v-1Zm0 3h-1l1 1v-1Zm0 2h-1l1 1v-1Zm0 2-1 1h1v-1Zm0 2-1 1 1 1v-2Zm0 3h-1l1 1v-1Zm0 2-1 1h1v-1Zm0 2-1 1 1 1v-2Zm0 3h-1l1 1v-1Zm0 2-1 1h1v-1Zm0 2-1 1h1v-1Zm0 3h-1l1 1v-1Zm0 2h-1l1 1v-1Zm0 2-1 1h1v-1Zm0 2-1 1 1 1v-2Zm0 3h-1l1 1v-1Zm0 2-1 1h1v-1Zm0 2-1 1h1v-1Zm0 3h-1l1 1v-1Zm0 2h-1l1 1v-1Zm0 2-1 1h1v-1Zm0 2-1 1 1 1v-2Zm0 3h-1l1 1v-1Zm0 2-1 1h1v-1Zm0 2-1 1 1 1v-2Zm0 3h-1l1 1v-1Zm0 2-1 1h1v-1Zm0 2-1 1h1a1 1 0 0 0 0-1Zm0 3h-1l1 1v-1Zm0 2h-1l1 1v-1Zm0 2-1 1h1v-1Zm0 2a1 1 0 0 0 0 2v-2Zm0 3h-1l1 1v-1Zm0 2-1 1h1v-1Zm0 2-1 1h1v-1Zm0 3h-1l1 1v-1Zm0 2h-1l1 1v-1Zm0 2-1 1h1v-1Zm0 2-1 1 1 1a1 1 0 0 0 0-2Zm0 3h-1l1 1v-1Zm0 2-1 1h1v-1Zm0 2-1 1 1 1v-2Zm0 3a1 1 0 0 0 0 1v-1Zm0 2-1 1h1v-1Zm0 2-1 1h1v-1Zm0 3h-1l1 1v-1Zm0 2h-1l1 1v-1Zm0 2-1 1h1v-1Zm0 2-1 1 1 1v-2Zm0 3h-1l1 1a1 1 0 0 0 0-1Zm0 2-1 1h1v-1Zm0 2-1 1h1v-1Zm0 3h-1l1 1v-1Zm0 2a1 1 0 0 0 0 1v-1Zm0 2-1 1h1v-1Zm0 3h-1l1 1v-1Zm2-187h-1l1 1 1-1h-1Zm0 2h-1l1 1 1-1h-1Zm0 2-1 1h2l-1-1Zm0 2-1 1 1 1 1-1-1-1Zm0 3h-1l1 1 1-1h-1Zm0 2-1 1h2l-1-1Zm0 2-1 1h2l-1-1Zm0 3h-1l1 1 1-1h-1Zm0 2h-1l1 1 1-1h-1Zm0 2-1 1h2l-1-1Zm0 2-1 1 1 1 1-1-1-1Zm0 3h-1l1 1 1-1h-1Zm0 2-1 1h2l-1-1Zm0 2-1 1h2l-1-1Zm0 3h-1l1 1 1-1h-1Zm0 2h-1l1 1 1-1h-1Zm0 2-1 1h2l-1-1Zm0 3h-1l1 1 1-1h-1Zm0 2h-1l1 1 1-1h-1Zm0 2-1 1h2l-1-1Zm0 2-1 1 1 1 1-1-1-1Zm0 3h-1l1 1 1-1h-1Zm0 2-1 1h2l-1-1Zm0 2-1 1h2l-1-1Zm0 3h-1l1 1 1-1h-1Zm0 2h-1l1 1 1-1h-1Zm0 2-1 1h2l-1-1Zm0 2-1 1 1 1 1-1-1-1Zm0 3h-1l1 1 1-1h-1Zm0 2-1 1h2l-1-1Zm0 2-1 1h2l-1-1Zm0 3h-1l1 1 1-1h-1Zm0 2-1 1h2l-1-1Zm0 2-1 1h2l-1-1Zm0 3h-1l1 1 1-1h-1Zm0 2h-1l1 1 1-1h-1Zm0 2-1 1h2l-1-1Zm0 2-1 1 1 1 1-1-1-1Zm0 3h-1l1 1 1-1h-1Zm0 2-1 1h2l-1-1Zm0 2-1 1h2l-1-1Zm0 3h-1l1 1 1-1h-1Zm0 2h-1l1 1 1-1h-1Zm0 2-1 1h2l-1-1Zm0 2-1 1 1 1 1-1-1-1Zm0 3h-1l1 1 1-1h-1Zm0 2-1 1h2l-1-1Zm0 2-1 1h2l-1-1Zm0 3h-1l1 1 1-1h-1Zm0 2-1 1h2l-1-1Zm0 2-1 1h2l-1-1Zm0 3h-1l1 1 1-1h-1Zm0 2h-1l1 1 1-1h-1Zm0 2-1 1h2l-1-1Zm0 2-1 1 1 1 1-1-1-1Zm0 3h-1l1 1 1-1h-1Zm0 2-1 1h2l-1-1Zm0 2-1 1h2l-1-1Zm0 3h-1l1 1 1-1h-1Zm0 2h-1l1 1 1-1h-1Zm0 2-1 1h1a1 1 0 0 0 0-1Zm0 2-1 1 1 1 1-1-1-1Zm0 3a1 1 0 0 0 0 1l1-1h-1Zm0 2-1 1h2l-1-1Zm0 2-1 1h2l-1-1Zm0 3h-1l1 1 1-1h-1Zm0 2-1 1h2l-1-1Zm0 2-1 1h2l-1-1Zm0 3h-1l1 1 1-1h-1Zm0 2h-1l1 1 1-1h-1Zm0 2-1 1h2l-1-1Zm0 2-1 1 1 1a1 1 0 0 0 0-2Zm0 3h-1l1 1 1-1h-1Zm0 2a1 1 0 0 0 0 1h1l-1-1Zm0 2-1 1h2l-1-1Zm0 3h-1l1 1 1-1h-1Zm0 2h-1l1 1 1-1h-1Zm0 2-1 1h2l-1-1Zm0 2-1 1 1 1 1-1-1-1Zm0 3h-1l1 1 1-1h-1Zm0 2-1 1h2l-1-1Zm0 2-1 1 1 1 1-1-1-1Zm2-187v2l1-1-1-1Zm0 3v1l1-1h-1Zm0 2v1h1l-1-1Zm0 2v1h1l-1-1Zm0 3v1l1-1h-1Zm0 2v1l1-1h-1Zm0 2v1h1l-1-1Zm0 2v2l1-1-1-1Zm0 3v1l1-1h-1Zm0 2v1h1l-1-1Zm0 2v1h1l-1-1Zm0 3v1l1-1h-1Zm0 2v1l1-1h-1Zm0 2v1h1l-1-1Zm0 2v2l1-1-1-1Zm0 3v1l1-1h-1Zm0 2v1h1l-1-1Zm0 2v2l1-1-1-1Zm0 3v1l1-1h-1Zm0 2v1h1l-1-1Zm0 2v1h1l-1-1Zm0 3v1l1-1h-1Zm0 2v1l1-1h-1Zm0 2v1h1l-1-1Zm0 2v2l1-1-1-1Zm0 3v1l1-1h-1Zm0 2v1h1l-1-1Zm0 2v1h1l-1-1Zm0 3v1l1-1h-1Zm0 2v1l1-1h-1Zm0 2v1h1l-1-1Zm0 2v2l1-1-1-1Zm0 3v1l1-1h-1Zm0 2v1h1l-1-1Zm0 2v2l1-1-1-1Zm0 3v1l1-1h-1Zm0 2v1h1l-1-1Zm0 2v1h1l-1-1Zm0 3v1l1-1h-1Zm0 2v1l1-1h-1Zm0 2v1h1l-1-1Zm0 2v2l1-1-1-1Zm0 3v1l1-1h-1Zm0 2v1h1l-1-1Zm0 2v1h1l-1-1Zm0 3v1l1-1h-1Zm0 2v1l1-1h-1Zm0 2v1h1l-1-1Zm0 2v2l1-1-1-1Zm0 3v1l1-1h-1Zm0 2v1h1l-1-1Zm0 2v2l1-1-1-1Zm0 3v1l1-1h-1Zm0 2v1h1l-1-1Zm0 2v1a1 1 0 0 0 0-1Zm0 3v1l1-1h-1Zm0 2v1l1-1h-1Zm0 2v1h1l-1-1Zm0 2a1 1 0 0 0 0 2l1-1-1-1Zm0 3v1l1-1h-1Zm0 2v1h1l-1-1Zm0 2v1h1l-1-1Zm0 3v1l1-1h-1Zm0 2v1l1-1h-1Zm0 2v1h1l-1-1Zm0 2v2a1 1 0 0 0 0-2Zm0 3v1l1-1h-1Zm0 2v1h1l-1-1Zm0 2v2l1-1-1-1Zm0 3a1 1 0 0 0 0 1l1-1h-1Zm0 2v1h1l-1-1Zm0 2v1h1l-1-1Zm0 3v1l1-1h-1Zm0 2v1l1-1h-1Zm0 2v1h1l-1-1Zm0 2v2l1-1-1-1Zm0 3v1a1 1 0 0 0 0-1Zm0 2v1h1l-1-1Zm0 2v1h1l-1-1Zm0 3v1l1-1h-1Zm0 2a1 1 0 0 0 0 1l1-1h-1Zm0 2v1h1l-1-1Zm0 3v1l1-1h-1Zm3-187h-1l1 1v-1Zm0 2h-1l1 1v-1Zm0 2-1 1h1v-1Zm0 2-1 1 1 1v-2Zm0 3h-1l1 1v-1Zm0 2-1 1h1v-1Zm0 2-1 1h1v-1Zm0 3h-1l1 1v-1Zm0 2h-1l1 1v-1Zm0 2-1 1h1v-1Zm0 2-1 1 1 1V1Zm0 3h-1l1 1V4Zm0 2-1 1h1V6Zm0 2-1 1h1V8Zm0 3h-1l1 1v-1Zm0 2h-1l1 1v-1Zm0 2-1 1h1v-1Zm0 3h-1l1 1v-1Zm0 2h-1l1 1v-1Zm0 2-1 1h1v-1Zm0 2-1 1 1 1v-2Zm0 3h-1l1 1v-1Zm0 2-1 1h1v-1Zm0 2-1 1h1v-1Zm0 3h-1l1 1v-1Zm0 2h-1l1 1v-1Zm0 2-1 1h1v-1Zm0 2-1 1 1 1v-2Zm0 3h-1l1 1v-1Zm0 2-1 1h1v-1Zm0 2-1 1h1v-1Zm0 3h-1l1 1v-1Zm0 2-1 1h1v-1Zm0 2-1 1h1v-1Zm0 3h-1l1 1v-1Zm0 2h-1l1 1v-1Zm0 2-1 1h1v-1Zm0 2-1 1 1 1v-2Zm0 3h-1l1 1v-1Zm0 2-1 1h1v-1Zm0 2-1 1h1v-1Zm0 3h-1l1 1v-1Zm0 2h-1l1 1v-1Zm0 2-1 1h1v-1Zm0 2-1 1 1 1v-2Zm0 3h-1l1 1v-1Zm0 2-1 1h1v-1Zm0 2-1 1h1v-1Zm0 3h-1l1 1v-1Zm0 2-1 1h1v-1Zm0 2-1 1h1v-1Zm0 3h-1l1 1v-1Zm0 2h-1l1 1v-1Zm0 2-1 1h1v-1Zm0 2-1 1 1 1v-2Zm0 3h-1l1 1v-1Zm0 2-1 1h1v-1Zm0 2-1 1h1v-1Zm0 3h-1l1 1v-1Zm0 2h-1l1 1v-1Zm0 2-1 1h1a1 1 0 0 0 0-1Zm0 2-1 1 1 1v-2Zm0 3a1 1 0 0 0 0 1v-1Zm0 2-1 1h1v-1Zm0 2-1 1h1v-1Zm0 3h-1l1 1v-1Zm0 2-1 1h1v-1Zm0 2-1 1h1v-1Zm0 3h-1l1 1v-1Zm0 2h-1l1 1v-1Zm0 2-1 1h1v-1Zm0 2-1 1 1 1a1 1 0 0 0 0-2Zm0 3h-1l1 1v-1Zm0 2a1 1 0 0 0 0 1v-1Zm0 2-1 1h1v-1Zm0 3h-1l1 1v-1Zm0 2h-1l1 1v-1Zm0 2-1 1h1v-1Zm0 2-1 1 1 1v-2Zm0 3h-1l1 1v-1Zm0 2-1 1h1v-1Zm0 2-1 1 1 1v-2Zm2-187-1 1 1 1v-2Zm0 3h-1l1 1v-1Zm0 2-1 1h1v-1Zm0 2-1 1h1v-1Zm0 3h-1l1 1v-1Zm0 2h-1l1 1v-1Zm0 2-1 1h1v-1Zm0 2-1 1 1 1v-2Zm0 3h-1l1 1v-1Zm0 2-1 1h1v-1Zm0 2-1 1h1V0Zm0 3h-1l1 1V3Zm0 2h-1l1 1V5Zm0 2-1 1h1V7Zm0 2-1 1 1 1V9Zm0 3h-1l1 1v-1Zm0 2-1 1h1v-1Zm0 2-1 1 1 1v-2Zm0 3h-1l1 1v-1Zm0 2-1 1h1v-1Zm0 2-1 1h1v-1Zm0 3h-1l1 1v-1Zm0 2h-1l1 1v-1Zm0 2-1 1h1v-1Zm0 2-1 1 1 1v-2Zm0 3h-1l1 1v-1Zm0 2-1 1h1v-1Zm0 2-1 1h1v-1Zm0 3h-1l1 1v-1Zm0 2h-1l1 1v-1Zm0 2-1 1h1v-1Zm0 2-1 1 1 1v-2Zm0 3h-1l1 1v-1Zm0 2-1 1h1v-1Zm0 2-1 1 1 1v-2Zm0 3h-1l1 1v-1Zm0 2-1 1h1v-1Zm0 2-1 1h1v-1Zm0 3h-1l1 1v-1Zm0 2h-1l1 1v-1Zm0 2-1 1h1v-1Zm0 2-1 1 1 1v-2Zm0 3h-1l1 1v-1Zm0 2-1 1h1v-1Zm0 2-1 1h1v-1Zm0 3h-1l1 1v-1Zm0 2h-1l1 1v-1Zm0 2-1 1h1v-1Zm0 2-1 1 1 1v-2Zm0 3h-1l1 1v-1Zm0 2-1 1h1v-1Zm0 2-1 1 1 1v-2Zm0 3h-1l1 1v-1Zm0 2-1 1h1v-1Zm0 2-1 1h1a1 1 0 0 0 0-1Zm0 3h-1l1 1v-1Zm0 2h-1l1 1v-1Zm0 2-1 1h1v-1Zm0 2a1 1 0 0 0 0 2v-2Zm0 3h-1l1 1v-1Zm0 2-1 1h1v-1Zm0 2-1 1h1v-1Zm0 3h-1l1 1v-1Zm0 2h-1l1 1v-1Zm0 2-1 1h1v-1Zm0 2-1 1 1 1a1 1 0 0 0 0-2Zm0 3h-1l1 1v-1Zm0 2-1 1h1v-1Zm0 2-1 1 1 1v-2Zm0 3a1 1 0 0 0 0 1v-1Zm0 2-1 1h1v-1Zm0 2-1 1h1v-1Zm0 3h-1l1 1v-1Zm0 2h-1l1 1v-1Zm0 2-1 1h1v-1Zm0 2-1 1 1 1v-2Zm0 3h-1l1 1a1 1 0 0 0 0-1Zm0 2-1 1h1v-1Zm0 2-1 1h1v-1Zm0 3h-1l1 1v-1Zm0 2a1 1 0 0 0 0 1v-1Zm0 2-1 1h1v-1Zm0 3h-1l1 1v-1Zm2-187v1l1-1h-1Zm0 2v1l1-1h-1Zm0 2v1h1l-1-1Zm0 2v2l1-1-1-1Zm0 3v1l1-1h-1Zm0 2v1h1l-1-1Zm0 2v1h1l-1-1Zm0 3v1l1-1h-1Zm0 2v1l1-1h-1Zm0 2v1h1l-1-1Zm0 2v2l1-1-1-1Zm0 3v1l1-1h-1Zm0 2v1h1l-1-1Zm0 2v1h1l-1-1Zm0 3v1l1-1h-1Zm0 2v1l1-1h-1Zm0 2v1h1l-1-1Zm0 3v1l1-1h-1Zm0 2v1l1-1h-1Zm0 2v1h1l-1-1Zm0 2v2l1-1-1-1Zm0 3v1l1-1h-1Zm0 2v1h1l-1-1Zm0 2v1h1l-1-1Zm0 3v1l1-1h-1Zm0 2v1l1-1h-1Zm0 2v1h1l-1-1Zm0 2v2l1-1-1-1Zm0 3v1l1-1h-1Zm0 2v1h1l-1-1Zm0 2v1h1l-1-1Zm0 3v1l1-1h-1Zm0 2v1h1l-1-1Zm0 2v1h1l-1-1Zm0 3v1l1-1h-1Zm0 2v1l1-1h-1Zm0 2v1h1l-1-1Zm0 2v2l1-1-1-1Zm0 3v1l1-1h-1Zm0 2v1h1l-1-1Zm0 2v1h1l-1-1Zm0 3v1l1-1h-1Zm0 2v1l1-1h-1Zm0 2v1h1l-1-1Zm0 2v2l1-1-1-1Zm0 3v1l1-1h-1Zm0 2v1h1l-1-1Zm0 2v1h1l-1-1Zm0 3v1l1-1h-1Zm0 2v1h1l-1-1Zm0 2v1h1l-1-1Zm0 3v1l1-1h-1Zm0 2v1l1-1h-1Zm0 2v1h1l-1-1Zm0 2v2l1-1-1-1Zm0 3v1l1-1h-1Zm0 2v1h1l-1-1Zm0 2v1h1l-1-1Zm0 3v1l1-1h-1Zm0 2v1l1-1h-1Zm0 2v1a1 1 0 0 0 0-1Zm0 2v2l1-1-1-1Zm0 3a1 1 0 0 0 0 1l1-1h-1Zm0 2v1h1l-1-1Zm0 2v1h1l-1-1Zm0 3v1l1-1h-1Zm0 2v1h1l-1-1Zm0 2v1h1l-1-1Zm0 3v1l1-1h-1Zm0 2v1l1-1h-1Zm0 2v1h1l-1-1Zm0 2v2a1 1 0 0 0 0-2Zm0 3v1l1-1h-1Zm0 2a1 1 0 0 0 0 1h1l-1-1Zm0 2v1h1l-1-1Zm0 3v1l1-1h-1Zm0 2v1l1-1h-1Zm0 2v1h1l-1-1Zm0 2v2l1-1-1-1Zm0 3v1l1-1h-1Zm0 2v1h1l-1-1Zm0 2v2l1-1-1-1Zm2-187v2l1-1-1-1Zm0 3v1l1-1h-1Zm0 2v1h1l-1-1Zm0 2v1h1l-1-1Zm0 3v1l1-1h-1Zm0 2v1l1-1h-1Zm0 2v1h1l-1-1Zm0 2v2l1-1-1-1Zm0 3v1l1-1h-1Zm0 2v1h1l-1-1Zm0 2v1h1l-1-1Zm0 3v1l1-1h-1Zm0 2v1l1-1h-1Zm0 2v1h1l-1-1Zm0 2v2l1-1-1-1Zm0 3v1l1-1h-1Zm0 2v1h1l-1-1Zm0 2v2l1-1-1-1Zm0 3v1l1-1h-1Zm0 2v1h1l-1-1Zm0 2v1h1l-1-1Zm0 3v1l1-1h-1Zm0 2v1l1-1h-1Zm0 2v1h1l-1-1Zm0 2v2l1-1-1-1Zm0 3v1l1-1h-1Zm0 2v1h1l-1-1Zm0 2v1h1l-1-1Zm0 3v1l1-1h-1Zm0 2v1l1-1h-1Zm0 2v1h1l-1-1Zm0 2v2l1-1-1-1Zm0 3v1l1-1h-1Zm0 2v1h1l-1-1Zm0 2v2l1-1-1-1Zm0 3v1l1-1h-1Zm0 2v1h1l-1-1Zm0 2v1h1l-1-1Zm0 3v1l1-1h-1Zm0 2v1l1-1h-1Zm0 2v1h1l-1-1Zm0 2v2l1-1-1-1Zm0 3v1l1-1h-1Zm0 2v1h1l-1-1Zm0 2v1h1l-1-1Zm0 3v1l1-1h-1Zm0 2v1l1-1h-1Zm0 2v1h1l-1-1Zm0 2v2l1-1-1-1Zm0 3v1l1-1h-1Zm0 2v1h1l-1-1Zm0 2v2l1-1-1-1Zm0 3v1l1-1h-1Zm0 2v1h1l-1-1Zm0 2v1a1 1 0 0 0 0-1Zm0 3v1l1-1h-1Zm0 2v1l1-1h-1Zm0 2v1h1l-1-1Zm0 2a1 1 0 0 0 0 2l1-1-1-1Zm0 3v1l1-1h-1Zm0 2v1h1l-1-1Zm0 2v1h1l-1-1Zm0 3v1l1-1h-1Zm0 2v1l1-1h-1Zm0 2v1h1l-1-1Zm0 2v2a1 1 0 0 0 0-2Zm0 3v1l1-1h-1Zm0 2v1h1l-1-1Zm0 2v2l1-1-1-1Zm0 3a1 1 0 0 0 0 1l1-1h-1Zm0 2v1h1l-1-1Zm0 2v1h1l-1-1Zm0 3v1l1-1h-1Zm0 2v1l1-1h-1Zm0 2v1h1l-1-1Zm0 2v2l1-1-1-1Zm0 3v1a1 1 0 0 0 0-1Zm0 2v1h1l-1-1Zm0 2v1h1l-1-1Zm0 3v1l1-1h-1Zm0 2a1 1 0 0 0 0 1l1-1h-1Zm0 2v1h1l-1-1Zm0 3v1l1-1h-1Zm3-187h-1l1 1v-1Zm0 2h-1l1 1v-1Zm0 2-1 1h1v-1Zm0 2-1 1 1 1v-2Zm0 3h-1l1 1v-1Zm0 2-1 1h1v-1Zm0 2-1 1h1v-1Zm0 3h-1l1 1v-1Zm0 2h-1l1 1v-1Zm0 2-1 1h1v-1Zm0 2-1 1 1 1V1Zm0 3h-1l1 1V4Zm0 2-1 1h1V6Zm0 2-1 1h1V8Zm0 3h-1l1 1v-1Zm0 2h-1l1 1v-1Zm0 2-1 1h1v-1Zm0 3h-1l1 1v-1Zm0 2h-1l1 1v-1Zm0 2-1 1h1v-1Zm0 2-1 1 1 1v-2Zm0 3h-1l1 1v-1Zm0 2-1 1h1v-1Zm0 2-1 1h1v-1Zm0 3h-1l1 1v-1Zm0 2h-1l1 1v-1Zm0 2-1 1h1v-1Zm0 2-1 1 1 1v-2Zm0 3h-1l1 1v-1Zm0 2-1 1h1v-1Zm0 2-1 1h1v-1Zm0 3h-1l1 1v-1Zm0 2-1 1h1v-1Zm0 2-1 1h1v-1Zm0 3h-1l1 1v-1Zm0 2h-1l1 1v-1Zm0 2-1 1h1v-1Zm0 2-1 1 1 1v-2Zm0 3h-1l1 1v-1Zm0 2-1 1h1v-1Zm0 2-1 1h1v-1Zm0 3h-1l1 1v-1Zm0 2h-1l1 1v-1Zm0 2-1 1h1v-1Zm0 2-1 1 1 1v-2Zm0 3h-1l1 1v-1Zm0 2-1 1h1v-1Zm0 2-1 1h1v-1Zm0 3h-1l1 1v-1Zm0 2-1 1h1v-1Zm0 2-1 1h1v-1Zm0 3h-1l1 1v-1Zm0 2h-1l1 1v-1Zm0 2-1 1h1a1 1 0 0 0 0-1Zm0 2-1 1 1 1v-2Zm0 3h-1l1 1a1 1 0 0 0 0-1Zm0 2-1 1h1v-1Zm0 2-1 1h1a1 1 0 0 0 0-1Zm0 3h-1l1 1v-1Zm0 2h-1l1 1a1 1 0 0 0 0-1Zm0 2-1 1h1a1 1 0 0 0 0-1Zm0 2-1 1 1 1a1 1 0 0 0 0-2Zm0 3a1 1 0 0 0 0 1v-1Zm0 2-1 1h1v-1Zm0 2-1 1h1a1 1 0 0 0 0-1Zm0 3h-1l1 1v-1Zm0 2-1 1h1a1 1 0 0 0 0-1Zm0 2-1 1h1v-1Zm0 3h-1l1 1a1 1 0 0 0 0-1Zm0 2h-1l1 1v-1Zm0 2-1 1h1a1 1 0 0 0 0-1Zm0 2-1 1 1 1a1 1 0 0 0 0-2Zm0 3h-1l1 1a1 1 0 0 0 0-1Zm0 2a1 1 0 0 0 0 1v-1Zm0 2-1 1h1v-1Zm0 3h-1l1 1a1 1 0 0 0 0-1Zm0 2h-1l1 1v-1Zm0 2-1 1h1a1 1 0 0 0 0-1Zm0 2-1 1 1 1v-2Zm0 3h-1l1 1a1 1 0 0 0 0-1Zm0 2-1 1h1v-1Zm0 2-1 1 1 1a1 1 0 0 0 0-2Zm2-187-1 1 1 1 1-1-1-1Zm0 3h-1l1 1 1-1h-1Zm0 2-1 1h2l-1-1Zm0 2-1 1h2l-1-1Zm0 3h-1l1 1 1-1h-1Zm0 2h-1l1 1 1-1h-1Zm0 2-1 1h2l-1-1Zm0 2-1 1 1 1 1-1-1-1Zm0 3h-1l1 1 1-1h-1Zm0 2-1 1h2l-1-1Zm0 2-1 1h2l-1-1Zm0 3h-1l1 1 1-1h-1Zm0 2h-1l1 1 1-1h-1Zm0 2-1 1h2l-1-1Zm0 2-1 1 1 1 1-1-1-1Zm0 3h-1l1 1 1-1h-1Zm0 2-1 1h2l-1-1Zm0 2-1 1 1 1 1-1-1-1Zm0 3h-1l1 1 1-1h-1Zm0 2-1 1h2l-1-1Zm0 2-1 1h2l-1-1Zm0 3h-1l1 1 1-1h-1Zm0 2h-1l1 1 1-1h-1Zm0 2-1 1h2l-1-1Zm0 2-1 1 1 1 1-1-1-1Zm0 3h-1l1 1 1-1h-1Zm0 2-1 1h2l-1-1Zm0 2-1 1h2l-1-1Zm0 3h-1l1 1 1-1h-1Zm0 2h-1l1 1 1-1h-1Zm0 2-1 1h2l-1-1Zm0 2-1 1 1 1 1-1-1-1Zm0 3h-1l1 1 1-1h-1Zm0 2-1 1h2l-1-1Zm0 2-1 1 1 1 1-1-1-1Zm0 3h-1l1 1 1-1h-1Zm0 2-1 1h2l-1-1Zm0 2-1 1h2l-1-1Zm0 3h-1l1 1 1-1h-1Zm0 2h-1l1 1 1-1h-1Zm0 2-1 1h2l-1-1Zm0 2-1 1 1 1 1-1-1-1Zm0 3h-1l1 1 1-1h-1Zm0 2-1 1h2l-1-1Zm0 2a1 1 0 0 0 0 1h1l-1-1Zm0 3h-1l1 1 1-1h-1Zm0 2h-1l1 1 1-1h-1Zm0 2-1 1h2l-1-1Zm0 2-1 1 1 1 1-1-1-1Zm0 3h-1l1 1 1-1h-1Zm0 2-1 1h2l-1-1Zm0 2-1 1 1 1 1-1-1-1Zm0 3h-1l1 1 1-1h-1Zm0 2-1 1a1 1 0 0 0 2 0l-1-1Zm0 2-1 1h1a1 1 0 0 0 0-1Zm0 3h-1a1 1 0 0 0 2 0h-1Zm0 2h-1l1 1 1-1h-1Zm0 2a1 1 0 0 0 0 1h1l-1-1Zm0 2a1 1 0 0 0 0 2l1-1-1-1Zm0 3a1 1 0 0 0 0 1l1-1h-1Zm0 2-1 1a1 1 0 0 0 2 0l-1-1Zm0 2a1 1 0 0 0 0 1h1l-1-1Zm0 3h-1a1 1 0 0 0 2 0h-1Zm0 2a1 1 0 0 0 0 1l1-1h-1Zm0 2-1 1a1 1 0 0 0 2 0l-1-1Zm0 2-1 1 1 1a1 1 0 0 0 0-2Zm0 3h-1a1 1 0 0 0 2 0h-1Zm0 2-1 1h2l-1-1Zm0 2a1 1 0 0 0 0 2l1-1-1-1Zm0 3a1 1 0 0 0 0 1l1-1h-1Zm0 2a1 1 0 0 0 0 1h1l-1-1Zm0 2-1 1a1 1 0 0 0 2 0l-1-1Zm0 3a1 1 0 0 0 0 1l1-1h-1Zm0 2h-1a1 1 0 0 0 2 0h-1Zm0 2a1 1 0 0 0 0 1h1l-1-1Zm0 2-1 1a1 1 0 0 0 2 0l-1-1Zm0 3h-1l1 1a1 1 0 0 0 0-1Zm0 2-1 1a1 1 0 0 0 2 0l-1-1Zm0 2-1 1h2l-1-1Zm0 3a1 1 0 0 0 0 1l1-1h-1Zm0 2a1 1 0 0 0 0 1l1-1h-1Zm0 2a1 1 0 0 0 0 1h1l-1-1Zm0 3h-1a1 1 0 0 0 2 0h-1Zm2-187v1l1-1h-1Zm0 2v1l1-1h-1Zm0 2v1h1l-1-1Zm0 2v2l1-1-1-1Zm0 3v1l1-1h-1Zm0 2v1h1l-1-1Zm0 2v1h1l-1-1Zm0 3v1l1-1h-1Zm0 2v1l1-1h-1Zm0 2v1h1l-1-1Zm0 2v2l1-1-1-1Zm0 3v1l1-1h-1Zm0 2v1h1l-1-1Zm0 2v1h1l-1-1Zm0 3v1l1-1h-1Zm0 2v1l1-1h-1Zm0 2v1h1l-1-1Zm0 3v1l1-1h-1Zm0 2v1l1-1h-1Zm0 2v1h1l-1-1Zm0 2v2l1-1-1-1Zm0 3v1l1-1h-1Zm0 2v1h1l-1-1Zm0 2v1h1l-1-1Zm0 3v1l1-1h-1Zm0 2v1l1-1h-1Zm0 2v1h1l-1-1Zm0 2v2l1-1-1-1Zm0 3v1l1-1h-1Zm0 2v1h1l-1-1Zm0 2v1h1l-1-1Zm0 3v1l1-1h-1Zm0 2v1h1l-1-1Zm0 2v1h1l-1-1Zm0 3v1l1-1h-1Zm0 2v1l1-1h-1Zm0 2v1h1l-1-1Zm0 2v2l1-1-1-1Zm0 3v1l1-1h-1Zm0 2v1h1l-1-1Zm0 2v1h1l-1-1Zm0 3v1l1-1h-1Zm0 2v1l1-1h-1Zm0 2v1h1l-1-1Zm0 2v2l1-1-1-1Zm0 3v1l1-1h-1Zm0 2v1h1l-1-1Zm0 2v1h1l-1-1Zm0 3v1l1-1h-1Zm0 2v1h1l-1-1Zm0 2v1h1l-1-1Zm0 3v1l1-1h-1Zm0 2v1l1-1h-1Zm0 2v1a1 1 0 0 0 0-1Zm0 2v2l1-1-1-1Zm0 3v1a1 1 0 0 0 0-1Zm0 2v1h1l-1-1Zm0 2v1a1 1 0 0 0 0-1Zm0 3v1l1-1h-1Zm0 2v1a1 1 0 0 0 0-1Zm0 2v1a1 1 0 0 0 0-1Zm0 2v2a1 1 0 0 0 0-2Zm0 3a1 1 0 0 0 0 1l1-1h-1Zm0 2v1h1l-1-1Zm0 2v1a1 1 0 0 0 0-1Zm0 3v1l1-1h-1Zm0 2v1a1 1 0 0 0 0-1Zm0 2v1h1l-1-1Zm0 3v1a1 1 0 0 0 0-1Zm0 2v1l1-1h-1Zm0 2v1a1 1 0 0 0 0-1Zm0 2v2a1 1 0 0 0 0-2Zm0 3v1a1 1 0 0 0 0-1Zm0 2a1 1 0 0 0 0 1h1l-1-1Zm0 2v1h1l-1-1Zm0 3v1a1 1 0 0 0 0-1Zm0 2v1l1-1h-1Zm0 2v1a1 1 0 0 0 0-1Zm0 2v2l1-1-1-1Zm0 3v1a1 1 0 0 0 0-1Zm0 2v1h1l-1-1Zm0 2v2a1 1 0 0 0 0-2Zm3-187-1 1 1 1v-2Zm0 3h-1l1 1v-1Zm0 2-1 1h1v-1Zm0 2-1 1h1v-1Zm0 3h-1l1 1v-1Zm0 2h-1l1 1v-1Zm0 2-1 1h1v-1Zm0 2-1 1 1 1v-2Zm0 3h-1l1 1v-1Zm0 2-1 1h1v-1Zm0 2-1 1h1V0Zm0 3h-1l1 1V3Zm0 2h-1l1 1V5Zm0 2-1 1h1V7Zm0 2-1 1 1 1V9Zm0 3h-1l1 1v-1Zm0 2-1 1h1v-1Zm0 2-1 1 1 1v-2Zm0 3h-1l1 1v-1Zm0 2-1 1h1v-1Zm0 2-1 1h1v-1Zm0 3h-1l1 1v-1Zm0 2h-1l1 1v-1Zm0 2-1 1h1v-1Zm0 2-1 1 1 1v-2Zm0 3h-1l1 1v-1Zm0 2-1 1h1v-1Zm0 2-1 1h1v-1Zm0 3h-1l1 1v-1Zm0 2h-1l1 1v-1Zm0 2-1 1h1v-1Zm0 2-1 1 1 1v-2Zm0 3h-1l1 1v-1Zm0 2-1 1h1v-1Zm0 2-1 1 1 1v-2Zm0 3h-1l1 1v-1Zm0 2-1 1h1v-1Zm0 2-1 1h1v-1Zm0 3h-1l1 1v-1Zm0 2h-1l1 1v-1Zm0 2-1 1h1v-1Zm0 2-1 1 1 1v-2Zm0 3h-1l1 1v-1Zm0 2-1 1h1v-1Zm0 2-1 1h1v-1Zm0 3h-1l1 1v-1Zm0 2h-1l1 1v-1Zm0 2-1 1h1v-1Zm0 2-1 1 1 1v-2Zm0 3h-1l1 1v-1Zm0 2-1 1h1v-1Zm0 2-1 1 1 1v-2Zm0 3h-1l1 1v-1Zm0 2-1 1h1v-1Zm0 2-1 1h1a1 1 0 0 0 0-1Zm0 3h-1l1 1v-1Zm0 2h-1l1 1v-1Zm0 2-1 1h1v-1Zm0 2-1 1 1 1v-2Zm0 3h-1l1 1v-1Zm0 2-1 1h1v-1Zm0 2-1 1h1v-1Zm0 3h-1l1 1v-1Zm0 2h-1l1 1v-1Zm0 2-1 1h1v-1Zm0 2-1 1 1 1a1 1 0 0 0 0-2Zm0 3h-1l1 1v-1Zm0 2-1 1h1v-1Zm0 2-1 1 1 1v-2Zm0 3h-1l1 1v-1Zm0 2-1 1h1v-1Zm0 2-1 1h1v-1Zm0 3h-1l1 1v-1Zm0 2h-1l1 1v-1Zm0 2-1 1h1v-1Zm0 2-1 1 1 1v-2Zm0 3h-1l1 1a1 1 0 0 0 0-1Zm0 2-1 1h1v-1Zm0 2-1 1h1v-1Zm0 3h-1l1 1v-1Zm0 2h-1l1 1v-1Zm0 2-1 1h1v-1Zm0 3h-1l1 1v-1Zm2-187h-1l1 1v-1Zm0 2h-1l1 1v-1Zm0 2-1 1h1v-1Zm0 2-1 1 1 1v-2Zm0 3h-1l1 1v-1Zm0 2-1 1h1v-1Zm0 2-1 1h1v-1Zm0 3h-1l1 1v-1Zm0 2h-1l1 1v-1Zm0 2-1 1h1v-1Zm0 2-1 1 1 1V1Zm0 3h-1l1 1V4Zm0 2-1 1h1V6Zm0 2-1 1h1V8Zm0 3h-1l1 1v-1Zm0 2h-1l1 1v-1Zm0 2-1 1h1v-1Zm0 3h-1l1 1v-1Zm0 2h-1l1 1v-1Zm0 2-1 1h1v-1Zm0 2-1 1 1 1v-2Zm0 3h-1l1 1v-1Zm0 2-1 1h1v-1Zm0 2-1 1h1v-1Zm0 3h-1l1 1v-1Zm0 2h-1l1 1v-1Zm0 2-1 1h1v-1Zm0 2-1 1 1 1v-2Zm0 3h-1l1 1v-1Zm0 2-1 1h1v-1Zm0 2-1 1h1v-1Zm0 3h-1l1 1v-1Zm0 2-1 1h1v-1Zm0 2-1 1h1v-1Zm0 3h-1l1 1v-1Zm0 2h-1l1 1v-1Zm0 2-1 1h1v-1Zm0 2-1 1 1 1v-2Zm0 3h-1l1 1v-1Zm0 2-1 1h1v-1Zm0 2-1 1h1v-1Zm0 3h-1l1 1v-1Zm0 2h-1l1 1v-1Zm0 2-1 1h1v-1Zm0 2-1 1 1 1v-2Zm0 3h-1l1 1v-1Zm0 2-1 1h1v-1Zm0 2-1 1h1v-1Zm0 3h-1l1 1v-1Zm0 2-1 1h1v-1Zm0 2-1 1h1v-1Zm0 3h-1l1 1v-1Zm0 2h-1l1 1v-1Zm0 2-1 1h1a1 1 0 0 0 0-1Zm0 2-1 1 1 1v-2Zm0 3h-1l1 1a1 1 0 0 0 0-1Zm0 2-1 1h1v-1Zm0 2-1 1h1a1 1 0 0 0 0-1Zm0 3h-1l1 1v-1Zm0 2h-1l1 1a1 1 0 0 0 0-1Zm0 2-1 1h1a1 1 0 0 0 0-1Zm0 2-1 1 1 1a1 1 0 0 0 0-2Zm0 3a1 1 0 0 0 0 1v-1Zm0 2-1 1h1v-1Zm0 2-1 1h1a1 1 0 0 0 0-1Zm0 3h-1l1 1v-1Zm0 2-1 1h1a1 1 0 0 0 0-1Zm0 2-1 1h1v-1Zm0 3h-1l1 1a1 1 0 0 0 0-1Zm0 2h-1l1 1v-1Zm0 2-1 1h1a1 1 0 0 0 0-1Zm0 2-1 1 1 1a1 1 0 0 0 0-2Zm0 3h-1l1 1a1 1 0 0 0 0-1Zm0 2a1 1 0 0 0 0 1v-1Zm0 2-1 1h1v-1Zm0 3h-1l1 1a1 1 0 0 0 0-1Zm0 2h-1l1 1v-1Zm0 2-1 1h1a1 1 0 0 0 0-1Zm0 2-1 1 1 1v-2Zm0 3h-1l1 1a1 1 0 0 0 0-1Zm0 2-1 1h1v-1Zm0 2-1 1 1 1a1 1 0 0 0 0-2Zm2-187v2l1-1-1-1Zm0 3v1l1-1h-1Zm0 2v1h1l-1-1Zm0 2v1h1l-1-1Zm0 3v1l1-1h-1Zm0 2v1l1-1h-1Zm0 2v1h1l-1-1Zm0 2v2l1-1-1-1Zm0 3v1l1-1h-1Zm0 2v1h1l-1-1Zm0 2v1h1l-1-1Zm0 3v1l1-1h-1Zm0 2v1l1-1h-1Zm0 2v1h1l-1-1Zm0 2v2l1-1-1-1Zm0 3v1l1-1h-1Zm0 2v1h1l-1-1Zm0 2v2l1-1-1-1Zm0 3v1l1-1h-1Zm0 2v1h1l-1-1Zm0 2v1h1l-1-1Zm0 3v1l1-1h-1Zm0 2v1l1-1h-1Zm0 2v1h1l-1-1Zm0 2v2l1-1-1-1Zm0 3v1l1-1h-1Zm0 2v1h1l-1-1Zm0 2v1h1l-1-1Zm0 3v1l1-1h-1Zm0 2v1l1-1h-1Zm0 2v1h1l-1-1Zm0 2v2l1-1-1-1Zm0 3v1l1-1h-1Zm0 2v1h1l-1-1Zm0 2v2l1-1-1-1Zm0 3v1l1-1h-1Zm0 2v1h1l-1-1Zm0 2v1h1l-1-1Zm0 3v1l1-1h-1Zm0 2v1l1-1h-1Zm0 2v1h1l-1-1Zm0 2v2l1-1-1-1Zm0 3v1l1-1h-1Zm0 2v1h1l-1-1Zm0 2v1h1l-1-1Zm0 3v1l1-1h-1Zm0 2v1l1-1h-1Zm0 2v1h1l-1-1Zm0 2v2l1-1-1-1Zm0 3v1l1-1h-1Zm0 2v1h1l-1-1Zm0 2v2l1-1-1-1Zm0 3v1l1-1h-1Zm0 2v1h1l-1-1Zm0 2v1a1 1 0 0 0 0-1Zm0 3v1l1-1h-1Zm0 2v1l1-1h-1Zm0 2v1h1l-1-1Zm0 2v2l1-1-1-1Zm0 3v1l1-1h-1Zm0 2v1h1l-1-1Zm0 2v1h1l-1-1Zm0 3v1l1-1h-1Zm0 2v1l1-1h-1Zm0 2v1h1l-1-1Zm0 2v2a1 1 0 0 0 0-2Zm0 3v1l1-1h-1Zm0 2v1h1l-1-1Zm0 2v2l1-1-1-1Zm0 3v1l1-1h-1Zm0 2v1h1l-1-1Zm0 2v1h1l-1-1Zm0 3v1l1-1h-1Zm0 2v1l1-1h-1Zm0 2v1h1l-1-1Zm0 2v2l1-1-1-1Zm0 3v1a1 1 0 0 0 0-1Zm0 2v1h1l-1-1Zm0 2v1h1l-1-1Zm0 3v1l1-1h-1Zm0 2v1l1-1h-1Zm0 2v1h1l-1-1Zm0 3v1l1-1h-1Zm2-187v1l1-1h-1Zm0 2v1l1-1h-1Zm0 2v1h1l-1-1Zm0 2v2l1-1-1-1Zm0 3v1l1-1h-1Zm0 2v1h1l-1-1Zm0 2v1h1l-1-1Zm0 3v1l1-1h-1Zm0 2v1l1-1h-1Zm0 2v1h1l-1-1Zm0 2v2l1-1-1-1Zm0 3v1l1-1h-1Zm0 2v1h1l-1-1Zm0 2v1h1l-1-1Zm0 3v1l1-1h-1Zm0 2v1l1-1h-1Zm0 2v1h1l-1-1Zm0 3v1l1-1h-1Zm0 2v1l1-1h-1Zm0 2v1h1l-1-1Zm0 2v2l1-1-1-1Zm0 3v1l1-1h-1Zm0 2v1h1l-1-1Zm0 2v1h1l-1-1Zm0 3v1l1-1h-1Zm0 2v1l1-1h-1Zm0 2v1h1l-1-1Zm0 2v2l1-1-1-1Zm0 3v1l1-1h-1Zm0 2v1h1l-1-1Zm0 2v1h1l-1-1Zm0 3v1l1-1h-1Zm0 2v1h1l-1-1Zm0 2v1h1l-1-1Zm0 3v1l1-1h-1Zm0 2v1l1-1h-1Zm0 2v1h1l-1-1Zm0 2v2l1-1-1-1Zm0 3v1l1-1h-1Zm0 2v1h1l-1-1Zm0 2a1 1 0 0 0 0 1h1l-1-1Zm0 3v1l1-1h-1Zm0 2v1l1-1h-1Zm0 2v1h1l-1-1Zm0 2v2l1-1-1-1Zm0 3v1l1-1h-1Zm0 2v1h1l-1-1Zm0 2v1h1l-1-1Zm0 3v1l1-1h-1Zm0 2v1h1l-1-1Zm0 2v1h1l-1-1Zm0 3v1l1-1h-1Zm0 2v1l1-1h-1Zm0 2v1a1 1 0 0 0 1 0l-1-1Zm0 2a1 1 0 0 0 0 2l1-1-1-1Zm0 3a1 1 0 0 0 1 0h-1Zm0 2a1 1 0 0 0 0 1h1l-1-1Zm0 2v1a1 1 0 0 0 1 0l-1-1Zm0 3a1 1 0 0 0 0 1l1-1h-1Zm0 2a1 1 0 0 0 1 0h-1Zm0 2v1a1 1 0 0 0 0-1Zm0 2v1a1 1 0 0 0 1 0l-1-1Zm0 3a1 1 0 0 0 0 1l1-1h-1Zm0 2a1 1 0 0 0 0 1h1l-1-1Zm0 2v1a1 1 0 0 0 1 0l-1-1Zm0 3a1 1 0 0 0 0 1l1-1h-1Zm0 2v1a1 1 0 0 0 1 0l-1-1Zm0 2a1 1 0 0 0 0 1h1l-1-1Zm0 3a1 1 0 0 0 1 0h-1Zm0 2a1 1 0 0 0 0 1l1-1h-1Zm0 2v1a1 1 0 0 0 1 0l-1-1Zm0 2v2a1 1 0 0 0 0-2Zm0 3a1 1 0 0 0 1 0h-1Zm0 2a1 1 0 0 0 0 1h1l-1-1Zm0 2a1 1 0 0 0 0 1h1l-1-1Zm0 3a1 1 0 0 0 1 0h-1Zm0 2a1 1 0 0 0 0 1l1-1h-1Zm0 2v1a1 1 0 0 0 1 0l-1-1Zm0 2a1 1 0 0 0 0 2l1-1-1-1Zm0 3a1 1 0 0 0 1 0h-1Zm0 2a1 1 0 0 0 0 1h1l-1-1Zm0 2v1a1 1 0 0 0 1 0l-1-1Zm3-187-1 1a1 1 0 0 0 1 0v-1Zm0 3h-1a1 1 0 0 0 1 0Zm0 2-1 1a1 1 0 0 0 1 0v-1Zm0 2-1 1a1 1 0 0 0 1 0v-1Zm0 3h-1a1 1 0 0 0 1 0Zm0 2h-1a1 1 0 0 0 1 0Zm0 2-1 1a1 1 0 0 0 1 0v-1Zm0 2-1 1a1 1 0 0 0 1 0v-1Zm0 3h-1a1 1 0 0 0 1 0Zm0 2-1 1a1 1 0 0 0 1 0v-1Zm0 2-1 1a1 1 0 0 0 1 0V0Zm0 3h-1a1 1 0 0 0 1 0Zm0 2h-1a1 1 0 0 0 1 0Zm0 2-1 1a1 1 0 0 0 1 0V7Zm0 2-1 1a1 1 0 0 0 1 0V9Zm0 3h-1a1 1 0 0 0 1 0Zm0 2-1 1a1 1 0 0 0 1 0v-1Zm0 2-1 1a1 1 0 0 0 1 0v-1Zm0 3h-1a1 1 0 0 0 1 0Zm0 2-1 1a1 1 0 0 0 1 0v-1Zm0 2-1 1a1 1 0 0 0 1 0v-1Zm0 3h-1a1 1 0 0 0 1 0Zm0 2h-1a1 1 0 0 0 1 0Zm0 2-1 1a1 1 0 0 0 1 0v-1Zm0 2-1 1a1 1 0 0 0 1 0v-1Zm0 3h-1a1 1 0 0 0 1 0Zm0 2-1 1a1 1 0 0 0 1 0v-1Zm0 2-1 1a1 1 0 0 0 1 0v-1Zm0 3h-1a1 1 0 0 0 1 0Zm0 2h-1a1 1 0 0 0 1 0Zm0 2-1 1a1 1 0 0 0 1 0v-1Zm0 2-1 1a1 1 0 0 0 1 0v-1Zm0 3h-1a1 1 0 0 0 1 0Zm0 2-1 1a1 1 0 0 0 1 0v-1Zm0 2-1 1a1 1 0 0 0 1 0v-1Zm0 3h-1a1 1 0 0 0 1 0Zm0 2-1 1a1 1 0 0 0 1 0v-1Zm0 2-1 1a1 1 0 0 0 1 0v-1Zm0 3h-1a1 1 0 0 0 1 0Zm0 2h-1a1 1 0 0 0 1 0Zm0 2-1 1a1 1 0 0 0 1 0v-1Zm0 2-1 1a1 1 0 0 0 1 0v-1Zm0 3h-1a1 1 0 0 0 1 0Zm0 2-1 1a1 1 0 0 0 1 0v-1Zm0 2-1 1a1 1 0 0 0 1 0v-1Zm0 3h-1a1 1 0 0 0 1 0Zm0 2h-1a1 1 0 0 0 1 0Zm0 2-1 1a1 1 0 0 0 1 0v-1Zm0 2-1 1a1 1 0 0 0 1 0v-1Zm0 3h-1a1 1 0 0 0 1 0Zm0 2-1 1a1 1 0 0 0 1 0v-1Zm0 2-1 1a1 1 0 0 0 1 0v-1Zm0 3h-1a1 1 0 0 0 1 0Zm0 2-1 1a1 1 0 0 0 1 0v-1Zm0 2-1 1a1 1 0 0 0 1 0v-1Zm0 3h-1a1 1 0 0 0 1 0Zm0 2h-1l1 1v-1Zm0 2-1 1a1 1 0 0 0 1 0v-1Zm0 2a1 1 0 0 0 0 2v-2Zm0 3h-1a1 1 0 0 0 1 0Zm0 2-1 1a1 1 0 0 0 1 0v-1Zm0 2-1 1a1 1 0 0 0 1 0v-1Zm0 3h-1a1 1 0 0 0 1 0Zm0 2h-1a1 1 0 0 0 1 0Zm0 2-1 1a1 1 0 0 0 1 0v-1Zm0 2-1 1a1 1 0 0 0 1 0v-1Zm0 3h-1a1 1 0 0 0 1 0Zm0 2-1 1h1v-1Zm0 2-1 1a1 1 0 0 0 1 0v-1Zm0 3a1 1 0 0 0 0 1v-1Zm0 2-1 1a1 1 0 0 0 1 0v-1Zm0 2-1 1a1 1 0 0 0 1 0v-1Zm0 3h-1a1 1 0 0 0 1 0Zm0 2h-1a1 1 0 0 0 1 0Zm0 2-1 1a1 1 0 0 0 1 0v-1Zm0 2-1 1a1 1 0 0 0 1 0v-1Zm0 3h-1a1 1 0 0 0 1 0Zm0 2-1 1a1 1 0 0 0 1 0v-1Zm0 2-1 1h1v-1Zm0 3h-1a1 1 0 0 0 1 0Zm0 2a1 1 0 0 0 0 1v-1Zm0 2-1 1a1 1 0 0 0 1 0v-1Zm0 3h-1a1 1 0 0 0 1 0Zm2-187v1l1-1h-1Zm0 2v1l1-1h-1Zm0 2v1h1l-1-1Zm0 2v2l1-1-1-1Zm0 3v1l1-1h-1Zm0 2v1h1l-1-1Zm0 2v1h1l-1-1Zm0 3v1l1-1h-1Zm0 2v1l1-1h-1Zm0 2v1h1l-1-1Zm0 2v2l1-1-1-1Zm0 3v1l1-1h-1Zm0 2v1h1l-1-1Zm0 2v1h1l-1-1Zm0 3v1l1-1h-1Zm0 2v1l1-1h-1Zm0 2v1h1l-1-1Zm0 3v1l1-1h-1Zm0 2v1l1-1h-1Zm0 2v1h1l-1-1Zm0 2v2l1-1-1-1Zm0 3v1l1-1h-1Zm0 2v1h1l-1-1Zm0 2v1h1l-1-1Zm0 3v1l1-1h-1Zm0 2v1l1-1h-1Zm0 2v1h1l-1-1Zm0 2v2l1-1-1-1Zm0 3v1l1-1h-1Zm0 2v1h1l-1-1Zm0 2v1h1l-1-1Zm0 3v1l1-1h-1Zm0 2v1h1l-1-1Zm0 2v1h1l-1-1Zm0 3v1l1-1h-1Zm0 2v1l1-1h-1Zm0 2v1h1l-1-1Zm0 2v2l1-1-1-1Zm0 3v1l1-1h-1Zm0 2v1h1l-1-1Zm0 2a1 1 0 0 0 0 1h1l-1-1Zm0 3v1l1-1h-1Zm0 2v1l1-1h-1Zm0 2v1h1l-1-1Zm0 2v2l1-1-1-1Zm0 3v1l1-1h-1Zm0 2v1h1l-1-1Zm0 2v1h1l-1-1Zm0 3v1l1-1h-1Zm0 2v1h1l-1-1Zm0 2v1h1l-1-1Zm0 3v1l1-1h-1Zm0 2v1l1-1h-1Zm0 2v1a1 1 0 0 0 1 0l-1-1Zm0 2a1 1 0 0 0 0 2l1-1-1-1Zm0 3a1 1 0 0 0 1 0h-1Zm0 2a1 1 0 0 0 0 1h1l-1-1Zm0 2v1a1 1 0 0 0 1 0l-1-1Zm0 3a1 1 0 0 0 0 1l1-1h-1Zm0 2a1 1 0 0 0 1 0h-1Zm0 2v1a1 1 0 0 0 0-1Zm0 2v1a1 1 0 0 0 1 0l-1-1Zm0 3a1 1 0 0 0 0 1l1-1h-1Zm0 2a1 1 0 0 0 0 1h1l-1-1Zm0 2v1a1 1 0 0 0 1 0l-1-1Zm0 3a1 1 0 0 0 0 1l1-1h-1Zm0 2v1a1 1 0 0 0 1 0l-1-1Zm0 2a1 1 0 0 0 0 1h1l-1-1Zm0 3a1 1 0 0 0 1 0h-1Zm0 2a1 1 0 0 0 0 1l1-1h-1Zm0 2v1a1 1 0 0 0 1 0l-1-1Zm0 2v2a1 1 0 0 0 0-2Zm0 3a1 1 0 0 0 1 0h-1Zm0 2a1 1 0 0 0 0 1h1l-1-1Zm0 2a1 1 0 0 0 0 1h1l-1-1Zm0 3a1 1 0 0 0 1 0h-1Zm0 2a1 1 0 0 0 0 1l1-1h-1Zm0 2v1a1 1 0 0 0 1 0l-1-1Zm0 2a1 1 0 0 0 0 2l1-1-1-1Zm0 3a1 1 0 0 0 1 0h-1Zm0 2a1 1 0 0 0 0 1h1l-1-1Zm0 2v1a1 1 0 0 0 1 0l-1-1Zm2-187v2l1-1-1-1Zm0 3v1l1-1h-1Zm0 2v1h1l-1-1Zm0 2v1h1l-1-1Zm0 3v1l1-1h-1Zm0 2v1l1-1h-1Zm0 2v1h1l-1-1Zm0 2v2l1-1-1-1Zm0 3v1l1-1h-1Zm0 2v1h1l-1-1Zm0 2v1h1l-1-1Zm0 3v1l1-1h-1Zm0 2v1l1-1h-1Zm0 2v1h1l-1-1Zm0 2v2l1-1-1-1Zm0 3v1l1-1h-1Zm0 2v1h1l-1-1Zm0 2v2l1-1-1-1Zm0 3v1l1-1h-1Zm0 2v1h1l-1-1Zm0 2v1h1l-1-1Zm0 3v1l1-1h-1Zm0 2v1l1-1h-1Zm0 2v1h1l-1-1Zm0 2v2l1-1-1-1Zm0 3v1l1-1h-1Zm0 2v1h1l-1-1Zm0 2v1h1l-1-1Zm0 3v1l1-1h-1Zm0 2v1l1-1h-1Zm0 2v1h1l-1-1Zm0 2v2l1-1-1-1Zm0 3v1l1-1h-1Zm0 2v1h1l-1-1Zm0 2v2l1-1-1-1Zm0 3v1l1-1h-1Zm0 2v1h1l-1-1Zm0 2v1h1l-1-1Zm0 3v1l1-1h-1Zm0 2v1l1-1h-1Zm0 2v1h1l-1-1Zm0 2v2l1-1-1-1Zm0 3v1l1-1h-1Zm0 2v1h1l-1-1Zm0 2v1h1l-1-1Zm0 3v1l1-1h-1Zm0 2v1l1-1h-1Zm0 2v1h1l-1-1Zm0 2v2l1-1-1-1Zm0 3v1l1-1h-1Zm0 2v1h1l-1-1Zm0 2v2l1-1-1-1Zm0 3v1l1-1h-1Zm0 2v1a1 1 0 0 0 0-1Zm0 2v1a1 1 0 0 0 0-1Zm0 3v1a1 1 0 0 0 0-1Zm0 2v1l1-1h-1Zm0 2v1h1l-1-1Zm0 2a1 1 0 0 0 0 2l1-1-1-1Zm0 3v1l1-1h-1Zm0 2v1a1 1 0 0 0 0-1Zm0 2v1h1l-1-1Zm0 3v1a1 1 0 0 0 0-1Zm0 2v1l1-1h-1Zm0 2v1a1 1 0 0 0 0-1Zm0 2v2a1 1 0 0 0 0-2Zm0 3v1a1 1 0 0 0 0-1Zm0 2v1h1l-1-1Zm0 2v2l1-1-1-1Zm0 3a1 1 0 0 0 0 1l1-1h-1Zm0 2v1h1l-1-1Zm0 2v1a1 1 0 0 0 0-1Zm0 3v1l1-1h-1Zm0 2v1a1 1 0 0 0 0-1Zm0 2v1h1l-1-1Zm0 2v2a1 1 0 0 0 0-2Zm0 3v1a1 1 0 0 0 0-1Zm0 2v1a1 1 0 0 0 0-1Zm0 2v1h1l-1-1Zm0 3v1l1-1h-1Zm0 2a1 1 0 0 0 0 1l1-1h-1Zm0 2v1h1l-1-1Zm0 3v1a1 1 0 0 0 0-1Zm3-187h-1l1 1v-1Zm0 2h-1l1 1v-1Zm0 2-1 1h1v-1Zm0 2-1 1 1 1v-2Zm0 3h-1l1 1v-1Zm0 2-1 1h1v-1Zm0 2-1 1h1v-1Zm0 3h-1l1 1v-1Zm0 2h-1l1 1v-1Zm0 2-1 1h1v-1Zm0 2-1 1 1 1V1Zm0 3h-1l1 1V4Zm0 2-1 1h1V6Zm0 2-1 1h1V8Zm0 3h-1l1 1v-1Zm0 2h-1l1 1v-1Zm0 2-1 1h1v-1Zm0 3h-1l1 1v-1Zm0 2h-1l1 1v-1Zm0 2-1 1h1v-1Zm0 2-1 1 1 1v-2Zm0 3h-1l1 1v-1Zm0 2-1 1h1v-1Zm0 2-1 1h1v-1Zm0 3h-1l1 1v-1Zm0 2h-1l1 1v-1Zm0 2-1 1h1v-1Zm0 2-1 1 1 1v-2Zm0 3h-1l1 1v-1Zm0 2-1 1h1v-1Zm0 2-1 1h1v-1Zm0 3h-1l1 1v-1Zm0 2-1 1h1v-1Zm0 2-1 1h1v-1Zm0 3h-1l1 1v-1Zm0 2h-1l1 1v-1Zm0 2-1 1h1v-1Zm0 2-1 1 1 1v-2Zm0 3h-1l1 1v-1Zm0 2-1 1h1v-1Zm0 2a1 1 0 0 0 0 1v-1Zm0 3h-1l1 1v-1Zm0 2h-1l1 1v-1Zm0 2-1 1h1v-1Zm0 2-1 1 1 1v-2Zm0 3h-1l1 1v-1Zm0 2-1 1h1v-1Zm0 2-1 1h1v-1Zm0 3h-1l1 1v-1Zm0 2-1 1h1v-1Zm0 2-1 1h1v-1Zm0 3h-1l1 1v-1Zm0 2h-1l1 1v-1Zm0 2-1 1a1 1 0 0 0 1 0v-1Zm0 2a1 1 0 0 0 0 2v-2Zm0 3h-1a1 1 0 0 0 1 0Zm0 2a1 1 0 0 0 0 1v-1Zm0 2-1 1a1 1 0 0 0 1 0v-1Zm0 3a1 1 0 0 0 0 1v-1Zm0 2h-1a1 1 0 0 0 1 0Zm0 2-1 1h1a1 1 0 0 0 0-1Zm0 2-1 1a1 1 0 0 0 1 0v-1Zm0 3a1 1 0 0 0 0 1v-1Zm0 2a1 1 0 0 0 0 1v-1Zm0 2-1 1a1 1 0 0 0 1 0v-1Zm0 3a1 1 0 0 0 0 1v-1Zm0 2-1 1a1 1 0 0 0 1 0v-1Zm0 2a1 1 0 0 0 0 1v-1Zm0 3h-1a1 1 0 0 0 1 0Zm0 2a1 1 0 0 0 0 1v-1Zm0 2-1 1a1 1 0 0 0 1 0v-1Zm0 2-1 1 1 1a1 1 0 0 0 0-2Zm0 3h-1a1 1 0 0 0 1 0Zm0 2a1 1 0 0 0 0 1v-1Zm0 2a1 1 0 0 0 0 1v-1Zm0 3h-1a1 1 0 0 0 1 0Zm0 2a1 1 0 0 0 0 1v-1Zm0 2-1 1a1 1 0 0 0 1 0v-1Zm0 2a1 1 0 0 0 0 2v-2Zm0 3h-1a1 1 0 0 0 1 0Zm0 2a1 1 0 0 0 0 1v-1Zm0 2-1 1a1 1 0 0 0 1 0v-1Zm2-187-1 1 1 1 1-1-1-1Zm0 3h-1l1 1 1-1h-1Zm0 2-1 1h2l-1-1Zm0 2-1 1h2l-1-1Zm0 3h-1l1 1 1-1h-1Zm0 2h-1l1 1 1-1h-1Zm0 2-1 1h2l-1-1Zm0 2-1 1 1 1 1-1-1-1Zm0 3h-1l1 1 1-1h-1Zm0 2-1 1h2l-1-1Zm0 2-1 1h2l-1-1Zm0 3h-1l1 1 1-1h-1Zm0 2h-1l1 1 1-1h-1Zm0 2-1 1h2l-1-1Zm0 2-1 1 1 1 1-1-1-1Zm0 3h-1l1 1 1-1h-1Zm0 2-1 1h2l-1-1Zm0 2-1 1 1 1 1-1-1-1Zm0 3h-1l1 1 1-1h-1Zm0 2-1 1h2l-1-1Zm0 2-1 1h2l-1-1Zm0 3h-1l1 1 1-1h-1Zm0 2h-1l1 1 1-1h-1Zm0 2-1 1h2l-1-1Zm0 2-1 1 1 1 1-1-1-1Zm0 3h-1l1 1 1-1h-1Zm0 2-1 1h2l-1-1Zm0 2-1 1h2l-1-1Zm0 3h-1l1 1 1-1h-1Zm0 2h-1l1 1 1-1h-1Zm0 2-1 1h2l-1-1Zm0 2-1 1 1 1 1-1-1-1Zm0 3h-1l1 1 1-1h-1Zm0 2-1 1h2l-1-1Zm0 2-1 1 1 1 1-1-1-1Zm0 3h-1l1 1 1-1h-1Zm0 2-1 1h2l-1-1Zm0 2-1 1h2l-1-1Zm0 3h-1l1 1 1-1h-1Zm0 2h-1l1 1 1-1h-1Zm0 2-1 1h2l-1-1Zm0 2-1 1 1 1 1-1-1-1Zm0 3h-1l1 1 1-1h-1Zm0 2-1 1h2l-1-1Zm0 2-1 1h2l-1-1Zm0 3h-1l1 1 1-1h-1Zm0 2h-1l1 1 1-1h-1Zm0 2-1 1h2l-1-1Zm0 2-1 1 1 1 1-1-1-1Zm0 3h-1l1 1 1-1h-1Zm0 2-1 1h2l-1-1Zm0 2-1 1 1 1 1-1-1-1Zm0 3h-1l1 1 1-1h-1Zm0 2-1 1h1a1 1 0 0 0 0-1Zm0 2-1 1h1a1 1 0 0 0 0-1Zm0 3h-1l1 1a1 1 0 0 0 0-1Zm0 2h-1l1 1 1-1h-1Zm0 2-1 1h2l-1-1Zm0 2a1 1 0 0 0 0 2l1-1-1-1Zm0 3h-1l1 1 1-1h-1Zm0 2-1 1h1a1 1 0 0 0 0-1Zm0 2-1 1h2l-1-1Zm0 3h-1l1 1a1 1 0 0 0 0-1Zm0 2h-1l1 1 1-1h-1Zm0 2-1 1h1a1 1 0 0 0 0-1Zm0 2-1 1 1 1a1 1 0 0 0 0-2Zm0 3h-1l1 1a1 1 0 0 0 0-1Zm0 2-1 1h2l-1-1Zm0 2-1 1 1 1 1-1-1-1Zm0 3a1 1 0 0 0 0 1l1-1h-1Zm0 2-1 1h2l-1-1Zm0 2-1 1h1a1 1 0 0 0 0-1Zm0 3h-1l1 1 1-1h-1Zm0 2h-1l1 1a1 1 0 0 0 0-1Zm0 2-1 1h2l-1-1Zm0 2-1 1 1 1a1 1 0 0 0 0-2Zm0 3h-1l1 1a1 1 0 0 0 0-1Zm0 2-1 1h1a1 1 0 0 0 0-1Zm0 2-1 1h2l-1-1Zm0 3h-1l1 1 1-1h-1Zm0 2a1 1 0 0 0 0 1l1-1h-1Zm0 2-1 1h2l-1-1Zm0 3h-1l1 1a1 1 0 0 0 0-1Zm2-187v1l1-1h-1Zm0 2v1l1-1h-1Zm0 2v1h1l-1-1Zm0 2v2l1-1-1-1Zm0 3v1l1-1h-1Zm0 2v1h1l-1-1Zm0 2v1h1l-1-1Zm0 3v1l1-1h-1Zm0 2v1l1-1h-1Zm0 2v1h1l-1-1Zm0 2v2l1-1-1-1Zm0 3v1l1-1h-1Zm0 2v1h1l-1-1Zm0 2v1h1l-1-1Zm0 3v1l1-1h-1Zm0 2v1l1-1h-1Zm0 2v1h1l-1-1Zm0 3v1l1-1h-1Zm0 2v1l1-1h-1Zm0 2v1h1l-1-1Zm0 2v2l1-1-1-1Zm0 3v1l1-1h-1Zm0 2v1h1l-1-1Zm0 2v1h1l-1-1Zm0 3v1l1-1h-1Zm0 2v1l1-1h-1Zm0 2v1h1l-1-1Zm0 2v2l1-1-1-1Zm0 3v1l1-1h-1Zm0 2v1h1l-1-1Zm0 2v1h1l-1-1Zm0 3v1l1-1h-1Zm0 2v1h1l-1-1Zm0 2v1h1l-1-1Zm0 3v1l1-1h-1Zm0 2v1l1-1h-1Zm0 2v1h1l-1-1Zm0 2v2l1-1-1-1Zm0 3v1l1-1h-1Zm0 2v1h1l-1-1Zm0 2a1 1 0 0 0 0 1h1l-1-1Zm0 3v1l1-1h-1Zm0 2v1l1-1h-1Zm0 2v1h1l-1-1Zm0 2v2l1-1-1-1Zm0 3v1l1-1h-1Zm0 2v1h1l-1-1Zm0 2v1h1l-1-1Zm0 3v1l1-1h-1Zm0 2v1h1l-1-1Zm0 2v1h1l-1-1Zm0 3v1l1-1h-1Zm0 2v1l1-1h-1Zm0 2v1a1 1 0 0 0 1 0l-1-1Zm0 2a1 1 0 0 0 0 2l1-1-1-1Zm0 3a1 1 0 0 0 1 0h-1Zm0 2a1 1 0 0 0 0 1h1l-1-1Zm0 2v1a1 1 0 0 0 1 0l-1-1Zm0 3a1 1 0 0 0 0 1l1-1h-1Zm0 2a1 1 0 0 0 1 0h-1Zm0 2v1a1 1 0 0 0 0-1Zm0 2v1a1 1 0 0 0 1 0l-1-1Zm0 3a1 1 0 0 0 0 1l1-1h-1Zm0 2a1 1 0 0 0 0 1h1l-1-1Zm0 2v1a1 1 0 0 0 1 0l-1-1Zm0 3a1 1 0 0 0 0 1l1-1h-1Zm0 2v1a1 1 0 0 0 1 0l-1-1Zm0 2a1 1 0 0 0 0 1h1l-1-1Zm0 3a1 1 0 0 0 1 0h-1Zm0 2a1 1 0 0 0 0 1l1-1h-1Zm0 2v1a1 1 0 0 0 1 0l-1-1Zm0 2v2a1 1 0 0 0 0-2Zm0 3a1 1 0 0 0 1 0h-1Zm0 2a1 1 0 0 0 0 1h1l-1-1Zm0 2a1 1 0 0 0 0 1h1l-1-1Zm0 3a1 1 0 0 0 1 0h-1Zm0 2a1 1 0 0 0 0 1l1-1h-1Zm0 2v1a1 1 0 0 0 1 0l-1-1Zm0 2a1 1 0 0 0 0 2l1-1-1-1Zm0 3a1 1 0 0 0 1 0h-1Zm0 2a1 1 0 0 0 0 1h1l-1-1Zm0 2v1a1 1 0 0 0 1 0l-1-1Zm3-187-1 1 1 1v-2Zm0 3h-1l1 1v-1Zm0 2-1 1h1v-1Zm0 2-1 1h1v-1Zm0 3h-1l1 1v-1Zm0 2h-1l1 1v-1Zm0 2-1 1h1v-1Zm0 2-1 1 1 1v-2Zm0 3h-1l1 1v-1Zm0 2-1 1h1v-1Zm0 2-1 1h1V0Zm0 3h-1l1 1V3Zm0 2h-1l1 1V5Zm0 2-1 1h1V7Zm0 2-1 1 1 1V9Zm0 3h-1l1 1v-1Zm0 2-1 1h1v-1Zm0 2-1 1 1 1v-2Zm0 3h-1l1 1v-1Zm0 2-1 1h1v-1Zm0 2-1 1h1v-1Zm0 3h-1l1 1v-1Zm0 2h-1l1 1v-1Zm0 2-1 1h1v-1Zm0 2-1 1 1 1v-2Zm0 3h-1l1 1v-1Zm0 2-1 1h1v-1Zm0 2-1 1h1v-1Zm0 3h-1l1 1v-1Zm0 2h-1l1 1v-1Zm0 2-1 1h1v-1Zm0 2-1 1 1 1v-2Zm0 3h-1l1 1v-1Zm0 2-1 1h1v-1Zm0 2-1 1 1 1v-2Zm0 3h-1l1 1v-1Zm0 2-1 1h1v-1Zm0 2-1 1h1v-1Zm0 3h-1l1 1v-1Zm0 2h-1l1 1v-1Zm0 2-1 1h1v-1Zm0 2-1 1 1 1v-2Zm0 3h-1l1 1v-1Zm0 2-1 1h1v-1Zm0 2-1 1h1v-1Zm0 3h-1l1 1v-1Zm0 2h-1l1 1v-1Zm0 2-1 1h1v-1Zm0 2-1 1 1 1v-2Zm0 3h-1l1 1v-1Zm0 2-1 1h1v-1Zm0 2-1 1 1 1v-2Zm0 3h-1l1 1v-1Zm0 2-1 1h1a1 1 0 0 0 0-1Zm0 2-1 1h1a1 1 0 0 0 0-1Zm0 3h-1l1 1a1 1 0 0 0 0-1Zm0 2h-1l1 1v-1Zm0 2-1 1h1v-1Zm0 2a1 1 0 0 0 0 2v-2Zm0 3h-1l1 1v-1Zm0 2-1 1h1a1 1 0 0 0 0-1Zm0 2-1 1h1v-1Zm0 3h-1l1 1a1 1 0 0 0 0-1Zm0 2h-1l1 1v-1Zm0 2-1 1h1a1 1 0 0 0 0-1Zm0 2-1 1 1 1a1 1 0 0 0 0-2Zm0 3h-1l1 1a1 1 0 0 0 0-1Zm0 2-1 1h1v-1Zm0 2-1 1 1 1v-2Zm0 3a1 1 0 0 0 0 1v-1Zm0 2-1 1h1v-1Zm0 2-1 1h1a1 1 0 0 0 0-1Zm0 3h-1l1 1v-1Zm0 2h-1l1 1a1 1 0 0 0 0-1Zm0 2-1 1h1v-1Zm0 2-1 1 1 1a1 1 0 0 0 0-2Zm0 3h-1l1 1a1 1 0 0 0 0-1Zm0 2-1 1h1a1 1 0 0 0 0-1Zm0 2-1 1h1v-1Zm0 3h-1l1 1v-1Zm0 2a1 1 0 0 0 0 1v-1Zm0 2-1 1h1v-1Zm0 3h-1l1 1a1 1 0 0 0 0-1Zm2-187h-1l1 1v-1Zm0 2h-1l1 1v-1Zm0 2-1 1h1v-1Zm0 2-1 1 1 1v-2Zm0 3h-1l1 1v-1Zm0 2-1 1h1v-1Zm0 2-1 1h1v-1Zm0 3h-1l1 1v-1Zm0 2h-1l1 1v-1Zm0 2-1 1h1v-1Zm0 2-1 1 1 1V1Zm0 3h-1l1 1V4Zm0 2-1 1h1V6Zm0 2-1 1h1V8Zm0 3h-1l1 1v-1Zm0 2h-1l1 1v-1Zm0 2-1 1h1v-1Zm0 3h-1l1 1v-1Zm0 2h-1l1 1v-1Zm0 2-1 1h1v-1Zm0 2-1 1 1 1v-2Zm0 3h-1l1 1v-1Zm0 2-1 1h1v-1Zm0 2-1 1h1v-1Zm0 3h-1l1 1v-1Zm0 2h-1l1 1v-1Zm0 2-1 1h1v-1Zm0 2-1 1 1 1v-2Zm0 3h-1l1 1v-1Zm0 2-1 1h1v-1Zm0 2-1 1h1v-1Zm0 3h-1l1 1v-1Zm0 2-1 1h1v-1Zm0 2-1 1h1v-1Zm0 3h-1l1 1v-1Zm0 2h-1l1 1v-1Zm0 2-1 1h1v-1Zm0 2-1 1 1 1v-2Zm0 3h-1l1 1v-1Zm0 2-1 1h1v-1Zm0 2a1 1 0 0 0 0 1v-1Zm0 3h-1l1 1v-1Zm0 2h-1l1 1v-1Zm0 2-1 1h1v-1Zm0 2-1 1 1 1v-2Zm0 3h-1l1 1v-1Zm0 2-1 1h1v-1Zm0 2-1 1h1v-1Zm0 3h-1l1 1v-1Zm0 2-1 1h1v-1Zm0 2-1 1h1v-1Zm0 3h-1l1 1v-1Zm0 2h-1l1 1v-1Zm0 2-1 1a1 1 0 0 0 1 0v-1Zm0 2a1 1 0 0 0 0 2v-2Zm0 3h-1a1 1 0 0 0 1 0Zm0 2a1 1 0 0 0 0 1v-1Zm0 2-1 1a1 1 0 0 0 1 0v-1Zm0 3a1 1 0 0 0 0 1v-1Zm0 2h-1a1 1 0 0 0 1 0Zm0 2-1 1h1a1 1 0 0 0 0-1Zm0 2-1 1a1 1 0 0 0 1 0v-1Zm0 3a1 1 0 0 0 0 1v-1Zm0 2a1 1 0 0 0 0 1v-1Zm0 2-1 1a1 1 0 0 0 1 0v-1Zm0 3a1 1 0 0 0 0 1v-1Zm0 2-1 1a1 1 0 0 0 1 0v-1Zm0 2a1 1 0 0 0 0 1v-1Zm0 3h-1a1 1 0 0 0 1 0Zm0 2a1 1 0 0 0 0 1v-1Zm0 2-1 1a1 1 0 0 0 1 0v-1Zm0 2-1 1 1 1a1 1 0 0 0 0-2Zm0 3h-1a1 1 0 0 0 1 0Zm0 2a1 1 0 0 0 0 1v-1Zm0 2a1 1 0 0 0 0 1v-1Zm0 3h-1a1 1 0 0 0 1 0Zm0 2a1 1 0 0 0 0 1v-1Zm0 2-1 1a1 1 0 0 0 1 0v-1Zm0 2a1 1 0 0 0 0 2v-2Zm0 3h-1a1 1 0 0 0 1 0Zm0 2a1 1 0 0 0 0 1v-1Zm0 2-1 1a1 1 0 0 0 1 0v-1Zm2-187v2l1-1-1-1Zm0 3v1l1-1h-1Zm0 2v1h1l-1-1Zm0 2v1h1l-1-1Zm0 3v1l1-1h-1Zm0 2v1l1-1h-1Zm0 2v1h1l-1-1Zm0 2v2l1-1-1-1Zm0 3v1l1-1h-1Zm0 2v1h1l-1-1Zm0 2v1h1l-1-1Zm0 3v1l1-1h-1Zm0 2v1l1-1h-1Zm0 2v1h1l-1-1Zm0 2v2l1-1-1-1Zm0 3v1l1-1h-1Zm0 2v1h1l-1-1Zm0 2v2l1-1-1-1Zm0 3v1l1-1h-1Zm0 2v1h1l-1-1Zm0 2v1h1l-1-1Zm0 3v1l1-1h-1Zm0 2v1l1-1h-1Zm0 2v1h1l-1-1Zm0 2v2l1-1-1-1Zm0 3v1l1-1h-1Zm0 2v1h1l-1-1Zm0 2v1h1l-1-1Zm0 3v1l1-1h-1Zm0 2v1l1-1h-1Zm0 2v1h1l-1-1Zm0 2v2l1-1-1-1Zm0 3v1l1-1h-1Zm0 2v1h1l-1-1Zm0 2v2l1-1-1-1Zm0 3v1l1-1h-1Zm0 2v1h1l-1-1Zm0 2v1h1l-1-1Zm0 3v1l1-1h-1Zm0 2v1l1-1h-1Zm0 2v1h1l-1-1Zm0 2v2l1-1-1-1Zm0 3v1l1-1h-1Zm0 2v1h1l-1-1Zm0 2v1h1l-1-1Zm0 3v1l1-1h-1Zm0 2v1l1-1h-1Zm0 2v1h1l-1-1Zm0 2v2l1-1-1-1Zm0 3v1l1-1h-1Zm0 2v1h1l-1-1Zm0 2v2l1-1-1-1Zm0 3v1l1-1h-1Zm0 2v1a1 1 0 0 0 0-1Zm0 2v1a1 1 0 0 0 0-1Zm0 3v1a1 1 0 0 0 0-1Zm0 2v1l1-1h-1Zm0 2v1h1l-1-1Zm0 2a1 1 0 0 0 0 2l1-1-1-1Zm0 3v1l1-1h-1Zm0 2v1a1 1 0 0 0 0-1Zm0 2v1h1l-1-1Zm0 3v1a1 1 0 0 0 0-1Zm0 2v1l1-1h-1Zm0 2v1a1 1 0 0 0 0-1Zm0 2v2a1 1 0 0 0 0-2Zm0 3v1a1 1 0 0 0 0-1Zm0 2v1h1l-1-1Zm0 2v2l1-1-1-1Zm0 3a1 1 0 0 0 0 1l1-1h-1Zm0 2v1h1l-1-1Zm0 2v1a1 1 0 0 0 0-1Zm0 3v1l1-1h-1Zm0 2v1a1 1 0 0 0 0-1Zm0 2v1h1l-1-1Zm0 2v2a1 1 0 0 0 0-2Zm0 3v1a1 1 0 0 0 0-1Zm0 2v1a1 1 0 0 0 0-1Zm0 2v1h1l-1-1Zm0 3v1l1-1h-1Zm0 2a1 1 0 0 0 0 1l1-1h-1Zm0 2v1h1l-1-1Zm0 3v1a1 1 0 0 0 0-1Zm2-187v1l1-1h-1Zm0 2v1l1-1h-1Zm0 2v1h1l-1-1Zm0 2v2l1-1-1-1Zm0 3v1l1-1h-1Zm0 2v1h1l-1-1Zm0 2v1h1l-1-1Zm0 3v1l1-1h-1Zm0 2v1l1-1h-1Zm0 2v1h1l-1-1Zm0 2v2l1-1-1-1Zm0 3v1l1-1h-1Zm0 2v1h1l-1-1Zm0 2v1h1l-1-1Zm0 3v1l1-1h-1Zm0 2v1l1-1h-1Zm0 2v1h1l-1-1Zm0 3v1l1-1h-1Zm0 2v1l1-1h-1Zm0 2v1h1l-1-1Zm0 2v2l1-1-1-1Zm0 3v1l1-1h-1Zm0 2v1h1l-1-1Zm0 2v1h1l-1-1Zm0 3v1l1-1h-1Zm0 2v1l1-1h-1Zm0 2v1h1l-1-1Zm0 2v2l1-1-1-1Zm0 3v1l1-1h-1Zm0 2v1h1l-1-1Zm0 2v1h1l-1-1Zm0 3v1l1-1h-1Zm0 2v1h1l-1-1Zm0 2v1h1l-1-1Zm0 3v1l1-1h-1Zm0 2v1l1-1h-1Zm0 2v1h1l-1-1Zm0 2v2l1-1-1-1Zm0 3v1l1-1h-1Zm0 2v1h1l-1-1Zm0 2v1h1l-1-1Zm0 3v1l1-1h-1Zm0 2v1l1-1h-1Zm0 2v1h1l-1-1Zm0 2v2l1-1-1-1Zm0 3v1l1-1h-1Zm0 2v1h1l-1-1Zm0 2v1h1l-1-1Zm0 3v1l1-1h-1Zm0 2v1h1l-1-1Zm0 2v1h1l-1-1Zm0 3v1l1-1h-1Zm0 2v1l1-1h-1Zm0 2v1h1l-1-1Zm0 2v2l1-1-1-1Zm0 3v1l1-1h-1Zm0 2v1h1l-1-1Zm0 2v1h1l-1-1Zm0 3v1l1-1h-1Zm0 2v1l1-1h-1Zm0 2v1a1 1 0 0 0 0-1Zm0 2v2l1-1-1-1Zm0 3v1l1-1h-1Zm0 2v1h1l-1-1Zm0 2v1h1l-1-1Zm0 3v1l1-1h-1Zm0 2v1h1l-1-1Zm0 2v1h1l-1-1Zm0 3v1l1-1h-1Zm0 2v1l1-1h-1Zm0 2v1h1l-1-1Zm0 2v2a1 1 0 0 0 0-2Zm0 3v1l1-1h-1Zm0 2v1h1l-1-1Zm0 2v1h1l-1-1Zm0 3v1l1-1h-1Zm0 2v1l1-1h-1Zm0 2v1h1l-1-1Zm0 2v2l1-1-1-1Zm0 3v1l1-1h-1Zm0 2v1h1l-1-1Zm0 2v2l1-1-1-1Zm3-187-1 1 1 1v-2Zm0 3h-1l1 1v-1Zm0 2-1 1h1v-1Zm0 2-1 1h1v-1Zm0 3h-1l1 1v-1Zm0 2h-1l1 1v-1Zm0 2-1 1h1v-1Zm0 2-1 1 1 1v-2Zm0 3h-1l1 1v-1Zm0 2-1 1h1v-1Zm0 2-1 1h1V0Zm0 3h-1l1 1V3Zm0 2h-1l1 1V5Zm0 2-1 1h1V7Zm0 2-1 1 1 1V9Zm0 3h-1l1 1v-1Zm0 2-1 1h1v-1Zm0 2-1 1 1 1v-2Zm0 3h-1l1 1v-1Zm0 2-1 1h1v-1Zm0 2-1 1h1v-1Zm0 3h-1l1 1v-1Zm0 2h-1l1 1v-1Zm0 2-1 1h1v-1Zm0 2-1 1 1 1v-2Zm0 3h-1l1 1v-1Zm0 2-1 1h1v-1Zm0 2-1 1h1v-1Zm0 3h-1l1 1v-1Zm0 2h-1l1 1v-1Zm0 2-1 1h1v-1Zm0 2-1 1 1 1v-2Zm0 3h-1l1 1v-1Zm0 2-1 1h1v-1Zm0 2-1 1 1 1v-2Zm0 3h-1l1 1v-1Zm0 2-1 1h1v-1Zm0 2-1 1h1v-1Zm0 3h-1l1 1v-1Zm0 2h-1l1 1v-1Zm0 2-1 1h1v-1Zm0 2-1 1 1 1v-2Zm0 3h-1l1 1v-1Zm0 2-1 1h1v-1Zm0 2a1 1 0 0 0 0 1v-1Zm0 3h-1l1 1v-1Zm0 2h-1l1 1v-1Zm0 2-1 1h1v-1Zm0 2-1 1 1 1v-2Zm0 3h-1l1 1v-1Zm0 2-1 1h1v-1Zm0 2-1 1 1 1v-2Zm0 3h-1l1 1v-1Zm0 2-1 1a1 1 0 0 0 1 0v-1Zm0 2-1 1h1a1 1 0 0 0 0-1Zm0 3h-1a1 1 0 0 0 1 0Zm0 2h-1l1 1v-1Zm0 2a1 1 0 0 0 0 1v-1Zm0 2a1 1 0 0 0 0 2v-2Zm0 3a1 1 0 0 0 0 1v-1Zm0 2-1 1a1 1 0 0 0 1 0v-1Zm0 2a1 1 0 0 0 0 1v-1Zm0 3h-1a1 1 0 0 0 1 0Zm0 2a1 1 0 0 0 0 1v-1Zm0 2-1 1a1 1 0 0 0 1 0v-1Zm0 2-1 1 1 1a1 1 0 0 0 0-2Zm0 3h-1a1 1 0 0 0 1 0Zm0 2-1 1h1v-1Zm0 2a1 1 0 0 0 0 2v-2Zm0 3a1 1 0 0 0 0 1v-1Zm0 2a1 1 0 0 0 0 1v-1Zm0 2-1 1a1 1 0 0 0 1 0v-1Zm0 3a1 1 0 0 0 0 1v-1Zm0 2h-1a1 1 0 0 0 1 0Zm0 2a1 1 0 0 0 0 1v-1Zm0 2-1 1a1 1 0 0 0 1 0v-1Zm0 3h-1l1 1a1 1 0 0 0 0-1Zm0 2-1 1a1 1 0 0 0 1 0v-1Zm0 2-1 1h1v-1Zm0 3a1 1 0 0 0 0 1v-1Zm0 2a1 1 0 0 0 0 1v-1Zm0 2a1 1 0 0 0 0 1v-1Zm0 3h-1a1 1 0 0 0 1 0Zm2-187h-1a1 1 0 0 0 2 0h-1Zm0 2h-1a1 1 0 0 0 2 0h-1Zm0 2-1 1a1 1 0 0 0 2 0l-1-1Zm0 2-1 1a1 1 0 0 0 2 0l-1-1Zm0 3h-1a1 1 0 0 0 2 0h-1Zm0 2-1 1a1 1 0 0 0 2 0l-1-1Zm0 2-1 1a1 1 0 0 0 2 0l-1-1Zm0 3h-1a1 1 0 0 0 2 0h-1Zm0 2h-1a1 1 0 0 0 2 0h-1Zm0 2-1 1a1 1 0 0 0 2 0l-1-1Zm0 2-1 1a1 1 0 0 0 2 0l-1-1Zm0 3h-1a1 1 0 0 0 2 0h-1Zm0 2-1 1a1 1 0 0 0 2 0l-1-1Zm0 2-1 1a1 1 0 0 0 2 0l-1-1Zm0 3h-1a1 1 0 0 0 2 0h-1Zm0 2h-1a1 1 0 0 0 2 0h-1Zm0 2-1 1a1 1 0 0 0 2 0l-1-1Zm0 3h-1a1 1 0 0 0 2 0h-1Zm0 2h-1a1 1 0 0 0 2 0h-1Zm0 2-1 1a1 1 0 0 0 2 0l-1-1Zm0 2-1 1a1 1 0 0 0 2 0l-1-1Zm0 3h-1a1 1 0 0 0 2 0h-1Zm0 2-1 1a1 1 0 0 0 2 0l-1-1Zm0 2-1 1a1 1 0 0 0 2 0l-1-1Zm0 3h-1a1 1 0 0 0 2 0h-1Zm0 2h-1a1 1 0 0 0 2 0h-1Zm0 2-1 1a1 1 0 0 0 2 0l-1-1Zm0 2-1 1a1 1 0 0 0 2 0l-1-1Zm0 3h-1a1 1 0 0 0 2 0h-1Zm0 2-1 1a1 1 0 0 0 2 0l-1-1Zm0 2-1 1a1 1 0 0 0 2 0l-1-1Zm0 3h-1a1 1 0 0 0 2 0h-1Zm0 2-1 1a1 1 0 0 0 2 0l-1-1Zm0 2-1 1a1 1 0 0 0 2 0l-1-1Zm0 3h-1a1 1 0 0 0 2 0h-1Zm0 2h-1a1 1 0 0 0 2 0h-1Zm0 2-1 1a1 1 0 0 0 2 0l-1-1Zm0 2-1 1a1 1 0 0 0 2 0l-1-1Zm0 3h-1a1 1 0 0 0 2 0h-1Zm0 2-1 1a1 1 0 0 0 2 0l-1-1Zm0 2-1 1a1 1 0 0 0 2 0l-1-1Zm0 3h-1a1 1 0 0 0 2 0h-1Zm0 2h-1a1 1 0 0 0 2 0h-1Zm0 2-1 1a1 1 0 0 0 2 0l-1-1Zm0 2-1 1a1 1 0 0 0 2 0l-1-1Zm0 3h-1a1 1 0 0 0 2 0h-1Zm0 2-1 1a1 1 0 0 0 2 0l-1-1Zm0 2-1 1a1 1 0 0 0 2 0l-1-1Zm0 3h-1a1 1 0 0 0 2 0h-1Zm0 2-1 1a1 1 0 0 0 2 0l-1-1Zm0 2-1 1a1 1 0 0 0 2 0l-1-1Zm0 3h-1a1 1 0 0 0 2 0h-1Zm0 2h-1a1 1 0 0 0 2 0h-1Zm0 2-1 1a1 1 0 0 0 2 0l-1-1Zm0 2-1 1a1 1 0 0 0 2 0l-1-1Zm0 3h-1a1 1 0 0 0 2 0h-1Zm0 2-1 1a1 1 0 0 0 2 0l-1-1Zm0 2-1 1a1 1 0 0 0 2 0l-1-1Zm0 3h-1a1 1 0 0 0 2 0h-1Zm0 2h-1a1 1 0 0 0 2 0h-1Zm0 2-1 1a1 1 0 0 0 2 0l-1-1Zm0 2-1 1a1 1 0 0 0 2 0l-1-1Zm0 3a1 1 0 0 0 0 1l1-1h-1Zm0 2-1 1a1 1 0 0 0 2 0l-1-1Zm0 2-1 1a1 1 0 0 0 2 0l-1-1Zm0 3h-1a1 1 0 0 0 2 0h-1Zm0 2-1 1a1 1 0 0 0 2 0l-1-1Zm0 2-1 1a1 1 0 0 0 2 0l-1-1Zm0 3h-1a1 1 0 0 0 2 0h-1Zm0 2h-1a1 1 0 0 0 2 0h-1Zm0 2-1 1a1 1 0 0 0 2 0l-1-1Zm0 2-1 1a1 1 0 0 0 2 0l-1-1Zm0 3h-1a1 1 0 0 0 2 0h-1Zm0 2a1 1 0 0 0 0 1h1l-1-1Zm0 2-1 1a1 1 0 0 0 2 0l-1-1Zm0 3h-1a1 1 0 0 0 2 0h-1Zm0 2h-1a1 1 0 0 0 2 0h-1Zm0 2-1 1a1 1 0 0 0 2 0l-1-1Zm0 2-1 1a1 1 0 0 0 2 0l-1-1Zm0 3h-1a1 1 0 0 0 2 0h-1Zm0 2-1 1a1 1 0 0 0 2 0l-1-1Zm0 2-1 1a1 1 0 0 0 2 0l-1-1Zm2-187v2l1-1-1-1Zm0 3v1l1-1h-1Zm0 2v1h1l-1-1Zm0 2v1h1l-1-1Zm0 3v1l1-1h-1Zm0 2v1l1-1h-1Zm0 2v1h1l-1-1Zm0 2v2l1-1-1-1Zm0 3v1l1-1h-1Zm0 2v1h1l-1-1Zm0 2v1h1l-1-1Zm0 3v1l1-1h-1Zm0 2v1l1-1h-1Zm0 2v1h1l-1-1Zm0 2v2l1-1-1-1Zm0 3v1l1-1h-1Zm0 2v1h1l-1-1Zm0 2v2l1-1-1-1Zm0 3v1l1-1h-1Zm0 2v1h1l-1-1Zm0 2v1h1l-1-1Zm0 3v1l1-1h-1Zm0 2v1l1-1h-1Zm0 2v1h1l-1-1Zm0 2v2l1-1-1-1Zm0 3v1l1-1h-1Zm0 2v1h1l-1-1Zm0 2v1h1l-1-1Zm0 3v1l1-1h-1Zm0 2v1l1-1h-1Zm0 2v1h1l-1-1Zm0 2v2l1-1-1-1Zm0 3v1l1-1h-1Zm0 2v1h1l-1-1Zm0 2v2l1-1-1-1Zm0 3v1l1-1h-1Zm0 2v1h1l-1-1Zm0 2v1h1l-1-1Zm0 3v1l1-1h-1Zm0 2v1l1-1h-1Zm0 2v1h1l-1-1Zm0 2v2l1-1-1-1Zm0 3v1l1-1h-1Zm0 2v1h1l-1-1Zm0 2a1 1 0 0 0 0 1h1l-1-1Zm0 3v1l1-1h-1Zm0 2v1l1-1h-1Zm0 2v1h1l-1-1Zm0 2v2l1-1-1-1Zm0 3v1l1-1h-1Zm0 2v1h1l-1-1Zm0 2v2l1-1-1-1Zm0 3v1l1-1h-1Zm0 2v1a1 1 0 0 0 1 0l-1-1Zm0 2v1a1 1 0 0 0 0-1Zm0 3a1 1 0 0 0 1 0h-1Zm0 2v1l1-1h-1Zm0 2a1 1 0 0 0 0 1h1l-1-1Zm0 2a1 1 0 0 0 0 2l1-1-1-1Zm0 3a1 1 0 0 0 0 1l1-1h-1Zm0 2v1a1 1 0 0 0 1 0l-1-1Zm0 2a1 1 0 0 0 0 1h1l-1-1Zm0 3a1 1 0 0 0 1 0h-1Zm0 2a1 1 0 0 0 0 1l1-1h-1Zm0 2v1a1 1 0 0 0 1 0l-1-1Zm0 2v2a1 1 0 0 0 0-2Zm0 3a1 1 0 0 0 1 0h-1Zm0 2v1h1l-1-1Zm0 2a1 1 0 0 0 0 2l1-1-1-1Zm0 3a1 1 0 0 0 0 1l1-1h-1Zm0 2a1 1 0 0 0 0 1h1l-1-1Zm0 2v1a1 1 0 0 0 1 0l-1-1Zm0 3a1 1 0 0 0 0 1l1-1h-1Zm0 2a1 1 0 0 0 1 0h-1Zm0 2a1 1 0 0 0 0 1h1l-1-1Zm0 2v1a1 1 0 0 0 1 0l-1-1Zm0 3v1a1 1 0 0 0 0-1Zm0 2v1a1 1 0 0 0 1 0l-1-1Zm0 2v1h1l-1-1Zm0 3a1 1 0 0 0 0 1l1-1h-1Zm0 2a1 1 0 0 0 0 1l1-1h-1Zm0 2a1 1 0 0 0 0 1h1l-1-1Zm0 3a1 1 0 0 0 1 0h-1Zm3-187h-1l1 1v-1Zm0 2h-1l1 1v-1Zm0 2-1 1h1v-1Zm0 2-1 1 1 1v-2Zm0 3h-1l1 1v-1Zm0 2-1 1h1v-1Zm0 2-1 1h1v-1Zm0 3h-1l1 1v-1Zm0 2h-1l1 1v-1Zm0 2-1 1h1v-1Zm0 2-1 1 1 1V1Zm0 3h-1l1 1V4Zm0 2-1 1h1V6Zm0 2-1 1h1V8Zm0 3h-1l1 1v-1Zm0 2h-1l1 1v-1Zm0 2-1 1h1v-1Zm0 3h-1l1 1v-1Zm0 2h-1l1 1v-1Zm0 2-1 1h1v-1Zm0 2-1 1 1 1v-2Zm0 3h-1l1 1v-1Zm0 2-1 1h1v-1Zm0 2-1 1h1v-1Zm0 3h-1l1 1v-1Zm0 2h-1l1 1v-1Zm0 2-1 1h1v-1Zm0 2-1 1 1 1v-2Zm0 3h-1l1 1v-1Zm0 2-1 1h1v-1Zm0 2-1 1h1v-1Zm0 3h-1l1 1v-1Zm0 2-1 1h1v-1Zm0 2-1 1h1v-1Zm0 3h-1l1 1v-1Zm0 2h-1l1 1v-1Zm0 2-1 1h1v-1Zm0 2-1 1 1 1v-2Zm0 3h-1l1 1v-1Zm0 2-1 1h1v-1Zm0 2-1 1h1v-1Zm0 3h-1l1 1v-1Zm0 2h-1l1 1v-1Zm0 2-1 1h1v-1Zm0 2-1 1 1 1v-2Zm0 3h-1l1 1v-1Zm0 2-1 1h1v-1Zm0 2-1 1h1v-1Zm0 3h-1l1 1v-1Zm0 2-1 1h1v-1Zm0 2-1 1h1v-1Zm0 3h-1l1 1v-1Zm0 2h-1l1 1v-1Zm0 2-1 1h1a1 1 0 0 0 0-1Zm0 2-1 1 1 1v-2Zm0 3h-1l1 1a1 1 0 0 0 0-1Zm0 2-1 1h1v-1Zm0 2-1 1h1a1 1 0 0 0 0-1Zm0 3h-1l1 1v-1Zm0 2h-1l1 1a1 1 0 0 0 0-1Zm0 2-1 1h1a1 1 0 0 0 0-1Zm0 2-1 1 1 1a1 1 0 0 0 0-2Zm0 3a1 1 0 0 0 0 1v-1Zm0 2-1 1h1v-1Zm0 2-1 1h1a1 1 0 0 0 0-1Zm0 3h-1l1 1v-1Zm0 2-1 1h1a1 1 0 0 0 0-1Zm0 2-1 1h1v-1Zm0 3h-1l1 1a1 1 0 0 0 0-1Zm0 2h-1l1 1v-1Zm0 2-1 1h1a1 1 0 0 0 0-1Zm0 2-1 1 1 1a1 1 0 0 0 0-2Zm0 3h-1l1 1a1 1 0 0 0 0-1Zm0 2a1 1 0 0 0 0 1v-1Zm0 2-1 1h1v-1Zm0 3h-1l1 1a1 1 0 0 0 0-1Zm0 2h-1l1 1v-1Zm0 2-1 1h1a1 1 0 0 0 0-1Zm0 2-1 1 1 1v-2Zm0 3h-1l1 1a1 1 0 0 0 0-1Zm0 2-1 1h1v-1Zm0 2-1 1 1 1a1 1 0 0 0 0-2Zm2-187-1 1 1 1v-2Zm0 3h-1l1 1v-1Zm0 2-1 1h1v-1Zm0 2-1 1h1v-1Zm0 3h-1l1 1v-1Zm0 2h-1l1 1v-1Zm0 2-1 1h1v-1Zm0 2-1 1 1 1v-2Zm0 3h-1l1 1v-1Zm0 2-1 1h1v-1Zm0 2-1 1h1V0Zm0 3h-1l1 1V3Zm0 2h-1l1 1V5Zm0 2-1 1h1V7Zm0 2-1 1 1 1V9Zm0 3h-1l1 1v-1Zm0 2-1 1h1v-1Zm0 2-1 1 1 1v-2Zm0 3h-1l1 1v-1Zm0 2-1 1h1v-1Zm0 2-1 1h1v-1Zm0 3h-1l1 1v-1Zm0 2h-1l1 1v-1Zm0 2-1 1h1v-1Zm0 2-1 1 1 1v-2Zm0 3h-1l1 1v-1Zm0 2-1 1h1v-1Zm0 2-1 1h1v-1Zm0 3h-1l1 1v-1Zm0 2h-1l1 1v-1Zm0 2-1 1h1v-1Zm0 2-1 1 1 1v-2Zm0 3h-1l1 1v-1Zm0 2-1 1h1v-1Zm0 2-1 1 1 1v-2Zm0 3h-1l1 1v-1Zm0 2-1 1h1v-1Zm0 2-1 1h1v-1Zm0 3h-1l1 1v-1Zm0 2h-1l1 1v-1Zm0 2-1 1h1v-1Zm0 2-1 1 1 1v-2Zm0 3h-1l1 1v-1Zm0 2-1 1h1v-1Zm0 2a1 1 0 0 0 0 1v-1Zm0 3h-1l1 1v-1Zm0 2h-1l1 1v-1Zm0 2-1 1h1v-1Zm0 2-1 1 1 1v-2Zm0 3h-1l1 1v-1Zm0 2-1 1h1v-1Zm0 2-1 1 1 1v-2Zm0 3h-1l1 1v-1Zm0 2-1 1a1 1 0 0 0 1 0v-1Zm0 2-1 1h1a1 1 0 0 0 0-1Zm0 3h-1a1 1 0 0 0 1 0Zm0 2h-1l1 1v-1Zm0 2a1 1 0 0 0 0 1v-1Zm0 2a1 1 0 0 0 0 2v-2Zm0 3a1 1 0 0 0 0 1v-1Zm0 2-1 1a1 1 0 0 0 1 0v-1Zm0 2a1 1 0 0 0 0 1v-1Zm0 3h-1a1 1 0 0 0 1 0Zm0 2a1 1 0 0 0 0 1v-1Zm0 2-1 1a1 1 0 0 0 1 0v-1Zm0 2-1 1 1 1a1 1 0 0 0 0-2Zm0 3h-1a1 1 0 0 0 1 0Zm0 2-1 1h1v-1Zm0 2a1 1 0 0 0 0 2v-2Zm0 3a1 1 0 0 0 0 1v-1Zm0 2a1 1 0 0 0 0 1v-1Zm0 2-1 1a1 1 0 0 0 1 0v-1Zm0 3a1 1 0 0 0 0 1v-1Zm0 2h-1a1 1 0 0 0 1 0Zm0 2a1 1 0 0 0 0 1v-1Zm0 2-1 1a1 1 0 0 0 1 0v-1Zm0 3h-1l1 1a1 1 0 0 0 0-1Zm0 2-1 1a1 1 0 0 0 1 0v-1Zm0 2-1 1h1v-1Zm0 3a1 1 0 0 0 0 1v-1Zm0 2a1 1 0 0 0 0 1v-1Zm0 2a1 1 0 0 0 0 1v-1Zm0 3h-1a1 1 0 0 0 1 0Zm2-187v1l1-1h-1Zm0 2v1l1-1h-1Zm0 2v1h1l-1-1Zm0 2v2l1-1-1-1Zm0 3v1l1-1h-1Zm0 2v1h1l-1-1Zm0 2v1h1l-1-1Zm0 3v1l1-1h-1Zm0 2v1l1-1h-1Zm0 2v1h1l-1-1Zm0 2v2l1-1-1-1Zm0 3v1l1-1h-1Zm0 2v1h1l-1-1Zm0 2v1h1l-1-1Zm0 3v1l1-1h-1Zm0 2v1l1-1h-1Zm0 2v1h1l-1-1Zm0 3v1l1-1h-1Zm0 2v1l1-1h-1Zm0 2v1h1l-1-1Zm0 2v2l1-1-1-1Zm0 3v1l1-1h-1Zm0 2v1h1l-1-1Zm0 2v1h1l-1-1Zm0 3v1l1-1h-1Zm0 2v1l1-1h-1Zm0 2v1h1l-1-1Zm0 2v2l1-1-1-1Zm0 3v1l1-1h-1Zm0 2v1h1l-1-1Zm0 2v1h1l-1-1Zm0 3v1l1-1h-1Zm0 2v1h1l-1-1Zm0 2v1h1l-1-1Zm0 3v1l1-1h-1Zm0 2v1l1-1h-1Zm0 2v1h1l-1-1Zm0 2v2l1-1-1-1Zm0 3v1l1-1h-1Zm0 2v1h1l-1-1Zm0 2v1h1l-1-1Zm0 3v1l1-1h-1Zm0 2v1l1-1h-1Zm0 2v1h1l-1-1Zm0 2v2l1-1-1-1Zm0 3v1l1-1h-1Zm0 2v1h1l-1-1Zm0 2v1h1l-1-1Zm0 3v1l1-1h-1Zm0 2v1h1l-1-1Zm0 2v1h1l-1-1Zm0 3v1l1-1h-1Zm0 2v1l1-1h-1Zm0 2v1a1 1 0 0 0 0-1Zm0 2v2l1-1-1-1Zm0 3v1a1 1 0 0 0 0-1Zm0 2v1h1l-1-1Zm0 2v1a1 1 0 0 0 0-1Zm0 3v1l1-1h-1Zm0 2v1a1 1 0 0 0 0-1Zm0 2v1a1 1 0 0 0 0-1Zm0 2v2a1 1 0 0 0 0-2Zm0 3a1 1 0 0 0 0 1l1-1h-1Zm0 2v1h1l-1-1Zm0 2v1a1 1 0 0 0 0-1Zm0 3v1l1-1h-1Zm0 2v1a1 1 0 0 0 0-1Zm0 2v1h1l-1-1Zm0 3v1a1 1 0 0 0 0-1Zm0 2v1l1-1h-1Zm0 2v1a1 1 0 0 0 0-1Zm0 2v2a1 1 0 0 0 0-2Zm0 3v1a1 1 0 0 0 0-1Zm0 2a1 1 0 0 0 0 1h1l-1-1Zm0 2v1h1l-1-1Zm0 3v1a1 1 0 0 0 0-1Zm0 2v1l1-1h-1Zm0 2v1a1 1 0 0 0 0-1Zm0 2v2l1-1-1-1Zm0 3v1a1 1 0 0 0 0-1Zm0 2v1h1l-1-1Zm0 2v2a1 1 0 0 0 0-2Zm3-187-1 1 1 1v-2Zm0 3h-1l1 1v-1Zm0 2-1 1h1v-1Zm0 2-1 1h1v-1Zm0 3h-1l1 1v-1Zm0 2h-1l1 1v-1Zm0 2-1 1h1v-1Zm0 2-1 1 1 1v-2Zm0 3h-1l1 1v-1Zm0 2-1 1h1v-1Zm0 2-1 1h1V0Zm0 3h-1l1 1V3Zm0 2h-1l1 1V5Zm0 2-1 1h1V7Zm0 2-1 1 1 1V9Zm0 3h-1l1 1v-1Zm0 2-1 1h1v-1Zm0 2-1 1 1 1v-2Zm0 3h-1l1 1v-1Zm0 2-1 1h1v-1Zm0 2-1 1h1v-1Zm0 3h-1l1 1v-1Zm0 2h-1l1 1v-1Zm0 2-1 1h1v-1Zm0 2-1 1 1 1v-2Zm0 3h-1l1 1v-1Zm0 2-1 1h1v-1Zm0 2-1 1h1v-1Zm0 3h-1l1 1v-1Zm0 2h-1l1 1v-1Zm0 2-1 1h1v-1Zm0 2-1 1 1 1v-2Zm0 3h-1l1 1v-1Zm0 2-1 1h1v-1Zm0 2-1 1 1 1v-2Zm0 3h-1l1 1v-1Zm0 2-1 1h1v-1Zm0 2-1 1h1v-1Zm0 3h-1l1 1v-1Zm0 2h-1l1 1v-1Zm0 2-1 1h1v-1Zm0 2-1 1 1 1v-2Zm0 3h-1l1 1v-1Zm0 2-1 1h1v-1Zm0 2a1 1 0 0 0 0 1v-1Zm0 3h-1l1 1v-1Zm0 2h-1l1 1v-1Zm0 2-1 1h1v-1Zm0 2-1 1 1 1v-2Zm0 3h-1l1 1v-1Zm0 2-1 1h1v-1Zm0 2-1 1 1 1v-2Zm0 3h-1l1 1v-1Zm0 2-1 1a1 1 0 0 0 1 0v-1Zm0 2-1 1h1a1 1 0 0 0 0-1Zm0 3h-1a1 1 0 0 0 1 0Zm0 2h-1l1 1v-1Zm0 2a1 1 0 0 0 0 1v-1Zm0 2a1 1 0 0 0 0 2v-2Zm0 3a1 1 0 0 0 0 1v-1Zm0 2-1 1a1 1 0 0 0 1 0v-1Zm0 2a1 1 0 0 0 0 1v-1Zm0 3h-1a1 1 0 0 0 1 0Zm0 2a1 1 0 0 0 0 1v-1Zm0 2-1 1a1 1 0 0 0 1 0v-1Zm0 2-1 1 1 1a1 1 0 0 0 0-2Zm0 3h-1a1 1 0 0 0 1 0Zm0 2-1 1h1v-1Zm0 2a1 1 0 0 0 0 2v-2Zm0 3a1 1 0 0 0 0 1v-1Zm0 2a1 1 0 0 0 0 1v-1Zm0 2-1 1a1 1 0 0 0 1 0v-1Zm0 3a1 1 0 0 0 0 1v-1Zm0 2h-1a1 1 0 0 0 1 0Zm0 2a1 1 0 0 0 0 1v-1Zm0 2-1 1a1 1 0 0 0 1 0v-1Zm0 3h-1l1 1a1 1 0 0 0 0-1Zm0 2-1 1a1 1 0 0 0 1 0v-1Zm0 2-1 1h1v-1Zm0 3a1 1 0 0 0 0 1v-1Zm0 2a1 1 0 0 0 0 1v-1Zm0 2a1 1 0 0 0 0 1v-1Zm0 3h-1a1 1 0 0 0 1 0Z"/>
    </g>
    <path fill="#BAEAF8" d="M89 56H79v-5l2-2h3l5 7Z"/>
  </g>
  <defs>
    <clipPath id="a">
      <path fill="#fff" d="M0 1h180v180H0z"/>
    </clipPath>
  </defs>
</svg>
