<svg width="63" height="69" viewBox="0 0 63 69" fill="none" xmlns="http://www.w3.org/2000/svg">
<path d="M28.3064 68.8498C27.8988 68.8501 27.4912 68.7568 27.1232 68.5666L15.2659 62.4385C11.9013 60.6978 9.2689 58.7436 7.21287 56.4662C2.71283 51.4856 0.206741 45.09 0.162609 38.4539L0.00905857 16.6122C-0.009169 14.0914 1.61639 11.8277 4.04813 10.974L25.8078 3.37141C27.0999 2.90901 28.5414 2.9016 29.8572 3.34616L51.7096 10.6619C54.1557 11.4768 55.8107 13.7222 55.8257 16.2398L55.9792 38.0976C56.0266 44.724 53.6152 51.1487 49.1913 56.19C47.1615 58.5024 44.5549 60.4891 41.2257 62.2665L29.4826 68.5489C29.1182 68.746 28.714 68.8463 28.3064 68.8498Z" fill="url(#paint0_linear_13_1421)"/>
<path d="M25.7641 43.5759C25.1279 43.5796 24.4915 43.3508 24.0007 42.8799L17.6874 36.816C16.7125 35.8742 16.7015 34.3443 17.6652 33.3947C18.6289 32.4419 20.2029 32.4312 21.1811 33.3698L25.7238 37.7306L36.8011 26.7944C37.7681 25.8416 39.3421 25.8309 40.317 26.7695C41.2952 27.7113 41.3061 29.2445 40.3424 30.1908L27.5166 42.855C27.0331 43.333 26.4003 43.5723 25.7641 43.5759Z" fill="#035970"/>
<path d="M53 34C53 47.8071 36 64 28 64C20 64 3 47.8071 3 34C3 20.1929 5 9.00003 28 9.00003C49.6017 9.00003 53 20.1929 53 34Z" stroke="white" stroke-linecap="round" stroke-linejoin="round" stroke-dasharray="3.5 3.5"/>
<circle cx="51" cy="12" r="11.75" fill="#FCF0EE" stroke="#FAB1A5" stroke-width="0.5"/>
<path d="M54.8864 10.3409H53.9205V7.78331C53.9205 6.24856 52.646 5 51.0795 5H50.483C48.9165 5 47.642 6.24856 47.642 7.78331V10.3409H46.7045C45.7646 10.3409 45 11.1055 45 12.0455V13.75C45 16.9456 47.5999 19.5455 50.7955 19.5455C51.7266 19.5455 52.6526 19.3192 53.4731 18.891C53.7513 18.7459 53.8591 18.4027 53.7139 18.1244C53.5688 17.8462 53.2255 17.7384 52.9473 17.8836C52.2791 18.2323 51.5551 18.4091 50.7955 18.4091C48.2264 18.4091 46.1364 16.319 46.1364 13.75V12.0455C46.1364 11.7322 46.3913 11.4773 46.7045 11.4773H54.8864C55.1996 11.4773 55.4545 11.7322 55.4545 12.0455V13.75C55.4545 14.5794 55.234 15.3936 54.8169 16.1044C54.658 16.3751 54.7486 16.7232 55.0193 16.882C55.29 17.0409 55.6381 16.9502 55.7969 16.6796C56.3164 15.7946 56.5909 14.7815 56.5909 13.75V12.0455C56.5909 11.1055 55.8263 10.3409 54.8864 10.3409ZM48.7784 7.78331C48.7784 6.87522 49.543 6.13636 50.483 6.13636H51.0795C52.0195 6.13636 52.7841 6.87522 52.7841 7.78331V10.3409H48.7784V7.78331ZM50.2263 16.0795V14.8323C49.9364 14.6452 49.7443 14.3195 49.7443 13.9489C49.7443 13.3684 50.215 12.8977 50.7955 12.8977C51.376 12.8977 51.8466 13.3684 51.8466 13.9489C51.8466 14.3204 51.6536 14.6468 51.3626 14.8337V16.0795C51.3626 16.3934 51.1082 16.6477 50.7945 16.6477C50.4806 16.6477 50.2263 16.3934 50.2263 16.0795Z" fill="#F2385A"/>
<defs>
<linearGradient id="paint0_linear_13_1421" x1="27.9783" y1="3.01848" x2="27" y2="106.5" gradientUnits="userSpaceOnUse">
<stop stop-color="#E1F9FF"/>
<stop offset="1" stop-color="white" stop-opacity="0.31"/>
</linearGradient>
</defs>
</svg>
