<svg width="240" height="341" viewBox="0 0 240 341" fill="none" xmlns="http://www.w3.org/2000/svg">
<mask id="mask0" style="mask-type:alpha" maskUnits="userSpaceOnUse" x="0" y="0" width="240" height="341">
<rect width="240" height="341" fill="#C4C4C4"/>
</mask>
<g mask="url(#mask0)">
<path d="M80.8046 259.339H45.5777C47.5564 257.452 49.1263 255.174 50.1887 252.647C51.2511 250.12 51.783 247.4 51.7511 244.656V240.307C51.7511 227.722 60.8425 217.521 72.0508 217.521C83.5452 217.521 92.8654 207.06 92.8654 194.158C92.8654 181.255 83.5452 170.795 72.0508 170.795H68.6465C57.4325 170.795 48.3411 160.594 48.3411 148.008C48.3411 137.502 40.7602 129 31.4057 129H-100.96C-111.373 129 -119.841 138.475 -119.841 150.168C-119.841 158.157 -115.893 165.116 -110.068 168.716H-133.297C-143.024 168.716 -150.857 176.883 -150.857 186.958C-150.857 199.054 -160.274 208.817 -171.894 208.817H-175.43C-187.342 208.817 -197 218.851 -197 231.229C-197 243.602 -187.342 253.636 -175.43 253.636C-163.81 253.636 -154.387 263.428 -154.387 275.495V279.666C-154.387 289.74 -146.531 297.908 -136.833 297.908H-55.1311C-54.5132 297.965 -53.8896 298 -53.2602 298H80.8046C83.3263 298 85.8234 297.5 88.153 296.528C90.4826 295.556 92.5992 294.131 94.3818 292.336C96.1645 290.54 97.5781 288.408 98.5421 286.062C99.5061 283.716 100.001 281.202 100 278.664C100 273.538 97.9777 268.623 94.3778 264.999C90.778 261.375 85.8955 259.339 80.8046 259.339Z" fill="url(#paint0_linear)"/>
<path d="M315.151 175.959H271.384C273.843 173.615 275.793 170.784 277.113 167.644C278.433 164.504 279.094 161.124 279.054 157.715V152.311C279.054 136.672 290.35 123.996 304.275 123.996C318.556 123.996 330.136 110.998 330.136 94.9652C330.136 78.9325 318.556 65.9346 304.275 65.9346H300.046C286.113 65.9346 274.818 53.2587 274.818 37.6196C274.818 24.5644 265.399 14 253.777 14H89.3226C76.3852 14 65.8646 25.774 65.8646 40.3037C65.8646 50.2311 70.7695 58.8773 78.0059 63.3507H49.1456C37.0612 63.3507 27.3297 73.5 27.3297 86.0184C27.3297 101.049 15.6292 113.181 1.19191 113.181H-3.20112C-18.0009 113.181 -30 125.649 -30 141.031C-30 156.405 -18.0009 168.873 -3.20112 168.873C11.2362 168.873 22.9438 181.041 22.9438 196.036V201.218C22.9438 213.736 32.7037 223.886 44.7525 223.886H146.261C147.029 223.957 147.804 224 148.586 224H315.151C318.284 224 321.387 223.378 324.281 222.171C327.175 220.963 329.805 219.193 332.02 216.962C334.235 214.73 335.991 212.081 337.189 209.166C338.386 206.251 339.002 203.127 339 199.972C339 193.604 336.487 187.496 332.015 182.992C327.542 178.489 321.476 175.959 315.151 175.959Z" fill="#D1E0F2"/>
<mask id="mask1" style="mask-type:alpha" maskUnits="userSpaceOnUse" x="36" y="54" width="184" height="185">
<path d="M168.651 54H87.3493C58.9899 54 36 77.1148 36 105.628V187.372C36 215.885 58.9899 239 87.3493 239H168.651C197.01 239 220 215.885 220 187.372V105.628C220 77.1148 197.01 54 168.651 54Z" fill="url(#paint1_linear)"/>
</mask>
<g mask="url(#mask1)">
<path d="M168.651 54H87.3493C58.9899 54 36 77.1148 36 105.628V187.372C36 215.885 58.9899 239 87.3493 239H168.651C197.01 239 220 215.885 220 187.372V105.628C220 77.1148 197.01 54 168.651 54Z" fill="url(#paint2_linear)"/>
<path opacity="0.56" d="M79.5278 164.479C113.021 164.479 140.173 137.18 140.173 103.504C140.173 69.8283 113.021 42.5287 79.5278 42.5287C46.0342 42.5287 18.8823 69.8283 18.8823 103.504C18.8823 137.18 46.0342 164.479 79.5278 164.479Z" fill="url(#paint3_linear)"/>
<path opacity="0.55" fill-rule="evenodd" clip-rule="evenodd" d="M171.688 263.341C251.297 254.121 246.372 233.906 254.602 179.976C262.833 126.047 182.784 87.1345 143.918 103.792C105.052 120.45 123.35 150.361 88.7669 179.969C54.1838 209.577 92.0797 272.584 171.681 263.333L171.688 263.341Z" fill="url(#paint4_linear)"/>
<path fill-rule="evenodd" clip-rule="evenodd" d="M130.709 95.5862L101.609 146.565L116.266 173.031L160.092 95.5862H130.709ZM115.872 173.035L131.236 198.847H185.765L171.043 173.035H115.872ZM89.103 168.732L71.6567 198.847H107.314L89.3781 168.732H89.103Z" fill="white"/>
</g>
<path d="M187.5 321.037C228.645 321.037 262 318.855 262 316.164C262 313.472 228.645 311.29 187.5 311.29C146.355 311.29 113 313.472 113 316.164C113 318.855 146.355 321.037 187.5 321.037Z" fill="#D1E0F2"/>
<path d="M151.651 265.933L149.452 265.516L139.901 315.917L142.1 316.333L151.651 265.933Z" fill="#184655"/>
<path d="M215.059 316.575H217.704L207.847 265.516L205.649 265.935L215.059 316.575Z" fill="#184655"/>
<path d="M166.622 316.575H169.267L159.41 265.516L157.212 265.935L166.622 316.575Z" fill="#184655"/>
<path d="M190.954 316.575L188.807 316.598L198.256 265.748L200.46 266.161L190.954 316.575Z" fill="#184655"/>
<path d="M181.357 196.758C190.07 197.693 201.338 198.673 212.657 217.878C225.024 238.839 218.509 270.212 208.748 278.925C198.987 287.638 167.109 298.396 140.307 282.29C140.307 282.29 124.128 272.529 132.433 256.338C145.213 231.412 143.406 226.217 149.122 216.444C154.839 206.672 162.866 194.781 181.357 196.758Z" fill="#FAE0B2"/>
<path d="M212.657 217.878C204.93 204.768 197.231 200.151 190.348 198.242C193.451 201.538 196.157 205.187 198.409 209.114C210.776 230.103 204.267 261.454 194.506 270.161C185.849 277.888 159.796 287.219 135.316 278.002C136.784 279.641 138.462 281.08 140.307 282.279C167.109 298.385 198.987 287.627 208.748 278.914C218.509 270.201 225.024 238.867 212.657 217.878Z" fill="#F7CC7F"/>
<path d="M153.394 228.658L151.156 235.371L157.977 232.686L153.394 228.658Z" fill="#F79C8D"/>
<path d="M160.43 208.672C159.971 208.672 158.73 209.108 156.906 212.541C154.578 216.92 151.173 230.165 151.173 230.165L161.331 233.933L162.634 231.168L164.781 209.89C164.781 209.89 160.555 208.666 160.43 208.672Z" fill="#3752D0"/>
<path d="M173.851 206.763C170.944 206.763 163.761 207.612 160.43 208.672C160.43 208.672 157.977 229.633 162.634 245.597C163.676 249.166 161.773 260.394 161.773 260.394L191.86 259.998C191.86 259.998 188.297 232.862 189.639 228.477C190.982 224.092 191.01 208.813 191.01 208.813L184.252 207.652C180.813 207.09 177.335 206.793 173.851 206.763Z" fill="#497DFB"/>
<path d="M177.357 299.336C177.357 299.336 176.689 306.996 175.465 309.114C174.241 311.233 175.533 314.842 175.595 315.346C175.658 315.85 178.173 316.547 182.167 316.122C186.161 315.697 186.093 314.78 185.77 313.29C185.447 311.8 183.323 309.891 183.198 308.486C183.073 307.081 184.422 301.982 184.422 301.982L177.357 299.336Z" fill="url(#paint5_linear)"/>
<path d="M165.166 254.078C165.166 254.078 144.398 252.945 139.758 255.726C135.118 258.508 140.596 264.275 140.596 264.275C140.596 264.275 157.507 271.6 185.815 273.226C192.517 273.611 193.095 255.806 191.843 254.333C190.591 252.86 165.166 254.078 165.166 254.078Z" fill="#42444C"/>
<path d="M182.694 316.706C186.807 316.269 186.297 314.258 185.963 312.74C185.759 311.783 184.575 310.655 183.872 309.59C183.067 310.233 182.128 310.688 181.125 310.922C179.267 311.488 176.723 310.355 175.103 309.709C174.68 311.438 174.49 313.216 174.536 314.995C174.593 315.493 178.553 317.142 182.694 316.706Z" fill="#355389"/>
<path d="M180.394 268.881C179.561 275.141 175.454 306.271 175.454 306.271L184.988 307.449C184.988 307.449 196.709 266.785 196.109 260.57C195.508 254.355 191.118 253.868 191.118 253.868C191.118 253.868 182.592 252.316 180.394 268.881Z" fill="#42444C"/>
<path d="M171.262 180.289C171.262 180.289 174.429 176.953 176.978 181.015C177.54 180.709 178.197 180.628 178.816 180.788C179.435 180.948 179.971 181.336 180.315 181.876C180.315 181.876 183.861 180.805 184.722 186.108C184.722 186.108 186.546 185.768 186.79 187.932C186.941 189.2 186.636 190.482 185.929 191.546C185.929 191.546 186.954 192.316 186.495 194.311C186.414 194.774 186.201 195.204 185.883 195.55C185.565 195.897 185.154 196.145 184.699 196.265C184.699 196.265 184.32 199.098 183.079 199.981C182.197 200.496 181.152 200.656 180.156 200.429C180.156 200.429 179.708 201.981 178.264 201.845C176.819 201.709 175.023 200.327 173.409 200.95C171.794 201.573 167.591 200.91 167.591 200.91C167.591 200.91 162.872 198.814 164.282 193.993C164.282 193.993 161.807 191.756 163.976 189.07C163.976 189.07 162.39 184.873 165.523 182.391C168.656 179.91 171.262 180.289 171.262 180.289Z" fill="#142766"/>
<path d="M171.794 202.961L171.228 207.216C171.228 207.216 169.942 213.345 171.596 214.524C173.25 215.702 178.621 207.04 178.621 207.04L178.054 196.276L171.794 202.961Z" fill="url(#paint6_linear)"/>
<path d="M178.236 199.755C176.87 203.431 173.618 205.692 171.313 206.553L171.794 202.944L178.026 196.248L178.236 199.755Z" fill="#FF8A83"/>
<path d="M174.23 184.94C173.444 184.671 172.608 184.579 171.781 184.669C170.955 184.759 170.158 185.03 169.448 185.463C168.739 185.895 168.133 186.479 167.673 187.172C167.214 187.865 166.913 188.65 166.792 189.473C166.522 191.281 166.369 193.105 166.333 194.934C166.242 199.902 168.814 204.734 171.069 204.734C173.324 204.734 179.567 201.522 179.788 194.469C179.924 190.107 177.748 186.153 174.23 184.94Z" fill="url(#paint7_linear)"/>
<path d="M178.122 195.019C178.122 196.112 178.847 197.002 179.748 197.002C180.649 197.002 181.368 196.112 181.368 195.019C181.368 193.925 180.643 193.036 179.748 193.036C178.853 193.036 178.122 193.925 178.122 195.019Z" fill="#F7A491"/>
<path d="M164.458 182.487C162.129 184.329 161.314 187.139 162.634 188.719C163.954 190.3 166.916 190.147 169.251 188.3C171.585 186.453 172.395 183.649 171.075 182.034C169.755 180.42 166.786 180.624 164.458 182.487Z" fill="#142766"/>
<path d="M191.339 211.147C188.506 210.094 187.152 235.354 186.773 245.75C181.787 246.232 173.108 245.75 170.944 245.597C169.925 245.518 167.585 244.662 166.571 244.532C165.75 244.389 164.915 244.349 164.084 244.413C163.897 244.447 158.708 246.56 158.26 247.025C157.694 247.591 156.221 249.053 156.476 249.682C156.731 250.31 159.308 247.931 159.308 247.931L160.589 247.217C158.997 248.764 155.966 250.803 156.402 251.545C156.838 252.288 159.563 250.203 161.501 248.792C159.801 250.299 157.75 252.99 158.232 253.409C158.713 253.828 161.025 250.667 163.546 249.772C164.486 249.438 165.415 250.339 166.152 250.469C166.776 250.623 167.423 250.659 168.061 250.577L170.791 249.806C171.726 249.891 171.749 250.435 172.689 250.639C173.783 250.871 175.573 251.115 176.961 251.449C184.971 253.404 187.64 254.282 190.093 254.282C197.559 254.299 197.99 213.646 191.339 211.147Z" fill="url(#paint8_linear)"/>
<path d="M196.676 234.862C197.202 224.211 197.129 211.068 191.135 208.847C188.773 207.964 184.609 213.277 185.357 235.077C188.552 235.343 193.248 235.553 196.676 234.862Z" fill="#3752D0"/>
<path d="M163.166 230.284H163.772L172.956 252.769L172.321 252.667L163.166 230.284Z" fill="#F79C8D"/>
<path d="M149.479 305.885C149.479 305.885 150.312 308.548 148.822 310.304C147.332 312.06 141.146 313.788 140.324 314.74C139.865 315.214 139.599 315.842 139.577 316.502L156.946 316.026L156.753 310.797L155.954 307.041L149.479 305.885Z" fill="url(#paint9_linear)"/>
<path d="M147.74 311.182C147.74 311.182 152.204 312.978 154.363 311.913C156.521 310.848 156.453 310.553 157.076 310.95C157.699 311.346 157.92 316.247 157.92 316.247L138.393 316.813C137.033 316.813 136.342 315.788 137.447 314.932C138.123 314.457 138.835 314.035 139.577 313.669C141.106 312.785 147.74 311.182 147.74 311.182Z" fill="#355389"/>
<path d="M150.136 258.967C148.794 256.134 145.74 252.48 140.37 254.69C135.271 256.797 133.872 261.975 135.486 267.272C137.101 272.569 147.746 303.721 148.137 308.027L156.634 308.083C156.634 308.083 155.088 283.417 154.708 277.452C154.329 271.713 152.459 263.856 150.136 258.967Z" fill="#42444C"/>
<path d="M136.342 230.284H164.747C165.11 230.286 165.465 230.394 165.767 230.595C166.069 230.797 166.305 231.083 166.446 231.417L175.193 252.752H190.852C190.956 252.751 191.06 252.771 191.156 252.811C191.253 252.85 191.34 252.909 191.414 252.983C191.488 253.056 191.546 253.144 191.586 253.241C191.626 253.337 191.646 253.441 191.645 253.545C191.645 253.756 191.561 253.957 191.413 254.106C191.264 254.255 191.062 254.338 190.852 254.338H146.296C145.696 254.337 145.11 254.162 144.607 253.836C144.105 253.509 143.708 253.044 143.463 252.497L134.654 232.907C134.525 232.625 134.468 232.314 134.491 232.004C134.513 231.695 134.613 231.395 134.781 231.134C134.949 230.873 135.18 230.658 135.453 230.51C135.725 230.361 136.031 230.284 136.342 230.284Z" fill="#142766"/>
<path d="M151.638 242.708C151.735 242.992 151.912 243.242 152.148 243.428C152.384 243.615 152.668 243.729 152.967 243.758C153.266 243.787 153.567 243.729 153.834 243.591C154.101 243.453 154.323 243.241 154.472 242.981C154.622 242.72 154.694 242.422 154.679 242.122C154.663 241.822 154.562 241.533 154.387 241.289C154.211 241.045 153.969 240.857 153.69 240.747C153.41 240.637 153.105 240.609 152.81 240.668C152.39 240.791 152.033 241.072 151.814 241.452C151.596 241.832 151.532 242.282 151.638 242.708Z" fill="white"/>
<path d="M232.785 282.063C232.695 280.46 232.311 278.888 231.652 277.424C230.757 275.696 229.176 274.449 227.8 273.079C225.214 270.5 223.247 267.368 222.05 263.918C221.132 261.255 220.673 258.423 219.404 255.913C218.628 254.384 217.574 253.013 216.696 251.534C214.617 248.05 213.484 243.931 210.663 241.014C210.401 242.792 210.521 244.605 211.014 246.333C211.508 248.061 212.363 249.664 213.524 251.036C214.273 251.793 214.952 252.618 215.552 253.5C216.509 255.199 216.424 257.239 216.537 259.165C216.755 262.811 217.772 266.364 219.517 269.572C221.37 272.971 224.049 275.99 225.024 279.729C225.766 282.562 225.545 285.678 227.126 288.108C227.323 288.354 227.462 288.64 227.534 288.947C227.549 289.123 227.54 289.3 227.505 289.473C227.466 289.694 227.432 289.921 227.398 290.148C227.041 292.442 226.667 295.359 228.638 297.076C230.004 298.266 231.76 298.294 232.74 296.713C233.72 295.133 233.641 292.793 233.567 291.003C233.442 288.017 233.114 285.026 232.785 282.063Z" fill="url(#paint10_linear)"/>
<path d="M236.337 280.222C235.572 277.565 234.377 275.039 233.782 272.336C233.304 269.697 233.114 267.012 233.215 264.332C233.215 261.397 233.215 258.461 233.215 255.522C233.264 253.693 233.162 251.862 232.91 250.05C232.258 246.169 230.241 242.583 229.901 238.663C229.754 236.963 229.901 235.264 229.737 233.564C229.646 232.579 229.376 231.619 228.938 230.732C228.831 230.519 228.665 230.342 228.461 230.221C228.256 230.099 228.021 230.038 227.784 230.046C227.546 230.053 227.315 230.127 227.118 230.261C226.921 230.395 226.767 230.581 226.672 230.8C225.692 232.918 225.075 235.213 225.466 237.49C225.791 238.841 226.215 240.167 226.735 241.456C228.7 247.297 227.658 253.766 229.176 259.743C229.635 261.544 230.309 263.318 230.411 265.176C230.604 269.623 227.284 273.673 227.579 278.137C227.828 281.78 230.451 284.794 231.544 288.278C232.162 290.227 232.292 292.306 232.949 294.243C233.465 295.745 234.649 297.575 236.507 297.116C238.263 296.685 237.731 295.246 237.64 293.881C237.396 289.247 237.646 284.749 236.337 280.222Z" fill="url(#paint11_linear)"/>
<path d="M240.359 282.653C240.184 281.281 240.144 279.896 240.24 278.517C240.477 277.374 240.795 276.249 241.192 275.152C241.733 273.032 242.041 270.858 242.11 268.671C242.382 264.705 242.652 260.74 242.92 256.774C243.345 250.611 243.764 244.43 244.92 238.363C245.237 236.663 245.599 234.85 244.84 233.309C244.682 232.986 244.37 232.641 244.024 232.743C243.775 232.822 243.656 233.094 243.566 233.309C241.05 240.158 240.099 247.529 237.283 254.27C236.524 255.846 235.919 257.49 235.476 259.182C235.062 261.238 235.289 263.363 235.346 265.465C235.452 268.479 235.098 271.491 234.297 274.399C233.781 275.881 233.361 277.394 233.04 278.931C232.745 280.874 232.994 282.851 233.181 284.805C233.538 288.571 233.659 292.355 233.544 296.136C233.476 298.356 235.346 298.3 236.586 296.934C237.459 295.983 237.447 294.935 237.748 293.751C238.722 289.87 240.597 286.879 240.359 282.653Z" fill="url(#paint12_linear)"/>
<path d="M228.655 288.669C227.001 286.006 223.704 284.494 222.644 281.542C222.373 280.794 222.271 279.984 221.936 279.276C221.206 277.662 219.546 276.75 217.914 276.007C217.862 275.984 217.804 275.974 217.747 275.978C217.69 275.982 217.635 276.001 217.586 276.031C217.538 276.062 217.498 276.105 217.47 276.155C217.442 276.205 217.427 276.262 217.427 276.319C217.422 276.514 217.467 276.708 217.556 276.882C217.645 277.056 217.776 277.205 217.937 277.316C219.207 278.173 220.14 279.445 220.577 280.913C221.081 282.647 220.86 284.545 221.489 286.233C222.016 287.649 223.098 288.811 223.608 290.233C224.072 291.536 224.027 292.957 224.242 294.323C224.457 295.688 225.069 297.155 226.321 297.722C230.848 299.79 229.715 290.391 228.655 288.669Z" fill="url(#paint13_linear)"/>
<path d="M247.526 287.791C247.452 289.077 247.65 290.425 247.146 291.615C246.761 292.343 246.299 293.029 245.769 293.66C244.098 296.017 243.503 299.365 240.931 300.696C240.762 300.8 240.563 300.846 240.365 300.826C240.235 300.784 240.119 300.709 240.025 300.611C239.931 300.512 239.863 300.391 239.827 300.26C239.198 298.798 239.9 297.144 240.32 295.603C240.421 295.341 240.421 295.05 240.32 294.787C240.178 294.515 239.855 294.396 239.64 294.181C239.198 293.756 239.243 293.048 239.328 292.448C239.544 290.932 239.848 289.43 240.24 287.949C240.429 287.102 240.754 286.291 241.203 285.547C241.786 284.791 242.468 284.116 243.231 283.542C246.441 280.771 248.861 277.2 250.245 273.192C250.465 272.303 250.864 271.468 251.418 270.739C252.029 270.059 253.117 269.713 253.871 270.24C254.397 270.609 252.228 274.11 251.973 274.529C251.248 275.724 251.236 276.795 250.84 278.098C249.848 281.378 247.718 284.295 247.526 287.791Z" fill="url(#paint14_linear)"/>
<path d="M245.01 289.281C245.534 288.072 245.905 286.803 246.115 285.502C246.291 284.046 246.058 282.562 246.308 281.123C246.625 279.265 247.707 277.639 248.245 275.832C248.566 274.512 248.81 273.175 248.976 271.827C249.639 267.997 251.435 264.258 250.919 260.406C250.806 259.573 250.432 258.593 249.599 258.451C248.766 258.31 248.16 259.018 247.968 259.748C247.845 260.499 247.845 261.264 247.968 262.015C248.109 264.165 247.51 266.298 246.268 268.059C245.084 269.73 243.368 270.988 242.302 272.739C240.999 274.886 240.824 277.509 240.155 279.933C238.835 284.754 235.51 288.958 234.909 293.921C234.666 295.892 235.13 298.294 236.955 299.081C242.212 301.381 243.804 292.391 245.01 289.281Z" fill="url(#paint15_linear)"/>
<path d="M235.782 295.399H223.687C223.494 295.399 223.303 295.443 223.129 295.527C222.955 295.611 222.802 295.733 222.682 295.885C222.563 296.036 222.478 296.213 222.437 296.402C222.395 296.59 222.396 296.786 222.44 296.974L226.848 315.573C226.915 315.853 227.075 316.102 227.301 316.281C227.527 316.46 227.806 316.557 228.094 316.558H242.625C242.914 316.558 243.194 316.461 243.42 316.282C243.646 316.103 243.805 315.853 243.872 315.573L248.279 296.974C248.324 296.786 248.325 296.59 248.283 296.402C248.241 296.213 248.157 296.036 248.037 295.885C247.917 295.733 247.765 295.611 247.591 295.527C247.417 295.443 247.226 295.399 247.033 295.399H235.782Z" fill="#142766"/>
<path d="M168.531 199.024L173.919 198.939C173.867 199.546 173.581 200.109 173.123 200.511C172.665 200.912 172.069 201.12 171.46 201.092C168.531 201.222 168.531 199.024 168.531 199.024Z" fill="white"/>
<path d="M50.5654 133.032C63.5402 133.032 74.0583 122.494 74.0583 109.494C74.0583 96.4935 63.5402 85.9548 50.5654 85.9548C37.5907 85.9548 27.0726 96.4935 27.0726 109.494C27.0726 122.494 37.5907 133.032 50.5654 133.032Z" fill="white"/>
<path d="M33.9672 109.029H25.3047V109.696H33.9672V109.029Z" fill="#184655"/>
<path d="M75.8852 109.029H67.2227V109.696H75.8852V109.029Z" fill="#184655"/>
<path d="M50.8666 84.3507H50.1987V93.0263H50.8666V84.3507Z" fill="#184655"/>
<path d="M50.8666 126.196H50.1987V134.872H50.8666V126.196Z" fill="#184655"/>
<path d="M51.2793 109.494C51.2806 109.637 51.2393 109.777 51.1606 109.896C51.082 110.016 50.9696 110.109 50.8377 110.164C50.7058 110.22 50.5605 110.234 50.4202 110.207C50.2798 110.179 50.1509 110.11 50.0498 110.009C49.9487 109.908 49.8799 109.779 49.8524 109.639C49.8248 109.499 49.8396 109.353 49.8949 109.221C49.9502 109.09 50.0436 108.977 50.163 108.898C50.2824 108.82 50.4226 108.779 50.5656 108.78C50.7549 108.78 50.9364 108.855 51.0702 108.989C51.2041 109.123 51.2793 109.304 51.2793 109.494Z" fill="#184655"/>
<path d="M50.5656 109.814C50.5231 109.816 50.4808 109.808 50.4414 109.793C50.4019 109.777 50.3662 109.753 50.3364 109.723L37.4572 96.8501C37.3972 96.7889 37.3636 96.7066 37.3636 96.6209C37.3636 96.5352 37.3972 96.4529 37.4572 96.3917C37.5173 96.3322 37.5985 96.2988 37.6831 96.2988C37.7677 96.2988 37.8489 96.3322 37.909 96.3917L50.7947 109.291C50.8543 109.351 50.8877 109.432 50.8877 109.516C50.8877 109.601 50.8543 109.682 50.7947 109.742C50.7633 109.769 50.7268 109.789 50.6875 109.802C50.6481 109.814 50.6066 109.818 50.5656 109.814Z" fill="#184655"/>
<path d="M54.7101 122.543C54.6819 122.53 54.6569 122.51 54.6366 122.487C54.6163 122.463 54.6012 122.435 54.5923 122.405L50.428 109.801C50.409 109.743 50.4135 109.68 50.4404 109.625C50.4672 109.57 50.5145 109.527 50.572 109.507C50.6012 109.496 50.6322 109.492 50.663 109.494C50.6939 109.497 50.724 109.505 50.7515 109.519C50.779 109.533 50.8034 109.553 50.8232 109.576C50.843 109.6 50.8578 109.628 50.8667 109.657L55.031 122.261C55.0467 122.305 55.0489 122.352 55.0374 122.396C55.026 122.441 55.0013 122.481 54.9666 122.512C54.932 122.542 54.889 122.561 54.8432 122.567C54.7974 122.572 54.7511 122.564 54.7101 122.543Z" fill="#184655"/>
<path d="M50.5655 82.0001C45.1237 81.9871 39.8005 83.5889 35.2695 86.6028C30.7385 89.6166 27.2036 93.907 25.1122 98.9308C23.0207 103.955 22.4668 109.486 23.5205 114.825C24.5741 120.164 27.1881 125.07 31.0314 128.922C34.8747 132.775 39.7746 135.4 45.1109 136.467C50.4471 137.533 55.9798 136.992 61.0086 134.913C66.0374 132.833 70.3362 129.309 73.3608 124.785C76.3855 120.261 78 114.942 78 109.5C78.0043 105.893 77.2981 102.32 75.9217 98.9863C74.5453 95.6522 72.5257 92.6218 69.9782 90.0682C67.4306 87.5146 64.4051 85.4877 61.0742 84.1034C57.7434 82.7191 54.1725 82.0044 50.5655 82.0001ZM52.0452 132.993C47.3891 133.3 42.7465 132.219 38.7055 129.885C34.6645 127.552 31.407 124.072 29.3457 119.886C27.2843 115.699 26.5118 110.995 27.1261 106.37C27.7404 101.744 29.7138 97.4048 32.7963 93.9016C35.8788 90.3984 39.9317 87.889 44.4416 86.6911C48.9515 85.4933 53.7155 85.661 58.13 87.1729C62.5446 88.6849 66.411 91.4731 69.2396 95.1844C72.0681 98.8956 73.7315 103.363 74.019 108.02C74.2171 111.103 73.8057 114.195 72.8084 117.118C71.8111 120.042 70.2475 122.741 68.2068 125.06C66.1661 127.379 63.6885 129.273 60.9154 130.635C58.1423 131.996 55.1282 132.797 52.0452 132.993Z" fill="#42444C"/>
</g>
<defs>
<linearGradient id="paint0_linear" x1="67" y1="279" x2="-14" y2="158" gradientUnits="userSpaceOnUse">
<stop stop-color="#D1E0F2"/>
<stop offset="1" stop-color="#E3E9F1"/>
</linearGradient>
<linearGradient id="paint1_linear" x1="75.0536" y1="89.5163" x2="202.382" y2="225.238" gradientUnits="userSpaceOnUse">
<stop stop-color="#EF1A1B"/>
<stop offset="0.42" stop-color="#D13043"/>
<stop offset="1" stop-color="#9F041B"/>
</linearGradient>
<linearGradient id="paint2_linear" x1="75.0536" y1="89.5163" x2="202.382" y2="225.238" gradientUnits="userSpaceOnUse">
<stop stop-color="#EF1A1B"/>
<stop offset="0.42" stop-color="#D13043"/>
<stop offset="1" stop-color="#9F041B"/>
</linearGradient>
<linearGradient id="paint3_linear" x1="63.4153" y1="84.9035" x2="114.589" y2="142.122" gradientUnits="userSpaceOnUse">
<stop stop-color="#FD8378"/>
<stop offset="1" stop-color="#DB324B"/>
</linearGradient>
<linearGradient id="paint4_linear" x1="121.848" y1="117.303" x2="151.165" y2="170.906" gradientUnits="userSpaceOnUse">
<stop stop-color="#F7B8C4"/>
<stop offset="1" stop-color="#F0022D"/>
</linearGradient>
<linearGradient id="paint5_linear" x1="181.555" y1="288.006" x2="180.309" y2="315.301" gradientUnits="userSpaceOnUse">
<stop stop-color="#FFB4A0"/>
<stop offset="1" stop-color="#FFA19A"/>
</linearGradient>
<linearGradient id="paint6_linear" x1="2548.92" y1="6952.95" x2="2766.63" y2="7172.86" gradientUnits="userSpaceOnUse">
<stop stop-color="#FFB4A0"/>
<stop offset="1" stop-color="#FFA19A"/>
</linearGradient>
<linearGradient id="paint7_linear" x1="4086.23" y1="7457.27" x2="4427.4" y2="7287.41" gradientUnits="userSpaceOnUse">
<stop stop-color="#FFB4A0"/>
<stop offset="1" stop-color="#FFA19A"/>
</linearGradient>
<linearGradient id="paint8_linear" x1="12379.9" y1="19579.8" x2="13542.4" y2="18489.8" gradientUnits="userSpaceOnUse">
<stop stop-color="#FFB4A0"/>
<stop offset="1" stop-color="#FFA19A"/>
</linearGradient>
<linearGradient id="paint9_linear" x1="4304.38" y1="5632.05" x2="4435.83" y2="6372.53" gradientUnits="userSpaceOnUse">
<stop stop-color="#FFB4A0"/>
<stop offset="1" stop-color="#FFA19A"/>
</linearGradient>
<linearGradient id="paint10_linear" x1="212.81" y1="244.475" x2="233.165" y2="295.365" gradientUnits="userSpaceOnUse">
<stop stop-color="#6EE6A0"/>
<stop offset="1" stop-color="#15C074"/>
</linearGradient>
<linearGradient id="paint11_linear" x1="5318.65" y1="36018.3" x2="1994.42" y2="30537.1" gradientUnits="userSpaceOnUse">
<stop stop-color="#6EE6A0"/>
<stop offset="1" stop-color="#15C074"/>
</linearGradient>
<linearGradient id="paint12_linear" x1="5488.25" y1="28825.9" x2="2510.41" y2="32658.6" gradientUnits="userSpaceOnUse">
<stop stop-color="#6EE6A0"/>
<stop offset="1" stop-color="#15C074"/>
</linearGradient>
<linearGradient id="paint13_linear" x1="5140.19" y1="12156.8" x2="4517.89" y2="11644.9" gradientUnits="userSpaceOnUse">
<stop stop-color="#6EE6A0"/>
<stop offset="1" stop-color="#15C074"/>
</linearGradient>
<linearGradient id="paint14_linear" x1="6428.22" y1="16840.1" x2="7171.93" y2="15873.8" gradientUnits="userSpaceOnUse">
<stop stop-color="#6EE6A0"/>
<stop offset="1" stop-color="#15C074"/>
</linearGradient>
<linearGradient id="paint15_linear" x1="7075.74" y1="20020.9" x2="7567.68" y2="22082.8" gradientUnits="userSpaceOnUse">
<stop stop-color="#6EE6A0"/>
<stop offset="1" stop-color="#15C074"/>
</linearGradient>
</defs>
</svg>
