<svg width="211" height="178" fill="none" xmlns="http://www.w3.org/2000/svg"><circle cx="106" cy="81" r="81" fill="#F1F5F8"/><path d="M110.45 138.531h-.75v11.932l.697.049c3.526.247 7.035.802 10.487 1.665l9.001 2.25a3.536 3.536 0 1 1-1.716 6.863l-9.001-2.251a53.633 53.633 0 0 0-26.01 0l-9.001 2.251a3.538 3.538 0 0 1-1.716-6.863l9-2.25a60.743 60.743 0 0 1 10.487-1.665l.698-.049v-11.932H88.823c-7.852 0-13.964 0-18.867-.401-4.985-.407-9.031-1.245-12.67-3.099a32.119 32.119 0 0 1-14.035-14.036c-1.854-3.638-2.693-7.685-3.1-12.669-.4-4.904-.401-11.015-.401-18.868v-.383c0-7.853 0-13.965.401-18.868.407-4.984 1.246-9.03 3.1-12.67a32.118 32.118 0 0 1 14.035-14.035c3.639-1.854 7.685-2.692 12.67-3.1 4.903-.4 11.014-.4 18.867-.4h34.68c7.852 0 13.964 0 18.867.4 4.984.408 9.031 1.246 12.67 3.1a32.116 32.116 0 0 1 14.035 14.036c1.854 3.638 2.692 7.685 3.1 12.67.4 4.902.401 11.014.401 18.866v.385c0 7.851-.001 13.964-.401 18.867-.408 4.984-1.246 9.031-3.1 12.669a32.117 32.117 0 0 1-14.035 14.036c-3.639 1.854-7.686 2.692-12.67 3.099-4.903.401-11.015.401-18.866.401H110.45Z" fill="#FAB1A5" stroke="url(#a)" stroke-width="1.5"/><g filter="url(#b)"><path d="M60.827 51.047 52.272 21.67c-2.108-7.235-12.137-7.81-15.057-.862l-3.796 9.033a8 8 0 0 1-4.025 4.166l-9.165 4.227c-6.814 3.142-5.942 13.09 1.313 15L51.11 61.02c6.015 1.583 11.457-4.002 9.718-9.974Z" fill="#DA6668"/><path d="M60.827 51.047 52.272 21.67c-2.108-7.235-12.137-7.81-15.057-.862l-3.796 9.033a8 8 0 0 1-4.025 4.166l-9.165 4.227c-6.814 3.142-5.942 13.09 1.313 15L51.11 61.02c6.015 1.583 11.457-4.002 9.718-9.974Z" stroke="#FAB1A5" stroke-width="2.227"/></g><path d="M191.908 130.229a19.818 19.818 0 0 1-1.119 3.872 22.716 22.716 0 0 1-17.417 13.99c-2.736.499-5.473.375-8.334-.125-12.192-2.498-20.154-14.615-17.541-26.855 2.612-12.241 14.555-20.235 26.746-17.612 4.354.874 8.335 2.997 11.445 6.245 5.475 5.121 7.838 12.99 6.22 20.485Z" fill="#20C9AD"/><path fill-rule="evenodd" clip-rule="evenodd" d="M164.194 135.753h.034a2.175 2.175 0 0 0 1.49-.651l15.617-15.772a2.182 2.182 0 0 0-1.538-3.716 2.148 2.148 0 0 0-1.546.654l-14.064 14.215-2.969-2.993a2.16 2.16 0 0 0-3.077 0 2.183 2.183 0 0 0 0 3.068l4.505 4.55.002.002a2.158 2.158 0 0 0 1.546.643Zm15.659-18.698a.714.714 0 0 0-.573.219l-15.091 15.253 15.092-15.253a.716.716 0 0 1 .572-.219Zm-20.118 11.233a.729.729 0 0 0-.572.214.745.745 0 0 0 0 1.044l4.508 4.553a.716.716 0 0 0 .001 0l-4.508-4.553a.741.741 0 0 1 .517-1.26l.054.002Z" fill="#fff"/><g clip-path="url(#c)"><path d="m100.528 97.4 18.335-31.39a1 1 0 0 0 .001-1.006 1.014 1.014 0 0 0-.873-.504h-11.822a1.69 1.69 0 0 0-1.452.83L85.731 97.849a1.675 1.675 0 0 0 1.447 2.518h8.258l-3.564 6.108a1.675 1.675 0 0 0 1.452 2.517h29.744a2.01 2.01 0 0 0 1.739-1.007l5.304-9.063a1.007 1.007 0 0 0-.867-1.51l-28.716-.01Zm6.392-29.93h7.648L97.095 97.4h-7.658l17.483-29.93Zm15.629 38.556H95.582l3.302-5.655h26.947l-3.282 5.655Z" fill="#fff"/></g><rect x="44" y="174" width="128" height="4" rx="2" fill="#FFECEF"/><path opacity=".73" fill-rule="evenodd" clip-rule="evenodd" d="M17.963 163.303c.427.104.582.63.281.949l-1.772 1.881a.191.191 0 0 0-.052.145l.192 2.577a.574.574 0 0 1-.816.561l-2.336-1.105a.192.192 0 0 0-.154-.004l-2.391.979a.573.573 0 0 1-.786-.603l.329-2.563a.192.192 0 0 0-.044-.148L8.744 164a.573.573 0 0 1 .33-.933l2.54-.48a.193.193 0 0 0 .127-.087l1.36-2.198a.573.573 0 0 1 .99.027l1.24 2.266c.026.047.07.081.122.094l2.51.614Zm.003.687a.19.19 0 0 0-.094-.316l-2.51-.614a.572.572 0 0 1-.366-.281l-1.24-2.267a.191.191 0 0 0-.33-.009l-1.36 2.198a.569.569 0 0 1-.381.261l-2.54.48a.191.191 0 0 0-.11.311l1.67 1.972a.573.573 0 0 1 .131.443l-.328 2.563a.19.19 0 0 0 .262.201l2.391-.979a.576.576 0 0 1 .462.013l2.336 1.104a.191.191 0 0 0 .273-.187l-.192-2.577a.572.572 0 0 1 .154-.435l1.772-1.881Z" fill="#DA6668"/><path opacity=".902" d="M207.872 92.21a.463.463 0 0 1-.254.758l-4.258.883a.465.465 0 0 0-.304.217l-2.222 3.738a.462.462 0 0 1-.799-.007l-2.155-3.777a.461.461 0 0 0-.3-.222l-4.242-.958a.463.463 0 0 1-.24-.762l2.926-3.217a.463.463 0 0 0 .118-.353l-.399-4.33a.462.462 0 0 1 .65-.465l3.964 1.789a.463.463 0 0 0 .373.003l3.995-1.718a.462.462 0 0 1 .642.475l-.476 4.323a.462.462 0 0 0 .112.355l2.869 3.269Z" fill="#FF768F"/><path opacity=".371" d="M10.44 69.387a.462.462 0 0 1 .779-.176l1.761 1.896a.462.462 0 0 0 .343.148l2.588-.02a.462.462 0 0 1 .407.687l-1.258 2.26a.463.463 0 0 0-.035.372l.82 2.455a.462.462 0 0 1-.528.6l-2.54-.498a.463.463 0 0 0-.364.081l-2.081 1.538a.462.462 0 0 1-.734-.316l-.31-2.57a.463.463 0 0 0-.19-.32L6.99 74.02a.462.462 0 0 1 .074-.796l2.348-1.09a.462.462 0 0 0 .246-.28l.78-2.467Z" fill="#FCD7DE"/><path opacity=".806" d="M23.852 129.214a.4.4 0 0 1-.693 0l-1.897-3.257a.402.402 0 0 0-.262-.19l-3.684-.798a.4.4 0 0 1-.214-.658l2.512-2.811a.402.402 0 0 0 .1-.308l-.38-3.75a.4.4 0 0 1 .56-.407l3.45 1.52c.102.045.22.045.323 0l3.449-1.52a.4.4 0 0 1 .56.407l-.38 3.75a.402.402 0 0 0 .1.308l2.512 2.81a.401.401 0 0 1-.214.659l-3.684.798a.402.402 0 0 0-.261.19l-1.897 3.257Z" fill="#F2385A"/><path opacity=".548" d="M134.97 14.823a.462.462 0 0 1-.484-.636l1.665-4.017a.461.461 0 0 0-.008-.373l-1.842-3.94a.463.463 0 0 1 .456-.656l4.335.342a.463.463 0 0 0 .352-.123l3.178-2.968a.462.462 0 0 1 .765.23l1.014 4.228a.467.467 0 0 0 .226.297l3.806 2.105c.31.172.319.614.017.8l-3.708 2.27a.463.463 0 0 0-.213.307l-.826 4.27a.462.462 0 0 1-.754.263l-3.306-2.825a.462.462 0 0 0-.357-.107l-4.316.534Z" fill="#FF768F"/><defs><linearGradient id="a" x1="106.163" y1="39.252" x2="106.163" y2="162.146" gradientUnits="userSpaceOnUse"><stop stop-color="#F5A79A"/><stop offset="1" stop-color="#fff" stop-opacity="0"/></linearGradient><clipPath id="c"><path fill="#fff" transform="translate(85.5 64.5)" d="M0 0h45v45H0z"/></clipPath><filter id="b" x="10.464" y="14.794" width="55.807" height="55.613" filterUnits="userSpaceOnUse" color-interpolation-filters="sRGB"><feFlood flood-opacity="0" result="BackgroundImageFix"/><feColorMatrix in="SourceAlpha" values="0 0 0 0 0 0 0 0 0 0 0 0 0 0 0 0 0 0 127 0" result="hardAlpha"/><feOffset dy="4"/><feGaussianBlur stdDeviation="2"/><feComposite in2="hardAlpha" operator="out"/><feColorMatrix values="0 0 0 0 0 0 0 0 0 0 0 0 0 0 0 0 0 0 0.25 0"/><feBlend in2="BackgroundImageFix" result="effect1_dropShadow_423:2491"/><feBlend in="SourceGraphic" in2="effect1_dropShadow_423:2491" result="shape"/></filter></defs></svg>