<svg width="170" height="144" viewBox="0 0 170 144" fill="none" xmlns="http://www.w3.org/2000/svg">
<circle cx="84.4614" cy="72" r="72" fill="#DAE4EC"/>
<path fill-rule="evenodd" clip-rule="evenodd" d="M18 65.0452L74.6564 21.1076C80.4272 16.6323 88.4959 16.6323 94.2667 21.1076L150.923 65.0452V135.714C150.923 140.132 147.341 143.714 142.923 143.714H26C21.5817 143.714 18 140.132 18 135.714V65.0452Z" fill="#77C2D7"/>
<mask id="mask0" style="mask-type:alpha" maskUnits="userSpaceOnUse" x="18" y="17" width="133" height="127">
<path fill-rule="evenodd" clip-rule="evenodd" d="M18 65.0452L74.6564 21.1076C80.4272 16.6323 88.4959 16.6323 94.2667 21.1076L150.923 65.0452V135.714C150.923 140.132 147.341 143.714 142.923 143.714H26C21.5817 143.714 18 140.132 18 135.714V65.0452Z" fill="#4690A4"/>
</mask>
<g mask="url(#mask0)">
<rect opacity="0.5" x="31.5635" y="47.7484" width="108.509" height="46.1162" fill="#67A4BA"/>
</g>
<path d="M37.489 38.1155C37.489 33.9733 40.8469 30.6155 44.989 30.6155H126.647C130.789 30.6155 134.147 33.9733 134.147 38.1155V112.353H37.489V38.1155Z" fill="white" stroke="#8EDEF4"/>
<rect x="66.8291" y="40.9665" width="37.978" height="5.42543" rx="2.71272" fill="#F2385A"/>
<rect x="53.2654" y="53.1735" width="65.1052" height="5.42543" rx="2.71272" fill="#DAE4EC"/>
<rect x="53.2654" y="65.3808" width="65.1052" height="5.42543" rx="2.71272" fill="#DAE4EC"/>
<rect x="53.2654" y="77.5881" width="65.1052" height="5.42543" rx="2.71272" fill="#DAE4EC"/>
<path d="M26 143.714H140.072L18 65.0452V135.714C18 140.132 21.5817 143.714 26 143.714Z" fill="#B2ECFC"/>
<path d="M150.923 135.714V65.0452L28.8508 143.714H142.923C147.341 143.714 150.923 140.132 150.923 135.714Z" fill="#8EDEF4"/>
<circle cx="19.3846" cy="13.8462" r="4.15385" fill="#DAE4EC"/>
<circle cx="157.846" cy="34.6154" r="4.15385" fill="#DAE4EC"/>
<circle cx="2.76923" cy="24.9231" r="2.76923" fill="#DAE4EC"/>
<circle cx="153.692" cy="22.1539" r="2.76923" fill="#DAE4EC"/>
<circle cx="167.231" cy="82.6154" r="2.76923" fill="#DAE4EC"/>
<rect opacity="0.4" x="100" y="114" width="40" height="8" rx="4" fill="#77C2D7"/>
<rect opacity="0.4" x="100" y="126" width="40" height="8" rx="4" fill="#77C2D7"/>
<path d="M169.383 121.58C169.076 123.274 168.617 124.814 168.002 126.355C164.32 135.597 156.036 142.067 146.524 143.608C143.149 144.224 139.773 144.07 136.245 143.454C121.21 140.373 111.391 125.43 114.613 110.335C117.834 95.2389 132.563 85.3802 147.598 88.6151C152.967 89.6934 157.877 92.312 161.712 96.317C168.463 102.633 171.377 112.337 169.383 121.58Z" fill="#20C9AD"/>
<path fill-rule="evenodd" clip-rule="evenodd" d="M135.904 125.8L135.92 125.8L135.937 125.799C136.486 125.784 137.005 125.556 137.387 125.166L152.586 109.817C152.782 109.619 152.936 109.386 153.041 109.13C153.146 108.874 153.2 108.6 153.2 108.323C153.2 108.047 153.146 107.773 153.041 107.517C152.937 107.265 152.786 107.034 152.594 106.839C152.401 106.639 152.17 106.479 151.913 106.369C151.653 106.258 151.372 106.2 151.089 106.2C150.805 106.2 150.525 106.258 150.264 106.369C150.008 106.479 149.778 106.638 149.585 106.837L135.897 120.671L133.008 117.758C132.613 117.359 132.075 117.133 131.511 117.133C130.947 117.133 130.408 117.36 130.013 117.758C129.619 118.157 129.4 118.694 129.4 119.251C129.4 119.809 129.619 120.346 130.013 120.744L134.398 125.172L134.399 125.173C134.595 125.372 134.828 125.53 135.086 125.638C135.345 125.746 135.623 125.801 135.904 125.8ZM151.362 107.656C151.367 107.658 151.373 107.661 151.378 107.663L151.362 107.656ZM151.089 107.6C151.171 107.6 151.252 107.615 151.329 107.643C151.252 107.615 151.171 107.6 151.089 107.6C150.995 107.6 150.902 107.619 150.816 107.656C150.729 107.693 150.651 107.747 150.586 107.815L135.898 122.66L135.898 122.66L150.586 107.815C150.651 107.747 150.729 107.693 150.816 107.656C150.902 107.619 150.995 107.6 151.089 107.6ZM131.783 118.588C131.698 118.552 131.605 118.533 131.511 118.533C131.322 118.533 131.142 118.609 131.008 118.743C130.875 118.878 130.8 119.061 130.8 119.251C130.8 119.442 130.875 119.624 131.008 119.759L135.395 124.19C135.432 124.227 135.472 124.259 135.515 124.287C135.472 124.259 135.432 124.227 135.395 124.19L131.008 119.759C130.875 119.624 130.8 119.442 130.8 119.251C130.8 119.061 130.875 118.878 131.008 118.743C131.142 118.609 131.323 118.533 131.511 118.533C131.605 118.533 131.698 118.552 131.783 118.588Z" fill="white"/>
</svg>
