<svg width="180" height="162" fill="none" xmlns="http://www.w3.org/2000/svg"><circle cx="84.462" cy="72" r="72" fill="#DAE4EC"/><path fill-rule="evenodd" clip-rule="evenodd" d="m18 65.045 56.656-43.937a16 16 0 0 1 19.61 0l56.657 43.937v70.669a8 8 0 0 1-8 8H26a8 8 0 0 1-8-8V65.045Z" fill="#77C2D7"/><mask id="a" style="mask-type:alpha" maskUnits="userSpaceOnUse" x="18" y="17" width="133" height="127"><path fill-rule="evenodd" clip-rule="evenodd" d="m18 65.045 56.656-43.937a16 16 0 0 1 19.61 0l56.657 43.937v70.669a8 8 0 0 1-8 8H26a8 8 0 0 1-8-8V65.045Z" fill="#4690A4"/></mask><g mask="url(#a)"><path opacity=".5" fill="#67A4BA" d="M31.564 47.748h108.509v46.116H31.564z"/></g><path d="M37.49 38.115a7.5 7.5 0 0 1 7.5-7.5h81.657a7.5 7.5 0 0 1 7.5 7.5v74.238H37.489V38.116Z" fill="#fff" stroke="#8EDEF4"/><rect x="66.829" y="40.967" width="37.978" height="5.425" rx="2.713" fill="#F2385A"/><rect x="53.266" y="53.174" width="65.105" height="5.425" rx="2.713" fill="#DAE4EC"/><rect x="53.266" y="65.381" width="65.105" height="5.425" rx="2.713" fill="#DAE4EC"/><rect x="53.266" y="77.588" width="65.105" height="5.425" rx="2.713" fill="#DAE4EC"/><path d="M26 143.714h114.072L18 65.045v70.669a8 8 0 0 0 8 8Z" fill="#B2ECFC"/><path d="M150.923 135.714V65.045L28.851 143.714h114.072a8 8 0 0 0 8-8Z" fill="#8EDEF4"/><circle cx="19.384" cy="13.846" r="4.154" fill="#DAE4EC"/><circle cx="157.846" cy="34.615" r="4.154" fill="#DAE4EC"/><circle cx="2.769" cy="24.923" r="2.769" fill="#DAE4EC"/><circle cx="153.692" cy="22.154" r="2.769" fill="#DAE4EC"/><circle cx="167.23" cy="82.615" r="2.769" fill="#DAE4EC"/><rect opacity=".4" x="100" y="114" width="40" height="8" rx="4" fill="#77C2D7"/><rect opacity=".4" x="100" y="126" width="40" height="8" rx="4" fill="#77C2D7"/><g filter="url(#b)"><path d="M169.383 121.58a24.4 24.4 0 0 1-1.381 4.775c-3.682 9.242-11.966 15.712-21.478 17.253-3.375.616-6.751.462-10.279-.154-15.035-3.081-24.854-18.024-21.632-33.119 3.221-15.096 17.95-24.955 32.985-21.72 5.369 1.078 10.279 3.697 14.114 7.702 6.751 6.316 9.665 16.02 7.671 25.263Z" fill="#F2385A"/></g><path d="m154 104-24 24M154 128l-24-24" stroke="#fff" stroke-width="4" stroke-linecap="round" stroke-linejoin="round"/><defs><filter id="b" x="104" y="86" width="76" height="76" filterUnits="userSpaceOnUse" color-interpolation-filters="sRGB"><feFlood flood-opacity="0" result="BackgroundImageFix"/><feColorMatrix in="SourceAlpha" values="0 0 0 0 0 0 0 0 0 0 0 0 0 0 0 0 0 0 127 0" result="hardAlpha"/><feMorphology radius="6" in="SourceAlpha" result="effect1_dropShadow_418:3279"/><feOffset dy="8"/><feGaussianBlur stdDeviation="8"/><feColorMatrix values="0 0 0 0 0.0470588 0 0 0 0 0.352941 0 0 0 0 0.439216 0 0 0 0.08 0"/><feBlend in2="BackgroundImageFix" result="effect1_dropShadow_418:3279"/><feColorMatrix in="SourceAlpha" values="0 0 0 0 0 0 0 0 0 0 0 0 0 0 0 0 0 0 127 0" result="hardAlpha"/><feMorphology radius="6" in="SourceAlpha" result="effect2_dropShadow_418:3279"/><feOffset dy="6"/><feGaussianBlur stdDeviation="4"/><feColorMatrix values="0 0 0 0 0.0470588 0 0 0 0 0.352941 0 0 0 0 0.439216 0 0 0 0.12 0"/><feBlend in2="effect1_dropShadow_418:3279" result="effect2_dropShadow_418:3279"/><feBlend in="SourceGraphic" in2="effect2_dropShadow_418:3279" result="shape"/></filter></defs></svg>