<svg width="34" height="33" viewBox="0 0 34 33" fill="none" xmlns="http://www.w3.org/2000/svg">
<path d="M17.64 25.3203V31.7203" stroke="#FAB1A5" stroke-width="1.39237" stroke-linecap="round" stroke-linejoin="round"/>
<path d="M17.64 1V7.4" stroke="#FAB1A5" stroke-width="1.39237" stroke-linecap="round" stroke-linejoin="round"/>
<path d="M20.2 16.3604H33" stroke="#FAB1A5" stroke-width="1.39237" stroke-linecap="round" stroke-linejoin="round"/>
<path d="M18.4222 7.66699H2.24445C1.55716 7.66699 1 8.22131 1 8.90509V23.7622C1 24.446 1.55716 25.0003 2.24445 25.0003H18.4222C19.1095 25.0003 19.6667 24.446 19.6667 23.7622V8.90509C19.6667 8.22131 19.1095 7.66699 18.4222 7.66699Z" stroke="#FAB1A5" stroke-width="1.39237" stroke-linecap="round" stroke-linejoin="round"/>
<path d="M5.15991 7.4C7.05628 4.7595 9.74154 2.78876 12.8292 1.77145C15.9168 0.75413 19.2476 0.742697 22.3422 1.73879C25.4367 2.73489 28.1355 4.68714 30.0499 7.31457C31.9644 9.94199 32.9958 13.1091 32.9958 16.36C32.9958 19.6109 31.9644 22.778 30.0499 25.4054C28.1355 28.0329 25.4367 29.9851 22.3422 30.9812C19.2476 31.9773 15.9168 31.9659 12.8292 30.9486C9.74154 29.9313 7.05628 27.9605 5.15991 25.32" stroke="#FAB1A5" stroke-width="1.39237" stroke-linecap="round" stroke-linejoin="round"/>
<path d="M8.76195 22.3333L9.57147 18.2857L6.33337 17.0714L12 11L11.1905 15.0476L14.4286 16.2619L8.76195 22.3333Z" stroke="#DA6668" stroke-width="1.04428" stroke-linecap="round" stroke-linejoin="round"/>
</svg>
