<svg width="143" height="160" viewBox="0 0 143 160" fill="none" xmlns="http://www.w3.org/2000/svg">
<path d="M109.994 12.615L133.276 11.6469C137.487 11.4533 141.069 14.7932 141.166 19.0044L141.989 54.9686C142.086 58.8893 139.133 62.2292 135.212 62.6649C133.905 62.8101 132.937 63.9234 132.986 65.2787L135.89 141.273C136.084 146.452 132.066 150.809 126.887 151.051L37.9201 155.02C36.5163 155.068 35.3546 154.003 35.3062 152.6L31.3371 20.6501C31.2887 19.2948 32.3052 18.1815 33.6605 18.0847L109.994 12.615Z" fill="url(#paint0_radial_2333_73246)" stroke="url(#paint1_radial_2333_73246)" stroke-width="0.402599"/>
<g opacity="0.3">
<path opacity="0.3" d="M34.9167 145.356L35.0136 147.873L130.805 139.064L128.966 7.16235C128.966 7.16235 105.732 10.6959 105.296 10.6959C104.861 10.6959 34.9167 145.356 34.9167 145.356Z" fill="#102D42"/>
</g>
<path d="M17.6462 19.1865L95.1734 8.95837L118.959 6.97483C120.885 6.8142 122.558 8.28801 122.642 10.219L128.232 139.265C128.309 141.037 127.012 142.571 125.252 142.79L34.9994 153.992C33.1402 154.223 31.444 152.908 31.2048 151.049L14.716 22.9952C14.4765 21.1351 15.7869 19.4318 17.6462 19.1865Z" fill="url(#paint2_linear_2333_73246)" stroke="white" stroke-width="0.889705"/>
<path d="M1.91876 22.8661C1.58408 21.0151 2.81448 19.2437 4.66584 18.911L96.9116 2.33575C98.7455 2.00622 100.503 3.21272 100.855 5.04246L125.529 133.296C125.887 135.159 124.653 136.956 122.785 137.29L29.0861 154.034C27.2385 154.364 25.4723 153.136 25.1384 151.289L1.91876 22.8661Z" fill="url(#paint3_linear_2333_73246)" stroke="white" stroke-width="0.889705"/>
<rect x="14.3645" y="31.0178" width="80.2421" height="6.77658" rx="3.38829" transform="rotate(-10.5268 14.3645 31.0178)" fill="#FCF0EE"/>
<rect x="16.4861" y="42.4395" width="60.0211" height="6.77658" rx="3.38829" transform="rotate(-10.5268 16.4861 42.4395)" fill="#FCF0EE"/>
<rect x="18.6086" y="53.8613" width="48.8881" height="6.77658" rx="3.38829" transform="rotate(-10.5268 18.6086 53.8613)" fill="#FCF0EE"/>
<rect x="22.8533" y="76.7041" width="48.8881" height="6.77658" rx="3.38829" transform="rotate(-10.5268 22.8533 76.7041)" fill="#FCF0EE"/>
<rect x="20.7312" y="65.2822" width="71.6381" height="6.77658" rx="3.38829" transform="rotate(-10.5268 20.7312 65.2822)" fill="#FCF0EE"/>
<rect x="8.95288" y="121.761" width="38.2392" height="38.2392" rx="7.60005" fill="#102D42"/>
<path fill-rule="evenodd" clip-rule="evenodd" d="M19.2883 132.809C19.2883 132.415 19.6073 132.096 20.0008 132.096H35.2009C35.5944 132.096 35.9134 132.415 35.9134 132.809C35.9134 133.202 35.5944 133.521 35.2009 133.521H20.0008C19.6073 133.521 19.2883 133.202 19.2883 132.809ZM27.1372 135.118C27.404 134.889 27.7978 134.889 28.0646 135.118L34.7146 140.818C35.0134 141.074 35.048 141.524 34.7919 141.822C34.5358 142.121 34.086 142.156 33.7872 141.9L28.3134 137.208V148.959C28.3134 149.352 27.9944 149.671 27.6009 149.671C27.2074 149.671 26.8884 149.352 26.8884 148.959V137.208L21.4145 141.9C21.1158 142.156 20.666 142.121 20.4099 141.822C20.1538 141.524 20.1884 141.074 20.4871 140.818L27.1372 135.118Z" fill="white"/>
<defs>
<radialGradient id="paint0_radial_2333_73246" cx="0" cy="0" r="1" gradientUnits="userSpaceOnUse" gradientTransform="translate(41.739 154.696) rotate(-52.4635) scale(122.633 80.2459)">
<stop stop-color="#FAB1A5"/>
<stop offset="1" stop-color="#DA6668"/>
</radialGradient>
<radialGradient id="paint1_radial_2333_73246" cx="0" cy="0" r="1" gradientUnits="userSpaceOnUse" gradientTransform="translate(-75.2345 58.2234) rotate(78.0037) scale(103.451 63.2744)">
<stop stop-color="white" stop-opacity="0.973411"/>
<stop offset="1" stop-color="white" stop-opacity="0"/>
</radialGradient>
<linearGradient id="paint2_linear_2333_73246" x1="71" y1="-176" x2="107" y2="265" gradientUnits="userSpaceOnUse">
<stop stop-color="#FBD4CD"/>
<stop offset="1" stop-color="#FFEAE7"/>
</linearGradient>
<linearGradient id="paint3_linear_2333_73246" x1="151.132" y1="-821.208" x2="-313.234" y2="121.723" gradientUnits="userSpaceOnUse">
<stop offset="0.596581" stop-color="#FAB1A5"/>
<stop offset="1" stop-color="#FCF0EE"/>
</linearGradient>
</defs>
</svg>
