<svg width="337" height="260" viewBox="0 0 337 260" fill="none" xmlns="http://www.w3.org/2000/svg">
<mask id="mask0_3452_23613" style="mask-type:alpha" maskUnits="userSpaceOnUse" x="0" y="0" width="337" height="260">
<rect x="0.462891" width="336.074" height="260" fill="#D9D9D9"/>
</mask>
<g mask="url(#mask0_3452_23613)">
<path d="M329.522 87.7198C326.54 83.3004 322.937 79.3811 319.191 75.6195C318.031 74.459 316.087 75.3875 316.219 77.0262C316.741 83.9076 313.925 91.0838 310.035 96.956C305.105 104.43 298.529 110.722 293.956 118.434C284.534 134.293 284.664 154.212 287.9 172.447C291.136 190.681 297.149 208.454 298.555 226.916C299.235 235.715 298.788 244.833 295.484 252.986C292.228 261.005 285.85 268.042 277.668 270.47C277.427 270.551 277.307 270.804 277.4 271.026C277.451 271.156 277.597 271.262 277.739 271.268C288.397 272.324 298.264 263.61 301.856 253.307C305.473 242.937 304.04 231.492 301.619 220.779C299.218 210.062 295.852 199.42 295.711 188.43C295.575 177.459 298.761 166.462 304.751 157.3C310.197 148.964 317.735 142.333 324.191 134.787C330.648 127.242 336.217 118.163 336.354 108.164C336.477 100.878 333.593 93.765 329.522 87.7198Z" fill="url(#paint0_linear_3452_23613)"/>
<path opacity="0.7" d="M323.746 99.9C323.794 101.946 323.53 103.947 323.182 105.929C322.814 107.915 322.339 109.866 321.712 111.774C321.422 112.742 321.043 113.671 320.706 114.611C320.35 115.554 319.928 116.474 319.544 117.384C319.118 118.284 318.672 119.189 318.227 120.094L316.773 122.735C316.257 123.596 315.718 124.443 315.178 125.289C314.639 126.136 314.029 126.939 313.466 127.771C312.311 129.401 311.096 130.944 309.933 132.536C307.583 135.705 305.298 138.898 303.32 142.28C301.342 145.663 299.707 149.226 298.468 152.935C297.785 154.775 297.362 156.693 296.853 158.592C296.491 160.515 296.048 162.438 295.856 164.401C295.287 168.312 295.19 172.269 295.113 176.222C295.142 178.191 295.195 180.175 295.249 182.159L295.626 188.098C295.629 188.281 295.505 188.433 295.33 188.456C295.151 188.46 295 188.334 294.978 188.156C294.032 180.258 293.631 172.206 294.548 164.215C295.305 156.223 297.898 148.368 301.936 141.44C303.953 137.967 306.261 134.706 308.584 131.504C309.742 129.893 310.972 128.326 312.093 126.724C312.641 125.916 313.242 125.156 313.767 124.334C314.292 123.511 314.817 122.689 315.342 121.866L316.8 119.325C317.255 118.459 317.709 117.593 318.14 116.712C318.548 115.816 318.983 114.955 319.348 114.049C319.714 113.144 320.102 112.253 320.42 111.319C321.127 109.493 321.659 107.609 322.144 105.696C322.61 103.788 322.967 101.845 323.089 99.9196L323.084 99.9004C323.099 99.7132 323.247 99.5749 323.431 99.5905C323.611 99.5869 323.742 99.7174 323.746 99.9Z" fill="white"/>
<path d="M323.608 152.86C320.423 155.201 316.28 156.277 312.317 156.925C307.138 157.774 301.706 158.204 297.186 160.922C292.465 163.759 289.383 168.751 287.233 173.876C285.084 179.001 283.682 184.436 281.307 189.46C279.05 194.24 275.712 198.763 271.052 201.067C274.597 201.35 278.067 199.026 280.174 196.047C282.427 192.86 283.492 189.006 284.751 185.298C286.01 181.598 287.613 177.822 290.581 175.307C296.4 170.38 305.224 171.935 312.083 168.689C315.633 167.013 318.509 164.097 320.748 160.826C322.27 158.602 323.519 156.196 324.682 153.756C324.987 153.085 324.214 152.424 323.608 152.86Z" fill="url(#paint1_linear_3452_23613)"/>
<path d="M24.2295 91.6649C27.6188 86.3034 31.7658 81.5148 36.0882 76.9084C37.4263 75.4873 39.7705 76.5227 39.6726 78.4763C39.2951 86.6788 42.898 95.1138 47.7316 101.96C53.8595 110.675 61.9033 117.924 67.6143 126.935C79.3811 145.463 79.9314 169.157 76.728 190.958C73.5245 212.759 67.0022 234.109 65.9835 256.116C65.4865 266.605 66.3407 277.433 70.5589 287.012C74.7152 296.433 82.5496 304.577 92.3656 307.176C92.6557 307.263 92.8071 307.56 92.7043 307.827C92.6481 307.983 92.4785 308.115 92.3101 308.127C79.6715 309.76 67.6285 299.745 62.9915 287.619C58.3235 275.414 59.6225 261.752 62.122 248.926C64.5989 236.095 68.2254 223.319 68.0042 210.244C67.7781 197.191 63.6001 184.225 56.1517 173.54C49.3798 163.819 40.1805 156.2 32.2343 147.454C24.2881 138.708 17.3435 128.108 16.8278 116.221C16.4236 107.56 19.601 98.9987 24.2295 91.6649Z" fill="url(#paint2_linear_3452_23613)"/>
<path d="M5.38742 136.699C12.1303 141.653 20.8997 143.931 29.2883 145.304C40.2504 147.101 51.7501 148.011 61.317 153.765C71.3104 159.768 77.8344 170.337 82.3848 181.185C86.9352 192.033 89.9011 203.537 94.9285 214.172C99.7062 224.291 106.773 233.865 116.637 238.741C109.132 239.341 101.788 234.421 97.3275 228.115C92.5574 221.37 90.3047 213.21 87.6383 205.362C84.9739 197.531 81.5818 189.537 75.2979 184.214C62.9799 173.785 44.3032 177.076 29.7834 170.204C22.2686 166.657 16.1811 160.485 11.4422 153.561C8.22041 148.852 5.57708 143.76 3.1155 138.595C2.46807 137.176 4.10525 135.775 5.38742 136.699Z" fill="url(#paint3_linear_3452_23613)"/>
<path d="M289.921 20.1717L146.638 15.5629C143.364 15.4578 140.695 17.6672 140.688 20.4975L140.102 247.839C140.094 250.669 142.751 252.842 146.026 252.686L289.338 245.94C292.3 245.801 294.709 243.511 294.715 240.823L295.272 25.2069C295.279 22.5196 292.886 20.2635 289.921 20.1717Z" fill="#77C2D7"/>
<path d="M290.018 23.3791L146.375 18.9292C145.028 18.888 143.93 19.7949 143.927 20.9521L143.343 247.328C143.34 248.485 144.434 249.377 145.781 249.313L289.452 242.732C290.674 242.677 291.666 241.736 291.669 240.638L292.224 25.4433C292.227 24.3407 291.239 23.4157 290.018 23.3791Z" fill="white"/>
<path d="M173.869 224.874L144.459 225.814C136.329 225.344 126.986 225.494 117.023 225.814C107.06 226.133 97.6048 226.547 89.3712 227.496L59.2 228.436V234.564C59.2 238.474 85.2637 240.833 117.136 239.846C148.708 238.907 174.029 234.762 173.963 230.917V230.682L173.869 224.874Z" fill="#4690A4"/>
<path d="M173.926 224.939C173.982 228.784 148.68 232.665 117.127 233.615C85.2826 234.555 59.2471 232.186 59.2471 228.276C59.2471 224.366 85.2356 220.484 117.023 219.591C148.463 218.708 173.813 221.105 173.926 224.939Z" fill="#B2ECFC"/>
<path d="M136.808 134.492L122.23 145.959L137.109 157.04C145.343 163.211 152.044 171.196 156.69 180.377C161.335 189.558 163.802 199.687 163.897 209.976L164.104 224.413C164.104 224.676 163.868 224.911 163.455 225.184L118.518 224.122L115.491 224.206L69.868 227.9C69.4451 227.646 69.3134 227.421 69.3134 227.148V212.504C69.2937 201.977 71.6671 191.584 76.254 182.109C80.8409 172.634 87.5214 164.325 95.7907 157.811L110.519 146.222L95.6497 135.121C87.4323 129.023 80.755 121.087 76.1512 111.948C71.5473 102.809 69.1446 92.7196 69.1349 82.4864V67.617L114.429 69.4968H117.418L161.904 67.1094L162.111 81.7721C162.233 91.9139 160.013 101.947 155.625 111.091C151.236 120.235 144.797 128.243 136.808 134.492Z" fill="#DCF6FF"/>
<path d="M164.047 224.403C164.047 224.676 163.84 224.949 163.427 225.212C159.799 227.609 140.446 229.911 116.957 230.635C93.2999 231.331 73.5336 230.146 69.7646 227.937C69.3416 227.684 69.116 227.421 69.116 227.148C69.116 224.45 90.5836 221.649 116.882 220.907C142.974 220.174 164.009 221.744 164.047 224.403Z" fill="#4690A4"/>
<path d="M117.757 180.923L115.332 180.98L115.031 141.71L117.437 141.663L117.757 180.923Z" fill="#FF768F"/>
<path d="M116.178 118.607L88.2245 118.964L89.6814 121.38C89.6814 121.38 100.067 136.249 116.384 144.239C132.485 135.779 142.514 120.741 142.514 120.741L143.905 118.297L116.178 118.607Z" fill="#CE2846"/>
<path d="M143.895 117.789C143.895 119.246 131.545 120.609 116.196 120.797C100.847 120.985 88.2245 119.97 88.2245 118.494C88.2245 117.019 100.754 115.675 116.159 115.477C131.564 115.28 143.848 116.323 143.895 117.789Z" fill="#FF768F"/>
<path d="M155.729 224.629C141.903 227.712 120.351 228.661 117.193 228.755H116.497C114.824 228.812 107.925 228.924 99.701 228.671C92.293 228.523 84.9009 227.924 77.566 226.875C77.566 226.875 77.566 226.875 77.566 226.819V225.099C77.8668 219.986 78.6187 205.21 81.1941 202.015C84.2676 198.255 115.397 178.517 116.431 177.784C117.475 178.423 148.604 196.582 151.669 200.238C152.496 201.178 153.154 203.378 153.689 206.009C154.309 209.277 154.764 212.574 155.052 215.888C155.56 220.663 155.729 224.629 155.729 224.629Z" fill="#FF768F"/>
<g style="mix-blend-mode:soft-light">
<path d="M89.6437 89.4133C89.4303 84.1046 89.5873 78.7876 90.1137 73.5007C90.1137 73.5007 87.6041 67.6827 78.8348 70.3708C76.7072 76.5329 75.6642 83.0171 75.7519 89.5355L89.6437 89.4133Z" fill="white"/>
</g>
<g style="mix-blend-mode:soft-light">
<path d="M89.8601 93.521L75.9493 93.6431C79.0604 124.265 108.959 141.804 108.959 141.804L116.055 141.691C96.4676 134.041 91.0538 110.665 89.8601 93.521Z" fill="white"/>
</g>
<g style="mix-blend-mode:soft-light">
<path d="M90.7528 222.439L78.1768 222.787C76.6433 217.508 75.899 212.032 75.968 206.536L90.1418 206.169C89.9723 211.6 90.1765 217.036 90.7528 222.439Z" fill="white"/>
</g>
<g style="mix-blend-mode:soft-light">
<path d="M90.3205 201.93L76.2218 202.287C79.2107 170.556 109.043 151.852 109.043 151.852L116.149 151.729C96.5991 160.424 91.3732 184.316 90.3205 201.93Z" fill="white"/>
</g>
<path d="M171.406 67.1283L142.617 67.2975C134.665 66.6678 125.52 66.5737 115.773 66.6301C106.026 66.6865 96.7682 66.8745 88.7226 67.57L59.2 67.7298V73.3693V73.4821C59.2 77.2417 84.6904 80.1272 115.877 79.9016C146.771 79.6854 171.557 76.5086 171.501 72.8242L171.406 67.1283Z" fill="#4690A4"/>
<path d="M171.416 67.0813C171.473 70.7563 146.696 73.8956 115.83 74.0835C84.6718 74.2809 59.2002 71.4048 59.2002 67.664C59.2002 63.9231 84.5778 60.8026 115.726 60.671C146.537 60.5394 171.35 63.4156 171.416 67.0813Z" fill="#B2ECFC"/>
<g style="mix-blend-mode:multiply" opacity="0.5">
<path d="M155.729 224.629C141.903 227.712 120.351 228.662 117.193 228.756H116.497C114.824 228.812 107.925 228.925 99.7009 228.671C92.2929 228.524 84.9008 227.924 77.5659 226.876C77.5659 226.876 77.5659 226.876 77.5659 226.819C77.5659 226.735 77.5659 226.105 77.5659 225.099C85.3484 225.099 101.543 224.535 108.583 219.977C117.982 213.896 125.755 213.501 135.991 215.155C144.45 216.518 150.475 211.818 153.708 206.01C154.328 209.278 154.783 212.575 155.071 215.888C155.56 220.663 155.729 224.629 155.729 224.629Z" fill="#CE2846"/>
</g>
<path d="M144.731 29.421C145.694 28.7662 144.818 26.8885 144.731 22.8344C144.664 17.8752 145.983 16.9507 144.924 15.0055C143.633 12.627 140.378 11.6352 138.183 11.587C137.711 11.587 137.595 11.3174 133.609 12.3574C126.425 14.2159 124.624 12.2226 121.408 14.2159C118.192 16.2092 119.665 18.2507 116.593 20.504C111.701 24.1633 106.549 20.2055 103.054 23.2678C99.7509 26.1566 99.6739 33.5426 103.15 37.5677C107.098 42.1322 114.205 40.7648 118.972 39.8596C123.084 38.9833 126.957 37.2256 130.325 34.7077C132.678 32.9734 134.764 30.9035 136.517 28.5641C136.861 28.1298 137.356 27.841 137.903 27.7551C138.495 27.7359 139.072 27.9386 139.521 28.3233C141.129 29.3633 143.749 30.0566 144.731 29.421Z" fill="#680416"/>
<path d="M137.971 24.3847C139.252 23.2099 146.58 25.7425 149.623 28.7373C153.195 32.2617 152.916 35.1121 156.036 39.4839C158.37 42.7057 161.419 45.3426 164.944 47.1876C164.606 48.0158 164.279 48.8535 163.981 49.6817C160.152 49.9778 156.33 49.0433 153.07 47.0143C150.181 45.0884 148.689 42.6232 145.829 37.6928C142.969 32.7625 136.363 25.8484 137.971 24.3847Z" fill="#FAB1A5"/>
<path d="M168.776 92.813L167.312 89.7122C167.1 89.266 166.767 88.8887 166.349 88.6241L165.627 88.133C165.627 88.133 163.894 88.1329 163.624 89.1729C163.567 90.5596 166.253 93.6411 167.948 94.8641C168.237 95.0663 168.632 95.3455 168.911 95.2011C169.325 94.9218 169.027 93.6507 168.776 92.813Z" fill="url(#paint4_linear_3452_23613)"/>
<path d="M166.032 86.3996C165.914 86.8054 165.886 87.2322 165.951 87.6499C166.016 88.0675 166.172 88.4658 166.407 88.8166C166.629 89.0863 168.42 92.0425 167.688 92.524C167.351 92.7359 165.078 89.9048 164.857 89.4715C164.635 89.0382 164.52 89.1729 164.51 88.1041C164.505 87.5548 164.418 87.0095 164.25 86.4863L166.032 86.3996Z" fill="url(#paint5_linear_3452_23613)"/>
<path d="M168.641 75.8455C169.57 76.9836 170.05 78.4223 169.99 79.8899C169.73 82.0084 166.898 78.927 166.504 77.8677C166.109 76.8084 165.647 75.3351 165.647 75.3351C165.647 75.3351 167.611 74.0929 168.641 75.8455Z" fill="url(#paint6_linear_3452_23613)"/>
<path d="M168.006 72.8217C168.006 72.8217 167.563 75.0751 168.401 76.2596C168.815 76.847 169.364 77.3476 169.219 77.8291C169.142 77.9979 169.015 78.1386 168.854 78.2317C168.694 78.3249 168.508 78.3659 168.324 78.3491C167.64 78.2817 167.264 77.2322 167.004 76.5003C166.697 75.3784 166.491 74.231 166.388 73.0721L168.006 72.8217Z" fill="url(#paint7_linear_3452_23613)"/>
<path d="M166.715 74.7189L168.208 74.1797C169.357 71.5992 169.841 68.7716 169.614 65.9559C168.795 56.8559 160.379 52.0315 159.445 51.5115C157.153 52.6574 154.832 54.2848 154.746 56.3263C154.64 58.8974 158.145 60.2552 161.429 64.03C164.051 67.0991 165.867 70.7724 166.715 74.7189Z" fill="#233F52"/>
<path d="M166.176 87.4397C167.425 82.6503 167.681 77.656 166.927 72.7641C166.214 68.1997 164.751 58.9263 158.559 55.4308C156.518 54.5296 154.618 53.3394 152.916 51.8967C151.337 50.4896 149.994 48.8379 148.939 47.0048C140.658 44.5685 133.012 45.5604 129.68 49.9997C128.857 50.9146 128.319 52.0487 128.129 53.2641C127.696 56.9715 131.336 61.43 135.429 62.3641C140.619 63.5485 143.633 58.2234 148.226 59.9952C149.517 60.4863 150.605 61.7189 152.791 64.1745C154.726 66.3497 156.379 68.76 157.712 71.3485C159.474 74.7863 160.803 77.3285 160.995 80.6122C161.004 81.9977 161.333 83.3624 161.958 84.5989C162.535 85.6421 163.325 86.5513 164.279 87.2663L166.176 87.4397Z" fill="#233F52"/>
<g style="mix-blend-mode:multiply" opacity="0.3">
<path d="M128.091 53.3313C128.281 52.1159 128.819 50.9818 129.641 50.0669C133.012 45.6276 140.658 44.6358 148.901 47.0721C149.956 48.9052 151.299 50.5569 152.878 51.9639C154.579 53.4066 156.48 54.5969 158.521 55.498C162.305 57.6165 164.298 61.8921 165.473 65.9461C163.759 63.2787 162.286 62.5661 161.14 62.5565C159.512 62.5565 158.781 63.9336 156.835 63.741C154.746 63.5388 154.274 61.815 152.589 61.6224C151.935 61.5632 151.279 61.7079 150.711 62.0366C150.009 61.2139 149.135 60.5563 148.15 60.1106C143.556 58.3388 140.542 63.6639 135.352 62.4795C131.298 61.4587 127.658 57.0002 128.091 53.3313Z" fill="#233F52"/>
</g>
<path d="M161.901 58.3291C160.526 58.2577 159.149 58.2899 157.779 58.4255C149.517 59.244 147.187 63.3366 140.446 64.3285C138.828 64.5692 131.625 65.6188 128.515 61.4396C126.271 58.4544 126.589 53.3025 129.064 51.2803C130.094 50.4232 131.124 50.4521 137.73 50.5099C140.224 50.5099 142.728 50.5099 145.222 50.5677C155.815 50.7025 157.818 49.9706 159.744 51.7232C160.61 52.561 161.901 54.2943 161.901 58.3291Z" fill="#233F52"/>
<path d="M139.56 24.4424C139.56 24.4424 131.211 22.0061 127.533 26.1661C126.67 27.2308 126.12 28.5144 125.944 29.8735C123.96 39.7631 131.442 45.695 128.496 50.9142C127.33 52.9846 125.26 53.6009 123.796 57.3276C123.546 57.9535 122.65 60.2165 123.478 60.9483C124.307 61.6802 125.404 60.2453 127.513 60.5053C129.622 60.7653 130.277 62.5083 131.789 62.2483C132.752 62.0846 133.195 61.2854 134.678 59.1572C136.777 56.1239 137.827 54.6024 138.53 54.0728C141.495 51.9735 143.797 54.7083 147.196 52.6283C148.419 51.8772 152.974 46.032 151.626 47.6402C148.448 43.6728 147.707 40.3987 147.63 38.1261C147.553 35.632 148.275 34.4957 147.63 31.549C147.63 31.549 147.495 29.9987 144.933 27.1676C144.567 26.7246 143.604 24.5676 139.56 24.4424Z" fill="#FAB1A5"/>
<path d="M136.18 19.6276C136.276 20.0802 136.777 22.5165 135.775 23.1713C135.307 23.3716 134.81 23.4983 134.302 23.5469C133.753 23.6528 133.339 23.7106 132.964 23.7491C133.022 24.365 133.253 24.9521 133.628 25.4439C134.957 27.158 137.634 26.715 138.019 26.6476C139.056 26.502 140.064 26.1933 141.004 25.7328C141.407 25.4562 141.775 25.133 142.102 24.7699C141.369 24.3433 140.61 23.9637 139.829 23.6335C139.3 23.4795 138.799 23.3639 138.356 23.2772C138.279 22.8054 138.202 22.3143 138.135 21.8521C137.48 21.1106 136.864 20.3691 136.18 19.6276Z" fill="url(#paint8_linear_3452_23613)"/>
<path d="M136.132 20.8603C136.191 21.3705 136.408 21.8493 136.754 22.2293C137.099 22.6093 137.555 22.8714 138.058 22.9788C139.627 23.2677 140.812 19.4736 139.984 18.4914C139.785 18.2934 139.549 18.1369 139.29 18.031C139.03 17.9252 138.752 17.8722 138.472 17.8751C137.99 17.955 137.545 18.1836 137.2 18.529C136.854 18.8744 136.626 19.3192 136.546 19.801C136.276 19.5122 135.939 19.4351 135.775 19.5507C135.612 19.6662 135.679 20.1477 135.698 20.244C135.78 20.487 135.931 20.701 136.132 20.8603Z" fill="url(#paint9_linear_3452_23613)"/>
<path style="mix-blend-mode:multiply" opacity="0.3" d="M151.626 47.6017C151.25 47.1202 150.904 46.6387 150.586 46.2054C149.134 45.7096 147.621 45.418 146.089 45.3387C143.335 45.2039 141.823 45.8491 139.935 44.7224C137.807 43.432 138.183 41.6506 136.083 40.6587C133.984 39.6669 132.386 40.7936 130.306 40.418C129.044 40.1869 127.513 39.3394 125.944 36.8839C127.147 42.7965 130.633 47.0335 128.457 50.8757C127.292 52.9461 125.221 53.5624 123.758 57.2891C123.507 57.915 122.612 60.178 123.44 60.9098C124.268 61.6417 125.366 60.2069 127.475 60.4669C129.584 60.7269 130.238 62.4698 131.75 62.2098C132.713 62.0461 133.156 61.2469 134.639 59.1187C136.738 56.0854 137.788 54.5639 138.491 54.0342C141.457 51.935 143.758 54.6698 147.158 52.5898C148.419 51.8387 152.964 45.9935 151.626 47.6017Z" fill="url(#paint10_linear_3452_23613)"/>
<path d="M154.197 48.6129L135.304 49.5759C135.175 49.5828 135.051 49.6206 134.94 49.6859C134.829 49.7513 134.736 49.8424 134.668 49.9515L134.148 50.7893C134.079 50.8838 134.038 50.9964 134.031 51.1135C134.025 51.2305 134.052 51.347 134.11 51.4489C134.168 51.5508 134.254 51.6337 134.359 51.6876C134.463 51.7414 134.58 51.7638 134.697 51.7522L154.698 50.9914L154.197 48.6129Z" fill="#48687F"/>
<path d="M173.784 38.0974L154.274 38.473C153.991 38.4794 153.714 38.559 153.471 38.7042C153.228 38.8493 153.027 39.055 152.887 39.3011L146.147 51.1938L166.754 50.3753C167.033 50.3605 167.304 50.2782 167.543 50.1356C167.783 49.993 167.985 49.7944 168.131 49.5567L174.39 39.0989C174.451 38.9955 174.483 38.8774 174.483 38.7573C174.482 38.6372 174.449 38.5194 174.387 38.4167C174.324 38.3139 174.235 38.23 174.129 38.1738C174.023 38.1176 173.904 38.0912 173.784 38.0974Z" fill="#9EB6C7"/>
<path d="M136.796 47.987C137.046 47.3322 137.287 46.687 137.537 46.061C134.812 45.3099 131.057 44.2121 127.205 42.8351C126.598 42.6232 125.886 42.3536 125.645 41.7181C124.99 39.9366 129.179 38.0877 130.806 34.1973C132.318 30.5958 131.49 25.6077 129.737 25.0203C126.097 23.7877 113.203 39.8499 117.806 46.6196C120.416 50.4425 128.438 51.0299 136.796 47.987Z" fill="#FAB1A5"/>
<path d="M137.538 46.0418C138.149 45.7848 138.808 45.6588 139.472 45.6721C140.135 45.6854 140.788 45.8376 141.389 46.1189C141.94 46.3813 142.439 46.74 142.863 47.1781C142.93 47.2648 143.672 48.2855 143.402 48.6129C143.132 48.9403 142.343 48.613 141.341 48.0352C140.743 47.967 140.139 47.967 139.541 48.0352C138.154 48.17 137.528 48.6033 137.027 48.2278C136.851 48.0689 136.723 47.8635 136.659 47.6353C136.594 47.407 136.595 47.1651 136.661 46.9374C136.736 46.7348 136.853 46.5502 137.004 46.3959C137.155 46.2416 137.337 46.1209 137.538 46.0418Z" fill="url(#paint11_linear_3452_23613)"/>
<rect width="54.2982" height="3.56765" rx="0.866667" transform="matrix(0.999889 0.0149007 -0.00695495 0.999976 225.152 43.0959)" fill="#E6F9FF"/>
<rect width="74.8205" height="3.56765" rx="0.866667" transform="matrix(0.999889 0.0149007 -0.00695495 0.999976 204.632 57.7778)" fill="#E6F9FF"/>
<rect width="73.1328" height="4.18986" rx="0.866667" transform="matrix(-0.999847 0.0174989 0.00592211 0.999982 256.503 198.37)" fill="#E6F9FF"/>
<rect width="93.1091" height="3.56769" rx="0.866667" transform="matrix(0.999928 0.0119739 -0.0086552 0.999963 186.342 72.7655)" fill="#E6F9FF"/>
<rect width="93.1116" height="4.1899" rx="0.866667" transform="matrix(-0.999901 0.0140619 0.00736989 0.999973 276.483 213.054)" fill="#E6F9FF"/>
<rect x="169.936" y="87.7533" width="109.514" height="3.56774" rx="0.866667" transform="rotate(0.583295 169.936 87.7533)" fill="#E6F9FF"/>
<rect width="49.3748" height="4.18994" rx="0.866667" transform="matrix(-0.999928 0.0119556 0.00866849 0.999962 232.752 229.449)" fill="#E6F9FF"/>
<path d="M240.17 149.24H234.465V130.394C234.465 126.437 232.892 122.643 230.091 119.846C227.291 117.048 223.493 115.476 219.533 115.476C215.573 115.476 211.775 117.048 208.974 119.846C206.174 122.643 204.601 126.437 204.601 130.394V149.24H198.895V130.394C198.895 119.026 208.154 109.778 219.533 109.778C230.912 109.778 240.17 119.026 240.17 130.394V149.24Z" fill="#F2BE38"/>
<path d="M246.691 140.936H192.376C191.154 140.936 190.163 141.926 190.163 143.147V178.402C190.163 179.623 191.154 180.612 192.376 180.612H246.691C247.913 180.612 248.904 179.623 248.904 178.402V143.147C248.904 141.926 247.913 140.936 246.691 140.936Z" fill="url(#paint12_linear_3452_23613)"/>
<path d="M224.386 154.798C224.387 153.97 224.176 153.155 223.773 152.431C223.369 151.707 222.787 151.099 222.081 150.664C221.376 150.229 220.57 149.981 219.742 149.945C218.913 149.91 218.089 150.086 217.349 150.459C216.608 150.831 215.975 151.387 215.51 152.073C215.046 152.759 214.765 153.553 214.694 154.378C214.624 155.204 214.766 156.033 215.108 156.788C215.449 157.543 215.979 158.198 216.645 158.691L215.101 169.657H223.965L222.419 158.691C223.029 158.241 223.525 157.654 223.866 156.978C224.208 156.302 224.386 155.555 224.386 154.798Z" fill="#D18F0B"/>
</g>
<defs>
<linearGradient id="paint0_linear_3452_23613" x1="321.869" y1="67.8661" x2="341.601" y2="236.105" gradientUnits="userSpaceOnUse">
<stop stop-color="#99DAEC"/>
<stop offset="0.572917" stop-color="#EBF5F9" stop-opacity="0"/>
</linearGradient>
<linearGradient id="paint1_linear_3452_23613" x1="322.259" y1="150.704" x2="312.731" y2="200.38" gradientUnits="userSpaceOnUse">
<stop stop-color="#99DAEC"/>
<stop offset="0.572917" stop-color="#EBF5F9" stop-opacity="0"/>
</linearGradient>
<linearGradient id="paint2_linear_3452_23613" x1="31.1969" y1="77.2939" x2="17.3667" y2="269.539" gradientUnits="userSpaceOnUse">
<stop stop-color="#BBEEFC"/>
<stop offset="0.458333" stop-color="#F3FCFF" stop-opacity="0"/>
</linearGradient>
<linearGradient id="paint3_linear_3452_23613" x1="8.24293" y1="132.136" x2="28.413" y2="237.288" gradientUnits="userSpaceOnUse">
<stop stop-color="#C2F1FE"/>
<stop offset="0.495369" stop-color="#EBF5F9" stop-opacity="0"/>
</linearGradient>
<linearGradient id="paint4_linear_3452_23613" x1="167.289" y1="98.7709" x2="160.807" y2="94.3975" gradientUnits="userSpaceOnUse">
<stop stop-color="#311944"/>
<stop offset="1" stop-color="#6B3976"/>
</linearGradient>
<linearGradient id="paint5_linear_3452_23613" x1="167.871" y1="95.3166" x2="155.131" y2="57.0869" gradientUnits="userSpaceOnUse">
<stop stop-color="#FFC444"/>
<stop offset="1" stop-color="#F36F56"/>
</linearGradient>
<linearGradient id="paint6_linear_3452_23613" x1="170.009" y1="77.7618" x2="165.627" y2="77.7618" gradientUnits="userSpaceOnUse">
<stop stop-color="#311944"/>
<stop offset="1" stop-color="#6B3976"/>
</linearGradient>
<linearGradient id="paint7_linear_3452_23613" x1="172.541" y1="89.7795" x2="165.396" y2="68.3441" gradientUnits="userSpaceOnUse">
<stop stop-color="#FFC444"/>
<stop offset="1" stop-color="#F36F56"/>
</linearGradient>
<linearGradient id="paint8_linear_3452_23613" x1="139.859" y1="19.4769" x2="137.085" y2="28.0875" gradientUnits="userSpaceOnUse">
<stop stop-color="#FFCE64"/>
<stop offset="1" stop-color="#FF9682"/>
</linearGradient>
<linearGradient id="paint9_linear_3452_23613" x1="139.13" y1="17.7667" x2="136.53" y2="23.4" gradientUnits="userSpaceOnUse">
<stop stop-color="#FFCE64"/>
<stop offset="1" stop-color="#FF9682"/>
</linearGradient>
<linearGradient id="paint10_linear_3452_23613" x1="123.132" y1="49.5661" x2="151.866" y2="49.5661" gradientUnits="userSpaceOnUse">
<stop stop-color="#FF9085"/>
<stop offset="1" stop-color="#FB6FBB"/>
</linearGradient>
<linearGradient id="paint11_linear_3452_23613" x1="141.78" y1="45.6061" x2="141.045" y2="49.57" gradientUnits="userSpaceOnUse">
<stop stop-color="#FFCE64"/>
<stop offset="1" stop-color="#FF9682"/>
</linearGradient>
<linearGradient id="paint12_linear_3452_23613" x1="219.052" y1="144.926" x2="216.903" y2="180.909" gradientUnits="userSpaceOnUse">
<stop stop-color="#F7C952"/>
<stop offset="1" stop-color="#FFF1CC"/>
</linearGradient>
</defs>
</svg>
