<svg width="360" height="355" viewBox="0 0 360 355" fill="none" xmlns="http://www.w3.org/2000/svg">
<path d="M237.248 97.5931H234.464C234.095 97.5931 233.74 97.4464 233.479 97.1854C233.218 96.9243 233.072 96.5703 233.072 96.2011C233.072 95.8319 233.218 95.4778 233.479 95.2168C233.74 94.9557 234.095 94.8091 234.464 94.8091H237.248C237.617 94.8091 237.971 94.9557 238.232 95.2168C238.493 95.4778 238.64 95.8319 238.64 96.2011C238.64 96.5703 238.493 96.9243 238.232 97.1854C237.971 97.4464 237.617 97.5931 237.248 97.5931Z" fill="#32728E"/>
<path d="M162.341 269.332C175.675 259.915 178.058 235.249 174.789 218.697C170.981 199.373 160.995 198.854 159.202 183.598C155.862 155.181 189.095 145.303 188.001 116.382C187.108 92.7388 164.559 90.3702 164.753 64.1419C164.897 45.2212 176.704 37.3592 171.398 20.8432C170.945 19.4032 165.84 4.28393 152.895 0.734506C139.835 -2.86532 126.429 7.50218 119.777 15.8538C107.537 31.261 116.595 42.0821 108.776 65.6754C98.1203 97.793 75.0022 96.7419 72.0576 122.013C69.6169 142.892 84.8154 148.414 81.6548 171.496C78.7173 192.929 64.5411 195.975 63.9436 210.561C62.5828 244.162 135.141 288.533 162.341 269.332Z" fill="url(#paint0_linear_5488_5102)"/>
<mask id="mask0_5488_5102" style="mask-type:luminance" maskUnits="userSpaceOnUse" x="63" y="0" width="126" height="274">
<path d="M162.341 269.332C175.674 259.915 178.058 235.249 174.789 218.697C170.98 199.373 160.994 198.854 159.202 183.598C155.861 155.181 189.095 145.303 188 116.382C187.108 92.7388 164.558 90.3702 164.753 64.1419C164.897 45.2212 176.704 37.3592 171.398 20.8432C170.944 19.4032 165.84 4.28393 152.895 0.734506C139.835 -2.86532 126.429 7.50218 119.777 15.8538C107.537 31.261 116.594 42.0821 108.775 65.6754C98.1199 97.793 75.0019 96.7419 72.0572 122.013C69.6165 142.892 84.815 148.414 81.6544 171.496C78.7169 192.929 64.5408 195.975 63.9432 210.561C62.5825 244.162 135.14 288.533 162.341 269.332Z" fill="white"/>
</mask>
<g mask="url(#mask0_5488_5102)">
<g style="mix-blend-mode:soft-light" opacity="0.7">
<path d="M143.11 285.121C143.029 285.121 142.949 285.098 142.88 285.056C130.564 277.892 119.979 268.101 111.878 256.38C104.24 245.307 96.3415 233.852 96.9822 219.532C97.4646 208.632 102.54 202.814 108.955 195.442C115.075 188.415 122.692 179.668 128.02 163.476C131.065 154.231 134.852 142.726 131.929 128.917C130.237 120.926 127.106 116.404 124.348 112.408C121.468 108.233 118.963 104.618 119.438 98.4267C120.201 88.5056 125.5 82.1699 131.634 74.8334C135.356 70.3841 139.208 65.7835 142.578 59.8078C152.067 43.011 152.319 20.3969 143.298 -7.40815C143.261 -7.52368 143.272 -7.64892 143.327 -7.75671C143.382 -7.8645 143.478 -7.94622 143.593 -7.98416C143.65 -8.0042 143.711 -8.01236 143.771 -8.00824C143.831 -8.00412 143.89 -7.98778 143.944 -7.96016C143.998 -7.93255 144.046 -7.8943 144.084 -7.84767C144.123 -7.80104 144.152 -7.74703 144.169 -7.68895C153.24 20.3897 152.967 43.227 143.348 60.2542C139.935 66.3091 136.062 70.9384 132.311 75.4166C126.278 82.6162 121.065 88.8656 120.324 98.4987C119.87 104.366 122.167 107.685 125.075 111.89C127.883 115.951 131.065 120.53 132.8 128.73C135.767 142.748 131.944 154.382 128.862 163.735C123.477 180.107 115.795 188.933 109.618 196.018C103.318 203.218 98.3431 208.977 97.8679 219.546C97.2488 233.557 105.068 244.882 112.606 255.825C120.628 267.438 131.112 277.138 143.312 284.235C143.364 284.265 143.41 284.305 143.447 284.353C143.484 284.401 143.511 284.455 143.526 284.514C143.542 284.572 143.545 284.633 143.537 284.693C143.529 284.752 143.508 284.81 143.478 284.862C143.443 284.932 143.391 284.993 143.327 285.038C143.263 285.083 143.188 285.112 143.11 285.121Z" fill="white"/>
</g>
<g style="mix-blend-mode:soft-light" opacity="0.7">
<path d="M133.312 135.958C133.247 135.959 133.183 135.945 133.125 135.918C133.066 135.89 133.015 135.85 132.974 135.8C132.933 135.756 132.902 135.704 132.881 135.648C132.861 135.592 132.852 135.532 132.856 135.472C132.859 135.412 132.875 135.354 132.901 135.3C132.927 135.246 132.964 135.198 133.01 135.159C154.22 116.202 164.184 98.6209 168.806 87.2094C173.846 74.8476 173.846 66.8632 173.846 66.7912C173.845 66.7307 173.856 66.6707 173.878 66.6144C173.901 66.5581 173.934 66.5068 173.976 66.4633C174.018 66.4199 174.068 66.3851 174.124 66.3611C174.179 66.3371 174.239 66.3242 174.3 66.3232C174.421 66.3232 174.537 66.3708 174.623 66.4557C174.709 66.5405 174.758 66.6559 174.76 66.7768C174.76 67.108 174.76 74.9844 169.721 87.4974C165.062 99.0169 155.026 116.75 133.658 135.836C133.611 135.879 133.557 135.911 133.497 135.932C133.438 135.953 133.375 135.962 133.312 135.958Z" fill="white"/>
</g>
<g style="mix-blend-mode:soft-light" opacity="0.7">
<path d="M123.11 176.931C123.005 176.93 122.904 176.895 122.822 176.831C110.986 167.154 101.979 156.182 96.068 144.216C91.3519 134.717 88.5461 124.385 87.8099 113.805C86.5499 95.7555 91.7121 82.7025 91.7625 82.5729C91.7789 82.5097 91.8088 82.4507 91.8498 82.3998C91.8908 82.349 91.9422 82.3074 92.0004 82.2779C92.0587 82.2485 92.1226 82.2316 92.1878 82.2287C92.2531 82.2258 92.3182 82.2368 92.3789 82.261C92.4396 82.2852 92.4945 82.322 92.5399 82.369C92.5853 82.416 92.6201 82.472 92.6422 82.5335C92.6642 82.595 92.6729 82.6605 92.6677 82.7256C92.6625 82.7908 92.6436 82.854 92.6121 82.9113C92.5617 83.0409 87.4715 95.9354 88.7314 113.783C89.8906 130.249 96.8455 154.425 123.405 176.118C123.498 176.196 123.556 176.308 123.569 176.429C123.581 176.55 123.545 176.671 123.47 176.766C123.425 176.818 123.37 176.859 123.308 176.888C123.246 176.917 123.178 176.931 123.11 176.931Z" fill="white"/>
</g>
<g style="mix-blend-mode:soft-light" opacity="0.7">
<path d="M103.736 244.63C103.626 244.628 103.521 244.587 103.44 244.514C103.358 244.442 103.304 244.343 103.289 244.235C103.273 244.127 103.297 244.017 103.355 243.924C103.413 243.832 103.502 243.763 103.606 243.73C134.881 234.558 151.188 217.883 159.36 205.514C168.201 192.13 169.684 180.798 169.699 180.69C169.713 180.569 169.775 180.458 169.871 180.382C169.967 180.307 170.089 180.272 170.21 180.287C170.27 180.294 170.327 180.313 170.38 180.342C170.432 180.372 170.478 180.412 170.515 180.459C170.552 180.507 170.579 180.561 170.594 180.619C170.61 180.677 170.614 180.738 170.606 180.798C170.606 180.913 169.087 192.461 160.123 205.997C151.865 218.495 135.407 235.335 103.865 244.587L103.736 244.63Z" fill="white"/>
</g>
<g style="mix-blend-mode:soft-light" opacity="0.7">
<path d="M144.024 57.3382C143.961 57.3378 143.898 57.3241 143.839 57.2981C143.781 57.2721 143.729 57.2343 143.686 57.187C125.802 37.7912 123.621 17.5529 124.967 3.996C125.777 -4.73489 128.232 -13.2336 132.203 -21.0516C132.264 -21.1559 132.364 -21.2322 132.481 -21.2644C132.598 -21.2966 132.723 -21.2823 132.829 -21.2244C132.935 -21.164 133.012 -21.0642 133.045 -20.9469C133.077 -20.8295 133.062 -20.7041 133.002 -20.598C129.088 -12.8825 126.67 -4.49618 125.874 4.11842C124.578 17.4882 126.738 37.4312 144.384 56.5679C144.428 56.6101 144.462 56.6605 144.485 56.7161C144.509 56.7718 144.521 56.8315 144.521 56.8918C144.521 56.9521 144.509 57.0119 144.485 57.0676C144.462 57.1232 144.428 57.1736 144.384 57.2158C144.336 57.2603 144.279 57.2942 144.217 57.3152C144.155 57.3363 144.09 57.3441 144.024 57.3382Z" fill="white"/>
<path d="M208.946 46.8826C208.958 46.9453 208.956 47.0098 208.942 47.0719C208.927 47.134 208.9 47.1924 208.862 47.2434C193.204 68.477 173.745 74.4518 160.178 75.6973C151.452 76.5553 142.642 75.7541 134.214 73.3362C134.1 73.2954 134.006 73.2119 133.952 73.1033C133.898 72.9947 133.889 72.8695 133.925 72.754C133.965 72.6387 134.048 72.5437 134.157 72.4896C134.266 72.4356 134.392 72.4271 134.508 72.4657C142.825 74.8472 151.517 75.6335 160.127 74.7834C173.5 73.5238 192.673 67.6262 208.121 46.675C208.155 46.6247 208.198 46.5815 208.248 46.548C208.298 46.5145 208.354 46.4913 208.414 46.4799C208.473 46.4684 208.534 46.469 208.593 46.4814C208.652 46.4939 208.708 46.5179 208.758 46.5523C208.81 46.5911 208.854 46.6405 208.887 46.6974C208.919 46.7543 208.939 46.8174 208.946 46.8826Z" fill="white"/>
</g>
</g>
<path d="M140.648 346.758C141.007 348.859 142.654 350.577 144.721 350.061C148.232 349.185 152.332 347.471 153.507 346.383C164.565 336.152 186.503 318.304 188.065 302.465C188.306 300.014 178.837 296.183 176.084 293.455C175.602 292.978 175.162 292.433 174.601 292.052C168.514 287.923 165.916 286.549 161.909 279.361C149.417 257.215 190.909 225.954 151.534 206.385C122.692 192.051 95.3768 198.43 106.176 151.826C116.976 105.223 93.217 13.4059 38.2477 38.3671C6.68444 52.6872 29.2984 97.4042 9.9026 124.59C-8.52851 150.458 -0.299272 175.477 26.8578 197.076C54.0149 218.675 36.0158 229.1 23.0996 254.414C7.57717 284.818 55.9948 298.332 78.8825 302.688C96.2681 306.005 136.963 325.201 140.648 346.758Z" fill="url(#paint1_linear_5488_5102)"/>
<g style="mix-blend-mode:soft-light" opacity="0.7">
<path d="M160.701 337.8L161.119 337.21C69.374 272.917 25.7152 161.164 44.3335 38.2661L43.6135 38.1582C34.7867 96.4034 40.2297 154.346 59.3376 205.73C79.4318 259.742 114.48 305.416 160.701 337.8Z" fill="#FCFDFE"/>
<path d="M15.1801 266.337C45.4186 261.477 93.5699 268.871 122.455 282.817L122.772 282.162C93.7498 268.158 45.4259 260.735 15.0433 265.602L15.1801 266.337Z" fill="#FCFDFE"/>
<path d="M152.326 312.897L152.888 312.436C142.412 299.477 138.906 281.672 142.463 259.583C145.076 243.391 151.347 225.299 161.117 205.823L160.469 205.5C150.663 225.039 144.371 243.197 141.75 259.497C138.129 281.765 141.685 299.721 152.326 312.897Z" fill="#FCFDFE"/>
<path d="M83.6488 166.218L84.239 165.794C65.7503 140.3 34.5183 129.299 11.573 124.554L11.4219 125.274C34.252 129.982 65.2969 140.912 83.6488 166.218Z" fill="#FCFDFE"/>
<path d="M41.2162 127.974L41.9362 128.031C44.96 92.6884 69.9716 65.0921 84.6013 51.7944L84.1116 51.2544C69.4315 64.6241 44.2688 92.3788 41.2162 127.974Z" fill="#FCFDFE"/>
</g>
<path d="M360 326.555L16.2024 323.581V332.379C16.2024 334.762 17.7072 336.793 19.7375 337.153L116.933 354.432C118.082 354.638 119.254 354.694 120.417 354.597L356.242 334.856C358.351 334.676 359.978 332.646 359.978 330.191L360 326.555Z" fill="#67A4BA"/>
<path d="M233.481 312.465L14.9714 328.52C14.0457 328.585 13.1168 328.455 12.2446 328.138C11.3725 327.821 10.5767 327.325 9.90879 326.68C9.24087 326.036 8.71573 325.259 8.36744 324.399C8.01916 323.539 7.85534 322.615 7.88688 321.688V158.976C7.86684 158.027 8.03446 157.084 8.3801 156.2C8.72574 155.317 9.24271 154.51 9.90106 153.827C10.5594 153.144 11.3462 152.598 12.2163 152.22C13.0865 151.842 14.0228 151.64 14.9714 151.625L22.7038 156.081L233.481 151.625C236.706 151.625 239.313 154.598 239.313 158.27V305.366C239.313 309.081 236.706 312.227 233.481 312.465Z" fill="#035970"/>
<path d="M236.965 312.465L18.4559 328.52C17.5302 328.585 16.6013 328.455 15.7291 328.138C14.857 327.821 14.061 327.325 13.3931 326.68C12.7252 326.036 12.2001 325.259 11.8518 324.399C11.5035 323.539 11.3398 322.615 11.3714 321.688V158.976C11.3513 158.027 11.519 157.084 11.8646 156.2C12.2102 155.317 12.727 154.51 13.3854 153.827C14.0437 153.144 14.8307 152.598 15.7008 152.22C16.571 151.842 17.5073 151.64 18.4559 151.625H236.965C240.191 151.625 242.797 154.598 242.797 158.27V305.366C242.797 309.081 240.162 312.227 236.965 312.465Z" fill="#F4FCFF"/>
<path d="M230.162 302.098L26.642 316.065C25.8861 316.113 25.1286 316.002 24.4183 315.739C23.708 315.476 23.0605 315.067 22.5178 314.539C21.9752 314.01 21.5493 313.374 21.2676 312.671C20.9859 311.968 20.8546 311.213 20.8823 310.456V167.968C20.8551 166.408 21.4449 164.899 22.5233 163.771C23.6017 162.643 25.0818 161.985 26.642 161.942L230.162 161.064C232.818 161.064 234.971 163.49 234.971 166.514V296.266C234.971 299.319 232.818 301.882 230.162 302.098Z" fill="#77C2D7"/>
<path d="M135.429 156.096C135.388 156.585 135.206 157.053 134.904 157.44C134.603 157.828 134.194 158.119 133.73 158.278C133.265 158.437 132.764 158.457 132.288 158.336C131.812 158.215 131.381 157.958 131.049 157.597C130.717 157.235 130.497 156.784 130.417 156.299C130.337 155.815 130.4 155.317 130.598 154.868C130.796 154.419 131.121 154.036 131.533 153.769C131.944 153.501 132.425 153.359 132.916 153.36C133.61 153.395 134.262 153.702 134.732 154.214C135.202 154.726 135.453 155.401 135.429 156.096Z" fill="white"/>
<path d="M16.2024 328.52L116.954 346.462C118.104 346.668 119.275 346.724 120.439 346.627L360 326.569L250.961 311.687C249.742 311.523 248.509 311.485 247.282 311.572" fill="#E6F9FF"/>
<path d="M247.865 90.9878L48.9535 84.5657C47.3628 84.4918 45.7736 84.7409 44.2818 85.2982C42.79 85.8555 41.4266 86.7094 40.274 87.8082C39.1214 88.907 38.2035 90.2279 37.5756 91.6913C36.9476 93.1548 36.6228 94.7302 36.6206 96.3227V290.231C36.6142 291.81 36.9361 293.373 37.5661 294.821C38.1961 296.269 39.1204 297.57 40.2802 298.642C41.4399 299.714 42.8098 300.533 44.3029 301.047C45.796 301.561 47.3798 301.759 48.9535 301.628L247.873 289.468C253.517 289.122 258.074 283.917 258.074 277.84V102.313C258.074 96.2435 253.517 91.1678 247.865 90.9878Z" fill="#B2ECFC"/>
<path d="M48.8098 297.663C47.7397 297.748 46.6635 297.611 45.6492 297.26C44.6349 296.908 43.7046 296.35 42.917 295.621C42.1294 294.891 41.5017 294.006 41.0735 293.022C40.6453 292.037 40.4261 290.975 40.4295 289.901V96.3244C40.4303 95.2414 40.6504 94.1697 41.0767 93.1741C41.5029 92.1785 42.1265 91.2795 42.9096 90.5314C43.6927 89.7832 44.6192 89.2014 45.6332 88.8211C46.6473 88.4408 47.7279 88.2698 48.8098 88.3184L247.722 94.4021C251.574 94.5245 254.684 98.0019 254.684 102.12V277.914C254.684 282.061 251.574 285.603 247.729 285.834L48.8098 297.663Z" fill="white"/>
<path d="M247.722 90.8743L48.8096 84.4522C47.2189 84.3782 45.6297 84.6274 44.1379 85.1847C42.6462 85.742 41.2827 86.5958 40.1301 87.6946C38.9775 88.7934 38.0596 90.1144 37.4317 91.5778C36.8037 93.0412 36.4789 94.6167 36.4767 96.2092V104.928L257.931 110.09V102.17C257.931 96.13 253.373 91.0543 247.722 90.8743Z" fill="#4690A4"/>
<path d="M58.3857 95.6404C58.3851 96.1571 58.2804 96.6683 58.0778 97.1435C57.8752 97.6188 57.5789 98.0484 57.2066 98.4066C56.8343 98.7648 56.3937 99.0443 55.9109 99.2284C55.4282 99.4125 54.9132 99.4974 54.3969 99.478C53.3335 99.4519 52.3217 99.014 51.5749 98.2564C50.8281 97.4989 50.4046 96.4809 50.3937 95.4172C50.3942 94.8996 50.4995 94.3874 50.7031 93.9115C50.9066 93.4356 51.2043 93.0059 51.5783 92.648C51.9522 92.2902 52.3946 92.0117 52.879 91.8293C53.3634 91.6469 53.8798 91.5645 54.3969 91.5868C55.4566 91.6165 56.4638 92.0551 57.2073 92.8107C57.9509 93.5663 58.3731 94.5804 58.3857 95.6404Z" fill="white"/>
<path d="M72.281 96.0223C72.2822 96.5341 72.1803 97.041 71.9812 97.5126C71.7822 97.9842 71.4902 98.4109 71.1226 98.7671C70.7549 99.1233 70.3193 99.4017 69.8416 99.5858C69.364 99.7698 68.8542 99.8557 68.3426 99.8383C67.29 99.8085 66.2898 99.3717 65.5526 98.6198C64.8154 97.8678 64.3987 96.8593 64.3898 95.8063C64.3884 95.2932 64.4908 94.785 64.6907 94.3124C64.8906 93.8398 65.1839 93.4125 65.5531 93.0561C65.9223 92.6997 66.3596 92.4216 66.8389 92.2385C67.3183 92.0553 67.8298 91.9709 68.3426 91.9903C69.3921 92.0255 70.3874 92.4645 71.1212 93.2156C71.8549 93.9668 72.2704 94.9722 72.281 96.0223Z" fill="white"/>
<path d="M86.018 96.4037C86.0202 96.9112 85.9202 97.4139 85.7239 97.8818C85.5276 98.3498 85.2393 98.7734 84.8758 99.1275C84.5123 99.4816 84.0811 99.759 83.6082 99.9429C83.1352 100.127 82.6301 100.214 82.1228 100.198C81.0792 100.165 80.089 99.7283 79.3601 98.9806C78.6312 98.2329 78.2202 97.2319 78.2133 96.1878C78.2111 95.679 78.3115 95.1751 78.5086 94.7062C78.7058 94.2372 78.9956 93.8129 79.3606 93.4586C79.7257 93.1043 80.1585 92.8273 80.6331 92.6443C81.1077 92.4612 81.6144 92.3759 82.1228 92.3933C83.164 92.4305 84.1506 92.8684 84.8765 93.6157C85.6023 94.363 86.0112 95.3619 86.018 96.4037Z" fill="white"/>
<path opacity="0.5" d="M153.327 225.076C144.479 225.24 135.729 223.204 127.862 219.15C119.47 214.827 112.421 208.288 107.48 200.244C102.74 192.503 100.229 183.604 100.222 174.527C100.222 146.131 124.348 123.654 153.327 124.41C181.586 125.13 204.07 147.809 204.07 174.944C204.07 202.08 181.586 224.564 153.327 225.076Z" fill="white"/>
<path d="M156.272 333.776V336.613C156.272 337.333 155.897 337.938 155.408 338.002L111.151 342.013C110.825 342.063 110.492 342.063 110.165 342.013L109.906 341.955L79.0697 336.145C78.8822 336.054 78.7271 335.908 78.6253 335.727C78.5236 335.545 78.4802 335.337 78.5009 335.13V332.12L111.223 328.06L115.435 326.073L119.618 326.67L122.095 326.202L127.747 327.844L156.272 333.776Z" fill="url(#paint2_linear_5488_5102)"/>
<path style="mix-blend-mode:multiply" opacity="0.3" d="M156.272 333.776V336.612C156.272 337.332 155.897 337.937 155.408 338.002L111.152 342.012C110.825 342.067 110.492 342.067 110.165 342.012V326.735L115.435 326.094L119.618 326.691L122.095 326.223L127.747 327.865L156.272 333.776Z" fill="url(#paint3_linear_5488_5102)"/>
<path d="M122.088 326.202L78.4938 331.962L109.935 337.887C110.318 337.984 110.716 338.006 111.108 337.952L156.264 333.754L122.088 326.202Z" fill="url(#paint4_linear_5488_5102)"/>
<path d="M138.071 331.4C138.071 333.481 131.541 335.093 122.52 335.511C120.245 335.619 117.811 335.648 115.32 335.59C102.908 335.302 92.9364 332.991 92.9364 330.435C92.9302 330.375 92.9302 330.315 92.9364 330.255L92.9869 330.126L93.0299 330.01L95.9098 322.523L99.3657 313.494L104.211 300.837L107.912 291.154L112.519 279.109C113.103 277.597 114.168 276.661 115.32 276.661C115.478 276.66 115.635 276.676 115.788 276.711C116.343 276.891 116.846 277.204 117.254 277.621C117.661 278.039 117.962 278.55 118.128 279.109L122.779 291.24L126.494 301.053L131.39 313.962L134.903 323.236H134.961L137.891 330.774C138.005 330.963 138.067 331.179 138.071 331.4Z" fill="url(#paint5_linear_5488_5102)"/>
<path d="M134.91 323.271C132.088 324.214 127.567 324.898 122.16 325.15C120 325.251 117.674 325.287 115.27 325.244C106.932 325.078 99.704 324.006 95.8306 322.551L99.2936 313.516C104.548 314.578 109.894 315.12 115.255 315.136C117.286 315.136 119.258 315.136 121.144 315.064C124.567 314.964 127.978 314.605 131.346 313.991L134.831 323.264H134.889L134.91 323.271Z" fill="white"/>
<path d="M126.487 301.075C124.327 301.313 121.958 301.471 119.438 301.543C118.092 301.543 116.703 301.593 115.284 301.543C111.565 301.523 107.851 301.282 104.161 300.823L107.861 291.139C110.18 291.319 112.678 291.427 115.284 291.442C116.206 291.442 117.113 291.442 118.006 291.442C119.633 291.442 121.217 291.348 122.729 291.247L126.487 301.075Z" fill="white"/>
<path d="M193.472 241.872L99.7041 243.982C99.4265 243.982 99.1518 243.926 98.897 243.816C98.6421 243.706 98.4128 243.544 98.2231 243.342C98.0333 243.139 97.8872 242.9 97.794 242.638C97.7008 242.377 97.6624 242.099 97.6811 241.822L97.753 239.496C97.7609 238.915 97.9876 238.358 98.3879 237.936C98.7883 237.515 99.3327 237.259 99.9129 237.221L193.681 235.112C193.959 235.111 194.233 235.168 194.488 235.278C194.743 235.388 194.973 235.549 195.162 235.752C195.352 235.954 195.498 236.194 195.591 236.455C195.685 236.717 195.723 236.995 195.704 237.272L195.632 239.597C195.626 240.179 195.4 240.737 194.999 241.159C194.599 241.581 194.053 241.836 193.472 241.872Z" fill="#E6F9FF"/>
<path d="M210.37 256.113L81.8848 258.993C81.5576 258.993 81.2342 258.925 80.9344 258.794C80.6346 258.663 80.3651 258.472 80.1427 258.232C79.9203 257.992 79.7499 257.709 79.6421 257.4C79.5343 257.091 79.4914 256.763 79.5162 256.437L79.5665 254.86C79.576 254.179 79.8423 253.526 80.3121 253.032C80.7819 252.538 81.4206 252.24 82.1008 252.197L210.586 249.317C210.912 249.316 211.235 249.382 211.535 249.513C211.834 249.643 212.104 249.834 212.325 250.073C212.547 250.313 212.717 250.596 212.824 250.904C212.931 251.213 212.973 251.54 212.947 251.865L212.897 253.449C212.891 254.131 212.627 254.784 212.158 255.279C211.689 255.773 211.05 256.071 210.37 256.113Z" fill="#E6F9FF"/>
<path d="M222.955 270.455L68.371 273.933C68.013 273.934 67.6586 273.861 67.3302 273.718C67.0019 273.575 66.7067 273.366 66.4632 273.104C66.2196 272.841 66.0332 272.531 65.9154 272.193C65.7977 271.855 65.7514 271.496 65.7792 271.139L65.8153 270.052C65.8336 269.312 66.1283 268.606 66.6414 268.073C67.1545 267.54 67.8486 267.219 68.587 267.172L223.171 263.695C223.528 263.695 223.882 263.768 224.21 263.911C224.538 264.055 224.833 264.264 225.076 264.526C225.319 264.788 225.506 265.098 225.624 265.435C225.742 265.773 225.789 266.131 225.763 266.488L225.727 267.575C225.708 268.315 225.413 269.021 224.9 269.554C224.387 270.087 223.693 270.408 222.955 270.455Z" fill="#E6F9FF"/>
<path d="M206.194 134.468V169.434C206.216 170.654 206.478 171.858 206.966 172.976C207.454 174.094 208.158 175.105 209.038 175.95C209.918 176.796 210.956 177.459 212.093 177.902C213.23 178.345 214.444 178.558 215.663 178.531L235.131 178.456H237.695L246.792 189.588C247.478 190.125 249.132 190.142 249.686 189.472L251.034 187.694L258.081 178.374H258.734L276.531 178.308C278.356 178.309 280.119 177.648 281.493 176.447C282.415 175.642 283.149 174.646 283.643 173.527C284.137 172.408 284.38 171.194 284.354 169.971V138.231C284.392 136.038 283.597 133.913 282.13 132.283C280.663 130.653 278.633 129.64 276.448 129.448L272.677 129.225L215.614 125.842C214.272 125.76 212.928 125.971 211.677 126.463C210.05 127.07 208.651 128.165 207.669 129.598C206.688 131.031 206.173 132.732 206.194 134.468Z" fill="#DD7311"/>
<path d="M207.575 133.566V168.433C207.575 173.478 211.942 177.53 217.152 177.53H235.561H239.192L248.231 188.149C248.38 188.334 248.569 188.483 248.784 188.585C248.999 188.687 249.233 188.741 249.471 188.741C249.709 188.741 249.944 188.687 250.158 188.585C250.373 188.483 250.562 188.334 250.712 188.149L251.043 187.752L258.742 178.423L259.511 177.497L277.871 177.456C279.15 177.449 280.408 177.119 281.526 176.496C282.823 175.764 283.897 174.695 284.637 173.402C285.376 172.11 285.753 170.641 285.727 169.152V137.528C285.755 135.336 284.954 133.215 283.485 131.588C282.016 129.961 279.987 128.949 277.804 128.753L273.479 128.489L217.243 125.065C215.204 124.923 213.174 125.443 211.454 126.545C210.278 127.304 209.308 128.343 208.632 129.568C207.955 130.793 207.592 132.167 207.575 133.566Z" fill="url(#paint6_linear_5488_5102)"/>
<path d="M251.415 158.831L248.264 158.757C247.832 158.737 247.422 158.556 247.116 158.25C246.811 157.944 246.63 157.535 246.61 157.103L245.452 134.881C245.438 134.669 245.472 134.457 245.551 134.259C245.629 134.062 245.751 133.884 245.907 133.74C246.068 133.592 246.26 133.482 246.468 133.416C246.677 133.35 246.897 133.331 247.114 133.36L252.548 133.74C252.772 133.74 252.994 133.785 253.2 133.873C253.407 133.962 253.593 134.091 253.747 134.253C253.902 134.416 254.022 134.608 254.1 134.818C254.178 135.029 254.213 135.253 254.202 135.477L253.077 157.293C253.069 157.504 253.02 157.71 252.933 157.902C252.845 158.093 252.72 158.265 252.566 158.408C252.411 158.551 252.23 158.662 252.032 158.735C251.835 158.807 251.625 158.84 251.415 158.831Z" fill="white"/>
<path d="M246.552 164.257C247.003 163.863 247.527 163.564 248.096 163.376C248.664 163.189 249.264 163.117 249.86 163.165C251.071 163.11 252.256 163.524 253.168 164.323C253.574 164.767 253.884 165.29 254.081 165.859C254.277 166.428 254.355 167.031 254.31 167.631C254.346 168.218 254.261 168.807 254.06 169.36C253.86 169.914 253.548 170.42 253.144 170.848C252.695 171.249 252.172 171.557 251.605 171.754C251.037 171.951 250.435 172.034 249.835 171.998C249.232 172.032 248.628 171.945 248.059 171.74C247.491 171.535 246.97 171.218 246.527 170.807C246.118 170.374 245.8 169.863 245.594 169.305C245.388 168.746 245.297 168.151 245.328 167.556C245.289 166.951 245.378 166.345 245.589 165.776C245.8 165.208 246.128 164.69 246.552 164.257Z" fill="white"/>
<path d="M240.802 210.338C241.263 210.057 241.616 210.655 241.4 211.173C241.347 211.302 241.268 211.419 241.169 211.516C241.069 211.614 240.95 211.69 240.82 211.74C240.69 211.789 240.551 211.812 240.412 211.806C240.273 211.801 240.136 211.766 240.011 211.706C239.571 211.396 240.162 210.705 240.802 210.338Z" fill="url(#paint7_linear_5488_5102)"/>
<path d="M240.731 208.668C241.213 208.308 241.674 208.927 241.494 209.532C241.445 209.678 241.367 209.812 241.265 209.928C241.163 210.043 241.039 210.137 240.9 210.204C240.761 210.271 240.611 210.31 240.457 210.318C240.303 210.326 240.149 210.304 240.004 210.252C239.478 209.992 240.083 209.15 240.731 208.668Z" fill="url(#paint8_linear_5488_5102)"/>
<path d="M247.917 206.313L246.369 204.096L243.208 202.8C243.208 202.8 244.475 200.496 247.391 202.217C248.313 203.189 249.594 205.464 250.991 206.537C252.388 207.609 247.917 206.313 247.917 206.313Z" fill="url(#paint9_linear_5488_5102)"/>
<path d="M259.335 207.955C256.797 205.253 253.674 203.167 250.206 201.856C249.323 202.2 248.569 202.809 248.046 203.599C245.411 207.868 253.712 214.398 251.703 218.639C250.364 221.44 246.145 219.618 240.702 224.269C238.089 226.501 237.823 227.955 238.175 229.035C238.679 230.749 240.695 231.915 241.307 232.253C246.635 235.299 257.686 234.464 262.352 227.718C266.218 222.066 264.641 213.75 259.335 207.955Z" fill="#DA6668"/>
<path d="M255.174 330.414C255.289 329.78 257.334 329.211 258.327 330.054C258.824 330.471 259.17 331.321 258.882 331.702C258.774 331.846 259.206 332.091 258.795 332.091C257.442 332.12 255.066 331.033 255.174 330.414Z" fill="url(#paint10_linear_5488_5102)"/>
<path d="M257.305 330.637L259.392 330.342C258.42 329.183 258.601 325.475 258.601 325.475L256.383 325.972C256.383 325.972 256.635 326.987 257.067 328.484C257.224 329.191 257.304 329.913 257.305 330.637Z" fill="url(#paint11_linear_5488_5102)"/>
<path d="M257.118 330.385C257.118 330.385 259.63 329.802 259.904 330.306C260.177 330.81 260.386 332.134 258.795 332.091C257.204 332.048 256.981 330.802 257.118 330.385Z" fill="url(#paint12_linear_5488_5102)"/>
<path d="M226.541 332.768C226.735 332.163 228.83 331.882 229.702 332.854C230.141 333.337 230.364 334.23 230.026 334.568C229.896 334.69 230.292 334.993 229.882 334.935C228.528 334.763 226.339 333.373 226.541 332.768Z" fill="url(#paint13_linear_5488_5102)"/>
<path d="M228.643 333.294H230.745C229.953 332.005 230.652 328.354 230.652 328.354L228.383 328.534C228.383 328.534 228.492 329.578 228.708 331.126C228.765 331.849 228.743 332.576 228.643 333.294Z" fill="url(#paint14_linear_5488_5102)"/>
<path d="M223.15 253.579C221.67 258.47 220.577 263.47 219.881 268.533C217.318 287.158 222.761 287.756 221.746 308.397C221.422 314.985 227.455 330.176 227.988 330.507C228.263 330.526 228.54 330.526 228.816 330.507C229.548 330.483 230.274 330.365 230.976 330.154C231.933 329.989 235.382 320.658 234.575 315.107C234.007 311.183 234.172 306.964 234.503 298.548C234.554 297.18 238.046 271.981 238.046 271.981C239.111 281.341 240.335 289.26 241.393 295.38C244.799 315.122 255.865 327.059 256.441 327.267C256.764 327.394 257.111 327.447 257.457 327.424C257.803 327.4 258.139 327.3 258.442 327.131C258.661 326.99 258.838 326.794 258.954 326.562C259.249 326.324 258.867 306.849 255.49 292.183C250.587 270.901 252.719 265.926 251.171 256.423C249.796 248.222 223.15 253.579 223.15 253.579Z" fill="#233F52"/>
<path d="M221.839 256.79C227.933 259.649 234.734 260.65 241.394 259.67C244.801 259.158 248.097 258.072 251.142 256.459C248.802 249.367 250.638 245.566 251.502 242.06C252.74 237.07 252.762 237.445 253.777 233.478C255.454 226.94 255.735 220.252 254.583 218.891C252.172 216.011 248.284 215.291 245.289 215.09C244.41 215.025 243.611 215.003 242.942 214.982C240.511 214.783 238.071 214.721 235.634 214.795C232.905 214.982 230.097 215.637 228.096 217.444C228.024 217.509 228.866 217.962 228.449 218.445C227.362 219.743 226.398 221.138 225.569 222.613C224.521 224.53 223.699 226.562 223.121 228.668C222.117 232.108 221.473 235.643 221.199 239.216C220.414 249.115 221.163 253.687 221.839 256.79Z" fill="#DA6668"/>
<path d="M228.463 333.013C228.463 333.013 231.033 332.79 231.235 333.322C231.436 333.855 231.458 335.202 229.881 334.935C228.304 334.669 228.261 333.409 228.463 333.013Z" fill="url(#paint15_linear_5488_5102)"/>
<path d="M235.123 215.522C235.123 216.415 237.448 217.142 240.321 217.142C243.194 217.142 245.519 216.422 245.519 215.522C245.514 215.358 245.444 215.203 245.325 215.09C244.447 215.025 243.647 215.003 242.978 214.982C240.547 214.783 238.107 214.721 235.67 214.795C235.288 215.018 235.123 215.263 235.123 215.522Z" fill="url(#paint16_linear_5488_5102)"/>
<path d="M238.895 214.831C239.191 214.154 239.493 213.477 239.795 212.801C239.529 212.541 237.808 211.253 237.844 209.791C237.895 207.811 239.464 206.306 239.774 206.004C241.07 204.729 241.344 204.564 241.819 204.449L242.467 204.276H242.539C243.166 204.337 243.782 204.487 244.368 204.722C245.088 205.125 244.943 208.531 243.338 212.923L243.273 213.463C243.129 214.601 242.935 215.681 242.712 216.71C242.712 216.703 239.745 216.833 238.895 214.831Z" fill="url(#paint17_linear_5488_5102)"/>
<path d="M240.523 203.599C240.402 204.018 240.411 204.464 240.549 204.878C240.686 205.292 240.946 205.654 241.293 205.918C241.442 206.138 241.554 206.381 241.624 206.638C241.629 206.7 241.629 206.763 241.624 206.825C241.624 207.79 239.961 208.387 240.105 208.863C240.213 209.201 241.271 209.115 241.307 209.395C241.343 209.676 240.414 209.892 240.45 210.202C240.486 210.511 241.012 210.396 241.221 210.806C241.322 211.015 241.221 211.123 241.221 211.656C241.226 211.939 241.255 212.221 241.307 212.498C241.538 213.456 242.798 214.169 243.158 213.938C243.259 213.866 243.223 213.773 243.388 213.492C243.516 213.298 243.668 213.121 243.842 212.966C244.47 212.593 245.156 212.328 245.872 212.182C246.767 211.943 247.569 211.441 248.176 210.742C248.228 210.68 248.276 210.615 248.32 210.547C249.02 209.529 249.347 208.301 249.249 207.07C248.954 205.299 246.995 205.493 246.052 203.534C245.519 202.44 245.203 201.295 243.935 200.842C243.486 200.673 242.991 200.665 242.536 200.819C242.081 200.972 241.693 201.278 241.437 201.684C241.039 202.273 240.73 202.919 240.523 203.599Z" fill="#26264F"/>
<path d="M236.303 201.497L238.463 200.179C239.147 199.925 239.882 199.84 240.605 199.932C241.328 200.024 242.019 200.289 242.618 200.705C244.778 202.145 243.863 203.174 243.863 203.174L242.265 202.454C241.834 202.314 241.379 202.262 240.928 202.302C240.476 202.341 240.037 202.472 239.637 202.685C238.627 203 237.569 203.137 236.512 203.088L236.303 201.497Z" fill="url(#paint18_linear_5488_5102)"/>
<path d="M226.296 199.646C229.827 198.513 233.57 198.202 237.239 198.739C237.855 199.472 238.23 200.377 238.312 201.331C238.543 206.371 228.096 208.063 227.822 212.706C227.635 215.809 232.207 216.263 234.712 222.966C235.915 226.184 235.432 227.574 234.612 228.366C233.337 229.618 231.012 229.647 230.292 229.662C224.158 229.741 214.892 223.657 214.085 215.493C213.43 208.639 218.852 202.137 226.296 199.646Z" fill="#DA6668"/>
<path d="M51.7398 210.547C66.8495 210.547 79.0984 198.298 79.0984 183.188C79.0984 168.078 66.8495 155.83 51.7398 155.83C36.63 155.83 24.3811 168.078 24.3811 183.188C24.3811 198.298 36.63 210.547 51.7398 210.547Z" fill="#FAB1A5"/>
<path d="M63.1484 183.108H60.6691C60.9304 183.82 61.0635 184.573 61.0622 185.331V194.702C61.0631 195.019 61.0088 195.334 60.9018 195.633H65.0019C65.7389 195.631 66.4448 195.337 66.9652 194.815C67.4856 194.293 67.7779 193.586 67.7779 192.849V187.738C67.7758 186.511 67.2874 185.334 66.4197 184.467C65.5519 183.599 64.3756 183.111 63.1484 183.108Z" fill="white"/>
<path d="M42.4252 185.299C42.424 184.54 42.5571 183.788 42.8184 183.076H40.3312C39.104 183.078 37.9277 183.567 37.0599 184.435C36.1922 185.302 35.7038 186.479 35.7017 187.706V192.825C35.7059 193.561 36.0008 194.266 36.5222 194.786C37.0437 195.306 37.7494 195.599 38.4858 195.601H42.5857C42.4786 195.302 42.4244 194.987 42.4252 194.67V185.299Z" fill="white"/>
<path d="M54.5802 180.701H48.9078C47.6807 180.703 46.5044 181.192 45.6367 182.059C44.769 182.927 44.2806 184.103 44.2785 185.33V194.701C44.2774 194.823 44.3006 194.944 44.3464 195.057C44.3923 195.17 44.4601 195.273 44.5458 195.359C44.6316 195.446 44.7337 195.514 44.8461 195.561C44.9586 195.608 45.0792 195.632 45.2011 195.632H58.2787C58.5255 195.632 58.7623 195.534 58.9368 195.36C59.1114 195.185 59.2095 194.948 59.2095 194.701V185.33C59.2074 184.103 58.7188 182.927 57.8511 182.059C56.9834 181.192 55.8073 180.703 54.5802 180.701Z" fill="white"/>
<path d="M51.7401 168.386C50.6365 168.384 49.5573 168.71 48.639 169.322C47.7208 169.934 47.0047 170.805 46.5817 171.824C46.1586 172.844 46.0477 173.965 46.2626 175.048C46.4775 176.13 47.0088 177.125 47.7891 177.905C48.5694 178.685 49.5636 179.217 50.6461 179.432C51.7285 179.647 52.8505 179.535 53.8698 179.112C54.889 178.689 55.7599 177.973 56.372 177.055C56.9841 176.137 57.3099 175.058 57.3083 173.954C57.2958 172.481 56.705 171.072 55.6635 170.03C54.6219 168.989 53.213 168.398 51.7401 168.386Z" fill="white"/>
<path d="M41.9681 173.576C41.2311 173.576 40.5071 173.772 39.8703 174.143C39.2336 174.514 38.7069 175.048 38.3438 175.689C37.9807 176.33 37.7942 177.057 37.8036 177.794C37.8129 178.531 38.0178 179.252 38.3971 179.884C38.7764 180.516 39.3166 181.036 39.9626 181.39C40.6086 181.745 41.3373 181.922 42.0741 181.903C42.8108 181.885 43.5293 181.671 44.1563 181.283C44.7833 180.896 45.2962 180.349 45.6427 179.698C45.9611 179.095 46.1291 178.423 46.1322 177.741C46.1301 176.637 45.6906 175.579 44.9101 174.798C44.1296 174.018 43.0718 173.579 41.9681 173.576Z" fill="white"/>
<path d="M61.5199 173.576C60.8011 173.577 60.0944 173.763 59.4688 174.117C58.8432 174.471 58.3201 174.981 57.9501 175.597C57.5801 176.214 57.376 176.915 57.3576 177.634C57.3392 178.353 57.5072 179.064 57.8451 179.698C58.2819 180.518 58.9802 181.168 59.8289 181.545C60.6775 181.922 61.6279 182.005 62.5289 181.78C63.4299 181.555 64.2299 181.035 64.8016 180.303C65.3733 179.571 65.6838 178.669 65.6841 177.741C65.6819 176.637 65.2426 175.579 64.4621 174.798C63.6817 174.018 62.6237 173.579 61.5199 173.576Z" fill="white"/>
<path d="M199.685 175.283C199.685 200.108 179.166 220.569 153.334 220.987C145.271 221.129 137.301 219.259 130.144 215.544C122.511 211.589 116.101 205.628 111.605 198.301C107.294 191.257 105.014 183.16 105.017 174.902C105.017 148.983 126.897 128.565 153.334 129.206C179.166 129.825 199.685 150.452 199.685 175.283Z" fill="#F4FCFF"/>
<path d="M166.916 170.498L138.501 170.755C137.459 170.754 136.458 171.164 135.716 171.896C134.974 172.628 134.55 173.623 134.536 174.665V193.305C134.54 193.811 134.647 194.31 134.85 194.772C135.054 195.234 135.35 195.65 135.72 195.994C136.09 196.338 136.526 196.603 137.002 196.772C137.478 196.941 137.984 197.011 138.488 196.977L166.802 195.788C167.783 195.736 168.707 195.312 169.387 194.603C170.067 193.894 170.451 192.952 170.461 191.97L170.549 174.137C170.554 173.659 170.463 173.184 170.282 172.74C170.102 172.297 169.834 171.894 169.496 171.556C169.158 171.217 168.755 170.949 168.312 170.767C167.87 170.586 167.395 170.494 166.916 170.498Z" fill="url(#paint19_linear_5488_5102)"/>
<path d="M156.977 180.05C156.978 179.492 156.867 178.941 156.651 178.429C156.434 177.918 156.116 177.459 155.718 177.079C155.319 176.7 154.849 176.41 154.335 176.226C153.822 176.042 153.277 175.97 152.735 176.013C151.725 176.088 150.776 176.534 150.061 177.267C149.345 178.001 148.912 178.974 148.839 180.009C148.792 180.77 148.958 181.528 149.318 182.195C149.677 182.863 150.215 183.411 150.868 183.776C151.135 183.927 151.349 184.16 151.479 184.443C151.609 184.727 151.648 185.045 151.59 185.352L150.677 190.71C150.648 190.869 150.656 191.032 150.698 191.187C150.74 191.342 150.817 191.486 150.921 191.607C151.025 191.727 151.155 191.822 151.3 191.884C151.445 191.946 151.603 191.974 151.76 191.964L154.063 191.879C154.223 191.875 154.38 191.836 154.524 191.764C154.667 191.693 154.795 191.591 154.897 191.465C155 191.34 155.075 191.193 155.118 191.036C155.161 190.878 155.17 190.713 155.146 190.551L154.265 185.245C154.22 184.931 154.268 184.61 154.402 184.324C154.535 184.038 154.749 183.8 155.016 183.639C155.613 183.26 156.107 182.732 156.45 182.104C156.793 181.476 156.974 180.769 156.977 180.05Z" fill="#D18F0B"/>
<path d="M166.518 168.631C166.315 168.632 166.113 168.592 165.925 168.514C165.737 168.436 165.567 168.322 165.423 168.178C165.28 168.033 165.166 167.862 165.09 167.674C165.013 167.485 164.975 167.283 164.977 167.08L165.006 163.004C165.014 161.033 164.243 159.14 162.86 157.736C161.478 156.332 159.597 155.532 157.627 155.51L148.35 155.415C147.341 155.398 146.339 155.582 145.402 155.955C144.464 156.329 143.61 156.884 142.889 157.59C142.167 158.296 141.593 159.138 141.2 160.067C140.806 160.996 140.601 161.995 140.596 163.004V167.2C140.592 167.635 140.415 168.05 140.106 168.356C139.796 168.661 139.379 168.831 138.944 168.829C138.729 168.833 138.516 168.795 138.317 168.716C138.117 168.637 137.935 168.52 137.781 168.371C137.627 168.221 137.504 168.043 137.419 167.846C137.334 167.649 137.288 167.438 137.286 167.223V163.004C137.296 161.566 137.593 160.145 138.157 158.823C138.721 157.501 139.543 156.305 140.573 155.303C141.604 154.301 142.823 153.513 144.16 152.986C145.498 152.459 146.926 152.203 148.363 152.232L157.643 152.366C160.438 152.408 163.103 153.55 165.061 155.544C167.019 157.539 168.112 160.225 168.102 163.02L168.082 167.07C168.08 167.484 167.915 167.88 167.622 168.173C167.329 168.465 166.932 168.63 166.518 168.631Z" fill="#FCBE21"/>
<path d="M305.887 304.862C321.394 304.862 333.965 292.291 333.965 276.784C333.965 261.276 321.394 248.705 305.887 248.705C290.379 248.705 277.808 261.276 277.808 276.784C277.808 292.291 290.379 304.862 305.887 304.862Z" fill="#E0FFEE"/>
<path fill-rule="evenodd" clip-rule="evenodd" d="M316.976 266.351C316.789 266.526 316.54 266.624 316.281 266.624C316.022 266.624 315.772 266.526 315.586 266.351C314.409 265.198 313.01 264.283 311.469 263.658C309.928 263.034 308.275 262.712 306.606 262.712C304.937 262.712 303.284 263.034 301.743 263.658C300.201 264.283 298.802 265.198 297.626 266.351C297.439 266.526 297.19 266.624 296.931 266.624C296.672 266.624 296.423 266.526 296.236 266.351C296.143 266.263 296.069 266.158 296.019 266.042C295.969 265.926 295.943 265.801 295.943 265.675C295.943 265.549 295.969 265.425 296.019 265.309C296.069 265.193 296.143 265.088 296.236 265C297.596 263.671 299.212 262.617 300.992 261.897C302.771 261.178 304.679 260.808 306.606 260.808C308.533 260.808 310.44 261.178 312.22 261.897C313.999 262.617 315.615 263.671 316.976 265C317.068 265.088 317.142 265.193 317.192 265.309C317.243 265.425 317.269 265.549 317.269 265.675C317.269 265.801 317.243 265.926 317.192 266.042C317.142 266.158 317.068 266.263 316.976 266.351ZM314.189 269.137C314.099 269.228 313.992 269.3 313.873 269.35C313.754 269.399 313.627 269.424 313.498 269.424C313.369 269.424 313.241 269.399 313.122 269.35C313.004 269.3 312.896 269.228 312.806 269.137C311.993 268.334 311.026 267.697 309.962 267.263C308.898 266.828 307.758 266.604 306.606 266.604C305.454 266.604 304.313 266.828 303.249 267.263C302.185 267.697 301.219 268.334 300.405 269.137C300.315 269.228 300.208 269.3 300.089 269.35C299.97 269.399 299.843 269.424 299.714 269.424C299.585 269.424 299.457 269.399 299.338 269.35C299.219 269.3 299.112 269.228 299.022 269.137C298.843 268.954 298.743 268.71 298.743 268.455C298.743 268.201 298.843 267.957 299.022 267.774C301.034 265.796 303.762 264.685 306.606 264.685C309.449 264.685 312.177 265.796 314.189 267.774C314.368 267.957 314.468 268.201 314.468 268.455C314.468 268.71 314.368 268.954 314.189 269.137ZM309.876 282.494C309.948 282.609 310.042 282.709 310.153 282.788C310.376 282.948 310.654 283.012 310.925 282.967C311.196 282.922 311.438 282.772 311.598 282.548L321.951 268.053C322.037 267.943 322.099 267.817 322.134 267.682C322.17 267.547 322.178 267.406 322.158 267.268C322.138 267.13 322.09 266.998 322.017 266.879C321.944 266.76 321.849 266.656 321.735 266.575C321.622 266.494 321.493 266.437 321.357 266.407C321.22 266.376 321.08 266.374 320.942 266.4C320.805 266.425 320.675 266.478 320.559 266.556C320.442 266.633 320.343 266.733 320.267 266.849L309.914 281.344C309.834 281.455 309.778 281.58 309.747 281.712C309.716 281.844 309.711 281.982 309.733 282.116C309.756 282.25 309.804 282.378 309.876 282.494ZM291.276 268.054L301.631 282.549C301.795 282.76 302.035 282.9 302.299 282.939C302.564 282.977 302.834 282.912 303.052 282.756C303.27 282.6 303.419 282.367 303.468 282.103C303.517 281.84 303.462 281.568 303.315 281.344L292.96 266.849C292.884 266.733 292.785 266.633 292.668 266.556C292.552 266.478 292.422 266.425 292.285 266.4C292.147 266.374 292.007 266.377 291.87 266.407C291.734 266.437 291.605 266.494 291.492 266.575C291.378 266.657 291.282 266.76 291.21 266.879C291.137 266.998 291.089 267.13 291.069 267.269C291.049 267.407 291.057 267.547 291.093 267.682C291.128 267.817 291.19 267.943 291.276 268.054ZM311.064 272.148C311.181 272.097 311.286 272.022 311.373 271.928C311.466 271.84 311.539 271.732 311.59 271.613C311.64 271.495 311.667 271.366 311.667 271.237C311.668 271.107 311.643 270.979 311.593 270.859C311.544 270.74 311.471 270.632 311.379 270.542C310.096 269.273 308.38 268.563 306.594 268.563C304.808 268.563 303.092 269.273 301.809 270.542C301.635 270.727 301.54 270.975 301.543 271.231C301.545 271.487 301.646 271.732 301.824 271.913C302.001 272.094 302.241 272.197 302.491 272.2C302.742 272.203 302.984 272.106 303.165 271.928C304.088 271.027 305.316 270.525 306.592 270.525C307.868 270.525 309.096 271.027 310.019 271.928C310.106 272.022 310.211 272.097 310.327 272.148C310.444 272.199 310.569 272.225 310.696 272.225C310.822 272.225 310.948 272.199 311.064 272.148ZM305.109 272.854C305.615 272.55 306.203 272.407 306.793 272.445C307.498 272.49 308.163 272.791 308.663 273.29C309.162 273.79 309.463 274.455 309.508 275.16C309.546 275.75 309.403 276.338 309.099 276.844C308.795 277.351 308.343 277.753 307.804 277.997C307.266 278.241 306.666 278.315 306.084 278.209C305.503 278.103 304.967 277.822 304.549 277.404C304.131 276.986 303.85 276.45 303.744 275.869C303.638 275.287 303.712 274.687 303.956 274.149C304.2 273.61 304.602 273.158 305.109 272.854Z" fill="#325167"/>
<path d="M323.248 280.912H289.98C289.843 280.91 289.708 280.936 289.582 280.988C289.456 281.039 289.341 281.115 289.245 281.211C289.148 281.308 289.072 281.422 289.02 281.548C288.968 281.674 288.942 281.81 288.944 281.946V290.228C288.942 290.365 288.968 290.5 289.02 290.626C289.072 290.753 289.148 290.867 289.244 290.964C289.341 291.06 289.456 291.136 289.582 291.188C289.708 291.24 289.843 291.266 289.98 291.265H323.248C323.384 291.266 323.519 291.24 323.646 291.188C323.772 291.136 323.886 291.06 323.983 290.964C324.079 290.867 324.156 290.753 324.207 290.626C324.259 290.5 324.285 290.365 324.284 290.228V281.946C324.285 281.81 324.259 281.674 324.207 281.548C324.156 281.422 324.079 281.308 323.983 281.211C323.886 281.115 323.772 281.039 323.645 280.988C323.519 280.936 323.384 280.91 323.248 280.912Z" fill="#4690A4"/>
<path d="M304.147 286.087C304.147 286.292 304.086 286.493 303.972 286.663C303.858 286.834 303.696 286.966 303.507 287.045C303.318 287.123 303.109 287.144 302.908 287.104C302.707 287.064 302.523 286.965 302.378 286.82C302.233 286.675 302.134 286.491 302.094 286.29C302.054 286.089 302.075 285.88 302.153 285.691C302.232 285.502 302.364 285.34 302.535 285.226C302.705 285.112 302.906 285.051 303.111 285.051C303.385 285.051 303.649 285.16 303.843 285.355C304.038 285.549 304.147 285.813 304.147 286.087Z" fill="white"/>
<path d="M308.287 286.087C308.287 286.292 308.227 286.493 308.113 286.663C307.999 286.834 307.837 286.966 307.648 287.045C307.458 287.123 307.25 287.144 307.049 287.104C306.848 287.064 306.663 286.965 306.519 286.82C306.374 286.675 306.275 286.491 306.235 286.29C306.195 286.089 306.216 285.88 306.294 285.691C306.372 285.502 306.505 285.34 306.676 285.226C306.846 285.112 307.046 285.051 307.251 285.051C307.387 285.051 307.522 285.078 307.648 285.13C307.774 285.182 307.888 285.258 307.985 285.354C308.081 285.45 308.157 285.565 308.209 285.691C308.261 285.816 308.288 285.951 308.287 286.087Z" fill="white"/>
<path d="M312.43 286.087C312.43 286.292 312.369 286.493 312.255 286.663C312.141 286.834 311.979 286.966 311.79 287.045C311.601 287.123 311.392 287.144 311.191 287.104C310.99 287.064 310.806 286.965 310.661 286.82C310.516 286.675 310.417 286.491 310.377 286.29C310.337 286.089 310.358 285.88 310.436 285.691C310.514 285.502 310.647 285.34 310.818 285.226C310.988 285.112 311.188 285.051 311.393 285.051C311.668 285.051 311.932 285.16 312.126 285.355C312.32 285.549 312.43 285.813 312.43 286.087Z" fill="white"/>
<defs>
<linearGradient id="paint0_linear_5488_5102" x1="79.0984" y1="-123.517" x2="206.836" y2="233.265" gradientUnits="userSpaceOnUse">
<stop stop-color="#76EEDA"/>
<stop offset="0.880208" stop-color="white"/>
</linearGradient>
<linearGradient id="paint1_linear_5488_5102" x1="-300.05" y1="-416.238" x2="53.9174" y2="370.084" gradientUnits="userSpaceOnUse">
<stop stop-color="#43DFC5"/>
<stop offset="1" stop-color="white" stop-opacity="0.63"/>
</linearGradient>
<linearGradient id="paint2_linear_5488_5102" x1="78.5009" y1="334.057" x2="156.272" y2="334.057" gradientUnits="userSpaceOnUse">
<stop stop-color="#FFC444"/>
<stop offset="1" stop-color="#F36F56"/>
</linearGradient>
<linearGradient id="paint3_linear_5488_5102" x1="136.588" y1="322.559" x2="123.441" y2="358.787" gradientUnits="userSpaceOnUse">
<stop stop-color="#FFC444"/>
<stop offset="0.59" stop-color="#F8924F"/>
<stop offset="1" stop-color="#F36F56"/>
</linearGradient>
<linearGradient id="paint4_linear_5488_5102" x1="123.009" y1="317.39" x2="109.085" y2="355.771" gradientUnits="userSpaceOnUse">
<stop stop-color="#FFC444"/>
<stop offset="0.59" stop-color="#F8924F"/>
<stop offset="1" stop-color="#F36F56"/>
</linearGradient>
<linearGradient id="paint5_linear_5488_5102" x1="117.667" y1="259.749" x2="114.838" y2="351.905" gradientUnits="userSpaceOnUse">
<stop stop-color="#FFC444"/>
<stop offset="1" stop-color="#F36F56"/>
</linearGradient>
<linearGradient id="paint6_linear_5488_5102" x1="246.011" y1="131.448" x2="241.855" y2="189.123" gradientUnits="userSpaceOnUse">
<stop stop-color="#F49237"/>
<stop offset="1" stop-color="#FAD982"/>
</linearGradient>
<linearGradient id="paint7_linear_5488_5102" x1="241.66" y1="208.266" x2="238.407" y2="218.237" gradientUnits="userSpaceOnUse">
<stop stop-color="#FFC444"/>
<stop offset="1" stop-color="#F36F56"/>
</linearGradient>
<linearGradient id="paint8_linear_5488_5102" x1="241.293" y1="203.98" x2="236.058" y2="251.162" gradientUnits="userSpaceOnUse">
<stop stop-color="#FFC444"/>
<stop offset="1" stop-color="#F36F56"/>
</linearGradient>
<linearGradient id="paint9_linear_5488_5102" x1="249.765" y1="222.216" x2="256.66" y2="230.503" gradientUnits="userSpaceOnUse">
<stop stop-color="#FFC444"/>
<stop offset="1" stop-color="#F36F56"/>
</linearGradient>
<linearGradient id="paint10_linear_5488_5102" x1="253.185" y1="328.3" x2="257.655" y2="331.274" gradientUnits="userSpaceOnUse">
<stop stop-color="#444B8C"/>
<stop offset="1" stop-color="#26264F"/>
</linearGradient>
<linearGradient id="paint11_linear_5488_5102" x1="257.641" y1="331.3" x2="256.663" y2="324.386" gradientUnits="userSpaceOnUse">
<stop stop-color="#FFC444"/>
<stop offset="1" stop-color="#F36F56"/>
</linearGradient>
<linearGradient id="paint12_linear_5488_5102" x1="253.52" y1="327.794" x2="257.99" y2="330.768" gradientUnits="userSpaceOnUse">
<stop stop-color="#444B8C"/>
<stop offset="1" stop-color="#26264F"/>
</linearGradient>
<linearGradient id="paint13_linear_5488_5102" x1="225.677" y1="330.817" x2="229.687" y2="334.381" gradientUnits="userSpaceOnUse">
<stop stop-color="#444B8C"/>
<stop offset="1" stop-color="#26264F"/>
</linearGradient>
<linearGradient id="paint14_linear_5488_5102" x1="229.535" y1="334.388" x2="229.535" y2="327.404" gradientUnits="userSpaceOnUse">
<stop stop-color="#FFC444"/>
<stop offset="1" stop-color="#F36F56"/>
</linearGradient>
<linearGradient id="paint15_linear_5488_5102" x1="226.079" y1="330.363" x2="230.09" y2="333.927" gradientUnits="userSpaceOnUse">
<stop stop-color="#444B8C"/>
<stop offset="1" stop-color="#26264F"/>
</linearGradient>
<linearGradient id="paint16_linear_5488_5102" x1="241.559" y1="204.009" x2="236.332" y2="251.191" gradientUnits="userSpaceOnUse">
<stop stop-color="#FFC444"/>
<stop offset="1" stop-color="#F36F56"/>
</linearGradient>
<linearGradient id="paint17_linear_5488_5102" x1="241.776" y1="204.031" x2="236.548" y2="251.22" gradientUnits="userSpaceOnUse">
<stop stop-color="#FFC444"/>
<stop offset="1" stop-color="#F36F56"/>
</linearGradient>
<linearGradient id="paint18_linear_5488_5102" x1="233.429" y1="207.91" x2="227.149" y2="209.669" gradientUnits="userSpaceOnUse">
<stop stop-color="#FFC444"/>
<stop offset="1" stop-color="#F36F56"/>
</linearGradient>
<linearGradient id="paint19_linear_5488_5102" x1="152.535" y1="170.229" x2="151.043" y2="193.171" gradientUnits="userSpaceOnUse">
<stop stop-color="#FFC42C"/>
<stop offset="1" stop-color="#FFF5DC"/>
</linearGradient>
</defs>
</svg>
