<svg width="96" height="80" viewBox="0 0 96 80" fill="none" xmlns="http://www.w3.org/2000/svg">
<path d="M39.5469 10.4232C39.8623 10.2601 40.1558 10.1098 40.4462 9.95541C40.4889 9.92549 40.5231 9.88481 40.5451 9.83748C41.4288 8.08786 42.9376 6.73441 44.7717 6.04609C46.4915 5.37032 48.3952 5.33041 50.1405 5.93353C50.4375 6.0315 50.7223 6.15986 51.0061 6.28511C51.0837 6.33009 51.1698 6.35852 51.259 6.36866C51.3482 6.3788 51.4386 6.37042 51.5244 6.34402C51.6103 6.31763 51.6898 6.27381 51.758 6.21529C51.8261 6.15677 51.8815 6.08481 51.9207 6.00392C51.958 5.92364 51.9785 5.83659 51.9809 5.74813C51.9833 5.65967 51.9676 5.57166 51.9348 5.48953C51.902 5.4074 51.8527 5.33288 51.7899 5.27056C51.7272 5.20824 51.6524 5.15944 51.5701 5.12716C49.6709 4.21961 47.5175 3.99127 45.469 4.48016C43.4205 4.96906 41.6005 6.14568 40.3126 7.8139C39.9612 8.27063 39.6542 8.75992 39.396 9.27509C39.367 9.33813 39.3572 9.40824 39.3677 9.47676C39.4187 9.78712 39.4833 10.0963 39.5469 10.4232Z" fill="#F2385A"/>
<path d="M39.2343 11.0649L39.0498 10.1133C38.8939 9.31581 38.7433 8.51825 38.5843 7.72184C38.5683 7.59409 38.5125 7.4747 38.4247 7.38067C38.3369 7.28663 38.2217 7.22277 38.0954 7.1982C37.9733 7.16672 37.8444 7.17344 37.7261 7.21744C37.6078 7.26144 37.5058 7.3406 37.4337 7.44431C37.3754 7.52409 37.3357 7.61596 37.3175 7.71312C37.2993 7.81029 37.3032 7.91028 37.3288 8.00571C37.5212 8.98711 37.7119 9.96854 37.9008 10.95L38.1206 12.0953C38.1313 12.2051 38.17 12.3104 38.2329 12.4011C38.2959 12.4917 38.381 12.5646 38.4802 12.6129C38.5793 12.6612 38.6892 12.6833 38.7994 12.677C38.9096 12.6707 39.0163 12.6363 39.1094 12.577L42.8331 10.6533C42.9534 10.6015 43.0546 10.5135 43.1227 10.4015C43.1907 10.2895 43.2222 10.1591 43.2127 10.0284C43.2098 9.90669 43.1707 9.78862 43.1005 9.68924C43.0303 9.58986 42.932 9.51366 42.8183 9.47037C42.7228 9.43173 42.6195 9.41607 42.5168 9.42461C42.414 9.43316 42.3147 9.46568 42.2267 9.51957L39.7394 10.8048L39.2343 11.0649Z" fill="#F2385A"/>
<path d="M65.8514 39.8332C65.5416 40.0066 65.2532 40.1665 64.9681 40.3304C64.9263 40.3617 64.8935 40.4035 64.8731 40.4515C64.0476 42.2294 62.5843 43.6319 60.7739 44.3803C59.0773 45.1125 57.176 45.2152 55.4118 44.67C55.1117 44.5819 54.8228 44.463 54.535 44.3472C54.4559 44.3048 54.3689 44.2792 54.2794 44.272C54.19 44.2648 54.0999 44.2762 54.015 44.3054C53.9301 44.3346 53.8521 44.381 53.7859 44.4418C53.7197 44.5025 53.6666 44.5763 53.6302 44.6584C53.5956 44.7399 53.578 44.8276 53.5785 44.916C53.5789 45.0045 53.5975 45.092 53.6331 45.173C53.6686 45.254 53.7203 45.3268 53.7851 45.3871C53.8498 45.4473 53.9262 45.4936 54.0095 45.5231C55.9377 46.3675 58.0974 46.5247 60.1287 45.9684C62.16 45.4122 63.9401 44.1762 65.1723 42.4663C65.5084 41.9983 65.799 41.4991 66.0402 40.9757C66.067 40.9117 66.0745 40.8413 66.0617 40.7732C66.0005 40.4647 65.9258 40.1578 65.8514 39.8332Z" fill="#F2385A"/>
<path d="M66.1427 39.1813L66.3585 40.1263C66.5406 40.9182 66.7175 41.7103 66.9027 42.501C66.9228 42.6282 66.9826 42.7457 67.0734 42.8368C67.1643 42.9279 67.2816 42.9879 67.4086 43.0083C67.5317 43.0357 67.6602 43.0247 67.777 42.9769C67.8938 42.929 67.9931 42.8465 68.0617 42.7405C68.1174 42.6588 68.1541 42.5657 68.1691 42.468C68.184 42.3702 68.1769 42.2704 68.1481 42.1759C67.9234 41.2014 67.7004 40.2268 67.4792 39.2521L67.2218 38.1147C67.2074 38.0052 67.1653 37.9013 67.0994 37.8128C67.0335 37.7243 66.946 37.6542 66.8453 37.6092C66.7446 37.5642 66.634 37.5457 66.5241 37.5557C66.4142 37.5656 66.3087 37.6036 66.2176 37.6659L62.5594 39.7114C62.4409 39.7671 62.3426 39.8584 62.2783 39.9726C62.214 40.0868 62.1868 40.2182 62.2006 40.3484C62.2076 40.47 62.2505 40.5867 62.324 40.6838C62.3974 40.7808 62.4981 40.8537 62.6132 40.8932C62.71 40.9287 62.8137 40.9409 62.9161 40.929C63.0185 40.917 63.1168 40.8813 63.2029 40.8245L65.6464 39.4579L66.1427 39.1813Z" fill="#F2385A"/>
<path d="M45.9196 24.4707H0.954575C0.427378 24.4707 0 25.282 0 26.2829V78.1864C0 79.1873 0.427378 79.9986 0.954575 79.9986H45.9196C46.4468 79.9986 46.8742 79.1873 46.8742 78.1864V26.2829C46.8742 25.282 46.4468 24.4707 45.9196 24.4707Z" fill="#E6F9FF"/>
<path d="M0.95455 24.4707H45.9197C46.1728 24.4707 46.4156 24.6841 46.5946 25.0639C46.7736 25.4437 46.8742 25.9589 46.8742 26.496V28.7976H0V26.496C0 25.9589 0.100568 25.4437 0.279581 25.0639C0.458594 24.6841 0.701388 24.4707 0.95455 24.4707Z" fill="#035970"/>
<rect x="4.3269" y="66.2969" width="38.2205" height="2.16343" rx="1.08171" fill="white"/>
<rect x="4.3269" y="59.085" width="25.24" height="2.16343" rx="1.08171" fill="white"/>
<rect x="24.7144" y="36.999" width="12" height="2" rx="1" fill="#FAB1A5"/>
<rect x="25.0767" y="41.0557" width="11.6377" height="2.16343" rx="1.08171" fill="#FAB1A5"/>
<rect x="4.3269" y="51.874" width="38.2205" height="2.16343" rx="1.08171" fill="white"/>
<circle cx="4.04148" cy="26.6101" r="0.950904" fill="#FAB1A5"/>
<circle cx="7.13181" cy="26.6101" r="0.950904" fill="#20C9AD"/>
<circle cx="10.2224" cy="26.6101" r="0.950904" fill="#F2BE38"/>
<path d="M5.14339 40.2664C5.14339 38.7264 5.14339 37.1868 5.14339 35.6476C5.13482 35.4203 5.17304 35.1937 5.25567 34.9818C5.3383 34.7699 5.46359 34.5772 5.62374 34.4158C5.78389 34.2544 5.97549 34.1277 6.18663 34.0436C6.39778 33.9594 6.62396 33.9196 6.85112 33.9266H16.1215C16.3477 33.9195 16.5729 33.9588 16.7833 34.0422C16.9937 34.1256 17.1848 34.2512 17.3449 34.4114C17.5049 34.5715 17.6304 34.7628 17.7137 34.9734C17.797 35.184 17.8363 35.4094 17.8292 35.6358V44.922C17.8362 45.1468 17.7974 45.3707 17.7153 45.58C17.6331 45.7893 17.5092 45.9797 17.3512 46.1396C17.1931 46.2995 17.0043 46.4255 16.796 46.51C16.5878 46.5945 16.3645 46.6358 16.1399 46.6312C13.0414 46.6312 9.94256 46.6312 6.84324 46.6312C6.61771 46.6372 6.39332 46.5971 6.18384 46.5132C5.97437 46.4293 5.78422 46.3035 5.62505 46.1435C5.46589 45.9834 5.34106 45.7925 5.25824 45.5825C5.17541 45.3725 5.13633 45.1477 5.14339 44.922C5.14252 43.3714 5.14252 41.8196 5.14339 40.2664Z" fill="#FFECEF"/>
<path d="M14.5516 37.2512C14.5533 37.3798 14.5295 37.5073 14.4814 37.6265C14.4334 37.7457 14.3621 37.8541 14.2717 37.9454C14.1813 38.0367 14.0737 38.1091 13.9551 38.1583C13.8364 38.2075 13.7092 38.2326 13.5808 38.2321C13.4525 38.2324 13.3253 38.2075 13.2066 38.1586C13.0879 38.1098 12.9799 38.038 12.8889 37.9474C12.7979 37.8568 12.7257 37.7492 12.6762 37.6306C12.6268 37.5121 12.6012 37.385 12.6008 37.2565C12.6032 36.9967 12.7079 36.7483 12.8921 36.5652C13.0763 36.3821 13.3251 36.279 13.5847 36.2783C13.8413 36.2807 14.0866 36.3842 14.2676 36.5663C14.4485 36.7484 14.5506 36.9944 14.5516 37.2512Z" fill="#F2385A"/>
<path d="M13.5738 41.1334L13.5488 41.1571C13.5188 41.1057 13.4845 41.0569 13.4463 41.0111C12.941 40.4686 12.4353 39.9269 11.9291 39.3861C11.5008 38.9233 11.0678 38.4614 10.6299 38.0003C10.1399 37.4744 9.56715 37.4337 9.00491 37.8689L5.31752 40.7613C5.28337 40.7876 5.24659 40.8126 5.18616 40.856V45.0422C5.17943 45.2685 5.21901 45.4938 5.30245 45.7042C5.38589 45.9146 5.51143 46.1057 5.67137 46.2658C5.83131 46.4259 6.02226 46.5515 6.2325 46.635C6.44273 46.7185 6.6678 46.7582 6.89389 46.7514H16.1892C16.5443 46.7614 16.8932 46.6561 17.1836 46.4514C17.4741 46.2467 17.6907 45.9534 17.801 45.6155L13.5738 41.1334Z" fill="#F2385A"/>
<path d="M17.7711 40.8688C17.377 40.4744 16.9829 40.0707 16.5888 39.675C16.0791 39.1649 15.421 39.178 14.9244 39.7039C14.4804 40.1737 14.0377 40.6444 13.5963 41.116L13.574 41.1331L17.796 45.6151C17.8559 45.43 17.886 45.2365 17.8853 45.0419V40.9661C17.8341 40.9253 17.8 40.8977 17.7711 40.8688Z" fill="#FF768F"/>
<path d="M16.8045 33.1241H6.27434C5.1433 33.1241 4.32753 33.9445 4.32753 35.0791C4.32753 36.8322 4.32753 38.5812 4.32753 40.3264C4.32753 42.0908 4.32753 43.8548 4.32753 45.6183C4.31976 45.8747 4.36433 46.1299 4.4585 46.3684C4.55268 46.6069 4.69448 46.8237 4.87524 47.0055C5.056 47.1872 5.27191 47.3302 5.50977 47.4256C5.74762 47.521 6.00242 47.5668 6.25858 47.5602H16.8176C17.0737 47.5668 17.3283 47.521 17.5661 47.4257C17.8039 47.3304 18.0197 47.1875 18.2005 47.0059C18.3812 46.8243 18.523 46.6077 18.6173 46.3693C18.7116 46.131 18.7563 45.8759 18.7487 45.6196V35.0621C18.7562 34.8048 18.7109 34.5488 18.6158 34.3098C18.5206 34.0708 18.3776 33.8538 18.1954 33.6722C18.0132 33.4906 17.7959 33.3483 17.5566 33.254C17.3174 33.1598 17.0614 33.1155 16.8045 33.1241V33.1241ZM17.8869 44.9885C17.894 45.2144 17.8549 45.4392 17.772 45.6494C17.6891 45.8595 17.5641 46.0505 17.4048 46.2105C17.2455 46.3706 17.0552 46.4964 16.8456 46.5801C16.6359 46.6639 16.4114 46.7039 16.1858 46.6977H6.88781C6.66238 46.7034 6.43816 46.663 6.22886 46.579C6.01955 46.495 5.82956 46.3691 5.67047 46.2092C5.51138 46.0492 5.38655 45.8585 5.30359 45.6486C5.22063 45.4387 5.18128 45.2141 5.18796 44.9885V35.7102C5.17934 35.4824 5.21774 35.2551 5.30077 35.0428C5.3838 34.8304 5.50968 34.6375 5.67054 34.476C5.83141 34.3145 6.02381 34.1879 6.23573 34.1042C6.44765 34.0204 6.67455 33.9813 6.90226 33.9892H16.1726C16.3988 33.9821 16.6241 34.0214 16.8345 34.1048C17.0449 34.1882 17.236 34.3138 17.396 34.474C17.556 34.6341 17.6815 34.8254 17.7648 35.036C17.8482 35.2466 17.8875 35.472 17.8804 35.6984C17.8856 38.7934 17.8874 41.8901 17.8856 44.9885H17.8869Z" fill="white"/>
<rect x="4.32666" y="72.0654" width="18.0285" height="4.32685" rx="2.16343" fill="#B2ECFC"/>
<rect x="24.5186" y="72.0654" width="18.0285" height="4.32685" rx="2.16343" fill="#FAB1A5"/>
<path d="M73.6898 30.4675C69.4032 30.4675 65.115 30.4936 60.8285 30.4675C57.116 30.4381 54.3881 28.8025 52.7597 25.5998C50.434 21.0211 53.2917 15.2948 58.4589 14.1048C58.8174 14.0232 58.9731 13.8975 59.0493 13.5237C59.6851 10.401 62.9904 8.73765 66.2779 9.19308C66.6023 9.23878 66.9948 9.41671 67.251 9.30408C67.5073 9.19144 67.5608 8.78499 67.7214 8.51402C69.713 5.16771 72.3485 2.76652 76.3172 2.24907C80.9249 1.64999 84.7509 3.17787 87.6605 6.67436C89.4818 8.86824 90.1208 11.4082 90.0122 14.2191C90.0025 14.49 90.1452 14.5651 90.3366 14.6598C92.7807 15.8351 94.5291 17.6895 95.1859 20.2392C96.3893 24.9126 92.9591 29.7411 87.9881 30.3777C87.4694 30.4414 86.9472 30.4724 86.4246 30.4707C82.1797 30.4729 77.9348 30.4718 73.6898 30.4675Z" fill="#FFF6F5"/>
<path d="M95.1875 20.2313C94.5388 17.6816 92.7823 15.824 90.3382 14.652C90.1403 14.5573 89.9976 14.4887 90.0138 14.2112C90.1209 11.4085 89.4819 8.8604 87.6605 6.66653C87.3491 6.29109 87.0247 5.93904 86.6874 5.6104C86.5252 5.44716 86.3533 5.28393 86.1814 5.13375C85.2516 4.29448 84.1956 3.60858 83.0528 3.10148C82.8744 3.01986 82.6928 2.94641 82.5095 2.87621C82.3262 2.80602 82.0959 2.72604 81.8851 2.65911C81.6742 2.59219 81.4796 2.53832 81.2736 2.48608C80.7255 2.34756 80.1684 2.24775 79.6064 2.18736C79.3907 2.16451 79.1717 2.14819 78.9576 2.13513H78.8327C78.6543 2.12697 78.4759 2.12207 78.2959 2.12207H78.0526H77.8061C77.6309 2.12207 77.4574 2.1335 77.2806 2.14655L76.7941 2.18573L76.5508 2.21185C76.4697 2.21185 76.3886 2.23144 76.3075 2.24123C75.4794 2.34591 74.6662 2.54751 73.8844 2.84194C73.672 2.92192 73.4628 3.00517 73.2584 3.10474C70.9051 4.18372 69.1405 6.10174 67.7084 8.50619C67.5462 8.77716 67.4716 9.19014 67.2381 9.29624C67.1771 9.32244 67.1113 9.33524 67.0451 9.33379C66.8132 9.33379 66.5245 9.21952 66.2731 9.18524C65.9168 9.13565 65.5575 9.11111 65.1978 9.11179C64.224 9.1079 63.2591 9.29704 62.3579 9.66842C62.1957 9.73371 62.0465 9.80717 61.8957 9.88389C60.689 10.5058 59.7305 11.4852 59.2585 12.765C59.1953 12.925 59.1412 13.0885 59.0964 13.2547C59.0737 13.3396 59.0542 13.4261 59.0364 13.5126C58.9601 13.8864 58.8044 14.0121 58.4476 14.0953C53.2788 15.2837 50.421 21.0116 52.7484 25.5887C54.3703 28.7914 57.1031 30.427 60.8155 30.4564C62.5077 30.4694 64.1993 30.4749 65.8903 30.4727C68.4853 30.4727 71.0803 30.4629 73.6752 30.4629H79.6469C81.9056 30.4629 84.1654 30.4629 86.4263 30.4629C86.9493 30.4643 87.472 30.4338 87.9914 30.3715C92.9607 29.7349 96.391 24.9048 95.1875 20.2313ZM93.2202 26.0915C92.6129 26.994 91.8214 27.7559 90.8985 28.3265C89.9756 28.897 88.9426 29.2631 87.8681 29.4002C87.3892 29.4591 86.9071 29.4875 86.4247 29.4851C83.9513 29.4851 81.5023 29.4851 79.6469 29.4851H73.6915H69.799C68.5015 29.4851 67.204 29.4851 65.9065 29.4851C63.9506 29.4851 62.3385 29.4851 60.8399 29.4688C59.1661 29.4557 57.7113 29.0836 56.516 28.3637C55.3207 27.6438 54.3557 26.5681 53.6307 25.1349C53.1704 24.2124 52.927 23.1957 52.9194 22.1635C52.9118 21.1312 53.1402 20.111 53.5869 19.1817C54.0636 18.1449 54.7708 17.2323 55.6538 16.5145C56.5369 15.7967 57.5721 15.2929 58.6795 15.0421C59.1547 14.9327 59.8148 14.6748 60.0062 13.702C60.118 13.166 60.3341 12.6575 60.642 12.2059C60.9498 11.7543 61.3434 11.3685 61.8 11.0706C62.8129 10.4085 63.9982 10.0637 65.2059 10.0798C65.521 10.0797 65.8359 10.101 66.1482 10.1434C66.2001 10.1434 66.286 10.1728 66.3671 10.194C66.5906 10.258 66.821 10.2942 67.0532 10.3018C67.2576 10.3034 67.46 10.2611 67.6468 10.1777C68.1512 9.94918 68.3442 9.48396 68.4723 9.17708C68.4954 9.11627 68.5219 9.05686 68.5518 8.99915C70.6602 5.47165 73.1579 3.62873 76.4405 3.20268C77.032 3.12429 77.6279 3.08449 78.2245 3.08352C81.671 3.08352 84.5936 4.4955 86.9096 7.28356C88.4471 9.13464 89.1429 11.3856 89.0358 14.1623C89.0214 14.4541 89.0989 14.743 89.2574 14.9878C89.4158 15.2326 89.6471 15.4207 89.9181 15.5253C92.2325 16.6369 93.6873 18.3003 94.2452 20.4664C94.4819 21.4234 94.5128 22.4203 94.3361 23.3903C94.1593 24.3603 93.7789 25.2812 93.2202 26.0915Z" fill="black"/>
<path d="M95.1874 20.232C94.5387 17.6823 92.7822 15.8247 90.3381 14.6526C90.1402 14.558 89.9975 14.4894 90.0137 14.2119C90.1208 11.4092 89.4818 8.86108 87.6604 6.6672C87.349 6.29176 87.0246 5.93972 86.6873 5.61107C86.5251 5.44784 86.3532 5.2846 86.1813 5.13442C85.2515 4.29516 84.1955 3.60925 83.0527 3.10215C82.8743 3.02217 82.6927 2.94708 82.5094 2.87689C82.3261 2.8067 82.0958 2.72671 81.885 2.65978C81.6741 2.59286 81.4795 2.53899 81.2735 2.48676C80.7254 2.34824 80.1683 2.24842 79.6063 2.18804C79.145 2.14004 78.6816 2.11607 78.2179 2.11621C77.9066 2.11621 77.5919 2.12655 77.274 2.14723L76.7875 2.1864L76.5442 2.21252L76.3009 2.24353C75.473 2.34847 74.6599 2.5495 73.8779 2.84261C73.6654 2.92423 73.4562 3.00584 73.2518 3.10541C70.8985 4.1844 69.1339 6.10241 67.7018 8.50686C67.5396 8.77783 67.465 9.19081 67.2315 9.29691C67.1705 9.32311 67.1047 9.33591 67.0385 9.33446C66.8066 9.33446 66.5179 9.22019 66.2665 9.18591C65.9102 9.13632 65.5509 9.11178 65.1912 9.11246C64.2174 9.10857 63.2525 9.29771 62.3513 9.66909C62.1935 9.73656 62.0394 9.80838 61.8891 9.88456C60.6824 10.5065 59.7239 11.4859 59.252 12.7657C59.1895 12.9259 59.1353 13.0894 59.0898 13.2554C59.0671 13.3402 59.0476 13.4268 59.0298 13.5133C58.9535 13.8871 58.7978 14.0128 58.441 14.096C53.2722 15.2844 50.4145 21.0123 52.7418 25.5894C54.3637 28.7921 57.0965 30.4277 60.8089 30.457C62.5011 30.4701 64.1927 30.4755 65.8837 30.4734C68.4787 30.4734 71.0737 30.4636 73.6686 30.4636H79.6468C81.9055 30.4636 84.1653 30.4636 86.4262 30.4636C86.9492 30.465 87.4719 30.4345 87.9913 30.3722C92.9606 29.7355 96.3909 24.9054 95.1874 20.232ZM93.2201 26.0921C92.6128 26.9947 91.8213 27.7566 90.8984 28.3272C89.9756 28.8977 88.9425 29.2637 87.868 29.4009C87.3891 29.4598 86.907 29.4882 86.4246 29.4858C83.9512 29.4858 81.5022 29.4858 79.6468 29.4858H69.7989C68.5014 29.4858 67.2039 29.4858 65.9064 29.4858C63.9505 29.4858 62.3384 29.4858 60.8398 29.4695C59.166 29.4564 57.7112 29.0842 56.5159 28.3644C55.3206 27.6445 54.3556 26.5688 53.6306 25.1356C53.1703 24.2131 52.9269 23.1964 52.9193 22.1641C52.9117 21.1319 53.1401 20.1117 53.5868 19.1824C54.0635 18.1456 54.7707 17.233 55.6537 16.5152C56.5368 15.7974 57.572 15.2936 58.6794 15.0428C59.1546 14.9334 59.8147 14.6755 60.0061 13.7026C60.1179 13.1666 60.334 12.6582 60.6419 12.2066C60.9497 11.755 61.3433 11.3692 61.7999 11.0713C62.8128 10.4092 63.9981 10.0643 65.2058 10.0804C65.5209 10.0804 65.8358 10.1017 66.1481 10.1441C66.2 10.1441 66.2859 10.1735 66.367 10.1947C66.5905 10.2587 66.8209 10.2948 67.0531 10.3024C67.2575 10.3041 67.4599 10.2618 67.6467 10.1784C68.1511 9.94985 68.3441 9.48463 68.4722 9.17775C68.4953 9.11695 68.5218 9.05754 68.5517 8.99983C70.6601 5.47232 73.1578 3.6294 76.4404 3.20336C77.0319 3.12496 77.6278 3.08516 78.2244 3.0842C81.6709 3.0842 84.5935 4.49618 86.9095 7.28423C88.447 9.13531 89.1428 11.3863 89.0357 14.1629C89.0213 14.4547 89.0988 14.7437 89.2573 14.9884C89.4157 15.2332 89.647 15.4214 89.918 15.526C92.2324 16.6376 93.6872 18.3009 94.2452 20.4671C94.4818 21.4241 94.5127 22.4209 94.336 23.391C94.1592 24.361 93.7788 25.2819 93.2201 26.0921Z" fill="#F2385A"/>
<g clip-path="url(#clip0_4215_103830)">
<path d="M74.0358 21.2978L79.5251 11.9005C79.5516 11.8547 79.5655 11.8027 79.5655 11.7498C79.5655 11.6969 79.5516 11.6449 79.5252 11.5991C79.4987 11.5533 79.4606 11.5152 79.4148 11.4887C79.369 11.4623 79.3169 11.4483 79.264 11.4482H75.7247C75.6368 11.4483 75.5505 11.4712 75.4743 11.5149C75.398 11.5585 75.3345 11.6213 75.29 11.697L69.6061 21.432C69.5619 21.5082 69.5385 21.5946 69.5383 21.6827C69.5381 21.7707 69.5611 21.8573 69.605 21.9336C69.6489 22.01 69.7121 22.0735 69.7884 22.1177C69.8646 22.162 69.9511 22.1854 70.0393 22.1857H72.5115L71.4444 24.0142C71.4001 24.0905 71.3768 24.1771 71.3766 24.2653C71.3765 24.3535 71.3996 24.4401 71.4437 24.5165C71.4878 24.5929 71.5512 24.6564 71.6276 24.7006C71.7041 24.7447 71.7908 24.7679 71.8791 24.768H80.7838C80.8894 24.7676 80.9931 24.7396 81.0845 24.6867C81.1758 24.6338 81.2517 24.5578 81.3045 24.4665L82.8923 21.7531C82.9187 21.7074 82.9326 21.6556 82.9327 21.6028C82.9328 21.55 82.919 21.4982 82.8927 21.4524C82.8665 21.4066 82.8286 21.3685 82.783 21.3419C82.7373 21.3153 82.6855 21.3012 82.6327 21.3009L74.0358 21.2978ZM75.9496 12.3376H78.2392L73.008 21.2978H70.7154L75.9496 12.3376ZM80.6284 23.8801H72.5552L73.5438 22.1872H81.6109L80.6284 23.8801Z" fill="#F2385A"/>
</g>
<defs>
<clipPath id="clip0_4215_103830">
<rect width="13.472" height="13.472" fill="white" transform="translate(69.5369 11.4482)"/>
</clipPath>
</defs>
</svg>
