<svg width="144" height="144" viewBox="0 0 144 144" fill="none" xmlns="http://www.w3.org/2000/svg">
<path d="M120.633 30.9482C120.383 30.9484 120.138 30.8745 119.93 30.7358C119.723 30.597 119.561 30.3998 119.465 30.1689C119.369 29.9381 119.344 29.684 119.393 29.4389C119.441 29.1937 119.562 28.9686 119.738 28.7918C119.915 28.6151 120.14 28.4948 120.385 28.4461C120.631 28.3974 120.885 28.4225 121.115 28.5182C121.346 28.614 121.544 28.776 121.682 28.9839C121.821 29.1918 121.895 29.4362 121.895 29.6861C121.894 30.0207 121.761 30.3413 121.524 30.5779C121.288 30.8145 120.967 30.9476 120.633 30.9482V30.9482ZM120.633 29.1002C120.516 29.1002 120.403 29.1347 120.306 29.1993C120.209 29.2639 120.134 29.3558 120.089 29.4632C120.045 29.5707 120.033 29.6889 120.056 29.803C120.079 29.9171 120.135 30.0219 120.217 30.1041C120.299 30.1864 120.404 30.2424 120.518 30.2651C120.632 30.2878 120.75 30.2761 120.858 30.2316C120.965 30.1871 121.057 30.1117 121.122 30.015C121.186 29.9183 121.221 29.8046 121.221 29.6883C121.222 29.6104 121.207 29.5331 121.178 29.4609C121.149 29.3887 121.106 29.3229 121.051 29.2675C120.996 29.2121 120.931 29.1681 120.859 29.1381C120.788 29.108 120.711 29.0926 120.633 29.0926V29.1002Z" fill="#DAE4EC"/>
<path d="M98.4923 63.6959C98.4761 63.6682 98.4546 63.6441 98.429 63.6248C98.4034 63.6055 98.3743 63.5914 98.3433 63.5834C98.3123 63.5754 98.28 63.5736 98.2484 63.5782C98.2167 63.5827 98.1862 63.5934 98.1586 63.6098L97.3487 64.0886L96.8706 63.2783C96.8544 63.2507 96.8329 63.2265 96.8073 63.2072C96.7817 63.1879 96.7526 63.1739 96.7216 63.1659C96.6906 63.1579 96.6583 63.1561 96.6266 63.1606C96.5949 63.1652 96.5645 63.1759 96.5369 63.1923C96.5092 63.2084 96.485 63.2299 96.4657 63.2555C96.4463 63.2811 96.4323 63.3104 96.4245 63.3415C96.4165 63.3723 96.4147 63.4043 96.4192 63.4358C96.4238 63.4672 96.4346 63.4974 96.451 63.5246L96.9291 64.3349L96.1192 64.8138C96.0638 64.8473 96.0237 64.9012 96.0076 64.964C95.9997 64.9947 95.9979 65.0268 96.0025 65.0582C96.007 65.0896 96.0178 65.1199 96.0341 65.1471C96.0672 65.2025 96.1208 65.2427 96.1833 65.2588C96.2458 65.2749 96.3121 65.2657 96.3678 65.2332L97.1768 64.7543L97.6549 65.5646C97.6806 65.6081 97.7191 65.6425 97.7651 65.6631C97.8111 65.6838 97.8623 65.6897 97.9118 65.68C97.9387 65.6741 97.9646 65.6642 97.9886 65.6507C98.0162 65.6343 98.0404 65.6127 98.0597 65.587C98.0789 65.5613 98.093 65.5321 98.1009 65.501C98.1089 65.4698 98.1107 65.4374 98.1062 65.4056C98.1016 65.3738 98.0909 65.3432 98.0745 65.3156L97.5973 64.5089L98.4064 64.0301C98.434 64.0138 98.4581 63.9923 98.4774 63.9667C98.4966 63.941 98.5107 63.9119 98.5186 63.8808C98.5266 63.8498 98.5284 63.8175 98.5239 63.7857C98.5194 63.754 98.5086 63.7234 98.4923 63.6959Z" fill="#DAE4EC"/>
<path d="M101.053 69.4736C100.803 69.4736 100.559 69.3995 100.351 69.2606C100.143 69.1218 99.9812 68.9244 99.8856 68.6936C99.79 68.4627 99.7651 68.2087 99.8139 67.9636C99.8627 67.7185 99.9831 67.4935 100.16 67.3168C100.337 67.1402 100.562 67.02 100.807 66.9714C101.052 66.9228 101.306 66.948 101.537 67.0437C101.768 67.1395 101.965 67.3016 102.104 67.5094C102.242 67.7173 102.316 67.9616 102.316 68.2115C102.315 68.5462 102.182 68.8671 101.945 69.1037C101.708 69.3403 101.387 69.4733 101.053 69.4736ZM101.053 67.6256C100.936 67.6256 100.823 67.6601 100.726 67.7247C100.629 67.7893 100.554 67.8812 100.509 67.9886C100.465 68.0961 100.453 68.2143 100.476 68.3284C100.499 68.4425 100.555 68.5473 100.637 68.6295C100.719 68.7118 100.824 68.7678 100.938 68.7905C101.052 68.8132 101.17 68.8015 101.278 68.757C101.385 68.7125 101.477 68.6371 101.542 68.5404C101.606 68.4437 101.641 68.33 101.641 68.2137C101.641 68.1363 101.626 68.0596 101.597 67.988C101.567 67.9164 101.524 67.8513 101.469 67.7964C101.415 67.7416 101.35 67.6981 101.278 67.6684C101.207 67.6387 101.13 67.6234 101.053 67.6234V67.6256Z" fill="#DAE4EC"/>
<path d="M137.246 106.133C137.176 106.168 137.122 106.229 137.096 106.302C137.072 106.375 137.077 106.455 137.11 106.524L137.608 107.546L136.586 108.043C136.516 108.078 136.463 108.139 136.437 108.213C136.418 108.268 136.416 108.327 136.431 108.384C136.446 108.44 136.477 108.491 136.521 108.53C136.564 108.568 136.618 108.593 136.676 108.601C136.734 108.609 136.793 108.6 136.845 108.574L137.866 108.077L138.364 109.099C138.381 109.134 138.404 109.165 138.433 109.19C138.462 109.216 138.496 109.236 138.533 109.248C138.605 109.272 138.685 109.268 138.754 109.235C138.789 109.218 138.82 109.194 138.845 109.165C138.871 109.136 138.891 109.102 138.903 109.066C138.927 108.993 138.923 108.914 138.89 108.844L138.391 107.822L139.413 107.324C139.467 107.298 139.513 107.254 139.542 107.201C139.572 107.147 139.584 107.086 139.577 107.025C139.573 106.992 139.563 106.96 139.549 106.93C139.514 106.859 139.454 106.806 139.38 106.78C139.306 106.755 139.225 106.76 139.155 106.794L138.134 107.291L137.635 106.269C137.601 106.2 137.541 106.147 137.468 106.122C137.396 106.097 137.316 106.101 137.246 106.133V106.133Z" fill="#DAE4EC"/>
<path d="M113.053 129.474C112.803 129.474 112.559 129.399 112.351 129.261C112.143 129.122 111.981 128.924 111.886 128.694C111.79 128.463 111.765 128.209 111.814 127.964C111.863 127.719 111.983 127.493 112.16 127.317C112.337 127.14 112.562 127.02 112.807 126.971C113.052 126.923 113.306 126.948 113.537 127.044C113.768 127.14 113.965 127.302 114.104 127.509C114.242 127.717 114.316 127.962 114.316 128.212C114.315 128.546 114.182 128.867 113.945 129.104C113.708 129.34 113.387 129.473 113.053 129.474V129.474ZM113.053 127.626C112.936 127.626 112.823 127.66 112.726 127.725C112.629 127.789 112.554 127.881 112.509 127.989C112.465 128.096 112.453 128.214 112.476 128.328C112.499 128.443 112.555 128.547 112.637 128.63C112.719 128.712 112.824 128.768 112.938 128.79C113.052 128.813 113.17 128.802 113.278 128.757C113.385 128.713 113.477 128.637 113.542 128.54C113.606 128.444 113.641 128.33 113.641 128.214C113.641 128.136 113.626 128.06 113.597 127.988C113.567 127.916 113.524 127.851 113.469 127.796C113.415 127.742 113.35 127.698 113.278 127.668C113.207 127.639 113.13 127.623 113.053 127.623V127.626Z" fill="#DAE4EC"/>
<path d="M2.03973 120.069C1.99921 120.118 1.97482 120.186 1.97194 120.259C1.96905 120.331 1.98789 120.402 2.02433 120.456L2.55243 121.242L1.96351 121.947C1.94325 121.971 1.92676 122 1.91499 122.032C1.90323 122.065 1.89643 122.1 1.895 122.136C1.89248 122.208 1.91127 122.279 1.94735 122.333C1.9838 122.387 2.03476 122.419 2.08913 122.423C2.14349 122.427 2.19685 122.403 2.23757 122.354L2.82649 121.649L3.35459 122.436C3.37258 122.462 3.39436 122.484 3.41867 122.5C3.44297 122.515 3.46933 122.524 3.49624 122.526C3.53675 122.529 3.57701 122.516 3.61194 122.488C3.64687 122.461 3.67491 122.42 3.69252 122.371C3.71014 122.322 3.71654 122.268 3.71093 122.214C3.70532 122.161 3.68794 122.111 3.66098 122.07L3.13211 121.284L3.7218 120.58C3.75318 120.542 3.77504 120.492 3.78441 120.437C3.79377 120.381 3.79019 120.324 3.77415 120.272C3.76538 120.243 3.75287 120.216 3.7372 120.194C3.70064 120.14 3.64962 120.107 3.59526 120.104C3.54089 120.1 3.48759 120.125 3.44697 120.173L2.85805 120.877L2.32995 120.092C2.31201 120.065 2.29027 120.043 2.26597 120.027C2.24168 120.012 2.2153 120.003 2.18835 120C2.1614 119.998 2.1344 120.003 2.1089 120.015C2.0834 120.027 2.05989 120.045 2.03973 120.069V120.069Z" fill="#DAE4EC"/>
<path d="M24.3158 138.948C24.1284 138.948 23.9452 138.874 23.7894 138.735C23.6337 138.597 23.5122 138.399 23.4405 138.168C23.3688 137.938 23.3501 137.684 23.3866 137.439C23.4232 137.194 23.5134 136.969 23.6459 136.792C23.7784 136.615 23.9472 136.495 24.131 136.446C24.3147 136.397 24.5052 136.422 24.6783 136.518C24.8514 136.614 24.9994 136.776 25.1035 136.983C25.2076 137.191 25.2631 137.435 25.2631 137.685C25.2629 138.02 25.163 138.341 24.9854 138.578C24.8078 138.815 24.567 138.948 24.3158 138.948V138.948ZM24.3158 137.1C24.2285 137.1 24.1432 137.135 24.0706 137.199C23.9981 137.264 23.9416 137.356 23.9082 137.463C23.8748 137.571 23.8662 137.689 23.8832 137.803C23.9003 137.918 23.9424 138.022 24.0042 138.105C24.0659 138.187 24.1446 138.243 24.2302 138.265C24.3158 138.288 24.4046 138.276 24.4851 138.231C24.5657 138.187 24.6345 138.111 24.6829 138.014C24.7313 137.917 24.757 137.804 24.7569 137.687C24.757 137.61 24.7456 137.533 24.7235 137.462C24.7014 137.39 24.6689 137.325 24.628 137.271C24.587 137.216 24.5383 137.173 24.4848 137.143C24.4312 137.113 24.3738 137.098 24.3158 137.098V137.1Z" fill="#DAE4EC"/>
<path d="M3.30194 49.3379C3.24788 49.3885 3.21592 49.4582 3.21293 49.532C3.21185 49.5686 3.21805 49.605 3.23117 49.6392C3.24429 49.6734 3.26407 49.7047 3.28938 49.7313L4.02243 50.5138L3.23702 51.2442C3.1869 51.2956 3.15859 51.3642 3.15797 51.4359C3.15734 51.5075 3.18445 51.5767 3.23366 51.6289C3.28287 51.6812 3.3504 51.7125 3.42221 51.7165C3.49402 51.7204 3.56459 51.6966 3.61925 51.6501L4.40466 50.9197L5.13771 51.7012C5.18845 51.755 5.2584 51.7869 5.33249 51.7899C5.36922 51.7909 5.40581 51.7848 5.44014 51.7717C5.47446 51.7586 5.50586 51.7389 5.53251 51.7137C5.55919 51.6888 5.58068 51.6588 5.59575 51.6256C5.61082 51.5924 5.61918 51.5566 5.62034 51.5201C5.62151 51.4837 5.61546 51.4474 5.60255 51.4133C5.58963 51.3792 5.5701 51.348 5.54507 51.3214L4.81202 50.5389L5.59743 49.8085C5.63889 49.7691 5.66723 49.7179 5.67865 49.662C5.69007 49.606 5.68402 49.5479 5.66131 49.4955C5.64858 49.4668 5.63125 49.4404 5.61 49.4172C5.55913 49.3637 5.48912 49.3324 5.41519 49.33C5.34125 49.3277 5.26938 49.3545 5.2152 49.4047L4.42979 50.1351L3.69674 49.3525C3.6463 49.2985 3.5764 49.2666 3.50238 49.2639C3.42836 49.2611 3.35627 49.2878 3.30194 49.3379V49.3379Z" fill="#DAE4EC"/>
<path d="M11.0526 57.4729C10.8652 57.4729 10.682 57.4173 10.5262 57.3131C10.3704 57.209 10.2489 57.061 10.1773 56.8878C10.1056 56.7147 10.0869 56.5242 10.1235 56.3404C10.1601 56.1566 10.2504 55.9878 10.383 55.8553C10.5156 55.7229 10.6844 55.6327 10.8683 55.5962C11.0521 55.5598 11.2426 55.5786 11.4157 55.6505C11.5888 55.7223 11.7367 55.8439 11.8407 55.9998C11.9447 56.1557 12.0001 56.3389 12 56.5263C11.9995 56.7774 11.8996 57.018 11.722 57.1954C11.5444 57.3729 11.3036 57.4726 11.0526 57.4729V57.4729ZM11.0526 56.0869C10.9654 56.0869 10.8801 56.1127 10.8075 56.1612C10.735 56.2097 10.6785 56.2786 10.6451 56.3591C10.6117 56.4397 10.603 56.5284 10.62 56.614C10.637 56.6995 10.679 56.7781 10.7407 56.8398C10.8024 56.9015 10.881 56.9435 10.9665 56.9605C11.0521 56.9776 11.1408 56.9688 11.2214 56.9354C11.302 56.9021 11.3709 56.8455 11.4193 56.773C11.4678 56.7004 11.4937 56.6152 11.4937 56.5279C11.4939 56.4699 11.4826 56.4123 11.4606 56.3586C11.4385 56.3049 11.406 56.2561 11.3651 56.215C11.3241 56.1739 11.2754 56.1412 11.2218 56.119C11.1681 56.0967 11.1107 56.0852 11.0526 56.0852V56.0869Z" fill="#DAE4EC"/>
<path d="M140.665 59.3719C140.608 59.3823 140.556 59.4202 140.522 59.4776C140.487 59.5349 140.472 59.6069 140.48 59.678L140.6 60.7166L139.767 60.8656C139.709 60.8763 139.657 60.9148 139.622 60.9727C139.588 61.0305 139.573 61.103 139.581 61.1744C139.59 61.2457 139.62 61.31 139.667 61.3533C139.69 61.3752 139.716 61.3911 139.744 61.3999C139.773 61.4086 139.802 61.4101 139.831 61.4043L140.664 61.2553L140.784 62.2929C140.788 62.3281 140.797 62.3621 140.811 62.393C140.825 62.4238 140.844 62.4508 140.866 62.4725C140.901 62.5049 140.942 62.5237 140.986 62.5266C141.029 62.5295 141.072 62.5164 141.109 62.4888C141.146 62.4612 141.176 62.4205 141.194 62.3718C141.213 62.3231 141.219 62.2687 141.213 62.2154L141.093 61.1788L141.928 61.0298C141.983 61.0167 142.032 60.9775 142.065 60.9205C142.097 60.8634 142.111 60.7928 142.103 60.7235C142.095 60.6541 142.066 60.5912 142.022 60.548C141.977 60.5047 141.921 60.4843 141.865 60.4911L141.033 60.6452L140.912 59.6076C140.909 59.5717 140.9 59.5371 140.885 59.5057C140.871 59.4744 140.851 59.4469 140.828 59.425C140.805 59.403 140.779 59.387 140.751 59.3779C140.723 59.3688 140.694 59.3668 140.665 59.3719V59.3719Z" fill="#DAE4EC"/>
<path d="M58.5891 12.6321C58.5539 12.6291 58.5182 12.6316 58.4842 12.6397C58.4502 12.6478 58.4185 12.6612 58.391 12.6791C58.3635 12.697 58.3408 12.7191 58.324 12.7442C58.3073 12.7692 58.2969 12.7966 58.2934 12.8249L58.1827 13.6562L57.1412 13.5651C57.1059 13.5621 57.0701 13.5648 57.036 13.5728C57.0019 13.5809 56.9702 13.5943 56.9425 13.6122C56.9149 13.6301 56.8919 13.6522 56.8749 13.6772C56.8579 13.7022 56.8473 13.7296 56.8435 13.7579C56.8398 13.7862 56.8431 13.8149 56.8532 13.8422C56.8632 13.8695 56.8799 13.8949 56.9023 13.917C56.9246 13.9392 56.9522 13.9576 56.9835 13.9712C57.0147 13.9848 57.049 13.9933 57.0843 13.9963L58.1228 14.0849L58.012 14.9171C58.0049 14.9742 58.0262 15.0313 58.0712 15.0759C58.1163 15.1205 58.1816 15.1491 58.2528 15.1555C58.2889 15.1591 58.3256 15.1569 58.3605 15.1487C58.3955 15.1406 58.428 15.1269 58.456 15.1083C58.5126 15.0724 58.5491 15.0201 58.5576 14.9627L58.6623 14.1346L59.7007 14.2232C59.7565 14.2278 59.8127 14.2184 59.8616 14.1965C59.9105 14.1745 59.9498 14.1409 59.974 14.1004C59.9873 14.0784 59.9956 14.0547 59.9984 14.0304C60.0022 14.0021 59.999 13.9734 59.9889 13.946C59.9789 13.9187 59.9622 13.8931 59.9399 13.8709C59.9175 13.8487 59.8899 13.8303 59.8586 13.8166C59.8273 13.8029 59.793 13.7943 59.7576 13.7913L58.7192 13.7026L58.8299 12.8713C58.8337 12.8429 58.8305 12.8142 58.8205 12.7868C58.8104 12.7595 58.7938 12.7339 58.7714 12.7117C58.749 12.6895 58.7214 12.6711 58.6901 12.6574C58.6589 12.6437 58.6245 12.6351 58.5891 12.6321V12.6321Z" fill="#DAE4EC"/>
<path d="M114.316 1.26367C113.041 1.26367 111.954 1.77206 111.053 2.67701C110.151 3.58197 109.644 4.80939 109.644 6.08932V50.6753C109.644 52.3553 108.979 53.9665 107.795 55.1544C106.612 56.3424 105.006 56.2062 103.333 56.2064H72L72.0003 7.24748C72.0003 5.66134 72.6276 4.14009 73.7445 3.01806C74.8614 1.89602 76.3764 1.265 77.9565 1.26367L114.316 1.26367Z" fill="#F1F5F8"/>
<path d="M92.2106 25.2637C90.9449 25.2637 89.731 25.7741 88.836 26.6827C87.9409 27.5913 87.4381 28.8236 87.4381 30.1085V120.31C87.4381 121.903 86.8148 123.431 85.7052 124.557C84.5956 125.683 83.0906 126.316 81.5214 126.316H35.601C34.0318 126.316 32.5269 125.683 31.4173 124.557C30.3077 123.431 29.6843 121.903 29.6843 120.31V31.2701C29.6843 29.6771 30.3077 28.1493 31.4173 27.0229C32.5269 25.8965 34.0318 25.2637 35.601 25.2637H92.2106Z" fill="#F1F5F8"/>
<path d="M81.4738 126.316H21.7473C20.1672 126.316 18.6518 125.656 17.5345 124.482C16.4172 123.307 15.7896 121.714 15.7896 120.052V116.211H75.519V120.052C75.519 121.713 76.1463 123.306 77.2629 124.48C78.3796 125.655 79.8942 126.315 81.4738 126.316Z" fill="#DAE4EC"/>
<path d="M44.7088 81.4574V79.1243H38.3953C37.5982 79.1243 37.0005 78.9444 36.6023 78.5846C36.2041 78.2248 36.0033 77.7359 36 77.1177C36.0014 76.9526 36.0313 76.789 36.0883 76.6341C36.1558 76.4531 36.2444 76.2807 36.3524 76.1204C36.4695 75.9402 36.591 75.7666 36.7168 75.5997C36.8433 75.4325 36.9979 75.2272 37.1826 74.9849L43.8484 66.0904C44.1712 65.6374 44.5308 65.2117 44.9236 64.8177C45.1967 64.5567 45.5624 64.4144 45.9405 64.4222C47.2121 64.4222 47.8479 65.1498 47.8479 66.605V76.3177H48.389C49.0349 76.3177 49.5525 76.4054 49.9421 76.581C50.3316 76.7562 50.5263 77.1417 50.5263 77.7345C50.5263 78.2205 50.367 78.5739 50.0485 78.7949C49.7299 79.0159 49.252 79.1267 48.6149 79.1273H47.8479V81.4604C47.8479 82.1052 47.7054 82.5842 47.4203 82.8972C47.2753 83.054 47.0978 83.1773 46.9002 83.2586C46.7025 83.3399 46.4894 83.3772 46.2758 83.3679C46.063 83.3751 45.8512 83.3356 45.6554 83.2522C45.4595 83.1688 45.2844 83.0435 45.1424 82.8852C44.8533 82.5615 44.7088 82.0855 44.7088 81.4574ZM39.3008 76.3147H44.7088V69.0262L39.3008 76.3147Z" fill="#035970"/>
<path d="M64.4196 73.999C64.4334 75.1912 64.3511 76.3825 64.1735 77.5608C64.0243 78.5091 63.7155 79.4236 63.2609 80.2637C62.7467 81.21 62.0001 82.0024 61.0949 82.5623C60.1984 83.1026 59.1746 83.3815 58.1344 83.3688C56.9294 83.3836 55.7515 83.0027 54.7733 82.282C53.7795 81.5602 53.0316 80.5587 52.5295 79.2777C52.262 78.5276 52.0738 77.7502 51.9683 76.9589C51.8452 76.0487 51.7856 75.1306 51.7901 74.2117C51.7826 73.0633 51.8483 71.9155 51.987 70.7759C52.0897 69.878 52.2969 68.996 52.6043 68.1486C53.0887 66.9388 53.7937 66.0147 54.7191 65.3762C55.6446 64.7377 56.7485 64.4198 58.031 64.4225C58.8193 64.4115 59.6023 64.5553 60.3378 64.8459C61.022 65.124 61.6418 65.5457 62.1572 66.0839C62.7093 66.6726 63.1577 67.3548 63.4824 68.1002C64.1072 69.4895 64.4196 71.4557 64.4196 73.999ZM61.0407 73.7459C61.0407 72.2055 60.9502 70.9446 60.769 69.9633C60.5879 68.982 60.2836 68.2427 59.8564 67.7453C59.4291 67.244 58.8384 66.9936 58.0842 66.9943C56.9993 66.9943 56.2445 67.5541 55.8198 68.6739C55.3951 69.7936 55.1835 71.5196 55.1848 73.8518C55.1848 75.4353 55.2754 76.7321 55.4565 77.7423C55.6377 78.7525 55.9419 79.5166 56.3692 80.0348C56.7965 80.553 57.376 80.8118 58.1078 80.8111C58.864 80.8111 59.4547 80.5423 59.88 80.0046C60.3053 79.4669 60.6056 78.6963 60.7808 77.6929C60.9541 76.6867 61.0407 75.3711 61.0407 73.7459V73.7459Z" fill="#035970"/>
<path d="M75.0181 81.4577V79.1246H68.7029C67.9069 79.1246 67.3094 78.9447 66.9104 78.5849C66.5114 78.2251 66.3133 77.7361 66.3159 77.1179C66.3169 76.9528 66.3468 76.7891 66.4043 76.6343C66.4718 76.4533 66.5604 76.2809 66.6684 76.1206C66.7856 75.9404 66.9071 75.7668 67.0329 75.5999C67.1588 75.433 67.3141 75.2281 67.4989 74.9851L74.1655 66.0903C74.4889 65.6375 74.849 65.2119 75.242 64.8176C75.5137 64.5575 75.8776 64.4153 76.2542 64.4221C77.5261 64.4221 78.1621 65.1497 78.1621 66.605V76.3179H78.7034C79.3487 76.3179 79.8665 76.4057 80.2568 76.5812C80.6474 76.7565 80.8422 77.142 80.8422 77.7348C80.8422 78.2207 80.6829 78.5742 80.3643 78.7952C80.0456 79.0161 79.5676 79.1269 78.9303 79.1276H78.1651V81.4607C78.1651 82.1056 78.0225 82.5845 77.7373 82.8976C77.4522 83.211 77.0716 83.3682 76.5926 83.3682C76.3789 83.3762 76.166 83.3371 75.9692 83.2537C75.7724 83.1703 75.5964 83.0446 75.4539 82.8856C75.1633 82.5618 75.0181 82.0859 75.0181 81.4577ZM69.6086 76.3149H75.0181V69.0262L69.6086 76.3149Z" fill="#035970"/>
<path fill-rule="evenodd" clip-rule="evenodd" d="M90.1414 25.342H71.9998V24.7246H92.3745V24.7261C92.4146 24.7251 92.4548 24.7246 92.4949 24.7246C93.1324 24.7246 93.7634 24.8518 94.3515 25.0987C94.9395 25.3457 95.4728 25.7075 95.9203 26.1631C96.3678 26.6188 96.7205 27.1592 96.9581 27.7528C97.1957 28.3465 97.3133 28.9817 97.3041 29.6214V50.1509C97.3044 51.8311 97.9696 53.1696 99.1534 54.3576C100.337 55.5456 101.943 56.2129 103.617 56.2129H87.6857V29.6214C87.6765 28.9817 87.7941 28.3465 88.0317 27.7528C88.2693 27.1592 88.6221 26.6188 89.0695 26.1631C89.3873 25.8396 89.7483 25.5634 90.1414 25.342Z" fill="#DAE4EC"/>
<path d="M114.909 114.277C114.696 114.49 114.444 114.659 114.166 114.774C113.888 114.889 113.59 114.948 113.29 114.948C112.989 114.948 112.691 114.889 112.413 114.774C112.136 114.659 111.883 114.49 111.671 114.277L97.7671 100.374L96 98.607C97.2868 97.7571 98.3883 96.6557 99.2384 95.3691L114.909 111.039C115.338 111.469 115.579 112.051 115.579 112.658C115.579 113.265 115.338 113.848 114.909 114.277Z" fill="#618298"/>
<path d="M99.9107 96.6309L103.579 99.9657C102.719 101.15 101.604 102.164 100.301 102.947V102.947L98.4209 101.238L96.6316 99.6118C97.9349 98.8298 99.0504 97.8157 99.9107 96.6309Z" fill="#325167"/>
<path d="M103.571 88.7983C103.547 88.2291 103.486 87.6619 103.388 87.1002C102.808 83.7431 100.957 80.7215 98.201 78.6351C95.4454 76.5488 91.9871 75.5501 88.5124 75.8375C85.0377 76.1248 81.8007 77.6772 79.4439 80.1863C77.087 82.6955 75.7826 85.9781 75.7896 89.3825C75.7897 89.8951 75.8191 90.4072 75.8777 90.9166C76.0546 92.4611 76.5043 93.964 77.207 95.3586C78.1933 97.3162 79.6472 99.0136 81.4461 100.308C81.737 100.517 82.0363 100.715 82.3441 100.901C84.6725 102.314 87.3769 103.024 90.1173 102.94C92.8576 102.857 95.5116 101.984 97.7453 100.432V100.432C99.0042 99.5559 100.105 98.4813 101.003 97.2525V97.2525C102.683 94.9564 103.584 92.2041 103.579 89.3825C103.58 89.1868 103.577 88.9921 103.571 88.7983ZM89.6853 100.531C86.6556 100.531 83.75 99.3561 81.6078 97.2646C79.4655 95.1731 78.262 92.3364 78.262 89.3786C78.262 86.4207 79.4655 83.584 81.6078 81.4925C83.75 79.401 86.6556 78.226 89.6853 78.226C90.1837 78.2273 90.6815 78.2604 91.1756 78.3248C93.9232 78.6785 96.4456 79.995 98.2729 82.0292C100.1 84.0635 101.108 86.6768 101.109 89.3825C101.109 89.5525 101.105 89.7216 101.096 89.8896C101.006 91.8962 100.36 93.8413 99.2265 95.5178C98.3713 96.7817 97.263 97.8637 95.9684 98.6986C94.1033 99.8975 91.9184 100.535 89.6853 100.531V100.531Z" fill="#BCCFDC"/>
<path d="M81.2567 90.9465C80.9791 90.9463 80.713 90.8297 80.5168 90.6224C80.3206 90.415 80.2104 90.134 80.2104 89.841C80.2107 87.119 81.2351 84.5086 83.0583 82.584C84.8815 80.6594 87.3541 79.5781 89.9323 79.5781C90.2044 79.587 90.4624 79.7073 90.6519 79.9136C90.8414 80.1198 90.9473 80.3959 90.9473 80.6832C90.9473 80.9705 90.8414 81.2465 90.6519 81.4528C90.4624 81.6591 90.2044 81.7794 89.9323 81.7882C87.9094 81.7885 85.9694 82.637 84.5388 84.1471C83.1083 85.6572 82.3044 87.7052 82.3039 89.841C82.3039 90.1342 82.1935 90.4154 81.9971 90.6227C81.8008 90.8301 81.5344 90.9465 81.2567 90.9465V90.9465Z" fill="white"/>
</svg>
