<?xml version="1.0" encoding="UTF-8"?>
<svg width="32px" height="32px" viewBox="0 0 32 32" version="1.1" xmlns="http://www.w3.org/2000/svg" xmlns:xlink="http://www.w3.org/1999/xlink">
    <title>E5D0FFC5-A2FB-4CFA-BF41-A4FE7B30C542</title>
    <g id="Web" stroke="none" stroke-width="1" fill="none" fill-rule="evenodd">
        <g id="Folder-List_1_AC_1" transform="translate(-5021.000000, -89.000000)">
            <g id="Group-35" transform="translate(5021.000000, 89.000000)">
                <g id="Group-10">
                    <rect id="Rectangle" x="0" y="0" width="32" height="32"></rect>
                    <g id="folder" transform="translate(2.000000, 4.500000)" fill-rule="nonzero">
                        <path d="M7.99300502,1.93009601 L7.99300502,1.65682847 C7.99300502,0.741749698 7.25007267,0 6.3336576,0 L1.65934743,0 C0.742932351,0 0,0.741804549 0,1.65688332 L0,3.42494956 L0,22.1715858 C0,22.6290977 0.371466175,23 0.829673713,23 L24,23 L24,3.58697933 C24,2.67190056 23.2570676,1.93015086 22.3406526,1.93015086 L7.99300502,1.93009601 L7.99300502,1.93009601 Z" id="Path" fill="#B3D0FF"></path>
                        <path d="M26.3424443,6 L4.78020777,6 C3.99351073,6 3.31517795,6.54883673 3.15677411,7.31356014 L0,22.5539068 C0.137663751,22.8186334 0.415405443,23 0.736273364,23 L24.8138773,23 C25.6586796,23 26.3682871,22.3694367 26.4612334,21.5361631 L27.9897455,7.82553551 C28.0983841,6.8515681 27.3299581,6 26.3424443,6 Z" id="Path" fill="#3C80EF"></path>
                    </g>
                </g>
                <g id="Icons-/-Basic-/-Increase" transform="translate(16.000000, 19.000000) scale(1, -1) translate(-16.000000, -19.000000) translate(9.000000, 12.000000)" fill="#FFFFFF" fill-rule="nonzero">
                    <path d="M10.5,8.27265978 L9.91181364,7.67278781 L7.41597338,10.2182134 L7.41597338,2.75757094 C7.41597338,2.52296754 7.2296173,2.33333333 7,2.33333333 C6.7703827,2.33333333 6.58402662,2.52296754 6.58402662,2.75757094 L6.58402662,10.2182134 L4.08818636,7.67278781 L3.5,8.27265978 L6.70590682,11.542259 C6.86855241,11.7081359 7.13144759,11.7081359 7.29409318,11.542259 L10.5,8.27265978 Z" id="Fill-138" transform="translate(7.000000, 7.000000) rotate(-180.000000) translate(-7.000000, -7.000000) "></path>
                </g>
            </g>
        </g>
    </g>
</svg>