<svg width="114" height="73" viewBox="0 0 114 73" fill="none" xmlns="http://www.w3.org/2000/svg">
<path d="M70.7474 30.9915H61.0223C59.3291 30.9915 57.9565 29.6189 57.9565 27.9257V3.07145C57.9565 0.0307649 54.0069 -1.15514 52.332 1.38265L29.3171 36.2537C27.9718 38.292 29.4336 41.0083 31.8758 41.0083H41.6009C43.2941 41.0083 44.6667 42.3809 44.6667 44.0741V68.9286C44.6667 71.9692 48.6164 73.1551 50.2913 70.6174L73.3061 35.7464C74.6514 33.7078 73.1897 30.9915 70.7474 30.9915Z" fill="url(#paint0_linear_1185_71604)"/>
<path d="M73.3067 35.7452L50.2914 70.6167C49.4079 71.956 47.8901 72.258 46.6534 71.7984L56.3057 41.9588C57.1211 39.4381 55.2415 36.8548 52.5922 36.8548H49.9719C47.3397 36.8548 45.4623 34.3025 46.2462 31.7897L56.0856 0.248779C57.1361 0.685653 57.9569 1.68687 57.9569 3.07177V27.9259C57.9569 29.6185 59.3286 30.992 61.0231 30.992H70.7478C73.1889 30.992 74.6516 33.7068 73.3067 35.7452Z" fill="url(#paint1_linear_1185_71604)"/>
<path d="M44.6666 51.2126V68.9288C44.6666 71.9694 48.6163 73.1554 50.2911 70.6176L63.0984 51.2126H44.6666Z" fill="url(#paint2_linear_1185_71604)"/>
<path d="M84.4285 19.4107L85.7734 23.2876C85.831 23.4537 85.9449 23.5852 86.0888 23.6517L89.4488 25.2036C89.9236 25.4228 89.9236 26.1981 89.4488 26.4173L86.0888 27.9692C85.9449 28.0357 85.831 28.1672 85.7734 28.3333L84.4285 32.2102C84.2384 32.758 83.5665 32.758 83.3764 32.2102L82.0315 28.3333C81.9739 28.1672 81.86 28.0357 81.7161 27.9692L78.3561 26.4173C77.8813 26.1981 77.8813 25.4228 78.3561 25.2036L81.7161 23.6517C81.86 23.5852 81.9739 23.4537 82.0315 23.2876L83.3764 19.4107C83.5665 18.8631 84.2384 18.8631 84.4285 19.4107Z" fill="#FAAFBD"/>
<rect x="4" y="25" width="25" height="25" rx="2.27108" transform="rotate(-90 4 25)" fill="#F4FCFF"/>
<path fill-rule="evenodd" clip-rule="evenodd" d="M11.5543 11.1421L11.5545 11.1419L11.5561 11.1396L11.567 11.1247C11.5772 11.1108 11.5935 11.089 11.6156 11.0606C11.6598 11.0036 11.727 10.92 11.8157 10.8186C11.9937 10.6154 12.2553 10.3438 12.5876 10.0727C13.2575 9.52613 14.1789 9.01011 15.2608 9.01011C16.4604 9.01011 17.2968 9.47509 17.8342 10.1394C18.1623 10.545 18.3895 11.0384 18.5137 11.5721C18.0123 11.4499 17.4702 11.3765 16.8914 11.3765C14.2967 11.3765 12.8196 12.7229 12.5669 14.2696C12.4435 15.0246 12.6273 15.7942 13.1034 16.3769C13.5832 16.9641 14.3286 17.3243 15.2608 17.3243C17.9269 17.3243 19.3797 15.124 19.5295 12.9417C19.8963 13.1145 20.2256 13.3094 20.5139 13.5054C20.9469 13.7998 21.2832 14.094 21.5099 14.313C21.6231 14.4224 21.7085 14.5126 21.7645 14.574C21.7925 14.6048 21.813 14.6282 21.826 14.6433L21.8397 14.6595L21.8419 14.6621L21.8421 14.6623C21.8422 14.6624 21.8423 14.6625 21.8424 14.6627C22.007 14.8635 22.2961 14.887 22.4885 14.715C22.681 14.5429 22.7037 14.2401 22.5391 14.0388L22.1905 14.3504C22.5391 14.0388 22.539 14.0386 22.5389 14.0384L22.5386 14.0381L22.5378 14.0372L22.5358 14.0347L22.5294 14.027C22.5241 14.0208 22.5169 14.0122 22.5076 14.0015C22.4892 13.98 22.4628 13.9499 22.4286 13.9124C22.3604 13.8375 22.2611 13.7328 22.1323 13.6083C21.8749 13.3597 21.4979 13.0303 21.0137 12.7011C20.5913 12.4139 20.0841 12.1248 19.5012 11.8902C19.3947 11.0281 19.0795 10.1936 18.5344 9.51971C17.8107 8.62508 16.7109 8.05078 15.2608 8.05078C13.897 8.05078 12.7803 8.69875 12.0235 9.31622C11.6424 9.62712 11.3436 9.93745 11.1393 10.1707C11.037 10.2876 10.9578 10.3859 10.9032 10.4562C10.876 10.4914 10.8548 10.5197 10.84 10.5398C10.8326 10.5499 10.8267 10.558 10.8225 10.5639L10.8174 10.5711L10.8157 10.5734L10.8151 10.5743L10.8148 10.5747C10.8147 10.5748 10.8146 10.575 11.1846 10.8584L10.8146 10.575C10.665 10.7887 10.7092 11.0888 10.9136 11.2454C11.1178 11.4019 11.4046 11.3556 11.5543 11.1421ZM18.6252 12.5935C18.0992 12.4352 17.5191 12.3358 16.8914 12.3358C14.5945 12.3358 13.6258 13.4837 13.4709 14.4312C13.3905 14.9233 13.5124 15.4008 13.8006 15.7536C14.0851 16.1017 14.5625 16.365 15.2608 16.365C17.3878 16.365 18.5774 14.5739 18.6239 12.6753C18.6246 12.648 18.625 12.6207 18.6252 12.5935Z" fill="#035970"/>
<rect x="81" y="71" width="32" height="32" rx="2.90698" transform="rotate(-90 81 71)" fill="#F4FCFF"/>
<path fill-rule="evenodd" clip-rule="evenodd" d="M93.3293 48.6409C93.0153 48.6409 92.7607 48.8869 92.7607 49.1904V50.6349C92.7607 50.9384 93.0153 51.1845 93.3293 51.1845C93.6433 51.1845 93.8979 50.9384 93.8979 50.6349V49.74H98.0325V59.6632H96.5732C96.2801 59.6632 96.0425 59.9584 96.0425 60.3226C96.0425 60.6868 96.2801 60.9821 96.5732 60.9821H98.6958H100.818C101.112 60.9821 101.349 60.6868 101.349 60.3226C101.349 59.9584 101.112 59.6632 100.818 59.6632H99.3591V49.74H103.494V50.6349C103.494 50.9384 103.748 51.1845 104.062 51.1845C104.376 51.1845 104.631 50.9384 104.631 50.6349V49.1904C104.631 48.8869 104.376 48.6409 104.062 48.6409H98.6958H93.3293ZM91.9676 52.4563C92.2068 52.4563 92.4007 52.6478 92.4007 52.8841V54.5954H94.1329C94.3721 54.5954 94.566 54.787 94.566 55.0233C94.566 55.2595 94.3721 55.4511 94.1329 55.4511H92.4007V57.1624C92.4007 57.3987 92.2068 57.5902 91.9676 57.5902C91.7284 57.5902 91.5346 57.3987 91.5346 57.1624V55.4511H89.8023C89.5631 55.4511 89.3693 55.2595 89.3693 55.0233C89.3693 54.787 89.5631 54.5954 89.8023 54.5954H91.5346V52.8841C91.5346 52.6478 91.7284 52.4563 91.9676 52.4563Z" fill="#035970"/>
<path d="M112.651 71.6505C111.587 72.7144 109.862 72.7144 108.798 71.6505C107.734 70.5867 107.734 68.8617 108.798 67.7979C109.862 66.734 111.587 66.734 112.651 67.7979C113.714 68.8619 113.714 70.5867 112.651 71.6505Z" fill="#FFA585"/>
<path d="M29.5607 55.5607C28.9749 56.1464 28.0251 56.1464 27.4393 55.5607C26.8536 54.9749 26.8536 54.0251 27.4393 53.4393C28.0251 52.8536 28.9749 52.8536 29.5607 53.4393C30.1464 54.0252 30.1464 54.9749 29.5607 55.5607Z" fill="#FAB1A5"/>
<path d="M4.45047 17.2739L5.38157 19.8585C5.42147 19.9692 5.50037 20.0569 5.60001 20.1012L7.92617 21.1358C8.25478 21.282 8.25478 21.7988 7.92617 21.9451L5.60001 22.9797C5.50037 23.024 5.42147 23.1117 5.38157 23.2223L4.45047 25.8069C4.31898 26.172 3.85365 26.172 3.72216 25.8069L2.79106 23.2223C2.75116 23.1116 2.67227 23.0239 2.57263 22.9797L0.246463 21.9451C-0.0821542 21.7989 -0.0821542 21.2821 0.246463 21.1358L2.57263 20.1012C2.67227 20.0569 2.75116 19.9692 2.79106 19.8585L3.72216 17.2739C3.85365 16.9087 4.31898 16.9087 4.45047 17.2739Z" fill="#8EDEF4"/>
<defs>
<linearGradient id="paint0_linear_1185_71604" x1="37.9755" y1="22.6638" x2="70.5618" y2="55.2499" gradientUnits="userSpaceOnUse">
<stop stop-color="#FEE97D"/>
<stop offset="1" stop-color="#FAC600"/>
</linearGradient>
<linearGradient id="paint1_linear_1185_71604" x1="65.0061" y1="36.1241" x2="31.9415" y2="36.1241" gradientUnits="userSpaceOnUse">
<stop stop-color="#FAC600" stop-opacity="0"/>
<stop offset="0.6899" stop-color="#D68C3D" stop-opacity="0.69"/>
<stop offset="1" stop-color="#C5715A"/>
</linearGradient>
<linearGradient id="paint2_linear_1185_71604" x1="53.8826" y1="56.6266" x2="53.8826" y2="70.6931" gradientUnits="userSpaceOnUse">
<stop stop-color="#FAC600" stop-opacity="0"/>
<stop offset="0.6899" stop-color="#D68C3D" stop-opacity="0.69"/>
<stop offset="1" stop-color="#C5715A"/>
</linearGradient>
</defs>
</svg>
