<svg width="170" height="144" viewBox="0 0 170 144" fill="none" xmlns="http://www.w3.org/2000/svg">
<circle cx="84.4614" cy="72" r="72" fill="#DAE4EC"/>
<circle cx="19.3848" cy="13.8462" r="4.15385" fill="#DAE4EC"/>
<circle cx="157.846" cy="34.6153" r="4.15385" fill="#DAE4EC"/>
<circle cx="2.76923" cy="24.923" r="2.76923" fill="#DAE4EC"/>
<circle cx="153.692" cy="22.1538" r="2.76923" fill="#DAE4EC"/>
<circle cx="167.231" cy="82.6154" r="2.76923" fill="#DAE4EC"/>
<path d="M37.2816 41.9003L82.9686 20.6027C85.1446 19.5884 87.6611 19.6049 89.8236 20.6477L133.863 41.885C136.937 43.3674 138.73 46.63 138.273 50.0122C136.182 65.4837 129.726 107.974 120.864 116.826C113.574 124.108 99.8393 134.44 90.9513 140.798C88.2314 142.744 84.5888 142.736 81.906 140.739C74.6064 135.307 63.0912 126.144 53.7627 116.826C43.2089 106.284 35.8539 70.9775 32.7884 50.1311C32.2831 46.6951 34.1338 43.3676 37.2816 41.9003Z" fill="#67A4BA"/>
<path d="M43.9073 47.4736L84.1085 28.2845C85.8039 27.4752 87.7804 27.5067 89.4491 28.3696L126.328 47.4397C128.539 48.5831 129.816 50.9476 129.498 53.4166C127.865 66.1205 122.362 104.589 114.746 112.183C108.498 118.413 96.6244 127.3 89.1676 132.61C87.1273 134.062 84.4022 134.056 82.3882 132.567C76.2763 128.049 66.329 120.184 58.3051 112.183C49.3255 103.229 43.099 71.3065 40.5752 53.6173C40.2101 51.0582 41.5744 48.5872 43.9073 47.4736Z" fill="#8EDEF4"/>
<path d="M114.983 112.183C108.665 118.484 96.5911 127.503 89.1524 132.789C87.8312 133.728 86.0215 132.765 86.037 131.144L87.0061 30.2504C87.0204 28.7602 88.6009 27.8085 89.9246 28.4931L126.565 47.44C128.776 48.5834 130.053 50.9478 129.736 53.4168C128.102 66.1207 122.599 104.589 114.983 112.183Z" fill="#77C2D7"/>
<circle cx="88.5" cy="82.5" r="20.5" fill="#77C2D7"/>
<path fill-rule="evenodd" clip-rule="evenodd" d="M86.4071 62.319C85.1649 62.319 83.9519 62.4439 82.78 62.6817V55.065C82.78 53.0618 84.4039 51.4379 86.4071 51.4379C88.4103 51.4379 90.0342 53.0618 90.0342 55.065V62.6818C88.8623 62.4439 87.6493 62.319 86.4071 62.319ZM68.2715 80.4546C68.2715 73.0178 72.7477 66.6265 79.1529 63.828V55.065C79.1529 51.0586 82.4007 47.8108 86.4071 47.8108C90.4135 47.8108 93.6613 51.0586 93.6613 55.065V63.828C100.066 66.6266 104.543 73.0178 104.543 80.4546C104.543 90.4706 96.4231 98.5902 86.4071 98.5902C76.3911 98.5902 68.2715 90.4706 68.2715 80.4546ZM91.8479 78.641C91.8479 81.0099 90.334 83.0252 88.2209 83.7721V85.895C88.2209 86.8966 87.4089 87.7086 86.4073 87.7086C85.4057 87.7086 84.5938 86.8966 84.5938 85.895V83.7722C82.4806 83.0253 80.9665 81.01 80.9665 78.641C80.9665 75.6362 83.4024 73.2004 86.4072 73.2004C89.412 73.2004 91.8479 75.6362 91.8479 78.641Z" fill="white"/>
<path d="M155.383 121.58C155.076 123.274 154.617 124.814 154.002 126.355C150.32 135.597 142.036 142.067 132.524 143.608C129.149 144.224 125.773 144.07 122.245 143.454C107.21 140.373 97.3908 125.43 100.613 110.335C103.834 95.2389 118.563 85.3802 133.598 88.6151C138.967 89.6934 143.877 92.312 147.712 96.317C154.463 102.633 157.377 112.337 155.383 121.58Z" fill="#F2385A"/>
<path d="M129 131C130.657 131 132 129.657 132 128C132 126.343 130.657 125 129 125C127.343 125 126 126.343 126 128C126 129.657 127.343 131 129 131Z" fill="white"/>
<path fill-rule="evenodd" clip-rule="evenodd" d="M124.87 99.7161C126.604 99.004 128.511 98.8179 130.35 99.1807C132.19 99.5436 133.882 100.44 135.212 101.758C136.541 103.077 137.449 104.759 137.817 106.593C138.185 108.427 137.996 110.328 137.275 112.055C136.553 113.781 135.333 115.254 133.771 116.289C132.772 116.951 131.662 117.415 130.5 117.663V118C130.5 119.105 129.605 120 128.5 120C127.395 120 126.5 119.105 126.5 118V115.875C126.5 115.345 126.711 114.836 127.086 114.461C127.461 114.086 127.97 113.875 128.5 113.875C129.592 113.875 130.657 113.554 131.562 112.954C132.467 112.355 133.169 111.505 133.584 110.513C133.998 109.521 134.106 108.431 133.895 107.38C133.684 106.328 133.163 105.36 132.395 104.599C131.627 103.837 130.646 103.316 129.576 103.105C128.506 102.894 127.397 103.002 126.39 103.416C125.383 103.83 124.525 104.529 123.923 105.423C123.32 106.317 123 107.366 123 108.438C123 109.542 122.105 110.438 121 110.438C119.895 110.438 119 109.542 119 108.438C119 106.567 119.559 104.74 120.605 103.188C121.651 101.636 123.136 100.428 124.87 99.7161Z" fill="white"/>
</svg>
