<svg width="247" height="244" viewBox="0 0 247 244" fill="none" xmlns="http://www.w3.org/2000/svg">
<path d="M133.348 117.781C129.083 99.1136 119.078 83.6959 106.495 74.0709C95.2449 65.4702 87.6774 52.8959 85.6641 38.9352C85.4521 37.4694 85.1784 35.9947 84.8429 34.5112C79.7213 12.0647 61.6987 -2.96449 44.5944 0.938492C27.4902 4.84148 17.7769 26.2019 22.9072 48.6485C23.958 53.2403 25.5387 57.5141 27.552 61.3906C33.9628 73.7442 35.667 88.0581 31.7729 101.445C28.3025 113.41 27.7904 127.159 30.987 141.155C35.7553 162.021 47.7027 178.842 62.4051 188.026C67.9682 191.505 72.869 195.964 76.8073 201.183C83.3417 209.863 93.1963 214.508 102.795 212.309C113.153 209.942 120.323 200.291 121.789 188.45C122.619 181.747 124.765 175.292 127.882 169.279C135.237 155.08 137.657 136.651 133.348 117.781Z" fill="url(#paint0_linear_916_6715)"/>
<path opacity="0.57" d="M56.0387 23.4557C61.6635 37.7784 66.8116 52.2689 71.8095 66.8212C73.0634 70.4593 74.2555 74.115 75.4564 77.7619L77.2578 83.2367L79.0151 88.7291C80.1718 92.3937 81.3816 96.0495 82.503 99.7317L85.8497 110.77C87.9866 118.16 90.1942 125.525 92.1898 132.96C93.1965 136.669 94.2738 140.369 95.201 144.095L98.0443 155.283C101.682 170.233 104.932 185.279 107.422 200.468L106.76 200.582L104.464 189.288L103.899 186.463L103.263 183.655L101.974 178.039L100.693 172.423C100.27 170.551 99.7751 168.696 99.3247 166.824C98.3887 163.098 97.488 159.371 96.5343 155.645C92.6137 140.793 88.49 126.002 84.0571 111.291C81.7878 103.953 79.5802 96.5969 77.2578 89.2766L75.5271 83.7842L73.7522 78.3006C72.5689 74.6448 71.3945 70.9891 70.1759 67.3422C67.8006 60.0307 65.3811 52.7457 62.891 45.4696C60.445 38.1846 57.9283 30.9261 55.394 23.6676L56.0387 23.4557Z" fill="white"/>
<path d="M70.1494 136.696C64.2949 133.367 60.6833 127.186 60.6391 120.448C60.5862 113.26 58.8024 105.375 55.1379 97.7012C45.5217 77.577 26.6161 66.5656 12.9026 73.1177C-0.801975 79.6698 -4.11333 101.295 5.50285 121.419C7.36604 125.322 9.59127 128.89 12.0461 132.051C15.7813 136.837 16.9822 143.124 15.1897 148.926C13.4766 154.436 13.7592 160.573 16.4436 166.189C20.1081 173.854 27.349 178.657 35.2079 179.54C39.8615 180.07 44.1442 182.295 47.2171 185.836C55.9238 195.885 68.1714 200.168 77.92 195.514C90.4149 189.545 94.0618 171.151 86.0704 154.427C82.2645 146.453 76.4983 140.307 70.1494 136.696Z" fill="url(#paint1_linear_916_6715)"/>
<path opacity="0.52" d="M98.1148 214.57C97.7969 214.711 97.4172 214.667 97.1347 214.429C83.3418 202.411 67.5355 178.454 56.7096 160.467C45.0007 141.014 36.4176 124.174 36.3293 124.006C36.0997 123.556 36.2763 123 36.7355 122.77C37.1859 122.541 37.7422 122.717 37.9718 123.176C38.3073 123.848 72.2509 190.313 98.3444 213.042C98.7241 213.378 98.7683 213.952 98.4327 214.34C98.3356 214.437 98.2296 214.517 98.1148 214.57Z" fill="url(#paint2_linear_916_6715)"/>
<path d="M227.929 208.688C227.929 210.702 226.277 212.344 224.264 212.344H26.2626C24.2493 212.344 22.598 210.702 22.598 208.688L20.9468 94.9012C20.9468 92.8879 23.3133 88.9585 27.6578 89.2587L221.173 84.2519C223.699 84.1901 226.145 85.1614 227.929 86.9452C229.721 88.7289 230.701 91.166 230.64 93.6915L227.929 208.688Z" fill="#035970"/>
<path d="M224.317 205.183C224.317 207.09 222.754 208.644 220.856 208.644H31.0312C29.1239 208.644 27.5698 207.081 27.5698 205.183L26.0156 101.886C26.2011 95.6696 31.6493 93.4355 34.9519 93.568L220.423 88.5877C222.198 88.5436 223.911 89.2235 225.174 90.4774C226.428 91.7313 227.117 93.4444 227.072 95.2193L224.317 205.183Z" fill="#8EDEF4"/>
<path d="M238.993 221.792H15.5517C12.8054 221.792 10.5537 219.54 10.5537 216.794C10.5537 214.048 12.8054 211.796 15.5517 211.796H239.002C241.748 211.796 244 214.048 244 216.794C243.991 219.54 241.739 221.792 238.993 221.792Z" fill="#035970"/>
<path d="M104.948 166H40.0524C38.9193 166 38 164.564 38 162.795V107.976C38 104.842 39.6034 102.285 41.6077 102.215L104.948 100C106.081 100 107 101.436 107 103.205V162.804C107 164.564 106.081 166 104.948 166Z" fill="#E6F9FF"/>
<path d="M207.26 112H120.74C119.227 112 118 111.782 118 111.514V103.206C118 102.731 120.141 102.345 122.81 102.335L207.26 102C208.773 102 210 102.218 210 102.486V111.516C210 111.785 208.773 112 207.26 112Z" fill="#E6F9FF"/>
<path d="M207.26 128H120.74C119.227 128 118 127.782 118 127.514V119.206C118 118.731 120.141 118.345 122.81 118.335L207.26 118C208.773 118 210 118.218 210 118.486V127.516C210 127.785 208.773 128 207.26 128Z" fill="#E6F9FF"/>
<path d="M207.26 144H120.74C119.227 144 118 143.782 118 143.514V135.206C118 134.731 120.141 134.345 122.81 134.335L207.26 134C208.773 134 210 134.218 210 134.486V143.516C210 143.785 208.773 144 207.26 144Z" fill="#E6F9FF"/>
<path d="M122.409 181H40.5914C39.1607 181 38 180.847 38 180.66V174.845C38 174.512 40.0245 174.242 42.5484 174.234L122.409 174C123.839 174 125 174.153 125 174.34V180.661C125 180.849 123.839 181 122.409 181Z" fill="#E6F9FF"/>
<path d="M122.409 192H40.5914C39.1607 192 38 191.847 38 191.66V185.845C38 185.512 40.0245 185.242 42.5484 185.234L122.409 185C123.839 185 125 185.153 125 185.34V191.661C125 191.849 123.839 192 122.409 192Z" fill="#E6F9FF"/>
<path d="M207.26 160H120.74C119.227 160 118 159.76 118 159.465V150.327C118 149.804 120.141 149.38 122.81 149.368L207.26 149C208.773 149 210 149.24 210 149.535V159.468C210 159.763 208.773 160 207.26 160Z" fill="#E6F9FF"/>
<path d="M165.799 162.771C166.823 168.934 174.735 177.765 176.404 180.952C178.665 185.297 178.029 198.322 183.742 204.494C186.4 207.364 189.835 208.053 192.925 207.92C195.168 207.823 197.791 206.666 199.893 205.942C204.193 204.459 208.979 202.754 211.089 198.366C213.156 194.057 212.864 188.776 211.045 184.423C209.535 180.802 206.771 177.933 203.504 175.875C198.471 172.705 192.528 171.169 187.76 167.539C184.307 164.917 182.603 160.643 179.124 158.091C176.475 156.139 173.481 155.742 170.532 156.537C169.675 156.766 168.828 157.084 167.989 157.508C167.98 157.508 167.98 157.508 167.971 157.517C167.803 157.605 167.636 157.711 167.468 157.844C166.964 158.206 166.585 158.63 166.302 159.098C166.24 159.203 166.179 159.318 166.126 159.433C165.658 160.387 165.587 161.526 165.799 162.771Z" fill="#102D42"/>
<path d="M141.321 231.056C141.356 231.047 159.229 199.734 161.648 196.785C162.055 196.291 162.682 196.035 163.317 196.114L168.306 196.706L174.17 209.386L164.404 203.699C165.366 210.384 152.827 220.318 148.518 223.938C148.085 224.309 148.041 224.963 148.438 225.378L150.16 227.179C147.343 230.04 144.085 231.877 140.412 232.724L141.321 231.056Z" fill="url(#paint3_linear_916_6715)"/>
<path d="M149.163 226.208C149.163 226.208 150.258 226.561 150.628 227.541C150.805 228.009 150.611 228.539 150.205 228.83C148.403 230.12 142.443 234.296 139.697 235.118C139.467 235.188 139.255 234.985 139.308 234.756C139.449 234.12 139.908 232.839 141.374 230.976L141.242 231.241C141.074 231.577 141.445 231.93 141.772 231.744C143.617 230.702 147.361 228.433 149.163 226.208Z" fill="#035970"/>
<path d="M148.279 238.737C148.306 238.72 150.99 232.256 151.026 232.238C153.489 217.262 159.485 204.441 161.251 201.067C161.551 200.502 162.117 200.123 162.752 200.07L167.759 199.646L176.068 210.878L165.348 207.284C167.644 213.633 157.375 225.898 153.887 230.322C153.533 230.772 153.631 231.426 154.099 231.744L156.147 233.157C153.966 236.53 151.149 238.985 147.723 240.556L148.279 238.737Z" fill="url(#paint4_linear_916_6715)"/>
<path d="M154.991 232.407C154.991 232.407 156.139 232.53 156.695 233.413C156.96 233.837 156.88 234.393 156.545 234.756C155.035 236.389 150.054 241.678 147.529 243.038C147.326 243.153 147.07 242.994 147.07 242.756C147.079 242.102 147.264 240.76 148.333 238.632L148.253 238.923C148.156 239.285 148.589 239.559 148.871 239.312C150.461 237.926 153.666 234.95 154.991 232.407Z" fill="#035970"/>
<path d="M191.203 197.271C191.203 197.271 195.733 204.008 196.104 207.081C196.475 210.154 194.85 211.214 190.108 211.611C175.998 212.777 169.048 208.547 169.048 208.547C168.086 202.392 167.397 200.829 159.335 197.483C159.335 197.483 169.534 198.295 171.583 197.492C173.631 196.706 191.203 197.271 191.203 197.271Z" fill="#F2385A"/>
<path d="M178.947 196.379C178.947 196.379 173.676 191.355 171.079 188.026C169.675 186.224 169.234 183.858 169.887 181.677C171.071 177.685 173.181 173.544 173.375 172.899C173.667 171.91 179.583 171.955 179.583 171.955C179.583 171.955 191.221 179.504 195.795 192.3L190.656 193.898C190.656 193.898 187.619 188.803 184.616 185.562C184.616 185.562 189.809 192.423 189.994 195.231L178.947 196.379Z" fill="#FAB1A5"/>
<path d="M172.651 167.389C172.713 167.592 174.258 172.714 174.373 172.82C174.497 172.926 177.755 173.102 179.292 172.051L176.157 165.111L172.651 167.389Z" fill="url(#paint5_linear_916_6715)"/>
<path d="M168.404 161.641C168.404 161.641 167.309 164.175 168.598 168.043C169.887 171.901 171.997 172.237 173.34 171.283C174.673 170.33 176.413 168.625 176.625 165.129C176.836 161.632 169.922 158.435 168.404 161.641Z" fill="url(#paint6_linear_916_6715)"/>
<path d="M165.869 162.771C166.541 163.919 167.759 164.44 167.759 164.44C167.759 163.46 168.907 162.542 169.861 162.233C170.823 161.924 171.839 162.171 172.563 162.86C173.508 163.752 174.029 164.952 174.029 164.952L174.338 164.864C174.338 164.864 174.311 163.336 175.283 163.69C176.245 164.052 176.642 166.065 176.642 166.065C176.642 166.065 178.7 167.01 178.894 164.255C179.088 161.509 177.879 159.204 174.311 157.252C173.057 156.564 171.742 156.369 170.523 156.546C169.605 156.678 168.73 157.023 167.98 157.517C167.212 158.021 166.602 158.674 166.152 159.434C165.693 160.387 165.658 161.526 165.869 162.771Z" fill="#102D42"/>
<path d="M174.815 164.961C174.815 164.961 173.596 162.285 175.3 162.188C177.005 162.091 176.307 164.766 175.971 165.746L174.815 164.961Z" fill="url(#paint7_linear_916_6715)"/>
<path d="M168.898 198.366L172.863 194.056L177.437 195.293C177.437 195.293 182.771 196.123 185.826 195.293C188.881 194.463 188.881 194.463 188.881 194.463L195.787 192.317L196.873 195.381C197.147 196.158 196.873 197.023 196.202 197.5C195.601 197.924 194.904 198.392 194.462 198.586C193.553 198.984 173.526 198.71 173.526 198.71L168.898 198.366Z" fill="url(#paint8_linear_916_6715)"/>
<path d="M182.02 200.071C182.003 200.071 181.994 200.071 181.976 200.071L163.742 200.053C163.291 200.053 162.929 199.691 162.929 199.241C162.929 198.79 163.3 198.42 163.75 198.428L181.985 198.446C182.435 198.446 182.797 198.808 182.797 199.258C182.797 199.691 182.453 200.053 182.02 200.071Z" fill="#48687F"/>
<path d="M147.361 183.523H162.541C163.662 183.523 164.678 184.167 165.154 185.183L172.175 200.062H153.304C152.58 200.062 151.936 199.62 151.671 198.949L146.231 185.174C145.913 184.379 146.505 183.523 147.361 183.523Z" fill="#48687F"/>
<path d="M245.737 86.0151C245.994 86.1867 246.105 86.5176 246.031 86.8117L243.151 97.1055C243.066 97.4119 242.796 97.6202 242.49 97.6448L233.593 98.1717C231.522 101.922 228.887 105.255 225.823 108.061L227.416 116.835C227.478 117.142 227.331 117.448 227.061 117.608L217.735 122.852C217.466 123.012 217.123 122.975 216.89 122.767L210.223 116.848C206.228 118.012 202.013 118.539 197.736 118.355L192.662 125.683C192.491 125.941 192.16 126.051 191.866 125.977L181.572 123.098C181.266 123.012 181.057 122.742 181.033 122.436L180.506 113.539C176.756 111.468 173.423 108.833 170.616 105.77L161.842 107.375C161.536 107.436 161.229 107.289 161.07 107.007L155.825 97.6815C155.666 97.4119 155.702 97.0688 155.911 96.8359L161.83 90.1694C160.666 86.1744 160.139 81.9589 160.322 77.682L152.994 72.6086C152.737 72.4248 152.627 72.1062 152.7 71.812L155.58 61.5182C155.666 61.2118 155.935 61.0035 156.242 60.979L165.139 60.452C167.21 56.7021 169.844 53.3689 172.908 50.5626L171.315 41.7883C171.254 41.4819 171.401 41.1755 171.67 41.0162L180.996 35.7712C181.266 35.6119 181.609 35.6487 181.842 35.857L188.508 41.776C192.503 40.6118 196.719 40.0849 200.995 40.2687L206.069 32.9404C206.24 32.6831 206.571 32.5728 206.865 32.6463L217.159 35.5262C217.466 35.6119 217.674 35.8815 217.699 36.1879L218.225 45.0847C221.975 47.1558 225.309 49.7905 228.115 52.8542L236.889 51.2611C237.196 51.1998 237.502 51.3469 237.661 51.6165L242.906 60.9422C243.066 61.2118 243.029 61.5549 242.82 61.7878L236.901 68.4543C238.066 72.4493 238.593 76.6649 238.409 80.9417L245.737 86.0151ZM225.578 83.6745C227.87 70.5008 219.831 57.4374 206.682 53.7488C192.662 49.8273 178.067 58.0379 174.133 72.0571C173.888 72.9272 173.692 73.7973 173.545 74.6674C172.883 78.4785 173.067 82.3878 174.084 86.1132C174.17 86.4318 174.501 86.6156 174.82 86.5298C175.052 86.4685 175.212 86.2725 175.249 86.0519C175.261 85.9661 175.261 85.8803 175.236 85.7945C174.256 82.2285 174.084 78.5031 174.722 74.8634C174.869 74.0301 175.053 73.1968 175.285 72.3635C179.035 58.9815 192.969 51.1385 206.351 54.8884C218.899 58.4055 226.571 70.8807 224.39 83.4539C224.243 84.2872 224.059 85.1205 223.826 85.9539C223.814 86.0151 223.789 86.0764 223.777 86.1254C222.772 89.6057 221.081 92.7184 218.887 95.3286C212.809 102.571 202.883 106.076 193.189 103.539C193.042 103.502 192.907 103.466 192.76 103.429C191.02 102.939 189.354 102.277 187.773 101.444C187.479 101.284 187.111 101.407 186.964 101.689C186.939 101.75 186.915 101.811 186.903 101.873C186.866 102.118 186.976 102.387 187.209 102.51C187.246 102.522 187.27 102.547 187.307 102.559C187.479 102.645 187.638 102.73 187.81 102.816C189.28 103.551 190.836 104.14 192.43 104.593C193.3 104.838 194.17 105.034 195.052 105.181C208.226 107.473 221.301 99.4339 224.978 86.2847C225.235 85.4269 225.431 84.5446 225.578 83.6745ZM210.664 79.5937C210.824 73.3684 205.885 68.1724 199.66 68.0131C196.645 67.9396 193.778 69.0425 191.584 71.1135C189.39 73.1968 188.153 76.0031 188.067 79.0177C187.92 84.6794 191.988 89.4954 197.417 90.439C197.956 90.5371 198.508 90.5861 199.072 90.5984C202.086 90.6719 204.954 89.569 207.147 87.4979C209.341 85.4147 210.591 82.6083 210.664 79.5937Z" fill="#9EB6C7"/>
<path d="M206.681 53.7485C219.831 57.4249 227.87 70.5005 225.578 83.6742C225.431 84.5443 225.235 85.4266 224.99 86.2967C221.313 99.4459 208.238 107.485 195.064 105.193C194.194 105.046 193.324 104.85 192.441 104.605C190.848 104.152 189.292 103.563 187.821 102.828C187.65 102.742 187.491 102.657 187.319 102.571C187.282 102.559 187.258 102.534 187.221 102.522C186.988 102.399 186.866 102.142 186.915 101.885C186.927 101.823 186.951 101.762 186.976 101.701C187.135 101.407 187.491 101.296 187.785 101.456C189.366 102.289 191.032 102.951 192.772 103.441C192.919 103.478 193.054 103.514 193.201 103.551C202.895 106.088 212.821 102.583 218.899 95.3406C221.093 92.7304 222.784 89.6177 223.789 86.1374C223.801 86.0761 223.826 86.0271 223.838 85.9658C224.071 85.1325 224.254 84.2992 224.401 83.4659C226.583 70.8927 218.911 58.4175 206.363 54.9004C192.981 51.1505 179.047 58.9935 175.297 72.3755C175.064 73.1965 174.881 74.0299 174.734 74.8754C174.109 78.515 174.28 82.2404 175.248 85.8065C175.273 85.8923 175.273 85.9781 175.261 86.0639C175.224 86.2845 175.064 86.4805 174.832 86.5418C174.513 86.6276 174.182 86.4438 174.096 86.1252C173.079 82.3875 172.895 78.4783 173.557 74.6793C173.704 73.797 173.913 72.9269 174.145 72.0691C178.055 58.0376 192.662 49.827 206.681 53.7485Z" fill="#DAE4EC"/>
<path d="M199.66 68.0133C205.885 68.1726 210.824 73.3686 210.664 79.5939C210.591 82.6086 209.341 85.4149 207.147 87.4981C204.954 89.5814 202.098 90.6721 199.071 90.5986C198.508 90.5863 197.956 90.525 197.417 90.4392C191.988 89.4956 187.92 84.6796 188.067 79.018C188.14 76.0033 189.39 73.197 191.584 71.1137C193.778 69.0305 196.645 67.9275 199.66 68.0133ZM207.061 79.5081C207.111 77.4494 206.363 75.5009 204.954 74.0181C203.802 72.8049 202.331 72.0206 200.714 71.7387C200.346 71.6774 199.966 71.6407 199.574 71.6284C195.334 71.5181 191.792 74.8759 191.682 79.116C191.633 81.1748 192.38 83.1232 193.79 84.6061C195.199 86.1011 197.111 86.9467 199.17 86.9957C199.243 86.9957 199.304 86.9957 199.378 86.9957C201.363 86.9957 203.226 86.2482 204.672 84.8757C206.167 83.4664 207.012 81.5547 207.061 79.5081Z" fill="#DAE4EC"/>
<path d="M204.954 74.0059C206.363 75.5009 207.123 77.4494 207.062 79.496C207.013 81.5547 206.155 83.4664 204.672 84.8757C203.226 86.2482 201.363 86.9958 199.378 86.9958C199.317 86.9958 199.243 86.9958 199.17 86.9958C197.111 86.9467 195.199 86.0889 193.79 84.6061C192.381 83.1111 191.621 81.1626 191.682 79.1161C191.792 74.876 195.334 71.5182 199.574 71.6285C199.954 71.6408 200.334 71.6775 200.714 71.7388C202.319 72.0084 203.802 72.7927 204.954 74.0059Z" fill="#9EB6C7"/>
<path d="M169.207 29.056C169.256 29.2643 169.158 29.4849 168.974 29.5952L163.717 32.8549C163.692 35.747 163.215 38.6513 162.234 41.4576L166.094 46.2859C166.229 46.4575 166.241 46.6904 166.131 46.8742L162.173 53.1485C162.063 53.3323 161.842 53.4181 161.621 53.3691L155.604 51.9476C153.484 54.0309 151.07 55.722 148.472 56.9842L147.798 63.136C147.774 63.3566 147.614 63.5282 147.406 63.5772L140.164 65.2071C139.955 65.2561 139.735 65.158 139.624 64.9742L136.365 59.717C133.473 59.6925 130.568 59.2146 127.762 58.2342L122.934 62.0944C122.762 62.2292 122.529 62.2414 122.345 62.1312L116.071 58.1729C115.887 58.0626 115.801 57.842 115.851 57.6215L117.272 51.6044C115.189 49.4844 113.498 47.0702 112.235 44.4723L106.084 43.7983C105.863 43.7738 105.691 43.6144 105.642 43.4061L104.013 36.1636C103.964 35.9553 104.062 35.7347 104.245 35.6244L109.503 32.3647C109.527 29.4726 110.005 26.5683 110.985 23.762L107.125 18.9337C106.99 18.7621 106.978 18.5293 107.088 18.3454L111.047 12.0711C111.157 11.8873 111.378 11.8015 111.598 11.8505L117.615 13.272C119.735 11.1888 122.149 9.49762 124.747 8.2354L125.421 2.08358C125.446 1.863 125.605 1.69144 125.813 1.64242L133.056 0.0125542C133.264 -0.0364643 133.485 0.0615726 133.595 0.245392L136.855 5.50262C139.747 5.52713 142.651 6.00506 145.458 6.98542L150.286 3.12522C150.458 2.99042 150.69 2.97817 150.874 3.08846L157.149 7.0467C157.332 7.15699 157.418 7.37757 157.369 7.59816L155.948 13.6152C158.031 15.7352 159.722 18.1494 160.984 20.7473L167.136 21.4214C167.357 21.4459 167.528 21.6052 167.577 21.8135L169.207 29.056ZM152.124 42.2787C157.479 33.8108 154.93 22.561 146.462 17.2058C138.901 12.4387 129.134 13.9338 123.314 20.3307C122.615 21.1027 121.966 21.9483 121.39 22.8674C119.625 25.6492 118.657 28.8599 118.583 32.1319C118.583 32.2789 118.694 32.4015 118.841 32.4015C118.926 32.4015 119 32.3647 119.049 32.3157C119.086 32.2667 119.122 32.2054 119.122 32.1441C119.196 28.9702 120.14 25.8575 121.843 23.1493C122.407 22.2669 123.032 21.4459 123.718 20.6861C129.367 14.473 138.84 13.0147 146.181 17.6469C154.403 22.8429 156.867 33.7617 151.683 41.9846C151.119 42.8669 150.494 43.688 149.808 44.4478C146.401 48.1854 141.61 50.2074 136.732 50.2074C133.509 50.2074 130.262 49.3251 127.345 47.4869C126.279 46.8129 125.287 46.0286 124.404 45.1585C124.306 45.0605 124.135 45.0605 124.024 45.1585C124.024 45.1585 124.024 45.1585 124.012 45.1708C123.914 45.2811 123.926 45.4404 124.024 45.5384C124.037 45.5507 124.037 45.5507 124.049 45.5629C124.122 45.6242 124.184 45.6977 124.257 45.759C124.257 45.759 124.257 45.759 124.269 45.759C124.294 45.7835 124.318 45.808 124.355 45.8325C124.416 45.8815 124.465 45.9306 124.527 45.9918C124.919 46.3472 125.336 46.6903 125.752 47.009C126.181 47.3276 126.622 47.634 127.063 47.9281C134.625 52.7074 144.391 51.2 150.212 44.8031C150.899 44.0434 151.536 43.1978 152.124 42.2787ZM143.374 34.8401C144.6 31.1025 142.553 27.0707 138.816 25.8575C137.002 25.2693 135.078 25.4164 133.375 26.2742C131.683 27.132 130.421 28.6026 129.821 30.4162C129.233 32.2299 129.38 34.1539 130.237 35.8573C130.642 36.6416 131.169 37.3401 131.794 37.9038C132.529 38.5778 133.399 39.0802 134.379 39.3989C138.117 40.6121 142.149 38.5655 143.374 34.8401Z" fill="#9EB6C7"/>
<path d="M146.45 17.206C154.918 22.5613 157.467 33.7988 152.112 42.2789C151.536 43.198 150.887 44.0436 150.188 44.8156C144.367 51.2125 134.6 52.7199 127.039 47.9406C126.586 47.6587 126.145 47.3523 125.728 47.0215C125.299 46.7029 124.895 46.3597 124.502 46.0043C124.441 45.9553 124.392 45.9063 124.331 45.845C124.306 45.8205 124.282 45.796 124.245 45.7715C124.245 45.7715 124.245 45.7715 124.233 45.7715C124.159 45.7102 124.098 45.6367 124.025 45.5754C124.012 45.5632 124.012 45.5632 124 45.5509C123.902 45.4529 123.89 45.2813 123.988 45.1833C123.988 45.1833 123.988 45.1833 124 45.171C124.098 45.0607 124.27 45.0607 124.38 45.171C125.274 46.0411 126.267 46.8254 127.321 47.4994C130.238 49.3376 133.497 50.2199 136.708 50.2199C141.585 50.2199 146.377 48.1979 149.784 44.4603C150.47 43.7127 151.095 42.8917 151.659 41.9971C156.855 33.7742 154.391 22.8554 146.156 17.6594C138.816 13.0272 129.343 14.4855 123.694 20.6986C123.007 21.4461 122.382 22.2672 121.819 23.1618C120.115 25.87 119.172 28.9704 119.098 32.1566C119.098 32.2179 119.074 32.2792 119.025 32.3282C118.976 32.3895 118.902 32.414 118.816 32.414C118.669 32.414 118.547 32.2914 118.559 32.1444C118.632 28.8724 119.601 25.6617 121.365 22.8799C121.941 21.9608 122.591 21.1152 123.289 20.3432C129.135 13.9463 138.902 12.439 146.45 17.206Z" fill="#DAE4EC"/>
<path d="M138.816 25.8451C142.553 27.0705 144.588 31.09 143.374 34.8277C142.161 38.5653 138.129 40.5996 134.392 39.3864C133.424 39.0678 132.541 38.5531 131.806 37.8913C131.169 37.3154 130.642 36.6291 130.25 35.8448C129.392 34.1537 129.245 32.2175 129.833 30.4038C130.421 28.5901 131.683 27.1318 133.387 26.2617C135.078 25.4039 137.002 25.2568 138.816 25.8451ZM142.357 34.5091C143.117 32.1684 142.382 29.693 140.666 28.1367C140.053 27.5852 139.318 27.144 138.485 26.8622C136.953 26.3597 135.311 26.4823 133.865 27.2176C132.419 27.9528 131.353 29.2028 130.85 30.7346C130.348 32.2665 130.47 33.9086 131.206 35.3546C131.941 36.8007 133.191 37.8668 134.723 38.3693C137.897 39.4109 141.316 37.683 142.357 34.5091Z" fill="#DAE4EC"/>
<path d="M140.666 28.1366C142.382 29.693 143.117 32.1684 142.357 34.509C141.316 37.683 137.897 39.4231 134.723 38.3815C133.191 37.8791 131.941 36.8129 131.206 35.3669C130.47 33.9208 130.348 32.2787 130.85 30.7469C131.353 29.2151 132.419 27.9651 133.865 27.2298C135.311 26.4945 136.953 26.372 138.485 26.8744C139.318 27.1318 140.053 27.5729 140.666 28.1366Z" fill="#9EB6C7"/>
<defs>
<linearGradient id="paint0_linear_916_6715" x1="-91.5065" y1="-132.577" x2="115.273" y2="197.304" gradientUnits="userSpaceOnUse">
<stop stop-color="#EFB3A8"/>
<stop offset="1" stop-color="white"/>
</linearGradient>
<linearGradient id="paint1_linear_916_6715" x1="-89.5918" y1="-7.66861" x2="15.3479" y2="215.838" gradientUnits="userSpaceOnUse">
<stop stop-color="#EFB3A8"/>
<stop offset="1" stop-color="white"/>
</linearGradient>
<linearGradient id="paint2_linear_916_6715" x1="89.2803" y1="168.661" x2="26.8594" y2="168.661" gradientUnits="userSpaceOnUse">
<stop stop-color="#CE1567"/>
<stop offset="1" stop-color="#7A1DBC"/>
</linearGradient>
<linearGradient id="paint3_linear_916_6715" x1="176.529" y1="232.508" x2="135.414" y2="199.549" gradientUnits="userSpaceOnUse">
<stop stop-color="#F9B776"/>
<stop offset="1" stop-color="#F47960"/>
</linearGradient>
<linearGradient id="paint4_linear_916_6715" x1="178.049" y1="240.314" x2="136.448" y2="215.246" gradientUnits="userSpaceOnUse">
<stop stop-color="#F9B776"/>
<stop offset="1" stop-color="#F47960"/>
</linearGradient>
<linearGradient id="paint5_linear_916_6715" x1="179.756" y1="172.855" x2="171.182" y2="166.5" gradientUnits="userSpaceOnUse">
<stop stop-color="#F9B776"/>
<stop offset="1" stop-color="#F47960"/>
</linearGradient>
<linearGradient id="paint6_linear_916_6715" x1="177.234" y1="171.666" x2="165.164" y2="163.702" gradientUnits="userSpaceOnUse">
<stop stop-color="#F9B776"/>
<stop offset="1" stop-color="#F47960"/>
</linearGradient>
<linearGradient id="paint7_linear_916_6715" x1="167.328" y1="165.354" x2="182.084" y2="162.882" gradientUnits="userSpaceOnUse">
<stop stop-color="#FEBBBA"/>
<stop offset="1" stop-color="#FF928E"/>
</linearGradient>
<linearGradient id="paint8_linear_916_6715" x1="198.94" y1="198.764" x2="195.239" y2="184.829" gradientUnits="userSpaceOnUse">
<stop stop-color="#F9B776"/>
<stop offset="1" stop-color="#F47960"/>
</linearGradient>
</defs>
</svg>
