<svg xmlns="http://www.w3.org/2000/svg" width="120" height="120" viewBox="0 0 120 120">
    <g fill="none" fill-rule="evenodd">
        <g>
            <g>
                <g>
                    <g transform="translate(-361 -443) translate(155 354) translate(0 49) translate(206 40)">
                        <rect width="120" height="120" fill="#D4E1F8" opacity=".2" rx="4"/>
                        <path fill="#E7F0FF" d="M60 0h56c2.21 0 4 1.79 4 4v56H60V0zM0 60h60v60H4c-2.21 0-4-1.79-4-4V60z"/>
                        <g>
                            <path fill="#3C80EF" d="M20.843 18.263c-3.269 0-6.521.775-9.418 2.244l-.795-2.848c-.608-2.288.759-4.648 3.045-5.26 2.293-.614 4.657.75 5.271 3.043.16.597.544 1.097 1.08 1.406.536.31 1.16.391 1.757.231l5.115-1.37c.598-.16 1.097-.544 1.406-1.08.31-.535.392-1.16.232-1.757-.984-3.672-3.339-6.74-6.631-8.641-3.292-1.9-7.127-2.406-10.8-1.422C3.527 4.84-.985 12.666 1.048 20.255l2.143 7.766C1.103 31.335 0 35.167 0 39.106c0 11.493 9.35 20.842 20.843 20.842s20.843-9.35 20.843-20.842c0-11.493-9.35-20.843-20.843-20.843" transform="translate(34 30)"/>
                            <path fill="#0E57AF" d="M15.748 18.19l-.796-2.849c-.607-2.288.76-4.648 3.046-5.26 2.292-.614 4.657.75 5.271 3.043.16.597.543 1.097 1.08 1.406.535.31 1.16.392 1.757.231l5.115-1.37c.597-.16.62-.127.93-.663.31-.536.391-1.16.231-1.757-.984-3.672-3.646-6.928-6.63-8.642-2.986-1.713-7.128-2.001-10.8-1.017-7.58 2.03-11.615 9.036-9.582 16.625l2.142 7.766c-2.087 3.315-3.19 7.146-3.19 11.085 0 11.493 9.35 20.843 20.844 20.843 11.492 0 20.843-9.35 20.843-20.843s-9.35-20.843-20.843-20.843c-3.27 0-6.521.776-9.418 2.244z" transform="translate(34 30)"/>
                            <path fill="#88B5FF" d="M14.659 21.961l-1.573-5.631c-.917-3.422 1.12-6.951 4.542-7.868 3.422-.917 6.62 1.015 7.538 4.437l5.294-1.224c-1.653-6.169-7.993-9.83-14.162-8.177C10.13 5.151 6.47 11.491 8.122 17.66l2.352 8.525c-2.07 2.93-3.288 6.506-3.288 10.366 0 9.93 8.05 17.979 17.98 17.979s17.979-8.05 17.979-17.98c0-9.929-8.05-17.978-17.98-17.978-3.922 0-7.55 1.257-10.506 3.389z" transform="translate(34 30)"/>
                            <path fill="#0E57AF" d="M39.833 14.453c.69 0 1.25-.482 1.25-1.077V9.658c0-.595-.56-1.077-1.25-1.077s-1.25.482-1.25 1.077v3.718c0 .595.56 1.077 1.25 1.077M51.725 20.645h-3.718c-.595 0-1.077.56-1.077 1.25s.482 1.25 1.077 1.25h3.718c.594 0 1.077-.56 1.077-1.25s-.483-1.25-1.077-1.25" transform="translate(34 30)"/>
                            <path fill="#0E57AF" d="M51.095 12.645h-6.331c-1.013 0-1.834.56-1.834 1.25s.821 1.25 1.834 1.25h6.331c1.013 0 1.835-.56 1.835-1.25s-.822-1.25-1.835-1.25" transform="translate(34 30) rotate(-43 47.93 13.895)"/>
                            <path fill="#0E57AF" fill-rule="nonzero" d="M25.09 35.62c-1.673 0-3.034-1.2-3.034-2.675 0-1.475 1.361-2.675 3.034-2.675 1.673 0 3.034 1.2 3.034 2.675 0 .776.617 1.405 1.378 1.405.762 0 1.38-.629 1.38-1.405 0-2.574-1.883-4.738-4.413-5.326v-.73c0-.776-.618-1.405-1.379-1.405s-1.379.629-1.379 1.405v.73c-2.53.588-4.412 2.752-4.412 5.326 0 3.025 2.598 5.485 5.791 5.485 1.673 0 3.034 1.2 3.034 2.675 0 1.475-1.361 2.675-3.034 2.675-1.673 0-3.034-1.2-3.034-2.675 0-.776-.617-1.405-1.378-1.405-.762 0-1.38.63-1.38 1.405 0 2.574 1.883 4.739 4.413 5.326v.607c0 .776.618 1.405 1.379 1.405s1.379-.63 1.379-1.405v-.607c2.53-.587 4.412-2.752 4.412-5.326 0-3.024-2.598-5.485-5.791-5.485z" transform="translate(34 30) rotate(-13 25.09 36.963)"/>
                        </g>
                    </g>
                </g>
            </g>
        </g>
    </g>
</svg>
