<svg width="181" height="159" fill="none" xmlns="http://www.w3.org/2000/svg"><path d="m156.21 98.631.545 1.104c.28.567.82.959 1.445 1.05l1.218.177c.929.135 1.3 1.277.628 1.932l-.881.859a1.917 1.917 0 0 0-.552 1.699l.208 1.213c.158.925-.813 1.631-1.644 1.194l-1.089-.573a1.92 1.92 0 0 0-1.787 0l-1.089.573a1.132 1.132 0 0 1-1.643-1.194l.208-1.213a1.92 1.92 0 0 0-.552-1.699l-.882-.859a1.133 1.133 0 0 1 .628-1.932l1.218-.177a1.917 1.917 0 0 0 1.445-1.05l.545-1.104c.416-.841 1.616-.841 2.031 0Z" fill="#D4F5FF"/><path d="M156.21 98.631c-.415-.841-1.615-.841-2.031 0l-.545 1.104c-.279.567-.82.959-1.445 1.05l-1.218.177a1.133 1.133 0 0 0-.628 1.932l.882.859a1.92 1.92 0 0 1 .552 1.699l-.208 1.213a1.132 1.132 0 0 0 1.643 1.194l.903-.475c-.38-1.296-.78-3.513.361-4.883a23.607 23.607 0 0 0 2.15-3.027l-.416-.843Z" fill="#B2ECFC"/><path d="m88.73 51.054 39.14 40.443c-.613.694-1.615.71-2.598.644l-92.386-6.155c-.868-.058-1.67-.479-2.287-1.122l51.44-34.8c2.042-1.382 4.775-.977 6.69.99Z" fill="url(#a)"/><path d="m89.422 126.432 38.617-34.746c-.603-.759-1.463-1.26-2.43-1.32l-92.422-5.584a3.177 3.177 0 0 0-2.328.83l51.885 41.002c2.04 1.612 4.766 1.538 6.678-.182Z" fill="url(#b)"/><path d="M89.42 126.433c-1.911 1.719-4.64 1.794-6.678.182L30.857 85.612c-.768.688-1.26 1.743-1.26 2.94v66.475c0 2.24 1.716 4.04 3.728 3.909l92.42-5.989c1.793-.116 3.178-1.757 3.178-3.762V94.27c0-.986-.336-1.892-.887-2.584L89.42 126.433Z" fill="url(#c)"/><path d="m124.024 90.331-92.436-5.586C29.627 84.627 28 86.336 28 88.515v66.48c0 2.241 1.715 4.041 3.727 3.911l92.435-5.99c1.793-.116 3.179-1.757 3.179-3.762v-54.92c.001-2.064-1.467-3.79-3.317-3.903Z" fill="url(#d)"/><path d="M124.575 152.381V47.934c0-3.538-.999-6.946-2.854-9.946L30.867 30l-1.354 1.29c1.929 2.992 3.076 6.47 3.076 10.102v113.006l91.986-2.017Z" fill="#D18F0B"/><path d="M126.344 151.174V46.649c0-6.221-1.181-6.946-3.038-9.948L30.872 30a18.575 18.575 0 0 1 2.974 10.108V153.19l92.498-2.015Z" fill="url(#e)"/><path d="M128.91 94.27v54.917c0 2.006-1.38 3.645-3.174 3.762l-5.79.375-86.559 5.615c-2.01.13-3.655-1.671-3.655-3.912V88.555c0-.076-.067-.15-.062-.224.004-.094-.024-.187-.013-.279.006-.05-.005-.098.004-.147 0-.007-.009-.014-.006-.018.01-.07.019-.136.033-.202a4.016 4.016 0 0 1 .119-.454c.058-.178.128-.346.208-.509.04-.075.078-.15.12-.223a5.32 5.32 0 0 1 .087-.143 3.455 3.455 0 0 1 .357-.47c.05-.053.1-.108.153-.16.039-.04.08-.077.122-.114l51.885 41.003c2.04 1.612 4.765 1.535 6.676-.184l38.619-34.746c.276.346.498.745.648 1.184.041.107.074.22.102.333.015.056.027.111.04.167.011.05.02.1.028.15.011.057.022.12.028.18.009.062.013.124.017.186.011.128.013.257.013.386Z" fill="url(#f)"/><path d="M128.912 94.27v54.917c0 2.007-1.381 3.645-3.174 3.762l-5.79.375c-.908-2.678-2.317-5.141-4.523-6.73-7.296-5.252-16.069 4.264-24.666-.983-6.141-3.746-3.756-9.872-11.21-15.25-7.06-5.095-11.322-1.136-16.266-6.446-4.748-5.103-2.378-10.436-7.797-15.211-2.814-2.481-3.483-1.071-9.87-4.546-6.836-3.722-7.618-6.216-11.19-6.624-1.293-.149-3.152-.016-4.694.823v-9.802c0-.076-.067-.15-.062-.224.004-.094-.024-.187-.013-.279.006-.05-.005-.098.004-.147 0-.007-.009-.014-.006-.018.01-.07.019-.136.033-.202a4.032 4.032 0 0 1 .119-.454c.058-.178.128-.346.208-.509.04-.075.078-.15.12-.223a5.32 5.32 0 0 1 .087-.143 3.455 3.455 0 0 1 .357-.47c.05-.053.1-.108.153-.16.039-.04.08-.077.122-.114l51.885 41.003c2.04 1.612 4.765 1.535 6.676-.184l38.619-34.746a4.136 4.136 0 0 1 .846 2.014c.009.062.013.124.017.186.013.128.015.257.015.386Z" fill="url(#g)"/><path fill-rule="evenodd" clip-rule="evenodd" d="M82.08 48.86a6.596 6.596 0 0 0-6.596 6.596v22.106a1.783 1.783 0 0 1-3.566 0V55.456c0-5.613 4.55-10.162 10.162-10.162 5.612 0 10.162 4.55 10.162 10.162v.894a1.783 1.783 0 0 1-3.566 0v-.894a6.596 6.596 0 0 0-6.596-6.597Z" fill="url(#h)"/><mask id="j" style="mask-type:alpha" maskUnits="userSpaceOnUse" x="71" y="45" width="22" height="35"><path fill-rule="evenodd" clip-rule="evenodd" d="M82.08 48.86a6.596 6.596 0 0 0-6.596 6.596v22.106a1.783 1.783 0 0 1-3.566 0V55.456c0-5.613 4.55-10.162 10.162-10.162 5.612 0 10.162 4.55 10.162 10.162v.894a1.783 1.783 0 0 1-3.566 0v-.894a6.596 6.596 0 0 0-6.596-6.597Z" fill="url(#i)"/></mask><g mask="url(#j)"><path d="M75.686 53.029c0-3.42 3.517-6.233 8.02-6.564.49-.036.89-.431.89-.924V43.76a.86.86 0 0 0-.891-.87c-7.166.34-12.836 4.75-12.836 10.14v22.107c0 .984 1.078 1.782 2.409 1.782 1.33 0 2.408-.798 2.408-1.782V53.029Z" fill="url(#k)"/></g><path d="M100.089 83.716c0 9.895-8.022 17.917-17.917 17.917-9.895 0-17.917-8.022-17.917-17.917 0-9.895 8.022-17.917 17.917-17.917 9.895 0 17.917 8.022 17.917 17.917Z" fill="url(#l)"/><path d="M85.077 84.115c0-.33.186-.628.46-.813a5.08 5.08 0 0 0 2.25-4.222 5.082 5.082 0 0 0-5.081-5.084 5.083 5.083 0 0 0-5.081 5.084c0 1.677.811 3.164 2.063 4.09a.993.993 0 0 1 .421.787v8.58c0 .492.4.891.891.891h3.186c.492 0 .891-.399.891-.89v-8.423Z" fill="#FCD7DE"/><g filter="url(#m)"><path d="M89.533 89.536a2.711 2.711 0 0 1 2.712-2.712h13.557a2.712 2.712 0 0 1 2.712 2.712v13.557a2.712 2.712 0 0 1-2.712 2.712H92.245a2.712 2.712 0 0 1-2.712-2.712V89.536Z" fill="#FCF0EE"/></g><path d="M45.304 45.763c.11-.35.557-.45.807-.181l1.821 1.96c.092.098.22.154.354.153l2.677-.022c.366-.003.6.39.421.711l-1.301 2.338a.478.478 0 0 0-.036.384l.847 2.539a.478.478 0 0 1-.546.62l-2.626-.515a.479.479 0 0 0-.376.085l-2.152 1.59a.478.478 0 0 1-.76-.327l-.32-2.657a.478.478 0 0 0-.197-.332l-2.178-1.555a.478.478 0 0 1 .077-.823l2.427-1.127a.478.478 0 0 0 .255-.29l.806-2.551Z" fill="#20C9AD"/><path d="M2.736 94.855a.285.285 0 0 1 .48-.109l1.086 1.169a.285.285 0 0 0 .211.091l1.595-.013a.285.285 0 0 1 .251.424l-.775 1.394a.285.285 0 0 0-.022.228l.505 1.513a.285.285 0 0 1-.325.37l-1.565-.307a.285.285 0 0 0-.224.05l-1.283.948a.285.285 0 0 1-.452-.195l-.192-1.583a.285.285 0 0 0-.117-.198L.61 97.71a.285.285 0 0 1 .046-.49l1.446-.672a.285.285 0 0 0 .152-.173l.481-1.52Z" fill="#FAAFBD"/><path d="M145.539 41.02a.259.259 0 0 1 .418.16l.234 1.429a.256.256 0 0 0 .114.175l1.212.792a.259.259 0 0 1-.022.447l-1.288.664a.26.26 0 0 0-.131.162l-.378 1.398a.259.259 0 0 1-.432.117l-1.03-1.02a.257.257 0 0 0-.195-.074l-1.446.072a.259.259 0 0 1-.245-.375l.652-1.294a.26.26 0 0 0 .01-.208l-.515-1.354a.259.259 0 0 1 .281-.348l1.432.22a.258.258 0 0 0 .201-.055l1.128-.908Z" fill="#D4F5FF"/><g filter="url(#n)"><path d="m104.25 95.97-1.747 1.673.413 2.363a1.06 1.06 0 0 1-.438 1.055c-.34.245-.783.275-1.156.08l-2.157-1.114-2.16 1.115c-.16.083-.335.127-.509.127-.227 0-.45-.07-.643-.207a1.063 1.063 0 0 1-.437-1.056l.412-2.363-1.747-1.672a1.057 1.057 0 0 1-.278-1.107c.132-.393.473-.673.89-.731l2.41-.345 1.08-2.151c.188-.37.564-.6.982-.6h.003c.42.001.796.231.981.601l1.081 2.15 2.414.346c.412.057.753.337.883.73.132.395.027.819-.277 1.107Z" fill="#F2385A"/></g><path d="m139.836 12.305 39.854 10.059-6.228 2.999-33.626-13.058Z" fill="#FFECEF"/><path d="m139.836 12.305 33.626 13.058-6.73 12.643-26.896-25.7Z" fill="#FAAFBD"/><path d="m166.732 38.008-26.895-25.701L167.25 28.19l-.518 9.818Z" fill="#FF768F"/><path d="m156.892 34.812-17.054-22.508 27.413 15.883-10.359 6.625Z" fill="#FFECEF"/><path d="M173 36.5c8.874 11.702 22 45-39 48.5" stroke="#102D42" stroke-width=".5" stroke-dasharray="2 2"/><defs><linearGradient id="a" x1="79.234" y1="49.249" x2="79.234" y2="92.166" gradientUnits="userSpaceOnUse"><stop stop-color="#8EDEF4"/><stop offset="1" stop-color="#E2F9FF"/></linearGradient><linearGradient id="b" x1="79.449" y1="84.776" x2="79.449" y2="127.774" gradientUnits="userSpaceOnUse"><stop stop-color="#8EDEF4"/><stop offset="1" stop-color="#E2F9FF"/></linearGradient><linearGradient id="c" x1="69.434" y1="102.906" x2="106.388" y2="184.821" gradientUnits="userSpaceOnUse"><stop stop-color="#FFC444"/><stop offset=".996" stop-color="#F36F56"/></linearGradient><linearGradient id="d" x1="77.67" y1="84.74" x2="77.67" y2="158.913" gradientUnits="userSpaceOnUse"><stop stop-color="#7CDFFB"/><stop offset="1" stop-color="#97E8FE"/></linearGradient><linearGradient id="e" x1="79" y1="25.5" x2="91.387" y2="160.99" gradientUnits="userSpaceOnUse"><stop stop-color="#F2BE38"/><stop offset=".729" stop-color="#FFF1CC"/></linearGradient><linearGradient id="f" x1="78.999" y1="110" x2="79.282" y2="158.945" gradientUnits="userSpaceOnUse"><stop stop-color="#A0EBFF"/><stop offset="1" stop-color="#E4F9FF"/></linearGradient><linearGradient id="g" x1="79.283" y1="85.612" x2="78.999" y2="188" gradientUnits="userSpaceOnUse"><stop stop-color="#A0EBFF"/><stop offset="1" stop-color="#E4F9FF"/></linearGradient><linearGradient id="h" x1="82.08" y1="45.294" x2="82.08" y2="79.345" gradientUnits="userSpaceOnUse"><stop stop-color="#DB1C3F"/><stop offset="1" stop-color="#FF768F"/></linearGradient><linearGradient id="i" x1="82.08" y1="45.294" x2="82.08" y2="79.345" gradientUnits="userSpaceOnUse"><stop stop-color="#F2385A"/><stop offset="1" stop-color="#FF768F"/></linearGradient><linearGradient id="k" x1="77.733" y1="42.887" x2="77.733" y2="76.918" gradientUnits="userSpaceOnUse"><stop stop-color="#F2385A"/><stop offset="1" stop-color="#FF768F"/></linearGradient><linearGradient id="l" x1="82.172" y1="65.799" x2="82.172" y2="101.633" gradientUnits="userSpaceOnUse"><stop stop-color="#EC4261"/><stop offset="0" stop-color="#F2385A"/><stop offset="1" stop-color="#FFA8B8"/></linearGradient><filter id="m" x="88.314" y="85.606" width="21.418" height="21.418" filterUnits="userSpaceOnUse" color-interpolation-filters="sRGB"><feFlood flood-opacity="0" result="BackgroundImageFix"/><feGaussianBlur in="BackgroundImage" stdDeviation=".609"/><feComposite in2="SourceAlpha" operator="in" result="effect1_backgroundBlur_259_9313"/><feBlend in="SourceGraphic" in2="effect1_backgroundBlur_259_9313" result="shape"/></filter><filter id="n" x="93.749" y="91.037" width="11.917" height="11.315" filterUnits="userSpaceOnUse" color-interpolation-filters="sRGB"><feFlood flood-opacity="0" result="BackgroundImageFix"/><feBlend in="SourceGraphic" in2="BackgroundImageFix" result="shape"/><feColorMatrix in="SourceAlpha" values="0 0 0 0 0 0 0 0 0 0 0 0 0 0 0 0 0 0 127 0" result="hardAlpha"/><feOffset dx="1.082" dy="1.082"/><feGaussianBlur stdDeviation="1.082"/><feComposite in2="hardAlpha" operator="arithmetic" k2="-1" k3="1"/><feColorMatrix values="0 0 0 0 1 0 0 0 0 1 0 0 0 0 1 0 0 0 1 0"/><feBlend in2="shape" result="effect1_innerShadow_259_9313"/></filter></defs></svg>