<svg width="97" height="101" viewBox="0 0 97 101" fill="none" xmlns="http://www.w3.org/2000/svg">
<path fill-rule="evenodd" clip-rule="evenodd" d="M46.6185 5.92375C40.5661 5.92375 35.6596 10.8302 35.6596 16.8827V53.61C35.6596 55.2458 34.3335 56.5718 32.6977 56.5718C31.0619 56.5718 29.7358 55.2458 29.7358 53.61V16.8827C29.7358 7.55864 37.2945 0 46.6185 0C55.9426 0 63.5012 7.55864 63.5012 16.8827V18.3681C63.5012 20.0039 62.1752 21.33 60.5394 21.33C58.9036 21.33 57.5775 20.0039 57.5775 18.3681V16.8827C57.5775 10.8302 52.671 5.92375 46.6185 5.92375Z" fill="#F2BE38"/>
<mask id="mask0_13_1223" style="mask-type:alpha" maskUnits="userSpaceOnUse" x="29" y="0" width="35" height="57">
<path fill-rule="evenodd" clip-rule="evenodd" d="M46.6185 5.92375C40.5661 5.92375 35.6596 10.8302 35.6596 16.8827V53.61C35.6596 55.2458 34.3335 56.5718 32.6977 56.5718C31.0619 56.5718 29.7358 55.2458 29.7358 53.61V16.8827C29.7358 7.55864 37.2945 0 46.6185 0C55.9426 0 63.5012 7.55864 63.5012 16.8827V18.3681C63.5012 20.0039 62.1752 21.33 60.5394 21.33C58.9036 21.33 57.5775 20.0039 57.5775 18.3681V16.8827C57.5775 10.8302 52.671 5.92375 46.6185 5.92375Z" fill="#F2BE38"/>
</mask>
<g mask="url(#mask0_13_1223)">
<path d="M36.0023 12.8492C36.0023 7.16652 41.8453 2.49403 49.3266 1.94437C50.1423 1.88444 50.8065 1.22726 50.8065 0.409362V-2.55251C50.8065 -3.37041 50.1416 -4.03717 49.3246 -3.99839C37.4196 -3.43321 28 3.89371 28 12.8492V49.5765C28 51.2123 29.7914 52.5384 32.0011 52.5384C34.2109 52.5384 36.0023 51.2123 36.0023 49.5765V12.8492Z" fill="url(#paint0_linear_13_1223)"/>
</g>
<path d="M76.5337 63.8284C76.5337 80.2682 63.2066 93.5953 46.7669 93.5953C30.3271 93.5953 17 80.2682 17 63.8284C17 47.3887 30.3271 34.0616 46.7669 34.0616C63.2066 34.0616 76.5337 47.3887 76.5337 63.8284Z" fill="url(#paint1_linear_13_1223)"/>
<path d="M51.5945 64.4971C51.5945 63.9483 51.9043 63.4534 52.3596 63.147C54.6136 61.6305 56.0966 59.0549 56.0966 56.1327C56.0966 51.4679 52.3173 47.6862 47.6552 47.6862C42.9932 47.6862 39.2139 51.4679 39.2139 56.1327C39.2139 58.9187 40.5618 61.3896 42.6407 62.9281C43.0601 63.2385 43.3407 63.7137 43.3407 64.2354V78.4897C43.3407 79.3076 44.0038 79.9707 44.8217 79.9707H50.1136C50.9315 79.9707 51.5945 79.3076 51.5945 78.4897V64.4971Z" fill="#D18F0B"/>
<path d="M59 73.5048C59 71.0169 61.0169 69 63.5048 69H86.0289C88.5168 69 90.5337 71.0169 90.5337 73.5048V96.0289C90.5337 98.5168 88.5168 100.534 86.0289 100.534H63.5048C61.0169 100.534 59 98.5168 59 96.0289V73.5048Z" fill="#FCF0EE"/>
<path d="M3.43738 33.0738C3.52009 32.8121 3.85431 32.7369 4.0411 32.938L5.40508 34.406C5.4735 34.4797 5.56974 34.5212 5.67026 34.5203L7.67409 34.5043C7.9485 34.5021 8.12329 34.7968 7.98981 35.0365L7.0151 36.7874C6.96621 36.8752 6.95649 36.9796 6.98831 37.0749L7.62278 38.9757C7.70967 39.236 7.48347 39.4933 7.21418 39.4405L5.2478 39.0545C5.14916 39.0352 5.04692 39.0581 4.96607 39.1179L3.35436 40.3087C3.13364 40.4718 2.81906 40.3361 2.78611 40.0637L2.54553 38.0743C2.53346 37.9745 2.47999 37.8844 2.39819 37.8259L0.767633 36.6611C0.544338 36.5015 0.576118 36.1604 0.82504 36.0449L2.64273 35.2014C2.73391 35.159 2.80311 35.0803 2.83341 34.9845L3.43738 33.0738Z" fill="#D18F0B"/>
<path d="M5.06145 74.9563C5.13512 74.7233 5.43279 74.6563 5.59915 74.8354L6.81396 76.1429C6.8749 76.2085 6.96061 76.2454 7.05014 76.2447L8.83483 76.2304C9.07923 76.2285 9.2349 76.4909 9.11601 76.7044L8.24791 78.2638C8.20436 78.342 8.1957 78.435 8.22405 78.5199L8.78913 80.2128C8.86651 80.4447 8.66505 80.6738 8.42522 80.6267L6.67388 80.283C6.58603 80.2657 6.49497 80.2862 6.42296 80.3394L4.98751 81.4C4.79094 81.5452 4.51076 81.4244 4.48141 81.1818L4.26714 79.41C4.25639 79.3211 4.20877 79.2408 4.13592 79.1888L2.68368 78.1513C2.48481 78.0092 2.51311 77.7054 2.73481 77.6025L4.35371 76.8512C4.43492 76.8135 4.49655 76.7434 4.52354 76.6581L5.06145 74.9563Z" fill="#F2BE38"/>
<path d="M91.9406 29.6939C92.1973 29.4871 92.5815 29.6341 92.6347 29.9593L93.0231 32.3343C93.0426 32.4535 93.1113 32.5589 93.2123 32.6249L95.2272 33.9409C95.5031 34.1211 95.4821 34.5319 95.1892 34.683L93.0505 35.7863C92.9432 35.8417 92.8641 35.9396 92.8326 36.0561L92.2037 38.379C92.1175 38.6971 91.7203 38.804 91.4861 38.5722L89.7759 36.8791C89.6901 36.7941 89.5726 36.7492 89.452 36.7552L87.0484 36.8749C86.7193 36.8913 86.4948 36.5465 86.643 36.2521L87.7247 34.1024C87.779 33.9946 87.7854 33.8689 87.7424 33.7561L86.8859 31.5072C86.7686 31.1992 87.0271 30.8792 87.3529 30.9291L89.7316 31.2936C89.8509 31.3119 89.9725 31.2792 90.0665 31.2035L91.9406 29.6939Z" fill="#F2BE38"/>
<path d="M83.4467 84.1976L80.5439 86.9752L81.2308 90.9022C81.349 91.5821 81.0708 92.2523 80.5021 92.654C79.9382 93.0605 79.2021 93.1113 78.5816 92.7871L74.9992 90.9361L71.4095 92.7895C71.1436 92.9274 70.8531 93 70.565 93C70.1883 93 69.8165 92.8839 69.4964 92.6564C68.9302 92.2523 68.6519 91.5821 68.7701 90.9022L69.4546 86.9752L66.5518 84.1976C66.0495 83.7185 65.8747 83.0144 66.0913 82.3587C66.3105 81.7054 66.8768 81.2408 67.5686 81.144L71.572 80.5706L73.3669 76.9969C73.6796 76.3823 74.3049 76 74.9992 76H75.0042C75.7009 76.0024 76.3263 76.3847 76.6341 76.9993L78.429 80.5706L82.4397 81.1465C83.1242 81.2408 83.6905 81.7054 83.9072 82.3587C84.1263 83.0144 83.9515 83.7185 83.4467 84.1976Z" fill="#FF768F"/>
<defs>
<linearGradient id="paint0_linear_13_1223" x1="39.4032" y1="-4" x2="50.2515" y2="54.6654" gradientUnits="userSpaceOnUse">
<stop stop-color="#F2BE38"/>
<stop offset="1" stop-color="#FFF1CC"/>
</linearGradient>
<linearGradient id="paint1_linear_13_1223" x1="46.7669" y1="34.0616" x2="51.5059" y2="97.5938" gradientUnits="userSpaceOnUse">
<stop stop-color="#F2BE38"/>
<stop offset="1" stop-color="#FFF1CC"/>
</linearGradient>
</defs>
</svg>
