<svg width="120" height="41" viewBox="0 0 120 41" fill="none" xmlns="http://www.w3.org/2000/svg">
<path d="M115.731 40.2143H4.20356C2.22447 40.2143 0.5 38.3386 0.5 35.8968V4.81039C0.5 2.36859 2.22352 0.5 4.20356 0.5H115.731C117.719 0.5 119.5 2.37926 119.5 4.81039V35.8968C119.5 38.328 117.718 40.2143 115.731 40.2143Z" fill="#102D42" stroke="#618298"/>
<path fill-rule="evenodd" clip-rule="evenodd" d="M64.0195 13.4615C64.5537 14.0232 65.2293 14.3086 66.0306 14.3086C66.832 14.3086 67.5075 14.0255 68.0395 13.4592C68.5693 12.911 68.8431 12.2166 68.8519 11.3942C68.8519 10.5921 68.5782 9.89773 68.0395 9.32924C67.4965 8.76749 66.8209 8.48212 66.0284 8.48212C65.2271 8.48212 64.5515 8.76749 64.0195 9.32924C63.4809 9.87976 63.2071 10.5741 63.2071 11.3942C63.1939 12.1627 63.4897 12.9155 64.0195 13.4615ZM40.1665 13.4727C40.7228 14.0277 41.4028 14.3086 42.1865 14.3086C43.0033 14.3086 43.6788 14.03 44.1954 13.4817C44.6501 13.0188 44.8797 12.3919 44.8797 11.6167C44.8797 11.4819 44.8599 11.3358 44.84 11.1943L44.829 11.1179H42.0871V11.9582H44.0055C43.957 12.356 43.8201 12.6705 43.5993 12.8952C43.2262 13.2772 42.7472 13.4705 42.1776 13.4705C41.6434 13.4705 41.1776 13.2772 40.7935 12.8952C40.4072 12.511 40.2107 12.0077 40.2107 11.3987C40.2107 10.7898 40.4072 10.2865 40.7935 9.90223C41.1776 9.52023 41.6434 9.32699 42.1776 9.32699C42.7759 9.32699 43.2285 9.52698 43.5662 9.93593L43.628 10.0101L44.2263 9.41238L44.1733 9.34721C43.9592 9.08881 43.67 8.87759 43.3145 8.72255C42.9525 8.56301 42.575 8.48436 42.1865 8.48436C41.3917 8.48436 40.7118 8.76524 40.1665 9.32025C39.6146 9.87302 39.3343 10.5718 39.3343 11.3965C39.3343 12.2211 39.6146 12.92 40.1665 13.4727ZM73.0441 14.1895H73.8896V8.60346H73.0353V11.8616L73.0574 12.6189L70.6224 8.64615L70.5959 8.60346H69.6312V14.1873H70.4767V10.7314L70.4546 9.97188L73.0441 14.1895ZM58.8206 14.1895H59.675V9.44384H61.1607V8.60346H57.3349V9.44384H58.8206V14.1895ZM55.783 14.1895H56.6373V8.60346H55.783V14.1895ZM50.9815 14.1895H51.8358V9.44384H53.3215V8.60346H49.4958V9.44384H50.9815V14.1895ZM45.6789 14.1805H48.9549V13.3401H46.5354V11.8077H48.7187V10.9763H46.5354V9.44384H48.9549V8.60346H45.6789V14.1805ZM66.0306 13.4682C65.492 13.4682 65.0284 13.2727 64.6465 12.884C64.2734 12.5043 64.0857 12.0009 64.0857 11.3965C64.0857 10.792 64.2756 10.291 64.6509 9.90897C65.0262 9.51574 65.4787 9.32474 66.0328 9.32474C66.5693 9.32474 67.0351 9.52023 67.417 9.90897C67.7901 10.2887 67.9799 10.792 67.9799 11.3965C67.9799 12.0009 67.7901 12.502 67.4148 12.884C67.0373 13.2772 66.5847 13.4682 66.0306 13.4682ZM59.3506 25.8222C59.3506 23.5999 61.0416 21.9888 63.1278 21.9888C65.2139 21.9888 66.905 23.5999 66.905 25.8222C66.905 28.0332 65.2139 29.6556 63.1278 29.6556C61.0526 29.6556 59.3506 28.0243 59.3506 25.8222ZM61.0041 25.8132C61.0041 27.1749 61.9865 28.1366 63.1278 28.1366C64.2691 28.1366 65.2537 27.1839 65.2515 25.8132C65.2515 24.4313 64.2691 23.4898 63.1278 23.4898C61.9887 23.4898 61.0041 24.4313 61.0041 25.8132ZM51.1097 25.8222C51.1097 23.5999 52.8007 21.9888 54.8869 21.9888C56.9708 21.9888 58.664 23.5999 58.664 25.8222C58.664 28.0332 56.973 29.6556 54.8869 29.6556C52.8117 29.6556 51.1097 28.0243 51.1097 25.8222ZM52.7632 25.8132C52.7632 27.1749 53.7455 28.1366 54.8869 28.1366C56.0282 28.1366 57.0106 27.1839 57.0106 25.8132C57.0106 24.4313 56.0282 23.4898 54.8869 23.4898C53.7477 23.4898 52.7632 24.4313 52.7632 25.8132ZM45.0808 24.7818V23.1595C45.0808 23.1595 45.0808 23.1434 45.0792 23.1415H50.4783C50.5379 23.4314 50.5666 23.7729 50.5666 24.1527C50.5666 25.3728 50.2333 26.885 49.1802 27.9568C48.1471 29.0489 46.8402 29.6286 45.0984 29.6286C41.8709 29.6286 39.1666 26.9637 39.1666 23.6808C39.1666 20.4069 41.8731 17.733 45.0984 17.733C46.8777 17.733 48.1471 18.4453 49.1008 19.3755L47.9705 20.526C47.2839 19.8744 46.3589 19.3643 45.0896 19.3643C42.7385 19.3643 40.8996 21.2967 40.8996 23.6898C40.8996 26.0828 42.7385 28.0153 45.0896 28.0153C46.615 28.0153 47.4804 27.3951 48.0411 26.8243C48.4937 26.3637 48.7895 25.6919 48.9065 24.7818H45.0808ZM45.0785 23.1415C45.0788 23.1413 45.079 23.1413 45.0792 23.1415H45.0785ZM81.9651 21.9798C83.921 21.9798 84.8747 23.5617 85.1904 24.4223C85.1904 24.4223 85.367 24.8515 85.367 24.8492L80.3315 26.9727C80.7244 27.7434 81.3161 28.1344 82.1616 28.1344C82.9983 28.1344 83.5877 27.7142 84.0116 27.0738L85.2897 27.9456C84.8769 28.5748 83.8747 29.6466 82.1528 29.6466C80.0092 29.6466 78.4153 27.9658 78.4153 25.8132C78.4153 23.5325 80.0269 21.9798 81.9651 21.9798ZM82.0225 23.4696C81.1858 23.4696 80.0158 24.2223 80.0555 25.7031L83.4199 24.2807C83.2323 23.7999 82.6826 23.4696 82.0225 23.4696ZM77.6184 29.4174H75.9649V18.1554H77.6184V29.4174ZM73.19 22.8404H73.2496H73.2584V22.209H74.8214V29.0871C74.8214 31.9206 73.1789 33.0823 71.2407 33.0823C69.4216 33.0823 68.32 31.8307 67.9072 30.8195L69.3443 30.2083C69.6004 30.8285 70.2296 31.57 71.2429 31.57C72.4813 31.57 73.2496 30.7813 73.2496 29.3185V28.768H73.19C72.8169 29.2286 72.0972 29.6399 71.2031 29.6399C69.3156 29.6399 67.5937 27.9771 67.5937 25.8244C67.5937 23.6628 69.3245 21.9798 71.2031 21.9798C72.1082 21.9798 72.8169 22.3888 73.19 22.8404ZM69.256 25.8244C69.256 27.1659 70.2097 28.1366 71.351 28.1366C72.4835 28.1366 73.3688 27.1659 73.3577 25.8244C73.3577 24.483 72.4813 23.492 71.351 23.492C70.2097 23.492 69.256 24.4717 69.256 25.8244ZM88.9786 18.1554H92.9324C94.7713 18.1554 96.5639 19.5148 96.5639 21.6585C96.5639 23.8021 94.7647 25.1526 92.9346 25.1526H90.6321V29.4174H88.9786V18.1554ZM90.6299 23.5797H92.981C94.2106 23.5797 94.9192 22.5303 94.9192 21.6472C94.9192 20.7552 94.2194 19.7148 92.981 19.7148H90.6299V23.5797ZM100.24 23.6898C100.752 22.5101 101.99 21.9686 103.191 21.9686C105.079 21.9686 106.544 23.0808 106.544 25.0897V29.4039H104.951V28.5321H104.891C104.509 29.123 103.897 29.6331 102.787 29.6331C101.341 29.6331 100.043 28.6624 100.043 27.1502C100.043 25.4986 101.648 24.6178 103.231 24.6178C104.008 24.6178 104.657 24.8784 104.953 25.0492V24.9301C104.933 23.9999 104.067 23.4786 103.211 23.4786C102.599 23.4786 102.021 23.6898 101.705 24.3099L100.24 23.6898ZM101.685 27.1749C101.685 27.867 102.443 28.1366 102.984 28.1366C103.984 28.1276 104.822 27.3636 104.942 26.3525C104.509 26.1323 104.165 25.9727 103.436 25.9727C102.63 25.9727 101.685 26.303 101.685 27.1749ZM110.461 27.094L112.359 22.209H114.187L109.646 32.8328H107.924L109.606 29.0377L106.655 22.209H108.434L110.401 27.094H110.461ZM99.1291 29.4174H97.4756V18.1554H99.1291V29.4174Z" fill="white"/>
<path fill-rule="evenodd" clip-rule="evenodd" d="M12.0706 8.8327C11.8145 9.11358 11.6666 9.54276 11.6666 10.1045V30.0287C11.6666 30.5905 11.8145 31.0197 12.0794 31.2893L12.1479 31.35L23.1152 20.1868V19.9374L12.139 8.77203L12.0706 8.8327Z" fill="url(#paint0_linear_580_14720)"/>
<path fill-rule="evenodd" clip-rule="evenodd" d="M26.765 23.9194L23.1071 20.1961V19.9355L26.765 16.2122L26.8445 16.2616L31.1714 18.7648C32.4098 19.4748 32.4098 20.6478 31.1714 21.3668L26.8445 23.87L26.765 23.9194Z" fill="url(#paint1_linear_580_14720)"/>
<path fill-rule="evenodd" clip-rule="evenodd" d="M26.8443 23.8697L23.1069 20.0656L12.0712 31.2983C12.4752 31.7388 13.1529 31.7882 13.9101 31.359L26.8443 23.8697Z" fill="url(#paint2_linear_580_14720)"/>
<path fill-rule="evenodd" clip-rule="evenodd" d="M26.8443 16.2617L13.9101 8.78365C13.1529 8.34324 12.4729 8.40391 12.0712 8.84432L23.1069 20.0659L26.8443 16.2617Z" fill="url(#paint3_linear_580_14720)"/>
<defs>
<linearGradient id="paint0_linear_580_14720" x1="22.1314" y1="9.88955" x2="4.52312" y2="14.499" gradientUnits="userSpaceOnUse">
<stop stop-color="#00A0FF"/>
<stop offset="0.00657" stop-color="#00A1FF"/>
<stop offset="0.2601" stop-color="#00BEFF"/>
<stop offset="0.5122" stop-color="#00D2FF"/>
<stop offset="0.7604" stop-color="#00DFFF"/>
<stop offset="1" stop-color="#00E3FF"/>
</linearGradient>
<linearGradient id="paint1_linear_580_14720" x1="32.7864" y1="20.0658" x2="11.3663" y2="20.0658" gradientUnits="userSpaceOnUse">
<stop stop-color="#FFE000"/>
<stop offset="0.4087" stop-color="#FFBD00"/>
<stop offset="0.7754" stop-color="#FFA500"/>
<stop offset="1" stop-color="#FF9C00"/>
</linearGradient>
<linearGradient id="paint2_linear_580_14720" x1="24.8121" y1="22.1356" x2="10.3367" y2="46.0714" gradientUnits="userSpaceOnUse">
<stop stop-color="#FF3A44"/>
<stop offset="1" stop-color="#C31162"/>
</linearGradient>
<linearGradient id="paint3_linear_580_14720" x1="9.29225" y1="2.20598" x2="15.7504" y2="12.8962" gradientUnits="userSpaceOnUse">
<stop stop-color="#32A071"/>
<stop offset="0.0685" stop-color="#2DA771"/>
<stop offset="0.4762" stop-color="#15CF74"/>
<stop offset="0.8009" stop-color="#06E775"/>
<stop offset="1" stop-color="#00F076"/>
</linearGradient>
</defs>
</svg>
