<?xml version="1.0" encoding="UTF-8"?>
<svg width="32px" height="32px" viewBox="0 0 32 32" version="1.1" xmlns="http://www.w3.org/2000/svg" xmlns:xlink="http://www.w3.org/1999/xlink">
    <title>6862FE6F-30AC-432D-9937-85377C010123</title>
    <g id="Landing-Page" stroke="none" stroke-width="1" fill="none" fill-rule="evenodd">
        <g id="[Web]-Lumin-Landing-Page" transform="translate(-774.000000, -868.000000)">
            <g id="Group-41" transform="translate(630.000000, 868.000000)">
                <g id="Group-40-Copy-5" transform="translate(144.000000, 0.000000)">
                    <rect id="Rectangle" fill="#3C80EF" fill-rule="nonzero" x="0" y="0" width="32" height="32" rx="4"></rect>
                    <path d="M16,0 L28,0 C30.209139,-4.05812251e-16 32,1.790861 32,4 L32,28 C32,30.209139 30.209139,32 28,32 L16,32 L16,32 L16,0 Z" id="Rectangle" fill="#B1CAF2"></path>
                    <g id="Group-40-Copy" transform="translate(3.500000, 4.000000)" fill="#FFFFFF" fill-rule="nonzero">
                        <path d="M12.5057234,3.55271368e-15 L15.4475733,9.16458133 L25,9.16458133 L17.2847985,14.8180943 L20.2152015,24 L12.4885531,18.3291627 L4.76762821,24 L7.72092491,14.8354187 L-3.55271368e-15,9.16458133 L9.55242674,9.16458133 L12.5057234,3.55271368e-15 Z M17.2847985,14.8180943 L12.5171703,18.2829644 L17.9372711,16.8912416 L17.2847985,14.8180943 Z" id="Combined-Shape"></path>
                    </g>
                </g>
            </g>
        </g>
    </g>
</svg>