<?xml version="1.0" encoding="UTF-8"?>
<svg width="81px" height="83px" viewBox="0 0 81 83" version="1.1" xmlns="http://www.w3.org/2000/svg" xmlns:xlink="http://www.w3.org/1999/xlink">
    <title>4073625B-8237-490A-963A-FDF8155E9DBB</title>
    <g id="Page-1" stroke="none" stroke-width="1" fill="none" fill-rule="evenodd">
        <g id="Personal-Document_Rate-Lumin" transform="translate(-224.000000, -770.000000)">
            <g id="Group-34" transform="translate(64.000000, 750.000000)">
                <g id="Group-147" transform="translate(160.000000, 20.000000)">
                    <path d="M26.7936,40.1559343 C26.7936,40.1559343 34.8643,37.2265343 37.337,32.3377343 C38.2044,30.6227343 39.1111,28.8394343 39.9224,27.2463343 C41.3253,24.4923343 45.3818,24.8518343 46.2609,27.8151343 C46.8389,29.7646343 47.0069,32.1511343 46.171,34.8935343 C43.7518,42.8275343 47.0913,46.1688343 47.0913,46.1688343 L26.7936,40.1559343 Z" id="Path" fill="#FFCFC2" fill-rule="nonzero"></path>
                    <path d="M63.6044,45.4239343 C63.6044,42.5148343 61.2462,40.1559343 58.3371,40.1559343 L17.684,40.1559343 L17.684,66.2399343 C17.684,75.1077343 24.8725,82.2962343 33.741,82.2962343 L58.3371,82.2962343 C61.2462,82.2962343 63.6044,79.9380343 63.6044,77.0289343 C63.6044,74.1197343 61.2462,71.7615343 58.3371,71.7615343 C61.2462,71.7615343 63.6044,69.4032343 63.6044,66.4941343 C63.6044,63.5849343 61.2462,61.2267343 58.3371,61.2267343 C61.2462,61.2267343 63.6044,58.8679343 63.6044,55.9587343 C63.6044,53.0495343 61.2462,50.6913343 58.3371,50.6913343 C61.2462,50.6913343 63.6044,48.3331343 63.6044,45.4239343 Z" id="Path" fill="#FFE2D9" fill-rule="nonzero"></path>
                    <path d="M33.3833,74.2004343 C19.575,69.1570343 19.0493,43.2960343 19.0493,43.2960343 L17.684,43.2960343 L17.684,66.2393343 C17.684,75.1071343 24.8725,82.2963343 33.741,82.2963343 L45.7309,82.2963343 C43.1831,79.4499343 39.2736,76.3518343 33.3833,74.2004343 Z" id="Path" fill="#FFCFC2" fill-rule="nonzero"></path>
                    <path d="M6.56253,79.6388343 L12.4867,79.6388343 C16.1112,79.6388343 19.0492,76.7008343 19.0492,73.0763343 L19.0492,44.1559343 C19.0492,41.9468343 17.2584,40.1559343 15.0492,40.1559343 L6.56253,40.1559343 C2.93809,40.1559343 0,43.0940343 0,46.7185343 L0,73.0763343 C0,76.7008343 2.93809,79.6388343 6.56253,79.6388343 Z" id="Path" fill="#FFFFFF" fill-rule="nonzero"></path>
                    <path d="M6.56253,40.1559343 C2.93809,40.1559343 0,43.0940343 0,46.7185343 L0,73.0763343 C0,76.7008343 2.93809,79.6388343 6.56253,79.6388343 L7.4188,79.6388343 C7.9328,78.6539343 8.829,77.4345343 10.3895,76.2828343 C13.7991,73.7664343 13.3645,69.1422343 13.3645,69.1422343 C13.3645,69.1422343 7.1362,59.8460343 6.34216,53.1770343 C5.54808,46.5086343 9.5246,40.1559343 9.5246,40.1559343 L6.56253,40.1559343 Z" id="Path" fill="#B3CEFA" fill-rule="nonzero"></path>
                    <path d="M15.6798,70.1361343 C15.6798,72.2573343 13.9605,73.9766343 11.8399,73.9766343 C9.7193,73.9766343 8,72.2573343 8,70.1361343 C8,68.0155343 9.7193,66.2962343 11.8399,66.2962343 C13.9605,66.2962343 15.6798,68.0155343 15.6798,70.1361343 Z" id="Path" fill="#3C80EF" fill-rule="nonzero"></path>
                    <path d="M65.9719103,1.76911778 L67.4980813,4.86161041 C68.2819568,6.44966697 69.7965516,7.54982129 71.5489314,7.80505331 L74.9621444,8.30095258 C77.5652582,8.67905791 78.604283,11.8785006 76.721021,13.7145127 L74.2510337,16.1220121 C72.982847,17.3573601 72.4047448,19.1380898 72.7036002,20.8832641 L73.2867818,24.2826564 C73.7318757,26.8756116 71.0101647,28.8526645 68.681927,27.628184 L65.6293487,26.0233419 C64.0617159,25.1995403 62.1893214,25.1995403 60.6222792,26.0233419 L57.569819,27.628184 C55.2415814,28.8526645 52.5198703,26.8756116 52.964846,24.2826564 L53.5473189,20.8832641 C53.8468831,19.1380898 53.2680721,17.3573601 52.0007123,16.1220121 L49.5306069,13.7145127 C47.6466361,11.8785006 48.6864878,8.67905791 51.2896017,8.30095258 L54.7026965,7.80505331 C56.4550763,7.54982129 57.9697892,6.44966697 58.7528378,4.86161041 L60.2798357,1.76911778 C61.4439546,-0.589705928 64.8076733,-0.589705928 65.9719103,1.76911778 Z" id="Path" fill="#FFBC41"></path>
                    <path d="M28.7155,14.9996343 L29.2609,15.9974343 C29.8056,16.9928343 30.6237,17.8115343 31.6197,18.3557343 L32.6175,18.9017343 C33.6388,19.4606343 33.6388,20.9275343 32.6175,21.4858343 L31.6197,22.0318343 C30.6243,22.5760343 29.8056,23.3947343 29.2609,24.3900343 L28.7155,25.3879343 C28.1565,26.4097343 26.6896,26.4097343 26.1313,25.3879343 L25.5853,24.3900343 C25.0412,23.3947343 24.2225,22.5760343 23.2271,22.0318343 L22.2293,21.4858343 C21.2074,20.9275343 21.2074,19.4606343 22.2293,18.9017343 L23.2271,18.3557343 C24.2225,17.8115343 25.0412,16.9928343 25.5853,15.9974343 L26.1313,14.9996343 C26.6896,13.9784343 28.1565,13.9784343 28.7155,14.9996343 Z" id="Path" fill="#D3E0F5" fill-rule="nonzero"></path>
                    <path d="M76.0148,37.7152343 L76.5608,38.7130343 C77.105,39.7090343 77.9237,40.5271343 78.919,41.0719343 L79.9169,41.6173343 C80.9381,42.1762343 80.9381,43.6431343 79.9169,44.2014343 L78.919,44.7474343 C77.9237,45.2916343 77.105,46.1103343 76.5608,47.1056343 L76.0148,48.1035343 C75.4565,49.1253343 73.9896,49.1253343 73.4313,48.1035343 L72.8853,47.1056343 C72.3405,46.1103343 71.5224,45.2916343 70.5264,44.7474343 L69.5286,44.2014343 C68.5074,43.6431343 68.5074,42.1762343 69.5286,41.6173343 L70.5264,41.0719343 C71.5224,40.5271343 72.3405,39.7090343 72.8853,38.7130343 L73.4313,37.7152343 C73.9896,36.6940343 75.4565,36.6940343 76.0148,37.7152343 Z" id="Path" fill="#86B4FF" fill-rule="nonzero"></path>
                </g>
            </g>
        </g>
    </g>
</svg>