<svg xmlns="http://www.w3.org/2000/svg" width="37" height="13" viewBox="0 0 37 13">
    <g fill="none" fill-rule="evenodd">
        <path fill="#005C9C" d="M16.08 12.272h-2.92l1.825-11.216h2.92L16.08 12.272M10.704 1.056L7.92 8.77l-.329-1.661-.982-5.043s-.119-1.01-1.386-1.01H.622l-.054.19s1.408.292 3.054 1.282l2.537 9.744H9.2l4.646-11.216h-3.143M33.67 12.272h2.682L34.014 1.056h-2.347c-1.085 0-1.348.836-1.348.836l-4.355 10.38h3.044l.608-1.666h3.712l.343 1.666zm-3.212-3.968l1.534-4.197.863 4.197h-2.397zM26.193 3.753l.416-2.409S25.323.855 23.983.855c-1.45 0-4.89.634-4.89 3.713 0 2.898 4.039 2.934 4.039 4.455 0 1.522-3.623 1.25-4.818.29l-.434 2.518s1.303.633 3.296.633c1.992 0 4.998-1.032 4.998-3.84 0-2.915-4.075-3.187-4.075-4.454 0-1.268 2.844-1.105 4.094-.417"/>
        <path fill="#EE9F3F" d="M7.591 7.11L6.61 2.065s-.119-1.01-1.386-1.01H.622l-.054.19s2.212.458 4.334 2.176c2.028 1.641 2.69 3.687 2.69 3.687"/>
    </g>
</svg>
