<svg width="24" height="24" viewBox="0 0 24 24" fill="none" xmlns="http://www.w3.org/2000/svg">
<path d="M17.703 18.7284C18.1574 18.7284 18.5291 18.3557 18.5291 17.9002V9.49966C18.5291 6.53679 18.1963 4.55423 17.4501 3.07134C16.4248 1.03334 14.6215 0.000244141 12.0902 0.000244141C9.5592 0.000244141 7.75566 1.03334 6.73008 3.07134C5.98409 4.55423 5.65137 6.53655 5.65137 9.49966V17.9002C5.65137 18.3557 6.02304 18.7284 6.47717 18.7284H7.07002C7.52415 18.7284 7.89582 18.3557 7.89582 17.9002V9.49966C7.89582 7.89071 7.98285 5.57841 8.73412 4.08516C9.37241 2.81656 10.4074 2.25084 12.09 2.25084C13.7724 2.25084 14.8073 2.81656 15.4458 4.08516C16.1971 5.57817 16.2841 7.89047 16.2841 9.49966V17.9002C16.2841 18.3557 16.6558 18.7284 17.1102 18.7284H17.703Z" fill="#4690A4"/>
<path d="M4.12253 9.31543C3.62729 9.31543 3.22461 9.71941 3.22461 10.2157V22.6498C3.22461 23.1463 3.62729 23.5501 4.12253 23.5501H20.0594C20.5547 23.5501 20.9574 23.1461 20.9574 22.6498V10.2157C20.9574 9.71941 20.5544 9.31543 20.0594 9.31543H4.12253Z" fill="#B2ECFC"/>
<path d="M14.4481 15.2645C14.4481 13.9595 13.3929 12.9016 12.0913 12.9016C10.7895 12.9016 9.73438 13.9595 9.73438 15.2645C9.73438 16.5813 10.7299 17.134 10.7299 17.134C10.8169 17.2218 10.8691 17.3932 10.846 17.5149L10.3376 20.1916C10.3145 20.3134 10.3967 20.4124 10.52 20.4124H13.6626C13.786 20.4124 13.8682 20.3131 13.8451 20.1916L13.3366 17.5149C13.3133 17.3932 13.3657 17.2218 13.4528 17.134C13.4528 17.1343 14.4481 16.6088 14.4481 15.2645Z" fill="#4690A4"/>
</svg>
