<svg width="24" height="24" viewBox="0 0 24 24" fill="none" xmlns="http://www.w3.org/2000/svg">
<path fill-rule="evenodd" clip-rule="evenodd" d="M4.75 13.6681V6.75H8.84242L11.0188 8.37005C11.2588 8.54866 11.5499 8.64474 11.8485 8.64474H17.25V10.25H6.94903C6.67232 10.25 6.39808 10.331 6.165 10.4879C5.93134 10.6452 5.74762 10.8734 5.65005 11.1467L4.75 13.6681ZM4 18.75C3.81367 18.75 3.64321 18.6821 3.51205 18.5696C3.50654 18.5649 3.50109 18.56 3.49572 18.5552C3.48372 18.5443 3.47207 18.533 3.4608 18.5213C3.45539 18.5157 3.45007 18.51 3.44484 18.5043C3.32378 18.3711 3.25 18.1942 3.25 18V17.9999V6.63158C3.25 6.26333 3.39745 5.91131 3.65806 5.65266C3.91848 5.39419 4.2705 5.25 4.63636 5.25H8.87879C9.17735 5.25 9.46847 5.34607 9.70843 5.52469L11.8849 7.14474H17.3636C17.7295 7.14474 18.0815 7.28893 18.3419 7.54739C18.6026 7.80605 18.75 8.15807 18.75 8.52632V10.25H19.3753C19.5847 10.25 19.7929 10.2963 19.9834 10.3874C20.1741 10.4786 20.3439 10.6131 20.4758 10.784C20.6079 10.9551 20.6976 11.1573 20.733 11.3744C20.7686 11.5918 20.748 11.8135 20.6743 12.0199L18.4496 18.2521C18.343 18.5507 18.0603 18.75 17.7433 18.75H4ZM5.06408 17.25L7.0274 11.75H19.1779L17.2146 17.25H5.06408Z" fill="#618298"/>
</svg>
