<svg width="70" height="53" viewBox="0 0 70 53" fill="none" xmlns="http://www.w3.org/2000/svg">
<path d="M1 51.7606V3.67161C1 2.96305 1.28494 2.28352 1.79214 1.7825C2.29934 1.28147 2.98726 1 3.70455 1H21.7348C22.32 1 22.8894 1.18749 23.3576 1.53432L32.7333 8.4805C33.2015 8.82734 33.7709 9.01482 34.3561 9.01482H57.7955C58.5127 9.01482 59.2007 9.2963 59.7079 9.79732C60.2151 10.2983 60.5 10.9779 60.5 11.6864V22.2784" fill="#F4FCFF"/>
<path d="M1 51.7606V3.67161C1 2.96305 1.28494 2.28352 1.79214 1.7825C2.29934 1.28147 2.98726 1 3.70455 1H21.7348C22.32 1 22.8894 1.18749 23.3576 1.53432L32.7333 8.4805C33.2015 8.82734 33.7709 9.01483 34.3561 9.01483H57.7955C58.5127 9.01483 59.2007 9.2963 59.7079 9.79732C60.2151 10.2983 60.5 10.9779 60.5 11.6864V22.2784C60.5 22.815 60.446 23.3502 60.3389 23.8759L54.6562 51.7606" stroke="#4690A4" stroke-width="1.5" stroke-miterlimit="5.75877" stroke-linecap="square" stroke-linejoin="round" stroke-dasharray="6 4"/>
<path d="M3.84205 51.6103C2.45785 51.6103 1.49216 50.238 1.95946 48.9351L11.0147 23.6872C11.1909 23.1959 11.5289 22.7685 11.981 22.4657C12.433 22.1629 12.9761 22 13.5334 22H66.3451C66.7657 22 67.1804 22.0929 67.5549 22.271C67.9293 22.4492 68.2529 22.7075 68.4989 23.0247C68.7448 23.3419 68.9062 23.7089 68.9696 24.0954C69.0331 24.4819 68.9968 24.8769 68.8638 25.2478L59.884 50.2855C59.5989 51.0802 58.8456 51.6103 58.0014 51.6103H3.84205Z" fill="#F4FCFF" stroke="#4690A4" stroke-width="1.5" stroke-miterlimit="11.4737" stroke-linecap="square" stroke-linejoin="round" stroke-dasharray="6 4"/>
<path fill-rule="evenodd" clip-rule="evenodd" d="M35.8497 29.0691C35.8497 28.5998 35.4693 28.2194 35 28.2194C34.5307 28.2194 34.1503 28.5998 34.1503 29.0691V36.1503H27.0692C26.5999 36.1503 26.2194 36.5307 26.2194 37C26.2194 37.4693 26.5999 37.8497 27.0692 37.8497H34.1503V44.9308C34.1503 45.4001 34.5307 45.7806 35 45.7806C35.4693 45.7806 35.8497 45.4001 35.8497 44.9308V37.8497H42.9309C43.4002 37.8497 43.7806 37.4693 43.7806 37C43.7806 36.5307 43.4002 36.1503 42.9309 36.1503H35.8497V29.0691Z" fill="#035970"/>
</svg>
