<svg width="527" height="307" viewBox="0 0 527 307" fill="none" xmlns="http://www.w3.org/2000/svg">
<path d="M510.681 144.365C507.005 165.639 482.216 285.98 392.968 278.916C389.536 278.645 387.008 275.677 387.447 272.263C390.112 251.567 406.625 182.186 508.851 142.086C509.892 141.684 510.931 142.937 510.681 144.365Z" fill="url(#paint0_linear_268_2932)"/>
<path d="M497.074 158.274C497.074 158.274 495.971 160.472 493.93 164.267C492.908 166.174 491.643 168.459 490.163 171.08C488.683 173.701 486.99 176.639 485.094 179.808C483.199 182.976 481.099 186.398 478.85 189.972C476.58 193.543 474.156 197.309 471.533 201.113C468.95 204.944 466.187 208.838 463.334 212.763C461.897 214.724 460.42 216.658 458.941 218.614C457.422 220.543 455.943 222.498 454.382 224.422C452.823 226.324 451.305 228.253 449.688 230.105C448.901 231.033 448.093 231.959 447.306 232.888C446.519 233.817 445.693 234.719 444.887 235.623C444.082 236.528 443.277 237.433 442.474 238.316C441.65 239.197 440.829 240.057 440.008 240.917C438.406 242.663 436.733 244.292 435.102 245.928C431.822 249.174 428.532 252.161 425.339 254.903C424.558 255.617 423.747 256.242 422.932 256.888C422.139 257.536 421.348 258.164 420.581 258.773C419.812 259.403 419.026 259.988 418.268 260.534C417.506 261.1 416.748 261.646 416.01 262.194C415.631 262.467 415.273 262.743 414.918 262.997C414.541 263.249 414.165 263.501 413.812 263.734C413.083 264.219 412.356 264.683 411.672 265.152C410.97 265.598 410.307 266.07 409.631 266.476C408.955 266.882 408.282 267.267 407.632 267.634C406.983 268 406.376 268.372 405.772 268.723C405.469 268.899 405.167 269.074 404.889 269.231C404.59 269.385 404.293 269.519 404.015 269.676C402.865 270.256 401.808 270.785 400.865 271.263C399.919 271.763 399.034 272.12 398.285 272.431C397.514 272.739 396.876 273.021 396.352 273.253C395.306 273.697 394.739 273.924 394.739 273.924L394.67 273.958C394.08 274.203 393.82 274.878 394.068 275.447C394.313 276.038 394.988 276.298 395.558 276.05C395.558 276.05 396.127 275.802 397.218 275.342C397.764 275.113 398.423 274.833 399.199 274.483C399.972 274.154 400.881 273.779 401.85 273.261C402.818 272.764 403.898 272.217 405.075 271.597C405.374 271.443 405.674 271.288 405.973 271.134C406.275 270.958 406.577 270.783 406.879 270.608C407.487 270.236 408.115 269.866 408.767 269.479C409.419 269.091 410.095 268.685 410.792 268.282C411.47 267.854 412.155 267.385 412.863 266.897C413.568 266.431 414.297 265.946 415.029 265.439C415.406 265.188 415.782 264.936 416.159 264.684C416.517 264.409 416.896 264.136 417.275 263.863C418.016 263.294 418.798 262.73 419.559 262.163C420.344 261.578 421.13 260.993 421.902 260.341C422.672 259.711 423.465 259.063 424.282 258.396C425.076 257.747 425.914 257.083 426.695 256.368C429.917 253.566 433.215 250.515 436.482 247.203C438.116 245.547 439.795 243.875 441.4 242.108C442.224 241.227 443.026 240.343 443.85 239.462C444.655 238.558 445.461 237.653 446.269 236.727C447.077 235.801 447.882 234.896 448.69 233.971C449.48 233.021 450.267 232.092 451.057 231.142C452.655 229.267 454.176 227.317 455.738 225.393C457.278 223.467 458.762 221.469 460.263 219.517C461.724 217.537 463.206 215.561 464.622 213.597C467.459 209.627 470.204 205.709 472.751 201.831C475.336 197.978 477.742 194.189 479.994 190.593C482.227 186.975 484.306 183.55 486.186 180.337C493.675 167.542 498.036 158.636 498.036 158.636C498.154 158.394 498.063 158.102 497.82 157.985C497.482 157.941 497.191 158.032 497.074 158.274Z" fill="white"/>
<path d="M460.962 11.8661C460.464 9.58845 458.347 10.1719 456.595 11.7482C364.272 95.0458 333.594 240.201 358.257 285.995C359.533 288.364 362.206 289.43 364.796 288.7C389.299 281.797 510.08 235.942 460.962 11.8661Z" fill="url(#paint1_linear_268_2932)"/>
<path d="M456.1 42.92C456.1 42.92 456.069 43.1524 456.012 43.596C455.933 44.0369 455.85 44.6706 455.692 45.5523C455.403 47.2763 454.901 49.8103 454.29 53.0175C453.657 56.222 452.847 60.1338 451.88 64.5837C450.914 69.0337 449.743 74.0586 448.452 79.5189C447.139 84.9764 445.681 90.8876 444.034 97.0964C442.406 103.329 440.57 109.836 438.637 116.587C436.665 123.312 434.579 130.259 432.312 137.268C431.74 139.019 431.168 140.771 430.593 142.543C430 144.292 429.404 146.062 428.808 147.832C427.638 151.374 426.343 154.879 425.088 158.411C423.833 161.942 422.478 165.418 421.204 168.926C419.87 172.404 418.518 175.858 417.171 179.27C415.761 182.674 414.417 186.065 412.975 189.379C412.245 191.024 411.536 192.672 410.83 194.299C410.467 195.111 410.124 195.925 409.76 196.737C409.397 197.549 409.015 198.337 408.654 199.128C407.911 200.707 407.19 202.289 406.471 203.849C406.11 204.64 405.752 205.41 405.394 206.179C405.014 206.946 404.635 207.713 404.28 208.462C402.768 211.487 401.41 214.49 399.882 217.32C399.137 218.748 398.416 220.158 397.698 221.547C397.33 222.229 396.98 222.935 396.636 223.6C396.267 224.282 395.902 224.943 395.536 225.605C394.054 228.247 392.687 230.819 391.277 233.235C389.845 235.648 388.47 237.96 387.174 240.155C385.839 242.322 384.52 244.363 383.303 246.288C382.685 247.239 382.091 248.171 381.52 249.085C380.913 249.951 380.33 250.799 379.771 251.629C378.658 253.245 377.625 254.743 376.699 256.083C375.772 257.424 374.849 258.571 374.114 259.592C373.359 260.611 372.709 261.471 372.188 262.177C371.145 263.588 370.575 264.33 370.575 264.33C370.474 264.446 370.513 264.644 370.631 264.724C370.747 264.825 370.924 264.784 371.025 264.668C371.025 264.668 371.595 263.926 372.699 262.544C373.76 261.157 375.396 259.158 377.373 256.515C378.32 255.178 379.393 253.706 380.548 252.095C381.126 251.29 381.73 250.445 382.337 249.578C382.926 248.688 383.541 247.759 384.18 246.811C385.44 244.891 386.816 242.901 388.175 240.715C389.513 238.526 390.91 236.216 392.381 233.83C393.834 231.419 395.242 228.853 396.746 226.213C397.112 225.552 397.498 224.894 397.888 224.214C398.256 223.531 398.624 222.849 398.992 222.167C399.731 220.78 400.473 219.373 401.239 217.948C404.26 212.24 407.225 206.139 410.186 199.736C410.547 198.945 410.932 198.136 411.295 197.324C411.659 196.512 412.001 195.697 412.365 194.885C413.092 193.262 413.801 191.614 414.534 189.948C415.996 186.636 417.343 183.224 418.796 179.826C420.167 176.395 421.54 172.944 422.898 169.447C423.555 167.707 424.214 165.945 424.852 164.181C425.511 162.419 426.168 160.678 426.787 158.89C428.021 155.356 429.297 151.827 430.468 148.284C431.064 146.515 431.66 144.745 432.253 142.996C432.828 141.223 433.378 139.469 433.953 137.696C436.223 130.666 438.27 123.693 440.223 116.944C442.116 110.166 443.895 103.609 445.46 97.3681C447.046 91.1299 448.443 85.1893 449.714 79.7263C452.197 68.7497 453.975 59.5504 455.137 53.1065C455.709 49.8726 456.127 47.3276 456.395 45.6009C456.529 44.7376 456.62 44.0405 456.677 43.5968C456.714 43.1505 456.744 42.9181 456.744 42.9181C456.764 42.7702 456.653 42.627 456.484 42.6049C456.337 42.5857 456.193 42.6959 456.174 42.8438L456.1 42.92Z" fill="white"/>
<path d="M420.144 31.0623H130.567C125.592 31.0623 121.546 35.1081 121.546 40.0825V244.631C121.546 249.605 125.592 253.651 130.567 253.651H241.662C241.662 253.651 248.759 275.539 226.805 286.814H330.737C330.737 286.814 305.998 278.324 312.365 253.651H420.078C425.052 253.651 429.098 249.605 429.098 244.631V40.0825C429.165 35.1081 425.119 31.0623 420.144 31.0623Z" fill="#035970"/>
<path d="M279.202 232.161C283.115 237.799 276.947 243.967 271.376 239.988C271.177 239.855 271.044 239.656 270.911 239.523C266.998 233.886 273.166 227.717 278.738 231.697C278.937 231.763 279.069 231.962 279.202 232.161Z" fill="#77C2D7"/>
<path d="M424.19 215.735H126.521V40.7021C126.521 37.1206 129.373 34.2686 132.954 34.2686H417.756C421.338 34.2686 424.19 37.1206 424.19 40.7021V215.735Z" fill="white"/>
<path d="M424.19 49.8986H126.521V40.8783C126.521 37.4957 129.24 34.7764 132.622 34.7764H419.216C422.001 34.7764 424.19 37.0314 424.19 39.7508V49.8986Z" fill="#F1F5F8"/>
<path d="M136.005 44.7917C137.177 44.7917 138.128 43.8415 138.128 42.6693C138.128 41.4971 137.177 40.5469 136.005 40.5469C134.833 40.5469 133.883 41.4971 133.883 42.6693C133.883 43.8415 134.833 44.7917 136.005 44.7917Z" fill="#F2385A"/>
<path d="M142.24 44.7917C143.412 44.7917 144.363 43.8415 144.363 42.6693C144.363 41.4971 143.412 40.5469 142.24 40.5469C141.068 40.5469 140.118 41.4971 140.118 42.6693C140.118 43.8415 141.068 44.7917 142.24 44.7917Z" fill="#F2BE38"/>
<path d="M148.142 44.7917C149.315 44.7917 150.265 43.8415 150.265 42.6693C150.265 41.4971 149.315 40.5469 148.142 40.5469C146.97 40.5469 146.02 41.4971 146.02 42.6693C146.02 43.8415 146.97 44.7917 148.142 44.7917Z" fill="#20C9AD"/>
<path d="M368.344 253.651C368.344 253.717 327.156 253.85 276.351 253.85C225.545 253.85 184.357 253.784 184.357 253.651C184.357 253.585 225.545 253.452 276.351 253.452C327.156 253.518 368.344 253.585 368.344 253.651Z" fill="#102D42"/>
<mask id="mask0_268_2932" style="mask-type:alpha" maskUnits="userSpaceOnUse" x="126" y="35" width="299" height="182">
<path d="M424.19 216.592H126.521V41.5588C126.521 37.9772 129.373 35.1252 132.954 35.1252H417.756C421.338 35.1252 424.19 37.9772 424.19 41.5588V216.592Z" fill="white"/>
</mask>
<g mask="url(#mask0_268_2932)">
<path fill-rule="evenodd" clip-rule="evenodd" d="M179.835 85.2708L133.151 79.84C119.574 78.2735 107.146 87.9862 105.58 101.668L102.864 124.539C101.298 138.221 111.011 150.544 124.692 152.215L171.376 157.646C185.057 159.213 197.381 149.5 199.052 135.819L199.574 131.223L201.663 113.678L201.767 112.842C203.229 99.2654 193.516 86.9418 179.835 85.2708ZM187.041 111.171L186.937 112.425L184.848 129.97L184.326 134.043C183.595 139.578 178.582 143.547 173.047 142.92L126.363 137.49C120.828 136.759 116.859 131.746 117.486 126.21L120.201 103.234C120.932 97.6989 125.945 93.7303 131.48 94.3569L178.164 99.7876C183.699 100.623 187.668 105.636 187.041 111.171Z" fill="#DA6668"/>
<path fill-rule="evenodd" clip-rule="evenodd" d="M290.017 133.522L272.576 145.323L280.827 157.542L298.268 145.741C302.863 142.712 309.025 143.861 312.262 148.352L305.056 153.261C304.012 153.992 303.281 155.036 303.072 156.289C302.863 157.542 303.072 158.796 303.803 159.84L308.398 166.629C309.86 168.822 312.785 169.344 314.978 167.882L322.184 162.973L325.317 167.569C328.346 172.268 327.197 178.43 322.602 181.668L305.161 193.469L313.411 205.688L330.852 193.887C342.236 186.158 345.265 170.702 337.641 159.318L324.482 140.206C316.753 128.927 301.401 126.002 290.017 133.522Z" fill="#DA6668"/>
<path fill-rule="evenodd" clip-rule="evenodd" d="M240.514 106.264L260.358 108.77L262.237 94.1488L242.394 91.6423C228.713 89.9713 216.285 99.5796 214.509 113.261L211.585 136.133C209.914 149.814 219.522 162.242 233.204 164.018L253.047 166.524L254.927 151.903L235.084 149.396C229.548 148.665 225.684 143.548 226.311 138.013L226.729 134.775L233.83 136.342C235.084 136.655 236.337 136.342 237.381 135.715C238.426 135.088 239.157 133.94 239.47 132.791L241.141 124.749C241.454 123.496 241.141 122.243 240.514 121.198C239.783 120.154 238.739 119.423 237.486 119.109L228.922 117.23L229.235 115.141C229.966 109.501 234.979 105.637 240.514 106.264Z" fill="#DA6668"/>
<path fill-rule="evenodd" clip-rule="evenodd" d="M446.466 130.284L445.108 107.203C444.272 93.5221 432.471 83.0783 418.79 83.8093L371.897 86.6292C358.216 87.4647 347.772 99.2661 348.503 112.947L348.607 114.723L349.652 132.373L349.861 136.028C350.696 149.71 362.498 160.153 376.179 159.422L423.071 156.602C436.753 155.767 447.197 143.965 446.466 130.284ZM422.132 141.877L375.239 144.697C369.704 144.905 364.9 140.728 364.482 135.193L364.273 132.373L363.229 114.723L363.02 112.112C362.811 106.577 366.988 101.773 372.524 101.355L419.416 98.5351C424.951 98.3262 429.756 102.504 430.173 108.039L431.531 131.12C431.949 136.759 427.771 141.459 422.132 141.877Z" fill="#DA6668"/>
<path fill-rule="evenodd" clip-rule="evenodd" d="M368.764 116.081L373.359 122.869C374.821 125.063 374.195 127.987 372.106 129.449L314.874 167.986C312.681 169.449 309.757 168.926 308.294 166.733L303.699 159.945C302.237 157.752 302.864 154.827 304.952 153.365L362.184 114.828C363.229 114.097 364.482 113.888 365.735 114.097C366.988 114.305 368.033 115.036 368.764 116.081Z" fill="#DA6668"/>
<path fill-rule="evenodd" clip-rule="evenodd" d="M241.141 124.54L239.47 132.582C239.261 133.835 238.425 134.88 237.381 135.506C236.337 136.133 235.083 136.446 233.83 136.133L226.728 134.566L212.211 131.433L187.669 126.211L173.256 123.078L166.363 121.72C163.857 121.198 162.186 118.692 162.708 116.081L164.483 108.039C164.692 106.786 165.528 105.741 166.572 105.115C167.617 104.384 168.87 104.175 170.123 104.488L177.538 106.055L191.951 109.188L214.509 113.992L229.026 117.125L237.59 119.005C240.096 119.527 241.663 122.034 241.141 124.54Z" fill="#DA6668"/>
</g>
<path d="M460.19 287.428C460.19 287.571 374.402 287.856 268.624 287.856C162.786 287.713 76.9971 287.571 76.9971 287.428C76.9971 287.142 162.786 287 268.624 287C374.402 287 460.19 287.142 460.19 287.428Z" fill="#102D42"/>
<mask id="mask1_268_2932" style="mask-type:alpha" maskUnits="userSpaceOnUse" x="56" y="135" width="190" height="153">
<rect x="56" y="135.361" width="189.68" height="152.116" fill="#C4C4C4"/>
</mask>
<g mask="url(#mask1_268_2932)">
<path d="M223.276 344.696C178.117 289.001 122.383 274.493 122.383 274.493L123.794 288.279L217.644 353.907C220.782 352.226 222.567 349.147 223.559 346.981C223.907 346.232 223.801 345.34 223.276 344.696Z" fill="#DA6668"/>
<path d="M222.298 350.716C208.217 335.283 173.549 301.671 135.473 287.721C132.302 286.559 129.729 284.189 128.265 281.15L122.567 269.274C122.567 269.274 94.8045 262.768 77.6968 280.677C77.6968 280.677 78.7406 297.713 100.227 303.942C120.282 309.759 179.713 333.366 214.769 359.815C215.569 360.419 216.686 360.452 217.486 359.835C220.276 357.675 222.016 354.977 222.764 353.073C223.08 352.272 222.883 351.36 222.298 350.716Z" fill="#DA6668"/>
<path d="M136.622 218.594L136.689 218.559L136.636 218.459L136.564 218.546C127.047 230.016 124.432 243.764 124.194 254.639C124.076 260.077 124.551 264.798 125.057 268.16C125.31 269.841 125.57 271.183 125.767 272.104C125.865 272.565 125.948 272.92 126.006 273.161C126.035 273.281 126.058 273.373 126.074 273.434L126.074 273.435C126.025 273.436 125.956 273.437 125.871 273.439C125.675 273.443 125.386 273.45 125.016 273.461C124.274 273.482 123.205 273.517 121.891 273.573C119.263 273.685 115.658 273.881 111.749 274.217C107.841 274.554 103.628 275.031 99.7841 275.705C95.9419 276.378 92.4633 277.25 90.0268 278.376C85.1824 280.617 81.3502 281.116 78.7319 281.058C77.4226 281.028 76.4163 280.859 75.7383 280.698C75.3993 280.617 75.1423 280.538 74.9706 280.48C74.8847 280.451 74.8202 280.427 74.7773 280.41C74.765 280.405 74.7545 280.401 74.7458 280.398L74.7227 280.32C74.7007 280.246 74.6685 280.136 74.6271 279.991C74.5445 279.7 74.4257 279.268 74.2813 278.707C73.9925 277.585 73.6013 275.944 73.1919 273.869C72.373 269.719 71.4814 263.834 71.1907 256.894C70.6092 243.014 72.4318 224.921 82.043 208.056C91.657 191.195 103.528 184.195 112.991 181.407C117.723 180.013 121.855 179.672 124.803 179.679C126.277 179.683 127.455 179.773 128.264 179.863C128.668 179.908 128.981 179.953 129.191 179.986C129.297 180.003 129.377 180.017 129.431 180.026C129.457 180.031 129.477 180.035 129.491 180.038L137.523 187.278L137.523 187.278L137.53 187.282C150.44 196.698 157.917 207.708 162.166 216.364C164.29 220.692 165.608 224.431 166.394 227.088C166.787 228.416 167.047 229.474 167.209 230.199C167.29 230.562 167.347 230.841 167.383 231.03C167.401 231.124 167.414 231.196 167.422 231.244L167.432 231.298L167.434 231.31V251.667L162.707 251.448C160.037 250.384 157.077 247.806 154.135 244.524C151.19 241.241 148.27 237.261 145.684 233.414C143.099 229.567 140.85 225.853 139.248 223.1C138.446 221.724 137.807 220.589 137.367 219.797C137.147 219.401 136.978 219.092 136.863 218.881C136.806 218.776 136.762 218.695 136.733 218.641L136.7 218.579L136.692 218.564L136.69 218.56L136.689 218.559C136.689 218.559 136.689 218.559 136.622 218.594Z" fill="#20C9AD" stroke="#FAB1A5" stroke-width="0.151218"/>
<path d="M169.137 192.178C169.406 190.76 169.505 187.438 166.085 183.394C161.502 177.985 155.634 180.742 155.634 180.742C150.428 183.657 148.229 193.176 148.229 193.176L153.73 190.241C154.563 192.663 162.691 195.27 162.691 195.27L162.737 195.25C162.815 200.515 162.691 215.87 158.955 226.544C157.491 230.726 154.518 238.499 164.338 251.818L169.748 251.595C169.754 251.608 181.879 231.021 169.137 192.178Z" fill="url(#paint2_linear_268_2932)"/>
<path d="M141.631 160.976L126.558 182.258C125.58 183.644 125.712 185.515 126.874 186.755C128.902 188.922 132.329 191.974 136.018 192.677C137.167 192.893 138.329 192.414 138.966 191.436L146.981 179.134C146.981 179.127 148.518 159.8 141.631 160.976Z" fill="url(#paint3_linear_268_2932)"/>
<path d="M151.636 147.143C151.886 147.478 160.039 173.914 160.039 173.914L144.848 178.247L133.399 154.338C133.399 154.338 147.435 141.537 151.636 147.143Z" fill="url(#paint4_linear_268_2932)"/>
<path d="M139.425 158.264L144.264 170.79C144.369 171.065 144.513 171.315 144.697 171.545C145.511 172.562 147.868 174.965 150.487 172.398C152.47 170.455 154.334 168.663 156.113 167.77C157.682 166.982 159.579 167.842 160.078 169.523C160.826 172.044 162.008 176.37 162.625 180.492C162.848 181.983 161.87 183.394 160.393 183.703C157.301 184.352 151.905 185.291 147.172 185.186C146.121 185.16 145.183 184.543 144.717 183.604C142.964 180.066 138.572 171.289 136.918 168.945C135.395 166.792 131.961 166.805 130.215 166.969C129.401 167.048 128.6 166.772 128.003 166.214C126.604 164.901 124.733 162.262 127.399 158.98C128.324 157.837 128.246 156.216 127.228 155.159C125.751 153.629 124.53 151.187 126.86 148.115C129.329 144.866 132.664 145.043 134.909 145.686C136.005 146.001 137.121 145.522 137.843 144.636C138.053 144.38 138.349 144.183 138.769 144.111C140.141 143.887 141.198 142.83 141.237 141.445C141.296 139.391 142.183 137.001 145.57 135.839C152.194 133.561 156.553 139.903 157.111 144.708C157.662 149.513 150.343 151.575 145.99 151.378C142.977 151.24 140.751 154.004 139.675 155.711C139.196 156.472 139.104 157.417 139.425 158.264Z" fill="#035970"/>
<path d="M138.802 173.672C138.802 173.672 137.476 165.334 133.983 165.026C130.491 164.717 127.182 167.678 130.78 172.273C135.257 177.991 138.802 173.672 138.802 173.672Z" fill="url(#paint5_linear_268_2932)"/>
<path d="M107.158 211.538L107.138 211.557L107.103 211.57C107.071 211.582 107.023 211.6 106.959 211.625C106.833 211.673 106.647 211.745 106.408 211.84C105.929 212.03 105.239 212.311 104.391 212.678C102.696 213.413 100.368 214.49 97.8432 215.861C92.7955 218.601 86.9438 222.521 83.7655 227.231L83.7655 227.231C82.1795 229.583 81.6036 231.359 81.645 232.702C81.6864 234.051 82.3496 234.951 83.2107 235.549C84.0688 236.145 85.1242 236.441 85.9605 236.588C86.3794 236.662 86.7451 236.699 87.0062 236.718C87.1368 236.727 87.2413 236.731 87.3133 236.734C87.3248 236.734 87.3355 236.734 87.3453 236.735L86.2918 253.754C79.23 252.759 72.0254 251.153 67.4011 247.019C65.0826 244.946 63.4116 242.237 62.7333 238.644C62.0547 235.05 62.3689 230.568 64.0293 224.951C67.3481 213.723 76.5928 203.267 85.0172 195.614C89.2282 191.788 93.2315 188.665 96.1822 186.499C97.6574 185.416 98.8695 184.571 99.7125 183.998C100.134 183.712 100.463 183.493 100.687 183.346C100.799 183.272 100.885 183.216 100.942 183.179L101.007 183.137L101.019 183.13C107.175 181.618 111.885 180.93 115.416 180.883C118.951 180.836 121.292 181.43 122.718 182.471C124.139 183.507 124.664 184.994 124.546 186.766C124.428 188.543 123.665 190.601 122.512 192.761C120.208 197.08 116.363 201.781 113.091 205.405C111.456 207.216 109.965 208.757 108.882 209.845C108.341 210.389 107.902 210.82 107.599 211.114C107.447 211.262 107.329 211.375 107.249 211.452L107.158 211.538Z" fill="#20C9AD" stroke="#FAB1A5" stroke-width="0.151218"/>
<path d="M86.3618 253.84C86.3618 253.84 81.9241 246.507 87.7667 237.743L126.998 244.236C126.998 244.236 145.779 241.059 146.672 241.124C147.571 241.19 159.828 248.739 159.828 248.739C159.828 248.739 159.414 249.612 156.5 249.455C153.585 249.291 155.495 249.809 155.495 249.809L155.39 251.28C155.39 251.28 153.362 251.746 151.734 250.013C150.105 248.28 145.576 247.44 145.576 247.44C145.576 247.44 135.952 254.549 126.499 251.109L86.3618 253.84Z" fill="url(#paint6_linear_268_2932)"/>
<path d="M143.449 377.598C143.14 377.598 142.832 377.533 142.53 377.402C141.348 376.883 140.803 375.478 141.309 374.264L190.177 257.89C190.682 256.683 192.054 256.118 193.236 256.643C194.418 257.162 194.962 258.567 194.457 259.781L145.589 376.154C145.208 377.06 144.348 377.598 143.449 377.598Z" fill="#FCD7DE"/>
<path d="M198.501 377.599C197.595 377.599 196.742 377.061 196.361 376.155L147.493 259.781C146.988 258.574 147.533 257.169 148.714 256.644C149.896 256.125 151.268 256.683 151.774 257.891L200.641 374.264C201.147 375.472 200.602 376.877 199.42 377.402C199.125 377.54 198.81 377.599 198.501 377.599Z" fill="#FCD7DE"/>
<path d="M234.653 254.425C234.725 253.703 234.627 252.954 234.391 252.39C234.154 251.825 233.8 251.497 233.426 251.497H106.792C106.299 251.497 105.84 251.989 105.577 252.803C105.315 253.617 105.275 254.641 105.485 255.521L106.857 261.357C107.172 262.696 107.855 263.55 108.604 263.55H232.559C233.255 263.55 233.852 262.578 233.99 261.232L234.653 254.425Z" fill="#102D42"/>
</g>
<defs>
<linearGradient id="paint0_linear_268_2932" x1="627.119" y1="62.1874" x2="466.629" y2="308.724" gradientUnits="userSpaceOnUse">
<stop stop-color="#EFB3A8"/>
<stop offset="1" stop-color="white"/>
</linearGradient>
<linearGradient id="paint1_linear_268_2932" x1="617.842" y1="-151.783" x2="264.11" y2="152.137" gradientUnits="userSpaceOnUse">
<stop stop-color="#FFE8E3"/>
<stop offset="1" stop-color="#FCF6F6"/>
</linearGradient>
<linearGradient id="paint2_linear_268_2932" x1="176.833" y1="251.393" x2="128.425" y2="235.712" gradientUnits="userSpaceOnUse">
<stop stop-color="#F9B776"/>
<stop offset="1" stop-color="#F47960"/>
</linearGradient>
<linearGradient id="paint3_linear_268_2932" x1="148.611" y1="192.54" x2="116.85" y2="174.107" gradientUnits="userSpaceOnUse">
<stop stop-color="#F9B776"/>
<stop offset="1" stop-color="#F47960"/>
</linearGradient>
<linearGradient id="paint4_linear_268_2932" x1="161.901" y1="178.054" x2="126.546" y2="152.87" gradientUnits="userSpaceOnUse">
<stop stop-color="#F9B776"/>
<stop offset="1" stop-color="#F47960"/>
</linearGradient>
<linearGradient id="paint5_linear_268_2932" x1="139.471" y1="175.175" x2="127.948" y2="165.794" gradientUnits="userSpaceOnUse">
<stop stop-color="#F9B776"/>
<stop offset="1" stop-color="#F47960"/>
</linearGradient>
<linearGradient id="paint6_linear_268_2932" x1="165.074" y1="253.745" x2="156.469" y2="218.839" gradientUnits="userSpaceOnUse">
<stop stop-color="#F9B776"/>
<stop offset="1" stop-color="#F47960"/>
</linearGradient>
</defs>
</svg>
