<svg width="16" height="16" viewBox="0 0 16 16" fill="none" xmlns="http://www.w3.org/2000/svg">
<g clip-path="url(#clip0_19006_58122)">
<path d="M3.15497 13.8109C4.0973 13.8109 4.86121 13.0469 4.86121 12.1046C4.86121 11.1623 4.0973 10.3984 3.15497 10.3984C2.21264 10.3984 1.44873 11.1623 1.44873 12.1046C1.44873 13.0469 2.21264 13.8109 3.15497 13.8109Z" fill="#909BA6"/>
<path d="M14.1327 12.2978C14.9506 12.2978 15.6136 11.6348 15.6136 10.8169C15.6136 9.99904 14.9506 9.33603 14.1327 9.33603C13.3149 9.33603 12.6519 9.99904 12.6519 10.8169C12.6519 11.6348 13.3149 12.2978 14.1327 12.2978Z" fill="#C8D2DC"/>
<path d="M12.7805 4.82897C13.4561 4.82897 14.0038 4.28127 14.0038 3.60563C14.0038 2.93 13.4561 2.38229 12.7805 2.38229C12.1048 2.38229 11.5571 2.93 11.5571 3.60563C11.5571 4.28127 12.1048 4.82897 12.7805 4.82897Z" fill="#E9EDF1"/>
<path d="M1.8107 9.64596C2.81073 9.64596 3.62141 8.85504 3.62141 7.87939C3.62141 6.90374 2.81073 6.11282 1.8107 6.11282C0.81068 6.11282 0 6.90374 0 7.87939C0 8.85504 0.81068 9.64596 1.8107 9.64596Z" fill="#7E8B96"/>
<path d="M7.01231 16C7.92143 16 8.65841 15.2819 8.65841 14.396C8.65841 13.5101 7.92143 12.792 7.01231 12.792C6.1032 12.792 5.36621 13.5101 5.36621 14.396C5.36621 15.2819 6.1032 16 7.01231 16Z" fill="#A2ABB8"/>
<path d="M11.243 15.2972C12.1066 15.2972 12.8068 14.6155 12.8068 13.7746C12.8068 12.9337 12.1066 12.252 11.243 12.252C10.3793 12.252 9.6792 12.9337 9.6792 13.7746C9.6792 14.6155 10.3793 15.2972 11.243 15.2972Z" fill="#B9C3CD"/>
<path d="M3.76945 5.54336C4.81492 5.54336 5.66244 4.71608 5.66244 3.69557C5.66244 2.67506 4.81492 1.84778 3.76945 1.84778C2.72399 1.84778 1.87646 2.67506 1.87646 3.69557C1.87646 4.71608 2.72399 5.54336 3.76945 5.54336Z" fill="#5F6C75"/>
<path d="M14.6008 8.34232C15.3736 8.34232 16 7.7275 16 6.96909C16 6.21067 15.3736 5.59586 14.6008 5.59586C13.8281 5.59586 13.2017 6.21067 13.2017 6.96909C13.2017 7.7275 13.8281 8.34232 14.6008 8.34232Z" fill="#DCE6EB"/>
<path d="M8.46668 3.99195C9.56903 3.99195 10.4627 3.09832 10.4627 1.99598C10.4627 0.893629 9.56903 0 8.46668 0C7.36433 0 6.4707 0.893629 6.4707 1.99598C6.4707 3.09832 7.36433 3.99195 8.46668 3.99195Z" fill="#4E5A61"/>
</g>
<defs>
<clipPath id="clip0_19006_58122">
<rect width="16" height="16" fill="white"/>
</clipPath>
</defs>
</svg>
