<svg width="248" height="68" viewBox="0 0 248 68" fill="none" xmlns="http://www.w3.org/2000/svg">
<g clip-path="url(#clip0_675_107887)">
<path d="M108.091 67.2314H82.6995C82.6336 67.2325 82.5681 67.2202 82.5069 67.1954C82.4457 67.1706 82.39 67.1338 82.343 67.0871C82.296 67.0403 82.2587 66.9846 82.2333 66.9232C82.2078 66.8618 82.1947 66.7959 82.1947 66.7293V26.2732C82.1967 26.1393 82.2507 26.0116 82.3452 25.9176C82.4397 25.8236 82.5669 25.771 82.6995 25.771H88.5388C88.6701 25.773 88.7954 25.8265 88.8883 25.9203C88.9811 26.014 89.0341 26.1406 89.0361 26.2732V60.6955H108.091C108.224 60.6955 108.351 60.7481 108.445 60.8421C108.54 60.9361 108.594 61.0638 108.596 61.1977V66.7293C108.596 66.7959 108.583 66.8618 108.557 66.9232C108.532 66.9846 108.494 67.0403 108.447 67.0871C108.401 67.1338 108.345 67.1706 108.284 67.1954C108.222 67.2202 108.157 67.2325 108.091 67.2314Z" fill="#F2385A"/>
<path d="M140.339 54.8216C140.339 64.15 133.678 68.0001 126.897 68.0001C120.116 68.0001 113.463 64.15 113.463 54.8216V38.4551C113.463 38.3219 113.516 38.1941 113.609 38.1C113.702 38.0058 113.829 37.9529 113.96 37.9529H119.317C119.449 37.9529 119.576 38.0058 119.669 38.1C119.762 38.1941 119.815 38.3219 119.815 38.4551V54.2434C119.815 59.8967 122.934 61.9739 126.897 61.9739C130.86 61.9739 133.987 59.8967 133.987 54.2434V38.4551C133.987 38.3219 134.04 38.1941 134.133 38.1C134.226 38.0058 134.353 37.9529 134.485 37.9529H139.842C139.973 37.9548 140.098 38.0084 140.191 38.1021C140.284 38.1959 140.337 38.3225 140.339 38.4551V54.8216Z" fill="#F2385A"/>
<path d="M196.788 48.8333V66.7293C196.788 66.7959 196.775 66.8618 196.749 66.9232C196.724 66.9847 196.686 67.0404 196.64 67.0871C196.593 67.1338 196.537 67.1707 196.476 67.1954C196.414 67.2202 196.349 67.2325 196.283 67.2315H190.933C190.868 67.2325 190.802 67.2202 190.741 67.1954C190.68 67.1707 190.624 67.1338 190.577 67.0871C190.53 67.0404 190.493 66.9847 190.467 66.9232C190.442 66.8618 190.429 66.7959 190.429 66.7293V50.979C190.429 46.0561 187.92 43.3093 183.648 43.3093C179.564 43.3093 176.113 46.0257 176.113 51.0399V66.7293C176.113 66.7959 176.1 66.8618 176.074 66.9232C176.049 66.9847 176.012 67.0404 175.965 67.0871C175.918 67.1338 175.862 67.1707 175.801 67.1954C175.74 67.2202 175.674 67.2325 175.608 67.2315H170.259C170.193 67.2325 170.127 67.2202 170.066 67.1954C170.005 67.1707 169.949 67.1338 169.902 67.0871C169.855 67.0404 169.818 66.9847 169.792 66.9232C169.767 66.8618 169.754 66.7959 169.754 66.7293V50.979C169.754 46.0561 167.245 43.3093 162.973 43.3093C158.889 43.3093 155.438 46.0257 155.438 51.0399V66.7293C155.438 66.7959 155.425 66.8618 155.4 66.9232C155.374 66.9847 155.337 67.0404 155.29 67.0871C155.243 67.1338 155.187 67.1707 155.126 67.1954C155.065 67.2202 154.999 67.2325 154.933 67.2315H149.584C149.518 67.2325 149.452 67.2202 149.391 67.1954C149.33 67.1707 149.274 67.1338 149.227 67.0871C149.18 67.0404 149.143 66.9847 149.118 66.9232C149.092 66.8618 149.079 66.7959 149.079 66.7293V38.4549C149.081 38.321 149.135 38.1933 149.229 38.0993C149.324 38.0054 149.451 37.9527 149.584 37.9527H154.858C154.991 37.9527 155.118 38.0054 155.212 38.0993C155.307 38.1933 155.361 38.321 155.363 38.4549V41.4984C157.691 38.044 161.293 37.1538 164.261 37.1538C168.684 37.1538 172.285 39.1397 174.282 42.3811C176.791 38.1962 181.274 37.1538 184.876 37.1538C191.913 37.1842 196.788 41.9854 196.788 48.8333Z" fill="#F2385A"/>
<path d="M211.631 67.2316H206.274C206.208 67.2326 206.143 67.2203 206.082 67.1955C206.021 67.1706 205.966 67.1337 205.92 67.0868C205.873 67.04 205.837 66.9842 205.812 66.9228C205.788 66.8614 205.775 66.7957 205.776 66.7294V38.4551C205.776 38.3219 205.829 38.1941 205.922 38.1C206.015 38.0058 206.142 37.9529 206.274 37.9529H211.631C211.696 37.9529 211.761 37.9659 211.821 37.9911C211.881 38.0163 211.936 38.0533 211.982 38.1C212.029 38.1466 212.065 38.202 212.09 38.2629C212.115 38.3238 212.128 38.3891 212.128 38.4551V66.7294C212.129 66.7957 212.117 66.8614 212.092 66.9228C212.068 66.9842 212.031 67.04 211.985 67.0868C211.938 67.1337 211.883 67.1706 211.822 67.1955C211.762 67.2203 211.696 67.2326 211.631 67.2316Z" fill="#F2385A"/>
<path d="M248.001 48.8333V66.7293C248.001 66.7959 247.987 66.8618 247.962 66.9232C247.936 66.9847 247.899 67.0404 247.852 67.0871C247.805 67.1338 247.75 67.1707 247.688 67.1954C247.627 67.2202 247.562 67.2325 247.496 67.2315H242.146C242.08 67.2325 242.015 67.2202 241.954 67.1954C241.892 67.1707 241.837 67.1338 241.79 67.0871C241.743 67.0404 241.705 66.9847 241.68 66.9232C241.654 66.8618 241.641 66.7959 241.641 66.7293V50.979C241.641 46.0561 239.132 43.3093 234.86 43.3093C230.777 43.3093 227.326 46.0257 227.326 51.0399V66.7293C227.326 66.7959 227.313 66.8618 227.287 66.9232C227.262 66.9847 227.224 67.0404 227.177 67.0871C227.13 67.1338 227.075 67.1707 227.013 67.1954C226.952 67.2202 226.887 67.2325 226.821 67.2315H221.517C221.451 67.2325 221.385 67.2202 221.324 67.1954C221.263 67.1707 221.207 67.1338 221.16 67.0871C221.113 67.0404 221.076 66.9847 221.05 66.9232C221.025 66.8618 221.012 66.7959 221.012 66.7293V38.4549C221.014 38.321 221.068 38.1933 221.162 38.0993C221.257 38.0054 221.384 37.9527 221.517 37.9527H226.791C226.923 37.9527 227.051 38.0054 227.145 38.0993C227.24 38.1933 227.294 38.321 227.296 38.4549V41.4984C229.624 38.044 233.225 37.1538 236.194 37.1538C243.126 37.1842 248.001 41.9854 248.001 48.8333Z" fill="#F2385A"/>
<path d="M209.159 26.3338L206.213 31.4013C206.17 31.4787 206.147 31.5662 206.148 31.6551C206.148 31.744 206.172 31.8312 206.216 31.9081C206.26 31.9851 206.324 32.049 206.4 32.0935C206.476 32.1381 206.562 32.1618 206.65 32.1622H211.48C211.678 32.1631 211.872 32.1115 212.044 32.0127C212.216 31.9139 212.359 31.7713 212.46 31.5991L215.345 26.6306C215.396 26.5437 215.423 26.4448 215.423 26.3441C215.424 26.2433 215.398 26.1442 215.348 26.0569C215.298 25.9695 215.226 25.897 215.14 25.8468C215.054 25.7965 214.955 25.7703 214.856 25.7708H210.131C209.935 25.7704 209.741 25.8223 209.571 25.9211C209.4 26.0199 209.258 26.1622 209.159 26.3338Z" fill="#F2385A"/>
<path d="M22.4592 49.716L49.8624 2.28264C49.9946 2.05142 50.0642 1.78915 50.0643 1.52215C50.0644 1.25516 49.9949 0.992848 49.8628 0.761557C49.7307 0.530266 49.5407 0.338137 49.3119 0.204462C49.083 0.070788 48.8233 0.000273695 48.5589 0L30.8904 0C30.4517 0.000117428 30.0207 0.116034 29.6401 0.336254C29.2594 0.556475 28.9424 0.873349 28.7204 1.25545L0.345289 50.3932C0.124579 50.7777 0.00790049 51.2141 0.00696369 51.6585C0.0060269 52.1029 0.120865 52.5398 0.339952 52.9252C0.559038 53.3107 0.874666 53.6311 1.25516 53.8545C1.63565 54.0778 2.06762 54.1961 2.50771 54.1976H14.8493L9.52238 63.4271C9.30136 63.8122 9.18467 64.2492 9.18406 64.6943C9.18346 65.1394 9.29895 65.5767 9.51893 65.9624C9.73891 66.3481 10.0556 66.6684 10.4371 66.8912C10.8187 67.114 11.2516 67.2314 11.6923 67.2315H56.1462C56.6735 67.2296 57.191 67.0881 57.6471 66.8211C58.1033 66.554 58.482 66.1708 58.7457 65.7097L66.672 52.0139C66.8039 51.7832 66.8735 51.5216 66.8739 51.2553C66.8743 50.9889 66.8055 50.7271 66.6743 50.4961C66.5431 50.265 66.3542 50.0727 66.1264 49.9385C65.8985 49.8043 65.6398 49.7328 65.3761 49.7312L22.4592 49.716ZM32.013 4.4892H43.443L17.3282 49.716H5.88319L32.013 4.4892ZM55.3702 62.7499H15.0678L20.003 54.2052H60.2752L55.3702 62.7499Z" fill="#F2385A"/>
</g>
<defs>
<clipPath id="clip0_675_107887">
<rect width="248" height="68" fill="white"/>
</clipPath>
</defs>
</svg>
