<svg xmlns="http://www.w3.org/2000/svg" width="359" height="58" viewBox="0 0 359 58">
    <g fill="none" fill-rule="evenodd">
        <g fill="#ED3D48">
            <path d="M25.114 42.8L16.81 28.2 33.417.2h16.608zM33.822 57.4l-8.708-14.6h30.784l8.304 14.6zM10.126 40.8l10.127 16.6H.203z"/>
        </g>
        <g fill="#FFF">
            <path d="M90.042 14.803v21.895h11.862v6.227h-19.3V14.803h7.438zM118.792 36.698c3.217 0 5.429-2.21 5.429-5.825v-16.27h7.439v16.27c0 7.432-5.027 12.052-12.868 12.052-8.042 0-13.068-4.62-13.068-12.052v-16.27h7.439v16.27c0 3.615 2.413 5.825 5.63 5.825zM183.732 14.803v28.122h-7.439V14.803c0-.2 7.439-.2 7.439 0zM196.6 14.803l12.867 16.873V14.803h6.835v28.122h-6.433L197 26.052v16.873h-6.835V14.803h6.433zM146.135 14.803l7.44 16.471 7.438-16.47h8.042v28.12h-6.433V25.049l-6.635 15.065h-4.624l-6.635-15.065v17.877h-6.635V14.803c0-.2 8.042-.2 8.042 0zM253.095 14.803v1.607h-9.45v26.515h-1.81V16.41h-9.449v-1.607z"/>
            <path fill-rule="nonzero" d="M282.65 28.663c0 7.834-6.434 14.06-14.476 14.06-8.043 0-14.476-6.226-14.476-14.06 0-7.834 6.433-14.06 14.476-14.06 8.042 0 14.475 6.226 14.475 14.06zm-27.344 0c0 6.83 5.83 12.454 12.868 12.454 7.036 0 12.867-5.624 12.867-12.454 0-6.83-5.83-12.453-12.867-12.453-7.037 0-12.868 5.624-12.868 12.453zM315.22 28.663c0 7.834-6.434 14.06-14.476 14.06-8.042 0-14.476-6.226-14.476-14.06 0-7.834 6.434-14.06 14.476-14.06 7.84.2 14.476 6.226 14.476 14.06zm-27.343 0c0 6.83 5.83 12.454 12.867 12.454 7.037 0 12.867-5.624 12.867-12.454 0-6.83-5.83-12.453-12.867-12.453-7.238.2-12.867 5.624-12.867 12.453z"/>
            <path d="M323.463 14.803v26.515h12.465v1.607h-14.275V14.803c0-.2 1.81-.2 1.81 0zM349.398 16.41c-4.423 0-7.439 1.808-7.439 4.821 0 8.637 16.487 4.218 16.487 14.463 0 4.419-3.82 7.23-9.852 7.23-3.82 0-7.64-1.606-10.052-4.017l.804-1.406c2.211 2.41 5.83 3.817 9.248 3.817 4.825 0 7.841-2.009 7.841-5.424 0-8.838-16.486-4.218-16.486-14.462 0-4.017 3.619-6.629 9.248-6.629 2.815 0 6.032 1.005 8.042 2.21l-.804 1.607c-1.81-1.406-4.624-2.21-7.037-2.21z"/>
        </g>
    </g>
</svg>
