<svg width="96" height="94" viewBox="0 0 96 94" fill="none" xmlns="http://www.w3.org/2000/svg">
<path d="M0 35.7469L44.0547 9.37281C46.4867 7.9213 49.5133 7.9213 51.9453 9.37281L96 35.7469V78.7362L0 73.9184V35.7469Z" fill="url(#paint0_linear_731_8294)"/>
<path d="M86.233 6.15759L23.4533 0.367365C21.2535 0.164475 19.3057 1.7833 19.1028 3.9831L13.4167 65.6348C13.2138 67.8346 14.8326 69.7824 17.0324 69.9853L79.8121 75.7755C82.0119 75.9784 83.9596 74.3596 84.1625 72.1598L89.8487 10.5081C90.0516 8.30825 88.4328 6.36048 86.233 6.15759Z" fill="url(#paint1_linear_731_8294)"/>
<path d="M96 35.6313V85.8296C96 89.6008 96 91.4865 94.8284 92.658C93.6569 93.8296 91.7712 93.8296 88 93.8296H8C4.22876 93.8296 2.34315 93.8296 1.17157 92.658C0 91.4865 0 89.6008 0 85.8296V35.6313L48 64.3679L96 35.6313Z" fill="url(#paint2_linear_731_8294)"/>
<path d="M53.6372 63.2285C51.2283 61.4991 47.9856 61.4991 45.5767 63.2285L2.53735 92.7423C3.07302 93.2028 4.9418 93.8297 6.68171 93.8297H90.4146C91.1777 93.8297 92.6957 93.3222 93.5199 92.7423L53.6372 63.2285Z" fill="url(#paint3_linear_731_8294)"/>
<g filter="url(#filter0_i_731_8294)">
<path d="M57.7912 34.8903L65.836 26.8276C66.5896 26.03 67.0026 24.9699 66.987 23.8726C66.9715 22.7754 66.5287 21.7274 65.7527 20.9515C64.9768 20.1755 63.9288 19.7327 62.8315 19.7172C61.7343 19.7016 60.6742 20.1145 59.8766 20.8682L51.8139 28.9309L43.7691 20.8682C43.382 20.4585 42.9167 20.1306 42.4006 19.9039C41.8846 19.6772 41.3283 19.5563 40.7647 19.5483C40.2011 19.5403 39.6416 19.6454 39.1194 19.8574C38.5971 20.0694 38.1227 20.384 37.7241 20.7826C37.3255 21.1811 37.0109 21.6556 36.7989 22.1778C36.5869 22.7001 36.4818 23.2596 36.4898 23.8232C36.4978 24.3868 36.6187 24.9431 36.8454 25.4591C37.0721 25.9752 37.4 26.4405 37.8097 26.8276L45.868 34.8903L37.8097 42.953C37.4 43.3401 37.0721 43.8055 36.8454 44.3215C36.6187 44.8376 36.4978 45.3938 36.4898 45.9574C36.4818 46.521 36.5869 47.0805 36.7989 47.6028C37.0109 48.125 37.3255 48.5995 37.7241 48.9981C38.1227 49.3966 38.5971 49.7112 39.1194 49.9232C39.6416 50.1352 40.2011 50.2403 40.7647 50.2324C41.3283 50.2244 41.8846 50.1034 42.4006 49.8767C42.9167 49.65 43.382 49.3221 43.7691 48.9124L51.8318 40.8497L59.8945 48.9124C60.6997 49.6216 61.7451 49.9971 62.8175 49.9624C63.8899 49.9276 64.9087 49.4852 65.6663 48.7253C66.4239 47.9655 66.8632 46.9453 66.8947 45.8728C66.9263 44.8003 66.5476 43.7561 65.836 42.953L57.7912 34.8903Z" fill="#F2385A"/>
</g>
<defs>
<filter id="filter0_i_731_8294" x="36.4894" y="19.5479" width="31.2215" height="31.4084" filterUnits="userSpaceOnUse" color-interpolation-filters="sRGB">
<feFlood flood-opacity="0" result="BackgroundImageFix"/>
<feBlend mode="normal" in="SourceGraphic" in2="BackgroundImageFix" result="shape"/>
<feColorMatrix in="SourceAlpha" type="matrix" values="0 0 0 0 0 0 0 0 0 0 0 0 0 0 0 0 0 0 127 0" result="hardAlpha"/>
<feOffset dx="0.723468" dy="0.723468"/>
<feGaussianBlur stdDeviation="0.723468"/>
<feComposite in2="hardAlpha" operator="arithmetic" k2="-1" k3="1"/>
<feColorMatrix type="matrix" values="0 0 0 0 1 0 0 0 0 1 0 0 0 0 1 0 0 0 1 0"/>
<feBlend mode="normal" in2="shape" result="effect1_innerShadow_731_8294"/>
</filter>
<linearGradient id="paint0_linear_731_8294" x1="48" y1="8.28418" x2="48" y2="78.7362" gradientUnits="userSpaceOnUse">
<stop stop-color="#8EDEF4"/>
<stop offset="1" stop-color="#E2F9FF"/>
</linearGradient>
<linearGradient id="paint1_linear_731_8294" x1="54.8432" y1="3.26248" x2="53.4441" y2="78.0723" gradientUnits="userSpaceOnUse">
<stop stop-color="#FFD8CC"/>
<stop offset="1" stop-color="#FFF0EE"/>
</linearGradient>
<linearGradient id="paint2_linear_731_8294" x1="48" y1="35.6313" x2="48" y2="93.8296" gradientUnits="userSpaceOnUse">
<stop stop-color="#8EDEF4"/>
<stop offset="1" stop-color="#E2F9FF"/>
</linearGradient>
<linearGradient id="paint3_linear_731_8294" x1="48.0286" y1="61.9315" x2="48.0286" y2="93.8297" gradientUnits="userSpaceOnUse">
<stop stop-color="#8EDEF4"/>
<stop offset="1" stop-color="#E2F9FF"/>
</linearGradient>
</defs>
</svg>
