<svg width="162" height="213" viewBox="0 0 162 213" fill="none" xmlns="http://www.w3.org/2000/svg">
<path opacity="0.2" d="M86 213V147L153 114V180L86 213Z" fill="#102D42"/>
<path d="M87.1538 127.308L1 77.6667L74.8462 35L161 84.7778L87.1538 127.308Z" fill="#BB7B70" stroke="url(#paint0_radial_5264_85605)" stroke-width="0.394093"/>
<path d="M93.9562 123.842C63.1462 124.132 49.045 125.049 60.2487 125.967C71.5006 126.884 66.43 127.222 48.9967 127.512C31.5635 127.802 17.8486 129.637 43.5398 130.603C69.2792 131.52 163.448 130.699 152.582 128.913C141.717 127.126 133.748 126.884 140.268 125.919C146.884 125.001 136.356 123.456 93.9562 123.842Z" fill="#99ADF9"/>
<path d="M63.6302 71.2055C62.9058 72.123 61.94 73.1854 60.9258 74.3444C55.6138 80.1394 47.1145 88.1075 42.7199 90.4738C37.4561 93.2747 32.8201 93.9508 30.647 90.8602C28.4739 87.7695 28.329 85.3549 31.6611 81.6365C34.9933 77.918 47.5008 61.354 54.1167 55.9453C58.801 52.1303 64.6443 53.8688 66.8174 57.6355C69.0388 61.3057 68.1213 65.652 63.6302 71.2055Z" fill="#325167"/>
<path d="M60.9258 74.2943C55.6137 80.0892 47.1144 88.0574 42.7199 90.4236C37.4561 93.2246 32.8201 93.9006 30.647 90.81C38.8083 90.1339 54.2616 72.6523 54.2616 72.6523L60.9258 74.2943Z" fill="#48687F"/>
<path d="M41.2706 88.5869C36.7794 97.1828 28.8596 91.8224 22.6783 85.786C16.497 79.7495 9.59127 70.1395 8.57714 67.2903C8.2391 66.3728 8.14253 65.4069 8.23911 64.4411C8.38399 62.4612 9.3981 60.7227 10.7986 60.7227C12.8751 60.7227 29.1494 71.6366 34.558 76.1277C38.5662 79.4598 41.5603 82.309 41.9466 85.3031C42.0432 86.4138 41.8501 87.4762 41.2706 88.5869Z" fill="#48687F"/>
<path d="M41.2706 88.5853C36.7794 97.1812 28.8596 91.8208 22.6783 85.7843C16.497 79.7479 9.59127 70.1379 8.57714 67.2887C8.2391 66.3711 8.14253 65.4053 8.23911 64.4395C9.34982 64.5843 10.5088 65.2121 11.6678 66.4677C11.6678 66.4677 25.5275 84.6253 32.5298 88.1989C34.9927 89.4545 38.4696 87.9092 41.8983 85.3014C42.0432 86.4121 41.8501 87.4745 41.2706 88.5853Z" fill="#48687F"/>
<path d="M12.4403 67.051C11.9574 69.4173 10.895 75.1157 8.86674 76.0332C6.7902 76.9508 3.12004 75.9367 2.2025 73.5704C1.28495 71.1558 3.65124 68.0168 5.96924 65.0228C8.28724 62.0287 9.73599 60.7248 11.0399 60.8214C12.3437 60.918 12.9232 64.4915 12.4403 67.051Z" fill="#325167"/>
<path d="M2.44374 72.2213C2.44374 72.4627 2.20228 71.014 2.44374 72.4627C2.6852 73.9115 5.0032 73.7666 5.34124 73.1388C6.45195 71.1588 10.605 62.5146 9.83236 61.8386C9.05969 61.1625 2.58862 68.1648 2.44374 72.2213Z" fill="#48687F"/>
<path d="M111.536 109.305C111.536 109.305 123.415 108.291 129.066 98.874C134.716 89.4571 125.637 67.3879 125.106 58.6471C124.574 49.9063 131.77 43.0489 139.303 49.9063C146.837 56.7637 146.644 79.3642 143.939 89.9401C141.187 100.564 133.025 108.677 122.16 112.492C114.481 115.197 110.087 113.506 110.087 113.506L111.536 109.305Z" fill="#325167"/>
<path d="M77.3433 114.038C74.7356 122.489 67.8299 126.883 60.4896 127.656C53.1492 128.429 40.1105 129.008 38.8549 128.187C38.2754 127.801 37.9857 126.98 38.0823 126.063C38.1789 124.952 38.8066 123.648 40.0139 122.634C42.2353 120.75 50.2035 120.75 50.2035 120.75C50.2035 120.75 48.7547 120.557 46.6782 118.964C44.6016 117.322 39.7242 114.086 43.5875 102.11C47.4508 90.1336 58.7994 87.3809 70.0996 91.3408C72.7073 92.2584 74.639 94.3349 75.9429 96.9427C78.5506 101.917 78.8887 109.064 77.3433 114.038Z" fill="#F774B9"/>
<path d="M57.4468 120.604C57.4468 121.039 57.0605 121.329 56.6742 121.329C56.5776 121.329 45.4222 121.136 41.9935 122.101C39.1443 122.922 38.9995 124.709 38.9512 125.82V126.061C38.8546 127.027 39.3858 127.124 39.4824 127.124C39.917 127.172 40.2068 127.558 40.1585 127.993C40.1102 128.379 39.7721 128.669 39.3858 128.669C39.3375 128.669 39.3375 128.669 39.2892 128.669C38.42 128.572 37.2127 127.751 37.4058 125.916V125.675C37.5024 124.468 37.6956 121.715 41.5589 120.604C42.9594 120.218 45.5188 119.977 48.0783 119.88C46.8227 119.494 45.712 119.059 44.9393 118.528C40.8828 115.679 40.1585 111.091 42.4765 102.736C44.215 96.5068 47.7402 93.0781 51.3138 91.1464C51.7001 90.9533 52.1831 91.0982 52.3279 91.5328C52.4728 91.8708 52.3279 92.2572 51.9899 92.4503C48.7544 94.1888 45.5188 97.3761 43.9252 103.123C41.4623 112.057 42.9111 115.196 45.8086 117.272C48.5129 119.156 56.6259 119.783 56.7225 119.783C57.1088 119.832 57.4468 120.17 57.4468 120.604Z" fill="#F774B9"/>
<path d="M77.3433 114.036C74.7356 122.487 67.8299 126.882 60.4896 127.654C53.1492 128.427 40.1105 129.006 38.8549 128.186C38.2754 127.799 37.9857 126.978 38.0823 126.061C40.7866 126.35 50.783 126.978 63.049 120.99C74.6873 115.34 75.9429 101.915 75.9912 96.8926C78.5506 101.915 78.8887 109.062 77.3433 114.036Z" fill="#F774B9"/>
<path d="M43.5388 106.166C43.5388 106.166 47.3056 112.009 52.7143 115.341C58.1229 118.674 61.117 119.35 61.117 119.35C61.117 119.35 56.2395 120.46 51.5552 120.364C46.871 120.267 43.3457 117.611 42.1384 113.361C40.8828 109.064 43.5388 106.166 43.5388 106.166Z" fill="#F774B9"/>
<path d="M78.6576 131C77.9345 131 77.2595 131 76.5846 131C74.8973 131 73.2099 130.949 71.619 130.847C68.9675 130.693 66.5088 130.387 64.1947 129.978C50.0693 127.321 42.4522 119.348 43.0307 102.229C43.5128 88.3287 47.5142 71.669 50.455 61.1417C50.7442 60.1196 50.9853 59.1998 51.2746 58.331C52.2387 54.9582 53.0583 52.5052 53.3958 51.3299C53.5404 50.8699 53.6368 50.6144 53.6368 50.6144L94.2293 43.1022L94.615 43C94.615 43 96.0613 46.5261 98.1825 52.0964C98.5682 53.0674 98.9539 54.0894 99.3395 55.1626C99.7734 56.338 100.256 57.5645 100.738 58.8931C104.161 67.9895 108.403 79.7433 111.826 90.5261C112.838 93.6945 113.754 96.7607 114.574 99.6225C115.345 102.331 116.02 104.937 116.55 107.288C120.118 122.568 101.991 130.744 78.6576 131Z" fill="#325167"/>
<path d="M95.0187 120.995H86.1331C83.3322 120.995 78.6962 121.14 77.2957 123.796C76.8611 124.569 76.6679 125.438 76.6197 126.259C74.9294 126.259 73.2392 126.211 71.6456 126.114L71.2593 124.086C71.2593 124.086 71.2593 124.086 73.1909 121.623C75.0743 119.257 81.2073 106.604 81.5454 105.977C81.4005 106.411 79.1308 112.786 82.9458 116.842C86.6643 120.899 94.1978 120.995 95.0187 120.995Z" fill="#325167"/>
<g filter="url(#filter0_d_5264_85605)">
<path d="M66.5752 123.941C66.5269 123.99 66.4786 123.99 66.4303 124.038C65.7542 124.473 64.9816 124.907 64.1606 125.294C49.9629 122.782 42.3811 115.249 42.9606 99.0712C43.347 88.8334 45.8581 77.0502 48.321 67.6334C49.0454 64.9291 49.7214 62.4662 50.3975 60.2448C52.1843 58.5063 54.7438 56.9609 58.2208 56.9609C66.2855 56.9609 70.8732 59.1824 74.157 84.5354C77.3442 109.647 73.1911 119.45 66.5752 123.941Z" fill="#618298"/>
</g>
<path opacity="0.5" d="M66.5752 123.939C66.5269 123.987 66.4786 123.987 66.4303 124.035C65.7542 124.47 64.9816 124.905 64.1606 125.291C49.9629 122.78 42.3811 115.246 42.9606 99.0687C43.347 88.8309 45.8581 77.0477 48.321 67.6309C47.8381 74.5848 47.3551 92.5976 54.2608 107.278C58.4139 116.116 62.9533 121.138 66.5752 123.939Z" fill="#829DB0"/>
<path d="M98.2557 51.6964C95.2617 53.7729 89.2252 57.2982 81.1605 59.3748C78.0699 60.1474 74.6894 60.7269 71.0676 60.9201C59.3327 61.5479 53.6826 59.1816 51.2197 57.4914C52.1856 54.3041 53.0065 51.9861 53.3446 50.8754C55.7108 51.6481 61.7473 53.0486 71.7919 51.9861C73.5787 51.793 75.3655 51.4549 77.104 51.0203C84.3478 49.1852 90.7223 45.4185 94.2475 43.0522L94.6339 43.0039C94.6822 43.0522 96.0826 46.4326 98.2557 51.6964Z" fill="#F2385A"/>
<path d="M81.1605 59.3743C78.0699 60.147 74.6894 60.7265 71.0676 60.9196C59.3327 61.5474 53.6826 59.1812 51.2197 57.491C52.1856 54.3037 53.0065 51.9857 53.3446 50.875C55.7108 51.6477 61.7473 53.0481 71.792 51.9857C73.5787 51.7925 75.3655 51.4545 77.104 51.0199L81.1605 59.3743Z" fill="#F2385A"/>
<path d="M62.7621 63.1417C62.7621 63.4315 62.7621 63.7212 62.7138 64.011C62.3274 67.0051 59.9611 69.3231 57.0637 69.3231C53.9247 69.3231 51.3652 66.5221 51.3652 63.0934C51.3652 61.4998 51.8964 60.0511 52.8623 58.9404C53.9247 57.6848 55.4217 56.9121 57.0637 56.9121C60.2026 56.9604 62.7621 59.713 62.7621 63.1417Z" fill="#F2BE38"/>
<path d="M62.762 63.1403C62.762 63.4301 62.762 63.7198 62.7137 64.0096C61.6996 65.2652 60.1543 66.0378 58.5124 66.0378C55.3734 66.0378 52.814 63.2369 52.814 59.8565C52.814 59.5667 52.814 59.277 52.8623 58.9872C53.9247 57.7316 55.4217 56.959 57.0636 56.959C60.2026 56.959 62.762 59.7116 62.762 63.1403Z" fill="#F2BE38"/>
<path d="M56.6775 64.4926C58.6778 64.4926 60.2994 63.7143 60.2994 62.7541C60.2994 61.794 58.6778 61.0156 56.6775 61.0156C54.6772 61.0156 53.0557 61.794 53.0557 62.7541C53.0557 63.7143 54.6772 64.4926 56.6775 64.4926Z" fill="#102D42"/>
<path d="M55.8086 68.5972V64.0095C55.8086 63.6232 56.1466 63.2852 56.5813 63.2852C57.0159 63.2852 57.3539 63.6232 57.3539 64.0095V68.5972C57.3539 68.9836 57.0159 69.3216 56.5813 69.3216C56.1466 69.3216 55.8086 68.9836 55.8086 68.5972Z" fill="#102D42"/>
<path d="M115.504 101.607C114.219 102.783 112.505 103.756 110.339 103.413C104.613 102.501 105.3 100.054 104.33 94.2824C103.359 88.5104 95.2804 88.9902 96.231 77.7098C96.8486 70.1891 101.097 68.3118 103.859 67.9443C104.267 69.0652 104.721 70.2356 105.174 71.5025C108.345 80.1298 112.324 91.3369 115.504 101.607Z" fill="#48687F"/>
<path d="M96.0811 120.602C96.0811 121.037 95.6948 121.327 95.3085 121.327C95.2119 121.327 84.0565 121.134 80.6278 122.099C77.7786 122.92 77.6338 124.707 77.5855 125.818V126.059C77.4889 127.025 78.0201 127.122 78.1167 127.122C78.5513 127.17 78.841 127.556 78.7928 127.991C78.7445 128.377 78.4064 128.667 78.0201 128.667C77.9718 128.667 77.9718 128.667 77.9235 128.667C77.0542 128.57 75.847 127.75 76.0401 125.914V125.673C76.1367 124.466 76.3299 121.713 80.1932 120.602C81.5937 120.216 84.1531 119.975 86.7126 119.878C85.457 119.492 84.3463 119.057 83.5736 118.526C79.5171 115.677 78.7927 111.089 81.1107 102.734C82.8492 96.5049 86.3745 93.0762 89.9481 91.1445C90.3344 90.9513 90.8174 91.0962 90.9622 91.5308C91.1071 91.8689 90.9622 92.2552 90.6242 92.4484C87.3887 94.1869 84.1531 97.3741 82.5595 103.121C80.0966 112.055 81.5454 115.194 84.4429 117.27C87.1472 119.154 95.2602 119.781 95.3568 119.781C95.7431 119.83 96.0811 120.168 96.0811 120.602Z" fill="#325167"/>
<path d="M71.9849 124.079C71.9849 124.079 71.2123 125.093 71.8401 126.638C72.4678 128.183 72.3713 129.825 70.8259 130.598C70.0533 130.984 67.3489 131.033 64.5963 130.984C64.3066 130.984 63.9685 130.984 63.6788 130.936C62.0369 130.888 60.4915 130.791 59.3325 130.695C58.8979 130.646 58.5116 130.646 58.2218 130.598C58.1735 130.598 58.1735 130.598 58.1252 130.598C56.1453 130.405 54.4551 129.101 54.4551 127.266C54.4551 126.831 54.5517 126.348 54.7931 125.865C55.9521 123.306 60.8296 121.23 60.8296 121.23C60.8296 121.23 65.0792 114.565 68.025 101.333C70.9708 88.1015 70.8259 82.2099 71.3571 75.7871C71.6952 71.9238 71.7435 64.8732 79.3253 64.1005C83.7198 63.6659 86.4241 64.9698 87.9212 67.2878C89.0319 68.978 89.5631 71.1994 89.708 73.7106C90.0943 79.747 89.0802 85.1557 84.8305 98.0978C80.5809 111.088 71.9849 124.079 71.9849 124.079Z" fill="#325167"/>
<path d="M71.9849 124.077C71.9849 124.077 71.2123 125.091 71.8401 126.636C72.4678 128.181 72.3713 129.823 70.8259 130.596C70.0533 130.982 67.3489 131.031 64.5963 130.982C64.3066 130.982 63.9685 130.982 63.6788 130.934C62.0369 130.886 60.4915 130.789 59.3325 130.693C58.8979 130.644 58.5116 130.644 58.2218 130.596C58.1735 130.596 58.1735 130.596 58.1252 130.596C56.1453 130.403 54.4551 129.099 54.4551 127.264C55.3726 127.167 56.3867 127.167 57.3526 127.264C59.8154 127.505 67.6387 128.568 68.4114 126.878C69.184 125.187 68.025 123.159 68.025 123.159C68.025 123.159 73.6751 113.163 78.9389 100.317C83.913 88.1477 87.5831 69.3139 87.9212 67.334C89.0319 69.0242 89.5631 71.2456 89.708 73.7568C90.0943 79.7932 89.0802 85.2019 84.8305 98.144C80.5809 111.086 71.9849 124.077 71.9849 124.077Z" fill="#48687F"/>
<path d="M61.1662 123.933C61.1662 123.933 59.4277 124.996 58.9931 126.831C58.6551 128.473 59.1863 130.308 59.3311 130.743C58.8965 130.694 58.5102 130.694 58.2204 130.646C57.979 129.825 57.6409 128.183 57.979 126.589C58.4619 124.368 60.5384 123.112 60.635 123.064C60.8765 122.919 61.2145 123.016 61.3594 123.257C61.456 123.45 61.4077 123.789 61.1662 123.933Z" fill="#F774B9"/>
<path d="M66.1399 124.175C66.0917 124.224 64.7878 125.141 64.498 127.266C64.2083 129.487 64.6429 130.502 64.6429 130.502C64.6912 130.646 64.6912 130.84 64.5946 130.984C64.3049 130.984 63.9668 130.984 63.6771 130.936C63.6288 130.791 63.0976 129.632 63.4356 127.121C63.7736 124.465 65.4639 123.354 65.5122 123.306C65.7536 123.161 66.0434 123.21 66.2365 123.451C66.4297 123.692 66.3331 124.03 66.1399 124.175Z" fill="#F774B9"/>
<path d="M94.682 43.052C94.682 43.052 93.5713 44.0661 91.4947 45.5632C89.4182 47.0602 80.0496 52.4206 67.6387 52.8069C57.256 53.145 42.189 53.0484 37.3598 42.5691C36.394 40.4926 35.8628 37.9814 35.8145 35.0356C35.5731 17.0711 57.1111 10.2137 65.8519 9.97227C75.2204 9.73081 85.0236 10.7932 88.9353 17.216C90.8669 20.4033 92.5571 27.8402 93.4264 33.1039C94.2956 38.4643 94.682 43.052 94.682 43.052Z" fill="#325167"/>
<path d="M65.5616 11.1811C64.306 12.6298 62.6641 13.4991 61.0221 14.0303C56.6276 15.4307 51.895 14.4166 51.895 14.4166C51.895 14.4166 51.4121 8.81479 51.4604 5.8207C51.5087 4.61341 51.6053 3.74417 51.8468 3.11638C52.2331 2.15055 52.8126 1.76421 53.7301 1.66763C55.2754 1.52275 65.5616 11.1811 65.5616 11.1811Z" fill="#325167"/>
<path d="M60.0085 12.9679C56.0969 12.4367 53.2477 13.4025 53.2477 13.4025C53.2477 13.4025 52.3785 8.8148 52.4267 6.44851C52.4267 5.48268 52.5716 4.8066 52.7648 4.27539C53.4409 4.8066 54.7447 5.9656 56.4832 8.04214C58.1735 10.167 59.3807 12.002 60.0085 12.9679Z" fill="#48687F"/>
<path d="M90.6253 21.6106L85.4581 19.5824L73.7715 14.9947C73.7715 14.9947 75.1237 5.52951 77.2968 2.43885C77.2968 2.39056 77.3451 2.39056 77.3451 2.34227C79.5665 -0.651813 81.643 -0.410354 82.5606 1.03839C83.4781 2.48714 87.2448 10.8899 88.7902 15.4776C90.3838 20.1619 90.6253 21.6106 90.6253 21.6106Z" fill="#325167"/>
<path d="M84.3475 13.256L75.8965 12.7248C75.8965 12.7248 76.8623 6.30198 78.4559 3.83911C79.0837 3.69424 79.7115 3.79081 80.291 4.37031C81.6915 5.81906 83.6231 10.5999 84.2026 12.6765C84.2509 12.8213 84.2992 13.0628 84.3475 13.256Z" fill="#48687F"/>
<path d="M77.6347 32.1833C77.2966 32.1833 76.9586 31.9419 76.9103 31.6038C76.8137 31.1692 77.0552 30.7829 77.4898 30.6863L85.1199 28.8512C85.5545 28.7546 85.9408 28.9961 86.0374 29.4307C86.134 29.8653 85.8925 30.2517 85.4579 30.3483L77.8279 32.1833C77.7796 32.135 77.683 32.1833 77.6347 32.1833Z" fill="white"/>
<path d="M85.072 38.8503C85.0237 38.8503 84.9754 38.8503 84.9271 38.8503L77.8766 37.4499C77.4419 37.3533 77.2005 36.9669 77.2488 36.5323C77.3454 36.0977 77.7317 35.8562 78.1663 35.9045L85.2169 37.305C85.6515 37.4016 85.893 37.7879 85.8447 38.2225C85.7481 38.6089 85.4584 38.8503 85.072 38.8503Z" fill="white"/>
<path d="M37.7462 36.7739C37.3598 36.7739 37.0218 36.4841 36.9735 36.0978C36.9252 35.6632 37.215 35.2768 37.6496 35.2286L44.6519 34.4076C45.0865 34.3593 45.4728 34.6491 45.5211 35.0837C45.5694 35.5183 45.2797 35.9046 44.845 35.9529L37.8428 36.7739C37.7945 36.7739 37.7945 36.7739 37.7462 36.7739Z" fill="white"/>
<path d="M44.7004 31.0738C44.6038 31.0738 44.5555 31.0738 44.459 31.0255L37.5532 28.6592C37.1669 28.5143 36.9255 28.0797 37.0703 27.6934C37.2152 27.307 37.6498 27.0656 38.0362 27.2105L44.9419 29.5768C45.3282 29.7216 45.5697 30.1563 45.4248 30.5426C45.2799 30.8806 44.9902 31.0738 44.7004 31.0738Z" fill="white"/>
<path d="M94.6815 43.0516C94.6815 43.0516 93.5708 44.0657 91.4943 45.5627C89.4177 47.0598 80.0492 52.4202 67.6382 52.8065C57.2555 53.1445 42.1885 53.0479 37.3594 42.5687C38.7115 43.776 45.4724 48.75 64.9822 47.8807C83.4296 47.0115 91.3011 36.6288 93.4259 33.1035C94.2952 38.4639 94.6815 43.0516 94.6815 43.0516Z" fill="#48687F"/>
<path d="M57.737 40.1482C57.5921 40.1482 57.4472 40.0999 57.3506 40.0516C56.9643 39.8102 56.8677 39.3755 57.1092 38.9892L58.5579 36.5746C58.9926 35.8502 59.7652 35.4156 60.5862 35.3673C61.4071 35.319 62.2281 35.7054 62.711 36.3815L64.5461 38.8926C64.7876 39.2307 64.7393 39.7136 64.3529 39.955C64.0149 40.1965 63.532 40.1482 63.2905 39.7619L61.4554 37.2507C61.2623 36.961 60.9725 36.8644 60.6345 36.8644C60.2964 36.8644 60.0067 37.0575 59.8618 37.3473L58.4131 39.7619C58.2682 40.0033 58.0267 40.1482 57.737 40.1482Z" fill="white"/>
<path d="M47.8374 21.6573C47.8374 23.927 48.8998 25.7621 50.1554 25.7621C51.4593 25.7621 52.4734 23.927 52.4734 21.6573C52.4734 20.7881 52.3285 19.9671 52.0388 19.291L48.1272 19.6291C47.934 20.2086 47.8374 20.9329 47.8374 21.6573Z" fill="white"/>
<path d="M53.2448 20.4516H48.3674C47.9328 20.4516 47.5947 20.1135 47.5947 19.6789C47.5947 19.2443 47.9328 18.9062 48.3674 18.9062H53.2448C53.6795 18.9062 54.0175 19.2443 54.0175 19.6789C54.0175 20.1135 53.6312 20.4516 53.2448 20.4516Z" fill="#F1F5F8"/>
<path d="M74.1078 22.7629C74.1078 25.3224 72.9971 27.3989 71.5966 27.3989C70.1961 27.3989 69.0854 25.3224 69.0854 22.7629C69.0854 21.7488 69.2786 20.8313 69.5684 20.0586L73.818 20.4449C73.9629 21.121 74.1078 21.942 74.1078 22.7629Z" fill="white"/>
<path d="M74.446 21.2621H69.5686C69.1339 21.2621 68.7959 20.9241 68.7959 20.4895C68.7959 20.0548 69.1339 19.7168 69.5686 19.7168H74.446C74.8807 19.7168 75.2187 20.0548 75.2187 20.4895C75.2187 20.9241 74.8324 21.2621 74.446 21.2621Z" fill="#F1F5F8"/>
<path d="M13.3076 99.002V169.976L87.1538 212.643L87.2905 141.532L13.3076 99.002Z" fill="#FAB1A5"/>
<path d="M13.3076 94.2148V117.326L87.1538 159.993L87.2905 136.745L13.3076 94.2148Z" fill="#DA6668"/>
<path d="M87.1538 212.641V141.53L148.692 105.975V177.086L87.1538 212.641Z" fill="#DD9184" stroke="url(#paint1_radial_5264_85605)" stroke-width="0.394093"/>
<path d="M148.692 101.324V124.435L87.2906 159.991L87.1538 136.743L148.692 101.324Z" fill="#DA6668"/>
<path d="M87.1538 127.307V155.752L161 113.085V84.7773L87.1538 127.307Z" fill="#DD9184" stroke="url(#paint2_radial_5264_85605)" stroke-width="0.394093"/>
<path d="M1 106.11V77.666L87.1538 127.307V155.751L1 106.11Z" fill="#FAB1A5"/>
<path d="M37.9229 141.531V155.753L62.5382 169.976V155.753L37.9229 141.531Z" fill="#FFCBC2"/>
<path d="M42.7092 144.403L37.9229 141.531V155.753L62.5382 169.976V164.506L42.7092 153.018V144.403Z" fill="#DA6668"/>
<defs>
<filter id="filter0_d_5264_85605" x="38.7489" y="56.9609" width="40.6828" height="76.6935" filterUnits="userSpaceOnUse" color-interpolation-filters="sRGB">
<feFlood flood-opacity="0" result="BackgroundImageFix"/>
<feColorMatrix in="SourceAlpha" type="matrix" values="0 0 0 0 0 0 0 0 0 0 0 0 0 0 0 0 0 0 127 0" result="hardAlpha"/>
<feOffset dy="4.18075"/>
<feGaussianBlur stdDeviation="2.09037"/>
<feComposite in2="hardAlpha" operator="out"/>
<feColorMatrix type="matrix" values="0 0 0 0 0 0 0 0 0 0 0 0 0 0 0 0 0 0 0.25 0"/>
<feBlend mode="normal" in2="BackgroundImageFix" result="effect1_dropShadow_5264_85605"/>
<feBlend mode="normal" in="SourceGraphic" in2="effect1_dropShadow_5264_85605" result="shape"/>
</filter>
<radialGradient id="paint0_radial_5264_85605" cx="0" cy="0" r="1" gradientUnits="userSpaceOnUse" gradientTransform="translate(-153.092 64.9904) rotate(64.4875) scale(72.1845 84.4124)">
<stop stop-color="white" stop-opacity="0.973411"/>
<stop offset="1" stop-color="white" stop-opacity="0"/>
</radialGradient>
<radialGradient id="paint1_radial_5264_85605" cx="0" cy="0" r="1" gradientUnits="userSpaceOnUse" gradientTransform="translate(27.8876 140.63) rotate(80.9742) scale(76.2235 35.5287)">
<stop stop-color="white" stop-opacity="0.973411"/>
<stop offset="1" stop-color="white" stop-opacity="0"/>
</radialGradient>
<radialGradient id="paint2_radial_5264_85605" cx="0" cy="0" r="1" gradientUnits="userSpaceOnUse" gradientTransform="translate(16.0343 107.837) rotate(74.0144) scale(52.1048 41.4996)">
<stop stop-color="white" stop-opacity="0.973411"/>
<stop offset="1" stop-color="white" stop-opacity="0"/>
</radialGradient>
</defs>
</svg>
