<svg width="91" height="77" viewBox="0 0 91 77" fill="none" xmlns="http://www.w3.org/2000/svg">
<g clip-path="url(#clip0_3339_97646)">
<path fill-rule="evenodd" clip-rule="evenodd" d="M91 5.22461H0V74.9683C0 75.5578 0.478639 76.0365 1.06818 76.0365H89.937C90.5214 76.0365 91 75.5578 91 74.9683C91 51.7221 91 28.4758 91 5.22461Z" fill="#8EDEF4"/>
<path fill-rule="evenodd" clip-rule="evenodd" d="M91 5.22461H85.6696V74.9683C85.6696 75.5578 85.1911 76.0365 84.6016 76.0365H89.937C90.5214 76.0365 91 75.5578 91 74.9683C91 51.7221 91 28.4758 91 5.22461Z" fill="#77C2D7"/>
<path fill-rule="evenodd" clip-rule="evenodd" d="M1.06818 0H89.937C90.5214 0 91 0.478638 91 1.06801V10.4492H0C0 7.3255 0 4.19684 0 1.06801C0 0.478638 0.478639 0 1.06818 0Z" fill="#035970"/>
<path fill-rule="evenodd" clip-rule="evenodd" d="M84.6016 0H89.937C90.5214 0 91 0.478638 91 1.06801V10.4492H85.6696C85.6696 7.3255 85.6696 4.19684 85.6696 1.06801C85.6696 0.478638 85.1909 0 84.6016 0Z" fill="#035970"/>
<path d="M76.6915 3.89453C77.4271 3.89453 78.0215 4.48905 78.0215 5.22469C78.0215 5.96016 77.4269 6.55984 76.6915 6.55984H73.4116C72.6759 6.55984 72.0764 5.96034 72.0764 5.22469C72.0764 4.48905 72.6759 3.89453 73.4116 3.89453H76.6915Z" fill="#B3E59F"/>
<path d="M68.0814 3.89453C68.817 3.89453 69.4113 4.48905 69.4113 5.22469C69.4113 5.96016 68.8168 6.55984 68.0814 6.55984H64.8014C64.0658 6.55984 63.4663 5.96034 63.4663 5.22469C63.4663 4.48905 64.0658 3.89453 64.8014 3.89453H68.0814Z" fill="#FAB1A5"/>
<path d="M85.3018 3.89453C86.0373 3.89453 86.637 4.48905 86.637 5.22469C86.637 5.96016 86.0373 6.55984 85.3018 6.55984H82.0218C81.2861 6.55984 80.6918 5.96034 80.6918 5.22469C80.6918 4.48905 81.2863 3.89453 82.0218 3.89453H85.3018Z" fill="#F2385A"/>
<path fill-rule="evenodd" clip-rule="evenodd" d="M71.0942 76.0364V21.4778C71.0942 19.5231 69.4971 17.9258 67.5422 17.9258H35.0509L27.9471 27.0249L19.906 33.0656V76.0364H71.0942Z" fill="white"/>
<path d="M32.97 47.0874C32.97 46.3517 33.5695 45.7522 34.3051 45.7522C35.0408 45.7522 35.6351 46.3517 35.6351 47.0874V62.8721C35.6351 63.6078 35.0406 64.2021 34.3051 64.2021C33.5695 64.2021 32.97 63.6076 32.97 62.8721V47.0874ZM37.6103 67.5073C36.8746 67.5073 36.2751 66.9128 36.2751 66.1773C36.2751 65.4418 36.8746 64.8422 37.6103 64.8422H53.395C54.1307 64.8422 54.725 65.4418 54.725 66.1773C54.725 66.9129 54.1305 67.5073 53.395 67.5073H37.6103ZM58.0302 62.8721C58.0302 63.6078 57.4355 64.2021 56.7 64.2021C55.9645 64.2021 55.3649 63.6076 55.3649 62.8721V47.0874C55.3649 46.3517 55.9645 45.7522 56.7 45.7522C57.4356 45.7522 58.0302 46.3517 58.0302 47.0874V62.8721ZM53.395 42.4473C54.1307 42.4473 54.725 43.0469 54.725 43.7824C54.725 44.518 54.1305 45.1124 53.395 45.1124H37.6103C36.8746 45.1124 36.2751 44.5179 36.2751 43.7824C36.2751 43.0469 36.8746 42.4473 37.6103 42.4473H53.395Z" fill="#035970"/>
<path fill-rule="evenodd" clip-rule="evenodd" d="M35.0509 17.9258L19.906 33.0655H31.4938C33.4487 33.0655 35.0508 31.4684 35.0508 29.5137V17.9258H35.0509Z" fill="#F2385A"/>
<path fill-rule="evenodd" clip-rule="evenodd" d="M32.0633 40.4766H36.5424C37.1317 40.4766 37.6104 40.9552 37.6104 41.5398V46.0187C37.6104 46.608 37.1317 47.0867 36.5424 47.0867H32.0633C31.4789 47.0867 31.0002 46.608 31.0002 46.0187V41.5398C31.0002 40.9552 31.4789 40.4766 32.0633 40.4766Z" fill="#67A4BA"/>
<path fill-rule="evenodd" clip-rule="evenodd" d="M54.4581 40.4766H58.9368C59.5262 40.4766 60.005 40.9552 60.005 41.5398V46.0187C60.005 46.608 59.5264 47.0867 58.9368 47.0867H54.4581C53.8735 47.0867 53.3949 46.608 53.3949 46.0187V41.5398C53.3951 40.9552 53.8735 40.4766 54.4581 40.4766Z" fill="#67A4BA"/>
<path fill-rule="evenodd" clip-rule="evenodd" d="M32.0633 62.8711H36.5424C37.1317 62.8711 37.6104 63.3497 37.6104 63.9341V68.413C37.6104 69.0024 37.1317 69.481 36.5424 69.481H32.0633C31.4789 69.481 31.0002 69.0024 31.0002 68.413V63.9341C31.0002 63.3496 31.4789 62.8711 32.0633 62.8711Z" fill="#67A4BA"/>
<path fill-rule="evenodd" clip-rule="evenodd" d="M54.4581 62.8711H58.9368C59.5262 62.8711 60.005 63.3497 60.005 63.9341V68.413C60.005 69.0024 59.5264 69.481 58.9368 69.481H54.4581C53.8735 69.481 53.3949 69.0024 53.3949 68.413V63.9341C53.3951 63.3496 53.8735 62.8711 54.4581 62.8711Z" fill="#67A4BA"/>
<path d="M60.0049 25.8164C60.7354 25.8164 61.3299 26.4109 61.3299 27.1466C61.3299 27.8771 60.7354 28.4716 60.0049 28.4716H41.8927C41.162 28.4716 40.5675 27.8771 40.5675 27.1466C40.5675 26.4109 41.162 25.8164 41.8927 25.8164H60.0049ZM55.5411 31.7414C56.2767 31.7414 56.8713 32.3359 56.8713 33.0664C56.8713 33.802 56.2766 34.3965 55.5411 34.3965H41.8927C41.162 34.3965 40.5675 33.8018 40.5675 33.0664C40.5675 32.3359 41.162 31.7414 41.8927 31.7414H55.5411Z" fill="#48687F"/>
<path fill-rule="evenodd" clip-rule="evenodd" d="M65.7637 21.4778V76.0364H71.0941V21.4778C71.0941 19.5231 69.497 17.9258 67.5421 17.9258H62.2067C64.1614 17.9258 65.7637 19.5229 65.7637 21.4778Z" fill="#FFECEF"/>
</g>
<rect x="0.25" y="0.25" width="90.5" height="75.5365" rx="4.75" stroke="#8EDEF4" stroke-width="0.5"/>
<defs>
<clipPath id="clip0_3339_97646">
<rect width="91" height="76.0365" rx="5" fill="white"/>
</clipPath>
</defs>
</svg>
