<svg xmlns="http://www.w3.org/2000/svg" width="96" height="96" viewBox="0 0 96 96">
    <g fill="none" fill-rule="evenodd">
        <g fill="#3C80EF" fill-rule="nonzero">
            <g>
                <g transform="translate(-672 -263) translate(408 206) translate(264 57)">
                    <circle cx="48" cy="48" r="48" opacity=".097"/>
                    <g>
                        <path d="M60 52.944c1.325 0 2.4 1.042 2.4 2.328 0 1.194-.926 2.178-2.12 2.312L60 57.6H2.4c-1.325 0-2.4-1.042-2.4-2.328 0-1.194.926-2.178 2.12-2.313l.28-.015H60z" transform="translate(16.8 16.8)"/>
                        <path d="M31.54 5.293c1.464-.477 2.976.489 3.149 1.931l.016.276v38.172c0 1.286-1.074 2.328-2.4 2.328-1.23 0-2.245-.899-2.384-2.056l-.016-.272-.002-34.933-19.296 6.296v35.909c0 1.194-.926 2.178-2.12 2.312l-.28.016c-1.23 0-2.245-.899-2.383-2.057l-.017-.271V15.363c0-.9.533-1.71 1.352-2.095l.283-.112L31.54 5.293zM37.163 21.524c.512-1.086 1.777-1.606 2.92-1.247l.26.099 12.502 5.55c.759.336 1.276 1.027 1.381 1.816l.02.3V45.68c0 1.285-1.074 2.328-2.4 2.328-1.23 0-2.245-.899-2.384-2.057l-.016-.271-.002-16.144-11.098-4.926c-1.119-.497-1.656-1.724-1.285-2.833l.102-.253z" transform="translate(16.8 16.8)"/>
                        <path d="M20.256 0c1.231 0 2.246.899 2.384 2.057l.016.271v6.984c0 1.286-1.074 2.328-2.4 2.328-1.23 0-2.245-.898-2.384-2.056l-.016-.272V2.328c0-1.286 1.075-2.328 2.4-2.328zM43.931 31.758c1.325 0 2.4 1.042 2.4 2.328 0 1.194-.927 2.178-2.12 2.313l-.28.015h-4.586c-1.325 0-2.4-1.042-2.4-2.328 0-1.194.927-2.178 2.12-2.312l.28-.016h4.586zM43.931 41.07c1.325 0 2.4 1.043 2.4 2.329 0 1.194-.927 2.178-2.12 2.312l-.28.016h-4.586c-1.325 0-2.4-1.043-2.4-2.328 0-1.194.927-2.178 2.12-2.313l.28-.016h4.586zM15.484 22.324c1.325 0 2.4 1.042 2.4 2.328 0 1.286-1.075 2.328-2.4 2.328s-2.4-1.042-2.4-2.328c0-1.286 1.075-2.328 2.4-2.328zM15.484 31.636c1.325 0 2.4 1.043 2.4 2.329 0 1.285-1.075 2.328-2.4 2.328s-2.4-1.043-2.4-2.328c0-1.286 1.075-2.329 2.4-2.329zM15.484 40.949c1.325 0 2.4 1.042 2.4 2.328 0 1.286-1.075 2.328-2.4 2.328s-2.4-1.042-2.4-2.328c0-1.286 1.075-2.328 2.4-2.328zM25.084 22.324c1.325 0 2.4 1.042 2.4 2.328 0 1.286-1.075 2.328-2.4 2.328s-2.4-1.042-2.4-2.328c0-1.286 1.075-2.328 2.4-2.328zM25.084 31.636c1.325 0 2.4 1.043 2.4 2.329 0 1.285-1.075 2.328-2.4 2.328s-2.4-1.043-2.4-2.328c0-1.286 1.075-2.329 2.4-2.329zM25.084 40.949c1.325 0 2.4 1.042 2.4 2.328 0 1.286-1.075 2.328-2.4 2.328s-2.4-1.042-2.4-2.328c0-1.286 1.075-2.328 2.4-2.328z" transform="translate(16.8 16.8)"/>
                    </g>
                </g>
            </g>
        </g>
    </g>
</svg>
