<?xml version="1.0" encoding="UTF-8"?>
<svg width="379px" height="233px" viewBox="0 0 379 233" version="1.1" xmlns="http://www.w3.org/2000/svg" xmlns:xlink="http://www.w3.org/1999/xlink">
    <!-- Generator: Sketch 57.1 (83088) - https://sketch.com -->
    <title>Illustration/New-feature</title>
    <desc>Created with Sketch.</desc>
    <defs>
        <polygon id="path-1" points="0 0 194.85319 0 194.85319 66 0 66"></polygon>
        <linearGradient x1="61.9382024%" y1="40.5071204%" x2="65.7816684%" y2="96.6731239%" id="linearGradient-3">
            <stop stop-color="#E5EDFF" offset="0%"></stop>
            <stop stop-color="#6B9AD9" offset="100%"></stop>
        </linearGradient>
        <linearGradient x1="53.3581025%" y1="-42.8112631%" x2="53.3581025%" y2="176.490667%" id="linearGradient-4">
            <stop stop-color="#E5EDFF" offset="0%"></stop>
            <stop stop-color="#6B9AD9" offset="100%"></stop>
        </linearGradient>
        <linearGradient x1="50.872623%" y1="65.4419193%" x2="50%" y2="45.6186929%" id="linearGradient-5">
            <stop stop-color="#63B0FF" stop-opacity="0.2" offset="0%"></stop>
            <stop stop-color="#A2B3F0" stop-opacity="0" offset="100%"></stop>
        </linearGradient>
        <linearGradient x1="50.872623%" y1="70.8659388%" x2="50%" y2="44.0797459%" id="linearGradient-6">
            <stop stop-color="#63B0FF" stop-opacity="0.2" offset="0%"></stop>
            <stop stop-color="#A2B3F0" stop-opacity="0" offset="100%"></stop>
        </linearGradient>
        <filter x="-126.3%" y="-126.3%" width="352.6%" height="352.6%" filterUnits="objectBoundingBox" id="filter-7">
            <feOffset dx="0" dy="8" in="SourceAlpha" result="shadowOffsetOuter1"></feOffset>
            <feGaussianBlur stdDeviation="8" in="shadowOffsetOuter1" result="shadowBlurOuter1"></feGaussianBlur>
            <feColorMatrix values="0 0 0 0 0.735678262   0 0 0 0 0.798360243   0 0 0 0 0.904919611  0 0 0 0.843504152 0" type="matrix" in="shadowBlurOuter1" result="shadowMatrixOuter1"></feColorMatrix>
            <feMerge>
                <feMergeNode in="shadowMatrixOuter1"></feMergeNode>
                <feMergeNode in="SourceGraphic"></feMergeNode>
            </feMerge>
        </filter>
        <filter x="-118.1%" y="-118.1%" width="336.1%" height="333.3%" filterUnits="objectBoundingBox" id="filter-8">
            <feOffset dx="0" dy="6" in="SourceAlpha" result="shadowOffsetOuter1"></feOffset>
            <feGaussianBlur stdDeviation="6.5" in="shadowOffsetOuter1" result="shadowBlurOuter1"></feGaussianBlur>
            <feColorMatrix values="0 0 0 0 0.835027803   0 0 0 0 0.874186101   0 0 0 0 0.940755208  0 0 0 0.843504152 0" type="matrix" in="shadowBlurOuter1" result="shadowMatrixOuter1"></feColorMatrix>
            <feMerge>
                <feMergeNode in="shadowMatrixOuter1"></feMergeNode>
                <feMergeNode in="SourceGraphic"></feMergeNode>
            </feMerge>
        </filter>
        <filter x="-84.3%" y="-84.3%" width="268.5%" height="268.5%" filterUnits="objectBoundingBox" id="filter-9">
            <feOffset dx="0" dy="7" in="SourceAlpha" result="shadowOffsetOuter1"></feOffset>
            <feGaussianBlur stdDeviation="7" in="shadowOffsetOuter1" result="shadowBlurOuter1"></feGaussianBlur>
            <feColorMatrix values="0 0 0 0 0.735678262   0 0 0 0 0.798360243   0 0 0 0 0.904919611  0 0 0 0.843504152 0" type="matrix" in="shadowBlurOuter1" result="shadowMatrixOuter1"></feColorMatrix>
            <feMerge>
                <feMergeNode in="shadowMatrixOuter1"></feMergeNode>
                <feMergeNode in="SourceGraphic"></feMergeNode>
            </feMerge>
        </filter>
        <linearGradient x1="22.5714632%" y1="18.0171996%" x2="91.2124516%" y2="91.9089147%" id="linearGradient-10">
            <stop stop-color="#EF1A1B" offset="0%"></stop>
            <stop stop-color="#D13043" offset="42.1316964%"></stop>
            <stop stop-color="#9F041B" offset="100%"></stop>
        </linearGradient>
        <rect id="path-11" x="0" y="0" width="53.7962264" height="53.7962264" rx="14.7348837"></rect>
        <linearGradient x1="38.2476935%" y1="32.1287975%" x2="79.9866489%" y2="79.4859284%" id="linearGradient-13">
            <stop stop-color="#FD8378" offset="0%"></stop>
            <stop stop-color="#DB324B" offset="100%"></stop>
        </linearGradient>
        <linearGradient x1="12.2457757%" y1="18.691499%" x2="30.8320039%" y2="50%" id="linearGradient-14">
            <stop stop-color="#F7B8C4" offset="0%"></stop>
            <stop stop-color="#F0022D" offset="100%"></stop>
        </linearGradient>
        <filter x="-30.9%" y="-35.0%" width="161.8%" height="170.0%" filterUnits="objectBoundingBox" id="filter-15">
            <feOffset dx="2" dy="3" in="SourceAlpha" result="shadowOffsetOuter1"></feOffset>
            <feGaussianBlur stdDeviation="1" in="shadowOffsetOuter1" result="shadowBlurOuter1"></feGaussianBlur>
            <feColorMatrix values="0 0 0 0 0.676046981   0 0 0 0 0.0115368655   0 0 0 0 0.0993023525  0 0 0 0.24793365 0" type="matrix" in="shadowBlurOuter1" result="shadowMatrixOuter1"></feColorMatrix>
            <feMerge>
                <feMergeNode in="shadowMatrixOuter1"></feMergeNode>
                <feMergeNode in="SourceGraphic"></feMergeNode>
            </feMerge>
        </filter>
        <filter x="-119.3%" y="-103.4%" width="340.9%" height="311.4%" filterUnits="objectBoundingBox" id="filter-16">
            <feOffset dx="0" dy="7" in="SourceAlpha" result="shadowOffsetOuter1"></feOffset>
            <feGaussianBlur stdDeviation="7" in="shadowOffsetOuter1" result="shadowBlurOuter1"></feGaussianBlur>
            <feColorMatrix values="0 0 0 0 0.735678262   0 0 0 0 0.798360243   0 0 0 0 0.904919611  0 0 0 0.843504152 0" type="matrix" in="shadowBlurOuter1" result="shadowMatrixOuter1"></feColorMatrix>
            <feMerge>
                <feMergeNode in="shadowMatrixOuter1"></feMergeNode>
                <feMergeNode in="SourceGraphic"></feMergeNode>
            </feMerge>
        </filter>
        <filter x="-67.6%" y="-109.5%" width="235.3%" height="319.0%" filterUnits="objectBoundingBox" id="filter-17">
            <feOffset dx="0" dy="4" in="SourceAlpha" result="shadowOffsetOuter1"></feOffset>
            <feGaussianBlur stdDeviation="4" in="shadowOffsetOuter1" result="shadowBlurOuter1"></feGaussianBlur>
            <feColorMatrix values="0 0 0 0 0.452316918   0 0 0 0 0.646673212   0 0 0 0 0.938207654  0 0 0 0.20427229 0" type="matrix" in="shadowBlurOuter1" result="shadowMatrixOuter1"></feColorMatrix>
            <feMerge>
                <feMergeNode in="shadowMatrixOuter1"></feMergeNode>
                <feMergeNode in="SourceGraphic"></feMergeNode>
            </feMerge>
        </filter>
    </defs>
    <g id="Illustration/New-feature" stroke="none" stroke-width="1" fill="none" fill-rule="evenodd">
        <g>
            <g id="Group-28" transform="translate(90.000000, 167.000000)">
                <g id="Group-3">
                    <mask id="mask-2" fill="white">
                        <use xlink:href="#path-1"></use>
                    </mask>
                    <g id="Clip-2"></g>
                    <path d="M176.064491,59.2881356 L18.7891466,59.2881356 C15.1144052,59.2881356 12.8158707,55.7521017 14.6504397,52.9219322 L37.4060431,11.0745763 C38.2588879,9.76016949 39.836819,8.94915254 41.54475,8.94915254 L154.106819,8.94915254 C155.836043,8.94915254 157.430784,9.78030508 158.274664,11.122678 L180.233457,52.9689153 C182.014233,55.7990847 179.712336,59.2881356 176.064491,59.2881356 M78.5992328,3.88728814 L153.095957,3.88728814 C153.567767,3.88728814 153.951043,4.26762712 153.951043,4.73969492 C153.951043,5.21064407 153.567767,5.59322034 153.095957,5.59322034 L78.5992328,5.59322034 C78.1274224,5.59322034 77.7441466,5.21064407 77.7441466,4.73969492 C77.7441466,4.26762712 78.1274224,3.88728814 78.5992328,3.88728814 M194.135612,57.7142034 L163.392853,2.85030508 C162.406647,1.09067797 160.54406,0 158.524578,0 L37.2614741,0 C35.2666466,0 33.4242328,1.06271186 32.4279397,2.78766102 L0.752767241,57.6515593 C-1.38999138,61.3632203 1.29406034,66 5.58630172,66 L189.267336,66 C193.528198,66 196.215612,61.4258644 194.135612,57.7142034" id="Fill-1" fill="url(#linearGradient-3)" mask="url(#mask-2)"></path>
                </g>
                <path d="M60.0294052,19.9421797 C61.3276619,19.9421797 62.2757038,21.138205 62.0099066,22.3805255 L61.9738017,22.5240102 L52.7079397,54.4736034 C52.4727267,55.2874499 51.7560437,55.8614962 50.9213436,55.926215 L50.7635431,55.9323153 L25.1210431,55.9323153 C23.6834598,55.9323153 22.7213153,54.4887411 23.2327522,53.1819633 L23.2909569,53.0473322 L38.4527672,21.0966203 C38.7639187,20.4411748 39.39975,20.0075747 40.1153018,19.9489759 L40.2817328,19.9421797 L60.0294052,19.9421797 Z M70.9825776,41.3898305 L109.031112,41.3898305 C110.41609,41.3898305 111.568311,42.1676793 111.731598,43.1839558 L111.747664,43.3239661 L112.481716,53.7832881 C112.560379,54.9062347 111.416397,55.8564616 109.94344,55.9278948 L109.765164,55.9322034 L68.0486121,55.9322034 C66.3800984,55.9322034 65.1190307,54.8205505 65.3548136,53.601091 L65.3858534,53.4700678 L68.319819,43.0107458 C68.5721422,42.1127542 69.587078,41.4580706 70.7909981,41.3948472 L70.9825776,41.3898305 L109.031112,41.3898305 Z M166.486853,41.3893831 C167.382284,41.3893831 168.193664,41.7451119 168.557888,42.2954847 L168.557888,42.2954847 L173.909181,53.7873153 C174.575991,54.7963322 173.478836,55.9317559 171.838147,55.9317559 L171.838147,55.9317559 L123.203578,55.9317559 C122.096336,55.9317559 121.150474,55.3936881 120.967802,54.658739 L120.967802,54.658739 L119.240819,43.1646712 C119.011078,42.235078 120.075733,41.3893831 121.476595,41.3893831 L121.476595,41.3893831 Z M156.007733,20.1355932 C156.75456,20.1355932 157.441837,20.5283019 157.819904,21.1609235 L157.896095,21.3001017 L164.751353,34.9833559 C165.430274,36.3398021 164.496032,37.9277761 163.013077,38.0288146 L162.862991,38.0338983 L71.4830776,38.0338983 C70.1599997,38.0338983 69.1767444,36.8389102 69.4029405,35.5627042 L69.4344569,35.4151525 L72.8615259,21.7318983 C73.0830269,20.8485643 73.8435757,20.2139486 74.7404778,20.1423445 L74.9101466,20.1355932 L156.007733,20.1355932 Z M63.2546379,12.3050847 C64.7128046,12.3050847 65.6777296,13.7852447 65.1310242,15.1005244 L65.0690345,15.2359322 L64.8572241,15.6598983 C64.5377475,16.2966465 63.9090521,16.716372 63.2053296,16.7730841 L63.0417069,16.779661 L42.9230862,16.779661 C41.4660029,16.779661 40.5000668,15.299501 41.0467035,13.9842214 L41.1086897,13.8488136 L41.3216207,13.4248475 C41.6400567,12.7880993 42.2686778,12.3683737 42.9723949,12.3116617 L43.1360172,12.3050847 L63.2546379,12.3050847 Z M152.575509,12.3051966 C153.335336,12.3051966 153.950595,12.9204508 153.950595,13.6777729 C153.950595,14.3915994 153.405591,14.9785895 152.707999,15.0451772 L152.575509,15.0514678 L139.637147,15.0514678 C138.877319,15.0514678 138.26094,14.4362136 138.26094,13.6777729 C138.26094,12.9649992 138.806937,12.378071 139.504645,12.311487 L139.637147,12.3051966 L152.575509,12.3051966 Z M133.523784,12.3051966 C134.283612,12.3051966 134.898871,12.9204508 134.898871,13.6777729 C134.898871,14.3915994 134.353867,14.9785895 133.656275,15.0451772 L133.523784,15.0514678 L120.585422,15.0514678 C119.825595,15.0514678 119.209216,14.4362136 119.209216,13.6777729 C119.209216,12.9649992 119.755212,12.378071 120.452921,12.311487 L120.585422,12.3051966 L133.523784,12.3051966 Z M114.47206,12.3051966 C115.231888,12.3051966 115.847147,12.9204508 115.847147,13.6777729 C115.847147,14.3915994 115.302142,14.9785895 114.604551,15.0451772 L114.47206,15.0514678 L101.533698,15.0514678 C100.773871,15.0514678 100.157491,14.4362136 100.157491,13.6777729 C100.157491,12.9649992 100.703488,12.378071 101.401196,12.311487 L101.533698,12.3051966 L114.47206,12.3051966 Z M95.4203362,12.3051966 C96.1801638,12.3051966 96.7954224,12.9204508 96.7954224,13.6777729 C96.7954224,14.3915994 96.2504182,14.9785895 95.5528269,15.0451772 L95.4203362,15.0514678 L82.4819741,15.0514678 C81.7221466,15.0514678 81.1057672,14.4362136 81.1057672,13.6777729 C81.1057672,12.9649992 81.6517641,12.378071 82.3494723,12.311487 L82.4819741,12.3051966 L95.4203362,12.3051966 Z" id="Combined-Shape" fill="url(#linearGradient-4)"></path>
                <path d="M47.2574655,6.12412881 L44.3515172,6.12412881 C43.6073793,6.12412881 43.0033276,5.52117966 43.0033276,4.77728136 L43.0033276,4.7023322 C43.0033276,3.9584339 43.6073793,3.35548475 44.3515172,3.35548475 L47.2574655,3.35548475 C48.0027241,3.35548475 48.6067759,3.9584339 48.6067759,4.7023322 L48.6067759,4.77728136 C48.6067759,5.52117966 48.0027241,6.12412881 47.2574655,6.12412881" id="Fill-22" fill="#D0021B"></path>
                <path d="M55.1022931,6.12412881 L52.1963448,6.12412881 C51.4522069,6.12412881 50.8481552,5.52117966 50.8481552,4.77728136 L50.8481552,4.7023322 C50.8481552,3.9584339 51.4522069,3.35548475 52.1963448,3.35548475 L55.1022931,3.35548475 C55.8475517,3.35548475 56.4516034,3.9584339 56.4516034,4.7023322 L56.4516034,4.77728136 C56.4516034,5.52117966 55.8475517,6.12412881 55.1022931,6.12412881" id="Fill-24" fill="#F5A623"></path>
                <path d="M62.9471207,6.12412881 L60.0411724,6.12412881 C59.2970345,6.12412881 58.6929828,5.52117966 58.6929828,4.77728136 L58.6929828,4.7023322 C58.6929828,3.9584339 59.2970345,3.35548475 60.0411724,3.35548475 L62.9471207,3.35548475 C63.6923793,3.35548475 64.296431,3.9584339 64.296431,4.7023322 L64.296431,4.77728136 C64.296431,5.52117966 63.6923793,6.12412881 62.9471207,6.12412881" id="Fill-26" fill="#7ED321"></path>
            </g>
            <polygon id="Path-2" fill="url(#linearGradient-5)" points="91.9467456 233 279.204142 233 379 90 -1.19959598e-13 90"></polygon>
            <polygon id="Path-2" fill="url(#linearGradient-5)" opacity="0" points="91.9467456 233 279.204142 233 379 90 -1.19959598e-13 90"></polygon>
            <polygon id="Path-2-Copy" fill="url(#linearGradient-6)" opacity="0.5" points="122.373806 167 250.990961 167 333 42 48 42"></polygon>
            <g id="Illustration/Guide/Move-File" filter="url(#filter-7)" transform="translate(220.000000, 13.000000)">
                <g transform="translate(-0.000000, 0.000000)">
                    <rect id="Rectangle-Copy-2" fill="#FFFFFF" fill-rule="nonzero" x="0" y="0" width="37.4571429" height="37.4571429" rx="2.4"></rect>
                    <g id="Icons/24/Doc" transform="translate(8.142857, 8.142857)" fill="#3C80EF">
                        <g transform="translate(1.833333, 0.000000)">
                            <path d="M3.66666667,13.75 L8.25,13.75 L8.25,15.5833333 L3.66666667,15.5833333 L3.66666667,13.75 Z M3.66666667,9.16666667 L14.6666667,9.16666667 L14.6666667,11 L3.66666667,11 L3.66666667,9.16666667 Z M3.66666667,4.58333333 L14.6666667,4.58333333 L14.6666667,6.41666667 L3.66666667,6.41666667 L3.66666667,4.58333333 Z M0.916666667,22 L11,22 L11,15.5833333 C11,15.0773333 11.4106667,14.6666667 11.9166667,14.6666667 L18.3333333,14.6666667 L18.3333333,0.916666667 C18.3333333,0.410666667 17.9226667,0 17.4166667,0 L0.916666667,0 C0.410666667,0 0,0.410666667 0,0.916666667 L0,21.0833333 C0,21.5893333 0.410666667,22 0.916666667,22 L0.916666667,22 Z" id="Fill-1472" fill-rule="nonzero" transform="translate(9.166667, 11.000000) rotate(-180.000000) translate(-9.166667, -11.000000) "></path>
                            <polygon id="Fill-1473" fill-rule="nonzero" transform="translate(3.208333, 3.208333) rotate(-180.000000) translate(-3.208333, -3.208333) " points="5.5 0.916666667 0.916666667 0.916666667 0.916666667 5.5"></polygon>
                        </g>
                    </g>
                </g>
            </g>
            <g id="Illustration/Guide/Google-Drive" filter="url(#filter-8)" transform="translate(139.000000, 0.000000)" fill-rule="nonzero">
                <g>
                    <rect id="Rectangle-Copy" fill="#FFFFFF" x="0" y="0" width="35.4857143" height="35.4857143" rx="3.2"></rect>
                    <g id="Icons/16/Sync-16-Grey" transform="translate(7.714286, 7.200000)" fill="#3C80EF">
                        <path d="M11.2875,12.25 L11.2875,15.75 L9.7125,15.75 L9.7125,12.25 L6.5625,12.25 L10.5,7.875 L14.4375,12.25 L11.2875,12.25 Z M17.388,9.94689706 C16.790375,6.52351103 13.70775,3.9375 10.0625,3.9375 C6.2965,3.9375 3.171,6.65175 2.695875,10.2186618 C1.080625,10.8683493 0,12.3987243 0,14.1286765 C0,16.4700993 1.962625,18.375 4.375,18.375 L16.625,18.375 C19.037375,18.375 21,16.4700993 21,14.1286765 C21,12.0394853 19.438125,10.2976434 17.388,9.94689706 L17.388,9.94689706 Z" id="Fill-44-Copy-2"></path>
                    </g>
                </g>
            </g>
            <g id="Illustration/Guide/Manip-Thumbnail" filter="url(#filter-9)" transform="translate(235.000000, 98.000000)">
                <g transform="translate(-0.000000, 0.000000)">
                    <rect id="Rectangle-Copy" fill="#FFFFFF" fill-rule="nonzero" x="0" y="0" width="53.2285714" height="53.2285714" rx="3.6"></rect>
                    <g id="Icons/12/Manip-12-Grey" transform="translate(11.571429, 11.571429)" fill="#3C80EF">
                        <g id="Group-6">
                            <path d="M29.0528926,8.30082645 L24.9024793,8.30082645 L24.9024793,23.5190083 C24.9024793,24.2826843 24.2826843,24.9024793 23.5190083,24.9024793 L8.30082645,24.9024793 L8.30082645,29.0528926 C8.30082645,29.8165686 8.92062149,30.4363636 9.68429752,30.4363636 L29.0528926,30.4363636 C29.8165686,30.4363636 30.4363636,29.8165686 30.4363636,29.0528926 L30.4363636,9.68429752 C30.4363636,8.92062149 29.8165686,8.30082645 29.0528926,8.30082645" id="Fill-157" fill-rule="nonzero"></path>
                            <path d="M20.7520661,22.1355372 L1.38347107,22.1355372 C0.61841157,22.1355372 0,21.5171256 0,20.7520661 L0,1.38347107 C0,0.619795041 0.61841157,0 1.38347107,0 L20.7520661,0 C21.5171256,0 22.1355372,0.619795041 22.1355372,1.38347107 L22.1355372,20.7520661 C22.1355372,21.5171256 21.5171256,22.1355372 20.7520661,22.1355372" id="Fill-158" fill-rule="nonzero"></path>
                        </g>
                    </g>
                </g>
            </g>
            <g id="Group" transform="translate(163.000000, 59.000000)">
                <g id="Oval-purple" transform="translate(-0.000000, 0.000000)">
                    <mask id="mask-12" fill="white">
                        <use xlink:href="#path-11"></use>
                    </mask>
                    <use id="Mask" fill="url(#linearGradient-10)" xlink:href="#path-11"></use>
                    <circle fill="url(#linearGradient-13)" opacity="0.562558302" mask="url(#mask-12)" cx="12.7262944" cy="14.3943944" r="17.7305945"></circle>
                    <path d="M39.6718795,60.8741292 C62.9467339,58.1868771 61.5071597,52.3142893 63.9162165,36.6297922 C66.3252732,20.9452951 42.9157869,9.63163349 31.5521056,14.4784753 C20.1884242,19.3253172 25.5389607,28.0202731 15.4275425,36.6297922 C5.31612423,45.2393114 16.397025,63.5613813 39.6718795,60.8741292 Z" id="Oval-blue" fill="url(#linearGradient-14)" opacity="0.550897854" mask="url(#mask-12)"></path>
                </g>
                <g id="Page-1" filter="url(#filter-15)" transform="translate(10.125000, 12.375000)" fill="#FFFFFF">
                    <polygon id="Fill-1" points="17.33057 0 8.79069767 14.7314432 13.0916522 22.3786047 25.9534884 0"></polygon>
                    <polygon id="Fill-2" points="12.9767442 22.3786047 17.4900174 29.8381395 33.4883721 29.8381395 29.1682103 22.3786047"></polygon>
                    <polygon id="Fill-3" points="5.12033818 21.1353488 0 29.8381395 10.4651163 29.8381395 5.20107197 21.1353488"></polygon>
                </g>
            </g>
            <g id="Illustration/Guide/Sign-Thumbnail" filter="url(#filter-16)" transform="translate(95.000000, 87.000000)">
                <g>
                    <rect id="Rectangle" fill="#FFFFFF" fill-rule="nonzero" x="0" y="0" width="44" height="44" rx="4"></rect>
                    <g id="Group-2" filter="url(#filter-17)" transform="translate(5.101449, 12.115942)">
                        <rect id="Rectangle" fill="#3C80EF" x="0" y="0" width="33.7971014" height="20.4057971" rx="4"></rect>
                        <g id="Icons/special/sign-blue" transform="translate(4.463768, 4.826087)">
                            <g id="Group-16">
                                <path d="M16.6701134,2.94526761 C16.6986804,2.9730424 16.7344539,3.02057796 16.7854479,3.06651378 C16.8359087,3.10737609 16.8463147,3.15757788 16.8043859,3.19789163 C16.7851583,3.21017162 16.81371,3.33540948 16.7496132,3.40883048 C16.652668,3.51135173 16.4870858,3.69290074 16.4230043,3.66885868 C16.3965702,3.6613779 16.2932261,3.70301711 16.2168646,3.65974752 C16.1567901,3.62502521 16.1581309,3.58897743 16.1250236,3.56680939 C16.0572094,3.50725281 16.0096891,3.44556323 15.8299682,3.54139592 C15.7378376,3.59211563 15.6037782,3.6831491 15.466245,3.78993633 C15.2194867,3.98001728 14.9420131,4.21949249 14.7900516,4.38422125 C14.684026,4.497956 14.5926876,4.60501751 14.510963,4.70593902 C14.3015779,4.95877604 14.1696362,5.16756659 14.0988507,5.32376339 C14.0440934,5.43723918 14.0277911,5.52615498 14.0352565,5.59718403 C14.0443217,5.6834336 14.080918,5.59238481 14.1853286,5.56089262 C14.2699785,5.53660691 14.347955,5.49763394 14.6766969,5.25789976 C14.8526851,5.12655255 15.1242777,4.92873186 15.4089578,4.70901741 C15.5894863,4.57206345 15.7740218,4.42442923 15.9494767,4.28800851 L16.4034718,3.92225958 L16.4499409,3.87633909 C16.5677133,3.77675835 16.6769384,3.69346462 16.754915,3.65449165 C16.7594553,3.6488849 16.769069,3.64274491 16.779216,3.64167841 C16.8358321,3.59469142 16.9154084,3.57093896 17.030225,3.58964856 C17.1089938,3.60701737 17.1971174,3.56697791 17.2542514,3.62252749 C17.3348789,3.7063851 17.4491469,3.81748426 17.4082692,3.96540808 C17.3732726,4.07167738 17.2627067,4.19101888 17.1700275,4.33412816 C17.0637276,4.4940577 17.0204121,4.86280842 16.9261178,5.08816025 C16.8443779,5.28654483 16.7353658,5.71349604 16.5358381,6.10892442 L16.2155669,6.81968692 C16.1543258,6.95504834 16.0636788,7.12241501 15.9596235,7.29410864 C16.43998,7.28675395 16.9207124,7.29219619 17.400257,7.29152402 C17.6353686,7.28998666 17.8704803,7.2913044 18.1042875,7.3106313 L18.8060354,7.35521496 L20.205618,7.45031212 C21.1271512,7.56737166 22.0467278,7.68640783 22.9565217,7.82235504 L22.939565,7.88143387 C22.0075969,7.83465397 21.0880203,7.75449124 20.1658349,7.70266 L18.7789698,7.67345002 C18.3172249,7.67125378 17.8571105,7.6310626 17.3963439,7.65895484 C16.8270078,7.68165469 16.2565474,7.68483717 15.6891375,7.70812504 L15.750556,7.61747588 C15.4789328,8.01022271 15.2721986,8.38589032 15.0382382,8.69773536 C14.9666606,8.79759038 14.6504577,9.10782036 14.3561638,9.33367481 C14.1710951,9.47623552 13.9683986,9.64629674 13.7528888,9.79205694 C13.3619241,10.0742379 13.1061006,10.1780692 12.3480002,10.3346921 C12.0264955,10.3992609 11.5680214,10.3807643 11.1079629,10.2495841 C10.817722,10.1723691 10.5587297,10.0508333 10.3462064,9.88337707 C10.1336832,9.7159208 9.96255544,9.50307728 9.85311731,9.24271353 C9.73807242,8.97780952 9.73117085,8.71692783 9.75068797,8.56098999 L9.75671745,8.53157522 C8.7482538,8.77402009 7.76793116,9.06894961 6.8319735,9.42341341 C5.24619292,10.0359445 3.74128291,10.7850817 2.55072464,11.7536232 C3.5387804,10.6816388 4.97879829,9.80929263 6.56881806,9.12823886 C6.76969012,9.04500139 6.95947509,8.94726875 7.17078206,8.87567135 L7.79883334,8.65341195 C8.00981423,8.58159492 8.21492547,8.50033407 8.43112381,8.43620389 L9.08558847,8.2508413 L9.74331403,8.06987119 C9.83838082,8.04427904 9.9355281,8.02264329 10.033404,8.00230389 C10.0683634,7.94941868 10.1052847,7.89712607 10.1425215,7.84783554 C10.2771295,7.66441251 10.2595017,7.69191301 10.3620536,7.59393202 C10.4448447,7.50315752 10.5278948,7.4636513 10.6088119,7.40385107 C10.685722,7.35473109 10.6985352,7.37903211 10.6456519,7.46153363 C10.6194768,7.50532114 10.5807475,7.57607591 10.5302714,7.63267667 C10.4294081,7.74672376 10.3830826,7.76452351 10.2882107,7.94582727 L10.4183224,7.92316241 L10.4183224,7.92316241 L11.0969178,7.78260311 C11.3235511,7.73714095 11.5472495,7.68289385 11.7817089,7.65829597 L13.1724871,7.47073714 C13.4030334,7.43384032 13.6384711,7.42132176 13.8732567,7.40419109 L14.5776133,7.35587383 L15.0684964,7.31970542 C15.1346445,7.21079343 15.1970171,7.10862535 15.2521191,7.02354037 C15.5053223,6.60195227 15.6487518,6.35604745 15.8707371,5.78385397 C15.9653056,5.51230735 15.9944212,5.44769258 16.0264773,5.36225055 C16.0700211,5.23969424 16.1079583,5.11259768 16.1199946,4.98309385 C16.1363123,4.79671499 16.1277803,4.71553893 16.1013463,4.70805815 C16.0164375,4.68107557 15.9216407,4.70642777 15.801202,4.78064099 C15.6564624,4.86766744 15.4839479,4.9832609 15.302353,5.11006786 C15.1733671,5.20056808 15.0353006,5.3022818 14.9180615,5.40693603 C14.6835832,5.61624451 14.4584444,5.86560777 14.2648284,6.02445549 C14.0145963,6.2302902 13.9355379,6.35657923 13.838867,6.4129057 C13.7077482,6.4831119 13.3405972,6.45501687 13.2255216,6.38503899 C13.1139199,6.29930735 13.0178282,6.06831813 13.01891,5.98100207 C13.0165334,5.8119767 13.0897261,5.62987913 13.2064473,5.42268832 C13.2844392,5.28625229 13.3816586,5.13753625 13.4924988,4.97199997 L13.5959962,4.81948571 L13.6539022,4.79161153 L13.6539022,4.79161153 L13.7321426,4.74675994 C13.7513701,4.73447994 13.7812779,4.72620696 13.8186664,4.69149996 C13.8696757,4.63997271 13.8154822,4.56359587 13.808809,4.54890861 L13.808809,4.54890861 L13.8029962,4.53848571 L13.842532,4.48836917 C13.9069167,4.40864847 13.9738626,4.32979846 14.0426775,4.25246187 C14.198646,4.07705287 14.3612877,3.91633112 14.5300694,3.76522314 C14.6943109,3.61972191 14.8743061,3.47769444 15.0609746,3.35035424 C15.2855648,3.19338054 15.5178948,3.06124112 15.7291233,2.97235596 C15.8714557,2.91123027 16.0063073,2.87653859 16.1179244,2.86480716 C16.2706627,2.85388326 16.5171314,2.80746016 16.6701134,2.94526761 Z M14.7885335,7.77226207 L14.6454402,7.78326198 L14.6454402,7.78326198 L13.9619534,7.83816796 C13.7340158,7.85573787 13.5047738,7.86847606 13.2820537,7.9055925 L11.93595,8.0929317 C11.3271949,8.19338123 10.7241428,8.31009683 10.1300456,8.44449157 C10.076818,8.73474182 10.0924674,8.98437698 10.1580761,9.11832916 C10.2314818,9.27988907 10.3759165,9.43398353 10.5684201,9.557378 C10.7328899,9.65807119 10.9262009,9.74034438 11.1411468,9.78443682 C11.456222,9.85391209 11.7907989,9.86491259 12.2330013,9.77739884 C12.5590463,9.70722328 12.8340973,9.59111189 13.0568136,9.46511247 C13.5265471,9.20030037 13.785875,8.88578909 13.8814794,8.81931562 C13.985631,8.73655514 14.3728783,8.32139663 14.5822634,8.06855961 C14.6476229,7.98439221 14.7175936,7.88203504 14.7885335,7.77226207 Z M9.7785173,0.838091773 C9.84660584,0.851453581 9.89305958,0.902996149 9.95580033,0.963085985 C10.0230813,1.01756907 10.1071826,1.08567293 10.08634,1.18019548 C10.0681637,1.30008554 10.1114179,1.32118709 9.98055801,1.44266158 C9.9447692,1.49258909 9.84595003,1.62608461 9.74714619,1.66211706 C9.66302961,1.69147627 9.45472635,1.85699724 9.30652825,1.86231438 C9.10706186,1.86789049 8.95648712,1.70418228 8.94394816,1.63368647 C8.94234842,1.61846596 8.8342051,1.61444363 8.7116488,1.57089976 C8.59469925,1.53189615 7.91190922,1.62417848 7.44833103,1.80114126 C7.22508154,1.92206719 6.70811739,1.98153186 6.52304867,2.12409257 C6.33904643,2.2768003 5.95370378,2.4660584 5.78999557,2.61663314 C5.51518819,2.88147587 5.47190329,3.05530046 5.46600693,3.19441805 C5.45450383,3.32899538 5.62083232,3.49617736 5.70440033,3.55920772 C5.89396336,3.70342945 6.44508594,3.77374289 6.6773853,3.8365296 C6.7938016,3.87045971 7.12435624,3.98960352 7.56840199,4.06604164 C7.83514939,4.11494862 7.99241269,4.19588103 8.23886607,4.24692099 C8.5747685,4.31933678 8.63109496,4.41600764 8.96004986,4.51993094 C9.18887546,4.59847141 9.38617823,4.76752742 9.57092671,4.96355068 C9.73164846,5.12619241 9.8050235,5.48267845 9.72115057,5.66076901 C9.63433712,5.85968684 9.56862521,6.0153504 9.3464269,6.24388639 C9.28233005,6.3173074 9.24227527,6.32664688 9.16135817,6.38644711 C9.10420885,6.4283606 9.02248422,6.52928211 8.96132789,6.58187585 C8.55086137,6.92253154 7.98978947,7.29440514 7.47893469,7.55840971 C6.9250846,7.85258101 6.42946564,8.01752277 5.89219217,8.17658349 C5.62862893,8.25558061 5.25398186,8.35138266 5.0683952,8.3914068 C4.73273642,8.46772236 4.3597044,8.48128186 4.06650768,8.52235718 C3.7175024,8.56929821 3.4312532,8.57886601 3.29507613,8.55214239 C3.12792479,8.52354476 2.4278119,8.40220667 2.20779253,8.35864749 C1.84492284,8.27367742 1.56510324,8.14920114 1.50903573,8.10379856 C1.46204874,8.04718249 0.90961603,7.81799069 0.823412424,7.53466669 C0.775907505,7.37551405 0.781803858,7.23639645 0.823747985,7.09861964 C0.858744585,6.99235034 0.938869472,6.87620832 1.01846111,6.7549928 C1.08897224,6.64499077 1.18137712,6.54807627 1.27565603,6.4201875 C1.28473654,6.408974 1.31651834,6.36972675 1.35096637,6.35584701 C1.37126039,6.35371402 1.41692192,6.3489148 1.43480867,6.37268258 C1.44708866,6.3919101 1.42652037,6.44023787 1.42705361,6.44531138 L1.36615625,6.5491734 C1.2222088,6.69254165 1.1872122,6.79881095 1.13859483,6.9219005 C1.02507308,7.15953233 1.11022551,7.33524626 1.21300573,7.48345968 C1.30350594,7.61244558 1.48532923,7.73183304 1.50214949,7.74545382 C1.65593902,7.84213999 1.81855011,7.87634438 2.08423101,7.91510435 C2.28288987,7.95064951 2.51787079,7.94134067 2.61186009,7.95710975 C2.8049122,7.98811466 3.73360704,8.03926186 4.14296111,7.98084836 C4.44123135,7.9392398 4.71440834,7.85410268 4.75446313,7.84476321 C5.04765986,7.80368789 5.53553907,7.61391186 5.94330872,7.44281478 C6.50355777,7.20952552 6.91480119,7.02267469 7.44863154,6.68444159 C7.56960342,6.61530188 7.6967153,6.55577593 7.77443292,6.46553467 C8.04390783,6.1499569 8.68668903,5.77462485 8.76975444,5.63765557 C8.96046055,5.30470898 9.08091451,5.1330327 8.97039456,4.959985 C8.81742787,4.72471448 8.55948671,4.71078879 8.18406274,4.65278598 C7.99608414,4.62124783 7.46740388,4.47163235 7.17475572,4.4203181 C6.90346807,4.37701788 6.63243938,4.38498594 6.42977351,4.36012103 C6.13258509,4.31441354 5.87037795,4.25989981 5.73366763,4.22810269 C5.43995297,4.16664144 5.14997104,4.14069472 5.01834954,4.01090128 C4.89340129,3.89579512 4.75215071,3.86960475 4.72493981,3.70831912 C4.68145722,3.44102316 4.78534989,3.30699439 4.86093452,3.19645912 C4.97818899,2.99434181 5.21347483,2.74391206 5.54008374,2.48388387 C5.66292965,2.38376989 5.74278025,2.31382265 5.89660042,2.21558269 C6.14843223,2.02496849 6.47342608,1.84718285 6.77865916,1.6766037 C7.0884325,1.5004178 7.28844745,1.40245213 7.47590813,1.33145371 C7.63292779,1.26365478 7.78754017,1.22175661 7.99582811,1.15369872 C8.40279023,1.02372292 8.76168355,0.924447106 9.01936575,0.887104514 C9.26690094,0.850828416 9.55342443,0.795065833 9.7785173,0.838091773 Z M12.2957173,3.76923325 C12.2743414,3.85868229 12.1672493,3.96227004 12.0759109,4.06933154 C12.0214278,4.13661255 11.9503835,4.24154107 11.8798723,4.3515431 C11.7917334,4.48904563 11.7092013,4.63108841 11.6563179,4.71358993 C11.5294497,4.92184723 11.4210014,5.15894582 11.3550152,5.36080416 C11.2884958,5.557589 11.2689787,5.71352684 11.3114254,5.77574966 C11.3370519,5.82435171 11.3594789,5.84251274 11.4000669,5.83824677 C11.511684,5.82651534 11.764567,5.74351121 11.8815319,5.68505176 C12.0126508,5.61484555 12.1918385,5.51393936 12.3937274,5.38499942 C12.5090926,5.31131945 12.633005,5.22135248 12.7614576,5.12577875 C12.875223,5.03687827 13.032517,4.92288456 13.1959509,4.8185046 C13.3588516,4.70905115 13.5075982,4.61134444 13.5642143,4.56435744 C13.5879821,4.5464707 13.6771722,4.51657824 13.7431277,4.50964603 C13.7705419,4.51018439 13.7901215,4.52294519 13.8004446,4.53439909 L13.8029962,4.53848571 L13.6577544,4.72950065 L13.6577544,4.72950065 L13.5959962,4.81948571 L13.5662747,4.83408347 C13.5082265,4.86134398 13.4544176,4.88623533 13.425843,4.90719208 C13.2052597,5.05348552 13.0522471,5.1106042 12.8046812,5.34180643 C12.6313593,5.49852116 12.2895299,5.7601491 12.1292954,5.89497008 C11.8042862,6.17021878 11.6216094,6.3843418 11.4637823,6.49326201 C11.4066329,6.53517549 11.2731068,6.63128247 11.239192,6.6502357 C11.1911232,6.68093569 11.0082028,6.74632735 10.862153,6.67447545 C10.8127587,6.64376014 10.7152956,6.64374483 10.6408082,6.56950097 C10.5831409,6.50887789 10.5455087,6.39485353 10.521223,6.31020371 C10.4814578,6.17588534 10.5068866,5.78336684 10.6065286,5.51128698 C10.6861356,5.29260838 10.8309212,4.91319273 10.9190601,4.7756902 C10.9764837,4.68758193 11.1284605,4.42539011 11.1298166,4.29187927 C11.1287654,4.1842692 11.300762,3.96613917 11.3547118,3.89378466 C11.3814201,3.85507065 11.5763769,3.66017516 11.6567607,3.59530142 C11.7750664,3.50079419 11.8869424,3.54033105 11.9518315,3.52325183 C12.1464986,3.47201419 12.3189671,3.64880993 12.2957173,3.76923325 Z M21.5392442,2.48479685 C21.5953117,2.53019942 21.6422987,2.58681549 21.6350769,2.66451779 C21.6331875,2.79295513 21.5952504,2.92005169 21.5559878,2.98573295 C21.4774627,3.11709549 21.3917004,3.42362339 21.3347794,3.71173129 C21.296827,3.93629092 21.2628969,4.05270722 21.259941,4.17099755 C21.2575184,4.29436138 21.2177073,4.45243221 21.223573,4.50824075 C21.2401037,4.66551937 21.2659891,4.76538971 21.3135093,4.82707928 C21.3727763,4.90292288 21.4713059,4.91308521 21.5933443,4.8540925 C21.8521083,4.72943385 22.1116798,4.56365393 22.243073,4.44725294 C22.6706341,4.07402324 22.9286059,3.8930228 23.0637471,3.71467328 C23.1056759,3.67435953 23.3123641,3.59108112 23.3713721,3.61565643 C23.3881924,3.6292772 23.4172773,3.75958856 23.3686752,3.78521504 C23.2605166,3.87865578 23.2012343,3.90027525 23.0444736,4.01934247 L22.4056688,4.5789204 C22.0918731,4.86324962 21.7492362,5.16599883 21.4990041,5.37183354 C21.262926,5.5659215 21.2199307,5.59608824 20.9729288,5.63743784 C20.7005593,5.68145368 20.5102194,5.38342709 20.4931861,5.02614883 C20.492135,4.91853876 20.4860256,4.71399887 20.497803,4.53322675 C20.4978336,4.33830062 20.5478224,3.98423716 20.5745614,3.75059702 C20.5874052,3.57997192 20.5823317,3.58050516 20.5775325,3.53484363 C20.5714078,3.4277668 20.5035936,3.36821021 20.399183,3.39970241 C20.3094597,3.42452136 20.1022229,3.60018933 20.0552206,3.64103633 C19.8575976,3.8105643 19.7862942,3.86422454 19.5857307,4.05457978 C19.4225558,4.21022801 19.2692535,4.41100454 19.1450668,4.5471663 C19.0248871,4.6726478 18.7580785,5.01359309 18.6931741,5.12813537 C18.5724459,5.34600643 18.5759196,5.33025267 18.4973945,5.46161521 C18.4137958,5.59351099 18.2893349,5.77586752 18.2287118,5.83353477 C18.1493944,5.90855551 18.0300223,5.99291573 17.8978522,5.95551186 C17.7499284,5.91463423 17.5830667,5.74237874 17.5833563,5.5987209 C17.5783134,5.40432801 17.6728666,5.23024446 17.7177512,5.07164038 C17.7447338,4.9867316 17.8454423,4.72479874 17.9728438,4.52161494 C18.0428217,4.40653941 18.2586363,4.0196583 18.3601371,3.81406724 C18.4138279,3.69044444 18.558065,3.40341835 18.562072,3.39273809 C18.6269764,3.27819581 18.6451527,3.15830574 18.7202041,3.04269697 C18.7765612,2.94444169 18.8793721,2.89772898 18.9533416,2.86943627 C19.1012808,2.81285083 19.2107649,2.78082539 19.3397355,2.78778824 C19.4174378,2.79501005 19.5354538,2.84416067 19.5616135,2.89783622 C19.5837663,2.96219203 19.5928314,3.0484416 19.5778699,3.10130962 C19.5543611,3.17046465 19.5482058,3.25831396 19.4766281,3.35816897 C19.4499198,3.39688298 19.3073132,3.50420345 19.2755314,3.54345071 C19.1727052,3.68762648 19.0648055,3.8323355 18.9812069,3.96423128 C18.9635791,3.99173179 18.8823724,4.19518987 18.8965111,4.28090619 C18.8991773,4.30627371 18.9301516,4.30814773 18.9504456,4.30601474 C19.0158679,4.29400903 19.4770848,3.85055781 19.5478549,3.79182407 C19.7964872,3.57076885 19.9692759,3.40898061 20.1834602,3.20180512 C20.2950926,3.09261063 20.4288931,2.95030888 20.531445,2.85232788 C20.6198428,2.76609364 20.7376152,2.6665129 20.7971718,2.59869865 C20.89011,2.50685765 21.0770374,2.43078573 21.1504737,2.39741951 C21.2588913,2.35524706 21.4158957,2.3849112 21.5392442,2.48479685 Z M12.9262353,1.5690702 C13.0744334,1.56375305 13.2533315,1.60650471 13.3208714,1.71225608 C13.3649179,1.78969941 13.2949247,2.00223801 13.2692829,2.05109902 C13.209452,2.16510806 13.1736632,2.21503557 13.1469549,2.25374957 C13.052676,2.38163834 12.9279561,2.51272659 12.7423541,2.6502138 C12.6993588,2.68038054 12.4835901,2.77487245 12.3714398,2.78153038 C12.2795835,2.78605532 12.1685149,2.70539718 12.1626492,2.64958864 C12.155717,2.58363309 12.1594651,2.52168455 12.1648129,2.47495652 C12.169917,2.27949714 12.2527234,2.09125957 12.3606231,1.94655055 C12.4826768,1.79009478 12.6191435,1.67316055 12.7056673,1.61790058 C12.7598761,1.59681435 12.8439927,1.56745514 12.9262353,1.5690702 Z" id="Combined-Shape" stroke="#FFFFFF" stroke-width="0.5" fill="#FFFFFF"></path>
                                <g id="Group-3" transform="translate(2.550725, 7.289855)"></g>
                            </g>
                        </g>
                    </g>
                </g>
            </g>
        </g>
    </g>
</svg>