<svg width="32" height="32" viewBox="0 0 32 32" fill="none" xmlns="http://www.w3.org/2000/svg">
<g id="bookmark_button">
<path id="Vector" d="M6.75 28V28.3775L7.09756 28.2302L16 24.4571L24.9024 28.2302L25.25 28.3775V28V7.13941C25.25 6.48754 25.0099 5.92175 24.5396 5.4546L24.5396 5.45456C24.0686 4.987 23.4956 4.75 22.8341 4.75H9.16588C8.50439 4.75 7.93141 4.987 7.46044 5.45456L7.46039 5.4546C6.9901 5.92175 6.75 6.48754 6.75 7.13941V28ZM16.097 22.0805L16 22.0396L15.903 22.0805L8.98977 24.9913V7.13941C8.98977 7.11333 8.99789 7.07797 9.04862 7.02771L8.87269 6.85009L9.04839 7.02794C9.09908 6.97787 9.13626 6.96843 9.16588 6.96843H22.8341C22.8637 6.96843 22.9008 6.97784 22.9514 7.02771C23.0021 7.07796 23.0102 7.11333 23.0102 7.13941V24.9913L16.097 22.0805Z" fill="#595F65" stroke="white" stroke-width="0.5"/>
</g>
</svg>
