<svg width="32" height="32" viewBox="0 0 32 32" fill="none" xmlns="http://www.w3.org/2000/svg">
<g id="bookmark_button">
<path id="Vector" d="M6.75 28V28.3775L7.09756 28.2302L16 24.4571L24.9024 28.2302L25.25 28.3775V28V7.13941C25.25 6.48754 25.0099 5.92175 24.5396 5.4546L24.5396 5.45456C24.0686 4.987 23.4956 4.75 22.8341 4.75H9.16588C8.50439 4.75 7.93141 4.987 7.46044 5.45456L7.46039 5.4546C6.9901 5.92175 6.75 6.48754 6.75 7.13941V28Z" fill="#41474D" stroke="white" stroke-width="0.5"/>
<path id="Vector_2" d="M12 13C12 12.8406 12.0633 12.6878 12.176 12.5751C12.2887 12.4625 12.4415 12.3992 12.6008 12.3992H15.3992V9.60084C15.3992 9.44149 15.4625 9.28866 15.5751 9.17598C15.6878 9.0633 15.8406 9 16 9C16.1594 9 16.3122 9.0633 16.4249 9.17598C16.5375 9.28866 16.6008 9.44149 16.6008 9.60084V12.3992H19.3992C19.5585 12.3992 19.7113 12.4625 19.824 12.5751C19.9367 12.6878 20 12.8406 20 13C20 13.1594 19.9367 13.3122 19.824 13.4249C19.7113 13.5375 19.5585 13.6008 19.3992 13.6008H16.6008V16.3992C16.6008 16.5585 16.5375 16.7113 16.4249 16.824C16.3122 16.9367 16.1594 17 16 17C15.8406 17 15.6878 16.9367 15.5751 16.824C15.4625 16.7113 15.3992 16.5585 15.3992 16.3992V13.6008H12.6008C12.4415 13.6008 12.2887 13.5375 12.176 13.4249C12.0633 13.3122 12 13.1594 12 13Z" fill="white"/>
</g>
</svg>
