<svg width="48" height="48" fill="none" xmlns="http://www.w3.org/2000/svg"><g fill="#0081CC"><path opacity=".3" d="M28 29.113V28c0-4.411 3.588-8 8-8v-4.343a4 4 0 0 0-1.172-2.829l-7.656-7.656A4 4 0 0 0 24.343 4H8a4 4 0 0 0-4 4v32a4 4 0 0 0 4 4h17.113C24.423 42.819 24 41.464 24 40v-4c0-2.948 1.62-5.5 4-6.887ZM24 7h.343c.267 0 .518.104.708.293l7.656 7.656c.188.19.293.44.293.708V16h-5a4 4 0 0 1-4-4V7Z"/><path d="M32 44h8a4 4 0 0 0 4-4v-4a3.99 3.99 0 0 0-3-3.858V28c0-2.757-2.242-5-5-5s-5 2.243-5 5v4.142A3.99 3.99 0 0 0 28 36v4a4 4 0 0 0 4 4Zm1-16c0-1.654 1.346-3 3-3s3 1.346 3 3v4h-6v-4Z"/></g></svg>