<svg xmlns="http://www.w3.org/2000/svg" width="220" height="137"><style><![CDATA[.B{fill-rule:nonzero}.C{stroke-dasharray:5 10}.D{stroke-linecap:round}.E{stroke-linejoin:round}]]></style><defs><linearGradient id="A" x1="50%" x2="-33.812%" y1="24.713%" y2="253.937%"><stop offset="0%" stop-color="#f7faff"/><stop offset="100%" stop-color="#6b9ad9"/></linearGradient><linearGradient id="B" x1="140.584%" x2="25.163%" y1="2.883%" y2="127.979%"><stop offset="0%" stop-color="#e5edff"/><stop offset="100%" stop-color="#6b9ad9"/></linearGradient><linearGradient id="C" x1="45.815%" x2="75.941%" y1="15.601%" y2="70.424%"><stop offset="0%" stop-color="#f59ba9"/><stop offset="100%" stop-color="#f25267"/></linearGradient><linearGradient id="D" x1="69.094%" x2="0%" y1="20.634%" y2="89.593%"><stop offset="0%" stop-color="#f7faff"/><stop offset="100%" stop-color="#6b9ad9"/></linearGradient><linearGradient id="E" x1="84.355%" x2="25.163%" y1="26.755%" y2="111.499%"><stop offset="0%" stop-color="#e5edff"/><stop offset="100%" stop-color="#6b9ad9"/></linearGradient><linearGradient id="F" x1="50%" x2="-33.812%" y1="38.351%" y2="143.945%"><stop offset="0%" stop-color="#f7faff"/><stop offset="100%" stop-color="#6b9ad9"/></linearGradient><linearGradient id="G" x1="50%" x2="-33.859%" y1="28.175%" y2="159.938%"><stop offset="0%" stop-color="#eef3ff"/><stop offset="100%" stop-color="#6b9ad9"/></linearGradient><linearGradient id="H" x1="50%" x2="-33.859%" y1="22.663%" y2="187.701%"><stop offset="0%" stop-color="#eef3ff"/><stop offset="100%" stop-color="#6b9ad9"/></linearGradient><linearGradient id="I" x1="84.355%" x2="25.163%" y1="34.569%" y2="90.826%"><stop offset="0%" stop-color="#e5edff"/><stop offset="100%" stop-color="#6b9ad9"/></linearGradient><linearGradient id="J" x1="50%" x2="5.431%" y1="19.686%" y2="294.476%"><stop offset="0%" stop-color="#f7faff"/><stop offset="100%" stop-color="#6b9ad9"/></linearGradient><linearGradient id="K" x1="26.778%" x2="107.931%" y1="-9.919%" y2="110.02%"><stop offset="0%" stop-color="#e5edff"/><stop offset="100%" stop-color="#6b9ad9"/></linearGradient><linearGradient id="L" x1="140.584%" x2="25.163%" y1="8.532%" y2="118.631%"><stop offset="0%" stop-color="#e5edff"/><stop offset="100%" stop-color="#6b9ad9"/></linearGradient><linearGradient id="M" x1="90.337%" x2="38.94%" y1="-6.483%" y2="143.48%"><stop offset="0%" stop-color="#e5edff"/><stop offset="100%" stop-color="#6b9ad9"/></linearGradient><linearGradient id="N" x1="50%" x2="55.252%" y1="12.962%" y2="73.443%"><stop offset="0%" stop-color="#ffe579"/><stop offset="100%" stop-color="#fec644"/></linearGradient><linearGradient id="O" x1="61.039%" x2="50%" y1="-40.734%" y2="79.657%"><stop offset="0%" stop-color="#ffedbf"/><stop offset="100%" stop-color="#fec644"/></linearGradient><linearGradient id="P" x1="50%" x2="50%" y1="-10.877%" y2="100%"><stop offset="0%" stop-color="#ffe579"/><stop offset="100%" stop-color="#feb755"/></linearGradient><linearGradient id="Q" x1="140.584%" x2="25.163%" y1="14.948%" y2="108.011%"><stop offset="0%" stop-color="#e5edff"/><stop offset="100%" stop-color="#6b9ad9"/></linearGradient><linearGradient id="R" x1="50%" x2="-33.812%" y1="20.227%" y2="290.111%"><stop offset="0%" stop-color="#f7faff"/><stop offset="100%" stop-color="#6b9ad9"/></linearGradient><linearGradient id="S" x1="50%" x2="52.138%" y1="27.773%" y2="103.623%"><stop offset="0%" stop-color="#1542ab"/><stop offset="100%" stop-color="#2b68ee"/></linearGradient><linearGradient id="T" x1="54.2%" x2="50.815%" y1="0%" y2="50%"><stop offset="0%" stop-color="#3485f7"/><stop offset="100%" stop-color="#1a57cf"/></linearGradient><linearGradient id="U" x1="50%" x2="14.773%" y1="19.686%" y2="294.476%"><stop offset="0%" stop-color="#f7faff"/><stop offset="100%" stop-color="#6b9ad9"/></linearGradient><linearGradient id="V" x1="107.254%" x2="38.27%" y1="-120.462%" y2="-120.462%"><stop offset="0%" stop-color="#fad0ba"/><stop offset="100%" stop-color="#f2a384"/></linearGradient><linearGradient id="W" x1="50%" x2="50%" y1="32.119%" y2="100%"><stop offset="0%" stop-color="#84f0a8"/><stop offset="100%" stop-color="#48b676"/></linearGradient><linearGradient id="X" x1="50%" x2="60.668%" y1="16.387%" y2="52.405%"><stop offset="0%" stop-color="#46c36f" stop-opacity="0"/><stop offset="100%" stop-color="#4dbb7a"/></linearGradient><linearGradient id="Y" x1="79.946%" x2="-12.003%" y1="68.312%" y2="23.909%"><stop offset="0%" stop-color="#092871"/><stop offset="100%" stop-color="#2b68ee"/></linearGradient><linearGradient id="Z" x1="50%" x2="55.252%" y1="20.657%" y2="68.572%"><stop offset="0%" stop-color="#ffe579"/><stop offset="100%" stop-color="#fec644"/></linearGradient><linearGradient id="a" x1="85.55%" x2="-23.604%" y1="68.312%" y2="23.909%"><stop offset="0%" stop-color="#092871"/><stop offset="100%" stop-color="#2b68ee"/></linearGradient><linearGradient id="b" x1="66.934%" x2="14.938%" y1="68.312%" y2="23.909%"><stop offset="0%" stop-color="#092871"/><stop offset="100%" stop-color="#2b68ee"/></linearGradient><linearGradient id="c" x1="86.23%" x2="92.496%" y1="42.97%" y2="20.867%"><stop offset="0%" stop-color="#f1a385" stop-opacity="0"/><stop offset="100%" stop-color="#f2a384"/></linearGradient><linearGradient id="d" x1="60.731%" x2="52.081%" y1="40.059%" y2="50%"><stop offset="0%" stop-color="#3485f7"/><stop offset="100%" stop-color="#1a57cf"/></linearGradient><linearGradient id="e" x1="100%" x2="0%" y1="50%" y2="50%"><stop offset="0%" stop-color="#2865c6"/><stop offset="100%" stop-color="#10378a"/></linearGradient><linearGradient id="f" x1="50%" x2="55.228%" y1="30.687%" y2="96.593%"><stop offset="0%" stop-color="#1542ab"/><stop offset="100%" stop-color="#2b68ee"/></linearGradient><linearGradient id="g" x1="57.282%" x2="51.412%" y1="0%" y2="50%"><stop offset="0%" stop-color="#3485f7"/><stop offset="100%" stop-color="#1a57cf"/></linearGradient><linearGradient id="h" x1="50%" x2="67.286%" y1="43.351%" y2="74.532%"><stop offset="0%" stop-color="#84f0a8"/><stop offset="100%" stop-color="#48b676"/></linearGradient><linearGradient id="i" x1="50%" x2="60.514%" y1="40.24%" y2="70.034%"><stop offset="0%" stop-color="#46c36f" stop-opacity="0"/><stop offset="100%" stop-color="#4dbb7a"/></linearGradient><linearGradient id="j" x1="93.673%" x2="1.757%" y1="47.24%" y2="52.845%"><stop offset="0%" stop-color="#7be7a1"/><stop offset="100%" stop-color="#84f0a8"/></linearGradient><linearGradient id="k" x1="50%" x2="50%" y1="0%" y2="100%"><stop offset="0%" stop-color="#a0ecc3"/><stop offset="100%" stop-color="#67d490"/></linearGradient><linearGradient id="l" x1="140.584%" x2="25.163%" y1="15.338%" y2="107.367%"><stop offset="0%" stop-color="#e5edff"/><stop offset="100%" stop-color="#6b9ad9"/></linearGradient><linearGradient id="m" x1="50%" x2="-33.812%" y1="33.972%" y2="179.262%"><stop offset="0%" stop-color="#f7faff"/><stop offset="100%" stop-color="#6b9ad9"/></linearGradient><linearGradient id="n" x1="140.584%" x2="25.163%" y1="12.981%" y2="111.267%"><stop offset="0%" stop-color="#e5edff"/><stop offset="100%" stop-color="#6b9ad9"/></linearGradient></defs><g fill="none" fill-rule="evenodd"><g fill="#e2ebfc"><ellipse cx="168.851" cy="46.199" opacity=".3" rx="51.119" ry="46.11"/><ellipse cx="51.277" cy="76.417" opacity=".2" rx="51.119" ry="46.11"/><ellipse cx="101.379" cy="134.391" opacity=".34" rx="59.897" ry="2.61"/></g><g class="B"><path fill="url(#A)" d="M13.042 42.333l17.492-15.976c.16-.145.415-.145.574 0l12.904 11.785a.35.35 0 0 1 0 .524L26.52 54.642c-.16.145-.415.145-.574 0L13.042 42.857a.35.35 0 0 1 0-.524z"/><path fill="url(#B)" d="M33.115 44.7c-1.82 1.663-4.774 1.663-6.595 0a4 4 0 0 1 0-6.024c1.82-1.663 4.774-1.663 6.595 0a4 4 0 0 1 0 6.024z"/><path fill="#fff" d="M28.453 40.973l2.343-.66c.214-.06.44.05.507.245a.34.34 0 0 1 0 .218l-.722 2.14c-.066.196-.293.305-.507.245-.063-.018-.12-.05-.167-.092l-1.62-1.48c-.16-.145-.16-.38 0-.524.046-.042.103-.074.166-.092z"/><path fill="url(#B)" d="M13.042 42.333l17.492-15.976c.16-.145.415-.145.574 0l1.577 1.44-18.065 16.5-1.578-1.44a.35.35 0 0 1 0-.524z"/><path fill="#fff" d="M15.193 42.725c-.158.145-.415.145-.573 0s-.16-.378 0-.523.415-.145.573 0a.35.35 0 0 1 0 .524zm1.004-.916c-.16.145-.415.145-.574 0a.35.35 0 0 1 0-.524c.16-.144.415-.144.574 0a.35.35 0 0 1 0 .524z"/><path fill="url(#C)" d="M21.04 65.732c.235-.365.754-.5 1.16-.28l7.357 3.82c.406.2.545.677.3 1.042l-2 3.516 1.848.952c.1.052.173.14.2.242.055.205-.085.4-.313.46l-3.116.83L23.39 80.4c-.235.366-.754.5-1.16.28l-7.358-3.82c-.406-.2-.545-.678-.3-1.043l6.476-10.087z"/><path fill="#fff" d="M20.93 72.5c-.54-.28-.7-.95-.34-1.5s1.04-.782 1.94-.316c.6.3 1.15 1.48 1.654 3.504-2.203.62-3.604.775-4.202.465-.898-.467-1.017-1.12-.665-1.668s1.074-.766 1.613-.486z"/><path fill="url(#D)" d="M41.505 100.328l4.968-3.68c2.103-1.42 4.832-1.557 6.197-1.212l7.215 5.475c-.977.176-1.846.176-3.142.5-4.66 1.128-6.305 4.928-6.927 5.168-1.16.448-.67.242-1.37.327-.468.058-2.78-2.132-6.94-6.568z"/><path fill="url(#E)" d="M41.777 98.9c-1.76 1.732-2.1 2.94-1.05 3.625l6.278 3.84c1.048.598 2.014.618 2.9.06-1.155.448-1.902.26-2.238-.568s.127-1.67 1.39-2.523l-7.28-4.434z"/><path fill="url(#F)" d="M3.906 2.733l1.72-1.262C7.643.074 10.26-.06 11.57.28l6.918 5.385c-.937.173-1.77.173-3.012.482-4.468 1.11-6.046 4.847-6.643 5.083-1.113.44-.642.238-1.314.322-2.704.34-5.172-1.58-5.5-4.284-.22-1.74.504-3.467 1.898-4.534z" transform="matrix(-1 0 0 1 132.857 110.905)"/><path fill="url(#G)" d="M179.858 102.416l-17.6-10.953c-4.668 9.284-11.564 15.887-20.69 19.806l15.057 12.684c11.782-3.9 19.526-11.088 23.23-21.536z"/><path fill="#c5d7f3" style="mix-blend-mode:multiply" d="M150.126 110.376l-1.373.827 11.194 8.274 1.675-.802zM161.84 96.94l13.206 7.47-.896 1.274-13.146-7.453zm-1.982 3.06l13.207 7.472-.896 1.274-13.146-7.453zm4.368 7.17l6.637 3.667-.896 1.274-6.577-3.648zm-6.21-4.62l4.3 2.9c-.113.246-.26.525-.442.837-.828 1.428-1.997 2.674-3.423 3.648l-1.465 1.038-4.413-3.102.716-.393c1.84-1.03 3.338-2.483 4.343-4.21l.394-.718zm3.754 7.263l5.944 4.24c-.685.92-1.45 1.695-2.295 2.33s-1.736 1.1-2.672 1.395l-6.03-4.16c1.27-.675 2.274-1.292 3-1.852a12.92 12.92 0 0 0 2.043-1.955z" opacity=".517"/><path fill="url(#H)" d="M73.03 104.886c0-3.396.63-6.164 1.886-8.306 4.72 5.784 9.712 8.402 14.977 7.854.16 4.332-3.5 18.226 13.245 20.737-3.274 0-6.2-.583-8.805-1.75-8.29-3.233-13.844-6.174-16.666-8.822s-4.368-5.886-4.637-9.713z"/><path fill="url(#I)" d="M72.957 104.442c.788 7.58 5.282 9.697 13.483 6.35 2.835 8.3 8.777 13.078 17.826 14.34-9.364-.14-16.8-2.03-22.305-5.67s-8.508-8.646-9.004-15.02z"/><path fill="url(#J)" d="M180.455 60.726c-.376-2.677-1.8-5.077-3.912-6.9-.74-.75-1.736-1.406-3.01-1.96-1.08-.52-2.248-.917-3.483-1.172.043-1.203 1.012-6.984 2.018-12.803 18.417 2.228 14.766 17.076 13.385 19.343-.62 1.017-2.286 2.177-4.997 3.48z"/></g><path fill="url(#K)" d="M172.05 37.88c8.513.98 14.983 5.872 14.983 11.756 0 2.402-1.077 4.637-2.93 6.51.917-1.428 1.425-3 1.425-4.647 0-5.614-5.887-10.322-13.82-11.596l.342-2.022z"/><g class="B"><g fill="url(#L)"><circle cx="173.596" cy="39.25" r="1"/><circle cx="175.486" cy="39.711" r="1"/></g><path fill="url(#M)" d="M172.123 61.384c6.9-.815 12.447-4.2 14.27-8.595l.215-.21c0 12.713-4.828 19.948-14.485 21.706V61.384z"/><path fill="url(#N)" d="M66.605 22.49l14.442 10.416c.272.196.314.55.094.794l-8.268 9.092c-.22.242-.62.28-.9.083L57.54 32.46c-.272-.196-.314-.55-.094-.793l8.27-9.092c.22-.242.62-.28.9-.084z"/><path fill="url(#O)" d="M57.66 32.424c-.046-.033-.074-.082-.078-.135-.007-.103.08-.193.198-.2l12.2-.662c.325-.018.613.188.664.475l1.935 10.858a.17.17 0 0 1-.044.148c-.073.08-.206.093-.297.028L57.66 32.424z"/><path fill="url(#P)" d="M66.513 22.426L81.14 32.974c.09.066.105.184.032.265-.036.04-.087.064-.143.07l-12.706 1.136c-.345.03-.654-.2-.693-.497l-1.46-11.354c-.013-.103.07-.196.186-.208.056-.006.113.01.157.04z"/><path fill="url(#Q)" d="M113.232 39.612h-.002c-.185-.13-.214-.36-.065-.52l2.802-3a.48.48 0 0 1 .576-.075l.997.574c.165.095.384.08.53-.035l11.932-9.37a.48.48 0 0 1 .608.034l8.955 8.76c.15.147.14.37-.02.507l-13.5 11.458c-.156.13-.4.143-.572.026l-12.25-8.367z"/><path fill="url(#R)" d="M125.42 47.955l-7.573-8.01c-.14-.15-.126-.364.033-.497l15.68-13.143c.17-.142.443-.14.6.007.03.027.057.06.078.095l5.55 9.686a.33.33 0 0 1-.085.427l-13.655 11.467c-.17.143-.443.14-.6-.006l-.026-.025z"/><path fill="#a3c1ea" d="M125.747 46.74l-.42-.38 4.052-3.315.328.44z"/><path fill="url(#S)" d="M99.246 61.9l5.68-2.776h.818c.2 0 .37.13.406.3l2.94 14.74c.042.206-.107.403-.332.44l-.058.006-6.8.248c-.205.007-.386-.125-.423-.3L99.034 62.3a.37.37 0 0 1 .212-.401z"/><path fill="url(#T)" d="M98.44 61.906l6.4-2.746c.207-.09.454-.007.55.182a.36.36 0 0 1 .034.095l2.845 14.76c.04.206-.1.403-.336.44l-.033.004-6.818.586c-.215.018-.41-.117-.446-.31l-2.43-12.6c-.032-.17.063-.336.233-.4z"/><path fill="url(#U)" d="M99.077 63.226l5.714-2.367c.104-.043.227-.001.274.094.007.014.012.03.015.045l2.34 12.137c.02.103-.056.2-.168.22l-.016.001-6.065.545c-.107.01-.205-.058-.224-.156L98.96 63.43c-.016-.085.032-.17.118-.205z"/><path fill="url(#V)" d="M98.062 78.268l-2.957-.353c1.227-1.914 2.016-3.652 2.364-5.212.373-.922-.075-1.132.285-2.472.2-.75.607-1.715 1.604-1.945l.364 1.945c.123.662.447-.854 1.26-.66s-.788 1.636-.788 2.248c0 .98-.238 1.628-.714 1.95l-1.418 4.5z"/><path fill="url(#W)" d="M94.118 78.026c1.733-2.1 2.602-3.286 2.602-3.552 0-.4 2.855-.373 2.855.512s-1.1 4.488-1.61 4.792c-.347.203-1.74.3-4.177.294l.33-2.046z"/><path fill="url(#W)" d="M96.658 79.2c8.476-.006 13.773-1.538 15.9-4.595 3.177-4.587 1.9-6.83 4.3-7.604s5.752 2.45 6.768 4.035c.678 1.056 2.3 7.265 4.837 18.625l-29.38-3.436-2.417-7.025z"/><path fill="#6edb96" d="M115.3 72.314l.375 1.28c.09.304-.108.616-.44.697s-.672-.1-.76-.402l-.377-1.282c-.156.023-.273.052-.352.086-.158.07.977-2.425.977-2.347 0 .222.084.51.254.87l1.4-.344c.332-.08.673.1.762.402s-.108.615-.44.696l-1.4.344z"/><path fill="url(#X)" d="M95.48 80.28c10.197-.56 16.697-2.155 19.502-4.78 1.88-1.76 2.855-2.418 2.865-4.35s-2.514-2.5-.986-3.606c2.325-1.68 9.107 4.547 9.764 5.57.677 1.057 1.287 8.464 1.83 22.22L99.075 91.9 95.48 80.28z"/></g><path fill="url(#V)" d="M87.942 78.352c-1.4-.616-2.573-1.71-3.492-3.278-3.96-2.205-6.062-1.683-6.307 1.566.47 1.645 2.834 4.175 7.094 7.592l.456.26 4.73-4.04-2.48-2.1z"/><path fill="url(#V)" d="M80.585 65.03c.957.548 1.603 1.482 1.936 2.803l1.645 2.64c.23.053.462.1.7.113 1.256.12 1 .977.365 1.628l-.055-.124c1.085 2.447 1.51 4.124 1.27 5.03-.36 1.36-2.616 2.16-7.167 1.514l-4.424-2.92c-.954.857-1.877.677-2.77-.54-1.337-1.823.248-2.497 1.163-2.35 1.08-1.286 1.055-2.774-.073-4.462 2.3-.165 4.02-.53 5.167-1.092s1.893-1.3 2.243-2.24z"/><path fill="url(#V)" d="M80.585 65.03c.957.548 1.603 1.482 1.936 2.803l1.645 2.64.08.018c-1.38.126-2.62-.914-3.724-3.122l-.6-1.25a3.47 3.47 0 0 0 .663-1.088z"/><path fill="url(#Y)" d="M65.732 76.357c-6.205.473-6.825-3.7-4.343-11.636s5.068-14.096-4.137-18.353-21.305 4.068-12.514 14.2 5.792 16.65 14.8 18.637c5.998 1.324 9.72.536 11.17-2.365-2.015.86-3.67.702-4.964-.473z"/><path fill="url(#Z)" d="M65.422 75.884c-.55 1.01-.344 1.892.62 2.648s2.068.79 3.3.095l-3.93-2.743z"/><path fill="url(#a)" d="M80.626 65.1c-.345 2.207-2.07 3.658-5.172 4.352.345 1.766.104 2.964-.724 3.595l.62 1.513c-.965-.883-1.7-1.324-2.172-1.324-.724 0-1.965.85-.93 2.08.69.82 1.55.946 2.585.378 1.724.316 3.827 1.42 6.31 3.31v1.42c-1.345.567-18.513.592-17.375-9.46.168-1.483.43-2.832.792-4.048 1.618-5.462 7.77-8.7 13.743-7.2.703.174 1.385.4 2.038.706 2.382 1.078 3.69 3.287 2.146 7.43l-.28-.767c-.3-.793-.843-1.485-1.582-1.977z"/><path fill="url(#b)" d="M51.046 45.268v.06c-4.274 1.827-5.928 4.255-4.962 7.283 1.447 4.54 7.343 3.878 6.515 9.176s3.827 2.554 3.827 8.136c0 3.667 3.214 8.232 7.033 9.86-1.18-.075-2.49-.27-3.93-.6-8.998-1.986-6-8.514-14.8-18.636-6.87-7.907-.985-14.72 6.307-15.29z"/><path fill="url(#c)" d="M85.176 72.288l.183.223c.95 2.22 1.312 3.756 1.086 4.6-.358 1.36-2.615 2.158-7.166 1.513l-2.883-1.904c.515-.952 1.443-1.455 2.782-1.51 3.17-.126 5.17-1.103 5.998-2.932z"/><g class="B"><path fill="url(#d)" d="M85.553 79.68c1.404-.198 2.107-.48 2.107-.843s-.085-.614-.254-.752l8.737-.102c1.487.2 3.128 2.982 3.297 2.982s4.2 3.084 5.808 3.084c1.08 0 3.01.548 5.796 1.642l-4.163 3.58-17.14-2.074-4.19-7.516z"/><path fill="url(#V)" d="M150.24 63.535c-.253-.156-1.272-1.986.664-2.284l3.136-.592c.498-.145.86-.384 1.087-.715l-.26 2.416-1.487 1c-1.926.214-2.973.27-3.14.165z"/><path fill="url(#e)" d="M152.73 63.583c-.002-.524 1.434-.597 1.824-1.397s-.43-1.73-.223-1.892c.604-.47 1.18-1.277 2.012-2.082 2.05-1.982 2.3-2.157 3.47-1.267.298.122-.852 2.853-3.45 8.192-.73-.04-1.372-.16-1.922-.364-.827-.307-1.71-.666-1.7-1.2z"/><path fill="url(#f)" d="M126.264 63.266c2.985-1.372 24.042-3.7 25.42-3.005a2.56 2.56 0 0 1 1.133 3.44c-.322.64-.9 1.116-1.59 1.3-10.28 2.912-15.586 4.25-15.915 4-.5-.362-7.99 19.916-10.43 23.402s-5.47 8.664-10.567 2.078c-3.4-4.4-2.997-7.33 1.206-8.822 5.172-14.027 8.752-21.5 10.742-22.412z"/><path fill="url(#V)" d="M155.88 52.144c-.287-.09-1.8-1.617-.004-2.363l2.862-1.315c.44-.258.722-.574.847-.948l.434 2.395-1.152 1.327c-1.8.663-2.795.964-2.987.904z"/><path fill="url(#g)" d="M131.058 59.977c3-3.134 23.872-11.446 25.416-11.174a2.43 2.43 0 0 1 .448 4.661c-4.576 1.75-10.497 5.15-17.762 10.196-.892 10.28-1.718 16.756-2.48 19.426-1.14 4.004-5.257 14.9-12.33 10.068-4.716-3.215-5.613-7.738-2.692-13.568 4.266-10.984 7.4-17.52 9.4-19.6z"/></g><path stroke="#1a57cf" d="M156.124 49.963c-11.928 5.36-19.236 9.145-21.925 11.352s-3.62 9.43-2.793 21.664" class="C D E"/><g class="B"><path fill="url(#e)" d="M158.3 51.6c-.15-.505 1.216-.915 1.366-1.78s-.904-1.57-.75-1.776c.45-.597.777-1.512 1.354-2.487 1.418-2.4 1.602-2.625 2.992-2.045.324.047-.014 2.957-1.014 8.73-.716.135-1.37.17-1.96.103-.884-.1-1.838-.24-1.988-.745z"/><path fill="url(#h)" d="M81.873 80.25c1.656-1.7 2.856-2.55 3.6-2.55 1.114 0 1.114 1.224 1.944 1.57 2.467 1.028 17.902 10.033 27.674 2.4s9.734-15.944 11.63-15.944 8.683 8.668 10.685 14.143c1.218 3.328 1.955 6.873 2.214 10.634.048.694-.254 1.37-.82 1.833-9.968 8.18-20.395 11.718-31.283 10.616-16.812-1.703-27.772-12.9-29.002-17.375-.82-2.983.3-4.755 3.36-5.316z"/><path fill="#7de9a2" d="M124.046 100.924l-1.487.496-.12-.412-1.777.436c-.42.103-.852-.126-.965-.5s.137-.78.557-.883l1.777-.435-.476-1.625c-.078-.264.016-.534.218-.7l.728-.178a.76.76 0 0 1 .576.515l.476 1.624 1.776-.435c.42-.103.853.125.966.5s-.137.78-.558.883l-1.776.435.085.29zM91.4 94.316c-1.625 0-2.943-1.205-2.943-2.692s1.318-2.693 2.943-2.693 2.943 1.206 2.943 2.693-1.317 2.692-2.943 2.692zm0-1.615c.65 0 1.177-.483 1.177-1.077s-.527-1.077-1.177-1.077-1.177.482-1.177 1.077S90.75 92.7 91.4 92.7zm18.766-4.2l1.3 1.2c.308.28.308.737 0 1.02s-.806.28-1.114 0l-1.3-1.2-1.3 1.2c-.308.28-.807.28-1.115 0s-.308-.738 0-1.02l1.3-1.2-1.3-1.19c-.308-.28-.308-.738 0-1.02s.807-.28 1.115 0l1.3 1.2 1.3-1.2c.308-.28.807-.28 1.115 0a.68.68 0 0 1 0 1.02l-1.3 1.2zm18.016-12.7l1.3 1.2c.308.28.308.737 0 1.02s-.807.28-1.115 0l-1.3-1.2-1.3 1.2c-.308.28-.807.28-1.115 0s-.308-.738 0-1.02l1.3-1.2-1.3-1.19c-.308-.28-.308-.737 0-1.02a.84.84 0 0 1 1.115 0l1.3 1.2 1.3-1.2a.84.84 0 0 1 1.115 0c.308.282.308.738 0 1.02l-1.3 1.19zm-23.903 25.273c-1.775 0-3.215-1.316-3.215-2.94s1.44-2.94 3.215-2.94 3.216 1.316 3.216 2.94-1.44 2.94-3.216 2.94zm0-1.764c.7 0 1.286-.527 1.286-1.177s-.575-1.176-1.286-1.176-1.286.527-1.286 1.176.576 1.177 1.286 1.177zm17.468-9.53c-1.776 0-3.215-1.317-3.215-2.94s1.44-2.942 3.215-2.942 3.215 1.317 3.215 2.94-1.44 2.94-3.215 2.94zm0-1.764c.7 0 1.286-.527 1.286-1.177s-.576-1.176-1.286-1.176-1.286.527-1.286 1.176.575 1.177 1.286 1.177z"/><path fill="#52c47d" d="M102.544 84.513c2.854.362 5.795.264 8.532-.68-.606 2.364-2.02 4.723-4.246 7.076-6.18 6.54-24.976.16-26.763-2.755s.415-7.558 4-8.23c1.254-.234 2.067 5.378 3.995 6.177 3.605 1.492 8.85-1.176 12.257-1.176.824 0 1.563-.137 2.215-.412z" opacity=".5"/><path fill="url(#i)" d="M137.407 79.865c1.215 3.32 1.952 6.865 2.21 10.626.048.694-.254 1.37-.82 1.833-9.968 8.18-20.395 11.718-31.283 10.616-7.468-.757-13.78-3.386-18.6-6.468l.605.224c19.133 7.284 12.1.473 26.476.946l.425.012c13.824.322 7.607-6.557 14.364-8.242 4.55-1.136 6.757-4.384 6.62-9.744l.002.197z"/></g><path stroke="#5fcc89" d="M126.338 68.505c-4.62 11.226-11.204 17.154-19.753 17.785m16.67-4.888c.955.795 1.7 1.622 2.266 2.48.57.882 1.002 1.908 1.293 3.078.1.362.452.59.818.51a.92.92 0 0 0 .728-.826l.16-1.968a3.39 3.39 0 0 0-2.077-3.402l-1.513-.63a2.11 2.11 0 0 0-1.538-.033.46.46 0 0 0-.275.592.47.47 0 0 0 .138.196z"/><circle cx="127.819" cy="82.768" r="1" fill="#5fcc89"/><circle cx="85.388" cy="78.726" r="1" fill="#48c172"/><path stroke="#48c172" d="M126.338 68.505c6.55 6.37 10.24 14.158 11.066 23.366" class="C D E"/><g class="B"><path fill="url(#V)" d="M106.854 77.84l-.215-3.617c-.656-.935-.985-1.892-.985-2.87 0-1.406-1.673-2.142-1.2-2.557.097-.084.507-.156 1.026 0 .474.142 1.056 1.385 1.563 1.596.218.09.47-.6.628-1.028a5.45 5.45 0 0 0 .217-1.176c0-.17-.217-.928-.217-1.09.827-.345 2.432.796 2.633 1.546.24.893-.1 2.358-.992 4.394l.49 4.45-2.957.353z"/><path fill="url(#j)" d="M106.186 75.667c-1.13 6.062-3.437 9.094-6.924 9.094-5.23 0-12.91-5.624-16.507-4.952s-4.475 3.538-2.688 6.453 20.583 9.297 26.764 2.756c4.12-4.36 5.464-8.738 4.03-13.132a3.26 3.26 0 0 0-2.11-.882c-.804-.037-1.66.183-2.565.663z"/><path fill="url(#k)" d="M86.583 82.017c1.775 0 3.215 1.318 3.215 2.942s-1.44 2.94-3.215 2.94-3.215-1.316-3.215-2.94 1.44-2.94 3.215-2.94zm0 1.765c-.7 0-1.286.527-1.286 1.177s.575 1.176 1.286 1.176 1.286-.527 1.286-1.176-.576-1.177-1.286-1.177z" style="mix-blend-mode:overlay" opacity=".396"/></g><path stroke="#5fcc89" d="M81.867 83.17c10.067 4.793 17.237 6.054 21.512 3.784s6-5.992 5.17-11.163"/><path fill="url(#l)" d="M81.925 40.02l24.05-5.98c.218-.055.44.065.5.267l4.754 16.465c.058.202-.07.4-.29.464l-24.05 5.98c-.217.055-.44-.065-.5-.267l-4.752-16.465c-.06-.203.07-.4.288-.464z" class="B"/><path fill="url(#m)" d="M106.267 36.515l4.067 14.087-23.26 5.785L83.006 42.3z"/><g class="B"><path fill="#f2f5ff" d="M83.583 41.372c-.217.054-.44-.066-.5-.268s.07-.4.3-.464.44.066.5.268-.072.4-.3.464zm1.38-.343c-.217.054-.44-.066-.5-.268s.07-.4.3-.464.44.066.5.268-.07.4-.29.464z"/><path fill="url(#n)" d="M88.953 53.34l-.872-.492 3.345-5.107 3.945.657 2.883-5.445L101.742 44l2.756-4.675.895.454-3.162 5.363-3.45-1.036-2.832 5.35-4.013-.668z"/></g></g></svg>