<svg width="90" height="81" viewBox="0 0 90 81" fill="none" xmlns="http://www.w3.org/2000/svg">
<path d="M61.829 66.8094C60.6264 64.3803 62.2276 60.5932 64.0123 58.4354C66.0954 55.9167 67.5936 56.6308 69.0615 54.5441C71.7948 50.6604 67.7248 46.5939 70.1719 42.4586C72.1704 39.079 75.6496 40.5155 77.6941 36.6714C79.1691 33.8966 78.0663 31.8176 80.1459 29.8262C80.3242 29.6569 82.2661 27.848 84.4364 28.3551C86.6247 28.8661 87.7654 31.4363 88.0736 33.1758C88.6436 36.3917 86.4646 37.256 85.7429 41.3186C84.7589 46.8489 88.2162 48.5203 86.6496 52.4425C85.3574 55.6824 82.701 55.2864 81.3377 58.9059C80.0733 62.2673 81.9039 63.8288 80.835 66.0061C78.3776 71.0215 64.2797 71.7618 61.829 66.8094Z" fill="url(#paint0_linear_1222_71623)"/>
<path opacity="0.7" d="M63.4201 70.6143C63.3969 70.6127 63.3775 70.5931 63.3765 70.5696C63.3758 70.5436 63.3955 70.5216 63.4216 70.5209C65.8104 70.4379 68.0784 69.8579 70.1595 68.7995C72.1328 67.7958 74.1708 66.7578 75.1928 64.6551C75.9655 63.0649 75.6888 61.8343 75.3393 60.2738C75.0001 58.753 74.5752 56.8623 75.0834 54.0528C75.3736 52.4492 75.7333 50.453 77.2696 48.6466C78.1652 47.5952 78.9901 47.1754 79.7179 46.806C80.4806 46.4208 81.0817 46.1152 81.4834 45.2133C82.1412 43.7397 81.8712 42.4161 81.559 40.879C81.3664 39.9298 81.1681 38.9491 81.1482 37.7991C81.0916 34.5624 82.8543 31.2103 86.3907 27.8382C86.4101 27.8214 86.4387 27.8209 86.4581 27.8404C86.4749 27.8598 86.4755 27.8884 86.4559 27.9078C82.9417 31.2607 81.1858 34.5899 81.2444 37.7982C81.2649 38.9404 81.4635 39.9159 81.6538 40.8623C81.9676 42.4125 82.2391 43.7518 81.5715 45.2533C81.1547 46.1853 80.5104 46.5139 79.7638 46.8924C79.0441 47.2572 78.2273 47.6723 77.3432 48.7089C75.8238 50.4958 75.4653 52.4765 75.1783 54.0699C74.674 56.8615 75.097 58.7417 75.4342 60.2546C75.7878 61.831 76.0659 63.0772 75.2808 64.6977C74.2462 66.8307 72.1921 67.8754 70.2079 68.8861C68.1134 69.9513 65.832 70.5356 63.4303 70.6176C63.4227 70.6145 63.4227 70.6145 63.4201 70.6143Z" fill="white"/>
<path opacity="0.7" d="M76.6394 49.6181C76.6213 49.6168 76.6039 49.6052 76.5974 49.5866C74.9909 45.1175 74.926 41.7399 75.1567 39.693C75.4074 37.4733 76.0471 36.2921 76.053 36.2821C76.065 36.2595 76.0942 36.2512 76.1167 36.2632C76.1393 36.2752 76.1476 36.3044 76.1356 36.3269C76.1295 36.3395 75.4961 37.5056 75.249 39.7099C75.0218 41.7441 75.0854 45.1034 76.6855 49.5538C76.6942 49.5778 76.6818 49.6055 76.6578 49.6142C76.6525 49.6164 76.6445 49.6185 76.6394 49.6181Z" fill="white"/>
<path opacity="0.7" d="M74.8909 56.4039C74.8702 56.4024 74.853 56.3882 74.8493 56.3672C74.8434 56.3408 74.8607 56.316 74.8869 56.3127C80.4901 55.2412 83.4222 52.2551 84.8962 49.935C86.4929 47.4234 86.7665 45.1378 86.7707 45.1147C86.7725 45.0889 86.7945 45.0722 86.8204 45.0741C86.8204 45.0741 86.8204 45.0741 86.8229 45.0742C86.8488 45.0761 86.8678 45.1008 86.8634 45.1265C86.8618 45.1498 86.5841 47.4559 84.9758 49.9848C83.493 52.3199 80.5411 55.328 74.904 56.4022C74.8986 56.4044 74.8935 56.4041 74.8909 56.4039Z" fill="white"/>
<path opacity="0.7" d="M72.3677 67.815C72.3574 67.8143 72.3472 67.811 72.3374 67.8025C68.4721 63.9661 67.4021 60.2133 67.1847 57.7422C66.9483 55.0619 67.6396 53.2632 67.646 53.2455C67.6556 53.2202 67.6824 53.2091 67.7077 53.2186C67.7304 53.2281 67.7441 53.255 67.7345 53.2803C67.7281 53.2981 67.0458 55.0792 67.2785 57.7384C67.4945 60.1938 68.5611 63.9204 72.4044 67.737C72.4239 67.7566 72.4218 67.785 72.4049 67.8046C72.394 67.8117 72.3807 67.8159 72.3677 67.815Z" fill="white"/>
<path opacity="0.7" d="M81.2903 37.2948C81.2722 37.2935 81.2549 37.2819 81.2484 37.2632C81.2397 37.2392 81.252 37.2115 81.2786 37.203C85.3771 35.8015 87.2739 33.0513 88.1447 30.9925C89.0876 28.7595 89.0604 26.832 89.0593 26.8111C89.0585 26.7851 89.0783 26.7631 89.1043 26.7624C89.1303 26.7616 89.1523 26.7814 89.1531 26.8074C89.1544 26.8257 89.1829 28.7715 88.2336 31.0222C87.3562 33.1013 85.4448 35.8738 81.3116 37.2885C81.3007 37.2955 81.2955 37.2951 81.2903 37.2948Z" fill="white"/>
<path d="M44.5625 71.5611C46.4658 69.8656 46.6874 66.7194 46.0228 64.5069C44.998 61.092 42.3097 61.3915 40.7855 57.8652C39.1629 54.1149 41.6087 52.4024 39.9148 48.8992C38.3631 45.6893 36.1035 46.6928 33.7452 43.0884C31.3739 39.4657 32.7787 37.1693 30.0428 34.5023C29.5208 33.9936 27.3773 31.9025 25.0583 32.5006C23.118 33.0006 21.9383 35.155 21.7293 36.9023C21.4925 38.8774 22.5924 39.5074 23.5299 42.5423C24.8117 46.6919 23.2902 47.2531 24.5128 49.9529C26.1444 53.5614 29.1829 53.403 29.8562 56.5043C30.3096 58.59 28.9037 59.069 28.8792 61.7005C28.8419 65.4602 31.6651 69.0806 34.8383 70.8926C35.2543 71.1276 41.2895 74.4765 44.5625 71.5611Z" fill="url(#paint1_linear_1222_71623)"/>
<path opacity="0.7" d="M43.6489 73.189C43.6387 73.1924 43.6271 73.1918 43.6182 73.1857C40.175 71.342 38.0124 69.039 37.1879 66.339C36.796 65.0561 36.8644 64.1935 36.9432 63.1932C37.02 62.2003 37.1093 61.0759 36.8033 59.2384C36.199 55.6133 34.8634 52.5989 32.8302 50.2749C31.7157 49.0015 30.8213 48.441 30.1025 47.9896C29.2709 47.4671 28.6129 47.0543 27.9957 45.8452C27.2774 44.438 27.3545 43.3177 27.4431 42.0228C27.5162 40.9448 27.599 39.7201 27.2127 38.1168C26.6423 35.752 25.4621 33.4679 23.705 31.3283C23.6906 31.3127 23.6933 31.2868 23.7116 31.2737C23.7272 31.2594 23.7532 31.262 23.7655 31.2783C25.5308 33.4288 26.7165 35.7224 27.2883 38.0981C27.6767 39.7144 27.5925 40.9418 27.5195 42.0266C27.4321 43.312 27.3558 44.4207 28.0651 45.8081C28.6714 46.9982 29.3212 47.4069 30.1431 47.9213C30.8674 48.3754 31.7652 48.9393 32.8872 50.2215C34.9307 52.5557 36.2732 55.5837 36.8775 59.2225C37.1842 61.0688 37.0963 62.1973 37.0189 63.1949C36.9421 64.1878 36.8736 65.0436 37.2607 66.3122C38.0783 68.9917 40.2286 71.2784 43.6527 73.1126C43.6719 73.1221 43.6781 73.1473 43.6686 73.1664C43.6659 73.1787 43.6571 73.1862 43.6489 73.189Z" fill="white"/>
<path opacity="0.7" d="M27.4237 43.7927C27.4094 43.7975 27.3944 43.7935 27.3841 43.7833C27.3697 43.7677 27.3703 43.7424 27.386 43.7281C29.5828 41.6013 30.3483 38.6174 30.6037 36.4881C30.8809 34.1809 30.6349 32.3528 30.6314 32.3358C30.6286 32.314 30.6428 32.2955 30.6647 32.2927C30.6865 32.2899 30.7049 32.3042 30.7077 32.326C30.7092 32.3437 30.9579 34.18 30.6801 36.4988C30.4241 38.6396 29.6511 41.6419 27.4366 43.7838C27.4332 43.7872 27.4298 43.7906 27.4237 43.7927Z" fill="white"/>
<path opacity="0.7" d="M33.3059 50.8081C33.3038 50.8088 33.3038 50.8088 33.3059 50.8081C29.6716 51.8842 26.9991 50.3356 25.3957 48.8472C23.6623 47.2365 22.7726 45.3481 22.7637 45.3283C22.7547 45.3086 22.7628 45.2854 22.7826 45.2765C22.8023 45.2675 22.8255 45.2756 22.8345 45.2954C22.8434 45.3151 23.7269 47.192 25.45 48.7925C27.037 50.2659 29.6842 51.8003 33.2811 50.7346C33.3015 50.7277 33.324 50.7406 33.3289 50.7617C33.3351 50.7801 33.3243 50.8019 33.3059 50.8081Z" fill="white"/>
<path opacity="0.7" d="M35.604 54.5309C35.5897 54.5357 35.5727 54.5324 35.5617 54.5201C35.5473 54.5045 35.5479 54.4793 35.5635 54.4649C38.136 52.1431 38.4841 49.4866 38.3227 47.6664C38.1485 45.6935 37.3545 44.2505 37.3476 44.2369C37.3366 44.2178 37.3447 44.1946 37.3617 44.1843C37.3808 44.1734 37.404 44.1815 37.4143 44.1985C37.4218 44.2141 38.222 45.6687 38.3997 47.6586C38.5626 49.4966 38.2118 52.179 35.6149 54.5227C35.6142 54.5274 35.6101 54.5288 35.604 54.5309Z" fill="white"/>
<path opacity="0.7" d="M36.9945 65.2869C36.9924 65.2876 36.9904 65.2882 36.9884 65.2889C33.5277 65.7672 31.0696 64.1326 29.6157 62.6757C28.042 61.0999 27.2756 59.3882 27.2694 59.3698C27.2605 59.3501 27.2686 59.3269 27.2883 59.318C27.306 59.3097 27.3313 59.3171 27.3402 59.3369C27.3484 59.3546 28.1086 61.0547 29.6721 62.6203C31.1123 64.0636 33.5492 65.6826 36.9772 65.2085C36.999 65.2057 37.0174 65.22 37.0202 65.2418C37.023 65.2636 37.0108 65.2813 36.9945 65.2869Z" fill="white"/>
<path opacity="0.7" d="M40.1497 70.7748C40.1313 70.781 40.1108 70.7742 40.1026 70.7565C40.0937 70.7368 40.0997 70.7143 40.1195 70.7053C42.8494 69.3224 43.7099 66.5931 43.954 64.545C44.2165 62.3224 43.8284 60.4035 43.8242 60.3844C43.8194 60.3633 43.835 60.3421 43.854 60.3379C43.8752 60.3331 43.8957 60.3466 43.9005 60.3677C43.9047 60.3868 44.2969 62.318 44.0317 64.5529C43.7871 66.6194 42.915 69.3753 40.1545 70.7754C40.1538 70.7734 40.1517 70.7741 40.1497 70.7748Z" fill="white"/>
<path d="M41.97 70.6001C43.681 68.0571 43.0002 64.3262 41.5659 61.9475C39.353 58.2755 36.3111 59.4266 33.4833 55.774C30.4742 51.8898 32.8121 49.1651 29.7935 45.59C27.0281 42.3141 24.6956 44.1574 20.873 40.6627C17.0298 37.1505 17.9808 34.0565 13.9981 31.7663C13.2383 31.3295 10.1175 29.5334 7.59479 30.9222C5.48385 32.0836 4.75271 34.9452 5.03067 37.0428C5.34423 39.4141 6.81335 39.8197 8.81111 43.075C11.5425 47.5261 9.93764 48.6338 12.1675 51.4137C15.1448 55.13 18.6368 54.0388 20.3466 57.4503C21.4972 59.7445 20.0024 60.7219 20.7592 63.7944C21.8377 68.185 26.2067 71.5596 30.4436 72.7232C30.9983 72.8728 39.0275 74.9727 41.97 70.6001Z" fill="url(#paint2_linear_1222_71623)"/>
<path opacity="0.7" d="M41.3917 72.7689C41.3808 72.7759 41.3671 72.7786 41.355 72.7742C36.794 71.6542 33.5877 69.6169 31.8216 66.718C30.9822 65.3406 30.8045 64.3154 30.5978 63.1267C30.391 61.9473 30.1594 60.6108 29.2546 58.5619C27.4689 54.5196 25.0136 51.407 21.9518 49.3067C20.2736 48.156 19.0645 47.77 18.0926 47.4587C16.968 47.0982 16.0784 46.8138 14.9986 45.5896C13.742 44.1649 13.4974 42.8369 13.2143 41.3021C12.9777 40.0246 12.7086 38.5734 11.7803 36.8211C10.4102 34.2368 8.35378 31.9283 5.66859 29.9605C5.64719 29.9466 5.64252 29.9156 5.66002 29.895C5.67393 29.8736 5.7049 29.8689 5.72413 29.8842C8.42214 31.8623 10.4878 34.1802 11.8627 36.7768C12.7974 38.5435 13.0657 39.9983 13.3044 41.2838C13.5862 42.807 13.8281 44.1213 15.0683 45.5257C16.1297 46.731 17.0086 47.0131 18.1195 47.367C19.0987 47.6798 20.3128 48.0687 22.0023 49.2275C25.0791 51.3366 27.5465 54.463 29.3363 58.5211C30.2446 60.5802 30.479 61.921 30.6865 63.1062C30.8933 64.2856 31.0689 65.3028 31.8984 66.665C33.6504 69.5421 36.8375 71.5641 41.3733 72.6788C41.3984 72.6841 41.4132 72.7116 41.4079 72.7367C41.4084 72.7518 41.4004 72.7632 41.3917 72.7689Z" fill="white"/>
<path opacity="0.7" d="M13.7197 43.3694C13.7045 43.3793 13.6858 43.3791 13.6708 43.3703C13.6494 43.3564 13.6426 43.3268 13.6565 43.3054C15.5808 40.1725 15.582 36.4683 15.244 33.912C14.8784 31.1418 14.0463 29.0858 14.0372 29.067C14.0274 29.0424 14.0385 29.0167 14.0631 29.0069C14.0876 28.9971 14.1134 29.0082 14.1231 29.0327C14.1301 29.053 14.9678 31.1177 15.3362 33.9016C15.6769 36.4716 15.6725 40.1995 13.7321 43.3552C13.7292 43.3602 13.7263 43.3652 13.7197 43.3694Z" fill="white"/>
<path opacity="0.7" d="M22.665 49.7859C22.6629 49.7873 22.6629 49.7873 22.665 49.7859C18.7528 52.1239 15.1777 51.1176 12.8659 49.8623C10.3662 48.5035 8.76632 46.5692 8.75002 46.5489C8.73373 46.5286 8.73623 46.4991 8.75655 46.4828C8.77688 46.4665 8.80633 46.4691 8.82262 46.4894C8.83892 46.5097 10.4282 48.4323 12.9129 49.7823C15.2011 51.0251 18.7425 52.0224 22.6142 49.7076C22.6359 49.6935 22.666 49.7018 22.678 49.7249C22.6907 49.7445 22.6846 49.7731 22.665 49.7859Z" fill="white"/>
<path opacity="0.7" d="M26.4528 53.4362C26.4375 53.4461 26.4167 53.4473 26.4003 53.4363C26.3789 53.4224 26.372 53.3929 26.3859 53.3715C28.6895 49.8994 28.3023 46.7011 27.5711 44.629C26.7793 42.3829 25.4238 40.9391 25.4118 40.9253C25.3933 40.9064 25.3958 40.8769 25.4125 40.8599C25.4315 40.8414 25.4609 40.8439 25.478 40.8606C25.4914 40.8766 26.8576 42.3321 27.6584 44.597C28.3966 46.6893 28.7885 49.9185 26.463 53.4234C26.4636 53.4292 26.4593 53.432 26.4528 53.4362Z" fill="white"/>
<path opacity="0.7" d="M31.2823 65.5502C31.2801 65.5517 31.278 65.5531 31.2758 65.5545C27.3875 67.1443 24.0365 65.9739 21.9081 64.7107C19.6048 63.3448 18.2013 61.5797 18.1886 61.5601C18.1723 61.5398 18.1748 61.5104 18.1952 61.4941C18.2133 61.4792 18.2449 61.4803 18.2612 61.5006C18.2761 61.5188 19.6689 63.2722 21.9573 64.6293C24.0656 65.8807 27.3873 67.0393 31.2387 65.4642C31.2633 65.4544 31.2891 65.4655 31.2988 65.49C31.3086 65.5146 31.2997 65.5389 31.2823 65.5502Z" fill="white"/>
<path opacity="0.7" d="M36.5953 71.001C36.5757 71.0138 36.5498 71.012 36.5349 70.9939C36.5186 70.9735 36.519 70.9455 36.5393 70.9292C39.3065 68.5037 39.4944 65.0677 39.1675 62.6093C38.8099 59.942 37.7852 57.8226 37.7747 57.8016C37.7627 57.7785 37.7746 57.7491 37.7956 57.7386C37.8187 57.7266 37.8466 57.7363 37.8586 57.7595C37.8691 57.7804 38.9023 59.9129 39.2604 62.5953C39.5921 65.0753 39.3987 68.5457 36.601 71.0004C36.5996 70.9982 36.5974 70.9996 36.5953 71.001Z" fill="white"/>
<g opacity="0.15">
<path opacity="0.15" d="M53.6702 34.7903C53.595 39.736 50.5026 42.3074 47.0577 42.2945C43.3043 42.2789 40.2974 39.4017 40.3674 34.6788C40.4348 30.1867 43.2654 26.9854 47.4698 27.299C51.5498 27.6049 53.7298 30.7543 53.6702 34.7903ZM44.7611 34.6969C44.7222 37.2787 45.5672 39.1528 47.2158 39.1839C48.8022 39.2124 49.5954 37.5949 49.6368 34.8888C49.6731 32.4418 49.0458 30.5107 47.3117 30.407C45.6242 30.3033 44.7973 32.2292 44.7611 34.6969ZM48.2423 50.5996L60.1946 28.958C60.4227 28.5432 60.8711 28.3022 61.3429 28.3359C62.219 28.4007 62.7349 29.3494 62.3149 30.1218L50.4948 51.7583C50.2927 52.129 49.909 52.3675 49.4865 52.3856L49.3543 52.3908C48.4108 52.4349 47.7861 51.4265 48.2423 50.5996ZM68.6941 44.5004C68.6242 49.0806 65.9698 51.5898 63.0226 51.7168C59.8524 51.8568 57.2966 49.3295 57.3277 44.9747C57.3899 40.8351 59.8032 37.7557 63.3907 37.8516C66.8823 37.9475 68.7512 40.7625 68.6941 44.5004ZM61.1044 44.8011C61.037 47.1832 61.755 48.8785 63.1626 48.837C64.5208 48.7981 65.2 47.2688 65.2363 44.7648C65.2699 42.5018 64.7671 40.7444 63.2844 40.7262C61.8121 40.7107 61.1381 42.5252 61.1044 44.8011Z" fill="url(#paint3_linear_1222_71623)"/>
</g>
<path d="M72.1079 17.3084L57.3817 0.554849C56.7694 -0.100364 55.5208 0.0500131 54.6346 0.00436296C53.7431 -0.0412871 52.8865 0.272893 52.2554 0.871715L35.0507 17.2037C33.837 18.3584 33.1146 19.9239 33.1146 21.5566V67.3947C33.1146 70.3028 35.6469 72.3893 38.6839 72.0107L68.9822 68.2325C71.5708 67.9102 73.6304 65.4827 73.6304 62.8431V21.2182C73.6304 19.7628 73.088 18.3611 72.1079 17.3084ZM54.5057 19.3895C52.2608 19.3949 50.4268 17.5931 50.4268 15.367C50.4268 13.1382 52.2635 11.3632 54.5057 11.4008C56.7265 11.4384 58.5068 13.2375 58.5068 15.4234C58.5068 17.6092 56.7265 19.3842 54.5057 19.3895Z" fill="#67A4BA"/>
<path d="M73.4962 17.3114L58.48 1.16205C57.8731 0.509525 57.038 0.114786 56.1599 0.071821C55.2765 0.0288562 54.4252 0.337666 53.7969 0.936487L45.3408 9.00313L36.7747 17.2094C35.569 18.3587 34.9058 19.9216 34.9058 21.5462V67.215C34.9058 70.1125 37.4031 72.1829 40.416 71.8069L62.4784 69.0464L70.392 68.0582C72.9645 67.736 75 65.3112 75 62.6823V21.2078C75 19.7578 74.471 18.3614 73.4962 17.3114ZM56.031 11.428C58.2357 11.4629 60.0026 13.2593 60.0026 15.4344C60.0026 17.6095 58.233 19.3791 56.031 19.3872C53.8049 19.3926 51.9816 17.5988 51.9816 15.378C51.9816 13.1573 53.8049 11.3904 56.031 11.428Z" fill="#8EDEF4"/>
<path opacity="0.35" d="M62.4596 69.0436L40.4133 71.804C37.4004 72.1827 34.9031 70.1123 34.9031 67.2122V21.546C34.9031 19.9187 35.5663 18.3585 36.772 17.2092L45.3543 9.00562C43.7297 14.2232 44.1781 18.0336 45.083 20.7216C47.9509 29.2313 56.3157 29.6824 58.48 38.2888C60.2281 45.2384 55.6363 48.4016 56.2485 56.0789C56.5439 59.739 58.0128 64.2315 62.4596 69.0436Z" fill="white"/>
<path d="M45.2902 46.3203C49.814 46.2761 52.9203 43.6355 52.884 39.9237C52.859 37.3718 51.3303 35.2697 48.6275 34.6871L48.6264 34.5711C50.6495 33.8553 52.2561 32.0705 52.2328 29.6926C52.2021 26.5607 49.3072 24.124 45.4213 24.162C42.8405 24.1873 40.3565 25.2266 38.7189 26.8087L40.6606 29.6318C42.3884 28.3679 43.6308 27.8917 45.0227 27.8781C46.7626 27.861 48.1929 28.8041 48.2097 30.515C48.2255 32.1389 46.9027 33.2829 44.8148 33.3034L42.4079 33.3269L42.4425 36.8648L45.1684 36.8381C47.2853 36.8174 48.7469 37.9921 48.7639 39.732C48.7804 41.4139 47.4293 42.6452 45.0805 42.6682C43.6305 42.6824 41.9731 42.2346 40.0475 41.0644L38.3968 44.2707C40.4978 45.5842 42.7383 46.3453 45.2902 46.3203Z" fill="#102D42"/>
<path d="M70.7384 37.3128L68.4186 37.3355L68.2911 24.3152L65.5362 24.3421L54.3622 38.2852L55.1698 40.8004L64.7394 40.7067L64.7891 45.7815L68.5009 45.7451L68.4512 40.6704L70.7711 40.6477L70.7384 37.3128ZM58.965 37.4281L64.6375 30.2962L64.7067 37.3719L58.965 37.4281Z" fill="#102D42"/>
<path d="M51.8765 55.947C53.8484 55.947 55.426 54.4258 55.426 52.529C55.426 50.6322 53.8484 49.0735 51.8765 49.0735C49.8859 49.0735 48.3083 50.6322 48.3083 52.529C48.3083 54.4258 49.8859 55.947 51.8765 55.947ZM49.8107 63.196H52.2146L62.3745 49.3176H59.9519L49.8107 63.196ZM51.8765 54.2192C50.9375 54.2192 50.1676 53.5056 50.1676 52.529C50.1676 51.5337 50.9188 50.82 51.8765 50.82C52.7968 50.82 53.5855 51.5337 53.5855 52.529C53.5855 53.5056 52.778 54.2192 51.8765 54.2192ZM60.4026 63.4214C62.3745 63.4214 63.9708 61.8814 63.9708 60.0034C63.9708 58.1066 62.3745 56.5667 60.4026 56.5667C58.412 56.5667 56.8345 58.1066 56.8345 60.0034C56.8345 61.8814 58.412 63.4214 60.4026 63.4214ZM60.4026 61.6936C59.4824 61.6936 58.6937 60.98 58.6937 60.0034C58.6937 59.0081 59.4637 58.2757 60.4026 58.2757C61.3416 58.2757 62.1116 59.0081 62.1116 60.0034C62.1116 60.98 61.3416 61.6936 60.4026 61.6936Z" fill="#102D42"/>
<circle cx="25" cy="17" r="15" fill="#F2385A"/>
<path d="M16.6738 20.104C18.2018 20.104 19.1138 19.264 19.1138 18.168C19.1138 17.272 18.5698 16.832 17.9138 16.576C17.5218 16.424 17.0818 16.296 16.7778 16.2C16.5698 16.136 16.3138 16.056 16.3138 15.84C16.3138 15.704 16.4578 15.552 16.8658 15.552C17.2978 15.552 17.9378 15.744 18.2978 16.008L19.0338 14.72C18.3778 14.232 17.5858 14 16.8418 14C15.4898 14 14.5378 14.808 14.5378 15.888C14.5378 16.736 14.9938 17.184 15.5298 17.448C15.9698 17.664 16.4738 17.776 16.8178 17.896C17.0898 17.992 17.2658 18.096 17.2658 18.264C17.2658 18.512 16.9538 18.576 16.6978 18.576C16.0418 18.576 15.4258 18.272 14.9618 17.888L14.1618 19.128C14.8018 19.744 15.6578 20.104 16.6738 20.104ZM23.1929 20H24.8969L22.8569 14.088H21.2329L19.1289 20H20.8329L21.1289 19.032H22.9129L23.1929 20ZM22.5369 17.6H21.5289L22.0409 15.968L22.5369 17.6ZM28.6117 14.088L27.4517 17.624L26.2677 14.088H24.3317L26.6757 20H28.2277L30.5397 14.088H28.6117ZM31.087 20H35.495V18.464H32.767V17.808H35.303V16.28H32.767V15.624H35.511V14.088H31.087V20Z" fill="white"/>
<defs>
<linearGradient id="paint0_linear_1222_71623" x1="68.9755" y1="43.6519" x2="86.0228" y2="76.5424" gradientUnits="userSpaceOnUse">
<stop stop-color="#FFDB7D"/>
<stop offset="0.572917" stop-color="#EBF5F9" stop-opacity="0"/>
</linearGradient>
<linearGradient id="paint1_linear_1222_71623" x1="28.2521" y1="49.0435" x2="56.4904" y2="63.5617" gradientUnits="userSpaceOnUse">
<stop stop-color="#FFDB7D"/>
<stop offset="0.572917" stop-color="#EBF5F9" stop-opacity="0"/>
</linearGradient>
<linearGradient id="paint2_linear_1222_71623" x1="16.2517" y1="49.2385" x2="53.4766" y2="57.7227" gradientUnits="userSpaceOnUse">
<stop stop-color="#FFDB7D"/>
<stop offset="0.572917" stop-color="#EBF5F9" stop-opacity="0"/>
</linearGradient>
<linearGradient id="paint3_linear_1222_71623" x1="40.2906" y1="39.7183" x2="68.7605" y2="40.1483" gradientUnits="userSpaceOnUse">
<stop stop-color="#FF9085"/>
<stop offset="1" stop-color="#FB6FBB"/>
</linearGradient>
</defs>
</svg>
