<?xml version="1.0" encoding="UTF-8"?>
<svg width="154px" height="32px" viewBox="0 0 154 32" version="1.1" xmlns="http://www.w3.org/2000/svg" xmlns:xlink="http://www.w3.org/1999/xlink">
    <title>Popular tag</title>
    <g id="New-Pricing" stroke="none" stroke-width="1" fill="none" fill-rule="evenodd">
        <g id="Popular-tag" fill-rule="nonzero">
            <polygon id="Path" fill="#0E57AF" points="11 0 0 8 11 8"></polygon>
            <polygon id="Path-Copy" fill="#0E57AF" transform="translate(148.500000, 4.000000) scale(-1, 1) translate(-148.500000, -4.000000) " points="154 0 143 8 154 8"></polygon>
            <g id="Group-14" transform="translate(11.000000, 0.000000)">
                <path d="M0,0 L132,0 L132,28 C132,30.209139 130.209139,32 128,32 L4,32 C1.790861,32 2.705415e-16,30.209139 0,28 L0,0 L0,0 Z" id="Rectangle" fill="#3C80EF"></path>
                <path d="M29.064,21.424 L29.064,17.04 L31.928,17.04 C33.1333333,17.04 34.072,16.736 34.744,16.128 C35.416,15.52 35.752,14.672 35.752,13.584 C35.752,12.496 35.416,11.6506667 34.744,11.048 C34.072,10.4453333 33.1333333,10.144 31.928,10.144 L31.928,10.144 L27,10.144 L27,21.424 L29.064,21.424 Z M31.672,15.456 L29.064,15.456 L29.064,11.744 L31.672,11.744 C32.3866667,11.744 32.92,11.896 33.272,12.2 C33.624,12.504 33.8,12.9706667 33.8,13.6 C33.8,14.8373333 33.0906667,15.456 31.672,15.456 L31.672,15.456 Z M42.876,21.568 C43.964,21.568 44.9106667,21.3333333 45.716,20.864 C46.5213333,20.3946667 47.1426667,19.7226667 47.58,18.848 C48.0173333,17.9733333 48.236,16.9493333 48.236,15.776 C48.236,14.6026667 48.02,13.5813333 47.588,12.712 C47.156,11.8426667 46.5373333,11.1733333 45.732,10.704 C44.9266667,10.2346667 43.9746667,10 42.876,10 C41.7773333,10 40.8226667,10.2346667 40.012,10.704 C39.2013333,11.1733333 38.58,11.8426667 38.148,12.712 C37.716,13.5813333 37.5,14.6026667 37.5,15.776 C37.5,16.9493333 37.7186667,17.9733333 38.156,18.848 C38.5933333,19.7226667 39.2146667,20.3946667 40.02,20.864 C40.8253333,21.3333333 41.7773333,21.568 42.876,21.568 Z M42.876,19.92 C41.8306667,19.92 41.0173333,19.5626667 40.436,18.848 C39.8546667,18.1333333 39.564,17.1093333 39.564,15.776 C39.564,14.4426667 39.8546667,13.4213333 40.436,12.712 C41.0173333,12.0026667 41.8306667,11.648 42.876,11.648 C43.9106667,11.648 44.7186667,12.0026667 45.3,12.712 C45.8813333,13.4213333 46.172,14.4426667 46.172,15.776 C46.172,17.1093333 45.8813333,18.1333333 45.3,18.848 C44.7186667,19.5626667 43.9106667,19.92 42.876,19.92 Z M52.72,21.424 L52.72,17.04 L55.584,17.04 C56.7893333,17.04 57.728,16.736 58.4,16.128 C59.072,15.52 59.408,14.672 59.408,13.584 C59.408,12.496 59.072,11.6506667 58.4,11.048 C57.728,10.4453333 56.7893333,10.144 55.584,10.144 L55.584,10.144 L50.656,10.144 L50.656,21.424 L52.72,21.424 Z M55.328,15.456 L52.72,15.456 L52.72,11.744 L55.328,11.744 C56.0426667,11.744 56.576,11.896 56.928,12.2 C57.28,12.504 57.456,12.9706667 57.456,13.6 C57.456,14.8373333 56.7466667,15.456 55.328,15.456 L55.328,15.456 Z M66.212,21.568 C67.748,21.568 68.916,21.1653333 69.716,20.36 C70.516,19.5546667 70.916,18.3893333 70.916,16.864 L70.916,16.864 L70.916,10.144 L68.9,10.144 L68.9,16.976 C68.9,17.936 68.6706667,18.6666667 68.212,19.168 C67.7533333,19.6693333 67.0866667,19.92 66.212,19.92 C65.3266667,19.92 64.6546667,19.672 64.196,19.176 C63.7373333,18.68 63.508,17.9466667 63.508,16.976 L63.508,16.976 L63.508,10.144 L61.492,10.144 L61.492,16.864 C61.492,18.4 61.892,19.568 62.692,20.368 C63.492,21.168 64.6653333,21.568 66.212,21.568 Z M80.952,21.424 L80.952,19.728 L75.688,19.728 L75.688,10.144 L73.624,10.144 L73.624,21.424 L80.952,21.424 Z M83.612,21.424 L84.748,18.784 L90.236,18.784 L91.372,21.424 L93.42,21.424 L88.316,10.144 L86.636,10.144 L81.532,21.424 L83.612,21.424 Z M89.548,17.184 L85.42,17.184 L87.484,12.384 L89.548,17.184 Z M96.992,21.424 L96.992,16.896 L98.56,16.896 C98.9653333,16.896 99.3013333,16.9653333 99.568,17.104 C99.8346667,17.2426667 100.058667,17.4826667 100.24,17.824 L100.24,17.824 L102.176,21.424 L104.416,21.424 L102.528,17.968 C102.165333,17.2853333 101.685333,16.864 101.088,16.704 C101.973333,16.5333333 102.658667,16.168 103.144,15.608 C103.629333,15.048 103.872,14.336 103.872,13.472 C103.872,12.3946667 103.538667,11.5706667 102.872,11 C102.205333,10.4293333 101.232,10.144 99.952,10.144 L99.952,10.144 L94.96,10.144 L94.96,21.424 L96.992,21.424 Z M99.664,15.312 L96.976,15.312 L96.976,11.744 L99.664,11.744 C100.442667,11.744 101.013333,11.8853333 101.376,12.168 C101.738667,12.4506667 101.92,12.9013333 101.92,13.52 C101.92,14.128 101.738667,14.5786667 101.376,14.872 C101.013333,15.1653333 100.442667,15.312 99.664,15.312 L99.664,15.312 Z" id="POPULAR" fill="#FFFFFF"></path>
            </g>
        </g>
    </g>
</svg>