<svg width="182" height="160" fill="none" xmlns="http://www.w3.org/2000/svg"><path d="M29.355 43.852c0-7.271 0-10.907 2.258-13.166 2.26-2.259 5.895-2.259 13.166-2.259h96.179c7.271 0 10.907 0 13.166 2.26 2.259 2.258 2.259 5.894 2.259 13.165v63.172c0 7.271 0 10.907-2.259 13.166-2.259 2.258-5.895 2.258-13.166 2.258h-96.18c-7.27 0-10.906 0-13.165-2.258-2.258-2.259-2.258-5.895-2.258-13.166V43.852Z" fill="url(#a)"/><path d="M34.855 24.436a7.011 7.011 0 0 1 7.012-7.011H144.37a7.011 7.011 0 0 1 7.011 7.011v74.998a7.011 7.011 0 0 1-7.011 7.011H41.866a7.011 7.011 0 0 1-7.01-7.011V24.436Z" fill="#fff" fill-opacity=".25"/><path d="M25.358 125.956c2.196-3.646 3.295-5.47 5.06-6.467 1.766-.998 3.895-.998 8.152-.998h109.598c4.257 0 6.385 0 8.151.998 1.766.997 2.864 2.821 5.061 6.467l6.422 10.661c6.244 10.364 9.366 15.547 7.152 19.465C172.74 160 166.69 160 154.59 160H32.148c-12.1 0-18.15 0-20.364-3.918-2.214-3.918.908-9.101 7.152-19.465l6.422-10.661Z" fill="url(#b)"/><path d="M60.81 99.25a.484.484 0 0 1-.173 0l-8.276-2.512a.608.608 0 0 1-.36-.298.63.63 0 0 1 .243-.839.595.595 0 0 1 .461-.05l7.204 2.192-2.145-7.382a.63.63 0 0 1 .046-.471.609.609 0 0 1 .36-.3.595.595 0 0 1 .461.047c.142.078.248.21.294.367l2.46 8.452a.63.63 0 0 1-.095.546.608.608 0 0 1-.486.248h.005Z" fill="#102D42"/><path d="M52.533 96.733a.591.591 0 0 1-.433-.186L31.172 74.734a.627.627 0 0 1 .008-.877.6.6 0 0 1 .858.008l20.5 21.37 4.95-5.055L36.983 68.8a.617.617 0 0 1-.177-.437.628.628 0 0 1 .178-.437.604.604 0 0 1 .86 0l20.933 21.822a.63.63 0 0 1 0 .874l-5.816 5.93a.603.603 0 0 1-.428.18Z" fill="#102D42"/><path d="M55.136 93.537a.604.604 0 0 1-.428-.181L34.1 72.308a.615.615 0 0 1-.25-.449.631.631 0 0 1 .171-.485.605.605 0 0 1 .471-.185.596.596 0 0 1 .445.244l20.627 21.044a.63.63 0 0 1-.196 1.013.589.589 0 0 1-.232.047ZM61.626 98.939c2.76-1.659 5.654-3.076 8.365-4.804a30.111 30.111 0 0 0 3.868-2.874 20.435 20.435 0 0 0 1.707-1.704 6.027 6.027 0 0 0 1.402-2.01c.117-.325.127-.68.03-1.011a1.603 1.603 0 0 0-.57-.828 2.059 2.059 0 0 0-1.625-.11c-1.476.402-2.854 1.472-3.99 2.467-1.265 1.105-2.544 2.512-3.184 4.075-.492 1.231-.413 2.849.635 3.769 1.781 1.552 4.837.15 6.46-1.005l-.767-1.025c-.237.224-.412.509-.508.825a1.927 1.927 0 0 0-.038.973c.132.297.366.534.659.666.292.132.621.149.925.048 1.206-.256 2.12-1.608 3.38-1.588l-.324-1.216c-.492.292-.6 1.211-.68 1.724a.68.68 0 0 0 .065.492c.082.15.218.261.379.312.895.196 1.826.13 2.686-.191.43-.143.853-.311 1.265-.503.374-.17.738-.427 1.122-.573l-.62-1.09c-.694.693-1.604 2.342-.133 2.733a6.396 6.396 0 0 0 3.238-.23c2.037-.563 4.138-1.77 6.274-.955.772.291 1.107-.97.34-1.262-1.772-.673-3.578-.165-5.295.422a16.96 16.96 0 0 1-2.603.754c-.43.074-.866.092-1.3.055a.964.964 0 0 0-.255-.03c-.148-.045-.128.05.063.287l.07-.146c.15-.238.314-.466.492-.683.432-.438 0-1.327-.62-1.096-1.378.503-2.83 1.689-4.395 1.261l.448.8c.035-.202.089-.403.143-.604.03-.132.065-.263.108-.391.089-.307.094-.111-.157.05a.67.67 0 0 0 .06-1.074.636.636 0 0 0-.38-.142 4.273 4.273 0 0 0-2.333.904 8.005 8.005 0 0 1-1.028.618c-.118.05-.438.11-.428.146.01.035.079-.106.098-.13a1.88 1.88 0 0 1 .172-.267c.439-.503-.137-1.482-.772-1.005a8.964 8.964 0 0 1-2.136 1.11c-.729.322-1.534.421-2.317.287-.856-.231-1.142-1.211-.984-2.01.295-1.412 1.476-2.663 2.46-3.623a12.522 12.522 0 0 1 3.567-2.512 1.62 1.62 0 0 1 1.039-.211c.103.04 0 0 0 0 .034.1.034.21 0 .311a2.52 2.52 0 0 1-.571.915 24.231 24.231 0 0 1-6.121 5.18c-2.618 1.633-5.413 3.015-8.03 4.593a.666.666 0 0 0-.196.872.628.628 0 0 0 .84.254ZM95.381 95.888c.17 0 .333-.068.453-.19a.66.66 0 0 0 0-.925.633.633 0 0 0-.905 0 .66.66 0 0 0 0 .924c.12.123.283.191.452.191Z" fill="#102D42"/><path d="m150.732 104.198 23.342 7.268c2.607.812 2.748 4.448.212 5.459l-9.841 3.923a2.895 2.895 0 0 0-1.536 1.43l-4.66 9.633c-1.184 2.447-4.781 2.065-5.424-.576l-5.77-23.684c-.534-2.189 1.526-4.123 3.677-3.453Z" fill="#F2385A"/><rect x="16.402" y="39.6" width="34.724" height="34.724" rx="3.173" transform="rotate(-98.746 16.402 39.6)" fill="#FCF0EE"/><path fill-rule="evenodd" clip-rule="evenodd" d="m23.675 18.88.002-.003.012-.023.053-.099a9.082 9.082 0 0 1 1.132-1.57c.81-.897 1.973-1.806 3.466-2.036 1.657-.254 2.91.21 3.794 1.013.54.49.958 1.124 1.243 1.834a9.55 9.55 0 0 0-2.282.075c-3.583.55-5.337 2.724-5.357 4.913-.01 1.07.407 2.093 1.188 2.796.788.71 1.894 1.048 3.18.85 3.682-.566 5.221-3.913 4.964-6.958.544.16 1.04.36 1.48.569.66.314 1.187.65 1.546.904a8.043 8.043 0 0 1 .507.389l.022.019.004.003c.27.243.675.214.904-.064a.692.692 0 0 0-.074-.945l-.415.505.415-.505-.002-.002-.003-.003-.01-.009-.036-.03a9.313 9.313 0 0 0-.602-.463 11.878 11.878 0 0 0-1.737-1.016 11.221 11.221 0 0 0-2.261-.798c-.33-1.168-.943-2.254-1.839-3.068-1.19-1.082-2.83-1.641-4.832-1.333-1.884.29-3.288 1.421-4.202 2.435a10.384 10.384 0 0 0-1.305 1.812 6.119 6.119 0 0 0-.088.166l-.006.01-.002.005v.001l.57.314-.57-.313a.69.69 0 0 0 .278.905.623.623 0 0 0 .863-.28Zm10.073.503a8.375 8.375 0 0 0-2.45.012c-3.171.488-4.265 2.28-4.277 3.62-.007.697.263 1.33.736 1.756.466.42 1.182.683 2.146.535 2.937-.452 4.2-3.178 3.86-5.81a5.4 5.4 0 0 0-.015-.113Z" fill="#035970"/><rect x="117.066" y="55.528" width="36.644" height="36.644" rx="3.348" transform="rotate(-79.34 117.066 55.528)" fill="#FFF1CC"/><path fill-rule="evenodd" clip-rule="evenodd" d="M136.098 33.571a.645.645 0 0 0-.761.501l-.308 1.635a.645.645 0 0 0 .527.744.645.645 0 0 0 .761-.501l.19-1.013 4.681.88-2.115 11.233-1.651-.31c-.332-.063-.664.22-.742.633-.077.412.129.797.46.86l2.403.452 2.403.452c.332.063.664-.221.741-.633.078-.413-.128-.797-.46-.86l-1.652-.31L142.69 36.1l4.68.881-.191 1.013a.645.645 0 0 0 .527.743.643.643 0 0 0 .76-.5l.308-1.636a.644.644 0 0 0-.526-.743l-6.075-1.143-6.075-1.144Zm-2.354 4.03c.27.05.449.308.399.576l-.365 1.937 1.961.369c.271.051.449.31.399.577a.496.496 0 0 1-.581.392l-1.961-.37-.365 1.938a.496.496 0 0 1-.581.392.495.495 0 0 1-.399-.577l.364-1.937-1.961-.37a.497.497 0 0 1-.399-.576.497.497 0 0 1 .582-.392l1.961.37.364-1.938a.497.497 0 0 1 .582-.392Z" fill="#035970"/><path fill-rule="evenodd" clip-rule="evenodd" d="M104.612 81.448v8.778l1.663-1.44a.92.92 0 0 1 .603-.225h7.235v-7.113h-9.501Zm-.716-.702a.92.92 0 0 1 .661-.28h9.61c.251 0 .489.102.662.28a.95.95 0 0 1 .267.66v7.197a.95.95 0 0 1-.267.66.923.923 0 0 1-.662.281h-7.265l-1.742 1.508a.924.924 0 0 1-1 .135.933.933 0 0 1-.389-.35.953.953 0 0 1-.142-.501v-8.93c0-.244.094-.482.267-.66Z" fill="#DA6668"/><path d="m7.624 62.453 1.595 4.269a.698.698 0 0 0 .374.4l3.985 1.71c.563.241.563 1.095 0 1.337l-3.985 1.709a.698.698 0 0 0-.374.4l-1.595 4.27a.656.656 0 0 1-1.248 0l-1.595-4.27a.698.698 0 0 0-.374-.4l-3.985-1.71c-.563-.24-.563-1.095 0-1.336l3.985-1.71a.698.698 0 0 0 .374-.4l1.595-4.27a.656.656 0 0 1 1.248 0Z" fill="#8EDEF4"/><path d="m177.637 79.755 1.006 2.793c.043.12.128.215.236.263l2.514 1.118c.355.158.355.716 0 .874l-2.514 1.118a.449.449 0 0 0-.236.263l-1.006 2.793c-.142.395-.645.395-.787 0l-1.007-2.793a.448.448 0 0 0-.236-.263l-2.514-1.118c-.355-.158-.355-.716 0-.874l2.514-1.118a.449.449 0 0 0 .236-.263l1.007-2.793c.142-.395.645-.395.787 0Z" fill="#F2BE38"/><path d="M76.415 17.415a3.758 3.758 0 1 1-5.314-5.314 3.758 3.758 0 0 1 5.314 5.314Z" fill="#FFA585"/><rect x="45.275" y="41.123" width="50.881" height="6.273" rx="3.137" fill="#F4FCFF"/><rect x="45.275" y="63.428" width="66.912" height="6.273" rx="3.137" fill="#F4FCFF"/><rect x="45.275" y="51.578" width="50.881" height="6.273" rx="3.137" fill="#F4FCFF"/><rect x="101.036" y="94.096" width="47.396" height="6.273" rx="3.137" fill="#F4FCFF"/><defs><linearGradient id="a" x1="87" y1="122" x2="55.764" y2="17.086" gradientUnits="userSpaceOnUse"><stop stop-color="#8EDEF4"/><stop offset="1" stop-color="#E2F9FF"/></linearGradient><linearGradient id="b" x1="109" y1="154" x2="101" y2="91" gradientUnits="userSpaceOnUse"><stop stop-color="#8EDEF4"/><stop offset="1" stop-color="#E2F9FF"/></linearGradient></defs></svg>