<svg width="213" height="165" viewBox="0 0 213 165" fill="none" xmlns="http://www.w3.org/2000/svg">
<path d="M46 59.5745L100.934 26.6875C103.966 24.8776 107.74 24.8776 110.773 26.6875L165.706 59.5745V113.179L46 107.172V59.5745Z" fill="url(#paint0_linear_247_9162)"/>
<path d="M152.022 22.5393L76.7507 15.597C73.176 15.2673 70.0109 17.8979 69.6812 21.4725L62.8687 95.3368C62.539 98.9115 65.1695 102.077 68.7442 102.406L144.015 109.349C147.59 109.678 150.755 107.048 151.084 103.473L157.897 29.6088C158.227 26.0341 155.596 22.869 152.022 22.5393Z" fill="url(#paint1_linear_247_9162)"/>
<path d="M165.706 59.4302V119C165.706 125.128 165.706 128.192 163.802 130.096C161.899 132 158.834 132 152.706 132H59C52.8717 132 49.8076 132 47.9038 130.096C46 128.192 46 125.128 46 119V59.4302L105.853 95.2631L165.706 59.4302Z" fill="url(#paint2_linear_247_9162)"/>
<path d="M112.882 93.842C109.879 91.6855 105.835 91.6855 102.831 93.842L49.1639 130.644C49.8319 131.218 52.1621 132 54.3317 132H158.742C159.693 132 161.586 131.367 162.614 130.644L112.882 93.842Z" fill="url(#paint3_linear_247_9162)"/>
<rect x="76.2233" y="59.2861" width="62.0959" height="4.66372" rx="2.33186" transform="rotate(5.27 76.2233 59.2861)" fill="white"/>
<rect x="75.3558" y="67.8171" width="42.0952" height="4.66372" rx="2.33186" transform="rotate(5.27 75.3558 67.8171)" fill="white"/>
<path d="M60.9576 119.679L51.6994 153.626C50.6748 157.383 45.4988 157.768 43.929 154.205L37.7695 140.224C37.3532 139.279 36.5983 138.524 35.6534 138.108L21.5331 131.887C17.9854 130.324 18.3474 125.177 22.0788 124.126L55.8491 114.613C58.9423 113.742 61.8031 116.579 60.9576 119.679Z" fill="#20C9AD"/>
<rect x="4.90714" y="59.8037" width="32.2718" height="32.2718" rx="2.93166" transform="rotate(-98.7462 4.90714 59.8037)" fill="#F4FCFF"/>
<path fill-rule="evenodd" clip-rule="evenodd" d="M11.4524 40.3668L11.4525 40.3664L11.4542 40.3632L11.4651 40.3421C11.4754 40.3223 11.4919 40.2913 11.5145 40.2506C11.5597 40.1693 11.6291 40.0494 11.7224 39.9027C11.9095 39.6085 12.19 39.2105 12.5607 38.7994C13.3081 37.9706 14.3825 37.1314 15.7629 36.919C17.2933 36.6836 18.4518 37.1127 19.2678 37.8547C19.766 38.3078 20.1528 38.8928 20.4159 39.5493C19.7523 39.4918 19.0462 39.5045 18.3077 39.6181C14.9973 40.1274 13.377 42.1352 13.3581 44.1582C13.3489 45.1458 13.7345 46.0916 14.4563 46.7415C15.1837 47.3965 16.2055 47.7098 17.3948 47.5268C20.7964 47.0035 22.218 43.911 21.9808 41.0973C22.4828 41.2458 22.9411 41.4299 23.3474 41.6234C23.9576 41.914 24.4445 42.2232 24.7767 42.4582C24.9426 42.5755 25.0693 42.6738 25.1527 42.7412C25.1945 42.7749 25.2253 42.8009 25.2448 42.8176L25.2655 42.8355L25.2688 42.8384L25.2691 42.8386C25.2693 42.8388 25.2694 42.8389 25.2696 42.839C25.519 43.0629 25.8925 43.0362 26.1041 42.779C26.316 42.5217 26.2855 42.1309 26.036 41.9063L25.6524 42.3723C26.036 41.9063 26.0358 41.9061 26.0356 41.9059L26.0351 41.9055L26.034 41.9045L26.0309 41.9017L26.0213 41.8932C26.0133 41.8862 26.0024 41.8767 25.9885 41.8649C25.9607 41.8411 25.9211 41.8079 25.8702 41.7668C25.7685 41.6845 25.6212 41.5705 25.4324 41.4369C25.0553 41.1702 24.5096 40.824 23.8273 40.499C23.2319 40.2155 22.528 39.9462 21.7384 39.7613C21.4332 38.6823 20.8673 37.6795 20.0395 36.9267C18.9405 35.9273 17.4246 35.4104 15.5746 35.6951C13.8345 35.9628 12.537 37.0087 11.6926 37.945C11.2674 38.4165 10.947 38.8711 10.7322 39.2088C10.6246 39.3781 10.5428 39.519 10.4871 39.6194C10.4592 39.6697 10.4377 39.7099 10.4228 39.7385C10.4153 39.7528 10.4094 39.7642 10.4052 39.7726L10.4 39.7828L10.3984 39.7862L10.3978 39.7874L10.3975 39.7879C10.3974 39.7881 10.3973 39.7883 10.9249 40.0774L10.3973 39.7883C10.2483 40.0903 10.3637 40.4646 10.6551 40.6242C10.9464 40.7838 11.3033 40.6685 11.4524 40.3668ZM20.7587 40.8306C20.0566 40.7318 19.2969 40.7189 18.496 40.8421C15.5655 41.293 14.5549 42.9476 14.5433 44.187C14.5373 44.8306 14.7865 45.4159 15.2235 45.8094C15.6547 46.1977 16.3156 46.4399 17.2065 46.3029C19.9202 45.8854 21.0864 43.3667 20.7731 40.9351C20.7686 40.9002 20.7638 40.8653 20.7587 40.8306Z" fill="#035970"/>
<rect x="167" y="38.333" width="39.0061" height="39.0061" rx="3.54343" transform="rotate(-79.3404 167 38.333)" fill="#F4FCFF"/>
<path fill-rule="evenodd" clip-rule="evenodd" d="M186.659 14.1077C186.283 14.0369 185.923 14.2743 185.854 14.6378L185.529 16.3682C185.46 16.7318 185.71 17.0839 186.086 17.1547C186.462 17.2255 186.823 16.9882 186.891 16.6246L187.093 15.5525L192.046 16.4848L189.808 28.3718L188.06 28.0428C187.709 27.9767 187.358 28.2768 187.276 28.7131C187.194 29.1494 187.412 29.5566 187.763 29.6227L190.305 30.1013L192.848 30.5799C193.199 30.646 193.55 30.3459 193.633 29.9096C193.715 29.4733 193.497 29.066 193.146 29L191.397 28.6709L193.635 16.7839L198.588 17.7161L198.386 18.7882C198.317 19.1518 198.567 19.5039 198.943 19.5747C199.319 19.6455 199.68 19.4082 199.748 19.0446L200.074 17.3142C200.142 16.9506 199.893 16.5985 199.517 16.5277L193.088 15.3177L186.659 14.1077ZM184.168 18.3712C184.455 18.4251 184.644 18.6983 184.59 18.9813L184.204 21.0313L186.28 21.4219C186.566 21.4758 186.755 21.749 186.702 22.0321C186.649 22.3151 186.373 22.5008 186.087 22.4469L184.012 22.0563L183.626 24.1063C183.572 24.3894 183.297 24.5751 183.01 24.5212C182.724 24.4673 182.535 24.1941 182.588 23.9111L182.974 21.8611L180.899 21.4705C180.612 21.4166 180.423 21.1434 180.477 20.8603C180.53 20.5773 180.805 20.3916 181.092 20.4455L183.167 20.8361L183.553 18.7861C183.606 18.503 183.882 18.3173 184.168 18.3712Z" fill="#035970"/>
<rect x="183.892" y="116.15" width="25.8371" height="25.8371" rx="2.34712" transform="rotate(-110.129 183.892 116.15)" fill="#E6F9FF"/>
<path fill-rule="evenodd" clip-rule="evenodd" d="M185.348 97.2218L188.504 105.832L189.618 103.822C189.729 103.621 189.91 103.464 190.128 103.384L197.225 100.783L194.668 93.8057L185.348 97.2218ZM184.393 96.7906C184.499 96.5538 184.695 96.3675 184.941 96.2773L194.368 92.822C194.614 92.7318 194.884 92.7471 195.118 92.8596C195.351 92.9717 195.529 93.1711 195.617 93.4115L198.204 100.471C198.292 100.711 198.285 100.978 198.18 101.214C198.074 101.451 197.878 101.637 197.632 101.728L190.505 104.34L189.338 106.445C189.248 106.608 189.112 106.742 188.946 106.83C188.78 106.918 188.593 106.955 188.406 106.937C188.22 106.919 188.044 106.848 187.898 106.733C187.753 106.619 187.642 106.466 187.579 106.293L184.369 97.5344C184.28 97.2939 184.288 97.0267 184.393 96.7906Z" fill="#035970"/>
<path d="M34.901 46.4248L36.3448 50.4325C36.4066 50.6041 36.529 50.7401 36.6835 50.8088L40.2905 52.4131C40.8 52.6397 40.8 53.4411 40.2905 53.6679L36.6835 55.2722C36.529 55.3409 36.4066 55.4769 36.3448 55.6484L34.901 59.6561C34.6971 60.2222 33.9755 60.2222 33.7717 59.6561L32.3279 55.6484C32.266 55.4768 32.1437 55.3407 31.9892 55.2722L28.3822 53.6679C27.8726 53.4413 27.8726 52.6399 28.3822 52.4131L31.9892 50.8088C32.1437 50.7401 32.266 50.6041 32.3279 50.4325L33.7717 46.4248C33.9755 45.8584 34.6971 45.8584 34.901 46.4248Z" fill="#8EDEF4"/>
<path d="M161.901 121.425L163.345 125.432C163.407 125.604 163.529 125.74 163.683 125.809L167.29 127.413C167.8 127.64 167.8 128.441 167.29 128.668L163.683 130.272C163.529 130.341 163.407 130.477 163.345 130.648L161.901 134.656C161.697 135.222 160.976 135.222 160.772 134.656L159.328 130.648C159.266 130.477 159.144 130.341 158.989 130.272L155.382 128.668C154.873 128.441 154.873 127.64 155.382 127.413L158.989 125.809C159.144 125.74 159.266 125.604 159.328 125.432L160.772 121.425C160.976 120.858 161.697 120.858 161.901 121.425Z" fill="#F2BE38"/>
<path d="M202.975 54.9749C201.608 56.3417 199.392 56.3417 198.025 54.9749C196.658 53.6081 196.658 51.3919 198.025 50.0251C199.392 48.6583 201.608 48.6583 202.975 50.0251C204.342 51.3921 204.342 53.6081 202.975 54.9749Z" fill="#FFA585"/>
<g filter="url(#filter0_i_247_9162)">
<path fill-rule="evenodd" clip-rule="evenodd" d="M129.764 40.2774C129.831 39.3916 129.168 38.619 128.282 38.5517C127.396 38.4845 126.623 39.148 126.556 40.0338L126.434 41.6377L124.83 41.5158C123.945 41.4486 123.172 42.1121 123.105 42.9979C123.037 43.8837 123.701 44.6563 124.587 44.7236L126.191 44.8454L126.069 46.4493C126.002 47.3351 126.665 48.1077 127.551 48.175C128.437 48.2423 129.209 47.5788 129.277 46.693L129.398 45.0891L131.002 45.2109C131.888 45.2782 132.661 44.6146 132.728 43.7288C132.795 42.843 132.132 42.0704 131.246 42.0031L129.642 41.8813L129.764 40.2774Z" fill="#F2385A"/>
</g>
<g filter="url(#filter1_i_247_9162)">
<path fill-rule="evenodd" clip-rule="evenodd" d="M118.11 46.7558C120.522 44.6163 122.137 41.5736 122.401 38.105C122.939 31.0186 117.631 24.8377 110.544 24.2994C103.458 23.7612 97.2771 29.0695 96.7389 36.1559C96.4754 39.6245 97.6127 42.8762 99.6737 45.3554C95.0343 46.2416 91.3749 50.1421 91 55.0776L125.216 57.6764C125.591 52.741 122.563 48.3325 118.11 46.7558Z" fill="#F2385A"/>
</g>
<defs>
<filter id="filter0_i_247_9162" x="123.1" y="38.5471" width="10.7058" height="10.7057" filterUnits="userSpaceOnUse" color-interpolation-filters="sRGB">
<feFlood flood-opacity="0" result="BackgroundImageFix"/>
<feBlend mode="normal" in="SourceGraphic" in2="BackgroundImageFix" result="shape"/>
<feColorMatrix in="SourceAlpha" type="matrix" values="0 0 0 0 0 0 0 0 0 0 0 0 0 0 0 0 0 0 127 0" result="hardAlpha"/>
<feOffset dx="1.0731" dy="1.0731"/>
<feGaussianBlur stdDeviation="1.0731"/>
<feComposite in2="hardAlpha" operator="arithmetic" k2="-1" k3="1"/>
<feColorMatrix type="matrix" values="0 0 0 0 1 0 0 0 0 1 0 0 0 0 1 0 0 0 1 0"/>
<feBlend mode="normal" in2="shape" result="effect1_innerShadow_247_9162"/>
</filter>
<filter id="filter1_i_247_9162" x="91" y="24.262" width="36.2474" height="35.4146" filterUnits="userSpaceOnUse" color-interpolation-filters="sRGB">
<feFlood flood-opacity="0" result="BackgroundImageFix"/>
<feBlend mode="normal" in="SourceGraphic" in2="BackgroundImageFix" result="shape"/>
<feColorMatrix in="SourceAlpha" type="matrix" values="0 0 0 0 0 0 0 0 0 0 0 0 0 0 0 0 0 0 127 0" result="hardAlpha"/>
<feOffset dx="2" dy="2"/>
<feGaussianBlur stdDeviation="2"/>
<feComposite in2="hardAlpha" operator="arithmetic" k2="-1" k3="1"/>
<feColorMatrix type="matrix" values="0 0 0 0 1 0 0 0 0 1 0 0 0 0 1 0 0 0 1 0"/>
<feBlend mode="normal" in2="shape" result="effect1_innerShadow_247_9162"/>
</filter>
<linearGradient id="paint0_linear_247_9162" x1="105.853" y1="25.3301" x2="105.853" y2="113.179" gradientUnits="userSpaceOnUse">
<stop stop-color="#8EDEF4"/>
<stop offset="1" stop-color="#E2F9FF"/>
</linearGradient>
<linearGradient id="paint1_linear_247_9162" x1="114.386" y1="19.0681" x2="112.642" y2="112.351" gradientUnits="userSpaceOnUse">
<stop stop-color="#F2BE38"/>
<stop offset="1" stop-color="#FFF1CC"/>
</linearGradient>
<linearGradient id="paint2_linear_247_9162" x1="105.853" y1="59.4302" x2="105.853" y2="132" gradientUnits="userSpaceOnUse">
<stop stop-color="#8EDEF4"/>
<stop offset="1" stop-color="#E2F9FF"/>
</linearGradient>
<linearGradient id="paint3_linear_247_9162" x1="105.889" y1="92.2246" x2="105.889" y2="132" gradientUnits="userSpaceOnUse">
<stop stop-color="#8EDEF4"/>
<stop offset="1" stop-color="#E2F9FF"/>
</linearGradient>
</defs>
</svg>
