<svg xmlns="http://www.w3.org/2000/svg" width="120" height="120" viewBox="0 0 120 120">
    <g fill="none" fill-rule="evenodd">
        <g>
            <g>
                <g transform="translate(-946 -402) translate(740 354) translate(206 48)">
                    <rect width="120" height="120" fill="#FFBC41" fill-opacity=".199" rx="4"/>
                    <path fill="#FFBC41" fill-opacity=".202" d="M60 0h56c2.21 0 4 1.79 4 4v56H60V0zM0 60h60v60H4c-2.21 0-4-1.79-4-4V60z"/>
                    <g>
                        <g>
                            <path fill="#D48900" fill-rule="nonzero" d="M5.945 26.802L14.178 14.419 27.11 22.758 19.956 41.692z" transform="translate(21 32)"/>
                            <path fill="#D48900" fill-rule="nonzero" d="M49.945 26.802L58.178 14.419 71.11 22.758 63.956 41.692z" transform="translate(21 32) matrix(-1 0 0 1 121.055 0)"/>
                            <path fill="#ECA21A" d="M0 24.779L8.85 55.565 67.849 55.565 77.516 24.779 59.711 30.008 38.414 0 17.441 30.008z" transform="translate(21 32)"/>
                        </g>
                        <path fill="#FFBC41" d="M38.414 0L38.414 55.565 67.849 55.565 77.516 24.779 59.711 30.008z" transform="translate(21 32)"/>
                    </g>
                </g>
            </g>
        </g>
    </g>
</svg>
