<svg width="160" height="161" viewBox="0 0 160 161" fill="none" xmlns="http://www.w3.org/2000/svg">
<g id="Mobile App Download QR Code from Lumin PDF 1" clip-path="url(#clip0_487_10077)">
<path id="Vector" d="M0 0.100098H160V160.1H0V0.100098Z" fill="white"/>
<path id="Vector_2" d="M0 0.100098H33.9394V4.94858H0V0.100098ZM38.7879 0.100098H43.6364V4.94858H38.7879V0.100098ZM53.3333 0.100098H67.8788V4.94858H53.3333V0.100098ZM77.5758 0.100098H106.667V4.94858H77.5758V0.100098ZM111.515 0.100098H116.364V4.94858H111.515V0.100098ZM126.061 0.100098H160V4.94858H126.061V0.100098ZM0 4.94858H4.84848V9.79707H0V4.94858ZM29.0909 4.94858H33.9394V9.79707H29.0909V4.94858ZM38.7879 4.94858H53.3333V9.79707H38.7879V4.94858ZM77.5758 4.94858H82.4242V9.79707H77.5758V4.94858ZM87.2727 4.94858H92.1212V9.79707H87.2727V4.94858ZM111.515 4.94858H116.364V9.79707H111.515V4.94858ZM126.061 4.94858H130.909V9.79707H126.061V4.94858ZM155.152 4.94858H160V9.79707H155.152V4.94858ZM0 9.79707H4.84848V14.6456H0V9.79707ZM9.69697 9.79707H24.2424V14.6456H9.69697V9.79707ZM29.0909 9.79707H33.9394V14.6456H29.0909V9.79707ZM43.6364 9.79707H53.3333V14.6456H43.6364V9.79707ZM63.0303 9.79707H67.8788V14.6456H63.0303V9.79707ZM72.7273 9.79707H82.4242V14.6456H72.7273V9.79707ZM87.2727 9.79707H101.818V14.6456H87.2727V9.79707ZM106.667 9.79707H111.515V14.6456H106.667V9.79707ZM116.364 9.79707H121.212V14.6456H116.364V9.79707ZM126.061 9.79707H130.909V14.6456H126.061V9.79707ZM135.758 9.79707H150.303V14.6456H135.758V9.79707ZM155.152 9.79707H160V14.6456H155.152V9.79707ZM0 14.6456H4.84848V19.494H0V14.6456ZM9.69697 14.6456H24.2424V19.494H9.69697V14.6456ZM29.0909 14.6456H33.9394V19.494H29.0909V14.6456ZM38.7879 14.6456H43.6364V19.494H38.7879V14.6456ZM48.4848 14.6456H58.1818V19.494H48.4848V14.6456ZM72.7273 14.6456H77.5758V19.494H72.7273V14.6456ZM82.4242 14.6456H87.2727V19.494H82.4242V14.6456ZM106.667 14.6456H116.364V19.494H106.667V14.6456ZM126.061 14.6456H130.909V19.494H126.061V14.6456ZM135.758 14.6456H150.303V19.494H135.758V14.6456ZM155.152 14.6456H160V19.494H155.152V14.6456ZM0 19.494H4.84848V24.3425H0V19.494ZM9.69697 19.494H24.2424V24.3425H9.69697V19.494ZM29.0909 19.494H33.9394V24.3425H29.0909V19.494ZM43.6364 19.494H48.4848V24.3425H43.6364V19.494ZM53.3333 19.494H58.1818V24.3425H53.3333V19.494ZM63.0303 19.494H82.4242V24.3425H63.0303V19.494ZM92.1212 19.494H96.9697V24.3425H92.1212V19.494ZM106.667 19.494H111.515V24.3425H106.667V19.494ZM116.364 19.494H121.212V24.3425H116.364V19.494ZM126.061 19.494H130.909V24.3425H126.061V19.494ZM135.758 19.494H150.303V24.3425H135.758V19.494ZM155.152 19.494H160V24.3425H155.152V19.494ZM0 24.3425H4.84848V29.191H0V24.3425ZM29.0909 24.3425H33.9394V29.191H29.0909V24.3425ZM43.6364 24.3425H48.4848V29.191H43.6364V24.3425ZM53.3333 24.3425H58.1818V29.191H53.3333V24.3425ZM67.8788 24.3425H72.7273V29.191H67.8788V24.3425ZM87.2727 24.3425H96.9697V29.191H87.2727V24.3425ZM116.364 24.3425H121.212V29.191H116.364V24.3425ZM126.061 24.3425H130.909V29.191H126.061V24.3425ZM155.152 24.3425H160V29.191H155.152V24.3425ZM0 29.191H33.9394V34.0395H0V29.191ZM38.7879 29.191H43.6364V34.0395H38.7879V29.191ZM48.4848 29.191H53.3333V34.0395H48.4848V29.191ZM58.1818 29.191H63.0303V34.0395H58.1818V29.191ZM67.8788 29.191H72.7273V34.0395H67.8788V29.191ZM77.5758 29.191H82.4242V34.0395H77.5758V29.191ZM87.2727 29.191H92.1212V34.0395H87.2727V29.191ZM96.9697 29.191H101.818V34.0395H96.9697V29.191ZM106.667 29.191H111.515V34.0395H106.667V29.191ZM116.364 29.191H121.212V34.0395H116.364V29.191ZM126.061 29.191H160V34.0395H126.061V29.191ZM38.7879 34.0395H53.3333V38.888H38.7879V34.0395ZM82.4242 34.0395H92.1212V38.888H82.4242V34.0395ZM106.667 34.0395H116.364V38.888H106.667V34.0395ZM0 38.888H4.84848V43.7365H0V38.888ZM9.69697 38.888H19.3939V43.7365H9.69697V38.888ZM24.2424 38.888H38.7879V43.7365H24.2424V38.888ZM43.6364 38.888H58.1818V43.7365H43.6364V38.888ZM67.8788 38.888H72.7273V43.7365H67.8788V38.888ZM77.5758 38.888H92.1212V43.7365H77.5758V38.888ZM96.9697 38.888H111.515V43.7365H96.9697V38.888ZM126.061 38.888H130.909V43.7365H126.061V38.888ZM140.606 38.888H145.455V43.7365H140.606V38.888ZM150.303 38.888H160V43.7365H150.303V38.888ZM0 43.7365H19.3939V48.5849H0V43.7365ZM24.2424 43.7365H29.0909V48.5849H24.2424V43.7365ZM38.7879 43.7365H48.4848V48.5849H38.7879V43.7365ZM58.1818 43.7365H67.8788V48.5849H58.1818V43.7365ZM77.5758 43.7365H82.4242V48.5849H77.5758V43.7365ZM87.2727 43.7365H106.667V48.5849H87.2727V43.7365ZM111.515 43.7365H116.364V48.5849H111.515V43.7365ZM126.061 43.7365H135.758V48.5849H126.061V43.7365ZM140.606 43.7365H150.303V48.5849H140.606V43.7365ZM155.152 43.7365H160V48.5849H155.152V43.7365ZM9.69697 48.5849H33.9394V53.4334H9.69697V48.5849ZM48.4848 48.5849H58.1818V53.4334H48.4848V48.5849ZM63.0303 48.5849H67.8788V53.4334H63.0303V48.5849ZM82.4242 48.5849H87.2727V53.4334H82.4242V48.5849ZM96.9697 48.5849H101.818V53.4334H96.9697V48.5849ZM111.515 48.5849H121.212V53.4334H111.515V48.5849ZM126.061 48.5849H145.455V53.4334H126.061V48.5849ZM150.303 48.5849H160V53.4334H150.303V48.5849ZM4.84848 53.4334H19.3939V58.2819H4.84848V53.4334ZM33.9394 53.4334H43.6364V58.2819H33.9394V53.4334ZM48.4848 53.4334H58.1818V58.2819H48.4848V53.4334ZM72.7273 53.4334H77.5758V58.2819H72.7273V53.4334ZM87.2727 53.4334H101.818V58.2819H87.2727V53.4334ZM106.667 53.4334H111.515V58.2819H106.667V53.4334ZM121.212 53.4334H135.758V58.2819H121.212V53.4334ZM140.606 53.4334H145.455V58.2819H140.606V53.4334ZM155.152 53.4334H160V58.2819H155.152V53.4334ZM0 58.2819H9.69697V63.1304H0V58.2819ZM14.5455 58.2819H33.9394V63.1304H14.5455V58.2819ZM43.6364 58.2819H48.4848V63.1304H43.6364V58.2819ZM58.1818 58.2819H63.0303V63.1304H58.1818V58.2819ZM67.8788 58.2819H72.7273V63.1304H67.8788V58.2819ZM82.4242 58.2819H87.2727V63.1304H82.4242V58.2819ZM92.1212 58.2819H96.9697V63.1304H92.1212V58.2819ZM111.515 58.2819H126.061V63.1304H111.515V58.2819ZM130.909 58.2819H145.455V63.1304H130.909V58.2819ZM4.84848 63.1304H14.5455V67.9789H4.84848V63.1304ZM19.3939 63.1304H29.0909V67.9789H19.3939V63.1304ZM38.7879 63.1304H53.3333V67.9789H38.7879V63.1304ZM63.0303 63.1304H82.4242V67.9789H63.0303V63.1304ZM92.1212 63.1304H96.9697V67.9789H92.1212V63.1304ZM101.818 63.1304H106.667V67.9789H101.818V63.1304ZM116.364 63.1304H121.212V67.9789H116.364V63.1304ZM130.909 63.1304H135.758V67.9789H130.909V63.1304ZM145.455 63.1304H155.152V67.9789H145.455V63.1304ZM14.5455 67.9789H19.3939V72.8274H14.5455V67.9789ZM29.0909 67.9789H53.3333V72.8274H29.0909V67.9789ZM63.0303 67.9789H72.7273V72.8274H63.0303V67.9789ZM77.5758 67.9789H82.4242V72.8274H77.5758V67.9789ZM92.1212 67.9789H96.9697V72.8274H92.1212V67.9789ZM116.364 67.9789H121.212V72.8274H116.364V67.9789ZM126.061 67.9789H135.758V72.8274H126.061V67.9789ZM145.455 67.9789H150.303V72.8274H145.455V67.9789ZM0 72.8274H9.69697V77.6759H0V72.8274ZM14.5455 72.8274H29.0909V77.6759H14.5455V72.8274ZM33.9394 72.8274H38.7879V77.6759H33.9394V72.8274ZM53.3333 72.8274H58.1818V77.6759H53.3333V72.8274ZM63.0303 72.8274H82.4242V77.6759H63.0303V72.8274ZM92.1212 72.8274H111.515V77.6759H92.1212V72.8274ZM121.212 72.8274H130.909V77.6759H121.212V72.8274ZM135.758 72.8274H150.303V77.6759H135.758V72.8274ZM4.84848 77.6759H9.69697V82.5243H4.84848V77.6759ZM19.3939 77.6759H24.2424V82.5243H19.3939V77.6759ZM29.0909 77.6759H33.9394V82.5243H29.0909V77.6759ZM38.7879 77.6759H43.6364V82.5243H38.7879V77.6759ZM53.3333 77.6759H58.1818V82.5243H53.3333V77.6759ZM87.2727 77.6759H111.515V82.5243H87.2727V77.6759ZM121.212 77.6759H130.909V82.5243H121.212V77.6759ZM135.758 77.6759H150.303V82.5243H135.758V77.6759ZM4.84848 82.5243H14.5455V87.3728H4.84848V82.5243ZM19.3939 82.5243H24.2424V87.3728H19.3939V82.5243ZM38.7879 82.5243H43.6364V87.3728H38.7879V82.5243ZM48.4848 82.5243H58.1818V87.3728H48.4848V82.5243ZM72.7273 82.5243H82.4242V87.3728H72.7273V82.5243ZM96.9697 82.5243H130.909V87.3728H96.9697V82.5243ZM135.758 82.5243H145.455V87.3728H135.758V82.5243ZM150.303 82.5243H160V87.3728H150.303V82.5243ZM4.84848 87.3728H9.69697V92.2213H4.84848V87.3728ZM19.3939 87.3728H38.7879V92.2213H19.3939V87.3728ZM48.4848 87.3728H63.0303V92.2213H48.4848V87.3728ZM72.7273 87.3728H77.5758V92.2213H72.7273V87.3728ZM101.818 87.3728H111.515V92.2213H101.818V87.3728ZM116.364 87.3728H121.212V92.2213H116.364V87.3728ZM126.061 87.3728H140.606V92.2213H126.061V87.3728ZM145.455 87.3728H155.152V92.2213H145.455V87.3728ZM4.84848 92.2213H9.69697V97.0698H4.84848V92.2213ZM24.2424 92.2213H29.0909V97.0698H24.2424V92.2213ZM38.7879 92.2213H53.3333V97.0698H38.7879V92.2213ZM63.0303 92.2213H87.2727V97.0698H63.0303V92.2213ZM92.1212 92.2213H96.9697V97.0698H92.1212V92.2213ZM106.667 92.2213H111.515V97.0698H106.667V92.2213ZM121.212 92.2213H130.909V97.0698H121.212V92.2213ZM135.758 92.2213H140.606V97.0698H135.758V92.2213ZM150.303 92.2213H155.152V97.0698H150.303V92.2213ZM0 97.0698H4.84848V101.918H0V97.0698ZM19.3939 97.0698H33.9394V101.918H19.3939V97.0698ZM38.7879 97.0698H43.6364V101.918H38.7879V97.0698ZM53.3333 97.0698H63.0303V101.918H53.3333V97.0698ZM67.8788 97.0698H72.7273V101.918H67.8788V97.0698ZM77.5758 97.0698H87.2727V101.918H77.5758V97.0698ZM101.818 97.0698H106.667V101.918H101.818V97.0698ZM140.606 97.0698H150.303V101.918H140.606V97.0698ZM155.152 97.0698H160V101.918H155.152V97.0698ZM0 101.918H9.69697V106.767H0V101.918ZM14.5455 101.918H19.3939V106.767H14.5455V101.918ZM24.2424 101.918H29.0909V106.767H24.2424V101.918ZM38.7879 101.918H58.1818V106.767H38.7879V101.918ZM63.0303 101.918H67.8788V106.767H63.0303V101.918ZM77.5758 101.918H106.667V106.767H77.5758V101.918ZM111.515 101.918H121.212V106.767H111.515V101.918ZM126.061 101.918H130.909V106.767H126.061V101.918ZM145.455 101.918H150.303V106.767H145.455V101.918ZM155.152 101.918H160V106.767H155.152V101.918ZM9.69697 106.767H14.5455V111.615H9.69697V106.767ZM19.3939 106.767H48.4848V111.615H19.3939V106.767ZM58.1818 106.767H72.7273V111.615H58.1818V106.767ZM77.5758 106.767H82.4242V111.615H77.5758V106.767ZM87.2727 106.767H92.1212V111.615H87.2727V106.767ZM111.515 106.767H126.061V111.615H111.515V106.767ZM130.909 106.767H135.758V111.615H130.909V106.767ZM145.455 106.767H160V111.615H145.455V106.767ZM4.84848 111.615H9.69697V116.464H4.84848V111.615ZM24.2424 111.615H29.0909V116.464H24.2424V111.615ZM38.7879 111.615H43.6364V116.464H38.7879V111.615ZM48.4848 111.615H53.3333V116.464H48.4848V111.615ZM58.1818 111.615H77.5758V116.464H58.1818V111.615ZM96.9697 111.615H101.818V116.464H96.9697V111.615ZM116.364 111.615H121.212V116.464H116.364V111.615ZM130.909 111.615H135.758V116.464H130.909V111.615ZM0 116.464H4.84848V121.312H0V116.464ZM29.0909 116.464H33.9394V121.312H29.0909V116.464ZM43.6364 116.464H53.3333V121.312H43.6364V116.464ZM58.1818 116.464H63.0303V121.312H58.1818V116.464ZM82.4242 116.464H87.2727V121.312H82.4242V116.464ZM106.667 116.464H111.515V121.312H106.667V116.464ZM116.364 116.464H140.606V121.312H116.364V116.464ZM150.303 116.464H160V121.312H150.303V116.464ZM38.7879 121.312H43.6364V126.161H38.7879V121.312ZM53.3333 121.312H58.1818V126.161H53.3333V121.312ZM67.8788 121.312H82.4242V126.161H67.8788V121.312ZM87.2727 121.312H101.818V126.161H87.2727V121.312ZM106.667 121.312H121.212V126.161H106.667V121.312ZM135.758 121.312H145.455V126.161H135.758V121.312ZM0 126.161H33.9394V131.009H0V126.161ZM38.7879 126.161H67.8788V131.009H38.7879V126.161ZM77.5758 126.161H82.4242V131.009H77.5758V126.161ZM87.2727 126.161H96.9697V131.009H87.2727V126.161ZM111.515 126.161H121.212V131.009H111.515V126.161ZM126.061 126.161H130.909V131.009H126.061V126.161ZM135.758 126.161H140.606V131.009H135.758V126.161ZM150.303 126.161H155.152V131.009H150.303V126.161ZM0 131.009H4.84848V135.858H0V131.009ZM29.0909 131.009H33.9394V135.858H29.0909V131.009ZM38.7879 131.009H48.4848V135.858H38.7879V131.009ZM58.1818 131.009H63.0303V135.858H58.1818V131.009ZM72.7273 131.009H82.4242V135.858H72.7273V131.009ZM101.818 131.009H106.667V135.858H101.818V131.009ZM111.515 131.009H121.212V135.858H111.515V131.009ZM135.758 131.009H155.152V135.858H135.758V131.009ZM0 135.858H4.84848V140.706H0V135.858ZM9.69697 135.858H24.2424V140.706H9.69697V135.858ZM29.0909 135.858H33.9394V140.706H29.0909V135.858ZM43.6364 135.858H48.4848V140.706H43.6364V135.858ZM67.8788 135.858H72.7273V140.706H67.8788V135.858ZM87.2727 135.858H92.1212V140.706H87.2727V135.858ZM101.818 135.858H140.606V140.706H101.818V135.858ZM145.455 135.858H155.152V140.706H145.455V135.858ZM0 140.706H4.84848V145.555H0V140.706ZM9.69697 140.706H24.2424V145.555H9.69697V140.706ZM29.0909 140.706H33.9394V145.555H29.0909V140.706ZM38.7879 140.706H48.4848V145.555H38.7879V140.706ZM53.3333 140.706H63.0303V145.555H53.3333V140.706ZM72.7273 140.706H77.5758V145.555H72.7273V140.706ZM96.9697 140.706H101.818V145.555H96.9697V140.706ZM106.667 140.706H121.212V145.555H106.667V140.706ZM130.909 140.706H135.758V145.555H130.909V140.706ZM140.606 140.706H150.303V145.555H140.606V140.706ZM155.152 140.706H160V145.555H155.152V140.706ZM0 145.555H4.84848V150.403H0V145.555ZM9.69697 145.555H24.2424V150.403H9.69697V145.555ZM29.0909 145.555H33.9394V150.403H29.0909V145.555ZM38.7879 145.555H43.6364V150.403H38.7879V145.555ZM48.4848 145.555H53.3333V150.403H48.4848V145.555ZM63.0303 145.555H67.8788V150.403H63.0303V145.555ZM72.7273 145.555H82.4242V150.403H72.7273V145.555ZM87.2727 145.555H92.1212V150.403H87.2727V145.555ZM96.9697 145.555H106.667V150.403H96.9697V145.555ZM111.515 145.555H116.364V150.403H111.515V145.555ZM126.061 145.555H135.758V150.403H126.061V145.555ZM140.606 145.555H150.303V150.403H140.606V145.555ZM0 150.403H4.84848V155.252H0V150.403ZM29.0909 150.403H33.9394V155.252H29.0909V150.403ZM43.6364 150.403H48.4848V155.252H43.6364V150.403ZM53.3333 150.403H63.0303V155.252H53.3333V150.403ZM77.5758 150.403H87.2727V155.252H77.5758V150.403ZM92.1212 150.403H96.9697V155.252H92.1212V150.403ZM111.515 150.403H126.061V155.252H111.515V150.403ZM130.909 150.403H140.606V155.252H130.909V150.403ZM155.152 150.403H160V155.252H155.152V150.403ZM0 155.252H33.9394V160.1H0V155.252ZM38.7879 155.252H48.4848V160.1H38.7879V155.252ZM53.3333 155.252H67.8788V160.1H53.3333V155.252ZM72.7273 155.252H92.1212V160.1H72.7273V155.252ZM96.9697 155.252H106.667V160.1H96.9697V155.252ZM111.515 155.252H116.364V160.1H111.515V155.252ZM121.212 155.252H126.061V160.1H121.212V155.252ZM135.758 155.252H140.606V160.1H135.758V155.252ZM145.455 155.252H150.303V160.1H145.455V155.252Z" fill="black"/>
</g>
<defs>
<clipPath id="clip0_487_10077">
<rect width="160" height="160" fill="white" transform="translate(0 0.100098)"/>
</clipPath>
</defs>
</svg>
