<svg width="71" height="72" viewBox="0 0 71 72" fill="none" xmlns="http://www.w3.org/2000/svg">
<path d="M23.4417 35.1321C23.4417 35.1321 30.502 32.5686 32.6656 28.2922C33.4241 26.7918 34.2176 25.231 34.9272 23.8373C36.1546 21.4278 39.7041 21.7428 40.4731 24.3359C40.9788 26.0411 41.1258 28.1286 40.3944 30.5284C38.2771 37.4698 41.1993 40.3928 41.1993 40.3928L23.4417 35.1321Z" fill="#FFCFC2"/>
<path d="M55.6463 39.7412C55.6463 38.519 55.1608 37.3469 54.2967 36.4826C53.4325 35.6182 52.2605 35.1326 51.0383 35.1323H15.4714V57.9529C15.4714 65.7114 21.7601 72.0001 29.5195 72.0001H51.0383C52.2604 72.0001 53.4325 71.5146 54.2966 70.6504C55.1608 69.7863 55.6463 68.6142 55.6463 67.3921C55.6463 66.1699 55.1608 64.9979 54.2966 64.1337C53.4325 63.2695 52.2604 62.784 51.0383 62.784C52.2605 62.784 53.4327 62.2985 54.2969 61.4342C55.1612 60.57 55.6467 59.3978 55.6467 58.1756C55.6467 56.9533 55.1612 55.7811 54.2969 54.9169C53.4327 54.0526 52.2605 53.5671 51.0383 53.5671C52.2606 53.5671 53.4329 53.0815 54.2972 52.2172C55.1616 51.3528 55.6472 50.1805 55.6472 48.9582C55.6472 47.7358 55.1616 46.5635 54.2972 45.6992C53.4329 44.8349 52.2606 44.3493 51.0383 44.3493C52.2604 44.3493 53.4325 43.8638 54.2966 42.9996C55.1608 42.1354 55.6463 40.9634 55.6463 39.7412Z" fill="#FFE2D9"/>
<path d="M29.2064 64.9169C17.126 60.5049 16.6666 37.8794 16.6666 37.8794H15.4724V57.9519C15.4724 65.7105 21.7611 72 29.5205 72H40.0104C37.7812 69.5101 34.3612 66.7997 29.2073 64.9169H29.2064Z" fill="#FFCFC2"/>
<path d="M5.74189 69.6755H10.9247C11.6787 69.6755 12.4253 69.527 13.1219 69.2384C13.8185 68.9499 14.4514 68.5269 14.9845 67.9937C15.5177 67.4605 15.9405 66.8275 16.229 66.1309C16.5174 65.4343 16.6659 64.6876 16.6657 63.9336V38.6319C16.6657 37.7037 16.297 36.8136 15.6407 36.1573C14.9845 35.501 14.0943 35.1323 13.1662 35.1323H5.74189C4.98782 35.1322 4.24112 35.2807 3.54443 35.5692C2.84774 35.8577 2.21471 36.2806 1.6815 36.8138C1.1483 37.347 0.725358 37.9801 0.436841 38.6768C0.148325 39.3734 -0.000114856 40.1201 6.66795e-08 40.8742V63.9336C-0.000114856 64.6877 0.148325 65.4344 0.436841 66.1311C0.725358 66.8278 1.1483 67.4608 1.6815 67.994C2.21471 68.5272 2.84774 68.9502 3.54443 69.2387C4.24112 69.5272 4.98782 69.6756 5.74189 69.6755Z" fill="#E6F9FF"/>
<path d="M5.74189 35.1323C4.98782 35.1322 4.24112 35.2807 3.54443 35.5692C2.84774 35.8577 2.21471 36.2806 1.6815 36.8138C1.1483 37.347 0.725358 37.9801 0.436841 38.6768C0.148325 39.3734 -0.000114856 40.1201 6.66795e-08 40.8742V63.9336C-0.000114856 64.6877 0.148325 65.4344 0.436841 66.1311C0.725358 66.8278 1.1483 67.4608 1.6815 67.994C2.21471 68.5272 2.84774 68.9502 3.54443 69.2387C4.24112 69.5272 4.98782 69.6756 5.74189 69.6755H6.49079C6.94049 68.8138 7.72439 67.7473 9.08921 66.7394C12.0726 64.5373 11.6929 60.4927 11.6929 60.4927C11.6929 60.4927 6.2432 52.3589 5.54854 46.5242C4.85388 40.6905 8.33331 35.1323 8.33331 35.1323H5.74189Z" fill="#4690A4"/>
<path d="M13.7183 61.3613C13.7183 62.2523 13.3643 63.1068 12.7343 63.7369C12.1042 64.3669 11.2497 64.7208 10.3587 64.7208C9.4677 64.7208 8.61318 64.3669 7.98314 63.7369C7.3531 63.1068 6.99915 62.2523 6.99915 61.3613C6.99915 60.4703 7.3531 59.6157 7.98314 58.9857C8.61318 58.3557 9.4677 58.0017 10.3587 58.0017C11.2497 58.0017 12.1042 58.3557 12.7343 58.9857C13.3643 59.6157 13.7183 60.4703 13.7183 61.3613Z" fill="#102D42"/>
<path fill-rule="evenodd" clip-rule="evenodd" d="M57.7181 1.54877L59.0531 4.25392C59.3909 4.93807 59.8899 5.52987 60.5072 5.9784C61.1244 6.42692 61.8414 6.71874 62.5964 6.82872L65.5833 7.26266C67.8606 7.59337 68.7696 10.393 67.1222 11.9993L64.9613 14.1052C64.4149 14.6377 64.0062 15.2952 63.7704 16.0208C63.5347 16.7464 63.4789 17.5185 63.6078 18.2705L64.1179 21.2451C64.5072 23.5137 62.1257 25.2434 60.089 24.1716L57.418 22.7674C56.7425 22.4124 55.9908 22.2269 55.2277 22.2269C54.4646 22.2269 53.7129 22.4124 53.0374 22.7674L50.3673 24.1716C48.3305 25.2434 45.9491 23.5137 46.3384 21.2451L46.8476 18.2705C46.9767 17.5186 46.921 16.7465 46.6853 16.0209C46.4497 15.2953 46.0412 14.6378 45.495 14.1052L43.334 11.9993C41.6857 10.393 42.5947 7.59337 44.873 7.26266L47.8589 6.82872C48.614 6.71888 49.3311 6.42712 49.9483 5.97858C50.5656 5.53004 51.0646 4.93816 51.4022 4.25392L52.7382 1.5479C53.7566 -0.515965 56.6997 -0.515965 57.7181 1.5479V1.54877Z" fill="#FFBC41"/>
<path d="M25.1225 13.1235L25.6002 13.9957C26.0764 14.867 26.7927 15.5833 27.664 16.0596L28.5363 16.5373C29.4304 17.0264 29.4304 18.3098 28.5363 18.798L27.664 19.2757C26.7927 19.7518 26.0761 20.4677 25.5993 21.3387L25.1225 22.2118C24.6343 23.106 23.3508 23.106 22.8618 22.2118L22.3841 21.3387C21.9079 20.4678 21.1919 19.7519 20.3211 19.2757L19.4479 18.798C18.5538 18.3098 18.5538 17.0264 19.4479 16.5373L20.3211 16.0596C21.192 15.5832 21.908 14.8669 22.3841 13.9957L22.8618 13.1235C23.3508 12.2293 24.6343 12.2293 25.1225 13.1235Z" fill="#8EDEF4"/>
<path d="M66.5045 32.9964L66.9822 33.8696C67.4584 34.7407 68.1743 35.4569 69.0452 35.9334L69.9184 36.4102C70.8116 36.9002 70.8116 38.1828 69.9184 38.6709L69.0452 39.1486C68.1743 39.6251 67.4583 40.3414 66.9822 41.2125L66.5045 42.0856C66.3937 42.2886 66.2303 42.458 66.0314 42.5761C65.8325 42.6941 65.6055 42.7564 65.3742 42.7564C65.1429 42.7564 64.9159 42.6941 64.717 42.5761C64.5181 42.458 64.3547 42.2886 64.2438 42.0856L63.7662 41.2125C63.2898 40.3413 62.5735 39.625 61.7023 39.1486L60.83 38.6709C59.9359 38.1828 59.9359 36.8993 60.83 36.4102L61.7023 35.9334C62.5738 35.4572 63.2904 34.7409 63.767 33.8696L64.2438 32.9964C64.3547 32.7934 64.5181 32.624 64.717 32.506C64.9159 32.388 65.1429 32.3257 65.3742 32.3257C65.6055 32.3257 65.8325 32.388 66.0314 32.506C66.2303 32.624 66.3937 32.7934 66.5045 32.9964Z" fill="#77C2D7"/>
</svg>
