<?xml version="1.0" encoding="UTF-8"?>
<svg width="18px" height="20px" viewBox="0 0 18 20" version="1.1" xmlns="http://www.w3.org/2000/svg" xmlns:xlink="http://www.w3.org/1999/xlink">
    <title>Arrow</title>
    <g id="New-Pricing" stroke="none" stroke-width="1" fill="none" fill-rule="evenodd">
        <g id="[Web]-Pricing_Organization_Yearly" transform="translate(-771.000000, -1174.000000)" fill="#ED3D48">
            <path d="M789.325564,1187.35275 C787.081238,1191.3392 781.884808,1192.32655 778.26122,1189.79646 C774.498496,1187.16763 773.712075,1182.29874 774.45615,1177.94821 C774.940102,1178.97259 775.405905,1180.00931 775.980598,1181.00284 C776.537142,1181.97168 778.043442,1181.07689 777.4627,1180.12039 C776.525044,1178.57765 775.514795,1176.98554 774.75862,1175.35641 C774.546891,1174.88741 773.954051,1174.93061 773.639482,1175.20213 C772.314664,1176.33759 771.074538,1177.5903 770.088487,1179.04047 C769.967499,1179.23177 769.973548,1179.52798 770.088487,1179.71928 C770.167129,1179.83652 770.221574,1179.92909 770.36071,1179.98463 C770.403055,1179.99697 770.439352,1180.01548 770.481698,1180.02782 C770.693426,1180.10188 770.971699,1180.01548 771.122934,1179.85504 C771.75812,1179.17623 772.423554,1178.52828 773.064789,1177.86182 C771.491947,1182.91583 772.883308,1188.63014 777.547391,1191.59838 C781.902956,1194.38148 788.400006,1192.99918 789.984948,1187.63662 C790.099887,1187.23551 789.525194,1186.98867 789.325564,1187.35275" id="Arrow" transform="translate(780.000000, 1184.000000) rotate(-90.000000) translate(-780.000000, -1184.000000) "></path>
        </g>
    </g>
</svg>