<svg xmlns="http://www.w3.org/2000/svg" width="25" height="18" viewBox="0 0 25 18">
    <g fill="none" fill-rule="evenodd">
        <g fill="#ED3D48">
            <g>
                <path d="M98.49 21.176c1.305.67 2.61.237 3.647-.72 2.387-2.217 3.764-5.54 5.122-8.462 1.37-2.963 2.413-5.974 3.292-9.08.079.875.216 1.736.262 2.618.053 1.119 1.738 1.125 1.686 0-.092-1.94-.453-3.866-.872-5.757-.105-.455-.656-.672-1.03-.434-1.24.78-2.597 1.512-3.699 2.481-.138.123-.19.36-.138.53.013.054.027.121.066.169.02.02.046.047.072.068.118.135.341.21.505.142.86-.332 1.686-.807 2.499-1.302-1.568 3.113-3.083 6.232-4.525 9.426-.742 1.648-1.483 3.309-2.381 4.882-.44.794-.925 1.567-1.495 2.272-.453.563-1.109 1.526-1.929 1.281-1.436-.427-1.73-3.356-1.987-4.597-.393-1.872-.596-3.77-.754-5.676-.328-3.92.053-7.873-.315-11.779-.072-.773-1.252-1.091-1.416-.196-.643 3.438-.65 7.066-.558 10.558.092 3.485.538 7.059 1.627 10.368.433 1.302 1.082 2.577 2.321 3.208" transform="translate(-1056 -234) translate(965 234) matrix(0 1 1 0 94.5 -94.5)"/>
            </g>
        </g>
    </g>
</svg>
