<svg width="63" height="44" viewBox="0 0 63 44" fill="none" xmlns="http://www.w3.org/2000/svg">
<mask id="mask0_1868_8570" style="mask-type:alpha" maskUnits="userSpaceOnUse" x="0" y="0" width="63" height="44">
<path d="M0 0H62.9895V44H0V0Z" fill="white"/>
</mask>
<g mask="url(#mask0_1868_8570)">
<path fill-rule="evenodd" clip-rule="evenodd" d="M26.1542 4.81732C28.1874 2.70068 31.0173 1.38995 34.1437 1.38995C38.3121 1.38995 41.9247 3.70574 43.87 7.15626C45.5967 6.38435 47.467 5.98583 49.3584 5.98679C56.8615 5.98679 62.9521 12.1236 62.9521 19.6963C62.9521 27.2689 56.8615 33.4057 49.3584 33.4057C48.4413 33.4057 47.5474 33.3136 46.6721 33.1394C44.97 36.1731 41.7163 38.2342 38.011 38.2342C36.5025 38.2371 35.0132 37.8949 33.6573 37.2337C31.9321 41.2864 27.9142 44.1348 23.2363 44.1348C18.35 44.1348 14.2047 41.0548 12.6068 36.7243C11.8956 36.8743 11.1707 36.9498 10.4439 36.9494C4.63123 36.9494 -0.0698242 32.1788 -0.0698242 26.3199C-0.0698242 22.383 2.04681 18.9557 5.18702 17.103C4.52082 15.5684 4.17791 13.9129 4.17965 12.2399C4.17965 5.47778 9.66807 0.012516 16.4302 0.012516C20.3902 0.012516 23.9333 1.89988 26.1565 4.82936" fill="#618298"/>
<path fill-rule="evenodd" clip-rule="evenodd" d="M9.11076 22.8807C9.07116 22.984 9.12488 23.0055 9.13762 23.0238C9.25596 23.1095 9.37615 23.1715 9.49657 23.2412C10.1404 23.5817 10.7471 23.6812 11.3816 23.6812C12.6738 23.6812 13.4774 22.9935 13.4774 21.8865V21.8647C13.4774 20.8412 12.5696 20.4683 11.722 20.202L11.6111 20.1661C10.9696 19.9582 10.4162 19.7771 10.4162 19.3556V19.334C10.4162 18.9728 10.7404 18.7065 11.2406 18.7065C11.7964 18.7065 12.4587 18.8915 12.8825 19.1256C12.8825 19.1256 13.008 19.2067 13.0536 19.0856C13.0784 19.02 13.2945 18.4418 13.3176 18.3769C13.3422 18.3091 13.2991 18.2579 13.2549 18.2315C12.7685 17.9351 12.097 17.7336 11.4022 17.7336L11.2732 17.7341C10.0899 17.7341 9.26314 18.4496 9.26314 19.4732V19.4952C9.26314 20.5744 10.1756 20.9264 11.0278 21.1695L11.1649 21.2122C11.7855 21.403 12.3228 21.5688 12.3228 22.0042V22.0259C12.3228 22.4266 11.9731 22.7253 11.4127 22.7253C11.1947 22.7253 10.5002 22.7216 9.7476 22.2459C9.65659 22.1929 9.60472 22.1547 9.53455 22.1118C9.49749 22.0894 9.40486 22.0488 9.36457 22.1702L9.10983 22.8788L9.11076 22.8807ZM28.0298 22.8788C27.9902 22.9821 28.044 23.0036 28.0572 23.0219C28.175 23.1076 28.2957 23.1697 28.4161 23.2394C29.0599 23.5798 29.6666 23.6794 30.3012 23.6794C31.5934 23.6794 32.3969 22.9916 32.3969 21.8847V21.8629C32.3969 20.8393 31.4915 20.4665 30.6416 20.2002L30.5307 20.1643C29.8892 19.9563 29.3357 19.7752 29.3357 19.3537V19.3322C29.3357 18.9709 29.6599 18.7046 30.1601 18.7046C30.7159 18.7046 31.3759 18.8896 31.802 19.1238C31.802 19.1238 31.9275 19.2048 31.9734 19.0837C31.9979 19.0182 32.2142 18.4399 32.2351 18.3751C32.2599 18.3072 32.2165 18.256 32.1725 18.2296C31.6862 17.9332 31.0147 17.7318 30.3199 17.7318L30.1907 17.7322C29.0073 17.7322 28.1806 18.4478 28.1806 19.4714V19.4934C28.1806 20.5725 29.093 20.9245 29.9452 21.1677L30.0821 21.2103C30.705 21.4011 31.24 21.5669 31.24 22.0023V22.0241C31.24 22.4247 30.8903 22.7234 30.3299 22.7234C30.1115 22.7234 29.4151 22.7197 28.6648 22.2441C28.5738 22.191 28.5205 22.1544 28.4515 22.11C28.4281 22.0952 28.3191 22.0526 28.2818 22.1683L28.0271 22.877L28.0298 22.8788ZM40.9492 20.7094C40.9492 21.3347 40.8324 21.8279 40.6041 22.1776C40.3762 22.5227 40.0321 22.6917 39.5527 22.6917C39.0734 22.6917 38.7306 22.524 38.506 22.1799C38.2797 21.8326 38.1656 21.337 38.1656 20.7117C38.1656 20.0864 38.2804 19.5955 38.506 19.2504C38.7302 18.9077 39.0711 18.7433 39.5527 18.7433C40.0344 18.7433 40.3772 18.9093 40.6041 19.2504C40.8338 19.5955 40.9492 20.0864 40.9492 20.7117V20.7094ZM42.0283 19.5515C41.922 19.1926 41.7574 18.8776 41.5374 18.6136C41.3171 18.3496 41.0395 18.1366 40.7083 17.9837C40.3795 17.8297 39.9904 17.7521 39.5504 17.7521C39.1104 17.7521 38.7237 17.8302 38.3925 17.9837C38.0637 18.1375 37.7835 18.3496 37.5635 18.6136C37.3439 18.8776 37.1791 19.1926 37.0725 19.5515C36.9672 19.9081 36.9137 20.2972 36.9137 20.7117C36.9137 21.1262 36.9672 21.5153 37.0725 21.8719C37.1784 22.2309 37.3435 22.5458 37.5635 22.8098C37.7837 23.0738 38.0637 23.2846 38.3925 23.4351C38.7237 23.5851 39.1127 23.6616 39.5504 23.6616C39.9881 23.6616 40.3772 23.5851 40.706 23.4351C41.0348 23.285 41.3151 23.0738 41.5351 22.8098C41.7548 22.5458 41.9195 22.2309 42.026 21.8719C42.1311 21.5153 42.1846 21.1262 42.1846 20.7117C42.1846 20.2995 42.1311 19.9081 42.026 19.5515H42.0283ZM50.8955 22.5157C50.86 22.4108 50.7577 22.4504 50.7577 22.4504C50.6009 22.5104 50.4335 22.566 50.2552 22.5938C50.0755 22.622 49.8754 22.6361 49.6646 22.6361C49.1436 22.6361 48.7267 22.4807 48.4303 22.173C48.1316 21.865 47.9648 21.3694 47.9672 20.6978C47.9688 20.0864 48.1165 19.6279 48.3817 19.2759C48.6434 18.9286 49.0463 18.7479 49.5789 18.7479C50.0236 18.7479 50.364 18.7996 50.7206 18.9112C50.7206 18.9112 50.8052 18.948 50.8457 18.8366C50.9404 18.5749 51.0103 18.3874 51.112 18.1002C51.1407 18.018 51.0703 17.9832 51.0446 17.9733C50.9047 17.9186 50.5745 17.829 50.3244 17.7913C50.0905 17.7556 49.8196 17.7371 49.5139 17.7371C49.06 17.7371 48.657 17.8147 48.312 17.9684C47.9669 18.122 47.6751 18.3343 47.4436 18.5983C47.212 18.8623 47.036 19.1773 46.9179 19.5362C46.8009 19.8928 46.7419 20.2842 46.7419 20.6987C46.7419 21.5926 46.9827 22.3175 47.4598 22.8478C47.9368 23.3804 48.6547 23.6491 49.5903 23.6491C50.1438 23.6491 50.7111 23.5372 51.1187 23.3758C51.1187 23.3758 51.1965 23.3383 51.1627 23.2475L50.8964 22.5157H50.8955ZM52.7838 20.1073C52.8354 19.7599 52.9306 19.4704 53.0802 19.2458C53.3041 18.9031 53.6452 18.7155 54.1246 18.7155C54.604 18.7155 54.9212 18.904 55.1482 19.2458C55.2987 19.4716 55.3645 19.7715 55.389 20.1073L52.7722 20.1068L52.7838 20.1073ZM56.4196 19.3431C56.3276 18.998 56.1 18.6483 55.9518 18.4886C55.7156 18.2361 55.4863 18.0578 55.257 17.9606C54.926 17.8198 54.57 17.7476 54.2103 17.7482C53.7541 17.7482 53.3396 17.8253 53.0038 17.9821C52.668 18.14 52.3855 18.3549 52.1631 18.6236C51.9411 18.8922 51.7741 19.2095 51.6676 19.573C51.561 19.932 51.5073 20.3257 51.5073 20.7379C51.5073 21.1594 51.5631 21.5507 51.6729 21.905C51.7838 22.2617 51.9624 22.5743 52.2032 22.8337C52.444 23.0954 52.752 23.2991 53.1226 23.4427C53.4908 23.5851 53.9377 23.659 54.4495 23.6574C55.5055 23.6539 56.0613 23.4189 56.2883 23.2915C56.3288 23.2688 56.367 23.2297 56.3193 23.1169L56.0808 22.4476C56.0442 22.3478 55.9432 22.3839 55.9432 22.3839C55.6815 22.4817 55.311 22.6572 54.4426 22.6549C53.8752 22.654 53.456 22.4865 53.192 22.2242C52.9234 21.9555 52.7891 21.5642 52.7683 21.0084L56.4272 21.0111C56.4272 21.0111 56.5235 21.0102 56.5335 20.9162C56.5374 20.8773 56.6588 20.1659 56.4244 19.3438L56.4196 19.3431ZM23.5353 20.1073C23.587 19.7599 23.6824 19.4704 23.8318 19.2458C24.0559 18.9031 24.3968 18.7155 24.8762 18.7155C25.3556 18.7155 25.6728 18.904 25.8998 19.2458C26.0501 19.4716 26.1158 19.7715 26.1406 20.1073L23.5238 20.1068L23.5353 20.1073ZM27.1711 19.3431C27.0794 18.998 26.8516 18.6483 26.7033 18.4886C26.4671 18.2361 26.2379 18.0578 26.0086 17.9606C25.6776 17.8198 25.3215 17.7476 24.9619 17.7482C24.5057 17.7482 24.0911 17.8253 23.7553 17.9821C23.4196 18.14 23.137 18.3549 22.9147 18.6236C22.6931 18.8922 22.5257 19.2095 22.4191 19.573C22.3128 19.932 22.2593 20.3257 22.2593 20.7379C22.2593 21.1594 22.3147 21.5507 22.4252 21.905C22.5359 22.2617 22.7146 22.5743 22.9532 22.8337C23.194 23.0954 23.502 23.2991 23.8725 23.4427C24.2407 23.5851 24.6854 23.659 25.1995 23.6574C26.2555 23.6539 26.8113 23.4189 27.0382 23.2915C27.0785 23.2688 27.1169 23.2297 27.069 23.1169L26.8305 22.4476C26.7937 22.3478 26.6927 22.3839 26.6927 22.3839C26.431 22.4817 26.0605 22.6572 25.1921 22.6549C24.627 22.654 24.2055 22.4865 23.9415 22.2242C23.6729 21.9555 23.5386 21.5642 23.5177 21.0084L27.1767 21.0111C27.1767 21.0111 27.273 21.0102 27.283 20.9162C27.2869 20.8773 27.4083 20.1659 27.1737 19.3438L27.1711 19.3431ZM15.6385 22.4926C15.4952 22.3782 15.4752 22.3501 15.4278 22.2758C15.3553 22.1639 15.3182 22.0048 15.3182 21.8011C15.3182 21.4815 15.4248 21.2499 15.6448 21.0947C15.6424 21.0952 15.9597 20.8215 16.7054 20.8307C17.0373 20.8367 17.3684 20.8649 17.6965 20.9153V22.5757H17.697C17.697 22.5757 17.2339 22.6755 16.7105 22.707C15.9671 22.7517 15.6383 22.493 15.6406 22.4937L15.6385 22.4926ZM17.0928 19.922C16.9446 19.9111 16.7524 19.9058 16.5231 19.9058C16.2105 19.9058 15.9071 19.9447 15.6246 20.0211C15.3398 20.098 15.0827 20.2171 14.8627 20.3755C14.6421 20.5328 14.4607 20.7389 14.3324 20.9776C14.2029 21.2184 14.1369 21.5009 14.1369 21.8205C14.1369 22.1447 14.1932 22.4249 14.3044 22.6542C14.4133 22.8816 14.5773 23.0782 14.7814 23.2262C14.9845 23.3739 15.2353 23.4832 15.5248 23.5481C15.812 23.6136 16.1362 23.6467 16.4928 23.6467C16.868 23.6467 17.2408 23.6152 17.6021 23.5543C17.9098 23.5013 18.2163 23.4417 18.5214 23.3756C18.6432 23.3475 18.7785 23.3107 18.7785 23.3107C18.8688 23.2878 18.8619 23.1912 18.8619 23.1912L18.8598 19.8565C18.8598 19.1247 18.6643 18.5805 18.2785 18.2447C17.8941 17.9089 17.3313 17.7399 16.6019 17.7399C16.3286 17.7399 15.8863 17.7769 15.6223 17.8299C15.6223 17.8299 14.8257 17.9846 14.4968 18.2422C14.4968 18.2422 14.4246 18.2866 14.4639 18.3874L14.7233 19.0821C14.7555 19.1722 14.8433 19.1414 14.8433 19.1414C14.8433 19.1414 14.8708 19.1305 14.9032 19.1113C15.6049 18.7292 16.4942 18.7407 16.4942 18.7407C16.8879 18.7407 17.1936 18.8206 17.3973 18.977C17.5967 19.13 17.6984 19.3614 17.6984 19.8477V20.0022C17.3858 19.9568 17.0963 19.9306 17.0963 19.9306L17.0928 19.922ZM46.5033 18.0393C46.5086 18.0271 46.5114 18.0139 46.5114 18.0006C46.5115 17.9873 46.5089 17.9742 46.5038 17.9619C46.4987 17.9496 46.4911 17.9385 46.4816 17.9292C46.4721 17.9199 46.4608 17.9126 46.4485 17.9078C46.3862 17.8841 46.0756 17.8186 45.8371 17.8038C45.3786 17.7751 45.1238 17.8524 44.8946 17.9552C44.6681 18.0574 44.4175 18.2215 44.2786 18.4114L44.2781 17.9668C44.2781 17.9057 44.2348 17.8563 44.1732 17.8563H43.2376C43.1769 17.8563 43.1329 17.9057 43.1329 17.9668V23.4089C43.133 23.4383 43.1447 23.4665 43.1655 23.4873C43.1863 23.5081 43.2145 23.5198 43.2439 23.5198H44.2026C44.232 23.5198 44.2601 23.5081 44.2809 23.4873C44.3017 23.4665 44.3133 23.4383 44.3133 23.4089V20.6763C44.3133 20.3104 44.3536 19.9468 44.434 19.7175C44.5132 19.4908 44.6208 19.31 44.7535 19.1803C44.8801 19.055 45.035 18.9621 45.2051 18.9093C45.3647 18.8635 45.53 18.8403 45.6961 18.8403C45.8871 18.8403 46.0967 18.8894 46.0967 18.8894C46.1671 18.8973 46.2062 18.8542 46.2301 18.7908C46.2928 18.6238 46.4709 18.1238 46.5057 18.0242" fill="#FFFFFE"/>
<path fill-rule="evenodd" clip-rule="evenodd" d="M37.5481 15.5268C37.4296 15.491 37.3091 15.4624 37.1871 15.4411C37.023 15.4137 36.8569 15.4009 36.6906 15.4027C36.0299 15.4027 35.5091 15.5893 35.1434 15.958C34.7803 16.3239 34.5332 16.8813 34.4093 17.6147L34.3646 17.8623H33.5353C33.5353 17.8623 33.4341 17.8581 33.4128 17.9686L33.2767 18.7282C33.2672 18.8009 33.2984 18.8463 33.3957 18.8458H34.203L33.3839 23.4179C33.3197 23.7861 33.2463 24.089 33.165 24.3185C33.0849 24.545 33.0066 24.7147 32.9103 24.8379C32.817 24.9572 32.7285 25.0449 32.5759 25.0961C32.4499 25.1385 32.3049 25.158 32.1461 25.158C32.0576 25.158 31.94 25.1431 31.8531 25.1258C31.7663 25.1086 31.7211 25.0892 31.6561 25.0618C31.6561 25.0618 31.5613 25.0257 31.5241 25.1207C31.4937 25.1982 31.2786 25.7899 31.2531 25.8631C31.2272 25.9354 31.2635 25.9923 31.3094 26.0088C31.4168 26.0472 31.4967 26.0718 31.6431 26.1063C31.8464 26.1542 32.0178 26.1572 32.1783 26.1572C32.5145 26.1572 32.8209 26.11 33.0749 26.0183C33.3306 25.9259 33.5532 25.7649 33.75 25.547C33.9628 25.312 34.0967 25.0658 34.2247 24.73C34.3514 24.3972 34.4593 23.9841 34.5457 23.5026L35.3687 18.8458H36.572C36.572 18.8458 36.6735 18.8495 36.6945 18.7395L36.8307 17.9799C36.8402 17.9072 36.8092 17.8618 36.7114 17.8623H35.5436C35.5494 17.8359 35.6024 17.4251 35.7365 17.0383C35.7937 16.8732 35.9014 16.7401 35.9926 16.6486C36.0778 16.5615 36.1827 16.4962 36.2985 16.4582C36.4255 16.419 36.5578 16.3999 36.6906 16.4017C36.8006 16.4017 36.9085 16.4149 36.9907 16.4321C37.104 16.4561 37.148 16.4689 37.1776 16.4777C37.2966 16.514 37.3126 16.4788 37.336 16.4212L37.6153 15.6542C37.644 15.5717 37.5741 15.537 37.5481 15.5268ZM21.2278 23.4276C21.2278 23.4887 21.1843 23.5385 21.1232 23.5385H20.1545C20.0931 23.5385 20.0496 23.4887 20.0496 23.4276V15.6308C20.0496 15.5699 20.0931 15.5206 20.1545 15.5206H21.1232C21.1843 15.5206 21.2278 15.5699 21.2278 15.6308V23.4276Z" fill="#FFFFFE"/>
</g>
</svg>
