<svg xmlns="http://www.w3.org/2000/svg" xmlns:xlink="http://www.w3.org/1999/xlink" width="411" height="249" viewBox="0 0 411 249">
    <defs>
        <linearGradient id="pswmosmeha" x1="64.119%" x2="13.922%" y1="-23.472%" y2="148.83%">
            <stop offset="0%" stop-color="#F7FAFF"/>
            <stop offset="100%" stop-color="#6B9AD9"/>
        </linearGradient>
        <linearGradient id="muhuceifqb" x1="64.119%" x2="13.922%" y1="-23.472%" y2="148.83%">
            <stop offset="0%" stop-color="#F7FAFF"/>
            <stop offset="100%" stop-color="#6B9AD9"/>
        </linearGradient>
        <linearGradient id="rgpie2lhzc" x1="62.191%" x2="18.847%" y1="-23.472%" y2="148.83%">
            <stop offset="0%" stop-color="#F7FAFF"/>
            <stop offset="100%" stop-color="#6B9AD9"/>
        </linearGradient>
        <linearGradient id="7dppo2me8d" x1="64.119%" x2="13.922%" y1="34.252%" y2="71.183%">
            <stop offset="0%" stop-color="#F7FAFF"/>
            <stop offset="100%" stop-color="#6B9AD9"/>
        </linearGradient>
        <linearGradient id="5296z0tjve" x1="50%" x2="50%" y1="-10.877%" y2="112.715%">
            <stop offset="0%" stop-color="#FFE579"/>
            <stop offset="100%" stop-color="#FEB755"/>
        </linearGradient>
        <linearGradient id="jx6m1u6e0f" x1="33.681%" x2="67.353%" y1="24.363%" y2="73.229%">
            <stop offset="0%" stop-color="#84F0A8"/>
            <stop offset="100%" stop-color="#33A25D"/>
        </linearGradient>
        <linearGradient id="wi0tx117rg" x1="293.195%" x2="13.922%" y1="49.923%" y2="50.027%">
            <stop offset="0%" stop-color="#F7FAFF"/>
            <stop offset="100%" stop-color="#6B9AD9"/>
        </linearGradient>
        <linearGradient id="5lgb4ooith" x1="50%" x2="50%" y1="-10.877%" y2="112.715%">
            <stop offset="0%" stop-color="#FFE579"/>
            <stop offset="100%" stop-color="#FEB755"/>
        </linearGradient>
        <linearGradient id="q6z7gsmt4j" x1="48.803%" x2="47.05%" y1="-24.577%" y2="113.314%">
            <stop offset="0%" stop-color="#EC533E"/>
            <stop offset="100%" stop-color="#DE2F49"/>
        </linearGradient>
        <linearGradient id="6zdt1yinsl" x1="34.014%" x2="66.998%" y1="0%" y2="95.302%">
            <stop offset="0%" stop-color="#84F0A8"/>
            <stop offset="100%" stop-color="#33A25D"/>
        </linearGradient>
        <path id="x7uf8hkuwi" d="M23.386 0L8.136 3.49s1.163 25.83 2.908 31.265c1.184 3.686 6.44 15.753 9.7 23.136-.446.237-.858.498-1.235.78-1.41 1.06-2.449 2.92-3.854 5.44-2.412 4.326-5.908 10.594-14.24 18.08-5.795 5.209 8.08 30.11 8.08 30.11l22.503-24.784c.205 4.39.236 8.971-.19 12.422-1.14 9.255-4.41 29.163-4.41 29.163h16.528s3.99-24.117 4.41-30.986c.42-6.869-1.577-33.37-1.577-33.37l-1.838.984c-.193-2.79-1.241-5.479-4.12-6.894l.256-.074-14.473-28.908L23.386 0z"/>
    </defs>
    <g fill="none" fill-rule="evenodd">
        <g>
            <g>
                <g>
                    <path fill="#F6B89D" fill-rule="nonzero" d="M184.66 84.914l-.428-2.378c-.126-1.16-.19-2.325-.194-3.49 0-1.822 1.006-4.095-.708-7.116s1.745-1.195 2.622.23c.74 1.19.748 3.87 1.588 4.759.35-.247.661-.541.925-.874l5.818-9.572c.089-.155.234-.273.405-.332.17-.058.359-.054.527.012l.388.154c.097.038.186.097.26.17.074.075.13.163.167.26.037.097.052.2.044.304-.005.103-.034.204-.083.296-1.107 2.094-4.578 8.263-4.46 8.307l.207.19 7.061-9.316c.105-.147.262-.252.44-.295.179-.042.367-.02.53.065l.525.276c.091.047.17.111.235.19.064.077.11.167.137.264.028.097.035.198.02.297-.014.1-.049.195-.101.28-1.357 2.228-6.593 9.404-6.477 9.453l.268.202 6.725-7.404c.11-.156.28-.263.467-.3.19-.038.388-.002.55.1l.404.253c.084.052.157.12.214.2.056.08.097.17.118.265.021.095.023.193.006.29-.018.095-.053.187-.107.269l-6.29 7.387.242.294 5.647-4.974c.122-.136.29-.223.475-.245.182-.022.368.023.52.127l.193.131c.161.111.272.28.307.47.037.19-.004.386-.113.547-.775 1.155-3.364 3.236-5.303 5.666-1.505 1.883-2.151 3.577-4.31 5.745-.91.92-2.377 1.885-3.18 2.429" transform="translate(-525.000000, -173.000000) translate(469.000000, 162.000000) translate(56.000000, 12.000000) translate(193.360000, 77.300000) scale(-1, 1) rotate(-13.000000) translate(-193.360000, -77.300000)"/>
                    <g>
                        <g>
                            <g>
                                <path fill="#295295" d="M41.061 23.083c0 4.465-3.61 8.085-8.06 8.085H8.059C3.61 31.168 0 27.547 0 23.082c0-4.033 2.943-7.373 6.793-7.984-.049-.283-.076-.575-.076-.874 0-2.83 2.287-5.122 5.108-5.122 1.258 0 2.412.456 3.301 1.215 1.586-3.584 3.619-6.855 9.322-6.855 6.918 0 10.196 5.35 10.196 10.997 0 .236-.01.47-.026.701 3.677.752 6.443 4.013 6.443 7.922z" transform="translate(-525.000000, -173.000000) translate(469.000000, 162.000000) translate(56.000000, 12.000000) translate(110.000000, 73.000000) translate(-0.000000, 0.000000)"/>
                                <path fill="#3C80EF" d="M40.569 19.62c0 4.465-3.567 8.084-7.965 8.084H7.963C3.565 27.704 0 24.084 0 19.62c0-4.033 2.908-7.373 6.711-7.985-.048-.283-.074-.574-.074-.873 0-2.83 2.259-5.123 5.046-5.123 1.243 0 2.383.457 3.261 1.216C16.511 3.271 18.52 0 24.155 0c6.834 0 10.073 5.35 10.073 10.997 0 .236-.01.47-.025.701 3.632.752 6.366 4.013 6.366 7.922z" transform="translate(-525.000000, -173.000000) translate(469.000000, 162.000000) translate(56.000000, 12.000000) translate(110.000000, 73.000000) translate(-0.000000, 0.000000)"/>
                            </g>
                            <path fill="#FFF" fill-rule="nonzero" d="M19.705 8.905h3.406l-5.09 8.905-1.682-3.047 3.366-5.858zm-1.722 8.905h6.42l1.722 2.968h-6.38l-1.762-2.968zm-3.132-.515l2.114 3.444h-4.15l2.036-3.444z" transform="translate(-525.000000, -173.000000) translate(469.000000, 162.000000) translate(56.000000, 12.000000) translate(110.000000, 73.000000) translate(-0.000000, 0.000000)"/>
                        </g>
                    </g>
                    <g fill-rule="nonzero">
                        <g transform="translate(-525.000000, -173.000000) translate(469.000000, 162.000000) translate(56.000000, 12.000000) translate(132.000000, 0.000000)">
                            <path stroke="#1593FB" stroke-width=".717" d="M1.859 9.373H54.788000000000004V40.96H1.859z"/>
                            <path fill="#FFF" stroke="#1593FB" stroke-linecap="square" stroke-linejoin="round" stroke-opacity=".301" stroke-width=".878" d="M1.501 9.015H55.147V41.318H1.501z"/>
                            <path fill="#1593FB" stroke="#FFF" stroke-width=".717" d="M.358 7.871H2.6430000000000002V10.159H.358zM.358 27.027H2.6430000000000002V29.315H.358zM54.004 7.871H56.289V10.159H54.004zM54.004 27.027H56.289V29.315H54.004zM54.004 40.174H56.289V42.461999999999996H54.004zM28.494 40.174H30.779V42.461999999999996H28.494zM.358 40.174H2.6430000000000002V42.461999999999996H.358zM28.494 7.871H30.779V10.159H28.494z"/>
                            <path stroke="#1593FB" stroke-linecap="square" stroke-width=".717" d="M29.637 3.756L29.637 7.325"/>
                            <ellipse cx="29.637" cy="1.502" fill="#1593FB" stroke="#FFF" stroke-width=".717" rx="1.501" ry="1.502"/>
                        </g>
                        <g fill="#8093A7">
                            <path d="M30.794 9.023c.337-.031.842-.08 1.207.248l.051.05.048.053c.035.04.077.088.129.134.115.093.187.227.193.367.004.091-.019.179-.068.257-.005.094-.018.207-.06.315.083-.005.17 0 .261.016.032.006.077.005.112.002.12-.006.33-.018.5.146.196.2.515.528.392.982-.067.2-.194.37-.327.55-.06.083-.126.17-.185.263-.094.138-.171.445-.24.716-.064.248-.128.505-.22.718-.048.12-.104.286-.17.482-.14.423-.333 1-.61 1.545l-.63 1.386c-.067.143-.168.322-.26.49.442 0 .885-.007 1.32-.006l1 .001c.423-.002.923-.002 1.421.04l4.16.274c1.765.222 3.626.459 5.479.735l.355.052-.2.699-.252-.011c-1.002-.052-1.995-.12-2.989-.19-.836-.059-1.673-.115-2.51-.163l-2.737-.056c-.326-.001-.655-.014-.986-.025-.568-.018-1.158-.04-1.73-.005-.564.022-1.121.034-1.678.047-.51.012-1.028.028-1.545.047-.156.234-.314.469-.454.69-.258.405-.5.786-.762 1.133-.172.239-.83.868-1.413 1.312l-.315.246c-.283.22-.583.457-.896.667-.818.586-1.388.804-2.897 1.115-.259.052-.548.077-.853.077-.56 0-1.174-.086-1.757-.251-.627-.166-1.173-.426-1.619-.775-.483-.379-.843-.844-1.073-1.385-.184-.424-.231-.81-.237-1.103-1.891.466-3.686 1.007-5.347 1.63-3.564 1.366-6.312 2.85-8.397 4.534l-.432-.455c1.841-1.985 4.557-3.748 8.072-5.24.14-.058.273-.117.407-.177.263-.118.527-.235.81-.329l1.239-.436c.153-.052.302-.106.449-.158.27-.096.54-.192.82-.274l2.607-.723c.153-.04.312-.07.47-.103.051-.075.105-.157.153-.218.223-.304.248-.334.39-.466l.08-.074c.127-.138.266-.23.39-.31.043-.03.086-.057.129-.089.297-.186.464-.087.542-.012.136.137.131.321-.016.548-.065.11-.138.217-.218.316l1.09-.223c.348-.073.706-.148 1.08-.187l2.75-.368c.391-.062.8-.091 1.194-.119l1.61-.109c.265-.025.532-.025.799-.041.102-.166.206-.336.294-.47.504-.833.768-1.287 1.197-2.38.14-.405.21-.578.263-.713l.045-.116c.095-.267.147-.474.166-.664.007-.076.011-.137.013-.187-.048.02-.103.049-.163.085-.287.17-.622.394-.975.638-.198.138-.49.347-.732.561-.208.184-.412.385-.608.577-.246.24-.481.47-.697.646-.246.202-.405.362-.526.485l-.122.121c-.078.075-.152.137-.237.187-.375.2-1.221.135-1.54-.058-.32-.242-.564-.782-.56-1.066-.006-.349.12-.736.411-1.248l.036-.062c-.105.078-.216.17-.34.285-.223.2-.573.478-.885.725-.182.143-.35.276-.468.374-.302.254-.54.483-.74.673-.234.221-.419.397-.6.522-.117.083-.4.285-.473.325-.15.098-.633.256-1.04.055l-.086-.033c-.114-.032-.284-.084-.435-.232-.168-.176-.26-.437-.319-.647-.108-.363-.024-1.223.176-1.764.196-.532.466-1.227.65-1.51.192-.291.366-.665.367-.784 0-.246.182-.538.48-.93.104-.148.532-.559.683-.682.252-.2.497-.2.645-.2.349-.077.66.003.887.215.193.18.284.415.243.63-.056.23-.22.414-.392.608l-.113.127c-.098.12-.23.316-.362.52-.1.152-.194.306-.275.44-.064.105-.12.199-.168.27-.231.376-.437.815-.565 1.204-.088.258-.112.421-.115.507.215-.05.549-.163.718-.247.247-.13.594-.325.986-.573.221-.142.463-.315.712-.498.223-.175.546-.405.877-.616l.141-.094c.252-.167.468-.309.559-.384.133-.1.39-.164.523-.178l.04.002c.113-.135.23-.27.35-.405.3-.333.624-.656.992-.983.348-.307.714-.59 1.084-.842.468-.324.947-.591 1.38-.772.296-.127.594-.208.861-.235zm-3.373 10.338l-1.187.094c-.373.028-.744.054-1.107.114l-2.677.37c-1.146.187-2.25.41-3.335.65-.05.423-.023.768.052.92.123.268.37.527.7.736.317.193.665.33 1.027.402.646.14 1.274.137 2.04-.014.54-.116 1.06-.31 1.538-.58.646-.36 1.086-.775 1.348-1.023.116-.11.203-.189.263-.23.154-.123.905-.915 1.325-1.419l.013-.02zM16.771 5.118c.459-.07.98-.148 1.42-.066.212.04.347.172.468.287.18.15.473.386.391.76-.003.024-.004.06-.004.09-.006.218-.053.362-.3.589-.171.248-.372.425-.57.497-.047.017-.11.057-.181.1-.228.135-.512.304-.789.312-.393-.002-.787-.246-.952-.5-.12-.025-.23-.05-.344-.09-.195-.032-1.419.121-2.286.45-.193.108-.52.193-.867.283-.344.09-.734.19-.886.308-.18.149-.456.316-.722.476-.276.167-.56.339-.71.475-.522.498-.533.772-.54.918-.003.09.165.318.347.455.215.161.867.292 1.299.378.205.042.388.08.52.114l.179.054c.3.096.858.272 1.56.392.3.055.533.126.762.199.182.056.36.113.576.158.415.088.643.198.866.304.159.076.328.158.595.242.45.153.863.446 1.345.955.406.407.58 1.246.355 1.721-.178.404-.329.747-.803 1.232-.103.117-.195.175-.285.233-.034.021-.074.046-.12.08-.052.039-.114.107-.176.172-.07.074-.142.147-.202.198-.853.704-1.973 1.436-3 1.962-1.06.558-2.01.889-3.198 1.238-.532.156-1.286.348-1.657.428-.45.102-.937.15-1.368.191-.225.023-.442.043-.64.072-.452.058-.852.089-1.166.089-.19 0-.35-.012-.469-.034-.15-.026-.527-.09-.933-.162l-.408-.072c-.336-.059-.646-.115-.814-.148-.716-.166-1.344-.422-1.523-.564-.05-.041-.118-.078-.204-.127-.41-.23-1.095-.615-1.258-1.146-.106-.354-.105-.692.001-1.04.079-.235.225-.459.382-.693.128-.196.23-.322.341-.458.071-.086.146-.177.22-.278l.009-.01c.088-.11.18-.182.278-.221l.083-.02c.21-.019.36.031.454.158.09.135.072.27.052.351l.006.045-.225.359c-.218.217-.278.367-.36.576-.176.376-.095.591.094.861.08.114.236.255.464.415.265.168.535.227 1.049.303.232.04.481.05.68.056.156.006.288.012.371.026.362.06 2.179.155 2.939.047.469-.067.903-.186 1.09-.237l.094-.025c.672-.096 1.902-.607 2.306-.775 1.168-.483 1.943-.843 2.937-1.468l.147-.081c.175-.097.34-.186.428-.289.32-.371.868-.77 1.31-1.091.243-.176.575-.418.635-.5l.092-.16c.298-.509.394-.7.307-.836-.186-.284-.495-.339-1.121-.432l-.22-.032c-.18-.03-.5-.108-.854-.196-.4-.098-.843-.208-1.153-.262-.298-.048-.602-.061-.877-.074-.212-.011-.41-.021-.583-.043-.716-.109-1.262-.23-1.413-.264-.111-.024-.229-.045-.342-.065-.488-.09-.95-.175-1.226-.444-.058-.054-.128-.098-.192-.14l-.072-.049c-.17-.116-.355-.272-.407-.578-.103-.627.139-.974.3-1.205.267-.455.759-.97 1.43-1.501l.092-.074c.204-.166.365-.297.642-.472.467-.352 1.073-.688 1.66-1.012l.105-.058c.613-.346 1.025-.549 1.423-.698.222-.096.455-.17.729-.255l.315-.1c.938-.296 1.599-.467 2.081-.537zm23.713 3.048c.403-.16.828-.074 1.155.189.226.181.329.392.306.627-.003.257-.081.566-.2.762-.12.2-.284.745-.4 1.328-.026.15-.051.284-.074.398-.036.184-.065.317-.068.451-.002.14-.027.299-.048.437-.013.081-.025.152-.025.197.025.238.063.395.112.457.014.008.065.013.167-.036.465-.222.964-.53 1.216-.752.292-.252.54-.46.757-.636.404-.335.672-.557.828-.76.157-.153.7-.413.983-.295l.078.046c.161.13.171.41.161.506-.021.214-.144.31-.217.348-.071.07-.168.136-.285.212-.084.057-.18.12-.316.221l-1.248 1.088c-.698.627-1.357 1.199-1.805 1.565-.487.397-.623.495-1.19.59-.275.044-.538-.027-.76-.205-.323-.261-.533-.744-.56-1.292l-.002-.156c-.003-.23-.007-.554.013-.849-.001-.3.06-.795.114-1.232l.039-.323c.018-.23.016-.264.01-.317l-.001-.011c-.113.061-.306.204-.517.386l-.26.218c-.218.183-.37.31-.662.585-.2.191-.395.42-.572.627-.101.118-.196.23-.286.326-.234.246-.74.891-.852 1.086-.173.308-.22.384-.29.495l-.104.168c-.068.108-.4.622-.584.797-.283.266-.54.343-.744.343-.081 0-.153-.01-.216-.029-.404-.11-.855-.55-.852-1.004-.01-.321.096-.608.188-.862.033-.089.065-.175.089-.26.054-.17.264-.722.542-1.162.134-.218.558-.976.752-1.363.068-.158.23-.486.326-.679l.067-.138c.067-.118.098-.208.134-.298.05-.133.106-.282.205-.434.151-.263.424-.391.615-.464.335-.127.585-.198.895-.18.215.018.584.141.706.392.069.184.11.43.052.626l-.029.1c-.033.128-.077.305-.217.5-.048.066-.128.135-.264.251-.061.05-.12.1-.15.13l-.132.185-.142.196c.04-.037.077-.072.109-.1.124-.112.221-.201.26-.234.482-.425.822-.74 1.243-1.145.094-.092.2-.198.304-.304.137-.137.272-.275.388-.385.066-.063.143-.135.22-.204.11-.1.218-.197.285-.273.206-.202.496-.338.753-.45zm-10.068 2.725c-.005.003-.051.015-.144.062-.165.09-.42.264-.674.46-.514.392-1.037.847-1.302 1.133-.205.22-.382.425-.54.618-.408.49-.624.843-.738 1.07.126-.075.316-.204.634-.435l.266-.194c.328-.241.745-.548 1.18-.88.234-.176.47-.36.702-.541l1.169-.927c-.077-.009-.156-.03-.234-.074-.135-.08-.196-.167-.227-.215zm-6.04-4.407c.347-.006.826.092 1.042.425.208.362-.086.975-.088.981-.125.236-.201.344-.257.425-.242.324-.525.601-.88.86-.125.087-.611.303-.906.32h-.03c-.305 0-.685-.24-.715-.541-.013-.126-.012-.26.004-.408.01-.389.17-.821.45-1.194.275-.351.576-.602.767-.724.19-.08.391-.145.613-.144z" transform="translate(-525.000000, -173.000000) translate(469.000000, 162.000000) translate(56.000000, 12.000000) translate(132.000000, 0.000000) translate(5.599997, 9.800000)"/>
                        </g>
                    </g>
                    <g>
                        <path fill="#182D59" d="M13.158 0L4.322 0 4.322 22.295 19.565 22.295 19.565 6.476z" transform="translate(-525.000000, -173.000000) translate(469.000000, 162.000000) translate(56.000000, 12.000000) translate(55.000000, 52.000000)"/>
                        <path fill="#3C80EF" d="M15.242 24.115L0 24.115 0 1.82 8.837 1.82 15.242 8.3z" transform="translate(-525.000000, -173.000000) translate(469.000000, 162.000000) translate(56.000000, 12.000000) translate(55.000000, 52.000000)"/>
                        <path fill="#FFF" d="M9.555 1.82L9.555 8.418 15.697 8.418z" transform="translate(-525.000000, -173.000000) translate(469.000000, 162.000000) translate(56.000000, 12.000000) translate(55.000000, 52.000000)"/>
                        <path fill="#EAF1FC" d="M2.275 5.232H7.962999999999999V7.0520000000000005H2.275zM1.82 9.1H13.195V10.92H1.82zM1.82 12.74H13.195V14.56H1.82zM1.82 16.608H13.195V18.428H1.82zM1.82 20.475H13.195V22.295H1.82z" transform="translate(-525.000000, -173.000000) translate(469.000000, 162.000000) translate(56.000000, 12.000000) translate(55.000000, 52.000000)"/>
                    </g>
                    <g transform="translate(-525.000000, -173.000000) translate(469.000000, 162.000000) translate(56.000000, 12.000000) translate(223.000000, 47.000000)">
                        <rect width="27.983" height="27.983" x="2.047" fill="#8093A7" rx="1.05"/>
                        <rect width="27.983" height="27.983" fill="#D6E3FA" rx=".775"/>
                        <g fill="#273D57" fill-rule="nonzero">
                            <path d="M14.687 8.915c.44 0 .797.35.797.782v4.692c0 .154-.047.306-.134.434l-1.461 2.15v2.89c0 .432-.357.783-.798.783h-3.19c-.44 0-.798-.35-.798-.782v-2.892l-1.461-2.149c-.087-.128-.135-.28-.135-.434V9.697c0-.431.358-.782.798-.782zm-8.64 0c-.09.25-.148.515-.148.794v4.765c0 .472.14.929.405 1.32l1.204 1.783v1.661H4.29c-.444 0-.804-.355-.804-.794v-2.936l-1.474-2.182c-.088-.13-.135-.283-.135-.44V9.708c0-.438.36-.794.804-.794zm13.794 0c.444 0 .805.356.805.794v3.176c0 .157-.048.31-.136.441l-1.473 2.182v2.936c0 .438-.36.794-.804.794h-3.218v-1.661l1.203-1.782c.266-.392.406-.85.406-1.321V9.709c0-.28-.058-.545-.148-.794zm-14.68-5.63c1.294 0 2.347 1.052 2.347 2.346 0 1.293-1.053 2.346-2.347 2.346-1.293 0-2.346-1.053-2.346-2.346 0-1.294 1.053-2.346 2.346-2.346zm12.2 0c1.294 0 2.346 1.052 2.346 2.346 0 1.293-1.052 2.346-2.346 2.346-1.293 0-2.346-1.053-2.346-2.346 0-1.294 1.053-2.346 2.346-2.346zm-5.865-1.408c1.682 0 3.05 1.368 3.05 3.05 0 1.682-1.368 3.05-3.05 3.05-1.682 0-3.05-1.368-3.05-3.05 0-1.682 1.368-3.05 3.05-3.05z" transform="translate(3.412500, 2.047500)"/>
                        </g>
                    </g>
                    <path fill="url(#pswmosmeha)" fill-opacity=".5" fill-rule="nonzero" d="M220.563 200.026c1.312-1.312 3.415-1.352 4.775-.12l.126.12 17.944 17.944c1.353 1.354 1.353 3.548 0 4.9-1.312 1.313-3.415 1.353-4.775.12l-.125-.12-17.945-17.944c-1.353-1.353-1.353-3.547 0-4.9zM335.75 65.153c1.313-1.312 3.415-1.351 4.775-.119l.126.12 26.21 26.21c1.353 1.353 1.353 3.547 0 4.9-1.312 1.312-3.415 1.352-4.775.12l-.126-.12-26.21-26.21c-1.353-1.353-1.353-3.547 0-4.9z" opacity=".5" transform="translate(-525.000000, -173.000000) translate(469.000000, 162.000000) translate(56.000000, 12.000000)"/>
                    <path fill="url(#pswmosmeha)" fill-opacity=".2" fill-rule="nonzero" d="M1.015 58.015c1.312-1.312 3.415-1.352 4.775-.12l.125.12L22.501 74.6c1.353 1.353 1.353 3.547 0 4.9-1.312 1.312-3.415 1.352-4.775.12l-.125-.12L1.015 62.915c-1.353-1.353-1.353-3.547 0-4.9z" transform="translate(-525.000000, -173.000000) translate(469.000000, 162.000000) translate(56.000000, 12.000000)"/>
                    <path fill="url(#muhuceifqb)" fill-opacity=".2" fill-rule="nonzero" d="M15.015 123.015c1.312-1.312 3.415-1.352 4.775-.12l.125.12 36.805 36.804c1.353 1.354 1.353 3.548 0 4.9-1.312 1.313-3.415 1.353-4.775.12l-.126-.12-36.804-36.804c-1.353-1.353-1.353-3.547 0-4.9z" transform="translate(-525.000000, -173.000000) translate(469.000000, 162.000000) translate(56.000000, 12.000000)"/>
                    <path fill="#F2F6F9" fill-rule="nonzero" d="M132.304 116.689c3.49 0 6.319-2.83 6.319-6.319 0-3.49-2.83-6.319-6.32-6.319-3.489 0-6.318 2.83-6.318 6.32 0 3.489 2.83 6.318 6.319 6.318z" transform="translate(-525.000000, -173.000000) translate(469.000000, 162.000000) translate(56.000000, 12.000000)"/>
                    <path fill="url(#rgpie2lhzc)" fill-opacity=".5" fill-rule="nonzero" d="M315.442 147c1.913 0 3.465 1.551 3.465 3.465 0 1.863-1.471 3.383-3.315 3.462l-.15.003h-15.925v15.403c0 1.864-1.47 3.384-3.314 3.462l-.15.004H281.93v17.986c0 1.863-1.47 3.383-3.315 3.462l-.15.003c-1.863 0-3.383-1.47-3.462-3.315l-.003-.15v-21.452c0-1.863 1.47-3.383 3.315-3.461l.15-.004h14.123v-15.403c0-1.863 1.47-3.383 3.314-3.462l.15-.003h19.39z" opacity=".5" transform="translate(-525.000000, -173.000000) translate(469.000000, 162.000000) translate(56.000000, 12.000000)"/>
                    <path fill="url(#7dppo2me8d)" fill-opacity=".2" fill-rule="nonzero" d="M96.688 191.387c1.354-1.354 3.548-1.354 4.9 0 1.313 1.312 1.353 3.414.12 4.775l-.12.125-19.594 19.595c-1.313 1.312-3.415 1.352-4.776.12l-.125-.12-13.613-13.615-14.782 14.784c-1.312 1.313-3.415 1.353-4.775.12l-.125-.12c-1.312-1.311-1.352-3.414-.12-4.774l.12-.125 17.232-17.235c1.313-1.313 3.415-1.352 4.776-.12l.125.12 13.612 13.614 17.145-17.144z" transform="translate(-525.000000, -173.000000) translate(469.000000, 162.000000) translate(56.000000, 12.000000)"/>
                    <path fill="url(#pswmosmeha)" fill-opacity=".5" fill-rule="nonzero" d="M305.015 103.015c1.312-1.312 3.415-1.352 4.775-.12l.125.12 34.033 34.032c1.353 1.354 1.353 3.548 0 4.9-1.312 1.313-3.415 1.353-4.775.12l-.126-.12-34.032-34.032c-1.353-1.353-1.353-3.547 0-4.9zM307.6 201.015c1.354-1.353 3.548-1.353 4.9 0 1.313 1.312 1.353 3.415.12 4.775l-.12.125-16.585 16.586c-1.353 1.353-3.547 1.353-4.9 0-1.312-1.312-1.352-3.415-.12-4.775l.12-.125 16.586-16.586z" opacity=".5" transform="translate(-525.000000, -173.000000) translate(469.000000, 162.000000) translate(56.000000, 12.000000)"/>
                    <path stroke="#F2F6F9" stroke-linecap="round" stroke-linejoin="round" stroke-width="6.93" d="M155.477 135.381L172.063 118.795" transform="translate(-525.000000, -173.000000) translate(469.000000, 162.000000) translate(56.000000, 12.000000)"/>
                    <path fill="url(#pswmosmeha)" fill-opacity=".5" fill-rule="nonzero" d="M404.82 132.015c1.353-1.353 3.547-1.353 4.9 0 1.312 1.312 1.352 3.415.119 4.775l-.12.125-36.804 36.805c-1.353 1.353-3.547 1.353-4.9 0-1.312-1.312-1.352-3.415-.12-4.775l.12-.126 36.804-36.804z" opacity=".5" transform="translate(-525.000000, -173.000000) translate(469.000000, 162.000000) translate(56.000000, 12.000000)"/>
                    <path fill="#F2F6F9" fill-rule="nonzero" d="M326.993 105.4c3.49 0 6.319-2.83 6.319-6.32s-2.829-6.318-6.32-6.318c-3.49 0-6.318 2.829-6.318 6.319 0 3.49 2.829 6.318 6.319 6.318z" opacity=".5" transform="translate(-525.000000, -173.000000) translate(469.000000, 162.000000) translate(56.000000, 12.000000)"/>
                    <path fill="#F2F6F9" fill-rule="nonzero" d="M335.746 41.595c3.49 0 6.319-2.829 6.319-6.319 0-3.49-2.83-6.319-6.32-6.319s-6.318 2.83-6.318 6.32c0 3.489 2.828 6.318 6.319 6.318z" transform="translate(-525.000000, -173.000000) translate(469.000000, 162.000000) translate(56.000000, 12.000000)"/>
                    <path fill="url(#pswmosmeha)" fill-opacity=".2" fill-rule="nonzero" d="M130.395 220.92c3.49 0 6.319-2.829 6.319-6.319 0-3.49-2.83-6.318-6.319-6.318-3.49 0-6.319 2.829-6.319 6.319 0 3.49 2.83 6.318 6.319 6.318z" transform="translate(-525.000000, -173.000000) translate(469.000000, 162.000000) translate(56.000000, 12.000000)"/>
                    <path fill="url(#pswmosmeha)" fill-opacity=".5" fill-rule="nonzero" d="M343.568 217.768c3.49 0 6.319-2.829 6.319-6.319 0-3.49-2.829-6.319-6.319-6.319-3.49 0-6.319 2.83-6.319 6.32s2.829 6.318 6.32 6.318z" opacity=".5" transform="translate(-525.000000, -173.000000) translate(469.000000, 162.000000) translate(56.000000, 12.000000)"/>
                    <path fill="url(#pswmosmeha)" fill-opacity=".2" fill-rule="nonzero" d="M15.319 185.638c3.49 0 6.319-2.83 6.319-6.32 0-3.489-2.83-6.318-6.32-6.318C11.83 173 9 175.83 9 179.319c0 3.49 2.83 6.319 6.319 6.319z" transform="translate(-525.000000, -173.000000) translate(469.000000, 162.000000) translate(56.000000, 12.000000)"/>
                    <path stroke="#F2F6F9" stroke-linecap="round" stroke-linejoin="round" stroke-width="6.93" d="M255.25 130.679L273.195 112.735" transform="translate(-525.000000, -173.000000) translate(469.000000, 162.000000) translate(56.000000, 12.000000)"/>
                    <path fill="url(#5296z0tjve)" fill-rule="nonzero" d="M91.952 109.045c-2.444 1.529-4.932 9.768-7.463 24.72-.755 1.425.281 2.68 3.109 3.762 2.827 1.083 5.065 1.083 6.715 0 1.248-1.492 1.63-5.156 1.146-10.99-.725-8.752.16-19.785-3.507-17.492z" transform="translate(-525.000000, -173.000000) translate(469.000000, 162.000000) translate(56.000000, 12.000000)"/>
                    <path fill="url(#jx6m1u6e0f)" fill-rule="nonzero" d="M197.7 187.532l-4.267 4.767c-3.463 3.866-8.254 6.286-13.42 6.778-5.166.491-10.328-.98-14.458-4.123l-73.83-56.18 11.072-15.489 94.903 64.248z" transform="translate(-525.000000, -173.000000) translate(469.000000, 162.000000) translate(56.000000, 12.000000)"/>
                    <path fill="url(#wi0tx117rg)" fill-opacity=".5" fill-rule="nonzero" d="M182.96 247.74c48.7 0 88.18-.654 88.18-1.46 0-.806-39.48-1.46-88.18-1.46-48.7 0-88.179.654-88.179 1.46 0 .806 39.48 1.46 88.18 1.46z" transform="translate(-525.000000, -173.000000) translate(469.000000, 162.000000) translate(56.000000, 12.000000)"/>
                    <path fill="url(#5lgb4ooith)" fill-rule="nonzero" d="M108.589 138.111c-1.186 4.651 8.27 19.551 11.476 21.991 2.138 1.627 5.017-.603 8.637-6.688l-4.578-9.24c-9.567-7.143-14.745-9.164-15.535-6.063z" transform="translate(-525.000000, -173.000000) translate(469.000000, 162.000000) translate(56.000000, 12.000000)"/>
                    <path stroke="#FFF" stroke-linecap="square" stroke-width=".63" d="M125.641 136.345L122.077 136.893 126.47 157.274 151.884 154.111M163 161.64l1.764 25.1s.947 7.197 5.237 10.434" transform="translate(-525.000000, -173.000000) translate(469.000000, 162.000000) translate(56.000000, 12.000000)"/>
                    <path fill="#F6B89D" fill-rule="nonzero" d="M214.653 213.768l-.875 1.978c-.368.8-.655 1.636-.86 2.493-.4 1.583.198 2.52-.787 5.017-1.117 2.828 2.058 1.57 2.848.33.615-.97.37-2.256 1.26-2.857.38.46 1.195 1.111 2.1 5.135.164.722-.664 5.67 2.595 6.356 2.682.097 4.656-4.298 4.927-5.712.357-1.811.286-3.681-.21-5.46-.498-1.963-.47-2.629-1.733-5.023-.61-1.093-1.312-2.131-2.1-3.103" transform="translate(-525.000000, -173.000000) translate(469.000000, 162.000000) translate(56.000000, 12.000000)"/>
                    <path fill="#162C56" fill-rule="nonzero" d="M185.47 209.365l-83.208-62.77c-2.597-1.96-6.29-1.442-8.25 1.155l-.001.002c-1.96 2.597-1.442 6.29 1.155 8.25l83.208 62.77c2.597 1.96 6.29 1.442 8.25-1.155l.001-.002c1.96-2.597 1.443-6.29-1.155-8.25z" transform="translate(-525.000000, -173.000000) translate(469.000000, 162.000000) translate(56.000000, 12.000000)"/>
                    <path fill="#162C56" fill-rule="nonzero" d="M275.043 97.915l-97.486 112.262c-2.133 2.457-1.87 6.177.585 8.31l.002.002c2.456 2.133 6.177 1.87 8.31-.586l97.485-112.263c2.133-2.456 1.87-6.176-.584-8.31h-.002c-2.457-2.134-6.178-1.872-8.31.585z" transform="translate(-525.000000, -173.000000) translate(469.000000, 162.000000) translate(56.000000, 12.000000)"/>
                    <path fill="#3361C2" fill-rule="nonzero" d="M205.756 85l-15.25 3.49s1.163 25.83 2.908 31.265c1.184 3.686 6.44 15.753 9.7 23.136-.446.237-.858.498-1.235.78-1.41 1.06-2.449 2.921-3.853 5.44-2.413 4.326-5.91 10.594-14.24 18.08-5.796 5.209 8.078 30.11 8.078 30.11l22.504-24.784c.206 4.39.236 8.971-.19 12.422-1.14 9.255-4.41 29.163-4.41 29.163h16.528s3.99-24.117 4.41-30.986c.42-6.869-1.577-33.37-1.577-33.37l-1.838.984c-.193-2.79-1.241-5.479-4.12-6.894l.256-.074-14.473-28.908L205.756 85z" transform="translate(-525.000000, -173.000000) translate(469.000000, 162.000000) translate(56.000000, 12.000000)"/>
                    <g transform="translate(-525.000000, -173.000000) translate(469.000000, 162.000000) translate(56.000000, 12.000000) translate(182.370000, 85.000000)">
                        <mask id="gbot2h1r3k" fill="#fff">
                            <use xlink:href="#x7uf8hkuwi"/>
                        </mask>
                        <use fill="url(#q6z7gsmt4j)" fill-rule="nonzero" xlink:href="#x7uf8hkuwi"/>
                        <g stroke="#FFF" stroke-linecap="round" stroke-linejoin="round" stroke-width="3.78" mask="url(#gbot2h1r3k)" opacity=".421">
                            <g>
                                <path d="M.025 3.996L10.536 3.996 10.536 13.171 18.52 13.171 18.52 22.407M17.375.248L27.206.248M4.546 27.644L20.569 38.436M23.953 31.393L35.925 19.421M29.381 43.785L27.206 47.015M4.889 82.908L10.727 85.546M14.261 50.224L23.066 55.043 19.782 64.088 28.293 66.931M14.261 76.495L7.262 59.306M21.872 75.203L19.782 93.683M34.917 86.843L51.677 98.335M30.404 96.6L27.405 102.278 34.761 106.43 29.589 113.11 35.293 118.194M42.017 106.346L47.878 113.843" transform="translate(1.890000, 7.560000)"/>
                            </g>
                        </g>
                    </g>
                    <path fill="#24272D" fill-rule="nonzero" d="M240.607 130.033c5.355-3.292 7.606-9.36 5.028-13.554-2.58-4.192-9.01-4.922-14.364-1.629-5.355 3.293-7.606 9.361-5.028 13.554 2.579 4.193 9.01 4.922 14.364 1.63z" transform="translate(-525.000000, -173.000000) translate(469.000000, 162.000000) translate(56.000000, 12.000000)"/>
                    <path fill="#F6B89D" fill-rule="nonzero" d="M216.12 150.402c-.695-1.129-1.001-2.454-.874-3.773.127-1.32.682-2.561 1.579-3.537l14.042-15.28c1.097-1.176 2.613-1.871 4.221-1.934 1.607-.062 3.174.514 4.358 1.602 1.182 1.088 1.888 2.6 1.961 4.207.074 1.607-.493 3.177-1.573 4.368l-14.042 15.28c-.637.693-1.427 1.23-2.306 1.566-.88.337-1.825.465-2.763.375-.937-.09-1.84-.397-2.64-.896-.799-.498-1.471-1.175-1.964-1.978z" transform="translate(-525.000000, -173.000000) translate(469.000000, 162.000000) translate(56.000000, 12.000000)"/>
                    <path fill="#F6B89D" fill-rule="nonzero" d="M220.754 141.018l-.809-.752c-.94-.875-1.675-1.946-2.153-3.137-.48-1.191-.69-2.473-.616-3.754.073-1.282.427-2.532 1.038-3.66.61-1.13 1.463-2.11 2.496-2.873l5.117-3.78c1.653-1.219 3.682-1.817 5.731-1.69 2.05.129 3.988.975 5.477 2.39 1.678 1.597 2.652 3.795 2.711 6.111.057 2.316-.808 4.56-2.404 6.239l-4.307 4.528c-1.586 1.666-3.764 2.64-6.063 2.711-2.3.071-4.534-.768-6.218-2.333z" transform="translate(-525.000000, -173.000000) translate(469.000000, 162.000000) translate(56.000000, 12.000000)"/>
                    <path fill="#24272D" fill-rule="nonzero" d="M249.062 175.23c-11.166 8.25-13.457-4.07-13.457-4.07s-9.017 14.323-16.701-.591c-7.684-14.914.046-25.032 6.176-28.042 2.44-1.197 4.966-1.096 7.526-.8-3.603-8.549 1.827-11.726 1.827-11.726s-12.566-9.528-2.908-15.33c9.658-5.802 18.807 2.186 22.295 8.085.731 1.242 1.269 2.587 1.599 3.99 1.087 4.51.886 8.646 3.874 13.681 8.255 13.91-3.942 23.235-3.942 23.235s1.269 5.985-6.29 11.569z" transform="translate(-525.000000, -173.000000) translate(469.000000, 162.000000) translate(56.000000, 12.000000)"/>
                    <path fill="#F6B89D" fill-rule="nonzero" d="M236.432 141.477c2.149-.33 3.623-2.339 3.293-4.486-.33-2.148-2.337-3.622-4.485-3.292l-3.537.543c-2.148.33-3.622 2.338-3.293 4.486.33 2.148 2.34 3.621 4.488 3.291l3.534-.542z" transform="translate(-525.000000, -173.000000) translate(469.000000, 162.000000) translate(56.000000, 12.000000)"/>
                    <path fill="url(#6zdt1yinsl)" fill-rule="nonzero" d="M122.077 136.893c.185 1.47 4.393 20.38 4.393 20.38l35.91-4.468 2.287 32.997c.16 2.315.782 4.574 1.828 6.644 1.046 2.072 2.496 3.912 4.264 5.415 1.768 1.502 3.819 2.636 6.031 3.334 2.213.699 4.542.948 6.853.733 1.555-.146 3.061-.622 4.417-1.397 1.356-.775 2.531-1.83 3.446-3.097.915-1.266 1.548-2.713 1.858-4.244.31-1.531.289-3.11-.061-4.633l-11.216-48.72c-.737-3.198-2.655-6-5.371-7.842-2.717-1.842-6.03-2.588-9.273-2.089l-45.366 6.987z" transform="translate(-525.000000, -173.000000) translate(469.000000, 162.000000) translate(56.000000, 12.000000)"/>
                    <g>
                        <g fill-rule="nonzero">
                            <g stroke="#1593FB">
                                <path stroke-width=".834" d="M0.417 0.417H33.074V31.456000000000003H0.417z" transform="translate(-525.000000, -173.000000) translate(469.000000, 162.000000) translate(56.000000, 12.000000) translate(285.000000, 13.000000) translate(0.000000, 5.929886) translate(3.044610, 2.594325)"/>
                                <path fill="#FFF" stroke-linecap="square" stroke-linejoin="round" stroke-opacity=".301" stroke-width="1.668" d="M0.381 0.371H33.111V31.503H0.381z" transform="translate(-525.000000, -173.000000) translate(469.000000, 162.000000) translate(56.000000, 12.000000) translate(285.000000, 13.000000) translate(0.000000, 5.929886) translate(3.044610, 2.594325)"/>
                            </g>
                            <path fill="#1593FB" stroke="#FFF" stroke-width=".834" d="M33.527.417H38.782000000000004V5.513H33.527zM.417.417H5.672V5.513H.417zM.417 31.92H5.672V37.016000000000005H.417zM33.527 31.92H38.782000000000004V37.016000000000005H33.527z" transform="translate(-525.000000, -173.000000) translate(469.000000, 162.000000) translate(56.000000, 12.000000) translate(285.000000, 13.000000) translate(0.000000, 5.929886)"/>
                        </g>
                        <path fill="#1593FB" fill-rule="nonzero" stroke="#FFF" stroke-width=".5" d="M18.518 38.794H21.063000000000002V41.259H18.518zM34.882 23.228H37.427V25.693H34.882zM2.153 23.228H4.698V25.693H2.153z" transform="translate(-525.000000, -173.000000) translate(469.000000, 162.000000) translate(56.000000, 12.000000) translate(285.000000, 13.000000)"/>
                        <g fill-rule="nonzero" stroke-width=".5" transform="translate(-525.000000, -173.000000) translate(469.000000, 162.000000) translate(56.000000, 12.000000) translate(285.000000, 13.000000) translate(18.267660, 0.000000)">
                            <path fill="#1593FB" stroke="#FFF" d="M0.25 7.662H2.795V10.126999999999999H0.25z"/>
                            <path stroke="#1593FB" stroke-linecap="square" d="M1.522 3.706L1.522 7.227"/>
                            <ellipse cx="1.522" cy="1.482" fill="#1593FB" stroke="#FFF" rx="1.522" ry="1.482"/>
                        </g>
                        <g>
                            <g>
                                <path fill="#3C80EF" d="M.98 22.978h10.778v-6.702c0-.528.439-.957.98-.957h6.858V.957c0-.528-.439-.957-.98-.957H.98C.439 0 0 .429 0 .957v21.064c0 .528.439.957.98.957z" transform="translate(-525.000000, -173.000000) translate(469.000000, 162.000000) translate(56.000000, 12.000000) translate(285.000000, 13.000000) translate(19.962725, 24.473980) scale(-1, 1) translate(-19.962725, -24.473980) translate(9.462725, 12.473980) translate(10.742912, 11.975951) rotate(-180.000000) translate(-10.742912, -11.975951) translate(0.742912, 0.475951)"/>
                                <path fill="#FFF" d="M3.919 14.361L8.818 14.361 8.818 16.276 3.919 16.276zM3.919 9.574L15.677 9.574 15.677 11.489 3.919 11.489zM3.919 4.787L15.677 4.787 15.677 6.702 3.919 6.702z" transform="translate(-525.000000, -173.000000) translate(469.000000, 162.000000) translate(56.000000, 12.000000) translate(285.000000, 13.000000) translate(19.962725, 24.473980) scale(-1, 1) translate(-19.962725, -24.473980) translate(9.462725, 12.473980) translate(10.742912, 11.975951) rotate(-180.000000) translate(-10.742912, -11.975951) translate(0.742912, 0.475951)"/>
                                <path fill="#295295" d="M19.022 17.234L13.718 17.234 13.718 22.417z" transform="translate(-525.000000, -173.000000) translate(469.000000, 162.000000) translate(56.000000, 12.000000) translate(285.000000, 13.000000) translate(19.962725, 24.473980) scale(-1, 1) translate(-19.962725, -24.473980) translate(9.462725, 12.473980) translate(10.742912, 11.975951) rotate(-180.000000) translate(-10.742912, -11.975951) translate(0.742912, 0.475951)"/>
                            </g>
                        </g>
                    </g>
                </g>
            </g>
        </g>
    </g>
</svg>
