<svg width="482" height="273" viewBox="0 0 482 273" fill="none" xmlns="http://www.w3.org/2000/svg">
  <g id="36669776a0770791f0acf9e47abe43f7" clip-path="url(#clip0_5657_52440)">
    <g id="d4cf777258415971a357dceea96ba629">
      <g id="39b5b5607a47e981d4e48576a5298765">
        <g id="3c811bdde1216dd8f961bb9490f1790b" filter="url(#c5817186a6d46be5e1dfa3680f8e6454)">
          <rect width="482" height="273" fill="#F4FCFF"></rect>
        </g>
        <g id="e08d5295d518738222b88d7cac55168e">
          <mask id="2899a77549adf665e12366f909803d0f" style="mask-type:alpha" maskUnits="userSpaceOnUse" x="0" y="0" width="482" height="273">
            <path id="fdb9f60669aaeeae93933f23a4b5e458" d="M0 0H482V273H0V0Z" fill="white"></path>
          </mask>
          <g mask="url(#2899a77549adf665e12366f909803d0f)">
            <g id="afdf1f648e713e96106f3d6224550064">
              <g id="800c999d230b959deed5a6bfee52c3d0" filter="url(#9669e26a6b47bdb7ec45178d0698b8fc)">
                <path d="M713.771 199.003C634.76 212.167 550.308 197.549 509.533 120.379C497.259 97.1534 490.06 66.9857 467.999 50.4625C445.748 33.7921 405.458 45.8474 392.426 15.708C381.671 -9.18265 405.63 -32.4126 410.854 -55.3807C418.513 -89.0412 391.183 -102.145 362.362 -108.522C342.65 -112.881 319.831 -119.799 313.076 -138.825C308.268 -152.325 313.81 -167.468 322.205 -179.038C339.341 -202.628 378.284 -228.876 355.985 -262.444C343.855 -280.708 319.016 -285.705 303.522 -301.195C289.086 -315.6 286.195 -339.171 293.795 -357.608C304.006 -382.358 324.119 -385.721 348.301 -390.856C404.91 -402.848 464.011 -403.4 520.848 -392.254C576.871 -381.284 628.408 -349.769 641.915 -290.881C650.445 -253.658 641.614 -213.289 655.291 -177.61C666.239 -149.047 691.832 -126.984 721.205 -118.967C736.378 -114.827 752.348 -114.314 767.527 -110.132C782.682 -105.969 797.886 -96.9175 803.263 -82.1426C811.953 -58.36 796.444 -34.0771 803.635 -11.153C811.88 15.1647 847.238 18.0053 870.354 22.236C890.974 26.0112 918.403 35.7047 924.682 58.1878C928.314 71.1945 923.355 85.0467 917.037 96.9753C910.72 108.904 902.849 120.387 900.161 133.612C896.145 153.158 903.933 172.908 909.342 192.103C918.226 223.576 911.616 266.764 869.583 264.549C853.714 263.66 839.579 254.111 827.911 243.29C816.261 232.446 806.021 219.928 792.948 210.823C768.541 193.846 741.691 194.338 713.771 199.003Z" fill="#77C2D7"></path>
              </g>
              <g id="18187b486418a3702c2c11d7bba74f4f">
                <g id="362f2cfbd05841eb862fa64bfe870c2c">
                  <g id="cec800aa3e55c08d5a437335c2d33c9f" filter="url(#d24163fc5941d60219ce658a68c3623e)">
                    <path d="M612.502 143.249C605.256 143.471 598.254 143.36 591.756 143.026C548.274 140.868 492.439 133.041 461.811 96.0762C447.247 78.5099 441.239 59.4437 439.096 38.0634C437.915 26.364 435.803 13.8274 427.646 4.63475C419.077 -5.00769 406.416 -8.99449 394.297 -10.2654C384.119 -11.3161 373.909 -10.9345 363.792 -12.9104C345.459 -16.5017 334.293 -28.1664 333.273 -46.6541C332.036 -69.0148 339.773 -94.8761 308.755 -101.244C300.398 -102.963 291.906 -102.729 283.497 -103.746C266.719 -105.749 248.24 -114.701 242.69 -130.686C235.384 -151.69 252.887 -170.128 251.253 -190.644C250.247 -203.212 243.105 -207.68 233.16 -214.523C201.634 -236.2 177.734 -279.167 213.675 -303.756C241.772 -322.974 279.079 -330.644 313.97 -331.865C378.925 -334.137 450.194 -327.992 504.911 -283.06C533.908 -259.244 548.336 -228.733 547.135 -193.746C546.852 -185.108 548.262 -175.321 555.083 -169.237C561.658 -163.365 570.89 -162.163 577.98 -157.077C586.323 -151.085 592.362 -141.958 597.845 -133.589C607.168 -119.33 616.812 -104.204 630.579 -93.5121C645.206 -82.1792 662.956 -75.0554 678.383 -64.896C685.969 -59.8964 693.638 -53.4084 695.547 -44.8484C700.213 -23.8709 673.08 -18.9783 672.042 -0.341056C671.686 5.70225 674.782 11.6358 677.773 17.2062C690.652 41.1095 706.636 70.7242 699.518 97.0475C689.99 132.506 648.545 142.144 612.502 143.249Z" fill="#FCF0EE"></path>
                  </g>
                </g>
              </g>
            </g>
            <g id="c8772f3662b1e0f51820acfd17b174e5">
              <g id="9dd31d4f7315bee6b3a295ddfc6c74ec" filter="url(#bd1f7db3804bccd49d1302fcafb7392c)">
                <path d="M-458.254 203.416C-450.398 198.374 -442.565 193.816 -435.178 189.818C-385.721 163.005 -319.019 133.653 -261.815 150.156C-234.624 158 -215.921 173.034 -200.053 192.932C-191.354 203.838 -181.105 214.933 -166.268 218.664C-150.708 222.591 -134.17 218.145 -119.987 211.324C-108.076 205.594 -97.0028 198.417 -84.571 193.664C-62.0413 185.054 -42.3126 189.246 -29.4996 207.031C-14.0107 228.525 -6.22219 259.493 32.1011 245.2C42.4375 241.346 51.6768 235.475 61.6289 230.868C81.4529 221.689 107.544 218.338 123.774 230.579C145.123 246.68 137.406 276.751 152.169 296.137C161.227 308.023 171.956 307.729 187.251 307.928C235.815 308.564 289.387 335.546 265.16 384.019C246.22 421.903 209.822 454.418 172.007 478.872C101.61 524.398 18.9157 565.704 -69.9863 557.293C-117.093 552.835 -152.347 531.981 -173.113 496.259C-178.242 487.441 -185.985 478.614 -197.38 477.08C-208.353 475.604 -219.316 480.556 -230.395 480.186C-243.411 479.747 -255.855 474.678 -267.209 469.952C-286.516 461.912 -306.738 453.24 -328.733 451.743C-352.084 450.17 -376.218 454.905 -399.688 455.027C-411.237 455.092 -423.802 453.716 -431.321 446.438C-449.735 428.617 -422.817 405.664 -433.442 386.355C-436.879 380.1 -444.025 376.207 -450.884 372.647C-480.237 357.36 -516.606 338.45 -525.386 307.418C-537.155 265.73 -497.399 228.526 -458.254 203.416Z" fill="#FAB1A5"></path>
              </g>
              <g id="4b7780c69d86dd35eace95bdc87c9bd7" filter="url(#2977ec7e95a2a7f5918c3d600700342b)">
                <path d="M-58.3309 394.475C-113.781 447.806 -190.812 488.108 -271.461 466.779C-295.747 460.355 -320.215 446.962 -348.229 450.106C-376.477 453.27 -401.449 483.583 -430.609 473.555C-454.686 465.283 -449.81 437.931 -459.831 421.541C-474.537 397.517 -504.661 405.718 -531.785 418.646C-550.358 427.495 -573.022 436.661 -590.248 429.501C-602.477 424.419 -607.409 412.41 -607.82 400.817C-608.632 377.19 -593.57 339.409 -632.335 332.763C-653.405 329.15 -676.518 340.589 -698.599 340.544C-719.158 340.502 -736.1 328.472 -741.395 313.336C-748.522 293.017 -734.43 279.454 -718.143 262.506C-679.995 222.793 -632.78 188.326 -580.102 161.946C-528.211 135.956 -467.171 124.483 -419.823 150.941C-389.895 167.661 -371.96 196.253 -338.859 209.104C-312.346 219.396 -278.061 217.441 -249.44 205.119C-234.659 198.757 -221.481 189.82 -206.685 183.484C-191.89 177.148 -174.055 173.622 -160.556 179.11C-138.824 187.929 -136.238 211.023 -116.266 220.21C-93.3063 230.767 -63.1093 211.985 -41.854 201.06C-22.9179 191.327 5.1699 181.122 24.1722 190.58C35.1729 196.056 39.7379 206.975 42.0482 217.569C44.3586 228.164 45.1552 239.388 51.1697 248.646C60.0554 262.328 78.5553 269.334 94.8185 277.384C121.471 290.561 142.934 319.517 107.713 342.517C94.4007 351.21 77.1042 353.82 60.9984 354.259C44.8927 354.699 28.8964 353.334 12.7384 355.591C-17.4261 359.803 -38.7327 375.622 -58.3309 394.475Z" fill="#F2385A"></path>
              </g>
            </g>
          </g>
        </g>
      </g>
    </g>
    <g id="6c5472eed1262e27bb05732395706740">
      <g id="2e87983016015bc52c1ca87d999a9433">
        <path id="a8e85937b0321a1c1c14d311a47bbe1c" d="M320.585 15.4491C318.636 12.6217 316.282 10.1158 313.835 7.71115C313.078 6.96935 311.813 7.56761 311.901 8.61763C312.253 13.027 310.431 17.6308 307.907 21.4007C304.708 26.1991 300.434 30.2421 297.469 35.1923C291.358 45.372 291.476 58.1378 293.615 69.8189C295.753 81.5 299.7 92.8805 300.647 104.711C301.104 110.349 300.829 116.193 298.69 121.424C296.582 126.568 292.439 131.089 287.114 132.659C286.957 132.711 286.879 132.873 286.94 133.015C286.974 133.098 287.069 133.167 287.161 133.17C294.106 133.829 300.519 128.228 302.841 121.619C305.18 114.967 304.227 107.634 302.633 100.772C301.05 93.9079 298.84 87.0931 298.729 80.0498C298.622 73.0187 300.679 65.9656 304.566 60.0834C308.099 54.7322 312.999 50.4701 317.192 45.6234C321.385 40.7766 324.998 34.9487 325.07 28.5402C325.138 23.8708 323.248 19.3168 320.585 15.4491Z" fill="url(#e1410a25fbe990f94eee6046b9b80d66)"></path>
        <path id="7f124491b53534735e348411c243fec9" opacity="0.5" d="M316.193 29.1144C316.228 30.4258 316.06 31.7087 315.836 32.9791C315.6 34.2526 315.293 35.5042 314.888 36.7277C314.701 37.3487 314.455 37.9449 314.238 38.5473C314.007 39.1528 313.734 39.7427 313.485 40.3266C313.209 40.9042 312.921 41.4848 312.632 42.0654L311.689 43.7608C311.355 44.3136 311.005 44.857 310.655 45.4004C310.305 45.9439 309.909 46.4594 309.543 46.9936C308.794 48.0402 308.005 49.0313 307.25 50.0533C305.724 52.0881 304.242 54.1384 302.959 56.3095C301.676 58.4806 300.617 60.7666 299.816 63.1459C299.374 64.3261 299.101 65.5563 298.773 66.774C298.541 68.0074 298.256 69.2406 298.134 70.4991C297.77 73.0064 297.713 75.5426 297.669 78.0758C297.692 79.3379 297.73 80.6094 297.768 81.8808L298.023 85.6865C298.026 85.8035 297.946 85.9016 297.832 85.9166C297.715 85.9192 297.617 85.8388 297.602 85.7248C296.972 80.6648 296.698 75.5046 297.281 70.3818C297.761 65.2585 299.437 60.2201 302.056 55.7733C303.364 53.5438 304.862 51.4505 306.369 49.3941C307.121 48.3598 307.92 47.3534 308.647 46.3251C309.003 45.8063 309.393 45.3184 309.734 44.7903C310.074 44.2623 310.415 43.7342 310.756 43.2061L311.701 41.5754C311.996 41.0194 312.291 40.4634 312.57 39.8981C312.834 39.3236 313.116 38.7706 313.352 38.1898C313.589 37.609 313.84 37.0374 314.046 36.438C314.503 35.2671 314.847 34.0587 315.159 32.8318C315.46 31.6078 315.689 30.3621 315.765 29.128L315.762 29.1157C315.772 28.9957 315.868 28.9068 315.988 28.9165C316.105 28.9139 316.19 28.9974 316.193 29.1144Z" fill="white"></path>
      </g>
      <g id="69da59f52aeb124f76007b57b911ce48">
        <path id="5f6ad1d7896c72bb2bc98d61df8204a8" d="M356.228 26.093C351.978 29.9741 346.121 32.2004 340.454 33.7838C333.049 35.8553 325.203 37.3673 319.072 42.0104C312.667 46.8559 309.012 54.5229 306.738 62.2256C304.464 69.9284 303.333 77.9526 300.714 85.5482C298.225 92.7747 294.118 99.8108 287.713 103.882C292.928 103.704 297.594 99.7989 300.166 95.1796C302.916 90.2389 303.821 84.5362 305.035 79.0122C306.25 73.5 307.952 67.8212 311.857 63.7257C319.512 55.7015 332.632 56.4754 342.085 50.6894C346.978 47.7011 350.68 43.0462 353.395 37.9864C355.24 34.5457 356.657 30.8908 357.943 27.2001C358.276 26.1882 357.038 25.3667 356.228 26.093Z" fill="url(#ec156e1cad93fe56138b3888da3137c2)"></path>
      </g>
      <g id="a4985a14883ebe93c74ba9e7f86370de">
        <g id="cf7d943f5b9aeec4fa91318a6f51ff39">
          <g id="e9ae497ca7274ce4a4a6a416ef95077a">
            <path id="ff8a5db9a1c4cd2aad9895d79b81a386" d="M280.907 29.2349L194.128 26.4707C192.143 26.4078 190.531 27.8528 190.531 29.7013V178.06C190.531 179.908 192.143 181.319 194.128 181.213L280.904 176.569C282.698 176.471 284.151 174.975 284.151 173.221V32.5112C284.154 30.7571 282.701 29.2921 280.907 29.2349Z" fill="#BCCFDC"></path>
            <path id="51ff172a364dd74950c13cec73a10d02" d="M280.908 31.108L194.129 28.4383C193.318 28.4126 192.655 29.0077 192.655 29.766V177.953C192.655 178.711 193.318 179.292 194.129 179.249L280.905 174.699C281.641 174.659 282.24 174.044 282.24 173.323V32.4557C282.243 31.7346 281.644 31.1309 280.908 31.108Z" fill="white"></path>
          </g>
        </g>
      </g>
      <g id="3d327350e9ba31bddb60be8ed51a58be">
        <g id="d7158e2951e136c0d123dfc7f4aa7e4b">
          <path id="fb8c1c0a046bfde9ad9d4343bd03551b" d="M356.943 56.6141L262.996 53.432C260.849 53.3594 259.103 55.0231 259.103 57.1477V227.804C259.103 229.929 260.849 231.555 262.996 231.432L356.943 226.09C358.884 225.98 360.459 224.256 360.459 222.239V60.3835C360.459 58.3662 358.887 56.6773 356.943 56.6141Z" fill="#F2385A"></path>
          <g id="c1523ba4c7319450801bb34f163fc4d1" opacity="0.3">
            <path id="27dd20a3663a665807cf803ece4213dc" opacity="0.3" d="M318.397 182.629C316.799 163.116 328.786 155.063 324.215 137.381C318.564 115.529 296.835 114.591 289.432 93.1618C286.597 84.9506 285.476 72.5376 293.593 54.4674L262.996 53.432C260.849 53.3594 259.103 55.0231 259.103 57.1477V227.804C259.103 229.929 260.849 231.555 262.996 231.432L346.765 226.668C325.452 210.17 319.378 194.622 318.397 182.629Z" fill="#D8DEE8"></path>
          </g>
          <path id="28fb491583832fa0d3947a9b3b8cfd78" d="M356.942 58.7678L262.995 55.6962C262.115 55.6678 261.398 56.3528 261.398 57.2241V227.682C261.398 228.553 262.115 229.223 262.995 229.172L356.942 223.938C357.741 223.894 358.388 223.183 358.388 222.356V60.3179C358.388 59.4876 357.741 58.7931 356.942 58.7678Z" fill="white"></path>
        </g>
      </g>
      <g id="216f19004fdd00c9e332488bfd07d9ce">
        <path id="ed02ab652abb7b0c68fb310129b983ef" opacity="0.6" d="M282.827 158.492L331.453 157.893C332.718 157.878 333.743 158.472 333.743 159.219V172.156C333.743 172.903 332.718 173.529 331.453 173.555L280.205 174.542C278.878 174.568 277.801 173.968 277.801 173.199V156.289L282.827 158.492Z" fill="#DAE4EC"></path>
        <path id="598892aa2365b400ef8a305a611742f4" opacity="0.67" d="M286.453 169.442L325.439 168.777V170.341L286.453 171.034V169.442Z" fill="white"></path>
        <path id="39044bf5f5d5f080a5ddc40610aaebfb" opacity="0.67" d="M286.453 166.26L325.439 165.648V167.212L286.453 167.851V166.26Z" fill="white"></path>
        <path id="f9ff6d2db77e2ff54f33e0980980994c" opacity="0.67" d="M286.453 163.079L325.439 162.52V164.085L286.453 164.668V163.079Z" fill="white"></path>
      </g>
      <g id="a6b0fc4b08e0074cf9339fdf20e43c97">
        <path id="486fe0f15d011b62d0309adb42d70657" d="M201.906 163.026C200.641 160.597 198.455 158.019 199.358 155.2C200.249 152.422 203.861 150.321 206.934 150.746C209.631 151.117 211.133 153.321 213.915 157.204C219.464 164.944 220.466 171.918 221.421 172.864C229.76 181.103 244.032 167.529 255.403 174.856C263.01 179.757 267.467 190.921 264.685 199.786C261.909 208.621 252.806 212.409 251.219 213.069C231.33 221.345 201.325 204.602 199.723 189.048C198.835 180.42 206.691 172.217 201.906 163.026Z" fill="#233F52"></path>
        <path id="24509f1c3d4ce584f02183aa50173f1a" d="M154.924 135.398C153.887 135.17 151.112 140.229 152.468 141.767C152.732 142.068 153.176 142.26 157.974 142.017C160.904 141.868 161.704 141.749 162.069 142.266C162.932 143.491 159.995 146.358 160.637 147.03C161.178 147.599 163.996 146.31 163.996 145.109C163.996 144.686 163.65 144.653 163.452 144.002C163.142 142.978 163.811 142.409 163.759 141.248C163.753 141.126 163.689 139.925 163.023 139.32C161.519 137.952 158.281 140.831 156.405 139.594C154.824 138.551 155.699 135.568 154.924 135.398Z" fill="url(#669c847bc490cccf0cc8645c66e38e0c)"></path>
        <path id="4c33ce5993550be280c27bdda3597448" d="M206.442 108.573C209.516 108.639 213.73 108.503 216.05 109.108C215.977 110.141 215.904 109.938 215.727 110.956C212.982 110.874 212.73 111.972 212.73 111.972C212.164 112.647 211.182 112.89 210.291 112.853C209.331 112.814 208.817 112.522 208.479 112.203C207.4 111.184 207.713 110.378 206.892 109.947C206.138 109.548 205.573 109.825 204.053 109.682C202.794 109.564 201.63 109.299 201.663 109.001C201.721 108.481 206.029 108.563 206.442 108.573Z" fill="url(#309c9b1c74ebde0bc82a1605cfcb04df)"></path>
        <g id="96182e07ba1ce1ab6bc4a01d4c70e711">
          <path id="c79a33deafb320d5d58d375449a1ca0f" d="M250.481 259.656C249.246 257.965 247.754 257.394 245.695 256.165C244.522 255.466 242.828 254.35 240.91 252.675C241.484 252.204 243.47 246.023 244.041 245.555C245.802 248.911 248.395 252.997 252.198 257.071C254.12 259.127 256.032 260.844 257.82 262.27C258.376 263.249 259.951 265.268 260.228 266.262C260.228 266.262 256.376 265.909 251.785 262.492C251.612 261.79 251.259 260.723 250.481 259.656Z" fill="url(#2ef14c400147d25b543c07487f8faf11)"></path>
          <path id="0946e2cb92adc41c2b1723e131710a46" d="M257.824 262.27C257.988 262.388 258.152 262.516 258.319 262.653C258.319 262.653 258.575 262.865 258.818 263.096C258.839 263.115 262.527 266.645 261.834 267.855C261.277 268.821 257.848 268.405 255.714 266.797C255.014 266.268 254.315 265.51 253.719 264.86C252.865 263.933 252.226 263.096 251.792 262.495C256.203 265.009 258.663 265.948 259.174 265.319C259.487 264.921 259.04 263.905 257.824 262.27Z" fill="#680416"></path>
        </g>
        <path id="6874342780871e47eb7732c13c47ee90" d="M215.764 108.562C215.563 109.323 215.36 110.086 215.159 110.846C224.505 116.777 229.625 127.576 228.269 138.5C226.949 149.141 219.698 158.186 209.559 161.847C196.777 175.534 183.993 189.218 171.212 202.906C172.163 204.082 181.275 214.957 195.96 214.188C198.252 214.07 211.362 213.106 218.342 201.632C223.38 193.35 223.313 182.73 218.278 174.005C221.781 173.108 231.64 170.086 238.436 160.694C246.325 149.792 248.256 132.848 239.086 120.839C231.054 110.317 218.503 108.824 215.764 108.562Z" fill="#DA6668"></path>
        <g id="79289387650ff6f7e64558d54682024d">
          <path id="79e3ce47a8b1f9bef0888f53cc2d7eec" d="M165.975 215.633C165.486 214.639 164.717 214.754 163.026 213.702C160.22 211.957 160.025 210.203 157.247 209.203C156.408 208.902 155.875 208.71 155.62 208.956C155.261 209.303 155.605 210.352 156.362 211.744C159.837 215.016 164.285 217.494 165.927 218.357C166.07 217.475 166.465 216.621 165.975 215.633Z" fill="#680416"></path>
          <path id="448622f632cfb86c9241ef2a8424776b" d="M171.162 228.197C172.037 226.753 172.916 225.306 173.792 223.862C167.751 222.317 166.088 220.59 165.905 219.161C165.869 218.888 165.89 218.623 165.932 218.359C164.291 217.498 159.84 215.017 156.368 211.746C157.687 214.178 160.262 217.662 162.564 220.301C165.559 223.737 168.593 226.309 171.162 228.197Z" fill="url(#2f84488a17aa8f107f5dce5010f2d420)"></path>
        </g>
        <path id="a6253d3aa08a19fb4ecce0ffd1cfccae" d="M194.867 200.176C199.904 209.084 201.792 216.438 202.589 221.23C203.161 224.665 203.267 227.353 201.659 228.837C198.895 231.39 192.863 228.724 192.361 228.493C188.576 226.769 187.81 224.498 185.189 222.495C182.496 220.433 177.902 218.7 169.571 220.193C169.061 222.145 168.55 224.097 168.036 226.052C173.5 231.384 182.909 238.648 195.827 240.526C201.37 241.332 207.867 242.278 212.333 238.392C218.882 232.692 217.654 219.558 212.151 211.279C206.544 202.836 197.311 200.671 194.867 200.176Z" fill="#8EDEF4"></path>
        <path id="85562513ed6cbe937de58d1d58557513" d="M195.203 162.608C199.128 162.48 205.716 163.079 209.641 162.948C210.127 165.484 210.571 169.448 209.626 173.972C206.23 190.204 187.635 200.736 183.665 197.176C179.217 193.184 190.721 170.935 195.203 162.608Z" fill="#DAE4EC"></path>
        <path id="8f86913071cadfb233b60d246a15cff3" d="M178.306 197.992C179.1 204.677 198.129 211.658 209.484 215.823C211.448 216.544 215.319 217.915 217.936 221.606C220.934 225.835 220.274 230.274 220.654 233.499C221.296 238.932 225.516 246.168 241.362 253.939C243.356 252.559 245.354 251.179 247.348 249.798C242.769 240.747 235.977 229.501 225.981 218.006C212.953 203.021 199.357 193.213 189.227 187.074C179.966 192.072 178.023 195.584 178.306 197.992Z" fill="#8EDEF4"></path>
        <path id="cdb5ced6302770673da63667c56c49a1" d="M163.738 143.008C166.331 146.519 172.649 154.053 183.631 158.395C191.298 161.426 198.142 161.672 202.237 161.496C201.915 169.714 200.018 176.053 198.419 180.169C196.607 184.842 190.116 201.524 176.048 205.413C173.92 205.999 168.952 207.374 164.842 204.726C160.354 201.837 158.573 195.249 160.178 190.491C162.343 184.079 170.761 180.689 173.251 179.686C177.182 178.102 181.353 177.412 181.74 175.049C181.901 174.064 181.344 173.14 180.834 172.499C168.91 174.782 158.566 168.54 156.472 160.322C154.617 153.044 159.798 146.443 160.594 145.455C161.643 144.643 162.689 143.826 163.738 143.008Z" fill="#DA6668"></path>
        <path id="b201cb25222015391abb3557ddd171bf" d="M203.864 156.697L202.967 162.045C202.967 162.045 204.098 163.179 207.288 162.176L206.059 156.43L203.864 156.697Z" fill="url(#14ddcaa1782e0d3c66239de43ade19bb)"></path>
        <g id="5ea01ca0a21753b73f038b53a5fbeebc">
          <path id="db85fa2fa397421a79c35fa8919a4ae5" d="M203.884 153.526C203.884 153.526 202.805 154.298 202.242 155.429C201.68 156.56 201.442 157.761 202.303 158.591C203.163 159.424 204.623 158.856 206.468 157.755C208.314 156.654 208.484 151.89 203.884 153.526Z" fill="url(#af5acf2fce88e1bc81f88e49a60ab6c1)"></path>
          <path id="eacdb85814ee1d5835599586857882ff" d="M207.803 154.053C207.921 154.281 208.311 155.093 208.067 156.084C207.696 157.586 206.201 157.945 206.088 157.985C206.088 157.985 207.666 156.689 206.721 156.431C205.775 156.173 205.948 154.622 206.59 153.996C206.59 153.996 205.422 154.622 204.422 154.05C203.422 153.479 202.871 154.491 202.871 154.491C202.987 154.275 203.473 153.409 204.541 153.032C204.772 152.95 205.553 152.688 206.459 153.017C207.234 153.296 207.657 153.844 207.803 154.053Z" fill="#233F52"></path>
        </g>
        <path id="23a87d92cd194abb1dbb4ec0e1087341" d="M195.567 160.238C196.06 159.396 197.562 159.411 198.297 159.42C201.861 159.457 202.63 162.053 205.393 162.013C208.06 161.974 208.774 159.539 210.988 159.967C212.678 160.293 214.347 162.117 214.125 163.515C213.642 166.589 203.733 169.523 198.568 165.698C196.653 164.275 194.822 161.509 195.567 160.238Z" fill="#DA6668"></path>
      </g>
      <g id="a21e98ed142f71043a2631fc62876784">
        <path id="bdc5ccb6af905f264818ba27edfb8059" d="M302.89 87.8493L313.101 70.4771C313.319 70.1075 313.05 69.6406 312.616 69.6406H306.038C305.706 69.6406 305.398 69.8155 305.23 70.1009L294.651 88.0984C294.287 88.7171 294.737 89.4941 295.458 89.4941H300.057L298.072 92.8729C297.708 93.4915 298.159 94.2686 298.88 94.2686H315.453C315.852 94.2686 316.221 94.0574 316.422 93.7159L319.376 88.6874C319.594 88.3162 319.325 87.8509 318.893 87.8509H302.89V87.8493ZM306.452 71.2855H310.71L300.972 87.8493H296.715L306.452 71.2855ZM315.145 92.6238H300.137L301.975 89.4941H316.983L315.145 92.6238Z" fill="#F2385A"></path>
      </g>
      <g id="7e63f9038499dc15fa6bd6e3be9887de">
        <g id="9fb07289e61928ed6b449cf782323967">
          <g id="6ad1803d96336c5395d96128fa62015c">
            <g id="3b83070184b71f77214a57e83188b632">
              <g id="34d55c3441a3c5c077eeee95c31b7003">
                <rect id="5cc31dd1ef5c3d1d0739459fd23e2919" x="157.955" y="96.4572" width="42.8009" height="41.4228" stroke="#77C2D7" stroke-width="0.890972" stroke-linecap="square" stroke-linejoin="round"></rect>
                <rect id="133cafa6bd69825a85b703ac497cc17c" x="158.006" y="96.5039" width="42.6989" height="41.3297" fill="#F4FCFF" stroke="#8EDEF4" stroke-width="0.747716" stroke-linecap="square" stroke-linejoin="round"></rect>
              </g>
              <rect id="e3514264ce4b642f2e6dd216eb2aa702" x="197.178" y="94.8088" width="4.44187" height="4.44187" fill="#77C2D7" stroke="#F4FCFF" stroke-width="0.890972"></rect>
              <rect id="8c8ef404b7ee21b9c42415368ebd0f44" x="156.315" y="95.0119" width="3.77526" height="3.73318" fill="#77C2D7" stroke="#F4FCFF" stroke-width="0.890972"></rect>
              <rect id="e2eb2650d412e876af5707e82b4a53d4" x="156.315" y="134.836" width="4.44187" height="4.44187" fill="#77C2D7" stroke="#F4FCFF" stroke-width="0.890972"></rect>
              <rect id="4d32e28a86f1993764b0554245456507" x="197.178" y="134.836" width="4.44187" height="4.44187" fill="#77C2D7" stroke="#F4FCFF" stroke-width="0.890972"></rect>
            </g>
            <rect id="b796328f0c236aaae0c1ca9b43432bd7" x="177.593" y="136.094" width="3.5265" height="3.49068" fill="#77C2D7" stroke="#F4FCFF" stroke-width="0.445486"></rect>
            <rect id="97cbc5ecc8bb4debcac03eda5439d6f7" x="198.941" y="115.426" width="3.5265" height="3.49068" fill="#77C2D7" stroke="#F4FCFF" stroke-width="0.445486"></rect>
            <rect id="f717399854a81dbdae68ce51d10df7f0" x="156.243" y="115.426" width="3.5265" height="3.49068" fill="#77C2D7" stroke="#F4FCFF" stroke-width="0.445486"></rect>
            <g id="dd868f5627da9c0c6c9952e102003d20">
              <rect id="1d70470954b4da97fa56ee5c1f1f9113" x="177.591" y="94.7618" width="3.5265" height="3.49068" fill="#77C2D7" stroke="#F4FCFF" stroke-width="0.445486"></rect>
              <path id="aff765662ef6698f742b1aa1857f12ff" d="M179.354 89.6172V94.2914" stroke="#77C2D7" stroke-width="0.445486" stroke-linecap="square"></path>
              <ellipse id="46606f96bfb0755b75220204d8f83503" cx="179.356" cy="86.6673" rx="1.986" ry="1.96808" fill="#77C2D7" stroke="#F4FCFF" stroke-width="0.445486"></ellipse>
            </g>
          </g>
        </g>
        <g id="5e099d9c24e08ff4ee433bc4be0cd518">
          <path id="df6a29663b5264696ecdbab4692e7c9e" d="M196.61 109.493C196.581 107.434 190.18 109.775 189.441 110.011C189.369 110.035 189.329 110.082 189.307 110.137C189.256 110.177 189.225 110.237 189.217 110.3C189.136 110.43 189.19 110.642 189.388 110.635C191.267 110.567 193.196 110.597 195.064 110.385C195.533 110.332 196.62 110.191 196.61 109.493Z" fill="#CE2846"></path>
          <path id="45ad3e5b70094e84bd0ac11a3e6c1f65" d="M189.63 111.924C189.585 111.925 189.553 111.943 189.531 111.97C189.527 111.97 189.523 111.97 189.519 111.969C189.389 111.961 189.33 112.16 189.449 112.219C190.213 112.597 191.117 112.724 191.961 112.79C192.237 112.811 193.32 113.034 193.465 112.588C193.737 111.751 190.044 111.917 189.63 111.924Z" fill="#F2385A"></path>
          <path id="185ab936e3adae02e9060c03b350dada" d="M191.46 106.31C191.022 106.024 190.402 106.776 190.19 107.034C189.646 107.7 188.915 108.545 188.674 109.373C188.644 109.475 188.743 109.558 188.836 109.538C188.883 109.581 188.954 109.594 189.012 109.535C189.325 109.211 192.365 106.9 191.46 106.31Z" fill="#FF768F"></path>
          <g id="d456244b5faf0b297754665b495fae84">
            <g id="af84b46f6d10906660189b5e7b27f8bb">
              <path id="8e83359fdd76d9f91a42ba9a68ca2bc8" d="M175.15 132.105C174.762 132.773 173.477 133.466 171.321 133.106C171.131 133.075 170.935 133.037 170.73 132.987C167.829 132.297 166.882 130.062 166.971 129.235C166.978 129.177 166.987 129.124 167 129.076C167.008 129.047 167.019 129.017 167.03 128.991C167.159 128.659 167.46 128.517 167.695 128.457C167.874 128.41 168.013 128.41 168.013 128.41L171.952 129.607L174.468 130.371C174.468 130.371 174.758 130.567 174.991 130.881C175.168 131.12 175.313 131.429 175.269 131.772V131.774C175.253 131.879 175.214 131.99 175.15 132.105Z" fill="#DAE4EC"></path>
              <path id="599415516f506fbe3cb612ec789a5c0f" d="M175.149 132.106C174.28 132.567 172.873 132.815 170.992 132.362C168.355 131.725 167.35 130.178 167.001 129.077C167.187 128.409 168.013 128.41 168.013 128.41L174.468 130.371C174.468 130.371 175.37 130.98 175.267 131.775C175.252 131.88 175.214 131.991 175.149 132.106Z" fill="#035970"></path>
              <path id="369ec4ca132238d11447bf40ade05f59" d="M175.267 131.771C174.504 132.211 173.263 132.476 171.556 132.163C171.385 132.133 171.211 132.096 171.031 132.053C168.735 131.505 167.519 130.105 167.029 128.991C166.819 128.51 166.743 128.083 166.773 127.8C166.798 127.57 166.881 127.398 166.991 127.269C167.035 127.218 167.081 127.175 167.131 127.137C167.3 127.004 167.5 126.939 167.659 126.902C167.742 126.91 167.797 126.921 167.797 126.921L174.209 128.867L175.107 129.14C175.107 129.14 175.313 129.211 175.569 129.34C175.774 129.537 176.024 129.836 176.129 130.194C176.168 130.332 176.187 130.476 176.174 130.629C176.172 130.643 176.171 130.66 176.168 130.676C176.125 131.035 175.821 131.449 175.267 131.771Z" fill="white"></path>
              <path id="920438debee9c69e6382dc6949d72b5c" d="M176.177 130.63C175.378 131.402 173.493 131.814 171.152 131.275C167.725 130.488 167.054 128.316 166.991 127.269C167.181 127.046 167.454 126.947 167.659 126.902C167.742 126.91 167.798 126.921 167.798 126.921L175.109 129.14C175.109 129.14 175.314 129.211 175.57 129.34C175.854 129.613 176.224 130.08 176.177 130.63Z" fill="#035970"></path>
              <path id="a0736124e2bab13f364dbddf4cf7030d" d="M176.131 130.196C175.878 130.46 175.499 130.708 174.991 130.881C174.218 131.148 173.153 131.249 171.799 130.989C171.655 130.963 171.508 130.932 171.356 130.895C169.476 130.446 168.32 129.425 167.695 128.457C167.385 127.979 167.204 127.514 167.132 127.138C167.092 126.945 167.084 126.777 167.097 126.641C167.147 126.192 167.42 125.959 167.692 125.84C167.986 125.706 168.278 125.707 168.278 125.707L175.589 127.927C175.589 127.927 175.832 128.092 176.068 128.364C176.256 128.583 176.438 128.87 176.489 129.196C176.506 129.299 176.508 129.407 176.494 129.518C176.466 129.734 176.346 129.971 176.131 130.196Z" fill="white"></path>
              <path id="63e4acbe3e7662be36ad34dfd0591222" d="M176.489 129.196C175.775 129.928 174.347 130.829 171.633 130.062C167.869 128.997 167.64 126.689 167.692 125.84C167.987 125.706 168.278 125.707 168.278 125.707L175.59 127.927C175.59 127.927 176.377 128.459 176.489 129.196Z" fill="#035970"></path>
              <path id="9016a41fbbad249c965cb7dac0f7b01e" opacity="0.35" d="M175.267 131.774C175.252 131.88 175.214 131.992 175.149 132.106C174.761 132.774 173.477 133.468 171.321 133.107C171.647 132.659 171.554 132.165 171.554 132.165L171.556 132.164C172.221 131.683 171.778 131.018 171.778 131.018C171.784 131.009 171.791 130.998 171.798 130.988C172.195 130.388 172.046 129.834 171.95 129.606C171.922 129.535 171.898 129.495 171.898 129.495L174.208 128.868L176.067 128.363C176.255 128.582 176.437 128.869 176.488 129.195C176.505 129.299 176.507 129.406 176.493 129.517C176.465 129.733 176.344 129.971 176.129 130.195C176.168 130.333 176.187 130.478 176.174 130.631C176.172 130.645 176.171 130.661 176.168 130.677C176.123 131.034 175.819 131.449 175.265 131.771L175.267 131.774Z" fill="#9EB6C7"></path>
            </g>
            <g id="fcedf84e3c0f4ed074ee2121c493e284">
              <path id="08588e37db17fe2095c0c5e440466c14" d="M180.371 125.875C178.537 126.505 177.442 128.074 176.019 129.08C175.854 129.197 175.682 129.306 175.506 129.406C174.597 129.919 173.523 130.167 172.057 129.821C171.913 129.789 171.766 129.749 171.614 129.704C171.001 129.519 170.405 129.241 169.87 128.875C169.754 128.798 169.642 128.716 169.535 128.629C169.352 128.485 169.18 128.328 169.018 128.162C168.783 127.921 168.572 127.66 168.39 127.374C167.866 126.551 167.897 125.587 167.664 124.677C167.626 124.53 167.578 124.393 167.518 124.258C167.222 123.584 166.682 123.056 166.192 122.501C165.985 122.268 165.789 122.025 165.606 121.773C161.381 116.006 163.73 106.937 169.983 103.675C171.203 103.038 172.536 102.628 173.907 102.44C175.961 102.151 178.093 102.356 180.031 103.023C180.065 103.034 180.101 103.048 180.134 103.059C182.873 104.031 185.336 105.928 186.756 108.49C190.17 114.652 187.093 123.569 180.371 125.875Z" fill="#F2385A"></path>
              <path id="43d72043c1416a183dbd6e64257d5f9d" opacity="0.34" d="M180.371 125.873C177.221 126.952 176.253 130.808 172.056 129.818C171.198 128.16 170.975 126.167 171.542 124.385C172.555 121.213 175.737 118.951 176.242 115.661C176.54 113.721 175.822 111.743 174.729 110.113C174.06 109.116 173.238 108.193 172.845 107.058C172.289 105.447 172.737 103.631 173.907 102.436C175.997 102.142 178.169 102.36 180.134 103.055C182.873 104.027 185.336 105.924 186.756 108.486C190.17 114.65 187.093 123.567 180.371 125.873Z" fill="#FAAFBD"></path>
              <g id="804d07b00341a11a30114ec5191e4aa6">
                <path id="8b884b1e9d1a1b548c1880941107346f" d="M181.498 119.444C181.216 119.26 180.849 119.305 180.543 119.56C180.002 120.008 179.588 120.705 179.222 121.319C179.155 121.431 179.091 121.54 179.026 121.644C178.875 121.891 178.726 122.147 178.578 122.41C177.701 122.671 176.731 122.841 175.966 122.39C175.36 122.035 174.958 121.299 174.893 120.424C174.887 120.347 174.885 120.268 174.883 120.189C175.288 119.853 175.652 119.463 175.961 119.034L176.025 118.944C176.332 118.519 176.712 117.99 176.834 117.455C176.925 117.048 176.794 116.654 176.508 116.476C176.257 116.32 175.942 116.36 175.663 116.584C175.278 116.894 175.016 117.481 174.899 117.927C174.73 118.569 174.544 119.283 174.527 120.017C174.296 120.198 174.051 120.359 173.8 120.5C173.417 120.714 173.099 120.826 172.798 120.856C172.23 120.911 171.596 120.668 170.912 120.134C170.778 120.03 170.647 119.918 170.521 119.803C170.607 118.28 170.581 116.919 169.875 115.761C169.654 115.398 169.408 115.199 169.127 115.154C168.654 115.078 168.246 115.476 168.14 115.889C168.036 116.297 168.148 116.709 168.272 117.058C168.659 118.143 169.316 119.15 170.152 119.949C170.15 120.009 170.146 120.071 170.142 120.132L169.821 125.048C169.744 126.223 169.666 127.429 169.535 128.621C169.642 128.709 169.753 128.79 169.87 128.867C170.016 127.599 170.099 126.32 170.18 125.07L170.492 120.254C170.557 120.31 170.624 120.364 170.691 120.416C171.447 121.009 172.167 121.277 172.831 121.213C173.181 121.179 173.544 121.051 173.971 120.813C174.166 120.705 174.353 120.586 174.534 120.457C174.61 121.446 175.076 122.285 175.781 122.7C176.556 123.156 177.477 123.069 178.337 122.848C178.11 123.274 177.883 123.724 177.657 124.205C176.968 125.663 176.372 127.186 175.795 128.658C175.698 128.906 175.603 129.154 175.504 129.401C175.681 129.301 175.852 129.192 176.017 129.075C176.054 128.98 176.091 128.884 176.128 128.789C176.704 127.321 177.296 125.803 177.981 124.356C178.261 123.766 178.538 123.219 178.82 122.71C178.836 122.705 178.854 122.699 178.87 122.695C180.1 122.31 181.406 121.734 181.785 120.373C181.893 119.991 181.779 119.625 181.498 119.444ZM168.609 116.94C168.502 116.641 168.405 116.296 168.485 115.981C168.551 115.724 168.807 115.468 169.067 115.51C169.083 115.513 169.098 115.515 169.112 115.518C169.269 115.562 169.419 115.705 169.568 115.949C170.175 116.946 170.238 118.136 170.177 119.47C169.487 118.749 168.942 117.875 168.609 116.94ZM175.244 118.019C175.342 117.647 175.568 117.12 175.886 116.866C176.016 116.76 176.142 116.721 176.248 116.75C176.272 116.757 176.295 116.767 176.316 116.781C176.443 116.858 176.548 117.08 176.483 117.377C176.376 117.842 176.036 118.317 175.736 118.734L175.669 118.825C175.443 119.14 175.185 119.431 174.904 119.693C174.959 119.113 175.108 118.542 175.244 118.019ZM179.082 122.25C179.165 122.108 179.248 121.969 179.333 121.831C179.396 121.726 179.462 121.616 179.528 121.504C179.882 120.914 180.277 120.246 180.77 119.836C180.92 119.714 181.082 119.666 181.215 119.704C181.246 119.713 181.275 119.726 181.303 119.743C181.453 119.84 181.505 120.046 181.44 120.279C181.14 121.364 180.117 121.895 179.082 122.25Z" fill="white"></path>
              </g>
              <g id="c205b0d4ab62e24edef6278afb3e941b">
                <g id="c20e17ef599cf998c5fd6eba2edd9588">
                  <path id="7cf882d2a0bd980085f35dd428023f8e" d="M167.759 107.87C167.84 107.728 167.939 107.595 168.038 107.465C168.062 107.432 168.029 107.476 168.054 107.443C168.068 107.425 168.083 107.407 168.097 107.389C168.125 107.353 168.153 107.318 168.183 107.283C168.248 107.204 168.314 107.128 168.383 107.052C168.553 106.863 168.732 106.683 168.919 106.51C170.026 105.488 171.391 104.769 172.835 104.352C174.033 104.006 175.278 103.866 176.524 103.874C176.72 103.875 176.72 103.572 176.524 103.571C174.475 103.557 172.407 103.953 170.597 104.942C169.568 105.504 168.616 106.254 167.883 107.174C167.747 107.346 167.608 107.523 167.498 107.716C167.399 107.886 167.661 108.04 167.759 107.87Z" fill="white"></path>
                </g>
              </g>
              <path id="47f1e0bbd2dedca7f147686d8453913d" d="M179.097 104.152C178.981 104.566 178.552 104.808 178.137 104.693C177.723 104.578 177.481 104.148 177.597 103.733C177.712 103.319 178.141 103.077 178.556 103.193C178.971 103.308 179.212 103.738 179.097 104.152Z" fill="white"></path>
            </g>
          </g>
        </g>
      </g>
      <g id="c835945371c10bdf57c37a1eae1d3303">
        <g id="c1456e47bfceb64af519a2e087bb3650" opacity="0.6">
          <g id="745a0790124c47015c52006b55a0cb9a">
            <g id="546c358f5328a0c2b3637cfbc22e620b">
              <g id="1b4f9d376b2f07c4c4ef10edc235c8c7">
                <g id="573777a47c647eb388ce3e6a690b3526">
                  <path id="b64276f65fe16b19b3bc4fb036684a2f" opacity="0.8" d="M286.659 109.774C287.107 109.767 287.462 110.156 287.418 110.607L287.408 110.701L286.573 119.112C286.534 119.495 286.219 119.788 285.838 119.794L271.876 120.011C271.427 120.017 271.073 119.628 271.117 119.177L271.868 111.613C271.907 111.23 272.222 110.937 272.603 110.931L281.538 110.792C281.842 110.788 282.114 110.598 282.225 110.312C282.336 110.026 282.607 109.837 282.912 109.832L286.659 109.774Z" fill="#77C2D7"></path>
                </g>
              </g>
            </g>
          </g>
          <g id="84ad80306906a9382dba877947d5f6eb">
            <g id="43773fa29592b1e09d5343e1ca1ba10d">
              <g id="45d29b5526be8b913859510b83dc533e">
                <g id="0743b83f556e75238a7c45d2290f1b80">
                  <path id="cf76a70e94ea52c72c8a72849c67d51f" d="M316.345 109.774C316.793 109.767 317.148 110.156 317.104 110.607L317.094 110.701L316.258 119.112C316.22 119.495 315.904 119.788 315.523 119.794L301.562 120.011C301.113 120.017 300.758 119.628 300.803 119.177L301.554 111.613C301.592 111.23 301.908 110.937 302.289 110.931L311.223 110.792C311.528 110.788 311.8 110.598 311.911 110.312C312.022 110.026 312.293 109.837 312.598 109.832L316.345 109.774Z" fill="#77C2D7"></path>
                </g>
              </g>
            </g>
          </g>
          <g id="95ad1ad3911c1ab723a7d565a61c2864">
            <g id="bebc04f6a781740fc8f69951cca1075f">
              <g id="cf1048b1570b7b7b7f73950e08f95c34">
                <g id="45c00646fc98ccbc6882846372ba6b24">
                  <path id="fb42dad97951e5efb014600be138b7d2" d="M346.032 109.774C346.481 109.767 346.836 110.156 346.791 110.607L346.782 110.701L345.946 119.112C345.908 119.495 345.592 119.788 345.211 119.794L331.249 120.011C330.801 120.017 330.446 119.628 330.49 119.177L331.242 111.613C331.28 111.23 331.596 110.937 331.977 110.931L340.91 110.792C341.215 110.788 341.486 110.598 341.597 110.312C341.708 110.026 341.98 109.837 342.284 109.832L346.032 109.774Z" fill="#77C2D7"></path>
                </g>
              </g>
            </g>
          </g>
        </g>
        <g id="e94438c2e3a72c5f43d4b08b858237d0" opacity="0.6">
          <g id="083be879cdbc2efbf49b2113fc86b8d1">
            <g id="93dd820c6b0e9561d2c78c231ba886c3">
              <g id="3dfd620de02a05bf815782a0bd9c8d48">
                <g id="341e0c6ce21946859a169ccdbda20998">
                  <path id="fe6773dd3f6ded29611f2d3ca724e2e6" d="M286.658 135.922C287.107 135.915 287.461 136.304 287.417 136.755L287.407 136.85L286.572 145.261C286.534 145.643 286.218 145.936 285.837 145.942L271.875 146.159C271.427 146.166 271.072 145.777 271.116 145.326L271.868 137.761C271.906 137.379 272.222 137.085 272.603 137.079L281.537 136.94C281.842 136.936 282.113 136.746 282.224 136.46C282.335 136.175 282.607 135.985 282.911 135.98L286.658 135.922Z" fill="#FFF1CC"></path>
                </g>
              </g>
            </g>
          </g>
          <g id="eb8750e9c568edf95668d098c4ccc5a2">
            <g id="7847c66cc2d409d17190367fc8ebe813">
              <g id="dec9a6cd3ae7b558ef764db90c890f4a">
                <g id="16c24b5b26112832710ccf395cef691d">
                  <path id="82fc9404587e66f3678813eaf1920aae" d="M316.347 135.922C316.795 135.915 317.15 136.304 317.106 136.755L317.096 136.85L316.261 145.261C316.222 145.643 315.907 145.936 315.525 145.942L301.564 146.159C301.115 146.166 300.76 145.777 300.805 145.326L301.556 137.761C301.595 137.379 301.91 137.085 302.291 137.079L311.226 136.94C311.53 136.936 311.802 136.746 311.913 136.46C312.024 136.175 312.295 135.985 312.6 135.98L316.347 135.922Z" fill="#FAB1A5"></path>
                </g>
              </g>
            </g>
          </g>
          <g id="fb3d51058202219269cbf0de7c3fccfd">
            <g id="900d1aaf30ccba40870b92dffcfa94ca">
              <g id="80a8249d297e926b98b8cfb32f42e679">
                <g id="387d1541d2f2590a7ac2119c5cc18067">
                  <path id="48001c55aaf506c43c51a67f348e2479" d="M346.032 135.922C346.481 135.915 346.836 136.304 346.791 136.755L346.782 136.85L345.946 145.261C345.908 145.643 345.592 145.936 345.211 145.942L331.249 146.159C330.801 146.166 330.446 145.777 330.49 145.326L331.242 137.761C331.28 137.379 331.596 137.085 331.977 137.079L340.91 136.94C341.215 136.936 341.486 136.746 341.597 136.46C341.708 136.175 341.98 135.985 342.284 135.98L346.032 135.922Z" fill="#B2ECFC"></path>
                </g>
              </g>
            </g>
          </g>
        </g>
      </g>
      <g id="34ffb620dfb0fe97de10e06002d81832">
        <path id="7cac2559a08cec839190c394a17b93c7" d="M142.391 155.97C143.278 155.504 144.46 155.844 145.032 156.73L155.381 172.776C155.952 173.663 155.697 174.759 154.81 175.225L146.808 180.016L149.418 184.032C149.56 184.252 149.605 184.51 149.543 184.746C149.418 185.22 148.901 185.474 148.389 185.313L141.209 183.427L130.322 188.098C129.435 188.564 128.253 188.224 127.682 187.338L117.333 171.291C116.761 170.405 117.017 169.309 117.904 168.843L142.391 155.97Z" fill="#FAAFBD"></path>
        <path id="9b29ca01172c8894b5a4b886bb78f372" d="M134.421 169.453C133.663 168.277 134.126 166.757 135.457 166.058C136.787 165.359 138.433 165.672 139.696 167.631C140.538 168.936 140.306 171.91 138.999 176.551C133.883 175.286 130.904 174.001 130.062 172.696C128.799 170.737 129.309 169.29 130.639 168.59C131.97 167.891 133.663 168.277 134.421 169.453Z" fill="white"></path>
      </g>
      <g id="d05ec430792f7b8db48a615d4dcf49b0">
        <path id="2df9f1fd5e94622c51b7297153d391c5" d="M319.641 210.242C319.596 210.25 319.55 210.25 319.505 210.242L312.946 208.278C312.824 208.241 312.721 208.157 312.66 208.045C312.599 207.932 312.586 207.8 312.622 207.677C312.658 207.554 312.741 207.45 312.853 207.389C312.965 207.328 313.097 207.314 313.219 207.35L318.928 209.064L317.227 203.292C317.191 203.169 317.204 203.036 317.264 202.923C317.325 202.81 317.427 202.725 317.549 202.688C317.671 202.652 317.803 202.665 317.915 202.726C318.027 202.786 318.111 202.89 318.148 203.013L320.098 209.622C320.119 209.694 320.123 209.77 320.11 209.844C320.097 209.918 320.067 209.988 320.022 210.048C319.977 210.109 319.919 210.157 319.853 210.191C319.786 210.225 319.712 210.242 319.637 210.242H319.641Z" fill="#618298"></path>
        <path id="29da8ff2860589e128a1adfaa0c73572" d="M313.082 208.273C313.018 208.274 312.955 208.261 312.896 208.236C312.837 208.211 312.783 208.174 312.739 208.128L296.154 191.072C296.064 190.98 296.015 190.856 296.016 190.727C296.017 190.599 296.068 190.476 296.16 190.386C296.251 190.296 296.373 190.246 296.501 190.247C296.629 190.248 296.751 190.3 296.84 190.392L313.086 207.103L317.009 203.15L300.759 186.431C300.715 186.386 300.679 186.333 300.655 186.274C300.631 186.216 300.619 186.153 300.619 186.089C300.619 186.026 300.631 185.963 300.655 185.904C300.679 185.846 300.715 185.792 300.759 185.747C300.85 185.657 300.972 185.605 301.1 185.605C301.228 185.605 301.351 185.657 301.442 185.747L318.031 202.812C318.12 202.903 318.17 203.026 318.17 203.154C318.17 203.282 318.12 203.404 318.031 203.496L313.421 208.132C313.377 208.177 313.324 208.212 313.266 208.237C313.207 208.261 313.145 208.273 313.082 208.273V208.273Z" fill="#618298"></path>
        <path id="eedbc0760e066e870c3232da22d46911" d="M315.145 205.777C315.018 205.777 314.896 205.726 314.806 205.636L298.474 189.176C298.418 189.136 298.371 189.083 298.337 189.023C298.303 188.962 298.282 188.895 298.276 188.826C298.271 188.756 298.28 188.687 298.303 188.621C298.326 188.556 298.363 188.496 298.411 188.446C298.46 188.397 298.518 188.358 298.582 188.333C298.647 188.308 298.716 188.297 298.785 188.302C298.853 188.306 298.921 188.325 298.981 188.358C299.042 188.391 299.095 188.437 299.137 188.492L315.484 204.948C315.575 205.039 315.625 205.163 315.625 205.292C315.625 205.421 315.575 205.544 315.484 205.636C315.44 205.681 315.387 205.716 315.329 205.741C315.27 205.765 315.208 205.777 315.145 205.777Z" fill="#618298"></path>
        <path id="c368f3a66dfd2db6d4124dbf1f5e942f" d="M320.289 210C322.476 208.704 324.769 207.596 326.918 206.244C327.997 205.578 329.022 204.826 329.983 203.997C330.46 203.58 330.912 203.135 331.336 202.665C331.81 202.223 332.189 201.688 332.448 201.093C332.54 200.839 332.548 200.561 332.471 200.302C332.393 200.043 332.235 199.816 332.019 199.655C331.821 199.554 331.605 199.495 331.384 199.48C331.163 199.465 330.941 199.495 330.732 199.568C329.562 199.883 328.47 200.72 327.569 201.498C326.567 202.362 325.553 203.462 325.046 204.684C324.656 205.647 324.719 206.912 325.549 207.631C326.961 208.845 329.383 207.749 330.67 206.845L330.061 206.044C329.873 206.219 329.734 206.442 329.658 206.689C329.582 206.936 329.572 207.198 329.628 207.45C329.733 207.683 329.919 207.868 330.15 207.971C330.382 208.074 330.643 208.087 330.884 208.008C331.839 207.808 332.565 206.751 333.563 206.767L333.306 205.816C332.916 206.044 332.83 206.763 332.768 207.163C332.735 207.294 332.753 207.432 332.818 207.549C332.883 207.666 332.991 207.753 333.119 207.792C333.828 207.945 334.566 207.894 335.248 207.643C335.589 207.531 335.924 207.4 336.25 207.25C336.546 207.116 336.835 206.916 337.139 206.802L336.648 205.949C336.098 206.492 335.376 207.78 336.542 208.087C337.399 208.245 338.282 208.183 339.108 207.906C340.723 207.466 342.388 206.523 344.08 207.16C344.693 207.387 344.958 206.401 344.35 206.173C342.946 205.647 341.514 206.044 340.154 206.503C339.482 206.754 338.793 206.951 338.091 207.093C337.751 207.15 337.405 207.165 337.061 207.136C336.995 207.119 336.927 207.111 336.858 207.112C336.741 207.077 336.757 207.152 336.909 207.336L336.964 207.222C337.083 207.036 337.213 206.858 337.354 206.688C337.697 206.346 337.354 205.651 336.862 205.831C335.77 206.224 334.62 207.152 333.38 206.818L333.735 207.442C333.762 207.285 333.805 207.128 333.848 206.971C333.871 206.867 333.9 206.765 333.934 206.664C334.004 206.425 334.008 206.578 333.809 206.704C333.902 206.645 333.973 206.558 334.013 206.456C334.053 206.353 334.06 206.24 334.031 206.134C334.003 206.027 333.941 205.933 333.856 205.864C333.77 205.796 333.665 205.757 333.555 205.753C332.884 205.801 332.241 206.047 331.707 206.46C331.447 206.641 331.175 206.803 330.892 206.943C330.798 206.983 330.545 207.03 330.553 207.057C330.56 207.085 330.615 206.975 330.631 206.955C330.67 206.882 330.716 206.812 330.767 206.747C331.114 206.354 330.658 205.588 330.155 205.961C329.631 206.325 329.062 206.617 328.462 206.829C327.884 207.081 327.246 207.159 326.626 207.053C325.947 206.873 325.721 206.107 325.846 205.482C326.08 204.378 327.016 203.399 327.795 202.649C328.617 201.833 329.574 201.169 330.623 200.684C330.872 200.54 331.161 200.482 331.446 200.519C331.527 200.551 331.446 200.519 331.446 200.519C331.473 200.598 331.473 200.684 331.446 200.763C331.348 201.032 331.194 201.276 330.993 201.478C329.61 203.089 327.97 204.458 326.142 205.529C324.067 206.806 321.852 207.886 319.778 209.12C319.671 209.193 319.595 209.304 319.566 209.43C319.538 209.557 319.558 209.69 319.623 209.802C319.688 209.914 319.793 209.997 319.917 210.034C320.04 210.071 320.173 210.059 320.289 210V210Z" fill="#618298"></path>
        <path id="ec08b58f2739f407d5b8c4b3fe86a328" d="M347.04 207.615C347.175 207.615 347.304 207.562 347.399 207.466C347.494 207.37 347.547 207.24 347.547 207.105C347.547 206.969 347.494 206.839 347.399 206.743C347.304 206.648 347.175 206.594 347.04 206.594C346.906 206.594 346.777 206.648 346.682 206.743C346.587 206.839 346.533 206.969 346.533 207.105C346.533 207.24 346.587 207.37 346.682 207.466C346.777 207.562 346.906 207.615 347.04 207.615V207.615Z" fill="#618298"></path>
      </g>
      <g id="dd754de5e1960d758717f8f7cc4498fb">
        <path id="4f88ff2232703762e404af3a7290dc8f" d="M209.037 24.1127L192.617 13.8555C192.617 13.8555 186.084 26.8972 173.313 32.4022L187.363 44.2783C187.363 44.2783 203.852 38.7875 209.037 24.1127Z" fill="#FAB1A5"></path>
        <path id="14056c53720cd7af35bea94832f8cfb7" opacity="0.517119" d="M181.299 31.5664L180.019 32.3402L190.462 40.0876L192.025 39.3372L181.299 31.5664Z" fill="white"></path>
        <path id="4dd998cbe1db65dfb642f615ec9501e0" opacity="0.517119" d="M190.381 21.8516L202.702 28.8476L201.866 30.0407L189.601 23.0617L190.381 21.8516Z" fill="white"></path>
        <path id="419a55861f09b43218fb8aae7182a707" opacity="0.517119" d="M194.451 28.5664L200.643 31.9997L199.808 33.1928L193.672 29.7766L194.451 28.5664Z" fill="white"></path>
        <path id="b4ffff0a17f25ec2b2719d02d04b6a18" opacity="0.517119" d="M188.661 24.2422L192.663 26.9578C192.558 27.1871 192.421 27.4481 192.252 27.7406C191.479 29.0779 190.388 30.2445 189.057 31.1571C188.516 31.5287 188.06 31.8525 187.691 32.1286L183.574 29.2236C183.774 29.1161 183.997 28.9936 184.241 28.856C185.957 27.8915 187.356 26.5309 188.294 24.9147C188.435 24.6719 188.557 24.4477 188.661 24.2422Z" fill="white"></path>
        <path id="c5890a2ca0b6dd44044c71c63046851f" opacity="0.517119" d="M192.159 31.043L197.704 35.0139C197.066 35.8742 196.352 36.6011 195.563 37.1948C194.775 37.7885 193.944 38.2243 193.07 38.5023L187.445 34.6077C188.631 33.9754 189.567 33.3972 190.253 32.873C190.939 32.3488 191.574 31.7388 192.159 31.043Z" fill="white"></path>
      </g>
    </g>
  </g>
  <defs>
    <filter id="c5817186a6d46be5e1dfa3680f8e6454" x="-84" y="-66" width="650" height="441" filterUnits="userSpaceOnUse" color-interpolation-filters="sRGB">
      <feFlood flood-opacity="0" result="BackgroundImageFix"></feFlood>
      <feColorMatrix in="SourceAlpha" type="matrix" values="0 0 0 0 0 0 0 0 0 0 0 0 0 0 0 0 0 0 127 0" result="hardAlpha"></feColorMatrix>
      <feMorphology radius="4" operator="erode" in="SourceAlpha" result="effect1_dropShadow_5657_52440"></feMorphology>
      <feOffset dy="18"></feOffset>
      <feGaussianBlur stdDeviation="44"></feGaussianBlur>
      <feColorMatrix type="matrix" values="0 0 0 0 0.0470588 0 0 0 0 0.352941 0 0 0 0 0.439216 0 0 0 0.14 0"></feColorMatrix>
      <feBlend mode="normal" in2="BackgroundImageFix" result="effect1_dropShadow_5657_52440"></feBlend>
      <feColorMatrix in="SourceAlpha" type="matrix" values="0 0 0 0 0 0 0 0 0 0 0 0 0 0 0 0 0 0 127 0" result="hardAlpha"></feColorMatrix>
      <feMorphology radius="6" operator="erode" in="SourceAlpha" result="effect2_dropShadow_5657_52440"></feMorphology>
      <feOffset dy="8"></feOffset>
      <feGaussianBlur stdDeviation="14"></feGaussianBlur>
      <feColorMatrix type="matrix" values="0 0 0 0 0.0470588 0 0 0 0 0.352941 0 0 0 0 0.439216 0 0 0 0.12 0"></feColorMatrix>
      <feBlend mode="normal" in2="effect1_dropShadow_5657_52440" result="effect2_dropShadow_5657_52440"></feBlend>
      <feBlend mode="normal" in="SourceGraphic" in2="effect2_dropShadow_5657_52440" result="shape"></feBlend>
    </filter>
    <filter id="9669e26a6b47bdb7ec45178d0698b8fc" x="141.104" y="-496.836" width="802.199" height="830.879" filterUnits="userSpaceOnUse" color-interpolation-filters="sRGB">
      <feFlood flood-opacity="0" result="BackgroundImageFix"></feFlood>
      <feColorMatrix in="SourceAlpha" type="matrix" values="0 0 0 0 0 0 0 0 0 0 0 0 0 0 0 0 0 0 127 0" result="hardAlpha"></feColorMatrix>
      <feOffset dx="-13.12" dy="-2.72"></feOffset>
      <feGaussianBlur stdDeviation="6.74375"></feGaussianBlur>
      <feColorMatrix type="matrix" values="0 0 0 0 0.458824 0 0 0 0 0.027451 0 0 0 0 0.027451 0 0 0 0.045 0"></feColorMatrix>
      <feBlend mode="normal" in2="BackgroundImageFix" result="effect1_dropShadow_5657_52440"></feBlend>
      <feColorMatrix in="SourceAlpha" type="matrix" values="0 0 0 0 0 0 0 0 0 0 0 0 0 0 0 0 0 0 127 0" result="hardAlpha"></feColorMatrix>
      <feOffset dx="-65.61" dy="-13.59"></feOffset>
      <feGaussianBlur stdDeviation="41.5"></feGaussianBlur>
      <feColorMatrix type="matrix" values="0 0 0 0 0.466667 0 0 0 0 0.760784 0 0 0 0 0.843137 0 0 0 0.2 0"></feColorMatrix>
      <feBlend mode="normal" in2="effect1_dropShadow_5657_52440" result="effect2_dropShadow_5657_52440"></feBlend>
      <feBlend mode="normal" in="SourceGraphic" in2="effect2_dropShadow_5657_52440" result="shape"></feBlend>
    </filter>
    <filter id="d24163fc5941d60219ce658a68c3623e" x="169.079" y="-401.681" width="680.803" height="641.633" filterUnits="userSpaceOnUse" color-interpolation-filters="sRGB">
      <feFlood flood-opacity="0" result="BackgroundImageFix"></feFlood>
      <feColorMatrix in="SourceAlpha" type="matrix" values="0 0 0 0 0 0 0 0 0 0 0 0 0 0 0 0 0 0 127 0" result="hardAlpha"></feColorMatrix>
      <feOffset dx="-13.12" dy="2.71772"></feOffset>
      <feGaussianBlur stdDeviation="6.74375"></feGaussianBlur>
      <feColorMatrix type="matrix" values="0 0 0 0 0.458824 0 0 0 0 0.027451 0 0 0 0 0.027451 0 0 0 0.045 0"></feColorMatrix>
      <feBlend mode="normal" in2="BackgroundImageFix" result="effect1_dropShadow_5657_52440"></feBlend>
      <feColorMatrix in="SourceAlpha" type="matrix" values="0 0 0 0 0 0 0 0 0 0 0 0 0 0 0 0 0 0 127 0" result="hardAlpha"></feColorMatrix>
      <feOffset dx="65.6075" dy="13.5886"></feOffset>
      <feGaussianBlur stdDeviation="41.5"></feGaussianBlur>
      <feColorMatrix type="matrix" values="0 0 0 0 0.458824 0 0 0 0 0.027451 0 0 0 0 0.027451 0 0 0 0.09 0"></feColorMatrix>
      <feBlend mode="normal" in2="effect1_dropShadow_5657_52440" result="effect2_dropShadow_5657_52440"></feBlend>
      <feBlend mode="normal" in="SourceGraphic" in2="effect2_dropShadow_5657_52440" result="shape"></feBlend>
    </filter>
    <filter id="bd1f7db3804bccd49d1302fcafb7392c" x="-528.592" y="138.78" width="814.714" height="429.068" filterUnits="userSpaceOnUse" color-interpolation-filters="sRGB">
      <feFlood flood-opacity="0" result="BackgroundImageFix"></feFlood>
      <feColorMatrix in="SourceAlpha" type="matrix" values="0 0 0 0 0 0 0 0 0 0 0 0 0 0 0 0 0 0 127 0" result="hardAlpha"></feColorMatrix>
      <feOffset dx="6.91955" dy="1.43317"></feOffset>
      <feGaussianBlur stdDeviation="4.01221"></feGaussianBlur>
      <feColorMatrix type="matrix" values="0 0 0 0 0.458824 0 0 0 0 0.027451 0 0 0 0 0.027451 0 0 0 0.0379688 0"></feColorMatrix>
      <feBlend mode="normal" in2="BackgroundImageFix" result="effect1_dropShadow_5657_52440"></feBlend>
      <feBlend mode="normal" in="SourceGraphic" in2="effect1_dropShadow_5657_52440" result="shape"></feBlend>
    </filter>
    <filter id="2977ec7e95a2a7f5918c3d600700342b" x="-760.685" y="66.4871" width="1035.43" height="505.68" filterUnits="userSpaceOnUse" color-interpolation-filters="sRGB">
      <feFlood flood-opacity="0" result="BackgroundImageFix"></feFlood>
      <feColorMatrix in="SourceAlpha" type="matrix" values="0 0 0 0 0 0 0 0 0 0 0 0 0 0 0 0 0 0 127 0" result="hardAlpha"></feColorMatrix>
      <feOffset dx="13.1215" dy="2.71772"></feOffset>
      <feGaussianBlur stdDeviation="6.74375"></feGaussianBlur>
      <feColorMatrix type="matrix" values="0 0 0 0 0.458824 0 0 0 0 0.027451 0 0 0 0 0.027451 0 0 0 0.045 0"></feColorMatrix>
      <feBlend mode="normal" in2="BackgroundImageFix" result="effect1_dropShadow_5657_52440"></feBlend>
      <feColorMatrix in="SourceAlpha" type="matrix" values="0 0 0 0 0 0 0 0 0 0 0 0 0 0 0 0 0 0 127 0" result="hardAlpha"></feColorMatrix>
      <feOffset dx="65.6075" dy="13.5886"></feOffset>
      <feGaussianBlur stdDeviation="41.5"></feGaussianBlur>
      <feColorMatrix type="matrix" values="0 0 0 0 0.458824 0 0 0 0 0.027451 0 0 0 0 0.027451 0 0 0 0.09 0"></feColorMatrix>
      <feBlend mode="normal" in2="effect1_dropShadow_5657_52440" result="effect2_dropShadow_5657_52440"></feBlend>
      <feBlend mode="normal" in="SourceGraphic" in2="effect2_dropShadow_5657_52440" result="shape"></feBlend>
    </filter>
    <linearGradient id="e1410a25fbe990f94eee6046b9b80d66" x1="315.567" y1="2.73763" x2="328.288" y2="110.577" gradientUnits="userSpaceOnUse">
      <stop stop-color="#99DAEC"></stop>
      <stop offset="0.572917" stop-color="#EBF5F9" stop-opacity="0"></stop>
    </linearGradient>
    <linearGradient id="ec156e1cad93fe56138b3888da3137c2" x1="353.901" y1="23.2241" x2="348.518" y2="96.037" gradientUnits="userSpaceOnUse">
      <stop stop-color="#99DAEC"></stop>
      <stop offset="0.572917" stop-color="#EBF5F9" stop-opacity="0"></stop>
    </linearGradient>
    <linearGradient id="669c847bc490cccf0cc8645c66e38e0c" x1="157.09" y1="142.752" x2="167.177" y2="149.812" gradientUnits="userSpaceOnUse">
      <stop stop-color="#F9B776"></stop>
      <stop offset="0.632873" stop-color="#F47960"></stop>
    </linearGradient>
    <linearGradient id="309c9b1c74ebde0bc82a1605cfcb04df" x1="207.696" y1="111.246" x2="210.54" y2="117.851" gradientUnits="userSpaceOnUse">
      <stop stop-color="#F9B776"></stop>
      <stop offset="0.632873" stop-color="#F47960"></stop>
    </linearGradient>
    <linearGradient id="2ef14c400147d25b543c07487f8faf11" x1="249.011" y1="258.497" x2="266.224" y2="269.626" gradientUnits="userSpaceOnUse">
      <stop stop-color="#F9B776"></stop>
      <stop offset="0.632873" stop-color="#F47960"></stop>
    </linearGradient>
    <linearGradient id="2f84488a17aa8f107f5dce5010f2d420" x1="163.675" y1="222.028" x2="177.981" y2="232.53" gradientUnits="userSpaceOnUse">
      <stop stop-color="#F9B776"></stop>
      <stop offset="0.632873" stop-color="#F47960"></stop>
    </linearGradient>
    <linearGradient id="14ddcaa1782e0d3c66239de43ade19bb" x1="203.788" y1="161.767" x2="206.364" y2="157.967" gradientUnits="userSpaceOnUse">
      <stop stop-color="#F9B776"></stop>
      <stop offset="0.256261" stop-color="#F79E6D"></stop>
      <stop offset="1" stop-color="#F47960"></stop>
    </linearGradient>
    <linearGradient id="af5acf2fce88e1bc81f88e49a60ab6c1" x1="204.229" y1="156.814" x2="209.222" y2="160.359" gradientUnits="userSpaceOnUse">
      <stop stop-color="#F9B776"></stop>
      <stop offset="0.632873" stop-color="#F47960"></stop>
    </linearGradient>
    <clipPath id="clip0_5657_52440">
      <rect width="482" height="273" fill="white"></rect>
    </clipPath>
  </defs>
</svg>