<svg width="286" height="478" viewBox="0 0 286 478" fill="none" xmlns="http://www.w3.org/2000/svg">
<path d="M0 7.99999C0 3.58172 3.58172 0 8 0H286V478H8C3.58173 478 0 474.418 0 470V7.99999Z" fill="#FCF0EE"/>
<mask id="mask0_920_17696" style="mask-type:alpha" maskUnits="userSpaceOnUse" x="0" y="0" width="286" height="478">
<path d="M0 7.99999C0 3.58172 3.58172 0 8 0H286V478H8C3.58173 478 0 474.418 0 470V7.99999Z" fill="#FCF0EE"/>
</mask>
<g mask="url(#mask0_920_17696)">
<path d="M-248.297 348.485C-235.919 344.991 -223.686 341.945 -212.221 339.351C-135.445 321.946 -33.4935 304.81 44.1958 328.906C81.1242 340.358 104.271 357.208 122.238 378.152C132.088 389.631 144.104 401.522 164.384 407.261C185.647 413.292 210.263 411.679 232.077 407.496C250.397 403.982 267.861 398.992 286.695 396.466C320.826 391.892 347.971 398.807 362.077 417.317C379.131 439.688 382.992 469.702 440.967 462.25C456.604 460.24 471.148 456.186 486.413 453.418C516.82 447.902 554.798 448.766 575.073 462.639C601.742 480.885 583.708 507.696 600.221 527.994C610.353 540.441 625.717 541.805 647.475 544.325C716.557 552.333 786.619 585.628 740.744 627.046C704.885 659.416 645.393 684.122 585.766 701.109C474.764 732.736 347.217 758.555 222.448 737.152C156.337 725.81 110.957 701.017 89.7077 664.596C84.4578 655.605 75.4835 646.207 59.5972 643.039C44.2994 639.99 27.5138 642.925 11.8065 640.889C-6.64594 638.493 -23.2008 631.875 -38.282 625.742C-63.9242 615.31 -90.7246 604.151 -121.73 599.399C-154.651 594.37 -190.162 595.092 -223.649 591.622C-240.128 589.919 -257.719 586.72 -266.736 578.797C-288.818 559.398 -245.077 542.144 -255.709 522.549C-259.146 516.203 -268.421 511.488 -277.367 507.127C-315.638 488.416 -363.061 465.262 -368.32 435.037C-375.35 394.438 -309.973 365.879 -248.297 348.485Z" fill="#DA6668"/>
<g filter="url(#filter0_dddd_920_17696)">
<path d="M308.235 391.874C330.413 409.06 346.348 431.958 378 436.744V491H31L31 396.405C42.4706 402.425 55.4056 407.299 70.5538 409.429C73.9899 409.918 75.516 423.375 80.6377 417.484C105.067 418.945 128.066 412.898 148.832 405.778C153.649 404.119 158.372 402.371 163.052 400.583C177.734 394.995 193.656 382.972 209.576 378.602C247.604 368.13 282.864 372.22 308.235 391.874Z" fill="#E6F9FF"/>
</g>
<g filter="url(#filter1_dd_920_17696)">
<path d="M64.3638 -50.2998H361.78V-7.99981H64.3638V-50.2998Z" fill="#77C2D7"/>
</g>
<g filter="url(#filter2_dddd_920_17696)">
<path d="M-19.5859 314C-0.976908 321.121 15.6178 329.767 29.6429 339.649C33.6337 342.424 37.3565 345.283 40.9424 348.209C78.6608 378.933 82.7042 416.881 131.192 442.453C173.728 464.892 251.603 474.402 308.734 468.397C338.254 465.299 366.144 458.329 395.669 455.272C397.283 455.103 398.902 454.953 400.538 454.816V482H-19.5859V314Z" fill="#67A4BA"/>
</g>
<path d="M41.3768 415.077C22.9432 415.077 8.00011 414.237 8.00011 413.202C8.00011 412.168 22.9432 411.327 41.3768 411.327C59.8104 411.327 74.7534 412.168 74.7534 413.202C74.7534 414.237 59.8104 415.077 41.3768 415.077Z" fill="#8EDEF4"/>
<path d="M75.9033 406.292H33.9166" stroke="#1D2026" stroke-width="2.32033"/>
<path opacity="0.5" fill-rule="evenodd" clip-rule="evenodd" d="M59.3967 224.61C59.3967 226.132 59.515 227.652 59.7497 229.156H272.22C273.404 225.272 274.004 221.237 274 217.181C274 194.263 255.161 175.685 231.912 175.685C231.289 175.685 230.67 175.698 230.055 175.725C227.724 175.82 225.421 175.189 223.474 173.921C221.527 172.654 220.034 170.813 219.208 168.662C212.677 151.838 196.146 139.888 176.787 139.888C169.088 139.884 161.514 141.811 154.778 145.49C148.043 149.168 142.368 154.476 138.287 160.913C137.133 162.754 135.449 164.214 133.45 165.108C131.451 166.002 129.227 166.29 127.062 165.934C118.129 164.408 108.936 166.052 101.115 170.575C93.2948 175.098 87.3519 182.206 84.3438 190.639C83.8254 192.106 82.9968 193.448 81.9152 194.577C80.8335 195.706 79.5213 196.597 78.0641 197.191C72.5437 199.418 67.8212 203.215 64.4967 208.099C61.1722 212.981 59.3967 218.729 59.3967 224.61Z" fill="white"/>
<path d="M82.8908 323.918C98.0162 339.356 89.7201 337.705 89.7201 337.705C89.7201 337.705 68.4352 328.316 65.9603 325.529C63.4854 322.741 72.5621 318.377 72.5621 318.377C72.5621 318.377 76.2057 317.095 82.8908 323.918Z" fill="url(#paint0_linear_920_17696)"/>
<path d="M113.765 296.431H71.7784" stroke="#102D42" stroke-width="2.32033"/>
<path d="M101.144 333.049H59.1573" stroke="#102D42" stroke-width="2.32033"/>
<path d="M88.5244 369.671H46.5377" stroke="#102D42" stroke-width="2.32033"/>
<path d="M129.629 250.216L72.8008 413.146" stroke="#102D42" stroke-width="2.32033"/>
<path d="M88.2119 250.216L31.3833 413.146" stroke="#102D42" stroke-width="2.32033"/>
<path d="M126.385 259.809H84.3985" stroke="#1D2026" stroke-width="2.32033"/>
<path d="M109.726 250.205C109.726 250.205 118.053 253.752 119.903 257.181C121.752 260.611 121.429 264.096 119.101 266.276C117.974 267.329 106.585 267.235 106.585 267.235L103.809 255.418L109.726 250.205Z" fill="url(#paint1_linear_920_17696)"/>
<path d="M126.077 259.809H115.058" stroke="#102D42" stroke-width="2.32033"/>
<path d="M58.3786 360.624C58.3786 360.624 79.9458 362.258 76.0826 365.758C72.2193 369.258 51.9818 372.863 45.6432 372.161C39.3046 371.46 46.1876 362.448 46.1876 362.448L58.3786 360.624Z" fill="url(#paint2_linear_920_17696)"/>
<path d="M98.6229 252.81L111.834 265.531C113.992 267.609 115.346 270.382 115.656 273.361C115.967 276.34 115.216 279.334 113.533 281.812L86.4777 325.824L68.415 316.129L89.1667 279.401L71.7859 268.54L60.6176 360.306L44.435 363.417L43.7608 258.463C43.7099 252.481 44.8318 246.547 47.0681 240.999L50.1769 233.272L81.5651 232.494L98.6229 252.81Z" fill="#035970"/>
<path d="M136.771 195.046C136.888 195.046 141.35 196.275 141.401 194.296C141.452 192.316 136.275 191.202 133.614 191.054C130.953 190.907 127.938 191.281 126.933 189.462C125.358 186.613 127.742 184.57 128.093 182.339C128.444 180.107 127.9 178.815 126.49 178.894C125.081 178.973 125.002 183.756 122.049 185.666C118.942 187.676 116.706 191.535 116.706 191.535L108.641 196.796C108.641 196.796 114.434 205.001 114.671 205.039C114.907 205.077 121.402 199.676 121.402 199.676C121.402 199.676 121.911 201.36 130.207 203.513" fill="url(#paint3_linear_920_17696)"/>
<path d="M79.2076 208.992L76.0378 230.25C75.7147 232.404 75.9818 234.605 76.8086 236.62C77.6354 238.635 78.9889 240.39 80.7315 241.698L103.946 259.14L112.926 250.373L95.3724 229.677C95.3724 229.677 103.941 201.469 89.0378 193.69C75.5417 186.643 69.2707 192.066 65.5284 197.64C62.6078 201.986 59.8018 212.019 57.5605 217.028C55.3192 222.038 50.1472 233.29 50.1472 233.29L80.0294 235.58" fill="#DA6668"/>
<path d="M100.029 216.087C95.8138 216.087 92.3969 212.67 92.3969 208.455C92.3969 204.24 95.8138 200.823 100.029 200.823C104.244 200.823 107.661 204.24 107.661 208.455C107.661 212.67 104.244 216.087 100.029 216.087Z" fill="#EF6E45"/>
<path d="M111.06 190.137L119.618 204.618L90.8655 227.372L87.37 204.305L111.06 190.137Z" fill="#DA6668"/>
<path d="M85.6967 167.695C83.0482 166.944 80.2951 168.436 79.4637 171.039L79.4142 171.203L73.8326 190.901C73.0665 193.605 74.6372 196.418 77.3408 197.184C79.9893 197.934 82.7424 196.442 83.5738 193.84L83.6233 193.676L89.2049 173.977C89.971 171.274 88.4003 168.461 85.6967 167.695Z" fill="url(#paint4_linear_920_17696)"/>
<path d="M81.0651 187.871L82.3604 188.208C83.8694 188.596 85.4508 188.67 86.9944 188.425C88.5381 188.179 90.0022 187.621 91.2867 186.789C92.571 185.957 93.6424 184.872 94.4249 183.611C95.2071 182.35 95.6812 180.944 95.813 179.493L96.4669 172.306C96.6781 169.985 96.0038 167.67 94.5617 165.766C93.1196 163.862 91.0025 162.491 88.5821 161.895C87.2302 161.562 85.8186 161.48 84.4322 161.653C83.0457 161.827 81.7096 162.253 80.5023 162.907C79.292 163.56 78.2325 164.43 77.3836 165.464C76.5348 166.499 75.9154 167.679 75.557 168.937L73.6078 175.788C72.891 178.31 73.2715 180.993 74.6673 183.256C76.0632 185.518 78.3614 187.177 81.0651 187.871Z" fill="url(#paint5_linear_920_17696)"/>
<g filter="url(#filter3_i_920_17696)">
<path fill-rule="evenodd" clip-rule="evenodd" d="M38.6213 176.037C37.4664 189.688 50.7386 190.846 50.7386 190.846C50.7386 190.846 43.3939 205.827 59.8309 204.583C76.2679 203.339 80.7531 191.609 80.1171 184.9C79.8627 182.229 78.4787 180.158 76.9141 178.161C85.9225 176.769 85.7852 170.565 85.7852 170.565C85.7852 170.565 100.228 176.2 100.111 165.085C99.9936 153.97 88.6014 150.408 81.8699 150.525C80.4503 150.555 79.046 150.799 77.7002 151.25C73.3754 152.667 70.0096 155.229 64.2576 155.321C48.3675 155.575 46.8411 164.538 46.8411 164.538C46.8411 164.538 39.4049 166.799 38.6213 176.037Z" fill="#035970"/>
</g>
<ellipse opacity="0.7" rx="25.0332" ry="5.2703" transform="matrix(-1 0 0 1 182.033 412.791)" fill="white"/>
<path fill-rule="evenodd" clip-rule="evenodd" d="M180.228 398.355C183.977 398.661 186.837 396.984 190.434 396.53C194.083 396.069 198.445 397.688 200.785 400.553C203.041 403.316 201.185 406.97 198.511 408.74C196.753 409.904 194.521 410.174 192.442 410.154C189.968 410.131 187.725 409.885 185.426 409.088C183.024 408.256 180.06 408.535 177.553 408.535L180.228 398.355Z" fill="#FAB1A5"/>
<path fill-rule="evenodd" clip-rule="evenodd" d="M169.122 392.602C168.95 391.663 167.843 390.724 167.048 390.306C166.256 389.891 164.924 389.161 164.052 389.075C163.726 389.973 163.392 390.959 163.199 391.932C163.078 392.542 162.843 393.213 162.802 393.831C162.75 394.628 163.128 395.201 163.353 395.926L169.122 392.602Z" fill="#FAB1A5"/>
<path fill-rule="evenodd" clip-rule="evenodd" d="M178.08 392.578C178.667 392.369 179.041 391.659 179.573 391.306C180.586 390.634 182.006 389.767 183.187 389.61C184.276 389.465 184.375 391.148 184.534 392.129C184.778 393.64 185.266 395.561 184.581 396.979L178.08 392.578Z" fill="#FAB1A5"/>
<path fill-rule="evenodd" clip-rule="evenodd" d="M161.681 402.736C161.142 403.055 160.509 402.873 159.975 403.301C160.524 404.507 161.532 405.643 162.532 406.53C162.663 406.647 162.795 406.759 162.924 406.866C167.47 410.628 173.529 409.718 178.86 408.906C180.953 408.585 182.761 408.038 184.34 406.857C184.978 406.38 185.579 405.801 186.146 405.093C186.473 404.686 187.012 404.094 186.772 403.622C186.613 403.309 185.865 402.963 185.57 402.879C185.914 402.641 186.307 402.496 186.649 402.168C186.352 401.589 185.743 400.873 185.266 400.409C185.843 400.524 186.487 400.493 187.04 400.615C186.266 397.293 184.005 394.489 181.38 392.747C180.09 391.89 178.544 391.127 177.027 390.964C176.406 390.897 175.774 390.821 175.139 390.763C174.116 390.667 173.083 390.612 172.069 390.699C171.553 390.742 171.042 390.823 170.539 390.952C168.258 391.543 166.072 392.814 164.322 394.529C163.334 395.496 162.554 396.619 161.688 397.702C161.081 398.461 160.183 399.126 159.764 400.042C160.344 400.341 160.961 400.628 161.537 400.907C161 401.105 159.892 400.746 159.635 401.46C160.282 401.729 161.235 402.105 161.681 402.736Z" fill="#FFDBD6"/>
<path fill-rule="evenodd" clip-rule="evenodd" d="M172.89 398.401C173.08 398.052 173.402 397.996 173.733 398.053C173.983 398.097 174.202 398.33 174.312 398.572C174.439 398.851 174.421 399.179 174.215 399.409C174.031 399.613 173.685 399.696 173.461 399.517C173.376 399.449 173.274 399.375 173.178 399.327C173.228 399.351 173.278 399.374 173.328 399.398C173.308 399.39 173.288 399.383 173.269 399.375C173.144 399.32 173.084 399.274 172.98 399.182C172.782 399.005 172.766 398.628 172.89 398.401Z" fill="white"/>
<path fill-rule="evenodd" clip-rule="evenodd" d="M174.888 401.575C174.487 401.979 173.89 401.472 173.664 401.107C173.358 400.613 173.246 399.801 173.416 399.239C173.483 399.017 173.842 399.044 173.818 399.296C173.775 399.754 173.755 400.163 173.889 400.61C173.956 400.835 174.082 401.052 174.263 401.193C174.448 401.335 174.676 401.295 174.867 401.405C174.925 401.438 174.935 401.527 174.888 401.575Z" fill="white"/>
<path fill-rule="evenodd" clip-rule="evenodd" d="M172.313 401.472C172.622 401.204 172.925 401.029 173.083 400.627C173.252 400.199 173.247 399.741 173.307 399.293C173.353 398.957 173.837 399.073 173.861 399.369C173.918 400.074 173.431 402.195 172.333 401.628C172.279 401.6 172.266 401.513 172.313 401.472Z" fill="white"/>
<path fill-rule="evenodd" clip-rule="evenodd" d="M166.459 397.905C166.458 397.948 166.493 398.059 166.486 398.135C166.479 398.211 166.481 398.288 166.483 398.365C166.488 398.587 166.405 398.792 166.263 398.96C166.119 399.129 165.778 399.132 165.635 398.96C165.457 398.747 165.402 398.498 165.449 398.228C165.462 398.153 165.478 398.079 165.497 398.004C165.531 397.874 165.613 397.8 165.679 397.698C165.892 397.368 166.477 397.482 166.459 397.905Z" fill="white"/>
<path fill-rule="evenodd" clip-rule="evenodd" d="M181.091 396.714C181.096 396.728 181.101 396.741 181.106 396.755C181.074 396.698 181.042 396.642 181.009 396.586C181.319 396.869 181.291 397.459 181.093 397.792C180.982 397.979 180.763 398.075 180.553 398.016C180.33 397.954 180.228 397.765 180.203 397.545C180.213 397.62 180.208 397.583 180.188 397.434C180.196 397.369 180.205 397.304 180.214 397.24C180.223 397.173 180.236 397.107 180.252 397.042C180.296 396.872 180.345 396.707 180.479 396.586C180.447 396.642 180.415 396.698 180.383 396.755C180.388 396.741 180.393 396.728 180.398 396.714C180.524 396.365 180.965 396.365 181.091 396.714Z" fill="white"/>
<path fill-rule="evenodd" clip-rule="evenodd" d="M163.625 401.699C163.167 401.705 162.732 401.81 162.3 401.962C161.967 402.078 161.643 402.366 161.29 402.199C161.246 402.178 161.212 402.117 161.216 402.068C161.249 401.668 161.66 401.543 161.987 401.414C162.513 401.206 163.068 401.155 163.625 401.226C163.916 401.263 163.935 401.695 163.625 401.699Z" fill="white"/>
<path fill-rule="evenodd" clip-rule="evenodd" d="M163.17 403.286C162.864 403.395 162.551 403.476 162.241 403.569C161.946 403.658 161.627 403.903 161.324 403.811C161.223 403.78 161.193 403.65 161.234 403.548C161.366 403.216 161.723 403.158 161.998 403.073C162.348 402.965 162.706 402.899 163.055 402.787C163.327 402.7 163.439 403.19 163.17 403.286Z" fill="white"/>
<path fill-rule="evenodd" clip-rule="evenodd" d="M183.615 399.616C184.324 399.615 185.333 399.626 185.915 400.222C186.015 400.325 186.011 400.525 185.88 400.582C185.537 400.732 185.252 400.664 184.904 400.571C184.477 400.457 184.051 400.368 183.615 400.345C183.263 400.327 183.26 399.616 183.615 399.616Z" fill="white"/>
<path fill-rule="evenodd" clip-rule="evenodd" d="M183.522 401.724C184.278 401.788 185.245 401.712 185.879 402.275C186.06 402.436 186.001 402.745 185.765 402.769C185.001 402.846 184.194 402.38 183.474 402.131C183.288 402.067 183.316 401.706 183.522 401.724Z" fill="white"/>
<path fill-rule="evenodd" clip-rule="evenodd" d="M174.357 408.732C176.082 408.405 182.363 407.074 183.274 409.349C183.613 410.198 182.768 410.89 182.05 411.185C180.194 411.95 177.466 411.735 175.443 411.614C174.599 411.563 171.012 410.92 171.896 409.481C172.269 408.874 173.74 408.848 174.357 408.732Z" fill="#EA998C"/>
<mask id="mask1_920_17696" style="mask-type:alpha" maskUnits="userSpaceOnUse" x="166" y="408" width="11" height="5">
<path fill-rule="evenodd" clip-rule="evenodd" d="M176.465 408.59H166.019V412.791H176.465V408.59Z" fill="white"/>
</mask>
<g mask="url(#mask1_920_17696)">
<path fill-rule="evenodd" clip-rule="evenodd" d="M171.772 412.617C172.733 412.692 175.778 413.171 176.37 412.121C176.912 411.159 174.991 410.795 174.325 410.597C172.613 410.086 171.142 408.992 169.334 408.66C167.734 408.366 165.264 408.974 166.241 410.957C167.033 412.567 170.15 412.491 171.772 412.617Z" fill="#F4A295"/>
</g>
<path fill-rule="evenodd" clip-rule="evenodd" d="M201.352 401.723C202.844 402.263 202.911 405.046 202.827 406.235C202.71 407.904 201.677 409.573 200.135 410.5C197.752 411.933 194.678 412.078 191.921 412.192C189.466 412.292 186.742 412.387 184.469 411.744C182.869 411.292 179.387 409.121 182.484 407.922C184.116 407.289 186.463 408.854 188.116 409.054C190.174 409.303 192.321 409.444 194.355 408.992C197.952 408.194 201.703 406.298 201.352 402.687V401.723Z" fill="#F4A295"/>
<path opacity="0.2" fill-rule="evenodd" clip-rule="evenodd" d="M233.588 397.587C239.319 397.587 243.964 398.588 243.964 399.822C243.964 401.057 239.319 402.058 233.588 402.058C227.858 402.058 223.212 401.057 223.212 399.822C223.212 398.588 227.858 397.587 233.588 397.587Z" fill="#035970"/>
<path fill-rule="evenodd" clip-rule="evenodd" d="M243.237 389.181C243.888 390.322 244.252 391.6 244.252 392.95C244.252 397.77 239.606 401.677 233.876 401.677C228.145 401.677 223.5 397.77 223.5 392.95C223.5 391.522 223.908 390.174 224.631 388.983C229.228 389.712 238.377 389.665 243.237 389.181Z" fill="#4690A4"/>
<path fill-rule="evenodd" clip-rule="evenodd" d="M233.948 387.253C239.161 387.253 243.387 388.254 243.387 389.488C243.387 390.723 239.161 391.724 233.948 391.724C228.735 391.724 224.508 390.723 224.508 389.488C224.508 388.254 228.735 387.253 233.948 387.253Z" fill="#77C2D7"/>
<path fill-rule="evenodd" clip-rule="evenodd" d="M233.156 387.541C232.64 383.971 231.222 378.815 226.959 373.261C224.448 369.989 224.439 362.023 224.077 361.144C226.047 361.822 229.587 363.571 233.156 368.501C236.897 373.669 234.524 384.208 233.156 387.541Z" fill="#DA6668"/>
<g style="mix-blend-mode:multiply" opacity="0.5">
<path fill-rule="evenodd" clip-rule="evenodd" d="M233.268 387.554C233.662 378.875 232.582 373.397 229.187 368.225L233.268 387.554Z" fill="black" fill-opacity="0.01"/>
<path d="M233.268 387.554C233.662 378.875 232.582 373.397 229.187 368.225" stroke="#4690A4" stroke-width="0.460383"/>
</g>
<path fill-rule="evenodd" clip-rule="evenodd" d="M233.171 391.207C231.579 388.657 228.765 385.202 223.646 382.4C220.631 380.75 217.949 374.677 217.378 374.129C219.109 373.983 222.398 374.126 226.776 376.686C231.366 379.369 233.095 388.205 233.171 391.207Z" fill="#FAB1A5"/>
<g style="mix-blend-mode:multiply" opacity="0.5">
<path fill-rule="evenodd" clip-rule="evenodd" d="M233.135 391.191C230.52 384.439 227.856 380.625 223.529 377.822L233.135 391.191Z" fill="black" fill-opacity="0.01"/>
<path d="M233.135 391.191C230.52 384.439 227.856 380.625 223.529 377.822" stroke="#4690A4" stroke-width="0.460383"/>
</g>
<path fill-rule="evenodd" clip-rule="evenodd" d="M234.315 391.556C235.57 388.811 237.925 385.008 242.66 381.557C245.449 379.525 247.333 373.132 247.832 372.512C246.088 372.591 242.831 373.158 238.802 376.272C234.577 379.536 234.001 388.557 234.315 391.556Z" fill="#FAAFBD"/>
<g style="mix-blend-mode:multiply" opacity="0.5">
<path fill-rule="evenodd" clip-rule="evenodd" d="M233.949 391.607C235.679 384.547 237.837 380.405 241.784 377.056L233.949 391.607Z" fill="black" fill-opacity="0.01"/>
<path d="M233.949 391.607C235.679 384.547 237.837 380.405 241.784 377.056" stroke="#4690A4" stroke-width="0.460383"/>
</g>
<path d="M26.0687 148.53C26.3908 148.026 27.1043 147.854 27.6622 148.145L37.765 153.408C38.3229 153.699 38.5141 154.343 38.192 154.846L35.458 159.693L37.9965 161.004C38.135 161.077 38.2346 161.197 38.272 161.337C38.3472 161.62 38.1542 161.904 37.841 161.972L33.5624 163.114L29.2969 168.75C28.9748 169.254 28.2613 169.426 27.7033 169.135L17.6006 163.872C17.0426 163.581 16.8514 162.937 17.1736 162.433L26.0687 148.53Z" fill="#F2385A"/>
<path d="M25.9194 157.874C25.179 157.488 24.9705 156.563 25.4537 155.808C25.9369 155.053 26.883 154.729 28.1161 155.372C28.9381 155.8 29.6954 157.41 30.3879 160.202C27.3622 161.057 25.4384 161.27 24.6164 160.842C23.3833 160.199 23.2207 159.298 23.7039 158.543C24.1871 157.788 25.179 157.488 25.9194 157.874Z" fill="white"/>
<path d="M254.477 303.605L243.557 296.783C243.557 296.783 239.213 305.456 230.719 309.118L240.063 317.016C240.063 317.016 251.029 313.364 254.477 303.605Z" fill="#FAB1A5"/>
<path opacity="0.517119" d="M236.029 308.562L235.177 309.076L242.123 314.229L243.162 313.73L236.029 308.562Z" fill="white"/>
<path opacity="0.517119" d="M242.067 302.101L250.261 306.754L249.706 307.547L241.549 302.906L242.067 302.101Z" fill="white"/>
<path opacity="0.517119" d="M244.777 306.566L248.895 308.85L248.34 309.643L244.259 307.371L244.777 306.566Z" fill="white"/>
<path opacity="0.517119" d="M240.924 303.69L243.585 305.496C243.515 305.649 243.424 305.822 243.312 306.017C242.797 306.906 242.072 307.682 241.187 308.289C240.827 308.536 240.524 308.752 240.278 308.935L237.54 307.003C237.673 306.932 237.822 306.85 237.984 306.759C239.125 306.117 240.056 305.212 240.679 304.138C240.773 303.976 240.854 303.827 240.924 303.69Z" fill="white"/>
<path opacity="0.517119" d="M243.253 308.213L246.941 310.854C246.516 311.426 246.042 311.909 245.517 312.304C244.993 312.699 244.44 312.989 243.859 313.174L240.118 310.584C240.907 310.163 241.529 309.779 241.985 309.43C242.442 309.081 242.864 308.676 243.253 308.213Z" fill="white"/>
<g clip-path="url(#clip0_920_17696)">
<path d="M172.519 236.61H166.747C166.675 236.615 166.602 236.605 166.533 236.58C166.465 236.556 166.402 236.518 166.349 236.468C166.296 236.419 166.253 236.359 166.224 236.292C166.195 236.226 166.18 236.154 166.18 236.081C166.18 236.008 166.195 235.937 166.224 235.87C166.253 235.803 166.296 235.743 166.349 235.694C166.402 235.644 166.465 235.606 166.533 235.582C166.602 235.557 166.675 235.547 166.747 235.552H172.519C172.653 235.562 172.779 235.621 172.871 235.719C172.962 235.818 173.014 235.947 173.014 236.081C173.014 236.215 172.962 236.344 172.871 236.443C172.779 236.541 172.653 236.6 172.519 236.61Z" fill="#102D42"/>
<path d="M190.746 265.889H161.751C161.61 265.889 161.476 265.833 161.377 265.734C161.278 265.636 161.222 265.501 161.222 265.362V223.906C161.222 223.837 161.235 223.768 161.262 223.704C161.288 223.64 161.327 223.581 161.376 223.532C161.425 223.483 161.483 223.444 161.548 223.417C161.612 223.39 161.681 223.377 161.751 223.377H190.746C190.887 223.377 191.022 223.432 191.121 223.532C191.221 223.631 191.277 223.766 191.277 223.906V265.362C191.277 265.431 191.263 265.5 191.237 265.564C191.21 265.628 191.171 265.686 191.121 265.735C191.072 265.784 191.013 265.823 190.949 265.849C190.885 265.876 190.816 265.889 190.746 265.889ZM162.281 264.832H190.218V224.434H162.281V264.832Z" fill="#102D42"/>
<path d="M185.752 245.062H166.748C166.607 245.062 166.473 245.006 166.374 244.907C166.275 244.808 166.219 244.674 166.219 244.534C166.219 244.395 166.275 244.26 166.374 244.162C166.473 244.063 166.607 244.007 166.748 244.007H185.752C185.892 244.007 186.027 244.063 186.126 244.162C186.225 244.26 186.281 244.395 186.281 244.534C186.281 244.674 186.225 244.808 186.126 244.907C186.027 245.006 185.892 245.062 185.752 245.062Z" fill="#102D42"/>
<path d="M185.752 249.624H166.747C166.675 249.629 166.602 249.619 166.533 249.594C166.465 249.57 166.402 249.532 166.349 249.482C166.296 249.433 166.253 249.373 166.224 249.306C166.195 249.24 166.18 249.168 166.18 249.095C166.18 249.023 166.195 248.951 166.224 248.884C166.253 248.817 166.296 248.758 166.349 248.708C166.402 248.658 166.465 248.62 166.533 248.596C166.602 248.572 166.675 248.562 166.747 248.567H185.752C185.886 248.576 186.012 248.635 186.104 248.734C186.196 248.832 186.247 248.961 186.247 249.095C186.247 249.229 186.196 249.359 186.104 249.457C186.012 249.555 185.886 249.615 185.752 249.624Z" fill="#102D42"/>
<path d="M185.752 254.183H166.748C166.607 254.183 166.473 254.128 166.374 254.029C166.275 253.93 166.219 253.796 166.219 253.656C166.219 253.516 166.275 253.382 166.374 253.283C166.473 253.184 166.607 253.128 166.748 253.128H185.752C185.892 253.128 186.027 253.184 186.126 253.283C186.225 253.382 186.281 253.516 186.281 253.656C186.281 253.796 186.225 253.93 186.126 254.029C186.027 254.128 185.892 254.183 185.752 254.183Z" fill="#102D42"/>
<path d="M199.85 237.692H178.844C178.775 237.692 178.706 237.678 178.641 237.651C178.577 237.625 178.519 237.586 178.47 237.536C178.421 237.487 178.382 237.429 178.355 237.364C178.329 237.3 178.316 237.231 178.316 237.162V216.193C178.316 216.053 178.372 215.919 178.471 215.82C178.57 215.721 178.704 215.666 178.844 215.666H199.85C199.99 215.666 200.125 215.721 200.224 215.82C200.323 215.919 200.379 216.053 200.379 216.193V237.162C200.379 237.231 200.365 237.3 200.339 237.364C200.313 237.429 200.274 237.487 200.225 237.536C200.176 237.586 200.117 237.625 200.053 237.651C199.989 237.678 199.92 237.692 199.85 237.692ZM179.375 236.634H199.312V216.735H179.375V236.634Z" fill="#102D42"/>
<path d="M199.934 218.454C201.413 218.454 202.611 217.258 202.611 215.783C202.611 214.307 201.413 213.111 199.934 213.111C198.456 213.111 197.258 214.307 197.258 215.783C197.258 217.258 198.456 218.454 199.934 218.454Z" fill="#102D42"/>
<path d="M178.844 218.454C180.322 218.454 181.521 217.258 181.521 215.783C181.521 214.307 180.322 213.111 178.844 213.111C177.366 213.111 176.167 214.307 176.167 215.783C176.167 217.258 177.366 218.454 178.844 218.454Z" fill="#102D42"/>
<path d="M199.934 239.276C201.413 239.276 202.611 238.08 202.611 236.605C202.611 235.129 201.413 233.933 199.934 233.933C198.456 233.933 197.258 235.129 197.258 236.605C197.258 238.08 198.456 239.276 199.934 239.276Z" fill="#102D42"/>
<path d="M178.844 239.276C180.322 239.276 181.521 238.08 181.521 236.605C181.521 235.129 180.322 233.933 178.844 233.933C177.366 233.933 176.167 235.129 176.167 236.605C176.167 238.08 177.366 239.276 178.844 239.276Z" fill="#102D42"/>
<path d="M185.752 258.996H166.747C166.675 259.001 166.602 258.991 166.533 258.967C166.465 258.943 166.402 258.905 166.349 258.855C166.296 258.805 166.253 258.745 166.224 258.679C166.195 258.612 166.18 258.54 166.18 258.468C166.18 258.395 166.195 258.323 166.224 258.257C166.253 258.19 166.296 258.13 166.349 258.08C166.402 258.031 166.465 257.993 166.533 257.968C166.602 257.944 166.675 257.934 166.747 257.939H185.752C185.886 257.948 186.012 258.008 186.104 258.106C186.196 258.204 186.247 258.333 186.247 258.468C186.247 258.602 186.196 258.731 186.104 258.829C186.012 258.927 185.886 258.987 185.752 258.996Z" fill="#102D42"/>
</g>
<rect x="129.645" y="162.557" width="137.146" height="41.9185" fill="white" stroke="#B2ECFC" stroke-width="2" stroke-linejoin="round"/>
<rect x="230.988" y="169.46" width="26.6686" height="26.6686" rx="1.84771" fill="#E6F9FF"/>
<path d="M239.436 179.936L236.544 187.239H252.101L247.185 181.762L244.236 184.461L239.436 179.936Z" fill="#8EDEF4"/>
<circle cx="244.323" cy="179.778" r="1.42867" fill="#8EDEF4"/>
<rect x="146.88" y="171.105" width="66.4584" height="2.8081" rx="1.40405" fill="#FF768F"/>
<rect x="146.88" y="178.593" width="66.4584" height="2.8081" rx="1.40405" fill="#FF768F"/>
<rect x="146.88" y="186.081" width="66.4584" height="2.8081" rx="1.40405" fill="#FF768F"/>
<rect x="146.88" y="193.57" width="66.4584" height="2.8081" rx="1.40405" fill="#FF768F"/>
<rect x="127.823" y="159.823" width="3.64508" height="3.64508" fill="white" stroke="#B2ECFC" stroke-width="3.64508"/>
<rect x="264.969" y="159.823" width="3.64508" height="3.64508" fill="white" stroke="#B2ECFC" stroke-width="3.64508"/>
<rect x="127.823" y="203.108" width="3.64508" height="3.64508" fill="white" stroke="#B2ECFC" stroke-width="3.64508"/>
<rect x="264.969" y="203.108" width="3.64508" height="3.64508" fill="white" stroke="#B2ECFC" stroke-width="3.64508"/>
<path d="M131.887 208.263L129.906 217.263C129.346 219.81 125.886 220.218 124.749 217.871L123.33 214.944C123.061 214.388 122.612 213.939 122.056 213.67L119.029 212.202C116.694 211.071 117.084 207.63 119.613 207.051L128.589 204.993C130.554 204.543 132.32 206.293 131.887 208.263Z" fill="#F2385A"/>
<path d="M261.994 247.318C257.902 247.318 253.959 245.785 250.945 243.022C247.932 240.259 246.068 236.467 245.722 232.397C245.711 232.272 245.751 232.147 245.832 232.051C245.913 231.955 246.029 231.895 246.155 231.884C246.28 231.874 246.405 231.913 246.501 231.994C246.597 232.075 246.657 232.191 246.668 232.316C247.002 236.143 248.761 239.705 251.598 242.3C254.434 244.895 258.142 246.334 261.989 246.334C265.837 246.334 269.545 244.895 272.381 242.3C275.217 239.705 276.976 236.143 277.31 232.316C277.327 232.195 277.389 232.085 277.484 232.008C277.58 231.932 277.701 231.895 277.823 231.905C277.945 231.916 278.058 231.972 278.14 232.064C278.221 232.155 278.263 232.275 278.259 232.397C277.913 236.466 276.05 240.257 273.038 243.02C270.026 245.783 266.085 247.317 261.994 247.318Z" fill="#4690A4"/>
<path d="M277.791 230.157C277.67 230.157 277.553 230.111 277.465 230.028C277.377 229.945 277.324 229.832 277.317 229.711C276.982 225.885 275.224 222.323 272.387 219.728C269.551 217.133 265.843 215.693 261.996 215.693C258.148 215.693 254.44 217.133 251.604 219.728C248.767 222.323 247.009 225.885 246.674 229.711C246.664 229.836 246.604 229.952 246.508 230.033C246.412 230.115 246.288 230.154 246.162 230.144C246.037 230.134 245.92 230.074 245.839 229.978C245.758 229.882 245.718 229.758 245.728 229.633C246.067 225.558 247.928 221.758 250.942 218.989C253.956 216.219 257.903 214.682 262 214.682C266.097 214.682 270.044 216.219 273.058 218.989C276.072 221.758 277.933 225.558 278.272 229.633C278.277 229.695 278.27 229.757 278.251 229.817C278.232 229.876 278.201 229.931 278.161 229.978C278.121 230.026 278.071 230.065 278.016 230.093C277.961 230.122 277.9 230.139 277.838 230.144L277.791 230.157Z" fill="#4690A4"/>
<path d="M277.903 230.847C277.796 230.848 277.692 230.812 277.608 230.745L275.432 229.01C275.383 228.971 275.342 228.923 275.312 228.869C275.282 228.815 275.263 228.755 275.255 228.693C275.248 228.631 275.254 228.569 275.271 228.509C275.288 228.449 275.317 228.393 275.356 228.345C275.394 228.296 275.442 228.255 275.497 228.225C275.551 228.195 275.611 228.176 275.673 228.169C275.735 228.162 275.798 228.167 275.857 228.184C275.917 228.201 275.973 228.23 276.022 228.269L277.827 229.698L279.259 227.898C279.297 227.849 279.345 227.809 279.4 227.778C279.454 227.748 279.514 227.729 279.576 227.722C279.638 227.714 279.701 227.719 279.761 227.737C279.821 227.754 279.877 227.782 279.926 227.821C279.975 227.86 280.016 227.908 280.046 227.962C280.077 228.017 280.096 228.076 280.103 228.138C280.11 228.2 280.105 228.263 280.088 228.323C280.071 228.383 280.042 228.439 280.003 228.487L278.274 230.66C278.231 230.717 278.175 230.764 278.111 230.797C278.046 230.829 277.975 230.847 277.903 230.847Z" fill="#4690A4"/>
<path d="M244.368 234.56C244.279 234.56 244.192 234.535 244.116 234.488C244.041 234.441 243.98 234.373 243.941 234.293C243.902 234.212 243.887 234.123 243.897 234.034C243.907 233.946 243.942 233.862 243.997 233.792L245.726 231.62C245.765 231.57 245.813 231.529 245.868 231.498C245.923 231.467 245.983 231.448 246.046 231.441C246.108 231.434 246.171 231.439 246.232 231.457C246.292 231.475 246.348 231.504 246.397 231.544L248.573 233.27C248.672 233.348 248.735 233.462 248.749 233.587C248.764 233.712 248.728 233.837 248.649 233.935C248.611 233.984 248.563 234.024 248.508 234.055C248.454 234.085 248.394 234.104 248.332 234.111C248.207 234.125 248.081 234.089 247.983 234.011L246.173 232.582L244.742 234.382C244.697 234.438 244.64 234.483 244.576 234.514C244.511 234.545 244.44 234.561 244.368 234.56Z" fill="#4690A4"/>
<path d="M269.764 238.976C269.642 238.976 269.524 238.929 269.436 238.845L261.665 231.408C261.619 231.364 261.582 231.311 261.556 231.252C261.531 231.193 261.518 231.13 261.518 231.066V218.414C261.513 218.349 261.522 218.283 261.544 218.222C261.566 218.161 261.6 218.104 261.645 218.057C261.689 218.009 261.743 217.971 261.803 217.945C261.863 217.919 261.928 217.906 261.993 217.906C262.058 217.906 262.123 217.919 262.183 217.945C262.243 217.971 262.297 218.009 262.341 218.057C262.386 218.104 262.42 218.161 262.442 218.222C262.464 218.283 262.473 218.349 262.468 218.414V230.863L270.093 238.164C270.161 238.229 270.208 238.314 270.228 238.406C270.247 238.499 270.239 238.595 270.204 238.682C270.168 238.77 270.108 238.845 270.03 238.898C269.951 238.952 269.859 238.98 269.764 238.981V238.976Z" fill="#4690A4"/>
<path fill-rule="evenodd" clip-rule="evenodd" d="M213.705 106.301C213.705 106.301 213.705 106.301 213.705 106.301C217.404 106.301 220.402 103.302 220.402 99.6033C220.402 95.9045 217.404 92.906 213.705 92.906C213.537 92.906 213.371 92.9122 213.206 92.9243C212.179 87.8203 207.67 83.9765 202.264 83.9765C201.995 83.9765 201.728 83.986 201.464 84.0047C199.815 79.899 195.797 77 191.101 77C186.298 77 182.203 80.0345 180.629 84.2912C179.781 84.0855 178.896 83.9765 177.986 83.9765C171.821 83.9765 166.824 88.9739 166.824 95.1386C166.824 101.303 171.821 106.301 177.986 106.301C177.986 106.301 177.986 106.301 177.986 106.301V106.301H213.705V106.301Z" fill="#4690A4"/>
<path d="M224.949 97.6985L226.637 101.016L228.666 97.8949L224.949 97.6985ZM239.695 107.284L238.006 103.966L235.977 107.087L239.695 107.284ZM227.206 99.5503L237.086 105.973L237.438 105.432L227.557 99.0096L227.206 99.5503Z" fill="#DA6668"/>
<path d="M148.145 106.199L151.861 105.972L149.807 102.867L148.145 106.199ZM160.803 97.8215L157.087 98.0487L159.141 101.153L160.803 97.8215ZM150.743 104.866L158.561 99.6919L158.205 99.1541L150.387 104.328L150.743 104.866Z" fill="#DA6668"/>
<path d="M196.121 93.2725C196.349 94.8416 195.87 96.494 194.646 97.7001C192.838 99.4846 190.048 99.7042 187.996 98.3637L189.433 96.962L184.15 96.2252L184.887 101.385L186.501 99.8398C189.398 101.976 193.507 101.774 196.14 99.1762C197.666 97.6701 198.362 95.6708 198.276 93.6979L196.121 93.2725ZM187.174 90.3269C188.982 88.5424 191.771 88.3216 193.823 89.6633L192.383 91.0644L197.666 91.8018L196.93 86.6392L195.318 88.1884C192.42 86.0505 188.312 86.2545 185.679 88.8521C184.152 90.3575 183.457 92.3568 183.543 94.3291L185.698 94.7539C185.47 93.1843 185.95 91.5336 187.174 90.3269Z" fill="white"/>
<rect x="246.169" y="98.4793" width="28.0112" height="26.8477" rx="3.76153" fill="white" stroke="#8EDEF4" stroke-width="1.07472"/>
<rect x="113.537" y="98.4793" width="28.4178" height="26.8477" rx="3.76153" fill="white" stroke="#8EDEF4" stroke-width="1.07472"/>
<path d="M259.86 106.307L255.246 109.263L259.86 112.219L255.246 115.174L250.632 112.203L255.246 109.247L250.632 106.307L255.246 103.351L259.86 106.307ZM255.222 116.125L259.836 113.169L264.451 116.125L259.836 119.081L255.222 116.125ZM259.86 112.203L264.474 109.247L259.86 106.307L264.451 103.351L269.065 106.307L264.451 109.263L269.065 112.219L264.451 115.174L259.86 112.203Z" fill="#0061FF"/>
<path d="M120.236 116.832L121.017 118.173C121.179 118.456 121.412 118.678 121.686 118.839L124.473 114.039H118.898C118.898 114.352 118.98 114.665 119.142 114.947L120.236 116.832Z" fill="#0066DA"/>
<path d="M127.746 108.395L124.959 103.595C124.685 103.757 124.452 103.978 124.29 104.261L119.142 113.134C118.982 113.41 118.899 113.723 118.898 114.041H124.473L127.746 108.395Z" fill="#00AC47"/>
<path d="M133.807 118.839C134.081 118.678 134.314 118.456 134.476 118.173L134.8 117.619L136.351 114.947C136.513 114.665 136.594 114.352 136.594 114.039H131.02L132.206 116.359L133.807 118.839Z" fill="#EA4335"/>
<path d="M127.747 108.393L130.534 103.594C130.26 103.432 129.946 103.352 129.622 103.352H125.872C125.547 103.352 125.233 103.442 124.959 103.594L127.747 108.393Z" fill="#00832D"/>
<path d="M131.02 114.039H124.473L121.686 118.839C121.959 119 122.273 119.081 122.598 119.081H132.895C133.219 119.081 133.533 118.99 133.807 118.839L131.02 114.039Z" fill="#2684FC"/>
<path d="M133.776 108.696L131.202 104.259C131.04 103.977 130.807 103.755 130.533 103.594L127.746 108.393L131.02 114.04H136.584C136.584 113.727 136.503 113.415 136.34 113.132L133.776 108.696Z" fill="#FFBA00"/>
<path d="M196 119L193.936 121.432L197.074 122.003L196 119ZM164.091 155.261C164.366 155.164 164.649 155.061 164.941 154.95L164.744 154.433C164.457 154.543 164.178 154.645 163.909 154.739L164.091 155.261ZM166.612 154.267C167.142 154.036 167.691 153.785 168.257 153.513L168.017 153.015C167.458 153.284 166.915 153.533 166.391 153.76L166.612 154.267ZM169.871 152.7C170.39 152.426 170.92 152.137 171.458 151.831L171.186 151.351C170.653 151.654 170.128 151.94 169.614 152.21L169.871 152.7ZM173.012 150.916C173.517 150.608 174.026 150.286 174.54 149.951L174.238 149.488C173.729 149.821 173.224 150.14 172.724 150.445L173.012 150.916ZM176.039 148.938C176.525 148.598 177.014 148.246 177.503 147.882L177.173 147.439C176.689 147.8 176.205 148.148 175.722 148.485L176.039 148.938ZM178.934 146.781C179.4 146.411 179.866 146.029 180.33 145.636L179.973 145.214C179.513 145.604 179.052 145.982 178.59 146.349L178.934 146.781ZM181.689 144.446C182.132 144.045 182.573 143.634 183.009 143.212L182.625 142.815C182.193 143.232 181.757 143.639 181.319 144.036L181.689 144.446ZM184.288 141.934C184.704 141.504 185.115 141.063 185.521 140.613L185.111 140.243C184.709 140.689 184.302 141.124 183.89 141.55L184.288 141.934ZM186.707 139.248C187.092 138.789 187.471 138.32 187.843 137.841L187.406 137.502C187.039 137.976 186.664 138.439 186.284 138.894L186.707 139.248ZM188.924 136.392C189.274 135.905 189.615 135.408 189.949 134.902L189.487 134.598C189.158 135.098 188.82 135.588 188.475 136.07L188.924 136.392ZM190.913 133.371C191.222 132.857 191.523 132.334 191.814 131.803L191.329 131.538C191.042 132.063 190.745 132.579 190.44 133.086L190.913 133.371ZM192.648 130.197C192.913 129.659 193.168 129.113 193.412 128.557L192.906 128.335C192.665 128.883 192.414 129.422 192.152 129.953L192.648 130.197ZM194.104 126.886C194.321 126.327 194.527 125.76 194.722 125.185L194.198 125.008C194.007 125.575 193.803 126.135 193.589 126.686L194.104 126.886ZM195.263 123.458C195.429 122.883 195.583 122.3 195.725 121.709L195.188 121.58C195.048 122.163 194.896 122.738 194.732 123.305L195.263 123.458Z" fill="#F2385A"/>
</g>
<defs>
<filter id="filter0_dddd_920_17696" x="29.0719" y="362.23" width="375.537" height="144.975" filterUnits="userSpaceOnUse" color-interpolation-filters="sRGB">
<feFlood flood-opacity="0" result="BackgroundImageFix"/>
<feColorMatrix in="SourceAlpha" type="matrix" values="0 0 0 0 0 0 0 0 0 0 0 0 0 0 0 0 0 0 127 0" result="hardAlpha"/>
<feOffset dx="0.666327" dy="0.138009"/>
<feGaussianBlur stdDeviation="1.27256"/>
<feColorMatrix type="matrix" values="0 0 0 0 0.458824 0 0 0 0 0.027451 0 0 0 0 0.027451 0 0 0 0.0171563 0"/>
<feBlend mode="normal" in2="BackgroundImageFix" result="effect1_dropShadow_920_17696"/>
<feColorMatrix in="SourceAlpha" type="matrix" values="0 0 0 0 0 0 0 0 0 0 0 0 0 0 0 0 0 0 127 0" result="hardAlpha"/>
<feOffset dx="2.87033" dy="0.594502"/>
<feGaussianBlur stdDeviation="2.39922"/>
<feColorMatrix type="matrix" values="0 0 0 0 0.301961 0 0 0 0 0.0235294 0 0 0 0 0.0235294 0 0 0 0.02925 0"/>
<feBlend mode="normal" in2="effect1_dropShadow_920_17696" result="effect2_dropShadow_920_17696"/>
<feColorMatrix in="SourceAlpha" type="matrix" values="0 0 0 0 0 0 0 0 0 0 0 0 0 0 0 0 0 0 127 0" result="hardAlpha"/>
<feOffset dx="6.91955" dy="1.43317"/>
<feGaussianBlur stdDeviation="4.01221"/>
<feColorMatrix type="matrix" values="0 0 0 0 0.301961 0 0 0 0 0.0235294 0 0 0 0 0.0235294 0 0 0 0.0379688 0"/>
<feBlend mode="normal" in2="effect2_dropShadow_920_17696" result="effect3_dropShadow_920_17696"/>
<feColorMatrix in="SourceAlpha" type="matrix" values="0 0 0 0 0 0 0 0 0 0 0 0 0 0 0 0 0 0 127 0" result="hardAlpha"/>
<feOffset dx="13.1215" dy="2.71772"/>
<feGaussianBlur stdDeviation="6.74375"/>
<feColorMatrix type="matrix" values="0 0 0 0 0.301961 0 0 0 0 0.0235294 0 0 0 0 0.0235294 0 0 0 0.045 0"/>
<feBlend mode="normal" in2="effect3_dropShadow_920_17696" result="effect4_dropShadow_920_17696"/>
<feBlend mode="normal" in="SourceGraphic" in2="effect4_dropShadow_920_17696" result="shape"/>
</filter>
<filter id="filter1_dd_920_17696" x="54.3638" y="-52.2998" width="317.416" height="62.3" filterUnits="userSpaceOnUse" color-interpolation-filters="sRGB">
<feFlood flood-opacity="0" result="BackgroundImageFix"/>
<feColorMatrix in="SourceAlpha" type="matrix" values="0 0 0 0 0 0 0 0 0 0 0 0 0 0 0 0 0 0 127 0" result="hardAlpha"/>
<feMorphology radius="6" operator="erode" in="SourceAlpha" result="effect1_dropShadow_920_17696"/>
<feOffset dy="8"/>
<feGaussianBlur stdDeviation="8"/>
<feColorMatrix type="matrix" values="0 0 0 0 0.0470588 0 0 0 0 0.352941 0 0 0 0 0.439216 0 0 0 0.08 0"/>
<feBlend mode="normal" in2="BackgroundImageFix" result="effect1_dropShadow_920_17696"/>
<feColorMatrix in="SourceAlpha" type="matrix" values="0 0 0 0 0 0 0 0 0 0 0 0 0 0 0 0 0 0 127 0" result="hardAlpha"/>
<feMorphology radius="6" operator="erode" in="SourceAlpha" result="effect2_dropShadow_920_17696"/>
<feOffset dy="6"/>
<feGaussianBlur stdDeviation="4"/>
<feColorMatrix type="matrix" values="0 0 0 0 0.0470588 0 0 0 0 0.352941 0 0 0 0 0.439216 0 0 0 0.12 0"/>
<feBlend mode="normal" in2="effect1_dropShadow_920_17696" result="effect2_dropShadow_920_17696"/>
<feBlend mode="normal" in="SourceGraphic" in2="effect2_dropShadow_920_17696" result="shape"/>
</filter>
<filter id="filter2_dddd_920_17696" x="-36.2326" y="247.565" width="579.006" height="326.882" filterUnits="userSpaceOnUse" color-interpolation-filters="sRGB">
<feFlood flood-opacity="0" result="BackgroundImageFix"/>
<feColorMatrix in="SourceAlpha" type="matrix" values="0 0 0 0 0 0 0 0 0 0 0 0 0 0 0 0 0 0 127 0" result="hardAlpha"/>
<feOffset dx="20.8497" dy="4.31838"/>
<feGaussianBlur stdDeviation="10.7447"/>
<feColorMatrix type="matrix" values="0 0 0 0 0.301961 0 0 0 0 0.0235294 0 0 0 0 0.0235294 0 0 0 0.0520312 0"/>
<feBlend mode="normal" in2="BackgroundImageFix" result="effect1_dropShadow_920_17696"/>
<feColorMatrix in="SourceAlpha" type="matrix" values="0 0 0 0 0 0 0 0 0 0 0 0 0 0 0 0 0 0 127 0" result="hardAlpha"/>
<feOffset dx="31.7896" dy="6.58425"/>
<feGaussianBlur stdDeviation="17.3156"/>
<feColorMatrix type="matrix" values="0 0 0 0 0.301961 0 0 0 0 0.0235294 0 0 0 0 0.0235294 0 0 0 0.06075 0"/>
<feBlend mode="normal" in2="effect1_dropShadow_920_17696" result="effect2_dropShadow_920_17696"/>
<feColorMatrix in="SourceAlpha" type="matrix" values="0 0 0 0 0 0 0 0 0 0 0 0 0 0 0 0 0 0 127 0" result="hardAlpha"/>
<feOffset dx="45.673" dy="9.45978"/>
<feGaussianBlur stdDeviation="26.7725"/>
<feColorMatrix type="matrix" values="0 0 0 0 0.301961 0 0 0 0 0.0235294 0 0 0 0 0.0235294 0 0 0 0.0728438 0"/>
<feBlend mode="normal" in2="effect2_dropShadow_920_17696" result="effect3_dropShadow_920_17696"/>
<feColorMatrix in="SourceAlpha" type="matrix" values="0 0 0 0 0 0 0 0 0 0 0 0 0 0 0 0 0 0 127 0" result="hardAlpha"/>
<feOffset dx="62.7943" dy="13.0059"/>
<feGaussianBlur stdDeviation="39.7205"/>
<feColorMatrix type="matrix" values="0 0 0 0 0.3 0 0 0 0 0.0225 0 0 0 0 0.0225 0 0 0 0.09 0"/>
<feBlend mode="normal" in2="effect3_dropShadow_920_17696" result="effect4_dropShadow_920_17696"/>
<feBlend mode="normal" in="SourceGraphic" in2="effect4_dropShadow_920_17696" result="shape"/>
</filter>
<filter id="filter3_i_920_17696" x="38.5503" y="150.522" width="67.0856" height="59.6589" filterUnits="userSpaceOnUse" color-interpolation-filters="sRGB">
<feFlood flood-opacity="0" result="BackgroundImageFix"/>
<feBlend mode="normal" in="SourceGraphic" in2="BackgroundImageFix" result="shape"/>
<feColorMatrix in="SourceAlpha" type="matrix" values="0 0 0 0 0 0 0 0 0 0 0 0 0 0 0 0 0 0 127 0" result="hardAlpha"/>
<feOffset dx="5.52459" dy="5.52459"/>
<feGaussianBlur stdDeviation="4.14344"/>
<feComposite in2="hardAlpha" operator="arithmetic" k2="-1" k3="1"/>
<feColorMatrix type="matrix" values="0 0 0 0 0 0 0 0 0 0 0 0 0 0 0 0 0 0 0.139889 0"/>
<feBlend mode="normal" in2="shape" result="effect1_innerShadow_920_17696"/>
</filter>
<linearGradient id="paint0_linear_920_17696" x1="91.6296" y1="337.823" x2="73.5711" y2="313.521" gradientUnits="userSpaceOnUse">
<stop stop-color="#F9B776"/>
<stop offset="1" stop-color="#F47960"/>
</linearGradient>
<linearGradient id="paint1_linear_920_17696" x1="114.88" y1="263.945" x2="103.158" y2="256.231" gradientUnits="userSpaceOnUse">
<stop stop-color="#F9B776"/>
<stop offset="1" stop-color="#F47960"/>
</linearGradient>
<linearGradient id="paint2_linear_920_17696" x1="66.5029" y1="369.7" x2="60.1819" y2="357.959" gradientUnits="userSpaceOnUse">
<stop stop-color="#F9B776"/>
<stop offset="1" stop-color="#F47960"/>
</linearGradient>
<linearGradient id="paint3_linear_920_17696" x1="127.631" y1="187.816" x2="108.623" y2="203.379" gradientUnits="userSpaceOnUse">
<stop stop-color="#F9B776"/>
<stop offset="1" stop-color="#F47960"/>
</linearGradient>
<linearGradient id="paint4_linear_920_17696" x1="77.0035" y1="199.817" x2="73.2994" y2="190.029" gradientUnits="userSpaceOnUse">
<stop stop-color="#F9B776"/>
<stop offset="1" stop-color="#F47960"/>
</linearGradient>
<linearGradient id="paint5_linear_920_17696" x1="86.7544" y1="178.441" x2="65.0914" y2="191.369" gradientUnits="userSpaceOnUse">
<stop stop-color="#F9B776"/>
<stop offset="0.632873" stop-color="#F47960"/>
</linearGradient>
<clipPath id="clip0_920_17696">
<rect width="41.3889" height="52.7778" fill="white" transform="translate(161.222 213.111)"/>
</clipPath>
</defs>
</svg>
