<svg width="328" height="180" viewBox="0 0 328 180" fill="none" xmlns="http://www.w3.org/2000/svg">
<mask id="mask0_24_4597" style="mask-type:alpha" maskUnits="userSpaceOnUse" x="0" y="0" width="328" height="180">
<path d="M0 0H328V180H0V0Z" fill="#FCF0EE"/>
</mask>
<g mask="url(#mask0_24_4597)">
<path d="M-35 -67C-35 -71.4183 -31.4183 -75 -27 -75H363V441H-27C-31.4183 441 -35 437.418 -35 433V-67Z" fill="#F4FCFF"/>
<g filter="url(#filter0_dd_24_4597)">
<path d="M379.23 13.9619C345.177 33.5755 303.855 41.3548 271.868 12.888C262.24 4.3212 253.753 -8.30754 240.778 -12.1142C227.69 -15.9559 211.242 -3.49892 200.079 -15.1135C190.863 -24.7064 197.887 -39.4955 196.345 -50.948C194.087 -67.7327 179.276 -69.0632 164.936 -67.0464C155.128 -65.6661 143.454 -64.9282 137.083 -72.5123C132.556 -77.8914 132.504 -85.8026 134.375 -92.561C138.201 -106.344 151.593 -125.092 135.582 -136.692C126.872 -143.003 114.599 -141.036 104.819 -145.495C95.7112 -149.637 90.3361 -159.974 90.6639 -169.752C91.1085 -182.879 99.7745 -187.877 110.007 -194.389C133.965 -209.618 161.032 -220.017 189.066 -224.652C216.697 -229.228 245.792 -223.591 262.109 -198.846C272.42 -183.203 275.291 -163.134 287.701 -149.084C297.636 -137.836 313.186 -132.09 328.061 -133.448C335.745 -134.15 343.173 -136.656 350.867 -137.34C358.547 -138.028 367.088 -136.478 372.096 -130.611C380.172 -121.173 377.213 -107.35 384.453 -98.049C392.76 -87.3692 409.497 -92.1335 420.847 -94.1574C430.972 -95.9622 445.242 -96.2158 451.987 -86.9608C455.89 -81.6068 455.988 -74.3891 455.133 -67.8225C454.277 -61.2558 452.631 -54.6272 453.666 -48.0879C455.176 -38.4152 462.145 -30.6754 467.926 -22.7824C477.412 -9.84297 481.788 11.1403 462.09 17.338C454.645 19.6534 446.509 17.6914 439.289 14.7214C432.073 11.7375 425.218 7.74233 417.647 5.80191C403.516 2.18967 391.26 7.02503 379.23 13.9619Z" fill="#77C2D7"/>
</g>
<g filter="url(#filter1_dd_24_4597)">
<path d="M323.102 5.71739C319.81 7.0631 316.573 8.21436 313.529 9.17634C293.175 15.649 266.171 21.6366 245.749 9.90613C236.04 4.3331 230.006 -3.39808 225.35 -12.8562C222.799 -18.0304 219.677 -23.4294 214.35 -26.254C208.756 -29.2145 202.253 -28.8733 196.465 -27.3768C191.607 -26.1125 186.981 -24.1845 181.992 -23.3559C172.949 -21.8591 165.815 -25.3031 162.173 -33.6247C157.766 -43.6889 156.882 -56.9026 141.534 -54.5044C137.398 -53.8602 133.535 -52.2946 129.496 -51.3183C121.441 -49.3588 111.412 -50.3008 106.117 -56.6942C99.1535 -65.0934 104.032 -76.5719 99.7596 -85.72C97.1395 -91.3235 93.0902 -92.1509 87.3452 -93.5887C69.1349 -98.139 50.7751 -113.783 63.0715 -131.254C72.6855 -144.909 88.5148 -154.838 104.34 -161.389C133.803 -173.584 167.612 -182.995 200.472 -171.738C217.887 -165.77 229.755 -154.225 235.209 -137.939C236.562 -133.92 238.891 -129.664 243.07 -128.039C247.099 -126.469 251.549 -127.501 255.68 -126.381C260.543 -125.06 264.885 -121.902 268.842 -118.997C275.574 -114.044 282.603 -108.748 290.766 -106.197C299.434 -103.5 308.814 -103.273 317.648 -101.252C321.993 -100.257 326.631 -98.5916 328.978 -94.9853C334.724 -86.1453 323.094 -79.2389 325.816 -70.4953C326.69 -67.6568 329.131 -65.4613 331.462 -63.4148C341.485 -54.6401 353.914 -43.7734 355.162 -30.4539C356.87 -12.5218 339.477 -0.977677 323.102 5.71739Z" fill="#FCF0EE"/>
</g>
<g filter="url(#filter2_ddd_24_4597)">
<path d="M-276.541 165.708C-271.288 162.336 -266.05 159.289 -261.111 156.615C-228.04 138.685 -183.438 119.058 -145.186 130.094C-127.004 135.339 -114.498 145.392 -103.887 158.697C-98.0707 165.99 -91.2175 173.409 -81.296 175.903C-70.8913 178.53 -59.8327 175.557 -50.3487 170.996C-42.3838 167.164 -34.9796 162.365 -26.6667 159.187C-11.6015 153.429 1.59072 156.233 10.1585 168.125C20.5156 182.498 25.7237 203.205 51.3497 193.648C58.2615 191.07 64.4396 187.145 71.0944 184.064C84.3504 177.927 101.797 175.686 112.65 183.871C126.925 194.638 121.765 214.745 131.637 227.708C137.694 235.657 144.868 235.46 155.095 235.593C187.569 236.018 223.392 254.061 207.192 286.474C194.527 311.806 170.188 333.548 144.902 349.9C97.8293 380.342 42.5329 407.963 -16.9142 402.338C-48.4134 399.358 -71.987 385.413 -85.8727 361.526C-89.3026 355.63 -94.4803 349.727 -102.1 348.702C-109.438 347.715 -116.768 351.026 -124.176 350.779C-132.88 350.485 -141.201 347.095 -148.793 343.935C-161.703 338.559 -175.226 332.76 -189.933 331.759C-205.548 330.707 -221.685 333.873 -237.379 333.955C-245.102 333.999 -253.504 333.079 -258.532 328.212C-270.845 316.295 -252.845 300.947 -259.95 288.035C-262.249 283.853 -267.026 281.25 -271.613 278.869C-291.241 268.647 -315.56 256.002 -321.431 235.252C-329.301 207.376 -302.717 182.498 -276.541 165.708Z" fill="#FAB1A5"/>
</g>
<g filter="url(#filter3_dddddd_24_4597)">
<path d="M-9.12044 293.465C-46.1989 329.127 -97.7078 356.076 -151.637 341.813C-167.876 337.518 -184.237 328.562 -202.97 330.664C-221.859 332.781 -238.557 353.05 -258.056 346.345C-274.155 340.813 -270.895 322.523 -277.596 311.564C-287.429 295.5 -307.573 300.983 -325.71 309.628C-338.129 315.545 -353.285 321.675 -364.803 316.887C-372.98 313.489 -376.279 305.458 -376.553 297.706C-377.097 281.907 -367.025 256.644 -392.946 252.2C-407.035 249.784 -422.49 257.433 -437.255 257.403C-451.003 257.374 -462.331 249.331 -465.873 239.21C-470.638 225.622 -461.215 216.553 -450.324 205.22C-424.815 178.665 -393.244 155.618 -358.019 137.978C-323.32 120.599 -282.504 112.927 -250.843 130.619C-230.831 141.799 -218.838 160.918 -196.704 169.511C-178.976 176.394 -156.05 175.086 -136.912 166.847C-127.028 162.592 -118.216 156.616 -108.322 152.38C-98.4288 148.143 -86.503 145.785 -77.4766 149.455C-62.9447 155.352 -61.2156 170.795 -47.8606 176.938C-32.5078 183.997 -12.3157 171.438 1.89737 164.133C14.5596 157.624 33.3414 150.8 46.0479 157.125C53.4038 160.786 56.4563 168.087 58.0012 175.172C59.5461 182.256 60.0788 189.762 64.1006 195.952C70.0423 205.101 82.4128 209.786 93.2877 215.169C111.11 223.98 125.461 243.342 101.91 258.722C93.0083 264.535 81.4425 266.28 70.6728 266.574C59.9032 266.868 49.2068 265.955 38.4023 267.464C18.2319 270.281 3.98453 280.858 -9.12044 293.465Z" fill="#F2385A"/>
</g>
<path d="M227.829 19.4296C226.354 17.2902 224.572 15.3941 222.721 13.5746C222.148 13.0133 221.191 13.466 221.258 14.2605C221.524 17.5969 220.145 21.0805 218.236 23.933C215.815 27.5638 212.582 30.623 210.337 34.3686C205.714 42.0712 205.803 51.7306 207.421 60.5692C209.039 69.4079 212.026 78.0191 212.742 86.9706C213.088 91.2367 212.88 95.6589 211.261 99.6166C209.667 103.509 206.532 106.93 202.502 108.118C202.383 108.157 202.325 108.28 202.371 108.388C202.396 108.45 202.468 108.502 202.538 108.505C207.793 109.003 212.645 104.765 214.403 99.7643C216.172 94.7311 215.451 89.1825 214.245 83.9906C213.048 78.7965 211.375 73.64 211.291 68.3105C211.21 62.9904 212.767 57.6536 215.708 53.2027C218.381 49.1537 222.088 45.9287 225.261 42.2614C228.434 38.594 231.168 34.1843 231.222 29.3352C231.274 25.802 229.843 22.3561 227.829 19.4296Z" fill="url(#paint0_linear_24_4597)"/>
<path opacity="0.5" d="M224.505 29.7701C224.532 30.7625 224.404 31.7332 224.235 32.6945C224.057 33.658 223.825 34.605 223.518 35.5308C223.376 36.0007 223.191 36.4519 223.026 36.9077C222.852 37.3659 222.645 37.8122 222.457 38.254C222.248 38.6911 222.029 39.1304 221.811 39.5697L221.098 40.8526C220.845 41.2708 220.58 41.682 220.315 42.0932C220.05 42.5044 219.75 42.8945 219.474 43.2987C218.907 44.0906 218.31 44.8405 217.739 45.6139C216.584 47.1535 215.462 48.7048 214.491 50.3477C213.521 51.9905 212.719 53.7202 212.114 55.5205C211.779 56.4136 211.573 57.3444 211.325 58.2657C211.149 59.199 210.933 60.1322 210.841 61.0844C210.565 62.9816 210.522 64.9006 210.489 66.8174C210.506 67.7724 210.535 68.7345 210.564 69.6965L210.757 72.5761C210.759 72.6646 210.698 72.7389 210.612 72.7502C210.524 72.7522 210.449 72.6913 210.438 72.6051C209.962 68.7764 209.754 64.8719 210.196 60.9956C210.558 57.1191 211.827 53.3067 213.808 49.942C214.798 48.255 215.932 46.671 217.072 45.1151C217.641 44.3324 218.245 43.5709 218.796 42.7928C219.065 42.4003 219.36 42.0311 219.618 41.6316C219.876 41.232 220.134 40.8324 220.391 40.4328L221.107 39.1989C221.33 38.7782 221.553 38.3575 221.764 37.9298C221.964 37.4951 222.177 37.0767 222.356 36.6372C222.535 36.1977 222.725 35.7652 222.881 35.3117C223.227 34.4256 223.487 33.5113 223.723 32.5829C223.951 31.6568 224.124 30.7142 224.182 29.7805L224.179 29.7711C224.187 29.6803 224.259 29.6131 224.35 29.6204C224.439 29.6185 224.504 29.6816 224.505 29.7701Z" fill="white"/>
<path d="M254.798 27.485C251.582 30.4217 247.15 32.1063 242.862 33.3044C237.259 34.8718 231.323 36.0159 226.683 39.5291C221.837 43.1955 219.071 48.9969 217.351 54.8253C215.63 60.6537 214.774 66.7253 212.793 72.4726C210.91 77.9406 207.802 83.2646 202.956 86.3454C206.901 86.2103 210.432 83.2555 212.378 79.7603C214.459 76.0219 215.144 71.7069 216.063 67.527C216.982 63.3562 218.27 59.0592 221.224 55.9603C227.017 49.8887 236.944 50.4743 244.097 46.0962C247.799 43.8351 250.601 40.3129 252.654 36.4843C254.051 33.8809 255.123 31.1154 256.096 28.3228C256.348 27.5571 255.411 26.9355 254.798 27.485Z" fill="url(#paint1_linear_24_4597)"/>
<path d="M197.806 29.8623L132.143 27.7708C130.641 27.7232 129.422 28.8165 129.422 30.2152V142.472C129.422 143.871 130.641 144.938 132.143 144.858L197.803 141.344C199.161 141.271 200.26 140.138 200.26 138.811V32.3414C200.262 31.0141 199.163 29.9056 197.806 29.8623Z" fill="#BCCFDC"/>
<path d="M197.807 31.2784L132.144 29.2583C131.53 29.2388 131.029 29.6892 131.029 30.2629V142.39C131.029 142.964 131.53 143.403 132.144 143.371L197.804 139.928C198.361 139.898 198.814 139.433 198.814 138.887V32.2981C198.817 31.7525 198.363 31.2957 197.807 31.2784Z" fill="white"/>
<path d="M255.339 50.5794L184.253 48.1715C182.629 48.1166 181.308 49.3754 181.308 50.9831V180.113C181.308 181.72 182.629 182.95 184.253 182.857L255.339 178.816C256.808 178.732 258 177.428 258 175.901V53.4315C258 51.9051 256.811 50.6271 255.339 50.5794Z" fill="#F2385A"/>
<g opacity="0.3">
<path opacity="0.3" d="M226.173 145.93C224.964 131.165 234.034 125.072 230.575 111.692C226.299 95.1577 209.858 94.4482 204.256 78.2336C202.111 72.0205 201.263 62.6281 207.405 48.955L184.253 48.1715C182.629 48.1166 181.308 49.3754 181.308 50.9831V180.113C181.308 181.72 182.629 182.95 184.253 182.857L247.638 179.253C231.512 166.769 226.916 155.005 226.173 145.93Z" fill="#D8DEE8"/>
</g>
<path d="M255.339 52.2085L184.253 49.8843C183.586 49.8628 183.044 50.3812 183.044 51.0405V180.02C183.044 180.679 183.586 181.185 184.253 181.147L255.339 177.186C255.943 177.153 256.433 176.616 256.433 175.99V53.3814C256.433 52.7532 255.943 52.2276 255.339 52.2085Z" fill="white"/>
<path opacity="0.6" d="M199.259 127.665L236.052 127.213C237.01 127.201 237.784 127.65 237.784 128.216V138.004C237.784 138.57 237.01 139.043 236.052 139.063L197.274 139.81C196.271 139.829 195.456 139.375 195.456 138.793V125.999L199.259 127.665Z" fill="#DAE4EC"/>
<path opacity="0.67" d="M202.002 135.951L231.501 135.448V136.631L202.002 137.155V135.951Z" fill="white"/>
<path opacity="0.67" d="M202.002 133.544L231.501 133.082V134.265L202.002 134.748V133.544Z" fill="white"/>
<path opacity="0.67" d="M202.002 131.137L231.501 130.714V131.899L202.002 132.34V131.137Z" fill="white"/>
<path d="M138.028 131.097C137.071 129.259 135.417 127.308 136.101 125.175C136.775 123.073 139.508 121.483 141.833 121.805C143.874 122.086 145.01 123.754 147.115 126.691C151.314 132.548 152.072 137.825 152.794 138.54C159.105 144.775 169.904 134.504 178.508 140.048C184.263 143.756 187.636 152.204 185.531 158.912C183.431 165.597 176.543 168.463 175.342 168.962C160.292 175.224 137.589 162.556 136.377 150.786C135.705 144.258 141.649 138.051 138.028 131.097Z" fill="#233F52"/>
<path d="M102.479 110.19C101.695 110.017 99.5943 113.845 100.62 115.009C100.82 115.237 101.156 115.382 104.786 115.198C107.004 115.085 107.609 114.996 107.885 115.387C108.539 116.314 106.316 118.483 106.802 118.991C107.211 119.422 109.344 118.446 109.344 117.538C109.344 117.218 109.081 117.192 108.932 116.7C108.697 115.925 109.203 115.495 109.164 114.616C109.16 114.524 109.111 113.615 108.608 113.157C107.469 112.122 105.019 114.301 103.599 113.365C102.403 112.575 103.066 110.319 102.479 110.19Z" fill="url(#paint2_linear_24_4597)"/>
<path d="M141.461 89.8931C143.787 89.9437 146.975 89.8402 148.731 90.298C148.675 91.0802 148.62 90.926 148.487 91.6967C146.409 91.6346 146.218 92.465 146.218 92.465C145.791 92.9757 145.048 93.1598 144.374 93.1322C143.647 93.1023 143.258 92.8814 143.002 92.6399C142.186 91.8692 142.423 91.2596 141.802 90.9329C141.231 90.6316 140.803 90.8409 139.653 90.7328C138.701 90.6431 137.819 90.4429 137.845 90.2175C137.888 89.8241 141.148 89.8862 141.461 89.8931Z" fill="url(#paint3_linear_24_4597)"/>
<path d="M148.515 89.8864C148.363 90.4615 148.209 91.0389 148.057 91.614C155.128 96.1022 159.002 104.273 157.976 112.539C156.978 120.591 151.491 127.435 143.819 130.204C134.148 140.561 124.475 150.916 114.803 161.272C115.524 162.163 122.418 170.391 133.529 169.809C135.264 169.72 145.183 168.99 150.465 160.308C154.277 154.042 154.227 146.006 150.417 139.404C153.067 138.725 160.528 136.439 165.669 129.333C171.639 121.083 173.1 108.263 166.161 99.1757C160.084 91.2137 150.587 90.0842 148.515 89.8864Z" fill="#DA6668"/>
<path d="M110.841 170.902C110.471 170.15 109.889 170.237 108.61 169.441C106.486 168.121 106.339 166.793 104.237 166.037C103.602 165.809 103.199 165.664 103.006 165.85C102.734 166.113 102.994 166.906 103.567 167.96C106.197 170.435 109.562 172.31 110.804 172.963C110.913 172.296 111.212 171.65 110.841 170.902Z" fill="#680416"/>
<path d="M114.766 180.41C115.428 179.317 116.093 178.222 116.755 177.13C112.184 175.961 110.926 174.654 110.788 173.573C110.76 173.366 110.776 173.166 110.809 172.966C109.566 172.315 106.199 170.437 103.571 167.962C104.57 169.803 106.518 172.439 108.26 174.436C110.526 177.035 112.822 178.981 114.766 180.41Z" fill="url(#paint4_linear_24_4597)"/>
<path d="M132.702 159.206C136.514 165.946 137.943 171.511 138.545 175.137C138.978 177.736 139.058 179.77 137.841 180.893C135.75 182.825 131.186 180.807 130.806 180.633C127.942 179.328 127.363 177.61 125.38 176.094C123.341 174.534 119.865 173.223 113.562 174.352C113.176 175.829 112.789 177.306 112.4 178.785C116.534 182.82 123.654 188.316 133.429 189.738C137.623 190.348 142.539 191.063 145.918 188.123C150.873 183.81 149.944 173.872 145.78 167.607C141.538 161.219 134.552 159.581 132.702 159.206Z" fill="#8EDEF4"/>
<path d="M132.957 130.779C135.927 130.683 140.912 131.136 143.882 131.037C144.25 132.956 144.585 135.955 143.87 139.379C141.3 151.661 127.231 159.63 124.226 156.936C120.861 153.915 129.566 137.08 132.957 130.779Z" fill="#DAE4EC"/>
<path d="M120.171 157.554C120.772 162.613 135.17 167.895 143.763 171.046C145.249 171.592 148.177 172.629 150.158 175.422C152.426 178.622 151.927 181.981 152.215 184.421C152.7 188.532 155.893 194.007 167.883 199.887C169.392 198.843 170.904 197.799 172.413 196.754C168.948 189.906 163.809 181.396 156.245 172.698C146.388 161.359 136.1 153.938 128.435 149.293C121.427 153.075 119.957 155.732 120.171 157.554Z" fill="#8EDEF4"/>
<path d="M109.148 115.948C111.11 118.605 115.891 124.306 124.2 127.591C130.002 129.884 135.18 130.071 138.279 129.937C138.035 136.155 136.6 140.952 135.39 144.067C134.019 147.603 129.107 160.225 118.463 163.168C116.852 163.612 113.094 164.651 109.983 162.648C106.588 160.462 105.24 155.477 106.454 151.877C108.092 147.025 114.462 144.46 116.346 143.701C119.321 142.502 122.477 141.98 122.769 140.193C122.891 139.447 122.47 138.748 122.084 138.263C113.061 139.99 105.235 135.267 103.65 129.049C102.247 123.542 106.167 118.548 106.77 117.8C107.563 117.186 108.355 116.567 109.148 115.948Z" fill="#DA6668"/>
<path d="M139.51 126.307L138.832 130.354C138.832 130.354 139.687 131.212 142.101 130.453L141.171 126.105L139.51 126.307Z" fill="url(#paint5_linear_24_4597)"/>
<path d="M139.526 123.908C139.526 123.908 138.709 124.493 138.283 125.348C137.858 126.204 137.678 127.113 138.329 127.741C138.98 128.371 140.085 127.941 141.481 127.108C142.877 126.276 143.006 122.671 139.526 123.908Z" fill="url(#paint6_linear_24_4597)"/>
<path d="M142.491 124.306C142.58 124.479 142.875 125.093 142.691 125.843C142.41 126.979 141.278 127.251 141.193 127.281C141.193 127.281 142.387 126.301 141.672 126.105C140.956 125.91 141.087 124.736 141.573 124.263C141.573 124.263 140.689 124.736 139.933 124.304C139.176 123.871 138.759 124.637 138.759 124.637C138.847 124.474 139.215 123.819 140.022 123.533C140.197 123.471 140.788 123.273 141.474 123.522C142.06 123.733 142.38 124.147 142.491 124.306Z" fill="#233F52"/>
<path d="M133.232 128.985C133.605 128.348 134.742 128.36 135.298 128.366C137.994 128.394 138.576 130.359 140.668 130.329C142.685 130.299 143.226 128.456 144.9 128.781C146.179 129.027 147.442 130.407 147.275 131.465C146.909 133.791 139.411 136.011 135.503 133.117C134.054 132.04 132.669 129.947 133.232 128.985Z" fill="#DA6668"/>
<path d="M214.44 74.2131L222.166 61.0682C222.331 60.7886 222.127 60.4353 221.799 60.4353H216.822C216.57 60.4353 216.337 60.5676 216.21 60.7836L208.205 74.4016C207.93 74.8697 208.271 75.4577 208.816 75.4577H212.296L210.794 78.0143C210.519 78.4824 210.86 79.0704 211.406 79.0704H223.945C224.247 79.0704 224.526 78.9106 224.679 78.6522L226.914 74.8473C227.079 74.5664 226.875 74.2144 226.548 74.2144H214.44V74.2131ZM217.135 61.6799H220.356L212.989 74.2131H209.767L217.135 61.6799ZM223.713 77.8258H212.356L213.747 75.4577H225.104L223.713 77.8258Z" fill="#F2385A"/>
<rect x="104.773" y="80.728" width="32.3859" height="31.3431" stroke="#77C2D7" stroke-width="0.674165" stroke-linecap="square" stroke-linejoin="round"/>
<rect x="104.811" y="80.7639" width="32.3087" height="31.2727" fill="#F4FCFF" stroke="#8EDEF4" stroke-width="0.565768" stroke-linecap="square" stroke-linejoin="round"/>
<rect x="134.451" y="79.4792" width="3.361" height="3.361" fill="#77C2D7" stroke="#F4FCFF" stroke-width="0.674165"/>
<rect x="103.532" y="79.6347" width="2.8566" height="2.82476" fill="#77C2D7" stroke="#F4FCFF" stroke-width="0.674165"/>
<rect x="103.532" y="109.766" width="3.361" height="3.361" fill="#77C2D7" stroke="#F4FCFF" stroke-width="0.674165"/>
<rect x="134.451" y="109.766" width="3.361" height="3.361" fill="#77C2D7" stroke="#F4FCFF" stroke-width="0.674165"/>
<rect x="119.632" y="110.716" width="2.66837" height="2.64127" fill="#77C2D7" stroke="#F4FCFF" stroke-width="0.337082"/>
<rect x="135.786" y="95.0791" width="2.66837" height="2.64127" fill="#77C2D7" stroke="#F4FCFF" stroke-width="0.337082"/>
<rect x="103.478" y="95.0791" width="2.66837" height="2.64127" fill="#77C2D7" stroke="#F4FCFF" stroke-width="0.337082"/>
<rect x="119.63" y="79.4423" width="2.66837" height="2.64127" fill="#77C2D7" stroke="#F4FCFF" stroke-width="0.337082"/>
<path d="M120.964 75.551V79.0878" stroke="#77C2D7" stroke-width="0.337082" stroke-linecap="square"/>
<ellipse cx="120.965" cy="73.3175" rx="1.50273" ry="1.48917" fill="#77C2D7" stroke="#F4FCFF" stroke-width="0.337082"/>
<path d="M134.022 90.5883C134 89.0305 129.156 90.8012 128.597 90.9805C128.543 90.9981 128.512 91.0341 128.496 91.0754C128.457 91.1061 128.434 91.1513 128.428 91.1987C128.366 91.2975 128.407 91.4576 128.557 91.4523C129.979 91.4009 131.438 91.4239 132.852 91.2631C133.207 91.2233 134.029 91.116 134.022 90.5883Z" fill="#CE2846"/>
<path d="M128.74 92.4284C128.706 92.4291 128.682 92.4429 128.665 92.4636C128.662 92.4636 128.659 92.4636 128.656 92.4628C128.558 92.4567 128.513 92.6076 128.603 92.652C129.181 92.9377 129.865 93.0342 130.504 93.084C130.713 93.1001 131.533 93.2686 131.642 92.9308C131.848 92.2982 129.053 92.4238 128.74 92.4284Z" fill="#F2385A"/>
<path d="M130.125 88.1789C129.793 87.9629 129.323 88.532 129.163 88.7273C128.752 89.2305 128.198 89.87 128.016 90.4965C127.994 90.5739 128.068 90.6367 128.139 90.6213C128.175 90.6543 128.228 90.6642 128.272 90.619C128.509 90.374 130.809 88.6254 130.125 88.1789Z" fill="#FF768F"/>
<path d="M117.783 107.698C117.49 108.204 116.518 108.729 114.886 108.456C114.742 108.433 114.594 108.404 114.439 108.366C112.244 107.844 111.527 106.153 111.595 105.527C111.6 105.484 111.607 105.443 111.617 105.407C111.623 105.385 111.631 105.362 111.639 105.343C111.737 105.091 111.964 104.984 112.142 104.938C112.278 104.903 112.383 104.903 112.383 104.903L115.363 105.808L117.267 106.386C117.267 106.386 117.487 106.535 117.663 106.773C117.797 106.953 117.906 107.187 117.873 107.446V107.448C117.861 107.528 117.832 107.612 117.783 107.698Z" fill="#DAE4EC"/>
<path d="M117.783 107.698C117.125 108.048 116.06 108.235 114.637 107.892C112.642 107.41 111.881 106.24 111.617 105.407C111.758 104.901 112.383 104.902 112.383 104.902L117.267 106.386C117.267 106.386 117.949 106.847 117.872 107.448C117.861 107.527 117.832 107.612 117.783 107.698Z" fill="#035970"/>
<path d="M117.872 107.446C117.295 107.779 116.356 107.979 115.064 107.742C114.934 107.72 114.803 107.692 114.667 107.659C112.929 107.244 112.009 106.185 111.639 105.342C111.48 104.978 111.422 104.655 111.445 104.441C111.464 104.267 111.527 104.137 111.609 104.039C111.643 104.001 111.678 103.968 111.716 103.94C111.844 103.838 111.995 103.789 112.115 103.762C112.178 103.768 112.22 103.776 112.22 103.776L117.071 105.248L117.751 105.455C117.751 105.455 117.907 105.509 118.1 105.606C118.256 105.755 118.445 105.981 118.524 106.253C118.554 106.357 118.568 106.466 118.558 106.582C118.557 106.593 118.556 106.605 118.554 106.617C118.521 106.889 118.291 107.202 117.872 107.446Z" fill="white"/>
<path d="M118.56 106.583C117.956 107.166 116.53 107.478 114.759 107.071C112.165 106.475 111.657 104.832 111.61 104.039C111.754 103.871 111.96 103.796 112.115 103.762C112.178 103.768 112.22 103.776 112.22 103.776L117.752 105.455C117.752 105.455 117.908 105.509 118.102 105.606C118.316 105.813 118.596 106.166 118.56 106.583Z" fill="#035970"/>
<path d="M118.526 106.253C118.334 106.453 118.047 106.641 117.663 106.772C117.078 106.973 116.273 107.05 115.248 106.853C115.139 106.834 115.027 106.81 114.912 106.782C113.49 106.442 112.615 105.67 112.142 104.938C111.908 104.576 111.771 104.224 111.716 103.94C111.686 103.793 111.68 103.666 111.69 103.563C111.728 103.223 111.935 103.047 112.14 102.957C112.363 102.856 112.583 102.857 112.583 102.857L118.115 104.536C118.115 104.536 118.299 104.661 118.478 104.867C118.62 105.032 118.758 105.25 118.796 105.497C118.809 105.575 118.811 105.656 118.8 105.74C118.779 105.903 118.688 106.083 118.526 106.253Z" fill="white"/>
<path d="M118.797 105.497C118.256 106.05 117.175 106.732 115.122 106.151C112.274 105.346 112.1 103.599 112.14 102.957C112.363 102.856 112.584 102.857 112.584 102.857L118.116 104.536C118.116 104.536 118.712 104.939 118.797 105.497Z" fill="#035970"/>
<path opacity="0.35" d="M117.872 107.447C117.861 107.527 117.832 107.612 117.783 107.699C117.489 108.204 116.517 108.729 114.886 108.456C115.133 108.117 115.062 107.743 115.062 107.743L115.064 107.742C115.567 107.378 115.232 106.875 115.232 106.875C115.237 106.868 115.242 106.86 115.247 106.852C115.548 106.398 115.434 105.979 115.362 105.807C115.341 105.753 115.323 105.723 115.323 105.723L117.07 105.249L118.477 104.866C118.62 105.032 118.758 105.249 118.796 105.496C118.809 105.574 118.811 105.655 118.8 105.739C118.778 105.903 118.687 106.083 118.524 106.253C118.554 106.357 118.569 106.466 118.559 106.582C118.557 106.593 118.556 106.605 118.554 106.617C118.52 106.888 118.29 107.202 117.871 107.445L117.872 107.447Z" fill="#9EB6C7"/>
<path d="M121.734 102.984C120.346 103.461 119.518 104.648 118.441 105.409C118.317 105.498 118.186 105.58 118.053 105.656C117.365 106.044 116.553 106.232 115.443 105.97C115.334 105.945 115.223 105.915 115.108 105.881C114.644 105.741 114.193 105.531 113.789 105.254C113.701 105.195 113.616 105.133 113.535 105.067C113.396 104.959 113.266 104.84 113.144 104.714C112.966 104.532 112.806 104.334 112.669 104.119C112.272 103.495 112.296 102.766 112.119 102.077C112.091 101.966 112.054 101.862 112.009 101.76C111.785 101.25 111.376 100.851 111.005 100.431C110.849 100.255 110.701 100.071 110.562 99.88C107.365 95.5167 109.143 88.6543 113.874 86.1858C114.797 85.7041 115.806 85.3939 116.843 85.2514C118.397 85.0331 120.011 85.1878 121.477 85.6926C121.503 85.701 121.53 85.7117 121.555 85.7201C123.627 86.4554 125.491 87.8907 126.565 89.8292C129.149 94.492 126.82 101.239 121.734 102.984Z" fill="#F2385A"/>
<path opacity="0.34" d="M121.734 102.983C119.35 103.799 118.618 106.717 115.442 105.968C114.793 104.713 114.624 103.205 115.054 101.857C115.82 99.4567 118.228 97.745 118.61 95.2558C118.835 93.7876 118.292 92.291 117.465 91.0579C116.958 90.3035 116.337 89.605 116.039 88.7457C115.619 87.5272 115.957 86.1531 116.843 85.2486C118.424 85.0265 120.068 85.1912 121.555 85.7173C123.627 86.4526 125.491 87.8879 126.565 89.8264C129.148 94.4907 126.82 101.237 121.734 102.983Z" fill="#FAAFBD"/>
<path d="M122.587 98.1183C122.373 97.9797 122.096 98.0134 121.864 98.2064C121.455 98.5457 121.142 99.0726 120.864 99.5375C120.814 99.6218 120.765 99.7045 120.716 99.7834C120.602 99.9703 120.489 100.164 120.377 100.363C119.714 100.56 118.979 100.689 118.401 100.348C117.942 100.079 117.638 99.5222 117.589 98.8605C117.585 98.8015 117.583 98.7418 117.582 98.682C117.888 98.4277 118.163 98.1329 118.397 97.8081L118.446 97.74C118.678 97.4191 118.966 97.0185 119.058 96.6133C119.126 96.3054 119.028 96.0075 118.811 95.8727C118.621 95.7548 118.383 95.7854 118.171 95.9547C117.88 96.189 117.682 96.6332 117.593 96.971C117.466 97.4566 117.325 97.9965 117.312 98.5518C117.137 98.6889 116.952 98.8107 116.762 98.9179C116.472 99.0795 116.231 99.1645 116.004 99.1867C115.574 99.2289 115.094 99.045 114.577 98.6407C114.475 98.5618 114.376 98.4775 114.281 98.3902C114.346 97.2375 114.327 96.2082 113.792 95.332C113.625 95.057 113.439 94.9069 113.226 94.8725C112.868 94.815 112.56 95.116 112.479 95.4285C112.4 95.7371 112.485 96.0489 112.579 96.3131C112.872 97.1341 113.369 97.8962 114.002 98.5005C114 98.5465 113.997 98.5932 113.994 98.6391L113.751 102.359C113.693 103.248 113.634 104.16 113.535 105.063C113.616 105.129 113.7 105.191 113.788 105.249C113.898 104.289 113.961 103.321 114.023 102.376L114.259 98.7318C114.308 98.7739 114.359 98.8145 114.409 98.8543C114.981 99.3032 115.526 99.5054 116.028 99.4571C116.293 99.4311 116.568 99.3346 116.892 99.1546C117.039 99.0726 117.18 98.983 117.317 98.885C117.375 99.6333 117.727 100.268 118.261 100.582C118.848 100.928 119.544 100.862 120.195 100.694C120.023 101.016 119.852 101.357 119.68 101.721C119.159 102.824 118.708 103.977 118.272 105.09C118.198 105.278 118.126 105.466 118.051 105.652C118.185 105.577 118.315 105.495 118.439 105.406C118.468 105.334 118.495 105.262 118.524 105.19C118.959 104.079 119.408 102.93 119.925 101.835C120.137 101.389 120.347 100.975 120.56 100.59C120.572 100.586 120.586 100.581 120.599 100.578C121.529 100.287 122.517 99.8515 122.804 98.8214C122.885 98.5327 122.8 98.2554 122.587 98.1183ZM112.834 96.2243C112.753 95.9976 112.68 95.7364 112.74 95.4982C112.79 95.3036 112.984 95.1099 113.181 95.142C113.193 95.1443 113.204 95.1459 113.215 95.1482C113.333 95.1811 113.447 95.2891 113.56 95.4744C114.019 96.2281 114.067 97.1288 114.02 98.1382C113.499 97.5929 113.086 96.9312 112.834 96.2243ZM117.854 97.0407C117.929 96.7589 118.099 96.3598 118.341 96.1676C118.439 96.0879 118.534 96.0581 118.614 96.0803C118.632 96.0856 118.65 96.0933 118.665 96.1032C118.762 96.1622 118.842 96.33 118.792 96.5544C118.711 96.9067 118.454 97.2659 118.227 97.5814L118.176 97.6504C118.005 97.8885 117.81 98.1091 117.597 98.3067C117.639 97.8679 117.752 97.4359 117.854 97.0407ZM120.759 100.242C120.821 100.134 120.884 100.029 120.949 99.9251C120.996 99.8454 121.046 99.7619 121.096 99.6777C121.364 99.2312 121.663 98.7257 122.036 98.4155C122.149 98.3228 122.272 98.2868 122.372 98.3152C122.396 98.322 122.418 98.332 122.439 98.345C122.552 98.4185 122.592 98.574 122.543 98.7502C122.316 99.5712 121.542 99.9733 120.759 100.242Z" fill="white"/>
<path d="M112.19 89.3597C112.252 89.2525 112.327 89.1522 112.402 89.0534C112.42 89.0289 112.395 89.0618 112.414 89.0373C112.425 89.0235 112.435 89.0097 112.446 88.9959C112.468 88.9691 112.489 88.9423 112.511 88.9163C112.56 88.8565 112.611 88.7983 112.663 88.7409C112.792 88.5984 112.927 88.4621 113.068 88.3311C113.906 87.5576 114.939 87.0138 116.031 86.6982C116.938 86.4363 117.88 86.3306 118.823 86.3367C118.971 86.3375 118.971 86.1077 118.823 86.107C117.272 86.0962 115.707 86.3965 114.338 87.1448C113.56 87.5698 112.839 88.1374 112.285 88.8336C112.181 88.9638 112.076 89.0978 111.993 89.2433C111.919 89.372 112.117 89.4884 112.19 89.3597Z" fill="white"/>
<path d="M120.77 86.5467C120.683 86.8599 120.358 87.043 120.044 86.9557C119.731 86.8684 119.548 86.5436 119.635 86.2296C119.722 85.9163 120.047 85.7333 120.361 85.8206C120.675 85.9079 120.858 86.2334 120.77 86.5467Z" fill="white"/>
<g opacity="0.6">
<path opacity="0.8" d="M202.159 90.8018C202.498 90.7967 202.766 91.0913 202.733 91.4323L202.726 91.5038L202.093 97.868C202.064 98.1574 201.826 98.3793 201.537 98.3838L190.973 98.5479C190.634 98.553 190.365 98.2584 190.399 97.9173L190.967 92.1934C190.996 91.9039 191.235 91.682 191.523 91.6775L198.284 91.5725C198.514 91.5691 198.72 91.4255 198.803 91.2093C198.887 90.9931 199.093 90.8495 199.323 90.8461L202.159 90.8018Z" fill="#77C2D7"/>
<path d="M224.62 90.8016C224.959 90.7965 225.227 91.091 225.194 91.4321L225.187 91.5036L224.554 97.8677C224.525 98.1572 224.286 98.3791 223.998 98.3836L213.434 98.5476C213.094 98.5527 212.826 98.2582 212.86 97.9171L213.428 92.1931C213.457 91.9037 213.696 91.6818 213.984 91.6773L220.745 91.5723C220.975 91.5689 221.18 91.4253 221.264 91.2091C221.348 90.9928 221.554 90.8492 221.784 90.8458L224.62 90.8016Z" fill="#77C2D7"/>
<path d="M247.083 90.801C247.423 90.7959 247.691 91.0904 247.658 91.4315L247.65 91.503L247.018 97.8671C246.989 98.1566 246.75 98.3784 246.462 98.383L235.897 98.547C235.558 98.5521 235.29 98.2576 235.323 97.9165L235.892 92.1925C235.921 91.9031 236.16 91.6812 236.448 91.6766L243.208 91.5717C243.438 91.5683 243.643 91.4247 243.727 91.2084C243.811 90.9922 244.017 90.8486 244.247 90.8452L247.083 90.801Z" fill="#77C2D7"/>
</g>
<g opacity="0.6">
<path d="M202.157 110.586C202.497 110.581 202.765 110.876 202.732 111.217L202.724 111.288L202.092 117.652C202.063 117.942 201.824 118.164 201.536 118.168L190.972 118.332C190.632 118.337 190.364 118.043 190.397 117.702L190.966 111.978C190.995 111.688 191.234 111.466 191.522 111.462L198.282 111.357C198.513 111.353 198.718 111.21 198.802 110.994C198.886 110.777 199.092 110.634 199.322 110.63L202.157 110.586Z" fill="#FFF1CC"/>
<path d="M224.622 110.586C224.961 110.58 225.23 110.875 225.196 111.216L225.189 111.288L224.557 117.652C224.528 117.941 224.289 118.163 224 118.168L213.436 118.332C213.097 118.337 212.828 118.042 212.862 117.701L213.43 111.977C213.459 111.688 213.698 111.466 213.987 111.461L220.747 111.356C220.977 111.353 221.183 111.209 221.267 110.993C221.351 110.777 221.556 110.633 221.786 110.63L224.622 110.586Z" fill="#FAB1A5"/>
<path d="M247.083 110.586C247.423 110.58 247.691 110.875 247.658 111.216L247.65 111.288L247.018 117.652C246.989 117.941 246.75 118.163 246.462 118.168L235.898 118.332C235.558 118.337 235.29 118.042 235.323 117.701L235.892 111.977C235.921 111.688 236.16 111.466 236.448 111.461L243.208 111.356C243.438 111.353 243.644 111.209 243.728 110.993C243.812 110.777 244.017 110.633 244.248 110.63L247.083 110.586Z" fill="#B2ECFC"/>
</g>
<path d="M92.9961 125.757C93.6671 125.404 94.5616 125.662 94.9941 126.333L102.825 138.474C103.257 139.145 103.064 139.974 102.393 140.327L96.3382 143.952L98.3126 146.991C98.42 147.157 98.4542 147.353 98.4073 147.531C98.3127 147.89 97.9217 148.082 97.5339 147.96L92.1017 146.533L83.8638 150.067C83.1928 150.42 82.2982 150.163 81.8658 149.492L74.0352 137.351C73.6027 136.68 73.7961 135.85 74.4671 135.498L92.9961 125.757Z" fill="#FAAFBD"/>
<path d="M86.9654 135.961C86.3915 135.071 86.7423 133.921 87.7488 133.392C88.7554 132.863 90.001 133.1 90.9567 134.582C91.5939 135.57 91.4179 137.819 90.4289 141.331C86.5579 140.374 84.3038 139.402 83.6667 138.414C82.711 136.932 83.0972 135.837 84.1038 135.308C85.1103 134.779 86.3915 135.071 86.9654 135.961Z" fill="white"/>
<path d="M227.114 166.823C227.08 166.829 227.045 166.829 227.011 166.823L222.048 165.337C221.956 165.309 221.878 165.246 221.832 165.16C221.786 165.075 221.776 164.975 221.803 164.882C221.83 164.789 221.893 164.71 221.978 164.664C222.063 164.618 222.162 164.607 222.255 164.635L226.574 165.931L225.288 161.564C225.26 161.471 225.27 161.37 225.316 161.285C225.361 161.199 225.439 161.135 225.531 161.107C225.624 161.079 225.723 161.09 225.808 161.136C225.893 161.182 225.956 161.26 225.984 161.353L227.46 166.353C227.476 166.408 227.479 166.466 227.469 166.522C227.459 166.578 227.436 166.631 227.402 166.676C227.369 166.722 227.325 166.759 227.274 166.784C227.224 166.81 227.168 166.823 227.111 166.823H227.114Z" fill="#618298"/>
<path d="M222.151 165.334C222.103 165.334 222.055 165.324 222.01 165.305C221.966 165.286 221.925 165.259 221.892 165.224L209.342 152.318C209.275 152.248 209.237 152.155 209.238 152.057C209.239 151.96 209.278 151.867 209.347 151.799C209.416 151.731 209.508 151.693 209.605 151.694C209.702 151.694 209.794 151.734 209.862 151.803L222.154 164.448L225.123 161.457L212.827 148.806C212.793 148.772 212.767 148.732 212.748 148.688C212.73 148.643 212.721 148.596 212.721 148.548C212.721 148.5 212.73 148.452 212.748 148.408C212.767 148.363 212.793 148.323 212.827 148.289C212.896 148.22 212.988 148.182 213.085 148.182C213.182 148.182 213.275 148.22 213.343 148.289L225.896 161.201C225.963 161.27 226.001 161.363 226.001 161.46C226.001 161.557 225.963 161.649 225.896 161.718L222.408 165.227C222.374 165.261 222.334 165.288 222.29 165.306C222.246 165.324 222.199 165.334 222.151 165.334Z" fill="#618298"/>
<path d="M223.712 163.443C223.616 163.443 223.524 163.404 223.456 163.336L211.098 150.882C211.056 150.851 211.02 150.811 210.995 150.765C210.969 150.72 210.953 150.669 210.949 150.616C210.944 150.564 210.951 150.511 210.968 150.462C210.986 150.412 211.014 150.367 211.051 150.329C211.087 150.292 211.131 150.262 211.18 150.244C211.229 150.225 211.281 150.217 211.333 150.22C211.385 150.223 211.436 150.238 211.482 150.263C211.528 150.288 211.568 150.322 211.6 150.364L223.969 162.815C224.037 162.885 224.076 162.978 224.076 163.076C224.076 163.173 224.037 163.267 223.969 163.336C223.935 163.37 223.895 163.397 223.851 163.415C223.807 163.434 223.76 163.443 223.712 163.443Z" fill="#618298"/>
<path d="M227.604 166.639C229.26 165.658 230.995 164.819 232.621 163.797C233.437 163.293 234.213 162.724 234.94 162.096C235.301 161.781 235.642 161.444 235.964 161.088C236.322 160.754 236.609 160.349 236.805 159.899C236.874 159.707 236.881 159.497 236.822 159.3C236.764 159.104 236.644 158.933 236.48 158.811C236.33 158.735 236.167 158.69 236 158.679C235.833 158.667 235.665 158.69 235.506 158.745C234.621 158.983 233.795 159.616 233.113 160.205C232.355 160.859 231.588 161.692 231.204 162.616C230.909 163.345 230.956 164.302 231.585 164.846C232.653 165.765 234.485 164.935 235.459 164.251L234.999 163.645C234.857 163.778 234.752 163.946 234.694 164.133C234.637 164.32 234.629 164.519 234.671 164.709C234.75 164.885 234.891 165.025 235.066 165.103C235.242 165.181 235.439 165.191 235.621 165.131C236.344 164.98 236.893 164.18 237.649 164.192L237.454 163.473C237.159 163.645 237.094 164.189 237.047 164.492C237.022 164.591 237.035 164.695 237.085 164.784C237.134 164.872 237.216 164.938 237.312 164.968C237.849 165.084 238.408 165.045 238.923 164.855C239.181 164.77 239.435 164.671 239.682 164.558C239.906 164.457 240.124 164.305 240.354 164.219L239.983 163.574C239.567 163.984 239.021 164.959 239.903 165.191C240.551 165.311 241.219 165.264 241.845 165.054C243.066 164.721 244.326 164.008 245.607 164.489C246.07 164.662 246.271 163.916 245.81 163.743C244.748 163.345 243.665 163.645 242.635 163.993C242.127 164.182 241.605 164.332 241.074 164.439C240.817 164.482 240.555 164.493 240.295 164.471C240.245 164.459 240.194 164.453 240.142 164.454C240.053 164.427 240.065 164.483 240.18 164.623L240.222 164.537C240.312 164.396 240.41 164.261 240.517 164.133C240.776 163.874 240.517 163.348 240.145 163.484C239.319 163.782 238.448 164.483 237.51 164.231L237.778 164.703C237.799 164.584 237.832 164.466 237.864 164.347C237.882 164.268 237.903 164.191 237.929 164.115C237.982 163.933 237.985 164.049 237.834 164.144C237.905 164.1 237.959 164.034 237.989 163.957C238.02 163.879 238.024 163.794 238.003 163.713C237.981 163.633 237.935 163.561 237.87 163.509C237.805 163.457 237.725 163.428 237.643 163.425C237.134 163.461 236.648 163.647 236.244 163.96C236.048 164.097 235.842 164.219 235.627 164.326C235.557 164.356 235.365 164.391 235.371 164.412C235.377 164.433 235.418 164.35 235.43 164.335C235.46 164.279 235.494 164.227 235.533 164.177C235.796 163.88 235.45 163.3 235.07 163.583C234.674 163.858 234.243 164.079 233.789 164.24C233.352 164.43 232.869 164.489 232.399 164.409C231.886 164.272 231.715 163.693 231.809 163.22C231.986 162.384 232.694 161.644 233.284 161.076C233.906 160.459 234.63 159.956 235.424 159.59C235.612 159.48 235.831 159.436 236.046 159.465C236.108 159.489 236.046 159.465 236.046 159.465C236.067 159.525 236.067 159.589 236.046 159.649C235.973 159.852 235.856 160.037 235.704 160.19C234.657 161.41 233.417 162.445 232.033 163.255C230.464 164.222 228.788 165.039 227.218 165.973C227.137 166.028 227.08 166.112 227.058 166.207C227.036 166.303 227.051 166.404 227.101 166.489C227.15 166.574 227.229 166.636 227.323 166.664C227.417 166.692 227.517 166.683 227.604 166.639Z" fill="#618298"/>
<path d="M247.846 164.834C247.948 164.834 248.046 164.794 248.117 164.721C248.189 164.649 248.23 164.55 248.23 164.448C248.23 164.345 248.189 164.247 248.117 164.174C248.046 164.102 247.948 164.061 247.846 164.061C247.745 164.061 247.647 164.102 247.575 164.174C247.503 164.247 247.463 164.345 247.463 164.448C247.463 164.55 247.503 164.649 247.575 164.721C247.647 164.794 247.745 164.834 247.846 164.834Z" fill="#618298"/>
<path d="M143.424 25.9848L131 18.2235C131 18.2235 126.057 28.0917 116.393 32.2571L127.024 41.2434C127.024 41.2434 139.501 37.0887 143.424 25.9848Z" fill="#FAB1A5"/>
<path opacity="0.517119" d="M122.436 31.6248L121.467 32.2103L129.37 38.0724L130.552 37.5046L122.436 31.6248Z" fill="white"/>
<path opacity="0.517119" d="M129.308 24.2747L138.631 29.5683L137.998 30.471L128.718 25.1903L129.308 24.2747Z" fill="white"/>
<path opacity="0.517119" d="M132.388 29.3561L137.073 31.954L136.441 32.8567L131.798 30.2718L132.388 29.3561Z" fill="white"/>
<path opacity="0.517119" d="M128.007 26.0841L131.035 28.1389C130.955 28.3124 130.851 28.5099 130.724 28.7312C130.139 29.7431 129.313 30.6258 128.307 31.3163C127.897 31.5975 127.552 31.8426 127.272 32.0515L124.157 29.8534C124.309 29.772 124.477 29.6793 124.663 29.5752C125.961 28.8454 127.019 27.8159 127.729 26.5929C127.835 26.4093 127.928 26.2396 128.007 26.0841Z" fill="white"/>
<path opacity="0.517119" d="M130.653 31.2284L134.849 34.2331C134.366 34.884 133.826 35.434 133.229 35.8832C132.633 36.3324 132.004 36.6622 131.343 36.8726L127.087 33.9257C127.984 33.4473 128.692 33.0097 129.211 32.6131C129.73 32.2165 130.211 31.7549 130.653 31.2284Z" fill="white"/>
<g clip-path="url(#clip0_24_4597)">
<g clip-path="url(#clip1_24_4597)">
<path d="M153.426 58.6721H149.781C149.735 58.6753 149.689 58.669 149.646 58.6536C149.603 58.6383 149.563 58.6142 149.529 58.5829C149.496 58.5516 149.469 58.5137 149.451 58.4717C149.432 58.4296 149.423 58.3842 149.423 58.3383C149.423 58.2925 149.432 58.2471 149.451 58.205C149.469 58.163 149.496 58.1251 149.529 58.0938C149.563 58.0625 149.603 58.0384 149.646 58.0231C149.689 58.0077 149.735 58.0014 149.781 58.0046H153.426C153.511 58.0104 153.59 58.0481 153.648 58.11C153.706 58.172 153.738 58.2536 153.738 58.3383C153.738 58.4231 153.706 58.5047 153.648 58.5667C153.59 58.6286 153.511 58.6663 153.426 58.6721Z" fill="#8EDEF4"/>
<path d="M164.936 77.1611H146.626C146.538 77.1611 146.453 77.126 146.39 77.0636C146.328 77.0011 146.292 76.9164 146.292 76.8281V50.6505C146.292 50.6066 146.301 50.5632 146.317 50.5226C146.334 50.482 146.359 50.4451 146.39 50.414C146.421 50.3829 146.457 50.3582 146.498 50.3414C146.539 50.3246 146.582 50.3159 146.626 50.3159H164.936C165.025 50.3159 165.11 50.3512 165.173 50.4139C165.236 50.4767 165.271 50.5617 165.271 50.6505V76.8281C165.271 76.872 165.262 76.9154 165.245 76.9559C165.229 76.9964 165.204 77.0332 165.173 77.0641C165.142 77.0951 165.105 77.1196 165.064 77.1362C165.023 77.1528 164.98 77.1613 164.936 77.1611ZM146.961 76.4935H164.602V50.9835H146.961V76.4935Z" fill="#8EDEF4"/>
<path d="M161.782 64.0095H149.781C149.693 64.0095 149.608 63.9744 149.545 63.912C149.483 63.8495 149.448 63.7648 149.448 63.6765C149.448 63.5882 149.483 63.5035 149.545 63.441C149.608 63.3786 149.693 63.3435 149.781 63.3435H161.782C161.871 63.3435 161.956 63.3786 162.018 63.441C162.081 63.5035 162.116 63.5882 162.116 63.6765C162.116 63.7648 162.081 63.8495 162.018 63.912C161.956 63.9744 161.871 64.0095 161.782 64.0095Z" fill="#8EDEF4"/>
<path d="M161.782 66.8901H149.781C149.735 66.8933 149.689 66.887 149.646 66.8716C149.603 66.8563 149.563 66.8322 149.529 66.8009C149.496 66.7696 149.469 66.7317 149.451 66.6897C149.432 66.6476 149.423 66.6022 149.423 66.5564C149.423 66.5105 149.432 66.4651 149.451 66.4231C149.469 66.381 149.496 66.3431 149.529 66.3118C149.563 66.2805 149.603 66.2565 149.646 66.2411C149.689 66.2257 149.735 66.2194 149.781 66.2226H161.782C161.867 66.2284 161.946 66.2661 162.004 66.328C162.062 66.39 162.094 66.4716 162.094 66.5564C162.094 66.6411 162.062 66.7227 162.004 66.7847C161.946 66.8467 161.867 66.8843 161.782 66.8901Z" fill="#8EDEF4"/>
<path d="M161.782 69.7694H149.781C149.693 69.7694 149.608 69.7343 149.545 69.6718C149.483 69.6094 149.448 69.5247 149.448 69.4364C149.448 69.3481 149.483 69.2634 149.545 69.2009C149.608 69.1385 149.693 69.1034 149.781 69.1034H161.782C161.871 69.1034 161.956 69.1385 162.018 69.2009C162.081 69.2634 162.116 69.3481 162.116 69.4364C162.116 69.5247 162.081 69.6094 162.018 69.6718C161.956 69.7343 161.871 69.7694 161.782 69.7694Z" fill="#8EDEF4"/>
<path d="M170.684 59.3554H157.42C157.376 59.3554 157.332 59.3467 157.292 59.3299C157.251 59.3131 157.214 59.2884 157.183 59.2573C157.152 59.2262 157.128 59.1893 157.111 59.1487C157.094 59.1082 157.086 59.0647 157.086 59.0208V45.7796C157.086 45.6913 157.121 45.6066 157.184 45.5442C157.246 45.4817 157.331 45.4467 157.42 45.4467H170.684C170.773 45.4467 170.858 45.4817 170.92 45.5442C170.983 45.6066 171.018 45.6913 171.018 45.7796V59.0208C171.018 59.0647 171.01 59.1082 170.993 59.1487C170.976 59.1893 170.952 59.2262 170.921 59.2573C170.89 59.2884 170.853 59.3131 170.812 59.3299C170.772 59.3467 170.728 59.3554 170.684 59.3554ZM157.755 58.6878H170.345V46.1221H157.755V58.6878Z" fill="#8EDEF4"/>
<path d="M170.738 47.2075C171.671 47.2075 172.428 46.4523 172.428 45.5206C172.428 44.5889 171.671 43.8336 170.738 43.8336C169.805 43.8336 169.048 44.5889 169.048 45.5206C169.048 46.4523 169.805 47.2075 170.738 47.2075Z" fill="#8EDEF4"/>
<path d="M157.42 47.2075C158.353 47.2075 159.11 46.4523 159.11 45.5206C159.11 44.5889 158.353 43.8336 157.42 43.8336C156.486 43.8336 155.73 44.5889 155.73 45.5206C155.73 46.4523 156.486 47.2075 157.42 47.2075Z" fill="#8EDEF4"/>
<path d="M170.738 60.356C171.671 60.356 172.428 59.6007 172.428 58.669C172.428 57.7373 171.671 56.9821 170.738 56.9821C169.805 56.9821 169.048 57.7373 169.048 58.669C169.048 59.6007 169.805 60.356 170.738 60.356Z" fill="#8EDEF4"/>
<path d="M157.42 60.356C158.353 60.356 159.11 59.6007 159.11 58.669C159.11 57.7373 158.353 56.9821 157.42 56.9821C156.486 56.9821 155.73 57.7373 155.73 58.669C155.73 59.6007 156.486 60.356 157.42 60.356Z" fill="#8EDEF4"/>
<path d="M161.782 72.8086H149.781C149.735 72.8117 149.689 72.8054 149.646 72.7901C149.603 72.7747 149.563 72.7507 149.529 72.7194C149.496 72.6881 149.469 72.6502 149.451 72.6081C149.432 72.5661 149.423 72.5207 149.423 72.4748C149.423 72.429 149.432 72.3836 149.451 72.3415C149.469 72.2994 149.496 72.2616 149.529 72.2303C149.563 72.199 149.603 72.1749 149.646 72.1596C149.689 72.1442 149.735 72.1379 149.781 72.141H161.782C161.867 72.1468 161.946 72.1845 162.004 72.2465C162.062 72.3084 162.094 72.3901 162.094 72.4748C162.094 72.5596 162.062 72.6412 162.004 72.7032C161.946 72.7651 161.867 72.8028 161.782 72.8086Z" fill="#8EDEF4"/>
</g>
</g>
</g>
<defs>
<filter id="filter0_dd_24_4597" x="89.6686" y="-226.102" width="387.272" height="259.606" filterUnits="userSpaceOnUse" color-interpolation-filters="sRGB">
<feFlood flood-opacity="0" result="BackgroundImageFix"/>
<feColorMatrix in="SourceAlpha" type="matrix" values="0 0 0 0 0 0 0 0 0 0 0 0 0 0 0 0 0 0 127 0" result="hardAlpha"/>
<feMorphology radius="0.981196" operator="erode" in="SourceAlpha" result="effect1_dropShadow_24_4597"/>
<feOffset dy="0.981196"/>
<feGaussianBlur stdDeviation="0.981196"/>
<feColorMatrix type="matrix" values="0 0 0 0 0.0470588 0 0 0 0 0.352941 0 0 0 0 0.439216 0 0 0 0.08 0"/>
<feBlend mode="normal" in2="BackgroundImageFix" result="effect1_dropShadow_24_4597"/>
<feColorMatrix in="SourceAlpha" type="matrix" values="0 0 0 0 0 0 0 0 0 0 0 0 0 0 0 0 0 0 127 0" result="hardAlpha"/>
<feMorphology radius="0.981196" operator="erode" in="SourceAlpha" result="effect2_dropShadow_24_4597"/>
<feOffset dy="0.981196"/>
<feGaussianBlur stdDeviation="0.981196"/>
<feColorMatrix type="matrix" values="0 0 0 0 0.0470588 0 0 0 0 0.352941 0 0 0 0 0.439216 0 0 0 0.12 0"/>
<feBlend mode="normal" in2="effect1_dropShadow_24_4597" result="effect2_dropShadow_24_4597"/>
<feBlend mode="normal" in="SourceGraphic" in2="effect2_dropShadow_24_4597" result="shape"/>
</filter>
<filter id="filter1_dd_24_4597" x="58.0951" y="-176.782" width="298.164" height="195.333" filterUnits="userSpaceOnUse" color-interpolation-filters="sRGB">
<feFlood flood-opacity="0" result="BackgroundImageFix"/>
<feColorMatrix in="SourceAlpha" type="matrix" values="0 0 0 0 0 0 0 0 0 0 0 0 0 0 0 0 0 0 127 0" result="hardAlpha"/>
<feMorphology radius="0.981196" operator="erode" in="SourceAlpha" result="effect1_dropShadow_24_4597"/>
<feOffset dy="0.981196"/>
<feGaussianBlur stdDeviation="0.981196"/>
<feColorMatrix type="matrix" values="0 0 0 0 0.0470588 0 0 0 0 0.352941 0 0 0 0 0.439216 0 0 0 0.08 0"/>
<feBlend mode="normal" in2="BackgroundImageFix" result="effect1_dropShadow_24_4597"/>
<feColorMatrix in="SourceAlpha" type="matrix" values="0 0 0 0 0 0 0 0 0 0 0 0 0 0 0 0 0 0 127 0" result="hardAlpha"/>
<feMorphology radius="0.981196" operator="erode" in="SourceAlpha" result="effect2_dropShadow_24_4597"/>
<feOffset dy="0.981196"/>
<feGaussianBlur stdDeviation="0.981196"/>
<feColorMatrix type="matrix" values="0 0 0 0 0.0470588 0 0 0 0 0.352941 0 0 0 0 0.439216 0 0 0 0.12 0"/>
<feBlend mode="normal" in2="effect1_dropShadow_24_4597" result="effect2_dropShadow_24_4597"/>
<feBlend mode="normal" in="SourceGraphic" in2="effect2_dropShadow_24_4597" result="shape"/>
</filter>
<filter id="filter2_ddd_24_4597" x="-323.575" y="114.897" width="564.371" height="306.205" filterUnits="userSpaceOnUse" color-interpolation-filters="sRGB">
<feFlood flood-opacity="0" result="BackgroundImageFix"/>
<feColorMatrix in="SourceAlpha" type="matrix" values="0 0 0 0 0 0 0 0 0 0 0 0 0 0 0 0 0 0 127 0" result="hardAlpha"/>
<feOffset dx="4.62697" dy="0.958337"/>
<feGaussianBlur stdDeviation="2.68289"/>
<feColorMatrix type="matrix" values="0 0 0 0 0.458824 0 0 0 0 0.027451 0 0 0 0 0.027451 0 0 0 0.0379688 0"/>
<feBlend mode="normal" in2="BackgroundImageFix" result="effect1_dropShadow_24_4597"/>
<feColorMatrix in="SourceAlpha" type="matrix" values="0 0 0 0 0 0 0 0 0 0 0 0 0 0 0 0 0 0 127 0" result="hardAlpha"/>
<feOffset dx="8.7741" dy="1.81729"/>
<feGaussianBlur stdDeviation="4.50942"/>
<feColorMatrix type="matrix" values="0 0 0 0 0.458824 0 0 0 0 0.027451 0 0 0 0 0.027451 0 0 0 0.045 0"/>
<feBlend mode="normal" in2="effect1_dropShadow_24_4597" result="effect2_dropShadow_24_4597"/>
<feColorMatrix in="SourceAlpha" type="matrix" values="0 0 0 0 0 0 0 0 0 0 0 0 0 0 0 0 0 0 127 0" result="hardAlpha"/>
<feOffset dx="14.5664" dy="3.01699"/>
<feGaussianBlur stdDeviation="7.50666"/>
<feColorMatrix type="matrix" values="0 0 0 0 0.458824 0 0 0 0 0.027451 0 0 0 0 0.027451 0 0 0 0.0520312 0"/>
<feBlend mode="normal" in2="effect2_dropShadow_24_4597" result="effect3_dropShadow_24_4597"/>
<feBlend mode="normal" in="SourceGraphic" in2="effect3_dropShadow_24_4597" result="shape"/>
</filter>
<filter id="filter3_dddddd_24_4597" x="-478.771" y="74.1466" width="692.373" height="338.139" filterUnits="userSpaceOnUse" color-interpolation-filters="sRGB">
<feFlood flood-opacity="0" result="BackgroundImageFix"/>
<feColorMatrix in="SourceAlpha" type="matrix" values="0 0 0 0 0 0 0 0 0 0 0 0 0 0 0 0 0 0 127 0" result="hardAlpha"/>
<feOffset dx="4.62697" dy="0.958337"/>
<feGaussianBlur stdDeviation="2.68289"/>
<feColorMatrix type="matrix" values="0 0 0 0 0.458824 0 0 0 0 0.027451 0 0 0 0 0.027451 0 0 0 0.0379688 0"/>
<feBlend mode="normal" in2="BackgroundImageFix" result="effect1_dropShadow_24_4597"/>
<feColorMatrix in="SourceAlpha" type="matrix" values="0 0 0 0 0 0 0 0 0 0 0 0 0 0 0 0 0 0 127 0" result="hardAlpha"/>
<feOffset dx="8.7741" dy="1.81729"/>
<feGaussianBlur stdDeviation="4.50942"/>
<feColorMatrix type="matrix" values="0 0 0 0 0.458824 0 0 0 0 0.027451 0 0 0 0 0.027451 0 0 0 0.045 0"/>
<feBlend mode="normal" in2="effect1_dropShadow_24_4597" result="effect2_dropShadow_24_4597"/>
<feColorMatrix in="SourceAlpha" type="matrix" values="0 0 0 0 0 0 0 0 0 0 0 0 0 0 0 0 0 0 127 0" result="hardAlpha"/>
<feOffset dx="14.5664" dy="3.01699"/>
<feGaussianBlur stdDeviation="7.50666"/>
<feColorMatrix type="matrix" values="0 0 0 0 0.458824 0 0 0 0 0.027451 0 0 0 0 0.027451 0 0 0 0.0520312 0"/>
<feBlend mode="normal" in2="effect2_dropShadow_24_4597" result="effect3_dropShadow_24_4597"/>
<feColorMatrix in="SourceAlpha" type="matrix" values="0 0 0 0 0 0 0 0 0 0 0 0 0 0 0 0 0 0 127 0" result="hardAlpha"/>
<feOffset dx="22.2094" dy="4.60002"/>
<feGaussianBlur stdDeviation="12.0974"/>
<feColorMatrix type="matrix" values="0 0 0 0 0.458824 0 0 0 0 0.027451 0 0 0 0 0.027451 0 0 0 0.06075 0"/>
<feBlend mode="normal" in2="effect3_dropShadow_24_4597" result="effect4_dropShadow_24_4597"/>
<feColorMatrix in="SourceAlpha" type="matrix" values="0 0 0 0 0 0 0 0 0 0 0 0 0 0 0 0 0 0 127 0" result="hardAlpha"/>
<feOffset dx="31.9089" dy="6.60897"/>
<feGaussianBlur stdDeviation="18.7043"/>
<feColorMatrix type="matrix" values="0 0 0 0 0.458824 0 0 0 0 0.027451 0 0 0 0 0.027451 0 0 0 0.0728438 0"/>
<feBlend mode="normal" in2="effect4_dropShadow_24_4597" result="effect5_dropShadow_24_4597"/>
<feColorMatrix in="SourceAlpha" type="matrix" values="0 0 0 0 0 0 0 0 0 0 0 0 0 0 0 0 0 0 127 0" result="hardAlpha"/>
<feOffset dx="43.8705" dy="9.08645"/>
<feGaussianBlur stdDeviation="27.7503"/>
<feColorMatrix type="matrix" values="0 0 0 0 0.458824 0 0 0 0 0.027451 0 0 0 0 0.027451 0 0 0 0.09 0"/>
<feBlend mode="normal" in2="effect5_dropShadow_24_4597" result="effect6_dropShadow_24_4597"/>
<feBlend mode="normal" in="SourceGraphic" in2="effect6_dropShadow_24_4597" result="shape"/>
</filter>
<linearGradient id="paint0_linear_24_4597" x1="224.032" y1="9.81135" x2="233.657" y2="91.4096" gradientUnits="userSpaceOnUse">
<stop stop-color="#99DAEC"/>
<stop offset="0.572917" stop-color="#EBF5F9" stop-opacity="0"/>
</linearGradient>
<linearGradient id="paint1_linear_24_4597" x1="253.037" y1="25.3142" x2="248.964" y2="80.409" gradientUnits="userSpaceOnUse">
<stop stop-color="#99DAEC"/>
<stop offset="0.572917" stop-color="#EBF5F9" stop-opacity="0"/>
</linearGradient>
<linearGradient id="paint2_linear_24_4597" x1="104.118" y1="115.754" x2="111.751" y2="121.096" gradientUnits="userSpaceOnUse">
<stop stop-color="#F9B776"/>
<stop offset="0.632873" stop-color="#F47960"/>
</linearGradient>
<linearGradient id="paint3_linear_24_4597" x1="142.409" y1="91.9163" x2="144.562" y2="96.9135" gradientUnits="userSpaceOnUse">
<stop stop-color="#F9B776"/>
<stop offset="0.632873" stop-color="#F47960"/>
</linearGradient>
<linearGradient id="paint4_linear_24_4597" x1="109.1" y1="175.742" x2="119.926" y2="183.688" gradientUnits="userSpaceOnUse">
<stop stop-color="#F9B776"/>
<stop offset="0.632873" stop-color="#F47960"/>
</linearGradient>
<linearGradient id="paint5_linear_24_4597" x1="139.452" y1="130.144" x2="141.401" y2="127.268" gradientUnits="userSpaceOnUse">
<stop stop-color="#F9B776"/>
<stop offset="0.256261" stop-color="#F79E6D"/>
<stop offset="1" stop-color="#F47960"/>
</linearGradient>
<linearGradient id="paint6_linear_24_4597" x1="139.787" y1="126.396" x2="143.565" y2="129.078" gradientUnits="userSpaceOnUse">
<stop stop-color="#F9B776"/>
<stop offset="0.632873" stop-color="#F47960"/>
</linearGradient>
<clipPath id="clip0_24_4597">
<rect width="28.9423" height="34.7308" fill="white" transform="translate(144.889 43.132)"/>
</clipPath>
<clipPath id="clip1_24_4597">
<rect width="26.1358" height="33.3275" fill="white" transform="translate(146.292 43.8336)"/>
</clipPath>
</defs>
</svg>
