<svg width="328" height="180" viewBox="0 0 328 180" fill="none" xmlns="http://www.w3.org/2000/svg">
<mask id="mask0_920_18721" style="mask-type:alpha" maskUnits="userSpaceOnUse" x="0" y="0" width="328" height="180">
<path d="M0 0H328V180H0V0Z" fill="#FCF0EE"/>
</mask>
<g mask="url(#mask0_920_18721)">
<path d="M-17.8726 0H345.873V221.796H-17.8726V0Z" fill="#FCF0EE"/>
<path opacity="0.5" fill-rule="evenodd" clip-rule="evenodd" d="M72.866 137.983C72.866 139.282 72.9671 140.579 73.1674 141.863H254.507C255.517 138.548 256.029 135.104 256.026 131.643C256.026 112.082 239.947 96.2259 220.105 96.2259C219.573 96.2259 219.044 96.2374 218.52 96.2603C216.53 96.3417 214.565 95.8033 212.903 94.7212C211.241 93.6391 209.967 92.0686 209.262 90.2324C203.688 75.8736 189.579 65.6743 173.057 65.6743C166.485 65.6707 160.021 67.3159 154.272 70.4552C148.524 73.5946 143.68 78.1246 140.197 83.6189C139.212 85.1899 137.775 86.4363 136.069 87.1994C134.363 87.9624 132.465 88.2076 130.617 87.9036C122.993 86.6014 115.147 88.005 108.472 91.8651C101.797 95.7253 96.7253 101.792 94.1579 108.989C93.7155 110.241 93.0083 111.387 92.0851 112.35C91.162 113.314 90.042 114.074 88.7984 114.581C84.0868 116.482 80.0562 119.723 77.2188 123.891C74.3814 128.058 72.866 132.964 72.866 137.983Z" fill="white"/>
<path d="M132.808 159.837L84.306 298.895" stroke="#102D42" stroke-width="1.98036"/>
<path d="M97.459 159.837L48.9569 298.895" stroke="#102D42" stroke-width="1.98036"/>
<path d="M130.04 168.025H94.2047" stroke="#1D2026" stroke-width="1.98036"/>
<path d="M115.822 159.828C115.822 159.828 122.928 162.855 124.507 165.782C126.085 168.708 125.809 171.683 123.823 173.544C122.861 174.443 113.14 174.362 113.14 174.362L110.771 164.277L115.822 159.828Z" fill="url(#paint0_linear_920_18721)"/>
<path d="M129.776 168.025H120.372" stroke="#102D42" stroke-width="1.98036"/>
<path d="M106.345 162.051L117.62 172.908C119.462 174.681 120.617 177.048 120.883 179.591C121.148 182.134 120.507 184.688 119.071 186.804L95.9793 224.367L80.5632 216.092L98.2743 184.745L83.4401 175.476L73.9082 253.797L60.0967 256.452L59.5213 166.876C59.4778 161.77 60.4354 156.706 62.3439 151.97L64.9972 145.376L91.7865 144.711L106.345 162.051Z" fill="#035970"/>
<path d="M138.903 112.75C139.003 112.75 142.811 113.799 142.855 112.11C142.898 110.421 138.48 109.47 136.208 109.344C133.937 109.218 131.364 109.537 130.507 107.984C129.163 105.553 131.197 103.809 131.497 101.905C131.796 100.001 131.332 98.8976 130.129 98.9649C128.926 99.0323 128.859 103.114 126.338 104.745C123.687 106.46 121.778 109.754 121.778 109.754L114.895 114.244C114.895 114.244 119.839 121.247 120.041 121.279C120.243 121.312 125.786 116.702 125.786 116.702C125.786 116.702 126.22 118.14 133.301 119.976" fill="url(#paint1_linear_920_18721)"/>
<path d="M89.774 124.653L87.0686 142.796C86.7929 144.635 87.0209 146.513 87.7265 148.233C88.4322 149.953 89.5873 151.451 91.0746 152.567L110.888 167.453L118.552 159.971L103.57 142.308C103.57 142.308 110.883 118.232 98.1639 111.593C86.6452 105.578 81.293 110.207 78.0991 114.965C75.6064 118.673 73.2115 127.237 71.2986 131.512C69.3857 135.787 64.9715 145.391 64.9715 145.391L90.4754 147.345" fill="#DA6668"/>
<path d="M107.545 130.709C103.948 130.709 101.031 127.792 101.031 124.195C101.031 120.597 103.948 117.681 107.545 117.681C111.143 117.681 114.059 120.597 114.059 124.195C114.059 127.792 111.143 130.709 107.545 130.709Z" fill="#EF6E45"/>
<path d="M116.959 108.561L124.264 120.92L99.7238 140.34L96.7405 120.653L116.959 108.561Z" fill="#DA6668"/>
<path d="M95.3124 89.4066C93.052 88.7661 90.7022 90.0394 89.9926 92.2607L89.9504 92.4008L85.1866 109.213C84.5328 111.521 85.8733 113.921 88.1808 114.575C90.4412 115.215 92.791 113.942 93.5006 111.721L93.5428 111.581L98.3066 94.7685C98.9604 92.461 97.6198 90.0604 95.3124 89.4066Z" fill="url(#paint2_linear_920_18721)"/>
<path d="M91.3595 106.627L92.465 106.914C93.753 107.245 95.1026 107.308 96.4201 107.099C97.7376 106.89 98.9872 106.413 100.084 105.703C101.18 104.993 102.094 104.067 102.762 102.991C103.43 101.914 103.834 100.715 103.947 99.4764L104.505 93.3418C104.685 91.3611 104.109 89.385 102.879 87.76C101.648 86.1352 99.841 84.9654 97.7751 84.4568C96.6214 84.1723 95.4166 84.1021 94.2333 84.2501C93.05 84.3984 91.9096 84.7618 90.8792 85.3198C89.8462 85.8779 88.942 86.6196 88.2175 87.5029C87.493 88.3859 86.9644 89.393 86.6585 90.4667L84.9949 96.3143C84.3832 98.4664 84.7078 100.757 85.8992 102.688C87.0905 104.618 89.052 106.034 91.3595 106.627Z" fill="url(#paint3_linear_920_18721)"/>
<g filter="url(#filter0_i_920_18721)">
<path fill-rule="evenodd" clip-rule="evenodd" d="M55.1342 96.5262C54.1485 108.177 65.476 109.165 65.476 109.165C65.476 109.165 59.2075 121.952 73.2362 120.89C87.2649 119.828 91.0928 109.817 90.55 104.091C90.3329 101.811 89.1517 100.044 87.8164 98.3393C95.5049 97.1516 95.3876 91.8558 95.3876 91.8558C95.3876 91.8558 107.714 96.6652 107.614 87.1789C107.514 77.6925 97.7913 74.6527 92.046 74.7526C90.8345 74.778 89.6359 74.9867 88.4873 75.3714C84.7961 76.5808 81.9235 78.7673 77.0142 78.8455C63.4524 79.0626 62.1496 86.712 62.1496 86.712C62.1496 86.712 55.803 88.6423 55.1342 96.5262Z" fill="#035970"/>
</g>
<path d="M44.4211 73.0499C44.6961 72.6201 45.305 72.4729 45.7812 72.721L54.4037 77.2135C54.8799 77.4616 55.0431 78.0112 54.7682 78.4409L52.4348 82.5771L54.6013 83.6966C54.7196 83.7583 54.8046 83.861 54.8365 83.9808C54.9007 84.2221 54.736 84.4646 54.4686 84.5225L50.8169 85.4973L47.1764 90.3074C46.9014 90.7371 46.2925 90.8844 45.8163 90.6363L37.1938 86.1437C36.7176 85.8956 36.5544 85.3461 36.8294 84.9164L44.4211 73.0499Z" fill="#F2385A"/>
<path d="M44.2936 81.0249C43.6618 80.6957 43.4838 79.9062 43.8962 79.2616C44.3086 78.617 45.1161 78.3409 46.1685 78.8892C46.8701 79.2548 47.5164 80.629 48.1075 83.012C45.5251 83.7415 43.8831 83.9236 43.1816 83.558C42.1292 83.0097 41.9904 82.2406 42.4028 81.596C42.8152 80.9514 43.6618 80.6957 44.2936 81.0249Z" fill="white"/>
<g clip-path="url(#clip0_920_18721)">
<path d="M169.414 148.224H164.487C164.426 148.228 164.363 148.219 164.305 148.199C164.246 148.178 164.193 148.145 164.147 148.103C164.102 148.061 164.066 148.01 164.041 147.953C164.016 147.896 164.003 147.834 164.003 147.773C164.003 147.711 164.016 147.649 164.041 147.592C164.066 147.535 164.102 147.484 164.147 147.442C164.193 147.4 164.246 147.367 164.305 147.346C164.363 147.326 164.426 147.317 164.487 147.321H169.414C169.528 147.329 169.635 147.38 169.714 147.464C169.792 147.548 169.836 147.658 169.836 147.773C169.836 147.887 169.792 147.997 169.714 148.081C169.635 148.165 169.528 148.216 169.414 148.224Z" fill="#102D42"/>
<path d="M184.97 173.213H160.223C160.103 173.213 159.989 173.166 159.904 173.081C159.819 172.997 159.772 172.882 159.772 172.763V137.382C159.772 137.322 159.783 137.264 159.806 137.209C159.828 137.154 159.861 137.104 159.903 137.062C159.945 137.02 159.995 136.987 160.05 136.964C160.105 136.941 160.163 136.93 160.223 136.93H184.97C185.09 136.93 185.206 136.977 185.29 137.062C185.375 137.147 185.423 137.262 185.423 137.382V172.763C185.423 172.822 185.411 172.881 185.389 172.936C185.366 172.99 185.332 173.04 185.29 173.082C185.248 173.124 185.198 173.157 185.143 173.179C185.088 173.202 185.03 173.213 184.97 173.213ZM160.676 172.311H184.519V137.832H160.676V172.311Z" fill="#102D42"/>
<path d="M180.708 155.437H164.488C164.368 155.437 164.253 155.39 164.169 155.306C164.084 155.221 164.037 155.107 164.037 154.987C164.037 154.868 164.084 154.754 164.169 154.669C164.253 154.585 164.368 154.537 164.488 154.537H180.708C180.827 154.537 180.942 154.585 181.027 154.669C181.111 154.754 181.159 154.868 181.159 154.987C181.159 155.107 181.111 155.221 181.027 155.306C180.942 155.39 180.827 155.437 180.708 155.437Z" fill="#102D42"/>
<path d="M180.708 159.331H164.487C164.426 159.335 164.363 159.327 164.305 159.306C164.246 159.285 164.193 159.253 164.147 159.21C164.102 159.168 164.066 159.117 164.041 159.06C164.016 159.003 164.003 158.942 164.003 158.88C164.003 158.818 164.016 158.756 164.041 158.7C164.066 158.643 164.102 158.592 164.147 158.549C164.193 158.507 164.246 158.474 164.305 158.454C164.363 158.433 164.426 158.424 164.487 158.429H180.708C180.822 158.437 180.929 158.487 181.008 158.571C181.086 158.655 181.13 158.765 181.13 158.88C181.13 158.994 181.086 159.105 181.008 159.188C180.929 159.272 180.822 159.323 180.708 159.331Z" fill="#102D42"/>
<path d="M180.708 163.222H164.488C164.368 163.222 164.253 163.175 164.169 163.091C164.084 163.006 164.037 162.892 164.037 162.772C164.037 162.653 164.084 162.538 164.169 162.454C164.253 162.37 164.368 162.322 164.488 162.322H180.708C180.827 162.322 180.942 162.37 181.027 162.454C181.111 162.538 181.159 162.653 181.159 162.772C181.159 162.892 181.111 163.006 181.027 163.091C180.942 163.175 180.827 163.222 180.708 163.222Z" fill="#102D42"/>
<path d="M192.74 149.147H174.812C174.753 149.147 174.694 149.135 174.639 149.113C174.584 149.09 174.535 149.057 174.493 149.015C174.451 148.973 174.418 148.923 174.395 148.868C174.373 148.813 174.361 148.754 174.361 148.695V130.798C174.361 130.679 174.409 130.565 174.493 130.48C174.578 130.396 174.693 130.348 174.812 130.348H192.74C192.86 130.348 192.975 130.396 193.059 130.48C193.144 130.565 193.191 130.679 193.191 130.798V148.695C193.192 148.754 193.18 148.813 193.158 148.868C193.135 148.923 193.102 148.973 193.06 149.015C193.018 149.057 192.968 149.09 192.913 149.113C192.859 149.135 192.8 149.147 192.74 149.147ZM175.265 148.245H192.281V131.261H175.265V148.245Z" fill="#102D42"/>
<path d="M192.812 132.728C194.074 132.728 195.097 131.707 195.097 130.448C195.097 129.189 194.074 128.168 192.812 128.168C191.551 128.168 190.528 129.189 190.528 130.448C190.528 131.707 191.551 132.728 192.812 132.728Z" fill="#102D42"/>
<path d="M174.812 132.728C176.074 132.728 177.097 131.707 177.097 130.448C177.097 129.189 176.074 128.168 174.812 128.168C173.551 128.168 172.528 129.189 172.528 130.448C172.528 131.707 173.551 132.728 174.812 132.728Z" fill="#102D42"/>
<path d="M192.812 150.499C194.074 150.499 195.097 149.479 195.097 148.219C195.097 146.96 194.074 145.939 192.812 145.939C191.551 145.939 190.528 146.96 190.528 148.219C190.528 149.479 191.551 150.499 192.812 150.499Z" fill="#102D42"/>
<path d="M174.812 150.499C176.074 150.499 177.097 149.479 177.097 148.219C177.097 146.96 176.074 145.939 174.812 145.939C173.551 145.939 172.528 146.96 172.528 148.219C172.528 149.479 173.551 150.499 174.812 150.499Z" fill="#102D42"/>
<path d="M180.708 167.33H164.487C164.426 167.335 164.363 167.326 164.305 167.305C164.246 167.285 164.193 167.252 164.147 167.21C164.102 167.167 164.066 167.116 164.041 167.059C164.016 167.003 164.003 166.941 164.003 166.879C164.003 166.817 164.016 166.756 164.041 166.699C164.066 166.642 164.102 166.591 164.147 166.549C164.193 166.506 164.246 166.474 164.305 166.453C164.363 166.432 164.426 166.424 164.487 166.428H180.708C180.822 166.436 180.929 166.487 181.008 166.571C181.086 166.654 181.13 166.765 181.13 166.879C181.13 166.994 181.086 167.104 181.008 167.188C180.929 167.272 180.822 167.322 180.708 167.33Z" fill="#102D42"/>
</g>
<rect x="138.06" y="67.8889" width="117.052" height="35.7766" fill="white" stroke="#B2ECFC" stroke-width="1.70696" stroke-linejoin="round"/>
<rect x="224.554" y="73.7804" width="22.7611" height="22.7611" rx="1.57698" fill="#E6F9FF"/>
<path d="M231.764 82.7224L229.296 88.9546H242.573L238.378 84.2805L235.861 86.5837L231.764 82.7224Z" fill="#8EDEF4"/>
<circle cx="235.935" cy="82.5868" r="1.21934" fill="#8EDEF4"/>
<rect x="152.77" y="75.1847" width="56.721" height="2.39666" rx="1.19833" fill="#FF768F"/>
<rect x="152.77" y="81.5756" width="56.721" height="2.39666" rx="1.19833" fill="#FF768F"/>
<rect x="152.77" y="87.9662" width="56.721" height="2.39666" rx="1.19833" fill="#FF768F"/>
<rect x="152.77" y="94.3579" width="56.721" height="2.39666" rx="1.19833" fill="#FF768F"/>
<rect x="136.504" y="65.5556" width="3.11101" height="3.11101" fill="white" stroke="#B2ECFC" stroke-width="3.11101"/>
<rect x="253.556" y="65.5554" width="3.11101" height="3.11101" fill="white" stroke="#B2ECFC" stroke-width="3.11101"/>
<rect x="136.504" y="102.499" width="3.11101" height="3.11101" fill="white" stroke="#B2ECFC" stroke-width="3.11101"/>
<rect x="253.556" y="102.499" width="3.11101" height="3.11101" fill="white" stroke="#B2ECFC" stroke-width="3.11101"/>
<path d="M143.736 99.2303L138.106 117.924C137.47 120.034 134.539 120.182 133.693 118.147L130.653 110.825C130.415 110.252 129.96 109.796 129.387 109.558L121.989 106.487C119.962 105.645 120.098 102.73 122.194 102.08L140.795 96.3134C142.59 95.7571 144.278 97.4312 143.736 99.2303Z" fill="#F2385A"/>
<path d="M245.779 157.363C242.286 157.363 238.921 156.055 236.349 153.697C233.777 151.338 232.186 148.102 231.891 144.628C231.882 144.521 231.916 144.415 231.985 144.333C232.054 144.251 232.153 144.2 232.26 144.191C232.368 144.182 232.474 144.216 232.556 144.285C232.638 144.354 232.689 144.453 232.699 144.56C232.984 147.825 234.485 150.865 236.906 153.08C239.327 155.295 242.491 156.524 245.775 156.524C249.059 156.524 252.223 155.295 254.644 153.08C257.065 150.865 258.566 147.825 258.851 144.56C258.865 144.456 258.918 144.362 259 144.297C259.081 144.231 259.185 144.2 259.289 144.209C259.393 144.217 259.49 144.266 259.559 144.344C259.628 144.422 259.665 144.524 259.661 144.628C259.366 148.101 257.775 151.336 255.205 153.695C252.634 156.053 249.27 157.362 245.779 157.363Z" fill="#4690A4"/>
<path d="M259.261 142.717C259.158 142.717 259.059 142.677 258.983 142.606C258.908 142.536 258.863 142.439 258.857 142.336C258.571 139.07 257.07 136.03 254.649 133.815C252.229 131.601 249.064 130.372 245.78 130.372C242.496 130.372 239.332 131.601 236.911 133.815C234.49 136.03 232.989 139.07 232.704 142.336C232.695 142.443 232.644 142.542 232.562 142.611C232.48 142.68 232.374 142.714 232.267 142.706C232.16 142.697 232.06 142.646 231.991 142.564C231.922 142.482 231.888 142.376 231.896 142.269C232.186 138.791 233.774 135.548 236.346 133.185C238.919 130.821 242.288 129.509 245.784 129.509C249.281 129.509 252.649 130.821 255.222 133.185C257.794 135.548 259.383 138.791 259.672 142.269C259.676 142.322 259.67 142.375 259.654 142.426C259.638 142.477 259.612 142.524 259.577 142.564C259.543 142.605 259.501 142.638 259.453 142.662C259.406 142.686 259.354 142.701 259.301 142.706L259.261 142.717Z" fill="#4690A4"/>
<path d="M259.357 143.306C259.265 143.306 259.177 143.275 259.105 143.218L257.248 141.738C257.206 141.705 257.171 141.664 257.146 141.617C257.12 141.571 257.103 141.52 257.097 141.467C257.091 141.414 257.096 141.361 257.11 141.31C257.125 141.259 257.15 141.211 257.183 141.17C257.216 141.128 257.257 141.094 257.303 141.068C257.35 141.042 257.401 141.026 257.454 141.02C257.507 141.014 257.56 141.018 257.611 141.033C257.662 141.047 257.71 141.072 257.752 141.105L259.292 142.324L260.514 140.789C260.547 140.747 260.588 140.712 260.634 140.686C260.681 140.66 260.732 140.644 260.785 140.638C260.838 140.632 260.892 140.636 260.943 140.651C260.994 140.665 261.042 140.69 261.084 140.723C261.125 140.756 261.16 140.797 261.186 140.843C261.212 140.89 261.228 140.941 261.235 140.994C261.241 141.046 261.236 141.1 261.222 141.151C261.207 141.202 261.183 141.25 261.15 141.292L259.674 143.146C259.637 143.195 259.589 143.235 259.534 143.263C259.479 143.29 259.419 143.305 259.357 143.306Z" fill="#4690A4"/>
<path d="M230.736 146.475C230.66 146.475 230.585 146.453 230.521 146.413C230.456 146.372 230.404 146.315 230.371 146.246C230.338 146.178 230.325 146.101 230.334 146.026C230.342 145.95 230.372 145.879 230.419 145.819L231.895 143.965C231.928 143.923 231.969 143.887 232.016 143.861C232.062 143.835 232.114 143.818 232.167 143.812C232.221 143.806 232.275 143.811 232.326 143.826C232.378 143.841 232.426 143.866 232.467 143.9L234.325 145.373C234.409 145.44 234.463 145.537 234.475 145.644C234.487 145.75 234.457 145.857 234.39 145.941C234.357 145.983 234.316 146.017 234.269 146.043C234.223 146.069 234.172 146.085 234.119 146.091C234.012 146.103 233.905 146.073 233.821 146.006L232.276 144.786L231.055 146.322C231.017 146.37 230.968 146.409 230.913 146.435C230.858 146.461 230.797 146.475 230.736 146.475Z" fill="#4690A4"/>
<path d="M252.411 150.244C252.306 150.244 252.206 150.203 252.13 150.131L245.499 143.784C245.459 143.746 245.427 143.701 245.405 143.651C245.384 143.601 245.373 143.547 245.373 143.492V132.694C245.369 132.638 245.376 132.583 245.395 132.53C245.414 132.478 245.443 132.43 245.481 132.389C245.519 132.348 245.565 132.316 245.616 132.294C245.667 132.272 245.722 132.26 245.778 132.26C245.834 132.26 245.889 132.272 245.94 132.294C245.991 132.316 246.037 132.348 246.075 132.389C246.113 132.43 246.143 132.478 246.161 132.53C246.18 132.583 246.188 132.638 246.184 132.694V143.319L252.691 149.55C252.75 149.606 252.789 149.678 252.806 149.757C252.823 149.836 252.816 149.918 252.786 149.993C252.756 150.068 252.704 150.132 252.637 150.177C252.57 150.222 252.492 150.247 252.411 150.247V150.244Z" fill="#4690A4"/>
<path fill-rule="evenodd" clip-rule="evenodd" d="M204.565 37.0076C207.722 37.0075 210.281 34.4484 210.281 31.2916C210.281 28.1348 207.722 25.5756 204.565 25.5756C204.422 25.5756 204.28 25.5809 204.139 25.5912C203.263 21.2352 199.414 17.9546 194.8 17.9546C194.571 17.9546 194.343 17.9627 194.117 17.9787C192.71 14.4744 189.281 12 185.273 12C181.173 12 177.678 14.59 176.335 18.2232C175.612 18.0477 174.856 17.9546 174.079 17.9546C168.818 17.9546 164.553 22.2198 164.553 27.4813C164.553 32.7427 168.818 37.0079 174.079 37.0079C174.089 37.0079 174.098 37.0079 174.108 37.0079H194.772C194.781 37.0079 194.791 37.0079 194.8 37.0079C194.81 37.0079 194.819 37.0079 194.829 37.0079H204.565V37.0076Z" fill="#4690A4"/>
<path d="M214.161 29.6655L215.603 32.4972L217.334 29.8331L214.161 29.6655ZM226.747 37.8462L225.306 35.0144L223.574 37.6786L226.747 37.8462ZM216.088 31.2459L224.52 36.7272L224.82 36.2658L216.388 30.7845L216.088 31.2459Z" fill="#DA6668"/>
<path d="M148.611 36.9207L151.783 36.7268L150.029 34.0771L148.611 36.9207ZM159.414 29.7709L156.242 29.9648L157.996 32.6145L159.414 29.7709ZM150.828 35.7833L157.5 31.3672L157.197 30.9083L150.524 35.3244L150.828 35.7833Z" fill="#DA6668"/>
<path d="M189.557 25.8886C189.752 27.2278 189.343 28.6381 188.298 29.6675C186.755 31.1905 184.374 31.3779 182.623 30.2338L183.85 29.0376L179.34 28.4087L179.97 32.8128L181.346 31.4936C183.819 33.3168 187.327 33.1447 189.574 30.9273C190.876 29.6418 191.47 27.9355 191.397 26.2517L189.557 25.8886ZM181.921 23.3746C183.464 21.8516 185.845 21.6631 187.596 22.8082L186.367 24.004L190.876 24.6334L190.247 20.2272L188.872 21.5495C186.399 19.7248 182.892 19.8989 180.645 22.1158C179.342 23.4007 178.749 25.1071 178.822 26.7904L180.661 27.153C180.467 25.8133 180.876 24.4045 181.921 23.3746Z" fill="white"/>
<rect x="232.273" y="30.3323" width="23.907" height="22.914" rx="3.21039" fill="white" stroke="#8EDEF4" stroke-width="0.917256"/>
<rect x="119.074" y="30.3323" width="24.2541" height="22.914" rx="3.21039" fill="white" stroke="#8EDEF4" stroke-width="0.917256"/>
<path d="M243.958 37.013L240.02 39.5357L243.958 42.0584L240.02 44.5811L236.082 42.0447L240.02 39.5221L236.082 37.013L240.02 34.4904L243.958 37.013ZM240 45.3924L243.938 42.8697L247.876 45.3924L243.938 47.9151L240 45.3924ZM243.958 42.0447L247.896 39.5221L243.958 37.013L247.876 34.4904L251.814 37.013L247.876 39.5357L251.814 42.0584L247.876 44.5811L243.958 42.0447Z" fill="#0061FF"/>
<path d="M124.791 45.9963L125.457 47.1408C125.596 47.3818 125.795 47.5711 126.028 47.7088L128.407 43.6125H123.649C123.649 43.8793 123.719 44.1461 123.857 44.3871L124.791 45.9963Z" fill="#0066DA"/>
<path d="M131.201 38.7961L128.823 34.6998C128.589 34.8375 128.39 35.0268 128.252 35.2678L123.858 42.8407C123.722 43.0765 123.65 43.3435 123.65 43.6152H128.407L131.201 38.7961Z" fill="#00AC47"/>
<path d="M136.373 47.7088C136.607 47.5711 136.806 47.3818 136.944 47.1408L137.221 46.6675L138.544 44.3871C138.683 44.1461 138.752 43.8793 138.752 43.6125H133.994L135.007 45.5918L136.373 47.7088Z" fill="#EA4335"/>
<path d="M131.201 38.7935L133.58 34.6973C133.346 34.5596 133.078 34.4907 132.801 34.4907H129.601C129.324 34.4907 129.056 34.5682 128.822 34.6973L131.201 38.7935Z" fill="#00832D"/>
<path d="M133.995 43.6125H128.407L126.028 47.7088C126.262 47.8465 126.53 47.9153 126.807 47.9153H135.595C135.872 47.9153 136.14 47.8379 136.374 47.7088L133.995 43.6125Z" fill="#2684FC"/>
<path d="M136.347 39.0517L134.15 35.2652C134.012 35.0243 133.813 34.835 133.579 34.6973L131.201 38.7935L133.995 43.6127H138.743C138.743 43.3459 138.674 43.0791 138.536 42.8382L136.347 39.0517Z" fill="#FFBA00"/>
<path d="M189.454 47.8459L187.693 49.9213L190.371 50.4093L189.454 47.8459ZM162.221 78.7938C162.455 78.7116 162.697 78.6231 162.946 78.5282L162.778 78.0877C162.533 78.1811 162.295 78.2681 162.065 78.3488L162.221 78.7938ZM164.372 77.9454C164.824 77.7487 165.293 77.5342 165.776 77.3018L165.571 76.877C165.094 77.1068 164.631 77.3188 164.184 77.513L164.372 77.9454ZM167.154 76.6079C167.597 76.3748 168.049 76.1279 168.509 75.867L168.276 75.457C167.821 75.7153 167.373 75.9598 166.934 76.1905L167.154 76.6079ZM169.835 75.0858C170.265 74.8229 170.7 74.5483 171.139 74.262L170.881 73.8673C170.447 74.1509 170.016 74.4229 169.589 74.6833L169.835 75.0858ZM172.418 73.3976C172.833 73.1075 173.25 72.807 173.668 72.496L173.386 72.1178C172.973 72.4259 172.559 72.7236 172.148 73.011L172.418 73.3976ZM174.889 71.5567C175.287 71.2404 175.684 70.9146 176.08 70.5791L175.775 70.2194C175.383 70.5515 174.99 70.8743 174.595 71.1875L174.889 71.5567ZM177.24 69.5636C177.619 69.2215 177.995 68.8705 178.367 68.5104L178.04 68.1714C177.671 68.5277 177.299 68.8752 176.924 69.2139L177.24 69.5636ZM179.458 67.4199C179.813 67.0525 180.165 66.6767 180.511 66.2922L180.161 65.9765C179.818 66.3568 179.471 66.7287 179.119 67.0921L179.458 67.4199ZM181.523 65.1276C181.852 64.7355 182.175 64.3352 182.492 63.9266L182.12 63.6374C181.806 64.0413 181.487 64.4371 181.162 64.8248L181.523 65.1276ZM183.415 62.6897C183.714 62.2737 184.005 61.8497 184.29 61.4177L183.896 61.1583C183.615 61.585 183.327 62.0039 183.032 62.415L183.415 62.6897ZM185.113 60.1116C185.377 59.673 185.633 59.2267 185.882 58.7727L185.468 58.5465C185.223 58.9946 184.97 59.4353 184.709 59.8684L185.113 60.1116ZM186.593 57.4025C186.82 56.9433 187.037 56.4768 187.246 56.0029L186.814 55.813C186.608 56.2806 186.394 56.741 186.17 57.1941L186.593 57.4025ZM187.836 54.5761C188.022 54.0994 188.197 53.6156 188.363 53.1246L187.917 52.9737C187.753 53.4579 187.58 53.9351 187.397 54.4054L187.836 54.5761ZM188.825 51.6511C188.967 51.1602 189.099 50.6626 189.22 50.1583L188.762 50.048C188.642 50.5454 188.512 51.0361 188.372 51.5203L188.825 51.6511Z" fill="#F2385A"/>
</g>
<defs>
<filter id="filter0_i_920_18721" x="55.0732" y="74.7502" width="57.2566" height="50.9178" filterUnits="userSpaceOnUse" color-interpolation-filters="sRGB">
<feFlood flood-opacity="0" result="BackgroundImageFix"/>
<feBlend mode="normal" in="SourceGraphic" in2="BackgroundImageFix" result="shape"/>
<feColorMatrix in="SourceAlpha" type="matrix" values="0 0 0 0 0 0 0 0 0 0 0 0 0 0 0 0 0 0 127 0" result="hardAlpha"/>
<feOffset dx="4.71513" dy="4.71513"/>
<feGaussianBlur stdDeviation="3.53635"/>
<feComposite in2="hardAlpha" operator="arithmetic" k2="-1" k3="1"/>
<feColorMatrix type="matrix" values="0 0 0 0 0 0 0 0 0 0 0 0 0 0 0 0 0 0 0.139889 0"/>
<feBlend mode="normal" in2="shape" result="effect1_innerShadow_920_18721"/>
</filter>
<linearGradient id="paint0_linear_920_18721" x1="120.22" y1="171.554" x2="110.215" y2="164.971" gradientUnits="userSpaceOnUse">
<stop stop-color="#F9B776"/>
<stop offset="1" stop-color="#F47960"/>
</linearGradient>
<linearGradient id="paint1_linear_920_18721" x1="131.102" y1="106.58" x2="114.879" y2="119.862" gradientUnits="userSpaceOnUse">
<stop stop-color="#F9B776"/>
<stop offset="1" stop-color="#F47960"/>
</linearGradient>
<linearGradient id="paint2_linear_920_18721" x1="87.8929" y1="116.822" x2="84.7315" y2="108.469" gradientUnits="userSpaceOnUse">
<stop stop-color="#F9B776"/>
<stop offset="1" stop-color="#F47960"/>
</linearGradient>
<linearGradient id="paint3_linear_920_18721" x1="96.2153" y1="98.5779" x2="77.7263" y2="109.612" gradientUnits="userSpaceOnUse">
<stop stop-color="#F9B776"/>
<stop offset="0.632873" stop-color="#F47960"/>
</linearGradient>
<clipPath id="clip0_920_18721">
<rect width="35.3246" height="45.0448" fill="white" transform="translate(159.772 128.168)"/>
</clipPath>
</defs>
</svg>
