<svg width="286" height="516" viewBox="0 0 286 516" fill="none" xmlns="http://www.w3.org/2000/svg">
<mask id="mask0_24_4277" style="mask-type:alpha" maskUnits="userSpaceOnUse" x="0" y="0" width="286" height="516">
<path d="M0 8C0 3.58173 3.58172 0 8 0H286V516H8C3.58173 516 0 512.418 0 508V8Z" fill="#C4C4C4"/>
</mask>
<g mask="url(#mask0_24_4277)">
<rect x="122.554" y="90.4424" width="133.708" height="40.8676" fill="white" stroke="#B2ECFC" stroke-width="1.84153" stroke-linejoin="round"/>
<rect x="221.356" y="97.1724" width="26" height="26" rx="1.2381" fill="#E6F9FF"/>
<path d="M229.592 107.387L226.773 114.506H241.94L237.147 109.166L234.272 111.797L229.592 107.387Z" fill="#8EDEF4"/>
<circle cx="234.356" cy="107.232" r="1.39286" fill="#8EDEF4"/>
<path d="M138.847 139.295L136.213 148.952C135.756 150.626 133.45 150.797 132.751 149.21L131.211 145.714C131.025 145.293 130.689 144.957 130.268 144.772L126.71 143.204C125.13 142.508 125.291 140.215 126.954 139.746L136.571 137.037C137.949 136.649 139.223 137.913 138.847 139.295Z" fill="#F2385A"/>
<rect x="139.356" y="98.7762" width="64.7923" height="2.7377" rx="1.36885" fill="#FF768F"/>
<rect x="139.356" y="106.077" width="64.7923" height="2.7377" rx="1.36885" fill="#FF768F"/>
<rect x="139.356" y="113.377" width="64.7923" height="2.7377" rx="1.36885" fill="#FF768F"/>
<rect x="139.356" y="120.678" width="64.7923" height="2.7377" rx="1.36885" fill="#FF768F"/>
<rect x="120.777" y="87.7769" width="3.55371" height="3.55371" fill="white" stroke="#B2ECFC" stroke-width="3.55371"/>
<rect x="254.485" y="87.777" width="3.55371" height="3.55371" fill="white" stroke="#B2ECFC" stroke-width="3.55371"/>
<rect x="120.777" y="129.977" width="3.55371" height="3.55371" fill="white" stroke="#B2ECFC" stroke-width="3.55371"/>
<rect x="254.485" y="129.977" width="3.55371" height="3.55371" fill="white" stroke="#B2ECFC" stroke-width="3.55371"/>
<path d="M-56 8C-56 3.58173 -52.4183 0 -48 0H342V516H-48C-52.4183 516 -56 512.418 -56 508V8Z" fill="#F4FCFF"/>
<g filter="url(#filter0_dd_24_4277)">
<path d="M541.272 -9.67742C484.617 46.9468 407.391 84.1215 329.365 45.0078C305.881 33.2377 282.493 12.8685 254.937 12.2398C227.141 11.6017 201.355 44.8243 173.236 27.867C150.02 13.8593 156.021 -18.9685 146.927 -40.6968C133.602 -72.5423 103.745 -67.3261 76.5833 -55.7694C58.0071 -47.8635 35.416 -40.2346 18.8634 -51.7934C7.10637 -59.9871 2.8176 -75.5322 2.92631 -89.8261C3.16599 -118.983 19.6089 -162.972 -18.0449 -177.335C-38.5295 -185.151 -61.6484 -174.785 -83.2592 -178.388C-103.378 -181.724 -119.428 -199.228 -123.956 -218.649C-130.025 -244.725 -115.611 -259.149 -98.9139 -277.38C-59.8099 -320.033 -12.0305 -354.823 40.7028 -378.778C92.672 -402.403 152.928 -406.699 198.138 -366.622C226.71 -341.284 242.979 -303.298 274.842 -282.207C300.349 -265.322 333.998 -262.237 362.562 -272.779C377.316 -278.227 390.612 -287.089 405.395 -292.505C420.149 -297.923 437.782 -299.391 450.743 -290.491C471.635 -276.185 473.122 -247.41 492.295 -232.931C514.297 -216.303 544.724 -234.536 565.996 -244.525C584.971 -253.434 612.927 -261.483 631.101 -246.833C641.615 -238.358 645.628 -224.203 647.418 -210.824C649.208 -197.445 649.474 -183.526 654.971 -171.201C663.06 -152.959 680.874 -141.411 696.429 -128.932C721.948 -108.479 741.663 -69.4895 706.167 -46.8684C692.735 -38.3715 675.683 -37.9297 659.899 -39.9562C644.116 -42.0127 628.509 -46.2505 612.579 -46.0646C582.851 -45.6992 561.284 -29.6971 541.272 -9.67742Z" fill="#77C2D7"/>
</g>
<g filter="url(#filter1_dd_24_4277)">
<path d="M426.455 3.78764C420.687 8.17834 414.924 12.1571 409.441 15.6609C372.799 39.1706 322.809 65.2437 276.403 52.9565C254.343 47.1226 238.374 35.0963 224.207 18.9409C216.448 10.1053 207.444 1.12961 195.464 -1.61233C182.888 -4.48102 170.267 -0.368855 159.665 5.63909C150.771 10.6979 142.684 16.9408 133.302 21.2112C116.294 28.9414 100.428 25.9363 88.8558 11.4825C74.856 -5.99715 66.1259 -31.5403 37.1818 -18.6996C29.3815 -15.2435 22.6057 -10.1182 15.1713 -6.05937C0.352151 2.05923 -19.8888 5.51081 -33.6933 -4.2734C-51.8443 -17.123 -48.3133 -42.2991 -61.5636 -58.0465C-69.6857 -67.6907 -78.0944 -67.1772 -90.164 -66.9681C-128.418 -66.2912 -172.835 -87.3733 -157.873 -128.269C-146.172 -160.236 -120.265 -188.156 -92.5788 -209.423C-41.0347 -249.016 20.5386 -285.426 91.1794 -280.651C128.617 -278.117 158.088 -261.67 177.44 -232.497C182.229 -225.302 189.064 -218.156 198.15 -217.168C206.913 -216.209 215.125 -220.595 223.851 -220.576C234.122 -220.547 244.341 -216.628 253.666 -213.003C269.539 -206.816 286.177 -200.109 303.594 -199.407C322.084 -198.682 340.669 -203.198 359.127 -203.894C368.207 -204.233 378.218 -203.409 384.746 -197.552C400.732 -183.19 381.493 -163.442 391.477 -147.671C394.699 -142.545 400.666 -139.515 406.338 -136.72C430.709 -124.75 460.925 -109.935 470.428 -84.3756C483.277 -49.9803 455.147 -18.0545 426.455 3.78764Z" fill="#FCF0EE"/>
</g>
<g filter="url(#filter2_ddd_24_4277)">
<path d="M-85.254 458.417C-77.3979 453.375 -69.5648 448.817 -62.1784 444.818C-12.7207 418.005 53.9807 388.653 111.185 405.157C138.376 413 157.079 428.035 172.947 447.933C181.646 458.839 191.894 469.933 206.732 473.664C222.292 477.592 238.83 473.146 253.013 466.325C264.924 460.595 275.997 453.418 288.429 448.665C310.959 440.054 330.687 444.247 343.5 462.032C358.989 483.526 366.778 514.494 405.101 500.201C415.437 496.346 424.677 490.475 434.629 485.868C454.453 476.69 480.544 473.339 496.774 485.58C518.123 501.681 510.406 531.752 525.169 551.137C534.227 563.024 544.956 562.73 560.251 562.928C608.814 563.564 662.387 590.547 638.159 639.02C619.22 676.904 582.822 709.418 545.006 733.872C474.61 779.399 391.916 820.704 303.014 812.293C255.907 807.836 220.653 786.982 199.887 751.259C194.758 742.441 187.015 733.615 175.619 732.081C164.646 730.605 153.684 735.557 142.605 735.187C129.589 734.748 117.145 729.678 105.791 724.953C86.4842 716.912 66.2619 708.241 44.267 706.743C20.9155 705.171 -3.21785 709.905 -26.6876 710.028C-38.2369 710.093 -50.8021 708.717 -58.321 701.438C-76.7348 683.618 -49.8168 660.664 -60.4422 641.355C-63.8793 635.101 -71.0246 631.207 -77.8839 627.648C-107.237 612.36 -143.606 593.451 -152.386 562.418C-164.156 520.731 -124.399 483.526 -85.254 458.417Z" fill="#FAB1A5"/>
</g>
<g filter="url(#filter3_dddddd_24_4277)">
<path d="M314.669 649.476C259.219 702.807 182.188 743.109 101.539 721.78C77.2525 715.356 52.7848 701.963 24.7713 705.106C-3.47744 708.271 -28.4494 738.584 -57.6089 728.556C-81.6857 720.284 -76.8102 692.932 -86.8312 676.542C-101.537 652.518 -131.661 660.719 -158.785 673.647C-177.358 682.496 -200.022 691.662 -217.248 684.502C-229.477 679.42 -234.409 667.411 -234.82 655.818C-235.632 632.191 -220.57 594.41 -259.335 587.764C-280.405 584.151 -303.518 595.59 -325.599 595.545C-346.158 595.503 -363.1 583.473 -368.395 568.337C-375.522 548.018 -361.43 534.455 -345.143 517.507C-306.995 477.794 -259.78 443.327 -207.102 416.947C-155.211 390.957 -94.1712 379.484 -46.8232 405.942C-16.8949 422.662 1.0404 451.254 34.1412 464.105C60.6539 474.397 94.939 472.442 123.56 460.12C138.341 453.758 151.519 444.821 166.314 438.485C181.11 432.149 198.945 428.623 212.444 434.111C234.176 442.93 236.762 466.024 256.734 475.211C279.694 485.768 309.891 466.986 331.146 456.061C350.082 446.328 378.17 436.123 397.172 445.581C408.173 451.057 412.738 461.976 415.048 472.57C417.359 483.165 418.155 494.389 424.17 503.647C433.055 517.329 451.555 524.335 467.818 532.385C494.471 545.562 515.934 574.518 480.713 597.518C467.401 606.211 450.104 608.821 433.998 609.26C417.893 609.7 401.896 608.335 385.738 610.592C355.574 614.804 334.267 630.623 314.669 649.476Z" fill="#F2385A"/>
</g>
<path d="M224.423 92.0708C222.026 88.5949 219.132 85.5143 216.124 82.5582C215.193 81.6463 213.639 82.3817 213.747 83.6726C214.18 89.0932 211.939 94.7529 208.837 99.3874C204.904 105.286 199.651 110.256 196.005 116.342C188.492 128.856 188.638 144.55 191.267 158.91C193.896 173.27 198.748 187.26 199.912 201.804C200.474 208.735 200.135 215.92 197.506 222.35C194.915 228.674 189.822 234.231 183.275 236.162C183.082 236.225 182.987 236.425 183.061 236.6C183.103 236.702 183.22 236.786 183.333 236.79C191.871 237.6 199.754 230.714 202.61 222.59C205.485 214.412 204.314 205.398 202.353 196.962C200.408 188.523 197.69 180.146 197.555 171.487C197.423 162.844 199.951 154.173 204.73 146.942C209.074 140.363 215.096 135.124 220.252 129.165C225.407 123.207 229.848 116.042 229.936 108.164C230.02 102.424 227.696 96.8254 224.423 92.0708Z" fill="url(#paint0_linear_24_4277)"/>
<path opacity="0.5" d="M219.023 108.871C219.066 110.483 218.859 112.06 218.584 113.622C218.294 115.187 217.917 116.726 217.419 118.23C217.189 118.994 216.887 119.727 216.619 120.467C216.336 121.211 216.001 121.937 215.695 122.654C215.355 123.365 215.001 124.078 214.646 124.792L213.487 126.876C213.076 127.556 212.645 128.224 212.215 128.892C211.785 129.56 211.298 130.194 210.849 130.85C209.928 132.137 208.958 133.356 208.029 134.612C206.154 137.113 204.331 139.634 202.754 142.303C201.176 144.972 199.875 147.782 198.891 150.707C198.347 152.158 198.012 153.67 197.609 155.167C197.323 156.684 196.972 158.2 196.822 159.747C196.375 162.829 196.305 165.947 196.251 169.061C196.279 170.613 196.326 172.176 196.373 173.739L196.687 178.417C196.69 178.561 196.591 178.682 196.451 178.7C196.307 178.703 196.187 178.604 196.168 178.464C195.395 172.244 195.057 165.9 195.775 159.603C196.364 153.304 198.424 147.11 201.644 141.644C203.252 138.903 205.094 136.33 206.947 133.802C207.871 132.53 208.853 131.293 209.747 130.029C210.185 129.391 210.664 128.791 211.083 128.142C211.502 127.493 211.92 126.844 212.339 126.194L213.502 124.19C213.864 123.506 214.226 122.823 214.569 122.128C214.894 121.421 215.241 120.742 215.531 120.028C215.822 119.314 216.131 118.611 216.384 117.874C216.946 116.435 217.368 114.949 217.753 113.441C218.122 111.936 218.404 110.405 218.497 108.888L218.494 108.872C218.506 108.725 218.623 108.616 218.771 108.628C218.915 108.624 219.02 108.727 219.023 108.871Z" fill="white"/>
<path d="M268.24 105.158C263.015 109.93 255.815 112.666 248.848 114.613C239.744 117.16 230.1 119.018 222.562 124.726C214.688 130.683 210.195 140.108 207.4 149.578C204.604 159.047 203.214 168.912 199.994 178.249C196.935 187.133 191.886 195.783 184.012 200.788C190.422 200.569 196.159 195.768 199.321 190.09C202.701 184.016 203.814 177.005 205.307 170.214C206.799 163.438 208.892 156.457 213.693 151.422C223.104 141.557 239.232 142.509 250.853 135.396C256.868 131.722 261.42 126 264.757 119.779C267.025 115.55 268.767 111.057 270.348 106.519C270.758 105.275 269.235 104.266 268.24 105.158Z" fill="url(#paint1_linear_24_4277)"/>
<path d="M175.644 109.021L68.9634 105.623C66.5228 105.545 64.5419 107.322 64.5419 109.594V291.977C64.5419 294.25 66.5228 295.984 68.9634 295.854L175.641 290.145C177.846 290.025 179.632 288.185 179.632 286.029V113.048C179.636 110.892 177.85 109.091 175.644 109.021Z" fill="#BCCFDC"/>
<path d="M175.646 111.321L68.9648 108.039C67.9669 108.008 67.1521 108.739 67.1521 109.672V291.844C67.1521 292.776 67.9669 293.49 68.9648 293.437L175.642 287.844C176.546 287.795 177.283 287.039 177.283 286.152V112.978C177.287 112.092 176.55 111.35 175.646 111.321Z" fill="white"/>
<path d="M269.118 142.68L153.626 138.768C150.987 138.678 148.84 140.724 148.84 143.335V353.131C148.84 355.743 150.987 357.742 153.626 357.59L269.118 351.024C271.505 350.888 273.442 348.769 273.442 346.289V147.313C273.442 144.833 271.509 142.757 269.118 142.68Z" fill="#F2385A"/>
<g opacity="0.3">
<path opacity="0.3" d="M221.732 297.595C219.768 273.607 234.504 263.707 228.885 241.969C221.938 215.106 195.225 213.953 186.125 187.609C182.64 177.515 181.262 162.255 191.24 140.041L153.626 138.768C150.987 138.678 148.84 140.724 148.84 143.335V353.131C148.84 355.743 150.987 357.742 153.626 357.59L256.606 351.734C230.406 331.452 222.939 312.339 221.732 297.595Z" fill="#D8DEE8"/>
</g>
<path d="M269.118 145.326L153.625 141.55C152.542 141.515 151.661 142.357 151.661 143.429V352.98C151.661 354.051 152.542 354.874 153.625 354.811L269.118 348.377C270.1 348.323 270.895 347.449 270.895 346.433V147.232C270.895 146.211 270.1 145.357 269.118 145.326Z" fill="white"/>
<path opacity="0.6" d="M178.005 267.92L237.782 267.185C239.339 267.166 240.597 267.896 240.597 268.815V284.718C240.597 285.637 239.339 286.406 237.782 286.438L174.781 287.651C173.15 287.683 171.826 286.945 171.826 286V265.212L178.005 267.92Z" fill="#DAE4EC"/>
<path opacity="0.67" d="M182.463 281.382L230.39 280.564V282.486L182.463 283.338V281.382Z" fill="white"/>
<path opacity="0.67" d="M182.463 277.472L230.39 276.721V278.642L182.463 279.428V277.472Z" fill="white"/>
<path opacity="0.67" d="M182.463 273.561L230.39 272.874V274.798L182.463 275.515V273.561Z" fill="white"/>
<path d="M78.5252 273.495C76.9704 270.509 74.2831 267.34 75.3931 263.875C76.4882 260.459 80.9285 257.876 84.7071 258.399C88.0223 258.855 89.8687 261.565 93.2885 266.338C100.11 275.854 101.342 284.427 102.515 285.589C112.768 295.718 130.313 279.031 144.291 288.038C153.643 294.063 159.122 307.787 155.702 318.686C152.29 329.547 141.099 334.204 139.148 335.015C114.697 345.189 77.8113 324.606 75.8417 305.485C74.7503 294.878 84.4081 284.794 78.5252 273.495Z" fill="#233F52"/>
<path d="M20.7687 239.528C19.4942 239.248 16.0818 245.467 17.7488 247.358C18.0739 247.728 18.6196 247.964 24.5175 247.665C28.1205 247.482 29.1035 247.336 29.552 247.971C30.6134 249.477 27.0029 253.002 27.7916 253.828C28.4569 254.527 31.9216 252.942 31.9216 251.466C31.9216 250.946 31.4955 250.905 31.2525 250.105C30.8713 248.846 31.6936 248.147 31.63 246.719C31.6226 246.57 31.5441 245.093 30.7255 244.35C28.8755 242.668 24.895 246.207 22.5889 244.686C20.6454 243.404 21.7218 239.737 20.7687 239.528Z" fill="url(#paint2_linear_24_4277)"/>
<path d="M84.1023 206.552C87.8809 206.635 93.0612 206.466 95.9129 207.21C95.8232 208.481 95.7335 208.23 95.5167 209.483C92.1417 209.382 91.8315 210.731 91.8315 210.731C91.1363 211.561 89.9291 211.86 88.834 211.815C87.6529 211.766 87.0213 211.407 86.6064 211.015C85.2796 209.763 85.6646 208.772 84.6554 208.242C83.7285 207.752 83.0333 208.092 81.1645 207.916C79.6172 207.771 78.1857 207.446 78.2268 207.079C78.2978 206.44 83.5939 206.541 84.1023 206.552Z" fill="url(#paint3_linear_24_4277)"/>
<path d="M138.24 392.286C136.723 390.208 134.888 389.506 132.357 387.996C130.915 387.136 128.833 385.764 126.474 383.705C127.181 383.126 129.621 375.527 130.324 374.952C132.488 379.078 135.676 384.101 140.352 389.109C142.714 391.636 145.065 393.748 147.263 395.501C147.947 396.704 149.883 399.186 150.223 400.408C150.223 400.408 145.487 399.974 139.844 395.773C139.631 394.91 139.197 393.598 138.24 392.286Z" fill="url(#paint4_linear_24_4277)"/>
<path d="M147.268 395.501C147.47 395.646 147.671 395.803 147.877 395.972C147.877 395.972 148.191 396.233 148.49 396.517C148.516 396.54 153.05 400.879 152.198 402.367C151.514 403.555 147.298 403.043 144.674 401.066C143.814 400.416 142.955 399.485 142.222 398.685C141.172 397.545 140.387 396.517 139.852 395.777C145.276 398.868 148.299 400.023 148.927 399.249C149.312 398.76 148.763 397.512 147.268 395.501Z" fill="#680416"/>
<path d="M95.562 206.541C95.3153 207.476 95.0649 208.414 94.8182 209.348C106.307 216.64 112.601 229.916 110.935 243.345C109.312 256.426 100.398 267.546 87.9336 272.046C72.2209 288.872 56.5045 305.695 40.7919 322.521C41.9617 323.968 53.1632 337.337 71.2155 336.391C74.0337 336.246 90.15 335.061 98.7314 320.955C104.925 310.774 104.842 297.719 98.6529 286.992C102.959 285.889 115.079 282.174 123.433 270.629C133.132 257.226 135.505 236.397 124.233 221.633C114.358 208.698 98.9295 206.863 95.562 206.541Z" fill="#DA6668"/>
<path d="M34.3544 338.167C33.7527 336.945 32.8071 337.087 30.729 335.793C27.2792 333.648 27.04 331.491 23.6239 330.262C22.5923 329.892 21.9383 329.656 21.6243 329.959C21.1833 330.385 21.6056 331.675 22.5363 333.386C26.8083 337.408 32.2763 340.454 34.2946 341.516C34.4703 340.432 34.9562 339.381 34.3544 338.167Z" fill="#680416"/>
<path d="M40.7303 353.614C41.8067 351.839 42.8868 350.06 43.9632 348.284C36.5367 346.386 34.4923 344.263 34.268 342.506C34.2232 342.17 34.2493 341.844 34.3017 341.519C32.2834 340.462 26.8116 337.412 22.5433 333.39C24.1654 336.38 27.3311 340.663 30.1605 343.908C33.842 348.131 37.572 351.293 40.7303 353.614Z" fill="url(#paint5_linear_24_4277)"/>
<path d="M69.8717 319.164C76.0648 330.115 78.3859 339.156 79.3651 345.047C80.0678 349.27 80.1986 352.574 78.2214 354.398C74.824 357.538 67.4087 354.26 66.792 353.976C62.1387 351.857 61.1968 349.065 57.9751 346.602C54.6636 344.068 49.0162 341.937 38.7753 343.772C38.1474 346.172 37.5195 348.571 36.8878 350.975C43.6042 357.53 55.1719 366.459 71.0528 368.769C77.8663 369.76 85.8535 370.922 91.3439 366.145C99.3946 359.137 97.8847 342.991 91.1197 332.814C84.2276 322.435 72.8767 319.774 69.8717 319.164Z" fill="#8EDEF4"/>
<path d="M70.2849 272.98C75.11 272.823 83.2093 273.559 88.0345 273.398C88.6325 276.515 89.1782 281.389 88.0158 286.951C83.841 306.906 60.9821 319.852 56.1009 315.476C50.6328 310.568 64.7757 283.217 70.2849 272.98Z" fill="#DAE4EC"/>
<path d="M49.5132 316.481C50.4887 324.699 73.8821 333.281 87.8418 338.401C90.2563 339.287 95.0142 340.973 98.2322 345.51C101.917 350.709 101.106 356.166 101.574 360.132C102.362 366.811 107.55 375.706 127.03 385.259C129.482 383.562 131.937 381.865 134.389 380.169C128.761 369.042 120.411 355.217 108.122 341.085C92.1064 322.663 75.392 310.605 62.9385 303.059C51.5539 309.204 49.1656 313.52 49.5132 316.481Z" fill="#8EDEF4"/>
<path d="M31.6036 248.884C34.7917 253.2 42.5583 262.462 56.0584 267.799C65.4845 271.526 73.8977 271.828 78.9322 271.612C78.536 281.714 76.2038 289.507 74.2378 294.568C72.0103 300.312 64.0306 320.82 46.7369 325.601C44.1206 326.322 38.0135 328.011 32.9603 324.756C27.4437 321.205 25.2535 313.106 27.2269 307.257C29.888 299.374 40.2373 295.207 43.2984 293.973C48.131 292.026 53.2589 291.178 53.7336 288.274C53.9317 287.063 53.2477 285.926 52.6198 285.138C37.9612 287.945 25.246 280.272 22.6708 270.169C20.3909 261.221 26.7597 253.107 27.7389 251.892C29.0284 250.894 30.3141 249.889 31.6036 248.884Z" fill="#DA6668"/>
<path d="M80.9327 265.714L79.8301 272.288C79.8301 272.288 81.2204 273.682 85.1411 272.449L83.6312 265.385L80.9327 265.714Z" fill="url(#paint6_linear_24_4277)"/>
<path d="M80.9572 261.816C80.9572 261.816 79.6303 262.766 78.9389 264.156C78.2474 265.547 77.9559 267.023 79.0136 268.043C80.0713 269.067 81.8654 268.368 84.1341 267.015C86.4028 265.662 86.6121 259.806 80.9572 261.816Z" fill="url(#paint7_linear_24_4277)"/>
<path d="M85.7748 262.463C85.9206 262.743 86.399 263.741 86.1 264.959C85.644 266.806 83.8052 267.247 83.6669 267.295C83.6669 267.295 85.6066 265.703 84.4443 265.386C83.2819 265.068 83.4949 263.162 84.2836 262.392C84.2836 262.392 82.8483 263.162 81.6187 262.459C80.389 261.756 79.7125 263.001 79.7125 263.001C79.8546 262.736 80.4526 261.67 81.7644 261.207C82.0485 261.106 83.009 260.785 84.1228 261.188C85.0759 261.532 85.5954 262.205 85.7748 262.463Z" fill="#233F52"/>
<path d="M70.733 270.065C71.3385 269.029 73.1848 269.048 74.0893 269.059C78.4697 269.104 79.4153 272.296 82.8127 272.247C86.0906 272.199 86.9689 269.205 89.6898 269.732C91.7679 270.132 93.8198 272.375 93.547 274.094C92.9527 277.872 80.772 281.479 74.4219 276.777C72.0673 275.028 69.8173 271.627 70.733 270.065Z" fill="#DA6668"/>
<path d="M202.67 181.077L215.222 159.721C215.49 159.266 215.159 158.692 214.626 158.692H206.539C206.131 158.692 205.753 158.907 205.546 159.258L192.54 181.383C192.093 182.144 192.646 183.099 193.533 183.099H199.186L196.747 187.253C196.299 188.013 196.853 188.969 197.74 188.969H218.113C218.603 188.969 219.057 188.709 219.304 188.289L222.937 182.107C223.204 181.651 222.873 181.079 222.342 181.079H202.67V181.077ZM207.048 160.714H212.282L200.312 181.077H195.078L207.048 160.714ZM217.735 186.947H199.284L201.544 183.099H219.995L217.735 186.947Z" fill="#F2385A"/>
<rect x="24.4944" y="191.662" width="52.617" height="50.9228" stroke="#77C2D7" stroke-width="1.09531" stroke-linecap="square" stroke-linejoin="round"/>
<rect x="24.5571" y="191.72" width="52.4916" height="50.8084" fill="#F4FCFF" stroke="#8EDEF4" stroke-width="0.919199" stroke-linecap="square" stroke-linejoin="round"/>
<rect x="72.713" y="189.633" width="5.46058" height="5.46058" fill="#77C2D7" stroke="#F4FCFF" stroke-width="1.09531"/>
<rect x="22.4783" y="189.884" width="4.64109" height="4.58936" fill="#77C2D7" stroke="#F4FCFF" stroke-width="1.09531"/>
<rect x="22.4783" y="238.84" width="5.46058" height="5.46058" fill="#77C2D7" stroke="#F4FCFF" stroke-width="1.09531"/>
<rect x="72.713" y="238.84" width="5.46058" height="5.46058" fill="#77C2D7" stroke="#F4FCFF" stroke-width="1.09531"/>
<rect x="48.6361" y="240.383" width="4.33528" height="4.29124" fill="#77C2D7" stroke="#F4FCFF" stroke-width="0.547655"/>
<rect x="74.8808" y="214.978" width="4.33528" height="4.29124" fill="#77C2D7" stroke="#F4FCFF" stroke-width="0.547655"/>
<rect x="22.3902" y="214.978" width="4.33528" height="4.29124" fill="#77C2D7" stroke="#F4FCFF" stroke-width="0.547655"/>
<rect x="48.6337" y="189.573" width="4.33528" height="4.29124" fill="#77C2D7" stroke="#F4FCFF" stroke-width="0.547655"/>
<path d="M50.8009 183.251V188.997" stroke="#77C2D7" stroke-width="0.547655" stroke-linecap="square"/>
<ellipse cx="50.8033" cy="179.622" rx="2.44147" ry="2.41945" fill="#77C2D7" stroke="#F4FCFF" stroke-width="0.547655"/>
<path d="M72.0153 207.682C71.9793 205.151 64.11 208.027 63.2016 208.319C63.1133 208.347 63.0635 208.406 63.0374 208.473C62.9739 208.523 62.9366 208.596 62.9267 208.673C62.8271 208.834 62.8931 209.094 63.137 209.085C65.4465 209.002 67.8182 209.039 70.114 208.778C70.6914 208.713 72.0265 208.539 72.0153 207.682Z" fill="#CE2846"/>
<path d="M63.4338 210.671C63.3791 210.672 63.3392 210.695 63.3119 210.728C63.3069 210.728 63.3019 210.728 63.2969 210.727C63.1377 210.717 63.0655 210.962 63.2111 211.034C64.1506 211.499 65.2617 211.655 66.2995 211.736C66.6392 211.762 67.9707 212.036 68.1486 211.487C68.4834 210.46 63.9427 210.664 63.4338 210.671Z" fill="#F2385A"/>
<path d="M65.6837 203.767C65.1448 203.416 64.3821 204.341 64.122 204.658C63.4538 205.476 62.5541 206.515 62.258 207.532C62.2219 207.658 62.3426 207.76 62.4571 207.735C62.5155 207.789 62.6026 207.805 62.6736 207.732C63.0581 207.333 66.7961 204.493 65.6837 203.767Z" fill="#FF768F"/>
<path d="M45.6322 235.48C45.1556 236.302 43.5765 237.154 40.9261 236.711C40.6922 236.674 40.4507 236.626 40.1994 236.566C36.6331 235.717 35.4684 232.969 35.5779 231.953C35.5866 231.882 35.5978 231.816 35.614 231.757C35.6239 231.721 35.6364 231.685 35.6501 231.653C35.8094 231.245 36.1789 231.07 36.4676 230.996C36.6879 230.939 36.8596 230.939 36.8596 230.939L41.7013 232.409L44.7948 233.349C44.7948 233.349 45.1506 233.59 45.4368 233.976C45.6546 234.27 45.8325 234.649 45.779 235.071V235.074C45.7591 235.203 45.7118 235.34 45.6322 235.48Z" fill="#DAE4EC"/>
<path d="M45.6317 235.48C44.5628 236.048 42.8332 236.353 40.5212 235.795C37.2797 235.012 36.044 233.111 35.6147 231.757C35.8437 230.936 36.8591 230.937 36.8591 230.937L44.7943 233.347C44.7943 233.347 45.903 234.097 45.7773 235.073C45.7586 235.203 45.7114 235.34 45.6317 235.48Z" fill="#035970"/>
<path d="M45.7772 235.07C44.8389 235.611 43.3134 235.936 41.2141 235.552C41.0039 235.515 40.7911 235.469 40.5696 235.417C37.7462 234.743 36.2517 233.022 35.6494 231.652C35.3919 231.061 35.2973 230.536 35.3346 230.188C35.3657 229.906 35.4678 229.694 35.6022 229.535C35.6569 229.473 35.7129 229.419 35.7751 229.373C35.9829 229.209 36.2281 229.13 36.4234 229.085C36.5255 229.095 36.5939 229.107 36.5939 229.107L44.4756 231.5L45.5805 231.836C45.5805 231.836 45.8332 231.923 46.148 232.081C46.4006 232.324 46.7079 232.691 46.8361 233.131C46.8846 233.301 46.9083 233.478 46.8921 233.666C46.8896 233.684 46.8883 233.704 46.8846 233.724C46.8311 234.165 46.4578 234.674 45.7772 235.07Z" fill="white"/>
<path d="M46.8953 233.668C45.9135 234.616 43.5966 235.122 40.7184 234.46C36.5051 233.492 35.6801 230.823 35.6029 229.535C35.8368 229.261 36.1716 229.139 36.4242 229.085C36.5262 229.095 36.5946 229.107 36.5946 229.107L45.5825 231.836C45.5825 231.836 45.8351 231.923 46.15 232.081C46.4984 232.417 46.9538 232.991 46.8953 233.668Z" fill="#035970"/>
<path d="M46.8391 233.133C46.528 233.457 46.0614 233.762 45.4367 233.975C44.4873 234.302 43.1782 234.427 41.5133 234.107C41.3366 234.076 41.1549 234.037 40.9683 233.991C38.6575 233.44 37.2365 232.184 36.4675 230.995C36.0867 230.408 35.864 229.835 35.7756 229.374C35.7271 229.136 35.7171 228.929 35.7333 228.763C35.7943 228.21 36.1303 227.924 36.4637 227.777C36.8258 227.613 37.1842 227.614 37.1842 227.614L46.1721 230.343C46.1721 230.343 46.4708 230.546 46.7607 230.88C46.9921 231.149 47.2161 231.503 47.2783 231.903C47.2995 232.03 47.302 232.162 47.2846 232.299C47.251 232.564 47.1029 232.856 46.8391 233.133Z" fill="white"/>
<path d="M47.2792 231.903C46.4007 232.803 44.645 233.91 41.3089 232.967C36.6824 231.658 36.3999 228.821 36.4646 227.777C36.8268 227.613 37.1851 227.614 37.1851 227.614L46.173 230.343C46.173 230.343 47.1411 230.997 47.2792 231.903Z" fill="#035970"/>
<path opacity="0.35" d="M45.7774 235.073C45.7587 235.202 45.7114 235.34 45.6318 235.481C45.1552 236.302 43.5761 237.154 40.9257 236.711C41.3263 236.16 41.2118 235.553 41.2118 235.553L41.2143 235.552C42.0319 234.961 41.4881 234.143 41.4881 234.143C41.4956 234.132 41.5043 234.118 41.5117 234.106C42.0008 233.368 41.8166 232.687 41.6996 232.407C41.6648 232.32 41.6349 232.27 41.6349 232.27L44.4745 231.5L46.7604 230.879C46.9918 231.148 47.2158 231.501 47.278 231.902C47.2992 232.029 47.3017 232.161 47.2843 232.298C47.2494 232.563 47.1013 232.855 46.8363 233.131C46.8848 233.301 46.9085 233.479 46.8923 233.666C46.8898 233.684 46.8885 233.704 46.8848 233.724C46.8288 234.163 46.4555 234.673 45.7749 235.069L45.7774 235.073Z" fill="#9EB6C7"/>
<path d="M52.0513 227.821C49.7965 228.595 48.4514 230.523 46.7018 231.76C46.499 231.905 46.2875 232.038 46.071 232.161C44.9536 232.792 43.6333 233.097 41.8302 232.671C41.6535 232.631 41.4731 232.583 41.2865 232.527C40.5324 232.3 39.7995 231.958 39.1425 231.508C38.9994 231.413 38.8625 231.312 38.7306 231.205C38.5054 231.029 38.2938 230.836 38.0947 230.632C37.806 230.335 37.546 230.014 37.3232 229.664C36.6787 228.651 36.7172 227.466 36.4298 226.347C36.3837 226.167 36.324 225.998 36.2506 225.832C35.8873 225.003 35.2228 224.355 34.6205 223.672C34.3667 223.386 34.1253 223.087 33.9 222.777C28.7061 215.688 31.5943 204.539 39.2806 200.528C40.7813 199.746 42.4201 199.242 44.1049 199.01C46.6297 198.656 49.2515 198.907 51.6332 199.727C51.6755 199.741 51.719 199.758 51.7601 199.772C55.1273 200.966 58.1548 203.298 59.9006 206.448C64.0978 214.023 60.315 224.985 52.0513 227.821Z" fill="#F2385A"/>
<path opacity="0.34" d="M52.0511 227.819C48.1787 229.146 46.9891 233.885 41.8288 232.668C40.7749 230.63 40.4999 228.18 41.1979 225.99C42.4423 222.09 46.3545 219.309 46.9754 215.265C47.3413 212.88 46.459 210.448 45.1151 208.445C44.2926 207.219 43.2822 206.084 42.7994 204.688C42.1163 202.708 42.6663 200.476 44.1047 199.006C46.6743 198.646 49.3447 198.913 51.7599 199.768C55.1271 200.962 58.1546 203.294 59.9004 206.444C64.0976 214.022 60.3148 224.983 52.0511 227.819Z" fill="#FAAFBD"/>
<path d="M53.4369 219.916C53.0897 219.691 52.6393 219.745 52.2623 220.059C51.5978 220.61 51.0888 221.466 50.6384 222.222C50.5563 222.358 50.4778 222.493 50.3982 222.621C50.2128 222.925 50.0287 223.239 49.847 223.563C48.7694 223.883 47.576 224.092 46.6366 223.538C45.8912 223.101 45.3972 222.197 45.3176 221.122C45.3101 221.026 45.3076 220.929 45.3051 220.832C45.8029 220.419 46.2496 219.939 46.6304 219.412L46.7087 219.301C47.0858 218.78 47.5537 218.129 47.703 217.471C47.815 216.97 47.6544 216.486 47.3023 216.267C46.9937 216.076 46.6067 216.126 46.2633 216.401C45.7904 216.781 45.4681 217.503 45.3238 218.052C45.1172 218.841 44.8883 219.718 44.8671 220.62C44.5834 220.843 44.2823 221.041 43.9737 221.215C43.5021 221.477 43.1113 221.616 42.7418 221.652C42.0437 221.72 41.2635 221.421 40.4236 220.764C40.2581 220.636 40.0975 220.499 39.942 220.358C40.0478 218.485 40.0167 216.812 39.1481 215.389C38.8768 214.942 38.5745 214.698 38.2285 214.642C37.6474 214.549 37.146 215.038 37.0153 215.546C36.8871 216.047 37.0252 216.554 37.1771 216.983C37.6536 218.317 38.4612 219.555 39.4891 220.537C39.4866 220.611 39.4816 220.687 39.4766 220.762L39.0822 226.806C38.9876 228.25 38.8918 229.732 38.73 231.198C38.8619 231.307 38.9988 231.406 39.1419 231.501C39.3211 229.941 39.4231 228.369 39.5227 226.833L39.9072 220.913C39.9868 220.981 40.0689 221.047 40.151 221.112C41.0806 221.841 41.9653 222.169 42.7816 222.091C43.2121 222.049 43.6589 221.892 44.184 221.599C44.4229 221.466 44.6531 221.321 44.8758 221.161C44.9691 222.377 45.5415 223.409 46.4089 223.919C47.362 224.48 48.4931 224.373 49.5508 224.101C49.2721 224.624 48.9934 225.178 48.7146 225.769C47.8685 227.561 47.1356 229.434 46.4263 231.243C46.3068 231.548 46.1898 231.853 46.0679 232.156C46.2857 232.034 46.496 231.9 46.6988 231.756C46.7448 231.639 46.7896 231.522 46.8357 231.405C47.5437 229.599 48.2716 227.734 49.1128 225.955C49.4575 225.229 49.7984 224.557 50.1444 223.931C50.1643 223.925 50.1867 223.918 50.2066 223.913C51.7185 223.44 53.3237 222.732 53.789 221.058C53.9222 220.589 53.7828 220.139 53.4369 219.916ZM37.5914 216.839C37.4608 216.47 37.3413 216.046 37.4396 215.659C37.5205 215.343 37.8353 215.028 38.1551 215.08C38.175 215.084 38.1924 215.086 38.2099 215.09C38.4027 215.144 38.5882 215.319 38.7711 215.62C39.5164 216.845 39.5948 218.308 39.5189 219.948C38.6715 219.062 38.0008 217.987 37.5914 216.839ZM45.7481 218.165C45.8688 217.707 46.1463 217.059 46.5383 216.746C46.6975 216.617 46.8531 216.569 46.9825 216.605C47.0124 216.613 47.041 216.626 47.0659 216.642C47.2227 216.738 47.3521 217.01 47.2712 217.375C47.1405 217.947 46.7224 218.531 46.3528 219.044L46.2707 219.155C45.9932 219.542 45.6759 219.901 45.33 220.222C45.3984 219.509 45.5814 218.807 45.7481 218.165ZM50.4667 223.366C50.5687 223.191 50.6707 223.02 50.7753 222.851C50.8524 222.722 50.9333 222.586 51.0154 222.449C51.4497 221.724 51.9362 220.903 52.5422 220.399C52.7264 220.248 52.9255 220.19 53.0885 220.236C53.1271 220.247 53.1631 220.263 53.1967 220.284C53.3809 220.404 53.4456 220.656 53.366 220.942C52.9964 222.276 51.7396 222.93 50.4667 223.366Z" fill="white"/>
<path d="M36.5462 205.685C36.6457 205.511 36.7677 205.348 36.8896 205.188C36.9195 205.148 36.8784 205.201 36.9095 205.162C36.927 205.139 36.9444 205.117 36.9618 205.094C36.9966 205.051 37.0315 205.007 37.0676 204.965C37.1472 204.868 37.2293 204.773 37.314 204.68C37.523 204.449 37.7432 204.227 37.9722 204.014C39.3335 202.758 41.0121 201.874 42.7866 201.361C44.2599 200.936 45.7904 200.764 47.3222 200.774C47.5624 200.775 47.5624 200.402 47.3222 200.401C44.8024 200.383 42.2602 200.871 40.0353 202.087C38.7711 202.777 37.6001 203.699 36.6992 204.831C36.5313 205.042 36.3608 205.26 36.2252 205.496C36.1045 205.705 36.4267 205.894 36.5462 205.685Z" fill="white"/>
<path d="M50.4852 201.115C50.3433 201.624 49.8157 201.922 49.3055 201.78C48.7966 201.638 48.4992 201.11 48.641 200.6C48.7829 200.091 49.3105 199.794 49.8207 199.936C50.3309 200.078 50.627 200.606 50.4852 201.115Z" fill="white"/>
<g opacity="0.6">
<path opacity="0.8" d="M182.715 208.028C183.267 208.02 183.703 208.498 183.648 209.052L183.636 209.169L182.609 219.508C182.562 219.979 182.174 220.339 181.706 220.346L164.542 220.613C163.991 220.621 163.554 220.143 163.609 219.589L164.533 210.289C164.58 209.819 164.968 209.458 165.436 209.451L176.42 209.28C176.794 209.275 177.128 209.041 177.264 208.69C177.401 208.339 177.735 208.106 178.109 208.1L182.715 208.028Z" fill="#77C2D7"/>
<path d="M219.209 208.028C219.76 208.02 220.197 208.498 220.142 209.052L220.13 209.168L219.103 219.508C219.056 219.978 218.668 220.339 218.199 220.346L201.036 220.613C200.484 220.621 200.048 220.143 200.103 219.588L201.026 210.289C201.074 209.819 201.462 209.458 201.93 209.451L212.913 209.28C213.288 209.275 213.622 209.041 213.758 208.69C213.894 208.339 214.228 208.105 214.603 208.1L219.209 208.028Z" fill="#77C2D7"/>
<path d="M255.705 208.027C256.257 208.019 256.693 208.497 256.639 209.052L256.627 209.168L255.599 219.508C255.552 219.978 255.164 220.338 254.696 220.346L237.532 220.612C236.981 220.62 236.545 220.142 236.599 219.588L237.523 210.288C237.57 209.818 237.958 209.457 238.426 209.45L249.409 209.279C249.783 209.274 250.117 209.041 250.253 208.689C250.39 208.338 250.724 208.105 251.098 208.099L255.705 208.027Z" fill="#77C2D7"/>
</g>
<g opacity="0.6">
<path d="M182.715 240.171C183.266 240.163 183.702 240.641 183.648 241.196L183.636 241.312L182.609 251.652C182.562 252.122 182.173 252.482 181.705 252.49L164.541 252.756C163.99 252.764 163.554 252.286 163.608 251.732L164.532 242.432C164.579 241.962 164.967 241.601 165.436 241.594L176.419 241.423C176.793 241.418 177.127 241.185 177.263 240.833C177.4 240.482 177.734 240.249 178.108 240.243L182.715 240.171Z" fill="#FFF1CC"/>
<path d="M219.212 240.171C219.763 240.162 220.199 240.641 220.145 241.195L220.133 241.311L219.106 251.651C219.059 252.121 218.671 252.482 218.202 252.489L201.038 252.756C200.487 252.764 200.051 252.285 200.105 251.731L201.029 242.431C201.076 241.961 201.464 241.601 201.933 241.593L212.916 241.423C213.291 241.417 213.624 241.184 213.761 240.833C213.897 240.481 214.231 240.248 214.605 240.243L219.212 240.171Z" fill="#FAB1A5"/>
<path d="M255.705 240.171C256.257 240.162 256.693 240.641 256.639 241.195L256.627 241.311L255.599 251.651C255.552 252.121 255.164 252.482 254.696 252.489L237.532 252.756C236.981 252.764 236.545 252.285 236.599 251.731L237.523 242.431C237.57 241.961 237.958 241.601 238.426 241.593L249.409 241.423C249.783 241.417 250.117 241.184 250.253 240.833C250.39 240.481 250.724 240.248 251.098 240.243L255.705 240.171Z" fill="#B2ECFC"/>
</g>
<path d="M5.3614 264.82C6.45162 264.247 7.90501 264.666 8.60764 265.755L21.3299 285.481C22.0325 286.571 21.7183 287.918 20.6281 288.492L10.7914 294.381L13.9991 299.318C14.1736 299.589 14.2292 299.906 14.1529 300.196C13.9994 300.778 13.3641 301.09 12.734 300.893L3.90841 298.575L-9.47562 304.317C-10.5658 304.89 -12.0192 304.471 -12.7219 303.382L-25.4441 283.656C-26.1467 282.566 -25.8325 281.218 -24.7423 280.645L5.3614 264.82Z" fill="#FAAFBD"/>
<path d="M-4.43683 281.398C-5.36917 279.952 -4.79928 278.084 -3.16395 277.224C-1.52862 276.364 0.495189 276.75 2.04794 279.157C3.0831 280.762 2.79723 284.418 1.19032 290.123C-5.09884 288.568 -8.761 286.989 -9.79617 285.384C-11.3489 282.976 -10.7213 281.197 -9.086 280.337C-7.45067 279.477 -5.36917 279.952 -4.43683 281.398Z" fill="white"/>
<path d="M223.262 331.54C223.207 331.55 223.15 331.55 223.095 331.54L215.031 329.124C214.881 329.08 214.755 328.977 214.68 328.838C214.606 328.699 214.589 328.537 214.633 328.385C214.678 328.234 214.78 328.107 214.918 328.032C215.055 327.957 215.217 327.94 215.367 327.985L222.385 330.091L220.295 322.995C220.25 322.844 220.266 322.681 220.34 322.542C220.414 322.403 220.54 322.299 220.69 322.253C220.84 322.208 221.002 322.224 221.14 322.299C221.278 322.374 221.381 322.501 221.426 322.652L223.823 330.776C223.849 330.865 223.855 330.959 223.839 331.05C223.822 331.141 223.785 331.227 223.73 331.301C223.676 331.375 223.604 331.435 223.522 331.477C223.44 331.518 223.349 331.54 223.258 331.54H223.262Z" fill="#618298"/>
<path d="M215.199 329.12C215.12 329.12 215.042 329.104 214.97 329.073C214.897 329.043 214.832 328.998 214.777 328.941L194.388 307.972C194.278 307.86 194.217 307.708 194.218 307.549C194.22 307.391 194.283 307.24 194.395 307.13C194.507 307.019 194.658 306.957 194.815 306.959C194.972 306.96 195.122 307.024 195.232 307.137L215.204 327.68L220.026 322.821L200.05 302.268C199.995 302.213 199.951 302.147 199.922 302.075C199.892 302.003 199.877 301.926 199.877 301.848C199.877 301.77 199.892 301.692 199.922 301.62C199.951 301.548 199.995 301.483 200.05 301.427C200.161 301.316 200.312 301.253 200.469 301.253C200.626 301.253 200.777 301.316 200.889 301.427L221.282 322.405C221.392 322.517 221.453 322.668 221.453 322.826C221.453 322.983 221.392 323.134 221.282 323.246L215.616 328.946C215.561 329.001 215.496 329.045 215.425 329.074C215.353 329.104 215.276 329.12 215.199 329.12Z" fill="#618298"/>
<path d="M217.735 326.048C217.579 326.047 217.429 325.985 217.318 325.874L197.24 305.64C197.172 305.59 197.114 305.525 197.072 305.451C197.031 305.376 197.005 305.294 196.998 305.209C196.99 305.124 197.001 305.038 197.03 304.957C197.059 304.877 197.104 304.803 197.163 304.742C197.223 304.681 197.294 304.634 197.374 304.603C197.453 304.572 197.538 304.559 197.622 304.565C197.707 304.57 197.79 304.594 197.864 304.634C197.939 304.675 198.004 304.731 198.055 304.799L218.152 325.028C218.263 325.141 218.325 325.293 218.325 325.451C218.325 325.609 218.263 325.761 218.152 325.874C218.097 325.929 218.032 325.973 217.961 326.003C217.889 326.033 217.812 326.048 217.735 326.048Z" fill="#618298"/>
<path d="M224.058 331.24C226.748 329.646 229.566 328.284 232.208 326.622C233.535 325.804 234.795 324.88 235.976 323.859C236.562 323.347 237.118 322.8 237.64 322.222C238.222 321.68 238.688 321.022 239.006 320.29C239.119 319.977 239.129 319.636 239.034 319.318C238.939 318.999 238.744 318.72 238.479 318.522C238.235 318.399 237.97 318.326 237.698 318.307C237.426 318.289 237.154 318.326 236.897 318.416C235.458 318.802 234.116 319.831 233.009 320.787C231.777 321.85 230.53 323.203 229.907 324.705C229.427 325.888 229.504 327.444 230.525 328.327C232.261 329.82 235.238 328.472 236.82 327.361L236.072 326.376C235.841 326.592 235.67 326.866 235.577 327.169C235.483 327.473 235.471 327.795 235.54 328.105C235.668 328.391 235.897 328.619 236.182 328.745C236.466 328.872 236.788 328.888 237.084 328.791C238.258 328.545 239.15 327.245 240.377 327.265L240.061 326.096C239.581 326.376 239.476 327.26 239.399 327.753C239.359 327.913 239.381 328.082 239.461 328.226C239.542 328.37 239.674 328.477 239.83 328.526C240.703 328.714 241.61 328.65 242.448 328.342C242.867 328.205 243.279 328.043 243.68 327.859C244.044 327.695 244.399 327.448 244.773 327.308L244.169 326.26C243.493 326.927 242.606 328.511 244.04 328.888C245.093 329.083 246.178 329.006 247.194 328.666C249.179 328.125 251.226 326.965 253.306 327.748C254.059 328.028 254.385 326.816 253.637 326.535C251.911 325.888 250.152 326.376 248.479 326.941C247.654 327.249 246.806 327.492 245.943 327.666C245.525 327.737 245.1 327.754 244.677 327.719C244.596 327.698 244.512 327.688 244.428 327.69C244.284 327.646 244.303 327.738 244.49 327.965L244.557 327.825C244.704 327.596 244.864 327.377 245.037 327.168C245.459 326.748 245.037 325.893 244.433 326.115C243.09 326.598 241.676 327.738 240.152 327.328L240.588 328.096C240.621 327.902 240.674 327.709 240.727 327.516C240.755 327.389 240.791 327.263 240.832 327.139C240.919 326.845 240.924 327.033 240.679 327.188C240.793 327.116 240.881 327.009 240.93 326.883C240.98 326.757 240.987 326.618 240.953 326.487C240.918 326.356 240.842 326.24 240.737 326.155C240.631 326.071 240.502 326.023 240.367 326.019C239.542 326.077 238.751 326.38 238.095 326.888C237.776 327.111 237.441 327.309 237.093 327.482C236.978 327.53 236.666 327.588 236.676 327.622C236.686 327.656 236.753 327.521 236.772 327.497C236.821 327.407 236.877 327.321 236.94 327.241C237.366 326.758 236.805 325.816 236.187 326.275C235.544 326.722 234.844 327.081 234.106 327.342C233.396 327.651 232.612 327.747 231.848 327.617C231.014 327.395 230.736 326.453 230.89 325.685C231.177 324.328 232.328 323.125 233.287 322.203C234.297 321.2 235.473 320.383 236.762 319.787C237.068 319.61 237.424 319.538 237.774 319.585C237.875 319.623 237.774 319.585 237.774 319.585C237.807 319.682 237.807 319.787 237.774 319.884C237.654 320.214 237.464 320.514 237.218 320.763C235.517 322.744 233.502 324.427 231.254 325.743C228.704 327.313 225.981 328.641 223.43 330.158C223.299 330.247 223.206 330.384 223.17 330.539C223.135 330.695 223.16 330.858 223.24 330.996C223.32 331.134 223.449 331.236 223.601 331.282C223.753 331.327 223.917 331.312 224.058 331.24Z" fill="#618298"/>
<path d="M256.945 328.308C257.11 328.308 257.269 328.242 257.386 328.124C257.503 328.006 257.568 327.847 257.568 327.68C257.568 327.514 257.503 327.354 257.386 327.236C257.269 327.118 257.11 327.052 256.945 327.052C256.78 327.052 256.621 327.118 256.504 327.236C256.388 327.354 256.322 327.514 256.322 327.68C256.322 327.847 256.388 328.006 256.504 328.124C256.621 328.242 256.78 328.308 256.945 328.308Z" fill="#618298"/>
<path d="M87.2915 102.721L67.1055 90.1113C67.1055 90.1113 59.0751 106.144 43.3743 112.912L60.6469 127.511C60.6469 127.511 80.9177 120.761 87.2915 102.721Z" fill="#FAB1A5"/>
<path opacity="0.517119" d="M53.1927 111.884L51.6184 112.836L64.4572 122.36L66.3789 121.437L53.1927 111.884Z" fill="white"/>
<path opacity="0.517119" d="M64.3564 99.9426L79.503 108.543L78.4761 110.01L63.3981 101.43L64.3564 99.9426Z" fill="white"/>
<path opacity="0.517119" d="M69.3607 108.198L76.973 112.419L75.9461 113.886L68.4024 109.686L69.3607 108.198Z" fill="white"/>
<path opacity="0.517119" d="M62.2428 102.882L67.1629 106.221C67.0333 106.503 66.8646 106.824 66.6567 107.183C65.7064 108.827 64.3655 110.261 62.7299 111.383C62.0638 111.84 61.5037 112.238 61.0498 112.578L55.9883 109.006C56.2349 108.874 56.5087 108.723 56.8095 108.554C58.9186 107.369 60.6384 105.696 61.7912 103.709C61.9643 103.411 62.1149 103.135 62.2428 102.882Z" fill="white"/>
<path opacity="0.517119" d="M66.5426 111.24L73.36 116.122C72.5749 117.179 71.6977 118.073 70.7283 118.803C69.7588 119.533 68.7373 120.069 67.6636 120.41L60.7482 115.623C62.2057 114.845 63.3561 114.134 64.1996 113.49C65.0431 112.846 65.8241 112.096 66.5426 111.24Z" fill="white"/>
<g clip-path="url(#clip0_24_4277)">
<path d="M103.541 155.828H97.6197C97.5452 155.833 97.4704 155.823 97.4001 155.798C97.3297 155.773 97.2653 155.734 97.2107 155.683C97.1561 155.632 97.1126 155.57 97.0829 155.502C97.0531 155.434 97.0378 155.36 97.0378 155.285C97.0378 155.211 97.0531 155.137 97.0829 155.069C97.1126 155 97.1561 154.939 97.2107 154.888C97.2653 154.837 97.3297 154.798 97.4001 154.773C97.4704 154.748 97.5452 154.738 97.6197 154.743H103.541C103.679 154.753 103.808 154.814 103.902 154.914C103.996 155.015 104.048 155.148 104.048 155.285C104.048 155.423 103.996 155.556 103.902 155.656C103.808 155.757 103.679 155.818 103.541 155.828Z" fill="#8EDEF4"/>
<path d="M122.241 185.867H92.4934C92.3496 185.867 92.2118 185.81 92.1101 185.708C92.0085 185.607 91.9514 185.469 91.9514 185.326V142.795C91.951 142.724 91.9648 142.653 91.9919 142.587C92.019 142.521 92.0588 142.461 92.1092 142.411C92.1596 142.36 92.2194 142.32 92.2854 142.293C92.3513 142.266 92.422 142.251 92.4934 142.251H122.241C122.386 142.251 122.524 142.309 122.626 142.411C122.728 142.513 122.786 142.651 122.786 142.795V185.326C122.786 185.397 122.772 185.467 122.744 185.533C122.717 185.599 122.677 185.659 122.626 185.709C122.576 185.759 122.516 185.799 122.449 185.826C122.383 185.853 122.313 185.867 122.241 185.867ZM93.038 184.782H121.699V143.336H93.038V184.782Z" fill="#8EDEF4"/>
<path d="M117.117 164.499H97.6197C97.4759 164.499 97.338 164.442 97.2364 164.341C97.1347 164.239 97.0776 164.102 97.0776 163.958C97.0776 163.815 97.1347 163.677 97.2364 163.576C97.338 163.474 97.4759 163.417 97.6197 163.417H117.117C117.261 163.417 117.399 163.474 117.501 163.576C117.602 163.677 117.66 163.815 117.66 163.958C117.66 164.102 117.602 164.239 117.501 164.341C117.399 164.442 117.261 164.499 117.117 164.499Z" fill="#8EDEF4"/>
<path d="M117.117 169.179H97.6197C97.5452 169.185 97.4704 169.174 97.4001 169.149C97.3297 169.124 97.2653 169.085 97.2107 169.034C97.1561 168.984 97.1126 168.922 97.0829 168.854C97.0531 168.785 97.0378 168.712 97.0378 168.637C97.0378 168.563 97.0531 168.489 97.0829 168.421C97.1126 168.352 97.1561 168.291 97.2107 168.24C97.2653 168.189 97.3297 168.15 97.4001 168.125C97.4704 168.1 97.5452 168.09 97.6197 168.095H117.117C117.255 168.104 117.384 168.166 117.478 168.266C117.572 168.367 117.625 168.499 117.625 168.637C117.625 168.775 117.572 168.907 117.478 169.008C117.384 169.109 117.255 169.17 117.117 169.179Z" fill="#8EDEF4"/>
<path d="M117.117 173.857H97.6197C97.4759 173.857 97.338 173.8 97.2364 173.699C97.1347 173.597 97.0776 173.46 97.0776 173.316C97.0776 173.173 97.1347 173.035 97.2364 172.934C97.338 172.832 97.4759 172.775 97.6197 172.775H117.117C117.261 172.775 117.399 172.832 117.501 172.934C117.602 173.035 117.66 173.173 117.66 173.316C117.66 173.46 117.602 173.597 117.501 173.699C117.399 173.8 117.261 173.857 117.117 173.857Z" fill="#8EDEF4"/>
<path d="M131.581 156.938H110.03C109.959 156.938 109.888 156.924 109.822 156.896C109.756 156.869 109.696 156.829 109.646 156.778C109.596 156.728 109.556 156.668 109.529 156.602C109.502 156.536 109.488 156.466 109.488 156.394V134.881C109.488 134.738 109.545 134.6 109.647 134.499C109.749 134.397 109.886 134.34 110.03 134.34H131.581C131.725 134.34 131.863 134.397 131.964 134.499C132.066 134.6 132.123 134.738 132.123 134.881V156.394C132.123 156.466 132.11 156.536 132.083 156.602C132.055 156.668 132.016 156.728 131.965 156.778C131.915 156.829 131.855 156.869 131.789 156.896C131.723 156.924 131.652 156.938 131.581 156.938ZM110.575 155.853H131.029V135.438H110.575V155.853Z" fill="#8EDEF4"/>
<path d="M131.668 137.201C133.185 137.201 134.414 135.974 134.414 134.46C134.414 132.947 133.185 131.72 131.668 131.72C130.151 131.72 128.922 132.947 128.922 134.46C128.922 135.974 130.151 137.201 131.668 137.201Z" fill="#8EDEF4"/>
<path d="M110.03 137.201C111.547 137.201 112.776 135.974 112.776 134.46C112.776 132.947 111.547 131.72 110.03 131.72C108.514 131.72 107.284 132.947 107.284 134.46C107.284 135.974 108.514 137.201 110.03 137.201Z" fill="#8EDEF4"/>
<path d="M131.668 158.563C133.185 158.563 134.414 157.336 134.414 155.823C134.414 154.309 133.185 153.082 131.668 153.082C130.151 153.082 128.922 154.309 128.922 155.823C128.922 157.336 130.151 158.563 131.668 158.563Z" fill="#8EDEF4"/>
<path d="M110.03 158.563C111.547 158.563 112.776 157.336 112.776 155.823C112.776 154.309 111.547 153.082 110.03 153.082C108.514 153.082 107.284 154.309 107.284 155.823C107.284 157.336 108.514 158.563 110.03 158.563Z" fill="#8EDEF4"/>
<path d="M117.117 178.795H97.6197C97.5452 178.8 97.4704 178.79 97.4001 178.765C97.3297 178.74 97.2653 178.701 97.2107 178.65C97.1561 178.599 97.1126 178.538 97.0829 178.469C97.0531 178.401 97.0378 178.327 97.0378 178.253C97.0378 178.178 97.0531 178.105 97.0829 178.036C97.1126 177.968 97.1561 177.906 97.2107 177.855C97.2653 177.805 97.3297 177.766 97.4001 177.741C97.4704 177.716 97.5452 177.705 97.6197 177.711H117.117C117.255 177.72 117.384 177.781 117.478 177.882C117.572 177.982 117.625 178.115 117.625 178.253C117.625 178.391 117.572 178.523 117.478 178.624C117.384 178.724 117.255 178.786 117.117 178.795Z" fill="#8EDEF4"/>
</g>
</g>
<defs>
<filter id="filter0_dd_24_4277" x="-127.37" y="-396.68" width="854.806" height="461.857" filterUnits="userSpaceOnUse" color-interpolation-filters="sRGB">
<feFlood flood-opacity="0" result="BackgroundImageFix"/>
<feColorMatrix in="SourceAlpha" type="matrix" values="0 0 0 0 0 0 0 0 0 0 0 0 0 0 0 0 0 0 127 0" result="hardAlpha"/>
<feMorphology radius="2" operator="erode" in="SourceAlpha" result="effect1_dropShadow_24_4277"/>
<feOffset dy="2"/>
<feGaussianBlur stdDeviation="2"/>
<feColorMatrix type="matrix" values="0 0 0 0 0.0470588 0 0 0 0 0.352941 0 0 0 0 0.439216 0 0 0 0.08 0"/>
<feBlend mode="normal" in2="BackgroundImageFix" result="effect1_dropShadow_24_4277"/>
<feColorMatrix in="SourceAlpha" type="matrix" values="0 0 0 0 0 0 0 0 0 0 0 0 0 0 0 0 0 0 127 0" result="hardAlpha"/>
<feMorphology radius="2" operator="erode" in="SourceAlpha" result="effect2_dropShadow_24_4277"/>
<feOffset dy="2"/>
<feGaussianBlur stdDeviation="2"/>
<feColorMatrix type="matrix" values="0 0 0 0 0.0470588 0 0 0 0 0.352941 0 0 0 0 0.439216 0 0 0 0.12 0"/>
<feBlend mode="normal" in2="effect1_dropShadow_24_4277" result="effect2_dropShadow_24_4277"/>
<feBlend mode="normal" in="SourceGraphic" in2="effect2_dropShadow_24_4277" result="shape"/>
</filter>
<filter id="filter1_dd_24_4277" x="-162.847" y="-281.074" width="638.474" height="341.177" filterUnits="userSpaceOnUse" color-interpolation-filters="sRGB">
<feFlood flood-opacity="0" result="BackgroundImageFix"/>
<feColorMatrix in="SourceAlpha" type="matrix" values="0 0 0 0 0 0 0 0 0 0 0 0 0 0 0 0 0 0 127 0" result="hardAlpha"/>
<feMorphology radius="2" operator="erode" in="SourceAlpha" result="effect1_dropShadow_24_4277"/>
<feOffset dy="2"/>
<feGaussianBlur stdDeviation="2"/>
<feColorMatrix type="matrix" values="0 0 0 0 0.0470588 0 0 0 0 0.352941 0 0 0 0 0.439216 0 0 0 0.08 0"/>
<feBlend mode="normal" in2="BackgroundImageFix" result="effect1_dropShadow_24_4277"/>
<feColorMatrix in="SourceAlpha" type="matrix" values="0 0 0 0 0 0 0 0 0 0 0 0 0 0 0 0 0 0 127 0" result="hardAlpha"/>
<feMorphology radius="2" operator="erode" in="SourceAlpha" result="effect2_dropShadow_24_4277"/>
<feOffset dy="2"/>
<feGaussianBlur stdDeviation="2"/>
<feColorMatrix type="matrix" values="0 0 0 0 0.0470588 0 0 0 0 0.352941 0 0 0 0 0.439216 0 0 0 0.12 0"/>
<feBlend mode="normal" in2="effect1_dropShadow_24_4277" result="effect2_dropShadow_24_4277"/>
<feBlend mode="normal" in="SourceGraphic" in2="effect2_dropShadow_24_4277" result="shape"/>
</filter>
<filter id="filter2_ddd_24_4277" x="-155.592" y="382.43" width="844.006" height="457.924" filterUnits="userSpaceOnUse" color-interpolation-filters="sRGB">
<feFlood flood-opacity="0" result="BackgroundImageFix"/>
<feColorMatrix in="SourceAlpha" type="matrix" values="0 0 0 0 0 0 0 0 0 0 0 0 0 0 0 0 0 0 127 0" result="hardAlpha"/>
<feOffset dx="6.91955" dy="1.43317"/>
<feGaussianBlur stdDeviation="4.01221"/>
<feColorMatrix type="matrix" values="0 0 0 0 0.458824 0 0 0 0 0.027451 0 0 0 0 0.027451 0 0 0 0.0379688 0"/>
<feBlend mode="normal" in2="BackgroundImageFix" result="effect1_dropShadow_24_4277"/>
<feColorMatrix in="SourceAlpha" type="matrix" values="0 0 0 0 0 0 0 0 0 0 0 0 0 0 0 0 0 0 127 0" result="hardAlpha"/>
<feOffset dx="13.1215" dy="2.71772"/>
<feGaussianBlur stdDeviation="6.74375"/>
<feColorMatrix type="matrix" values="0 0 0 0 0.458824 0 0 0 0 0.027451 0 0 0 0 0.027451 0 0 0 0.045 0"/>
<feBlend mode="normal" in2="effect1_dropShadow_24_4277" result="effect2_dropShadow_24_4277"/>
<feColorMatrix in="SourceAlpha" type="matrix" values="0 0 0 0 0 0 0 0 0 0 0 0 0 0 0 0 0 0 127 0" result="hardAlpha"/>
<feOffset dx="21.7838" dy="4.51185"/>
<feGaussianBlur stdDeviation="11.2261"/>
<feColorMatrix type="matrix" values="0 0 0 0 0.458824 0 0 0 0 0.027451 0 0 0 0 0.027451 0 0 0 0.0520312 0"/>
<feBlend mode="normal" in2="effect2_dropShadow_24_4277" result="effect3_dropShadow_24_4277"/>
<feBlend mode="normal" in="SourceGraphic" in2="effect3_dropShadow_24_4277" result="shape"/>
</filter>
<filter id="filter3_dddddd_24_4277" x="-387.685" y="321.489" width="1035.43" height="505.681" filterUnits="userSpaceOnUse" color-interpolation-filters="sRGB">
<feFlood flood-opacity="0" result="BackgroundImageFix"/>
<feColorMatrix in="SourceAlpha" type="matrix" values="0 0 0 0 0 0 0 0 0 0 0 0 0 0 0 0 0 0 127 0" result="hardAlpha"/>
<feOffset dx="6.91955" dy="1.43317"/>
<feGaussianBlur stdDeviation="4.01221"/>
<feColorMatrix type="matrix" values="0 0 0 0 0.458824 0 0 0 0 0.027451 0 0 0 0 0.027451 0 0 0 0.0379688 0"/>
<feBlend mode="normal" in2="BackgroundImageFix" result="effect1_dropShadow_24_4277"/>
<feColorMatrix in="SourceAlpha" type="matrix" values="0 0 0 0 0 0 0 0 0 0 0 0 0 0 0 0 0 0 127 0" result="hardAlpha"/>
<feOffset dx="13.1215" dy="2.71772"/>
<feGaussianBlur stdDeviation="6.74375"/>
<feColorMatrix type="matrix" values="0 0 0 0 0.458824 0 0 0 0 0.027451 0 0 0 0 0.027451 0 0 0 0.045 0"/>
<feBlend mode="normal" in2="effect1_dropShadow_24_4277" result="effect2_dropShadow_24_4277"/>
<feColorMatrix in="SourceAlpha" type="matrix" values="0 0 0 0 0 0 0 0 0 0 0 0 0 0 0 0 0 0 127 0" result="hardAlpha"/>
<feOffset dx="21.7838" dy="4.51185"/>
<feGaussianBlur stdDeviation="11.2261"/>
<feColorMatrix type="matrix" values="0 0 0 0 0.458824 0 0 0 0 0.027451 0 0 0 0 0.027451 0 0 0 0.0520312 0"/>
<feBlend mode="normal" in2="effect2_dropShadow_24_4277" result="effect3_dropShadow_24_4277"/>
<feColorMatrix in="SourceAlpha" type="matrix" values="0 0 0 0 0 0 0 0 0 0 0 0 0 0 0 0 0 0 127 0" result="hardAlpha"/>
<feOffset dx="33.2138" dy="6.87924"/>
<feGaussianBlur stdDeviation="18.0914"/>
<feColorMatrix type="matrix" values="0 0 0 0 0.458824 0 0 0 0 0.027451 0 0 0 0 0.027451 0 0 0 0.06075 0"/>
<feBlend mode="normal" in2="effect3_dropShadow_24_4277" result="effect4_dropShadow_24_4277"/>
<feColorMatrix in="SourceAlpha" type="matrix" values="0 0 0 0 0 0 0 0 0 0 0 0 0 0 0 0 0 0 127 0" result="hardAlpha"/>
<feOffset dx="47.7192" dy="9.8836"/>
<feGaussianBlur stdDeviation="27.972"/>
<feColorMatrix type="matrix" values="0 0 0 0 0.458824 0 0 0 0 0.027451 0 0 0 0 0.027451 0 0 0 0.0728438 0"/>
<feBlend mode="normal" in2="effect4_dropShadow_24_4277" result="effect5_dropShadow_24_4277"/>
<feColorMatrix in="SourceAlpha" type="matrix" values="0 0 0 0 0 0 0 0 0 0 0 0 0 0 0 0 0 0 127 0" result="hardAlpha"/>
<feOffset dx="65.6075" dy="13.5886"/>
<feGaussianBlur stdDeviation="41.5"/>
<feColorMatrix type="matrix" values="0 0 0 0 0.458824 0 0 0 0 0.027451 0 0 0 0 0.027451 0 0 0 0.09 0"/>
<feBlend mode="normal" in2="effect5_dropShadow_24_4277" result="effect6_dropShadow_24_4277"/>
<feBlend mode="normal" in="SourceGraphic" in2="effect6_dropShadow_24_4277" result="shape"/>
</filter>
<linearGradient id="paint0_linear_24_4277" x1="218.253" y1="76.444" x2="233.892" y2="209.016" gradientUnits="userSpaceOnUse">
<stop stop-color="#99DAEC"/>
<stop offset="0.572917" stop-color="#EBF5F9" stop-opacity="0"/>
</linearGradient>
<linearGradient id="paint1_linear_24_4277" x1="265.379" y1="101.631" x2="258.762" y2="191.143" gradientUnits="userSpaceOnUse">
<stop stop-color="#99DAEC"/>
<stop offset="0.572917" stop-color="#EBF5F9" stop-opacity="0"/>
</linearGradient>
<linearGradient id="paint2_linear_24_4277" x1="23.4312" y1="248.568" x2="35.8322" y2="257.248" gradientUnits="userSpaceOnUse">
<stop stop-color="#F9B776"/>
<stop offset="0.632873" stop-color="#F47960"/>
</linearGradient>
<linearGradient id="paint3_linear_24_4277" x1="85.6431" y1="209.839" x2="89.1396" y2="217.958" gradientUnits="userSpaceOnUse">
<stop stop-color="#F9B776"/>
<stop offset="0.632873" stop-color="#F47960"/>
</linearGradient>
<linearGradient id="paint4_linear_24_4277" x1="136.433" y1="390.862" x2="157.594" y2="404.544" gradientUnits="userSpaceOnUse">
<stop stop-color="#F9B776"/>
<stop offset="0.632873" stop-color="#F47960"/>
</linearGradient>
<linearGradient id="paint5_linear_24_4277" x1="31.5259" y1="346.03" x2="49.1139" y2="358.94" gradientUnits="userSpaceOnUse">
<stop stop-color="#F9B776"/>
<stop offset="0.632873" stop-color="#F47960"/>
</linearGradient>
<linearGradient id="paint6_linear_24_4277" x1="80.8382" y1="271.947" x2="84.0052" y2="267.274" gradientUnits="userSpaceOnUse">
<stop stop-color="#F9B776"/>
<stop offset="0.256261" stop-color="#F79E6D"/>
<stop offset="1" stop-color="#F47960"/>
</linearGradient>
<linearGradient id="paint7_linear_24_4277" x1="81.3819" y1="265.858" x2="87.52" y2="270.216" gradientUnits="userSpaceOnUse">
<stop stop-color="#F9B776"/>
<stop offset="0.632873" stop-color="#F47960"/>
</linearGradient>
<clipPath id="clip0_24_4277">
<rect width="42.4626" height="54.1469" fill="white" transform="translate(91.9514 131.72)"/>
</clipPath>
</defs>
</svg>
