<svg width="24" height="24" viewBox="0 0 24 24" fill="none" xmlns="http://www.w3.org/2000/svg">
<g id="fluent:receipt-sparkles-20-filled" clip-path="url(#clip0_3404_24462)">
<g id="Vector">
<path d="M18.2713 1.62379L17.8537 0.33979C17.8191 0.240248 17.7543 0.153958 17.6684 0.092895C17.5825 0.0318316 17.4797 -0.000976562 17.3743 -0.000976562C17.2689 -0.000976563 17.1661 0.0318316 17.0802 0.092895C16.9943 0.153958 16.9295 0.240248 16.8949 0.33979L16.4773 1.62379C16.3503 2.012 16.135 2.36545 15.8483 2.65635C15.5616 2.94724 15.2112 3.16763 14.8249 3.30019L13.5397 3.71779C13.4406 3.75268 13.3547 3.81748 13.294 3.90324C13.2333 3.98901 13.2006 4.0915 13.2006 4.19659C13.2006 4.30168 13.2333 4.40417 13.294 4.48994C13.3547 4.5757 13.4406 4.6405 13.5397 4.67539L14.8249 5.09299C15.2169 5.22278 15.573 5.4427 15.8646 5.7351C16.1561 6.0275 16.375 6.38422 16.5037 6.77659L16.9213 8.06059C16.9562 8.15971 17.021 8.24557 17.1068 8.3063C17.1925 8.36703 17.295 8.39964 17.4001 8.39964C17.5052 8.39964 17.6077 8.36703 17.6934 8.3063C17.7792 8.24557 17.844 8.15971 17.8789 8.06059L18.2977 6.77659C18.4272 6.38568 18.6464 6.03049 18.9377 5.73941C19.2289 5.44832 19.5843 5.22942 19.9753 5.10019L21.2617 4.68259C21.3608 4.6477 21.4467 4.5829 21.5074 4.49714C21.5681 4.41137 21.6007 4.30888 21.6007 4.20379C21.6007 4.0987 21.5681 3.99621 21.5074 3.91044C21.4467 3.82468 21.3608 3.75988 21.2617 3.72499L21.2353 3.71779L19.9489 3.30019C19.5579 3.17096 19.2025 2.95206 18.9113 2.66097C18.62 2.36989 18.4008 2.0147 18.2713 1.62379ZM22.8205 9.55819L23.7397 9.85579L23.7577 9.86059C23.828 9.88598 23.8888 9.93244 23.9318 9.99364C23.9748 10.0548 23.9978 10.1278 23.9978 10.2026C23.9978 10.2774 23.9748 10.3503 23.9318 10.4115C23.8888 10.4727 23.828 10.5192 23.7577 10.5446L22.8397 10.8422C22.5603 10.9351 22.3064 11.0918 22.0982 11.2999C21.8899 11.508 21.7329 11.7617 21.6397 12.041L21.3421 12.9578C21.3173 13.0287 21.271 13.0901 21.2097 13.1335C21.1485 13.177 21.0752 13.2003 21.0001 13.2003C20.925 13.2003 20.8517 13.177 20.7905 13.1335C20.7292 13.0901 20.6829 13.0287 20.6581 12.9578L20.3593 12.041C20.2667 11.7612 20.1101 11.5068 19.902 11.2981C19.6939 11.0894 19.44 10.932 19.1605 10.8386L18.2425 10.5398C18.1722 10.5144 18.1114 10.4679 18.0684 10.4067C18.0254 10.3455 18.0024 10.2726 18.0024 10.1978C18.0024 10.123 18.0254 10.05 18.0684 9.98884C18.1114 9.92764 18.1722 9.88118 18.2425 9.85579L19.1605 9.55819C19.4363 9.46273 19.6864 9.30489 19.8912 9.09696C20.096 8.88902 20.25 8.63661 20.3413 8.35939L20.6401 7.44259C20.6649 7.37171 20.7112 7.3103 20.7725 7.26685C20.8337 7.2234 20.907 7.20006 20.9821 7.20006C21.0572 7.20006 21.1305 7.2234 21.1917 7.26685C21.253 7.3103 21.2993 7.37171 21.3241 7.44259L21.6229 8.35939C21.716 8.63853 21.8728 8.89218 22.0808 9.10025C22.2889 9.30832 22.5414 9.4651 22.8205 9.55819ZM16.7786 9.94219C16.7786 10.1147 16.8001 10.2869 16.8001 10.4594V11.4002C16.8001 13.057 18.1432 14.4002 19.8001 14.4002C19.9592 14.4002 20.1118 14.4634 20.2244 14.5759C20.3369 14.6884 20.4001 14.8411 20.4001 15.0002V16.8002C20.4001 17.755 20.0208 18.6706 19.3457 19.3458C18.6706 20.0209 17.7549 20.4002 16.8001 20.4002H7.2001C6.24532 20.4002 5.32964 20.0209 4.65451 19.3458C3.97938 18.6706 3.6001 17.755 3.6001 16.8002V6.00019C3.6001 5.36367 3.85295 4.75322 4.30304 4.30313C4.75313 3.85305 5.36358 3.60019 6.0001 3.60019H11.5096C11.8035 3.60019 12.007 3.90636 12.0001 4.20019C12.0043 4.5607 12.1227 4.91059 12.3383 5.19953C12.554 5.48847 12.8557 5.70158 13.2001 5.80819L14.5201 6.24019C14.6994 6.29351 14.8638 6.38803 15.0001 6.51619L15.0721 6.58819C15.2065 6.71659 15.3121 6.87259 15.3841 7.04419L15.7801 8.40019C15.8881 8.70979 16.0801 8.98339 16.3321 9.19219C16.4121 9.25149 16.4963 9.30222 16.5849 9.34436C16.7087 9.40329 16.8001 9.5212 16.8001 9.6583C16.8001 9.67553 16.7986 9.69272 16.796 9.70976C16.7844 9.7868 16.7786 9.86449 16.7786 9.94219ZM16.8001 17.4002C16.8001 18.3943 17.7087 19.2339 18.436 18.5562C18.4567 18.537 18.4771 18.5173 18.4972 18.4972C18.9472 18.0472 19.2001 17.4367 19.2001 16.8002C19.2001 16.1374 18.6628 15.6002 18.0001 15.6002C17.3374 15.6002 16.8001 16.1374 16.8001 16.8002V17.4002ZM7.8001 7.20019C7.64097 7.20019 7.48836 7.2634 7.37583 7.37593C7.26331 7.48845 7.2001 7.64106 7.2001 7.80019C7.2001 7.95932 7.26331 8.11193 7.37583 8.22445C7.48836 8.33698 7.64097 8.40019 7.8001 8.40019H12.6001C12.7592 8.40019 12.9118 8.33698 13.0244 8.22445C13.1369 8.11193 13.2001 7.95932 13.2001 7.80019C13.2001 7.64106 13.1369 7.48845 13.0244 7.37593C12.9118 7.2634 12.7592 7.20019 12.6001 7.20019H7.8001ZM7.8001 10.8002C7.64097 10.8002 7.48836 10.8634 7.37583 10.9759C7.26331 11.0884 7.2001 11.2411 7.2001 11.4002C7.2001 11.5593 7.26331 11.7119 7.37583 11.8245C7.48836 11.937 7.64097 12.0002 7.8001 12.0002H12.6001C12.7592 12.0002 12.9118 11.937 13.0244 11.8245C13.1369 11.7119 13.2001 11.5593 13.2001 11.4002C13.2001 11.2411 13.1369 11.0884 13.0244 10.9759C12.9118 10.8634 12.7592 10.8002 12.6001 10.8002H7.8001ZM7.8001 14.4002C7.64097 14.4002 7.48836 14.4634 7.37583 14.5759C7.26331 14.6884 7.2001 14.8411 7.2001 15.0002C7.2001 15.1593 7.26331 15.3119 7.37583 15.4245C7.48836 15.537 7.64097 15.6002 7.8001 15.6002H10.2001C10.3592 15.6002 10.5118 15.537 10.6244 15.4245C10.7369 15.3119 10.8001 15.1593 10.8001 15.0002C10.8001 14.8411 10.7369 14.6884 10.6244 14.5759C10.5118 14.4634 10.3592 14.4002 10.2001 14.4002H7.8001Z" fill="#7266FF"/>
<path d="M18.2713 1.62379L17.8537 0.33979C17.8191 0.240248 17.7543 0.153958 17.6684 0.092895C17.5825 0.0318316 17.4797 -0.000976562 17.3743 -0.000976562C17.2689 -0.000976563 17.1661 0.0318316 17.0802 0.092895C16.9943 0.153958 16.9295 0.240248 16.8949 0.33979L16.4773 1.62379C16.3503 2.012 16.135 2.36545 15.8483 2.65635C15.5616 2.94724 15.2112 3.16763 14.8249 3.30019L13.5397 3.71779C13.4406 3.75268 13.3547 3.81748 13.294 3.90324C13.2333 3.98901 13.2006 4.0915 13.2006 4.19659C13.2006 4.30168 13.2333 4.40417 13.294 4.48994C13.3547 4.5757 13.4406 4.6405 13.5397 4.67539L14.8249 5.09299C15.2169 5.22278 15.573 5.4427 15.8646 5.7351C16.1561 6.0275 16.375 6.38422 16.5037 6.77659L16.9213 8.06059C16.9562 8.15971 17.021 8.24557 17.1068 8.3063C17.1925 8.36703 17.295 8.39964 17.4001 8.39964C17.5052 8.39964 17.6077 8.36703 17.6934 8.3063C17.7792 8.24557 17.844 8.15971 17.8789 8.06059L18.2977 6.77659C18.4272 6.38568 18.6464 6.03049 18.9377 5.73941C19.2289 5.44832 19.5843 5.22942 19.9753 5.10019L21.2617 4.68259C21.3608 4.6477 21.4467 4.5829 21.5074 4.49714C21.5681 4.41137 21.6007 4.30888 21.6007 4.20379C21.6007 4.0987 21.5681 3.99621 21.5074 3.91044C21.4467 3.82468 21.3608 3.75988 21.2617 3.72499L21.2353 3.71779L19.9489 3.30019C19.5579 3.17096 19.2025 2.95206 18.9113 2.66097C18.62 2.36989 18.4008 2.0147 18.2713 1.62379ZM22.8205 9.55819L23.7397 9.85579L23.7577 9.86059C23.828 9.88598 23.8888 9.93244 23.9318 9.99364C23.9748 10.0548 23.9978 10.1278 23.9978 10.2026C23.9978 10.2774 23.9748 10.3503 23.9318 10.4115C23.8888 10.4727 23.828 10.5192 23.7577 10.5446L22.8397 10.8422C22.5603 10.9351 22.3064 11.0918 22.0982 11.2999C21.8899 11.508 21.7329 11.7617 21.6397 12.041L21.3421 12.9578C21.3173 13.0287 21.271 13.0901 21.2097 13.1335C21.1485 13.177 21.0752 13.2003 21.0001 13.2003C20.925 13.2003 20.8517 13.177 20.7905 13.1335C20.7292 13.0901 20.6829 13.0287 20.6581 12.9578L20.3593 12.041C20.2667 11.7612 20.1101 11.5068 19.902 11.2981C19.6939 11.0894 19.44 10.932 19.1605 10.8386L18.2425 10.5398C18.1722 10.5144 18.1114 10.4679 18.0684 10.4067C18.0254 10.3455 18.0024 10.2726 18.0024 10.1978C18.0024 10.123 18.0254 10.05 18.0684 9.98884C18.1114 9.92764 18.1722 9.88118 18.2425 9.85579L19.1605 9.55819C19.4363 9.46273 19.6864 9.30489 19.8912 9.09696C20.096 8.88902 20.25 8.63661 20.3413 8.35939L20.6401 7.44259C20.6649 7.37171 20.7112 7.3103 20.7725 7.26685C20.8337 7.2234 20.907 7.20006 20.9821 7.20006C21.0572 7.20006 21.1305 7.2234 21.1917 7.26685C21.253 7.3103 21.2993 7.37171 21.3241 7.44259L21.6229 8.35939C21.716 8.63853 21.8728 8.89218 22.0808 9.10025C22.2889 9.30832 22.5414 9.4651 22.8205 9.55819ZM16.7786 9.94219C16.7786 10.1147 16.8001 10.2869 16.8001 10.4594V11.4002C16.8001 13.057 18.1432 14.4002 19.8001 14.4002C19.9592 14.4002 20.1118 14.4634 20.2244 14.5759C20.3369 14.6884 20.4001 14.8411 20.4001 15.0002V16.8002C20.4001 17.755 20.0208 18.6706 19.3457 19.3458C18.6706 20.0209 17.7549 20.4002 16.8001 20.4002H7.2001C6.24532 20.4002 5.32964 20.0209 4.65451 19.3458C3.97938 18.6706 3.6001 17.755 3.6001 16.8002V6.00019C3.6001 5.36367 3.85295 4.75322 4.30304 4.30313C4.75313 3.85305 5.36358 3.60019 6.0001 3.60019H11.5096C11.8035 3.60019 12.007 3.90636 12.0001 4.20019C12.0043 4.5607 12.1227 4.91059 12.3383 5.19953C12.554 5.48847 12.8557 5.70158 13.2001 5.80819L14.5201 6.24019C14.6994 6.29351 14.8638 6.38803 15.0001 6.51619L15.0721 6.58819C15.2065 6.71659 15.3121 6.87259 15.3841 7.04419L15.7801 8.40019C15.8881 8.70979 16.0801 8.98339 16.3321 9.19219C16.4121 9.25149 16.4963 9.30222 16.5849 9.34436C16.7087 9.40329 16.8001 9.5212 16.8001 9.6583C16.8001 9.67553 16.7986 9.69272 16.796 9.70976C16.7844 9.7868 16.7786 9.86449 16.7786 9.94219ZM16.8001 17.4002C16.8001 18.3943 17.7087 19.2339 18.436 18.5562C18.4567 18.537 18.4771 18.5173 18.4972 18.4972C18.9472 18.0472 19.2001 17.4367 19.2001 16.8002C19.2001 16.1374 18.6628 15.6002 18.0001 15.6002C17.3374 15.6002 16.8001 16.1374 16.8001 16.8002V17.4002ZM7.8001 7.20019C7.64097 7.20019 7.48836 7.2634 7.37583 7.37593C7.26331 7.48845 7.2001 7.64106 7.2001 7.80019C7.2001 7.95932 7.26331 8.11193 7.37583 8.22445C7.48836 8.33698 7.64097 8.40019 7.8001 8.40019H12.6001C12.7592 8.40019 12.9118 8.33698 13.0244 8.22445C13.1369 8.11193 13.2001 7.95932 13.2001 7.80019C13.2001 7.64106 13.1369 7.48845 13.0244 7.37593C12.9118 7.2634 12.7592 7.20019 12.6001 7.20019H7.8001ZM7.8001 10.8002C7.64097 10.8002 7.48836 10.8634 7.37583 10.9759C7.26331 11.0884 7.2001 11.2411 7.2001 11.4002C7.2001 11.5593 7.26331 11.7119 7.37583 11.8245C7.48836 11.937 7.64097 12.0002 7.8001 12.0002H12.6001C12.7592 12.0002 12.9118 11.937 13.0244 11.8245C13.1369 11.7119 13.2001 11.5593 13.2001 11.4002C13.2001 11.2411 13.1369 11.0884 13.0244 10.9759C12.9118 10.8634 12.7592 10.8002 12.6001 10.8002H7.8001ZM7.8001 14.4002C7.64097 14.4002 7.48836 14.4634 7.37583 14.5759C7.26331 14.6884 7.2001 14.8411 7.2001 15.0002C7.2001 15.1593 7.26331 15.3119 7.37583 15.4245C7.48836 15.537 7.64097 15.6002 7.8001 15.6002H10.2001C10.3592 15.6002 10.5118 15.537 10.6244 15.4245C10.7369 15.3119 10.8001 15.1593 10.8001 15.0002C10.8001 14.8411 10.7369 14.6884 10.6244 14.5759C10.5118 14.4634 10.3592 14.4002 10.2001 14.4002H7.8001Z" fill="url(#paint0_linear_3404_24462)"/>
</g>
</g>
<defs>
<linearGradient id="paint0_linear_3404_24462" x1="3.6001" y1="10.1996" x2="23.9978" y2="10.1996" gradientUnits="userSpaceOnUse">
<stop stop-color="#B9B3FF" stop-opacity="0"/>
<stop offset="0.9999" stop-color="#FC6983"/>
<stop offset="1" stop-color="#C4EFFE" stop-opacity="0"/>
</linearGradient>
<clipPath id="clip0_3404_24462">
<rect width="24" height="24" fill="white"/>
</clipPath>
</defs>
</svg>
