<svg width="120" height="80" viewBox="0 0 120 80" fill="none" xmlns="http://www.w3.org/2000/svg">
<g id="asset" clip-path="url(#clip0_3491_24428)">
<g id="Illos">
<g id="Group">
<path id="Vector" d="M0 34.6852L26.7387 73.6148C79.1605 79.6279 119.579 46.254 119.579 46.254V21.7654L85.9979 6C59.7897 39.4829 0 34.6852 0 34.6852Z" fill="#C4F0FD"/>
<g id="Group_2">
<path id="Vector_2" d="M118.987 21.481C118.896 21.5474 118.781 21.6911 118.671 21.8294C118.778 21.7416 118.875 21.6352 118.987 21.481Z" fill="#087191"/>
<path id="Vector_3" d="M119.92 45.5654C119.885 45.5414 119.842 45.5122 119.802 45.4829C119.839 45.5122 119.879 45.5414 119.92 45.5654Z" fill="#087191"/>
<path id="Vector_4" d="M113.455 28.5234L113.481 28.5766C113.23 28.909 113.358 28.6351 113.136 28.9489C113.106 29.1138 112.742 29.4516 112.694 29.5819C112.691 29.5766 112.576 29.7255 112.562 29.7016C112.562 29.7707 112.453 29.8611 112.388 29.9622C112.372 30.0021 112.418 29.9436 112.447 29.925L112.295 30.151C112.219 30.2282 112.185 30.2335 112.252 30.1404C111.81 30.6962 109.712 33.3876 109.264 34.0073C109.347 33.9488 109.476 33.7466 109.57 33.7041C109.468 33.8823 109.382 33.9355 109.35 34.0232C109.246 34.0419 109.066 34.3663 108.916 34.4434V34.5152L108.833 34.5791C108.329 35.3131 108.726 34.7546 108.241 35.3743C107.97 35.7413 107.885 35.9487 107.713 36.1375C107.737 36.1083 107.818 36.0418 107.753 36.1428C107.713 36.1375 107.584 36.4088 107.52 36.4327C107.469 36.5045 107.362 36.6508 107.276 36.7652C107.177 36.9061 107.118 36.9992 107.215 36.9141C107.121 36.9939 106.73 37.4939 106.931 37.1933C106.799 37.3636 106.665 37.5284 106.585 37.6508L106.767 37.4327C106.679 37.5471 106.601 37.6508 106.529 37.7465C106.912 38.0258 107.166 38.2305 107.496 38.422L107.3 38.2571C107.472 38.3795 107.627 38.4885 107.756 38.5843C107.793 38.6135 107.807 38.6241 107.82 38.6374L107.86 38.6747C107.884 38.6986 107.903 38.7225 107.914 38.7465L107.815 38.6853L107.764 38.6534L107.673 38.5922C107.844 38.7119 107.981 38.8076 108.112 38.9007C108.233 38.9805 108.345 39.055 108.482 39.1374L108.391 39.0709C108.747 39.2651 110.481 40.4618 110.818 40.6267L110.7 40.4964L110.979 40.656C110.95 40.6347 110.781 40.6666 110.765 40.6374C111.322 41.0336 114.229 43.0814 114.727 43.4697C114.923 43.6346 114.727 43.5442 114.725 43.5469C114.984 43.7171 114.856 43.5921 115.07 43.749C115.124 43.7968 115.041 43.7649 115.006 43.7437C115.102 43.8075 115.183 43.8793 115.199 43.8713C115.089 43.7756 115.167 43.7729 115.134 43.7144L115.408 43.9165L115.378 43.9325C115.44 43.9777 115.582 43.9777 115.842 44.1851C116.292 44.5229 116.793 44.8713 117.248 45.2037C117.23 45.2117 117.128 45.1532 117.026 45.092C117.088 45.1372 117.184 45.2011 117.232 45.2516C117.141 45.1479 117.436 45.3739 117.358 45.2995C117.736 45.483 118.133 45.8473 118.459 46.0202C118.524 45.9856 119.751 45.5734 119.796 45.5096C119.887 45.576 119.979 45.6425 120.003 45.6691C119.989 45.6372 119.812 45.5016 119.711 45.4404L119.67 45.4617C119.44 45.3154 119.633 45.4058 119.416 45.2516C119.424 45.217 119.628 45.3526 119.804 45.475C119.649 45.358 119.507 45.225 119.421 45.209C119.282 45.092 119.461 45.1878 119.293 45.0468C119.159 44.9644 118.974 44.8713 118.84 44.7489H118.845C118.51 44.4617 118.272 44.3979 117.966 44.1373L118.009 44.1532C117.905 44.0548 117.664 43.9139 117.471 43.749C117.527 43.7968 117.562 43.8527 117.436 43.7676C117.211 43.5788 117.037 43.4804 116.876 43.3341L116.688 43.241C115.863 42.6426 112.565 40.3315 111.729 39.7411L111.764 39.7597C111.306 39.4353 110.674 38.9885 109.993 38.5071C109.377 38.071 108.329 37.3237 108.487 37.4487C108.501 37.43 108.511 37.4088 108.525 37.3901L108.544 37.3609L108.554 37.3449L108.608 37.2731C108.774 37.0471 108.924 36.8396 109.058 36.6561C109.235 36.4779 109.436 36.2014 109.602 35.9992C109.503 36.1056 109.516 36.0524 109.583 35.9647C110.065 35.337 109.597 35.9088 110.071 35.2626C110.604 34.5126 112.769 31.7281 113.286 31.0925C113.514 30.7148 113.875 30.3 114.111 29.9383L114.095 29.9808C114.36 29.6032 115.981 27.5474 116.295 27.1112L116.246 27.1644C116.506 26.7735 116.509 26.8559 116.747 26.5714C116.675 26.5767 116.892 26.2389 116.983 26.1166L116.989 26.1272C117.12 25.9384 117.401 25.4943 117.626 25.1858L117.64 25.215C117.806 24.9438 118.181 24.4757 118.315 24.2922C118.642 23.8826 119.172 23.2736 119.563 22.6938L119.904 22.3853L119.936 22.3268C119.936 22.3268 119.561 21.1354 118.826 21.7391L118.813 21.7098L118.706 21.8561C118.561 22.021 118.526 22.122 118.513 22.0928L118.698 21.8561C118.559 22.0263 118.639 21.8933 118.676 21.8162C118.617 21.888 118.561 21.9572 118.51 22.0103C118.494 22.0529 118.54 21.9917 118.567 21.9678C118.502 22.0688 118.425 22.2151 118.328 22.3215C118.189 22.4997 118.28 22.3029 118.119 22.5103C117.262 23.6007 116.421 24.6485 115.577 25.7655C115.547 25.7841 115.571 25.7549 115.59 25.7177C115.338 26.0607 115.121 26.3586 114.891 26.6698C114.816 26.7469 114.784 26.7602 114.754 26.7761C114.784 26.7575 114.467 27.1857 114.14 27.6192C113.977 27.8346 113.811 28.0554 113.685 28.2202C113.556 28.3851 113.471 28.4968 113.465 28.5048L113.455 28.5234Z" fill="#087191"/>
</g>
<g id="Group_3">
<path id="Vector_5" d="M83.9644 17.1616C84.0072 17.2201 84.1037 17.2707 84.1948 17.3238C84.1358 17.26 84.0662 17.2095 83.9644 17.1616Z" fill="#087191"/>
<path id="Vector_6" d="M102.998 25.212C102.974 25.2014 102.947 25.1881 102.92 25.1748C102.944 25.1881 102.971 25.2014 102.998 25.212Z" fill="#087191"/>
<path id="Vector_7" d="M88.685 19.6963L88.7226 19.6564C88.9449 19.7681 88.7601 19.7442 88.9717 19.8346C89.0869 19.808 89.3093 20.0128 89.3977 20.0128C89.3924 20.0181 89.4915 20.0713 89.4754 20.0873C89.5236 20.066 89.5826 20.1298 89.6522 20.1538C89.6817 20.1538 89.6415 20.1351 89.6281 20.1139L89.7808 20.175C89.8318 20.2149 89.8344 20.2442 89.7701 20.2176C90.1425 20.4224 91.9457 21.3771 92.3636 21.566C92.3261 21.5128 92.1895 21.4676 92.1627 21.3984C92.2832 21.4277 92.3181 21.4862 92.377 21.4862C92.3851 21.5713 92.6074 21.6218 92.6557 21.7282L92.7066 21.7069L92.7494 21.7574C93.2451 21.9596 92.8673 21.7947 93.2853 22.0154C93.5318 22.1324 93.6738 22.1404 93.7997 22.2282C93.7809 22.2175 93.7381 22.167 93.805 22.1909C93.7997 22.2282 93.9846 22.2521 93.998 22.3C94.0623 22.3266 94.2605 22.4329 94.215 22.3558C94.2391 22.3957 94.4132 22.4941 94.2954 22.4595C94.3543 22.4915 94.4106 22.526 94.4588 22.5393L94.3864 22.4888C94.5927 22.5845 94.6865 22.675 94.8392 22.7016L94.7723 22.6457C94.8955 22.7042 95 22.7521 95.0241 22.8212L94.8928 22.7707C95.0964 22.8718 95.2197 22.9303 95.3992 22.9914L95.3403 22.9595C95.576 23.0234 96.7174 23.5552 96.9424 23.6005L96.8674 23.5207L97.0523 23.5792C97.0335 23.5685 96.9156 23.6457 96.9022 23.6271C97.2666 23.8079 99.1742 24.7387 99.4984 24.9302C99.6243 25.018 99.4957 24.9967 99.4904 24.9993C99.6618 25.0712 99.5788 24.9993 99.7181 25.0738C99.7529 25.1004 99.6967 25.0951 99.6726 25.0898C99.7369 25.1164 99.7878 25.1563 99.8012 25.143C99.7315 25.0924 99.7851 25.0658 99.7663 25.0233L99.9458 25.119L99.9244 25.1403C99.9646 25.1616 100.064 25.119 100.233 25.2227C100.527 25.385 100.857 25.5392 101.154 25.6988C101.141 25.7121 101.074 25.6908 101.004 25.6669C101.044 25.6882 101.109 25.7147 101.138 25.744C101.079 25.6802 101.275 25.7892 101.224 25.7493C101.478 25.7972 101.733 25.9993 101.95 26.0552C101.995 26.0046 102.874 25.2733 102.912 25.2041C102.971 25.236 103.03 25.268 103.046 25.2813C103.038 25.2573 102.922 25.1908 102.855 25.1669L102.826 25.1988C102.673 25.1376 102.802 25.1589 102.66 25.0898C102.668 25.0552 102.802 25.1164 102.917 25.1696C102.815 25.1137 102.724 25.0392 102.665 25.0525C102.574 24.9914 102.695 25.0206 102.585 24.9488C102.496 24.9169 102.373 24.8903 102.285 24.8238L102.29 24.8185C102.073 24.6696 101.91 24.6855 101.714 24.5472H101.741C101.674 24.494 101.516 24.4409 101.387 24.3558C101.422 24.3823 101.446 24.4196 101.363 24.3823C101.216 24.2839 101.101 24.2494 100.999 24.1696L100.876 24.143C100.334 23.8637 98.1695 22.8212 97.6203 22.55L97.6444 22.5553C96.8058 22.151 95.1018 21.2867 94.2203 20.8931C94.1024 20.7974 93.9149 20.7123 93.7809 20.6325C93.8506 20.683 93.8158 20.691 93.7541 20.6591C93.3335 20.4436 93.7166 20.6644 93.2826 20.4623C92.7762 20.2415 90.9115 19.2602 90.4855 19.0128C90.2283 18.9384 89.9523 18.7575 89.7085 18.6671H89.738C89.4835 18.5607 88.1063 17.8161 87.8116 17.6858L87.8464 17.7124C87.5839 17.6113 87.6401 17.582 87.4499 17.4677C87.4499 17.5289 87.2222 17.4491 87.1391 17.4092L87.1472 17.4012C87.0186 17.348 86.7185 17.2469 86.5122 17.1512L86.5336 17.1299C86.3488 17.0714 86.0353 16.8986 85.912 16.84C85.6388 16.6885 85.2315 16.4252 84.8404 16.2709L84.6367 16.0741L84.5965 16.0635C84.5965 16.0635 83.7445 16.7709 84.1384 17.2124L84.117 17.2337L84.2161 17.2789C84.3259 17.3507 84.3956 17.348 84.3742 17.3693L84.2161 17.2842C84.3286 17.3507 84.2402 17.3241 84.1893 17.3161C84.2375 17.3427 84.2831 17.3719 84.3179 17.3985C84.3474 17.3985 84.3072 17.3799 84.2911 17.364C84.3581 17.3879 84.4599 17.4065 84.5296 17.457C84.6474 17.5209 84.5162 17.5023 84.6555 17.5767C85.3842 17.9703 86.0862 18.3639 86.8364 18.7363C86.8471 18.7549 86.8283 18.7442 86.8042 18.7389C87.0346 18.8426 87.2329 18.9464 87.4446 19.0394C87.4955 19.0793 87.5035 19.1033 87.5142 19.1245C87.4928 19.0847 88.6583 19.6724 88.6743 19.6884L88.685 19.6963Z" fill="#087191"/>
</g>
<g id="Group_4">
<g id="Group_5">
<path id="Vector_8" d="M64.0737 31.6401C64.1514 31.7385 64.3202 31.8662 64.4756 31.9885C64.3711 31.8715 64.2479 31.7651 64.0737 31.6401Z" fill="#087191"/>
<path id="Vector_9" d="M64.4784 31.9943C64.4784 31.9943 64.4784 31.9943 64.4811 31.9943C64.4811 31.9943 64.4783 31.9915 64.4756 31.9888C64.4756 31.9888 64.4756 31.9888 64.4784 31.9915V31.9943Z" fill="#087191"/>
<path id="Vector_10" d="M96.3425 53.8682C96.3023 53.8389 96.2567 53.807 96.2085 53.7725C96.2514 53.807 96.2969 53.8389 96.3425 53.8682Z" fill="#087191"/>
<path id="Vector_11" d="M72.1623 37.8157L72.2186 37.7917C72.599 38.0736 72.2909 37.922 72.6499 38.172C72.8321 38.2146 73.2286 38.6109 73.3733 38.6694C73.368 38.672 73.5368 38.8023 73.5126 38.813C73.5903 38.8183 73.6948 38.9353 73.81 39.0098C73.8556 39.0311 73.7886 38.9779 73.7672 38.946L74.0244 39.1188C74.1128 39.2013 74.1235 39.2385 74.0137 39.164C74.654 39.656 77.7405 41.999 78.4505 42.5017C78.3781 42.4113 78.1504 42.2677 78.0995 42.1666C78.3004 42.2809 78.3647 42.3767 78.4639 42.4139C78.4906 42.5256 78.8577 42.7277 78.9542 42.89L79.0319 42.8953L79.1095 42.9831C79.9455 43.5522 79.3078 43.1054 80.0205 43.6453C80.4411 43.9484 80.6715 44.0522 80.8912 44.241C80.8564 44.2144 80.7814 44.1266 80.8939 44.1984C80.8912 44.241 81.1967 44.3899 81.2261 44.4591C81.3333 44.5335 81.6736 44.7915 81.5878 44.6665C81.6307 44.7303 81.9308 44.9644 81.7352 44.8474C81.837 44.9245 81.9335 45.0043 82.0138 45.0521L81.8906 44.9431C82.2416 45.1957 82.4104 45.366 82.6622 45.4989L82.5443 45.3872C82.7533 45.5388 82.9301 45.6665 82.9837 45.7649L82.7613 45.6186C83.107 45.8739 83.3159 46.0255 83.6214 46.2196L83.5196 46.1425C83.9161 46.3766 85.8558 47.7675 86.2283 47.9696L86.0943 47.8233L86.4024 48.0121C86.3676 47.9855 86.1881 48.0068 86.1666 47.9749C86.7909 48.435 90.0435 50.8126 90.6034 51.2594C90.8231 51.4482 90.6088 51.3392 90.6034 51.3418C90.8928 51.5413 90.7481 51.4003 90.9866 51.5812C91.0482 51.6344 90.9544 51.5945 90.9142 51.5705C91.0214 51.645 91.1125 51.7274 91.1313 51.7195C91.008 51.6104 91.0911 51.6157 91.0536 51.5493L91.359 51.7806L91.3268 51.7939C91.3938 51.8445 91.5492 51.8578 91.8439 52.0971C92.3476 52.4881 92.9076 52.8923 93.4193 53.2779C93.4006 53.2859 93.2854 53.2141 93.1728 53.1423C93.2425 53.1955 93.3497 53.2699 93.4059 53.3258C93.3014 53.2088 93.6336 53.4694 93.5452 53.387C93.9659 53.6077 94.4133 54.0226 94.775 54.23C94.842 54.2008 96.1602 53.8657 96.2057 53.8045C96.3075 53.8816 96.4093 53.9587 96.4388 53.988C96.4227 53.9534 96.2245 53.7965 96.1119 53.7247L96.0691 53.7433C95.8119 53.5705 96.0262 53.6795 95.7824 53.504C95.7904 53.4667 96.0182 53.6263 96.2164 53.7699C96.0423 53.6343 95.8815 53.4854 95.7877 53.4614C95.6297 53.3258 95.8306 53.4428 95.6404 53.2832C95.493 53.1848 95.2841 53.0731 95.134 52.9348H95.1394C94.7616 52.6077 94.499 52.52 94.1561 52.2248L94.2016 52.246C94.0838 52.1343 93.8158 51.9695 93.5961 51.7806C93.6578 51.8365 93.7006 51.8976 93.5586 51.7966C93.3041 51.5812 93.1112 51.4642 92.9317 51.2966L92.7254 51.1849C91.8011 50.4908 88.1091 47.8074 87.174 47.1186L87.2142 47.1425C85.7835 46.1 82.8712 43.9351 81.3762 42.8793C81.1699 42.6852 80.851 42.4591 80.6206 42.2756C80.7439 42.3847 80.6849 42.3687 80.5831 42.2916C79.8651 41.7517 80.5215 42.273 79.782 41.7437C78.9247 41.1427 75.7284 38.7279 74.9996 38.1508C74.5709 37.8928 74.0914 37.4912 73.6814 37.2226L73.727 37.2439C73.2956 36.946 70.9352 35.1376 70.4342 34.7865L70.4958 34.8397C70.0511 34.5472 70.1395 34.5472 69.8126 34.2839C69.8233 34.361 69.4402 34.1137 69.2982 34.0126L69.3116 34.0073C69.0946 33.8584 68.5909 33.5419 68.2372 33.2892L68.2694 33.2759C67.9613 33.0871 67.4228 32.6696 67.2138 32.518C66.7449 32.1536 66.0403 31.5659 65.3785 31.1244L65.0168 30.7521L64.9525 30.7148C64.9525 30.7148 63.6772 31.034 64.3872 31.8345L64.355 31.8478L64.5238 31.9675C64.7141 32.127 64.8266 32.1696 64.7971 32.1829L64.5265 31.9781C64.7221 32.135 64.5721 32.0419 64.4863 31.9994C64.5694 32.0632 64.6471 32.127 64.7087 32.1829C64.7542 32.2042 64.6873 32.151 64.6605 32.1244C64.7757 32.1962 64.9418 32.2866 65.065 32.393C65.2687 32.5472 65.049 32.4408 65.2874 32.6217C66.5386 33.5791 67.7416 34.5152 69.0249 35.4594C69.0464 35.4913 69.0115 35.4647 68.9713 35.4407C69.3652 35.7173 69.7028 35.9753 70.0618 36.2253C70.1502 36.3077 70.1663 36.3423 70.1877 36.3742C70.1449 36.3104 72.1409 37.7917 72.1677 37.8183L72.1623 37.8157Z" fill="#087191"/>
</g>
<g id="Group_6">
<g id="Group_7">
<path id="Vector_12" d="M70.4021 27.5391C70.4878 27.6348 70.662 27.7598 70.8281 27.8795C70.7156 27.7651 70.587 27.6614 70.4021 27.5391Z" fill="#087191"/>
<path id="Vector_13" d="M70.8309 27.8824C70.8309 27.8824 70.8309 27.8824 70.8337 27.8824C70.8337 27.8824 70.8309 27.8797 70.8281 27.877C70.8281 27.877 70.8281 27.877 70.8309 27.8797V27.8824Z" fill="#087191"/>
<path id="Vector_14" d="M104.34 49.0413C104.297 49.0121 104.249 48.9802 104.201 48.9482C104.246 48.9802 104.294 49.0121 104.34 49.0413Z" fill="#087191"/>
<path id="Vector_15" d="M78.938 33.5364L78.9943 33.5098C79.3935 33.7811 79.0746 33.6401 79.4524 33.8822C79.64 33.9194 80.0606 34.3077 80.2133 34.3635C80.208 34.3662 80.3875 34.4912 80.3607 34.5045C80.4384 34.5098 80.5509 34.6242 80.6715 34.6933C80.7197 34.7119 80.6474 34.6614 80.6232 34.6321L80.8938 34.7997C80.9876 34.8795 81.001 34.9167 80.8858 34.8449C81.561 35.3236 84.8189 37.5975 85.5664 38.0841C85.4887 37.9937 85.2503 37.8554 85.1913 37.757C85.4003 37.8687 85.4726 37.9618 85.5745 37.9964C85.6093 38.1081 85.9924 38.3022 86.0969 38.4644L86.1773 38.4698L86.2603 38.5575C87.1391 39.108 86.4666 38.6745 87.2222 39.2011C87.6643 39.4963 87.9054 39.5921 88.1385 39.7756C88.1037 39.7516 88.0206 39.6639 88.1385 39.733C88.1385 39.7756 88.4546 39.9192 88.4895 39.9857C88.6047 40.0575 88.961 40.3075 88.8672 40.1851C88.9155 40.2463 89.2316 40.475 89.028 40.3633C89.1352 40.4378 89.237 40.5176 89.32 40.5601L89.1887 40.4537C89.5585 40.6984 89.738 40.866 90.0032 40.9936L89.88 40.8846C90.1024 41.0309 90.2872 41.1532 90.3462 41.2542L90.1131 41.1133C90.4774 41.3606 90.6998 41.5069 91.016 41.6931L90.9088 41.6186C91.3241 41.842 93.3657 43.1904 93.7568 43.3845L93.6148 43.2409L93.939 43.4244C93.9042 43.4005 93.722 43.4244 93.6979 43.3925C94.357 43.8366 97.7837 46.145 98.3758 46.5812C98.6089 46.7647 98.3865 46.661 98.3785 46.6636C98.6839 46.8551 98.5285 46.7195 98.7804 46.895C98.8447 46.9482 98.7482 46.9083 98.708 46.887C98.8206 46.9588 98.917 47.0413 98.9358 47.0307C98.8045 46.9243 98.8902 46.9269 98.85 46.8604L99.1742 47.0865L99.1421 47.0998C99.2144 47.1503 99.3725 47.1583 99.6833 47.3897C100.214 47.7673 100.806 48.1609 101.344 48.5359C101.326 48.5439 101.205 48.4748 101.087 48.4056C101.16 48.4561 101.272 48.5279 101.334 48.5838C101.221 48.4694 101.572 48.7221 101.478 48.6423C101.918 48.8551 102.392 49.2593 102.77 49.4588C102.837 49.4268 104.158 49.0545 104.2 48.9907C104.308 49.0652 104.415 49.1423 104.444 49.1689C104.426 49.1343 104.217 48.9827 104.099 48.9136L104.056 48.9348C103.785 48.7673 104.008 48.8737 103.75 48.7008C103.756 48.6636 103.994 48.8178 104.203 48.9561C104.018 48.8258 103.847 48.6795 103.75 48.6583C103.584 48.5279 103.793 48.637 103.59 48.4801C103.434 48.387 103.217 48.278 103.056 48.145H103.062C102.663 47.8258 102.392 47.7461 102.028 47.4562L102.076 47.4748C101.953 47.3657 101.669 47.2062 101.438 47.02C101.505 47.0732 101.551 47.1344 101.401 47.0386C101.133 46.8285 100.929 46.7168 100.739 46.5546L100.522 46.4482C99.5466 45.7754 95.6564 43.1717 94.6704 42.5042L94.7106 42.5255C93.2049 41.5149 90.1318 39.4139 88.5564 38.3926C88.3367 38.2012 88.0018 37.9831 87.758 37.8049C87.8893 37.9113 87.8277 37.898 87.7205 37.8235C86.9623 37.2996 87.6562 37.8076 86.8792 37.2916C85.9763 36.7118 82.6059 34.3662 81.8343 33.805C81.3841 33.555 80.8778 33.1668 80.4464 32.9088L80.4946 32.9274C80.0392 32.6375 77.5475 30.8823 77.0224 30.5418L77.0867 30.595C76.6178 30.3105 76.7116 30.3105 76.3659 30.0552C76.382 30.1323 75.9775 29.8929 75.8274 29.7945L75.8408 29.7892C75.6131 29.6456 75.0826 29.3398 74.7129 29.0951L74.745 29.0818C74.4208 28.8983 73.8528 28.494 73.6331 28.3478C73.1375 27.9941 72.3927 27.4223 71.6961 26.9941L71.3102 26.6271L71.2406 26.5898C71.2406 26.5898 69.9626 26.9489 70.7262 27.7334L70.694 27.7467L70.8708 27.8637C71.0745 28.0206 71.1897 28.0579 71.1602 28.0712L70.8735 27.8717C71.0798 28.0233 70.9244 27.9355 70.8333 27.893C70.9191 27.9568 71.0048 28.018 71.0691 28.0738C71.1173 28.0925 71.045 28.0419 71.0155 28.0153C71.1361 28.0845 71.3102 28.1696 71.4415 28.276C71.6559 28.4275 71.4281 28.3238 71.68 28.4994C73.0008 29.4302 74.2735 30.3397 75.6238 31.2546C75.6479 31.2865 75.6104 31.2599 75.5702 31.2386C75.9828 31.5046 76.3418 31.7572 76.7196 31.9966C76.8161 32.0764 76.8321 32.1109 76.8562 32.1429C76.808 32.0817 78.9139 33.5151 78.9434 33.5444L78.938 33.5364Z" fill="#087191"/>
</g>
<g id="Group_8">
<path id="Vector_16" d="M55.8699 33.8584C55.9476 33.9621 56.1137 34.0978 56.2691 34.2307C56.1646 34.1084 56.044 33.994 55.8699 33.8584Z" fill="#087191"/>
<path id="Vector_17" d="M56.2745 34.2335C56.2745 34.2335 56.2745 34.2335 56.2773 34.2335C56.2773 34.2335 56.2745 34.2308 56.2717 34.228C56.2717 34.228 56.2717 34.228 56.2745 34.2308V34.2335Z" fill="#087191"/>
<path id="Vector_18" d="M88.0929 57.8361C88.0528 57.8042 88.0072 57.7697 87.9617 57.7324C88.0045 57.7697 88.0501 57.8042 88.0929 57.8361Z" fill="#087191"/>
<path id="Vector_19" d="M63.9317 40.4752L63.9906 40.4539C64.3684 40.7544 64.0629 40.5895 64.4193 40.8581C64.6042 40.9087 64.9953 41.3289 65.14 41.3927C65.1346 41.3927 65.3034 41.5337 65.2766 41.5443C65.3543 41.5549 65.4588 41.6773 65.574 41.7571C65.6196 41.7783 65.5526 41.7251 65.5312 41.6906L65.7884 41.8767C65.8768 41.9645 65.8848 42.0017 65.7777 41.9219C66.4153 42.4512 69.4911 44.9617 70.2011 45.5016C70.1314 45.4059 69.9037 45.2516 69.8528 45.1479C70.0537 45.2729 70.118 45.3713 70.2171 45.4138C70.2412 45.5255 70.611 45.7516 70.7048 45.9191L70.7825 45.9298L70.8575 46.0229C71.6934 46.6372 71.0557 46.1558 71.7657 46.7356C72.1837 47.0627 72.4168 47.1771 72.6365 47.3765C72.6016 47.35 72.5266 47.2569 72.6418 47.334C72.6365 47.3765 72.9446 47.5441 72.9741 47.6132C73.0812 47.693 73.4215 47.9696 73.3358 47.8393C73.3786 47.9058 73.676 48.1558 73.4804 48.0281C73.5823 48.1106 73.676 48.1957 73.7591 48.2462L73.6358 48.1292C73.9868 48.4004 74.1529 48.5813 74.4075 48.7276L74.2922 48.6105C74.5012 48.7728 74.6781 48.9111 74.729 49.0121L74.5066 48.8526C74.8522 49.1265 75.0612 49.2914 75.3639 49.4988L75.2621 49.4164C75.6587 49.6717 77.5931 51.1663 77.9681 51.3897L77.8369 51.2355L78.1477 51.4429C78.1128 51.4163 77.9306 51.4269 77.9092 51.395C78.5308 51.887 81.7753 54.4455 82.3326 54.9242C82.5496 55.1263 82.3353 55.004 82.3326 55.0066C82.622 55.2194 82.48 55.0731 82.7157 55.2672C82.7774 55.3257 82.6836 55.2805 82.6434 55.2539C82.7506 55.3337 82.839 55.4215 82.8604 55.4135C82.7372 55.2992 82.8229 55.3071 82.7854 55.238L83.0908 55.488L83.0587 55.5013C83.1257 55.5571 83.2837 55.5784 83.5758 55.831C84.0768 56.2486 84.6367 56.6847 85.1458 57.0996C85.127 57.1076 85.0118 57.0278 84.8993 56.9507C84.9663 57.0065 85.0761 57.0863 85.1297 57.1475C85.0252 57.0252 85.3575 57.3044 85.2691 57.2166C85.6897 57.4613 86.1344 57.9001 86.4961 58.1262C86.5658 58.0996 87.9108 57.8257 87.959 57.7672C88.0608 57.8496 88.1626 57.9347 88.1894 57.964C88.1733 57.9294 87.9777 57.7592 87.8625 57.6821L87.817 57.7007C87.5598 57.5145 87.7741 57.6342 87.5303 57.4454C87.5384 57.4081 87.7661 57.581 87.9644 57.7352C87.7902 57.5916 87.6321 57.4321 87.5357 57.4028C87.3803 57.2592 87.5812 57.3842 87.391 57.214C87.2436 57.1076 87.0347 56.9853 86.8846 56.839H86.89C86.5149 56.4933 86.2496 56.3922 85.9094 56.0757L85.9549 56.097C85.8397 55.98 85.5691 55.7991 85.3521 55.597C85.4137 55.6555 85.4566 55.7194 85.3146 55.613C85.0627 55.3843 84.8672 55.2566 84.6903 55.0784L84.484 54.9561C83.5624 54.2114 79.8784 51.3259 78.9461 50.5865L78.9863 50.6105C77.5609 49.4908 74.6539 47.1638 73.1616 46.0282C72.9553 45.8207 72.6392 45.5787 72.4088 45.3819C72.532 45.4963 72.473 45.4803 72.3712 45.3952C71.6532 44.8181 72.3096 45.374 71.5728 44.8022C70.7155 44.1559 67.5299 41.5656 66.8038 40.9486C66.3751 40.6667 65.8982 40.2385 65.4883 39.9513L65.5338 39.9725C65.1025 39.6507 62.7501 37.712 62.2518 37.3343L62.3134 37.3928C61.8687 37.0764 61.9598 37.0817 61.6356 36.7998C61.6463 36.8769 61.2605 36.6083 61.1185 36.5019L61.1319 36.4966C60.9149 36.337 60.4112 35.9913 60.0602 35.72L60.0923 35.7067C59.7842 35.4993 59.2484 35.0551 59.0367 34.8903C58.5678 34.4993 57.8686 33.8743 57.2095 33.3956L56.8531 33.002L56.7888 32.9595C56.7888 32.9595 55.4867 33.2201 56.1887 34.0605L56.1565 34.0738L56.3253 34.2041C56.5156 34.3743 56.6281 34.4222 56.5959 34.4328L56.3253 34.2121C56.5209 34.3796 56.3709 34.2786 56.2825 34.2307C56.3655 34.2999 56.4432 34.3663 56.5048 34.4275C56.5504 34.4514 56.4834 34.3956 56.4566 34.3637C56.5718 34.4408 56.7379 34.5392 56.8612 34.6562C57.0648 34.8211 56.8451 34.7041 57.0809 34.8982C58.3267 35.9248 59.527 36.9274 60.805 37.9407C60.8264 37.9726 60.7916 37.946 60.7514 37.9194C61.1426 38.2173 61.4828 38.4939 61.8392 38.7625C61.9276 38.8502 61.9437 38.8848 61.9651 38.9194C61.9222 38.8556 63.9129 40.4433 63.9397 40.4725L63.9317 40.4752Z" fill="#087191"/>
</g>
<g id="Group_9">
<path id="Vector_20" d="M47.4839 36.2969C47.5509 36.3979 47.7036 36.5362 47.8429 36.6665C47.7518 36.5469 47.642 36.4325 47.4839 36.2969Z" fill="#087191"/>
<path id="Vector_21" d="M47.8485 36.6695C47.8485 36.6695 47.8458 36.6668 47.843 36.6641C47.843 36.6641 47.843 36.6641 47.843 36.6668L47.8485 36.6695Z" fill="#087191"/>
<path id="Vector_22" d="M76.9502 60.2458C76.9126 60.2139 76.8725 60.1793 76.8296 60.1421C76.8698 60.1767 76.91 60.2139 76.9502 60.2458Z" fill="#087191"/>
<path id="Vector_23" d="M54.8115 42.8926L54.8678 42.8713C55.2134 43.1718 54.9267 43.0043 55.2536 43.2729C55.4278 43.3261 55.7761 43.741 55.9127 43.8075C55.9073 43.8075 56.0601 43.9484 56.0359 43.9564C56.111 43.967 56.2021 44.0894 56.3065 44.1691C56.3494 44.1931 56.2878 44.1372 56.269 44.1053L56.5048 44.2915C56.5852 44.3792 56.5905 44.4165 56.4914 44.334C57.0701 44.8606 59.8672 47.3632 60.5156 47.9031C60.454 47.8073 60.245 47.6531 60.2021 47.552C60.387 47.6797 60.4433 47.7754 60.5344 47.818C60.5504 47.9297 60.8907 48.153 60.9684 48.3179L61.0434 48.3286L61.1104 48.419C61.8767 49.0333 61.2926 48.552 61.9383 49.1291C62.3214 49.4562 62.5384 49.5706 62.734 49.77C62.7019 49.7434 62.6376 49.6503 62.742 49.7275C62.734 49.77 63.0207 49.9376 63.0448 50.0067C63.1439 50.0865 63.452 50.3631 63.3797 50.2328C63.4172 50.2966 63.6878 50.5466 63.5083 50.4189C63.6021 50.5014 63.6878 50.5865 63.7602 50.637L63.6503 50.5227C63.9718 50.7939 64.1165 50.9721 64.3523 51.121L64.2478 51.004C64.438 51.1662 64.5988 51.3019 64.6416 51.4029L64.438 51.2434C64.7515 51.5173 64.9444 51.6795 65.2203 51.8896L65.1292 51.8072C65.4936 52.0625 67.2619 53.5571 67.6075 53.7779L67.4923 53.6263L67.7763 53.8337C67.7442 53.8071 67.5673 53.8151 67.5486 53.7805C68.1166 54.2725 71.0718 56.823 71.5781 57.299C71.7737 57.4985 71.5781 57.3761 71.5701 57.3788C71.8354 57.5916 71.7068 57.4453 71.9238 57.6394C71.9774 57.6953 71.8916 57.6501 71.8541 57.6261C71.9532 57.7059 72.0336 57.7937 72.0524 57.7857C71.9425 57.6713 72.0229 57.6793 71.9934 57.6128L72.2721 57.8602L72.2399 57.8708C72.3015 57.9267 72.4516 57.9479 72.7168 58.2032C73.1723 58.6181 73.684 59.0543 74.1448 59.4665C74.1261 59.4745 74.0216 59.3947 73.9144 59.3176C73.9761 59.3734 74.0752 59.4532 74.1234 59.5144C74.0323 59.392 74.3324 59.6713 74.2547 59.5835C74.6459 59.8282 75.0424 60.2643 75.3773 60.4931C75.447 60.4665 76.7651 60.2245 76.816 60.1659C76.9098 60.2484 77.0009 60.3308 77.025 60.3627C77.0116 60.3282 76.8348 60.1606 76.7303 60.0835L76.6848 60.0995C76.449 59.9133 76.6472 60.0356 76.4276 59.8442C76.4383 59.8096 76.6446 59.9798 76.8268 60.134C76.6687 59.9904 76.5267 59.8335 76.4356 59.8016C76.2936 59.658 76.4811 59.7856 76.307 59.6154C76.1703 59.5091 75.9801 59.3867 75.8435 59.2404H75.8488C75.5113 58.8947 75.2621 58.7937 74.954 58.4772L74.9968 58.4984C74.8924 58.3814 74.6459 58.2006 74.4503 58.0011C74.5065 58.0596 74.5414 58.1235 74.4128 58.0144C74.185 57.7857 74.0055 57.6581 73.8475 57.4825L73.6545 57.3575C72.816 56.6155 69.4589 53.7353 68.6069 52.9986L68.6444 53.0226C67.345 51.9056 64.6979 49.5865 63.3368 48.4509C63.152 48.2461 62.8626 48.0015 62.6536 47.8073C62.7635 47.9217 62.7072 47.9031 62.6161 47.8206C61.9624 47.2435 62.5572 47.7993 61.8847 47.2276C61.1024 46.5813 58.2061 43.9989 57.547 43.3846C57.1505 43.1027 56.7218 42.6772 56.3441 42.3873L56.3869 42.4112C55.9931 42.0894 53.855 40.1586 53.3996 39.781L53.4558 39.8395C53.0486 39.523 53.137 39.5283 52.8423 39.2491C52.8477 39.3236 52.494 39.0576 52.3654 38.9486L52.3788 38.9433C52.1805 38.7837 51.717 38.4379 51.3955 38.1667L51.4277 38.156C51.1437 37.9486 50.656 37.5045 50.4658 37.3422C50.0425 36.954 49.4075 36.3316 48.8047 35.8529L48.4859 35.462L48.4243 35.4194C48.4243 35.4194 47.1463 35.6535 47.7652 36.4832L47.733 36.4939L47.8857 36.6242C48.0572 36.7944 48.1644 36.8423 48.1322 36.8529L47.8857 36.6322C48.0626 36.797 47.9259 36.6986 47.8429 36.6508C47.9179 36.7199 47.9875 36.7864 48.0438 36.8476C48.0867 36.8715 48.025 36.8157 48.0009 36.7864C48.1054 36.8635 48.2608 36.9646 48.3707 37.079C48.5555 37.2438 48.3519 37.1242 48.5662 37.3183C49.6996 38.3422 50.7873 39.3395 51.9528 40.3528C51.9715 40.3847 51.9394 40.3581 51.9019 40.3315C52.2609 40.6294 52.5663 40.9033 52.8959 41.1719C52.9763 41.2597 52.987 41.2942 53.0057 41.3262C52.9682 41.2623 54.7821 42.8447 54.8062 42.8766L54.8115 42.8926Z" fill="#087191"/>
</g>
<g id="Group_10">
<path id="Vector_24" d="M38.1548 37.7041C38.2218 37.8078 38.3745 37.9461 38.5165 38.0817C38.4254 37.9594 38.3155 37.8424 38.1548 37.7041Z" fill="#087191"/>
<path id="Vector_25" d="M38.5194 38.0846C38.5194 38.0846 38.5167 38.0818 38.5139 38.0791C38.5139 38.0791 38.5139 38.0791 38.5139 38.0818L38.5194 38.0846Z" fill="#087191"/>
<path id="Vector_26" d="M67.7441 62.1977C67.7066 62.1658 67.6664 62.1285 67.6235 62.0913C67.6637 62.1285 67.7039 62.1631 67.7441 62.1977Z" fill="#087191"/>
<path id="Vector_27" d="M45.5119 44.4405L45.5709 44.4219C45.9165 44.7304 45.6298 44.5575 45.9594 44.8314C46.1362 44.8873 46.4845 45.3101 46.6211 45.3793C46.6158 45.3793 46.7685 45.5229 46.7444 45.5309C46.8194 45.5442 46.9105 45.6665 47.0177 45.7463C47.0605 45.7702 46.9989 45.7144 46.9802 45.6798L47.2159 45.8713C47.2963 45.9591 47.3017 45.9963 47.2025 45.9138C47.7839 46.4511 50.5918 49.0068 51.2428 49.56C51.1812 49.4643 50.9722 49.3047 50.9293 49.201C51.1169 49.3313 51.1705 49.4297 51.2642 49.4722C51.2803 49.5839 51.6233 49.8153 51.701 49.9829L51.776 49.9962L51.843 50.0892C52.6119 50.7169 52.0251 50.2249 52.6762 50.8153C53.0593 51.1477 53.279 51.2674 53.4746 51.4722C53.4425 51.4429 53.3755 51.3498 53.4826 51.4296C53.4746 51.4722 53.7613 51.645 53.7854 51.7142C53.8845 51.7966 54.1926 52.0785 54.1203 51.9482C54.1578 52.0147 54.4284 52.27 54.2489 52.137C54.3427 52.2221 54.4284 52.3073 54.5034 52.3604L54.3909 52.2434C54.7124 52.52 54.8598 52.7035 55.0955 52.8551L54.991 52.7354C55.184 52.903 55.3447 53.0413 55.3849 53.1423L55.1813 52.9801C55.4974 53.2593 55.6876 53.4269 55.969 53.6397L55.8752 53.5545C56.2422 53.8152 58.0159 55.3417 58.3642 55.5731L58.249 55.4188L58.5357 55.6316C58.5035 55.6024 58.3267 55.6077 58.3079 55.5758C58.8759 56.0784 61.8472 58.6847 62.3536 59.1714C62.5518 59.3762 62.3536 59.2485 62.3455 59.2512C62.6108 59.4692 62.4822 59.3203 62.6992 59.5171C62.7555 59.5756 62.667 59.5278 62.6295 59.5012C62.7287 59.5836 62.809 59.6714 62.8278 59.666C62.7179 59.549 62.7983 59.5597 62.7688 59.4905L63.0475 59.7432L63.0153 59.7538C63.077 59.8097 63.2297 59.8363 63.4949 60.0942C63.9531 60.5197 64.4648 60.9612 64.9283 61.3841C64.9096 61.3894 64.8024 61.3096 64.6979 61.2298C64.7595 61.2857 64.8586 61.3681 64.9069 61.4293C64.8158 61.3043 65.1185 61.5889 65.0382 61.5011C65.4293 61.7537 65.8285 62.1979 66.1661 62.4319C66.2358 62.408 67.5647 62.1819 67.6156 62.1234C67.7093 62.2085 67.8004 62.2936 67.8246 62.3229C67.8112 62.2883 67.6343 62.1154 67.5272 62.0356L67.4816 62.0516C67.2458 61.8601 67.4441 61.9851 67.2217 61.791C67.2324 61.7564 67.4414 61.9319 67.6209 62.0888C67.4629 61.9426 67.3182 61.7803 67.2271 61.7511C67.0851 61.6048 67.2726 61.7351 67.0985 61.5623C66.9618 61.4532 66.7689 61.3256 66.6323 61.1793H66.6377C66.2974 60.8282 66.0482 60.7219 65.7401 60.4001L65.783 60.424C65.6785 60.3043 65.432 60.1182 65.2337 59.916C65.29 59.9745 65.3248 60.0384 65.1962 59.9293C64.9685 59.698 64.7863 59.565 64.6282 59.3868L64.4353 59.2591C63.594 58.5012 60.2209 55.5598 59.3689 54.8045L59.4064 54.8311C58.1016 53.6902 55.4465 51.3206 54.0774 50.161C53.8926 49.9536 53.6032 49.7036 53.3915 49.5042C53.5014 49.6212 53.4451 49.6026 53.354 49.5174C52.6976 48.9297 53.2951 49.4935 52.6199 48.9111C51.8349 48.2515 48.9253 45.6133 48.2635 44.9857C47.867 44.6958 47.4356 44.2623 47.0552 43.9671L47.098 43.991C46.7015 43.6613 44.5554 41.6906 44.0973 41.305L44.1536 41.3635C43.7436 41.039 43.8321 41.047 43.5373 40.7598C43.5427 40.8369 43.1864 40.5603 43.0578 40.4513L43.0712 40.4459C42.8729 40.2811 42.4067 39.93 42.0852 39.6508L42.1173 39.6401C41.8307 39.4274 41.3431 38.9752 41.1501 38.8077C40.7241 38.4114 40.0892 37.7758 39.481 37.2865L39.1622 36.8902L39.1005 36.8477C39.1005 36.8477 37.8118 37.0631 38.4361 37.9088L38.4039 37.9194L38.5593 38.0524C38.7308 38.2253 38.838 38.2758 38.8058 38.2864L38.5593 38.0604C38.7362 38.2306 38.5995 38.1269 38.5165 38.0763C38.5915 38.1455 38.6638 38.2146 38.7174 38.2758C38.7603 38.2997 38.6987 38.2439 38.6745 38.212C38.779 38.2918 38.9344 38.3928 39.047 38.5098C39.2318 38.68 39.0255 38.555 39.2425 38.7518C40.3785 39.797 41.4743 40.8156 42.6425 41.8502C42.6612 41.8821 42.6291 41.8555 42.5916 41.8289C42.9506 42.1321 43.2587 42.414 43.5882 42.6879C43.6686 42.7757 43.6793 42.8129 43.6981 42.8448C43.6606 42.7783 45.4798 44.3979 45.5039 44.4272L45.5119 44.4405Z" fill="#087191"/>
</g>
</g>
</g>
<g id="Group_11">
<path id="Vector_28" d="M14.0793 41.4243C14.1195 41.6158 14.2562 41.9243 14.3955 42.2115C14.3124 41.9775 14.2106 41.7408 14.0793 41.4243Z" fill="#012832"/>
<path id="Vector_29" d="M14.3983 42.2169C14.3983 42.2169 14.3983 42.2197 14.3983 42.2224C14.3983 42.2197 14.3956 42.2142 14.3928 42.2114V42.2169H14.3983Z" fill="#012832"/>
<path id="Vector_30" d="M27.2745 57.1895C27.2263 57.1363 27.1727 57.0778 27.1191 57.0166C27.17 57.0751 27.221 57.1336 27.2745 57.1895Z" fill="#012832"/>
<path id="Vector_31" d="M27.8559 46.9027L27.8854 46.8362C28.2498 46.7005 28.306 46.6819 28.3596 46.6766C28.4105 46.666 28.4561 46.6686 28.7883 46.4904C28.9008 46.3867 29.1768 46.2405 29.4447 46.0383C29.7153 45.8442 29.9752 45.5596 30.0529 45.3974C30.0529 45.3974 30.0689 45.3735 30.0957 45.3336C30.1199 45.2937 30.1547 45.2431 30.1842 45.182C30.2458 45.0623 30.294 44.932 30.2994 44.9506C30.3101 44.8522 30.3422 44.698 30.3503 44.5144C30.3503 44.3309 30.3262 44.1208 30.2431 43.9427C30.1761 43.8177 30.2806 44.0411 30.2833 44.1474C30.2083 43.8576 30.0448 43.6155 29.8894 43.4453C29.7126 43.2565 29.6805 43.1953 29.8894 43.3868C29.8117 43.3097 29.7126 43.2166 29.5947 43.1102C29.4715 43.0225 29.3214 42.9214 29.1553 42.831C28.8177 42.6661 28.4051 42.5384 27.9658 42.4853C27.087 42.3789 26.1064 42.5065 25.1874 42.7645C24.2631 43.0172 23.3923 43.4054 22.693 43.8017C21.9911 44.1953 21.4686 44.6075 21.1927 44.8389C21.3561 44.7458 21.6883 44.4559 21.8544 44.4081C21.5651 44.6394 21.4097 44.7352 21.2972 44.8549C21.2168 44.8682 21.0587 45.0091 20.8872 45.158C20.7184 45.3123 20.5443 45.4905 20.4184 45.5756L20.3782 45.6899L20.2335 45.8256C19.9736 46.1766 19.8477 46.3947 19.7807 46.5303C19.711 46.6633 19.6896 46.7032 19.6735 46.7378C19.6548 46.7723 19.636 46.7989 19.5878 46.9186C19.5369 47.0356 19.4404 47.2324 19.3467 47.658C19.2663 48.1579 19.3038 48.5515 19.3895 48.86C19.4619 49.1765 19.5824 49.4026 19.6843 49.6632C19.6494 49.5887 19.5878 49.376 19.6977 49.6074C19.6816 49.6659 20.0567 50.1685 20.1156 50.2589C20.2656 50.4664 20.7667 50.9451 20.6327 50.7456C20.6916 50.8573 21.1685 51.2616 20.8685 51.0382C21.0265 51.1765 21.1793 51.3147 21.3105 51.3919C21.2409 51.3334 21.1685 51.2802 21.1042 51.2163C21.3856 51.4318 21.6026 51.5993 21.8062 51.7296C22.0045 51.8679 22.192 51.969 22.401 52.0621L22.184 51.9185C22.5457 52.1286 22.8645 52.2695 22.9931 52.3865L22.5993 52.211C23.2208 52.5248 23.6147 52.6684 24.1666 52.8227L23.971 52.7589C24.1479 52.8041 24.5095 52.9104 24.965 53.0142C25.4232 53.1126 25.9778 53.2056 26.535 53.2535C27.6496 53.3652 28.7722 53.2455 29.1017 53.1604H28.791C28.9812 53.1259 29.1687 53.0966 29.359 53.0514C29.292 53.0647 29.1017 53.2189 29.0401 53.211C29.1955 53.1923 29.4313 53.1551 29.7287 53.0886C30.0261 53.0248 30.3878 52.9211 30.787 52.7349C30.8861 52.6924 30.9906 52.6365 31.0924 52.57C31.1969 52.5142 31.3014 52.4291 31.4059 52.344C31.6068 52.1605 31.8372 51.9264 31.9337 51.5594C32.0355 51.203 31.9658 50.8174 31.8292 50.5302C31.7515 50.3946 31.6738 50.2563 31.5774 50.1393C31.4729 50.0302 31.3737 49.9026 31.2532 49.8228C30.7843 49.4558 30.2538 49.2989 29.7716 49.2217C29.2839 49.1499 28.8258 49.1526 28.4212 49.2005C27.6094 49.2856 27.0066 49.5169 26.7306 49.6313C26.2805 49.8042 26.6261 49.61 26.6288 49.602C26.3609 49.727 26.3127 49.7776 26.2671 49.8042C26.2243 49.8387 26.1867 49.852 25.9724 49.9877C25.8518 50.0542 25.9804 49.9478 26.0447 49.9026C25.8572 50.0222 25.675 50.1233 25.6723 50.1526C25.9108 50.0036 25.8411 50.1153 25.9537 50.0754C25.7661 50.1818 25.6 50.3201 25.4258 50.4478V50.4079C25.3723 50.4504 25.3187 50.5329 25.2169 50.6525C25.1124 50.7669 24.9784 50.9398 24.7721 51.1871C24.4345 51.6179 24.188 52.1658 24.0969 52.7349C24.0032 53.304 24.046 53.8785 24.1639 54.3971C24.1425 54.3838 24.0889 54.1657 24.038 53.9423C24.0621 54.0859 24.1077 54.3013 24.1237 54.4343C24.1184 54.3013 24.1345 54.4157 24.1746 54.5274C24.2122 54.6391 24.2497 54.7588 24.2255 54.6604C24.5042 55.3838 24.9221 56.2561 25.3428 56.7587C25.3803 56.7694 25.8224 56.8811 26.2377 56.9608C26.6503 57.0459 27.0789 57.0752 27.103 57.0539C27.2236 57.1922 27.3415 57.3278 27.3736 57.3757C27.3549 57.3278 27.1272 57.0539 26.9905 56.9183H26.9369C26.6369 56.5991 26.8887 56.8279 26.6208 56.4981C26.6342 56.4582 26.8699 56.7667 27.1111 57.0193C26.8994 56.7853 26.7333 56.53 26.6315 56.4502C26.4654 56.2135 26.6851 56.4502 26.4841 56.1683C26.4038 56.0752 26.3261 55.9609 26.2377 55.8439C26.1546 55.7268 26.0581 55.6072 26.0072 55.4795H26.0153C25.9429 55.3306 25.876 55.2029 25.8063 55.0859C25.7474 54.9689 25.6938 54.8598 25.6429 54.7508L25.5625 54.5886C25.5437 54.5327 25.525 54.4769 25.5035 54.421C25.4714 54.3067 25.4124 54.1817 25.4044 54.046L25.4258 54.1019C25.4205 54.0035 25.383 53.8625 25.3615 53.703C25.3535 53.5461 25.3267 53.3652 25.3615 53.2056C25.3481 53.2987 25.316 53.3812 25.3267 53.1817C25.3776 52.8067 25.4392 52.5594 25.5866 52.328C25.6161 52.2456 25.6402 52.1605 25.6884 52.0833C25.8652 51.8094 26.2591 51.336 26.961 50.985C27.6389 50.6286 28.6141 50.3866 29.4876 50.4956C29.9136 50.5488 30.3181 50.6924 30.5057 50.8945C30.5271 50.9211 30.5512 50.9424 30.578 50.9664C30.5968 50.993 30.6075 51.0195 30.6262 51.0461L30.653 51.0834C30.653 51.0834 30.6584 51.1046 30.6637 51.1153C30.6637 51.1339 30.6932 51.1605 30.6852 51.1685C30.6932 51.2243 30.7066 51.2084 30.6584 51.2802C30.6048 51.3413 30.5191 51.4371 30.3851 51.5062C30.2619 51.5807 30.1199 51.6445 29.9805 51.6951C29.7019 51.7988 29.442 51.8546 29.2518 51.8919L29.3107 51.8759C28.1533 52.1232 26.1626 52.0833 24.3649 51.4477C23.4673 51.1366 22.626 50.6898 21.9616 50.1605C21.6347 49.8972 21.3266 49.602 21.1284 49.3494C20.9381 49.0834 20.7908 48.8308 20.7506 48.5914C20.7104 48.2936 20.7452 47.8814 20.8899 47.5622C20.8042 47.7351 20.8069 47.6686 20.8658 47.5276C21.0909 47.0383 21.1364 47.025 21.1337 47.0011C21.1337 46.9904 21.1391 46.9798 21.1819 46.9106C21.2195 46.8388 21.3132 46.7165 21.5035 46.4825C21.7312 46.2192 22.1733 45.791 22.8002 45.3708C23.4298 44.9559 24.2282 44.541 25.0641 44.2645C25.8974 43.9772 26.7628 43.8256 27.4487 43.8496C27.7916 43.8602 28.0756 43.9214 28.2926 43.9905C28.3944 44.0331 28.4882 44.0703 28.5579 44.1129C28.6222 44.1607 28.6865 44.1926 28.7267 44.2299C28.7695 44.2671 28.8177 44.3017 28.8687 44.3389C28.8847 44.3575 28.9008 44.3762 28.9169 44.3921C28.9249 44.4081 28.9356 44.4214 28.9464 44.4347C28.9651 44.4746 28.9731 44.5251 28.9571 44.573C28.9356 44.6341 28.8606 44.7458 28.7588 44.8442C28.657 44.9453 28.5337 45.0437 28.4051 45.1341L28.4507 45.0916C28.3194 45.1873 28.0006 45.3788 27.5344 45.5543C27.0709 45.7351 26.4681 45.8947 25.8492 46.0011C25.2303 46.1075 24.5926 46.1553 24.0621 46.166C23.5289 46.174 23.103 46.15 22.8859 46.1367L23.0011 46.1527C22.6207 46.142 22.4573 46.1128 22.3179 46.0835C22.1759 46.0543 22.0581 46.0197 21.766 45.9639C21.833 46.033 21.1873 45.9452 20.9489 45.8788L20.9622 45.8708C20.7801 45.8309 20.4853 45.7591 20.1638 45.666C19.8423 45.5703 19.5021 45.4426 19.2207 45.3149L19.2556 45.299C19.0198 45.2006 18.6876 45.041 18.3902 44.8575C18.0928 44.674 17.8249 44.4799 17.6829 44.3682C17.356 44.1102 16.9702 43.7432 16.6085 43.315C16.2441 42.8868 15.9039 42.3948 15.6199 41.9161C15.5315 41.6901 15.4484 41.4667 15.3761 41.2353C15.36 41.2034 15.3412 41.1741 15.3252 41.1422C15.3252 41.1422 14.9795 40.9747 14.6714 40.9694C14.374 40.964 14.0873 41.1449 14.3338 41.9534L14.2963 41.9427C14.3419 42.0438 14.3928 42.1395 14.4464 42.2379C14.6125 42.5996 14.7491 42.7352 14.7062 42.7273C14.6125 42.5704 14.5267 42.4108 14.4464 42.2486C14.6232 42.6049 14.4812 42.3682 14.3955 42.2379C14.4705 42.3869 14.5428 42.5305 14.6044 42.6528C14.6553 42.7166 14.5857 42.597 14.5589 42.5384C14.6741 42.722 14.8509 42.964 14.9876 43.19C15.2207 43.5304 14.9608 43.2405 15.2394 43.6342C16.0003 44.6581 16.9729 45.5118 18.0687 46.1341C19.1672 46.7591 20.3755 47.1633 21.6321 47.3734C21.6883 47.3947 21.6187 47.384 21.5463 47.3734C22.3045 47.4904 22.9851 47.5489 23.679 47.5436C23.8719 47.5596 23.9255 47.5729 23.9817 47.5861C23.9228 47.5755 24.8873 47.5702 25.8626 47.408C26.3502 47.3308 26.8405 47.2191 27.2102 47.1154C27.5799 47.0117 27.8345 46.9186 27.8505 46.916L27.8559 46.9027Z" fill="#012832"/>
</g>
</g>
</g>
</g>
<defs>
<clipPath id="clip0_3491_24428">
<rect width="120" height="80" fill="white"/>
</clipPath>
</defs>
</svg>
