<svg width="328" height="328" viewBox="0 0 328 328" fill="none" xmlns="http://www.w3.org/2000/svg">
<mask id="mask0_332_798" style="mask-type:alpha" maskUnits="userSpaceOnUse" x="0" y="0" width="328" height="328">
<path d="M164 328C254.575 328 328 254.575 328 164C328 73.4253 254.575 0 164 0C73.4253 0 0 73.4253 0 164C0 254.575 73.4253 328 164 328Z" fill="white"/>
</mask>
<g mask="url(#mask0_332_798)">
<path d="M164 328C254.575 328 328 254.575 328 164C328 73.4253 254.575 0 164 0C73.4253 0 0 73.4253 0 164C0 254.575 73.4253 328 164 328Z" fill="#D4F5FF"/>
<g opacity="0.601446">
<path fill-rule="evenodd" clip-rule="evenodd" d="M107.7 85.6572C132.571 85.6572 153.057 105.191 154.24 130.034L157.409 196.594C159.261 202.807 160.858 209.578 162.209 216.89C178.745 286.73 183.65 346.107 176.923 395.021H38.6997C30.1881 348.17 34.5446 288.793 51.7692 216.89C53.1525 209.446 54.7251 202.646 56.5027 196.469L60.5637 130.002C62.0859 105.085 82.737 85.6572 107.7 85.6572Z" fill="white"/>
<path opacity="0.601446" fill-rule="evenodd" clip-rule="evenodd" d="M90.8522 122.93C85.9632 122.93 81.9999 127.646 81.9999 133.464V142.367C81.9999 149.096 85.5377 155.107 90.8522 157.407C96.1667 155.107 99.7045 149.096 99.7045 142.367V133.464C99.7045 127.646 95.7412 122.93 90.8522 122.93Z" fill="#D4F5FF"/>
<path opacity="0.601446" fill-rule="evenodd" clip-rule="evenodd" d="M121.602 122.93C116.713 122.93 112.75 127.646 112.75 133.464V142.367C112.75 149.096 116.288 155.107 121.602 157.407C126.917 155.107 130.454 149.096 130.454 142.367V133.464C130.454 127.646 126.491 122.93 121.602 122.93Z" fill="#E6EEFC"/>
<path opacity="0.601446" d="M92.25 149.021C95.3377 149.021 97.8409 146.518 97.8409 143.43C97.8409 140.342 95.3377 137.839 92.25 137.839C89.1622 137.839 86.6591 140.342 86.6591 143.43C86.6591 146.518 89.1622 149.021 92.25 149.021Z" fill="#102D42"/>
<path opacity="0.601446" d="M123.932 149.021C127.02 149.021 129.523 146.518 129.523 143.43C129.523 140.342 127.02 137.839 123.932 137.839C120.844 137.839 118.341 140.342 118.341 143.43C118.341 146.518 120.844 149.021 123.932 149.021Z" fill="#302C48"/>
<path opacity="0.601446" d="M94.1136 146.225C95.1428 146.225 95.9772 145.391 95.9772 144.362C95.9772 143.332 95.1428 142.498 94.1136 142.498C93.0843 142.498 92.2499 143.332 92.2499 144.362C92.2499 145.391 93.0843 146.225 94.1136 146.225Z" fill="white"/>
<path opacity="0.601446" d="M125.795 146.225C126.825 146.225 127.659 145.391 127.659 144.362C127.659 143.332 126.825 142.498 125.795 142.498C124.766 142.498 123.932 143.332 123.932 144.362C123.932 145.391 124.766 146.225 125.795 146.225Z" fill="white"/>
</g>
<g opacity="0.600958">
<path fill-rule="evenodd" clip-rule="evenodd" d="M221.382 85.6572C246.253 85.6572 266.739 105.191 267.922 130.034L271.091 196.594C272.943 202.807 274.54 209.578 275.891 216.89C292.427 286.73 297.332 346.107 290.605 395.021H152.382C143.87 348.17 148.226 288.793 165.451 216.89C166.834 209.446 168.407 202.646 170.185 196.469L174.246 130.002C175.768 105.085 196.419 85.6572 221.382 85.6572Z" fill="white"/>
<path opacity="0.600958" fill-rule="evenodd" clip-rule="evenodd" d="M204.534 122.93C199.645 122.93 195.682 127.646 195.682 133.464V142.367C195.682 149.096 199.22 155.107 204.534 157.407C209.849 155.107 213.386 149.096 213.386 142.367V133.464C213.386 127.646 209.423 122.93 204.534 122.93Z" fill="#E6EEFC"/>
<path opacity="0.600958" fill-rule="evenodd" clip-rule="evenodd" d="M235.284 122.93C230.395 122.93 226.432 127.646 226.432 133.464V142.367C226.432 149.096 229.97 155.107 235.284 157.407C240.599 155.107 244.136 149.096 244.136 142.367V133.464C244.136 127.646 240.173 122.93 235.284 122.93Z" fill="#D4F5FF"/>
<path opacity="0.600958" d="M205.932 149.021C209.02 149.021 211.523 146.518 211.523 143.43C211.523 140.342 209.02 137.839 205.932 137.839C202.844 137.839 200.341 140.342 200.341 143.43C200.341 146.518 202.844 149.021 205.932 149.021Z" fill="#302C48"/>
<path opacity="0.600958" d="M237.614 149.021C240.701 149.021 243.205 146.518 243.205 143.43C243.205 140.342 240.701 137.839 237.614 137.839C234.526 137.839 232.023 140.342 232.023 143.43C232.023 146.518 234.526 149.021 237.614 149.021Z" fill="#102D42"/>
<path opacity="0.600958" d="M207.795 146.225C208.825 146.225 209.659 145.391 209.659 144.362C209.659 143.332 208.825 142.498 207.795 142.498C206.766 142.498 205.932 143.332 205.932 144.362C205.932 145.391 206.766 146.225 207.795 146.225Z" fill="white"/>
<path opacity="0.600958" d="M239.477 146.225C240.506 146.225 241.341 145.391 241.341 144.362C241.341 143.332 240.506 142.498 239.477 142.498C238.448 142.498 237.614 143.332 237.614 144.362C237.614 145.391 238.448 146.225 239.477 146.225Z" fill="white"/>
</g>
<path fill-rule="evenodd" clip-rule="evenodd" d="M163.762 60.6387C191.548 60.6387 214.435 82.4619 215.758 110.217L219.298 184.52C221.367 191.457 223.15 199.017 224.659 207.182C243.134 285.17 248.613 351.475 241.098 406.095H86.6745C77.1653 353.778 82.0325 287.474 101.276 207.182C102.821 198.87 104.578 191.277 106.564 184.379L111.1 110.18C112.801 82.3435 135.873 60.6387 163.762 60.6387Z" fill="url(#paint0_linear_332_798)"/>
<path fill-rule="evenodd" clip-rule="evenodd" d="M144.247 101.983C138.665 101.983 134.14 107.262 134.14 113.774V123.738C134.14 131.27 138.179 137.998 144.247 140.572C150.314 137.998 154.353 131.27 154.353 123.738V113.774C154.353 107.262 149.828 101.983 144.247 101.983Z" fill="#D4F5FF"/>
<path fill-rule="evenodd" clip-rule="evenodd" d="M179.16 101.983C173.578 101.983 169.053 107.262 169.053 113.774V123.738C169.053 131.27 173.092 137.998 179.16 140.572C185.227 137.998 189.266 131.27 189.266 123.738V113.774C189.266 107.262 184.741 101.983 179.16 101.983Z" fill="#D4F5FF"/>
<path d="M146.084 131.384C149.636 131.384 152.515 128.505 152.515 124.953C152.515 121.401 149.636 118.521 146.084 118.521C142.532 118.521 139.653 121.401 139.653 124.953C139.653 128.505 142.532 131.384 146.084 131.384Z" fill="#035970"/>
<path d="M180.997 131.384C184.549 131.384 187.429 128.505 187.429 124.953C187.429 121.401 184.549 118.521 180.997 118.521C177.445 118.521 174.566 121.401 174.566 124.953C174.566 128.505 177.445 131.384 180.997 131.384Z" fill="#035970"/>
<path d="M148.381 128.627C149.65 128.627 150.678 127.599 150.678 126.33C150.678 125.062 149.65 124.033 148.381 124.033C147.112 124.033 146.084 125.062 146.084 126.33C146.084 127.599 147.112 128.627 148.381 128.627Z" fill="white"/>
<path d="M183.294 128.627C184.563 128.627 185.591 127.599 185.591 126.33C185.591 125.062 184.563 124.033 183.294 124.033C182.026 124.033 180.997 125.062 180.997 126.33C180.997 127.599 182.026 128.627 183.294 128.627Z" fill="white"/>
<path d="M47.6562 159.682C47.6562 164.204 44.5761 174.177 40.6132 174.9" stroke="#102D42" stroke-width="0.985994"/>
<path d="M41.2026 153.764C38.6736 157.513 30.5434 164.058 26.8538 162.442" stroke="#102D42" stroke-width="0.985994"/>
<path d="M58.5754 155.5C63.098 155.5 73.0708 158.58 73.7937 162.543" stroke="#102D42" stroke-width="0.985994"/>
<path d="M56.3401 159.056C55.246 163.444 55.8219 173.866 59.4923 175.526" stroke="#102D42" stroke-width="0.985994"/>
<path fill-rule="evenodd" clip-rule="evenodd" d="M50.9916 166.134L49.5498 168.998L48.5621 165.947L46.7 168.558L46.1897 165.392L43.9508 167.688L43.9297 164.481L41.3667 166.408L41.8353 163.236L39.0081 164.749L39.9556 161.686L36.9304 162.75L38.3344 159.867L35.1823 160.456L37.01 157.821L33.8048 157.923L36.0133 155.598L32.8301 155.209L35.3676 153.249L32.2811 152.379L35.0882 150.828L32.1707 149.497L35.1815 148.393L32.5014 146.633L35.6454 146.001L33.2654 143.852L36.469 143.708L34.445 141.221L37.633 141.568L36.0124 138.8L39.1101 139.63L37.931 136.648L40.8657 137.94L40.1556 134.813L42.8587 136.538L42.6342 133.339L45.0423 135.457L45.3087 132.262L47.3653 134.722L48.1165 131.605L49.7733 134.35L50.9916 131.384L52.2099 134.35L53.8667 131.605L54.6179 134.722L56.6744 132.262L56.9409 135.457L59.3489 133.339L59.1245 136.538L61.8275 134.813L61.1174 137.94L64.0522 136.648L62.873 139.63L65.9707 138.8L64.3501 141.568L67.5381 141.221L65.5141 143.708L68.7177 143.852L66.3377 146.001L69.4818 146.633L66.8016 148.393L69.8125 149.497L66.8949 150.828L69.702 152.379L66.6155 153.249L69.153 155.209L65.9699 155.598L68.1783 157.923L64.9731 157.821L66.8008 160.456L63.6487 159.867L65.0527 162.75L62.0276 161.686L62.975 164.749L60.1478 163.236L60.6165 166.408L58.0534 164.481L58.0323 167.688L55.7935 165.392L55.2831 168.558L53.421 165.947L52.4334 168.998L50.9916 166.134Z" fill="#035970"/>
<path opacity="0.704055" d="M50.9916 42.7227V131.861" stroke="white" stroke-width="0.985994" stroke-linecap="square"/>
<path d="M45.9384 156.19C48.9829 156.19 51.451 153.722 51.451 150.678C51.451 147.633 48.9829 145.165 45.9384 145.165C42.8939 145.165 40.4258 147.633 40.4258 150.678C40.4258 153.722 42.8939 156.19 45.9384 156.19Z" fill="white"/>
<path d="M47.3166 153.434C48.5851 153.434 49.6135 152.405 49.6135 151.137C49.6135 149.868 48.5851 148.84 47.3166 148.84C46.048 148.84 45.0197 149.868 45.0197 151.137C45.0197 152.405 46.048 153.434 47.3166 153.434Z" fill="#4B4B4B"/>
<path d="M60.6386 156.19C63.6832 156.19 66.1512 153.722 66.1512 150.678C66.1512 147.633 63.6832 145.165 60.6386 145.165C57.5941 145.165 55.126 147.633 55.126 150.678C55.126 153.722 57.5941 156.19 60.6386 156.19Z" fill="white"/>
<path d="M62.0168 153.434C63.2853 153.434 64.3137 152.405 64.3137 151.137C64.3137 149.868 63.2853 148.84 62.0168 148.84C60.7482 148.84 59.7198 149.868 59.7198 151.137C59.7198 152.405 60.7482 153.434 62.0168 153.434Z" fill="#4B4B4B"/>
<path d="M283.1 190.92C283.1 195.443 286.18 205.415 290.143 206.138" stroke="#102D42" stroke-width="0.985994"/>
<path d="M287.203 187.15C289.395 191.105 296.924 198.335 300.741 197.046" stroke="#102D42" stroke-width="0.985994"/>
<path d="M272.116 186.955C267.709 187.972 258.685 193.217 258.872 197.241" stroke="#102D42" stroke-width="0.985994"/>
<path d="M274.416 190.294C275.51 194.682 274.934 205.104 271.264 206.764" stroke="#102D42" stroke-width="0.985994"/>
<path fill-rule="evenodd" clip-rule="evenodd" d="M279.765 197.372L281.206 200.236L282.194 197.185L284.056 199.796L284.567 196.63L286.805 198.926L286.826 195.719L289.39 197.647L288.921 194.474L291.748 195.988L290.801 192.924L293.826 193.988L292.422 191.105L295.574 191.695L293.746 189.06L296.951 189.161L294.743 186.836L297.926 186.448L295.389 184.487L298.475 183.617L295.668 182.066L298.586 180.735L295.575 179.632L298.255 177.871L295.111 177.24L297.491 175.09L294.287 174.946L296.311 172.459L293.123 172.806L294.744 170.039L291.646 170.868L292.825 167.886L289.89 169.179L290.601 166.051L287.898 167.777L288.122 164.578L285.714 166.696L285.447 163.5L283.391 165.96L282.64 162.843L280.983 165.588L279.765 162.622L278.546 165.588L276.89 162.843L276.138 165.96L274.082 163.5L273.815 166.696L271.407 164.578L271.632 167.777L268.929 166.051L269.639 169.179L266.704 167.886L267.883 170.868L264.786 170.039L266.406 172.806L263.218 172.459L265.242 174.946L262.039 175.09L264.419 177.24L261.274 177.871L263.955 179.632L260.944 180.735L263.861 182.066L261.054 183.617L264.141 184.487L261.603 186.448L264.786 186.836L262.578 189.161L265.783 189.06L263.955 191.695L267.108 191.105L265.704 193.988L268.729 192.924L267.781 195.988L270.608 194.474L270.14 197.647L272.703 195.719L272.724 198.926L274.963 196.63L275.473 199.796L277.335 197.185L278.323 200.236L279.765 197.372Z" fill="#035970"/>
<path d="M284.818 187.43C281.773 187.43 279.305 184.961 279.305 181.917C279.305 178.872 281.773 176.404 284.818 176.404C287.862 176.404 290.33 178.872 290.33 181.917C290.33 184.961 287.862 187.43 284.818 187.43Z" fill="white"/>
<path d="M283.44 182.836C282.171 182.836 281.143 181.808 281.143 180.539C281.143 179.271 282.171 178.242 283.44 178.242C284.708 178.242 285.737 179.271 285.737 180.539C285.737 181.808 284.708 182.836 283.44 182.836Z" fill="#4B4B4B"/>
<path d="M270.118 187.43C267.073 187.43 264.605 184.961 264.605 181.917C264.605 178.872 267.073 176.404 270.118 176.404C273.162 176.404 275.63 178.872 275.63 181.917C275.63 184.961 273.162 187.43 270.118 187.43Z" fill="white"/>
<path d="M268.739 182.836C267.471 182.836 266.443 181.808 266.443 180.539C266.443 179.271 267.471 178.242 268.739 178.242C270.008 178.242 271.036 179.271 271.036 180.539C271.036 181.808 270.008 182.836 268.739 182.836Z" fill="#4B4B4B"/>
<path opacity="0.700548" d="M276.549 -12.8623V163.559" stroke="white" stroke-width="0.985994" stroke-linecap="square"/>
</g>
<defs>
<linearGradient id="paint0_linear_332_798" x1="163.177" y1="474.381" x2="163.177" y2="240.673" gradientUnits="userSpaceOnUse">
<stop stop-color="#B7C4CB" stop-opacity="0"/>
<stop offset="0.369261" stop-color="white" stop-opacity="0.251302"/>
<stop offset="1" stop-color="white"/>
</linearGradient>
</defs>
</svg>
