<svg width="350" height="356" viewBox="0 0 350 356" fill="none" xmlns="http://www.w3.org/2000/svg">
<path d="M226.579 292.126C226.579 258.274 254.022 230.832 287.873 230.832C321.725 230.832 349.168 258.274 349.168 292.126C349.168 325.978 321.725 353.421 287.873 353.421H226.579V292.126Z" fill="#FAB1A5"/>
<mask id="mask0_913_14479" style="mask-type:alpha" maskUnits="userSpaceOnUse" x="134" y="150" width="216" height="206">
<path d="M135.566 228.016C127.635 177.895 176.145 137.5 224.002 154.372L245.683 162.016C251.598 164.102 257.19 167.007 262.297 170.648L321.068 212.55C338.7 225.121 349.167 245.439 349.167 267.093V288.186C349.167 325.182 319.177 355.172 282.181 355.172H226.579L152.477 269.843C144.252 260.372 138.851 248.781 136.891 236.39L135.566 228.016Z" fill="#C4C4C4"/>
</mask>
<g mask="url(#mask0_913_14479)">
<path d="M233.734 225.276L233.54 219.169L239.937 206.472C241.1 204.146 241.1 201.432 239.985 199.058L232.716 184.422C232.716 184.422 228.548 216.165 227.434 218.83C226.319 221.447 230.438 226.196 230.438 226.196L233.734 225.276Z" fill="url(#paint0_linear_913_14479)"/>
<path d="M304.778 243.934C304.778 243.934 311.612 247.277 312.872 251.106C313.889 254.159 321.449 254.547 322.176 260.605C322.564 263.706 324.89 266.226 327.992 266.711C335.697 267.874 347.619 271.896 349.509 285.321C350.963 295.546 345.729 299.423 340.253 300.78C336.231 301.749 333.565 305.675 334.389 309.746C335.164 313.623 334.001 318.13 327.265 321.716C312.145 329.712 297.024 302.815 297.024 302.815L293.923 255.855L304.778 243.934Z" fill="#102D42"/>
<path d="M233.586 219.168C233.586 219.168 253.068 272.234 286.216 288.808C286.216 288.808 275.167 306.836 269.4 307.903C269.4 307.903 233.974 262.542 230.388 225.42L233.586 219.168Z" fill="url(#paint1_linear_913_14479)"/>
<path d="M308.898 356.418C304.585 338.099 308.947 324.239 313.502 315.758C317.137 308.973 314.568 300.541 307.735 297.003C297.025 291.43 286.218 288.861 286.218 288.861C286.218 288.861 265.04 304.369 267.56 316.485C269.014 323.609 282.438 359.035 282.438 359.035C282.438 359.035 294.796 364.85 308.898 356.418Z" fill="#E6F9FF"/>
<path d="M300.03 267.437L306.233 295.254C306.814 297.726 304.585 297.289 302.113 296.853C298.043 296.078 292.809 294.527 291.064 291.329C290.87 290.989 290.773 290.65 290.725 290.262L288.059 270.974C287.865 269.424 288.689 267.97 290.095 267.34L295.232 265.062C297.267 264.19 299.545 265.353 300.03 267.437Z" fill="url(#paint2_linear_913_14479)"/>
<path d="M292.758 240.93C292.758 240.93 285.44 244.032 280.448 254.645C275.457 265.258 279.188 270.153 283.889 270.832C288.59 271.51 295.569 271.413 302.983 264.531C310.35 257.698 302.305 237.247 292.758 240.93Z" fill="url(#paint3_linear_913_14479)"/>
<path d="M297.944 258.86C297.944 258.86 303.469 243.352 289.705 243.158L286.458 245.436C286.458 245.436 281.418 236.81 289.705 232.739C297.993 228.62 307.685 232.012 311.223 243.207C314.761 254.353 315.342 261.865 309.478 267.196C303.614 272.527 301.191 266.469 301.191 266.469C301.191 266.469 304.39 261.477 303.081 258.812C301.773 256.146 298.768 259.345 298.768 259.345L297.944 258.86Z" fill="#102D42"/>
<path d="M299.495 260.606C299.495 260.606 302.306 252.609 306.038 255.808C309.769 259.006 302.984 263.174 300.367 264.531L299.495 260.606Z" fill="url(#paint4_linear_913_14479)"/>
<path d="M272.112 267.114L269.854 177.418L232.808 178.343C233.272 181.777 234.799 185.014 237.123 187.722C239.58 190.628 241.04 194.459 240.775 198.62C240.376 205.885 234.733 212.028 227.43 213.019C218.069 214.274 209.969 207.206 209.77 198.092C209.703 194.327 210.965 190.892 213.089 188.118C215.214 185.41 216.409 182.108 216.741 178.739L179.694 179.664L180.623 216.52C177.171 216.189 173.918 215 171.196 212.887C168.474 210.707 164.955 209.452 161.171 209.584C152.008 209.782 144.905 217.907 146.166 227.154C147.162 234.353 153.336 240.033 160.639 240.43C164.822 240.694 168.673 239.241 171.594 236.797C174.316 234.485 177.569 232.966 181.022 232.504L181.951 269.359L272.112 267.114Z" fill="#BCCFDC"/>
<path d="M222.588 249.074C222.588 249.074 238.92 305.727 304.683 300.396C308.9 300.057 312.583 303.158 312.922 307.375L313.116 309.652C313.6 315.759 308.609 320.896 302.502 320.605C280.646 319.49 233.637 310.912 217.548 258.912L222.588 249.074Z" fill="url(#paint5_linear_913_14479)"/>
<path d="M217.497 258.91C217.497 258.91 214.347 249.702 213.572 243.935C212.797 238.168 215.704 225.229 218.176 221.594C220.648 217.959 221.084 226.876 222.198 231.044C223.313 235.26 221.423 241.221 221.423 241.221L222.586 249.072L217.497 258.91Z" fill="url(#paint6_linear_913_14479)"/>
</g>
<path d="M221.414 48.0254H344.003V109.32C344.003 143.172 316.56 170.614 282.708 170.614C248.856 170.614 221.414 143.172 221.414 109.32V48.0254Z" fill="#8EDEF4"/>
<mask id="mask1_913_14479" style="mask-type:alpha" maskUnits="userSpaceOnUse" x="168" y="13" width="177" height="158">
<path d="M168 13H344.002V103.628C344.002 140.623 314.012 170.614 277.016 170.614H256.001H234.986C197.991 170.614 168 140.623 168 103.628V13Z" fill="#20C9AD"/>
</mask>
<g mask="url(#mask1_913_14479)">
<path d="M263.538 154.525C264.144 154.677 264.75 154.828 265.356 154.979C273.233 156.797 281.49 157.479 287.246 156.116C290.125 155.434 291.943 151.95 293.079 148.011C293.382 146.95 293.836 145.89 293.912 144.754C294.594 133.922 291.943 129.301 291.943 129.301L249.373 124.529C249.373 124.529 247.934 127.105 246.419 130.513C245.283 132.937 244.071 135.816 243.238 138.467C242.783 140.057 242.404 141.497 242.329 142.709C241.95 146.647 252.1 151.647 263.538 154.525Z" fill="#035970"/>
<path d="M312.696 277.232C309.06 277.611 305.803 277.99 302.243 278.52C300.88 278.747 299.365 278.975 298.001 279.126C297.698 278.293 297.093 276.551 296.714 275.566C296.638 275.339 296.562 275.111 296.411 274.808C289.518 257.311 276.565 223.831 274.065 213.984C273.99 213.757 273.914 213.454 273.914 213.226C273.384 211.03 272.778 208.303 272.172 205.121C269.445 191.639 266.112 171.035 265.43 158.84C265.203 155.507 265.203 152.78 265.355 151.038C265.43 150.357 265.658 149.675 265.885 149.145C269.748 141.646 291.411 143.312 291.411 143.312C291.411 143.312 291.487 144.524 291.639 146.493C292.32 156.492 294.972 186.336 295.881 195.653C297.017 206.939 299.289 210.954 299.289 210.954C299.289 210.954 303.91 221.256 307.015 240.344C308.833 251.857 310.878 264.658 312.242 273.066C312.318 273.294 312.318 273.597 312.393 273.824C312.469 274.581 312.621 276.551 312.696 277.232Z" fill="#035970"/>
<path d="M257.779 190.425C254.295 201.182 254.598 206.56 254.598 206.56C254.598 206.56 257.324 217.543 254.446 236.631C252.249 250.947 250.962 270.944 250.432 279.958C250.432 280.261 250.432 280.488 250.356 280.716C250.204 283.215 250.129 284.73 250.129 284.73L236.191 286.245C236.191 286.245 236.115 284.579 235.888 281.776C235.888 281.549 235.812 281.246 235.812 281.019C234.828 266.021 232.025 222.921 232.252 205.726C232.252 203.681 232.328 202.015 232.48 200.803C232.555 199.894 232.707 198.682 232.934 197.167C234.6 183.836 239.903 149.522 243.614 137.781C246.568 128.54 267.323 138.009 267.323 138.009C267.323 138.009 261.263 179.669 257.779 190.425Z" fill="#242645"/>
<path d="M265.279 152.406C265.43 152.406 265.582 152.33 265.657 152.179C265.733 151.952 265.657 151.724 265.506 151.573C265.43 151.573 260.885 149.073 259.976 143.695C259.901 143.468 259.749 143.316 259.446 143.316C259.219 143.392 259.067 143.544 259.067 143.847C260.052 149.679 264.824 152.255 265.051 152.33C265.203 152.406 265.203 152.406 265.279 152.406Z" fill="#595E8D"/>
<path d="M247.707 280.718C247.935 280.718 248.086 280.567 248.086 280.339C248.086 279.885 250.965 235.725 251.873 225.65C252.782 215.955 251.419 202.017 251.268 200.73C254.525 190.807 263.387 151.343 263.538 150.964C263.614 150.737 263.463 150.51 263.235 150.434C263.008 150.358 262.781 150.51 262.705 150.737C262.63 151.115 253.691 190.807 250.434 200.502C250.434 200.578 250.434 200.654 250.434 200.654C250.434 200.805 252.025 215.424 251.04 225.499C250.056 235.573 247.253 279.734 247.253 280.188C247.253 280.491 247.404 280.718 247.707 280.718C247.632 280.718 247.707 280.718 247.707 280.718Z" fill="#595E8D"/>
<path d="M220.363 84.6907C220.439 84.8421 220.439 84.9936 220.514 85.1451L220.666 85.6754L220.969 86.7358L221.575 88.781C221.954 90.1444 222.408 91.5079 222.787 92.8713C223.62 95.5982 224.453 98.2493 225.438 100.673C225.665 101.279 225.893 101.885 226.196 102.491C226.423 103.097 226.726 103.627 226.953 104.158C227.256 104.688 227.483 105.142 227.71 105.597C227.938 105.975 228.241 106.354 228.392 106.581L228.468 106.657L228.544 106.733C228.544 106.733 228.544 106.733 228.619 106.733C228.619 106.733 228.695 106.733 228.544 106.657L228.468 106.581C228.392 106.581 228.392 106.506 228.316 106.506C228.241 106.43 228.089 106.354 228.013 106.354C227.786 106.203 227.559 106.127 227.256 105.975C226.726 105.748 226.044 105.597 225.514 105.597C224.908 105.597 224.453 105.673 224.075 105.748C223.696 105.824 223.469 105.975 223.241 106.051C222.863 106.203 222.787 106.354 222.787 106.354C222.787 106.354 222.863 106.278 222.938 106.203C223.09 105.975 223.393 105.597 223.696 105.142C224.302 104.233 224.908 103.173 225.514 102.037C226.12 100.9 226.726 99.6885 227.332 98.4008C228.468 95.9012 229.604 93.25 230.74 90.6746C231.801 88.0235 232.937 85.3724 233.997 82.6455L235.588 78.6309L237.179 74.6163V74.5406C238.542 71.2077 242.33 69.5413 245.662 70.9047C248.768 72.1167 250.359 75.4495 249.601 78.5552C249.526 78.9339 249.45 79.3126 249.298 79.6914L248.995 80.8276C248.768 81.585 248.617 82.2668 248.389 83.0242C247.935 84.4634 247.556 85.9026 247.026 87.4175C246.117 90.2959 245.132 93.1743 243.996 96.0527C243.466 97.4919 242.86 98.931 242.254 100.37C241.648 101.809 241.042 103.249 240.36 104.688C239.678 106.127 238.997 107.566 238.163 109.005C237.785 109.763 237.33 110.445 236.876 111.202C236.421 111.959 235.967 112.717 235.361 113.474C234.831 114.232 234.149 115.065 233.391 115.898C233.013 116.353 232.482 116.807 231.952 117.262C231.346 117.716 230.665 118.246 229.604 118.777C229.074 119.004 228.468 119.307 227.71 119.458C226.953 119.686 226.12 119.761 225.135 119.761C224.226 119.761 223.166 119.534 222.257 119.231C221.802 119.08 221.423 118.852 221.045 118.625C220.817 118.549 220.666 118.398 220.514 118.322L220.287 118.171L220.136 118.095L220.06 118.019C219.378 117.489 218.848 116.959 218.394 116.429L218.091 116.05L217.939 115.823L217.788 115.671L217.485 115.292L217.182 114.914C216.5 113.929 215.97 113.02 215.515 112.111C215.061 111.202 214.682 110.369 214.379 109.536C214.076 108.702 213.773 107.869 213.546 107.036C213.319 106.203 213.091 105.445 212.864 104.612C212.031 101.431 211.576 98.3251 211.198 95.2195C211.046 93.6288 210.895 92.1138 210.819 90.5989C210.819 89.8414 210.743 89.084 210.743 88.2508C210.743 87.872 210.743 87.4933 210.743 87.1146V86.5086V85.9026C210.819 83.2515 212.94 81.1306 215.591 81.2063C217.636 81.282 219.378 82.5697 220.06 84.4634L220.363 84.6907Z" fill="#B65F42"/>
<path d="M229.604 108.62C229.453 108.62 229.301 108.544 229.301 108.392C228.62 106.044 225.741 102.03 225.741 102.03C225.665 101.878 225.665 101.727 225.817 101.575C225.968 101.499 226.12 101.499 226.271 101.651C226.423 101.802 229.226 105.817 229.907 108.241C229.907 108.392 229.831 108.544 229.604 108.62Z" fill="#80301A"/>
<path d="M229.829 105.062C229.753 105.062 229.677 105.062 229.601 104.986C229.601 104.986 228.768 104.305 227.026 103.85C226.875 103.774 226.799 103.623 226.799 103.471C226.875 103.32 227.026 103.244 227.178 103.244C229.071 103.699 229.98 104.456 229.98 104.532C230.132 104.608 230.132 104.835 230.056 104.986C229.98 104.986 229.904 104.986 229.829 105.062Z" fill="#80301A"/>
<path d="M244.823 134.294C256.564 134.445 273.986 138.157 292.468 130.582C288.302 119.826 285.12 100.587 285.045 100.284C284.666 98.4657 284.363 96.1933 284.136 93.6937C284.06 92.7847 283.984 91.8757 283.908 90.9668C283.833 90.0578 283.833 89.0731 283.757 88.0884C283.757 87.1794 283.681 86.2705 283.681 85.2858C283.681 84.6798 283.681 84.0738 283.681 83.4678C283.681 83.0891 283.681 82.7861 283.681 82.4074C283.681 82.3316 283.681 82.2559 283.681 82.2559C283.681 81.9529 283.681 81.7257 283.681 81.4227C283.681 80.8167 283.681 80.2107 283.681 79.6048C283.681 78.1656 283.757 76.7264 283.908 75.3629C284.439 66.6521 282.015 57.9412 273.304 58.1684C272.698 58.1684 272.016 58.1684 271.41 58.2442C267.32 58.3957 263.987 58.6986 263.078 58.7744C262.927 58.7744 262.851 58.7744 262.851 58.7744L246.944 65.8946L245.429 66.5763C243.232 67.6368 241.49 68.6215 240.051 69.4547C238.839 70.2122 237.854 70.9696 237.097 71.6513C233.84 74.757 234.824 77.5596 235.733 83.3163C235.733 83.3921 235.733 83.5436 235.809 83.6193V83.6951C235.961 84.6798 236.036 85.6645 236.112 86.6492C236.188 87.7097 236.264 88.8459 236.264 89.9063C236.339 92.1787 236.339 94.3754 236.339 96.3448C236.339 97.3295 236.339 98.2385 236.415 99.1474C236.491 100.132 236.567 101.117 236.718 101.95C236.87 102.935 237.097 103.768 237.476 104.525C237.627 104.828 237.779 105.056 237.93 105.283C238.309 105.813 238.763 106.343 239.218 106.798C239.975 107.555 240.733 108.237 241.49 108.767C242.854 109.828 244.141 110.509 244.823 110.888C245.126 111.04 245.278 111.115 245.278 111.115C245.278 111.115 245.278 111.115 245.278 111.191C245.278 111.343 245.353 111.494 245.353 111.646C245.505 112.252 245.656 112.933 245.732 113.767C245.884 114.221 248.307 122.78 244.823 134.294Z" fill="#F4FCFF"/>
<path d="M237.478 104.611L283.91 88.1737C283.91 87.2648 283.835 86.3558 283.835 85.3711L236.796 102.035C236.947 103.02 237.175 103.929 237.478 104.611Z" fill="white"/>
<path d="M239.222 106.878C239.979 107.635 240.737 108.317 241.494 108.847L284.215 93.6976C284.14 92.7886 284.064 91.8797 283.988 90.9707L239.222 106.878Z" fill="white"/>
<path d="M237.177 71.7344C238.086 75.5217 238.01 81.8844 236.192 86.7322C236.117 85.7475 235.965 84.7628 235.889 83.7781V83.7024C235.889 83.6266 235.889 83.4751 235.814 83.3994C234.905 77.7184 233.92 74.84 237.177 71.7344Z" fill="url(#paint7_linear_913_14479)"/>
<path d="M267.4 73.1663C270.354 80.2107 279.292 86.0432 283.761 83.5436C283.761 83.0891 283.761 82.7104 283.761 82.2559C283.761 81.9529 283.761 81.7257 283.761 81.4227C283.761 79.3775 283.837 77.3324 283.988 75.3629C284.518 66.6521 282.095 57.9412 273.384 58.1684C272.778 58.1684 272.096 58.1684 271.49 58.2442C267.475 60.6681 264.067 65.0614 267.4 73.1663Z" fill="url(#paint8_linear_913_14479)"/>
<path d="M269.823 105.071C269.823 105.222 269.672 105.298 269.596 105.374C269.52 105.374 269.444 105.374 269.369 105.374C269.293 105.374 261.945 104.086 254.977 108.177C251.417 110.298 248.159 111.358 245.433 111.661C245.433 111.509 245.357 111.358 245.357 111.206C245.357 111.206 245.357 111.206 245.357 111.131C245.357 111.131 245.205 111.055 244.902 110.903C247.553 110.676 250.886 109.616 254.598 107.419C261.87 103.177 269.293 104.465 269.596 104.465C269.747 104.692 269.899 104.92 269.823 105.071Z" fill="white"/>
<path d="M247.782 63.0969C247.782 63.0969 246.342 67.0357 242.025 63.5513C242.025 63.5513 235.283 66.7327 234.147 58.6278C234.147 58.6278 229.072 57.2644 231.344 51.4319C231.344 51.4319 225.891 50.7501 227.178 43.4027C227.178 43.4027 223.24 40.2971 224.073 35.3735C225.057 29.541 230.663 30.2228 230.663 30.2228C230.663 30.2228 228.087 25.678 233.087 22.9511C237.859 20.3757 241.04 24.3145 241.04 24.3145C241.04 24.3145 242.025 19.5425 246.494 19.1637C252.402 18.6335 253.084 24.0115 253.084 24.0115C253.084 24.0115 256.795 20.2242 260.658 22.9511C264.597 25.678 262.628 30.3743 262.628 30.3743C262.628 30.3743 267.476 28.8593 268.612 33.5556C269.748 38.1762 267.173 39.7669 267.173 39.7669C267.173 39.7669 269.9 43.5542 264.9 47.8718C264.9 47.8718 270.506 56.2797 259.674 56.6584C252.554 56.8099 247.782 63.0969 247.782 63.0969Z" fill="#102D42"/>
<path d="M247.637 68.4764C254.227 75.0663 260.363 62.4924 259.984 60.22C256.803 55.4479 256.045 49.9941 256.045 49.9941L244.607 58.3263C244.759 58.705 244.91 59.0838 245.062 59.3867C245.744 61.0532 246.35 62.7953 246.88 64.689C247.107 65.598 247.486 67.4916 247.637 68.4764Z" fill="url(#paint9_linear_913_14479)"/>
<path d="M246.868 64.6923C253.155 61.208 255.427 53.0273 255.427 53.0273L245.05 59.3901C245.656 61.1322 246.338 62.8744 246.868 64.6923Z" fill="#242645"/>
<path d="M239.004 49.6918C239.004 49.6918 237.111 46.8134 234.763 48.2526C232.414 49.6918 234.763 58.2512 239.535 56.5847L239.004 49.6918Z" fill="url(#paint10_linear_913_14479)"/>
<path d="M240.283 62.9458C237.86 63.3245 235.587 61.6581 235.284 59.2342C234.905 56.8103 236.572 54.5379 238.996 54.1591C241.42 53.7804 243.692 55.4468 244.071 57.8707C244.374 60.2946 242.707 62.567 240.283 62.9458ZM239.071 54.8409C237.026 55.1438 235.587 57.1133 235.89 59.1584C236.193 61.2036 238.163 62.6428 240.208 62.3398C242.253 62.0368 243.692 60.0674 243.389 58.0222C243.01 55.9771 241.117 54.5379 239.071 54.8409Z" fill="#FFFFFB"/>
<path d="M256.499 50.9719C256.12 54.7592 248.318 61.1977 244.228 60.516C241.728 60.1372 239.228 58.5465 236.88 54.3047V54.229C236.729 54.0017 236.577 53.6987 236.502 53.4715C236.274 53.017 236.047 52.5625 235.896 52.1838C235.82 52.1081 235.82 51.9566 235.744 51.8808C235.593 51.6536 235.517 51.3506 235.441 51.1234C235.29 50.8204 235.214 50.5174 235.138 50.2144C233.775 45.6696 232.108 40.5946 235.517 36.6557C238.925 32.6411 245.212 30.1415 250.06 33.1714C250.06 33.1714 253.772 35.974 255.514 42.6397C257.029 49.2297 256.802 48.245 256.499 50.9719Z" fill="url(#paint11_linear_913_14479)"/>
<path d="M246.275 33.323C246.275 33.323 250.29 39.913 252.79 40.7462C255.214 41.6552 256.047 37.6406 256.047 37.6406C256.047 37.6406 248.927 27.8693 246.275 33.323Z" fill="#242645"/>
<path d="M237.41 35.9028C237.41 35.9028 243.015 40.7506 247.787 38.0237C252.56 35.2968 248.015 31.964 248.015 31.964C248.015 31.964 237.41 30.5248 237.41 35.9028Z" fill="#242645"/>
<path d="M238.622 35.0679C238.622 35.0679 238.092 43.4 232.714 43.4C227.336 43.4 232.486 34.0074 235.895 33.4772C239.304 32.7955 238.622 35.0679 238.622 35.0679Z" fill="#242645"/>
<path d="M253.47 42.2648C253.47 42.2648 254.227 39.1591 257.257 39.5379C260.287 39.9166 261.802 49.5365 256.272 50.0667L253.47 42.2648Z" fill="url(#paint12_linear_913_14479)"/>
<path d="M251.043 38.9336C251.043 38.9336 251.876 47.5687 253.543 46.281C255.209 44.9933 254.452 39.9183 254.452 39.9183L251.043 38.9336Z" fill="#242645"/>
<path d="M259.596 47.3457C259.52 47.5729 259.444 47.8002 259.369 47.9517C261.338 47.9517 263.08 49.4666 263.156 51.5118C263.232 53.254 262.095 54.8446 260.429 55.2991C258.232 55.9051 256.036 54.4659 255.733 52.2692C255.506 50.9058 256.112 49.5424 257.172 48.7091C257.854 48.2547 257.929 47.8759 257.854 47.5729C255.96 48.3304 254.824 50.2998 255.127 52.345C255.506 54.7689 257.778 56.4353 260.202 56.0566C262.626 55.6778 264.292 53.4054 263.913 50.9815C263.459 48.9364 261.641 47.4214 259.596 47.3457Z" fill="#FFFFFB"/>
<path d="M280.652 82.9425C280.804 82.8668 280.955 82.8668 281.107 82.791L281.561 82.6395L282.47 82.3365L284.364 81.6548C285.652 81.2003 286.864 80.7459 288.076 80.2914C290.5 79.3824 292.923 78.4735 295.196 77.413C295.726 77.1858 296.332 76.8828 296.862 76.6555C297.392 76.4283 297.923 76.1253 298.377 75.8981C298.907 75.5951 299.362 75.3678 299.741 75.0648C300.195 74.7619 300.574 74.5346 300.877 74.3074C301.18 74.0801 301.407 73.8529 301.559 73.7014C301.634 73.6257 301.634 73.5499 301.634 73.6257C301.634 73.6257 301.634 73.6257 301.559 73.7014C301.559 73.7014 301.559 73.7772 301.483 73.7772L301.407 73.8529C301.331 74.0044 301.18 74.3074 301.104 74.6104C301.028 74.9134 300.953 75.2921 300.877 75.6708C300.877 76.0496 300.877 76.4283 300.953 76.807C301.028 77.1858 301.104 77.4887 301.18 77.7917C301.256 78.019 301.407 78.2462 301.483 78.3977C301.559 78.5492 301.634 78.7007 301.71 78.7007C301.862 78.8522 301.862 78.9279 301.862 78.8522C301.786 78.8522 301.559 78.6249 301.256 78.4735C300.877 78.322 300.498 78.0947 300.044 77.8675C299.135 77.4887 297.998 77.0343 296.862 76.6555C295.726 76.2768 294.514 75.8981 293.302 75.5951C292.09 75.2163 290.802 74.9134 289.591 74.6104C287.091 74.0044 284.516 73.3984 281.864 72.7924L278.001 71.9592L274.138 71.126H273.987C270.427 70.3685 268.23 66.8084 269.063 63.3241C269.745 60.1427 272.699 58.0218 275.88 58.2491H276.486L277.017 58.3248L278.077 58.4006C278.759 58.4763 279.516 58.5521 280.198 58.6278C281.637 58.7793 283.001 58.9308 284.44 59.158C287.242 59.6125 290.045 60.067 292.923 60.673C294.363 60.9759 295.726 61.3547 297.165 61.7334C298.604 62.1121 300.044 62.5666 301.483 63.0211C302.922 63.5513 304.437 64.0816 306.028 64.839C306.785 65.2178 307.618 65.5965 308.451 66.1267C309.285 66.657 310.194 67.1872 311.178 68.0961C311.709 68.5506 312.239 69.0809 312.769 69.7626C313.072 70.0656 313.299 70.52 313.602 70.9745C313.905 71.429 314.132 71.9592 314.36 72.4895C314.587 73.0954 314.814 73.7014 314.89 74.4589C315.041 75.1406 315.041 75.8981 314.966 76.6555C314.89 77.413 314.814 78.0947 314.587 78.7007C314.36 79.3067 314.132 79.9126 313.905 80.3671L313.83 80.5186L313.754 80.5944L313.678 80.6701L313.527 80.8973C313.451 81.0488 313.299 81.2761 313.224 81.4276L312.921 81.8821C312.845 82.0336 312.693 82.185 312.618 82.3365C312.163 82.8668 311.709 83.3212 311.254 83.7757C310.345 84.6089 309.512 85.2149 308.679 85.7451C307.012 86.8056 305.497 87.5631 303.982 88.169C302.467 88.775 301.028 89.3052 299.513 89.7597C296.559 90.5929 293.681 91.1989 290.878 91.6534C289.439 91.8806 288 92.0321 286.561 92.1836C285.879 92.2594 285.121 92.3351 284.364 92.3351C283.985 92.3351 283.607 92.4109 283.304 92.4109H282.773H282.167C279.516 92.4866 277.32 90.4414 277.244 87.7903C277.168 85.7451 278.38 83.9272 280.198 83.2455L280.652 82.9425Z" fill="url(#paint13_linear_913_14479)"/>
<path d="M264.447 79.6393L174.884 82.1365L175.908 118.896C179.35 118.44 182.551 116.86 185.238 114.611C188.127 112.169 191.919 110.733 196.073 110.95C203.326 111.363 209.481 116.955 210.521 124.153C211.783 133.396 204.751 141.481 195.703 141.689C191.938 141.809 188.465 140.552 185.737 138.389C183.008 136.292 179.732 135.105 176.306 134.771L177.331 171.464L214.121 170.446C213.852 173.864 212.662 177.131 210.494 179.852C208.325 182.572 207.066 186.036 207.186 189.791C207.461 198.882 215.501 205.896 224.77 204.572C231.985 203.602 237.591 197.463 238.006 190.164C238.223 186.02 236.784 182.172 234.334 179.356C232.013 176.675 230.495 173.483 230.037 170.05L266.893 169.033L264.447 79.6393Z" fill="#F2385A"/>
<path d="M278.759 84.1582C278.759 84.1582 273.306 85.3702 269.821 86.5064C267.473 87.2638 265.352 87.4911 265.049 88.6273C264.67 89.7635 269.821 89.3847 270.276 89.309C270.73 89.309 278.759 84.1582 278.759 84.1582Z" fill="url(#paint14_linear_913_14479)"/>
<path d="M283.381 84.8404C285.123 86.8856 284.744 90.0669 282.699 91.8848C281.638 92.8695 280.578 94.0058 279.972 95.142C278.608 97.8688 278.457 101.656 276.791 103.323C275.124 104.989 274.594 104.459 274.745 102.414C274.897 100.368 275.654 96.6569 275.654 96.6569C275.654 96.6569 273.306 101.202 273.155 103.247C273.003 105.292 271.488 106.352 270.579 104.307C269.67 102.338 271.185 96.7326 272.094 95.2934C272.094 95.2934 269.898 97.7173 269.595 100.444C269.292 103.171 269.216 104.762 268.61 105.671C267.928 106.58 266.338 105.292 266.868 101.429C267.398 97.6416 268.004 95.4449 269.14 93.93C269.14 93.93 267.852 94.7632 266.11 96.5054C264.368 98.2476 264.217 101.505 262.853 101.959C261.414 102.489 261.641 98.7778 262.702 96.8084C263.762 94.839 264.368 93.324 266.565 91.5061C268.761 89.6882 270.958 88.0218 272.473 87.2643C274.064 86.5068 279.29 83.0225 281.79 83.5527C282.244 83.8557 282.85 84.2344 283.381 84.8404Z" fill="url(#paint15_linear_913_14479)"/>
<path d="M279.291 83.7778C279.291 83.7778 284.442 85.1412 285.427 92.2614C285.427 92.2614 286.941 92.9431 287.775 91.9584C287.775 91.9584 286.714 84.3837 281.563 82.6416C281.563 82.6416 279.745 82.5658 279.291 83.7778Z" fill="#242645"/>
<path d="M212.659 83.4871C212.659 83.4871 207.562 84.2325 208.471 82.2631C209.38 80.2937 214.303 79.309 216.046 79.006C217.788 78.7788 219.655 80.2543 217.913 80.8602C216.171 81.4662 215.724 83.0499 215.724 83.0499L212.659 83.4871Z" fill="url(#paint16_linear_913_14479)"/>
<path d="M212.56 79.2349C212.56 79.2349 209.909 77.5685 210.818 75.599C211.727 73.6296 216.65 72.6449 218.392 72.3419C220.135 72.1147 217.332 75.2203 215.59 75.8263C213.848 76.4323 213.545 77.3412 213.545 77.3412L212.56 79.2349Z" fill="url(#paint17_linear_913_14479)"/>
<path d="M213.242 75.8251C213.242 75.8251 210.894 74.3102 211.727 72.6437C212.56 70.9016 216.878 69.9926 218.468 69.7654C220.059 69.5381 217.559 72.265 215.969 72.7952C214.378 73.3255 214.151 74.1587 214.151 74.1587L213.242 75.8251Z" fill="url(#paint18_linear_913_14479)"/>
<path d="M211.5 82.6431C211.5 82.6431 208.849 80.9767 209.758 79.0073C210.667 77.0378 215.591 76.0531 217.333 75.7501C219.075 75.5229 216.272 78.6285 214.53 79.2345C212.788 79.8405 212.485 80.7494 212.485 80.7494L211.5 82.6431Z" fill="url(#paint19_linear_913_14479)"/>
</g>
<path d="M242.868 114.615L174.889 82.1406L175.912 118.9C179.354 118.444 182.556 116.864 185.242 114.615C188.131 112.173 191.924 110.737 196.078 110.954C203.33 111.367 209.486 116.959 210.526 124.157C211.787 133.4 204.755 141.485 195.707 141.693C191.942 141.813 188.47 140.556 185.742 138.393C183.013 136.296 179.737 135.109 176.311 134.775L177.336 171.468L214.125 170.45C213.857 173.868 212.667 177.135 210.499 179.856C208.33 182.576 207.07 186.04 207.191 189.795C207.465 198.887 215.506 205.9 224.775 204.577C231.99 203.606 237.596 197.467 238.01 190.168C238.228 186.024 236.789 182.176 234.339 179.36C232.018 176.679 230.499 173.487 230.042 170.054L266.897 169.037L242.868 114.615Z" fill="#F2385A"/>
<path fill-rule="evenodd" clip-rule="evenodd" d="M13.6487 176.003C12.7343 170.417 12.2588 164.684 12.2588 158.84C12.2588 100.615 59.4597 53.4141 117.685 53.4141C123.529 53.4141 129.262 53.8896 134.848 54.804V176.003H13.6487Z" fill="#DA6668"/>
<mask id="mask2_913_14479" style="mask-type:alpha" maskUnits="userSpaceOnUse" x="0" y="0" width="162" height="176">
<path d="M0 82.1043L41.46 37.9951L50.3489 27.5825L53.8515 3.50253L161.117 0V175.127H6.29772L0 145.429V82.1043Z" fill="#035970"/>
</mask>
<g mask="url(#mask2_913_14479)">
<path d="M92.5247 211.823C92.6818 213.08 92.8389 214.258 92.9174 215.279C92.9174 215.514 92.996 215.829 92.996 216.064C94.0957 228.71 93.0745 272.304 92.7604 285.893C92.7604 286.364 92.7604 286.757 92.7604 287.15C92.6818 288.956 92.9174 291.705 92.9174 291.705L79.8786 292.805C79.8786 292.805 79.4859 290.134 79.0931 288.328C79.0146 287.935 78.936 287.464 78.779 286.914C77.3651 279.688 74.2232 264.057 71.5526 250.468C67.9394 231.931 68.7249 220.934 68.7249 220.934C68.7249 220.934 69.4318 216.536 66.6827 205.775C64.4048 196.899 54.5079 169.564 51.7587 160.139C51.2089 158.254 53.094 156.211 53.094 156.211C53.094 156.211 71.1599 143.722 77.2866 149.299C77.7578 149.77 79.4073 153.855 79.643 154.483C80.3499 156.054 81.2925 158.568 82.235 161.71C86.3195 174.827 90.8752 199.177 92.5247 211.823Z" fill="#F4FCFF"/>
<path d="M55.5295 165.099C54.8226 165.256 54.1942 165.413 53.4873 165.492C44.7686 167.22 35.6571 167.927 29.2948 166.591C26.1529 165.963 24.1106 162.507 22.8539 158.737C22.5397 157.715 22.3041 156.616 21.9899 155.595C18.9265 145.226 20.4975 136.665 20.4975 136.665L71.1604 135.801C71.1604 135.801 72.7314 138.314 74.4594 141.692C75.7162 144.127 77.0515 146.876 77.994 149.468C78.5439 150.96 78.9366 152.374 79.0151 153.552C79.4079 157.401 68.1756 162.271 55.5295 165.099Z" fill="#F4FCFF"/>
<path d="M52.0712 216.611C52.0712 217.867 51.9926 219.045 51.9141 220.067C51.9141 220.302 51.9141 220.616 51.8355 220.852C50.893 233.498 43.1953 276.385 40.7604 289.817C40.6818 290.288 40.6033 290.681 40.5247 291.073C40.2106 292.88 39.9749 293.901 39.9749 293.901L26.9361 292.958C26.9361 292.958 26.8575 291.937 26.8575 290.131C26.8575 289.738 26.8575 289.267 26.779 288.717C26.4648 281.333 25.8364 265.467 25.3651 251.564C24.6582 232.713 27.1717 221.952 27.1717 221.952C27.1717 221.952 28.5856 217.71 27.4859 206.635C26.6219 197.524 23.48 168.383 22.1447 158.643C21.909 156.679 21.752 155.108 21.752 155.108C21.752 155.108 42.1742 149.767 47.2798 156.208C47.6725 156.679 47.9867 157.307 48.2224 157.936C48.6936 159.585 49.1649 162.177 49.6362 165.476C51.6784 179.065 52.3854 203.807 52.0712 216.611Z" fill="#F4FCFF"/>
<path d="M61.3446 49.3848C61.3446 49.3848 45.0853 50.563 38.6444 54.1761C29.9257 59.0461 29.2973 89.5224 26.234 102.64C23.1706 115.757 16.7298 139.164 20.9713 149.847C23.2492 155.581 67.864 156.523 77.761 152.989C82.9451 151.182 79.5675 115.679 84.0447 100.912C88.6005 86.1449 93.5489 76.3265 92.842 69.7285C92.2922 64.3873 77.1326 56.2184 77.1326 56.2184L61.3446 49.3848Z" fill="#035970"/>
<path d="M85.6143 35.7188C85.6143 35.7188 87.0281 36.0329 87.1066 37.8395C87.1852 39.7247 85.8499 42.6309 84.0433 42.0025C82.2367 41.4527 85.6143 35.7188 85.6143 35.7188Z" fill="url(#paint20_linear_913_14479)"/>
<path d="M62.6003 26.5358C62.6003 26.5358 59.6941 20.3306 61.6578 17.4243C63.6215 14.5181 64.7211 16.1676 64.7211 16.1676C64.7211 16.1676 63.6214 12.5544 66.2135 11.6118C68.8056 10.6693 69.9838 12.9472 69.9838 12.9472C69.9838 12.9472 73.2042 8.39141 76.5817 9.96236C79.9593 11.4548 78.1527 14.1254 78.1527 14.1254C78.1527 14.1254 84.1223 10.6693 86.7929 13.2613C89.4635 15.8534 87.1071 17.7385 87.1071 17.7385C87.1071 17.7385 92.9981 15.3821 94.6476 20.4091C96.2185 25.3576 91.3486 25.5933 91.3486 25.5933C91.3486 25.5933 97.6324 26.9286 95.1189 29.6777C92.6054 32.4269 86.0074 28.421 86.0074 28.421C86.0074 28.421 66.135 23.551 62.6003 26.5358Z" fill="#102D42"/>
<path d="M59.6143 50.0197C59.8499 52.6903 63.3845 56.382 65.5053 57.4031C68.8043 58.9741 72.3389 59.0526 75.3237 57.9529L76.4234 52.8474L76.659 51.8263L77.0517 49.8626L66.2908 39.0231L65.6624 38.3947L65.2697 38.002L65.034 38.3947L64.7198 38.866V39.1016C62.7561 43.893 62.2063 46.8778 59.6143 50.0197Z" fill="url(#paint21_linear_913_14479)"/>
<path opacity="0.2" d="M75.4793 56.9321C70.7664 54.6542 68.8813 49.7058 68.2529 47.0352C70.2952 49.5487 72.9658 51.4338 75.7149 51.748C76.0291 51.748 76.2647 51.8265 76.5789 51.8265L75.4793 56.9321Z" fill="#102D42"/>
<path d="M70.7643 66.2879C70.9214 66.3665 71.157 66.3665 71.3141 66.3665C73.0422 66.5236 74.456 66.0523 75.4771 64.9526C78.5405 61.7322 77.4408 54.2702 77.3623 53.956C77.3623 53.7204 77.1266 53.5633 76.8124 53.5633C76.5768 53.5633 76.4197 53.7989 76.4197 54.1131C76.4197 54.1917 77.5194 61.418 74.7702 64.3243C73.9062 65.1883 72.8065 65.581 71.3927 65.4239C65.4231 64.8741 58.9037 49.4788 58.8251 49.3217C58.7466 49.0861 58.4324 49.0075 58.1967 49.0861C57.9611 49.1646 57.8825 49.4788 57.9611 49.7145C58.1967 50.3429 64.402 64.8741 70.7643 66.2879Z" fill="#FFFFFB"/>
<path d="M76.5831 51.8269C76.2689 51.8269 76.0332 51.8269 75.719 51.7484C70.3778 51.12 65.1937 44.3649 64.7224 39.1023C64.7224 39.0237 64.7224 38.9452 64.7224 38.8666C64.7224 38.7095 64.7224 38.5524 64.7224 38.3168H64.6439C61.2664 37.2171 58.5957 32.6614 60.2452 29.9122C61.1093 28.4198 62.2089 28.1842 63.1515 28.2627C63.0729 26.6918 63.0729 25.1994 63.3086 23.9426C64.0941 18.9156 69.3567 12.7104 78.5467 16.6378C87.8153 20.5651 89.3077 28.2627 87.5011 32.8185C86.48 35.4105 85.616 38.0811 85.0662 39.8877C84.9091 40.5161 84.752 40.9874 84.5949 41.3801C84.4378 41.8514 84.3592 42.1656 84.3592 42.1656C84.2021 46.3286 81.7672 51.8269 76.5831 51.8269Z" fill="url(#paint22_linear_913_14479)"/>
<path d="M63.073 28.2587C63.073 28.2587 65.2724 28.4158 66.372 29.9082C67.4717 31.4006 66.8433 34.6996 68.5714 35.1709C70.2994 35.6421 68.807 29.1227 69.9852 28.1016C71.0849 27.0805 74.5409 28.6514 74.9337 24.0172C75.1693 21.4251 84.2023 24.4884 85.6946 26.6878C87.187 28.8871 89.5435 30.9293 89.7006 28.0231C89.8576 25.1168 84.4379 16.3981 78.6254 15.2199C72.7344 14.1202 66.4506 14.2773 63.9371 19.8542C61.345 25.431 63.073 28.2587 63.073 28.2587Z" fill="#102D42"/>
<path d="M76.6629 74.0036L76.8986 74.7891L77.1342 75.496L77.527 76.9098C77.8411 77.8524 78.0768 78.7164 78.391 79.659C79.0194 81.4656 79.6477 83.2722 80.3547 85.0002C81.0616 86.8068 81.7685 88.5348 82.554 90.2629C83.3395 91.9909 84.1249 93.7975 84.9889 95.5255C86.7955 98.9816 88.6807 102.438 91.1156 105.815C92.2938 107.465 93.6291 109.193 95.043 110.764C95.4357 111.156 95.7499 111.549 96.1426 111.942C96.2997 112.178 96.5354 112.335 96.6925 112.57L97.0067 112.884L97.3209 113.199C98.1063 113.984 99.0489 114.77 99.9129 115.477C101.798 116.969 103.919 118.383 106.511 119.482C107.768 120.032 109.103 120.504 110.595 120.818L110.831 120.896H110.91H111.067C111.224 120.896 111.381 120.975 111.538 120.975C111.852 121.053 112.166 121.053 112.48 121.053C112.795 121.053 113.187 121.053 113.502 121.053C113.816 121.053 114.209 120.975 114.523 120.975C114.837 120.896 115.23 120.818 115.544 120.739C115.701 120.661 115.858 120.661 116.015 120.582C116.172 120.504 116.329 120.504 116.486 120.425C116.801 120.346 117.115 120.189 117.35 120.032C117.429 120.032 117.507 119.954 117.586 119.954L117.743 119.875C117.9 119.797 117.979 119.718 118.136 119.64C118.372 119.482 118.607 119.325 118.843 119.168C119.078 119.011 119.236 118.854 119.393 118.697L119.707 118.461L119.864 118.304L119.942 118.226L120.021 118.147C120.178 117.99 120.335 117.833 120.492 117.676L120.728 117.44L120.806 117.362C120.806 117.283 120.885 117.283 120.885 117.283C121.121 117.047 121.356 116.733 121.513 116.498C122.22 115.477 122.692 114.613 123.006 113.827L123.241 113.277C123.32 113.12 123.399 112.963 123.477 112.727C123.634 112.335 123.713 112.02 123.791 111.706C124.184 110.45 124.42 109.271 124.655 108.172C125.048 105.972 125.284 104.009 125.441 102.045C125.755 98.1176 125.755 94.3473 125.676 90.6556C125.676 88.7705 125.519 86.9639 125.441 85.0788C125.362 84.1362 125.284 83.1936 125.205 82.3296C125.205 81.8583 125.127 81.387 125.048 80.9158L124.969 80.2088L124.891 79.5019C124.498 75.7316 121.121 72.9825 117.35 73.3752C114.051 73.768 111.459 76.4386 111.224 79.659V79.8161L110.831 85.0002C110.674 86.7283 110.517 88.4563 110.36 90.1843C110.046 93.6404 109.653 97.0179 109.181 100.238C108.946 101.809 108.632 103.38 108.317 104.716C108.16 105.344 107.925 105.972 107.768 106.365C107.689 106.444 107.689 106.601 107.689 106.601C107.689 106.601 107.689 106.679 107.611 106.679C107.611 106.679 107.611 106.679 107.611 106.758C107.611 106.758 107.611 106.758 107.768 106.444C107.846 106.365 107.925 106.208 108.003 106.129C108.003 106.129 108.003 106.129 108.003 106.051L108.082 105.972L108.16 105.894C108.239 105.815 108.317 105.737 108.396 105.658L108.475 105.58C108.553 105.501 108.553 105.501 108.632 105.422C108.71 105.344 108.867 105.265 108.946 105.187C109.103 105.108 109.26 104.951 109.417 104.873C109.496 104.794 109.574 104.794 109.653 104.716L109.888 104.558C110.046 104.48 110.281 104.401 110.517 104.323C110.595 104.323 110.752 104.244 110.831 104.244C110.91 104.244 111.067 104.166 111.145 104.166C111.381 104.087 111.616 104.087 111.852 104.009C112.088 104.009 112.323 103.93 112.559 103.93C112.795 103.93 113.03 103.93 113.266 103.93C113.502 103.93 113.659 103.93 113.894 104.009C113.973 104.009 114.13 104.009 114.209 104.087H114.287H114.209C113.894 104.009 113.58 103.852 113.187 103.694C112.48 103.38 111.616 102.752 110.674 101.966C110.203 101.574 109.731 101.181 109.339 100.71L109.181 100.553L109.024 100.395L108.71 100.003C108.475 99.7671 108.239 99.5314 108.003 99.2173C107.061 98.1961 106.197 96.9394 105.333 95.6826C104.94 95.0543 104.469 94.4259 104.076 93.719C103.683 93.0906 103.212 92.3836 102.819 91.6767C102.034 90.2629 101.248 88.849 100.463 87.4352C99.7558 85.9428 98.9704 84.5289 98.2634 82.958C97.9492 82.1725 97.5565 81.4656 97.2423 80.6801C96.9281 79.8946 96.5354 79.1092 96.2212 78.4022C95.5928 76.8313 94.9644 75.2604 94.3361 73.6894C94.0219 72.9039 93.7077 72.1185 93.472 71.333L93.0793 70.1548L92.6866 69.0551L92.608 68.7409C91.0371 64.3423 86.1672 62.0644 81.7685 63.6354C77.7626 65.2849 75.4847 69.7621 76.6629 74.0036Z" fill="#035970"/>
<path d="M87.2671 98.4899C87.1885 98.4899 87.1885 98.4899 87.11 98.4899C86.7958 98.4899 86.6387 98.1758 86.6387 97.9401C86.6387 97.783 89.2307 78.9317 90.4089 73.5905C90.4875 73.2763 90.7231 73.1192 91.0373 73.1978C91.3515 73.2763 91.5086 73.5119 91.43 73.8261C90.2518 79.0888 87.6598 97.8616 87.6598 98.0972C87.7383 98.2543 87.5027 98.4899 87.2671 98.4899Z" fill="#595E8D"/>
<path d="M118.212 86.4732C118.84 86.3947 119.469 86.3161 120.176 86.159C122.925 85.5306 124.967 84.1953 125.124 84.1953C125.36 84.0382 125.438 83.8026 125.281 83.5669C125.124 83.3313 124.888 83.2528 124.653 83.4099C124.574 83.4884 116.641 88.2798 111.771 83.4884C111.614 83.3313 111.3 83.3313 111.064 83.4884C110.907 83.6455 110.907 83.9597 111.064 84.1953C112.871 85.9234 115.384 86.7088 118.212 86.4732Z" fill="#595E8D"/>
<path d="M106.67 108.304C106.906 108.304 107.142 108.068 107.063 107.833C106.827 104.612 109.184 101.078 109.184 100.999C109.341 100.764 109.262 100.449 109.027 100.371C108.791 100.214 108.477 100.292 108.398 100.528C108.32 100.685 105.885 104.377 106.121 107.911C106.199 108.147 106.435 108.304 106.67 108.304Z" fill="#595E8D"/>
<path d="M103.376 104.536C103.533 104.536 103.611 104.457 103.69 104.379C103.69 104.379 105.261 102.494 108.403 102.022C108.638 102.022 108.874 101.708 108.795 101.473C108.795 101.237 108.481 101.001 108.246 101.08C104.711 101.63 102.983 103.672 102.904 103.75C102.747 103.986 102.747 104.222 102.983 104.457C103.14 104.457 103.297 104.536 103.376 104.536Z" fill="#595E8D"/>
<path d="M37.963 78.3253L48.7538 161.92L83.1055 157.503C82.3249 154.3 80.5955 151.442 78.2024 149.134C75.5953 146.673 73.8973 143.244 73.75 139.307C73.4336 132.444 78.1233 126.2 84.7744 124.598C93.3536 122.489 101.554 128.365 102.633 136.8C103.087 140.308 102.256 143.652 100.508 146.392C98.7606 149.133 97.9607 152.283 97.9968 155.546L132.349 151.129L127.932 116.778C131.134 116.752 134.345 117.541 137.085 119.289C139.826 121.037 143.17 121.868 146.678 121.414C155.174 120.325 160.978 112.073 158.88 103.555C157.278 96.904 150.973 92.2244 144.17 92.5307C140.244 92.7392 136.815 94.4373 134.344 96.9831C132.036 99.3762 129.188 101.167 125.975 101.886L121.558 67.5345L37.963 78.3253Z" fill="#67A4BA"/>
<path d="M115.776 64.531C115.776 64.531 118.683 63.2742 119.939 65.3165C121.196 67.2801 119.154 72.4643 118.368 74.1923C117.583 75.9203 116.326 71.5217 116.876 69.558C117.426 67.5943 116.797 66.4947 116.797 66.4947L115.776 64.531Z" fill="#E3A38E"/>
<path d="M120.101 70.9122C120.101 70.9122 123.242 69.4984 124.499 71.5406C125.756 73.5043 123.714 78.6884 122.928 80.4164C122.143 82.1445 120.886 77.7458 121.436 75.7822C121.986 73.8185 121.279 72.9544 121.279 72.9544L120.101 70.9122Z" fill="#E3A38E"/>
<path d="M122.768 73.65C122.768 73.65 125.517 72.3933 126.616 74.1999C127.716 75.9279 125.909 80.4836 125.203 82.0546C124.496 83.6255 123.396 79.6982 123.867 77.9701C124.339 76.2421 123.71 75.4566 123.71 75.4566L122.768 73.65Z" fill="#E3A38E"/>
<path d="M117.584 67.9864C117.584 67.9864 120.726 66.5726 121.983 68.6148C123.239 70.5785 121.197 75.7626 120.412 77.4907C119.626 79.2187 118.369 74.8201 118.919 72.8564C119.469 70.8927 118.762 70.0287 118.762 70.0287L117.584 67.9864Z" fill="#E3A38E"/>
<path d="M45.6362 85.2833C45.4791 85.2833 45.322 85.3618 45.0864 85.3618L44.5365 85.5189L43.4369 85.7546C42.6514 85.9117 41.9445 86.0688 41.159 86.2258C39.6666 86.54 38.1742 86.8542 36.6818 87.1684C33.697 87.7182 30.7122 88.2681 27.8845 88.5823C27.1776 88.6608 26.4707 88.7394 25.7638 88.8179C25.0568 88.8965 24.4284 88.8965 23.7215 88.975C23.0931 88.975 22.4648 88.975 21.8364 88.975C21.208 88.975 20.6582 88.8965 20.1869 88.8179C19.7156 88.7394 19.3229 88.6608 19.0872 88.5823C19.0087 88.5037 18.9301 88.5037 18.9301 88.5037H19.0087H19.0872L19.1658 88.5823C19.3229 88.6608 19.6371 88.8179 19.8727 89.0535C20.1084 89.2892 20.4225 89.5248 20.6582 89.9176C20.8938 90.2318 21.1295 90.6245 21.2866 91.0172C21.4437 91.41 21.5222 91.7242 21.6007 92.0383C21.6793 92.3525 21.6793 92.5882 21.6793 92.7453C21.6793 92.9024 21.6793 93.0595 21.6793 93.138C21.6793 93.2951 21.6793 93.3736 21.6793 93.3736C21.7578 93.2951 21.9149 92.9809 22.1506 92.5882C22.3862 92.1954 22.7004 91.7242 23.0931 91.2529C23.8001 90.3103 24.6641 89.2892 25.6067 88.2681C26.5492 87.247 27.4918 86.1473 28.5915 85.1262C29.6126 84.1051 30.7122 83.0054 31.7333 81.9843C33.9327 79.9421 36.132 77.8213 38.4099 75.7791L41.7874 72.7157L45.1649 69.7309L45.2435 69.6524C48.621 66.6676 48.8566 61.4835 45.8718 58.1059C43.0441 54.9641 38.2528 54.4928 34.8752 57.0063L34.3254 57.2419L33.8541 57.6347L32.9115 58.4201C32.2832 58.8914 31.6548 59.4412 31.0264 59.9911C30.398 60.5409 29.7697 61.0122 29.1413 61.562C28.5129 62.1118 27.8845 62.6617 27.2561 63.133C24.8212 65.3323 22.3862 67.5316 20.0298 69.888C17.6734 72.2444 15.3955 74.7579 13.1177 77.5071C12.018 78.921 10.9183 80.3348 9.81867 82.0628C9.26884 82.9269 8.71901 83.7909 8.24773 84.812C7.6979 85.8331 7.22661 86.9328 6.75533 88.3466C6.51969 89.0535 6.36259 89.9176 6.2055 90.8601C6.12695 91.3314 6.12695 91.8812 6.12695 92.4311C6.12695 92.9809 6.2055 93.6878 6.28405 94.3162C6.44114 95.0231 6.59824 95.7301 6.91243 96.437C7.22661 97.1439 7.61935 97.9294 8.09063 98.5578C8.56192 99.1861 9.11175 99.8145 9.66158 100.286C10.2114 100.757 10.7612 101.15 11.3111 101.464L11.5467 101.543L11.6253 101.621H11.7038L12.018 101.778C12.2536 101.857 12.4107 102.014 12.6464 102.092L13.1962 102.328C13.4318 102.407 13.5889 102.485 13.746 102.564C14.5315 102.799 15.1599 102.956 15.8668 103.113C17.2021 103.349 18.3803 103.428 19.48 103.506C21.6793 103.585 23.643 103.349 25.4496 103.035C27.2561 102.721 28.9842 102.328 30.7122 101.857C34.0898 100.914 37.2316 99.8145 40.295 98.4792C41.8659 97.8508 43.3583 97.1439 44.8507 96.437C45.5576 96.0442 46.3431 95.7301 47.05 95.3373C47.4428 95.1802 47.757 94.9446 48.1497 94.7875L48.6995 94.4733L49.2494 94.1591C51.6058 92.8238 52.4698 89.9176 51.1345 87.5611C50.1134 85.676 48.0712 84.812 46.0289 85.1262L45.6362 85.2833Z" fill="#035970"/>
<path d="M44.2976 87.2092C44.5332 86.2666 46.1042 85.5597 47.0467 84.6956C48.225 83.5174 50.4243 82.1036 51.9167 81.6323C54.116 80.9254 60.6354 79.1188 62.2849 80.0614C63.9344 81.0039 58.4361 82.9676 57.3364 83.3603C56.2368 83.7531 55.6084 84.46 55.6084 84.46C55.6084 84.46 68.5687 80.9254 69.8254 81.8679C71.0822 82.732 63.8559 85.4811 62.1278 86.188C62.1278 86.188 72.0248 84.0673 72.6531 84.9313C73.8313 86.5808 62.9133 89.1728 62.9133 89.1728C62.9133 89.1728 71.3178 87.8375 71.5535 89.2514C71.7106 90.7438 62.6776 92.1576 62.6776 92.1576C62.6776 92.1576 68.333 92.0791 69.04 93.1787C69.7469 94.2784 57.9648 95.3781 56.0797 95.2995C54.2731 95.221 49.7959 96.6348 47.4395 96.1635C45.7114 95.7708 43.4336 90.1939 44.2976 87.2092Z" fill="url(#paint23_linear_913_14479)"/>
</g>
<path d="M0 230.291H122.589V291.585C122.589 325.437 95.1463 352.88 61.2944 352.88C27.4424 352.88 0 325.437 0 291.585V230.291Z" fill="#67A4BA"/>
<mask id="mask3_913_14479" style="mask-type:alpha" maskUnits="userSpaceOnUse" x="0" y="176" width="184" height="177">
<path d="M0 176H183.883V285.892C183.883 322.887 153.892 352.878 116.897 352.878H66.9859C29.9906 352.878 0 322.887 0 285.892V176Z" fill="#C4C4C4"/>
</mask>
<g mask="url(#mask3_913_14479)">
<path d="M61.4259 323.238C61.3949 324.829 73.0096 400.253 86.8528 432.582C87.0844 433.113 86.8915 433.722 86.4077 434.029C85.256 434.744 82.9674 435.886 80.0925 436.494C79.1975 436.673 78.2906 436.231 77.8882 435.41C74.245 427.994 56.4976 390.709 48.6205 353.533C39.8138 311.99 48.3784 352.11 48.3784 352.11L44.8768 326.097L61.4259 323.238Z" fill="#9EB6C7"/>
<path d="M30.0041 331.031C30.26 371.836 48.3081 428.852 52.967 439.811C53.258 440.483 53.9112 440.921 54.637 440.924C55.8837 440.916 57.8919 440.736 59.7501 439.825C60.3838 439.507 60.7667 438.83 60.6716 438.122C59.4504 428.815 49.0344 372.215 51.292 348.747C51.4136 347.561 51.9374 346.454 52.7759 345.593L63.2119 335.092L61.7764 321.27L30.0041 331.031Z" fill="#9EB6C7"/>
<path d="M58.9688 248.632C39.2034 251.705 18.416 260.936 18.416 260.936C18.4426 296.216 30.0884 334.915 30.0884 334.915C46.0236 336.283 62.1236 326.877 62.1236 326.877C62.1886 312.124 67.0829 269.774 67.0829 269.774C76.5002 266.931 83.958 262.774 89.8514 257.991C83.8797 253.073 80.2543 246.125 78.5008 241.958C71.9126 245.332 65.0557 247.693 58.9688 248.632Z" fill="#DA6668"/>
<path d="M112.166 209.602C109.828 207.599 107.575 209.122 107.575 209.122C106.79 221.864 93.2851 234.408 78.4998 241.955C80.2696 246.12 83.8786 253.07 89.8504 257.988C113.273 238.952 112.166 209.602 112.166 209.602Z" fill="url(#paint24_linear_913_14479)"/>
<path d="M111.799 210.276C112.111 210.877 109.935 212.268 108.099 209.87C107.837 208.619 106.136 203.345 106.716 202.177C109.795 196.017 116.399 187.816 116.399 187.816C117.943 188.884 117.08 190.357 117.08 190.357L113.967 194.938C114.996 196.235 116.179 197.268 116.918 198.921C117.482 200.168 117.526 201.61 117.054 202.911C116.601 204.224 115.966 205.925 115.321 207.291C114.101 209.857 111.799 210.276 111.799 210.276Z" fill="url(#paint25_linear_913_14479)"/>
<path d="M112.761 197.77L109.823 201.274L109.238 204.365L112.899 207.241C112.899 207.241 112.931 201.299 113.489 199.915C114.033 198.551 113.531 198.018 112.761 197.77Z" fill="url(#paint26_linear_913_14479)"/>
<path d="M29.2558 278.714L18.4141 260.935C18.4141 260.935 2.15601 276.611 1.86117 292.975C5.37584 292.639 11.8694 292.453 18.6038 294.517C18.6696 286.813 29.2558 278.714 29.2558 278.714Z" fill="#DA6668"/>
<path d="M36.2566 236.079L33.1064 255.29C33.0456 255.605 33.2386 255.924 33.5428 256.02C35.4161 256.674 42.0435 258.336 48.6477 252.361C49.3422 251.729 49.7221 250.85 49.6893 249.928L49.015 233.892L36.2566 236.079Z" fill="url(#paint27_linear_913_14479)"/>
<path d="M47.0107 216.933C47.0107 216.933 56.1181 228.702 56.1381 234.096C56.158 239.49 47.5688 240.58 39.3694 237.602L31.7565 224.499L47.0107 216.933Z" fill="url(#paint28_linear_913_14479)"/>
<path d="M38.5297 230.672C38.8161 230.485 38.8621 230.089 38.632 229.844C37.9387 229.093 36.6116 227.546 36.0118 226.104C36.0118 226.104 34.6418 225.527 38.8494 223.715C43.057 221.904 49.3188 219.145 50.0486 215.184C50.7605 211.31 45.6625 202.758 41.2969 211.025C41.1351 211.341 40.7106 211.418 40.4479 211.179C39.3168 210.154 36.4786 208.089 33.3664 210.174C30.4679 212.135 30.5082 214.489 30.7518 215.642C30.8305 215.982 30.5678 216.299 30.2131 216.297C28.573 216.274 24.7125 216.656 23.5939 220.891C22.6741 224.364 23.9567 226.037 24.969 226.78C25.3 227.024 25.2556 227.521 24.9008 227.704C23.9124 228.204 22.7147 229.316 23.2746 231.744C24.0364 235.097 27.7766 234.146 28.8275 233.803C29.0041 233.754 29.1926 233.771 29.3336 233.897C30.435 234.759 35.3454 238.386 39.9391 238.141C40.3399 238.118 40.5818 237.686 40.3828 237.335L37.4552 231.998C37.3261 231.751 37.3869 231.437 37.6273 231.275L38.5297 230.672Z" fill="#102D42"/>
<path d="M39.4469 231.348C39.4469 231.348 33.9637 228.837 34.0991 231.714C34.2212 234.61 39.2099 235.051 41.4064 233.589L39.4469 231.348Z" fill="url(#paint29_linear_913_14479)"/>
<path d="M88.1445 338.887L168.674 292.629L149.655 259.515C146.754 261.642 144.54 264.645 143.22 268.032C141.812 271.694 138.989 274.861 135.105 276.729C128.308 279.961 119.954 277.836 115.48 271.762C109.784 263.935 112.236 253.098 120.355 248.407C123.749 246.485 127.532 245.903 131.029 246.548C134.526 247.194 138.096 246.646 141.376 245.246L122.388 212.192L89.3335 231.18C87.9337 227.9 87.3854 224.331 88.0311 220.833C88.6453 217.275 88.0629 213.493 86.1728 210.159C81.4502 201.98 70.6741 199.497 62.8177 205.284C56.7416 209.605 54.6162 217.959 57.7874 224.788C59.5953 228.704 62.8221 231.495 66.4849 232.903C69.871 234.223 72.8742 236.437 75.0018 239.338L41.887 258.357L88.1445 338.887Z" fill="#233F52"/>
<path fill-rule="evenodd" clip-rule="evenodd" d="M50.1499 301.626C50.2326 301.664 50.3129 301.687 50.3901 301.697C51.3434 301.784 52.7518 301.372 53.9871 301.01C54.8174 300.767 55.5695 300.547 56.0528 300.517C57.307 300.437 65.0344 298.88 64.4889 298.202C63.9433 297.523 60.2026 297.972 60.2026 297.972C60.2026 297.972 66.0869 296.401 65.8779 295.423C65.6225 294.503 60.149 295.978 60.149 295.978C60.149 295.978 67.1992 293.494 66.3028 292.484C65.8258 291.956 59.4189 294.056 59.4189 294.056C59.5231 294 59.6591 293.928 59.8189 293.844C61.3387 293.04 65.0226 291.092 64.2144 290.654C63.3157 290.118 54.9789 293.37 54.9789 293.37C54.9789 293.37 55.3455 292.857 56.0463 292.52C56.7472 292.183 60.2514 290.495 59.0925 289.987C57.9336 289.479 53.7419 291.133 52.3347 291.756C51.3793 292.173 50.0217 293.264 49.3241 294.128C49.1337 294.343 48.8946 294.552 48.6579 294.759C48.1938 295.164 47.7391 295.561 47.6796 295.986C47.6762 296.005 47.6729 296.024 47.6699 296.044C44.5936 298.08 27.6815 308.652 20.4039 300.129C18.7459 298.186 18.1953 296.141 18.3648 294.121C11.8022 291.563 5.32917 291.265 1.78276 291.341C1.3203 296.263 2.31026 301.348 5.65225 306.266C18.4318 325.082 44.1745 306.372 50.1499 301.626Z" fill="url(#paint30_linear_913_14479)"/>
</g>
<defs>
<linearGradient id="paint0_linear_913_14479" x1="246.25" y1="217.497" x2="192.035" y2="207.685" gradientUnits="userSpaceOnUse">
<stop stop-color="#F9B776"/>
<stop offset="1" stop-color="#F47960"/>
</linearGradient>
<linearGradient id="paint1_linear_913_14479" x1="308.571" y1="289.425" x2="103.461" y2="217.542" gradientUnits="userSpaceOnUse">
<stop stop-color="#F9B776"/>
<stop offset="1" stop-color="#F47960"/>
</linearGradient>
<linearGradient id="paint2_linear_913_14479" x1="313.652" y1="290.44" x2="244.968" y2="268.851" gradientUnits="userSpaceOnUse">
<stop stop-color="#F9B776"/>
<stop offset="1" stop-color="#F47960"/>
</linearGradient>
<linearGradient id="paint3_linear_913_14479" x1="316.976" y1="264.729" x2="225.707" y2="218.6" gradientUnits="userSpaceOnUse">
<stop stop-color="#F9B776"/>
<stop offset="1" stop-color="#F47960"/>
</linearGradient>
<linearGradient id="paint4_linear_913_14479" x1="320.853" y1="262.83" x2="282.568" y2="256.53" gradientUnits="userSpaceOnUse">
<stop stop-color="#FF928E"/>
<stop offset="1" stop-color="#FEB3B1"/>
</linearGradient>
<linearGradient id="paint5_linear_913_14479" x1="351.428" y1="305.719" x2="97.6595" y2="116.828" gradientUnits="userSpaceOnUse">
<stop stop-color="#F9B776"/>
<stop offset="1" stop-color="#F47960"/>
</linearGradient>
<linearGradient id="paint6_linear_913_14479" x1="226.247" y1="250.962" x2="189.195" y2="246.019" gradientUnits="userSpaceOnUse">
<stop stop-color="#F9B776"/>
<stop offset="1" stop-color="#F47960"/>
</linearGradient>
<linearGradient id="paint7_linear_913_14479" x1="238.875" y1="83.6091" x2="227.38" y2="82.4066" gradientUnits="userSpaceOnUse">
<stop stop-color="#F9B776"/>
<stop offset="1" stop-color="#F47960"/>
</linearGradient>
<linearGradient id="paint8_linear_913_14479" x1="291.267" y1="78.7251" x2="226.63" y2="53.7594" gradientUnits="userSpaceOnUse">
<stop stop-color="#F9B776"/>
<stop offset="1" stop-color="#F47960"/>
</linearGradient>
<linearGradient id="paint9_linear_913_14479" x1="266.164" y1="66.1246" x2="212.22" y2="43.4208" gradientUnits="userSpaceOnUse">
<stop stop-color="#F9B776"/>
<stop offset="1" stop-color="#F47960"/>
</linearGradient>
<linearGradient id="paint10_linear_913_14479" x1="241.814" y1="54.9353" x2="220.952" y2="47.5448" gradientUnits="userSpaceOnUse">
<stop stop-color="#F9B776"/>
<stop offset="1" stop-color="#F47960"/>
</linearGradient>
<linearGradient id="paint11_linear_913_14479" x1="266.015" y1="54.5817" x2="186.379" y2="18.7507" gradientUnits="userSpaceOnUse">
<stop stop-color="#F9B776"/>
<stop offset="1" stop-color="#F47960"/>
</linearGradient>
<linearGradient id="paint12_linear_913_14479" x1="262.583" y1="47.8675" x2="238.567" y2="39.6239" gradientUnits="userSpaceOnUse">
<stop stop-color="#F9B776"/>
<stop offset="1" stop-color="#F47960"/>
</linearGradient>
<linearGradient id="paint13_linear_913_14479" x1="333.486" y1="85.2952" x2="211.905" y2="-6.10249" gradientUnits="userSpaceOnUse">
<stop stop-color="#F9B776"/>
<stop offset="1" stop-color="#F47960"/>
</linearGradient>
<linearGradient id="paint14_linear_913_14479" x1="284.257" y1="88.3324" x2="266.013" y2="61.8658" gradientUnits="userSpaceOnUse">
<stop stop-color="#F9B776"/>
<stop offset="1" stop-color="#F47960"/>
</linearGradient>
<linearGradient id="paint15_linear_913_14479" x1="293.556" y1="101.274" x2="222.549" y2="61.3758" gradientUnits="userSpaceOnUse">
<stop stop-color="#F9B776"/>
<stop offset="1" stop-color="#F47960"/>
</linearGradient>
<linearGradient id="paint16_linear_913_14479" x1="222.713" y1="82.6586" x2="205.88" y2="61.9653" gradientUnits="userSpaceOnUse">
<stop stop-color="#F9B776"/>
<stop offset="1" stop-color="#F47960"/>
</linearGradient>
<linearGradient id="paint17_linear_913_14479" x1="222.271" y1="77.7971" x2="198.616" y2="61.9309" gradientUnits="userSpaceOnUse">
<stop stop-color="#F9B776"/>
<stop offset="1" stop-color="#F47960"/>
</linearGradient>
<linearGradient id="paint18_linear_913_14479" x1="221.953" y1="74.5605" x2="201.023" y2="60.2978" gradientUnits="userSpaceOnUse">
<stop stop-color="#F9B776"/>
<stop offset="1" stop-color="#F47960"/>
</linearGradient>
<linearGradient id="paint19_linear_913_14479" x1="221.212" y1="81.2053" x2="197.556" y2="65.3391" gradientUnits="userSpaceOnUse">
<stop stop-color="#F9B776"/>
<stop offset="1" stop-color="#F47960"/>
</linearGradient>
<linearGradient id="paint20_linear_913_14479" x1="88.5507" y1="40.7631" x2="75.0442" y2="36.5141" gradientUnits="userSpaceOnUse">
<stop stop-color="#F9B776"/>
<stop offset="1" stop-color="#F47960"/>
</linearGradient>
<linearGradient id="paint21_linear_913_14479" x1="84.034" y1="54.3847" x2="25.0903" y2="26.715" gradientUnits="userSpaceOnUse">
<stop stop-color="#F9B776"/>
<stop offset="1" stop-color="#F47960"/>
</linearGradient>
<linearGradient id="paint22_linear_913_14479" x1="99.5523" y1="44.2407" x2="0.922497" y2="1.37259" gradientUnits="userSpaceOnUse">
<stop stop-color="#F9B776"/>
<stop offset="1" stop-color="#F47960"/>
</linearGradient>
<linearGradient id="paint23_linear_913_14479" x1="84.2074" y1="92.8313" x2="23.2707" y2="33.8018" gradientUnits="userSpaceOnUse">
<stop stop-color="#F9B776"/>
<stop offset="1" stop-color="#F47960"/>
</linearGradient>
<linearGradient id="paint24_linear_913_14479" x1="64.6739" y1="253.012" x2="181.82" y2="168.042" gradientUnits="userSpaceOnUse">
<stop stop-color="#F9B776"/>
<stop offset="1" stop-color="#F47960"/>
</linearGradient>
<linearGradient id="paint25_linear_913_14479" x1="102.098" y1="208.118" x2="147.121" y2="183.493" gradientUnits="userSpaceOnUse">
<stop stop-color="#F9B776"/>
<stop offset="1" stop-color="#F47960"/>
</linearGradient>
<linearGradient id="paint26_linear_913_14479" x1="107.385" y1="206.267" x2="126.091" y2="196.249" gradientUnits="userSpaceOnUse">
<stop stop-color="#F9B776"/>
<stop offset="1" stop-color="#F47960"/>
</linearGradient>
<linearGradient id="paint27_linear_913_14479" x1="25.0491" y1="254.913" x2="81.4578" y2="211.102" gradientUnits="userSpaceOnUse">
<stop stop-color="#F9B776"/>
<stop offset="1" stop-color="#F47960"/>
</linearGradient>
<linearGradient id="paint28_linear_913_14479" x1="25.2769" y1="238.901" x2="87.5552" y2="187.737" gradientUnits="userSpaceOnUse">
<stop stop-color="#F9B776"/>
<stop offset="1" stop-color="#F47960"/>
</linearGradient>
<linearGradient id="paint29_linear_913_14479" x1="31.8223" y1="234.712" x2="45.9212" y2="217.99" gradientUnits="userSpaceOnUse">
<stop stop-color="#F9B776"/>
<stop offset="1" stop-color="#F47960"/>
</linearGradient>
<linearGradient id="paint30_linear_913_14479" x1="93.3366" y1="301.669" x2="-6.93707" y2="186.48" gradientUnits="userSpaceOnUse">
<stop stop-color="#F9B776"/>
<stop offset="1" stop-color="#F47960"/>
</linearGradient>
</defs>
</svg>
