<svg width="443" height="280" viewBox="0 0 443 280" fill="none" xmlns="http://www.w3.org/2000/svg">
<mask id="mask0_226_2165" style="mask-type:alpha" maskUnits="userSpaceOnUse" x="0" y="0" width="443" height="280">
<rect width="442.105" height="280" fill="#C4C4C4"/>
</mask>
<g mask="url(#mask0_226_2165)">
<path d="M325.44 126.658C332.613 133.621 342.931 136.111 352.665 133.866C361.89 131.734 372.848 132.357 384.013 140.074C405.646 155.018 406.625 181.605 396.91 198.059C391.864 206.607 390.245 216.758 392.805 226.325C395.046 234.703 393.182 244.081 377.028 248.402C344.418 257.1 165.423 248.515 142.566 244.628C119.709 240.741 34.3815 219.305 88.5113 190.7C88.5113 190.7 -5.28854 89.2218 54.0754 34.4825C107.81 -15.0678 163.86 12.8019 189.503 30.7652C199.162 37.5393 210.722 41.03 222.508 40.7093C252.539 39.8979 308.062 46.2945 305.821 105.242C305.52 113.129 310.528 120.205 318.059 122.545C320.752 123.375 323.369 124.677 325.44 126.658Z" fill="#F4FCFF"/>
<path d="M394.118 180.015C399.82 178.657 410.471 193.735 421.748 188.556L425.445 176.589C425.445 176.589 409.949 178.782 404.038 175.128C398.128 171.473 401.678 168.716 405.876 169.155C410.074 169.614 420.746 175.566 425.194 172.83C425.194 172.83 428.703 170.637 425.027 166.732C421.351 162.827 424.066 153.805 426.948 150.881C426.948 150.881 424.547 151.111 418.866 149.043C413.206 146.976 407.63 144.49 405.375 149.461C403.119 154.41 402.764 161.803 399.423 161.887C396.061 161.95 393.889 148.375 403.662 143.697C403.662 143.697 394.891 139.729 392.072 140.773C389.252 141.817 386.516 147.08 388.793 154.995C391.069 162.91 389.733 167.212 387.206 167.275C384.699 167.338 381.546 143.384 389.795 140.063C389.795 140.063 371.877 139.687 369.872 140.773C367.867 141.859 368.514 152.364 371.334 158.483C374.153 164.623 372.169 171.076 370.039 172.559C367.909 174.062 368.89 165.479 367.303 161.657C365.716 157.835 366.259 140.794 366.259 140.794C366.259 140.794 365.047 142.882 358.991 143.655C352.914 144.428 343.369 149.252 344.455 152.907C345.541 156.582 354.104 172.893 354.814 178.636C355.545 184.379 354.898 189.141 352.621 186.656C350.345 184.17 349.301 176.757 346.982 171.661C344.664 166.565 337.104 154.243 339.214 151.006C339.214 151.006 323.989 157.167 323.655 172.58C323.655 172.58 328.187 179.472 335.204 182.771C342.242 186.071 345.04 187.783 344.769 190.457C344.497 193.151 339.652 190.812 335.329 188.64C331.006 186.468 320.835 181.623 320 178.051C320 178.051 320.856 201.296 336.582 203.426C351.326 205.431 353.039 203.802 353.185 203.593C352.663 204.407 337.167 229.427 369.454 236.277C369.454 236.277 362.52 232.664 362.75 227.422C362.98 222.201 358.218 214.223 361.936 213.889C365.653 213.576 364.755 232.559 372.148 235.629C379.52 238.678 390.777 233.959 393.22 225.5C393.22 225.5 385.911 226.106 380.94 219.778C375.97 213.429 370.978 203.53 377.098 205.305C383.217 207.081 393.053 225.835 398.42 226.294C403.788 226.753 412.726 210.088 412.726 210.088C412.726 210.088 409.907 210.046 401.094 206.496C392.28 202.945 382.987 197.077 385.326 195.824C387.665 194.571 393.45 198.831 398.775 202.444C404.101 206.057 412.308 207.54 414.376 204.825C416.444 202.089 420.62 192.253 420.62 192.253C420.62 192.253 408.424 189.935 402.806 189.433C397.188 188.932 388.438 181.372 394.118 180.015ZM365.026 202.298C359.054 197.39 365.569 197.035 370.039 197.745C373.422 198.288 370.999 207.206 365.026 202.298ZM376.471 193.109C372.44 189.955 372.816 187.324 375.657 187.428C382.172 187.679 380.481 196.262 376.471 193.109ZM387.394 181.999C385.096 180.432 384.637 179.242 387.519 177.968C390.422 176.715 389.691 183.565 387.394 181.999Z" fill="url(#paint0_linear_226_2165)"/>
<path d="M57.5813 103.852C54.1204 98.6787 65.2243 82.4555 55.8689 73.1181L42.5658 73.8571C42.5658 73.8571 50.4972 88.5122 49.0371 95.7585C47.577 103.005 43.5212 100.499 42.4036 96.1191C41.304 91.7568 43.2868 78.9224 38.9246 75.4975C38.9246 75.4975 35.4456 72.8116 32.904 77.931C30.3623 83.0503 20.376 83.6812 16.3743 81.8967C16.3743 81.8967 17.4919 84.204 17.5279 90.6392C17.564 97.0564 17.1494 103.528 22.9357 103.942C28.722 104.357 36.2207 101.959 37.5366 105.276C38.8345 108.575 26.1082 115.785 17.8163 107.764C17.8163 107.764 17.1133 117.984 19.1863 120.4C21.2593 122.833 27.5323 123.608 34.5804 118.417C41.6465 113.226 46.4233 112.955 47.4148 115.443C48.4062 117.93 25.6756 129.936 19.3125 122.942C19.3125 122.942 25.5855 140.967 27.4061 142.554C29.2267 144.14 39.4654 139.615 44.5306 134.532C49.5959 129.449 56.7702 129.052 59.0595 130.621C61.3487 132.189 52.4259 134.388 49.1993 137.38C45.9907 140.391 28.7941 146.159 28.7941 146.159C28.7941 146.159 31.3177 146.591 34.346 152.342C37.3744 158.11 45.7023 165.843 48.965 163.391C52.2277 160.958 65.3144 146.375 70.7762 143.527C76.2381 140.679 81.2312 139.561 79.5909 142.752C77.9505 145.96 70.9565 149.728 66.7385 153.928C62.5204 158.128 53.0208 170.241 49.0191 169.322C49.0191 169.322 60.808 182.228 76.3102 176.839C76.3102 176.839 81.5016 169.773 82.2046 161.535C82.8896 153.297 83.5566 149.872 86.3325 149.151C89.1265 148.43 88.5858 154.108 88.027 159.228C87.4682 164.347 86.4046 176.28 83.142 178.443C83.142 178.443 105.999 168.979 102.303 152.504C98.8245 137.056 96.5712 135.956 96.3008 135.884C97.3103 136.1 128.008 142.283 122.871 107.547C122.871 107.547 121.825 115.803 116.526 117.516C111.226 119.228 105.025 126.925 103.331 123.338C101.636 119.751 120.906 113.604 121.231 105.096C121.555 96.6058 112.668 87.1242 103.313 87.8272C103.313 87.8272 106.63 94.8933 102.159 102.194C97.6708 109.512 89.6493 118.147 89.1446 111.405C88.6399 104.645 103.709 87.8812 102.177 82.3653C100.663 76.8494 80.7265 74.1095 80.7265 74.1095C80.7265 74.1095 81.736 76.9396 81.4475 87.0521C81.1591 97.1646 78.7617 108.611 76.6346 106.736C74.5256 104.88 76.6166 97.5251 78.2389 90.8735C79.8613 84.222 78.311 75.4795 74.8321 74.434C71.3531 73.3885 59.9788 72.8657 59.9788 72.8657C59.9788 72.8657 62.1959 85.8804 63.7642 91.6667C65.3505 97.489 61.0423 109.044 57.5813 103.852ZM90.6047 124.618C87.9188 132.387 85.1609 126.024 84.2055 121.319C83.4845 117.75 93.2905 116.849 90.6047 124.618ZM77.1934 116.614C75.5351 121.788 72.7771 122.401 71.8398 119.535C69.6586 112.937 78.8518 111.441 77.1934 116.614ZM62.0517 109.837C61.3307 112.703 60.3213 113.604 57.9779 111.189C55.6526 108.773 62.7728 106.971 62.0517 109.837Z" fill="url(#paint1_linear_226_2165)"/>
<path d="M302.143 135.932C300.953 135.895 299.983 134.944 299.964 133.754C299.745 121.507 295.919 60.6935 242.383 47.989C182.769 33.8383 155.498 94.4685 155.498 94.4685C155.498 94.4685 81.7359 66.1671 67.6059 141.955C21.3538 153.048 9.34692 213.459 39.419 242.968C44.1961 247.655 50.6022 250.309 57.3012 250.364L346.912 252.982C355.405 253.055 362.946 247.49 365.362 239.344C374.422 208.809 386.282 137.891 302.143 135.932Z" fill="#67A4BA"/>
<path d="M295.33 140.779C294.158 140.742 293.203 139.805 293.185 138.633C292.951 127.061 289.219 71.5413 239.558 59.9146C184.038 46.8999 158.64 102.654 158.64 102.654C158.64 102.654 89.9616 76.6426 76.7847 146.33C34.1356 156.443 22.7433 211.025 49.746 238.442C54.4868 243.255 60.922 245.977 67.6637 246.049L336.158 248.447C344.54 248.519 351.985 243.021 354.347 234.964C362.747 206.375 372.679 142.635 295.33 140.779Z" fill="#B2ECFC"/>
<path d="M162.105 170.292H128.538V135.906M199.357 198.538V225.146H239.064H149.825" stroke="#F4FCFF" stroke-width="1.77407" stroke-linecap="round" stroke-dasharray="5.32 5.32"/>
<path d="M34.4323 165.856C34.4323 165.856 22.5026 172.467 21.5336 183.643C20.543 194.819 21.4475 241.203 45.35 252.615C69.2525 264.028 100.886 261.401 113.009 260.152C125.111 258.903 131.83 250.677 133.337 245.014C134.845 239.351 137.256 218.226 124.53 211.421C111.782 204.617 98.4093 194.173 85.0368 184.03C71.6428 173.866 48.7308 157.285 34.4323 165.856Z" fill="#BCCFDC"/>
<path d="M120.761 215.275C120.761 215.275 117.553 215.448 117.144 222.059C117.144 222.059 124.594 228.756 134.672 230.328C135.426 230.457 133.617 225.159 133.337 224.449C132.045 221.046 127.954 218.872 120.761 215.275Z" fill="#035970"/>
<path d="M84.52 207.48H91.3032C91.3032 207.48 112.148 184.46 125.8 182.135C125.8 182.135 135.318 194.28 125.284 216.976C124.487 218.807 122.226 219.604 120.546 218.548C120.051 218.225 119.685 217.795 119.469 217.256L120.266 197.876C120.266 197.876 102.501 213.423 99.3999 216.417C96.3421 219.431 80.6224 217.601 84.52 207.48Z" fill="#102D42"/>
<path d="M150.155 255.803C147.313 253.305 142.769 250.505 136.223 249.708L134.005 251.065C134.005 251.065 135.426 253.154 137.988 255.35C140.357 256.729 144.018 258.58 147.054 258.99C150.026 259.399 150.457 257.611 150.155 255.803Z" fill="#035970"/>
<path d="M133.359 224.471C131.614 225.031 130.839 227.529 126.382 225.87C122.075 224.277 118.888 222.231 117.23 221.047C117.187 221.37 117.165 221.693 117.144 222.059C117.144 222.059 125.004 229.531 135.081 231.125C135.835 231.254 136.438 230.479 136.158 229.768C135.684 228.498 134.801 226.56 133.359 224.471Z" fill="#4690A4"/>
<path d="M152.308 257.934C151.749 257.288 151.038 256.556 150.155 255.802C150.457 257.59 150.026 259.377 147.076 258.989C144.039 258.58 140.379 256.728 138.01 255.35C140.982 257.891 145.504 260.561 151.21 260.411C152.481 260.389 153.148 258.882 152.308 257.934Z" fill="#4690A4"/>
<path d="M84.7785 212.412L116.562 212.756C116.562 212.756 134.715 227.787 138.01 250.677C138.01 250.677 138.548 252.357 135.275 252.658C135.275 252.658 124.293 245.488 117.144 232.804C108.358 217.257 90.9802 224.255 90.9802 224.255C85.2737 220.142 77.1986 219.302 71.1045 217.924L84.7785 212.412Z" fill="#102D42"/>
<path d="M85.5106 186.787C85.5106 186.787 88.9344 203.949 105.709 210.732L111.674 210.022L113.074 212.261L99.0769 212.713C99.0769 212.713 87.1256 207.976 80.7731 195.077C80.5793 194.646 77.0908 187.433 85.5106 186.787Z" fill="url(#paint2_linear_226_2165)"/>
<path d="M87.3625 212.132C87.3625 212.132 83.4648 201.559 82.625 191.266C82.625 191.266 85.4675 188.811 87.2548 187.756C87.8362 187.412 88.0515 186.701 87.7501 186.098C86.4365 183.385 78.5336 172.747 77.9307 172.596C74.7006 171.8 61.5004 165.512 52.1977 178.238C48.214 183.708 52.9945 200.526 71.1044 217.925L74.8513 218.636L87.3625 212.132Z" fill="#FCF0EE"/>
<path d="M72.3534 193.591C72.3534 193.591 83.1634 206.404 96.9881 208.277C96.9881 208.277 100.563 205.026 103.211 206.189C105.86 207.351 109.521 212.476 109.521 212.476H91.7769C91.7769 212.476 75.0021 211.895 66.6039 201.71C67.2714 198.135 69.2956 196.003 72.3534 193.591Z" fill="url(#paint3_linear_226_2165)"/>
<path d="M66.044 163.617L63.6753 171.498C63.5676 171.864 63.6968 172.252 64.0198 172.467C65.1611 173.242 68.1328 174.793 72.2242 173.285C72.698 173.113 73.021 172.682 73.0425 172.187L73.6024 165.318L66.044 163.617Z" fill="url(#paint4_linear_226_2165)"/>
<path d="M79.9118 157.22C79.9118 157.22 78.749 165.403 75.605 167.923C72.4611 170.442 66.3455 168.547 64.2783 162.367L68.3912 151.815L79.9118 157.22Z" fill="url(#paint5_linear_226_2165)"/>
<path d="M67.9175 158.642C68.1544 158.728 68.4128 158.556 68.4343 158.319C68.542 157.565 68.8219 156.079 69.4034 155.046C69.4034 155.046 69.1019 153.969 72.1166 155.584C75.1313 157.199 79.6534 159.589 82.3236 158.168C84.9292 156.79 87.5564 149.835 80.6871 151.127C80.4287 151.17 80.1918 150.976 80.2133 150.696C80.2995 149.555 80.1918 146.928 77.5216 146.066C75.0237 145.269 73.667 146.411 73.1072 147.078C72.9349 147.272 72.6334 147.272 72.4827 147.078C71.729 146.109 69.7048 144.021 66.7116 145.334C64.2568 146.411 63.8692 147.94 63.9122 148.887C63.9338 149.189 63.6108 149.404 63.3308 149.275C62.5771 148.93 61.3712 148.758 60.2084 150.201C58.5934 152.203 60.8975 153.948 61.5866 154.421C61.6942 154.486 61.7588 154.615 61.7804 154.766C61.7804 155.821 61.9527 160.365 64.2352 162.949C64.429 163.164 64.7951 163.099 64.9243 162.841L66.6901 158.642C66.7762 158.448 66.9916 158.34 67.1854 158.405L67.9175 158.642Z" fill="#102D42"/>
<path d="M67.9605 159.503C67.9605 159.503 66.8839 155.132 65.2473 156.553C63.6107 157.974 65.678 161.097 67.5514 161.7L67.9605 159.503Z" fill="url(#paint6_linear_226_2165)"/>
<path d="M108.638 213.445L116.605 186.873C116.928 185.796 117.897 185.021 119.017 184.935L129.784 184.203C130.882 184.138 131.701 185.193 131.335 186.227L122.42 211.615C122.14 212.433 121.407 213.015 120.546 213.101L109.952 214.285L108.638 213.445Z" fill="#BCCFDC"/>
<path d="M123.324 195.874C122.721 197.08 121.709 197.769 121.02 197.446C120.352 197.123 120.288 195.874 120.869 194.668C121.472 193.462 122.484 192.773 123.173 193.096C123.862 193.441 123.927 194.69 123.324 195.874Z" fill="white"/>
<path d="M109.93 214.285C109.908 214.285 109.887 214.285 109.887 214.285L87.2979 213.144C86.738 213.123 86.3073 212.649 86.3288 212.089C86.3504 211.529 86.8241 211.098 87.384 211.12L109.973 212.261C110.533 212.283 110.964 212.756 110.942 213.316C110.92 213.855 110.468 214.285 109.93 214.285Z" fill="#BCCFDC"/>
<path d="M144.814 179.606H141.606C141.047 179.606 140.596 179.156 140.596 178.597C140.596 178.038 141.047 177.587 141.606 177.587H144.814C145.373 177.587 145.824 178.038 145.824 178.597C145.806 179.156 145.355 179.606 144.814 179.606ZM136.396 179.606H133.188C132.629 179.606 132.178 179.156 132.178 178.597C132.178 178.038 132.629 177.587 133.188 177.587H136.396C136.955 177.587 137.406 178.038 137.406 178.597C137.406 179.156 136.955 179.606 136.396 179.606ZM127.996 179.606H124.788C124.229 179.606 123.778 179.156 123.778 178.597C123.778 178.038 124.229 177.587 124.788 177.587H127.996C128.555 177.587 129.006 178.038 129.006 178.597C128.988 179.156 128.555 179.606 127.996 179.606ZM119.596 179.606H116.387C115.829 179.606 115.378 179.156 115.378 178.597C115.378 178.038 115.829 177.587 116.387 177.587H119.596C120.155 177.587 120.606 178.038 120.606 178.597C120.588 179.156 120.137 179.606 119.596 179.606ZM111.178 179.606H107.969C107.411 179.606 106.96 179.156 106.96 178.597C106.96 178.038 107.411 177.587 107.969 177.587H111.178C111.737 177.587 112.187 178.038 112.187 178.597C112.187 179.156 111.737 179.606 111.178 179.606ZM102.778 179.606H99.5694C99.0106 179.606 98.5599 179.156 98.5599 178.597C98.5599 178.038 99.0106 177.587 99.5694 177.587H102.778C103.337 177.587 103.787 178.038 103.787 178.597C103.769 179.156 103.319 179.606 102.778 179.606Z" fill="#B2ECFC"/>
<path d="M270.905 150.783H267.696C267.138 150.783 266.687 150.332 266.687 149.773C266.687 149.214 267.138 148.764 267.696 148.764H268.904C268.904 148.205 269.355 147.754 269.914 147.754C270.472 147.754 270.923 148.205 270.923 148.764V150.783H270.905ZM262.505 150.783H259.296C258.738 150.783 258.287 150.332 258.287 149.773C258.287 149.214 258.738 148.764 259.296 148.764H262.505C263.064 148.764 263.514 149.214 263.514 149.773C263.514 150.332 263.064 150.783 262.505 150.783ZM254.105 150.783H250.896C250.337 150.783 249.887 150.332 249.887 149.773C249.887 149.214 250.337 148.764 250.896 148.764H254.105C254.664 148.764 255.114 149.214 255.114 149.773C255.114 150.332 254.646 150.783 254.105 150.783ZM245.687 150.783H242.478C241.919 150.783 241.469 150.332 241.469 149.773C241.469 149.214 241.919 148.764 242.478 148.764H245.687C246.246 148.764 246.696 149.214 246.696 149.773C246.696 150.332 246.246 150.783 245.687 150.783ZM269.914 144.564C269.355 144.564 268.904 144.113 268.904 143.554V140.346C268.904 139.787 269.355 139.336 269.914 139.336C270.472 139.336 270.923 139.787 270.923 140.346V143.554C270.905 144.113 270.472 144.564 269.914 144.564ZM269.914 136.164C269.355 136.164 268.904 135.713 268.904 135.154V131.946C268.904 131.387 269.355 130.936 269.914 130.936C270.472 130.936 270.923 131.387 270.923 131.946V135.154C270.905 135.713 270.472 136.164 269.914 136.164ZM283.721 131.964H282.514C281.955 131.964 281.504 131.513 281.504 130.954C281.504 130.395 281.955 129.945 282.514 129.945H283.721C284.28 129.945 284.731 130.395 284.731 130.954C284.731 131.513 284.28 131.964 283.721 131.964ZM277.322 131.964H274.114C273.555 131.964 273.104 131.513 273.104 130.954C273.104 130.395 273.555 129.945 274.114 129.945H277.322C277.881 129.945 278.332 130.395 278.332 130.954C278.314 131.513 277.863 131.964 277.322 131.964Z" fill="#B2ECFC"/>
<path d="M310.487 235.536H307.525V267.631H310.487V235.536Z" fill="#9EB6C7"/>
<path d="M322.005 268.247H296.026V266.785C296.026 266.535 296.237 266.324 296.487 266.324H321.505C321.774 266.324 322.005 266.554 322.005 266.824V268.247Z" fill="#9EB6C7"/>
<path d="M326.928 234.363C326.928 236.229 325.409 237.748 323.544 237.748H295.603C293.737 237.748 292.218 236.229 292.218 234.363V231.306C292.218 229.441 293.737 227.921 295.603 227.921H323.544C325.409 227.921 326.928 229.441 326.928 231.306V234.363Z" fill="#48687F"/>
<path d="M292.487 261.939C292.487 261.939 284.007 268.054 285.488 272.15C285.488 272.15 294.756 268.15 295.872 264.997C296.987 261.843 295.679 260.458 295.679 260.458L292.487 261.939Z" fill="#035970"/>
<path d="M293.756 256.824L295.141 260.824C295.353 261.42 295.141 262.112 294.603 262.458C294.333 262.631 293.968 262.785 293.449 262.9C292.737 263.054 292.006 262.727 291.66 262.093L290.007 258.977L293.756 256.824Z" fill="url(#paint7_linear_226_2165)"/>
<path d="M307.237 220.769C307.237 220.769 289.834 223.788 282.372 230.672C274.911 237.575 289.218 259.574 289.218 259.574C289.218 259.574 291.564 259.555 294.41 257.132C294.41 257.132 285.93 240.595 293.237 235.768C301.468 230.345 310.948 229.114 310.948 229.114L307.41 221.307L307.237 220.769Z" fill="#102D42"/>
<path d="M286.949 269.882C288.814 269.016 294.083 265.324 294.987 265.17C295.891 265.016 297.41 266.055 297.41 266.055C297.41 266.055 297.795 266.728 297.391 267.901C296.16 269.401 293.41 272.247 289.699 273.324C286.987 274.112 285.084 273.381 283.891 272.516C284.545 271.516 285.718 270.459 286.949 269.882Z" fill="#035970"/>
<path d="M289.699 273.323C293.391 272.266 296.141 269.4 297.391 267.9C297.122 268.689 296.487 269.727 295.16 270.919C291.853 273.9 285.526 274.977 284.161 274.765C283.084 274.592 283.18 273.612 283.892 272.516C285.084 273.362 286.988 274.092 289.699 273.323Z" fill="#4690A4"/>
<path d="M298.987 263.439C298.968 263.959 297.91 265.709 297.295 266.708C297.006 267.17 296.487 267.458 295.949 267.458C295.602 267.458 295.199 267.42 294.833 267.324C294.276 267.17 293.968 266.574 294.141 266.035L295.333 261.939L298.987 263.439Z" fill="url(#paint8_linear_226_2165)"/>
<path d="M323.986 215.557C323.986 215.557 327.851 225.884 323.986 229.037C320.121 232.172 310.91 235.71 308.833 241.979C306.775 248.248 303.275 260.401 298.602 264.709C298.602 264.709 295.314 264.382 294.083 263.074C294.083 263.074 296.756 244.921 298.506 240.248C300.025 236.21 302.275 230.383 306.564 227.134C307.794 226.21 307.583 224.73 307.006 223.288L305.967 220.672L323.986 215.557Z" fill="#102D42"/>
<path d="M283.68 207.442C290.16 207.827 288.141 197.481 288.026 197.077L297.852 204.019C297.852 204.019 297.333 209.557 289.16 212.461C287.084 213.192 285.199 213.23 283.526 212.865C284.238 210.788 284.103 208.923 283.68 207.442Z" fill="white"/>
<path d="M271.161 204.327C273.584 202.654 276.315 204.327 276.315 204.327C279.546 206.442 281.93 207.346 283.699 207.442C284.122 208.922 284.257 210.788 283.545 212.865C279.93 212.095 277.334 209.461 276.219 208.134C275.815 207.653 275.103 207.557 274.603 207.961C274.104 208.365 273.604 208.903 273.7 209.48C273.873 210.615 272.565 210.961 272.469 210.557C272.373 210.153 272.911 207.73 272.911 207.73C272.911 207.73 270.296 210.365 269.277 211.384C268.258 212.403 266.969 211.384 266.969 211.384C266.969 211.384 268.738 206.019 271.161 204.327Z" fill="url(#paint9_linear_226_2165)"/>
<path d="M313.909 181.097C313.909 181.097 304.487 177.328 286.93 191.808C286.93 191.808 285.468 194.846 287.064 197.539C288.661 200.231 303.891 213.403 305.987 220.691C305.987 220.691 315.063 223.634 324.447 216.653C324.447 216.634 323.62 196.327 313.909 181.097Z" fill="white"/>
<path d="M295.256 177.712L299.891 183.347C300.352 183.904 300.448 184.674 300.141 185.327C299.506 186.635 297.968 188.558 294.583 188.289C293.583 188.212 292.68 187.597 292.237 186.693L288.987 179.982L295.256 177.712Z" fill="url(#paint10_linear_226_2165)"/>
<path d="M321.197 205.192C322.294 200.731 311.198 190.789 311.198 190.789L313.89 181.078C313.89 181.078 337.831 197.019 331.735 209.826C330.87 211.672 329.697 212.942 328.351 213.807C326.428 208.634 323.351 206.25 321.197 205.192Z" fill="white"/>
<path d="M304.41 204.807C304.41 204.807 317.544 209.903 320.755 206.076C320.967 205.807 321.121 205.518 321.198 205.192C323.351 206.268 326.428 208.634 328.351 213.826C321.448 218.249 309.621 211.364 306.429 209.345C305.91 209.018 305.275 208.903 304.66 209.018C303.429 209.268 301.295 209.653 300.16 209.48C298.487 209.23 296.064 215.153 293.353 213.326C293.333 213.307 295.679 202.999 304.41 204.807Z" fill="url(#paint11_linear_226_2165)"/>
<path d="M285.161 169.463C285.122 169.636 286.257 181.943 286.257 181.943L293.257 181.155L293.91 169.348C293.91 169.328 285.949 166.425 285.161 169.463Z" fill="url(#paint12_linear_226_2165)"/>
<path d="M292.083 171.77L292.218 178.02C292.218 178.097 292.218 178.174 292.199 178.251C292.083 178.732 291.545 180.328 289.93 179.674C288.468 179.078 287.122 178.559 286.141 178.751C285.699 178.828 285.391 179.232 285.43 179.693C285.526 180.809 285.815 183.328 286.391 185.462C286.507 185.904 286.949 186.174 287.391 186.097C288.737 185.866 291.545 185.289 293.699 184.289C293.987 184.155 294.18 183.866 294.199 183.558C294.295 182.001 294.641 177.251 294.929 175.943C295.218 174.713 296.814 174.136 297.506 173.943C297.737 173.886 297.929 173.732 298.025 173.52C298.41 172.79 299.045 171.059 296.872 170.078C296.41 169.867 296.218 169.348 296.449 168.886C296.891 168.001 297.179 166.598 295.526 165.636C293.853 164.655 292.43 165.444 291.641 166.136C291.314 166.405 290.853 166.405 290.526 166.136C290.334 165.982 290.084 165.905 289.737 166.078C289.276 166.29 288.737 166.059 288.564 165.578C288.237 164.655 287.488 163.636 285.718 163.752C282.603 163.944 281.872 167.29 282.469 169.386C283.065 171.463 286.43 171.059 288.199 170.251C289.545 169.617 291.083 170.597 291.737 171.117C291.968 171.251 292.083 171.501 292.083 171.77Z" fill="#102D42"/>
<path d="M294.987 178.212C294.987 178.212 294.122 174.54 295.506 173.828C296.891 173.097 298.756 173.77 298.064 176.27C297.179 179.405 294.987 178.212 294.987 178.212Z" fill="url(#paint13_linear_226_2165)"/>
<path d="M297.679 214.864C297.66 214.864 297.641 214.864 297.622 214.864L270.046 214.825C269.373 214.825 268.815 214.268 268.815 213.594C268.815 212.921 269.373 212.345 270.046 212.364L297.622 212.402C298.295 212.402 298.852 212.96 298.852 213.633C298.852 214.287 298.333 214.825 297.679 214.864Z" fill="#F2385A"/>
<path d="M245.24 189.827H268.2C269.892 189.827 271.431 190.807 272.161 192.346L282.776 214.864H254.239C253.143 214.864 252.162 214.191 251.758 213.191L243.547 192.327C243.067 191.134 243.951 189.827 245.24 189.827Z" fill="#F2385A"/>
<path d="M261.431 201.364C261.931 202.903 261.566 204.403 260.604 204.71C259.662 205.018 258.47 204.018 257.989 202.46C257.489 200.922 257.854 199.422 258.816 199.114C259.758 198.807 260.931 199.826 261.431 201.364Z" fill="white"/>
<path d="M248.97 274.016C248.816 274.016 248.663 273.978 248.509 273.92C247.913 273.67 247.643 273.016 247.893 272.44L272.2 217.75C272.45 217.173 273.142 216.923 273.719 217.154C274.315 217.404 274.584 218.058 274.334 218.634L250.028 273.324C249.836 273.747 249.412 274.016 248.97 274.016Z" fill="#9EB6C7"/>
<path d="M276.354 274.016C275.911 274.016 275.469 273.766 275.296 273.343L250.989 218.653C250.739 218.076 251.009 217.422 251.605 217.172C252.201 216.922 252.874 217.191 253.124 217.768L277.43 272.458C277.68 273.035 277.411 273.689 276.815 273.939C276.661 273.977 276.507 274.016 276.354 274.016Z" fill="#9EB6C7"/>
<path d="M324.197 274.015C324.044 274.015 323.89 273.977 323.736 273.919C323.14 273.669 322.871 273.016 323.121 272.439L347.427 217.749C347.677 217.172 348.369 216.922 348.946 217.153C349.542 217.403 349.812 218.057 349.562 218.633L325.255 273.323C325.082 273.746 324.64 274.015 324.197 274.015Z" fill="#9EB6C7"/>
<path d="M351.581 274.016C351.139 274.016 350.696 273.766 350.523 273.343L326.217 218.653C325.967 218.076 326.236 217.422 326.832 217.172C327.428 216.922 328.101 217.191 328.351 217.768L352.658 272.458C352.908 273.035 352.639 273.689 352.042 273.939C351.889 273.977 351.735 274.016 351.581 274.016Z" fill="#9EB6C7"/>
<path d="M354.427 216.057C354.484 215.691 354.408 215.326 354.196 215.037C353.985 214.749 353.677 214.595 353.35 214.595H242.778C242.355 214.595 241.951 214.845 241.72 215.249C241.49 215.653 241.451 216.172 241.644 216.595L242.836 219.499C243.105 220.172 243.701 220.595 244.355 220.595H352.581C353.196 220.595 353.715 220.114 353.831 219.441L354.427 216.057Z" fill="#48687F"/>
<path d="M178.025 85.6215L174.314 83.4876C173.317 82.9077 172.667 81.8871 172.551 80.7274C172.296 77.8281 171.693 74.9983 170.812 72.2845C170.44 71.1944 170.626 69.9651 171.322 69.0373L173.896 65.6045C174.987 64.1664 175.033 62.1948 174.012 60.6872L170.997 56.2338C169.977 54.7494 168.144 54.0535 166.381 54.5174L162.253 55.6308C161.139 55.9323 159.933 55.654 159.052 54.9117C156.872 53.0793 154.459 51.4789 151.861 50.18C150.818 49.6465 150.099 48.6724 149.936 47.5358L149.333 43.2912C149.078 41.5052 147.71 40.0671 145.947 39.7424L140.658 38.7218C138.896 38.3739 137.086 39.2089 136.182 40.763L134.048 44.4741C133.468 45.4715 132.448 46.1209 131.288 46.2369C128.388 46.4921 125.559 47.0951 122.845 47.9765C121.755 48.3476 120.525 48.1621 119.598 47.4662L116.165 44.8916C114.727 43.8015 112.755 43.7551 111.248 44.7757L106.794 47.791C105.31 48.8115 104.614 50.6439 105.078 52.4067L106.191 56.5354C106.493 57.6487 106.214 58.8316 105.472 59.7362C103.64 61.9165 102.039 64.3288 100.74 66.9266C100.207 67.9703 99.2328 68.6894 98.0962 68.8517L93.8516 69.4548C92.0656 69.7099 90.6276 71.0784 90.3028 72.8412L89.2823 78.1296C88.9344 79.8924 89.7693 81.7016 91.3234 82.6062L95.0345 84.7401C96.0319 85.3199 96.6814 86.3405 96.7973 87.5002C97.0525 90.3996 97.6556 93.2293 98.5369 95.9431C98.9081 97.0332 98.7225 98.2626 98.0266 99.1903L95.452 102.623C94.3619 104.061 94.3155 106.033 95.3361 107.54L98.3746 111.994C99.3951 113.478 101.228 114.174 102.99 113.71L107.119 112.597C108.232 112.295 109.415 112.574 110.32 113.316C112.5 115.148 114.912 116.749 117.51 118.048C118.554 118.581 119.273 119.555 119.435 120.692L120.038 124.936C120.294 126.722 121.662 128.16 123.425 128.485L128.713 129.506C130.476 129.854 132.285 129.019 133.19 127.465L135.324 123.754C135.904 122.756 136.924 122.107 138.084 121.991C140.983 121.736 143.813 121.132 146.527 120.251C147.617 119.88 148.846 120.066 149.774 120.761L153.207 123.336C154.645 124.426 156.616 124.473 158.124 123.452L162.577 120.413C164.062 119.393 164.758 117.561 164.294 115.798L163.18 111.669C162.879 110.556 163.157 109.35 163.9 108.468C165.732 106.288 167.332 103.876 168.631 101.278C169.165 100.234 170.139 99.5151 171.275 99.3527L175.52 98.7496C177.306 98.4945 178.744 97.126 179.069 95.3632L180.089 90.0748C180.414 88.312 179.602 86.5261 178.025 85.6215ZM131.914 115.38C114.657 113.849 101.9 98.6105 103.431 81.3536C104.962 64.0968 120.201 51.3397 137.458 52.8706C154.714 54.4014 167.471 69.6403 165.941 86.8972C164.41 104.154 149.171 116.911 131.914 115.38Z" fill="#102D42"/>
<path d="M129.525 130.388C129.223 130.388 128.899 130.364 128.574 130.295L123.286 129.274C121.198 128.88 119.574 127.187 119.273 125.076L118.67 120.831C118.554 119.95 117.974 119.185 117.162 118.767C114.541 117.445 112.083 115.821 109.81 113.919C109.114 113.339 108.163 113.131 107.305 113.363L103.176 114.476C101.112 115.033 98.9312 114.221 97.7251 112.458L94.6866 108.005C93.4805 106.242 93.5501 103.899 94.8258 102.206L97.4004 98.7732C97.9339 98.0542 98.0962 97.1032 97.7947 96.245C96.8669 93.4617 96.287 90.5623 96.0087 87.6398C95.9159 86.7352 95.4056 85.9234 94.6402 85.4827L90.9291 83.3488C89.0735 82.2818 88.0993 80.1711 88.5168 78.0604L89.5374 72.772C89.9317 70.6845 91.6249 69.0609 93.7356 68.7593L97.9803 68.1563C98.8617 68.0403 99.6271 67.4604 100.045 66.6486C101.367 64.0276 102.99 61.569 104.892 59.2959C105.472 58.6001 105.681 57.6491 105.449 56.7909L104.336 52.6622C103.779 50.5979 104.591 48.4176 106.354 47.2115L110.807 44.1962C112.57 42.9901 114.912 43.0596 116.606 44.3353L120.038 46.91C120.757 47.4434 121.708 47.6058 122.567 47.3043C125.373 46.3765 128.249 45.7966 131.172 45.5183C132.076 45.4255 132.888 44.9152 133.329 44.1498L135.463 40.4386C136.53 38.5831 138.641 37.6089 140.751 38.0264L146.04 39.047C148.127 39.4413 149.751 41.1345 150.052 43.2452L150.655 47.4898C150.771 48.3712 151.351 49.1598 152.163 49.5541C154.784 50.8762 157.243 52.4999 159.516 54.4018C160.212 54.9817 161.163 55.1905 162.021 54.9585L166.149 53.8452C168.214 53.2885 170.394 54.1003 171.6 55.8631L174.615 60.3165C175.822 62.0793 175.752 64.4219 174.476 66.1151L171.902 69.548C171.368 70.267 171.206 71.218 171.507 72.0762C172.435 74.8595 173.015 77.7589 173.293 80.6814C173.386 81.586 173.896 82.3978 174.662 82.8385L178.373 84.9724C180.229 86.0394 181.203 88.1501 180.785 90.2608L179.765 95.5492C179.37 97.6367 177.677 99.2603 175.566 99.5618L171.322 100.165C170.44 100.281 169.675 100.861 169.257 101.673C167.935 104.294 166.312 106.752 164.41 109.025C163.83 109.721 163.621 110.672 163.853 111.53L164.966 115.659C165.523 117.723 164.711 119.904 162.949 121.11L158.495 124.148C156.732 125.354 154.39 125.285 152.696 124.009L149.264 121.434C148.545 120.901 147.594 120.739 146.735 121.04C143.952 121.968 141.053 122.548 138.13 122.826C137.226 122.919 136.414 123.429 135.973 124.195L133.839 127.906C132.958 129.437 131.288 130.388 129.525 130.388ZM108.024 111.739C109.021 111.739 110.018 112.087 110.807 112.76C112.964 114.569 115.353 116.123 117.858 117.399C119.134 118.048 119.992 119.254 120.201 120.623L120.804 124.867C121.013 126.328 122.126 127.488 123.587 127.767L128.876 128.787C130.314 129.065 131.798 128.393 132.517 127.117L134.651 123.406C135.347 122.2 136.599 121.388 138.014 121.272C140.821 121.017 143.604 120.437 146.295 119.556C147.64 119.115 149.124 119.347 150.238 120.182L153.671 122.757C154.854 123.638 156.477 123.684 157.683 122.849L162.137 119.811C163.366 118.976 163.923 117.468 163.528 116.053L162.415 111.925C162.044 110.579 162.369 109.118 163.296 108.028C165.106 105.871 166.66 103.482 167.935 100.977C168.585 99.701 169.791 98.8428 171.159 98.6341L175.404 98.031C176.865 97.8223 178.025 96.7089 178.303 95.2476L179.324 89.9593C179.602 88.5212 178.93 87.0367 177.654 86.3177L173.943 84.1838C172.737 83.4879 171.925 82.2354 171.809 80.8206C171.554 78.014 170.974 75.2306 170.092 72.5401C169.652 71.1948 169.884 69.7103 170.719 68.597L173.27 65.1642C174.152 63.9812 174.198 62.3808 173.363 61.1515L170.348 56.6981C169.513 55.4688 168.005 54.9121 166.59 55.3064L162.461 56.4198C161.116 56.7909 159.655 56.4662 158.565 55.5384C156.408 53.7292 154.019 52.1751 151.514 50.8994C150.238 50.25 149.38 49.0439 149.171 47.6754L148.568 43.4308C148.359 41.9695 147.246 40.8098 145.784 40.5314L140.496 39.5109C139.035 39.2325 137.574 39.9052 136.855 41.1809L134.721 44.892C134.025 46.0981 132.772 46.91 131.357 47.0259C128.551 47.2811 125.767 47.8609 123.077 48.7423C121.732 49.183 120.247 48.9511 119.134 48.1161L115.701 45.5415C114.518 44.6601 112.894 44.6137 111.688 45.4487L107.235 48.464C106.006 49.299 105.449 50.8067 105.843 52.2215L106.957 56.3502C107.328 57.6955 107.003 59.1567 106.075 60.2469C104.266 62.404 102.689 64.793 101.436 67.2981C100.787 68.5738 99.5807 69.432 98.2122 69.6407L93.9676 70.2438C92.5063 70.4525 91.3466 71.5659 91.0682 73.0271L90.0477 78.3155C89.7693 79.7536 90.442 81.2381 91.7177 81.9571L95.4288 84.091C96.635 84.7868 97.4468 86.0394 97.5627 87.4542C97.8179 90.2608 98.3978 93.0441 99.2791 95.7347C99.7198 97.08 99.4879 98.5645 98.6529 99.6778L96.0783 103.111C95.1969 104.294 95.1505 105.917 95.9855 107.123L99.024 111.577C99.859 112.806 101.367 113.363 102.782 112.968L106.91 111.855C107.281 111.785 107.652 111.739 108.024 111.739ZM134.697 116.285C133.746 116.285 132.795 116.239 131.844 116.169C114.193 114.615 101.088 98.9588 102.666 81.3076C104.22 63.6565 119.853 50.5515 137.527 52.1288C146.086 52.8942 153.833 56.9301 159.33 63.5173C164.85 70.1046 167.471 78.4315 166.706 86.9903C165.222 103.667 151.166 116.285 134.697 116.285ZM131.984 114.615C148.8 116.1 163.668 103.644 165.152 86.828C165.871 78.6866 163.389 70.7541 158.124 64.4915C152.882 58.229 145.506 54.3786 137.365 53.6596C120.549 52.1751 105.681 64.6307 104.196 81.4468C102.712 98.2398 115.167 113.131 131.984 114.615Z" fill="#BCCFDC"/>
<path d="M122.404 62.4965C121.639 62.8212 126.208 92.4176 121.245 111.855C121.245 111.855 130.383 116.517 140.496 114.568C140.496 114.568 157.614 88.3817 158.078 85.2272C158.611 81.6553 155.874 63.3547 155.874 63.3547C155.874 63.3547 141.377 54.3087 122.404 62.4965Z" fill="#4690A4"/>
<path d="M145.46 74.9522C154.32 75.2537 155.016 67.6691 154.506 62.6127C151.583 61.1746 144.184 58.2289 134.419 59.2958C134.234 63.61 134.813 74.6043 145.46 74.9522Z" fill="url(#paint14_linear_226_2165)"/>
<path d="M148.081 46.0513C148.081 46.0513 143.674 55.3523 141.122 59.2722C140.357 60.432 140.589 61.9628 141.656 62.821C142.885 63.8184 144.857 64.7926 147.918 64.8158C149.217 64.839 150.354 63.9576 150.679 62.705L153.578 52.0819L148.081 46.0513Z" fill="url(#paint15_linear_226_2165)"/>
<path d="M155.851 63.3315C155.851 63.3315 168.794 86.9901 192.174 67.9241L194.841 72.1455C194.841 72.1455 177.724 98.5874 156.616 80.2405L155.851 63.3315Z" fill="url(#paint16_linear_226_2165)"/>
<path d="M210.103 71.5892C209.825 70.6382 209.106 69.8496 208.178 69.4785L199.132 65.837C199.132 65.837 198.993 64.6772 201.034 63.8886C203.075 63.1 202.611 60.8037 202.611 60.8037C202.611 60.8037 199.805 62.0794 195.723 64.0974C193.38 65.2571 192.058 67.2982 191.362 68.8291L193.682 71.8908C199.248 73.5608 204.908 73.8855 210.59 73.2129L210.103 71.5892Z" fill="url(#paint17_linear_226_2165)"/>
<path d="M122.404 62.4971C122.404 62.4971 100.439 73.8625 102.874 95.3407C105.31 116.796 138.571 97.1035 138.571 97.1035L137.759 91.9311C137.759 91.9311 117.394 97.8457 114.008 92.7661C111.526 89.0318 119.853 80.3106 124.469 75.9268C126.162 74.3263 126.649 71.8213 125.675 69.6874L122.404 62.4971Z" fill="url(#paint18_linear_226_2165)"/>
<path d="M135.556 104.364L144.764 72.1926C144.88 71.8215 145.181 71.5664 145.553 71.52C147.223 71.3344 152.047 70.7778 157.637 70.3139C164.363 69.734 172.18 69.2933 176.842 69.6876C177.515 69.734 177.909 70.453 177.608 71.0329C174.963 76.4141 164.039 98.2403 158.565 105.407C158.379 105.639 158.101 105.779 157.799 105.779L136.437 105.57C135.834 105.57 135.393 104.967 135.556 104.364Z" fill="#F7F9FB"/>
<path d="M158.611 67.53L165.291 66.4167C165.639 66.3471 165.941 66.695 165.825 67.0429L165.152 69.0377C165.106 69.2232 164.943 69.3392 164.758 69.3624L158.333 70.2206C158.008 70.267 157.73 69.9655 157.799 69.6407L158.217 67.9011C158.263 67.6924 158.426 67.5532 158.611 67.53Z" fill="#BCCFDC"/>
<path d="M153.601 73.1659L154.158 70.2898C154.204 70.0114 154.459 69.7795 154.738 69.7563L168.237 68.3878C168.701 68.3414 169.049 68.7589 168.956 69.1996L168.098 72.7716C168.028 73.0499 167.773 73.2587 167.495 73.2819L154.32 73.9545C153.856 73.9777 153.531 73.6066 153.601 73.1659Z" fill="#BCCFDC"/>
<path d="M137.782 96.5928C137.782 96.5928 136.507 91.3277 137.017 89.4489C137.527 87.5701 138.548 85.1811 141.888 85.7146C145.228 86.248 149.171 87.6629 149.171 87.6629C149.171 87.6629 148.962 90.0983 146.434 89.3097L148.011 90.539C148.011 90.539 147.779 92.4874 145.645 91.4436L147.107 93.0673C147.107 93.0673 146.179 94.6677 144.602 93.6471C143.024 92.6034 142.259 97.2423 137.782 96.5928Z" fill="url(#paint19_linear_226_2165)"/>
<path d="M163.111 38.3968C163.111 38.3968 165.152 43.1053 162.763 50.2492C160.374 57.3932 156.454 58.0195 153.972 56.2567C151.49 54.4939 148.289 51.3394 147.895 44.8449C147.501 38.3736 160.304 32.4357 163.111 38.3968Z" fill="url(#paint20_linear_226_2165)"/>
<path d="M152.72 44.4276C152.72 44.4276 157.034 34.7554 163.528 40.786L164.039 43.2678C164.039 43.2678 170.208 41.505 168.191 35.9151C166.173 30.3252 158.773 26.5213 152.186 30.1629C145.576 33.7812 143.349 38.049 143.697 43.1519C144.045 48.2547 147.872 46.4919 147.872 46.4919C147.872 46.4919 148.614 42.7576 150.4 42.0849C152.186 41.4123 152.163 44.2652 152.163 44.2652L152.72 44.4276Z" fill="#DA6668"/>
<path d="M151.235 44.5434C151.235 44.5434 153.485 39.5798 150.331 39.3942C147.176 39.2087 148.452 44.1723 149.078 45.9815L151.235 44.5434Z" fill="url(#paint21_linear_226_2165)"/>
<path d="M149.449 33.7353C151.212 33.5265 151.931 31.3462 150.725 30.0241C146.851 25.7795 139.522 21.0942 129.108 28.3077C117.348 36.4258 110.992 40.1138 108.116 39.3484C106.214 38.8381 104.568 40.7169 105.472 42.4565C106.145 43.7554 107.49 45.1006 109.972 46.33C129.154 55.7934 139.081 34.9878 149.449 33.7353Z" fill="#DA6668"/>
<path d="M323.038 99.0512L319.77 95.1629C318.881 94.1081 318.591 92.7017 318.943 91.3573C319.832 88.0275 320.349 84.6355 320.452 81.2436C320.494 79.8786 321.197 78.5963 322.355 77.8517L326.616 75.0802C328.415 73.922 329.263 71.7297 328.746 69.6614L327.195 63.4567C326.678 61.3678 324.899 59.8579 322.769 59.6718L317.702 59.2168C316.337 59.0927 315.116 58.3068 314.434 57.1072C312.738 54.1703 310.711 51.3988 308.353 48.8756C307.422 47.8621 307.009 46.4764 307.298 45.132L308.353 40.1682C308.808 38.0793 307.857 35.9283 306.037 34.8115L300.556 31.5023C298.715 30.4061 296.378 30.5716 294.744 31.9573L290.856 35.2251C289.801 36.1145 288.395 36.404 287.05 36.0524C283.72 35.1631 280.328 34.646 276.936 34.5426C275.571 34.5013 274.289 33.7981 273.545 32.6398L270.773 28.3792C269.615 26.5799 267.423 25.7319 265.354 26.249L259.15 27.8001C257.061 28.3172 255.551 30.0959 255.365 32.2262L254.91 37.2934C254.786 38.6584 254 39.8787 252.8 40.5612C249.863 42.2572 247.092 44.2841 244.568 46.6419C243.555 47.5726 242.169 47.9862 240.825 47.6967L235.861 46.6419C233.772 46.1868 231.621 47.1382 230.504 48.9583L227.195 54.4391C226.099 56.2799 226.264 58.617 227.65 60.2509L230.918 64.1392C231.807 65.194 232.097 66.6004 231.745 67.9448C230.856 71.2747 230.339 74.6666 230.235 78.0585C230.194 79.4236 229.491 80.7059 228.333 81.4504L224.072 84.2219C222.273 85.3801 221.425 87.5724 221.942 89.6407L223.493 95.8454C224.01 97.9344 225.789 99.4442 227.919 99.6303L232.986 100.085C234.351 100.209 235.572 100.995 236.254 102.195C237.95 105.132 239.977 107.903 242.335 110.427C243.265 111.44 243.679 112.826 243.39 114.17L242.335 119.134C241.88 121.223 242.831 123.374 244.651 124.491L250.132 127.8C251.973 128.896 254.31 128.731 255.944 127.345L259.832 124.077C260.887 123.188 262.293 122.898 263.638 123.25C266.968 124.139 270.359 124.656 273.751 124.759C275.116 124.801 276.399 125.504 277.143 126.662L279.915 130.923C281.073 132.722 283.265 133.57 285.334 133.053L291.538 131.502C293.627 130.985 295.137 129.206 295.323 127.076L295.778 122.009C295.902 120.644 296.688 119.423 297.888 118.741C300.825 117.045 303.596 115.018 306.119 112.66C307.133 111.73 308.519 111.316 309.863 111.605L314.827 112.66C316.916 113.115 319.067 112.164 320.183 110.344L323.493 104.863C324.589 103.022 324.403 100.685 323.038 99.0512ZM259.46 113.301C240.866 104.532 232.904 82.3398 241.673 63.7463C250.442 45.1527 272.635 37.19 291.228 45.9593C309.822 54.7287 317.784 76.921 309.015 95.5145C300.246 114.129 278.053 122.091 259.46 113.301Z" fill="#102D42"/>
<path d="M284.113 133.88C282.211 133.88 280.391 132.929 279.315 131.274L276.544 127.014C275.923 126.063 274.868 125.463 273.71 125.421C270.235 125.297 266.781 124.78 263.431 123.891C262.314 123.581 261.135 123.849 260.246 124.573L256.357 127.841C254.496 129.413 251.828 129.62 249.739 128.358L244.258 125.049C242.169 123.787 241.115 121.347 241.611 118.968L242.666 114.005C242.893 112.888 242.562 111.73 241.776 110.882C239.419 108.358 237.33 105.546 235.613 102.526C235.034 101.512 234.02 100.851 232.883 100.768L227.816 100.313C225.396 100.106 223.369 98.3687 222.769 95.9902L221.218 89.7855C220.639 87.4277 221.611 84.9458 223.659 83.6221L227.919 80.8507C228.871 80.2302 229.47 79.1754 229.512 78.0172C229.636 74.5425 230.153 71.0885 231.042 67.738C231.352 66.6211 231.084 65.4422 230.36 64.5736L227.092 60.6853C225.52 58.8238 225.313 56.1558 226.575 54.0669L229.884 48.586C231.146 46.4971 233.586 45.4423 235.965 45.9387L240.928 46.9935C242.045 47.221 243.203 46.8901 244.051 46.1041C246.575 43.7463 249.388 41.6574 252.407 39.9407C253.421 39.3616 254.082 38.3482 254.165 37.2107L254.62 32.1435C254.827 29.7236 256.564 27.6967 258.943 27.0969L265.148 25.5458C267.505 24.9666 269.987 25.9387 271.311 27.9863L274.082 32.2469C274.703 33.1983 275.758 33.7981 276.916 33.8394C280.391 33.9635 283.844 34.4806 287.195 35.3699C288.312 35.6802 289.491 35.4113 290.38 34.6874L294.268 31.4196C296.13 29.8477 298.798 29.6409 300.887 30.9025L306.368 34.2117C308.457 35.4733 309.511 37.9139 309.015 40.2924L307.96 45.2561C307.733 46.373 308.064 47.5312 308.85 48.3792C311.207 50.9231 313.296 53.7359 315.013 56.7349C315.592 57.7483 316.605 58.4102 317.743 58.4929L322.81 58.9479C325.23 59.1547 327.257 60.8921 327.857 63.2706L329.408 69.4753C329.987 71.8331 329.015 74.315 326.967 75.6387L322.707 78.4101C321.755 79.0306 321.156 80.0854 321.114 81.2436C320.99 84.7183 320.473 88.1722 319.584 91.5228C319.274 92.6396 319.542 93.8186 320.266 94.7079L323.534 98.5962C325.106 100.458 325.313 103.126 324.051 105.215L320.742 110.695C319.48 112.784 317.04 113.839 314.661 113.343L309.698 112.288C308.581 112.06 307.422 112.391 306.575 113.177C304.051 115.535 301.238 117.624 298.219 119.341C297.205 119.92 296.544 120.933 296.461 122.071L296.006 127.138C295.799 129.558 294.062 131.585 291.683 132.185L285.478 133.736C285.044 133.839 284.568 133.88 284.113 133.88ZM262.521 122.402C262.955 122.402 263.39 122.464 263.803 122.567C267.05 123.436 270.401 123.953 273.772 124.056C275.385 124.118 276.854 124.946 277.722 126.269L280.494 130.53C281.507 132.081 283.389 132.826 285.168 132.371L291.373 130.819C293.172 130.364 294.475 128.834 294.641 126.993L295.096 121.926C295.241 120.354 296.151 118.927 297.557 118.12C300.473 116.445 303.203 114.418 305.664 112.143C306.843 111.047 308.457 110.592 310.008 110.923L314.972 111.978C316.771 112.371 318.632 111.564 319.584 109.972L322.893 104.491C323.844 102.898 323.7 100.892 322.5 99.4649L319.232 95.5766C318.219 94.3563 317.867 92.7017 318.281 91.1505C319.149 87.9034 319.666 84.5528 319.77 81.1816C319.832 79.5683 320.659 78.0999 321.983 77.2312L326.244 74.4598C327.795 73.4463 328.539 71.5642 328.084 69.7855L326.533 63.5808C326.078 61.7814 324.548 60.4784 322.707 60.313L317.64 59.858C316.068 59.7132 314.641 58.8031 313.834 57.3967C312.159 54.4805 310.132 51.7504 307.857 49.2892C306.761 48.1103 306.306 46.4971 306.637 44.9459L307.691 39.9821C308.084 38.1827 307.278 36.3213 305.685 35.3699L300.204 32.0607C298.612 31.1093 296.606 31.2748 295.178 32.4537L291.29 35.7215C290.07 36.735 288.415 37.0866 286.864 36.6729C283.617 35.8043 280.266 35.2872 276.895 35.1838C275.282 35.1217 273.813 34.2944 272.945 32.9708L270.173 28.7102C269.16 27.159 267.278 26.4144 265.499 26.8694L259.294 28.4206C257.495 28.8756 256.192 30.4061 256.027 32.2469L255.572 37.3141C255.427 38.8859 254.517 40.313 253.11 41.1196C250.194 42.7949 247.464 44.8218 245.003 47.0969C243.824 48.193 242.211 48.6481 240.66 48.3171L235.696 47.2623C233.896 46.8901 232.035 47.676 231.084 49.2685L227.774 54.7494C226.823 56.3419 226.968 58.3481 228.167 59.7752L231.435 63.6635C232.449 64.8838 232.8 66.5384 232.387 68.0896C231.518 71.3367 231.001 74.6873 230.897 78.0585C230.835 79.6718 230.008 81.1402 228.684 82.0089L224.424 84.7803C222.873 85.7938 222.128 87.6759 222.583 89.4546L224.134 95.6593C224.589 97.4587 226.12 98.7617 227.96 98.9271L233.028 99.3821C234.6 99.5269 236.027 100.437 236.833 101.843C238.509 104.76 240.535 107.49 242.81 109.951C243.907 111.13 244.362 112.743 244.031 114.294L242.976 119.258C242.583 121.057 243.39 122.919 244.982 123.87L250.463 127.179C252.056 128.131 254.062 127.965 255.489 126.786L259.377 123.519C260.266 122.774 261.383 122.402 262.521 122.402ZM275.282 117.562C269.863 117.562 264.362 116.404 259.15 113.943C240.246 105.028 232.118 82.3812 241.032 63.4567C245.354 54.2944 252.986 47.3657 262.521 43.9531C272.055 40.5199 282.355 41.0369 291.518 45.3596C300.68 49.6822 307.609 57.314 311.021 66.8486C314.434 76.3832 313.937 86.6831 309.615 95.8454C303.183 109.517 289.532 117.562 275.282 117.562ZM259.749 112.681C277.971 121.285 299.791 113.446 308.395 95.225C312.552 86.3936 313.048 76.466 309.739 67.283C306.45 58.0999 299.77 50.737 290.939 46.5798C282.107 42.4226 272.18 41.9263 262.997 45.2355C253.814 48.524 246.451 55.2044 242.293 64.0358C233.69 82.2571 241.528 104.077 259.749 112.681Z" fill="#BCCFDC"/>
<path d="M253.152 69.2885C253.152 69.2885 269.119 65.2761 286.016 67.6959C290.773 68.3785 294.972 71.1292 297.536 75.2037C302.148 82.5046 308.684 95.5345 307.298 109.123L300.059 110.922C300.059 110.922 295.054 94.8106 289.408 88.2543C289.408 88.2543 282.728 103.477 283.058 111.832C283.058 112.06 283.079 112.308 283.1 112.515C283.865 120.684 251.042 114.045 251.042 114.045L253.152 69.2885Z" fill="#FAB1A5"/>
<path d="M266.058 55.5562L266.782 66.8901C266.844 67.945 267.526 68.8343 268.498 69.1238C270.711 69.7857 274.868 70.5716 278.943 68.917C279.687 68.6068 280.08 67.7381 279.811 66.9315L274.413 49.5996L266.058 55.5562Z" fill="url(#paint22_linear_226_2165)"/>
<path d="M264.217 39.1343C264.217 39.1343 260.763 47.0557 260.535 51.2128C260.308 55.37 259.418 58.0587 264.217 58.9067C269.015 59.734 273.069 57.3555 275.261 53.219C275.261 53.219 278.694 46.8488 277.929 44.2222C277.164 41.6162 264.217 39.1343 264.217 39.1343Z" fill="url(#paint23_linear_226_2165)"/>
<path d="M273.627 50.2402H273.028C273.028 50.2402 275.53 45.111 273.338 44.2009C271.145 43.2909 262.438 41.5329 260.556 38.4305C258.736 35.4522 260.37 31.6053 262.769 30.5298C262.914 30.4678 263.1 30.5298 263.183 30.6746L263.389 31.0469C263.534 31.3158 263.907 31.2744 263.989 30.9848C264.072 30.716 264.424 30.6539 264.568 30.9021C265.147 31.8328 266.699 33.3219 270.877 34.1079C276.812 35.2041 280.721 37.6032 280.825 41.6983C280.825 41.9672 281.114 42.0913 281.321 41.9672C281.755 41.6983 282.459 41.5743 283.389 42.3602C285.023 43.7252 284.341 47.2826 280.783 50.1988C280.618 50.3436 280.618 50.6125 280.804 50.7159C281.445 51.1295 282.417 52.143 279.915 53.4667C277.35 54.8317 275.84 54.6869 275.282 54.5422C275.137 54.5008 275.034 54.356 275.034 54.2112L275.261 50.5711C275.282 50.385 275.116 50.2195 274.93 50.2195H273.627V50.2402Z" fill="#F2385A"/>
<path d="M273.483 50.9853C273.483 50.9853 274.806 45.9387 277.061 47.3451C279.336 48.7722 275.882 53.0121 274.062 53.1983L273.483 50.9853Z" fill="url(#paint24_linear_226_2165)"/>
<path d="M253.255 101.864C252.552 96.8589 257.723 89.5167 259.853 86.7245C260.473 85.9179 260.804 84.9459 260.825 83.9531C260.887 76.8797 257.909 72.3296 253.152 69.2686C253.152 69.2686 235.861 89.3926 240.267 104.884C240.742 106.559 241.487 107.986 242.418 109.227C243.121 103.415 249.863 102.133 253.255 101.864Z" fill="#FAB1A5"/>
<path d="M253.4 102.567C253.338 102.34 253.296 102.112 253.255 101.885C249.863 102.154 243.121 103.436 242.417 109.268C250.132 119.465 271.394 115.783 271.394 115.783V111.812C271.394 111.792 255.054 108.772 253.4 102.567Z" fill="url(#paint25_linear_226_2165)"/>
<path d="M269.346 114.666C269.346 114.666 272.49 107.262 278.012 109.888C283.534 112.515 283.1 114.232 283.1 114.232L269.346 114.666Z" fill="url(#paint26_linear_226_2165)"/>
<path d="M268.643 116.218C268.684 116.776 269.16 117.21 269.718 117.19L298.384 116.197C298.839 116.176 299.212 115.887 299.356 115.452L300.184 112.784C300.39 112.122 299.915 111.461 299.232 111.419L288.788 110.861C288.684 110.861 288.601 110.861 288.498 110.882L269.449 115.101C268.953 115.225 268.601 115.68 268.643 116.218Z" fill="#618298"/>
<path d="M287.857 115.162L288.643 111.481L299.377 111.998L298.674 115.059L287.857 115.162Z" fill="#325167"/>
<path d="M282.355 75.6177C281.756 80.5814 279.005 100.747 278.24 106.517C278.136 107.324 278.777 108.048 279.584 108.027L325.954 106.703C326.554 106.683 327.071 106.248 327.216 105.669L334.434 73.1978C334.62 72.3291 333.937 71.5432 333.069 71.5846L283.617 74.4801C282.934 74.5008 282.417 74.9765 282.355 75.6177Z" fill="#618298"/>
<path d="M300.99 95.9896L294.144 115.431L310.07 115.762L311.393 96.093C311.456 95.1623 310.69 94.397 309.76 94.4591L302.314 94.9555C301.714 94.9968 301.176 95.4105 300.99 95.9896Z" fill="#48687F"/>
<path d="M287.671 115.7C287.505 116.238 287.898 116.776 288.457 116.776H313.4C313.855 116.776 314.227 116.404 314.227 115.949V114.873C314.227 114.397 313.834 114.025 313.358 114.046L288.415 115.142C288.084 115.163 287.774 115.39 287.671 115.7Z" fill="#325167"/>
<g clip-path="url(#clip0_226_2165)">
<path d="M189.36 176.766L210.876 139.931C210.98 139.751 211.035 139.548 211.035 139.34C211.035 139.133 210.98 138.929 210.877 138.75C210.773 138.57 210.624 138.421 210.444 138.317C210.264 138.213 210.061 138.158 209.853 138.158H195.98C195.635 138.158 195.297 138.248 194.998 138.419C194.699 138.59 194.45 138.836 194.276 139.133L171.996 177.292C171.823 177.591 171.731 177.93 171.731 178.275C171.73 178.62 171.82 178.959 171.992 179.259C172.164 179.558 172.412 179.807 172.711 179.98C173.009 180.154 173.349 180.246 173.694 180.247H183.385L179.202 187.414C179.028 187.713 178.937 188.052 178.936 188.398C178.936 188.744 179.027 189.083 179.199 189.383C179.372 189.682 179.621 189.931 179.92 190.104C180.22 190.277 180.56 190.368 180.906 190.368H215.81C216.224 190.367 216.631 190.257 216.989 190.05C217.347 189.842 217.644 189.545 217.851 189.187L224.075 178.551C224.179 178.372 224.233 178.169 224.234 177.962C224.234 177.755 224.18 177.552 224.077 177.372C223.974 177.193 223.825 177.043 223.647 176.939C223.468 176.835 223.265 176.779 223.057 176.778L189.36 176.766ZM196.861 141.644H205.836L185.331 176.766H176.345L196.861 141.644ZM215.201 186.888H183.556L187.431 180.253H219.052L215.201 186.888Z" fill="#F2385A"/>
</g>
<path d="M261.17 169.474V170.361H262.057V169.474H261.17ZM225.863 170.361C226.352 170.361 226.75 169.964 226.75 169.474C226.75 168.984 226.352 168.587 225.863 168.587V170.361ZM230.57 168.587C230.08 168.587 229.683 168.984 229.683 169.474C229.683 169.964 230.08 170.361 230.57 170.361V168.587ZM235.278 170.361C235.768 170.361 236.165 169.964 236.165 169.474C236.165 168.984 235.768 168.587 235.278 168.587V170.361ZM239.985 168.587C239.495 168.587 239.098 168.984 239.098 169.474C239.098 169.964 239.495 170.361 239.985 170.361V168.587ZM244.693 170.361C245.183 170.361 245.58 169.964 245.58 169.474C245.58 168.984 245.183 168.587 244.693 168.587V170.361ZM249.401 168.587C248.911 168.587 248.513 168.984 248.513 169.474C248.513 169.964 248.911 170.361 249.401 170.361V168.587ZM254.108 170.361C254.598 170.361 254.995 169.964 254.995 169.474C254.995 168.984 254.598 168.587 254.108 168.587V170.361ZM258.816 168.587C258.326 168.587 257.929 168.984 257.929 169.474C257.929 169.964 258.326 170.361 258.816 170.361V168.587ZM262.057 166.369C262.057 165.879 261.659 165.482 261.17 165.482C260.68 165.482 260.283 165.879 260.283 166.369H262.057ZM260.283 160.161C260.283 160.651 260.68 161.048 261.17 161.048C261.659 161.048 262.057 160.651 262.057 160.161H260.283ZM262.057 153.952C262.057 153.462 261.659 153.065 261.17 153.065C260.68 153.065 260.283 153.462 260.283 153.952H262.057ZM260.283 147.744C260.283 148.234 260.68 148.631 261.17 148.631C261.659 148.631 262.057 148.234 262.057 147.744H260.283ZM262.057 141.535C262.057 141.045 261.659 140.648 261.17 140.648C260.68 140.648 260.283 141.045 260.283 141.535H262.057ZM260.283 135.326C260.283 135.816 260.68 136.213 261.17 136.213C261.659 136.213 262.057 135.816 262.057 135.326H260.283ZM223.509 170.361H225.863V168.587H223.509V170.361ZM230.57 170.361H235.278V168.587H230.57V170.361ZM239.985 170.361H244.693V168.587H239.985V170.361ZM249.401 170.361H254.108V168.587H249.401V170.361ZM258.816 170.361H261.17V168.587H258.816V170.361ZM262.057 169.474V166.369H260.283V169.474H262.057ZM262.057 160.161V153.952H260.283V160.161H262.057ZM262.057 147.744V141.535H260.283V147.744H262.057ZM262.057 135.326V132.222H260.283V135.326H262.057Z" fill="#F4FCFF"/>
</g>
<defs>
<linearGradient id="paint0_linear_226_2165" x1="213.898" y1="79.6193" x2="271.902" y2="270.786" gradientUnits="userSpaceOnUse">
<stop stop-color="#EFB3A8"/>
<stop offset="1" stop-color="#FCF0EE"/>
</linearGradient>
<linearGradient id="paint1_linear_226_2165" x1="-89.8544" y1="6.84626" x2="-21.7001" y2="212.525" gradientUnits="userSpaceOnUse">
<stop stop-color="#EFB3A8"/>
<stop offset="1" stop-color="#FCF0EE"/>
</linearGradient>
<linearGradient id="paint2_linear_226_2165" x1="115.392" y1="212.56" x2="85.7425" y2="179.56" gradientUnits="userSpaceOnUse">
<stop stop-color="#F9B776"/>
<stop offset="1" stop-color="#F47960"/>
</linearGradient>
<linearGradient id="paint3_linear_226_2165" x1="112.52" y1="212.365" x2="95.0194" y2="177.777" gradientUnits="userSpaceOnUse">
<stop stop-color="#F9B776"/>
<stop offset="1" stop-color="#F47960"/>
</linearGradient>
<linearGradient id="paint4_linear_226_2165" x1="74.2986" y1="173.859" x2="62.6235" y2="164.039" gradientUnits="userSpaceOnUse">
<stop stop-color="#F9B776"/>
<stop offset="1" stop-color="#F47960"/>
</linearGradient>
<linearGradient id="paint5_linear_226_2165" x1="81.0042" y1="168.902" x2="61.7656" y2="153.685" gradientUnits="userSpaceOnUse">
<stop stop-color="#F9B776"/>
<stop offset="1" stop-color="#F47960"/>
</linearGradient>
<linearGradient id="paint6_linear_226_2165" x1="68.1916" y1="161.668" x2="63.0245" y2="158.931" gradientUnits="userSpaceOnUse">
<stop stop-color="#F9B776"/>
<stop offset="1" stop-color="#F47960"/>
</linearGradient>
<linearGradient id="paint7_linear_226_2165" x1="295.223" y1="259.885" x2="290.005" y2="259.885" gradientUnits="userSpaceOnUse">
<stop stop-color="#FF928E"/>
<stop offset="1" stop-color="#FEB3B1"/>
</linearGradient>
<linearGradient id="paint8_linear_226_2165" x1="298.996" y1="264.701" x2="294.099" y2="264.701" gradientUnits="userSpaceOnUse">
<stop stop-color="#FF928E"/>
<stop offset="1" stop-color="#FEB3B1"/>
</linearGradient>
<linearGradient id="paint9_linear_226_2165" x1="285.241" y1="212.81" x2="275.646" y2="197.455" gradientUnits="userSpaceOnUse">
<stop stop-color="#F9B776"/>
<stop offset="1" stop-color="#F47960"/>
</linearGradient>
<linearGradient id="paint10_linear_226_2165" x1="301.111" y1="188.252" x2="288.949" y2="176.947" gradientUnits="userSpaceOnUse">
<stop stop-color="#F9B776"/>
<stop offset="1" stop-color="#F47960"/>
</linearGradient>
<linearGradient id="paint11_linear_226_2165" x1="330.797" y1="215.217" x2="323.113" y2="193.333" gradientUnits="userSpaceOnUse">
<stop stop-color="#F9B776"/>
<stop offset="1" stop-color="#F47960"/>
</linearGradient>
<linearGradient id="paint12_linear_226_2165" x1="294.522" y1="181.861" x2="281.068" y2="174.477" gradientUnits="userSpaceOnUse">
<stop stop-color="#F9B776"/>
<stop offset="1" stop-color="#F47960"/>
</linearGradient>
<linearGradient id="paint13_linear_226_2165" x1="298.457" y1="178.406" x2="293.418" y2="175.272" gradientUnits="userSpaceOnUse">
<stop stop-color="#F9B776"/>
<stop offset="1" stop-color="#F47960"/>
</linearGradient>
<linearGradient id="paint14_linear_226_2165" x1="156.044" y1="74.8668" x2="137.86" y2="54.7294" gradientUnits="userSpaceOnUse">
<stop stop-color="#F9B776"/>
<stop offset="1" stop-color="#F47960"/>
</linearGradient>
<linearGradient id="paint15_linear_226_2165" x1="154.48" y1="64.7051" x2="135.464" y2="53.3311" gradientUnits="userSpaceOnUse">
<stop stop-color="#F9B776"/>
<stop offset="1" stop-color="#F47960"/>
</linearGradient>
<linearGradient id="paint16_linear_226_2165" x1="197.566" y1="86.5818" x2="172.42" y2="50.1244" gradientUnits="userSpaceOnUse">
<stop stop-color="#F9B776"/>
<stop offset="1" stop-color="#F47960"/>
</linearGradient>
<linearGradient id="paint17_linear_226_2165" x1="211.934" y1="73.4654" x2="197.811" y2="54.9229" gradientUnits="userSpaceOnUse">
<stop stop-color="#F9B776"/>
<stop offset="1" stop-color="#F47960"/>
</linearGradient>
<linearGradient id="paint18_linear_226_2165" x1="141.078" y1="105.102" x2="94.1641" y2="70.9396" gradientUnits="userSpaceOnUse">
<stop stop-color="#F9B776"/>
<stop offset="1" stop-color="#F47960"/>
</linearGradient>
<linearGradient id="paint19_linear_226_2165" x1="154.569" y1="75.3748" x2="140.188" y2="93.0027" gradientUnits="userSpaceOnUse">
<stop stop-color="#FF928E"/>
<stop offset="1" stop-color="#FEB3B1"/>
</linearGradient>
<linearGradient id="paint20_linear_226_2165" x1="165.044" y1="56.9618" x2="142.683" y2="42.2173" gradientUnits="userSpaceOnUse">
<stop stop-color="#F9B776"/>
<stop offset="1" stop-color="#F47960"/>
</linearGradient>
<linearGradient id="paint21_linear_226_2165" x1="152.273" y1="45.9425" x2="146.269" y2="42.9912" gradientUnits="userSpaceOnUse">
<stop stop-color="#F9B776"/>
<stop offset="1" stop-color="#F47960"/>
</linearGradient>
<linearGradient id="paint22_linear_226_2165" x1="280.863" y1="69.7819" x2="260.377" y2="57.6377" gradientUnits="userSpaceOnUse">
<stop stop-color="#F9B776"/>
<stop offset="1" stop-color="#F47960"/>
</linearGradient>
<linearGradient id="paint23_linear_226_2165" x1="279.279" y1="58.952" x2="257.089" y2="41.7998" gradientUnits="userSpaceOnUse">
<stop stop-color="#F9B776"/>
<stop offset="1" stop-color="#F47960"/>
</linearGradient>
<linearGradient id="paint24_linear_226_2165" x1="278.113" y1="53.1621" x2="271.842" y2="49.2924" gradientUnits="userSpaceOnUse">
<stop stop-color="#F9B776"/>
<stop offset="1" stop-color="#F47960"/>
</linearGradient>
<linearGradient id="paint25_linear_226_2165" x1="273.418" y1="116.345" x2="258.931" y2="91.2463" gradientUnits="userSpaceOnUse">
<stop stop-color="#F9B776"/>
<stop offset="1" stop-color="#F47960"/>
</linearGradient>
<linearGradient id="paint26_linear_226_2165" x1="284.07" y1="114.634" x2="279.497" y2="104.388" gradientUnits="userSpaceOnUse">
<stop stop-color="#F9B776"/>
<stop offset="1" stop-color="#F47960"/>
</linearGradient>
<clipPath id="clip0_226_2165">
<rect width="52.807" height="52.807" fill="white" transform="translate(171.725 138.158)"/>
</clipPath>
</defs>
</svg>
