<svg width="440" height="46" viewBox="0 0 440 46" fill="none" xmlns="http://www.w3.org/2000/svg">
<path fill-rule="evenodd" clip-rule="evenodd" d="M440 0H0V7C2.1012 7 4.18176 7.41388 6.12299 8.21796C8.06415 9.02203 9.828 10.2006 11.3137 11.6863C12.7995 13.1721 13.978 14.9359 14.7821 16.8771C15.5862 18.8183 16 20.8989 16 23C16 25.1011 15.5862 27.1818 14.7821 29.1229C13.978 31.0641 12.7994 32.828 11.3137 34.3137C9.828 35.7994 8.06415 36.978 6.12292 37.7821C4.1817 38.5862 2.10114 39 0 39V46H440L440 39C437.899 39 435.818 38.5861 433.877 37.782C431.936 36.978 430.172 35.7994 428.686 34.3137C427.201 32.8279 426.022 31.0641 425.218 29.1229C424.414 27.1817 424 25.1011 424 23C424 20.8989 424.414 18.8182 425.218 16.8771C426.022 14.9359 427.201 13.172 428.686 11.6863C430.172 10.2006 431.936 9.02197 433.877 8.2179C435.818 7.41382 437.899 7 440 7L440 0Z" fill="#CE2846"/>
</svg>
