<svg width="102" height="80" viewBox="0 0 102 80" fill="none" xmlns="http://www.w3.org/2000/svg">
<path d="M84.7296 59.4073C84.6987 61.5675 83.9153 74.1762 69.9451 76.6902C69.9451 76.6902 67.9614 68.4597 84.4093 59.2695C84.5536 59.1886 84.7319 59.2661 84.7296 59.4073Z" fill="url(#paint0_linear_15949_48625)"/>
<path d="M83.0455 33.1614C84.2251 36.7396 90.1273 57.9846 68.7338 70.4412C68.7338 70.4412 60.8052 58.0581 82.4439 33.1249C82.6348 32.9059 82.9695 32.9254 83.0455 33.1614Z" fill="url(#paint1_linear_15949_48625)"/>
<path opacity="0.5" d="M81.8729 38.0073C81.8729 38.0073 81.1113 40.2308 79.8316 43.5181C79.5114 44.34 79.1601 45.2284 78.7797 46.1644C78.3993 47.1004 77.9921 48.0858 77.5605 49.1004C77.1288 50.115 76.6735 51.1594 76.2022 52.2165C75.7308 53.2737 75.2378 54.3425 74.7311 55.4039C74.4796 55.9354 74.2252 56.4659 73.9658 56.9911C73.7063 57.5163 73.4473 58.0394 73.1857 58.5553C72.6635 59.5892 72.1308 60.5966 71.6044 61.5649C71.3428 62.0501 71.0718 62.5204 70.8144 62.9845C70.557 63.4485 70.2873 63.892 70.034 64.3294C69.7807 64.7668 69.5174 65.1813 69.271 65.5882C69.0246 65.9951 68.7728 66.377 68.5348 66.7498C68.2969 67.1226 68.0566 67.4684 67.8348 67.8031C67.7226 67.9693 67.615 68.1334 67.5053 68.2889L67.1841 68.7399C66.9736 69.0291 66.7893 69.3079 66.5966 69.5518L66.0807 70.2294C65.9279 70.4362 65.782 70.6125 65.6554 70.7667C65.5288 70.9208 65.4236 71.0524 65.3353 71.1594L65.0685 71.4862L65.0621 71.4941C65.0397 71.5204 65.0228 71.5508 65.0124 71.5835C65.002 71.6162 64.9983 71.6507 65.0016 71.6848C65.0049 71.7189 65.015 71.7519 65.0314 71.782C65.0479 71.8122 65.0703 71.8387 65.0973 71.8601C65.1243 71.8815 65.1554 71.8974 65.1888 71.9067C65.2222 71.9161 65.2572 71.9188 65.2917 71.9146C65.3262 71.9104 65.3595 71.8995 65.3898 71.8825C65.42 71.8655 65.4465 71.8427 65.4677 71.8154L65.7356 71.4823L66.0572 71.0818C66.1841 70.9249 66.3313 70.7442 66.4845 70.5353L66.9987 69.8464C67.1898 69.5973 67.3757 69.3148 67.586 69.0209L67.9068 68.5631C68.0161 68.4049 68.1227 68.2389 68.2353 68.0706C68.4584 67.7309 68.7001 67.3815 68.9323 67.0028C69.1645 66.624 69.4183 66.2371 69.6642 65.8275C69.9102 65.4179 70.1667 64.9957 70.4215 64.5546C70.6763 64.1135 70.9365 63.6626 71.195 63.197C71.4536 62.7314 71.718 62.2547 71.9768 61.7651C72.4977 60.7882 73.025 59.7734 73.5398 58.7325C73.7988 58.2129 74.0582 57.6877 74.3098 57.1569C74.5614 56.6261 74.8171 56.0947 75.0646 55.5598C75.564 54.492 76.0447 53.4156 76.5126 52.3542C76.9805 51.2928 77.4237 50.2422 77.8489 49.2218C78.2741 48.2014 78.6739 47.2131 79.0465 46.2721C79.4192 45.3312 79.7644 44.4397 80.0786 43.6147C81.3338 40.3128 82.0792 38.079 82.0792 38.079C82.0864 38.0521 82.083 38.0235 82.0697 37.999C82.0563 37.9746 82.034 37.9561 82.0072 37.9474C81.9804 37.9387 81.9513 37.9404 81.9257 37.9521C81.9 37.9639 81.8799 37.9848 81.8693 38.0107L81.8729 38.0073Z" fill="white"/>
<path d="M45.3084 48.0335C46.1912 47.1507 46.1912 45.7194 45.3084 44.8366C44.4256 43.9539 42.9944 43.9539 42.1116 44.8366C41.2288 45.7194 41.2288 47.1507 42.1116 48.0335C42.9944 48.9162 44.4256 48.9162 45.3084 48.0335Z" fill="url(#paint2_linear_15949_48625)"/>
<g style="mix-blend-mode:soft-light" opacity="0.5">
<g style="mix-blend-mode:soft-light">
<path d="M41.9253 50.2619C38.0362 48.784 34.689 47.0211 31.9761 45.0216C27.9572 42.06 25.4539 38.6567 24.5355 34.9058C23.8176 31.9737 24.0831 28.7997 24.42 24.7816C24.6984 21.45 25.197 19.1171 25.6362 17.0585C26.2045 14.3953 26.6533 12.2911 26.3419 9.25251C26.0256 6.16416 25.0067 3.09322 23.3145 0.123533L23.5306 0C25.2412 2.99961 26.2709 6.10396 26.5907 9.22711C26.906 12.3054 26.4533 14.426 25.8808 17.1107C25.4431 19.1617 24.9472 21.4865 24.6692 24.8011C24.3212 28.9539 24.0699 31.9538 24.7784 34.8463C25.6832 38.5387 28.1539 41.8947 32.1247 44.8209C34.8195 46.8068 38.1469 48.5589 42.0147 50.0288L41.9253 50.2619Z" fill="white"/>
</g>
<g style="mix-blend-mode:soft-light">
<path d="M30.9798 44.2203L30.7335 44.1911C30.6987 44.1869 27.4033 43.7833 23.0977 42.2821C19.1227 40.8961 13.4481 38.2639 8.9863 33.5961L0.38208 24.5938L0.561993 24.4219L9.16621 33.4238C13.5922 38.0544 19.2264 40.6678 23.1736 42.0448C26.7842 43.3045 29.6808 43.7875 30.516 43.9099C28.8753 40.8825 29.1822 37.5892 31.4103 34.3697C33.1252 31.8917 35.3982 30.3083 35.4208 30.2923L35.5624 30.4973C35.5398 30.513 33.3005 32.0744 31.6114 34.5165C29.3596 37.7733 29.106 40.9657 30.8546 44.0053L30.9798 44.2203Z" fill="white"/>
</g>
</g>
<path d="M101.618 72.993L3.6709 72.3643V74.2242C3.6709 74.7289 4.09839 75.1586 4.67684 75.235L32.3732 78.8985C32.7011 78.942 33.0351 78.9535 33.3669 78.9328L100.554 74.7559C101.153 74.7185 101.618 74.2878 101.618 73.7691V72.993Z" fill="#4690A4"/>
<path d="M65.9428 69.9156L4.52697 74.4366C3.42804 74.5177 2.53442 73.6578 2.53442 72.5164V26.7818C2.53442 25.6404 3.42804 24.7151 4.52697 24.7151H65.9428C66.8475 24.7151 67.5783 25.5502 67.5783 26.5834V67.9265C67.58 68.9586 66.8482 69.8488 65.9428 69.9156Z" fill="#4690A4"/>
<path d="M66.9225 69.9153L5.50706 74.4363C4.40778 74.5174 3.51416 73.6575 3.51416 72.5162V26.7815C3.51416 25.6401 4.40778 24.7148 5.50706 24.7148H66.9225C67.8273 24.7148 68.558 25.55 68.558 26.5832V67.9263C68.5598 68.9584 67.828 69.8485 66.9225 69.9153Z" fill="#D4F5FF"/>
<path d="M65.0088 67.0006L7.8067 70.9276C6.91238 70.9891 6.18579 70.2834 6.18579 69.3515V29.3109C6.18579 28.379 6.91238 27.6204 7.8067 27.6166L65.0091 27.3699C65.7559 27.3668 66.36 28.0523 66.36 28.901V65.3696C66.3597 66.2211 65.7556 66.9494 65.0088 67.0006Z" fill="white"/>
<path d="M38.3833 25.9658C38.3833 26.3907 38.067 26.7363 37.6769 26.7373C37.2868 26.7383 36.9688 26.3942 36.9688 25.9683C36.9688 25.5423 37.2861 25.1971 37.6769 25.1968C38.0677 25.1964 38.3833 25.542 38.3833 25.9658Z" fill="white"/>
<path d="M69.499 69.8156L3.6709 73.3384L32.3732 77.0716C32.7011 77.1143 33.0351 77.1257 33.3669 77.1054L101.618 72.9324L70.5463 69.839C70.1992 69.8047 69.8482 69.7968 69.499 69.8156Z" fill="#E6F9FF"/>
<path d="M73.2391 61.2808C73.2391 66.0261 69.3604 70.142 64.4985 70.456L19.6694 71.7076C19.7785 71.5338 19.8522 71.3434 19.8928 71.1393C19.9667 70.7689 19.926 70.383 19.8475 70.013C19.7686 69.6409 19.6399 69.236 19.5021 68.8189C19.4755 68.7383 19.4484 68.657 19.421 68.5748C19.3037 68.2222 19.1808 67.8527 19.063 67.4535C18.7746 66.4757 18.5277 65.3515 18.5277 64.0546V1.53513L73.2377 3.6283L73.2391 61.2808Z" fill="url(#paint3_linear_15949_48625)" stroke="url(#paint4_linear_15949_48625)" stroke-width="1.15369"/>
<rect x="27.4568" y="8.40576" width="27.0451" height="1.09642" rx="0.548211" transform="rotate(1.52237 27.4568 8.40576)" fill="white"/>
<rect x="24.9087" y="8.04053" width="1.4619" height="1.4619" rx="0.576845" transform="rotate(1.52237 24.9087 8.04053)" fill="white"/>
<rect x="27.4568" y="13.157" width="27.0451" height="1.09642" rx="0.548211" transform="rotate(1.52237 27.4568 13.157)" fill="white"/>
<rect x="24.9087" y="12.7915" width="1.4619" height="1.4619" rx="0.576845" transform="rotate(1.52237 24.9087 12.7915)" fill="white"/>
<rect x="24.8694" y="19.7354" width="8.04043" height="10.5988" rx="0.576845" fill="white"/>
<rect x="40.219" y="19.7354" width="8.04043" height="10.5988" rx="0.576845" fill="white"/>
<rect x="55.9343" y="19.7356" width="8.04043" height="10.5988" rx="0.576845" fill="white"/>
<rect x="24.8694" y="35.4507" width="8.04043" height="10.5988" rx="0.576845" fill="white"/>
<rect x="40.219" y="35.4507" width="8.04043" height="10.5988" rx="0.576845" fill="white"/>
<rect x="55.9343" y="35.4509" width="8.04043" height="10.5988" rx="0.576845" fill="white"/>
<rect x="24.8694" y="51.1665" width="8.04043" height="10.5988" rx="0.576845" fill="white"/>
<rect x="40.219" y="51.1665" width="8.04043" height="10.5988" rx="0.576845" fill="white"/>
<rect x="55.9343" y="51.1665" width="8.04043" height="10.5988" rx="0.576845" fill="white"/>
<path d="M62.0715 17.9538C61.9613 17.796 55.0694 13.7237 48.0348 18.0661C41.5645 22.0606 38.6203 30.4806 39.4 30.7625C40.3512 31.114 43.4401 27.2611 48.8064 25.5121C50.7089 24.8931 53.5329 25.9812 53.5329 25.9812L62.0715 17.9538Z" fill="#FFC727"/>
<path opacity="0.1" d="M53.5326 25.986C53.5326 25.986 52.3101 25.5132 50.9291 25.3709C52.2969 23.1096 54.8558 18.8895 56.5168 16.159C59.7495 16.5113 62.0118 17.8688 62.0711 17.9586L53.5326 25.986Z" fill="black"/>
<path d="M72.5773 33.174C72.6875 33.3318 74.0499 41.2194 67.4968 46.26C61.4715 50.8966 52.5513 50.6669 52.56 49.8391C52.5717 48.8227 57.2651 47.3006 60.807 42.9C62.0632 41.341 62.0438 38.3126 62.0438 38.3126L72.5773 33.174Z" fill="#FFC727"/>
<path opacity="0.1" d="M72.283 39.0454C69.1138 39.6383 64.2563 40.5409 61.6859 41.0201C62.0515 39.6612 62.0438 38.3124 62.0438 38.3124L72.5772 33.1738C72.6417 33.2641 73.1111 35.8808 72.283 39.0454Z" fill="black"/>
<path d="M54.828 40.8852L48.6004 31.8644C48.6004 31.8644 53.2572 22.3608 62.6616 16.6013C67.3576 13.7315 72.7247 11.7622 77.4734 10.5813C84.0302 8.93993 89.3878 8.81078 90.1126 9.85831C90.842 10.9115 88.8124 15.8766 84.9624 21.4267C82.1717 25.4455 78.4277 29.7684 74.0806 33.1396C65.3645 39.8905 54.828 40.8852 54.828 40.8852Z" fill="#233F52"/>
<path d="M73.2655 29.4658C70.3934 31.4519 66.4524 30.7304 64.472 27.8535C62.486 24.9814 63.2075 21.0405 66.0844 19.0601C68.9565 17.074 72.8974 17.7956 74.8778 20.6724C76.8639 23.5445 76.1423 27.4855 73.2655 29.4658Z" fill="#A6A6A6"/>
<path d="M73.6713 28.9133C70.7991 30.8994 66.8582 30.1779 64.8778 27.301C62.8917 24.4289 63.6133 20.488 66.4901 18.5076C69.3623 16.5215 73.3032 17.2431 75.2836 20.1199C77.2697 22.992 76.5481 26.933 73.6713 28.9133Z" fill="#FFC727"/>
<path d="M72.5709 27.3199C70.5776 28.6957 67.8469 28.1991 66.4712 26.2058C65.0955 24.2125 65.5921 21.4818 67.5854 20.1061C69.5787 18.7304 72.3093 19.2269 73.6851 21.2203C75.0608 23.2136 74.5642 25.9442 72.5709 27.3199Z" fill="white"/>
<path d="M84.9624 21.4268L77.4735 10.5814C84.0302 8.94 89.3878 8.81085 90.1126 9.85838C90.842 10.9116 88.8124 15.8766 84.9624 21.4268Z" fill="#FFC727"/>
<path d="M79.8826 11.6751C79.7138 11.7895 79.4869 11.7513 79.3673 11.582C79.2529 11.4133 79.2912 11.1864 79.4604 11.0668C79.6291 10.9524 79.8561 10.9907 79.9757 11.1599C80.09 11.3286 80.0518 11.5556 79.8826 11.6751Z" fill="white"/>
<path d="M81.2123 13.6063C81.0436 13.7207 80.8166 13.6824 80.697 13.5132C80.5775 13.3439 80.6209 13.1175 80.7901 12.9979C80.9589 12.8835 81.1858 12.9218 81.3054 13.091C81.4198 13.2597 81.3815 13.4867 81.2123 13.6063Z" fill="white"/>
<path d="M82.5471 15.5326C82.3784 15.647 82.1514 15.6087 82.0318 15.4395C81.9174 15.2708 81.9557 15.0438 82.1249 14.9242C82.2936 14.8098 82.5206 14.8481 82.6402 15.0173C82.7546 15.186 82.7163 15.413 82.5471 15.5326Z" fill="white"/>
<path d="M83.8765 17.464C83.7077 17.5784 83.4808 17.5401 83.3612 17.3709C83.2468 17.2022 83.2851 16.9752 83.4543 16.8556C83.623 16.7412 83.85 16.7795 83.9696 16.9487C84.0839 17.1174 84.0457 17.3444 83.8765 17.464Z" fill="white"/>
<path d="M85.2112 19.3951C85.0425 19.5095 84.8155 19.4712 84.6959 19.302C84.5815 19.1333 84.6198 18.9063 84.789 18.7867C84.9577 18.6724 85.1847 18.7106 85.3043 18.8798C85.4187 19.0486 85.3804 19.2755 85.2112 19.3951Z" fill="white"/>
<path d="M50.6509 31.8741C50.4822 31.9885 50.2552 31.9502 50.1356 31.781C50.0212 31.6123 50.0595 31.3853 50.2287 31.2657C50.3974 31.1514 50.6244 31.1896 50.744 31.3588C50.8583 31.5276 50.8201 31.7545 50.6509 31.8741Z" fill="#A6A6A6"/>
<path d="M51.9861 33.8001C51.8174 33.9145 51.5904 33.8763 51.4708 33.707C51.3564 33.5383 51.3947 33.3114 51.5639 33.1918C51.7326 33.0774 51.9596 33.1157 52.0792 33.2849C52.1936 33.4536 52.1553 33.6806 51.9861 33.8001Z" fill="#A6A6A6"/>
<path d="M53.3154 35.7315C53.1467 35.8459 52.9197 35.8077 52.8001 35.6384C52.6858 35.4697 52.724 35.2428 52.8932 35.1232C53.062 35.0088 53.2889 35.047 53.4085 35.2163C53.5229 35.385 53.4846 35.612 53.3154 35.7315Z" fill="#A6A6A6"/>
<path d="M54.6511 37.6573C54.4824 37.7717 54.2554 37.7334 54.1358 37.5642C54.0215 37.3955 54.0597 37.1685 54.2289 37.049C54.3976 36.9346 54.6246 36.9728 54.7442 37.1421C54.8586 37.3108 54.8203 37.5377 54.6511 37.6573Z" fill="#A6A6A6"/>
<path d="M55.9802 39.5887C55.8115 39.7031 55.5845 39.6648 55.4649 39.4956C55.3506 39.3269 55.3888 39.0999 55.558 38.9803C55.7267 38.866 55.9537 38.9042 56.0733 39.0734C56.1877 39.2422 56.1494 39.4691 55.9802 39.5887Z" fill="#A6A6A6"/>
<path opacity="0.2" d="M89.7424 9.57515C84.8203 9.43806 76.0707 11.5594 66.4754 17.6566C59.3879 22.1616 53.6927 30.7124 50.9757 35.3102L48.6002 31.8697C48.6002 31.8697 53.257 22.3661 62.6614 16.6067C67.3579 13.7316 72.7246 11.7676 77.4733 10.5866C83.3472 9.11352 88.2612 8.85642 89.7424 9.57515Z" fill="white"/>
<path d="M51.5417 41.9277L46.4741 34.5903L48.9492 32.376L54.489 40.4001L51.5417 41.9277Z" fill="#FFC727"/>
<path opacity="0.1" d="M54.488 40.4007L53.0504 41.1444L48.0042 33.2217L48.9482 32.3765L54.488 40.4007Z" fill="black"/>
<path d="M64.5734 33.5163L61.6782 33.0261L60.011 35.8173L60.4621 32.5673L57.9353 31.0134L60.8821 31.3366L62.4971 28.7184L62.115 31.8032L64.5734 33.5163Z" fill="#FBFBFB"/>
<path d="M85.0963 12.576L83.6414 12.3319L82.8171 13.6611L83.0336 12.1142L81.76 11.3637L83.2388 11.5262L84.0444 10.2791L83.8617 11.7506L85.0963 12.576Z" fill="#FBFBFB"/>
<path d="M70.2897 41.1663L68.8348 40.9223L68.0053 42.2509L68.2218 40.7041L66.9483 39.9535L68.427 40.116L69.2327 38.869L69.0499 40.3404L70.2897 41.1663Z" fill="#FBFBFB"/>
<path d="M45.495 25.6292L44.0349 25.3847L43.2106 26.7138L43.4276 25.1618L42.1536 24.4164L43.6323 24.5789L44.438 23.3319L44.2552 24.8033L45.495 25.6292Z" fill="#FBFBFB"/>
<path opacity="0.6" d="M50.6834 39.3035C48.019 40.7244 45.6013 42.6388 43.7383 45.0235C41.8761 47.3985 40.5823 50.255 40.1866 53.2982C39.9963 54.8182 40.0286 56.3798 40.2951 57.9157C40.5616 59.4517 41.0671 60.9625 41.778 62.3912C42.4888 63.8198 43.4103 65.1619 44.4819 66.3821C45.553 67.6071 46.7786 68.7155 48.1041 69.7117C46.674 68.8761 45.3115 67.9055 44.0727 66.7811C42.829 65.6562 41.709 64.3775 40.7756 62.9561C39.8423 61.5347 39.101 59.9662 38.6103 58.3054C38.1143 56.649 37.869 54.9002 37.8803 53.1475C37.9185 49.634 39.0156 46.1278 40.8693 43.0925C42.7196 40.0421 45.3031 37.4505 48.2461 35.4074L50.6834 39.3035Z" fill="#FFC727"/>
<path d="M30.3672 68.1456L26.5944 74.5553C25.606 76.2346 23.4473 76.7936 21.7679 75.8051L17.8837 73.5188L15.1727 74.8402C14.7726 75.0362 14.3047 74.7607 14.2818 74.3158L14.1212 71.3042L10.5254 69.1876C8.84609 68.1992 8.28708 66.0405 9.27555 64.3612L13.0484 57.9515C14.0368 56.2722 16.1955 55.7132 17.8748 56.7016L29.111 63.3154C30.7903 64.3039 31.3493 66.4625 30.3608 68.1419L30.3672 68.1456Z" fill="url(#paint5_linear_15949_48625)"/>
<path d="M25.2949 68.1712C26.2607 66.5303 25.6821 64.6104 24.3937 63.852C23.3041 63.2107 21.9099 63.3653 21.0393 64.1992C21.3458 63.0332 20.7979 61.7355 19.7147 61.0979C18.4199 60.3358 16.4668 60.7655 15.501 62.4064C14.0371 64.8933 16.1784 69.9942 16.947 70.8436C16.9663 70.855 16.978 70.8791 16.9934 70.8968C17.0217 70.9221 17.0435 70.9436 17.0628 70.9549C17.0628 70.9549 17.0628 70.9549 17.0692 70.9587C17.0692 70.9587 17.0692 70.9587 17.0756 70.9625C17.0948 70.9738 17.1205 70.9889 17.1601 70.9949C17.1793 71.0062 17.2061 71.0047 17.2291 71.0096C18.3486 71.263 23.8439 70.6657 25.3077 68.1788L25.2949 68.1712Z" fill="#FBFBFB"/>
<defs>
<linearGradient id="paint0_linear_15949_48625" x1="87.8856" y1="52.1073" x2="72.3799" y2="50.0733" gradientUnits="userSpaceOnUse">
<stop stop-color="#99DAEC"/>
<stop offset="1" stop-color="#F1FCFF" stop-opacity="0.44"/>
</linearGradient>
<linearGradient id="paint1_linear_15949_48625" x1="88.0301" y1="23.8418" x2="48.4531" y2="42.8119" gradientUnits="userSpaceOnUse">
<stop stop-color="#A0E9FD"/>
<stop offset="1" stop-color="#EBF5F9" stop-opacity="0"/>
</linearGradient>
<linearGradient id="paint2_linear_15949_48625" x1="42.1473" y1="44.8096" x2="45.2871" y2="48.062" gradientUnits="userSpaceOnUse">
<stop stop-color="#E38DDD"/>
<stop offset="1" stop-color="#9571F6"/>
</linearGradient>
<linearGradient id="paint3_linear_15949_48625" x1="40.415" y1="0.935791" x2="40.415" y2="74.6837" gradientUnits="userSpaceOnUse">
<stop stop-color="#FFE1DB"/>
<stop offset="1" stop-color="#FFFBF5"/>
</linearGradient>
<linearGradient id="paint4_linear_15949_48625" x1="40.415" y1="0.935791" x2="40.415" y2="74.6837" gradientUnits="userSpaceOnUse">
<stop offset="0.291667" stop-color="#FFA0A0"/>
<stop offset="1" stop-color="#FEDFC3" stop-opacity="0.14"/>
</linearGradient>
<linearGradient id="paint5_linear_15949_48625" x1="10.4655" y1="62.3689" x2="27.7715" y2="72.5555" gradientUnits="userSpaceOnUse">
<stop stop-color="#F35F84"/>
<stop offset="1" stop-color="#FD3C6E"/>
</linearGradient>
</defs>
</svg>
