<svg width="186" height="45" viewBox="0 0 186 45" fill="none" xmlns="http://www.w3.org/2000/svg">
<path d="M22.5996 44.9999L28.9221 9.44202C34.9485 9.44202 36.8494 10.1029 37.1239 12.8002C37.1239 12.8002 41.1666 11.2928 43.2055 8.23139C35.2488 4.54442 27.2542 4.37814 27.2542 4.37814L22.5891 10.0601L22.5996 10.0594L17.9346 4.37725C17.9346 4.37725 9.93977 4.54371 1.98413 8.23068C4.02134 11.2921 8.06563 12.7995 8.06563 12.7995C8.34169 10.102 10.2402 9.44113 16.2262 9.43685L22.5996 44.9999Z" fill="#618298"/>
<path d="M22.5966 2.73743C29.0285 2.68824 36.3905 3.73242 43.9269 7.01715C44.9342 5.20414 45.1932 4.40287 45.1932 4.40287C36.9547 1.14345 29.2395 0.0279802 22.5957 0C15.9523 0.0279802 8.2374 1.14362 0 4.40287C0 4.40287 0.367485 5.38984 1.26535 7.01715C8.80039 3.73242 16.1636 2.68824 22.5957 2.73743H22.5966Z" fill="#618298"/>
<path d="M145.385 14.0838L142.104 14.0923V30.9247H157.148C158.794 30.2265 159.675 29.0195 160.016 27.6102H145.376L145.385 14.0838ZM169.934 17.4473H182.483C184.227 17.1024 185.525 15.5633 185.889 14.0753H166.526C166.888 15.5633 168.205 17.1024 169.934 17.4473ZM129.293 17.4005C131.037 16.8938 132.505 15.5633 132.863 14.088H114.449V24.0338H129.521V27.525L117.7 27.5357C115.845 28.0508 114.279 29.2941 113.493 30.9375L114.449 30.9205H132.761V20.7278H117.7V17.4005H129.293ZM167.032 30.9205H170.296V24.1445H182.177V30.9205H185.438V20.7576L167.032 20.7405V30.9205ZM89.0864 17.4366H101.634C103.379 17.0897 104.676 15.5505 105.04 14.0625H85.6782C86.0401 15.5505 87.3557 17.0897 89.0864 17.4366ZM56.4434 14.1008C56.8202 15.5739 58.0953 17.0748 59.8431 17.4537H65.1246L65.3928 17.5601V30.8864H68.6925V17.5601L68.9905 17.4537H74.2784C76.0432 16.9981 77.2907 15.5739 77.6632 14.1008V14.0689H56.4434V14.1008ZM89.0864 30.9226H101.634C103.379 30.5735 104.676 29.0386 105.04 27.5484H85.6782C86.0401 29.0386 87.3557 30.5735 89.0864 30.9226ZM89.0864 24.0891H101.634C103.379 23.7443 104.676 22.2052 105.04 20.7171H85.6782C86.0401 22.2052 87.3557 23.7443 89.0864 24.0891Z" fill="#618298"/>
</svg>
