<svg width="155" height="45" viewBox="0 0 155 45" fill="none" xmlns="http://www.w3.org/2000/svg">
<path d="M29.5134 16.244C32.419 18.32 35.9785 19.5414 39.8229 19.5414V12.1474C39.0954 12.1476 38.3697 12.0718 37.6579 11.921V17.7412C33.8138 17.7412 30.2547 16.5197 27.3484 14.4439V29.5329C27.3484 37.0812 21.2262 43.1999 13.6745 43.1999C10.8568 43.1999 8.23782 42.3485 6.06226 40.8883C8.5453 43.4258 12.0081 45 15.8391 45C23.3912 45 29.5138 38.8813 29.5138 31.3327V16.244H29.5134ZM32.1843 8.78439C30.6994 7.16295 29.7244 5.06754 29.5134 2.75098V1.79995H27.4617C27.9782 4.74431 29.7397 7.25978 32.1843 8.78439ZM10.8387 35.0959C10.0091 34.0087 9.56073 32.6787 9.56274 31.3111C9.56274 27.8588 12.363 25.0596 15.8178 25.0596C16.4616 25.0595 17.1016 25.158 17.7152 25.3526V17.7934C16.9981 17.6951 16.2744 17.6534 15.5511 17.6687V23.5525C14.937 23.3579 14.2967 23.2591 13.6527 23.2597C10.1979 23.2597 7.39783 26.0585 7.39783 29.5113C7.39783 31.9527 8.7975 34.0663 10.8387 35.0959Z" fill="#829DB0"/>
<path d="M27.3484 14.4438C30.2548 16.5196 33.8138 17.741 37.6579 17.741V11.9209C35.5121 11.464 33.6125 10.3433 32.1843 8.78439C29.7396 7.25963 27.9782 4.74415 27.4618 1.79995H22.0725V31.3324C22.0603 34.7753 19.2648 37.5631 15.8175 37.5631C13.786 37.5631 11.9812 36.5952 10.8383 35.0959C8.79721 34.0663 7.39754 31.9525 7.39754 29.5115C7.39754 26.059 10.1976 23.2598 13.6524 23.2598C14.3143 23.2598 14.9523 23.3628 15.5508 23.5526V17.6689C8.13173 17.8221 2.16504 23.881 2.16504 31.3326C2.16504 35.0524 3.65088 38.4245 6.06243 40.8884C8.23799 42.3485 10.8569 43.2 13.6747 43.2C21.2265 43.2 27.3486 37.0811 27.3486 29.5329V14.4438H27.3484Z" fill="#618298"/>
<path d="M37.6577 11.9209V10.3472C35.7228 10.3501 33.8258 9.80848 32.1842 8.78425C33.6374 10.3745 35.5511 11.471 37.6577 11.9209ZM27.4616 1.79997C27.4124 1.51858 27.3745 1.23535 27.3483 0.951026V0H19.9072V29.5328C19.8953 32.9752 17.0999 35.763 13.6523 35.763C12.6401 35.763 11.6844 35.5228 10.8381 35.0961C11.9811 36.5952 13.7859 37.5629 15.8173 37.5629C19.2644 37.5629 22.0603 34.7755 22.0724 31.3326V1.79997H27.4616ZM15.5509 17.6689V15.9936C14.9292 15.9086 14.3023 15.866 13.6747 15.8663C6.12221 15.8661 0 21.9851 0 29.5328C0 34.2648 2.40614 38.435 6.06245 40.8881C3.6509 38.4244 2.16506 35.0521 2.16506 31.3324C2.16506 23.881 8.1316 17.8221 15.5509 17.6689Z" fill="#48687F"/>
<path d="M123.878 37.0123C129.282 37.0123 133.662 32.6671 133.662 27.3075C133.662 21.948 129.282 17.602 123.878 17.602H122.404C127.808 17.602 132.188 21.9479 132.188 27.3075C132.188 32.6671 127.808 37.0123 122.404 37.0123H123.878Z" fill="#829DB0"/>
<path d="M122.271 17.602H120.797C115.393 17.602 111.012 21.9479 111.012 27.3075C111.012 32.6671 115.393 37.0123 120.797 37.0123H122.271C116.867 37.0123 112.486 32.6671 112.486 27.3075C112.486 21.948 116.867 17.602 122.271 17.602Z" fill="#48687F"/>
<path d="M47.885 13.2148V18.1341H53.6472V36.8788H59.4118V18.2669H64.1023L65.7107 13.215H47.885V13.2148ZM95.0629 13.2148V18.1341H100.825V36.8788H106.59V18.2669H111.28L112.888 13.215H95.0629V13.2148ZM66.7838 16.0064C66.7838 14.465 68.0419 13.2148 69.5962 13.2148C71.1518 13.2148 72.4112 14.465 72.4112 16.0064C72.4112 17.548 71.1526 18.7982 69.5962 18.7982C68.0419 18.7974 66.7838 17.548 66.7838 16.0064ZM66.7838 20.7929H72.4112V36.8788H66.7838V20.7929ZM74.8242 13.2148V36.8787H80.4537V30.7639L82.1962 29.1671L87.6907 37.0115H93.7215L85.8132 25.5785L92.9168 18.6646H86.0817L80.4537 24.248V13.2148H74.8242ZM135.538 13.2148V36.8787H141.168V30.7639L142.91 29.1671L148.406 37.0115H154.437L146.529 25.5785L153.632 18.6646H146.798L141.168 24.248V13.2148H135.538Z" fill="#618298"/>
<path d="M122.404 37.0123C127.807 37.0123 132.188 32.6671 132.188 27.3075C132.188 21.948 127.807 17.602 122.404 17.602H122.27C116.866 17.602 112.486 21.9479 112.486 27.3075C112.486 32.6671 116.866 37.0123 122.27 37.0123H122.404ZM117.579 27.3075C117.579 24.7004 119.71 22.5886 122.338 22.5886C124.964 22.5886 127.095 24.7004 127.095 27.3075C127.095 29.9145 124.964 32.0276 122.338 32.0276C119.71 32.0271 117.579 29.9145 117.579 27.3075Z" fill="#618298"/>
</svg>
