<?xml version="1.0" encoding="UTF-8"?>
<svg width="183px" height="45px" viewBox="0 0 183 45" version="1.1" xmlns="http://www.w3.org/2000/svg" xmlns:xlink="http://www.w3.org/1999/xlink">
    <title>54169339-9CCA-43D5-A31A-92BE97A34D61</title>
    <g id="Landing-Page" stroke="none" stroke-width="1" fill="none" fill-rule="evenodd">
        <g id="[Web]-Lumin-Landing-Page" transform="translate(-860.000000, -796.000000)" fill-rule="nonzero">
            <g id="Group-42" transform="translate(393.000000, 796.000000)">
                <g id="trustpilot-logo" transform="translate(467.000000, 0.000000)">
                    <path d="M47.94,15.87 L66.39,15.87 L66.39,19.3 L59.13,19.3 L59.13,38.67 L55.13,38.67 L55.13,19.3 L47.91,19.3 L47.94,15.87 Z M65.6,22.16 L69.01,22.16 L69.01,25.39 L69.07,25.39 C69.1989016,24.9199785 69.4161011,24.4787921 69.71,24.09 C70.0197209,23.6466041 70.397741,23.2550833 70.83,22.93 C71.2649307,22.5659047 71.7586432,22.2784693 72.29,22.08 C72.8003846,21.8672705 73.3470813,21.7552147 73.9,21.75 C74.33,21.75 74.63,21.75 74.78,21.75 C74.9412905,21.7841348 75.1052387,21.8042101 75.27,21.81 L75.27,25.3 C75.0095058,25.2431362 74.7456299,25.2030538 74.48,25.18 C74.2180106,25.1451018 73.9542549,25.1250697 73.69,25.12 C73.0931797,25.1149944 72.502562,25.2413114 71.96,25.49 C71.413074,25.7371054 70.9254577,26.0985552 70.53,26.55 C70.0965884,27.0738668 69.7581547,27.6695101 69.53,28.31 C69.2770643,29.0981017 69.1554418,29.9224319 69.17,30.75 L69.17,38.59 L65.52,38.59 L65.6,22.16 Z M91.99,38.67 L88.4,38.67 L88.4,36.39 L88.34,36.39 C87.8761109,37.2325585 87.1825585,37.9261109 86.34,38.39 C85.5195401,38.8779914 84.5845648,39.1401985 83.63,39.15 C81.47,39.15 79.89,38.63 78.92,37.53 C77.8425951,36.1496329 77.3216682,34.4155884 77.46,32.67 L77.46,22.16 L81.11,22.16 L81.11,32.29 C80.9919189,33.3842479 81.2959414,34.4823055 81.96,35.36 C82.5694577,35.9908354 83.4244735,36.3233415 84.3,36.27 C84.9564629,36.292795 85.6095366,36.1662833 86.21,35.9 C86.6984234,35.6956137 87.1280845,35.3725086 87.46,34.96 C87.7985924,34.5424799 88.0379447,34.0535173 88.16,33.53 C88.3089939,32.9452721 88.3796122,32.3433353 88.37,31.74 L88.37,22.16 L92.02,22.16 L92.02,38.67 L91.99,38.67 Z M98.2,33.39 C98.2327541,34.2894293 98.684101,35.1218315 99.42,35.64 C100.183928,36.0840463 101.056767,36.3057198 101.94,36.28 C102.328266,36.2764674 102.715836,36.2463973 103.1,36.19 C103.515395,36.1413158 103.922368,36.03705 104.31,35.88 C104.701317,35.7585001 105.048792,35.525692 105.31,35.21 C105.561785,34.8939539 105.680196,34.4920761 105.64,34.09 C105.630803,33.6488927 105.443182,33.2303554 105.12,32.93 C104.756862,32.6255333 104.348671,32.3792693 103.91,32.2 C103.353232,32.0035981 102.781323,31.8530957 102.2,31.75 C101.57,31.63 100.93,31.47 100.26,31.32 C99.59,31.17 98.92,30.99 98.26,30.78 C97.6474825,30.5806485 97.0728155,30.2797934 96.56,29.89 C96.0565822,29.5299149 95.6482002,29.0528973 95.37,28.5 C95.0504107,27.8473721 94.8958904,27.1262777 94.92,26.4 C94.8840827,25.5960112 95.1201131,24.8033716 95.59,24.15 C96.0227815,23.5375801 96.5952562,23.0370932 97.26,22.69 C97.9624311,22.306921 98.7222682,22.0401338 99.51,21.9 C100.282063,21.7595169 101.06526,21.6892299 101.85,21.6898598 C102.667712,21.6857908 103.483156,21.7763956 104.28,21.96 C105.028046,22.1220577 105.739895,22.420356 106.38,22.84 C107.013165,23.2381464 107.544063,23.7793198 107.93,24.42 C108.370234,25.1286544 108.640612,25.9295214 108.72,26.76 L104.92,26.76 C104.831041,26.0155062 104.387765,25.3599034 103.73,25 C103.057543,24.6854507 102.322293,24.5281415 101.58,24.54 C101.33,24.54 101,24.54 100.66,24.6 C100.319723,24.6525794 99.9849874,24.7362634 99.66,24.85 C99.3654926,24.9660088 99.0969629,25.1393634 98.87,25.36 C98.6472577,25.601737 98.5287001,25.9214833 98.54,26.25 C98.5227885,26.6530581 98.6880839,27.0424206 98.99,27.31 C99.3545353,27.6100965 99.7669567,27.8467317 100.21,28.01 C100.764028,28.2067126 101.332373,28.3604999 101.91,28.47 C102.55,28.59 103.22,28.74 103.91,28.89 C104.6,29.04 105.21,29.23 105.85,29.44 C106.469495,29.6251119 107.049295,29.9234887 107.56,30.32 C108.056433,30.6851353 108.469,31.1522565 108.77,31.69 C109.090815,32.3067388 109.249132,32.9950736 109.23,33.69 C109.256899,34.5710331 109.023883,35.4404964 108.56,36.19 C108.104969,36.860266 107.515904,37.4289018 106.83,37.86 C106.089816,38.2940431 105.287012,38.6111168 104.45,38.8 C103.602649,38.990044 102.738251,39.0939058 101.87,39.1101658 C100.894522,39.1153565 99.9226658,38.990932 98.98,38.74 C98.1549014,38.5217762 97.3735022,38.1632121 96.67,37.68 C96.0320508,37.2044504 95.5119865,36.5885847 95.15,35.88 C94.7586256,35.0862783 94.5501805,34.2149093 94.54,33.33 L98.2,33.33 L98.2,33.33 L98.2,33.39 Z M110.2,22.17 L112.97,22.17 L112.97,17.17 L116.62,17.17 L116.62,22.17 L119.9,22.17 L119.9,24.88 L116.62,24.88 L116.62,33.69 C116.622655,34.024148 116.642682,34.3579319 116.68,34.69 C116.710849,34.9333322 116.78181,35.1698699 116.89,35.39 C117.017926,35.5783976 117.198905,35.7245736 117.41,35.81 C117.730912,35.9225298 118.070195,35.9734221 118.41,35.96 C118.663112,35.9749613 118.916888,35.9749613 119.17,35.96 C119.425434,35.9346792 119.679191,35.8946123 119.93,35.84 L119.93,38.67 C119.53,38.73 119.14,38.76 118.74,38.79 C118.348827,38.8406714 117.954295,38.8607324 117.56,38.85 C116.780884,38.8747509 116.002407,38.7837601 115.25,38.58 C114.736052,38.4316004 114.265885,38.1604823 113.88,37.79 C113.524659,37.397597 113.288745,36.9118927 113.2,36.39 C113.077606,35.7905309 113.007343,35.1815904 112.99,34.57 L112.99,24.84 L110.2,24.84 L110.2,22.13 L110.2,22.17 Z M122.45,22.17 L125.89,22.17 L125.89,24.39 L125.95,24.39 C126.407828,23.4806999 127.157993,22.7516669 128.08,22.32 C129.021172,21.8909302 130.045736,21.6757717 131.08,21.69 C132.252674,21.6519787 133.417716,21.8918402 134.48,22.39 C135.420796,22.8124771 136.244535,23.4577395 136.88,24.27 C137.543205,25.0956727 138.029912,26.0486639 138.31,27.07 C138.942387,29.2285725 138.963158,31.5203199 138.37,33.69 C138.097955,34.6807685 137.658268,35.6176393 137.07,36.46 C136.484255,37.2592209 135.725318,37.9155984 134.85,38.38 C133.86963,38.8808296 132.780677,39.131598 131.68,39.11 C131.14951,39.1057997 130.620562,39.0522354 130.1,38.95 C129.577929,38.8580386 129.067993,38.7070708 128.58,38.5 C128.099776,38.2915961 127.651891,38.0154566 127.25,37.68 C126.85599,37.3500973 126.518249,36.9583177 126.25,36.52 L126.19,36.52 L126.19,44.76 L122.54,44.76 L122.54,22.16 L122.45,22.17 Z M135.2,30.39 C135.205625,29.6592387 135.10456,28.9315689 134.9,28.23 C134.719771,27.5656287 134.421708,26.9390188 134.02,26.38 C133.632067,25.8553869 133.146519,25.4105844 132.59,25.07 C131.977518,24.7349292 131.288004,24.5659983 130.59,24.58 C129.238744,24.4883687 127.932898,25.0867247 127.12,26.17 C126.301051,27.4312775 125.8988,28.9178587 125.97,30.42 C125.956762,31.2005127 126.057833,31.9787607 126.27,32.73 C126.45379,33.3943916 126.766382,34.016178 127.19,34.56 C127.578892,35.0646517 128.073889,35.4777185 128.64,35.77 C129.256585,36.0912323 129.94503,36.2495746 130.64,36.23 C131.374476,36.2528503 132.101052,36.072936 132.74,35.71 C133.300165,35.3742805 133.786594,34.92867 134.17,34.4 C134.548803,33.8393018 134.816947,33.2113694 134.96,32.55 C135.113863,31.8401358 135.194287,31.1163253 135.2,30.39 L135.2,30.39 Z M141.62,15.83 L145.26,15.83 L145.26,19.26 L141.62,19.26 L141.62,15.83 Z M141.62,22.12 L145.26,22.12 L145.26,38.63 L141.62,38.63 L141.62,22.12 Z M148.52,15.83 L152.2,15.83 L152.2,38.63 L148.56,38.63 L148.52,15.83 Z M163.29,39.09 C162.082987,39.1121643 160.884469,38.8840375 159.77,38.42 C158.785056,38.0012934 157.894138,37.3892127 157.15,36.62 C156.42697,35.8221688 155.87859,34.882088 155.54,33.86 C155.153254,32.7337359 154.957227,31.550813 154.96,30.36 C154.941649,29.1810174 155.138189,28.0085508 155.54,26.9 C155.884393,25.8775492 156.43204,24.9353234 157.15,24.13 C157.881155,23.3455778 158.775516,22.7311314 159.77,22.33 C160.889349,21.8835326 162.084943,21.6593589 163.29,21.67 C164.499477,21.6455902 165.701046,21.8702461 166.82,22.33 C168.8386,23.1466233 170.386461,24.8228608 171.04,26.9 C171.427495,28.0122639 171.623608,29.1821755 171.62,30.36 C171.640094,31.5521548 171.443574,32.7380531 171.04,33.86 C170.682634,34.8735049 170.136316,35.8100491 169.43,36.62 C168.700678,37.4020007 167.81013,38.0161718 166.82,38.42 C165.698092,38.886896 164.495182,39.1281577 163.28,39.13 L163.29,39.09 Z M163.29,36.2 C164.02361,36.2149042 164.74811,36.0355041 165.39,35.68 C165.973071,35.3513211 166.47264,34.892812 166.85,34.34 C167.242441,33.7795594 167.530399,33.1528269 167.7,32.49 C168.059945,31.1029717 168.059945,29.6470283 167.7,28.26 C167.534266,27.5958094 167.245994,26.9683955 166.85,26.41 C166.461111,25.8753048 165.963563,25.4288754 165.39,25.1 C164.74496,24.7525864 164.022621,24.5737215 163.29,24.58 C162.556968,24.5701895 161.833756,24.7492706 161.19,25.1 C160.619021,25.4324376 160.122152,25.8782586 159.73,26.41 C159.33794,26.970659 159.050014,27.5973198 158.88,28.26 C158.520055,29.6470283 158.520055,31.1029717 158.88,32.49 C159.047914,33.1534232 159.336008,33.7804503 159.73,34.34 C160.117716,34.8837524 160.61507,35.3402276 161.19,35.68 C161.821992,36.0551243 162.545117,36.2488802 163.28,36.24 L163.29,36.2 Z M172.72,22.12 L175.48,22.12 L175.48,17.12 L179.13,17.12 L179.13,22.12 L182.41,22.12 L182.41,24.83 L179.13,24.83 L179.13,33.64 C179.132655,33.974148 179.152682,34.3079319 179.19,34.64 C179.220849,34.8833322 179.29181,35.1198699 179.4,35.34 C179.53236,35.524262 179.712015,35.6693684 179.92,35.76 C180.241141,35.8716074 180.580247,35.9224734 180.92,35.91 C181.43079,35.9196315 181.940945,35.8692872 182.44,35.76 L182.44,38.59 C182.05,38.65 181.65,38.68 181.26,38.71 C180.865475,38.7606666 180.467621,38.7807265 180.07,38.77 C179.290959,38.7930036 178.512737,38.7020426 177.76,38.5 C177.247135,38.3490623 176.77754,38.0782734 176.39,37.71 C176.059856,37.3381362 175.832374,36.8866185 175.73,36.4 C175.599077,35.8016895 175.525411,35.1922735 175.51,34.58 L175.51,24.85 L172.75,24.85 L172.75,22.14 L172.72,22.12 Z" id="Shape" fill="#000000"></path>
                    <polygon id="Path" fill="#00B67A" points="43.68 15.87 26.99 15.87 21.85 -1.16529009e-12 16.69 15.87 1.49213975e-13 15.87 13.49 25.69 8.33 41.56 21.82 31.74 35.32 41.56 30.2 25.66"></polygon>
                    <polygon id="Path" fill="#005128" points="31.34 29.25 30.2 25.66 21.87 31.66"></polygon>
                </g>
            </g>
        </g>
    </g>
</svg>