<svg width="116" height="40" viewBox="0 0 116 40" fill="none" xmlns="http://www.w3.org/2000/svg">
<path d="M6.62919 28.5675C7.11611 29.8597 7.79024 30.9645 8.65171 31.8821C9.51317 32.7997 10.5338 33.502 11.7135 33.9889C12.8933 34.4758 14.176 34.7192 15.5618 34.7192C16.9102 34.7192 18.1742 34.4664 19.354 33.9607C20.5338 33.455 21.5638 32.7434 22.4439 31.8259C23.324 30.9082 24.0076 29.8128 24.4945 28.5394C24.9814 27.266 25.2248 25.8429 25.2248 24.2697V0H31.1237V39.3259H25.281V35.6741C23.9701 37.0598 22.4251 38.1273 20.6461 38.8765C18.867 39.6255 16.9476 40 14.8877 40C12.7902 40 10.8333 39.6348 9.0168 38.9045C7.20039 38.1741 5.62725 37.1349 4.29776 35.7865C2.96827 34.4381 1.91947 32.8185 1.15173 30.927C0.383868 29.0356 0 26.929 0 24.6067V0H5.89887V24.2697C5.89887 25.8429 6.14227 27.2753 6.62919 28.5675Z" fill="#618298"/>
<path d="M41.2913 0V14.3258C42.6021 13.015 44.1191 11.9757 45.8419 11.2079C47.5647 10.44 49.4374 10.0562 51.4598 10.0562C53.5573 10.0562 55.5234 10.4493 57.3587 11.2359C59.1939 12.0224 60.7855 13.0898 62.1339 14.4382C63.4823 15.7866 64.5498 17.3782 65.3363 19.2134C66.1228 21.0487 66.516 22.9963 66.516 25.0562C66.516 27.116 66.1228 29.0543 65.3363 30.8707C64.5498 32.6872 63.4823 34.2697 62.1339 35.6178C60.7855 36.9662 59.1939 38.0337 57.3587 38.8202C55.5234 39.6067 53.5572 39.9999 51.4598 39.9999C49.4373 39.9999 47.5554 39.616 45.8138 38.8481C44.0722 38.0804 42.546 37.0411 41.2351 35.7302V39.3257H35.6172V0H41.2913ZM41.9373 28.9326C42.4429 30.1312 43.1453 31.1799 44.0441 32.0787C44.943 32.9776 45.9917 33.6893 47.1902 34.2136C48.3888 34.738 49.6808 35.0001 51.0666 35.0001C52.415 35.0001 53.6883 34.738 54.8868 34.2136C56.0853 33.6893 57.1245 32.9777 58.0049 32.0787C58.885 31.18 59.5872 30.1312 60.1115 28.9326C60.6359 27.7341 60.8981 26.442 60.8981 25.0562C60.8981 23.6704 60.6359 22.3689 60.1115 21.1517C59.5872 19.9344 58.885 18.8764 58.0049 17.9775C57.1246 17.0788 56.0854 16.3764 54.8868 15.8709C53.6882 15.3653 52.4149 15.1123 51.0666 15.1123C49.7184 15.1123 48.445 15.3652 47.2465 15.8709C46.048 16.3766 44.9993 17.0788 44.1003 17.9775C43.2016 18.8764 42.4899 19.9344 41.9656 21.1517C41.4412 22.3689 41.1791 23.6704 41.1791 25.0562C41.1789 26.442 41.4318 27.7341 41.9373 28.9326Z" fill="#618298"/>
<path d="M69.7181 19.2702C70.4671 17.4725 71.4972 15.8901 72.808 14.5231C74.1187 13.1561 75.6732 12.0793 77.4709 11.2928C79.2687 10.5063 81.2163 10.1131 83.3136 10.1131C85.3736 10.1131 87.2837 10.4876 89.044 11.2366C90.8043 11.9857 92.3211 13.0251 93.5945 14.3547C94.868 15.6842 95.8606 17.2573 96.572 19.0737C97.2837 20.8903 97.6394 22.8659 97.6394 25.0008V26.8548H74.3249C74.5122 28.0158 74.8868 29.0926 75.4485 30.0849C76.0104 31.0774 76.7125 31.9389 77.5552 32.6692C78.3979 33.3997 79.353 33.9709 80.4204 34.3827C81.4879 34.7947 82.6207 35.0008 83.8193 35.0008C87.2276 35.0008 89.9805 33.5962 92.0778 30.7872L96.1789 33.8208C94.7557 35.731 92.9955 37.2291 90.8981 38.3152C88.8006 39.4013 86.4411 39.9444 83.8194 39.9444C81.6845 39.9444 79.6902 39.5698 77.8363 38.8208C75.9823 38.0718 74.3719 37.023 73.0049 35.6747C71.6378 34.3263 70.5611 32.7439 69.7746 30.9275C68.988 29.1111 68.5947 27.1353 68.5947 25.0006C68.5945 22.9782 68.9691 21.068 69.7181 19.2702ZM77.6114 17.0511C76.0196 18.3807 74.9616 20.1504 74.4373 22.3601H91.9093C91.4223 20.1504 90.383 18.3807 88.7912 17.0511C87.1994 15.7216 85.3361 15.0568 83.2014 15.0568C81.0665 15.0568 79.2032 15.7216 77.6114 17.0511Z" fill="#618298"/>
<path d="M108.257 17.6965C107.059 19.0073 106.459 20.7863 106.459 23.0336V39.3259H100.785V10.6741H106.403V14.2134C107.115 13.0524 108.042 12.1347 109.184 11.4606C110.326 10.7863 111.684 10.4492 113.257 10.4492H115.223V15.7301H112.864C110.991 15.7303 109.456 16.3856 108.257 17.6965Z" fill="#618298"/>
</svg>
