<svg width="171" height="109" viewBox="0 0 171 109" fill="none" xmlns="http://www.w3.org/2000/svg">
<path d="M106.441 46.6274H91.8093C89.2618 46.6274 87.1967 44.5622 87.1967 42.0148V4.62106C87.1967 0.0462863 81.2544 -1.73793 78.7345 2.08022L44.1082 54.5443C42.0842 57.6111 44.2834 61.6977 47.9578 61.6977H62.5894C65.1368 61.6977 67.202 63.7628 67.202 66.3103V103.704C67.202 108.279 73.1443 110.063 75.6642 106.245L110.29 53.781C112.314 50.714 110.115 46.6274 106.441 46.6274Z" fill="url(#paint0_linear_1941_21320)"/>
<path d="M110.291 53.7792L75.6644 106.244C74.3352 108.259 72.0515 108.714 70.1909 108.022L84.713 63.1277C85.9398 59.3353 83.112 55.4487 79.126 55.4487H75.1837C71.2235 55.4487 68.399 51.6087 69.5783 47.8281L84.3818 0.374229C85.9624 1.03151 87.1972 2.53786 87.1972 4.62146V42.0149C87.1972 44.5615 89.261 46.628 91.8104 46.628H106.441C110.114 46.628 112.315 50.7125 110.291 53.7792Z" fill="url(#paint1_linear_1941_21320)"/>
<path d="M67.2018 77.0502V103.704C67.2018 108.279 73.1442 110.063 75.664 106.245L94.9328 77.0502H67.2018Z" fill="url(#paint2_linear_1941_21320)"/>
<path d="M127.024 29.2038L129.048 35.0366C129.134 35.2865 129.306 35.4843 129.522 35.5844L134.577 37.9192C135.292 38.2491 135.292 39.4155 134.577 39.7454L129.522 42.0802C129.306 42.1802 129.134 42.378 129.048 42.6279L127.024 48.4608C126.738 49.285 125.727 49.285 125.441 48.4608L123.418 42.6279C123.331 42.378 123.16 42.1802 122.943 42.0802L117.888 39.7454C117.174 39.4155 117.174 38.2491 117.888 37.9192L122.943 35.5844C123.16 35.4843 123.331 35.2865 123.418 35.0366L125.441 29.2038C125.727 28.3799 126.738 28.3799 127.024 29.2038Z" fill="#FAAFBD"/>
<rect x="6.0181" y="37.613" width="37.613" height="37.613" rx="3.41688" transform="rotate(-90 6.0181 37.613)" fill="#F4FCFF"/>
<path fill-rule="evenodd" clip-rule="evenodd" d="M17.3475 16.7273L17.3478 16.727L17.3502 16.7235L17.3665 16.7011C17.382 16.6802 17.4064 16.6474 17.4397 16.6046C17.5061 16.5188 17.6073 16.3931 17.7408 16.2406C18.0085 15.9349 18.4022 15.5261 18.9021 15.1183C19.9099 14.296 21.2963 13.5196 22.9241 13.5196C24.7288 13.5196 25.9872 14.2192 26.7957 15.2186C27.2894 15.8288 27.6313 16.5713 27.818 17.3742C27.0637 17.1904 26.2481 17.0799 25.3772 17.0799C21.4735 17.0799 19.2512 19.1055 18.8709 21.4326C18.6853 22.5686 18.9619 23.7265 19.6781 24.6031C20.4 25.4865 21.5215 26.0286 22.9241 26.0286C26.9352 26.0286 29.1209 22.7181 29.3463 19.4347C29.8982 19.6948 30.3936 19.9881 30.8274 20.283C31.4788 20.7259 31.9848 21.1684 32.3259 21.498C32.4962 21.6625 32.6247 21.7982 32.7089 21.8907C32.751 21.9369 32.7819 21.9722 32.8015 21.9949L32.8221 22.0192L32.8254 22.0231L32.8257 22.0235C32.8258 22.0237 32.826 22.0238 32.8261 22.024C33.0738 22.3261 33.5088 22.3615 33.7981 22.1028C34.0878 21.8438 34.1219 21.3883 33.8743 21.0853L33.3499 21.5542C33.8743 21.0853 33.8742 21.0851 33.874 21.0849L33.8735 21.0843L33.8724 21.0829L33.8693 21.0792L33.8597 21.0677C33.8518 21.0583 33.8409 21.0454 33.827 21.0292C33.7992 20.9969 33.7595 20.9517 33.7081 20.8953C33.6055 20.7825 33.4561 20.625 33.2622 20.4377C32.875 20.0637 32.3078 19.5681 31.5794 19.0728C30.9438 18.6407 30.1807 18.2057 29.3038 17.8528C29.1435 16.5557 28.6694 15.3003 27.8491 14.2863C26.7603 12.9404 25.1057 12.0763 22.9241 12.0763C20.8721 12.0763 19.1921 13.0512 18.0534 13.9802C17.4801 14.4479 17.0305 14.9148 16.7232 15.2658C16.5692 15.4417 16.45 15.5896 16.368 15.6954C16.3269 15.7483 16.2951 15.7908 16.2728 15.8211C16.2616 15.8363 16.2529 15.8484 16.2465 15.8573L16.2388 15.8682L16.2362 15.8717L16.2353 15.873L16.235 15.8735C16.2348 15.8738 16.2346 15.874 16.7912 16.3005L16.2346 15.874C16.0095 16.1955 16.0761 16.6471 16.3835 16.8826C16.6907 17.1181 17.1223 17.0485 17.3475 16.7273ZM27.9858 18.9109C27.1945 18.6727 26.3216 18.5232 25.3772 18.5232C21.9215 18.5232 20.4641 20.2502 20.2311 21.6758C20.1101 22.4161 20.2935 23.1346 20.7271 23.6653C21.1551 24.1891 21.8734 24.5852 22.9241 24.5852C26.124 24.5852 27.9138 21.8905 27.9839 19.0339C27.9849 18.9929 27.9855 18.9519 27.9858 18.9109Z" fill="#035970"/>
<rect x="121.866" y="106.821" width="48.1446" height="48.1446" rx="4.3736" transform="rotate(-90 121.866 106.821)" fill="#F4FCFF"/>
<path fill-rule="evenodd" clip-rule="evenodd" d="M140.37 73.1361C139.898 73.1361 139.515 73.5062 139.515 73.9629V76.1362C139.515 76.5928 139.898 76.963 140.37 76.963C140.843 76.963 141.226 76.5928 141.226 76.1362V74.7897H147.446V89.7193H145.251C144.81 89.7193 144.452 90.1635 144.452 90.7115C144.452 91.2594 144.81 91.7036 145.251 91.7036H148.444H151.638C152.079 91.7036 152.436 91.2594 152.436 90.7115C152.436 90.1635 152.079 89.7193 151.638 89.7193H149.442V74.7897H155.663V76.1362C155.663 76.5928 156.046 76.963 156.518 76.963C156.991 76.963 157.374 76.5928 157.374 76.1362V73.9629C157.374 73.5062 156.991 73.1361 156.518 73.1361H148.444H140.37ZM138.322 78.8764C138.682 78.8764 138.973 79.1646 138.973 79.5201V82.0948H141.579C141.939 82.0948 142.231 82.383 142.231 82.7385C142.231 83.094 141.939 83.3822 141.579 83.3822H138.973V85.9569C138.973 86.3124 138.682 86.6006 138.322 86.6006C137.962 86.6006 137.67 86.3124 137.67 85.9569V83.3822H135.064C134.704 83.3822 134.412 83.094 134.412 82.7385C134.412 82.383 134.704 82.0948 135.064 82.0948H137.67V79.5201C137.67 79.1646 137.962 78.8764 138.322 78.8764Z" fill="#035970"/>
<path d="M169.485 107.8C167.884 109.4 165.289 109.4 163.688 107.8C162.088 106.199 162.088 103.604 163.688 102.003C165.289 100.403 167.884 100.403 169.485 102.003C171.085 103.604 171.085 106.199 169.485 107.8Z" fill="#FFA585"/>
<path d="M44.4746 83.5921C43.5933 84.4734 42.1643 84.4734 41.283 83.5921C40.4017 82.7108 40.4017 81.2817 41.283 80.4004C42.1643 79.5191 43.5933 79.5191 44.4746 80.4004C45.3559 81.2819 45.3559 82.7108 44.4746 83.5921Z" fill="#FAB1A5"/>
<path d="M6.69584 25.9889L8.0967 29.8775C8.15673 30.044 8.27543 30.176 8.42534 30.2427L11.9251 31.7992C12.4195 32.0191 12.4195 32.7967 11.9251 33.0168L8.42534 34.5733C8.27543 34.64 8.15673 34.772 8.0967 34.9383L6.69584 38.8269C6.49801 39.3762 5.79793 39.3762 5.60009 38.8269L4.19923 34.9383C4.1392 34.7718 4.0205 34.6398 3.87059 34.5733L0.370838 33.0168C-0.123572 32.7969 -0.123572 32.0193 0.370838 31.7992L3.87059 30.2427C4.0205 30.176 4.1392 30.044 4.19923 29.8775L5.60009 25.9889C5.79793 25.4394 6.49801 25.4394 6.69584 25.9889Z" fill="#8EDEF4"/>
<defs>
<linearGradient id="paint0_linear_1941_21320" x1="57.1349" y1="34.0981" x2="106.162" y2="83.1245" gradientUnits="userSpaceOnUse">
<stop stop-color="#FEE97D"/>
<stop offset="1" stop-color="#FAC600"/>
</linearGradient>
<linearGradient id="paint1_linear_1941_21320" x1="97.8029" y1="54.3493" x2="48.0565" y2="54.3493" gradientUnits="userSpaceOnUse">
<stop stop-color="#FAC600" stop-opacity="0"/>
<stop offset="0.6899" stop-color="#D68C3D" stop-opacity="0.69"/>
<stop offset="1" stop-color="#C5715A"/>
</linearGradient>
<linearGradient id="paint2_linear_1941_21320" x1="81.0674" y1="85.1956" x2="81.0674" y2="106.359" gradientUnits="userSpaceOnUse">
<stop stop-color="#FAC600" stop-opacity="0"/>
<stop offset="0.6899" stop-color="#D68C3D" stop-opacity="0.69"/>
<stop offset="1" stop-color="#C5715A"/>
</linearGradient>
</defs>
</svg>
