<svg width="122" height="76" viewBox="0 0 122 76" fill="none" xmlns="http://www.w3.org/2000/svg">
<path d="M27.912 59.4135L28.2065 59.9518C28.5 60.4889 28.9414 60.9305 29.4784 61.2243L30.0167 61.5183C30.5674 61.8203 30.5674 62.6111 30.0167 62.9121L29.4784 63.2066C28.9414 63.5003 28.5 63.9419 28.2065 64.479L27.912 65.0173C27.8436 65.1425 27.7429 65.2469 27.6203 65.3197C27.4976 65.3924 27.3577 65.4308 27.2151 65.4308C27.0725 65.4308 26.9325 65.3924 26.8099 65.3197C26.6873 65.2469 26.5865 65.1425 26.5182 65.0173L26.2237 64.479C25.93 63.9419 25.4884 63.5003 24.9512 63.2066L24.4134 62.9121C23.8622 62.6111 23.8622 61.8198 24.4134 61.5183L24.9512 61.2243C25.4885 60.9307 25.9303 60.489 26.2242 59.9518L26.5182 59.4135C26.5865 59.2884 26.6873 59.1839 26.8099 59.1112C26.9325 59.0384 27.0725 59 27.2151 59C27.3577 59 27.4976 59.0384 27.6203 59.1112C27.7429 59.1839 27.8436 59.2884 27.912 59.4135Z" fill="#77C2D7"/>
<g filter="url(#filter0_dd_5476_88006)">
<path d="M45.015 64.6622C54.7677 64.9724 63.3855 55.2774 63.3855 55.2774C66.0748 60.9946 79.5225 68.3169 86.9202 72C87.0855 71.9793 87.2546 71.9651 87.4276 71.9405C87.4276 71.9405 102.268 69.9943 113.472 68.7511C113.472 68.7511 79.7058 51.2325 79.423 0C79.423 0 28.2983 16.72 12 18.6649C11.9987 18.6662 18.4204 49.6817 45.015 64.6622Z" fill="#FCE0DB"/>
</g>
<path d="M45.0164 64.6611C45.1661 64.7438 45.3275 64.8317 45.4798 64.9208C45.4876 64.9183 45.4876 64.9183 45.4902 64.926C46.7089 65.3589 47.9806 65.7751 49.2962 66.177C49.3427 66.1951 49.3866 66.2041 49.4344 66.2222C49.4808 66.2403 49.526 66.2506 49.5828 66.2726C53.7129 67.5326 58.2691 68.6621 63.0538 69.5835C63.3262 69.6352 63.5883 69.6804 63.8594 69.7321C64.1589 69.7903 64.4546 69.842 64.7515 69.8937C71.9091 71.1769 79.5045 71.9627 86.9216 72.0001C84.1303 70.607 80.4611 68.6931 76.8384 66.5427C76.7248 66.4729 76.6021 66.398 76.4795 66.323C76.3581 66.2558 76.2355 66.1808 76.1219 66.1098C73.5785 64.5693 71.0854 62.9307 68.9759 61.2817C68.8648 61.1951 68.7564 61.115 68.6479 61.0348C68.5446 60.9457 68.4336 60.8578 68.3226 60.7712C66.3873 59.2049 64.8148 57.6361 63.8787 56.1551C63.8129 56.053 63.7458 55.9509 63.6903 55.854C63.6322 55.7493 63.5728 55.6446 63.5237 55.5464C63.4695 55.4572 63.4308 55.3629 63.3869 55.2776C63.3869 55.2776 63.2603 55.4185 63.0163 55.6795C62.8872 55.8126 62.7207 55.9819 62.5257 56.1693C62.3643 56.3295 62.1849 56.5117 61.9835 56.7004C59.1548 59.3794 52.4141 64.8937 45.0164 64.6611Z" fill="#FAB1A5"/>
<path d="M40.7571 22.3955C37.9104 23.1696 35.0726 23.9864 32.2026 24.6687C29.3274 25.3316 26.4548 26.0101 23.5409 26.5245L23.5215 26.4482C26.3244 25.4984 29.1686 24.7113 32.0089 23.9101C34.8544 23.1283 37.7348 22.4795 40.6022 21.7881C46.3358 20.3898 52.0746 19.0135 57.8185 17.6592L57.8379 17.7354C52.1495 19.3108 46.4559 20.8628 40.7571 22.3955Z" fill="white"/>
<path d="M34.444 29.153C37.2895 28.3712 40.1698 27.7224 43.0373 27.031C48.7709 25.6328 54.5096 24.2564 60.2536 22.9021L60.2729 22.9783C54.5845 24.5537 48.8909 26.107 43.1922 27.6384C40.3441 28.4125 37.5077 29.2293 34.6376 29.9116C31.7611 30.5746 28.8898 31.253 25.9759 31.7674L25.9565 31.6911C28.7594 30.7426 31.6023 29.9543 34.444 29.153Z" fill="white"/>
<path d="M44.3721 40.3974C47.9922 39.3622 51.6498 38.4589 55.2957 37.5142L77.1727 31.8604L77.1934 31.9366L55.4597 38.119C51.837 39.1464 48.2246 40.2165 44.5773 41.1534C40.9249 42.0709 37.2751 43.0027 33.5827 43.7716L33.562 43.6967C37.137 42.4935 40.7571 41.4519 44.3721 40.3974Z" fill="white"/>
<path d="M46.6614 45.9286C50.2828 44.8922 53.9391 43.9915 57.585 43.0455L79.462 37.3916L79.4827 37.4678L57.749 43.6503C54.1263 44.6777 50.5139 45.7477 46.8666 46.6846C43.2142 47.6022 39.5644 48.5339 35.872 49.3042L35.8513 49.2279C39.4263 48.0248 43.0451 46.9845 46.6614 45.9286Z" fill="white"/>
<path d="M49.8874 52.12C53.5089 51.0836 57.1651 50.1816 60.8111 49.2369L82.6881 43.583L82.7088 43.6593L60.9751 49.8417C57.3524 50.8691 53.7413 51.9391 50.0927 52.876C46.4403 53.7936 42.7905 54.7253 39.0981 55.4943L39.0774 55.4193C42.6523 54.2149 46.2725 53.1746 49.8874 52.12Z" fill="white"/>
<path d="M63.0152 55.6777C62.8861 55.8108 62.7195 55.9801 62.5246 56.1675C62.3632 56.3278 62.1838 56.51 61.9823 56.6987C59.6933 57.3487 57.3939 57.9936 55.0932 58.5816C51.5118 59.481 47.9395 60.3856 44.3168 61.1339L44.2922 61.0602C47.7988 59.8803 51.3414 58.862 54.8867 57.8256C57.5837 57.0592 60.2962 56.3691 63.0152 55.6777Z" fill="white"/>
<path d="M96.9841 60.7851L96.9958 60.8226L76.8371 66.5424C76.7235 66.4726 76.6009 66.3976 76.4782 66.3227C76.3569 66.2555 76.2342 66.1805 76.1206 66.1094L96.9803 60.7463L96.9841 60.7851Z" fill="white"/>
<path d="M91.43 54.8352L91.4352 54.8753L91.4468 54.9127L70.1482 60.9479C69.757 61.059 69.3658 61.1714 68.9733 61.2826C68.8623 61.196 68.7539 61.1159 68.6454 61.0357C68.5421 60.9466 68.4311 60.8587 68.3201 60.7721C68.8752 60.6312 69.4278 60.4839 69.9817 60.343L91.43 54.8352Z" fill="white"/>
<path d="M87.0327 49.5046L87.0572 49.5796L65.7534 55.6237C65.1285 55.8034 64.5024 55.9753 63.8775 56.1549C63.8117 56.0528 63.7445 55.9507 63.689 55.8538C63.6309 55.7491 63.5715 55.6444 63.5225 55.5462C64.2132 55.3692 64.9039 55.1934 65.5959 55.0164L87.0327 49.5046Z" fill="white"/>
<circle cx="91" cy="35" r="16" fill="#DA6668"/>
<path fill-rule="evenodd" clip-rule="evenodd" d="M82.25 27C82.25 26.5858 82.5858 26.25 83 26.25H99C99.4142 26.25 99.75 26.5858 99.75 27C99.75 27.4142 99.4142 27.75 99 27.75H83C82.5858 27.75 82.25 27.4142 82.25 27ZM90.5119 29.4306C90.7928 29.1898 91.2072 29.1898 91.4881 29.4306L98.4881 35.4306C98.8026 35.7001 98.839 36.1736 98.5694 36.4881C98.2999 36.8026 97.8264 36.839 97.5119 36.5694L91.75 31.6307V44C91.75 44.4142 91.4142 44.75 91 44.75C90.5858 44.75 90.25 44.4142 90.25 44V31.6307L84.4881 36.5694C84.1736 36.839 83.7001 36.8026 83.4306 36.4881C83.161 36.1736 83.1974 35.7001 83.5119 35.4306L90.5119 29.4306Z" fill="white"/>
<path d="M33.787 30.9654H25.9529C24.5889 30.9654 23.4832 29.8597 23.4832 28.4957V8.47423C23.4832 6.02478 20.3016 5.06947 18.9524 7.1138L0.412594 35.2043C-0.671107 36.8464 0.506412 39.0345 2.47377 39.0345H10.3079C11.6719 39.0345 12.7776 40.1402 12.7776 41.5041V61.5258C12.7776 63.9752 15.9592 64.9306 17.3084 62.8862L35.8482 34.7957C36.9319 33.1535 35.7544 30.9654 33.787 30.9654Z" fill="url(#paint0_linear_5476_88006)"/>
<path d="M35.8488 34.7948L17.3088 62.8858C16.5971 63.9646 15.3743 64.2079 14.3781 63.8377L22.1536 39.8002C22.8104 37.7696 21.2964 35.6886 19.1622 35.6886H17.0514C14.931 35.6886 13.4187 33.6326 14.0501 31.6084L21.9763 6.20044C22.8226 6.55237 23.4837 7.3589 23.4837 8.47451V28.4959C23.4837 29.8594 24.5887 30.9659 25.9537 30.9659H33.7875C35.754 30.9659 36.9322 33.1528 35.8488 34.7948Z" fill="url(#paint1_linear_5476_88006)"/>
<path d="M12.7776 47.2546V61.526C12.7776 63.9754 15.9593 64.9307 17.3084 62.8864L27.6254 47.2546H12.7776Z" fill="url(#paint2_linear_5476_88006)"/>
<path d="M116.957 2.38055L118.203 5.97283C118.256 6.12673 118.362 6.24855 118.495 6.31019L121.608 7.74812C122.048 7.95129 122.048 8.66962 121.608 8.87279L118.495 10.3107C118.362 10.3723 118.256 10.4942 118.203 10.6481L116.957 14.2403C116.78 14.748 116.158 14.748 115.982 14.2403L114.736 10.6481C114.682 10.4942 114.577 10.3723 114.443 10.3107L111.33 8.87279C110.89 8.66962 110.89 7.95129 111.33 7.74812L114.443 6.31019C114.577 6.24855 114.682 6.12673 114.736 5.97283L115.982 2.38055C116.158 1.87315 116.78 1.87315 116.957 2.38055Z" fill="#FAAFBD"/>
<defs>
<filter id="filter0_dd_5476_88006" x="10" y="0" width="105.472" height="76" filterUnits="userSpaceOnUse" color-interpolation-filters="sRGB">
<feFlood flood-opacity="0" result="BackgroundImageFix"/>
<feColorMatrix in="SourceAlpha" type="matrix" values="0 0 0 0 0 0 0 0 0 0 0 0 0 0 0 0 0 0 127 0" result="hardAlpha"/>
<feMorphology radius="2" operator="erode" in="SourceAlpha" result="effect1_dropShadow_5476_88006"/>
<feOffset dy="2"/>
<feGaussianBlur stdDeviation="2"/>
<feColorMatrix type="matrix" values="0 0 0 0 0.0470588 0 0 0 0 0.352941 0 0 0 0 0.439216 0 0 0 0.08 0"/>
<feBlend mode="normal" in2="BackgroundImageFix" result="effect1_dropShadow_5476_88006"/>
<feColorMatrix in="SourceAlpha" type="matrix" values="0 0 0 0 0 0 0 0 0 0 0 0 0 0 0 0 0 0 127 0" result="hardAlpha"/>
<feMorphology radius="2" operator="erode" in="SourceAlpha" result="effect2_dropShadow_5476_88006"/>
<feOffset dy="2"/>
<feGaussianBlur stdDeviation="2"/>
<feColorMatrix type="matrix" values="0 0 0 0 0.0470588 0 0 0 0 0.352941 0 0 0 0 0.439216 0 0 0 0.12 0"/>
<feBlend mode="normal" in2="effect1_dropShadow_5476_88006" result="effect2_dropShadow_5476_88006"/>
<feBlend mode="normal" in="SourceGraphic" in2="effect2_dropShadow_5476_88006" result="shape"/>
</filter>
<linearGradient id="paint0_linear_5476_88006" x1="7.38743" y1="24.257" x2="33.6375" y2="50.5069" gradientUnits="userSpaceOnUse">
<stop stop-color="#FEE97D"/>
<stop offset="1" stop-color="#FAC600"/>
</linearGradient>
<linearGradient id="paint1_linear_5476_88006" x1="29.1622" y1="35.1" x2="2.52683" y2="35.1" gradientUnits="userSpaceOnUse">
<stop stop-color="#FAC600" stop-opacity="0"/>
<stop offset="0.6899" stop-color="#D68C3D" stop-opacity="0.69"/>
<stop offset="1" stop-color="#C5715A"/>
</linearGradient>
<linearGradient id="paint2_linear_5476_88006" x1="20.2016" y1="51.6159" x2="20.2016" y2="62.9473" gradientUnits="userSpaceOnUse">
<stop stop-color="#FAC600" stop-opacity="0"/>
<stop offset="0.6899" stop-color="#D68C3D" stop-opacity="0.69"/>
<stop offset="1" stop-color="#C5715A"/>
</linearGradient>
</defs>
</svg>
