<svg xmlns="http://www.w3.org/2000/svg" xmlns:xlink="http://www.w3.org/1999/xlink" width="335" height="93"><defs><linearGradient id="a" x1="100%" x2="44.85%" y1="-65.851%" y2="100%"><stop offset="0%" stop-color="#E5EDFF"/><stop offset="100%" stop-color="#6B9AD9"/></linearGradient><linearGradient id="b" x1="100%" x2="44.85%" y1="-63.231%" y2="98.869%"><stop offset="0%" stop-color="#E5EDFF"/><stop offset="100%" stop-color="#6B9AD9"/></linearGradient><linearGradient id="e" x1="50%" x2="50%" y1="-10.877%" y2="100%"><stop offset="0%" stop-color="#FFE579"/><stop offset="100%" stop-color="#FEB755"/></linearGradient><linearGradient id="f" x1="157.42%" x2="118.836%" y1="-10.694%" y2="94.62%"><stop offset="0%" stop-color="#E5EDFF"/><stop offset="100%" stop-color="#6B9AD9"/></linearGradient><linearGradient id="g" x1="50%" x2="22.359%" y1="128.175%" y2="4.908%"><stop offset="0%" stop-color="#092871"/><stop offset="100%" stop-color="#1C4CB9"/></linearGradient><linearGradient id="h" x1="45.183%" x2="72.201%" y1="62.388%" y2="39.443%"><stop offset="0%" stop-color="#66CE8B"/><stop offset="100%" stop-color="#84F0A8"/></linearGradient><linearGradient id="i" x1="50.077%" x2="50.05%" y1="-39.692%" y2="115.938%"><stop offset="0%" stop-color="#E5EDFF"/><stop offset="100%" stop-color="#6B9AD9"/></linearGradient><linearGradient id="j" x1="157.42%" x2="118.836%" y1="49.935%" y2="50.047%"><stop offset="0%" stop-color="#E5EDFF"/><stop offset="100%" stop-color="#6B9AD9"/></linearGradient><linearGradient id="k" x1="157.42%" x2="118.836%" y1="49.548%" y2="50.332%"><stop offset="0%" stop-color="#E5EDFF"/><stop offset="100%" stop-color="#6B9AD9"/></linearGradient><linearGradient id="l" x1="157.42%" x2="118.836%" y1="39.678%" y2="57.588%"><stop offset="0%" stop-color="#E5EDFF"/><stop offset="100%" stop-color="#6B9AD9"/></linearGradient><linearGradient id="m" x1="175.706%" x2="89.281%" y1="-90.7%" y2="139.874%"><stop offset="0%" stop-color="#E5EDFF"/><stop offset="100%" stop-color="#6B9AD9"/></linearGradient><linearGradient id="n" x1="50%" x2="35.965%" y1="-10.877%" y2="39.486%"><stop offset="0%" stop-color="#FFE579"/><stop offset="100%" stop-color="#FEB755"/></linearGradient><linearGradient id="o" x1="175.706%" x2="89.281%" y1="-61.945%" y2="121.507%"><stop offset="0%" stop-color="#E5EDFF"/><stop offset="100%" stop-color="#6B9AD9"/></linearGradient><linearGradient id="p" x1="50%" x2="50%" y1="-10.877%" y2="261.111%"><stop offset="0%" stop-color="#FFE579"/><stop offset="100%" stop-color="#FEB755"/></linearGradient><linearGradient id="q" x1="85.847%" x2="23.806%" y1="40.713%" y2="38.203%"><stop offset="0%" stop-color="#FFE579"/><stop offset="100%" stop-color="#FEB755"/></linearGradient><linearGradient id="r" x1="47.537%" x2="61.352%" y1="94.484%" y2="12.094%"><stop offset="0%" stop-color="#7BE7A1"/><stop offset="100%" stop-color="#84F0A8"/></linearGradient><linearGradient id="s" x1="157.42%" x2="118.836%" y1="-10.655%" y2="94.591%"><stop offset="0%" stop-color="#E5EDFF"/><stop offset="100%" stop-color="#6B9AD9"/></linearGradient><linearGradient id="t" x1="167.574%" x2="86.74%" y1="-157.833%" y2="182.757%"><stop offset="0%" stop-color="#E5EDFF"/><stop offset="100%" stop-color="#6B9AD9"/></linearGradient><linearGradient id="u" x1="149.078%" x2="113.49%" y1="-39.692%" y2="115.938%"><stop offset="0%" stop-color="#E5EDFF"/><stop offset="100%" stop-color="#6B9AD9"/></linearGradient><linearGradient id="v" x1="157.42%" x2="118.836%" y1="49.558%" y2="50.325%"><stop offset="0%" stop-color="#E5EDFF"/><stop offset="100%" stop-color="#6B9AD9"/></linearGradient><linearGradient id="w" x1="157.42%" x2="118.836%" y1="3.39%" y2="84.265%"><stop offset="0%" stop-color="#A5C3FF"/><stop offset="100%" stop-color="#6B9AD9"/></linearGradient><linearGradient id="x" x1="157.42%" x2="118.836%" y1="3.49%" y2="84.192%"><stop offset="0%" stop-color="#E5EDFF"/><stop offset="100%" stop-color="#6B9AD9"/></linearGradient><linearGradient id="y" x1="157.42%" x2="118.836%" y1="34.727%" y2="61.228%"><stop offset="0%" stop-color="#A5C3FF"/><stop offset="100%" stop-color="#6B9AD9"/></linearGradient><linearGradient id="z" x1="157.42%" x2="118.836%" y1="34.727%" y2="61.228%"><stop offset="0%" stop-color="#E5EDFF"/><stop offset="100%" stop-color="#6B9AD9"/></linearGradient><linearGradient id="A" x1="157.42%" x2="118.836%" y1="48.103%" y2="51.394%"><stop offset="0%" stop-color="#A5C3FF"/><stop offset="100%" stop-color="#6B9AD9"/></linearGradient><linearGradient id="B" x1="45.183%" x2="72.201%" y1="69.447%" y2="33.428%"><stop offset="0%" stop-color="#7BE7A1"/><stop offset="100%" stop-color="#84F0A8"/></linearGradient><linearGradient id="C" x1="50%" x2="14.948%" y1="122.525%" y2="8.167%"><stop offset="0%" stop-color="#092871"/><stop offset="100%" stop-color="#1C4CB9"/></linearGradient><radialGradient id="D" cx="50%" cy="50%" r="83.266%" fx="50%" fy="50%"><stop offset="0%" stop-color="#EAF2FF"/><stop offset="37.253%" stop-color="#D3E3FB"/><stop offset="100%" stop-color="#ACC5E9"/></radialGradient><path id="c" d="M0 0h136.231v88H0z"/></defs><g fill="none" fill-rule="evenodd"><path fill="#2966E9" d="M334.996 0c-17.308 42.013-73.475 61.99-168.5 59.93C71.47 57.87 15.972 68.894 0 93h330.996a4 4 0 0 0 4-4V0z"/><path fill="#E2EBFC" fill-rule="nonzero" d="M177.01 92.953s-9.025-23.331 4.178-37.263c17.03-17.969 39.036-2.949 47.294-3.386 8.257-.436 8.722-17.679 33.394-19.738 19.077-1.594 50.406-1.718 43.722 26.45C300.516 80.435 328.79 69.34 323.286 93l-146.276-.047z" opacity=".747"/><g fill-rule="nonzero" transform="translate(183.077 5)"><rect width="45.36" height="32.76" y="1" fill="#E1EBFF" rx="1.487"/><rect width="45.36" height="32.76" x="1" y=".151" fill="#FCFDFF" rx="1.487"/><path fill="#E2EBFC" d="M46.36 10.81v.643H1v-.643zm0 10.067v.643H1v-.643z"/><circle cx="8.875" cy="6.136" r="2.835" fill="url(#a)"/><ellipse cx="8.699" cy="15.94" fill="url(#b)" rx="2.766" ry="2.734" transform="rotate(-77.16 8.7 15.94)"/><circle cx="8.875" cy="26.296" r="2.835" fill="url(#a)"/><path fill="#CBDBF9" d="M37.36 4.561c.1 0 .18.138.18.309 0 .151-.064.277-.148.304l-.033.005H13.151c-.1 0-.181-.139-.181-.31 0-.15.064-.277.148-.303l.033-.005h24.208zm-20.783 1.89c.096 0 .173.138.173.309 0 .151-.061.277-.142.304l-.03.005h-3.435c-.096 0-.173-.139-.173-.31 0-.15.061-.277.142-.303l.03-.005h3.435zm20.783 8.19c.1 0 .18.138.18.309 0 .151-.064.277-.148.304l-.033.005H13.151c-.1 0-.181-.139-.181-.31 0-.15.064-.277.148-.303l.033-.005h24.208zm-11.341 1.89c.1 0 .181.138.181.309 0 .151-.064.277-.149.304l-.032.005H13.15c-.1 0-.181-.139-.181-.31 0-.15.064-.277.149-.303l.032-.005h12.87zm-7.56 8.19c.1 0 .181.138.181.309 0 .151-.064.277-.149.304l-.032.005H13.15c-.1 0-.181-.139-.181-.31 0-.15.064-.277.149-.303l.032-.005h5.308zm18.901 1.89c.1 0 .18.138.18.309 0 .151-.064.277-.148.304l-.033.005H13.151c-.1 0-.181-.139-.181-.31 0-.15.064-.277.148-.303l.033-.005h24.208z"/><path fill="#FFF" d="M9.441 5.262a.223.223 0 0 1 .305-.02c.08.066.096.176.044.26l-.023.03L8.419 7.01a.224.224 0 0 1-.254.052l-.03-.016-.74-.48a.2.2 0 0 1-.058-.286.222.222 0 0 1 .27-.07l.03.016.581.377 1.223-1.341zm0 10.08a.223.223 0 0 1 .305-.02c.08.066.096.176.044.26l-.023.03-1.348 1.478a.224.224 0 0 1-.254.052l-.03-.016-.74-.48a.2.2 0 0 1-.058-.286.222.222 0 0 1 .27-.07l.03.016.581.377 1.223-1.341zm0 10.08a.223.223 0 0 1 .305-.02c.08.066.096.176.044.26l-.023.03L8.42 27.17a.223.223 0 0 1-.253.052l-.032-.016-.74-.479a.2.2 0 0 1-.057-.285.222.222 0 0 1 .27-.071l.03.016.581.376 1.223-1.341z"/></g><g transform="translate(197.077 5)"><mask id="d" fill="#fff"><use xlink:href="#c"/></mask><g fill-rule="nonzero" mask="url(#d)"><g transform="translate(-7.853 10.947)"><circle cx="79.125" cy="17.352" r="11.023" fill="url(#e)"/><path fill="#FFF" d="M79.125 36.563a.554.554 0 0 1-.554-.554V11.871a.553.553 0 1 1 1.098 0v24.138a.553.553 0 0 1-.544.554z"/><path fill="#FFF" d="M79.228 22.073a.545.545 0 0 1-.389-.934l6.32-6.329a.563.563 0 0 1 .778 0 .545.545 0 0 1 0 .778l-6.32 6.33a.577.577 0 0 1-.389.155zm-.103 4.279a.549.549 0 0 1-.39-.155l-6.328-6.32a.561.561 0 0 1 0-.778.56.56 0 0 1 .787 0L79.54 25.4a.563.563 0 0 1-.415.951z"/><path fill="url(#f)" d="M73.566 43.471h11.213L87.243 30.2H71.11z"/><path fill="#FFB8BC" d="M101.154 22.488a2.594 2.594 0 0 0 2.93-2.188l1.392-6.838-5.835-1.582-.718 7.642a2.595 2.595 0 0 0 2.231 2.966z"/><path fill="#FFB8BC" d="M100.6 17.776a5.257 5.257 0 0 0 5.784-4.626l.71-6.354a5.231 5.231 0 0 0-4.618-5.775 5.247 5.247 0 0 0-5.783 4.582l-.727 6.389a5.248 5.248 0 0 0 4.634 5.784z"/><path fill="url(#g)" d="M97.756 6.917c.337-1.167 4.608 1.478 5.049 2.317a1.981 1.981 0 0 1-.086 2.395c-.58.864-2.214 2.023-3.692 1.617-2.628-.727-1.772-4.548-1.271-6.33z"/><path fill="url(#h)" d="M59.421 41.534c1.392-1.288 3.562-.934 5.43-.614 1.227.208 2.464.363 3.709.45.052-.234.112-.459.173-.7 24.069.622 23.274-11.335 33.545-17.508 5.974-3.588 6.596 2.127 6.052 5.914-2.335 16.219-25.86 21.138-40.635 18.717v-.25c-1.936-.234-3.752-.346-5.697-.735a5.558 5.558 0 0 1-2.43-.865 3.011 3.011 0 0 1-.19-4.323l.043-.086z"/><path fill="url(#i)" d="M109.506 46.977h1.98v73.773h-1.98z" transform="rotate(-13.52 110.496 83.863)"/><path fill="url(#j)" d="M-16.64 82.865h73.773v1.98H-16.64z" transform="rotate(-76.5 20.247 83.855)"/><path fill="url(#k)" d="M11.706 47.37h107.353v7.617H11.706z" transform="rotate(180 65.382 51.178)"/><path fill="url(#l)" style="mix-blend-mode:multiply" d="M11.706 47.37h22.453v7.617H11.706z" transform="rotate(180 22.932 51.178)"/><path fill="url(#m)" d="M124.739 82.946h-15.06l.769-8.81a4.702 4.702 0 0 1 4.59-4.218h6.45a3.967 3.967 0 0 1 4.003 4.392l-.752 8.636zm-12.917-1.97h11.11l.597-6.84a2.036 2.036 0 0 0-.51-1.599 2.074 2.074 0 0 0-1.53-.648h-6.45a2.697 2.697 0 0 0-2.594 2.42l-.623 6.666z"/><path fill="url(#n)" d="M50.577 113.025c-.744-15.234-.156-27.51 3.38-33.917 5.188-9.312 22.6-15.562 44.845-15.286.06 5.525.45 11.032.648 16.557-28.487.19-40.461-4.678-39.83 32.646-2.395.008-6.519.051-9.043 0z"/><path fill="url(#o)" d="M91.644 80.335s13.97 3.554 19.106 1.626c4.764-1.79 8.499-6.917 8.309-16.375-.139-6.64-27.415-.813-27.415-.813v15.562z"/><path fill="url(#p)" d="M39.597 92.707c4.21-14.697 8.732-26.092 14.153-31.003 7.885-7.15 25.124-3.76 45.19 4.245-1.236 3.182-2.3 10.574-2.593 11.637C69.372 68.57 59.655 60.07 48.157 95.63c-2.275-.761-6.191-2.058-8.56-2.923z"/><path fill="url(#q)" d="M63.753 81.987c-2.162-2.023-4.444-3.908-6.778-5.732l.527-.71c7.634-8.645 21.804-11.965 41.3-11.723.06 5.525.45 11.032.648 16.557-16.15.103-27-1.41-33.242 4.063a66.085 66.085 0 0 0-2.455-2.455z"/><path fill="url(#r)" d="M119.249 59.69c-.64-14.741-1.193-23.43-1.306-25.176-.752-12.104-6.553-15.026-12.916-15.407-7.383-.432-16.193-.622-16.548 9.251l-.536 8.196a4.475 4.475 0 0 0-1.487 1.133 4.58 4.58 0 0 0-.743 4.625c.36.86.96 1.6 1.729 2.127l-1.263 19.375s7.107 2.403 12.692 2.714c6.528.364 20.568-1.729 20.568-1.729s.009-.406-.19-5.11z"/><path fill="url(#s)" d="M94.574 82.946H79.54l.778-8.81a4.692 4.692 0 0 1 4.59-4.218h6.442a3.968 3.968 0 0 1 4.011 4.391l-.787 8.637zm-12.916-1.97h11.11l.596-6.84a1.995 1.995 0 0 0-2.049-2.247h-6.441a2.688 2.688 0 0 0-2.594 2.42l-.622 6.666z"/><path fill="url(#t)" d="M96.139 68.759h26.629l3.034-34.703H95.439L92.24 68.759z"/><path fill="url(#u)" d="M95.854 68.759h30.294l3.035-34.703H98.897z"/><path fill="url(#v)" d="M96.997 67.453h28.09v1.971h-28.09z" transform="rotate(-84.98 111.041 68.439)"/><path fill="url(#w)" d="M64.505 37.67H24.208V8.62h40.297v29.05zm-38.758-1.583h37.176V10.202H25.747v25.885z" style="mix-blend-mode:multiply" opacity=".301"/><path fill="#E2EBFC" d="M26.533 9.416H65.3v27.467H26.533z"/><path fill="url(#x)" d="M66.087 37.67h-40.34V8.62h40.34v29.05zM27.33 36.086h37.176V10.202H27.329v25.885z"/><path fill="url(#y)" style="mix-blend-mode:multiply" d="M36.986 37.669h14.896v6.147H36.986z" opacity=".301"/><path fill="url(#z)" d="M38.369 37.669h14.896v6.147H38.369z"/><path fill="url(#A)" style="mix-blend-mode:multiply" d="M33.899 43.816h24.139v3.51H33.899z" opacity=".301"/><path fill="#FFB8BC" d="M45.13 43.03c-.04-.82.274-1.617.865-2.188 1.392-1.288 3.57-.933 5.43-.614a34.974 34.974 0 0 0 15.06-.579c7.954-2.196 14.61-7.53 20.888-12.89.553-.53 1.152-1.01 1.79-1.436.795-.45 1.028 0 1.348.744.545 1.5.838 3.081.864 4.677.114.965.01 1.943-.302 2.862a6.925 6.925 0 0 1-2.023 2.455c-5.914 5.093-29.56 11.482-34.107 10.868-2.187-.294-4.185-.38-6.346-.813a5.465 5.465 0 0 1-2.43-.864 2.84 2.84 0 0 1-1.037-2.222z"/><path fill="url(#B)" d="M94.886 28.384c.544-3.787 2.533-10.634-3.459-7.046-10.253 6.164-12.069 19.262-36.095 18.64a35.21 35.21 0 0 0-1.063 7.124c14.758 2.42 38.282-2.499 40.617-18.718z"/></g></g><path fill="url(#C)" fill-rule="nonzero" d="M93.239 7.087c-5.708.839-7.226 4.815-6.232 7.65.994 2.835 5.187 3.913 5.33 6.187.142 2.275-.114 6.267 6.936 5.472 7.05-.795 8.55-4.58 7.338-10.29-1.212-5.71-7.664-9.859-13.372-9.02z" mask="url(#d)"/></g><path fill="url(#D)" d="M166.601 33.316a.364.364 0 0 1 .721 0v1.628a.362.362 0 1 1-.555.353.361.361 0 0 1-.166-.353v-1.628zm-2.465 1.326a.364.364 0 0 1 .512-.512l1.134 1.122a.363.363 0 0 1-.512.511l-1.134-1.128v.007zm-.82 2.674a.363.363 0 0 1 0-.72h1.628a.362.362 0 1 1 0 .72h-1.628zm1.326 2.466a.365.365 0 0 1-.512-.512l1.146-1.152a.363.363 0 0 1 .637.147.363.363 0 0 1-.125.364l-1.146 1.153zm2.674.807a.363.363 0 1 1-.721 0v-1.64a.362.362 0 0 1 .166-.353.362.362 0 0 1 .555.354v1.639zm2.466-1.319a.365.365 0 0 1-.512.512l-1.152-1.153a.362.362 0 0 1 .511-.511l1.153 1.152zm.807-2.675a.364.364 0 1 1 0 .721h-1.62a.363.363 0 0 1-.001-.72h1.621zm-1.319-2.465a.365.365 0 0 1 .637.147.369.369 0 0 1-.125.365l-1.153 1.146a.364.364 0 0 1-.511-.512l1.152-1.146zm150.331-15.814a.364.364 0 0 1 .721 0v1.628a.362.362 0 1 1-.555.353.361.361 0 0 1-.166-.353v-1.628zm-2.465 1.326a.364.364 0 0 1 .512-.512l1.134 1.122a.363.363 0 0 1-.512.511l-1.134-1.128v.007zm-.82 2.674a.363.363 0 0 1 0-.72h1.628a.362.362 0 1 1 0 .72h-1.628zm1.326 2.466a.365.365 0 0 1-.512-.512l1.146-1.152a.363.363 0 0 1 .637.147.363.363 0 0 1-.125.364l-1.146 1.153zm2.674.807a.363.363 0 1 1-.721 0v-1.64a.362.362 0 0 1 .166-.353.362.362 0 0 1 .555.354v1.639zm2.466-1.319a.365.365 0 0 1-.512.512l-1.152-1.153a.362.362 0 0 1 .511-.511l1.153 1.152zm.807-2.675a.364.364 0 1 1 0 .721h-1.62a.363.363 0 0 1-.001-.72h1.621zm-1.319-2.465a.365.365 0 0 1 .637.147.369.369 0 0 1-.125.365l-1.153 1.146a.364.364 0 0 1-.511-.512l1.152-1.146zM110.601 73.316a.364.364 0 0 1 .721 0v1.628a.362.362 0 1 1-.555.353.361.361 0 0 1-.166-.353v-1.628zm-2.465 1.326a.364.364 0 0 1 .512-.512l1.134 1.122a.363.363 0 0 1-.512.511l-1.134-1.128v.007zm-.82 2.674a.363.363 0 0 1 0-.72h1.628a.362.362 0 1 1 0 .72h-1.628zm1.326 2.466a.365.365 0 0 1-.512-.512l1.146-1.152a.363.363 0 0 1 .637.147.363.363 0 0 1-.125.364l-1.146 1.153zm2.674.807a.363.363 0 1 1-.721 0v-1.64a.362.362 0 0 1 .166-.353.362.362 0 0 1 .555.354v1.639zm2.466-1.319a.365.365 0 0 1-.512.512l-1.152-1.153a.362.362 0 0 1 .511-.511l1.153 1.152zm.807-2.675a.364.364 0 1 1 0 .721h-1.62a.363.363 0 0 1-.001-.72h1.621zm-1.319-2.465a.365.365 0 0 1 .637.147.369.369 0 0 1-.125.365l-1.153 1.146a.364.364 0 0 1-.511-.512l1.152-1.146z"/></g></svg>