<svg xmlns="http://www.w3.org/2000/svg" width="288" height="80"><defs><radialGradient id="a" cx="50%" cy="50%" r="83.266%" fx="50%" fy="50%"><stop offset="0%" stop-color="#EAF2FF"/><stop offset="37.253%" stop-color="#D3E3FB"/><stop offset="100%" stop-color="#ACC5E9"/></radialGradient></defs><g fill="none" fill-rule="evenodd"><path fill="#2966E9" d="M287.996 0c-14.88 36.119-63.166 53.293-144.86 51.522C61.444 49.752 13.732 59.228 0 79.952h283.996c2.21 0 4-1.79 4-4V0z"/><path fill="url(#a)" d="M183.228 43.642a.313.313 0 0 1 .62 0v1.399a.313.313 0 1 1-.62 0v-1.399zm-2.12 1.14a.313.313 0 0 1 .44-.44l.975.964a.313.313 0 0 1-.44.44l-.975-.97v.005zm-.705 2.299a.313.313 0 0 1 0-.62h1.4c.12-.016.238.04.303.142a.312.312 0 1 1-.304.478h-1.399zm1.14 2.12a.313.313 0 1 1-.44-.44l.985-.991a.312.312 0 1 1 .44.44l-.985.99zm2.3.694a.313.313 0 1 1-.621 0v-1.41a.313.313 0 1 1 .62 0v1.409zm2.119-1.134a.312.312 0 1 1-.44.439l-.991-.99a.314.314 0 0 1 .021-.419.314.314 0 0 1 .419-.021l.99.99zm.694-2.3a.313.313 0 1 1 0 .62h-1.394a.313.313 0 0 1 0-.62h1.394zm-1.134-2.12a.313.313 0 1 1 .44.44l-.991.986a.313.313 0 0 1-.44-.44l.99-.985zm80.574-41.069a.312.312 0 0 1 .62 0v1.399a.313.313 0 1 1-.62 0V3.272zm-2.12 1.14a.316.316 0 0 1 .022-.42.314.314 0 0 1 .419-.02l.974.964a.312.312 0 0 1-.439.44l-.975-.97v.005zm-.704 2.299a.312.312 0 0 1 0-.62h1.399a.313.313 0 1 1 0 .62h-1.399zm1.14 2.12a.316.316 0 0 1-.42-.022.314.314 0 0 1-.02-.419l.985-.99a.312.312 0 1 1 .44.439l-.986.991zm2.299.693a.314.314 0 1 1-.62 0v-1.41a.311.311 0 0 1 .142-.303.313.313 0 1 1 .478.304v1.409zm2.12-1.134c.1.125.091.305-.022.419a.314.314 0 0 1-.419.021l-.99-.99a.313.313 0 0 1 .439-.44l.991.99zm.693-2.3a.315.315 0 0 1 .305.479.314.314 0 0 1-.305.142h-1.393a.312.312 0 0 1 0-.62h1.393zm-1.134-2.119a.314.314 0 1 1 .548.127.314.314 0 0 1-.108.313l-.99.986a.313.313 0 1 1-.44-.44l.99-.986zM103.084 63.03a.313.313 0 0 1 .62 0v1.4a.311.311 0 0 1-.142.303.313.313 0 1 1-.478-.304V63.03zm-2.12 1.14a.315.315 0 0 1 .022-.419.314.314 0 0 1 .419-.021l.975.964c.1.124.091.305-.022.418a.312.312 0 0 1-.418.022l-.975-.97v.005zm-.704 2.299a.312.312 0 0 1 0-.62h1.399a.313.313 0 1 1 0 .62h-1.399zm1.14 2.12a.313.313 0 1 1-.441-.44l.986-.991a.311.311 0 0 1 .547.127.314.314 0 0 1-.107.313l-.986.99zm2.299.694a.313.313 0 1 1-.62 0v-1.41a.313.313 0 1 1 .62 0v1.409zm2.12-1.134a.312.312 0 1 1-.44.439l-.991-.99a.313.313 0 0 1 .439-.44l.991.99zm.693-2.3a.314.314 0 1 1 0 .62h-1.393a.312.312 0 0 1 0-.62h1.393zm-1.133-2.12a.313.313 0 1 1 .439.44l-.99.986a.313.313 0 0 1-.44-.44l.99-.985z"/></g></svg>