<svg xmlns="http://www.w3.org/2000/svg" xmlns:xlink="http://www.w3.org/1999/xlink" width="195" height="87" viewBox="0 0 195 87">
    <defs>
        <linearGradient id="70pt2jlvzb" x1="60.731%" x2="60.731%" y1="0%" y2="68.848%">
            <stop offset="0%" stop-color="#60A2FF"/>
            <stop offset="100%" stop-color="#1A57CF"/>
        </linearGradient>
        <linearGradient id="863of76n2c" x1="157.42%" x2="118.836%" y1="-34.015%" y2="111.764%">
            <stop offset="0%" stop-color="#E5EDFF"/>
            <stop offset="100%" stop-color="#6B9AD9"/>
        </linearGradient>
        <linearGradient id="rrkj9fabad" x1="55.105%" x2="66.967%" y1="0%" y2="13.861%">
            <stop offset="0%" stop-color="#60A2FF"/>
            <stop offset="100%" stop-color="#1A57CF"/>
        </linearGradient>
        <linearGradient id="gnlbjqd3le" x1="60.731%" x2="60.731%" y1="0%" y2="68.848%">
            <stop offset="0%" stop-color="#60A2FF"/>
            <stop offset="100%" stop-color="#1A57CF"/>
        </linearGradient>
        <linearGradient id="dbdxbhgssf" x1="102%" x2="0%" y1="82.939%" y2="20.32%">
            <stop offset="0%" stop-color="#FAD0BA"/>
            <stop offset="100%" stop-color="#F2A384"/>
        </linearGradient>
        <linearGradient id="kjvln9rr4g" x1="50%" x2="50%" y1="-10.877%" y2="261.111%">
            <stop offset="0%" stop-color="#FFE579"/>
            <stop offset="100%" stop-color="#FEB755"/>
        </linearGradient>
        <linearGradient id="0366e8ngah" x1="50%" x2="50%" y1="-10.877%" y2="100%">
            <stop offset="0%" stop-color="#FFE579"/>
            <stop offset="100%" stop-color="#FEB755"/>
        </linearGradient>
        <linearGradient id="952270e2pi" x1="102%" x2="0%" y1="66.057%" y2="35.532%">
            <stop offset="0%" stop-color="#FAD0BA"/>
            <stop offset="100%" stop-color="#F2A384"/>
        </linearGradient>
        <linearGradient id="qdllut9bdj" x1="50%" x2="50%" y1="-10.877%" y2="261.111%">
            <stop offset="0%" stop-color="#FFE579"/>
            <stop offset="100%" stop-color="#FEB755"/>
        </linearGradient>
        <linearGradient id="hbm01t82vk" x1="102%" x2="0%" y1="91.248%" y2="12.833%">
            <stop offset="0%" stop-color="#FAD0BA"/>
            <stop offset="100%" stop-color="#F2A384"/>
        </linearGradient>
        <linearGradient id="26tr6nk1nl" x1="50%" x2="20.81%" y1="128.175%" y2="4.908%">
            <stop offset="0%" stop-color="#092871"/>
            <stop offset="100%" stop-color="#1C4CB9"/>
        </linearGradient>
        <linearGradient id="4wyzyao9zm" x1="60.731%" x2="60.731%" y1="0%" y2="20.162%">
            <stop offset="0%" stop-color="#60A2FF"/>
            <stop offset="100%" stop-color="#1A57CF"/>
        </linearGradient>
        <linearGradient id="q51dghvdsn" x1="60.731%" x2="60.731%" y1="0%" y2="68.848%">
            <stop offset="0%" stop-color="#60A2FF"/>
            <stop offset="100%" stop-color="#1A57CF"/>
        </linearGradient>
        <linearGradient id="tkdk34bl9o" x1="102%" x2="0%" y1="56.608%" y2="44.046%">
            <stop offset="0%" stop-color="#FAD0BA"/>
            <stop offset="100%" stop-color="#F2A384"/>
        </linearGradient>
        <linearGradient id="tpl6zq7d4p" x1="46.519%" x2="66.044%" y1="94.484%" y2="12.094%">
            <stop offset="0%" stop-color="#66CE8B"/>
            <stop offset="100%" stop-color="#84F0A8"/>
        </linearGradient>
        <linearGradient id="qlx8yynn7q" x1="102%" x2="0%" y1="82.933%" y2="20.326%">
            <stop offset="0%" stop-color="#FAD0BA"/>
            <stop offset="100%" stop-color="#F2A384"/>
        </linearGradient>
        <linearGradient id="nkjq3r6wxr" x1="48.9%" x2="55.071%" y1="94.484%" y2="12.094%">
            <stop offset="0%" stop-color="#7BE7A1"/>
            <stop offset="100%" stop-color="#84F0A8"/>
        </linearGradient>
        <linearGradient id="0sepr0d8ps" x1="48.485%" x2="56.984%" y1="94.484%" y2="12.094%">
            <stop offset="0%" stop-color="#66CE8B"/>
            <stop offset="100%" stop-color="#84F0A8"/>
        </linearGradient>
        <linearGradient id="s057b8zxkt" x1="84.538%" x2="16.79%" y1="91.994%" y2="12.161%">
            <stop offset="0%" stop-color="#FAD0BA"/>
            <stop offset="100%" stop-color="#F2A384"/>
        </linearGradient>
        <linearGradient id="o6lqva4yiu" x1="102%" x2="0%" y1="55.776%" y2="44.795%">
            <stop offset="0%" stop-color="#FAD0BA"/>
            <stop offset="100%" stop-color="#F2A384"/>
        </linearGradient>
        <linearGradient id="sb9i7sndjv" x1="47.586%" x2="61.125%" y1="94.484%" y2="12.094%">
            <stop offset="0%" stop-color="#7BE7A1"/>
            <stop offset="100%" stop-color="#84F0A8"/>
        </linearGradient>
        <linearGradient id="2txz3ua9lw" x1="60.059%" x2="60.059%" y1="0%" y2="100%">
            <stop offset="0%" stop-color="#CBE1FF"/>
            <stop offset="100%" stop-color="#3C80EF"/>
        </linearGradient>
        <linearGradient id="o5nop2mw9x" x1="50%" x2="50%" y1="-10.877%" y2="100%">
            <stop offset="0%" stop-color="#FFE579"/>
            <stop offset="100%" stop-color="#FEB755"/>
        </linearGradient>
        <linearGradient id="5ft4c7kryy" x1="64.753%" x2="35.814%" y1="91.994%" y2="12.161%">
            <stop offset="0%" stop-color="#FAD0BA"/>
            <stop offset="100%" stop-color="#F2A384"/>
        </linearGradient>
        <linearGradient id="h32q9isfcz" x1="102%" x2="0%" y1="66.586%" y2="35.055%">
            <stop offset="0%" stop-color="#FAD0BA"/>
            <stop offset="100%" stop-color="#F2A384"/>
        </linearGradient>
        <linearGradient id="728uq2rzbA" x1="102%" x2="0%" y1="70.02%" y2="31.96%">
            <stop offset="0%" stop-color="#FAD0BA"/>
            <stop offset="100%" stop-color="#F2A384"/>
        </linearGradient>
        <linearGradient id="r9lxydgt4B" x1="-5.016%" x2="45.22%" y1="-131.348%" y2="38.257%">
            <stop offset="0%" stop-color="#60A2FF"/>
            <stop offset="100%" stop-color="#1A57CF"/>
        </linearGradient>
        <linearGradient id="8ei5j9wi6C" x1="60.731%" x2="60.731%" y1="0%" y2="68.848%">
            <stop offset="0%" stop-color="#60A2FF"/>
            <stop offset="100%" stop-color="#1A57CF"/>
        </linearGradient>
        <linearGradient id="2rpk4qafzD" x1="50%" x2="56.13%" y1="128.175%" y2="29.902%">
            <stop offset="0%" stop-color="#092871"/>
            <stop offset="100%" stop-color="#1C4CB9"/>
        </linearGradient>
        <linearGradient id="r3mdobr6eE" x1="87.834%" x2="13.621%" y1="91.994%" y2="12.161%">
            <stop offset="0%" stop-color="#FAD0BA"/>
            <stop offset="100%" stop-color="#F2A384"/>
        </linearGradient>
        <linearGradient id="r3zs94q28F" x1="50%" x2="65.788%" y1="124.54%" y2="30.837%">
            <stop offset="0%" stop-color="#092871"/>
            <stop offset="100%" stop-color="#1C4CB9"/>
        </linearGradient>
        <linearGradient id="aleeynh8wG" x1="83.021%" x2="18.25%" y1="91.994%" y2="12.161%">
            <stop offset="0%" stop-color="#FAD0BA"/>
            <stop offset="100%" stop-color="#F2A384"/>
        </linearGradient>
        <linearGradient id="829ntzuxgH" x1="50%" x2="65.788%" y1="97.66%" y2="37.747%">
            <stop offset="0%" stop-color="#092871"/>
            <stop offset="100%" stop-color="#1C4CB9"/>
        </linearGradient>
        <linearGradient id="7gxgyhc1eI" x1="50%" x2="54.828%" y1="128.175%" y2="29.902%">
            <stop offset="0%" stop-color="#092871"/>
            <stop offset="100%" stop-color="#1C4CB9"/>
        </linearGradient>
        <linearGradient id="y3tqqwom7J" x1="50%" x2="50%" y1="-10.877%" y2="261.111%">
            <stop offset="0%" stop-color="#FFE579"/>
            <stop offset="100%" stop-color="#FEB755"/>
        </linearGradient>
        <linearGradient id="9jdvftk88K" x1="50%" x2="50%" y1="-10.877%" y2="100%">
            <stop offset="0%" stop-color="#FFE579"/>
            <stop offset="100%" stop-color="#FEB755"/>
        </linearGradient>
        <linearGradient id="alofwmqc6L" x1="102%" x2="0%" y1="64.451%" y2="36.979%">
            <stop offset="0%" stop-color="#FAD0BA"/>
            <stop offset="100%" stop-color="#F2A384"/>
        </linearGradient>
        <linearGradient id="qyswe5pt0M" x1="50%" x2="50%" y1="-10.877%" y2="261.111%">
            <stop offset="0%" stop-color="#FFE579"/>
            <stop offset="100%" stop-color="#FEB755"/>
        </linearGradient>
        <linearGradient id="7j9duz2mmN" x1="100%" x2="10.524%" y1="35.817%" y2="64.183%">
            <stop offset="0%" stop-color="#CFDDF3"/>
            <stop offset="47.356%" stop-color="#B3C7E9"/>
            <stop offset="100%" stop-color="#728FC5"/>
        </linearGradient>
        <linearGradient id="7t19cfaepO" x1="38.467%" x2="-39.962%" y1="100%" y2="100%">
            <stop offset="0%" stop-color="#CFDDF3"/>
            <stop offset="47.356%" stop-color="#B3C7E9"/>
            <stop offset="100%" stop-color="#728FC5"/>
        </linearGradient>
        <linearGradient id="drd4ke815P" x1="-61.33%" x2="57.992%" y1="42.63%" y2="51.191%">
            <stop offset="0%" stop-color="#3BACF8"/>
            <stop offset="41.813%" stop-color="#3BA8F7"/>
            <stop offset="100%" stop-color="#1F3DD2"/>
        </linearGradient>
        <linearGradient id="8oysr82goQ" x1="-61.33%" x2="57.992%" y1="49.212%" y2="50.127%">
            <stop offset="0%" stop-color="#3BACF8"/>
            <stop offset="41.813%" stop-color="#3BA8F7"/>
            <stop offset="100%" stop-color="#1F3DD2"/>
        </linearGradient>
        <linearGradient id="o373st2ysR" x1="45.183%" x2="72.201%" y1="64.779%" y2="37.406%">
            <stop offset="0%" stop-color="#66CE8B"/>
            <stop offset="100%" stop-color="#84F0A8"/>
        </linearGradient>
        <linearGradient id="h8ljj3sqkS" x1="50%" x2="50%" y1="-10.877%" y2="100%">
            <stop offset="0%" stop-color="#FFE579"/>
            <stop offset="100%" stop-color="#FEB755"/>
        </linearGradient>
        <linearGradient id="la5lrlk49T" x1="64.302%" x2="36.248%" y1="91.994%" y2="12.161%">
            <stop offset="0%" stop-color="#FAD0BA"/>
            <stop offset="100%" stop-color="#F2A384"/>
        </linearGradient>
        <linearGradient id="zg55zlwvlU" x1="41.334%" x2="50.622%" y1="-56.737%" y2="67.251%">
            <stop offset="0%" stop-color="#3BACF8"/>
            <stop offset="41.813%" stop-color="#3BA8F7"/>
            <stop offset="100%" stop-color="#1F3DD2"/>
        </linearGradient>
        <linearGradient id="jlq29x5utW" x1="35.026%" x2="51.075%" y1="-56.737%" y2="67.251%">
            <stop offset="0%" stop-color="#3BACF8"/>
            <stop offset="41.813%" stop-color="#3BA8F7"/>
            <stop offset="100%" stop-color="#1F3DD2"/>
        </linearGradient>
        <linearGradient id="rlejcal7wX" x1="41.836%" x2="50.586%" y1="-56.737%" y2="67.251%">
            <stop offset="0%" stop-color="#3BACF8"/>
            <stop offset="41.813%" stop-color="#3BA8F7"/>
            <stop offset="100%" stop-color="#1F3DD2"/>
        </linearGradient>
        <linearGradient id="abs48x2zpY" x1="96.751%" x2="5.047%" y1="91.994%" y2="12.161%">
            <stop offset="0%" stop-color="#FAD0BA"/>
            <stop offset="100%" stop-color="#F2A384"/>
        </linearGradient>
        <linearGradient id="90n6wh6nkZ" x1="91.905%" x2="9.707%" y1="91.994%" y2="12.161%">
            <stop offset="0%" stop-color="#FAD0BA"/>
            <stop offset="100%" stop-color="#F2A384"/>
        </linearGradient>
        <linearGradient id="cpv3jcmojaa" x1="48.036%" x2="59.053%" y1="94.484%" y2="12.094%">
            <stop offset="0%" stop-color="#7BE7A1"/>
            <stop offset="100%" stop-color="#84F0A8"/>
        </linearGradient>
        <linearGradient id="7xfv2a62aab" x1="49.009%" x2="54.566%" y1="94.484%" y2="12.094%">
            <stop offset="0%" stop-color="#66CE8B"/>
            <stop offset="100%" stop-color="#84F0A8"/>
        </linearGradient>
        <linearGradient id="we7psieyjac" x1="45.183%" x2="72.201%" y1="69.141%" y2="33.689%">
            <stop offset="0%" stop-color="#7BE7A1"/>
            <stop offset="100%" stop-color="#84F0A8"/>
        </linearGradient>
        <linearGradient id="uapoqfivyad" x1="84.529%" x2="22.659%" y1="20.808%" y2="75.524%">
            <stop offset="0%" stop-color="#FFC56E"/>
            <stop offset="100%" stop-color="#FF8421"/>
        </linearGradient>
        <linearGradient id="puzmxdwitaf" x1="6.621%" x2="156.65%" y1="45.869%" y2="50.976%">
            <stop offset="0%" stop-color="#8EBDFF"/>
            <stop offset="100%" stop-color="#2B6AE7"/>
        </linearGradient>
        <linearGradient id="u06hek4neag" x1="50%" x2="50%" y1="-10.877%" y2="100%">
            <stop offset="0%" stop-color="#FFE579"/>
            <stop offset="100%" stop-color="#FEB755"/>
        </linearGradient>
        <linearGradient id="3tkl6rbdsah" x1="46.058%" x2="57.15%" y1="5.042%" y2="100%">
            <stop offset="0%" stop-color="#B1FFBE"/>
            <stop offset="44.421%" stop-color="#5CDB8E"/>
            <stop offset="100%" stop-color="#149654"/>
        </linearGradient>
        <linearGradient id="xj2xumfuvai" x1="50%" x2="50%" y1="-10.877%" y2="100%">
            <stop offset="0%" stop-color="#FFE579"/>
            <stop offset="100%" stop-color="#FEB755"/>
        </linearGradient>
        <path id="19v0ppg80V" d="M32.637 45.109c-.862 1.612-3.02 5.764-3.823 8.354-.852-5.23-2.012-11.35-2.744-15.123.036-1.427.207-2.673.568-3.59l6.34-.125s-.471 7.018-.341 10.484z"/>
        <path id="8pc9tuscbae" d="M19.012.937v2.6H0v-2.6C0 .688.099.449.275.274.451.098.69-.001.94 0h17.136c.518 0 .937.42.937.937z"/>
        <filter id="kveber51ea">
            <feColorMatrix in="SourceGraphic" values="0 0 0 0 0.886275 0 0 0 0 0.921569 0 0 0 0 0.988235 0 0 0 1.000000 0"/>
        </filter>
    </defs>
    <g fill="none" fill-rule="evenodd">
        <g>
            <g>
                <g>
                    <g transform="translate(-1169 -348) translate(404 330) translate(765 18) translate(10)">
                        <g filter="url(#kveber51ea)">
                            <g>
                                <path fill="#AFCDFB" fill-rule="nonzero" d="M0 8.868H3.029V27.737000000000002H0zM5.099 3.609H8.128V27.738H5.099zM10.514 13.431H13.543V27.738H10.514zM7.961 0H5.4c-.098-.004-.19.045-.24.13-.05.083-.05.188 0 .272.05.084.142.134.24.13h2.565c.142-.007.254-.124.254-.266 0-.142-.112-.26-.254-.266h-.003zM5.98 1.497c.142-.007.254-.124.254-.266 0-.142-.112-.258-.253-.265h-.582c-.098-.005-.19.045-.24.13-.05.083-.05.188 0 .272.05.084.142.133.24.129h.582zM13.311 10.617h-2.565c-.146 0-.265.119-.265.265 0 .147.119.265.265.266h2.565c.147 0 .265-.12.266-.266 0-.146-.12-.265-.266-.265zM10.746 12.112h.584c.142-.007.254-.124.254-.265 0-.142-.112-.26-.254-.266h-.584c-.098-.004-.19.045-.24.13-.05.083-.05.188 0 .272.05.084.142.133.24.129z" transform="translate(0 13)"/>
                            </g>
                        </g>
                        <path fill="#E2EBFC" fill-rule="nonzero" d="M9.43 86.503S-.854 59.898 14.19 44.011c19.406-20.49 44.482-3.363 53.89-3.86 9.41-.498 9.94-20.16 38.054-22.51 21.737-1.816 57.437-1.958 49.82 30.164-5.79 24.422 26.426 11.772 20.155 38.752L9.43 86.503z"/>
                        <path fill="#EA8E50" fill-rule="nonzero" d="M31.426 52.14l.625.508s1.71-.613 2.096 1.42c0 0 .103.866-.446.867-.548.001-.322-.094-1.099-.071-.777.022-1.42-.388-1.533-1.018l-.372-.534.73-1.171z"/>
                        <path fill="#1E3D70" fill-rule="nonzero" d="M31.355 53.231c.5-.52.46-.908.46-.908s-5.777-4.729-6.36-5.114c-.397-.263-4.655-4.031-6.642-6.333-.986-1.14-2.208-.698-3.606-.296l-1.151.33c-1.39.397-1.751 2.343-.611 3.287 3.21 2.664 8.553 5.655 9.553 6.284 2.482 1.56 7.34 3.416 7.34 3.416s.589-.219 1.017-.666z"/>
                        <path fill="#FEDD74" fill-rule="nonzero" d="M37.947 82.284s1.402 1.05 3.55.495c0 0 1.731-.397 2.11.47 0 0-2.655 1.349-3.327 1.718-.507.278-1.035.717-1.409 1.056-.142.128-.33.193-.52.178-.192-.015-.368-.107-.488-.256-.117-.144-.251-.314-.398-.51-.409-.556-1.362-2.348-1.362-2.348l1.844-.803z"/>
                        <path fill="url(#70pt2jlvzb)" fill-rule="nonzero" d="M38.77 81.75s-.852 1.968-2.824 1.607c0 0-4.02-3.32-6.778-6.77-.896-1.12-1.659-2.253-2.106-3.292-1.83-4.234-6.765-10.549-9.904-13.75l7.852-2.839s2.515 5.06 5.861 11.274c2.412 4.477 5.254 9.553 7.898 13.77z"/>
                        <path fill="url(#863of76n2c)" fill-rule="nonzero" d="M39.227 44.383c.052-.48.067-.962.046-1.444-.01-.22.112-.423.311-.516l2.319-1.079c.25-.115.368-.402.274-.66l-.8-2.201c-.09-.247-.352-.387-.607-.324l-2.287.56c-.223.055-.456-.041-.576-.237-.523-.853-1.179-1.618-1.942-2.265-.186-.159-.24-.423-.132-.642l.633-1.288c.12-.245.036-.542-.195-.688l-1.96-1.243c-.233-.148-.54-.092-.707.127l-1.379 1.808c-1-.253-2.036-.341-3.066-.26-.218.017-.424-.103-.516-.301l-.868-1.87c-.118-.256-.412-.38-.678-.284l-2.161.786c-.263.096-.412.375-.345.647l.47 1.911c.054.22-.038.45-.228.574-.612.395-1.176.86-1.68 1.384-.163.168-.415.211-.625.108l-2.087-1.025c-.247-.121-.545-.037-.692.195l-1.238 1.952c-.15.237-.093.549.13.719l2.032 1.547c.171.13.246.351.19.559-.126.468-.215.946-.267 1.428-.028.26-.046.518-.052.774-.005.21-.129.399-.32.487l-2.226 1.034c-.248.115-.367.4-.273.657l.79 2.174c.097.264.376.413.649.346l1.812-.444c.24-.06.49.053.605.273.447.866 1.026 1.658 1.716 2.346.165.164.208.415.105.625l-.924 1.882c-.124.252-.038.558.2.708l1.944 1.237c.233.148.541.093.708-.127l1.35-1.773c.138-.182.374-.258.592-.192.532.155 1.077.263 1.628.322.3.033.6.05.897.057.206.003.392.123.48.31l.88 1.898c.12.256.415.38.68.284l2.166-.787c.259-.094.406-.368.34-.635l-.374-1.525c-.059-.24.054-.49.273-.606 1.108-.579 2.09-1.372 2.887-2.335.158-.189.424-.245.645-.136l1.69.825c.245.12.543.037.69-.194l1.236-1.951c.151-.239.095-.553-.13-.723l-1.95-1.484c-.162-.123-.24-.328-.2-.528.049-.254.088-.513.117-.777zm-7.338 3.695c-4.868 1.741-8.914-3.322-6.116-7.7.42-.658 1.366-1.42 2.1-1.688 4.875-1.796 8.955 3.242 6.208 7.626-.432.693-1.42 1.486-2.192 1.762z"/>
                        <path fill="url(#rrkj9fabad)" fill-rule="nonzero" d="M30.871 67.98l-1.703 8.61c-.896-1.12-1.659-2.255-2.106-3.294-1.83-4.233-6.765-10.548-9.904-13.75l7.852-2.838s2.515 5.057 5.861 11.273z"/>
                        <path fill="#FEDD74" fill-rule="nonzero" d="M24.452 83.426s-.086 1.571 1.816 1.78c0 0 1.149.024 1.152 1.022h-5.59s-.161-.403-.2-1.266c-.03-.663.643-2.397.643-2.397l2.179.861z"/>
                        <path fill="url(#gnlbjqd3le)" fill-rule="nonzero" d="M22.435 56.706s3.498 3.843 5.718 10.768c1.208 3.767-2.214 13.24-2.882 16.53 0 0-2.295.195-3.865-.412 0 0-.119-6.797.8-12.036.513-2.932-4.606-6.27-6.843-11.568-1.522-3.605.329-3.543 2.604-3.63l4.468.348z"/>
                        <path fill="url(#dbdxbhgssf)" fill-rule="nonzero" d="M18.397 39.559c-1.946 1.098-5.93.085-5.93.085s1.618-1.85.882-4.826l1.529.776 1.641.834c.087.487.147.978.18 1.47.019.244.035.516.047.813.598.18 1.157.467 1.651.848z"/>
                        <path fill="url(#kjvln9rr4g)" fill-rule="nonzero" d="M25.533 56.508c0 .34-.394.506-.478.522-.784.144-2.977.996-4.95 1.192-1.663.174-3.207.009-4.902-.332-.227-.045-.752-.187-.79-.402-.046-.238-6.54-13.239-1.492-18.824.119-.131 1.115.105 2.027.32.768.183 1.574.118 2.302-.185l.855.45c1.05.584 3.036 2.662 3.268 4.292.118.829.592 1.443.73 2.172.05.27.102.534.155.79.104.504.21.982.32 1.436.297 1.233.611 2.295.919 3.212.327.974.648 1.783.935 2.461.372.879.687 1.533.883 2.038.139.355.218.635.218.858z"/>
                        <path fill="url(#0366e8ngah)" fill-rule="nonzero" d="M25.315 55.651c-9.167-4.319-12.341-12.612-12.341-12.612s7.447 2.747 9.284 3.463c.104.504.21.983.32 1.437.297 1.233.611 2.295.919 3.212.327.974.648 1.783.935 2.461.372.88.686 1.538.883 2.039z"/>
                        <path fill="url(#952270e2pi)" fill-rule="nonzero" d="M30.678 53.148l.792.29s1.586-1.121 2.576.703c0 0 .358.795-.208.97-.565.175-.36.01-1.155.275-.795.264-1.577.074-1.878-.494l-.538-.397.411-1.347z"/>
                        <path fill="url(#qdllut9bdj)" fill-rule="nonzero" d="M31.33 54.269l.426-1.111s-5.985-4.878-6.595-5.297c-.415-.284-4.553-3.378-6.57-5.791-1.001-1.194-2.579-1.74-4.104-1.42l-1.257.264c-1.517.319-2.01 2.239-.833 3.248 3.315 2.838 8.905 6.137 9.948 6.823 2.587 1.703 8.31 4.087 8.31 4.087s.445-.203.675-.803z"/>
                        <path fill="#EA8E50" fill-rule="nonzero" d="M16.7 37.896c-1.915.108-3.16-1.472-3.16-1.472s.866-.48 1.338-.832l1.641.833c.087.487.147.978.18 1.471z"/>
                        <path fill="url(#hbm01t82vk)" fill-rule="nonzero" d="M17.514 35.932s-2.9 2.08-4.167.255c-1.268-1.825-2.498-2.786-.7-4.192 1.8-1.406 2.646-.962 3.218-.454.571.507 2.371 3.802 1.65 4.39z"/>
                        <path fill="url(#26tr6nk1nl)" fill-rule="nonzero" d="M16.171 29.89c-.06-.412-.174-.814-.34-1.195 0 0-.182.753-1.56.65-1.377-.105-3.56.135-4.288 1.702-.046.101-.087.205-.122.31-.132-.348-.164-.869-.164-.869-.262.676 0 1.521 0 1.521l-.01.074c-.304.257-.56 1.056-.56 1.056.092-.223.316-.369.515-.458-.006 1.222.49 2.415 1.359 2.771 1.271.52 1.261.124 2.54.972 0 0 .34-.426.109-.712-.232-.286-1.118-.702-.625-1.117.494-.416.676.051.858-.234.182-.286-.728-1.118.442-1.898 1.17-.78 1.951-1.871 1.846-2.573z"/>
                        <path fill="#203966" fill-rule="nonzero" d="M151.342 83.668s.157 2.52.644 2.555c.064.005 2.472.005 2.472.005h3.076s-.023-.759-.921-.915c-.898-.156-2.402-.788-2.946-1.975-.572-1.248-2.325.33-2.325.33z"/>
                        <path fill="url(#4wyzyao9zm)" fill-rule="nonzero" d="M139.171 62.962c.439.812.93 1.595 1.47 2.344 1.617 2.277 3.377 4.15 3.682 5.925.07.384.164.764.284 1.135.128.406.284.834.469 1.276.686 1.66 1.712 3.52 2.735 5.215 1.77 2.925 3.436 5.367 3.436 5.367l3.053-.145c-.122-.34-1.454-4.38-3.236-9.317l-2.235-6.192-.296-.819-.668-1.851-3.005-8.326s-6.685-2.825-7.38-.995c-.57 1.51-.105 2.988 1.691 6.383z"/>
                        <path fill="#203966" fill-rule="nonzero" d="M144.787 80.938s-1.118 1.036-.9 1.773c.22.736 1.227 1.227 1.363 2.127.136.9.681 1.391 1.172 1.391h2.341s.361-.633-.51-.824c-.873-.192-1.203-1.25-1.148-2.23.054-.982-.082-2.291-.082-2.291l-1.855-.437-.38.491z"/>
                        <path fill="url(#q51dghvdsn)" fill-rule="nonzero" d="M145.778 57.226s7.035 11.412 7.035 12.32c0 2.008-5.315 13.569-5.315 13.569s-2.821-1.49-2.708-2.537c0 0 1.692-8.118 2.184-9.42.493-1.302-8.89-6.22-9.382-12.158l8.186-1.774z"/>
                        <path fill="url(#tkdk34bl9o)" fill-rule="nonzero" d="M149.225 51.358s1.451.825 1.857.825c.406 0 2-.308 2.445-.081.444.227 1.249 1.14 1.4 1.44.27.536-1.093.299-1.738-.159-.093-.066-.21-.09-.322-.066-.334.073-1.028.2-1.363.075-.45-.166-2.823-.352-2.823-.352l.544-1.682z"/>
                        <path fill="url(#tpl6zq7d4p)" fill-rule="nonzero" d="M138.187 40.123s1.504 10.689 3.994 11.646c1.229.473 6.66 1.543 8.266 1.65 0 0 .394-.318.298-1.618 0 0-5.69-2.089-6.498-3.225-1.203-1.69.746-6.906-.763-8.494s-4.052-2.27-5.297.04z"/>
                        <path fill="url(#qlx8yynn7q)" fill-rule="nonzero" d="M144.067 39.45c-2.01.519-5.343-1.344-5.343-1.344s1.294-.87 1.773-2.782c.025-.096.046-.195.066-.296l1.033-.219 1.535 1.378c-.045.522-.12 1.04-.227 1.553-.033.17-.071.355-.113.551.492.305.925.697 1.276 1.158z"/>
                        <path fill="url(#nkjq3r6wxr)" fill-rule="nonzero" d="M136.595 47.782c.288 3.873-.09 9.765.236 10.783.284.88 3.494.357 4.776.063.475-.109 1.05-.264 1.643-.448 1.656-.51 3.46-1.245 3.654-1.788.008-.02.014-.041.018-.063.016-.075.015-.152-.003-.227-.065-.276-.314-.576-.341-1.262-.033-.766-.028-1.668-.057-2.638 0-.109 0-.227-.015-.337V51.763c-.027-1.081-.084-2.219-.15-3.35-.04-.708-.09-1.41-.145-2.081-.145-1.735-.34-3.278-.596-4.253-.421-1.59-1.35-2.627-2.195-3.387l-.61-.525c-.682.15-1.489.05-2.215-.295-.79-.375-1.062-.643-1.2-.542-1.829 1.408-3.14 5.717-2.8 10.452z"/>
                        <path fill="url(#0sepr0d8ps)" fill-rule="nonzero" d="M143.25 58.18c1.656-.51 3.46-1.245 3.654-1.788.008-.02.014-.041.018-.063 0-.076 0-.152-.003-.227-.065-.276-.314-.576-.341-1.262-.033-.766-.028-1.668-.057-2.638 0-.109 0-.227-.015-.337V51.763l-6.698-8.53s-4.5 9.37 3.442 14.947z"/>
                        <path fill="#D68D5D" fill-rule="nonzero" d="M143.131 36.187c-.045.522-.12 1.04-.227 1.553-1.498-.485-2.179-1.837-2.406-2.414.024-.096.046-.195.066-.296l1.032-.22 1.535 1.377z"/>
                        <path fill="url(#s057b8zxkt)" fill-rule="nonzero" d="M143.333 37.052s-3.27-.545-2.9-2.577c.372-2.031.2-3.47 2.304-3.207 2.103.262 2.366 1.112 2.407 1.82.04.709-.951 4.054-1.811 3.964z"/>
                        <path fill="#4A75CB" fill-rule="nonzero" d="M157.421 46.736H158.421V54.675H157.421z" transform="rotate(-161.99 157.573 50.705)"/>
                        <path fill="#4A75CB" fill-rule="nonzero" d="M148.165 53.946H156.49599999999998V54.946H148.165z" transform="rotate(-178.78 152.33 54.195)"/>
                        <path fill="url(#o6lqva4yiu)" fill-rule="nonzero" d="M148.333 54.745s2.676.705 3.68.631c1.003-.074 1.838-.551 1.964-.8.127-.25.392-.692-.291-.61-.684.082-1.617.227-1.647.095-.03-.131.557-.118.557-.118s.177-.258-.046-.267c-.223-.01-.874-.186-1.116-.065-.241.121-.464.568-.64.548-.177-.02-2.24-.93-2.24-.93l-.221 1.516z"/>
                        <path fill="url(#sb9i7sndjv)" fill-rule="nonzero" d="M138.852 40.562s.316 10.787 2.685 12.015c1.17.605 6.449 2.268 8.034 2.552 0 0 .426-.274.474-1.576 0 0-5.425-2.703-6.103-3.921-1.009-1.813 1.504-6.782.179-8.527-1.325-1.745-3.778-2.704-5.27-.543z"/>
                        <path fill="#203966" fill-rule="nonzero" d="M140.498 35.326s-.037-.697.392-1.096c0 0-.15-.699.127-.814.276-.115.334.472.461.38.127-.093.69-.53.933-1.175.242-.645 2.455.136 2.713.253.258.116 1.087-.31 1.25-.656 0 0-.462-.368-.67-.645-.206-.276-1.658-2.142-3.684-1.612-2.027.53-2.304 1.497-2.188 2.327.115.83-.165 2.76.666 3.038z"/>
                        <path fill="url(#2txz3ua9lw)" fill-rule="nonzero" d="M137.262 58.739l-6.337-3.816c-.524-.323-.823-.912-.775-1.525.065-.783.097-1.574.097-2.373.005-1.456-.105-2.91-.33-4.35-.11-.656.194-1.313.766-1.654l6.618-3.994c.712-.427.976-1.331.605-2.074l-3.115-6.343c-.353-.715-1.186-1.051-1.937-.783l-6.69 2.43c-.645.25-1.38.032-1.816-.533-1.85-2.39-4.067-4.471-6.569-6.167-.606-.42-.854-1.194-.605-1.888l1.485-4.067c.276-.78-.07-1.644-.807-2.018l-6.302-3.082c-.125-.065-.259-.111-.397-.138-.661-.137-1.336.162-1.68.743l-2.856 4.729-.694 1.153c-1.321-.188-2.653-.283-3.987-.284-1.782 0-3.56.164-5.31.493-.651.127-1.312-.166-1.655-.734l-3.211-5.337c-.439-.727-1.361-.997-2.123-.621l-4.85 2.38-1.387.686c-.76.37-1.119 1.255-.831 2.05l2.025 5.593c.245.638.05 1.362-.484 1.79-1.573 1.28-3.004 2.725-4.27 4.31-.114.127-.221.26-.322.398-.033.046-.072.09-.114.129-.446.474-1.133.633-1.742.403l-6.61-2.396c-.073-.03-.15-.05-.227-.065-.723-.142-1.452.214-1.784.872l-3.082 6.278c-.372.76-.102 1.677.621 2.115l6.61 3.978c.561.333.86.978.75 1.622-.221 1.447-.332 2.908-.331 4.371 0 .791.032 1.574.097 2.349.05.628-.259 1.232-.799 1.558l-6.358 3.84c-.706.426-.969 1.32-.606 2.058l3.091 6.27c.372.764 1.26 1.122 2.058.832l5.294-1.921c.705-.257 1.495 0 1.913.625 1.624 2.458 3.62 4.649 5.915 6.496.55.434.76 1.174.516 1.832l-2.163 5.955c-.287.8.07 1.688.832 2.066l6.254 3.075c.748.369 1.653.102 2.082-.613l.17-.275 3.317-5.495c.352-.587 1.03-.893 1.703-.767h.009c1.65.295 3.325.444 5.002.444.912 0 1.808-.049 2.704-.13.619-.064 1.22.234 1.541.767l3.26 5.415c.444.741 1.383 1.018 2.158.637l6.245-3.074c.17-.088.326-.203.46-.34.422-.45.559-1.097.355-1.68l-1.63-4.462c-.192-.545-.084-1.152.284-1.598.1-.116.214-.22.34-.306 3.145-2.099 5.84-4.804 7.925-7.957.35-.533.985-.806 1.614-.694.09.016.18.04.266.072l5.35 1.945c.778.281 1.643-.066 2.01-.807l.072-.145 3.01-6.117c.37-.77.094-1.696-.638-2.136zM87.253 46.674c.321-1.137.748-2.242 1.275-3.3 1.049-2.107 3.64-4.713 5.754-5.754.227-.113.454-.218.677-.323 13.832-6.214 27.172 7.368 20.466 21.207-.88 1.808-2.825 3.93-4.721 5.246-.411.284-.843.538-1.29.759-1.931.936-3.85 1.485-5.723 1.695-10.67 1.186-19.45-8.62-16.44-19.53h.002z"/>
                        <path fill="url(#o5nop2mw9x)" fill-rule="nonzero" d="M137.892 80.096l-1.414-.852c-.117-.072-.184-.203-.173-.34.014-.175.021-.352.021-.53.001-.325-.023-.65-.074-.971-.024-.146.044-.293.17-.37l1.477-.89c.16-.096.218-.297.135-.463l-.695-1.416c-.08-.16-.265-.235-.432-.175l-1.494.542c-.146.055-.311.007-.404-.118-.414-.534-.909-.998-1.467-1.377-.135-.093-.19-.266-.135-.421l.332-.908c.061-.174-.016-.367-.18-.45l-1.407-.688c-.028-.014-.057-.025-.088-.03-.147-.031-.298.035-.374.165l-.638 1.055-.155.258c-.295-.042-.592-.063-.89-.063-.397 0-.794.036-1.185.11-.145.028-.293-.037-.37-.164l-.716-1.192c-.097-.162-.303-.223-.473-.14l-1.083.532-.31.154c-.17.082-.25.28-.185.457l.454 1.25c.054.141.01.302-.108.397-.35.286-.67.608-.953.961-.026.03-.048.057-.072.089-.007.01-.015.02-.025.028-.1.106-.253.142-.389.09l-1.476-.534c-.016-.007-.033-.012-.05-.015-.162-.031-.324.048-.398.195l-.688 1.401c-.083.17-.023.374.139.472l1.476.888c.126.073.194.218.17.362-.05.323-.074.65-.074.976 0 .177.007.351.022.524.011.14-.058.275-.178.348l-1.42.857c-.157.095-.216.294-.135.46l.69 1.398c.083.171.281.251.46.186l1.18-.429c.158-.057.334 0 .427.139.363.549.808 1.038 1.32 1.45.123.098.168.262.114.409l-.482 1.329c-.065.178.015.377.185.46l1.396.687c.166.083.369.023.464-.137l.038-.06.738-1.227c.079-.13.23-.199.38-.17.369.066.742.099 1.117.099.203 0 .403-.011.603-.03.138-.014.272.053.344.171l.728 1.208c.099.166.308.227.48.143l1.395-.687c.038-.02.072-.045.102-.075.094-.1.125-.245.08-.375l-.364-.996c-.043-.121-.02-.256.063-.356.022-.026.047-.05.075-.069.702-.468 1.304-1.072 1.77-1.776.078-.118.219-.18.36-.155.02.004.04.01.059.017l1.192.434c.174.063.367-.015.449-.18l.015-.033.673-1.362c.083-.171.023-.378-.14-.477zm-11.162-2.69c.072-.255.167-.502.284-.739.234-.47.812-1.052 1.284-1.284.05-.025.1-.049.151-.072 3.087-1.387 6.064 1.646 4.568 4.733-.197.404-.63.877-1.054 1.17-.091.064-.188.121-.288.171-.4.198-.833.326-1.277.378-2.38.264-4.34-1.925-3.668-4.358z"/>
                        <path fill="#E2EBFC" fill-rule="nonzero" d="M184.266 53.73l-2.119-1.276c-.175-.108-.275-.305-.26-.51.022-.262.033-.527.033-.796 0-.487-.037-.973-.114-1.454-.036-.22.066-.44.257-.554l2.214-1.336c.24-.142.328-.445.203-.694l-1.04-2.123c-.118-.239-.397-.352-.648-.262l-2.237.813c-.22.082-.468.01-.608-.178-.619-.8-1.36-1.496-2.197-2.063-.203-.14-.286-.399-.203-.63l.497-1.363c.093-.261-.023-.55-.27-.675l-2.108-1.03c-.041-.023-.086-.038-.132-.047-.221-.046-.447.054-.562.248l-.955 1.582-.232.386c-.442-.063-.888-.094-1.334-.094-.596 0-1.19.055-1.776.164-.218.043-.439-.055-.553-.245l-1.074-1.785c-.147-.243-.456-.333-.71-.208l-1.622.795-.465.227c-.254.124-.374.42-.278.686l.678 1.87c.082.214.016.456-.162.6-.526.428-1.005.911-1.428 1.441-.04.043-.073.087-.108.132-.011.016-.024.03-.037.044-.15.158-.38.21-.584.134l-2.21-.801c-.025-.01-.05-.017-.076-.022-.242-.048-.486.072-.597.292l-1.03 2.1c-.125.255-.035.562.207.708l2.211 1.33c.188.112.288.328.25.543-.073.484-.11.973-.11 1.463 0 .265.011.527.033.786.016.21-.087.412-.268.52l-2.127 1.285c-.236.142-.324.441-.202.689l1.034 2.097c.124.255.421.375.688.278l1.77-.642c.236-.087.5-.001.64.207.544.822 1.211 1.555 1.979 2.173.183.146.252.393.17.613l-.723 1.992c-.096.267.023.565.278.69l2.092 1.03c.25.123.553.033.696-.206l.057-.091 1.11-1.839c.117-.195.343-.297.567-.256h.003c.552.099 1.112.148 1.673.148.305 0 .605-.016.905-.043.207-.021.407.078.515.256l1.09 1.811c.149.248.462.34.721.214l2.09-1.028c.056-.03.108-.068.153-.114.141-.15.187-.367.119-.561l-.545-1.493c-.064-.182-.029-.385.094-.534.033-.04.072-.074.114-.103 1.052-.702 1.953-1.607 2.65-2.661.118-.178.33-.27.54-.233.03.006.06.014.089.025l1.79.65c.26.094.549-.022.672-.27l.024-.048 1.007-2.044c.122-.255.032-.561-.21-.71zm-16.727-4.035c.107-.38.25-.75.426-1.104.351-.704 1.218-1.576 1.925-1.924.076-.038.151-.073.227-.108 4.627-2.078 9.088 2.464 6.845 7.093-.294.605-.944 1.315-1.579 1.755-.137.095-.282.18-.432.254-.6.296-1.248.488-1.913.567-3.57.398-6.506-2.884-5.499-6.534v.001zM84.205 13.953L81.96 12.91c-.186-.089-.306-.274-.312-.48-.007-.262-.025-.526-.053-.791-.05-.485-.14-.965-.267-1.435-.06-.215.017-.444.195-.578l2.057-1.567c.221-.167.277-.478.126-.711L82.441 5.35c-.143-.225-.432-.307-.672-.19l-2.137 1.05c-.21.105-.465.059-.624-.114-.702-.728-1.514-1.34-2.407-1.814-.217-.117-.327-.366-.27-.605l.348-1.407c.064-.269-.082-.544-.34-.641L74.13.835c-.043-.017-.09-.028-.136-.032-.225-.021-.438.102-.531.308l-.78 1.675-.189.409c-.446-.015-.892.002-1.336.05-.592.063-1.177.182-1.747.354-.212.066-.442-.008-.577-.185l-1.26-1.658c-.172-.226-.488-.282-.728-.13l-1.526.966-.438.278c-.24.15-.326.457-.202.711l.875 1.79c.105.203.066.45-.096.612-.478.483-.902 1.016-1.266 1.59-.036.047-.063.094-.094.143-.008.017-.02.033-.032.047-.132.175-.356.253-.568.197l-2.284-.559c-.025-.007-.051-.011-.077-.013-.246-.021-.475.124-.562.354l-.795 2.196c-.096.266.027.562.284.681l2.34 1.085c.2.09.322.294.31.511-.022.49-.006.98.047 1.467.028.262.067.522.117.777.04.207-.042.419-.21.547l-1.976 1.507c-.22.166-.274.473-.127.705l1.254 1.974c.151.24.46.327.714.202l1.69-.829c.226-.112.498-.055.66.137.628.76 1.37 1.416 2.2 1.947.2.125.296.363.239.591l-.506 2.06c-.066.276.085.558.351.656l2.191.795c.262.096.553-.025.67-.279l.046-.097.905-1.947c.096-.208.31-.334.539-.316.56.038 1.122.027 1.68-.033.303-.033.599-.081.894-.14.203-.044.414.033.54.199l1.28 1.683c.174.23.494.287.738.134l1.966-1.249c.053-.035.1-.079.14-.13.124-.164.146-.384.057-.57l-.703-1.426c-.084-.174-.07-.38.036-.541.029-.042.063-.08.102-.114.97-.81 1.77-1.805 2.351-2.928.098-.19.298-.303.511-.289.03.003.061.007.091.015l1.85.454c.268.065.543-.081.639-.34l.019-.051.78-2.143c.097-.27-.027-.569-.286-.69zM67.14 11.744c.065-.39.167-.773.305-1.143.272-.738 1.04-1.698 1.703-2.12.071-.047.142-.09.214-.133 4.375-2.565 9.3 1.47 7.57 6.314-.228.633-.798 1.41-1.381 1.915-.127.11-.261.21-.402.299-.566.36-1.188.62-1.841.77-3.503.779-6.776-2.165-6.168-5.902z"/>
                        <path fill="url(#5ft4c7kryy)" fill-rule="nonzero" d="M97.844 77.146c.122.135.155.33.083.496-.12.33-.515.7-.975 1.069-.057.047-.113.09-.156.13l-.035.031-.027.025c-.428.397-.267.485-1.036 1.286-.876.912-1.48.928-1.652.845-.145-.07.15-.555.477-1.099l.048-.079.13-.218c.383-.655.283-.962.194-1.936-.074-.794-1.232-4.422-1.232-4.422l1.68-.29s.507 2.892 1.064 3.337c.298.237.632.24.918.416.02.012.04.025.057.038.17.102.325.227.462.371z"/>
                        <path fill="#1A57CF" fill-rule="nonzero" d="M97.844 77.146c.122.135.155.33.083.496-.147.33-.532.698-.976 1.066-.057.048-.11.092-.155.133l-.035.031-.027.025c-.428.397-.267.485-1.036 1.286-.876.912-1.48.928-1.652.845-.145-.07.15-.555.477-1.099.613-.239 1.153-.636 1.563-1.151.528-.674.88-1.54 1.24-2.044.02.013.04.025.056.038.17.103.325.23.462.374z"/>
                        <path fill="url(#h32q9isfcz)" fill-rule="nonzero" d="M84.294 76.1c-.103.518-.843.431-1.669.226-.826-.205-.63.04-1.805-.092-1.176-.13-1.533-.567-1.568-.743-.032-.155.55-.21 1.172-.284.079-.008.157-.018.236-.027.703-.089 1.219-.543 1.857-.916.606-.353 1.509-1.791 1.509-1.791l1.612.127s-.846 1.285-1.173 1.844c-.192.329-.182.763-.158 1.099.02.185.017.372-.013.556z"/>
                        <path fill="#1A57CF" fill-rule="nonzero" d="M82.625 76.326c-.826-.201-.63.04-1.805-.092-1.176-.13-1.533-.567-1.568-.743-.032-.155.55-.21 1.172-.284l.006.012c.504.324 1.085.505 1.684.524.795.02 1.642-.21 2.193-.2.02.183.016.369-.013.551-.103.521-.843.435-1.669.232z"/>
                        <path fill="url(#728uq2rzbA)" fill-rule="nonzero" d="M87.882 52.417s-.384-.941-.807-.98c-.422-.037-1.767-.249-1.863-.056-.096.193 0 .883.288 1.135.289.253 2.074.653 2.074.653l.308-.752z"/>
                        <path fill="url(#r9lxydgt4B)" fill-rule="nonzero" d="M90.473 65.788l3.475 9.35c.351.027.704-.005 1.045-.095.471-.136 1.01-.492 1.01-.492s-.861-8.979-2.44-10.844c-1.58-1.865-3.09 2.081-3.09 2.081z"/>
                        <path fill="url(#8ei5j9wi6C)" fill-rule="nonzero" d="M104.216 62.005s-9.984-3.376-12.21-2.658c-2.227.718-8.914 14.02-8.914 14.02s.15.2.563.355c.383.144 1.31.135 1.31.135s6.033-5.172 6.752-6.68c.719-1.509 1.006-2.946 1.724-2.802.718.145 9.266 3.52 11.205 1.508 1.94-2.012 1.432-4.624 1.432-4.624l-1.862.746z"/>
                        <path fill="url(#2rpk4qafzD)" fill-rule="nonzero" d="M98.115 46.3c-.16-.33-.34-.914-.425-1.957.013.104.193 1.42.699 2.162 2.076 1.363 6.056 5.916 5.977 6.778 0 0 1.402-2.377 1.426-2.391 0 0 2.586-3.289-.479-5.173-1.557-.957-1.55-2.185-1.484-3.253.065-1.067-.425-5.662-3.546-4.46 0 0-.5-.222-.725-.188 0 0 .184.034.277.13-.362-.02-.88.006-1.31.251-1.145.65-2.168 6.482-.41 8.1z"/>
                        <path fill="url(#r3mdobr6eE)" fill-rule="nonzero" d="M98.511 46.573c-.01.005 1.003.531 1.765.323.717-.196 1.185-1.125 1.175-1.127-.304-.06-.391-.478-.384-2.271l-.138.027-2.307.454s.053.726.054 1.41c.002.579-.033 1.123-.165 1.184z"/>
                        <path fill="#D68D5D" fill-rule="nonzero" d="M98.622 43.983s.053.726.054 1.41c1.291-.036 1.973-1.214 2.253-1.867l-2.307.457z"/>
                        <path fill="url(#r3zs94q28F)" fill-rule="nonzero" d="M101.168 43.275s.676-1.07.837-1.983c.114-.653-.216-3.072-2.647-2.725-.49.067-.958.244-1.37.517-.528.357-1.289 1.126-.437 3.236l.22.713 3.397.242z"/>
                        <path fill="url(#aleeynh8wG)" fill-rule="nonzero" d="M98.191 44.63s3.055.051 3.057-1.851c.002-1.903.397-3.18-1.553-3.293-1.95-.114-2.328.613-2.485 1.249-.157.636.186 3.834.981 3.896z"/>
                        <path fill="url(#829ntzuxgH)" fill-rule="nonzero" d="M98.304 39.441s.836 2.233 2.12 2.563c1.284.33 1.84-.014 1.84-.014s-.984-.782-1.189-2.147c0 0-2.14-1.464-2.77-.402z"/>
                        <path fill="url(#7gxgyhc1eI)" fill-rule="nonzero" d="M98.511 39.623s-.624.498-.776.983c-.153.485-.221 1.482-.511 1.448 0 0-.63-1.517.077-2.376.751-.91 1.21-.055 1.21-.055z"/>
                        <path fill="url(#y3tqqwom7J)" fill-rule="nonzero" d="M105.313 54.79c.301-1.262-.723-3.714-1.793-5.744-.97-1.838-1.979-3.331-2.069-3.277-2.56 1.52-2.792.256-2.792.256s-2.327.309-2.984 1.443c-.908 1.567-1.902 6.27-2.876 6.201-.448-.032-4.95-1.724-4.95-1.724s-.75.703-.606 1.564c0 0 2.223 1.49 4.103 2.438.994.503 1.892.852 2.314.755.857-.202 2.194-2.187 2.917-3.355l.005-.008c.922 5.223-.332 6.41.303 6.96.67.582 1.628-.276 3.735.637 1.382.6 3.3 1.467 4.591 1.617.678.08 1.183-.038 1.347-.496.48-1.329-1.82-4.858-1.245-7.266z"/>
                        <path fill="url(#9jdvftk88K)" fill-rule="nonzero" d="M106.558 62.057c-.164.458-.67.576-1.347.496-.893-.389-4.754-1.885-4.712-2.898.064-1.5.742-1.548.263-3.4-.385-1.487 3.183-4.252 3.751-4.853 1.07 2.03 1.1 2.126.799 3.389-.574 2.408 1.725 5.937 1.246 7.266z"/>
                        <path fill="#4A75CB" fill-rule="nonzero" d="M96.577 53.347c-.723 1.168-2.06 3.153-2.917 3.355-.422.1-1.32-.252-2.314-.755.725.188 1.43.183 2.115.114.742-.072.957-.982 2.13-2.347.762-.882.949-.66.986-.367z"/>
                        <path fill="url(#alofwmqc6L)" fill-rule="nonzero" d="M100.153 56.219s-.646-.503-1.257-.383c-.61.12-.908.539-.886.73.022.192.347.73.814.779.467.048 1.796-.288 1.796-.288l-.467-.838z"/>
                        <path fill="url(#qyswe5pt0M)" fill-rule="nonzero" d="M101.451 45.769s2.49.153 3.35 1.355c1.213 1.692 3.32 8.6 2.745 10.18l-7.574-.032s-.184-.857.072-1.272c.255-.415 4.405-1.086 4.598-1.277.193-.192-2.394-3.736-2.394-4.31 0-.575-.797-4.644-.797-4.644z"/>
                        <path fill="url(#7j9duz2mmN)" fill-rule="nonzero" d="M97.836 53.836L88.68 53.836 90.334 59.601 99.503 59.601z"/>
                        <path fill="url(#7t19cfaepO)" fill-rule="nonzero" d="M90.365 59.377H102.353V60.377H90.365z"/>
                        <path fill="#FFF" fill-rule="nonzero" d="M94.573 56.626c-.172-.568-.664-.967-1.236-1-.53 0-.839.448-.685 1 .171.568.664.966 1.235 1 .531-.002.84-.449.686-1z"/>
                        <rect width="16.278" height="4.277" x="47.699" y="69.221" fill="url(#drd4ke815P)" fill-rule="nonzero" rx=".917"/>
                        <path fill="url(#8oysr82goQ)" fill-rule="nonzero" d="M63.977 72.136v.443c-.002.506-.411.916-.917.918H48.616c-.506-.002-.916-.412-.917-.918v-.481h16.015c.089 0 .177.013.263.038z"/>
                        <path fill="#8BB0E3" fill-rule="nonzero" d="M51.176 73.498l-.65 2.466-2.711 10.264h-.284l1.566-8.516c0-.008.004-.017.005-.026l.775-4.211 1.299.023z"/>
                        <path fill="#4574C1" fill-rule="nonzero" d="M51.176 73.498l-.65 2.466c-.038.018-1.224.632-1.425 1.723l.775-4.212 1.3.023z"/>
                        <path fill="#8BB0E3" fill-rule="nonzero" d="M63.977 86.229h-.284l-2.209-8.361-.502-1.901-.65-2.467 1.3-.022.443 2.408.332 1.804c0 .009.004.017.006.026l1.564 8.513z"/>
                        <path fill="#E8C6A7" fill-rule="nonzero" d="M59.598 76.75h-.008c-.008 0-.008-.02.008 0z"/>
                        <path fill="#4574C1" fill-rule="nonzero" d="M62.073 75.884c-.24.349-.568 1.006-.59 1.982l-.502-1.901-.65-2.466 1.3-.023.442 2.408z"/>
                        <g fill-rule="nonzero">
                            <path fill="url(#o373st2ysR)" d="M18.086 16.215c.336-.35.564-.219.564-.219s3.964 3.044 4.342 3.265c.378.222 5.534.37 5.534.37s2.065-.022 2.566 1.038c.435.921.128 1.714-.322 2.297-.538.693-1.446.985-2.288.738-1.89-.552-5.65-1.678-6.352-2.108-1.566-.957-4.393-4.781-4.393-4.781.069-.224.188-.43.349-.6z" transform="translate(29 4.905)"/>
                            <path fill="url(#h8ljj3sqkS)" d="M22.359 13.257l-1.977-1.192c-.164-.101-.257-.285-.242-.477.02-.245.03-.492.03-.741.002-.455-.033-.91-.103-1.359-.034-.205.06-.41.24-.517l2.062-1.25c.223-.133.305-.415.19-.648l-.974-1.981c-.11-.224-.37-.329-.605-.245l-2.09.759c-.205.077-.437.009-.568-.166-.578-.747-1.27-1.397-2.052-1.927-.188-.131-.266-.373-.19-.59l.465-1.27c.088-.244-.02-.515-.25-.631l-1.97-.965c-.04-.02-.08-.035-.124-.043-.206-.043-.417.05-.524.232l-.893 1.476-.216.36c-.413-.058-.83-.088-1.246-.088-.557 0-1.112.051-1.659.154-.203.04-.41-.05-.517-.227L8.143.254C8.005.027 7.717-.057 7.479.06L5.964.804l-.432.218c-.238.116-.35.392-.26.64l.633 1.747c.076.2.015.426-.152.56-.491.4-.938.851-1.334 1.346-.036.04-.07.08-.1.124-.011.015-.023.028-.036.04-.14.148-.354.198-.544.126l-2.065-.749c-.023-.009-.047-.016-.071-.02-.226-.045-.454.067-.557.273L.08 7.07c-.116.237-.032.523.194.66L2.34 8.974c.175.104.268.305.234.506-.069.452-.104.91-.103 1.367 0 .247.01.491.03.734.016.196-.081.385-.25.486l-1.987 1.2c-.219.134-.3.413-.186.643l.966 1.959c.116.238.393.35.642.26l1.654-.6c.22-.08.467 0 .598.193.507.769 1.13 1.453 1.848 2.03.172.136.237.367.161.572l-.676 1.861c-.09.25.022.527.26.645l1.954.961c.234.116.517.032.65-.191l.054-.086 1.036-1.717c.11-.183.322-.279.532-.24.516.093 1.039.14 1.563.14.284 0 .565-.016.844-.041.194-.02.382.073.482.24l1.018 1.691c.14.231.432.318.674.199l1.956-.96c.053-.026.1-.062.142-.103.133-.14.177-.343.114-.525l-.511-1.394c-.06-.17-.027-.36.088-.5.03-.036.066-.068.106-.095.982-.656 1.824-1.501 2.475-2.486.11-.167.308-.252.505-.217.028.005.056.013.083.023l1.672.607c.243.086.512-.022.627-.252l.023-.045.94-1.911c.118-.242.031-.533-.2-.67zM6.735 9.488c.1-.355.233-.7.397-1.031.328-.658 1.135-1.473 1.798-1.798.07-.035.14-.068.212-.101 4.32-1.941 8.489 2.302 6.394 6.626-.275.565-.883 1.228-1.476 1.64-.129.088-.264.167-.404.236-.561.277-1.166.456-1.787.53-3.332.37-6.075-2.693-5.134-6.102z" transform="translate(29 4.905)"/>
                            <path fill="url(#la5lrlk49T)" d="M13.705 17.212s.006-1.464-.227-1.89c-.233-.426-.76-.958-1.06-.788-.3.17-.398 1.597-.302 1.852.095.256.777 1.214.777 1.214l.812-.388z" transform="translate(29 4.905)"/>
                            <path fill="#2C3A64" d="M31.85 64.316c.326-.28.13-1.844.13-1.844s-1.68-1.344-1.91-.315c-.23 1.029-1.597 1.491-2.374 1.617-.518.084-.69.364-.748.542h4.902z" transform="translate(29 4.905)"/>
                            <path fill="url(#zg55zlwvlU)" d="M32.039 62.545c-1.556.242-2.125-.129-2.125-.129.02-1.532-.454-4.987-1.1-8.953-.852-5.23-2.012-11.35-2.744-15.123-.42-2.17-.701-3.564-.701-3.564l1.272-.025 6.34-.126s-.474 7.018-.344 10.484c.03.827.097 1.453.21 1.731 1.081 2.626-.808 15.705-.808 15.705z" transform="translate(29 4.905)"/>
                            <g transform="translate(29 4.905)">
                                <use fill="#E8505B" xlink:href="#19v0ppg80V"/>
                                <use fill="url(#jlq29x5utW)" xlink:href="#19v0ppg80V"/>
                            </g>
                            <path fill="#2C3A64" d="M26.51 64.316c.327-.28.13-1.844.13-1.844s-1.68-1.344-1.91-.315c-.231 1.029-1.596 1.491-2.373 1.617-.519.084-.691.364-.749.542h4.902z" transform="translate(29 4.905)"/>
                            <path fill="url(#rlejcal7wX)" d="M22.613 34.623s2.49 23.048 1.997 27.696c0 0 .532.416 2.101.32 0 0 2.846-13.277 2.243-15.425-.419-1.494 1.25-12.044 1.25-12.044l-7.591-.547z" transform="translate(29 4.905)"/>
                            <path fill="url(#abs48x2zpY)" d="M28.745 18.142s-3.167 1.582-4.739.86c0 0 .66-.854 1.4-1.209-.016-.284-.025-.536-.03-.761-.014-.75.024-1.172.024-1.172l1.366-.993.926-.673c-.05.383-.062.77-.037 1.157.122 1.82 1.09 2.79 1.09 2.79z" transform="translate(29 4.905)"/>
                            <path fill="#ED975D" d="M27.655 15.35s-.739 1.472-2.277 1.682c-.014-.75.023-1.171.023-1.171l1.366-.994c.598.225.888.482.888.482z" transform="translate(29 4.905)"/>
                            <path fill="url(#90n6wh6nkZ)" d="M25.047 15.765s2.835 1.01 3.436-.765c.601-1.776 1.373-2.839-.412-3.56-1.784-.722-2.368-.163-2.713.381-.345.544-1.034 3.636-.311 3.944z" transform="translate(29 4.905)"/>
                            <path fill="url(#cpv3jcmojaa)" d="M33.182 34.623c-.444.925-10.27.884-10.755.232-.198-.265-.424-2.917-.554-6-.07-1.709-.113-3.55-.105-5.19.015-2.677.164-4.819.542-4.983 2.106-.913 3.406-1.494 6.158-1.41.85.023 1.615.516 1.987 1.28.657 1.367 1.597 3.79 1.669 6.656.11 4.407 1.617 8.25 1.058 9.415z" transform="translate(29 4.905)"/>
                            <path fill="url(#7xfv2a62aab)" d="M24.947 21.848s-.32 4.613-3.074 7.006c-.07-1.708-.113-3.549-.105-5.189.823-1.1 1.907-1.892 3.179-1.817z" transform="translate(29 4.905)"/>
                            <path fill="url(#we7psieyjac)" d="M26.301 17.37s-3.021.019-3.97.9c-.68.63-5.046 4.072-5.323 4.026-.277-.047-3.089-5.658-3.089-5.658s-1.386.117-1.617.717c0 0 1.306 7.007 4.127 8.53 0 0 7.13-1.352 9.246-3.71 1.09-1.215.626-4.806.626-4.806z" transform="translate(29 4.905)"/>
                            <path fill="#2B478B" d="M25.172 10.436s.17 1.693.677 2.157c.506.464.374 1.099.43 1.192.055.094.581-.18.674-.024.213.359-.12.62-.33.707-.21.087.537 1.54 1.086 1.593.948.094 2.414-2.53 2.538-3.3.162-1.005-.408-2.573-2.04-2.497-2.567.12-3.087-.437-3.035.172z" transform="translate(29 4.905)"/>
                        </g>
                    </g>
                    <g fill-rule="nonzero" transform="translate(-1169 -348) translate(404 330) translate(765 18) translate(134 2)">
                        <path fill="#FFF" d="M19.012 22.689V1.649H0v21.04c0 .448.177.878.494 1.195.316.316.746.494 1.194.494h15.634c.449 0 .878-.178 1.195-.494.317-.317.495-.747.495-1.195z"/>
                        <rect width="2.258" height="5.455" x="2.977" y="16.934" fill="#F1F4F9" rx=".519"/>
                        <path fill="#E5EDFA" d="M5.233 19.872v2.182c0 .185-.15.335-.335.335H3.312c-.185 0-.335-.15-.335-.335v-1.89c.402-.233 1.088-.401 2.256-.292z"/>
                        <rect width="2.258" height="9.328" x="6.305" y="13.059" fill="#F1F4F9" rx=".519"/>
                        <path fill="#E5EDFA" d="M8.563 19.965v2.089c0 .185-.15.334-.335.335H6.64c-.184-.001-.334-.15-.335-.335v-2.038c.751.097 1.513.08 2.258-.051z"/>
                        <rect width="2.258" height="12.185" x="9.992" y="10.202" fill="#F1F4F9" rx=".519"/>
                        <path fill="#FFF" d="M9.992 19.535c.808-.358 1.567-.82 2.258-1.372v3.881c-.001.185-.15.334-.335.335h-1.588c-.184 0-.334-.15-.335-.335v-2.509z"/>
                        <path fill="#E5EDFA" d="M9.992 19.535c.808-.358 1.567-.82 2.258-1.372v3.881c-.001.185-.15.334-.335.335h-1.588c-.184 0-.334-.15-.335-.335v-2.509z"/>
                        <rect width="2.258" height="15.541" x="13.604" y="6.848" fill="#F1F4F9" rx=".335"/>
                        <path fill="#E5EDFA" d="M15.86 17.248v4.798c0 .185-.15.335-.335.335H13.94c-.186 0-.336-.15-.336-.335v-4.933c.777-.48 1.58-.27 2.256.135z"/>
                        <path fill="url(#uapoqfivyad)" d="M12.628 5.466l-2.083.447.556.555-3.19 3.254-1.122-1.098-3.959 4.038c-.152.152-.152.4 0 .552.153.152.4.152.553 0l3.414-3.479 1.12 1.098 3.74-3.812.56.549.411-2.104z"/>
                        <g>
                            <use fill="#55A6FF" xlink:href="#8pc9tuscbae"/>
                            <use fill="url(#puzmxdwitaf)" xlink:href="#8pc9tuscbae"/>
                        </g>
                        <circle cx="13.791" cy="1.599" r="1" fill="#E5EDFA"/>
                        <path fill="#E5EDFA" d="M16.411 1.6c-.001.34-.278.616-.619.615-.34 0-.616-.278-.616-.618 0-.341.277-.617.618-.617.164 0 .321.065.437.182.116.116.18.273.18.437zM18.33 1.6c0 .25-.151.476-.383.572-.232.096-.498.042-.675-.135-.177-.178-.23-.445-.133-.676.096-.231.323-.382.574-.381.164 0 .32.065.437.182.116.116.18.273.18.437z"/>
                    </g>
                    <g fill-rule="nonzero">
                        <path fill="url(#u06hek4neag)" d="M8.732 38.06S.48 35.31 1.312 30.6c.834-4.71 5.086-2.943 5.086-2.943S-2.674 18.223.788 14.28c2.338-2.668 6.129 2.627 6.129 2.627S-.131.557 7.864.012c7.994-.544 2.604 16.895 2.604 16.895s3.941-6.103 6.697-4.115c2.756 1.987-4.735 14.463-4.735 14.463s5.209-3.144 6.45 1.364c1.24 4.507-5.1 9.461-5.1 9.461" transform="translate(-1169 -348) translate(404 330) translate(765 18) translate(0 48)"/>
                        <path fill="url(#3tkl6rbdsah)" d="M19.336 38.08s-5.58-1.861-5.01-5.056c.57-3.196 3.436-1.984 3.436-1.984s-6.136-6.379-3.786-9.051c1.582-1.806 4.146 1.77 4.146 1.77s-4.77-11.062.632-11.43c5.404-.369 1.756 11.43 1.756 11.43s2.667-4.13 4.533-2.784c1.865 1.346-3.195 9.783-3.195 9.783s3.526-2.129 4.364.922c.837 3.05-3.45 6.4-3.45 6.4" transform="translate(-1169 -348) translate(404 330) translate(765 18) translate(0 48)"/>
                    </g>
                    <g fill-rule="nonzero" transform="translate(-1169 -348) translate(404 330) translate(765 18) matrix(-1 0 0 1 177 23)">
                        <path fill="url(#xj2xumfuvai)" d="M8.226 0c4.542 0 8.224 3.004 8.224 6.72 0 2.192-1.29 4.141-3.287 5.368.084.616.42 1.17.93 1.528-1.016.32-2.125.078-2.915-.635-.956.298-1.95.45-2.952.448C3.682 13.429 0 10.424 0 6.709 0 2.993 3.688 0 8.226 0z"/>
                        <circle cx="11.707" cy="6.874" r="1" fill="#FFF"/>
                        <circle cx="8.226" cy="6.874" r="1" fill="#FFF"/>
                        <circle cx="4.743" cy="6.874" r="1" fill="#FFF"/>
                    </g>
                </g>
            </g>
        </g>
    </g>
</svg>
