<?xml version="1.0" encoding="UTF-8"?>
<svg viewBox="0 0 133 86" xmlns="http://www.w3.org/2000/svg" xmlns:xlink="http://www.w3.org/1999/xlink">
<defs>
<linearGradient id="ai" x1="50%" x2="-33.812%" y1="34.491%" y2="175.07%">
<stop stop-color="#F7FAFF" offset="0"/>
<stop stop-color="#6B9AD9" offset="1"/>
</linearGradient>
<linearGradient id="w" x1="157.42%" x2="118.84%" y1="-.376%" y2="87.034%">
<stop stop-color="#E5EDFF" offset="0"/>
<stop stop-color="#6B9AD9" offset="1"/>
</linearGradient>
<linearGradient id="av" x1="97.814%" x2="80.64%" y1="-39.692%" y2="115.94%">
<stop stop-color="#E5EDFF" offset="0"/>
<stop stop-color="#6B9AD9" offset="1"/>
</linearGradient>
<linearGradient id="s" x1="71.251%" x2="63.618%" y1="-39.692%" y2="115.94%">
<stop stop-color="#E5EDFF" offset="0"/>
<stop stop-color="#6B9AD9" offset="1"/>
</linearGradient>
<linearGradient id="ad" x1="157.42%" x2="118.84%" y1="-39.557%" y2="115.84%">
<stop stop-color="#E5EDFF" offset="0"/>
<stop stop-color="#6B9AD9" offset="1"/>
</linearGradient>
<linearGradient id="x" x1="157.42%" x2="118.84%" y1="40.491%" y2="56.99%">
<stop stop-color="#E5EDFF" offset="0"/>
<stop stop-color="#6B9AD9" offset="1"/>
</linearGradient>
<linearGradient id="l" x1="155.24%" x2="117.44%" y1="-39.692%" y2="115.94%">
<stop stop-color="#E5EDFF" offset="0"/>
<stop stop-color="#6B9AD9" offset="1"/>
</linearGradient>
<linearGradient id="ap" x1="83.28%" x2="111.03%" y1="49.574%" y2="59.93%">
<stop stop-color="#476DB1" offset="0"/>
<stop stop-color="#283F6F" offset="1"/>
</linearGradient>
<linearGradient id="ac" x1="83.28%" x2="59.889%" y1="49.936%" y2="50.078%">
<stop stop-color="#476DB1" offset="0"/>
<stop stop-color="#283F6F" offset="1"/>
</linearGradient>
<linearGradient id="b" x1="50%" x2="50%" y1="-142.33%" y2="170.16%">
<stop stop-color="#95B7E5" offset="0"/>
<stop stop-color="#476DB1" offset="1"/>
</linearGradient>
<linearGradient id="p" x1="50%" x2="57.55%" y1="32.119%" y2="115.98%">
<stop stop-color="#84F0A8" offset="0"/>
<stop stop-color="#48B676" offset="1"/>
</linearGradient>
<linearGradient id="aq" x1="157.42%" x2="118.84%" y1="13.318%" y2="76.967%">
<stop stop-color="#E5EDFF" offset="0"/>
<stop stop-color="#6B9AD9" offset="1"/>
</linearGradient>
<linearGradient id="aj" x1="149.38%" x2="157.42%" y1="44.757%" y2="56.513%">
<stop stop-color="#E5EDFF" offset="0"/>
<stop stop-color="#6B9AD9" offset="1"/>
</linearGradient>
<linearGradient id="q" x1="83.28%" x2="59.889%" y1="36.881%" y2="66.019%">
<stop stop-color="#476DB1" offset="0"/>
<stop stop-color="#283F6F" offset="1"/>
</linearGradient>
<linearGradient id="ar" x1="50%" x2="-33.859%" y1="21.493%" y2="193.6%">
<stop stop-color="#EEF3FF" offset="0"/>
<stop stop-color="#6B9AD9" offset="1"/>
</linearGradient>
<linearGradient id="r" x1="157.42%" x2="118.84%" y1="1.368%" y2="85.752%">
<stop stop-color="#E5EDFF" offset="0"/>
<stop stop-color="#6B9AD9" offset="1"/>
</linearGradient>
<linearGradient id="af" x1="50%" x2="55.228%" y1="30.731%" y2="96.487%">
<stop stop-color="#1542AB" offset="0"/>
<stop stop-color="#2B68EE" offset="1"/>
</linearGradient>
<linearGradient id="a" x1="100%" x2="0%" y1="50%" y2="50%">
<stop stop-color="#2865C6" offset="0"/>
<stop stop-color="#10378A" offset="1"/>
</linearGradient>
<linearGradient id="n" x1="60.731%" x2="52.081%" y1="27.705%" y2="50%">
<stop stop-color="#3485F7" offset="0"/>
<stop stop-color="#1A57CF" offset="1"/>
</linearGradient>
<linearGradient id="aa" x1="52.998%" x2="50%" y2="100%">
<stop stop-color="#FFF" offset="0"/>
<stop stop-color="#E5EEFF" offset="1"/>
</linearGradient>
<linearGradient id="ae" x1="85.097%" x2="4.854%" y1="88.598%" y2="-13.247%">
<stop stop-color="#032258" offset="0"/>
<stop stop-color="#133E94" offset="1"/>
</linearGradient>
<linearGradient id="z" x1="85.097%" x2="4.854%" y1="93.45%" y2="-21.197%">
<stop stop-color="#032258" offset="0"/>
<stop stop-color="#133E94" offset="1"/>
</linearGradient>
<linearGradient id="k" x1="60.731%" x2="50%" y1="6.399%" y2="93.601%">
<stop stop-color="#FFF" offset="0"/>
<stop stop-color="#E5EEFF" offset="1"/>
</linearGradient>
<linearGradient id="ao" x1="85.097%" x2="4.854%" y1="107.13%" y2="-43.607%">
<stop stop-color="#032258" offset="0"/>
<stop stop-color="#133E94" offset="1"/>
</linearGradient>
<linearGradient id="au" x1="69.466%" x2="69.466%" y1="75.602%" y2="14.038%">
<stop stop-color="#F4AF92" offset="0"/>
<stop stop-color="#EC906C" offset="1"/>
</linearGradient>
<linearGradient id="y" x1="50%" x2="64.392%" y1="32.119%" y2="115.98%">
<stop stop-color="#84F0A8" offset="0"/>
<stop stop-color="#48B676" offset="1"/>
</linearGradient>
<linearGradient id="ak" x1="85.097%" x2="4.854%" y1="78.811%" y2="2.79%">
<stop stop-color="#032258" offset="0"/>
<stop stop-color="#133E94" offset="1"/>
</linearGradient>
<linearGradient id="i" x1="-8.771%" x2="17.311%" y1="92.431%" y2="25.418%">
<stop stop-color="#FAD0BA" offset="0"/>
<stop stop-color="#F2A384" offset="1"/>
</linearGradient>
<linearGradient id="ab" x1="52.696%" x2="50.523%" y2="50%">
<stop stop-color="#3485F7" offset="0"/>
<stop stop-color="#1A57CF" offset="1"/>
</linearGradient>
<linearGradient id="an" x1="50%" x2="51.394%" y1="27.773%" y2="103.62%">
<stop stop-color="#1542AB" offset="0"/>
<stop stop-color="#2B68EE" offset="1"/>
</linearGradient>
<linearGradient id="ah" x1="54.615%" x2="50%" y2="100%">
<stop stop-color="#FFF" offset="0"/>
<stop stop-color="#E5EEFF" offset="1"/>
</linearGradient>
<linearGradient id="c" x1="50%" x2="50%" y1="-10.877%" y2="100%">
<stop stop-color="#FFE579" offset="0"/>
<stop stop-color="#FEB755" offset="1"/>
</linearGradient>
<linearGradient id="am" x1="72.104%" x2="21.568%" y1="109.3%" y2="-47.176%">
<stop stop-color="#032258" offset="0"/>
<stop stop-color="#133E94" offset="1"/>
</linearGradient>
<linearGradient id="aw" x1="43.268%" x2="65.817%" y1="16.652%" y2="115.98%">
<stop stop-color="#84F0A8" offset="0"/>
<stop stop-color="#48B676" offset="1"/>
</linearGradient>
<linearGradient id="m" x1="45.482%" x2="61.044%" y1="-18.87%" y2="90.195%">
<stop stop-color="#84F0A8" offset="0"/>
<stop stop-color="#48B676" offset="1"/>
</linearGradient>
<linearGradient id="d" x1="83.28%" x2="59.889%" y1="11.314%" y2="97.238%">
<stop stop-color="#476DB1" offset="0"/>
<stop stop-color="#283F6F" offset="1"/>
</linearGradient>
<linearGradient id="u" x1="75.161%" x2="57.476%" y1="11.256%" y2="97.31%">
<stop stop-color="#476DB1" offset="0"/>
<stop stop-color="#283F6F" offset="1"/>
</linearGradient>
<linearGradient id="j" x1="50%" x2="50%" y1="-104.29%" y2="100%">
<stop stop-color="#FFF" offset="0"/>
<stop stop-color="#B3CDEF" offset="1"/>
</linearGradient>
<linearGradient id="as" x1="50%" x2="53.821%" y1="32.119%" y2="115.98%">
<stop stop-color="#84F0A8" offset="0"/>
<stop stop-color="#48B676" offset="1"/>
</linearGradient>
<linearGradient id="al" x1="53.24%" x2="50%" y2="100%">
<stop stop-color="#FFF" offset="0"/>
<stop stop-color="#E5EEFF" offset="1"/>
</linearGradient>
<linearGradient id="at" x1="157.42%" x2="118.84%" y1="14.792%" y2="75.884%">
<stop stop-color="#E5EDFF" offset="0"/>
<stop stop-color="#6B9AD9" offset="1"/>
</linearGradient>
<linearGradient id="t" x1="149.38%" x2="157.42%" y1="44.968%" y2="56.251%">
<stop stop-color="#E5EDFF" offset="0"/>
<stop stop-color="#6B9AD9" offset="1"/>
</linearGradient>
<path id="h" d="M2.146 2.68h.322V1.502c0-.355.288-.643.644-.643.355 0 .644.288.644.643v1.823c0 .355-.289.643-.644.643-.037 0-.073-.003-.108-.009-.034.006-.07.01-.107.01h-.751v1.715H0v-4.61C0 .48.48 0 1.073 0s1.073.48 1.073 1.072v1.609z"/>
<path id="g" d="M3.022.371C5.12-.847 7.522 2.152 8.086 3.37c.564 1.217 2.162 1.23 1.497 6.743-.444 3.675-.278 5.662.5 5.96 1.396-.198 1.76.642 1.09 2.52-1.005 2.82-2.326 2.786-4.854 3.099-2.529.313-4.366-.535-5.402-1.75-1.036-1.214 1.3-3.667 0-5.986C.415 13.06.044 7.565.044 5.77c0-1.795.879-4.18 2.978-5.399z"/>
<path id="f" d="M1.61 4.365C-.073 10.768-.363 15.84.743 19.58 2.4 25.19-.304 31.71.33 34.807c3.16.329 5.92 1.927 8.278 4.796.997-1.277 1.444-4.08 1.34-8.411-.155-6.496-1.711-6.857-1.951-9.814-.16-1.972-.16-4.425 0-7.36L5.787 2.92C4.732 2.05 3.91 1.437 3.325 1.082 2.738.726 1.98.382 1.052.05l.559 4.314z"/>
<path id="e" d="M18.475 4.072c-.805 2.119-1.352 3.622-1.64 4.51-.43 1.333-.598 2.433-.502 3.298.29 2.596 1.096 3.447.397 9.657-.272 2.428-1.805 5.846-2.1 8.553-.461 4.217.672 5.676.388 6.374-.388.954-4.533.077-6.607 2.243-.668-1.289 1.87-5.832 1.87-6.526s.086-5.906 2.218-9.73c1.42-2.548 1.963-6.276 1.628-11.184-3.57-.686-6.182-1.581-7.835-2.685C4.64 7.48 2.542 5.1 0 1.442.38.48.814 0 1.305 0c.736 0 5.722 4.523 9.577 5.072 1.617.23 2.914-.725 4.136-1 1.944-.437 3.359-.42 3.594-.501.256-.088.383-.022.38.196l-.517.305z"/>
</defs>
<g fill="none" fill-rule="evenodd" opacity=".9">
<g>
<g fill-rule="nonzero">
<path transform="translate(.234)" d="M2.146 0h76.506c1.186 0 2.146.96 2.146 2.144v55.22c0 .236-.192.428-.429.428H.43c-.237 0-.429-.192-.429-.429V2.144C0 .96.96 0 2.146 0z" fill="url(#ai)"/>
<path transform="translate(42.618 14.69)" d="M.43 5.361h3.433c.237 0 .43.192.43.429v5.575c0 .237-.193.43-.43.43H.429c-.237 0-.429-.193-.429-.43V5.79c0-.237.192-.429.43-.429z" stroke="#8AAFE1" stroke-linecap="round" stroke-linejoin="round" stroke-width=".5"/>
<path transform="translate(42.618 14.69)" d="M11.16 3.217h3.433c.237 0 .43.192.43.429v7.72c0 .236-.193.428-.43.428H11.16c-.237 0-.429-.192-.429-.429v-7.72c0-.236.192-.428.43-.428z" stroke="#8AAFE1" stroke-dasharray="1.075 1.075" stroke-linecap="round" stroke-linejoin="round" stroke-width=".5"/>
<path transform="translate(42.618 14.69)" d="M16.524 8.578h3.434c.237 0 .43.192.43.429v2.358c0 .237-.193.43-.43.43h-3.434c-.237 0-.429-.193-.429-.43V9.007c0-.237.192-.43.43-.43z" fill="url(#w)"/>
<path transform="translate(42.618 14.69)" d="M21.997 5.361h3.434c.237 0 .429.192.429.429v5.575c0 .237-.192.43-.43.43h-3.433c-.237 0-.43-.193-.43-.43V5.79c0-.237.193-.429.43-.429z" fill="url(#av)"/>
<path transform="translate(42.618 14.69)" d="M27.362 2.144h3.434c.237 0 .429.192.429.43v8.791c0 .237-.192.43-.43.43h-3.433c-.237 0-.43-.193-.43-.43V2.573c0-.237.193-.429.43-.429z" fill="url(#s)"/>
<path transform="translate(42.618 14.69)" d="M5.794 0h3.434c.237 0 .43.192.43.429v10.936c0 .237-.193.43-.43.43H5.794c-.237 0-.429-.193-.429-.43V.43c0-.237.192-.429.43-.429z" stroke="#8AAFE1" stroke-dasharray="1.075 1.075" stroke-linecap="round" stroke-linejoin="round" stroke-width=".5"/>
<path transform="translate(5.599 15.761)" d="M23.07 0h5.365c.237 0 .43.192.43.429v5.36c0 .238-.193.43-.43.43H23.07c-.237 0-.43-.192-.43-.43V.43c0-.237.193-.429.43-.429z" fill="url(#ad)"/>
<path transform="translate(5.599 15.761)" d="M.537 0h15.022c.237 0 .429.192.429.429v5.36c0 .238-.192.43-.43.43H.538c-.238 0-.43-.192-.43-.43V.43C.107.192.3 0 .537 0z" stroke="#8AAFE1" stroke-dasharray="1.075 1.075" stroke-linecap="round" stroke-linejoin="round" stroke-width=".5"/>
<path transform="translate(5.599 15.761)" d="M.537 8.578h18.24c.238 0 .43.192.43.429v5.36c0 .237-.192.43-.43.43H.538c-.238 0-.43-.193-.43-.43v-5.36c0-.237.192-.43.43-.43z" fill="url(#x)"/>
<path transform="translate(5.599 15.761)" d="M23.07 9.435h5.365c.237 0 .43.192.43.43v5.36c0 .237-.193.43-.43.43H23.07c-.237 0-.43-.193-.43-.43v-5.36c0-.238.193-.43.43-.43z" stroke="#8AAFE1" stroke-linecap="round" stroke-linejoin="round" stroke-width=".5"/>
<path transform="translate(5.599 15.761)" d="M23.07 18.87h5.365c.237 0 .43.193.43.43v5.36c0 .238-.193.43-.43.43H23.07c-.237 0-.43-.192-.43-.43V19.3c0-.237.193-.43.43-.43z" fill="#E0E5FF"/>
<path transform="translate(5.599 15.761)" d="M23.07 28.306h5.365c.237 0 .43.192.43.43v5.36c0 .237-.193.43-.43.43H23.07c-.237 0-.43-.193-.43-.43v-5.36c0-.238.193-.43.43-.43z" stroke="#8AAFE1" stroke-dasharray="1.075 1.075" stroke-linecap="round" stroke-linejoin="round" stroke-width=".5"/>
<path transform="translate(5.599 15.761)" d="M.43 17.263h18.562c.237 0 .43.192.43.428v18.764c0 .237-.193.429-.43.429H.43c-.237 0-.429-.192-.429-.429V17.691c0-.236.192-.428.43-.428z" fill="url(#l)"/>
<path transform="translate(.234)" d="M2.146 0h76.506c1.186 0 2.146.96 2.146 2.144v5.898c0 .236-.192.428-.429.428H.43C.192 8.47 0 8.278 0 8.042V2.144C0 .96.96 0 2.146 0z" fill="url(#ap)"/>
<g transform="translate(2.917 2.895)" fill="#FFF">
<ellipse cx="1.341" cy="1.34" rx="1.341" ry="1.34"/>
<ellipse cx="5.526" cy="1.34" rx="1.341" ry="1.34"/>
<ellipse cx="9.711" cy="1.34" rx="1.341" ry="1.34"/>
</g>
<g stroke="#8AAFE1" stroke-linecap="round" stroke-linejoin="round" stroke-width=".5">
<path transform="translate(44.55 32.595)" d="m0 0.107h28.926m-28.926 3.431h28.926m-28.926 3.431h28.926m-28.926 3.431h28.926m-28.926 3.431h28.926m-28.926 3.432h28.926"/>
</g>
</g>
<g fill-rule="nonzero">
<path transform="translate(31.137 52.324)" d="m0 0h52.685v2.144h-52.685z" fill="url(#ac)"/>
<path transform="translate(31.137 52.324)" d="M2.468 26.156L4.995 2.359H2.468v23.797zM5.472 1.93L2.717 27.88c-.02.181-.173.32-.356.32-.178 0-.322-.145-.322-.323V1.93h3.433zM49.037 26.156V2.359H46.51l2.527 23.797zM46.033 1.93h3.433v25.947c0 .178-.144.322-.322.322-.183 0-.336-.138-.356-.32L46.033 1.93z" fill="url(#b)"/>
</g>
<g fill-rule="nonzero">
<g transform="translate(75.024 43.96)">
<mask id="ag" fill="#fff">
<use xlink:href="#h"/>
</mask>
<use fill="url(#p)" xlink:href="#h"/>
<path d="M.107-.322V6.41H0V-.322h.107zm.322 0V6.41H.322V-.322h.107zm.322 0V6.41H.644V-.322H.75zm.322 0V6.41H.966V-.322h.107zm.322 0V6.41h-.107V-.322h.107zm.322 0V6.41H1.61V-.322h.107zm.322 0V6.41H1.93V-.322h.108zm.322 0V6.41h-.108V-.322h.108zm.322 0V6.41h-.108V-.322h.108zm.321 0V6.41h-.107V-.322h.107zm.322 0V6.41H3.22V-.322h.107zm.322 0V6.41h-.107V-.322h.107z" fill="#42B16D" mask="url(#ag)"/>
</g>
<path transform="translate(73.414 48.785)" d="m0.107 0.107h5.365l-1.192 3.431h-2.98z" fill="url(#aq)"/>
<path transform="translate(73.414 48.785)" d="M0 0H5.472V1.072H0z" fill="url(#aj)"/>
</g>
<g fill-rule="nonzero">
<path transform="translate(44.657 33.989)" d="M.43 0h25.859c.237 0 .43.192.43.429v14.69c0 .236-.193.428-.43.428H.429c-.237 0-.429-.192-.429-.429V.428C0 .193.192 0 .43 0z" fill="url(#q)"/>
<path transform="translate(44.657 33.989)" d="m10.516 15.44h5.901v3.538h-5.901z" fill="#B7C8FF"/>
<path transform="translate(44.657 33.989)" d="m1.073 1.072h24.572v13.403h-24.572z" fill="#FFF"/>
</g>
<g fill-rule="nonzero">
<path transform="translate(22.874 52.859)" d="M7.186.093l5.488 2.29c.218.09.322.342.23.56-.011.029-.026.056-.044.081l-6.58 9.389c-.116.165-.331.227-.517.15l-5.488-2.29c-.219-.09-.322-.342-.231-.56.012-.03.027-.056.045-.081l6.58-9.39c.116-.164.33-.227.517-.149z" fill="url(#ar)"/>
<path transform="translate(22.874 52.859)" d="M10.233.234c.26.1.355.346.245.58l.251.104c.219.091.322.343.23.561-.02.052-.052.098-.091.138l-.555.555c-.124.125-.312.16-.473.091L8.39 1.64c-.219-.093-.32-.346-.226-.563.018-.042.042-.08.072-.114L8.73.401c.122-.139.318-.184.488-.113l.232.096c.21-.179.533-.247.783-.15zm-.52.298c-.08.108-.046.234.078.282.124.048.29 0 .371-.109.081-.108.047-.235-.077-.283-.124-.048-.29.001-.372.11z" fill="url(#r)"/>
</g>
<g fill-rule="nonzero">
<path transform="translate(9.354 37.849) scale(-1 1) rotate(83 -20.546 -2.267)" d="M.305.408c.168 0 .304.136.304.304v2.805H0V.712C0 .544.136.408.305.408z" fill="url(#b)"/>
<path transform="translate(9.354 37.849) scale(-1 1) rotate(83 -20.546 -2.267)" d="M.745.56c.037 0 .068.03.068.068v.935c0 .038-.03.068-.068.068-.037 0-.068-.03-.068-.068V.628c0-.037.03-.067.068-.067z" fill="url(#b)"/>
<path transform="translate(9.354 37.849) scale(-1 1) rotate(83 -20.546 -2.267)" d="M.305 0c.093 0 .169.076.169.169v.223C.474.485.398.56.304.56.212.56.136.485.136.39V.17C.135.076.211 0 .305 0zM0 3.466L.609 3.466.339 4.027z" fill="#F2F5FF"/>
</g>
<path transform="translate(9.354 66.691)" d="M22.794 12.893c.015-.153.912-1.025 1.877-.01.965 1.016 1.222 1.38 1.668 1.76.298.254.61.425.937.513l-1.84.116-2.652-.305c-.003-1.28 0-1.972.01-2.074z" fill="#F2A384" fill-rule="nonzero"/>
<path transform="translate(9.354 66.691)" d="M12.93 11.524l-2.203-6.271C16.264.683 20.232-.88 22.632.56c3.599 2.161 2.858 12.36 2.896 12.655.038.294-2.105 1.106-2.51.293-.406-.812-2.69-5.71-2.922-7.506-.972 1.287-3.361 3.128-7.167 5.522z" fill="url(#af)" fill-rule="nonzero"/>
<path transform="translate(9.354 66.691)" d="m7.001 15.924-2.921-0.663-0.786 0.258 1.189-1.563 2.078-0.428z" fill="#F2A384" fill-rule="nonzero"/>
<path transform="translate(9.354 66.691)" d="M22.784 13.814c.38-.19.86.843 1.558.843.698 0 1.133-.938 1.311-.843.522.276 1.28.41 2.113.736 2.051.8 2.25.915 1.951 2.103 0 .265-2.33.397-6.988.397-.188-.553-.29-1.069-.304-1.548-.023-.72-.023-1.499.359-1.688z" fill="url(#a)" fill-rule="nonzero"/>
<path transform="translate(9.354 66.691)" d="M24.884 12.746c-1.689 5.192-17.817 4.212-18.895 3.703-.616-.29.025-2.793.364-2.915.789-.284 11.787-1.26 9.675-.788S4.47 11.9 4.77 7.01c.199-3.228.564-4.097 2.696-3.572 1.097.27 3.751 1.436 4.815 1.74 6.928 1.975 14.14 2.844 12.603 7.567z" fill="url(#n)" fill-rule="nonzero"/>
<path transform="translate(9.354 66.691)" d="M5.804 13.683c-.078.364-.945.069-1.333.531-.388.463.031 1.305-.135 1.367-.485.183-1 .605-1.694.964-1.704.885-1.896.949-2.568.048-.187-.156 1.015-1.777 3.606-4.862.494.202.915.44 1.261.714.52.41.941.873.863 1.238z" fill="url(#a)" fill-rule="nonzero"/>
<path transform="translate(9.354 66.691)" d="m9.384 15.073c7.847-0.606 11.053-1.512 9.618-2.718s-3.335-2.308-5.7-3.307" stroke="#5F90CC" stroke-dasharray=".538 1.075" stroke-linecap="round" stroke-linejoin="round" stroke-width=".5"/>
<g transform="translate(13.646 51.68)" fill-rule="nonzero">
<mask id="o" fill="#fff">
<use xlink:href="#g"/>
</mask>
<use fill="url(#aa)" xlink:href="#g"/>
<path d="M3.72 1.108c.865-.197 3.812-.04 4.087 2.61.184 1.768.6 3.532 1.25 5.294.64 1.58 2.696 2.532 6.173 2.853.677-.04 1.085.283 1.222.972.138.688.05 1.347-.264 1.977-5.794 1.153-9.558 1.153-11.292 0C2.296 13.085.743 8 1.144 5.068c.4-2.93 1.711-3.762 2.576-3.96z" fill="#ABC0FF" mask="url(#o)" opacity=".5"/>
</g>
<g fill-rule="nonzero">
<path transform="translate(11.714 37.849)" d="M10.742 10.272c1.42 1.236 2.015 2.687 1.79 4.353-.227 1.667-1.477 2.423-3.75 2.268l-4.435-5.959 6.395-.662z" fill="url(#ae)"/>
<path transform="translate(11.714 37.849)" d="M14.652 7.328c-.046 1.401-.181 2.385-.405 2.95-.152.384.234.501 0 .83-.105.148-.792.533-.903.674-1.08 1.378-2.378 2.422-2.682 2.296-.223-.092-.714-.451-1.475-1.076-.677.814-.973 1.396-.887 1.746.128.525-1.469 1.259-2.072.63-.402-.42-.686-1.135-.853-2.144l.385-2.251L6.98 8.76l1.739-1.433 5.138-.225.796.225z" fill="#F2A384"/>
<path transform="translate(11.714 37.849)" d="M14.425 7.349c-.381 1.715-.457 2.897-.226 3.547-.376.391-.694.698-.954.918-.374.317 4.955-1.39 4.955-4.1 0-2.709-1.216-2.828-1.907-3.046C15.6 4.451 14-.325 9.806.1c-4.194.426-3.11 3.65-5.909 5.414-2.797 1.764-4.962 4.95-3.19 7.568 1.77 2.618 3.783 2.913 6.592 2.143 1.567-.43 1.445-3.168 1.594-5.693.011-.19-.504-.14-.547-.631-.042-.49.174-1.037.547-1.186.913-.366 2.194 1.073 3.08.894 2.06-.416 2.878-.836 2.452-1.26z" fill="url(#z)"/>
</g>
<g fill-rule="nonzero">
<path transform="translate(15.256 52.109)" d="M14.956 8.992l-1.229-.94 1.743-1.465.33-1.418.206-.252c.296.063.51.045.64-.053.222-.164.532-.626.777-.554.037.011.339.106.363.19.035.125-.21.256-.159.29.423.279.718.865.48 1.28-.278.48-.83.952-1.658 1.417l-1.493 1.505z" fill="#F2A384"/>
<path transform="translate(15.256 52.109)" d="M2.647.036C3.512-.16 5.97.398 6.246 3.048c.275 2.651.19 5.236 1.148 6.224.96.988 1.706.133 7.059-1.945.677-.04 1.085.283 1.222.972.138.688.138 1.012 0 .973-4.476 4.2-7.697 5.962-9.662 5.285C3.064 13.541-.33 6.927.07 3.996.47 1.066 1.782.233 2.647.036z" fill="url(#k)"/>
</g>
<path transform="translate(66.653 5.329)" d="m11.36 59.06c1.29 1.935 7.558 3.042 18.804 3.32h5.425l-3.45-7.406-9.952-4.56c-8.509 3.828-12.118 6.71-10.828 8.645z" fill="#BF8D30" fill-rule="nonzero"/>
<g transform="translate(66.653 5.329) scale(-1 1) rotate(-15 18.632 220.4)">
<path d="M36.949 10.755c.228.982.32 1.65.273 2.002-.074.564-.5.922-.627 1.243-.165.42.167.538-.088.898-.114.162-.863.584-.984.74-1.176 1.509-2.59 2.654-2.92 2.516-.244-.102-.78-.495-1.607-1.18-1.135.234-1.4 1.226-.794 2.976.909 2.624.705 4.189-1.134 3.46-1.226-.487-2.903-2.302-5.032-5.446 1.125-.185 1.937-.527 2.437-1.023.5-.496.763-1.223.789-2.18l1.328-2.435 1.894-1.571 5.598-.247.867.247z" fill="#F2A384" fill-rule="nonzero"/>
<path d="M30.152 5.944c-.476-3.683-1.828-5.656-4.058-5.92-3.345-.397-5.198 4.343-6.614 4.78-1.416.437-6.511 1.275-8.621 2.669-2.11 1.393-1.517 4.474-3.895 4.596-2.379.122-9.983 1.783-5.658 11.117 2.7 5.828 12.516 8.994 13.928 3.73 1.615-6.022 4.285-2.375 6.825-4.627s.633-4.2 1.545-5.764c.913-1.565 2.104.121 4.153-1.65 2.194-1.896 1.756-3.204 1.86-5.267.07-1.375.248-2.596.535-3.664z" fill="url(#ao)" fill-rule="nonzero"/>
<path d="M31.096 17c-1.133.234-1.397 1.222-.792 2.964.907 2.614.704 4.173-1.133 3.446-1.225-.484-2.901-2.292-5.028-5.423 1.124-.185 1.936-.525 2.435-1.019.5-.494.762-1.218.788-2.172l4.317.008c-.3.33-.47.7-.509 1.11-.063.677 1.093 1.683 1.124 1.962.009.083-.392-.209-1.202-.875z" fill="url(#au)"/>
<ellipse cx="27.845" cy="6.326" rx="1.663" ry="1.823" fill="url(#y)" fill-rule="nonzero"/>
<path d="M36.512 14.562c.158.429-.846.734-1.17 1.177-.426.36 7.914 1.495 8.213-4.029.298-5.524-6.175-4.986-6.93-5.223-.755-.237-4.371-2.993-6.337-2.449-1.95.54-3.547 2.532-3.932 5.55-.465 3.64.065 5.802.827 6.006.852.227 2.333-.055 4.444-.848-.769-.344-.91-.952-.422-1.824.731-1.309 1.98-.649 1.98.504l.655-.741 3.146.499c-.444.569-.602 1.028-.474 1.378z" fill="url(#ak)" fill-rule="nonzero"/>
</g>
<path transform="translate(78.885 45.891)" d="M6.819 34.634l.342 2.118c-.416.563-.93.845-1.54.845-.611 0-1.155-.142-1.632-.426l-.342-2.315 3.172-.222z" fill="url(#i)" fill-rule="nonzero"/>
<path transform="translate(78.885 45.891)" d="M17.416 34.634l.342 2.118c-.416.563-.929.845-1.54.845-.61 0-1.155-.142-1.632-.426l-.342-2.315 3.172-.222z" fill="url(#i)" fill-rule="nonzero"/>
<path transform="translate(78.885 45.891)" d="M17.769 36.461c.26 0 .26.874.27 1.54.004.241-.04.61-.132 1.106-.037.203-.203.352-.4.359-4.161.15-6.669.146-6.676-.012-.333-1.082-.152-1.198 1.735-2.047.767-.344 1.472-.51 1.948-.792.164-.097.506.686 1.634.686 1.127 0 1.362-.84 1.62-.84z" fill="url(#a)" fill-rule="nonzero"/>
<path transform="translate(78.885 45.891)" d="M7.171 36.461c.26 0 .26.874.27 1.54.005.241-.039.61-.131 1.106-.038.203-.204.352-.4.359-4.162.15-6.669.146-6.677-.012-.332-1.082-.151-1.198 1.736-2.047.767-.344 1.471-.51 1.948-.792.163-.097.505.686 1.633.686 1.128 0 1.362-.84 1.621-.84z" fill="url(#a)" fill-rule="nonzero"/>
<path transform="translate(78.885 45.891)" d="M18.83.04c-.104 2.325-.104 3.622 0 3.891.155.405-.756 5.447-2.733 15.129.169 9.446 1.579 14.635 1.41 15.567-.254 1.398-3.202 1.398-3.56.388-.238-.674-1.225-6.146-2.96-16.418l-.305-8.057c-1.214 2.111-2.91 4.987-5.092 8.627.357 10.019 1.71 15.322 1.24 15.908-.42.523-3.183.892-3.35 0C1.8 28.165.959 22.826.959 19.061.958 15.296 2.691 8.956 6.155.04H18.83z" fill="url(#ab)" fill-rule="nonzero"/>
<path transform="translate(78.885 45.891)" d="M16.266 34.412l-2.05-14.665c-.09-.64-.084-1.29.017-1.929l2.033-12.816h0" stroke="#1542AB" stroke-width=".5"/>
<path transform="translate(78.885 45.891)" d="M5.592 19.164l-.042-.013 3.525-9.926c.235.197.77.636 1.607 1.315-1.213 2.11-2.91 4.985-5.09 8.624z" fill="url(#an)" fill-rule="nonzero"/>
<path transform="translate(66.653 5.329) scale(-1 1) rotate(-15 0 220.09)" d="M29.429 24.472l1.549 1.135 1.035 5.427c-2.085 3.563-3.26 5.84-3.525 6.83-.126.47-.28 1.734-.46 3.796-.005.051-.011.103-.018.154-.272 2.109-2.203 3.597-4.313 3.324-2.972-.384-5.205-1.513-6.39-3.36-.815-1.272.47-16.856 1.414-17.456.945-.6 1.6-1.575 5.532-1.97 2.325 3.136 3.96 4.615 4.905 4.435.944-.18.665-1.04.27-2.315z" fill="url(#ah)" fill-rule="nonzero"/>
<g transform="translate(93.8 28.199)" fill-rule="nonzero">
<mask id="ax" fill="#fff">
<use xlink:href="#f"/>
</mask>
<use fill="url(#c)" xlink:href="#f"/>
<path d="M3.559 10.917c-.822-1.103-.822-2.915 0-5.435.29-.893 1.518-1.137 3.27 0 2.1 1.363 5.305 7.16 3.808 11.41-2.306 6.546-6.105 8.34-8.205 8.77-.4.081-.486-.118-1.324.75-.952.986-.838-.23.34-3.646 2.696-3.823 3.931-6.382 3.706-7.675-.225-1.294-.757-2.685-1.595-4.174z" fill="#EEB84E" mask="url(#ax)" opacity=".5"/>
</g>
<path transform="translate(66.653 5.329)" d="M30.088 47.115l-1.453 1.545c-.437.842-.89 1.41-1.36 1.703-.406.254-1.003-.02-1.297-.433-.06-.084-.456-.095-.487-.187-.08-.242.303-.58.528-.795.336-.32-.082-.268.08-.614.109-.23.642-.438 1.602-.621l1.404-1.792.983 1.194z" fill="#F2A384" fill-rule="nonzero"/>
<path transform="translate(66.653 5.329)" d="M30.706 31.643c-.821-1.103-.821-2.915 0-5.435.291-.894 1.518-1.138 3.27 0 2.1 1.363 4.706 7.883 3.209 12.134-2.746 7.796-5.234 7.958-6.77 8.937-1.024.653-1.613.226-1.765-1.283 2.887-4.194 4.217-6.938 3.992-8.232-.225-1.293-.87-3.334-1.936-6.121z" fill="url(#c)" fill-rule="nonzero"/>
<path transform="translate(66.653 5.329)" d="M3.635 22.105L2.142 20.6c-.828-.465-1.38-.938-1.657-1.418-.24-.414.056-1 .479-1.28.086-.056-1.002-1.284-.908-1.311.244-.072 1.68 1.154 1.888 1.387.31.346.271-.073.612.101.227.117.415.657.565 1.621l1.743 1.465-1.229.94z" fill="#F2A384" fill-rule="nonzero"/>
<g transform="translate(69.443 25.412)" fill-rule="nonzero">
<mask id="v" fill="#fff">
<use xlink:href="#e"/>
</mask>
<use fill="url(#c)" xlink:href="#e"/>
<path d="M13.986 11.772c.016-.902.16-1.635.431-2.198.272-.564.348-.896.229-.996-2.963 1.464-5.443 1.796-7.44.996-1.998-.8-1.495.297 1.509 3.292l5.271-1.094z" fill="#EEB84E" mask="url(#v)" opacity=".5"/>
</g>
<g fill-rule="nonzero">
<path transform="translate(46.695 30.665)" d="M2.959 11.613c-.332 1.071-.599 1.78-.8 2.127-.304.52.235 1.83 1.555 1.83.88 0 2.318-.4 4.316-1.2-.437-.474-.75-1.004-.939-1.59-.19-.586-.19-1.293 0-2.121 1.012-2.367 1.412-3.806 1.2-4.317-.21-.511-1.347-1.383-3.408-2.614-2.15.886-3.226 1.662-3.226 2.329v1.778c-.627-.27-.941-.059-.941.637S1.121 9.644 1.932 9.9l1.027 1.713z" fill="#B06C57"/>
<path transform="translate(46.695 30.665)" d="M5.574.843c.619.326 2.497.87 2.829 1.384.436.675.533 1.367.29 2.073.719.987.719 2.377 0 4.172-1.076 2.692-1.776 2.963-3.12 3.132-1.343.168-2.31-1.302-2.762-2.396-.301-.73-.694-1.249-1.178-1.559l-.232-1.867S.02 5.649.02 3.298c0-2.35 1.612-4.532 5.553-2.455z" fill="url(#am)"/>
</g>
<g fill-rule="nonzero">
<path transform="translate(50.129 59.186)" d="M14.31 15.452c.13-.088 1.987.008 1.767 1.002-.22.993-.293 1.386-.324 1.79-.02.27-.156.483-.407.638l-1.22-.637-.242-.93c.197-1.183.339-1.805.426-1.863z" fill="#B06C57"/>
<path transform="translate(50.129 59.186)" d="M13.601 16.89c.362-.056.473.928 1.042 1.112.569.185 1.176-.478 1.295-.353.35.368.931.68 1.522 1.17 1.455 1.206 1.585 1.354 1.022 2.261-.072.22-2.004-.287-5.798-1.518-.004-.509.052-.964.17-1.366.176-.602.386-1.249.747-1.305z" fill="url(#a)"/>
<path transform="translate(50.129 59.186)" d="M6.235 14.893c.057.088.016.63-.123 1.627l-.585.76-1.373.11c.19-.113.329-.299.416-.555.13-.385.177-.62.364-1.62.186-1 1.215-.454 1.3-.322z" fill="#B06C57"/>
<path transform="translate(50.129 59.186)" d="M6.029 16.333c.408.037.57.234.74.823.112.393.152.841.12 1.346-1.747.47-2.79.64-3.13.51-1.367-.526-.167-2.318.036-2.504.143-.131.492-.38 1.149-.594.656-.213.676.382 1.085.419z" fill="url(#a)"/>
<path transform="translate(50.129 59.186)" d="M12.037 2.257c4.132-1.854 7.095-1.854 8.89 0 2.694 2.782-3.596 12.737-4.024 13.995-.428 1.257-1.618.45-2.068.33-.3-.08-.573-.33-.817-.75L15.966 7.9l-4.897-.664-1.404-3.06 2.372-1.92z" fill="#111AA7"/>
<path transform="translate(50.129 59.186)" d="M2.38 2.257C7.028.086 9.77-.457 10.606.63c1.254 1.628 2.328 6.982-3.947 14.9-.453.32-.855.455-1.206.405-.351-.05-.644-.37-.878-.96L6.31 7.9 1.41 7.237.008 4.177l2.372-1.92z" fill="#111AA7"/>
<path transform="translate(29.527 29.593)" d="M19.335 15.111c1.989.91 3.198 1.136 3.63.682.43-.454.62-.79.57-1.008 3.841.324 6.182 1.368 7.02 3.13 1.26 2.644 4.586 11.46 6.037 9.695.967-1.176 1.641-2.148 2.023-2.918-.636-.589-.954-.947-.954-1.075 0-.193.636-.203.954-.102.318.102.259-2.214.46-2.366.133-.102.303.442.509 1.631.305-1.28.512-1.893.62-1.842.109.052.109.763 0 2.135.538-.636.849-.904.93-.806.083.099-.076.549-.476 1.35.494-.182.742-.215.742-.102 0 .114-.248.343-.742.688l-.454.842c-1.1 4.272-2.7 6.54-4.797 6.803-2.098.263-2.933.263-2.507 0 .513.703.699 1.291.559 1.764-.21.708-1.621 4.242-3.091 4.838-.98.397-3.777-.611-8.39-3.024l-7.796-7.186-.768-7.878C6.133 16.238 2.18 10.83 1.559 4.135l-.312-1C.522 2.35.139 1.902.095 1.795c-.043-.109.19-.042.697.2C.535 1.267.44.865.507.787c.066-.077.313.151.74.684.031-.928.1-1.412.203-1.45.104-.038.26.363.47 1.203.097-.741.196-1.07.297-.985.101.085.193.67.275 1.756.401-.35.625-.461.67-.337.047.124-.072.558-.354 1.301 3.003 4.991 5.534 7.922 7.593 8.792 2.059.87 5.115 1.767 9.17 2.69l-.236.67z" fill="#B06C57"/>
<path transform="translate(29.527 29.593)" d="M21.336 16.62c1.232.348 2.437-.214 3.614-1.687 2.898.226 4.767 1.22 5.606 2.982.737 1.55 2.185 5.217 3.55 7.634.642 1.139-.541 2.418-3.55 3.837.895 1.353 1.797 2.231 2.706 2.635.309.29.309 1.212.197 1.59-.21.71-1.621 4.243-3.091 4.839-.98.397-3.777-.611-8.39-3.024l-7.796-7.186-.975-7.792c-2.49-.94-3.804-1.696-3.945-2.27-1.055-4.301 1.18-6.7 2.989-5.936 2.059.87 4.523 1.515 7.393 1.933-.105 1.281.46 2.096 1.692 2.444z" fill="url(#aw)"/>
<path transform="translate(29.527 29.593)" d="M17.247 26.962c-.16-.6.196-1.217.797-1.378.6-.161 1.219.195 1.38.796.138.514-.104 1.04-.553 1.282-.308.044-.609.07-.897.075-.344-.116-.626-.397-.727-.775zm-5.108-9.424c-.601.161-1.22-.195-1.38-.796-.161-.6.195-1.218.796-1.379.602-.16 1.22.196 1.38.796.161.601-.195 1.218-.796 1.38zm5.163 4.557c-.6.16-1.219-.196-1.38-.796-.16-.6.196-1.218.797-1.38.601-.16 1.219.196 1.38.797.16.6-.196 1.218-.797 1.379zm-.276-5.38c-.6.162-1.219-.195-1.38-.795-.16-.6.196-1.218.797-1.38.601-.16 1.219.196 1.38.797.16.6-.196 1.218-.797 1.379zM28.66 36.303c-.16-.6.196-1.218.797-1.379.601-.16 1.219.196 1.38.796.138.515-.104 1.04-.553 1.283-.308.044-.608.07-.897.075-.344-.117-.625-.398-.727-.775zm-5.108-9.424c-.601.161-1.219-.195-1.38-.796-.16-.6.196-1.218.797-1.379.6-.16 1.219.196 1.38.796.16.6-.196 1.218-.797 1.379zm5.163 4.557c-.6.16-1.218-.196-1.38-.796-.16-.601.196-1.218.797-1.38.601-.16 1.22.196 1.38.797.161.6-.195 1.218-.797 1.379zm-.276-5.38c-.6.161-1.218-.195-1.38-.796-.16-.6.196-1.217.797-1.378.601-.161 1.22.195 1.38.796.161.6-.195 1.218-.797 1.379zm-4.887-4.563c-.601.16-1.219-.194-1.38-.79-.16-.595.196-1.207.797-1.367.6-.16 1.219.194 1.38.79.16.595-.196 1.208-.797 1.367zm4.887-.815c-.6.16-1.218-.194-1.38-.79-.16-.596.196-1.208.797-1.368.601-.16 1.22.194 1.38.79.161.596-.195 1.208-.797 1.368z" fill="url(#m)"/>
</g>
<g transform="translate(41.545 50.287)" fill-rule="nonzero">
<path d="m16.524 19.729h1.288v5.253h-1.288z" fill="#D2D9FF"/>
<circle cx="10.194" cy="31.737" r="1" fill="url(#d)"/>
<circle cx="23.714" cy="31.737" r="1" fill="url(#d)"/>
<circle cx="17.168" cy="32.81" r="1" fill="url(#d)"/>
<path d="M15.868 26.153l-.074-.8c-.002-.015-.002-.032-.002-.048.005-.237.2-.425.438-.42l1.844.038.024.001c.237.019.414.225.395.46l-.052.687 5.872 4.028c.016.01.031.022.046.035.28.23.32.643.089.923-.265.32-.72.407-1.084.206l-5.107-2.813-.28 3.63c-.03.406-.364.722-.77.733-.404.01-.747-.294-.784-.695l-.35-3.769-5.29 2.914c-.363.201-.819.114-1.083-.206-.23-.28-.191-.693.088-.923.015-.013.03-.024.047-.035l5.989-4.108.044.162z" fill="url(#b)"/>
<path d="M2.063.192C1.413-.171.421.169.107.624c.101.643.165.92.168.936 1.02 5.496 4.972 10.787 8.049 14.099 1.753 1.888 3.24 3.394 4.459 4.518 1.183.184 2.273.058 3.268-.378.648-.285 1.666-.2 1.637-1.092-.06-1.838-1.694-2.766-2.338-5.427-.605-2.497.075-7.583-1.753-8.63-1.828-1.047-4.117.77-7.606-.743C3.523 2.836 2.713.554 2.063.192z" fill="url(#u)"/>
<path d="m20.299 15.532c1.75-0.48 4.117-1.01 5.316 0s0.648 2.63-0.154 3.543c-0.535 0.608-2.907 1.193-7.117 1.754l-0.374-3.077c1.016-0.433 1.792-1.173 2.329-2.22z" fill="#111AA7"/>
<path d="M.093.563c.795 6.311 1.484 10.463 2.07 12.457.886 3.024 2.016 4.297 3.236 5.51 1.22 1.213 5.782 3.326 9.426 3.513 3.225.165 7.73-.777 9.396-1.812 1.666-1.036 2.528-3.256.644-3.808s-7.956 1.721-8.528 1.473c-3.183-1.38-2.213-10.953-3.748-11.968-1.458-.965-4.569.274-8.315-1.378C3.176 4.066 1.783 2.737.094.563z" fill="url(#b)"/>
</g>
<ellipse cx="118.37" cy="84.115" rx="9.55" ry="1.662" fill="#E2EBFC" opacity=".806"/>
<g fill-rule="nonzero">
<path transform="translate(103.03 43.392) scale(-1 1) rotate(-16 3.006 107.97)" d="M9.896.028c1.897.189 1.243 4.463 1.763 5.253.52.785 1.984 1.022 1.78 2.732-.204 1.71-1.616 1.653-1.785 3.073-.168 1.42 3.007 1.235 2.736 3.477-.27 2.242-2.719 2.922-2.88 4.273-.16 1.35 1.052 1.88.693 4.87-.359 2.99-2.83 3.602-6.519 3.863-3.69.261-5.979-.747-5.62-3.97.36-3.224 4.276-3.131 4.76-4.9.484-1.762-1.997-2.721-1.764-4.79.233-2.068 3.965-1.972 4.155-3.624.19-1.652-2.73-2.553-2.537-4.27.194-1.716.936-1.971 2.335-2.562C8.413 2.873 8-.16 9.896.028z" fill="url(#j)"/>
<path transform="translate(103.03 43.392) scale(-1 1) rotate(-16 3.006 107.97)" d="M6.03 26.03c-.078.023-.147-.027-.153-.114-.007-.086.051-.175.13-.198 1.868-.56 2.885-1.693 3.09-3.435.01-.087.081-.16.159-.164.077-.003.131.066.121.153-.224 1.899-1.353 3.158-3.348 3.758zM7.107 18.876c-.078-.006-.122-.082-.1-.17.023-.087.104-.153.182-.147 1.255.101 2.325-.635 3.238-2.23.045-.08.136-.116.203-.083.067.034.084.125.038.204-.98 1.71-2.176 2.535-3.561 2.426zM9.657 9.33c-.053-.007-.084-.06-.069-.118.016-.058.07-.1.123-.092.637.092 1.177-.246 1.638-1.031.03-.052.092-.074.138-.049.045.026.057.088.027.14-.506.862-1.132 1.254-1.857 1.15zM9.588 8.19c.054-.002.097-.052.095-.111-.001-.06-.046-.105-.1-.102-.652.031-1.107-.359-1.379-1.196-.018-.056-.074-.085-.125-.064-.05.02-.077.083-.06.139.3.92.826 1.371 1.57 1.334zM7.636 16.738c.079-.008.14-.084.138-.171-.002-.087-.068-.152-.147-.144-1.167.11-1.987-.563-2.479-2.066-.027-.083-.109-.122-.183-.088s-.112.128-.085.21c.532 1.625 1.457 2.385 2.756 2.259zM5.427 24.303c.079-.011.14-.091.138-.178-.002-.087-.068-.149-.147-.138-1.167.166-1.987-.472-2.479-1.956-.027-.082-.109-.117-.183-.08-.074.037-.112.133-.085.215.532 1.605 1.457 2.324 2.756 2.137z" fill="#98BBE9"/>
<path transform="translate(103.03 43.392) scale(-1 1) rotate(-16 3.006 107.97)" d="M5.455 31.997c-.014.118-.11.222-.214.233-.104.01-.32-.063-.306-.182.234-.734.425-1.74.574-3.015.223-1.914-.416-5.053.028-7.187.443-2.129 2.862-6.158 3.73-9.32.706-2.557.224-4.9.146-6.452-.077-1.555.265-3.386.299-3.383.04.003-.301 1.881-.194 3.39.107 1.503.517 3.49.164 5.679-.656 4.082-3.378 7.681-3.69 10.39-.313 2.71.296 4.354.141 6.727-.104 1.58-.33 2.62-.678 3.12z" fill="#8FAFDA"/>
<path transform="translate(103.03 43.392) rotate(-17 20.547 2.86)" d="m7.128 0c1.897 0 1.747 4.467 2.356 5.247 0.608 0.78 2.09 0.933 2.09 2.745 0 1.811-1.413 1.811-1.413 3.303 0 1.491 3.144 1.216 3.144 3.619 0 2.402-2.368 3.108-2.368 4.533s1.28 2.024 1.28 5.205c0 3.18-2.417 3.65-6.107 3.65s-6.11-1.165-6.11-4.345 3.94-2.985 4.222-4.767c0.282-1.783-2.308-2.753-2.308-4.818 0-2.064 3.732-2.064 3.732-3.75 0-1.687-3.008-2.452-3.008-4.172s0.707-2.028 2.028-2.725c1.32-0.698 0.564-3.725 2.462-3.725z" fill="url(#as)"/>
<path transform="translate(103.03 43.392) rotate(-17 20.547 2.86)" d="M6.279 26.736c-.076.02-.15-.037-.167-.126-.016-.09.031-.178.107-.197 1.817-.468 2.706-1.596 2.706-3.41 0-.092.062-.166.14-.166.077 0 .14.074.14.165 0 1.982-.988 3.235-2.926 3.734z" fill="#5ACE87"/>
<path transform="translate(103.03 43.392) rotate(-17 20.547 2.86) rotate(25 8.117 18.055)" d="M7.214 19.999c-.074.028-.154-.02-.178-.106-.024-.087.016-.18.09-.21 1.2-.459 1.797-1.584 1.797-3.415 0-.092.063-.166.141-.166.078 0 .141.074.141.166 0 1.966-.667 3.223-1.991 3.73z" fill="#5ACE87"/>
<path transform="translate(103.03 43.392) rotate(-17 20.547 2.86) rotate(25 8.787 8.832)" d="M8.327 9.852c-.05.019-.105-.013-.122-.072-.016-.059.012-.122.062-.141.61-.231.913-.795.913-1.72 0-.062.043-.112.096-.112.053 0 .097.05.097.112 0 1.016-.351 1.67-1.046 1.933z" fill="#5ACE87"/>
<path transform="translate(103.03 43.392) rotate(-17 20.547 2.86) scale(-1 1) rotate(25 0 -23.669)" d="M6.486 8.68c-.05.02-.105-.012-.122-.071-.016-.059.012-.122.062-.141.61-.231.913-.795.913-1.72 0-.062.043-.112.096-.112.053 0 .097.05.097.112 0 1.016-.351 1.67-1.046 1.932z" fill="#5ACE87"/>
<path transform="translate(103.03 43.392) rotate(-17 20.547 2.86) scale(-1 1) rotate(25 0 -8.201)" d="M4.535 17.754c-.074.028-.153-.019-.177-.106-.024-.087.016-.18.09-.209 1.09-.42 1.631-1.447 1.632-3.123 0-.092.063-.166.14-.166.077 0 .14.074.14.166 0 1.81-.611 2.97-1.825 3.438z" fill="#5ACE87"/>
<path transform="translate(103.03 43.392) rotate(-17 20.547 2.86) scale(-1 1) rotate(25 0 5.548)" d="M3.196 25.464c-.074.028-.153-.02-.177-.106-.024-.087.016-.18.09-.209 1.09-.42 1.632-1.448 1.632-3.123 0-.092.063-.166.14-.166.078 0 .14.074.14.166 0 1.81-.611 2.97-1.825 3.438z" fill="#5ACE87"/>
<path transform="translate(103.03 43.392) rotate(-17 20.547 2.86)" d="M6.396 32.864c0 .122-.085.22-.19.22-.104 0-.33-.098-.33-.22.15-.736.227-1.758.228-3.064.002-1.96-1.005-5.223-.806-7.387.2-2.165 2.154-6.28 2.652-9.554.406-2.665-.347-5.057-.603-6.643-.256-1.587-.128-3.483-.094-3.483.04 0-.082 1.946.199 3.483.28 1.536.918 3.564.823 5.84-.178 4.236-2.485 7.917-2.485 10.686 0 2.768.805 4.5.926 6.948.08 1.632-.026 2.69-.32 3.174z" fill="#42B16D"/>
<path transform="translate(103.03 43.392) scale(-1 1) rotate(-28 10.132 75.588)" d="M7.128 0c1.897 0 1.747 3.822 2.356 4.49.608.667 2.09.797 2.09 2.348 0 1.55-1.413 1.55-1.413 2.826s3.144 1.04 3.144 3.096c0 2.055-2.368 2.66-2.368 3.879 0 1.22 1.28 1.732 1.28 4.453S9.8 24.215 6.11 24.215c-3.69 0-6.11-.996-6.11-3.717s3.94-2.554 4.222-4.08c.282-1.524-2.308-2.355-2.308-4.121 0-1.766 3.732-1.766 3.732-3.209S2.638 6.99 2.638 5.518c0-1.471.707-1.735 2.028-2.331C5.986 2.59 5.23 0 7.128 0z" fill="url(#al)"/>
<path transform="translate(103.03 43.392) scale(-1 1) rotate(-28 10.132 75.588)" d="M6.279 22.876c-.076.016-.15-.032-.167-.109-.016-.076.031-.152.107-.168 1.817-.4 2.706-1.365 2.706-2.919 0-.078.062-.141.14-.141.077 0 .14.063.14.141 0 1.696-.988 2.769-2.926 3.196z" fill="#D2DEF8"/>
<path transform="translate(103.03 43.392) scale(-1 1) rotate(-28 10.132 75.588) rotate(25 8.117 15.447)" d="M7.214 17.11c-.074.025-.154-.015-.178-.09-.024-.074.016-.154.09-.178 1.2-.394 1.797-1.357 1.797-2.923 0-.079.063-.142.141-.142.078 0 .141.063.141.142 0 1.682-.667 2.757-1.991 3.192z" fill="#D2DEF8"/>
<path transform="translate(103.03 43.392) scale(-1 1) rotate(-28 10.132 75.588) rotate(25 8.787 7.557)" d="M8.327 8.429c-.05.016-.105-.011-.122-.061-.016-.05.012-.104.062-.12.61-.199.913-.681.913-1.473 0-.052.043-.095.096-.095.053 0 .097.042.097.095 0 .87-.351 1.429-1.046 1.654z" fill="#D2DEF8"/>
<path transform="translate(103.03 43.392) scale(-1 1) rotate(-28 10.132 75.588) scale(-1 1) rotate(25 0 -24.775)" d="M6.486 7.427c-.05.016-.105-.011-.122-.061-.016-.05.012-.104.062-.12.61-.199.913-.681.913-1.473 0-.052.043-.095.096-.095.053 0 .097.042.097.095 0 .87-.351 1.429-1.046 1.654z" fill="#D2DEF8"/>
<path transform="translate(103.03 43.392) scale(-1 1) rotate(-28 10.132 75.588) scale(-1 1) rotate(25 0 -10.506)" d="M4.535 15.19c-.074.025-.153-.016-.177-.09-.024-.075.016-.155.09-.179 1.09-.36 1.631-1.239 1.632-2.672 0-.079.063-.142.14-.142.077 0 .14.063.14.141 0 1.55-.611 2.542-1.825 2.942z" fill="#D2DEF8"/>
<path transform="translate(103.03 43.392) scale(-1 1) rotate(-28 10.132 75.588) scale(-1 1) rotate(25 0 2.13)" d="M3.196 21.787c-.074.024-.153-.017-.177-.09-.024-.075.016-.155.09-.18 1.09-.359 1.632-1.238 1.632-2.672 0-.078.063-.142.14-.142.078 0 .14.064.14.142 0 1.549-.611 2.541-1.825 2.942z" fill="#D2DEF8"/>
<path transform="translate(103.03 43.392) scale(-1 1) rotate(-28 10.132 75.588)" d="M6.396 28.119c0 .103-.085.187-.19.187-.104 0-.33-.084-.33-.187.15-.63.227-1.505.228-2.622.002-1.677-1.005-4.469-.806-6.32.2-1.852 2.154-5.373 2.652-8.175.406-2.28-.347-4.327-.603-5.684-.256-1.357-.128-2.98-.094-2.98.04 0-.082 1.665.199 2.98.28 1.315.918 3.05.823 4.997-.178 3.624-2.485 6.774-2.485 9.143 0 2.369.805 3.85.926 5.945.08 1.396-.026 2.301-.32 2.716z" fill="#D2DEF8"/>
<path transform="translate(112.69 76.77)" d="m0.227 0.222h11.327l-2.517 7.097h-6.293z" fill="url(#at)"/>
<path transform="translate(112.69 76.77)" d="M0 0H11.554V2.218H0z" fill="url(#t)"/>
</g>
</g>
</g>
</svg>
